the msg is <meta message track_name name='Piano' time=0> in track number 0
the msg is program_change channel=0 program=0 time=0 in track number 0
the msg is note_off channel=0 note=72 velocity=0 time=0 in track number 0
the msg is pitchwheel channel=0 pitch=0 time=0 in track number 0
the msg is program_change channel=0 program=0 time=0 in track number 0
the msg is <meta message set_tempo tempo=500000 time=0> in track number 0
the msg is <meta message time_signature numerator=4 denominator=4 clocks_per_click=24 notated_32nd_notes_per_beat=8 time=0> in track number 0
the msg is note_on channel=0 note=72 velocity=100 time=0 in track number 0
the msg is note_off channel=0 note=74 velocity=0 time=683 in track number 0
the msg is note_on channel=0 note=74 velocity=100 time=0 in track number 0
the msg is note_off channel=0 note=74 velocity=0 time=341 in track number 0
the msg is note_on channel=0 note=74 velocity=100 time=0 in track number 0
the msg is note_off channel=0 note=74 velocity=0 time=683 in track number 0
the msg is note_on channel=0 note=74 velocity=100 time=0 in track number 0
the msg is note_off channel=0 note=74 velocity=0 time=341 in track number 0
the msg is note_on channel=0 note=74 velocity=100 time=0 in track number 0
the msg is note_off channel=0 note=76 velocity=0 time=683 in track number 0
the msg is note_on channel=0 note=76 velocity=100 time=0 in track number 0
the msg is note_off channel=0 note=79 velocity=0 time=341 in track number 0
the msg is note_on channel=0 note=79 velocity=100 time=0 in track number 0
the msg is note_off channel=0 note=79 velocity=0 time=341 in track number 0
the msg is note_on channel=0 note=79 velocity=100 time=0 in track number 0
the msg is note_off channel=0 note=76 velocity=0 time=342 in track number 0
the msg is note_on channel=0 note=76 velocity=100 time=0 in track number 0
the msg is note_off channel=0 note=74 velocity=0 time=85 in track number 0
the msg is note_on channel=0 note=74 velocity=100 time=0 in track number 0
the msg is note_off channel=0 note=72 velocity=0 time=256 in track number 0
the msg is note_on channel=0 note=72 velocity=100 time=0 in track number 0
the msg is note_off channel=0 note=72 velocity=0 time=1792 in track number 0
the msg is note_on channel=0 note=72 velocity=100 time=0 in track number 0
the msg is note_off channel=0 note=72 velocity=0 time=256 in track number 0
the msg is note_on channel=0 note=72 velocity=100 time=0 in track number 0
the msg is note_off channel=0 note=74 velocity=0 time=512 in track number 0
the msg is note_on channel=0 note=74 velocity=100 time=0 in track number 0
the msg is note_off channel=0 note=74 velocity=0 time=512 in track number 0
the msg is note_on channel=0 note=74 velocity=100 time=0 in track number 0
the msg is note_off channel=0 note=74 velocity=0 time=256 in track number 0
the msg is note_on channel=0 note=74 velocity=100 time=0 in track number 0
the msg is note_off channel=0 note=76 velocity=0 time=512 in track number 0
the msg is note_on channel=0 note=76 velocity=100 time=0 in track number 0
the msg is note_off channel=0 note=79 velocity=0 time=512 in track number 0
the msg is note_on channel=0 note=79 velocity=100 time=0 in track number 0
the msg is note_off channel=0 note=79 velocity=0 time=256 in track number 0
the msg is note_on channel=0 note=79 velocity=100 time=0 in track number 0
the msg is note_off channel=0 note=76 velocity=0 time=256 in track number 0
the msg is note_on channel=0 note=76 velocity=100 time=0 in track number 0
the msg is note_off channel=0 note=74 velocity=0 time=256 in track number 0
the msg is note_on channel=0 note=74 velocity=100 time=0 in track number 0
the msg is note_off channel=0 note=72 velocity=0 time=256 in track number 0
the msg is note_on channel=0 note=72 velocity=100 time=0 in track number 0
the msg is note_off channel=0 note=74 velocity=0 time=512 in track number 0
the msg is note_on channel=0 note=74 velocity=100 time=0 in track number 0
the msg is note_off channel=0 note=76 velocity=0 time=512 in track number 0
the msg is note_on channel=0 note=76 velocity=100 time=0 in track number 0
the msg is note_off channel=0 note=79 velocity=0 time=512 in track number 0
the msg is note_on channel=0 note=79 velocity=100 time=0 in track number 0
the msg is note_off channel=0 note=79 velocity=0 time=256 in track number 0
the msg is note_on channel=0 note=79 velocity=100 time=0 in track number 0
the msg is note_off channel=0 note=76 velocity=0 time=256 in track number 0
the msg is note_on channel=0 note=76 velocity=100 time=0 in track number 0
the msg is note_off channel=0 note=74 velocity=0 time=256 in track number 0
the msg is note_on channel=0 note=74 velocity=100 time=0 in track number 0
the msg is note_off channel=0 note=72 velocity=0 time=256 in track number 0
the msg is note_on channel=0 note=72 velocity=100 time=0 in track number 0
the msg is note_off channel=0 note=74 velocity=0 time=512 in track number 0
the msg is note_on channel=0 note=74 velocity=100 time=0 in track number 0
the msg is note_off channel=0 note=74 velocity=0 time=256 in track number 0
the msg is note_on channel=0 note=74 velocity=100 time=0 in track number 0
the msg is note_off channel=0 note=74 velocity=0 time=256 in track number 0
the msg is note_on channel=0 note=74 velocity=100 time=0 in track number 0
the msg is note_off channel=0 note=74 velocity=0 time=512 in track number 0
the msg is note_on channel=0 note=74 velocity=100 time=0 in track number 0
the msg is note_off channel=0 note=74 velocity=0 time=512 in track number 0
the msg is note_on channel=0 note=74 velocity=100 time=0 in track number 0
the msg is note_off channel=0 note=76 velocity=0 time=512 in track number 0
the msg is note_on channel=0 note=76 velocity=100 time=0 in track number 0
the msg is note_off channel=0 note=79 velocity=0 time=512 in track number 0
the msg is note_on channel=0 note=79 velocity=100 time=0 in track number 0
the msg is note_off channel=0 note=79 velocity=0 time=256 in track number 0
the msg is note_on channel=0 note=79 velocity=100 time=0 in track number 0
the msg is note_off channel=0 note=76 velocity=0 time=256 in track number 0
the msg is note_on channel=0 note=76 velocity=100 time=0 in track number 0
the msg is note_off channel=0 note=74 velocity=0 time=256 in track number 0
the msg is note_on channel=0 note=74 velocity=100 time=0 in track number 0
the msg is note_off channel=0 note=72 velocity=0 time=256 in track number 0
the msg is note_on channel=0 note=72 velocity=100 time=0 in track number 0
the msg is note_off channel=0 note=72 velocity=0 time=1621 in track number 0
the msg is note_on channel=0 note=72 velocity=100 time=0 in track number 0
the msg is note_off channel=0 note=72 velocity=0 time=171 in track number 0
the msg is note_on channel=0 note=72 velocity=100 time=0 in track number 0
the msg is note_off channel=0 note=74 velocity=0 time=512 in track number 0
the msg is note_on channel=0 note=74 velocity=100 time=0 in track number 0
the msg is note_off channel=0 note=74 velocity=0 time=512 in track number 0
the msg is note_on channel=0 note=74 velocity=100 time=0 in track number 0
the msg is note_off channel=0 note=74 velocity=0 time=512 in track number 0
the msg is note_on channel=0 note=74 velocity=100 time=0 in track number 0
the msg is note_off channel=0 note=74 velocity=0 time=512 in track number 0
the msg is note_on channel=0 note=74 velocity=100 time=0 in track number 0
the msg is note_off channel=0 note=74 velocity=0 time=512 in track number 0
the msg is note_on channel=0 note=74 velocity=100 time=0 in track number 0
the msg is note_off channel=0 note=74 velocity=0 time=512 in track number 0
the msg is note_on channel=0 note=74 velocity=100 time=0 in track number 0
the msg is note_off channel=0 note=76 velocity=0 time=512 in track number 0
the msg is note_on channel=0 note=76 velocity=100 time=0 in track number 0
the msg is note_off channel=0 note=79 velocity=0 time=512 in track number 0
the msg is note_on channel=0 note=79 velocity=100 time=0 in track number 0
the msg is note_off channel=0 note=79 velocity=0 time=256 in track number 0
the msg is note_on channel=0 note=79 velocity=100 time=0 in track number 0
the msg is note_off channel=0 note=76 velocity=0 time=256 in track number 0
the msg is note_on channel=0 note=76 velocity=100 time=0 in track number 0
the msg is note_off channel=0 note=74 velocity=0 time=341 in track number 0
the msg is note_on channel=0 note=74 velocity=100 time=0 in track number 0
the msg is note_off channel=0 note=72 velocity=0 time=171 in track number 0
the msg is note_on channel=0 note=72 velocity=100 time=0 in track number 0
the msg is note_off channel=0 note=72 velocity=0 time=512 in track number 0
the msg is note_on channel=0 note=72 velocity=100 time=0 in track number 0
the msg is note_off channel=0 note=72 velocity=0 time=512 in track number 0
the msg is note_on channel=0 note=72 velocity=100 time=0 in track number 0
the msg is note_off channel=0 note=72 velocity=0 time=256 in track number 0
the msg is note_on channel=0 note=72 velocity=100 time=0 in track number 0
the msg is note_off channel=0 note=72 velocity=0 time=597 in track number 0
the msg is note_on channel=0 note=72 velocity=100 time=0 in track number 0
the msg is note_off channel=0 note=72 velocity=0 time=171 in track number 0
the msg is note_on channel=0 note=72 velocity=100 time=0 in track number 0
the msg is note_off channel=0 note=72 velocity=0 time=512 in track number 0
the msg is note_on channel=0 note=72 velocity=100 time=0 in track number 0
the msg is note_off channel=0 note=72 velocity=0 time=256 in track number 0
the msg is note_on channel=0 note=72 velocity=100 time=0 in track number 0
the msg is note_off channel=0 note=72 velocity=0 time=256 in track number 0
the msg is note_on channel=0 note=72 velocity=100 time=0 in track number 0
the msg is note_off channel=0 note=72 velocity=0 time=256 in track number 0
the msg is note_on channel=0 note=72 velocity=100 time=0 in track number 0
the msg is note_off channel=0 note=76 velocity=0 time=256 in track number 0
the msg is note_on channel=0 note=76 velocity=100 time=0 in track number 0
the msg is note_off channel=0 note=79 velocity=0 time=512 in track number 0
the msg is note_on channel=0 note=79 velocity=100 time=0 in track number 0
the msg is note_off channel=0 note=79 velocity=0 time=256 in track number 0
the msg is note_on channel=0 note=79 velocity=100 time=0 in track number 0
the msg is note_off channel=0 note=76 velocity=0 time=256 in track number 0
the msg is note_on channel=0 note=76 velocity=100 time=0 in track number 0
the msg is note_off channel=0 note=74 velocity=0 time=256 in track number 0
the msg is note_on channel=0 note=74 velocity=100 time=0 in track number 0
the msg is note_off channel=0 note=72 velocity=0 time=256 in track number 0
the msg is note_on channel=0 note=72 velocity=100 time=0 in track number 0
the msg is note_off channel=0 note=72 velocity=0 time=1536 in track number 0
the msg is note_on channel=0 note=72 velocity=100 time=0 in track number 0
the msg is note_off channel=0 note=72 velocity=0 time=256 in track number 0
the msg is note_on channel=0 note=72 velocity=100 time=0 in track number 0
the msg is note_off channel=0 note=72 velocity=0 time=256 in track number 0
the msg is note_on channel=0 note=72 velocity=100 time=0 in track number 0
the msg is note_off channel=0 note=72 velocity=0 time=171 in track number 0
the msg is note_on channel=0 note=72 velocity=100 time=0 in track number 0
the msg is note_off channel=0 note=72 velocity=0 time=341 in track number 0
the msg is note_on channel=0 note=72 velocity=100 time=0 in track number 0
the msg is note_off channel=0 note=72 velocity=0 time=256 in track number 0
the msg is note_on channel=0 note=72 velocity=100 time=0 in track number 0
the msg is note_off channel=0 note=72 velocity=0 time=256 in track number 0
the msg is note_on channel=0 note=72 velocity=100 time=0 in track number 0
the msg is note_off channel=0 note=76 velocity=0 time=171 in track number 0
the msg is note_on channel=0 note=76 velocity=100 time=0 in track number 0
the msg is note_off channel=0 note=79 velocity=0 time=597 in track number 0
the msg is note_on channel=0 note=79 velocity=100 time=0 in track number 0
the msg is note_off channel=0 note=79 velocity=0 time=256 in track number 0
the msg is note_on channel=0 note=79 velocity=100 time=0 in track number 0
the msg is note_off channel=0 note=76 velocity=0 time=171 in track number 0
the msg is note_on channel=0 note=76 velocity=100 time=0 in track number 0
the msg is note_off channel=0 note=74 velocity=0 time=341 in track number 0
the msg is note_on channel=0 note=74 velocity=100 time=0 in track number 0
the msg is <meta message end_of_track time=1024> in track number 0
