the msg is sysex data=(65,16,66,18,64,0,127,0,65) time=0
the msg is control_change channel=0 control=0 value=0 time=0
the msg is <meta message sequencer_specific data=(74, 65, 90, 50, 1, 0, 0, 0, 0, 0, 0, 0, 0, 0, 0, 0, 0, 0, 0, 0) time=0>
the msg is <meta message track_name name='Final Egg: Mechanical Resonance - Sonic Adventure -- Dreamcast' time=0>
the msg is <meta message instrument_name name='Conductor Track' time=0>
the msg is <meta message midi_port port=0 time=0>
the msg is <meta message time_signature numerator=4 denominator=4 clocks_per_click=24 notated_32nd_notes_per_beat=8 time=0>
the msg is <meta message set_tempo tempo=500000 time=0>
the msg is <meta message sequencer_specific data=(0, 0, 91, 35, 2, 0, 3, 0, 51, 0) time=0>
the msg is <meta message end_of_track time=0>
the msg is control_change channel=0 control=0 value=0 time=0
the msg is program_change channel=0 program=33 time=0
the msg is <meta message sequencer_specific data=(74, 65, 90, 50, 1, 0, 0, 0, 0, 0, 0, 0, 0, 0, 0, 0, 0, 0, 0, 0) time=0>
the msg is <meta message midi_port port=0 time=0>
the msg is note_on channel=0 note=37 velocity=120 time=0
the msg is <meta message track_name name='Bass (fingered)' time=0>
the msg is note_on channel=0 note=37 velocity=0 time=29
the msg is note_on channel=0 note=37 velocity=120 time=31
the msg is note_on channel=0 note=37 velocity=0 time=29
the msg is note_on channel=0 note=37 velocity=120 time=31
the msg is note_on channel=0 note=37 velocity=0 time=59
the msg is note_on channel=0 note=35 velocity=120 time=31
the msg is note_on channel=0 note=35 velocity=0 time=29
the msg is note_on channel=0 note=35 velocity=120 time=31
the msg is note_on channel=0 note=35 velocity=0 time=29
the msg is note_on channel=0 note=37 velocity=120 time=1
the msg is note_on channel=0 note=37 velocity=0 time=59
the msg is note_on channel=0 note=30 velocity=120 time=1
the msg is note_on channel=0 note=30 velocity=0 time=59
the msg is note_on channel=0 note=28 velocity=120 time=1
the msg is note_on channel=0 note=28 velocity=0 time=59
the msg is note_on channel=0 note=37 velocity=120 time=1
the msg is note_on channel=0 note=37 velocity=0 time=29
the msg is note_on channel=0 note=37 velocity=120 time=31
the msg is note_on channel=0 note=37 velocity=0 time=29
the msg is note_on channel=0 note=37 velocity=120 time=31
the msg is note_on channel=0 note=37 velocity=0 time=59
the msg is note_on channel=0 note=35 velocity=120 time=31
the msg is note_on channel=0 note=35 velocity=0 time=29
the msg is note_on channel=0 note=35 velocity=120 time=31
the msg is note_on channel=0 note=35 velocity=0 time=29
the msg is note_on channel=0 note=37 velocity=120 time=1
the msg is note_on channel=0 note=37 velocity=0 time=59
the msg is note_on channel=0 note=35 velocity=120 time=1
the msg is note_on channel=0 note=35 velocity=0 time=59
the msg is note_on channel=0 note=32 velocity=120 time=1
the msg is note_on channel=0 note=32 velocity=0 time=59
the msg is note_on channel=0 note=37 velocity=120 time=1
the msg is note_on channel=0 note=37 velocity=0 time=29
the msg is note_on channel=0 note=37 velocity=120 time=31
the msg is note_on channel=0 note=37 velocity=0 time=29
the msg is note_on channel=0 note=37 velocity=120 time=31
the msg is note_on channel=0 note=37 velocity=0 time=59
the msg is note_on channel=0 note=35 velocity=120 time=31
the msg is note_on channel=0 note=35 velocity=0 time=29
the msg is note_on channel=0 note=35 velocity=120 time=31
the msg is note_on channel=0 note=35 velocity=0 time=29
the msg is note_on channel=0 note=37 velocity=120 time=1
the msg is note_on channel=0 note=37 velocity=0 time=59
the msg is note_on channel=0 note=30 velocity=120 time=1
the msg is note_on channel=0 note=30 velocity=0 time=59
the msg is note_on channel=0 note=28 velocity=120 time=1
the msg is note_on channel=0 note=28 velocity=0 time=59
the msg is note_on channel=0 note=37 velocity=120 time=1
the msg is note_on channel=0 note=37 velocity=0 time=29
the msg is note_on channel=0 note=37 velocity=120 time=31
the msg is note_on channel=0 note=37 velocity=0 time=29
the msg is note_on channel=0 note=37 velocity=120 time=31
the msg is note_on channel=0 note=37 velocity=0 time=59
the msg is note_on channel=0 note=35 velocity=120 time=1
the msg is note_on channel=0 note=35 velocity=0 time=29
the msg is note_on channel=0 note=37 velocity=120 time=1
the msg is note_on channel=0 note=37 velocity=0 time=29
the msg is note_on channel=0 note=40 velocity=120 time=1
the msg is note_on channel=0 note=40 velocity=0 time=29
the msg is note_on channel=0 note=40 velocity=120 time=31
the msg is note_on channel=0 note=40 velocity=0 time=29
the msg is note_on channel=0 note=42 velocity=120 time=31
the msg is note_on channel=0 note=42 velocity=0 time=29
the msg is note_on channel=0 note=42 velocity=120 time=31
the msg is note_on channel=0 note=42 velocity=0 time=29
the msg is note_on channel=0 note=37 velocity=120 time=31
the msg is note_on channel=0 note=37 velocity=0 time=29
the msg is note_on channel=0 note=37 velocity=120 time=31
the msg is note_on channel=0 note=37 velocity=0 time=29
the msg is note_on channel=0 note=37 velocity=120 time=31
the msg is note_on channel=0 note=37 velocity=0 time=59
the msg is note_on channel=0 note=35 velocity=120 time=31
the msg is note_on channel=0 note=35 velocity=0 time=29
the msg is note_on channel=0 note=35 velocity=120 time=31
the msg is note_on channel=0 note=35 velocity=0 time=29
the msg is note_on channel=0 note=37 velocity=120 time=1
the msg is note_on channel=0 note=37 velocity=0 time=59
the msg is note_on channel=0 note=30 velocity=120 time=1
the msg is note_on channel=0 note=30 velocity=0 time=59
the msg is note_on channel=0 note=28 velocity=120 time=1
the msg is note_on channel=0 note=28 velocity=0 time=59
the msg is note_on channel=0 note=37 velocity=120 time=1
the msg is note_on channel=0 note=37 velocity=0 time=29
the msg is note_on channel=0 note=37 velocity=120 time=31
the msg is note_on channel=0 note=37 velocity=0 time=29
the msg is note_on channel=0 note=37 velocity=120 time=31
the msg is note_on channel=0 note=37 velocity=0 time=59
the msg is note_on channel=0 note=35 velocity=120 time=31
the msg is note_on channel=0 note=35 velocity=0 time=29
the msg is note_on channel=0 note=35 velocity=120 time=31
the msg is note_on channel=0 note=35 velocity=0 time=29
the msg is note_on channel=0 note=37 velocity=120 time=1
the msg is note_on channel=0 note=37 velocity=0 time=59
the msg is note_on channel=0 note=35 velocity=120 time=1
the msg is note_on channel=0 note=35 velocity=0 time=59
the msg is note_on channel=0 note=32 velocity=120 time=1
the msg is note_on channel=0 note=32 velocity=0 time=59
the msg is note_on channel=0 note=30 velocity=120 time=1
the msg is note_on channel=0 note=30 velocity=0 time=29
the msg is note_on channel=0 note=30 velocity=120 time=31
the msg is note_on channel=0 note=30 velocity=0 time=29
the msg is note_on channel=0 note=30 velocity=120 time=31
the msg is note_on channel=0 note=30 velocity=0 time=59
the msg is note_on channel=0 note=35 velocity=120 time=1
the msg is note_on channel=0 note=35 velocity=0 time=29
the msg is note_on channel=0 note=37 velocity=120 time=1
the msg is note_on channel=0 note=37 velocity=0 time=29
the msg is note_on channel=0 note=40 velocity=120 time=1
the msg is note_on channel=0 note=40 velocity=0 time=59
the msg is note_on channel=0 note=40 velocity=120 time=1
the msg is note_on channel=0 note=40 velocity=0 time=29
the msg is note_on channel=0 note=42 velocity=120 time=1
the msg is note_on channel=0 note=42 velocity=0 time=59
the msg is note_on channel=0 note=42 velocity=120 time=1
the msg is note_on channel=0 note=42 velocity=0 time=29
the msg is note_on channel=0 note=40 velocity=120 time=1
the msg is note_on channel=0 note=40 velocity=0 time=59
the msg is note_on channel=0 note=30 velocity=120 time=1
the msg is note_on channel=0 note=30 velocity=0 time=29
the msg is note_on channel=0 note=30 velocity=120 time=31
the msg is note_on channel=0 note=30 velocity=0 time=29
the msg is note_on channel=0 note=30 velocity=120 time=31
the msg is note_on channel=0 note=30 velocity=0 time=59
the msg is note_on channel=0 note=35 velocity=120 time=1
the msg is note_on channel=0 note=35 velocity=0 time=29
the msg is note_on channel=0 note=37 velocity=120 time=1
the msg is note_on channel=0 note=37 velocity=0 time=29
the msg is note_on channel=0 note=40 velocity=120 time=1
the msg is note_on channel=0 note=40 velocity=0 time=59
the msg is note_on channel=0 note=40 velocity=120 time=1
the msg is note_on channel=0 note=40 velocity=0 time=29
the msg is note_on channel=0 note=37 velocity=120 time=1
the msg is note_on channel=0 note=37 velocity=0 time=59
the msg is note_on channel=0 note=37 velocity=120 time=1
the msg is note_on channel=0 note=37 velocity=0 time=29
the msg is note_on channel=0 note=35 velocity=120 time=1
the msg is note_on channel=0 note=35 velocity=0 time=59
the msg is note_on channel=0 note=37 velocity=120 time=1
the msg is note_on channel=0 note=37 velocity=0 time=29
the msg is note_on channel=0 note=37 velocity=120 time=31
the msg is note_on channel=0 note=37 velocity=0 time=29
the msg is note_on channel=0 note=37 velocity=120 time=31
the msg is note_on channel=0 note=37 velocity=0 time=59
the msg is note_on channel=0 note=35 velocity=120 time=31
the msg is note_on channel=0 note=35 velocity=0 time=29
the msg is note_on channel=0 note=35 velocity=120 time=31
the msg is note_on channel=0 note=35 velocity=0 time=29
the msg is note_on channel=0 note=37 velocity=120 time=1
the msg is note_on channel=0 note=37 velocity=0 time=59
the msg is note_on channel=0 note=30 velocity=120 time=1
the msg is note_on channel=0 note=30 velocity=0 time=59
the msg is note_on channel=0 note=28 velocity=120 time=1
the msg is note_on channel=0 note=28 velocity=0 time=59
the msg is note_on channel=0 note=37 velocity=120 time=1
the msg is note_on channel=0 note=37 velocity=0 time=29
the msg is note_on channel=0 note=37 velocity=120 time=31
the msg is note_on channel=0 note=37 velocity=0 time=29
the msg is note_on channel=0 note=37 velocity=120 time=31
the msg is note_on channel=0 note=37 velocity=0 time=59
the msg is note_on channel=0 note=35 velocity=120 time=31
the msg is note_on channel=0 note=35 velocity=0 time=29
the msg is note_on channel=0 note=35 velocity=120 time=31
the msg is note_on channel=0 note=35 velocity=0 time=29
the msg is note_on channel=0 note=37 velocity=120 time=1
the msg is note_on channel=0 note=37 velocity=0 time=59
the msg is note_on channel=0 note=35 velocity=120 time=1
the msg is note_on channel=0 note=35 velocity=0 time=59
the msg is note_on channel=0 note=32 velocity=120 time=1
the msg is note_on channel=0 note=32 velocity=0 time=59
the msg is note_on channel=0 note=30 velocity=120 time=1
the msg is note_on channel=0 note=30 velocity=0 time=29
the msg is note_on channel=0 note=30 velocity=120 time=31
the msg is note_on channel=0 note=30 velocity=0 time=29
the msg is note_on channel=0 note=30 velocity=120 time=31
the msg is note_on channel=0 note=30 velocity=0 time=59
the msg is note_on channel=0 note=35 velocity=120 time=1
the msg is note_on channel=0 note=35 velocity=0 time=29
the msg is note_on channel=0 note=37 velocity=120 time=1
the msg is note_on channel=0 note=37 velocity=0 time=29
the msg is note_on channel=0 note=40 velocity=120 time=1
the msg is note_on channel=0 note=40 velocity=0 time=59
the msg is note_on channel=0 note=40 velocity=120 time=1
the msg is note_on channel=0 note=40 velocity=0 time=29
the msg is note_on channel=0 note=42 velocity=120 time=1
the msg is note_on channel=0 note=42 velocity=0 time=59
the msg is note_on channel=0 note=42 velocity=120 time=1
the msg is note_on channel=0 note=42 velocity=0 time=29
the msg is note_on channel=0 note=40 velocity=120 time=1
the msg is note_on channel=0 note=40 velocity=0 time=59
the msg is note_on channel=0 note=30 velocity=120 time=1
the msg is note_on channel=0 note=30 velocity=0 time=29
the msg is note_on channel=0 note=30 velocity=120 time=31
the msg is note_on channel=0 note=30 velocity=0 time=29
the msg is note_on channel=0 note=30 velocity=120 time=31
the msg is note_on channel=0 note=30 velocity=0 time=59
the msg is note_on channel=0 note=35 velocity=120 time=1
the msg is note_on channel=0 note=35 velocity=0 time=29
the msg is note_on channel=0 note=37 velocity=120 time=1
the msg is note_on channel=0 note=37 velocity=0 time=29
the msg is note_on channel=0 note=40 velocity=120 time=1
the msg is note_on channel=0 note=40 velocity=0 time=59
the msg is note_on channel=0 note=40 velocity=120 time=1
the msg is note_on channel=0 note=40 velocity=0 time=29
the msg is note_on channel=0 note=37 velocity=120 time=1
the msg is note_on channel=0 note=37 velocity=0 time=59
the msg is note_on channel=0 note=37 velocity=120 time=1
the msg is note_on channel=0 note=37 velocity=0 time=29
the msg is note_on channel=0 note=35 velocity=120 time=1
the msg is note_on channel=0 note=35 velocity=0 time=59
the msg is note_on channel=0 note=42 velocity=120 time=1
the msg is note_on channel=0 note=42 velocity=0 time=59
the msg is note_on channel=0 note=42 velocity=120 time=1
the msg is note_on channel=0 note=42 velocity=0 time=29
the msg is note_on channel=0 note=40 velocity=120 time=1
the msg is note_on channel=0 note=40 velocity=0 time=59
the msg is note_on channel=0 note=40 velocity=120 time=1
the msg is note_on channel=0 note=40 velocity=0 time=29
the msg is note_on channel=0 note=37 velocity=120 time=1
the msg is note_on channel=0 note=37 velocity=0 time=59
the msg is note_on channel=0 note=37 velocity=120 time=1
the msg is note_on channel=0 note=37 velocity=0 time=29
the msg is note_on channel=0 note=35 velocity=120 time=1
the msg is note_on channel=0 note=35 velocity=0 time=59
the msg is note_on channel=0 note=35 velocity=120 time=1
the msg is note_on channel=0 note=35 velocity=0 time=29
the msg is note_on channel=0 note=37 velocity=120 time=1
the msg is note_on channel=0 note=37 velocity=0 time=59
the msg is note_on channel=0 note=40 velocity=120 time=1
the msg is note_on channel=0 note=40 velocity=0 time=59
the msg is note_on channel=0 note=37 velocity=120 time=1
the msg is note_on channel=0 note=37 velocity=0 time=59
the msg is note_on channel=0 note=37 velocity=120 time=1
the msg is note_on channel=0 note=37 velocity=0 time=29
the msg is note_on channel=0 note=35 velocity=120 time=1
the msg is note_on channel=0 note=35 velocity=0 time=59
the msg is note_on channel=0 note=35 velocity=120 time=1
the msg is note_on channel=0 note=35 velocity=0 time=29
the msg is note_on channel=0 note=33 velocity=120 time=1
the msg is note_on channel=0 note=33 velocity=0 time=59
the msg is note_on channel=0 note=42 velocity=120 time=1
the msg is note_on channel=0 note=42 velocity=0 time=29
the msg is note_on channel=0 note=40 velocity=120 time=1
the msg is note_on channel=0 note=40 velocity=0 time=29
the msg is note_on channel=0 note=37 velocity=120 time=31
the msg is note_on channel=0 note=37 velocity=0 time=29
the msg is note_on channel=0 note=35 velocity=120 time=31
the msg is note_on channel=0 note=35 velocity=0 time=29
the msg is note_on channel=0 note=35 velocity=120 time=31
the msg is note_on channel=0 note=35 velocity=0 time=29
the msg is program_change channel=0 program=33 time=1
the msg is note_on channel=0 note=37 velocity=120 time=0
the msg is note_on channel=0 note=37 velocity=0 time=29
the msg is note_on channel=0 note=37 velocity=120 time=31
the msg is note_on channel=0 note=37 velocity=0 time=29
the msg is note_on channel=0 note=37 velocity=120 time=31
the msg is note_on channel=0 note=37 velocity=0 time=59
the msg is note_on channel=0 note=35 velocity=120 time=31
the msg is note_on channel=0 note=35 velocity=0 time=29
the msg is note_on channel=0 note=35 velocity=120 time=31
the msg is note_on channel=0 note=35 velocity=0 time=29
the msg is note_on channel=0 note=37 velocity=120 time=1
the msg is note_on channel=0 note=37 velocity=0 time=59
the msg is note_on channel=0 note=30 velocity=120 time=1
the msg is note_on channel=0 note=30 velocity=0 time=59
the msg is note_on channel=0 note=28 velocity=120 time=1
the msg is note_on channel=0 note=28 velocity=0 time=59
the msg is note_on channel=0 note=37 velocity=120 time=1
the msg is note_on channel=0 note=37 velocity=0 time=29
the msg is note_on channel=0 note=37 velocity=120 time=31
the msg is note_on channel=0 note=37 velocity=0 time=29
the msg is note_on channel=0 note=37 velocity=120 time=31
the msg is note_on channel=0 note=37 velocity=0 time=59
the msg is note_on channel=0 note=35 velocity=120 time=31
the msg is note_on channel=0 note=35 velocity=0 time=29
the msg is note_on channel=0 note=35 velocity=120 time=31
the msg is note_on channel=0 note=35 velocity=0 time=29
the msg is note_on channel=0 note=37 velocity=120 time=1
the msg is note_on channel=0 note=37 velocity=0 time=59
the msg is note_on channel=0 note=35 velocity=120 time=1
the msg is note_on channel=0 note=35 velocity=0 time=59
the msg is note_on channel=0 note=32 velocity=120 time=1
the msg is note_on channel=0 note=32 velocity=0 time=59
the msg is note_on channel=0 note=37 velocity=120 time=1
the msg is note_on channel=0 note=37 velocity=0 time=29
the msg is note_on channel=0 note=37 velocity=120 time=31
the msg is note_on channel=0 note=37 velocity=0 time=29
the msg is note_on channel=0 note=37 velocity=120 time=31
the msg is note_on channel=0 note=37 velocity=0 time=59
the msg is note_on channel=0 note=35 velocity=120 time=31
the msg is note_on channel=0 note=35 velocity=0 time=29
the msg is note_on channel=0 note=35 velocity=120 time=31
the msg is note_on channel=0 note=35 velocity=0 time=29
the msg is note_on channel=0 note=37 velocity=120 time=1
the msg is note_on channel=0 note=37 velocity=0 time=59
the msg is note_on channel=0 note=30 velocity=120 time=1
the msg is note_on channel=0 note=30 velocity=0 time=59
the msg is note_on channel=0 note=28 velocity=120 time=1
the msg is note_on channel=0 note=28 velocity=0 time=59
the msg is note_on channel=0 note=37 velocity=120 time=1
the msg is note_on channel=0 note=37 velocity=0 time=29
the msg is note_on channel=0 note=37 velocity=120 time=31
the msg is note_on channel=0 note=37 velocity=0 time=29
the msg is note_on channel=0 note=37 velocity=120 time=31
the msg is note_on channel=0 note=37 velocity=0 time=59
the msg is note_on channel=0 note=35 velocity=120 time=1
the msg is note_on channel=0 note=35 velocity=0 time=29
the msg is note_on channel=0 note=37 velocity=120 time=1
the msg is note_on channel=0 note=37 velocity=0 time=29
the msg is note_on channel=0 note=40 velocity=120 time=1
the msg is note_on channel=0 note=40 velocity=0 time=29
the msg is note_on channel=0 note=40 velocity=120 time=31
the msg is note_on channel=0 note=40 velocity=0 time=29
the msg is note_on channel=0 note=42 velocity=120 time=31
the msg is note_on channel=0 note=42 velocity=0 time=29
the msg is note_on channel=0 note=42 velocity=120 time=31
the msg is note_on channel=0 note=42 velocity=0 time=29
the msg is note_on channel=0 note=37 velocity=120 time=31
the msg is note_on channel=0 note=37 velocity=0 time=29
the msg is note_on channel=0 note=37 velocity=120 time=31
the msg is note_on channel=0 note=37 velocity=0 time=29
the msg is note_on channel=0 note=37 velocity=120 time=31
the msg is note_on channel=0 note=37 velocity=0 time=59
the msg is note_on channel=0 note=35 velocity=120 time=31
the msg is note_on channel=0 note=35 velocity=0 time=29
the msg is note_on channel=0 note=35 velocity=120 time=31
the msg is note_on channel=0 note=35 velocity=0 time=29
the msg is note_on channel=0 note=37 velocity=120 time=1
the msg is note_on channel=0 note=37 velocity=0 time=59
the msg is note_on channel=0 note=30 velocity=120 time=1
the msg is note_on channel=0 note=30 velocity=0 time=59
the msg is note_on channel=0 note=28 velocity=120 time=1
the msg is note_on channel=0 note=28 velocity=0 time=59
the msg is note_on channel=0 note=37 velocity=120 time=1
the msg is note_on channel=0 note=37 velocity=0 time=29
the msg is note_on channel=0 note=37 velocity=120 time=31
the msg is note_on channel=0 note=37 velocity=0 time=29
the msg is note_on channel=0 note=37 velocity=120 time=31
the msg is note_on channel=0 note=37 velocity=0 time=59
the msg is note_on channel=0 note=35 velocity=120 time=31
the msg is note_on channel=0 note=35 velocity=0 time=29
the msg is note_on channel=0 note=35 velocity=120 time=31
the msg is note_on channel=0 note=35 velocity=0 time=29
the msg is note_on channel=0 note=37 velocity=120 time=1
the msg is note_on channel=0 note=37 velocity=0 time=59
the msg is note_on channel=0 note=35 velocity=120 time=1
the msg is note_on channel=0 note=35 velocity=0 time=59
the msg is note_on channel=0 note=32 velocity=120 time=1
the msg is note_on channel=0 note=32 velocity=0 time=59
the msg is note_on channel=0 note=37 velocity=120 time=1
the msg is note_on channel=0 note=37 velocity=0 time=29
the msg is note_on channel=0 note=37 velocity=120 time=31
the msg is note_on channel=0 note=37 velocity=0 time=29
the msg is note_on channel=0 note=37 velocity=120 time=31
the msg is note_on channel=0 note=37 velocity=0 time=59
the msg is note_on channel=0 note=35 velocity=120 time=31
the msg is note_on channel=0 note=35 velocity=0 time=29
the msg is note_on channel=0 note=35 velocity=120 time=31
the msg is note_on channel=0 note=35 velocity=0 time=29
the msg is note_on channel=0 note=37 velocity=120 time=1
the msg is note_on channel=0 note=37 velocity=0 time=59
the msg is note_on channel=0 note=30 velocity=120 time=1
the msg is note_on channel=0 note=30 velocity=0 time=59
the msg is note_on channel=0 note=28 velocity=120 time=1
the msg is note_on channel=0 note=28 velocity=0 time=59
the msg is note_on channel=0 note=37 velocity=120 time=1
the msg is note_on channel=0 note=37 velocity=0 time=29
the msg is note_on channel=0 note=37 velocity=120 time=31
the msg is note_on channel=0 note=37 velocity=0 time=29
the msg is note_on channel=0 note=37 velocity=120 time=31
the msg is note_on channel=0 note=37 velocity=0 time=59
the msg is note_on channel=0 note=35 velocity=120 time=1
the msg is note_on channel=0 note=35 velocity=0 time=29
the msg is note_on channel=0 note=37 velocity=120 time=1
the msg is note_on channel=0 note=37 velocity=0 time=29
the msg is note_on channel=0 note=40 velocity=120 time=1
the msg is note_on channel=0 note=40 velocity=0 time=29
the msg is note_on channel=0 note=40 velocity=120 time=31
the msg is note_on channel=0 note=40 velocity=0 time=29
the msg is note_on channel=0 note=42 velocity=120 time=31
the msg is note_on channel=0 note=42 velocity=0 time=29
the msg is note_on channel=0 note=42 velocity=120 time=31
the msg is note_on channel=0 note=42 velocity=0 time=29
the msg is note_on channel=0 note=33 velocity=120 time=31
the msg is note_on channel=0 note=33 velocity=0 time=29
the msg is note_on channel=0 note=33 velocity=120 time=31
the msg is note_on channel=0 note=33 velocity=0 time=29
the msg is note_on channel=0 note=33 velocity=120 time=31
the msg is note_on channel=0 note=33 velocity=0 time=29
the msg is note_on channel=0 note=33 velocity=120 time=31
the msg is note_on channel=0 note=33 velocity=0 time=29
the msg is note_on channel=0 note=40 velocity=120 time=1
the msg is note_on channel=0 note=40 velocity=0 time=29
the msg is note_on channel=0 note=45 velocity=120 time=1
the msg is note_on channel=0 note=45 velocity=0 time=59
the msg is note_on channel=0 note=40 velocity=120 time=1
the msg is note_on channel=0 note=40 velocity=0 time=59
the msg is note_on channel=0 note=33 velocity=120 time=1
the msg is note_on channel=0 note=33 velocity=0 time=59
the msg is note_on channel=0 note=30 velocity=120 time=1
the msg is note_on channel=0 note=30 velocity=0 time=119
the msg is note_on channel=0 note=30 velocity=120 time=1
the msg is note_on channel=0 note=30 velocity=0 time=29
the msg is note_on channel=0 note=30 velocity=120 time=31
the msg is note_on channel=0 note=30 velocity=0 time=29
the msg is note_on channel=0 note=30 velocity=120 time=31
the msg is note_on channel=0 note=30 velocity=0 time=29
the msg is note_on channel=0 note=37 velocity=120 time=1
the msg is note_on channel=0 note=37 velocity=0 time=29
the msg is note_on channel=0 note=42 velocity=120 time=1
the msg is note_on channel=0 note=42 velocity=0 time=59
the msg is note_on channel=0 note=42 velocity=120 time=1
the msg is note_on channel=0 note=42 velocity=0 time=29
the msg is note_on channel=0 note=42 velocity=120 time=31
the msg is note_on channel=0 note=42 velocity=0 time=29
the msg is note_on channel=0 note=42 velocity=120 time=31
the msg is note_on channel=0 note=42 velocity=0 time=29
the msg is note_on channel=0 note=33 velocity=120 time=31
the msg is note_on channel=0 note=33 velocity=0 time=29
the msg is note_on channel=0 note=33 velocity=120 time=31
the msg is note_on channel=0 note=33 velocity=0 time=29
the msg is note_on channel=0 note=33 velocity=120 time=31
the msg is note_on channel=0 note=33 velocity=0 time=29
the msg is note_on channel=0 note=33 velocity=120 time=31
the msg is note_on channel=0 note=33 velocity=0 time=29
the msg is note_on channel=0 note=40 velocity=120 time=1
the msg is note_on channel=0 note=40 velocity=0 time=29
the msg is note_on channel=0 note=45 velocity=120 time=1
the msg is note_on channel=0 note=45 velocity=0 time=59
the msg is note_on channel=0 note=40 velocity=120 time=1
the msg is note_on channel=0 note=40 velocity=0 time=59
the msg is note_on channel=0 note=33 velocity=120 time=1
the msg is note_on channel=0 note=33 velocity=0 time=59
the msg is note_on channel=0 note=35 velocity=120 time=1
the msg is note_on channel=0 note=35 velocity=0 time=119
the msg is note_on channel=0 note=30 velocity=120 time=1
the msg is note_on channel=0 note=30 velocity=0 time=29
the msg is note_on channel=0 note=30 velocity=120 time=31
the msg is note_on channel=0 note=30 velocity=0 time=29
the msg is note_on channel=0 note=36 velocity=120 time=31
the msg is note_on channel=0 note=36 velocity=0 time=119
the msg is note_on channel=0 note=36 velocity=120 time=1
the msg is note_on channel=0 note=36 velocity=0 time=29
the msg is note_on channel=0 note=36 velocity=120 time=31
the msg is note_on channel=0 note=36 velocity=0 time=29
the msg is note_on channel=0 note=36 velocity=120 time=31
the msg is note_on channel=0 note=36 velocity=0 time=29
the msg is note_on channel=0 note=37 velocity=120 time=31
the msg is program_change channel=0 program=33 time=0
the msg is note_on channel=0 note=37 velocity=0 time=29
the msg is note_on channel=0 note=37 velocity=120 time=31
the msg is note_on channel=0 note=37 velocity=0 time=29
the msg is note_on channel=0 note=37 velocity=120 time=31
the msg is note_on channel=0 note=37 velocity=0 time=59
the msg is note_on channel=0 note=35 velocity=120 time=31
the msg is note_on channel=0 note=35 velocity=0 time=29
the msg is note_on channel=0 note=35 velocity=120 time=31
the msg is note_on channel=0 note=35 velocity=0 time=29
the msg is note_on channel=0 note=37 velocity=120 time=1
the msg is note_on channel=0 note=37 velocity=0 time=59
the msg is note_on channel=0 note=30 velocity=120 time=1
the msg is note_on channel=0 note=30 velocity=0 time=59
the msg is note_on channel=0 note=28 velocity=120 time=1
the msg is note_on channel=0 note=28 velocity=0 time=59
the msg is note_on channel=0 note=37 velocity=120 time=1
the msg is note_on channel=0 note=37 velocity=0 time=29
the msg is note_on channel=0 note=37 velocity=120 time=31
the msg is note_on channel=0 note=37 velocity=0 time=29
the msg is note_on channel=0 note=37 velocity=120 time=31
the msg is note_on channel=0 note=37 velocity=0 time=59
the msg is note_on channel=0 note=35 velocity=120 time=31
the msg is note_on channel=0 note=35 velocity=0 time=29
the msg is note_on channel=0 note=35 velocity=120 time=31
the msg is note_on channel=0 note=35 velocity=0 time=29
the msg is note_on channel=0 note=37 velocity=120 time=1
the msg is note_on channel=0 note=37 velocity=0 time=59
the msg is note_on channel=0 note=35 velocity=120 time=1
the msg is note_on channel=0 note=35 velocity=0 time=59
the msg is note_on channel=0 note=32 velocity=120 time=1
the msg is note_on channel=0 note=32 velocity=0 time=59
the msg is note_on channel=0 note=37 velocity=120 time=1
the msg is note_on channel=0 note=37 velocity=0 time=29
the msg is note_on channel=0 note=37 velocity=120 time=31
the msg is note_on channel=0 note=37 velocity=0 time=29
the msg is note_on channel=0 note=37 velocity=120 time=31
the msg is note_on channel=0 note=37 velocity=0 time=59
the msg is note_on channel=0 note=35 velocity=120 time=31
the msg is note_on channel=0 note=35 velocity=0 time=29
the msg is note_on channel=0 note=35 velocity=120 time=31
the msg is note_on channel=0 note=35 velocity=0 time=29
the msg is note_on channel=0 note=37 velocity=120 time=1
the msg is note_on channel=0 note=37 velocity=0 time=59
the msg is note_on channel=0 note=30 velocity=120 time=1
the msg is note_on channel=0 note=30 velocity=0 time=59
the msg is note_on channel=0 note=28 velocity=120 time=1
the msg is note_on channel=0 note=28 velocity=0 time=59
the msg is note_on channel=0 note=37 velocity=120 time=1
the msg is note_on channel=0 note=37 velocity=0 time=29
the msg is note_on channel=0 note=37 velocity=120 time=31
the msg is note_on channel=0 note=37 velocity=0 time=29
the msg is note_on channel=0 note=37 velocity=120 time=31
the msg is note_on channel=0 note=37 velocity=0 time=59
the msg is note_on channel=0 note=35 velocity=120 time=1
the msg is note_on channel=0 note=35 velocity=0 time=29
the msg is note_on channel=0 note=37 velocity=120 time=1
the msg is note_on channel=0 note=37 velocity=0 time=29
the msg is note_on channel=0 note=40 velocity=120 time=1
the msg is note_on channel=0 note=40 velocity=0 time=29
the msg is note_on channel=0 note=40 velocity=120 time=31
the msg is note_on channel=0 note=40 velocity=0 time=29
the msg is note_on channel=0 note=42 velocity=120 time=31
the msg is note_on channel=0 note=42 velocity=0 time=29
the msg is note_on channel=0 note=42 velocity=120 time=31
the msg is note_on channel=0 note=42 velocity=0 time=29
the msg is note_on channel=0 note=37 velocity=120 time=31
the msg is note_on channel=0 note=37 velocity=0 time=29
the msg is note_on channel=0 note=37 velocity=120 time=31
the msg is note_on channel=0 note=37 velocity=0 time=29
the msg is note_on channel=0 note=37 velocity=120 time=31
the msg is note_on channel=0 note=37 velocity=0 time=59
the msg is note_on channel=0 note=35 velocity=120 time=31
the msg is note_on channel=0 note=35 velocity=0 time=29
the msg is note_on channel=0 note=35 velocity=120 time=31
the msg is note_on channel=0 note=35 velocity=0 time=29
the msg is note_on channel=0 note=37 velocity=120 time=1
the msg is note_on channel=0 note=37 velocity=0 time=59
the msg is note_on channel=0 note=30 velocity=120 time=1
the msg is note_on channel=0 note=30 velocity=0 time=59
the msg is note_on channel=0 note=28 velocity=120 time=1
the msg is note_on channel=0 note=28 velocity=0 time=59
the msg is note_on channel=0 note=37 velocity=120 time=1
the msg is note_on channel=0 note=37 velocity=0 time=29
the msg is note_on channel=0 note=37 velocity=120 time=31
the msg is note_on channel=0 note=37 velocity=0 time=29
the msg is note_on channel=0 note=37 velocity=120 time=31
the msg is note_on channel=0 note=37 velocity=0 time=59
the msg is note_on channel=0 note=35 velocity=120 time=31
the msg is note_on channel=0 note=35 velocity=0 time=29
the msg is note_on channel=0 note=35 velocity=120 time=31
the msg is note_on channel=0 note=35 velocity=0 time=29
the msg is note_on channel=0 note=37 velocity=120 time=1
the msg is note_on channel=0 note=37 velocity=0 time=59
the msg is note_on channel=0 note=35 velocity=120 time=1
the msg is note_on channel=0 note=35 velocity=0 time=59
the msg is note_on channel=0 note=32 velocity=120 time=1
the msg is note_on channel=0 note=32 velocity=0 time=59
the msg is note_on channel=0 note=37 velocity=120 time=1
the msg is note_on channel=0 note=37 velocity=0 time=29
the msg is note_on channel=0 note=37 velocity=120 time=31
the msg is note_on channel=0 note=37 velocity=0 time=29
the msg is note_on channel=0 note=37 velocity=120 time=31
the msg is note_on channel=0 note=37 velocity=0 time=59
the msg is note_on channel=0 note=35 velocity=120 time=31
the msg is note_on channel=0 note=35 velocity=0 time=29
the msg is note_on channel=0 note=35 velocity=120 time=31
the msg is note_on channel=0 note=35 velocity=0 time=29
the msg is note_on channel=0 note=37 velocity=120 time=1
the msg is note_on channel=0 note=37 velocity=0 time=59
the msg is note_on channel=0 note=30 velocity=120 time=1
the msg is note_on channel=0 note=30 velocity=0 time=59
the msg is note_on channel=0 note=28 velocity=120 time=1
the msg is note_on channel=0 note=28 velocity=0 time=59
the msg is note_on channel=0 note=37 velocity=120 time=1
the msg is note_on channel=0 note=37 velocity=0 time=29
the msg is note_on channel=0 note=37 velocity=120 time=31
the msg is note_on channel=0 note=37 velocity=0 time=29
the msg is note_on channel=0 note=37 velocity=120 time=31
the msg is note_on channel=0 note=37 velocity=0 time=59
the msg is note_on channel=0 note=35 velocity=120 time=1
the msg is note_on channel=0 note=35 velocity=0 time=29
the msg is note_on channel=0 note=37 velocity=120 time=1
the msg is note_on channel=0 note=37 velocity=0 time=29
the msg is note_on channel=0 note=40 velocity=120 time=1
the msg is note_on channel=0 note=40 velocity=0 time=29
the msg is note_on channel=0 note=40 velocity=120 time=31
the msg is note_on channel=0 note=40 velocity=0 time=29
the msg is note_on channel=0 note=42 velocity=120 time=31
the msg is note_on channel=0 note=42 velocity=0 time=29
the msg is note_on channel=0 note=42 velocity=120 time=31
the msg is note_on channel=0 note=42 velocity=0 time=29
the msg is note_on channel=0 note=33 velocity=120 time=31
the msg is note_on channel=0 note=33 velocity=0 time=29
the msg is note_on channel=0 note=33 velocity=120 time=31
the msg is note_on channel=0 note=33 velocity=0 time=29
the msg is note_on channel=0 note=33 velocity=120 time=31
the msg is note_on channel=0 note=33 velocity=0 time=29
the msg is note_on channel=0 note=33 velocity=120 time=31
the msg is note_on channel=0 note=33 velocity=0 time=29
the msg is note_on channel=0 note=40 velocity=120 time=1
the msg is note_on channel=0 note=40 velocity=0 time=29
the msg is note_on channel=0 note=45 velocity=120 time=1
the msg is note_on channel=0 note=45 velocity=0 time=59
the msg is note_on channel=0 note=40 velocity=120 time=1
the msg is note_on channel=0 note=40 velocity=0 time=59
the msg is note_on channel=0 note=33 velocity=120 time=1
the msg is note_on channel=0 note=33 velocity=0 time=59
the msg is note_on channel=0 note=30 velocity=120 time=1
the msg is note_on channel=0 note=30 velocity=0 time=119
the msg is note_on channel=0 note=30 velocity=120 time=1
the msg is note_on channel=0 note=30 velocity=0 time=29
the msg is note_on channel=0 note=30 velocity=120 time=31
the msg is note_on channel=0 note=30 velocity=0 time=29
the msg is note_on channel=0 note=30 velocity=120 time=31
the msg is note_on channel=0 note=30 velocity=0 time=29
the msg is note_on channel=0 note=37 velocity=120 time=1
the msg is note_on channel=0 note=37 velocity=0 time=29
the msg is note_on channel=0 note=42 velocity=120 time=1
the msg is note_on channel=0 note=42 velocity=0 time=59
the msg is note_on channel=0 note=42 velocity=120 time=1
the msg is note_on channel=0 note=42 velocity=0 time=29
the msg is note_on channel=0 note=42 velocity=120 time=31
the msg is note_on channel=0 note=42 velocity=0 time=29
the msg is note_on channel=0 note=42 velocity=120 time=31
the msg is note_on channel=0 note=42 velocity=0 time=29
the msg is note_on channel=0 note=33 velocity=120 time=31
the msg is note_on channel=0 note=33 velocity=0 time=29
the msg is note_on channel=0 note=33 velocity=120 time=31
the msg is note_on channel=0 note=33 velocity=0 time=29
the msg is note_on channel=0 note=33 velocity=120 time=31
the msg is note_on channel=0 note=33 velocity=0 time=29
the msg is note_on channel=0 note=33 velocity=120 time=31
the msg is note_on channel=0 note=33 velocity=0 time=29
the msg is note_on channel=0 note=40 velocity=120 time=1
the msg is note_on channel=0 note=40 velocity=0 time=29
the msg is note_on channel=0 note=45 velocity=120 time=1
the msg is note_on channel=0 note=45 velocity=0 time=59
the msg is note_on channel=0 note=40 velocity=120 time=1
the msg is note_on channel=0 note=40 velocity=0 time=59
the msg is note_on channel=0 note=33 velocity=120 time=1
the msg is note_on channel=0 note=33 velocity=0 time=59
the msg is note_on channel=0 note=35 velocity=120 time=1
the msg is note_on channel=0 note=35 velocity=0 time=119
the msg is note_on channel=0 note=30 velocity=120 time=1
the msg is note_on channel=0 note=30 velocity=0 time=29
the msg is note_on channel=0 note=30 velocity=120 time=31
the msg is note_on channel=0 note=30 velocity=0 time=29
the msg is note_on channel=0 note=36 velocity=120 time=31
the msg is note_on channel=0 note=36 velocity=0 time=119
the msg is note_on channel=0 note=36 velocity=120 time=1
the msg is note_on channel=0 note=36 velocity=0 time=29
the msg is note_on channel=0 note=36 velocity=120 time=31
the msg is note_on channel=0 note=36 velocity=0 time=29
the msg is note_on channel=0 note=36 velocity=120 time=31
the msg is note_on channel=0 note=36 velocity=0 time=29
the msg is program_change channel=0 program=33 time=31
the msg is note_on channel=0 note=37 velocity=120 time=0
the msg is note_on channel=0 note=37 velocity=0 time=29
the msg is note_on channel=0 note=37 velocity=120 time=31
the msg is note_on channel=0 note=37 velocity=0 time=29
the msg is note_on channel=0 note=37 velocity=120 time=31
the msg is note_on channel=0 note=37 velocity=0 time=59
the msg is note_on channel=0 note=35 velocity=120 time=31
the msg is note_on channel=0 note=35 velocity=0 time=29
the msg is note_on channel=0 note=35 velocity=120 time=31
the msg is note_on channel=0 note=35 velocity=0 time=29
the msg is note_on channel=0 note=37 velocity=120 time=1
the msg is note_on channel=0 note=37 velocity=0 time=59
the msg is note_on channel=0 note=30 velocity=120 time=1
the msg is note_on channel=0 note=30 velocity=0 time=59
the msg is note_on channel=0 note=28 velocity=120 time=1
the msg is note_on channel=0 note=28 velocity=0 time=59
the msg is note_on channel=0 note=37 velocity=120 time=1
the msg is note_on channel=0 note=37 velocity=0 time=29
the msg is note_on channel=0 note=37 velocity=120 time=31
the msg is note_on channel=0 note=37 velocity=0 time=29
the msg is note_on channel=0 note=37 velocity=120 time=31
the msg is note_on channel=0 note=37 velocity=0 time=59
the msg is note_on channel=0 note=35 velocity=120 time=31
the msg is note_on channel=0 note=35 velocity=0 time=29
the msg is note_on channel=0 note=35 velocity=120 time=31
the msg is note_on channel=0 note=35 velocity=0 time=29
the msg is note_on channel=0 note=37 velocity=120 time=1
the msg is note_on channel=0 note=37 velocity=0 time=59
the msg is note_on channel=0 note=35 velocity=120 time=1
the msg is note_on channel=0 note=35 velocity=0 time=59
the msg is note_on channel=0 note=32 velocity=120 time=1
the msg is note_on channel=0 note=32 velocity=0 time=59
the msg is note_on channel=0 note=37 velocity=120 time=1
the msg is note_on channel=0 note=37 velocity=0 time=29
the msg is note_on channel=0 note=37 velocity=120 time=31
the msg is note_on channel=0 note=37 velocity=0 time=29
the msg is note_on channel=0 note=37 velocity=120 time=31
the msg is note_on channel=0 note=37 velocity=0 time=59
the msg is note_on channel=0 note=35 velocity=120 time=31
the msg is note_on channel=0 note=35 velocity=0 time=29
the msg is note_on channel=0 note=35 velocity=120 time=31
the msg is note_on channel=0 note=35 velocity=0 time=29
the msg is note_on channel=0 note=37 velocity=120 time=1
the msg is note_on channel=0 note=37 velocity=0 time=59
the msg is note_on channel=0 note=30 velocity=120 time=1
the msg is note_on channel=0 note=30 velocity=0 time=59
the msg is note_on channel=0 note=28 velocity=120 time=1
the msg is note_on channel=0 note=28 velocity=0 time=59
the msg is note_on channel=0 note=37 velocity=120 time=1
the msg is note_on channel=0 note=37 velocity=0 time=29
the msg is note_on channel=0 note=37 velocity=120 time=31
the msg is note_on channel=0 note=37 velocity=0 time=29
the msg is note_on channel=0 note=37 velocity=120 time=31
the msg is note_on channel=0 note=37 velocity=0 time=59
the msg is note_on channel=0 note=35 velocity=120 time=1
the msg is note_on channel=0 note=35 velocity=0 time=29
the msg is note_on channel=0 note=37 velocity=120 time=1
the msg is note_on channel=0 note=37 velocity=0 time=29
the msg is note_on channel=0 note=40 velocity=120 time=1
the msg is note_on channel=0 note=40 velocity=0 time=29
the msg is note_on channel=0 note=40 velocity=120 time=31
the msg is note_on channel=0 note=40 velocity=0 time=29
the msg is note_on channel=0 note=42 velocity=120 time=31
the msg is note_on channel=0 note=42 velocity=0 time=29
the msg is note_on channel=0 note=42 velocity=120 time=31
the msg is note_on channel=0 note=42 velocity=0 time=29
the msg is note_on channel=0 note=37 velocity=120 time=31
the msg is note_on channel=0 note=37 velocity=0 time=29
the msg is note_on channel=0 note=37 velocity=120 time=31
the msg is note_on channel=0 note=37 velocity=0 time=29
the msg is note_on channel=0 note=37 velocity=120 time=31
the msg is note_on channel=0 note=37 velocity=0 time=59
the msg is note_on channel=0 note=35 velocity=120 time=31
the msg is note_on channel=0 note=35 velocity=0 time=29
the msg is note_on channel=0 note=35 velocity=120 time=31
the msg is note_on channel=0 note=35 velocity=0 time=29
the msg is note_on channel=0 note=37 velocity=120 time=1
the msg is note_on channel=0 note=37 velocity=0 time=59
the msg is note_on channel=0 note=30 velocity=120 time=1
the msg is note_on channel=0 note=30 velocity=0 time=59
the msg is note_on channel=0 note=28 velocity=120 time=1
the msg is note_on channel=0 note=28 velocity=0 time=59
the msg is note_on channel=0 note=37 velocity=120 time=1
the msg is note_on channel=0 note=37 velocity=0 time=29
the msg is note_on channel=0 note=37 velocity=120 time=31
the msg is note_on channel=0 note=37 velocity=0 time=29
the msg is note_on channel=0 note=37 velocity=120 time=31
the msg is note_on channel=0 note=37 velocity=0 time=59
the msg is note_on channel=0 note=35 velocity=120 time=31
the msg is note_on channel=0 note=35 velocity=0 time=29
the msg is note_on channel=0 note=35 velocity=120 time=31
the msg is note_on channel=0 note=35 velocity=0 time=29
the msg is note_on channel=0 note=37 velocity=120 time=1
the msg is note_on channel=0 note=37 velocity=0 time=59
the msg is note_on channel=0 note=35 velocity=120 time=1
the msg is note_on channel=0 note=35 velocity=0 time=59
the msg is note_on channel=0 note=32 velocity=120 time=1
the msg is note_on channel=0 note=32 velocity=0 time=59
the msg is note_on channel=0 note=30 velocity=120 time=1
the msg is note_on channel=0 note=30 velocity=0 time=29
the msg is note_on channel=0 note=30 velocity=120 time=31
the msg is note_on channel=0 note=30 velocity=0 time=29
the msg is note_on channel=0 note=30 velocity=120 time=31
the msg is note_on channel=0 note=30 velocity=0 time=59
the msg is note_on channel=0 note=35 velocity=120 time=1
the msg is note_on channel=0 note=35 velocity=0 time=29
the msg is note_on channel=0 note=37 velocity=120 time=1
the msg is note_on channel=0 note=37 velocity=0 time=29
the msg is note_on channel=0 note=40 velocity=120 time=1
the msg is note_on channel=0 note=40 velocity=0 time=59
the msg is note_on channel=0 note=40 velocity=120 time=1
the msg is note_on channel=0 note=40 velocity=0 time=29
the msg is note_on channel=0 note=42 velocity=120 time=1
the msg is note_on channel=0 note=42 velocity=0 time=59
the msg is note_on channel=0 note=42 velocity=120 time=1
the msg is note_on channel=0 note=42 velocity=0 time=29
the msg is note_on channel=0 note=40 velocity=120 time=1
the msg is note_on channel=0 note=40 velocity=0 time=59
the msg is note_on channel=0 note=30 velocity=120 time=1
the msg is note_on channel=0 note=30 velocity=0 time=29
the msg is note_on channel=0 note=30 velocity=120 time=31
the msg is note_on channel=0 note=30 velocity=0 time=29
the msg is note_on channel=0 note=30 velocity=120 time=31
the msg is note_on channel=0 note=30 velocity=0 time=59
the msg is note_on channel=0 note=35 velocity=120 time=1
the msg is note_on channel=0 note=35 velocity=0 time=29
the msg is note_on channel=0 note=37 velocity=120 time=1
the msg is note_on channel=0 note=37 velocity=0 time=29
the msg is note_on channel=0 note=40 velocity=120 time=1
the msg is note_on channel=0 note=40 velocity=0 time=59
the msg is note_on channel=0 note=40 velocity=120 time=1
the msg is note_on channel=0 note=40 velocity=0 time=29
the msg is note_on channel=0 note=37 velocity=120 time=1
the msg is note_on channel=0 note=37 velocity=0 time=59
the msg is note_on channel=0 note=37 velocity=120 time=1
the msg is note_on channel=0 note=37 velocity=0 time=29
the msg is note_on channel=0 note=35 velocity=120 time=1
the msg is note_on channel=0 note=35 velocity=0 time=59
the msg is note_on channel=0 note=37 velocity=120 time=1
the msg is note_on channel=0 note=37 velocity=0 time=29
the msg is note_on channel=0 note=37 velocity=120 time=31
the msg is note_on channel=0 note=37 velocity=0 time=29
the msg is note_on channel=0 note=37 velocity=120 time=31
the msg is note_on channel=0 note=37 velocity=0 time=59
the msg is note_on channel=0 note=35 velocity=120 time=31
the msg is note_on channel=0 note=35 velocity=0 time=29
the msg is note_on channel=0 note=35 velocity=120 time=31
the msg is note_on channel=0 note=35 velocity=0 time=29
the msg is note_on channel=0 note=37 velocity=120 time=1
the msg is note_on channel=0 note=37 velocity=0 time=59
the msg is note_on channel=0 note=30 velocity=120 time=1
the msg is note_on channel=0 note=30 velocity=0 time=59
the msg is note_on channel=0 note=28 velocity=120 time=1
the msg is note_on channel=0 note=28 velocity=0 time=59
the msg is note_on channel=0 note=37 velocity=120 time=1
the msg is note_on channel=0 note=37 velocity=0 time=29
the msg is note_on channel=0 note=37 velocity=120 time=31
the msg is note_on channel=0 note=37 velocity=0 time=29
the msg is note_on channel=0 note=37 velocity=120 time=31
the msg is note_on channel=0 note=37 velocity=0 time=59
the msg is note_on channel=0 note=35 velocity=120 time=31
the msg is note_on channel=0 note=35 velocity=0 time=29
the msg is note_on channel=0 note=35 velocity=120 time=31
the msg is note_on channel=0 note=35 velocity=0 time=29
the msg is note_on channel=0 note=37 velocity=120 time=1
the msg is note_on channel=0 note=37 velocity=0 time=59
the msg is note_on channel=0 note=35 velocity=120 time=1
the msg is note_on channel=0 note=35 velocity=0 time=59
the msg is note_on channel=0 note=32 velocity=120 time=1
the msg is note_on channel=0 note=32 velocity=0 time=59
the msg is note_on channel=0 note=30 velocity=120 time=1
the msg is note_on channel=0 note=30 velocity=0 time=29
the msg is note_on channel=0 note=30 velocity=120 time=31
the msg is note_on channel=0 note=30 velocity=0 time=29
the msg is note_on channel=0 note=30 velocity=120 time=31
the msg is note_on channel=0 note=30 velocity=0 time=59
the msg is note_on channel=0 note=35 velocity=120 time=1
the msg is note_on channel=0 note=35 velocity=0 time=29
the msg is note_on channel=0 note=37 velocity=120 time=1
the msg is note_on channel=0 note=37 velocity=0 time=29
the msg is note_on channel=0 note=40 velocity=120 time=1
the msg is note_on channel=0 note=40 velocity=0 time=59
the msg is note_on channel=0 note=40 velocity=120 time=1
the msg is note_on channel=0 note=40 velocity=0 time=29
the msg is note_on channel=0 note=42 velocity=120 time=1
the msg is note_on channel=0 note=42 velocity=0 time=59
the msg is note_on channel=0 note=42 velocity=120 time=1
the msg is note_on channel=0 note=42 velocity=0 time=29
the msg is note_on channel=0 note=40 velocity=120 time=1
the msg is note_on channel=0 note=40 velocity=0 time=59
the msg is note_on channel=0 note=30 velocity=120 time=1
the msg is note_on channel=0 note=30 velocity=0 time=29
the msg is note_on channel=0 note=30 velocity=120 time=31
the msg is note_on channel=0 note=30 velocity=0 time=29
the msg is note_on channel=0 note=30 velocity=120 time=31
the msg is note_on channel=0 note=30 velocity=0 time=59
the msg is note_on channel=0 note=35 velocity=120 time=1
the msg is note_on channel=0 note=35 velocity=0 time=29
the msg is note_on channel=0 note=37 velocity=120 time=1
the msg is note_on channel=0 note=37 velocity=0 time=29
the msg is note_on channel=0 note=40 velocity=120 time=1
the msg is note_on channel=0 note=40 velocity=0 time=59
the msg is note_on channel=0 note=40 velocity=120 time=1
the msg is note_on channel=0 note=40 velocity=0 time=29
the msg is note_on channel=0 note=37 velocity=120 time=1
the msg is note_on channel=0 note=37 velocity=0 time=59
the msg is note_on channel=0 note=37 velocity=120 time=1
the msg is note_on channel=0 note=37 velocity=0 time=29
the msg is note_on channel=0 note=35 velocity=120 time=1
the msg is note_on channel=0 note=35 velocity=0 time=59
the msg is note_on channel=0 note=42 velocity=120 time=1
the msg is note_on channel=0 note=42 velocity=0 time=59
the msg is note_on channel=0 note=42 velocity=120 time=1
the msg is note_on channel=0 note=42 velocity=0 time=29
the msg is note_on channel=0 note=40 velocity=120 time=1
the msg is note_on channel=0 note=40 velocity=0 time=59
the msg is note_on channel=0 note=40 velocity=120 time=1
the msg is note_on channel=0 note=40 velocity=0 time=29
the msg is note_on channel=0 note=37 velocity=120 time=1
the msg is note_on channel=0 note=37 velocity=0 time=59
the msg is note_on channel=0 note=37 velocity=120 time=1
the msg is note_on channel=0 note=37 velocity=0 time=29
the msg is note_on channel=0 note=35 velocity=120 time=1
the msg is note_on channel=0 note=35 velocity=0 time=59
the msg is note_on channel=0 note=35 velocity=120 time=1
the msg is note_on channel=0 note=35 velocity=0 time=29
the msg is note_on channel=0 note=37 velocity=120 time=1
the msg is note_on channel=0 note=37 velocity=0 time=59
the msg is note_on channel=0 note=40 velocity=120 time=1
the msg is note_on channel=0 note=40 velocity=0 time=59
the msg is note_on channel=0 note=37 velocity=120 time=1
the msg is note_on channel=0 note=37 velocity=0 time=59
the msg is note_on channel=0 note=37 velocity=120 time=1
the msg is note_on channel=0 note=37 velocity=0 time=29
the msg is note_on channel=0 note=35 velocity=120 time=1
the msg is note_on channel=0 note=35 velocity=0 time=59
the msg is note_on channel=0 note=35 velocity=120 time=1
the msg is note_on channel=0 note=35 velocity=0 time=29
the msg is note_on channel=0 note=33 velocity=120 time=1
the msg is note_on channel=0 note=33 velocity=0 time=59
the msg is note_on channel=0 note=42 velocity=120 time=1
the msg is note_on channel=0 note=42 velocity=0 time=29
the msg is note_on channel=0 note=40 velocity=120 time=1
the msg is note_on channel=0 note=40 velocity=0 time=29
the msg is note_on channel=0 note=37 velocity=120 time=31
the msg is note_on channel=0 note=37 velocity=0 time=29
the msg is note_on channel=0 note=35 velocity=120 time=31
the msg is note_on channel=0 note=35 velocity=0 time=29
the msg is note_on channel=0 note=35 velocity=120 time=31
the msg is note_on channel=0 note=35 velocity=0 time=29
the msg is program_change channel=0 program=33 time=1
the msg is note_on channel=0 note=37 velocity=120 time=0
the msg is note_on channel=0 note=37 velocity=0 time=29
the msg is note_on channel=0 note=37 velocity=120 time=31
the msg is note_on channel=0 note=37 velocity=0 time=29
the msg is note_on channel=0 note=37 velocity=120 time=31
the msg is note_on channel=0 note=37 velocity=0 time=59
the msg is note_on channel=0 note=35 velocity=120 time=31
the msg is note_on channel=0 note=35 velocity=0 time=29
the msg is note_on channel=0 note=35 velocity=120 time=31
the msg is note_on channel=0 note=35 velocity=0 time=29
the msg is note_on channel=0 note=37 velocity=120 time=1
the msg is note_on channel=0 note=37 velocity=0 time=59
the msg is note_on channel=0 note=30 velocity=120 time=1
the msg is note_on channel=0 note=30 velocity=0 time=59
the msg is note_on channel=0 note=28 velocity=120 time=1
the msg is note_on channel=0 note=28 velocity=0 time=59
the msg is note_on channel=0 note=37 velocity=120 time=1
the msg is note_on channel=0 note=37 velocity=0 time=29
the msg is note_on channel=0 note=37 velocity=120 time=31
the msg is note_on channel=0 note=37 velocity=0 time=29
the msg is note_on channel=0 note=37 velocity=120 time=31
the msg is note_on channel=0 note=37 velocity=0 time=59
the msg is note_on channel=0 note=35 velocity=120 time=31
the msg is note_on channel=0 note=35 velocity=0 time=29
the msg is note_on channel=0 note=35 velocity=120 time=31
the msg is note_on channel=0 note=35 velocity=0 time=29
the msg is note_on channel=0 note=37 velocity=120 time=1
the msg is note_on channel=0 note=37 velocity=0 time=59
the msg is note_on channel=0 note=35 velocity=120 time=1
the msg is note_on channel=0 note=35 velocity=0 time=59
the msg is note_on channel=0 note=32 velocity=120 time=1
the msg is note_on channel=0 note=32 velocity=0 time=59
the msg is note_on channel=0 note=37 velocity=120 time=1
the msg is note_on channel=0 note=37 velocity=0 time=29
the msg is note_on channel=0 note=37 velocity=120 time=31
the msg is note_on channel=0 note=37 velocity=0 time=29
the msg is note_on channel=0 note=37 velocity=120 time=31
the msg is note_on channel=0 note=37 velocity=0 time=59
the msg is note_on channel=0 note=35 velocity=120 time=31
the msg is note_on channel=0 note=35 velocity=0 time=29
the msg is note_on channel=0 note=35 velocity=120 time=31
the msg is note_on channel=0 note=35 velocity=0 time=29
the msg is note_on channel=0 note=37 velocity=120 time=1
the msg is note_on channel=0 note=37 velocity=0 time=59
the msg is note_on channel=0 note=30 velocity=120 time=1
the msg is note_on channel=0 note=30 velocity=0 time=59
the msg is note_on channel=0 note=28 velocity=120 time=1
the msg is note_on channel=0 note=28 velocity=0 time=59
the msg is note_on channel=0 note=37 velocity=120 time=1
the msg is note_on channel=0 note=37 velocity=0 time=29
the msg is note_on channel=0 note=37 velocity=120 time=31
the msg is note_on channel=0 note=37 velocity=0 time=29
the msg is note_on channel=0 note=37 velocity=120 time=31
the msg is note_on channel=0 note=37 velocity=0 time=59
the msg is note_on channel=0 note=35 velocity=120 time=1
the msg is note_on channel=0 note=35 velocity=0 time=29
the msg is note_on channel=0 note=37 velocity=120 time=1
the msg is note_on channel=0 note=37 velocity=0 time=29
the msg is note_on channel=0 note=40 velocity=120 time=1
the msg is note_on channel=0 note=40 velocity=0 time=29
the msg is note_on channel=0 note=40 velocity=120 time=31
the msg is note_on channel=0 note=40 velocity=0 time=29
the msg is note_on channel=0 note=42 velocity=120 time=31
the msg is note_on channel=0 note=42 velocity=0 time=29
the msg is note_on channel=0 note=42 velocity=120 time=31
the msg is note_on channel=0 note=42 velocity=0 time=29
the msg is note_on channel=0 note=37 velocity=120 time=31
the msg is note_on channel=0 note=37 velocity=0 time=29
the msg is note_on channel=0 note=37 velocity=120 time=31
the msg is note_on channel=0 note=37 velocity=0 time=29
the msg is note_on channel=0 note=37 velocity=120 time=31
the msg is note_on channel=0 note=37 velocity=0 time=59
the msg is note_on channel=0 note=35 velocity=120 time=31
the msg is note_on channel=0 note=35 velocity=0 time=29
the msg is note_on channel=0 note=35 velocity=120 time=31
the msg is note_on channel=0 note=35 velocity=0 time=29
the msg is note_on channel=0 note=37 velocity=120 time=1
the msg is note_on channel=0 note=37 velocity=0 time=59
the msg is note_on channel=0 note=30 velocity=120 time=1
the msg is note_on channel=0 note=30 velocity=0 time=59
the msg is note_on channel=0 note=28 velocity=120 time=1
the msg is note_on channel=0 note=28 velocity=0 time=59
the msg is note_on channel=0 note=37 velocity=120 time=1
the msg is note_on channel=0 note=37 velocity=0 time=29
the msg is note_on channel=0 note=37 velocity=120 time=31
the msg is note_on channel=0 note=37 velocity=0 time=29
the msg is note_on channel=0 note=37 velocity=120 time=31
the msg is note_on channel=0 note=37 velocity=0 time=59
the msg is note_on channel=0 note=35 velocity=120 time=31
the msg is note_on channel=0 note=35 velocity=0 time=29
the msg is note_on channel=0 note=35 velocity=120 time=31
the msg is note_on channel=0 note=35 velocity=0 time=29
the msg is note_on channel=0 note=37 velocity=120 time=1
the msg is note_on channel=0 note=37 velocity=0 time=59
the msg is note_on channel=0 note=35 velocity=120 time=1
the msg is note_on channel=0 note=35 velocity=0 time=59
the msg is note_on channel=0 note=32 velocity=120 time=1
the msg is note_on channel=0 note=32 velocity=0 time=59
the msg is note_on channel=0 note=37 velocity=120 time=1
the msg is note_on channel=0 note=37 velocity=0 time=29
the msg is note_on channel=0 note=37 velocity=120 time=31
the msg is note_on channel=0 note=37 velocity=0 time=29
the msg is note_on channel=0 note=37 velocity=120 time=31
the msg is note_on channel=0 note=37 velocity=0 time=59
the msg is note_on channel=0 note=35 velocity=120 time=31
the msg is note_on channel=0 note=35 velocity=0 time=29
the msg is note_on channel=0 note=35 velocity=120 time=31
the msg is note_on channel=0 note=35 velocity=0 time=29
the msg is note_on channel=0 note=37 velocity=120 time=1
the msg is note_on channel=0 note=37 velocity=0 time=59
the msg is note_on channel=0 note=30 velocity=120 time=1
the msg is note_on channel=0 note=30 velocity=0 time=59
the msg is note_on channel=0 note=28 velocity=120 time=1
the msg is note_on channel=0 note=28 velocity=0 time=59
the msg is note_on channel=0 note=37 velocity=120 time=1
the msg is note_on channel=0 note=37 velocity=0 time=29
the msg is note_on channel=0 note=37 velocity=120 time=31
the msg is note_on channel=0 note=37 velocity=0 time=29
the msg is note_on channel=0 note=37 velocity=120 time=31
the msg is note_on channel=0 note=37 velocity=0 time=59
the msg is note_on channel=0 note=35 velocity=120 time=1
the msg is note_on channel=0 note=35 velocity=0 time=29
the msg is note_on channel=0 note=37 velocity=120 time=1
the msg is note_on channel=0 note=37 velocity=0 time=29
the msg is note_on channel=0 note=40 velocity=120 time=1
the msg is note_on channel=0 note=40 velocity=0 time=29
the msg is note_on channel=0 note=40 velocity=120 time=31
the msg is note_on channel=0 note=40 velocity=0 time=29
the msg is note_on channel=0 note=42 velocity=120 time=31
the msg is note_on channel=0 note=42 velocity=0 time=29
the msg is note_on channel=0 note=42 velocity=120 time=31
the msg is note_on channel=0 note=42 velocity=0 time=29
the msg is note_on channel=0 note=33 velocity=120 time=31
the msg is note_on channel=0 note=33 velocity=0 time=29
the msg is note_on channel=0 note=33 velocity=120 time=31
the msg is note_on channel=0 note=33 velocity=0 time=29
the msg is note_on channel=0 note=33 velocity=120 time=31
the msg is note_on channel=0 note=33 velocity=0 time=29
the msg is note_on channel=0 note=33 velocity=120 time=31
the msg is note_on channel=0 note=33 velocity=0 time=29
the msg is note_on channel=0 note=40 velocity=120 time=1
the msg is note_on channel=0 note=40 velocity=0 time=29
the msg is note_on channel=0 note=45 velocity=120 time=1
the msg is note_on channel=0 note=45 velocity=0 time=59
the msg is note_on channel=0 note=40 velocity=120 time=1
the msg is note_on channel=0 note=40 velocity=0 time=59
the msg is note_on channel=0 note=33 velocity=120 time=1
the msg is note_on channel=0 note=33 velocity=0 time=59
the msg is note_on channel=0 note=30 velocity=120 time=1
the msg is note_on channel=0 note=30 velocity=0 time=119
the msg is note_on channel=0 note=30 velocity=120 time=1
the msg is note_on channel=0 note=30 velocity=0 time=29
the msg is note_on channel=0 note=30 velocity=120 time=31
the msg is note_on channel=0 note=30 velocity=0 time=29
the msg is note_on channel=0 note=30 velocity=120 time=31
the msg is note_on channel=0 note=30 velocity=0 time=29
the msg is note_on channel=0 note=37 velocity=120 time=1
the msg is note_on channel=0 note=37 velocity=0 time=29
the msg is note_on channel=0 note=42 velocity=120 time=1
the msg is note_on channel=0 note=42 velocity=0 time=59
the msg is note_on channel=0 note=42 velocity=120 time=1
the msg is note_on channel=0 note=42 velocity=0 time=29
the msg is note_on channel=0 note=42 velocity=120 time=31
the msg is note_on channel=0 note=42 velocity=0 time=29
the msg is note_on channel=0 note=42 velocity=120 time=31
the msg is note_on channel=0 note=42 velocity=0 time=29
the msg is note_on channel=0 note=33 velocity=120 time=31
the msg is note_on channel=0 note=33 velocity=0 time=29
the msg is note_on channel=0 note=33 velocity=120 time=31
the msg is note_on channel=0 note=33 velocity=0 time=29
the msg is note_on channel=0 note=33 velocity=120 time=31
the msg is note_on channel=0 note=33 velocity=0 time=29
the msg is note_on channel=0 note=33 velocity=120 time=31
the msg is note_on channel=0 note=33 velocity=0 time=29
the msg is note_on channel=0 note=40 velocity=120 time=1
the msg is note_on channel=0 note=40 velocity=0 time=29
the msg is note_on channel=0 note=45 velocity=120 time=1
the msg is note_on channel=0 note=45 velocity=0 time=59
the msg is note_on channel=0 note=40 velocity=120 time=1
the msg is note_on channel=0 note=40 velocity=0 time=59
the msg is note_on channel=0 note=33 velocity=120 time=1
the msg is note_on channel=0 note=33 velocity=0 time=59
the msg is note_on channel=0 note=35 velocity=120 time=1
the msg is note_on channel=0 note=35 velocity=0 time=119
the msg is note_on channel=0 note=30 velocity=120 time=1
the msg is note_on channel=0 note=30 velocity=0 time=29
the msg is note_on channel=0 note=30 velocity=120 time=31
the msg is note_on channel=0 note=30 velocity=0 time=29
the msg is note_on channel=0 note=36 velocity=120 time=31
the msg is note_on channel=0 note=36 velocity=0 time=119
the msg is note_on channel=0 note=36 velocity=120 time=1
the msg is note_on channel=0 note=36 velocity=0 time=29
the msg is note_on channel=0 note=36 velocity=120 time=31
the msg is note_on channel=0 note=36 velocity=0 time=29
the msg is note_on channel=0 note=36 velocity=120 time=31
the msg is note_on channel=0 note=36 velocity=0 time=29
the msg is program_change channel=0 program=33 time=31
the msg is note_on channel=0 note=37 velocity=120 time=0
the msg is note_on channel=0 note=37 velocity=0 time=29
the msg is note_on channel=0 note=37 velocity=120 time=31
the msg is note_on channel=0 note=37 velocity=0 time=29
the msg is note_on channel=0 note=37 velocity=120 time=31
the msg is note_on channel=0 note=37 velocity=0 time=59
the msg is note_on channel=0 note=35 velocity=120 time=31
the msg is note_on channel=0 note=35 velocity=0 time=29
the msg is note_on channel=0 note=35 velocity=120 time=31
the msg is note_on channel=0 note=35 velocity=0 time=29
the msg is note_on channel=0 note=37 velocity=120 time=1
the msg is note_on channel=0 note=37 velocity=0 time=59
the msg is note_on channel=0 note=30 velocity=120 time=1
the msg is note_on channel=0 note=30 velocity=0 time=59
the msg is note_on channel=0 note=28 velocity=120 time=1
the msg is note_on channel=0 note=28 velocity=0 time=59
the msg is note_on channel=0 note=37 velocity=120 time=1
the msg is note_on channel=0 note=37 velocity=0 time=29
the msg is note_on channel=0 note=37 velocity=120 time=31
the msg is note_on channel=0 note=37 velocity=0 time=29
the msg is note_on channel=0 note=37 velocity=120 time=31
the msg is note_on channel=0 note=37 velocity=0 time=59
the msg is note_on channel=0 note=35 velocity=120 time=31
the msg is note_on channel=0 note=35 velocity=0 time=29
the msg is note_on channel=0 note=35 velocity=120 time=31
the msg is note_on channel=0 note=35 velocity=0 time=29
the msg is note_on channel=0 note=37 velocity=120 time=1
the msg is note_on channel=0 note=37 velocity=0 time=59
the msg is note_on channel=0 note=35 velocity=120 time=1
the msg is note_on channel=0 note=35 velocity=0 time=59
the msg is note_on channel=0 note=32 velocity=120 time=1
the msg is note_on channel=0 note=32 velocity=0 time=59
the msg is note_on channel=0 note=37 velocity=120 time=1
the msg is note_on channel=0 note=37 velocity=0 time=29
the msg is note_on channel=0 note=37 velocity=120 time=31
the msg is note_on channel=0 note=37 velocity=0 time=29
the msg is note_on channel=0 note=37 velocity=120 time=31
the msg is note_on channel=0 note=37 velocity=0 time=59
the msg is note_on channel=0 note=35 velocity=120 time=31
the msg is note_on channel=0 note=35 velocity=0 time=29
the msg is note_on channel=0 note=35 velocity=120 time=31
the msg is note_on channel=0 note=35 velocity=0 time=29
the msg is note_on channel=0 note=37 velocity=120 time=1
the msg is note_on channel=0 note=37 velocity=0 time=59
the msg is note_on channel=0 note=30 velocity=120 time=1
the msg is note_on channel=0 note=30 velocity=0 time=59
the msg is note_on channel=0 note=28 velocity=120 time=1
the msg is note_on channel=0 note=28 velocity=0 time=59
the msg is note_on channel=0 note=37 velocity=120 time=1
the msg is note_on channel=0 note=37 velocity=0 time=29
the msg is note_on channel=0 note=37 velocity=120 time=31
the msg is note_on channel=0 note=37 velocity=0 time=29
the msg is note_on channel=0 note=37 velocity=120 time=31
the msg is note_on channel=0 note=37 velocity=0 time=59
the msg is note_on channel=0 note=35 velocity=120 time=1
the msg is note_on channel=0 note=35 velocity=0 time=29
the msg is note_on channel=0 note=37 velocity=120 time=1
the msg is note_on channel=0 note=37 velocity=0 time=29
the msg is note_on channel=0 note=40 velocity=120 time=1
the msg is note_on channel=0 note=40 velocity=0 time=29
the msg is note_on channel=0 note=40 velocity=120 time=31
the msg is note_on channel=0 note=40 velocity=0 time=29
the msg is note_on channel=0 note=42 velocity=120 time=31
the msg is note_on channel=0 note=42 velocity=0 time=29
the msg is note_on channel=0 note=42 velocity=120 time=31
the msg is note_on channel=0 note=42 velocity=0 time=29
the msg is note_on channel=0 note=37 velocity=120 time=31
the msg is note_on channel=0 note=37 velocity=0 time=29
the msg is note_on channel=0 note=37 velocity=120 time=31
the msg is note_on channel=0 note=37 velocity=0 time=29
the msg is note_on channel=0 note=37 velocity=120 time=31
the msg is note_on channel=0 note=37 velocity=0 time=59
the msg is note_on channel=0 note=35 velocity=120 time=31
the msg is note_on channel=0 note=35 velocity=0 time=29
the msg is note_on channel=0 note=35 velocity=120 time=31
the msg is note_on channel=0 note=35 velocity=0 time=29
the msg is note_on channel=0 note=37 velocity=120 time=1
the msg is note_on channel=0 note=37 velocity=0 time=59
the msg is note_on channel=0 note=30 velocity=120 time=1
the msg is note_on channel=0 note=30 velocity=0 time=59
the msg is note_on channel=0 note=28 velocity=120 time=1
the msg is note_on channel=0 note=28 velocity=0 time=59
the msg is note_on channel=0 note=37 velocity=120 time=1
the msg is note_on channel=0 note=37 velocity=0 time=29
the msg is note_on channel=0 note=37 velocity=120 time=31
the msg is note_on channel=0 note=37 velocity=0 time=29
the msg is note_on channel=0 note=37 velocity=120 time=31
the msg is note_on channel=0 note=37 velocity=0 time=59
the msg is note_on channel=0 note=35 velocity=120 time=31
the msg is note_on channel=0 note=35 velocity=0 time=29
the msg is note_on channel=0 note=35 velocity=120 time=31
the msg is note_on channel=0 note=35 velocity=0 time=29
the msg is note_on channel=0 note=37 velocity=120 time=1
the msg is note_on channel=0 note=37 velocity=0 time=59
the msg is note_on channel=0 note=35 velocity=120 time=1
the msg is note_on channel=0 note=35 velocity=0 time=59
the msg is note_on channel=0 note=32 velocity=120 time=1
the msg is note_on channel=0 note=32 velocity=0 time=59
the msg is note_on channel=0 note=37 velocity=120 time=1
the msg is note_on channel=0 note=37 velocity=0 time=29
the msg is note_on channel=0 note=37 velocity=120 time=31
the msg is note_on channel=0 note=37 velocity=0 time=29
the msg is note_on channel=0 note=37 velocity=120 time=31
the msg is note_on channel=0 note=37 velocity=0 time=59
the msg is note_on channel=0 note=35 velocity=120 time=31
the msg is note_on channel=0 note=35 velocity=0 time=29
the msg is note_on channel=0 note=35 velocity=120 time=31
the msg is note_on channel=0 note=35 velocity=0 time=29
the msg is note_on channel=0 note=37 velocity=120 time=1
the msg is note_on channel=0 note=37 velocity=0 time=59
the msg is note_on channel=0 note=30 velocity=120 time=1
the msg is note_on channel=0 note=30 velocity=0 time=59
the msg is note_on channel=0 note=28 velocity=120 time=1
the msg is note_on channel=0 note=28 velocity=0 time=59
the msg is note_on channel=0 note=37 velocity=120 time=1
the msg is note_on channel=0 note=37 velocity=0 time=29
the msg is note_on channel=0 note=37 velocity=120 time=31
the msg is note_on channel=0 note=37 velocity=0 time=29
the msg is note_on channel=0 note=37 velocity=120 time=31
the msg is note_on channel=0 note=37 velocity=0 time=59
the msg is note_on channel=0 note=35 velocity=120 time=1
the msg is note_on channel=0 note=35 velocity=0 time=29
the msg is note_on channel=0 note=37 velocity=120 time=1
the msg is note_on channel=0 note=37 velocity=0 time=29
the msg is note_on channel=0 note=40 velocity=120 time=1
the msg is note_on channel=0 note=40 velocity=0 time=29
the msg is note_on channel=0 note=40 velocity=120 time=31
the msg is note_on channel=0 note=40 velocity=0 time=29
the msg is note_on channel=0 note=42 velocity=120 time=31
the msg is note_on channel=0 note=42 velocity=0 time=29
the msg is note_on channel=0 note=42 velocity=120 time=31
the msg is note_on channel=0 note=42 velocity=0 time=29
the msg is note_on channel=0 note=33 velocity=120 time=31
the msg is note_on channel=0 note=33 velocity=0 time=29
the msg is note_on channel=0 note=33 velocity=120 time=31
the msg is note_on channel=0 note=33 velocity=0 time=29
the msg is note_on channel=0 note=33 velocity=120 time=31
the msg is note_on channel=0 note=33 velocity=0 time=29
the msg is note_on channel=0 note=33 velocity=120 time=31
the msg is note_on channel=0 note=33 velocity=0 time=29
the msg is note_on channel=0 note=40 velocity=120 time=1
the msg is note_on channel=0 note=40 velocity=0 time=29
the msg is note_on channel=0 note=45 velocity=120 time=1
the msg is note_on channel=0 note=45 velocity=0 time=59
the msg is note_on channel=0 note=40 velocity=120 time=1
the msg is note_on channel=0 note=40 velocity=0 time=59
the msg is note_on channel=0 note=33 velocity=120 time=1
the msg is note_on channel=0 note=33 velocity=0 time=59
the msg is note_on channel=0 note=30 velocity=120 time=1
the msg is note_on channel=0 note=30 velocity=0 time=119
the msg is note_on channel=0 note=30 velocity=120 time=1
the msg is note_on channel=0 note=30 velocity=0 time=29
the msg is note_on channel=0 note=30 velocity=120 time=31
the msg is note_on channel=0 note=30 velocity=0 time=29
the msg is note_on channel=0 note=30 velocity=120 time=31
the msg is note_on channel=0 note=30 velocity=0 time=29
the msg is note_on channel=0 note=37 velocity=120 time=1
the msg is note_on channel=0 note=37 velocity=0 time=29
the msg is note_on channel=0 note=42 velocity=120 time=1
the msg is note_on channel=0 note=42 velocity=0 time=59
the msg is note_on channel=0 note=42 velocity=120 time=1
the msg is note_on channel=0 note=42 velocity=0 time=29
the msg is note_on channel=0 note=42 velocity=120 time=31
the msg is note_on channel=0 note=42 velocity=0 time=29
the msg is note_on channel=0 note=42 velocity=120 time=31
the msg is note_on channel=0 note=42 velocity=0 time=29
the msg is note_on channel=0 note=33 velocity=120 time=31
the msg is note_on channel=0 note=33 velocity=0 time=29
the msg is note_on channel=0 note=33 velocity=120 time=31
the msg is note_on channel=0 note=33 velocity=0 time=29
the msg is note_on channel=0 note=33 velocity=120 time=31
the msg is note_on channel=0 note=33 velocity=0 time=29
the msg is note_on channel=0 note=33 velocity=120 time=31
the msg is note_on channel=0 note=33 velocity=0 time=29
the msg is note_on channel=0 note=40 velocity=120 time=1
the msg is note_on channel=0 note=40 velocity=0 time=29
the msg is note_on channel=0 note=45 velocity=120 time=1
the msg is note_on channel=0 note=45 velocity=0 time=59
the msg is note_on channel=0 note=40 velocity=120 time=1
the msg is note_on channel=0 note=40 velocity=0 time=59
the msg is note_on channel=0 note=33 velocity=120 time=1
the msg is note_on channel=0 note=33 velocity=0 time=59
the msg is note_on channel=0 note=35 velocity=120 time=1
the msg is note_on channel=0 note=35 velocity=0 time=119
the msg is note_on channel=0 note=30 velocity=120 time=1
the msg is note_on channel=0 note=30 velocity=0 time=29
the msg is note_on channel=0 note=30 velocity=120 time=31
the msg is note_on channel=0 note=30 velocity=0 time=29
the msg is note_on channel=0 note=36 velocity=120 time=31
the msg is note_on channel=0 note=36 velocity=0 time=119
the msg is note_on channel=0 note=36 velocity=120 time=1
the msg is note_on channel=0 note=36 velocity=0 time=29
the msg is note_on channel=0 note=36 velocity=120 time=31
the msg is note_on channel=0 note=36 velocity=0 time=29
the msg is note_on channel=0 note=36 velocity=120 time=31
the msg is note_on channel=0 note=36 velocity=0 time=29
the msg is program_change channel=0 program=33 time=31
the msg is note_on channel=0 note=37 velocity=120 time=0
the msg is note_on channel=0 note=37 velocity=0 time=29
the msg is note_on channel=0 note=37 velocity=120 time=31
the msg is note_on channel=0 note=37 velocity=0 time=29
the msg is note_on channel=0 note=37 velocity=120 time=31
the msg is note_on channel=0 note=37 velocity=0 time=59
the msg is note_on channel=0 note=35 velocity=120 time=31
the msg is note_on channel=0 note=35 velocity=0 time=29
the msg is note_on channel=0 note=35 velocity=120 time=31
the msg is note_on channel=0 note=35 velocity=0 time=29
the msg is note_on channel=0 note=37 velocity=120 time=1
the msg is note_on channel=0 note=37 velocity=0 time=59
the msg is note_on channel=0 note=30 velocity=120 time=1
the msg is note_on channel=0 note=30 velocity=0 time=59
the msg is note_on channel=0 note=28 velocity=120 time=1
the msg is note_on channel=0 note=28 velocity=0 time=59
the msg is note_on channel=0 note=37 velocity=120 time=1
the msg is note_on channel=0 note=37 velocity=0 time=29
the msg is note_on channel=0 note=37 velocity=120 time=31
the msg is note_on channel=0 note=37 velocity=0 time=29
the msg is note_on channel=0 note=37 velocity=120 time=31
the msg is note_on channel=0 note=37 velocity=0 time=59
the msg is note_on channel=0 note=35 velocity=120 time=31
the msg is note_on channel=0 note=35 velocity=0 time=29
the msg is note_on channel=0 note=35 velocity=120 time=31
the msg is note_on channel=0 note=35 velocity=0 time=29
the msg is note_on channel=0 note=37 velocity=120 time=1
the msg is note_on channel=0 note=37 velocity=0 time=59
the msg is note_on channel=0 note=35 velocity=120 time=1
the msg is note_on channel=0 note=35 velocity=0 time=59
the msg is note_on channel=0 note=32 velocity=120 time=1
the msg is note_on channel=0 note=32 velocity=0 time=59
the msg is note_on channel=0 note=37 velocity=120 time=1
the msg is note_on channel=0 note=37 velocity=0 time=29
the msg is note_on channel=0 note=37 velocity=120 time=31
the msg is note_on channel=0 note=37 velocity=0 time=29
the msg is note_on channel=0 note=37 velocity=120 time=31
the msg is note_on channel=0 note=37 velocity=0 time=59
the msg is note_on channel=0 note=35 velocity=120 time=31
the msg is note_on channel=0 note=35 velocity=0 time=29
the msg is note_on channel=0 note=35 velocity=120 time=31
the msg is note_on channel=0 note=35 velocity=0 time=29
the msg is note_on channel=0 note=37 velocity=120 time=1
the msg is note_on channel=0 note=37 velocity=0 time=59
the msg is note_on channel=0 note=30 velocity=120 time=1
the msg is note_on channel=0 note=30 velocity=0 time=59
the msg is note_on channel=0 note=28 velocity=120 time=1
the msg is control_change channel=0 control=11 value=127 time=52
the msg is note_on channel=0 note=28 velocity=0 time=7
the msg is control_change channel=0 control=11 value=126 time=1
the msg is note_on channel=0 note=37 velocity=120 time=0
the msg is control_change channel=0 control=11 value=125 time=8
the msg is control_change channel=0 control=11 value=124 time=8
the msg is control_change channel=0 control=11 value=122 time=8
the msg is note_on channel=0 note=37 velocity=0 time=5
the msg is control_change channel=0 control=11 value=121 time=3
the msg is control_change channel=0 control=11 value=120 time=8
the msg is control_change channel=0 control=11 value=119 time=8
the msg is control_change channel=0 control=11 value=118 time=8
the msg is note_on channel=0 note=37 velocity=120 time=4
the msg is control_change channel=0 control=11 value=117 time=4
the msg is note_on channel=0 note=37 velocity=0 time=25
the msg is control_change channel=0 control=11 value=116 time=15
the msg is note_on channel=0 note=37 velocity=120 time=16
the msg is control_change channel=0 control=11 value=115 time=40
the msg is control_change channel=0 control=11 value=114 time=16
the msg is note_on channel=0 note=37 velocity=0 time=3
the msg is note_on channel=0 note=35 velocity=120 time=1
the msg is control_change channel=0 control=11 value=113 time=4
the msg is control_change channel=0 control=11 value=112 time=8
the msg is note_on channel=0 note=35 velocity=0 time=17
the msg is note_on channel=0 note=37 velocity=120 time=1
the msg is control_change channel=0 control=11 value=111 time=14
the msg is note_on channel=0 note=37 velocity=0 time=15
the msg is note_on channel=0 note=40 velocity=120 time=1
the msg is control_change channel=0 control=11 value=110 time=8
the msg is control_change channel=0 control=11 value=109 time=16
the msg is note_on channel=0 note=40 velocity=0 time=5
the msg is control_change channel=0 control=11 value=108 time=3
the msg is note_on channel=0 note=40 velocity=120 time=28
the msg is control_change channel=0 control=11 value=107 time=12
the msg is control_change channel=0 control=11 value=106 time=8
the msg is control_change channel=0 control=11 value=103 time=8
the msg is note_on channel=0 note=40 velocity=0 time=1
the msg is note_on channel=0 note=42 velocity=120 time=31
the msg is control_change channel=0 control=11 value=102 time=0
the msg is control_change channel=0 control=11 value=101 time=8
the msg is control_change channel=0 control=11 value=100 time=16
the msg is note_on channel=0 note=42 velocity=0 time=5
the msg is control_change channel=0 control=11 value=98 time=3
the msg is control_change channel=0 control=11 value=97 time=16
the msg is note_on channel=0 note=42 velocity=120 time=12
the msg is control_change channel=0 control=11 value=96 time=4
the msg is control_change channel=0 control=11 value=95 time=16
the msg is note_on channel=0 note=42 velocity=0 time=9
the msg is control_change channel=0 control=11 value=94 time=7
the msg is control_change channel=0 control=11 value=93 time=8
the msg is control_change channel=0 control=11 value=92 time=8
the msg is note_on channel=0 note=37 velocity=120 time=8
the msg is control_change channel=0 control=11 value=91 time=16
the msg is note_on channel=0 note=37 velocity=0 time=13
the msg is control_change channel=0 control=11 value=90 time=3
the msg is control_change channel=0 control=11 value=89 time=8
the msg is control_change channel=0 control=11 value=88 time=16
the msg is note_on channel=0 note=37 velocity=120 time=4
the msg is note_on channel=0 note=37 velocity=0 time=29
the msg is control_change channel=0 control=11 value=87 time=23
the msg is note_on channel=0 note=37 velocity=120 time=8
the msg is control_change channel=0 control=11 value=85 time=24
the msg is control_change channel=0 control=11 value=84 time=24
the msg is note_on channel=0 note=37 velocity=0 time=11
the msg is note_on channel=0 note=35 velocity=120 time=31
the msg is control_change channel=0 control=11 value=83 time=6
the msg is control_change channel=0 control=11 value=82 time=16
the msg is note_on channel=0 note=35 velocity=0 time=7
the msg is control_change channel=0 control=11 value=81 time=1
the msg is control_change channel=0 control=11 value=80 time=16
the msg is control_change channel=0 control=11 value=79 time=8
the msg is note_on channel=0 note=35 velocity=120 time=6
the msg is control_change channel=0 control=11 value=78 time=2
the msg is control_change channel=0 control=11 value=76 time=8
the msg is control_change channel=0 control=11 value=75 time=16
the msg is note_on channel=0 note=35 velocity=0 time=3
the msg is note_on channel=0 note=37 velocity=120 time=1
the msg is control_change channel=0 control=11 value=74 time=20
the msg is control_change channel=0 control=11 value=70 time=24
the msg is note_on channel=0 note=37 velocity=0 time=15
the msg is note_on channel=0 note=30 velocity=120 time=1
the msg is control_change channel=0 control=11 value=69 time=40
the msg is note_on channel=0 note=30 velocity=0 time=19
the msg is note_on channel=0 note=28 velocity=120 time=1
the msg is control_change channel=0 control=11 value=67 time=28
the msg is control_change channel=0 control=11 value=66 time=24
the msg is note_on channel=0 note=28 velocity=0 time=7
the msg is note_on channel=0 note=37 velocity=120 time=1
the msg is note_on channel=0 note=37 velocity=0 time=29
the msg is control_change channel=0 control=11 value=65 time=19
the msg is control_change channel=0 control=11 value=64 time=8
the msg is note_on channel=0 note=37 velocity=120 time=4
the msg is control_change channel=0 control=11 value=63 time=4
the msg is control_change channel=0 control=11 value=62 time=16
the msg is note_on channel=0 note=37 velocity=0 time=9
the msg is control_change channel=0 control=11 value=61 time=7
the msg is control_change channel=0 control=11 value=60 time=8
the msg is control_change channel=0 control=11 value=59 time=16
the msg is note_on channel=0 note=37 velocity=120 time=0
the msg is control_change channel=0 control=11 value=58 time=16
the msg is control_change channel=0 control=11 value=57 time=16
the msg is control_change channel=0 control=11 value=56 time=16
the msg is note_on channel=0 note=37 velocity=0 time=11
the msg is control_change channel=0 control=11 value=55 time=21
the msg is control_change channel=0 control=11 value=54 time=8
the msg is note_on channel=0 note=35 velocity=120 time=2
the msg is control_change channel=0 control=11 value=53 time=14
the msg is note_on channel=0 note=35 velocity=0 time=15
the msg is control_change channel=0 control=11 value=51 time=9
the msg is note_on channel=0 note=35 velocity=120 time=22
the msg is control_change channel=0 control=11 value=49 time=2
the msg is control_change channel=0 control=11 value=48 time=16
the msg is note_on channel=0 note=35 velocity=0 time=11
the msg is note_on channel=0 note=37 velocity=120 time=1
the msg is control_change channel=0 control=11 value=46 time=4
the msg is control_change channel=0 control=11 value=44 time=16
the msg is control_change channel=0 control=11 value=43 time=16
the msg is control_change channel=0 control=11 value=42 time=16
the msg is note_on channel=0 note=37 velocity=0 time=7
the msg is note_on channel=0 note=35 velocity=120 time=1
the msg is control_change channel=0 control=11 value=41 time=0
the msg is control_change channel=0 control=11 value=40 time=8
the msg is control_change channel=0 control=11 value=38 time=8
the msg is control_change channel=0 control=11 value=35 time=24
the msg is note_on channel=0 note=35 velocity=0 time=19
the msg is note_on channel=0 note=32 velocity=120 time=1
the msg is control_change channel=0 control=11 value=34 time=12
the msg is control_change channel=0 control=11 value=33 time=24
the msg is note_on channel=0 note=32 velocity=0 time=23
the msg is note_on channel=0 note=30 velocity=120 time=1
the msg is note_on channel=0 note=30 velocity=0 time=29
the msg is control_change channel=0 control=11 value=32 time=19
the msg is note_on channel=0 note=30 velocity=120 time=12
the msg is control_change channel=0 control=11 value=30 time=12
the msg is control_change channel=0 control=11 value=29 time=16
the msg is note_on channel=0 note=30 velocity=0 time=1
the msg is control_change channel=0 control=11 value=28 time=15
the msg is control_change channel=0 control=11 value=27 time=8
the msg is note_on channel=0 note=30 velocity=120 time=8
the msg is control_change channel=0 control=11 value=26 time=24
the msg is control_change channel=0 control=11 value=25 time=16
the msg is note_on channel=0 note=30 velocity=0 time=19
the msg is note_on channel=0 note=35 velocity=120 time=1
the msg is control_change channel=0 control=11 value=24 time=4
the msg is control_change channel=0 control=11 value=23 time=8
the msg is control_change channel=0 control=11 value=22 time=8
the msg is control_change channel=0 control=11 value=21 time=8
the msg is note_on channel=0 note=35 velocity=0 time=1
the msg is note_on channel=0 note=37 velocity=120 time=1
the msg is control_change channel=0 control=11 value=20 time=6
the msg is note_on channel=0 note=37 velocity=0 time=23
the msg is note_on channel=0 note=40 velocity=120 time=1
the msg is control_change channel=0 control=11 value=17 time=8
the msg is control_change channel=0 control=11 value=16 time=32
the msg is note_on channel=0 note=40 velocity=0 time=19
the msg is note_on channel=0 note=40 velocity=120 time=1
the msg is control_change channel=0 control=11 value=14 time=4
the msg is control_change channel=0 control=11 value=13 time=16
the msg is control_change channel=0 control=11 value=12 time=8
the msg is note_on channel=0 note=40 velocity=0 time=1
the msg is note_on channel=0 note=42 velocity=120 time=1
the msg is control_change channel=0 control=11 value=11 time=6
the msg is control_change channel=0 control=11 value=10 time=32
the msg is control_change channel=0 control=11 value=9 time=8
the msg is note_on channel=0 note=42 velocity=0 time=13
the msg is note_on channel=0 note=42 velocity=120 time=1
the msg is control_change channel=0 control=11 value=8 time=2
the msg is control_change channel=0 control=11 value=6 time=16
the msg is control_change channel=0 control=11 value=5 time=8
the msg is note_on channel=0 note=42 velocity=0 time=3
the msg is note_on channel=0 note=40 velocity=120 time=1
the msg is control_change channel=0 control=11 value=4 time=4
the msg is control_change channel=0 control=11 value=3 time=8
the msg is control_change channel=0 control=11 value=2 time=8
the msg is control_change channel=0 control=11 value=1 time=16
the msg is control_change channel=0 control=11 value=0 time=8
the msg is note_on channel=0 note=40 velocity=0 time=15
the msg is note_on channel=0 note=30 velocity=120 time=1
the msg is note_on channel=0 note=30 velocity=0 time=29
the msg is <meta message end_of_track time=0>
the msg is control_change channel=1 control=0 value=0 time=0
the msg is program_change channel=1 program=4 time=0
the msg is <meta message sequencer_specific data=(74, 65, 90, 50, 1, 0, 0, 0, 0, 0, 0, 0, 0, 0, 0, 0, 0, 0, 0, 0) time=0>
the msg is <meta message midi_port port=0 time=0>
the msg is note_on channel=1 note=49 velocity=100 time=0
the msg is <meta message track_name name='Embellishments' time=0>
the msg is note_on channel=1 note=49 velocity=0 time=29
the msg is note_on channel=1 note=49 velocity=100 time=31
the msg is note_on channel=1 note=49 velocity=0 time=29
the msg is note_on channel=1 note=64 velocity=100 time=31
the msg is note_on channel=1 note=61 velocity=100 time=0
the msg is note_on channel=1 note=61 velocity=0 time=29
the msg is note_on channel=1 note=64 velocity=0 time=0
the msg is note_on channel=1 note=63 velocity=100 time=91
the msg is note_on channel=1 note=59 velocity=100 time=0
the msg is note_on channel=1 note=59 velocity=0 time=29
the msg is note_on channel=1 note=63 velocity=0 time=0
the msg is note_on channel=1 note=61 velocity=100 time=61
the msg is note_on channel=1 note=64 velocity=100 time=0
the msg is note_on channel=1 note=64 velocity=0 time=119
the msg is note_on channel=1 note=61 velocity=0 time=0
the msg is note_on channel=1 note=49 velocity=100 time=31
the msg is note_on channel=1 note=49 velocity=0 time=29
the msg is note_on channel=1 note=49 velocity=100 time=31
the msg is note_on channel=1 note=49 velocity=0 time=29
the msg is note_on channel=1 note=61 velocity=100 time=31
the msg is note_on channel=1 note=64 velocity=100 time=0
the msg is note_on channel=1 note=64 velocity=0 time=29
the msg is note_on channel=1 note=61 velocity=0 time=0
the msg is note_on channel=1 note=63 velocity=100 time=91
the msg is note_on channel=1 note=59 velocity=100 time=0
the msg is note_on channel=1 note=59 velocity=0 time=29
the msg is note_on channel=1 note=63 velocity=0 time=0
the msg is note_on channel=1 note=64 velocity=100 time=61
the msg is note_on channel=1 note=61 velocity=100 time=0
the msg is note_on channel=1 note=64 velocity=0 time=119
the msg is note_on channel=1 note=61 velocity=0 time=0
the msg is note_on channel=1 note=49 velocity=100 time=31
the msg is note_on channel=1 note=49 velocity=0 time=29
the msg is note_on channel=1 note=49 velocity=100 time=31
the msg is note_on channel=1 note=49 velocity=0 time=29
the msg is note_on channel=1 note=61 velocity=100 time=31
the msg is note_on channel=1 note=64 velocity=100 time=0
the msg is note_on channel=1 note=61 velocity=0 time=29
the msg is note_on channel=1 note=64 velocity=0 time=0
the msg is note_on channel=1 note=59 velocity=100 time=91
the msg is note_on channel=1 note=63 velocity=100 time=0
the msg is note_on channel=1 note=63 velocity=0 time=29
the msg is note_on channel=1 note=59 velocity=0 time=0
the msg is note_on channel=1 note=61 velocity=100 time=61
the msg is note_on channel=1 note=64 velocity=100 time=0
the msg is note_on channel=1 note=61 velocity=0 time=119
the msg is note_on channel=1 note=64 velocity=0 time=0
the msg is note_on channel=1 note=49 velocity=100 time=31
the msg is note_on channel=1 note=49 velocity=0 time=29
the msg is note_on channel=1 note=49 velocity=100 time=31
the msg is note_on channel=1 note=49 velocity=0 time=29
the msg is note_on channel=1 note=64 velocity=100 time=31
the msg is note_on channel=1 note=61 velocity=100 time=0
the msg is note_on channel=1 note=64 velocity=0 time=29
the msg is note_on channel=1 note=61 velocity=0 time=0
the msg is note_on channel=1 note=68 velocity=100 time=91
the msg is note_on channel=1 note=68 velocity=0 time=29
the msg is note_on channel=1 note=67 velocity=100 time=1
the msg is note_on channel=1 note=67 velocity=0 time=29
the msg is note_on channel=1 note=66 velocity=100 time=31
the msg is note_on channel=1 note=66 velocity=0 time=29
the msg is note_on channel=1 note=64 velocity=100 time=31
the msg is note_on channel=1 note=64 velocity=0 time=29
the msg is note_on channel=1 note=49 velocity=100 time=61
the msg is note_on channel=1 note=49 velocity=0 time=29
the msg is note_on channel=1 note=49 velocity=100 time=31
the msg is note_on channel=1 note=49 velocity=0 time=29
the msg is note_on channel=1 note=61 velocity=100 time=31
the msg is note_on channel=1 note=64 velocity=100 time=0
the msg is note_on channel=1 note=64 velocity=0 time=29
the msg is note_on channel=1 note=61 velocity=0 time=0
the msg is note_on channel=1 note=63 velocity=100 time=91
the msg is note_on channel=1 note=59 velocity=100 time=0
the msg is note_on channel=1 note=59 velocity=0 time=29
the msg is note_on channel=1 note=63 velocity=0 time=0
the msg is note_on channel=1 note=64 velocity=100 time=61
the msg is note_on channel=1 note=61 velocity=100 time=0
the msg is note_on channel=1 note=61 velocity=0 time=119
the msg is note_on channel=1 note=64 velocity=0 time=0
the msg is note_on channel=1 note=49 velocity=100 time=31
the msg is note_on channel=1 note=49 velocity=0 time=29
the msg is note_on channel=1 note=49 velocity=100 time=31
the msg is note_on channel=1 note=49 velocity=0 time=29
the msg is note_on channel=1 note=61 velocity=100 time=31
the msg is note_on channel=1 note=64 velocity=100 time=0
the msg is note_on channel=1 note=61 velocity=0 time=29
the msg is note_on channel=1 note=64 velocity=0 time=0
the msg is note_on channel=1 note=63 velocity=100 time=91
the msg is note_on channel=1 note=59 velocity=100 time=0
the msg is note_on channel=1 note=63 velocity=0 time=29
the msg is note_on channel=1 note=59 velocity=0 time=0
the msg is note_on channel=1 note=61 velocity=100 time=61
the msg is note_on channel=1 note=64 velocity=100 time=0
the msg is note_on channel=1 note=64 velocity=0 time=119
the msg is note_on channel=1 note=61 velocity=0 time=0
the msg is note_on channel=1 note=49 velocity=100 time=31
the msg is note_on channel=1 note=49 velocity=0 time=29
the msg is note_on channel=1 note=49 velocity=100 time=31
the msg is note_on channel=1 note=49 velocity=0 time=29
the msg is note_on channel=1 note=61 velocity=100 time=31
the msg is note_on channel=1 note=64 velocity=100 time=0
the msg is note_on channel=1 note=64 velocity=0 time=29
the msg is note_on channel=1 note=61 velocity=0 time=0
the msg is note_on channel=1 note=59 velocity=100 time=91
the msg is note_on channel=1 note=63 velocity=100 time=0
the msg is note_on channel=1 note=59 velocity=0 time=29
the msg is note_on channel=1 note=63 velocity=0 time=0
the msg is note_on channel=1 note=64 velocity=100 time=61
the msg is note_on channel=1 note=61 velocity=100 time=0
the msg is note_on channel=1 note=64 velocity=0 time=119
the msg is note_on channel=1 note=61 velocity=0 time=0
the msg is note_on channel=1 note=49 velocity=100 time=31
the msg is note_on channel=1 note=49 velocity=0 time=29
the msg is note_on channel=1 note=49 velocity=100 time=31
the msg is note_on channel=1 note=49 velocity=0 time=29
the msg is note_on channel=1 note=61 velocity=100 time=31
the msg is note_on channel=1 note=64 velocity=100 time=0
the msg is note_on channel=1 note=64 velocity=0 time=29
the msg is note_on channel=1 note=61 velocity=0 time=0
the msg is note_on channel=1 note=68 velocity=100 time=91
the msg is note_on channel=1 note=68 velocity=0 time=29
the msg is note_on channel=1 note=67 velocity=100 time=1
the msg is note_on channel=1 note=67 velocity=0 time=29
the msg is note_on channel=1 note=66 velocity=100 time=31
the msg is note_on channel=1 note=66 velocity=0 time=29
the msg is note_on channel=1 note=64 velocity=100 time=31
the msg is note_on channel=1 note=64 velocity=0 time=29
the msg is note_on channel=1 note=49 velocity=100 time=61
the msg is note_on channel=1 note=49 velocity=0 time=29
the msg is note_on channel=1 note=49 velocity=100 time=31
the msg is note_on channel=1 note=49 velocity=0 time=29
the msg is note_on channel=1 note=64 velocity=100 time=31
the msg is note_on channel=1 note=61 velocity=100 time=0
the msg is note_on channel=1 note=61 velocity=0 time=29
the msg is note_on channel=1 note=64 velocity=0 time=0
the msg is note_on channel=1 note=63 velocity=100 time=91
the msg is note_on channel=1 note=59 velocity=100 time=0
the msg is note_on channel=1 note=63 velocity=0 time=29
the msg is note_on channel=1 note=59 velocity=0 time=0
the msg is note_on channel=1 note=61 velocity=100 time=61
the msg is note_on channel=1 note=64 velocity=100 time=0
the msg is note_on channel=1 note=61 velocity=0 time=119
the msg is note_on channel=1 note=64 velocity=0 time=0
the msg is note_on channel=1 note=49 velocity=100 time=31
the msg is note_on channel=1 note=49 velocity=0 time=29
the msg is note_on channel=1 note=49 velocity=100 time=31
the msg is note_on channel=1 note=49 velocity=0 time=29
the msg is note_on channel=1 note=61 velocity=100 time=31
the msg is note_on channel=1 note=64 velocity=100 time=0
the msg is note_on channel=1 note=64 velocity=0 time=29
the msg is note_on channel=1 note=61 velocity=0 time=0
the msg is note_on channel=1 note=63 velocity=100 time=91
the msg is note_on channel=1 note=59 velocity=100 time=0
the msg is note_on channel=1 note=63 velocity=0 time=29
the msg is note_on channel=1 note=59 velocity=0 time=0
the msg is note_on channel=1 note=61 velocity=100 time=61
the msg is note_on channel=1 note=64 velocity=100 time=0
the msg is note_on channel=1 note=64 velocity=0 time=119
the msg is note_on channel=1 note=61 velocity=0 time=0
the msg is note_on channel=1 note=49 velocity=100 time=31
the msg is note_on channel=1 note=49 velocity=0 time=29
the msg is note_on channel=1 note=49 velocity=100 time=31
the msg is note_on channel=1 note=49 velocity=0 time=29
the msg is note_on channel=1 note=64 velocity=100 time=31
the msg is note_on channel=1 note=61 velocity=100 time=0
the msg is note_on channel=1 note=61 velocity=0 time=29
the msg is note_on channel=1 note=64 velocity=0 time=0
the msg is note_on channel=1 note=59 velocity=100 time=91
the msg is note_on channel=1 note=63 velocity=100 time=0
the msg is note_on channel=1 note=59 velocity=0 time=29
the msg is note_on channel=1 note=63 velocity=0 time=0
the msg is note_on channel=1 note=64 velocity=100 time=61
the msg is note_on channel=1 note=61 velocity=100 time=0
the msg is note_on channel=1 note=61 velocity=0 time=119
the msg is note_on channel=1 note=64 velocity=0 time=0
the msg is note_on channel=1 note=49 velocity=100 time=31
the msg is note_on channel=1 note=49 velocity=0 time=29
the msg is note_on channel=1 note=49 velocity=100 time=31
the msg is note_on channel=1 note=49 velocity=0 time=29
the msg is note_on channel=1 note=64 velocity=100 time=31
the msg is note_on channel=1 note=61 velocity=100 time=0
the msg is note_on channel=1 note=64 velocity=0 time=29
the msg is note_on channel=1 note=61 velocity=0 time=0
the msg is note_on channel=1 note=68 velocity=100 time=91
the msg is note_on channel=1 note=68 velocity=0 time=29
the msg is note_on channel=1 note=67 velocity=100 time=1
the msg is note_on channel=1 note=67 velocity=0 time=29
the msg is note_on channel=1 note=66 velocity=100 time=31
the msg is note_on channel=1 note=66 velocity=0 time=29
the msg is note_on channel=1 note=64 velocity=100 time=31
the msg is note_on channel=1 note=64 velocity=0 time=29
the msg is note_on channel=1 note=66 velocity=100 time=181
the msg is note_on channel=1 note=66 velocity=0 time=29
the msg is note_on channel=1 note=61 velocity=100 time=91
the msg is note_on channel=1 note=61 velocity=0 time=29
the msg is note_on channel=1 note=61 velocity=100 time=1
the msg is note_on channel=1 note=61 velocity=0 time=29
the msg is note_on channel=1 note=66 velocity=100 time=31
the msg is note_on channel=1 note=66 velocity=0 time=29
the msg is note_on channel=1 note=66 velocity=100 time=31
the msg is note_on channel=1 note=66 velocity=0 time=29
the msg is note_on channel=1 note=66 velocity=100 time=181
the msg is note_on channel=1 note=66 velocity=0 time=29
the msg is note_on channel=1 note=61 velocity=100 time=91
the msg is note_on channel=1 note=61 velocity=0 time=29
the msg is note_on channel=1 note=61 velocity=100 time=1
the msg is note_on channel=1 note=61 velocity=0 time=29
the msg is note_on channel=1 note=66 velocity=100 time=31
the msg is note_on channel=1 note=66 velocity=0 time=29
the msg is note_on channel=1 note=66 velocity=100 time=31
the msg is note_on channel=1 note=66 velocity=0 time=29
the msg is control_change channel=1 control=0 value=8 time=11581
the msg is note_on channel=1 note=49 velocity=100 time=0
the msg is note_on channel=1 note=49 velocity=0 time=29
the msg is note_on channel=1 note=49 velocity=100 time=31
the msg is note_on channel=1 note=49 velocity=0 time=29
the msg is note_on channel=1 note=64 velocity=100 time=31
the msg is note_on channel=1 note=61 velocity=100 time=0
the msg is note_on channel=1 note=64 velocity=0 time=29
the msg is note_on channel=1 note=61 velocity=0 time=0
the msg is note_on channel=1 note=59 velocity=100 time=91
the msg is note_on channel=1 note=63 velocity=100 time=0
the msg is note_on channel=1 note=59 velocity=0 time=29
the msg is note_on channel=1 note=63 velocity=0 time=0
the msg is note_on channel=1 note=61 velocity=100 time=61
the msg is note_on channel=1 note=64 velocity=100 time=0
the msg is note_on channel=1 note=64 velocity=0 time=119
the msg is note_on channel=1 note=61 velocity=0 time=0
the msg is note_on channel=1 note=49 velocity=100 time=31
the msg is note_on channel=1 note=49 velocity=0 time=29
the msg is note_on channel=1 note=49 velocity=100 time=31
the msg is note_on channel=1 note=49 velocity=0 time=29
the msg is note_on channel=1 note=61 velocity=100 time=31
the msg is note_on channel=1 note=64 velocity=100 time=0
the msg is note_on channel=1 note=61 velocity=0 time=29
the msg is note_on channel=1 note=64 velocity=0 time=0
the msg is note_on channel=1 note=59 velocity=100 time=91
the msg is note_on channel=1 note=63 velocity=100 time=0
the msg is note_on channel=1 note=59 velocity=0 time=29
the msg is note_on channel=1 note=63 velocity=0 time=0
the msg is note_on channel=1 note=64 velocity=100 time=61
the msg is note_on channel=1 note=61 velocity=100 time=0
the msg is note_on channel=1 note=64 velocity=0 time=119
the msg is note_on channel=1 note=61 velocity=0 time=0
the msg is note_on channel=1 note=49 velocity=100 time=31
the msg is note_on channel=1 note=49 velocity=0 time=29
the msg is note_on channel=1 note=49 velocity=100 time=31
the msg is note_on channel=1 note=49 velocity=0 time=29
the msg is note_on channel=1 note=64 velocity=100 time=31
the msg is note_on channel=1 note=61 velocity=100 time=0
the msg is note_on channel=1 note=64 velocity=0 time=29
the msg is note_on channel=1 note=61 velocity=0 time=0
the msg is note_on channel=1 note=63 velocity=100 time=91
the msg is note_on channel=1 note=59 velocity=100 time=0
the msg is note_on channel=1 note=59 velocity=0 time=29
the msg is note_on channel=1 note=63 velocity=0 time=0
the msg is note_on channel=1 note=64 velocity=100 time=61
the msg is note_on channel=1 note=61 velocity=100 time=0
the msg is note_on channel=1 note=64 velocity=0 time=119
the msg is note_on channel=1 note=61 velocity=0 time=0
the msg is note_on channel=1 note=49 velocity=100 time=31
the msg is note_on channel=1 note=49 velocity=0 time=29
the msg is note_on channel=1 note=49 velocity=100 time=31
the msg is note_on channel=1 note=49 velocity=0 time=29
the msg is note_on channel=1 note=61 velocity=100 time=31
the msg is note_on channel=1 note=64 velocity=100 time=0
the msg is note_on channel=1 note=61 velocity=0 time=29
the msg is note_on channel=1 note=64 velocity=0 time=0
the msg is note_on channel=1 note=68 velocity=100 time=91
the msg is note_on channel=1 note=68 velocity=0 time=29
the msg is note_on channel=1 note=67 velocity=100 time=1
the msg is note_on channel=1 note=67 velocity=0 time=29
the msg is note_on channel=1 note=66 velocity=100 time=31
the msg is note_on channel=1 note=66 velocity=0 time=29
the msg is note_on channel=1 note=64 velocity=100 time=31
the msg is note_on channel=1 note=64 velocity=0 time=29
the msg is note_on channel=1 note=49 velocity=100 time=61
the msg is note_on channel=1 note=49 velocity=0 time=29
the msg is note_on channel=1 note=49 velocity=100 time=31
the msg is note_on channel=1 note=49 velocity=0 time=29
the msg is note_on channel=1 note=64 velocity=100 time=31
the msg is note_on channel=1 note=61 velocity=100 time=0
the msg is note_on channel=1 note=61 velocity=0 time=29
the msg is note_on channel=1 note=64 velocity=0 time=0
the msg is note_on channel=1 note=63 velocity=100 time=91
the msg is note_on channel=1 note=59 velocity=100 time=0
the msg is note_on channel=1 note=59 velocity=0 time=29
the msg is note_on channel=1 note=63 velocity=0 time=0
the msg is note_on channel=1 note=61 velocity=100 time=61
the msg is note_on channel=1 note=64 velocity=100 time=0
the msg is note_on channel=1 note=64 velocity=0 time=119
the msg is note_on channel=1 note=61 velocity=0 time=0
the msg is note_on channel=1 note=49 velocity=100 time=31
the msg is note_on channel=1 note=49 velocity=0 time=29
the msg is note_on channel=1 note=49 velocity=100 time=31
the msg is note_on channel=1 note=49 velocity=0 time=29
the msg is note_on channel=1 note=61 velocity=100 time=31
the msg is note_on channel=1 note=64 velocity=100 time=0
the msg is note_on channel=1 note=64 velocity=0 time=29
the msg is note_on channel=1 note=61 velocity=0 time=0
the msg is note_on channel=1 note=63 velocity=100 time=91
the msg is note_on channel=1 note=59 velocity=100 time=0
the msg is note_on channel=1 note=63 velocity=0 time=29
the msg is note_on channel=1 note=59 velocity=0 time=0
the msg is note_on channel=1 note=64 velocity=100 time=61
the msg is note_on channel=1 note=61 velocity=100 time=0
the msg is note_on channel=1 note=64 velocity=0 time=119
the msg is note_on channel=1 note=61 velocity=0 time=0
the msg is note_on channel=1 note=49 velocity=100 time=31
the msg is note_on channel=1 note=49 velocity=0 time=29
the msg is note_on channel=1 note=49 velocity=100 time=31
the msg is note_on channel=1 note=49 velocity=0 time=29
the msg is note_on channel=1 note=64 velocity=100 time=31
the msg is note_on channel=1 note=61 velocity=100 time=0
the msg is note_on channel=1 note=64 velocity=0 time=29
the msg is note_on channel=1 note=61 velocity=0 time=0
the msg is note_on channel=1 note=59 velocity=100 time=91
the msg is note_on channel=1 note=63 velocity=100 time=0
the msg is note_on channel=1 note=63 velocity=0 time=29
the msg is note_on channel=1 note=59 velocity=0 time=0
the msg is note_on channel=1 note=64 velocity=100 time=61
the msg is note_on channel=1 note=61 velocity=100 time=0
the msg is note_on channel=1 note=64 velocity=0 time=119
the msg is note_on channel=1 note=61 velocity=0 time=0
the msg is note_on channel=1 note=49 velocity=100 time=31
the msg is note_on channel=1 note=49 velocity=0 time=29
the msg is note_on channel=1 note=49 velocity=100 time=31
the msg is note_on channel=1 note=49 velocity=0 time=29
the msg is note_on channel=1 note=64 velocity=100 time=31
the msg is note_on channel=1 note=61 velocity=100 time=0
the msg is note_on channel=1 note=61 velocity=0 time=29
the msg is note_on channel=1 note=64 velocity=0 time=0
the msg is note_on channel=1 note=68 velocity=100 time=91
the msg is note_on channel=1 note=68 velocity=0 time=29
the msg is note_on channel=1 note=67 velocity=100 time=1
the msg is note_on channel=1 note=67 velocity=0 time=29
the msg is note_on channel=1 note=66 velocity=100 time=31
the msg is note_on channel=1 note=66 velocity=0 time=29
the msg is note_on channel=1 note=64 velocity=100 time=31
the msg is note_on channel=1 note=64 velocity=0 time=29
the msg is note_on channel=1 note=49 velocity=100 time=61
the msg is note_on channel=1 note=49 velocity=0 time=29
the msg is note_on channel=1 note=49 velocity=100 time=31
the msg is note_on channel=1 note=49 velocity=0 time=29
the msg is note_on channel=1 note=64 velocity=100 time=31
the msg is note_on channel=1 note=61 velocity=100 time=0
the msg is note_on channel=1 note=61 velocity=0 time=29
the msg is note_on channel=1 note=64 velocity=0 time=0
the msg is note_on channel=1 note=63 velocity=100 time=91
the msg is note_on channel=1 note=59 velocity=100 time=0
the msg is note_on channel=1 note=59 velocity=0 time=29
the msg is note_on channel=1 note=63 velocity=0 time=0
the msg is note_on channel=1 note=61 velocity=100 time=61
the msg is note_on channel=1 note=64 velocity=100 time=0
the msg is note_on channel=1 note=64 velocity=0 time=119
the msg is note_on channel=1 note=61 velocity=0 time=0
the msg is note_on channel=1 note=49 velocity=100 time=31
the msg is note_on channel=1 note=49 velocity=0 time=29
the msg is note_on channel=1 note=49 velocity=100 time=31
the msg is note_on channel=1 note=49 velocity=0 time=29
the msg is note_on channel=1 note=61 velocity=100 time=31
the msg is note_on channel=1 note=64 velocity=100 time=0
the msg is note_on channel=1 note=64 velocity=0 time=29
the msg is note_on channel=1 note=61 velocity=0 time=0
the msg is note_on channel=1 note=59 velocity=100 time=91
the msg is note_on channel=1 note=63 velocity=100 time=0
the msg is note_on channel=1 note=63 velocity=0 time=29
the msg is note_on channel=1 note=59 velocity=0 time=0
the msg is note_on channel=1 note=61 velocity=100 time=61
the msg is note_on channel=1 note=64 velocity=100 time=0
the msg is note_on channel=1 note=64 velocity=0 time=119
the msg is note_on channel=1 note=61 velocity=0 time=0
the msg is note_on channel=1 note=49 velocity=100 time=31
the msg is note_on channel=1 note=49 velocity=0 time=29
the msg is note_on channel=1 note=49 velocity=100 time=31
the msg is note_on channel=1 note=49 velocity=0 time=29
the msg is note_on channel=1 note=64 velocity=100 time=31
the msg is note_on channel=1 note=61 velocity=100 time=0
the msg is note_on channel=1 note=61 velocity=0 time=29
the msg is note_on channel=1 note=64 velocity=0 time=0
the msg is note_on channel=1 note=63 velocity=100 time=91
the msg is note_on channel=1 note=59 velocity=100 time=0
the msg is note_on channel=1 note=59 velocity=0 time=29
the msg is note_on channel=1 note=63 velocity=0 time=0
the msg is note_on channel=1 note=61 velocity=100 time=61
the msg is note_on channel=1 note=64 velocity=100 time=0
the msg is note_on channel=1 note=64 velocity=0 time=119
the msg is note_on channel=1 note=61 velocity=0 time=0
the msg is note_on channel=1 note=49 velocity=100 time=31
the msg is note_on channel=1 note=49 velocity=0 time=29
the msg is note_on channel=1 note=49 velocity=100 time=31
the msg is note_on channel=1 note=49 velocity=0 time=29
the msg is note_on channel=1 note=64 velocity=100 time=31
the msg is note_on channel=1 note=61 velocity=100 time=0
the msg is note_on channel=1 note=61 velocity=0 time=29
the msg is note_on channel=1 note=64 velocity=0 time=0
the msg is note_on channel=1 note=68 velocity=100 time=91
the msg is note_on channel=1 note=68 velocity=0 time=29
the msg is note_on channel=1 note=67 velocity=100 time=1
the msg is note_on channel=1 note=67 velocity=0 time=29
the msg is note_on channel=1 note=66 velocity=100 time=31
the msg is note_on channel=1 note=66 velocity=0 time=29
the msg is note_on channel=1 note=64 velocity=100 time=31
the msg is note_on channel=1 note=64 velocity=0 time=29
the msg is note_on channel=1 note=66 velocity=100 time=181
the msg is note_on channel=1 note=66 velocity=0 time=29
the msg is note_on channel=1 note=61 velocity=100 time=91
the msg is note_on channel=1 note=61 velocity=0 time=29
the msg is note_on channel=1 note=61 velocity=100 time=1
the msg is note_on channel=1 note=61 velocity=0 time=29
the msg is note_on channel=1 note=66 velocity=100 time=31
the msg is note_on channel=1 note=66 velocity=0 time=29
the msg is note_on channel=1 note=66 velocity=100 time=31
the msg is note_on channel=1 note=66 velocity=0 time=29
the msg is note_on channel=1 note=66 velocity=100 time=181
the msg is note_on channel=1 note=66 velocity=0 time=29
the msg is note_on channel=1 note=61 velocity=100 time=91
the msg is note_on channel=1 note=61 velocity=0 time=29
the msg is note_on channel=1 note=61 velocity=100 time=1
the msg is note_on channel=1 note=61 velocity=0 time=29
the msg is note_on channel=1 note=66 velocity=100 time=31
the msg is note_on channel=1 note=66 velocity=0 time=29
the msg is note_on channel=1 note=66 velocity=100 time=31
the msg is note_on channel=1 note=66 velocity=0 time=29
the msg is note_on channel=1 note=49 velocity=100 time=11581
the msg is control_change channel=1 control=0 value=8 time=0
the msg is note_on channel=1 note=49 velocity=0 time=29
the msg is note_on channel=1 note=49 velocity=100 time=31
the msg is note_on channel=1 note=49 velocity=0 time=29
the msg is note_on channel=1 note=61 velocity=100 time=31
the msg is note_on channel=1 note=64 velocity=100 time=0
the msg is note_on channel=1 note=61 velocity=0 time=29
the msg is note_on channel=1 note=64 velocity=0 time=0
the msg is note_on channel=1 note=63 velocity=100 time=91
the msg is note_on channel=1 note=59 velocity=100 time=0
the msg is note_on channel=1 note=63 velocity=0 time=29
the msg is note_on channel=1 note=59 velocity=0 time=0
the msg is note_on channel=1 note=64 velocity=100 time=61
the msg is note_on channel=1 note=61 velocity=100 time=0
the msg is note_on channel=1 note=64 velocity=0 time=119
the msg is note_on channel=1 note=61 velocity=0 time=0
the msg is note_on channel=1 note=49 velocity=100 time=31
the msg is note_on channel=1 note=49 velocity=0 time=29
the msg is note_on channel=1 note=49 velocity=100 time=31
the msg is note_on channel=1 note=49 velocity=0 time=29
the msg is note_on channel=1 note=61 velocity=100 time=31
the msg is note_on channel=1 note=64 velocity=100 time=0
the msg is note_on channel=1 note=61 velocity=0 time=29
the msg is note_on channel=1 note=64 velocity=0 time=0
the msg is note_on channel=1 note=63 velocity=100 time=91
the msg is note_on channel=1 note=59 velocity=100 time=0
the msg is note_on channel=1 note=63 velocity=0 time=29
the msg is note_on channel=1 note=59 velocity=0 time=0
the msg is note_on channel=1 note=61 velocity=100 time=61
the msg is note_on channel=1 note=64 velocity=100 time=0
the msg is note_on channel=1 note=61 velocity=0 time=119
the msg is note_on channel=1 note=64 velocity=0 time=0
the msg is note_on channel=1 note=49 velocity=100 time=31
the msg is note_on channel=1 note=49 velocity=0 time=29
the msg is note_on channel=1 note=49 velocity=100 time=31
the msg is note_on channel=1 note=49 velocity=0 time=29
the msg is note_on channel=1 note=64 velocity=100 time=31
the msg is note_on channel=1 note=61 velocity=100 time=0
the msg is note_on channel=1 note=64 velocity=0 time=29
the msg is note_on channel=1 note=61 velocity=0 time=0
the msg is note_on channel=1 note=63 velocity=100 time=91
the msg is note_on channel=1 note=59 velocity=100 time=0
the msg is note_on channel=1 note=63 velocity=0 time=29
the msg is note_on channel=1 note=59 velocity=0 time=0
the msg is note_on channel=1 note=61 velocity=100 time=61
the msg is note_on channel=1 note=64 velocity=100 time=0
the msg is note_on channel=1 note=61 velocity=0 time=119
the msg is note_on channel=1 note=64 velocity=0 time=0
the msg is control_change channel=1 control=11 value=125 time=7
the msg is control_change channel=1 control=11 value=127 time=8
the msg is note_on channel=1 note=49 velocity=100 time=16
the msg is note_on channel=1 note=49 velocity=0 time=29
the msg is control_change channel=1 control=11 value=126 time=19
the msg is control_change channel=1 control=11 value=125 time=8
the msg is note_on channel=1 note=49 velocity=100 time=4
the msg is control_change channel=1 control=11 value=124 time=12
the msg is control_change channel=1 control=11 value=123 time=16
the msg is note_on channel=1 note=49 velocity=0 time=1
the msg is control_change channel=1 control=11 value=122 time=23
the msg is note_on channel=1 note=64 velocity=100 time=8
the msg is note_on channel=1 note=61 velocity=100 time=0
the msg is control_change channel=1 control=11 value=121 time=16
the msg is note_on channel=1 note=64 velocity=0 time=13
the msg is note_on channel=1 note=61 velocity=0 time=0
the msg is control_change channel=1 control=11 value=120 time=3
the msg is control_change channel=1 control=11 value=119 time=16
the msg is control_change channel=1 control=11 value=118 time=8
the msg is control_change channel=1 control=11 value=117 time=16
the msg is control_change channel=1 control=11 value=116 time=16
the msg is control_change channel=1 control=11 value=115 time=32
the msg is note_on channel=1 note=68 velocity=100 time=0
the msg is note_on channel=1 note=68 velocity=0 time=29
the msg is note_on channel=1 note=67 velocity=100 time=1
the msg is control_change channel=1 control=11 value=114 time=18
the msg is note_on channel=1 note=67 velocity=0 time=11
the msg is control_change channel=1 control=11 value=113 time=5
the msg is control_change channel=1 control=11 value=112 time=16
the msg is control_change channel=1 control=11 value=111 time=8
the msg is note_on channel=1 note=66 velocity=100 time=2
the msg is control_change channel=1 control=11 value=110 time=6
the msg is control_change channel=1 control=11 value=109 time=8
the msg is control_change channel=1 control=11 value=108 time=8
the msg is note_on channel=1 note=66 velocity=0 time=7
the msg is control_change channel=1 control=11 value=107 time=1
the msg is control_change channel=1 control=11 value=106 time=8
the msg is control_change channel=1 control=11 value=105 time=16
the msg is note_on channel=1 note=64 velocity=100 time=6
the msg is control_change channel=1 control=11 value=104 time=2
the msg is control_change channel=1 control=11 value=103 time=8
the msg is control_change channel=1 control=11 value=102 time=16
the msg is note_on channel=1 note=64 velocity=0 time=3
the msg is control_change channel=1 control=11 value=101 time=21
the msg is control_change channel=1 control=11 value=100 time=16
the msg is control_change channel=1 control=11 value=99 time=16
the msg is note_on channel=1 note=49 velocity=100 time=8
the msg is control_change channel=1 control=11 value=98 time=16
the msg is note_on channel=1 note=49 velocity=0 time=13
the msg is control_change channel=1 control=11 value=97 time=11
the msg is control_change channel=1 control=11 value=96 time=16
the msg is note_on channel=1 note=49 velocity=100 time=4
the msg is control_change channel=1 control=11 value=95 time=12
the msg is note_on channel=1 note=49 velocity=0 time=17
the msg is note_on channel=1 note=64 velocity=100 time=31
the msg is note_on channel=1 note=61 velocity=100 time=0
the msg is note_on channel=1 note=64 velocity=0 time=29
the msg is note_on channel=1 note=61 velocity=0 time=0
the msg is control_change channel=1 control=11 value=93 time=19
the msg is control_change channel=1 control=11 value=92 time=16
the msg is control_change channel=1 control=11 value=91 time=8
the msg is control_change channel=1 control=11 value=90 time=8
the msg is control_change channel=1 control=11 value=88 time=8
the msg is control_change channel=1 control=11 value=87 time=8
the msg is control_change channel=1 control=11 value=86 time=16
the msg is note_on channel=1 note=59 velocity=100 time=8
the msg is note_on channel=1 note=63 velocity=100 time=0
the msg is control_change channel=1 control=11 value=85 time=0
the msg is control_change channel=1 control=11 value=84 time=8
the msg is control_change channel=1 control=11 value=83 time=8
the msg is control_change channel=1 control=11 value=82 time=8
the msg is note_on channel=1 note=59 velocity=0 time=5
the msg is note_on channel=1 note=63 velocity=0 time=0
the msg is control_change channel=1 control=11 value=81 time=3
the msg is control_change channel=1 control=11 value=80 time=8
the msg is control_change channel=1 control=11 value=78 time=24
the msg is control_change channel=1 control=11 value=77 time=8
the msg is note_on channel=1 note=64 velocity=100 time=18
the msg is note_on channel=1 note=61 velocity=100 time=0
the msg is control_change channel=1 control=11 value=76 time=22
the msg is control_change channel=1 control=11 value=75 time=16
the msg is control_change channel=1 control=11 value=74 time=16
the msg is control_change channel=1 control=11 value=73 time=16
the msg is control_change channel=1 control=11 value=72 time=8
the msg is control_change channel=1 control=11 value=71 time=8
the msg is control_change channel=1 control=11 value=70 time=8
the msg is control_change channel=1 control=11 value=69 time=8
the msg is control_change channel=1 control=11 value=68 time=8
the msg is control_change channel=1 control=11 value=67 time=8
the msg is note_on channel=1 note=61 velocity=0 time=1
the msg is note_on channel=1 note=64 velocity=0 time=0
the msg is control_change channel=1 control=11 value=66 time=7
the msg is control_change channel=1 control=11 value=65 time=8
the msg is control_change channel=1 control=11 value=64 time=8
the msg is control_change channel=1 control=11 value=62 time=8
the msg is note_on channel=1 note=49 velocity=100 time=0
the msg is control_change channel=1 control=11 value=61 time=8
the msg is control_change channel=1 control=11 value=60 time=16
the msg is note_on channel=1 note=49 velocity=0 time=5
the msg is control_change channel=1 control=11 value=59 time=3
the msg is control_change channel=1 control=11 value=57 time=16
the msg is note_on channel=1 note=49 velocity=100 time=12
the msg is control_change channel=1 control=11 value=55 time=4
the msg is control_change channel=1 control=11 value=54 time=8
the msg is control_change channel=1 control=11 value=53 time=8
the msg is note_on channel=1 note=49 velocity=0 time=9
the msg is control_change channel=1 control=11 value=52 time=15
the msg is note_on channel=1 note=61 velocity=100 time=16
the msg is note_on channel=1 note=64 velocity=100 time=0
the msg is note_on channel=1 note=64 velocity=0 time=29
the msg is note_on channel=1 note=61 velocity=0 time=0
the msg is control_change channel=1 control=11 value=51 time=3
the msg is control_change channel=1 control=11 value=50 time=32
the msg is control_change channel=1 control=11 value=49 time=16
the msg is control_change channel=1 control=11 value=48 time=16
the msg is note_on channel=1 note=59 velocity=100 time=24
the msg is note_on channel=1 note=63 velocity=100 time=0
the msg is control_change channel=1 control=11 value=47 time=0
the msg is control_change channel=1 control=11 value=46 time=24
the msg is note_on channel=1 note=59 velocity=0 time=5
the msg is note_on channel=1 note=63 velocity=0 time=0
the msg is control_change channel=1 control=11 value=45 time=3
the msg is control_change channel=1 control=11 value=44 time=8
the msg is control_change channel=1 control=11 value=43 time=24
the msg is control_change channel=1 control=11 value=42 time=24
the msg is note_on channel=1 note=61 velocity=100 time=2
the msg is note_on channel=1 note=64 velocity=100 time=0
the msg is control_change channel=1 control=11 value=41 time=14
the msg is control_change channel=1 control=11 value=40 time=8
the msg is control_change channel=1 control=11 value=39 time=24
the msg is control_change channel=1 control=11 value=38 time=8
the msg is control_change channel=1 control=11 value=37 time=16
the msg is control_change channel=1 control=11 value=36 time=8
the msg is control_change channel=1 control=11 value=35 time=24
the msg is control_change channel=1 control=11 value=34 time=8
the msg is note_on channel=1 note=64 velocity=0 time=9
the msg is note_on channel=1 note=61 velocity=0 time=0
the msg is control_change channel=1 control=11 value=33 time=15
the msg is note_on channel=1 note=49 velocity=100 time=16
the msg is control_change channel=1 control=11 value=32 time=8
the msg is control_change channel=1 control=11 value=31 time=16
the msg is note_on channel=1 note=49 velocity=0 time=5
the msg is control_change channel=1 control=11 value=29 time=19
the msg is note_on channel=1 note=49 velocity=100 time=12
the msg is control_change channel=1 control=11 value=28 time=12
the msg is control_change channel=1 control=11 value=27 time=8
the msg is control_change channel=1 control=11 value=26 time=8
the msg is note_on channel=1 note=49 velocity=0 time=1
the msg is control_change channel=1 control=11 value=25 time=23
the msg is control_change channel=1 control=11 value=24 time=8
the msg is note_on channel=1 note=64 velocity=100 time=0
the msg is note_on channel=1 note=61 velocity=100 time=0
the msg is control_change channel=1 control=11 value=23 time=8
the msg is note_on channel=1 note=61 velocity=0 time=21
the msg is note_on channel=1 note=64 velocity=0 time=0
the msg is control_change channel=1 control=11 value=21 time=11
the msg is control_change channel=1 control=11 value=20 time=8
the msg is control_change channel=1 control=11 value=19 time=32
the msg is control_change channel=1 control=11 value=18 time=24
the msg is control_change channel=1 control=11 value=17 time=8
the msg is control_change channel=1 control=11 value=16 time=8
the msg is note_on channel=1 note=59 velocity=100 time=0
the msg is note_on channel=1 note=63 velocity=100 time=0
the msg is control_change channel=1 control=11 value=15 time=8
the msg is control_change channel=1 control=11 value=14 time=16
the msg is note_on channel=1 note=59 velocity=0 time=5
the msg is note_on channel=1 note=63 velocity=0 time=0
the msg is control_change channel=1 control=11 value=13 time=3
the msg is control_change channel=1 control=11 value=12 time=32
the msg is control_change channel=1 control=11 value=11 time=8
the msg is note_on channel=1 note=64 velocity=100 time=18
the msg is note_on channel=1 note=61 velocity=100 time=0
the msg is control_change channel=1 control=11 value=10 time=6
the msg is control_change channel=1 control=11 value=9 time=16
the msg is control_change channel=1 control=11 value=8 time=8
the msg is control_change channel=1 control=11 value=7 time=16
the msg is control_change channel=1 control=11 value=6 time=24
the msg is control_change channel=1 control=11 value=5 time=16
the msg is control_change channel=1 control=11 value=4 time=8
the msg is control_change channel=1 control=11 value=3 time=16
the msg is note_on channel=1 note=61 velocity=0 time=9
the msg is note_on channel=1 note=64 velocity=0 time=0
the msg is control_change channel=1 control=11 value=2 time=15
the msg is control_change channel=1 control=11 value=1 time=8
the msg is note_on channel=1 note=49 velocity=100 time=8
the msg is control_change channel=1 control=11 value=0 time=8
the msg is note_on channel=1 note=49 velocity=0 time=21
the msg is <meta message end_of_track time=0>
the msg is control_change channel=2 control=0 value=0 time=0
the msg is program_change channel=2 program=29 time=0
the msg is <meta message sequencer_specific data=(74, 65, 90, 50, 1, 0, 0, 0, 0, 0, 0, 0, 0, 0, 0, 0, 0, 0, 0, 0) time=0>
the msg is <meta message midi_port port=0 time=0>
the msg is <meta message track_name name='Melody' time=0>
the msg is pitchwheel channel=2 pitch=-3509 time=1912
the msg is note_on channel=2 note=71 velocity=127 time=8
the msg is pitchwheel channel=2 pitch=-3386 time=0
the msg is pitchwheel channel=2 pitch=-3140 time=8
the msg is pitchwheel channel=2 pitch=-3017 time=8
the msg is pitchwheel channel=2 pitch=-2647 time=8
the msg is pitchwheel channel=2 pitch=-2278 time=8
the msg is pitchwheel channel=2 pitch=-1785 time=8
the msg is pitchwheel channel=2 pitch=-1292 time=8
the msg is pitchwheel channel=2 pitch=-1046 time=8
the msg is pitchwheel channel=2 pitch=-800 time=8
the msg is pitchwheel channel=2 pitch=-430 time=8
the msg is pitchwheel channel=2 pitch=-61 time=8
the msg is pitchwheel channel=2 pitch=62 time=8
the msg is pitchwheel channel=2 pitch=0 time=8
the msg is note_on channel=2 note=71 velocity=0 time=23
the msg is note_on channel=2 note=70 velocity=127 time=1
the msg is note_on channel=2 note=70 velocity=0 time=59
the msg is note_on channel=2 note=68 velocity=127 time=1
the msg is note_on channel=2 note=68 velocity=0 time=59
the msg is note_on channel=2 note=66 velocity=127 time=1
the msg is note_on channel=2 note=66 velocity=0 time=119
the msg is note_on channel=2 note=68 velocity=127 time=1
the msg is note_on channel=2 note=68 velocity=0 time=59
the msg is note_on channel=2 note=64 velocity=127 time=1
the msg is pitchwheel channel=2 pitch=5604 time=60
the msg is pitchwheel channel=2 pitch=0 time=32
the msg is pitchwheel channel=2 pitch=4989 time=32
the msg is pitchwheel channel=2 pitch=0 time=16
the msg is pitchwheel channel=2 pitch=4989 time=40
the msg is pitchwheel channel=2 pitch=0 time=16
the msg is note_on channel=2 note=64 velocity=0 time=43
the msg is note_on channel=2 note=61 velocity=127 time=1
the msg is note_on channel=2 note=61 velocity=0 time=59
the msg is note_on channel=2 note=64 velocity=127 time=1
the msg is note_on channel=2 note=64 velocity=0 time=59
the msg is note_on channel=2 note=66 velocity=127 time=1
the msg is note_on channel=2 note=66 velocity=0 time=119
the msg is note_on channel=2 note=68 velocity=127 time=1
the msg is pitchwheel channel=2 pitch=-4495 time=4
the msg is pitchwheel channel=2 pitch=-4248 time=8
the msg is pitchwheel channel=2 pitch=-4002 time=8
the msg is pitchwheel channel=2 pitch=-3879 time=8
the msg is pitchwheel channel=2 pitch=-3756 time=8
the msg is pitchwheel channel=2 pitch=-3633 time=8
the msg is pitchwheel channel=2 pitch=-3386 time=8
the msg is pitchwheel channel=2 pitch=-3263 time=8
the msg is pitchwheel channel=2 pitch=-3017 time=8
the msg is pitchwheel channel=2 pitch=-2894 time=8
the msg is pitchwheel channel=2 pitch=-2647 time=8
the msg is pitchwheel channel=2 pitch=-2401 time=8
the msg is pitchwheel channel=2 pitch=-2155 time=8
the msg is pitchwheel channel=2 pitch=-2031 time=8
the msg is pitchwheel channel=2 pitch=-1908 time=8
the msg is pitchwheel channel=2 pitch=-1662 time=8
the msg is pitchwheel channel=2 pitch=-1292 time=8
the msg is pitchwheel channel=2 pitch=-1046 time=8
the msg is pitchwheel channel=2 pitch=-553 time=8
the msg is pitchwheel channel=2 pitch=0 time=8
the msg is note_on channel=2 note=68 velocity=0 time=23
the msg is note_on channel=2 note=66 velocity=127 time=1
the msg is pitchwheel channel=2 pitch=5851 time=40
the msg is pitchwheel channel=2 pitch=0 time=24
the msg is pitchwheel channel=2 pitch=5481 time=32
the msg is pitchwheel channel=2 pitch=0 time=16
the msg is pitchwheel channel=2 pitch=5481 time=32
the msg is pitchwheel channel=2 pitch=0 time=16
the msg is pitchwheel channel=2 pitch=5481 time=24
the msg is pitchwheel channel=2 pitch=0 time=16
the msg is note_on channel=2 note=66 velocity=0 time=39
the msg is note_on channel=2 note=59 velocity=127 time=1
the msg is control_change channel=2 control=1 value=127 time=56
the msg is note_on channel=2 note=59 velocity=0 time=3
the msg is note_on channel=2 note=61 velocity=127 time=1
the msg is control_change channel=2 control=1 value=124 time=340
the msg is control_change channel=2 control=1 value=123 time=8
the msg is control_change channel=2 control=1 value=120 time=8
the msg is control_change channel=2 control=1 value=115 time=8
the msg is control_change channel=2 control=1 value=111 time=8
the msg is control_change channel=2 control=1 value=108 time=8
the msg is control_change channel=2 control=1 value=105 time=8
the msg is control_change channel=2 control=1 value=102 time=8
the msg is control_change channel=2 control=1 value=97 time=8
the msg is control_change channel=2 control=1 value=94 time=8
the msg is control_change channel=2 control=1 value=89 time=8
the msg is control_change channel=2 control=1 value=87 time=8
the msg is control_change channel=2 control=1 value=82 time=8
the msg is control_change channel=2 control=1 value=79 time=8
the msg is control_change channel=2 control=1 value=75 time=8
the msg is control_change channel=2 control=1 value=72 time=8
the msg is control_change channel=2 control=1 value=69 time=8
the msg is control_change channel=2 control=1 value=66 time=8
the msg is control_change channel=2 control=1 value=64 time=8
the msg is control_change channel=2 control=1 value=61 time=8
the msg is control_change channel=2 control=1 value=58 time=8
the msg is control_change channel=2 control=1 value=53 time=8
the msg is control_change channel=2 control=1 value=48 time=8
the msg is control_change channel=2 control=1 value=46 time=8
the msg is note_on channel=2 note=61 velocity=0 time=15
the msg is control_change channel=2 control=1 value=0 time=1
the msg is note_on channel=2 note=71 velocity=127 time=0
the msg is pitchwheel channel=2 pitch=-3509 time=0
the msg is pitchwheel channel=2 pitch=-3263 time=8
the msg is pitchwheel channel=2 pitch=-3140 time=8
the msg is pitchwheel channel=2 pitch=-2894 time=8
the msg is pitchwheel channel=2 pitch=-2647 time=8
the msg is pitchwheel channel=2 pitch=-2401 time=8
the msg is pitchwheel channel=2 pitch=-1908 time=8
the msg is pitchwheel channel=2 pitch=-1539 time=8
the msg is pitchwheel channel=2 pitch=-1169 time=8
the msg is pitchwheel channel=2 pitch=-923 time=8
the msg is pitchwheel channel=2 pitch=-553 time=8
the msg is pitchwheel channel=2 pitch=-184 time=8
the msg is pitchwheel channel=2 pitch=-61 time=8
the msg is pitchwheel channel=2 pitch=0 time=8
the msg is note_on channel=2 note=71 velocity=0 time=15
the msg is note_on channel=2 note=70 velocity=127 time=1
the msg is note_on channel=2 note=70 velocity=0 time=59
the msg is note_on channel=2 note=68 velocity=127 time=1
the msg is note_on channel=2 note=68 velocity=0 time=59
the msg is note_on channel=2 note=66 velocity=127 time=1
the msg is note_on channel=2 note=66 velocity=0 time=119
the msg is note_on channel=2 note=68 velocity=127 time=1
the msg is note_on channel=2 note=68 velocity=0 time=59
the msg is note_on channel=2 note=64 velocity=127 time=1
the msg is pitchwheel channel=2 pitch=5481 time=60
the msg is pitchwheel channel=2 pitch=0 time=24
the msg is pitchwheel channel=2 pitch=4989 time=40
the msg is pitchwheel channel=2 pitch=0 time=16
the msg is pitchwheel channel=2 pitch=4989 time=40
the msg is pitchwheel channel=2 pitch=0 time=16
the msg is note_on channel=2 note=64 velocity=0 time=43
the msg is note_on channel=2 note=61 velocity=127 time=1
the msg is note_on channel=2 note=61 velocity=0 time=59
the msg is note_on channel=2 note=64 velocity=127 time=1
the msg is note_on channel=2 note=64 velocity=0 time=59
the msg is note_on channel=2 note=66 velocity=127 time=1
the msg is note_on channel=2 note=66 velocity=0 time=119
the msg is note_on channel=2 note=68 velocity=127 time=1
the msg is pitchwheel channel=2 pitch=-4002 time=4
the msg is pitchwheel channel=2 pitch=-3879 time=8
the msg is pitchwheel channel=2 pitch=-3756 time=8
the msg is pitchwheel channel=2 pitch=-3386 time=8
the msg is pitchwheel channel=2 pitch=-3140 time=8
the msg is pitchwheel channel=2 pitch=-2894 time=8
the msg is pitchwheel channel=2 pitch=-2647 time=8
the msg is pitchwheel channel=2 pitch=-2524 time=8
the msg is pitchwheel channel=2 pitch=-2401 time=8
the msg is pitchwheel channel=2 pitch=-2278 time=8
the msg is pitchwheel channel=2 pitch=-2031 time=8
the msg is pitchwheel channel=2 pitch=-1908 time=8
the msg is pitchwheel channel=2 pitch=-1785 time=8
the msg is pitchwheel channel=2 pitch=-1539 time=8
the msg is pitchwheel channel=2 pitch=-1169 time=16
the msg is pitchwheel channel=2 pitch=-676 time=8
the msg is pitchwheel channel=2 pitch=-307 time=8
the msg is pitchwheel channel=2 pitch=62 time=8
the msg is pitchwheel channel=2 pitch=0 time=16
the msg is note_on channel=2 note=68 velocity=0 time=15
the msg is note_on channel=2 note=66 velocity=127 time=1
the msg is pitchwheel channel=2 pitch=5851 time=40
the msg is pitchwheel channel=2 pitch=0 time=24
the msg is pitchwheel channel=2 pitch=5481 time=32
the msg is pitchwheel channel=2 pitch=0 time=16
the msg is pitchwheel channel=2 pitch=5481 time=32
the msg is pitchwheel channel=2 pitch=0 time=16
the msg is pitchwheel channel=2 pitch=5481 time=24
the msg is pitchwheel channel=2 pitch=0 time=16
the msg is note_on channel=2 note=66 velocity=0 time=99
the msg is note_on channel=2 note=59 velocity=127 time=1
the msg is note_on channel=2 note=59 velocity=0 time=59
the msg is note_on channel=2 note=64 velocity=127 time=1
the msg is note_on channel=2 note=64 velocity=0 time=59
the msg is note_on channel=2 note=61 velocity=127 time=1
the msg is pitchwheel channel=2 pitch=4126 time=84
the msg is pitchwheel channel=2 pitch=0 time=32
the msg is note_on channel=2 note=61 velocity=0 time=123
the msg is note_on channel=2 note=64 velocity=127 time=1
the msg is note_on channel=2 note=64 velocity=0 time=59
the msg is note_on channel=2 note=66 velocity=127 time=1
the msg is control_change channel=2 control=1 value=127 time=40
the msg is note_on channel=2 note=66 velocity=0 time=19
the msg is note_on channel=2 note=66 velocity=127 time=1
the msg is control_change channel=2 control=1 value=126 time=404
the msg is control_change channel=2 control=1 value=124 time=8
the msg is control_change channel=2 control=1 value=123 time=24
the msg is control_change channel=2 control=1 value=121 time=8
the msg is control_change channel=2 control=1 value=120 time=16
the msg is control_change channel=2 control=1 value=118 time=16
the msg is control_change channel=2 control=1 value=117 time=24
the msg is control_change channel=2 control=1 value=115 time=8
the msg is control_change channel=2 control=1 value=114 time=8
the msg is control_change channel=2 control=1 value=113 time=8
the msg is control_change channel=2 control=1 value=111 time=8
the msg is control_change channel=2 control=1 value=110 time=8
the msg is control_change channel=2 control=1 value=108 time=16
the msg is control_change channel=2 control=1 value=107 time=16
the msg is control_change channel=2 control=1 value=104 time=8
the msg is control_change channel=2 control=1 value=102 time=8
the msg is control_change channel=2 control=1 value=100 time=8
the msg is control_change channel=2 control=1 value=97 time=8
the msg is control_change channel=2 control=1 value=94 time=8
the msg is control_change channel=2 control=1 value=91 time=8
the msg is control_change channel=2 control=1 value=89 time=8
the msg is control_change channel=2 control=1 value=87 time=8
the msg is control_change channel=2 control=1 value=84 time=8
the msg is control_change channel=2 control=1 value=82 time=8
the msg is control_change channel=2 control=1 value=81 time=8
the msg is control_change channel=2 control=1 value=79 time=8
the msg is control_change channel=2 control=1 value=78 time=8
the msg is control_change channel=2 control=1 value=76 time=8
the msg is control_change channel=2 control=1 value=75 time=8
the msg is control_change channel=2 control=1 value=74 time=8
the msg is control_change channel=2 control=1 value=72 time=8
the msg is control_change channel=2 control=1 value=71 time=8
the msg is control_change channel=2 control=1 value=68 time=8
the msg is control_change channel=2 control=1 value=66 time=8
the msg is control_change channel=2 control=1 value=65 time=8
the msg is control_change channel=2 control=1 value=64 time=24
the msg is control_change channel=2 control=1 value=62 time=8
the msg is control_change channel=2 control=1 value=61 time=8
the msg is pitchwheel channel=2 pitch=-184 time=0
the msg is control_change channel=2 control=1 value=58 time=8
the msg is pitchwheel channel=2 pitch=-430 time=8
the msg is control_change channel=2 control=1 value=56 time=8
the msg is pitchwheel channel=2 pitch=-676 time=0
the msg is pitchwheel channel=2 pitch=-923 time=8
the msg is control_change channel=2 control=1 value=55 time=0
the msg is control_change channel=2 control=1 value=53 time=8
the msg is pitchwheel channel=2 pitch=-1169 time=0
the msg is pitchwheel channel=2 pitch=-1415 time=8
the msg is control_change channel=2 control=1 value=51 time=0
the msg is control_change channel=2 control=1 value=49 time=8
the msg is pitchwheel channel=2 pitch=-1662 time=0
the msg is control_change channel=2 control=1 value=48 time=8
the msg is pitchwheel channel=2 pitch=-1785 time=0
the msg is pitchwheel channel=2 pitch=-2155 time=8
the msg is control_change channel=2 control=1 value=46 time=0
the msg is control_change channel=2 control=1 value=43 time=8
the msg is pitchwheel channel=2 pitch=-2401 time=0
the msg is pitchwheel channel=2 pitch=-2647 time=8
the msg is control_change channel=2 control=1 value=40 time=0
the msg is pitchwheel channel=2 pitch=-2894 time=8
the msg is control_change channel=2 control=1 value=39 time=0
the msg is pitchwheel channel=2 pitch=-3140 time=8
the msg is control_change channel=2 control=1 value=38 time=0
the msg is control_change channel=2 control=1 value=36 time=8
the msg is pitchwheel channel=2 pitch=-3879 time=0
the msg is control_change channel=2 control=1 value=35 time=8
the msg is pitchwheel channel=2 pitch=-4125 time=0
the msg is control_change channel=2 control=1 value=33 time=8
the msg is pitchwheel channel=2 pitch=-4372 time=0
the msg is control_change channel=2 control=1 value=30 time=8
the msg is pitchwheel channel=2 pitch=-4618 time=0
the msg is pitchwheel channel=2 pitch=-5357 time=8
the msg is control_change channel=2 control=1 value=29 time=8
the msg is pitchwheel channel=2 pitch=-5727 time=0
the msg is pitchwheel channel=2 pitch=-5973 time=8
the msg is control_change channel=2 control=1 value=26 time=8
the msg is pitchwheel channel=2 pitch=-6219 time=0
the msg is control_change channel=2 control=1 value=25 time=8
the msg is pitchwheel channel=2 pitch=-6589 time=0
the msg is pitchwheel channel=2 pitch=-6835 time=8
the msg is control_change channel=2 control=1 value=23 time=0
the msg is control_change channel=2 control=1 value=20 time=8
the msg is pitchwheel channel=2 pitch=-7205 time=0
the msg is pitchwheel channel=2 pitch=-7451 time=8
the msg is control_change channel=2 control=1 value=17 time=0
the msg is pitchwheel channel=2 pitch=-7820 time=8
the msg is control_change channel=2 control=1 value=16 time=0
the msg is control_change channel=2 control=1 value=14 time=8
the msg is pitchwheel channel=2 pitch=-8067 time=0
the msg is control_change channel=2 control=1 value=13 time=8
the msg is pitchwheel channel=2 pitch=-8190 time=0
the msg is control_change channel=2 control=1 value=12 time=8
the msg is note_on channel=2 note=66 velocity=0 time=7
the msg is note_on channel=2 note=59 velocity=127 time=1
the msg is pitchwheel channel=2 pitch=0 time=0
the msg is control_change channel=2 control=1 value=0 time=8
the msg is note_on channel=2 note=59 velocity=0 time=51
the msg is note_on channel=2 note=61 velocity=127 time=61
the msg is pitchwheel channel=2 pitch=6097 time=24
the msg is pitchwheel channel=2 pitch=0 time=16
the msg is pitchwheel channel=2 pitch=6097 time=16
the msg is pitchwheel channel=2 pitch=0 time=16
the msg is pitchwheel channel=2 pitch=6097 time=16
the msg is pitchwheel channel=2 pitch=0 time=16
the msg is note_on channel=2 note=61 velocity=0 time=15
the msg is note_on channel=2 note=59 velocity=127 time=1
the msg is note_on channel=2 note=59 velocity=0 time=59
the msg is note_on channel=2 note=61 velocity=127 time=61
the msg is pitchwheel channel=2 pitch=6097 time=24
the msg is pitchwheel channel=2 pitch=0 time=16
the msg is pitchwheel channel=2 pitch=6097 time=16
the msg is pitchwheel channel=2 pitch=0 time=16
the msg is pitchwheel channel=2 pitch=6097 time=16
the msg is pitchwheel channel=2 pitch=0 time=16
the msg is note_on channel=2 note=61 velocity=0 time=15
the msg is note_on channel=2 note=59 velocity=127 time=1
the msg is note_on channel=2 note=59 velocity=0 time=59
the msg is note_on channel=2 note=61 velocity=127 time=1
the msg is note_on channel=2 note=61 velocity=0 time=59
the msg is pitchwheel channel=2 pitch=-8067 time=49
the msg is pitchwheel channel=2 pitch=-6958 time=8
the msg is note_on channel=2 note=66 velocity=127 time=4
the msg is pitchwheel channel=2 pitch=-5357 time=4
the msg is pitchwheel channel=2 pitch=-4002 time=8
the msg is pitchwheel channel=2 pitch=-2647 time=8
the msg is pitchwheel channel=2 pitch=-1785 time=8
the msg is pitchwheel channel=2 pitch=-1415 time=8
the msg is pitchwheel channel=2 pitch=-1046 time=8
the msg is pitchwheel channel=2 pitch=-553 time=8
the msg is pitchwheel channel=2 pitch=0 time=8
the msg is note_on channel=2 note=66 velocity=0 time=59
the msg is note_on channel=2 note=65 velocity=127 time=1
the msg is note_on channel=2 note=65 velocity=0 time=59
the msg is note_on channel=2 note=63 velocity=127 time=1
the msg is note_on channel=2 note=63 velocity=0 time=59
the msg is note_on channel=2 note=61 velocity=127 time=1
the msg is note_on channel=2 note=61 velocity=0 time=59
the msg is note_on channel=2 note=59 velocity=127 time=1
the msg is note_on channel=2 note=59 velocity=0 time=59
the msg is note_on channel=2 note=61 velocity=127 time=61
the msg is pitchwheel channel=2 pitch=6220 time=24
the msg is pitchwheel channel=2 pitch=0 time=16
the msg is pitchwheel channel=2 pitch=6220 time=16
the msg is pitchwheel channel=2 pitch=0 time=16
the msg is pitchwheel channel=2 pitch=6220 time=16
the msg is pitchwheel channel=2 pitch=0 time=16
the msg is note_on channel=2 note=61 velocity=0 time=15
the msg is note_on channel=2 note=59 velocity=127 time=1
the msg is note_on channel=2 note=59 velocity=0 time=59
the msg is note_on channel=2 note=61 velocity=127 time=61
the msg is pitchwheel channel=2 pitch=6220 time=24
the msg is pitchwheel channel=2 pitch=0 time=16
the msg is pitchwheel channel=2 pitch=6220 time=16
the msg is pitchwheel channel=2 pitch=0 time=16
the msg is pitchwheel channel=2 pitch=6220 time=16
the msg is pitchwheel channel=2 pitch=0 time=16
the msg is note_on channel=2 note=61 velocity=0 time=15
the msg is note_on channel=2 note=59 velocity=127 time=1
the msg is note_on channel=2 note=59 velocity=0 time=59
the msg is note_on channel=2 note=61 velocity=127 time=1
the msg is note_on channel=2 note=61 velocity=0 time=59
the msg is note_on channel=2 note=64 velocity=127 time=61
the msg is pitchwheel channel=2 pitch=-8067 time=116
the msg is pitchwheel channel=2 pitch=0 time=16
the msg is pitchwheel channel=2 pitch=-8191 time=48
the msg is pitchwheel channel=2 pitch=0 time=16
the msg is pitchwheel channel=2 pitch=-8067 time=48
the msg is pitchwheel channel=2 pitch=0 time=16
the msg is note_on channel=2 note=64 velocity=0 time=39
the msg is note_on channel=2 note=59 velocity=127 time=1
the msg is note_on channel=2 note=59 velocity=0 time=59
the msg is note_on channel=2 note=61 velocity=127 time=61
the msg is pitchwheel channel=2 pitch=6343 time=24
the msg is pitchwheel channel=2 pitch=0 time=16
the msg is pitchwheel channel=2 pitch=6343 time=16
the msg is pitchwheel channel=2 pitch=0 time=16
the msg is pitchwheel channel=2 pitch=6343 time=16
the msg is pitchwheel channel=2 pitch=0 time=16
the msg is note_on channel=2 note=61 velocity=0 time=15
the msg is note_on channel=2 note=59 velocity=127 time=1
the msg is note_on channel=2 note=59 velocity=0 time=59
the msg is note_on channel=2 note=61 velocity=127 time=61
the msg is pitchwheel channel=2 pitch=6343 time=24
the msg is pitchwheel channel=2 pitch=0 time=16
the msg is pitchwheel channel=2 pitch=6343 time=16
the msg is pitchwheel channel=2 pitch=0 time=16
the msg is pitchwheel channel=2 pitch=6343 time=16
the msg is pitchwheel channel=2 pitch=0 time=16
the msg is note_on channel=2 note=61 velocity=0 time=15
the msg is note_on channel=2 note=59 velocity=127 time=1
the msg is note_on channel=2 note=59 velocity=0 time=59
the msg is note_on channel=2 note=61 velocity=127 time=1
the msg is note_on channel=2 note=61 velocity=0 time=59
the msg is pitchwheel channel=2 pitch=-8067 time=49
the msg is pitchwheel channel=2 pitch=-7081 time=8
the msg is note_on channel=2 note=66 velocity=127 time=4
the msg is pitchwheel channel=2 pitch=-5850 time=4
the msg is pitchwheel channel=2 pitch=-4741 time=8
the msg is pitchwheel channel=2 pitch=-3509 time=8
the msg is pitchwheel channel=2 pitch=-2401 time=8
the msg is pitchwheel channel=2 pitch=-1415 time=8
the msg is pitchwheel channel=2 pitch=-923 time=8
the msg is pitchwheel channel=2 pitch=-430 time=8
the msg is pitchwheel channel=2 pitch=0 time=8
the msg is note_on channel=2 note=66 velocity=0 time=59
the msg is note_on channel=2 note=65 velocity=127 time=1
the msg is note_on channel=2 note=65 velocity=0 time=59
the msg is note_on channel=2 note=63 velocity=127 time=1
the msg is note_on channel=2 note=63 velocity=0 time=59
the msg is note_on channel=2 note=61 velocity=127 time=1
the msg is note_on channel=2 note=61 velocity=0 time=59
the msg is note_on channel=2 note=59 velocity=127 time=1
the msg is note_on channel=2 note=59 velocity=0 time=59
the msg is note_on channel=2 note=61 velocity=127 time=61
the msg is pitchwheel channel=2 pitch=6467 time=24
the msg is pitchwheel channel=2 pitch=0 time=16
the msg is pitchwheel channel=2 pitch=6467 time=16
the msg is pitchwheel channel=2 pitch=0 time=16
the msg is pitchwheel channel=2 pitch=6467 time=16
the msg is pitchwheel channel=2 pitch=0 time=16
the msg is note_on channel=2 note=61 velocity=0 time=15
the msg is note_on channel=2 note=59 velocity=127 time=1
the msg is note_on channel=2 note=59 velocity=0 time=59
the msg is note_on channel=2 note=61 velocity=127 time=61
the msg is pitchwheel channel=2 pitch=6467 time=24
the msg is pitchwheel channel=2 pitch=0 time=16
the msg is pitchwheel channel=2 pitch=6467 time=16
the msg is pitchwheel channel=2 pitch=0 time=16
the msg is pitchwheel channel=2 pitch=6467 time=16
the msg is pitchwheel channel=2 pitch=0 time=16
the msg is note_on channel=2 note=61 velocity=0 time=15
the msg is note_on channel=2 note=59 velocity=127 time=1
the msg is note_on channel=2 note=59 velocity=0 time=59
the msg is note_on channel=2 note=61 velocity=127 time=1
the msg is note_on channel=2 note=61 velocity=0 time=59
the msg is note_on channel=2 note=64 velocity=127 time=61
the msg is pitchwheel channel=2 pitch=-184 time=172
the msg is pitchwheel channel=2 pitch=-800 time=16
the msg is pitchwheel channel=2 pitch=-1539 time=8
the msg is pitchwheel channel=2 pitch=-2031 time=8
the msg is pitchwheel channel=2 pitch=-2524 time=8
the msg is pitchwheel channel=2 pitch=-3017 time=8
the msg is pitchwheel channel=2 pitch=-3509 time=8
the msg is pitchwheel channel=2 pitch=-4248 time=8
the msg is pitchwheel channel=2 pitch=-4741 time=8
the msg is pitchwheel channel=2 pitch=-5357 time=8
the msg is pitchwheel channel=2 pitch=-6096 time=8
the msg is pitchwheel channel=2 pitch=-6589 time=8
the msg is pitchwheel channel=2 pitch=-6958 time=8
the msg is pitchwheel channel=2 pitch=-7451 time=8
the msg is pitchwheel channel=2 pitch=-7820 time=8
the msg is note_on channel=2 note=64 velocity=0 time=7
the msg is pitchwheel channel=2 pitch=-4618 time=1
the msg is note_on channel=2 note=68 velocity=127 time=0
the msg is pitchwheel channel=2 pitch=-4248 time=8
the msg is pitchwheel channel=2 pitch=-3386 time=8
the msg is pitchwheel channel=2 pitch=-3140 time=8
the msg is pitchwheel channel=2 pitch=-2524 time=8
the msg is pitchwheel channel=2 pitch=-1785 time=8
the msg is pitchwheel channel=2 pitch=-1169 time=8
the msg is pitchwheel channel=2 pitch=-800 time=8
the msg is pitchwheel channel=2 pitch=0 time=8
the msg is pitchwheel channel=2 pitch=-184 time=40
the msg is pitchwheel channel=2 pitch=-61 time=8
the msg is note_on channel=2 note=68 velocity=0 time=7
the msg is note_on channel=2 note=71 velocity=127 time=1
the msg is pitchwheel channel=2 pitch=0 time=0
the msg is note_on channel=2 note=71 velocity=0 time=59
the msg is note_on channel=2 note=68 velocity=127 time=1
the msg is pitchwheel channel=2 pitch=-4618 time=4
the msg is pitchwheel channel=2 pitch=-4125 time=8
the msg is pitchwheel channel=2 pitch=-3263 time=8
the msg is pitchwheel channel=2 pitch=-3140 time=8
the msg is pitchwheel channel=2 pitch=-2647 time=8
the msg is pitchwheel channel=2 pitch=-2155 time=8
the msg is pitchwheel channel=2 pitch=-1292 time=8
the msg is pitchwheel channel=2 pitch=-923 time=8
the msg is pitchwheel channel=2 pitch=-800 time=8
the msg is pitchwheel channel=2 pitch=0 time=8
the msg is note_on channel=2 note=68 velocity=0 time=43
the msg is note_on channel=2 note=71 velocity=127 time=1
the msg is note_on channel=2 note=71 velocity=0 time=59
the msg is pitchwheel channel=2 pitch=-4618 time=1
the msg is note_on channel=2 note=68 velocity=127 time=0
the msg is pitchwheel channel=2 pitch=-3633 time=8
the msg is pitchwheel channel=2 pitch=-2894 time=8
the msg is pitchwheel channel=2 pitch=-2031 time=8
the msg is pitchwheel channel=2 pitch=-1169 time=8
the msg is pitchwheel channel=2 pitch=-430 time=8
the msg is pitchwheel channel=2 pitch=0 time=8
the msg is note_on channel=2 note=68 velocity=0 time=11
the msg is note_on channel=2 note=66 velocity=127 time=1
the msg is pitchwheel channel=2 pitch=4619 time=52
the msg is pitchwheel channel=2 pitch=0 time=32
the msg is note_on channel=2 note=66 velocity=0 time=35
the msg is note_on channel=2 note=64 velocity=127 time=1
the msg is note_on channel=2 note=64 velocity=0 time=119
the msg is note_on channel=2 note=68 velocity=127 time=1
the msg is note_on channel=2 note=68 velocity=0 time=59
the msg is note_on channel=2 note=66 velocity=127 time=1
the msg is note_on channel=2 note=66 velocity=0 time=59
the msg is note_on channel=2 note=64 velocity=127 time=1
the msg is note_on channel=2 note=64 velocity=0 time=59
the msg is note_on channel=2 note=61 velocity=127 time=1
the msg is note_on channel=2 note=61 velocity=0 time=59
the msg is note_on channel=2 note=59 velocity=127 time=1
the msg is note_on channel=2 note=59 velocity=0 time=59
the msg is note_on channel=2 note=68 velocity=127 time=1
the msg is pitchwheel channel=2 pitch=-4864 time=0
the msg is pitchwheel channel=2 pitch=-4495 time=8
the msg is pitchwheel channel=2 pitch=-4002 time=8
the msg is pitchwheel channel=2 pitch=-3633 time=8
the msg is pitchwheel channel=2 pitch=-3263 time=8
the msg is pitchwheel channel=2 pitch=-2770 time=8
the msg is pitchwheel channel=2 pitch=-2278 time=8
the msg is pitchwheel channel=2 pitch=-1785 time=8
the msg is pitchwheel channel=2 pitch=-1046 time=8
the msg is pitchwheel channel=2 pitch=-676 time=8
the msg is pitchwheel channel=2 pitch=0 time=8
the msg is note_on channel=2 note=68 velocity=0 time=39
the msg is note_on channel=2 note=71 velocity=127 time=1
the msg is pitchwheel channel=2 pitch=-4864 time=56
the msg is note_on channel=2 note=71 velocity=0 time=3
the msg is note_on channel=2 note=68 velocity=127 time=1
the msg is pitchwheel channel=2 pitch=-4248 time=4
the msg is pitchwheel channel=2 pitch=-3756 time=8
the msg is pitchwheel channel=2 pitch=-3263 time=8
the msg is pitchwheel channel=2 pitch=-3017 time=8
the msg is pitchwheel channel=2 pitch=-2401 time=8
the msg is pitchwheel channel=2 pitch=-1785 time=8
the msg is pitchwheel channel=2 pitch=-1169 time=8
the msg is pitchwheel channel=2 pitch=-800 time=8
the msg is pitchwheel channel=2 pitch=-307 time=8
the msg is pitchwheel channel=2 pitch=0 time=8
the msg is note_on channel=2 note=68 velocity=0 time=43
the msg is note_on channel=2 note=71 velocity=127 time=1
the msg is note_on channel=2 note=71 velocity=0 time=59
the msg is note_on channel=2 note=68 velocity=127 time=1
the msg is pitchwheel channel=2 pitch=-4864 time=0
the msg is pitchwheel channel=2 pitch=-3879 time=8
the msg is pitchwheel channel=2 pitch=-2894 time=8
the msg is pitchwheel channel=2 pitch=-2031 time=8
the msg is pitchwheel channel=2 pitch=-1169 time=8
the msg is pitchwheel channel=2 pitch=-430 time=8
the msg is pitchwheel channel=2 pitch=0 time=8
the msg is note_on channel=2 note=68 velocity=0 time=11
the msg is note_on channel=2 note=66 velocity=127 time=1
the msg is pitchwheel channel=2 pitch=4742 time=52
the msg is pitchwheel channel=2 pitch=0 time=32
the msg is note_on channel=2 note=66 velocity=0 time=35
the msg is note_on channel=2 note=64 velocity=127 time=1
the msg is note_on channel=2 note=64 velocity=0 time=119
the msg is note_on channel=2 note=68 velocity=127 time=1
the msg is note_on channel=2 note=68 velocity=0 time=59
the msg is note_on channel=2 note=66 velocity=127 time=1
the msg is note_on channel=2 note=66 velocity=0 time=59
the msg is note_on channel=2 note=64 velocity=127 time=1
the msg is note_on channel=2 note=64 velocity=0 time=59
the msg is note_on channel=2 note=61 velocity=127 time=1
the msg is note_on channel=2 note=61 velocity=0 time=59
the msg is note_on channel=2 note=59 velocity=127 time=1
the msg is note_on channel=2 note=59 velocity=0 time=59
the msg is note_on channel=2 note=59 velocity=127 time=1
the msg is pitchwheel channel=2 pitch=-4741 time=0
the msg is pitchwheel channel=2 pitch=0 time=0
the msg is pitchwheel channel=2 pitch=0 time=0
the msg is note_on channel=2 note=59 velocity=0 time=59
the msg is note_on channel=2 note=61 velocity=127 time=61
the msg is pitchwheel channel=2 pitch=6097 time=24
the msg is pitchwheel channel=2 pitch=0 time=16
the msg is pitchwheel channel=2 pitch=6097 time=16
the msg is pitchwheel channel=2 pitch=0 time=16
the msg is pitchwheel channel=2 pitch=6097 time=16
the msg is pitchwheel channel=2 pitch=0 time=16
the msg is note_on channel=2 note=61 velocity=0 time=15
the msg is note_on channel=2 note=59 velocity=127 time=1
the msg is note_on channel=2 note=59 velocity=0 time=59
the msg is note_on channel=2 note=61 velocity=127 time=61
the msg is pitchwheel channel=2 pitch=6097 time=24
the msg is pitchwheel channel=2 pitch=0 time=16
the msg is pitchwheel channel=2 pitch=6097 time=16
the msg is pitchwheel channel=2 pitch=0 time=16
the msg is pitchwheel channel=2 pitch=6097 time=16
the msg is pitchwheel channel=2 pitch=0 time=16
the msg is note_on channel=2 note=61 velocity=0 time=15
the msg is note_on channel=2 note=59 velocity=127 time=1
the msg is note_on channel=2 note=59 velocity=0 time=59
the msg is note_on channel=2 note=61 velocity=127 time=1
the msg is note_on channel=2 note=61 velocity=0 time=59
the msg is pitchwheel channel=2 pitch=-8067 time=49
the msg is pitchwheel channel=2 pitch=-6958 time=8
the msg is note_on channel=2 note=66 velocity=127 time=4
the msg is pitchwheel channel=2 pitch=-5357 time=4
the msg is pitchwheel channel=2 pitch=-4002 time=8
the msg is pitchwheel channel=2 pitch=-2647 time=8
the msg is pitchwheel channel=2 pitch=-1785 time=8
the msg is pitchwheel channel=2 pitch=-1415 time=8
the msg is pitchwheel channel=2 pitch=-1046 time=8
the msg is pitchwheel channel=2 pitch=-553 time=8
the msg is pitchwheel channel=2 pitch=0 time=8
the msg is note_on channel=2 note=66 velocity=0 time=59
the msg is note_on channel=2 note=65 velocity=127 time=1
the msg is note_on channel=2 note=65 velocity=0 time=59
the msg is note_on channel=2 note=63 velocity=127 time=1
the msg is note_on channel=2 note=63 velocity=0 time=59
the msg is note_on channel=2 note=61 velocity=127 time=1
the msg is note_on channel=2 note=61 velocity=0 time=59
the msg is note_on channel=2 note=59 velocity=127 time=1
the msg is note_on channel=2 note=59 velocity=0 time=59
the msg is note_on channel=2 note=61 velocity=127 time=61
the msg is pitchwheel channel=2 pitch=6220 time=24
the msg is pitchwheel channel=2 pitch=0 time=16
the msg is pitchwheel channel=2 pitch=6220 time=16
the msg is pitchwheel channel=2 pitch=0 time=16
the msg is pitchwheel channel=2 pitch=6220 time=16
the msg is pitchwheel channel=2 pitch=0 time=16
the msg is note_on channel=2 note=61 velocity=0 time=15
the msg is note_on channel=2 note=59 velocity=127 time=1
the msg is note_on channel=2 note=59 velocity=0 time=59
the msg is note_on channel=2 note=61 velocity=127 time=61
the msg is pitchwheel channel=2 pitch=6220 time=24
the msg is pitchwheel channel=2 pitch=0 time=16
the msg is pitchwheel channel=2 pitch=6220 time=16
the msg is pitchwheel channel=2 pitch=0 time=16
the msg is pitchwheel channel=2 pitch=6220 time=16
the msg is pitchwheel channel=2 pitch=0 time=16
the msg is note_on channel=2 note=61 velocity=0 time=15
the msg is note_on channel=2 note=59 velocity=127 time=1
the msg is note_on channel=2 note=59 velocity=0 time=59
the msg is note_on channel=2 note=61 velocity=127 time=1
the msg is note_on channel=2 note=61 velocity=0 time=59
the msg is note_on channel=2 note=64 velocity=127 time=61
the msg is pitchwheel channel=2 pitch=-8067 time=116
the msg is pitchwheel channel=2 pitch=0 time=16
the msg is pitchwheel channel=2 pitch=-8191 time=48
the msg is pitchwheel channel=2 pitch=0 time=16
the msg is pitchwheel channel=2 pitch=-8067 time=48
the msg is pitchwheel channel=2 pitch=0 time=16
the msg is note_on channel=2 note=64 velocity=0 time=39
the msg is note_on channel=2 note=59 velocity=127 time=1
the msg is note_on channel=2 note=59 velocity=0 time=59
the msg is note_on channel=2 note=61 velocity=127 time=61
the msg is pitchwheel channel=2 pitch=6343 time=24
the msg is pitchwheel channel=2 pitch=0 time=16
the msg is pitchwheel channel=2 pitch=6343 time=16
the msg is pitchwheel channel=2 pitch=0 time=16
the msg is pitchwheel channel=2 pitch=6343 time=16
the msg is pitchwheel channel=2 pitch=0 time=16
the msg is note_on channel=2 note=61 velocity=0 time=15
the msg is note_on channel=2 note=59 velocity=127 time=1
the msg is note_on channel=2 note=59 velocity=0 time=59
the msg is note_on channel=2 note=61 velocity=127 time=61
the msg is pitchwheel channel=2 pitch=6343 time=24
the msg is pitchwheel channel=2 pitch=0 time=16
the msg is pitchwheel channel=2 pitch=6343 time=16
the msg is pitchwheel channel=2 pitch=0 time=16
the msg is pitchwheel channel=2 pitch=6343 time=16
the msg is pitchwheel channel=2 pitch=0 time=16
the msg is note_on channel=2 note=61 velocity=0 time=15
the msg is note_on channel=2 note=59 velocity=127 time=1
the msg is note_on channel=2 note=59 velocity=0 time=59
the msg is note_on channel=2 note=61 velocity=127 time=1
the msg is note_on channel=2 note=61 velocity=0 time=59
the msg is pitchwheel channel=2 pitch=-8067 time=49
the msg is pitchwheel channel=2 pitch=-7081 time=8
the msg is note_on channel=2 note=66 velocity=127 time=4
the msg is pitchwheel channel=2 pitch=-5850 time=4
the msg is pitchwheel channel=2 pitch=-4741 time=8
the msg is pitchwheel channel=2 pitch=-3509 time=8
the msg is pitchwheel channel=2 pitch=-2401 time=8
the msg is pitchwheel channel=2 pitch=-1415 time=8
the msg is pitchwheel channel=2 pitch=-923 time=8
the msg is pitchwheel channel=2 pitch=-430 time=8
the msg is pitchwheel channel=2 pitch=0 time=8
the msg is note_on channel=2 note=66 velocity=0 time=59
the msg is note_on channel=2 note=65 velocity=127 time=1
the msg is note_on channel=2 note=65 velocity=0 time=59
the msg is note_on channel=2 note=63 velocity=127 time=1
the msg is note_on channel=2 note=63 velocity=0 time=59
the msg is note_on channel=2 note=61 velocity=127 time=1
the msg is note_on channel=2 note=61 velocity=0 time=59
the msg is note_on channel=2 note=59 velocity=127 time=1
the msg is note_on channel=2 note=59 velocity=0 time=59
the msg is note_on channel=2 note=61 velocity=127 time=61
the msg is pitchwheel channel=2 pitch=6467 time=24
the msg is pitchwheel channel=2 pitch=0 time=16
the msg is pitchwheel channel=2 pitch=6467 time=16
the msg is pitchwheel channel=2 pitch=0 time=16
the msg is pitchwheel channel=2 pitch=6467 time=16
the msg is pitchwheel channel=2 pitch=0 time=16
the msg is note_on channel=2 note=61 velocity=0 time=15
the msg is note_on channel=2 note=59 velocity=127 time=1
the msg is note_on channel=2 note=59 velocity=0 time=59
the msg is note_on channel=2 note=61 velocity=127 time=61
the msg is pitchwheel channel=2 pitch=6467 time=24
the msg is pitchwheel channel=2 pitch=0 time=16
the msg is pitchwheel channel=2 pitch=6467 time=16
the msg is pitchwheel channel=2 pitch=0 time=16
the msg is pitchwheel channel=2 pitch=6467 time=16
the msg is pitchwheel channel=2 pitch=0 time=16
the msg is note_on channel=2 note=61 velocity=0 time=15
the msg is note_on channel=2 note=59 velocity=127 time=1
the msg is note_on channel=2 note=59 velocity=0 time=59
the msg is note_on channel=2 note=61 velocity=127 time=1
the msg is note_on channel=2 note=61 velocity=0 time=59
the msg is note_on channel=2 note=64 velocity=127 time=61
the msg is pitchwheel channel=2 pitch=-184 time=172
the msg is pitchwheel channel=2 pitch=-184 time=0
the msg is pitchwheel channel=2 pitch=-800 time=16
the msg is pitchwheel channel=2 pitch=-800 time=0
the msg is pitchwheel channel=2 pitch=-1539 time=8
the msg is pitchwheel channel=2 pitch=-1539 time=0
the msg is pitchwheel channel=2 pitch=-2031 time=8
the msg is pitchwheel channel=2 pitch=-2031 time=0
the msg is pitchwheel channel=2 pitch=-2524 time=8
the msg is pitchwheel channel=2 pitch=-2524 time=0
the msg is pitchwheel channel=2 pitch=-3017 time=8
the msg is pitchwheel channel=2 pitch=-3017 time=0
the msg is pitchwheel channel=2 pitch=-3509 time=8
the msg is pitchwheel channel=2 pitch=-3509 time=0
the msg is pitchwheel channel=2 pitch=-4248 time=8
the msg is pitchwheel channel=2 pitch=-4248 time=0
the msg is pitchwheel channel=2 pitch=-4741 time=8
the msg is pitchwheel channel=2 pitch=-4741 time=0
the msg is pitchwheel channel=2 pitch=-5357 time=8
the msg is pitchwheel channel=2 pitch=-5357 time=0
the msg is pitchwheel channel=2 pitch=-6096 time=8
the msg is pitchwheel channel=2 pitch=-6096 time=0
the msg is pitchwheel channel=2 pitch=-6589 time=8
the msg is pitchwheel channel=2 pitch=-6589 time=0
the msg is pitchwheel channel=2 pitch=-6958 time=8
the msg is pitchwheel channel=2 pitch=-6958 time=0
the msg is pitchwheel channel=2 pitch=-7451 time=8
the msg is pitchwheel channel=2 pitch=-7451 time=0
the msg is pitchwheel channel=2 pitch=-7820 time=8
the msg is pitchwheel channel=2 pitch=-7820 time=0
the msg is note_on channel=2 note=64 velocity=0 time=7
the msg is pitchwheel channel=2 pitch=-4618 time=1
the msg is note_on channel=2 note=73 velocity=127 time=0
the msg is pitchwheel channel=2 pitch=-4618 time=0
the msg is pitchwheel channel=2 pitch=-8067 time=0
the msg is pitchwheel channel=2 pitch=-7081 time=8
the msg is pitchwheel channel=2 pitch=-5603 time=8
the msg is pitchwheel channel=2 pitch=-4248 time=8
the msg is pitchwheel channel=2 pitch=-3017 time=8
the msg is pitchwheel channel=2 pitch=-2155 time=8
the msg is pitchwheel channel=2 pitch=-1415 time=8
the msg is pitchwheel channel=2 pitch=-1046 time=8
the msg is pitchwheel channel=2 pitch=-800 time=8
the msg is pitchwheel channel=2 pitch=-553 time=8
the msg is pitchwheel channel=2 pitch=0 time=8
the msg is note_on channel=2 note=73 velocity=0 time=219
the msg is note_on channel=2 note=71 velocity=127 time=1
the msg is note_on channel=2 note=71 velocity=0 time=119
the msg is note_on channel=2 note=68 velocity=127 time=1
the msg is pitchwheel channel=2 pitch=-4864 time=4
the msg is pitchwheel channel=2 pitch=-3756 time=8
the msg is pitchwheel channel=2 pitch=-2770 time=8
the msg is pitchwheel channel=2 pitch=-2031 time=8
the msg is pitchwheel channel=2 pitch=-1415 time=8
the msg is pitchwheel channel=2 pitch=-676 time=8
the msg is pitchwheel channel=2 pitch=-307 time=8
the msg is pitchwheel channel=2 pitch=0 time=8
the msg is note_on channel=2 note=68 velocity=0 time=59
the msg is note_on channel=2 note=71 velocity=127 time=1
the msg is note_on channel=2 note=71 velocity=0 time=59
the msg is note_on channel=2 note=68 velocity=127 time=1
the msg is note_on channel=2 note=68 velocity=0 time=59
the msg is note_on channel=2 note=66 velocity=127 time=1
the msg is pitchwheel channel=2 pitch=4989 time=52
the msg is pitchwheel channel=2 pitch=0 time=32
the msg is note_on channel=2 note=66 velocity=0 time=35
the msg is note_on channel=2 note=68 velocity=127 time=1
the msg is note_on channel=2 note=68 velocity=0 time=119
the msg is note_on channel=2 note=71 velocity=127 time=1
the msg is note_on channel=2 note=71 velocity=0 time=59
the msg is pitchwheel channel=2 pitch=-8067 time=1
the msg is note_on channel=2 note=73 velocity=127 time=0
the msg is pitchwheel channel=2 pitch=-6219 time=8
the msg is pitchwheel channel=2 pitch=-4372 time=8
the msg is pitchwheel channel=2 pitch=-3017 time=8
the msg is pitchwheel channel=2 pitch=-1785 time=8
the msg is pitchwheel channel=2 pitch=-1046 time=8
the msg is pitchwheel channel=2 pitch=-430 time=8
the msg is pitchwheel channel=2 pitch=0 time=8
the msg is pitchwheel channel=2 pitch=2771 time=24
the msg is pitchwheel channel=2 pitch=0 time=24
the msg is pitchwheel channel=2 pitch=2771 time=24
the msg is pitchwheel channel=2 pitch=0 time=24
the msg is pitchwheel channel=2 pitch=2771 time=24
the msg is pitchwheel channel=2 pitch=0 time=24
the msg is pitchwheel channel=2 pitch=2771 time=24
the msg is pitchwheel channel=2 pitch=0 time=24
the msg is note_on channel=2 note=73 velocity=0 time=51
the msg is note_on channel=2 note=71 velocity=127 time=1
the msg is note_on channel=2 note=71 velocity=0 time=119
the msg is note_on channel=2 note=76 velocity=127 time=1
the msg is pitchwheel channel=2 pitch=-8067 time=4
the msg is pitchwheel channel=2 pitch=-6342 time=8
the msg is pitchwheel channel=2 pitch=-4495 time=8
the msg is pitchwheel channel=2 pitch=-3140 time=8
the msg is pitchwheel channel=2 pitch=-1908 time=8
the msg is pitchwheel channel=2 pitch=-1169 time=8
the msg is pitchwheel channel=2 pitch=-430 time=8
the msg is pitchwheel channel=2 pitch=0 time=8
the msg is note_on channel=2 note=76 velocity=0 time=59
the msg is note_on channel=2 note=78 velocity=127 time=1
the msg is note_on channel=2 note=78 velocity=0 time=239
the msg is note_on channel=2 note=78 velocity=127 time=1
the msg is note_on channel=2 note=78 velocity=0 time=119
the msg is note_on channel=2 note=76 velocity=127 time=1
the msg is control_change channel=2 control=11 value=127 time=52
the msg is note_on channel=2 note=76 velocity=0 time=7
the msg is note_on channel=2 note=73 velocity=127 time=1
the msg is program_change channel=2 program=29 time=0
the msg is control_change channel=2 control=11 value=126 time=0
the msg is control_change channel=2 control=11 value=123 time=16
the msg is control_change channel=2 control=11 value=121 time=8
the msg is control_change channel=2 control=11 value=120 time=8
the msg is control_change channel=2 control=11 value=118 time=16
the msg is control_change channel=2 control=11 value=117 time=8
the msg is control_change channel=2 control=11 value=115 time=8
the msg is control_change channel=2 control=11 value=114 time=16
the msg is control_change channel=2 control=11 value=113 time=8
the msg is control_change channel=2 control=11 value=111 time=16
the msg is control_change channel=2 control=11 value=110 time=16
the msg is control_change channel=2 control=11 value=108 time=8
the msg is control_change channel=2 control=11 value=107 time=32
the msg is control_change channel=2 control=11 value=100 time=16
the msg is control_change channel=2 control=11 value=97 time=104
the msg is control_change channel=2 control=11 value=95 time=72
the msg is control_change channel=2 control=11 value=94 time=16
the msg is control_change channel=2 control=11 value=92 time=16
the msg is control_change channel=2 control=11 value=91 time=48
the msg is control_change channel=2 control=11 value=89 time=16
the msg is control_change channel=2 control=11 value=88 time=40
the msg is control_change channel=2 control=11 value=87 time=40
the msg is control_change channel=2 control=11 value=85 time=80
the msg is control_change channel=2 control=11 value=84 time=16
the msg is control_change channel=2 control=11 value=82 time=48
the msg is control_change channel=2 control=11 value=81 time=16
the msg is control_change channel=2 control=11 value=79 time=40
the msg is control_change channel=2 control=11 value=78 time=8
the msg is control_change channel=2 control=11 value=76 time=16
the msg is control_change channel=2 control=11 value=75 time=16
the msg is control_change channel=2 control=11 value=74 time=8
the msg is control_change channel=2 control=11 value=72 time=16
the msg is control_change channel=2 control=11 value=71 time=16
the msg is control_change channel=2 control=11 value=69 time=16
the msg is control_change channel=2 control=11 value=68 time=8
the msg is control_change channel=2 control=11 value=66 time=16
the msg is control_change channel=2 control=11 value=65 time=8
the msg is control_change channel=2 control=11 value=64 time=16
the msg is control_change channel=2 control=11 value=62 time=8
the msg is control_change channel=2 control=11 value=61 time=16
the msg is control_change channel=2 control=11 value=59 time=16
the msg is control_change channel=2 control=11 value=58 time=32
the msg is control_change channel=2 control=11 value=56 time=8
the msg is note_on channel=2 note=73 velocity=0 time=7
the msg is control_change channel=2 control=11 value=55 time=1
the msg is control_change channel=2 control=11 value=53 time=8
the msg is control_change channel=2 control=11 value=0 time=32
the msg is control_change channel=2 control=11 value=127 time=880
the msg is pitchwheel channel=2 pitch=-3509 time=32
the msg is note_on channel=2 note=71 velocity=127 time=8
the msg is pitchwheel channel=2 pitch=-3386 time=0
the msg is pitchwheel channel=2 pitch=-3140 time=8
the msg is pitchwheel channel=2 pitch=-3017 time=8
the msg is pitchwheel channel=2 pitch=-2647 time=8
the msg is pitchwheel channel=2 pitch=-2278 time=8
the msg is pitchwheel channel=2 pitch=-1785 time=8
the msg is pitchwheel channel=2 pitch=-1292 time=8
the msg is pitchwheel channel=2 pitch=-1046 time=8
the msg is pitchwheel channel=2 pitch=-800 time=8
the msg is pitchwheel channel=2 pitch=-430 time=8
the msg is pitchwheel channel=2 pitch=-61 time=8
the msg is pitchwheel channel=2 pitch=62 time=8
the msg is pitchwheel channel=2 pitch=0 time=8
the msg is note_on channel=2 note=71 velocity=0 time=23
the msg is note_on channel=2 note=70 velocity=127 time=1
the msg is note_on channel=2 note=70 velocity=0 time=59
the msg is note_on channel=2 note=68 velocity=127 time=1
the msg is note_on channel=2 note=68 velocity=0 time=59
the msg is note_on channel=2 note=66 velocity=127 time=1
the msg is note_on channel=2 note=66 velocity=0 time=119
the msg is note_on channel=2 note=68 velocity=127 time=1
the msg is note_on channel=2 note=68 velocity=0 time=59
the msg is note_on channel=2 note=64 velocity=127 time=1
the msg is pitchwheel channel=2 pitch=5604 time=60
the msg is pitchwheel channel=2 pitch=0 time=32
the msg is pitchwheel channel=2 pitch=4989 time=32
the msg is pitchwheel channel=2 pitch=0 time=16
the msg is pitchwheel channel=2 pitch=4989 time=40
the msg is pitchwheel channel=2 pitch=0 time=16
the msg is note_on channel=2 note=64 velocity=0 time=43
the msg is note_on channel=2 note=61 velocity=127 time=1
the msg is note_on channel=2 note=61 velocity=0 time=59
the msg is note_on channel=2 note=64 velocity=127 time=1
the msg is note_on channel=2 note=64 velocity=0 time=59
the msg is note_on channel=2 note=66 velocity=127 time=1
the msg is note_on channel=2 note=66 velocity=0 time=119
the msg is note_on channel=2 note=68 velocity=127 time=1
the msg is pitchwheel channel=2 pitch=-4495 time=4
the msg is pitchwheel channel=2 pitch=-4248 time=8
the msg is pitchwheel channel=2 pitch=-4002 time=8
the msg is pitchwheel channel=2 pitch=-3879 time=8
the msg is pitchwheel channel=2 pitch=-3756 time=8
the msg is pitchwheel channel=2 pitch=-3633 time=8
the msg is pitchwheel channel=2 pitch=-3386 time=8
the msg is pitchwheel channel=2 pitch=-3263 time=8
the msg is pitchwheel channel=2 pitch=-3017 time=8
the msg is pitchwheel channel=2 pitch=-2894 time=8
the msg is pitchwheel channel=2 pitch=-2647 time=8
the msg is pitchwheel channel=2 pitch=-2401 time=8
the msg is pitchwheel channel=2 pitch=-2155 time=8
the msg is pitchwheel channel=2 pitch=-2031 time=8
the msg is pitchwheel channel=2 pitch=-1908 time=8
the msg is pitchwheel channel=2 pitch=-1662 time=8
the msg is pitchwheel channel=2 pitch=-1292 time=8
the msg is pitchwheel channel=2 pitch=-1046 time=8
the msg is pitchwheel channel=2 pitch=-553 time=8
the msg is pitchwheel channel=2 pitch=0 time=8
the msg is note_on channel=2 note=68 velocity=0 time=23
the msg is note_on channel=2 note=66 velocity=127 time=1
the msg is pitchwheel channel=2 pitch=5851 time=40
the msg is pitchwheel channel=2 pitch=0 time=24
the msg is pitchwheel channel=2 pitch=5481 time=32
the msg is pitchwheel channel=2 pitch=0 time=16
the msg is pitchwheel channel=2 pitch=5481 time=32
the msg is pitchwheel channel=2 pitch=0 time=16
the msg is pitchwheel channel=2 pitch=5481 time=24
the msg is pitchwheel channel=2 pitch=0 time=16
the msg is note_on channel=2 note=66 velocity=0 time=39
the msg is note_on channel=2 note=59 velocity=127 time=1
the msg is note_on channel=2 note=59 velocity=0 time=59
the msg is note_on channel=2 note=61 velocity=127 time=1
the msg is control_change channel=2 control=1 value=127 time=4
the msg is control_change channel=2 control=1 value=126 time=272
the msg is control_change channel=2 control=1 value=124 time=8
the msg is control_change channel=2 control=1 value=121 time=8
the msg is control_change channel=2 control=1 value=117 time=8
the msg is control_change channel=2 control=1 value=114 time=8
the msg is control_change channel=2 control=1 value=111 time=8
the msg is control_change channel=2 control=1 value=110 time=8
the msg is control_change channel=2 control=1 value=107 time=8
the msg is control_change channel=2 control=1 value=104 time=8
the msg is control_change channel=2 control=1 value=101 time=8
the msg is control_change channel=2 control=1 value=98 time=8
the msg is control_change channel=2 control=1 value=92 time=8
the msg is control_change channel=2 control=1 value=89 time=8
the msg is control_change channel=2 control=1 value=88 time=8
the msg is control_change channel=2 control=1 value=85 time=8
the msg is control_change channel=2 control=1 value=82 time=8
the msg is control_change channel=2 control=1 value=79 time=8
the msg is control_change channel=2 control=1 value=78 time=8
the msg is control_change channel=2 control=1 value=75 time=8
the msg is control_change channel=2 control=1 value=69 time=8
the msg is control_change channel=2 control=1 value=66 time=8
the msg is control_change channel=2 control=1 value=64 time=8
the msg is control_change channel=2 control=1 value=61 time=8
the msg is control_change channel=2 control=1 value=58 time=8
the msg is control_change channel=2 control=1 value=55 time=8
the msg is control_change channel=2 control=1 value=52 time=8
the msg is control_change channel=2 control=1 value=49 time=8
the msg is control_change channel=2 control=1 value=46 time=8
the msg is control_change channel=2 control=1 value=43 time=8
the msg is control_change channel=2 control=1 value=40 time=8
the msg is control_change channel=2 control=1 value=39 time=8
the msg is control_change channel=2 control=1 value=36 time=8
the msg is control_change channel=2 control=1 value=35 time=8
the msg is note_on channel=2 note=61 velocity=0 time=7
the msg is control_change channel=2 control=1 value=0 time=1
the msg is pitchwheel channel=2 pitch=-3509 time=0
the msg is note_on channel=2 note=71 velocity=127 time=0
the msg is pitchwheel channel=2 pitch=-3263 time=8
the msg is pitchwheel channel=2 pitch=-3140 time=8
the msg is pitchwheel channel=2 pitch=-2894 time=8
the msg is pitchwheel channel=2 pitch=-2647 time=8
the msg is pitchwheel channel=2 pitch=-2401 time=8
the msg is pitchwheel channel=2 pitch=-1908 time=8
the msg is pitchwheel channel=2 pitch=-1539 time=8
the msg is pitchwheel channel=2 pitch=-1169 time=8
the msg is pitchwheel channel=2 pitch=-923 time=8
the msg is pitchwheel channel=2 pitch=-553 time=8
the msg is pitchwheel channel=2 pitch=-184 time=8
the msg is pitchwheel channel=2 pitch=-61 time=8
the msg is pitchwheel channel=2 pitch=0 time=8
the msg is note_on channel=2 note=71 velocity=0 time=15
the msg is note_on channel=2 note=70 velocity=127 time=1
the msg is note_on channel=2 note=70 velocity=0 time=59
the msg is note_on channel=2 note=68 velocity=127 time=1
the msg is note_on channel=2 note=68 velocity=0 time=59
the msg is note_on channel=2 note=66 velocity=127 time=1
the msg is note_on channel=2 note=66 velocity=0 time=119
the msg is note_on channel=2 note=68 velocity=127 time=1
the msg is note_on channel=2 note=68 velocity=0 time=59
the msg is note_on channel=2 note=64 velocity=127 time=1
the msg is pitchwheel channel=2 pitch=5481 time=60
the msg is pitchwheel channel=2 pitch=0 time=24
the msg is pitchwheel channel=2 pitch=4989 time=40
the msg is pitchwheel channel=2 pitch=0 time=16
the msg is pitchwheel channel=2 pitch=4989 time=40
the msg is pitchwheel channel=2 pitch=0 time=16
the msg is note_on channel=2 note=64 velocity=0 time=43
the msg is note_on channel=2 note=61 velocity=127 time=1
the msg is note_on channel=2 note=61 velocity=0 time=59
the msg is note_on channel=2 note=64 velocity=127 time=1
the msg is note_on channel=2 note=64 velocity=0 time=59
the msg is note_on channel=2 note=66 velocity=127 time=1
the msg is note_on channel=2 note=66 velocity=0 time=119
the msg is note_on channel=2 note=68 velocity=127 time=1
the msg is pitchwheel channel=2 pitch=-4002 time=4
the msg is pitchwheel channel=2 pitch=-3879 time=8
the msg is pitchwheel channel=2 pitch=-3756 time=8
the msg is pitchwheel channel=2 pitch=-3386 time=8
the msg is pitchwheel channel=2 pitch=-3140 time=8
the msg is pitchwheel channel=2 pitch=-2894 time=8
the msg is pitchwheel channel=2 pitch=-2647 time=8
the msg is pitchwheel channel=2 pitch=-2524 time=8
the msg is pitchwheel channel=2 pitch=-2401 time=8
the msg is pitchwheel channel=2 pitch=-2278 time=8
the msg is pitchwheel channel=2 pitch=-2031 time=8
the msg is pitchwheel channel=2 pitch=-1908 time=8
the msg is pitchwheel channel=2 pitch=-1785 time=8
the msg is pitchwheel channel=2 pitch=-1539 time=8
the msg is pitchwheel channel=2 pitch=-1169 time=16
the msg is pitchwheel channel=2 pitch=-676 time=8
the msg is pitchwheel channel=2 pitch=-307 time=8
the msg is pitchwheel channel=2 pitch=62 time=8
the msg is pitchwheel channel=2 pitch=0 time=16
the msg is note_on channel=2 note=68 velocity=0 time=15
the msg is note_on channel=2 note=66 velocity=127 time=1
the msg is pitchwheel channel=2 pitch=5851 time=40
the msg is pitchwheel channel=2 pitch=0 time=24
the msg is pitchwheel channel=2 pitch=5481 time=32
the msg is pitchwheel channel=2 pitch=0 time=16
the msg is pitchwheel channel=2 pitch=5481 time=32
the msg is pitchwheel channel=2 pitch=5481 time=40
the msg is pitchwheel channel=2 pitch=0 time=16
the msg is note_on channel=2 note=66 velocity=0 time=99
the msg is note_on channel=2 note=59 velocity=127 time=1
the msg is note_on channel=2 note=59 velocity=0 time=59
the msg is note_on channel=2 note=64 velocity=127 time=1
the msg is note_on channel=2 note=64 velocity=0 time=59
the msg is note_on channel=2 note=61 velocity=127 time=1
the msg is pitchwheel channel=2 pitch=4126 time=84
the msg is pitchwheel channel=2 pitch=0 time=32
the msg is note_on channel=2 note=61 velocity=0 time=123
the msg is note_on channel=2 note=64 velocity=127 time=1
the msg is note_on channel=2 note=64 velocity=0 time=59
the msg is note_on channel=2 note=66 velocity=127 time=1
the msg is control_change channel=2 control=1 value=127 time=56
the msg is note_on channel=2 note=66 velocity=0 time=3
the msg is note_on channel=2 note=66 velocity=127 time=1
the msg is control_change channel=2 control=1 value=126 time=556
the msg is control_change channel=2 control=1 value=124 time=8
the msg is control_change channel=2 control=1 value=121 time=8
the msg is control_change channel=2 control=1 value=120 time=16
the msg is control_change channel=2 control=1 value=118 time=8
the msg is control_change channel=2 control=1 value=115 time=8
the msg is control_change channel=2 control=1 value=114 time=8
the msg is control_change channel=2 control=1 value=111 time=8
the msg is control_change channel=2 control=1 value=108 time=8
the msg is control_change channel=2 control=1 value=105 time=8
the msg is control_change channel=2 control=1 value=104 time=8
the msg is control_change channel=2 control=1 value=102 time=8
the msg is control_change channel=2 control=1 value=101 time=8
the msg is control_change channel=2 control=1 value=100 time=8
the msg is control_change channel=2 control=1 value=98 time=8
the msg is control_change channel=2 control=1 value=97 time=8
the msg is control_change channel=2 control=1 value=95 time=8
the msg is control_change channel=2 control=1 value=94 time=8
the msg is control_change channel=2 control=1 value=92 time=8
the msg is control_change channel=2 control=1 value=91 time=16
the msg is control_change channel=2 control=1 value=89 time=8
the msg is control_change channel=2 control=1 value=88 time=8
the msg is control_change channel=2 control=1 value=87 time=16
the msg is control_change channel=2 control=1 value=84 time=8
the msg is control_change channel=2 control=1 value=81 time=8
the msg is pitchwheel channel=2 pitch=-184 time=8
the msg is control_change channel=2 control=1 value=79 time=0
the msg is control_change channel=2 control=1 value=78 time=8
the msg is control_change channel=2 control=1 value=76 time=8
the msg is pitchwheel channel=2 pitch=-430 time=0
the msg is pitchwheel channel=2 pitch=-676 time=8
the msg is control_change channel=2 control=1 value=75 time=0
the msg is pitchwheel channel=2 pitch=-923 time=8
the msg is control_change channel=2 control=1 value=72 time=0
the msg is control_change channel=2 control=1 value=71 time=8
the msg is pitchwheel channel=2 pitch=-1169 time=0
the msg is control_change channel=2 control=1 value=69 time=8
the msg is pitchwheel channel=2 pitch=-1415 time=0
the msg is control_change channel=2 control=1 value=68 time=8
the msg is pitchwheel channel=2 pitch=-1662 time=0
the msg is pitchwheel channel=2 pitch=-1785 time=8
the msg is control_change channel=2 control=1 value=65 time=0
the msg is pitchwheel channel=2 pitch=-2155 time=8
the msg is control_change channel=2 control=1 value=64 time=0
the msg is pitchwheel channel=2 pitch=-2401 time=8
the msg is control_change channel=2 control=1 value=62 time=0
the msg is pitchwheel channel=2 pitch=-2647 time=8
the msg is control_change channel=2 control=1 value=59 time=0
the msg is pitchwheel channel=2 pitch=-2894 time=8
the msg is control_change channel=2 control=1 value=58 time=0
the msg is control_change channel=2 control=1 value=56 time=8
the msg is pitchwheel channel=2 pitch=-3140 time=0
the msg is pitchwheel channel=2 pitch=-3879 time=8
the msg is control_change channel=2 control=1 value=55 time=0
the msg is pitchwheel channel=2 pitch=-4125 time=8
the msg is control_change channel=2 control=1 value=53 time=0
the msg is control_change channel=2 control=1 value=52 time=8
the msg is pitchwheel channel=2 pitch=-4372 time=0
the msg is control_change channel=2 control=1 value=51 time=8
the msg is pitchwheel channel=2 pitch=-4618 time=0
the msg is control_change channel=2 control=1 value=49 time=8
the msg is pitchwheel channel=2 pitch=-5357 time=0
the msg is control_change channel=2 control=1 value=48 time=8
the msg is pitchwheel channel=2 pitch=-5727 time=0
the msg is pitchwheel channel=2 pitch=-5973 time=8
the msg is control_change channel=2 control=1 value=46 time=0
the msg is pitchwheel channel=2 pitch=-6219 time=8
the msg is control_change channel=2 control=1 value=43 time=0
the msg is control_change channel=2 control=1 value=42 time=8
the msg is pitchwheel channel=2 pitch=-6589 time=0
the msg is pitchwheel channel=2 pitch=-6835 time=8
the msg is control_change channel=2 control=1 value=39 time=0
the msg is pitchwheel channel=2 pitch=-7205 time=8
the msg is control_change channel=2 control=1 value=36 time=0
the msg is control_change channel=2 control=1 value=35 time=8
the msg is pitchwheel channel=2 pitch=-7451 time=0
the msg is pitchwheel channel=2 pitch=-7820 time=8
the msg is control_change channel=2 control=1 value=33 time=0
the msg is control_change channel=2 control=1 value=32 time=8
the msg is pitchwheel channel=2 pitch=-8067 time=0
the msg is pitchwheel channel=2 pitch=-8190 time=8
the msg is control_change channel=2 control=1 value=29 time=8
the msg is note_on channel=2 note=66 velocity=0 time=7
the msg is note_on channel=2 note=59 velocity=127 time=1
the msg is pitchwheel channel=2 pitch=0 time=0
the msg is control_change channel=2 control=1 value=0 time=8
the msg is note_on channel=2 note=59 velocity=0 time=51
the msg is note_on channel=2 note=61 velocity=127 time=61
the msg is pitchwheel channel=2 pitch=6097 time=24
the msg is pitchwheel channel=2 pitch=0 time=16
the msg is pitchwheel channel=2 pitch=6097 time=16
the msg is pitchwheel channel=2 pitch=0 time=16
the msg is pitchwheel channel=2 pitch=6097 time=16
the msg is pitchwheel channel=2 pitch=0 time=16
the msg is note_on channel=2 note=61 velocity=0 time=15
the msg is note_on channel=2 note=59 velocity=127 time=1
the msg is note_on channel=2 note=59 velocity=0 time=59
the msg is note_on channel=2 note=61 velocity=127 time=61
the msg is pitchwheel channel=2 pitch=6097 time=24
the msg is pitchwheel channel=2 pitch=0 time=16
the msg is pitchwheel channel=2 pitch=6097 time=16
the msg is pitchwheel channel=2 pitch=0 time=16
the msg is pitchwheel channel=2 pitch=6097 time=16
the msg is pitchwheel channel=2 pitch=0 time=16
the msg is note_on channel=2 note=61 velocity=0 time=15
the msg is note_on channel=2 note=59 velocity=127 time=1
the msg is note_on channel=2 note=59 velocity=0 time=59
the msg is note_on channel=2 note=61 velocity=127 time=1
the msg is note_on channel=2 note=61 velocity=0 time=59
the msg is pitchwheel channel=2 pitch=-8067 time=49
the msg is pitchwheel channel=2 pitch=-6958 time=8
the msg is note_on channel=2 note=66 velocity=127 time=4
the msg is pitchwheel channel=2 pitch=-5357 time=4
the msg is pitchwheel channel=2 pitch=-4002 time=8
the msg is pitchwheel channel=2 pitch=-2647 time=8
the msg is pitchwheel channel=2 pitch=-1785 time=8
the msg is pitchwheel channel=2 pitch=-1415 time=8
the msg is pitchwheel channel=2 pitch=-1046 time=8
the msg is pitchwheel channel=2 pitch=-553 time=8
the msg is pitchwheel channel=2 pitch=0 time=8
the msg is note_on channel=2 note=66 velocity=0 time=59
the msg is note_on channel=2 note=65 velocity=127 time=1
the msg is note_on channel=2 note=65 velocity=0 time=59
the msg is note_on channel=2 note=63 velocity=127 time=1
the msg is note_on channel=2 note=63 velocity=0 time=59
the msg is note_on channel=2 note=61 velocity=127 time=1
the msg is note_on channel=2 note=61 velocity=0 time=59
the msg is note_on channel=2 note=59 velocity=127 time=1
the msg is note_on channel=2 note=59 velocity=0 time=59
the msg is note_on channel=2 note=61 velocity=127 time=61
the msg is pitchwheel channel=2 pitch=6220 time=24
the msg is pitchwheel channel=2 pitch=0 time=16
the msg is pitchwheel channel=2 pitch=6220 time=16
the msg is pitchwheel channel=2 pitch=0 time=16
the msg is pitchwheel channel=2 pitch=6220 time=16
the msg is pitchwheel channel=2 pitch=0 time=16
the msg is note_on channel=2 note=61 velocity=0 time=15
the msg is note_on channel=2 note=59 velocity=127 time=1
the msg is note_on channel=2 note=59 velocity=0 time=59
the msg is note_on channel=2 note=61 velocity=127 time=61
the msg is pitchwheel channel=2 pitch=6220 time=24
the msg is pitchwheel channel=2 pitch=0 time=16
the msg is pitchwheel channel=2 pitch=6220 time=16
the msg is pitchwheel channel=2 pitch=0 time=16
the msg is pitchwheel channel=2 pitch=6220 time=16
the msg is pitchwheel channel=2 pitch=0 time=16
the msg is note_on channel=2 note=61 velocity=0 time=15
the msg is note_on channel=2 note=59 velocity=127 time=1
the msg is note_on channel=2 note=59 velocity=0 time=59
the msg is note_on channel=2 note=61 velocity=127 time=1
the msg is note_on channel=2 note=61 velocity=0 time=59
the msg is note_on channel=2 note=64 velocity=127 time=61
the msg is pitchwheel channel=2 pitch=-8067 time=116
the msg is pitchwheel channel=2 pitch=0 time=16
the msg is pitchwheel channel=2 pitch=-8191 time=48
the msg is pitchwheel channel=2 pitch=0 time=16
the msg is pitchwheel channel=2 pitch=-8067 time=48
the msg is pitchwheel channel=2 pitch=0 time=16
the msg is note_on channel=2 note=64 velocity=0 time=39
the msg is note_on channel=2 note=59 velocity=127 time=1
the msg is note_on channel=2 note=59 velocity=0 time=59
the msg is note_on channel=2 note=61 velocity=127 time=61
the msg is pitchwheel channel=2 pitch=6343 time=24
the msg is pitchwheel channel=2 pitch=0 time=16
the msg is pitchwheel channel=2 pitch=6343 time=16
the msg is pitchwheel channel=2 pitch=0 time=16
the msg is pitchwheel channel=2 pitch=6343 time=16
the msg is pitchwheel channel=2 pitch=0 time=16
the msg is note_on channel=2 note=61 velocity=0 time=15
the msg is note_on channel=2 note=59 velocity=127 time=1
the msg is note_on channel=2 note=59 velocity=0 time=59
the msg is note_on channel=2 note=61 velocity=127 time=61
the msg is pitchwheel channel=2 pitch=6343 time=24
the msg is pitchwheel channel=2 pitch=0 time=16
the msg is pitchwheel channel=2 pitch=6343 time=16
the msg is pitchwheel channel=2 pitch=0 time=16
the msg is pitchwheel channel=2 pitch=6343 time=16
the msg is pitchwheel channel=2 pitch=0 time=16
the msg is note_on channel=2 note=61 velocity=0 time=15
the msg is note_on channel=2 note=59 velocity=127 time=1
the msg is note_on channel=2 note=59 velocity=0 time=59
the msg is note_on channel=2 note=61 velocity=127 time=1
the msg is note_on channel=2 note=61 velocity=0 time=59
the msg is pitchwheel channel=2 pitch=-8067 time=49
the msg is pitchwheel channel=2 pitch=-7081 time=8
the msg is note_on channel=2 note=66 velocity=127 time=4
the msg is pitchwheel channel=2 pitch=-5850 time=4
the msg is pitchwheel channel=2 pitch=-4741 time=8
the msg is pitchwheel channel=2 pitch=-3509 time=8
the msg is pitchwheel channel=2 pitch=-2401 time=8
the msg is pitchwheel channel=2 pitch=-1415 time=8
the msg is pitchwheel channel=2 pitch=-923 time=8
the msg is pitchwheel channel=2 pitch=-430 time=8
the msg is pitchwheel channel=2 pitch=0 time=8
the msg is note_on channel=2 note=66 velocity=0 time=59
the msg is note_on channel=2 note=65 velocity=127 time=1
the msg is note_on channel=2 note=65 velocity=0 time=59
the msg is note_on channel=2 note=63 velocity=127 time=1
the msg is note_on channel=2 note=63 velocity=0 time=59
the msg is note_on channel=2 note=61 velocity=127 time=1
the msg is note_on channel=2 note=61 velocity=0 time=59
the msg is note_on channel=2 note=59 velocity=127 time=1
the msg is note_on channel=2 note=59 velocity=0 time=59
the msg is note_on channel=2 note=61 velocity=127 time=61
the msg is pitchwheel channel=2 pitch=6467 time=24
the msg is pitchwheel channel=2 pitch=0 time=16
the msg is pitchwheel channel=2 pitch=6467 time=16
the msg is pitchwheel channel=2 pitch=0 time=16
the msg is pitchwheel channel=2 pitch=6467 time=16
the msg is pitchwheel channel=2 pitch=0 time=16
the msg is note_on channel=2 note=61 velocity=0 time=15
the msg is note_on channel=2 note=59 velocity=127 time=1
the msg is note_on channel=2 note=59 velocity=0 time=59
the msg is note_on channel=2 note=61 velocity=127 time=61
the msg is pitchwheel channel=2 pitch=6467 time=24
the msg is pitchwheel channel=2 pitch=0 time=16
the msg is pitchwheel channel=2 pitch=6467 time=16
the msg is pitchwheel channel=2 pitch=0 time=16
the msg is pitchwheel channel=2 pitch=6467 time=16
the msg is pitchwheel channel=2 pitch=0 time=16
the msg is note_on channel=2 note=61 velocity=0 time=15
the msg is note_on channel=2 note=59 velocity=127 time=1
the msg is note_on channel=2 note=59 velocity=0 time=59
the msg is note_on channel=2 note=61 velocity=127 time=1
the msg is note_on channel=2 note=61 velocity=0 time=59
the msg is note_on channel=2 note=64 velocity=127 time=61
the msg is pitchwheel channel=2 pitch=-184 time=172
the msg is pitchwheel channel=2 pitch=-800 time=16
the msg is pitchwheel channel=2 pitch=-1539 time=8
the msg is pitchwheel channel=2 pitch=-2031 time=8
the msg is pitchwheel channel=2 pitch=-2524 time=8
the msg is pitchwheel channel=2 pitch=-3017 time=8
the msg is pitchwheel channel=2 pitch=-3509 time=8
the msg is pitchwheel channel=2 pitch=-4248 time=8
the msg is pitchwheel channel=2 pitch=-4741 time=8
the msg is pitchwheel channel=2 pitch=-5357 time=8
the msg is pitchwheel channel=2 pitch=-6096 time=8
the msg is pitchwheel channel=2 pitch=-6589 time=8
the msg is pitchwheel channel=2 pitch=-6958 time=8
the msg is pitchwheel channel=2 pitch=-7451 time=8
the msg is pitchwheel channel=2 pitch=-7820 time=8
the msg is note_on channel=2 note=64 velocity=0 time=7
the msg is pitchwheel channel=2 pitch=-4618 time=1
the msg is note_on channel=2 note=68 velocity=127 time=0
the msg is pitchwheel channel=2 pitch=-4248 time=8
the msg is pitchwheel channel=2 pitch=-3386 time=8
the msg is pitchwheel channel=2 pitch=-3140 time=8
the msg is pitchwheel channel=2 pitch=-2524 time=8
the msg is pitchwheel channel=2 pitch=-1785 time=8
the msg is pitchwheel channel=2 pitch=-1169 time=8
the msg is pitchwheel channel=2 pitch=-800 time=8
the msg is pitchwheel channel=2 pitch=0 time=8
the msg is pitchwheel channel=2 pitch=-184 time=40
the msg is pitchwheel channel=2 pitch=-61 time=8
the msg is note_on channel=2 note=68 velocity=0 time=7
the msg is note_on channel=2 note=71 velocity=127 time=1
the msg is pitchwheel channel=2 pitch=0 time=0
the msg is note_on channel=2 note=71 velocity=0 time=59
the msg is note_on channel=2 note=68 velocity=127 time=1
the msg is pitchwheel channel=2 pitch=-4618 time=4
the msg is pitchwheel channel=2 pitch=-4125 time=8
the msg is pitchwheel channel=2 pitch=-3263 time=8
the msg is pitchwheel channel=2 pitch=-3140 time=8
the msg is pitchwheel channel=2 pitch=-2647 time=8
the msg is pitchwheel channel=2 pitch=-2155 time=8
the msg is pitchwheel channel=2 pitch=-1292 time=8
the msg is pitchwheel channel=2 pitch=-923 time=8
the msg is pitchwheel channel=2 pitch=-800 time=8
the msg is pitchwheel channel=2 pitch=0 time=8
the msg is note_on channel=2 note=68 velocity=0 time=43
the msg is note_on channel=2 note=71 velocity=127 time=1
the msg is note_on channel=2 note=71 velocity=0 time=59
the msg is pitchwheel channel=2 pitch=-4618 time=1
the msg is note_on channel=2 note=68 velocity=127 time=0
the msg is pitchwheel channel=2 pitch=-3633 time=8
the msg is pitchwheel channel=2 pitch=-2894 time=8
the msg is pitchwheel channel=2 pitch=-2031 time=8
the msg is pitchwheel channel=2 pitch=-1169 time=8
the msg is pitchwheel channel=2 pitch=-430 time=8
the msg is pitchwheel channel=2 pitch=0 time=8
the msg is note_on channel=2 note=68 velocity=0 time=11
the msg is note_on channel=2 note=66 velocity=127 time=1
the msg is pitchwheel channel=2 pitch=4619 time=52
the msg is pitchwheel channel=2 pitch=0 time=32
the msg is note_on channel=2 note=66 velocity=0 time=35
the msg is note_on channel=2 note=64 velocity=127 time=1
the msg is note_on channel=2 note=64 velocity=0 time=119
the msg is note_on channel=2 note=68 velocity=127 time=1
the msg is note_on channel=2 note=68 velocity=0 time=59
the msg is note_on channel=2 note=66 velocity=127 time=1
the msg is note_on channel=2 note=66 velocity=0 time=59
the msg is note_on channel=2 note=64 velocity=127 time=1
the msg is note_on channel=2 note=64 velocity=0 time=59
the msg is note_on channel=2 note=61 velocity=127 time=1
the msg is note_on channel=2 note=61 velocity=0 time=59
the msg is note_on channel=2 note=59 velocity=127 time=1
the msg is note_on channel=2 note=59 velocity=0 time=59
the msg is note_on channel=2 note=68 velocity=127 time=1
the msg is pitchwheel channel=2 pitch=-4864 time=0
the msg is pitchwheel channel=2 pitch=-4495 time=8
the msg is pitchwheel channel=2 pitch=-4002 time=8
the msg is pitchwheel channel=2 pitch=-3633 time=8
the msg is pitchwheel channel=2 pitch=-3263 time=8
the msg is pitchwheel channel=2 pitch=-2770 time=8
the msg is pitchwheel channel=2 pitch=-2278 time=8
the msg is pitchwheel channel=2 pitch=-1785 time=8
the msg is pitchwheel channel=2 pitch=-1046 time=8
the msg is pitchwheel channel=2 pitch=-676 time=8
the msg is pitchwheel channel=2 pitch=0 time=8
the msg is note_on channel=2 note=68 velocity=0 time=39
the msg is note_on channel=2 note=71 velocity=127 time=1
the msg is pitchwheel channel=2 pitch=-4864 time=56
the msg is note_on channel=2 note=71 velocity=0 time=3
the msg is note_on channel=2 note=68 velocity=127 time=1
the msg is pitchwheel channel=2 pitch=-4248 time=4
the msg is pitchwheel channel=2 pitch=-3756 time=8
the msg is pitchwheel channel=2 pitch=-3263 time=8
the msg is pitchwheel channel=2 pitch=-3017 time=8
the msg is pitchwheel channel=2 pitch=-2401 time=8
the msg is pitchwheel channel=2 pitch=-1785 time=8
the msg is pitchwheel channel=2 pitch=-1169 time=8
the msg is pitchwheel channel=2 pitch=-800 time=8
the msg is pitchwheel channel=2 pitch=-307 time=8
the msg is pitchwheel channel=2 pitch=0 time=8
the msg is note_on channel=2 note=68 velocity=0 time=43
the msg is note_on channel=2 note=71 velocity=127 time=1
the msg is note_on channel=2 note=71 velocity=0 time=59
the msg is pitchwheel channel=2 pitch=-4864 time=1
the msg is note_on channel=2 note=68 velocity=127 time=0
the msg is pitchwheel channel=2 pitch=-3879 time=8
the msg is pitchwheel channel=2 pitch=-2894 time=8
the msg is pitchwheel channel=2 pitch=-2031 time=8
the msg is pitchwheel channel=2 pitch=-1169 time=8
the msg is pitchwheel channel=2 pitch=-430 time=8
the msg is pitchwheel channel=2 pitch=0 time=8
the msg is note_on channel=2 note=68 velocity=0 time=11
the msg is note_on channel=2 note=66 velocity=127 time=1
the msg is pitchwheel channel=2 pitch=4742 time=52
the msg is pitchwheel channel=2 pitch=0 time=32
the msg is note_on channel=2 note=66 velocity=0 time=35
the msg is note_on channel=2 note=64 velocity=127 time=1
the msg is note_on channel=2 note=64 velocity=0 time=119
the msg is note_on channel=2 note=68 velocity=127 time=1
the msg is note_on channel=2 note=68 velocity=0 time=59
the msg is note_on channel=2 note=66 velocity=127 time=1
the msg is note_on channel=2 note=66 velocity=0 time=59
the msg is note_on channel=2 note=64 velocity=127 time=1
the msg is note_on channel=2 note=64 velocity=0 time=59
the msg is note_on channel=2 note=61 velocity=127 time=1
the msg is note_on channel=2 note=61 velocity=0 time=59
the msg is note_on channel=2 note=59 velocity=127 time=1
the msg is note_on channel=2 note=59 velocity=0 time=59
the msg is note_on channel=2 note=59 velocity=127 time=1
the msg is pitchwheel channel=2 pitch=-4741 time=0
the msg is pitchwheel channel=2 pitch=0 time=0
the msg is pitchwheel channel=2 pitch=0 time=0
the msg is note_on channel=2 note=59 velocity=0 time=59
the msg is note_on channel=2 note=61 velocity=127 time=61
the msg is pitchwheel channel=2 pitch=6097 time=24
the msg is pitchwheel channel=2 pitch=0 time=16
the msg is pitchwheel channel=2 pitch=6097 time=16
the msg is pitchwheel channel=2 pitch=0 time=16
the msg is pitchwheel channel=2 pitch=6097 time=16
the msg is pitchwheel channel=2 pitch=0 time=16
the msg is note_on channel=2 note=61 velocity=0 time=15
the msg is note_on channel=2 note=59 velocity=127 time=1
the msg is note_on channel=2 note=59 velocity=0 time=59
the msg is note_on channel=2 note=61 velocity=127 time=61
the msg is pitchwheel channel=2 pitch=6097 time=24
the msg is pitchwheel channel=2 pitch=0 time=16
the msg is pitchwheel channel=2 pitch=6097 time=16
the msg is pitchwheel channel=2 pitch=0 time=16
the msg is pitchwheel channel=2 pitch=6097 time=16
the msg is pitchwheel channel=2 pitch=0 time=16
the msg is note_on channel=2 note=61 velocity=0 time=15
the msg is note_on channel=2 note=59 velocity=127 time=1
the msg is note_on channel=2 note=59 velocity=0 time=59
the msg is note_on channel=2 note=61 velocity=127 time=1
the msg is note_on channel=2 note=61 velocity=0 time=59
the msg is pitchwheel channel=2 pitch=-8067 time=49
the msg is pitchwheel channel=2 pitch=-6958 time=8
the msg is note_on channel=2 note=66 velocity=127 time=4
the msg is pitchwheel channel=2 pitch=-5357 time=4
the msg is pitchwheel channel=2 pitch=-4002 time=8
the msg is pitchwheel channel=2 pitch=-2647 time=8
the msg is pitchwheel channel=2 pitch=-1785 time=8
the msg is pitchwheel channel=2 pitch=-1415 time=8
the msg is pitchwheel channel=2 pitch=-1046 time=8
the msg is pitchwheel channel=2 pitch=-553 time=8
the msg is pitchwheel channel=2 pitch=0 time=8
the msg is note_on channel=2 note=66 velocity=0 time=59
the msg is note_on channel=2 note=65 velocity=127 time=1
the msg is note_on channel=2 note=65 velocity=0 time=59
the msg is note_on channel=2 note=63 velocity=127 time=1
the msg is note_on channel=2 note=63 velocity=0 time=59
the msg is note_on channel=2 note=61 velocity=127 time=1
the msg is note_on channel=2 note=61 velocity=0 time=59
the msg is note_on channel=2 note=59 velocity=127 time=1
the msg is note_on channel=2 note=59 velocity=0 time=59
the msg is note_on channel=2 note=61 velocity=127 time=61
the msg is pitchwheel channel=2 pitch=6220 time=24
the msg is pitchwheel channel=2 pitch=0 time=16
the msg is pitchwheel channel=2 pitch=6220 time=16
the msg is pitchwheel channel=2 pitch=0 time=16
the msg is pitchwheel channel=2 pitch=6220 time=16
the msg is pitchwheel channel=2 pitch=0 time=16
the msg is note_on channel=2 note=61 velocity=0 time=15
the msg is note_on channel=2 note=59 velocity=127 time=1
the msg is note_on channel=2 note=59 velocity=0 time=59
the msg is note_on channel=2 note=61 velocity=127 time=61
the msg is pitchwheel channel=2 pitch=6220 time=24
the msg is pitchwheel channel=2 pitch=0 time=16
the msg is pitchwheel channel=2 pitch=6220 time=16
the msg is pitchwheel channel=2 pitch=0 time=16
the msg is pitchwheel channel=2 pitch=6220 time=16
the msg is pitchwheel channel=2 pitch=0 time=16
the msg is note_on channel=2 note=61 velocity=0 time=15
the msg is note_on channel=2 note=59 velocity=127 time=1
the msg is note_on channel=2 note=59 velocity=0 time=59
the msg is note_on channel=2 note=61 velocity=127 time=1
the msg is note_on channel=2 note=61 velocity=0 time=59
the msg is note_on channel=2 note=64 velocity=127 time=61
the msg is pitchwheel channel=2 pitch=-8067 time=116
the msg is pitchwheel channel=2 pitch=0 time=16
the msg is pitchwheel channel=2 pitch=-8191 time=48
the msg is pitchwheel channel=2 pitch=0 time=16
the msg is pitchwheel channel=2 pitch=-8067 time=48
the msg is pitchwheel channel=2 pitch=0 time=16
the msg is note_on channel=2 note=64 velocity=0 time=39
the msg is note_on channel=2 note=59 velocity=127 time=1
the msg is note_on channel=2 note=59 velocity=0 time=59
the msg is note_on channel=2 note=61 velocity=127 time=61
the msg is pitchwheel channel=2 pitch=6343 time=24
the msg is pitchwheel channel=2 pitch=0 time=16
the msg is pitchwheel channel=2 pitch=6343 time=16
the msg is pitchwheel channel=2 pitch=0 time=16
the msg is pitchwheel channel=2 pitch=6343 time=16
the msg is pitchwheel channel=2 pitch=0 time=16
the msg is note_on channel=2 note=61 velocity=0 time=15
the msg is note_on channel=2 note=59 velocity=127 time=1
the msg is note_on channel=2 note=59 velocity=0 time=59
the msg is note_on channel=2 note=61 velocity=127 time=61
the msg is pitchwheel channel=2 pitch=6343 time=24
the msg is pitchwheel channel=2 pitch=0 time=16
the msg is pitchwheel channel=2 pitch=6343 time=16
the msg is pitchwheel channel=2 pitch=0 time=16
the msg is pitchwheel channel=2 pitch=6343 time=16
the msg is pitchwheel channel=2 pitch=0 time=16
the msg is note_on channel=2 note=61 velocity=0 time=15
the msg is note_on channel=2 note=59 velocity=127 time=1
the msg is note_on channel=2 note=59 velocity=0 time=59
the msg is note_on channel=2 note=61 velocity=127 time=1
the msg is note_on channel=2 note=61 velocity=0 time=59
the msg is pitchwheel channel=2 pitch=-8067 time=49
the msg is pitchwheel channel=2 pitch=-7081 time=8
the msg is note_on channel=2 note=66 velocity=127 time=4
the msg is pitchwheel channel=2 pitch=-5850 time=4
the msg is pitchwheel channel=2 pitch=-4741 time=8
the msg is pitchwheel channel=2 pitch=-3509 time=8
the msg is pitchwheel channel=2 pitch=-2401 time=8
the msg is pitchwheel channel=2 pitch=-1415 time=8
the msg is pitchwheel channel=2 pitch=-923 time=8
the msg is pitchwheel channel=2 pitch=-430 time=8
the msg is pitchwheel channel=2 pitch=0 time=8
the msg is note_on channel=2 note=66 velocity=0 time=59
the msg is note_on channel=2 note=65 velocity=127 time=1
the msg is note_on channel=2 note=65 velocity=0 time=59
the msg is note_on channel=2 note=63 velocity=127 time=1
the msg is note_on channel=2 note=63 velocity=0 time=59
the msg is note_on channel=2 note=61 velocity=127 time=1
the msg is note_on channel=2 note=61 velocity=0 time=59
the msg is note_on channel=2 note=59 velocity=127 time=1
the msg is note_on channel=2 note=59 velocity=0 time=59
the msg is note_on channel=2 note=61 velocity=127 time=61
the msg is pitchwheel channel=2 pitch=6467 time=24
the msg is pitchwheel channel=2 pitch=0 time=16
the msg is pitchwheel channel=2 pitch=6467 time=16
the msg is pitchwheel channel=2 pitch=0 time=16
the msg is pitchwheel channel=2 pitch=6467 time=16
the msg is pitchwheel channel=2 pitch=0 time=16
the msg is note_on channel=2 note=61 velocity=0 time=15
the msg is note_on channel=2 note=59 velocity=127 time=1
the msg is note_on channel=2 note=59 velocity=0 time=59
the msg is note_on channel=2 note=61 velocity=127 time=61
the msg is pitchwheel channel=2 pitch=6467 time=24
the msg is pitchwheel channel=2 pitch=0 time=16
the msg is pitchwheel channel=2 pitch=6467 time=16
the msg is pitchwheel channel=2 pitch=0 time=16
the msg is pitchwheel channel=2 pitch=6467 time=16
the msg is pitchwheel channel=2 pitch=0 time=16
the msg is note_on channel=2 note=61 velocity=0 time=15
the msg is note_on channel=2 note=59 velocity=127 time=1
the msg is note_on channel=2 note=59 velocity=0 time=59
the msg is note_on channel=2 note=61 velocity=127 time=1
the msg is note_on channel=2 note=61 velocity=0 time=59
the msg is note_on channel=2 note=64 velocity=127 time=61
the msg is pitchwheel channel=2 pitch=-184 time=172
the msg is pitchwheel channel=2 pitch=-184 time=0
the msg is pitchwheel channel=2 pitch=-800 time=16
the msg is pitchwheel channel=2 pitch=-800 time=0
the msg is pitchwheel channel=2 pitch=-1539 time=8
the msg is pitchwheel channel=2 pitch=-1539 time=0
the msg is pitchwheel channel=2 pitch=-2031 time=8
the msg is pitchwheel channel=2 pitch=-2031 time=0
the msg is pitchwheel channel=2 pitch=-2524 time=8
the msg is pitchwheel channel=2 pitch=-2524 time=0
the msg is pitchwheel channel=2 pitch=-3017 time=8
the msg is pitchwheel channel=2 pitch=-3017 time=0
the msg is pitchwheel channel=2 pitch=-3509 time=8
the msg is pitchwheel channel=2 pitch=-3509 time=0
the msg is pitchwheel channel=2 pitch=-4248 time=8
the msg is pitchwheel channel=2 pitch=-4248 time=0
the msg is pitchwheel channel=2 pitch=-4741 time=8
the msg is pitchwheel channel=2 pitch=-4741 time=0
the msg is pitchwheel channel=2 pitch=-5357 time=8
the msg is pitchwheel channel=2 pitch=-5357 time=0
the msg is pitchwheel channel=2 pitch=-6096 time=8
the msg is pitchwheel channel=2 pitch=-6096 time=0
the msg is pitchwheel channel=2 pitch=-6589 time=8
the msg is pitchwheel channel=2 pitch=-6589 time=0
the msg is pitchwheel channel=2 pitch=-6958 time=8
the msg is pitchwheel channel=2 pitch=-6958 time=0
the msg is pitchwheel channel=2 pitch=-7451 time=8
the msg is pitchwheel channel=2 pitch=-7451 time=0
the msg is pitchwheel channel=2 pitch=-7820 time=8
the msg is pitchwheel channel=2 pitch=-7820 time=0
the msg is note_on channel=2 note=64 velocity=0 time=7
the msg is pitchwheel channel=2 pitch=-8067 time=1
the msg is pitchwheel channel=2 pitch=-4618 time=0
the msg is note_on channel=2 note=73 velocity=127 time=0
the msg is pitchwheel channel=2 pitch=-4618 time=0
the msg is pitchwheel channel=2 pitch=-7081 time=8
the msg is pitchwheel channel=2 pitch=-5603 time=8
the msg is pitchwheel channel=2 pitch=-4248 time=8
the msg is pitchwheel channel=2 pitch=-3017 time=8
the msg is pitchwheel channel=2 pitch=-2155 time=8
the msg is pitchwheel channel=2 pitch=-1415 time=8
the msg is pitchwheel channel=2 pitch=-1046 time=8
the msg is pitchwheel channel=2 pitch=-800 time=8
the msg is pitchwheel channel=2 pitch=-553 time=8
the msg is pitchwheel channel=2 pitch=0 time=8
the msg is note_on channel=2 note=73 velocity=0 time=219
the msg is note_on channel=2 note=71 velocity=127 time=1
the msg is note_on channel=2 note=71 velocity=0 time=119
the msg is note_on channel=2 note=68 velocity=127 time=1
the msg is pitchwheel channel=2 pitch=-4864 time=4
the msg is pitchwheel channel=2 pitch=-3756 time=8
the msg is pitchwheel channel=2 pitch=-2770 time=8
the msg is pitchwheel channel=2 pitch=-2031 time=8
the msg is pitchwheel channel=2 pitch=-1415 time=8
the msg is pitchwheel channel=2 pitch=-676 time=8
the msg is pitchwheel channel=2 pitch=-307 time=8
the msg is pitchwheel channel=2 pitch=0 time=8
the msg is note_on channel=2 note=68 velocity=0 time=59
the msg is note_on channel=2 note=71 velocity=127 time=1
the msg is note_on channel=2 note=71 velocity=0 time=59
the msg is note_on channel=2 note=68 velocity=127 time=1
the msg is note_on channel=2 note=68 velocity=0 time=59
the msg is note_on channel=2 note=66 velocity=127 time=1
the msg is pitchwheel channel=2 pitch=4989 time=52
the msg is pitchwheel channel=2 pitch=0 time=32
the msg is note_on channel=2 note=66 velocity=0 time=35
the msg is note_on channel=2 note=68 velocity=127 time=1
the msg is note_on channel=2 note=68 velocity=0 time=119
the msg is note_on channel=2 note=71 velocity=127 time=1
the msg is note_on channel=2 note=71 velocity=0 time=59
the msg is pitchwheel channel=2 pitch=-8067 time=1
the msg is note_on channel=2 note=73 velocity=127 time=0
the msg is pitchwheel channel=2 pitch=-6219 time=8
the msg is pitchwheel channel=2 pitch=-4372 time=8
the msg is pitchwheel channel=2 pitch=-3017 time=8
the msg is pitchwheel channel=2 pitch=-1785 time=8
the msg is pitchwheel channel=2 pitch=-1046 time=8
the msg is pitchwheel channel=2 pitch=-430 time=8
the msg is pitchwheel channel=2 pitch=0 time=8
the msg is pitchwheel channel=2 pitch=2771 time=24
the msg is pitchwheel channel=2 pitch=0 time=24
the msg is pitchwheel channel=2 pitch=2771 time=24
the msg is pitchwheel channel=2 pitch=0 time=24
the msg is pitchwheel channel=2 pitch=2771 time=24
the msg is pitchwheel channel=2 pitch=0 time=24
the msg is pitchwheel channel=2 pitch=2771 time=24
the msg is pitchwheel channel=2 pitch=0 time=24
the msg is note_on channel=2 note=73 velocity=0 time=51
the msg is note_on channel=2 note=71 velocity=127 time=1
the msg is note_on channel=2 note=71 velocity=0 time=119
the msg is note_on channel=2 note=76 velocity=127 time=1
the msg is pitchwheel channel=2 pitch=-8067 time=4
the msg is pitchwheel channel=2 pitch=-6342 time=8
the msg is pitchwheel channel=2 pitch=-4495 time=8
the msg is pitchwheel channel=2 pitch=-3140 time=8
the msg is pitchwheel channel=2 pitch=-1908 time=8
the msg is pitchwheel channel=2 pitch=-1169 time=8
the msg is pitchwheel channel=2 pitch=-430 time=8
the msg is pitchwheel channel=2 pitch=0 time=8
the msg is note_on channel=2 note=76 velocity=0 time=59
the msg is note_on channel=2 note=78 velocity=127 time=1
the msg is note_on channel=2 note=78 velocity=0 time=239
the msg is note_on channel=2 note=78 velocity=127 time=1
the msg is note_on channel=2 note=78 velocity=0 time=119
the msg is note_on channel=2 note=76 velocity=127 time=1
the msg is note_on channel=2 note=76 velocity=0 time=59
the msg is note_on channel=2 note=73 velocity=127 time=1
the msg is note_on channel=2 note=73 velocity=127 time=0
the msg is program_change channel=2 program=29 time=0
the msg is control_change channel=2 control=11 value=124 time=48
the msg is control_change channel=2 control=11 value=123 time=16
the msg is control_change channel=2 control=11 value=121 time=8
the msg is control_change channel=2 control=11 value=120 time=8
the msg is control_change channel=2 control=11 value=118 time=8
the msg is control_change channel=2 control=11 value=115 time=8
the msg is control_change channel=2 control=11 value=114 time=16
the msg is control_change channel=2 control=11 value=113 time=8
the msg is control_change channel=2 control=11 value=111 time=24
the msg is control_change channel=2 control=11 value=110 time=24
the msg is control_change channel=2 control=11 value=108 time=16
the msg is control_change channel=2 control=11 value=107 time=16
the msg is control_change channel=2 control=11 value=105 time=24
the msg is control_change channel=2 control=11 value=104 time=16
the msg is control_change channel=2 control=11 value=102 time=32
the msg is control_change channel=2 control=11 value=101 time=8
the msg is control_change channel=2 control=11 value=100 time=32
the msg is control_change channel=2 control=11 value=98 time=16
the msg is control_change channel=2 control=11 value=97 time=8
the msg is control_change channel=2 control=11 value=95 time=8
the msg is control_change channel=2 control=11 value=94 time=16
the msg is control_change channel=2 control=11 value=92 time=16
the msg is control_change channel=2 control=11 value=91 time=8
the msg is control_change channel=2 control=11 value=89 time=32
the msg is control_change channel=2 control=11 value=88 time=16
the msg is control_change channel=2 control=11 value=87 time=8
the msg is control_change channel=2 control=11 value=85 time=80
the msg is control_change channel=2 control=11 value=84 time=32
the msg is control_change channel=2 control=11 value=82 time=24
the msg is control_change channel=2 control=11 value=81 time=8
the msg is control_change channel=2 control=11 value=79 time=40
the msg is control_change channel=2 control=11 value=78 time=8
the msg is control_change channel=2 control=11 value=76 time=72
the msg is control_change channel=2 control=11 value=75 time=24
the msg is control_change channel=2 control=11 value=74 time=24
the msg is control_change channel=2 control=11 value=72 time=24
the msg is control_change channel=2 control=11 value=64 time=8
the msg is control_change channel=2 control=11 value=61 time=112
the msg is control_change channel=2 control=11 value=59 time=16
the msg is control_change channel=2 control=11 value=58 time=16
the msg is control_change channel=2 control=11 value=56 time=16
the msg is note_on channel=2 note=73 velocity=0 time=15
the msg is note_on channel=2 note=73 velocity=0 time=0
the msg is control_change channel=2 control=11 value=55 time=9
the msg is control_change channel=2 control=11 value=53 time=16
the msg is control_change channel=2 control=11 value=52 time=16
the msg is control_change channel=2 control=11 value=127 time=16
the msg is control_change channel=2 control=11 value=125 time=424
the msg is control_change channel=2 control=11 value=124 time=8
the msg is control_change channel=2 control=11 value=123 time=8
the msg is control_change channel=2 control=11 value=122 time=16
the msg is control_change channel=2 control=11 value=121 time=24
the msg is control_change channel=2 control=11 value=120 time=16
the msg is control_change channel=2 control=11 value=119 time=24
the msg is control_change channel=2 control=11 value=118 time=16
the msg is control_change channel=2 control=11 value=117 time=24
the msg is control_change channel=2 control=11 value=116 time=48
the msg is control_change channel=2 control=11 value=115 time=120
the msg is control_change channel=2 control=11 value=114 time=8
the msg is control_change channel=2 control=11 value=113 time=8
the msg is control_change channel=2 control=11 value=111 time=8
the msg is control_change channel=2 control=11 value=109 time=8
the msg is control_change channel=2 control=11 value=108 time=8
the msg is control_change channel=2 control=11 value=107 time=8
the msg is control_change channel=2 control=11 value=105 time=16
the msg is control_change channel=2 control=11 value=104 time=8
the msg is control_change channel=2 control=11 value=103 time=24
the msg is control_change channel=2 control=11 value=102 time=8
the msg is control_change channel=2 control=11 value=101 time=8
the msg is control_change channel=2 control=11 value=100 time=8
the msg is control_change channel=2 control=11 value=99 time=16
the msg is control_change channel=2 control=11 value=98 time=8
the msg is control_change channel=2 control=11 value=97 time=16
the msg is pitchwheel channel=2 pitch=-3509 time=8
the msg is control_change channel=2 control=11 value=96 time=0
the msg is control_change channel=2 control=11 value=95 time=8
the msg is pitchwheel channel=2 pitch=-3386 time=0
the msg is note_on channel=2 note=71 velocity=127 time=0
the msg is pitchwheel channel=2 pitch=-3140 time=8
the msg is pitchwheel channel=2 pitch=-3017 time=8
the msg is pitchwheel channel=2 pitch=-2647 time=8
the msg is control_change channel=2 control=11 value=94 time=0
the msg is pitchwheel channel=2 pitch=-2278 time=8
the msg is control_change channel=2 control=11 value=93 time=0
the msg is control_change channel=2 control=11 value=92 time=8
the msg is pitchwheel channel=2 pitch=-1785 time=0
the msg is pitchwheel channel=2 pitch=-1292 time=8
the msg is pitchwheel channel=2 pitch=-1046 time=8
the msg is control_change channel=2 control=11 value=91 time=0
the msg is pitchwheel channel=2 pitch=-800 time=8
the msg is pitchwheel channel=2 pitch=-430 time=8
the msg is pitchwheel channel=2 pitch=-61 time=8
the msg is control_change channel=2 control=11 value=90 time=0
the msg is control_change channel=2 control=11 value=89 time=8
the msg is pitchwheel channel=2 pitch=62 time=0
the msg is pitchwheel channel=2 pitch=0 time=8
the msg is control_change channel=2 control=11 value=88 time=8
the msg is note_on channel=2 note=71 velocity=0 time=15
the msg is note_on channel=2 note=70 velocity=127 time=1
the msg is control_change channel=2 control=11 value=87 time=8
the msg is control_change channel=2 control=11 value=86 time=16
the msg is control_change channel=2 control=11 value=85 time=8
the msg is control_change channel=2 control=11 value=84 time=24
the msg is note_on channel=2 note=70 velocity=0 time=3
the msg is note_on channel=2 note=68 velocity=127 time=1
the msg is control_change channel=2 control=11 value=83 time=4
the msg is control_change channel=2 control=11 value=82 time=48
the msg is note_on channel=2 note=68 velocity=0 time=7
the msg is note_on channel=2 note=66 velocity=127 time=1
the msg is control_change channel=2 control=11 value=81 time=0
the msg is control_change channel=2 control=11 value=80 time=16
the msg is control_change channel=2 control=11 value=79 time=24
the msg is control_change channel=2 control=11 value=78 time=24
the msg is control_change channel=2 control=11 value=77 time=16
the msg is control_change channel=2 control=11 value=75 time=16
the msg is control_change channel=2 control=11 value=74 time=16
the msg is note_on channel=2 note=66 velocity=0 time=7
the msg is note_on channel=2 note=68 velocity=127 time=1
the msg is control_change channel=2 control=11 value=73 time=24
the msg is control_change channel=2 control=11 value=72 time=8
the msg is control_change channel=2 control=11 value=71 time=16
the msg is control_change channel=2 control=11 value=70 time=8
the msg is note_on channel=2 note=68 velocity=0 time=3
the msg is note_on channel=2 note=64 velocity=127 time=1
the msg is control_change channel=2 control=11 value=69 time=4
the msg is control_change channel=2 control=11 value=68 time=8
the msg is control_change channel=2 control=11 value=67 time=8
the msg is control_change channel=2 control=11 value=66 time=8
the msg is control_change channel=2 control=11 value=65 time=8
the msg is control_change channel=2 control=11 value=64 time=16
the msg is pitchwheel channel=2 pitch=5604 time=8
the msg is control_change channel=2 control=11 value=63 time=0
the msg is control_change channel=2 control=11 value=62 time=8
the msg is control_change channel=2 control=11 value=61 time=8
the msg is control_change channel=2 control=11 value=60 time=8
the msg is pitchwheel channel=2 pitch=0 time=8
the msg is control_change channel=2 control=11 value=59 time=0
the msg is control_change channel=2 control=11 value=58 time=16
the msg is control_change channel=2 control=11 value=57 time=8
the msg is pitchwheel channel=2 pitch=4989 time=8
the msg is control_change channel=2 control=11 value=56 time=16
the msg is pitchwheel channel=2 pitch=0 time=0
the msg is control_change channel=2 control=11 value=55 time=32
the msg is pitchwheel channel=2 pitch=4989 time=8
the msg is control_change channel=2 control=11 value=54 time=16
the msg is pitchwheel channel=2 pitch=0 time=0
the msg is control_change channel=2 control=11 value=53 time=16
the msg is control_change channel=2 control=11 value=52 time=16
the msg is note_on channel=2 note=64 velocity=0 time=11
the msg is note_on channel=2 note=61 velocity=127 time=1
the msg is control_change channel=2 control=11 value=51 time=4
the msg is control_change channel=2 control=11 value=50 time=8
the msg is control_change channel=2 control=11 value=49 time=8
the msg is control_change channel=2 control=11 value=47 time=8
the msg is control_change channel=2 control=11 value=46 time=8
the msg is note_on channel=2 note=61 velocity=0 time=23
the msg is note_on channel=2 note=64 velocity=127 time=1
the msg is control_change channel=2 control=11 value=45 time=0
the msg is control_change channel=2 control=11 value=44 time=8
the msg is control_change channel=2 control=11 value=43 time=8
the msg is control_change channel=2 control=11 value=42 time=8
the msg is control_change channel=2 control=11 value=41 time=24
the msg is control_change channel=2 control=11 value=40 time=8
the msg is note_on channel=2 note=64 velocity=0 time=3
the msg is note_on channel=2 note=66 velocity=127 time=1
the msg is control_change channel=2 control=11 value=39 time=20
the msg is control_change channel=2 control=11 value=38 time=8
the msg is control_change channel=2 control=11 value=37 time=8
the msg is control_change channel=2 control=11 value=36 time=32
the msg is control_change channel=2 control=11 value=35 time=24
the msg is control_change channel=2 control=11 value=34 time=16
the msg is control_change channel=2 control=11 value=33 time=8
the msg is note_on channel=2 note=66 velocity=0 time=3
the msg is note_on channel=2 note=68 velocity=127 time=1
the msg is pitchwheel channel=2 pitch=-4495 time=4
the msg is control_change channel=2 control=11 value=32 time=0
the msg is pitchwheel channel=2 pitch=-4248 time=8
the msg is pitchwheel channel=2 pitch=-4002 time=8
the msg is pitchwheel channel=2 pitch=-3879 time=8
the msg is pitchwheel channel=2 pitch=-3756 time=8
the msg is control_change channel=2 control=11 value=31 time=0
the msg is control_change channel=2 control=11 value=30 time=8
the msg is pitchwheel channel=2 pitch=-3633 time=0
the msg is control_change channel=2 control=11 value=29 time=8
the msg is pitchwheel channel=2 pitch=-3386 time=0
the msg is pitchwheel channel=2 pitch=-3263 time=8
the msg is control_change channel=2 control=11 value=28 time=0
the msg is pitchwheel channel=2 pitch=-3017 time=8
the msg is control_change channel=2 control=11 value=27 time=8
the msg is pitchwheel channel=2 pitch=-2894 time=0
the msg is control_change channel=2 control=11 value=26 time=8
the msg is pitchwheel channel=2 pitch=-2647 time=0
the msg is pitchwheel channel=2 pitch=-2401 time=8
the msg is control_change channel=2 control=11 value=25 time=0
the msg is pitchwheel channel=2 pitch=-2155 time=8
the msg is control_change channel=2 control=11 value=24 time=0
the msg is pitchwheel channel=2 pitch=-2031 time=8
the msg is control_change channel=2 control=11 value=23 time=0
the msg is pitchwheel channel=2 pitch=-1908 time=8
the msg is pitchwheel channel=2 pitch=-1662 time=8
the msg is control_change channel=2 control=11 value=22 time=8
the msg is pitchwheel channel=2 pitch=-1292 time=0
the msg is pitchwheel channel=2 pitch=-1046 time=8
the msg is control_change channel=2 control=11 value=21 time=0
the msg is control_change channel=2 control=11 value=20 time=8
the msg is pitchwheel channel=2 pitch=-553 time=0
the msg is pitchwheel channel=2 pitch=0 time=8
the msg is control_change channel=2 control=11 value=19 time=0
the msg is control_change channel=2 control=11 value=18 time=8
the msg is control_change channel=2 control=11 value=17 time=8
the msg is note_on channel=2 note=68 velocity=0 time=7
the msg is control_change channel=2 control=11 value=16 time=1
the msg is note_on channel=2 note=66 velocity=127 time=0
the msg is control_change channel=2 control=11 value=15 time=8
the msg is control_change channel=2 control=11 value=14 time=24
the msg is control_change channel=2 control=11 value=13 time=8
the msg is pitchwheel channel=2 pitch=5851 time=0
the msg is control_change channel=2 control=11 value=12 time=8
the msg is pitchwheel channel=2 pitch=0 time=16
the msg is control_change channel=2 control=11 value=11 time=8
the msg is pitchwheel channel=2 pitch=5481 time=24
the msg is control_change channel=2 control=11 value=10 time=8
the msg is pitchwheel channel=2 pitch=0 time=8
the msg is control_change channel=2 control=11 value=9 time=16
the msg is pitchwheel channel=2 pitch=5481 time=16
the msg is control_change channel=2 control=11 value=8 time=0
the msg is pitchwheel channel=2 pitch=0 time=16
the msg is control_change channel=2 control=11 value=7 time=16
the msg is pitchwheel channel=2 pitch=5481 time=8
the msg is control_change channel=2 control=11 value=6 time=0
the msg is pitchwheel channel=2 pitch=0 time=16
the msg is control_change channel=2 control=11 value=5 time=16
the msg is control_change channel=2 control=11 value=4 time=8
the msg is note_on channel=2 note=66 velocity=0 time=15
the msg is control_change channel=2 control=11 value=3 time=1
the msg is note_on channel=2 note=59 velocity=127 time=0
the msg is control_change channel=2 control=11 value=2 time=8
the msg is control_change channel=2 control=11 value=1 time=8
the msg is control_change channel=2 control=11 value=0 time=32
the msg is note_on channel=2 note=59 velocity=0 time=11
the msg is note_on channel=2 note=61 velocity=127 time=1
the msg is note_on channel=2 note=61 velocity=0 time=539
the msg is <meta message end_of_track time=0>
the msg is control_change channel=9 control=0 value=0 time=0
the msg is program_change channel=9 program=0 time=0
the msg is <meta message sequencer_specific data=(74, 65, 90, 50, 1, 0, 0, 0, 0, 0, 0, 0, 0, 0, 0, 0, 0, 0, 0, 0) time=0>
the msg is note_on channel=9 note=44 velocity=127 time=0
the msg is <meta message track_name name='Cymbals' time=0>
the msg is <meta message midi_port port=0 time=0>
the msg is note_on channel=9 note=57 velocity=127 time=0
the msg is note_on channel=9 note=44 velocity=0 time=29
the msg is note_on channel=9 note=44 velocity=127 time=31
the msg is note_on channel=9 note=44 velocity=0 time=29
the msg is note_on channel=9 note=44 velocity=127 time=31
the msg is note_on channel=9 note=44 velocity=0 time=29
the msg is note_on channel=9 note=44 velocity=127 time=31
the msg is note_on channel=9 note=44 velocity=0 time=29
the msg is note_on channel=9 note=44 velocity=127 time=31
the msg is note_on channel=9 note=44 velocity=0 time=29
the msg is note_on channel=9 note=44 velocity=127 time=31
the msg is note_on channel=9 note=44 velocity=0 time=29
the msg is note_on channel=9 note=44 velocity=127 time=31
the msg is note_on channel=9 note=44 velocity=0 time=29
the msg is note_on channel=9 note=44 velocity=127 time=31
the msg is note_on channel=9 note=44 velocity=0 time=29
the msg is note_on channel=9 note=57 velocity=0 time=30
the msg is note_on channel=9 note=44 velocity=127 time=1
the msg is note_on channel=9 note=44 velocity=0 time=29
the msg is note_on channel=9 note=44 velocity=127 time=31
the msg is note_on channel=9 note=44 velocity=0 time=29
the msg is note_on channel=9 note=44 velocity=127 time=31
the msg is note_on channel=9 note=44 velocity=0 time=29
the msg is note_on channel=9 note=44 velocity=127 time=31
the msg is note_on channel=9 note=44 velocity=0 time=29
the msg is note_on channel=9 note=44 velocity=127 time=31
the msg is note_on channel=9 note=44 velocity=0 time=29
the msg is note_on channel=9 note=44 velocity=127 time=31
the msg is note_on channel=9 note=44 velocity=0 time=29
the msg is note_on channel=9 note=44 velocity=127 time=31
the msg is note_on channel=9 note=44 velocity=0 time=29
the msg is note_on channel=9 note=57 velocity=127 time=1
the msg is note_on channel=9 note=57 velocity=0 time=29
the msg is note_on channel=9 note=44 velocity=127 time=1
the msg is note_on channel=9 note=44 velocity=0 time=29
the msg is note_on channel=9 note=44 velocity=127 time=31
the msg is note_on channel=9 note=49 velocity=127 time=0
the msg is note_on channel=9 note=44 velocity=0 time=29
the msg is note_on channel=9 note=49 velocity=0 time=0
the msg is note_on channel=9 note=44 velocity=127 time=31
the msg is note_on channel=9 note=44 velocity=0 time=29
the msg is note_on channel=9 note=44 velocity=127 time=31
the msg is note_on channel=9 note=44 velocity=0 time=29
the msg is note_on channel=9 note=44 velocity=127 time=31
the msg is note_on channel=9 note=44 velocity=0 time=29
the msg is note_on channel=9 note=44 velocity=127 time=31
the msg is note_on channel=9 note=44 velocity=0 time=29
the msg is note_on channel=9 note=44 velocity=127 time=31
the msg is note_on channel=9 note=44 velocity=0 time=29
the msg is note_on channel=9 note=44 velocity=127 time=31
the msg is note_on channel=9 note=44 velocity=0 time=29
the msg is note_on channel=9 note=44 velocity=127 time=31
the msg is note_on channel=9 note=44 velocity=0 time=29
the msg is note_on channel=9 note=44 velocity=127 time=31
the msg is note_on channel=9 note=44 velocity=0 time=29
the msg is note_on channel=9 note=44 velocity=127 time=31
the msg is note_on channel=9 note=44 velocity=0 time=29
the msg is note_on channel=9 note=44 velocity=127 time=31
the msg is note_on channel=9 note=44 velocity=0 time=29
the msg is note_on channel=9 note=44 velocity=127 time=31
the msg is note_on channel=9 note=44 velocity=0 time=29
the msg is note_on channel=9 note=44 velocity=127 time=31
the msg is note_on channel=9 note=44 velocity=0 time=29
the msg is note_on channel=9 note=44 velocity=127 time=31
the msg is note_on channel=9 note=44 velocity=0 time=29
the msg is note_on channel=9 note=44 velocity=127 time=31
the msg is note_on channel=9 note=44 velocity=0 time=29
the msg is note_on channel=9 note=44 velocity=127 time=31
the msg is note_on channel=9 note=44 velocity=0 time=29
the msg is note_on channel=9 note=57 velocity=127 time=31
the msg is note_on channel=9 note=44 velocity=127 time=0
the msg is note_on channel=9 note=44 velocity=0 time=29
the msg is note_on channel=9 note=44 velocity=127 time=31
the msg is note_on channel=9 note=44 velocity=0 time=29
the msg is note_on channel=9 note=44 velocity=127 time=31
the msg is note_on channel=9 note=44 velocity=0 time=29
the msg is note_on channel=9 note=44 velocity=127 time=31
the msg is note_on channel=9 note=44 velocity=0 time=29
the msg is note_on channel=9 note=44 velocity=127 time=31
the msg is note_on channel=9 note=44 velocity=0 time=29
the msg is note_on channel=9 note=44 velocity=127 time=31
the msg is note_on channel=9 note=44 velocity=0 time=29
the msg is note_on channel=9 note=44 velocity=127 time=31
the msg is note_on channel=9 note=44 velocity=0 time=29
the msg is note_on channel=9 note=44 velocity=127 time=31
the msg is note_on channel=9 note=44 velocity=0 time=29
the msg is note_on channel=9 note=57 velocity=0 time=30
the msg is note_on channel=9 note=44 velocity=127 time=1
the msg is note_on channel=9 note=44 velocity=0 time=29
the msg is note_on channel=9 note=44 velocity=127 time=31
the msg is note_on channel=9 note=44 velocity=0 time=29
the msg is note_on channel=9 note=44 velocity=127 time=31
the msg is note_on channel=9 note=44 velocity=0 time=29
the msg is note_on channel=9 note=44 velocity=127 time=31
the msg is note_on channel=9 note=44 velocity=0 time=29
the msg is note_on channel=9 note=44 velocity=127 time=31
the msg is note_on channel=9 note=44 velocity=0 time=29
the msg is note_on channel=9 note=44 velocity=127 time=31
the msg is note_on channel=9 note=44 velocity=0 time=29
the msg is note_on channel=9 note=44 velocity=127 time=31
the msg is note_on channel=9 note=44 velocity=0 time=29
the msg is note_on channel=9 note=44 velocity=127 time=31
the msg is note_on channel=9 note=44 velocity=0 time=29
the msg is note_on channel=9 note=44 velocity=127 time=31
the msg is note_on channel=9 note=44 velocity=0 time=29
the msg is note_on channel=9 note=44 velocity=127 time=31
the msg is note_on channel=9 note=44 velocity=0 time=29
the msg is note_on channel=9 note=44 velocity=127 time=31
the msg is note_on channel=9 note=44 velocity=0 time=29
the msg is note_on channel=9 note=44 velocity=127 time=31
the msg is note_on channel=9 note=44 velocity=0 time=29
the msg is note_on channel=9 note=44 velocity=127 time=31
the msg is note_on channel=9 note=44 velocity=0 time=29
the msg is note_on channel=9 note=44 velocity=127 time=31
the msg is note_on channel=9 note=44 velocity=0 time=29
the msg is note_on channel=9 note=44 velocity=127 time=31
the msg is note_on channel=9 note=44 velocity=0 time=29
the msg is note_on channel=9 note=44 velocity=127 time=31
the msg is note_on channel=9 note=44 velocity=0 time=29
the msg is note_on channel=9 note=44 velocity=127 time=31
the msg is note_on channel=9 note=44 velocity=0 time=29
the msg is note_on channel=9 note=44 velocity=127 time=31
the msg is note_on channel=9 note=44 velocity=0 time=29
the msg is note_on channel=9 note=44 velocity=127 time=31
the msg is note_on channel=9 note=44 velocity=0 time=29
the msg is note_on channel=9 note=44 velocity=127 time=31
the msg is note_on channel=9 note=44 velocity=0 time=29
the msg is note_on channel=9 note=44 velocity=127 time=31
the msg is note_on channel=9 note=44 velocity=0 time=29
the msg is note_on channel=9 note=44 velocity=127 time=31
the msg is note_on channel=9 note=44 velocity=0 time=29
the msg is note_on channel=9 note=44 velocity=127 time=31
the msg is note_on channel=9 note=44 velocity=0 time=29
the msg is note_on channel=9 note=44 velocity=127 time=31
the msg is note_on channel=9 note=44 velocity=0 time=29
the msg is note_on channel=9 note=57 velocity=127 time=31
the msg is note_on channel=9 note=44 velocity=127 time=0
the msg is note_on channel=9 note=44 velocity=0 time=29
the msg is note_on channel=9 note=44 velocity=127 time=31
the msg is note_on channel=9 note=44 velocity=0 time=29
the msg is note_on channel=9 note=44 velocity=127 time=31
the msg is note_on channel=9 note=44 velocity=0 time=29
the msg is note_on channel=9 note=44 velocity=127 time=31
the msg is note_on channel=9 note=44 velocity=0 time=29
the msg is note_on channel=9 note=44 velocity=127 time=31
the msg is note_on channel=9 note=44 velocity=0 time=29
the msg is note_on channel=9 note=44 velocity=127 time=31
the msg is note_on channel=9 note=44 velocity=0 time=29
the msg is note_on channel=9 note=44 velocity=127 time=31
the msg is note_on channel=9 note=44 velocity=0 time=29
the msg is note_on channel=9 note=44 velocity=127 time=31
the msg is note_on channel=9 note=44 velocity=0 time=29
the msg is note_on channel=9 note=57 velocity=0 time=30
the msg is note_on channel=9 note=44 velocity=127 time=1
the msg is note_on channel=9 note=44 velocity=0 time=29
the msg is note_on channel=9 note=44 velocity=127 time=31
the msg is note_on channel=9 note=44 velocity=0 time=29
the msg is note_on channel=9 note=44 velocity=127 time=31
the msg is note_on channel=9 note=44 velocity=0 time=29
the msg is note_on channel=9 note=44 velocity=127 time=31
the msg is note_on channel=9 note=44 velocity=0 time=29
the msg is note_on channel=9 note=44 velocity=127 time=31
the msg is note_on channel=9 note=44 velocity=0 time=29
the msg is note_on channel=9 note=44 velocity=127 time=31
the msg is note_on channel=9 note=44 velocity=0 time=29
the msg is note_on channel=9 note=44 velocity=127 time=31
the msg is note_on channel=9 note=44 velocity=0 time=29
the msg is note_on channel=9 note=44 velocity=127 time=31
the msg is note_on channel=9 note=44 velocity=0 time=29
the msg is note_on channel=9 note=44 velocity=127 time=31
the msg is note_on channel=9 note=44 velocity=0 time=29
the msg is note_on channel=9 note=44 velocity=127 time=31
the msg is note_on channel=9 note=44 velocity=0 time=29
the msg is note_on channel=9 note=44 velocity=127 time=31
the msg is note_on channel=9 note=44 velocity=0 time=29
the msg is note_on channel=9 note=44 velocity=127 time=31
the msg is note_on channel=9 note=44 velocity=0 time=29
the msg is note_on channel=9 note=44 velocity=127 time=31
the msg is note_on channel=9 note=44 velocity=0 time=29
the msg is note_on channel=9 note=44 velocity=127 time=31
the msg is note_on channel=9 note=44 velocity=0 time=29
the msg is note_on channel=9 note=44 velocity=127 time=31
the msg is note_on channel=9 note=44 velocity=0 time=29
the msg is note_on channel=9 note=44 velocity=127 time=31
the msg is note_on channel=9 note=44 velocity=0 time=29
the msg is note_on channel=9 note=44 velocity=127 time=31
the msg is note_on channel=9 note=44 velocity=0 time=29
the msg is note_on channel=9 note=44 velocity=127 time=31
the msg is note_on channel=9 note=44 velocity=0 time=29
the msg is note_on channel=9 note=44 velocity=127 time=31
the msg is note_on channel=9 note=44 velocity=0 time=29
the msg is note_on channel=9 note=44 velocity=127 time=31
the msg is note_on channel=9 note=44 velocity=0 time=29
the msg is note_on channel=9 note=44 velocity=127 time=31
the msg is note_on channel=9 note=44 velocity=0 time=29
the msg is note_on channel=9 note=44 velocity=127 time=31
the msg is note_on channel=9 note=44 velocity=0 time=29
the msg is note_on channel=9 note=44 velocity=127 time=31
the msg is note_on channel=9 note=44 velocity=0 time=29
the msg is note_on channel=9 note=44 velocity=127 time=31
the msg is note_on channel=9 note=44 velocity=0 time=29
the msg is note_on channel=9 note=44 velocity=127 time=31
the msg is note_on channel=9 note=57 velocity=127 time=0
the msg is note_on channel=9 note=44 velocity=0 time=29
the msg is note_on channel=9 note=44 velocity=127 time=31
the msg is note_on channel=9 note=44 velocity=0 time=29
the msg is note_on channel=9 note=44 velocity=127 time=31
the msg is note_on channel=9 note=44 velocity=0 time=29
the msg is note_on channel=9 note=44 velocity=127 time=31
the msg is note_on channel=9 note=44 velocity=0 time=29
the msg is note_on channel=9 note=44 velocity=127 time=31
the msg is note_on channel=9 note=44 velocity=0 time=29
the msg is note_on channel=9 note=44 velocity=127 time=31
the msg is note_on channel=9 note=44 velocity=0 time=29
the msg is note_on channel=9 note=44 velocity=127 time=31
the msg is note_on channel=9 note=44 velocity=0 time=29
the msg is note_on channel=9 note=44 velocity=127 time=31
the msg is note_on channel=9 note=44 velocity=0 time=29
the msg is note_on channel=9 note=57 velocity=0 time=30
the msg is note_on channel=9 note=44 velocity=127 time=1
the msg is note_on channel=9 note=44 velocity=0 time=29
the msg is note_on channel=9 note=44 velocity=127 time=31
the msg is note_on channel=9 note=44 velocity=0 time=29
the msg is note_on channel=9 note=44 velocity=127 time=31
the msg is note_on channel=9 note=44 velocity=0 time=29
the msg is note_on channel=9 note=44 velocity=127 time=31
the msg is note_on channel=9 note=44 velocity=0 time=29
the msg is note_on channel=9 note=44 velocity=127 time=31
the msg is note_on channel=9 note=44 velocity=0 time=29
the msg is note_on channel=9 note=44 velocity=127 time=31
the msg is note_on channel=9 note=44 velocity=0 time=29
the msg is note_on channel=9 note=44 velocity=127 time=31
the msg is note_on channel=9 note=44 velocity=0 time=29
the msg is note_on channel=9 note=44 velocity=127 time=31
the msg is note_on channel=9 note=44 velocity=0 time=29
the msg is note_on channel=9 note=57 velocity=127 time=31
the msg is note_on channel=9 note=44 velocity=127 time=0
the msg is note_on channel=9 note=44 velocity=0 time=29
the msg is note_on channel=9 note=44 velocity=127 time=31
the msg is note_on channel=9 note=44 velocity=0 time=29
the msg is note_on channel=9 note=44 velocity=127 time=31
the msg is note_on channel=9 note=44 velocity=0 time=29
the msg is note_on channel=9 note=44 velocity=127 time=31
the msg is note_on channel=9 note=44 velocity=0 time=29
the msg is note_on channel=9 note=44 velocity=127 time=31
the msg is note_on channel=9 note=44 velocity=0 time=29
the msg is note_on channel=9 note=44 velocity=127 time=31
the msg is note_on channel=9 note=44 velocity=0 time=29
the msg is note_on channel=9 note=44 velocity=127 time=31
the msg is note_on channel=9 note=44 velocity=0 time=29
the msg is note_on channel=9 note=44 velocity=127 time=31
the msg is note_on channel=9 note=44 velocity=0 time=29
the msg is note_on channel=9 note=57 velocity=0 time=30
the msg is note_on channel=9 note=44 velocity=127 time=1
the msg is note_on channel=9 note=44 velocity=0 time=29
the msg is note_on channel=9 note=44 velocity=127 time=31
the msg is note_on channel=9 note=44 velocity=0 time=29
the msg is note_on channel=9 note=44 velocity=127 time=31
the msg is note_on channel=9 note=44 velocity=0 time=29
the msg is note_on channel=9 note=44 velocity=127 time=31
the msg is note_on channel=9 note=44 velocity=0 time=29
the msg is note_on channel=9 note=44 velocity=127 time=31
the msg is note_on channel=9 note=44 velocity=0 time=29
the msg is note_on channel=9 note=44 velocity=127 time=31
the msg is note_on channel=9 note=44 velocity=0 time=29
the msg is note_on channel=9 note=44 velocity=127 time=31
the msg is note_on channel=9 note=44 velocity=0 time=29
the msg is note_on channel=9 note=44 velocity=127 time=31
the msg is note_on channel=9 note=44 velocity=0 time=29
the msg is note_on channel=9 note=44 velocity=127 time=31
the msg is note_on channel=9 note=44 velocity=0 time=29
the msg is note_on channel=9 note=44 velocity=127 time=31
the msg is note_on channel=9 note=44 velocity=0 time=29
the msg is note_on channel=9 note=44 velocity=127 time=31
the msg is note_on channel=9 note=44 velocity=0 time=29
the msg is note_on channel=9 note=44 velocity=127 time=31
the msg is note_on channel=9 note=44 velocity=0 time=29
the msg is note_on channel=9 note=44 velocity=127 time=31
the msg is note_on channel=9 note=44 velocity=0 time=29
the msg is note_on channel=9 note=44 velocity=127 time=31
the msg is note_on channel=9 note=44 velocity=0 time=29
the msg is note_on channel=9 note=44 velocity=127 time=31
the msg is note_on channel=9 note=44 velocity=0 time=29
the msg is note_on channel=9 note=44 velocity=127 time=31
the msg is note_on channel=9 note=44 velocity=0 time=29
the msg is note_on channel=9 note=44 velocity=127 time=31
the msg is note_on channel=9 note=44 velocity=0 time=29
the msg is note_on channel=9 note=44 velocity=127 time=31
the msg is note_on channel=9 note=44 velocity=0 time=29
the msg is note_on channel=9 note=44 velocity=127 time=31
the msg is note_on channel=9 note=44 velocity=0 time=29
the msg is note_on channel=9 note=44 velocity=127 time=31
the msg is note_on channel=9 note=44 velocity=0 time=29
the msg is note_on channel=9 note=44 velocity=127 time=31
the msg is note_on channel=9 note=44 velocity=0 time=29
the msg is note_on channel=9 note=44 velocity=127 time=31
the msg is note_on channel=9 note=44 velocity=0 time=29
the msg is note_on channel=9 note=44 velocity=127 time=31
the msg is note_on channel=9 note=44 velocity=0 time=29
the msg is note_on channel=9 note=44 velocity=127 time=31
the msg is note_on channel=9 note=44 velocity=0 time=29
the msg is note_on channel=9 note=44 velocity=127 time=31
the msg is note_on channel=9 note=57 velocity=127 time=0
the msg is note_on channel=9 note=44 velocity=0 time=29
the msg is note_on channel=9 note=44 velocity=127 time=31
the msg is note_on channel=9 note=44 velocity=0 time=29
the msg is note_on channel=9 note=44 velocity=127 time=31
the msg is note_on channel=9 note=44 velocity=0 time=29
the msg is note_on channel=9 note=44 velocity=127 time=31
the msg is note_on channel=9 note=44 velocity=0 time=29
the msg is note_on channel=9 note=44 velocity=127 time=31
the msg is note_on channel=9 note=44 velocity=0 time=29
the msg is note_on channel=9 note=44 velocity=127 time=31
the msg is note_on channel=9 note=44 velocity=0 time=29
the msg is note_on channel=9 note=44 velocity=127 time=31
the msg is note_on channel=9 note=44 velocity=0 time=29
the msg is note_on channel=9 note=44 velocity=127 time=31
the msg is note_on channel=9 note=44 velocity=0 time=29
the msg is note_on channel=9 note=57 velocity=0 time=30
the msg is note_on channel=9 note=44 velocity=127 time=1
the msg is note_on channel=9 note=44 velocity=0 time=29
the msg is note_on channel=9 note=44 velocity=127 time=31
the msg is note_on channel=9 note=44 velocity=0 time=29
the msg is note_on channel=9 note=44 velocity=127 time=31
the msg is note_on channel=9 note=44 velocity=0 time=29
the msg is note_on channel=9 note=44 velocity=127 time=31
the msg is note_on channel=9 note=44 velocity=0 time=29
the msg is note_on channel=9 note=44 velocity=127 time=31
the msg is note_on channel=9 note=44 velocity=0 time=29
the msg is note_on channel=9 note=44 velocity=127 time=31
the msg is note_on channel=9 note=44 velocity=0 time=29
the msg is note_on channel=9 note=44 velocity=127 time=31
the msg is note_on channel=9 note=44 velocity=0 time=29
the msg is note_on channel=9 note=44 velocity=127 time=31
the msg is note_on channel=9 note=44 velocity=0 time=29
the msg is note_on channel=9 note=44 velocity=127 time=31
the msg is note_on channel=9 note=44 velocity=0 time=29
the msg is note_on channel=9 note=44 velocity=127 time=31
the msg is note_on channel=9 note=44 velocity=0 time=29
the msg is note_on channel=9 note=44 velocity=127 time=31
the msg is note_on channel=9 note=44 velocity=0 time=29
the msg is note_on channel=9 note=44 velocity=127 time=31
the msg is note_on channel=9 note=44 velocity=0 time=29
the msg is note_on channel=9 note=44 velocity=127 time=31
the msg is note_on channel=9 note=44 velocity=0 time=29
the msg is note_on channel=9 note=44 velocity=127 time=31
the msg is note_on channel=9 note=44 velocity=0 time=29
the msg is note_on channel=9 note=44 velocity=127 time=31
the msg is note_on channel=9 note=44 velocity=0 time=29
the msg is note_on channel=9 note=44 velocity=127 time=31
the msg is note_on channel=9 note=44 velocity=0 time=29
the msg is note_on channel=9 note=44 velocity=127 time=31
the msg is note_on channel=9 note=44 velocity=0 time=29
the msg is note_on channel=9 note=44 velocity=127 time=31
the msg is note_on channel=9 note=44 velocity=0 time=29
the msg is note_on channel=9 note=44 velocity=127 time=31
the msg is note_on channel=9 note=44 velocity=0 time=29
the msg is note_on channel=9 note=44 velocity=127 time=31
the msg is note_on channel=9 note=44 velocity=0 time=29
the msg is note_on channel=9 note=44 velocity=127 time=31
the msg is note_on channel=9 note=44 velocity=0 time=29
the msg is note_on channel=9 note=44 velocity=127 time=31
the msg is note_on channel=9 note=44 velocity=0 time=29
the msg is note_on channel=9 note=44 velocity=127 time=31
the msg is note_on channel=9 note=44 velocity=0 time=29
the msg is note_on channel=9 note=44 velocity=127 time=31
the msg is note_on channel=9 note=44 velocity=0 time=29
the msg is note_on channel=9 note=57 velocity=127 time=31
the msg is note_on channel=9 note=44 velocity=127 time=0
the msg is note_on channel=9 note=44 velocity=0 time=29
the msg is note_on channel=9 note=44 velocity=127 time=31
the msg is note_on channel=9 note=44 velocity=0 time=29
the msg is note_on channel=9 note=44 velocity=127 time=31
the msg is note_on channel=9 note=44 velocity=0 time=29
the msg is note_on channel=9 note=44 velocity=127 time=31
the msg is note_on channel=9 note=44 velocity=0 time=29
the msg is note_on channel=9 note=44 velocity=127 time=31
the msg is note_on channel=9 note=44 velocity=0 time=29
the msg is note_on channel=9 note=44 velocity=127 time=31
the msg is note_on channel=9 note=44 velocity=0 time=29
the msg is note_on channel=9 note=44 velocity=127 time=31
the msg is note_on channel=9 note=44 velocity=0 time=29
the msg is note_on channel=9 note=44 velocity=127 time=31
the msg is note_on channel=9 note=44 velocity=0 time=29
the msg is note_on channel=9 note=57 velocity=0 time=30
the msg is note_on channel=9 note=44 velocity=127 time=1
the msg is note_on channel=9 note=44 velocity=0 time=29
the msg is note_on channel=9 note=44 velocity=127 time=31
the msg is note_on channel=9 note=44 velocity=0 time=29
the msg is note_on channel=9 note=44 velocity=127 time=31
the msg is note_on channel=9 note=44 velocity=0 time=29
the msg is note_on channel=9 note=44 velocity=127 time=31
the msg is note_on channel=9 note=44 velocity=0 time=29
the msg is note_on channel=9 note=44 velocity=127 time=31
the msg is note_on channel=9 note=44 velocity=0 time=29
the msg is note_on channel=9 note=44 velocity=127 time=31
the msg is note_on channel=9 note=44 velocity=0 time=29
the msg is note_on channel=9 note=44 velocity=127 time=31
the msg is note_on channel=9 note=44 velocity=0 time=29
the msg is note_on channel=9 note=44 velocity=127 time=31
the msg is note_on channel=9 note=44 velocity=0 time=29
the msg is note_on channel=9 note=44 velocity=127 time=31
the msg is note_on channel=9 note=44 velocity=0 time=29
the msg is note_on channel=9 note=44 velocity=127 time=31
the msg is note_on channel=9 note=44 velocity=0 time=29
the msg is note_on channel=9 note=44 velocity=127 time=31
the msg is note_on channel=9 note=44 velocity=0 time=29
the msg is note_on channel=9 note=44 velocity=127 time=31
the msg is note_on channel=9 note=44 velocity=0 time=29
the msg is note_on channel=9 note=44 velocity=127 time=31
the msg is note_on channel=9 note=44 velocity=0 time=29
the msg is note_on channel=9 note=44 velocity=127 time=31
the msg is note_on channel=9 note=44 velocity=0 time=29
the msg is note_on channel=9 note=44 velocity=127 time=31
the msg is note_on channel=9 note=44 velocity=0 time=29
the msg is note_on channel=9 note=44 velocity=127 time=31
the msg is note_on channel=9 note=44 velocity=0 time=29
the msg is note_on channel=9 note=44 velocity=127 time=31
the msg is note_on channel=9 note=44 velocity=0 time=29
the msg is note_on channel=9 note=44 velocity=127 time=31
the msg is note_on channel=9 note=44 velocity=0 time=29
the msg is note_on channel=9 note=44 velocity=127 time=31
the msg is note_on channel=9 note=44 velocity=0 time=29
the msg is note_on channel=9 note=44 velocity=127 time=31
the msg is note_on channel=9 note=44 velocity=0 time=29
the msg is note_on channel=9 note=44 velocity=127 time=31
the msg is note_on channel=9 note=44 velocity=0 time=29
the msg is note_on channel=9 note=44 velocity=127 time=31
the msg is note_on channel=9 note=44 velocity=0 time=29
the msg is note_on channel=9 note=44 velocity=127 time=31
the msg is note_on channel=9 note=44 velocity=0 time=29
the msg is note_on channel=9 note=44 velocity=127 time=31
the msg is note_on channel=9 note=44 velocity=0 time=29
the msg is note_on channel=9 note=44 velocity=127 time=31
the msg is note_on channel=9 note=57 velocity=127 time=0
the msg is note_on channel=9 note=44 velocity=0 time=29
the msg is note_on channel=9 note=44 velocity=127 time=31
the msg is note_on channel=9 note=44 velocity=0 time=29
the msg is note_on channel=9 note=44 velocity=127 time=31
the msg is note_on channel=9 note=44 velocity=0 time=29
the msg is note_on channel=9 note=44 velocity=127 time=31
the msg is note_on channel=9 note=44 velocity=0 time=29
the msg is note_on channel=9 note=44 velocity=127 time=31
the msg is note_on channel=9 note=44 velocity=0 time=29
the msg is note_on channel=9 note=44 velocity=127 time=31
the msg is note_on channel=9 note=44 velocity=0 time=29
the msg is note_on channel=9 note=44 velocity=127 time=31
the msg is note_on channel=9 note=44 velocity=0 time=29
the msg is note_on channel=9 note=44 velocity=127 time=31
the msg is note_on channel=9 note=44 velocity=0 time=29
the msg is note_on channel=9 note=57 velocity=0 time=30
the msg is note_on channel=9 note=44 velocity=127 time=1
the msg is note_on channel=9 note=44 velocity=0 time=29
the msg is note_on channel=9 note=44 velocity=127 time=31
the msg is note_on channel=9 note=44 velocity=0 time=29
the msg is note_on channel=9 note=44 velocity=127 time=31
the msg is note_on channel=9 note=44 velocity=0 time=29
the msg is note_on channel=9 note=44 velocity=127 time=31
the msg is note_on channel=9 note=44 velocity=0 time=29
the msg is note_on channel=9 note=44 velocity=127 time=31
the msg is note_on channel=9 note=44 velocity=0 time=29
the msg is note_on channel=9 note=44 velocity=127 time=31
the msg is note_on channel=9 note=44 velocity=0 time=29
the msg is note_on channel=9 note=44 velocity=127 time=31
the msg is note_on channel=9 note=44 velocity=0 time=29
the msg is note_on channel=9 note=44 velocity=127 time=31
the msg is note_on channel=9 note=44 velocity=0 time=29
the msg is note_on channel=9 note=44 velocity=127 time=31
the msg is note_on channel=9 note=44 velocity=0 time=29
the msg is note_on channel=9 note=44 velocity=127 time=31
the msg is note_on channel=9 note=44 velocity=0 time=29
the msg is note_on channel=9 note=44 velocity=127 time=31
the msg is note_on channel=9 note=44 velocity=0 time=29
the msg is note_on channel=9 note=44 velocity=127 time=31
the msg is note_on channel=9 note=44 velocity=0 time=29
the msg is note_on channel=9 note=44 velocity=127 time=31
the msg is note_on channel=9 note=44 velocity=0 time=29
the msg is note_on channel=9 note=44 velocity=127 time=31
the msg is note_on channel=9 note=44 velocity=0 time=29
the msg is note_on channel=9 note=44 velocity=127 time=31
the msg is note_on channel=9 note=44 velocity=0 time=29
the msg is note_on channel=9 note=44 velocity=127 time=31
the msg is note_on channel=9 note=44 velocity=0 time=29
the msg is note_on channel=9 note=44 velocity=127 time=31
the msg is note_on channel=9 note=44 velocity=0 time=29
the msg is note_on channel=9 note=44 velocity=127 time=31
the msg is note_on channel=9 note=44 velocity=0 time=29
the msg is note_on channel=9 note=44 velocity=127 time=31
the msg is note_on channel=9 note=44 velocity=0 time=29
the msg is note_on channel=9 note=44 velocity=127 time=31
the msg is note_on channel=9 note=44 velocity=0 time=29
the msg is note_on channel=9 note=44 velocity=127 time=31
the msg is note_on channel=9 note=44 velocity=0 time=29
the msg is note_on channel=9 note=44 velocity=127 time=31
the msg is note_on channel=9 note=44 velocity=0 time=29
the msg is note_on channel=9 note=44 velocity=127 time=31
the msg is note_on channel=9 note=44 velocity=0 time=29
the msg is note_on channel=9 note=44 velocity=127 time=31
the msg is note_on channel=9 note=44 velocity=0 time=29
the msg is note_on channel=9 note=44 velocity=127 time=31
the msg is note_on channel=9 note=57 velocity=127 time=0
the msg is note_on channel=9 note=44 velocity=0 time=29
the msg is note_on channel=9 note=44 velocity=127 time=31
the msg is note_on channel=9 note=44 velocity=0 time=29
the msg is note_on channel=9 note=44 velocity=127 time=31
the msg is note_on channel=9 note=44 velocity=0 time=29
the msg is note_on channel=9 note=44 velocity=127 time=31
the msg is note_on channel=9 note=44 velocity=0 time=29
the msg is note_on channel=9 note=44 velocity=127 time=31
the msg is note_on channel=9 note=44 velocity=0 time=29
the msg is note_on channel=9 note=44 velocity=127 time=31
the msg is note_on channel=9 note=44 velocity=0 time=29
the msg is note_on channel=9 note=44 velocity=127 time=31
the msg is note_on channel=9 note=44 velocity=0 time=29
the msg is note_on channel=9 note=44 velocity=127 time=31
the msg is note_on channel=9 note=44 velocity=0 time=29
the msg is note_on channel=9 note=57 velocity=0 time=30
the msg is note_on channel=9 note=44 velocity=127 time=1
the msg is note_on channel=9 note=44 velocity=0 time=29
the msg is note_on channel=9 note=44 velocity=127 time=31
the msg is note_on channel=9 note=44 velocity=0 time=29
the msg is note_on channel=9 note=44 velocity=127 time=31
the msg is note_on channel=9 note=44 velocity=0 time=29
the msg is note_on channel=9 note=44 velocity=127 time=31
the msg is note_on channel=9 note=44 velocity=0 time=29
the msg is note_on channel=9 note=44 velocity=127 time=31
the msg is note_on channel=9 note=44 velocity=0 time=29
the msg is note_on channel=9 note=44 velocity=127 time=31
the msg is note_on channel=9 note=44 velocity=0 time=29
the msg is note_on channel=9 note=44 velocity=127 time=31
the msg is note_on channel=9 note=44 velocity=0 time=29
the msg is note_on channel=9 note=44 velocity=127 time=31
the msg is note_on channel=9 note=44 velocity=0 time=29
the msg is note_on channel=9 note=44 velocity=127 time=31
the msg is note_on channel=9 note=44 velocity=0 time=29
the msg is note_on channel=9 note=44 velocity=127 time=31
the msg is note_on channel=9 note=44 velocity=0 time=29
the msg is note_on channel=9 note=44 velocity=127 time=31
the msg is note_on channel=9 note=44 velocity=0 time=29
the msg is note_on channel=9 note=44 velocity=127 time=31
the msg is note_on channel=9 note=44 velocity=0 time=29
the msg is note_on channel=9 note=44 velocity=127 time=31
the msg is note_on channel=9 note=44 velocity=0 time=29
the msg is note_on channel=9 note=44 velocity=127 time=31
the msg is note_on channel=9 note=44 velocity=0 time=29
the msg is note_on channel=9 note=44 velocity=127 time=31
the msg is note_on channel=9 note=44 velocity=0 time=29
the msg is note_on channel=9 note=44 velocity=127 time=31
the msg is note_on channel=9 note=44 velocity=0 time=29
the msg is note_on channel=9 note=44 velocity=127 time=31
the msg is note_on channel=9 note=44 velocity=0 time=29
the msg is note_on channel=9 note=44 velocity=127 time=31
the msg is note_on channel=9 note=44 velocity=0 time=29
the msg is note_on channel=9 note=44 velocity=127 time=31
the msg is note_on channel=9 note=44 velocity=0 time=29
the msg is note_on channel=9 note=44 velocity=127 time=31
the msg is note_on channel=9 note=44 velocity=0 time=29
the msg is note_on channel=9 note=44 velocity=127 time=31
the msg is note_on channel=9 note=44 velocity=0 time=29
the msg is note_on channel=9 note=44 velocity=127 time=31
the msg is note_on channel=9 note=44 velocity=0 time=29
the msg is note_on channel=9 note=44 velocity=127 time=31
the msg is note_on channel=9 note=44 velocity=0 time=29
the msg is note_on channel=9 note=44 velocity=127 time=31
the msg is note_on channel=9 note=44 velocity=0 time=29
the msg is note_on channel=9 note=57 velocity=127 time=31
the msg is note_on channel=9 note=44 velocity=127 time=0
the msg is note_on channel=9 note=44 velocity=0 time=29
the msg is note_on channel=9 note=44 velocity=127 time=31
the msg is note_on channel=9 note=44 velocity=0 time=29
the msg is note_on channel=9 note=44 velocity=127 time=31
the msg is note_on channel=9 note=44 velocity=0 time=29
the msg is note_on channel=9 note=44 velocity=127 time=31
the msg is note_on channel=9 note=44 velocity=0 time=29
the msg is note_on channel=9 note=44 velocity=127 time=31
the msg is note_on channel=9 note=44 velocity=0 time=29
the msg is note_on channel=9 note=44 velocity=127 time=31
the msg is note_on channel=9 note=44 velocity=0 time=29
the msg is note_on channel=9 note=44 velocity=127 time=31
the msg is note_on channel=9 note=44 velocity=0 time=29
the msg is note_on channel=9 note=44 velocity=127 time=31
the msg is note_on channel=9 note=44 velocity=0 time=29
the msg is note_on channel=9 note=57 velocity=0 time=30
the msg is note_on channel=9 note=44 velocity=127 time=1
the msg is note_on channel=9 note=44 velocity=0 time=29
the msg is note_on channel=9 note=44 velocity=127 time=31
the msg is note_on channel=9 note=44 velocity=0 time=29
the msg is note_on channel=9 note=44 velocity=127 time=31
the msg is note_on channel=9 note=44 velocity=0 time=29
the msg is note_on channel=9 note=44 velocity=127 time=31
the msg is note_on channel=9 note=44 velocity=0 time=29
the msg is note_on channel=9 note=44 velocity=127 time=31
the msg is note_on channel=9 note=44 velocity=0 time=29
the msg is note_on channel=9 note=44 velocity=127 time=31
the msg is note_on channel=9 note=44 velocity=0 time=29
the msg is note_on channel=9 note=44 velocity=127 time=31
the msg is note_on channel=9 note=44 velocity=0 time=29
the msg is note_on channel=9 note=44 velocity=127 time=31
the msg is note_on channel=9 note=44 velocity=0 time=29
the msg is note_on channel=9 note=44 velocity=127 time=31
the msg is note_on channel=9 note=44 velocity=0 time=29
the msg is note_on channel=9 note=44 velocity=127 time=31
the msg is note_on channel=9 note=44 velocity=0 time=29
the msg is note_on channel=9 note=44 velocity=127 time=31
the msg is note_on channel=9 note=44 velocity=0 time=29
the msg is note_on channel=9 note=44 velocity=127 time=31
the msg is note_on channel=9 note=44 velocity=0 time=29
the msg is note_on channel=9 note=44 velocity=127 time=31
the msg is note_on channel=9 note=44 velocity=0 time=29
the msg is note_on channel=9 note=44 velocity=127 time=31
the msg is note_on channel=9 note=44 velocity=0 time=29
the msg is note_on channel=9 note=44 velocity=127 time=31
the msg is note_on channel=9 note=44 velocity=0 time=29
the msg is note_on channel=9 note=44 velocity=127 time=31
the msg is note_on channel=9 note=44 velocity=0 time=29
the msg is note_on channel=9 note=44 velocity=127 time=31
the msg is note_on channel=9 note=44 velocity=0 time=29
the msg is note_on channel=9 note=44 velocity=127 time=31
the msg is note_on channel=9 note=44 velocity=0 time=29
the msg is note_on channel=9 note=44 velocity=127 time=31
the msg is note_on channel=9 note=44 velocity=0 time=29
the msg is note_on channel=9 note=44 velocity=127 time=31
the msg is note_on channel=9 note=44 velocity=0 time=29
the msg is note_on channel=9 note=44 velocity=127 time=31
the msg is note_on channel=9 note=44 velocity=0 time=29
the msg is note_on channel=9 note=44 velocity=127 time=31
the msg is note_on channel=9 note=44 velocity=0 time=29
the msg is note_on channel=9 note=44 velocity=127 time=31
the msg is note_on channel=9 note=44 velocity=0 time=29
the msg is note_on channel=9 note=44 velocity=127 time=31
the msg is note_on channel=9 note=44 velocity=0 time=29
the msg is note_on channel=9 note=44 velocity=127 time=31
the msg is program_change channel=9 program=0 time=0
the msg is note_on channel=9 note=57 velocity=127 time=0
the msg is note_on channel=9 note=44 velocity=0 time=29
the msg is note_on channel=9 note=44 velocity=127 time=31
the msg is note_on channel=9 note=44 velocity=0 time=29
the msg is note_on channel=9 note=44 velocity=127 time=31
the msg is note_on channel=9 note=44 velocity=0 time=29
the msg is note_on channel=9 note=44 velocity=127 time=31
the msg is note_on channel=9 note=44 velocity=0 time=29
the msg is note_on channel=9 note=44 velocity=127 time=31
the msg is note_on channel=9 note=44 velocity=0 time=29
the msg is note_on channel=9 note=44 velocity=127 time=31
the msg is note_on channel=9 note=44 velocity=0 time=29
the msg is note_on channel=9 note=44 velocity=127 time=31
the msg is note_on channel=9 note=44 velocity=0 time=29
the msg is note_on channel=9 note=44 velocity=127 time=31
the msg is note_on channel=9 note=44 velocity=0 time=29
the msg is note_on channel=9 note=57 velocity=0 time=30
the msg is note_on channel=9 note=44 velocity=127 time=1
the msg is note_on channel=9 note=44 velocity=0 time=29
the msg is note_on channel=9 note=44 velocity=127 time=31
the msg is note_on channel=9 note=44 velocity=0 time=29
the msg is note_on channel=9 note=44 velocity=127 time=31
the msg is note_on channel=9 note=44 velocity=0 time=29
the msg is note_on channel=9 note=44 velocity=127 time=31
the msg is note_on channel=9 note=44 velocity=0 time=29
the msg is note_on channel=9 note=44 velocity=127 time=31
the msg is note_on channel=9 note=44 velocity=0 time=29
the msg is note_on channel=9 note=44 velocity=127 time=31
the msg is note_on channel=9 note=44 velocity=0 time=29
the msg is note_on channel=9 note=44 velocity=127 time=31
the msg is note_on channel=9 note=44 velocity=0 time=29
the msg is note_on channel=9 note=57 velocity=127 time=1
the msg is note_on channel=9 note=57 velocity=0 time=29
the msg is note_on channel=9 note=44 velocity=127 time=1
the msg is note_on channel=9 note=44 velocity=0 time=29
the msg is note_on channel=9 note=49 velocity=127 time=31
the msg is note_on channel=9 note=44 velocity=127 time=0
the msg is note_on channel=9 note=49 velocity=0 time=29
the msg is note_on channel=9 note=44 velocity=0 time=0
the msg is note_on channel=9 note=44 velocity=127 time=31
the msg is note_on channel=9 note=44 velocity=0 time=29
the msg is note_on channel=9 note=44 velocity=127 time=31
the msg is note_on channel=9 note=44 velocity=0 time=29
the msg is note_on channel=9 note=44 velocity=127 time=31
the msg is note_on channel=9 note=44 velocity=0 time=29
the msg is note_on channel=9 note=44 velocity=127 time=31
the msg is note_on channel=9 note=44 velocity=0 time=29
the msg is note_on channel=9 note=44 velocity=127 time=31
the msg is note_on channel=9 note=44 velocity=0 time=29
the msg is note_on channel=9 note=44 velocity=127 time=31
the msg is note_on channel=9 note=44 velocity=0 time=29
the msg is note_on channel=9 note=44 velocity=127 time=31
the msg is note_on channel=9 note=44 velocity=0 time=29
the msg is note_on channel=9 note=44 velocity=127 time=31
the msg is note_on channel=9 note=44 velocity=0 time=29
the msg is note_on channel=9 note=44 velocity=127 time=31
the msg is note_on channel=9 note=44 velocity=0 time=29
the msg is note_on channel=9 note=44 velocity=127 time=31
the msg is note_on channel=9 note=44 velocity=0 time=29
the msg is note_on channel=9 note=44 velocity=127 time=31
the msg is note_on channel=9 note=44 velocity=0 time=29
the msg is note_on channel=9 note=44 velocity=127 time=31
the msg is note_on channel=9 note=44 velocity=0 time=29
the msg is note_on channel=9 note=44 velocity=127 time=31
the msg is note_on channel=9 note=44 velocity=0 time=29
the msg is note_on channel=9 note=44 velocity=127 time=31
the msg is note_on channel=9 note=44 velocity=0 time=29
the msg is note_on channel=9 note=44 velocity=127 time=31
the msg is note_on channel=9 note=44 velocity=0 time=29
the msg is note_on channel=9 note=57 velocity=127 time=31
the msg is note_on channel=9 note=44 velocity=127 time=0
the msg is note_on channel=9 note=44 velocity=0 time=29
the msg is note_on channel=9 note=44 velocity=127 time=31
the msg is note_on channel=9 note=44 velocity=0 time=29
the msg is note_on channel=9 note=44 velocity=127 time=31
the msg is note_on channel=9 note=44 velocity=0 time=29
the msg is note_on channel=9 note=44 velocity=127 time=31
the msg is note_on channel=9 note=44 velocity=0 time=29
the msg is note_on channel=9 note=44 velocity=127 time=31
the msg is note_on channel=9 note=44 velocity=0 time=29
the msg is note_on channel=9 note=44 velocity=127 time=31
the msg is note_on channel=9 note=44 velocity=0 time=29
the msg is note_on channel=9 note=44 velocity=127 time=31
the msg is note_on channel=9 note=44 velocity=0 time=29
the msg is note_on channel=9 note=44 velocity=127 time=31
the msg is note_on channel=9 note=44 velocity=0 time=29
the msg is note_on channel=9 note=57 velocity=0 time=30
the msg is note_on channel=9 note=44 velocity=127 time=1
the msg is note_on channel=9 note=44 velocity=0 time=29
the msg is note_on channel=9 note=44 velocity=127 time=31
the msg is note_on channel=9 note=44 velocity=0 time=29
the msg is note_on channel=9 note=44 velocity=127 time=31
the msg is note_on channel=9 note=44 velocity=0 time=29
the msg is note_on channel=9 note=44 velocity=127 time=31
the msg is note_on channel=9 note=44 velocity=0 time=29
the msg is note_on channel=9 note=44 velocity=127 time=31
the msg is note_on channel=9 note=44 velocity=0 time=29
the msg is note_on channel=9 note=44 velocity=127 time=31
the msg is note_on channel=9 note=44 velocity=0 time=29
the msg is note_on channel=9 note=44 velocity=127 time=31
the msg is note_on channel=9 note=44 velocity=0 time=29
the msg is note_on channel=9 note=44 velocity=127 time=31
the msg is note_on channel=9 note=44 velocity=0 time=29
the msg is note_on channel=9 note=44 velocity=127 time=31
the msg is note_on channel=9 note=44 velocity=0 time=29
the msg is note_on channel=9 note=44 velocity=127 time=31
the msg is note_on channel=9 note=44 velocity=0 time=29
the msg is note_on channel=9 note=44 velocity=127 time=31
the msg is note_on channel=9 note=44 velocity=0 time=29
the msg is note_on channel=9 note=44 velocity=127 time=31
the msg is note_on channel=9 note=44 velocity=0 time=29
the msg is note_on channel=9 note=44 velocity=127 time=31
the msg is note_on channel=9 note=44 velocity=0 time=29
the msg is note_on channel=9 note=44 velocity=127 time=31
the msg is note_on channel=9 note=44 velocity=0 time=29
the msg is note_on channel=9 note=44 velocity=127 time=31
the msg is note_on channel=9 note=44 velocity=0 time=29
the msg is note_on channel=9 note=44 velocity=127 time=31
the msg is note_on channel=9 note=44 velocity=0 time=29
the msg is note_on channel=9 note=44 velocity=127 time=31
the msg is note_on channel=9 note=44 velocity=0 time=29
the msg is note_on channel=9 note=44 velocity=127 time=31
the msg is note_on channel=9 note=44 velocity=0 time=29
the msg is note_on channel=9 note=44 velocity=127 time=31
the msg is note_on channel=9 note=44 velocity=0 time=29
the msg is note_on channel=9 note=44 velocity=127 time=31
the msg is note_on channel=9 note=44 velocity=0 time=29
the msg is note_on channel=9 note=44 velocity=127 time=31
the msg is note_on channel=9 note=44 velocity=0 time=29
the msg is note_on channel=9 note=44 velocity=127 time=31
the msg is note_on channel=9 note=44 velocity=0 time=29
the msg is note_on channel=9 note=44 velocity=127 time=31
the msg is note_on channel=9 note=44 velocity=0 time=29
the msg is note_on channel=9 note=44 velocity=127 time=31
the msg is note_on channel=9 note=44 velocity=0 time=29
the msg is note_on channel=9 note=57 velocity=127 time=31
the msg is note_on channel=9 note=44 velocity=127 time=0
the msg is note_on channel=9 note=44 velocity=0 time=29
the msg is note_on channel=9 note=44 velocity=127 time=31
the msg is note_on channel=9 note=44 velocity=0 time=29
the msg is note_on channel=9 note=44 velocity=127 time=31
the msg is note_on channel=9 note=44 velocity=0 time=29
the msg is note_on channel=9 note=44 velocity=127 time=31
the msg is note_on channel=9 note=44 velocity=0 time=29
the msg is note_on channel=9 note=44 velocity=127 time=31
the msg is note_on channel=9 note=44 velocity=0 time=29
the msg is note_on channel=9 note=44 velocity=127 time=31
the msg is note_on channel=9 note=44 velocity=0 time=29
the msg is note_on channel=9 note=44 velocity=127 time=31
the msg is note_on channel=9 note=44 velocity=0 time=29
the msg is note_on channel=9 note=44 velocity=127 time=31
the msg is note_on channel=9 note=44 velocity=0 time=29
the msg is note_on channel=9 note=57 velocity=0 time=30
the msg is note_on channel=9 note=44 velocity=127 time=1
the msg is note_on channel=9 note=44 velocity=0 time=29
the msg is note_on channel=9 note=44 velocity=127 time=31
the msg is note_on channel=9 note=44 velocity=0 time=29
the msg is note_on channel=9 note=44 velocity=127 time=31
the msg is note_on channel=9 note=44 velocity=0 time=29
the msg is note_on channel=9 note=44 velocity=127 time=31
the msg is note_on channel=9 note=44 velocity=0 time=29
the msg is note_on channel=9 note=44 velocity=127 time=31
the msg is note_on channel=9 note=44 velocity=0 time=29
the msg is note_on channel=9 note=44 velocity=127 time=31
the msg is note_on channel=9 note=44 velocity=0 time=29
the msg is note_on channel=9 note=44 velocity=127 time=31
the msg is note_on channel=9 note=44 velocity=0 time=29
the msg is note_on channel=9 note=44 velocity=127 time=31
the msg is note_on channel=9 note=44 velocity=0 time=29
the msg is note_on channel=9 note=44 velocity=127 time=31
the msg is note_on channel=9 note=44 velocity=0 time=29
the msg is note_on channel=9 note=44 velocity=127 time=31
the msg is note_on channel=9 note=44 velocity=0 time=29
the msg is note_on channel=9 note=44 velocity=127 time=31
the msg is note_on channel=9 note=44 velocity=0 time=29
the msg is note_on channel=9 note=44 velocity=127 time=31
the msg is note_on channel=9 note=44 velocity=0 time=29
the msg is note_on channel=9 note=44 velocity=127 time=31
the msg is note_on channel=9 note=44 velocity=0 time=29
the msg is note_on channel=9 note=44 velocity=127 time=31
the msg is note_on channel=9 note=44 velocity=0 time=29
the msg is note_on channel=9 note=44 velocity=127 time=31
the msg is note_on channel=9 note=44 velocity=0 time=29
the msg is note_on channel=9 note=44 velocity=127 time=31
the msg is note_on channel=9 note=44 velocity=0 time=29
the msg is note_on channel=9 note=44 velocity=127 time=31
the msg is note_on channel=9 note=44 velocity=0 time=29
the msg is note_on channel=9 note=44 velocity=127 time=31
the msg is note_on channel=9 note=44 velocity=0 time=29
the msg is note_on channel=9 note=44 velocity=127 time=31
the msg is note_on channel=9 note=44 velocity=0 time=29
the msg is note_on channel=9 note=44 velocity=127 time=31
the msg is note_on channel=9 note=44 velocity=0 time=29
the msg is note_on channel=9 note=44 velocity=127 time=31
the msg is note_on channel=9 note=44 velocity=0 time=29
the msg is note_on channel=9 note=44 velocity=127 time=31
the msg is note_on channel=9 note=44 velocity=0 time=29
the msg is note_on channel=9 note=44 velocity=127 time=31
the msg is note_on channel=9 note=44 velocity=0 time=29
the msg is note_on channel=9 note=44 velocity=127 time=31
the msg is note_on channel=9 note=44 velocity=0 time=29
the msg is note_on channel=9 note=44 velocity=127 time=31
the msg is note_on channel=9 note=57 velocity=127 time=0
the msg is note_on channel=9 note=44 velocity=0 time=29
the msg is note_on channel=9 note=44 velocity=127 time=31
the msg is note_on channel=9 note=44 velocity=0 time=29
the msg is note_on channel=9 note=44 velocity=127 time=31
the msg is note_on channel=9 note=44 velocity=0 time=29
the msg is note_on channel=9 note=44 velocity=127 time=31
the msg is note_on channel=9 note=44 velocity=0 time=29
the msg is note_on channel=9 note=44 velocity=127 time=31
the msg is note_on channel=9 note=44 velocity=0 time=29
the msg is note_on channel=9 note=44 velocity=127 time=31
the msg is note_on channel=9 note=44 velocity=0 time=29
the msg is note_on channel=9 note=44 velocity=127 time=31
the msg is note_on channel=9 note=44 velocity=0 time=29
the msg is note_on channel=9 note=44 velocity=127 time=31
the msg is note_on channel=9 note=44 velocity=0 time=29
the msg is note_on channel=9 note=57 velocity=0 time=30
the msg is note_on channel=9 note=44 velocity=127 time=1
the msg is note_on channel=9 note=44 velocity=0 time=29
the msg is note_on channel=9 note=44 velocity=127 time=31
the msg is note_on channel=9 note=44 velocity=0 time=29
the msg is note_on channel=9 note=44 velocity=127 time=31
the msg is note_on channel=9 note=44 velocity=0 time=29
the msg is note_on channel=9 note=44 velocity=127 time=31
the msg is note_on channel=9 note=44 velocity=0 time=29
the msg is note_on channel=9 note=44 velocity=127 time=31
the msg is note_on channel=9 note=44 velocity=0 time=29
the msg is note_on channel=9 note=44 velocity=127 time=31
the msg is note_on channel=9 note=44 velocity=0 time=29
the msg is note_on channel=9 note=44 velocity=127 time=31
the msg is note_on channel=9 note=44 velocity=0 time=29
the msg is note_on channel=9 note=44 velocity=127 time=31
the msg is note_on channel=9 note=44 velocity=0 time=29
the msg is note_on channel=9 note=57 velocity=127 time=31
the msg is note_on channel=9 note=44 velocity=127 time=0
the msg is note_on channel=9 note=44 velocity=0 time=29
the msg is note_on channel=9 note=44 velocity=127 time=31
the msg is note_on channel=9 note=44 velocity=0 time=29
the msg is note_on channel=9 note=44 velocity=127 time=31
the msg is note_on channel=9 note=44 velocity=0 time=29
the msg is note_on channel=9 note=44 velocity=127 time=31
the msg is note_on channel=9 note=44 velocity=0 time=29
the msg is note_on channel=9 note=44 velocity=127 time=31
the msg is note_on channel=9 note=44 velocity=0 time=29
the msg is note_on channel=9 note=44 velocity=127 time=31
the msg is note_on channel=9 note=44 velocity=0 time=29
the msg is note_on channel=9 note=44 velocity=127 time=31
the msg is note_on channel=9 note=44 velocity=0 time=29
the msg is note_on channel=9 note=44 velocity=127 time=31
the msg is note_on channel=9 note=44 velocity=0 time=29
the msg is note_on channel=9 note=57 velocity=0 time=30
the msg is note_on channel=9 note=44 velocity=127 time=1
the msg is note_on channel=9 note=44 velocity=0 time=29
the msg is note_on channel=9 note=44 velocity=127 time=31
the msg is note_on channel=9 note=44 velocity=0 time=29
the msg is note_on channel=9 note=44 velocity=127 time=31
the msg is note_on channel=9 note=44 velocity=0 time=29
the msg is note_on channel=9 note=44 velocity=127 time=31
the msg is note_on channel=9 note=44 velocity=0 time=29
the msg is note_on channel=9 note=44 velocity=127 time=31
the msg is note_on channel=9 note=44 velocity=0 time=29
the msg is note_on channel=9 note=44 velocity=127 time=31
the msg is note_on channel=9 note=44 velocity=0 time=29
the msg is note_on channel=9 note=44 velocity=127 time=31
the msg is note_on channel=9 note=44 velocity=0 time=29
the msg is note_on channel=9 note=44 velocity=127 time=31
the msg is note_on channel=9 note=44 velocity=0 time=29
the msg is note_on channel=9 note=44 velocity=127 time=31
the msg is note_on channel=9 note=44 velocity=0 time=29
the msg is note_on channel=9 note=44 velocity=127 time=31
the msg is note_on channel=9 note=44 velocity=0 time=29
the msg is note_on channel=9 note=44 velocity=127 time=31
the msg is note_on channel=9 note=44 velocity=0 time=29
the msg is note_on channel=9 note=44 velocity=127 time=31
the msg is note_on channel=9 note=44 velocity=0 time=29
the msg is note_on channel=9 note=44 velocity=127 time=31
the msg is note_on channel=9 note=44 velocity=0 time=29
the msg is note_on channel=9 note=44 velocity=127 time=31
the msg is note_on channel=9 note=44 velocity=0 time=29
the msg is note_on channel=9 note=44 velocity=127 time=31
the msg is note_on channel=9 note=44 velocity=0 time=29
the msg is note_on channel=9 note=44 velocity=127 time=31
the msg is note_on channel=9 note=44 velocity=0 time=29
the msg is note_on channel=9 note=44 velocity=127 time=31
the msg is note_on channel=9 note=44 velocity=0 time=29
the msg is note_on channel=9 note=44 velocity=127 time=31
the msg is note_on channel=9 note=44 velocity=0 time=29
the msg is note_on channel=9 note=44 velocity=127 time=31
the msg is note_on channel=9 note=44 velocity=0 time=29
the msg is note_on channel=9 note=44 velocity=127 time=31
the msg is note_on channel=9 note=44 velocity=0 time=29
the msg is note_on channel=9 note=44 velocity=127 time=31
the msg is note_on channel=9 note=44 velocity=0 time=29
the msg is note_on channel=9 note=44 velocity=127 time=31
the msg is note_on channel=9 note=44 velocity=0 time=29
the msg is note_on channel=9 note=44 velocity=127 time=31
the msg is note_on channel=9 note=44 velocity=0 time=29
the msg is note_on channel=9 note=44 velocity=127 time=31
the msg is note_on channel=9 note=44 velocity=0 time=29
the msg is note_on channel=9 note=44 velocity=127 time=31
the msg is note_on channel=9 note=57 velocity=127 time=0
the msg is note_on channel=9 note=44 velocity=0 time=29
the msg is note_on channel=9 note=44 velocity=127 time=31
the msg is note_on channel=9 note=44 velocity=0 time=29
the msg is note_on channel=9 note=44 velocity=127 time=31
the msg is note_on channel=9 note=44 velocity=0 time=29
the msg is note_on channel=9 note=44 velocity=127 time=31
the msg is note_on channel=9 note=44 velocity=0 time=29
the msg is note_on channel=9 note=44 velocity=127 time=31
the msg is note_on channel=9 note=44 velocity=0 time=29
the msg is note_on channel=9 note=44 velocity=127 time=31
the msg is note_on channel=9 note=44 velocity=0 time=29
the msg is note_on channel=9 note=44 velocity=127 time=31
the msg is note_on channel=9 note=44 velocity=0 time=29
the msg is note_on channel=9 note=44 velocity=127 time=31
the msg is note_on channel=9 note=44 velocity=0 time=29
the msg is note_on channel=9 note=57 velocity=0 time=30
the msg is note_on channel=9 note=44 velocity=127 time=1
the msg is note_on channel=9 note=44 velocity=0 time=29
the msg is note_on channel=9 note=44 velocity=127 time=31
the msg is note_on channel=9 note=44 velocity=0 time=29
the msg is note_on channel=9 note=44 velocity=127 time=31
the msg is note_on channel=9 note=44 velocity=0 time=29
the msg is note_on channel=9 note=44 velocity=127 time=31
the msg is note_on channel=9 note=44 velocity=0 time=29
the msg is note_on channel=9 note=44 velocity=127 time=31
the msg is note_on channel=9 note=44 velocity=0 time=29
the msg is note_on channel=9 note=44 velocity=127 time=31
the msg is note_on channel=9 note=44 velocity=0 time=29
the msg is note_on channel=9 note=44 velocity=127 time=31
the msg is note_on channel=9 note=44 velocity=0 time=29
the msg is note_on channel=9 note=44 velocity=127 time=31
the msg is note_on channel=9 note=44 velocity=0 time=29
the msg is note_on channel=9 note=44 velocity=127 time=31
the msg is note_on channel=9 note=44 velocity=0 time=29
the msg is note_on channel=9 note=44 velocity=127 time=31
the msg is note_on channel=9 note=44 velocity=0 time=29
the msg is note_on channel=9 note=44 velocity=127 time=31
the msg is note_on channel=9 note=44 velocity=0 time=29
the msg is note_on channel=9 note=44 velocity=127 time=31
the msg is note_on channel=9 note=44 velocity=0 time=29
the msg is note_on channel=9 note=44 velocity=127 time=31
the msg is note_on channel=9 note=44 velocity=0 time=29
the msg is note_on channel=9 note=44 velocity=127 time=31
the msg is note_on channel=9 note=44 velocity=0 time=29
the msg is note_on channel=9 note=44 velocity=127 time=31
the msg is note_on channel=9 note=44 velocity=0 time=29
the msg is note_on channel=9 note=44 velocity=127 time=31
the msg is note_on channel=9 note=44 velocity=0 time=29
the msg is note_on channel=9 note=44 velocity=127 time=31
the msg is note_on channel=9 note=44 velocity=0 time=29
the msg is note_on channel=9 note=44 velocity=127 time=31
the msg is note_on channel=9 note=44 velocity=0 time=29
the msg is note_on channel=9 note=44 velocity=127 time=31
the msg is note_on channel=9 note=44 velocity=0 time=29
the msg is note_on channel=9 note=44 velocity=127 time=31
the msg is note_on channel=9 note=44 velocity=0 time=29
the msg is note_on channel=9 note=44 velocity=127 time=31
the msg is note_on channel=9 note=44 velocity=0 time=29
the msg is note_on channel=9 note=44 velocity=127 time=31
the msg is note_on channel=9 note=44 velocity=0 time=29
the msg is note_on channel=9 note=44 velocity=127 time=31
the msg is note_on channel=9 note=44 velocity=0 time=29
the msg is note_on channel=9 note=44 velocity=127 time=31
the msg is note_on channel=9 note=44 velocity=0 time=29
the msg is note_on channel=9 note=44 velocity=127 time=31
the msg is note_on channel=9 note=57 velocity=127 time=0
the msg is note_on channel=9 note=44 velocity=0 time=29
the msg is note_on channel=9 note=44 velocity=127 time=31
the msg is note_on channel=9 note=44 velocity=0 time=29
the msg is note_on channel=9 note=44 velocity=127 time=31
the msg is note_on channel=9 note=44 velocity=0 time=29
the msg is note_on channel=9 note=44 velocity=127 time=31
the msg is note_on channel=9 note=44 velocity=0 time=29
the msg is note_on channel=9 note=44 velocity=127 time=31
the msg is note_on channel=9 note=44 velocity=0 time=29
the msg is note_on channel=9 note=44 velocity=127 time=31
the msg is note_on channel=9 note=44 velocity=0 time=29
the msg is note_on channel=9 note=44 velocity=127 time=31
the msg is note_on channel=9 note=44 velocity=0 time=29
the msg is note_on channel=9 note=44 velocity=127 time=31
the msg is note_on channel=9 note=44 velocity=0 time=29
the msg is note_on channel=9 note=57 velocity=0 time=30
the msg is note_on channel=9 note=44 velocity=127 time=1
the msg is note_on channel=9 note=44 velocity=0 time=29
the msg is note_on channel=9 note=44 velocity=127 time=31
the msg is note_on channel=9 note=44 velocity=0 time=29
the msg is note_on channel=9 note=44 velocity=127 time=31
the msg is note_on channel=9 note=44 velocity=0 time=29
the msg is note_on channel=9 note=44 velocity=127 time=31
the msg is note_on channel=9 note=44 velocity=0 time=29
the msg is note_on channel=9 note=44 velocity=127 time=31
the msg is note_on channel=9 note=44 velocity=0 time=29
the msg is note_on channel=9 note=44 velocity=127 time=31
the msg is note_on channel=9 note=44 velocity=0 time=29
the msg is note_on channel=9 note=44 velocity=127 time=31
the msg is note_on channel=9 note=44 velocity=0 time=29
the msg is note_on channel=9 note=44 velocity=127 time=31
the msg is note_on channel=9 note=44 velocity=0 time=29
the msg is note_on channel=9 note=44 velocity=127 time=31
the msg is note_on channel=9 note=44 velocity=0 time=29
the msg is note_on channel=9 note=44 velocity=127 time=31
the msg is note_on channel=9 note=44 velocity=0 time=29
the msg is note_on channel=9 note=44 velocity=127 time=31
the msg is note_on channel=9 note=44 velocity=0 time=29
the msg is note_on channel=9 note=44 velocity=127 time=31
the msg is note_on channel=9 note=44 velocity=0 time=29
the msg is note_on channel=9 note=44 velocity=127 time=31
the msg is note_on channel=9 note=44 velocity=0 time=29
the msg is note_on channel=9 note=44 velocity=127 time=31
the msg is note_on channel=9 note=44 velocity=0 time=29
the msg is note_on channel=9 note=44 velocity=127 time=31
the msg is note_on channel=9 note=44 velocity=0 time=29
the msg is note_on channel=9 note=44 velocity=127 time=31
the msg is note_on channel=9 note=44 velocity=0 time=29
the msg is note_on channel=9 note=44 velocity=127 time=31
the msg is note_on channel=9 note=44 velocity=0 time=29
the msg is note_on channel=9 note=44 velocity=127 time=31
the msg is note_on channel=9 note=44 velocity=0 time=29
the msg is note_on channel=9 note=44 velocity=127 time=31
the msg is note_on channel=9 note=44 velocity=0 time=29
the msg is note_on channel=9 note=44 velocity=127 time=31
the msg is note_on channel=9 note=44 velocity=0 time=29
the msg is note_on channel=9 note=44 velocity=127 time=31
the msg is note_on channel=9 note=44 velocity=0 time=29
the msg is note_on channel=9 note=44 velocity=127 time=31
the msg is note_on channel=9 note=44 velocity=0 time=29
the msg is note_on channel=9 note=44 velocity=127 time=31
the msg is note_on channel=9 note=44 velocity=0 time=29
the msg is note_on channel=9 note=44 velocity=127 time=31
the msg is note_on channel=9 note=44 velocity=0 time=29
the msg is note_on channel=9 note=57 velocity=127 time=31
the msg is note_on channel=9 note=44 velocity=127 time=0
the msg is note_on channel=9 note=44 velocity=0 time=29
the msg is note_on channel=9 note=44 velocity=127 time=31
the msg is note_on channel=9 note=44 velocity=0 time=29
the msg is note_on channel=9 note=44 velocity=127 time=31
the msg is note_on channel=9 note=44 velocity=0 time=29
the msg is note_on channel=9 note=44 velocity=127 time=31
the msg is note_on channel=9 note=44 velocity=0 time=29
the msg is note_on channel=9 note=44 velocity=127 time=31
the msg is note_on channel=9 note=44 velocity=0 time=29
the msg is note_on channel=9 note=44 velocity=127 time=31
the msg is note_on channel=9 note=44 velocity=0 time=29
the msg is note_on channel=9 note=44 velocity=127 time=31
the msg is note_on channel=9 note=44 velocity=0 time=29
the msg is note_on channel=9 note=44 velocity=127 time=31
the msg is note_on channel=9 note=44 velocity=0 time=29
the msg is note_on channel=9 note=57 velocity=0 time=30
the msg is note_on channel=9 note=44 velocity=127 time=1
the msg is note_on channel=9 note=44 velocity=0 time=29
the msg is note_on channel=9 note=44 velocity=127 time=31
the msg is note_on channel=9 note=44 velocity=0 time=29
the msg is note_on channel=9 note=44 velocity=127 time=31
the msg is note_on channel=9 note=44 velocity=0 time=29
the msg is note_on channel=9 note=44 velocity=127 time=31
the msg is note_on channel=9 note=44 velocity=0 time=29
the msg is note_on channel=9 note=44 velocity=127 time=31
the msg is note_on channel=9 note=44 velocity=0 time=29
the msg is note_on channel=9 note=44 velocity=127 time=31
the msg is note_on channel=9 note=44 velocity=0 time=29
the msg is note_on channel=9 note=44 velocity=127 time=31
the msg is note_on channel=9 note=44 velocity=0 time=29
the msg is note_on channel=9 note=44 velocity=127 time=31
the msg is note_on channel=9 note=44 velocity=0 time=29
the msg is note_on channel=9 note=44 velocity=127 time=31
the msg is note_on channel=9 note=44 velocity=0 time=29
the msg is note_on channel=9 note=44 velocity=127 time=31
the msg is note_on channel=9 note=44 velocity=0 time=29
the msg is note_on channel=9 note=44 velocity=127 time=31
the msg is note_on channel=9 note=44 velocity=0 time=29
the msg is note_on channel=9 note=44 velocity=127 time=31
the msg is note_on channel=9 note=44 velocity=0 time=29
the msg is note_on channel=9 note=44 velocity=127 time=31
the msg is note_on channel=9 note=44 velocity=0 time=29
the msg is note_on channel=9 note=44 velocity=127 time=31
the msg is note_on channel=9 note=44 velocity=0 time=29
the msg is note_on channel=9 note=44 velocity=127 time=31
the msg is note_on channel=9 note=44 velocity=0 time=29
the msg is note_on channel=9 note=44 velocity=127 time=31
the msg is note_on channel=9 note=44 velocity=0 time=29
the msg is note_on channel=9 note=44 velocity=127 time=31
the msg is note_on channel=9 note=44 velocity=0 time=29
the msg is note_on channel=9 note=44 velocity=127 time=31
the msg is note_on channel=9 note=44 velocity=0 time=29
the msg is note_on channel=9 note=44 velocity=127 time=31
the msg is note_on channel=9 note=44 velocity=0 time=29
the msg is note_on channel=9 note=44 velocity=127 time=31
the msg is note_on channel=9 note=44 velocity=0 time=29
the msg is note_on channel=9 note=44 velocity=127 time=31
the msg is note_on channel=9 note=44 velocity=0 time=29
the msg is note_on channel=9 note=44 velocity=127 time=31
the msg is note_on channel=9 note=44 velocity=0 time=29
the msg is note_on channel=9 note=44 velocity=127 time=31
the msg is note_on channel=9 note=44 velocity=0 time=29
the msg is note_on channel=9 note=44 velocity=127 time=31
the msg is note_on channel=9 note=44 velocity=0 time=29
the msg is note_on channel=9 note=57 velocity=127 time=31
the msg is note_on channel=9 note=44 velocity=127 time=0
the msg is note_on channel=9 note=44 velocity=0 time=29
the msg is note_on channel=9 note=44 velocity=127 time=31
the msg is note_on channel=9 note=44 velocity=0 time=29
the msg is note_on channel=9 note=44 velocity=127 time=31
the msg is note_on channel=9 note=44 velocity=0 time=29
the msg is note_on channel=9 note=44 velocity=127 time=31
the msg is note_on channel=9 note=44 velocity=0 time=29
the msg is note_on channel=9 note=44 velocity=127 time=31
the msg is note_on channel=9 note=44 velocity=0 time=29
the msg is note_on channel=9 note=44 velocity=127 time=31
the msg is note_on channel=9 note=44 velocity=0 time=29
the msg is note_on channel=9 note=44 velocity=127 time=31
the msg is note_on channel=9 note=44 velocity=0 time=29
the msg is note_on channel=9 note=44 velocity=127 time=31
the msg is note_on channel=9 note=44 velocity=0 time=29
the msg is note_on channel=9 note=57 velocity=0 time=30
the msg is note_on channel=9 note=44 velocity=127 time=1
the msg is note_on channel=9 note=44 velocity=0 time=29
the msg is note_on channel=9 note=44 velocity=127 time=31
the msg is note_on channel=9 note=44 velocity=0 time=29
the msg is note_on channel=9 note=44 velocity=127 time=31
the msg is note_on channel=9 note=44 velocity=0 time=29
the msg is note_on channel=9 note=44 velocity=127 time=31
the msg is note_on channel=9 note=44 velocity=0 time=29
the msg is note_on channel=9 note=44 velocity=127 time=31
the msg is note_on channel=9 note=44 velocity=0 time=29
the msg is note_on channel=9 note=44 velocity=127 time=31
the msg is note_on channel=9 note=44 velocity=0 time=29
the msg is note_on channel=9 note=44 velocity=127 time=31
the msg is note_on channel=9 note=44 velocity=0 time=29
the msg is note_on channel=9 note=44 velocity=127 time=31
the msg is note_on channel=9 note=44 velocity=0 time=29
the msg is note_on channel=9 note=44 velocity=127 time=31
the msg is note_on channel=9 note=44 velocity=0 time=29
the msg is note_on channel=9 note=44 velocity=127 time=31
the msg is note_on channel=9 note=44 velocity=0 time=29
the msg is note_on channel=9 note=44 velocity=127 time=31
the msg is note_on channel=9 note=44 velocity=0 time=29
the msg is note_on channel=9 note=44 velocity=127 time=31
the msg is note_on channel=9 note=44 velocity=0 time=29
the msg is note_on channel=9 note=44 velocity=127 time=31
the msg is note_on channel=9 note=44 velocity=0 time=29
the msg is note_on channel=9 note=44 velocity=127 time=31
the msg is note_on channel=9 note=44 velocity=0 time=29
the msg is note_on channel=9 note=44 velocity=127 time=31
the msg is note_on channel=9 note=44 velocity=0 time=29
the msg is note_on channel=9 note=44 velocity=127 time=31
the msg is note_on channel=9 note=44 velocity=0 time=29
the msg is note_on channel=9 note=44 velocity=127 time=31
the msg is note_on channel=9 note=44 velocity=0 time=29
the msg is note_on channel=9 note=44 velocity=127 time=31
the msg is note_on channel=9 note=44 velocity=0 time=29
the msg is note_on channel=9 note=44 velocity=127 time=31
the msg is note_on channel=9 note=44 velocity=0 time=29
the msg is note_on channel=9 note=44 velocity=127 time=31
the msg is note_on channel=9 note=44 velocity=0 time=29
the msg is note_on channel=9 note=44 velocity=127 time=31
the msg is note_on channel=9 note=44 velocity=0 time=29
the msg is note_on channel=9 note=44 velocity=127 time=31
the msg is note_on channel=9 note=44 velocity=0 time=29
the msg is note_on channel=9 note=44 velocity=127 time=31
the msg is note_on channel=9 note=44 velocity=0 time=29
the msg is note_on channel=9 note=44 velocity=127 time=31
the msg is note_on channel=9 note=44 velocity=0 time=29
the msg is note_on channel=9 note=57 velocity=127 time=31
the msg is note_on channel=9 note=44 velocity=127 time=0
the msg is note_on channel=9 note=44 velocity=0 time=29
the msg is note_on channel=9 note=44 velocity=127 time=31
the msg is note_on channel=9 note=44 velocity=0 time=29
the msg is note_on channel=9 note=44 velocity=127 time=31
the msg is note_on channel=9 note=44 velocity=0 time=29
the msg is note_on channel=9 note=44 velocity=127 time=31
the msg is note_on channel=9 note=44 velocity=0 time=29
the msg is note_on channel=9 note=44 velocity=127 time=31
the msg is note_on channel=9 note=44 velocity=0 time=29
the msg is note_on channel=9 note=44 velocity=127 time=31
the msg is note_on channel=9 note=44 velocity=0 time=29
the msg is note_on channel=9 note=44 velocity=127 time=31
the msg is note_on channel=9 note=44 velocity=0 time=29
the msg is note_on channel=9 note=44 velocity=127 time=31
the msg is note_on channel=9 note=44 velocity=0 time=29
the msg is note_on channel=9 note=57 velocity=0 time=30
the msg is note_on channel=9 note=44 velocity=127 time=1
the msg is note_on channel=9 note=44 velocity=0 time=29
the msg is note_on channel=9 note=44 velocity=127 time=31
the msg is note_on channel=9 note=44 velocity=0 time=29
the msg is note_on channel=9 note=44 velocity=127 time=31
the msg is note_on channel=9 note=44 velocity=0 time=29
the msg is note_on channel=9 note=44 velocity=127 time=31
the msg is note_on channel=9 note=44 velocity=0 time=29
the msg is note_on channel=9 note=44 velocity=127 time=31
the msg is note_on channel=9 note=44 velocity=0 time=29
the msg is note_on channel=9 note=44 velocity=127 time=31
the msg is note_on channel=9 note=44 velocity=0 time=29
the msg is note_on channel=9 note=44 velocity=127 time=31
the msg is note_on channel=9 note=44 velocity=0 time=29
the msg is note_on channel=9 note=44 velocity=127 time=31
the msg is note_on channel=9 note=44 velocity=0 time=29
the msg is note_on channel=9 note=44 velocity=127 time=31
the msg is note_on channel=9 note=44 velocity=0 time=29
the msg is note_on channel=9 note=44 velocity=127 time=31
the msg is note_on channel=9 note=44 velocity=0 time=29
the msg is note_on channel=9 note=44 velocity=127 time=31
the msg is note_on channel=9 note=44 velocity=0 time=29
the msg is note_on channel=9 note=44 velocity=127 time=31
the msg is note_on channel=9 note=44 velocity=0 time=29
the msg is note_on channel=9 note=44 velocity=127 time=31
the msg is note_on channel=9 note=44 velocity=0 time=29
the msg is note_on channel=9 note=44 velocity=127 time=31
the msg is note_on channel=9 note=44 velocity=0 time=29
the msg is note_on channel=9 note=44 velocity=127 time=31
the msg is note_on channel=9 note=44 velocity=0 time=29
the msg is note_on channel=9 note=44 velocity=127 time=31
the msg is note_on channel=9 note=44 velocity=0 time=29
the msg is note_on channel=9 note=44 velocity=127 time=31
the msg is note_on channel=9 note=44 velocity=0 time=29
the msg is note_on channel=9 note=44 velocity=127 time=31
the msg is note_on channel=9 note=44 velocity=0 time=29
the msg is note_on channel=9 note=44 velocity=127 time=31
the msg is note_on channel=9 note=44 velocity=0 time=29
the msg is note_on channel=9 note=44 velocity=127 time=31
the msg is note_on channel=9 note=44 velocity=0 time=29
the msg is note_on channel=9 note=44 velocity=127 time=31
the msg is note_on channel=9 note=44 velocity=0 time=29
the msg is note_on channel=9 note=44 velocity=127 time=31
the msg is note_on channel=9 note=44 velocity=0 time=29
the msg is note_on channel=9 note=44 velocity=127 time=31
the msg is note_on channel=9 note=44 velocity=0 time=29
the msg is note_on channel=9 note=44 velocity=127 time=31
the msg is note_on channel=9 note=44 velocity=0 time=29
the msg is note_on channel=9 note=44 velocity=127 time=31
the msg is program_change channel=9 program=0 time=0
the msg is note_on channel=9 note=57 velocity=127 time=0
the msg is note_on channel=9 note=44 velocity=0 time=29
the msg is note_on channel=9 note=44 velocity=127 time=31
the msg is note_on channel=9 note=44 velocity=0 time=29
the msg is note_on channel=9 note=44 velocity=127 time=31
the msg is note_on channel=9 note=44 velocity=0 time=29
the msg is note_on channel=9 note=44 velocity=127 time=31
the msg is note_on channel=9 note=44 velocity=0 time=29
the msg is note_on channel=9 note=44 velocity=127 time=31
the msg is note_on channel=9 note=44 velocity=0 time=29
the msg is note_on channel=9 note=44 velocity=127 time=31
the msg is note_on channel=9 note=44 velocity=0 time=29
the msg is note_on channel=9 note=44 velocity=127 time=31
the msg is note_on channel=9 note=44 velocity=0 time=29
the msg is note_on channel=9 note=44 velocity=127 time=31
the msg is note_on channel=9 note=44 velocity=0 time=29
the msg is note_on channel=9 note=57 velocity=0 time=30
the msg is note_on channel=9 note=44 velocity=127 time=1
the msg is note_on channel=9 note=44 velocity=0 time=29
the msg is note_on channel=9 note=44 velocity=127 time=31
the msg is note_on channel=9 note=44 velocity=0 time=29
the msg is note_on channel=9 note=44 velocity=127 time=31
the msg is note_on channel=9 note=44 velocity=0 time=29
the msg is note_on channel=9 note=44 velocity=127 time=31
the msg is note_on channel=9 note=44 velocity=0 time=29
the msg is note_on channel=9 note=44 velocity=127 time=31
the msg is note_on channel=9 note=44 velocity=0 time=29
the msg is note_on channel=9 note=44 velocity=127 time=31
the msg is note_on channel=9 note=44 velocity=0 time=29
the msg is note_on channel=9 note=44 velocity=127 time=31
the msg is note_on channel=9 note=44 velocity=0 time=29
the msg is note_on channel=9 note=57 velocity=127 time=1
the msg is note_on channel=9 note=57 velocity=0 time=29
the msg is note_on channel=9 note=44 velocity=127 time=1
the msg is note_on channel=9 note=44 velocity=0 time=29
the msg is note_on channel=9 note=49 velocity=127 time=31
the msg is note_on channel=9 note=44 velocity=127 time=0
the msg is note_on channel=9 note=44 velocity=0 time=29
the msg is note_on channel=9 note=49 velocity=0 time=0
the msg is note_on channel=9 note=44 velocity=127 time=31
the msg is note_on channel=9 note=44 velocity=0 time=29
the msg is note_on channel=9 note=44 velocity=127 time=31
the msg is note_on channel=9 note=44 velocity=0 time=29
the msg is note_on channel=9 note=44 velocity=127 time=31
the msg is note_on channel=9 note=44 velocity=0 time=29
the msg is note_on channel=9 note=44 velocity=127 time=31
the msg is note_on channel=9 note=44 velocity=0 time=29
the msg is note_on channel=9 note=44 velocity=127 time=31
the msg is note_on channel=9 note=44 velocity=0 time=29
the msg is note_on channel=9 note=44 velocity=127 time=31
the msg is note_on channel=9 note=44 velocity=0 time=29
the msg is note_on channel=9 note=44 velocity=127 time=31
the msg is note_on channel=9 note=44 velocity=0 time=29
the msg is control_change channel=9 control=11 value=127 time=31
the msg is note_on channel=9 note=44 velocity=127 time=0
the msg is note_on channel=9 note=44 velocity=0 time=29
the msg is control_change channel=9 control=11 value=126 time=19
the msg is control_change channel=9 control=11 value=125 time=8
the msg is note_on channel=9 note=44 velocity=127 time=4
the msg is control_change channel=9 control=11 value=124 time=4
the msg is control_change channel=9 control=11 value=123 time=16
the msg is control_change channel=9 control=11 value=122 time=8
the msg is note_on channel=9 note=44 velocity=0 time=1
the msg is control_change channel=9 control=11 value=121 time=7
the msg is control_change channel=9 control=11 value=120 time=8
the msg is control_change channel=9 control=11 value=119 time=8
the msg is note_on channel=9 note=44 velocity=127 time=8
the msg is control_change channel=9 control=11 value=118 time=0
the msg is control_change channel=9 control=11 value=117 time=16
the msg is note_on channel=9 note=44 velocity=0 time=13
the msg is control_change channel=9 control=11 value=116 time=3
the msg is note_on channel=9 note=44 velocity=127 time=28
the msg is control_change channel=9 control=11 value=115 time=4
the msg is note_on channel=9 note=44 velocity=0 time=25
the msg is note_on channel=9 note=44 velocity=127 time=31
the msg is control_change channel=9 control=11 value=114 time=8
the msg is control_change channel=9 control=11 value=113 time=16
the msg is note_on channel=9 note=44 velocity=0 time=5
the msg is control_change channel=9 control=11 value=112 time=11
the msg is note_on channel=9 note=44 velocity=127 time=20
the msg is control_change channel=9 control=11 value=111 time=12
the msg is control_change channel=9 control=11 value=110 time=8
the msg is control_change channel=9 control=11 value=109 time=8
the msg is note_on channel=9 note=44 velocity=0 time=1
the msg is control_change channel=9 control=11 value=108 time=7
the msg is note_on channel=9 note=44 velocity=127 time=24
the msg is control_change channel=9 control=11 value=106 time=16
the msg is note_on channel=9 note=44 velocity=0 time=13
the msg is control_change channel=9 control=11 value=105 time=3
the msg is control_change channel=9 control=11 value=104 time=8
the msg is control_change channel=9 control=11 value=103 time=8
the msg is control_change channel=9 control=11 value=102 time=8
the msg is note_on channel=9 note=44 velocity=127 time=4
the msg is control_change channel=9 control=11 value=101 time=4
the msg is control_change channel=9 control=11 value=100 time=24
the msg is note_on channel=9 note=44 velocity=0 time=1
the msg is control_change channel=9 control=11 value=99 time=7
the msg is note_on channel=9 note=57 velocity=127 time=24
the msg is note_on channel=9 note=44 velocity=127 time=0
the msg is control_change channel=9 control=11 value=97 time=0
the msg is control_change channel=9 control=11 value=96 time=8
the msg is control_change channel=9 control=11 value=95 time=8
the msg is note_on channel=9 note=44 velocity=0 time=13
the msg is control_change channel=9 control=11 value=94 time=3
the msg is control_change channel=9 control=11 value=93 time=24
the msg is note_on channel=9 note=44 velocity=127 time=4
the msg is control_change channel=9 control=11 value=91 time=4
the msg is note_on channel=9 note=44 velocity=0 time=25
the msg is control_change channel=9 control=11 value=90 time=7
the msg is control_change channel=9 control=11 value=89 time=8
the msg is control_change channel=9 control=11 value=88 time=8
the msg is note_on channel=9 note=44 velocity=127 time=8
the msg is control_change channel=9 control=11 value=86 time=16
the msg is control_change channel=9 control=11 value=85 time=8
the msg is note_on channel=9 note=44 velocity=0 time=5
the msg is control_change channel=9 control=11 value=84 time=19
the msg is note_on channel=9 note=44 velocity=127 time=12
the msg is control_change channel=9 control=11 value=83 time=20
the msg is note_on channel=9 note=44 velocity=0 time=9
the msg is control_change channel=9 control=11 value=82 time=15
the msg is note_on channel=9 note=44 velocity=127 time=16
the msg is control_change channel=9 control=11 value=81 time=8
the msg is control_change channel=9 control=11 value=80 time=16
the msg is note_on channel=9 note=44 velocity=0 time=5
the msg is control_change channel=9 control=11 value=79 time=3
the msg is control_change channel=9 control=11 value=78 time=16
the msg is control_change channel=9 control=11 value=77 time=8
the msg is note_on channel=9 note=44 velocity=127 time=4
the msg is note_on channel=9 note=44 velocity=0 time=29
the msg is control_change channel=9 control=11 value=76 time=7
the msg is control_change channel=9 control=11 value=75 time=8
the msg is note_on channel=9 note=44 velocity=127 time=16
the msg is control_change channel=9 control=11 value=74 time=8
the msg is note_on channel=9 note=44 velocity=0 time=21
the msg is control_change channel=9 control=11 value=73 time=19
the msg is note_on channel=9 note=44 velocity=127 time=12
the msg is control_change channel=9 control=11 value=72 time=12
the msg is control_change channel=9 control=11 value=71 time=16
the msg is note_on channel=9 note=44 velocity=0 time=1
the msg is control_change channel=9 control=11 value=70 time=23
the msg is note_on channel=9 note=57 velocity=0 time=7
the msg is note_on channel=9 note=44 velocity=127 time=1
the msg is control_change channel=9 control=11 value=69 time=0
the msg is control_change channel=9 control=11 value=68 time=8
the msg is control_change channel=9 control=11 value=67 time=8
the msg is control_change channel=9 control=11 value=66 time=8
the msg is note_on channel=9 note=44 velocity=0 time=5
the msg is control_change channel=9 control=11 value=65 time=3
the msg is control_change channel=9 control=11 value=64 time=8
the msg is control_change channel=9 control=11 value=63 time=8
the msg is control_change channel=9 control=11 value=62 time=8
the msg is note_on channel=9 note=44 velocity=127 time=4
the msg is note_on channel=9 note=44 velocity=0 time=29
the msg is control_change channel=9 control=11 value=61 time=23
the msg is note_on channel=9 note=44 velocity=127 time=8
the msg is control_change channel=9 control=11 value=60 time=16
the msg is control_change channel=9 control=11 value=59 time=8
the msg is note_on channel=9 note=44 velocity=0 time=5
the msg is control_change channel=9 control=11 value=58 time=19
the msg is note_on channel=9 note=44 velocity=127 time=12
the msg is control_change channel=9 control=11 value=57 time=4
the msg is control_change channel=9 control=11 value=56 time=8
the msg is control_change channel=9 control=11 value=55 time=16
the msg is note_on channel=9 note=44 velocity=0 time=1
the msg is control_change channel=9 control=11 value=54 time=23
the msg is note_on channel=9 note=44 velocity=127 time=8
the msg is control_change channel=9 control=11 value=53 time=8
the msg is control_change channel=9 control=11 value=51 time=8
the msg is note_on channel=9 note=44 velocity=0 time=13
the msg is control_change channel=9 control=11 value=50 time=3
the msg is control_change channel=9 control=11 value=49 time=24
the msg is note_on channel=9 note=44 velocity=127 time=4
the msg is control_change channel=9 control=11 value=48 time=4
the msg is control_change channel=9 control=11 value=47 time=8
the msg is control_change channel=9 control=11 value=46 time=8
the msg is note_on channel=9 note=44 velocity=0 time=9
the msg is control_change channel=9 control=11 value=45 time=7
the msg is note_on channel=9 note=44 velocity=127 time=24
the msg is control_change channel=9 control=11 value=44 time=8
the msg is control_change channel=9 control=11 value=43 time=8
the msg is control_change channel=9 control=11 value=42 time=8
the msg is note_on channel=9 note=44 velocity=0 time=5
the msg is control_change channel=9 control=11 value=41 time=3
the msg is note_on channel=9 note=44 velocity=127 time=28
the msg is control_change channel=9 control=11 value=40 time=12
the msg is control_change channel=9 control=11 value=39 time=8
the msg is note_on channel=9 note=44 velocity=0 time=9
the msg is control_change channel=9 control=11 value=38 time=15
the msg is control_change channel=9 control=11 value=37 time=8
the msg is control_change channel=9 control=11 value=36 time=8
the msg is note_on channel=9 note=44 velocity=127 time=0
the msg is control_change channel=9 control=11 value=35 time=16
the msg is note_on channel=9 note=44 velocity=0 time=13
the msg is control_change channel=9 control=11 value=34 time=3
the msg is control_change channel=9 control=11 value=33 time=16
the msg is note_on channel=9 note=44 velocity=127 time=12
the msg is control_change channel=9 control=11 value=32 time=4
the msg is note_on channel=9 note=44 velocity=0 time=25
the msg is control_change channel=9 control=11 value=31 time=7
the msg is control_change channel=9 control=11 value=30 time=16
the msg is note_on channel=9 note=44 velocity=127 time=8
the msg is control_change channel=9 control=11 value=29 time=8
the msg is control_change channel=9 control=11 value=28 time=8
the msg is control_change channel=9 control=11 value=27 time=8
the msg is note_on channel=9 note=44 velocity=0 time=5
the msg is control_change channel=9 control=11 value=26 time=3
the msg is control_change channel=9 control=11 value=25 time=8
the msg is control_change channel=9 control=11 value=24 time=8
the msg is control_change channel=9 control=11 value=23 time=8
the msg is note_on channel=9 note=44 velocity=127 time=4
the msg is control_change channel=9 control=11 value=22 time=20
the msg is note_on channel=9 note=44 velocity=0 time=9
the msg is control_change channel=9 control=11 value=21 time=7
the msg is note_on channel=9 note=44 velocity=127 time=24
the msg is control_change channel=9 control=11 value=20 time=0
the msg is control_change channel=9 control=11 value=19 time=8
the msg is control_change channel=9 control=11 value=18 time=8
the msg is note_on channel=9 note=44 velocity=0 time=13
the msg is control_change channel=9 control=11 value=16 time=3
the msg is control_change channel=9 control=11 value=15 time=16
the msg is control_change channel=9 control=11 value=14 time=8
the msg is note_on channel=9 note=44 velocity=127 time=4
the msg is control_change channel=9 control=11 value=13 time=4
the msg is control_change channel=9 control=11 value=12 time=8
the msg is note_on channel=9 note=44 velocity=0 time=17
the msg is control_change channel=9 control=11 value=11 time=7
the msg is control_change channel=9 control=11 value=10 time=8
the msg is note_on channel=9 note=44 velocity=127 time=16
the msg is control_change channel=9 control=11 value=9 time=8
the msg is control_change channel=9 control=11 value=6 time=8
the msg is note_on channel=9 note=44 velocity=0 time=13
the msg is control_change channel=9 control=11 value=5 time=27
the msg is note_on channel=9 note=44 velocity=127 time=4
the msg is control_change channel=9 control=11 value=4 time=4
the msg is note_on channel=9 note=44 velocity=0 time=25
the msg is control_change channel=9 control=11 value=3 time=7
the msg is control_change channel=9 control=11 value=0 time=8
the msg is note_on channel=9 note=44 velocity=127 time=16
the msg is note_on channel=9 note=44 velocity=0 time=29
the msg is <meta message end_of_track time=0>
the msg is control_change channel=9 control=0 value=0 time=0
the msg is <meta message sequencer_specific data=(74, 65, 90, 50, 1, 0, 0, 0, 0, 0, 0, 0, 0, 0, 0, 0, 0, 0, 0, 0) time=0>
the msg is <meta message track_name name='Percussion (snare)' time=0>
the msg is <meta message midi_port port=0 time=0>
the msg is note_on channel=9 note=40 velocity=127 time=120
the msg is note_on channel=9 note=40 velocity=0 time=29
the msg is note_on channel=9 note=40 velocity=127 time=211
the msg is note_on channel=9 note=40 velocity=0 time=29
the msg is note_on channel=9 note=40 velocity=127 time=211
the msg is note_on channel=9 note=40 velocity=0 time=29
the msg is note_on channel=9 note=40 velocity=127 time=211
the msg is note_on channel=9 note=40 velocity=0 time=9
the msg is note_on channel=9 note=40 velocity=127 time=1
the msg is note_on channel=9 note=40 velocity=0 time=9
the msg is note_on channel=9 note=40 velocity=127 time=1
the msg is note_on channel=9 note=40 velocity=0 time=9
the msg is note_on channel=9 note=40 velocity=127 time=1
the msg is note_on channel=9 note=40 velocity=0 time=29
the msg is note_on channel=9 note=40 velocity=127 time=31
the msg is note_on channel=9 note=40 velocity=0 time=29
the msg is note_on channel=9 note=40 velocity=127 time=121
the msg is note_on channel=9 note=40 velocity=0 time=29
the msg is note_on channel=9 note=40 velocity=127 time=211
the msg is note_on channel=9 note=40 velocity=0 time=29
the msg is note_on channel=9 note=40 velocity=127 time=211
the msg is note_on channel=9 note=40 velocity=0 time=29
the msg is note_on channel=9 note=40 velocity=127 time=151
the msg is note_on channel=9 note=40 velocity=0 time=9
the msg is note_on channel=9 note=40 velocity=127 time=1
the msg is note_on channel=9 note=40 velocity=0 time=9
the msg is note_on channel=9 note=40 velocity=127 time=1
the msg is note_on channel=9 note=40 velocity=0 time=9
the msg is note_on channel=9 note=40 velocity=127 time=1
the msg is note_on channel=9 note=40 velocity=0 time=29
the msg is note_on channel=9 note=40 velocity=127 time=241
the msg is note_on channel=9 note=40 velocity=0 time=29
the msg is note_on channel=9 note=40 velocity=127 time=211
the msg is note_on channel=9 note=40 velocity=0 time=29
the msg is note_on channel=9 note=40 velocity=127 time=211
the msg is note_on channel=9 note=40 velocity=0 time=29
the msg is note_on channel=9 note=40 velocity=127 time=211
the msg is note_on channel=9 note=40 velocity=0 time=9
the msg is note_on channel=9 note=40 velocity=127 time=1
the msg is note_on channel=9 note=40 velocity=0 time=9
the msg is note_on channel=9 note=40 velocity=127 time=1
the msg is note_on channel=9 note=40 velocity=0 time=9
the msg is note_on channel=9 note=40 velocity=127 time=1
the msg is note_on channel=9 note=40 velocity=0 time=29
the msg is note_on channel=9 note=40 velocity=127 time=31
the msg is note_on channel=9 note=40 velocity=0 time=29
the msg is note_on channel=9 note=40 velocity=127 time=121
the msg is note_on channel=9 note=40 velocity=0 time=29
the msg is note_on channel=9 note=40 velocity=127 time=211
the msg is note_on channel=9 note=40 velocity=0 time=29
the msg is note_on channel=9 note=40 velocity=127 time=211
the msg is note_on channel=9 note=40 velocity=0 time=29
the msg is note_on channel=9 note=40 velocity=127 time=151
the msg is note_on channel=9 note=40 velocity=0 time=9
the msg is note_on channel=9 note=40 velocity=127 time=1
the msg is note_on channel=9 note=40 velocity=0 time=9
the msg is note_on channel=9 note=40 velocity=127 time=1
the msg is note_on channel=9 note=40 velocity=0 time=9
the msg is note_on channel=9 note=40 velocity=127 time=1
the msg is note_on channel=9 note=40 velocity=0 time=29
the msg is note_on channel=9 note=40 velocity=127 time=241
the msg is note_on channel=9 note=40 velocity=0 time=29
the msg is note_on channel=9 note=40 velocity=127 time=211
the msg is note_on channel=9 note=40 velocity=0 time=29
the msg is note_on channel=9 note=40 velocity=127 time=211
the msg is note_on channel=9 note=40 velocity=0 time=29
the msg is note_on channel=9 note=40 velocity=127 time=61
the msg is note_on channel=9 note=40 velocity=0 time=29
the msg is note_on channel=9 note=40 velocity=127 time=31
the msg is note_on channel=9 note=40 velocity=0 time=29
the msg is note_on channel=9 note=40 velocity=127 time=61
the msg is note_on channel=9 note=40 velocity=0 time=29
the msg is note_on channel=9 note=40 velocity=127 time=211
the msg is note_on channel=9 note=40 velocity=0 time=29
the msg is note_on channel=9 note=40 velocity=127 time=61
the msg is note_on channel=9 note=40 velocity=0 time=29
the msg is note_on channel=9 note=40 velocity=127 time=121
the msg is note_on channel=9 note=40 velocity=0 time=29
the msg is note_on channel=9 note=40 velocity=127 time=211
the msg is note_on channel=9 note=40 velocity=0 time=29
the msg is note_on channel=9 note=40 velocity=127 time=31
the msg is note_on channel=9 note=40 velocity=0 time=29
the msg is note_on channel=9 note=40 velocity=127 time=1
the msg is note_on channel=9 note=40 velocity=0 time=29
the msg is note_on channel=9 note=40 velocity=127 time=91
the msg is note_on channel=9 note=40 velocity=0 time=9
the msg is note_on channel=9 note=40 velocity=127 time=1
the msg is note_on channel=9 note=40 velocity=0 time=9
the msg is note_on channel=9 note=40 velocity=127 time=1
the msg is note_on channel=9 note=40 velocity=0 time=9
the msg is note_on channel=9 note=40 velocity=127 time=1
the msg is note_on channel=9 note=40 velocity=0 time=29
the msg is note_on channel=9 note=40 velocity=127 time=211
the msg is note_on channel=9 note=40 velocity=0 time=29
the msg is note_on channel=9 note=40 velocity=127 time=121
the msg is note_on channel=9 note=40 velocity=0 time=29
the msg is note_on channel=9 note=40 velocity=127 time=61
the msg is note_on channel=9 note=40 velocity=0 time=14
the msg is note_on channel=9 note=40 velocity=127 time=1
the msg is note_on channel=9 note=40 velocity=0 time=14
the msg is note_on channel=9 note=40 velocity=127 time=1
the msg is note_on channel=9 note=40 velocity=0 time=14
the msg is note_on channel=9 note=40 velocity=127 time=1
the msg is note_on channel=9 note=40 velocity=0 time=14
the msg is note_on channel=9 note=40 velocity=127 time=1
the msg is note_on channel=9 note=40 velocity=0 time=29
the msg is note_on channel=9 note=40 velocity=127 time=151
the msg is note_on channel=9 note=40 velocity=0 time=29
the msg is note_on channel=9 note=40 velocity=127 time=61
the msg is note_on channel=9 note=40 velocity=0 time=29
the msg is note_on channel=9 note=40 velocity=127 time=91
the msg is note_on channel=9 note=40 velocity=0 time=9
the msg is note_on channel=9 note=40 velocity=127 time=1
the msg is note_on channel=9 note=40 velocity=0 time=9
the msg is note_on channel=9 note=40 velocity=127 time=1
the msg is note_on channel=9 note=40 velocity=0 time=9
the msg is note_on channel=9 note=40 velocity=127 time=1
the msg is note_on channel=9 note=40 velocity=0 time=29
the msg is note_on channel=9 note=40 velocity=127 time=211
the msg is note_on channel=9 note=40 velocity=0 time=29
the msg is note_on channel=9 note=40 velocity=127 time=211
the msg is note_on channel=9 note=40 velocity=0 time=29
the msg is note_on channel=9 note=40 velocity=127 time=211
the msg is note_on channel=9 note=40 velocity=0 time=29
the msg is note_on channel=9 note=40 velocity=127 time=211
the msg is note_on channel=9 note=40 velocity=0 time=29
the msg is note_on channel=9 note=40 velocity=127 time=211
the msg is note_on channel=9 note=40 velocity=0 time=29
the msg is note_on channel=9 note=40 velocity=127 time=211
the msg is note_on channel=9 note=40 velocity=0 time=29
the msg is note_on channel=9 note=40 velocity=127 time=211
the msg is note_on channel=9 note=40 velocity=0 time=29
the msg is note_on channel=9 note=40 velocity=127 time=61
the msg is note_on channel=9 note=40 velocity=0 time=29
the msg is note_on channel=9 note=45 velocity=127 time=1
the msg is note_on channel=9 note=45 velocity=0 time=29
the msg is note_on channel=9 note=40 velocity=127 time=1
the msg is note_on channel=9 note=40 velocity=0 time=29
the msg is note_on channel=9 note=45 velocity=127 time=1
the msg is note_on channel=9 note=45 velocity=0 time=29
the msg is note_on channel=9 note=40 velocity=127 time=1
the msg is note_on channel=9 note=40 velocity=0 time=29
the msg is note_on channel=9 note=43 velocity=127 time=1
the msg is note_on channel=9 note=40 velocity=127 time=0
the msg is note_on channel=9 note=43 velocity=0 time=29
the msg is note_on channel=9 note=40 velocity=0 time=0
the msg is note_on channel=9 note=41 velocity=127 time=1
the msg is note_on channel=9 note=41 velocity=0 time=29
the msg is note_on channel=9 note=41 velocity=127 time=31
the msg is note_on channel=9 note=41 velocity=0 time=29
the msg is note_on channel=9 note=40 velocity=127 time=121
the msg is note_on channel=9 note=40 velocity=0 time=29
the msg is note_on channel=9 note=40 velocity=127 time=211
the msg is note_on channel=9 note=40 velocity=0 time=29
the msg is note_on channel=9 note=40 velocity=127 time=211
the msg is note_on channel=9 note=40 velocity=0 time=29
the msg is note_on channel=9 note=40 velocity=127 time=211
the msg is note_on channel=9 note=40 velocity=0 time=29
the msg is note_on channel=9 note=40 velocity=127 time=211
the msg is note_on channel=9 note=40 velocity=0 time=29
the msg is note_on channel=9 note=40 velocity=127 time=211
the msg is note_on channel=9 note=40 velocity=0 time=29
the msg is note_on channel=9 note=40 velocity=127 time=211
the msg is note_on channel=9 note=40 velocity=0 time=29
the msg is note_on channel=9 note=40 velocity=127 time=61
the msg is note_on channel=9 note=40 velocity=0 time=29
the msg is note_on channel=9 note=43 velocity=127 time=31
the msg is note_on channel=9 note=43 velocity=0 time=29
the msg is note_on channel=9 note=43 velocity=127 time=31
the msg is note_on channel=9 note=43 velocity=0 time=29
the msg is note_on channel=9 note=40 velocity=127 time=1
the msg is note_on channel=9 note=40 velocity=0 time=29
the msg is note_on channel=9 note=40 velocity=127 time=211
the msg is note_on channel=9 note=40 velocity=0 time=29
the msg is note_on channel=9 note=40 velocity=127 time=211
the msg is note_on channel=9 note=40 velocity=0 time=29
the msg is note_on channel=9 note=40 velocity=127 time=211
the msg is note_on channel=9 note=40 velocity=0 time=29
the msg is note_on channel=9 note=40 velocity=127 time=211
the msg is note_on channel=9 note=40 velocity=0 time=29
the msg is note_on channel=9 note=40 velocity=127 time=211
the msg is note_on channel=9 note=40 velocity=0 time=29
the msg is note_on channel=9 note=40 velocity=127 time=211
the msg is note_on channel=9 note=40 velocity=0 time=29
the msg is note_on channel=9 note=40 velocity=127 time=151
the msg is note_on channel=9 note=40 velocity=0 time=29
the msg is note_on channel=9 note=40 velocity=127 time=31
the msg is note_on channel=9 note=40 velocity=0 time=29
the msg is note_on channel=9 note=40 velocity=127 time=61
the msg is note_on channel=9 note=40 velocity=0 time=29
the msg is note_on channel=9 note=40 velocity=127 time=31
the msg is note_on channel=9 note=40 velocity=0 time=29
the msg is note_on channel=9 note=40 velocity=127 time=31
the msg is note_on channel=9 note=40 velocity=0 time=29
the msg is note_on channel=9 note=41 velocity=127 time=1
the msg is note_on channel=9 note=45 velocity=127 time=0
the msg is note_on channel=9 note=41 velocity=0 time=29
the msg is note_on channel=9 note=45 velocity=0 time=0
the msg is note_on channel=9 note=40 velocity=127 time=1
the msg is note_on channel=9 note=40 velocity=0 time=29
the msg is note_on channel=9 note=40 velocity=127 time=31
the msg is note_on channel=9 note=40 velocity=0 time=29
the msg is note_on channel=9 note=40 velocity=127 time=121
the msg is note_on channel=9 note=40 velocity=0 time=29
the msg is note_on channel=9 note=40 velocity=127 time=211
the msg is note_on channel=9 note=40 velocity=0 time=29
the msg is note_on channel=9 note=40 velocity=127 time=211
the msg is note_on channel=9 note=40 velocity=0 time=29
the msg is note_on channel=9 note=40 velocity=127 time=211
the msg is note_on channel=9 note=40 velocity=0 time=29
the msg is note_on channel=9 note=40 velocity=127 time=211
the msg is note_on channel=9 note=40 velocity=0 time=29
the msg is note_on channel=9 note=40 velocity=127 time=211
the msg is note_on channel=9 note=40 velocity=0 time=29
the msg is note_on channel=9 note=40 velocity=127 time=211
the msg is note_on channel=9 note=40 velocity=0 time=29
the msg is note_on channel=9 note=40 velocity=127 time=61
the msg is note_on channel=9 note=40 velocity=0 time=29
the msg is note_on channel=9 note=45 velocity=127 time=1
the msg is note_on channel=9 note=45 velocity=0 time=29
the msg is note_on channel=9 note=40 velocity=127 time=1
the msg is note_on channel=9 note=40 velocity=0 time=29
the msg is note_on channel=9 note=45 velocity=127 time=1
the msg is note_on channel=9 note=45 velocity=0 time=29
the msg is note_on channel=9 note=40 velocity=127 time=1
the msg is note_on channel=9 note=40 velocity=0 time=29
the msg is note_on channel=9 note=40 velocity=127 time=1
the msg is note_on channel=9 note=43 velocity=127 time=0
the msg is note_on channel=9 note=40 velocity=0 time=29
the msg is note_on channel=9 note=43 velocity=0 time=0
the msg is note_on channel=9 note=41 velocity=127 time=1
the msg is note_on channel=9 note=41 velocity=0 time=29
the msg is note_on channel=9 note=41 velocity=127 time=31
the msg is note_on channel=9 note=41 velocity=0 time=29
the msg is note_on channel=9 note=40 velocity=127 time=121
the msg is note_on channel=9 note=40 velocity=0 time=29
the msg is note_on channel=9 note=40 velocity=127 time=211
the msg is note_on channel=9 note=40 velocity=0 time=29
the msg is note_on channel=9 note=40 velocity=127 time=211
the msg is note_on channel=9 note=40 velocity=0 time=29
the msg is note_on channel=9 note=40 velocity=127 time=211
the msg is note_on channel=9 note=40 velocity=0 time=29
the msg is note_on channel=9 note=40 velocity=127 time=211
the msg is note_on channel=9 note=40 velocity=0 time=29
the msg is note_on channel=9 note=40 velocity=127 time=211
the msg is note_on channel=9 note=40 velocity=0 time=29
the msg is note_on channel=9 note=40 velocity=127 time=211
the msg is note_on channel=9 note=40 velocity=0 time=29
the msg is note_on channel=9 note=40 velocity=127 time=61
the msg is note_on channel=9 note=40 velocity=0 time=29
the msg is note_on channel=9 note=43 velocity=127 time=31
the msg is note_on channel=9 note=43 velocity=0 time=29
the msg is note_on channel=9 note=43 velocity=127 time=31
the msg is note_on channel=9 note=43 velocity=0 time=29
the msg is note_on channel=9 note=40 velocity=127 time=1
the msg is note_on channel=9 note=40 velocity=0 time=29
the msg is note_on channel=9 note=40 velocity=127 time=211
the msg is note_on channel=9 note=40 velocity=0 time=29
the msg is note_on channel=9 note=40 velocity=127 time=211
the msg is note_on channel=9 note=40 velocity=0 time=29
the msg is note_on channel=9 note=40 velocity=127 time=211
the msg is note_on channel=9 note=40 velocity=0 time=29
the msg is note_on channel=9 note=40 velocity=127 time=211
the msg is note_on channel=9 note=40 velocity=0 time=29
the msg is note_on channel=9 note=40 velocity=127 time=211
the msg is note_on channel=9 note=40 velocity=0 time=29
the msg is note_on channel=9 note=40 velocity=127 time=211
the msg is note_on channel=9 note=40 velocity=0 time=29
the msg is note_on channel=9 note=40 velocity=127 time=121
the msg is note_on channel=9 note=40 velocity=0 time=9
the msg is note_on channel=9 note=40 velocity=127 time=1
the msg is note_on channel=9 note=40 velocity=0 time=9
the msg is note_on channel=9 note=40 velocity=127 time=1
the msg is note_on channel=9 note=40 velocity=0 time=9
the msg is note_on channel=9 note=40 velocity=127 time=1
the msg is note_on channel=9 note=40 velocity=0 time=29
the msg is note_on channel=9 note=40 velocity=127 time=1
the msg is note_on channel=9 note=40 velocity=0 time=9
the msg is note_on channel=9 note=40 velocity=127 time=1
the msg is note_on channel=9 note=40 velocity=0 time=9
the msg is note_on channel=9 note=40 velocity=127 time=1
the msg is note_on channel=9 note=40 velocity=0 time=9
the msg is note_on channel=9 note=40 velocity=127 time=1
the msg is note_on channel=9 note=40 velocity=0 time=29
the msg is note_on channel=9 note=40 velocity=127 time=61
the msg is note_on channel=9 note=40 velocity=0 time=9
the msg is note_on channel=9 note=40 velocity=127 time=1
the msg is note_on channel=9 note=40 velocity=0 time=9
the msg is note_on channel=9 note=40 velocity=127 time=1
the msg is note_on channel=9 note=40 velocity=0 time=9
the msg is note_on channel=9 note=40 velocity=127 time=1
the msg is note_on channel=9 note=40 velocity=0 time=29
the msg is note_on channel=9 note=40 velocity=127 time=1
the msg is note_on channel=9 note=40 velocity=0 time=9
the msg is note_on channel=9 note=40 velocity=127 time=1
the msg is note_on channel=9 note=40 velocity=0 time=9
the msg is note_on channel=9 note=40 velocity=127 time=1
the msg is note_on channel=9 note=40 velocity=0 time=9
the msg is note_on channel=9 note=40 velocity=127 time=1
the msg is note_on channel=9 note=40 velocity=0 time=29
the msg is note_on channel=9 note=40 velocity=127 time=1
the msg is note_on channel=9 note=40 velocity=0 time=29
the msg is note_on channel=9 note=40 velocity=127 time=241
the msg is note_on channel=9 note=40 velocity=0 time=29
the msg is note_on channel=9 note=40 velocity=127 time=211
the msg is note_on channel=9 note=40 velocity=0 time=29
the msg is note_on channel=9 note=40 velocity=127 time=211
the msg is note_on channel=9 note=40 velocity=0 time=29
the msg is note_on channel=9 note=40 velocity=127 time=211
the msg is note_on channel=9 note=40 velocity=0 time=9
the msg is note_on channel=9 note=40 velocity=127 time=1
the msg is note_on channel=9 note=40 velocity=0 time=9
the msg is note_on channel=9 note=40 velocity=127 time=1
the msg is note_on channel=9 note=40 velocity=0 time=9
the msg is note_on channel=9 note=40 velocity=127 time=1
the msg is note_on channel=9 note=40 velocity=0 time=29
the msg is note_on channel=9 note=40 velocity=127 time=31
the msg is note_on channel=9 note=40 velocity=0 time=29
the msg is note_on channel=9 note=40 velocity=127 time=121
the msg is note_on channel=9 note=40 velocity=0 time=29
the msg is note_on channel=9 note=40 velocity=127 time=211
the msg is note_on channel=9 note=40 velocity=0 time=29
the msg is note_on channel=9 note=40 velocity=127 time=211
the msg is note_on channel=9 note=40 velocity=0 time=29
the msg is note_on channel=9 note=40 velocity=127 time=151
the msg is note_on channel=9 note=40 velocity=0 time=9
the msg is note_on channel=9 note=40 velocity=127 time=1
the msg is note_on channel=9 note=40 velocity=0 time=9
the msg is note_on channel=9 note=40 velocity=127 time=1
the msg is note_on channel=9 note=40 velocity=0 time=9
the msg is note_on channel=9 note=40 velocity=127 time=1
the msg is note_on channel=9 note=40 velocity=0 time=29
the msg is note_on channel=9 note=40 velocity=127 time=241
the msg is note_on channel=9 note=40 velocity=0 time=29
the msg is note_on channel=9 note=40 velocity=127 time=211
the msg is note_on channel=9 note=40 velocity=0 time=29
the msg is note_on channel=9 note=40 velocity=127 time=211
the msg is note_on channel=9 note=40 velocity=0 time=29
the msg is note_on channel=9 note=40 velocity=127 time=211
the msg is note_on channel=9 note=40 velocity=0 time=9
the msg is note_on channel=9 note=40 velocity=127 time=1
the msg is note_on channel=9 note=40 velocity=0 time=9
the msg is note_on channel=9 note=40 velocity=127 time=1
the msg is note_on channel=9 note=40 velocity=0 time=9
the msg is note_on channel=9 note=40 velocity=127 time=1
the msg is note_on channel=9 note=40 velocity=0 time=29
the msg is note_on channel=9 note=40 velocity=127 time=31
the msg is note_on channel=9 note=40 velocity=0 time=29
the msg is note_on channel=9 note=40 velocity=127 time=121
the msg is note_on channel=9 note=40 velocity=0 time=29
the msg is note_on channel=9 note=40 velocity=127 time=211
the msg is note_on channel=9 note=40 velocity=0 time=29
the msg is note_on channel=9 note=40 velocity=127 time=211
the msg is note_on channel=9 note=40 velocity=0 time=29
the msg is note_on channel=9 note=40 velocity=127 time=151
the msg is note_on channel=9 note=40 velocity=0 time=9
the msg is note_on channel=9 note=40 velocity=127 time=1
the msg is note_on channel=9 note=40 velocity=0 time=9
the msg is note_on channel=9 note=40 velocity=127 time=1
the msg is note_on channel=9 note=40 velocity=0 time=9
the msg is note_on channel=9 note=40 velocity=127 time=1
the msg is note_on channel=9 note=40 velocity=0 time=29
the msg is note_on channel=9 note=40 velocity=127 time=241
the msg is note_on channel=9 note=40 velocity=0 time=29
the msg is note_on channel=9 note=40 velocity=127 time=211
the msg is note_on channel=9 note=40 velocity=0 time=29
the msg is note_on channel=9 note=40 velocity=127 time=211
the msg is note_on channel=9 note=40 velocity=0 time=29
the msg is note_on channel=9 note=40 velocity=127 time=61
the msg is note_on channel=9 note=40 velocity=0 time=29
the msg is note_on channel=9 note=40 velocity=127 time=31
the msg is note_on channel=9 note=40 velocity=0 time=29
the msg is note_on channel=9 note=40 velocity=127 time=61
the msg is note_on channel=9 note=40 velocity=0 time=29
the msg is note_on channel=9 note=40 velocity=127 time=211
the msg is note_on channel=9 note=40 velocity=0 time=29
the msg is note_on channel=9 note=40 velocity=127 time=61
the msg is note_on channel=9 note=40 velocity=0 time=29
the msg is note_on channel=9 note=40 velocity=127 time=121
the msg is note_on channel=9 note=40 velocity=0 time=29
the msg is note_on channel=9 note=40 velocity=127 time=211
the msg is note_on channel=9 note=40 velocity=0 time=29
the msg is note_on channel=9 note=40 velocity=127 time=31
the msg is note_on channel=9 note=40 velocity=0 time=29
the msg is note_on channel=9 note=40 velocity=127 time=1
the msg is note_on channel=9 note=40 velocity=0 time=29
the msg is note_on channel=9 note=40 velocity=127 time=91
the msg is note_on channel=9 note=40 velocity=0 time=9
the msg is note_on channel=9 note=40 velocity=127 time=1
the msg is note_on channel=9 note=40 velocity=0 time=9
the msg is note_on channel=9 note=40 velocity=127 time=1
the msg is note_on channel=9 note=40 velocity=0 time=9
the msg is note_on channel=9 note=40 velocity=127 time=1
the msg is note_on channel=9 note=40 velocity=0 time=29
the msg is note_on channel=9 note=40 velocity=127 time=211
the msg is note_on channel=9 note=40 velocity=0 time=29
the msg is note_on channel=9 note=40 velocity=127 time=121
the msg is note_on channel=9 note=40 velocity=0 time=29
the msg is note_on channel=9 note=40 velocity=127 time=61
the msg is note_on channel=9 note=40 velocity=0 time=14
the msg is note_on channel=9 note=40 velocity=127 time=1
the msg is note_on channel=9 note=40 velocity=0 time=14
the msg is note_on channel=9 note=40 velocity=127 time=1
the msg is note_on channel=9 note=40 velocity=0 time=14
the msg is note_on channel=9 note=40 velocity=127 time=1
the msg is note_on channel=9 note=40 velocity=0 time=14
the msg is note_on channel=9 note=40 velocity=127 time=1
the msg is note_on channel=9 note=40 velocity=0 time=29
the msg is note_on channel=9 note=40 velocity=127 time=151
the msg is note_on channel=9 note=40 velocity=0 time=29
the msg is note_on channel=9 note=40 velocity=127 time=61
the msg is note_on channel=9 note=40 velocity=0 time=29
the msg is note_on channel=9 note=40 velocity=127 time=91
the msg is note_on channel=9 note=40 velocity=0 time=9
the msg is note_on channel=9 note=40 velocity=127 time=1
the msg is note_on channel=9 note=40 velocity=0 time=9
the msg is note_on channel=9 note=40 velocity=127 time=1
the msg is note_on channel=9 note=40 velocity=0 time=9
the msg is note_on channel=9 note=40 velocity=127 time=1
the msg is note_on channel=9 note=40 velocity=0 time=29
the msg is note_on channel=9 note=40 velocity=127 time=211
the msg is note_on channel=9 note=40 velocity=0 time=29
the msg is note_on channel=9 note=40 velocity=127 time=211
the msg is note_on channel=9 note=40 velocity=0 time=29
the msg is note_on channel=9 note=40 velocity=127 time=211
the msg is note_on channel=9 note=40 velocity=0 time=29
the msg is note_on channel=9 note=40 velocity=127 time=211
the msg is note_on channel=9 note=40 velocity=0 time=29
the msg is note_on channel=9 note=40 velocity=127 time=211
the msg is note_on channel=9 note=40 velocity=0 time=29
the msg is note_on channel=9 note=40 velocity=127 time=211
the msg is note_on channel=9 note=40 velocity=0 time=29
the msg is note_on channel=9 note=40 velocity=127 time=211
the msg is note_on channel=9 note=40 velocity=0 time=29
the msg is note_on channel=9 note=40 velocity=127 time=61
the msg is note_on channel=9 note=40 velocity=0 time=29
the msg is note_on channel=9 note=45 velocity=127 time=1
the msg is note_on channel=9 note=45 velocity=0 time=29
the msg is note_on channel=9 note=40 velocity=127 time=1
the msg is note_on channel=9 note=40 velocity=0 time=29
the msg is note_on channel=9 note=45 velocity=127 time=1
the msg is note_on channel=9 note=45 velocity=0 time=29
the msg is note_on channel=9 note=40 velocity=127 time=1
the msg is note_on channel=9 note=40 velocity=0 time=29
the msg is note_on channel=9 note=43 velocity=127 time=1
the msg is note_on channel=9 note=40 velocity=127 time=0
the msg is note_on channel=9 note=40 velocity=0 time=29
the msg is note_on channel=9 note=43 velocity=0 time=0
the msg is note_on channel=9 note=41 velocity=127 time=1
the msg is note_on channel=9 note=41 velocity=0 time=29
the msg is note_on channel=9 note=41 velocity=127 time=31
the msg is note_on channel=9 note=41 velocity=0 time=29
the msg is note_on channel=9 note=40 velocity=127 time=121
the msg is note_on channel=9 note=40 velocity=0 time=29
the msg is note_on channel=9 note=40 velocity=127 time=211
the msg is note_on channel=9 note=40 velocity=0 time=29
the msg is note_on channel=9 note=40 velocity=127 time=211
the msg is note_on channel=9 note=40 velocity=0 time=29
the msg is note_on channel=9 note=40 velocity=127 time=211
the msg is note_on channel=9 note=40 velocity=0 time=29
the msg is note_on channel=9 note=40 velocity=127 time=211
the msg is note_on channel=9 note=40 velocity=0 time=29
the msg is note_on channel=9 note=40 velocity=127 time=211
the msg is note_on channel=9 note=40 velocity=0 time=29
the msg is note_on channel=9 note=40 velocity=127 time=211
the msg is note_on channel=9 note=40 velocity=0 time=29
the msg is note_on channel=9 note=40 velocity=127 time=61
the msg is note_on channel=9 note=40 velocity=0 time=29
the msg is note_on channel=9 note=43 velocity=127 time=31
the msg is note_on channel=9 note=43 velocity=0 time=29
the msg is note_on channel=9 note=43 velocity=127 time=31
the msg is note_on channel=9 note=43 velocity=0 time=29
the msg is note_on channel=9 note=40 velocity=127 time=1
the msg is note_on channel=9 note=40 velocity=0 time=29
the msg is note_on channel=9 note=40 velocity=127 time=211
the msg is note_on channel=9 note=40 velocity=0 time=29
the msg is note_on channel=9 note=40 velocity=127 time=211
the msg is note_on channel=9 note=40 velocity=0 time=29
the msg is note_on channel=9 note=40 velocity=127 time=211
the msg is note_on channel=9 note=40 velocity=0 time=29
the msg is note_on channel=9 note=40 velocity=127 time=211
the msg is note_on channel=9 note=40 velocity=0 time=29
the msg is note_on channel=9 note=40 velocity=127 time=211
the msg is note_on channel=9 note=40 velocity=0 time=29
the msg is note_on channel=9 note=40 velocity=127 time=211
the msg is note_on channel=9 note=40 velocity=0 time=29
the msg is note_on channel=9 note=40 velocity=127 time=151
the msg is note_on channel=9 note=40 velocity=0 time=29
the msg is note_on channel=9 note=40 velocity=127 time=31
the msg is note_on channel=9 note=40 velocity=0 time=29
the msg is note_on channel=9 note=40 velocity=127 time=61
the msg is note_on channel=9 note=40 velocity=0 time=29
the msg is note_on channel=9 note=40 velocity=127 time=31
the msg is note_on channel=9 note=40 velocity=0 time=29
the msg is note_on channel=9 note=40 velocity=127 time=31
the msg is note_on channel=9 note=40 velocity=0 time=29
the msg is note_on channel=9 note=45 velocity=127 time=1
the msg is note_on channel=9 note=41 velocity=127 time=0
the msg is note_on channel=9 note=41 velocity=0 time=29
the msg is note_on channel=9 note=45 velocity=0 time=0
the msg is note_on channel=9 note=40 velocity=127 time=1
the msg is note_on channel=9 note=40 velocity=0 time=29
the msg is note_on channel=9 note=40 velocity=127 time=31
the msg is note_on channel=9 note=40 velocity=0 time=29
the msg is note_on channel=9 note=40 velocity=127 time=121
the msg is note_on channel=9 note=40 velocity=0 time=29
the msg is note_on channel=9 note=40 velocity=127 time=211
the msg is note_on channel=9 note=40 velocity=0 time=29
the msg is note_on channel=9 note=40 velocity=127 time=211
the msg is note_on channel=9 note=40 velocity=0 time=29
the msg is note_on channel=9 note=40 velocity=127 time=211
the msg is note_on channel=9 note=40 velocity=0 time=29
the msg is note_on channel=9 note=40 velocity=127 time=211
the msg is note_on channel=9 note=40 velocity=0 time=29
the msg is note_on channel=9 note=40 velocity=127 time=211
the msg is note_on channel=9 note=40 velocity=0 time=29
the msg is note_on channel=9 note=40 velocity=127 time=211
the msg is note_on channel=9 note=40 velocity=0 time=29
the msg is note_on channel=9 note=40 velocity=127 time=61
the msg is note_on channel=9 note=40 velocity=0 time=29
the msg is note_on channel=9 note=45 velocity=127 time=1
the msg is note_on channel=9 note=45 velocity=0 time=29
the msg is note_on channel=9 note=40 velocity=127 time=1
the msg is note_on channel=9 note=40 velocity=0 time=29
the msg is note_on channel=9 note=45 velocity=127 time=1
the msg is note_on channel=9 note=45 velocity=0 time=29
the msg is note_on channel=9 note=40 velocity=127 time=1
the msg is note_on channel=9 note=40 velocity=0 time=29
the msg is note_on channel=9 note=40 velocity=127 time=1
the msg is note_on channel=9 note=43 velocity=127 time=0
the msg is note_on channel=9 note=43 velocity=0 time=29
the msg is note_on channel=9 note=40 velocity=0 time=0
the msg is note_on channel=9 note=41 velocity=127 time=1
the msg is note_on channel=9 note=41 velocity=0 time=29
the msg is note_on channel=9 note=41 velocity=127 time=31
the msg is note_on channel=9 note=41 velocity=0 time=29
the msg is note_on channel=9 note=40 velocity=127 time=121
the msg is note_on channel=9 note=40 velocity=0 time=29
the msg is note_on channel=9 note=40 velocity=127 time=211
the msg is note_on channel=9 note=40 velocity=0 time=29
the msg is note_on channel=9 note=40 velocity=127 time=211
the msg is note_on channel=9 note=40 velocity=0 time=29
the msg is note_on channel=9 note=40 velocity=127 time=211
the msg is note_on channel=9 note=40 velocity=0 time=29
the msg is note_on channel=9 note=40 velocity=127 time=211
the msg is note_on channel=9 note=40 velocity=0 time=29
the msg is note_on channel=9 note=40 velocity=127 time=211
the msg is note_on channel=9 note=40 velocity=0 time=29
the msg is note_on channel=9 note=40 velocity=127 time=211
the msg is note_on channel=9 note=40 velocity=0 time=29
the msg is note_on channel=9 note=40 velocity=127 time=61
the msg is note_on channel=9 note=40 velocity=0 time=29
the msg is note_on channel=9 note=43 velocity=127 time=31
the msg is note_on channel=9 note=43 velocity=0 time=29
the msg is note_on channel=9 note=43 velocity=127 time=31
the msg is note_on channel=9 note=43 velocity=0 time=29
the msg is note_on channel=9 note=40 velocity=127 time=1
the msg is note_on channel=9 note=40 velocity=0 time=29
the msg is note_on channel=9 note=40 velocity=127 time=211
the msg is note_on channel=9 note=40 velocity=0 time=29
the msg is note_on channel=9 note=40 velocity=127 time=211
the msg is note_on channel=9 note=40 velocity=0 time=29
the msg is note_on channel=9 note=40 velocity=127 time=211
the msg is note_on channel=9 note=40 velocity=0 time=29
the msg is note_on channel=9 note=40 velocity=127 time=211
the msg is note_on channel=9 note=40 velocity=0 time=29
the msg is note_on channel=9 note=40 velocity=127 time=211
the msg is note_on channel=9 note=40 velocity=0 time=29
the msg is note_on channel=9 note=40 velocity=127 time=211
the msg is note_on channel=9 note=40 velocity=0 time=29
the msg is note_on channel=9 note=40 velocity=127 time=121
the msg is note_on channel=9 note=40 velocity=0 time=9
the msg is note_on channel=9 note=40 velocity=127 time=1
the msg is note_on channel=9 note=40 velocity=0 time=9
the msg is note_on channel=9 note=40 velocity=127 time=1
the msg is note_on channel=9 note=40 velocity=0 time=9
the msg is note_on channel=9 note=40 velocity=127 time=1
the msg is note_on channel=9 note=40 velocity=0 time=29
the msg is note_on channel=9 note=40 velocity=127 time=1
the msg is note_on channel=9 note=40 velocity=0 time=9
the msg is note_on channel=9 note=40 velocity=127 time=1
the msg is note_on channel=9 note=40 velocity=0 time=9
the msg is note_on channel=9 note=40 velocity=127 time=1
the msg is note_on channel=9 note=40 velocity=0 time=9
the msg is note_on channel=9 note=40 velocity=127 time=1
the msg is note_on channel=9 note=40 velocity=0 time=29
the msg is note_on channel=9 note=40 velocity=127 time=61
the msg is note_on channel=9 note=40 velocity=0 time=9
the msg is note_on channel=9 note=40 velocity=127 time=1
the msg is note_on channel=9 note=40 velocity=0 time=9
the msg is note_on channel=9 note=40 velocity=127 time=1
the msg is note_on channel=9 note=40 velocity=0 time=9
the msg is note_on channel=9 note=40 velocity=127 time=1
the msg is note_on channel=9 note=40 velocity=0 time=29
the msg is note_on channel=9 note=40 velocity=127 time=1
the msg is note_on channel=9 note=40 velocity=0 time=9
the msg is note_on channel=9 note=40 velocity=127 time=1
the msg is note_on channel=9 note=40 velocity=0 time=9
the msg is note_on channel=9 note=40 velocity=127 time=1
the msg is note_on channel=9 note=40 velocity=0 time=9
the msg is note_on channel=9 note=40 velocity=127 time=1
the msg is note_on channel=9 note=40 velocity=0 time=29
the msg is note_on channel=9 note=40 velocity=127 time=1
the msg is note_on channel=9 note=40 velocity=0 time=29
the msg is note_on channel=9 note=40 velocity=127 time=241
the msg is note_on channel=9 note=40 velocity=0 time=29
the msg is note_on channel=9 note=40 velocity=127 time=211
the msg is note_on channel=9 note=40 velocity=0 time=29
the msg is note_on channel=9 note=40 velocity=127 time=211
the msg is note_on channel=9 note=40 velocity=0 time=29
the msg is note_on channel=9 note=40 velocity=127 time=211
the msg is note_on channel=9 note=40 velocity=0 time=9
the msg is note_on channel=9 note=40 velocity=127 time=1
the msg is note_on channel=9 note=40 velocity=0 time=9
the msg is note_on channel=9 note=40 velocity=127 time=1
the msg is note_on channel=9 note=40 velocity=0 time=9
the msg is note_on channel=9 note=40 velocity=127 time=1
the msg is note_on channel=9 note=40 velocity=0 time=29
the msg is note_on channel=9 note=40 velocity=127 time=31
the msg is note_on channel=9 note=40 velocity=0 time=29
the msg is note_on channel=9 note=40 velocity=127 time=121
the msg is note_on channel=9 note=40 velocity=0 time=29
the msg is note_on channel=9 note=40 velocity=127 time=211
the msg is note_on channel=9 note=40 velocity=0 time=29
the msg is note_on channel=9 note=40 velocity=127 time=211
the msg is note_on channel=9 note=40 velocity=0 time=29
the msg is note_on channel=9 note=40 velocity=127 time=151
the msg is note_on channel=9 note=40 velocity=0 time=9
the msg is note_on channel=9 note=40 velocity=127 time=1
the msg is note_on channel=9 note=40 velocity=0 time=9
the msg is note_on channel=9 note=40 velocity=127 time=1
the msg is note_on channel=9 note=40 velocity=0 time=9
the msg is note_on channel=9 note=40 velocity=127 time=1
the msg is note_on channel=9 note=40 velocity=0 time=29
the msg is note_on channel=9 note=40 velocity=127 time=241
the msg is note_on channel=9 note=40 velocity=0 time=29
the msg is note_on channel=9 note=40 velocity=127 time=211
the msg is note_on channel=9 note=40 velocity=0 time=29
the msg is note_on channel=9 note=40 velocity=127 time=211
the msg is note_on channel=9 note=40 velocity=0 time=29
the msg is note_on channel=9 note=40 velocity=127 time=211
the msg is note_on channel=9 note=40 velocity=0 time=9
the msg is note_on channel=9 note=40 velocity=127 time=1
the msg is note_on channel=9 note=40 velocity=0 time=9
the msg is note_on channel=9 note=40 velocity=127 time=1
the msg is note_on channel=9 note=40 velocity=0 time=9
the msg is note_on channel=9 note=40 velocity=127 time=1
the msg is note_on channel=9 note=40 velocity=0 time=29
the msg is note_on channel=9 note=40 velocity=127 time=31
the msg is note_on channel=9 note=40 velocity=0 time=29
the msg is note_on channel=9 note=40 velocity=127 time=121
the msg is note_on channel=9 note=40 velocity=0 time=29
the msg is note_on channel=9 note=40 velocity=127 time=211
the msg is note_on channel=9 note=40 velocity=0 time=29
the msg is <meta message end_of_track time=0>
the msg is control_change channel=9 control=0 value=0 time=0
the msg is <meta message sequencer_specific data=(74, 65, 90, 50, 1, 0, 0, 0, 0, 0, 0, 0, 0, 0, 0, 0, 0, 0, 0, 0) time=0>
the msg is note_on channel=9 note=35 velocity=127 time=0
the msg is <meta message track_name name='Percussion (bass)' time=0>
the msg is <meta message midi_port port=0 time=0>
the msg is note_on channel=9 note=36 velocity=127 time=0
the msg is note_on channel=9 note=36 velocity=0 time=29
the msg is note_on channel=9 note=35 velocity=0 time=0
the msg is note_on channel=9 note=36 velocity=127 time=31
the msg is note_on channel=9 note=35 velocity=127 time=0
the msg is note_on channel=9 note=35 velocity=0 time=29
the msg is note_on channel=9 note=36 velocity=0 time=0
the msg is note_on channel=9 note=39 velocity=127 time=31
the msg is note_on channel=9 note=39 velocity=0 time=29
the msg is note_on channel=9 note=35 velocity=127 time=61
the msg is note_on channel=9 note=36 velocity=127 time=0
the msg is note_on channel=9 note=35 velocity=0 time=29
the msg is note_on channel=9 note=36 velocity=0 time=0
the msg is note_on channel=9 note=36 velocity=127 time=61
the msg is note_on channel=9 note=35 velocity=127 time=0
the msg is note_on channel=9 note=36 velocity=0 time=29
the msg is note_on channel=9 note=35 velocity=0 time=0
the msg is note_on channel=9 note=39 velocity=127 time=31
the msg is note_on channel=9 note=39 velocity=0 time=29
the msg is note_on channel=9 note=36 velocity=127 time=91
the msg is note_on channel=9 note=35 velocity=127 time=0
the msg is note_on channel=9 note=35 velocity=0 time=29
the msg is note_on channel=9 note=36 velocity=0 time=0
the msg is note_on channel=9 note=35 velocity=127 time=31
the msg is note_on channel=9 note=36 velocity=127 time=0
the msg is note_on channel=9 note=36 velocity=0 time=29
the msg is note_on channel=9 note=35 velocity=0 time=0
the msg is note_on channel=9 note=39 velocity=127 time=31
the msg is note_on channel=9 note=39 velocity=0 time=29
the msg is note_on channel=9 note=36 velocity=127 time=61
the msg is note_on channel=9 note=35 velocity=127 time=0
the msg is note_on channel=9 note=35 velocity=0 time=29
the msg is note_on channel=9 note=36 velocity=0 time=0
the msg is note_on channel=9 note=36 velocity=127 time=61
the msg is note_on channel=9 note=35 velocity=127 time=0
the msg is note_on channel=9 note=47 velocity=127 time=0
the msg is note_on channel=9 note=47 velocity=0 time=29
the msg is note_on channel=9 note=36 velocity=0 time=0
the msg is note_on channel=9 note=35 velocity=0 time=0
the msg is note_on channel=9 note=47 velocity=127 time=1
the msg is note_on channel=9 note=47 velocity=0 time=14
the msg is note_on channel=9 note=47 velocity=127 time=1
the msg is note_on channel=9 note=47 velocity=0 time=14
the msg is note_on channel=9 note=39 velocity=127 time=1
the msg is note_on channel=9 note=39 velocity=0 time=29
the msg is note_on channel=9 note=35 velocity=127 time=91
the msg is note_on channel=9 note=36 velocity=127 time=0
the msg is note_on channel=9 note=36 velocity=0 time=29
the msg is note_on channel=9 note=35 velocity=0 time=0
the msg is note_on channel=9 note=35 velocity=127 time=31
the msg is note_on channel=9 note=36 velocity=127 time=0
the msg is note_on channel=9 note=36 velocity=0 time=29
the msg is note_on channel=9 note=35 velocity=0 time=0
the msg is note_on channel=9 note=39 velocity=127 time=31
the msg is note_on channel=9 note=39 velocity=0 time=29
the msg is note_on channel=9 note=35 velocity=127 time=61
the msg is note_on channel=9 note=36 velocity=127 time=0
the msg is note_on channel=9 note=36 velocity=0 time=29
the msg is note_on channel=9 note=35 velocity=0 time=0
the msg is note_on channel=9 note=35 velocity=127 time=61
the msg is note_on channel=9 note=36 velocity=127 time=0
the msg is note_on channel=9 note=35 velocity=0 time=29
the msg is note_on channel=9 note=36 velocity=0 time=0
the msg is note_on channel=9 note=39 velocity=127 time=31
the msg is note_on channel=9 note=39 velocity=0 time=29
the msg is note_on channel=9 note=36 velocity=127 time=91
the msg is note_on channel=9 note=35 velocity=127 time=0
the msg is note_on channel=9 note=36 velocity=0 time=29
the msg is note_on channel=9 note=35 velocity=0 time=0
the msg is note_on channel=9 note=35 velocity=127 time=31
the msg is note_on channel=9 note=36 velocity=127 time=0
the msg is note_on channel=9 note=35 velocity=0 time=29
the msg is note_on channel=9 note=36 velocity=0 time=0
the msg is note_on channel=9 note=39 velocity=127 time=31
the msg is note_on channel=9 note=39 velocity=0 time=29
the msg is note_on channel=9 note=35 velocity=127 time=61
the msg is note_on channel=9 note=36 velocity=127 time=0
the msg is note_on channel=9 note=36 velocity=0 time=29
the msg is note_on channel=9 note=35 velocity=0 time=0
the msg is note_on channel=9 note=47 velocity=127 time=1
the msg is note_on channel=9 note=47 velocity=0 time=29
the msg is note_on channel=9 note=47 velocity=127 time=1
the msg is note_on channel=9 note=47 velocity=0 time=14
the msg is note_on channel=9 note=47 velocity=127 time=1
the msg is note_on channel=9 note=47 velocity=0 time=14
the msg is note_on channel=9 note=35 velocity=127 time=1
the msg is note_on channel=9 note=36 velocity=127 time=0
the msg is note_on channel=9 note=35 velocity=0 time=29
the msg is note_on channel=9 note=36 velocity=0 time=0
the msg is note_on channel=9 note=39 velocity=127 time=31
the msg is note_on channel=9 note=39 velocity=0 time=29
the msg is note_on channel=9 note=35 velocity=127 time=91
the msg is note_on channel=9 note=36 velocity=127 time=0
the msg is note_on channel=9 note=36 velocity=0 time=29
the msg is note_on channel=9 note=35 velocity=0 time=0
the msg is note_on channel=9 note=36 velocity=127 time=31
the msg is note_on channel=9 note=35 velocity=127 time=0
the msg is note_on channel=9 note=36 velocity=0 time=29
the msg is note_on channel=9 note=35 velocity=0 time=0
the msg is note_on channel=9 note=39 velocity=127 time=31
the msg is note_on channel=9 note=39 velocity=0 time=29
the msg is note_on channel=9 note=36 velocity=127 time=61
the msg is note_on channel=9 note=35 velocity=127 time=0
the msg is note_on channel=9 note=35 velocity=0 time=29
the msg is note_on channel=9 note=36 velocity=0 time=0
the msg is note_on channel=9 note=35 velocity=127 time=61
the msg is note_on channel=9 note=36 velocity=127 time=0
the msg is note_on channel=9 note=36 velocity=0 time=29
the msg is note_on channel=9 note=35 velocity=0 time=0
the msg is note_on channel=9 note=39 velocity=127 time=31
the msg is note_on channel=9 note=39 velocity=0 time=29
the msg is note_on channel=9 note=36 velocity=127 time=91
the msg is note_on channel=9 note=35 velocity=127 time=0
the msg is note_on channel=9 note=35 velocity=0 time=29
the msg is note_on channel=9 note=36 velocity=0 time=0
the msg is note_on channel=9 note=36 velocity=127 time=31
the msg is note_on channel=9 note=35 velocity=127 time=0
the msg is note_on channel=9 note=36 velocity=0 time=29
the msg is note_on channel=9 note=35 velocity=0 time=0
the msg is note_on channel=9 note=39 velocity=127 time=31
the msg is note_on channel=9 note=39 velocity=0 time=29
the msg is note_on channel=9 note=36 velocity=127 time=61
the msg is note_on channel=9 note=35 velocity=127 time=0
the msg is note_on channel=9 note=35 velocity=0 time=29
the msg is note_on channel=9 note=36 velocity=0 time=0
the msg is note_on channel=9 note=36 velocity=127 time=61
the msg is note_on channel=9 note=47 velocity=127 time=0
the msg is note_on channel=9 note=35 velocity=127 time=0
the msg is note_on channel=9 note=35 velocity=0 time=29
the msg is note_on channel=9 note=47 velocity=0 time=0
the msg is note_on channel=9 note=36 velocity=0 time=0
the msg is note_on channel=9 note=47 velocity=127 time=1
the msg is note_on channel=9 note=47 velocity=0 time=14
the msg is note_on channel=9 note=47 velocity=127 time=1
the msg is note_on channel=9 note=47 velocity=0 time=14
the msg is note_on channel=9 note=39 velocity=127 time=1
the msg is note_on channel=9 note=39 velocity=0 time=29
the msg is note_on channel=9 note=36 velocity=127 time=91
the msg is note_on channel=9 note=35 velocity=127 time=0
the msg is note_on channel=9 note=35 velocity=0 time=29
the msg is note_on channel=9 note=36 velocity=0 time=0
the msg is note_on channel=9 note=35 velocity=127 time=31
the msg is note_on channel=9 note=36 velocity=127 time=0
the msg is note_on channel=9 note=36 velocity=0 time=29
the msg is note_on channel=9 note=35 velocity=0 time=0
the msg is note_on channel=9 note=39 velocity=127 time=31
the msg is note_on channel=9 note=39 velocity=0 time=29
the msg is note_on channel=9 note=35 velocity=127 time=61
the msg is note_on channel=9 note=36 velocity=127 time=0
the msg is note_on channel=9 note=35 velocity=0 time=29
the msg is note_on channel=9 note=36 velocity=0 time=0
the msg is note_on channel=9 note=35 velocity=127 time=61
the msg is note_on channel=9 note=36 velocity=127 time=0
the msg is note_on channel=9 note=36 velocity=0 time=29
the msg is note_on channel=9 note=35 velocity=0 time=0
the msg is note_on channel=9 note=39 velocity=127 time=31
the msg is note_on channel=9 note=39 velocity=0 time=29
the msg is note_on channel=9 note=35 velocity=127 time=91
the msg is note_on channel=9 note=36 velocity=127 time=0
the msg is note_on channel=9 note=35 velocity=0 time=29
the msg is note_on channel=9 note=36 velocity=0 time=0
the msg is note_on channel=9 note=35 velocity=127 time=31
the msg is note_on channel=9 note=36 velocity=127 time=0
the msg is note_on channel=9 note=35 velocity=0 time=29
the msg is note_on channel=9 note=36 velocity=0 time=0
the msg is note_on channel=9 note=39 velocity=127 time=31
the msg is note_on channel=9 note=39 velocity=0 time=29
the msg is note_on channel=9 note=36 velocity=127 time=61
the msg is note_on channel=9 note=35 velocity=127 time=0
the msg is note_on channel=9 note=36 velocity=0 time=29
the msg is note_on channel=9 note=35 velocity=0 time=0
the msg is note_on channel=9 note=47 velocity=127 time=1
the msg is note_on channel=9 note=47 velocity=0 time=29
the msg is note_on channel=9 note=47 velocity=127 time=1
the msg is note_on channel=9 note=47 velocity=0 time=14
the msg is note_on channel=9 note=47 velocity=127 time=1
the msg is note_on channel=9 note=47 velocity=0 time=14
the msg is note_on channel=9 note=35 velocity=127 time=1
the msg is note_on channel=9 note=36 velocity=127 time=0
the msg is note_on channel=9 note=36 velocity=0 time=29
the msg is note_on channel=9 note=35 velocity=0 time=0
the msg is note_on channel=9 note=39 velocity=127 time=31
the msg is note_on channel=9 note=39 velocity=0 time=29
the msg is note_on channel=9 note=36 velocity=127 time=91
the msg is note_on channel=9 note=35 velocity=127 time=0
the msg is note_on channel=9 note=36 velocity=0 time=29
the msg is note_on channel=9 note=35 velocity=0 time=0
the msg is note_on channel=9 note=36 velocity=127 time=31
the msg is note_on channel=9 note=35 velocity=127 time=0
the msg is note_on channel=9 note=35 velocity=0 time=29
the msg is note_on channel=9 note=36 velocity=0 time=0
the msg is note_on channel=9 note=39 velocity=127 time=31
the msg is note_on channel=9 note=39 velocity=0 time=29
the msg is note_on channel=9 note=36 velocity=127 time=61
the msg is note_on channel=9 note=35 velocity=127 time=0
the msg is note_on channel=9 note=35 velocity=0 time=29
the msg is note_on channel=9 note=36 velocity=0 time=0
the msg is note_on channel=9 note=36 velocity=127 time=61
the msg is note_on channel=9 note=35 velocity=127 time=0
the msg is note_on channel=9 note=35 velocity=0 time=29
the msg is note_on channel=9 note=36 velocity=0 time=0
the msg is note_on channel=9 note=39 velocity=127 time=31
the msg is note_on channel=9 note=39 velocity=0 time=29
the msg is note_on channel=9 note=35 velocity=127 time=91
the msg is note_on channel=9 note=36 velocity=127 time=0
the msg is note_on channel=9 note=36 velocity=0 time=29
the msg is note_on channel=9 note=35 velocity=0 time=0
the msg is note_on channel=9 note=36 velocity=127 time=31
the msg is note_on channel=9 note=35 velocity=127 time=0
the msg is note_on channel=9 note=35 velocity=0 time=29
the msg is note_on channel=9 note=36 velocity=0 time=0
the msg is note_on channel=9 note=39 velocity=127 time=31
the msg is note_on channel=9 note=39 velocity=0 time=29
the msg is note_on channel=9 note=36 velocity=127 time=61
the msg is note_on channel=9 note=35 velocity=127 time=0
the msg is note_on channel=9 note=36 velocity=0 time=29
the msg is note_on channel=9 note=35 velocity=0 time=0
the msg is note_on channel=9 note=35 velocity=127 time=61
the msg is note_on channel=9 note=36 velocity=127 time=0
the msg is note_on channel=9 note=36 velocity=0 time=29
the msg is note_on channel=9 note=35 velocity=0 time=0
the msg is note_on channel=9 note=39 velocity=127 time=31
the msg is note_on channel=9 note=39 velocity=0 time=29
the msg is note_on channel=9 note=36 velocity=127 time=91
the msg is note_on channel=9 note=35 velocity=127 time=0
the msg is note_on channel=9 note=35 velocity=0 time=29
the msg is note_on channel=9 note=36 velocity=0 time=0
the msg is note_on channel=9 note=35 velocity=127 time=31
the msg is note_on channel=9 note=36 velocity=127 time=0
the msg is note_on channel=9 note=36 velocity=0 time=29
the msg is note_on channel=9 note=35 velocity=0 time=0
the msg is note_on channel=9 note=39 velocity=127 time=31
the msg is note_on channel=9 note=39 velocity=0 time=29
the msg is note_on channel=9 note=36 velocity=127 time=61
the msg is note_on channel=9 note=35 velocity=127 time=0
the msg is note_on channel=9 note=35 velocity=0 time=29
the msg is note_on channel=9 note=36 velocity=0 time=0
the msg is note_on channel=9 note=35 velocity=127 time=61
the msg is note_on channel=9 note=36 velocity=127 time=0
the msg is note_on channel=9 note=36 velocity=0 time=29
the msg is note_on channel=9 note=35 velocity=0 time=0
the msg is note_on channel=9 note=39 velocity=127 time=31
the msg is note_on channel=9 note=39 velocity=0 time=29
the msg is note_on channel=9 note=36 velocity=127 time=91
the msg is note_on channel=9 note=35 velocity=127 time=0
the msg is note_on channel=9 note=35 velocity=0 time=29
the msg is note_on channel=9 note=36 velocity=0 time=0
the msg is note_on channel=9 note=36 velocity=127 time=31
the msg is note_on channel=9 note=35 velocity=127 time=0
the msg is note_on channel=9 note=35 velocity=0 time=29
the msg is note_on channel=9 note=36 velocity=0 time=0
the msg is note_on channel=9 note=39 velocity=127 time=31
the msg is note_on channel=9 note=39 velocity=0 time=29
the msg is note_on channel=9 note=35 velocity=127 time=61
the msg is note_on channel=9 note=36 velocity=127 time=0
the msg is note_on channel=9 note=36 velocity=0 time=29
the msg is note_on channel=9 note=35 velocity=0 time=0
the msg is note_on channel=9 note=35 velocity=127 time=61
the msg is note_on channel=9 note=36 velocity=127 time=0
the msg is note_on channel=9 note=35 velocity=0 time=29
the msg is note_on channel=9 note=36 velocity=0 time=0
the msg is note_on channel=9 note=39 velocity=127 time=31
the msg is note_on channel=9 note=39 velocity=0 time=29
the msg is note_on channel=9 note=35 velocity=127 time=91
the msg is note_on channel=9 note=36 velocity=127 time=0
the msg is note_on channel=9 note=35 velocity=0 time=29
the msg is note_on channel=9 note=36 velocity=0 time=0
the msg is note_on channel=9 note=36 velocity=127 time=31
the msg is note_on channel=9 note=35 velocity=127 time=0
the msg is note_on channel=9 note=35 velocity=0 time=29
the msg is note_on channel=9 note=36 velocity=0 time=0
the msg is note_on channel=9 note=39 velocity=127 time=31
the msg is note_on channel=9 note=39 velocity=0 time=29
the msg is note_on channel=9 note=35 velocity=127 time=61
the msg is note_on channel=9 note=36 velocity=127 time=0
the msg is note_on channel=9 note=36 velocity=0 time=29
the msg is note_on channel=9 note=35 velocity=0 time=0
the msg is note_on channel=9 note=35 velocity=127 time=61
the msg is note_on channel=9 note=36 velocity=127 time=0
the msg is note_on channel=9 note=35 velocity=0 time=29
the msg is note_on channel=9 note=36 velocity=0 time=0
the msg is note_on channel=9 note=39 velocity=127 time=31
the msg is note_on channel=9 note=39 velocity=0 time=29
the msg is note_on channel=9 note=35 velocity=127 time=91
the msg is note_on channel=9 note=36 velocity=127 time=0
the msg is note_on channel=9 note=36 velocity=0 time=29
the msg is note_on channel=9 note=35 velocity=0 time=0
the msg is note_on channel=9 note=35 velocity=127 time=31
the msg is note_on channel=9 note=36 velocity=127 time=0
the msg is note_on channel=9 note=35 velocity=0 time=29
the msg is note_on channel=9 note=36 velocity=0 time=0
the msg is note_on channel=9 note=39 velocity=127 time=31
the msg is note_on channel=9 note=39 velocity=0 time=29
the msg is note_on channel=9 note=35 velocity=127 time=61
the msg is note_on channel=9 note=36 velocity=127 time=0
the msg is note_on channel=9 note=35 velocity=0 time=29
the msg is note_on channel=9 note=36 velocity=0 time=0
the msg is note_on channel=9 note=35 velocity=127 time=61
the msg is note_on channel=9 note=36 velocity=127 time=0
the msg is note_on channel=9 note=36 velocity=0 time=29
the msg is note_on channel=9 note=35 velocity=0 time=0
the msg is note_on channel=9 note=39 velocity=127 time=31
the msg is note_on channel=9 note=39 velocity=0 time=29
the msg is note_on channel=9 note=36 velocity=127 time=91
the msg is note_on channel=9 note=35 velocity=127 time=0
the msg is note_on channel=9 note=36 velocity=0 time=29
the msg is note_on channel=9 note=35 velocity=0 time=0
the msg is note_on channel=9 note=35 velocity=127 time=31
the msg is note_on channel=9 note=36 velocity=127 time=0
the msg is note_on channel=9 note=36 velocity=0 time=29
the msg is note_on channel=9 note=35 velocity=0 time=0
the msg is note_on channel=9 note=39 velocity=127 time=31
the msg is note_on channel=9 note=39 velocity=0 time=29
the msg is note_on channel=9 note=35 velocity=127 time=61
the msg is note_on channel=9 note=36 velocity=127 time=0
the msg is note_on channel=9 note=36 velocity=0 time=29
the msg is note_on channel=9 note=35 velocity=0 time=0
the msg is note_on channel=9 note=35 velocity=127 time=61
the msg is note_on channel=9 note=36 velocity=127 time=0
the msg is note_on channel=9 note=35 velocity=0 time=29
the msg is note_on channel=9 note=36 velocity=0 time=0
the msg is note_on channel=9 note=39 velocity=127 time=31
the msg is note_on channel=9 note=39 velocity=0 time=29
the msg is note_on channel=9 note=35 velocity=127 time=91
the msg is note_on channel=9 note=36 velocity=127 time=0
the msg is note_on channel=9 note=36 velocity=0 time=29
the msg is note_on channel=9 note=35 velocity=0 time=0
the msg is note_on channel=9 note=39 velocity=127 time=91
the msg is note_on channel=9 note=39 velocity=0 time=29
the msg is note_on channel=9 note=36 velocity=127 time=91
the msg is note_on channel=9 note=35 velocity=127 time=0
the msg is note_on channel=9 note=35 velocity=0 time=29
the msg is note_on channel=9 note=36 velocity=0 time=0
the msg is note_on channel=9 note=36 velocity=127 time=31
the msg is note_on channel=9 note=35 velocity=127 time=0
the msg is note_on channel=9 note=36 velocity=0 time=29
the msg is note_on channel=9 note=35 velocity=0 time=0
the msg is note_on channel=9 note=39 velocity=127 time=31
the msg is note_on channel=9 note=39 velocity=0 time=29
the msg is note_on channel=9 note=35 velocity=127 time=91
the msg is note_on channel=9 note=36 velocity=127 time=0
the msg is note_on channel=9 note=36 velocity=0 time=29
the msg is note_on channel=9 note=35 velocity=0 time=0
the msg is note_on channel=9 note=39 velocity=127 time=91
the msg is note_on channel=9 note=39 velocity=0 time=29
the msg is note_on channel=9 note=36 velocity=127 time=91
the msg is note_on channel=9 note=35 velocity=127 time=0
the msg is note_on channel=9 note=36 velocity=0 time=29
the msg is note_on channel=9 note=35 velocity=0 time=0
the msg is note_on channel=9 note=35 velocity=127 time=31
the msg is note_on channel=9 note=36 velocity=127 time=0
the msg is note_on channel=9 note=36 velocity=0 time=29
the msg is note_on channel=9 note=35 velocity=0 time=0
the msg is note_on channel=9 note=39 velocity=127 time=31
the msg is note_on channel=9 note=39 velocity=0 time=29
the msg is note_on channel=9 note=35 velocity=127 time=91
the msg is note_on channel=9 note=36 velocity=127 time=0
the msg is note_on channel=9 note=36 velocity=0 time=29
the msg is note_on channel=9 note=35 velocity=0 time=0
the msg is note_on channel=9 note=35 velocity=127 time=31
the msg is note_on channel=9 note=36 velocity=127 time=0
the msg is note_on channel=9 note=36 velocity=0 time=29
the msg is note_on channel=9 note=35 velocity=0 time=0
the msg is note_on channel=9 note=39 velocity=127 time=31
the msg is note_on channel=9 note=39 velocity=0 time=29
the msg is note_on channel=9 note=39 velocity=127 time=211
the msg is note_on channel=9 note=39 velocity=0 time=29
the msg is note_on channel=9 note=35 velocity=127 time=91
the msg is note_on channel=9 note=36 velocity=127 time=0
the msg is note_on channel=9 note=35 velocity=0 time=29
the msg is note_on channel=9 note=36 velocity=0 time=0
the msg is note_on channel=9 note=35 velocity=127 time=31
the msg is note_on channel=9 note=36 velocity=127 time=0
the msg is note_on channel=9 note=36 velocity=0 time=29
the msg is note_on channel=9 note=35 velocity=0 time=0
the msg is note_on channel=9 note=39 velocity=127 time=31
the msg is note_on channel=9 note=39 velocity=0 time=29
the msg is note_on channel=9 note=35 velocity=127 time=61
the msg is note_on channel=9 note=36 velocity=127 time=0
the msg is note_on channel=9 note=36 velocity=0 time=29
the msg is note_on channel=9 note=35 velocity=0 time=0
the msg is note_on channel=9 note=35 velocity=127 time=61
the msg is note_on channel=9 note=36 velocity=127 time=0
the msg is note_on channel=9 note=35 velocity=0 time=29
the msg is note_on channel=9 note=36 velocity=0 time=0
the msg is note_on channel=9 note=39 velocity=127 time=31
the msg is note_on channel=9 note=39 velocity=0 time=29
the msg is note_on channel=9 note=35 velocity=127 time=91
the msg is note_on channel=9 note=36 velocity=127 time=0
the msg is note_on channel=9 note=36 velocity=0 time=29
the msg is note_on channel=9 note=35 velocity=0 time=0
the msg is note_on channel=9 note=39 velocity=127 time=91
the msg is note_on channel=9 note=39 velocity=0 time=29
the msg is note_on channel=9 note=35 velocity=127 time=91
the msg is note_on channel=9 note=36 velocity=127 time=0
the msg is note_on channel=9 note=36 velocity=0 time=29
the msg is note_on channel=9 note=35 velocity=0 time=0
the msg is note_on channel=9 note=35 velocity=127 time=31
the msg is note_on channel=9 note=36 velocity=127 time=0
the msg is note_on channel=9 note=36 velocity=0 time=29
the msg is note_on channel=9 note=35 velocity=0 time=0
the msg is note_on channel=9 note=39 velocity=127 time=31
the msg is note_on channel=9 note=39 velocity=0 time=29
the msg is note_on channel=9 note=36 velocity=127 time=91
the msg is note_on channel=9 note=35 velocity=127 time=0
the msg is note_on channel=9 note=35 velocity=0 time=29
the msg is note_on channel=9 note=36 velocity=0 time=0
the msg is note_on channel=9 note=39 velocity=127 time=91
the msg is note_on channel=9 note=39 velocity=0 time=29
the msg is note_on channel=9 note=36 velocity=127 time=91
the msg is note_on channel=9 note=35 velocity=127 time=0
the msg is note_on channel=9 note=35 velocity=0 time=29
the msg is note_on channel=9 note=36 velocity=0 time=0
the msg is note_on channel=9 note=36 velocity=127 time=31
the msg is note_on channel=9 note=35 velocity=127 time=0
the msg is note_on channel=9 note=36 velocity=0 time=29
the msg is note_on channel=9 note=35 velocity=0 time=0
the msg is note_on channel=9 note=39 velocity=127 time=31
the msg is note_on channel=9 note=39 velocity=0 time=29
the msg is note_on channel=9 note=35 velocity=127 time=91
the msg is note_on channel=9 note=36 velocity=127 time=0
the msg is note_on channel=9 note=36 velocity=0 time=29
the msg is note_on channel=9 note=35 velocity=0 time=0
the msg is note_on channel=9 note=36 velocity=127 time=31
the msg is note_on channel=9 note=35 velocity=127 time=0
the msg is note_on channel=9 note=35 velocity=0 time=29
the msg is note_on channel=9 note=36 velocity=0 time=0
the msg is note_on channel=9 note=39 velocity=127 time=31
the msg is note_on channel=9 note=39 velocity=0 time=29
the msg is note_on channel=9 note=39 velocity=127 time=211
the msg is note_on channel=9 note=39 velocity=0 time=29
the msg is note_on channel=9 note=35 velocity=127 time=91
the msg is note_on channel=9 note=36 velocity=127 time=0
the msg is note_on channel=9 note=36 velocity=0 time=29
the msg is note_on channel=9 note=35 velocity=0 time=0
the msg is note_on channel=9 note=36 velocity=127 time=31
the msg is note_on channel=9 note=35 velocity=127 time=0
the msg is note_on channel=9 note=36 velocity=0 time=29
the msg is note_on channel=9 note=35 velocity=0 time=0
the msg is note_on channel=9 note=39 velocity=127 time=31
the msg is note_on channel=9 note=39 velocity=0 time=29
the msg is note_on channel=9 note=35 velocity=127 time=61
the msg is note_on channel=9 note=36 velocity=127 time=0
the msg is note_on channel=9 note=35 velocity=0 time=29
the msg is note_on channel=9 note=36 velocity=0 time=0
the msg is note_on channel=9 note=35 velocity=127 time=61
the msg is note_on channel=9 note=36 velocity=127 time=0
the msg is note_on channel=9 note=35 velocity=0 time=29
the msg is note_on channel=9 note=36 velocity=0 time=0
the msg is note_on channel=9 note=39 velocity=127 time=31
the msg is note_on channel=9 note=39 velocity=0 time=29
the msg is note_on channel=9 note=35 velocity=127 time=91
the msg is note_on channel=9 note=36 velocity=127 time=0
the msg is note_on channel=9 note=35 velocity=0 time=29
the msg is note_on channel=9 note=36 velocity=0 time=0
the msg is note_on channel=9 note=36 velocity=127 time=31
the msg is note_on channel=9 note=35 velocity=127 time=0
the msg is note_on channel=9 note=36 velocity=0 time=29
the msg is note_on channel=9 note=35 velocity=0 time=0
the msg is note_on channel=9 note=39 velocity=127 time=31
the msg is note_on channel=9 note=39 velocity=0 time=29
the msg is note_on channel=9 note=35 velocity=127 time=91
the msg is note_on channel=9 note=36 velocity=127 time=0
the msg is note_on channel=9 note=35 velocity=0 time=29
the msg is note_on channel=9 note=36 velocity=0 time=0
the msg is note_on channel=9 note=35 velocity=127 time=31
the msg is note_on channel=9 note=36 velocity=127 time=0
the msg is note_on channel=9 note=35 velocity=0 time=29
the msg is note_on channel=9 note=36 velocity=0 time=0
the msg is note_on channel=9 note=39 velocity=127 time=31
the msg is note_on channel=9 note=39 velocity=0 time=29
the msg is note_on channel=9 note=36 velocity=127 time=91
the msg is note_on channel=9 note=35 velocity=127 time=0
the msg is note_on channel=9 note=35 velocity=0 time=29
the msg is note_on channel=9 note=36 velocity=0 time=0
the msg is note_on channel=9 note=36 velocity=127 time=31
the msg is note_on channel=9 note=35 velocity=127 time=0
the msg is note_on channel=9 note=35 velocity=0 time=29
the msg is note_on channel=9 note=36 velocity=0 time=0
the msg is note_on channel=9 note=39 velocity=127 time=31
the msg is note_on channel=9 note=39 velocity=0 time=29
the msg is note_on channel=9 note=35 velocity=127 time=91
the msg is note_on channel=9 note=36 velocity=127 time=0
the msg is note_on channel=9 note=35 velocity=0 time=29
the msg is note_on channel=9 note=36 velocity=0 time=0
the msg is note_on channel=9 note=36 velocity=127 time=31
the msg is note_on channel=9 note=35 velocity=127 time=0
the msg is note_on channel=9 note=36 velocity=0 time=29
the msg is note_on channel=9 note=35 velocity=0 time=0
the msg is note_on channel=9 note=39 velocity=127 time=31
the msg is note_on channel=9 note=39 velocity=0 time=29
the msg is note_on channel=9 note=36 velocity=127 time=91
the msg is note_on channel=9 note=35 velocity=127 time=0
the msg is note_on channel=9 note=35 velocity=0 time=29
the msg is note_on channel=9 note=36 velocity=0 time=0
the msg is note_on channel=9 note=36 velocity=127 time=31
the msg is note_on channel=9 note=35 velocity=127 time=0
the msg is note_on channel=9 note=35 velocity=0 time=29
the msg is note_on channel=9 note=36 velocity=0 time=0
the msg is note_on channel=9 note=39 velocity=127 time=31
the msg is note_on channel=9 note=39 velocity=0 time=29
the msg is note_on channel=9 note=39 velocity=127 time=211
the msg is note_on channel=9 note=39 velocity=0 time=29
the msg is note_on channel=9 note=36 velocity=127 time=91
the msg is note_on channel=9 note=35 velocity=127 time=0
the msg is note_on channel=9 note=35 velocity=0 time=29
the msg is note_on channel=9 note=36 velocity=0 time=0
the msg is note_on channel=9 note=35 velocity=127 time=31
the msg is note_on channel=9 note=36 velocity=127 time=0
the msg is note_on channel=9 note=35 velocity=0 time=29
the msg is note_on channel=9 note=36 velocity=0 time=0
the msg is note_on channel=9 note=39 velocity=127 time=31
the msg is note_on channel=9 note=39 velocity=0 time=29
the msg is note_on channel=9 note=35 velocity=127 time=61
the msg is note_on channel=9 note=36 velocity=127 time=0
the msg is note_on channel=9 note=35 velocity=0 time=29
the msg is note_on channel=9 note=36 velocity=0 time=0
the msg is note_on channel=9 note=36 velocity=127 time=61
the msg is note_on channel=9 note=35 velocity=127 time=0
the msg is note_on channel=9 note=35 velocity=0 time=29
the msg is note_on channel=9 note=36 velocity=0 time=0
the msg is note_on channel=9 note=39 velocity=127 time=31
the msg is note_on channel=9 note=39 velocity=0 time=29
the msg is note_on channel=9 note=36 velocity=127 time=91
the msg is note_on channel=9 note=35 velocity=127 time=0
the msg is note_on channel=9 note=36 velocity=0 time=29
the msg is note_on channel=9 note=35 velocity=0 time=0
the msg is note_on channel=9 note=39 velocity=127 time=91
the msg is note_on channel=9 note=39 velocity=0 time=29
the msg is note_on channel=9 note=36 velocity=127 time=91
the msg is note_on channel=9 note=35 velocity=127 time=0
the msg is note_on channel=9 note=35 velocity=0 time=29
the msg is note_on channel=9 note=36 velocity=0 time=0
the msg is note_on channel=9 note=36 velocity=127 time=31
the msg is note_on channel=9 note=35 velocity=127 time=0
the msg is note_on channel=9 note=35 velocity=0 time=29
the msg is note_on channel=9 note=36 velocity=0 time=0
the msg is note_on channel=9 note=39 velocity=127 time=31
the msg is note_on channel=9 note=39 velocity=0 time=29
the msg is note_on channel=9 note=36 velocity=127 time=91
the msg is note_on channel=9 note=35 velocity=127 time=0
the msg is note_on channel=9 note=35 velocity=0 time=29
the msg is note_on channel=9 note=36 velocity=0 time=0
the msg is note_on channel=9 note=39 velocity=127 time=91
the msg is note_on channel=9 note=39 velocity=0 time=29
the msg is note_on channel=9 note=36 velocity=127 time=91
the msg is note_on channel=9 note=35 velocity=127 time=0
the msg is note_on channel=9 note=35 velocity=0 time=29
the msg is note_on channel=9 note=36 velocity=0 time=0
the msg is note_on channel=9 note=36 velocity=127 time=31
the msg is note_on channel=9 note=35 velocity=127 time=0
the msg is note_on channel=9 note=35 velocity=0 time=29
the msg is note_on channel=9 note=36 velocity=0 time=0
the msg is note_on channel=9 note=39 velocity=127 time=31
the msg is note_on channel=9 note=39 velocity=0 time=29
the msg is note_on channel=9 note=35 velocity=127 time=91
the msg is note_on channel=9 note=36 velocity=127 time=0
the msg is note_on channel=9 note=35 velocity=0 time=29
the msg is note_on channel=9 note=36 velocity=0 time=0
the msg is note_on channel=9 note=35 velocity=127 time=31
the msg is note_on channel=9 note=36 velocity=127 time=0
the msg is note_on channel=9 note=36 velocity=0 time=29
the msg is note_on channel=9 note=35 velocity=0 time=0
the msg is note_on channel=9 note=39 velocity=127 time=31
the msg is note_on channel=9 note=39 velocity=0 time=29
the msg is note_on channel=9 note=39 velocity=127 time=211
the msg is note_on channel=9 note=39 velocity=0 time=29
the msg is note_on channel=9 note=35 velocity=127 time=91
the msg is note_on channel=9 note=36 velocity=127 time=0
the msg is note_on channel=9 note=36 velocity=0 time=29
the msg is note_on channel=9 note=35 velocity=0 time=0
the msg is note_on channel=9 note=35 velocity=127 time=31
the msg is note_on channel=9 note=36 velocity=127 time=0
the msg is note_on channel=9 note=35 velocity=0 time=29
the msg is note_on channel=9 note=36 velocity=0 time=0
the msg is note_on channel=9 note=39 velocity=127 time=31
the msg is note_on channel=9 note=39 velocity=0 time=29
the msg is note_on channel=9 note=36 velocity=127 time=61
the msg is note_on channel=9 note=35 velocity=127 time=0
the msg is note_on channel=9 note=35 velocity=0 time=29
the msg is note_on channel=9 note=36 velocity=0 time=0
the msg is note_on channel=9 note=35 velocity=127 time=61
the msg is note_on channel=9 note=36 velocity=127 time=0
the msg is note_on channel=9 note=36 velocity=0 time=29
the msg is note_on channel=9 note=35 velocity=0 time=0
the msg is note_on channel=9 note=39 velocity=127 time=31
the msg is note_on channel=9 note=39 velocity=0 time=29
the msg is note_on channel=9 note=35 velocity=127 time=91
the msg is note_on channel=9 note=36 velocity=127 time=0
the msg is note_on channel=9 note=35 velocity=0 time=29
the msg is note_on channel=9 note=36 velocity=0 time=0
the msg is note_on channel=9 note=39 velocity=127 time=91
the msg is note_on channel=9 note=39 velocity=0 time=29
the msg is note_on channel=9 note=36 velocity=127 time=91
the msg is note_on channel=9 note=35 velocity=127 time=0
the msg is note_on channel=9 note=35 velocity=0 time=29
the msg is note_on channel=9 note=36 velocity=0 time=0
the msg is note_on channel=9 note=36 velocity=127 time=31
the msg is note_on channel=9 note=35 velocity=127 time=0
the msg is note_on channel=9 note=35 velocity=0 time=29
the msg is note_on channel=9 note=36 velocity=0 time=0
the msg is note_on channel=9 note=39 velocity=127 time=31
the msg is note_on channel=9 note=39 velocity=0 time=29
the msg is note_on channel=9 note=35 velocity=127 time=91
the msg is note_on channel=9 note=36 velocity=127 time=0
the msg is note_on channel=9 note=35 velocity=0 time=29
the msg is note_on channel=9 note=36 velocity=0 time=0
the msg is note_on channel=9 note=39 velocity=127 time=91
the msg is note_on channel=9 note=39 velocity=0 time=29
the msg is note_on channel=9 note=35 velocity=127 time=91
the msg is note_on channel=9 note=36 velocity=127 time=0
the msg is note_on channel=9 note=36 velocity=0 time=29
the msg is note_on channel=9 note=35 velocity=0 time=0
the msg is note_on channel=9 note=36 velocity=127 time=31
the msg is note_on channel=9 note=35 velocity=127 time=0
the msg is note_on channel=9 note=35 velocity=0 time=29
the msg is note_on channel=9 note=36 velocity=0 time=0
the msg is note_on channel=9 note=39 velocity=127 time=31
the msg is note_on channel=9 note=39 velocity=0 time=29
the msg is note_on channel=9 note=35 velocity=127 time=91
the msg is note_on channel=9 note=36 velocity=127 time=0
the msg is note_on channel=9 note=36 velocity=0 time=29
the msg is note_on channel=9 note=35 velocity=0 time=0
the msg is note_on channel=9 note=35 velocity=127 time=31
the msg is note_on channel=9 note=36 velocity=127 time=0
the msg is note_on channel=9 note=35 velocity=0 time=29
the msg is note_on channel=9 note=36 velocity=0 time=0
the msg is note_on channel=9 note=39 velocity=127 time=31
the msg is note_on channel=9 note=39 velocity=0 time=29
the msg is note_on channel=9 note=39 velocity=127 time=211
the msg is note_on channel=9 note=39 velocity=0 time=29
the msg is note_on channel=9 note=35 velocity=127 time=91
the msg is note_on channel=9 note=36 velocity=127 time=0
the msg is note_on channel=9 note=35 velocity=0 time=29
the msg is note_on channel=9 note=36 velocity=0 time=0
the msg is note_on channel=9 note=36 velocity=127 time=31
the msg is note_on channel=9 note=35 velocity=127 time=0
the msg is note_on channel=9 note=36 velocity=0 time=29
the msg is note_on channel=9 note=35 velocity=0 time=0
the msg is note_on channel=9 note=39 velocity=127 time=31
the msg is note_on channel=9 note=39 velocity=0 time=29
the msg is note_on channel=9 note=36 velocity=127 time=61
the msg is note_on channel=9 note=35 velocity=127 time=0
the msg is note_on channel=9 note=35 velocity=0 time=29
the msg is note_on channel=9 note=36 velocity=0 time=0
the msg is note_on channel=9 note=36 velocity=127 time=61
the msg is note_on channel=9 note=35 velocity=127 time=0
the msg is note_on channel=9 note=35 velocity=0 time=29
the msg is note_on channel=9 note=36 velocity=0 time=0
the msg is note_on channel=9 note=39 velocity=127 time=31
the msg is note_on channel=9 note=39 velocity=0 time=29
the msg is note_on channel=9 note=36 velocity=127 time=91
the msg is note_on channel=9 note=35 velocity=127 time=0
the msg is note_on channel=9 note=36 velocity=0 time=29
the msg is note_on channel=9 note=35 velocity=0 time=0
the msg is note_on channel=9 note=36 velocity=127 time=31
the msg is note_on channel=9 note=35 velocity=127 time=0
the msg is note_on channel=9 note=35 velocity=0 time=29
the msg is note_on channel=9 note=36 velocity=0 time=0
the msg is note_on channel=9 note=39 velocity=127 time=31
the msg is note_on channel=9 note=39 velocity=0 time=29
the msg is note_on channel=9 note=36 velocity=127 time=91
the msg is note_on channel=9 note=35 velocity=127 time=0
the msg is note_on channel=9 note=35 velocity=0 time=29
the msg is note_on channel=9 note=36 velocity=0 time=0
the msg is note_on channel=9 note=36 velocity=127 time=31
the msg is note_on channel=9 note=35 velocity=127 time=0
the msg is note_on channel=9 note=35 velocity=0 time=29
the msg is note_on channel=9 note=36 velocity=0 time=0
the msg is note_on channel=9 note=39 velocity=127 time=31
the msg is note_on channel=9 note=39 velocity=0 time=29
the msg is note_on channel=9 note=36 velocity=127 time=91
the msg is note_on channel=9 note=35 velocity=127 time=0
the msg is note_on channel=9 note=35 velocity=0 time=29
the msg is note_on channel=9 note=36 velocity=0 time=0
the msg is note_on channel=9 note=36 velocity=127 time=31
the msg is note_on channel=9 note=35 velocity=127 time=0
the msg is note_on channel=9 note=35 velocity=0 time=29
the msg is note_on channel=9 note=36 velocity=0 time=0
the msg is note_on channel=9 note=39 velocity=127 time=31
the msg is note_on channel=9 note=39 velocity=0 time=29
the msg is note_on channel=9 note=36 velocity=127 time=91
the msg is note_on channel=9 note=35 velocity=127 time=0
the msg is note_on channel=9 note=36 velocity=0 time=29
the msg is note_on channel=9 note=35 velocity=0 time=0
the msg is note_on channel=9 note=35 velocity=127 time=31
the msg is note_on channel=9 note=36 velocity=127 time=0
the msg is note_on channel=9 note=36 velocity=0 time=29
the msg is note_on channel=9 note=35 velocity=0 time=0
the msg is note_on channel=9 note=39 velocity=127 time=31
the msg is note_on channel=9 note=39 velocity=0 time=29
the msg is note_on channel=9 note=35 velocity=127 time=91
the msg is note_on channel=9 note=36 velocity=127 time=0
the msg is note_on channel=9 note=36 velocity=0 time=29
the msg is note_on channel=9 note=35 velocity=0 time=0
the msg is note_on channel=9 note=35 velocity=127 time=31
the msg is note_on channel=9 note=36 velocity=127 time=0
the msg is note_on channel=9 note=36 velocity=0 time=29
the msg is note_on channel=9 note=35 velocity=0 time=0
the msg is note_on channel=9 note=39 velocity=127 time=31
the msg is note_on channel=9 note=39 velocity=0 time=29
the msg is note_on channel=9 note=39 velocity=127 time=211
the msg is note_on channel=9 note=39 velocity=0 time=29
the msg is note_on channel=9 note=36 velocity=127 time=91
the msg is note_on channel=9 note=35 velocity=127 time=0
the msg is note_on channel=9 note=36 velocity=0 time=29
the msg is note_on channel=9 note=35 velocity=0 time=0
the msg is note_on channel=9 note=35 velocity=127 time=31
the msg is note_on channel=9 note=36 velocity=127 time=0
the msg is note_on channel=9 note=36 velocity=0 time=29
the msg is note_on channel=9 note=35 velocity=0 time=0
the msg is note_on channel=9 note=39 velocity=127 time=31
the msg is note_on channel=9 note=39 velocity=0 time=29
the msg is note_on channel=9 note=35 velocity=127 time=61
the msg is note_on channel=9 note=36 velocity=127 time=0
the msg is note_on channel=9 note=35 velocity=0 time=29
the msg is note_on channel=9 note=36 velocity=0 time=0
the msg is note_on channel=9 note=36 velocity=127 time=61
the msg is note_on channel=9 note=35 velocity=127 time=0
the msg is note_on channel=9 note=36 velocity=0 time=29
the msg is note_on channel=9 note=35 velocity=0 time=0
the msg is note_on channel=9 note=39 velocity=127 time=31
the msg is note_on channel=9 note=39 velocity=0 time=29
the msg is note_on channel=9 note=35 velocity=127 time=91
the msg is note_on channel=9 note=36 velocity=127 time=0
the msg is note_on channel=9 note=36 velocity=0 time=29
the msg is note_on channel=9 note=35 velocity=0 time=0
the msg is note_on channel=9 note=36 velocity=127 time=31
the msg is note_on channel=9 note=35 velocity=127 time=0
the msg is note_on channel=9 note=36 velocity=0 time=29
the msg is note_on channel=9 note=35 velocity=0 time=0
the msg is note_on channel=9 note=39 velocity=127 time=31
the msg is note_on channel=9 note=39 velocity=0 time=29
the msg is note_on channel=9 note=36 velocity=127 time=61
the msg is note_on channel=9 note=35 velocity=127 time=0
the msg is note_on channel=9 note=35 velocity=0 time=29
the msg is note_on channel=9 note=36 velocity=0 time=0
the msg is note_on channel=9 note=47 velocity=127 time=61
the msg is note_on channel=9 note=35 velocity=127 time=0
the msg is note_on channel=9 note=36 velocity=127 time=0
the msg is note_on channel=9 note=35 velocity=0 time=29
the msg is note_on channel=9 note=47 velocity=0 time=0
the msg is note_on channel=9 note=36 velocity=0 time=0
the msg is note_on channel=9 note=47 velocity=127 time=1
the msg is note_on channel=9 note=47 velocity=0 time=14
the msg is note_on channel=9 note=47 velocity=127 time=1
the msg is note_on channel=9 note=47 velocity=0 time=14
the msg is note_on channel=9 note=39 velocity=127 time=1
the msg is note_on channel=9 note=39 velocity=0 time=29
the msg is note_on channel=9 note=36 velocity=127 time=91
the msg is note_on channel=9 note=35 velocity=127 time=0
the msg is note_on channel=9 note=35 velocity=0 time=29
the msg is note_on channel=9 note=36 velocity=0 time=0
the msg is note_on channel=9 note=35 velocity=127 time=31
the msg is note_on channel=9 note=36 velocity=127 time=0
the msg is note_on channel=9 note=35 velocity=0 time=29
the msg is note_on channel=9 note=36 velocity=0 time=0
the msg is note_on channel=9 note=39 velocity=127 time=31
the msg is note_on channel=9 note=39 velocity=0 time=29
the msg is note_on channel=9 note=35 velocity=127 time=61
the msg is note_on channel=9 note=36 velocity=127 time=0
the msg is note_on channel=9 note=36 velocity=0 time=29
the msg is note_on channel=9 note=35 velocity=0 time=0
the msg is note_on channel=9 note=36 velocity=127 time=61
the msg is note_on channel=9 note=35 velocity=127 time=0
the msg is note_on channel=9 note=36 velocity=0 time=29
the msg is note_on channel=9 note=35 velocity=0 time=0
the msg is note_on channel=9 note=39 velocity=127 time=31
the msg is note_on channel=9 note=39 velocity=0 time=29
the msg is note_on channel=9 note=36 velocity=127 time=91
the msg is note_on channel=9 note=35 velocity=127 time=0
the msg is note_on channel=9 note=35 velocity=0 time=29
the msg is note_on channel=9 note=36 velocity=0 time=0
the msg is note_on channel=9 note=35 velocity=127 time=31
the msg is note_on channel=9 note=36 velocity=127 time=0
the msg is note_on channel=9 note=36 velocity=0 time=29
the msg is note_on channel=9 note=35 velocity=0 time=0
the msg is note_on channel=9 note=39 velocity=127 time=31
the msg is note_on channel=9 note=39 velocity=0 time=29
the msg is note_on channel=9 note=35 velocity=127 time=61
the msg is note_on channel=9 note=36 velocity=127 time=0
the msg is note_on channel=9 note=36 velocity=0 time=29
the msg is note_on channel=9 note=35 velocity=0 time=0
the msg is note_on channel=9 note=47 velocity=127 time=1
the msg is note_on channel=9 note=47 velocity=0 time=29
the msg is note_on channel=9 note=47 velocity=127 time=1
the msg is note_on channel=9 note=47 velocity=0 time=14
the msg is note_on channel=9 note=47 velocity=127 time=1
the msg is note_on channel=9 note=47 velocity=0 time=14
the msg is note_on channel=9 note=35 velocity=127 time=1
the msg is note_on channel=9 note=36 velocity=127 time=0
the msg is note_on channel=9 note=36 velocity=0 time=29
the msg is note_on channel=9 note=35 velocity=0 time=0
the msg is note_on channel=9 note=39 velocity=127 time=31
the msg is note_on channel=9 note=39 velocity=0 time=29
the msg is note_on channel=9 note=36 velocity=127 time=91
the msg is note_on channel=9 note=35 velocity=127 time=0
the msg is note_on channel=9 note=35 velocity=0 time=29
the msg is note_on channel=9 note=36 velocity=0 time=0
the msg is note_on channel=9 note=35 velocity=127 time=31
the msg is note_on channel=9 note=36 velocity=127 time=0
the msg is note_on channel=9 note=36 velocity=0 time=29
the msg is note_on channel=9 note=35 velocity=0 time=0
the msg is note_on channel=9 note=39 velocity=127 time=31
the msg is note_on channel=9 note=39 velocity=0 time=29
the msg is note_on channel=9 note=36 velocity=127 time=61
the msg is note_on channel=9 note=35 velocity=127 time=0
the msg is note_on channel=9 note=35 velocity=0 time=29
the msg is note_on channel=9 note=36 velocity=0 time=0
the msg is note_on channel=9 note=35 velocity=127 time=61
the msg is note_on channel=9 note=36 velocity=127 time=0
the msg is note_on channel=9 note=36 velocity=0 time=29
the msg is note_on channel=9 note=35 velocity=0 time=0
the msg is note_on channel=9 note=39 velocity=127 time=31
the msg is note_on channel=9 note=39 velocity=0 time=29
the msg is note_on channel=9 note=35 velocity=127 time=91
the msg is note_on channel=9 note=36 velocity=127 time=0
the msg is note_on channel=9 note=36 velocity=0 time=29
the msg is note_on channel=9 note=35 velocity=0 time=0
the msg is note_on channel=9 note=36 velocity=127 time=31
the msg is note_on channel=9 note=35 velocity=127 time=0
the msg is note_on channel=9 note=35 velocity=0 time=29
the msg is note_on channel=9 note=36 velocity=0 time=0
the msg is note_on channel=9 note=39 velocity=127 time=31
the msg is note_on channel=9 note=39 velocity=0 time=29
the msg is note_on channel=9 note=35 velocity=127 time=61
the msg is note_on channel=9 note=36 velocity=127 time=0
the msg is note_on channel=9 note=36 velocity=0 time=29
the msg is note_on channel=9 note=35 velocity=0 time=0
the msg is note_on channel=9 note=47 velocity=127 time=61
the msg is note_on channel=9 note=35 velocity=127 time=0
the msg is note_on channel=9 note=36 velocity=127 time=0
the msg is note_on channel=9 note=35 velocity=0 time=29
the msg is note_on channel=9 note=47 velocity=0 time=0
the msg is note_on channel=9 note=36 velocity=0 time=0
the msg is note_on channel=9 note=47 velocity=127 time=1
the msg is note_on channel=9 note=47 velocity=0 time=14
the msg is note_on channel=9 note=47 velocity=127 time=1
the msg is note_on channel=9 note=47 velocity=0 time=14
the msg is note_on channel=9 note=39 velocity=127 time=1
the msg is note_on channel=9 note=39 velocity=0 time=29
the msg is note_on channel=9 note=36 velocity=127 time=91
the msg is note_on channel=9 note=35 velocity=127 time=0
the msg is note_on channel=9 note=36 velocity=0 time=29
the msg is note_on channel=9 note=35 velocity=0 time=0
the msg is note_on channel=9 note=36 velocity=127 time=31
the msg is note_on channel=9 note=35 velocity=127 time=0
the msg is note_on channel=9 note=35 velocity=0 time=29
the msg is note_on channel=9 note=36 velocity=0 time=0
the msg is note_on channel=9 note=39 velocity=127 time=31
the msg is note_on channel=9 note=39 velocity=0 time=29
the msg is note_on channel=9 note=36 velocity=127 time=61
the msg is note_on channel=9 note=35 velocity=127 time=0
the msg is note_on channel=9 note=35 velocity=0 time=29
the msg is note_on channel=9 note=36 velocity=0 time=0
the msg is note_on channel=9 note=35 velocity=127 time=61
the msg is note_on channel=9 note=36 velocity=127 time=0
the msg is note_on channel=9 note=35 velocity=0 time=29
the msg is note_on channel=9 note=36 velocity=0 time=0
the msg is note_on channel=9 note=39 velocity=127 time=31
the msg is note_on channel=9 note=39 velocity=0 time=29
the msg is note_on channel=9 note=35 velocity=127 time=91
the msg is note_on channel=9 note=36 velocity=127 time=0
the msg is note_on channel=9 note=35 velocity=0 time=29
the msg is note_on channel=9 note=36 velocity=0 time=0
the msg is note_on channel=9 note=35 velocity=127 time=31
the msg is note_on channel=9 note=36 velocity=127 time=0
the msg is note_on channel=9 note=36 velocity=0 time=29
the msg is note_on channel=9 note=35 velocity=0 time=0
the msg is note_on channel=9 note=39 velocity=127 time=31
the msg is note_on channel=9 note=39 velocity=0 time=29
the msg is note_on channel=9 note=36 velocity=127 time=61
the msg is note_on channel=9 note=35 velocity=127 time=0
the msg is note_on channel=9 note=35 velocity=0 time=29
the msg is note_on channel=9 note=36 velocity=0 time=0
the msg is note_on channel=9 note=47 velocity=127 time=1
the msg is note_on channel=9 note=47 velocity=0 time=29
the msg is note_on channel=9 note=47 velocity=127 time=1
the msg is note_on channel=9 note=47 velocity=0 time=14
the msg is note_on channel=9 note=47 velocity=127 time=1
the msg is note_on channel=9 note=47 velocity=0 time=14
the msg is note_on channel=9 note=36 velocity=127 time=1
the msg is note_on channel=9 note=35 velocity=127 time=0
the msg is note_on channel=9 note=36 velocity=0 time=29
the msg is note_on channel=9 note=35 velocity=0 time=0
the msg is note_on channel=9 note=39 velocity=127 time=31
the msg is note_on channel=9 note=39 velocity=0 time=29
the msg is note_on channel=9 note=36 velocity=127 time=91
the msg is note_on channel=9 note=35 velocity=127 time=0
the msg is note_on channel=9 note=36 velocity=0 time=29
the msg is note_on channel=9 note=35 velocity=0 time=0
the msg is note_on channel=9 note=36 velocity=127 time=31
the msg is note_on channel=9 note=35 velocity=127 time=0
the msg is note_on channel=9 note=35 velocity=0 time=29
the msg is note_on channel=9 note=36 velocity=0 time=0
the msg is note_on channel=9 note=39 velocity=127 time=31
the msg is note_on channel=9 note=39 velocity=0 time=29
the msg is note_on channel=9 note=36 velocity=127 time=61
the msg is note_on channel=9 note=35 velocity=127 time=0
the msg is note_on channel=9 note=35 velocity=0 time=29
the msg is note_on channel=9 note=36 velocity=0 time=0
the msg is note_on channel=9 note=36 velocity=127 time=61
the msg is note_on channel=9 note=35 velocity=127 time=0
the msg is note_on channel=9 note=35 velocity=0 time=29
the msg is note_on channel=9 note=36 velocity=0 time=0
the msg is note_on channel=9 note=39 velocity=127 time=31
the msg is note_on channel=9 note=39 velocity=0 time=29
the msg is note_on channel=9 note=35 velocity=127 time=91
the msg is note_on channel=9 note=36 velocity=127 time=0
the msg is note_on channel=9 note=35 velocity=0 time=29
the msg is note_on channel=9 note=36 velocity=0 time=0
the msg is note_on channel=9 note=36 velocity=127 time=31
the msg is note_on channel=9 note=35 velocity=127 time=0
the msg is note_on channel=9 note=35 velocity=0 time=29
the msg is note_on channel=9 note=36 velocity=0 time=0
the msg is note_on channel=9 note=39 velocity=127 time=31
the msg is note_on channel=9 note=39 velocity=0 time=29
the msg is note_on channel=9 note=36 velocity=127 time=61
the msg is note_on channel=9 note=35 velocity=127 time=0
the msg is note_on channel=9 note=35 velocity=0 time=29
the msg is note_on channel=9 note=36 velocity=0 time=0
the msg is note_on channel=9 note=35 velocity=127 time=61
the msg is note_on channel=9 note=36 velocity=127 time=0
the msg is note_on channel=9 note=36 velocity=0 time=29
the msg is note_on channel=9 note=35 velocity=0 time=0
the msg is note_on channel=9 note=39 velocity=127 time=31
the msg is note_on channel=9 note=39 velocity=0 time=29
the msg is note_on channel=9 note=36 velocity=127 time=91
the msg is note_on channel=9 note=35 velocity=127 time=0
the msg is note_on channel=9 note=35 velocity=0 time=29
the msg is note_on channel=9 note=36 velocity=0 time=0
the msg is note_on channel=9 note=35 velocity=127 time=31
the msg is note_on channel=9 note=36 velocity=127 time=0
the msg is note_on channel=9 note=35 velocity=0 time=29
the msg is note_on channel=9 note=36 velocity=0 time=0
the msg is note_on channel=9 note=39 velocity=127 time=31
the msg is note_on channel=9 note=39 velocity=0 time=29
the msg is note_on channel=9 note=35 velocity=127 time=61
the msg is note_on channel=9 note=36 velocity=127 time=0
the msg is note_on channel=9 note=36 velocity=0 time=29
the msg is note_on channel=9 note=35 velocity=0 time=0
the msg is note_on channel=9 note=35 velocity=127 time=61
the msg is note_on channel=9 note=36 velocity=127 time=0
the msg is note_on channel=9 note=36 velocity=0 time=29
the msg is note_on channel=9 note=35 velocity=0 time=0
the msg is note_on channel=9 note=39 velocity=127 time=31
the msg is note_on channel=9 note=39 velocity=0 time=29
the msg is note_on channel=9 note=36 velocity=127 time=91
the msg is note_on channel=9 note=35 velocity=127 time=0
the msg is note_on channel=9 note=35 velocity=0 time=29
the msg is note_on channel=9 note=36 velocity=0 time=0
the msg is note_on channel=9 note=36 velocity=127 time=31
the msg is note_on channel=9 note=35 velocity=127 time=0
the msg is note_on channel=9 note=36 velocity=0 time=29
the msg is note_on channel=9 note=35 velocity=0 time=0
the msg is note_on channel=9 note=39 velocity=127 time=31
the msg is note_on channel=9 note=39 velocity=0 time=29
the msg is note_on channel=9 note=35 velocity=127 time=61
the msg is note_on channel=9 note=36 velocity=127 time=0
the msg is note_on channel=9 note=36 velocity=0 time=29
the msg is note_on channel=9 note=35 velocity=0 time=0
the msg is note_on channel=9 note=36 velocity=127 time=61
the msg is note_on channel=9 note=35 velocity=127 time=0
the msg is note_on channel=9 note=35 velocity=0 time=29
the msg is note_on channel=9 note=36 velocity=0 time=0
the msg is note_on channel=9 note=39 velocity=127 time=31
the msg is note_on channel=9 note=39 velocity=0 time=29
the msg is note_on channel=9 note=35 velocity=127 time=91
the msg is note_on channel=9 note=36 velocity=127 time=0
the msg is note_on channel=9 note=36 velocity=0 time=29
the msg is note_on channel=9 note=35 velocity=0 time=0
the msg is note_on channel=9 note=35 velocity=127 time=31
the msg is note_on channel=9 note=36 velocity=127 time=0
the msg is note_on channel=9 note=36 velocity=0 time=29
the msg is note_on channel=9 note=35 velocity=0 time=0
the msg is note_on channel=9 note=39 velocity=127 time=31
the msg is note_on channel=9 note=39 velocity=0 time=29
the msg is note_on channel=9 note=35 velocity=127 time=61
the msg is note_on channel=9 note=36 velocity=127 time=0
the msg is note_on channel=9 note=36 velocity=0 time=29
the msg is note_on channel=9 note=35 velocity=0 time=0
the msg is note_on channel=9 note=35 velocity=127 time=61
the msg is note_on channel=9 note=36 velocity=127 time=0
the msg is note_on channel=9 note=36 velocity=0 time=29
the msg is note_on channel=9 note=35 velocity=0 time=0
the msg is note_on channel=9 note=39 velocity=127 time=31
the msg is note_on channel=9 note=39 velocity=0 time=29
the msg is note_on channel=9 note=36 velocity=127 time=91
the msg is note_on channel=9 note=35 velocity=127 time=0
the msg is note_on channel=9 note=35 velocity=0 time=29
the msg is note_on channel=9 note=36 velocity=0 time=0
the msg is note_on channel=9 note=36 velocity=127 time=31
the msg is note_on channel=9 note=35 velocity=127 time=0
the msg is note_on channel=9 note=35 velocity=0 time=29
the msg is note_on channel=9 note=36 velocity=0 time=0
the msg is note_on channel=9 note=39 velocity=127 time=31
the msg is note_on channel=9 note=39 velocity=0 time=29
the msg is note_on channel=9 note=36 velocity=127 time=61
the msg is note_on channel=9 note=35 velocity=127 time=0
the msg is note_on channel=9 note=35 velocity=0 time=29
the msg is note_on channel=9 note=36 velocity=0 time=0
the msg is note_on channel=9 note=35 velocity=127 time=61
the msg is note_on channel=9 note=36 velocity=127 time=0
the msg is note_on channel=9 note=36 velocity=0 time=29
the msg is note_on channel=9 note=35 velocity=0 time=0
the msg is note_on channel=9 note=39 velocity=127 time=31
the msg is note_on channel=9 note=39 velocity=0 time=29
the msg is note_on channel=9 note=36 velocity=127 time=91
the msg is note_on channel=9 note=35 velocity=127 time=0
the msg is note_on channel=9 note=35 velocity=0 time=29
the msg is note_on channel=9 note=36 velocity=0 time=0
the msg is note_on channel=9 note=35 velocity=127 time=31
the msg is note_on channel=9 note=36 velocity=127 time=0
the msg is note_on channel=9 note=36 velocity=0 time=29
the msg is note_on channel=9 note=35 velocity=0 time=0
the msg is note_on channel=9 note=39 velocity=127 time=31
the msg is note_on channel=9 note=39 velocity=0 time=29
the msg is note_on channel=9 note=36 velocity=127 time=61
the msg is note_on channel=9 note=35 velocity=127 time=0
the msg is note_on channel=9 note=35 velocity=0 time=29
the msg is note_on channel=9 note=36 velocity=0 time=0
the msg is note_on channel=9 note=36 velocity=127 time=61
the msg is note_on channel=9 note=35 velocity=127 time=0
the msg is note_on channel=9 note=36 velocity=0 time=29
the msg is note_on channel=9 note=35 velocity=0 time=0
the msg is note_on channel=9 note=39 velocity=127 time=31
the msg is note_on channel=9 note=39 velocity=0 time=29
the msg is note_on channel=9 note=35 velocity=127 time=91
the msg is note_on channel=9 note=36 velocity=127 time=0
the msg is note_on channel=9 note=35 velocity=0 time=29
the msg is note_on channel=9 note=36 velocity=0 time=0
the msg is note_on channel=9 note=39 velocity=127 time=91
the msg is note_on channel=9 note=39 velocity=0 time=29
the msg is note_on channel=9 note=35 velocity=127 time=91
the msg is note_on channel=9 note=36 velocity=127 time=0
the msg is note_on channel=9 note=36 velocity=0 time=29
the msg is note_on channel=9 note=35 velocity=0 time=0
the msg is note_on channel=9 note=35 velocity=127 time=31
the msg is note_on channel=9 note=36 velocity=127 time=0
the msg is note_on channel=9 note=36 velocity=0 time=29
the msg is note_on channel=9 note=35 velocity=0 time=0
the msg is note_on channel=9 note=39 velocity=127 time=31
the msg is note_on channel=9 note=39 velocity=0 time=29
the msg is note_on channel=9 note=35 velocity=127 time=91
the msg is note_on channel=9 note=36 velocity=127 time=0
the msg is note_on channel=9 note=36 velocity=0 time=29
the msg is note_on channel=9 note=35 velocity=0 time=0
the msg is note_on channel=9 note=39 velocity=127 time=91
the msg is note_on channel=9 note=39 velocity=0 time=29
the msg is note_on channel=9 note=35 velocity=127 time=91
the msg is note_on channel=9 note=36 velocity=127 time=0
the msg is note_on channel=9 note=36 velocity=0 time=29
the msg is note_on channel=9 note=35 velocity=0 time=0
the msg is note_on channel=9 note=35 velocity=127 time=31
the msg is note_on channel=9 note=36 velocity=127 time=0
the msg is note_on channel=9 note=35 velocity=0 time=29
the msg is note_on channel=9 note=36 velocity=0 time=0
the msg is note_on channel=9 note=39 velocity=127 time=31
the msg is note_on channel=9 note=39 velocity=0 time=29
the msg is note_on channel=9 note=36 velocity=127 time=91
the msg is note_on channel=9 note=35 velocity=127 time=0
the msg is note_on channel=9 note=36 velocity=0 time=29
the msg is note_on channel=9 note=35 velocity=0 time=0
the msg is note_on channel=9 note=35 velocity=127 time=31
the msg is note_on channel=9 note=36 velocity=127 time=0
the msg is note_on channel=9 note=36 velocity=0 time=29
the msg is note_on channel=9 note=35 velocity=0 time=0
the msg is note_on channel=9 note=39 velocity=127 time=31
the msg is note_on channel=9 note=39 velocity=0 time=29
the msg is note_on channel=9 note=39 velocity=127 time=211
the msg is note_on channel=9 note=39 velocity=0 time=29
the msg is note_on channel=9 note=36 velocity=127 time=91
the msg is note_on channel=9 note=35 velocity=127 time=0
the msg is note_on channel=9 note=35 velocity=0 time=29
the msg is note_on channel=9 note=36 velocity=0 time=0
the msg is note_on channel=9 note=35 velocity=127 time=31
the msg is note_on channel=9 note=36 velocity=127 time=0
the msg is note_on channel=9 note=36 velocity=0 time=29
the msg is note_on channel=9 note=35 velocity=0 time=0
the msg is note_on channel=9 note=39 velocity=127 time=31
the msg is note_on channel=9 note=39 velocity=0 time=29
the msg is note_on channel=9 note=36 velocity=127 time=61
the msg is note_on channel=9 note=35 velocity=127 time=0
the msg is note_on channel=9 note=35 velocity=0 time=29
the msg is note_on channel=9 note=36 velocity=0 time=0
the msg is note_on channel=9 note=36 velocity=127 time=61
the msg is note_on channel=9 note=35 velocity=127 time=0
the msg is note_on channel=9 note=35 velocity=0 time=29
the msg is note_on channel=9 note=36 velocity=0 time=0
the msg is note_on channel=9 note=39 velocity=127 time=31
the msg is note_on channel=9 note=39 velocity=0 time=29
the msg is note_on channel=9 note=35 velocity=127 time=91
the msg is note_on channel=9 note=36 velocity=127 time=0
the msg is note_on channel=9 note=36 velocity=0 time=29
the msg is note_on channel=9 note=35 velocity=0 time=0
the msg is note_on channel=9 note=39 velocity=127 time=91
the msg is note_on channel=9 note=39 velocity=0 time=29
the msg is note_on channel=9 note=36 velocity=127 time=91
the msg is note_on channel=9 note=35 velocity=127 time=0
the msg is note_on channel=9 note=36 velocity=0 time=29
the msg is note_on channel=9 note=35 velocity=0 time=0
the msg is note_on channel=9 note=36 velocity=127 time=31
the msg is note_on channel=9 note=35 velocity=127 time=0
the msg is note_on channel=9 note=35 velocity=0 time=29
the msg is note_on channel=9 note=36 velocity=0 time=0
the msg is note_on channel=9 note=39 velocity=127 time=31
the msg is note_on channel=9 note=39 velocity=0 time=29
the msg is note_on channel=9 note=35 velocity=127 time=91
the msg is note_on channel=9 note=36 velocity=127 time=0
the msg is note_on channel=9 note=36 velocity=0 time=29
the msg is note_on channel=9 note=35 velocity=0 time=0
the msg is note_on channel=9 note=39 velocity=127 time=91
the msg is note_on channel=9 note=39 velocity=0 time=29
the msg is note_on channel=9 note=35 velocity=127 time=91
the msg is note_on channel=9 note=36 velocity=127 time=0
the msg is note_on channel=9 note=36 velocity=0 time=29
the msg is note_on channel=9 note=35 velocity=0 time=0
the msg is note_on channel=9 note=36 velocity=127 time=31
the msg is note_on channel=9 note=35 velocity=127 time=0
the msg is note_on channel=9 note=36 velocity=0 time=29
the msg is note_on channel=9 note=35 velocity=0 time=0
the msg is note_on channel=9 note=39 velocity=127 time=31
the msg is note_on channel=9 note=39 velocity=0 time=29
the msg is note_on channel=9 note=36 velocity=127 time=91
the msg is note_on channel=9 note=35 velocity=127 time=0
the msg is note_on channel=9 note=36 velocity=0 time=29
the msg is note_on channel=9 note=35 velocity=0 time=0
the msg is note_on channel=9 note=35 velocity=127 time=31
the msg is note_on channel=9 note=36 velocity=127 time=0
the msg is note_on channel=9 note=36 velocity=0 time=29
the msg is note_on channel=9 note=35 velocity=0 time=0
the msg is note_on channel=9 note=39 velocity=127 time=31
the msg is note_on channel=9 note=39 velocity=0 time=29
the msg is note_on channel=9 note=39 velocity=127 time=211
the msg is note_on channel=9 note=39 velocity=0 time=29
the msg is note_on channel=9 note=36 velocity=127 time=91
the msg is note_on channel=9 note=35 velocity=127 time=0
the msg is note_on channel=9 note=35 velocity=0 time=29
the msg is note_on channel=9 note=36 velocity=0 time=0
the msg is note_on channel=9 note=35 velocity=127 time=31
the msg is note_on channel=9 note=36 velocity=127 time=0
the msg is note_on channel=9 note=36 velocity=0 time=29
the msg is note_on channel=9 note=35 velocity=0 time=0
the msg is note_on channel=9 note=39 velocity=127 time=31
the msg is note_on channel=9 note=39 velocity=0 time=29
the msg is note_on channel=9 note=36 velocity=127 time=61
the msg is note_on channel=9 note=35 velocity=127 time=0
the msg is note_on channel=9 note=35 velocity=0 time=29
the msg is note_on channel=9 note=36 velocity=0 time=0
the msg is note_on channel=9 note=36 velocity=127 time=61
the msg is note_on channel=9 note=35 velocity=127 time=0
the msg is note_on channel=9 note=35 velocity=0 time=29
the msg is note_on channel=9 note=36 velocity=0 time=0
the msg is note_on channel=9 note=39 velocity=127 time=31
the msg is note_on channel=9 note=39 velocity=0 time=29
the msg is note_on channel=9 note=36 velocity=127 time=91
the msg is note_on channel=9 note=35 velocity=127 time=0
the msg is note_on channel=9 note=35 velocity=0 time=29
the msg is note_on channel=9 note=36 velocity=0 time=0
the msg is note_on channel=9 note=35 velocity=127 time=31
the msg is note_on channel=9 note=36 velocity=127 time=0
the msg is note_on channel=9 note=36 velocity=0 time=29
the msg is note_on channel=9 note=35 velocity=0 time=0
the msg is note_on channel=9 note=39 velocity=127 time=31
the msg is note_on channel=9 note=39 velocity=0 time=29
the msg is note_on channel=9 note=36 velocity=127 time=91
the msg is note_on channel=9 note=35 velocity=127 time=0
the msg is note_on channel=9 note=35 velocity=0 time=29
the msg is note_on channel=9 note=36 velocity=0 time=0
the msg is note_on channel=9 note=36 velocity=127 time=31
the msg is note_on channel=9 note=35 velocity=127 time=0
the msg is note_on channel=9 note=35 velocity=0 time=29
the msg is note_on channel=9 note=36 velocity=0 time=0
the msg is note_on channel=9 note=39 velocity=127 time=31
the msg is note_on channel=9 note=39 velocity=0 time=29
the msg is note_on channel=9 note=36 velocity=127 time=91
the msg is note_on channel=9 note=35 velocity=127 time=0
the msg is note_on channel=9 note=35 velocity=0 time=29
the msg is note_on channel=9 note=36 velocity=0 time=0
the msg is note_on channel=9 note=35 velocity=127 time=31
the msg is note_on channel=9 note=36 velocity=127 time=0
the msg is note_on channel=9 note=36 velocity=0 time=29
the msg is note_on channel=9 note=35 velocity=0 time=0
the msg is note_on channel=9 note=39 velocity=127 time=31
the msg is note_on channel=9 note=39 velocity=0 time=29
the msg is note_on channel=9 note=35 velocity=127 time=91
the msg is note_on channel=9 note=36 velocity=127 time=0
the msg is note_on channel=9 note=36 velocity=0 time=29
the msg is note_on channel=9 note=35 velocity=0 time=0
the msg is note_on channel=9 note=35 velocity=127 time=31
the msg is note_on channel=9 note=36 velocity=127 time=0
the msg is note_on channel=9 note=36 velocity=0 time=29
the msg is note_on channel=9 note=35 velocity=0 time=0
the msg is note_on channel=9 note=39 velocity=127 time=31
the msg is note_on channel=9 note=39 velocity=0 time=29
the msg is note_on channel=9 note=35 velocity=127 time=91
the msg is note_on channel=9 note=36 velocity=127 time=0
the msg is note_on channel=9 note=36 velocity=0 time=29
the msg is note_on channel=9 note=35 velocity=0 time=0
the msg is note_on channel=9 note=36 velocity=127 time=31
the msg is note_on channel=9 note=35 velocity=127 time=0
the msg is note_on channel=9 note=35 velocity=0 time=29
the msg is note_on channel=9 note=36 velocity=0 time=0
the msg is note_on channel=9 note=39 velocity=127 time=31
the msg is note_on channel=9 note=39 velocity=0 time=29
the msg is note_on channel=9 note=39 velocity=127 time=211
the msg is note_on channel=9 note=39 velocity=0 time=29
the msg is note_on channel=9 note=35 velocity=127 time=91
the msg is note_on channel=9 note=36 velocity=127 time=0
the msg is note_on channel=9 note=36 velocity=0 time=29
the msg is note_on channel=9 note=35 velocity=0 time=0
the msg is note_on channel=9 note=35 velocity=127 time=31
the msg is note_on channel=9 note=36 velocity=127 time=0
the msg is note_on channel=9 note=35 velocity=0 time=29
the msg is note_on channel=9 note=36 velocity=0 time=0
the msg is note_on channel=9 note=39 velocity=127 time=31
the msg is note_on channel=9 note=39 velocity=0 time=29
the msg is note_on channel=9 note=36 velocity=127 time=61
the msg is note_on channel=9 note=35 velocity=127 time=0
the msg is note_on channel=9 note=36 velocity=0 time=29
the msg is note_on channel=9 note=35 velocity=0 time=0
the msg is note_on channel=9 note=36 velocity=127 time=61
the msg is note_on channel=9 note=35 velocity=127 time=0
the msg is note_on channel=9 note=35 velocity=0 time=29
the msg is note_on channel=9 note=36 velocity=0 time=0
the msg is note_on channel=9 note=39 velocity=127 time=31
the msg is note_on channel=9 note=39 velocity=0 time=29
the msg is note_on channel=9 note=35 velocity=127 time=91
the msg is note_on channel=9 note=36 velocity=127 time=0
the msg is note_on channel=9 note=36 velocity=0 time=29
the msg is note_on channel=9 note=35 velocity=0 time=0
the msg is note_on channel=9 note=39 velocity=127 time=91
the msg is note_on channel=9 note=39 velocity=0 time=29
the msg is note_on channel=9 note=36 velocity=127 time=91
the msg is note_on channel=9 note=35 velocity=127 time=0
the msg is note_on channel=9 note=35 velocity=0 time=29
the msg is note_on channel=9 note=36 velocity=0 time=0
the msg is note_on channel=9 note=35 velocity=127 time=31
the msg is note_on channel=9 note=36 velocity=127 time=0
the msg is note_on channel=9 note=35 velocity=0 time=29
the msg is note_on channel=9 note=36 velocity=0 time=0
the msg is note_on channel=9 note=39 velocity=127 time=31
the msg is note_on channel=9 note=39 velocity=0 time=29
the msg is note_on channel=9 note=35 velocity=127 time=91
the msg is note_on channel=9 note=36 velocity=127 time=0
the msg is note_on channel=9 note=36 velocity=0 time=29
the msg is note_on channel=9 note=35 velocity=0 time=0
the msg is note_on channel=9 note=39 velocity=127 time=91
the msg is note_on channel=9 note=39 velocity=0 time=29
the msg is note_on channel=9 note=35 velocity=127 time=91
the msg is note_on channel=9 note=36 velocity=127 time=0
the msg is note_on channel=9 note=36 velocity=0 time=29
the msg is note_on channel=9 note=35 velocity=0 time=0
the msg is note_on channel=9 note=36 velocity=127 time=31
the msg is note_on channel=9 note=35 velocity=127 time=0
the msg is note_on channel=9 note=35 velocity=0 time=29
the msg is note_on channel=9 note=36 velocity=0 time=0
the msg is note_on channel=9 note=39 velocity=127 time=31
the msg is note_on channel=9 note=39 velocity=0 time=29
the msg is note_on channel=9 note=35 velocity=127 time=91
the msg is note_on channel=9 note=36 velocity=127 time=0
the msg is note_on channel=9 note=36 velocity=0 time=29
the msg is note_on channel=9 note=35 velocity=0 time=0
the msg is note_on channel=9 note=36 velocity=127 time=31
the msg is note_on channel=9 note=35 velocity=127 time=0
the msg is note_on channel=9 note=35 velocity=0 time=29
the msg is note_on channel=9 note=36 velocity=0 time=0
the msg is note_on channel=9 note=39 velocity=127 time=31
the msg is note_on channel=9 note=39 velocity=0 time=29
the msg is note_on channel=9 note=39 velocity=127 time=211
the msg is note_on channel=9 note=39 velocity=0 time=29
the msg is note_on channel=9 note=35 velocity=127 time=91
the msg is note_on channel=9 note=36 velocity=127 time=0
the msg is note_on channel=9 note=36 velocity=0 time=29
the msg is note_on channel=9 note=35 velocity=0 time=0
the msg is note_on channel=9 note=35 velocity=127 time=31
the msg is note_on channel=9 note=36 velocity=127 time=0
the msg is note_on channel=9 note=35 velocity=0 time=29
the msg is note_on channel=9 note=36 velocity=0 time=0
the msg is note_on channel=9 note=39 velocity=127 time=31
the msg is note_on channel=9 note=39 velocity=0 time=29
the msg is note_on channel=9 note=36 velocity=127 time=61
the msg is note_on channel=9 note=35 velocity=127 time=0
the msg is note_on channel=9 note=36 velocity=0 time=29
the msg is note_on channel=9 note=35 velocity=0 time=0
the msg is note_on channel=9 note=35 velocity=127 time=61
the msg is note_on channel=9 note=36 velocity=127 time=0
the msg is note_on channel=9 note=36 velocity=0 time=29
the msg is note_on channel=9 note=35 velocity=0 time=0
the msg is note_on channel=9 note=39 velocity=127 time=31
the msg is note_on channel=9 note=39 velocity=0 time=29
the msg is note_on channel=9 note=35 velocity=127 time=91
the msg is note_on channel=9 note=36 velocity=127 time=0
the msg is note_on channel=9 note=36 velocity=0 time=29
the msg is note_on channel=9 note=35 velocity=0 time=0
the msg is note_on channel=9 note=39 velocity=127 time=91
the msg is note_on channel=9 note=39 velocity=0 time=29
the msg is note_on channel=9 note=35 velocity=127 time=91
the msg is note_on channel=9 note=36 velocity=127 time=0
the msg is note_on channel=9 note=36 velocity=0 time=29
the msg is note_on channel=9 note=35 velocity=0 time=0
the msg is note_on channel=9 note=36 velocity=127 time=31
the msg is note_on channel=9 note=35 velocity=127 time=0
the msg is note_on channel=9 note=36 velocity=0 time=29
the msg is note_on channel=9 note=35 velocity=0 time=0
the msg is note_on channel=9 note=39 velocity=127 time=31
the msg is note_on channel=9 note=39 velocity=0 time=29
the msg is note_on channel=9 note=35 velocity=127 time=91
the msg is note_on channel=9 note=36 velocity=127 time=0
the msg is note_on channel=9 note=35 velocity=0 time=29
the msg is note_on channel=9 note=36 velocity=0 time=0
the msg is note_on channel=9 note=39 velocity=127 time=91
the msg is note_on channel=9 note=39 velocity=0 time=29
the msg is note_on channel=9 note=35 velocity=127 time=91
the msg is note_on channel=9 note=36 velocity=127 time=0
the msg is note_on channel=9 note=36 velocity=0 time=29
the msg is note_on channel=9 note=35 velocity=0 time=0
the msg is note_on channel=9 note=35 velocity=127 time=31
the msg is note_on channel=9 note=36 velocity=127 time=0
the msg is note_on channel=9 note=35 velocity=0 time=29
the msg is note_on channel=9 note=36 velocity=0 time=0
the msg is note_on channel=9 note=39 velocity=127 time=31
the msg is note_on channel=9 note=39 velocity=0 time=29
the msg is note_on channel=9 note=36 velocity=127 time=91
the msg is note_on channel=9 note=35 velocity=127 time=0
the msg is note_on channel=9 note=35 velocity=0 time=29
the msg is note_on channel=9 note=36 velocity=0 time=0
the msg is note_on channel=9 note=35 velocity=127 time=31
the msg is note_on channel=9 note=36 velocity=127 time=0
the msg is note_on channel=9 note=36 velocity=0 time=29
the msg is note_on channel=9 note=35 velocity=0 time=0
the msg is note_on channel=9 note=39 velocity=127 time=31
the msg is note_on channel=9 note=39 velocity=0 time=29
the msg is note_on channel=9 note=39 velocity=127 time=211
the msg is note_on channel=9 note=39 velocity=0 time=29
the msg is note_on channel=9 note=36 velocity=127 time=91
the msg is note_on channel=9 note=35 velocity=127 time=0
the msg is note_on channel=9 note=35 velocity=0 time=29
the msg is note_on channel=9 note=36 velocity=0 time=0
the msg is note_on channel=9 note=36 velocity=127 time=31
the msg is note_on channel=9 note=35 velocity=127 time=0
the msg is note_on channel=9 note=36 velocity=0 time=29
the msg is note_on channel=9 note=35 velocity=0 time=0
the msg is note_on channel=9 note=39 velocity=127 time=31
the msg is note_on channel=9 note=39 velocity=0 time=29
the msg is note_on channel=9 note=36 velocity=127 time=61
the msg is note_on channel=9 note=35 velocity=127 time=0
the msg is note_on channel=9 note=35 velocity=0 time=29
the msg is note_on channel=9 note=36 velocity=0 time=0
the msg is note_on channel=9 note=36 velocity=127 time=61
the msg is note_on channel=9 note=35 velocity=127 time=0
the msg is note_on channel=9 note=35 velocity=0 time=29
the msg is note_on channel=9 note=36 velocity=0 time=0
the msg is note_on channel=9 note=39 velocity=127 time=31
the msg is note_on channel=9 note=39 velocity=0 time=29
the msg is note_on channel=9 note=36 velocity=127 time=91
the msg is note_on channel=9 note=35 velocity=127 time=0
the msg is note_on channel=9 note=35 velocity=0 time=29
the msg is note_on channel=9 note=36 velocity=0 time=0
the msg is note_on channel=9 note=35 velocity=127 time=31
the msg is note_on channel=9 note=36 velocity=127 time=0
the msg is note_on channel=9 note=35 velocity=0 time=29
the msg is note_on channel=9 note=36 velocity=0 time=0
the msg is note_on channel=9 note=39 velocity=127 time=31
the msg is note_on channel=9 note=39 velocity=0 time=29
the msg is note_on channel=9 note=35 velocity=127 time=91
the msg is note_on channel=9 note=36 velocity=127 time=0
the msg is note_on channel=9 note=36 velocity=0 time=29
the msg is note_on channel=9 note=35 velocity=0 time=0
the msg is note_on channel=9 note=36 velocity=127 time=31
the msg is note_on channel=9 note=35 velocity=127 time=0
the msg is note_on channel=9 note=35 velocity=0 time=29
the msg is note_on channel=9 note=36 velocity=0 time=0
the msg is note_on channel=9 note=39 velocity=127 time=31
the msg is note_on channel=9 note=39 velocity=0 time=29
the msg is note_on channel=9 note=35 velocity=127 time=91
the msg is note_on channel=9 note=36 velocity=127 time=0
the msg is note_on channel=9 note=36 velocity=0 time=29
the msg is note_on channel=9 note=35 velocity=0 time=0
the msg is note_on channel=9 note=36 velocity=127 time=31
the msg is note_on channel=9 note=35 velocity=127 time=0
the msg is note_on channel=9 note=36 velocity=0 time=29
the msg is note_on channel=9 note=35 velocity=0 time=0
the msg is note_on channel=9 note=39 velocity=127 time=31
the msg is note_on channel=9 note=39 velocity=0 time=29
the msg is note_on channel=9 note=36 velocity=127 time=91
the msg is note_on channel=9 note=35 velocity=127 time=0
the msg is note_on channel=9 note=35 velocity=0 time=29
the msg is note_on channel=9 note=36 velocity=0 time=0
the msg is note_on channel=9 note=35 velocity=127 time=31
the msg is note_on channel=9 note=36 velocity=127 time=0
the msg is note_on channel=9 note=36 velocity=0 time=29
the msg is note_on channel=9 note=35 velocity=0 time=0
the msg is note_on channel=9 note=39 velocity=127 time=31
the msg is note_on channel=9 note=39 velocity=0 time=29
the msg is note_on channel=9 note=36 velocity=127 time=91
the msg is note_on channel=9 note=35 velocity=127 time=0
the msg is note_on channel=9 note=35 velocity=0 time=29
the msg is note_on channel=9 note=36 velocity=0 time=0
the msg is note_on channel=9 note=35 velocity=127 time=31
the msg is note_on channel=9 note=36 velocity=127 time=0
the msg is note_on channel=9 note=35 velocity=0 time=29
the msg is note_on channel=9 note=36 velocity=0 time=0
the msg is note_on channel=9 note=39 velocity=127 time=31
the msg is note_on channel=9 note=39 velocity=0 time=29
the msg is note_on channel=9 note=39 velocity=127 time=211
the msg is note_on channel=9 note=39 velocity=0 time=29
the msg is note_on channel=9 note=35 velocity=127 time=91
the msg is note_on channel=9 note=36 velocity=127 time=0
the msg is note_on channel=9 note=36 velocity=0 time=29
the msg is note_on channel=9 note=35 velocity=0 time=0
the msg is note_on channel=9 note=36 velocity=127 time=31
the msg is note_on channel=9 note=35 velocity=127 time=0
the msg is note_on channel=9 note=35 velocity=0 time=29
the msg is note_on channel=9 note=36 velocity=0 time=0
the msg is note_on channel=9 note=39 velocity=127 time=31
the msg is note_on channel=9 note=39 velocity=0 time=29
the msg is note_on channel=9 note=35 velocity=127 time=61
the msg is note_on channel=9 note=36 velocity=127 time=0
the msg is note_on channel=9 note=36 velocity=0 time=29
the msg is note_on channel=9 note=35 velocity=0 time=0
the msg is note_on channel=9 note=36 velocity=127 time=61
the msg is note_on channel=9 note=35 velocity=127 time=0
the msg is note_on channel=9 note=35 velocity=0 time=29
the msg is note_on channel=9 note=36 velocity=0 time=0
the msg is note_on channel=9 note=39 velocity=127 time=31
the msg is note_on channel=9 note=39 velocity=0 time=29
the msg is note_on channel=9 note=36 velocity=127 time=91
the msg is note_on channel=9 note=35 velocity=127 time=0
the msg is note_on channel=9 note=35 velocity=0 time=29
the msg is note_on channel=9 note=36 velocity=0 time=0
the msg is note_on channel=9 note=35 velocity=127 time=31
the msg is note_on channel=9 note=36 velocity=127 time=0
the msg is note_on channel=9 note=35 velocity=0 time=29
the msg is note_on channel=9 note=36 velocity=0 time=0
the msg is note_on channel=9 note=39 velocity=127 time=31
the msg is note_on channel=9 note=39 velocity=0 time=29
the msg is note_on channel=9 note=36 velocity=127 time=61
the msg is note_on channel=9 note=35 velocity=127 time=0
the msg is note_on channel=9 note=35 velocity=0 time=29
the msg is note_on channel=9 note=36 velocity=0 time=0
the msg is note_on channel=9 note=47 velocity=127 time=61
the msg is note_on channel=9 note=36 velocity=127 time=0
the msg is note_on channel=9 note=35 velocity=127 time=0
the msg is note_on channel=9 note=47 velocity=0 time=29
the msg is note_on channel=9 note=35 velocity=0 time=0
the msg is note_on channel=9 note=36 velocity=0 time=0
the msg is note_on channel=9 note=47 velocity=127 time=1
the msg is note_on channel=9 note=47 velocity=0 time=14
the msg is note_on channel=9 note=47 velocity=127 time=1
the msg is note_on channel=9 note=47 velocity=0 time=14
the msg is note_on channel=9 note=39 velocity=127 time=1
the msg is note_on channel=9 note=39 velocity=0 time=29
the msg is note_on channel=9 note=36 velocity=127 time=91
the msg is note_on channel=9 note=35 velocity=127 time=0
the msg is note_on channel=9 note=35 velocity=0 time=29
the msg is note_on channel=9 note=36 velocity=0 time=0
the msg is note_on channel=9 note=35 velocity=127 time=31
the msg is note_on channel=9 note=36 velocity=127 time=0
the msg is note_on channel=9 note=36 velocity=0 time=29
the msg is note_on channel=9 note=35 velocity=0 time=0
the msg is note_on channel=9 note=39 velocity=127 time=31
the msg is note_on channel=9 note=39 velocity=0 time=29
the msg is note_on channel=9 note=35 velocity=127 time=61
the msg is note_on channel=9 note=36 velocity=127 time=0
the msg is note_on channel=9 note=36 velocity=0 time=29
the msg is note_on channel=9 note=35 velocity=0 time=0
the msg is note_on channel=9 note=35 velocity=127 time=61
the msg is note_on channel=9 note=36 velocity=127 time=0
the msg is note_on channel=9 note=36 velocity=0 time=29
the msg is note_on channel=9 note=35 velocity=0 time=0
the msg is note_on channel=9 note=39 velocity=127 time=31
the msg is note_on channel=9 note=39 velocity=0 time=29
the msg is note_on channel=9 note=36 velocity=127 time=91
the msg is note_on channel=9 note=35 velocity=127 time=0
the msg is note_on channel=9 note=35 velocity=0 time=29
the msg is note_on channel=9 note=36 velocity=0 time=0
the msg is note_on channel=9 note=36 velocity=127 time=31
the msg is note_on channel=9 note=35 velocity=127 time=0
the msg is note_on channel=9 note=35 velocity=0 time=29
the msg is note_on channel=9 note=36 velocity=0 time=0
the msg is note_on channel=9 note=39 velocity=127 time=31
the msg is note_on channel=9 note=39 velocity=0 time=29
the msg is note_on channel=9 note=35 velocity=127 time=61
the msg is note_on channel=9 note=36 velocity=127 time=0
the msg is note_on channel=9 note=36 velocity=0 time=29
the msg is note_on channel=9 note=35 velocity=0 time=0
the msg is note_on channel=9 note=47 velocity=127 time=1
the msg is note_on channel=9 note=47 velocity=0 time=29
the msg is note_on channel=9 note=47 velocity=127 time=1
the msg is note_on channel=9 note=47 velocity=0 time=14
the msg is note_on channel=9 note=47 velocity=127 time=1
the msg is note_on channel=9 note=47 velocity=0 time=14
the msg is note_on channel=9 note=35 velocity=127 time=1
the msg is note_on channel=9 note=36 velocity=127 time=0
the msg is note_on channel=9 note=36 velocity=0 time=29
the msg is note_on channel=9 note=35 velocity=0 time=0
the msg is note_on channel=9 note=39 velocity=127 time=31
the msg is note_on channel=9 note=39 velocity=0 time=29
the msg is note_on channel=9 note=36 velocity=127 time=91
the msg is note_on channel=9 note=35 velocity=127 time=0
the msg is note_on channel=9 note=36 velocity=0 time=29
the msg is note_on channel=9 note=35 velocity=0 time=0
the msg is note_on channel=9 note=36 velocity=127 time=31
the msg is note_on channel=9 note=35 velocity=127 time=0
the msg is note_on channel=9 note=35 velocity=0 time=29
the msg is note_on channel=9 note=36 velocity=0 time=0
the msg is note_on channel=9 note=39 velocity=127 time=31
the msg is note_on channel=9 note=39 velocity=0 time=29
the msg is note_on channel=9 note=35 velocity=127 time=61
the msg is note_on channel=9 note=36 velocity=127 time=0
the msg is note_on channel=9 note=35 velocity=0 time=29
the msg is note_on channel=9 note=36 velocity=0 time=0
the msg is note_on channel=9 note=35 velocity=127 time=61
the msg is note_on channel=9 note=36 velocity=127 time=0
the msg is note_on channel=9 note=35 velocity=0 time=29
the msg is note_on channel=9 note=36 velocity=0 time=0
the msg is note_on channel=9 note=39 velocity=127 time=31
the msg is note_on channel=9 note=39 velocity=0 time=29
the msg is note_on channel=9 note=36 velocity=127 time=91
the msg is note_on channel=9 note=35 velocity=127 time=0
the msg is note_on channel=9 note=35 velocity=0 time=29
the msg is note_on channel=9 note=36 velocity=0 time=0
the msg is note_on channel=9 note=36 velocity=127 time=31
the msg is note_on channel=9 note=35 velocity=127 time=0
the msg is note_on channel=9 note=36 velocity=0 time=29
the msg is note_on channel=9 note=35 velocity=0 time=0
the msg is note_on channel=9 note=39 velocity=127 time=31
the msg is note_on channel=9 note=39 velocity=0 time=29
the msg is note_on channel=9 note=35 velocity=127 time=61
the msg is note_on channel=9 note=36 velocity=127 time=0
the msg is note_on channel=9 note=36 velocity=0 time=29
the msg is note_on channel=9 note=35 velocity=0 time=0
the msg is note_on channel=9 note=47 velocity=127 time=61
the msg is note_on channel=9 note=36 velocity=127 time=0
the msg is note_on channel=9 note=35 velocity=127 time=0
the msg is note_on channel=9 note=47 velocity=0 time=29
the msg is note_on channel=9 note=35 velocity=0 time=0
the msg is note_on channel=9 note=36 velocity=0 time=0
the msg is note_on channel=9 note=47 velocity=127 time=1
the msg is note_on channel=9 note=47 velocity=0 time=14
the msg is note_on channel=9 note=47 velocity=127 time=1
the msg is note_on channel=9 note=47 velocity=0 time=14
the msg is note_on channel=9 note=39 velocity=127 time=1
the msg is note_on channel=9 note=39 velocity=0 time=29
the msg is note_on channel=9 note=36 velocity=127 time=91
the msg is note_on channel=9 note=35 velocity=127 time=0
the msg is note_on channel=9 note=35 velocity=0 time=29
the msg is note_on channel=9 note=36 velocity=0 time=0
the msg is note_on channel=9 note=36 velocity=127 time=31
the msg is note_on channel=9 note=35 velocity=127 time=0
the msg is note_on channel=9 note=35 velocity=0 time=29
the msg is note_on channel=9 note=36 velocity=0 time=0
the msg is note_on channel=9 note=39 velocity=127 time=31
the msg is note_on channel=9 note=39 velocity=0 time=29
the msg is note_on channel=9 note=35 velocity=127 time=61
the msg is note_on channel=9 note=36 velocity=127 time=0
the msg is note_on channel=9 note=36 velocity=0 time=29
the msg is note_on channel=9 note=35 velocity=0 time=0
the msg is note_on channel=9 note=35 velocity=127 time=61
the msg is note_on channel=9 note=36 velocity=127 time=0
the msg is note_on channel=9 note=36 velocity=0 time=29
the msg is note_on channel=9 note=35 velocity=0 time=0
the msg is note_on channel=9 note=39 velocity=127 time=31
the msg is note_on channel=9 note=39 velocity=0 time=29
the msg is note_on channel=9 note=36 velocity=127 time=91
the msg is note_on channel=9 note=35 velocity=127 time=0
the msg is note_on channel=9 note=35 velocity=0 time=29
the msg is note_on channel=9 note=36 velocity=0 time=0
the msg is <meta message end_of_track time=0>
the msg is control_change channel=3 control=0 value=0 time=0
the msg is program_change channel=3 program=30 time=0
the msg is <meta message sequencer_specific data=(74, 65, 90, 50, 1, 0, 0, 0, 0, 0, 0, 0, 0, 0, 0, 0, 0, 0, 0, 0) time=0>
the msg is <meta message track_name name='Chorus' time=0>
the msg is <meta message midi_port port=0 time=0>
the msg is pitchwheel channel=3 pitch=-3509 time=1912
the msg is pitchwheel channel=3 pitch=4003 time=3840
the msg is pitchwheel channel=3 pitch=0 time=24
the msg is pitchwheel channel=3 pitch=3757 time=32
the msg is pitchwheel channel=3 pitch=0 time=16
the msg is pitchwheel channel=3 pitch=3757 time=40
the msg is pitchwheel channel=3 pitch=0 time=16
the msg is pitchwheel channel=3 pitch=3757 time=32
the msg is pitchwheel channel=3 pitch=0 time=16
the msg is pitchwheel channel=3 pitch=2525 time=64
the msg is pitchwheel channel=3 pitch=0 time=16
the msg is pitchwheel channel=3 pitch=1786 time=48
the msg is pitchwheel channel=3 pitch=0 time=16
the msg is pitchwheel channel=3 pitch=1293 time=64
the msg is pitchwheel channel=3 pitch=0 time=24
the msg is pitchwheel channel=3 pitch=-184 time=320
the msg is pitchwheel channel=3 pitch=-430 time=16
the msg is pitchwheel channel=3 pitch=-676 time=8
the msg is pitchwheel channel=3 pitch=-923 time=8
the msg is pitchwheel channel=3 pitch=-1169 time=8
the msg is pitchwheel channel=3 pitch=-1415 time=8
the msg is pitchwheel channel=3 pitch=-1662 time=8
the msg is pitchwheel channel=3 pitch=-1785 time=8
the msg is pitchwheel channel=3 pitch=-2155 time=8
the msg is pitchwheel channel=3 pitch=-2401 time=8
the msg is pitchwheel channel=3 pitch=-2647 time=8
the msg is pitchwheel channel=3 pitch=-2894 time=8
the msg is pitchwheel channel=3 pitch=-3140 time=8
the msg is pitchwheel channel=3 pitch=-3879 time=8
the msg is pitchwheel channel=3 pitch=-4125 time=8
the msg is pitchwheel channel=3 pitch=-4372 time=8
the msg is pitchwheel channel=3 pitch=-4618 time=8
the msg is pitchwheel channel=3 pitch=-5357 time=8
the msg is pitchwheel channel=3 pitch=-5727 time=8
the msg is pitchwheel channel=3 pitch=-5973 time=8
the msg is pitchwheel channel=3 pitch=-6219 time=8
the msg is pitchwheel channel=3 pitch=-6589 time=8
the msg is pitchwheel channel=3 pitch=-6835 time=8
the msg is pitchwheel channel=3 pitch=-7205 time=8
the msg is pitchwheel channel=3 pitch=-7451 time=8
the msg is pitchwheel channel=3 pitch=-7820 time=8
the msg is pitchwheel channel=3 pitch=-8067 time=8
the msg is pitchwheel channel=3 pitch=-8190 time=8
the msg is note_on channel=3 note=59 velocity=127 time=16
the msg is pitchwheel channel=3 pitch=0 time=0
the msg is note_on channel=3 note=59 velocity=0 time=59
the msg is note_on channel=3 note=61 velocity=127 time=61
the msg is pitchwheel channel=3 pitch=6097 time=24
the msg is pitchwheel channel=3 pitch=0 time=16
the msg is pitchwheel channel=3 pitch=6097 time=16
the msg is pitchwheel channel=3 pitch=0 time=16
the msg is pitchwheel channel=3 pitch=6097 time=16
the msg is pitchwheel channel=3 pitch=0 time=16
the msg is note_on channel=3 note=61 velocity=0 time=15
the msg is note_on channel=3 note=59 velocity=127 time=1
the msg is note_on channel=3 note=59 velocity=0 time=59
the msg is note_on channel=3 note=61 velocity=127 time=61
the msg is pitchwheel channel=3 pitch=6097 time=24
the msg is pitchwheel channel=3 pitch=0 time=16
the msg is pitchwheel channel=3 pitch=6097 time=16
the msg is pitchwheel channel=3 pitch=0 time=16
the msg is pitchwheel channel=3 pitch=6097 time=16
the msg is pitchwheel channel=3 pitch=0 time=16
the msg is note_on channel=3 note=61 velocity=0 time=15
the msg is note_on channel=3 note=59 velocity=127 time=1
the msg is note_on channel=3 note=59 velocity=0 time=59
the msg is note_on channel=3 note=61 velocity=127 time=1
the msg is note_on channel=3 note=61 velocity=0 time=59
the msg is pitchwheel channel=3 pitch=-8067 time=49
the msg is pitchwheel channel=3 pitch=-6958 time=8
the msg is note_on channel=3 note=66 velocity=127 time=4
the msg is pitchwheel channel=3 pitch=-5357 time=4
the msg is pitchwheel channel=3 pitch=-4002 time=8
the msg is pitchwheel channel=3 pitch=-2647 time=8
the msg is pitchwheel channel=3 pitch=-1785 time=8
the msg is pitchwheel channel=3 pitch=-1415 time=8
the msg is pitchwheel channel=3 pitch=-1046 time=8
the msg is pitchwheel channel=3 pitch=-553 time=8
the msg is pitchwheel channel=3 pitch=0 time=8
the msg is note_on channel=3 note=66 velocity=0 time=59
the msg is note_on channel=3 note=65 velocity=127 time=1
the msg is note_on channel=3 note=65 velocity=0 time=59
the msg is note_on channel=3 note=63 velocity=127 time=1
the msg is note_on channel=3 note=63 velocity=0 time=59
the msg is note_on channel=3 note=61 velocity=127 time=1
the msg is note_on channel=3 note=61 velocity=0 time=59
the msg is note_on channel=3 note=59 velocity=127 time=1
the msg is note_on channel=3 note=59 velocity=0 time=59
the msg is note_on channel=3 note=61 velocity=127 time=61
the msg is pitchwheel channel=3 pitch=6220 time=24
the msg is pitchwheel channel=3 pitch=0 time=16
the msg is pitchwheel channel=3 pitch=6220 time=16
the msg is pitchwheel channel=3 pitch=0 time=16
the msg is pitchwheel channel=3 pitch=6220 time=16
the msg is pitchwheel channel=3 pitch=0 time=16
the msg is note_on channel=3 note=61 velocity=0 time=15
the msg is note_on channel=3 note=59 velocity=127 time=1
the msg is note_on channel=3 note=59 velocity=0 time=59
the msg is note_on channel=3 note=61 velocity=127 time=61
the msg is pitchwheel channel=3 pitch=6220 time=24
the msg is pitchwheel channel=3 pitch=0 time=16
the msg is pitchwheel channel=3 pitch=6220 time=16
the msg is pitchwheel channel=3 pitch=0 time=16
the msg is pitchwheel channel=3 pitch=6220 time=16
the msg is pitchwheel channel=3 pitch=0 time=16
the msg is note_on channel=3 note=61 velocity=0 time=15
the msg is note_on channel=3 note=59 velocity=127 time=1
the msg is note_on channel=3 note=59 velocity=0 time=59
the msg is note_on channel=3 note=61 velocity=127 time=1
the msg is note_on channel=3 note=61 velocity=0 time=59
the msg is note_on channel=3 note=64 velocity=127 time=61
the msg is pitchwheel channel=3 pitch=-8067 time=116
the msg is pitchwheel channel=3 pitch=0 time=16
the msg is pitchwheel channel=3 pitch=-8191 time=48
the msg is pitchwheel channel=3 pitch=0 time=16
the msg is pitchwheel channel=3 pitch=-8067 time=48
the msg is pitchwheel channel=3 pitch=0 time=16
the msg is note_on channel=3 note=64 velocity=0 time=39
the msg is note_on channel=3 note=59 velocity=127 time=1
the msg is note_on channel=3 note=59 velocity=0 time=59
the msg is note_on channel=3 note=61 velocity=127 time=61
the msg is pitchwheel channel=3 pitch=6343 time=24
the msg is pitchwheel channel=3 pitch=0 time=16
the msg is pitchwheel channel=3 pitch=6343 time=16
the msg is pitchwheel channel=3 pitch=0 time=16
the msg is pitchwheel channel=3 pitch=6343 time=16
the msg is pitchwheel channel=3 pitch=0 time=16
the msg is note_on channel=3 note=61 velocity=0 time=15
the msg is note_on channel=3 note=59 velocity=127 time=1
the msg is note_on channel=3 note=59 velocity=0 time=59
the msg is note_on channel=3 note=61 velocity=127 time=61
the msg is pitchwheel channel=3 pitch=6343 time=24
the msg is pitchwheel channel=3 pitch=0 time=16
the msg is pitchwheel channel=3 pitch=6343 time=16
the msg is pitchwheel channel=3 pitch=0 time=16
the msg is pitchwheel channel=3 pitch=6343 time=16
the msg is pitchwheel channel=3 pitch=0 time=16
the msg is note_on channel=3 note=61 velocity=0 time=15
the msg is note_on channel=3 note=59 velocity=127 time=1
the msg is note_on channel=3 note=59 velocity=0 time=59
the msg is note_on channel=3 note=61 velocity=127 time=1
the msg is note_on channel=3 note=61 velocity=0 time=59
the msg is pitchwheel channel=3 pitch=-8067 time=49
the msg is pitchwheel channel=3 pitch=-7081 time=8
the msg is note_on channel=3 note=66 velocity=127 time=4
the msg is pitchwheel channel=3 pitch=-5850 time=4
the msg is pitchwheel channel=3 pitch=-4741 time=8
the msg is pitchwheel channel=3 pitch=-3509 time=8
the msg is pitchwheel channel=3 pitch=-2401 time=8
the msg is pitchwheel channel=3 pitch=-1415 time=8
the msg is pitchwheel channel=3 pitch=-923 time=8
the msg is pitchwheel channel=3 pitch=-430 time=8
the msg is pitchwheel channel=3 pitch=0 time=8
the msg is note_on channel=3 note=66 velocity=0 time=59
the msg is note_on channel=3 note=65 velocity=127 time=1
the msg is note_on channel=3 note=65 velocity=0 time=59
the msg is note_on channel=3 note=63 velocity=127 time=1
the msg is note_on channel=3 note=63 velocity=0 time=59
the msg is note_on channel=3 note=61 velocity=127 time=1
the msg is note_on channel=3 note=61 velocity=0 time=59
the msg is note_on channel=3 note=59 velocity=127 time=1
the msg is note_on channel=3 note=59 velocity=0 time=59
the msg is note_on channel=3 note=61 velocity=127 time=61
the msg is pitchwheel channel=3 pitch=6467 time=24
the msg is pitchwheel channel=3 pitch=0 time=16
the msg is pitchwheel channel=3 pitch=6467 time=16
the msg is pitchwheel channel=3 pitch=0 time=16
the msg is pitchwheel channel=3 pitch=6467 time=16
the msg is pitchwheel channel=3 pitch=0 time=16
the msg is note_on channel=3 note=61 velocity=0 time=15
the msg is note_on channel=3 note=59 velocity=127 time=1
the msg is note_on channel=3 note=59 velocity=0 time=59
the msg is note_on channel=3 note=61 velocity=127 time=61
the msg is pitchwheel channel=3 pitch=6467 time=24
the msg is pitchwheel channel=3 pitch=0 time=16
the msg is pitchwheel channel=3 pitch=6467 time=16
the msg is pitchwheel channel=3 pitch=0 time=16
the msg is pitchwheel channel=3 pitch=6467 time=16
the msg is pitchwheel channel=3 pitch=0 time=16
the msg is note_on channel=3 note=61 velocity=0 time=15
the msg is note_on channel=3 note=59 velocity=127 time=1
the msg is note_on channel=3 note=59 velocity=0 time=59
the msg is note_on channel=3 note=61 velocity=127 time=1
the msg is note_on channel=3 note=61 velocity=0 time=59
the msg is note_on channel=3 note=64 velocity=127 time=61
the msg is pitchwheel channel=3 pitch=-184 time=172
the msg is pitchwheel channel=3 pitch=-800 time=16
the msg is pitchwheel channel=3 pitch=-1539 time=8
the msg is pitchwheel channel=3 pitch=-2031 time=8
the msg is pitchwheel channel=3 pitch=-2524 time=8
the msg is pitchwheel channel=3 pitch=-3017 time=8
the msg is pitchwheel channel=3 pitch=-3509 time=8
the msg is pitchwheel channel=3 pitch=-4248 time=8
the msg is pitchwheel channel=3 pitch=-4741 time=8
the msg is pitchwheel channel=3 pitch=-5357 time=8
the msg is pitchwheel channel=3 pitch=-6096 time=8
the msg is pitchwheel channel=3 pitch=-6589 time=8
the msg is pitchwheel channel=3 pitch=-6958 time=8
the msg is pitchwheel channel=3 pitch=-7451 time=8
the msg is pitchwheel channel=3 pitch=-7820 time=8
the msg is note_on channel=3 note=64 velocity=0 time=7
the msg is pitchwheel channel=3 pitch=0 time=17
the msg is pitchwheel channel=3 pitch=372 time=1904
the msg is note_on channel=3 note=59 velocity=127 time=0
the msg is note_on channel=3 note=59 velocity=0 time=59
the msg is note_on channel=3 note=61 velocity=127 time=61
the msg is pitchwheel channel=3 pitch=0 time=8
the msg is pitchwheel channel=3 pitch=6097 time=16
the msg is pitchwheel channel=3 pitch=0 time=16
the msg is pitchwheel channel=3 pitch=6097 time=16
the msg is pitchwheel channel=3 pitch=0 time=16
the msg is pitchwheel channel=3 pitch=6097 time=16
the msg is pitchwheel channel=3 pitch=0 time=16
the msg is note_on channel=3 note=61 velocity=0 time=15
the msg is note_on channel=3 note=59 velocity=127 time=1
the msg is note_on channel=3 note=59 velocity=0 time=59
the msg is note_on channel=3 note=61 velocity=127 time=61
the msg is pitchwheel channel=3 pitch=6097 time=24
the msg is pitchwheel channel=3 pitch=0 time=16
the msg is pitchwheel channel=3 pitch=6097 time=16
the msg is pitchwheel channel=3 pitch=0 time=16
the msg is pitchwheel channel=3 pitch=6097 time=16
the msg is pitchwheel channel=3 pitch=0 time=16
the msg is note_on channel=3 note=61 velocity=0 time=15
the msg is note_on channel=3 note=59 velocity=127 time=1
the msg is note_on channel=3 note=59 velocity=0 time=59
the msg is note_on channel=3 note=61 velocity=127 time=1
the msg is note_on channel=3 note=61 velocity=0 time=59
the msg is pitchwheel channel=3 pitch=-8067 time=49
the msg is pitchwheel channel=3 pitch=-6958 time=8
the msg is note_on channel=3 note=66 velocity=127 time=4
the msg is pitchwheel channel=3 pitch=-5357 time=4
the msg is pitchwheel channel=3 pitch=-4002 time=8
the msg is pitchwheel channel=3 pitch=-2647 time=8
the msg is pitchwheel channel=3 pitch=-1785 time=8
the msg is pitchwheel channel=3 pitch=-1415 time=8
the msg is pitchwheel channel=3 pitch=-1046 time=8
the msg is pitchwheel channel=3 pitch=-553 time=8
the msg is pitchwheel channel=3 pitch=0 time=8
the msg is note_on channel=3 note=66 velocity=0 time=59
the msg is note_on channel=3 note=65 velocity=127 time=1
the msg is note_on channel=3 note=65 velocity=0 time=59
the msg is note_on channel=3 note=63 velocity=127 time=1
the msg is note_on channel=3 note=63 velocity=0 time=59
the msg is note_on channel=3 note=61 velocity=127 time=1
the msg is note_on channel=3 note=61 velocity=0 time=59
the msg is note_on channel=3 note=59 velocity=127 time=1
the msg is note_on channel=3 note=59 velocity=0 time=59
the msg is note_on channel=3 note=61 velocity=127 time=61
the msg is pitchwheel channel=3 pitch=6220 time=24
the msg is pitchwheel channel=3 pitch=0 time=16
the msg is pitchwheel channel=3 pitch=6220 time=16
the msg is pitchwheel channel=3 pitch=0 time=16
the msg is pitchwheel channel=3 pitch=6220 time=16
the msg is pitchwheel channel=3 pitch=0 time=16
the msg is note_on channel=3 note=61 velocity=0 time=15
the msg is note_on channel=3 note=59 velocity=127 time=1
the msg is note_on channel=3 note=59 velocity=0 time=59
the msg is note_on channel=3 note=61 velocity=127 time=61
the msg is pitchwheel channel=3 pitch=6220 time=24
the msg is pitchwheel channel=3 pitch=0 time=16
the msg is pitchwheel channel=3 pitch=6220 time=16
the msg is pitchwheel channel=3 pitch=0 time=16
the msg is pitchwheel channel=3 pitch=6220 time=16
the msg is pitchwheel channel=3 pitch=0 time=16
the msg is note_on channel=3 note=61 velocity=0 time=15
the msg is note_on channel=3 note=59 velocity=127 time=1
the msg is note_on channel=3 note=59 velocity=0 time=59
the msg is note_on channel=3 note=61 velocity=127 time=1
the msg is note_on channel=3 note=61 velocity=0 time=59
the msg is note_on channel=3 note=64 velocity=127 time=61
the msg is pitchwheel channel=3 pitch=-8067 time=116
the msg is pitchwheel channel=3 pitch=0 time=16
the msg is pitchwheel channel=3 pitch=-8191 time=48
the msg is pitchwheel channel=3 pitch=0 time=16
the msg is pitchwheel channel=3 pitch=-8067 time=48
the msg is pitchwheel channel=3 pitch=0 time=16
the msg is note_on channel=3 note=64 velocity=0 time=39
the msg is note_on channel=3 note=59 velocity=127 time=1
the msg is note_on channel=3 note=59 velocity=0 time=59
the msg is note_on channel=3 note=61 velocity=127 time=61
the msg is pitchwheel channel=3 pitch=6343 time=24
the msg is pitchwheel channel=3 pitch=0 time=16
the msg is pitchwheel channel=3 pitch=6343 time=16
the msg is pitchwheel channel=3 pitch=0 time=16
the msg is pitchwheel channel=3 pitch=6343 time=16
the msg is pitchwheel channel=3 pitch=0 time=16
the msg is note_on channel=3 note=61 velocity=0 time=15
the msg is note_on channel=3 note=59 velocity=127 time=1
the msg is note_on channel=3 note=59 velocity=0 time=59
the msg is note_on channel=3 note=61 velocity=127 time=61
the msg is pitchwheel channel=3 pitch=6343 time=24
the msg is pitchwheel channel=3 pitch=0 time=16
the msg is pitchwheel channel=3 pitch=6343 time=16
the msg is pitchwheel channel=3 pitch=0 time=16
the msg is pitchwheel channel=3 pitch=6343 time=16
the msg is pitchwheel channel=3 pitch=0 time=16
the msg is note_on channel=3 note=61 velocity=0 time=15
the msg is note_on channel=3 note=59 velocity=127 time=1
the msg is note_on channel=3 note=59 velocity=0 time=59
the msg is note_on channel=3 note=61 velocity=127 time=1
the msg is note_on channel=3 note=61 velocity=0 time=59
the msg is pitchwheel channel=3 pitch=-8067 time=49
the msg is pitchwheel channel=3 pitch=-7081 time=8
the msg is note_on channel=3 note=66 velocity=127 time=4
the msg is pitchwheel channel=3 pitch=-5850 time=4
the msg is pitchwheel channel=3 pitch=-4741 time=8
the msg is pitchwheel channel=3 pitch=-3509 time=8
the msg is pitchwheel channel=3 pitch=-2401 time=8
the msg is pitchwheel channel=3 pitch=-1415 time=8
the msg is pitchwheel channel=3 pitch=-923 time=8
the msg is pitchwheel channel=3 pitch=-430 time=8
the msg is pitchwheel channel=3 pitch=0 time=8
the msg is note_on channel=3 note=66 velocity=0 time=59
the msg is note_on channel=3 note=65 velocity=127 time=1
the msg is note_on channel=3 note=65 velocity=0 time=59
the msg is note_on channel=3 note=63 velocity=127 time=1
the msg is note_on channel=3 note=63 velocity=0 time=59
the msg is note_on channel=3 note=61 velocity=127 time=1
the msg is note_on channel=3 note=61 velocity=0 time=59
the msg is note_on channel=3 note=59 velocity=127 time=1
the msg is note_on channel=3 note=59 velocity=0 time=59
the msg is note_on channel=3 note=61 velocity=127 time=61
the msg is pitchwheel channel=3 pitch=6467 time=24
the msg is pitchwheel channel=3 pitch=0 time=16
the msg is pitchwheel channel=3 pitch=6467 time=16
the msg is pitchwheel channel=3 pitch=0 time=16
the msg is pitchwheel channel=3 pitch=6467 time=16
the msg is pitchwheel channel=3 pitch=0 time=16
the msg is note_on channel=3 note=61 velocity=0 time=15
the msg is note_on channel=3 note=59 velocity=127 time=1
the msg is note_on channel=3 note=59 velocity=0 time=59
the msg is note_on channel=3 note=61 velocity=127 time=61
the msg is pitchwheel channel=3 pitch=6467 time=24
the msg is pitchwheel channel=3 pitch=0 time=16
the msg is pitchwheel channel=3 pitch=6467 time=16
the msg is pitchwheel channel=3 pitch=0 time=16
the msg is pitchwheel channel=3 pitch=6467 time=16
the msg is pitchwheel channel=3 pitch=0 time=16
the msg is note_on channel=3 note=61 velocity=0 time=15
the msg is note_on channel=3 note=59 velocity=127 time=1
the msg is note_on channel=3 note=59 velocity=0 time=59
the msg is note_on channel=3 note=61 velocity=127 time=1
the msg is note_on channel=3 note=61 velocity=0 time=59
the msg is note_on channel=3 note=64 velocity=127 time=61
the msg is pitchwheel channel=3 pitch=-184 time=172
the msg is pitchwheel channel=3 pitch=-800 time=16
the msg is pitchwheel channel=3 pitch=-1539 time=8
the msg is pitchwheel channel=3 pitch=-2031 time=8
the msg is pitchwheel channel=3 pitch=-2524 time=8
the msg is pitchwheel channel=3 pitch=-3017 time=8
the msg is pitchwheel channel=3 pitch=-3509 time=8
the msg is pitchwheel channel=3 pitch=-4248 time=8
the msg is pitchwheel channel=3 pitch=-4741 time=8
the msg is pitchwheel channel=3 pitch=-5357 time=8
the msg is pitchwheel channel=3 pitch=-6096 time=8
the msg is pitchwheel channel=3 pitch=-6589 time=8
the msg is pitchwheel channel=3 pitch=-6958 time=8
the msg is pitchwheel channel=3 pitch=-7451 time=8
the msg is pitchwheel channel=3 pitch=-7820 time=8
the msg is note_on channel=3 note=64 velocity=0 time=7
the msg is pitchwheel channel=3 pitch=-4618 time=1
the msg is pitchwheel channel=3 pitch=0 time=8
the msg is program_change channel=3 program=30 time=1912
the msg is pitchwheel channel=3 pitch=4003 time=5752
the msg is pitchwheel channel=3 pitch=0 time=24
the msg is pitchwheel channel=3 pitch=3757 time=32
the msg is pitchwheel channel=3 pitch=0 time=16
the msg is pitchwheel channel=3 pitch=3757 time=40
the msg is pitchwheel channel=3 pitch=0 time=16
the msg is pitchwheel channel=3 pitch=3757 time=32
the msg is pitchwheel channel=3 pitch=0 time=16
the msg is pitchwheel channel=3 pitch=2525 time=64
the msg is pitchwheel channel=3 pitch=0 time=16
the msg is pitchwheel channel=3 pitch=1786 time=48
the msg is pitchwheel channel=3 pitch=0 time=16
the msg is pitchwheel channel=3 pitch=1293 time=64
the msg is pitchwheel channel=3 pitch=0 time=24
the msg is pitchwheel channel=3 pitch=-184 time=320
the msg is pitchwheel channel=3 pitch=-430 time=16
the msg is pitchwheel channel=3 pitch=-676 time=8
the msg is pitchwheel channel=3 pitch=-923 time=8
the msg is pitchwheel channel=3 pitch=-1169 time=8
the msg is pitchwheel channel=3 pitch=-1415 time=8
the msg is pitchwheel channel=3 pitch=-1662 time=8
the msg is pitchwheel channel=3 pitch=-1785 time=8
the msg is pitchwheel channel=3 pitch=-2155 time=8
the msg is pitchwheel channel=3 pitch=-2401 time=8
the msg is pitchwheel channel=3 pitch=-2647 time=8
the msg is pitchwheel channel=3 pitch=-2894 time=8
the msg is pitchwheel channel=3 pitch=-3140 time=8
the msg is pitchwheel channel=3 pitch=-3879 time=8
the msg is pitchwheel channel=3 pitch=-4125 time=8
the msg is pitchwheel channel=3 pitch=-4372 time=8
the msg is pitchwheel channel=3 pitch=-4618 time=8
the msg is pitchwheel channel=3 pitch=-5357 time=8
the msg is pitchwheel channel=3 pitch=-5727 time=8
the msg is pitchwheel channel=3 pitch=-5973 time=8
the msg is pitchwheel channel=3 pitch=-6219 time=8
the msg is pitchwheel channel=3 pitch=-6589 time=8
the msg is pitchwheel channel=3 pitch=-6835 time=8
the msg is pitchwheel channel=3 pitch=-7205 time=8
the msg is pitchwheel channel=3 pitch=-7451 time=8
the msg is pitchwheel channel=3 pitch=-7820 time=8
the msg is pitchwheel channel=3 pitch=-8067 time=8
the msg is pitchwheel channel=3 pitch=-8190 time=8
the msg is note_on channel=3 note=59 velocity=127 time=16
the msg is pitchwheel channel=3 pitch=0 time=0
the msg is note_on channel=3 note=59 velocity=0 time=59
the msg is note_on channel=3 note=61 velocity=127 time=61
the msg is pitchwheel channel=3 pitch=6097 time=24
the msg is pitchwheel channel=3 pitch=0 time=16
the msg is pitchwheel channel=3 pitch=6097 time=16
the msg is pitchwheel channel=3 pitch=0 time=16
the msg is pitchwheel channel=3 pitch=6097 time=16
the msg is pitchwheel channel=3 pitch=0 time=16
the msg is note_on channel=3 note=61 velocity=0 time=15
the msg is note_on channel=3 note=59 velocity=127 time=1
the msg is note_on channel=3 note=59 velocity=0 time=59
the msg is note_on channel=3 note=61 velocity=127 time=61
the msg is pitchwheel channel=3 pitch=6097 time=24
the msg is pitchwheel channel=3 pitch=0 time=16
the msg is pitchwheel channel=3 pitch=6097 time=16
the msg is pitchwheel channel=3 pitch=0 time=16
the msg is pitchwheel channel=3 pitch=6097 time=16
the msg is pitchwheel channel=3 pitch=0 time=16
the msg is note_on channel=3 note=61 velocity=0 time=15
the msg is note_on channel=3 note=59 velocity=127 time=1
the msg is note_on channel=3 note=59 velocity=0 time=59
the msg is note_on channel=3 note=61 velocity=127 time=1
the msg is note_on channel=3 note=61 velocity=0 time=59
the msg is pitchwheel channel=3 pitch=-8067 time=49
the msg is pitchwheel channel=3 pitch=-6958 time=8
the msg is note_on channel=3 note=66 velocity=127 time=4
the msg is pitchwheel channel=3 pitch=-5357 time=4
the msg is pitchwheel channel=3 pitch=-4002 time=8
the msg is pitchwheel channel=3 pitch=-2647 time=8
the msg is pitchwheel channel=3 pitch=-1785 time=8
the msg is pitchwheel channel=3 pitch=-1415 time=8
the msg is pitchwheel channel=3 pitch=-1046 time=8
the msg is pitchwheel channel=3 pitch=-553 time=8
the msg is pitchwheel channel=3 pitch=0 time=8
the msg is note_on channel=3 note=66 velocity=0 time=59
the msg is note_on channel=3 note=65 velocity=127 time=1
the msg is note_on channel=3 note=65 velocity=0 time=59
the msg is note_on channel=3 note=63 velocity=127 time=1
the msg is note_on channel=3 note=63 velocity=0 time=59
the msg is note_on channel=3 note=61 velocity=127 time=1
the msg is note_on channel=3 note=61 velocity=0 time=59
the msg is note_on channel=3 note=59 velocity=127 time=1
the msg is note_on channel=3 note=59 velocity=0 time=59
the msg is note_on channel=3 note=61 velocity=127 time=61
the msg is pitchwheel channel=3 pitch=6220 time=24
the msg is pitchwheel channel=3 pitch=0 time=16
the msg is pitchwheel channel=3 pitch=6220 time=16
the msg is pitchwheel channel=3 pitch=0 time=16
the msg is pitchwheel channel=3 pitch=6220 time=16
the msg is pitchwheel channel=3 pitch=0 time=16
the msg is note_on channel=3 note=61 velocity=0 time=15
the msg is note_on channel=3 note=59 velocity=127 time=1
the msg is note_on channel=3 note=59 velocity=0 time=59
the msg is note_on channel=3 note=61 velocity=127 time=61
the msg is pitchwheel channel=3 pitch=6220 time=24
the msg is pitchwheel channel=3 pitch=0 time=16
the msg is pitchwheel channel=3 pitch=6220 time=16
the msg is pitchwheel channel=3 pitch=0 time=16
the msg is pitchwheel channel=3 pitch=6220 time=16
the msg is pitchwheel channel=3 pitch=0 time=16
the msg is note_on channel=3 note=61 velocity=0 time=15
the msg is note_on channel=3 note=59 velocity=127 time=1
the msg is note_on channel=3 note=59 velocity=0 time=59
the msg is note_on channel=3 note=61 velocity=127 time=1
the msg is note_on channel=3 note=61 velocity=0 time=59
the msg is note_on channel=3 note=64 velocity=127 time=61
the msg is pitchwheel channel=3 pitch=-8067 time=116
the msg is pitchwheel channel=3 pitch=0 time=16
the msg is pitchwheel channel=3 pitch=-8191 time=48
the msg is pitchwheel channel=3 pitch=0 time=16
the msg is pitchwheel channel=3 pitch=-8067 time=48
the msg is pitchwheel channel=3 pitch=0 time=16
the msg is note_on channel=3 note=64 velocity=0 time=39
the msg is note_on channel=3 note=59 velocity=127 time=1
the msg is note_on channel=3 note=59 velocity=0 time=59
the msg is note_on channel=3 note=61 velocity=127 time=61
the msg is pitchwheel channel=3 pitch=6343 time=24
the msg is pitchwheel channel=3 pitch=0 time=16
the msg is pitchwheel channel=3 pitch=6343 time=16
the msg is pitchwheel channel=3 pitch=0 time=16
the msg is pitchwheel channel=3 pitch=6343 time=16
the msg is pitchwheel channel=3 pitch=0 time=16
the msg is note_on channel=3 note=61 velocity=0 time=15
the msg is note_on channel=3 note=59 velocity=127 time=1
the msg is note_on channel=3 note=59 velocity=0 time=59
the msg is note_on channel=3 note=61 velocity=127 time=61
the msg is pitchwheel channel=3 pitch=6343 time=24
the msg is pitchwheel channel=3 pitch=0 time=16
the msg is pitchwheel channel=3 pitch=6343 time=16
the msg is pitchwheel channel=3 pitch=0 time=16
the msg is pitchwheel channel=3 pitch=6343 time=16
the msg is pitchwheel channel=3 pitch=0 time=16
the msg is note_on channel=3 note=61 velocity=0 time=15
the msg is note_on channel=3 note=59 velocity=127 time=1
the msg is note_on channel=3 note=59 velocity=0 time=59
the msg is note_on channel=3 note=61 velocity=127 time=1
the msg is note_on channel=3 note=61 velocity=0 time=59
the msg is pitchwheel channel=3 pitch=-8067 time=49
the msg is pitchwheel channel=3 pitch=-7081 time=8
the msg is note_on channel=3 note=66 velocity=127 time=4
the msg is pitchwheel channel=3 pitch=-5850 time=4
the msg is pitchwheel channel=3 pitch=-4741 time=8
the msg is pitchwheel channel=3 pitch=-3509 time=8
the msg is pitchwheel channel=3 pitch=-2401 time=8
the msg is pitchwheel channel=3 pitch=-1415 time=8
the msg is pitchwheel channel=3 pitch=-923 time=8
the msg is pitchwheel channel=3 pitch=-430 time=8
the msg is pitchwheel channel=3 pitch=0 time=8
the msg is note_on channel=3 note=66 velocity=0 time=59
the msg is note_on channel=3 note=65 velocity=127 time=1
the msg is note_on channel=3 note=65 velocity=0 time=59
the msg is note_on channel=3 note=63 velocity=127 time=1
the msg is note_on channel=3 note=63 velocity=0 time=59
the msg is note_on channel=3 note=61 velocity=127 time=1
the msg is note_on channel=3 note=61 velocity=0 time=59
the msg is note_on channel=3 note=59 velocity=127 time=1
the msg is note_on channel=3 note=59 velocity=0 time=59
the msg is note_on channel=3 note=61 velocity=127 time=61
the msg is pitchwheel channel=3 pitch=6467 time=24
the msg is pitchwheel channel=3 pitch=0 time=16
the msg is pitchwheel channel=3 pitch=6467 time=16
the msg is pitchwheel channel=3 pitch=0 time=16
the msg is pitchwheel channel=3 pitch=6467 time=16
the msg is pitchwheel channel=3 pitch=0 time=16
the msg is note_on channel=3 note=61 velocity=0 time=15
the msg is note_on channel=3 note=59 velocity=127 time=1
the msg is note_on channel=3 note=59 velocity=0 time=59
the msg is note_on channel=3 note=61 velocity=127 time=61
the msg is pitchwheel channel=3 pitch=6467 time=24
the msg is pitchwheel channel=3 pitch=0 time=16
the msg is pitchwheel channel=3 pitch=6467 time=16
the msg is pitchwheel channel=3 pitch=0 time=16
the msg is pitchwheel channel=3 pitch=6467 time=16
the msg is pitchwheel channel=3 pitch=0 time=16
the msg is note_on channel=3 note=61 velocity=0 time=15
the msg is note_on channel=3 note=59 velocity=127 time=1
the msg is note_on channel=3 note=59 velocity=0 time=59
the msg is note_on channel=3 note=61 velocity=127 time=1
the msg is note_on channel=3 note=61 velocity=0 time=59
the msg is note_on channel=3 note=64 velocity=127 time=61
the msg is pitchwheel channel=3 pitch=-184 time=172
the msg is pitchwheel channel=3 pitch=-800 time=16
the msg is pitchwheel channel=3 pitch=-1539 time=8
the msg is pitchwheel channel=3 pitch=-2031 time=8
the msg is pitchwheel channel=3 pitch=-2524 time=8
the msg is pitchwheel channel=3 pitch=-3017 time=8
the msg is pitchwheel channel=3 pitch=-3509 time=8
the msg is pitchwheel channel=3 pitch=-4248 time=8
the msg is pitchwheel channel=3 pitch=-4741 time=8
the msg is pitchwheel channel=3 pitch=-5357 time=8
the msg is pitchwheel channel=3 pitch=-6096 time=8
the msg is pitchwheel channel=3 pitch=-6589 time=8
the msg is pitchwheel channel=3 pitch=-6958 time=8
the msg is pitchwheel channel=3 pitch=-7451 time=8
the msg is pitchwheel channel=3 pitch=-7820 time=8
the msg is note_on channel=3 note=64 velocity=0 time=7
the msg is pitchwheel channel=3 pitch=0 time=1
the msg is pitchwheel channel=3 pitch=372 time=1912
the msg is note_on channel=3 note=59 velocity=127 time=8
the msg is pitchwheel channel=3 pitch=186 time=32
the msg is pitchwheel channel=3 pitch=0 time=24
the msg is note_on channel=3 note=59 velocity=0 time=3
the msg is note_on channel=3 note=61 velocity=127 time=61
the msg is pitchwheel channel=3 pitch=6097 time=24
the msg is pitchwheel channel=3 pitch=0 time=16
the msg is pitchwheel channel=3 pitch=6097 time=16
the msg is pitchwheel channel=3 pitch=0 time=16
the msg is pitchwheel channel=3 pitch=6097 time=16
the msg is pitchwheel channel=3 pitch=0 time=16
the msg is note_on channel=3 note=61 velocity=0 time=15
the msg is note_on channel=3 note=59 velocity=127 time=1
the msg is note_on channel=3 note=59 velocity=0 time=59
the msg is note_on channel=3 note=61 velocity=127 time=61
the msg is pitchwheel channel=3 pitch=6097 time=24
the msg is pitchwheel channel=3 pitch=0 time=48
the msg is pitchwheel channel=3 pitch=6097 time=16
the msg is pitchwheel channel=3 pitch=0 time=16
the msg is note_on channel=3 note=61 velocity=0 time=15
the msg is note_on channel=3 note=59 velocity=127 time=1
the msg is note_on channel=3 note=59 velocity=0 time=59
the msg is note_on channel=3 note=61 velocity=127 time=1
the msg is note_on channel=3 note=61 velocity=0 time=59
the msg is pitchwheel channel=3 pitch=-8067 time=49
the msg is pitchwheel channel=3 pitch=-6958 time=8
the msg is note_on channel=3 note=66 velocity=127 time=4
the msg is pitchwheel channel=3 pitch=-5357 time=4
the msg is pitchwheel channel=3 pitch=-4002 time=8
the msg is pitchwheel channel=3 pitch=-2647 time=8
the msg is pitchwheel channel=3 pitch=-1785 time=8
the msg is pitchwheel channel=3 pitch=-1415 time=8
the msg is pitchwheel channel=3 pitch=-1046 time=8
the msg is pitchwheel channel=3 pitch=-553 time=8
the msg is pitchwheel channel=3 pitch=0 time=8
the msg is note_on channel=3 note=66 velocity=0 time=59
the msg is note_on channel=3 note=65 velocity=127 time=1
the msg is note_on channel=3 note=65 velocity=0 time=59
the msg is note_on channel=3 note=63 velocity=127 time=1
the msg is note_on channel=3 note=63 velocity=0 time=59
the msg is note_on channel=3 note=61 velocity=127 time=1
the msg is note_on channel=3 note=61 velocity=0 time=59
the msg is note_on channel=3 note=59 velocity=127 time=1
the msg is note_on channel=3 note=59 velocity=0 time=59
the msg is note_on channel=3 note=61 velocity=127 time=61
the msg is pitchwheel channel=3 pitch=6220 time=24
the msg is pitchwheel channel=3 pitch=0 time=16
the msg is pitchwheel channel=3 pitch=6220 time=16
the msg is pitchwheel channel=3 pitch=0 time=16
the msg is pitchwheel channel=3 pitch=6220 time=16
the msg is pitchwheel channel=3 pitch=0 time=16
the msg is note_on channel=3 note=61 velocity=0 time=15
the msg is note_on channel=3 note=59 velocity=127 time=1
the msg is note_on channel=3 note=59 velocity=0 time=59
the msg is note_on channel=3 note=61 velocity=127 time=61
the msg is pitchwheel channel=3 pitch=6220 time=24
the msg is pitchwheel channel=3 pitch=0 time=16
the msg is pitchwheel channel=3 pitch=6220 time=16
the msg is pitchwheel channel=3 pitch=0 time=16
the msg is pitchwheel channel=3 pitch=6220 time=16
the msg is pitchwheel channel=3 pitch=0 time=16
the msg is note_on channel=3 note=61 velocity=0 time=15
the msg is note_on channel=3 note=59 velocity=127 time=1
the msg is note_on channel=3 note=59 velocity=0 time=59
the msg is note_on channel=3 note=61 velocity=127 time=1
the msg is note_on channel=3 note=61 velocity=0 time=59
the msg is note_on channel=3 note=64 velocity=127 time=61
the msg is pitchwheel channel=3 pitch=-8067 time=116
the msg is pitchwheel channel=3 pitch=0 time=16
the msg is pitchwheel channel=3 pitch=-8191 time=48
the msg is pitchwheel channel=3 pitch=0 time=16
the msg is pitchwheel channel=3 pitch=-8067 time=48
the msg is pitchwheel channel=3 pitch=0 time=16
the msg is note_on channel=3 note=64 velocity=0 time=39
the msg is note_on channel=3 note=59 velocity=127 time=1
the msg is note_on channel=3 note=59 velocity=0 time=59
the msg is note_on channel=3 note=61 velocity=127 time=61
the msg is pitchwheel channel=3 pitch=6343 time=24
the msg is pitchwheel channel=3 pitch=0 time=16
the msg is pitchwheel channel=3 pitch=6343 time=16
the msg is pitchwheel channel=3 pitch=0 time=16
the msg is pitchwheel channel=3 pitch=6343 time=16
the msg is pitchwheel channel=3 pitch=0 time=16
the msg is note_on channel=3 note=61 velocity=0 time=15
the msg is note_on channel=3 note=59 velocity=127 time=1
the msg is note_on channel=3 note=59 velocity=0 time=59
the msg is note_on channel=3 note=61 velocity=127 time=61
the msg is pitchwheel channel=3 pitch=6343 time=24
the msg is pitchwheel channel=3 pitch=0 time=16
the msg is pitchwheel channel=3 pitch=6343 time=16
the msg is pitchwheel channel=3 pitch=0 time=16
the msg is pitchwheel channel=3 pitch=6343 time=16
the msg is pitchwheel channel=3 pitch=0 time=16
the msg is note_on channel=3 note=61 velocity=0 time=15
the msg is note_on channel=3 note=59 velocity=127 time=1
the msg is note_on channel=3 note=59 velocity=0 time=59
the msg is note_on channel=3 note=61 velocity=127 time=1
the msg is note_on channel=3 note=61 velocity=0 time=59
the msg is pitchwheel channel=3 pitch=-8067 time=49
the msg is pitchwheel channel=3 pitch=-7081 time=8
the msg is note_on channel=3 note=66 velocity=127 time=4
the msg is pitchwheel channel=3 pitch=-5850 time=4
the msg is pitchwheel channel=3 pitch=-4741 time=8
the msg is pitchwheel channel=3 pitch=-3509 time=8
the msg is pitchwheel channel=3 pitch=-2401 time=8
the msg is pitchwheel channel=3 pitch=-1415 time=8
the msg is pitchwheel channel=3 pitch=-923 time=8
the msg is pitchwheel channel=3 pitch=-430 time=8
the msg is pitchwheel channel=3 pitch=0 time=8
the msg is note_on channel=3 note=66 velocity=0 time=59
the msg is note_on channel=3 note=65 velocity=127 time=1
the msg is note_on channel=3 note=65 velocity=0 time=59
the msg is note_on channel=3 note=63 velocity=127 time=1
the msg is note_on channel=3 note=63 velocity=0 time=59
the msg is note_on channel=3 note=61 velocity=127 time=1
the msg is note_on channel=3 note=61 velocity=0 time=59
the msg is note_on channel=3 note=59 velocity=127 time=1
the msg is note_on channel=3 note=59 velocity=0 time=59
the msg is note_on channel=3 note=61 velocity=127 time=61
the msg is pitchwheel channel=3 pitch=6467 time=24
the msg is pitchwheel channel=3 pitch=0 time=16
the msg is pitchwheel channel=3 pitch=6467 time=16
the msg is pitchwheel channel=3 pitch=0 time=16
the msg is pitchwheel channel=3 pitch=6467 time=16
the msg is pitchwheel channel=3 pitch=0 time=16
the msg is note_on channel=3 note=61 velocity=0 time=15
the msg is note_on channel=3 note=59 velocity=127 time=1
the msg is note_on channel=3 note=59 velocity=0 time=59
the msg is note_on channel=3 note=61 velocity=127 time=61
the msg is pitchwheel channel=3 pitch=6467 time=24
the msg is pitchwheel channel=3 pitch=0 time=16
the msg is pitchwheel channel=3 pitch=6467 time=16
the msg is pitchwheel channel=3 pitch=0 time=16
the msg is pitchwheel channel=3 pitch=6467 time=16
the msg is pitchwheel channel=3 pitch=0 time=16
the msg is note_on channel=3 note=61 velocity=0 time=15
the msg is note_on channel=3 note=59 velocity=127 time=1
the msg is note_on channel=3 note=59 velocity=0 time=59
the msg is note_on channel=3 note=61 velocity=127 time=1
the msg is note_on channel=3 note=61 velocity=0 time=59
the msg is note_on channel=3 note=64 velocity=127 time=61
the msg is pitchwheel channel=3 pitch=-184 time=172
the msg is pitchwheel channel=3 pitch=-800 time=16
the msg is pitchwheel channel=3 pitch=-1539 time=8
the msg is pitchwheel channel=3 pitch=-2031 time=8
the msg is pitchwheel channel=3 pitch=-2524 time=8
the msg is pitchwheel channel=3 pitch=-3017 time=8
the msg is pitchwheel channel=3 pitch=-3509 time=8
the msg is pitchwheel channel=3 pitch=-4248 time=8
the msg is pitchwheel channel=3 pitch=-4741 time=8
the msg is pitchwheel channel=3 pitch=-5357 time=8
the msg is pitchwheel channel=3 pitch=-6096 time=8
the msg is pitchwheel channel=3 pitch=-6589 time=8
the msg is pitchwheel channel=3 pitch=-6958 time=8
the msg is pitchwheel channel=3 pitch=-7451 time=8
the msg is pitchwheel channel=3 pitch=-7820 time=8
the msg is note_on channel=3 note=64 velocity=0 time=7
the msg is pitchwheel channel=3 pitch=-4618 time=1
the msg is pitchwheel channel=3 pitch=0 time=8
the msg is program_change channel=3 program=30 time=1912
the msg is <meta message end_of_track time=0>
the msg is control_change channel=4 control=0 value=0 time=0
the msg is program_change channel=4 program=29 time=0
the msg is <meta message sequencer_specific data=(74, 65, 90, 50, 1, 0, 0, 0, 0, 0, 0, 0, 0, 0, 0, 0, 0, 0, 0, 0) time=0>
the msg is <meta message track_name name='Chorus2' time=0>
the msg is <meta message midi_port port=0 time=0>
the msg is pitchwheel channel=4 pitch=-3509 time=1912
the msg is pitchwheel channel=4 pitch=4003 time=3840
the msg is pitchwheel channel=4 pitch=0 time=24
the msg is pitchwheel channel=4 pitch=3757 time=32
the msg is pitchwheel channel=4 pitch=0 time=16
the msg is pitchwheel channel=4 pitch=3757 time=40
the msg is pitchwheel channel=4 pitch=0 time=16
the msg is pitchwheel channel=4 pitch=3757 time=32
the msg is pitchwheel channel=4 pitch=0 time=16
the msg is pitchwheel channel=4 pitch=2525 time=64
the msg is pitchwheel channel=4 pitch=0 time=16
the msg is pitchwheel channel=4 pitch=1786 time=48
the msg is pitchwheel channel=4 pitch=0 time=16
the msg is pitchwheel channel=4 pitch=1293 time=64
the msg is pitchwheel channel=4 pitch=0 time=24
the msg is pitchwheel channel=4 pitch=-184 time=320
the msg is pitchwheel channel=4 pitch=-430 time=16
the msg is pitchwheel channel=4 pitch=-676 time=8
the msg is pitchwheel channel=4 pitch=-923 time=8
the msg is pitchwheel channel=4 pitch=-1169 time=8
the msg is pitchwheel channel=4 pitch=-1415 time=8
the msg is pitchwheel channel=4 pitch=-1662 time=8
the msg is pitchwheel channel=4 pitch=-1785 time=8
the msg is pitchwheel channel=4 pitch=-2155 time=8
the msg is pitchwheel channel=4 pitch=-2401 time=8
the msg is pitchwheel channel=4 pitch=-2647 time=8
the msg is pitchwheel channel=4 pitch=-2894 time=8
the msg is pitchwheel channel=4 pitch=-3140 time=8
the msg is pitchwheel channel=4 pitch=-3879 time=8
the msg is pitchwheel channel=4 pitch=-4125 time=8
the msg is pitchwheel channel=4 pitch=-4372 time=8
the msg is pitchwheel channel=4 pitch=-4618 time=8
the msg is pitchwheel channel=4 pitch=-5357 time=8
the msg is pitchwheel channel=4 pitch=-5727 time=8
the msg is pitchwheel channel=4 pitch=-5973 time=8
the msg is pitchwheel channel=4 pitch=-6219 time=8
the msg is pitchwheel channel=4 pitch=-6589 time=8
the msg is pitchwheel channel=4 pitch=-6835 time=8
the msg is pitchwheel channel=4 pitch=-7205 time=8
the msg is pitchwheel channel=4 pitch=-7451 time=8
the msg is pitchwheel channel=4 pitch=-7820 time=8
the msg is pitchwheel channel=4 pitch=-8067 time=8
the msg is pitchwheel channel=4 pitch=-8190 time=8
the msg is note_on channel=4 note=59 velocity=127 time=16
the msg is pitchwheel channel=4 pitch=0 time=0
the msg is note_on channel=4 note=59 velocity=0 time=59
the msg is note_on channel=4 note=61 velocity=127 time=61
the msg is pitchwheel channel=4 pitch=6097 time=24
the msg is pitchwheel channel=4 pitch=0 time=16
the msg is pitchwheel channel=4 pitch=6097 time=16
the msg is pitchwheel channel=4 pitch=0 time=16
the msg is pitchwheel channel=4 pitch=6097 time=16
the msg is pitchwheel channel=4 pitch=0 time=16
the msg is note_on channel=4 note=61 velocity=0 time=15
the msg is note_on channel=4 note=59 velocity=127 time=1
the msg is note_on channel=4 note=59 velocity=0 time=59
the msg is note_on channel=4 note=61 velocity=127 time=61
the msg is pitchwheel channel=4 pitch=6097 time=24
the msg is pitchwheel channel=4 pitch=0 time=16
the msg is pitchwheel channel=4 pitch=6097 time=16
the msg is pitchwheel channel=4 pitch=0 time=16
the msg is pitchwheel channel=4 pitch=6097 time=16
the msg is pitchwheel channel=4 pitch=0 time=16
the msg is note_on channel=4 note=61 velocity=0 time=15
the msg is note_on channel=4 note=59 velocity=127 time=1
the msg is note_on channel=4 note=59 velocity=0 time=59
the msg is note_on channel=4 note=61 velocity=127 time=1
the msg is note_on channel=4 note=61 velocity=0 time=59
the msg is pitchwheel channel=4 pitch=-8067 time=49
the msg is pitchwheel channel=4 pitch=-6958 time=8
the msg is note_on channel=4 note=66 velocity=127 time=4
the msg is pitchwheel channel=4 pitch=-5357 time=4
the msg is pitchwheel channel=4 pitch=-4002 time=8
the msg is pitchwheel channel=4 pitch=-2647 time=8
the msg is pitchwheel channel=4 pitch=-1785 time=8
the msg is pitchwheel channel=4 pitch=-1415 time=8
the msg is pitchwheel channel=4 pitch=-1046 time=8
the msg is pitchwheel channel=4 pitch=-553 time=8
the msg is pitchwheel channel=4 pitch=0 time=8
the msg is note_on channel=4 note=66 velocity=0 time=59
the msg is note_on channel=4 note=65 velocity=127 time=1
the msg is note_on channel=4 note=65 velocity=0 time=59
the msg is note_on channel=4 note=63 velocity=127 time=1
the msg is note_on channel=4 note=63 velocity=0 time=59
the msg is note_on channel=4 note=61 velocity=127 time=1
the msg is note_on channel=4 note=61 velocity=0 time=59
the msg is note_on channel=4 note=59 velocity=127 time=1
the msg is note_on channel=4 note=59 velocity=0 time=59
the msg is note_on channel=4 note=61 velocity=127 time=61
the msg is pitchwheel channel=4 pitch=6220 time=24
the msg is pitchwheel channel=4 pitch=0 time=16
the msg is pitchwheel channel=4 pitch=6220 time=16
the msg is pitchwheel channel=4 pitch=0 time=16
the msg is pitchwheel channel=4 pitch=6220 time=16
the msg is pitchwheel channel=4 pitch=0 time=16
the msg is note_on channel=4 note=61 velocity=0 time=15
the msg is note_on channel=4 note=59 velocity=127 time=1
the msg is note_on channel=4 note=59 velocity=0 time=59
the msg is note_on channel=4 note=61 velocity=127 time=61
the msg is pitchwheel channel=4 pitch=6220 time=24
the msg is pitchwheel channel=4 pitch=0 time=16
the msg is pitchwheel channel=4 pitch=6220 time=16
the msg is pitchwheel channel=4 pitch=0 time=16
the msg is pitchwheel channel=4 pitch=6220 time=16
the msg is pitchwheel channel=4 pitch=0 time=16
the msg is note_on channel=4 note=61 velocity=0 time=15
the msg is note_on channel=4 note=59 velocity=127 time=1
the msg is note_on channel=4 note=59 velocity=0 time=59
the msg is note_on channel=4 note=61 velocity=127 time=1
the msg is note_on channel=4 note=61 velocity=0 time=59
the msg is note_on channel=4 note=64 velocity=127 time=61
the msg is pitchwheel channel=4 pitch=-8067 time=116
the msg is pitchwheel channel=4 pitch=0 time=16
the msg is pitchwheel channel=4 pitch=-8191 time=48
the msg is pitchwheel channel=4 pitch=0 time=16
the msg is pitchwheel channel=4 pitch=-8067 time=48
the msg is pitchwheel channel=4 pitch=0 time=16
the msg is note_on channel=4 note=64 velocity=0 time=39
the msg is note_on channel=4 note=59 velocity=127 time=1
the msg is note_on channel=4 note=59 velocity=0 time=59
the msg is note_on channel=4 note=61 velocity=127 time=61
the msg is pitchwheel channel=4 pitch=6343 time=24
the msg is pitchwheel channel=4 pitch=0 time=16
the msg is pitchwheel channel=4 pitch=6343 time=16
the msg is pitchwheel channel=4 pitch=0 time=16
the msg is pitchwheel channel=4 pitch=6343 time=16
the msg is pitchwheel channel=4 pitch=0 time=16
the msg is note_on channel=4 note=61 velocity=0 time=15
the msg is note_on channel=4 note=59 velocity=127 time=1
the msg is note_on channel=4 note=59 velocity=0 time=59
the msg is note_on channel=4 note=61 velocity=127 time=61
the msg is pitchwheel channel=4 pitch=6343 time=24
the msg is pitchwheel channel=4 pitch=0 time=16
the msg is pitchwheel channel=4 pitch=6343 time=16
the msg is pitchwheel channel=4 pitch=0 time=16
the msg is pitchwheel channel=4 pitch=6343 time=16
the msg is pitchwheel channel=4 pitch=0 time=16
the msg is note_on channel=4 note=61 velocity=0 time=15
the msg is note_on channel=4 note=59 velocity=127 time=1
the msg is note_on channel=4 note=59 velocity=0 time=59
the msg is note_on channel=4 note=61 velocity=127 time=1
the msg is note_on channel=4 note=61 velocity=0 time=59
the msg is pitchwheel channel=4 pitch=-8067 time=49
the msg is pitchwheel channel=4 pitch=-7081 time=8
the msg is note_on channel=4 note=66 velocity=127 time=4
the msg is pitchwheel channel=4 pitch=-5850 time=4
the msg is pitchwheel channel=4 pitch=-4741 time=8
the msg is pitchwheel channel=4 pitch=-3509 time=8
the msg is pitchwheel channel=4 pitch=-2401 time=8
the msg is pitchwheel channel=4 pitch=-1415 time=8
the msg is pitchwheel channel=4 pitch=-923 time=8
the msg is pitchwheel channel=4 pitch=-430 time=8
the msg is pitchwheel channel=4 pitch=0 time=8
the msg is note_on channel=4 note=66 velocity=0 time=59
the msg is note_on channel=4 note=65 velocity=127 time=1
the msg is note_on channel=4 note=65 velocity=0 time=59
the msg is note_on channel=4 note=63 velocity=127 time=1
the msg is note_on channel=4 note=63 velocity=0 time=59
the msg is note_on channel=4 note=61 velocity=127 time=1
the msg is note_on channel=4 note=61 velocity=0 time=59
the msg is note_on channel=4 note=59 velocity=127 time=1
the msg is note_on channel=4 note=59 velocity=0 time=59
the msg is note_on channel=4 note=61 velocity=127 time=61
the msg is pitchwheel channel=4 pitch=6467 time=24
the msg is pitchwheel channel=4 pitch=0 time=16
the msg is pitchwheel channel=4 pitch=6467 time=16
the msg is pitchwheel channel=4 pitch=0 time=16
the msg is pitchwheel channel=4 pitch=6467 time=16
the msg is pitchwheel channel=4 pitch=0 time=16
the msg is note_on channel=4 note=61 velocity=0 time=15
the msg is note_on channel=4 note=59 velocity=127 time=1
the msg is note_on channel=4 note=59 velocity=0 time=59
the msg is note_on channel=4 note=61 velocity=127 time=61
the msg is pitchwheel channel=4 pitch=6467 time=24
the msg is pitchwheel channel=4 pitch=0 time=16
the msg is pitchwheel channel=4 pitch=6467 time=16
the msg is pitchwheel channel=4 pitch=0 time=16
the msg is pitchwheel channel=4 pitch=6467 time=16
the msg is pitchwheel channel=4 pitch=0 time=16
the msg is note_on channel=4 note=61 velocity=0 time=15
the msg is note_on channel=4 note=59 velocity=127 time=1
the msg is note_on channel=4 note=59 velocity=0 time=59
the msg is note_on channel=4 note=61 velocity=127 time=1
the msg is note_on channel=4 note=61 velocity=0 time=59
the msg is note_on channel=4 note=64 velocity=127 time=61
the msg is pitchwheel channel=4 pitch=-184 time=172
the msg is pitchwheel channel=4 pitch=-800 time=16
the msg is pitchwheel channel=4 pitch=-1539 time=8
the msg is pitchwheel channel=4 pitch=-2031 time=8
the msg is pitchwheel channel=4 pitch=-2524 time=8
the msg is pitchwheel channel=4 pitch=-3017 time=8
the msg is pitchwheel channel=4 pitch=-3509 time=8
the msg is pitchwheel channel=4 pitch=-4248 time=8
the msg is pitchwheel channel=4 pitch=-4741 time=8
the msg is pitchwheel channel=4 pitch=-5357 time=8
the msg is pitchwheel channel=4 pitch=-6096 time=8
the msg is pitchwheel channel=4 pitch=-6589 time=8
the msg is pitchwheel channel=4 pitch=-6958 time=8
the msg is pitchwheel channel=4 pitch=-7451 time=8
the msg is pitchwheel channel=4 pitch=-7820 time=8
the msg is note_on channel=4 note=64 velocity=0 time=7
the msg is pitchwheel channel=4 pitch=0 time=17
the msg is note_on channel=4 note=59 velocity=127 time=1904
the msg is pitchwheel channel=4 pitch=372 time=0
the msg is note_on channel=4 note=59 velocity=0 time=59
the msg is pitchwheel channel=4 pitch=0 time=61
the msg is note_on channel=4 note=61 velocity=127 time=0
the msg is pitchwheel channel=4 pitch=6097 time=24
the msg is pitchwheel channel=4 pitch=0 time=16
the msg is pitchwheel channel=4 pitch=6097 time=16
the msg is pitchwheel channel=4 pitch=0 time=16
the msg is pitchwheel channel=4 pitch=6097 time=16
the msg is pitchwheel channel=4 pitch=0 time=16
the msg is note_on channel=4 note=61 velocity=0 time=15
the msg is note_on channel=4 note=59 velocity=127 time=1
the msg is note_on channel=4 note=59 velocity=0 time=59
the msg is note_on channel=4 note=61 velocity=127 time=61
the msg is pitchwheel channel=4 pitch=6097 time=24
the msg is pitchwheel channel=4 pitch=0 time=16
the msg is pitchwheel channel=4 pitch=6097 time=16
the msg is pitchwheel channel=4 pitch=0 time=16
the msg is pitchwheel channel=4 pitch=6097 time=16
the msg is pitchwheel channel=4 pitch=0 time=16
the msg is note_on channel=4 note=61 velocity=0 time=15
the msg is note_on channel=4 note=59 velocity=127 time=1
the msg is note_on channel=4 note=59 velocity=0 time=59
the msg is note_on channel=4 note=61 velocity=127 time=1
the msg is note_on channel=4 note=61 velocity=0 time=59
the msg is pitchwheel channel=4 pitch=-8067 time=49
the msg is pitchwheel channel=4 pitch=-6958 time=8
the msg is note_on channel=4 note=66 velocity=127 time=4
the msg is pitchwheel channel=4 pitch=-5357 time=4
the msg is pitchwheel channel=4 pitch=-4002 time=8
the msg is pitchwheel channel=4 pitch=-2647 time=8
the msg is pitchwheel channel=4 pitch=-1785 time=8
the msg is pitchwheel channel=4 pitch=-1415 time=8
the msg is pitchwheel channel=4 pitch=-1046 time=8
the msg is pitchwheel channel=4 pitch=-553 time=8
the msg is pitchwheel channel=4 pitch=0 time=8
the msg is note_on channel=4 note=66 velocity=0 time=59
the msg is note_on channel=4 note=65 velocity=127 time=1
the msg is note_on channel=4 note=65 velocity=0 time=59
the msg is note_on channel=4 note=63 velocity=127 time=1
the msg is note_on channel=4 note=63 velocity=0 time=59
the msg is note_on channel=4 note=61 velocity=127 time=1
the msg is note_on channel=4 note=61 velocity=0 time=59
the msg is note_on channel=4 note=59 velocity=127 time=1
the msg is note_on channel=4 note=59 velocity=0 time=59
the msg is note_on channel=4 note=61 velocity=127 time=61
the msg is pitchwheel channel=4 pitch=6220 time=24
the msg is pitchwheel channel=4 pitch=0 time=16
the msg is pitchwheel channel=4 pitch=6220 time=16
the msg is pitchwheel channel=4 pitch=0 time=16
the msg is pitchwheel channel=4 pitch=6220 time=16
the msg is pitchwheel channel=4 pitch=0 time=16
the msg is note_on channel=4 note=61 velocity=0 time=15
the msg is note_on channel=4 note=59 velocity=127 time=1
the msg is note_on channel=4 note=59 velocity=0 time=59
the msg is note_on channel=4 note=61 velocity=127 time=61
the msg is pitchwheel channel=4 pitch=6220 time=24
the msg is pitchwheel channel=4 pitch=0 time=16
the msg is pitchwheel channel=4 pitch=6220 time=16
the msg is pitchwheel channel=4 pitch=0 time=16
the msg is pitchwheel channel=4 pitch=6220 time=16
the msg is pitchwheel channel=4 pitch=0 time=16
the msg is note_on channel=4 note=61 velocity=0 time=15
the msg is note_on channel=4 note=59 velocity=127 time=1
the msg is note_on channel=4 note=59 velocity=0 time=59
the msg is note_on channel=4 note=61 velocity=127 time=1
the msg is note_on channel=4 note=61 velocity=0 time=59
the msg is note_on channel=4 note=64 velocity=127 time=61
the msg is pitchwheel channel=4 pitch=-8067 time=116
the msg is pitchwheel channel=4 pitch=0 time=16
the msg is pitchwheel channel=4 pitch=-8191 time=48
the msg is pitchwheel channel=4 pitch=0 time=16
the msg is pitchwheel channel=4 pitch=-8067 time=48
the msg is pitchwheel channel=4 pitch=0 time=16
the msg is note_on channel=4 note=64 velocity=0 time=39
the msg is note_on channel=4 note=59 velocity=127 time=1
the msg is note_on channel=4 note=59 velocity=0 time=59
the msg is note_on channel=4 note=61 velocity=127 time=61
the msg is pitchwheel channel=4 pitch=6343 time=24
the msg is pitchwheel channel=4 pitch=0 time=16
the msg is pitchwheel channel=4 pitch=6343 time=16
the msg is pitchwheel channel=4 pitch=0 time=16
the msg is pitchwheel channel=4 pitch=6343 time=16
the msg is pitchwheel channel=4 pitch=0 time=16
the msg is note_on channel=4 note=61 velocity=0 time=15
the msg is note_on channel=4 note=59 velocity=127 time=1
the msg is note_on channel=4 note=59 velocity=0 time=59
the msg is note_on channel=4 note=61 velocity=127 time=61
the msg is pitchwheel channel=4 pitch=6343 time=24
the msg is pitchwheel channel=4 pitch=0 time=16
the msg is pitchwheel channel=4 pitch=6343 time=16
the msg is pitchwheel channel=4 pitch=0 time=16
the msg is pitchwheel channel=4 pitch=6343 time=16
the msg is pitchwheel channel=4 pitch=0 time=16
the msg is note_on channel=4 note=61 velocity=0 time=15
the msg is note_on channel=4 note=59 velocity=127 time=1
the msg is note_on channel=4 note=59 velocity=0 time=59
the msg is note_on channel=4 note=61 velocity=127 time=1
the msg is note_on channel=4 note=61 velocity=0 time=59
the msg is pitchwheel channel=4 pitch=-8067 time=49
the msg is pitchwheel channel=4 pitch=-7081 time=8
the msg is note_on channel=4 note=66 velocity=127 time=4
the msg is pitchwheel channel=4 pitch=-5850 time=4
the msg is pitchwheel channel=4 pitch=-4741 time=8
the msg is pitchwheel channel=4 pitch=-3509 time=8
the msg is pitchwheel channel=4 pitch=-2401 time=8
the msg is pitchwheel channel=4 pitch=-1415 time=8
the msg is pitchwheel channel=4 pitch=-923 time=8
the msg is pitchwheel channel=4 pitch=-430 time=8
the msg is pitchwheel channel=4 pitch=0 time=8
the msg is note_on channel=4 note=66 velocity=0 time=59
the msg is note_on channel=4 note=65 velocity=127 time=1
the msg is note_on channel=4 note=65 velocity=0 time=59
the msg is note_on channel=4 note=63 velocity=127 time=1
the msg is note_on channel=4 note=63 velocity=0 time=59
the msg is note_on channel=4 note=61 velocity=127 time=1
the msg is note_on channel=4 note=61 velocity=0 time=59
the msg is note_on channel=4 note=59 velocity=127 time=1
the msg is note_on channel=4 note=59 velocity=0 time=59
the msg is note_on channel=4 note=61 velocity=127 time=61
the msg is pitchwheel channel=4 pitch=6467 time=24
the msg is pitchwheel channel=4 pitch=0 time=16
the msg is pitchwheel channel=4 pitch=6467 time=16
the msg is pitchwheel channel=4 pitch=0 time=16
the msg is pitchwheel channel=4 pitch=6467 time=16
the msg is pitchwheel channel=4 pitch=0 time=16
the msg is note_on channel=4 note=61 velocity=0 time=15
the msg is note_on channel=4 note=59 velocity=127 time=1
the msg is note_on channel=4 note=59 velocity=0 time=59
the msg is note_on channel=4 note=61 velocity=127 time=61
the msg is pitchwheel channel=4 pitch=6467 time=24
the msg is pitchwheel channel=4 pitch=0 time=16
the msg is pitchwheel channel=4 pitch=6467 time=16
the msg is pitchwheel channel=4 pitch=0 time=16
the msg is pitchwheel channel=4 pitch=6467 time=16
the msg is pitchwheel channel=4 pitch=0 time=16
the msg is note_on channel=4 note=61 velocity=0 time=15
the msg is note_on channel=4 note=59 velocity=127 time=1
the msg is note_on channel=4 note=59 velocity=0 time=59
the msg is note_on channel=4 note=61 velocity=127 time=1
the msg is note_on channel=4 note=61 velocity=0 time=59
the msg is note_on channel=4 note=64 velocity=127 time=61
the msg is pitchwheel channel=4 pitch=-184 time=172
the msg is pitchwheel channel=4 pitch=-800 time=16
the msg is pitchwheel channel=4 pitch=-1539 time=8
the msg is pitchwheel channel=4 pitch=-2031 time=8
the msg is pitchwheel channel=4 pitch=-2524 time=8
the msg is pitchwheel channel=4 pitch=-3017 time=8
the msg is pitchwheel channel=4 pitch=-3509 time=8
the msg is pitchwheel channel=4 pitch=-4248 time=8
the msg is pitchwheel channel=4 pitch=-4741 time=8
the msg is pitchwheel channel=4 pitch=-5357 time=8
the msg is pitchwheel channel=4 pitch=-6096 time=8
the msg is pitchwheel channel=4 pitch=-6589 time=8
the msg is pitchwheel channel=4 pitch=-6958 time=8
the msg is pitchwheel channel=4 pitch=-7451 time=8
the msg is pitchwheel channel=4 pitch=-7820 time=8
the msg is note_on channel=4 note=64 velocity=0 time=7
the msg is pitchwheel channel=4 pitch=-4618 time=1
the msg is pitchwheel channel=4 pitch=0 time=24
the msg is program_change channel=4 program=29 time=1896
the msg is pitchwheel channel=4 pitch=4003 time=5752
the msg is pitchwheel channel=4 pitch=0 time=24
the msg is pitchwheel channel=4 pitch=3757 time=32
the msg is pitchwheel channel=4 pitch=0 time=16
the msg is pitchwheel channel=4 pitch=3757 time=40
the msg is pitchwheel channel=4 pitch=0 time=16
the msg is pitchwheel channel=4 pitch=3757 time=32
the msg is pitchwheel channel=4 pitch=0 time=16
the msg is pitchwheel channel=4 pitch=2525 time=64
the msg is pitchwheel channel=4 pitch=0 time=16
the msg is pitchwheel channel=4 pitch=1786 time=48
the msg is pitchwheel channel=4 pitch=0 time=16
the msg is pitchwheel channel=4 pitch=1293 time=64
the msg is pitchwheel channel=4 pitch=0 time=24
the msg is pitchwheel channel=4 pitch=-184 time=320
the msg is pitchwheel channel=4 pitch=-430 time=16
the msg is pitchwheel channel=4 pitch=-676 time=8
the msg is pitchwheel channel=4 pitch=-923 time=8
the msg is pitchwheel channel=4 pitch=-1169 time=8
the msg is pitchwheel channel=4 pitch=-1415 time=8
the msg is pitchwheel channel=4 pitch=-1662 time=8
the msg is pitchwheel channel=4 pitch=-1785 time=8
the msg is pitchwheel channel=4 pitch=-2155 time=8
the msg is pitchwheel channel=4 pitch=-2401 time=8
the msg is pitchwheel channel=4 pitch=-2647 time=8
the msg is pitchwheel channel=4 pitch=-2894 time=8
the msg is pitchwheel channel=4 pitch=-3140 time=8
the msg is pitchwheel channel=4 pitch=-3879 time=8
the msg is pitchwheel channel=4 pitch=-4125 time=8
the msg is pitchwheel channel=4 pitch=-4372 time=8
the msg is pitchwheel channel=4 pitch=-4618 time=8
the msg is pitchwheel channel=4 pitch=-5357 time=8
the msg is pitchwheel channel=4 pitch=-5727 time=8
the msg is pitchwheel channel=4 pitch=-5973 time=8
the msg is pitchwheel channel=4 pitch=-6219 time=8
the msg is pitchwheel channel=4 pitch=-6589 time=8
the msg is pitchwheel channel=4 pitch=-6835 time=8
the msg is pitchwheel channel=4 pitch=-7205 time=8
the msg is pitchwheel channel=4 pitch=-7451 time=8
the msg is pitchwheel channel=4 pitch=-7820 time=8
the msg is pitchwheel channel=4 pitch=-8067 time=8
the msg is pitchwheel channel=4 pitch=-8190 time=8
the msg is pitchwheel channel=4 pitch=0 time=16
the msg is note_on channel=4 note=59 velocity=127 time=0
the msg is note_on channel=4 note=59 velocity=0 time=59
the msg is note_on channel=4 note=61 velocity=127 time=61
the msg is pitchwheel channel=4 pitch=6097 time=24
the msg is pitchwheel channel=4 pitch=0 time=16
the msg is pitchwheel channel=4 pitch=6097 time=16
the msg is pitchwheel channel=4 pitch=0 time=16
the msg is pitchwheel channel=4 pitch=6097 time=16
the msg is pitchwheel channel=4 pitch=0 time=16
the msg is note_on channel=4 note=61 velocity=0 time=15
the msg is note_on channel=4 note=59 velocity=127 time=1
the msg is note_on channel=4 note=59 velocity=0 time=59
the msg is note_on channel=4 note=61 velocity=127 time=61
the msg is pitchwheel channel=4 pitch=6097 time=24
the msg is pitchwheel channel=4 pitch=0 time=16
the msg is pitchwheel channel=4 pitch=6097 time=16
the msg is pitchwheel channel=4 pitch=0 time=16
the msg is pitchwheel channel=4 pitch=6097 time=16
the msg is pitchwheel channel=4 pitch=0 time=16
the msg is note_on channel=4 note=61 velocity=0 time=15
the msg is note_on channel=4 note=59 velocity=127 time=1
the msg is note_on channel=4 note=59 velocity=0 time=59
the msg is note_on channel=4 note=61 velocity=127 time=1
the msg is note_on channel=4 note=61 velocity=0 time=59
the msg is pitchwheel channel=4 pitch=-8067 time=49
the msg is pitchwheel channel=4 pitch=-6958 time=8
the msg is note_on channel=4 note=66 velocity=127 time=4
the msg is pitchwheel channel=4 pitch=-5357 time=4
the msg is pitchwheel channel=4 pitch=-4002 time=8
the msg is pitchwheel channel=4 pitch=-2647 time=8
the msg is pitchwheel channel=4 pitch=-1785 time=8
the msg is pitchwheel channel=4 pitch=-1415 time=8
the msg is pitchwheel channel=4 pitch=-1046 time=8
the msg is pitchwheel channel=4 pitch=-553 time=8
the msg is pitchwheel channel=4 pitch=0 time=8
the msg is note_on channel=4 note=66 velocity=0 time=59
the msg is note_on channel=4 note=65 velocity=127 time=1
the msg is note_on channel=4 note=65 velocity=0 time=59
the msg is note_on channel=4 note=63 velocity=127 time=1
the msg is note_on channel=4 note=63 velocity=0 time=59
the msg is note_on channel=4 note=61 velocity=127 time=1
the msg is note_on channel=4 note=61 velocity=0 time=59
the msg is note_on channel=4 note=59 velocity=127 time=1
the msg is note_on channel=4 note=59 velocity=0 time=59
the msg is note_on channel=4 note=61 velocity=127 time=61
the msg is pitchwheel channel=4 pitch=6220 time=24
the msg is pitchwheel channel=4 pitch=0 time=16
the msg is pitchwheel channel=4 pitch=6220 time=16
the msg is pitchwheel channel=4 pitch=0 time=16
the msg is pitchwheel channel=4 pitch=6220 time=16
the msg is pitchwheel channel=4 pitch=0 time=16
the msg is note_on channel=4 note=61 velocity=0 time=15
the msg is note_on channel=4 note=59 velocity=127 time=1
the msg is note_on channel=4 note=59 velocity=0 time=59
the msg is note_on channel=4 note=61 velocity=127 time=61
the msg is pitchwheel channel=4 pitch=6220 time=24
the msg is pitchwheel channel=4 pitch=0 time=16
the msg is pitchwheel channel=4 pitch=6220 time=16
the msg is pitchwheel channel=4 pitch=0 time=16
the msg is pitchwheel channel=4 pitch=6220 time=16
the msg is pitchwheel channel=4 pitch=0 time=16
the msg is note_on channel=4 note=61 velocity=0 time=15
the msg is note_on channel=4 note=59 velocity=127 time=1
the msg is note_on channel=4 note=59 velocity=0 time=59
the msg is note_on channel=4 note=61 velocity=127 time=1
the msg is note_on channel=4 note=61 velocity=0 time=59
the msg is note_on channel=4 note=64 velocity=127 time=61
the msg is pitchwheel channel=4 pitch=-8067 time=116
the msg is pitchwheel channel=4 pitch=0 time=16
the msg is pitchwheel channel=4 pitch=-8191 time=48
the msg is pitchwheel channel=4 pitch=0 time=16
the msg is pitchwheel channel=4 pitch=-8067 time=48
the msg is pitchwheel channel=4 pitch=0 time=16
the msg is note_on channel=4 note=64 velocity=0 time=39
the msg is note_on channel=4 note=59 velocity=127 time=1
the msg is note_on channel=4 note=59 velocity=0 time=59
the msg is note_on channel=4 note=61 velocity=127 time=61
the msg is pitchwheel channel=4 pitch=6343 time=24
the msg is pitchwheel channel=4 pitch=0 time=16
the msg is pitchwheel channel=4 pitch=6343 time=16
the msg is pitchwheel channel=4 pitch=0 time=16
the msg is pitchwheel channel=4 pitch=6343 time=16
the msg is pitchwheel channel=4 pitch=0 time=16
the msg is note_on channel=4 note=61 velocity=0 time=15
the msg is note_on channel=4 note=59 velocity=127 time=1
the msg is note_on channel=4 note=59 velocity=0 time=59
the msg is note_on channel=4 note=61 velocity=127 time=61
the msg is pitchwheel channel=4 pitch=6343 time=24
the msg is pitchwheel channel=4 pitch=0 time=16
the msg is pitchwheel channel=4 pitch=6343 time=16
the msg is pitchwheel channel=4 pitch=0 time=16
the msg is pitchwheel channel=4 pitch=6343 time=16
the msg is pitchwheel channel=4 pitch=0 time=16
the msg is note_on channel=4 note=61 velocity=0 time=15
the msg is note_on channel=4 note=59 velocity=127 time=1
the msg is note_on channel=4 note=59 velocity=0 time=59
the msg is note_on channel=4 note=61 velocity=127 time=1
the msg is note_on channel=4 note=61 velocity=0 time=59
the msg is pitchwheel channel=4 pitch=-8067 time=49
the msg is pitchwheel channel=4 pitch=-7081 time=8
the msg is note_on channel=4 note=66 velocity=127 time=4
the msg is pitchwheel channel=4 pitch=-5850 time=4
the msg is pitchwheel channel=4 pitch=-4741 time=8
the msg is pitchwheel channel=4 pitch=-3509 time=8
the msg is pitchwheel channel=4 pitch=-2401 time=8
the msg is pitchwheel channel=4 pitch=-1415 time=8
the msg is pitchwheel channel=4 pitch=-923 time=8
the msg is pitchwheel channel=4 pitch=-430 time=8
the msg is pitchwheel channel=4 pitch=0 time=8
the msg is note_on channel=4 note=66 velocity=0 time=59
the msg is note_on channel=4 note=65 velocity=127 time=1
the msg is note_on channel=4 note=65 velocity=0 time=59
the msg is note_on channel=4 note=63 velocity=127 time=1
the msg is note_on channel=4 note=63 velocity=0 time=59
the msg is note_on channel=4 note=61 velocity=127 time=1
the msg is note_on channel=4 note=61 velocity=0 time=59
the msg is note_on channel=4 note=59 velocity=127 time=1
the msg is note_on channel=4 note=59 velocity=0 time=59
the msg is note_on channel=4 note=61 velocity=127 time=61
the msg is pitchwheel channel=4 pitch=6467 time=24
the msg is pitchwheel channel=4 pitch=0 time=16
the msg is pitchwheel channel=4 pitch=6467 time=16
the msg is pitchwheel channel=4 pitch=0 time=16
the msg is pitchwheel channel=4 pitch=6467 time=16
the msg is pitchwheel channel=4 pitch=0 time=16
the msg is note_on channel=4 note=61 velocity=0 time=15
the msg is note_on channel=4 note=59 velocity=127 time=1
the msg is note_on channel=4 note=59 velocity=0 time=59
the msg is note_on channel=4 note=61 velocity=127 time=61
the msg is pitchwheel channel=4 pitch=6467 time=24
the msg is pitchwheel channel=4 pitch=0 time=16
the msg is pitchwheel channel=4 pitch=6467 time=16
the msg is pitchwheel channel=4 pitch=0 time=16
the msg is pitchwheel channel=4 pitch=6467 time=16
the msg is pitchwheel channel=4 pitch=0 time=16
the msg is note_on channel=4 note=61 velocity=0 time=15
the msg is note_on channel=4 note=59 velocity=127 time=1
the msg is note_on channel=4 note=59 velocity=0 time=59
the msg is note_on channel=4 note=61 velocity=127 time=1
the msg is note_on channel=4 note=61 velocity=0 time=59
the msg is note_on channel=4 note=64 velocity=127 time=61
the msg is pitchwheel channel=4 pitch=-184 time=172
the msg is pitchwheel channel=4 pitch=-800 time=16
the msg is pitchwheel channel=4 pitch=-1539 time=8
the msg is pitchwheel channel=4 pitch=-2031 time=8
the msg is pitchwheel channel=4 pitch=-2524 time=8
the msg is pitchwheel channel=4 pitch=-3017 time=8
the msg is pitchwheel channel=4 pitch=-3509 time=8
the msg is pitchwheel channel=4 pitch=-4248 time=8
the msg is pitchwheel channel=4 pitch=-4741 time=8
the msg is pitchwheel channel=4 pitch=-5357 time=8
the msg is pitchwheel channel=4 pitch=-6096 time=8
the msg is pitchwheel channel=4 pitch=-6589 time=8
the msg is pitchwheel channel=4 pitch=-6958 time=8
the msg is pitchwheel channel=4 pitch=-7451 time=8
the msg is pitchwheel channel=4 pitch=-7820 time=8
the msg is note_on channel=4 note=64 velocity=0 time=7
the msg is pitchwheel channel=4 pitch=0 time=9
the msg is note_on channel=4 note=59 velocity=127 time=1912
the msg is note_on channel=4 note=59 velocity=0 time=59
the msg is note_on channel=4 note=61 velocity=127 time=61
the msg is pitchwheel channel=4 pitch=6097 time=24
the msg is pitchwheel channel=4 pitch=0 time=16
the msg is pitchwheel channel=4 pitch=6097 time=16
the msg is pitchwheel channel=4 pitch=0 time=16
the msg is pitchwheel channel=4 pitch=6097 time=16
the msg is pitchwheel channel=4 pitch=0 time=16
the msg is note_on channel=4 note=61 velocity=0 time=15
the msg is note_on channel=4 note=59 velocity=127 time=1
the msg is note_on channel=4 note=59 velocity=0 time=59
the msg is note_on channel=4 note=61 velocity=127 time=61
the msg is pitchwheel channel=4 pitch=6097 time=24
the msg is pitchwheel channel=4 pitch=0 time=16
the msg is pitchwheel channel=4 pitch=6097 time=16
the msg is pitchwheel channel=4 pitch=0 time=16
the msg is pitchwheel channel=4 pitch=6097 time=16
the msg is pitchwheel channel=4 pitch=0 time=16
the msg is note_on channel=4 note=61 velocity=0 time=15
the msg is note_on channel=4 note=59 velocity=127 time=1
the msg is note_on channel=4 note=59 velocity=0 time=59
the msg is note_on channel=4 note=61 velocity=127 time=1
the msg is note_on channel=4 note=61 velocity=0 time=59
the msg is pitchwheel channel=4 pitch=-8067 time=49
the msg is pitchwheel channel=4 pitch=-6958 time=8
the msg is note_on channel=4 note=66 velocity=127 time=4
the msg is pitchwheel channel=4 pitch=-5357 time=4
the msg is pitchwheel channel=4 pitch=-4002 time=8
the msg is pitchwheel channel=4 pitch=-2647 time=8
the msg is pitchwheel channel=4 pitch=-1785 time=8
the msg is pitchwheel channel=4 pitch=-1415 time=8
the msg is pitchwheel channel=4 pitch=-1046 time=8
the msg is pitchwheel channel=4 pitch=-553 time=8
the msg is pitchwheel channel=4 pitch=0 time=8
the msg is note_on channel=4 note=66 velocity=0 time=59
the msg is note_on channel=4 note=65 velocity=127 time=1
the msg is note_on channel=4 note=65 velocity=0 time=59
the msg is note_on channel=4 note=63 velocity=127 time=1
the msg is note_on channel=4 note=63 velocity=0 time=59
the msg is note_on channel=4 note=61 velocity=127 time=1
the msg is note_on channel=4 note=61 velocity=0 time=59
the msg is note_on channel=4 note=59 velocity=127 time=1
the msg is note_on channel=4 note=59 velocity=0 time=59
the msg is note_on channel=4 note=61 velocity=127 time=61
the msg is pitchwheel channel=4 pitch=6220 time=24
the msg is pitchwheel channel=4 pitch=0 time=16
the msg is pitchwheel channel=4 pitch=6220 time=16
the msg is pitchwheel channel=4 pitch=0 time=16
the msg is pitchwheel channel=4 pitch=6220 time=16
the msg is pitchwheel channel=4 pitch=0 time=16
the msg is note_on channel=4 note=61 velocity=0 time=15
the msg is note_on channel=4 note=59 velocity=127 time=1
the msg is note_on channel=4 note=59 velocity=0 time=59
the msg is note_on channel=4 note=61 velocity=127 time=61
the msg is pitchwheel channel=4 pitch=6220 time=24
the msg is pitchwheel channel=4 pitch=0 time=16
the msg is pitchwheel channel=4 pitch=6220 time=16
the msg is pitchwheel channel=4 pitch=0 time=16
the msg is pitchwheel channel=4 pitch=6220 time=16
the msg is pitchwheel channel=4 pitch=0 time=16
the msg is note_on channel=4 note=61 velocity=0 time=15
the msg is note_on channel=4 note=59 velocity=127 time=1
the msg is note_on channel=4 note=59 velocity=0 time=59
the msg is note_on channel=4 note=61 velocity=127 time=1
the msg is note_on channel=4 note=61 velocity=0 time=59
the msg is note_on channel=4 note=64 velocity=127 time=61
the msg is pitchwheel channel=4 pitch=-8067 time=116
the msg is pitchwheel channel=4 pitch=0 time=16
the msg is pitchwheel channel=4 pitch=-8191 time=48
the msg is pitchwheel channel=4 pitch=0 time=16
the msg is pitchwheel channel=4 pitch=-8067 time=48
the msg is pitchwheel channel=4 pitch=0 time=16
the msg is note_on channel=4 note=64 velocity=0 time=39
the msg is note_on channel=4 note=59 velocity=127 time=1
the msg is note_on channel=4 note=59 velocity=0 time=59
the msg is note_on channel=4 note=61 velocity=127 time=61
the msg is pitchwheel channel=4 pitch=6343 time=24
the msg is pitchwheel channel=4 pitch=0 time=16
the msg is pitchwheel channel=4 pitch=6343 time=16
the msg is pitchwheel channel=4 pitch=0 time=16
the msg is pitchwheel channel=4 pitch=6343 time=16
the msg is pitchwheel channel=4 pitch=0 time=16
the msg is note_on channel=4 note=61 velocity=0 time=15
the msg is note_on channel=4 note=59 velocity=127 time=1
the msg is note_on channel=4 note=59 velocity=0 time=59
the msg is note_on channel=4 note=61 velocity=127 time=61
the msg is pitchwheel channel=4 pitch=6343 time=24
the msg is pitchwheel channel=4 pitch=0 time=16
the msg is pitchwheel channel=4 pitch=6343 time=16
the msg is pitchwheel channel=4 pitch=0 time=16
the msg is pitchwheel channel=4 pitch=6343 time=16
the msg is pitchwheel channel=4 pitch=0 time=16
the msg is note_on channel=4 note=61 velocity=0 time=15
the msg is note_on channel=4 note=59 velocity=127 time=1
the msg is note_on channel=4 note=59 velocity=0 time=59
the msg is note_on channel=4 note=61 velocity=127 time=1
the msg is note_on channel=4 note=61 velocity=0 time=59
the msg is pitchwheel channel=4 pitch=-8067 time=49
the msg is pitchwheel channel=4 pitch=-7081 time=8
the msg is note_on channel=4 note=66 velocity=127 time=4
the msg is pitchwheel channel=4 pitch=-5850 time=4
the msg is pitchwheel channel=4 pitch=-4741 time=8
the msg is pitchwheel channel=4 pitch=-3509 time=8
the msg is pitchwheel channel=4 pitch=-2401 time=8
the msg is pitchwheel channel=4 pitch=-1415 time=8
the msg is pitchwheel channel=4 pitch=-923 time=8
the msg is pitchwheel channel=4 pitch=-430 time=8
the msg is pitchwheel channel=4 pitch=0 time=8
the msg is note_on channel=4 note=66 velocity=0 time=59
the msg is note_on channel=4 note=65 velocity=127 time=1
the msg is note_on channel=4 note=65 velocity=0 time=59
the msg is note_on channel=4 note=63 velocity=127 time=1
the msg is note_on channel=4 note=63 velocity=0 time=59
the msg is note_on channel=4 note=61 velocity=127 time=1
the msg is note_on channel=4 note=61 velocity=0 time=59
the msg is note_on channel=4 note=59 velocity=127 time=1
the msg is note_on channel=4 note=59 velocity=0 time=59
the msg is note_on channel=4 note=61 velocity=127 time=61
the msg is pitchwheel channel=4 pitch=6467 time=24
the msg is pitchwheel channel=4 pitch=0 time=16
the msg is pitchwheel channel=4 pitch=6467 time=16
the msg is pitchwheel channel=4 pitch=0 time=16
the msg is pitchwheel channel=4 pitch=6467 time=16
the msg is pitchwheel channel=4 pitch=0 time=16
the msg is note_on channel=4 note=61 velocity=0 time=15
the msg is note_on channel=4 note=59 velocity=127 time=1
the msg is note_on channel=4 note=59 velocity=0 time=59
the msg is note_on channel=4 note=61 velocity=127 time=61
the msg is pitchwheel channel=4 pitch=6467 time=24
the msg is pitchwheel channel=4 pitch=0 time=16
the msg is pitchwheel channel=4 pitch=6467 time=16
the msg is pitchwheel channel=4 pitch=0 time=16
the msg is pitchwheel channel=4 pitch=6467 time=16
the msg is pitchwheel channel=4 pitch=0 time=16
the msg is note_on channel=4 note=61 velocity=0 time=15
the msg is note_on channel=4 note=59 velocity=127 time=1
the msg is note_on channel=4 note=59 velocity=0 time=59
the msg is note_on channel=4 note=61 velocity=127 time=1
the msg is note_on channel=4 note=61 velocity=0 time=59
the msg is note_on channel=4 note=64 velocity=127 time=61
the msg is pitchwheel channel=4 pitch=-184 time=172
the msg is pitchwheel channel=4 pitch=-800 time=16
the msg is pitchwheel channel=4 pitch=-1539 time=8
the msg is pitchwheel channel=4 pitch=-2031 time=8
the msg is pitchwheel channel=4 pitch=-2524 time=8
the msg is pitchwheel channel=4 pitch=-3017 time=8
the msg is pitchwheel channel=4 pitch=-3509 time=8
the msg is pitchwheel channel=4 pitch=-4248 time=8
the msg is pitchwheel channel=4 pitch=-4741 time=8
the msg is pitchwheel channel=4 pitch=-5357 time=8
the msg is pitchwheel channel=4 pitch=-6096 time=8
the msg is pitchwheel channel=4 pitch=-6589 time=8
the msg is pitchwheel channel=4 pitch=-6958 time=8
the msg is pitchwheel channel=4 pitch=-7451 time=8
the msg is pitchwheel channel=4 pitch=-7820 time=8
the msg is note_on channel=4 note=64 velocity=0 time=7
the msg is pitchwheel channel=4 pitch=-4618 time=1
the msg is pitchwheel channel=4 pitch=0 time=8
the msg is program_change channel=4 program=29 time=1912
the msg is pitchwheel channel=4 pitch=-3509 time=1912
the msg is <meta message end_of_track time=0>
the msg is control_change channel=6 control=0 value=0 time=0
the msg is program_change channel=6 program=81 time=0
the msg is <meta message sequencer_specific data=(74, 65, 90, 50, 1, 0, 0, 0, 0, 0, 0, 0, 0, 0, 0, 0, 0, 0, 0, 0) time=0>
the msg is <meta message track_name name='Embellishments2' time=0>
the msg is <meta message midi_port port=0 time=0>
the msg is note_on channel=6 note=71 velocity=35 time=1920
the msg is note_on channel=6 note=59 velocity=35 time=0
the msg is note_on channel=6 note=59 velocity=0 time=419
the msg is note_on channel=6 note=71 velocity=0 time=0
the msg is note_on channel=6 note=59 velocity=35 time=1
the msg is note_on channel=6 note=71 velocity=35 time=0
the msg is note_on channel=6 note=59 velocity=0 time=59
the msg is note_on channel=6 note=71 velocity=0 time=0
the msg is note_on channel=6 note=58 velocity=35 time=1
the msg is note_on channel=6 note=70 velocity=35 time=0
the msg is note_on channel=6 note=70 velocity=0 time=419
the msg is note_on channel=6 note=58 velocity=0 time=0
the msg is note_on channel=6 note=70 velocity=35 time=1
the msg is note_on channel=6 note=58 velocity=35 time=0
the msg is note_on channel=6 note=58 velocity=0 time=59
the msg is note_on channel=6 note=70 velocity=0 time=0
the msg is note_on channel=6 note=66 velocity=35 time=1
the msg is note_on channel=6 note=54 velocity=35 time=0
the msg is note_on channel=6 note=54 velocity=0 time=419
the msg is note_on channel=6 note=66 velocity=0 time=0
the msg is note_on channel=6 note=66 velocity=35 time=1
the msg is note_on channel=6 note=54 velocity=35 time=0
the msg is note_on channel=6 note=54 velocity=0 time=59
the msg is note_on channel=6 note=66 velocity=0 time=0
the msg is note_on channel=6 note=68 velocity=35 time=1
the msg is note_on channel=6 note=56 velocity=35 time=0
the msg is note_on channel=6 note=68 velocity=0 time=239
the msg is note_on channel=6 note=56 velocity=0 time=0
the msg is note_on channel=6 note=64 velocity=35 time=1
the msg is note_on channel=6 note=52 velocity=35 time=0
the msg is note_on channel=6 note=52 velocity=0 time=239
the msg is note_on channel=6 note=64 velocity=0 time=0
the msg is note_on channel=6 note=71 velocity=35 time=1
the msg is note_on channel=6 note=59 velocity=35 time=0
the msg is note_on channel=6 note=59 velocity=0 time=419
the msg is note_on channel=6 note=71 velocity=0 time=0
the msg is note_on channel=6 note=71 velocity=35 time=1
the msg is note_on channel=6 note=59 velocity=35 time=0
the msg is note_on channel=6 note=59 velocity=0 time=59
the msg is note_on channel=6 note=71 velocity=0 time=0
the msg is note_on channel=6 note=70 velocity=35 time=1
the msg is note_on channel=6 note=58 velocity=35 time=0
the msg is note_on channel=6 note=58 velocity=0 time=419
the msg is note_on channel=6 note=70 velocity=0 time=0
the msg is note_on channel=6 note=70 velocity=35 time=1
the msg is note_on channel=6 note=58 velocity=35 time=0
the msg is note_on channel=6 note=58 velocity=0 time=59
the msg is note_on channel=6 note=70 velocity=0 time=0
the msg is note_on channel=6 note=66 velocity=35 time=1
the msg is note_on channel=6 note=54 velocity=35 time=0
the msg is note_on channel=6 note=66 velocity=0 time=419
the msg is note_on channel=6 note=54 velocity=0 time=0
the msg is note_on channel=6 note=54 velocity=35 time=1
the msg is note_on channel=6 note=66 velocity=35 time=0
the msg is note_on channel=6 note=66 velocity=0 time=59
the msg is note_on channel=6 note=54 velocity=0 time=0
the msg is note_on channel=6 note=68 velocity=35 time=1
the msg is note_on channel=6 note=56 velocity=35 time=0
the msg is note_on channel=6 note=68 velocity=0 time=239
the msg is note_on channel=6 note=56 velocity=0 time=0
the msg is note_on channel=6 note=70 velocity=35 time=1
the msg is note_on channel=6 note=58 velocity=35 time=0
the msg is note_on channel=6 note=70 velocity=0 time=239
the msg is note_on channel=6 note=58 velocity=0 time=0
the msg is note_on channel=6 note=52 velocity=35 time=1
the msg is note_on channel=6 note=64 velocity=35 time=0
the msg is note_on channel=6 note=64 velocity=0 time=959
the msg is note_on channel=6 note=52 velocity=0 time=0
the msg is note_on channel=6 note=59 velocity=35 time=11521
the msg is note_on channel=6 note=71 velocity=35 time=0
the msg is note_on channel=6 note=59 velocity=0 time=419
the msg is note_on channel=6 note=71 velocity=0 time=0
the msg is note_on channel=6 note=59 velocity=35 time=1
the msg is note_on channel=6 note=71 velocity=35 time=0
the msg is note_on channel=6 note=71 velocity=0 time=59
the msg is note_on channel=6 note=59 velocity=0 time=0
the msg is note_on channel=6 note=70 velocity=35 time=1
the msg is note_on channel=6 note=58 velocity=35 time=0
the msg is note_on channel=6 note=70 velocity=0 time=419
the msg is note_on channel=6 note=58 velocity=0 time=0
the msg is note_on channel=6 note=70 velocity=35 time=1
the msg is note_on channel=6 note=58 velocity=35 time=0
the msg is note_on channel=6 note=58 velocity=0 time=59
the msg is note_on channel=6 note=70 velocity=0 time=0
the msg is note_on channel=6 note=66 velocity=35 time=1
the msg is note_on channel=6 note=54 velocity=35 time=0
the msg is note_on channel=6 note=54 velocity=0 time=419
the msg is note_on channel=6 note=66 velocity=0 time=0
the msg is note_on channel=6 note=66 velocity=35 time=1
the msg is note_on channel=6 note=54 velocity=35 time=0
the msg is note_on channel=6 note=54 velocity=0 time=59
the msg is note_on channel=6 note=66 velocity=0 time=0
the msg is note_on channel=6 note=56 velocity=35 time=1
the msg is note_on channel=6 note=68 velocity=35 time=0
the msg is note_on channel=6 note=68 velocity=0 time=239
the msg is note_on channel=6 note=56 velocity=0 time=0
the msg is note_on channel=6 note=52 velocity=35 time=1
the msg is note_on channel=6 note=64 velocity=35 time=0
the msg is note_on channel=6 note=52 velocity=0 time=239
the msg is note_on channel=6 note=64 velocity=0 time=0
the msg is note_on channel=6 note=71 velocity=35 time=1
the msg is note_on channel=6 note=59 velocity=35 time=0
the msg is note_on channel=6 note=59 velocity=0 time=419
the msg is note_on channel=6 note=71 velocity=0 time=0
the msg is note_on channel=6 note=71 velocity=35 time=1
the msg is note_on channel=6 note=59 velocity=35 time=0
the msg is note_on channel=6 note=59 velocity=0 time=59
the msg is note_on channel=6 note=71 velocity=0 time=0
the msg is note_on channel=6 note=58 velocity=35 time=1
the msg is note_on channel=6 note=70 velocity=35 time=0
the msg is note_on channel=6 note=70 velocity=0 time=419
the msg is note_on channel=6 note=58 velocity=0 time=0
the msg is note_on channel=6 note=58 velocity=35 time=1
the msg is note_on channel=6 note=70 velocity=35 time=0
the msg is note_on channel=6 note=58 velocity=0 time=59
the msg is note_on channel=6 note=70 velocity=0 time=0
the msg is note_on channel=6 note=66 velocity=35 time=1
the msg is note_on channel=6 note=54 velocity=35 time=0
the msg is note_on channel=6 note=54 velocity=0 time=419
the msg is note_on channel=6 note=66 velocity=0 time=0
the msg is note_on channel=6 note=66 velocity=35 time=1
the msg is note_on channel=6 note=54 velocity=35 time=0
the msg is note_on channel=6 note=66 velocity=0 time=59
the msg is note_on channel=6 note=54 velocity=0 time=0
the msg is note_on channel=6 note=68 velocity=35 time=1
the msg is note_on channel=6 note=56 velocity=35 time=0
the msg is note_on channel=6 note=68 velocity=0 time=239
the msg is note_on channel=6 note=56 velocity=0 time=0
the msg is note_on channel=6 note=64 velocity=35 time=1
the msg is note_on channel=6 note=52 velocity=35 time=0
the msg is note_on channel=6 note=64 velocity=0 time=239
the msg is note_on channel=6 note=52 velocity=0 time=0
the msg is note_on channel=6 note=71 velocity=35 time=1
the msg is note_on channel=6 note=59 velocity=35 time=0
the msg is note_on channel=6 note=71 velocity=0 time=419
the msg is note_on channel=6 note=59 velocity=0 time=0
the msg is note_on channel=6 note=71 velocity=35 time=1
the msg is note_on channel=6 note=59 velocity=35 time=0
the msg is note_on channel=6 note=71 velocity=0 time=59
the msg is note_on channel=6 note=59 velocity=0 time=0
the msg is note_on channel=6 note=70 velocity=35 time=1
the msg is note_on channel=6 note=58 velocity=35 time=0
the msg is note_on channel=6 note=70 velocity=0 time=419
the msg is note_on channel=6 note=58 velocity=0 time=0
the msg is note_on channel=6 note=70 velocity=35 time=1
the msg is note_on channel=6 note=58 velocity=35 time=0
the msg is note_on channel=6 note=70 velocity=0 time=59
the msg is note_on channel=6 note=58 velocity=0 time=0
the msg is note_on channel=6 note=54 velocity=35 time=1
the msg is note_on channel=6 note=66 velocity=35 time=0
the msg is note_on channel=6 note=66 velocity=0 time=419
the msg is note_on channel=6 note=54 velocity=0 time=0
the msg is note_on channel=6 note=54 velocity=35 time=1
the msg is note_on channel=6 note=66 velocity=35 time=0
the msg is note_on channel=6 note=54 velocity=0 time=59
the msg is note_on channel=6 note=66 velocity=0 time=0
the msg is note_on channel=6 note=56 velocity=35 time=1
the msg is note_on channel=6 note=68 velocity=35 time=0
the msg is note_on channel=6 note=56 velocity=0 time=239
the msg is note_on channel=6 note=68 velocity=0 time=0
the msg is note_on channel=6 note=70 velocity=35 time=1
the msg is note_on channel=6 note=58 velocity=35 time=0
the msg is note_on channel=6 note=70 velocity=0 time=239
the msg is note_on channel=6 note=58 velocity=0 time=0
the msg is note_on channel=6 note=52 velocity=35 time=1
the msg is note_on channel=6 note=64 velocity=35 time=0
the msg is note_on channel=6 note=52 velocity=0 time=959
the msg is note_on channel=6 note=64 velocity=0 time=0
the msg is note_on channel=6 note=71 velocity=35 time=11521
the msg is note_on channel=6 note=59 velocity=35 time=0
the msg is note_on channel=6 note=71 velocity=0 time=419
the msg is note_on channel=6 note=59 velocity=0 time=0
the msg is note_on channel=6 note=59 velocity=35 time=1
the msg is note_on channel=6 note=71 velocity=35 time=0
the msg is note_on channel=6 note=71 velocity=0 time=59
the msg is note_on channel=6 note=59 velocity=0 time=0
the msg is note_on channel=6 note=58 velocity=35 time=1
the msg is note_on channel=6 note=70 velocity=35 time=0
the msg is note_on channel=6 note=70 velocity=0 time=419
the msg is note_on channel=6 note=58 velocity=0 time=0
the msg is note_on channel=6 note=58 velocity=35 time=1
the msg is note_on channel=6 note=70 velocity=35 time=0
the msg is note_on channel=6 note=70 velocity=0 time=59
the msg is note_on channel=6 note=58 velocity=0 time=0
the msg is note_on channel=6 note=66 velocity=35 time=1
the msg is note_on channel=6 note=54 velocity=35 time=0
the msg is note_on channel=6 note=54 velocity=0 time=419
the msg is note_on channel=6 note=66 velocity=0 time=0
the msg is note_on channel=6 note=66 velocity=35 time=1
the msg is note_on channel=6 note=54 velocity=35 time=0
the msg is note_on channel=6 note=54 velocity=0 time=59
the msg is note_on channel=6 note=66 velocity=0 time=0
the msg is note_on channel=6 note=68 velocity=35 time=1
the msg is note_on channel=6 note=56 velocity=35 time=0
the msg is control_change channel=6 control=11 value=127 time=0
the msg is control_change channel=6 control=11 value=126 time=16
the msg is control_change channel=6 control=11 value=125 time=16
the msg is control_change channel=6 control=11 value=124 time=8
the msg is control_change channel=6 control=11 value=123 time=8
the msg is control_change channel=6 control=11 value=122 time=16
the msg is control_change channel=6 control=11 value=121 time=8
the msg is control_change channel=6 control=11 value=120 time=16
the msg is control_change channel=6 control=11 value=119 time=32
the msg is control_change channel=6 control=11 value=118 time=16
the msg is control_change channel=6 control=11 value=117 time=40
the msg is control_change channel=6 control=11 value=116 time=40
the msg is note_on channel=6 note=68 velocity=0 time=23
the msg is note_on channel=6 note=56 velocity=0 time=0
the msg is note_on channel=6 note=52 velocity=35 time=1
the msg is note_on channel=6 note=64 velocity=35 time=0
the msg is control_change channel=6 control=11 value=115 time=24
the msg is control_change channel=6 control=11 value=114 time=8
the msg is control_change channel=6 control=11 value=113 time=8
the msg is control_change channel=6 control=11 value=112 time=16
the msg is control_change channel=6 control=11 value=110 time=8
the msg is control_change channel=6 control=11 value=109 time=8
the msg is control_change channel=6 control=11 value=108 time=16
the msg is control_change channel=6 control=11 value=107 time=8
the msg is control_change channel=6 control=11 value=106 time=32
the msg is control_change channel=6 control=11 value=105 time=8
the msg is control_change channel=6 control=11 value=104 time=8
the msg is control_change channel=6 control=11 value=103 time=32
the msg is control_change channel=6 control=11 value=102 time=8
the msg is control_change channel=6 control=11 value=101 time=8
the msg is control_change channel=6 control=11 value=100 time=8
the msg is control_change channel=6 control=11 value=99 time=16
the msg is control_change channel=6 control=11 value=98 time=8
the msg is note_on channel=6 note=64 velocity=0 time=15
the msg is note_on channel=6 note=52 velocity=0 time=0
the msg is control_change channel=6 control=11 value=97 time=1
the msg is note_on channel=6 note=71 velocity=35 time=0
the msg is note_on channel=6 note=59 velocity=35 time=0
the msg is control_change channel=6 control=11 value=96 time=8
the msg is control_change channel=6 control=11 value=95 time=8
the msg is control_change channel=6 control=11 value=94 time=16
the msg is control_change channel=6 control=11 value=93 time=8
the msg is control_change channel=6 control=11 value=92 time=24
the msg is control_change channel=6 control=11 value=91 time=8
the msg is control_change channel=6 control=11 value=90 time=56
the msg is control_change channel=6 control=11 value=89 time=48
the msg is control_change channel=6 control=11 value=88 time=16
the msg is control_change channel=6 control=11 value=87 time=24
the msg is control_change channel=6 control=11 value=86 time=16
the msg is control_change channel=6 control=11 value=85 time=8
the msg is control_change channel=6 control=11 value=84 time=16
the msg is control_change channel=6 control=11 value=83 time=16
the msg is control_change channel=6 control=11 value=82 time=16
the msg is control_change channel=6 control=11 value=81 time=8
the msg is control_change channel=6 control=11 value=80 time=24
the msg is control_change channel=6 control=11 value=79 time=16
the msg is control_change channel=6 control=11 value=78 time=24
the msg is control_change channel=6 control=11 value=77 time=32
the msg is control_change channel=6 control=11 value=76 time=16
the msg is note_on channel=6 note=59 velocity=0 time=11
the msg is note_on channel=6 note=71 velocity=0 time=0
the msg is note_on channel=6 note=59 velocity=35 time=1
the msg is note_on channel=6 note=71 velocity=35 time=0
the msg is control_change channel=6 control=11 value=75 time=20
the msg is note_on channel=6 note=59 velocity=0 time=39
the msg is note_on channel=6 note=71 velocity=0 time=0
the msg is note_on channel=6 note=58 velocity=35 time=1
the msg is note_on channel=6 note=70 velocity=35 time=0
the msg is control_change channel=6 control=11 value=74 time=0
the msg is control_change channel=6 control=11 value=73 time=8
the msg is control_change channel=6 control=11 value=72 time=16
the msg is control_change channel=6 control=11 value=71 time=8
the msg is control_change channel=6 control=11 value=70 time=8
the msg is control_change channel=6 control=11 value=69 time=8
the msg is control_change channel=6 control=11 value=68 time=16
the msg is control_change channel=6 control=11 value=67 time=8
the msg is control_change channel=6 control=11 value=66 time=8
the msg is control_change channel=6 control=11 value=65 time=16
the msg is control_change channel=6 control=11 value=64 time=8
the msg is control_change channel=6 control=11 value=63 time=8
the msg is control_change channel=6 control=11 value=62 time=8
the msg is control_change channel=6 control=11 value=61 time=8
the msg is control_change channel=6 control=11 value=60 time=8
the msg is control_change channel=6 control=11 value=59 time=8
the msg is control_change channel=6 control=11 value=58 time=8
the msg is control_change channel=6 control=11 value=57 time=24
the msg is control_change channel=6 control=11 value=56 time=8
the msg is control_change channel=6 control=11 value=55 time=16
the msg is control_change channel=6 control=11 value=54 time=16
the msg is control_change channel=6 control=11 value=53 time=40
the msg is control_change channel=6 control=11 value=52 time=32
the msg is control_change channel=6 control=11 value=51 time=8
the msg is control_change channel=6 control=11 value=50 time=16
the msg is control_change channel=6 control=11 value=49 time=16
the msg is control_change channel=6 control=11 value=48 time=16
the msg is control_change channel=6 control=11 value=47 time=8
the msg is control_change channel=6 control=11 value=45 time=16
the msg is control_change channel=6 control=11 value=44 time=16
the msg is control_change channel=6 control=11 value=43 time=8
the msg is control_change channel=6 control=11 value=42 time=16
the msg is control_change channel=6 control=11 value=41 time=8
the msg is note_on channel=6 note=70 velocity=0 time=3
the msg is note_on channel=6 note=58 velocity=0 time=0
the msg is note_on channel=6 note=58 velocity=35 time=1
the msg is note_on channel=6 note=70 velocity=35 time=0
the msg is control_change channel=6 control=11 value=40 time=12
the msg is control_change channel=6 control=11 value=39 time=16
the msg is control_change channel=6 control=11 value=38 time=8
the msg is note_on channel=6 note=58 velocity=0 time=23
the msg is note_on channel=6 note=70 velocity=0 time=0
the msg is note_on channel=6 note=54 velocity=35 time=1
the msg is note_on channel=6 note=66 velocity=35 time=0
the msg is control_change channel=6 control=11 value=37 time=0
the msg is control_change channel=6 control=11 value=36 time=24
the msg is control_change channel=6 control=11 value=35 time=16
the msg is control_change channel=6 control=11 value=34 time=16
the msg is control_change channel=6 control=11 value=33 time=16
the msg is control_change channel=6 control=11 value=32 time=24
the msg is control_change channel=6 control=11 value=31 time=32
the msg is control_change channel=6 control=11 value=30 time=24
the msg is control_change channel=6 control=11 value=29 time=40
the msg is control_change channel=6 control=11 value=28 time=24
the msg is control_change channel=6 control=11 value=27 time=16
the msg is control_change channel=6 control=11 value=26 time=40
the msg is control_change channel=6 control=11 value=25 time=8
the msg is control_change channel=6 control=11 value=24 time=16
the msg is control_change channel=6 control=11 value=23 time=16
the msg is control_change channel=6 control=11 value=22 time=16
the msg is control_change channel=6 control=11 value=21 time=8
the msg is control_change channel=6 control=11 value=20 time=8
the msg is control_change channel=6 control=11 value=19 time=8
the msg is control_change channel=6 control=11 value=18 time=8
the msg is control_change channel=6 control=11 value=17 time=8
the msg is control_change channel=6 control=11 value=16 time=8
the msg is control_change channel=6 control=11 value=15 time=24
the msg is control_change channel=6 control=11 value=14 time=8
the msg is control_change channel=6 control=11 value=13 time=8
the msg is note_on channel=6 note=54 velocity=0 time=3
the msg is note_on channel=6 note=66 velocity=0 time=0
the msg is note_on channel=6 note=66 velocity=35 time=1
the msg is note_on channel=6 note=54 velocity=35 time=0
the msg is control_change channel=6 control=11 value=12 time=12
the msg is control_change channel=6 control=11 value=11 time=8
the msg is control_change channel=6 control=11 value=10 time=24
the msg is note_on channel=6 note=54 velocity=0 time=15
the msg is note_on channel=6 note=66 velocity=0 time=0
the msg is control_change channel=6 control=11 value=9 time=1
the msg is note_on channel=6 note=68 velocity=35 time=0
the msg is note_on channel=6 note=56 velocity=35 time=0
the msg is control_change channel=6 control=11 value=8 time=16
the msg is control_change channel=6 control=11 value=7 time=16
the msg is control_change channel=6 control=11 value=6 time=16
the msg is control_change channel=6 control=11 value=5 time=16
the msg is control_change channel=6 control=11 value=4 time=8
the msg is control_change channel=6 control=11 value=3 time=16
the msg is control_change channel=6 control=11 value=2 time=16
the msg is control_change channel=6 control=11 value=1 time=8
the msg is control_change channel=6 control=11 value=0 time=16
the msg is note_on channel=6 note=56 velocity=0 time=111
the msg is note_on channel=6 note=68 velocity=0 time=0
the msg is <meta message end_of_track time=0>
the msg is control_change channel=7 control=0 value=0 time=0
the msg is program_change channel=7 program=29 time=0
the msg is <meta message sequencer_specific data=(74, 65, 90, 50, 1, 0, 0, 0, 0, 0, 0, 0, 0, 0, 0, 0, 0, 0, 0, 0) time=0>
the msg is <meta message midi_port port=0 time=0>
the msg is <meta message track_name name='melody (extra)' time=0>
the msg is control_change channel=7 control=11 value=127 time=12472
the msg is note_on channel=7 note=61 velocity=127 time=8
the msg is control_change channel=7 control=11 value=124 time=16
the msg is control_change channel=7 control=11 value=123 time=8
the msg is control_change channel=7 control=11 value=121 time=8
the msg is control_change channel=7 control=11 value=120 time=8
the msg is control_change channel=7 control=11 value=118 time=8
the msg is control_change channel=7 control=11 value=117 time=64
the msg is control_change channel=7 control=11 value=115 time=8
the msg is control_change channel=7 control=11 value=114 time=16
the msg is control_change channel=7 control=11 value=113 time=8
the msg is control_change channel=7 control=11 value=111 time=8
the msg is control_change channel=7 control=11 value=110 time=8
the msg is control_change channel=7 control=11 value=108 time=24
the msg is control_change channel=7 control=11 value=107 time=8
the msg is control_change channel=7 control=11 value=105 time=8
the msg is control_change channel=7 control=11 value=104 time=32
the msg is control_change channel=7 control=11 value=102 time=24
the msg is control_change channel=7 control=11 value=101 time=32
the msg is control_change channel=7 control=11 value=100 time=16
the msg is control_change channel=7 control=11 value=98 time=32
the msg is control_change channel=7 control=11 value=97 time=8
the msg is control_change channel=7 control=11 value=95 time=16
the msg is control_change channel=7 control=11 value=94 time=24
the msg is control_change channel=7 control=11 value=92 time=8
the msg is control_change channel=7 control=11 value=91 time=24
the msg is control_change channel=7 control=11 value=89 time=24
the msg is control_change channel=7 control=11 value=88 time=24
the msg is control_change channel=7 control=11 value=87 time=24
the msg is control_change channel=7 control=11 value=85 time=16
the msg is control_change channel=7 control=11 value=84 time=8
the msg is control_change channel=7 control=11 value=82 time=40
the msg is control_change channel=7 control=11 value=81 time=8
the msg is control_change channel=7 control=11 value=79 time=40
the msg is control_change channel=7 control=11 value=78 time=16
the msg is control_change channel=7 control=11 value=76 time=8
the msg is control_change channel=7 control=11 value=75 time=40
the msg is control_change channel=7 control=11 value=74 time=16
the msg is control_change channel=7 control=11 value=72 time=16
the msg is control_change channel=7 control=11 value=71 time=32
the msg is control_change channel=7 control=11 value=69 time=16
the msg is control_change channel=7 control=11 value=68 time=24
the msg is control_change channel=7 control=11 value=66 time=40
the msg is control_change channel=7 control=11 value=65 time=8
the msg is control_change channel=7 control=11 value=64 time=24
the msg is control_change channel=7 control=11 value=62 time=8
the msg is control_change channel=7 control=11 value=61 time=16
the msg is control_change channel=7 control=11 value=59 time=8
the msg is control_change channel=7 control=11 value=58 time=16
the msg is control_change channel=7 control=11 value=56 time=8
the msg is control_change channel=7 control=11 value=55 time=16
the msg is control_change channel=7 control=11 value=53 time=40
the msg is note_on channel=7 note=61 velocity=0 time=7
the msg is control_change channel=7 control=11 value=52 time=9
the msg is control_change channel=7 control=11 value=51 time=24
the msg is control_change channel=7 control=11 value=0 time=8
the msg is control_change channel=7 control=11 value=127 time=17224
the msg is note_on channel=7 note=61 velocity=127 time=16
the msg is control_change channel=7 control=11 value=126 time=0
the msg is control_change channel=7 control=11 value=124 time=8
the msg is control_change channel=7 control=11 value=123 time=8
the msg is control_change channel=7 control=11 value=121 time=16
the msg is control_change channel=7 control=11 value=120 time=24
the msg is control_change channel=7 control=11 value=118 time=48
the msg is control_change channel=7 control=11 value=117 time=24
the msg is control_change channel=7 control=11 value=115 time=16
the msg is control_change channel=7 control=11 value=114 time=24
the msg is control_change channel=7 control=11 value=113 time=8
the msg is control_change channel=7 control=11 value=111 time=16
the msg is control_change channel=7 control=11 value=110 time=8
the msg is control_change channel=7 control=11 value=108 time=8
the msg is control_change channel=7 control=11 value=107 time=8
the msg is control_change channel=7 control=11 value=105 time=24
the msg is control_change channel=7 control=11 value=104 time=8
the msg is control_change channel=7 control=11 value=102 time=24
the msg is control_change channel=7 control=11 value=101 time=16
the msg is control_change channel=7 control=11 value=100 time=8
the msg is control_change channel=7 control=11 value=98 time=24
the msg is control_change channel=7 control=11 value=97 time=16
the msg is control_change channel=7 control=11 value=95 time=24
the msg is control_change channel=7 control=11 value=94 time=32
the msg is control_change channel=7 control=11 value=92 time=16
the msg is control_change channel=7 control=11 value=91 time=16
the msg is control_change channel=7 control=11 value=89 time=16
the msg is control_change channel=7 control=11 value=88 time=24
the msg is control_change channel=7 control=11 value=87 time=8
the msg is control_change channel=7 control=11 value=85 time=8
the msg is control_change channel=7 control=11 value=84 time=16
the msg is control_change channel=7 control=11 value=82 time=24
the msg is control_change channel=7 control=11 value=81 time=24
the msg is control_change channel=7 control=11 value=79 time=24
the msg is control_change channel=7 control=11 value=78 time=96
the msg is control_change channel=7 control=11 value=76 time=8
the msg is control_change channel=7 control=11 value=75 time=24
the msg is control_change channel=7 control=11 value=74 time=8
the msg is control_change channel=7 control=11 value=72 time=16
the msg is control_change channel=7 control=11 value=71 time=24
the msg is control_change channel=7 control=11 value=69 time=16
the msg is control_change channel=7 control=11 value=68 time=8
the msg is control_change channel=7 control=11 value=66 time=24
the msg is control_change channel=7 control=11 value=65 time=8
the msg is control_change channel=7 control=11 value=64 time=32
the msg is control_change channel=7 control=11 value=62 time=16
the msg is control_change channel=7 control=11 value=61 time=16
the msg is control_change channel=7 control=11 value=59 time=16
the msg is control_change channel=7 control=11 value=58 time=16
the msg is control_change channel=7 control=11 value=56 time=8
the msg is control_change channel=7 control=11 value=55 time=24
the msg is control_change channel=7 control=11 value=53 time=24
the msg is note_on channel=7 note=61 velocity=0 time=7
the msg is control_change channel=7 control=11 value=0 time=33
the msg is <meta message end_of_track time=0>
the msg is control_change channel=8 control=0 value=0 time=0
the msg is program_change channel=8 program=34 time=0
the msg is <meta message sequencer_specific data=(74, 65, 90, 50, 1, 0, 0, 0, 0, 0, 0, 0, 0, 0, 0, 0, 0, 0, 0, 0) time=0>
the msg is <meta message midi_port port=0 time=0>
the msg is note_on channel=8 note=37 velocity=120 time=0
the msg is <meta message track_name name='Bass (picked)' time=0>
the msg is note_on channel=8 note=37 velocity=0 time=29
the msg is note_on channel=8 note=37 velocity=120 time=31
the msg is note_on channel=8 note=37 velocity=0 time=29
the msg is note_on channel=8 note=37 velocity=120 time=31
the msg is note_on channel=8 note=37 velocity=0 time=59
the msg is note_on channel=8 note=35 velocity=120 time=31
the msg is note_on channel=8 note=35 velocity=0 time=29
the msg is note_on channel=8 note=35 velocity=120 time=31
the msg is note_on channel=8 note=35 velocity=0 time=29
the msg is note_on channel=8 note=37 velocity=120 time=1
the msg is note_on channel=8 note=37 velocity=0 time=59
the msg is note_on channel=8 note=30 velocity=120 time=1
the msg is note_on channel=8 note=30 velocity=0 time=59
the msg is note_on channel=8 note=28 velocity=120 time=1
the msg is note_on channel=8 note=28 velocity=0 time=59
the msg is note_on channel=8 note=37 velocity=120 time=1
the msg is note_on channel=8 note=37 velocity=0 time=29
the msg is note_on channel=8 note=37 velocity=120 time=31
the msg is note_on channel=8 note=37 velocity=0 time=29
the msg is note_on channel=8 note=37 velocity=120 time=31
the msg is note_on channel=8 note=37 velocity=0 time=59
the msg is note_on channel=8 note=35 velocity=120 time=31
the msg is note_on channel=8 note=35 velocity=0 time=29
the msg is note_on channel=8 note=35 velocity=120 time=31
the msg is note_on channel=8 note=35 velocity=0 time=29
the msg is note_on channel=8 note=37 velocity=120 time=1
the msg is note_on channel=8 note=37 velocity=0 time=59
the msg is note_on channel=8 note=35 velocity=120 time=1
the msg is note_on channel=8 note=35 velocity=0 time=59
the msg is note_on channel=8 note=32 velocity=120 time=1
the msg is note_on channel=8 note=32 velocity=0 time=59
the msg is note_on channel=8 note=37 velocity=120 time=1
the msg is note_on channel=8 note=37 velocity=0 time=29
the msg is note_on channel=8 note=37 velocity=120 time=31
the msg is note_on channel=8 note=37 velocity=0 time=29
the msg is note_on channel=8 note=37 velocity=120 time=31
the msg is note_on channel=8 note=37 velocity=0 time=59
the msg is note_on channel=8 note=35 velocity=120 time=31
the msg is note_on channel=8 note=35 velocity=0 time=29
the msg is note_on channel=8 note=35 velocity=120 time=31
the msg is note_on channel=8 note=35 velocity=0 time=29
the msg is note_on channel=8 note=37 velocity=120 time=1
the msg is note_on channel=8 note=37 velocity=0 time=59
the msg is note_on channel=8 note=30 velocity=120 time=1
the msg is note_on channel=8 note=30 velocity=0 time=59
the msg is note_on channel=8 note=28 velocity=120 time=1
the msg is note_on channel=8 note=28 velocity=0 time=59
the msg is note_on channel=8 note=37 velocity=120 time=1
the msg is note_on channel=8 note=37 velocity=0 time=29
the msg is note_on channel=8 note=37 velocity=120 time=31
the msg is note_on channel=8 note=37 velocity=0 time=29
the msg is note_on channel=8 note=37 velocity=120 time=31
the msg is note_on channel=8 note=37 velocity=0 time=59
the msg is note_on channel=8 note=35 velocity=120 time=1
the msg is note_on channel=8 note=35 velocity=0 time=29
the msg is note_on channel=8 note=37 velocity=120 time=1
the msg is note_on channel=8 note=37 velocity=0 time=29
the msg is note_on channel=8 note=40 velocity=120 time=1
the msg is note_on channel=8 note=40 velocity=0 time=29
the msg is note_on channel=8 note=40 velocity=120 time=31
the msg is note_on channel=8 note=40 velocity=0 time=29
the msg is note_on channel=8 note=42 velocity=120 time=31
the msg is note_on channel=8 note=42 velocity=0 time=29
the msg is note_on channel=8 note=42 velocity=120 time=31
the msg is note_on channel=8 note=42 velocity=0 time=29
the msg is note_on channel=8 note=37 velocity=120 time=31
the msg is note_on channel=8 note=37 velocity=0 time=29
the msg is note_on channel=8 note=37 velocity=120 time=31
the msg is note_on channel=8 note=37 velocity=0 time=29
the msg is note_on channel=8 note=37 velocity=120 time=31
the msg is note_on channel=8 note=37 velocity=0 time=59
the msg is note_on channel=8 note=35 velocity=120 time=31
the msg is note_on channel=8 note=35 velocity=0 time=29
the msg is note_on channel=8 note=35 velocity=120 time=31
the msg is note_on channel=8 note=35 velocity=0 time=29
the msg is note_on channel=8 note=37 velocity=120 time=1
the msg is note_on channel=8 note=37 velocity=0 time=59
the msg is note_on channel=8 note=30 velocity=120 time=1
the msg is note_on channel=8 note=30 velocity=0 time=59
the msg is note_on channel=8 note=28 velocity=120 time=1
the msg is note_on channel=8 note=28 velocity=0 time=59
the msg is note_on channel=8 note=37 velocity=120 time=1
the msg is note_on channel=8 note=37 velocity=0 time=29
the msg is note_on channel=8 note=37 velocity=120 time=31
the msg is note_on channel=8 note=37 velocity=0 time=29
the msg is note_on channel=8 note=37 velocity=120 time=31
the msg is note_on channel=8 note=37 velocity=0 time=59
the msg is note_on channel=8 note=35 velocity=120 time=31
the msg is note_on channel=8 note=35 velocity=0 time=29
the msg is note_on channel=8 note=35 velocity=120 time=31
the msg is note_on channel=8 note=35 velocity=0 time=29
the msg is note_on channel=8 note=37 velocity=120 time=1
the msg is note_on channel=8 note=37 velocity=0 time=59
the msg is note_on channel=8 note=35 velocity=120 time=1
the msg is note_on channel=8 note=35 velocity=0 time=59
the msg is note_on channel=8 note=32 velocity=120 time=1
the msg is note_on channel=8 note=32 velocity=0 time=59
the msg is note_on channel=8 note=30 velocity=120 time=1
the msg is note_on channel=8 note=30 velocity=0 time=29
the msg is note_on channel=8 note=30 velocity=120 time=31
the msg is note_on channel=8 note=30 velocity=0 time=29
the msg is note_on channel=8 note=30 velocity=120 time=31
the msg is note_on channel=8 note=30 velocity=0 time=59
the msg is note_on channel=8 note=35 velocity=120 time=1
the msg is note_on channel=8 note=35 velocity=0 time=29
the msg is note_on channel=8 note=37 velocity=120 time=1
the msg is note_on channel=8 note=37 velocity=0 time=29
the msg is note_on channel=8 note=40 velocity=120 time=1
the msg is note_on channel=8 note=40 velocity=0 time=59
the msg is note_on channel=8 note=40 velocity=120 time=1
the msg is note_on channel=8 note=40 velocity=0 time=29
the msg is note_on channel=8 note=42 velocity=120 time=1
the msg is note_on channel=8 note=42 velocity=0 time=59
the msg is note_on channel=8 note=42 velocity=120 time=1
the msg is note_on channel=8 note=42 velocity=0 time=29
the msg is note_on channel=8 note=40 velocity=120 time=1
the msg is note_on channel=8 note=40 velocity=0 time=59
the msg is note_on channel=8 note=30 velocity=120 time=1
the msg is note_on channel=8 note=30 velocity=0 time=29
the msg is note_on channel=8 note=30 velocity=120 time=31
the msg is note_on channel=8 note=30 velocity=0 time=29
the msg is note_on channel=8 note=30 velocity=120 time=31
the msg is note_on channel=8 note=30 velocity=0 time=59
the msg is note_on channel=8 note=35 velocity=120 time=1
the msg is note_on channel=8 note=35 velocity=0 time=29
the msg is note_on channel=8 note=37 velocity=120 time=1
the msg is note_on channel=8 note=37 velocity=0 time=29
the msg is note_on channel=8 note=40 velocity=120 time=1
the msg is note_on channel=8 note=40 velocity=0 time=59
the msg is note_on channel=8 note=40 velocity=120 time=1
the msg is note_on channel=8 note=40 velocity=0 time=29
the msg is note_on channel=8 note=37 velocity=120 time=1
the msg is note_on channel=8 note=37 velocity=0 time=59
the msg is note_on channel=8 note=37 velocity=120 time=1
the msg is note_on channel=8 note=37 velocity=0 time=29
the msg is note_on channel=8 note=35 velocity=120 time=1
the msg is note_on channel=8 note=35 velocity=0 time=59
the msg is note_on channel=8 note=37 velocity=120 time=1
the msg is note_on channel=8 note=37 velocity=0 time=29
the msg is note_on channel=8 note=37 velocity=120 time=31
the msg is note_on channel=8 note=37 velocity=0 time=29
the msg is note_on channel=8 note=37 velocity=120 time=31
the msg is note_on channel=8 note=37 velocity=0 time=59
the msg is note_on channel=8 note=35 velocity=120 time=31
the msg is note_on channel=8 note=35 velocity=0 time=29
the msg is note_on channel=8 note=35 velocity=120 time=31
the msg is note_on channel=8 note=35 velocity=0 time=29
the msg is note_on channel=8 note=37 velocity=120 time=1
the msg is note_on channel=8 note=37 velocity=0 time=59
the msg is note_on channel=8 note=30 velocity=120 time=1
the msg is note_on channel=8 note=30 velocity=0 time=59
the msg is note_on channel=8 note=28 velocity=120 time=1
the msg is note_on channel=8 note=28 velocity=0 time=59
the msg is note_on channel=8 note=37 velocity=120 time=1
the msg is note_on channel=8 note=37 velocity=0 time=29
the msg is note_on channel=8 note=37 velocity=120 time=31
the msg is note_on channel=8 note=37 velocity=0 time=29
the msg is note_on channel=8 note=37 velocity=120 time=31
the msg is note_on channel=8 note=37 velocity=0 time=59
the msg is note_on channel=8 note=35 velocity=120 time=31
the msg is note_on channel=8 note=35 velocity=0 time=29
the msg is note_on channel=8 note=35 velocity=120 time=31
the msg is note_on channel=8 note=35 velocity=0 time=29
the msg is note_on channel=8 note=37 velocity=120 time=1
the msg is note_on channel=8 note=37 velocity=0 time=59
the msg is note_on channel=8 note=35 velocity=120 time=1
the msg is note_on channel=8 note=35 velocity=0 time=59
the msg is note_on channel=8 note=32 velocity=120 time=1
the msg is note_on channel=8 note=32 velocity=0 time=59
the msg is note_on channel=8 note=30 velocity=120 time=1
the msg is note_on channel=8 note=30 velocity=0 time=29
the msg is note_on channel=8 note=30 velocity=120 time=31
the msg is note_on channel=8 note=30 velocity=0 time=29
the msg is note_on channel=8 note=30 velocity=120 time=31
the msg is note_on channel=8 note=30 velocity=0 time=59
the msg is note_on channel=8 note=35 velocity=120 time=1
the msg is note_on channel=8 note=35 velocity=0 time=29
the msg is note_on channel=8 note=37 velocity=120 time=1
the msg is note_on channel=8 note=37 velocity=0 time=29
the msg is note_on channel=8 note=40 velocity=120 time=1
the msg is note_on channel=8 note=40 velocity=0 time=59
the msg is note_on channel=8 note=40 velocity=120 time=1
the msg is note_on channel=8 note=40 velocity=0 time=29
the msg is note_on channel=8 note=42 velocity=120 time=1
the msg is note_on channel=8 note=42 velocity=0 time=59
the msg is note_on channel=8 note=42 velocity=120 time=1
the msg is note_on channel=8 note=42 velocity=0 time=29
the msg is note_on channel=8 note=40 velocity=120 time=1
the msg is note_on channel=8 note=40 velocity=0 time=59
the msg is note_on channel=8 note=30 velocity=120 time=1
the msg is note_on channel=8 note=30 velocity=0 time=29
the msg is note_on channel=8 note=30 velocity=120 time=31
the msg is note_on channel=8 note=30 velocity=0 time=29
the msg is note_on channel=8 note=30 velocity=120 time=31
the msg is note_on channel=8 note=30 velocity=0 time=59
the msg is note_on channel=8 note=35 velocity=120 time=1
the msg is note_on channel=8 note=35 velocity=0 time=29
the msg is note_on channel=8 note=37 velocity=120 time=1
the msg is note_on channel=8 note=37 velocity=0 time=29
the msg is note_on channel=8 note=40 velocity=120 time=1
the msg is note_on channel=8 note=40 velocity=0 time=59
the msg is note_on channel=8 note=40 velocity=120 time=1
the msg is note_on channel=8 note=40 velocity=0 time=29
the msg is note_on channel=8 note=37 velocity=120 time=1
the msg is note_on channel=8 note=37 velocity=0 time=59
the msg is note_on channel=8 note=37 velocity=120 time=1
the msg is note_on channel=8 note=37 velocity=0 time=29
the msg is note_on channel=8 note=35 velocity=120 time=1
the msg is note_on channel=8 note=35 velocity=0 time=59
the msg is note_on channel=8 note=42 velocity=120 time=1
the msg is note_on channel=8 note=42 velocity=0 time=59
the msg is note_on channel=8 note=42 velocity=120 time=1
the msg is note_on channel=8 note=42 velocity=0 time=29
the msg is note_on channel=8 note=40 velocity=120 time=1
the msg is note_on channel=8 note=40 velocity=0 time=59
the msg is note_on channel=8 note=40 velocity=120 time=1
the msg is note_on channel=8 note=40 velocity=0 time=29
the msg is note_on channel=8 note=37 velocity=120 time=1
the msg is note_on channel=8 note=37 velocity=0 time=59
the msg is note_on channel=8 note=37 velocity=120 time=1
the msg is note_on channel=8 note=37 velocity=0 time=29
the msg is note_on channel=8 note=35 velocity=120 time=1
the msg is note_on channel=8 note=35 velocity=0 time=59
the msg is note_on channel=8 note=35 velocity=120 time=1
the msg is note_on channel=8 note=35 velocity=0 time=29
the msg is note_on channel=8 note=37 velocity=120 time=1
the msg is note_on channel=8 note=37 velocity=0 time=59
the msg is note_on channel=8 note=40 velocity=120 time=1
the msg is note_on channel=8 note=40 velocity=0 time=59
the msg is note_on channel=8 note=37 velocity=120 time=1
the msg is note_on channel=8 note=37 velocity=0 time=59
the msg is note_on channel=8 note=37 velocity=120 time=1
the msg is note_on channel=8 note=37 velocity=0 time=29
the msg is note_on channel=8 note=35 velocity=120 time=1
the msg is note_on channel=8 note=35 velocity=0 time=59
the msg is note_on channel=8 note=35 velocity=120 time=1
the msg is note_on channel=8 note=35 velocity=0 time=29
the msg is note_on channel=8 note=33 velocity=120 time=1
the msg is note_on channel=8 note=33 velocity=0 time=59
the msg is note_on channel=8 note=42 velocity=120 time=1
the msg is note_on channel=8 note=42 velocity=0 time=29
the msg is note_on channel=8 note=40 velocity=120 time=1
the msg is note_on channel=8 note=40 velocity=0 time=29
the msg is note_on channel=8 note=37 velocity=120 time=31
the msg is note_on channel=8 note=37 velocity=0 time=29
the msg is note_on channel=8 note=35 velocity=120 time=31
the msg is note_on channel=8 note=35 velocity=0 time=29
the msg is note_on channel=8 note=35 velocity=120 time=31
the msg is note_on channel=8 note=35 velocity=0 time=29
the msg is note_on channel=8 note=37 velocity=120 time=1
the msg is note_on channel=8 note=37 velocity=0 time=29
the msg is note_on channel=8 note=37 velocity=120 time=31
the msg is note_on channel=8 note=37 velocity=0 time=29
the msg is note_on channel=8 note=37 velocity=120 time=31
the msg is note_on channel=8 note=37 velocity=0 time=59
the msg is note_on channel=8 note=35 velocity=120 time=31
the msg is note_on channel=8 note=35 velocity=0 time=29
the msg is note_on channel=8 note=35 velocity=120 time=31
the msg is note_on channel=8 note=35 velocity=0 time=29
the msg is note_on channel=8 note=37 velocity=120 time=1
the msg is note_on channel=8 note=37 velocity=0 time=59
the msg is note_on channel=8 note=30 velocity=120 time=1
the msg is note_on channel=8 note=30 velocity=0 time=59
the msg is note_on channel=8 note=28 velocity=120 time=1
the msg is note_on channel=8 note=28 velocity=0 time=59
the msg is note_on channel=8 note=37 velocity=120 time=1
the msg is note_on channel=8 note=37 velocity=0 time=29
the msg is note_on channel=8 note=37 velocity=120 time=31
the msg is note_on channel=8 note=37 velocity=0 time=29
the msg is note_on channel=8 note=37 velocity=120 time=31
the msg is note_on channel=8 note=37 velocity=0 time=59
the msg is note_on channel=8 note=35 velocity=120 time=31
the msg is note_on channel=8 note=35 velocity=0 time=29
the msg is note_on channel=8 note=35 velocity=120 time=31
the msg is note_on channel=8 note=35 velocity=0 time=29
the msg is note_on channel=8 note=37 velocity=120 time=1
the msg is note_on channel=8 note=37 velocity=0 time=59
the msg is note_on channel=8 note=35 velocity=120 time=1
the msg is note_on channel=8 note=35 velocity=0 time=59
the msg is note_on channel=8 note=32 velocity=120 time=1
the msg is note_on channel=8 note=32 velocity=0 time=59
the msg is note_on channel=8 note=37 velocity=120 time=1
the msg is note_on channel=8 note=37 velocity=0 time=29
the msg is note_on channel=8 note=37 velocity=120 time=31
the msg is note_on channel=8 note=37 velocity=0 time=29
the msg is note_on channel=8 note=37 velocity=120 time=31
the msg is note_on channel=8 note=37 velocity=0 time=59
the msg is note_on channel=8 note=35 velocity=120 time=31
the msg is note_on channel=8 note=35 velocity=0 time=29
the msg is note_on channel=8 note=35 velocity=120 time=31
the msg is note_on channel=8 note=35 velocity=0 time=29
the msg is note_on channel=8 note=37 velocity=120 time=1
the msg is note_on channel=8 note=37 velocity=0 time=59
the msg is note_on channel=8 note=30 velocity=120 time=1
the msg is note_on channel=8 note=30 velocity=0 time=59
the msg is note_on channel=8 note=28 velocity=120 time=1
the msg is note_on channel=8 note=28 velocity=0 time=59
the msg is note_on channel=8 note=37 velocity=120 time=1
the msg is note_on channel=8 note=37 velocity=0 time=29
the msg is note_on channel=8 note=37 velocity=120 time=31
the msg is note_on channel=8 note=37 velocity=0 time=29
the msg is note_on channel=8 note=37 velocity=120 time=31
the msg is note_on channel=8 note=37 velocity=0 time=59
the msg is note_on channel=8 note=35 velocity=120 time=1
the msg is note_on channel=8 note=35 velocity=0 time=29
the msg is note_on channel=8 note=37 velocity=120 time=1
the msg is note_on channel=8 note=37 velocity=0 time=29
the msg is note_on channel=8 note=40 velocity=120 time=1
the msg is note_on channel=8 note=40 velocity=0 time=29
the msg is note_on channel=8 note=40 velocity=120 time=31
the msg is note_on channel=8 note=40 velocity=0 time=29
the msg is note_on channel=8 note=42 velocity=120 time=31
the msg is note_on channel=8 note=42 velocity=0 time=29
the msg is note_on channel=8 note=42 velocity=120 time=31
the msg is note_on channel=8 note=42 velocity=0 time=29
the msg is note_on channel=8 note=37 velocity=120 time=31
the msg is note_on channel=8 note=37 velocity=0 time=29
the msg is note_on channel=8 note=37 velocity=120 time=31
the msg is note_on channel=8 note=37 velocity=0 time=29
the msg is note_on channel=8 note=37 velocity=120 time=31
the msg is note_on channel=8 note=37 velocity=0 time=59
the msg is note_on channel=8 note=35 velocity=120 time=31
the msg is note_on channel=8 note=35 velocity=0 time=29
the msg is note_on channel=8 note=35 velocity=120 time=31
the msg is note_on channel=8 note=35 velocity=0 time=29
the msg is note_on channel=8 note=37 velocity=120 time=1
the msg is note_on channel=8 note=37 velocity=0 time=59
the msg is note_on channel=8 note=30 velocity=120 time=1
the msg is note_on channel=8 note=30 velocity=0 time=59
the msg is note_on channel=8 note=28 velocity=120 time=1
the msg is note_on channel=8 note=28 velocity=0 time=59
the msg is note_on channel=8 note=37 velocity=120 time=1
the msg is note_on channel=8 note=37 velocity=0 time=29
the msg is note_on channel=8 note=37 velocity=120 time=31
the msg is note_on channel=8 note=37 velocity=0 time=29
the msg is note_on channel=8 note=37 velocity=120 time=31
the msg is note_on channel=8 note=37 velocity=0 time=59
the msg is note_on channel=8 note=35 velocity=120 time=31
the msg is note_on channel=8 note=35 velocity=0 time=29
the msg is note_on channel=8 note=35 velocity=120 time=31
the msg is note_on channel=8 note=35 velocity=0 time=29
the msg is note_on channel=8 note=37 velocity=120 time=1
the msg is note_on channel=8 note=37 velocity=0 time=59
the msg is note_on channel=8 note=35 velocity=120 time=1
the msg is note_on channel=8 note=35 velocity=0 time=59
the msg is note_on channel=8 note=32 velocity=120 time=1
the msg is note_on channel=8 note=32 velocity=0 time=59
the msg is note_on channel=8 note=37 velocity=120 time=1
the msg is note_on channel=8 note=37 velocity=0 time=29
the msg is note_on channel=8 note=37 velocity=120 time=31
the msg is note_on channel=8 note=37 velocity=0 time=29
the msg is note_on channel=8 note=37 velocity=120 time=31
the msg is note_on channel=8 note=37 velocity=0 time=59
the msg is note_on channel=8 note=35 velocity=120 time=31
the msg is note_on channel=8 note=35 velocity=0 time=29
the msg is note_on channel=8 note=35 velocity=120 time=31
the msg is note_on channel=8 note=35 velocity=0 time=29
the msg is note_on channel=8 note=37 velocity=120 time=1
the msg is note_on channel=8 note=37 velocity=0 time=59
the msg is note_on channel=8 note=30 velocity=120 time=1
the msg is note_on channel=8 note=30 velocity=0 time=59
the msg is note_on channel=8 note=28 velocity=120 time=1
the msg is note_on channel=8 note=28 velocity=0 time=59
the msg is note_on channel=8 note=37 velocity=120 time=1
the msg is note_on channel=8 note=37 velocity=0 time=29
the msg is note_on channel=8 note=37 velocity=120 time=31
the msg is note_on channel=8 note=37 velocity=0 time=29
the msg is note_on channel=8 note=37 velocity=120 time=31
the msg is note_on channel=8 note=37 velocity=0 time=59
the msg is note_on channel=8 note=35 velocity=120 time=1
the msg is note_on channel=8 note=35 velocity=0 time=29
the msg is note_on channel=8 note=37 velocity=120 time=1
the msg is note_on channel=8 note=37 velocity=0 time=29
the msg is note_on channel=8 note=40 velocity=120 time=1
the msg is note_on channel=8 note=40 velocity=0 time=29
the msg is note_on channel=8 note=40 velocity=120 time=31
the msg is note_on channel=8 note=40 velocity=0 time=29
the msg is note_on channel=8 note=42 velocity=120 time=31
the msg is note_on channel=8 note=42 velocity=0 time=29
the msg is note_on channel=8 note=42 velocity=120 time=31
the msg is note_on channel=8 note=42 velocity=0 time=29
the msg is note_on channel=8 note=33 velocity=120 time=31
the msg is note_on channel=8 note=33 velocity=0 time=29
the msg is note_on channel=8 note=33 velocity=120 time=31
the msg is note_on channel=8 note=33 velocity=0 time=29
the msg is note_on channel=8 note=33 velocity=120 time=31
the msg is note_on channel=8 note=33 velocity=0 time=29
the msg is note_on channel=8 note=33 velocity=120 time=31
the msg is note_on channel=8 note=33 velocity=0 time=29
the msg is note_on channel=8 note=40 velocity=120 time=1
the msg is note_on channel=8 note=40 velocity=0 time=29
the msg is note_on channel=8 note=45 velocity=120 time=1
the msg is note_on channel=8 note=45 velocity=0 time=59
the msg is note_on channel=8 note=40 velocity=120 time=1
the msg is note_on channel=8 note=40 velocity=0 time=59
the msg is note_on channel=8 note=33 velocity=120 time=1
the msg is note_on channel=8 note=33 velocity=0 time=59
the msg is note_on channel=8 note=30 velocity=120 time=1
the msg is note_on channel=8 note=30 velocity=0 time=119
the msg is note_on channel=8 note=30 velocity=120 time=1
the msg is note_on channel=8 note=30 velocity=0 time=29
the msg is note_on channel=8 note=30 velocity=120 time=31
the msg is note_on channel=8 note=30 velocity=0 time=29
the msg is note_on channel=8 note=30 velocity=120 time=31
the msg is note_on channel=8 note=30 velocity=0 time=29
the msg is note_on channel=8 note=37 velocity=120 time=1
the msg is note_on channel=8 note=37 velocity=0 time=29
the msg is note_on channel=8 note=42 velocity=120 time=1
the msg is note_on channel=8 note=42 velocity=0 time=59
the msg is note_on channel=8 note=42 velocity=120 time=1
the msg is note_on channel=8 note=42 velocity=0 time=29
the msg is note_on channel=8 note=42 velocity=120 time=31
the msg is note_on channel=8 note=42 velocity=0 time=29
the msg is note_on channel=8 note=42 velocity=120 time=31
the msg is note_on channel=8 note=42 velocity=0 time=29
the msg is note_on channel=8 note=33 velocity=120 time=31
the msg is note_on channel=8 note=33 velocity=0 time=29
the msg is note_on channel=8 note=33 velocity=120 time=31
the msg is note_on channel=8 note=33 velocity=0 time=29
the msg is note_on channel=8 note=33 velocity=120 time=31
the msg is note_on channel=8 note=33 velocity=0 time=29
the msg is note_on channel=8 note=33 velocity=120 time=31
the msg is note_on channel=8 note=33 velocity=0 time=29
the msg is note_on channel=8 note=40 velocity=120 time=1
the msg is note_on channel=8 note=40 velocity=0 time=29
the msg is note_on channel=8 note=45 velocity=120 time=1
the msg is note_on channel=8 note=45 velocity=0 time=59
the msg is note_on channel=8 note=40 velocity=120 time=1
the msg is note_on channel=8 note=40 velocity=0 time=59
the msg is note_on channel=8 note=33 velocity=120 time=1
the msg is note_on channel=8 note=33 velocity=0 time=59
the msg is note_on channel=8 note=35 velocity=120 time=1
the msg is note_on channel=8 note=35 velocity=0 time=119
the msg is note_on channel=8 note=30 velocity=120 time=1
the msg is note_on channel=8 note=30 velocity=0 time=29
the msg is note_on channel=8 note=30 velocity=120 time=31
the msg is note_on channel=8 note=30 velocity=0 time=29
the msg is note_on channel=8 note=36 velocity=120 time=31
the msg is note_on channel=8 note=36 velocity=0 time=119
the msg is note_on channel=8 note=36 velocity=120 time=1
the msg is note_on channel=8 note=36 velocity=0 time=29
the msg is note_on channel=8 note=36 velocity=120 time=31
the msg is note_on channel=8 note=36 velocity=0 time=29
the msg is note_on channel=8 note=36 velocity=120 time=31
the msg is note_on channel=8 note=36 velocity=0 time=29
the msg is note_on channel=8 note=37 velocity=120 time=31
the msg is note_on channel=8 note=37 velocity=0 time=29
the msg is note_on channel=8 note=37 velocity=120 time=31
the msg is note_on channel=8 note=37 velocity=0 time=29
the msg is note_on channel=8 note=37 velocity=120 time=31
the msg is note_on channel=8 note=37 velocity=0 time=59
the msg is note_on channel=8 note=35 velocity=120 time=31
the msg is note_on channel=8 note=35 velocity=0 time=29
the msg is note_on channel=8 note=35 velocity=120 time=31
the msg is note_on channel=8 note=35 velocity=0 time=29
the msg is note_on channel=8 note=37 velocity=120 time=1
the msg is note_on channel=8 note=37 velocity=0 time=59
the msg is note_on channel=8 note=30 velocity=120 time=1
the msg is note_on channel=8 note=30 velocity=0 time=59
the msg is note_on channel=8 note=28 velocity=120 time=1
the msg is note_on channel=8 note=28 velocity=0 time=59
the msg is note_on channel=8 note=37 velocity=120 time=1
the msg is note_on channel=8 note=37 velocity=0 time=29
the msg is note_on channel=8 note=37 velocity=120 time=31
the msg is note_on channel=8 note=37 velocity=0 time=29
the msg is note_on channel=8 note=37 velocity=120 time=31
the msg is note_on channel=8 note=37 velocity=0 time=59
the msg is note_on channel=8 note=35 velocity=120 time=31
the msg is note_on channel=8 note=35 velocity=0 time=29
the msg is note_on channel=8 note=35 velocity=120 time=31
the msg is note_on channel=8 note=35 velocity=0 time=29
the msg is note_on channel=8 note=37 velocity=120 time=1
the msg is note_on channel=8 note=37 velocity=0 time=59
the msg is note_on channel=8 note=35 velocity=120 time=1
the msg is note_on channel=8 note=35 velocity=0 time=59
the msg is note_on channel=8 note=32 velocity=120 time=1
the msg is note_on channel=8 note=32 velocity=0 time=59
the msg is note_on channel=8 note=37 velocity=120 time=1
the msg is note_on channel=8 note=37 velocity=0 time=29
the msg is note_on channel=8 note=37 velocity=120 time=31
the msg is note_on channel=8 note=37 velocity=0 time=29
the msg is note_on channel=8 note=37 velocity=120 time=31
the msg is note_on channel=8 note=37 velocity=0 time=59
the msg is note_on channel=8 note=35 velocity=120 time=31
the msg is note_on channel=8 note=35 velocity=0 time=29
the msg is note_on channel=8 note=35 velocity=120 time=31
the msg is note_on channel=8 note=35 velocity=0 time=29
the msg is note_on channel=8 note=37 velocity=120 time=1
the msg is note_on channel=8 note=37 velocity=0 time=59
the msg is note_on channel=8 note=30 velocity=120 time=1
the msg is note_on channel=8 note=30 velocity=0 time=59
the msg is note_on channel=8 note=28 velocity=120 time=1
the msg is note_on channel=8 note=28 velocity=0 time=59
the msg is note_on channel=8 note=37 velocity=120 time=1
the msg is note_on channel=8 note=37 velocity=0 time=29
the msg is note_on channel=8 note=37 velocity=120 time=31
the msg is note_on channel=8 note=37 velocity=0 time=29
the msg is note_on channel=8 note=37 velocity=120 time=31
the msg is note_on channel=8 note=37 velocity=0 time=59
the msg is note_on channel=8 note=35 velocity=120 time=1
the msg is note_on channel=8 note=35 velocity=0 time=29
the msg is note_on channel=8 note=37 velocity=120 time=1
the msg is note_on channel=8 note=37 velocity=0 time=29
the msg is note_on channel=8 note=40 velocity=120 time=1
the msg is note_on channel=8 note=40 velocity=0 time=29
the msg is note_on channel=8 note=40 velocity=120 time=31
the msg is note_on channel=8 note=40 velocity=0 time=29
the msg is note_on channel=8 note=42 velocity=120 time=31
the msg is note_on channel=8 note=42 velocity=0 time=29
the msg is note_on channel=8 note=42 velocity=120 time=31
the msg is note_on channel=8 note=42 velocity=0 time=29
the msg is note_on channel=8 note=37 velocity=120 time=31
the msg is note_on channel=8 note=37 velocity=0 time=29
the msg is note_on channel=8 note=37 velocity=120 time=31
the msg is note_on channel=8 note=37 velocity=0 time=29
the msg is note_on channel=8 note=37 velocity=120 time=31
the msg is note_on channel=8 note=37 velocity=0 time=59
the msg is note_on channel=8 note=35 velocity=120 time=31
the msg is note_on channel=8 note=35 velocity=0 time=29
the msg is note_on channel=8 note=35 velocity=120 time=31
the msg is note_on channel=8 note=35 velocity=0 time=29
the msg is note_on channel=8 note=37 velocity=120 time=1
the msg is note_on channel=8 note=37 velocity=0 time=59
the msg is note_on channel=8 note=30 velocity=120 time=1
the msg is note_on channel=8 note=30 velocity=0 time=59
the msg is note_on channel=8 note=28 velocity=120 time=1
the msg is note_on channel=8 note=28 velocity=0 time=59
the msg is note_on channel=8 note=37 velocity=120 time=1
the msg is note_on channel=8 note=37 velocity=0 time=29
the msg is note_on channel=8 note=37 velocity=120 time=31
the msg is note_on channel=8 note=37 velocity=0 time=29
the msg is note_on channel=8 note=37 velocity=120 time=31
the msg is note_on channel=8 note=37 velocity=0 time=59
the msg is note_on channel=8 note=35 velocity=120 time=31
the msg is note_on channel=8 note=35 velocity=0 time=29
the msg is note_on channel=8 note=35 velocity=120 time=31
the msg is note_on channel=8 note=35 velocity=0 time=29
the msg is note_on channel=8 note=37 velocity=120 time=1
the msg is note_on channel=8 note=37 velocity=0 time=59
the msg is note_on channel=8 note=35 velocity=120 time=1
the msg is note_on channel=8 note=35 velocity=0 time=59
the msg is note_on channel=8 note=32 velocity=120 time=1
the msg is note_on channel=8 note=32 velocity=0 time=59
the msg is note_on channel=8 note=37 velocity=120 time=1
the msg is note_on channel=8 note=37 velocity=0 time=29
the msg is note_on channel=8 note=37 velocity=120 time=31
the msg is note_on channel=8 note=37 velocity=0 time=29
the msg is note_on channel=8 note=37 velocity=120 time=31
the msg is note_on channel=8 note=37 velocity=0 time=59
the msg is note_on channel=8 note=35 velocity=120 time=31
the msg is note_on channel=8 note=35 velocity=0 time=29
the msg is note_on channel=8 note=35 velocity=120 time=31
the msg is note_on channel=8 note=35 velocity=0 time=29
the msg is note_on channel=8 note=37 velocity=120 time=1
the msg is note_on channel=8 note=37 velocity=0 time=59
the msg is note_on channel=8 note=30 velocity=120 time=1
the msg is note_on channel=8 note=30 velocity=0 time=59
the msg is note_on channel=8 note=28 velocity=120 time=1
the msg is note_on channel=8 note=28 velocity=0 time=59
the msg is note_on channel=8 note=37 velocity=120 time=1
the msg is note_on channel=8 note=37 velocity=0 time=29
the msg is note_on channel=8 note=37 velocity=120 time=31
the msg is note_on channel=8 note=37 velocity=0 time=29
the msg is note_on channel=8 note=37 velocity=120 time=31
the msg is note_on channel=8 note=37 velocity=0 time=59
the msg is note_on channel=8 note=35 velocity=120 time=1
the msg is note_on channel=8 note=35 velocity=0 time=29
the msg is note_on channel=8 note=37 velocity=120 time=1
the msg is note_on channel=8 note=37 velocity=0 time=29
the msg is note_on channel=8 note=40 velocity=120 time=1
the msg is note_on channel=8 note=40 velocity=0 time=29
the msg is note_on channel=8 note=40 velocity=120 time=31
the msg is note_on channel=8 note=40 velocity=0 time=29
the msg is note_on channel=8 note=42 velocity=120 time=31
the msg is note_on channel=8 note=42 velocity=0 time=29
the msg is note_on channel=8 note=42 velocity=120 time=31
the msg is note_on channel=8 note=42 velocity=0 time=29
the msg is note_on channel=8 note=33 velocity=120 time=31
the msg is note_on channel=8 note=33 velocity=0 time=29
the msg is note_on channel=8 note=33 velocity=120 time=31
the msg is note_on channel=8 note=33 velocity=0 time=29
the msg is note_on channel=8 note=33 velocity=120 time=31
the msg is note_on channel=8 note=33 velocity=0 time=29
the msg is note_on channel=8 note=33 velocity=120 time=31
the msg is note_on channel=8 note=33 velocity=0 time=29
the msg is note_on channel=8 note=40 velocity=120 time=1
the msg is note_on channel=8 note=40 velocity=0 time=29
the msg is note_on channel=8 note=45 velocity=120 time=1
the msg is note_on channel=8 note=45 velocity=0 time=59
the msg is note_on channel=8 note=40 velocity=120 time=1
the msg is note_on channel=8 note=40 velocity=0 time=59
the msg is note_on channel=8 note=33 velocity=120 time=1
the msg is note_on channel=8 note=33 velocity=0 time=59
the msg is note_on channel=8 note=30 velocity=120 time=1
the msg is note_on channel=8 note=30 velocity=0 time=119
the msg is note_on channel=8 note=30 velocity=120 time=1
the msg is note_on channel=8 note=30 velocity=0 time=29
the msg is note_on channel=8 note=30 velocity=120 time=31
the msg is note_on channel=8 note=30 velocity=0 time=29
the msg is note_on channel=8 note=30 velocity=120 time=31
the msg is note_on channel=8 note=30 velocity=0 time=29
the msg is note_on channel=8 note=37 velocity=120 time=1
the msg is note_on channel=8 note=37 velocity=0 time=29
the msg is note_on channel=8 note=42 velocity=120 time=1
the msg is note_on channel=8 note=42 velocity=0 time=59
the msg is note_on channel=8 note=42 velocity=120 time=1
the msg is note_on channel=8 note=42 velocity=0 time=29
the msg is note_on channel=8 note=42 velocity=120 time=31
the msg is note_on channel=8 note=42 velocity=0 time=29
the msg is note_on channel=8 note=42 velocity=120 time=31
the msg is note_on channel=8 note=42 velocity=0 time=29
the msg is note_on channel=8 note=33 velocity=120 time=31
the msg is note_on channel=8 note=33 velocity=0 time=29
the msg is note_on channel=8 note=33 velocity=120 time=31
the msg is note_on channel=8 note=33 velocity=0 time=29
the msg is note_on channel=8 note=33 velocity=120 time=31
the msg is note_on channel=8 note=33 velocity=0 time=29
the msg is note_on channel=8 note=33 velocity=120 time=31
the msg is note_on channel=8 note=33 velocity=0 time=29
the msg is note_on channel=8 note=40 velocity=120 time=1
the msg is note_on channel=8 note=40 velocity=0 time=29
the msg is note_on channel=8 note=45 velocity=120 time=1
the msg is note_on channel=8 note=45 velocity=0 time=59
the msg is note_on channel=8 note=40 velocity=120 time=1
the msg is note_on channel=8 note=40 velocity=0 time=59
the msg is note_on channel=8 note=33 velocity=120 time=1
the msg is note_on channel=8 note=33 velocity=0 time=59
the msg is note_on channel=8 note=35 velocity=120 time=1
the msg is note_on channel=8 note=35 velocity=0 time=119
the msg is note_on channel=8 note=30 velocity=120 time=1
the msg is note_on channel=8 note=30 velocity=0 time=29
the msg is note_on channel=8 note=30 velocity=120 time=31
the msg is note_on channel=8 note=30 velocity=0 time=29
the msg is note_on channel=8 note=36 velocity=120 time=31
the msg is note_on channel=8 note=36 velocity=0 time=119
the msg is note_on channel=8 note=36 velocity=120 time=1
the msg is note_on channel=8 note=36 velocity=0 time=29
the msg is note_on channel=8 note=36 velocity=120 time=31
the msg is note_on channel=8 note=36 velocity=0 time=29
the msg is note_on channel=8 note=36 velocity=120 time=31
the msg is note_on channel=8 note=36 velocity=0 time=29
the msg is note_on channel=8 note=37 velocity=120 time=31
the msg is note_on channel=8 note=37 velocity=0 time=29
the msg is note_on channel=8 note=37 velocity=120 time=31
the msg is note_on channel=8 note=37 velocity=0 time=29
the msg is note_on channel=8 note=37 velocity=120 time=31
the msg is note_on channel=8 note=37 velocity=0 time=59
the msg is note_on channel=8 note=35 velocity=120 time=31
the msg is note_on channel=8 note=35 velocity=0 time=29
the msg is note_on channel=8 note=35 velocity=120 time=31
the msg is note_on channel=8 note=35 velocity=0 time=29
the msg is note_on channel=8 note=37 velocity=120 time=1
the msg is note_on channel=8 note=37 velocity=0 time=59
the msg is note_on channel=8 note=30 velocity=120 time=1
the msg is note_on channel=8 note=30 velocity=0 time=59
the msg is note_on channel=8 note=28 velocity=120 time=1
the msg is note_on channel=8 note=28 velocity=0 time=59
the msg is note_on channel=8 note=37 velocity=120 time=1
the msg is note_on channel=8 note=37 velocity=0 time=29
the msg is note_on channel=8 note=37 velocity=120 time=31
the msg is note_on channel=8 note=37 velocity=0 time=29
the msg is note_on channel=8 note=37 velocity=120 time=31
the msg is note_on channel=8 note=37 velocity=0 time=59
the msg is note_on channel=8 note=35 velocity=120 time=31
the msg is note_on channel=8 note=35 velocity=0 time=29
the msg is note_on channel=8 note=35 velocity=120 time=31
the msg is note_on channel=8 note=35 velocity=0 time=29
the msg is note_on channel=8 note=37 velocity=120 time=1
the msg is note_on channel=8 note=37 velocity=0 time=59
the msg is note_on channel=8 note=35 velocity=120 time=1
the msg is note_on channel=8 note=35 velocity=0 time=59
the msg is note_on channel=8 note=32 velocity=120 time=1
the msg is note_on channel=8 note=32 velocity=0 time=59
the msg is note_on channel=8 note=37 velocity=120 time=1
the msg is note_on channel=8 note=37 velocity=0 time=29
the msg is note_on channel=8 note=37 velocity=120 time=31
the msg is note_on channel=8 note=37 velocity=0 time=29
the msg is note_on channel=8 note=37 velocity=120 time=31
the msg is note_on channel=8 note=37 velocity=0 time=59
the msg is note_on channel=8 note=35 velocity=120 time=31
the msg is note_on channel=8 note=35 velocity=0 time=29
the msg is note_on channel=8 note=35 velocity=120 time=31
the msg is note_on channel=8 note=35 velocity=0 time=29
the msg is note_on channel=8 note=37 velocity=120 time=1
the msg is note_on channel=8 note=37 velocity=0 time=59
the msg is note_on channel=8 note=30 velocity=120 time=1
the msg is note_on channel=8 note=30 velocity=0 time=59
the msg is note_on channel=8 note=28 velocity=120 time=1
the msg is note_on channel=8 note=28 velocity=0 time=59
the msg is note_on channel=8 note=37 velocity=120 time=1
the msg is note_on channel=8 note=37 velocity=0 time=29
the msg is note_on channel=8 note=37 velocity=120 time=31
the msg is note_on channel=8 note=37 velocity=0 time=29
the msg is note_on channel=8 note=37 velocity=120 time=31
the msg is note_on channel=8 note=37 velocity=0 time=59
the msg is note_on channel=8 note=35 velocity=120 time=1
the msg is note_on channel=8 note=35 velocity=0 time=29
the msg is note_on channel=8 note=37 velocity=120 time=1
the msg is note_on channel=8 note=37 velocity=0 time=29
the msg is note_on channel=8 note=40 velocity=120 time=1
the msg is note_on channel=8 note=40 velocity=0 time=29
the msg is note_on channel=8 note=40 velocity=120 time=31
the msg is note_on channel=8 note=40 velocity=0 time=29
the msg is note_on channel=8 note=42 velocity=120 time=31
the msg is note_on channel=8 note=42 velocity=0 time=29
the msg is note_on channel=8 note=42 velocity=120 time=31
the msg is note_on channel=8 note=42 velocity=0 time=29
the msg is note_on channel=8 note=37 velocity=120 time=31
the msg is note_on channel=8 note=37 velocity=0 time=29
the msg is note_on channel=8 note=37 velocity=120 time=31
the msg is note_on channel=8 note=37 velocity=0 time=29
the msg is note_on channel=8 note=37 velocity=120 time=31
the msg is note_on channel=8 note=37 velocity=0 time=59
the msg is note_on channel=8 note=35 velocity=120 time=31
the msg is note_on channel=8 note=35 velocity=0 time=29
the msg is note_on channel=8 note=35 velocity=120 time=31
the msg is note_on channel=8 note=35 velocity=0 time=29
the msg is note_on channel=8 note=37 velocity=120 time=1
the msg is note_on channel=8 note=37 velocity=0 time=59
the msg is note_on channel=8 note=30 velocity=120 time=1
the msg is note_on channel=8 note=30 velocity=0 time=59
the msg is note_on channel=8 note=28 velocity=120 time=1
the msg is note_on channel=8 note=28 velocity=0 time=59
the msg is note_on channel=8 note=37 velocity=120 time=1
the msg is note_on channel=8 note=37 velocity=0 time=29
the msg is note_on channel=8 note=37 velocity=120 time=31
the msg is note_on channel=8 note=37 velocity=0 time=29
the msg is note_on channel=8 note=37 velocity=120 time=31
the msg is note_on channel=8 note=37 velocity=0 time=59
the msg is note_on channel=8 note=35 velocity=120 time=31
the msg is note_on channel=8 note=35 velocity=0 time=29
the msg is note_on channel=8 note=35 velocity=120 time=31
the msg is note_on channel=8 note=35 velocity=0 time=29
the msg is note_on channel=8 note=37 velocity=120 time=1
the msg is note_on channel=8 note=37 velocity=0 time=59
the msg is note_on channel=8 note=35 velocity=120 time=1
the msg is note_on channel=8 note=35 velocity=0 time=59
the msg is note_on channel=8 note=32 velocity=120 time=1
the msg is note_on channel=8 note=32 velocity=0 time=59
the msg is note_on channel=8 note=30 velocity=120 time=1
the msg is note_on channel=8 note=30 velocity=0 time=29
the msg is note_on channel=8 note=30 velocity=120 time=31
the msg is note_on channel=8 note=30 velocity=0 time=29
the msg is note_on channel=8 note=30 velocity=120 time=31
the msg is note_on channel=8 note=30 velocity=0 time=59
the msg is note_on channel=8 note=35 velocity=120 time=1
the msg is note_on channel=8 note=35 velocity=0 time=29
the msg is note_on channel=8 note=37 velocity=120 time=1
the msg is note_on channel=8 note=37 velocity=0 time=29
the msg is note_on channel=8 note=40 velocity=120 time=1
the msg is note_on channel=8 note=40 velocity=0 time=59
the msg is note_on channel=8 note=40 velocity=120 time=1
the msg is note_on channel=8 note=40 velocity=0 time=29
the msg is note_on channel=8 note=42 velocity=120 time=1
the msg is note_on channel=8 note=42 velocity=0 time=59
the msg is note_on channel=8 note=42 velocity=120 time=1
the msg is note_on channel=8 note=42 velocity=0 time=29
the msg is note_on channel=8 note=40 velocity=120 time=1
the msg is note_on channel=8 note=40 velocity=0 time=59
the msg is note_on channel=8 note=30 velocity=120 time=1
the msg is note_on channel=8 note=30 velocity=0 time=29
the msg is note_on channel=8 note=30 velocity=120 time=31
the msg is note_on channel=8 note=30 velocity=0 time=29
the msg is note_on channel=8 note=30 velocity=120 time=31
the msg is note_on channel=8 note=30 velocity=0 time=59
the msg is note_on channel=8 note=35 velocity=120 time=1
the msg is note_on channel=8 note=35 velocity=0 time=29
the msg is note_on channel=8 note=37 velocity=120 time=1
the msg is note_on channel=8 note=37 velocity=0 time=29
the msg is note_on channel=8 note=40 velocity=120 time=1
the msg is note_on channel=8 note=40 velocity=0 time=59
the msg is note_on channel=8 note=40 velocity=120 time=1
the msg is note_on channel=8 note=40 velocity=0 time=29
the msg is note_on channel=8 note=37 velocity=120 time=1
the msg is note_on channel=8 note=37 velocity=0 time=59
the msg is note_on channel=8 note=37 velocity=120 time=1
the msg is note_on channel=8 note=37 velocity=0 time=29
the msg is note_on channel=8 note=35 velocity=120 time=1
the msg is note_on channel=8 note=35 velocity=0 time=59
the msg is note_on channel=8 note=37 velocity=120 time=1
the msg is note_on channel=8 note=37 velocity=0 time=29
the msg is note_on channel=8 note=37 velocity=120 time=31
the msg is note_on channel=8 note=37 velocity=0 time=29
the msg is note_on channel=8 note=37 velocity=120 time=31
the msg is note_on channel=8 note=37 velocity=0 time=59
the msg is note_on channel=8 note=35 velocity=120 time=31
the msg is note_on channel=8 note=35 velocity=0 time=29
the msg is note_on channel=8 note=35 velocity=120 time=31
the msg is note_on channel=8 note=35 velocity=0 time=29
the msg is note_on channel=8 note=37 velocity=120 time=1
the msg is note_on channel=8 note=37 velocity=0 time=59
the msg is note_on channel=8 note=30 velocity=120 time=1
the msg is note_on channel=8 note=30 velocity=0 time=59
the msg is note_on channel=8 note=28 velocity=120 time=1
the msg is note_on channel=8 note=28 velocity=0 time=59
the msg is note_on channel=8 note=37 velocity=120 time=1
the msg is note_on channel=8 note=37 velocity=0 time=29
the msg is note_on channel=8 note=37 velocity=120 time=31
the msg is note_on channel=8 note=37 velocity=0 time=29
the msg is note_on channel=8 note=37 velocity=120 time=31
the msg is note_on channel=8 note=37 velocity=0 time=59
the msg is note_on channel=8 note=35 velocity=120 time=31
the msg is note_on channel=8 note=35 velocity=0 time=29
the msg is note_on channel=8 note=35 velocity=120 time=31
the msg is note_on channel=8 note=35 velocity=0 time=29
the msg is note_on channel=8 note=37 velocity=120 time=1
the msg is note_on channel=8 note=37 velocity=0 time=59
the msg is note_on channel=8 note=35 velocity=120 time=1
the msg is note_on channel=8 note=35 velocity=0 time=59
the msg is note_on channel=8 note=32 velocity=120 time=1
the msg is note_on channel=8 note=32 velocity=0 time=59
the msg is note_on channel=8 note=30 velocity=120 time=1
the msg is note_on channel=8 note=30 velocity=0 time=29
the msg is note_on channel=8 note=30 velocity=120 time=31
the msg is note_on channel=8 note=30 velocity=0 time=29
the msg is note_on channel=8 note=30 velocity=120 time=31
the msg is note_on channel=8 note=30 velocity=0 time=59
the msg is note_on channel=8 note=35 velocity=120 time=1
the msg is note_on channel=8 note=35 velocity=0 time=29
the msg is note_on channel=8 note=37 velocity=120 time=1
the msg is note_on channel=8 note=37 velocity=0 time=29
the msg is note_on channel=8 note=40 velocity=120 time=1
the msg is note_on channel=8 note=40 velocity=0 time=59
the msg is note_on channel=8 note=40 velocity=120 time=1
the msg is note_on channel=8 note=40 velocity=0 time=29
the msg is note_on channel=8 note=42 velocity=120 time=1
the msg is note_on channel=8 note=42 velocity=0 time=59
the msg is note_on channel=8 note=42 velocity=120 time=1
the msg is note_on channel=8 note=42 velocity=0 time=29
the msg is note_on channel=8 note=40 velocity=120 time=1
the msg is note_on channel=8 note=40 velocity=0 time=59
the msg is note_on channel=8 note=30 velocity=120 time=1
the msg is note_on channel=8 note=30 velocity=0 time=29
the msg is note_on channel=8 note=30 velocity=120 time=31
the msg is note_on channel=8 note=30 velocity=0 time=29
the msg is note_on channel=8 note=30 velocity=120 time=31
the msg is note_on channel=8 note=30 velocity=0 time=59
the msg is note_on channel=8 note=35 velocity=120 time=1
the msg is note_on channel=8 note=35 velocity=0 time=29
the msg is note_on channel=8 note=37 velocity=120 time=1
the msg is note_on channel=8 note=37 velocity=0 time=29
the msg is note_on channel=8 note=40 velocity=120 time=1
the msg is note_on channel=8 note=40 velocity=0 time=59
the msg is note_on channel=8 note=40 velocity=120 time=1
the msg is note_on channel=8 note=40 velocity=0 time=29
the msg is note_on channel=8 note=37 velocity=120 time=1
the msg is note_on channel=8 note=37 velocity=0 time=59
the msg is note_on channel=8 note=37 velocity=120 time=1
the msg is note_on channel=8 note=37 velocity=0 time=29
the msg is note_on channel=8 note=35 velocity=120 time=1
the msg is note_on channel=8 note=35 velocity=0 time=59
the msg is note_on channel=8 note=42 velocity=120 time=1
the msg is note_on channel=8 note=42 velocity=0 time=59
the msg is note_on channel=8 note=42 velocity=120 time=1
the msg is note_on channel=8 note=42 velocity=0 time=29
the msg is note_on channel=8 note=40 velocity=120 time=1
the msg is note_on channel=8 note=40 velocity=0 time=59
the msg is note_on channel=8 note=40 velocity=120 time=1
the msg is note_on channel=8 note=40 velocity=0 time=29
the msg is note_on channel=8 note=37 velocity=120 time=1
the msg is note_on channel=8 note=37 velocity=0 time=59
the msg is note_on channel=8 note=37 velocity=120 time=1
the msg is note_on channel=8 note=37 velocity=0 time=29
the msg is note_on channel=8 note=35 velocity=120 time=1
the msg is note_on channel=8 note=35 velocity=0 time=59
the msg is note_on channel=8 note=35 velocity=120 time=1
the msg is note_on channel=8 note=35 velocity=0 time=29
the msg is note_on channel=8 note=37 velocity=120 time=1
the msg is note_on channel=8 note=37 velocity=0 time=59
the msg is note_on channel=8 note=40 velocity=120 time=1
the msg is note_on channel=8 note=40 velocity=0 time=59
the msg is note_on channel=8 note=37 velocity=120 time=1
the msg is note_on channel=8 note=37 velocity=0 time=59
the msg is note_on channel=8 note=37 velocity=120 time=1
the msg is note_on channel=8 note=37 velocity=0 time=29
the msg is note_on channel=8 note=35 velocity=120 time=1
the msg is note_on channel=8 note=35 velocity=0 time=59
the msg is note_on channel=8 note=35 velocity=120 time=1
the msg is note_on channel=8 note=35 velocity=0 time=29
the msg is note_on channel=8 note=33 velocity=120 time=1
the msg is note_on channel=8 note=33 velocity=0 time=59
the msg is note_on channel=8 note=42 velocity=120 time=1
the msg is note_on channel=8 note=42 velocity=0 time=29
the msg is note_on channel=8 note=40 velocity=120 time=1
the msg is note_on channel=8 note=40 velocity=0 time=29
the msg is note_on channel=8 note=37 velocity=120 time=31
the msg is note_on channel=8 note=37 velocity=0 time=29
the msg is note_on channel=8 note=35 velocity=120 time=31
the msg is note_on channel=8 note=35 velocity=0 time=29
the msg is note_on channel=8 note=35 velocity=120 time=31
the msg is note_on channel=8 note=35 velocity=0 time=29
the msg is note_on channel=8 note=37 velocity=120 time=1
the msg is note_on channel=8 note=37 velocity=0 time=29
the msg is note_on channel=8 note=37 velocity=120 time=31
the msg is note_on channel=8 note=37 velocity=0 time=29
the msg is note_on channel=8 note=37 velocity=120 time=31
the msg is note_on channel=8 note=37 velocity=0 time=59
the msg is note_on channel=8 note=35 velocity=120 time=31
the msg is note_on channel=8 note=35 velocity=0 time=29
the msg is note_on channel=8 note=35 velocity=120 time=31
the msg is note_on channel=8 note=35 velocity=0 time=29
the msg is note_on channel=8 note=37 velocity=120 time=1
the msg is note_on channel=8 note=37 velocity=0 time=59
the msg is note_on channel=8 note=30 velocity=120 time=1
the msg is note_on channel=8 note=30 velocity=0 time=59
the msg is note_on channel=8 note=28 velocity=120 time=1
the msg is note_on channel=8 note=28 velocity=0 time=59
the msg is note_on channel=8 note=37 velocity=120 time=1
the msg is note_on channel=8 note=37 velocity=0 time=29
the msg is note_on channel=8 note=37 velocity=120 time=31
the msg is note_on channel=8 note=37 velocity=0 time=29
the msg is note_on channel=8 note=37 velocity=120 time=31
the msg is note_on channel=8 note=37 velocity=0 time=59
the msg is note_on channel=8 note=35 velocity=120 time=31
the msg is note_on channel=8 note=35 velocity=0 time=29
the msg is note_on channel=8 note=35 velocity=120 time=31
the msg is note_on channel=8 note=35 velocity=0 time=29
the msg is note_on channel=8 note=37 velocity=120 time=1
the msg is note_on channel=8 note=37 velocity=0 time=59
the msg is note_on channel=8 note=35 velocity=120 time=1
the msg is note_on channel=8 note=35 velocity=0 time=59
the msg is note_on channel=8 note=32 velocity=120 time=1
the msg is note_on channel=8 note=32 velocity=0 time=59
the msg is note_on channel=8 note=37 velocity=120 time=1
the msg is note_on channel=8 note=37 velocity=0 time=29
the msg is note_on channel=8 note=37 velocity=120 time=31
the msg is note_on channel=8 note=37 velocity=0 time=29
the msg is note_on channel=8 note=37 velocity=120 time=31
the msg is note_on channel=8 note=37 velocity=0 time=59
the msg is note_on channel=8 note=35 velocity=120 time=31
the msg is note_on channel=8 note=35 velocity=0 time=29
the msg is note_on channel=8 note=35 velocity=120 time=31
the msg is note_on channel=8 note=35 velocity=0 time=29
the msg is note_on channel=8 note=37 velocity=120 time=1
the msg is note_on channel=8 note=37 velocity=0 time=59
the msg is note_on channel=8 note=30 velocity=120 time=1
the msg is note_on channel=8 note=30 velocity=0 time=59
the msg is note_on channel=8 note=28 velocity=120 time=1
the msg is note_on channel=8 note=28 velocity=0 time=59
the msg is note_on channel=8 note=37 velocity=120 time=1
the msg is note_on channel=8 note=37 velocity=0 time=29
the msg is note_on channel=8 note=37 velocity=120 time=31
the msg is note_on channel=8 note=37 velocity=0 time=29
the msg is note_on channel=8 note=37 velocity=120 time=31
the msg is note_on channel=8 note=37 velocity=0 time=59
the msg is note_on channel=8 note=35 velocity=120 time=1
the msg is note_on channel=8 note=35 velocity=0 time=29
the msg is note_on channel=8 note=37 velocity=120 time=1
the msg is note_on channel=8 note=37 velocity=0 time=29
the msg is note_on channel=8 note=40 velocity=120 time=1
the msg is note_on channel=8 note=40 velocity=0 time=29
the msg is note_on channel=8 note=40 velocity=120 time=31
the msg is note_on channel=8 note=40 velocity=0 time=29
the msg is note_on channel=8 note=42 velocity=120 time=31
the msg is note_on channel=8 note=42 velocity=0 time=29
the msg is note_on channel=8 note=42 velocity=120 time=31
the msg is note_on channel=8 note=42 velocity=0 time=29
the msg is note_on channel=8 note=37 velocity=120 time=31
the msg is note_on channel=8 note=37 velocity=0 time=29
the msg is note_on channel=8 note=37 velocity=120 time=31
the msg is note_on channel=8 note=37 velocity=0 time=29
the msg is note_on channel=8 note=37 velocity=120 time=31
the msg is note_on channel=8 note=37 velocity=0 time=59
the msg is note_on channel=8 note=35 velocity=120 time=31
the msg is note_on channel=8 note=35 velocity=0 time=29
the msg is note_on channel=8 note=35 velocity=120 time=31
the msg is note_on channel=8 note=35 velocity=0 time=29
the msg is note_on channel=8 note=37 velocity=120 time=1
the msg is note_on channel=8 note=37 velocity=0 time=59
the msg is note_on channel=8 note=30 velocity=120 time=1
the msg is note_on channel=8 note=30 velocity=0 time=59
the msg is note_on channel=8 note=28 velocity=120 time=1
the msg is note_on channel=8 note=28 velocity=0 time=59
the msg is note_on channel=8 note=37 velocity=120 time=1
the msg is note_on channel=8 note=37 velocity=0 time=29
the msg is note_on channel=8 note=37 velocity=120 time=31
the msg is note_on channel=8 note=37 velocity=0 time=29
the msg is note_on channel=8 note=37 velocity=120 time=31
the msg is note_on channel=8 note=37 velocity=0 time=59
the msg is note_on channel=8 note=35 velocity=120 time=31
the msg is note_on channel=8 note=35 velocity=0 time=29
the msg is note_on channel=8 note=35 velocity=120 time=31
the msg is note_on channel=8 note=35 velocity=0 time=29
the msg is note_on channel=8 note=37 velocity=120 time=1
the msg is note_on channel=8 note=37 velocity=0 time=59
the msg is note_on channel=8 note=35 velocity=120 time=1
the msg is note_on channel=8 note=35 velocity=0 time=59
the msg is note_on channel=8 note=32 velocity=120 time=1
the msg is note_on channel=8 note=32 velocity=0 time=59
the msg is note_on channel=8 note=37 velocity=120 time=1
the msg is note_on channel=8 note=37 velocity=0 time=29
the msg is note_on channel=8 note=37 velocity=120 time=31
the msg is note_on channel=8 note=37 velocity=0 time=29
the msg is note_on channel=8 note=37 velocity=120 time=31
the msg is note_on channel=8 note=37 velocity=0 time=59
the msg is note_on channel=8 note=35 velocity=120 time=31
the msg is note_on channel=8 note=35 velocity=0 time=29
the msg is note_on channel=8 note=35 velocity=120 time=31
the msg is note_on channel=8 note=35 velocity=0 time=29
the msg is note_on channel=8 note=37 velocity=120 time=1
the msg is note_on channel=8 note=37 velocity=0 time=59
the msg is note_on channel=8 note=30 velocity=120 time=1
the msg is note_on channel=8 note=30 velocity=0 time=59
the msg is note_on channel=8 note=28 velocity=120 time=1
the msg is note_on channel=8 note=28 velocity=0 time=59
the msg is note_on channel=8 note=37 velocity=120 time=1
the msg is note_on channel=8 note=37 velocity=0 time=29
the msg is note_on channel=8 note=37 velocity=120 time=31
the msg is note_on channel=8 note=37 velocity=0 time=29
the msg is note_on channel=8 note=37 velocity=120 time=31
the msg is note_on channel=8 note=37 velocity=0 time=59
the msg is note_on channel=8 note=35 velocity=120 time=1
the msg is note_on channel=8 note=35 velocity=0 time=29
the msg is note_on channel=8 note=37 velocity=120 time=1
the msg is note_on channel=8 note=37 velocity=0 time=29
the msg is note_on channel=8 note=40 velocity=120 time=1
the msg is note_on channel=8 note=40 velocity=0 time=29
the msg is note_on channel=8 note=40 velocity=120 time=31
the msg is note_on channel=8 note=40 velocity=0 time=29
the msg is note_on channel=8 note=42 velocity=120 time=31
the msg is note_on channel=8 note=42 velocity=0 time=29
the msg is note_on channel=8 note=42 velocity=120 time=31
the msg is note_on channel=8 note=42 velocity=0 time=29
the msg is note_on channel=8 note=33 velocity=120 time=31
the msg is note_on channel=8 note=33 velocity=0 time=29
the msg is note_on channel=8 note=33 velocity=120 time=31
the msg is note_on channel=8 note=33 velocity=0 time=29
the msg is note_on channel=8 note=33 velocity=120 time=31
the msg is note_on channel=8 note=33 velocity=0 time=29
the msg is note_on channel=8 note=33 velocity=120 time=31
the msg is note_on channel=8 note=33 velocity=0 time=29
the msg is note_on channel=8 note=40 velocity=120 time=1
the msg is note_on channel=8 note=40 velocity=0 time=29
the msg is note_on channel=8 note=45 velocity=120 time=1
the msg is note_on channel=8 note=45 velocity=0 time=59
the msg is note_on channel=8 note=40 velocity=120 time=1
the msg is note_on channel=8 note=40 velocity=0 time=59
the msg is note_on channel=8 note=33 velocity=120 time=1
the msg is note_on channel=8 note=33 velocity=0 time=59
the msg is note_on channel=8 note=30 velocity=120 time=1
the msg is note_on channel=8 note=30 velocity=0 time=119
the msg is note_on channel=8 note=30 velocity=120 time=1
the msg is note_on channel=8 note=30 velocity=0 time=29
the msg is note_on channel=8 note=30 velocity=120 time=31
the msg is note_on channel=8 note=30 velocity=0 time=29
the msg is note_on channel=8 note=30 velocity=120 time=31
the msg is note_on channel=8 note=30 velocity=0 time=29
the msg is note_on channel=8 note=37 velocity=120 time=1
the msg is note_on channel=8 note=37 velocity=0 time=29
the msg is note_on channel=8 note=42 velocity=120 time=1
the msg is note_on channel=8 note=42 velocity=0 time=59
the msg is note_on channel=8 note=42 velocity=120 time=1
the msg is note_on channel=8 note=42 velocity=0 time=29
the msg is note_on channel=8 note=42 velocity=120 time=31
the msg is note_on channel=8 note=42 velocity=0 time=29
the msg is note_on channel=8 note=42 velocity=120 time=31
the msg is note_on channel=8 note=42 velocity=0 time=29
the msg is note_on channel=8 note=33 velocity=120 time=31
the msg is note_on channel=8 note=33 velocity=0 time=29
the msg is note_on channel=8 note=33 velocity=120 time=31
the msg is note_on channel=8 note=33 velocity=0 time=29
the msg is note_on channel=8 note=33 velocity=120 time=31
the msg is note_on channel=8 note=33 velocity=0 time=29
the msg is note_on channel=8 note=33 velocity=120 time=31
the msg is note_on channel=8 note=33 velocity=0 time=29
the msg is note_on channel=8 note=40 velocity=120 time=1
the msg is note_on channel=8 note=40 velocity=0 time=29
the msg is note_on channel=8 note=45 velocity=120 time=1
the msg is note_on channel=8 note=45 velocity=0 time=59
the msg is note_on channel=8 note=40 velocity=120 time=1
the msg is note_on channel=8 note=40 velocity=0 time=59
the msg is note_on channel=8 note=33 velocity=120 time=1
the msg is note_on channel=8 note=33 velocity=0 time=59
the msg is note_on channel=8 note=35 velocity=120 time=1
the msg is note_on channel=8 note=35 velocity=0 time=119
the msg is note_on channel=8 note=30 velocity=120 time=1
the msg is note_on channel=8 note=30 velocity=0 time=29
the msg is note_on channel=8 note=30 velocity=120 time=31
the msg is note_on channel=8 note=30 velocity=0 time=29
the msg is note_on channel=8 note=36 velocity=120 time=31
the msg is note_on channel=8 note=36 velocity=0 time=119
the msg is note_on channel=8 note=36 velocity=120 time=1
the msg is note_on channel=8 note=36 velocity=0 time=29
the msg is note_on channel=8 note=36 velocity=120 time=31
the msg is note_on channel=8 note=36 velocity=0 time=29
the msg is note_on channel=8 note=36 velocity=120 time=31
the msg is note_on channel=8 note=36 velocity=0 time=29
the msg is note_on channel=8 note=37 velocity=120 time=31
the msg is note_on channel=8 note=37 velocity=0 time=29
the msg is note_on channel=8 note=37 velocity=120 time=31
the msg is note_on channel=8 note=37 velocity=0 time=29
the msg is note_on channel=8 note=37 velocity=120 time=31
the msg is note_on channel=8 note=37 velocity=0 time=59
the msg is note_on channel=8 note=35 velocity=120 time=31
the msg is note_on channel=8 note=35 velocity=0 time=29
the msg is note_on channel=8 note=35 velocity=120 time=31
the msg is note_on channel=8 note=35 velocity=0 time=29
the msg is note_on channel=8 note=37 velocity=120 time=1
the msg is note_on channel=8 note=37 velocity=0 time=59
the msg is note_on channel=8 note=30 velocity=120 time=1
the msg is note_on channel=8 note=30 velocity=0 time=59
the msg is note_on channel=8 note=28 velocity=120 time=1
the msg is note_on channel=8 note=28 velocity=0 time=59
the msg is note_on channel=8 note=37 velocity=120 time=1
the msg is note_on channel=8 note=37 velocity=0 time=29
the msg is note_on channel=8 note=37 velocity=120 time=31
the msg is note_on channel=8 note=37 velocity=0 time=29
the msg is note_on channel=8 note=37 velocity=120 time=31
the msg is note_on channel=8 note=37 velocity=0 time=59
the msg is note_on channel=8 note=35 velocity=120 time=31
the msg is note_on channel=8 note=35 velocity=0 time=29
the msg is note_on channel=8 note=35 velocity=120 time=31
the msg is note_on channel=8 note=35 velocity=0 time=29
the msg is note_on channel=8 note=37 velocity=120 time=1
the msg is note_on channel=8 note=37 velocity=0 time=59
the msg is note_on channel=8 note=35 velocity=120 time=1
the msg is note_on channel=8 note=35 velocity=0 time=59
the msg is note_on channel=8 note=32 velocity=120 time=1
the msg is note_on channel=8 note=32 velocity=0 time=59
the msg is note_on channel=8 note=37 velocity=120 time=1
the msg is note_on channel=8 note=37 velocity=0 time=29
the msg is note_on channel=8 note=37 velocity=120 time=31
the msg is note_on channel=8 note=37 velocity=0 time=29
the msg is note_on channel=8 note=37 velocity=120 time=31
the msg is note_on channel=8 note=37 velocity=0 time=59
the msg is note_on channel=8 note=35 velocity=120 time=31
the msg is note_on channel=8 note=35 velocity=0 time=29
the msg is note_on channel=8 note=35 velocity=120 time=31
the msg is note_on channel=8 note=35 velocity=0 time=29
the msg is note_on channel=8 note=37 velocity=120 time=1
the msg is note_on channel=8 note=37 velocity=0 time=59
the msg is note_on channel=8 note=30 velocity=120 time=1
the msg is note_on channel=8 note=30 velocity=0 time=59
the msg is note_on channel=8 note=28 velocity=120 time=1
the msg is note_on channel=8 note=28 velocity=0 time=59
the msg is note_on channel=8 note=37 velocity=120 time=1
the msg is note_on channel=8 note=37 velocity=0 time=29
the msg is note_on channel=8 note=37 velocity=120 time=31
the msg is note_on channel=8 note=37 velocity=0 time=29
the msg is note_on channel=8 note=37 velocity=120 time=31
the msg is note_on channel=8 note=37 velocity=0 time=59
the msg is note_on channel=8 note=35 velocity=120 time=1
the msg is note_on channel=8 note=35 velocity=0 time=29
the msg is note_on channel=8 note=37 velocity=120 time=1
the msg is note_on channel=8 note=37 velocity=0 time=29
the msg is note_on channel=8 note=40 velocity=120 time=1
the msg is note_on channel=8 note=40 velocity=0 time=29
the msg is note_on channel=8 note=40 velocity=120 time=31
the msg is note_on channel=8 note=40 velocity=0 time=29
the msg is note_on channel=8 note=42 velocity=120 time=31
the msg is note_on channel=8 note=42 velocity=0 time=29
the msg is note_on channel=8 note=42 velocity=120 time=31
the msg is note_on channel=8 note=42 velocity=0 time=29
the msg is note_on channel=8 note=37 velocity=120 time=31
the msg is note_on channel=8 note=37 velocity=0 time=29
the msg is note_on channel=8 note=37 velocity=120 time=31
the msg is note_on channel=8 note=37 velocity=0 time=29
the msg is note_on channel=8 note=37 velocity=120 time=31
the msg is note_on channel=8 note=37 velocity=0 time=59
the msg is note_on channel=8 note=35 velocity=120 time=31
the msg is note_on channel=8 note=35 velocity=0 time=29
the msg is note_on channel=8 note=35 velocity=120 time=31
the msg is note_on channel=8 note=35 velocity=0 time=29
the msg is note_on channel=8 note=37 velocity=120 time=1
the msg is note_on channel=8 note=37 velocity=0 time=59
the msg is note_on channel=8 note=30 velocity=120 time=1
the msg is note_on channel=8 note=30 velocity=0 time=59
the msg is note_on channel=8 note=28 velocity=120 time=1
the msg is note_on channel=8 note=28 velocity=0 time=59
the msg is note_on channel=8 note=37 velocity=120 time=1
the msg is note_on channel=8 note=37 velocity=0 time=29
the msg is note_on channel=8 note=37 velocity=120 time=31
the msg is note_on channel=8 note=37 velocity=0 time=29
the msg is note_on channel=8 note=37 velocity=120 time=31
the msg is note_on channel=8 note=37 velocity=0 time=59
the msg is note_on channel=8 note=35 velocity=120 time=31
the msg is note_on channel=8 note=35 velocity=0 time=29
the msg is note_on channel=8 note=35 velocity=120 time=31
the msg is note_on channel=8 note=35 velocity=0 time=29
the msg is note_on channel=8 note=37 velocity=120 time=1
the msg is note_on channel=8 note=37 velocity=0 time=59
the msg is note_on channel=8 note=35 velocity=120 time=1
the msg is note_on channel=8 note=35 velocity=0 time=59
the msg is note_on channel=8 note=32 velocity=120 time=1
the msg is note_on channel=8 note=32 velocity=0 time=59
the msg is note_on channel=8 note=37 velocity=120 time=1
the msg is note_on channel=8 note=37 velocity=0 time=29
the msg is note_on channel=8 note=37 velocity=120 time=31
the msg is note_on channel=8 note=37 velocity=0 time=29
the msg is note_on channel=8 note=37 velocity=120 time=31
the msg is note_on channel=8 note=37 velocity=0 time=59
the msg is note_on channel=8 note=35 velocity=120 time=31
the msg is note_on channel=8 note=35 velocity=0 time=29
the msg is note_on channel=8 note=35 velocity=120 time=31
the msg is note_on channel=8 note=35 velocity=0 time=29
the msg is note_on channel=8 note=37 velocity=120 time=1
the msg is note_on channel=8 note=37 velocity=0 time=59
the msg is note_on channel=8 note=30 velocity=120 time=1
the msg is note_on channel=8 note=30 velocity=0 time=59
the msg is note_on channel=8 note=28 velocity=120 time=1
the msg is note_on channel=8 note=28 velocity=0 time=59
the msg is note_on channel=8 note=37 velocity=120 time=1
the msg is note_on channel=8 note=37 velocity=0 time=29
the msg is note_on channel=8 note=37 velocity=120 time=31
the msg is note_on channel=8 note=37 velocity=0 time=29
the msg is note_on channel=8 note=37 velocity=120 time=31
the msg is note_on channel=8 note=37 velocity=0 time=59
the msg is note_on channel=8 note=35 velocity=120 time=1
the msg is note_on channel=8 note=35 velocity=0 time=29
the msg is note_on channel=8 note=37 velocity=120 time=1
the msg is note_on channel=8 note=37 velocity=0 time=29
the msg is note_on channel=8 note=40 velocity=120 time=1
the msg is note_on channel=8 note=40 velocity=0 time=29
the msg is note_on channel=8 note=40 velocity=120 time=31
the msg is note_on channel=8 note=40 velocity=0 time=29
the msg is note_on channel=8 note=42 velocity=120 time=31
the msg is note_on channel=8 note=42 velocity=0 time=29
the msg is note_on channel=8 note=42 velocity=120 time=31
the msg is note_on channel=8 note=42 velocity=0 time=29
the msg is note_on channel=8 note=33 velocity=120 time=31
the msg is note_on channel=8 note=33 velocity=0 time=29
the msg is note_on channel=8 note=33 velocity=120 time=31
the msg is note_on channel=8 note=33 velocity=0 time=29
the msg is note_on channel=8 note=33 velocity=120 time=31
the msg is note_on channel=8 note=33 velocity=0 time=29
the msg is note_on channel=8 note=33 velocity=120 time=31
the msg is note_on channel=8 note=33 velocity=0 time=29
the msg is note_on channel=8 note=40 velocity=120 time=1
the msg is note_on channel=8 note=40 velocity=0 time=29
the msg is note_on channel=8 note=45 velocity=120 time=1
the msg is note_on channel=8 note=45 velocity=0 time=59
the msg is note_on channel=8 note=40 velocity=120 time=1
the msg is note_on channel=8 note=40 velocity=0 time=59
the msg is note_on channel=8 note=33 velocity=120 time=1
the msg is note_on channel=8 note=33 velocity=0 time=59
the msg is note_on channel=8 note=30 velocity=120 time=1
the msg is note_on channel=8 note=30 velocity=0 time=119
the msg is note_on channel=8 note=30 velocity=120 time=1
the msg is note_on channel=8 note=30 velocity=0 time=29
the msg is note_on channel=8 note=30 velocity=120 time=31
the msg is note_on channel=8 note=30 velocity=0 time=29
the msg is note_on channel=8 note=30 velocity=120 time=31
the msg is note_on channel=8 note=30 velocity=0 time=29
the msg is note_on channel=8 note=37 velocity=120 time=1
the msg is note_on channel=8 note=37 velocity=0 time=29
the msg is note_on channel=8 note=42 velocity=120 time=1
the msg is note_on channel=8 note=42 velocity=0 time=59
the msg is note_on channel=8 note=42 velocity=120 time=1
the msg is note_on channel=8 note=42 velocity=0 time=29
the msg is note_on channel=8 note=42 velocity=120 time=31
the msg is note_on channel=8 note=42 velocity=0 time=29
the msg is note_on channel=8 note=42 velocity=120 time=31
the msg is note_on channel=8 note=42 velocity=0 time=29
the msg is note_on channel=8 note=33 velocity=120 time=31
the msg is note_on channel=8 note=33 velocity=0 time=29
the msg is note_on channel=8 note=33 velocity=120 time=31
the msg is note_on channel=8 note=33 velocity=0 time=29
the msg is note_on channel=8 note=33 velocity=120 time=31
the msg is note_on channel=8 note=33 velocity=0 time=29
the msg is note_on channel=8 note=33 velocity=120 time=31
the msg is note_on channel=8 note=33 velocity=0 time=29
the msg is note_on channel=8 note=40 velocity=120 time=1
the msg is note_on channel=8 note=40 velocity=0 time=29
the msg is note_on channel=8 note=45 velocity=120 time=1
the msg is note_on channel=8 note=45 velocity=0 time=59
the msg is note_on channel=8 note=40 velocity=120 time=1
the msg is note_on channel=8 note=40 velocity=0 time=59
the msg is note_on channel=8 note=33 velocity=120 time=1
the msg is note_on channel=8 note=33 velocity=0 time=59
the msg is note_on channel=8 note=35 velocity=120 time=1
the msg is note_on channel=8 note=35 velocity=0 time=119
the msg is note_on channel=8 note=30 velocity=120 time=1
the msg is note_on channel=8 note=30 velocity=0 time=29
the msg is note_on channel=8 note=30 velocity=120 time=31
the msg is note_on channel=8 note=30 velocity=0 time=29
the msg is note_on channel=8 note=36 velocity=120 time=31
the msg is note_on channel=8 note=36 velocity=0 time=119
the msg is note_on channel=8 note=36 velocity=120 time=1
the msg is note_on channel=8 note=36 velocity=0 time=29
the msg is note_on channel=8 note=36 velocity=120 time=31
the msg is note_on channel=8 note=36 velocity=0 time=29
the msg is note_on channel=8 note=36 velocity=120 time=31
the msg is note_on channel=8 note=36 velocity=0 time=29
the msg is note_on channel=8 note=37 velocity=120 time=31
the msg is note_on channel=8 note=37 velocity=0 time=29
the msg is note_on channel=8 note=37 velocity=120 time=31
the msg is note_on channel=8 note=37 velocity=0 time=29
the msg is note_on channel=8 note=37 velocity=120 time=31
the msg is note_on channel=8 note=37 velocity=0 time=59
the msg is note_on channel=8 note=35 velocity=120 time=31
the msg is note_on channel=8 note=35 velocity=0 time=29
the msg is note_on channel=8 note=35 velocity=120 time=31
the msg is note_on channel=8 note=35 velocity=0 time=29
the msg is note_on channel=8 note=37 velocity=120 time=1
the msg is note_on channel=8 note=37 velocity=0 time=59
the msg is note_on channel=8 note=30 velocity=120 time=1
the msg is note_on channel=8 note=30 velocity=0 time=59
the msg is note_on channel=8 note=28 velocity=120 time=1
the msg is note_on channel=8 note=28 velocity=0 time=59
the msg is note_on channel=8 note=37 velocity=120 time=1
the msg is note_on channel=8 note=37 velocity=0 time=29
the msg is note_on channel=8 note=37 velocity=120 time=31
the msg is note_on channel=8 note=37 velocity=0 time=29
the msg is note_on channel=8 note=37 velocity=120 time=31
the msg is note_on channel=8 note=37 velocity=0 time=59
the msg is note_on channel=8 note=35 velocity=120 time=31
the msg is note_on channel=8 note=35 velocity=0 time=29
the msg is note_on channel=8 note=35 velocity=120 time=31
the msg is note_on channel=8 note=35 velocity=0 time=29
the msg is note_on channel=8 note=37 velocity=120 time=1
the msg is note_on channel=8 note=37 velocity=0 time=59
the msg is note_on channel=8 note=35 velocity=120 time=1
the msg is note_on channel=8 note=35 velocity=0 time=59
the msg is note_on channel=8 note=32 velocity=120 time=1
the msg is note_on channel=8 note=32 velocity=0 time=59
the msg is note_on channel=8 note=37 velocity=120 time=1
the msg is note_on channel=8 note=37 velocity=0 time=29
the msg is note_on channel=8 note=37 velocity=120 time=31
the msg is note_on channel=8 note=37 velocity=0 time=29
the msg is note_on channel=8 note=37 velocity=120 time=31
the msg is note_on channel=8 note=37 velocity=0 time=59
the msg is note_on channel=8 note=35 velocity=120 time=31
the msg is note_on channel=8 note=35 velocity=0 time=29
the msg is note_on channel=8 note=35 velocity=120 time=31
the msg is note_on channel=8 note=35 velocity=0 time=29
the msg is note_on channel=8 note=37 velocity=120 time=1
the msg is note_on channel=8 note=37 velocity=0 time=59
the msg is note_on channel=8 note=30 velocity=120 time=1
the msg is note_on channel=8 note=30 velocity=0 time=59
the msg is note_on channel=8 note=28 velocity=120 time=1
the msg is control_change channel=8 control=11 value=127 time=52
the msg is note_on channel=8 note=28 velocity=0 time=7
the msg is control_change channel=8 control=11 value=126 time=1
the msg is note_on channel=8 note=37 velocity=120 time=0
the msg is control_change channel=8 control=11 value=125 time=8
the msg is control_change channel=8 control=11 value=124 time=8
the msg is control_change channel=8 control=11 value=122 time=8
the msg is note_on channel=8 note=37 velocity=0 time=5
the msg is control_change channel=8 control=11 value=121 time=3
the msg is control_change channel=8 control=11 value=120 time=8
the msg is control_change channel=8 control=11 value=119 time=8
the msg is control_change channel=8 control=11 value=118 time=8
the msg is note_on channel=8 note=37 velocity=120 time=4
the msg is control_change channel=8 control=11 value=117 time=4
the msg is note_on channel=8 note=37 velocity=0 time=25
the msg is control_change channel=8 control=11 value=116 time=15
the msg is note_on channel=8 note=37 velocity=120 time=16
the msg is control_change channel=8 control=11 value=115 time=40
the msg is control_change channel=8 control=11 value=114 time=16
the msg is note_on channel=8 note=37 velocity=0 time=3
the msg is note_on channel=8 note=35 velocity=120 time=1
the msg is control_change channel=8 control=11 value=113 time=4
the msg is control_change channel=8 control=11 value=112 time=8
the msg is note_on channel=8 note=35 velocity=0 time=17
the msg is note_on channel=8 note=37 velocity=120 time=1
the msg is control_change channel=8 control=11 value=111 time=14
the msg is note_on channel=8 note=37 velocity=0 time=15
the msg is note_on channel=8 note=40 velocity=120 time=1
the msg is control_change channel=8 control=11 value=110 time=8
the msg is control_change channel=8 control=11 value=109 time=16
the msg is note_on channel=8 note=40 velocity=0 time=5
the msg is control_change channel=8 control=11 value=108 time=3
the msg is note_on channel=8 note=40 velocity=120 time=28
the msg is control_change channel=8 control=11 value=107 time=12
the msg is control_change channel=8 control=11 value=106 time=8
the msg is control_change channel=8 control=11 value=103 time=8
the msg is note_on channel=8 note=40 velocity=0 time=1
the msg is control_change channel=8 control=11 value=102 time=31
the msg is note_on channel=8 note=42 velocity=120 time=0
the msg is control_change channel=8 control=11 value=101 time=8
the msg is control_change channel=8 control=11 value=100 time=16
the msg is note_on channel=8 note=42 velocity=0 time=5
the msg is control_change channel=8 control=11 value=98 time=3
the msg is control_change channel=8 control=11 value=97 time=16
the msg is note_on channel=8 note=42 velocity=120 time=12
the msg is control_change channel=8 control=11 value=96 time=4
the msg is control_change channel=8 control=11 value=95 time=16
the msg is note_on channel=8 note=42 velocity=0 time=9
the msg is control_change channel=8 control=11 value=94 time=7
the msg is control_change channel=8 control=11 value=93 time=8
the msg is control_change channel=8 control=11 value=92 time=8
the msg is note_on channel=8 note=37 velocity=120 time=8
the msg is control_change channel=8 control=11 value=91 time=16
the msg is note_on channel=8 note=37 velocity=0 time=13
the msg is control_change channel=8 control=11 value=90 time=3
the msg is control_change channel=8 control=11 value=89 time=8
the msg is control_change channel=8 control=11 value=88 time=16
the msg is note_on channel=8 note=37 velocity=120 time=4
the msg is note_on channel=8 note=37 velocity=0 time=29
the msg is control_change channel=8 control=11 value=87 time=23
the msg is note_on channel=8 note=37 velocity=120 time=8
the msg is control_change channel=8 control=11 value=85 time=24
the msg is control_change channel=8 control=11 value=84 time=24
the msg is note_on channel=8 note=37 velocity=0 time=11
the msg is note_on channel=8 note=35 velocity=120 time=31
the msg is control_change channel=8 control=11 value=83 time=6
the msg is control_change channel=8 control=11 value=82 time=16
the msg is note_on channel=8 note=35 velocity=0 time=7
the msg is control_change channel=8 control=11 value=81 time=1
the msg is control_change channel=8 control=11 value=80 time=16
the msg is control_change channel=8 control=11 value=79 time=8
the msg is note_on channel=8 note=35 velocity=120 time=6
the msg is control_change channel=8 control=11 value=78 time=2
the msg is control_change channel=8 control=11 value=76 time=8
the msg is control_change channel=8 control=11 value=75 time=16
the msg is note_on channel=8 note=35 velocity=0 time=3
the msg is note_on channel=8 note=37 velocity=120 time=1
the msg is control_change channel=8 control=11 value=74 time=20
the msg is control_change channel=8 control=11 value=70 time=24
the msg is note_on channel=8 note=37 velocity=0 time=15
the msg is note_on channel=8 note=30 velocity=120 time=1
the msg is control_change channel=8 control=11 value=69 time=40
the msg is note_on channel=8 note=30 velocity=0 time=19
the msg is note_on channel=8 note=28 velocity=120 time=1
the msg is control_change channel=8 control=11 value=67 time=28
the msg is control_change channel=8 control=11 value=66 time=24
the msg is note_on channel=8 note=28 velocity=0 time=7
the msg is note_on channel=8 note=37 velocity=120 time=1
the msg is note_on channel=8 note=37 velocity=0 time=29
the msg is control_change channel=8 control=11 value=65 time=19
the msg is control_change channel=8 control=11 value=64 time=8
the msg is note_on channel=8 note=37 velocity=120 time=4
the msg is control_change channel=8 control=11 value=63 time=4
the msg is control_change channel=8 control=11 value=62 time=16
the msg is note_on channel=8 note=37 velocity=0 time=9
the msg is control_change channel=8 control=11 value=61 time=7
the msg is control_change channel=8 control=11 value=60 time=8
the msg is control_change channel=8 control=11 value=59 time=16
the msg is note_on channel=8 note=37 velocity=120 time=0
the msg is control_change channel=8 control=11 value=58 time=16
the msg is control_change channel=8 control=11 value=57 time=16
the msg is control_change channel=8 control=11 value=56 time=16
the msg is note_on channel=8 note=37 velocity=0 time=11
the msg is control_change channel=8 control=11 value=55 time=21
the msg is control_change channel=8 control=11 value=54 time=8
the msg is note_on channel=8 note=35 velocity=120 time=2
the msg is control_change channel=8 control=11 value=53 time=14
the msg is note_on channel=8 note=35 velocity=0 time=15
the msg is control_change channel=8 control=11 value=51 time=9
the msg is note_on channel=8 note=35 velocity=120 time=22
the msg is control_change channel=8 control=11 value=49 time=2
the msg is control_change channel=8 control=11 value=48 time=16
the msg is note_on channel=8 note=35 velocity=0 time=11
the msg is note_on channel=8 note=37 velocity=120 time=1
the msg is control_change channel=8 control=11 value=46 time=4
the msg is control_change channel=8 control=11 value=44 time=16
the msg is control_change channel=8 control=11 value=43 time=16
the msg is control_change channel=8 control=11 value=42 time=16
the msg is note_on channel=8 note=37 velocity=0 time=7
the msg is note_on channel=8 note=35 velocity=120 time=1
the msg is control_change channel=8 control=11 value=41 time=0
the msg is control_change channel=8 control=11 value=40 time=8
the msg is control_change channel=8 control=11 value=38 time=8
the msg is control_change channel=8 control=11 value=35 time=24
the msg is note_on channel=8 note=35 velocity=0 time=19
the msg is note_on channel=8 note=32 velocity=120 time=1
the msg is control_change channel=8 control=11 value=34 time=12
the msg is control_change channel=8 control=11 value=33 time=24
the msg is note_on channel=8 note=32 velocity=0 time=23
the msg is note_on channel=8 note=30 velocity=120 time=1
the msg is note_on channel=8 note=30 velocity=0 time=29
the msg is control_change channel=8 control=11 value=32 time=19
the msg is note_on channel=8 note=30 velocity=120 time=12
the msg is control_change channel=8 control=11 value=30 time=12
the msg is control_change channel=8 control=11 value=29 time=16
the msg is note_on channel=8 note=30 velocity=0 time=1
the msg is control_change channel=8 control=11 value=28 time=15
the msg is control_change channel=8 control=11 value=27 time=8
the msg is note_on channel=8 note=30 velocity=120 time=8
the msg is control_change channel=8 control=11 value=26 time=24
the msg is control_change channel=8 control=11 value=25 time=16
the msg is note_on channel=8 note=30 velocity=0 time=19
the msg is note_on channel=8 note=35 velocity=120 time=1
the msg is control_change channel=8 control=11 value=24 time=4
the msg is control_change channel=8 control=11 value=23 time=8
the msg is control_change channel=8 control=11 value=22 time=8
the msg is control_change channel=8 control=11 value=21 time=8
the msg is note_on channel=8 note=35 velocity=0 time=1
the msg is note_on channel=8 note=37 velocity=120 time=1
the msg is control_change channel=8 control=11 value=20 time=6
the msg is note_on channel=8 note=37 velocity=0 time=23
the msg is note_on channel=8 note=40 velocity=120 time=1
the msg is control_change channel=8 control=11 value=17 time=8
the msg is control_change channel=8 control=11 value=16 time=32
the msg is note_on channel=8 note=40 velocity=0 time=19
the msg is note_on channel=8 note=40 velocity=120 time=1
the msg is control_change channel=8 control=11 value=14 time=4
the msg is control_change channel=8 control=11 value=13 time=16
the msg is control_change channel=8 control=11 value=12 time=8
the msg is note_on channel=8 note=40 velocity=0 time=1
the msg is note_on channel=8 note=42 velocity=120 time=1
the msg is control_change channel=8 control=11 value=11 time=6
the msg is control_change channel=8 control=11 value=10 time=32
the msg is control_change channel=8 control=11 value=9 time=8
the msg is note_on channel=8 note=42 velocity=0 time=13
the msg is note_on channel=8 note=42 velocity=120 time=1
the msg is control_change channel=8 control=11 value=8 time=2
the msg is control_change channel=8 control=11 value=6 time=16
the msg is control_change channel=8 control=11 value=5 time=8
the msg is note_on channel=8 note=42 velocity=0 time=3
the msg is note_on channel=8 note=40 velocity=120 time=1
the msg is control_change channel=8 control=11 value=4 time=4
the msg is control_change channel=8 control=11 value=3 time=8
the msg is control_change channel=8 control=11 value=2 time=8
the msg is control_change channel=8 control=11 value=1 time=16
the msg is control_change channel=8 control=11 value=0 time=8
the msg is note_on channel=8 note=40 velocity=0 time=15
the msg is note_on channel=8 note=30 velocity=120 time=1
the msg is note_on channel=8 note=30 velocity=0 time=29
the msg is <meta message end_of_track time=0>
the msg is control_change channel=10 control=0 value=0 time=0
the msg is program_change channel=10 program=29 time=0
the msg is <meta message sequencer_specific data=(74, 65, 90, 50, 1, 0, 0, 0, 0, 0, 0, 0, 0, 0, 0, 0, 0, 0, 0, 0) time=0>
the msg is <meta message midi_port port=0 time=0>
the msg is <meta message track_name name='Counter-Chorus' time=0>
the msg is note_on channel=10 note=49 velocity=65 time=6720
the msg is note_on channel=10 note=49 velocity=0 time=59
the msg is note_on channel=10 note=47 velocity=65 time=1
the msg is note_on channel=10 note=47 velocity=0 time=59
the msg is note_on channel=10 note=49 velocity=65 time=1
the msg is note_on channel=10 note=49 velocity=0 time=89
the msg is note_on channel=10 note=49 velocity=65 time=31
the msg is note_on channel=10 note=49 velocity=0 time=59
the msg is note_on channel=10 note=47 velocity=65 time=1
the msg is note_on channel=10 note=47 velocity=0 time=59
the msg is note_on channel=10 note=49 velocity=65 time=1
the msg is note_on channel=10 note=49 velocity=0 time=89
the msg is note_on channel=10 note=47 velocity=65 time=31
the msg is note_on channel=10 note=47 velocity=0 time=59
the msg is note_on channel=10 note=49 velocity=65 time=1
the msg is note_on channel=10 note=49 velocity=0 time=59
the msg is note_on channel=10 note=47 velocity=65 time=61
the msg is note_on channel=10 note=47 velocity=0 time=89
the msg is note_on channel=10 note=47 velocity=65 time=31
the msg is note_on channel=10 note=47 velocity=0 time=59
the msg is note_on channel=10 note=48 velocity=65 time=1
the msg is note_on channel=10 note=48 velocity=0 time=59
the msg is note_on channel=10 note=48 velocity=65 time=1
the msg is note_on channel=10 note=48 velocity=0 time=59
the msg is note_on channel=10 note=49 velocity=65 time=1
the msg is note_on channel=10 note=49 velocity=0 time=59
the msg is note_on channel=10 note=47 velocity=65 time=1
the msg is note_on channel=10 note=47 velocity=0 time=59
the msg is note_on channel=10 note=49 velocity=65 time=1
the msg is note_on channel=10 note=49 velocity=0 time=89
the msg is note_on channel=10 note=47 velocity=65 time=31
the msg is note_on channel=10 note=47 velocity=0 time=59
the msg is note_on channel=10 note=49 velocity=65 time=1
the msg is note_on channel=10 note=49 velocity=0 time=329
the msg is note_on channel=10 note=49 velocity=65 time=331
the msg is note_on channel=10 note=49 velocity=0 time=59
the msg is note_on channel=10 note=47 velocity=65 time=1
the msg is note_on channel=10 note=47 velocity=0 time=59
the msg is note_on channel=10 note=49 velocity=65 time=1
the msg is note_on channel=10 note=49 velocity=0 time=89
the msg is note_on channel=10 note=49 velocity=65 time=31
the msg is note_on channel=10 note=49 velocity=0 time=59
the msg is note_on channel=10 note=47 velocity=65 time=1
the msg is note_on channel=10 note=47 velocity=0 time=59
the msg is note_on channel=10 note=49 velocity=65 time=1
the msg is note_on channel=10 note=49 velocity=0 time=89
the msg is note_on channel=10 note=47 velocity=65 time=31
the msg is note_on channel=10 note=47 velocity=0 time=59
the msg is note_on channel=10 note=49 velocity=65 time=1
the msg is note_on channel=10 note=49 velocity=0 time=89
the msg is note_on channel=10 note=47 velocity=65 time=31
the msg is note_on channel=10 note=47 velocity=0 time=89
the msg is note_on channel=10 note=47 velocity=65 time=31
the msg is note_on channel=10 note=47 velocity=0 time=59
the msg is note_on channel=10 note=48 velocity=65 time=1
the msg is note_on channel=10 note=48 velocity=0 time=59
the msg is note_on channel=10 note=48 velocity=65 time=1
the msg is note_on channel=10 note=48 velocity=0 time=59
the msg is note_on channel=10 note=49 velocity=65 time=1
the msg is note_on channel=10 note=49 velocity=0 time=59
the msg is note_on channel=10 note=47 velocity=65 time=1
the msg is note_on channel=10 note=47 velocity=0 time=59
the msg is note_on channel=10 note=49 velocity=65 time=1
the msg is note_on channel=10 note=49 velocity=0 time=89
the msg is note_on channel=10 note=49 velocity=65 time=31
the msg is note_on channel=10 note=49 velocity=0 time=59
the msg is note_on channel=10 note=47 velocity=65 time=1
the msg is note_on channel=10 note=47 velocity=0 time=59
the msg is note_on channel=10 note=49 velocity=65 time=1
the msg is note_on channel=10 note=49 velocity=0 time=89
the msg is note_on channel=10 note=47 velocity=65 time=31
the msg is note_on channel=10 note=47 velocity=0 time=59
the msg is note_on channel=10 note=49 velocity=65 time=1
the msg is note_on channel=10 note=49 velocity=0 time=89
the msg is note_on channel=10 note=49 velocity=65 time=2251
the msg is note_on channel=10 note=49 velocity=0 time=59
the msg is note_on channel=10 note=47 velocity=65 time=1
the msg is note_on channel=10 note=47 velocity=0 time=59
the msg is note_on channel=10 note=49 velocity=65 time=1
the msg is note_on channel=10 note=49 velocity=0 time=89
the msg is note_on channel=10 note=47 velocity=65 time=31
the msg is note_on channel=10 note=47 velocity=0 time=59
the msg is note_on channel=10 note=49 velocity=65 time=1
the msg is note_on channel=10 note=49 velocity=0 time=329
the msg is note_on channel=10 note=47 velocity=65 time=31
the msg is note_on channel=10 note=47 velocity=0 time=89
the msg is note_on channel=10 note=47 velocity=65 time=31
the msg is note_on channel=10 note=47 velocity=0 time=59
the msg is note_on channel=10 note=48 velocity=65 time=1
the msg is note_on channel=10 note=48 velocity=0 time=59
the msg is note_on channel=10 note=48 velocity=65 time=1
the msg is note_on channel=10 note=48 velocity=0 time=59
the msg is note_on channel=10 note=49 velocity=65 time=1
the msg is note_on channel=10 note=49 velocity=0 time=59
the msg is note_on channel=10 note=47 velocity=65 time=1
the msg is note_on channel=10 note=47 velocity=0 time=59
the msg is note_on channel=10 note=49 velocity=65 time=1
the msg is note_on channel=10 note=49 velocity=0 time=89
the msg is note_on channel=10 note=49 velocity=65 time=31
the msg is note_on channel=10 note=49 velocity=0 time=59
the msg is note_on channel=10 note=47 velocity=65 time=1
the msg is note_on channel=10 note=47 velocity=0 time=59
the msg is note_on channel=10 note=49 velocity=65 time=1
the msg is note_on channel=10 note=49 velocity=0 time=89
the msg is note_on channel=10 note=47 velocity=65 time=31
the msg is note_on channel=10 note=47 velocity=0 time=59
the msg is note_on channel=10 note=49 velocity=65 time=1
the msg is note_on channel=10 note=49 velocity=0 time=89
the msg is note_on channel=10 note=49 velocity=65 time=331
the msg is note_on channel=10 note=49 velocity=0 time=59
the msg is note_on channel=10 note=47 velocity=65 time=1
the msg is note_on channel=10 note=47 velocity=0 time=59
the msg is note_on channel=10 note=49 velocity=65 time=1
the msg is note_on channel=10 note=49 velocity=0 time=89
the msg is note_on channel=10 note=49 velocity=65 time=31
the msg is note_on channel=10 note=49 velocity=0 time=59
the msg is note_on channel=10 note=47 velocity=65 time=1
the msg is note_on channel=10 note=47 velocity=0 time=59
the msg is note_on channel=10 note=49 velocity=65 time=1
the msg is note_on channel=10 note=49 velocity=0 time=89
the msg is note_on channel=10 note=47 velocity=65 time=31
the msg is note_on channel=10 note=47 velocity=0 time=59
the msg is note_on channel=10 note=49 velocity=65 time=1
the msg is note_on channel=10 note=49 velocity=0 time=89
the msg is note_on channel=10 note=47 velocity=65 time=31
the msg is note_on channel=10 note=47 velocity=0 time=89
the msg is note_on channel=10 note=47 velocity=65 time=31
the msg is note_on channel=10 note=47 velocity=0 time=59
the msg is note_on channel=10 note=48 velocity=65 time=1
the msg is note_on channel=10 note=48 velocity=0 time=59
the msg is note_on channel=10 note=48 velocity=65 time=1
the msg is note_on channel=10 note=48 velocity=0 time=59
the msg is note_on channel=10 note=49 velocity=65 time=1
the msg is note_on channel=10 note=49 velocity=0 time=59
the msg is note_on channel=10 note=47 velocity=65 time=1
the msg is note_on channel=10 note=47 velocity=0 time=59
the msg is note_on channel=10 note=49 velocity=65 time=1
the msg is note_on channel=10 note=49 velocity=0 time=89
the msg is note_on channel=10 note=47 velocity=65 time=31
the msg is note_on channel=10 note=47 velocity=0 time=59
the msg is note_on channel=10 note=49 velocity=65 time=1
the msg is note_on channel=10 note=49 velocity=0 time=329
the msg is note_on channel=10 note=49 velocity=65 time=8971
the msg is note_on channel=10 note=49 velocity=0 time=59
the msg is note_on channel=10 note=47 velocity=65 time=1
the msg is note_on channel=10 note=47 velocity=0 time=59
the msg is note_on channel=10 note=49 velocity=65 time=1
the msg is note_on channel=10 note=49 velocity=0 time=89
the msg is note_on channel=10 note=49 velocity=65 time=31
the msg is note_on channel=10 note=49 velocity=0 time=59
the msg is note_on channel=10 note=47 velocity=65 time=1
the msg is note_on channel=10 note=47 velocity=0 time=59
the msg is note_on channel=10 note=49 velocity=65 time=1
the msg is note_on channel=10 note=49 velocity=0 time=89
the msg is note_on channel=10 note=47 velocity=65 time=31
the msg is note_on channel=10 note=47 velocity=0 time=59
the msg is note_on channel=10 note=49 velocity=65 time=1
the msg is note_on channel=10 note=49 velocity=0 time=59
the msg is note_on channel=10 note=47 velocity=65 time=61
the msg is note_on channel=10 note=47 velocity=0 time=89
the msg is note_on channel=10 note=47 velocity=65 time=31
the msg is note_on channel=10 note=47 velocity=0 time=59
the msg is note_on channel=10 note=48 velocity=65 time=1
the msg is note_on channel=10 note=48 velocity=0 time=59
the msg is note_on channel=10 note=48 velocity=65 time=1
the msg is note_on channel=10 note=48 velocity=0 time=59
the msg is note_on channel=10 note=49 velocity=65 time=1
the msg is note_on channel=10 note=49 velocity=0 time=59
the msg is note_on channel=10 note=47 velocity=65 time=1
the msg is note_on channel=10 note=47 velocity=0 time=59
the msg is note_on channel=10 note=49 velocity=65 time=1
the msg is note_on channel=10 note=49 velocity=0 time=89
the msg is note_on channel=10 note=47 velocity=65 time=31
the msg is note_on channel=10 note=47 velocity=0 time=59
the msg is note_on channel=10 note=49 velocity=65 time=1
the msg is note_on channel=10 note=49 velocity=0 time=329
the msg is note_on channel=10 note=49 velocity=65 time=331
the msg is note_on channel=10 note=49 velocity=0 time=59
the msg is note_on channel=10 note=47 velocity=65 time=1
the msg is note_on channel=10 note=47 velocity=0 time=59
the msg is note_on channel=10 note=49 velocity=65 time=1
the msg is note_on channel=10 note=49 velocity=0 time=89
the msg is note_on channel=10 note=49 velocity=65 time=31
the msg is note_on channel=10 note=49 velocity=0 time=59
the msg is note_on channel=10 note=47 velocity=65 time=1
the msg is note_on channel=10 note=47 velocity=0 time=59
the msg is note_on channel=10 note=49 velocity=65 time=1
the msg is note_on channel=10 note=49 velocity=0 time=89
the msg is note_on channel=10 note=47 velocity=65 time=31
the msg is note_on channel=10 note=47 velocity=0 time=59
the msg is note_on channel=10 note=49 velocity=65 time=1
the msg is note_on channel=10 note=49 velocity=0 time=89
the msg is note_on channel=10 note=47 velocity=65 time=31
the msg is note_on channel=10 note=47 velocity=0 time=89
the msg is note_on channel=10 note=47 velocity=65 time=31
the msg is note_on channel=10 note=47 velocity=0 time=59
the msg is note_on channel=10 note=48 velocity=65 time=1
the msg is note_on channel=10 note=48 velocity=0 time=59
the msg is note_on channel=10 note=48 velocity=65 time=1
the msg is note_on channel=10 note=48 velocity=0 time=59
the msg is note_on channel=10 note=49 velocity=65 time=1
the msg is note_on channel=10 note=49 velocity=0 time=59
the msg is note_on channel=10 note=47 velocity=65 time=1
the msg is note_on channel=10 note=47 velocity=0 time=59
the msg is note_on channel=10 note=49 velocity=65 time=1
the msg is note_on channel=10 note=49 velocity=0 time=89
the msg is note_on channel=10 note=49 velocity=65 time=31
the msg is note_on channel=10 note=49 velocity=0 time=59
the msg is note_on channel=10 note=47 velocity=65 time=1
the msg is note_on channel=10 note=47 velocity=0 time=59
the msg is note_on channel=10 note=49 velocity=65 time=1
the msg is note_on channel=10 note=49 velocity=0 time=89
the msg is note_on channel=10 note=47 velocity=65 time=31
the msg is note_on channel=10 note=47 velocity=0 time=59
the msg is note_on channel=10 note=49 velocity=65 time=1
the msg is note_on channel=10 note=49 velocity=0 time=89
the msg is note_on channel=10 note=49 velocity=65 time=2251
the msg is note_on channel=10 note=49 velocity=0 time=59
the msg is note_on channel=10 note=47 velocity=65 time=1
the msg is note_on channel=10 note=47 velocity=0 time=59
the msg is note_on channel=10 note=49 velocity=65 time=1
the msg is note_on channel=10 note=49 velocity=0 time=89
the msg is note_on channel=10 note=47 velocity=65 time=31
the msg is note_on channel=10 note=47 velocity=0 time=59
the msg is note_on channel=10 note=49 velocity=65 time=1
the msg is note_on channel=10 note=49 velocity=0 time=329
the msg is note_on channel=10 note=47 velocity=65 time=31
the msg is note_on channel=10 note=47 velocity=0 time=89
the msg is note_on channel=10 note=47 velocity=65 time=31
the msg is note_on channel=10 note=47 velocity=0 time=59
the msg is note_on channel=10 note=48 velocity=65 time=1
the msg is note_on channel=10 note=48 velocity=0 time=59
the msg is note_on channel=10 note=48 velocity=65 time=1
the msg is note_on channel=10 note=48 velocity=0 time=59
the msg is note_on channel=10 note=49 velocity=65 time=1
the msg is note_on channel=10 note=49 velocity=0 time=59
the msg is note_on channel=10 note=47 velocity=65 time=1
the msg is note_on channel=10 note=47 velocity=0 time=59
the msg is note_on channel=10 note=49 velocity=65 time=1
the msg is note_on channel=10 note=49 velocity=0 time=89
the msg is note_on channel=10 note=49 velocity=65 time=31
the msg is note_on channel=10 note=49 velocity=0 time=59
the msg is note_on channel=10 note=47 velocity=65 time=1
the msg is note_on channel=10 note=47 velocity=0 time=59
the msg is note_on channel=10 note=49 velocity=65 time=1
the msg is note_on channel=10 note=49 velocity=0 time=89
the msg is note_on channel=10 note=47 velocity=65 time=31
the msg is note_on channel=10 note=47 velocity=0 time=59
the msg is note_on channel=10 note=49 velocity=65 time=1
the msg is note_on channel=10 note=49 velocity=0 time=89
the msg is note_on channel=10 note=49 velocity=65 time=331
the msg is note_on channel=10 note=49 velocity=0 time=59
the msg is note_on channel=10 note=47 velocity=65 time=1
the msg is note_on channel=10 note=47 velocity=0 time=59
the msg is note_on channel=10 note=49 velocity=65 time=1
the msg is note_on channel=10 note=49 velocity=0 time=89
the msg is note_on channel=10 note=49 velocity=65 time=31
the msg is note_on channel=10 note=49 velocity=0 time=59
the msg is note_on channel=10 note=47 velocity=65 time=1
the msg is note_on channel=10 note=47 velocity=0 time=59
the msg is note_on channel=10 note=49 velocity=65 time=1
the msg is note_on channel=10 note=49 velocity=0 time=89
the msg is note_on channel=10 note=47 velocity=65 time=31
the msg is note_on channel=10 note=47 velocity=0 time=59
the msg is note_on channel=10 note=49 velocity=65 time=1
the msg is note_on channel=10 note=49 velocity=0 time=89
the msg is note_on channel=10 note=47 velocity=65 time=31
the msg is note_on channel=10 note=47 velocity=0 time=89
the msg is note_on channel=10 note=47 velocity=65 time=31
the msg is note_on channel=10 note=47 velocity=0 time=59
the msg is note_on channel=10 note=48 velocity=65 time=1
the msg is note_on channel=10 note=48 velocity=0 time=59
the msg is note_on channel=10 note=48 velocity=65 time=1
the msg is note_on channel=10 note=48 velocity=0 time=59
the msg is note_on channel=10 note=49 velocity=65 time=1
the msg is note_on channel=10 note=49 velocity=0 time=59
the msg is note_on channel=10 note=47 velocity=65 time=1
the msg is note_on channel=10 note=47 velocity=0 time=59
the msg is note_on channel=10 note=49 velocity=65 time=1
the msg is note_on channel=10 note=49 velocity=0 time=89
the msg is note_on channel=10 note=47 velocity=65 time=31
the msg is note_on channel=10 note=47 velocity=0 time=59
the msg is note_on channel=10 note=49 velocity=65 time=1
the msg is note_on channel=10 note=49 velocity=0 time=329
the msg is <meta message end_of_track time=0>
the msg is control_change channel=11 control=0 value=0 time=0
the msg is program_change channel=11 program=31 time=0
the msg is <meta message sequencer_specific data=(74, 65, 90, 50, 1, 0, 0, 0, 0, 0, 0, 0, 0, 0, 0, 0, 0, 0, 0, 0) time=0>
the msg is <meta message track_name name='Harmonics' time=0>
the msg is <meta message midi_port port=0 time=0>
the msg is note_on channel=11 note=52 velocity=110 time=10260
the msg is pitchwheel channel=11 pitch=-371 time=180
the msg is pitchwheel channel=11 pitch=-744 time=8
the msg is pitchwheel channel=11 pitch=-1116 time=8
the msg is pitchwheel channel=11 pitch=-1861 time=8
the msg is pitchwheel channel=11 pitch=-2791 time=8
the msg is pitchwheel channel=11 pitch=-3536 time=8
the msg is pitchwheel channel=11 pitch=-4095 time=8
the msg is pitchwheel channel=11 pitch=-4653 time=8
the msg is pitchwheel channel=11 pitch=-5025 time=8
the msg is pitchwheel channel=11 pitch=-5584 time=8
the msg is pitchwheel channel=11 pitch=-5956 time=8
the msg is pitchwheel channel=11 pitch=-6515 time=8
the msg is pitchwheel channel=11 pitch=-7259 time=8
the msg is pitchwheel channel=11 pitch=-8191 time=8
the msg is note_on channel=11 note=52 velocity=0 time=15
the msg is pitchwheel channel=11 pitch=0 time=1
the msg is note_on channel=11 note=52 velocity=110 time=5460
the msg is pitchwheel channel=11 pitch=-557 time=180
the msg is pitchwheel channel=11 pitch=-930 time=8
the msg is pitchwheel channel=11 pitch=-1302 time=8
the msg is pitchwheel channel=11 pitch=-1861 time=8
the msg is pitchwheel channel=11 pitch=-2605 time=8
the msg is pitchwheel channel=11 pitch=-3350 time=8
the msg is pitchwheel channel=11 pitch=-4653 time=8
the msg is pitchwheel channel=11 pitch=-5211 time=8
the msg is pitchwheel channel=11 pitch=-5584 time=8
the msg is pitchwheel channel=11 pitch=-6142 time=8
the msg is pitchwheel channel=11 pitch=-6701 time=8
the msg is pitchwheel channel=11 pitch=-7259 time=8
the msg is pitchwheel channel=11 pitch=-7632 time=8
the msg is pitchwheel channel=11 pitch=-8190 time=8
the msg is pitchwheel channel=11 pitch=-8191 time=8
the msg is note_on channel=11 note=52 velocity=0 time=7
the msg is pitchwheel channel=11 pitch=0 time=9
the msg is note_on channel=11 note=52 velocity=110 time=12172
the msg is pitchwheel channel=11 pitch=-1302 time=180
the msg is pitchwheel channel=11 pitch=-1674 time=8
the msg is pitchwheel channel=11 pitch=-2233 time=8
the msg is pitchwheel channel=11 pitch=-2605 time=8
the msg is pitchwheel channel=11 pitch=-2978 time=8
the msg is pitchwheel channel=11 pitch=-3350 time=8
the msg is pitchwheel channel=11 pitch=-3722 time=8
the msg is pitchwheel channel=11 pitch=-4281 time=8
the msg is pitchwheel channel=11 pitch=-4653 time=8
the msg is pitchwheel channel=11 pitch=-5211 time=8
the msg is pitchwheel channel=11 pitch=-5770 time=8
the msg is pitchwheel channel=11 pitch=-6328 time=8
the msg is pitchwheel channel=11 pitch=-6887 time=8
the msg is pitchwheel channel=11 pitch=-8191 time=8
the msg is note_on channel=11 note=52 velocity=0 time=15
the msg is pitchwheel channel=11 pitch=-8190 time=1
the msg is pitchwheel channel=11 pitch=-7818 time=8
the msg is pitchwheel channel=11 pitch=0 time=8
the msg is note_on channel=11 note=52 velocity=110 time=5444
the msg is pitchwheel channel=11 pitch=-371 time=172
the msg is pitchwheel channel=11 pitch=-744 time=8
the msg is pitchwheel channel=11 pitch=-1302 time=8
the msg is pitchwheel channel=11 pitch=-1861 time=8
the msg is pitchwheel channel=11 pitch=-2233 time=8
the msg is pitchwheel channel=11 pitch=-2605 time=8
the msg is pitchwheel channel=11 pitch=-3164 time=8
the msg is pitchwheel channel=11 pitch=-3536 time=8
the msg is pitchwheel channel=11 pitch=-3908 time=8
the msg is pitchwheel channel=11 pitch=-4281 time=8
the msg is pitchwheel channel=11 pitch=-4653 time=8
the msg is pitchwheel channel=11 pitch=-5211 time=8
the msg is pitchwheel channel=11 pitch=-5770 time=8
the msg is pitchwheel channel=11 pitch=-6328 time=8
the msg is pitchwheel channel=11 pitch=-6887 time=8
the msg is pitchwheel channel=11 pitch=-8191 time=8
the msg is note_on channel=11 note=52 velocity=0 time=7
the msg is pitchwheel channel=11 pitch=-8004 time=1
the msg is pitchwheel channel=11 pitch=0 time=8
the msg is <meta message end_of_track time=0>
the msg is control_change channel=0 control=0 value=0 time=0
the msg is <meta message sequencer_specific data=(74, 65, 90, 50, 1, 0, 0, 0, 0, 0, 0, 0, 0, 0, 0, 0, 0, 0, 0, 0) time=0>
the msg is <meta message track_name name='Final Egg: Mechanical Resonance - Sonic Adventure -- Dreamcast' time=0>
the msg is <meta message end_of_track time=0>
the msg is <meta message sequencer_specific data=(74, 65, 90, 50, 1, 0, 0, 0, 0, 0, 0, 0, 0, 0, 0, 0, 0, 0, 0, 0) time=0>
the msg is <meta message end_of_track time=0>
the msg is control_change channel=0 control=0 value=0 time=0
the msg is <meta message sequencer_specific data=(74, 65, 90, 50, 1, 0, 0, 0, 0, 0, 0, 0, 0, 0, 0, 0, 0, 0, 0, 0) time=0>
the msg is <meta message track_name name='Composed by: Jun Senoue' time=0>
the msg is <meta message end_of_track time=0>
the msg is control_change channel=0 control=0 value=0 time=0
the msg is <meta message sequencer_specific data=(74, 65, 90, 50, 1, 0, 0, 0, 0, 0, 0, 0, 0, 0, 0, 0, 0, 0, 0, 0) time=0>
the msg is <meta message track_name name='Sequenced by: Talismon2k1 (aka Andre Levy)' time=0>
the msg is <meta message end_of_track time=0>
the msg is control_change channel=0 control=0 value=0 time=0
the msg is <meta message sequencer_specific data=(74, 65, 90, 50, 1, 0, 0, 0, 0, 0, 0, 0, 0, 0, 0, 0, 0, 0, 0, 0) time=0>
the msg is <meta message track_name name='Email: ninjakitten2k1@yahoo.ca' time=0>
the msg is <meta message end_of_track time=0>
