 i : 0the msg is <meta message smpte_offset frame_rate=25 hours=32 minutes=0 seconds=3 frames=0 sub_frames=0 time=0>
 i : 0the msg is <meta message time_signature numerator=4 denominator=4 clocks_per_click=24 notated_32nd_notes_per_beat=8 time=0>
 i : 0the msg is <meta message key_signature key='D' time=0>
 i : 0the msg is <meta message set_tempo tempo=500000 time=0>
 i : 0the msg is <meta message marker text='I HEARD IT FROM THE GRAPEVINE - Marvin Gaye' time=0>
 i : 0the msg is <meta message end_of_track time=0>
 i : 1the msg is <meta message midi_port port=0 time=0>
 i : 1the msg is <meta message track_name name='Melody' time=0>
 i : 1the msg is program_change channel=3 program=63 time=0
 i : 1the msg is control_change channel=3 control=7 value=110 time=0
 i : 1the msg is control_change channel=3 control=10 value=64 time=0
 i : 1the msg is control_change channel=3 control=121 value=0 time=0
 i : 1the msg is control_change channel=3 control=91 value=100 time=0
 i : 1the msg is note_on channel=3 note=65 velocity=100 time=30720
 i : 1the msg is note_on channel=3 note=65 velocity=0 time=239
 i : 1the msg is note_on channel=3 note=62 velocity=100 time=1
 i : 1the msg is note_on channel=3 note=62 velocity=0 time=239
 i : 1the msg is note_on channel=3 note=62 velocity=100 time=1
 i : 1the msg is note_on channel=3 note=62 velocity=0 time=239
 i : 1the msg is note_on channel=3 note=62 velocity=100 time=1
 i : 1the msg is note_on channel=3 note=62 velocity=0 time=239
 i : 1the msg is note_on channel=3 note=65 velocity=100 time=1
 i : 1the msg is note_on channel=3 note=65 velocity=0 time=239
 i : 1the msg is note_on channel=3 note=62 velocity=100 time=1
 i : 1the msg is note_on channel=3 note=62 velocity=0 time=239
 i : 1the msg is note_on channel=3 note=62 velocity=100 time=1
 i : 1the msg is note_on channel=3 note=62 velocity=0 time=480
 i : 1the msg is note_on channel=3 note=62 velocity=100 time=960
 i : 1the msg is note_on channel=3 note=62 velocity=0 time=239
 i : 1the msg is note_on channel=3 note=62 velocity=100 time=1
 i : 1the msg is note_on channel=3 note=62 velocity=0 time=239
 i : 1the msg is note_on channel=3 note=64 velocity=100 time=241
 i : 1the msg is note_on channel=3 note=64 velocity=0 time=239
 i : 1the msg is note_on channel=3 note=64 velocity=100 time=721
 i : 1the msg is note_on channel=3 note=64 velocity=0 time=239
 i : 1the msg is note_on channel=3 note=64 velocity=100 time=1
 i : 1the msg is note_on channel=3 note=64 velocity=0 time=239
 i : 1the msg is note_on channel=3 note=59 velocity=100 time=1
 i : 1the msg is note_on channel=3 note=59 velocity=0 time=239
 i : 1the msg is note_on channel=3 note=62 velocity=100 time=1
 i : 1the msg is note_on channel=3 note=62 velocity=0 time=239
 i : 1the msg is note_on channel=3 note=62 velocity=100 time=961
 i : 1the msg is note_on channel=3 note=62 velocity=0 time=239
 i : 1the msg is note_on channel=3 note=62 velocity=100 time=1
 i : 1the msg is note_on channel=3 note=62 velocity=0 time=239
 i : 1the msg is note_on channel=3 note=62 velocity=100 time=1
 i : 1the msg is note_on channel=3 note=62 velocity=0 time=239
 i : 1the msg is note_on channel=3 note=62 velocity=100 time=1
 i : 1the msg is note_on channel=3 note=62 velocity=0 time=239
 i : 1the msg is note_on channel=3 note=74 velocity=100 time=1
 i : 1the msg is note_on channel=3 note=74 velocity=0 time=720
 i : 1the msg is note_on channel=3 note=62 velocity=100 time=0
 i : 1the msg is note_on channel=3 note=62 velocity=0 time=239
 i : 1the msg is note_on channel=3 note=62 velocity=100 time=1
 i : 1the msg is note_on channel=3 note=62 velocity=0 time=239
 i : 1the msg is note_on channel=3 note=65 velocity=100 time=1
 i : 1the msg is note_on channel=3 note=65 velocity=0 time=239
 i : 1the msg is note_on channel=3 note=62 velocity=100 time=1
 i : 1the msg is note_on channel=3 note=62 velocity=0 time=239
 i : 1the msg is note_on channel=3 note=65 velocity=100 time=1
 i : 1the msg is note_on channel=3 note=65 velocity=0 time=480
 i : 1the msg is note_on channel=3 note=62 velocity=100 time=240
 i : 1the msg is note_on channel=3 note=62 velocity=0 time=239
 i : 1the msg is note_on channel=3 note=62 velocity=100 time=1
 i : 1the msg is note_on channel=3 note=62 velocity=0 time=239
 i : 1the msg is note_on channel=3 note=62 velocity=100 time=1
 i : 1the msg is note_on channel=3 note=62 velocity=0 time=239
 i : 1the msg is note_on channel=3 note=62 velocity=100 time=1
 i : 1the msg is note_on channel=3 note=62 velocity=0 time=239
 i : 1the msg is note_on channel=3 note=62 velocity=100 time=1
 i : 1the msg is note_on channel=3 note=62 velocity=0 time=239
 i : 1the msg is note_on channel=3 note=62 velocity=100 time=1
 i : 1the msg is note_on channel=3 note=62 velocity=0 time=239
 i : 1the msg is note_on channel=3 note=64 velocity=100 time=1
 i : 1the msg is note_on channel=3 note=64 velocity=0 time=239
 i : 1the msg is note_on channel=3 note=64 velocity=100 time=241
 i : 1the msg is note_on channel=3 note=64 velocity=0 time=239
 i : 1the msg is note_on channel=3 note=64 velocity=100 time=1
 i : 1the msg is note_on channel=3 note=64 velocity=0 time=239
 i : 1the msg is note_on channel=3 note=64 velocity=100 time=1
 i : 1the msg is note_on channel=3 note=64 velocity=0 time=239
 i : 1the msg is note_on channel=3 note=64 velocity=100 time=1
 i : 1the msg is note_on channel=3 note=64 velocity=0 time=239
 i : 1the msg is note_on channel=3 note=59 velocity=100 time=1
 i : 1the msg is note_on channel=3 note=59 velocity=0 time=239
 i : 1the msg is note_on channel=3 note=62 velocity=100 time=1
 i : 1the msg is note_on channel=3 note=62 velocity=0 time=239
 i : 1the msg is note_on channel=3 note=62 velocity=100 time=961
 i : 1the msg is note_on channel=3 note=62 velocity=0 time=239
 i : 1the msg is note_on channel=3 note=62 velocity=100 time=1
 i : 1the msg is note_on channel=3 note=62 velocity=0 time=239
 i : 1the msg is note_on channel=3 note=62 velocity=100 time=1
 i : 1the msg is note_on channel=3 note=62 velocity=0 time=239
 i : 1the msg is note_on channel=3 note=62 velocity=100 time=1
 i : 1the msg is note_on channel=3 note=62 velocity=0 time=239
 i : 1the msg is note_on channel=3 note=62 velocity=100 time=1
 i : 1the msg is note_on channel=3 note=62 velocity=0 time=239
 i : 1the msg is note_on channel=3 note=71 velocity=100 time=1
 i : 1the msg is note_on channel=3 note=71 velocity=0 time=480
 i : 1the msg is note_on channel=3 note=69 velocity=100 time=0
 i : 1the msg is note_on channel=3 note=69 velocity=0 time=480
 i : 1the msg is note_on channel=3 note=65 velocity=100 time=0
 i : 1the msg is note_on channel=3 note=64 velocity=100 time=236
 i : 1the msg is note_on channel=3 note=65 velocity=0 time=3
 i : 1the msg is note_on channel=3 note=64 velocity=0 time=477
 i : 1the msg is note_on channel=3 note=62 velocity=100 time=4
 i : 1the msg is note_on channel=3 note=62 velocity=0 time=239
 i : 1the msg is note_on channel=3 note=62 velocity=100 time=961
 i : 1the msg is note_on channel=3 note=62 velocity=0 time=239
 i : 1the msg is note_on channel=3 note=62 velocity=100 time=1
 i : 1the msg is note_on channel=3 note=62 velocity=0 time=239
 i : 1the msg is note_on channel=3 note=62 velocity=100 time=1
 i : 1the msg is note_on channel=3 note=62 velocity=0 time=239
 i : 1the msg is note_on channel=3 note=71 velocity=100 time=1
 i : 1the msg is note_on channel=3 note=71 velocity=0 time=720
 i : 1the msg is note_on channel=3 note=69 velocity=100 time=0
 i : 1the msg is note_on channel=3 note=69 velocity=0 time=480
 i : 1the msg is note_on channel=3 note=65 velocity=100 time=0
 i : 1the msg is note_on channel=3 note=65 velocity=0 time=239
 i : 1the msg is note_on channel=3 note=64 velocity=100 time=1
 i : 1the msg is note_on channel=3 note=64 velocity=0 time=239
 i : 1the msg is note_on channel=3 note=62 velocity=100 time=241
 i : 1the msg is note_on channel=3 note=62 velocity=0 time=239
 i : 1the msg is note_on channel=3 note=67 velocity=100 time=1201
 i : 1the msg is note_on channel=3 note=67 velocity=0 time=239
 i : 1the msg is note_on channel=3 note=67 velocity=100 time=1
 i : 1the msg is note_on channel=3 note=67 velocity=0 time=239
 i : 1the msg is note_on channel=3 note=65 velocity=100 time=1
 i : 1the msg is note_on channel=3 note=65 velocity=0 time=239
 i : 1the msg is note_on channel=3 note=62 velocity=100 time=241
 i : 1the msg is note_on channel=3 note=62 velocity=0 time=239
 i : 1the msg is note_on channel=3 note=65 velocity=100 time=1
 i : 1the msg is note_on channel=3 note=65 velocity=0 time=239
 i : 1the msg is note_on channel=3 note=62 velocity=100 time=1
 i : 1the msg is note_on channel=3 note=62 velocity=0 time=239
 i : 1the msg is note_on channel=3 note=65 velocity=100 time=1
 i : 1the msg is note_on channel=3 note=65 velocity=0 time=239
 i : 1the msg is note_on channel=3 note=62 velocity=100 time=241
 i : 1the msg is note_on channel=3 note=62 velocity=0 time=239
 i : 1the msg is note_on channel=3 note=65 velocity=100 time=1201
 i : 1the msg is note_on channel=3 note=65 velocity=0 time=239
 i : 1the msg is note_on channel=3 note=65 velocity=100 time=1
 i : 1the msg is note_on channel=3 note=65 velocity=0 time=239
 i : 1the msg is note_on channel=3 note=67 velocity=100 time=241
 i : 1the msg is note_on channel=3 note=67 velocity=0 time=239
 i : 1the msg is note_on channel=3 note=67 velocity=100 time=241
 i : 1the msg is note_on channel=3 note=67 velocity=0 time=239
 i : 1the msg is note_on channel=3 note=67 velocity=100 time=1
 i : 1the msg is note_on channel=3 note=67 velocity=0 time=239
 i : 1the msg is note_on channel=3 note=65 velocity=100 time=1
 i : 1the msg is note_on channel=3 note=65 velocity=0 time=239
 i : 1the msg is note_on channel=3 note=67 velocity=100 time=1
 i : 1the msg is note_on channel=3 note=67 velocity=0 time=239
 i : 1the msg is note_on channel=3 note=62 velocity=100 time=241
 i : 1the msg is note_on channel=3 note=62 velocity=0 time=239
 i : 1the msg is note_on channel=3 note=67 velocity=100 time=1201
 i : 1the msg is note_on channel=3 note=67 velocity=0 time=239
 i : 1the msg is note_on channel=3 note=67 velocity=100 time=1
 i : 1the msg is note_on channel=3 note=67 velocity=0 time=239
 i : 1the msg is note_on channel=3 note=65 velocity=100 time=241
 i : 1the msg is note_on channel=3 note=65 velocity=0 time=239
 i : 1the msg is note_on channel=3 note=62 velocity=100 time=241
 i : 1the msg is note_on channel=3 note=62 velocity=0 time=239
 i : 1the msg is note_on channel=3 note=65 velocity=100 time=1
 i : 1the msg is note_on channel=3 note=65 velocity=0 time=239
 i : 1the msg is note_on channel=3 note=62 velocity=100 time=1
 i : 1the msg is note_on channel=3 note=62 velocity=0 time=239
 i : 1the msg is note_on channel=3 note=65 velocity=100 time=1
 i : 1the msg is note_on channel=3 note=65 velocity=0 time=239
 i : 1the msg is note_on channel=3 note=62 velocity=100 time=241
 i : 1the msg is note_on channel=3 note=62 velocity=0 time=239
 i : 1the msg is note_on channel=3 note=65 velocity=100 time=961
 i : 1the msg is note_on channel=3 note=65 velocity=0 time=239
 i : 1the msg is note_on channel=3 note=65 velocity=100 time=1
 i : 1the msg is note_on channel=3 note=65 velocity=0 time=239
 i : 1the msg is note_on channel=3 note=65 velocity=100 time=1
 i : 1the msg is note_on channel=3 note=65 velocity=0 time=239
 i : 1the msg is note_on channel=3 note=65 velocity=100 time=1
 i : 1the msg is note_on channel=3 note=65 velocity=0 time=239
 i : 1the msg is note_on channel=3 note=67 velocity=100 time=1
 i : 1the msg is note_on channel=3 note=67 velocity=0 time=239
 i : 1the msg is note_on channel=3 note=67 velocity=100 time=721
 i : 1the msg is note_on channel=3 note=67 velocity=0 time=239
 i : 1the msg is note_on channel=3 note=67 velocity=100 time=1
 i : 1the msg is note_on channel=3 note=67 velocity=0 time=239
 i : 1the msg is note_on channel=3 note=62 velocity=100 time=1
 i : 1the msg is note_on channel=3 note=62 velocity=0 time=239
 i : 1the msg is note_on channel=3 note=65 velocity=100 time=1
 i : 1the msg is note_on channel=3 note=65 velocity=0 time=480
 i : 1the msg is note_on channel=3 note=62 velocity=100 time=480
 i : 1the msg is note_on channel=3 note=62 velocity=0 time=239
 i : 1the msg is note_on channel=3 note=62 velocity=100 time=1
 i : 1the msg is note_on channel=3 note=62 velocity=0 time=239
 i : 1the msg is note_on channel=3 note=65 velocity=100 time=1
 i : 1the msg is note_on channel=3 note=65 velocity=0 time=239
 i : 1the msg is note_on channel=3 note=62 velocity=100 time=1
 i : 1the msg is note_on channel=3 note=62 velocity=0 time=239
 i : 1the msg is note_on channel=3 note=62 velocity=100 time=241
 i : 1the msg is note_on channel=3 note=62 velocity=0 time=720
 i : 1the msg is note_on channel=3 note=67 velocity=100 time=13680
 i : 1the msg is note_on channel=3 note=67 velocity=0 time=239
 i : 1the msg is note_on channel=3 note=67 velocity=100 time=1
 i : 1the msg is note_on channel=3 note=67 velocity=0 time=239
 i : 1the msg is note_on channel=3 note=67 velocity=100 time=1
 i : 1the msg is note_on channel=3 note=67 velocity=0 time=239
 i : 1the msg is note_on channel=3 note=67 velocity=100 time=1
 i : 1the msg is note_on channel=3 note=67 velocity=0 time=239
 i : 1the msg is note_on channel=3 note=65 velocity=100 time=1
 i : 1the msg is note_on channel=3 note=65 velocity=0 time=239
 i : 1the msg is note_on channel=3 note=62 velocity=100 time=481
 i : 1the msg is note_on channel=3 note=62 velocity=0 time=239
 i : 1the msg is note_on channel=3 note=62 velocity=100 time=1
 i : 1the msg is note_on channel=3 note=62 velocity=0 time=239
 i : 1the msg is note_on channel=3 note=65 velocity=100 time=1
 i : 1the msg is note_on channel=3 note=65 velocity=0 time=239
 i : 1the msg is note_on channel=3 note=62 velocity=100 time=1
 i : 1the msg is note_on channel=3 note=62 velocity=0 time=239
 i : 1the msg is note_on channel=3 note=62 velocity=100 time=1
 i : 1the msg is note_on channel=3 note=62 velocity=0 time=480
 i : 1the msg is note_on channel=3 note=62 velocity=100 time=960
 i : 1the msg is note_on channel=3 note=62 velocity=0 time=239
 i : 1the msg is note_on channel=3 note=62 velocity=100 time=1
 i : 1the msg is note_on channel=3 note=62 velocity=0 time=239
 i : 1the msg is note_on channel=3 note=64 velocity=100 time=241
 i : 1the msg is note_on channel=3 note=64 velocity=0 time=239
 i : 1the msg is note_on channel=3 note=64 velocity=100 time=481
 i : 1the msg is note_on channel=3 note=64 velocity=0 time=239
 i : 1the msg is note_on channel=3 note=64 velocity=100 time=1
 i : 1the msg is note_on channel=3 note=64 velocity=0 time=239
 i : 1the msg is note_on channel=3 note=64 velocity=100 time=1
 i : 1the msg is note_on channel=3 note=64 velocity=0 time=239
 i : 1the msg is note_on channel=3 note=59 velocity=100 time=1
 i : 1the msg is note_on channel=3 note=59 velocity=0 time=239
 i : 1the msg is note_on channel=3 note=62 velocity=100 time=1
 i : 1the msg is note_on channel=3 note=62 velocity=0 time=480
 i : 1the msg is note_on channel=3 note=62 velocity=100 time=960
 i : 1the msg is note_on channel=3 note=62 velocity=0 time=239
 i : 1the msg is note_on channel=3 note=62 velocity=100 time=1
 i : 1the msg is note_on channel=3 note=62 velocity=0 time=239
 i : 1the msg is note_on channel=3 note=74 velocity=100 time=241
 i : 1the msg is note_on channel=3 note=74 velocity=0 time=480
 i : 1the msg is note_on channel=3 note=62 velocity=100 time=0
 i : 1the msg is note_on channel=3 note=62 velocity=0 time=239
 i : 1the msg is note_on channel=3 note=65 velocity=100 time=1
 i : 1the msg is note_on channel=3 note=65 velocity=0 time=239
 i : 1the msg is note_on channel=3 note=62 velocity=100 time=1
 i : 1the msg is note_on channel=3 note=65 velocity=100 time=226
 i : 1the msg is note_on channel=3 note=62 velocity=0 time=13
 i : 1the msg is note_on channel=3 note=65 velocity=0 time=226
 i : 1the msg is note_on channel=3 note=62 velocity=100 time=15
 i : 1the msg is note_on channel=3 note=62 velocity=0 time=239
 i : 1the msg is note_on channel=3 note=62 velocity=100 time=1
 i : 1the msg is note_on channel=3 note=62 velocity=0 time=480
 i : 1the msg is note_on channel=3 note=62 velocity=100 time=960
 i : 1the msg is note_on channel=3 note=62 velocity=0 time=239
 i : 1the msg is note_on channel=3 note=62 velocity=100 time=1
 i : 1the msg is note_on channel=3 note=62 velocity=0 time=239
 i : 1the msg is note_on channel=3 note=64 velocity=100 time=241
 i : 1the msg is note_on channel=3 note=64 velocity=0 time=239
 i : 1the msg is note_on channel=3 note=65 velocity=100 time=721
 i : 1the msg is note_on channel=3 note=65 velocity=0 time=239
 i : 1the msg is note_on channel=3 note=64 velocity=100 time=1
 i : 1the msg is note_on channel=3 note=64 velocity=0 time=239
 i : 1the msg is note_on channel=3 note=59 velocity=100 time=1
 i : 1the msg is note_on channel=3 note=59 velocity=0 time=239
 i : 1the msg is note_on channel=3 note=62 velocity=100 time=1
 i : 1the msg is note_on channel=3 note=62 velocity=0 time=239
 i : 1the msg is note_on channel=3 note=62 velocity=100 time=1201
 i : 1the msg is note_on channel=3 note=62 velocity=0 time=239
 i : 1the msg is note_on channel=3 note=62 velocity=100 time=1
 i : 1the msg is note_on channel=3 note=62 velocity=0 time=239
 i : 1the msg is note_on channel=3 note=62 velocity=100 time=1
 i : 1the msg is note_on channel=3 note=62 velocity=0 time=239
 i : 1the msg is note_on channel=3 note=71 velocity=100 time=1
 i : 1the msg is note_on channel=3 note=71 velocity=0 time=239
 i : 1the msg is note_on channel=3 note=69 velocity=100 time=481
 i : 1the msg is note_on channel=3 note=69 velocity=0 time=239
 i : 1the msg is note_on channel=3 note=65 velocity=100 time=241
 i : 1the msg is note_on channel=3 note=65 velocity=0 time=239
 i : 1the msg is note_on channel=3 note=64 velocity=100 time=1
 i : 1the msg is note_on channel=3 note=64 velocity=0 time=239
 i : 1the msg is note_on channel=3 note=62 velocity=100 time=241
 i : 1the msg is note_on channel=3 note=62 velocity=0 time=239
 i : 1the msg is note_on channel=3 note=66 velocity=100 time=1201
 i : 1the msg is note_on channel=3 note=66 velocity=0 time=239
 i : 1the msg is note_on channel=3 note=69 velocity=100 time=1
 i : 1the msg is note_on channel=3 note=69 velocity=0 time=239
 i : 1the msg is note_on channel=3 note=71 velocity=100 time=1
 i : 1the msg is note_on channel=3 note=71 velocity=0 time=239
 i : 1the msg is note_on channel=3 note=69 velocity=100 time=481
 i : 1the msg is note_on channel=3 note=69 velocity=0 time=239
 i : 1the msg is note_on channel=3 note=65 velocity=100 time=241
 i : 1the msg is note_on channel=3 note=65 velocity=0 time=239
 i : 1the msg is note_on channel=3 note=64 velocity=100 time=1
 i : 1the msg is note_on channel=3 note=64 velocity=0 time=239
 i : 1the msg is note_on channel=3 note=62 velocity=100 time=241
 i : 1the msg is note_on channel=3 note=62 velocity=0 time=239
 i : 1the msg is note_on channel=3 note=67 velocity=100 time=721
 i : 1the msg is note_on channel=3 note=67 velocity=0 time=239
 i : 1the msg is note_on channel=3 note=67 velocity=100 time=1
 i : 1the msg is note_on channel=3 note=67 velocity=0 time=239
 i : 1the msg is note_on channel=3 note=67 velocity=100 time=1
 i : 1the msg is note_on channel=3 note=67 velocity=0 time=239
 i : 1the msg is note_on channel=3 note=65 velocity=100 time=241
 i : 1the msg is note_on channel=3 note=65 velocity=0 time=239
 i : 1the msg is note_on channel=3 note=62 velocity=100 time=241
 i : 1the msg is note_on channel=3 note=62 velocity=0 time=239
 i : 1the msg is note_on channel=3 note=65 velocity=100 time=1
 i : 1the msg is note_on channel=3 note=65 velocity=0 time=239
 i : 1the msg is note_on channel=3 note=62 velocity=100 time=1
 i : 1the msg is note_on channel=3 note=62 velocity=0 time=239
 i : 1the msg is note_on channel=3 note=65 velocity=100 time=1
 i : 1the msg is note_on channel=3 note=65 velocity=0 time=239
 i : 1the msg is note_on channel=3 note=62 velocity=100 time=241
 i : 1the msg is note_on channel=3 note=62 velocity=0 time=239
 i : 1the msg is note_on channel=3 note=65 velocity=100 time=1201
 i : 1the msg is note_on channel=3 note=65 velocity=0 time=239
 i : 1the msg is note_on channel=3 note=65 velocity=100 time=1
 i : 1the msg is note_on channel=3 note=65 velocity=0 time=239
 i : 1the msg is note_on channel=3 note=67 velocity=100 time=241
 i : 1the msg is note_on channel=3 note=67 velocity=0 time=239
 i : 1the msg is note_on channel=3 note=67 velocity=100 time=241
 i : 1the msg is note_on channel=3 note=67 velocity=0 time=239
 i : 1the msg is note_on channel=3 note=67 velocity=100 time=1
 i : 1the msg is note_on channel=3 note=67 velocity=0 time=239
 i : 1the msg is note_on channel=3 note=65 velocity=100 time=1
 i : 1the msg is note_on channel=3 note=65 velocity=0 time=239
 i : 1the msg is note_on channel=3 note=67 velocity=100 time=1
 i : 1the msg is note_on channel=3 note=67 velocity=0 time=239
 i : 1the msg is note_on channel=3 note=62 velocity=100 time=241
 i : 1the msg is note_on channel=3 note=62 velocity=0 time=239
 i : 1the msg is note_on channel=3 note=67 velocity=100 time=1201
 i : 1the msg is note_on channel=3 note=67 velocity=0 time=239
 i : 1the msg is note_on channel=3 note=67 velocity=100 time=1
 i : 1the msg is note_on channel=3 note=67 velocity=0 time=239
 i : 1the msg is note_on channel=3 note=65 velocity=100 time=241
 i : 1the msg is note_on channel=3 note=65 velocity=0 time=239
 i : 1the msg is note_on channel=3 note=62 velocity=100 time=241
 i : 1the msg is note_on channel=3 note=62 velocity=0 time=239
 i : 1the msg is note_on channel=3 note=65 velocity=100 time=1
 i : 1the msg is note_on channel=3 note=65 velocity=0 time=239
 i : 1the msg is note_on channel=3 note=62 velocity=100 time=1
 i : 1the msg is note_on channel=3 note=62 velocity=0 time=239
 i : 1the msg is note_on channel=3 note=65 velocity=100 time=1
 i : 1the msg is note_on channel=3 note=65 velocity=0 time=239
 i : 1the msg is note_on channel=3 note=62 velocity=100 time=241
 i : 1the msg is note_on channel=3 note=62 velocity=0 time=239
 i : 1the msg is note_on channel=3 note=65 velocity=100 time=961
 i : 1the msg is note_on channel=3 note=65 velocity=0 time=239
 i : 1the msg is note_on channel=3 note=65 velocity=100 time=1
 i : 1the msg is note_on channel=3 note=65 velocity=0 time=239
 i : 1the msg is note_on channel=3 note=65 velocity=100 time=1
 i : 1the msg is note_on channel=3 note=65 velocity=0 time=239
 i : 1the msg is note_on channel=3 note=65 velocity=100 time=1
 i : 1the msg is note_on channel=3 note=65 velocity=0 time=239
 i : 1the msg is note_on channel=3 note=67 velocity=100 time=1
 i : 1the msg is note_on channel=3 note=67 velocity=0 time=239
 i : 1the msg is note_on channel=3 note=67 velocity=100 time=721
 i : 1the msg is note_on channel=3 note=67 velocity=0 time=239
 i : 1the msg is note_on channel=3 note=67 velocity=100 time=1
 i : 1the msg is note_on channel=3 note=67 velocity=0 time=239
 i : 1the msg is note_on channel=3 note=62 velocity=100 time=1
 i : 1the msg is note_on channel=3 note=62 velocity=0 time=239
 i : 1the msg is note_on channel=3 note=65 velocity=100 time=1
 i : 1the msg is note_on channel=3 note=65 velocity=0 time=480
 i : 1the msg is note_on channel=3 note=62 velocity=100 time=480
 i : 1the msg is note_on channel=3 note=62 velocity=0 time=239
 i : 1the msg is note_on channel=3 note=62 velocity=100 time=1
 i : 1the msg is note_on channel=3 note=62 velocity=0 time=239
 i : 1the msg is note_on channel=3 note=65 velocity=100 time=1
 i : 1the msg is note_on channel=3 note=65 velocity=0 time=239
 i : 1the msg is note_on channel=3 note=62 velocity=100 time=1
 i : 1the msg is note_on channel=3 note=62 velocity=0 time=239
 i : 1the msg is note_on channel=3 note=62 velocity=100 time=241
 i : 1the msg is note_on channel=3 note=62 velocity=0 time=720
 i : 1the msg is note_on channel=3 note=62 velocity=100 time=13920
 i : 1the msg is note_on channel=3 note=62 velocity=0 time=240
 i : 1the msg is note_on channel=3 note=62 velocity=100 time=0
 i : 1the msg is note_on channel=3 note=62 velocity=0 time=240
 i : 1the msg is note_on channel=3 note=62 velocity=100 time=0
 i : 1the msg is note_on channel=3 note=62 velocity=0 time=240
 i : 1the msg is note_on channel=3 note=62 velocity=100 time=0
 i : 1the msg is note_on channel=3 note=62 velocity=0 time=240
 i : 1the msg is note_on channel=3 note=65 velocity=100 time=0
 i : 1the msg is note_on channel=3 note=65 velocity=0 time=480
 i : 1the msg is note_on channel=3 note=62 velocity=100 time=0
 i : 1the msg is note_on channel=3 note=62 velocity=0 time=240
 i : 1the msg is note_on channel=3 note=62 velocity=100 time=0
 i : 1the msg is note_on channel=3 note=62 velocity=0 time=240
 i : 1the msg is note_on channel=3 note=65 velocity=100 time=0
 i : 1the msg is note_on channel=3 note=65 velocity=0 time=240
 i : 1the msg is note_on channel=3 note=62 velocity=100 time=0
 i : 1the msg is note_on channel=3 note=62 velocity=0 time=240
 i : 1the msg is note_on channel=3 note=62 velocity=100 time=0
 i : 1the msg is note_on channel=3 note=62 velocity=0 time=480
 i : 1the msg is note_on channel=3 note=62 velocity=100 time=960
 i : 1the msg is note_on channel=3 note=62 velocity=0 time=720
 i : 1the msg is note_on channel=3 note=64 velocity=100 time=0
 i : 1the msg is note_on channel=3 note=64 velocity=0 time=720
 i : 1the msg is note_on channel=3 note=65 velocity=100 time=240
 i : 1the msg is note_on channel=3 note=65 velocity=0 time=240
 i : 1the msg is note_on channel=3 note=64 velocity=100 time=0
 i : 1the msg is note_on channel=3 note=64 velocity=0 time=240
 i : 1the msg is note_on channel=3 note=59 velocity=100 time=0
 i : 1the msg is note_on channel=3 note=59 velocity=0 time=240
 i : 1the msg is note_on channel=3 note=62 velocity=100 time=0
 i : 1the msg is note_on channel=3 note=62 velocity=0 time=480
 i : 1the msg is note_on channel=3 note=62 velocity=100 time=960
 i : 1the msg is note_on channel=3 note=62 velocity=0 time=240
 i : 1the msg is note_on channel=3 note=62 velocity=100 time=0
 i : 1the msg is note_on channel=3 note=62 velocity=0 time=240
 i : 1the msg is note_on channel=3 note=74 velocity=100 time=240
 i : 1the msg is note_on channel=3 note=74 velocity=0 time=720
 i : 1the msg is note_on channel=3 note=62 velocity=100 time=240
 i : 1the msg is note_on channel=3 note=62 velocity=0 time=240
 i : 1the msg is note_on channel=3 note=65 velocity=100 time=0
 i : 1the msg is note_on channel=3 note=65 velocity=0 time=240
 i : 1the msg is note_on channel=3 note=62 velocity=100 time=0
 i : 1the msg is note_on channel=3 note=62 velocity=0 time=240
 i : 1the msg is note_on channel=3 note=65 velocity=100 time=0
 i : 1the msg is note_on channel=3 note=65 velocity=0 time=480
 i : 1the msg is note_on channel=3 note=69 velocity=100 time=960
 i : 1the msg is note_on channel=3 note=69 velocity=0 time=240
 i : 1the msg is note_on channel=3 note=68 velocity=100 time=0
 i : 1the msg is note_on channel=3 note=68 velocity=0 time=240
 i : 1the msg is note_on channel=3 note=67 velocity=100 time=240
 i : 1the msg is note_on channel=3 note=67 velocity=0 time=720
 i : 1the msg is note_on channel=3 note=64 velocity=100 time=240
 i : 1the msg is note_on channel=3 note=64 velocity=0 time=240
 i : 1the msg is note_on channel=3 note=67 velocity=100 time=0
 i : 1the msg is note_on channel=3 note=67 velocity=0 time=240
 i : 1the msg is note_on channel=3 note=62 velocity=100 time=0
 i : 1the msg is note_on channel=3 note=62 velocity=0 time=240
 i : 1the msg is note_on channel=3 note=65 velocity=100 time=0
 i : 1the msg is note_on channel=3 note=65 velocity=0 time=480
 i : 1the msg is note_on channel=3 note=69 velocity=100 time=960
 i : 1the msg is note_on channel=3 note=69 velocity=0 time=240
 i : 1the msg is note_on channel=3 note=67 velocity=100 time=0
 i : 1the msg is note_on channel=3 note=67 velocity=0 time=240
 i : 1the msg is note_on channel=3 note=69 velocity=100 time=0
 i : 1the msg is note_on channel=3 note=69 velocity=0 time=240
 i : 1the msg is note_on channel=3 note=72 velocity=100 time=0
 i : 1the msg is note_on channel=3 note=72 velocity=0 time=240
 i : 1the msg is note_on channel=3 note=74 velocity=100 time=0
 i : 1the msg is note_on channel=3 note=74 velocity=0 time=480
 i : 1the msg is note_on channel=3 note=72 velocity=100 time=0
 i : 1the msg is note_on channel=3 note=72 velocity=0 time=480
 i : 1the msg is note_on channel=3 note=69 velocity=100 time=0
 i : 1the msg is note_on channel=3 note=69 velocity=0 time=240
 i : 1the msg is note_on channel=3 note=67 velocity=100 time=0
 i : 1the msg is note_on channel=3 note=67 velocity=0 time=240
 i : 1the msg is note_on channel=3 note=65 velocity=100 time=240
 i : 1the msg is note_on channel=3 note=65 velocity=0 time=240
 i : 1the msg is note_on channel=3 note=67 velocity=100 time=960
 i : 1the msg is note_on channel=3 note=67 velocity=0 time=240
 i : 1the msg is note_on channel=3 note=65 velocity=100 time=0
 i : 1the msg is note_on channel=3 note=65 velocity=0 time=240
 i : 1the msg is note_on channel=3 note=67 velocity=100 time=0
 i : 1the msg is note_on channel=3 note=67 velocity=0 time=240
 i : 1the msg is note_on channel=3 note=72 velocity=100 time=0
 i : 1the msg is note_on channel=3 note=72 velocity=0 time=240
 i : 1the msg is note_on channel=3 note=74 velocity=100 time=0
 i : 1the msg is note_on channel=3 note=74 velocity=0 time=480
 i : 1the msg is note_on channel=3 note=72 velocity=100 time=0
 i : 1the msg is note_on channel=3 note=72 velocity=0 time=240
 i : 1the msg is note_on channel=3 note=65 velocity=100 time=0
 i : 1the msg is note_on channel=3 note=65 velocity=0 time=240
 i : 1the msg is note_on channel=3 note=67 velocity=100 time=0
 i : 1the msg is note_on channel=3 note=67 velocity=0 time=240
 i : 1the msg is note_on channel=3 note=62 velocity=100 time=0
 i : 1the msg is note_on channel=3 note=62 velocity=0 time=240
 i : 1the msg is note_on channel=3 note=65 velocity=100 time=0
 i : 1the msg is note_on channel=3 note=65 velocity=0 time=480
 i : 1the msg is note_on channel=3 note=67 velocity=100 time=960
 i : 1the msg is note_on channel=3 note=67 velocity=0 time=240
 i : 1the msg is note_on channel=3 note=67 velocity=100 time=0
 i : 1the msg is note_on channel=3 note=67 velocity=0 time=240
 i : 1the msg is note_on channel=3 note=65 velocity=100 time=240
 i : 1the msg is note_on channel=3 note=65 velocity=0 time=240
 i : 1the msg is note_on channel=3 note=62 velocity=100 time=240
 i : 1the msg is note_on channel=3 note=62 velocity=0 time=239
 i : 1the msg is note_on channel=3 note=65 velocity=100 time=1
 i : 1the msg is note_on channel=3 note=65 velocity=0 time=239
 i : 1the msg is note_on channel=3 note=62 velocity=100 time=1
 i : 1the msg is note_on channel=3 note=62 velocity=0 time=239
 i : 1the msg is note_on channel=3 note=65 velocity=100 time=1
 i : 1the msg is note_on channel=3 note=65 velocity=0 time=239
 i : 1the msg is note_on channel=3 note=62 velocity=100 time=241
 i : 1the msg is note_on channel=3 note=62 velocity=0 time=239
 i : 1the msg is note_on channel=3 note=65 velocity=100 time=1201
 i : 1the msg is note_on channel=3 note=65 velocity=0 time=239
 i : 1the msg is note_on channel=3 note=65 velocity=100 time=1
 i : 1the msg is note_on channel=3 note=65 velocity=0 time=239
 i : 1the msg is note_on channel=3 note=67 velocity=100 time=241
 i : 1the msg is note_on channel=3 note=67 velocity=0 time=239
 i : 1the msg is note_on channel=3 note=67 velocity=100 time=241
 i : 1the msg is note_on channel=3 note=67 velocity=0 time=239
 i : 1the msg is note_on channel=3 note=67 velocity=100 time=1
 i : 1the msg is note_on channel=3 note=67 velocity=0 time=239
 i : 1the msg is note_on channel=3 note=65 velocity=100 time=1
 i : 1the msg is note_on channel=3 note=65 velocity=0 time=239
 i : 1the msg is note_on channel=3 note=67 velocity=100 time=1
 i : 1the msg is note_on channel=3 note=67 velocity=0 time=239
 i : 1the msg is note_on channel=3 note=62 velocity=100 time=241
 i : 1the msg is note_on channel=3 note=62 velocity=0 time=239
 i : 1the msg is note_on channel=3 note=67 velocity=100 time=1201
 i : 1the msg is note_on channel=3 note=67 velocity=0 time=239
 i : 1the msg is note_on channel=3 note=67 velocity=100 time=1
 i : 1the msg is note_on channel=3 note=67 velocity=0 time=239
 i : 1the msg is note_on channel=3 note=65 velocity=100 time=241
 i : 1the msg is note_on channel=3 note=65 velocity=0 time=239
 i : 1the msg is note_on channel=3 note=62 velocity=100 time=241
 i : 1the msg is note_on channel=3 note=62 velocity=0 time=239
 i : 1the msg is note_on channel=3 note=65 velocity=100 time=1
 i : 1the msg is note_on channel=3 note=65 velocity=0 time=239
 i : 1the msg is note_on channel=3 note=62 velocity=100 time=1
 i : 1the msg is note_on channel=3 note=62 velocity=0 time=239
 i : 1the msg is note_on channel=3 note=65 velocity=100 time=1
 i : 1the msg is note_on channel=3 note=65 velocity=0 time=239
 i : 1the msg is note_on channel=3 note=62 velocity=100 time=241
 i : 1the msg is note_on channel=3 note=62 velocity=0 time=239
 i : 1the msg is note_on channel=3 note=65 velocity=100 time=961
 i : 1the msg is note_on channel=3 note=65 velocity=0 time=239
 i : 1the msg is note_on channel=3 note=65 velocity=100 time=1
 i : 1the msg is note_on channel=3 note=65 velocity=0 time=239
 i : 1the msg is note_on channel=3 note=65 velocity=100 time=1
 i : 1the msg is note_on channel=3 note=65 velocity=0 time=239
 i : 1the msg is note_on channel=3 note=65 velocity=100 time=1
 i : 1the msg is note_on channel=3 note=65 velocity=0 time=239
 i : 1the msg is note_on channel=3 note=67 velocity=100 time=1
 i : 1the msg is note_on channel=3 note=67 velocity=0 time=239
 i : 1the msg is note_on channel=3 note=67 velocity=100 time=721
 i : 1the msg is note_on channel=3 note=67 velocity=0 time=239
 i : 1the msg is note_on channel=3 note=67 velocity=100 time=1
 i : 1the msg is note_on channel=3 note=67 velocity=0 time=239
 i : 1the msg is note_on channel=3 note=62 velocity=100 time=1
 i : 1the msg is note_on channel=3 note=62 velocity=0 time=239
 i : 1the msg is note_on channel=3 note=65 velocity=100 time=1
 i : 1the msg is note_on channel=3 note=65 velocity=0 time=480
 i : 1the msg is note_on channel=3 note=62 velocity=100 time=480
 i : 1the msg is note_on channel=3 note=62 velocity=0 time=239
 i : 1the msg is note_on channel=3 note=62 velocity=100 time=1
 i : 1the msg is note_on channel=3 note=62 velocity=0 time=239
 i : 1the msg is note_on channel=3 note=65 velocity=100 time=1
 i : 1the msg is note_on channel=3 note=65 velocity=0 time=239
 i : 1the msg is note_on channel=3 note=62 velocity=100 time=1
 i : 1the msg is note_on channel=3 note=62 velocity=0 time=239
 i : 1the msg is note_on channel=3 note=62 velocity=100 time=241
 i : 1the msg is note_on channel=3 note=62 velocity=0 time=720
 i : 1the msg is note_on channel=3 note=67 velocity=100 time=6720
 i : 1the msg is note_on channel=3 note=67 velocity=0 time=240
 i : 1the msg is note_on channel=3 note=65 velocity=100 time=0
 i : 1the msg is note_on channel=3 note=62 velocity=100 time=480
 i : 1the msg is note_on channel=3 note=62 velocity=0 time=239
 i : 1the msg is note_on channel=3 note=65 velocity=0 time=1
 i : 1the msg is note_on channel=3 note=65 velocity=100 time=0
 i : 1the msg is note_on channel=3 note=65 velocity=0 time=239
 i : 1the msg is note_on channel=3 note=62 velocity=100 time=1
 i : 1the msg is note_on channel=3 note=62 velocity=0 time=239
 i : 1the msg is note_on channel=3 note=65 velocity=100 time=1
 i : 1the msg is note_on channel=3 note=65 velocity=0 time=239
 i : 1the msg is note_on channel=3 note=62 velocity=100 time=241
 i : 1the msg is note_on channel=3 note=62 velocity=0 time=239
 i : 1the msg is note_on channel=3 note=67 velocity=100 time=1681
 i : 1the msg is note_on channel=3 note=67 velocity=0 time=240
 i : 1the msg is note_on channel=3 note=65 velocity=100 time=0
 i : 1the msg is note_on channel=3 note=62 velocity=100 time=480
 i : 1the msg is note_on channel=3 note=62 velocity=0 time=239
 i : 1the msg is note_on channel=3 note=65 velocity=0 time=1
 i : 1the msg is note_on channel=3 note=65 velocity=100 time=0
 i : 1the msg is note_on channel=3 note=65 velocity=0 time=239
 i : 1the msg is note_on channel=3 note=62 velocity=100 time=1
 i : 1the msg is note_on channel=3 note=62 velocity=0 time=239
 i : 1the msg is note_on channel=3 note=65 velocity=100 time=1
 i : 1the msg is note_on channel=3 note=65 velocity=0 time=239
 i : 1the msg is note_on channel=3 note=62 velocity=100 time=241
 i : 1the msg is note_on channel=3 note=62 velocity=0 time=239
 i : 1the msg is note_on channel=3 note=67 velocity=100 time=1681
 i : 1the msg is note_on channel=3 note=67 velocity=0 time=240
 i : 1the msg is note_on channel=3 note=65 velocity=100 time=0
 i : 1the msg is note_on channel=3 note=62 velocity=100 time=480
 i : 1the msg is note_on channel=3 note=62 velocity=0 time=239
 i : 1the msg is note_on channel=3 note=65 velocity=0 time=1
 i : 1the msg is note_on channel=3 note=65 velocity=100 time=0
 i : 1the msg is note_on channel=3 note=65 velocity=0 time=239
 i : 1the msg is note_on channel=3 note=62 velocity=100 time=1
 i : 1the msg is note_on channel=3 note=62 velocity=0 time=239
 i : 1the msg is note_on channel=3 note=65 velocity=100 time=1
 i : 1the msg is note_on channel=3 note=65 velocity=0 time=239
 i : 1the msg is note_on channel=3 note=62 velocity=100 time=241
 i : 1the msg is note_on channel=3 note=62 velocity=0 time=239
 i : 1the msg is note_on channel=3 note=67 velocity=100 time=1681
 i : 1the msg is note_on channel=3 note=67 velocity=0 time=240
 i : 1the msg is note_on channel=3 note=65 velocity=100 time=0
 i : 1the msg is note_on channel=3 note=62 velocity=100 time=480
 i : 1the msg is note_on channel=3 note=62 velocity=0 time=239
 i : 1the msg is note_on channel=3 note=65 velocity=0 time=1
 i : 1the msg is note_on channel=3 note=65 velocity=100 time=0
 i : 1the msg is note_on channel=3 note=65 velocity=0 time=239
 i : 1the msg is note_on channel=3 note=62 velocity=100 time=1
 i : 1the msg is note_on channel=3 note=62 velocity=0 time=239
 i : 1the msg is note_on channel=3 note=65 velocity=100 time=1
 i : 1the msg is note_on channel=3 note=65 velocity=0 time=239
 i : 1the msg is note_on channel=3 note=62 velocity=100 time=241
 i : 1the msg is note_on channel=3 note=62 velocity=0 time=239
 i : 1the msg is <meta message end_of_track time=0>
 i : 2the msg is <meta message midi_port port=0 time=0>
 i : 2the msg is <meta message track_name name='Piano' time=0>
 i : 2the msg is program_change channel=0 program=0 time=0
 i : 2the msg is control_change channel=0 control=7 value=110 time=0
 i : 2the msg is control_change channel=0 control=10 value=70 time=0
 i : 2the msg is control_change channel=0 control=121 value=0 time=0
 i : 2the msg is control_change channel=0 control=91 value=83 time=0
 i : 2the msg is note_on channel=0 note=62 velocity=83 time=0
 i : 2the msg is note_on channel=0 note=69 velocity=85 time=0
 i : 2the msg is note_on channel=0 note=62 velocity=0 time=576
 i : 2the msg is note_on channel=0 note=69 velocity=0 time=32
 i : 2the msg is note_on channel=0 note=62 velocity=70 time=112
 i : 2the msg is note_on channel=0 note=69 velocity=77 time=0
 i : 2the msg is note_on channel=0 note=62 velocity=0 time=194
 i : 2the msg is note_on channel=0 note=65 velocity=80 time=46
 i : 2the msg is note_on channel=0 note=72 velocity=85 time=0
 i : 2the msg is note_on channel=0 note=69 velocity=0 time=37
 i : 2the msg is note_on channel=0 note=65 velocity=0 time=94
 i : 2the msg is note_on channel=0 note=72 velocity=0 time=16
 i : 2the msg is note_on channel=0 note=62 velocity=93 time=333
 i : 2the msg is note_on channel=0 note=69 velocity=85 time=0
 i : 2the msg is note_on channel=0 note=62 velocity=0 time=825
 i : 2the msg is note_on channel=0 note=69 velocity=0 time=30
 i : 2the msg is note_on channel=0 note=62 velocity=66 time=105
 i : 2the msg is note_on channel=0 note=69 velocity=68 time=0
 i : 2the msg is note_on channel=0 note=62 velocity=0 time=92
 i : 2the msg is note_on channel=0 note=69 velocity=0 time=26
 i : 2the msg is note_on channel=0 note=62 velocity=65 time=122
 i : 2the msg is note_on channel=0 note=69 velocity=69 time=0
 i : 2the msg is note_on channel=0 note=62 velocity=0 time=162
 i : 2the msg is note_on channel=0 note=65 velocity=72 time=78
 i : 2the msg is note_on channel=0 note=72 velocity=78 time=0
 i : 2the msg is note_on channel=0 note=69 velocity=0 time=51
 i : 2the msg is note_on channel=0 note=65 velocity=0 time=49
 i : 2the msg is note_on channel=0 note=72 velocity=0 time=22
 i : 2the msg is note_on channel=0 note=62 velocity=89 time=118
 i : 2the msg is note_on channel=0 note=67 velocity=98 time=0
 i : 2the msg is note_on channel=0 note=71 velocity=103 time=0
 i : 2the msg is note_on channel=0 note=62 velocity=0 time=312
 i : 2the msg is note_on channel=0 note=71 velocity=0 time=23
 i : 2the msg is note_on channel=0 note=67 velocity=0 time=17
 i : 2the msg is note_on channel=0 note=62 velocity=89 time=128
 i : 2the msg is note_on channel=0 note=65 velocity=77 time=0
 i : 2the msg is note_on channel=0 note=69 velocity=82 time=0
 i : 2the msg is note_on channel=0 note=62 velocity=0 time=799
 i : 2the msg is note_on channel=0 note=69 velocity=0 time=15
 i : 2the msg is note_on channel=0 note=65 velocity=0 time=4
 i : 2the msg is note_on channel=0 note=62 velocity=70 time=142
 i : 2the msg is note_on channel=0 note=65 velocity=72 time=0
 i : 2the msg is note_on channel=0 note=69 velocity=77 time=0
 i : 2the msg is note_on channel=0 note=65 velocity=0 time=100
 i : 2the msg is note_on channel=0 note=62 velocity=0 time=94
 i : 2the msg is note_on channel=0 note=65 velocity=80 time=46
 i : 2the msg is note_on channel=0 note=69 velocity=68 time=0
 i : 2the msg is note_on channel=0 note=72 velocity=85 time=0
 i : 2the msg is note_on channel=0 note=69 velocity=0 time=37
 i : 2the msg is note_on channel=0 note=69 velocity=0 time=81
 i : 2the msg is note_on channel=0 note=65 velocity=0 time=13
 i : 2the msg is note_on channel=0 note=72 velocity=0 time=16
 i : 2the msg is note_on channel=0 note=62 velocity=93 time=333
 i : 2the msg is note_on channel=0 note=65 velocity=93 time=0
 i : 2the msg is note_on channel=0 note=69 velocity=85 time=0
 i : 2the msg is note_on channel=0 note=65 velocity=0 time=825
 i : 2the msg is note_on channel=0 note=62 velocity=0 time=0
 i : 2the msg is note_on channel=0 note=69 velocity=0 time=30
 i : 2the msg is note_on channel=0 note=62 velocity=66 time=105
 i : 2the msg is note_on channel=0 note=65 velocity=66 time=0
 i : 2the msg is note_on channel=0 note=69 velocity=68 time=0
 i : 2the msg is note_on channel=0 note=65 velocity=0 time=92
 i : 2the msg is note_on channel=0 note=62 velocity=0 time=0
 i : 2the msg is note_on channel=0 note=69 velocity=0 time=26
 i : 2the msg is note_on channel=0 note=62 velocity=65 time=122
 i : 2the msg is note_on channel=0 note=65 velocity=65 time=0
 i : 2the msg is note_on channel=0 note=69 velocity=69 time=0
 i : 2the msg is note_on channel=0 note=65 velocity=0 time=162
 i : 2the msg is note_on channel=0 note=62 velocity=0 time=0
 i : 2the msg is note_on channel=0 note=65 velocity=72 time=78
 i : 2the msg is note_on channel=0 note=69 velocity=72 time=0
 i : 2the msg is note_on channel=0 note=72 velocity=78 time=0
 i : 2the msg is note_on channel=0 note=69 velocity=0 time=51
 i : 2the msg is note_on channel=0 note=65 velocity=0 time=49
 i : 2the msg is note_on channel=0 note=69 velocity=0 time=0
 i : 2the msg is note_on channel=0 note=72 velocity=0 time=22
 i : 2the msg is note_on channel=0 note=62 velocity=89 time=118
 i : 2the msg is note_on channel=0 note=67 velocity=98 time=0
 i : 2the msg is note_on channel=0 note=71 velocity=103 time=0
 i : 2the msg is note_on channel=0 note=62 velocity=0 time=312
 i : 2the msg is note_on channel=0 note=71 velocity=0 time=23
 i : 2the msg is note_on channel=0 note=67 velocity=0 time=17
 i : 2the msg is note_on channel=0 note=62 velocity=89 time=128
 i : 2the msg is note_on channel=0 note=65 velocity=77 time=0
 i : 2the msg is note_on channel=0 note=69 velocity=82 time=0
 i : 2the msg is note_on channel=0 note=62 velocity=0 time=799
 i : 2the msg is note_on channel=0 note=69 velocity=0 time=15
 i : 2the msg is note_on channel=0 note=65 velocity=0 time=4
 i : 2the msg is note_on channel=0 note=62 velocity=70 time=142
 i : 2the msg is note_on channel=0 note=65 velocity=72 time=0
 i : 2the msg is note_on channel=0 note=69 velocity=77 time=0
 i : 2the msg is note_on channel=0 note=65 velocity=0 time=100
 i : 2the msg is note_on channel=0 note=62 velocity=0 time=94
 i : 2the msg is note_on channel=0 note=65 velocity=80 time=46
 i : 2the msg is note_on channel=0 note=69 velocity=68 time=0
 i : 2the msg is note_on channel=0 note=72 velocity=85 time=0
 i : 2the msg is note_on channel=0 note=69 velocity=0 time=37
 i : 2the msg is note_on channel=0 note=69 velocity=0 time=81
 i : 2the msg is note_on channel=0 note=65 velocity=0 time=13
 i : 2the msg is note_on channel=0 note=72 velocity=0 time=16
 i : 2the msg is note_on channel=0 note=62 velocity=93 time=333
 i : 2the msg is note_on channel=0 note=65 velocity=93 time=0
 i : 2the msg is note_on channel=0 note=69 velocity=85 time=0
 i : 2the msg is note_on channel=0 note=65 velocity=0 time=825
 i : 2the msg is note_on channel=0 note=62 velocity=0 time=0
 i : 2the msg is note_on channel=0 note=69 velocity=0 time=30
 i : 2the msg is note_on channel=0 note=62 velocity=66 time=105
 i : 2the msg is note_on channel=0 note=65 velocity=66 time=0
 i : 2the msg is note_on channel=0 note=69 velocity=68 time=0
 i : 2the msg is note_on channel=0 note=65 velocity=0 time=92
 i : 2the msg is note_on channel=0 note=62 velocity=0 time=0
 i : 2the msg is note_on channel=0 note=69 velocity=0 time=26
 i : 2the msg is note_on channel=0 note=62 velocity=65 time=122
 i : 2the msg is note_on channel=0 note=65 velocity=65 time=0
 i : 2the msg is note_on channel=0 note=69 velocity=69 time=0
 i : 2the msg is note_on channel=0 note=65 velocity=0 time=162
 i : 2the msg is note_on channel=0 note=62 velocity=0 time=0
 i : 2the msg is note_on channel=0 note=65 velocity=72 time=78
 i : 2the msg is note_on channel=0 note=69 velocity=72 time=0
 i : 2the msg is note_on channel=0 note=72 velocity=78 time=0
 i : 2the msg is note_on channel=0 note=69 velocity=0 time=51
 i : 2the msg is note_on channel=0 note=65 velocity=0 time=49
 i : 2the msg is note_on channel=0 note=69 velocity=0 time=0
 i : 2the msg is note_on channel=0 note=72 velocity=0 time=22
 i : 2the msg is note_on channel=0 note=62 velocity=89 time=118
 i : 2the msg is note_on channel=0 note=67 velocity=98 time=0
 i : 2the msg is note_on channel=0 note=71 velocity=103 time=0
 i : 2the msg is note_on channel=0 note=62 velocity=0 time=312
 i : 2the msg is note_on channel=0 note=71 velocity=0 time=23
 i : 2the msg is note_on channel=0 note=67 velocity=0 time=17
 i : 2the msg is note_on channel=0 note=62 velocity=89 time=128
 i : 2the msg is note_on channel=0 note=65 velocity=77 time=0
 i : 2the msg is note_on channel=0 note=69 velocity=82 time=0
 i : 2the msg is note_on channel=0 note=62 velocity=0 time=799
 i : 2the msg is note_on channel=0 note=69 velocity=0 time=15
 i : 2the msg is note_on channel=0 note=65 velocity=0 time=4
 i : 2the msg is note_on channel=0 note=62 velocity=70 time=142
 i : 2the msg is note_on channel=0 note=65 velocity=72 time=0
 i : 2the msg is note_on channel=0 note=69 velocity=77 time=0
 i : 2the msg is note_on channel=0 note=65 velocity=0 time=100
 i : 2the msg is note_on channel=0 note=62 velocity=0 time=94
 i : 2the msg is note_on channel=0 note=65 velocity=80 time=46
 i : 2the msg is note_on channel=0 note=69 velocity=68 time=0
 i : 2the msg is note_on channel=0 note=72 velocity=85 time=0
 i : 2the msg is note_on channel=0 note=69 velocity=0 time=37
 i : 2the msg is note_on channel=0 note=69 velocity=0 time=81
 i : 2the msg is note_on channel=0 note=65 velocity=0 time=13
 i : 2the msg is note_on channel=0 note=72 velocity=0 time=16
 i : 2the msg is note_on channel=0 note=62 velocity=93 time=333
 i : 2the msg is note_on channel=0 note=65 velocity=93 time=0
 i : 2the msg is note_on channel=0 note=69 velocity=85 time=0
 i : 2the msg is note_on channel=0 note=65 velocity=0 time=825
 i : 2the msg is note_on channel=0 note=62 velocity=0 time=0
 i : 2the msg is note_on channel=0 note=69 velocity=0 time=30
 i : 2the msg is note_on channel=0 note=62 velocity=66 time=105
 i : 2the msg is note_on channel=0 note=65 velocity=66 time=0
 i : 2the msg is note_on channel=0 note=69 velocity=68 time=0
 i : 2the msg is note_on channel=0 note=65 velocity=0 time=92
 i : 2the msg is note_on channel=0 note=62 velocity=0 time=0
 i : 2the msg is note_on channel=0 note=69 velocity=0 time=26
 i : 2the msg is note_on channel=0 note=62 velocity=65 time=122
 i : 2the msg is note_on channel=0 note=65 velocity=65 time=0
 i : 2the msg is note_on channel=0 note=69 velocity=69 time=0
 i : 2the msg is note_on channel=0 note=65 velocity=0 time=162
 i : 2the msg is note_on channel=0 note=62 velocity=0 time=0
 i : 2the msg is note_on channel=0 note=65 velocity=72 time=78
 i : 2the msg is note_on channel=0 note=69 velocity=72 time=0
 i : 2the msg is note_on channel=0 note=72 velocity=78 time=0
 i : 2the msg is note_on channel=0 note=69 velocity=0 time=51
 i : 2the msg is note_on channel=0 note=65 velocity=0 time=49
 i : 2the msg is note_on channel=0 note=69 velocity=0 time=0
 i : 2the msg is note_on channel=0 note=72 velocity=0 time=22
 i : 2the msg is note_on channel=0 note=62 velocity=89 time=118
 i : 2the msg is note_on channel=0 note=67 velocity=98 time=0
 i : 2the msg is note_on channel=0 note=71 velocity=103 time=0
 i : 2the msg is note_on channel=0 note=62 velocity=0 time=312
 i : 2the msg is note_on channel=0 note=71 velocity=0 time=23
 i : 2the msg is note_on channel=0 note=67 velocity=0 time=17
 i : 2the msg is note_on channel=0 note=62 velocity=89 time=128
 i : 2the msg is note_on channel=0 note=65 velocity=77 time=0
 i : 2the msg is note_on channel=0 note=69 velocity=82 time=0
 i : 2the msg is note_on channel=0 note=62 velocity=0 time=799
 i : 2the msg is note_on channel=0 note=69 velocity=0 time=15
 i : 2the msg is note_on channel=0 note=65 velocity=0 time=4
 i : 2the msg is note_on channel=0 note=62 velocity=70 time=142
 i : 2the msg is note_on channel=0 note=65 velocity=72 time=0
 i : 2the msg is note_on channel=0 note=69 velocity=77 time=0
 i : 2the msg is note_on channel=0 note=65 velocity=0 time=100
 i : 2the msg is note_on channel=0 note=62 velocity=0 time=94
 i : 2the msg is note_on channel=0 note=65 velocity=80 time=46
 i : 2the msg is note_on channel=0 note=69 velocity=68 time=0
 i : 2the msg is note_on channel=0 note=72 velocity=85 time=0
 i : 2the msg is note_on channel=0 note=69 velocity=0 time=37
 i : 2the msg is note_on channel=0 note=69 velocity=0 time=81
 i : 2the msg is note_on channel=0 note=65 velocity=0 time=13
 i : 2the msg is note_on channel=0 note=72 velocity=0 time=16
 i : 2the msg is note_on channel=0 note=62 velocity=93 time=333
 i : 2the msg is note_on channel=0 note=65 velocity=93 time=0
 i : 2the msg is note_on channel=0 note=69 velocity=85 time=0
 i : 2the msg is note_on channel=0 note=65 velocity=0 time=825
 i : 2the msg is note_on channel=0 note=62 velocity=0 time=0
 i : 2the msg is note_on channel=0 note=69 velocity=0 time=30
 i : 2the msg is note_on channel=0 note=62 velocity=66 time=105
 i : 2the msg is note_on channel=0 note=65 velocity=66 time=0
 i : 2the msg is note_on channel=0 note=69 velocity=68 time=0
 i : 2the msg is note_on channel=0 note=65 velocity=0 time=92
 i : 2the msg is note_on channel=0 note=62 velocity=0 time=0
 i : 2the msg is note_on channel=0 note=69 velocity=0 time=26
 i : 2the msg is note_on channel=0 note=62 velocity=65 time=122
 i : 2the msg is note_on channel=0 note=65 velocity=65 time=0
 i : 2the msg is note_on channel=0 note=69 velocity=69 time=0
 i : 2the msg is note_on channel=0 note=65 velocity=0 time=162
 i : 2the msg is note_on channel=0 note=62 velocity=0 time=0
 i : 2the msg is note_on channel=0 note=65 velocity=72 time=78
 i : 2the msg is note_on channel=0 note=69 velocity=72 time=0
 i : 2the msg is note_on channel=0 note=72 velocity=78 time=0
 i : 2the msg is note_on channel=0 note=69 velocity=0 time=51
 i : 2the msg is note_on channel=0 note=65 velocity=0 time=49
 i : 2the msg is note_on channel=0 note=69 velocity=0 time=0
 i : 2the msg is note_on channel=0 note=72 velocity=0 time=22
 i : 2the msg is note_on channel=0 note=62 velocity=89 time=118
 i : 2the msg is note_on channel=0 note=67 velocity=98 time=0
 i : 2the msg is note_on channel=0 note=71 velocity=103 time=0
 i : 2the msg is note_on channel=0 note=62 velocity=0 time=312
 i : 2the msg is note_on channel=0 note=71 velocity=0 time=23
 i : 2the msg is note_on channel=0 note=67 velocity=0 time=17
 i : 2the msg is note_on channel=0 note=62 velocity=89 time=128
 i : 2the msg is note_on channel=0 note=65 velocity=77 time=0
 i : 2the msg is note_on channel=0 note=69 velocity=82 time=0
 i : 2the msg is note_on channel=0 note=62 velocity=0 time=799
 i : 2the msg is note_on channel=0 note=69 velocity=0 time=15
 i : 2the msg is note_on channel=0 note=65 velocity=0 time=4
 i : 2the msg is note_on channel=0 note=62 velocity=70 time=142
 i : 2the msg is note_on channel=0 note=65 velocity=72 time=0
 i : 2the msg is note_on channel=0 note=69 velocity=77 time=0
 i : 2the msg is note_on channel=0 note=65 velocity=0 time=100
 i : 2the msg is note_on channel=0 note=62 velocity=0 time=94
 i : 2the msg is note_on channel=0 note=65 velocity=80 time=46
 i : 2the msg is note_on channel=0 note=69 velocity=68 time=0
 i : 2the msg is note_on channel=0 note=72 velocity=85 time=0
 i : 2the msg is note_on channel=0 note=69 velocity=0 time=37
 i : 2the msg is note_on channel=0 note=69 velocity=0 time=81
 i : 2the msg is note_on channel=0 note=65 velocity=0 time=13
 i : 2the msg is note_on channel=0 note=72 velocity=0 time=16
 i : 2the msg is note_on channel=0 note=62 velocity=93 time=333
 i : 2the msg is note_on channel=0 note=65 velocity=93 time=0
 i : 2the msg is note_on channel=0 note=69 velocity=85 time=0
 i : 2the msg is note_on channel=0 note=65 velocity=0 time=825
 i : 2the msg is note_on channel=0 note=62 velocity=0 time=0
 i : 2the msg is note_on channel=0 note=69 velocity=0 time=30
 i : 2the msg is note_on channel=0 note=62 velocity=66 time=105
 i : 2the msg is note_on channel=0 note=65 velocity=66 time=0
 i : 2the msg is note_on channel=0 note=69 velocity=68 time=0
 i : 2the msg is note_on channel=0 note=65 velocity=0 time=92
 i : 2the msg is note_on channel=0 note=62 velocity=0 time=0
 i : 2the msg is note_on channel=0 note=69 velocity=0 time=26
 i : 2the msg is note_on channel=0 note=62 velocity=65 time=122
 i : 2the msg is note_on channel=0 note=65 velocity=65 time=0
 i : 2the msg is note_on channel=0 note=69 velocity=69 time=0
 i : 2the msg is note_on channel=0 note=65 velocity=0 time=162
 i : 2the msg is note_on channel=0 note=62 velocity=0 time=0
 i : 2the msg is note_on channel=0 note=65 velocity=72 time=78
 i : 2the msg is note_on channel=0 note=69 velocity=72 time=0
 i : 2the msg is note_on channel=0 note=72 velocity=78 time=0
 i : 2the msg is note_on channel=0 note=69 velocity=0 time=51
 i : 2the msg is note_on channel=0 note=65 velocity=0 time=49
 i : 2the msg is note_on channel=0 note=69 velocity=0 time=0
 i : 2the msg is note_on channel=0 note=72 velocity=0 time=22
 i : 2the msg is note_on channel=0 note=62 velocity=89 time=118
 i : 2the msg is note_on channel=0 note=67 velocity=98 time=0
 i : 2the msg is note_on channel=0 note=71 velocity=103 time=0
 i : 2the msg is note_on channel=0 note=62 velocity=0 time=312
 i : 2the msg is note_on channel=0 note=71 velocity=0 time=23
 i : 2the msg is note_on channel=0 note=67 velocity=0 time=17
 i : 2the msg is note_on channel=0 note=62 velocity=89 time=128
 i : 2the msg is note_on channel=0 note=65 velocity=77 time=0
 i : 2the msg is note_on channel=0 note=69 velocity=82 time=0
 i : 2the msg is note_on channel=0 note=62 velocity=0 time=799
 i : 2the msg is note_on channel=0 note=69 velocity=0 time=15
 i : 2the msg is note_on channel=0 note=65 velocity=0 time=4
 i : 2the msg is note_on channel=0 note=62 velocity=70 time=142
 i : 2the msg is note_on channel=0 note=65 velocity=72 time=0
 i : 2the msg is note_on channel=0 note=69 velocity=77 time=0
 i : 2the msg is note_on channel=0 note=65 velocity=0 time=100
 i : 2the msg is note_on channel=0 note=62 velocity=0 time=94
 i : 2the msg is note_on channel=0 note=65 velocity=80 time=46
 i : 2the msg is note_on channel=0 note=69 velocity=68 time=0
 i : 2the msg is note_on channel=0 note=72 velocity=85 time=0
 i : 2the msg is note_on channel=0 note=69 velocity=0 time=37
 i : 2the msg is note_on channel=0 note=69 velocity=0 time=81
 i : 2the msg is note_on channel=0 note=65 velocity=0 time=13
 i : 2the msg is note_on channel=0 note=72 velocity=0 time=16
 i : 2the msg is note_on channel=0 note=62 velocity=93 time=333
 i : 2the msg is note_on channel=0 note=65 velocity=93 time=0
 i : 2the msg is note_on channel=0 note=69 velocity=85 time=0
 i : 2the msg is note_on channel=0 note=65 velocity=0 time=825
 i : 2the msg is note_on channel=0 note=62 velocity=0 time=0
 i : 2the msg is note_on channel=0 note=69 velocity=0 time=30
 i : 2the msg is note_on channel=0 note=62 velocity=66 time=105
 i : 2the msg is note_on channel=0 note=65 velocity=66 time=0
 i : 2the msg is note_on channel=0 note=69 velocity=68 time=0
 i : 2the msg is note_on channel=0 note=65 velocity=0 time=92
 i : 2the msg is note_on channel=0 note=62 velocity=0 time=0
 i : 2the msg is note_on channel=0 note=69 velocity=0 time=26
 i : 2the msg is note_on channel=0 note=62 velocity=65 time=122
 i : 2the msg is note_on channel=0 note=65 velocity=65 time=0
 i : 2the msg is note_on channel=0 note=69 velocity=69 time=0
 i : 2the msg is note_on channel=0 note=65 velocity=0 time=162
 i : 2the msg is note_on channel=0 note=62 velocity=0 time=0
 i : 2the msg is note_on channel=0 note=65 velocity=72 time=78
 i : 2the msg is note_on channel=0 note=69 velocity=72 time=0
 i : 2the msg is note_on channel=0 note=72 velocity=78 time=0
 i : 2the msg is note_on channel=0 note=69 velocity=0 time=51
 i : 2the msg is note_on channel=0 note=65 velocity=0 time=49
 i : 2the msg is note_on channel=0 note=69 velocity=0 time=0
 i : 2the msg is note_on channel=0 note=72 velocity=0 time=22
 i : 2the msg is note_on channel=0 note=62 velocity=89 time=118
 i : 2the msg is note_on channel=0 note=67 velocity=98 time=0
 i : 2the msg is note_on channel=0 note=71 velocity=103 time=0
 i : 2the msg is note_on channel=0 note=62 velocity=0 time=312
 i : 2the msg is note_on channel=0 note=71 velocity=0 time=23
 i : 2the msg is note_on channel=0 note=67 velocity=0 time=17
 i : 2the msg is note_on channel=0 note=62 velocity=89 time=128
 i : 2the msg is note_on channel=0 note=65 velocity=77 time=0
 i : 2the msg is note_on channel=0 note=69 velocity=82 time=0
 i : 2the msg is note_on channel=0 note=62 velocity=0 time=799
 i : 2the msg is note_on channel=0 note=69 velocity=0 time=15
 i : 2the msg is note_on channel=0 note=65 velocity=0 time=4
 i : 2the msg is note_on channel=0 note=62 velocity=70 time=142
 i : 2the msg is note_on channel=0 note=65 velocity=72 time=0
 i : 2the msg is note_on channel=0 note=69 velocity=77 time=0
 i : 2the msg is note_on channel=0 note=65 velocity=0 time=100
 i : 2the msg is note_on channel=0 note=62 velocity=0 time=94
 i : 2the msg is note_on channel=0 note=65 velocity=80 time=46
 i : 2the msg is note_on channel=0 note=69 velocity=68 time=0
 i : 2the msg is note_on channel=0 note=72 velocity=85 time=0
 i : 2the msg is note_on channel=0 note=69 velocity=0 time=37
 i : 2the msg is note_on channel=0 note=69 velocity=0 time=81
 i : 2the msg is note_on channel=0 note=65 velocity=0 time=13
 i : 2the msg is note_on channel=0 note=72 velocity=0 time=16
 i : 2the msg is note_on channel=0 note=62 velocity=93 time=333
 i : 2the msg is note_on channel=0 note=65 velocity=93 time=0
 i : 2the msg is note_on channel=0 note=69 velocity=85 time=0
 i : 2the msg is note_on channel=0 note=65 velocity=0 time=825
 i : 2the msg is note_on channel=0 note=62 velocity=0 time=0
 i : 2the msg is note_on channel=0 note=69 velocity=0 time=30
 i : 2the msg is note_on channel=0 note=62 velocity=66 time=105
 i : 2the msg is note_on channel=0 note=65 velocity=66 time=0
 i : 2the msg is note_on channel=0 note=69 velocity=68 time=0
 i : 2the msg is note_on channel=0 note=65 velocity=0 time=92
 i : 2the msg is note_on channel=0 note=62 velocity=0 time=0
 i : 2the msg is note_on channel=0 note=69 velocity=0 time=26
 i : 2the msg is note_on channel=0 note=62 velocity=65 time=122
 i : 2the msg is note_on channel=0 note=65 velocity=65 time=0
 i : 2the msg is note_on channel=0 note=69 velocity=69 time=0
 i : 2the msg is note_on channel=0 note=65 velocity=0 time=162
 i : 2the msg is note_on channel=0 note=62 velocity=0 time=0
 i : 2the msg is note_on channel=0 note=65 velocity=72 time=78
 i : 2the msg is note_on channel=0 note=69 velocity=72 time=0
 i : 2the msg is note_on channel=0 note=72 velocity=78 time=0
 i : 2the msg is note_on channel=0 note=69 velocity=0 time=51
 i : 2the msg is note_on channel=0 note=65 velocity=0 time=49
 i : 2the msg is note_on channel=0 note=69 velocity=0 time=0
 i : 2the msg is note_on channel=0 note=72 velocity=0 time=22
 i : 2the msg is note_on channel=0 note=62 velocity=89 time=118
 i : 2the msg is note_on channel=0 note=67 velocity=98 time=0
 i : 2the msg is note_on channel=0 note=71 velocity=103 time=0
 i : 2the msg is note_on channel=0 note=62 velocity=0 time=312
 i : 2the msg is note_on channel=0 note=71 velocity=0 time=23
 i : 2the msg is note_on channel=0 note=67 velocity=0 time=17
 i : 2the msg is note_on channel=0 note=62 velocity=89 time=128
 i : 2the msg is note_on channel=0 note=65 velocity=77 time=0
 i : 2the msg is note_on channel=0 note=69 velocity=82 time=0
 i : 2the msg is note_on channel=0 note=62 velocity=0 time=799
 i : 2the msg is note_on channel=0 note=69 velocity=0 time=15
 i : 2the msg is note_on channel=0 note=65 velocity=0 time=4
 i : 2the msg is note_on channel=0 note=69 velocity=80 time=137
 i : 2the msg is note_on channel=0 note=65 velocity=82 time=3
 i : 2the msg is note_on channel=0 note=62 velocity=85 time=6
 i : 2the msg is note_on channel=0 note=62 velocity=0 time=167
 i : 2the msg is note_on channel=0 note=65 velocity=0 time=8
 i : 2the msg is note_on channel=0 note=69 velocity=0 time=24
 i : 2the msg is note_on channel=0 note=72 velocity=89 time=36
 i : 2the msg is note_on channel=0 note=65 velocity=93 time=4
 i : 2the msg is note_on channel=0 note=69 velocity=89 time=3
 i : 2the msg is note_on channel=0 note=72 velocity=0 time=130
 i : 2the msg is note_on channel=0 note=65 velocity=0 time=20
 i : 2the msg is note_on channel=0 note=69 velocity=0 time=1
 i : 2the msg is note_on channel=0 note=65 velocity=85 time=301
 i : 2the msg is note_on channel=0 note=69 velocity=75 time=1
 i : 2the msg is note_on channel=0 note=62 velocity=85 time=8
 i : 2the msg is note_on channel=0 note=69 velocity=0 time=1990
 i : 2the msg is note_on channel=0 note=62 velocity=0 time=9
 i : 2the msg is note_on channel=0 note=65 velocity=0 time=3
 i : 2the msg is note_on channel=0 note=64 velocity=83 time=183
 i : 2the msg is note_on channel=0 note=61 velocity=75 time=2
 i : 2the msg is note_on channel=0 note=69 velocity=83 time=0
 i : 2the msg is note_on channel=0 note=61 velocity=0 time=830
 i : 2the msg is note_on channel=0 note=69 velocity=0 time=11
 i : 2the msg is note_on channel=0 note=64 velocity=0 time=7
 i : 2the msg is note_on channel=0 note=64 velocity=65 time=100
 i : 2the msg is note_on channel=0 note=61 velocity=70 time=4
 i : 2the msg is note_on channel=0 note=69 velocity=54 time=7
 i : 2the msg is note_on channel=0 note=61 velocity=0 time=57
 i : 2the msg is note_on channel=0 note=69 velocity=0 time=20
 i : 2the msg is note_on channel=0 note=64 velocity=0 time=0
 i : 2the msg is note_on channel=0 note=64 velocity=103 time=143
 i : 2the msg is note_on channel=0 note=61 velocity=104 time=1
 i : 2the msg is note_on channel=0 note=69 velocity=98 time=4
 i : 2the msg is note_on channel=0 note=69 velocity=0 time=135
 i : 2the msg is note_on channel=0 note=61 velocity=0 time=8
 i : 2the msg is note_on channel=0 note=64 velocity=0 time=4
 i : 2the msg is note_on channel=0 note=67 velocity=98 time=319
 i : 2the msg is note_on channel=0 note=59 velocity=85 time=6
 i : 2the msg is note_on channel=0 note=62 velocity=113 time=1
 i : 2the msg is note_on channel=0 note=67 velocity=0 time=1889
 i : 2the msg is note_on channel=0 note=59 velocity=0 time=60
 i : 2the msg is note_on channel=0 note=62 velocity=0 time=44
 i : 2the msg is note_on channel=0 note=69 velocity=96 time=194
 i : 2the msg is note_on channel=0 note=62 velocity=98 time=6
 i : 2the msg is note_on channel=0 note=65 velocity=98 time=0
 i : 2the msg is note_on channel=0 note=69 velocity=0 time=910
 i : 2the msg is note_on channel=0 note=65 velocity=0 time=4
 i : 2the msg is note_on channel=0 note=62 velocity=0 time=0
 i : 2the msg is note_on channel=0 note=65 velocity=56 time=64
 i : 2the msg is note_on channel=0 note=69 velocity=62 time=0
 i : 2the msg is note_on channel=0 note=62 velocity=53 time=2
 i : 2the msg is note_on channel=0 note=62 velocity=0 time=68
 i : 2the msg is note_on channel=0 note=65 velocity=0 time=14
 i : 2the msg is note_on channel=0 note=69 velocity=0 time=18
 i : 2the msg is note_on channel=0 note=72 velocity=86 time=83
 i : 2the msg is note_on channel=0 note=65 velocity=83 time=3
 i : 2the msg is note_on channel=0 note=69 velocity=78 time=2
 i : 2the msg is note_on channel=0 note=72 velocity=0 time=138
 i : 2the msg is note_on channel=0 note=69 velocity=0 time=18
 i : 2the msg is note_on channel=0 note=65 velocity=0 time=13
 i : 2the msg is note_on channel=0 note=65 velocity=93 time=321
 i : 2the msg is note_on channel=0 note=69 velocity=93 time=4
 i : 2the msg is note_on channel=0 note=62 velocity=93 time=1
 i : 2the msg is note_on channel=0 note=62 velocity=0 time=1925
 i : 2the msg is note_on channel=0 note=65 velocity=0 time=26
 i : 2the msg is note_on channel=0 note=69 velocity=0 time=4
 i : 2the msg is note_on channel=0 note=69 velocity=89 time=207
 i : 2the msg is note_on channel=0 note=61 velocity=76 time=9
 i : 2the msg is note_on channel=0 note=64 velocity=98 time=0
 i : 2the msg is note_on channel=0 note=61 velocity=0 time=866
 i : 2the msg is note_on channel=0 note=69 velocity=0 time=4
 i : 2the msg is note_on channel=0 note=64 velocity=0 time=1
 i : 2the msg is note_on channel=0 note=69 velocity=48 time=70
 i : 2the msg is note_on channel=0 note=64 velocity=61 time=1
 i : 2the msg is note_on channel=0 note=61 velocity=56 time=4
 i : 2the msg is note_on channel=0 note=61 velocity=0 time=63
 i : 2the msg is note_on channel=0 note=64 velocity=0 time=23
 i : 2the msg is note_on channel=0 note=69 velocity=0 time=0
 i : 2the msg is note_on channel=0 note=61 velocity=78 time=137
 i : 2the msg is note_on channel=0 note=64 velocity=89 time=1
 i : 2the msg is note_on channel=0 note=69 velocity=93 time=2
 i : 2the msg is note_on channel=0 note=69 velocity=0 time=134
 i : 2the msg is note_on channel=0 note=64 velocity=0 time=10
 i : 2the msg is note_on channel=0 note=61 velocity=0 time=9
 i : 2the msg is note_on channel=0 note=67 velocity=96 time=321
 i : 2the msg is note_on channel=0 note=59 velocity=80 time=2
 i : 2the msg is note_on channel=0 note=62 velocity=108 time=1
 i : 2the msg is note_on channel=0 note=62 velocity=0 time=2187
 i : 2the msg is note_on channel=0 note=59 velocity=0 time=24
 i : 2the msg is note_on channel=0 note=66 velocity=79 time=197
 i : 2the msg is note_on channel=0 note=62 velocity=98 time=7
 i : 2the msg is note_on channel=0 note=57 velocity=96 time=2
 i : 2the msg is note_on channel=0 note=67 velocity=0 time=20
 i : 2the msg is note_on channel=0 note=57 velocity=0 time=350
 i : 2the msg is note_on channel=0 note=66 velocity=0 time=6
 i : 2the msg is note_on channel=0 note=62 velocity=0 time=12
 i : 2the msg is note_on channel=0 note=66 velocity=78 time=88
 i : 2the msg is note_on channel=0 note=62 velocity=89 time=2
 i : 2the msg is note_on channel=0 note=57 velocity=65 time=2
 i : 2the msg is note_on channel=0 note=66 velocity=0 time=118
 i : 2the msg is note_on channel=0 note=57 velocity=0 time=8
 i : 2the msg is note_on channel=0 note=62 velocity=0 time=1
 i : 2the msg is note_on channel=0 note=62 velocity=78 time=111
 i : 2the msg is note_on channel=0 note=66 velocity=68 time=2
 i : 2the msg is note_on channel=0 note=57 velocity=54 time=6
 i : 2the msg is note_on channel=0 note=57 velocity=0 time=56
 i : 2the msg is note_on channel=0 note=66 velocity=0 time=4
 i : 2the msg is note_on channel=0 note=62 velocity=0 time=4
 i : 2the msg is note_on channel=0 note=62 velocity=93 time=152
 i : 2the msg is note_on channel=0 note=66 velocity=89 time=3
 i : 2the msg is note_on channel=0 note=57 velocity=70 time=1
 i : 2the msg is note_on channel=0 note=57 velocity=0 time=72
 i : 2the msg is note_on channel=0 note=66 velocity=0 time=7
 i : 2the msg is note_on channel=0 note=62 velocity=0 time=2
 i : 2the msg is note_on channel=0 note=66 velocity=79 time=160
 i : 2the msg is note_on channel=0 note=62 velocity=89 time=2
 i : 2the msg is note_on channel=0 note=57 velocity=71 time=2
 i : 2the msg is note_on channel=0 note=62 velocity=0 time=79
 i : 2the msg is note_on channel=0 note=66 velocity=0 time=2
 i : 2the msg is note_on channel=0 note=57 velocity=0 time=1
 i : 2the msg is note_on channel=0 note=59 velocity=91 time=622
 i : 2the msg is note_on channel=0 note=62 velocity=111 time=1
 i : 2the msg is note_on channel=0 note=67 velocity=98 time=0
 i : 2the msg is note_on channel=0 note=59 velocity=0 time=110
 i : 2the msg is note_on channel=0 note=62 velocity=0 time=4
 i : 2the msg is note_on channel=0 note=67 velocity=0 time=3
 i : 2the msg is note_on channel=0 note=59 velocity=86 time=133
 i : 2the msg is note_on channel=0 note=67 velocity=96 time=1
 i : 2the msg is note_on channel=0 note=62 velocity=103 time=1
 i : 2the msg is note_on channel=0 note=67 velocity=0 time=242
 i : 2the msg is note_on channel=0 note=59 velocity=0 time=5
 i : 2the msg is note_on channel=0 note=62 velocity=0 time=4
 i : 2the msg is note_on channel=0 note=59 velocity=86 time=211
 i : 2the msg is note_on channel=0 note=62 velocity=100 time=0
 i : 2the msg is note_on channel=0 note=67 velocity=89 time=2
 i : 2the msg is note_on channel=0 note=62 velocity=0 time=950
 i : 2the msg is note_on channel=0 note=59 velocity=0 time=27
 i : 2the msg is note_on channel=0 note=66 velocity=84 time=230
 i : 2the msg is note_on channel=0 note=62 velocity=96 time=7
 i : 2the msg is note_on channel=0 note=57 velocity=91 time=2
 i : 2the msg is note_on channel=0 note=67 velocity=0 time=28
 i : 2the msg is note_on channel=0 note=57 velocity=0 time=386
 i : 2the msg is note_on channel=0 note=66 velocity=0 time=11
 i : 2the msg is note_on channel=0 note=62 velocity=0 time=5
 i : 2the msg is note_on channel=0 note=62 velocity=93 time=47
 i : 2the msg is note_on channel=0 note=66 velocity=100 time=1
 i : 2the msg is note_on channel=0 note=57 velocity=72 time=3
 i : 2the msg is note_on channel=0 note=57 velocity=0 time=144
 i : 2the msg is note_on channel=0 note=66 velocity=0 time=0
 i : 2the msg is note_on channel=0 note=62 velocity=0 time=6
 i : 2the msg is note_on channel=0 note=62 velocity=86 time=91
 i : 2the msg is note_on channel=0 note=66 velocity=68 time=0
 i : 2the msg is note_on channel=0 note=57 velocity=60 time=7
 i : 2the msg is note_on channel=0 note=57 velocity=0 time=67
 i : 2the msg is note_on channel=0 note=62 velocity=0 time=14
 i : 2the msg is note_on channel=0 note=66 velocity=0 time=1
 i : 2the msg is note_on channel=0 note=57 velocity=75 time=131
 i : 2the msg is note_on channel=0 note=62 velocity=96 time=0
 i : 2the msg is note_on channel=0 note=66 velocity=92 time=0
 i : 2the msg is note_on channel=0 note=57 velocity=0 time=87
 i : 2the msg is note_on channel=0 note=62 velocity=0 time=11
 i : 2the msg is note_on channel=0 note=66 velocity=0 time=1
 i : 2the msg is note_on channel=0 note=66 velocity=94 time=164
 i : 2the msg is note_on channel=0 note=62 velocity=96 time=3
 i : 2the msg is note_on channel=0 note=57 velocity=78 time=2
 i : 2the msg is note_on channel=0 note=62 velocity=0 time=539
 i : 2the msg is note_on channel=0 note=57 velocity=0 time=4
 i : 2the msg is note_on channel=0 note=66 velocity=0 time=49
 i : 2the msg is note_on channel=0 note=62 velocity=72 time=100
 i : 2the msg is note_on channel=0 note=67 velocity=86 time=0
 i : 2the msg is note_on channel=0 note=59 velocity=67 time=4
 i : 2the msg is note_on channel=0 note=62 velocity=0 time=98
 i : 2the msg is note_on channel=0 note=59 velocity=0 time=3
 i : 2the msg is note_on channel=0 note=67 velocity=0 time=11
 i : 2the msg is note_on channel=0 note=62 velocity=93 time=146
 i : 2the msg is note_on channel=0 note=67 velocity=91 time=0
 i : 2the msg is note_on channel=0 note=59 velocity=58 time=2
 i : 2the msg is note_on channel=0 note=59 velocity=0 time=325
 i : 2the msg is note_on channel=0 note=67 velocity=0 time=10
 i : 2the msg is note_on channel=0 note=62 velocity=0 time=1
 i : 2the msg is note_on channel=0 note=59 velocity=45 time=125
 i : 2the msg is note_on channel=0 note=59 velocity=0 time=63
 i : 2the msg is note_on channel=0 note=59 velocity=85 time=182
 i : 2the msg is note_on channel=0 note=62 velocity=106 time=2
 i : 2the msg is note_on channel=0 note=67 velocity=100 time=0
 i : 2the msg is note_on channel=0 note=59 velocity=0 time=164
 i : 2the msg is note_on channel=0 note=59 velocity=44 time=89
 i : 2the msg is note_on channel=0 note=62 velocity=0 time=72
 i : 2the msg is note_on channel=0 note=59 velocity=0 time=25
 i : 2the msg is note_on channel=0 note=67 velocity=0 time=59
 i : 2the msg is note_on channel=0 note=62 velocity=89 time=73
 i : 2the msg is note_on channel=0 note=59 velocity=72 time=2
 i : 2the msg is note_on channel=0 note=67 velocity=89 time=2
 i : 2the msg is note_on channel=0 note=59 velocity=0 time=82
 i : 2the msg is note_on channel=0 note=62 velocity=0 time=24
 i : 2the msg is note_on channel=0 note=67 velocity=0 time=16
 i : 2the msg is note_on channel=0 note=62 velocity=91 time=131
 i : 2the msg is note_on channel=0 note=65 velocity=98 time=0
 i : 2the msg is note_on channel=0 note=69 velocity=98 time=4
 i : 2the msg is note_on channel=0 note=62 velocity=0 time=800
 i : 2the msg is note_on channel=0 note=65 velocity=0 time=26
 i : 2the msg is note_on channel=0 note=69 velocity=0 time=1
 i : 2the msg is note_on channel=0 note=69 velocity=60 time=145
 i : 2the msg is note_on channel=0 note=65 velocity=49 time=6
 i : 2the msg is note_on channel=0 note=62 velocity=62 time=3
 i : 2the msg is note_on channel=0 note=62 velocity=0 time=74
 i : 2the msg is note_on channel=0 note=65 velocity=0 time=8
 i : 2the msg is note_on channel=0 note=69 velocity=0 time=30
 i : 2the msg is note_on channel=0 note=72 velocity=89 time=105
 i : 2the msg is note_on channel=0 note=65 velocity=80 time=3
 i : 2the msg is note_on channel=0 note=69 velocity=91 time=7
 i : 2the msg is note_on channel=0 note=72 velocity=0 time=122
 i : 2the msg is note_on channel=0 note=69 velocity=0 time=24
 i : 2the msg is note_on channel=0 note=65 velocity=0 time=7
 i : 2the msg is note_on channel=0 note=65 velocity=93 time=306
 i : 2the msg is note_on channel=0 note=69 velocity=89 time=3
 i : 2the msg is note_on channel=0 note=62 velocity=100 time=3
 i : 2the msg is note_on channel=0 note=69 velocity=0 time=1326
 i : 2the msg is note_on channel=0 note=65 velocity=0 time=9
 i : 2the msg is note_on channel=0 note=62 velocity=0 time=1
 i : 2the msg is note_on channel=0 note=62 velocity=71 time=84
 i : 2the msg is note_on channel=0 note=65 velocity=77 time=1
 i : 2the msg is note_on channel=0 note=69 velocity=66 time=7
 i : 2the msg is note_on channel=0 note=62 velocity=0 time=85
 i : 2the msg is note_on channel=0 note=65 velocity=0 time=7
 i : 2the msg is note_on channel=0 note=69 velocity=0 time=4
 i : 2the msg is note_on channel=0 note=62 velocity=103 time=164
 i : 2the msg is note_on channel=0 note=65 velocity=108 time=1
 i : 2the msg is note_on channel=0 note=69 velocity=91 time=1
 i : 2the msg is note_on channel=0 note=69 velocity=0 time=333
 i : 2the msg is note_on channel=0 note=62 velocity=0 time=10
 i : 2the msg is note_on channel=0 note=65 velocity=0 time=9
 i : 2the msg is note_on channel=0 note=59 velocity=100 time=116
 i : 2the msg is note_on channel=0 note=62 velocity=113 time=2
 i : 2the msg is note_on channel=0 note=67 velocity=89 time=1
 i : 2the msg is note_on channel=0 note=59 velocity=0 time=797
 i : 2the msg is note_on channel=0 note=67 velocity=0 time=18
 i : 2the msg is note_on channel=0 note=62 velocity=0 time=2
 i : 2the msg is note_on channel=0 note=67 velocity=66 time=154
 i : 2the msg is note_on channel=0 note=62 velocity=86 time=1
 i : 2the msg is note_on channel=0 note=59 velocity=67 time=2
 i : 2the msg is note_on channel=0 note=62 velocity=0 time=59
 i : 2the msg is note_on channel=0 note=59 velocity=0 time=1
 i : 2the msg is note_on channel=0 note=67 velocity=0 time=1
 i : 2the msg is note_on channel=0 note=59 velocity=71 time=172
 i : 2the msg is note_on channel=0 note=62 velocity=96 time=0
 i : 2the msg is note_on channel=0 note=67 velocity=85 time=2
 i : 2the msg is note_on channel=0 note=62 velocity=0 time=165
 i : 2the msg is note_on channel=0 note=67 velocity=0 time=1
 i : 2the msg is note_on channel=0 note=59 velocity=0 time=0
 i : 2the msg is note_on channel=0 note=62 velocity=100 time=307
 i : 2the msg is note_on channel=0 note=59 velocity=80 time=1
 i : 2the msg is note_on channel=0 note=67 velocity=83 time=1
 i : 2the msg is note_on channel=0 note=59 velocity=0 time=1083
 i : 2the msg is note_on channel=0 note=62 velocity=0 time=36
 i : 2the msg is note_on channel=0 note=67 velocity=0 time=25
 i : 2the msg is note_on channel=0 note=67 velocity=25 time=33
 i : 2the msg is note_on channel=0 note=62 velocity=48 time=12
 i : 2the msg is note_on channel=0 note=59 velocity=22 time=11
 i : 2the msg is note_on channel=0 note=59 velocity=0 time=59
 i : 2the msg is note_on channel=0 note=67 velocity=0 time=7
 i : 2the msg is note_on channel=0 note=62 velocity=0 time=1
 i : 2the msg is note_on channel=0 note=62 velocity=93 time=168
 i : 2the msg is note_on channel=0 note=59 velocity=68 time=1
 i : 2the msg is note_on channel=0 note=67 velocity=75 time=1
 i : 2the msg is note_on channel=0 note=59 velocity=0 time=70
 i : 2the msg is note_on channel=0 note=62 velocity=0 time=9
 i : 2the msg is note_on channel=0 note=67 velocity=0 time=6
 i : 2the msg is note_on channel=0 note=62 velocity=83 time=140
 i : 2the msg is note_on channel=0 note=59 velocity=64 time=1
 i : 2the msg is note_on channel=0 note=67 velocity=72 time=0
 i : 2the msg is note_on channel=0 note=59 velocity=0 time=260
 i : 2the msg is note_on channel=0 note=62 velocity=0 time=28
 i : 2the msg is note_on channel=0 note=67 velocity=0 time=22
 i : 2the msg is note_on channel=0 note=62 velocity=103 time=177
 i : 2the msg is note_on channel=0 note=69 velocity=93 time=1
 i : 2the msg is note_on channel=0 note=65 velocity=103 time=2
 i : 2the msg is note_on channel=0 note=62 velocity=0 time=822
 i : 2the msg is note_on channel=0 note=65 velocity=0 time=16
 i : 2the msg is note_on channel=0 note=69 velocity=0 time=13
 i : 2the msg is note_on channel=0 note=65 velocity=62 time=115
 i : 2the msg is note_on channel=0 note=69 velocity=68 time=0
 i : 2the msg is note_on channel=0 note=62 velocity=60 time=4
 i : 2the msg is note_on channel=0 note=62 velocity=0 time=85
 i : 2the msg is note_on channel=0 note=65 velocity=0 time=13
 i : 2the msg is note_on channel=0 note=69 velocity=0 time=4
 i : 2the msg is note_on channel=0 note=65 velocity=73 time=131
 i : 2the msg is note_on channel=0 note=69 velocity=85 time=3
 i : 2the msg is note_on channel=0 note=72 velocity=86 time=0
 i : 2the msg is note_on channel=0 note=72 velocity=0 time=128
 i : 2the msg is note_on channel=0 note=65 velocity=0 time=12
 i : 2the msg is note_on channel=0 note=69 velocity=0 time=3
 i : 2the msg is note_on channel=0 note=65 velocity=89 time=317
 i : 2the msg is note_on channel=0 note=62 velocity=91 time=2
 i : 2the msg is note_on channel=0 note=69 velocity=83 time=1
 i : 2the msg is note_on channel=0 note=69 velocity=0 time=1311
 i : 2the msg is note_on channel=0 note=65 velocity=0 time=10
 i : 2the msg is note_on channel=0 note=62 velocity=0 time=5
 i : 2the msg is note_on channel=0 note=65 velocity=77 time=128
 i : 2the msg is note_on channel=0 note=62 velocity=69 time=1
 i : 2the msg is note_on channel=0 note=69 velocity=69 time=2
 i : 2the msg is note_on channel=0 note=62 velocity=0 time=83
 i : 2the msg is note_on channel=0 note=69 velocity=0 time=3
 i : 2the msg is note_on channel=0 note=65 velocity=0 time=2
 i : 2the msg is note_on channel=0 note=65 velocity=96 time=152
 i : 2the msg is note_on channel=0 note=69 velocity=85 time=1
 i : 2the msg is note_on channel=0 note=62 velocity=89 time=1
 i : 2the msg is note_on channel=0 note=65 velocity=0 time=267
 i : 2the msg is note_on channel=0 note=69 velocity=0 time=9
 i : 2the msg is note_on channel=0 note=62 velocity=0 time=18
 i : 2the msg is note_on channel=0 note=59 velocity=86 time=190
 i : 2the msg is note_on channel=0 note=62 velocity=106 time=2
 i : 2the msg is note_on channel=0 note=67 velocity=93 time=3
 i : 2the msg is note_on channel=0 note=67 velocity=0 time=810
 i : 2the msg is note_on channel=0 note=62 velocity=0 time=1
 i : 2the msg is note_on channel=0 note=59 velocity=0 time=3
 i : 2the msg is note_on channel=0 note=67 velocity=60 time=111
 i : 2the msg is note_on channel=0 note=62 velocity=64 time=6
 i : 2the msg is note_on channel=0 note=59 velocity=28 time=19
 i : 2the msg is note_on channel=0 note=59 velocity=0 time=55
 i : 2the msg is note_on channel=0 note=62 velocity=0 time=0
 i : 2the msg is note_on channel=0 note=67 velocity=0 time=0
 i : 2the msg is note_on channel=0 note=59 velocity=80 time=174
 i : 2the msg is note_on channel=0 note=62 velocity=100 time=0
 i : 2the msg is note_on channel=0 note=67 velocity=86 time=4
 i : 2the msg is note_on channel=0 note=62 velocity=0 time=152
 i : 2the msg is note_on channel=0 note=59 velocity=0 time=1
 i : 2the msg is note_on channel=0 note=67 velocity=0 time=3
 i : 2the msg is note_on channel=0 note=62 velocity=89 time=320
 i : 2the msg is note_on channel=0 note=59 velocity=64 time=4
 i : 2the msg is note_on channel=0 note=67 velocity=78 time=3
 i : 2the msg is note_on channel=0 note=59 velocity=0 time=839
 i : 2the msg is note_on channel=0 note=67 velocity=0 time=2
 i : 2the msg is note_on channel=0 note=62 velocity=0 time=14
 i : 2the msg is note_on channel=0 note=62 velocity=78 time=132
 i : 2the msg is note_on channel=0 note=67 velocity=70 time=1
 i : 2the msg is note_on channel=0 note=59 velocity=53 time=6
 i : 2the msg is note_on channel=0 note=62 velocity=0 time=77
 i : 2the msg is note_on channel=0 note=67 velocity=0 time=2
 i : 2the msg is note_on channel=0 note=59 velocity=0 time=3
 i : 2the msg is note_on channel=0 note=62 velocity=57 time=153
 i : 2the msg is note_on channel=0 note=67 velocity=48 time=4
 i : 2the msg is note_on channel=0 note=59 velocity=32 time=2
 i : 2the msg is note_on channel=0 note=62 velocity=0 time=53
 i : 2the msg is note_on channel=0 note=59 velocity=0 time=5
 i : 2the msg is note_on channel=0 note=67 velocity=0 time=0
 i : 2the msg is note_on channel=0 note=62 velocity=96 time=180
 i : 2the msg is note_on channel=0 note=67 velocity=77 time=0
 i : 2the msg is note_on channel=0 note=59 velocity=73 time=2
 i : 2the msg is note_on channel=0 note=62 velocity=0 time=96
 i : 2the msg is note_on channel=0 note=59 velocity=0 time=8
 i : 2the msg is note_on channel=0 note=67 velocity=0 time=0
 i : 2the msg is note_on channel=0 note=62 velocity=96 time=116
 i : 2the msg is note_on channel=0 note=67 velocity=80 time=0
 i : 2the msg is note_on channel=0 note=59 velocity=77 time=1
 i : 2the msg is note_on channel=0 note=59 velocity=0 time=290
 i : 2the msg is note_on channel=0 note=62 velocity=0 time=28
 i : 2the msg is note_on channel=0 note=67 velocity=0 time=13
 i : 2the msg is note_on channel=0 note=69 velocity=98 time=150
 i : 2the msg is note_on channel=0 note=65 velocity=96 time=1
 i : 2the msg is note_on channel=0 note=62 velocity=93 time=1
 i : 2the msg is note_on channel=0 note=62 velocity=0 time=858
 i : 2the msg is note_on channel=0 note=69 velocity=0 time=3
 i : 2the msg is note_on channel=0 note=65 velocity=0 time=8
 i : 2the msg is note_on channel=0 note=65 velocity=65 time=93
 i : 2the msg is note_on channel=0 note=62 velocity=70 time=3
 i : 2the msg is note_on channel=0 note=69 velocity=62 time=1
 i : 2the msg is note_on channel=0 note=65 velocity=0 time=103
 i : 2the msg is note_on channel=0 note=62 velocity=0 time=1
 i : 2the msg is note_on channel=0 note=69 velocity=0 time=5
 i : 2the msg is note_on channel=0 note=65 velocity=80 time=116
 i : 2the msg is note_on channel=0 note=69 velocity=85 time=1
 i : 2the msg is note_on channel=0 note=72 velocity=96 time=1
 i : 2the msg is note_on channel=0 note=72 velocity=0 time=129
 i : 2the msg is note_on channel=0 note=69 velocity=0 time=14
 i : 2the msg is note_on channel=0 note=65 velocity=0 time=7
 i : 2the msg is note_on channel=0 note=65 velocity=91 time=318
 i : 2the msg is note_on channel=0 note=62 velocity=86 time=1
 i : 2the msg is note_on channel=0 note=69 velocity=89 time=1
 i : 2the msg is note_on channel=0 note=62 velocity=0 time=833
 i : 2the msg is note_on channel=0 note=69 velocity=0 time=11
 i : 2the msg is note_on channel=0 note=65 velocity=0 time=8
 i : 2the msg is note_on channel=0 note=65 velocity=46 time=116
 i : 2the msg is note_on channel=0 note=69 velocity=59 time=3
 i : 2the msg is note_on channel=0 note=62 velocity=46 time=8
 i : 2the msg is note_on channel=0 note=62 velocity=0 time=63
 i : 2the msg is note_on channel=0 note=69 velocity=0 time=4
 i : 2the msg is note_on channel=0 note=65 velocity=0 time=0
 i : 2the msg is note_on channel=0 note=62 velocity=48 time=148
 i : 2the msg is note_on channel=0 note=65 velocity=43 time=3
 i : 2the msg is note_on channel=0 note=69 velocity=60 time=0
 i : 2the msg is note_on channel=0 note=62 velocity=0 time=70
 i : 2the msg is note_on channel=0 note=65 velocity=0 time=14
 i : 2the msg is note_on channel=0 note=69 velocity=0 time=5
 i : 2the msg is note_on channel=0 note=69 velocity=82 time=135
 i : 2the msg is note_on channel=0 note=65 velocity=80 time=1
 i : 2the msg is note_on channel=0 note=72 velocity=91 time=7
 i : 2the msg is note_on channel=0 note=65 velocity=0 time=102
 i : 2the msg is note_on channel=0 note=72 velocity=0 time=1
 i : 2the msg is note_on channel=0 note=69 velocity=0 time=8
 i : 2the msg is note_on channel=0 note=62 velocity=89 time=147
 i : 2the msg is note_on channel=0 note=67 velocity=98 time=2
 i : 2the msg is note_on channel=0 note=71 velocity=100 time=0
 i : 2the msg is note_on channel=0 note=67 velocity=0 time=374
 i : 2the msg is note_on channel=0 note=62 velocity=0 time=4
 i : 2the msg is note_on channel=0 note=71 velocity=0 time=22
 i : 2the msg is note_on channel=0 note=62 velocity=80 time=96
 i : 2the msg is note_on channel=0 note=69 velocity=83 time=4
 i : 2the msg is note_on channel=0 note=65 velocity=93 time=5
 i : 2the msg is note_on channel=0 note=62 velocity=0 time=789
 i : 2the msg is note_on channel=0 note=65 velocity=0 time=6
 i : 2the msg is note_on channel=0 note=69 velocity=0 time=5
 i : 2the msg is note_on channel=0 note=69 velocity=72 time=112
 i : 2the msg is note_on channel=0 note=65 velocity=65 time=4
 i : 2the msg is note_on channel=0 note=62 velocity=61 time=5
 i : 2the msg is note_on channel=0 note=62 velocity=0 time=72
 i : 2the msg is note_on channel=0 note=65 velocity=0 time=6
 i : 2the msg is note_on channel=0 note=69 velocity=0 time=16
 i : 2the msg is note_on channel=0 note=69 velocity=82 time=141
 i : 2the msg is note_on channel=0 note=72 velocity=96 time=0
 i : 2the msg is note_on channel=0 note=65 velocity=93 time=1
 i : 2the msg is note_on channel=0 note=72 velocity=0 time=126
 i : 2the msg is note_on channel=0 note=69 velocity=0 time=4
 i : 2the msg is note_on channel=0 note=65 velocity=0 time=6
 i : 2the msg is note_on channel=0 note=65 velocity=98 time=364
 i : 2the msg is note_on channel=0 note=69 velocity=91 time=1
 i : 2the msg is note_on channel=0 note=62 velocity=89 time=1
 i : 2the msg is note_on channel=0 note=62 velocity=0 time=847
 i : 2the msg is note_on channel=0 note=69 velocity=0 time=15
 i : 2the msg is note_on channel=0 note=65 velocity=0 time=9
 i : 2the msg is note_on channel=0 note=65 velocity=51 time=91
 i : 2the msg is note_on channel=0 note=69 velocity=54 time=1
 i : 2the msg is note_on channel=0 note=62 velocity=53 time=12
 i : 2the msg is note_on channel=0 note=62 velocity=0 time=55
 i : 2the msg is note_on channel=0 note=65 velocity=0 time=17
 i : 2the msg is note_on channel=0 note=69 velocity=0 time=1
 i : 2the msg is note_on channel=0 note=65 velocity=51 time=132
 i : 2the msg is note_on channel=0 note=69 velocity=60 time=1
 i : 2the msg is note_on channel=0 note=62 velocity=48 time=12
 i : 2the msg is note_on channel=0 note=62 velocity=0 time=55
 i : 2the msg is note_on channel=0 note=65 velocity=0 time=24
 i : 2the msg is note_on channel=0 note=69 velocity=0 time=5
 i : 2the msg is note_on channel=0 note=65 velocity=82 time=127
 i : 2the msg is note_on channel=0 note=69 velocity=78 time=0
 i : 2the msg is note_on channel=0 note=72 velocity=80 time=4
 i : 2the msg is note_on channel=0 note=72 velocity=0 time=112
 i : 2the msg is note_on channel=0 note=65 velocity=0 time=1
 i : 2the msg is note_on channel=0 note=69 velocity=0 time=1
 i : 2the msg is note_on channel=0 note=67 velocity=89 time=153
 i : 2the msg is note_on channel=0 note=62 velocity=91 time=1
 i : 2the msg is note_on channel=0 note=71 velocity=86 time=0
 i : 2the msg is note_on channel=0 note=62 velocity=0 time=320
 i : 2the msg is note_on channel=0 note=67 velocity=0 time=16
 i : 2the msg is note_on channel=0 note=71 velocity=0 time=16
 i : 2the msg is note_on channel=0 note=62 velocity=75 time=122
 i : 2the msg is note_on channel=0 note=65 velocity=91 time=2
 i : 2the msg is note_on channel=0 note=69 velocity=86 time=2
 i : 2the msg is note_on channel=0 note=62 velocity=0 time=829
 i : 2the msg is note_on channel=0 note=69 velocity=0 time=16
 i : 2the msg is note_on channel=0 note=65 velocity=0 time=1
 i : 2the msg is note_on channel=0 note=65 velocity=62 time=97
 i : 2the msg is note_on channel=0 note=69 velocity=65 time=2
 i : 2the msg is note_on channel=0 note=62 velocity=61 time=5
 i : 2the msg is note_on channel=0 note=62 velocity=0 time=82
 i : 2the msg is note_on channel=0 note=65 velocity=0 time=8
 i : 2the msg is note_on channel=0 note=69 velocity=0 time=5
 i : 2the msg is note_on channel=0 note=65 velocity=73 time=122
 i : 2the msg is note_on channel=0 note=69 velocity=77 time=0
 i : 2the msg is note_on channel=0 note=72 velocity=85 time=4
 i : 2the msg is note_on channel=0 note=72 velocity=0 time=114
 i : 2the msg is note_on channel=0 note=69 velocity=0 time=29
 i : 2the msg is note_on channel=0 note=65 velocity=0 time=8
 i : 2the msg is note_on channel=0 note=65 velocity=93 time=341
 i : 2the msg is note_on channel=0 note=69 velocity=89 time=1
 i : 2the msg is note_on channel=0 note=62 velocity=86 time=2
 i : 2the msg is note_on channel=0 note=62 velocity=0 time=824
 i : 2the msg is note_on channel=0 note=69 velocity=0 time=10
 i : 2the msg is note_on channel=0 note=65 velocity=0 time=2
 i : 2the msg is note_on channel=0 note=69 velocity=66 time=109
 i : 2the msg is note_on channel=0 note=65 velocity=56 time=1
 i : 2the msg is note_on channel=0 note=62 velocity=60 time=13
 i : 2the msg is note_on channel=0 note=62 velocity=0 time=69
 i : 2the msg is note_on channel=0 note=65 velocity=0 time=8
 i : 2the msg is note_on channel=0 note=69 velocity=0 time=2
 i : 2the msg is note_on channel=0 note=65 velocity=56 time=154
 i : 2the msg is note_on channel=0 note=69 velocity=64 time=0
 i : 2the msg is note_on channel=0 note=62 velocity=52 time=9
 i : 2the msg is note_on channel=0 note=62 velocity=0 time=51
 i : 2the msg is note_on channel=0 note=69 velocity=0 time=32
 i : 2the msg is note_on channel=0 note=65 velocity=0 time=0
 i : 2the msg is note_on channel=0 note=65 velocity=85 time=144
 i : 2the msg is note_on channel=0 note=69 velocity=75 time=3
 i : 2the msg is note_on channel=0 note=72 velocity=85 time=0
 i : 2the msg is note_on channel=0 note=72 velocity=0 time=101
 i : 2the msg is note_on channel=0 note=69 velocity=0 time=7
 i : 2the msg is note_on channel=0 note=65 velocity=0 time=9
 i : 2the msg is note_on channel=0 note=62 velocity=89 time=145
 i : 2the msg is note_on channel=0 note=67 velocity=91 time=0
 i : 2the msg is note_on channel=0 note=71 velocity=89 time=3
 i : 2the msg is note_on channel=0 note=62 velocity=0 time=316
 i : 2the msg is note_on channel=0 note=67 velocity=0 time=29
 i : 2the msg is note_on channel=0 note=71 velocity=0 time=26
 i : 2the msg is note_on channel=0 note=62 velocity=91 time=112
 i : 2the msg is note_on channel=0 note=69 velocity=89 time=1
 i : 2the msg is note_on channel=0 note=65 velocity=96 time=1
 i : 2the msg is note_on channel=0 note=62 velocity=0 time=807
 i : 2the msg is note_on channel=0 note=65 velocity=0 time=15
 i : 2the msg is note_on channel=0 note=69 velocity=0 time=3
 i : 2the msg is note_on channel=0 note=69 velocity=65 time=129
 i : 2the msg is note_on channel=0 note=65 velocity=60 time=1
 i : 2the msg is note_on channel=0 note=62 velocity=58 time=10
 i : 2the msg is note_on channel=0 note=62 velocity=0 time=59
 i : 2the msg is note_on channel=0 note=65 velocity=0 time=17
 i : 2the msg is note_on channel=0 note=69 velocity=0 time=8
 i : 2the msg is note_on channel=0 note=65 velocity=83 time=136
 i : 2the msg is note_on channel=0 note=69 velocity=75 time=2
 i : 2the msg is note_on channel=0 note=72 velocity=86 time=0
 i : 2the msg is note_on channel=0 note=72 velocity=0 time=123
 i : 2the msg is note_on channel=0 note=69 velocity=0 time=9
 i : 2the msg is note_on channel=0 note=65 velocity=0 time=11
 i : 2the msg is note_on channel=0 note=65 velocity=89 time=309
 i : 2the msg is note_on channel=0 note=69 velocity=83 time=1
 i : 2the msg is note_on channel=0 note=62 velocity=82 time=1
 i : 2the msg is note_on channel=0 note=62 velocity=0 time=833
 i : 2the msg is note_on channel=0 note=69 velocity=0 time=9
 i : 2the msg is note_on channel=0 note=65 velocity=0 time=4
 i : 2the msg is note_on channel=0 note=65 velocity=48 time=132
 i : 2the msg is note_on channel=0 note=69 velocity=52 time=5
 i : 2the msg is note_on channel=0 note=62 velocity=53 time=4
 i : 2the msg is note_on channel=0 note=69 velocity=0 time=69
 i : 2the msg is note_on channel=0 note=62 velocity=0 time=2
 i : 2the msg is note_on channel=0 note=65 velocity=0 time=0
 i : 2the msg is note_on channel=0 note=65 velocity=56 time=153
 i : 2the msg is note_on channel=0 note=69 velocity=60 time=7
 i : 2the msg is note_on channel=0 note=62 velocity=48 time=4
 i : 2the msg is note_on channel=0 note=62 velocity=0 time=47
 i : 2the msg is note_on channel=0 note=65 velocity=0 time=35
 i : 2the msg is note_on channel=0 note=69 velocity=0 time=6
 i : 2the msg is note_on channel=0 note=65 velocity=80 time=132
 i : 2the msg is note_on channel=0 note=69 velocity=77 time=3
 i : 2the msg is note_on channel=0 note=72 velocity=86 time=2
 i : 2the msg is note_on channel=0 note=72 velocity=0 time=102
 i : 2the msg is note_on channel=0 note=69 velocity=0 time=15
 i : 2the msg is note_on channel=0 note=65 velocity=0 time=9
 i : 2the msg is note_on channel=0 note=62 velocity=93 time=132
 i : 2the msg is note_on channel=0 note=67 velocity=96 time=0
 i : 2the msg is note_on channel=0 note=71 velocity=96 time=3
 i : 2the msg is note_on channel=0 note=62 velocity=0 time=346
 i : 2the msg is note_on channel=0 note=67 velocity=0 time=9
 i : 2the msg is note_on channel=0 note=71 velocity=0 time=26
 i : 2the msg is note_on channel=0 note=62 velocity=85 time=98
 i : 2the msg is note_on channel=0 note=65 velocity=89 time=0
 i : 2the msg is note_on channel=0 note=69 velocity=78 time=2
 i : 2the msg is note_on channel=0 note=69 velocity=0 time=751
 i : 2the msg is note_on channel=0 note=65 velocity=0 time=4
 i : 2the msg is note_on channel=0 note=62 velocity=0 time=10
 i : 2the msg is note_on channel=0 note=69 velocity=80 time=181
 i : 2the msg is note_on channel=0 note=65 velocity=82 time=3
 i : 2the msg is note_on channel=0 note=62 velocity=85 time=6
 i : 2the msg is note_on channel=0 note=62 velocity=0 time=167
 i : 2the msg is note_on channel=0 note=65 velocity=0 time=8
 i : 2the msg is note_on channel=0 note=69 velocity=0 time=24
 i : 2the msg is note_on channel=0 note=72 velocity=89 time=36
 i : 2the msg is note_on channel=0 note=65 velocity=93 time=4
 i : 2the msg is note_on channel=0 note=69 velocity=89 time=3
 i : 2the msg is note_on channel=0 note=72 velocity=0 time=130
 i : 2the msg is note_on channel=0 note=65 velocity=0 time=20
 i : 2the msg is note_on channel=0 note=69 velocity=0 time=1
 i : 2the msg is note_on channel=0 note=65 velocity=85 time=301
 i : 2the msg is note_on channel=0 note=69 velocity=75 time=1
 i : 2the msg is note_on channel=0 note=62 velocity=85 time=8
 i : 2the msg is note_on channel=0 note=69 velocity=0 time=1990
 i : 2the msg is note_on channel=0 note=62 velocity=0 time=9
 i : 2the msg is note_on channel=0 note=65 velocity=0 time=3
 i : 2the msg is note_on channel=0 note=64 velocity=83 time=183
 i : 2the msg is note_on channel=0 note=61 velocity=75 time=2
 i : 2the msg is note_on channel=0 note=69 velocity=83 time=0
 i : 2the msg is note_on channel=0 note=61 velocity=0 time=830
 i : 2the msg is note_on channel=0 note=69 velocity=0 time=11
 i : 2the msg is note_on channel=0 note=64 velocity=0 time=7
 i : 2the msg is note_on channel=0 note=64 velocity=65 time=100
 i : 2the msg is note_on channel=0 note=61 velocity=70 time=4
 i : 2the msg is note_on channel=0 note=69 velocity=54 time=7
 i : 2the msg is note_on channel=0 note=61 velocity=0 time=57
 i : 2the msg is note_on channel=0 note=69 velocity=0 time=20
 i : 2the msg is note_on channel=0 note=64 velocity=0 time=0
 i : 2the msg is note_on channel=0 note=64 velocity=103 time=143
 i : 2the msg is note_on channel=0 note=61 velocity=104 time=1
 i : 2the msg is note_on channel=0 note=69 velocity=98 time=4
 i : 2the msg is note_on channel=0 note=69 velocity=0 time=135
 i : 2the msg is note_on channel=0 note=61 velocity=0 time=8
 i : 2the msg is note_on channel=0 note=64 velocity=0 time=4
 i : 2the msg is note_on channel=0 note=67 velocity=98 time=319
 i : 2the msg is note_on channel=0 note=59 velocity=85 time=6
 i : 2the msg is note_on channel=0 note=62 velocity=113 time=1
 i : 2the msg is note_on channel=0 note=67 velocity=0 time=1889
 i : 2the msg is note_on channel=0 note=59 velocity=0 time=60
 i : 2the msg is note_on channel=0 note=62 velocity=0 time=44
 i : 2the msg is note_on channel=0 note=69 velocity=96 time=194
 i : 2the msg is note_on channel=0 note=62 velocity=98 time=6
 i : 2the msg is note_on channel=0 note=65 velocity=98 time=0
 i : 2the msg is note_on channel=0 note=69 velocity=0 time=910
 i : 2the msg is note_on channel=0 note=65 velocity=0 time=4
 i : 2the msg is note_on channel=0 note=62 velocity=0 time=0
 i : 2the msg is note_on channel=0 note=65 velocity=56 time=64
 i : 2the msg is note_on channel=0 note=69 velocity=62 time=0
 i : 2the msg is note_on channel=0 note=62 velocity=53 time=2
 i : 2the msg is note_on channel=0 note=62 velocity=0 time=68
 i : 2the msg is note_on channel=0 note=65 velocity=0 time=14
 i : 2the msg is note_on channel=0 note=69 velocity=0 time=18
 i : 2the msg is note_on channel=0 note=72 velocity=86 time=83
 i : 2the msg is note_on channel=0 note=65 velocity=83 time=3
 i : 2the msg is note_on channel=0 note=69 velocity=78 time=2
 i : 2the msg is note_on channel=0 note=72 velocity=0 time=138
 i : 2the msg is note_on channel=0 note=69 velocity=0 time=18
 i : 2the msg is note_on channel=0 note=65 velocity=0 time=13
 i : 2the msg is note_on channel=0 note=65 velocity=93 time=321
 i : 2the msg is note_on channel=0 note=69 velocity=93 time=4
 i : 2the msg is note_on channel=0 note=62 velocity=93 time=1
 i : 2the msg is note_on channel=0 note=62 velocity=0 time=1925
 i : 2the msg is note_on channel=0 note=65 velocity=0 time=26
 i : 2the msg is note_on channel=0 note=69 velocity=0 time=4
 i : 2the msg is note_on channel=0 note=69 velocity=89 time=207
 i : 2the msg is note_on channel=0 note=61 velocity=76 time=9
 i : 2the msg is note_on channel=0 note=64 velocity=98 time=0
 i : 2the msg is note_on channel=0 note=61 velocity=0 time=866
 i : 2the msg is note_on channel=0 note=69 velocity=0 time=4
 i : 2the msg is note_on channel=0 note=64 velocity=0 time=1
 i : 2the msg is note_on channel=0 note=69 velocity=48 time=70
 i : 2the msg is note_on channel=0 note=64 velocity=61 time=1
 i : 2the msg is note_on channel=0 note=61 velocity=56 time=4
 i : 2the msg is note_on channel=0 note=61 velocity=0 time=63
 i : 2the msg is note_on channel=0 note=64 velocity=0 time=23
 i : 2the msg is note_on channel=0 note=69 velocity=0 time=0
 i : 2the msg is note_on channel=0 note=61 velocity=78 time=137
 i : 2the msg is note_on channel=0 note=64 velocity=89 time=1
 i : 2the msg is note_on channel=0 note=69 velocity=93 time=2
 i : 2the msg is note_on channel=0 note=69 velocity=0 time=134
 i : 2the msg is note_on channel=0 note=64 velocity=0 time=10
 i : 2the msg is note_on channel=0 note=61 velocity=0 time=9
 i : 2the msg is note_on channel=0 note=67 velocity=96 time=321
 i : 2the msg is note_on channel=0 note=59 velocity=80 time=2
 i : 2the msg is note_on channel=0 note=62 velocity=108 time=1
 i : 2the msg is note_on channel=0 note=62 velocity=0 time=2187
 i : 2the msg is note_on channel=0 note=59 velocity=0 time=24
 i : 2the msg is note_on channel=0 note=66 velocity=79 time=197
 i : 2the msg is note_on channel=0 note=62 velocity=98 time=7
 i : 2the msg is note_on channel=0 note=57 velocity=96 time=2
 i : 2the msg is note_on channel=0 note=67 velocity=0 time=20
 i : 2the msg is note_on channel=0 note=57 velocity=0 time=350
 i : 2the msg is note_on channel=0 note=66 velocity=0 time=6
 i : 2the msg is note_on channel=0 note=62 velocity=0 time=12
 i : 2the msg is note_on channel=0 note=66 velocity=78 time=88
 i : 2the msg is note_on channel=0 note=62 velocity=89 time=2
 i : 2the msg is note_on channel=0 note=57 velocity=65 time=2
 i : 2the msg is note_on channel=0 note=66 velocity=0 time=118
 i : 2the msg is note_on channel=0 note=57 velocity=0 time=8
 i : 2the msg is note_on channel=0 note=62 velocity=0 time=1
 i : 2the msg is note_on channel=0 note=62 velocity=78 time=111
 i : 2the msg is note_on channel=0 note=66 velocity=68 time=2
 i : 2the msg is note_on channel=0 note=57 velocity=54 time=6
 i : 2the msg is note_on channel=0 note=57 velocity=0 time=56
 i : 2the msg is note_on channel=0 note=66 velocity=0 time=4
 i : 2the msg is note_on channel=0 note=62 velocity=0 time=4
 i : 2the msg is note_on channel=0 note=62 velocity=93 time=152
 i : 2the msg is note_on channel=0 note=66 velocity=89 time=3
 i : 2the msg is note_on channel=0 note=57 velocity=70 time=1
 i : 2the msg is note_on channel=0 note=57 velocity=0 time=72
 i : 2the msg is note_on channel=0 note=66 velocity=0 time=7
 i : 2the msg is note_on channel=0 note=62 velocity=0 time=2
 i : 2the msg is note_on channel=0 note=66 velocity=79 time=160
 i : 2the msg is note_on channel=0 note=62 velocity=89 time=2
 i : 2the msg is note_on channel=0 note=57 velocity=71 time=2
 i : 2the msg is note_on channel=0 note=62 velocity=0 time=79
 i : 2the msg is note_on channel=0 note=66 velocity=0 time=2
 i : 2the msg is note_on channel=0 note=57 velocity=0 time=1
 i : 2the msg is note_on channel=0 note=59 velocity=91 time=622
 i : 2the msg is note_on channel=0 note=62 velocity=111 time=1
 i : 2the msg is note_on channel=0 note=67 velocity=98 time=0
 i : 2the msg is note_on channel=0 note=59 velocity=0 time=110
 i : 2the msg is note_on channel=0 note=62 velocity=0 time=4
 i : 2the msg is note_on channel=0 note=67 velocity=0 time=3
 i : 2the msg is note_on channel=0 note=59 velocity=86 time=133
 i : 2the msg is note_on channel=0 note=67 velocity=96 time=1
 i : 2the msg is note_on channel=0 note=62 velocity=103 time=1
 i : 2the msg is note_on channel=0 note=67 velocity=0 time=242
 i : 2the msg is note_on channel=0 note=59 velocity=0 time=5
 i : 2the msg is note_on channel=0 note=62 velocity=0 time=4
 i : 2the msg is note_on channel=0 note=59 velocity=86 time=211
 i : 2the msg is note_on channel=0 note=62 velocity=100 time=0
 i : 2the msg is note_on channel=0 note=67 velocity=89 time=2
 i : 2the msg is note_on channel=0 note=62 velocity=0 time=950
 i : 2the msg is note_on channel=0 note=59 velocity=0 time=27
 i : 2the msg is note_on channel=0 note=66 velocity=84 time=230
 i : 2the msg is note_on channel=0 note=62 velocity=96 time=7
 i : 2the msg is note_on channel=0 note=57 velocity=91 time=2
 i : 2the msg is note_on channel=0 note=67 velocity=0 time=28
 i : 2the msg is note_on channel=0 note=57 velocity=0 time=386
 i : 2the msg is note_on channel=0 note=66 velocity=0 time=11
 i : 2the msg is note_on channel=0 note=62 velocity=0 time=5
 i : 2the msg is note_on channel=0 note=62 velocity=93 time=47
 i : 2the msg is note_on channel=0 note=66 velocity=100 time=1
 i : 2the msg is note_on channel=0 note=57 velocity=72 time=3
 i : 2the msg is note_on channel=0 note=57 velocity=0 time=144
 i : 2the msg is note_on channel=0 note=66 velocity=0 time=0
 i : 2the msg is note_on channel=0 note=62 velocity=0 time=6
 i : 2the msg is note_on channel=0 note=62 velocity=86 time=91
 i : 2the msg is note_on channel=0 note=66 velocity=68 time=0
 i : 2the msg is note_on channel=0 note=57 velocity=60 time=7
 i : 2the msg is note_on channel=0 note=57 velocity=0 time=67
 i : 2the msg is note_on channel=0 note=62 velocity=0 time=14
 i : 2the msg is note_on channel=0 note=66 velocity=0 time=1
 i : 2the msg is note_on channel=0 note=57 velocity=75 time=131
 i : 2the msg is note_on channel=0 note=62 velocity=96 time=0
 i : 2the msg is note_on channel=0 note=66 velocity=92 time=0
 i : 2the msg is note_on channel=0 note=57 velocity=0 time=87
 i : 2the msg is note_on channel=0 note=62 velocity=0 time=11
 i : 2the msg is note_on channel=0 note=66 velocity=0 time=1
 i : 2the msg is note_on channel=0 note=66 velocity=94 time=164
 i : 2the msg is note_on channel=0 note=62 velocity=96 time=3
 i : 2the msg is note_on channel=0 note=57 velocity=78 time=2
 i : 2the msg is note_on channel=0 note=62 velocity=0 time=539
 i : 2the msg is note_on channel=0 note=57 velocity=0 time=4
 i : 2the msg is note_on channel=0 note=66 velocity=0 time=49
 i : 2the msg is note_on channel=0 note=62 velocity=72 time=100
 i : 2the msg is note_on channel=0 note=67 velocity=86 time=0
 i : 2the msg is note_on channel=0 note=59 velocity=67 time=4
 i : 2the msg is note_on channel=0 note=62 velocity=0 time=98
 i : 2the msg is note_on channel=0 note=59 velocity=0 time=3
 i : 2the msg is note_on channel=0 note=67 velocity=0 time=11
 i : 2the msg is note_on channel=0 note=62 velocity=93 time=146
 i : 2the msg is note_on channel=0 note=67 velocity=91 time=0
 i : 2the msg is note_on channel=0 note=59 velocity=58 time=2
 i : 2the msg is note_on channel=0 note=59 velocity=0 time=325
 i : 2the msg is note_on channel=0 note=67 velocity=0 time=10
 i : 2the msg is note_on channel=0 note=62 velocity=0 time=1
 i : 2the msg is note_on channel=0 note=59 velocity=45 time=125
 i : 2the msg is note_on channel=0 note=59 velocity=0 time=63
 i : 2the msg is note_on channel=0 note=59 velocity=85 time=182
 i : 2the msg is note_on channel=0 note=62 velocity=106 time=2
 i : 2the msg is note_on channel=0 note=67 velocity=100 time=0
 i : 2the msg is note_on channel=0 note=59 velocity=0 time=164
 i : 2the msg is note_on channel=0 note=59 velocity=44 time=89
 i : 2the msg is note_on channel=0 note=62 velocity=0 time=72
 i : 2the msg is note_on channel=0 note=59 velocity=0 time=25
 i : 2the msg is note_on channel=0 note=67 velocity=0 time=59
 i : 2the msg is note_on channel=0 note=62 velocity=89 time=73
 i : 2the msg is note_on channel=0 note=59 velocity=72 time=2
 i : 2the msg is note_on channel=0 note=67 velocity=89 time=2
 i : 2the msg is note_on channel=0 note=59 velocity=0 time=82
 i : 2the msg is note_on channel=0 note=62 velocity=0 time=24
 i : 2the msg is note_on channel=0 note=67 velocity=0 time=16
 i : 2the msg is note_on channel=0 note=62 velocity=91 time=131
 i : 2the msg is note_on channel=0 note=65 velocity=98 time=0
 i : 2the msg is note_on channel=0 note=69 velocity=98 time=4
 i : 2the msg is note_on channel=0 note=62 velocity=0 time=800
 i : 2the msg is note_on channel=0 note=65 velocity=0 time=26
 i : 2the msg is note_on channel=0 note=69 velocity=0 time=1
 i : 2the msg is note_on channel=0 note=69 velocity=60 time=145
 i : 2the msg is note_on channel=0 note=65 velocity=49 time=6
 i : 2the msg is note_on channel=0 note=62 velocity=62 time=3
 i : 2the msg is note_on channel=0 note=62 velocity=0 time=74
 i : 2the msg is note_on channel=0 note=65 velocity=0 time=8
 i : 2the msg is note_on channel=0 note=69 velocity=0 time=30
 i : 2the msg is note_on channel=0 note=72 velocity=89 time=105
 i : 2the msg is note_on channel=0 note=65 velocity=80 time=3
 i : 2the msg is note_on channel=0 note=69 velocity=91 time=7
 i : 2the msg is note_on channel=0 note=72 velocity=0 time=122
 i : 2the msg is note_on channel=0 note=69 velocity=0 time=24
 i : 2the msg is note_on channel=0 note=65 velocity=0 time=7
 i : 2the msg is note_on channel=0 note=65 velocity=93 time=306
 i : 2the msg is note_on channel=0 note=69 velocity=89 time=3
 i : 2the msg is note_on channel=0 note=62 velocity=100 time=3
 i : 2the msg is note_on channel=0 note=69 velocity=0 time=1326
 i : 2the msg is note_on channel=0 note=65 velocity=0 time=9
 i : 2the msg is note_on channel=0 note=62 velocity=0 time=1
 i : 2the msg is note_on channel=0 note=62 velocity=71 time=84
 i : 2the msg is note_on channel=0 note=65 velocity=77 time=1
 i : 2the msg is note_on channel=0 note=69 velocity=66 time=7
 i : 2the msg is note_on channel=0 note=62 velocity=0 time=85
 i : 2the msg is note_on channel=0 note=65 velocity=0 time=7
 i : 2the msg is note_on channel=0 note=69 velocity=0 time=4
 i : 2the msg is note_on channel=0 note=62 velocity=103 time=164
 i : 2the msg is note_on channel=0 note=65 velocity=108 time=1
 i : 2the msg is note_on channel=0 note=69 velocity=91 time=1
 i : 2the msg is note_on channel=0 note=69 velocity=0 time=333
 i : 2the msg is note_on channel=0 note=62 velocity=0 time=10
 i : 2the msg is note_on channel=0 note=65 velocity=0 time=9
 i : 2the msg is note_on channel=0 note=59 velocity=100 time=116
 i : 2the msg is note_on channel=0 note=62 velocity=113 time=2
 i : 2the msg is note_on channel=0 note=67 velocity=89 time=1
 i : 2the msg is note_on channel=0 note=59 velocity=0 time=797
 i : 2the msg is note_on channel=0 note=67 velocity=0 time=18
 i : 2the msg is note_on channel=0 note=62 velocity=0 time=2
 i : 2the msg is note_on channel=0 note=67 velocity=66 time=154
 i : 2the msg is note_on channel=0 note=62 velocity=86 time=1
 i : 2the msg is note_on channel=0 note=59 velocity=67 time=2
 i : 2the msg is note_on channel=0 note=62 velocity=0 time=59
 i : 2the msg is note_on channel=0 note=59 velocity=0 time=1
 i : 2the msg is note_on channel=0 note=67 velocity=0 time=1
 i : 2the msg is note_on channel=0 note=59 velocity=71 time=172
 i : 2the msg is note_on channel=0 note=62 velocity=96 time=0
 i : 2the msg is note_on channel=0 note=67 velocity=85 time=2
 i : 2the msg is note_on channel=0 note=62 velocity=0 time=165
 i : 2the msg is note_on channel=0 note=67 velocity=0 time=1
 i : 2the msg is note_on channel=0 note=59 velocity=0 time=0
 i : 2the msg is note_on channel=0 note=62 velocity=100 time=307
 i : 2the msg is note_on channel=0 note=59 velocity=80 time=1
 i : 2the msg is note_on channel=0 note=67 velocity=83 time=1
 i : 2the msg is note_on channel=0 note=59 velocity=0 time=1083
 i : 2the msg is note_on channel=0 note=62 velocity=0 time=36
 i : 2the msg is note_on channel=0 note=67 velocity=0 time=25
 i : 2the msg is note_on channel=0 note=67 velocity=25 time=33
 i : 2the msg is note_on channel=0 note=62 velocity=48 time=12
 i : 2the msg is note_on channel=0 note=59 velocity=22 time=11
 i : 2the msg is note_on channel=0 note=59 velocity=0 time=59
 i : 2the msg is note_on channel=0 note=67 velocity=0 time=7
 i : 2the msg is note_on channel=0 note=62 velocity=0 time=1
 i : 2the msg is note_on channel=0 note=62 velocity=93 time=168
 i : 2the msg is note_on channel=0 note=59 velocity=68 time=1
 i : 2the msg is note_on channel=0 note=67 velocity=75 time=1
 i : 2the msg is note_on channel=0 note=59 velocity=0 time=70
 i : 2the msg is note_on channel=0 note=62 velocity=0 time=9
 i : 2the msg is note_on channel=0 note=67 velocity=0 time=6
 i : 2the msg is note_on channel=0 note=62 velocity=83 time=140
 i : 2the msg is note_on channel=0 note=59 velocity=64 time=1
 i : 2the msg is note_on channel=0 note=67 velocity=72 time=0
 i : 2the msg is note_on channel=0 note=59 velocity=0 time=260
 i : 2the msg is note_on channel=0 note=62 velocity=0 time=28
 i : 2the msg is note_on channel=0 note=67 velocity=0 time=22
 i : 2the msg is note_on channel=0 note=62 velocity=103 time=177
 i : 2the msg is note_on channel=0 note=69 velocity=93 time=1
 i : 2the msg is note_on channel=0 note=65 velocity=103 time=2
 i : 2the msg is note_on channel=0 note=62 velocity=0 time=822
 i : 2the msg is note_on channel=0 note=65 velocity=0 time=16
 i : 2the msg is note_on channel=0 note=69 velocity=0 time=13
 i : 2the msg is note_on channel=0 note=65 velocity=62 time=115
 i : 2the msg is note_on channel=0 note=69 velocity=68 time=0
 i : 2the msg is note_on channel=0 note=62 velocity=60 time=4
 i : 2the msg is note_on channel=0 note=62 velocity=0 time=85
 i : 2the msg is note_on channel=0 note=65 velocity=0 time=13
 i : 2the msg is note_on channel=0 note=69 velocity=0 time=4
 i : 2the msg is note_on channel=0 note=65 velocity=73 time=131
 i : 2the msg is note_on channel=0 note=69 velocity=85 time=3
 i : 2the msg is note_on channel=0 note=72 velocity=86 time=0
 i : 2the msg is note_on channel=0 note=72 velocity=0 time=128
 i : 2the msg is note_on channel=0 note=65 velocity=0 time=12
 i : 2the msg is note_on channel=0 note=69 velocity=0 time=3
 i : 2the msg is note_on channel=0 note=65 velocity=89 time=317
 i : 2the msg is note_on channel=0 note=62 velocity=91 time=2
 i : 2the msg is note_on channel=0 note=69 velocity=83 time=1
 i : 2the msg is note_on channel=0 note=69 velocity=0 time=1311
 i : 2the msg is note_on channel=0 note=65 velocity=0 time=10
 i : 2the msg is note_on channel=0 note=62 velocity=0 time=5
 i : 2the msg is note_on channel=0 note=65 velocity=77 time=128
 i : 2the msg is note_on channel=0 note=62 velocity=69 time=1
 i : 2the msg is note_on channel=0 note=69 velocity=69 time=2
 i : 2the msg is note_on channel=0 note=62 velocity=0 time=83
 i : 2the msg is note_on channel=0 note=69 velocity=0 time=3
 i : 2the msg is note_on channel=0 note=65 velocity=0 time=2
 i : 2the msg is note_on channel=0 note=65 velocity=96 time=152
 i : 2the msg is note_on channel=0 note=69 velocity=85 time=1
 i : 2the msg is note_on channel=0 note=62 velocity=89 time=1
 i : 2the msg is note_on channel=0 note=65 velocity=0 time=267
 i : 2the msg is note_on channel=0 note=69 velocity=0 time=9
 i : 2the msg is note_on channel=0 note=62 velocity=0 time=18
 i : 2the msg is note_on channel=0 note=59 velocity=86 time=190
 i : 2the msg is note_on channel=0 note=62 velocity=106 time=2
 i : 2the msg is note_on channel=0 note=67 velocity=93 time=3
 i : 2the msg is note_on channel=0 note=67 velocity=0 time=810
 i : 2the msg is note_on channel=0 note=62 velocity=0 time=1
 i : 2the msg is note_on channel=0 note=59 velocity=0 time=3
 i : 2the msg is note_on channel=0 note=67 velocity=60 time=111
 i : 2the msg is note_on channel=0 note=62 velocity=64 time=6
 i : 2the msg is note_on channel=0 note=59 velocity=28 time=19
 i : 2the msg is note_on channel=0 note=59 velocity=0 time=55
 i : 2the msg is note_on channel=0 note=62 velocity=0 time=0
 i : 2the msg is note_on channel=0 note=67 velocity=0 time=0
 i : 2the msg is note_on channel=0 note=59 velocity=80 time=174
 i : 2the msg is note_on channel=0 note=62 velocity=100 time=0
 i : 2the msg is note_on channel=0 note=67 velocity=86 time=4
 i : 2the msg is note_on channel=0 note=62 velocity=0 time=152
 i : 2the msg is note_on channel=0 note=59 velocity=0 time=1
 i : 2the msg is note_on channel=0 note=67 velocity=0 time=3
 i : 2the msg is note_on channel=0 note=62 velocity=89 time=320
 i : 2the msg is note_on channel=0 note=59 velocity=64 time=4
 i : 2the msg is note_on channel=0 note=67 velocity=78 time=3
 i : 2the msg is note_on channel=0 note=59 velocity=0 time=839
 i : 2the msg is note_on channel=0 note=67 velocity=0 time=2
 i : 2the msg is note_on channel=0 note=62 velocity=0 time=14
 i : 2the msg is note_on channel=0 note=62 velocity=78 time=132
 i : 2the msg is note_on channel=0 note=67 velocity=70 time=1
 i : 2the msg is note_on channel=0 note=59 velocity=53 time=6
 i : 2the msg is note_on channel=0 note=62 velocity=0 time=77
 i : 2the msg is note_on channel=0 note=67 velocity=0 time=2
 i : 2the msg is note_on channel=0 note=59 velocity=0 time=3
 i : 2the msg is note_on channel=0 note=62 velocity=57 time=153
 i : 2the msg is note_on channel=0 note=67 velocity=48 time=4
 i : 2the msg is note_on channel=0 note=59 velocity=32 time=2
 i : 2the msg is note_on channel=0 note=62 velocity=0 time=53
 i : 2the msg is note_on channel=0 note=59 velocity=0 time=5
 i : 2the msg is note_on channel=0 note=67 velocity=0 time=0
 i : 2the msg is note_on channel=0 note=62 velocity=96 time=180
 i : 2the msg is note_on channel=0 note=67 velocity=77 time=0
 i : 2the msg is note_on channel=0 note=59 velocity=73 time=2
 i : 2the msg is note_on channel=0 note=62 velocity=0 time=96
 i : 2the msg is note_on channel=0 note=59 velocity=0 time=8
 i : 2the msg is note_on channel=0 note=67 velocity=0 time=0
 i : 2the msg is note_on channel=0 note=62 velocity=96 time=116
 i : 2the msg is note_on channel=0 note=67 velocity=80 time=0
 i : 2the msg is note_on channel=0 note=59 velocity=77 time=1
 i : 2the msg is note_on channel=0 note=59 velocity=0 time=290
 i : 2the msg is note_on channel=0 note=62 velocity=0 time=28
 i : 2the msg is note_on channel=0 note=67 velocity=0 time=13
 i : 2the msg is note_on channel=0 note=69 velocity=98 time=150
 i : 2the msg is note_on channel=0 note=65 velocity=96 time=1
 i : 2the msg is note_on channel=0 note=62 velocity=93 time=1
 i : 2the msg is note_on channel=0 note=62 velocity=0 time=858
 i : 2the msg is note_on channel=0 note=69 velocity=0 time=3
 i : 2the msg is note_on channel=0 note=65 velocity=0 time=8
 i : 2the msg is note_on channel=0 note=65 velocity=65 time=93
 i : 2the msg is note_on channel=0 note=62 velocity=70 time=3
 i : 2the msg is note_on channel=0 note=69 velocity=62 time=1
 i : 2the msg is note_on channel=0 note=65 velocity=0 time=103
 i : 2the msg is note_on channel=0 note=62 velocity=0 time=1
 i : 2the msg is note_on channel=0 note=69 velocity=0 time=5
 i : 2the msg is note_on channel=0 note=65 velocity=80 time=116
 i : 2the msg is note_on channel=0 note=69 velocity=85 time=1
 i : 2the msg is note_on channel=0 note=72 velocity=96 time=1
 i : 2the msg is note_on channel=0 note=72 velocity=0 time=129
 i : 2the msg is note_on channel=0 note=69 velocity=0 time=14
 i : 2the msg is note_on channel=0 note=65 velocity=0 time=7
 i : 2the msg is note_on channel=0 note=65 velocity=91 time=318
 i : 2the msg is note_on channel=0 note=62 velocity=86 time=1
 i : 2the msg is note_on channel=0 note=69 velocity=89 time=1
 i : 2the msg is note_on channel=0 note=62 velocity=0 time=833
 i : 2the msg is note_on channel=0 note=69 velocity=0 time=11
 i : 2the msg is note_on channel=0 note=65 velocity=0 time=8
 i : 2the msg is note_on channel=0 note=65 velocity=46 time=116
 i : 2the msg is note_on channel=0 note=69 velocity=59 time=3
 i : 2the msg is note_on channel=0 note=62 velocity=46 time=8
 i : 2the msg is note_on channel=0 note=62 velocity=0 time=63
 i : 2the msg is note_on channel=0 note=69 velocity=0 time=4
 i : 2the msg is note_on channel=0 note=65 velocity=0 time=0
 i : 2the msg is note_on channel=0 note=62 velocity=48 time=148
 i : 2the msg is note_on channel=0 note=65 velocity=43 time=3
 i : 2the msg is note_on channel=0 note=69 velocity=60 time=0
 i : 2the msg is note_on channel=0 note=62 velocity=0 time=70
 i : 2the msg is note_on channel=0 note=65 velocity=0 time=14
 i : 2the msg is note_on channel=0 note=69 velocity=0 time=5
 i : 2the msg is note_on channel=0 note=69 velocity=82 time=135
 i : 2the msg is note_on channel=0 note=65 velocity=80 time=1
 i : 2the msg is note_on channel=0 note=72 velocity=91 time=7
 i : 2the msg is note_on channel=0 note=65 velocity=0 time=102
 i : 2the msg is note_on channel=0 note=72 velocity=0 time=1
 i : 2the msg is note_on channel=0 note=69 velocity=0 time=8
 i : 2the msg is note_on channel=0 note=62 velocity=89 time=147
 i : 2the msg is note_on channel=0 note=67 velocity=98 time=2
 i : 2the msg is note_on channel=0 note=71 velocity=100 time=0
 i : 2the msg is note_on channel=0 note=67 velocity=0 time=374
 i : 2the msg is note_on channel=0 note=62 velocity=0 time=4
 i : 2the msg is note_on channel=0 note=71 velocity=0 time=22
 i : 2the msg is note_on channel=0 note=62 velocity=80 time=96
 i : 2the msg is note_on channel=0 note=69 velocity=83 time=4
 i : 2the msg is note_on channel=0 note=65 velocity=93 time=5
 i : 2the msg is note_on channel=0 note=62 velocity=0 time=789
 i : 2the msg is note_on channel=0 note=65 velocity=0 time=6
 i : 2the msg is note_on channel=0 note=69 velocity=0 time=5
 i : 2the msg is note_on channel=0 note=69 velocity=72 time=112
 i : 2the msg is note_on channel=0 note=65 velocity=65 time=4
 i : 2the msg is note_on channel=0 note=62 velocity=61 time=5
 i : 2the msg is note_on channel=0 note=62 velocity=0 time=72
 i : 2the msg is note_on channel=0 note=65 velocity=0 time=6
 i : 2the msg is note_on channel=0 note=69 velocity=0 time=16
 i : 2the msg is note_on channel=0 note=69 velocity=82 time=141
 i : 2the msg is note_on channel=0 note=72 velocity=96 time=0
 i : 2the msg is note_on channel=0 note=65 velocity=93 time=1
 i : 2the msg is note_on channel=0 note=72 velocity=0 time=126
 i : 2the msg is note_on channel=0 note=69 velocity=0 time=4
 i : 2the msg is note_on channel=0 note=65 velocity=0 time=6
 i : 2the msg is note_on channel=0 note=65 velocity=98 time=364
 i : 2the msg is note_on channel=0 note=69 velocity=91 time=1
 i : 2the msg is note_on channel=0 note=62 velocity=89 time=1
 i : 2the msg is note_on channel=0 note=62 velocity=0 time=847
 i : 2the msg is note_on channel=0 note=69 velocity=0 time=15
 i : 2the msg is note_on channel=0 note=65 velocity=0 time=9
 i : 2the msg is note_on channel=0 note=65 velocity=51 time=91
 i : 2the msg is note_on channel=0 note=69 velocity=54 time=1
 i : 2the msg is note_on channel=0 note=62 velocity=53 time=12
 i : 2the msg is note_on channel=0 note=62 velocity=0 time=55
 i : 2the msg is note_on channel=0 note=65 velocity=0 time=17
 i : 2the msg is note_on channel=0 note=69 velocity=0 time=1
 i : 2the msg is note_on channel=0 note=65 velocity=51 time=132
 i : 2the msg is note_on channel=0 note=69 velocity=60 time=1
 i : 2the msg is note_on channel=0 note=62 velocity=48 time=12
 i : 2the msg is note_on channel=0 note=62 velocity=0 time=55
 i : 2the msg is note_on channel=0 note=65 velocity=0 time=24
 i : 2the msg is note_on channel=0 note=69 velocity=0 time=5
 i : 2the msg is note_on channel=0 note=65 velocity=82 time=127
 i : 2the msg is note_on channel=0 note=69 velocity=78 time=0
 i : 2the msg is note_on channel=0 note=72 velocity=80 time=4
 i : 2the msg is note_on channel=0 note=72 velocity=0 time=112
 i : 2the msg is note_on channel=0 note=65 velocity=0 time=1
 i : 2the msg is note_on channel=0 note=69 velocity=0 time=1
 i : 2the msg is note_on channel=0 note=67 velocity=89 time=153
 i : 2the msg is note_on channel=0 note=62 velocity=91 time=1
 i : 2the msg is note_on channel=0 note=71 velocity=86 time=0
 i : 2the msg is note_on channel=0 note=62 velocity=0 time=320
 i : 2the msg is note_on channel=0 note=67 velocity=0 time=16
 i : 2the msg is note_on channel=0 note=71 velocity=0 time=16
 i : 2the msg is note_on channel=0 note=62 velocity=75 time=122
 i : 2the msg is note_on channel=0 note=65 velocity=91 time=2
 i : 2the msg is note_on channel=0 note=69 velocity=86 time=2
 i : 2the msg is note_on channel=0 note=62 velocity=0 time=829
 i : 2the msg is note_on channel=0 note=69 velocity=0 time=16
 i : 2the msg is note_on channel=0 note=65 velocity=0 time=1
 i : 2the msg is note_on channel=0 note=65 velocity=62 time=97
 i : 2the msg is note_on channel=0 note=69 velocity=65 time=2
 i : 2the msg is note_on channel=0 note=62 velocity=61 time=5
 i : 2the msg is note_on channel=0 note=62 velocity=0 time=82
 i : 2the msg is note_on channel=0 note=65 velocity=0 time=8
 i : 2the msg is note_on channel=0 note=69 velocity=0 time=5
 i : 2the msg is note_on channel=0 note=65 velocity=73 time=122
 i : 2the msg is note_on channel=0 note=69 velocity=77 time=0
 i : 2the msg is note_on channel=0 note=72 velocity=85 time=4
 i : 2the msg is note_on channel=0 note=72 velocity=0 time=114
 i : 2the msg is note_on channel=0 note=69 velocity=0 time=29
 i : 2the msg is note_on channel=0 note=65 velocity=0 time=8
 i : 2the msg is note_on channel=0 note=65 velocity=93 time=341
 i : 2the msg is note_on channel=0 note=69 velocity=89 time=1
 i : 2the msg is note_on channel=0 note=62 velocity=86 time=2
 i : 2the msg is note_on channel=0 note=62 velocity=0 time=824
 i : 2the msg is note_on channel=0 note=69 velocity=0 time=10
 i : 2the msg is note_on channel=0 note=65 velocity=0 time=2
 i : 2the msg is note_on channel=0 note=69 velocity=66 time=109
 i : 2the msg is note_on channel=0 note=65 velocity=56 time=1
 i : 2the msg is note_on channel=0 note=62 velocity=60 time=13
 i : 2the msg is note_on channel=0 note=62 velocity=0 time=69
 i : 2the msg is note_on channel=0 note=65 velocity=0 time=8
 i : 2the msg is note_on channel=0 note=69 velocity=0 time=2
 i : 2the msg is note_on channel=0 note=65 velocity=56 time=154
 i : 2the msg is note_on channel=0 note=69 velocity=64 time=0
 i : 2the msg is note_on channel=0 note=62 velocity=52 time=9
 i : 2the msg is note_on channel=0 note=62 velocity=0 time=51
 i : 2the msg is note_on channel=0 note=69 velocity=0 time=32
 i : 2the msg is note_on channel=0 note=65 velocity=0 time=0
 i : 2the msg is note_on channel=0 note=65 velocity=85 time=144
 i : 2the msg is note_on channel=0 note=69 velocity=75 time=3
 i : 2the msg is note_on channel=0 note=72 velocity=85 time=0
 i : 2the msg is note_on channel=0 note=72 velocity=0 time=101
 i : 2the msg is note_on channel=0 note=69 velocity=0 time=7
 i : 2the msg is note_on channel=0 note=65 velocity=0 time=9
 i : 2the msg is note_on channel=0 note=62 velocity=89 time=145
 i : 2the msg is note_on channel=0 note=67 velocity=91 time=0
 i : 2the msg is note_on channel=0 note=71 velocity=89 time=3
 i : 2the msg is note_on channel=0 note=62 velocity=0 time=316
 i : 2the msg is note_on channel=0 note=67 velocity=0 time=29
 i : 2the msg is note_on channel=0 note=71 velocity=0 time=26
 i : 2the msg is note_on channel=0 note=62 velocity=91 time=112
 i : 2the msg is note_on channel=0 note=69 velocity=89 time=1
 i : 2the msg is note_on channel=0 note=65 velocity=96 time=1
 i : 2the msg is note_on channel=0 note=62 velocity=0 time=807
 i : 2the msg is note_on channel=0 note=65 velocity=0 time=15
 i : 2the msg is note_on channel=0 note=69 velocity=0 time=3
 i : 2the msg is note_on channel=0 note=69 velocity=65 time=129
 i : 2the msg is note_on channel=0 note=65 velocity=60 time=1
 i : 2the msg is note_on channel=0 note=62 velocity=58 time=10
 i : 2the msg is note_on channel=0 note=62 velocity=0 time=59
 i : 2the msg is note_on channel=0 note=65 velocity=0 time=17
 i : 2the msg is note_on channel=0 note=69 velocity=0 time=8
 i : 2the msg is note_on channel=0 note=65 velocity=83 time=136
 i : 2the msg is note_on channel=0 note=69 velocity=75 time=2
 i : 2the msg is note_on channel=0 note=72 velocity=86 time=0
 i : 2the msg is note_on channel=0 note=72 velocity=0 time=123
 i : 2the msg is note_on channel=0 note=69 velocity=0 time=9
 i : 2the msg is note_on channel=0 note=65 velocity=0 time=11
 i : 2the msg is note_on channel=0 note=65 velocity=89 time=309
 i : 2the msg is note_on channel=0 note=69 velocity=83 time=1
 i : 2the msg is note_on channel=0 note=62 velocity=82 time=1
 i : 2the msg is note_on channel=0 note=62 velocity=0 time=833
 i : 2the msg is note_on channel=0 note=69 velocity=0 time=9
 i : 2the msg is note_on channel=0 note=65 velocity=0 time=4
 i : 2the msg is note_on channel=0 note=65 velocity=48 time=132
 i : 2the msg is note_on channel=0 note=69 velocity=52 time=5
 i : 2the msg is note_on channel=0 note=62 velocity=53 time=4
 i : 2the msg is note_on channel=0 note=69 velocity=0 time=69
 i : 2the msg is note_on channel=0 note=62 velocity=0 time=2
 i : 2the msg is note_on channel=0 note=65 velocity=0 time=0
 i : 2the msg is note_on channel=0 note=65 velocity=56 time=153
 i : 2the msg is note_on channel=0 note=69 velocity=60 time=7
 i : 2the msg is note_on channel=0 note=62 velocity=48 time=4
 i : 2the msg is note_on channel=0 note=62 velocity=0 time=47
 i : 2the msg is note_on channel=0 note=65 velocity=0 time=35
 i : 2the msg is note_on channel=0 note=69 velocity=0 time=6
 i : 2the msg is note_on channel=0 note=65 velocity=80 time=132
 i : 2the msg is note_on channel=0 note=69 velocity=77 time=3
 i : 2the msg is note_on channel=0 note=72 velocity=86 time=2
 i : 2the msg is note_on channel=0 note=72 velocity=0 time=102
 i : 2the msg is note_on channel=0 note=69 velocity=0 time=15
 i : 2the msg is note_on channel=0 note=65 velocity=0 time=9
 i : 2the msg is note_on channel=0 note=62 velocity=93 time=132
 i : 2the msg is note_on channel=0 note=67 velocity=96 time=0
 i : 2the msg is note_on channel=0 note=71 velocity=96 time=3
 i : 2the msg is note_on channel=0 note=62 velocity=0 time=346
 i : 2the msg is note_on channel=0 note=67 velocity=0 time=9
 i : 2the msg is note_on channel=0 note=71 velocity=0 time=26
 i : 2the msg is note_on channel=0 note=62 velocity=85 time=98
 i : 2the msg is note_on channel=0 note=65 velocity=89 time=0
 i : 2the msg is note_on channel=0 note=69 velocity=78 time=2
 i : 2the msg is note_on channel=0 note=69 velocity=0 time=751
 i : 2the msg is note_on channel=0 note=65 velocity=0 time=4
 i : 2the msg is note_on channel=0 note=62 velocity=0 time=10
 i : 2the msg is note_on channel=0 note=69 velocity=80 time=181
 i : 2the msg is note_on channel=0 note=65 velocity=82 time=3
 i : 2the msg is note_on channel=0 note=62 velocity=85 time=6
 i : 2the msg is note_on channel=0 note=62 velocity=0 time=167
 i : 2the msg is note_on channel=0 note=65 velocity=0 time=8
 i : 2the msg is note_on channel=0 note=69 velocity=0 time=24
 i : 2the msg is note_on channel=0 note=72 velocity=89 time=36
 i : 2the msg is note_on channel=0 note=65 velocity=93 time=4
 i : 2the msg is note_on channel=0 note=69 velocity=89 time=3
 i : 2the msg is note_on channel=0 note=72 velocity=0 time=130
 i : 2the msg is note_on channel=0 note=65 velocity=0 time=20
 i : 2the msg is note_on channel=0 note=69 velocity=0 time=1
 i : 2the msg is note_on channel=0 note=65 velocity=85 time=301
 i : 2the msg is note_on channel=0 note=69 velocity=75 time=1
 i : 2the msg is note_on channel=0 note=62 velocity=85 time=8
 i : 2the msg is note_on channel=0 note=69 velocity=0 time=1990
 i : 2the msg is note_on channel=0 note=62 velocity=0 time=9
 i : 2the msg is note_on channel=0 note=65 velocity=0 time=3
 i : 2the msg is note_on channel=0 note=64 velocity=83 time=183
 i : 2the msg is note_on channel=0 note=61 velocity=75 time=2
 i : 2the msg is note_on channel=0 note=69 velocity=83 time=0
 i : 2the msg is note_on channel=0 note=61 velocity=0 time=830
 i : 2the msg is note_on channel=0 note=69 velocity=0 time=11
 i : 2the msg is note_on channel=0 note=64 velocity=0 time=7
 i : 2the msg is note_on channel=0 note=64 velocity=65 time=100
 i : 2the msg is note_on channel=0 note=61 velocity=70 time=4
 i : 2the msg is note_on channel=0 note=69 velocity=54 time=7
 i : 2the msg is note_on channel=0 note=61 velocity=0 time=57
 i : 2the msg is note_on channel=0 note=69 velocity=0 time=20
 i : 2the msg is note_on channel=0 note=64 velocity=0 time=0
 i : 2the msg is note_on channel=0 note=64 velocity=103 time=143
 i : 2the msg is note_on channel=0 note=61 velocity=104 time=1
 i : 2the msg is note_on channel=0 note=69 velocity=98 time=4
 i : 2the msg is note_on channel=0 note=69 velocity=0 time=135
 i : 2the msg is note_on channel=0 note=61 velocity=0 time=8
 i : 2the msg is note_on channel=0 note=64 velocity=0 time=4
 i : 2the msg is note_on channel=0 note=67 velocity=98 time=319
 i : 2the msg is note_on channel=0 note=59 velocity=85 time=6
 i : 2the msg is note_on channel=0 note=62 velocity=113 time=1
 i : 2the msg is note_on channel=0 note=67 velocity=0 time=1889
 i : 2the msg is note_on channel=0 note=59 velocity=0 time=60
 i : 2the msg is note_on channel=0 note=62 velocity=0 time=44
 i : 2the msg is note_on channel=0 note=69 velocity=96 time=194
 i : 2the msg is note_on channel=0 note=62 velocity=98 time=6
 i : 2the msg is note_on channel=0 note=65 velocity=98 time=0
 i : 2the msg is note_on channel=0 note=69 velocity=0 time=910
 i : 2the msg is note_on channel=0 note=65 velocity=0 time=4
 i : 2the msg is note_on channel=0 note=62 velocity=0 time=0
 i : 2the msg is note_on channel=0 note=65 velocity=56 time=64
 i : 2the msg is note_on channel=0 note=69 velocity=62 time=0
 i : 2the msg is note_on channel=0 note=62 velocity=53 time=2
 i : 2the msg is note_on channel=0 note=62 velocity=0 time=68
 i : 2the msg is note_on channel=0 note=65 velocity=0 time=14
 i : 2the msg is note_on channel=0 note=69 velocity=0 time=18
 i : 2the msg is note_on channel=0 note=72 velocity=86 time=83
 i : 2the msg is note_on channel=0 note=65 velocity=83 time=3
 i : 2the msg is note_on channel=0 note=69 velocity=78 time=2
 i : 2the msg is note_on channel=0 note=72 velocity=0 time=138
 i : 2the msg is note_on channel=0 note=69 velocity=0 time=18
 i : 2the msg is note_on channel=0 note=65 velocity=0 time=13
 i : 2the msg is note_on channel=0 note=65 velocity=93 time=321
 i : 2the msg is note_on channel=0 note=69 velocity=93 time=4
 i : 2the msg is note_on channel=0 note=62 velocity=93 time=1
 i : 2the msg is note_on channel=0 note=62 velocity=0 time=1925
 i : 2the msg is note_on channel=0 note=65 velocity=0 time=26
 i : 2the msg is note_on channel=0 note=69 velocity=0 time=4
 i : 2the msg is note_on channel=0 note=69 velocity=89 time=207
 i : 2the msg is note_on channel=0 note=61 velocity=76 time=9
 i : 2the msg is note_on channel=0 note=64 velocity=98 time=0
 i : 2the msg is note_on channel=0 note=61 velocity=0 time=866
 i : 2the msg is note_on channel=0 note=69 velocity=0 time=4
 i : 2the msg is note_on channel=0 note=64 velocity=0 time=1
 i : 2the msg is note_on channel=0 note=69 velocity=48 time=70
 i : 2the msg is note_on channel=0 note=64 velocity=61 time=1
 i : 2the msg is note_on channel=0 note=61 velocity=56 time=4
 i : 2the msg is note_on channel=0 note=61 velocity=0 time=63
 i : 2the msg is note_on channel=0 note=64 velocity=0 time=23
 i : 2the msg is note_on channel=0 note=69 velocity=0 time=0
 i : 2the msg is note_on channel=0 note=61 velocity=78 time=137
 i : 2the msg is note_on channel=0 note=64 velocity=89 time=1
 i : 2the msg is note_on channel=0 note=69 velocity=93 time=2
 i : 2the msg is note_on channel=0 note=69 velocity=0 time=134
 i : 2the msg is note_on channel=0 note=64 velocity=0 time=10
 i : 2the msg is note_on channel=0 note=61 velocity=0 time=9
 i : 2the msg is note_on channel=0 note=67 velocity=96 time=321
 i : 2the msg is note_on channel=0 note=59 velocity=80 time=2
 i : 2the msg is note_on channel=0 note=62 velocity=108 time=1
 i : 2the msg is note_on channel=0 note=62 velocity=0 time=2187
 i : 2the msg is note_on channel=0 note=59 velocity=0 time=24
 i : 2the msg is note_on channel=0 note=66 velocity=79 time=197
 i : 2the msg is note_on channel=0 note=62 velocity=98 time=7
 i : 2the msg is note_on channel=0 note=57 velocity=96 time=2
 i : 2the msg is note_on channel=0 note=67 velocity=0 time=20
 i : 2the msg is note_on channel=0 note=57 velocity=0 time=350
 i : 2the msg is note_on channel=0 note=66 velocity=0 time=6
 i : 2the msg is note_on channel=0 note=62 velocity=0 time=12
 i : 2the msg is note_on channel=0 note=66 velocity=78 time=88
 i : 2the msg is note_on channel=0 note=62 velocity=89 time=2
 i : 2the msg is note_on channel=0 note=57 velocity=65 time=2
 i : 2the msg is note_on channel=0 note=66 velocity=0 time=118
 i : 2the msg is note_on channel=0 note=57 velocity=0 time=8
 i : 2the msg is note_on channel=0 note=62 velocity=0 time=1
 i : 2the msg is note_on channel=0 note=62 velocity=78 time=111
 i : 2the msg is note_on channel=0 note=66 velocity=68 time=2
 i : 2the msg is note_on channel=0 note=57 velocity=54 time=6
 i : 2the msg is note_on channel=0 note=57 velocity=0 time=56
 i : 2the msg is note_on channel=0 note=66 velocity=0 time=4
 i : 2the msg is note_on channel=0 note=62 velocity=0 time=4
 i : 2the msg is note_on channel=0 note=62 velocity=93 time=152
 i : 2the msg is note_on channel=0 note=66 velocity=89 time=3
 i : 2the msg is note_on channel=0 note=57 velocity=70 time=1
 i : 2the msg is note_on channel=0 note=57 velocity=0 time=72
 i : 2the msg is note_on channel=0 note=66 velocity=0 time=7
 i : 2the msg is note_on channel=0 note=62 velocity=0 time=2
 i : 2the msg is note_on channel=0 note=66 velocity=79 time=160
 i : 2the msg is note_on channel=0 note=62 velocity=89 time=2
 i : 2the msg is note_on channel=0 note=57 velocity=71 time=2
 i : 2the msg is note_on channel=0 note=62 velocity=0 time=79
 i : 2the msg is note_on channel=0 note=66 velocity=0 time=2
 i : 2the msg is note_on channel=0 note=57 velocity=0 time=1
 i : 2the msg is note_on channel=0 note=59 velocity=91 time=622
 i : 2the msg is note_on channel=0 note=62 velocity=111 time=1
 i : 2the msg is note_on channel=0 note=67 velocity=98 time=0
 i : 2the msg is note_on channel=0 note=59 velocity=0 time=110
 i : 2the msg is note_on channel=0 note=62 velocity=0 time=4
 i : 2the msg is note_on channel=0 note=67 velocity=0 time=3
 i : 2the msg is note_on channel=0 note=59 velocity=86 time=133
 i : 2the msg is note_on channel=0 note=67 velocity=96 time=1
 i : 2the msg is note_on channel=0 note=62 velocity=103 time=1
 i : 2the msg is note_on channel=0 note=67 velocity=0 time=242
 i : 2the msg is note_on channel=0 note=59 velocity=0 time=5
 i : 2the msg is note_on channel=0 note=62 velocity=0 time=4
 i : 2the msg is note_on channel=0 note=59 velocity=86 time=211
 i : 2the msg is note_on channel=0 note=62 velocity=100 time=0
 i : 2the msg is note_on channel=0 note=67 velocity=89 time=2
 i : 2the msg is note_on channel=0 note=62 velocity=0 time=950
 i : 2the msg is note_on channel=0 note=59 velocity=0 time=27
 i : 2the msg is note_on channel=0 note=66 velocity=84 time=230
 i : 2the msg is note_on channel=0 note=62 velocity=96 time=7
 i : 2the msg is note_on channel=0 note=57 velocity=91 time=2
 i : 2the msg is note_on channel=0 note=67 velocity=0 time=28
 i : 2the msg is note_on channel=0 note=57 velocity=0 time=386
 i : 2the msg is note_on channel=0 note=66 velocity=0 time=11
 i : 2the msg is note_on channel=0 note=62 velocity=0 time=5
 i : 2the msg is note_on channel=0 note=62 velocity=93 time=47
 i : 2the msg is note_on channel=0 note=66 velocity=100 time=1
 i : 2the msg is note_on channel=0 note=57 velocity=72 time=3
 i : 2the msg is note_on channel=0 note=57 velocity=0 time=144
 i : 2the msg is note_on channel=0 note=66 velocity=0 time=0
 i : 2the msg is note_on channel=0 note=62 velocity=0 time=6
 i : 2the msg is note_on channel=0 note=62 velocity=86 time=91
 i : 2the msg is note_on channel=0 note=66 velocity=68 time=0
 i : 2the msg is note_on channel=0 note=57 velocity=60 time=7
 i : 2the msg is note_on channel=0 note=57 velocity=0 time=67
 i : 2the msg is note_on channel=0 note=62 velocity=0 time=14
 i : 2the msg is note_on channel=0 note=66 velocity=0 time=1
 i : 2the msg is note_on channel=0 note=57 velocity=75 time=131
 i : 2the msg is note_on channel=0 note=62 velocity=96 time=0
 i : 2the msg is note_on channel=0 note=66 velocity=92 time=0
 i : 2the msg is note_on channel=0 note=57 velocity=0 time=87
 i : 2the msg is note_on channel=0 note=62 velocity=0 time=11
 i : 2the msg is note_on channel=0 note=66 velocity=0 time=1
 i : 2the msg is note_on channel=0 note=66 velocity=94 time=164
 i : 2the msg is note_on channel=0 note=62 velocity=96 time=3
 i : 2the msg is note_on channel=0 note=57 velocity=78 time=2
 i : 2the msg is note_on channel=0 note=62 velocity=0 time=539
 i : 2the msg is note_on channel=0 note=57 velocity=0 time=4
 i : 2the msg is note_on channel=0 note=66 velocity=0 time=49
 i : 2the msg is note_on channel=0 note=62 velocity=72 time=100
 i : 2the msg is note_on channel=0 note=67 velocity=86 time=0
 i : 2the msg is note_on channel=0 note=59 velocity=67 time=4
 i : 2the msg is note_on channel=0 note=62 velocity=0 time=98
 i : 2the msg is note_on channel=0 note=59 velocity=0 time=3
 i : 2the msg is note_on channel=0 note=67 velocity=0 time=11
 i : 2the msg is note_on channel=0 note=62 velocity=93 time=146
 i : 2the msg is note_on channel=0 note=67 velocity=91 time=0
 i : 2the msg is note_on channel=0 note=59 velocity=58 time=2
 i : 2the msg is note_on channel=0 note=59 velocity=0 time=325
 i : 2the msg is note_on channel=0 note=67 velocity=0 time=10
 i : 2the msg is note_on channel=0 note=62 velocity=0 time=1
 i : 2the msg is note_on channel=0 note=59 velocity=45 time=125
 i : 2the msg is note_on channel=0 note=59 velocity=0 time=63
 i : 2the msg is note_on channel=0 note=59 velocity=85 time=182
 i : 2the msg is note_on channel=0 note=62 velocity=106 time=2
 i : 2the msg is note_on channel=0 note=67 velocity=100 time=0
 i : 2the msg is note_on channel=0 note=59 velocity=0 time=164
 i : 2the msg is note_on channel=0 note=59 velocity=44 time=89
 i : 2the msg is note_on channel=0 note=62 velocity=0 time=72
 i : 2the msg is note_on channel=0 note=59 velocity=0 time=25
 i : 2the msg is note_on channel=0 note=67 velocity=0 time=59
 i : 2the msg is note_on channel=0 note=62 velocity=89 time=73
 i : 2the msg is note_on channel=0 note=59 velocity=72 time=2
 i : 2the msg is note_on channel=0 note=67 velocity=89 time=2
 i : 2the msg is note_on channel=0 note=59 velocity=0 time=82
 i : 2the msg is note_on channel=0 note=62 velocity=0 time=24
 i : 2the msg is note_on channel=0 note=67 velocity=0 time=16
 i : 2the msg is note_on channel=0 note=62 velocity=91 time=131
 i : 2the msg is note_on channel=0 note=65 velocity=98 time=0
 i : 2the msg is note_on channel=0 note=69 velocity=98 time=4
 i : 2the msg is note_on channel=0 note=62 velocity=0 time=800
 i : 2the msg is note_on channel=0 note=65 velocity=0 time=26
 i : 2the msg is note_on channel=0 note=69 velocity=0 time=1
 i : 2the msg is note_on channel=0 note=69 velocity=60 time=145
 i : 2the msg is note_on channel=0 note=65 velocity=49 time=6
 i : 2the msg is note_on channel=0 note=62 velocity=62 time=3
 i : 2the msg is note_on channel=0 note=62 velocity=0 time=74
 i : 2the msg is note_on channel=0 note=65 velocity=0 time=8
 i : 2the msg is note_on channel=0 note=69 velocity=0 time=30
 i : 2the msg is note_on channel=0 note=72 velocity=89 time=105
 i : 2the msg is note_on channel=0 note=65 velocity=80 time=3
 i : 2the msg is note_on channel=0 note=69 velocity=91 time=7
 i : 2the msg is note_on channel=0 note=72 velocity=0 time=122
 i : 2the msg is note_on channel=0 note=69 velocity=0 time=24
 i : 2the msg is note_on channel=0 note=65 velocity=0 time=7
 i : 2the msg is note_on channel=0 note=65 velocity=93 time=306
 i : 2the msg is note_on channel=0 note=69 velocity=89 time=3
 i : 2the msg is note_on channel=0 note=62 velocity=100 time=3
 i : 2the msg is note_on channel=0 note=69 velocity=0 time=1326
 i : 2the msg is note_on channel=0 note=65 velocity=0 time=9
 i : 2the msg is note_on channel=0 note=62 velocity=0 time=1
 i : 2the msg is note_on channel=0 note=62 velocity=71 time=84
 i : 2the msg is note_on channel=0 note=65 velocity=77 time=1
 i : 2the msg is note_on channel=0 note=69 velocity=66 time=7
 i : 2the msg is note_on channel=0 note=62 velocity=0 time=85
 i : 2the msg is note_on channel=0 note=65 velocity=0 time=7
 i : 2the msg is note_on channel=0 note=69 velocity=0 time=4
 i : 2the msg is note_on channel=0 note=62 velocity=103 time=164
 i : 2the msg is note_on channel=0 note=65 velocity=108 time=1
 i : 2the msg is note_on channel=0 note=69 velocity=91 time=1
 i : 2the msg is note_on channel=0 note=69 velocity=0 time=333
 i : 2the msg is note_on channel=0 note=62 velocity=0 time=10
 i : 2the msg is note_on channel=0 note=65 velocity=0 time=9
 i : 2the msg is note_on channel=0 note=59 velocity=100 time=116
 i : 2the msg is note_on channel=0 note=62 velocity=113 time=2
 i : 2the msg is note_on channel=0 note=67 velocity=89 time=1
 i : 2the msg is note_on channel=0 note=59 velocity=0 time=797
 i : 2the msg is note_on channel=0 note=67 velocity=0 time=18
 i : 2the msg is note_on channel=0 note=62 velocity=0 time=2
 i : 2the msg is note_on channel=0 note=67 velocity=66 time=154
 i : 2the msg is note_on channel=0 note=62 velocity=86 time=1
 i : 2the msg is note_on channel=0 note=59 velocity=67 time=2
 i : 2the msg is note_on channel=0 note=62 velocity=0 time=59
 i : 2the msg is note_on channel=0 note=59 velocity=0 time=1
 i : 2the msg is note_on channel=0 note=67 velocity=0 time=1
 i : 2the msg is note_on channel=0 note=59 velocity=71 time=172
 i : 2the msg is note_on channel=0 note=62 velocity=96 time=0
 i : 2the msg is note_on channel=0 note=67 velocity=85 time=2
 i : 2the msg is note_on channel=0 note=62 velocity=0 time=165
 i : 2the msg is note_on channel=0 note=67 velocity=0 time=1
 i : 2the msg is note_on channel=0 note=59 velocity=0 time=0
 i : 2the msg is note_on channel=0 note=62 velocity=100 time=307
 i : 2the msg is note_on channel=0 note=59 velocity=80 time=1
 i : 2the msg is note_on channel=0 note=67 velocity=83 time=1
 i : 2the msg is note_on channel=0 note=59 velocity=0 time=1083
 i : 2the msg is note_on channel=0 note=62 velocity=0 time=36
 i : 2the msg is note_on channel=0 note=67 velocity=0 time=25
 i : 2the msg is note_on channel=0 note=67 velocity=25 time=33
 i : 2the msg is note_on channel=0 note=62 velocity=48 time=12
 i : 2the msg is note_on channel=0 note=59 velocity=22 time=11
 i : 2the msg is note_on channel=0 note=59 velocity=0 time=59
 i : 2the msg is note_on channel=0 note=67 velocity=0 time=7
 i : 2the msg is note_on channel=0 note=62 velocity=0 time=1
 i : 2the msg is note_on channel=0 note=62 velocity=93 time=168
 i : 2the msg is note_on channel=0 note=59 velocity=68 time=1
 i : 2the msg is note_on channel=0 note=67 velocity=75 time=1
 i : 2the msg is note_on channel=0 note=59 velocity=0 time=70
 i : 2the msg is note_on channel=0 note=62 velocity=0 time=9
 i : 2the msg is note_on channel=0 note=67 velocity=0 time=6
 i : 2the msg is note_on channel=0 note=62 velocity=83 time=140
 i : 2the msg is note_on channel=0 note=59 velocity=64 time=1
 i : 2the msg is note_on channel=0 note=67 velocity=72 time=0
 i : 2the msg is note_on channel=0 note=59 velocity=0 time=260
 i : 2the msg is note_on channel=0 note=62 velocity=0 time=28
 i : 2the msg is note_on channel=0 note=67 velocity=0 time=22
 i : 2the msg is note_on channel=0 note=62 velocity=103 time=177
 i : 2the msg is note_on channel=0 note=69 velocity=93 time=1
 i : 2the msg is note_on channel=0 note=65 velocity=103 time=2
 i : 2the msg is note_on channel=0 note=62 velocity=0 time=822
 i : 2the msg is note_on channel=0 note=65 velocity=0 time=16
 i : 2the msg is note_on channel=0 note=69 velocity=0 time=13
 i : 2the msg is note_on channel=0 note=65 velocity=62 time=115
 i : 2the msg is note_on channel=0 note=69 velocity=68 time=0
 i : 2the msg is note_on channel=0 note=62 velocity=60 time=4
 i : 2the msg is note_on channel=0 note=62 velocity=0 time=85
 i : 2the msg is note_on channel=0 note=65 velocity=0 time=13
 i : 2the msg is note_on channel=0 note=69 velocity=0 time=4
 i : 2the msg is note_on channel=0 note=65 velocity=73 time=131
 i : 2the msg is note_on channel=0 note=69 velocity=85 time=3
 i : 2the msg is note_on channel=0 note=72 velocity=86 time=0
 i : 2the msg is note_on channel=0 note=72 velocity=0 time=128
 i : 2the msg is note_on channel=0 note=65 velocity=0 time=12
 i : 2the msg is note_on channel=0 note=69 velocity=0 time=3
 i : 2the msg is note_on channel=0 note=65 velocity=89 time=317
 i : 2the msg is note_on channel=0 note=62 velocity=91 time=2
 i : 2the msg is note_on channel=0 note=69 velocity=83 time=1
 i : 2the msg is note_on channel=0 note=69 velocity=0 time=1311
 i : 2the msg is note_on channel=0 note=65 velocity=0 time=10
 i : 2the msg is note_on channel=0 note=62 velocity=0 time=5
 i : 2the msg is note_on channel=0 note=65 velocity=77 time=128
 i : 2the msg is note_on channel=0 note=62 velocity=69 time=1
 i : 2the msg is note_on channel=0 note=69 velocity=69 time=2
 i : 2the msg is note_on channel=0 note=62 velocity=0 time=83
 i : 2the msg is note_on channel=0 note=69 velocity=0 time=3
 i : 2the msg is note_on channel=0 note=65 velocity=0 time=2
 i : 2the msg is note_on channel=0 note=65 velocity=96 time=152
 i : 2the msg is note_on channel=0 note=69 velocity=85 time=1
 i : 2the msg is note_on channel=0 note=62 velocity=89 time=1
 i : 2the msg is note_on channel=0 note=65 velocity=0 time=267
 i : 2the msg is note_on channel=0 note=69 velocity=0 time=9
 i : 2the msg is note_on channel=0 note=62 velocity=0 time=18
 i : 2the msg is note_on channel=0 note=59 velocity=86 time=190
 i : 2the msg is note_on channel=0 note=62 velocity=106 time=2
 i : 2the msg is note_on channel=0 note=67 velocity=93 time=3
 i : 2the msg is note_on channel=0 note=67 velocity=0 time=810
 i : 2the msg is note_on channel=0 note=62 velocity=0 time=1
 i : 2the msg is note_on channel=0 note=59 velocity=0 time=3
 i : 2the msg is note_on channel=0 note=67 velocity=60 time=111
 i : 2the msg is note_on channel=0 note=62 velocity=64 time=6
 i : 2the msg is note_on channel=0 note=59 velocity=28 time=19
 i : 2the msg is note_on channel=0 note=59 velocity=0 time=55
 i : 2the msg is note_on channel=0 note=62 velocity=0 time=0
 i : 2the msg is note_on channel=0 note=67 velocity=0 time=0
 i : 2the msg is note_on channel=0 note=59 velocity=80 time=174
 i : 2the msg is note_on channel=0 note=62 velocity=100 time=0
 i : 2the msg is note_on channel=0 note=67 velocity=86 time=4
 i : 2the msg is note_on channel=0 note=62 velocity=0 time=152
 i : 2the msg is note_on channel=0 note=59 velocity=0 time=1
 i : 2the msg is note_on channel=0 note=67 velocity=0 time=3
 i : 2the msg is note_on channel=0 note=62 velocity=89 time=320
 i : 2the msg is note_on channel=0 note=59 velocity=64 time=4
 i : 2the msg is note_on channel=0 note=67 velocity=78 time=3
 i : 2the msg is note_on channel=0 note=59 velocity=0 time=839
 i : 2the msg is note_on channel=0 note=67 velocity=0 time=2
 i : 2the msg is note_on channel=0 note=62 velocity=0 time=14
 i : 2the msg is note_on channel=0 note=62 velocity=78 time=132
 i : 2the msg is note_on channel=0 note=67 velocity=70 time=1
 i : 2the msg is note_on channel=0 note=59 velocity=53 time=6
 i : 2the msg is note_on channel=0 note=62 velocity=0 time=77
 i : 2the msg is note_on channel=0 note=67 velocity=0 time=2
 i : 2the msg is note_on channel=0 note=59 velocity=0 time=3
 i : 2the msg is note_on channel=0 note=62 velocity=57 time=153
 i : 2the msg is note_on channel=0 note=67 velocity=48 time=4
 i : 2the msg is note_on channel=0 note=59 velocity=32 time=2
 i : 2the msg is note_on channel=0 note=62 velocity=0 time=53
 i : 2the msg is note_on channel=0 note=59 velocity=0 time=5
 i : 2the msg is note_on channel=0 note=67 velocity=0 time=0
 i : 2the msg is note_on channel=0 note=62 velocity=96 time=180
 i : 2the msg is note_on channel=0 note=67 velocity=77 time=0
 i : 2the msg is note_on channel=0 note=59 velocity=73 time=2
 i : 2the msg is note_on channel=0 note=62 velocity=0 time=96
 i : 2the msg is note_on channel=0 note=59 velocity=0 time=8
 i : 2the msg is note_on channel=0 note=67 velocity=0 time=0
 i : 2the msg is note_on channel=0 note=62 velocity=96 time=116
 i : 2the msg is note_on channel=0 note=67 velocity=80 time=0
 i : 2the msg is note_on channel=0 note=59 velocity=77 time=1
 i : 2the msg is note_on channel=0 note=59 velocity=0 time=290
 i : 2the msg is note_on channel=0 note=62 velocity=0 time=28
 i : 2the msg is note_on channel=0 note=67 velocity=0 time=13
 i : 2the msg is note_on channel=0 note=69 velocity=98 time=150
 i : 2the msg is note_on channel=0 note=65 velocity=96 time=1
 i : 2the msg is note_on channel=0 note=62 velocity=93 time=1
 i : 2the msg is note_on channel=0 note=62 velocity=0 time=858
 i : 2the msg is note_on channel=0 note=69 velocity=0 time=3
 i : 2the msg is note_on channel=0 note=65 velocity=0 time=8
 i : 2the msg is note_on channel=0 note=65 velocity=65 time=93
 i : 2the msg is note_on channel=0 note=62 velocity=70 time=3
 i : 2the msg is note_on channel=0 note=69 velocity=62 time=1
 i : 2the msg is note_on channel=0 note=65 velocity=0 time=103
 i : 2the msg is note_on channel=0 note=62 velocity=0 time=1
 i : 2the msg is note_on channel=0 note=69 velocity=0 time=5
 i : 2the msg is note_on channel=0 note=65 velocity=80 time=116
 i : 2the msg is note_on channel=0 note=69 velocity=85 time=1
 i : 2the msg is note_on channel=0 note=72 velocity=96 time=1
 i : 2the msg is note_on channel=0 note=72 velocity=0 time=129
 i : 2the msg is note_on channel=0 note=69 velocity=0 time=14
 i : 2the msg is note_on channel=0 note=65 velocity=0 time=7
 i : 2the msg is note_on channel=0 note=65 velocity=91 time=318
 i : 2the msg is note_on channel=0 note=62 velocity=86 time=1
 i : 2the msg is note_on channel=0 note=69 velocity=89 time=1
 i : 2the msg is note_on channel=0 note=62 velocity=0 time=833
 i : 2the msg is note_on channel=0 note=69 velocity=0 time=11
 i : 2the msg is note_on channel=0 note=65 velocity=0 time=8
 i : 2the msg is note_on channel=0 note=65 velocity=46 time=116
 i : 2the msg is note_on channel=0 note=69 velocity=59 time=3
 i : 2the msg is note_on channel=0 note=62 velocity=46 time=8
 i : 2the msg is note_on channel=0 note=62 velocity=0 time=63
 i : 2the msg is note_on channel=0 note=69 velocity=0 time=4
 i : 2the msg is note_on channel=0 note=65 velocity=0 time=0
 i : 2the msg is note_on channel=0 note=62 velocity=48 time=148
 i : 2the msg is note_on channel=0 note=65 velocity=43 time=3
 i : 2the msg is note_on channel=0 note=69 velocity=60 time=0
 i : 2the msg is note_on channel=0 note=62 velocity=0 time=70
 i : 2the msg is note_on channel=0 note=65 velocity=0 time=14
 i : 2the msg is note_on channel=0 note=69 velocity=0 time=5
 i : 2the msg is note_on channel=0 note=69 velocity=82 time=135
 i : 2the msg is note_on channel=0 note=65 velocity=80 time=1
 i : 2the msg is note_on channel=0 note=72 velocity=91 time=7
 i : 2the msg is note_on channel=0 note=65 velocity=0 time=102
 i : 2the msg is note_on channel=0 note=72 velocity=0 time=1
 i : 2the msg is note_on channel=0 note=69 velocity=0 time=8
 i : 2the msg is note_on channel=0 note=62 velocity=89 time=147
 i : 2the msg is note_on channel=0 note=67 velocity=98 time=2
 i : 2the msg is note_on channel=0 note=71 velocity=100 time=0
 i : 2the msg is note_on channel=0 note=67 velocity=0 time=374
 i : 2the msg is note_on channel=0 note=62 velocity=0 time=4
 i : 2the msg is note_on channel=0 note=71 velocity=0 time=22
 i : 2the msg is note_on channel=0 note=62 velocity=80 time=96
 i : 2the msg is note_on channel=0 note=69 velocity=83 time=4
 i : 2the msg is note_on channel=0 note=65 velocity=93 time=5
 i : 2the msg is note_on channel=0 note=62 velocity=0 time=789
 i : 2the msg is note_on channel=0 note=65 velocity=0 time=6
 i : 2the msg is note_on channel=0 note=69 velocity=0 time=5
 i : 2the msg is note_on channel=0 note=69 velocity=72 time=112
 i : 2the msg is note_on channel=0 note=65 velocity=65 time=4
 i : 2the msg is note_on channel=0 note=62 velocity=61 time=5
 i : 2the msg is note_on channel=0 note=62 velocity=0 time=72
 i : 2the msg is note_on channel=0 note=65 velocity=0 time=6
 i : 2the msg is note_on channel=0 note=69 velocity=0 time=16
 i : 2the msg is note_on channel=0 note=69 velocity=82 time=141
 i : 2the msg is note_on channel=0 note=72 velocity=96 time=0
 i : 2the msg is note_on channel=0 note=65 velocity=93 time=1
 i : 2the msg is note_on channel=0 note=72 velocity=0 time=126
 i : 2the msg is note_on channel=0 note=69 velocity=0 time=4
 i : 2the msg is note_on channel=0 note=65 velocity=0 time=6
 i : 2the msg is note_on channel=0 note=65 velocity=98 time=364
 i : 2the msg is note_on channel=0 note=69 velocity=91 time=1
 i : 2the msg is note_on channel=0 note=62 velocity=89 time=1
 i : 2the msg is note_on channel=0 note=62 velocity=0 time=847
 i : 2the msg is note_on channel=0 note=69 velocity=0 time=15
 i : 2the msg is note_on channel=0 note=65 velocity=0 time=9
 i : 2the msg is note_on channel=0 note=65 velocity=51 time=91
 i : 2the msg is note_on channel=0 note=69 velocity=54 time=1
 i : 2the msg is note_on channel=0 note=62 velocity=53 time=12
 i : 2the msg is note_on channel=0 note=62 velocity=0 time=55
 i : 2the msg is note_on channel=0 note=65 velocity=0 time=17
 i : 2the msg is note_on channel=0 note=69 velocity=0 time=1
 i : 2the msg is note_on channel=0 note=65 velocity=51 time=132
 i : 2the msg is note_on channel=0 note=69 velocity=60 time=1
 i : 2the msg is note_on channel=0 note=62 velocity=48 time=12
 i : 2the msg is note_on channel=0 note=62 velocity=0 time=55
 i : 2the msg is note_on channel=0 note=65 velocity=0 time=24
 i : 2the msg is note_on channel=0 note=69 velocity=0 time=5
 i : 2the msg is note_on channel=0 note=65 velocity=82 time=127
 i : 2the msg is note_on channel=0 note=69 velocity=78 time=0
 i : 2the msg is note_on channel=0 note=72 velocity=80 time=4
 i : 2the msg is note_on channel=0 note=72 velocity=0 time=112
 i : 2the msg is note_on channel=0 note=65 velocity=0 time=1
 i : 2the msg is note_on channel=0 note=69 velocity=0 time=1
 i : 2the msg is note_on channel=0 note=67 velocity=89 time=153
 i : 2the msg is note_on channel=0 note=62 velocity=91 time=1
 i : 2the msg is note_on channel=0 note=71 velocity=86 time=0
 i : 2the msg is note_on channel=0 note=62 velocity=0 time=320
 i : 2the msg is note_on channel=0 note=67 velocity=0 time=16
 i : 2the msg is note_on channel=0 note=71 velocity=0 time=16
 i : 2the msg is note_on channel=0 note=62 velocity=75 time=122
 i : 2the msg is note_on channel=0 note=65 velocity=91 time=2
 i : 2the msg is note_on channel=0 note=69 velocity=86 time=2
 i : 2the msg is note_on channel=0 note=62 velocity=0 time=829
 i : 2the msg is note_on channel=0 note=69 velocity=0 time=16
 i : 2the msg is note_on channel=0 note=65 velocity=0 time=1
 i : 2the msg is note_on channel=0 note=65 velocity=62 time=97
 i : 2the msg is note_on channel=0 note=69 velocity=65 time=2
 i : 2the msg is note_on channel=0 note=62 velocity=61 time=5
 i : 2the msg is note_on channel=0 note=62 velocity=0 time=82
 i : 2the msg is note_on channel=0 note=65 velocity=0 time=8
 i : 2the msg is note_on channel=0 note=69 velocity=0 time=5
 i : 2the msg is note_on channel=0 note=65 velocity=73 time=122
 i : 2the msg is note_on channel=0 note=69 velocity=77 time=0
 i : 2the msg is note_on channel=0 note=72 velocity=85 time=4
 i : 2the msg is note_on channel=0 note=72 velocity=0 time=114
 i : 2the msg is note_on channel=0 note=69 velocity=0 time=29
 i : 2the msg is note_on channel=0 note=65 velocity=0 time=8
 i : 2the msg is note_on channel=0 note=65 velocity=93 time=341
 i : 2the msg is note_on channel=0 note=69 velocity=89 time=1
 i : 2the msg is note_on channel=0 note=62 velocity=86 time=2
 i : 2the msg is note_on channel=0 note=62 velocity=0 time=824
 i : 2the msg is note_on channel=0 note=69 velocity=0 time=10
 i : 2the msg is note_on channel=0 note=65 velocity=0 time=2
 i : 2the msg is note_on channel=0 note=69 velocity=66 time=109
 i : 2the msg is note_on channel=0 note=65 velocity=56 time=1
 i : 2the msg is note_on channel=0 note=62 velocity=60 time=13
 i : 2the msg is note_on channel=0 note=62 velocity=0 time=69
 i : 2the msg is note_on channel=0 note=65 velocity=0 time=8
 i : 2the msg is note_on channel=0 note=69 velocity=0 time=2
 i : 2the msg is note_on channel=0 note=65 velocity=56 time=154
 i : 2the msg is note_on channel=0 note=69 velocity=64 time=0
 i : 2the msg is note_on channel=0 note=62 velocity=52 time=9
 i : 2the msg is note_on channel=0 note=62 velocity=0 time=51
 i : 2the msg is note_on channel=0 note=69 velocity=0 time=32
 i : 2the msg is note_on channel=0 note=65 velocity=0 time=0
 i : 2the msg is note_on channel=0 note=65 velocity=85 time=144
 i : 2the msg is note_on channel=0 note=69 velocity=75 time=3
 i : 2the msg is note_on channel=0 note=72 velocity=85 time=0
 i : 2the msg is note_on channel=0 note=72 velocity=0 time=101
 i : 2the msg is note_on channel=0 note=69 velocity=0 time=7
 i : 2the msg is note_on channel=0 note=65 velocity=0 time=9
 i : 2the msg is note_on channel=0 note=62 velocity=89 time=145
 i : 2the msg is note_on channel=0 note=67 velocity=91 time=0
 i : 2the msg is note_on channel=0 note=71 velocity=89 time=3
 i : 2the msg is note_on channel=0 note=62 velocity=0 time=316
 i : 2the msg is note_on channel=0 note=67 velocity=0 time=29
 i : 2the msg is note_on channel=0 note=71 velocity=0 time=26
 i : 2the msg is note_on channel=0 note=62 velocity=91 time=112
 i : 2the msg is note_on channel=0 note=69 velocity=89 time=1
 i : 2the msg is note_on channel=0 note=65 velocity=96 time=1
 i : 2the msg is note_on channel=0 note=62 velocity=0 time=807
 i : 2the msg is note_on channel=0 note=65 velocity=0 time=15
 i : 2the msg is note_on channel=0 note=69 velocity=0 time=3
 i : 2the msg is note_on channel=0 note=69 velocity=65 time=129
 i : 2the msg is note_on channel=0 note=65 velocity=60 time=1
 i : 2the msg is note_on channel=0 note=62 velocity=58 time=10
 i : 2the msg is note_on channel=0 note=62 velocity=0 time=59
 i : 2the msg is note_on channel=0 note=65 velocity=0 time=17
 i : 2the msg is note_on channel=0 note=69 velocity=0 time=8
 i : 2the msg is note_on channel=0 note=65 velocity=83 time=136
 i : 2the msg is note_on channel=0 note=69 velocity=75 time=2
 i : 2the msg is note_on channel=0 note=72 velocity=86 time=0
 i : 2the msg is note_on channel=0 note=72 velocity=0 time=123
 i : 2the msg is note_on channel=0 note=69 velocity=0 time=9
 i : 2the msg is note_on channel=0 note=65 velocity=0 time=11
 i : 2the msg is note_on channel=0 note=65 velocity=89 time=309
 i : 2the msg is note_on channel=0 note=69 velocity=83 time=1
 i : 2the msg is note_on channel=0 note=62 velocity=82 time=1
 i : 2the msg is note_on channel=0 note=62 velocity=0 time=833
 i : 2the msg is note_on channel=0 note=69 velocity=0 time=9
 i : 2the msg is note_on channel=0 note=65 velocity=0 time=4
 i : 2the msg is note_on channel=0 note=65 velocity=48 time=132
 i : 2the msg is note_on channel=0 note=69 velocity=52 time=5
 i : 2the msg is note_on channel=0 note=62 velocity=53 time=4
 i : 2the msg is note_on channel=0 note=69 velocity=0 time=69
 i : 2the msg is note_on channel=0 note=62 velocity=0 time=2
 i : 2the msg is note_on channel=0 note=65 velocity=0 time=0
 i : 2the msg is note_on channel=0 note=65 velocity=56 time=153
 i : 2the msg is note_on channel=0 note=69 velocity=60 time=7
 i : 2the msg is note_on channel=0 note=62 velocity=48 time=4
 i : 2the msg is note_on channel=0 note=62 velocity=0 time=47
 i : 2the msg is note_on channel=0 note=65 velocity=0 time=35
 i : 2the msg is note_on channel=0 note=69 velocity=0 time=6
 i : 2the msg is note_on channel=0 note=65 velocity=80 time=132
 i : 2the msg is note_on channel=0 note=69 velocity=77 time=3
 i : 2the msg is note_on channel=0 note=72 velocity=86 time=2
 i : 2the msg is note_on channel=0 note=72 velocity=0 time=102
 i : 2the msg is note_on channel=0 note=69 velocity=0 time=15
 i : 2the msg is note_on channel=0 note=65 velocity=0 time=9
 i : 2the msg is note_on channel=0 note=62 velocity=93 time=132
 i : 2the msg is note_on channel=0 note=67 velocity=96 time=0
 i : 2the msg is note_on channel=0 note=71 velocity=96 time=3
 i : 2the msg is note_on channel=0 note=62 velocity=0 time=346
 i : 2the msg is note_on channel=0 note=67 velocity=0 time=9
 i : 2the msg is note_on channel=0 note=71 velocity=0 time=26
 i : 2the msg is note_on channel=0 note=62 velocity=85 time=98
 i : 2the msg is note_on channel=0 note=65 velocity=89 time=0
 i : 2the msg is note_on channel=0 note=69 velocity=78 time=2
 i : 2the msg is note_on channel=0 note=69 velocity=0 time=751
 i : 2the msg is note_on channel=0 note=65 velocity=0 time=4
 i : 2the msg is note_on channel=0 note=62 velocity=0 time=10
 i : 2the msg is note_on channel=0 note=65 velocity=65 time=210
 i : 2the msg is note_on channel=0 note=62 velocity=70 time=3
 i : 2the msg is note_on channel=0 note=69 velocity=62 time=1
 i : 2the msg is note_on channel=0 note=65 velocity=0 time=103
 i : 2the msg is note_on channel=0 note=62 velocity=0 time=1
 i : 2the msg is note_on channel=0 note=69 velocity=0 time=5
 i : 2the msg is note_on channel=0 note=65 velocity=80 time=116
 i : 2the msg is note_on channel=0 note=69 velocity=85 time=1
 i : 2the msg is note_on channel=0 note=72 velocity=96 time=1
 i : 2the msg is note_on channel=0 note=72 velocity=0 time=129
 i : 2the msg is note_on channel=0 note=69 velocity=0 time=14
 i : 2the msg is note_on channel=0 note=65 velocity=0 time=7
 i : 2the msg is note_on channel=0 note=65 velocity=91 time=318
 i : 2the msg is note_on channel=0 note=62 velocity=86 time=1
 i : 2the msg is note_on channel=0 note=69 velocity=89 time=1
 i : 2the msg is note_on channel=0 note=62 velocity=0 time=833
 i : 2the msg is note_on channel=0 note=69 velocity=0 time=11
 i : 2the msg is note_on channel=0 note=65 velocity=0 time=8
 i : 2the msg is note_on channel=0 note=65 velocity=46 time=116
 i : 2the msg is note_on channel=0 note=69 velocity=59 time=3
 i : 2the msg is note_on channel=0 note=62 velocity=46 time=8
 i : 2the msg is note_on channel=0 note=62 velocity=0 time=63
 i : 2the msg is note_on channel=0 note=69 velocity=0 time=4
 i : 2the msg is note_on channel=0 note=65 velocity=0 time=0
 i : 2the msg is note_on channel=0 note=62 velocity=48 time=148
 i : 2the msg is note_on channel=0 note=65 velocity=43 time=3
 i : 2the msg is note_on channel=0 note=69 velocity=60 time=0
 i : 2the msg is note_on channel=0 note=62 velocity=0 time=70
 i : 2the msg is note_on channel=0 note=65 velocity=0 time=14
 i : 2the msg is note_on channel=0 note=69 velocity=0 time=5
 i : 2the msg is note_on channel=0 note=69 velocity=82 time=135
 i : 2the msg is note_on channel=0 note=65 velocity=80 time=1
 i : 2the msg is note_on channel=0 note=72 velocity=91 time=7
 i : 2the msg is note_on channel=0 note=65 velocity=0 time=102
 i : 2the msg is note_on channel=0 note=72 velocity=0 time=1
 i : 2the msg is note_on channel=0 note=69 velocity=0 time=8
 i : 2the msg is note_on channel=0 note=62 velocity=89 time=147
 i : 2the msg is note_on channel=0 note=67 velocity=98 time=2
 i : 2the msg is note_on channel=0 note=71 velocity=100 time=0
 i : 2the msg is note_on channel=0 note=67 velocity=0 time=374
 i : 2the msg is note_on channel=0 note=62 velocity=0 time=4
 i : 2the msg is note_on channel=0 note=71 velocity=0 time=22
 i : 2the msg is note_on channel=0 note=62 velocity=80 time=96
 i : 2the msg is note_on channel=0 note=69 velocity=83 time=4
 i : 2the msg is note_on channel=0 note=65 velocity=93 time=5
 i : 2the msg is note_on channel=0 note=62 velocity=0 time=789
 i : 2the msg is note_on channel=0 note=65 velocity=0 time=6
 i : 2the msg is note_on channel=0 note=69 velocity=0 time=5
 i : 2the msg is note_on channel=0 note=69 velocity=72 time=112
 i : 2the msg is note_on channel=0 note=65 velocity=65 time=4
 i : 2the msg is note_on channel=0 note=62 velocity=61 time=5
 i : 2the msg is note_on channel=0 note=62 velocity=0 time=72
 i : 2the msg is note_on channel=0 note=65 velocity=0 time=6
 i : 2the msg is note_on channel=0 note=69 velocity=0 time=16
 i : 2the msg is note_on channel=0 note=69 velocity=82 time=141
 i : 2the msg is note_on channel=0 note=72 velocity=96 time=0
 i : 2the msg is note_on channel=0 note=65 velocity=93 time=1
 i : 2the msg is note_on channel=0 note=72 velocity=0 time=126
 i : 2the msg is note_on channel=0 note=69 velocity=0 time=4
 i : 2the msg is note_on channel=0 note=65 velocity=0 time=6
 i : 2the msg is note_on channel=0 note=65 velocity=98 time=364
 i : 2the msg is note_on channel=0 note=69 velocity=91 time=1
 i : 2the msg is note_on channel=0 note=62 velocity=89 time=1
 i : 2the msg is note_on channel=0 note=62 velocity=0 time=847
 i : 2the msg is note_on channel=0 note=69 velocity=0 time=15
 i : 2the msg is note_on channel=0 note=65 velocity=0 time=9
 i : 2the msg is note_on channel=0 note=65 velocity=51 time=91
 i : 2the msg is note_on channel=0 note=69 velocity=54 time=1
 i : 2the msg is note_on channel=0 note=62 velocity=53 time=12
 i : 2the msg is note_on channel=0 note=62 velocity=0 time=55
 i : 2the msg is note_on channel=0 note=65 velocity=0 time=17
 i : 2the msg is note_on channel=0 note=69 velocity=0 time=1
 i : 2the msg is note_on channel=0 note=65 velocity=51 time=132
 i : 2the msg is note_on channel=0 note=69 velocity=60 time=1
 i : 2the msg is note_on channel=0 note=62 velocity=48 time=12
 i : 2the msg is note_on channel=0 note=62 velocity=0 time=55
 i : 2the msg is note_on channel=0 note=65 velocity=0 time=24
 i : 2the msg is note_on channel=0 note=69 velocity=0 time=5
 i : 2the msg is note_on channel=0 note=65 velocity=82 time=127
 i : 2the msg is note_on channel=0 note=69 velocity=78 time=0
 i : 2the msg is note_on channel=0 note=72 velocity=80 time=4
 i : 2the msg is note_on channel=0 note=72 velocity=0 time=112
 i : 2the msg is note_on channel=0 note=65 velocity=0 time=1
 i : 2the msg is note_on channel=0 note=69 velocity=0 time=1
 i : 2the msg is note_on channel=0 note=67 velocity=89 time=153
 i : 2the msg is note_on channel=0 note=62 velocity=91 time=1
 i : 2the msg is note_on channel=0 note=71 velocity=86 time=0
 i : 2the msg is note_on channel=0 note=62 velocity=0 time=320
 i : 2the msg is note_on channel=0 note=67 velocity=0 time=16
 i : 2the msg is note_on channel=0 note=71 velocity=0 time=16
 i : 2the msg is note_on channel=0 note=62 velocity=75 time=122
 i : 2the msg is note_on channel=0 note=65 velocity=91 time=2
 i : 2the msg is note_on channel=0 note=69 velocity=86 time=2
 i : 2the msg is note_on channel=0 note=62 velocity=0 time=829
 i : 2the msg is note_on channel=0 note=69 velocity=0 time=16
 i : 2the msg is note_on channel=0 note=65 velocity=0 time=1
 i : 2the msg is <meta message end_of_track time=0>
 i : 3the msg is <meta message midi_port port=0 time=0>
 i : 3the msg is <meta message track_name name='Bass' time=0>
 i : 3the msg is program_change channel=1 program=35 time=0
 i : 3the msg is control_change channel=1 control=7 value=110 time=0
 i : 3the msg is control_change channel=1 control=10 value=64 time=0
 i : 3the msg is control_change channel=1 control=121 value=0 time=40
 i : 3the msg is control_change channel=1 control=91 value=0 time=4
 i : 3the msg is note_on channel=1 note=38 velocity=123 time=7636
 i : 3the msg is note_on channel=1 note=38 velocity=0 time=1888
 i : 3the msg is note_on channel=1 note=38 velocity=111 time=32
 i : 3the msg is note_on channel=1 note=38 velocity=0 time=1781
 i : 3the msg is note_on channel=1 note=38 velocity=127 time=139
 i : 3the msg is note_on channel=1 note=38 velocity=0 time=1762
 i : 3the msg is note_on channel=1 note=38 velocity=126 time=158
 i : 3the msg is note_on channel=1 note=38 velocity=0 time=1645
 i : 3the msg is note_on channel=1 note=38 velocity=123 time=275
 i : 3the msg is note_on channel=1 note=38 velocity=0 time=1888
 i : 3the msg is note_on channel=1 note=38 velocity=111 time=32
 i : 3the msg is note_on channel=1 note=38 velocity=0 time=1781
 i : 3the msg is note_on channel=1 note=38 velocity=127 time=139
 i : 3the msg is note_on channel=1 note=38 velocity=0 time=1762
 i : 3the msg is note_on channel=1 note=38 velocity=126 time=158
 i : 3the msg is note_on channel=1 note=38 velocity=0 time=1645
 i : 3the msg is note_on channel=1 note=38 velocity=123 time=275
 i : 3the msg is note_on channel=1 note=38 velocity=0 time=1888
 i : 3the msg is note_on channel=1 note=38 velocity=111 time=32
 i : 3the msg is note_on channel=1 note=38 velocity=0 time=1781
 i : 3the msg is note_on channel=1 note=38 velocity=127 time=139
 i : 3the msg is note_on channel=1 note=38 velocity=0 time=1762
 i : 3the msg is note_on channel=1 note=38 velocity=127 time=1826
 i : 3the msg is note_on channel=1 note=38 velocity=0 time=848
 i : 3the msg is note_on channel=1 note=38 velocity=120 time=114
 i : 3the msg is note_on channel=1 note=41 velocity=113 time=241
 i : 3the msg is note_on channel=1 note=38 velocity=0 time=7
 i : 3the msg is note_on channel=1 note=41 velocity=0 time=140
 i : 3the msg is note_on channel=1 note=38 velocity=123 time=310
 i : 3the msg is note_on channel=1 note=38 velocity=0 time=1354
 i : 3the msg is note_on channel=1 note=38 velocity=117 time=99
 i : 3the msg is note_on channel=1 note=41 velocity=91 time=255
 i : 3the msg is note_on channel=1 note=38 velocity=0 time=22
 i : 3the msg is note_on channel=1 note=41 velocity=0 time=87
 i : 3the msg is note_on channel=1 note=43 velocity=127 time=137
 i : 3the msg is note_on channel=1 note=43 velocity=0 time=94
 i : 3the msg is note_on channel=1 note=45 velocity=127 time=173
 i : 3the msg is note_on channel=1 note=45 velocity=0 time=815
 i : 3the msg is note_on channel=1 note=45 velocity=103 time=99
 i : 3the msg is note_on channel=1 note=45 velocity=0 time=89
 i : 3the msg is note_on channel=1 note=45 velocity=126 time=160
 i : 3the msg is note_on channel=1 note=44 velocity=82 time=222
 i : 3the msg is note_on channel=1 note=45 velocity=0 time=33
 i : 3the msg is note_on channel=1 note=44 velocity=0 time=51
 i : 3the msg is note_on channel=1 note=43 velocity=120 time=177
 i : 3the msg is note_on channel=1 note=43 velocity=0 time=1110
 i : 3the msg is note_on channel=1 note=43 velocity=85 time=95
 i : 3the msg is note_on channel=1 note=43 velocity=0 time=111
 i : 3the msg is note_on channel=1 note=43 velocity=91 time=136
 i : 3the msg is note_on channel=1 note=36 velocity=89 time=233
 i : 3the msg is note_on channel=1 note=43 velocity=0 time=69
 i : 3the msg is note_on channel=1 note=37 velocity=127 time=171
 i : 3the msg is note_on channel=1 note=36 velocity=0 time=21
 i : 3the msg is note_on channel=1 note=37 velocity=0 time=206
 i : 3the msg is note_on channel=1 note=38 velocity=127 time=7
 i : 3the msg is note_on channel=1 note=38 velocity=0 time=850
 i : 3the msg is note_on channel=1 note=38 velocity=127 time=110
 i : 3the msg is note_on channel=1 note=38 velocity=0 time=226
 i : 3the msg is note_on channel=1 note=41 velocity=127 time=16
 i : 3the msg is note_on channel=1 note=41 velocity=0 time=194
 i : 3the msg is note_on channel=1 note=38 velocity=127 time=279
 i : 3the msg is note_on channel=1 note=38 velocity=0 time=1108
 i : 3the msg is note_on channel=1 note=38 velocity=93 time=95
 i : 3the msg is note_on channel=1 note=38 velocity=0 time=80
 i : 3the msg is note_on channel=1 note=38 velocity=117 time=170
 i : 3the msg is note_on channel=1 note=41 velocity=108 time=255
 i : 3the msg is note_on channel=1 note=38 velocity=0 time=15
 i : 3the msg is note_on channel=1 note=41 velocity=0 time=219
 i : 3the msg is note_on channel=1 note=43 velocity=127 time=7
 i : 3the msg is note_on channel=1 note=43 velocity=0 time=226
 i : 3the msg is note_on channel=1 note=45 velocity=126 time=5
 i : 3the msg is note_on channel=1 note=45 velocity=0 time=858
 i : 3the msg is note_on channel=1 note=45 velocity=98 time=96
 i : 3the msg is note_on channel=1 note=45 velocity=0 time=97
 i : 3the msg is note_on channel=1 note=45 velocity=108 time=129
 i : 3the msg is note_on channel=1 note=45 velocity=0 time=174
 i : 3the msg is note_on channel=1 note=44 velocity=122 time=62
 i : 3the msg is note_on channel=1 note=44 velocity=0 time=96
 i : 3the msg is note_on channel=1 note=43 velocity=117 time=142
 i : 3the msg is note_on channel=1 note=43 velocity=0 time=1161
 i : 3the msg is note_on channel=1 note=43 velocity=83 time=64
 i : 3the msg is note_on channel=1 note=43 velocity=0 time=88
 i : 3the msg is note_on channel=1 note=43 velocity=127 time=152
 i : 3the msg is note_on channel=1 note=42 velocity=115 time=232
 i : 3the msg is note_on channel=1 note=43 velocity=0 time=26
 i : 3the msg is note_on channel=1 note=42 velocity=0 time=74
 i : 3the msg is note_on channel=1 note=43 velocity=127 time=136
 i : 3the msg is note_on channel=1 note=43 velocity=0 time=224
 i : 3the msg is note_on channel=1 note=45 velocity=117 time=6
 i : 3the msg is note_on channel=1 note=45 velocity=0 time=134
 i : 3the msg is note_on channel=1 note=47 velocity=127 time=110
 i : 3the msg is note_on channel=1 note=47 velocity=0 time=613
 i : 3the msg is note_on channel=1 note=47 velocity=113 time=120
 i : 3the msg is note_on channel=1 note=47 velocity=0 time=69
 i : 3the msg is note_on channel=1 note=47 velocity=127 time=161
 i : 3the msg is note_on channel=1 note=45 velocity=123 time=467
 i : 3the msg is note_on channel=1 note=47 velocity=0 time=4
 i : 3the msg is note_on channel=1 note=45 velocity=0 time=453
 i : 3the msg is note_on channel=1 note=43 velocity=126 time=19
 i : 3the msg is note_on channel=1 note=43 velocity=0 time=560
 i : 3the msg is note_on channel=1 note=43 velocity=108 time=168
 i : 3the msg is note_on channel=1 note=43 velocity=0 time=76
 i : 3the msg is note_on channel=1 note=43 velocity=113 time=168
 i : 3the msg is note_on channel=1 note=42 velocity=122 time=229
 i : 3the msg is note_on channel=1 note=43 velocity=0 time=19
 i : 3the msg is note_on channel=1 note=42 velocity=0 time=97
 i : 3the msg is note_on channel=1 note=43 velocity=113 time=121
 i : 3the msg is note_on channel=1 note=43 velocity=0 time=222
 i : 3the msg is note_on channel=1 note=45 velocity=126 time=19
 i : 3the msg is note_on channel=1 note=45 velocity=0 time=124
 i : 3the msg is note_on channel=1 note=47 velocity=127 time=115
 i : 3the msg is note_on channel=1 note=47 velocity=0 time=663
 i : 3the msg is note_on channel=1 note=47 velocity=77 time=60
 i : 3the msg is note_on channel=1 note=47 velocity=0 time=75
 i : 3the msg is note_on channel=1 note=47 velocity=103 time=179
 i : 3the msg is note_on channel=1 note=45 velocity=113 time=1
 i : 3the msg is note_on channel=1 note=45 velocity=0 time=140
 i : 3the msg is note_on channel=1 note=45 velocity=127 time=340
 i : 3the msg is note_on channel=1 note=47 velocity=0 time=33
 i : 3the msg is note_on channel=1 note=43 velocity=120 time=450
 i : 3the msg is note_on channel=1 note=45 velocity=0 time=5
 i : 3the msg is note_on channel=1 note=43 velocity=0 time=565
 i : 3the msg is note_on channel=1 note=43 velocity=60 time=151
 i : 3the msg is note_on channel=1 note=43 velocity=0 time=86
 i : 3the msg is note_on channel=1 note=43 velocity=126 time=127
 i : 3the msg is note_on channel=1 note=41 velocity=89 time=248
 i : 3the msg is note_on channel=1 note=43 velocity=0 time=39
 i : 3the msg is note_on channel=1 note=41 velocity=0 time=80
 i : 3the msg is note_on channel=1 note=40 velocity=103 time=123
 i : 3the msg is note_on channel=1 note=40 velocity=0 time=168
 i : 3the msg is note_on channel=1 note=38 velocity=127 time=87
 i : 3the msg is note_on channel=1 note=38 velocity=0 time=853
 i : 3the msg is note_on channel=1 note=38 velocity=117 time=115
 i : 3the msg is note_on channel=1 note=38 velocity=0 time=222
 i : 3the msg is note_on channel=1 note=41 velocity=127 time=14
 i : 3the msg is note_on channel=1 note=41 velocity=0 time=176
 i : 3the msg is note_on channel=1 note=38 velocity=127 time=287
 i : 3the msg is note_on channel=1 note=38 velocity=0 time=1151
 i : 3the msg is note_on channel=1 note=38 velocity=72 time=76
 i : 3the msg is note_on channel=1 note=38 velocity=0 time=50
 i : 3the msg is note_on channel=1 note=38 velocity=127 time=162
 i : 3the msg is note_on channel=1 note=40 velocity=117 time=247
 i : 3the msg is note_on channel=1 note=38 velocity=0 time=9
 i : 3the msg is note_on channel=1 note=40 velocity=0 time=106
 i : 3the msg is note_on channel=1 note=41 velocity=123 time=120
 i : 3the msg is note_on channel=1 note=41 velocity=0 time=134
 i : 3the msg is note_on channel=1 note=43 velocity=127 time=132
 i : 3the msg is note_on channel=1 note=43 velocity=0 time=847
 i : 3the msg is note_on channel=1 note=43 velocity=68 time=92
 i : 3the msg is note_on channel=1 note=43 velocity=0 time=73
 i : 3the msg is note_on channel=1 note=43 velocity=127 time=178
 i : 3the msg is note_on channel=1 note=43 velocity=0 time=198
 i : 3the msg is note_on channel=1 note=43 velocity=127 time=286
 i : 3the msg is note_on channel=1 note=43 velocity=0 time=1092
 i : 3the msg is note_on channel=1 note=43 velocity=86 time=110
 i : 3the msg is note_on channel=1 note=43 velocity=0 time=83
 i : 3the msg is note_on channel=1 note=43 velocity=111 time=145
 i : 3the msg is note_on channel=1 note=41 velocity=98 time=231
 i : 3the msg is note_on channel=1 note=43 velocity=0 time=37
 i : 3the msg is note_on channel=1 note=41 velocity=0 time=60
 i : 3the msg is note_on channel=1 note=40 velocity=108 time=146
 i : 3the msg is note_on channel=1 note=40 velocity=0 time=116
 i : 3the msg is note_on channel=1 note=38 velocity=127 time=130
 i : 3the msg is note_on channel=1 note=38 velocity=0 time=852
 i : 3the msg is note_on channel=1 note=38 velocity=117 time=114
 i : 3the msg is note_on channel=1 note=38 velocity=0 time=150
 i : 3the msg is note_on channel=1 note=41 velocity=127 time=64
 i : 3the msg is note_on channel=1 note=41 velocity=0 time=146
 i : 3the msg is note_on channel=1 note=38 velocity=127 time=342
 i : 3the msg is note_on channel=1 note=38 velocity=0 time=1115
 i : 3the msg is note_on channel=1 note=38 velocity=82 time=89
 i : 3the msg is note_on channel=1 note=38 velocity=0 time=73
 i : 3the msg is note_on channel=1 note=38 velocity=127 time=171
 i : 3the msg is note_on channel=1 note=38 velocity=0 time=243
 i : 3the msg is note_on channel=1 note=40 velocity=96 time=11
 i : 3the msg is note_on channel=1 note=40 velocity=0 time=93
 i : 3the msg is note_on channel=1 note=41 velocity=126 time=137
 i : 3the msg is note_on channel=1 note=41 velocity=0 time=121
 i : 3the msg is note_on channel=1 note=43 velocity=120 time=129
 i : 3the msg is note_on channel=1 note=43 velocity=0 time=807
 i : 3the msg is note_on channel=1 note=43 velocity=78 time=135
 i : 3the msg is note_on channel=1 note=43 velocity=0 time=76
 i : 3the msg is note_on channel=1 note=43 velocity=126 time=156
 i : 3the msg is note_on channel=1 note=43 velocity=0 time=154
 i : 3the msg is note_on channel=1 note=43 velocity=126 time=327
 i : 3the msg is note_on channel=1 note=43 velocity=0 time=1072
 i : 3the msg is note_on channel=1 note=43 velocity=60 time=146
 i : 3the msg is note_on channel=1 note=43 velocity=0 time=93
 i : 3the msg is note_on channel=1 note=43 velocity=100 time=163
 i : 3the msg is note_on channel=1 note=36 velocity=93 time=240
 i : 3the msg is note_on channel=1 note=43 velocity=0 time=52
 i : 3the msg is note_on channel=1 note=36 velocity=0 time=102
 i : 3the msg is note_on channel=1 note=37 velocity=127 time=73
 i : 3the msg is note_on channel=1 note=37 velocity=0 time=146
 i : 3the msg is note_on channel=1 note=38 velocity=127 time=104
 i : 3the msg is note_on channel=1 note=38 velocity=0 time=875
 i : 3the msg is note_on channel=1 note=38 velocity=98 time=53
 i : 3the msg is note_on channel=1 note=38 velocity=0 time=83
 i : 3the msg is note_on channel=1 note=38 velocity=127 time=165
 i : 3the msg is note_on channel=1 note=38 velocity=0 time=653
 i : 3the msg is note_on channel=1 note=38 velocity=111 time=75
 i : 3the msg is note_on channel=1 note=38 velocity=0 time=93
 i : 3the msg is note_on channel=1 note=38 velocity=127 time=161
 i : 3the msg is note_on channel=1 note=38 velocity=0 time=628
 i : 3the msg is note_on channel=1 note=38 velocity=108 time=74
 i : 3the msg is note_on channel=1 note=38 velocity=0 time=80
 i : 3the msg is note_on channel=1 note=38 velocity=127 time=161
 i : 3the msg is note_on channel=1 note=38 velocity=0 time=642
 i : 3the msg is note_on channel=1 note=38 velocity=111 time=76
 i : 3the msg is note_on channel=1 note=38 velocity=0 time=92
 i : 3the msg is note_on channel=1 note=38 velocity=127 time=161
 i : 3the msg is note_on channel=1 note=38 velocity=0 time=614
 i : 3the msg is note_on channel=1 note=38 velocity=113 time=85
 i : 3the msg is note_on channel=1 note=38 velocity=0 time=89
 i : 3the msg is note_on channel=1 note=38 velocity=127 time=142
 i : 3the msg is note_on channel=1 note=38 velocity=0 time=659
 i : 3the msg is note_on channel=1 note=38 velocity=93 time=100
 i : 3the msg is note_on channel=1 note=38 velocity=0 time=87
 i : 3the msg is note_on channel=1 note=38 velocity=127 time=157
 i : 3the msg is note_on channel=1 note=38 velocity=0 time=623
 i : 3the msg is note_on channel=1 note=38 velocity=106 time=58
 i : 3the msg is note_on channel=1 note=38 velocity=0 time=88
 i : 3the msg is note_on channel=1 note=38 velocity=127 time=150
 i : 3the msg is note_on channel=1 note=38 velocity=0 time=640
 i : 3the msg is note_on channel=1 note=38 velocity=106 time=100
 i : 3the msg is note_on channel=1 note=38 velocity=0 time=106
 i : 3the msg is note_on channel=1 note=38 velocity=127 time=145
 i : 3the msg is note_on channel=1 note=38 velocity=0 time=642
 i : 3the msg is note_on channel=1 note=38 velocity=86 time=73
 i : 3the msg is note_on channel=1 note=38 velocity=0 time=82
 i : 3the msg is note_on channel=1 note=38 velocity=127 time=156
 i : 3the msg is note_on channel=1 note=38 velocity=0 time=624
 i : 3the msg is note_on channel=1 note=38 velocity=117 time=95
 i : 3the msg is note_on channel=1 note=38 velocity=0 time=80
 i : 3the msg is note_on channel=1 note=38 velocity=127 time=153
 i : 3the msg is note_on channel=1 note=38 velocity=0 time=651
 i : 3the msg is note_on channel=1 note=38 velocity=111 time=66
 i : 3the msg is note_on channel=1 note=38 velocity=0 time=94
 i : 3the msg is note_on channel=1 note=38 velocity=127 time=136
 i : 3the msg is note_on channel=1 note=38 velocity=0 time=668
 i : 3the msg is note_on channel=1 note=38 velocity=113 time=80
 i : 3the msg is note_on channel=1 note=38 velocity=0 time=79
 i : 3the msg is note_on channel=1 note=38 velocity=127 time=159
 i : 3the msg is note_on channel=1 note=38 velocity=0 time=641
 i : 3the msg is note_on channel=1 note=38 velocity=96 time=66
 i : 3the msg is note_on channel=1 note=38 velocity=0 time=88
 i : 3the msg is note_on channel=1 note=38 velocity=127 time=160
 i : 3the msg is note_on channel=1 note=38 velocity=0 time=658
 i : 3the msg is note_on channel=1 note=38 velocity=103 time=52
 i : 3the msg is note_on channel=1 note=38 velocity=0 time=93
 i : 3the msg is note_on channel=1 note=38 velocity=127 time=139
 i : 3the msg is note_on channel=1 note=38 velocity=0 time=246
 i : 3the msg is note_on channel=1 note=50 velocity=127 time=4
 i : 3the msg is note_on channel=1 note=50 velocity=0 time=99
 i : 3the msg is note_on channel=1 note=48 velocity=127 time=129
 i : 3the msg is note_on channel=1 note=45 velocity=98 time=235
 i : 3the msg is note_on channel=1 note=48 velocity=0 time=25
 i : 3the msg is note_on channel=1 note=45 velocity=0 time=75
 i : 3the msg is note_on channel=1 note=43 velocity=127 time=151
 i : 3the msg is note_on channel=1 note=43 velocity=0 time=244
 i : 3the msg is note_on channel=1 note=41 velocity=86 time=5
 i : 3the msg is note_on channel=1 note=41 velocity=0 time=100
 i : 3the msg is note_on channel=1 note=40 velocity=117 time=147
 i : 3the msg is note_on channel=1 note=40 velocity=0 time=140
 i : 3the msg is note_on channel=1 note=38 velocity=127 time=90
 i : 3the msg is note_on channel=1 note=38 velocity=127 time=20
 i : 3the msg is note_on channel=1 note=38 velocity=0 time=752
 i : 3the msg is note_on channel=1 note=38 velocity=0 time=76
 i : 3the msg is note_on channel=1 note=38 velocity=120 time=114
 i : 3the msg is note_on channel=1 note=41 velocity=113 time=241
 i : 3the msg is note_on channel=1 note=38 velocity=0 time=7
 i : 3the msg is note_on channel=1 note=41 velocity=0 time=140
 i : 3the msg is note_on channel=1 note=38 velocity=123 time=310
 i : 3the msg is note_on channel=1 note=38 velocity=0 time=1354
 i : 3the msg is note_on channel=1 note=38 velocity=117 time=99
 i : 3the msg is note_on channel=1 note=41 velocity=91 time=255
 i : 3the msg is note_on channel=1 note=38 velocity=0 time=22
 i : 3the msg is note_on channel=1 note=41 velocity=0 time=87
 i : 3the msg is note_on channel=1 note=43 velocity=127 time=137
 i : 3the msg is note_on channel=1 note=43 velocity=0 time=94
 i : 3the msg is note_on channel=1 note=45 velocity=127 time=173
 i : 3the msg is note_on channel=1 note=45 velocity=0 time=815
 i : 3the msg is note_on channel=1 note=45 velocity=103 time=99
 i : 3the msg is note_on channel=1 note=45 velocity=0 time=89
 i : 3the msg is note_on channel=1 note=45 velocity=126 time=160
 i : 3the msg is note_on channel=1 note=44 velocity=82 time=222
 i : 3the msg is note_on channel=1 note=45 velocity=0 time=33
 i : 3the msg is note_on channel=1 note=44 velocity=0 time=51
 i : 3the msg is note_on channel=1 note=43 velocity=120 time=177
 i : 3the msg is note_on channel=1 note=43 velocity=0 time=1110
 i : 3the msg is note_on channel=1 note=43 velocity=85 time=95
 i : 3the msg is note_on channel=1 note=43 velocity=0 time=111
 i : 3the msg is note_on channel=1 note=43 velocity=91 time=136
 i : 3the msg is note_on channel=1 note=36 velocity=89 time=233
 i : 3the msg is note_on channel=1 note=43 velocity=0 time=69
 i : 3the msg is note_on channel=1 note=37 velocity=127 time=171
 i : 3the msg is note_on channel=1 note=36 velocity=0 time=21
 i : 3the msg is note_on channel=1 note=37 velocity=0 time=206
 i : 3the msg is note_on channel=1 note=38 velocity=127 time=7
 i : 3the msg is note_on channel=1 note=38 velocity=0 time=850
 i : 3the msg is note_on channel=1 note=38 velocity=127 time=110
 i : 3the msg is note_on channel=1 note=38 velocity=0 time=226
 i : 3the msg is note_on channel=1 note=41 velocity=127 time=16
 i : 3the msg is note_on channel=1 note=41 velocity=0 time=194
 i : 3the msg is note_on channel=1 note=38 velocity=127 time=279
 i : 3the msg is note_on channel=1 note=38 velocity=0 time=1108
 i : 3the msg is note_on channel=1 note=38 velocity=93 time=95
 i : 3the msg is note_on channel=1 note=38 velocity=0 time=80
 i : 3the msg is note_on channel=1 note=38 velocity=117 time=170
 i : 3the msg is note_on channel=1 note=41 velocity=108 time=255
 i : 3the msg is note_on channel=1 note=38 velocity=0 time=15
 i : 3the msg is note_on channel=1 note=41 velocity=0 time=219
 i : 3the msg is note_on channel=1 note=43 velocity=127 time=7
 i : 3the msg is note_on channel=1 note=43 velocity=0 time=226
 i : 3the msg is note_on channel=1 note=45 velocity=126 time=5
 i : 3the msg is note_on channel=1 note=45 velocity=0 time=858
 i : 3the msg is note_on channel=1 note=45 velocity=98 time=96
 i : 3the msg is note_on channel=1 note=45 velocity=0 time=97
 i : 3the msg is note_on channel=1 note=45 velocity=108 time=129
 i : 3the msg is note_on channel=1 note=45 velocity=0 time=174
 i : 3the msg is note_on channel=1 note=44 velocity=122 time=62
 i : 3the msg is note_on channel=1 note=44 velocity=0 time=96
 i : 3the msg is note_on channel=1 note=43 velocity=117 time=142
 i : 3the msg is note_on channel=1 note=43 velocity=0 time=1161
 i : 3the msg is note_on channel=1 note=43 velocity=83 time=64
 i : 3the msg is note_on channel=1 note=43 velocity=0 time=88
 i : 3the msg is note_on channel=1 note=43 velocity=127 time=152
 i : 3the msg is note_on channel=1 note=42 velocity=115 time=232
 i : 3the msg is note_on channel=1 note=43 velocity=0 time=26
 i : 3the msg is note_on channel=1 note=42 velocity=0 time=74
 i : 3the msg is note_on channel=1 note=43 velocity=127 time=136
 i : 3the msg is note_on channel=1 note=43 velocity=0 time=224
 i : 3the msg is note_on channel=1 note=45 velocity=117 time=6
 i : 3the msg is note_on channel=1 note=45 velocity=0 time=134
 i : 3the msg is note_on channel=1 note=47 velocity=127 time=110
 i : 3the msg is note_on channel=1 note=47 velocity=0 time=613
 i : 3the msg is note_on channel=1 note=47 velocity=113 time=120
 i : 3the msg is note_on channel=1 note=47 velocity=0 time=69
 i : 3the msg is note_on channel=1 note=47 velocity=127 time=161
 i : 3the msg is note_on channel=1 note=45 velocity=123 time=467
 i : 3the msg is note_on channel=1 note=47 velocity=0 time=4
 i : 3the msg is note_on channel=1 note=45 velocity=0 time=453
 i : 3the msg is note_on channel=1 note=43 velocity=126 time=19
 i : 3the msg is note_on channel=1 note=43 velocity=0 time=560
 i : 3the msg is note_on channel=1 note=43 velocity=108 time=168
 i : 3the msg is note_on channel=1 note=43 velocity=0 time=76
 i : 3the msg is note_on channel=1 note=43 velocity=113 time=168
 i : 3the msg is note_on channel=1 note=42 velocity=122 time=229
 i : 3the msg is note_on channel=1 note=43 velocity=0 time=19
 i : 3the msg is note_on channel=1 note=42 velocity=0 time=97
 i : 3the msg is note_on channel=1 note=43 velocity=113 time=121
 i : 3the msg is note_on channel=1 note=43 velocity=0 time=222
 i : 3the msg is note_on channel=1 note=45 velocity=126 time=19
 i : 3the msg is note_on channel=1 note=45 velocity=0 time=124
 i : 3the msg is note_on channel=1 note=47 velocity=127 time=115
 i : 3the msg is note_on channel=1 note=47 velocity=0 time=663
 i : 3the msg is note_on channel=1 note=47 velocity=77 time=60
 i : 3the msg is note_on channel=1 note=47 velocity=0 time=75
 i : 3the msg is note_on channel=1 note=47 velocity=103 time=179
 i : 3the msg is note_on channel=1 note=45 velocity=113 time=1
 i : 3the msg is note_on channel=1 note=45 velocity=0 time=140
 i : 3the msg is note_on channel=1 note=45 velocity=127 time=340
 i : 3the msg is note_on channel=1 note=47 velocity=0 time=33
 i : 3the msg is note_on channel=1 note=43 velocity=120 time=450
 i : 3the msg is note_on channel=1 note=45 velocity=0 time=5
 i : 3the msg is note_on channel=1 note=43 velocity=0 time=565
 i : 3the msg is note_on channel=1 note=43 velocity=60 time=151
 i : 3the msg is note_on channel=1 note=43 velocity=0 time=86
 i : 3the msg is note_on channel=1 note=43 velocity=126 time=127
 i : 3the msg is note_on channel=1 note=41 velocity=89 time=248
 i : 3the msg is note_on channel=1 note=43 velocity=0 time=39
 i : 3the msg is note_on channel=1 note=41 velocity=0 time=80
 i : 3the msg is note_on channel=1 note=40 velocity=103 time=123
 i : 3the msg is note_on channel=1 note=40 velocity=0 time=168
 i : 3the msg is note_on channel=1 note=38 velocity=127 time=87
 i : 3the msg is note_on channel=1 note=38 velocity=0 time=853
 i : 3the msg is note_on channel=1 note=38 velocity=117 time=115
 i : 3the msg is note_on channel=1 note=38 velocity=0 time=222
 i : 3the msg is note_on channel=1 note=41 velocity=127 time=14
 i : 3the msg is note_on channel=1 note=41 velocity=0 time=176
 i : 3the msg is note_on channel=1 note=38 velocity=127 time=287
 i : 3the msg is note_on channel=1 note=38 velocity=0 time=1151
 i : 3the msg is note_on channel=1 note=38 velocity=72 time=76
 i : 3the msg is note_on channel=1 note=38 velocity=0 time=50
 i : 3the msg is note_on channel=1 note=38 velocity=127 time=162
 i : 3the msg is note_on channel=1 note=40 velocity=117 time=247
 i : 3the msg is note_on channel=1 note=38 velocity=0 time=9
 i : 3the msg is note_on channel=1 note=40 velocity=0 time=106
 i : 3the msg is note_on channel=1 note=41 velocity=123 time=120
 i : 3the msg is note_on channel=1 note=41 velocity=0 time=134
 i : 3the msg is note_on channel=1 note=43 velocity=127 time=132
 i : 3the msg is note_on channel=1 note=43 velocity=0 time=847
 i : 3the msg is note_on channel=1 note=43 velocity=68 time=92
 i : 3the msg is note_on channel=1 note=43 velocity=0 time=73
 i : 3the msg is note_on channel=1 note=43 velocity=127 time=178
 i : 3the msg is note_on channel=1 note=43 velocity=0 time=198
 i : 3the msg is note_on channel=1 note=43 velocity=127 time=286
 i : 3the msg is note_on channel=1 note=43 velocity=0 time=1092
 i : 3the msg is note_on channel=1 note=43 velocity=86 time=110
 i : 3the msg is note_on channel=1 note=43 velocity=0 time=83
 i : 3the msg is note_on channel=1 note=43 velocity=111 time=145
 i : 3the msg is note_on channel=1 note=41 velocity=98 time=231
 i : 3the msg is note_on channel=1 note=43 velocity=0 time=37
 i : 3the msg is note_on channel=1 note=41 velocity=0 time=60
 i : 3the msg is note_on channel=1 note=40 velocity=108 time=146
 i : 3the msg is note_on channel=1 note=40 velocity=0 time=116
 i : 3the msg is note_on channel=1 note=38 velocity=127 time=130
 i : 3the msg is note_on channel=1 note=38 velocity=0 time=852
 i : 3the msg is note_on channel=1 note=38 velocity=117 time=114
 i : 3the msg is note_on channel=1 note=38 velocity=0 time=150
 i : 3the msg is note_on channel=1 note=41 velocity=127 time=64
 i : 3the msg is note_on channel=1 note=41 velocity=0 time=146
 i : 3the msg is note_on channel=1 note=38 velocity=127 time=342
 i : 3the msg is note_on channel=1 note=38 velocity=0 time=1115
 i : 3the msg is note_on channel=1 note=38 velocity=82 time=89
 i : 3the msg is note_on channel=1 note=38 velocity=0 time=73
 i : 3the msg is note_on channel=1 note=38 velocity=127 time=171
 i : 3the msg is note_on channel=1 note=38 velocity=0 time=243
 i : 3the msg is note_on channel=1 note=40 velocity=96 time=11
 i : 3the msg is note_on channel=1 note=40 velocity=0 time=93
 i : 3the msg is note_on channel=1 note=41 velocity=126 time=137
 i : 3the msg is note_on channel=1 note=41 velocity=0 time=121
 i : 3the msg is note_on channel=1 note=43 velocity=120 time=129
 i : 3the msg is note_on channel=1 note=43 velocity=0 time=807
 i : 3the msg is note_on channel=1 note=43 velocity=78 time=135
 i : 3the msg is note_on channel=1 note=43 velocity=0 time=76
 i : 3the msg is note_on channel=1 note=43 velocity=126 time=156
 i : 3the msg is note_on channel=1 note=43 velocity=0 time=154
 i : 3the msg is note_on channel=1 note=43 velocity=126 time=327
 i : 3the msg is note_on channel=1 note=43 velocity=0 time=1072
 i : 3the msg is note_on channel=1 note=43 velocity=60 time=146
 i : 3the msg is note_on channel=1 note=43 velocity=0 time=93
 i : 3the msg is note_on channel=1 note=43 velocity=100 time=163
 i : 3the msg is note_on channel=1 note=36 velocity=93 time=240
 i : 3the msg is note_on channel=1 note=43 velocity=0 time=52
 i : 3the msg is note_on channel=1 note=36 velocity=0 time=102
 i : 3the msg is note_on channel=1 note=37 velocity=127 time=73
 i : 3the msg is note_on channel=1 note=37 velocity=0 time=146
 i : 3the msg is note_on channel=1 note=38 velocity=127 time=104
 i : 3the msg is note_on channel=1 note=38 velocity=0 time=875
 i : 3the msg is note_on channel=1 note=38 velocity=98 time=53
 i : 3the msg is note_on channel=1 note=38 velocity=0 time=83
 i : 3the msg is note_on channel=1 note=38 velocity=127 time=165
 i : 3the msg is note_on channel=1 note=38 velocity=0 time=653
 i : 3the msg is note_on channel=1 note=38 velocity=111 time=75
 i : 3the msg is note_on channel=1 note=38 velocity=0 time=93
 i : 3the msg is note_on channel=1 note=38 velocity=127 time=161
 i : 3the msg is note_on channel=1 note=38 velocity=0 time=628
 i : 3the msg is note_on channel=1 note=38 velocity=108 time=74
 i : 3the msg is note_on channel=1 note=38 velocity=0 time=80
 i : 3the msg is note_on channel=1 note=38 velocity=127 time=161
 i : 3the msg is note_on channel=1 note=38 velocity=0 time=642
 i : 3the msg is note_on channel=1 note=38 velocity=111 time=76
 i : 3the msg is note_on channel=1 note=38 velocity=0 time=92
 i : 3the msg is note_on channel=1 note=38 velocity=127 time=161
 i : 3the msg is note_on channel=1 note=38 velocity=0 time=614
 i : 3the msg is note_on channel=1 note=38 velocity=113 time=85
 i : 3the msg is note_on channel=1 note=38 velocity=0 time=89
 i : 3the msg is note_on channel=1 note=38 velocity=127 time=142
 i : 3the msg is note_on channel=1 note=38 velocity=0 time=659
 i : 3the msg is note_on channel=1 note=38 velocity=93 time=100
 i : 3the msg is note_on channel=1 note=38 velocity=0 time=87
 i : 3the msg is note_on channel=1 note=38 velocity=127 time=157
 i : 3the msg is note_on channel=1 note=38 velocity=0 time=623
 i : 3the msg is note_on channel=1 note=38 velocity=106 time=58
 i : 3the msg is note_on channel=1 note=38 velocity=0 time=88
 i : 3the msg is note_on channel=1 note=38 velocity=127 time=150
 i : 3the msg is note_on channel=1 note=38 velocity=0 time=640
 i : 3the msg is note_on channel=1 note=38 velocity=106 time=100
 i : 3the msg is note_on channel=1 note=38 velocity=0 time=106
 i : 3the msg is note_on channel=1 note=38 velocity=127 time=145
 i : 3the msg is note_on channel=1 note=38 velocity=0 time=642
 i : 3the msg is note_on channel=1 note=38 velocity=86 time=73
 i : 3the msg is note_on channel=1 note=38 velocity=0 time=82
 i : 3the msg is note_on channel=1 note=38 velocity=127 time=156
 i : 3the msg is note_on channel=1 note=38 velocity=0 time=624
 i : 3the msg is note_on channel=1 note=38 velocity=117 time=95
 i : 3the msg is note_on channel=1 note=38 velocity=0 time=80
 i : 3the msg is note_on channel=1 note=38 velocity=127 time=153
 i : 3the msg is note_on channel=1 note=38 velocity=0 time=651
 i : 3the msg is note_on channel=1 note=38 velocity=111 time=66
 i : 3the msg is note_on channel=1 note=38 velocity=0 time=94
 i : 3the msg is note_on channel=1 note=38 velocity=127 time=136
 i : 3the msg is note_on channel=1 note=38 velocity=0 time=668
 i : 3the msg is note_on channel=1 note=38 velocity=113 time=80
 i : 3the msg is note_on channel=1 note=38 velocity=0 time=79
 i : 3the msg is note_on channel=1 note=38 velocity=127 time=159
 i : 3the msg is note_on channel=1 note=38 velocity=0 time=641
 i : 3the msg is note_on channel=1 note=38 velocity=96 time=66
 i : 3the msg is note_on channel=1 note=38 velocity=0 time=88
 i : 3the msg is note_on channel=1 note=38 velocity=127 time=160
 i : 3the msg is note_on channel=1 note=38 velocity=0 time=658
 i : 3the msg is note_on channel=1 note=38 velocity=103 time=52
 i : 3the msg is note_on channel=1 note=38 velocity=0 time=93
 i : 3the msg is note_on channel=1 note=38 velocity=127 time=139
 i : 3the msg is note_on channel=1 note=38 velocity=0 time=246
 i : 3the msg is note_on channel=1 note=50 velocity=127 time=4
 i : 3the msg is note_on channel=1 note=50 velocity=0 time=99
 i : 3the msg is note_on channel=1 note=48 velocity=127 time=129
 i : 3the msg is note_on channel=1 note=45 velocity=98 time=235
 i : 3the msg is note_on channel=1 note=48 velocity=0 time=25
 i : 3the msg is note_on channel=1 note=45 velocity=0 time=75
 i : 3the msg is note_on channel=1 note=43 velocity=127 time=151
 i : 3the msg is note_on channel=1 note=43 velocity=0 time=244
 i : 3the msg is note_on channel=1 note=41 velocity=86 time=5
 i : 3the msg is note_on channel=1 note=41 velocity=0 time=100
 i : 3the msg is note_on channel=1 note=40 velocity=117 time=147
 i : 3the msg is note_on channel=1 note=40 velocity=0 time=140
 i : 3the msg is note_on channel=1 note=38 velocity=127 time=90
 i : 3the msg is note_on channel=1 note=38 velocity=127 time=20
 i : 3the msg is note_on channel=1 note=38 velocity=0 time=752
 i : 3the msg is note_on channel=1 note=38 velocity=0 time=76
 i : 3the msg is note_on channel=1 note=38 velocity=120 time=114
 i : 3the msg is note_on channel=1 note=41 velocity=113 time=241
 i : 3the msg is note_on channel=1 note=38 velocity=0 time=7
 i : 3the msg is note_on channel=1 note=41 velocity=0 time=140
 i : 3the msg is note_on channel=1 note=38 velocity=123 time=310
 i : 3the msg is note_on channel=1 note=38 velocity=0 time=1354
 i : 3the msg is note_on channel=1 note=38 velocity=117 time=99
 i : 3the msg is note_on channel=1 note=41 velocity=91 time=255
 i : 3the msg is note_on channel=1 note=38 velocity=0 time=22
 i : 3the msg is note_on channel=1 note=41 velocity=0 time=87
 i : 3the msg is note_on channel=1 note=43 velocity=127 time=137
 i : 3the msg is note_on channel=1 note=43 velocity=0 time=94
 i : 3the msg is note_on channel=1 note=45 velocity=127 time=173
 i : 3the msg is note_on channel=1 note=45 velocity=0 time=815
 i : 3the msg is note_on channel=1 note=45 velocity=103 time=99
 i : 3the msg is note_on channel=1 note=45 velocity=0 time=89
 i : 3the msg is note_on channel=1 note=45 velocity=126 time=160
 i : 3the msg is note_on channel=1 note=44 velocity=82 time=222
 i : 3the msg is note_on channel=1 note=45 velocity=0 time=33
 i : 3the msg is note_on channel=1 note=44 velocity=0 time=51
 i : 3the msg is note_on channel=1 note=43 velocity=120 time=177
 i : 3the msg is note_on channel=1 note=43 velocity=0 time=1110
 i : 3the msg is note_on channel=1 note=43 velocity=85 time=95
 i : 3the msg is note_on channel=1 note=43 velocity=0 time=111
 i : 3the msg is note_on channel=1 note=43 velocity=91 time=136
 i : 3the msg is note_on channel=1 note=36 velocity=89 time=233
 i : 3the msg is note_on channel=1 note=43 velocity=0 time=69
 i : 3the msg is note_on channel=1 note=37 velocity=127 time=171
 i : 3the msg is note_on channel=1 note=36 velocity=0 time=21
 i : 3the msg is note_on channel=1 note=37 velocity=0 time=206
 i : 3the msg is note_on channel=1 note=38 velocity=127 time=7
 i : 3the msg is note_on channel=1 note=38 velocity=0 time=850
 i : 3the msg is note_on channel=1 note=38 velocity=127 time=110
 i : 3the msg is note_on channel=1 note=38 velocity=0 time=226
 i : 3the msg is note_on channel=1 note=41 velocity=127 time=16
 i : 3the msg is note_on channel=1 note=41 velocity=0 time=194
 i : 3the msg is note_on channel=1 note=38 velocity=127 time=279
 i : 3the msg is note_on channel=1 note=38 velocity=0 time=1108
 i : 3the msg is note_on channel=1 note=38 velocity=93 time=95
 i : 3the msg is note_on channel=1 note=38 velocity=0 time=80
 i : 3the msg is note_on channel=1 note=38 velocity=117 time=170
 i : 3the msg is note_on channel=1 note=41 velocity=108 time=255
 i : 3the msg is note_on channel=1 note=38 velocity=0 time=15
 i : 3the msg is note_on channel=1 note=41 velocity=0 time=219
 i : 3the msg is note_on channel=1 note=43 velocity=127 time=7
 i : 3the msg is note_on channel=1 note=43 velocity=0 time=226
 i : 3the msg is note_on channel=1 note=45 velocity=126 time=5
 i : 3the msg is note_on channel=1 note=45 velocity=0 time=858
 i : 3the msg is note_on channel=1 note=45 velocity=98 time=96
 i : 3the msg is note_on channel=1 note=45 velocity=0 time=97
 i : 3the msg is note_on channel=1 note=45 velocity=108 time=129
 i : 3the msg is note_on channel=1 note=45 velocity=0 time=174
 i : 3the msg is note_on channel=1 note=44 velocity=122 time=62
 i : 3the msg is note_on channel=1 note=44 velocity=0 time=96
 i : 3the msg is note_on channel=1 note=43 velocity=117 time=142
 i : 3the msg is note_on channel=1 note=43 velocity=0 time=1161
 i : 3the msg is note_on channel=1 note=43 velocity=83 time=64
 i : 3the msg is note_on channel=1 note=43 velocity=0 time=88
 i : 3the msg is note_on channel=1 note=43 velocity=127 time=152
 i : 3the msg is note_on channel=1 note=42 velocity=115 time=232
 i : 3the msg is note_on channel=1 note=43 velocity=0 time=26
 i : 3the msg is note_on channel=1 note=42 velocity=0 time=74
 i : 3the msg is note_on channel=1 note=43 velocity=127 time=136
 i : 3the msg is note_on channel=1 note=43 velocity=0 time=224
 i : 3the msg is note_on channel=1 note=45 velocity=117 time=6
 i : 3the msg is note_on channel=1 note=45 velocity=0 time=134
 i : 3the msg is note_on channel=1 note=47 velocity=127 time=110
 i : 3the msg is note_on channel=1 note=47 velocity=0 time=613
 i : 3the msg is note_on channel=1 note=47 velocity=113 time=120
 i : 3the msg is note_on channel=1 note=47 velocity=0 time=69
 i : 3the msg is note_on channel=1 note=47 velocity=127 time=161
 i : 3the msg is note_on channel=1 note=45 velocity=123 time=467
 i : 3the msg is note_on channel=1 note=47 velocity=0 time=4
 i : 3the msg is note_on channel=1 note=45 velocity=0 time=453
 i : 3the msg is note_on channel=1 note=43 velocity=126 time=19
 i : 3the msg is note_on channel=1 note=43 velocity=0 time=560
 i : 3the msg is note_on channel=1 note=43 velocity=108 time=168
 i : 3the msg is note_on channel=1 note=43 velocity=0 time=76
 i : 3the msg is note_on channel=1 note=43 velocity=113 time=168
 i : 3the msg is note_on channel=1 note=42 velocity=122 time=229
 i : 3the msg is note_on channel=1 note=43 velocity=0 time=19
 i : 3the msg is note_on channel=1 note=42 velocity=0 time=97
 i : 3the msg is note_on channel=1 note=43 velocity=113 time=121
 i : 3the msg is note_on channel=1 note=43 velocity=0 time=222
 i : 3the msg is note_on channel=1 note=45 velocity=126 time=19
 i : 3the msg is note_on channel=1 note=45 velocity=0 time=124
 i : 3the msg is note_on channel=1 note=47 velocity=127 time=115
 i : 3the msg is note_on channel=1 note=47 velocity=0 time=663
 i : 3the msg is note_on channel=1 note=47 velocity=77 time=60
 i : 3the msg is note_on channel=1 note=47 velocity=0 time=75
 i : 3the msg is note_on channel=1 note=47 velocity=103 time=179
 i : 3the msg is note_on channel=1 note=45 velocity=113 time=1
 i : 3the msg is note_on channel=1 note=45 velocity=0 time=140
 i : 3the msg is note_on channel=1 note=45 velocity=127 time=340
 i : 3the msg is note_on channel=1 note=47 velocity=0 time=33
 i : 3the msg is note_on channel=1 note=43 velocity=120 time=450
 i : 3the msg is note_on channel=1 note=45 velocity=0 time=5
 i : 3the msg is note_on channel=1 note=43 velocity=0 time=565
 i : 3the msg is note_on channel=1 note=43 velocity=60 time=151
 i : 3the msg is note_on channel=1 note=43 velocity=0 time=86
 i : 3the msg is note_on channel=1 note=43 velocity=126 time=127
 i : 3the msg is note_on channel=1 note=41 velocity=89 time=248
 i : 3the msg is note_on channel=1 note=43 velocity=0 time=39
 i : 3the msg is note_on channel=1 note=41 velocity=0 time=80
 i : 3the msg is note_on channel=1 note=40 velocity=103 time=123
 i : 3the msg is note_on channel=1 note=40 velocity=0 time=168
 i : 3the msg is note_on channel=1 note=38 velocity=127 time=87
 i : 3the msg is note_on channel=1 note=38 velocity=0 time=853
 i : 3the msg is note_on channel=1 note=38 velocity=117 time=115
 i : 3the msg is note_on channel=1 note=38 velocity=0 time=222
 i : 3the msg is note_on channel=1 note=41 velocity=127 time=14
 i : 3the msg is note_on channel=1 note=41 velocity=0 time=176
 i : 3the msg is note_on channel=1 note=38 velocity=127 time=287
 i : 3the msg is note_on channel=1 note=38 velocity=0 time=1151
 i : 3the msg is note_on channel=1 note=38 velocity=72 time=76
 i : 3the msg is note_on channel=1 note=38 velocity=0 time=50
 i : 3the msg is note_on channel=1 note=38 velocity=127 time=162
 i : 3the msg is note_on channel=1 note=40 velocity=117 time=247
 i : 3the msg is note_on channel=1 note=38 velocity=0 time=9
 i : 3the msg is note_on channel=1 note=40 velocity=0 time=106
 i : 3the msg is note_on channel=1 note=41 velocity=123 time=120
 i : 3the msg is note_on channel=1 note=41 velocity=0 time=134
 i : 3the msg is note_on channel=1 note=43 velocity=127 time=132
 i : 3the msg is note_on channel=1 note=43 velocity=0 time=847
 i : 3the msg is note_on channel=1 note=43 velocity=68 time=92
 i : 3the msg is note_on channel=1 note=43 velocity=0 time=73
 i : 3the msg is note_on channel=1 note=43 velocity=127 time=178
 i : 3the msg is note_on channel=1 note=43 velocity=0 time=198
 i : 3the msg is note_on channel=1 note=43 velocity=127 time=286
 i : 3the msg is note_on channel=1 note=43 velocity=0 time=1092
 i : 3the msg is note_on channel=1 note=43 velocity=86 time=110
 i : 3the msg is note_on channel=1 note=43 velocity=0 time=83
 i : 3the msg is note_on channel=1 note=43 velocity=111 time=145
 i : 3the msg is note_on channel=1 note=41 velocity=98 time=231
 i : 3the msg is note_on channel=1 note=43 velocity=0 time=37
 i : 3the msg is note_on channel=1 note=41 velocity=0 time=60
 i : 3the msg is note_on channel=1 note=40 velocity=108 time=146
 i : 3the msg is note_on channel=1 note=40 velocity=0 time=116
 i : 3the msg is note_on channel=1 note=38 velocity=127 time=130
 i : 3the msg is note_on channel=1 note=38 velocity=0 time=852
 i : 3the msg is note_on channel=1 note=38 velocity=117 time=114
 i : 3the msg is note_on channel=1 note=38 velocity=0 time=150
 i : 3the msg is note_on channel=1 note=41 velocity=127 time=64
 i : 3the msg is note_on channel=1 note=41 velocity=0 time=146
 i : 3the msg is note_on channel=1 note=38 velocity=127 time=342
 i : 3the msg is note_on channel=1 note=38 velocity=0 time=1115
 i : 3the msg is note_on channel=1 note=38 velocity=82 time=89
 i : 3the msg is note_on channel=1 note=38 velocity=0 time=73
 i : 3the msg is note_on channel=1 note=38 velocity=127 time=171
 i : 3the msg is note_on channel=1 note=38 velocity=0 time=243
 i : 3the msg is note_on channel=1 note=40 velocity=96 time=11
 i : 3the msg is note_on channel=1 note=40 velocity=0 time=93
 i : 3the msg is note_on channel=1 note=41 velocity=126 time=137
 i : 3the msg is note_on channel=1 note=41 velocity=0 time=121
 i : 3the msg is note_on channel=1 note=43 velocity=120 time=129
 i : 3the msg is note_on channel=1 note=43 velocity=0 time=807
 i : 3the msg is note_on channel=1 note=43 velocity=78 time=135
 i : 3the msg is note_on channel=1 note=43 velocity=0 time=76
 i : 3the msg is note_on channel=1 note=43 velocity=126 time=156
 i : 3the msg is note_on channel=1 note=43 velocity=0 time=154
 i : 3the msg is note_on channel=1 note=43 velocity=126 time=327
 i : 3the msg is note_on channel=1 note=43 velocity=0 time=1072
 i : 3the msg is note_on channel=1 note=43 velocity=60 time=146
 i : 3the msg is note_on channel=1 note=43 velocity=0 time=93
 i : 3the msg is note_on channel=1 note=43 velocity=100 time=163
 i : 3the msg is note_on channel=1 note=36 velocity=93 time=240
 i : 3the msg is note_on channel=1 note=43 velocity=0 time=52
 i : 3the msg is note_on channel=1 note=36 velocity=0 time=102
 i : 3the msg is note_on channel=1 note=37 velocity=127 time=73
 i : 3the msg is note_on channel=1 note=37 velocity=0 time=146
 i : 3the msg is note_on channel=1 note=38 velocity=127 time=104
 i : 3the msg is note_on channel=1 note=38 velocity=0 time=875
 i : 3the msg is note_on channel=1 note=38 velocity=98 time=53
 i : 3the msg is note_on channel=1 note=38 velocity=0 time=83
 i : 3the msg is note_on channel=1 note=38 velocity=127 time=165
 i : 3the msg is note_on channel=1 note=38 velocity=0 time=653
 i : 3the msg is note_on channel=1 note=38 velocity=111 time=75
 i : 3the msg is note_on channel=1 note=38 velocity=0 time=93
 i : 3the msg is note_on channel=1 note=38 velocity=127 time=161
 i : 3the msg is note_on channel=1 note=38 velocity=0 time=628
 i : 3the msg is note_on channel=1 note=38 velocity=108 time=74
 i : 3the msg is note_on channel=1 note=38 velocity=0 time=80
 i : 3the msg is note_on channel=1 note=38 velocity=127 time=161
 i : 3the msg is note_on channel=1 note=38 velocity=0 time=642
 i : 3the msg is note_on channel=1 note=38 velocity=111 time=76
 i : 3the msg is note_on channel=1 note=38 velocity=0 time=92
 i : 3the msg is note_on channel=1 note=38 velocity=127 time=161
 i : 3the msg is note_on channel=1 note=38 velocity=0 time=614
 i : 3the msg is note_on channel=1 note=38 velocity=113 time=85
 i : 3the msg is note_on channel=1 note=38 velocity=0 time=89
 i : 3the msg is note_on channel=1 note=38 velocity=127 time=142
 i : 3the msg is note_on channel=1 note=38 velocity=0 time=659
 i : 3the msg is note_on channel=1 note=38 velocity=93 time=100
 i : 3the msg is note_on channel=1 note=38 velocity=0 time=87
 i : 3the msg is note_on channel=1 note=38 velocity=127 time=157
 i : 3the msg is note_on channel=1 note=38 velocity=0 time=623
 i : 3the msg is note_on channel=1 note=38 velocity=106 time=58
 i : 3the msg is note_on channel=1 note=38 velocity=0 time=88
 i : 3the msg is note_on channel=1 note=38 velocity=127 time=150
 i : 3the msg is note_on channel=1 note=38 velocity=0 time=640
 i : 3the msg is note_on channel=1 note=38 velocity=106 time=100
 i : 3the msg is note_on channel=1 note=38 velocity=0 time=106
 i : 3the msg is note_on channel=1 note=38 velocity=127 time=145
 i : 3the msg is note_on channel=1 note=38 velocity=0 time=642
 i : 3the msg is note_on channel=1 note=38 velocity=86 time=73
 i : 3the msg is note_on channel=1 note=38 velocity=0 time=82
 i : 3the msg is note_on channel=1 note=38 velocity=127 time=156
 i : 3the msg is note_on channel=1 note=38 velocity=0 time=624
 i : 3the msg is note_on channel=1 note=38 velocity=117 time=95
 i : 3the msg is note_on channel=1 note=38 velocity=0 time=80
 i : 3the msg is note_on channel=1 note=38 velocity=127 time=153
 i : 3the msg is note_on channel=1 note=38 velocity=0 time=651
 i : 3the msg is note_on channel=1 note=38 velocity=111 time=66
 i : 3the msg is note_on channel=1 note=38 velocity=0 time=94
 i : 3the msg is note_on channel=1 note=38 velocity=127 time=136
 i : 3the msg is note_on channel=1 note=38 velocity=0 time=668
 i : 3the msg is note_on channel=1 note=38 velocity=113 time=80
 i : 3the msg is note_on channel=1 note=38 velocity=0 time=79
 i : 3the msg is note_on channel=1 note=38 velocity=127 time=159
 i : 3the msg is note_on channel=1 note=38 velocity=0 time=641
 i : 3the msg is note_on channel=1 note=38 velocity=96 time=66
 i : 3the msg is note_on channel=1 note=38 velocity=0 time=88
 i : 3the msg is note_on channel=1 note=38 velocity=127 time=160
 i : 3the msg is note_on channel=1 note=38 velocity=0 time=658
 i : 3the msg is note_on channel=1 note=38 velocity=103 time=52
 i : 3the msg is note_on channel=1 note=38 velocity=0 time=93
 i : 3the msg is note_on channel=1 note=38 velocity=127 time=139
 i : 3the msg is note_on channel=1 note=38 velocity=0 time=246
 i : 3the msg is note_on channel=1 note=50 velocity=127 time=4
 i : 3the msg is note_on channel=1 note=50 velocity=0 time=99
 i : 3the msg is note_on channel=1 note=48 velocity=127 time=129
 i : 3the msg is note_on channel=1 note=45 velocity=98 time=235
 i : 3the msg is note_on channel=1 note=48 velocity=0 time=25
 i : 3the msg is note_on channel=1 note=45 velocity=0 time=75
 i : 3the msg is note_on channel=1 note=43 velocity=127 time=151
 i : 3the msg is note_on channel=1 note=43 velocity=0 time=244
 i : 3the msg is note_on channel=1 note=41 velocity=86 time=5
 i : 3the msg is note_on channel=1 note=41 velocity=0 time=100
 i : 3the msg is note_on channel=1 note=40 velocity=117 time=147
 i : 3the msg is note_on channel=1 note=40 velocity=0 time=140
 i : 3the msg is note_on channel=1 note=38 velocity=127 time=110
 i : 3the msg is note_on channel=1 note=38 velocity=0 time=752
 i : 3the msg is note_on channel=1 note=38 velocity=98 time=176
 i : 3the msg is note_on channel=1 note=38 velocity=0 time=83
 i : 3the msg is note_on channel=1 note=38 velocity=127 time=165
 i : 3the msg is note_on channel=1 note=38 velocity=0 time=653
 i : 3the msg is note_on channel=1 note=38 velocity=111 time=75
 i : 3the msg is note_on channel=1 note=38 velocity=0 time=93
 i : 3the msg is note_on channel=1 note=38 velocity=127 time=161
 i : 3the msg is note_on channel=1 note=38 velocity=0 time=628
 i : 3the msg is note_on channel=1 note=38 velocity=108 time=74
 i : 3the msg is note_on channel=1 note=38 velocity=0 time=80
 i : 3the msg is note_on channel=1 note=38 velocity=127 time=161
 i : 3the msg is note_on channel=1 note=38 velocity=0 time=642
 i : 3the msg is note_on channel=1 note=38 velocity=111 time=76
 i : 3the msg is note_on channel=1 note=38 velocity=0 time=92
 i : 3the msg is note_on channel=1 note=38 velocity=127 time=161
 i : 3the msg is note_on channel=1 note=38 velocity=0 time=614
 i : 3the msg is note_on channel=1 note=38 velocity=113 time=85
 i : 3the msg is note_on channel=1 note=38 velocity=0 time=89
 i : 3the msg is note_on channel=1 note=38 velocity=127 time=142
 i : 3the msg is note_on channel=1 note=38 velocity=0 time=659
 i : 3the msg is note_on channel=1 note=38 velocity=93 time=100
 i : 3the msg is note_on channel=1 note=38 velocity=0 time=87
 i : 3the msg is note_on channel=1 note=38 velocity=127 time=157
 i : 3the msg is note_on channel=1 note=38 velocity=0 time=623
 i : 3the msg is note_on channel=1 note=38 velocity=106 time=58
 i : 3the msg is note_on channel=1 note=38 velocity=0 time=88
 i : 3the msg is note_on channel=1 note=38 velocity=127 time=150
 i : 3the msg is note_on channel=1 note=38 velocity=0 time=640
 i : 3the msg is note_on channel=1 note=38 velocity=106 time=100
 i : 3the msg is note_on channel=1 note=38 velocity=0 time=106
 i : 3the msg is note_on channel=1 note=38 velocity=100 time=142
 i : 3the msg is note_on channel=1 note=38 velocity=0 time=959
 i : 3the msg is <meta message end_of_track time=0>
 i : 4the msg is <meta message midi_port port=0 time=0>
 i : 4the msg is <meta message track_name name='Alto Sax*copied' time=0>
 i : 4the msg is program_change channel=2 program=65 time=0
 i : 4the msg is control_change channel=2 control=7 value=110 time=0
 i : 4the msg is control_change channel=2 control=10 value=20 time=0
 i : 4the msg is control_change channel=2 control=121 value=0 time=39
 i : 4the msg is control_change channel=2 control=91 value=100 time=1
 i : 4the msg is note_on channel=2 note=62 velocity=86 time=11008
 i : 4the msg is note_on channel=2 note=65 velocity=71 time=379
 i : 4the msg is note_on channel=2 note=69 velocity=89 time=47
 i : 4the msg is note_on channel=2 note=62 velocity=0 time=34
 i : 4the msg is note_on channel=2 note=74 velocity=123 time=12
 i : 4the msg is note_on channel=2 note=65 velocity=0 time=11
 i : 4the msg is note_on channel=2 note=69 velocity=0 time=41
 i : 4the msg is note_on channel=2 note=74 velocity=0 time=3281
 i : 4the msg is note_on channel=2 note=62 velocity=86 time=11555
 i : 4the msg is note_on channel=2 note=65 velocity=71 time=379
 i : 4the msg is note_on channel=2 note=69 velocity=89 time=47
 i : 4the msg is note_on channel=2 note=62 velocity=0 time=34
 i : 4the msg is note_on channel=2 note=74 velocity=123 time=12
 i : 4the msg is note_on channel=2 note=65 velocity=0 time=11
 i : 4the msg is note_on channel=2 note=69 velocity=0 time=41
 i : 4the msg is note_on channel=2 note=74 velocity=0 time=3281
 i : 4the msg is note_on channel=2 note=62 velocity=86 time=49955
 i : 4the msg is note_on channel=2 note=65 velocity=71 time=379
 i : 4the msg is note_on channel=2 note=69 velocity=89 time=47
 i : 4the msg is note_on channel=2 note=62 velocity=0 time=34
 i : 4the msg is note_on channel=2 note=74 velocity=123 time=12
 i : 4the msg is note_on channel=2 note=65 velocity=0 time=11
 i : 4the msg is note_on channel=2 note=69 velocity=0 time=41
 i : 4the msg is note_on channel=2 note=74 velocity=0 time=3281
 i : 4the msg is note_on channel=2 note=62 velocity=86 time=49955
 i : 4the msg is note_on channel=2 note=65 velocity=71 time=379
 i : 4the msg is note_on channel=2 note=69 velocity=89 time=47
 i : 4the msg is note_on channel=2 note=62 velocity=0 time=34
 i : 4the msg is note_on channel=2 note=74 velocity=123 time=12
 i : 4the msg is note_on channel=2 note=65 velocity=0 time=11
 i : 4the msg is note_on channel=2 note=69 velocity=0 time=41
 i : 4the msg is note_on channel=2 note=74 velocity=0 time=3281
 i : 4the msg is <meta message end_of_track time=0>
 i : 5the msg is <meta message midi_port port=0 time=0>
 i : 5the msg is <meta message track_name name='Alto Sax*copied' time=0>
 i : 5the msg is program_change channel=4 program=66 time=0
 i : 5the msg is control_change channel=4 control=7 value=110 time=0
 i : 5the msg is control_change channel=4 control=10 value=100 time=0
 i : 5the msg is control_change channel=4 control=121 value=0 time=35
 i : 5the msg is control_change channel=4 control=91 value=90 time=1
 i : 5the msg is note_on channel=4 note=50 velocity=86 time=11012
 i : 5the msg is note_on channel=4 note=53 velocity=71 time=379
 i : 5the msg is note_on channel=4 note=57 velocity=89 time=47
 i : 5the msg is note_on channel=4 note=50 velocity=0 time=34
 i : 5the msg is note_on channel=4 note=62 velocity=123 time=12
 i : 5the msg is note_on channel=4 note=53 velocity=0 time=11
 i : 5the msg is note_on channel=4 note=57 velocity=0 time=41
 i : 5the msg is note_on channel=4 note=62 velocity=0 time=3788
 i : 5the msg is note_on channel=4 note=50 velocity=86 time=11048
 i : 5the msg is note_on channel=4 note=53 velocity=71 time=379
 i : 5the msg is note_on channel=4 note=57 velocity=89 time=47
 i : 5the msg is note_on channel=4 note=50 velocity=0 time=34
 i : 5the msg is note_on channel=4 note=62 velocity=123 time=12
 i : 5the msg is note_on channel=4 note=53 velocity=0 time=11
 i : 5the msg is note_on channel=4 note=57 velocity=0 time=41
 i : 5the msg is note_on channel=4 note=62 velocity=0 time=3788
 i : 5the msg is note_on channel=4 note=50 velocity=86 time=49448
 i : 5the msg is note_on channel=4 note=53 velocity=71 time=379
 i : 5the msg is note_on channel=4 note=57 velocity=89 time=47
 i : 5the msg is note_on channel=4 note=50 velocity=0 time=34
 i : 5the msg is note_on channel=4 note=62 velocity=123 time=12
 i : 5the msg is note_on channel=4 note=53 velocity=0 time=11
 i : 5the msg is note_on channel=4 note=57 velocity=0 time=41
 i : 5the msg is note_on channel=4 note=62 velocity=0 time=3788
 i : 5the msg is note_on channel=4 note=50 velocity=86 time=49448
 i : 5the msg is note_on channel=4 note=53 velocity=71 time=379
 i : 5the msg is note_on channel=4 note=57 velocity=89 time=47
 i : 5the msg is note_on channel=4 note=50 velocity=0 time=34
 i : 5the msg is note_on channel=4 note=62 velocity=123 time=12
 i : 5the msg is note_on channel=4 note=53 velocity=0 time=11
 i : 5the msg is note_on channel=4 note=57 velocity=0 time=41
 i : 5the msg is note_on channel=4 note=62 velocity=0 time=3788
 i : 5the msg is <meta message end_of_track time=0>
 i : 6the msg is <meta message midi_port port=0 time=0>
 i : 6the msg is <meta message track_name name='Alto Sax*copied' time=0>
 i : 6the msg is program_change channel=5 program=61 time=0
 i : 6the msg is control_change channel=5 control=7 value=110 time=0
 i : 6the msg is control_change channel=5 control=10 value=64 time=0
 i : 6the msg is control_change channel=5 control=121 value=0 time=30
 i : 6the msg is control_change channel=5 control=91 value=100 time=1
 i : 6the msg is note_on channel=5 note=62 velocity=86 time=11017
 i : 6the msg is note_on channel=5 note=65 velocity=71 time=379
 i : 6the msg is note_on channel=5 note=69 velocity=89 time=47
 i : 6the msg is note_on channel=5 note=62 velocity=0 time=34
 i : 6the msg is note_on channel=5 note=74 velocity=123 time=12
 i : 6the msg is note_on channel=5 note=65 velocity=0 time=11
 i : 6the msg is note_on channel=5 note=69 velocity=0 time=41
 i : 6the msg is note_on channel=5 note=74 velocity=0 time=3788
 i : 6the msg is note_on channel=5 note=62 velocity=86 time=11048
 i : 6the msg is note_on channel=5 note=65 velocity=71 time=379
 i : 6the msg is note_on channel=5 note=69 velocity=89 time=47
 i : 6the msg is note_on channel=5 note=62 velocity=0 time=34
 i : 6the msg is note_on channel=5 note=74 velocity=123 time=12
 i : 6the msg is note_on channel=5 note=65 velocity=0 time=11
 i : 6the msg is note_on channel=5 note=69 velocity=0 time=41
 i : 6the msg is note_on channel=5 note=74 velocity=0 time=3788
 i : 6the msg is note_on channel=5 note=62 velocity=86 time=49448
 i : 6the msg is note_on channel=5 note=65 velocity=71 time=379
 i : 6the msg is note_on channel=5 note=69 velocity=89 time=47
 i : 6the msg is note_on channel=5 note=62 velocity=0 time=34
 i : 6the msg is note_on channel=5 note=74 velocity=123 time=12
 i : 6the msg is note_on channel=5 note=65 velocity=0 time=11
 i : 6the msg is note_on channel=5 note=69 velocity=0 time=41
 i : 6the msg is note_on channel=5 note=74 velocity=0 time=3788
 i : 6the msg is note_on channel=5 note=62 velocity=86 time=49448
 i : 6the msg is note_on channel=5 note=65 velocity=71 time=379
 i : 6the msg is note_on channel=5 note=69 velocity=89 time=47
 i : 6the msg is note_on channel=5 note=62 velocity=0 time=34
 i : 6the msg is note_on channel=5 note=74 velocity=123 time=12
 i : 6the msg is note_on channel=5 note=65 velocity=0 time=11
 i : 6the msg is note_on channel=5 note=69 velocity=0 time=41
 i : 6the msg is note_on channel=5 note=74 velocity=0 time=3788
 i : 6the msg is <meta message end_of_track time=0>
 i : 7the msg is <meta message midi_port port=0 time=0>
 i : 7the msg is <meta message track_name name='Guitar' time=0>
 i : 7the msg is program_change channel=6 program=29 time=0
 i : 7the msg is control_change channel=6 control=7 value=110 time=0
 i : 7the msg is control_change channel=6 control=10 value=45 time=0
 i : 7the msg is control_change channel=6 control=121 value=0 time=70
 i : 7the msg is control_change channel=6 control=91 value=120 time=1
 i : 7the msg is note_on channel=6 note=69 velocity=108 time=7375
 i : 7the msg is note_on channel=6 note=74 velocity=117 time=0
 i : 7the msg is note_on channel=6 note=65 velocity=108 time=4
 i : 7the msg is note_on channel=6 note=65 velocity=0 time=822
 i : 7the msg is note_on channel=6 note=74 velocity=0 time=9
 i : 7the msg is note_on channel=6 note=69 velocity=0 time=9
 i : 7the msg is note_on channel=6 note=69 velocity=64 time=127
 i : 7the msg is note_on channel=6 note=74 velocity=64 time=3
 i : 7the msg is note_on channel=6 note=65 velocity=51 time=4
 i : 7the msg is note_on channel=6 note=65 velocity=0 time=34
 i : 7the msg is note_on channel=6 note=69 velocity=0 time=6
 i : 7the msg is note_on channel=6 note=74 velocity=0 time=10
 i : 7the msg is note_on channel=6 note=77 velocity=117 time=187
 i : 7the msg is note_on channel=6 note=69 velocity=120 time=1
 i : 7the msg is note_on channel=6 note=72 velocity=123 time=1
 i : 7the msg is note_on channel=6 note=72 velocity=0 time=60
 i : 7the msg is note_on channel=6 note=69 velocity=0 time=14
 i : 7the msg is note_on channel=6 note=77 velocity=0 time=6
 i : 7the msg is note_on channel=6 note=74 velocity=98 time=378
 i : 7the msg is note_on channel=6 note=65 velocity=83 time=5
 i : 7the msg is note_on channel=6 note=69 velocity=98 time=0
 i : 7the msg is note_on channel=6 note=65 velocity=0 time=820
 i : 7the msg is note_on channel=6 note=74 velocity=0 time=10
 i : 7the msg is note_on channel=6 note=69 velocity=0 time=5
 i : 7the msg is note_on channel=6 note=69 velocity=63 time=120
 i : 7the msg is note_on channel=6 note=74 velocity=58 time=7
 i : 7the msg is note_on channel=6 note=65 velocity=47 time=5
 i : 7the msg is note_on channel=6 note=65 velocity=0 time=52
 i : 7the msg is note_on channel=6 note=69 velocity=0 time=2
 i : 7the msg is note_on channel=6 note=74 velocity=0 time=2
 i : 7the msg is note_on channel=6 note=69 velocity=59 time=181
 i : 7the msg is note_on channel=6 note=74 velocity=67 time=4
 i : 7the msg is note_on channel=6 note=69 velocity=0 time=51
 i : 7the msg is note_on channel=6 note=74 velocity=0 time=11
 i : 7the msg is note_on channel=6 note=77 velocity=103 time=165
 i : 7the msg is note_on channel=6 note=72 velocity=111 time=4
 i : 7the msg is note_on channel=6 note=69 velocity=113 time=2
 i : 7the msg is note_on channel=6 note=72 velocity=0 time=61
 i : 7the msg is note_on channel=6 note=69 velocity=0 time=10
 i : 7the msg is note_on channel=6 note=77 velocity=0 time=7
 i : 7the msg is note_on channel=6 note=71 velocity=127 time=167
 i : 7the msg is note_on channel=6 note=74 velocity=120 time=2
 i : 7the msg is note_on channel=6 note=67 velocity=103 time=1
 i : 7the msg is note_on channel=6 note=74 velocity=0 time=302
 i : 7the msg is note_on channel=6 note=67 velocity=0 time=27
 i : 7the msg is note_on channel=6 note=71 velocity=0 time=11
 i : 7the msg is note_on channel=6 note=65 velocity=86 time=135
 i : 7the msg is note_on channel=6 note=72 velocity=100 time=0
 i : 7the msg is note_on channel=6 note=69 velocity=106 time=1
 i : 7the msg is note_on channel=6 note=72 velocity=0 time=137
 i : 7the msg is note_on channel=6 note=74 velocity=80 time=80
 i : 7the msg is note_on channel=6 note=74 velocity=0 time=560
 i : 7the msg is note_on channel=6 note=65 velocity=0 time=2
 i : 7the msg is note_on channel=6 note=69 velocity=0 time=9
 i : 7the msg is note_on channel=6 note=69 velocity=64 time=164
 i : 7the msg is note_on channel=6 note=74 velocity=68 time=2
 i : 7the msg is note_on channel=6 note=69 velocity=0 time=40
 i : 7the msg is note_on channel=6 note=74 velocity=0 time=11
 i : 7the msg is note_on channel=6 note=74 velocity=126 time=183
 i : 7the msg is note_on channel=6 note=77 velocity=106 time=1
 i : 7the msg is note_on channel=6 note=69 velocity=108 time=1
 i : 7the msg is note_on channel=6 note=74 velocity=0 time=58
 i : 7the msg is note_on channel=6 note=77 velocity=0 time=10
 i : 7the msg is note_on channel=6 note=69 velocity=0 time=2
 i : 7the msg is note_on channel=6 note=74 velocity=80 time=408
 i : 7the msg is note_on channel=6 note=69 velocity=91 time=2
 i : 7the msg is note_on channel=6 note=65 velocity=83 time=4
 i : 7the msg is note_on channel=6 note=65 velocity=0 time=728
 i : 7the msg is note_on channel=6 note=74 velocity=0 time=22
 i : 7the msg is note_on channel=6 note=69 velocity=0 time=14
 i : 7the msg is note_on channel=6 note=69 velocity=73 time=177
 i : 7the msg is note_on channel=6 note=74 velocity=62 time=9
 i : 7the msg is note_on channel=6 note=65 velocity=51 time=4
 i : 7the msg is note_on channel=6 note=65 velocity=0 time=36
 i : 7the msg is note_on channel=6 note=74 velocity=0 time=0
 i : 7the msg is note_on channel=6 note=69 velocity=0 time=5
 i : 7the msg is note_on channel=6 note=69 velocity=73 time=187
 i : 7the msg is note_on channel=6 note=74 velocity=63 time=4
 i : 7the msg is note_on channel=6 note=65 velocity=54 time=5
 i : 7the msg is note_on channel=6 note=65 velocity=0 time=32
 i : 7the msg is note_on channel=6 note=69 velocity=0 time=7
 i : 7the msg is note_on channel=6 note=74 velocity=0 time=3
 i : 7the msg is note_on channel=6 note=69 velocity=117 time=174
 i : 7the msg is note_on channel=6 note=77 velocity=111 time=1
 i : 7the msg is note_on channel=6 note=72 velocity=123 time=1
 i : 7the msg is note_on channel=6 note=74 velocity=103 time=21
 i : 7the msg is note_on channel=6 note=74 velocity=0 time=10
 i : 7the msg is note_on channel=6 note=72 velocity=0 time=31
 i : 7the msg is note_on channel=6 note=69 velocity=0 time=13
 i : 7the msg is note_on channel=6 note=77 velocity=0 time=9
 i : 7the msg is note_on channel=6 note=76 velocity=103 time=158
 i : 7the msg is note_on channel=6 note=71 velocity=117 time=4
 i : 7the msg is note_on channel=6 note=67 velocity=106 time=1
 i : 7the msg is note_on channel=6 note=76 velocity=0 time=340
 i : 7the msg is note_on channel=6 note=71 velocity=0 time=19
 i : 7the msg is note_on channel=6 note=67 velocity=0 time=1
 i : 7the msg is note_on channel=6 note=69 velocity=100 time=149
 i : 7the msg is note_on channel=6 note=74 velocity=91 time=1
 i : 7the msg is note_on channel=6 note=65 velocity=96 time=3
 i : 7the msg is note_on channel=6 note=65 velocity=0 time=799
 i : 7the msg is note_on channel=6 note=74 velocity=0 time=7
 i : 7the msg is note_on channel=6 note=69 velocity=0 time=4
 i : 7the msg is note_on channel=6 note=69 velocity=72 time=136
 i : 7the msg is note_on channel=6 note=65 velocity=73 time=2
 i : 7the msg is note_on channel=6 note=74 velocity=51 time=8
 i : 7the msg is note_on channel=6 note=65 velocity=0 time=41
 i : 7the msg is note_on channel=6 note=69 velocity=0 time=0
 i : 7the msg is note_on channel=6 note=74 velocity=0 time=5
 i : 7the msg is note_on channel=6 note=69 velocity=120 time=185
 i : 7the msg is note_on channel=6 note=77 velocity=123 time=0
 i : 7the msg is note_on channel=6 note=72 velocity=126 time=1
 i : 7the msg is note_on channel=6 note=72 velocity=0 time=53
 i : 7the msg is note_on channel=6 note=69 velocity=0 time=13
 i : 7the msg is note_on channel=6 note=77 velocity=0 time=14
 i : 7the msg is note_on channel=6 note=74 velocity=91 time=399
 i : 7the msg is note_on channel=6 note=65 velocity=82 time=3
 i : 7the msg is note_on channel=6 note=69 velocity=72 time=1
 i : 7the msg is note_on channel=6 note=65 velocity=0 time=797
 i : 7the msg is note_on channel=6 note=74 velocity=0 time=9
 i : 7the msg is note_on channel=6 note=69 velocity=0 time=3
 i : 7the msg is note_on channel=6 note=69 velocity=73 time=153
 i : 7the msg is note_on channel=6 note=65 velocity=62 time=5
 i : 7the msg is note_on channel=6 note=74 velocity=66 time=3
 i : 7the msg is note_on channel=6 note=74 velocity=0 time=43
 i : 7the msg is note_on channel=6 note=69 velocity=0 time=6
 i : 7the msg is note_on channel=6 note=65 velocity=0 time=8
 i : 7the msg is note_on channel=6 note=65 velocity=57 time=173
 i : 7the msg is note_on channel=6 note=74 velocity=68 time=2
 i : 7the msg is note_on channel=6 note=69 velocity=60 time=3
 i : 7the msg is note_on channel=6 note=69 velocity=0 time=41
 i : 7the msg is note_on channel=6 note=65 velocity=0 time=0
 i : 7the msg is note_on channel=6 note=74 velocity=0 time=8
 i : 7the msg is note_on channel=6 note=72 velocity=127 time=177
 i : 7the msg is note_on channel=6 note=77 velocity=111 time=0
 i : 7the msg is note_on channel=6 note=69 velocity=120 time=2
 i : 7the msg is note_on channel=6 note=72 velocity=0 time=59
 i : 7the msg is note_on channel=6 note=69 velocity=0 time=11
 i : 7the msg is note_on channel=6 note=77 velocity=0 time=12
 i : 7the msg is note_on channel=6 note=76 velocity=113 time=163
 i : 7the msg is note_on channel=6 note=67 velocity=123 time=2
 i : 7the msg is note_on channel=6 note=71 velocity=127 time=0
 i : 7the msg is note_on channel=6 note=76 velocity=0 time=333
 i : 7the msg is note_on channel=6 note=71 velocity=0 time=5
 i : 7the msg is note_on channel=6 note=67 velocity=0 time=6
 i : 7the msg is note_on channel=6 note=69 velocity=113 time=146
 i : 7the msg is note_on channel=6 note=74 velocity=100 time=2
 i : 7the msg is note_on channel=6 note=65 velocity=100 time=1
 i : 7the msg is note_on channel=6 note=65 velocity=0 time=782
 i : 7the msg is note_on channel=6 note=74 velocity=0 time=1
 i : 7the msg is note_on channel=6 note=69 velocity=0 time=9
 i : 7the msg is note_on channel=6 note=69 velocity=70 time=147
 i : 7the msg is note_on channel=6 note=74 velocity=68 time=0
 i : 7the msg is note_on channel=6 note=65 velocity=71 time=4
 i : 7the msg is note_on channel=6 note=69 velocity=0 time=47
 i : 7the msg is note_on channel=6 note=65 velocity=0 time=2
 i : 7the msg is note_on channel=6 note=74 velocity=0 time=5
 i : 7the msg is note_on channel=6 note=77 velocity=123 time=202
 i : 7the msg is note_on channel=6 note=69 velocity=126 time=1
 i : 7the msg is note_on channel=6 note=72 velocity=127 time=1
 i : 7the msg is note_on channel=6 note=74 velocity=127 time=15
 i : 7the msg is note_on channel=6 note=74 velocity=0 time=11
 i : 7the msg is note_on channel=6 note=72 velocity=0 time=21
 i : 7the msg is note_on channel=6 note=69 velocity=0 time=10
 i : 7the msg is note_on channel=6 note=77 velocity=0 time=6
 i : 7the msg is note_on channel=6 note=65 velocity=77 time=423
 i : 7the msg is note_on channel=6 note=74 velocity=93 time=1
 i : 7the msg is note_on channel=6 note=69 velocity=85 time=3
 i : 7the msg is note_on channel=6 note=65 velocity=0 time=797
 i : 7the msg is note_on channel=6 note=74 velocity=0 time=2
 i : 7the msg is note_on channel=6 note=69 velocity=0 time=11
 i : 7the msg is note_on channel=6 note=74 velocity=70 time=125
 i : 7the msg is note_on channel=6 note=69 velocity=61 time=1
 i : 7the msg is note_on channel=6 note=65 velocity=58 time=1
 i : 7the msg is note_on channel=6 note=69 velocity=0 time=54
 i : 7the msg is note_on channel=6 note=65 velocity=0 time=5
 i : 7the msg is note_on channel=6 note=74 velocity=0 time=0
 i : 7the msg is note_on channel=6 note=69 velocity=72 time=184
 i : 7the msg is note_on channel=6 note=65 velocity=64 time=2
 i : 7the msg is note_on channel=6 note=74 velocity=62 time=5
 i : 7the msg is note_on channel=6 note=65 velocity=0 time=38
 i : 7the msg is note_on channel=6 note=69 velocity=0 time=0
 i : 7the msg is note_on channel=6 note=74 velocity=0 time=5
 i : 7the msg is note_on channel=6 note=69 velocity=117 time=187
 i : 7the msg is note_on channel=6 note=77 velocity=108 time=2
 i : 7the msg is note_on channel=6 note=72 velocity=127 time=1
 i : 7the msg is note_on channel=6 note=72 velocity=0 time=55
 i : 7the msg is note_on channel=6 note=69 velocity=0 time=12
 i : 7the msg is note_on channel=6 note=77 velocity=0 time=2
 i : 7the msg is note_on channel=6 note=76 velocity=98 time=182
 i : 7the msg is note_on channel=6 note=71 velocity=126 time=2
 i : 7the msg is note_on channel=6 note=67 velocity=113 time=2
 i : 7the msg is note_on channel=6 note=76 velocity=0 time=294
 i : 7the msg is note_on channel=6 note=67 velocity=0 time=8
 i : 7the msg is note_on channel=6 note=71 velocity=0 time=6
 i : 7the msg is note_on channel=6 note=69 velocity=111 time=151
 i : 7the msg is note_on channel=6 note=65 velocity=96 time=4
 i : 7the msg is note_on channel=6 note=74 velocity=98 time=1
 i : 7the msg is note_on channel=6 note=65 velocity=0 time=786
 i : 7the msg is note_on channel=6 note=74 velocity=0 time=22
 i : 7the msg is note_on channel=6 note=69 velocity=0 time=4
 i : 7the msg is note_on channel=6 note=69 velocity=86 time=151
 i : 7the msg is note_on channel=6 note=74 velocity=75 time=3
 i : 7the msg is note_on channel=6 note=65 velocity=66 time=6
 i : 7the msg is note_on channel=6 note=65 velocity=0 time=37
 i : 7the msg is note_on channel=6 note=69 velocity=0 time=4
 i : 7the msg is note_on channel=6 note=74 velocity=0 time=14
 i : 7the msg is note_on channel=6 note=69 velocity=120 time=188
 i : 7the msg is note_on channel=6 note=77 velocity=111 time=0
 i : 7the msg is note_on channel=6 note=72 velocity=123 time=2
 i : 7the msg is note_on channel=6 note=74 velocity=103 time=18
 i : 7the msg is note_on channel=6 note=74 velocity=0 time=12
 i : 7the msg is note_on channel=6 note=72 velocity=0 time=26
 i : 7the msg is note_on channel=6 note=69 velocity=0 time=15
 i : 7the msg is note_on channel=6 note=77 velocity=0 time=9
 i : 7the msg is note_on channel=6 note=74 velocity=93 time=398
 i : 7the msg is note_on channel=6 note=69 velocity=86 time=4
 i : 7the msg is note_on channel=6 note=65 velocity=73 time=2
 i : 7the msg is note_on channel=6 note=65 velocity=0 time=798
 i : 7the msg is note_on channel=6 note=74 velocity=0 time=9
 i : 7the msg is note_on channel=6 note=69 velocity=0 time=1
 i : 7the msg is note_on channel=6 note=69 velocity=85 time=123
 i : 7the msg is note_on channel=6 note=74 velocity=75 time=1
 i : 7the msg is note_on channel=6 note=65 velocity=64 time=1
 i : 7the msg is note_on channel=6 note=69 velocity=0 time=58
 i : 7the msg is note_on channel=6 note=74 velocity=0 time=2
 i : 7the msg is note_on channel=6 note=65 velocity=0 time=3
 i : 7the msg is note_on channel=6 note=69 velocity=62 time=174
 i : 7the msg is note_on channel=6 note=74 velocity=63 time=1
 i : 7the msg is note_on channel=6 note=65 velocity=33 time=11
 i : 7the msg is note_on channel=6 note=65 velocity=0 time=29
 i : 7the msg is note_on channel=6 note=69 velocity=0 time=3
 i : 7the msg is note_on channel=6 note=74 velocity=0 time=8
 i : 7the msg is note_on channel=6 note=69 velocity=111 time=190
 i : 7the msg is note_on channel=6 note=77 velocity=108 time=0
 i : 7the msg is note_on channel=6 note=72 velocity=111 time=2
 i : 7the msg is note_on channel=6 note=72 velocity=0 time=58
 i : 7the msg is note_on channel=6 note=69 velocity=0 time=12
 i : 7the msg is note_on channel=6 note=77 velocity=0 time=5
 i : 7the msg is note_on channel=6 note=76 velocity=100 time=178
 i : 7the msg is note_on channel=6 note=71 velocity=120 time=4
 i : 7the msg is note_on channel=6 note=67 velocity=103 time=4
 i : 7the msg is note_on channel=6 note=76 velocity=0 time=275
 i : 7the msg is note_on channel=6 note=71 velocity=0 time=26
 i : 7the msg is note_on channel=6 note=67 velocity=0 time=10
 i : 7the msg is note_on channel=6 note=74 velocity=93 time=141
 i : 7the msg is note_on channel=6 note=69 velocity=111 time=1
 i : 7the msg is note_on channel=6 note=65 velocity=86 time=4
 i : 7the msg is note_on channel=6 note=65 velocity=0 time=805
 i : 7the msg is note_on channel=6 note=74 velocity=0 time=1
 i : 7the msg is note_on channel=6 note=69 velocity=0 time=4
 i : 7the msg is note_on channel=6 note=69 velocity=70 time=149
 i : 7the msg is note_on channel=6 note=74 velocity=52 time=3
 i : 7the msg is note_on channel=6 note=65 velocity=66 time=1
 i : 7the msg is note_on channel=6 note=65 velocity=0 time=37
 i : 7the msg is note_on channel=6 note=69 velocity=0 time=6
 i : 7the msg is note_on channel=6 note=74 velocity=0 time=15
 i : 7the msg is note_on channel=6 note=72 velocity=127 time=194
 i : 7the msg is note_on channel=6 note=69 velocity=123 time=1
 i : 7the msg is note_on channel=6 note=77 velocity=113 time=1
 i : 7the msg is note_on channel=6 note=74 velocity=82 time=20
 i : 7the msg is note_on channel=6 note=74 velocity=0 time=10
 i : 7the msg is note_on channel=6 note=72 velocity=0 time=29
 i : 7the msg is note_on channel=6 note=69 velocity=0 time=12
 i : 7the msg is note_on channel=6 note=77 velocity=0 time=1
 i : 7the msg is note_on channel=6 note=74 velocity=89 time=404
 i : 7the msg is note_on channel=6 note=65 velocity=70 time=4
 i : 7the msg is note_on channel=6 note=69 velocity=73 time=2
 i : 7the msg is note_on channel=6 note=74 velocity=0 time=769
 i : 7the msg is note_on channel=6 note=65 velocity=0 time=5
 i : 7the msg is note_on channel=6 note=69 velocity=0 time=6
 i : 7the msg is note_on channel=6 note=69 velocity=98 time=152
 i : 7the msg is note_on channel=6 note=65 velocity=77 time=1
 i : 7the msg is note_on channel=6 note=74 velocity=83 time=7
 i : 7the msg is note_on channel=6 note=74 velocity=0 time=55
 i : 7the msg is note_on channel=6 note=69 velocity=0 time=6
 i : 7the msg is note_on channel=6 note=65 velocity=0 time=6
 i : 7the msg is note_on channel=6 note=69 velocity=91 time=161
 i : 7the msg is note_on channel=6 note=74 velocity=83 time=0
 i : 7the msg is note_on channel=6 note=65 velocity=77 time=2
 i : 7the msg is note_on channel=6 note=69 velocity=0 time=58
 i : 7the msg is note_on channel=6 note=65 velocity=0 time=2
 i : 7the msg is note_on channel=6 note=74 velocity=0 time=8
 i : 7the msg is note_on channel=6 note=69 velocity=117 time=174
 i : 7the msg is note_on channel=6 note=77 velocity=103 time=0
 i : 7the msg is note_on channel=6 note=72 velocity=123 time=2
 i : 7the msg is note_on channel=6 note=72 velocity=0 time=64
 i : 7the msg is note_on channel=6 note=69 velocity=0 time=12
 i : 7the msg is note_on channel=6 note=77 velocity=0 time=28
 i : 7the msg is note_on channel=6 note=76 velocity=98 time=133
 i : 7the msg is note_on channel=6 note=71 velocity=113 time=5
 i : 7the msg is note_on channel=6 note=67 velocity=93 time=3
 i : 7the msg is note_on channel=6 note=76 velocity=0 time=290
 i : 7the msg is note_on channel=6 note=67 velocity=0 time=24
 i : 7the msg is note_on channel=6 note=71 velocity=0 time=1
 i : 7the msg is note_on channel=6 note=74 velocity=103 time=139
 i : 7the msg is note_on channel=6 note=69 velocity=108 time=1
 i : 7the msg is note_on channel=6 note=65 velocity=100 time=1
 i : 7the msg is note_on channel=6 note=69 velocity=0 time=1188
 i : 7the msg is note_on channel=6 note=65 velocity=0 time=22
 i : 7the msg is note_on channel=6 note=74 velocity=0 time=2386
 i : 7the msg is note_on channel=6 note=77 velocity=106 time=19472
 i : 7the msg is note_on channel=6 note=74 velocity=127 time=2
 i : 7the msg is note_on channel=6 note=69 velocity=96 time=5
 i : 7the msg is note_on channel=6 note=77 velocity=0 time=753
 i : 7the msg is note_on channel=6 note=69 velocity=0 time=1
 i : 7the msg is note_on channel=6 note=74 velocity=0 time=28
 i : 7the msg is note_on channel=6 note=74 velocity=78 time=157
 i : 7the msg is note_on channel=6 note=69 velocity=58 time=7
 i : 7the msg is note_on channel=6 note=77 velocity=53 time=5
 i : 7the msg is note_on channel=6 note=69 velocity=0 time=40
 i : 7the msg is note_on channel=6 note=77 velocity=0 time=7
 i : 7the msg is note_on channel=6 note=74 velocity=0 time=1
 i : 7the msg is note_on channel=6 note=81 velocity=117 time=199
 i : 7the msg is note_on channel=6 note=72 velocity=117 time=1
 i : 7the msg is note_on channel=6 note=77 velocity=127 time=1
 i : 7the msg is note_on channel=6 note=77 velocity=0 time=61
 i : 7the msg is note_on channel=6 note=72 velocity=0 time=8
 i : 7the msg is note_on channel=6 note=81 velocity=0 time=6
 i : 7the msg is note_on channel=6 note=77 velocity=89 time=394
 i : 7the msg is note_on channel=6 note=74 velocity=117 time=4
 i : 7the msg is note_on channel=6 note=69 velocity=80 time=1
 i : 7the msg is note_on channel=6 note=69 velocity=0 time=1944
 i : 7the msg is note_on channel=6 note=74 velocity=0 time=32
 i : 7the msg is note_on channel=6 note=77 velocity=0 time=939
 i : 7the msg is note_on channel=6 note=67 velocity=62 time=219
 i : 7the msg is note_on channel=6 note=71 velocity=67 time=2
 i : 7the msg is note_on channel=6 note=74 velocity=63 time=4
 i : 7the msg is note_on channel=6 note=74 velocity=0 time=32
 i : 7the msg is note_on channel=6 note=71 velocity=0 time=0
 i : 7the msg is note_on channel=6 note=67 velocity=0 time=8
 i : 7the msg is note_on channel=6 note=71 velocity=120 time=172
 i : 7the msg is note_on channel=6 note=74 velocity=127 time=2
 i : 7the msg is note_on channel=6 note=67 velocity=103 time=2
 i : 7the msg is note_on channel=6 note=74 velocity=0 time=50
 i : 7the msg is note_on channel=6 note=71 velocity=0 time=5
 i : 7the msg is note_on channel=6 note=67 velocity=0 time=12
 i : 7the msg is note_on channel=6 note=74 velocity=117 time=425
 i : 7the msg is note_on channel=6 note=71 velocity=113 time=1
 i : 7the msg is note_on channel=6 note=67 velocity=80 time=1
 i : 7the msg is note_on channel=6 note=74 velocity=0 time=1853
 i : 7the msg is note_on channel=6 note=67 velocity=0 time=31
 i : 7the msg is note_on channel=6 note=71 velocity=0 time=39
 i : 7the msg is note_on channel=6 note=77 velocity=93 time=221
 i : 7the msg is note_on channel=6 note=74 velocity=108 time=7
 i : 7the msg is note_on channel=6 note=69 velocity=85 time=3
 i : 7the msg is note_on channel=6 note=69 velocity=0 time=775
 i : 7the msg is note_on channel=6 note=77 velocity=0 time=3
 i : 7the msg is note_on channel=6 note=74 velocity=0 time=22
 i : 7the msg is note_on channel=6 note=77 velocity=57 time=138
 i : 7the msg is note_on channel=6 note=69 velocity=60 time=10
 i : 7the msg is note_on channel=6 note=74 velocity=64 time=1
 i : 7the msg is note_on channel=6 note=74 velocity=0 time=51
 i : 7the msg is note_on channel=6 note=69 velocity=0 time=1
 i : 7the msg is note_on channel=6 note=77 velocity=0 time=9
 i : 7the msg is note_on channel=6 note=81 velocity=111 time=187
 i : 7the msg is note_on channel=6 note=77 velocity=127 time=1
 i : 7the msg is note_on channel=6 note=72 velocity=117 time=3
 i : 7the msg is note_on channel=6 note=77 velocity=0 time=62
 i : 7the msg is note_on channel=6 note=72 velocity=0 time=2
 i : 7the msg is note_on channel=6 note=81 velocity=0 time=14
 i : 7the msg is note_on channel=6 note=77 velocity=75 time=402
 i : 7the msg is note_on channel=6 note=74 velocity=96 time=5
 i : 7the msg is note_on channel=6 note=69 velocity=66 time=4
 i : 7the msg is note_on channel=6 note=74 velocity=0 time=1930
 i : 7the msg is note_on channel=6 note=69 velocity=0 time=4
 i : 7the msg is note_on channel=6 note=77 velocity=0 time=190
 i : 7the msg is note_on channel=6 note=74 velocity=106 time=13
 i : 7the msg is note_on channel=6 note=71 velocity=93 time=6
 i : 7the msg is note_on channel=6 note=67 velocity=80 time=10
 i : 7the msg is note_on channel=6 note=71 velocity=0 time=735
 i : 7the msg is note_on channel=6 note=67 velocity=0 time=12
 i : 7the msg is note_on channel=6 note=74 velocity=0 time=4
 i : 7the msg is note_on channel=6 note=74 velocity=73 time=188
 i : 7the msg is note_on channel=6 note=71 velocity=53 time=6
 i : 7the msg is note_on channel=6 note=67 velocity=28 time=24
 i : 7the msg is note_on channel=6 note=71 velocity=0 time=16
 i : 7the msg is note_on channel=6 note=74 velocity=0 time=7
 i : 7the msg is note_on channel=6 note=67 velocity=0 time=1
 i : 7the msg is note_on channel=6 note=71 velocity=113 time=191
 i : 7the msg is note_on channel=6 note=74 velocity=120 time=2
 i : 7the msg is note_on channel=6 note=67 velocity=80 time=2
 i : 7the msg is note_on channel=6 note=74 velocity=0 time=50
 i : 7the msg is note_on channel=6 note=71 velocity=0 time=4
 i : 7the msg is note_on channel=6 note=67 velocity=0 time=8
 i : 7the msg is note_on channel=6 note=71 velocity=58 time=421
 i : 7the msg is note_on channel=6 note=74 velocity=61 time=3
 i : 7the msg is note_on channel=6 note=67 velocity=48 time=2
 i : 7the msg is note_on channel=6 note=67 velocity=0 time=1314
 i : 7the msg is note_on channel=6 note=71 velocity=0 time=425
 i : 7the msg is note_on channel=6 note=74 velocity=0 time=11
 i : 7the msg is note_on channel=6 note=77 velocity=77 time=383
 i : 7the msg is note_on channel=6 note=74 velocity=108 time=3
 i : 7the msg is note_on channel=6 note=69 velocity=73 time=1
 i : 7the msg is note_on channel=6 note=69 velocity=0 time=821
 i : 7the msg is note_on channel=6 note=77 velocity=0 time=15
 i : 7the msg is note_on channel=6 note=74 velocity=0 time=14
 i : 7the msg is note_on channel=6 note=74 velocity=70 time=124
 i : 7the msg is note_on channel=6 note=77 velocity=68 time=1
 i : 7the msg is note_on channel=6 note=69 velocity=60 time=1
 i : 7the msg is note_on channel=6 note=69 velocity=0 time=58
 i : 7the msg is note_on channel=6 note=74 velocity=0 time=0
 i : 7the msg is note_on channel=6 note=77 velocity=0 time=20
 i : 7the msg is note_on channel=6 note=77 velocity=127 time=157
 i : 7the msg is note_on channel=6 note=81 velocity=113 time=1
 i : 7the msg is note_on channel=6 note=72 velocity=111 time=1
 i : 7the msg is note_on channel=6 note=77 velocity=0 time=60
 i : 7the msg is note_on channel=6 note=72 velocity=0 time=10
 i : 7the msg is note_on channel=6 note=81 velocity=0 time=9
 i : 7the msg is note_on channel=6 note=77 velocity=67 time=388
 i : 7the msg is note_on channel=6 note=74 velocity=85 time=2
 i : 7the msg is note_on channel=6 note=69 velocity=62 time=6
 i : 7the msg is note_on channel=6 note=69 velocity=0 time=878
 i : 7the msg is note_on channel=6 note=77 velocity=0 time=8
 i : 7the msg is note_on channel=6 note=74 velocity=0 time=20
 i : 7the msg is note_on channel=6 note=74 velocity=63 time=84
 i : 7the msg is note_on channel=6 note=77 velocity=41 time=13
 i : 7the msg is note_on channel=6 note=69 velocity=43 time=3
 i : 7the msg is note_on channel=6 note=69 velocity=0 time=43
 i : 7the msg is note_on channel=6 note=74 velocity=0 time=8
 i : 7the msg is note_on channel=6 note=77 velocity=0 time=4
 i : 7the msg is note_on channel=6 note=74 velocity=62 time=142
 i : 7the msg is note_on channel=6 note=69 velocity=47 time=2
 i : 7the msg is note_on channel=6 note=77 velocity=51 time=4
 i : 7the msg is note_on channel=6 note=69 velocity=0 time=50
 i : 7the msg is note_on channel=6 note=74 velocity=0 time=4
 i : 7the msg is note_on channel=6 note=77 velocity=0 time=11
 i : 7the msg is note_on channel=6 note=77 velocity=123 time=154
 i : 7the msg is note_on channel=6 note=72 velocity=108 time=1
 i : 7the msg is note_on channel=6 note=81 velocity=111 time=3
 i : 7the msg is note_on channel=6 note=77 velocity=0 time=68
 i : 7the msg is note_on channel=6 note=72 velocity=0 time=1
 i : 7the msg is note_on channel=6 note=81 velocity=0 time=10
 i : 7the msg is note_on channel=6 note=76 velocity=113 time=167
 i : 7the msg is note_on channel=6 note=79 velocity=96 time=1
 i : 7the msg is note_on channel=6 note=71 velocity=103 time=4
 i : 7the msg is note_on channel=6 note=79 velocity=0 time=332
 i : 7the msg is note_on channel=6 note=76 velocity=0 time=34
 i : 7the msg is note_on channel=6 note=71 velocity=0 time=1
 i : 7the msg is note_on channel=6 note=74 velocity=96 time=127
 i : 7the msg is note_on channel=6 note=77 velocity=72 time=3
 i : 7the msg is note_on channel=6 note=69 velocity=71 time=1
 i : 7the msg is note_on channel=6 note=69 velocity=0 time=801
 i : 7the msg is note_on channel=6 note=77 velocity=0 time=14
 i : 7the msg is note_on channel=6 note=74 velocity=0 time=10
 i : 7the msg is note_on channel=6 note=74 velocity=72 time=128
 i : 7the msg is note_on channel=6 note=69 velocity=53 time=9
 i : 7the msg is note_on channel=6 note=77 velocity=37 time=1
 i : 7the msg is note_on channel=6 note=69 velocity=0 time=36
 i : 7the msg is note_on channel=6 note=74 velocity=0 time=7
 i : 7the msg is note_on channel=6 note=77 velocity=0 time=15
 i : 7the msg is note_on channel=6 note=77 velocity=127 time=173
 i : 7the msg is note_on channel=6 note=72 velocity=117 time=1
 i : 7the msg is note_on channel=6 note=81 velocity=117 time=1
 i : 7the msg is note_on channel=6 note=77 velocity=0 time=64
 i : 7the msg is note_on channel=6 note=72 velocity=0 time=2
 i : 7the msg is note_on channel=6 note=81 velocity=0 time=18
 i : 7the msg is note_on channel=6 note=77 velocity=66 time=388
 i : 7the msg is note_on channel=6 note=74 velocity=75 time=5
 i : 7the msg is note_on channel=6 note=69 velocity=59 time=7
 i : 7the msg is note_on channel=6 note=69 velocity=0 time=842
 i : 7the msg is note_on channel=6 note=74 velocity=0 time=21
 i : 7the msg is note_on channel=6 note=77 velocity=0 time=13
 i : 7the msg is note_on channel=6 note=74 velocity=62 time=70
 i : 7the msg is note_on channel=6 note=77 velocity=32 time=4
 i : 7the msg is note_on channel=6 note=69 velocity=46 time=3
 i : 7the msg is note_on channel=6 note=77 velocity=0 time=51
 i : 7the msg is note_on channel=6 note=69 velocity=0 time=3
 i : 7the msg is note_on channel=6 note=74 velocity=0 time=2
 i : 7the msg is note_on channel=6 note=74 velocity=66 time=180
 i : 7the msg is note_on channel=6 note=77 velocity=46 time=6
 i : 7the msg is note_on channel=6 note=69 velocity=44 time=5
 i : 7the msg is note_on channel=6 note=69 velocity=0 time=36
 i : 7the msg is note_on channel=6 note=77 velocity=0 time=4
 i : 7the msg is note_on channel=6 note=74 velocity=0 time=1
 i : 7the msg is note_on channel=6 note=77 velocity=126 time=181
 i : 7the msg is note_on channel=6 note=72 velocity=106 time=1
 i : 7the msg is note_on channel=6 note=81 velocity=106 time=1
 i : 7the msg is note_on channel=6 note=76 velocity=86 time=6
 i : 7the msg is note_on channel=6 note=76 velocity=0 time=11
 i : 7the msg is note_on channel=6 note=77 velocity=0 time=57
 i : 7the msg is note_on channel=6 note=72 velocity=0 time=1
 i : 7the msg is note_on channel=6 note=81 velocity=0 time=17
 i : 7the msg is note_on channel=6 note=79 velocity=96 time=149
 i : 7the msg is note_on channel=6 note=71 velocity=103 time=3
 i : 7the msg is note_on channel=6 note=74 velocity=120 time=0
 i : 7the msg is note_on channel=6 note=79 velocity=0 time=332
 i : 7the msg is note_on channel=6 note=74 velocity=0 time=32
 i : 7the msg is note_on channel=6 note=71 velocity=0 time=5
 i : 7the msg is note_on channel=6 note=77 velocity=70 time=108
 i : 7the msg is note_on channel=6 note=74 velocity=96 time=3
 i : 7the msg is note_on channel=6 note=69 velocity=72 time=5
 i : 7the msg is note_on channel=6 note=69 velocity=0 time=809
 i : 7the msg is note_on channel=6 note=77 velocity=0 time=16
 i : 7the msg is note_on channel=6 note=74 velocity=0 time=13
 i : 7the msg is note_on channel=6 note=77 velocity=53 time=110
 i : 7the msg is note_on channel=6 note=69 velocity=56 time=6
 i : 7the msg is note_on channel=6 note=74 velocity=68 time=1
 i : 7the msg is note_on channel=6 note=74 velocity=0 time=47
 i : 7the msg is note_on channel=6 note=69 velocity=0 time=1
 i : 7the msg is note_on channel=6 note=77 velocity=0 time=15
 i : 7the msg is note_on channel=6 note=77 velocity=127 time=175
 i : 7the msg is note_on channel=6 note=72 velocity=123 time=1
 i : 7the msg is note_on channel=6 note=81 velocity=126 time=0
 i : 7the msg is note_on channel=6 note=77 velocity=0 time=56
 i : 7the msg is note_on channel=6 note=72 velocity=0 time=12
 i : 7the msg is note_on channel=6 note=81 velocity=0 time=12
 i : 7the msg is note_on channel=6 note=77 velocity=72 time=382
 i : 7the msg is note_on channel=6 note=74 velocity=73 time=5
 i : 7the msg is note_on channel=6 note=69 velocity=62 time=5
 i : 7the msg is note_on channel=6 note=69 velocity=0 time=809
 i : 7the msg is note_on channel=6 note=77 velocity=0 time=15
 i : 7the msg is note_on channel=6 note=74 velocity=0 time=3
 i : 7the msg is note_on channel=6 note=74 velocity=62 time=136
 i : 7the msg is note_on channel=6 note=77 velocity=50 time=3
 i : 7the msg is note_on channel=6 note=69 velocity=39 time=11
 i : 7the msg is note_on channel=6 note=69 velocity=0 time=48
 i : 7the msg is note_on channel=6 note=77 velocity=0 time=9
 i : 7the msg is note_on channel=6 note=74 velocity=0 time=0
 i : 7the msg is note_on channel=6 note=74 velocity=62 time=163
 i : 7the msg is note_on channel=6 note=77 velocity=50 time=4
 i : 7the msg is note_on channel=6 note=69 velocity=48 time=1
 i : 7the msg is note_on channel=6 note=69 velocity=0 time=45
 i : 7the msg is note_on channel=6 note=74 velocity=0 time=9
 i : 7the msg is note_on channel=6 note=77 velocity=0 time=2
 i : 7the msg is note_on channel=6 note=77 velocity=113 time=177
 i : 7the msg is note_on channel=6 note=72 velocity=93 time=1
 i : 7the msg is note_on channel=6 note=81 velocity=103 time=2
 i : 7the msg is note_on channel=6 note=77 velocity=0 time=69
 i : 7the msg is note_on channel=6 note=72 velocity=0 time=1
 i : 7the msg is note_on channel=6 note=81 velocity=0 time=8
 i : 7the msg is note_on channel=6 note=79 velocity=93 time=165
 i : 7the msg is note_on channel=6 note=74 velocity=120 time=6
 i : 7the msg is note_on channel=6 note=71 velocity=103 time=1
 i : 7the msg is note_on channel=6 note=79 velocity=0 time=308
 i : 7the msg is note_on channel=6 note=74 velocity=0 time=25
 i : 7the msg is note_on channel=6 note=71 velocity=0 time=5
 i : 7the msg is note_on channel=6 note=77 velocity=64 time=126
 i : 7the msg is note_on channel=6 note=69 velocity=68 time=4
 i : 7the msg is note_on channel=6 note=74 velocity=91 time=2
 i : 7the msg is note_on channel=6 note=69 velocity=0 time=839
 i : 7the msg is note_on channel=6 note=77 velocity=0 time=35
 i : 7the msg is note_on channel=6 note=74 velocity=0 time=2
 i : 7the msg is note_on channel=6 note=74 velocity=72 time=114
 i : 7the msg is note_on channel=6 note=77 velocity=57 time=1
 i : 7the msg is note_on channel=6 note=69 velocity=45 time=9
 i : 7the msg is note_on channel=6 note=69 velocity=0 time=42
 i : 7the msg is note_on channel=6 note=74 velocity=0 time=10
 i : 7the msg is note_on channel=6 note=77 velocity=0 time=7
 i : 7the msg is note_on channel=6 note=77 velocity=108 time=154
 i : 7the msg is note_on channel=6 note=81 velocity=103 time=1
 i : 7the msg is note_on channel=6 note=72 velocity=103 time=1
 i : 7the msg is note_on channel=6 note=77 velocity=0 time=69
 i : 7the msg is note_on channel=6 note=72 velocity=0 time=4
 i : 7the msg is note_on channel=6 note=81 velocity=0 time=11
 i : 7the msg is note_on channel=6 note=77 velocity=67 time=392
 i : 7the msg is note_on channel=6 note=74 velocity=78 time=4
 i : 7the msg is note_on channel=6 note=69 velocity=70 time=5
 i : 7the msg is note_on channel=6 note=69 velocity=0 time=800
 i : 7the msg is note_on channel=6 note=77 velocity=0 time=14
 i : 7the msg is note_on channel=6 note=74 velocity=0 time=6
 i : 7the msg is note_on channel=6 note=74 velocity=61 time=120
 i : 7the msg is note_on channel=6 note=77 velocity=49 time=2
 i : 7the msg is note_on channel=6 note=69 velocity=35 time=11
 i : 7the msg is note_on channel=6 note=69 velocity=0 time=40
 i : 7the msg is note_on channel=6 note=74 velocity=0 time=5
 i : 7the msg is note_on channel=6 note=77 velocity=0 time=1
 i : 7the msg is note_on channel=6 note=77 velocity=58 time=180
 i : 7the msg is note_on channel=6 note=74 velocity=66 time=1
 i : 7the msg is note_on channel=6 note=69 velocity=48 time=8
 i : 7the msg is note_on channel=6 note=69 velocity=0 time=45
 i : 7the msg is note_on channel=6 note=74 velocity=0 time=4
 i : 7the msg is note_on channel=6 note=77 velocity=0 time=8
 i : 7the msg is note_on channel=6 note=77 velocity=120 time=177
 i : 7the msg is note_on channel=6 note=81 velocity=111 time=0
 i : 7the msg is note_on channel=6 note=72 velocity=100 time=1
 i : 7the msg is note_on channel=6 note=77 velocity=0 time=69
 i : 7the msg is note_on channel=6 note=72 velocity=0 time=6
 i : 7the msg is note_on channel=6 note=81 velocity=0 time=15
 i : 7the msg is note_on channel=6 note=79 velocity=98 time=158
 i : 7the msg is note_on channel=6 note=74 velocity=126 time=4
 i : 7the msg is note_on channel=6 note=71 velocity=108 time=1
 i : 7the msg is note_on channel=6 note=79 velocity=0 time=325
 i : 7the msg is note_on channel=6 note=74 velocity=0 time=8
 i : 7the msg is note_on channel=6 note=71 velocity=0 time=5
 i : 7the msg is note_on channel=6 note=77 velocity=64 time=144
 i : 7the msg is note_on channel=6 note=74 velocity=71 time=4
 i : 7the msg is note_on channel=6 note=69 velocity=66 time=4
 i : 7the msg is note_on channel=6 note=69 velocity=0 time=939
 i : 7the msg is note_on channel=6 note=74 velocity=0 time=14
 i : 7the msg is note_on channel=6 note=77 velocity=0 time=18
 i : 7the msg is note_on channel=6 note=77 velocity=106 time=22056
 i : 7the msg is note_on channel=6 note=74 velocity=127 time=2
 i : 7the msg is note_on channel=6 note=69 velocity=96 time=5
 i : 7the msg is note_on channel=6 note=77 velocity=0 time=753
 i : 7the msg is note_on channel=6 note=69 velocity=0 time=1
 i : 7the msg is note_on channel=6 note=74 velocity=0 time=28
 i : 7the msg is note_on channel=6 note=74 velocity=78 time=157
 i : 7the msg is note_on channel=6 note=69 velocity=58 time=7
 i : 7the msg is note_on channel=6 note=77 velocity=53 time=5
 i : 7the msg is note_on channel=6 note=69 velocity=0 time=40
 i : 7the msg is note_on channel=6 note=77 velocity=0 time=7
 i : 7the msg is note_on channel=6 note=74 velocity=0 time=1
 i : 7the msg is note_on channel=6 note=81 velocity=117 time=199
 i : 7the msg is note_on channel=6 note=72 velocity=117 time=1
 i : 7the msg is note_on channel=6 note=77 velocity=127 time=1
 i : 7the msg is note_on channel=6 note=77 velocity=0 time=61
 i : 7the msg is note_on channel=6 note=72 velocity=0 time=8
 i : 7the msg is note_on channel=6 note=81 velocity=0 time=6
 i : 7the msg is note_on channel=6 note=77 velocity=89 time=394
 i : 7the msg is note_on channel=6 note=74 velocity=117 time=4
 i : 7the msg is note_on channel=6 note=69 velocity=80 time=1
 i : 7the msg is note_on channel=6 note=69 velocity=0 time=1944
 i : 7the msg is note_on channel=6 note=74 velocity=0 time=32
 i : 7the msg is note_on channel=6 note=77 velocity=0 time=939
 i : 7the msg is note_on channel=6 note=67 velocity=62 time=219
 i : 7the msg is note_on channel=6 note=71 velocity=67 time=2
 i : 7the msg is note_on channel=6 note=74 velocity=63 time=4
 i : 7the msg is note_on channel=6 note=74 velocity=0 time=32
 i : 7the msg is note_on channel=6 note=71 velocity=0 time=0
 i : 7the msg is note_on channel=6 note=67 velocity=0 time=8
 i : 7the msg is note_on channel=6 note=71 velocity=120 time=172
 i : 7the msg is note_on channel=6 note=74 velocity=127 time=2
 i : 7the msg is note_on channel=6 note=67 velocity=103 time=2
 i : 7the msg is note_on channel=6 note=74 velocity=0 time=50
 i : 7the msg is note_on channel=6 note=71 velocity=0 time=5
 i : 7the msg is note_on channel=6 note=67 velocity=0 time=12
 i : 7the msg is note_on channel=6 note=74 velocity=117 time=425
 i : 7the msg is note_on channel=6 note=71 velocity=113 time=1
 i : 7the msg is note_on channel=6 note=67 velocity=80 time=1
 i : 7the msg is note_on channel=6 note=74 velocity=0 time=1853
 i : 7the msg is note_on channel=6 note=67 velocity=0 time=31
 i : 7the msg is note_on channel=6 note=71 velocity=0 time=39
 i : 7the msg is note_on channel=6 note=77 velocity=93 time=221
 i : 7the msg is note_on channel=6 note=74 velocity=108 time=7
 i : 7the msg is note_on channel=6 note=69 velocity=85 time=3
 i : 7the msg is note_on channel=6 note=69 velocity=0 time=775
 i : 7the msg is note_on channel=6 note=77 velocity=0 time=3
 i : 7the msg is note_on channel=6 note=74 velocity=0 time=22
 i : 7the msg is note_on channel=6 note=77 velocity=57 time=138
 i : 7the msg is note_on channel=6 note=69 velocity=60 time=10
 i : 7the msg is note_on channel=6 note=74 velocity=64 time=1
 i : 7the msg is note_on channel=6 note=74 velocity=0 time=51
 i : 7the msg is note_on channel=6 note=69 velocity=0 time=1
 i : 7the msg is note_on channel=6 note=77 velocity=0 time=9
 i : 7the msg is note_on channel=6 note=81 velocity=111 time=187
 i : 7the msg is note_on channel=6 note=77 velocity=127 time=1
 i : 7the msg is note_on channel=6 note=72 velocity=117 time=3
 i : 7the msg is note_on channel=6 note=77 velocity=0 time=62
 i : 7the msg is note_on channel=6 note=72 velocity=0 time=2
 i : 7the msg is note_on channel=6 note=81 velocity=0 time=14
 i : 7the msg is note_on channel=6 note=77 velocity=75 time=402
 i : 7the msg is note_on channel=6 note=74 velocity=96 time=5
 i : 7the msg is note_on channel=6 note=69 velocity=66 time=4
 i : 7the msg is note_on channel=6 note=74 velocity=0 time=1930
 i : 7the msg is note_on channel=6 note=69 velocity=0 time=4
 i : 7the msg is note_on channel=6 note=77 velocity=0 time=190
 i : 7the msg is note_on channel=6 note=74 velocity=106 time=13
 i : 7the msg is note_on channel=6 note=71 velocity=93 time=6
 i : 7the msg is note_on channel=6 note=67 velocity=80 time=10
 i : 7the msg is note_on channel=6 note=71 velocity=0 time=735
 i : 7the msg is note_on channel=6 note=67 velocity=0 time=12
 i : 7the msg is note_on channel=6 note=74 velocity=0 time=4
 i : 7the msg is note_on channel=6 note=74 velocity=73 time=188
 i : 7the msg is note_on channel=6 note=71 velocity=53 time=6
 i : 7the msg is note_on channel=6 note=67 velocity=28 time=24
 i : 7the msg is note_on channel=6 note=71 velocity=0 time=16
 i : 7the msg is note_on channel=6 note=74 velocity=0 time=7
 i : 7the msg is note_on channel=6 note=67 velocity=0 time=1
 i : 7the msg is note_on channel=6 note=71 velocity=113 time=191
 i : 7the msg is note_on channel=6 note=74 velocity=120 time=2
 i : 7the msg is note_on channel=6 note=67 velocity=80 time=2
 i : 7the msg is note_on channel=6 note=74 velocity=0 time=50
 i : 7the msg is note_on channel=6 note=71 velocity=0 time=4
 i : 7the msg is note_on channel=6 note=67 velocity=0 time=8
 i : 7the msg is note_on channel=6 note=71 velocity=58 time=421
 i : 7the msg is note_on channel=6 note=74 velocity=61 time=3
 i : 7the msg is note_on channel=6 note=67 velocity=48 time=2
 i : 7the msg is note_on channel=6 note=67 velocity=0 time=1314
 i : 7the msg is note_on channel=6 note=71 velocity=0 time=425
 i : 7the msg is note_on channel=6 note=74 velocity=0 time=11
 i : 7the msg is note_on channel=6 note=77 velocity=77 time=383
 i : 7the msg is note_on channel=6 note=74 velocity=108 time=3
 i : 7the msg is note_on channel=6 note=69 velocity=73 time=1
 i : 7the msg is note_on channel=6 note=69 velocity=0 time=821
 i : 7the msg is note_on channel=6 note=77 velocity=0 time=15
 i : 7the msg is note_on channel=6 note=74 velocity=0 time=14
 i : 7the msg is note_on channel=6 note=74 velocity=70 time=124
 i : 7the msg is note_on channel=6 note=77 velocity=68 time=1
 i : 7the msg is note_on channel=6 note=69 velocity=60 time=1
 i : 7the msg is note_on channel=6 note=69 velocity=0 time=58
 i : 7the msg is note_on channel=6 note=74 velocity=0 time=0
 i : 7the msg is note_on channel=6 note=77 velocity=0 time=20
 i : 7the msg is note_on channel=6 note=77 velocity=127 time=157
 i : 7the msg is note_on channel=6 note=81 velocity=113 time=1
 i : 7the msg is note_on channel=6 note=72 velocity=111 time=1
 i : 7the msg is note_on channel=6 note=77 velocity=0 time=60
 i : 7the msg is note_on channel=6 note=72 velocity=0 time=10
 i : 7the msg is note_on channel=6 note=81 velocity=0 time=9
 i : 7the msg is note_on channel=6 note=77 velocity=67 time=388
 i : 7the msg is note_on channel=6 note=74 velocity=85 time=2
 i : 7the msg is note_on channel=6 note=69 velocity=62 time=6
 i : 7the msg is note_on channel=6 note=69 velocity=0 time=878
 i : 7the msg is note_on channel=6 note=77 velocity=0 time=8
 i : 7the msg is note_on channel=6 note=74 velocity=0 time=20
 i : 7the msg is note_on channel=6 note=74 velocity=63 time=84
 i : 7the msg is note_on channel=6 note=77 velocity=41 time=13
 i : 7the msg is note_on channel=6 note=69 velocity=43 time=3
 i : 7the msg is note_on channel=6 note=69 velocity=0 time=43
 i : 7the msg is note_on channel=6 note=74 velocity=0 time=8
 i : 7the msg is note_on channel=6 note=77 velocity=0 time=4
 i : 7the msg is note_on channel=6 note=74 velocity=62 time=142
 i : 7the msg is note_on channel=6 note=69 velocity=47 time=2
 i : 7the msg is note_on channel=6 note=77 velocity=51 time=4
 i : 7the msg is note_on channel=6 note=69 velocity=0 time=50
 i : 7the msg is note_on channel=6 note=74 velocity=0 time=4
 i : 7the msg is note_on channel=6 note=77 velocity=0 time=11
 i : 7the msg is note_on channel=6 note=77 velocity=123 time=154
 i : 7the msg is note_on channel=6 note=72 velocity=108 time=1
 i : 7the msg is note_on channel=6 note=81 velocity=111 time=3
 i : 7the msg is note_on channel=6 note=77 velocity=0 time=68
 i : 7the msg is note_on channel=6 note=72 velocity=0 time=1
 i : 7the msg is note_on channel=6 note=81 velocity=0 time=10
 i : 7the msg is note_on channel=6 note=76 velocity=113 time=167
 i : 7the msg is note_on channel=6 note=79 velocity=96 time=1
 i : 7the msg is note_on channel=6 note=71 velocity=103 time=4
 i : 7the msg is note_on channel=6 note=79 velocity=0 time=332
 i : 7the msg is note_on channel=6 note=76 velocity=0 time=34
 i : 7the msg is note_on channel=6 note=71 velocity=0 time=1
 i : 7the msg is note_on channel=6 note=74 velocity=96 time=127
 i : 7the msg is note_on channel=6 note=77 velocity=72 time=3
 i : 7the msg is note_on channel=6 note=69 velocity=71 time=1
 i : 7the msg is note_on channel=6 note=69 velocity=0 time=801
 i : 7the msg is note_on channel=6 note=77 velocity=0 time=14
 i : 7the msg is note_on channel=6 note=74 velocity=0 time=10
 i : 7the msg is note_on channel=6 note=74 velocity=72 time=128
 i : 7the msg is note_on channel=6 note=69 velocity=53 time=9
 i : 7the msg is note_on channel=6 note=77 velocity=37 time=1
 i : 7the msg is note_on channel=6 note=69 velocity=0 time=36
 i : 7the msg is note_on channel=6 note=74 velocity=0 time=7
 i : 7the msg is note_on channel=6 note=77 velocity=0 time=15
 i : 7the msg is note_on channel=6 note=77 velocity=127 time=173
 i : 7the msg is note_on channel=6 note=72 velocity=117 time=1
 i : 7the msg is note_on channel=6 note=81 velocity=117 time=1
 i : 7the msg is note_on channel=6 note=77 velocity=0 time=64
 i : 7the msg is note_on channel=6 note=72 velocity=0 time=2
 i : 7the msg is note_on channel=6 note=81 velocity=0 time=18
 i : 7the msg is note_on channel=6 note=77 velocity=66 time=388
 i : 7the msg is note_on channel=6 note=74 velocity=75 time=5
 i : 7the msg is note_on channel=6 note=69 velocity=59 time=7
 i : 7the msg is note_on channel=6 note=69 velocity=0 time=842
 i : 7the msg is note_on channel=6 note=74 velocity=0 time=21
 i : 7the msg is note_on channel=6 note=77 velocity=0 time=13
 i : 7the msg is note_on channel=6 note=74 velocity=62 time=70
 i : 7the msg is note_on channel=6 note=77 velocity=32 time=4
 i : 7the msg is note_on channel=6 note=69 velocity=46 time=3
 i : 7the msg is note_on channel=6 note=77 velocity=0 time=51
 i : 7the msg is note_on channel=6 note=69 velocity=0 time=3
 i : 7the msg is note_on channel=6 note=74 velocity=0 time=2
 i : 7the msg is note_on channel=6 note=74 velocity=66 time=180
 i : 7the msg is note_on channel=6 note=77 velocity=46 time=6
 i : 7the msg is note_on channel=6 note=69 velocity=44 time=5
 i : 7the msg is note_on channel=6 note=69 velocity=0 time=36
 i : 7the msg is note_on channel=6 note=77 velocity=0 time=4
 i : 7the msg is note_on channel=6 note=74 velocity=0 time=1
 i : 7the msg is note_on channel=6 note=77 velocity=126 time=181
 i : 7the msg is note_on channel=6 note=72 velocity=106 time=1
 i : 7the msg is note_on channel=6 note=81 velocity=106 time=1
 i : 7the msg is note_on channel=6 note=76 velocity=86 time=6
 i : 7the msg is note_on channel=6 note=76 velocity=0 time=11
 i : 7the msg is note_on channel=6 note=77 velocity=0 time=57
 i : 7the msg is note_on channel=6 note=72 velocity=0 time=1
 i : 7the msg is note_on channel=6 note=81 velocity=0 time=17
 i : 7the msg is note_on channel=6 note=79 velocity=96 time=149
 i : 7the msg is note_on channel=6 note=71 velocity=103 time=3
 i : 7the msg is note_on channel=6 note=74 velocity=120 time=0
 i : 7the msg is note_on channel=6 note=79 velocity=0 time=332
 i : 7the msg is note_on channel=6 note=74 velocity=0 time=32
 i : 7the msg is note_on channel=6 note=71 velocity=0 time=5
 i : 7the msg is note_on channel=6 note=77 velocity=70 time=108
 i : 7the msg is note_on channel=6 note=74 velocity=96 time=3
 i : 7the msg is note_on channel=6 note=69 velocity=72 time=5
 i : 7the msg is note_on channel=6 note=69 velocity=0 time=809
 i : 7the msg is note_on channel=6 note=77 velocity=0 time=16
 i : 7the msg is note_on channel=6 note=74 velocity=0 time=13
 i : 7the msg is note_on channel=6 note=77 velocity=53 time=110
 i : 7the msg is note_on channel=6 note=69 velocity=56 time=6
 i : 7the msg is note_on channel=6 note=74 velocity=68 time=1
 i : 7the msg is note_on channel=6 note=74 velocity=0 time=47
 i : 7the msg is note_on channel=6 note=69 velocity=0 time=1
 i : 7the msg is note_on channel=6 note=77 velocity=0 time=15
 i : 7the msg is note_on channel=6 note=77 velocity=127 time=175
 i : 7the msg is note_on channel=6 note=72 velocity=123 time=1
 i : 7the msg is note_on channel=6 note=81 velocity=126 time=0
 i : 7the msg is note_on channel=6 note=77 velocity=0 time=56
 i : 7the msg is note_on channel=6 note=72 velocity=0 time=12
 i : 7the msg is note_on channel=6 note=81 velocity=0 time=12
 i : 7the msg is note_on channel=6 note=77 velocity=72 time=382
 i : 7the msg is note_on channel=6 note=74 velocity=73 time=5
 i : 7the msg is note_on channel=6 note=69 velocity=62 time=5
 i : 7the msg is note_on channel=6 note=69 velocity=0 time=809
 i : 7the msg is note_on channel=6 note=77 velocity=0 time=15
 i : 7the msg is note_on channel=6 note=74 velocity=0 time=3
 i : 7the msg is note_on channel=6 note=74 velocity=62 time=136
 i : 7the msg is note_on channel=6 note=77 velocity=50 time=3
 i : 7the msg is note_on channel=6 note=69 velocity=39 time=11
 i : 7the msg is note_on channel=6 note=69 velocity=0 time=48
 i : 7the msg is note_on channel=6 note=77 velocity=0 time=9
 i : 7the msg is note_on channel=6 note=74 velocity=0 time=0
 i : 7the msg is note_on channel=6 note=74 velocity=62 time=163
 i : 7the msg is note_on channel=6 note=77 velocity=50 time=4
 i : 7the msg is note_on channel=6 note=69 velocity=48 time=1
 i : 7the msg is note_on channel=6 note=69 velocity=0 time=45
 i : 7the msg is note_on channel=6 note=74 velocity=0 time=9
 i : 7the msg is note_on channel=6 note=77 velocity=0 time=2
 i : 7the msg is note_on channel=6 note=77 velocity=113 time=177
 i : 7the msg is note_on channel=6 note=72 velocity=93 time=1
 i : 7the msg is note_on channel=6 note=81 velocity=103 time=2
 i : 7the msg is note_on channel=6 note=77 velocity=0 time=69
 i : 7the msg is note_on channel=6 note=72 velocity=0 time=1
 i : 7the msg is note_on channel=6 note=81 velocity=0 time=8
 i : 7the msg is note_on channel=6 note=79 velocity=93 time=165
 i : 7the msg is note_on channel=6 note=74 velocity=120 time=6
 i : 7the msg is note_on channel=6 note=71 velocity=103 time=1
 i : 7the msg is note_on channel=6 note=79 velocity=0 time=308
 i : 7the msg is note_on channel=6 note=74 velocity=0 time=25
 i : 7the msg is note_on channel=6 note=71 velocity=0 time=5
 i : 7the msg is note_on channel=6 note=77 velocity=64 time=126
 i : 7the msg is note_on channel=6 note=69 velocity=68 time=4
 i : 7the msg is note_on channel=6 note=74 velocity=91 time=2
 i : 7the msg is note_on channel=6 note=69 velocity=0 time=839
 i : 7the msg is note_on channel=6 note=77 velocity=0 time=35
 i : 7the msg is note_on channel=6 note=74 velocity=0 time=2
 i : 7the msg is note_on channel=6 note=74 velocity=72 time=114
 i : 7the msg is note_on channel=6 note=77 velocity=57 time=1
 i : 7the msg is note_on channel=6 note=69 velocity=45 time=9
 i : 7the msg is note_on channel=6 note=69 velocity=0 time=42
 i : 7the msg is note_on channel=6 note=74 velocity=0 time=10
 i : 7the msg is note_on channel=6 note=77 velocity=0 time=7
 i : 7the msg is note_on channel=6 note=77 velocity=108 time=154
 i : 7the msg is note_on channel=6 note=81 velocity=103 time=1
 i : 7the msg is note_on channel=6 note=72 velocity=103 time=1
 i : 7the msg is note_on channel=6 note=77 velocity=0 time=69
 i : 7the msg is note_on channel=6 note=72 velocity=0 time=4
 i : 7the msg is note_on channel=6 note=81 velocity=0 time=11
 i : 7the msg is note_on channel=6 note=77 velocity=67 time=392
 i : 7the msg is note_on channel=6 note=74 velocity=78 time=4
 i : 7the msg is note_on channel=6 note=69 velocity=70 time=5
 i : 7the msg is note_on channel=6 note=69 velocity=0 time=800
 i : 7the msg is note_on channel=6 note=77 velocity=0 time=14
 i : 7the msg is note_on channel=6 note=74 velocity=0 time=6
 i : 7the msg is note_on channel=6 note=74 velocity=61 time=120
 i : 7the msg is note_on channel=6 note=77 velocity=49 time=2
 i : 7the msg is note_on channel=6 note=69 velocity=35 time=11
 i : 7the msg is note_on channel=6 note=69 velocity=0 time=40
 i : 7the msg is note_on channel=6 note=74 velocity=0 time=5
 i : 7the msg is note_on channel=6 note=77 velocity=0 time=1
 i : 7the msg is note_on channel=6 note=77 velocity=58 time=180
 i : 7the msg is note_on channel=6 note=74 velocity=66 time=1
 i : 7the msg is note_on channel=6 note=69 velocity=48 time=8
 i : 7the msg is note_on channel=6 note=69 velocity=0 time=45
 i : 7the msg is note_on channel=6 note=74 velocity=0 time=4
 i : 7the msg is note_on channel=6 note=77 velocity=0 time=8
 i : 7the msg is note_on channel=6 note=77 velocity=120 time=177
 i : 7the msg is note_on channel=6 note=81 velocity=111 time=0
 i : 7the msg is note_on channel=6 note=72 velocity=100 time=1
 i : 7the msg is note_on channel=6 note=77 velocity=0 time=69
 i : 7the msg is note_on channel=6 note=72 velocity=0 time=6
 i : 7the msg is note_on channel=6 note=81 velocity=0 time=15
 i : 7the msg is note_on channel=6 note=79 velocity=98 time=158
 i : 7the msg is note_on channel=6 note=74 velocity=126 time=4
 i : 7the msg is note_on channel=6 note=71 velocity=108 time=1
 i : 7the msg is note_on channel=6 note=79 velocity=0 time=325
 i : 7the msg is note_on channel=6 note=74 velocity=0 time=8
 i : 7the msg is note_on channel=6 note=71 velocity=0 time=5
 i : 7the msg is note_on channel=6 note=77 velocity=64 time=144
 i : 7the msg is note_on channel=6 note=74 velocity=71 time=4
 i : 7the msg is note_on channel=6 note=69 velocity=66 time=4
 i : 7the msg is note_on channel=6 note=69 velocity=0 time=939
 i : 7the msg is note_on channel=6 note=74 velocity=0 time=14
 i : 7the msg is note_on channel=6 note=77 velocity=0 time=18
 i : 7the msg is note_on channel=6 note=69 velocity=96 time=22053
 i : 7the msg is note_on channel=6 note=74 velocity=127 time=0
 i : 7the msg is note_on channel=6 note=77 velocity=106 time=0
 i : 7the msg is note_on channel=6 note=69 velocity=0 time=754
 i : 7the msg is note_on channel=6 note=77 velocity=0 time=6
 i : 7the msg is note_on channel=6 note=74 velocity=0 time=27
 i : 7the msg is note_on channel=6 note=69 velocity=58 time=173
 i : 7the msg is note_on channel=6 note=74 velocity=78 time=0
 i : 7the msg is note_on channel=6 note=77 velocity=53 time=0
 i : 7the msg is note_on channel=6 note=69 velocity=0 time=45
 i : 7the msg is note_on channel=6 note=77 velocity=0 time=2
 i : 7the msg is note_on channel=6 note=74 velocity=0 time=13
 i : 7the msg is note_on channel=6 note=72 velocity=117 time=180
 i : 7the msg is note_on channel=6 note=77 velocity=127 time=0
 i : 7the msg is note_on channel=6 note=81 velocity=117 time=0
 i : 7the msg is note_on channel=6 note=77 velocity=0 time=61
 i : 7the msg is note_on channel=6 note=72 velocity=0 time=9
 i : 7the msg is note_on channel=6 note=81 velocity=0 time=7
 i : 7the msg is note_on channel=6 note=69 velocity=80 time=403
 i : 7the msg is note_on channel=6 note=74 velocity=117 time=0
 i : 7the msg is note_on channel=6 note=77 velocity=89 time=0
 i : 7the msg is note_on channel=6 note=69 velocity=0 time=1944
 i : 7the msg is note_on channel=6 note=74 velocity=0 time=33
 i : 7the msg is note_on channel=6 note=77 velocity=0 time=943
 i : 7the msg is note_on channel=6 note=67 velocity=62 time=200
 i : 7the msg is note_on channel=6 note=71 velocity=67 time=0
 i : 7the msg is note_on channel=6 note=74 velocity=63 time=0
 i : 7the msg is note_on channel=6 note=74 velocity=0 time=32
 i : 7the msg is note_on channel=6 note=71 velocity=0 time=4
 i : 7the msg is note_on channel=6 note=67 velocity=0 time=10
 i : 7the msg is note_on channel=6 note=67 velocity=103 time=194
 i : 7the msg is note_on channel=6 note=71 velocity=120 time=0
 i : 7the msg is note_on channel=6 note=74 velocity=127 time=0
 i : 7the msg is note_on channel=6 note=74 velocity=0 time=52
 i : 7the msg is note_on channel=6 note=71 velocity=0 time=7
 i : 7the msg is note_on channel=6 note=67 velocity=0 time=8
 i : 7the msg is note_on channel=6 note=69 velocity=60 time=11213
 i : 7the msg is note_on channel=6 note=74 velocity=70 time=0
 i : 7the msg is note_on channel=6 note=77 velocity=68 time=0
 i : 7the msg is note_on channel=6 note=69 velocity=0 time=58
 i : 7the msg is note_on channel=6 note=74 velocity=0 time=2
 i : 7the msg is note_on channel=6 note=77 velocity=0 time=19
 i : 7the msg is note_on channel=6 note=72 velocity=111 time=161
 i : 7the msg is note_on channel=6 note=77 velocity=127 time=0
 i : 7the msg is note_on channel=6 note=81 velocity=113 time=0
 i : 7the msg is note_on channel=6 note=77 velocity=0 time=62
 i : 7the msg is note_on channel=6 note=72 velocity=0 time=8
 i : 7the msg is note_on channel=6 note=81 velocity=0 time=10
 i : 7the msg is note_on channel=6 note=69 velocity=62 time=400
 i : 7the msg is note_on channel=6 note=74 velocity=85 time=0
 i : 7the msg is note_on channel=6 note=77 velocity=67 time=0
 i : 7the msg is note_on channel=6 note=69 velocity=0 time=878
 i : 7the msg is note_on channel=6 note=77 velocity=0 time=16
 i : 7the msg is note_on channel=6 note=74 velocity=0 time=18
 i : 7the msg is note_on channel=6 note=69 velocity=43 time=48
 i : 7the msg is note_on channel=6 note=74 velocity=63 time=0
 i : 7the msg is note_on channel=6 note=77 velocity=41 time=0
 i : 7the msg is note_on channel=6 note=69 velocity=0 time=43
 i : 7the msg is note_on channel=6 note=77 velocity=0 time=15
 i : 7the msg is note_on channel=6 note=74 velocity=0 time=9
 i : 7the msg is note_on channel=6 note=69 velocity=47 time=173
 i : 7the msg is note_on channel=6 note=74 velocity=62 time=0
 i : 7the msg is note_on channel=6 note=77 velocity=51 time=0
 i : 7the msg is note_on channel=6 note=69 velocity=0 time=54
 i : 7the msg is note_on channel=6 note=74 velocity=0 time=6
 i : 7the msg is note_on channel=6 note=77 velocity=0 time=5
 i : 7the msg is note_on channel=6 note=72 velocity=108 time=175
 i : 7the msg is note_on channel=6 note=77 velocity=123 time=0
 i : 7the msg is note_on channel=6 note=81 velocity=111 time=0
 i : 7the msg is note_on channel=6 note=77 velocity=0 time=72
 i : 7the msg is note_on channel=6 note=72 velocity=0 time=0
 i : 7the msg is note_on channel=6 note=81 velocity=0 time=7
 i : 7the msg is note_on channel=6 note=71 velocity=103 time=161
 i : 7the msg is note_on channel=6 note=76 velocity=113 time=0
 i : 7the msg is note_on channel=6 note=79 velocity=96 time=0
 i : 7the msg is note_on channel=6 note=79 velocity=0 time=336
 i : 7the msg is note_on channel=6 note=71 velocity=0 time=31
 i : 7the msg is note_on channel=6 note=76 velocity=0 time=4
 i : 7the msg is note_on channel=6 note=69 velocity=71 time=109
 i : 7the msg is note_on channel=6 note=74 velocity=96 time=0
 i : 7the msg is note_on channel=6 note=77 velocity=72 time=0
 i : 7the msg is note_on channel=6 note=69 velocity=0 time=801
 i : 7the msg is note_on channel=6 note=77 velocity=0 time=15
 i : 7the msg is note_on channel=6 note=74 velocity=0 time=13
 i : 7the msg is note_on channel=6 note=69 velocity=53 time=131
 i : 7the msg is note_on channel=6 note=74 velocity=72 time=0
 i : 7the msg is note_on channel=6 note=77 velocity=37 time=0
 i : 7the msg is note_on channel=6 note=69 velocity=0 time=37
 i : 7the msg is note_on channel=6 note=74 velocity=0 time=16
 i : 7the msg is note_on channel=6 note=77 velocity=0 time=5
 i : 7the msg is note_on channel=6 note=72 velocity=117 time=182
 i : 7the msg is note_on channel=6 note=77 velocity=127 time=0
 i : 7the msg is note_on channel=6 note=81 velocity=117 time=0
 i : 7the msg is note_on channel=6 note=77 velocity=0 time=66
 i : 7the msg is note_on channel=6 note=72 velocity=0 time=1
 i : 7the msg is note_on channel=6 note=81 velocity=0 time=17
 i : 7the msg is note_on channel=6 note=69 velocity=59 time=396
 i : 7the msg is note_on channel=6 note=74 velocity=75 time=0
 i : 7the msg is note_on channel=6 note=77 velocity=66 time=0
 i : 7the msg is note_on channel=6 note=69 velocity=0 time=842
 i : 7the msg is note_on channel=6 note=74 velocity=0 time=28
 i : 7the msg is note_on channel=6 note=77 velocity=0 time=18
 i : 7the msg is note_on channel=6 note=69 velocity=46 time=72
 i : 7the msg is note_on channel=6 note=74 velocity=62 time=0
 i : 7the msg is note_on channel=6 note=77 velocity=32 time=0
 i : 7the msg is note_on channel=6 note=77 velocity=0 time=54
 i : 7the msg is note_on channel=6 note=69 velocity=0 time=0
 i : 7the msg is note_on channel=6 note=74 velocity=0 time=9
 i : 7the msg is note_on channel=6 note=69 velocity=44 time=177
 i : 7the msg is note_on channel=6 note=74 velocity=66 time=0
 i : 7the msg is note_on channel=6 note=77 velocity=46 time=0
 i : 7the msg is note_on channel=6 note=69 velocity=0 time=36
 i : 7the msg is note_on channel=6 note=77 velocity=0 time=9
 i : 7the msg is note_on channel=6 note=74 velocity=0 time=7
 i : 7the msg is note_on channel=6 note=72 velocity=106 time=188
 i : 7the msg is note_on channel=6 note=76 velocity=86 time=0
 i : 7the msg is note_on channel=6 note=77 velocity=126 time=0
 i : 7the msg is note_on channel=6 note=81 velocity=106 time=0
 i : 7the msg is note_on channel=6 note=76 velocity=0 time=11
 i : 7the msg is note_on channel=6 note=72 velocity=0 time=65
 i : 7the msg is note_on channel=6 note=77 velocity=0 time=0
 i : 7the msg is note_on channel=6 note=81 velocity=0 time=16
 i : 7the msg is note_on channel=6 note=71 velocity=103 time=148
 i : 7the msg is note_on channel=6 note=74 velocity=120 time=0
 i : 7the msg is note_on channel=6 note=79 velocity=96 time=0
 i : 7the msg is note_on channel=6 note=79 velocity=0 time=335
 i : 7the msg is note_on channel=6 note=74 velocity=0 time=29
 i : 7the msg is note_on channel=6 note=71 velocity=0 time=5
 i : 7the msg is note_on channel=6 note=69 velocity=60 time=1071
 i : 7the msg is note_on channel=6 note=74 velocity=70 time=0
 i : 7the msg is note_on channel=6 note=77 velocity=68 time=0
 i : 7the msg is note_on channel=6 note=69 velocity=0 time=58
 i : 7the msg is note_on channel=6 note=74 velocity=0 time=2
 i : 7the msg is note_on channel=6 note=77 velocity=0 time=19
 i : 7the msg is note_on channel=6 note=72 velocity=111 time=161
 i : 7the msg is note_on channel=6 note=77 velocity=127 time=0
 i : 7the msg is note_on channel=6 note=81 velocity=113 time=0
 i : 7the msg is note_on channel=6 note=77 velocity=0 time=62
 i : 7the msg is note_on channel=6 note=72 velocity=0 time=8
 i : 7the msg is note_on channel=6 note=81 velocity=0 time=10
 i : 7the msg is note_on channel=6 note=69 velocity=62 time=400
 i : 7the msg is note_on channel=6 note=74 velocity=85 time=0
 i : 7the msg is note_on channel=6 note=77 velocity=67 time=0
 i : 7the msg is note_on channel=6 note=69 velocity=0 time=878
 i : 7the msg is note_on channel=6 note=77 velocity=0 time=16
 i : 7the msg is note_on channel=6 note=74 velocity=0 time=18
 i : 7the msg is note_on channel=6 note=69 velocity=43 time=48
 i : 7the msg is note_on channel=6 note=74 velocity=63 time=0
 i : 7the msg is note_on channel=6 note=77 velocity=41 time=0
 i : 7the msg is note_on channel=6 note=69 velocity=0 time=43
 i : 7the msg is note_on channel=6 note=77 velocity=0 time=15
 i : 7the msg is note_on channel=6 note=74 velocity=0 time=9
 i : 7the msg is note_on channel=6 note=69 velocity=47 time=173
 i : 7the msg is note_on channel=6 note=74 velocity=62 time=0
 i : 7the msg is note_on channel=6 note=77 velocity=51 time=0
 i : 7the msg is note_on channel=6 note=69 velocity=0 time=54
 i : 7the msg is note_on channel=6 note=74 velocity=0 time=6
 i : 7the msg is note_on channel=6 note=77 velocity=0 time=5
 i : 7the msg is note_on channel=6 note=72 velocity=108 time=175
 i : 7the msg is note_on channel=6 note=77 velocity=123 time=0
 i : 7the msg is note_on channel=6 note=81 velocity=111 time=0
 i : 7the msg is note_on channel=6 note=77 velocity=0 time=72
 i : 7the msg is note_on channel=6 note=72 velocity=0 time=0
 i : 7the msg is note_on channel=6 note=81 velocity=0 time=7
 i : 7the msg is note_on channel=6 note=71 velocity=103 time=161
 i : 7the msg is note_on channel=6 note=76 velocity=113 time=0
 i : 7the msg is note_on channel=6 note=79 velocity=96 time=0
 i : 7the msg is note_on channel=6 note=79 velocity=0 time=336
 i : 7the msg is note_on channel=6 note=71 velocity=0 time=31
 i : 7the msg is note_on channel=6 note=76 velocity=0 time=4
 i : 7the msg is note_on channel=6 note=69 velocity=71 time=109
 i : 7the msg is note_on channel=6 note=74 velocity=96 time=0
 i : 7the msg is note_on channel=6 note=77 velocity=72 time=0
 i : 7the msg is note_on channel=6 note=69 velocity=0 time=801
 i : 7the msg is note_on channel=6 note=77 velocity=0 time=15
 i : 7the msg is note_on channel=6 note=74 velocity=0 time=13
 i : 7the msg is note_on channel=6 note=69 velocity=53 time=131
 i : 7the msg is note_on channel=6 note=74 velocity=72 time=0
 i : 7the msg is note_on channel=6 note=77 velocity=37 time=0
 i : 7the msg is note_on channel=6 note=69 velocity=0 time=37
 i : 7the msg is note_on channel=6 note=74 velocity=0 time=16
 i : 7the msg is note_on channel=6 note=77 velocity=0 time=5
 i : 7the msg is note_on channel=6 note=72 velocity=117 time=182
 i : 7the msg is note_on channel=6 note=77 velocity=127 time=0
 i : 7the msg is note_on channel=6 note=81 velocity=117 time=0
 i : 7the msg is note_on channel=6 note=77 velocity=0 time=66
 i : 7the msg is note_on channel=6 note=72 velocity=0 time=1
 i : 7the msg is note_on channel=6 note=81 velocity=0 time=17
 i : 7the msg is note_on channel=6 note=69 velocity=59 time=396
 i : 7the msg is note_on channel=6 note=74 velocity=75 time=0
 i : 7the msg is note_on channel=6 note=77 velocity=66 time=0
 i : 7the msg is note_on channel=6 note=69 velocity=0 time=842
 i : 7the msg is note_on channel=6 note=74 velocity=0 time=28
 i : 7the msg is note_on channel=6 note=77 velocity=0 time=18
 i : 7the msg is note_on channel=6 note=69 velocity=46 time=72
 i : 7the msg is note_on channel=6 note=74 velocity=62 time=0
 i : 7the msg is note_on channel=6 note=77 velocity=32 time=0
 i : 7the msg is note_on channel=6 note=77 velocity=0 time=54
 i : 7the msg is note_on channel=6 note=69 velocity=0 time=0
 i : 7the msg is note_on channel=6 note=74 velocity=0 time=9
 i : 7the msg is note_on channel=6 note=69 velocity=44 time=177
 i : 7the msg is note_on channel=6 note=74 velocity=66 time=0
 i : 7the msg is note_on channel=6 note=77 velocity=46 time=0
 i : 7the msg is note_on channel=6 note=69 velocity=0 time=36
 i : 7the msg is note_on channel=6 note=77 velocity=0 time=9
 i : 7the msg is note_on channel=6 note=74 velocity=0 time=7
 i : 7the msg is note_on channel=6 note=72 velocity=106 time=188
 i : 7the msg is note_on channel=6 note=76 velocity=86 time=0
 i : 7the msg is note_on channel=6 note=77 velocity=126 time=0
 i : 7the msg is note_on channel=6 note=81 velocity=106 time=0
 i : 7the msg is note_on channel=6 note=76 velocity=0 time=11
 i : 7the msg is note_on channel=6 note=72 velocity=0 time=65
 i : 7the msg is note_on channel=6 note=77 velocity=0 time=0
 i : 7the msg is note_on channel=6 note=81 velocity=0 time=16
 i : 7the msg is note_on channel=6 note=71 velocity=103 time=148
 i : 7the msg is note_on channel=6 note=74 velocity=120 time=0
 i : 7the msg is note_on channel=6 note=79 velocity=96 time=0
 i : 7the msg is note_on channel=6 note=79 velocity=0 time=335
 i : 7the msg is note_on channel=6 note=74 velocity=0 time=29
 i : 7the msg is note_on channel=6 note=71 velocity=0 time=5
 i : 7the msg is note_on channel=6 note=69 velocity=53 time=1071
 i : 7the msg is note_on channel=6 note=74 velocity=72 time=0
 i : 7the msg is note_on channel=6 note=77 velocity=37 time=0
 i : 7the msg is note_on channel=6 note=69 velocity=0 time=37
 i : 7the msg is note_on channel=6 note=74 velocity=0 time=16
 i : 7the msg is note_on channel=6 note=77 velocity=0 time=5
 i : 7the msg is note_on channel=6 note=72 velocity=117 time=182
 i : 7the msg is note_on channel=6 note=77 velocity=127 time=0
 i : 7the msg is note_on channel=6 note=81 velocity=117 time=0
 i : 7the msg is note_on channel=6 note=77 velocity=0 time=66
 i : 7the msg is note_on channel=6 note=72 velocity=0 time=1
 i : 7the msg is note_on channel=6 note=81 velocity=0 time=17
 i : 7the msg is note_on channel=6 note=69 velocity=59 time=396
 i : 7the msg is note_on channel=6 note=74 velocity=75 time=0
 i : 7the msg is note_on channel=6 note=77 velocity=66 time=0
 i : 7the msg is note_on channel=6 note=69 velocity=0 time=842
 i : 7the msg is note_on channel=6 note=74 velocity=0 time=28
 i : 7the msg is note_on channel=6 note=77 velocity=0 time=18
 i : 7the msg is note_on channel=6 note=69 velocity=46 time=72
 i : 7the msg is note_on channel=6 note=74 velocity=62 time=0
 i : 7the msg is note_on channel=6 note=77 velocity=32 time=0
 i : 7the msg is note_on channel=6 note=77 velocity=0 time=54
 i : 7the msg is note_on channel=6 note=69 velocity=0 time=0
 i : 7the msg is note_on channel=6 note=74 velocity=0 time=9
 i : 7the msg is note_on channel=6 note=69 velocity=44 time=177
 i : 7the msg is note_on channel=6 note=74 velocity=66 time=0
 i : 7the msg is note_on channel=6 note=77 velocity=46 time=0
 i : 7the msg is note_on channel=6 note=69 velocity=0 time=36
 i : 7the msg is note_on channel=6 note=77 velocity=0 time=9
 i : 7the msg is note_on channel=6 note=74 velocity=0 time=7
 i : 7the msg is note_on channel=6 note=72 velocity=106 time=188
 i : 7the msg is note_on channel=6 note=76 velocity=86 time=0
 i : 7the msg is note_on channel=6 note=77 velocity=126 time=0
 i : 7the msg is note_on channel=6 note=81 velocity=106 time=0
 i : 7the msg is note_on channel=6 note=76 velocity=0 time=11
 i : 7the msg is note_on channel=6 note=72 velocity=0 time=65
 i : 7the msg is note_on channel=6 note=77 velocity=0 time=0
 i : 7the msg is note_on channel=6 note=81 velocity=0 time=16
 i : 7the msg is note_on channel=6 note=71 velocity=103 time=148
 i : 7the msg is note_on channel=6 note=74 velocity=120 time=0
 i : 7the msg is note_on channel=6 note=79 velocity=96 time=0
 i : 7the msg is note_on channel=6 note=79 velocity=0 time=335
 i : 7the msg is note_on channel=6 note=74 velocity=0 time=29
 i : 7the msg is note_on channel=6 note=71 velocity=0 time=5
 i : 7the msg is note_on channel=6 note=69 velocity=53 time=1071
 i : 7the msg is note_on channel=6 note=74 velocity=72 time=0
 i : 7the msg is note_on channel=6 note=77 velocity=37 time=0
 i : 7the msg is note_on channel=6 note=69 velocity=0 time=37
 i : 7the msg is note_on channel=6 note=74 velocity=0 time=16
 i : 7the msg is note_on channel=6 note=77 velocity=0 time=5
 i : 7the msg is note_on channel=6 note=72 velocity=117 time=182
 i : 7the msg is note_on channel=6 note=77 velocity=127 time=0
 i : 7the msg is note_on channel=6 note=81 velocity=117 time=0
 i : 7the msg is note_on channel=6 note=77 velocity=0 time=66
 i : 7the msg is note_on channel=6 note=72 velocity=0 time=1
 i : 7the msg is note_on channel=6 note=81 velocity=0 time=17
 i : 7the msg is note_on channel=6 note=69 velocity=59 time=396
 i : 7the msg is note_on channel=6 note=74 velocity=75 time=0
 i : 7the msg is note_on channel=6 note=77 velocity=66 time=0
 i : 7the msg is note_on channel=6 note=69 velocity=0 time=842
 i : 7the msg is note_on channel=6 note=74 velocity=0 time=28
 i : 7the msg is note_on channel=6 note=77 velocity=0 time=18
 i : 7the msg is note_on channel=6 note=69 velocity=46 time=72
 i : 7the msg is note_on channel=6 note=74 velocity=62 time=0
 i : 7the msg is note_on channel=6 note=77 velocity=32 time=0
 i : 7the msg is note_on channel=6 note=77 velocity=0 time=54
 i : 7the msg is note_on channel=6 note=69 velocity=0 time=0
 i : 7the msg is note_on channel=6 note=74 velocity=0 time=9
 i : 7the msg is note_on channel=6 note=69 velocity=44 time=177
 i : 7the msg is note_on channel=6 note=74 velocity=66 time=0
 i : 7the msg is note_on channel=6 note=77 velocity=46 time=0
 i : 7the msg is note_on channel=6 note=69 velocity=0 time=36
 i : 7the msg is note_on channel=6 note=77 velocity=0 time=9
 i : 7the msg is note_on channel=6 note=74 velocity=0 time=7
 i : 7the msg is note_on channel=6 note=72 velocity=106 time=188
 i : 7the msg is note_on channel=6 note=76 velocity=86 time=0
 i : 7the msg is note_on channel=6 note=77 velocity=126 time=0
 i : 7the msg is note_on channel=6 note=81 velocity=106 time=0
 i : 7the msg is note_on channel=6 note=76 velocity=0 time=11
 i : 7the msg is note_on channel=6 note=72 velocity=0 time=65
 i : 7the msg is note_on channel=6 note=77 velocity=0 time=0
 i : 7the msg is note_on channel=6 note=81 velocity=0 time=16
 i : 7the msg is note_on channel=6 note=71 velocity=103 time=148
 i : 7the msg is note_on channel=6 note=74 velocity=120 time=0
 i : 7the msg is note_on channel=6 note=79 velocity=96 time=0
 i : 7the msg is note_on channel=6 note=79 velocity=0 time=335
 i : 7the msg is note_on channel=6 note=74 velocity=0 time=29
 i : 7the msg is note_on channel=6 note=71 velocity=0 time=5
 i : 7the msg is <meta message end_of_track time=0>
 i : 8the msg is <meta message midi_port port=0 time=0>
 i : 8the msg is <meta message track_name name='Organ' time=0>
 i : 8the msg is program_change channel=7 program=17 time=0
 i : 8the msg is control_change channel=7 control=7 value=110 time=0
 i : 8the msg is control_change channel=7 control=10 value=52 time=0
 i : 8the msg is control_change channel=7 control=121 value=0 time=90
 i : 8the msg is control_change channel=7 control=91 value=80 time=1
 i : 8the msg is note_on channel=7 note=36 velocity=80 time=7068
 i : 8the msg is note_on channel=7 note=38 velocity=60 time=38
 i : 8the msg is note_on channel=7 note=36 velocity=0 time=18
 i : 8the msg is note_on channel=7 note=40 velocity=59 time=15
 i : 8the msg is note_on channel=7 note=38 velocity=0 time=17
 i : 8the msg is note_on channel=7 note=41 velocity=71 time=10
 i : 8the msg is note_on channel=7 note=40 velocity=0 time=16
 i : 8the msg is note_on channel=7 note=43 velocity=83 time=9
 i : 8the msg is note_on channel=7 note=41 velocity=0 time=13
 i : 8the msg is note_on channel=7 note=45 velocity=103 time=7
 i : 8the msg is note_on channel=7 note=43 velocity=0 time=13
 i : 8the msg is note_on channel=7 note=47 velocity=98 time=9
 i : 8the msg is note_on channel=7 note=45 velocity=0 time=13
 i : 8the msg is note_on channel=7 note=48 velocity=117 time=9
 i : 8the msg is note_on channel=7 note=47 velocity=0 time=12
 i : 8the msg is note_on channel=7 note=50 velocity=127 time=10
 i : 8the msg is note_on channel=7 note=48 velocity=0 time=9
 i : 8the msg is note_on channel=7 note=52 velocity=123 time=11
 i : 8the msg is note_on channel=7 note=50 velocity=0 time=9
 i : 8the msg is note_on channel=7 note=53 velocity=126 time=11
 i : 8the msg is note_on channel=7 note=52 velocity=0 time=10
 i : 8the msg is note_on channel=7 note=55 velocity=127 time=11
 i : 8the msg is note_on channel=7 note=53 velocity=0 time=9
 i : 8the msg is note_on channel=7 note=57 velocity=127 time=12
 i : 8the msg is note_on channel=7 note=55 velocity=0 time=9
 i : 8the msg is note_on channel=7 note=59 velocity=127 time=12
 i : 8the msg is note_on channel=7 note=57 velocity=0 time=10
 i : 8the msg is note_on channel=7 note=60 velocity=127 time=13
 i : 8the msg is note_on channel=7 note=59 velocity=0 time=10
 i : 8the msg is note_on channel=7 note=62 velocity=127 time=14
 i : 8the msg is note_on channel=7 note=60 velocity=0 time=9
 i : 8the msg is note_on channel=7 note=64 velocity=127 time=15
 i : 8the msg is note_on channel=7 note=62 velocity=0 time=9
 i : 8the msg is note_on channel=7 note=65 velocity=127 time=14
 i : 8the msg is note_on channel=7 note=64 velocity=0 time=10
 i : 8the msg is note_on channel=7 note=67 velocity=127 time=13
 i : 8the msg is note_on channel=7 note=65 velocity=0 time=9
 i : 8the msg is note_on channel=7 note=69 velocity=127 time=11
 i : 8the msg is note_on channel=7 note=67 velocity=0 time=4
 i : 8the msg is note_on channel=7 note=71 velocity=127 time=13
 i : 8the msg is note_on channel=7 note=69 velocity=0 time=1
 i : 8the msg is note_on channel=7 note=71 velocity=0 time=10
 i : 8the msg is note_on channel=7 note=81 velocity=96 time=1
 i : 8the msg is note_on channel=7 note=74 velocity=100 time=1
 i : 8the msg is note_on channel=7 note=77 velocity=96 time=2
 i : 8the msg is note_on channel=7 note=81 velocity=0 time=678
 i : 8the msg is note_on channel=7 note=74 velocity=0 time=6
 i : 8the msg is note_on channel=7 note=77 velocity=0 time=18
 i : 8the msg is note_on channel=7 note=77 velocity=70 time=69
 i : 8the msg is note_on channel=7 note=81 velocity=75 time=2
 i : 8the msg is note_on channel=7 note=74 velocity=66 time=7
 i : 8the msg is note_on channel=7 note=77 velocity=0 time=83
 i : 8the msg is note_on channel=7 note=74 velocity=0 time=7
 i : 8the msg is note_on channel=7 note=81 velocity=0 time=3
 i : 8the msg is note_on channel=7 note=77 velocity=103 time=125
 i : 8the msg is note_on channel=7 note=81 velocity=106 time=7
 i : 8the msg is note_on channel=7 note=84 velocity=106 time=0
 i : 8the msg is note_on channel=7 note=81 velocity=0 time=149
 i : 8the msg is note_on channel=7 note=77 velocity=0 time=4
 i : 8the msg is note_on channel=7 note=84 velocity=0 time=11
 i : 8the msg is note_on channel=7 note=74 velocity=103 time=312
 i : 8the msg is note_on channel=7 note=81 velocity=103 time=4
 i : 8the msg is note_on channel=7 note=77 velocity=100 time=1
 i : 8the msg is note_on channel=7 note=77 velocity=0 time=883
 i : 8the msg is note_on channel=7 note=74 velocity=0 time=3
 i : 8the msg is note_on channel=7 note=81 velocity=0 time=10
 i : 8the msg is note_on channel=7 note=81 velocity=71 time=73
 i : 8the msg is note_on channel=7 note=77 velocity=64 time=13
 i : 8the msg is note_on channel=7 note=74 velocity=49 time=3
 i : 8the msg is note_on channel=7 note=74 velocity=0 time=61
 i : 8the msg is note_on channel=7 note=77 velocity=0 time=2
 i : 8the msg is note_on channel=7 note=81 velocity=0 time=12
 i : 8the msg is note_on channel=7 note=81 velocity=62 time=133
 i : 8the msg is note_on channel=7 note=77 velocity=60 time=7
 i : 8the msg is note_on channel=7 note=74 velocity=48 time=5
 i : 8the msg is note_on channel=7 note=74 velocity=0 time=60
 i : 8the msg is note_on channel=7 note=77 velocity=0 time=18
 i : 8the msg is note_on channel=7 note=81 velocity=0 time=22
 i : 8the msg is note_on channel=7 note=77 velocity=86 time=123
 i : 8the msg is note_on channel=7 note=81 velocity=89 time=1
 i : 8the msg is note_on channel=7 note=84 velocity=85 time=5
 i : 8the msg is note_on channel=7 note=77 velocity=0 time=94
 i : 8the msg is note_on channel=7 note=84 velocity=0 time=5
 i : 8the msg is note_on channel=7 note=81 velocity=0 time=2
 i : 8the msg is note_on channel=7 note=79 velocity=96 time=133
 i : 8the msg is note_on channel=7 note=74 velocity=108 time=2
 i : 8the msg is note_on channel=7 note=83 velocity=100 time=4
 i : 8the msg is note_on channel=7 note=81 velocity=78 time=13
 i : 8the msg is note_on channel=7 note=84 velocity=50 time=7
 i : 8the msg is note_on channel=7 note=84 velocity=0 time=16
 i : 8the msg is note_on channel=7 note=81 velocity=0 time=13
 i : 8the msg is note_on channel=7 note=74 velocity=0 time=337
 i : 8the msg is note_on channel=7 note=79 velocity=0 time=4
 i : 8the msg is note_on channel=7 note=83 velocity=0 time=27
 i : 8the msg is note_on channel=7 note=81 velocity=82 time=70
 i : 8the msg is note_on channel=7 note=74 velocity=96 time=2
 i : 8the msg is note_on channel=7 note=77 velocity=89 time=1
 i : 8the msg is note_on channel=7 note=74 velocity=0 time=849
 i : 8the msg is note_on channel=7 note=81 velocity=0 time=14
 i : 8the msg is note_on channel=7 note=77 velocity=0 time=1
 i : 8the msg is note_on channel=7 note=81 velocity=61 time=84
 i : 8the msg is note_on channel=7 note=77 velocity=54 time=1
 i : 8the msg is note_on channel=7 note=74 velocity=58 time=5
 i : 8the msg is note_on channel=7 note=74 velocity=0 time=74
 i : 8the msg is note_on channel=7 note=77 velocity=0 time=20
 i : 8the msg is note_on channel=7 note=81 velocity=0 time=3
 i : 8the msg is note_on channel=7 note=77 velocity=82 time=139
 i : 8the msg is note_on channel=7 note=84 velocity=86 time=0
 i : 8the msg is note_on channel=7 note=81 velocity=86 time=1
 i : 8the msg is note_on channel=7 note=84 velocity=0 time=143
 i : 8the msg is note_on channel=7 note=81 velocity=0 time=12
 i : 8the msg is note_on channel=7 note=77 velocity=0 time=13
 i : 8the msg is note_on channel=7 note=77 velocity=96 time=283
 i : 8the msg is note_on channel=7 note=81 velocity=106 time=1
 i : 8the msg is note_on channel=7 note=74 velocity=96 time=1
 i : 8the msg is note_on channel=7 note=74 velocity=0 time=877
 i : 8the msg is note_on channel=7 note=81 velocity=0 time=14
 i : 8the msg is note_on channel=7 note=77 velocity=0 time=5
 i : 8the msg is note_on channel=7 note=77 velocity=51 time=88
 i : 8the msg is note_on channel=7 note=81 velocity=64 time=1
 i : 8the msg is note_on channel=7 note=74 velocity=55 time=12
 i : 8the msg is note_on channel=7 note=74 velocity=0 time=62
 i : 8the msg is note_on channel=7 note=81 velocity=0 time=10
 i : 8the msg is note_on channel=7 note=77 velocity=0 time=2
 i : 8the msg is note_on channel=7 note=77 velocity=55 time=131
 i : 8the msg is note_on channel=7 note=81 velocity=64 time=1
 i : 8the msg is note_on channel=7 note=74 velocity=55 time=7
 i : 8the msg is note_on channel=7 note=74 velocity=0 time=71
 i : 8the msg is note_on channel=7 note=77 velocity=0 time=23
 i : 8the msg is note_on channel=7 note=81 velocity=0 time=12
 i : 8the msg is note_on channel=7 note=77 velocity=80 time=122
 i : 8the msg is note_on channel=7 note=81 velocity=78 time=3
 i : 8the msg is note_on channel=7 note=84 velocity=83 time=3
 i : 8the msg is note_on channel=7 note=77 velocity=0 time=114
 i : 8the msg is note_on channel=7 note=84 velocity=0 time=6
 i : 8the msg is note_on channel=7 note=81 velocity=0 time=11
 i : 8the msg is note_on channel=7 note=74 velocity=91 time=115
 i : 8the msg is note_on channel=7 note=83 velocity=98 time=1
 i : 8the msg is note_on channel=7 note=79 velocity=106 time=3
 i : 8the msg is note_on channel=7 note=81 velocity=46 time=22
 i : 8the msg is note_on channel=7 note=81 velocity=0 time=19
 i : 8the msg is note_on channel=7 note=79 velocity=0 time=332
 i : 8the msg is note_on channel=7 note=74 velocity=0 time=7
 i : 8the msg is note_on channel=7 note=83 velocity=0 time=29
 i : 8the msg is note_on channel=7 note=77 velocity=113 time=75
 i : 8the msg is note_on channel=7 note=81 velocity=96 time=0
 i : 8the msg is note_on channel=7 note=74 velocity=120 time=2
 i : 8the msg is note_on channel=7 note=74 velocity=0 time=878
 i : 8the msg is note_on channel=7 note=77 velocity=0 time=6
 i : 8the msg is note_on channel=7 note=81 velocity=0 time=8
 i : 8the msg is note_on channel=7 note=81 velocity=80 time=61
 i : 8the msg is note_on channel=7 note=77 velocity=73 time=2
 i : 8the msg is note_on channel=7 note=74 velocity=70 time=4
 i : 8the msg is note_on channel=7 note=74 velocity=0 time=95
 i : 8the msg is note_on channel=7 note=77 velocity=0 time=24
 i : 8the msg is note_on channel=7 note=81 velocity=0 time=11
 i : 8the msg is note_on channel=7 note=84 velocity=93 time=106
 i : 8the msg is note_on channel=7 note=77 velocity=96 time=5
 i : 8the msg is note_on channel=7 note=81 velocity=96 time=0
 i : 8the msg is note_on channel=7 note=81 velocity=0 time=118
 i : 8the msg is note_on channel=7 note=77 velocity=0 time=14
 i : 8the msg is note_on channel=7 note=84 velocity=0 time=6
 i : 8the msg is note_on channel=7 note=77 velocity=108 time=345
 i : 8the msg is note_on channel=7 note=81 velocity=111 time=0
 i : 8the msg is note_on channel=7 note=74 velocity=98 time=2
 i : 8the msg is note_on channel=7 note=74 velocity=0 time=884
 i : 8the msg is note_on channel=7 note=81 velocity=0 time=6
 i : 8the msg is note_on channel=7 note=77 velocity=0 time=0
 i : 8the msg is note_on channel=7 note=77 velocity=60 time=76
 i : 8the msg is note_on channel=7 note=81 velocity=73 time=2
 i : 8the msg is note_on channel=7 note=74 velocity=66 time=7
 i : 8the msg is note_on channel=7 note=74 velocity=0 time=76
 i : 8the msg is note_on channel=7 note=77 velocity=0 time=9
 i : 8the msg is note_on channel=7 note=81 velocity=0 time=4
 i : 8the msg is note_on channel=7 note=77 velocity=54 time=124
 i : 8the msg is note_on channel=7 note=81 velocity=61 time=1
 i : 8the msg is note_on channel=7 note=74 velocity=59 time=4
 i : 8the msg is note_on channel=7 note=74 velocity=0 time=75
 i : 8the msg is note_on channel=7 note=77 velocity=0 time=21
 i : 8the msg is note_on channel=7 note=81 velocity=0 time=6
 i : 8the msg is note_on channel=7 note=77 velocity=85 time=139
 i : 8the msg is note_on channel=7 note=81 velocity=83 time=1
 i : 8the msg is note_on channel=7 note=84 velocity=91 time=1
 i : 8the msg is note_on channel=7 note=77 velocity=0 time=105
 i : 8the msg is note_on channel=7 note=84 velocity=0 time=7
 i : 8the msg is note_on channel=7 note=81 velocity=0 time=2
 i : 8the msg is note_on channel=7 note=74 velocity=106 time=138
 i : 8the msg is note_on channel=7 note=79 velocity=103 time=1
 i : 8the msg is note_on channel=7 note=83 velocity=100 time=7
 i : 8the msg is note_on channel=7 note=74 velocity=0 time=340
 i : 8the msg is note_on channel=7 note=79 velocity=0 time=8
 i : 8the msg is note_on channel=7 note=83 velocity=0 time=28
 i : 8the msg is note_on channel=7 note=74 velocity=96 time=96
 i : 8the msg is note_on channel=7 note=77 velocity=108 time=5
 i : 8the msg is note_on channel=7 note=81 velocity=106 time=1
 i : 8the msg is note_on channel=7 note=77 velocity=0 time=804
 i : 8the msg is note_on channel=7 note=81 velocity=0 time=1
 i : 8the msg is note_on channel=7 note=74 velocity=0 time=4
 i : 8the msg is note_on channel=7 note=77 velocity=65 time=115
 i : 8the msg is note_on channel=7 note=81 velocity=70 time=1
 i : 8the msg is note_on channel=7 note=74 velocity=68 time=1
 i : 8the msg is note_on channel=7 note=74 velocity=0 time=77
 i : 8the msg is note_on channel=7 note=77 velocity=0 time=10
 i : 8the msg is note_on channel=7 note=81 velocity=0 time=8
 i : 8the msg is note_on channel=7 note=81 velocity=103 time=171
 i : 8the msg is note_on channel=7 note=84 velocity=91 time=0
 i : 8the msg is note_on channel=7 note=77 velocity=100 time=2
 i : 8the msg is note_on channel=7 note=84 velocity=0 time=132
 i : 8the msg is note_on channel=7 note=81 velocity=0 time=6
 i : 8the msg is note_on channel=7 note=77 velocity=0 time=3
 i : 8the msg is note_on channel=7 note=77 velocity=117 time=342
 i : 8the msg is note_on channel=7 note=74 velocity=108 time=1
 i : 8the msg is note_on channel=7 note=81 velocity=113 time=1
 i : 8the msg is note_on channel=7 note=74 velocity=0 time=836
 i : 8the msg is note_on channel=7 note=81 velocity=0 time=6
 i : 8the msg is note_on channel=7 note=77 velocity=0 time=3
 i : 8the msg is note_on channel=7 note=77 velocity=65 time=111
 i : 8the msg is note_on channel=7 note=81 velocity=70 time=1
 i : 8the msg is note_on channel=7 note=74 velocity=61 time=7
 i : 8the msg is note_on channel=7 note=74 velocity=0 time=64
 i : 8the msg is note_on channel=7 note=77 velocity=0 time=7
 i : 8the msg is note_on channel=7 note=81 velocity=0 time=5
 i : 8the msg is note_on channel=7 note=74 velocity=60 time=155
 i : 8the msg is note_on channel=7 note=77 velocity=61 time=0
 i : 8the msg is note_on channel=7 note=81 velocity=63 time=1
 i : 8the msg is note_on channel=7 note=74 velocity=0 time=64
 i : 8the msg is note_on channel=7 note=77 velocity=0 time=11
 i : 8the msg is note_on channel=7 note=81 velocity=0 time=3
 i : 8the msg is note_on channel=7 note=84 velocity=96 time=161
 i : 8the msg is note_on channel=7 note=81 velocity=96 time=1
 i : 8the msg is note_on channel=7 note=77 velocity=100 time=2
 i : 8the msg is note_on channel=7 note=77 velocity=0 time=89
 i : 8the msg is note_on channel=7 note=81 velocity=0 time=10
 i : 8the msg is note_on channel=7 note=84 velocity=0 time=7
 i : 8the msg is note_on channel=7 note=74 velocity=111 time=136
 i : 8the msg is note_on channel=7 note=83 velocity=93 time=2
 i : 8the msg is note_on channel=7 note=79 velocity=111 time=2
 i : 8the msg is note_on channel=7 note=74 velocity=0 time=357
 i : 8the msg is note_on channel=7 note=79 velocity=0 time=13
 i : 8the msg is note_on channel=7 note=83 velocity=0 time=15
 i : 8the msg is note_on channel=7 note=74 velocity=98 time=86
 i : 8the msg is note_on channel=7 note=81 velocity=98 time=0
 i : 8the msg is note_on channel=7 note=77 velocity=103 time=2
 i : 8the msg is note_on channel=7 note=74 velocity=0 time=828
 i : 8the msg is note_on channel=7 note=81 velocity=0 time=14
 i : 8the msg is note_on channel=7 note=77 velocity=0 time=3
 i : 8the msg is note_on channel=7 note=81 velocity=71 time=112
 i : 8the msg is note_on channel=7 note=74 velocity=71 time=2
 i : 8the msg is note_on channel=7 note=77 velocity=70 time=4
 i : 8the msg is note_on channel=7 note=74 velocity=0 time=78
 i : 8the msg is note_on channel=7 note=77 velocity=0 time=14
 i : 8the msg is note_on channel=7 note=81 velocity=0 time=16
 i : 8the msg is note_on channel=7 note=77 velocity=100 time=127
 i : 8the msg is note_on channel=7 note=84 velocity=108 time=1
 i : 8the msg is note_on channel=7 note=81 velocity=96 time=1
 i : 8the msg is note_on channel=7 note=77 velocity=0 time=146
 i : 8the msg is note_on channel=7 note=81 velocity=0 time=2
 i : 8the msg is note_on channel=7 note=84 velocity=0 time=1
 i : 8the msg is note_on channel=7 note=77 velocity=98 time=319
 i : 8the msg is note_on channel=7 note=81 velocity=98 time=2
 i : 8the msg is note_on channel=7 note=74 velocity=93 time=1
 i : 8the msg is note_on channel=7 note=77 velocity=0 time=854
 i : 8the msg is note_on channel=7 note=74 velocity=0 time=2
 i : 8the msg is note_on channel=7 note=81 velocity=0 time=2
 i : 8the msg is note_on channel=7 note=81 velocity=85 time=106
 i : 8the msg is note_on channel=7 note=77 velocity=83 time=3
 i : 8the msg is note_on channel=7 note=74 velocity=89 time=3
 i : 8the msg is note_on channel=7 note=77 velocity=0 time=87
 i : 8the msg is note_on channel=7 note=74 velocity=0 time=5
 i : 8the msg is note_on channel=7 note=81 velocity=0 time=8
 i : 8the msg is note_on channel=7 note=81 velocity=66 time=123
 i : 8the msg is note_on channel=7 note=74 velocity=67 time=2
 i : 8the msg is note_on channel=7 note=77 velocity=61 time=3
 i : 8the msg is note_on channel=7 note=77 velocity=0 time=76
 i : 8the msg is note_on channel=7 note=74 velocity=0 time=1
 i : 8the msg is note_on channel=7 note=81 velocity=0 time=10
 i : 8the msg is note_on channel=7 note=84 velocity=89 time=159
 i : 8the msg is note_on channel=7 note=77 velocity=103 time=1
 i : 8the msg is note_on channel=7 note=81 velocity=106 time=1
 i : 8the msg is note_on channel=7 note=84 velocity=0 time=89
 i : 8the msg is note_on channel=7 note=77 velocity=0 time=2
 i : 8the msg is note_on channel=7 note=81 velocity=0 time=4
 i : 8the msg is note_on channel=7 note=83 velocity=113 time=156
 i : 8the msg is note_on channel=7 note=74 velocity=113 time=1
 i : 8the msg is note_on channel=7 note=79 velocity=120 time=1
 i : 8the msg is note_on channel=7 note=74 velocity=0 time=341
 i : 8the msg is note_on channel=7 note=79 velocity=0 time=8
 i : 8the msg is note_on channel=7 note=83 velocity=0 time=9
 i : 8the msg is note_on channel=7 note=74 velocity=96 time=113
 i : 8the msg is note_on channel=7 note=77 velocity=113 time=5
 i : 8the msg is note_on channel=7 note=81 velocity=111 time=0
 i : 8the msg is note_on channel=7 note=74 velocity=0 time=792
 i : 8the msg is note_on channel=7 note=81 velocity=0 time=3
 i : 8the msg is note_on channel=7 note=77 velocity=0 time=1
 i : 8the msg is note_on channel=7 note=77 velocity=75 time=157
 i : 8the msg is note_on channel=7 note=74 velocity=77 time=3
 i : 8the msg is note_on channel=7 note=81 velocity=75 time=1
 i : 8the msg is note_on channel=7 note=77 velocity=0 time=78
 i : 8the msg is note_on channel=7 note=74 velocity=0 time=1
 i : 8the msg is note_on channel=7 note=81 velocity=0 time=4
 i : 8the msg is note_on channel=7 note=77 velocity=103 time=153
 i : 8the msg is note_on channel=7 note=84 velocity=98 time=2
 i : 8the msg is note_on channel=7 note=81 velocity=100 time=1
 i : 8the msg is note_on channel=7 note=81 velocity=0 time=99
 i : 8the msg is note_on channel=7 note=77 velocity=0 time=19
 i : 8the msg is note_on channel=7 note=84 velocity=0 time=1
 i : 8the msg is note_on channel=7 note=77 velocity=103 time=357
 i : 8the msg is note_on channel=7 note=81 velocity=103 time=1
 i : 8the msg is note_on channel=7 note=74 velocity=103 time=1
 i : 8the msg is note_on channel=7 note=74 velocity=0 time=803
 i : 8the msg is note_on channel=7 note=77 velocity=0 time=10
 i : 8the msg is note_on channel=7 note=81 velocity=0 time=1
 i : 8the msg is note_on channel=7 note=77 velocity=80 time=123
 i : 8the msg is note_on channel=7 note=81 velocity=78 time=1
 i : 8the msg is note_on channel=7 note=74 velocity=77 time=1
 i : 8the msg is note_on channel=7 note=74 velocity=0 time=82
 i : 8the msg is note_on channel=7 note=77 velocity=0 time=0
 i : 8the msg is note_on channel=7 note=81 velocity=0 time=3
 i : 8the msg is note_on channel=7 note=77 velocity=73 time=149
 i : 8the msg is note_on channel=7 note=81 velocity=73 time=1
 i : 8the msg is note_on channel=7 note=74 velocity=72 time=1
 i : 8the msg is note_on channel=7 note=74 velocity=0 time=80
 i : 8the msg is note_on channel=7 note=77 velocity=0 time=11
 i : 8the msg is note_on channel=7 note=81 velocity=0 time=1
 i : 8the msg is note_on channel=7 note=77 velocity=98 time=152
 i : 8the msg is note_on channel=7 note=81 velocity=100 time=1
 i : 8the msg is note_on channel=7 note=84 velocity=93 time=0
 i : 8the msg is note_on channel=7 note=77 velocity=0 time=110
 i : 8the msg is note_on channel=7 note=84 velocity=0 time=2
 i : 8the msg is note_on channel=7 note=81 velocity=0 time=8
 i : 8the msg is note_on channel=7 note=74 velocity=108 time=121
 i : 8the msg is note_on channel=7 note=83 velocity=113 time=1
 i : 8the msg is note_on channel=7 note=79 velocity=117 time=1
 i : 8the msg is note_on channel=7 note=79 velocity=0 time=359
 i : 8the msg is note_on channel=7 note=74 velocity=0 time=2
 i : 8the msg is note_on channel=7 note=83 velocity=0 time=2
 i : 8the msg is note_on channel=7 note=74 velocity=117 time=15716
 i : 8the msg is note_on channel=7 note=78 velocity=122 time=2
 i : 8the msg is note_on channel=7 note=69 velocity=96 time=2
 i : 8the msg is note_on channel=7 note=69 velocity=0 time=1863
 i : 8the msg is note_on channel=7 note=74 velocity=0 time=2
 i : 8the msg is note_on channel=7 note=78 velocity=0 time=1
 i : 8the msg is note_on channel=7 note=79 velocity=89 time=42
 i : 8the msg is note_on channel=7 note=71 velocity=69 time=8
 i : 8the msg is note_on channel=7 note=71 velocity=0 time=1816
 i : 8the msg is note_on channel=7 note=78 velocity=79 time=83
 i : 8the msg is note_on channel=7 note=74 velocity=86 time=9
 i : 8the msg is note_on channel=7 note=69 velocity=85 time=9
 i : 8the msg is note_on channel=7 note=79 velocity=0 time=21
 i : 8the msg is note_on channel=7 note=69 velocity=0 time=1837
 i : 8the msg is note_on channel=7 note=79 velocity=89 time=80
 i : 8the msg is note_on channel=7 note=71 velocity=91 time=1
 i : 8the msg is note_on channel=7 note=78 velocity=0 time=10
 i : 8the msg is note_on channel=7 note=74 velocity=0 time=1537
 i : 8the msg is note_on channel=7 note=79 velocity=0 time=52
 i : 8the msg is note_on channel=7 note=81 velocity=83 time=38
 i : 8the msg is note_on channel=7 note=77 velocity=82 time=5
 i : 8the msg is note_on channel=7 note=74 velocity=98 time=2
 i : 8the msg is note_on channel=7 note=71 velocity=0 time=47
 i : 8the msg is note_on channel=7 note=77 velocity=0 time=1085
 i : 8the msg is note_on channel=7 note=81 velocity=0 time=21
 i : 8the msg is note_on channel=7 note=77 velocity=91 time=64
 i : 8the msg is note_on channel=7 note=84 velocity=98 time=7
 i : 8the msg is note_on channel=7 note=81 velocity=103 time=2
 i : 8the msg is note_on channel=7 note=74 velocity=0 time=5
 i : 8the msg is note_on channel=7 note=84 velocity=0 time=177
 i : 8the msg is note_on channel=7 note=81 velocity=0 time=20
 i : 8the msg is note_on channel=7 note=77 velocity=0 time=11
 i : 8the msg is note_on channel=7 note=81 velocity=113 time=282
 i : 8the msg is note_on channel=7 note=77 velocity=117 time=1
 i : 8the msg is note_on channel=7 note=74 velocity=111 time=2
 i : 8the msg is note_on channel=7 note=74 velocity=0 time=2014
 i : 8the msg is note_on channel=7 note=79 velocity=82 time=112
 i : 8the msg is note_on channel=7 note=83 velocity=82 time=1
 i : 8the msg is note_on channel=7 note=74 velocity=108 time=4
 i : 8the msg is note_on channel=7 note=81 velocity=0 time=11
 i : 8the msg is note_on channel=7 note=77 velocity=0 time=23
 i : 8the msg is note_on channel=7 note=74 velocity=0 time=3696
 i : 8the msg is note_on channel=7 note=81 velocity=91 time=112
 i : 8the msg is note_on channel=7 note=77 velocity=89 time=5
 i : 8the msg is note_on channel=7 note=74 velocity=117 time=4
 i : 8the msg is note_on channel=7 note=79 velocity=0 time=29
 i : 8the msg is note_on channel=7 note=83 velocity=0 time=7
 i : 8the msg is note_on channel=7 note=81 velocity=0 time=1023
 i : 8the msg is note_on channel=7 note=77 velocity=0 time=17
 i : 8the msg is note_on channel=7 note=81 velocity=83 time=120
 i : 8the msg is note_on channel=7 note=77 velocity=75 time=1
 i : 8the msg is note_on channel=7 note=84 velocity=91 time=2
 i : 8the msg is note_on channel=7 note=74 velocity=0 time=59
 i : 8the msg is note_on channel=7 note=77 velocity=0 time=170
 i : 8the msg is note_on channel=7 note=81 velocity=0 time=3
 i : 8the msg is note_on channel=7 note=84 velocity=0 time=0
 i : 8the msg is note_on channel=7 note=77 velocity=108 time=260
 i : 8the msg is note_on channel=7 note=81 velocity=108 time=1
 i : 8the msg is note_on channel=7 note=74 velocity=106 time=2
 i : 8the msg is note_on channel=7 note=74 velocity=0 time=2078
 i : 8the msg is note_on channel=7 note=79 velocity=85 time=66
 i : 8the msg is note_on channel=7 note=83 velocity=77 time=0
 i : 8the msg is note_on channel=7 note=74 velocity=100 time=10
 i : 8the msg is note_on channel=7 note=81 velocity=0 time=1
 i : 8the msg is note_on channel=7 note=77 velocity=0 time=29
 i : 8the msg is note_on channel=7 note=83 velocity=0 time=3685
 i : 8the msg is note_on channel=7 note=79 velocity=0 time=5
 i : 8the msg is note_on channel=7 note=74 velocity=0 time=9
 i : 8the msg is note_on channel=7 note=74 velocity=83 time=97
 i : 8the msg is note_on channel=7 note=77 velocity=111 time=5
 i : 8the msg is note_on channel=7 note=81 velocity=106 time=1
 i : 8the msg is note_on channel=7 note=74 velocity=0 time=825
 i : 8the msg is note_on channel=7 note=77 velocity=0 time=14
 i : 8the msg is note_on channel=7 note=81 velocity=0 time=2
 i : 8the msg is note_on channel=7 note=81 velocity=58 time=101
 i : 8the msg is note_on channel=7 note=74 velocity=59 time=2
 i : 8the msg is note_on channel=7 note=77 velocity=53 time=1
 i : 8the msg is note_on channel=7 note=74 velocity=0 time=82
 i : 8the msg is note_on channel=7 note=77 velocity=0 time=8
 i : 8the msg is note_on channel=7 note=81 velocity=0 time=12
 i : 8the msg is note_on channel=7 note=84 velocity=86 time=140
 i : 8the msg is note_on channel=7 note=77 velocity=93 time=4
 i : 8the msg is note_on channel=7 note=81 velocity=96 time=0
 i : 8the msg is note_on channel=7 note=77 velocity=0 time=117
 i : 8the msg is note_on channel=7 note=81 velocity=0 time=7
 i : 8the msg is note_on channel=7 note=84 velocity=0 time=9
 i : 8the msg is note_on channel=7 note=81 velocity=111 time=381
 i : 8the msg is note_on channel=7 note=77 velocity=108 time=1
 i : 8the msg is note_on channel=7 note=74 velocity=100 time=3
 i : 8the msg is note_on channel=7 note=74 velocity=0 time=1107
 i : 8the msg is note_on channel=7 note=74 velocity=33 time=57
 i : 8the msg is note_on channel=7 note=77 velocity=0 time=138
 i : 8the msg is note_on channel=7 note=74 velocity=0 time=20
 i : 8the msg is note_on channel=7 note=81 velocity=0 time=12
 i : 8the msg is note_on channel=7 note=83 velocity=75 time=72
 i : 8the msg is note_on channel=7 note=74 velocity=93 time=1
 i : 8the msg is note_on channel=7 note=79 velocity=64 time=4
 i : 8the msg is note_on channel=7 note=79 velocity=0 time=73
 i : 8the msg is note_on channel=7 note=74 velocity=0 time=13
 i : 8the msg is note_on channel=7 note=83 velocity=0 time=5
 i : 8the msg is note_on channel=7 note=83 velocity=103 time=151
 i : 8the msg is note_on channel=7 note=74 velocity=111 time=4
 i : 8the msg is note_on channel=7 note=79 velocity=103 time=2
 i : 8the msg is note_on channel=7 note=74 velocity=0 time=362
 i : 8the msg is note_on channel=7 note=79 velocity=0 time=5
 i : 8the msg is note_on channel=7 note=83 velocity=0 time=32
 i : 8the msg is note_on channel=7 note=74 velocity=91 time=102
 i : 8the msg is note_on channel=7 note=77 velocity=103 time=2
 i : 8the msg is note_on channel=7 note=81 velocity=96 time=0
 i : 8the msg is note_on channel=7 note=74 velocity=0 time=856
 i : 8the msg is note_on channel=7 note=81 velocity=0 time=46
 i : 8the msg is note_on channel=7 note=77 velocity=0 time=2
 i : 8the msg is note_on channel=7 note=77 velocity=36 time=37
 i : 8the msg is note_on channel=7 note=74 velocity=70 time=1
 i : 8the msg is note_on channel=7 note=81 velocity=48 time=1
 i : 8the msg is note_on channel=7 note=74 velocity=0 time=85
 i : 8the msg is note_on channel=7 note=77 velocity=0 time=8
 i : 8the msg is note_on channel=7 note=81 velocity=0 time=3
 i : 8the msg is note_on channel=7 note=84 velocity=106 time=128
 i : 8the msg is note_on channel=7 note=81 velocity=113 time=1
 i : 8the msg is note_on channel=7 note=77 velocity=111 time=1
 i : 8the msg is note_on channel=7 note=81 velocity=0 time=136
 i : 8the msg is note_on channel=7 note=77 velocity=0 time=3
 i : 8the msg is note_on channel=7 note=84 velocity=0 time=0
 i : 8the msg is note_on channel=7 note=77 velocity=111 time=340
 i : 8the msg is note_on channel=7 note=74 velocity=93 time=3
 i : 8the msg is note_on channel=7 note=81 velocity=111 time=0
 i : 8the msg is note_on channel=7 note=74 velocity=0 time=1307
 i : 8the msg is note_on channel=7 note=81 velocity=0 time=2
 i : 8the msg is note_on channel=7 note=77 velocity=0 time=5
 i : 8the msg is note_on channel=7 note=77 velocity=73 time=115
 i : 8the msg is note_on channel=7 note=84 velocity=69 time=3
 i : 8the msg is note_on channel=7 note=81 velocity=85 time=3
 i : 8the msg is note_on channel=7 note=77 velocity=0 time=95
 i : 8the msg is note_on channel=7 note=84 velocity=0 time=6
 i : 8the msg is note_on channel=7 note=81 velocity=0 time=1
 i : 8the msg is note_on channel=7 note=79 velocity=93 time=142
 i : 8the msg is note_on channel=7 note=83 velocity=106 time=0
 i : 8the msg is note_on channel=7 note=74 velocity=98 time=2
 i : 8the msg is note_on channel=7 note=79 velocity=0 time=355
 i : 8the msg is note_on channel=7 note=74 velocity=0 time=4
 i : 8the msg is note_on channel=7 note=83 velocity=0 time=41
 i : 8the msg is note_on channel=7 note=81 velocity=91 time=86
 i : 8the msg is note_on channel=7 note=74 velocity=96 time=3
 i : 8the msg is note_on channel=7 note=77 velocity=108 time=0
 i : 8the msg is note_on channel=7 note=74 velocity=0 time=845
 i : 8the msg is note_on channel=7 note=74 velocity=75 time=98
 i : 8the msg is note_on channel=7 note=77 velocity=0 time=91
 i : 8the msg is note_on channel=7 note=74 velocity=0 time=9
 i : 8the msg is note_on channel=7 note=81 velocity=0 time=16
 i : 8the msg is note_on channel=7 note=84 velocity=85 time=117
 i : 8the msg is note_on channel=7 note=77 velocity=103 time=3
 i : 8the msg is note_on channel=7 note=81 velocity=100 time=0
 i : 8the msg is note_on channel=7 note=84 velocity=0 time=108
 i : 8the msg is note_on channel=7 note=81 velocity=0 time=3
 i : 8the msg is note_on channel=7 note=77 velocity=0 time=4
 i : 8the msg is note_on channel=7 note=77 velocity=111 time=365
 i : 8the msg is note_on channel=7 note=74 velocity=103 time=4
 i : 8the msg is note_on channel=7 note=81 velocity=108 time=0
 i : 8the msg is note_on channel=7 note=74 velocity=0 time=1059
 i : 8the msg is note_on channel=7 note=74 velocity=57 time=130
 i : 8the msg is note_on channel=7 note=77 velocity=0 time=80
 i : 8the msg is note_on channel=7 note=74 velocity=0 time=22
 i : 8the msg is note_on channel=7 note=81 velocity=0 time=2
 i : 8the msg is note_on channel=7 note=83 velocity=98 time=121
 i : 8the msg is note_on channel=7 note=79 velocity=89 time=1
 i : 8the msg is note_on channel=7 note=74 velocity=93 time=6
 i : 8the msg is note_on channel=7 note=74 velocity=0 time=85
 i : 8the msg is note_on channel=7 note=79 velocity=0 time=6
 i : 8the msg is note_on channel=7 note=83 velocity=0 time=8
 i : 8the msg is note_on channel=7 note=83 velocity=93 time=134
 i : 8the msg is note_on channel=7 note=74 velocity=106 time=8
 i : 8the msg is note_on channel=7 note=79 velocity=91 time=1
 i : 8the msg is note_on channel=7 note=74 velocity=0 time=330
 i : 8the msg is note_on channel=7 note=79 velocity=0 time=1
 i : 8the msg is note_on channel=7 note=83 velocity=0 time=40
 i : 8the msg is note_on channel=7 note=81 velocity=91 time=116
 i : 8the msg is note_on channel=7 note=77 velocity=96 time=1
 i : 8the msg is note_on channel=7 note=74 velocity=85 time=1
 i : 8the msg is note_on channel=7 note=74 velocity=0 time=835
 i : 8the msg is note_on channel=7 note=74 velocity=57 time=137
 i : 8the msg is note_on channel=7 note=81 velocity=0 time=67
 i : 8the msg is note_on channel=7 note=77 velocity=0 time=3
 i : 8the msg is note_on channel=7 note=74 velocity=0 time=11
 i : 8the msg is note_on channel=7 note=81 velocity=106 time=139
 i : 8the msg is note_on channel=7 note=84 velocity=100 time=0
 i : 8the msg is note_on channel=7 note=77 velocity=100 time=2
 i : 8the msg is note_on channel=7 note=77 velocity=0 time=111
 i : 8the msg is note_on channel=7 note=81 velocity=0 time=4
 i : 8the msg is note_on channel=7 note=84 velocity=0 time=10
 i : 8the msg is note_on channel=7 note=77 velocity=120 time=374
 i : 8the msg is note_on channel=7 note=81 velocity=117 time=2
 i : 8the msg is note_on channel=7 note=74 velocity=117 time=1
 i : 8the msg is note_on channel=7 note=74 velocity=0 time=1912
 i : 8the msg is note_on channel=7 note=77 velocity=0 time=9
 i : 8the msg is note_on channel=7 note=81 velocity=0 time=23
 i : 8the msg is note_on channel=7 note=78 velocity=107 time=15825
 i : 8the msg is note_on channel=7 note=74 velocity=96 time=2
 i : 8the msg is note_on channel=7 note=69 velocity=83 time=2
 i : 8the msg is note_on channel=7 note=74 velocity=0 time=1858
 i : 8the msg is note_on channel=7 note=78 velocity=0 time=2
 i : 8the msg is note_on channel=7 note=69 velocity=0 time=2
 i : 8the msg is note_on channel=7 note=79 velocity=89 time=28
 i : 8the msg is note_on channel=7 note=71 velocity=69 time=8
 i : 8the msg is note_on channel=7 note=71 velocity=0 time=1816
 i : 8the msg is note_on channel=7 note=78 velocity=79 time=83
 i : 8the msg is note_on channel=7 note=74 velocity=86 time=9
 i : 8the msg is note_on channel=7 note=69 velocity=85 time=9
 i : 8the msg is note_on channel=7 note=79 velocity=0 time=21
 i : 8the msg is note_on channel=7 note=69 velocity=0 time=1837
 i : 8the msg is note_on channel=7 note=79 velocity=89 time=80
 i : 8the msg is note_on channel=7 note=71 velocity=91 time=1
 i : 8the msg is note_on channel=7 note=78 velocity=0 time=10
 i : 8the msg is note_on channel=7 note=74 velocity=0 time=1537
 i : 8the msg is note_on channel=7 note=79 velocity=0 time=52
 i : 8the msg is note_on channel=7 note=81 velocity=83 time=38
 i : 8the msg is note_on channel=7 note=77 velocity=82 time=5
 i : 8the msg is note_on channel=7 note=74 velocity=98 time=2
 i : 8the msg is note_on channel=7 note=71 velocity=0 time=47
 i : 8the msg is note_on channel=7 note=77 velocity=0 time=1085
 i : 8the msg is note_on channel=7 note=81 velocity=0 time=21
 i : 8the msg is note_on channel=7 note=77 velocity=91 time=64
 i : 8the msg is note_on channel=7 note=84 velocity=98 time=7
 i : 8the msg is note_on channel=7 note=81 velocity=103 time=2
 i : 8the msg is note_on channel=7 note=74 velocity=0 time=5
 i : 8the msg is note_on channel=7 note=84 velocity=0 time=177
 i : 8the msg is note_on channel=7 note=81 velocity=0 time=20
 i : 8the msg is note_on channel=7 note=77 velocity=0 time=11
 i : 8the msg is note_on channel=7 note=81 velocity=113 time=282
 i : 8the msg is note_on channel=7 note=77 velocity=117 time=1
 i : 8the msg is note_on channel=7 note=74 velocity=111 time=2
 i : 8the msg is note_on channel=7 note=74 velocity=0 time=2014
 i : 8the msg is note_on channel=7 note=79 velocity=82 time=112
 i : 8the msg is note_on channel=7 note=83 velocity=82 time=1
 i : 8the msg is note_on channel=7 note=74 velocity=108 time=4
 i : 8the msg is note_on channel=7 note=81 velocity=0 time=11
 i : 8the msg is note_on channel=7 note=77 velocity=0 time=23
 i : 8the msg is note_on channel=7 note=74 velocity=0 time=3696
 i : 8the msg is note_on channel=7 note=81 velocity=91 time=112
 i : 8the msg is note_on channel=7 note=77 velocity=89 time=5
 i : 8the msg is note_on channel=7 note=74 velocity=117 time=4
 i : 8the msg is note_on channel=7 note=79 velocity=0 time=29
 i : 8the msg is note_on channel=7 note=83 velocity=0 time=7
 i : 8the msg is note_on channel=7 note=81 velocity=0 time=1023
 i : 8the msg is note_on channel=7 note=77 velocity=0 time=17
 i : 8the msg is note_on channel=7 note=81 velocity=83 time=120
 i : 8the msg is note_on channel=7 note=77 velocity=75 time=1
 i : 8the msg is note_on channel=7 note=84 velocity=91 time=2
 i : 8the msg is note_on channel=7 note=74 velocity=0 time=59
 i : 8the msg is note_on channel=7 note=77 velocity=0 time=170
 i : 8the msg is note_on channel=7 note=81 velocity=0 time=3
 i : 8the msg is note_on channel=7 note=84 velocity=0 time=0
 i : 8the msg is note_on channel=7 note=77 velocity=108 time=260
 i : 8the msg is note_on channel=7 note=81 velocity=108 time=1
 i : 8the msg is note_on channel=7 note=74 velocity=106 time=2
 i : 8the msg is note_on channel=7 note=74 velocity=0 time=2078
 i : 8the msg is note_on channel=7 note=79 velocity=85 time=66
 i : 8the msg is note_on channel=7 note=83 velocity=77 time=0
 i : 8the msg is note_on channel=7 note=74 velocity=100 time=10
 i : 8the msg is note_on channel=7 note=81 velocity=0 time=1
 i : 8the msg is note_on channel=7 note=77 velocity=0 time=29
 i : 8the msg is note_on channel=7 note=83 velocity=0 time=3685
 i : 8the msg is note_on channel=7 note=79 velocity=0 time=5
 i : 8the msg is note_on channel=7 note=74 velocity=0 time=9
 i : 8the msg is note_on channel=7 note=74 velocity=83 time=97
 i : 8the msg is note_on channel=7 note=77 velocity=111 time=5
 i : 8the msg is note_on channel=7 note=81 velocity=106 time=1
 i : 8the msg is note_on channel=7 note=74 velocity=0 time=825
 i : 8the msg is note_on channel=7 note=77 velocity=0 time=14
 i : 8the msg is note_on channel=7 note=81 velocity=0 time=2
 i : 8the msg is note_on channel=7 note=81 velocity=58 time=101
 i : 8the msg is note_on channel=7 note=74 velocity=59 time=2
 i : 8the msg is note_on channel=7 note=77 velocity=53 time=1
 i : 8the msg is note_on channel=7 note=74 velocity=0 time=82
 i : 8the msg is note_on channel=7 note=77 velocity=0 time=8
 i : 8the msg is note_on channel=7 note=81 velocity=0 time=12
 i : 8the msg is note_on channel=7 note=84 velocity=86 time=140
 i : 8the msg is note_on channel=7 note=77 velocity=93 time=4
 i : 8the msg is note_on channel=7 note=81 velocity=96 time=0
 i : 8the msg is note_on channel=7 note=77 velocity=0 time=117
 i : 8the msg is note_on channel=7 note=81 velocity=0 time=7
 i : 8the msg is note_on channel=7 note=84 velocity=0 time=9
 i : 8the msg is note_on channel=7 note=81 velocity=111 time=381
 i : 8the msg is note_on channel=7 note=77 velocity=108 time=1
 i : 8the msg is note_on channel=7 note=74 velocity=100 time=3
 i : 8the msg is note_on channel=7 note=74 velocity=0 time=1107
 i : 8the msg is note_on channel=7 note=74 velocity=33 time=57
 i : 8the msg is note_on channel=7 note=77 velocity=0 time=138
 i : 8the msg is note_on channel=7 note=74 velocity=0 time=20
 i : 8the msg is note_on channel=7 note=81 velocity=0 time=12
 i : 8the msg is note_on channel=7 note=83 velocity=75 time=72
 i : 8the msg is note_on channel=7 note=74 velocity=93 time=1
 i : 8the msg is note_on channel=7 note=79 velocity=64 time=4
 i : 8the msg is note_on channel=7 note=79 velocity=0 time=73
 i : 8the msg is note_on channel=7 note=74 velocity=0 time=13
 i : 8the msg is note_on channel=7 note=83 velocity=0 time=5
 i : 8the msg is note_on channel=7 note=83 velocity=103 time=151
 i : 8the msg is note_on channel=7 note=74 velocity=111 time=4
 i : 8the msg is note_on channel=7 note=79 velocity=103 time=2
 i : 8the msg is note_on channel=7 note=74 velocity=0 time=362
 i : 8the msg is note_on channel=7 note=79 velocity=0 time=5
 i : 8the msg is note_on channel=7 note=83 velocity=0 time=32
 i : 8the msg is note_on channel=7 note=74 velocity=91 time=102
 i : 8the msg is note_on channel=7 note=77 velocity=103 time=2
 i : 8the msg is note_on channel=7 note=81 velocity=96 time=0
 i : 8the msg is note_on channel=7 note=74 velocity=0 time=856
 i : 8the msg is note_on channel=7 note=81 velocity=0 time=46
 i : 8the msg is note_on channel=7 note=77 velocity=0 time=2
 i : 8the msg is note_on channel=7 note=77 velocity=36 time=37
 i : 8the msg is note_on channel=7 note=74 velocity=70 time=1
 i : 8the msg is note_on channel=7 note=81 velocity=48 time=1
 i : 8the msg is note_on channel=7 note=74 velocity=0 time=85
 i : 8the msg is note_on channel=7 note=77 velocity=0 time=8
 i : 8the msg is note_on channel=7 note=81 velocity=0 time=3
 i : 8the msg is note_on channel=7 note=84 velocity=106 time=128
 i : 8the msg is note_on channel=7 note=81 velocity=113 time=1
 i : 8the msg is note_on channel=7 note=77 velocity=111 time=1
 i : 8the msg is note_on channel=7 note=81 velocity=0 time=136
 i : 8the msg is note_on channel=7 note=77 velocity=0 time=3
 i : 8the msg is note_on channel=7 note=84 velocity=0 time=0
 i : 8the msg is note_on channel=7 note=77 velocity=111 time=340
 i : 8the msg is note_on channel=7 note=74 velocity=93 time=3
 i : 8the msg is note_on channel=7 note=81 velocity=111 time=0
 i : 8the msg is note_on channel=7 note=74 velocity=0 time=1307
 i : 8the msg is note_on channel=7 note=81 velocity=0 time=2
 i : 8the msg is note_on channel=7 note=77 velocity=0 time=5
 i : 8the msg is note_on channel=7 note=77 velocity=73 time=115
 i : 8the msg is note_on channel=7 note=84 velocity=69 time=3
 i : 8the msg is note_on channel=7 note=81 velocity=85 time=3
 i : 8the msg is note_on channel=7 note=77 velocity=0 time=95
 i : 8the msg is note_on channel=7 note=84 velocity=0 time=6
 i : 8the msg is note_on channel=7 note=81 velocity=0 time=1
 i : 8the msg is note_on channel=7 note=79 velocity=93 time=142
 i : 8the msg is note_on channel=7 note=83 velocity=106 time=0
 i : 8the msg is note_on channel=7 note=74 velocity=98 time=2
 i : 8the msg is note_on channel=7 note=79 velocity=0 time=355
 i : 8the msg is note_on channel=7 note=74 velocity=0 time=4
 i : 8the msg is note_on channel=7 note=83 velocity=0 time=41
 i : 8the msg is note_on channel=7 note=81 velocity=91 time=86
 i : 8the msg is note_on channel=7 note=74 velocity=96 time=3
 i : 8the msg is note_on channel=7 note=77 velocity=108 time=0
 i : 8the msg is note_on channel=7 note=74 velocity=0 time=845
 i : 8the msg is note_on channel=7 note=74 velocity=75 time=98
 i : 8the msg is note_on channel=7 note=77 velocity=0 time=91
 i : 8the msg is note_on channel=7 note=74 velocity=0 time=9
 i : 8the msg is note_on channel=7 note=81 velocity=0 time=16
 i : 8the msg is note_on channel=7 note=84 velocity=85 time=117
 i : 8the msg is note_on channel=7 note=77 velocity=103 time=3
 i : 8the msg is note_on channel=7 note=81 velocity=100 time=0
 i : 8the msg is note_on channel=7 note=84 velocity=0 time=108
 i : 8the msg is note_on channel=7 note=81 velocity=0 time=3
 i : 8the msg is note_on channel=7 note=77 velocity=0 time=4
 i : 8the msg is note_on channel=7 note=77 velocity=111 time=365
 i : 8the msg is note_on channel=7 note=74 velocity=103 time=4
 i : 8the msg is note_on channel=7 note=81 velocity=108 time=0
 i : 8the msg is note_on channel=7 note=74 velocity=0 time=1059
 i : 8the msg is note_on channel=7 note=74 velocity=57 time=130
 i : 8the msg is note_on channel=7 note=77 velocity=0 time=80
 i : 8the msg is note_on channel=7 note=74 velocity=0 time=22
 i : 8the msg is note_on channel=7 note=81 velocity=0 time=2
 i : 8the msg is note_on channel=7 note=83 velocity=98 time=121
 i : 8the msg is note_on channel=7 note=79 velocity=89 time=1
 i : 8the msg is note_on channel=7 note=74 velocity=93 time=6
 i : 8the msg is note_on channel=7 note=74 velocity=0 time=85
 i : 8the msg is note_on channel=7 note=79 velocity=0 time=6
 i : 8the msg is note_on channel=7 note=83 velocity=0 time=8
 i : 8the msg is note_on channel=7 note=83 velocity=93 time=134
 i : 8the msg is note_on channel=7 note=74 velocity=106 time=8
 i : 8the msg is note_on channel=7 note=79 velocity=91 time=1
 i : 8the msg is note_on channel=7 note=74 velocity=0 time=330
 i : 8the msg is note_on channel=7 note=79 velocity=0 time=1
 i : 8the msg is note_on channel=7 note=83 velocity=0 time=40
 i : 8the msg is note_on channel=7 note=81 velocity=91 time=116
 i : 8the msg is note_on channel=7 note=77 velocity=96 time=1
 i : 8the msg is note_on channel=7 note=74 velocity=85 time=1
 i : 8the msg is note_on channel=7 note=74 velocity=0 time=835
 i : 8the msg is note_on channel=7 note=74 velocity=57 time=137
 i : 8the msg is note_on channel=7 note=81 velocity=0 time=67
 i : 8the msg is note_on channel=7 note=77 velocity=0 time=3
 i : 8the msg is note_on channel=7 note=74 velocity=0 time=11
 i : 8the msg is note_on channel=7 note=81 velocity=106 time=139
 i : 8the msg is note_on channel=7 note=84 velocity=100 time=0
 i : 8the msg is note_on channel=7 note=77 velocity=100 time=2
 i : 8the msg is note_on channel=7 note=77 velocity=0 time=111
 i : 8the msg is note_on channel=7 note=81 velocity=0 time=4
 i : 8the msg is note_on channel=7 note=84 velocity=0 time=10
 i : 8the msg is note_on channel=7 note=77 velocity=120 time=374
 i : 8the msg is note_on channel=7 note=81 velocity=117 time=2
 i : 8the msg is note_on channel=7 note=74 velocity=117 time=1
 i : 8the msg is note_on channel=7 note=74 velocity=0 time=1912
 i : 8the msg is note_on channel=7 note=77 velocity=0 time=9
 i : 8the msg is note_on channel=7 note=81 velocity=0 time=23
 i : 8the msg is note_on channel=7 note=78 velocity=100 time=15803
 i : 8the msg is note_on channel=7 note=74 velocity=89 time=5
 i : 8the msg is note_on channel=7 note=69 velocity=80 time=5
 i : 8the msg is note_on channel=7 note=78 velocity=0 time=1851
 i : 8the msg is note_on channel=7 note=69 velocity=0 time=3
 i : 8the msg is note_on channel=7 note=74 velocity=0 time=3
 i : 8the msg is note_on channel=7 note=79 velocity=96 time=65
 i : 8the msg is note_on channel=7 note=71 velocity=75 time=3
 i : 8the msg is note_on channel=7 note=71 velocity=0 time=1838
 i : 8the msg is note_on channel=7 note=78 velocity=92 time=88
 i : 8the msg is note_on channel=7 note=74 velocity=98 time=2
 i : 8the msg is note_on channel=7 note=69 velocity=100 time=15
 i : 8the msg is note_on channel=7 note=79 velocity=0 time=15
 i : 8the msg is note_on channel=7 note=69 velocity=0 time=1787
 i : 8the msg is note_on channel=7 note=79 velocity=89 time=119
 i : 8the msg is note_on channel=7 note=71 velocity=80 time=4
 i : 8the msg is note_on channel=7 note=78 velocity=0 time=21
 i : 8the msg is note_on channel=7 note=74 velocity=0 time=1429
 i : 8the msg is note_on channel=7 note=71 velocity=0 time=12
 i : 8the msg is note_on channel=7 note=79 velocity=0 time=70
 i : 8the msg is note_on channel=7 note=77 velocity=85 time=127
 i : 8the msg is note_on channel=7 note=81 velocity=83 time=1
 i : 8the msg is note_on channel=7 note=74 velocity=86 time=4
 i : 8the msg is note_on channel=7 note=74 velocity=0 time=820
 i : 8the msg is note_on channel=7 note=81 velocity=0 time=2
 i : 8the msg is note_on channel=7 note=77 velocity=0 time=14
 i : 8the msg is note_on channel=7 note=77 velocity=71 time=110
 i : 8the msg is note_on channel=7 note=81 velocity=73 time=3
 i : 8the msg is note_on channel=7 note=74 velocity=61 time=9
 i : 8the msg is note_on channel=7 note=74 velocity=0 time=66
 i : 8the msg is note_on channel=7 note=77 velocity=0 time=41
 i : 8the msg is note_on channel=7 note=81 velocity=0 time=6
 i : 8the msg is note_on channel=7 note=84 velocity=91 time=126
 i : 8the msg is note_on channel=7 note=77 velocity=96 time=9
 i : 8the msg is note_on channel=7 note=81 velocity=96 time=1
 i : 8the msg is note_on channel=7 note=81 velocity=0 time=159
 i : 8the msg is note_on channel=7 note=84 velocity=0 time=4
 i : 8the msg is note_on channel=7 note=77 velocity=0 time=15
 i : 8the msg is note_on channel=7 note=74 velocity=91 time=296
 i : 8the msg is note_on channel=7 note=77 velocity=98 time=1
 i : 8the msg is note_on channel=7 note=81 velocity=106 time=3
 i : 8the msg is note_on channel=7 note=74 velocity=0 time=2087
 i : 8the msg is note_on channel=7 note=83 velocity=86 time=29
 i : 8the msg is note_on channel=7 note=74 velocity=58 time=2
 i : 8the msg is note_on channel=7 note=79 velocity=83 time=4
 i : 8the msg is note_on channel=7 note=81 velocity=0 time=29
 i : 8the msg is note_on channel=7 note=77 velocity=0 time=13
 i : 8the msg is note_on channel=7 note=74 velocity=0 time=3646
 i : 8the msg is note_on channel=7 note=79 velocity=0 time=111
 i : 8the msg is note_on channel=7 note=77 velocity=86 time=31
 i : 8the msg is note_on channel=7 note=81 velocity=96 time=1
 i : 8the msg is note_on channel=7 note=74 velocity=120 time=13
 i : 8the msg is note_on channel=7 note=83 velocity=0 time=31
 i : 8the msg is note_on channel=7 note=74 velocity=0 time=803
 i : 8the msg is note_on channel=7 note=77 velocity=0 time=20
 i : 8the msg is note_on channel=7 note=81 velocity=0 time=2
 i : 8the msg is note_on channel=7 note=81 velocity=80 time=121
 i : 8the msg is note_on channel=7 note=77 velocity=78 time=2
 i : 8the msg is note_on channel=7 note=74 velocity=83 time=1
 i : 8the msg is note_on channel=7 note=74 velocity=0 time=100
 i : 8the msg is note_on channel=7 note=77 velocity=0 time=10
 i : 8the msg is note_on channel=7 note=81 velocity=0 time=22
 i : 8the msg is note_on channel=7 note=84 velocity=93 time=123
 i : 8the msg is note_on channel=7 note=77 velocity=100 time=3
 i : 8the msg is note_on channel=7 note=81 velocity=103 time=0
 i : 8the msg is note_on channel=7 note=84 velocity=0 time=157
 i : 8the msg is note_on channel=7 note=81 velocity=0 time=1
 i : 8the msg is note_on channel=7 note=77 velocity=0 time=13
 i : 8the msg is note_on channel=7 note=74 velocity=98 time=311
 i : 8the msg is note_on channel=7 note=77 velocity=100 time=0
 i : 8the msg is note_on channel=7 note=81 velocity=98 time=1
 i : 8the msg is note_on channel=7 note=74 velocity=0 time=2047
 i : 8the msg is note_on channel=7 note=83 velocity=83 time=97
 i : 8the msg is note_on channel=7 note=79 velocity=89 time=2
 i : 8the msg is note_on channel=7 note=81 velocity=0 time=3
 i : 8the msg is note_on channel=7 note=74 velocity=111 time=4
 i : 8the msg is note_on channel=7 note=77 velocity=0 time=27
 i : 8the msg is note_on channel=7 note=74 velocity=0 time=3647
 i : 8the msg is note_on channel=7 note=79 velocity=0 time=17
 i : 8the msg is note_on channel=7 note=83 velocity=0 time=33
 i : 8the msg is note_on channel=7 note=74 velocity=120 time=97
 i : 8the msg is note_on channel=7 note=77 velocity=108 time=0
 i : 8the msg is note_on channel=7 note=81 velocity=100 time=0
 i : 8the msg is note_on channel=7 note=74 velocity=0 time=864
 i : 8the msg is note_on channel=7 note=77 velocity=0 time=15
 i : 8the msg is note_on channel=7 note=81 velocity=0 time=5
 i : 8the msg is note_on channel=7 note=74 velocity=93 time=76
 i : 8the msg is note_on channel=7 note=77 velocity=98 time=0
 i : 8the msg is note_on channel=7 note=81 velocity=96 time=0
 i : 8the msg is note_on channel=7 note=74 velocity=0 time=100
 i : 8the msg is note_on channel=7 note=77 velocity=0 time=34
 i : 8the msg is note_on channel=7 note=81 velocity=0 time=18
 i : 8the msg is note_on channel=7 note=77 velocity=98 time=88
 i : 8the msg is note_on channel=7 note=81 velocity=93 time=0
 i : 8the msg is note_on channel=7 note=84 velocity=86 time=0
 i : 8the msg is note_on channel=7 note=84 velocity=0 time=153
 i : 8the msg is note_on channel=7 note=81 velocity=0 time=9
 i : 8the msg is note_on channel=7 note=77 velocity=0 time=1
 i : 8the msg is note_on channel=7 note=74 velocity=103 time=317
 i : 8the msg is note_on channel=7 note=77 velocity=111 time=0
 i : 8the msg is note_on channel=7 note=81 velocity=117 time=0
 i : 8the msg is note_on channel=7 note=74 velocity=0 time=892
 i : 8the msg is note_on channel=7 note=81 velocity=0 time=18
 i : 8the msg is note_on channel=7 note=77 velocity=0 time=1
 i : 8the msg is note_on channel=7 note=74 velocity=85 time=49
 i : 8the msg is note_on channel=7 note=77 velocity=96 time=0
 i : 8the msg is note_on channel=7 note=81 velocity=96 time=0
 i : 8the msg is note_on channel=7 note=74 velocity=0 time=92
 i : 8the msg is note_on channel=7 note=77 velocity=0 time=25
 i : 8the msg is note_on channel=7 note=81 velocity=0 time=4
 i : 8the msg is note_on channel=7 note=74 velocity=68 time=119
 i : 8the msg is note_on channel=7 note=77 velocity=70 time=0
 i : 8the msg is note_on channel=7 note=81 velocity=82 time=0
 i : 8the msg is note_on channel=7 note=74 velocity=0 time=74
 i : 8the msg is note_on channel=7 note=77 velocity=0 time=70
 i : 8the msg is note_on channel=7 note=81 velocity=0 time=1
 i : 8the msg is note_on channel=7 note=77 velocity=86 time=95
 i : 8the msg is note_on channel=7 note=81 velocity=82 time=0
 i : 8the msg is note_on channel=7 note=84 velocity=82 time=0
 i : 8the msg is note_on channel=7 note=77 velocity=0 time=117
 i : 8the msg is note_on channel=7 note=81 velocity=0 time=17
 i : 8the msg is note_on channel=7 note=84 velocity=0 time=10
 i : 8the msg is note_on channel=7 note=74 velocity=100 time=96
 i : 8the msg is note_on channel=7 note=79 velocity=100 time=0
 i : 8the msg is note_on channel=7 note=83 velocity=103 time=0
 i : 8the msg is note_on channel=7 note=74 velocity=0 time=373
 i : 8the msg is note_on channel=7 note=79 velocity=0 time=10
 i : 8the msg is note_on channel=7 note=83 velocity=0 time=31
 i : 8the msg is note_on channel=7 note=74 velocity=100 time=66
 i : 8the msg is note_on channel=7 note=77 velocity=108 time=0
 i : 8the msg is note_on channel=7 note=81 velocity=100 time=0
 i : 8the msg is note_on channel=7 note=74 velocity=0 time=853
 i : 8the msg is note_on channel=7 note=77 velocity=0 time=15
 i : 8the msg is note_on channel=7 note=81 velocity=0 time=7
 i : 8the msg is note_on channel=7 note=74 velocity=80 time=85
 i : 8the msg is note_on channel=7 note=77 velocity=77 time=0
 i : 8the msg is note_on channel=7 note=81 velocity=77 time=0
 i : 8the msg is note_on channel=7 note=74 velocity=0 time=104
 i : 8the msg is note_on channel=7 note=77 velocity=0 time=28
 i : 8the msg is note_on channel=7 note=81 velocity=0 time=5
 i : 8the msg is note_on channel=7 note=77 velocity=96 time=103
 i : 8the msg is note_on channel=7 note=81 velocity=98 time=0
 i : 8the msg is note_on channel=7 note=84 velocity=91 time=0
 i : 8the msg is note_on channel=7 note=84 velocity=0 time=162
 i : 8the msg is note_on channel=7 note=81 velocity=0 time=20
 i : 8the msg is note_on channel=7 note=77 velocity=0 time=4
 i : 8the msg is note_on channel=7 note=74 velocity=93 time=294
 i : 8the msg is note_on channel=7 note=77 velocity=100 time=0
 i : 8the msg is note_on channel=7 note=81 velocity=100 time=0
 i : 8the msg is note_on channel=7 note=74 velocity=0 time=864
 i : 8the msg is note_on channel=7 note=77 velocity=0 time=16
 i : 8the msg is note_on channel=7 note=81 velocity=0 time=10
 i : 8the msg is note_on channel=7 note=74 velocity=72 time=70
 i : 8the msg is note_on channel=7 note=77 velocity=71 time=0
 i : 8the msg is note_on channel=7 note=81 velocity=73 time=0
 i : 8the msg is note_on channel=7 note=74 velocity=0 time=89
 i : 8the msg is note_on channel=7 note=77 velocity=0 time=18
 i : 8the msg is note_on channel=7 note=81 velocity=0 time=14
 i : 8the msg is note_on channel=7 note=74 velocity=67 time=119
 i : 8the msg is note_on channel=7 note=77 velocity=70 time=0
 i : 8the msg is note_on channel=7 note=81 velocity=71 time=0
 i : 8the msg is note_on channel=7 note=74 velocity=0 time=82
 i : 8the msg is note_on channel=7 note=77 velocity=0 time=41
 i : 8the msg is note_on channel=7 note=81 velocity=0 time=11
 i : 8the msg is note_on channel=7 note=77 velocity=100 time=106
 i : 8the msg is note_on channel=7 note=81 velocity=96 time=0
 i : 8the msg is note_on channel=7 note=84 velocity=82 time=0
 i : 8the msg is note_on channel=7 note=77 velocity=0 time=128
 i : 8the msg is note_on channel=7 note=84 velocity=0 time=12
 i : 8the msg is note_on channel=7 note=81 velocity=0 time=2
 i : 8the msg is note_on channel=7 note=74 velocity=117 time=98
 i : 8the msg is note_on channel=7 note=79 velocity=111 time=0
 i : 8the msg is note_on channel=7 note=83 velocity=111 time=0
 i : 8the msg is note_on channel=7 note=74 velocity=0 time=405
 i : 8the msg is note_on channel=7 note=79 velocity=0 time=1
 i : 8the msg is note_on channel=7 note=83 velocity=0 time=12
 i : 8the msg is note_on channel=7 note=74 velocity=120 time=62
 i : 8the msg is note_on channel=7 note=77 velocity=108 time=0
 i : 8the msg is note_on channel=7 note=81 velocity=100 time=0
 i : 8the msg is note_on channel=7 note=74 velocity=0 time=864
 i : 8the msg is note_on channel=7 note=77 velocity=0 time=15
 i : 8the msg is note_on channel=7 note=81 velocity=0 time=5
 i : 8the msg is note_on channel=7 note=74 velocity=93 time=76
 i : 8the msg is note_on channel=7 note=77 velocity=98 time=0
 i : 8the msg is note_on channel=7 note=81 velocity=96 time=0
 i : 8the msg is note_on channel=7 note=74 velocity=0 time=100
 i : 8the msg is note_on channel=7 note=77 velocity=0 time=34
 i : 8the msg is note_on channel=7 note=81 velocity=0 time=18
 i : 8the msg is note_on channel=7 note=77 velocity=98 time=88
 i : 8the msg is note_on channel=7 note=81 velocity=93 time=0
 i : 8the msg is note_on channel=7 note=84 velocity=86 time=0
 i : 8the msg is note_on channel=7 note=84 velocity=0 time=153
 i : 8the msg is note_on channel=7 note=81 velocity=0 time=9
 i : 8the msg is note_on channel=7 note=77 velocity=0 time=1
 i : 8the msg is note_on channel=7 note=74 velocity=103 time=317
 i : 8the msg is note_on channel=7 note=77 velocity=111 time=0
 i : 8the msg is note_on channel=7 note=81 velocity=117 time=0
 i : 8the msg is note_on channel=7 note=74 velocity=0 time=892
 i : 8the msg is note_on channel=7 note=81 velocity=0 time=18
 i : 8the msg is note_on channel=7 note=77 velocity=0 time=1
 i : 8the msg is note_on channel=7 note=74 velocity=85 time=49
 i : 8the msg is note_on channel=7 note=77 velocity=96 time=0
 i : 8the msg is note_on channel=7 note=81 velocity=96 time=0
 i : 8the msg is note_on channel=7 note=74 velocity=0 time=92
 i : 8the msg is note_on channel=7 note=77 velocity=0 time=25
 i : 8the msg is note_on channel=7 note=81 velocity=0 time=4
 i : 8the msg is note_on channel=7 note=74 velocity=68 time=119
 i : 8the msg is note_on channel=7 note=77 velocity=70 time=0
 i : 8the msg is note_on channel=7 note=81 velocity=82 time=0
 i : 8the msg is note_on channel=7 note=74 velocity=0 time=74
 i : 8the msg is note_on channel=7 note=77 velocity=0 time=70
 i : 8the msg is note_on channel=7 note=81 velocity=0 time=1
 i : 8the msg is note_on channel=7 note=77 velocity=86 time=95
 i : 8the msg is note_on channel=7 note=81 velocity=82 time=0
 i : 8the msg is note_on channel=7 note=84 velocity=82 time=0
 i : 8the msg is note_on channel=7 note=77 velocity=0 time=117
 i : 8the msg is note_on channel=7 note=81 velocity=0 time=17
 i : 8the msg is note_on channel=7 note=84 velocity=0 time=10
 i : 8the msg is note_on channel=7 note=74 velocity=100 time=96
 i : 8the msg is note_on channel=7 note=79 velocity=100 time=0
 i : 8the msg is note_on channel=7 note=83 velocity=103 time=0
 i : 8the msg is note_on channel=7 note=74 velocity=0 time=373
 i : 8the msg is note_on channel=7 note=79 velocity=0 time=10
 i : 8the msg is note_on channel=7 note=83 velocity=0 time=31
 i : 8the msg is note_on channel=7 note=74 velocity=100 time=66
 i : 8the msg is note_on channel=7 note=77 velocity=108 time=0
 i : 8the msg is note_on channel=7 note=81 velocity=100 time=0
 i : 8the msg is note_on channel=7 note=74 velocity=0 time=853
 i : 8the msg is note_on channel=7 note=77 velocity=0 time=15
 i : 8the msg is note_on channel=7 note=81 velocity=0 time=7
 i : 8the msg is note_on channel=7 note=74 velocity=80 time=85
 i : 8the msg is note_on channel=7 note=77 velocity=77 time=0
 i : 8the msg is note_on channel=7 note=81 velocity=77 time=0
 i : 8the msg is note_on channel=7 note=74 velocity=0 time=104
 i : 8the msg is note_on channel=7 note=77 velocity=0 time=28
 i : 8the msg is note_on channel=7 note=81 velocity=0 time=5
 i : 8the msg is note_on channel=7 note=77 velocity=96 time=103
 i : 8the msg is note_on channel=7 note=81 velocity=98 time=0
 i : 8the msg is note_on channel=7 note=84 velocity=91 time=0
 i : 8the msg is note_on channel=7 note=84 velocity=0 time=162
 i : 8the msg is note_on channel=7 note=81 velocity=0 time=20
 i : 8the msg is note_on channel=7 note=77 velocity=0 time=4
 i : 8the msg is note_on channel=7 note=74 velocity=93 time=294
 i : 8the msg is note_on channel=7 note=77 velocity=100 time=0
 i : 8the msg is note_on channel=7 note=81 velocity=100 time=0
 i : 8the msg is note_on channel=7 note=74 velocity=0 time=864
 i : 8the msg is note_on channel=7 note=77 velocity=0 time=16
 i : 8the msg is note_on channel=7 note=81 velocity=0 time=10
 i : 8the msg is note_on channel=7 note=74 velocity=72 time=70
 i : 8the msg is note_on channel=7 note=77 velocity=71 time=0
 i : 8the msg is note_on channel=7 note=81 velocity=73 time=0
 i : 8the msg is note_on channel=7 note=74 velocity=0 time=89
 i : 8the msg is note_on channel=7 note=77 velocity=0 time=18
 i : 8the msg is note_on channel=7 note=81 velocity=0 time=14
 i : 8the msg is note_on channel=7 note=74 velocity=67 time=119
 i : 8the msg is note_on channel=7 note=77 velocity=70 time=0
 i : 8the msg is note_on channel=7 note=81 velocity=71 time=0
 i : 8the msg is note_on channel=7 note=74 velocity=0 time=82
 i : 8the msg is note_on channel=7 note=77 velocity=0 time=41
 i : 8the msg is note_on channel=7 note=81 velocity=0 time=11
 i : 8the msg is note_on channel=7 note=77 velocity=100 time=106
 i : 8the msg is note_on channel=7 note=81 velocity=96 time=0
 i : 8the msg is note_on channel=7 note=84 velocity=82 time=0
 i : 8the msg is note_on channel=7 note=77 velocity=0 time=128
 i : 8the msg is note_on channel=7 note=84 velocity=0 time=12
 i : 8the msg is note_on channel=7 note=81 velocity=0 time=2
 i : 8the msg is note_on channel=7 note=74 velocity=117 time=98
 i : 8the msg is note_on channel=7 note=79 velocity=111 time=0
 i : 8the msg is note_on channel=7 note=83 velocity=111 time=0
 i : 8the msg is note_on channel=7 note=74 velocity=0 time=405
 i : 8the msg is note_on channel=7 note=79 velocity=0 time=1
 i : 8the msg is note_on channel=7 note=83 velocity=0 time=12
 i : 8the msg is note_on channel=7 note=74 velocity=120 time=62
 i : 8the msg is note_on channel=7 note=77 velocity=108 time=0
 i : 8the msg is note_on channel=7 note=81 velocity=100 time=0
 i : 8the msg is note_on channel=7 note=74 velocity=0 time=864
 i : 8the msg is note_on channel=7 note=77 velocity=0 time=15
 i : 8the msg is note_on channel=7 note=81 velocity=0 time=5
 i : 8the msg is note_on channel=7 note=74 velocity=93 time=76
 i : 8the msg is note_on channel=7 note=77 velocity=98 time=0
 i : 8the msg is note_on channel=7 note=81 velocity=96 time=0
 i : 8the msg is note_on channel=7 note=74 velocity=0 time=100
 i : 8the msg is note_on channel=7 note=77 velocity=0 time=34
 i : 8the msg is note_on channel=7 note=81 velocity=0 time=18
 i : 8the msg is note_on channel=7 note=77 velocity=98 time=88
 i : 8the msg is note_on channel=7 note=81 velocity=93 time=0
 i : 8the msg is note_on channel=7 note=84 velocity=86 time=0
 i : 8the msg is note_on channel=7 note=84 velocity=0 time=153
 i : 8the msg is note_on channel=7 note=81 velocity=0 time=9
 i : 8the msg is note_on channel=7 note=77 velocity=0 time=1
 i : 8the msg is note_on channel=7 note=74 velocity=103 time=317
 i : 8the msg is note_on channel=7 note=77 velocity=111 time=0
 i : 8the msg is note_on channel=7 note=81 velocity=117 time=0
 i : 8the msg is note_on channel=7 note=74 velocity=0 time=892
 i : 8the msg is note_on channel=7 note=81 velocity=0 time=18
 i : 8the msg is note_on channel=7 note=77 velocity=0 time=1
 i : 8the msg is note_on channel=7 note=74 velocity=85 time=49
 i : 8the msg is note_on channel=7 note=77 velocity=96 time=0
 i : 8the msg is note_on channel=7 note=81 velocity=96 time=0
 i : 8the msg is note_on channel=7 note=74 velocity=0 time=92
 i : 8the msg is note_on channel=7 note=77 velocity=0 time=25
 i : 8the msg is note_on channel=7 note=81 velocity=0 time=4
 i : 8the msg is note_on channel=7 note=74 velocity=68 time=119
 i : 8the msg is note_on channel=7 note=77 velocity=70 time=0
 i : 8the msg is note_on channel=7 note=81 velocity=82 time=0
 i : 8the msg is note_on channel=7 note=74 velocity=0 time=74
 i : 8the msg is note_on channel=7 note=77 velocity=0 time=70
 i : 8the msg is note_on channel=7 note=81 velocity=0 time=1
 i : 8the msg is note_on channel=7 note=77 velocity=86 time=95
 i : 8the msg is note_on channel=7 note=81 velocity=82 time=0
 i : 8the msg is note_on channel=7 note=84 velocity=82 time=0
 i : 8the msg is note_on channel=7 note=77 velocity=0 time=117
 i : 8the msg is note_on channel=7 note=81 velocity=0 time=17
 i : 8the msg is note_on channel=7 note=84 velocity=0 time=10
 i : 8the msg is note_on channel=7 note=74 velocity=100 time=96
 i : 8the msg is note_on channel=7 note=79 velocity=100 time=0
 i : 8the msg is note_on channel=7 note=83 velocity=103 time=0
 i : 8the msg is note_on channel=7 note=74 velocity=0 time=373
 i : 8the msg is note_on channel=7 note=79 velocity=0 time=10
 i : 8the msg is note_on channel=7 note=83 velocity=0 time=31
 i : 8the msg is note_on channel=7 note=74 velocity=100 time=66
 i : 8the msg is note_on channel=7 note=77 velocity=108 time=0
 i : 8the msg is note_on channel=7 note=81 velocity=100 time=0
 i : 8the msg is note_on channel=7 note=74 velocity=0 time=853
 i : 8the msg is note_on channel=7 note=77 velocity=0 time=15
 i : 8the msg is note_on channel=7 note=81 velocity=0 time=7
 i : 8the msg is note_on channel=7 note=74 velocity=80 time=85
 i : 8the msg is note_on channel=7 note=77 velocity=77 time=0
 i : 8the msg is note_on channel=7 note=81 velocity=77 time=0
 i : 8the msg is note_on channel=7 note=74 velocity=0 time=104
 i : 8the msg is note_on channel=7 note=77 velocity=0 time=28
 i : 8the msg is note_on channel=7 note=81 velocity=0 time=5
 i : 8the msg is note_on channel=7 note=77 velocity=96 time=103
 i : 8the msg is note_on channel=7 note=81 velocity=98 time=0
 i : 8the msg is note_on channel=7 note=84 velocity=91 time=0
 i : 8the msg is note_on channel=7 note=84 velocity=0 time=162
 i : 8the msg is note_on channel=7 note=81 velocity=0 time=20
 i : 8the msg is note_on channel=7 note=77 velocity=0 time=4
 i : 8the msg is note_on channel=7 note=74 velocity=93 time=294
 i : 8the msg is note_on channel=7 note=77 velocity=100 time=0
 i : 8the msg is note_on channel=7 note=81 velocity=100 time=0
 i : 8the msg is note_on channel=7 note=74 velocity=0 time=864
 i : 8the msg is note_on channel=7 note=77 velocity=0 time=16
 i : 8the msg is note_on channel=7 note=81 velocity=0 time=10
 i : 8the msg is note_on channel=7 note=74 velocity=72 time=70
 i : 8the msg is note_on channel=7 note=77 velocity=71 time=0
 i : 8the msg is note_on channel=7 note=81 velocity=73 time=0
 i : 8the msg is note_on channel=7 note=74 velocity=0 time=89
 i : 8the msg is note_on channel=7 note=77 velocity=0 time=18
 i : 8the msg is note_on channel=7 note=81 velocity=0 time=14
 i : 8the msg is note_on channel=7 note=74 velocity=67 time=119
 i : 8the msg is note_on channel=7 note=77 velocity=70 time=0
 i : 8the msg is note_on channel=7 note=81 velocity=71 time=0
 i : 8the msg is note_on channel=7 note=74 velocity=0 time=82
 i : 8the msg is note_on channel=7 note=77 velocity=0 time=41
 i : 8the msg is note_on channel=7 note=81 velocity=0 time=11
 i : 8the msg is note_on channel=7 note=77 velocity=100 time=106
 i : 8the msg is note_on channel=7 note=81 velocity=96 time=0
 i : 8the msg is note_on channel=7 note=84 velocity=82 time=0
 i : 8the msg is note_on channel=7 note=77 velocity=0 time=128
 i : 8the msg is note_on channel=7 note=84 velocity=0 time=12
 i : 8the msg is note_on channel=7 note=81 velocity=0 time=2
 i : 8the msg is note_on channel=7 note=74 velocity=117 time=98
 i : 8the msg is note_on channel=7 note=79 velocity=111 time=0
 i : 8the msg is note_on channel=7 note=83 velocity=111 time=0
 i : 8the msg is note_on channel=7 note=74 velocity=0 time=405
 i : 8the msg is note_on channel=7 note=79 velocity=0 time=1
 i : 8the msg is note_on channel=7 note=83 velocity=0 time=12
 i : 8the msg is <meta message end_of_track time=0>
 i : 9the msg is <meta message midi_port port=0 time=0>
 i : 9the msg is <meta message track_name name='Drums' time=0>
 i : 9the msg is program_change channel=9 program=0 time=0
 i : 9the msg is control_change channel=9 control=7 value=110 time=0
 i : 9the msg is control_change channel=9 control=10 value=64 time=0
 i : 9the msg is control_change channel=9 control=121 value=0 time=10
 i : 9the msg is control_change channel=9 control=91 value=60 time=1
 i : 9the msg is note_on channel=9 note=44 velocity=127 time=469
 i : 9the msg is note_on channel=9 note=44 velocity=0 time=118
 i : 9the msg is note_on channel=9 note=44 velocity=127 time=842
 i : 9the msg is note_on channel=9 note=44 velocity=0 time=141
 i : 9the msg is note_on channel=9 note=44 velocity=127 time=819
 i : 9the msg is note_on channel=9 note=44 velocity=0 time=118
 i : 9the msg is note_on channel=9 note=44 velocity=127 time=842
 i : 9the msg is note_on channel=9 note=44 velocity=0 time=85
 i : 9the msg is note_on channel=9 note=44 velocity=127 time=875
 i : 9the msg is note_on channel=9 note=44 velocity=0 time=118
 i : 9the msg is note_on channel=9 note=44 velocity=127 time=842
 i : 9the msg is note_on channel=9 note=44 velocity=0 time=141
 i : 9the msg is note_on channel=9 note=44 velocity=127 time=819
 i : 9the msg is note_on channel=9 note=44 velocity=0 time=118
 i : 9the msg is note_on channel=9 note=44 velocity=127 time=842
 i : 9the msg is note_on channel=9 note=44 velocity=0 time=85
 i : 9the msg is note_on channel=9 note=44 velocity=127 time=875
 i : 9the msg is note_on channel=9 note=44 velocity=0 time=118
 i : 9the msg is note_on channel=9 note=44 velocity=127 time=842
 i : 9the msg is note_on channel=9 note=44 velocity=0 time=141
 i : 9the msg is note_on channel=9 note=44 velocity=127 time=819
 i : 9the msg is note_on channel=9 note=44 velocity=0 time=118
 i : 9the msg is note_on channel=9 note=44 velocity=127 time=842
 i : 9the msg is note_on channel=9 note=44 velocity=0 time=85
 i : 9the msg is note_on channel=9 note=44 velocity=127 time=875
 i : 9the msg is note_on channel=9 note=44 velocity=0 time=118
 i : 9the msg is note_on channel=9 note=44 velocity=127 time=842
 i : 9the msg is note_on channel=9 note=44 velocity=0 time=141
 i : 9the msg is pitchwheel channel=9 pitch=96 time=408
 i : 9the msg is pitchwheel channel=9 pitch=1968 time=27
 i : 9the msg is pitchwheel channel=9 pitch=2816 time=21
 i : 9the msg is pitchwheel channel=9 pitch=3616 time=29
 i : 9the msg is pitchwheel channel=9 pitch=4624 time=29
 i : 9the msg is pitchwheel channel=9 pitch=5488 time=20
 i : 9the msg is pitchwheel channel=9 pitch=6944 time=31
 i : 9the msg is pitchwheel channel=9 pitch=7600 time=20
 i : 9the msg is pitchwheel channel=9 pitch=8191 time=20
 i : 9the msg is note_on channel=9 note=38 velocity=127 time=3
 i : 9the msg is note_on channel=9 note=38 velocity=0 time=98
 i : 9the msg is note_on channel=9 note=38 velocity=127 time=128
 i : 9the msg is note_on channel=9 note=38 velocity=0 time=113
 i : 9the msg is pitchwheel channel=9 pitch=7504 time=54
 i : 9the msg is pitchwheel channel=9 pitch=5728 time=20
 i : 9the msg is pitchwheel channel=9 pitch=2160 time=20
 i : 9the msg is pitchwheel channel=9 pitch=0 time=26
 i : 9the msg is pitchwheel channel=9 pitch=-96 time=97
 i : 9the msg is pitchwheel channel=9 pitch=-2368 time=20
 i : 9the msg is pitchwheel channel=9 pitch=-3952 time=20
 i : 9the msg is pitchwheel channel=9 pitch=-6000 time=30
 i : 9the msg is pitchwheel channel=9 pitch=-8192 time=21
 i : 9the msg is note_on channel=9 note=40 velocity=127 time=51
 i : 9the msg is note_on channel=9 note=40 velocity=0 time=94
 i : 9the msg is note_on channel=9 note=40 velocity=127 time=136
 i : 9the msg is note_on channel=9 note=40 velocity=0 time=117
 i : 9the msg is pitchwheel channel=9 pitch=-7296 time=58
 i : 9the msg is pitchwheel channel=9 pitch=-6512 time=20
 i : 9the msg is pitchwheel channel=9 pitch=-5152 time=20
 i : 9the msg is pitchwheel channel=9 pitch=-2736 time=29
 i : 9the msg is pitchwheel channel=9 pitch=-1888 time=21
 i : 9the msg is pitchwheel channel=9 pitch=-1072 time=21
 i : 9the msg is pitchwheel channel=9 pitch=-320 time=20
 i : 9the msg is pitchwheel channel=9 pitch=0 time=20
 i : 9the msg is note_on channel=9 note=43 velocity=127 time=65
 i : 9the msg is note_on channel=9 note=41 velocity=127 time=24
 i : 9the msg is note_on channel=9 note=43 velocity=0 time=38
 i : 9the msg is note_on channel=9 note=46 velocity=125 time=30
 i : 9the msg is note_on channel=9 note=41 velocity=0 time=50
 i : 9the msg is note_on channel=9 note=46 velocity=0 time=111
 i : 9the msg is note_on channel=9 note=36 velocity=120 time=79
 i : 9the msg is note_on channel=9 note=42 velocity=43 time=0
 i : 9the msg is note_on channel=9 note=42 velocity=0 time=62
 i : 9the msg is note_on channel=9 note=42 velocity=50 time=178
 i : 9the msg is note_on channel=9 note=42 velocity=0 time=63
 i : 9the msg is note_on channel=9 note=36 velocity=0 time=172
 i : 9the msg is note_on channel=9 note=38 velocity=89 time=5
 i : 9the msg is note_on channel=9 note=42 velocity=127 time=0
 i : 9the msg is note_on channel=9 note=42 velocity=0 time=94
 i : 9the msg is note_on channel=9 note=36 velocity=77 time=146
 i : 9the msg is note_on channel=9 note=42 velocity=94 time=0
 i : 9the msg is note_on channel=9 note=42 velocity=0 time=59
 i : 9the msg is note_on channel=9 note=38 velocity=0 time=0
 i : 9the msg is note_on channel=9 note=36 velocity=0 time=48
 i : 9the msg is note_on channel=9 note=36 velocity=117 time=133
 i : 9the msg is note_on channel=9 note=42 velocity=94 time=0
 i : 9the msg is note_on channel=9 note=42 velocity=0 time=62
 i : 9the msg is note_on channel=9 note=42 velocity=44 time=178
 i : 9the msg is note_on channel=9 note=42 velocity=0 time=41
 i : 9the msg is note_on channel=9 note=36 velocity=0 time=139
 i : 9the msg is note_on channel=9 note=38 velocity=89 time=60
 i : 9the msg is note_on channel=9 note=42 velocity=127 time=0
 i : 9the msg is note_on channel=9 note=42 velocity=0 time=95
 i : 9the msg is note_on channel=9 note=42 velocity=46 time=145
 i : 9the msg is note_on channel=9 note=42 velocity=0 time=43
 i : 9the msg is note_on channel=9 note=38 velocity=0 time=194
 i : 9the msg is note_on channel=9 note=36 velocity=117 time=3
 i : 9the msg is note_on channel=9 note=42 velocity=78 time=0
 i : 9the msg is note_on channel=9 note=42 velocity=0 time=61
 i : 9the msg is note_on channel=9 note=42 velocity=42 time=179
 i : 9the msg is note_on channel=9 note=42 velocity=0 time=49
 i : 9the msg is note_on channel=9 note=36 velocity=0 time=168
 i : 9the msg is note_on channel=9 note=38 velocity=89 time=23
 i : 9the msg is note_on channel=9 note=42 velocity=127 time=0
 i : 9the msg is note_on channel=9 note=42 velocity=0 time=86
 i : 9the msg is note_on channel=9 note=36 velocity=100 time=154
 i : 9the msg is note_on channel=9 note=42 velocity=47 time=0
 i : 9the msg is note_on channel=9 note=38 velocity=0 time=5
 i : 9the msg is note_on channel=9 note=42 velocity=0 time=43
 i : 9the msg is note_on channel=9 note=36 velocity=0 time=72
 i : 9the msg is note_on channel=9 note=36 velocity=126 time=120
 i : 9the msg is note_on channel=9 note=42 velocity=31 time=0
 i : 9the msg is note_on channel=9 note=42 velocity=0 time=41
 i : 9the msg is note_on channel=9 note=36 velocity=0 time=409
 i : 9the msg is note_on channel=9 note=38 velocity=89 time=30
 i : 9the msg is note_on channel=9 note=42 velocity=127 time=0
 i : 9the msg is note_on channel=9 note=42 velocity=0 time=70
 i : 9the msg is note_on channel=9 note=46 velocity=127 time=170
 i : 9the msg is note_on channel=9 note=38 velocity=0 time=37
 i : 9the msg is note_on channel=9 note=46 velocity=0 time=71
 i : 9the msg is note_on channel=9 note=38 velocity=89 time=12
 i : 9the msg is note_on channel=9 note=38 velocity=0 time=93
 i : 9the msg is note_on channel=9 note=36 velocity=106 time=27
 i : 9the msg is note_on channel=9 note=42 velocity=70 time=0
 i : 9the msg is note_on channel=9 note=42 velocity=0 time=61
 i : 9the msg is note_on channel=9 note=42 velocity=62 time=179
 i : 9the msg is note_on channel=9 note=42 velocity=0 time=65
 i : 9the msg is note_on channel=9 note=36 velocity=0 time=152
 i : 9the msg is note_on channel=9 note=38 velocity=89 time=23
 i : 9the msg is note_on channel=9 note=42 velocity=119 time=0
 i : 9the msg is note_on channel=9 note=42 velocity=0 time=85
 i : 9the msg is note_on channel=9 note=36 velocity=98 time=155
 i : 9the msg is note_on channel=9 note=42 velocity=30 time=0
 i : 9the msg is note_on channel=9 note=38 velocity=0 time=23
 i : 9the msg is note_on channel=9 note=42 velocity=0 time=11
 i : 9the msg is note_on channel=9 note=36 velocity=0 time=85
 i : 9the msg is note_on channel=9 note=36 velocity=126 time=121
 i : 9the msg is note_on channel=9 note=42 velocity=87 time=0
 i : 9the msg is note_on channel=9 note=42 velocity=0 time=59
 i : 9the msg is note_on channel=9 note=42 velocity=78 time=181
 i : 9the msg is note_on channel=9 note=42 velocity=0 time=31
 i : 9the msg is note_on channel=9 note=42 velocity=94 time=89
 i : 9the msg is note_on channel=9 note=42 velocity=0 time=43
 i : 9the msg is note_on channel=9 note=36 velocity=0 time=73
 i : 9the msg is note_on channel=9 note=38 velocity=89 time=4
 i : 9the msg is note_on channel=9 note=42 velocity=104 time=0
 i : 9the msg is note_on channel=9 note=42 velocity=0 time=73
 i : 9the msg is note_on channel=9 note=42 velocity=94 time=167
 i : 9the msg is note_on channel=9 note=42 velocity=0 time=50
 i : 9the msg is note_on channel=9 note=38 velocity=0 time=184
 i : 9the msg is note_on channel=9 note=36 velocity=111 time=6
 i : 9the msg is note_on channel=9 note=42 velocity=96 time=0
 i : 9the msg is note_on channel=9 note=42 velocity=0 time=57
 i : 9the msg is note_on channel=9 note=42 velocity=54 time=183
 i : 9the msg is note_on channel=9 note=42 velocity=0 time=42
 i : 9the msg is note_on channel=9 note=38 velocity=89 time=198
 i : 9the msg is note_on channel=9 note=42 velocity=119 time=0
 i : 9the msg is note_on channel=9 note=36 velocity=0 time=17
 i : 9the msg is note_on channel=9 note=42 velocity=0 time=67
 i : 9the msg is note_on channel=9 note=36 velocity=98 time=156
 i : 9the msg is note_on channel=9 note=42 velocity=57 time=0
 i : 9the msg is note_on channel=9 note=38 velocity=0 time=10
 i : 9the msg is note_on channel=9 note=42 velocity=0 time=37
 i : 9the msg is note_on channel=9 note=36 velocity=0 time=70
 i : 9the msg is note_on channel=9 note=36 velocity=111 time=123
 i : 9the msg is note_on channel=9 note=42 velocity=84 time=0
 i : 9the msg is note_on channel=9 note=42 velocity=0 time=56
 i : 9the msg is note_on channel=9 note=42 velocity=63 time=184
 i : 9the msg is note_on channel=9 note=42 velocity=0 time=44
 i : 9the msg is note_on channel=9 note=36 velocity=0 time=169
 i : 9the msg is note_on channel=9 note=38 velocity=89 time=27
 i : 9the msg is note_on channel=9 note=42 velocity=127 time=0
 i : 9the msg is note_on channel=9 note=42 velocity=0 time=66
 i : 9the msg is note_on channel=9 note=46 velocity=127 time=174
 i : 9the msg is note_on channel=9 note=38 velocity=0 time=45
 i : 9the msg is note_on channel=9 note=46 velocity=0 time=62
 i : 9the msg is note_on channel=9 note=38 velocity=89 time=13
 i : 9the msg is note_on channel=9 note=38 velocity=0 time=118
 i : 9the msg is note_on channel=9 note=36 velocity=111 time=2
 i : 9the msg is note_on channel=9 note=42 velocity=68 time=0
 i : 9the msg is note_on channel=9 note=42 velocity=0 time=53
 i : 9the msg is note_on channel=9 note=42 velocity=61 time=187
 i : 9the msg is note_on channel=9 note=42 velocity=0 time=60
 i : 9the msg is note_on channel=9 note=36 velocity=0 time=146
 i : 9the msg is note_on channel=9 note=38 velocity=89 time=34
 i : 9the msg is note_on channel=9 note=42 velocity=127 time=0
 i : 9the msg is note_on channel=9 note=42 velocity=0 time=88
 i : 9the msg is note_on channel=9 note=36 velocity=85 time=152
 i : 9the msg is note_on channel=9 note=42 velocity=66 time=0
 i : 9the msg is note_on channel=9 note=42 velocity=0 time=36
 i : 9the msg is note_on channel=9 note=38 velocity=0 time=5
 i : 9the msg is note_on channel=9 note=42 velocity=78 time=79
 i : 9the msg is note_on channel=9 note=36 velocity=0 time=9
 i : 9the msg is note_on channel=9 note=42 velocity=0 time=34
 i : 9the msg is note_on channel=9 note=36 velocity=127 time=77
 i : 9the msg is note_on channel=9 note=42 velocity=87 time=0
 i : 9the msg is note_on channel=9 note=42 velocity=0 time=67
 i : 9the msg is note_on channel=9 note=42 velocity=96 time=173
 i : 9the msg is note_on channel=9 note=42 velocity=0 time=48
 i : 9the msg is note_on channel=9 note=36 velocity=0 time=184
 i : 9the msg is note_on channel=9 note=38 velocity=89 time=8
 i : 9the msg is note_on channel=9 note=42 velocity=127 time=0
 i : 9the msg is note_on channel=9 note=42 velocity=0 time=83
 i : 9the msg is note_on channel=9 note=42 velocity=27 time=157
 i : 9the msg is note_on channel=9 note=42 velocity=0 time=31
 i : 9the msg is note_on channel=9 note=38 velocity=0 time=207
 i : 9the msg is note_on channel=9 note=36 velocity=108 time=2
 i : 9the msg is note_on channel=9 note=42 velocity=79 time=0
 i : 9the msg is note_on channel=9 note=42 velocity=0 time=60
 i : 9the msg is note_on channel=9 note=42 velocity=76 time=180
 i : 9the msg is note_on channel=9 note=42 velocity=0 time=57
 i : 9the msg is note_on channel=9 note=38 velocity=89 time=183
 i : 9the msg is note_on channel=9 note=42 velocity=127 time=0
 i : 9the msg is note_on channel=9 note=36 velocity=0 time=3
 i : 9the msg is note_on channel=9 note=42 velocity=0 time=87
 i : 9the msg is note_on channel=9 note=36 velocity=98 time=150
 i : 9the msg is note_on channel=9 note=38 velocity=0 time=25
 i : 9the msg is note_on channel=9 note=36 velocity=0 time=84
 i : 9the msg is note_on channel=9 note=36 velocity=120 time=131
 i : 9the msg is note_on channel=9 note=42 velocity=107 time=0
 i : 9the msg is note_on channel=9 note=42 velocity=0 time=63
 i : 9the msg is note_on channel=9 note=42 velocity=70 time=177
 i : 9the msg is note_on channel=9 note=42 velocity=0 time=44
 i : 9the msg is note_on channel=9 note=36 velocity=0 time=181
 i : 9the msg is note_on channel=9 note=38 velocity=89 time=15
 i : 9the msg is note_on channel=9 note=42 velocity=122 time=0
 i : 9the msg is note_on channel=9 note=42 velocity=0 time=76
 i : 9the msg is note_on channel=9 note=46 velocity=79 time=164
 i : 9the msg is note_on channel=9 note=38 velocity=0 time=33
 i : 9the msg is note_on channel=9 note=46 velocity=0 time=33
 i : 9the msg is note_on channel=9 note=38 velocity=89 time=54
 i : 9the msg is note_on channel=9 note=38 velocity=0 time=102
 i : 9the msg is note_on channel=9 note=36 velocity=103 time=18
 i : 9the msg is note_on channel=9 note=42 velocity=111 time=0
 i : 9the msg is note_on channel=9 note=42 velocity=0 time=74
 i : 9the msg is note_on channel=9 note=42 velocity=47 time=166
 i : 9the msg is note_on channel=9 note=42 velocity=0 time=38
 i : 9the msg is note_on channel=9 note=36 velocity=0 time=183
 i : 9the msg is note_on channel=9 note=38 velocity=89 time=19
 i : 9the msg is note_on channel=9 note=42 velocity=127 time=0
 i : 9the msg is note_on channel=9 note=42 velocity=0 time=86
 i : 9the msg is note_on channel=9 note=36 velocity=80 time=154
 i : 9the msg is note_on channel=9 note=38 velocity=0 time=48
 i : 9the msg is note_on channel=9 note=42 velocity=65 time=72
 i : 9the msg is note_on channel=9 note=36 velocity=0 time=5
 i : 9the msg is note_on channel=9 note=42 velocity=0 time=26
 i : 9the msg is note_on channel=9 note=36 velocity=117 time=89
 i : 9the msg is note_on channel=9 note=42 velocity=76 time=0
 i : 9the msg is note_on channel=9 note=42 velocity=0 time=59
 i : 9the msg is note_on channel=9 note=42 velocity=125 time=181
 i : 9the msg is note_on channel=9 note=42 velocity=0 time=63
 i : 9the msg is note_on channel=9 note=36 velocity=0 time=142
 i : 9the msg is note_on channel=9 note=38 velocity=89 time=35
 i : 9the msg is note_on channel=9 note=42 velocity=127 time=0
 i : 9the msg is note_on channel=9 note=42 velocity=0 time=91
 i : 9the msg is note_on channel=9 note=42 velocity=73 time=149
 i : 9the msg is note_on channel=9 note=42 velocity=0 time=47
 i : 9the msg is note_on channel=9 note=36 velocity=78 time=193
 i : 9the msg is note_on channel=9 note=38 velocity=0 time=21
 i : 9the msg is note_on channel=9 note=36 velocity=0 time=205
 i : 9the msg is note_on channel=9 note=38 velocity=89 time=14
 i : 9the msg is note_on channel=9 note=42 velocity=87 time=0
 i : 9the msg is note_on channel=9 note=42 velocity=0 time=53
 i : 9the msg is note_on channel=9 note=38 velocity=0 time=66
 i : 9the msg is note_on channel=9 note=38 velocity=89 time=121
 i : 9the msg is note_on channel=9 note=42 velocity=127 time=0
 i : 9the msg is note_on channel=9 note=42 velocity=0 time=80
 i : 9the msg is note_on channel=9 note=36 velocity=73 time=160
 i : 9the msg is note_on channel=9 note=42 velocity=96 time=0
 i : 9the msg is note_on channel=9 note=38 velocity=0 time=6
 i : 9the msg is note_on channel=9 note=42 velocity=0 time=40
 i : 9the msg is note_on channel=9 note=38 velocity=89 time=194
 i : 9the msg is note_on channel=9 note=42 velocity=111 time=0
 i : 9the msg is note_on channel=9 note=36 velocity=0 time=9
 i : 9the msg is note_on channel=9 note=42 velocity=0 time=47
 i : 9the msg is note_on channel=9 note=38 velocity=0 time=68
 i : 9the msg is note_on channel=9 note=38 velocity=89 time=116
 i : 9the msg is note_on channel=9 note=42 velocity=115 time=0
 i : 9the msg is note_on channel=9 note=42 velocity=0 time=56
 i : 9the msg is note_on channel=9 note=38 velocity=0 time=65
 i : 9the msg is note_on channel=9 note=38 velocity=89 time=119
 i : 9the msg is note_on channel=9 note=42 velocity=111 time=0
 i : 9the msg is note_on channel=9 note=42 velocity=0 time=54
 i : 9the msg is note_on channel=9 note=38 velocity=0 time=71
 i : 9the msg is note_on channel=9 note=38 velocity=89 time=115
 i : 9the msg is note_on channel=9 note=46 velocity=127 time=0
 i : 9the msg is note_on channel=9 note=38 velocity=0 time=51
 i : 9the msg is note_on channel=9 note=46 velocity=0 time=4
 i : 9the msg is note_on channel=9 note=38 velocity=89 time=65
 i : 9the msg is note_on channel=9 note=38 velocity=0 time=92
 i : 9the msg is note_on channel=9 note=36 velocity=111 time=28
 i : 9the msg is note_on channel=9 note=42 velocity=125 time=0
 i : 9the msg is note_on channel=9 note=42 velocity=0 time=68
 i : 9the msg is note_on channel=9 note=42 velocity=43 time=52
 i : 9the msg is note_on channel=9 note=42 velocity=0 time=36
 i : 9the msg is note_on channel=9 note=42 velocity=84 time=84
 i : 9the msg is note_on channel=9 note=42 velocity=0 time=57
 i : 9the msg is note_on channel=9 note=42 velocity=96 time=63
 i : 9the msg is note_on channel=9 note=42 velocity=0 time=57
 i : 9the msg is note_on channel=9 note=38 velocity=89 time=63
 i : 9the msg is note_on channel=9 note=42 velocity=111 time=0
 i : 9the msg is note_on channel=9 note=36 velocity=0 time=73
 i : 9the msg is note_on channel=9 note=42 velocity=0 time=16
 i : 9the msg is note_on channel=9 note=38 velocity=0 time=145
 i : 9the msg is note_on channel=9 note=36 velocity=113 time=6
 i : 9the msg is note_on channel=9 note=36 velocity=0 time=77
 i : 9the msg is note_on channel=9 note=36 velocity=126 time=163
 i : 9the msg is note_on channel=9 note=42 velocity=107 time=0
 i : 9the msg is note_on channel=9 note=42 velocity=0 time=83
 i : 9the msg is note_on channel=9 note=36 velocity=0 time=61
 i : 9the msg is note_on channel=9 note=42 velocity=56 time=96
 i : 9the msg is note_on channel=9 note=42 velocity=0 time=44
 i : 9the msg is note_on channel=9 note=36 velocity=127 time=196
 i : 9the msg is note_on channel=9 note=46 velocity=94 time=0
 i : 9the msg is note_on channel=9 note=46 velocity=0 time=94
 i : 9the msg is note_on channel=9 note=42 velocity=45 time=626
 i : 9the msg is note_on channel=9 note=42 velocity=0 time=57
 i : 9the msg is note_on channel=9 note=42 velocity=61 time=63
 i : 9the msg is note_on channel=9 note=42 velocity=0 time=44
 i : 9the msg is note_on channel=9 note=38 velocity=89 time=76
 i : 9the msg is note_on channel=9 note=42 velocity=87 time=0
 i : 9the msg is note_on channel=9 note=36 velocity=0 time=81
 i : 9the msg is note_on channel=9 note=42 velocity=0 time=2
 i : 9the msg is note_on channel=9 note=38 velocity=0 time=121
 i : 9the msg is note_on channel=9 note=36 velocity=78 time=36
 i : 9the msg is note_on channel=9 note=36 velocity=0 time=79
 i : 9the msg is note_on channel=9 note=36 velocity=126 time=161
 i : 9the msg is note_on channel=9 note=42 velocity=107 time=0
 i : 9the msg is note_on channel=9 note=42 velocity=0 time=79
 i : 9the msg is note_on channel=9 note=38 velocity=89 time=401
 i : 9the msg is note_on channel=9 note=42 velocity=115 time=0
 i : 9the msg is note_on channel=9 note=36 velocity=0 time=35
 i : 9the msg is note_on channel=9 note=42 velocity=0 time=44
 i : 9the msg is note_on channel=9 note=38 velocity=0 time=106
 i : 9the msg is note_on channel=9 note=36 velocity=127 time=55
 i : 9the msg is note_on channel=9 note=46 velocity=104 time=0
 i : 9the msg is note_on channel=9 note=46 velocity=0 time=102
 i : 9the msg is note_on channel=9 note=42 velocity=59 time=378
 i : 9the msg is note_on channel=9 note=42 velocity=0 time=64
 i : 9the msg is note_on channel=9 note=42 velocity=87 time=56
 i : 9the msg is note_on channel=9 note=42 velocity=0 time=55
 i : 9the msg is note_on channel=9 note=38 velocity=89 time=62
 i : 9the msg is note_on channel=9 note=42 velocity=94 time=3
 i : 9the msg is note_on channel=9 note=42 velocity=0 time=90
 i : 9the msg is note_on channel=9 note=36 velocity=0 time=22
 i : 9the msg is note_on channel=9 note=36 velocity=98 time=128
 i : 9the msg is note_on channel=9 note=42 velocity=43 time=0
 i : 9the msg is note_on channel=9 note=38 velocity=0 time=23
 i : 9the msg is note_on channel=9 note=42 velocity=0 time=12
 i : 9the msg is note_on channel=9 note=36 velocity=0 time=42
 i : 9the msg is note_on channel=9 note=36 velocity=123 time=163
 i : 9the msg is note_on channel=9 note=42 velocity=119 time=0
 i : 9the msg is note_on channel=9 note=42 velocity=0 time=88
 i : 9the msg is note_on channel=9 note=36 velocity=0 time=101
 i : 9the msg is note_on channel=9 note=42 velocity=35 time=51
 i : 9the msg is note_on channel=9 note=42 velocity=0 time=37
 i : 9the msg is note_on channel=9 note=36 velocity=126 time=203
 i : 9the msg is note_on channel=9 note=46 velocity=96 time=0
 i : 9the msg is note_on channel=9 note=46 velocity=0 time=94
 i : 9the msg is note_on channel=9 note=42 velocity=42 time=626
 i : 9the msg is note_on channel=9 note=42 velocity=0 time=64
 i : 9the msg is note_on channel=9 note=42 velocity=78 time=56
 i : 9the msg is note_on channel=9 note=42 velocity=0 time=52
 i : 9the msg is note_on channel=9 note=38 velocity=89 time=68
 i : 9the msg is note_on channel=9 note=42 velocity=75 time=0
 i : 9the msg is note_on channel=9 note=42 velocity=0 time=88
 i : 9the msg is note_on channel=9 note=36 velocity=0 time=56
 i : 9the msg is note_on channel=9 note=38 velocity=0 time=82
 i : 9the msg is note_on channel=9 note=36 velocity=82 time=14
 i : 9the msg is note_on channel=9 note=42 velocity=26 time=0
 i : 9the msg is note_on channel=9 note=42 velocity=0 time=36
 i : 9the msg is note_on channel=9 note=36 velocity=0 time=47
 i : 9the msg is note_on channel=9 note=36 velocity=120 time=157
 i : 9the msg is note_on channel=9 note=42 velocity=100 time=0
 i : 9the msg is note_on channel=9 note=42 velocity=0 time=86
 i : 9the msg is note_on channel=9 note=42 velocity=70 time=34
 i : 9the msg is note_on channel=9 note=42 velocity=0 time=44
 i : 9the msg is note_on channel=9 note=42 velocity=58 time=76
 i : 9the msg is note_on channel=9 note=42 velocity=0 time=63
 i : 9the msg is note_on channel=9 note=36 velocity=0 time=38
 i : 9the msg is note_on channel=9 note=42 velocity=70 time=19
 i : 9the msg is note_on channel=9 note=42 velocity=0 time=54
 i : 9the msg is note_on channel=9 note=38 velocity=89 time=66
 i : 9the msg is note_on channel=9 note=42 velocity=111 time=0
 i : 9the msg is note_on channel=9 note=42 velocity=0 time=105
 i : 9the msg is note_on channel=9 note=38 velocity=0 time=99
 i : 9the msg is note_on channel=9 note=36 velocity=127 time=36
 i : 9the msg is note_on channel=9 note=46 velocity=92 time=0
 i : 9the msg is note_on channel=9 note=46 velocity=0 time=102
 i : 9the msg is note_on channel=9 note=42 velocity=58 time=378
 i : 9the msg is note_on channel=9 note=42 velocity=0 time=62
 i : 9the msg is note_on channel=9 note=42 velocity=58 time=58
 i : 9the msg is note_on channel=9 note=42 velocity=0 time=50
 i : 9the msg is note_on channel=9 note=42 velocity=57 time=70
 i : 9the msg is note_on channel=9 note=38 velocity=89 time=16
 i : 9the msg is note_on channel=9 note=42 velocity=0 time=50
 i : 9the msg is note_on channel=9 note=36 velocity=0 time=41
 i : 9the msg is note_on channel=9 note=36 velocity=108 time=133
 i : 9the msg is note_on channel=9 note=42 velocity=32 time=0
 i : 9the msg is note_on channel=9 note=38 velocity=0 time=13
 i : 9the msg is note_on channel=9 note=42 velocity=0 time=19
 i : 9the msg is note_on channel=9 note=36 velocity=0 time=56
 i : 9the msg is note_on channel=9 note=36 velocity=117 time=152
 i : 9the msg is note_on channel=9 note=42 velocity=104 time=0
 i : 9the msg is note_on channel=9 note=42 velocity=0 time=82
 i : 9the msg is note_on channel=9 note=36 velocity=0 time=91
 i : 9the msg is note_on channel=9 note=42 velocity=23 time=67
 i : 9the msg is note_on channel=9 note=42 velocity=0 time=38
 i : 9the msg is note_on channel=9 note=36 velocity=127 time=202
 i : 9the msg is note_on channel=9 note=46 velocity=96 time=0
 i : 9the msg is note_on channel=9 note=46 velocity=0 time=97
 i : 9the msg is note_on channel=9 note=42 velocity=76 time=623
 i : 9the msg is note_on channel=9 note=42 velocity=0 time=61
 i : 9the msg is note_on channel=9 note=42 velocity=94 time=59
 i : 9the msg is note_on channel=9 note=42 velocity=0 time=66
 i : 9the msg is note_on channel=9 note=38 velocity=89 time=54
 i : 9the msg is note_on channel=9 note=42 velocity=79 time=0
 i : 9the msg is note_on channel=9 note=42 velocity=0 time=76
 i : 9the msg is note_on channel=9 note=36 velocity=0 time=48
 i : 9the msg is note_on channel=9 note=36 velocity=108 time=116
 i : 9the msg is note_on channel=9 note=42 velocity=37 time=0
 i : 9the msg is note_on channel=9 note=38 velocity=0 time=26
 i : 9the msg is note_on channel=9 note=42 velocity=0 time=12
 i : 9the msg is note_on channel=9 note=36 velocity=0 time=45
 i : 9the msg is note_on channel=9 note=36 velocity=123 time=157
 i : 9the msg is note_on channel=9 note=42 velocity=115 time=0
 i : 9the msg is note_on channel=9 note=42 velocity=0 time=75
 i : 9the msg is note_on channel=9 note=38 velocity=89 time=405
 i : 9the msg is note_on channel=9 note=42 velocity=115 time=0
 i : 9the msg is note_on channel=9 note=36 velocity=0 time=14
 i : 9the msg is note_on channel=9 note=42 velocity=0 time=66
 i : 9the msg is note_on channel=9 note=38 velocity=0 time=107
 i : 9the msg is note_on channel=9 note=36 velocity=127 time=53
 i : 9the msg is note_on channel=9 note=46 velocity=96 time=0
 i : 9the msg is note_on channel=9 note=46 velocity=0 time=91
 i : 9the msg is note_on channel=9 note=42 velocity=57 time=389
 i : 9the msg is note_on channel=9 note=42 velocity=0 time=62
 i : 9the msg is note_on channel=9 note=42 velocity=100 time=58
 i : 9the msg is note_on channel=9 note=42 velocity=0 time=61
 i : 9the msg is note_on channel=9 note=38 velocity=89 time=52
 i : 9the msg is note_on channel=9 note=42 velocity=96 time=7
 i : 9the msg is note_on channel=9 note=42 velocity=0 time=79
 i : 9the msg is note_on channel=9 note=36 velocity=0 time=18
 i : 9the msg is note_on channel=9 note=38 velocity=0 time=143
 i : 9the msg is note_on channel=9 note=36 velocity=100 time=0
 i : 9the msg is note_on channel=9 note=42 velocity=60 time=0
 i : 9the msg is note_on channel=9 note=42 velocity=0 time=38
 i : 9the msg is note_on channel=9 note=36 velocity=0 time=42
 i : 9the msg is note_on channel=9 note=36 velocity=120 time=160
 i : 9the msg is note_on channel=9 note=42 velocity=115 time=0
 i : 9the msg is note_on channel=9 note=42 velocity=0 time=92
 i : 9the msg is note_on channel=9 note=36 velocity=0 time=96
 i : 9the msg is note_on channel=9 note=42 velocity=33 time=52
 i : 9the msg is note_on channel=9 note=42 velocity=0 time=55
 i : 9the msg is note_on channel=9 note=36 velocity=127 time=185
 i : 9the msg is note_on channel=9 note=46 velocity=107 time=0
 i : 9the msg is note_on channel=9 note=46 velocity=0 time=114
 i : 9the msg is note_on channel=9 note=42 velocity=57 time=606
 i : 9the msg is note_on channel=9 note=42 velocity=0 time=57
 i : 9the msg is note_on channel=9 note=42 velocity=87 time=63
 i : 9the msg is note_on channel=9 note=42 velocity=0 time=61
 i : 9the msg is note_on channel=9 note=38 velocity=89 time=59
 i : 9the msg is note_on channel=9 note=42 velocity=79 time=0
 i : 9the msg is note_on channel=9 note=42 velocity=0 time=88
 i : 9the msg is note_on channel=9 note=36 velocity=0 time=57
 i : 9the msg is note_on channel=9 note=36 velocity=111 time=95
 i : 9the msg is note_on channel=9 note=42 velocity=48 time=0
 i : 9the msg is note_on channel=9 note=38 velocity=0 time=3
 i : 9the msg is note_on channel=9 note=42 velocity=0 time=44
 i : 9the msg is note_on channel=9 note=36 velocity=0 time=34
 i : 9the msg is note_on channel=9 note=36 velocity=117 time=159
 i : 9the msg is note_on channel=9 note=42 velocity=104 time=0
 i : 9the msg is note_on channel=9 note=42 velocity=0 time=89
 i : 9the msg is note_on channel=9 note=42 velocity=36 time=151
 i : 9the msg is note_on channel=9 note=42 velocity=0 time=32
 i : 9the msg is note_on channel=9 note=36 velocity=0 time=112
 i : 9the msg is note_on channel=9 note=38 velocity=89 time=96
 i : 9the msg is note_on channel=9 note=42 velocity=96 time=0
 i : 9the msg is note_on channel=9 note=42 velocity=0 time=98
 i : 9the msg is note_on channel=9 note=38 velocity=0 time=157
 i : 9the msg is note_on channel=9 note=36 velocity=127 time=225
 i : 9the msg is note_on channel=9 note=46 velocity=94 time=0
 i : 9the msg is note_on channel=9 note=46 velocity=0 time=98
 i : 9the msg is note_on channel=9 note=42 velocity=48 time=142
 i : 9the msg is note_on channel=9 note=42 velocity=0 time=58
 i : 9the msg is note_on channel=9 note=42 velocity=62 time=62
 i : 9the msg is note_on channel=9 note=42 velocity=0 time=49
 i : 9the msg is note_on channel=9 note=38 velocity=89 time=71
 i : 9the msg is note_on channel=9 note=42 velocity=84 time=0
 i : 9the msg is note_on channel=9 note=42 velocity=0 time=75
 i : 9the msg is note_on channel=9 note=36 velocity=0 time=68
 i : 9the msg is note_on channel=9 note=38 velocity=0 time=64
 i : 9the msg is note_on channel=9 note=36 velocity=113 time=33
 i : 9the msg is note_on channel=9 note=42 velocity=37 time=0
 i : 9the msg is note_on channel=9 note=42 velocity=0 time=36
 i : 9the msg is note_on channel=9 note=36 velocity=0 time=51
 i : 9the msg is note_on channel=9 note=36 velocity=126 time=153
 i : 9the msg is note_on channel=9 note=42 velocity=79 time=0
 i : 9the msg is note_on channel=9 note=42 velocity=0 time=72
 i : 9the msg is note_on channel=9 note=42 velocity=59 time=48
 i : 9the msg is note_on channel=9 note=42 velocity=0 time=46
 i : 9the msg is note_on channel=9 note=42 velocity=42 time=74
 i : 9the msg is note_on channel=9 note=42 velocity=0 time=36
 i : 9the msg is note_on channel=9 note=42 velocity=33 time=84
 i : 9the msg is note_on channel=9 note=42 velocity=0 time=36
 i : 9the msg is note_on channel=9 note=38 velocity=89 time=84
 i : 9the msg is note_on channel=9 note=42 velocity=92 time=0
 i : 9the msg is note_on channel=9 note=42 velocity=0 time=77
 i : 9the msg is note_on channel=9 note=46 velocity=70 time=163
 i : 9the msg is note_on channel=9 note=38 velocity=0 time=39
 i : 9the msg is note_on channel=9 note=36 velocity=0 time=11
 i : 9the msg is note_on channel=9 note=46 velocity=0 time=21
 i : 9the msg is note_on channel=9 note=38 velocity=89 time=49
 i : 9the msg is note_on channel=9 note=38 velocity=0 time=106
 i : 9the msg is note_on channel=9 note=36 velocity=123 time=14
 i : 9the msg is note_on channel=9 note=42 velocity=58 time=0
 i : 9the msg is note_on channel=9 note=42 velocity=0 time=70
 i : 9the msg is note_on channel=9 note=42 velocity=31 time=50
 i : 9the msg is note_on channel=9 note=42 velocity=0 time=30
 i : 9the msg is note_on channel=9 note=42 velocity=40 time=90
 i : 9the msg is note_on channel=9 note=42 velocity=0 time=38
 i : 9the msg is note_on channel=9 note=42 velocity=59 time=82
 i : 9the msg is note_on channel=9 note=42 velocity=0 time=50
 i : 9the msg is note_on channel=9 note=38 velocity=89 time=70
 i : 9the msg is note_on channel=9 note=42 velocity=94 time=0
 i : 9the msg is note_on channel=9 note=42 velocity=0 time=77
 i : 9the msg is note_on channel=9 note=36 velocity=0 time=49
 i : 9the msg is note_on channel=9 note=38 velocity=0 time=89
 i : 9the msg is note_on channel=9 note=36 velocity=100 time=25
 i : 9the msg is note_on channel=9 note=36 velocity=0 time=92
 i : 9the msg is note_on channel=9 note=42 velocity=44 time=28
 i : 9the msg is note_on channel=9 note=42 velocity=0 time=41
 i : 9the msg is note_on channel=9 note=36 velocity=113 time=79
 i : 9the msg is note_on channel=9 note=42 velocity=100 time=0
 i : 9the msg is note_on channel=9 note=42 velocity=0 time=78
 i : 9the msg is note_on channel=9 note=42 velocity=47 time=42
 i : 9the msg is note_on channel=9 note=42 velocity=0 time=41
 i : 9the msg is note_on channel=9 note=42 velocity=42 time=79
 i : 9the msg is note_on channel=9 note=42 velocity=0 time=62
 i : 9the msg is note_on channel=9 note=42 velocity=29 time=58
 i : 9the msg is note_on channel=9 note=42 velocity=0 time=33
 i : 9the msg is note_on channel=9 note=38 velocity=89 time=87
 i : 9the msg is note_on channel=9 note=42 velocity=53 time=0
 i : 9the msg is note_on channel=9 note=42 velocity=0 time=80
 i : 9the msg is note_on channel=9 note=46 velocity=75 time=160
 i : 9the msg is note_on channel=9 note=38 velocity=0 time=36
 i : 9the msg is note_on channel=9 note=36 velocity=0 time=35
 i : 9the msg is note_on channel=9 note=46 velocity=0 time=8
 i : 9the msg is note_on channel=9 note=36 velocity=127 time=161
 i : 9the msg is note_on channel=9 note=42 velocity=55 time=0
 i : 9the msg is note_on channel=9 note=42 velocity=0 time=73
 i : 9the msg is note_on channel=9 note=42 velocity=44 time=167
 i : 9the msg is note_on channel=9 note=42 velocity=0 time=49
 i : 9the msg is note_on channel=9 note=42 velocity=73 time=71
 i : 9the msg is note_on channel=9 note=42 velocity=0 time=63
 i : 9the msg is note_on channel=9 note=38 velocity=89 time=57
 i : 9the msg is note_on channel=9 note=42 velocity=100 time=0
 i : 9the msg is note_on channel=9 note=42 velocity=0 time=83
 i : 9the msg is note_on channel=9 note=36 velocity=0 time=42
 i : 9the msg is note_on channel=9 note=36 velocity=106 time=115
 i : 9the msg is note_on channel=9 note=42 velocity=36 time=0
 i : 9the msg is note_on channel=9 note=42 velocity=0 time=36
 i : 9the msg is note_on channel=9 note=38 velocity=0 time=32
 i : 9the msg is note_on channel=9 note=36 velocity=0 time=18
 i : 9the msg is note_on channel=9 note=36 velocity=127 time=154
 i : 9the msg is note_on channel=9 note=42 velocity=100 time=0
 i : 9the msg is note_on channel=9 note=42 velocity=0 time=76
 i : 9the msg is note_on channel=9 note=42 velocity=66 time=44
 i : 9the msg is note_on channel=9 note=42 velocity=0 time=48
 i : 9the msg is note_on channel=9 note=42 velocity=49 time=72
 i : 9the msg is note_on channel=9 note=42 velocity=0 time=63
 i : 9the msg is note_on channel=9 note=42 velocity=41 time=57
 i : 9the msg is note_on channel=9 note=42 velocity=0 time=35
 i : 9the msg is note_on channel=9 note=38 velocity=89 time=85
 i : 9the msg is note_on channel=9 note=42 velocity=89 time=0
 i : 9the msg is note_on channel=9 note=42 velocity=0 time=97
 i : 9the msg is note_on channel=9 note=46 velocity=87 time=143
 i : 9the msg is note_on channel=9 note=38 velocity=0 time=15
 i : 9the msg is note_on channel=9 note=36 velocity=0 time=38
 i : 9the msg is note_on channel=9 note=46 velocity=0 time=43
 i : 9the msg is note_on channel=9 note=38 velocity=89 time=24
 i : 9the msg is note_on channel=9 note=38 velocity=0 time=118
 i : 9the msg is note_on channel=9 note=36 velocity=123 time=2
 i : 9the msg is note_on channel=9 note=42 velocity=87 time=0
 i : 9the msg is note_on channel=9 note=42 velocity=0 time=70
 i : 9the msg is note_on channel=9 note=42 velocity=45 time=170
 i : 9the msg is note_on channel=9 note=42 velocity=0 time=52
 i : 9the msg is note_on channel=9 note=42 velocity=27 time=68
 i : 9the msg is note_on channel=9 note=42 velocity=0 time=30
 i : 9the msg is note_on channel=9 note=38 velocity=89 time=90
 i : 9the msg is note_on channel=9 note=42 velocity=76 time=0
 i : 9the msg is note_on channel=9 note=36 velocity=0 time=64
 i : 9the msg is note_on channel=9 note=42 velocity=0 time=22
 i : 9the msg is note_on channel=9 note=36 velocity=108 time=154
 i : 9the msg is note_on channel=9 note=42 velocity=18 time=0
 i : 9the msg is note_on channel=9 note=38 velocity=0 time=4
 i : 9the msg is note_on channel=9 note=42 velocity=0 time=26
 i : 9the msg is note_on channel=9 note=36 velocity=0 time=38
 i : 9the msg is note_on channel=9 note=42 velocity=76 time=52
 i : 9the msg is note_on channel=9 note=42 velocity=0 time=58
 i : 9the msg is note_on channel=9 note=36 velocity=123 time=62
 i : 9the msg is note_on channel=9 note=42 velocity=65 time=0
 i : 9the msg is note_on channel=9 note=42 velocity=0 time=100
 i : 9the msg is note_on channel=9 note=42 velocity=53 time=140
 i : 9the msg is note_on channel=9 note=42 velocity=0 time=44
 i : 9the msg is note_on channel=9 note=38 velocity=89 time=196
 i : 9the msg is note_on channel=9 note=42 velocity=115 time=0
 i : 9the msg is note_on channel=9 note=36 velocity=0 time=56
 i : 9the msg is note_on channel=9 note=42 velocity=0 time=31
 i : 9the msg is note_on channel=9 note=38 velocity=0 time=109
 i : 9the msg is note_on channel=9 note=36 velocity=127 time=44
 i : 9the msg is note_on channel=9 note=55 velocity=111 time=0
 i : 9the msg is note_on channel=9 note=55 velocity=0 time=77
 i : 9the msg is note_on channel=9 note=42 velocity=43 time=403
 i : 9the msg is note_on channel=9 note=42 velocity=0 time=66
 i : 9the msg is note_on channel=9 note=42 velocity=78 time=54
 i : 9the msg is note_on channel=9 note=42 velocity=0 time=50
 i : 9the msg is note_on channel=9 note=38 velocity=89 time=70
 i : 9the msg is note_on channel=9 note=42 velocity=94 time=0
 i : 9the msg is note_on channel=9 note=42 velocity=0 time=82
 i : 9the msg is note_on channel=9 note=36 velocity=0 time=35
 i : 9the msg is note_on channel=9 note=38 velocity=0 time=123
 i : 9the msg is note_on channel=9 note=36 velocity=108 time=0
 i : 9the msg is note_on channel=9 note=42 velocity=73 time=0
 i : 9the msg is note_on channel=9 note=42 velocity=0 time=53
 i : 9the msg is note_on channel=9 note=36 velocity=0 time=36
 i : 9the msg is note_on channel=9 note=36 velocity=113 time=151
 i : 9the msg is note_on channel=9 note=42 velocity=125 time=0
 i : 9the msg is note_on channel=9 note=42 velocity=0 time=99
 i : 9the msg is note_on channel=9 note=36 velocity=0 time=132
 i : 9the msg is note_on channel=9 note=36 velocity=127 time=249
 i : 9the msg is note_on channel=9 note=55 velocity=120 time=0
 i : 9the msg is note_on channel=9 note=55 velocity=0 time=70
 i : 9the msg is note_on channel=9 note=74 velocity=127 time=198
 i : 9the msg is note_on channel=9 note=74 velocity=0 time=358
 i : 9the msg is note_on channel=9 note=42 velocity=52 time=94
 i : 9the msg is note_on channel=9 note=42 velocity=0 time=69
 i : 9the msg is note_on channel=9 note=42 velocity=82 time=51
 i : 9the msg is note_on channel=9 note=42 velocity=0 time=60
 i : 9the msg is note_on channel=9 note=38 velocity=89 time=60
 i : 9the msg is note_on channel=9 note=42 velocity=96 time=0
 i : 9the msg is note_on channel=9 note=42 velocity=0 time=80
 i : 9the msg is note_on channel=9 note=42 velocity=48 time=160
 i : 9the msg is note_on channel=9 note=38 velocity=0 time=12
 i : 9the msg is note_on channel=9 note=42 velocity=0 time=38
 i : 9the msg is note_on channel=9 note=42 velocity=119 time=190
 i : 9the msg is note_on channel=9 note=42 velocity=0 time=101
 i : 9the msg is note_on channel=9 note=42 velocity=71 time=139
 i : 9the msg is note_on channel=9 note=42 velocity=0 time=41
 i : 9the msg is note_on channel=9 note=38 velocity=89 time=199
 i : 9the msg is note_on channel=9 note=42 velocity=119 time=0
 i : 9the msg is note_on channel=9 note=36 velocity=0 time=56
 i : 9the msg is note_on channel=9 note=42 velocity=0 time=24
 i : 9the msg is note_on channel=9 note=38 velocity=0 time=102
 i : 9the msg is note_on channel=9 note=36 velocity=127 time=58
 i : 9the msg is note_on channel=9 note=55 velocity=120 time=0
 i : 9the msg is note_on channel=9 note=55 velocity=0 time=64
 i : 9the msg is note_on channel=9 note=42 velocity=60 time=416
 i : 9the msg is note_on channel=9 note=42 velocity=0 time=60
 i : 9the msg is note_on channel=9 note=42 velocity=107 time=60
 i : 9the msg is note_on channel=9 note=42 velocity=0 time=49
 i : 9the msg is note_on channel=9 note=38 velocity=89 time=71
 i : 9the msg is note_on channel=9 note=42 velocity=94 time=0
 i : 9the msg is note_on channel=9 note=42 velocity=0 time=80
 i : 9the msg is note_on channel=9 note=36 velocity=0 time=15
 i : 9the msg is note_on channel=9 note=36 velocity=113 time=145
 i : 9the msg is note_on channel=9 note=42 velocity=84 time=0
 i : 9the msg is note_on channel=9 note=38 velocity=0 time=15
 i : 9the msg is note_on channel=9 note=42 velocity=0 time=34
 i : 9the msg is note_on channel=9 note=36 velocity=0 time=44
 i : 9the msg is note_on channel=9 note=36 velocity=126 time=147
 i : 9the msg is note_on channel=9 note=42 velocity=111 time=0
 i : 9the msg is note_on channel=9 note=42 velocity=0 time=86
 i : 9the msg is note_on channel=9 note=36 velocity=0 time=126
 i : 9the msg is note_on channel=9 note=36 velocity=127 time=268
 i : 9the msg is note_on channel=9 note=55 velocity=113 time=0
 i : 9the msg is note_on channel=9 note=55 velocity=0 time=72
 i : 9the msg is note_on channel=9 note=74 velocity=127 time=194
 i : 9the msg is note_on channel=9 note=42 velocity=49 time=454
 i : 9the msg is note_on channel=9 note=74 velocity=0 time=34
 i : 9the msg is note_on channel=9 note=42 velocity=0 time=24
 i : 9the msg is note_on channel=9 note=42 velocity=87 time=62
 i : 9the msg is note_on channel=9 note=42 velocity=0 time=62
 i : 9the msg is note_on channel=9 note=38 velocity=89 time=58
 i : 9the msg is note_on channel=9 note=42 velocity=84 time=0
 i : 9the msg is note_on channel=9 note=42 velocity=0 time=101
 i : 9the msg is note_on channel=9 note=38 velocity=0 time=125
 i : 9the msg is note_on channel=9 note=42 velocity=48 time=14
 i : 9the msg is note_on channel=9 note=42 velocity=0 time=38
 i : 9the msg is note_on channel=9 note=42 velocity=115 time=202
 i : 9the msg is note_on channel=9 note=42 velocity=0 time=116
 i : 9the msg is note_on channel=9 note=36 velocity=0 time=50
 i : 9the msg is note_on channel=9 note=42 velocity=63 time=74
 i : 9the msg is note_on channel=9 note=42 velocity=0 time=42
 i : 9the msg is note_on channel=9 note=38 velocity=89 time=198
 i : 9the msg is note_on channel=9 note=42 velocity=115 time=0
 i : 9the msg is note_on channel=9 note=42 velocity=0 time=91
 i : 9the msg is note_on channel=9 note=38 velocity=0 time=113
 i : 9the msg is note_on channel=9 note=36 velocity=127 time=36
 i : 9the msg is note_on channel=9 note=55 velocity=123 time=0
 i : 9the msg is note_on channel=9 note=55 velocity=0 time=62
 i : 9the msg is note_on channel=9 note=42 velocity=62 time=418
 i : 9the msg is note_on channel=9 note=42 velocity=0 time=66
 i : 9the msg is note_on channel=9 note=42 velocity=70 time=54
 i : 9the msg is note_on channel=9 note=42 velocity=0 time=50
 i : 9the msg is note_on channel=9 note=38 velocity=89 time=70
 i : 9the msg is note_on channel=9 note=42 velocity=92 time=0
 i : 9the msg is note_on channel=9 note=36 velocity=0 time=99
 i : 9the msg is note_on channel=9 note=42 velocity=0 time=29
 i : 9the msg is note_on channel=9 note=36 velocity=117 time=112
 i : 9the msg is note_on channel=9 note=42 velocity=57 time=0
 i : 9the msg is note_on channel=9 note=38 velocity=0 time=6
 i : 9the msg is note_on channel=9 note=42 velocity=0 time=33
 i : 9the msg is note_on channel=9 note=36 velocity=0 time=60
 i : 9the msg is note_on channel=9 note=36 velocity=120 time=141
 i : 9the msg is note_on channel=9 note=42 velocity=127 time=0
 i : 9the msg is note_on channel=9 note=42 velocity=0 time=144
 i : 9the msg is note_on channel=9 note=36 velocity=0 time=97
 i : 9the msg is note_on channel=9 note=36 velocity=127 time=239
 i : 9the msg is note_on channel=9 note=55 velocity=113 time=0
 i : 9the msg is note_on channel=9 note=55 velocity=0 time=71
 i : 9the msg is note_on channel=9 note=74 velocity=127 time=202
 i : 9the msg is note_on channel=9 note=42 velocity=42 time=447
 i : 9the msg is note_on channel=9 note=42 velocity=0 time=53
 i : 9the msg is note_on channel=9 note=42 velocity=65 time=67
 i : 9the msg is note_on channel=9 note=42 velocity=0 time=49
 i : 9the msg is note_on channel=9 note=74 velocity=0 time=21
 i : 9the msg is note_on channel=9 note=38 velocity=89 time=50
 i : 9the msg is note_on channel=9 note=42 velocity=94 time=0
 i : 9the msg is note_on channel=9 note=42 velocity=0 time=122
 i : 9the msg is note_on channel=9 note=36 velocity=0 time=17
 i : 9the msg is note_on channel=9 note=38 velocity=0 time=67
 i : 9the msg is note_on channel=9 note=36 velocity=106 time=34
 i : 9the msg is note_on channel=9 note=36 velocity=0 time=87
 i : 9the msg is note_on channel=9 note=36 velocity=126 time=153
 i : 9the msg is note_on channel=9 note=42 velocity=107 time=0
 i : 9the msg is note_on channel=9 note=42 velocity=0 time=164
 i : 9the msg is note_on channel=9 note=42 velocity=78 time=76
 i : 9the msg is note_on channel=9 note=42 velocity=0 time=48
 i : 9the msg is note_on channel=9 note=38 velocity=89 time=192
 i : 9the msg is note_on channel=9 note=42 velocity=111 time=0
 i : 9the msg is note_on channel=9 note=36 velocity=0 time=58
 i : 9the msg is note_on channel=9 note=42 velocity=0 time=34
 i : 9the msg is note_on channel=9 note=38 velocity=0 time=105
 i : 9the msg is note_on channel=9 note=36 velocity=127 time=43
 i : 9the msg is note_on channel=9 note=55 velocity=111 time=0
 i : 9the msg is note_on channel=9 note=55 velocity=0 time=75
 i : 9the msg is note_on channel=9 note=42 velocity=55 time=405
 i : 9the msg is note_on channel=9 note=42 velocity=0 time=56
 i : 9the msg is note_on channel=9 note=42 velocity=89 time=64
 i : 9the msg is note_on channel=9 note=42 velocity=0 time=52
 i : 9the msg is note_on channel=9 note=38 velocity=89 time=68
 i : 9the msg is note_on channel=9 note=42 velocity=107 time=0
 i : 9the msg is note_on channel=9 note=42 velocity=0 time=96
 i : 9the msg is note_on channel=9 note=36 velocity=0 time=31
 i : 9the msg is note_on channel=9 note=38 velocity=0 time=86
 i : 9the msg is note_on channel=9 note=36 velocity=113 time=27
 i : 9the msg is note_on channel=9 note=36 velocity=0 time=90
 i : 9the msg is note_on channel=9 note=36 velocity=126 time=150
 i : 9the msg is note_on channel=9 note=42 velocity=111 time=0
 i : 9the msg is note_on channel=9 note=42 velocity=0 time=95
 i : 9the msg is note_on channel=9 note=36 velocity=0 time=90
 i : 9the msg is note_on channel=9 note=36 velocity=127 time=295
 i : 9the msg is note_on channel=9 note=55 velocity=108 time=0
 i : 9the msg is note_on channel=9 note=55 velocity=0 time=83
 i : 9the msg is note_on channel=9 note=74 velocity=127 time=168
 i : 9the msg is note_on channel=9 note=42 velocity=54 time=469
 i : 9the msg is note_on channel=9 note=42 velocity=0 time=60
 i : 9the msg is note_on channel=9 note=42 velocity=87 time=60
 i : 9the msg is note_on channel=9 note=74 velocity=0 time=47
 i : 9the msg is note_on channel=9 note=42 velocity=0 time=6
 i : 9the msg is note_on channel=9 note=38 velocity=89 time=67
 i : 9the msg is note_on channel=9 note=42 velocity=89 time=0
 i : 9the msg is note_on channel=9 note=42 velocity=0 time=114
 i : 9the msg is note_on channel=9 note=42 velocity=36 time=126
 i : 9the msg is note_on channel=9 note=42 velocity=0 time=41
 i : 9the msg is note_on channel=9 note=38 velocity=0 time=46
 i : 9the msg is note_on channel=9 note=42 velocity=107 time=153
 i : 9the msg is note_on channel=9 note=42 velocity=0 time=108
 i : 9the msg is note_on channel=9 note=38 velocity=89 time=132
 i : 9the msg is note_on channel=9 note=38 velocity=0 time=84
 i : 9the msg is note_on channel=9 note=38 velocity=89 time=156
 i : 9the msg is note_on channel=9 note=42 velocity=111 time=0
 i : 9the msg is note_on channel=9 note=36 velocity=0 time=73
 i : 9the msg is note_on channel=9 note=42 velocity=0 time=20
 i : 9the msg is note_on channel=9 note=38 velocity=0 time=85
 i : 9the msg is note_on channel=9 note=36 velocity=127 time=62
 i : 9the msg is note_on channel=9 note=36 velocity=127 time=0
 i : 9the msg is note_on channel=9 note=49 velocity=100 time=0
 i : 9the msg is note_on channel=9 note=49 velocity=0 time=78
 i : 9the msg is note_on channel=9 note=36 velocity=0 time=458
 i : 9the msg is note_on channel=9 note=42 velocity=71 time=64
 i : 9the msg is note_on channel=9 note=42 velocity=0 time=30
 i : 9the msg is note_on channel=9 note=42 velocity=111 time=30
 i : 9the msg is note_on channel=9 note=42 velocity=94 time=0
 i : 9the msg is note_on channel=9 note=42 velocity=0 time=25
 i : 9the msg is note_on channel=9 note=42 velocity=0 time=14
 i : 9the msg is note_on channel=9 note=42 velocity=127 time=21
 i : 9the msg is note_on channel=9 note=42 velocity=0 time=29
 i : 9the msg is note_on channel=9 note=36 velocity=0 time=81
 i : 9the msg is note_on channel=9 note=36 velocity=98 time=130
 i : 9the msg is note_on channel=9 note=36 velocity=0 time=95
 i : 9the msg is note_on channel=9 note=36 velocity=127 time=145
 i : 9the msg is note_on channel=9 note=42 velocity=68 time=240
 i : 9the msg is note_on channel=9 note=42 velocity=0 time=22
 i : 9the msg is note_on channel=9 note=42 velocity=119 time=98
 i : 9the msg is note_on channel=9 note=42 velocity=0 time=29
 i : 9the msg is note_on channel=9 note=42 velocity=127 time=91
 i : 9the msg is note_on channel=9 note=42 velocity=0 time=53
 i : 9the msg is note_on channel=9 note=74 velocity=127 time=177
 i : 9the msg is note_on channel=9 note=42 velocity=59 time=130
 i : 9the msg is note_on channel=9 note=36 velocity=0 time=20
 i : 9the msg is note_on channel=9 note=42 velocity=0 time=2
 i : 9the msg is note_on channel=9 note=36 velocity=127 time=98
 i : 9the msg is note_on channel=9 note=42 velocity=119 time=0
 i : 9the msg is note_on channel=9 note=42 velocity=0 time=50
 i : 9the msg is note_on channel=9 note=74 velocity=0 time=110
 i : 9the msg is note_on channel=9 note=42 velocity=60 time=80
 i : 9the msg is note_on channel=9 note=42 velocity=0 time=41
 i : 9the msg is note_on channel=9 note=42 velocity=53 time=79
 i : 9the msg is note_on channel=9 note=42 velocity=0 time=23
 i : 9the msg is note_on channel=9 note=42 velocity=92 time=97
 i : 9the msg is note_on channel=9 note=42 velocity=0 time=43
 i : 9the msg is note_on channel=9 note=42 velocity=73 time=17
 i : 9the msg is note_on channel=9 note=42 velocity=0 time=25
 i : 9the msg is note_on channel=9 note=42 velocity=55 time=35
 i : 9the msg is note_on channel=9 note=42 velocity=0 time=31
 i : 9the msg is note_on channel=9 note=42 velocity=78 time=29
 i : 9the msg is note_on channel=9 note=42 velocity=0 time=25
 i : 9the msg is note_on channel=9 note=42 velocity=84 time=35
 i : 9the msg is note_on channel=9 note=42 velocity=0 time=50
 i : 9the msg is note_on channel=9 note=36 velocity=0 time=67
 i : 9the msg is note_on channel=9 note=42 velocity=42 time=3
 i : 9the msg is note_on channel=9 note=42 velocity=0 time=18
 i : 9the msg is note_on channel=9 note=36 velocity=127 time=102
 i : 9the msg is note_on channel=9 note=42 velocity=84 time=0
 i : 9the msg is note_on channel=9 note=42 velocity=0 time=49
 i : 9the msg is note_on channel=9 note=42 velocity=55 time=311
 i : 9the msg is note_on channel=9 note=42 velocity=0 time=24
 i : 9the msg is note_on channel=9 note=42 velocity=92 time=96
 i : 9the msg is note_on channel=9 note=42 velocity=0 time=56
 i : 9the msg is note_on channel=9 note=36 velocity=0 time=275
 i : 9the msg is note_on channel=9 note=36 velocity=127 time=149
 i : 9the msg is note_on channel=9 note=36 velocity=0 time=826
 i : 9the msg is note_on channel=9 note=36 velocity=127 time=134
 i : 9the msg is note_on channel=9 note=42 velocity=76 time=180
 i : 9the msg is note_on channel=9 note=42 velocity=0 time=32
 i : 9the msg is note_on channel=9 note=42 velocity=82 time=28
 i : 9the msg is note_on channel=9 note=42 velocity=0 time=31
 i : 9the msg is note_on channel=9 note=42 velocity=62 time=89
 i : 9the msg is note_on channel=9 note=42 velocity=0 time=27
 i : 9the msg is note_on channel=9 note=42 velocity=119 time=93
 i : 9the msg is note_on channel=9 note=42 velocity=0 time=52
 i : 9the msg is note_on channel=9 note=42 velocity=51 time=68
 i : 9the msg is note_on channel=9 note=42 velocity=0 time=26
 i : 9the msg is note_on channel=9 note=42 velocity=61 time=94
 i : 9the msg is note_on channel=9 note=74 velocity=127 time=30
 i : 9the msg is note_on channel=9 note=42 velocity=0 time=7
 i : 9the msg is note_on channel=9 note=36 velocity=0 time=28
 i : 9the msg is note_on channel=9 note=42 velocity=43 time=55
 i : 9the msg is note_on channel=9 note=42 velocity=0 time=16
 i : 9the msg is note_on channel=9 note=36 velocity=127 time=104
 i : 9the msg is note_on channel=9 note=42 velocity=107 time=0
 i : 9the msg is note_on channel=9 note=42 velocity=0 time=36
 i : 9the msg is note_on channel=9 note=42 velocity=92 time=24
 i : 9the msg is note_on channel=9 note=42 velocity=0 time=29
 i : 9the msg is note_on channel=9 note=42 velocity=70 time=31
 i : 9the msg is note_on channel=9 note=42 velocity=0 time=35
 i : 9the msg is note_on channel=9 note=74 velocity=0 time=19
 i : 9the msg is note_on channel=9 note=42 velocity=73 time=6
 i : 9the msg is note_on channel=9 note=42 velocity=0 time=27
 i : 9the msg is note_on channel=9 note=73 velocity=127 time=11
 i : 9the msg is note_on channel=9 note=42 velocity=92 time=22
 i : 9the msg is note_on channel=9 note=42 velocity=0 time=46
 i : 9the msg is note_on channel=9 note=42 velocity=62 time=74
 i : 9the msg is note_on channel=9 note=73 velocity=0 time=13
 i : 9the msg is note_on channel=9 note=42 velocity=0 time=8
 i : 9the msg is note_on channel=9 note=42 velocity=87 time=99
 i : 9the msg is note_on channel=9 note=42 velocity=0 time=49
 i : 9the msg is note_on channel=9 note=36 velocity=0 time=282
 i : 9the msg is note_on channel=9 note=42 velocity=63 time=29
 i : 9the msg is note_on channel=9 note=42 velocity=0 time=34
 i : 9the msg is note_on channel=9 note=36 velocity=127 time=86
 i : 9the msg is note_on channel=9 note=42 velocity=119 time=0
 i : 9the msg is note_on channel=9 note=42 velocity=0 time=33
 i : 9the msg is note_on channel=9 note=42 velocity=33 time=567
 i : 9the msg is note_on channel=9 note=42 velocity=0 time=19
 i : 9the msg is note_on channel=9 note=46 velocity=127 time=101
 i : 9the msg is note_on channel=9 note=46 velocity=0 time=33
 i : 9the msg is note_on channel=9 note=36 velocity=0 time=59
 i : 9the msg is note_on channel=9 note=36 velocity=127 time=148
 i : 9the msg is note_on channel=9 note=42 velocity=42 time=240
 i : 9the msg is note_on channel=9 note=42 velocity=0 time=34
 i : 9the msg is note_on channel=9 note=42 velocity=20 time=86
 i : 9the msg is note_on channel=9 note=42 velocity=0 time=13
 i : 9the msg is note_on channel=9 note=42 velocity=84 time=107
 i : 9the msg is note_on channel=9 note=42 velocity=0 time=46
 i : 9the msg is note_on channel=9 note=42 velocity=58 time=74
 i : 9the msg is note_on channel=9 note=42 velocity=0 time=24
 i : 9the msg is note_on channel=9 note=42 velocity=63 time=36
 i : 9the msg is note_on channel=9 note=42 velocity=0 time=77
 i : 9the msg is note_on channel=9 note=36 velocity=0 time=30
 i : 9the msg is note_on channel=9 note=42 velocity=104 time=73
 i : 9the msg is note_on channel=9 note=42 velocity=0 time=32
 i : 9the msg is note_on channel=9 note=36 velocity=127 time=88
 i : 9the msg is note_on channel=9 note=42 velocity=96 time=0
 i : 9the msg is note_on channel=9 note=42 velocity=0 time=52
 i : 9the msg is note_on channel=9 note=42 velocity=61 time=548
 i : 9the msg is note_on channel=9 note=42 velocity=0 time=27
 i : 9the msg is note_on channel=9 note=74 velocity=126 time=91
 i : 9the msg is note_on channel=9 note=42 velocity=51 time=2
 i : 9the msg is note_on channel=9 note=42 velocity=0 time=36
 i : 9the msg is note_on channel=9 note=36 velocity=0 time=26
 i : 9the msg is note_on channel=9 note=42 velocity=50 time=58
 i : 9the msg is note_on channel=9 note=42 velocity=0 time=22
 i : 9the msg is note_on channel=9 note=36 velocity=127 time=98
 i : 9the msg is note_on channel=9 note=42 velocity=107 time=0
 i : 9the msg is note_on channel=9 note=42 velocity=0 time=39
 i : 9the msg is note_on channel=9 note=42 velocity=75 time=21
 i : 9the msg is note_on channel=9 note=42 velocity=0 time=27
 i : 9the msg is note_on channel=9 note=42 velocity=63 time=33
 i : 9the msg is note_on channel=9 note=42 velocity=0 time=33
 i : 9the msg is note_on channel=9 note=74 velocity=0 time=14
 i : 9the msg is note_on channel=9 note=42 velocity=66 time=13
 i : 9the msg is note_on channel=9 note=42 velocity=0 time=27
 i : 9the msg is note_on channel=9 note=73 velocity=122 time=9
 i : 9the msg is note_on channel=9 note=42 velocity=82 time=24
 i : 9the msg is note_on channel=9 note=42 velocity=0 time=39
 i : 9the msg is note_on channel=9 note=73 velocity=0 time=58
 i : 9the msg is note_on channel=9 note=42 velocity=32 time=23
 i : 9the msg is note_on channel=9 note=42 velocity=0 time=16
 i : 9the msg is note_on channel=9 note=42 velocity=107 time=104
 i : 9the msg is note_on channel=9 note=42 velocity=0 time=51
 i : 9the msg is note_on channel=9 note=36 velocity=0 time=302
 i : 9the msg is note_on channel=9 note=36 velocity=123 time=127
 i : 9the msg is note_on channel=9 note=42 velocity=34 time=120
 i : 9the msg is note_on channel=9 note=42 velocity=0 time=31
 i : 9the msg is note_on channel=9 note=42 velocity=57 time=89
 i : 9the msg is note_on channel=9 note=42 velocity=0 time=25
 i : 9the msg is note_on channel=9 note=42 velocity=54 time=35
 i : 9the msg is note_on channel=9 note=42 velocity=0 time=31
 i : 9the msg is note_on channel=9 note=42 velocity=79 time=29
 i : 9the msg is note_on channel=9 note=42 velocity=0 time=29
 i : 9the msg is note_on channel=9 note=42 velocity=100 time=31
 i : 9the msg is note_on channel=9 note=42 velocity=0 time=58
 i : 9the msg is note_on channel=9 note=42 velocity=127 time=2
 i : 9the msg is note_on channel=9 note=42 velocity=0 time=48
 i : 9the msg is note_on channel=9 note=42 velocity=65 time=72
 i : 9the msg is note_on channel=9 note=42 velocity=0 time=20
 i : 9the msg is note_on channel=9 note=46 velocity=104 time=100
 i : 9the msg is note_on channel=9 note=46 velocity=0 time=44
 i : 9the msg is note_on channel=9 note=36 velocity=0 time=20
 i : 9the msg is note_on channel=9 note=36 velocity=127 time=176
 i : 9the msg is note_on channel=9 note=42 velocity=58 time=240
 i : 9the msg is note_on channel=9 note=42 velocity=0 time=34
 i : 9the msg is note_on channel=9 note=42 velocity=84 time=206
 i : 9the msg is note_on channel=9 note=42 velocity=0 time=36
 i : 9the msg is note_on channel=9 note=42 velocity=92 time=24
 i : 9the msg is note_on channel=9 note=42 velocity=0 time=25
 i : 9the msg is note_on channel=9 note=42 velocity=71 time=35
 i : 9the msg is note_on channel=9 note=42 velocity=0 time=34
 i : 9the msg is note_on channel=9 note=42 velocity=89 time=26
 i : 9the msg is note_on channel=9 note=42 velocity=0 time=27
 i : 9the msg is note_on channel=9 note=42 velocity=82 time=33
 i : 9the msg is note_on channel=9 note=42 velocity=0 time=42
 i : 9the msg is note_on channel=9 note=36 velocity=0 time=49
 i : 9the msg is note_on channel=9 note=42 velocity=92 time=29
 i : 9the msg is note_on channel=9 note=42 velocity=0 time=19
 i : 9the msg is note_on channel=9 note=36 velocity=127 time=101
 i : 9the msg is note_on channel=9 note=42 velocity=96 time=0
 i : 9the msg is note_on channel=9 note=42 velocity=0 time=42
 i : 9the msg is note_on channel=9 note=74 velocity=120 time=671
 i : 9the msg is note_on channel=9 note=42 velocity=37 time=7
 i : 9the msg is note_on channel=9 note=42 velocity=0 time=31
 i : 9the msg is note_on channel=9 note=36 velocity=0 time=88
 i : 9the msg is note_on channel=9 note=42 velocity=60 time=1
 i : 9the msg is note_on channel=9 note=42 velocity=0 time=27
 i : 9the msg is note_on channel=9 note=36 velocity=108 time=93
 i : 9the msg is note_on channel=9 note=42 velocity=111 time=0
 i : 9the msg is note_on channel=9 note=42 velocity=0 time=52
 i : 9the msg is note_on channel=9 note=74 velocity=0 time=101
 i : 9the msg is note_on channel=9 note=73 velocity=127 time=48
 i : 9the msg is note_on channel=9 note=38 velocity=89 time=39
 i : 9the msg is note_on channel=9 note=42 velocity=32 time=0
 i : 9the msg is note_on channel=9 note=36 velocity=0 time=14
 i : 9the msg is note_on channel=9 note=42 velocity=0 time=8
 i : 9the msg is note_on channel=9 note=73 velocity=0 time=45
 i : 9the msg is note_on channel=9 note=42 velocity=65 time=53
 i : 9the msg is note_on channel=9 note=38 velocity=0 time=7
 i : 9the msg is note_on channel=9 note=42 velocity=0 time=24
 i : 9the msg is note_on channel=9 note=38 velocity=89 time=89
 i : 9the msg is note_on channel=9 note=42 velocity=92 time=0
 i : 9the msg is note_on channel=9 note=42 velocity=0 time=40
 i : 9the msg is note_on channel=9 note=42 velocity=79 time=20
 i : 9the msg is note_on channel=9 note=42 velocity=0 time=27
 i : 9the msg is note_on channel=9 note=42 velocity=63 time=33
 i : 9the msg is note_on channel=9 note=42 velocity=0 time=37
 i : 9the msg is note_on channel=9 note=42 velocity=57 time=23
 i : 9the msg is note_on channel=9 note=42 velocity=0 time=22
 i : 9the msg is note_on channel=9 note=36 velocity=103 time=38
 i : 9the msg is note_on channel=9 note=42 velocity=78 time=0
 i : 9the msg is note_on channel=9 note=38 velocity=0 time=12
 i : 9the msg is note_on channel=9 note=42 velocity=0 time=25
 i : 9the msg is note_on channel=9 note=42 velocity=58 time=83
 i : 9the msg is note_on channel=9 note=42 velocity=0 time=23
 i : 9the msg is note_on channel=9 note=36 velocity=0 time=89
 i : 9the msg is note_on channel=9 note=38 velocity=89 time=8
 i : 9the msg is note_on channel=9 note=42 velocity=82 time=0
 i : 9the msg is note_on channel=9 note=42 velocity=0 time=38
 i : 9the msg is note_on channel=9 note=38 velocity=0 time=102
 i : 9the msg is note_on channel=9 note=38 velocity=89 time=100
 i : 9the msg is note_on channel=9 note=42 velocity=25 time=0
 i : 9the msg is note_on channel=9 note=42 velocity=0 time=19
 i : 9the msg is note_on channel=9 note=42 velocity=58 time=101
 i : 9the msg is note_on channel=9 note=38 velocity=0 time=7
 i : 9the msg is note_on channel=9 note=42 velocity=0 time=29
 i : 9the msg is note_on channel=9 note=38 velocity=89 time=84
 i : 9the msg is note_on channel=9 note=42 velocity=107 time=0
 i : 9the msg is note_on channel=9 note=42 velocity=0 time=42
 i : 9the msg is note_on channel=9 note=42 velocity=84 time=78
 i : 9the msg is note_on channel=9 note=38 velocity=0 time=9
 i : 9the msg is note_on channel=9 note=42 velocity=0 time=33
 i : 9the msg is note_on channel=9 note=38 velocity=89 time=78
 i : 9the msg is note_on channel=9 note=46 velocity=119 time=0
 i : 9the msg is note_on channel=9 note=46 velocity=0 time=45
 i : 9the msg is note_on channel=9 note=38 velocity=0 time=13
 i : 9the msg is note_on channel=9 note=38 velocity=89 time=62
 i : 9the msg is note_on channel=9 note=38 velocity=0 time=83
 i : 9the msg is note_on channel=9 note=36 velocity=111 time=37
 i : 9the msg is note_on channel=9 note=42 velocity=125 time=0
 i : 9the msg is note_on channel=9 note=42 velocity=0 time=68
 i : 9the msg is note_on channel=9 note=42 velocity=43 time=52
 i : 9the msg is note_on channel=9 note=42 velocity=0 time=36
 i : 9the msg is note_on channel=9 note=42 velocity=84 time=84
 i : 9the msg is note_on channel=9 note=42 velocity=0 time=57
 i : 9the msg is note_on channel=9 note=42 velocity=96 time=63
 i : 9the msg is note_on channel=9 note=42 velocity=0 time=57
 i : 9the msg is note_on channel=9 note=38 velocity=89 time=63
 i : 9the msg is note_on channel=9 note=42 velocity=111 time=0
 i : 9the msg is note_on channel=9 note=36 velocity=0 time=73
 i : 9the msg is note_on channel=9 note=42 velocity=0 time=16
 i : 9the msg is note_on channel=9 note=38 velocity=0 time=145
 i : 9the msg is note_on channel=9 note=36 velocity=113 time=6
 i : 9the msg is note_on channel=9 note=36 velocity=0 time=77
 i : 9the msg is note_on channel=9 note=36 velocity=126 time=163
 i : 9the msg is note_on channel=9 note=42 velocity=107 time=0
 i : 9the msg is note_on channel=9 note=42 velocity=0 time=83
 i : 9the msg is note_on channel=9 note=36 velocity=0 time=61
 i : 9the msg is note_on channel=9 note=42 velocity=56 time=96
 i : 9the msg is note_on channel=9 note=42 velocity=0 time=44
 i : 9the msg is note_on channel=9 note=36 velocity=127 time=196
 i : 9the msg is note_on channel=9 note=46 velocity=94 time=0
 i : 9the msg is note_on channel=9 note=46 velocity=0 time=94
 i : 9the msg is note_on channel=9 note=42 velocity=45 time=626
 i : 9the msg is note_on channel=9 note=42 velocity=0 time=57
 i : 9the msg is note_on channel=9 note=42 velocity=61 time=63
 i : 9the msg is note_on channel=9 note=42 velocity=0 time=44
 i : 9the msg is note_on channel=9 note=38 velocity=89 time=76
 i : 9the msg is note_on channel=9 note=42 velocity=87 time=0
 i : 9the msg is note_on channel=9 note=36 velocity=0 time=81
 i : 9the msg is note_on channel=9 note=42 velocity=0 time=2
 i : 9the msg is note_on channel=9 note=38 velocity=0 time=121
 i : 9the msg is note_on channel=9 note=36 velocity=78 time=36
 i : 9the msg is note_on channel=9 note=36 velocity=0 time=79
 i : 9the msg is note_on channel=9 note=36 velocity=126 time=161
 i : 9the msg is note_on channel=9 note=42 velocity=107 time=0
 i : 9the msg is note_on channel=9 note=42 velocity=0 time=79
 i : 9the msg is note_on channel=9 note=38 velocity=89 time=401
 i : 9the msg is note_on channel=9 note=42 velocity=115 time=0
 i : 9the msg is note_on channel=9 note=36 velocity=0 time=35
 i : 9the msg is note_on channel=9 note=42 velocity=0 time=44
 i : 9the msg is note_on channel=9 note=38 velocity=0 time=106
 i : 9the msg is note_on channel=9 note=36 velocity=127 time=55
 i : 9the msg is note_on channel=9 note=46 velocity=104 time=0
 i : 9the msg is note_on channel=9 note=46 velocity=0 time=102
 i : 9the msg is note_on channel=9 note=42 velocity=59 time=378
 i : 9the msg is note_on channel=9 note=42 velocity=0 time=64
 i : 9the msg is note_on channel=9 note=42 velocity=87 time=56
 i : 9the msg is note_on channel=9 note=42 velocity=0 time=55
 i : 9the msg is note_on channel=9 note=38 velocity=89 time=62
 i : 9the msg is note_on channel=9 note=42 velocity=94 time=3
 i : 9the msg is note_on channel=9 note=42 velocity=0 time=90
 i : 9the msg is note_on channel=9 note=36 velocity=0 time=22
 i : 9the msg is note_on channel=9 note=36 velocity=98 time=128
 i : 9the msg is note_on channel=9 note=42 velocity=43 time=0
 i : 9the msg is note_on channel=9 note=38 velocity=0 time=23
 i : 9the msg is note_on channel=9 note=42 velocity=0 time=12
 i : 9the msg is note_on channel=9 note=36 velocity=0 time=42
 i : 9the msg is note_on channel=9 note=36 velocity=123 time=163
 i : 9the msg is note_on channel=9 note=42 velocity=119 time=0
 i : 9the msg is note_on channel=9 note=42 velocity=0 time=88
 i : 9the msg is note_on channel=9 note=36 velocity=0 time=101
 i : 9the msg is note_on channel=9 note=42 velocity=35 time=51
 i : 9the msg is note_on channel=9 note=42 velocity=0 time=37
 i : 9the msg is note_on channel=9 note=36 velocity=126 time=203
 i : 9the msg is note_on channel=9 note=46 velocity=96 time=0
 i : 9the msg is note_on channel=9 note=46 velocity=0 time=94
 i : 9the msg is note_on channel=9 note=42 velocity=42 time=626
 i : 9the msg is note_on channel=9 note=42 velocity=0 time=64
 i : 9the msg is note_on channel=9 note=42 velocity=78 time=56
 i : 9the msg is note_on channel=9 note=42 velocity=0 time=52
 i : 9the msg is note_on channel=9 note=38 velocity=89 time=68
 i : 9the msg is note_on channel=9 note=42 velocity=75 time=0
 i : 9the msg is note_on channel=9 note=42 velocity=0 time=88
 i : 9the msg is note_on channel=9 note=36 velocity=0 time=56
 i : 9the msg is note_on channel=9 note=38 velocity=0 time=82
 i : 9the msg is note_on channel=9 note=36 velocity=82 time=14
 i : 9the msg is note_on channel=9 note=42 velocity=26 time=0
 i : 9the msg is note_on channel=9 note=42 velocity=0 time=36
 i : 9the msg is note_on channel=9 note=36 velocity=0 time=47
 i : 9the msg is note_on channel=9 note=36 velocity=120 time=157
 i : 9the msg is note_on channel=9 note=42 velocity=100 time=0
 i : 9the msg is note_on channel=9 note=42 velocity=0 time=86
 i : 9the msg is note_on channel=9 note=42 velocity=70 time=34
 i : 9the msg is note_on channel=9 note=42 velocity=0 time=44
 i : 9the msg is note_on channel=9 note=42 velocity=58 time=76
 i : 9the msg is note_on channel=9 note=42 velocity=0 time=63
 i : 9the msg is note_on channel=9 note=36 velocity=0 time=38
 i : 9the msg is note_on channel=9 note=42 velocity=70 time=19
 i : 9the msg is note_on channel=9 note=42 velocity=0 time=54
 i : 9the msg is note_on channel=9 note=38 velocity=89 time=66
 i : 9the msg is note_on channel=9 note=42 velocity=111 time=0
 i : 9the msg is note_on channel=9 note=42 velocity=0 time=105
 i : 9the msg is note_on channel=9 note=38 velocity=0 time=99
 i : 9the msg is note_on channel=9 note=36 velocity=127 time=36
 i : 9the msg is note_on channel=9 note=46 velocity=92 time=0
 i : 9the msg is note_on channel=9 note=46 velocity=0 time=102
 i : 9the msg is note_on channel=9 note=42 velocity=58 time=378
 i : 9the msg is note_on channel=9 note=42 velocity=0 time=62
 i : 9the msg is note_on channel=9 note=42 velocity=58 time=58
 i : 9the msg is note_on channel=9 note=42 velocity=0 time=50
 i : 9the msg is note_on channel=9 note=42 velocity=57 time=70
 i : 9the msg is note_on channel=9 note=38 velocity=89 time=16
 i : 9the msg is note_on channel=9 note=42 velocity=0 time=50
 i : 9the msg is note_on channel=9 note=36 velocity=0 time=41
 i : 9the msg is note_on channel=9 note=36 velocity=108 time=133
 i : 9the msg is note_on channel=9 note=42 velocity=32 time=0
 i : 9the msg is note_on channel=9 note=38 velocity=0 time=13
 i : 9the msg is note_on channel=9 note=42 velocity=0 time=19
 i : 9the msg is note_on channel=9 note=36 velocity=0 time=56
 i : 9the msg is note_on channel=9 note=36 velocity=117 time=152
 i : 9the msg is note_on channel=9 note=42 velocity=104 time=0
 i : 9the msg is note_on channel=9 note=42 velocity=0 time=82
 i : 9the msg is note_on channel=9 note=36 velocity=0 time=91
 i : 9the msg is note_on channel=9 note=42 velocity=23 time=67
 i : 9the msg is note_on channel=9 note=42 velocity=0 time=38
 i : 9the msg is note_on channel=9 note=36 velocity=127 time=202
 i : 9the msg is note_on channel=9 note=46 velocity=96 time=0
 i : 9the msg is note_on channel=9 note=46 velocity=0 time=97
 i : 9the msg is note_on channel=9 note=42 velocity=76 time=623
 i : 9the msg is note_on channel=9 note=42 velocity=0 time=61
 i : 9the msg is note_on channel=9 note=42 velocity=94 time=59
 i : 9the msg is note_on channel=9 note=42 velocity=0 time=66
 i : 9the msg is note_on channel=9 note=38 velocity=89 time=54
 i : 9the msg is note_on channel=9 note=42 velocity=79 time=0
 i : 9the msg is note_on channel=9 note=42 velocity=0 time=76
 i : 9the msg is note_on channel=9 note=36 velocity=0 time=48
 i : 9the msg is note_on channel=9 note=36 velocity=108 time=116
 i : 9the msg is note_on channel=9 note=42 velocity=37 time=0
 i : 9the msg is note_on channel=9 note=38 velocity=0 time=26
 i : 9the msg is note_on channel=9 note=42 velocity=0 time=12
 i : 9the msg is note_on channel=9 note=36 velocity=0 time=45
 i : 9the msg is note_on channel=9 note=36 velocity=123 time=157
 i : 9the msg is note_on channel=9 note=42 velocity=115 time=0
 i : 9the msg is note_on channel=9 note=42 velocity=0 time=75
 i : 9the msg is note_on channel=9 note=38 velocity=89 time=405
 i : 9the msg is note_on channel=9 note=42 velocity=115 time=0
 i : 9the msg is note_on channel=9 note=36 velocity=0 time=14
 i : 9the msg is note_on channel=9 note=42 velocity=0 time=66
 i : 9the msg is note_on channel=9 note=38 velocity=0 time=107
 i : 9the msg is note_on channel=9 note=36 velocity=127 time=53
 i : 9the msg is note_on channel=9 note=46 velocity=96 time=0
 i : 9the msg is note_on channel=9 note=46 velocity=0 time=91
 i : 9the msg is note_on channel=9 note=42 velocity=57 time=389
 i : 9the msg is note_on channel=9 note=42 velocity=0 time=62
 i : 9the msg is note_on channel=9 note=42 velocity=100 time=58
 i : 9the msg is note_on channel=9 note=42 velocity=0 time=61
 i : 9the msg is note_on channel=9 note=38 velocity=89 time=52
 i : 9the msg is note_on channel=9 note=42 velocity=96 time=7
 i : 9the msg is note_on channel=9 note=42 velocity=0 time=79
 i : 9the msg is note_on channel=9 note=36 velocity=0 time=18
 i : 9the msg is note_on channel=9 note=38 velocity=0 time=143
 i : 9the msg is note_on channel=9 note=36 velocity=100 time=0
 i : 9the msg is note_on channel=9 note=42 velocity=60 time=0
 i : 9the msg is note_on channel=9 note=42 velocity=0 time=38
 i : 9the msg is note_on channel=9 note=36 velocity=0 time=42
 i : 9the msg is note_on channel=9 note=36 velocity=120 time=160
 i : 9the msg is note_on channel=9 note=42 velocity=115 time=0
 i : 9the msg is note_on channel=9 note=42 velocity=0 time=92
 i : 9the msg is note_on channel=9 note=36 velocity=0 time=96
 i : 9the msg is note_on channel=9 note=42 velocity=33 time=52
 i : 9the msg is note_on channel=9 note=42 velocity=0 time=55
 i : 9the msg is note_on channel=9 note=36 velocity=127 time=185
 i : 9the msg is note_on channel=9 note=46 velocity=107 time=0
 i : 9the msg is note_on channel=9 note=46 velocity=0 time=114
 i : 9the msg is note_on channel=9 note=42 velocity=57 time=606
 i : 9the msg is note_on channel=9 note=42 velocity=0 time=57
 i : 9the msg is note_on channel=9 note=42 velocity=87 time=63
 i : 9the msg is note_on channel=9 note=42 velocity=0 time=61
 i : 9the msg is note_on channel=9 note=38 velocity=89 time=59
 i : 9the msg is note_on channel=9 note=42 velocity=79 time=0
 i : 9the msg is note_on channel=9 note=42 velocity=0 time=88
 i : 9the msg is note_on channel=9 note=36 velocity=0 time=57
 i : 9the msg is note_on channel=9 note=36 velocity=111 time=95
 i : 9the msg is note_on channel=9 note=42 velocity=48 time=0
 i : 9the msg is note_on channel=9 note=38 velocity=0 time=3
 i : 9the msg is note_on channel=9 note=42 velocity=0 time=44
 i : 9the msg is note_on channel=9 note=36 velocity=0 time=34
 i : 9the msg is note_on channel=9 note=36 velocity=117 time=159
 i : 9the msg is note_on channel=9 note=42 velocity=104 time=0
 i : 9the msg is note_on channel=9 note=42 velocity=0 time=89
 i : 9the msg is note_on channel=9 note=42 velocity=36 time=151
 i : 9the msg is note_on channel=9 note=42 velocity=0 time=32
 i : 9the msg is note_on channel=9 note=36 velocity=0 time=112
 i : 9the msg is note_on channel=9 note=38 velocity=89 time=96
 i : 9the msg is note_on channel=9 note=42 velocity=96 time=0
 i : 9the msg is note_on channel=9 note=42 velocity=0 time=98
 i : 9the msg is note_on channel=9 note=38 velocity=0 time=157
 i : 9the msg is note_on channel=9 note=36 velocity=127 time=225
 i : 9the msg is note_on channel=9 note=46 velocity=94 time=0
 i : 9the msg is note_on channel=9 note=46 velocity=0 time=98
 i : 9the msg is note_on channel=9 note=42 velocity=48 time=142
 i : 9the msg is note_on channel=9 note=42 velocity=0 time=58
 i : 9the msg is note_on channel=9 note=42 velocity=62 time=62
 i : 9the msg is note_on channel=9 note=42 velocity=0 time=49
 i : 9the msg is note_on channel=9 note=38 velocity=89 time=71
 i : 9the msg is note_on channel=9 note=42 velocity=84 time=0
 i : 9the msg is note_on channel=9 note=42 velocity=0 time=75
 i : 9the msg is note_on channel=9 note=36 velocity=0 time=68
 i : 9the msg is note_on channel=9 note=38 velocity=0 time=64
 i : 9the msg is note_on channel=9 note=36 velocity=113 time=33
 i : 9the msg is note_on channel=9 note=42 velocity=37 time=0
 i : 9the msg is note_on channel=9 note=42 velocity=0 time=36
 i : 9the msg is note_on channel=9 note=36 velocity=0 time=51
 i : 9the msg is note_on channel=9 note=36 velocity=126 time=153
 i : 9the msg is note_on channel=9 note=42 velocity=79 time=0
 i : 9the msg is note_on channel=9 note=42 velocity=0 time=72
 i : 9the msg is note_on channel=9 note=42 velocity=59 time=48
 i : 9the msg is note_on channel=9 note=42 velocity=0 time=46
 i : 9the msg is note_on channel=9 note=42 velocity=42 time=74
 i : 9the msg is note_on channel=9 note=42 velocity=0 time=36
 i : 9the msg is note_on channel=9 note=42 velocity=33 time=84
 i : 9the msg is note_on channel=9 note=42 velocity=0 time=36
 i : 9the msg is note_on channel=9 note=38 velocity=89 time=84
 i : 9the msg is note_on channel=9 note=42 velocity=92 time=0
 i : 9the msg is note_on channel=9 note=42 velocity=0 time=77
 i : 9the msg is note_on channel=9 note=46 velocity=70 time=163
 i : 9the msg is note_on channel=9 note=38 velocity=0 time=39
 i : 9the msg is note_on channel=9 note=36 velocity=0 time=11
 i : 9the msg is note_on channel=9 note=46 velocity=0 time=21
 i : 9the msg is note_on channel=9 note=38 velocity=89 time=49
 i : 9the msg is note_on channel=9 note=38 velocity=0 time=106
 i : 9the msg is note_on channel=9 note=36 velocity=123 time=14
 i : 9the msg is note_on channel=9 note=42 velocity=58 time=0
 i : 9the msg is note_on channel=9 note=42 velocity=0 time=70
 i : 9the msg is note_on channel=9 note=42 velocity=31 time=50
 i : 9the msg is note_on channel=9 note=42 velocity=0 time=30
 i : 9the msg is note_on channel=9 note=42 velocity=40 time=90
 i : 9the msg is note_on channel=9 note=42 velocity=0 time=38
 i : 9the msg is note_on channel=9 note=42 velocity=59 time=82
 i : 9the msg is note_on channel=9 note=42 velocity=0 time=50
 i : 9the msg is note_on channel=9 note=38 velocity=89 time=70
 i : 9the msg is note_on channel=9 note=42 velocity=94 time=0
 i : 9the msg is note_on channel=9 note=42 velocity=0 time=77
 i : 9the msg is note_on channel=9 note=36 velocity=0 time=49
 i : 9the msg is note_on channel=9 note=38 velocity=0 time=89
 i : 9the msg is note_on channel=9 note=36 velocity=100 time=25
 i : 9the msg is note_on channel=9 note=36 velocity=0 time=92
 i : 9the msg is note_on channel=9 note=42 velocity=44 time=28
 i : 9the msg is note_on channel=9 note=42 velocity=0 time=41
 i : 9the msg is note_on channel=9 note=36 velocity=113 time=79
 i : 9the msg is note_on channel=9 note=42 velocity=100 time=0
 i : 9the msg is note_on channel=9 note=42 velocity=0 time=78
 i : 9the msg is note_on channel=9 note=42 velocity=47 time=42
 i : 9the msg is note_on channel=9 note=42 velocity=0 time=41
 i : 9the msg is note_on channel=9 note=42 velocity=42 time=79
 i : 9the msg is note_on channel=9 note=42 velocity=0 time=62
 i : 9the msg is note_on channel=9 note=42 velocity=29 time=58
 i : 9the msg is note_on channel=9 note=42 velocity=0 time=33
 i : 9the msg is note_on channel=9 note=38 velocity=89 time=87
 i : 9the msg is note_on channel=9 note=42 velocity=53 time=0
 i : 9the msg is note_on channel=9 note=42 velocity=0 time=80
 i : 9the msg is note_on channel=9 note=46 velocity=75 time=160
 i : 9the msg is note_on channel=9 note=38 velocity=0 time=36
 i : 9the msg is note_on channel=9 note=36 velocity=0 time=35
 i : 9the msg is note_on channel=9 note=46 velocity=0 time=8
 i : 9the msg is note_on channel=9 note=36 velocity=127 time=161
 i : 9the msg is note_on channel=9 note=42 velocity=55 time=0
 i : 9the msg is note_on channel=9 note=42 velocity=0 time=73
 i : 9the msg is note_on channel=9 note=42 velocity=44 time=167
 i : 9the msg is note_on channel=9 note=42 velocity=0 time=49
 i : 9the msg is note_on channel=9 note=42 velocity=73 time=71
 i : 9the msg is note_on channel=9 note=42 velocity=0 time=63
 i : 9the msg is note_on channel=9 note=38 velocity=89 time=57
 i : 9the msg is note_on channel=9 note=42 velocity=100 time=0
 i : 9the msg is note_on channel=9 note=42 velocity=0 time=83
 i : 9the msg is note_on channel=9 note=36 velocity=0 time=42
 i : 9the msg is note_on channel=9 note=36 velocity=106 time=115
 i : 9the msg is note_on channel=9 note=42 velocity=36 time=0
 i : 9the msg is note_on channel=9 note=42 velocity=0 time=36
 i : 9the msg is note_on channel=9 note=38 velocity=0 time=32
 i : 9the msg is note_on channel=9 note=36 velocity=0 time=18
 i : 9the msg is note_on channel=9 note=36 velocity=127 time=154
 i : 9the msg is note_on channel=9 note=42 velocity=100 time=0
 i : 9the msg is note_on channel=9 note=42 velocity=0 time=76
 i : 9the msg is note_on channel=9 note=42 velocity=66 time=44
 i : 9the msg is note_on channel=9 note=42 velocity=0 time=48
 i : 9the msg is note_on channel=9 note=42 velocity=49 time=72
 i : 9the msg is note_on channel=9 note=42 velocity=0 time=63
 i : 9the msg is note_on channel=9 note=42 velocity=41 time=57
 i : 9the msg is note_on channel=9 note=42 velocity=0 time=35
 i : 9the msg is note_on channel=9 note=38 velocity=89 time=85
 i : 9the msg is note_on channel=9 note=42 velocity=89 time=0
 i : 9the msg is note_on channel=9 note=42 velocity=0 time=97
 i : 9the msg is note_on channel=9 note=46 velocity=87 time=143
 i : 9the msg is note_on channel=9 note=38 velocity=0 time=15
 i : 9the msg is note_on channel=9 note=36 velocity=0 time=38
 i : 9the msg is note_on channel=9 note=46 velocity=0 time=43
 i : 9the msg is note_on channel=9 note=38 velocity=89 time=24
 i : 9the msg is note_on channel=9 note=38 velocity=0 time=118
 i : 9the msg is note_on channel=9 note=36 velocity=123 time=2
 i : 9the msg is note_on channel=9 note=42 velocity=87 time=0
 i : 9the msg is note_on channel=9 note=42 velocity=0 time=70
 i : 9the msg is note_on channel=9 note=42 velocity=45 time=170
 i : 9the msg is note_on channel=9 note=42 velocity=0 time=52
 i : 9the msg is note_on channel=9 note=42 velocity=27 time=68
 i : 9the msg is note_on channel=9 note=42 velocity=0 time=30
 i : 9the msg is note_on channel=9 note=38 velocity=89 time=90
 i : 9the msg is note_on channel=9 note=42 velocity=76 time=0
 i : 9the msg is note_on channel=9 note=36 velocity=0 time=64
 i : 9the msg is note_on channel=9 note=42 velocity=0 time=22
 i : 9the msg is note_on channel=9 note=36 velocity=108 time=154
 i : 9the msg is note_on channel=9 note=42 velocity=18 time=0
 i : 9the msg is note_on channel=9 note=38 velocity=0 time=4
 i : 9the msg is note_on channel=9 note=42 velocity=0 time=26
 i : 9the msg is note_on channel=9 note=36 velocity=0 time=38
 i : 9the msg is note_on channel=9 note=42 velocity=76 time=52
 i : 9the msg is note_on channel=9 note=42 velocity=0 time=58
 i : 9the msg is note_on channel=9 note=36 velocity=123 time=62
 i : 9the msg is note_on channel=9 note=42 velocity=65 time=0
 i : 9the msg is note_on channel=9 note=42 velocity=0 time=100
 i : 9the msg is note_on channel=9 note=42 velocity=53 time=140
 i : 9the msg is note_on channel=9 note=42 velocity=0 time=44
 i : 9the msg is note_on channel=9 note=38 velocity=89 time=196
 i : 9the msg is note_on channel=9 note=42 velocity=115 time=0
 i : 9the msg is note_on channel=9 note=36 velocity=0 time=56
 i : 9the msg is note_on channel=9 note=42 velocity=0 time=31
 i : 9the msg is note_on channel=9 note=38 velocity=0 time=109
 i : 9the msg is note_on channel=9 note=36 velocity=127 time=44
 i : 9the msg is note_on channel=9 note=55 velocity=111 time=0
 i : 9the msg is note_on channel=9 note=55 velocity=0 time=77
 i : 9the msg is note_on channel=9 note=42 velocity=43 time=403
 i : 9the msg is note_on channel=9 note=42 velocity=0 time=66
 i : 9the msg is note_on channel=9 note=42 velocity=78 time=54
 i : 9the msg is note_on channel=9 note=42 velocity=0 time=50
 i : 9the msg is note_on channel=9 note=38 velocity=89 time=70
 i : 9the msg is note_on channel=9 note=42 velocity=94 time=0
 i : 9the msg is note_on channel=9 note=42 velocity=0 time=82
 i : 9the msg is note_on channel=9 note=36 velocity=0 time=35
 i : 9the msg is note_on channel=9 note=38 velocity=0 time=123
 i : 9the msg is note_on channel=9 note=36 velocity=108 time=0
 i : 9the msg is note_on channel=9 note=42 velocity=73 time=0
 i : 9the msg is note_on channel=9 note=42 velocity=0 time=53
 i : 9the msg is note_on channel=9 note=36 velocity=0 time=36
 i : 9the msg is note_on channel=9 note=36 velocity=113 time=151
 i : 9the msg is note_on channel=9 note=42 velocity=125 time=0
 i : 9the msg is note_on channel=9 note=42 velocity=0 time=99
 i : 9the msg is note_on channel=9 note=36 velocity=0 time=132
 i : 9the msg is note_on channel=9 note=36 velocity=127 time=249
 i : 9the msg is note_on channel=9 note=55 velocity=120 time=0
 i : 9the msg is note_on channel=9 note=55 velocity=0 time=70
 i : 9the msg is note_on channel=9 note=74 velocity=127 time=172
 i : 9the msg is note_on channel=9 note=74 velocity=0 time=411
 i : 9the msg is note_on channel=9 note=42 velocity=52 time=67
 i : 9the msg is note_on channel=9 note=42 velocity=0 time=69
 i : 9the msg is note_on channel=9 note=42 velocity=82 time=51
 i : 9the msg is note_on channel=9 note=42 velocity=0 time=60
 i : 9the msg is note_on channel=9 note=38 velocity=89 time=60
 i : 9the msg is note_on channel=9 note=42 velocity=96 time=0
 i : 9the msg is note_on channel=9 note=42 velocity=0 time=80
 i : 9the msg is note_on channel=9 note=42 velocity=48 time=160
 i : 9the msg is note_on channel=9 note=38 velocity=0 time=12
 i : 9the msg is note_on channel=9 note=42 velocity=0 time=38
 i : 9the msg is note_on channel=9 note=42 velocity=119 time=190
 i : 9the msg is note_on channel=9 note=42 velocity=0 time=101
 i : 9the msg is note_on channel=9 note=42 velocity=71 time=139
 i : 9the msg is note_on channel=9 note=42 velocity=0 time=41
 i : 9the msg is note_on channel=9 note=38 velocity=89 time=199
 i : 9the msg is note_on channel=9 note=42 velocity=119 time=0
 i : 9the msg is note_on channel=9 note=36 velocity=0 time=56
 i : 9the msg is note_on channel=9 note=42 velocity=0 time=24
 i : 9the msg is note_on channel=9 note=38 velocity=0 time=102
 i : 9the msg is note_on channel=9 note=36 velocity=127 time=58
 i : 9the msg is note_on channel=9 note=55 velocity=120 time=0
 i : 9the msg is note_on channel=9 note=55 velocity=0 time=64
 i : 9the msg is note_on channel=9 note=42 velocity=60 time=416
 i : 9the msg is note_on channel=9 note=42 velocity=0 time=60
 i : 9the msg is note_on channel=9 note=42 velocity=107 time=60
 i : 9the msg is note_on channel=9 note=42 velocity=0 time=49
 i : 9the msg is note_on channel=9 note=38 velocity=89 time=71
 i : 9the msg is note_on channel=9 note=42 velocity=94 time=0
 i : 9the msg is note_on channel=9 note=42 velocity=0 time=80
 i : 9the msg is note_on channel=9 note=36 velocity=0 time=15
 i : 9the msg is note_on channel=9 note=36 velocity=113 time=145
 i : 9the msg is note_on channel=9 note=42 velocity=84 time=0
 i : 9the msg is note_on channel=9 note=38 velocity=0 time=15
 i : 9the msg is note_on channel=9 note=42 velocity=0 time=34
 i : 9the msg is note_on channel=9 note=36 velocity=0 time=44
 i : 9the msg is note_on channel=9 note=36 velocity=126 time=147
 i : 9the msg is note_on channel=9 note=42 velocity=111 time=0
 i : 9the msg is note_on channel=9 note=42 velocity=0 time=86
 i : 9the msg is note_on channel=9 note=36 velocity=0 time=126
 i : 9the msg is note_on channel=9 note=36 velocity=127 time=268
 i : 9the msg is note_on channel=9 note=55 velocity=113 time=0
 i : 9the msg is note_on channel=9 note=55 velocity=0 time=72
 i : 9the msg is note_on channel=9 note=74 velocity=127 time=201
 i : 9the msg is note_on channel=9 note=42 velocity=49 time=447
 i : 9the msg is note_on channel=9 note=74 velocity=0 time=21
 i : 9the msg is note_on channel=9 note=42 velocity=0 time=37
 i : 9the msg is note_on channel=9 note=42 velocity=87 time=62
 i : 9the msg is note_on channel=9 note=42 velocity=0 time=62
 i : 9the msg is note_on channel=9 note=38 velocity=89 time=58
 i : 9the msg is note_on channel=9 note=42 velocity=84 time=0
 i : 9the msg is note_on channel=9 note=42 velocity=0 time=101
 i : 9the msg is note_on channel=9 note=38 velocity=0 time=125
 i : 9the msg is note_on channel=9 note=42 velocity=48 time=14
 i : 9the msg is note_on channel=9 note=42 velocity=0 time=38
 i : 9the msg is note_on channel=9 note=42 velocity=115 time=202
 i : 9the msg is note_on channel=9 note=42 velocity=0 time=116
 i : 9the msg is note_on channel=9 note=36 velocity=0 time=50
 i : 9the msg is note_on channel=9 note=42 velocity=63 time=74
 i : 9the msg is note_on channel=9 note=42 velocity=0 time=42
 i : 9the msg is note_on channel=9 note=38 velocity=89 time=198
 i : 9the msg is note_on channel=9 note=42 velocity=115 time=0
 i : 9the msg is note_on channel=9 note=42 velocity=0 time=91
 i : 9the msg is note_on channel=9 note=38 velocity=0 time=113
 i : 9the msg is note_on channel=9 note=36 velocity=127 time=36
 i : 9the msg is note_on channel=9 note=55 velocity=123 time=0
 i : 9the msg is note_on channel=9 note=55 velocity=0 time=62
 i : 9the msg is note_on channel=9 note=42 velocity=62 time=418
 i : 9the msg is note_on channel=9 note=42 velocity=0 time=66
 i : 9the msg is note_on channel=9 note=42 velocity=70 time=54
 i : 9the msg is note_on channel=9 note=42 velocity=0 time=50
 i : 9the msg is note_on channel=9 note=38 velocity=89 time=70
 i : 9the msg is note_on channel=9 note=42 velocity=92 time=0
 i : 9the msg is note_on channel=9 note=36 velocity=0 time=99
 i : 9the msg is note_on channel=9 note=42 velocity=0 time=29
 i : 9the msg is note_on channel=9 note=36 velocity=117 time=112
 i : 9the msg is note_on channel=9 note=42 velocity=57 time=0
 i : 9the msg is note_on channel=9 note=38 velocity=0 time=6
 i : 9the msg is note_on channel=9 note=42 velocity=0 time=33
 i : 9the msg is note_on channel=9 note=36 velocity=0 time=60
 i : 9the msg is note_on channel=9 note=36 velocity=120 time=141
 i : 9the msg is note_on channel=9 note=42 velocity=127 time=0
 i : 9the msg is note_on channel=9 note=42 velocity=0 time=144
 i : 9the msg is note_on channel=9 note=36 velocity=0 time=97
 i : 9the msg is note_on channel=9 note=36 velocity=127 time=239
 i : 9the msg is note_on channel=9 note=55 velocity=113 time=0
 i : 9the msg is note_on channel=9 note=55 velocity=0 time=71
 i : 9the msg is note_on channel=9 note=74 velocity=127 time=176
 i : 9the msg is note_on channel=9 note=42 velocity=42 time=473
 i : 9the msg is note_on channel=9 note=42 velocity=0 time=53
 i : 9the msg is note_on channel=9 note=74 velocity=0 time=25
 i : 9the msg is note_on channel=9 note=42 velocity=65 time=42
 i : 9the msg is note_on channel=9 note=42 velocity=0 time=49
 i : 9the msg is note_on channel=9 note=38 velocity=89 time=71
 i : 9the msg is note_on channel=9 note=42 velocity=94 time=0
 i : 9the msg is note_on channel=9 note=42 velocity=0 time=122
 i : 9the msg is note_on channel=9 note=36 velocity=0 time=17
 i : 9the msg is note_on channel=9 note=38 velocity=0 time=67
 i : 9the msg is note_on channel=9 note=36 velocity=106 time=34
 i : 9the msg is note_on channel=9 note=36 velocity=0 time=87
 i : 9the msg is note_on channel=9 note=36 velocity=126 time=153
 i : 9the msg is note_on channel=9 note=42 velocity=107 time=0
 i : 9the msg is note_on channel=9 note=42 velocity=0 time=164
 i : 9the msg is note_on channel=9 note=42 velocity=78 time=76
 i : 9the msg is note_on channel=9 note=42 velocity=0 time=48
 i : 9the msg is note_on channel=9 note=38 velocity=89 time=192
 i : 9the msg is note_on channel=9 note=42 velocity=111 time=0
 i : 9the msg is note_on channel=9 note=36 velocity=0 time=58
 i : 9the msg is note_on channel=9 note=42 velocity=0 time=34
 i : 9the msg is note_on channel=9 note=38 velocity=0 time=105
 i : 9the msg is note_on channel=9 note=36 velocity=127 time=43
 i : 9the msg is note_on channel=9 note=55 velocity=111 time=0
 i : 9the msg is note_on channel=9 note=55 velocity=0 time=75
 i : 9the msg is note_on channel=9 note=42 velocity=55 time=405
 i : 9the msg is note_on channel=9 note=42 velocity=0 time=56
 i : 9the msg is note_on channel=9 note=42 velocity=89 time=64
 i : 9the msg is note_on channel=9 note=42 velocity=0 time=52
 i : 9the msg is note_on channel=9 note=38 velocity=89 time=68
 i : 9the msg is note_on channel=9 note=42 velocity=107 time=0
 i : 9the msg is note_on channel=9 note=42 velocity=0 time=96
 i : 9the msg is note_on channel=9 note=36 velocity=0 time=31
 i : 9the msg is note_on channel=9 note=38 velocity=0 time=86
 i : 9the msg is note_on channel=9 note=36 velocity=113 time=27
 i : 9the msg is note_on channel=9 note=36 velocity=0 time=90
 i : 9the msg is note_on channel=9 note=36 velocity=126 time=150
 i : 9the msg is note_on channel=9 note=42 velocity=111 time=0
 i : 9the msg is note_on channel=9 note=42 velocity=0 time=95
 i : 9the msg is note_on channel=9 note=36 velocity=0 time=90
 i : 9the msg is note_on channel=9 note=36 velocity=127 time=295
 i : 9the msg is note_on channel=9 note=55 velocity=108 time=0
 i : 9the msg is note_on channel=9 note=55 velocity=0 time=83
 i : 9the msg is note_on channel=9 note=74 velocity=127 time=181
 i : 9the msg is note_on channel=9 note=42 velocity=54 time=456
 i : 9the msg is note_on channel=9 note=74 velocity=0 time=59
 i : 9the msg is note_on channel=9 note=42 velocity=0 time=1
 i : 9the msg is note_on channel=9 note=42 velocity=87 time=60
 i : 9the msg is note_on channel=9 note=42 velocity=0 time=53
 i : 9the msg is note_on channel=9 note=38 velocity=89 time=67
 i : 9the msg is note_on channel=9 note=42 velocity=89 time=0
 i : 9the msg is note_on channel=9 note=42 velocity=0 time=114
 i : 9the msg is note_on channel=9 note=42 velocity=36 time=126
 i : 9the msg is note_on channel=9 note=42 velocity=0 time=41
 i : 9the msg is note_on channel=9 note=38 velocity=0 time=46
 i : 9the msg is note_on channel=9 note=42 velocity=107 time=153
 i : 9the msg is note_on channel=9 note=42 velocity=0 time=108
 i : 9the msg is note_on channel=9 note=38 velocity=89 time=132
 i : 9the msg is note_on channel=9 note=38 velocity=0 time=84
 i : 9the msg is note_on channel=9 note=38 velocity=89 time=156
 i : 9the msg is note_on channel=9 note=42 velocity=111 time=0
 i : 9the msg is note_on channel=9 note=36 velocity=0 time=73
 i : 9the msg is note_on channel=9 note=42 velocity=0 time=20
 i : 9the msg is note_on channel=9 note=38 velocity=0 time=85
 i : 9the msg is note_on channel=9 note=36 velocity=127 time=62
 i : 9the msg is note_on channel=9 note=36 velocity=127 time=0
 i : 9the msg is note_on channel=9 note=49 velocity=100 time=0
 i : 9the msg is note_on channel=9 note=49 velocity=0 time=78
 i : 9the msg is note_on channel=9 note=36 velocity=0 time=458
 i : 9the msg is note_on channel=9 note=42 velocity=71 time=64
 i : 9the msg is note_on channel=9 note=42 velocity=0 time=30
 i : 9the msg is note_on channel=9 note=42 velocity=111 time=30
 i : 9the msg is note_on channel=9 note=42 velocity=94 time=0
 i : 9the msg is note_on channel=9 note=42 velocity=0 time=25
 i : 9the msg is note_on channel=9 note=42 velocity=0 time=14
 i : 9the msg is note_on channel=9 note=42 velocity=127 time=21
 i : 9the msg is note_on channel=9 note=42 velocity=0 time=29
 i : 9the msg is note_on channel=9 note=36 velocity=0 time=81
 i : 9the msg is note_on channel=9 note=36 velocity=98 time=130
 i : 9the msg is note_on channel=9 note=36 velocity=0 time=95
 i : 9the msg is note_on channel=9 note=36 velocity=127 time=145
 i : 9the msg is note_on channel=9 note=42 velocity=68 time=240
 i : 9the msg is note_on channel=9 note=42 velocity=0 time=22
 i : 9the msg is note_on channel=9 note=42 velocity=119 time=98
 i : 9the msg is note_on channel=9 note=42 velocity=0 time=29
 i : 9the msg is note_on channel=9 note=42 velocity=127 time=91
 i : 9the msg is note_on channel=9 note=42 velocity=0 time=53
 i : 9the msg is note_on channel=9 note=42 velocity=59 time=307
 i : 9the msg is note_on channel=9 note=36 velocity=0 time=20
 i : 9the msg is note_on channel=9 note=42 velocity=0 time=2
 i : 9the msg is note_on channel=9 note=36 velocity=127 time=98
 i : 9the msg is note_on channel=9 note=42 velocity=119 time=0
 i : 9the msg is note_on channel=9 note=42 velocity=0 time=50
 i : 9the msg is note_on channel=9 note=42 velocity=60 time=190
 i : 9the msg is note_on channel=9 note=42 velocity=0 time=41
 i : 9the msg is note_on channel=9 note=42 velocity=53 time=79
 i : 9the msg is note_on channel=9 note=42 velocity=0 time=23
 i : 9the msg is note_on channel=9 note=42 velocity=92 time=97
 i : 9the msg is note_on channel=9 note=42 velocity=0 time=43
 i : 9the msg is note_on channel=9 note=42 velocity=73 time=17
 i : 9the msg is note_on channel=9 note=42 velocity=0 time=25
 i : 9the msg is note_on channel=9 note=42 velocity=55 time=35
 i : 9the msg is note_on channel=9 note=42 velocity=0 time=31
 i : 9the msg is note_on channel=9 note=42 velocity=78 time=29
 i : 9the msg is note_on channel=9 note=42 velocity=0 time=25
 i : 9the msg is note_on channel=9 note=42 velocity=84 time=35
 i : 9the msg is note_on channel=9 note=42 velocity=0 time=50
 i : 9the msg is note_on channel=9 note=36 velocity=0 time=67
 i : 9the msg is note_on channel=9 note=42 velocity=42 time=3
 i : 9the msg is note_on channel=9 note=42 velocity=0 time=18
 i : 9the msg is note_on channel=9 note=36 velocity=127 time=102
 i : 9the msg is note_on channel=9 note=42 velocity=84 time=0
 i : 9the msg is note_on channel=9 note=42 velocity=0 time=49
 i : 9the msg is note_on channel=9 note=42 velocity=55 time=311
 i : 9the msg is note_on channel=9 note=42 velocity=0 time=24
 i : 9the msg is note_on channel=9 note=42 velocity=92 time=96
 i : 9the msg is note_on channel=9 note=42 velocity=0 time=56
 i : 9the msg is note_on channel=9 note=36 velocity=0 time=275
 i : 9the msg is note_on channel=9 note=36 velocity=127 time=149
 i : 9the msg is note_on channel=9 note=36 velocity=0 time=826
 i : 9the msg is note_on channel=9 note=36 velocity=127 time=134
 i : 9the msg is note_on channel=9 note=42 velocity=76 time=180
 i : 9the msg is note_on channel=9 note=42 velocity=0 time=32
 i : 9the msg is note_on channel=9 note=42 velocity=82 time=28
 i : 9the msg is note_on channel=9 note=42 velocity=0 time=31
 i : 9the msg is note_on channel=9 note=42 velocity=62 time=89
 i : 9the msg is note_on channel=9 note=42 velocity=0 time=27
 i : 9the msg is note_on channel=9 note=42 velocity=119 time=93
 i : 9the msg is note_on channel=9 note=42 velocity=0 time=52
 i : 9the msg is note_on channel=9 note=42 velocity=51 time=68
 i : 9the msg is note_on channel=9 note=42 velocity=0 time=26
 i : 9the msg is note_on channel=9 note=42 velocity=61 time=94
 i : 9the msg is note_on channel=9 note=74 velocity=127 time=18
 i : 9the msg is note_on channel=9 note=42 velocity=0 time=19
 i : 9the msg is note_on channel=9 note=36 velocity=0 time=28
 i : 9the msg is note_on channel=9 note=42 velocity=43 time=55
 i : 9the msg is note_on channel=9 note=42 velocity=0 time=16
 i : 9the msg is note_on channel=9 note=36 velocity=127 time=104
 i : 9the msg is note_on channel=9 note=42 velocity=107 time=0
 i : 9the msg is note_on channel=9 note=42 velocity=0 time=36
 i : 9the msg is note_on channel=9 note=42 velocity=92 time=24
 i : 9the msg is note_on channel=9 note=42 velocity=0 time=29
 i : 9the msg is note_on channel=9 note=42 velocity=70 time=31
 i : 9the msg is note_on channel=9 note=74 velocity=0 time=10
 i : 9the msg is note_on channel=9 note=42 velocity=0 time=25
 i : 9the msg is note_on channel=9 note=42 velocity=73 time=25
 i : 9the msg is note_on channel=9 note=42 velocity=0 time=27
 i : 9the msg is note_on channel=9 note=42 velocity=92 time=33
 i : 9the msg is note_on channel=9 note=73 velocity=127 time=10
 i : 9the msg is note_on channel=9 note=42 velocity=0 time=36
 i : 9the msg is note_on channel=9 note=73 velocity=0 time=46
 i : 9the msg is note_on channel=9 note=42 velocity=62 time=28
 i : 9the msg is note_on channel=9 note=42 velocity=0 time=21
 i : 9the msg is note_on channel=9 note=42 velocity=87 time=99
 i : 9the msg is note_on channel=9 note=42 velocity=0 time=49
 i : 9the msg is note_on channel=9 note=36 velocity=0 time=282
 i : 9the msg is note_on channel=9 note=42 velocity=63 time=29
 i : 9the msg is note_on channel=9 note=42 velocity=0 time=34
 i : 9the msg is note_on channel=9 note=36 velocity=127 time=86
 i : 9the msg is note_on channel=9 note=42 velocity=119 time=0
 i : 9the msg is note_on channel=9 note=42 velocity=0 time=33
 i : 9the msg is note_on channel=9 note=42 velocity=33 time=567
 i : 9the msg is note_on channel=9 note=42 velocity=0 time=19
 i : 9the msg is note_on channel=9 note=46 velocity=127 time=101
 i : 9the msg is note_on channel=9 note=46 velocity=0 time=33
 i : 9the msg is note_on channel=9 note=36 velocity=0 time=59
 i : 9the msg is note_on channel=9 note=36 velocity=127 time=148
 i : 9the msg is note_on channel=9 note=42 velocity=42 time=240
 i : 9the msg is note_on channel=9 note=42 velocity=0 time=34
 i : 9the msg is note_on channel=9 note=42 velocity=20 time=86
 i : 9the msg is note_on channel=9 note=42 velocity=0 time=13
 i : 9the msg is note_on channel=9 note=42 velocity=84 time=107
 i : 9the msg is note_on channel=9 note=42 velocity=0 time=46
 i : 9the msg is note_on channel=9 note=42 velocity=58 time=74
 i : 9the msg is note_on channel=9 note=42 velocity=0 time=24
 i : 9the msg is note_on channel=9 note=42 velocity=63 time=36
 i : 9the msg is note_on channel=9 note=42 velocity=0 time=77
 i : 9the msg is note_on channel=9 note=36 velocity=0 time=30
 i : 9the msg is note_on channel=9 note=42 velocity=104 time=73
 i : 9the msg is note_on channel=9 note=42 velocity=0 time=32
 i : 9the msg is note_on channel=9 note=36 velocity=127 time=88
 i : 9the msg is note_on channel=9 note=42 velocity=96 time=0
 i : 9the msg is note_on channel=9 note=42 velocity=0 time=52
 i : 9the msg is note_on channel=9 note=42 velocity=61 time=548
 i : 9the msg is note_on channel=9 note=42 velocity=0 time=27
 i : 9the msg is note_on channel=9 note=42 velocity=51 time=93
 i : 9the msg is note_on channel=9 note=74 velocity=100 time=16
 i : 9the msg is note_on channel=9 note=42 velocity=0 time=20
 i : 9the msg is note_on channel=9 note=36 velocity=0 time=26
 i : 9the msg is note_on channel=9 note=42 velocity=50 time=58
 i : 9the msg is note_on channel=9 note=42 velocity=0 time=22
 i : 9the msg is note_on channel=9 note=36 velocity=127 time=98
 i : 9the msg is note_on channel=9 note=42 velocity=107 time=0
 i : 9the msg is note_on channel=9 note=42 velocity=0 time=39
 i : 9the msg is note_on channel=9 note=42 velocity=75 time=21
 i : 9the msg is note_on channel=9 note=42 velocity=0 time=27
 i : 9the msg is note_on channel=9 note=42 velocity=63 time=33
 i : 9the msg is note_on channel=9 note=74 velocity=0 time=20
 i : 9the msg is note_on channel=9 note=42 velocity=0 time=13
 i : 9the msg is note_on channel=9 note=42 velocity=66 time=27
 i : 9the msg is note_on channel=9 note=42 velocity=0 time=27
 i : 9the msg is note_on channel=9 note=42 velocity=82 time=33
 i : 9the msg is note_on channel=9 note=42 velocity=0 time=39
 i : 9the msg is note_on channel=9 note=42 velocity=32 time=81
 i : 9the msg is note_on channel=9 note=42 velocity=0 time=16
 i : 9the msg is note_on channel=9 note=42 velocity=107 time=104
 i : 9the msg is note_on channel=9 note=42 velocity=0 time=51
 i : 9the msg is note_on channel=9 note=36 velocity=0 time=302
 i : 9the msg is note_on channel=9 note=36 velocity=123 time=127
 i : 9the msg is note_on channel=9 note=42 velocity=34 time=120
 i : 9the msg is note_on channel=9 note=42 velocity=0 time=31
 i : 9the msg is note_on channel=9 note=42 velocity=57 time=89
 i : 9the msg is note_on channel=9 note=42 velocity=0 time=25
 i : 9the msg is note_on channel=9 note=42 velocity=54 time=35
 i : 9the msg is note_on channel=9 note=42 velocity=0 time=31
 i : 9the msg is note_on channel=9 note=42 velocity=79 time=29
 i : 9the msg is note_on channel=9 note=42 velocity=0 time=29
 i : 9the msg is note_on channel=9 note=42 velocity=100 time=31
 i : 9the msg is note_on channel=9 note=42 velocity=0 time=58
 i : 9the msg is note_on channel=9 note=42 velocity=127 time=2
 i : 9the msg is note_on channel=9 note=42 velocity=0 time=48
 i : 9the msg is note_on channel=9 note=42 velocity=65 time=72
 i : 9the msg is note_on channel=9 note=42 velocity=0 time=20
 i : 9the msg is note_on channel=9 note=46 velocity=104 time=100
 i : 9the msg is note_on channel=9 note=46 velocity=0 time=44
 i : 9the msg is note_on channel=9 note=36 velocity=0 time=20
 i : 9the msg is note_on channel=9 note=36 velocity=127 time=176
 i : 9the msg is note_on channel=9 note=42 velocity=58 time=240
 i : 9the msg is note_on channel=9 note=42 velocity=0 time=34
 i : 9the msg is note_on channel=9 note=42 velocity=84 time=206
 i : 9the msg is note_on channel=9 note=42 velocity=0 time=36
 i : 9the msg is note_on channel=9 note=42 velocity=92 time=24
 i : 9the msg is note_on channel=9 note=42 velocity=0 time=25
 i : 9the msg is note_on channel=9 note=42 velocity=71 time=35
 i : 9the msg is note_on channel=9 note=42 velocity=0 time=34
 i : 9the msg is note_on channel=9 note=42 velocity=89 time=26
 i : 9the msg is note_on channel=9 note=42 velocity=0 time=27
 i : 9the msg is note_on channel=9 note=42 velocity=82 time=33
 i : 9the msg is note_on channel=9 note=42 velocity=0 time=42
 i : 9the msg is note_on channel=9 note=36 velocity=0 time=49
 i : 9the msg is note_on channel=9 note=42 velocity=92 time=29
 i : 9the msg is note_on channel=9 note=42 velocity=0 time=19
 i : 9the msg is note_on channel=9 note=36 velocity=127 time=101
 i : 9the msg is note_on channel=9 note=42 velocity=96 time=0
 i : 9the msg is note_on channel=9 note=42 velocity=0 time=42
 i : 9the msg is note_on channel=9 note=74 velocity=113 time=654
 i : 9the msg is note_on channel=9 note=42 velocity=37 time=24
 i : 9the msg is note_on channel=9 note=42 velocity=0 time=31
 i : 9the msg is note_on channel=9 note=36 velocity=0 time=88
 i : 9the msg is note_on channel=9 note=42 velocity=60 time=1
 i : 9the msg is note_on channel=9 note=42 velocity=0 time=27
 i : 9the msg is note_on channel=9 note=36 velocity=108 time=93
 i : 9the msg is note_on channel=9 note=42 velocity=111 time=0
 i : 9the msg is note_on channel=9 note=42 velocity=0 time=52
 i : 9the msg is note_on channel=9 note=74 velocity=0 time=90
 i : 9the msg is note_on channel=9 note=73 velocity=122 time=44
 i : 9the msg is note_on channel=9 note=38 velocity=89 time=54
 i : 9the msg is note_on channel=9 note=42 velocity=32 time=0
 i : 9the msg is note_on channel=9 note=36 velocity=0 time=14
 i : 9the msg is note_on channel=9 note=42 velocity=0 time=8
 i : 9the msg is note_on channel=9 note=73 velocity=0 time=31
 i : 9the msg is note_on channel=9 note=42 velocity=65 time=67
 i : 9the msg is note_on channel=9 note=38 velocity=0 time=7
 i : 9the msg is note_on channel=9 note=42 velocity=0 time=24
 i : 9the msg is note_on channel=9 note=38 velocity=89 time=89
 i : 9the msg is note_on channel=9 note=42 velocity=92 time=0
 i : 9the msg is note_on channel=9 note=42 velocity=0 time=40
 i : 9the msg is note_on channel=9 note=42 velocity=79 time=20
 i : 9the msg is note_on channel=9 note=42 velocity=0 time=27
 i : 9the msg is note_on channel=9 note=42 velocity=63 time=33
 i : 9the msg is note_on channel=9 note=42 velocity=0 time=37
 i : 9the msg is note_on channel=9 note=42 velocity=57 time=23
 i : 9the msg is note_on channel=9 note=42 velocity=0 time=22
 i : 9the msg is note_on channel=9 note=36 velocity=103 time=38
 i : 9the msg is note_on channel=9 note=42 velocity=78 time=0
 i : 9the msg is note_on channel=9 note=38 velocity=0 time=12
 i : 9the msg is note_on channel=9 note=42 velocity=0 time=25
 i : 9the msg is note_on channel=9 note=42 velocity=58 time=83
 i : 9the msg is note_on channel=9 note=42 velocity=0 time=23
 i : 9the msg is note_on channel=9 note=36 velocity=0 time=89
 i : 9the msg is note_on channel=9 note=38 velocity=89 time=8
 i : 9the msg is note_on channel=9 note=42 velocity=82 time=0
 i : 9the msg is note_on channel=9 note=42 velocity=0 time=38
 i : 9the msg is note_on channel=9 note=38 velocity=0 time=102
 i : 9the msg is note_on channel=9 note=38 velocity=89 time=100
 i : 9the msg is note_on channel=9 note=42 velocity=25 time=0
 i : 9the msg is note_on channel=9 note=42 velocity=0 time=19
 i : 9the msg is note_on channel=9 note=42 velocity=58 time=101
 i : 9the msg is note_on channel=9 note=38 velocity=0 time=7
 i : 9the msg is note_on channel=9 note=42 velocity=0 time=29
 i : 9the msg is note_on channel=9 note=38 velocity=89 time=84
 i : 9the msg is note_on channel=9 note=42 velocity=107 time=0
 i : 9the msg is note_on channel=9 note=42 velocity=0 time=42
 i : 9the msg is note_on channel=9 note=42 velocity=84 time=78
 i : 9the msg is note_on channel=9 note=38 velocity=0 time=9
 i : 9the msg is note_on channel=9 note=42 velocity=0 time=33
 i : 9the msg is note_on channel=9 note=38 velocity=89 time=78
 i : 9the msg is note_on channel=9 note=46 velocity=119 time=0
 i : 9the msg is note_on channel=9 note=46 velocity=0 time=45
 i : 9the msg is note_on channel=9 note=38 velocity=0 time=13
 i : 9the msg is note_on channel=9 note=38 velocity=89 time=62
 i : 9the msg is note_on channel=9 note=38 velocity=0 time=83
 i : 9the msg is note_on channel=9 note=36 velocity=111 time=37
 i : 9the msg is note_on channel=9 note=42 velocity=125 time=0
 i : 9the msg is note_on channel=9 note=42 velocity=0 time=68
 i : 9the msg is note_on channel=9 note=42 velocity=43 time=52
 i : 9the msg is note_on channel=9 note=42 velocity=0 time=36
 i : 9the msg is note_on channel=9 note=42 velocity=84 time=84
 i : 9the msg is note_on channel=9 note=42 velocity=0 time=57
 i : 9the msg is note_on channel=9 note=42 velocity=96 time=63
 i : 9the msg is note_on channel=9 note=42 velocity=0 time=57
 i : 9the msg is note_on channel=9 note=38 velocity=89 time=63
 i : 9the msg is note_on channel=9 note=42 velocity=111 time=0
 i : 9the msg is note_on channel=9 note=36 velocity=0 time=73
 i : 9the msg is note_on channel=9 note=42 velocity=0 time=16
 i : 9the msg is note_on channel=9 note=38 velocity=0 time=145
 i : 9the msg is note_on channel=9 note=36 velocity=113 time=6
 i : 9the msg is note_on channel=9 note=36 velocity=0 time=77
 i : 9the msg is note_on channel=9 note=36 velocity=126 time=163
 i : 9the msg is note_on channel=9 note=42 velocity=107 time=0
 i : 9the msg is note_on channel=9 note=42 velocity=0 time=83
 i : 9the msg is note_on channel=9 note=36 velocity=0 time=61
 i : 9the msg is note_on channel=9 note=42 velocity=56 time=96
 i : 9the msg is note_on channel=9 note=42 velocity=0 time=44
 i : 9the msg is note_on channel=9 note=36 velocity=127 time=196
 i : 9the msg is note_on channel=9 note=46 velocity=94 time=0
 i : 9the msg is note_on channel=9 note=46 velocity=0 time=94
 i : 9the msg is note_on channel=9 note=42 velocity=45 time=626
 i : 9the msg is note_on channel=9 note=42 velocity=0 time=57
 i : 9the msg is note_on channel=9 note=42 velocity=61 time=63
 i : 9the msg is note_on channel=9 note=42 velocity=0 time=44
 i : 9the msg is note_on channel=9 note=38 velocity=89 time=76
 i : 9the msg is note_on channel=9 note=42 velocity=87 time=0
 i : 9the msg is note_on channel=9 note=36 velocity=0 time=81
 i : 9the msg is note_on channel=9 note=42 velocity=0 time=2
 i : 9the msg is note_on channel=9 note=38 velocity=0 time=121
 i : 9the msg is note_on channel=9 note=36 velocity=78 time=36
 i : 9the msg is note_on channel=9 note=36 velocity=0 time=79
 i : 9the msg is note_on channel=9 note=36 velocity=126 time=161
 i : 9the msg is note_on channel=9 note=42 velocity=107 time=0
 i : 9the msg is note_on channel=9 note=42 velocity=0 time=79
 i : 9the msg is note_on channel=9 note=38 velocity=89 time=401
 i : 9the msg is note_on channel=9 note=42 velocity=115 time=0
 i : 9the msg is note_on channel=9 note=36 velocity=0 time=35
 i : 9the msg is note_on channel=9 note=42 velocity=0 time=44
 i : 9the msg is note_on channel=9 note=38 velocity=0 time=106
 i : 9the msg is note_on channel=9 note=36 velocity=127 time=55
 i : 9the msg is note_on channel=9 note=46 velocity=104 time=0
 i : 9the msg is note_on channel=9 note=46 velocity=0 time=102
 i : 9the msg is note_on channel=9 note=42 velocity=59 time=378
 i : 9the msg is note_on channel=9 note=42 velocity=0 time=64
 i : 9the msg is note_on channel=9 note=42 velocity=87 time=56
 i : 9the msg is note_on channel=9 note=42 velocity=0 time=55
 i : 9the msg is note_on channel=9 note=38 velocity=89 time=62
 i : 9the msg is note_on channel=9 note=42 velocity=94 time=3
 i : 9the msg is note_on channel=9 note=42 velocity=0 time=90
 i : 9the msg is note_on channel=9 note=36 velocity=0 time=22
 i : 9the msg is note_on channel=9 note=36 velocity=98 time=128
 i : 9the msg is note_on channel=9 note=42 velocity=43 time=0
 i : 9the msg is note_on channel=9 note=38 velocity=0 time=23
 i : 9the msg is note_on channel=9 note=42 velocity=0 time=12
 i : 9the msg is note_on channel=9 note=36 velocity=0 time=42
 i : 9the msg is note_on channel=9 note=36 velocity=123 time=163
 i : 9the msg is note_on channel=9 note=42 velocity=119 time=0
 i : 9the msg is note_on channel=9 note=42 velocity=0 time=88
 i : 9the msg is note_on channel=9 note=36 velocity=0 time=101
 i : 9the msg is note_on channel=9 note=42 velocity=35 time=51
 i : 9the msg is note_on channel=9 note=42 velocity=0 time=37
 i : 9the msg is note_on channel=9 note=36 velocity=126 time=203
 i : 9the msg is note_on channel=9 note=46 velocity=96 time=0
 i : 9the msg is note_on channel=9 note=46 velocity=0 time=94
 i : 9the msg is note_on channel=9 note=42 velocity=42 time=626
 i : 9the msg is note_on channel=9 note=42 velocity=0 time=64
 i : 9the msg is note_on channel=9 note=42 velocity=78 time=56
 i : 9the msg is note_on channel=9 note=42 velocity=0 time=52
 i : 9the msg is note_on channel=9 note=38 velocity=89 time=68
 i : 9the msg is note_on channel=9 note=42 velocity=75 time=0
 i : 9the msg is note_on channel=9 note=42 velocity=0 time=88
 i : 9the msg is note_on channel=9 note=36 velocity=0 time=56
 i : 9the msg is note_on channel=9 note=38 velocity=0 time=82
 i : 9the msg is note_on channel=9 note=36 velocity=82 time=14
 i : 9the msg is note_on channel=9 note=42 velocity=26 time=0
 i : 9the msg is note_on channel=9 note=42 velocity=0 time=36
 i : 9the msg is note_on channel=9 note=36 velocity=0 time=47
 i : 9the msg is note_on channel=9 note=36 velocity=120 time=157
 i : 9the msg is note_on channel=9 note=42 velocity=100 time=0
 i : 9the msg is note_on channel=9 note=42 velocity=0 time=86
 i : 9the msg is note_on channel=9 note=42 velocity=70 time=34
 i : 9the msg is note_on channel=9 note=42 velocity=0 time=44
 i : 9the msg is note_on channel=9 note=42 velocity=58 time=76
 i : 9the msg is note_on channel=9 note=42 velocity=0 time=63
 i : 9the msg is note_on channel=9 note=36 velocity=0 time=38
 i : 9the msg is note_on channel=9 note=42 velocity=70 time=19
 i : 9the msg is note_on channel=9 note=42 velocity=0 time=54
 i : 9the msg is note_on channel=9 note=38 velocity=89 time=66
 i : 9the msg is note_on channel=9 note=42 velocity=111 time=0
 i : 9the msg is note_on channel=9 note=42 velocity=0 time=105
 i : 9the msg is note_on channel=9 note=38 velocity=0 time=99
 i : 9the msg is note_on channel=9 note=36 velocity=127 time=36
 i : 9the msg is note_on channel=9 note=46 velocity=92 time=0
 i : 9the msg is note_on channel=9 note=46 velocity=0 time=102
 i : 9the msg is note_on channel=9 note=42 velocity=58 time=378
 i : 9the msg is note_on channel=9 note=42 velocity=0 time=62
 i : 9the msg is note_on channel=9 note=42 velocity=58 time=58
 i : 9the msg is note_on channel=9 note=42 velocity=0 time=50
 i : 9the msg is note_on channel=9 note=42 velocity=57 time=70
 i : 9the msg is note_on channel=9 note=38 velocity=89 time=16
 i : 9the msg is note_on channel=9 note=42 velocity=0 time=50
 i : 9the msg is note_on channel=9 note=36 velocity=0 time=41
 i : 9the msg is note_on channel=9 note=36 velocity=108 time=133
 i : 9the msg is note_on channel=9 note=42 velocity=32 time=0
 i : 9the msg is note_on channel=9 note=38 velocity=0 time=13
 i : 9the msg is note_on channel=9 note=42 velocity=0 time=19
 i : 9the msg is note_on channel=9 note=36 velocity=0 time=56
 i : 9the msg is note_on channel=9 note=36 velocity=117 time=152
 i : 9the msg is note_on channel=9 note=42 velocity=104 time=0
 i : 9the msg is note_on channel=9 note=42 velocity=0 time=82
 i : 9the msg is note_on channel=9 note=36 velocity=0 time=91
 i : 9the msg is note_on channel=9 note=42 velocity=23 time=67
 i : 9the msg is note_on channel=9 note=42 velocity=0 time=38
 i : 9the msg is note_on channel=9 note=36 velocity=127 time=202
 i : 9the msg is note_on channel=9 note=46 velocity=96 time=0
 i : 9the msg is note_on channel=9 note=46 velocity=0 time=97
 i : 9the msg is note_on channel=9 note=42 velocity=76 time=623
 i : 9the msg is note_on channel=9 note=42 velocity=0 time=61
 i : 9the msg is note_on channel=9 note=42 velocity=94 time=59
 i : 9the msg is note_on channel=9 note=42 velocity=0 time=66
 i : 9the msg is note_on channel=9 note=38 velocity=89 time=54
 i : 9the msg is note_on channel=9 note=42 velocity=79 time=0
 i : 9the msg is note_on channel=9 note=42 velocity=0 time=76
 i : 9the msg is note_on channel=9 note=36 velocity=0 time=48
 i : 9the msg is note_on channel=9 note=36 velocity=108 time=116
 i : 9the msg is note_on channel=9 note=42 velocity=37 time=0
 i : 9the msg is note_on channel=9 note=38 velocity=0 time=26
 i : 9the msg is note_on channel=9 note=42 velocity=0 time=12
 i : 9the msg is note_on channel=9 note=36 velocity=0 time=45
 i : 9the msg is note_on channel=9 note=36 velocity=123 time=157
 i : 9the msg is note_on channel=9 note=42 velocity=115 time=0
 i : 9the msg is note_on channel=9 note=42 velocity=0 time=75
 i : 9the msg is note_on channel=9 note=38 velocity=89 time=405
 i : 9the msg is note_on channel=9 note=42 velocity=115 time=0
 i : 9the msg is note_on channel=9 note=36 velocity=0 time=14
 i : 9the msg is note_on channel=9 note=42 velocity=0 time=66
 i : 9the msg is note_on channel=9 note=38 velocity=0 time=107
 i : 9the msg is note_on channel=9 note=36 velocity=127 time=53
 i : 9the msg is note_on channel=9 note=46 velocity=96 time=0
 i : 9the msg is note_on channel=9 note=46 velocity=0 time=91
 i : 9the msg is note_on channel=9 note=42 velocity=57 time=389
 i : 9the msg is note_on channel=9 note=42 velocity=0 time=62
 i : 9the msg is note_on channel=9 note=42 velocity=100 time=58
 i : 9the msg is note_on channel=9 note=42 velocity=0 time=61
 i : 9the msg is note_on channel=9 note=38 velocity=89 time=52
 i : 9the msg is note_on channel=9 note=42 velocity=96 time=7
 i : 9the msg is note_on channel=9 note=42 velocity=0 time=79
 i : 9the msg is note_on channel=9 note=36 velocity=0 time=18
 i : 9the msg is note_on channel=9 note=38 velocity=0 time=143
 i : 9the msg is note_on channel=9 note=36 velocity=100 time=0
 i : 9the msg is note_on channel=9 note=42 velocity=60 time=0
 i : 9the msg is note_on channel=9 note=42 velocity=0 time=38
 i : 9the msg is note_on channel=9 note=36 velocity=0 time=42
 i : 9the msg is note_on channel=9 note=36 velocity=120 time=160
 i : 9the msg is note_on channel=9 note=42 velocity=115 time=0
 i : 9the msg is note_on channel=9 note=42 velocity=0 time=92
 i : 9the msg is note_on channel=9 note=36 velocity=0 time=96
 i : 9the msg is note_on channel=9 note=42 velocity=33 time=52
 i : 9the msg is note_on channel=9 note=42 velocity=0 time=55
 i : 9the msg is note_on channel=9 note=36 velocity=127 time=185
 i : 9the msg is note_on channel=9 note=46 velocity=107 time=0
 i : 9the msg is note_on channel=9 note=46 velocity=0 time=114
 i : 9the msg is note_on channel=9 note=42 velocity=57 time=606
 i : 9the msg is note_on channel=9 note=42 velocity=0 time=57
 i : 9the msg is note_on channel=9 note=42 velocity=87 time=63
 i : 9the msg is note_on channel=9 note=42 velocity=0 time=61
 i : 9the msg is note_on channel=9 note=38 velocity=89 time=59
 i : 9the msg is note_on channel=9 note=42 velocity=79 time=0
 i : 9the msg is note_on channel=9 note=42 velocity=0 time=88
 i : 9the msg is note_on channel=9 note=36 velocity=0 time=57
 i : 9the msg is note_on channel=9 note=36 velocity=111 time=95
 i : 9the msg is note_on channel=9 note=42 velocity=48 time=0
 i : 9the msg is note_on channel=9 note=38 velocity=0 time=3
 i : 9the msg is note_on channel=9 note=42 velocity=0 time=44
 i : 9the msg is note_on channel=9 note=36 velocity=0 time=34
 i : 9the msg is note_on channel=9 note=36 velocity=117 time=159
 i : 9the msg is note_on channel=9 note=42 velocity=104 time=0
 i : 9the msg is note_on channel=9 note=42 velocity=0 time=89
 i : 9the msg is note_on channel=9 note=42 velocity=36 time=151
 i : 9the msg is note_on channel=9 note=42 velocity=0 time=32
 i : 9the msg is note_on channel=9 note=36 velocity=0 time=112
 i : 9the msg is note_on channel=9 note=38 velocity=89 time=96
 i : 9the msg is note_on channel=9 note=42 velocity=96 time=0
 i : 9the msg is note_on channel=9 note=42 velocity=0 time=98
 i : 9the msg is note_on channel=9 note=38 velocity=0 time=157
 i : 9the msg is note_on channel=9 note=36 velocity=127 time=225
 i : 9the msg is note_on channel=9 note=46 velocity=94 time=0
 i : 9the msg is note_on channel=9 note=46 velocity=0 time=98
 i : 9the msg is note_on channel=9 note=42 velocity=48 time=142
 i : 9the msg is note_on channel=9 note=42 velocity=0 time=58
 i : 9the msg is note_on channel=9 note=42 velocity=62 time=62
 i : 9the msg is note_on channel=9 note=42 velocity=0 time=49
 i : 9the msg is note_on channel=9 note=38 velocity=89 time=71
 i : 9the msg is note_on channel=9 note=42 velocity=84 time=0
 i : 9the msg is note_on channel=9 note=42 velocity=0 time=75
 i : 9the msg is note_on channel=9 note=36 velocity=0 time=68
 i : 9the msg is note_on channel=9 note=38 velocity=0 time=64
 i : 9the msg is note_on channel=9 note=36 velocity=113 time=33
 i : 9the msg is note_on channel=9 note=42 velocity=37 time=0
 i : 9the msg is note_on channel=9 note=42 velocity=0 time=36
 i : 9the msg is note_on channel=9 note=36 velocity=0 time=51
 i : 9the msg is note_on channel=9 note=36 velocity=126 time=153
 i : 9the msg is note_on channel=9 note=42 velocity=79 time=0
 i : 9the msg is note_on channel=9 note=42 velocity=0 time=72
 i : 9the msg is note_on channel=9 note=42 velocity=59 time=48
 i : 9the msg is note_on channel=9 note=42 velocity=0 time=46
 i : 9the msg is note_on channel=9 note=42 velocity=42 time=74
 i : 9the msg is note_on channel=9 note=42 velocity=0 time=36
 i : 9the msg is note_on channel=9 note=42 velocity=33 time=84
 i : 9the msg is note_on channel=9 note=42 velocity=0 time=36
 i : 9the msg is note_on channel=9 note=38 velocity=89 time=84
 i : 9the msg is note_on channel=9 note=42 velocity=92 time=0
 i : 9the msg is note_on channel=9 note=42 velocity=0 time=77
 i : 9the msg is note_on channel=9 note=46 velocity=70 time=163
 i : 9the msg is note_on channel=9 note=38 velocity=0 time=39
 i : 9the msg is note_on channel=9 note=36 velocity=0 time=11
 i : 9the msg is note_on channel=9 note=46 velocity=0 time=21
 i : 9the msg is note_on channel=9 note=38 velocity=89 time=49
 i : 9the msg is note_on channel=9 note=38 velocity=0 time=106
 i : 9the msg is note_on channel=9 note=36 velocity=123 time=14
 i : 9the msg is note_on channel=9 note=42 velocity=58 time=0
 i : 9the msg is note_on channel=9 note=42 velocity=0 time=70
 i : 9the msg is note_on channel=9 note=42 velocity=31 time=50
 i : 9the msg is note_on channel=9 note=42 velocity=0 time=30
 i : 9the msg is note_on channel=9 note=42 velocity=40 time=90
 i : 9the msg is note_on channel=9 note=42 velocity=0 time=38
 i : 9the msg is note_on channel=9 note=42 velocity=59 time=82
 i : 9the msg is note_on channel=9 note=42 velocity=0 time=50
 i : 9the msg is note_on channel=9 note=38 velocity=89 time=70
 i : 9the msg is note_on channel=9 note=42 velocity=94 time=0
 i : 9the msg is note_on channel=9 note=42 velocity=0 time=77
 i : 9the msg is note_on channel=9 note=36 velocity=0 time=49
 i : 9the msg is note_on channel=9 note=38 velocity=0 time=89
 i : 9the msg is note_on channel=9 note=36 velocity=100 time=25
 i : 9the msg is note_on channel=9 note=36 velocity=0 time=92
 i : 9the msg is note_on channel=9 note=42 velocity=44 time=28
 i : 9the msg is note_on channel=9 note=42 velocity=0 time=41
 i : 9the msg is note_on channel=9 note=36 velocity=113 time=79
 i : 9the msg is note_on channel=9 note=42 velocity=100 time=0
 i : 9the msg is note_on channel=9 note=42 velocity=0 time=78
 i : 9the msg is note_on channel=9 note=42 velocity=47 time=42
 i : 9the msg is note_on channel=9 note=42 velocity=0 time=41
 i : 9the msg is note_on channel=9 note=42 velocity=42 time=79
 i : 9the msg is note_on channel=9 note=42 velocity=0 time=62
 i : 9the msg is note_on channel=9 note=42 velocity=29 time=58
 i : 9the msg is note_on channel=9 note=42 velocity=0 time=33
 i : 9the msg is note_on channel=9 note=38 velocity=89 time=87
 i : 9the msg is note_on channel=9 note=42 velocity=53 time=0
 i : 9the msg is note_on channel=9 note=42 velocity=0 time=80
 i : 9the msg is note_on channel=9 note=46 velocity=75 time=160
 i : 9the msg is note_on channel=9 note=38 velocity=0 time=36
 i : 9the msg is note_on channel=9 note=36 velocity=0 time=35
 i : 9the msg is note_on channel=9 note=46 velocity=0 time=8
 i : 9the msg is note_on channel=9 note=36 velocity=127 time=161
 i : 9the msg is note_on channel=9 note=42 velocity=55 time=0
 i : 9the msg is note_on channel=9 note=42 velocity=0 time=73
 i : 9the msg is note_on channel=9 note=42 velocity=44 time=167
 i : 9the msg is note_on channel=9 note=42 velocity=0 time=49
 i : 9the msg is note_on channel=9 note=42 velocity=73 time=71
 i : 9the msg is note_on channel=9 note=42 velocity=0 time=63
 i : 9the msg is note_on channel=9 note=38 velocity=89 time=57
 i : 9the msg is note_on channel=9 note=42 velocity=100 time=0
 i : 9the msg is note_on channel=9 note=42 velocity=0 time=83
 i : 9the msg is note_on channel=9 note=36 velocity=0 time=42
 i : 9the msg is note_on channel=9 note=36 velocity=106 time=115
 i : 9the msg is note_on channel=9 note=42 velocity=36 time=0
 i : 9the msg is note_on channel=9 note=42 velocity=0 time=36
 i : 9the msg is note_on channel=9 note=38 velocity=0 time=32
 i : 9the msg is note_on channel=9 note=36 velocity=0 time=18
 i : 9the msg is note_on channel=9 note=36 velocity=127 time=154
 i : 9the msg is note_on channel=9 note=42 velocity=100 time=0
 i : 9the msg is note_on channel=9 note=42 velocity=0 time=76
 i : 9the msg is note_on channel=9 note=42 velocity=66 time=44
 i : 9the msg is note_on channel=9 note=42 velocity=0 time=48
 i : 9the msg is note_on channel=9 note=42 velocity=49 time=72
 i : 9the msg is note_on channel=9 note=42 velocity=0 time=63
 i : 9the msg is note_on channel=9 note=42 velocity=41 time=57
 i : 9the msg is note_on channel=9 note=42 velocity=0 time=35
 i : 9the msg is note_on channel=9 note=38 velocity=89 time=85
 i : 9the msg is note_on channel=9 note=42 velocity=89 time=0
 i : 9the msg is note_on channel=9 note=42 velocity=0 time=97
 i : 9the msg is note_on channel=9 note=46 velocity=87 time=143
 i : 9the msg is note_on channel=9 note=38 velocity=0 time=15
 i : 9the msg is note_on channel=9 note=36 velocity=0 time=38
 i : 9the msg is note_on channel=9 note=46 velocity=0 time=43
 i : 9the msg is note_on channel=9 note=38 velocity=89 time=24
 i : 9the msg is note_on channel=9 note=38 velocity=0 time=118
 i : 9the msg is note_on channel=9 note=36 velocity=123 time=2
 i : 9the msg is note_on channel=9 note=42 velocity=87 time=0
 i : 9the msg is note_on channel=9 note=42 velocity=0 time=70
 i : 9the msg is note_on channel=9 note=42 velocity=45 time=170
 i : 9the msg is note_on channel=9 note=42 velocity=0 time=52
 i : 9the msg is note_on channel=9 note=42 velocity=27 time=68
 i : 9the msg is note_on channel=9 note=42 velocity=0 time=30
 i : 9the msg is note_on channel=9 note=38 velocity=89 time=90
 i : 9the msg is note_on channel=9 note=42 velocity=76 time=0
 i : 9the msg is note_on channel=9 note=36 velocity=0 time=64
 i : 9the msg is note_on channel=9 note=42 velocity=0 time=22
 i : 9the msg is note_on channel=9 note=36 velocity=108 time=154
 i : 9the msg is note_on channel=9 note=42 velocity=18 time=0
 i : 9the msg is note_on channel=9 note=38 velocity=0 time=4
 i : 9the msg is note_on channel=9 note=42 velocity=0 time=26
 i : 9the msg is note_on channel=9 note=36 velocity=0 time=38
 i : 9the msg is note_on channel=9 note=42 velocity=76 time=52
 i : 9the msg is note_on channel=9 note=42 velocity=0 time=58
 i : 9the msg is note_on channel=9 note=36 velocity=123 time=62
 i : 9the msg is note_on channel=9 note=42 velocity=65 time=0
 i : 9the msg is note_on channel=9 note=42 velocity=0 time=100
 i : 9the msg is note_on channel=9 note=42 velocity=53 time=140
 i : 9the msg is note_on channel=9 note=42 velocity=0 time=44
 i : 9the msg is note_on channel=9 note=38 velocity=89 time=196
 i : 9the msg is note_on channel=9 note=42 velocity=115 time=0
 i : 9the msg is note_on channel=9 note=36 velocity=0 time=56
 i : 9the msg is note_on channel=9 note=42 velocity=0 time=31
 i : 9the msg is note_on channel=9 note=38 velocity=0 time=109
 i : 9the msg is note_on channel=9 note=36 velocity=127 time=44
 i : 9the msg is note_on channel=9 note=55 velocity=111 time=0
 i : 9the msg is note_on channel=9 note=55 velocity=0 time=77
 i : 9the msg is note_on channel=9 note=42 velocity=43 time=403
 i : 9the msg is note_on channel=9 note=42 velocity=0 time=66
 i : 9the msg is note_on channel=9 note=42 velocity=78 time=54
 i : 9the msg is note_on channel=9 note=42 velocity=0 time=50
 i : 9the msg is note_on channel=9 note=38 velocity=89 time=70
 i : 9the msg is note_on channel=9 note=42 velocity=94 time=0
 i : 9the msg is note_on channel=9 note=42 velocity=0 time=82
 i : 9the msg is note_on channel=9 note=36 velocity=0 time=35
 i : 9the msg is note_on channel=9 note=38 velocity=0 time=123
 i : 9the msg is note_on channel=9 note=36 velocity=108 time=0
 i : 9the msg is note_on channel=9 note=42 velocity=73 time=0
 i : 9the msg is note_on channel=9 note=42 velocity=0 time=53
 i : 9the msg is note_on channel=9 note=36 velocity=0 time=36
 i : 9the msg is note_on channel=9 note=36 velocity=113 time=151
 i : 9the msg is note_on channel=9 note=42 velocity=125 time=0
 i : 9the msg is note_on channel=9 note=42 velocity=0 time=99
 i : 9the msg is note_on channel=9 note=36 velocity=0 time=132
 i : 9the msg is note_on channel=9 note=36 velocity=127 time=249
 i : 9the msg is note_on channel=9 note=55 velocity=120 time=0
 i : 9the msg is note_on channel=9 note=55 velocity=0 time=70
 i : 9the msg is note_on channel=9 note=74 velocity=120 time=208
 i : 9the msg is note_on channel=9 note=74 velocity=0 time=436
 i : 9the msg is note_on channel=9 note=42 velocity=52 time=6
 i : 9the msg is note_on channel=9 note=42 velocity=0 time=69
 i : 9the msg is note_on channel=9 note=42 velocity=82 time=51
 i : 9the msg is note_on channel=9 note=42 velocity=0 time=60
 i : 9the msg is note_on channel=9 note=38 velocity=89 time=60
 i : 9the msg is note_on channel=9 note=42 velocity=96 time=0
 i : 9the msg is note_on channel=9 note=42 velocity=0 time=80
 i : 9the msg is note_on channel=9 note=42 velocity=48 time=160
 i : 9the msg is note_on channel=9 note=38 velocity=0 time=12
 i : 9the msg is note_on channel=9 note=42 velocity=0 time=38
 i : 9the msg is note_on channel=9 note=42 velocity=119 time=190
 i : 9the msg is note_on channel=9 note=42 velocity=0 time=101
 i : 9the msg is note_on channel=9 note=42 velocity=71 time=139
 i : 9the msg is note_on channel=9 note=42 velocity=0 time=41
 i : 9the msg is note_on channel=9 note=38 velocity=89 time=199
 i : 9the msg is note_on channel=9 note=42 velocity=119 time=0
 i : 9the msg is note_on channel=9 note=36 velocity=0 time=56
 i : 9the msg is note_on channel=9 note=42 velocity=0 time=24
 i : 9the msg is note_on channel=9 note=38 velocity=0 time=102
 i : 9the msg is note_on channel=9 note=36 velocity=127 time=58
 i : 9the msg is note_on channel=9 note=55 velocity=120 time=0
 i : 9the msg is note_on channel=9 note=55 velocity=0 time=64
 i : 9the msg is note_on channel=9 note=42 velocity=60 time=416
 i : 9the msg is note_on channel=9 note=42 velocity=0 time=60
 i : 9the msg is note_on channel=9 note=42 velocity=107 time=60
 i : 9the msg is note_on channel=9 note=42 velocity=0 time=49
 i : 9the msg is note_on channel=9 note=38 velocity=89 time=71
 i : 9the msg is note_on channel=9 note=42 velocity=94 time=0
 i : 9the msg is note_on channel=9 note=42 velocity=0 time=80
 i : 9the msg is note_on channel=9 note=36 velocity=0 time=15
 i : 9the msg is note_on channel=9 note=36 velocity=113 time=145
 i : 9the msg is note_on channel=9 note=42 velocity=84 time=0
 i : 9the msg is note_on channel=9 note=38 velocity=0 time=15
 i : 9the msg is note_on channel=9 note=42 velocity=0 time=34
 i : 9the msg is note_on channel=9 note=36 velocity=0 time=44
 i : 9the msg is note_on channel=9 note=36 velocity=126 time=147
 i : 9the msg is note_on channel=9 note=42 velocity=111 time=0
 i : 9the msg is note_on channel=9 note=42 velocity=0 time=86
 i : 9the msg is note_on channel=9 note=36 velocity=0 time=126
 i : 9the msg is note_on channel=9 note=36 velocity=127 time=268
 i : 9the msg is note_on channel=9 note=55 velocity=113 time=0
 i : 9the msg is note_on channel=9 note=55 velocity=0 time=72
 i : 9the msg is note_on channel=9 note=74 velocity=127 time=192
 i : 9the msg is note_on channel=9 note=42 velocity=49 time=456
 i : 9the msg is note_on channel=9 note=42 velocity=0 time=58
 i : 9the msg is note_on channel=9 note=42 velocity=87 time=62
 i : 9the msg is note_on channel=9 note=74 velocity=0 time=49
 i : 9the msg is note_on channel=9 note=42 velocity=0 time=13
 i : 9the msg is note_on channel=9 note=38 velocity=89 time=58
 i : 9the msg is note_on channel=9 note=42 velocity=84 time=0
 i : 9the msg is note_on channel=9 note=42 velocity=0 time=101
 i : 9the msg is note_on channel=9 note=38 velocity=0 time=125
 i : 9the msg is note_on channel=9 note=42 velocity=48 time=14
 i : 9the msg is note_on channel=9 note=42 velocity=0 time=38
 i : 9the msg is note_on channel=9 note=42 velocity=115 time=202
 i : 9the msg is note_on channel=9 note=42 velocity=0 time=116
 i : 9the msg is note_on channel=9 note=36 velocity=0 time=50
 i : 9the msg is note_on channel=9 note=42 velocity=63 time=74
 i : 9the msg is note_on channel=9 note=42 velocity=0 time=42
 i : 9the msg is note_on channel=9 note=38 velocity=89 time=198
 i : 9the msg is note_on channel=9 note=42 velocity=115 time=0
 i : 9the msg is note_on channel=9 note=42 velocity=0 time=91
 i : 9the msg is note_on channel=9 note=38 velocity=0 time=113
 i : 9the msg is note_on channel=9 note=36 velocity=127 time=36
 i : 9the msg is note_on channel=9 note=55 velocity=123 time=0
 i : 9the msg is note_on channel=9 note=55 velocity=0 time=62
 i : 9the msg is note_on channel=9 note=42 velocity=62 time=418
 i : 9the msg is note_on channel=9 note=42 velocity=0 time=66
 i : 9the msg is note_on channel=9 note=42 velocity=70 time=54
 i : 9the msg is note_on channel=9 note=42 velocity=0 time=50
 i : 9the msg is note_on channel=9 note=38 velocity=89 time=70
 i : 9the msg is note_on channel=9 note=42 velocity=92 time=0
 i : 9the msg is note_on channel=9 note=36 velocity=0 time=99
 i : 9the msg is note_on channel=9 note=42 velocity=0 time=29
 i : 9the msg is note_on channel=9 note=36 velocity=117 time=112
 i : 9the msg is note_on channel=9 note=42 velocity=57 time=0
 i : 9the msg is note_on channel=9 note=38 velocity=0 time=6
 i : 9the msg is note_on channel=9 note=42 velocity=0 time=33
 i : 9the msg is note_on channel=9 note=36 velocity=0 time=60
 i : 9the msg is note_on channel=9 note=36 velocity=120 time=141
 i : 9the msg is note_on channel=9 note=42 velocity=127 time=0
 i : 9the msg is note_on channel=9 note=42 velocity=0 time=144
 i : 9the msg is note_on channel=9 note=36 velocity=0 time=97
 i : 9the msg is note_on channel=9 note=36 velocity=127 time=239
 i : 9the msg is note_on channel=9 note=55 velocity=113 time=0
 i : 9the msg is note_on channel=9 note=55 velocity=0 time=71
 i : 9the msg is note_on channel=9 note=74 velocity=127 time=181
 i : 9the msg is note_on channel=9 note=42 velocity=42 time=468
 i : 9the msg is note_on channel=9 note=42 velocity=0 time=53
 i : 9the msg is note_on channel=9 note=74 velocity=0 time=65
 i : 9the msg is note_on channel=9 note=42 velocity=65 time=2
 i : 9the msg is note_on channel=9 note=42 velocity=0 time=49
 i : 9the msg is note_on channel=9 note=38 velocity=89 time=71
 i : 9the msg is note_on channel=9 note=42 velocity=94 time=0
 i : 9the msg is note_on channel=9 note=42 velocity=0 time=122
 i : 9the msg is note_on channel=9 note=36 velocity=0 time=17
 i : 9the msg is note_on channel=9 note=38 velocity=0 time=67
 i : 9the msg is note_on channel=9 note=36 velocity=106 time=34
 i : 9the msg is note_on channel=9 note=36 velocity=0 time=87
 i : 9the msg is note_on channel=9 note=36 velocity=126 time=153
 i : 9the msg is note_on channel=9 note=42 velocity=107 time=0
 i : 9the msg is note_on channel=9 note=42 velocity=0 time=164
 i : 9the msg is note_on channel=9 note=42 velocity=78 time=76
 i : 9the msg is note_on channel=9 note=42 velocity=0 time=48
 i : 9the msg is note_on channel=9 note=38 velocity=89 time=192
 i : 9the msg is note_on channel=9 note=42 velocity=111 time=0
 i : 9the msg is note_on channel=9 note=36 velocity=0 time=58
 i : 9the msg is note_on channel=9 note=42 velocity=0 time=34
 i : 9the msg is note_on channel=9 note=38 velocity=0 time=105
 i : 9the msg is note_on channel=9 note=36 velocity=127 time=43
 i : 9the msg is note_on channel=9 note=55 velocity=111 time=0
 i : 9the msg is note_on channel=9 note=55 velocity=0 time=75
 i : 9the msg is note_on channel=9 note=42 velocity=55 time=405
 i : 9the msg is note_on channel=9 note=42 velocity=0 time=56
 i : 9the msg is note_on channel=9 note=42 velocity=89 time=64
 i : 9the msg is note_on channel=9 note=42 velocity=0 time=52
 i : 9the msg is note_on channel=9 note=38 velocity=89 time=68
 i : 9the msg is note_on channel=9 note=42 velocity=107 time=0
 i : 9the msg is note_on channel=9 note=42 velocity=0 time=96
 i : 9the msg is note_on channel=9 note=36 velocity=0 time=31
 i : 9the msg is note_on channel=9 note=38 velocity=0 time=86
 i : 9the msg is note_on channel=9 note=36 velocity=113 time=27
 i : 9the msg is note_on channel=9 note=36 velocity=0 time=90
 i : 9the msg is note_on channel=9 note=36 velocity=126 time=150
 i : 9the msg is note_on channel=9 note=42 velocity=111 time=0
 i : 9the msg is note_on channel=9 note=42 velocity=0 time=95
 i : 9the msg is note_on channel=9 note=36 velocity=0 time=90
 i : 9the msg is note_on channel=9 note=36 velocity=127 time=295
 i : 9the msg is note_on channel=9 note=55 velocity=108 time=0
 i : 9the msg is note_on channel=9 note=55 velocity=0 time=83
 i : 9the msg is note_on channel=9 note=74 velocity=127 time=173
 i : 9the msg is note_on channel=9 note=42 velocity=54 time=464
 i : 9the msg is note_on channel=9 note=74 velocity=0 time=36
 i : 9the msg is note_on channel=9 note=42 velocity=0 time=24
 i : 9the msg is note_on channel=9 note=42 velocity=87 time=60
 i : 9the msg is note_on channel=9 note=42 velocity=0 time=53
 i : 9the msg is note_on channel=9 note=38 velocity=89 time=67
 i : 9the msg is note_on channel=9 note=42 velocity=89 time=0
 i : 9the msg is note_on channel=9 note=42 velocity=0 time=114
 i : 9the msg is note_on channel=9 note=42 velocity=36 time=126
 i : 9the msg is note_on channel=9 note=42 velocity=0 time=41
 i : 9the msg is note_on channel=9 note=38 velocity=0 time=46
 i : 9the msg is note_on channel=9 note=42 velocity=107 time=153
 i : 9the msg is note_on channel=9 note=42 velocity=0 time=108
 i : 9the msg is note_on channel=9 note=38 velocity=89 time=132
 i : 9the msg is note_on channel=9 note=38 velocity=0 time=84
 i : 9the msg is note_on channel=9 note=38 velocity=89 time=156
 i : 9the msg is note_on channel=9 note=42 velocity=111 time=0
 i : 9the msg is note_on channel=9 note=36 velocity=0 time=73
 i : 9the msg is note_on channel=9 note=42 velocity=0 time=20
 i : 9the msg is note_on channel=9 note=38 velocity=0 time=85
 i : 9the msg is note_on channel=9 note=36 velocity=127 time=62
 i : 9the msg is note_on channel=9 note=36 velocity=127 time=0
 i : 9the msg is note_on channel=9 note=49 velocity=100 time=0
 i : 9the msg is note_on channel=9 note=49 velocity=0 time=78
 i : 9the msg is note_on channel=9 note=36 velocity=0 time=458
 i : 9the msg is note_on channel=9 note=42 velocity=71 time=64
 i : 9the msg is note_on channel=9 note=42 velocity=0 time=30
 i : 9the msg is note_on channel=9 note=42 velocity=94 time=30
 i : 9the msg is note_on channel=9 note=42 velocity=0 time=39
 i : 9the msg is note_on channel=9 note=42 velocity=127 time=21
 i : 9the msg is note_on channel=9 note=42 velocity=0 time=29
 i : 9the msg is note_on channel=9 note=36 velocity=0 time=81
 i : 9the msg is note_on channel=9 note=36 velocity=98 time=130
 i : 9the msg is note_on channel=9 note=36 velocity=0 time=95
 i : 9the msg is note_on channel=9 note=36 velocity=127 time=145
 i : 9the msg is note_on channel=9 note=42 velocity=68 time=240
 i : 9the msg is note_on channel=9 note=42 velocity=0 time=22
 i : 9the msg is note_on channel=9 note=42 velocity=119 time=98
 i : 9the msg is note_on channel=9 note=42 velocity=0 time=29
 i : 9the msg is note_on channel=9 note=42 velocity=127 time=91
 i : 9the msg is note_on channel=9 note=42 velocity=0 time=53
 i : 9the msg is note_on channel=9 note=74 velocity=123 time=196
 i : 9the msg is note_on channel=9 note=42 velocity=59 time=111
 i : 9the msg is note_on channel=9 note=36 velocity=0 time=20
 i : 9the msg is note_on channel=9 note=42 velocity=0 time=2
 i : 9the msg is note_on channel=9 note=36 velocity=127 time=98
 i : 9the msg is note_on channel=9 note=42 velocity=119 time=0
 i : 9the msg is note_on channel=9 note=42 velocity=0 time=50
 i : 9the msg is note_on channel=9 note=74 velocity=0 time=109
 i : 9the msg is note_on channel=9 note=73 velocity=127 time=71
 i : 9the msg is note_on channel=9 note=42 velocity=60 time=10
 i : 9the msg is note_on channel=9 note=42 velocity=0 time=41
 i : 9the msg is note_on channel=9 note=73 velocity=0 time=34
 i : 9the msg is note_on channel=9 note=42 velocity=53 time=45
 i : 9the msg is note_on channel=9 note=42 velocity=0 time=23
 i : 9the msg is note_on channel=9 note=42 velocity=92 time=97
 i : 9the msg is note_on channel=9 note=42 velocity=0 time=43
 i : 9the msg is note_on channel=9 note=42 velocity=73 time=17
 i : 9the msg is note_on channel=9 note=42 velocity=0 time=25
 i : 9the msg is note_on channel=9 note=42 velocity=55 time=35
 i : 9the msg is note_on channel=9 note=42 velocity=0 time=31
 i : 9the msg is note_on channel=9 note=42 velocity=78 time=29
 i : 9the msg is note_on channel=9 note=42 velocity=0 time=25
 i : 9the msg is note_on channel=9 note=42 velocity=84 time=35
 i : 9the msg is note_on channel=9 note=42 velocity=0 time=50
 i : 9the msg is note_on channel=9 note=36 velocity=0 time=67
 i : 9the msg is note_on channel=9 note=42 velocity=42 time=3
 i : 9the msg is note_on channel=9 note=42 velocity=0 time=18
 i : 9the msg is note_on channel=9 note=36 velocity=127 time=102
 i : 9the msg is note_on channel=9 note=42 velocity=84 time=0
 i : 9the msg is note_on channel=9 note=42 velocity=0 time=49
 i : 9the msg is note_on channel=9 note=42 velocity=55 time=311
 i : 9the msg is note_on channel=9 note=42 velocity=0 time=24
 i : 9the msg is note_on channel=9 note=42 velocity=92 time=96
 i : 9the msg is note_on channel=9 note=42 velocity=0 time=56
 i : 9the msg is note_on channel=9 note=36 velocity=0 time=275
 i : 9the msg is note_on channel=9 note=36 velocity=127 time=149
 i : 9the msg is note_on channel=9 note=36 velocity=0 time=826
 i : 9the msg is note_on channel=9 note=36 velocity=127 time=134
 i : 9the msg is note_on channel=9 note=42 velocity=76 time=180
 i : 9the msg is note_on channel=9 note=42 velocity=0 time=32
 i : 9the msg is note_on channel=9 note=42 velocity=82 time=28
 i : 9the msg is note_on channel=9 note=42 velocity=0 time=31
 i : 9the msg is note_on channel=9 note=42 velocity=62 time=89
 i : 9the msg is note_on channel=9 note=42 velocity=0 time=27
 i : 9the msg is note_on channel=9 note=42 velocity=119 time=93
 i : 9the msg is note_on channel=9 note=42 velocity=0 time=52
 i : 9the msg is note_on channel=9 note=42 velocity=51 time=68
 i : 9the msg is note_on channel=9 note=42 velocity=0 time=26
 i : 9the msg is note_on channel=9 note=74 velocity=120 time=88
 i : 9the msg is note_on channel=9 note=42 velocity=61 time=6
 i : 9the msg is note_on channel=9 note=42 velocity=0 time=37
 i : 9the msg is note_on channel=9 note=36 velocity=0 time=28
 i : 9the msg is note_on channel=9 note=42 velocity=43 time=55
 i : 9the msg is note_on channel=9 note=42 velocity=0 time=16
 i : 9the msg is note_on channel=9 note=36 velocity=127 time=104
 i : 9the msg is note_on channel=9 note=42 velocity=107 time=0
 i : 9the msg is note_on channel=9 note=42 velocity=0 time=36
 i : 9the msg is note_on channel=9 note=42 velocity=92 time=24
 i : 9the msg is note_on channel=9 note=42 velocity=0 time=29
 i : 9the msg is note_on channel=9 note=42 velocity=70 time=31
 i : 9the msg is note_on channel=9 note=74 velocity=0 time=21
 i : 9the msg is note_on channel=9 note=42 velocity=0 time=14
 i : 9the msg is note_on channel=9 note=42 velocity=73 time=25
 i : 9the msg is note_on channel=9 note=42 velocity=0 time=27
 i : 9the msg is note_on channel=9 note=73 velocity=119 time=10
 i : 9the msg is note_on channel=9 note=42 velocity=92 time=23
 i : 9the msg is note_on channel=9 note=42 velocity=0 time=46
 i : 9the msg is note_on channel=9 note=73 velocity=0 time=60
 i : 9the msg is note_on channel=9 note=42 velocity=62 time=14
 i : 9the msg is note_on channel=9 note=42 velocity=0 time=21
 i : 9the msg is note_on channel=9 note=42 velocity=87 time=99
 i : 9the msg is note_on channel=9 note=42 velocity=0 time=49
 i : 9the msg is note_on channel=9 note=36 velocity=0 time=282
 i : 9the msg is note_on channel=9 note=42 velocity=63 time=29
 i : 9the msg is note_on channel=9 note=42 velocity=0 time=34
 i : 9the msg is note_on channel=9 note=36 velocity=127 time=86
 i : 9the msg is note_on channel=9 note=42 velocity=119 time=0
 i : 9the msg is note_on channel=9 note=42 velocity=0 time=33
 i : 9the msg is note_on channel=9 note=42 velocity=33 time=567
 i : 9the msg is note_on channel=9 note=42 velocity=0 time=19
 i : 9the msg is note_on channel=9 note=46 velocity=127 time=101
 i : 9the msg is note_on channel=9 note=46 velocity=0 time=33
 i : 9the msg is note_on channel=9 note=36 velocity=0 time=59
 i : 9the msg is note_on channel=9 note=36 velocity=127 time=148
 i : 9the msg is note_on channel=9 note=42 velocity=42 time=240
 i : 9the msg is note_on channel=9 note=42 velocity=0 time=34
 i : 9the msg is note_on channel=9 note=42 velocity=20 time=86
 i : 9the msg is note_on channel=9 note=42 velocity=0 time=13
 i : 9the msg is note_on channel=9 note=42 velocity=84 time=107
 i : 9the msg is note_on channel=9 note=42 velocity=0 time=46
 i : 9the msg is note_on channel=9 note=42 velocity=58 time=74
 i : 9the msg is note_on channel=9 note=42 velocity=0 time=24
 i : 9the msg is note_on channel=9 note=42 velocity=63 time=36
 i : 9the msg is note_on channel=9 note=42 velocity=0 time=77
 i : 9the msg is note_on channel=9 note=36 velocity=0 time=30
 i : 9the msg is note_on channel=9 note=42 velocity=104 time=73
 i : 9the msg is note_on channel=9 note=42 velocity=0 time=32
 i : 9the msg is note_on channel=9 note=36 velocity=127 time=88
 i : 9the msg is note_on channel=9 note=42 velocity=96 time=0
 i : 9the msg is note_on channel=9 note=42 velocity=0 time=52
 i : 9the msg is note_on channel=9 note=42 velocity=61 time=548
 i : 9the msg is note_on channel=9 note=42 velocity=0 time=27
 i : 9the msg is note_on channel=9 note=42 velocity=51 time=93
 i : 9the msg is note_on channel=9 note=74 velocity=113 time=4
 i : 9the msg is note_on channel=9 note=42 velocity=0 time=32
 i : 9the msg is note_on channel=9 note=36 velocity=0 time=26
 i : 9the msg is note_on channel=9 note=42 velocity=50 time=58
 i : 9the msg is note_on channel=9 note=42 velocity=0 time=22
 i : 9the msg is note_on channel=9 note=36 velocity=127 time=98
 i : 9the msg is note_on channel=9 note=42 velocity=107 time=0
 i : 9the msg is note_on channel=9 note=42 velocity=0 time=39
 i : 9the msg is note_on channel=9 note=42 velocity=75 time=21
 i : 9the msg is note_on channel=9 note=42 velocity=0 time=27
 i : 9the msg is note_on channel=9 note=42 velocity=63 time=33
 i : 9the msg is note_on channel=9 note=42 velocity=0 time=33
 i : 9the msg is note_on channel=9 note=74 velocity=0 time=5
 i : 9the msg is note_on channel=9 note=42 velocity=66 time=22
 i : 9the msg is note_on channel=9 note=42 velocity=0 time=27
 i : 9the msg is note_on channel=9 note=73 velocity=119 time=21
 i : 9the msg is note_on channel=9 note=42 velocity=82 time=12
 i : 9the msg is note_on channel=9 note=42 velocity=0 time=39
 i : 9the msg is note_on channel=9 note=73 velocity=0 time=49
 i : 9the msg is note_on channel=9 note=42 velocity=32 time=32
 i : 9the msg is note_on channel=9 note=42 velocity=0 time=16
 i : 9the msg is note_on channel=9 note=42 velocity=107 time=104
 i : 9the msg is note_on channel=9 note=42 velocity=0 time=51
 i : 9the msg is note_on channel=9 note=36 velocity=0 time=302
 i : 9the msg is note_on channel=9 note=36 velocity=123 time=127
 i : 9the msg is note_on channel=9 note=42 velocity=34 time=120
 i : 9the msg is note_on channel=9 note=42 velocity=0 time=31
 i : 9the msg is note_on channel=9 note=42 velocity=57 time=89
 i : 9the msg is note_on channel=9 note=42 velocity=0 time=25
 i : 9the msg is note_on channel=9 note=42 velocity=54 time=35
 i : 9the msg is note_on channel=9 note=42 velocity=0 time=31
 i : 9the msg is note_on channel=9 note=42 velocity=79 time=29
 i : 9the msg is note_on channel=9 note=42 velocity=0 time=29
 i : 9the msg is note_on channel=9 note=42 velocity=100 time=31
 i : 9the msg is note_on channel=9 note=42 velocity=0 time=58
 i : 9the msg is note_on channel=9 note=42 velocity=127 time=2
 i : 9the msg is note_on channel=9 note=42 velocity=0 time=48
 i : 9the msg is note_on channel=9 note=42 velocity=65 time=72
 i : 9the msg is note_on channel=9 note=42 velocity=0 time=20
 i : 9the msg is note_on channel=9 note=46 velocity=104 time=100
 i : 9the msg is note_on channel=9 note=46 velocity=0 time=44
 i : 9the msg is note_on channel=9 note=36 velocity=0 time=20
 i : 9the msg is note_on channel=9 note=36 velocity=127 time=176
 i : 9the msg is note_on channel=9 note=42 velocity=58 time=240
 i : 9the msg is note_on channel=9 note=42 velocity=0 time=34
 i : 9the msg is note_on channel=9 note=42 velocity=84 time=206
 i : 9the msg is note_on channel=9 note=42 velocity=0 time=36
 i : 9the msg is note_on channel=9 note=42 velocity=92 time=24
 i : 9the msg is note_on channel=9 note=42 velocity=0 time=25
 i : 9the msg is note_on channel=9 note=42 velocity=71 time=35
 i : 9the msg is note_on channel=9 note=42 velocity=0 time=34
 i : 9the msg is note_on channel=9 note=42 velocity=89 time=26
 i : 9the msg is note_on channel=9 note=42 velocity=0 time=27
 i : 9the msg is note_on channel=9 note=42 velocity=82 time=33
 i : 9the msg is note_on channel=9 note=42 velocity=0 time=42
 i : 9the msg is note_on channel=9 note=36 velocity=0 time=49
 i : 9the msg is note_on channel=9 note=42 velocity=92 time=29
 i : 9the msg is note_on channel=9 note=42 velocity=0 time=19
 i : 9the msg is note_on channel=9 note=36 velocity=127 time=101
 i : 9the msg is note_on channel=9 note=42 velocity=96 time=0
 i : 9the msg is note_on channel=9 note=42 velocity=0 time=42
 i : 9the msg is note_on channel=9 note=74 velocity=123 time=677
 i : 9the msg is note_on channel=9 note=42 velocity=37 time=1
 i : 9the msg is note_on channel=9 note=42 velocity=0 time=31
 i : 9the msg is note_on channel=9 note=36 velocity=0 time=88
 i : 9the msg is note_on channel=9 note=42 velocity=60 time=1
 i : 9the msg is note_on channel=9 note=42 velocity=0 time=27
 i : 9the msg is note_on channel=9 note=36 velocity=108 time=93
 i : 9the msg is note_on channel=9 note=42 velocity=111 time=0
 i : 9the msg is note_on channel=9 note=42 velocity=0 time=52
 i : 9the msg is note_on channel=9 note=74 velocity=0 time=82
 i : 9the msg is note_on channel=9 note=42 velocity=32 time=106
 i : 9the msg is note_on channel=9 note=73 velocity=127 time=3
 i : 9the msg is note_on channel=9 note=36 velocity=0 time=11
 i : 9the msg is note_on channel=9 note=42 velocity=0 time=8
 i : 9the msg is note_on channel=9 note=73 velocity=0 time=75
 i : 9the msg is note_on channel=9 note=42 velocity=65 time=23
 i : 9the msg is note_on channel=9 note=42 velocity=0 time=31
 i : 9the msg is note_on channel=9 note=42 velocity=92 time=89
 i : 9the msg is note_on channel=9 note=42 velocity=0 time=40
 i : 9the msg is note_on channel=9 note=42 velocity=79 time=20
 i : 9the msg is note_on channel=9 note=42 velocity=0 time=27
 i : 9the msg is note_on channel=9 note=42 velocity=63 time=33
 i : 9the msg is note_on channel=9 note=42 velocity=0 time=37
 i : 9the msg is note_on channel=9 note=42 velocity=57 time=23
 i : 9the msg is note_on channel=9 note=42 velocity=0 time=22
 i : 9the msg is note_on channel=9 note=36 velocity=103 time=38
 i : 9the msg is note_on channel=9 note=42 velocity=78 time=0
 i : 9the msg is note_on channel=9 note=42 velocity=0 time=37
 i : 9the msg is note_on channel=9 note=42 velocity=58 time=83
 i : 9the msg is note_on channel=9 note=42 velocity=0 time=23
 i : 9the msg is note_on channel=9 note=36 velocity=0 time=89
 i : 9the msg is note_on channel=9 note=42 velocity=82 time=8
 i : 9the msg is note_on channel=9 note=42 velocity=0 time=38
 i : 9the msg is note_on channel=9 note=42 velocity=25 time=202
 i : 9the msg is note_on channel=9 note=42 velocity=0 time=19
 i : 9the msg is note_on channel=9 note=42 velocity=58 time=101
 i : 9the msg is note_on channel=9 note=42 velocity=0 time=36
 i : 9the msg is note_on channel=9 note=42 velocity=107 time=84
 i : 9the msg is note_on channel=9 note=42 velocity=0 time=42
 i : 9the msg is note_on channel=9 note=42 velocity=84 time=78
 i : 9the msg is note_on channel=9 note=42 velocity=0 time=42
 i : 9the msg is note_on channel=9 note=36 velocity=127 time=78
 i : 9the msg is note_on channel=9 note=46 velocity=119 time=0
 i : 9the msg is note_on channel=9 note=46 velocity=0 time=45
 i : 9the msg is note_on channel=9 note=42 velocity=71 time=555
 i : 9the msg is note_on channel=9 note=42 velocity=0 time=30
 i : 9the msg is note_on channel=9 note=42 velocity=94 time=30
 i : 9the msg is note_on channel=9 note=42 velocity=0 time=39
 i : 9the msg is note_on channel=9 note=42 velocity=127 time=21
 i : 9the msg is note_on channel=9 note=42 velocity=0 time=29
 i : 9the msg is note_on channel=9 note=36 velocity=0 time=81
 i : 9the msg is note_on channel=9 note=36 velocity=98 time=130
 i : 9the msg is note_on channel=9 note=36 velocity=0 time=95
 i : 9the msg is note_on channel=9 note=36 velocity=127 time=145
 i : 9the msg is note_on channel=9 note=42 velocity=68 time=240
 i : 9the msg is note_on channel=9 note=42 velocity=0 time=22
 i : 9the msg is note_on channel=9 note=42 velocity=119 time=98
 i : 9the msg is note_on channel=9 note=42 velocity=0 time=29
 i : 9the msg is note_on channel=9 note=42 velocity=127 time=91
 i : 9the msg is note_on channel=9 note=42 velocity=0 time=53
 i : 9the msg is note_on channel=9 note=74 velocity=123 time=193
 i : 9the msg is note_on channel=9 note=42 velocity=59 time=114
 i : 9the msg is note_on channel=9 note=36 velocity=0 time=20
 i : 9the msg is note_on channel=9 note=42 velocity=0 time=2
 i : 9the msg is note_on channel=9 note=36 velocity=127 time=98
 i : 9the msg is note_on channel=9 note=42 velocity=119 time=0
 i : 9the msg is note_on channel=9 note=42 velocity=0 time=50
 i : 9the msg is note_on channel=9 note=74 velocity=0 time=107
 i : 9the msg is note_on channel=9 note=73 velocity=100 time=75
 i : 9the msg is note_on channel=9 note=42 velocity=60 time=8
 i : 9the msg is note_on channel=9 note=42 velocity=0 time=41
 i : 9the msg is note_on channel=9 note=73 velocity=0 time=51
 i : 9the msg is note_on channel=9 note=42 velocity=53 time=28
 i : 9the msg is note_on channel=9 note=42 velocity=0 time=23
 i : 9the msg is note_on channel=9 note=42 velocity=92 time=97
 i : 9the msg is note_on channel=9 note=42 velocity=0 time=43
 i : 9the msg is note_on channel=9 note=42 velocity=73 time=17
 i : 9the msg is note_on channel=9 note=42 velocity=0 time=25
 i : 9the msg is note_on channel=9 note=42 velocity=55 time=35
 i : 9the msg is note_on channel=9 note=42 velocity=0 time=31
 i : 9the msg is note_on channel=9 note=42 velocity=78 time=29
 i : 9the msg is note_on channel=9 note=42 velocity=0 time=25
 i : 9the msg is note_on channel=9 note=42 velocity=84 time=35
 i : 9the msg is note_on channel=9 note=42 velocity=0 time=50
 i : 9the msg is note_on channel=9 note=36 velocity=0 time=67
 i : 9the msg is note_on channel=9 note=42 velocity=42 time=3
 i : 9the msg is note_on channel=9 note=42 velocity=0 time=18
 i : 9the msg is note_on channel=9 note=36 velocity=127 time=102
 i : 9the msg is note_on channel=9 note=42 velocity=84 time=0
 i : 9the msg is note_on channel=9 note=42 velocity=0 time=49
 i : 9the msg is note_on channel=9 note=42 velocity=55 time=311
 i : 9the msg is note_on channel=9 note=42 velocity=0 time=24
 i : 9the msg is note_on channel=9 note=42 velocity=92 time=96
 i : 9the msg is note_on channel=9 note=42 velocity=0 time=56
 i : 9the msg is note_on channel=9 note=36 velocity=0 time=275
 i : 9the msg is note_on channel=9 note=36 velocity=127 time=149
 i : 9the msg is note_on channel=9 note=36 velocity=0 time=826
 i : 9the msg is note_on channel=9 note=36 velocity=127 time=134
 i : 9the msg is note_on channel=9 note=42 velocity=76 time=180
 i : 9the msg is note_on channel=9 note=42 velocity=0 time=32
 i : 9the msg is note_on channel=9 note=42 velocity=82 time=28
 i : 9the msg is note_on channel=9 note=42 velocity=0 time=31
 i : 9the msg is note_on channel=9 note=42 velocity=62 time=89
 i : 9the msg is note_on channel=9 note=42 velocity=0 time=27
 i : 9the msg is note_on channel=9 note=42 velocity=119 time=93
 i : 9the msg is note_on channel=9 note=42 velocity=0 time=52
 i : 9the msg is note_on channel=9 note=42 velocity=51 time=68
 i : 9the msg is note_on channel=9 note=42 velocity=0 time=26
 i : 9the msg is note_on channel=9 note=42 velocity=61 time=94
 i : 9the msg is note_on channel=9 note=74 velocity=117 time=6
 i : 9the msg is note_on channel=9 note=42 velocity=0 time=31
 i : 9the msg is note_on channel=9 note=36 velocity=0 time=28
 i : 9the msg is note_on channel=9 note=42 velocity=43 time=55
 i : 9the msg is note_on channel=9 note=42 velocity=0 time=16
 i : 9the msg is note_on channel=9 note=36 velocity=127 time=104
 i : 9the msg is note_on channel=9 note=42 velocity=107 time=0
 i : 9the msg is note_on channel=9 note=42 velocity=0 time=36
 i : 9the msg is note_on channel=9 note=42 velocity=92 time=24
 i : 9the msg is note_on channel=9 note=42 velocity=0 time=29
 i : 9the msg is note_on channel=9 note=42 velocity=70 time=31
 i : 9the msg is note_on channel=9 note=74 velocity=0 time=16
 i : 9the msg is note_on channel=9 note=42 velocity=0 time=19
 i : 9the msg is note_on channel=9 note=42 velocity=73 time=25
 i : 9the msg is note_on channel=9 note=42 velocity=0 time=27
 i : 9the msg is note_on channel=9 note=73 velocity=127 time=27
 i : 9the msg is note_on channel=9 note=42 velocity=92 time=6
 i : 9the msg is note_on channel=9 note=42 velocity=0 time=46
 i : 9the msg is note_on channel=9 note=73 velocity=0 time=38
 i : 9the msg is note_on channel=9 note=42 velocity=62 time=36
 i : 9the msg is note_on channel=9 note=42 velocity=0 time=21
 i : 9the msg is note_on channel=9 note=42 velocity=87 time=99
 i : 9the msg is note_on channel=9 note=42 velocity=0 time=49
 i : 9the msg is note_on channel=9 note=36 velocity=0 time=282
 i : 9the msg is note_on channel=9 note=42 velocity=63 time=29
 i : 9the msg is note_on channel=9 note=42 velocity=0 time=34
 i : 9the msg is note_on channel=9 note=36 velocity=127 time=86
 i : 9the msg is note_on channel=9 note=42 velocity=119 time=0
 i : 9the msg is note_on channel=9 note=42 velocity=0 time=33
 i : 9the msg is note_on channel=9 note=42 velocity=33 time=567
 i : 9the msg is note_on channel=9 note=42 velocity=0 time=19
 i : 9the msg is note_on channel=9 note=46 velocity=127 time=101
 i : 9the msg is note_on channel=9 note=46 velocity=0 time=33
 i : 9the msg is note_on channel=9 note=36 velocity=0 time=59
 i : 9the msg is note_on channel=9 note=49 velocity=100 time=148
 i : 9the msg is note_on channel=9 note=57 velocity=100 time=0
 i : 9the msg is note_on channel=9 note=36 velocity=127 time=0
 i : 9the msg is note_on channel=9 note=57 velocity=0 time=479
 i : 9the msg is note_on channel=9 note=49 velocity=0 time=0
 i : 9the msg is note_on channel=9 note=36 velocity=0 time=288
 i : 9the msg is <meta message end_of_track time=0>
