 i : 0the msg is <meta message smpte_offset frame_rate=25 hours=32 minutes=0 seconds=3 frames=0 sub_frames=0 time=0>
 i : 0the msg is <meta message time_signature numerator=4 denominator=4 clocks_per_click=24 notated_32nd_notes_per_beat=8 time=0>
 i : 0the msg is <meta message key_signature key='D' time=0>
 i : 0the msg is <meta message set_tempo tempo=500000 time=0>
 i : 0the msg is <meta message marker text='I HEARD IT FROM THE GRAPEVINE - Marvin Gaye' time=0>
 i : 0the msg is <meta message midi_port port=0 time=0>
 i : 0the msg is <meta message track_name name='Piano' time=0>
 i : 0the msg is program_change channel=0 program=0 time=0
 i : 0the msg is control_change channel=0 control=7 value=110 time=0
 i : 0the msg is control_change channel=0 control=10 value=70 time=0
 i : 0the msg is control_change channel=0 control=121 value=0 time=0
 i : 0the msg is control_change channel=0 control=91 value=83 time=0
 i : 0the msg is note_on channel=0 note=62 velocity=83 time=0
 i : 0the msg is note_on channel=0 note=69 velocity=85 time=0
 i : 0the msg is note_on channel=0 note=62 velocity=0 time=576
 i : 0the msg is note_on channel=0 note=69 velocity=0 time=32
 i : 0the msg is note_on channel=0 note=62 velocity=70 time=112
 i : 0the msg is note_on channel=0 note=69 velocity=77 time=0
 i : 0the msg is note_on channel=0 note=62 velocity=0 time=194
 i : 0the msg is note_on channel=0 note=65 velocity=80 time=46
 i : 0the msg is note_on channel=0 note=72 velocity=85 time=0
 i : 0the msg is note_on channel=0 note=69 velocity=0 time=37
 i : 0the msg is note_on channel=0 note=65 velocity=0 time=94
 i : 0the msg is note_on channel=0 note=72 velocity=0 time=16
 i : 0the msg is note_on channel=0 note=62 velocity=93 time=333
 i : 0the msg is note_on channel=0 note=69 velocity=85 time=0
 i : 0the msg is note_on channel=0 note=62 velocity=0 time=825
 i : 0the msg is note_on channel=0 note=69 velocity=0 time=30
 i : 0the msg is note_on channel=0 note=62 velocity=66 time=105
 i : 0the msg is note_on channel=0 note=69 velocity=68 time=0
 i : 0the msg is note_on channel=0 note=62 velocity=0 time=92
 i : 0the msg is note_on channel=0 note=69 velocity=0 time=26
 i : 0the msg is note_on channel=0 note=62 velocity=65 time=122
 i : 0the msg is note_on channel=0 note=69 velocity=69 time=0
 i : 0the msg is note_on channel=0 note=62 velocity=0 time=162
 i : 0the msg is note_on channel=0 note=65 velocity=72 time=78
 i : 0the msg is note_on channel=0 note=72 velocity=78 time=0
 i : 0the msg is note_on channel=0 note=69 velocity=0 time=51
 i : 0the msg is note_on channel=0 note=65 velocity=0 time=49
 i : 0the msg is note_on channel=0 note=72 velocity=0 time=22
 i : 0the msg is note_on channel=0 note=62 velocity=89 time=118
 i : 0the msg is note_on channel=0 note=67 velocity=98 time=0
 i : 0the msg is note_on channel=0 note=71 velocity=103 time=0
 i : 0the msg is note_on channel=0 note=62 velocity=0 time=312
 i : 0the msg is note_on channel=0 note=71 velocity=0 time=23
 i : 0the msg is note_on channel=0 note=67 velocity=0 time=17
 i : 0the msg is note_on channel=0 note=62 velocity=89 time=128
 i : 0the msg is note_on channel=0 note=65 velocity=77 time=0
 i : 0the msg is note_on channel=0 note=69 velocity=82 time=0
 i : 0the msg is note_on channel=0 note=62 velocity=0 time=799
 i : 0the msg is note_on channel=0 note=69 velocity=0 time=15
 i : 0the msg is note_on channel=0 note=65 velocity=0 time=4
 i : 0the msg is note_on channel=0 note=62 velocity=70 time=142
 i : 0the msg is note_on channel=0 note=65 velocity=72 time=0
 i : 0the msg is note_on channel=0 note=69 velocity=77 time=0
 i : 0the msg is note_on channel=0 note=65 velocity=0 time=100
 i : 0the msg is note_on channel=0 note=62 velocity=0 time=94
 i : 0the msg is note_on channel=0 note=65 velocity=80 time=46
 i : 0the msg is note_on channel=0 note=69 velocity=68 time=0
 i : 0the msg is note_on channel=0 note=72 velocity=85 time=0
 i : 0the msg is note_on channel=0 note=69 velocity=0 time=37
 i : 0the msg is note_on channel=0 note=69 velocity=0 time=81
 i : 0the msg is note_on channel=0 note=65 velocity=0 time=13
 i : 0the msg is note_on channel=0 note=72 velocity=0 time=16
 i : 0the msg is note_on channel=0 note=62 velocity=93 time=333
 i : 0the msg is note_on channel=0 note=65 velocity=93 time=0
 i : 0the msg is note_on channel=0 note=69 velocity=85 time=0
 i : 0the msg is note_on channel=0 note=65 velocity=0 time=825
 i : 0the msg is note_on channel=0 note=62 velocity=0 time=0
 i : 0the msg is note_on channel=0 note=69 velocity=0 time=30
 i : 0the msg is note_on channel=0 note=62 velocity=66 time=105
 i : 0the msg is note_on channel=0 note=65 velocity=66 time=0
 i : 0the msg is note_on channel=0 note=69 velocity=68 time=0
 i : 0the msg is note_on channel=0 note=65 velocity=0 time=92
 i : 0the msg is note_on channel=0 note=62 velocity=0 time=0
 i : 0the msg is note_on channel=0 note=69 velocity=0 time=26
 i : 0the msg is note_on channel=0 note=62 velocity=65 time=122
 i : 0the msg is note_on channel=0 note=65 velocity=65 time=0
 i : 0the msg is note_on channel=0 note=69 velocity=69 time=0
 i : 0the msg is note_on channel=0 note=65 velocity=0 time=162
 i : 0the msg is note_on channel=0 note=62 velocity=0 time=0
 i : 0the msg is note_on channel=0 note=65 velocity=72 time=78
 i : 0the msg is note_on channel=0 note=69 velocity=72 time=0
 i : 0the msg is note_on channel=0 note=72 velocity=78 time=0
 i : 0the msg is note_on channel=0 note=69 velocity=0 time=51
 i : 0the msg is note_on channel=0 note=65 velocity=0 time=49
 i : 0the msg is note_on channel=0 note=69 velocity=0 time=0
 i : 0the msg is note_on channel=0 note=72 velocity=0 time=22
 i : 0the msg is note_on channel=0 note=62 velocity=89 time=118
 i : 0the msg is note_on channel=0 note=67 velocity=98 time=0
 i : 0the msg is note_on channel=0 note=71 velocity=103 time=0
 i : 0the msg is note_on channel=0 note=62 velocity=0 time=312
 i : 0the msg is note_on channel=0 note=71 velocity=0 time=23
 i : 0the msg is note_on channel=0 note=67 velocity=0 time=17
 i : 0the msg is note_on channel=0 note=62 velocity=89 time=128
 i : 0the msg is note_on channel=0 note=65 velocity=77 time=0
 i : 0the msg is note_on channel=0 note=69 velocity=82 time=0
 i : 0the msg is note_on channel=0 note=62 velocity=0 time=799
 i : 0the msg is note_on channel=0 note=69 velocity=0 time=15
 i : 0the msg is note_on channel=0 note=65 velocity=0 time=4
 i : 0the msg is note_on channel=0 note=62 velocity=70 time=142
 i : 0the msg is note_on channel=0 note=65 velocity=72 time=0
 i : 0the msg is note_on channel=0 note=69 velocity=77 time=0
 i : 0the msg is note_on channel=0 note=65 velocity=0 time=100
 i : 0the msg is note_on channel=0 note=62 velocity=0 time=94
 i : 0the msg is note_on channel=0 note=65 velocity=80 time=46
 i : 0the msg is note_on channel=0 note=69 velocity=68 time=0
 i : 0the msg is note_on channel=0 note=72 velocity=85 time=0
 i : 0the msg is note_on channel=0 note=69 velocity=0 time=37
 i : 0the msg is note_on channel=0 note=69 velocity=0 time=81
 i : 0the msg is note_on channel=0 note=65 velocity=0 time=13
 i : 0the msg is note_on channel=0 note=72 velocity=0 time=16
 i : 0the msg is note_on channel=0 note=62 velocity=93 time=333
 i : 0the msg is note_on channel=0 note=65 velocity=93 time=0
 i : 0the msg is note_on channel=0 note=69 velocity=85 time=0
 i : 0the msg is note_on channel=0 note=65 velocity=0 time=825
 i : 0the msg is note_on channel=0 note=62 velocity=0 time=0
 i : 0the msg is note_on channel=0 note=69 velocity=0 time=30
 i : 0the msg is note_on channel=0 note=62 velocity=66 time=105
 i : 0the msg is note_on channel=0 note=65 velocity=66 time=0
 i : 0the msg is note_on channel=0 note=69 velocity=68 time=0
 i : 0the msg is note_on channel=0 note=65 velocity=0 time=92
 i : 0the msg is note_on channel=0 note=62 velocity=0 time=0
 i : 0the msg is note_on channel=0 note=69 velocity=0 time=26
 i : 0the msg is note_on channel=0 note=62 velocity=65 time=122
 i : 0the msg is note_on channel=0 note=65 velocity=65 time=0
 i : 0the msg is note_on channel=0 note=69 velocity=69 time=0
 i : 0the msg is note_on channel=0 note=65 velocity=0 time=162
 i : 0the msg is note_on channel=0 note=62 velocity=0 time=0
 i : 0the msg is note_on channel=0 note=65 velocity=72 time=78
 i : 0the msg is note_on channel=0 note=69 velocity=72 time=0
 i : 0the msg is note_on channel=0 note=72 velocity=78 time=0
 i : 0the msg is note_on channel=0 note=69 velocity=0 time=51
 i : 0the msg is note_on channel=0 note=65 velocity=0 time=49
 i : 0the msg is note_on channel=0 note=69 velocity=0 time=0
 i : 0the msg is note_on channel=0 note=72 velocity=0 time=22
 i : 0the msg is note_on channel=0 note=62 velocity=89 time=118
 i : 0the msg is note_on channel=0 note=67 velocity=98 time=0
 i : 0the msg is note_on channel=0 note=71 velocity=103 time=0
 i : 0the msg is note_on channel=0 note=62 velocity=0 time=312
 i : 0the msg is note_on channel=0 note=71 velocity=0 time=23
 i : 0the msg is note_on channel=0 note=67 velocity=0 time=17
 i : 0the msg is note_on channel=0 note=62 velocity=89 time=128
 i : 0the msg is note_on channel=0 note=65 velocity=77 time=0
 i : 0the msg is note_on channel=0 note=69 velocity=82 time=0
 i : 0the msg is note_on channel=0 note=62 velocity=0 time=799
 i : 0the msg is note_on channel=0 note=69 velocity=0 time=15
 i : 0the msg is note_on channel=0 note=65 velocity=0 time=4
 i : 0the msg is note_on channel=0 note=62 velocity=70 time=142
 i : 0the msg is note_on channel=0 note=65 velocity=72 time=0
 i : 0the msg is note_on channel=0 note=69 velocity=77 time=0
 i : 0the msg is note_on channel=0 note=65 velocity=0 time=100
 i : 0the msg is note_on channel=0 note=62 velocity=0 time=94
 i : 0the msg is note_on channel=0 note=65 velocity=80 time=46
 i : 0the msg is note_on channel=0 note=69 velocity=68 time=0
 i : 0the msg is note_on channel=0 note=72 velocity=85 time=0
 i : 0the msg is note_on channel=0 note=69 velocity=0 time=37
 i : 0the msg is note_on channel=0 note=69 velocity=0 time=81
 i : 0the msg is note_on channel=0 note=65 velocity=0 time=13
 i : 0the msg is note_on channel=0 note=72 velocity=0 time=16
 i : 0the msg is note_on channel=0 note=62 velocity=93 time=333
 i : 0the msg is note_on channel=0 note=65 velocity=93 time=0
 i : 0the msg is note_on channel=0 note=69 velocity=85 time=0
 i : 0the msg is note_on channel=0 note=65 velocity=0 time=825
 i : 0the msg is note_on channel=0 note=62 velocity=0 time=0
 i : 0the msg is note_on channel=0 note=69 velocity=0 time=30
 i : 0the msg is note_on channel=0 note=62 velocity=66 time=105
 i : 0the msg is note_on channel=0 note=65 velocity=66 time=0
 i : 0the msg is note_on channel=0 note=69 velocity=68 time=0
 i : 0the msg is note_on channel=0 note=65 velocity=0 time=92
 i : 0the msg is note_on channel=0 note=62 velocity=0 time=0
 i : 0the msg is note_on channel=0 note=69 velocity=0 time=26
 i : 0the msg is note_on channel=0 note=62 velocity=65 time=122
 i : 0the msg is note_on channel=0 note=65 velocity=65 time=0
 i : 0the msg is note_on channel=0 note=69 velocity=69 time=0
 i : 0the msg is note_on channel=0 note=65 velocity=0 time=162
 i : 0the msg is note_on channel=0 note=62 velocity=0 time=0
 i : 0the msg is note_on channel=0 note=65 velocity=72 time=78
 i : 0the msg is note_on channel=0 note=69 velocity=72 time=0
 i : 0the msg is note_on channel=0 note=72 velocity=78 time=0
 i : 0the msg is note_on channel=0 note=69 velocity=0 time=51
 i : 0the msg is note_on channel=0 note=65 velocity=0 time=49
 i : 0the msg is note_on channel=0 note=69 velocity=0 time=0
 i : 0the msg is note_on channel=0 note=72 velocity=0 time=22
 i : 0the msg is note_on channel=0 note=62 velocity=89 time=118
 i : 0the msg is note_on channel=0 note=67 velocity=98 time=0
 i : 0the msg is note_on channel=0 note=71 velocity=103 time=0
 i : 0the msg is note_on channel=0 note=62 velocity=0 time=312
 i : 0the msg is note_on channel=0 note=71 velocity=0 time=23
 i : 0the msg is note_on channel=0 note=67 velocity=0 time=17
 i : 0the msg is note_on channel=0 note=62 velocity=89 time=128
 i : 0the msg is note_on channel=0 note=65 velocity=77 time=0
 i : 0the msg is note_on channel=0 note=69 velocity=82 time=0
 i : 0the msg is note_on channel=0 note=62 velocity=0 time=799
 i : 0the msg is note_on channel=0 note=69 velocity=0 time=15
 i : 0the msg is note_on channel=0 note=65 velocity=0 time=4
 i : 0the msg is note_on channel=0 note=62 velocity=70 time=142
 i : 0the msg is note_on channel=0 note=65 velocity=72 time=0
 i : 0the msg is note_on channel=0 note=69 velocity=77 time=0
 i : 0the msg is note_on channel=0 note=65 velocity=0 time=100
 i : 0the msg is note_on channel=0 note=62 velocity=0 time=94
 i : 0the msg is note_on channel=0 note=65 velocity=80 time=46
 i : 0the msg is note_on channel=0 note=69 velocity=68 time=0
 i : 0the msg is note_on channel=0 note=72 velocity=85 time=0
 i : 0the msg is note_on channel=0 note=69 velocity=0 time=37
 i : 0the msg is note_on channel=0 note=69 velocity=0 time=81
 i : 0the msg is note_on channel=0 note=65 velocity=0 time=13
 i : 0the msg is note_on channel=0 note=72 velocity=0 time=16
 i : 0the msg is note_on channel=0 note=62 velocity=93 time=333
 i : 0the msg is note_on channel=0 note=65 velocity=93 time=0
 i : 0the msg is note_on channel=0 note=69 velocity=85 time=0
 i : 0the msg is note_on channel=0 note=65 velocity=0 time=825
 i : 0the msg is note_on channel=0 note=62 velocity=0 time=0
 i : 0the msg is note_on channel=0 note=69 velocity=0 time=30
 i : 0the msg is note_on channel=0 note=62 velocity=66 time=105
 i : 0the msg is note_on channel=0 note=65 velocity=66 time=0
 i : 0the msg is note_on channel=0 note=69 velocity=68 time=0
 i : 0the msg is note_on channel=0 note=65 velocity=0 time=92
 i : 0the msg is note_on channel=0 note=62 velocity=0 time=0
 i : 0the msg is note_on channel=0 note=69 velocity=0 time=26
 i : 0the msg is note_on channel=0 note=62 velocity=65 time=122
 i : 0the msg is note_on channel=0 note=65 velocity=65 time=0
 i : 0the msg is note_on channel=0 note=69 velocity=69 time=0
 i : 0the msg is note_on channel=0 note=65 velocity=0 time=162
 i : 0the msg is note_on channel=0 note=62 velocity=0 time=0
 i : 0the msg is note_on channel=0 note=65 velocity=72 time=78
 i : 0the msg is note_on channel=0 note=69 velocity=72 time=0
 i : 0the msg is note_on channel=0 note=72 velocity=78 time=0
 i : 0the msg is note_on channel=0 note=69 velocity=0 time=51
 i : 0the msg is note_on channel=0 note=65 velocity=0 time=49
 i : 0the msg is note_on channel=0 note=69 velocity=0 time=0
 i : 0the msg is note_on channel=0 note=72 velocity=0 time=22
 i : 0the msg is note_on channel=0 note=62 velocity=89 time=118
 i : 0the msg is note_on channel=0 note=67 velocity=98 time=0
 i : 0the msg is note_on channel=0 note=71 velocity=103 time=0
 i : 0the msg is note_on channel=0 note=62 velocity=0 time=312
 i : 0the msg is note_on channel=0 note=71 velocity=0 time=23
 i : 0the msg is note_on channel=0 note=67 velocity=0 time=17
 i : 0the msg is note_on channel=0 note=62 velocity=89 time=128
 i : 0the msg is note_on channel=0 note=65 velocity=77 time=0
 i : 0the msg is note_on channel=0 note=69 velocity=82 time=0
 i : 0the msg is note_on channel=0 note=62 velocity=0 time=799
 i : 0the msg is note_on channel=0 note=69 velocity=0 time=15
 i : 0the msg is note_on channel=0 note=65 velocity=0 time=4
 i : 0the msg is note_on channel=0 note=62 velocity=70 time=142
 i : 0the msg is note_on channel=0 note=65 velocity=72 time=0
 i : 0the msg is note_on channel=0 note=69 velocity=77 time=0
 i : 0the msg is note_on channel=0 note=65 velocity=0 time=100
 i : 0the msg is note_on channel=0 note=62 velocity=0 time=94
 i : 0the msg is note_on channel=0 note=65 velocity=80 time=46
 i : 0the msg is note_on channel=0 note=69 velocity=68 time=0
 i : 0the msg is note_on channel=0 note=72 velocity=85 time=0
 i : 0the msg is note_on channel=0 note=69 velocity=0 time=37
 i : 0the msg is note_on channel=0 note=69 velocity=0 time=81
 i : 0the msg is note_on channel=0 note=65 velocity=0 time=13
 i : 0the msg is note_on channel=0 note=72 velocity=0 time=16
 i : 0the msg is note_on channel=0 note=62 velocity=93 time=333
 i : 0the msg is note_on channel=0 note=65 velocity=93 time=0
 i : 0the msg is note_on channel=0 note=69 velocity=85 time=0
 i : 0the msg is note_on channel=0 note=65 velocity=0 time=825
 i : 0the msg is note_on channel=0 note=62 velocity=0 time=0
 i : 0the msg is note_on channel=0 note=69 velocity=0 time=30
 i : 0the msg is note_on channel=0 note=62 velocity=66 time=105
 i : 0the msg is note_on channel=0 note=65 velocity=66 time=0
 i : 0the msg is note_on channel=0 note=69 velocity=68 time=0
 i : 0the msg is note_on channel=0 note=65 velocity=0 time=92
 i : 0the msg is note_on channel=0 note=62 velocity=0 time=0
 i : 0the msg is note_on channel=0 note=69 velocity=0 time=26
 i : 0the msg is note_on channel=0 note=62 velocity=65 time=122
 i : 0the msg is note_on channel=0 note=65 velocity=65 time=0
 i : 0the msg is note_on channel=0 note=69 velocity=69 time=0
 i : 0the msg is note_on channel=0 note=65 velocity=0 time=162
 i : 0the msg is note_on channel=0 note=62 velocity=0 time=0
 i : 0the msg is note_on channel=0 note=65 velocity=72 time=78
 i : 0the msg is note_on channel=0 note=69 velocity=72 time=0
 i : 0the msg is note_on channel=0 note=72 velocity=78 time=0
 i : 0the msg is note_on channel=0 note=69 velocity=0 time=51
 i : 0the msg is note_on channel=0 note=65 velocity=0 time=49
 i : 0the msg is note_on channel=0 note=69 velocity=0 time=0
 i : 0the msg is note_on channel=0 note=72 velocity=0 time=22
 i : 0the msg is note_on channel=0 note=62 velocity=89 time=118
 i : 0the msg is note_on channel=0 note=67 velocity=98 time=0
 i : 0the msg is note_on channel=0 note=71 velocity=103 time=0
 i : 0the msg is note_on channel=0 note=62 velocity=0 time=312
 i : 0the msg is note_on channel=0 note=71 velocity=0 time=23
 i : 0the msg is note_on channel=0 note=67 velocity=0 time=17
 i : 0the msg is note_on channel=0 note=62 velocity=89 time=128
 i : 0the msg is note_on channel=0 note=65 velocity=77 time=0
 i : 0the msg is note_on channel=0 note=69 velocity=82 time=0
 i : 0the msg is note_on channel=0 note=62 velocity=0 time=799
 i : 0the msg is note_on channel=0 note=69 velocity=0 time=15
 i : 0the msg is note_on channel=0 note=65 velocity=0 time=4
 i : 0the msg is note_on channel=0 note=62 velocity=70 time=142
 i : 0the msg is note_on channel=0 note=65 velocity=72 time=0
 i : 0the msg is note_on channel=0 note=69 velocity=77 time=0
 i : 0the msg is note_on channel=0 note=65 velocity=0 time=100
 i : 0the msg is note_on channel=0 note=62 velocity=0 time=94
 i : 0the msg is note_on channel=0 note=65 velocity=80 time=46
 i : 0the msg is note_on channel=0 note=69 velocity=68 time=0
 i : 0the msg is note_on channel=0 note=72 velocity=85 time=0
 i : 0the msg is note_on channel=0 note=69 velocity=0 time=37
 i : 0the msg is note_on channel=0 note=69 velocity=0 time=81
 i : 0the msg is note_on channel=0 note=65 velocity=0 time=13
 i : 0the msg is note_on channel=0 note=72 velocity=0 time=16
 i : 0the msg is note_on channel=0 note=62 velocity=93 time=333
 i : 0the msg is note_on channel=0 note=65 velocity=93 time=0
 i : 0the msg is note_on channel=0 note=69 velocity=85 time=0
 i : 0the msg is note_on channel=0 note=65 velocity=0 time=825
 i : 0the msg is note_on channel=0 note=62 velocity=0 time=0
 i : 0the msg is note_on channel=0 note=69 velocity=0 time=30
 i : 0the msg is note_on channel=0 note=62 velocity=66 time=105
 i : 0the msg is note_on channel=0 note=65 velocity=66 time=0
 i : 0the msg is note_on channel=0 note=69 velocity=68 time=0
 i : 0the msg is note_on channel=0 note=65 velocity=0 time=92
 i : 0the msg is note_on channel=0 note=62 velocity=0 time=0
 i : 0the msg is note_on channel=0 note=69 velocity=0 time=26
 i : 0the msg is note_on channel=0 note=62 velocity=65 time=122
 i : 0the msg is note_on channel=0 note=65 velocity=65 time=0
 i : 0the msg is note_on channel=0 note=69 velocity=69 time=0
 i : 0the msg is note_on channel=0 note=65 velocity=0 time=162
 i : 0the msg is note_on channel=0 note=62 velocity=0 time=0
 i : 0the msg is note_on channel=0 note=65 velocity=72 time=78
 i : 0the msg is note_on channel=0 note=69 velocity=72 time=0
 i : 0the msg is note_on channel=0 note=72 velocity=78 time=0
 i : 0the msg is note_on channel=0 note=69 velocity=0 time=51
 i : 0the msg is note_on channel=0 note=65 velocity=0 time=49
 i : 0the msg is note_on channel=0 note=69 velocity=0 time=0
 i : 0the msg is note_on channel=0 note=72 velocity=0 time=22
 i : 0the msg is note_on channel=0 note=62 velocity=89 time=118
 i : 0the msg is note_on channel=0 note=67 velocity=98 time=0
 i : 0the msg is note_on channel=0 note=71 velocity=103 time=0
 i : 0the msg is note_on channel=0 note=62 velocity=0 time=312
 i : 0the msg is note_on channel=0 note=71 velocity=0 time=23
 i : 0the msg is note_on channel=0 note=67 velocity=0 time=17
 i : 0the msg is note_on channel=0 note=62 velocity=89 time=128
 i : 0the msg is note_on channel=0 note=65 velocity=77 time=0
 i : 0the msg is note_on channel=0 note=69 velocity=82 time=0
 i : 0the msg is note_on channel=0 note=62 velocity=0 time=799
 i : 0the msg is note_on channel=0 note=69 velocity=0 time=15
 i : 0the msg is note_on channel=0 note=65 velocity=0 time=4
 i : 0the msg is note_on channel=0 note=62 velocity=70 time=142
 i : 0the msg is note_on channel=0 note=65 velocity=72 time=0
 i : 0the msg is note_on channel=0 note=69 velocity=77 time=0
 i : 0the msg is note_on channel=0 note=65 velocity=0 time=100
 i : 0the msg is note_on channel=0 note=62 velocity=0 time=94
 i : 0the msg is note_on channel=0 note=65 velocity=80 time=46
 i : 0the msg is note_on channel=0 note=69 velocity=68 time=0
 i : 0the msg is note_on channel=0 note=72 velocity=85 time=0
 i : 0the msg is note_on channel=0 note=69 velocity=0 time=37
 i : 0the msg is note_on channel=0 note=69 velocity=0 time=81
 i : 0the msg is note_on channel=0 note=65 velocity=0 time=13
 i : 0the msg is note_on channel=0 note=72 velocity=0 time=16
 i : 0the msg is note_on channel=0 note=62 velocity=93 time=333
 i : 0the msg is note_on channel=0 note=65 velocity=93 time=0
 i : 0the msg is note_on channel=0 note=69 velocity=85 time=0
 i : 0the msg is note_on channel=0 note=65 velocity=0 time=825
 i : 0the msg is note_on channel=0 note=62 velocity=0 time=0
 i : 0the msg is note_on channel=0 note=69 velocity=0 time=30
 i : 0the msg is note_on channel=0 note=62 velocity=66 time=105
 i : 0the msg is note_on channel=0 note=65 velocity=66 time=0
 i : 0the msg is note_on channel=0 note=69 velocity=68 time=0
 i : 0the msg is note_on channel=0 note=65 velocity=0 time=92
 i : 0the msg is note_on channel=0 note=62 velocity=0 time=0
 i : 0the msg is note_on channel=0 note=69 velocity=0 time=26
 i : 0the msg is note_on channel=0 note=62 velocity=65 time=122
 i : 0the msg is note_on channel=0 note=65 velocity=65 time=0
 i : 0the msg is note_on channel=0 note=69 velocity=69 time=0
 i : 0the msg is note_on channel=0 note=65 velocity=0 time=162
 i : 0the msg is note_on channel=0 note=62 velocity=0 time=0
 i : 0the msg is note_on channel=0 note=65 velocity=72 time=78
 i : 0the msg is note_on channel=0 note=69 velocity=72 time=0
 i : 0the msg is note_on channel=0 note=72 velocity=78 time=0
 i : 0the msg is note_on channel=0 note=69 velocity=0 time=51
 i : 0the msg is note_on channel=0 note=65 velocity=0 time=49
 i : 0the msg is note_on channel=0 note=69 velocity=0 time=0
 i : 0the msg is note_on channel=0 note=72 velocity=0 time=22
 i : 0the msg is note_on channel=0 note=62 velocity=89 time=118
 i : 0the msg is note_on channel=0 note=67 velocity=98 time=0
 i : 0the msg is note_on channel=0 note=71 velocity=103 time=0
 i : 0the msg is note_on channel=0 note=62 velocity=0 time=312
 i : 0the msg is note_on channel=0 note=71 velocity=0 time=23
 i : 0the msg is note_on channel=0 note=67 velocity=0 time=17
 i : 0the msg is note_on channel=0 note=62 velocity=89 time=128
 i : 0the msg is note_on channel=0 note=65 velocity=77 time=0
 i : 0the msg is note_on channel=0 note=69 velocity=82 time=0
 i : 0the msg is note_on channel=0 note=62 velocity=0 time=799
 i : 0the msg is note_on channel=0 note=69 velocity=0 time=15
 i : 0the msg is note_on channel=0 note=65 velocity=0 time=4
 i : 0the msg is note_on channel=0 note=69 velocity=80 time=137
 i : 0the msg is note_on channel=0 note=65 velocity=82 time=3
 i : 0the msg is note_on channel=0 note=62 velocity=85 time=6
 i : 0the msg is note_on channel=0 note=62 velocity=0 time=167
 i : 0the msg is note_on channel=0 note=65 velocity=0 time=8
 i : 0the msg is note_on channel=0 note=69 velocity=0 time=24
 i : 0the msg is note_on channel=0 note=72 velocity=89 time=36
 i : 0the msg is note_on channel=0 note=65 velocity=93 time=4
 i : 0the msg is note_on channel=0 note=69 velocity=89 time=3
 i : 0the msg is note_on channel=0 note=72 velocity=0 time=130
 i : 0the msg is note_on channel=0 note=65 velocity=0 time=20
 i : 0the msg is note_on channel=0 note=69 velocity=0 time=1
 i : 0the msg is note_on channel=0 note=65 velocity=85 time=301
 i : 0the msg is note_on channel=0 note=69 velocity=75 time=1
 i : 0the msg is note_on channel=0 note=62 velocity=85 time=8
 i : 0the msg is note_on channel=0 note=69 velocity=0 time=1990
 i : 0the msg is note_on channel=0 note=62 velocity=0 time=9
 i : 0the msg is note_on channel=0 note=65 velocity=0 time=3
 i : 0the msg is note_on channel=0 note=64 velocity=83 time=183
 i : 0the msg is note_on channel=0 note=61 velocity=75 time=2
 i : 0the msg is note_on channel=0 note=69 velocity=83 time=0
 i : 0the msg is note_on channel=0 note=61 velocity=0 time=830
 i : 0the msg is note_on channel=0 note=69 velocity=0 time=11
 i : 0the msg is note_on channel=0 note=64 velocity=0 time=7
 i : 0the msg is note_on channel=0 note=64 velocity=65 time=100
 i : 0the msg is note_on channel=0 note=61 velocity=70 time=4
 i : 0the msg is note_on channel=0 note=69 velocity=54 time=7
 i : 0the msg is note_on channel=0 note=61 velocity=0 time=57
 i : 0the msg is note_on channel=0 note=69 velocity=0 time=20
 i : 0the msg is note_on channel=0 note=64 velocity=0 time=0
 i : 0the msg is note_on channel=0 note=64 velocity=103 time=143
 i : 0the msg is note_on channel=0 note=61 velocity=104 time=1
 i : 0the msg is note_on channel=0 note=69 velocity=98 time=4
 i : 0the msg is note_on channel=0 note=69 velocity=0 time=135
 i : 0the msg is note_on channel=0 note=61 velocity=0 time=8
 i : 0the msg is note_on channel=0 note=64 velocity=0 time=4
 i : 0the msg is note_on channel=0 note=67 velocity=98 time=319
 i : 0the msg is note_on channel=0 note=59 velocity=85 time=6
 i : 0the msg is note_on channel=0 note=62 velocity=113 time=1
 i : 0the msg is note_on channel=0 note=67 velocity=0 time=1889
 i : 0the msg is note_on channel=0 note=59 velocity=0 time=60
 i : 0the msg is note_on channel=0 note=62 velocity=0 time=44
 i : 0the msg is note_on channel=0 note=69 velocity=96 time=194
 i : 0the msg is note_on channel=0 note=62 velocity=98 time=6
 i : 0the msg is note_on channel=0 note=65 velocity=98 time=0
 i : 0the msg is note_on channel=0 note=69 velocity=0 time=910
 i : 0the msg is note_on channel=0 note=65 velocity=0 time=4
 i : 0the msg is note_on channel=0 note=62 velocity=0 time=0
 i : 0the msg is note_on channel=0 note=65 velocity=56 time=64
 i : 0the msg is note_on channel=0 note=69 velocity=62 time=0
 i : 0the msg is note_on channel=0 note=62 velocity=53 time=2
 i : 0the msg is note_on channel=0 note=62 velocity=0 time=68
 i : 0the msg is note_on channel=0 note=65 velocity=0 time=14
 i : 0the msg is note_on channel=0 note=69 velocity=0 time=18
 i : 0the msg is note_on channel=0 note=72 velocity=86 time=83
 i : 0the msg is note_on channel=0 note=65 velocity=83 time=3
 i : 0the msg is note_on channel=0 note=69 velocity=78 time=2
 i : 0the msg is note_on channel=0 note=72 velocity=0 time=138
 i : 0the msg is note_on channel=0 note=69 velocity=0 time=18
 i : 0the msg is note_on channel=0 note=65 velocity=0 time=13
 i : 0the msg is note_on channel=0 note=65 velocity=93 time=321
 i : 0the msg is note_on channel=0 note=69 velocity=93 time=4
 i : 0the msg is note_on channel=0 note=62 velocity=93 time=1
 i : 0the msg is note_on channel=0 note=62 velocity=0 time=1925
 i : 0the msg is note_on channel=0 note=65 velocity=0 time=26
 i : 0the msg is note_on channel=0 note=69 velocity=0 time=4
 i : 0the msg is note_on channel=0 note=69 velocity=89 time=207
 i : 0the msg is note_on channel=0 note=61 velocity=76 time=9
 i : 0the msg is note_on channel=0 note=64 velocity=98 time=0
 i : 0the msg is note_on channel=0 note=61 velocity=0 time=866
 i : 0the msg is note_on channel=0 note=69 velocity=0 time=4
 i : 0the msg is note_on channel=0 note=64 velocity=0 time=1
 i : 0the msg is note_on channel=0 note=69 velocity=48 time=70
 i : 0the msg is note_on channel=0 note=64 velocity=61 time=1
 i : 0the msg is note_on channel=0 note=61 velocity=56 time=4
 i : 0the msg is note_on channel=0 note=61 velocity=0 time=63
 i : 0the msg is note_on channel=0 note=64 velocity=0 time=23
 i : 0the msg is note_on channel=0 note=69 velocity=0 time=0
 i : 0the msg is note_on channel=0 note=61 velocity=78 time=137
 i : 0the msg is note_on channel=0 note=64 velocity=89 time=1
 i : 0the msg is note_on channel=0 note=69 velocity=93 time=2
 i : 0the msg is note_on channel=0 note=69 velocity=0 time=134
 i : 0the msg is note_on channel=0 note=64 velocity=0 time=10
 i : 0the msg is note_on channel=0 note=61 velocity=0 time=9
 i : 0the msg is note_on channel=0 note=67 velocity=96 time=321
 i : 0the msg is note_on channel=0 note=59 velocity=80 time=2
 i : 0the msg is note_on channel=0 note=62 velocity=108 time=1
 i : 0the msg is note_on channel=0 note=62 velocity=0 time=2187
 i : 0the msg is note_on channel=0 note=59 velocity=0 time=24
 i : 0the msg is note_on channel=0 note=66 velocity=79 time=197
 i : 0the msg is note_on channel=0 note=62 velocity=98 time=7
 i : 0the msg is note_on channel=0 note=57 velocity=96 time=2
 i : 0the msg is note_on channel=0 note=67 velocity=0 time=20
 i : 0the msg is note_on channel=0 note=57 velocity=0 time=350
 i : 0the msg is note_on channel=0 note=66 velocity=0 time=6
 i : 0the msg is note_on channel=0 note=62 velocity=0 time=12
 i : 0the msg is note_on channel=0 note=66 velocity=78 time=88
 i : 0the msg is note_on channel=0 note=62 velocity=89 time=2
 i : 0the msg is note_on channel=0 note=57 velocity=65 time=2
 i : 0the msg is note_on channel=0 note=66 velocity=0 time=118
 i : 0the msg is note_on channel=0 note=57 velocity=0 time=8
 i : 0the msg is note_on channel=0 note=62 velocity=0 time=1
 i : 0the msg is note_on channel=0 note=62 velocity=78 time=111
 i : 0the msg is note_on channel=0 note=66 velocity=68 time=2
 i : 0the msg is note_on channel=0 note=57 velocity=54 time=6
 i : 0the msg is note_on channel=0 note=57 velocity=0 time=56
 i : 0the msg is note_on channel=0 note=66 velocity=0 time=4
 i : 0the msg is note_on channel=0 note=62 velocity=0 time=4
 i : 0the msg is note_on channel=0 note=62 velocity=93 time=152
 i : 0the msg is note_on channel=0 note=66 velocity=89 time=3
 i : 0the msg is note_on channel=0 note=57 velocity=70 time=1
 i : 0the msg is note_on channel=0 note=57 velocity=0 time=72
 i : 0the msg is note_on channel=0 note=66 velocity=0 time=7
 i : 0the msg is note_on channel=0 note=62 velocity=0 time=2
 i : 0the msg is note_on channel=0 note=66 velocity=79 time=160
 i : 0the msg is note_on channel=0 note=62 velocity=89 time=2
 i : 0the msg is note_on channel=0 note=57 velocity=71 time=2
 i : 0the msg is note_on channel=0 note=62 velocity=0 time=79
 i : 0the msg is note_on channel=0 note=66 velocity=0 time=2
 i : 0the msg is note_on channel=0 note=57 velocity=0 time=1
 i : 0the msg is note_on channel=0 note=59 velocity=91 time=622
 i : 0the msg is note_on channel=0 note=62 velocity=111 time=1
 i : 0the msg is note_on channel=0 note=67 velocity=98 time=0
 i : 0the msg is note_on channel=0 note=59 velocity=0 time=110
 i : 0the msg is note_on channel=0 note=62 velocity=0 time=4
 i : 0the msg is note_on channel=0 note=67 velocity=0 time=3
 i : 0the msg is note_on channel=0 note=59 velocity=86 time=133
 i : 0the msg is note_on channel=0 note=67 velocity=96 time=1
 i : 0the msg is note_on channel=0 note=62 velocity=103 time=1
 i : 0the msg is note_on channel=0 note=67 velocity=0 time=242
 i : 0the msg is note_on channel=0 note=59 velocity=0 time=5
 i : 0the msg is note_on channel=0 note=62 velocity=0 time=4
 i : 0the msg is note_on channel=0 note=59 velocity=86 time=211
 i : 0the msg is note_on channel=0 note=62 velocity=100 time=0
 i : 0the msg is note_on channel=0 note=67 velocity=89 time=2
 i : 0the msg is note_on channel=0 note=62 velocity=0 time=950
 i : 0the msg is note_on channel=0 note=59 velocity=0 time=27
 i : 0the msg is note_on channel=0 note=66 velocity=84 time=230
 i : 0the msg is note_on channel=0 note=62 velocity=96 time=7
 i : 0the msg is note_on channel=0 note=57 velocity=91 time=2
 i : 0the msg is note_on channel=0 note=67 velocity=0 time=28
 i : 0the msg is note_on channel=0 note=57 velocity=0 time=386
 i : 0the msg is note_on channel=0 note=66 velocity=0 time=11
 i : 0the msg is note_on channel=0 note=62 velocity=0 time=5
 i : 0the msg is note_on channel=0 note=62 velocity=93 time=47
 i : 0the msg is note_on channel=0 note=66 velocity=100 time=1
 i : 0the msg is note_on channel=0 note=57 velocity=72 time=3
 i : 0the msg is note_on channel=0 note=57 velocity=0 time=144
 i : 0the msg is note_on channel=0 note=66 velocity=0 time=0
 i : 0the msg is note_on channel=0 note=62 velocity=0 time=6
 i : 0the msg is note_on channel=0 note=62 velocity=86 time=91
 i : 0the msg is note_on channel=0 note=66 velocity=68 time=0
 i : 0the msg is note_on channel=0 note=57 velocity=60 time=7
 i : 0the msg is note_on channel=0 note=57 velocity=0 time=67
 i : 0the msg is note_on channel=0 note=62 velocity=0 time=14
 i : 0the msg is note_on channel=0 note=66 velocity=0 time=1
 i : 0the msg is note_on channel=0 note=57 velocity=75 time=131
 i : 0the msg is note_on channel=0 note=62 velocity=96 time=0
 i : 0the msg is note_on channel=0 note=66 velocity=92 time=0
 i : 0the msg is note_on channel=0 note=57 velocity=0 time=87
 i : 0the msg is note_on channel=0 note=62 velocity=0 time=11
 i : 0the msg is note_on channel=0 note=66 velocity=0 time=1
 i : 0the msg is note_on channel=0 note=66 velocity=94 time=164
 i : 0the msg is note_on channel=0 note=62 velocity=96 time=3
 i : 0the msg is note_on channel=0 note=57 velocity=78 time=2
 i : 0the msg is note_on channel=0 note=62 velocity=0 time=539
 i : 0the msg is note_on channel=0 note=57 velocity=0 time=4
 i : 0the msg is note_on channel=0 note=66 velocity=0 time=49
 i : 0the msg is note_on channel=0 note=62 velocity=72 time=100
 i : 0the msg is note_on channel=0 note=67 velocity=86 time=0
 i : 0the msg is note_on channel=0 note=59 velocity=67 time=4
 i : 0the msg is note_on channel=0 note=62 velocity=0 time=98
 i : 0the msg is note_on channel=0 note=59 velocity=0 time=3
 i : 0the msg is note_on channel=0 note=67 velocity=0 time=11
 i : 0the msg is note_on channel=0 note=62 velocity=93 time=146
 i : 0the msg is note_on channel=0 note=67 velocity=91 time=0
 i : 0the msg is note_on channel=0 note=59 velocity=58 time=2
 i : 0the msg is note_on channel=0 note=59 velocity=0 time=325
 i : 0the msg is note_on channel=0 note=67 velocity=0 time=10
 i : 0the msg is note_on channel=0 note=62 velocity=0 time=1
 i : 0the msg is note_on channel=0 note=59 velocity=45 time=125
 i : 0the msg is note_on channel=0 note=59 velocity=0 time=63
 i : 0the msg is note_on channel=0 note=59 velocity=85 time=182
 i : 0the msg is note_on channel=0 note=62 velocity=106 time=2
 i : 0the msg is note_on channel=0 note=67 velocity=100 time=0
 i : 0the msg is note_on channel=0 note=59 velocity=0 time=164
 i : 0the msg is note_on channel=0 note=59 velocity=44 time=89
 i : 0the msg is note_on channel=0 note=62 velocity=0 time=72
 i : 0the msg is note_on channel=0 note=59 velocity=0 time=25
 i : 0the msg is note_on channel=0 note=67 velocity=0 time=59
 i : 0the msg is note_on channel=0 note=62 velocity=89 time=73
 i : 0the msg is note_on channel=0 note=59 velocity=72 time=2
 i : 0the msg is note_on channel=0 note=67 velocity=89 time=2
 i : 0the msg is note_on channel=0 note=59 velocity=0 time=82
 i : 0the msg is note_on channel=0 note=62 velocity=0 time=24
 i : 0the msg is note_on channel=0 note=67 velocity=0 time=16
 i : 0the msg is note_on channel=0 note=62 velocity=91 time=131
 i : 0the msg is note_on channel=0 note=65 velocity=98 time=0
 i : 0the msg is note_on channel=0 note=69 velocity=98 time=4
 i : 0the msg is note_on channel=0 note=62 velocity=0 time=800
 i : 0the msg is note_on channel=0 note=65 velocity=0 time=26
 i : 0the msg is note_on channel=0 note=69 velocity=0 time=1
 i : 0the msg is note_on channel=0 note=69 velocity=60 time=145
 i : 0the msg is note_on channel=0 note=65 velocity=49 time=6
 i : 0the msg is note_on channel=0 note=62 velocity=62 time=3
 i : 0the msg is note_on channel=0 note=62 velocity=0 time=74
 i : 0the msg is note_on channel=0 note=65 velocity=0 time=8
 i : 0the msg is note_on channel=0 note=69 velocity=0 time=30
 i : 0the msg is note_on channel=0 note=72 velocity=89 time=105
 i : 0the msg is note_on channel=0 note=65 velocity=80 time=3
 i : 0the msg is note_on channel=0 note=69 velocity=91 time=7
 i : 0the msg is note_on channel=0 note=72 velocity=0 time=122
 i : 0the msg is note_on channel=0 note=69 velocity=0 time=24
 i : 0the msg is note_on channel=0 note=65 velocity=0 time=7
 i : 0the msg is note_on channel=0 note=65 velocity=93 time=306
 i : 0the msg is note_on channel=0 note=69 velocity=89 time=3
 i : 0the msg is note_on channel=0 note=62 velocity=100 time=3
 i : 0the msg is note_on channel=0 note=69 velocity=0 time=1326
 i : 0the msg is note_on channel=0 note=65 velocity=0 time=9
 i : 0the msg is note_on channel=0 note=62 velocity=0 time=1
 i : 0the msg is note_on channel=0 note=62 velocity=71 time=84
 i : 0the msg is note_on channel=0 note=65 velocity=77 time=1
 i : 0the msg is note_on channel=0 note=69 velocity=66 time=7
 i : 0the msg is note_on channel=0 note=62 velocity=0 time=85
 i : 0the msg is note_on channel=0 note=65 velocity=0 time=7
 i : 0the msg is note_on channel=0 note=69 velocity=0 time=4
 i : 0the msg is note_on channel=0 note=62 velocity=103 time=164
 i : 0the msg is note_on channel=0 note=65 velocity=108 time=1
 i : 0the msg is note_on channel=0 note=69 velocity=91 time=1
 i : 0the msg is note_on channel=0 note=69 velocity=0 time=333
 i : 0the msg is note_on channel=0 note=62 velocity=0 time=10
 i : 0the msg is note_on channel=0 note=65 velocity=0 time=9
 i : 0the msg is note_on channel=0 note=59 velocity=100 time=116
 i : 0the msg is note_on channel=0 note=62 velocity=113 time=2
 i : 0the msg is note_on channel=0 note=67 velocity=89 time=1
 i : 0the msg is note_on channel=0 note=59 velocity=0 time=797
 i : 0the msg is note_on channel=0 note=67 velocity=0 time=18
 i : 0the msg is note_on channel=0 note=62 velocity=0 time=2
 i : 0the msg is note_on channel=0 note=67 velocity=66 time=154
 i : 0the msg is note_on channel=0 note=62 velocity=86 time=1
 i : 0the msg is note_on channel=0 note=59 velocity=67 time=2
 i : 0the msg is note_on channel=0 note=62 velocity=0 time=59
 i : 0the msg is note_on channel=0 note=59 velocity=0 time=1
 i : 0the msg is note_on channel=0 note=67 velocity=0 time=1
 i : 0the msg is note_on channel=0 note=59 velocity=71 time=172
 i : 0the msg is note_on channel=0 note=62 velocity=96 time=0
 i : 0the msg is note_on channel=0 note=67 velocity=85 time=2
 i : 0the msg is note_on channel=0 note=62 velocity=0 time=165
 i : 0the msg is note_on channel=0 note=67 velocity=0 time=1
 i : 0the msg is note_on channel=0 note=59 velocity=0 time=0
 i : 0the msg is note_on channel=0 note=62 velocity=100 time=307
 i : 0the msg is note_on channel=0 note=59 velocity=80 time=1
 i : 0the msg is note_on channel=0 note=67 velocity=83 time=1
 i : 0the msg is note_on channel=0 note=59 velocity=0 time=1083
 i : 0the msg is note_on channel=0 note=62 velocity=0 time=36
 i : 0the msg is note_on channel=0 note=67 velocity=0 time=25
 i : 0the msg is note_on channel=0 note=67 velocity=25 time=33
 i : 0the msg is note_on channel=0 note=62 velocity=48 time=12
 i : 0the msg is note_on channel=0 note=59 velocity=22 time=11
 i : 0the msg is note_on channel=0 note=59 velocity=0 time=59
 i : 0the msg is note_on channel=0 note=67 velocity=0 time=7
 i : 0the msg is note_on channel=0 note=62 velocity=0 time=1
 i : 0the msg is note_on channel=0 note=62 velocity=93 time=168
 i : 0the msg is note_on channel=0 note=59 velocity=68 time=1
 i : 0the msg is note_on channel=0 note=67 velocity=75 time=1
 i : 0the msg is note_on channel=0 note=59 velocity=0 time=70
 i : 0the msg is note_on channel=0 note=62 velocity=0 time=9
 i : 0the msg is note_on channel=0 note=67 velocity=0 time=6
 i : 0the msg is note_on channel=0 note=62 velocity=83 time=140
 i : 0the msg is note_on channel=0 note=59 velocity=64 time=1
 i : 0the msg is note_on channel=0 note=67 velocity=72 time=0
 i : 0the msg is note_on channel=0 note=59 velocity=0 time=260
 i : 0the msg is note_on channel=0 note=62 velocity=0 time=28
 i : 0the msg is note_on channel=0 note=67 velocity=0 time=22
 i : 0the msg is note_on channel=0 note=62 velocity=103 time=177
 i : 0the msg is note_on channel=0 note=69 velocity=93 time=1
 i : 0the msg is note_on channel=0 note=65 velocity=103 time=2
 i : 0the msg is note_on channel=0 note=62 velocity=0 time=822
 i : 0the msg is note_on channel=0 note=65 velocity=0 time=16
 i : 0the msg is note_on channel=0 note=69 velocity=0 time=13
 i : 0the msg is note_on channel=0 note=65 velocity=62 time=115
 i : 0the msg is note_on channel=0 note=69 velocity=68 time=0
 i : 0the msg is note_on channel=0 note=62 velocity=60 time=4
 i : 0the msg is note_on channel=0 note=62 velocity=0 time=85
 i : 0the msg is note_on channel=0 note=65 velocity=0 time=13
 i : 0the msg is note_on channel=0 note=69 velocity=0 time=4
 i : 0the msg is note_on channel=0 note=65 velocity=73 time=131
 i : 0the msg is note_on channel=0 note=69 velocity=85 time=3
 i : 0the msg is note_on channel=0 note=72 velocity=86 time=0
 i : 0the msg is note_on channel=0 note=72 velocity=0 time=128
 i : 0the msg is note_on channel=0 note=65 velocity=0 time=12
 i : 0the msg is note_on channel=0 note=69 velocity=0 time=3
 i : 0the msg is note_on channel=0 note=65 velocity=89 time=317
 i : 0the msg is note_on channel=0 note=62 velocity=91 time=2
 i : 0the msg is note_on channel=0 note=69 velocity=83 time=1
 i : 0the msg is note_on channel=0 note=69 velocity=0 time=1311
 i : 0the msg is note_on channel=0 note=65 velocity=0 time=10
 i : 0the msg is note_on channel=0 note=62 velocity=0 time=5
 i : 0the msg is note_on channel=0 note=65 velocity=77 time=128
 i : 0the msg is note_on channel=0 note=62 velocity=69 time=1
 i : 0the msg is note_on channel=0 note=69 velocity=69 time=2
 i : 0the msg is note_on channel=0 note=62 velocity=0 time=83
 i : 0the msg is note_on channel=0 note=69 velocity=0 time=3
 i : 0the msg is note_on channel=0 note=65 velocity=0 time=2
 i : 0the msg is note_on channel=0 note=65 velocity=96 time=152
 i : 0the msg is note_on channel=0 note=69 velocity=85 time=1
 i : 0the msg is note_on channel=0 note=62 velocity=89 time=1
 i : 0the msg is note_on channel=0 note=65 velocity=0 time=267
 i : 0the msg is note_on channel=0 note=69 velocity=0 time=9
 i : 0the msg is note_on channel=0 note=62 velocity=0 time=18
 i : 0the msg is note_on channel=0 note=59 velocity=86 time=190
 i : 0the msg is note_on channel=0 note=62 velocity=106 time=2
 i : 0the msg is note_on channel=0 note=67 velocity=93 time=3
 i : 0the msg is note_on channel=0 note=67 velocity=0 time=810
 i : 0the msg is note_on channel=0 note=62 velocity=0 time=1
 i : 0the msg is note_on channel=0 note=59 velocity=0 time=3
 i : 0the msg is note_on channel=0 note=67 velocity=60 time=111
 i : 0the msg is note_on channel=0 note=62 velocity=64 time=6
 i : 0the msg is note_on channel=0 note=59 velocity=28 time=19
 i : 0the msg is note_on channel=0 note=59 velocity=0 time=55
 i : 0the msg is note_on channel=0 note=62 velocity=0 time=0
 i : 0the msg is note_on channel=0 note=67 velocity=0 time=0
 i : 0the msg is note_on channel=0 note=59 velocity=80 time=174
 i : 0the msg is note_on channel=0 note=62 velocity=100 time=0
 i : 0the msg is note_on channel=0 note=67 velocity=86 time=4
 i : 0the msg is note_on channel=0 note=62 velocity=0 time=152
 i : 0the msg is note_on channel=0 note=59 velocity=0 time=1
 i : 0the msg is note_on channel=0 note=67 velocity=0 time=3
 i : 0the msg is note_on channel=0 note=62 velocity=89 time=320
 i : 0the msg is note_on channel=0 note=59 velocity=64 time=4
 i : 0the msg is note_on channel=0 note=67 velocity=78 time=3
 i : 0the msg is note_on channel=0 note=59 velocity=0 time=839
 i : 0the msg is note_on channel=0 note=67 velocity=0 time=2
 i : 0the msg is note_on channel=0 note=62 velocity=0 time=14
 i : 0the msg is note_on channel=0 note=62 velocity=78 time=132
 i : 0the msg is note_on channel=0 note=67 velocity=70 time=1
 i : 0the msg is note_on channel=0 note=59 velocity=53 time=6
 i : 0the msg is note_on channel=0 note=62 velocity=0 time=77
 i : 0the msg is note_on channel=0 note=67 velocity=0 time=2
 i : 0the msg is note_on channel=0 note=59 velocity=0 time=3
 i : 0the msg is note_on channel=0 note=62 velocity=57 time=153
 i : 0the msg is note_on channel=0 note=67 velocity=48 time=4
 i : 0the msg is note_on channel=0 note=59 velocity=32 time=2
 i : 0the msg is note_on channel=0 note=62 velocity=0 time=53
 i : 0the msg is note_on channel=0 note=59 velocity=0 time=5
 i : 0the msg is note_on channel=0 note=67 velocity=0 time=0
 i : 0the msg is note_on channel=0 note=62 velocity=96 time=180
 i : 0the msg is note_on channel=0 note=67 velocity=77 time=0
 i : 0the msg is note_on channel=0 note=59 velocity=73 time=2
 i : 0the msg is note_on channel=0 note=62 velocity=0 time=96
 i : 0the msg is note_on channel=0 note=59 velocity=0 time=8
 i : 0the msg is note_on channel=0 note=67 velocity=0 time=0
 i : 0the msg is note_on channel=0 note=62 velocity=96 time=116
 i : 0the msg is note_on channel=0 note=67 velocity=80 time=0
 i : 0the msg is note_on channel=0 note=59 velocity=77 time=1
 i : 0the msg is note_on channel=0 note=59 velocity=0 time=290
 i : 0the msg is note_on channel=0 note=62 velocity=0 time=28
 i : 0the msg is note_on channel=0 note=67 velocity=0 time=13
 i : 0the msg is note_on channel=0 note=69 velocity=98 time=150
 i : 0the msg is note_on channel=0 note=65 velocity=96 time=1
 i : 0the msg is note_on channel=0 note=62 velocity=93 time=1
 i : 0the msg is note_on channel=0 note=62 velocity=0 time=858
 i : 0the msg is note_on channel=0 note=69 velocity=0 time=3
 i : 0the msg is note_on channel=0 note=65 velocity=0 time=8
 i : 0the msg is note_on channel=0 note=65 velocity=65 time=93
 i : 0the msg is note_on channel=0 note=62 velocity=70 time=3
 i : 0the msg is note_on channel=0 note=69 velocity=62 time=1
 i : 0the msg is note_on channel=0 note=65 velocity=0 time=103
 i : 0the msg is note_on channel=0 note=62 velocity=0 time=1
 i : 0the msg is note_on channel=0 note=69 velocity=0 time=5
 i : 0the msg is note_on channel=0 note=65 velocity=80 time=116
 i : 0the msg is note_on channel=0 note=69 velocity=85 time=1
 i : 0the msg is note_on channel=0 note=72 velocity=96 time=1
 i : 0the msg is note_on channel=0 note=72 velocity=0 time=129
 i : 0the msg is note_on channel=0 note=69 velocity=0 time=14
 i : 0the msg is note_on channel=0 note=65 velocity=0 time=7
 i : 0the msg is note_on channel=0 note=65 velocity=91 time=318
 i : 0the msg is note_on channel=0 note=62 velocity=86 time=1
 i : 0the msg is note_on channel=0 note=69 velocity=89 time=1
 i : 0the msg is note_on channel=0 note=62 velocity=0 time=833
 i : 0the msg is note_on channel=0 note=69 velocity=0 time=11
 i : 0the msg is note_on channel=0 note=65 velocity=0 time=8
 i : 0the msg is note_on channel=0 note=65 velocity=46 time=116
 i : 0the msg is note_on channel=0 note=69 velocity=59 time=3
 i : 0the msg is note_on channel=0 note=62 velocity=46 time=8
 i : 0the msg is note_on channel=0 note=62 velocity=0 time=63
 i : 0the msg is note_on channel=0 note=69 velocity=0 time=4
 i : 0the msg is note_on channel=0 note=65 velocity=0 time=0
 i : 0the msg is note_on channel=0 note=62 velocity=48 time=148
 i : 0the msg is note_on channel=0 note=65 velocity=43 time=3
 i : 0the msg is note_on channel=0 note=69 velocity=60 time=0
 i : 0the msg is note_on channel=0 note=62 velocity=0 time=70
 i : 0the msg is note_on channel=0 note=65 velocity=0 time=14
 i : 0the msg is note_on channel=0 note=69 velocity=0 time=5
 i : 0the msg is note_on channel=0 note=69 velocity=82 time=135
 i : 0the msg is note_on channel=0 note=65 velocity=80 time=1
 i : 0the msg is note_on channel=0 note=72 velocity=91 time=7
 i : 0the msg is note_on channel=0 note=65 velocity=0 time=102
 i : 0the msg is note_on channel=0 note=72 velocity=0 time=1
 i : 0the msg is note_on channel=0 note=69 velocity=0 time=8
 i : 0the msg is note_on channel=0 note=62 velocity=89 time=147
 i : 0the msg is note_on channel=0 note=67 velocity=98 time=2
 i : 0the msg is note_on channel=0 note=71 velocity=100 time=0
 i : 0the msg is note_on channel=0 note=67 velocity=0 time=374
 i : 0the msg is note_on channel=0 note=62 velocity=0 time=4
 i : 0the msg is note_on channel=0 note=71 velocity=0 time=22
 i : 0the msg is note_on channel=0 note=62 velocity=80 time=96
 i : 0the msg is note_on channel=0 note=69 velocity=83 time=4
 i : 0the msg is note_on channel=0 note=65 velocity=93 time=5
 i : 0the msg is note_on channel=0 note=62 velocity=0 time=789
 i : 0the msg is note_on channel=0 note=65 velocity=0 time=6
 i : 0the msg is note_on channel=0 note=69 velocity=0 time=5
 i : 0the msg is note_on channel=0 note=69 velocity=72 time=112
 i : 0the msg is note_on channel=0 note=65 velocity=65 time=4
 i : 0the msg is note_on channel=0 note=62 velocity=61 time=5
 i : 0the msg is note_on channel=0 note=62 velocity=0 time=72
 i : 0the msg is note_on channel=0 note=65 velocity=0 time=6
 i : 0the msg is note_on channel=0 note=69 velocity=0 time=16
 i : 0the msg is note_on channel=0 note=69 velocity=82 time=141
 i : 0the msg is note_on channel=0 note=72 velocity=96 time=0
 i : 0the msg is note_on channel=0 note=65 velocity=93 time=1
 i : 0the msg is note_on channel=0 note=72 velocity=0 time=126
 i : 0the msg is note_on channel=0 note=69 velocity=0 time=4
 i : 0the msg is note_on channel=0 note=65 velocity=0 time=6
 i : 0the msg is note_on channel=0 note=65 velocity=98 time=364
 i : 0the msg is note_on channel=0 note=69 velocity=91 time=1
 i : 0the msg is note_on channel=0 note=62 velocity=89 time=1
 i : 0the msg is note_on channel=0 note=62 velocity=0 time=847
 i : 0the msg is note_on channel=0 note=69 velocity=0 time=15
 i : 0the msg is note_on channel=0 note=65 velocity=0 time=9
 i : 0the msg is note_on channel=0 note=65 velocity=51 time=91
 i : 0the msg is note_on channel=0 note=69 velocity=54 time=1
 i : 0the msg is note_on channel=0 note=62 velocity=53 time=12
 i : 0the msg is note_on channel=0 note=62 velocity=0 time=55
 i : 0the msg is note_on channel=0 note=65 velocity=0 time=17
 i : 0the msg is note_on channel=0 note=69 velocity=0 time=1
 i : 0the msg is note_on channel=0 note=65 velocity=51 time=132
 i : 0the msg is note_on channel=0 note=69 velocity=60 time=1
 i : 0the msg is note_on channel=0 note=62 velocity=48 time=12
 i : 0the msg is note_on channel=0 note=62 velocity=0 time=55
 i : 0the msg is note_on channel=0 note=65 velocity=0 time=24
 i : 0the msg is note_on channel=0 note=69 velocity=0 time=5
 i : 0the msg is note_on channel=0 note=65 velocity=82 time=127
 i : 0the msg is note_on channel=0 note=69 velocity=78 time=0
 i : 0the msg is note_on channel=0 note=72 velocity=80 time=4
 i : 0the msg is note_on channel=0 note=72 velocity=0 time=112
 i : 0the msg is note_on channel=0 note=65 velocity=0 time=1
 i : 0the msg is note_on channel=0 note=69 velocity=0 time=1
 i : 0the msg is note_on channel=0 note=67 velocity=89 time=153
 i : 0the msg is note_on channel=0 note=62 velocity=91 time=1
 i : 0the msg is note_on channel=0 note=71 velocity=86 time=0
 i : 0the msg is note_on channel=0 note=62 velocity=0 time=320
 i : 0the msg is note_on channel=0 note=67 velocity=0 time=16
 i : 0the msg is note_on channel=0 note=71 velocity=0 time=16
 i : 0the msg is note_on channel=0 note=62 velocity=75 time=122
 i : 0the msg is note_on channel=0 note=65 velocity=91 time=2
 i : 0the msg is note_on channel=0 note=69 velocity=86 time=2
 i : 0the msg is note_on channel=0 note=62 velocity=0 time=829
 i : 0the msg is note_on channel=0 note=69 velocity=0 time=16
 i : 0the msg is note_on channel=0 note=65 velocity=0 time=1
 i : 0the msg is note_on channel=0 note=65 velocity=62 time=97
 i : 0the msg is note_on channel=0 note=69 velocity=65 time=2
 i : 0the msg is note_on channel=0 note=62 velocity=61 time=5
 i : 0the msg is note_on channel=0 note=62 velocity=0 time=82
 i : 0the msg is note_on channel=0 note=65 velocity=0 time=8
 i : 0the msg is note_on channel=0 note=69 velocity=0 time=5
 i : 0the msg is note_on channel=0 note=65 velocity=73 time=122
 i : 0the msg is note_on channel=0 note=69 velocity=77 time=0
 i : 0the msg is note_on channel=0 note=72 velocity=85 time=4
 i : 0the msg is note_on channel=0 note=72 velocity=0 time=114
 i : 0the msg is note_on channel=0 note=69 velocity=0 time=29
 i : 0the msg is note_on channel=0 note=65 velocity=0 time=8
 i : 0the msg is note_on channel=0 note=65 velocity=93 time=341
 i : 0the msg is note_on channel=0 note=69 velocity=89 time=1
 i : 0the msg is note_on channel=0 note=62 velocity=86 time=2
 i : 0the msg is note_on channel=0 note=62 velocity=0 time=824
 i : 0the msg is note_on channel=0 note=69 velocity=0 time=10
 i : 0the msg is note_on channel=0 note=65 velocity=0 time=2
 i : 0the msg is note_on channel=0 note=69 velocity=66 time=109
 i : 0the msg is note_on channel=0 note=65 velocity=56 time=1
 i : 0the msg is note_on channel=0 note=62 velocity=60 time=13
 i : 0the msg is note_on channel=0 note=62 velocity=0 time=69
 i : 0the msg is note_on channel=0 note=65 velocity=0 time=8
 i : 0the msg is note_on channel=0 note=69 velocity=0 time=2
 i : 0the msg is note_on channel=0 note=65 velocity=56 time=154
 i : 0the msg is note_on channel=0 note=69 velocity=64 time=0
 i : 0the msg is note_on channel=0 note=62 velocity=52 time=9
 i : 0the msg is note_on channel=0 note=62 velocity=0 time=51
 i : 0the msg is note_on channel=0 note=69 velocity=0 time=32
 i : 0the msg is note_on channel=0 note=65 velocity=0 time=0
 i : 0the msg is note_on channel=0 note=65 velocity=85 time=144
 i : 0the msg is note_on channel=0 note=69 velocity=75 time=3
 i : 0the msg is note_on channel=0 note=72 velocity=85 time=0
 i : 0the msg is note_on channel=0 note=72 velocity=0 time=101
 i : 0the msg is note_on channel=0 note=69 velocity=0 time=7
 i : 0the msg is note_on channel=0 note=65 velocity=0 time=9
 i : 0the msg is note_on channel=0 note=62 velocity=89 time=145
 i : 0the msg is note_on channel=0 note=67 velocity=91 time=0
 i : 0the msg is note_on channel=0 note=71 velocity=89 time=3
 i : 0the msg is note_on channel=0 note=62 velocity=0 time=316
 i : 0the msg is note_on channel=0 note=67 velocity=0 time=29
 i : 0the msg is note_on channel=0 note=71 velocity=0 time=26
 i : 0the msg is note_on channel=0 note=62 velocity=91 time=112
 i : 0the msg is note_on channel=0 note=69 velocity=89 time=1
 i : 0the msg is note_on channel=0 note=65 velocity=96 time=1
 i : 0the msg is note_on channel=0 note=62 velocity=0 time=807
 i : 0the msg is note_on channel=0 note=65 velocity=0 time=15
 i : 0the msg is note_on channel=0 note=69 velocity=0 time=3
 i : 0the msg is note_on channel=0 note=69 velocity=65 time=129
 i : 0the msg is note_on channel=0 note=65 velocity=60 time=1
 i : 0the msg is note_on channel=0 note=62 velocity=58 time=10
 i : 0the msg is note_on channel=0 note=62 velocity=0 time=59
 i : 0the msg is note_on channel=0 note=65 velocity=0 time=17
 i : 0the msg is note_on channel=0 note=69 velocity=0 time=8
 i : 0the msg is note_on channel=0 note=65 velocity=83 time=136
 i : 0the msg is note_on channel=0 note=69 velocity=75 time=2
 i : 0the msg is note_on channel=0 note=72 velocity=86 time=0
 i : 0the msg is note_on channel=0 note=72 velocity=0 time=123
 i : 0the msg is note_on channel=0 note=69 velocity=0 time=9
 i : 0the msg is note_on channel=0 note=65 velocity=0 time=11
 i : 0the msg is note_on channel=0 note=65 velocity=89 time=309
 i : 0the msg is note_on channel=0 note=69 velocity=83 time=1
 i : 0the msg is note_on channel=0 note=62 velocity=82 time=1
 i : 0the msg is note_on channel=0 note=62 velocity=0 time=833
 i : 0the msg is note_on channel=0 note=69 velocity=0 time=9
 i : 0the msg is note_on channel=0 note=65 velocity=0 time=4
 i : 0the msg is note_on channel=0 note=65 velocity=48 time=132
 i : 0the msg is note_on channel=0 note=69 velocity=52 time=5
 i : 0the msg is note_on channel=0 note=62 velocity=53 time=4
 i : 0the msg is note_on channel=0 note=69 velocity=0 time=69
 i : 0the msg is note_on channel=0 note=62 velocity=0 time=2
 i : 0the msg is note_on channel=0 note=65 velocity=0 time=0
 i : 0the msg is note_on channel=0 note=65 velocity=56 time=153
 i : 0the msg is note_on channel=0 note=69 velocity=60 time=7
 i : 0the msg is note_on channel=0 note=62 velocity=48 time=4
 i : 0the msg is note_on channel=0 note=62 velocity=0 time=47
 i : 0the msg is note_on channel=0 note=65 velocity=0 time=35
 i : 0the msg is note_on channel=0 note=69 velocity=0 time=6
 i : 0the msg is note_on channel=0 note=65 velocity=80 time=132
 i : 0the msg is note_on channel=0 note=69 velocity=77 time=3
 i : 0the msg is note_on channel=0 note=72 velocity=86 time=2
 i : 0the msg is note_on channel=0 note=72 velocity=0 time=102
 i : 0the msg is note_on channel=0 note=69 velocity=0 time=15
 i : 0the msg is note_on channel=0 note=65 velocity=0 time=9
 i : 0the msg is note_on channel=0 note=62 velocity=93 time=132
 i : 0the msg is note_on channel=0 note=67 velocity=96 time=0
 i : 0the msg is note_on channel=0 note=71 velocity=96 time=3
 i : 0the msg is note_on channel=0 note=62 velocity=0 time=346
 i : 0the msg is note_on channel=0 note=67 velocity=0 time=9
 i : 0the msg is note_on channel=0 note=71 velocity=0 time=26
 i : 0the msg is note_on channel=0 note=62 velocity=85 time=98
 i : 0the msg is note_on channel=0 note=65 velocity=89 time=0
 i : 0the msg is note_on channel=0 note=69 velocity=78 time=2
 i : 0the msg is note_on channel=0 note=69 velocity=0 time=751
 i : 0the msg is note_on channel=0 note=65 velocity=0 time=4
 i : 0the msg is note_on channel=0 note=62 velocity=0 time=10
 i : 0the msg is note_on channel=0 note=69 velocity=80 time=181
 i : 0the msg is note_on channel=0 note=65 velocity=82 time=3
 i : 0the msg is note_on channel=0 note=62 velocity=85 time=6
 i : 0the msg is note_on channel=0 note=62 velocity=0 time=167
 i : 0the msg is note_on channel=0 note=65 velocity=0 time=8
 i : 0the msg is note_on channel=0 note=69 velocity=0 time=24
 i : 0the msg is note_on channel=0 note=72 velocity=89 time=36
 i : 0the msg is note_on channel=0 note=65 velocity=93 time=4
 i : 0the msg is note_on channel=0 note=69 velocity=89 time=3
 i : 0the msg is note_on channel=0 note=72 velocity=0 time=130
 i : 0the msg is note_on channel=0 note=65 velocity=0 time=20
 i : 0the msg is note_on channel=0 note=69 velocity=0 time=1
 i : 0the msg is note_on channel=0 note=65 velocity=85 time=301
 i : 0the msg is note_on channel=0 note=69 velocity=75 time=1
 i : 0the msg is note_on channel=0 note=62 velocity=85 time=8
 i : 0the msg is note_on channel=0 note=69 velocity=0 time=1990
 i : 0the msg is note_on channel=0 note=62 velocity=0 time=9
 i : 0the msg is note_on channel=0 note=65 velocity=0 time=3
 i : 0the msg is note_on channel=0 note=64 velocity=83 time=183
 i : 0the msg is note_on channel=0 note=61 velocity=75 time=2
 i : 0the msg is note_on channel=0 note=69 velocity=83 time=0
 i : 0the msg is note_on channel=0 note=61 velocity=0 time=830
 i : 0the msg is note_on channel=0 note=69 velocity=0 time=11
 i : 0the msg is note_on channel=0 note=64 velocity=0 time=7
 i : 0the msg is note_on channel=0 note=64 velocity=65 time=100
 i : 0the msg is note_on channel=0 note=61 velocity=70 time=4
 i : 0the msg is note_on channel=0 note=69 velocity=54 time=7
 i : 0the msg is note_on channel=0 note=61 velocity=0 time=57
 i : 0the msg is note_on channel=0 note=69 velocity=0 time=20
 i : 0the msg is note_on channel=0 note=64 velocity=0 time=0
 i : 0the msg is note_on channel=0 note=64 velocity=103 time=143
 i : 0the msg is note_on channel=0 note=61 velocity=104 time=1
 i : 0the msg is note_on channel=0 note=69 velocity=98 time=4
 i : 0the msg is note_on channel=0 note=69 velocity=0 time=135
 i : 0the msg is note_on channel=0 note=61 velocity=0 time=8
 i : 0the msg is note_on channel=0 note=64 velocity=0 time=4
 i : 0the msg is note_on channel=0 note=67 velocity=98 time=319
 i : 0the msg is note_on channel=0 note=59 velocity=85 time=6
 i : 0the msg is note_on channel=0 note=62 velocity=113 time=1
 i : 0the msg is note_on channel=0 note=67 velocity=0 time=1889
 i : 0the msg is note_on channel=0 note=59 velocity=0 time=60
 i : 0the msg is note_on channel=0 note=62 velocity=0 time=44
 i : 0the msg is note_on channel=0 note=69 velocity=96 time=194
 i : 0the msg is note_on channel=0 note=62 velocity=98 time=6
 i : 0the msg is note_on channel=0 note=65 velocity=98 time=0
 i : 0the msg is note_on channel=0 note=69 velocity=0 time=910
 i : 0the msg is note_on channel=0 note=65 velocity=0 time=4
 i : 0the msg is note_on channel=0 note=62 velocity=0 time=0
 i : 0the msg is note_on channel=0 note=65 velocity=56 time=64
 i : 0the msg is note_on channel=0 note=69 velocity=62 time=0
 i : 0the msg is note_on channel=0 note=62 velocity=53 time=2
 i : 0the msg is note_on channel=0 note=62 velocity=0 time=68
 i : 0the msg is note_on channel=0 note=65 velocity=0 time=14
 i : 0the msg is note_on channel=0 note=69 velocity=0 time=18
 i : 0the msg is note_on channel=0 note=72 velocity=86 time=83
 i : 0the msg is note_on channel=0 note=65 velocity=83 time=3
 i : 0the msg is note_on channel=0 note=69 velocity=78 time=2
 i : 0the msg is note_on channel=0 note=72 velocity=0 time=138
 i : 0the msg is note_on channel=0 note=69 velocity=0 time=18
 i : 0the msg is note_on channel=0 note=65 velocity=0 time=13
 i : 0the msg is note_on channel=0 note=65 velocity=93 time=321
 i : 0the msg is note_on channel=0 note=69 velocity=93 time=4
 i : 0the msg is note_on channel=0 note=62 velocity=93 time=1
 i : 0the msg is note_on channel=0 note=62 velocity=0 time=1925
 i : 0the msg is note_on channel=0 note=65 velocity=0 time=26
 i : 0the msg is note_on channel=0 note=69 velocity=0 time=4
 i : 0the msg is note_on channel=0 note=69 velocity=89 time=207
 i : 0the msg is note_on channel=0 note=61 velocity=76 time=9
 i : 0the msg is note_on channel=0 note=64 velocity=98 time=0
 i : 0the msg is note_on channel=0 note=61 velocity=0 time=866
 i : 0the msg is note_on channel=0 note=69 velocity=0 time=4
 i : 0the msg is note_on channel=0 note=64 velocity=0 time=1
 i : 0the msg is note_on channel=0 note=69 velocity=48 time=70
 i : 0the msg is note_on channel=0 note=64 velocity=61 time=1
 i : 0the msg is note_on channel=0 note=61 velocity=56 time=4
 i : 0the msg is note_on channel=0 note=61 velocity=0 time=63
 i : 0the msg is note_on channel=0 note=64 velocity=0 time=23
 i : 0the msg is note_on channel=0 note=69 velocity=0 time=0
 i : 0the msg is note_on channel=0 note=61 velocity=78 time=137
 i : 0the msg is note_on channel=0 note=64 velocity=89 time=1
 i : 0the msg is note_on channel=0 note=69 velocity=93 time=2
 i : 0the msg is note_on channel=0 note=69 velocity=0 time=134
 i : 0the msg is note_on channel=0 note=64 velocity=0 time=10
 i : 0the msg is note_on channel=0 note=61 velocity=0 time=9
 i : 0the msg is note_on channel=0 note=67 velocity=96 time=321
 i : 0the msg is note_on channel=0 note=59 velocity=80 time=2
 i : 0the msg is note_on channel=0 note=62 velocity=108 time=1
 i : 0the msg is note_on channel=0 note=62 velocity=0 time=2187
 i : 0the msg is note_on channel=0 note=59 velocity=0 time=24
 i : 0the msg is note_on channel=0 note=66 velocity=79 time=197
 i : 0the msg is note_on channel=0 note=62 velocity=98 time=7
 i : 0the msg is note_on channel=0 note=57 velocity=96 time=2
 i : 0the msg is note_on channel=0 note=67 velocity=0 time=20
 i : 0the msg is note_on channel=0 note=57 velocity=0 time=350
 i : 0the msg is note_on channel=0 note=66 velocity=0 time=6
 i : 0the msg is note_on channel=0 note=62 velocity=0 time=12
 i : 0the msg is note_on channel=0 note=66 velocity=78 time=88
 i : 0the msg is note_on channel=0 note=62 velocity=89 time=2
 i : 0the msg is note_on channel=0 note=57 velocity=65 time=2
 i : 0the msg is note_on channel=0 note=66 velocity=0 time=118
 i : 0the msg is note_on channel=0 note=57 velocity=0 time=8
 i : 0the msg is note_on channel=0 note=62 velocity=0 time=1
 i : 0the msg is note_on channel=0 note=62 velocity=78 time=111
 i : 0the msg is note_on channel=0 note=66 velocity=68 time=2
 i : 0the msg is note_on channel=0 note=57 velocity=54 time=6
 i : 0the msg is note_on channel=0 note=57 velocity=0 time=56
 i : 0the msg is note_on channel=0 note=66 velocity=0 time=4
 i : 0the msg is note_on channel=0 note=62 velocity=0 time=4
 i : 0the msg is note_on channel=0 note=62 velocity=93 time=152
 i : 0the msg is note_on channel=0 note=66 velocity=89 time=3
 i : 0the msg is note_on channel=0 note=57 velocity=70 time=1
 i : 0the msg is note_on channel=0 note=57 velocity=0 time=72
 i : 0the msg is note_on channel=0 note=66 velocity=0 time=7
 i : 0the msg is note_on channel=0 note=62 velocity=0 time=2
 i : 0the msg is note_on channel=0 note=66 velocity=79 time=160
 i : 0the msg is note_on channel=0 note=62 velocity=89 time=2
 i : 0the msg is note_on channel=0 note=57 velocity=71 time=2
 i : 0the msg is note_on channel=0 note=62 velocity=0 time=79
 i : 0the msg is note_on channel=0 note=66 velocity=0 time=2
 i : 0the msg is note_on channel=0 note=57 velocity=0 time=1
 i : 0the msg is note_on channel=0 note=59 velocity=91 time=622
 i : 0the msg is note_on channel=0 note=62 velocity=111 time=1
 i : 0the msg is note_on channel=0 note=67 velocity=98 time=0
 i : 0the msg is note_on channel=0 note=59 velocity=0 time=110
 i : 0the msg is note_on channel=0 note=62 velocity=0 time=4
 i : 0the msg is note_on channel=0 note=67 velocity=0 time=3
 i : 0the msg is note_on channel=0 note=59 velocity=86 time=133
 i : 0the msg is note_on channel=0 note=67 velocity=96 time=1
 i : 0the msg is note_on channel=0 note=62 velocity=103 time=1
 i : 0the msg is note_on channel=0 note=67 velocity=0 time=242
 i : 0the msg is note_on channel=0 note=59 velocity=0 time=5
 i : 0the msg is note_on channel=0 note=62 velocity=0 time=4
 i : 0the msg is note_on channel=0 note=59 velocity=86 time=211
 i : 0the msg is note_on channel=0 note=62 velocity=100 time=0
 i : 0the msg is note_on channel=0 note=67 velocity=89 time=2
 i : 0the msg is note_on channel=0 note=62 velocity=0 time=950
 i : 0the msg is note_on channel=0 note=59 velocity=0 time=27
 i : 0the msg is note_on channel=0 note=66 velocity=84 time=230
 i : 0the msg is note_on channel=0 note=62 velocity=96 time=7
 i : 0the msg is note_on channel=0 note=57 velocity=91 time=2
 i : 0the msg is note_on channel=0 note=67 velocity=0 time=28
 i : 0the msg is note_on channel=0 note=57 velocity=0 time=386
 i : 0the msg is note_on channel=0 note=66 velocity=0 time=11
 i : 0the msg is note_on channel=0 note=62 velocity=0 time=5
 i : 0the msg is note_on channel=0 note=62 velocity=93 time=47
 i : 0the msg is note_on channel=0 note=66 velocity=100 time=1
 i : 0the msg is note_on channel=0 note=57 velocity=72 time=3
 i : 0the msg is note_on channel=0 note=57 velocity=0 time=144
 i : 0the msg is note_on channel=0 note=66 velocity=0 time=0
 i : 0the msg is note_on channel=0 note=62 velocity=0 time=6
 i : 0the msg is note_on channel=0 note=62 velocity=86 time=91
 i : 0the msg is note_on channel=0 note=66 velocity=68 time=0
 i : 0the msg is note_on channel=0 note=57 velocity=60 time=7
 i : 0the msg is note_on channel=0 note=57 velocity=0 time=67
 i : 0the msg is note_on channel=0 note=62 velocity=0 time=14
 i : 0the msg is note_on channel=0 note=66 velocity=0 time=1
 i : 0the msg is note_on channel=0 note=57 velocity=75 time=131
 i : 0the msg is note_on channel=0 note=62 velocity=96 time=0
 i : 0the msg is note_on channel=0 note=66 velocity=92 time=0
 i : 0the msg is note_on channel=0 note=57 velocity=0 time=87
 i : 0the msg is note_on channel=0 note=62 velocity=0 time=11
 i : 0the msg is note_on channel=0 note=66 velocity=0 time=1
 i : 0the msg is note_on channel=0 note=66 velocity=94 time=164
 i : 0the msg is note_on channel=0 note=62 velocity=96 time=3
 i : 0the msg is note_on channel=0 note=57 velocity=78 time=2
 i : 0the msg is note_on channel=0 note=62 velocity=0 time=539
 i : 0the msg is note_on channel=0 note=57 velocity=0 time=4
 i : 0the msg is note_on channel=0 note=66 velocity=0 time=49
 i : 0the msg is note_on channel=0 note=62 velocity=72 time=100
 i : 0the msg is note_on channel=0 note=67 velocity=86 time=0
 i : 0the msg is note_on channel=0 note=59 velocity=67 time=4
 i : 0the msg is note_on channel=0 note=62 velocity=0 time=98
 i : 0the msg is note_on channel=0 note=59 velocity=0 time=3
 i : 0the msg is note_on channel=0 note=67 velocity=0 time=11
 i : 0the msg is note_on channel=0 note=62 velocity=93 time=146
 i : 0the msg is note_on channel=0 note=67 velocity=91 time=0
 i : 0the msg is note_on channel=0 note=59 velocity=58 time=2
 i : 0the msg is note_on channel=0 note=59 velocity=0 time=325
 i : 0the msg is note_on channel=0 note=67 velocity=0 time=10
 i : 0the msg is note_on channel=0 note=62 velocity=0 time=1
 i : 0the msg is note_on channel=0 note=59 velocity=45 time=125
 i : 0the msg is note_on channel=0 note=59 velocity=0 time=63
 i : 0the msg is note_on channel=0 note=59 velocity=85 time=182
 i : 0the msg is note_on channel=0 note=62 velocity=106 time=2
 i : 0the msg is note_on channel=0 note=67 velocity=100 time=0
 i : 0the msg is note_on channel=0 note=59 velocity=0 time=164
 i : 0the msg is note_on channel=0 note=59 velocity=44 time=89
 i : 0the msg is note_on channel=0 note=62 velocity=0 time=72
 i : 0the msg is note_on channel=0 note=59 velocity=0 time=25
 i : 0the msg is note_on channel=0 note=67 velocity=0 time=59
 i : 0the msg is note_on channel=0 note=62 velocity=89 time=73
 i : 0the msg is note_on channel=0 note=59 velocity=72 time=2
 i : 0the msg is note_on channel=0 note=67 velocity=89 time=2
 i : 0the msg is note_on channel=0 note=59 velocity=0 time=82
 i : 0the msg is note_on channel=0 note=62 velocity=0 time=24
 i : 0the msg is note_on channel=0 note=67 velocity=0 time=16
 i : 0the msg is note_on channel=0 note=62 velocity=91 time=131
 i : 0the msg is note_on channel=0 note=65 velocity=98 time=0
 i : 0the msg is note_on channel=0 note=69 velocity=98 time=4
 i : 0the msg is note_on channel=0 note=62 velocity=0 time=800
 i : 0the msg is note_on channel=0 note=65 velocity=0 time=26
 i : 0the msg is note_on channel=0 note=69 velocity=0 time=1
 i : 0the msg is note_on channel=0 note=69 velocity=60 time=145
 i : 0the msg is note_on channel=0 note=65 velocity=49 time=6
 i : 0the msg is note_on channel=0 note=62 velocity=62 time=3
 i : 0the msg is note_on channel=0 note=62 velocity=0 time=74
 i : 0the msg is note_on channel=0 note=65 velocity=0 time=8
 i : 0the msg is note_on channel=0 note=69 velocity=0 time=30
 i : 0the msg is note_on channel=0 note=72 velocity=89 time=105
 i : 0the msg is note_on channel=0 note=65 velocity=80 time=3
 i : 0the msg is note_on channel=0 note=69 velocity=91 time=7
 i : 0the msg is note_on channel=0 note=72 velocity=0 time=122
 i : 0the msg is note_on channel=0 note=69 velocity=0 time=24
 i : 0the msg is note_on channel=0 note=65 velocity=0 time=7
 i : 0the msg is note_on channel=0 note=65 velocity=93 time=306
 i : 0the msg is note_on channel=0 note=69 velocity=89 time=3
 i : 0the msg is note_on channel=0 note=62 velocity=100 time=3
 i : 0the msg is note_on channel=0 note=69 velocity=0 time=1326
 i : 0the msg is note_on channel=0 note=65 velocity=0 time=9
 i : 0the msg is note_on channel=0 note=62 velocity=0 time=1
 i : 0the msg is note_on channel=0 note=62 velocity=71 time=84
 i : 0the msg is note_on channel=0 note=65 velocity=77 time=1
 i : 0the msg is note_on channel=0 note=69 velocity=66 time=7
 i : 0the msg is note_on channel=0 note=62 velocity=0 time=85
 i : 0the msg is note_on channel=0 note=65 velocity=0 time=7
 i : 0the msg is note_on channel=0 note=69 velocity=0 time=4
 i : 0the msg is note_on channel=0 note=62 velocity=103 time=164
 i : 0the msg is note_on channel=0 note=65 velocity=108 time=1
 i : 0the msg is note_on channel=0 note=69 velocity=91 time=1
 i : 0the msg is note_on channel=0 note=69 velocity=0 time=333
 i : 0the msg is note_on channel=0 note=62 velocity=0 time=10
 i : 0the msg is note_on channel=0 note=65 velocity=0 time=9
 i : 0the msg is note_on channel=0 note=59 velocity=100 time=116
 i : 0the msg is note_on channel=0 note=62 velocity=113 time=2
 i : 0the msg is note_on channel=0 note=67 velocity=89 time=1
 i : 0the msg is note_on channel=0 note=59 velocity=0 time=797
 i : 0the msg is note_on channel=0 note=67 velocity=0 time=18
 i : 0the msg is note_on channel=0 note=62 velocity=0 time=2
 i : 0the msg is note_on channel=0 note=67 velocity=66 time=154
 i : 0the msg is note_on channel=0 note=62 velocity=86 time=1
 i : 0the msg is note_on channel=0 note=59 velocity=67 time=2
 i : 0the msg is note_on channel=0 note=62 velocity=0 time=59
 i : 0the msg is note_on channel=0 note=59 velocity=0 time=1
 i : 0the msg is note_on channel=0 note=67 velocity=0 time=1
 i : 0the msg is note_on channel=0 note=59 velocity=71 time=172
 i : 0the msg is note_on channel=0 note=62 velocity=96 time=0
 i : 0the msg is note_on channel=0 note=67 velocity=85 time=2
 i : 0the msg is note_on channel=0 note=62 velocity=0 time=165
 i : 0the msg is note_on channel=0 note=67 velocity=0 time=1
 i : 0the msg is note_on channel=0 note=59 velocity=0 time=0
 i : 0the msg is note_on channel=0 note=62 velocity=100 time=307
 i : 0the msg is note_on channel=0 note=59 velocity=80 time=1
 i : 0the msg is note_on channel=0 note=67 velocity=83 time=1
 i : 0the msg is note_on channel=0 note=59 velocity=0 time=1083
 i : 0the msg is note_on channel=0 note=62 velocity=0 time=36
 i : 0the msg is note_on channel=0 note=67 velocity=0 time=25
 i : 0the msg is note_on channel=0 note=67 velocity=25 time=33
 i : 0the msg is note_on channel=0 note=62 velocity=48 time=12
 i : 0the msg is note_on channel=0 note=59 velocity=22 time=11
 i : 0the msg is note_on channel=0 note=59 velocity=0 time=59
 i : 0the msg is note_on channel=0 note=67 velocity=0 time=7
 i : 0the msg is note_on channel=0 note=62 velocity=0 time=1
 i : 0the msg is note_on channel=0 note=62 velocity=93 time=168
 i : 0the msg is note_on channel=0 note=59 velocity=68 time=1
 i : 0the msg is note_on channel=0 note=67 velocity=75 time=1
 i : 0the msg is note_on channel=0 note=59 velocity=0 time=70
 i : 0the msg is note_on channel=0 note=62 velocity=0 time=9
 i : 0the msg is note_on channel=0 note=67 velocity=0 time=6
 i : 0the msg is note_on channel=0 note=62 velocity=83 time=140
 i : 0the msg is note_on channel=0 note=59 velocity=64 time=1
 i : 0the msg is note_on channel=0 note=67 velocity=72 time=0
 i : 0the msg is note_on channel=0 note=59 velocity=0 time=260
 i : 0the msg is note_on channel=0 note=62 velocity=0 time=28
 i : 0the msg is note_on channel=0 note=67 velocity=0 time=22
 i : 0the msg is note_on channel=0 note=62 velocity=103 time=177
 i : 0the msg is note_on channel=0 note=69 velocity=93 time=1
 i : 0the msg is note_on channel=0 note=65 velocity=103 time=2
 i : 0the msg is note_on channel=0 note=62 velocity=0 time=822
 i : 0the msg is note_on channel=0 note=65 velocity=0 time=16
 i : 0the msg is note_on channel=0 note=69 velocity=0 time=13
 i : 0the msg is note_on channel=0 note=65 velocity=62 time=115
 i : 0the msg is note_on channel=0 note=69 velocity=68 time=0
 i : 0the msg is note_on channel=0 note=62 velocity=60 time=4
 i : 0the msg is note_on channel=0 note=62 velocity=0 time=85
 i : 0the msg is note_on channel=0 note=65 velocity=0 time=13
 i : 0the msg is note_on channel=0 note=69 velocity=0 time=4
 i : 0the msg is note_on channel=0 note=65 velocity=73 time=131
 i : 0the msg is note_on channel=0 note=69 velocity=85 time=3
 i : 0the msg is note_on channel=0 note=72 velocity=86 time=0
 i : 0the msg is note_on channel=0 note=72 velocity=0 time=128
 i : 0the msg is note_on channel=0 note=65 velocity=0 time=12
 i : 0the msg is note_on channel=0 note=69 velocity=0 time=3
 i : 0the msg is note_on channel=0 note=65 velocity=89 time=317
 i : 0the msg is note_on channel=0 note=62 velocity=91 time=2
 i : 0the msg is note_on channel=0 note=69 velocity=83 time=1
 i : 0the msg is note_on channel=0 note=69 velocity=0 time=1311
 i : 0the msg is note_on channel=0 note=65 velocity=0 time=10
 i : 0the msg is note_on channel=0 note=62 velocity=0 time=5
 i : 0the msg is note_on channel=0 note=65 velocity=77 time=128
 i : 0the msg is note_on channel=0 note=62 velocity=69 time=1
 i : 0the msg is note_on channel=0 note=69 velocity=69 time=2
 i : 0the msg is note_on channel=0 note=62 velocity=0 time=83
 i : 0the msg is note_on channel=0 note=69 velocity=0 time=3
 i : 0the msg is note_on channel=0 note=65 velocity=0 time=2
 i : 0the msg is note_on channel=0 note=65 velocity=96 time=152
 i : 0the msg is note_on channel=0 note=69 velocity=85 time=1
 i : 0the msg is note_on channel=0 note=62 velocity=89 time=1
 i : 0the msg is note_on channel=0 note=65 velocity=0 time=267
 i : 0the msg is note_on channel=0 note=69 velocity=0 time=9
 i : 0the msg is note_on channel=0 note=62 velocity=0 time=18
 i : 0the msg is note_on channel=0 note=59 velocity=86 time=190
 i : 0the msg is note_on channel=0 note=62 velocity=106 time=2
 i : 0the msg is note_on channel=0 note=67 velocity=93 time=3
 i : 0the msg is note_on channel=0 note=67 velocity=0 time=810
 i : 0the msg is note_on channel=0 note=62 velocity=0 time=1
 i : 0the msg is note_on channel=0 note=59 velocity=0 time=3
 i : 0the msg is note_on channel=0 note=67 velocity=60 time=111
 i : 0the msg is note_on channel=0 note=62 velocity=64 time=6
 i : 0the msg is note_on channel=0 note=59 velocity=28 time=19
 i : 0the msg is note_on channel=0 note=59 velocity=0 time=55
 i : 0the msg is note_on channel=0 note=62 velocity=0 time=0
 i : 0the msg is note_on channel=0 note=67 velocity=0 time=0
 i : 0the msg is note_on channel=0 note=59 velocity=80 time=174
 i : 0the msg is note_on channel=0 note=62 velocity=100 time=0
 i : 0the msg is note_on channel=0 note=67 velocity=86 time=4
 i : 0the msg is note_on channel=0 note=62 velocity=0 time=152
 i : 0the msg is note_on channel=0 note=59 velocity=0 time=1
 i : 0the msg is note_on channel=0 note=67 velocity=0 time=3
 i : 0the msg is note_on channel=0 note=62 velocity=89 time=320
 i : 0the msg is note_on channel=0 note=59 velocity=64 time=4
 i : 0the msg is note_on channel=0 note=67 velocity=78 time=3
 i : 0the msg is note_on channel=0 note=59 velocity=0 time=839
 i : 0the msg is note_on channel=0 note=67 velocity=0 time=2
 i : 0the msg is note_on channel=0 note=62 velocity=0 time=14
 i : 0the msg is note_on channel=0 note=62 velocity=78 time=132
 i : 0the msg is note_on channel=0 note=67 velocity=70 time=1
 i : 0the msg is note_on channel=0 note=59 velocity=53 time=6
 i : 0the msg is note_on channel=0 note=62 velocity=0 time=77
 i : 0the msg is note_on channel=0 note=67 velocity=0 time=2
 i : 0the msg is note_on channel=0 note=59 velocity=0 time=3
 i : 0the msg is note_on channel=0 note=62 velocity=57 time=153
 i : 0the msg is note_on channel=0 note=67 velocity=48 time=4
 i : 0the msg is note_on channel=0 note=59 velocity=32 time=2
 i : 0the msg is note_on channel=0 note=62 velocity=0 time=53
 i : 0the msg is note_on channel=0 note=59 velocity=0 time=5
 i : 0the msg is note_on channel=0 note=67 velocity=0 time=0
 i : 0the msg is note_on channel=0 note=62 velocity=96 time=180
 i : 0the msg is note_on channel=0 note=67 velocity=77 time=0
 i : 0the msg is note_on channel=0 note=59 velocity=73 time=2
 i : 0the msg is note_on channel=0 note=62 velocity=0 time=96
 i : 0the msg is note_on channel=0 note=59 velocity=0 time=8
 i : 0the msg is note_on channel=0 note=67 velocity=0 time=0
 i : 0the msg is note_on channel=0 note=62 velocity=96 time=116
 i : 0the msg is note_on channel=0 note=67 velocity=80 time=0
 i : 0the msg is note_on channel=0 note=59 velocity=77 time=1
 i : 0the msg is note_on channel=0 note=59 velocity=0 time=290
 i : 0the msg is note_on channel=0 note=62 velocity=0 time=28
 i : 0the msg is note_on channel=0 note=67 velocity=0 time=13
 i : 0the msg is note_on channel=0 note=69 velocity=98 time=150
 i : 0the msg is note_on channel=0 note=65 velocity=96 time=1
 i : 0the msg is note_on channel=0 note=62 velocity=93 time=1
 i : 0the msg is note_on channel=0 note=62 velocity=0 time=858
 i : 0the msg is note_on channel=0 note=69 velocity=0 time=3
 i : 0the msg is note_on channel=0 note=65 velocity=0 time=8
 i : 0the msg is note_on channel=0 note=65 velocity=65 time=93
 i : 0the msg is note_on channel=0 note=62 velocity=70 time=3
 i : 0the msg is note_on channel=0 note=69 velocity=62 time=1
 i : 0the msg is note_on channel=0 note=65 velocity=0 time=103
 i : 0the msg is note_on channel=0 note=62 velocity=0 time=1
 i : 0the msg is note_on channel=0 note=69 velocity=0 time=5
 i : 0the msg is note_on channel=0 note=65 velocity=80 time=116
 i : 0the msg is note_on channel=0 note=69 velocity=85 time=1
 i : 0the msg is note_on channel=0 note=72 velocity=96 time=1
 i : 0the msg is note_on channel=0 note=72 velocity=0 time=129
 i : 0the msg is note_on channel=0 note=69 velocity=0 time=14
 i : 0the msg is note_on channel=0 note=65 velocity=0 time=7
 i : 0the msg is note_on channel=0 note=65 velocity=91 time=318
 i : 0the msg is note_on channel=0 note=62 velocity=86 time=1
 i : 0the msg is note_on channel=0 note=69 velocity=89 time=1
 i : 0the msg is note_on channel=0 note=62 velocity=0 time=833
 i : 0the msg is note_on channel=0 note=69 velocity=0 time=11
 i : 0the msg is note_on channel=0 note=65 velocity=0 time=8
 i : 0the msg is note_on channel=0 note=65 velocity=46 time=116
 i : 0the msg is note_on channel=0 note=69 velocity=59 time=3
 i : 0the msg is note_on channel=0 note=62 velocity=46 time=8
 i : 0the msg is note_on channel=0 note=62 velocity=0 time=63
 i : 0the msg is note_on channel=0 note=69 velocity=0 time=4
 i : 0the msg is note_on channel=0 note=65 velocity=0 time=0
 i : 0the msg is note_on channel=0 note=62 velocity=48 time=148
 i : 0the msg is note_on channel=0 note=65 velocity=43 time=3
 i : 0the msg is note_on channel=0 note=69 velocity=60 time=0
 i : 0the msg is note_on channel=0 note=62 velocity=0 time=70
 i : 0the msg is note_on channel=0 note=65 velocity=0 time=14
 i : 0the msg is note_on channel=0 note=69 velocity=0 time=5
 i : 0the msg is note_on channel=0 note=69 velocity=82 time=135
 i : 0the msg is note_on channel=0 note=65 velocity=80 time=1
 i : 0the msg is note_on channel=0 note=72 velocity=91 time=7
 i : 0the msg is note_on channel=0 note=65 velocity=0 time=102
 i : 0the msg is note_on channel=0 note=72 velocity=0 time=1
 i : 0the msg is note_on channel=0 note=69 velocity=0 time=8
 i : 0the msg is note_on channel=0 note=62 velocity=89 time=147
 i : 0the msg is note_on channel=0 note=67 velocity=98 time=2
 i : 0the msg is note_on channel=0 note=71 velocity=100 time=0
 i : 0the msg is note_on channel=0 note=67 velocity=0 time=374
 i : 0the msg is note_on channel=0 note=62 velocity=0 time=4
 i : 0the msg is note_on channel=0 note=71 velocity=0 time=22
 i : 0the msg is note_on channel=0 note=62 velocity=80 time=96
 i : 0the msg is note_on channel=0 note=69 velocity=83 time=4
 i : 0the msg is note_on channel=0 note=65 velocity=93 time=5
 i : 0the msg is note_on channel=0 note=62 velocity=0 time=789
 i : 0the msg is note_on channel=0 note=65 velocity=0 time=6
 i : 0the msg is note_on channel=0 note=69 velocity=0 time=5
 i : 0the msg is note_on channel=0 note=69 velocity=72 time=112
 i : 0the msg is note_on channel=0 note=65 velocity=65 time=4
 i : 0the msg is note_on channel=0 note=62 velocity=61 time=5
 i : 0the msg is note_on channel=0 note=62 velocity=0 time=72
 i : 0the msg is note_on channel=0 note=65 velocity=0 time=6
 i : 0the msg is note_on channel=0 note=69 velocity=0 time=16
 i : 0the msg is note_on channel=0 note=69 velocity=82 time=141
 i : 0the msg is note_on channel=0 note=72 velocity=96 time=0
 i : 0the msg is note_on channel=0 note=65 velocity=93 time=1
 i : 0the msg is note_on channel=0 note=72 velocity=0 time=126
 i : 0the msg is note_on channel=0 note=69 velocity=0 time=4
 i : 0the msg is note_on channel=0 note=65 velocity=0 time=6
 i : 0the msg is note_on channel=0 note=65 velocity=98 time=364
 i : 0the msg is note_on channel=0 note=69 velocity=91 time=1
 i : 0the msg is note_on channel=0 note=62 velocity=89 time=1
 i : 0the msg is note_on channel=0 note=62 velocity=0 time=847
 i : 0the msg is note_on channel=0 note=69 velocity=0 time=15
 i : 0the msg is note_on channel=0 note=65 velocity=0 time=9
 i : 0the msg is note_on channel=0 note=65 velocity=51 time=91
 i : 0the msg is note_on channel=0 note=69 velocity=54 time=1
 i : 0the msg is note_on channel=0 note=62 velocity=53 time=12
 i : 0the msg is note_on channel=0 note=62 velocity=0 time=55
 i : 0the msg is note_on channel=0 note=65 velocity=0 time=17
 i : 0the msg is note_on channel=0 note=69 velocity=0 time=1
 i : 0the msg is note_on channel=0 note=65 velocity=51 time=132
 i : 0the msg is note_on channel=0 note=69 velocity=60 time=1
 i : 0the msg is note_on channel=0 note=62 velocity=48 time=12
 i : 0the msg is note_on channel=0 note=62 velocity=0 time=55
 i : 0the msg is note_on channel=0 note=65 velocity=0 time=24
 i : 0the msg is note_on channel=0 note=69 velocity=0 time=5
 i : 0the msg is note_on channel=0 note=65 velocity=82 time=127
 i : 0the msg is note_on channel=0 note=69 velocity=78 time=0
 i : 0the msg is note_on channel=0 note=72 velocity=80 time=4
 i : 0the msg is note_on channel=0 note=72 velocity=0 time=112
 i : 0the msg is note_on channel=0 note=65 velocity=0 time=1
 i : 0the msg is note_on channel=0 note=69 velocity=0 time=1
 i : 0the msg is note_on channel=0 note=67 velocity=89 time=153
 i : 0the msg is note_on channel=0 note=62 velocity=91 time=1
 i : 0the msg is note_on channel=0 note=71 velocity=86 time=0
 i : 0the msg is note_on channel=0 note=62 velocity=0 time=320
 i : 0the msg is note_on channel=0 note=67 velocity=0 time=16
 i : 0the msg is note_on channel=0 note=71 velocity=0 time=16
 i : 0the msg is note_on channel=0 note=62 velocity=75 time=122
 i : 0the msg is note_on channel=0 note=65 velocity=91 time=2
 i : 0the msg is note_on channel=0 note=69 velocity=86 time=2
 i : 0the msg is note_on channel=0 note=62 velocity=0 time=829
 i : 0the msg is note_on channel=0 note=69 velocity=0 time=16
 i : 0the msg is note_on channel=0 note=65 velocity=0 time=1
 i : 0the msg is note_on channel=0 note=65 velocity=62 time=97
 i : 0the msg is note_on channel=0 note=69 velocity=65 time=2
 i : 0the msg is note_on channel=0 note=62 velocity=61 time=5
 i : 0the msg is note_on channel=0 note=62 velocity=0 time=82
 i : 0the msg is note_on channel=0 note=65 velocity=0 time=8
 i : 0the msg is note_on channel=0 note=69 velocity=0 time=5
 i : 0the msg is note_on channel=0 note=65 velocity=73 time=122
 i : 0the msg is note_on channel=0 note=69 velocity=77 time=0
 i : 0the msg is note_on channel=0 note=72 velocity=85 time=4
 i : 0the msg is note_on channel=0 note=72 velocity=0 time=114
 i : 0the msg is note_on channel=0 note=69 velocity=0 time=29
 i : 0the msg is note_on channel=0 note=65 velocity=0 time=8
 i : 0the msg is note_on channel=0 note=65 velocity=93 time=341
 i : 0the msg is note_on channel=0 note=69 velocity=89 time=1
 i : 0the msg is note_on channel=0 note=62 velocity=86 time=2
 i : 0the msg is note_on channel=0 note=62 velocity=0 time=824
 i : 0the msg is note_on channel=0 note=69 velocity=0 time=10
 i : 0the msg is note_on channel=0 note=65 velocity=0 time=2
 i : 0the msg is note_on channel=0 note=69 velocity=66 time=109
 i : 0the msg is note_on channel=0 note=65 velocity=56 time=1
 i : 0the msg is note_on channel=0 note=62 velocity=60 time=13
 i : 0the msg is note_on channel=0 note=62 velocity=0 time=69
 i : 0the msg is note_on channel=0 note=65 velocity=0 time=8
 i : 0the msg is note_on channel=0 note=69 velocity=0 time=2
 i : 0the msg is note_on channel=0 note=65 velocity=56 time=154
 i : 0the msg is note_on channel=0 note=69 velocity=64 time=0
 i : 0the msg is note_on channel=0 note=62 velocity=52 time=9
 i : 0the msg is note_on channel=0 note=62 velocity=0 time=51
 i : 0the msg is note_on channel=0 note=69 velocity=0 time=32
 i : 0the msg is note_on channel=0 note=65 velocity=0 time=0
 i : 0the msg is note_on channel=0 note=65 velocity=85 time=144
 i : 0the msg is note_on channel=0 note=69 velocity=75 time=3
 i : 0the msg is note_on channel=0 note=72 velocity=85 time=0
 i : 0the msg is note_on channel=0 note=72 velocity=0 time=101
 i : 0the msg is note_on channel=0 note=69 velocity=0 time=7
 i : 0the msg is note_on channel=0 note=65 velocity=0 time=9
 i : 0the msg is note_on channel=0 note=62 velocity=89 time=145
 i : 0the msg is note_on channel=0 note=67 velocity=91 time=0
 i : 0the msg is note_on channel=0 note=71 velocity=89 time=3
 i : 0the msg is note_on channel=0 note=62 velocity=0 time=316
 i : 0the msg is note_on channel=0 note=67 velocity=0 time=29
 i : 0the msg is note_on channel=0 note=71 velocity=0 time=26
 i : 0the msg is note_on channel=0 note=62 velocity=91 time=112
 i : 0the msg is note_on channel=0 note=69 velocity=89 time=1
 i : 0the msg is note_on channel=0 note=65 velocity=96 time=1
 i : 0the msg is note_on channel=0 note=62 velocity=0 time=807
 i : 0the msg is note_on channel=0 note=65 velocity=0 time=15
 i : 0the msg is note_on channel=0 note=69 velocity=0 time=3
 i : 0the msg is note_on channel=0 note=69 velocity=65 time=129
 i : 0the msg is note_on channel=0 note=65 velocity=60 time=1
 i : 0the msg is note_on channel=0 note=62 velocity=58 time=10
 i : 0the msg is note_on channel=0 note=62 velocity=0 time=59
 i : 0the msg is note_on channel=0 note=65 velocity=0 time=17
 i : 0the msg is note_on channel=0 note=69 velocity=0 time=8
 i : 0the msg is note_on channel=0 note=65 velocity=83 time=136
 i : 0the msg is note_on channel=0 note=69 velocity=75 time=2
 i : 0the msg is note_on channel=0 note=72 velocity=86 time=0
 i : 0the msg is note_on channel=0 note=72 velocity=0 time=123
 i : 0the msg is note_on channel=0 note=69 velocity=0 time=9
 i : 0the msg is note_on channel=0 note=65 velocity=0 time=11
 i : 0the msg is note_on channel=0 note=65 velocity=89 time=309
 i : 0the msg is note_on channel=0 note=69 velocity=83 time=1
 i : 0the msg is note_on channel=0 note=62 velocity=82 time=1
 i : 0the msg is note_on channel=0 note=62 velocity=0 time=833
 i : 0the msg is note_on channel=0 note=69 velocity=0 time=9
 i : 0the msg is note_on channel=0 note=65 velocity=0 time=4
 i : 0the msg is note_on channel=0 note=65 velocity=48 time=132
 i : 0the msg is note_on channel=0 note=69 velocity=52 time=5
 i : 0the msg is note_on channel=0 note=62 velocity=53 time=4
 i : 0the msg is note_on channel=0 note=69 velocity=0 time=69
 i : 0the msg is note_on channel=0 note=62 velocity=0 time=2
 i : 0the msg is note_on channel=0 note=65 velocity=0 time=0
 i : 0the msg is note_on channel=0 note=65 velocity=56 time=153
 i : 0the msg is note_on channel=0 note=69 velocity=60 time=7
 i : 0the msg is note_on channel=0 note=62 velocity=48 time=4
 i : 0the msg is note_on channel=0 note=62 velocity=0 time=47
 i : 0the msg is note_on channel=0 note=65 velocity=0 time=35
 i : 0the msg is note_on channel=0 note=69 velocity=0 time=6
 i : 0the msg is note_on channel=0 note=65 velocity=80 time=132
 i : 0the msg is note_on channel=0 note=69 velocity=77 time=3
 i : 0the msg is note_on channel=0 note=72 velocity=86 time=2
 i : 0the msg is note_on channel=0 note=72 velocity=0 time=102
 i : 0the msg is note_on channel=0 note=69 velocity=0 time=15
 i : 0the msg is note_on channel=0 note=65 velocity=0 time=9
 i : 0the msg is note_on channel=0 note=62 velocity=93 time=132
 i : 0the msg is note_on channel=0 note=67 velocity=96 time=0
 i : 0the msg is note_on channel=0 note=71 velocity=96 time=3
 i : 0the msg is note_on channel=0 note=62 velocity=0 time=346
 i : 0the msg is note_on channel=0 note=67 velocity=0 time=9
 i : 0the msg is note_on channel=0 note=71 velocity=0 time=26
 i : 0the msg is note_on channel=0 note=62 velocity=85 time=98
 i : 0the msg is note_on channel=0 note=65 velocity=89 time=0
 i : 0the msg is note_on channel=0 note=69 velocity=78 time=2
 i : 0the msg is note_on channel=0 note=69 velocity=0 time=751
 i : 0the msg is note_on channel=0 note=65 velocity=0 time=4
 i : 0the msg is note_on channel=0 note=62 velocity=0 time=10
 i : 0the msg is note_on channel=0 note=69 velocity=80 time=181
 i : 0the msg is note_on channel=0 note=65 velocity=82 time=3
 i : 0the msg is note_on channel=0 note=62 velocity=85 time=6
 i : 0the msg is note_on channel=0 note=62 velocity=0 time=167
 i : 0the msg is note_on channel=0 note=65 velocity=0 time=8
 i : 0the msg is note_on channel=0 note=69 velocity=0 time=24
 i : 0the msg is note_on channel=0 note=72 velocity=89 time=36
 i : 0the msg is note_on channel=0 note=65 velocity=93 time=4
 i : 0the msg is note_on channel=0 note=69 velocity=89 time=3
 i : 0the msg is note_on channel=0 note=72 velocity=0 time=130
 i : 0the msg is note_on channel=0 note=65 velocity=0 time=20
 i : 0the msg is note_on channel=0 note=69 velocity=0 time=1
 i : 0the msg is note_on channel=0 note=65 velocity=85 time=301
 i : 0the msg is note_on channel=0 note=69 velocity=75 time=1
 i : 0the msg is note_on channel=0 note=62 velocity=85 time=8
 i : 0the msg is note_on channel=0 note=69 velocity=0 time=1990
 i : 0the msg is note_on channel=0 note=62 velocity=0 time=9
 i : 0the msg is note_on channel=0 note=65 velocity=0 time=3
 i : 0the msg is note_on channel=0 note=64 velocity=83 time=183
 i : 0the msg is note_on channel=0 note=61 velocity=75 time=2
 i : 0the msg is note_on channel=0 note=69 velocity=83 time=0
 i : 0the msg is note_on channel=0 note=61 velocity=0 time=830
 i : 0the msg is note_on channel=0 note=69 velocity=0 time=11
 i : 0the msg is note_on channel=0 note=64 velocity=0 time=7
 i : 0the msg is note_on channel=0 note=64 velocity=65 time=100
 i : 0the msg is note_on channel=0 note=61 velocity=70 time=4
 i : 0the msg is note_on channel=0 note=69 velocity=54 time=7
 i : 0the msg is note_on channel=0 note=61 velocity=0 time=57
 i : 0the msg is note_on channel=0 note=69 velocity=0 time=20
 i : 0the msg is note_on channel=0 note=64 velocity=0 time=0
 i : 0the msg is note_on channel=0 note=64 velocity=103 time=143
 i : 0the msg is note_on channel=0 note=61 velocity=104 time=1
 i : 0the msg is note_on channel=0 note=69 velocity=98 time=4
 i : 0the msg is note_on channel=0 note=69 velocity=0 time=135
 i : 0the msg is note_on channel=0 note=61 velocity=0 time=8
 i : 0the msg is note_on channel=0 note=64 velocity=0 time=4
 i : 0the msg is note_on channel=0 note=67 velocity=98 time=319
 i : 0the msg is note_on channel=0 note=59 velocity=85 time=6
 i : 0the msg is note_on channel=0 note=62 velocity=113 time=1
 i : 0the msg is note_on channel=0 note=67 velocity=0 time=1889
 i : 0the msg is note_on channel=0 note=59 velocity=0 time=60
 i : 0the msg is note_on channel=0 note=62 velocity=0 time=44
 i : 0the msg is note_on channel=0 note=69 velocity=96 time=194
 i : 0the msg is note_on channel=0 note=62 velocity=98 time=6
 i : 0the msg is note_on channel=0 note=65 velocity=98 time=0
 i : 0the msg is note_on channel=0 note=69 velocity=0 time=910
 i : 0the msg is note_on channel=0 note=65 velocity=0 time=4
 i : 0the msg is note_on channel=0 note=62 velocity=0 time=0
 i : 0the msg is note_on channel=0 note=65 velocity=56 time=64
 i : 0the msg is note_on channel=0 note=69 velocity=62 time=0
 i : 0the msg is note_on channel=0 note=62 velocity=53 time=2
 i : 0the msg is note_on channel=0 note=62 velocity=0 time=68
 i : 0the msg is note_on channel=0 note=65 velocity=0 time=14
 i : 0the msg is note_on channel=0 note=69 velocity=0 time=18
 i : 0the msg is note_on channel=0 note=72 velocity=86 time=83
 i : 0the msg is note_on channel=0 note=65 velocity=83 time=3
 i : 0the msg is note_on channel=0 note=69 velocity=78 time=2
 i : 0the msg is note_on channel=0 note=72 velocity=0 time=138
 i : 0the msg is note_on channel=0 note=69 velocity=0 time=18
 i : 0the msg is note_on channel=0 note=65 velocity=0 time=13
 i : 0the msg is note_on channel=0 note=65 velocity=93 time=321
 i : 0the msg is note_on channel=0 note=69 velocity=93 time=4
 i : 0the msg is note_on channel=0 note=62 velocity=93 time=1
 i : 0the msg is note_on channel=0 note=62 velocity=0 time=1925
 i : 0the msg is note_on channel=0 note=65 velocity=0 time=26
 i : 0the msg is note_on channel=0 note=69 velocity=0 time=4
 i : 0the msg is note_on channel=0 note=69 velocity=89 time=207
 i : 0the msg is note_on channel=0 note=61 velocity=76 time=9
 i : 0the msg is note_on channel=0 note=64 velocity=98 time=0
 i : 0the msg is note_on channel=0 note=61 velocity=0 time=866
 i : 0the msg is note_on channel=0 note=69 velocity=0 time=4
 i : 0the msg is note_on channel=0 note=64 velocity=0 time=1
 i : 0the msg is note_on channel=0 note=69 velocity=48 time=70
 i : 0the msg is note_on channel=0 note=64 velocity=61 time=1
 i : 0the msg is note_on channel=0 note=61 velocity=56 time=4
 i : 0the msg is note_on channel=0 note=61 velocity=0 time=63
 i : 0the msg is note_on channel=0 note=64 velocity=0 time=23
 i : 0the msg is note_on channel=0 note=69 velocity=0 time=0
 i : 0the msg is note_on channel=0 note=61 velocity=78 time=137
 i : 0the msg is note_on channel=0 note=64 velocity=89 time=1
 i : 0the msg is note_on channel=0 note=69 velocity=93 time=2
 i : 0the msg is note_on channel=0 note=69 velocity=0 time=134
 i : 0the msg is note_on channel=0 note=64 velocity=0 time=10
 i : 0the msg is note_on channel=0 note=61 velocity=0 time=9
 i : 0the msg is note_on channel=0 note=67 velocity=96 time=321
 i : 0the msg is note_on channel=0 note=59 velocity=80 time=2
 i : 0the msg is note_on channel=0 note=62 velocity=108 time=1
 i : 0the msg is note_on channel=0 note=62 velocity=0 time=2187
 i : 0the msg is note_on channel=0 note=59 velocity=0 time=24
 i : 0the msg is note_on channel=0 note=66 velocity=79 time=197
 i : 0the msg is note_on channel=0 note=62 velocity=98 time=7
 i : 0the msg is note_on channel=0 note=57 velocity=96 time=2
 i : 0the msg is note_on channel=0 note=67 velocity=0 time=20
 i : 0the msg is note_on channel=0 note=57 velocity=0 time=350
 i : 0the msg is note_on channel=0 note=66 velocity=0 time=6
 i : 0the msg is note_on channel=0 note=62 velocity=0 time=12
 i : 0the msg is note_on channel=0 note=66 velocity=78 time=88
 i : 0the msg is note_on channel=0 note=62 velocity=89 time=2
 i : 0the msg is note_on channel=0 note=57 velocity=65 time=2
 i : 0the msg is note_on channel=0 note=66 velocity=0 time=118
 i : 0the msg is note_on channel=0 note=57 velocity=0 time=8
 i : 0the msg is note_on channel=0 note=62 velocity=0 time=1
 i : 0the msg is note_on channel=0 note=62 velocity=78 time=111
 i : 0the msg is note_on channel=0 note=66 velocity=68 time=2
 i : 0the msg is note_on channel=0 note=57 velocity=54 time=6
 i : 0the msg is note_on channel=0 note=57 velocity=0 time=56
 i : 0the msg is note_on channel=0 note=66 velocity=0 time=4
 i : 0the msg is note_on channel=0 note=62 velocity=0 time=4
 i : 0the msg is note_on channel=0 note=62 velocity=93 time=152
 i : 0the msg is note_on channel=0 note=66 velocity=89 time=3
 i : 0the msg is note_on channel=0 note=57 velocity=70 time=1
 i : 0the msg is note_on channel=0 note=57 velocity=0 time=72
 i : 0the msg is note_on channel=0 note=66 velocity=0 time=7
 i : 0the msg is note_on channel=0 note=62 velocity=0 time=2
 i : 0the msg is note_on channel=0 note=66 velocity=79 time=160
 i : 0the msg is note_on channel=0 note=62 velocity=89 time=2
 i : 0the msg is note_on channel=0 note=57 velocity=71 time=2
 i : 0the msg is note_on channel=0 note=62 velocity=0 time=79
 i : 0the msg is note_on channel=0 note=66 velocity=0 time=2
 i : 0the msg is note_on channel=0 note=57 velocity=0 time=1
 i : 0the msg is note_on channel=0 note=59 velocity=91 time=622
 i : 0the msg is note_on channel=0 note=62 velocity=111 time=1
 i : 0the msg is note_on channel=0 note=67 velocity=98 time=0
 i : 0the msg is note_on channel=0 note=59 velocity=0 time=110
 i : 0the msg is note_on channel=0 note=62 velocity=0 time=4
 i : 0the msg is note_on channel=0 note=67 velocity=0 time=3
 i : 0the msg is note_on channel=0 note=59 velocity=86 time=133
 i : 0the msg is note_on channel=0 note=67 velocity=96 time=1
 i : 0the msg is note_on channel=0 note=62 velocity=103 time=1
 i : 0the msg is note_on channel=0 note=67 velocity=0 time=242
 i : 0the msg is note_on channel=0 note=59 velocity=0 time=5
 i : 0the msg is note_on channel=0 note=62 velocity=0 time=4
 i : 0the msg is note_on channel=0 note=59 velocity=86 time=211
 i : 0the msg is note_on channel=0 note=62 velocity=100 time=0
 i : 0the msg is note_on channel=0 note=67 velocity=89 time=2
 i : 0the msg is note_on channel=0 note=62 velocity=0 time=950
 i : 0the msg is note_on channel=0 note=59 velocity=0 time=27
 i : 0the msg is note_on channel=0 note=66 velocity=84 time=230
 i : 0the msg is note_on channel=0 note=62 velocity=96 time=7
 i : 0the msg is note_on channel=0 note=57 velocity=91 time=2
 i : 0the msg is note_on channel=0 note=67 velocity=0 time=28
 i : 0the msg is note_on channel=0 note=57 velocity=0 time=386
 i : 0the msg is note_on channel=0 note=66 velocity=0 time=11
 i : 0the msg is note_on channel=0 note=62 velocity=0 time=5
 i : 0the msg is note_on channel=0 note=62 velocity=93 time=47
 i : 0the msg is note_on channel=0 note=66 velocity=100 time=1
 i : 0the msg is note_on channel=0 note=57 velocity=72 time=3
 i : 0the msg is note_on channel=0 note=57 velocity=0 time=144
 i : 0the msg is note_on channel=0 note=66 velocity=0 time=0
 i : 0the msg is note_on channel=0 note=62 velocity=0 time=6
 i : 0the msg is note_on channel=0 note=62 velocity=86 time=91
 i : 0the msg is note_on channel=0 note=66 velocity=68 time=0
 i : 0the msg is note_on channel=0 note=57 velocity=60 time=7
 i : 0the msg is note_on channel=0 note=57 velocity=0 time=67
 i : 0the msg is note_on channel=0 note=62 velocity=0 time=14
 i : 0the msg is note_on channel=0 note=66 velocity=0 time=1
 i : 0the msg is note_on channel=0 note=57 velocity=75 time=131
 i : 0the msg is note_on channel=0 note=62 velocity=96 time=0
 i : 0the msg is note_on channel=0 note=66 velocity=92 time=0
 i : 0the msg is note_on channel=0 note=57 velocity=0 time=87
 i : 0the msg is note_on channel=0 note=62 velocity=0 time=11
 i : 0the msg is note_on channel=0 note=66 velocity=0 time=1
 i : 0the msg is note_on channel=0 note=66 velocity=94 time=164
 i : 0the msg is note_on channel=0 note=62 velocity=96 time=3
 i : 0the msg is note_on channel=0 note=57 velocity=78 time=2
 i : 0the msg is note_on channel=0 note=62 velocity=0 time=539
 i : 0the msg is note_on channel=0 note=57 velocity=0 time=4
 i : 0the msg is note_on channel=0 note=66 velocity=0 time=49
 i : 0the msg is note_on channel=0 note=62 velocity=72 time=100
 i : 0the msg is note_on channel=0 note=67 velocity=86 time=0
 i : 0the msg is note_on channel=0 note=59 velocity=67 time=4
 i : 0the msg is note_on channel=0 note=62 velocity=0 time=98
 i : 0the msg is note_on channel=0 note=59 velocity=0 time=3
 i : 0the msg is note_on channel=0 note=67 velocity=0 time=11
 i : 0the msg is note_on channel=0 note=62 velocity=93 time=146
 i : 0the msg is note_on channel=0 note=67 velocity=91 time=0
 i : 0the msg is note_on channel=0 note=59 velocity=58 time=2
 i : 0the msg is note_on channel=0 note=59 velocity=0 time=325
 i : 0the msg is note_on channel=0 note=67 velocity=0 time=10
 i : 0the msg is note_on channel=0 note=62 velocity=0 time=1
 i : 0the msg is note_on channel=0 note=59 velocity=45 time=125
 i : 0the msg is note_on channel=0 note=59 velocity=0 time=63
 i : 0the msg is note_on channel=0 note=59 velocity=85 time=182
 i : 0the msg is note_on channel=0 note=62 velocity=106 time=2
 i : 0the msg is note_on channel=0 note=67 velocity=100 time=0
 i : 0the msg is note_on channel=0 note=59 velocity=0 time=164
 i : 0the msg is note_on channel=0 note=59 velocity=44 time=89
 i : 0the msg is note_on channel=0 note=62 velocity=0 time=72
 i : 0the msg is note_on channel=0 note=59 velocity=0 time=25
 i : 0the msg is note_on channel=0 note=67 velocity=0 time=59
 i : 0the msg is note_on channel=0 note=62 velocity=89 time=73
 i : 0the msg is note_on channel=0 note=59 velocity=72 time=2
 i : 0the msg is note_on channel=0 note=67 velocity=89 time=2
 i : 0the msg is note_on channel=0 note=59 velocity=0 time=82
 i : 0the msg is note_on channel=0 note=62 velocity=0 time=24
 i : 0the msg is note_on channel=0 note=67 velocity=0 time=16
 i : 0the msg is note_on channel=0 note=62 velocity=91 time=131
 i : 0the msg is note_on channel=0 note=65 velocity=98 time=0
 i : 0the msg is note_on channel=0 note=69 velocity=98 time=4
 i : 0the msg is note_on channel=0 note=62 velocity=0 time=800
 i : 0the msg is note_on channel=0 note=65 velocity=0 time=26
 i : 0the msg is note_on channel=0 note=69 velocity=0 time=1
 i : 0the msg is note_on channel=0 note=69 velocity=60 time=145
 i : 0the msg is note_on channel=0 note=65 velocity=49 time=6
 i : 0the msg is note_on channel=0 note=62 velocity=62 time=3
 i : 0the msg is note_on channel=0 note=62 velocity=0 time=74
 i : 0the msg is note_on channel=0 note=65 velocity=0 time=8
 i : 0the msg is note_on channel=0 note=69 velocity=0 time=30
 i : 0the msg is note_on channel=0 note=72 velocity=89 time=105
 i : 0the msg is note_on channel=0 note=65 velocity=80 time=3
 i : 0the msg is note_on channel=0 note=69 velocity=91 time=7
 i : 0the msg is note_on channel=0 note=72 velocity=0 time=122
 i : 0the msg is note_on channel=0 note=69 velocity=0 time=24
 i : 0the msg is note_on channel=0 note=65 velocity=0 time=7
 i : 0the msg is note_on channel=0 note=65 velocity=93 time=306
 i : 0the msg is note_on channel=0 note=69 velocity=89 time=3
 i : 0the msg is note_on channel=0 note=62 velocity=100 time=3
 i : 0the msg is note_on channel=0 note=69 velocity=0 time=1326
 i : 0the msg is note_on channel=0 note=65 velocity=0 time=9
 i : 0the msg is note_on channel=0 note=62 velocity=0 time=1
 i : 0the msg is note_on channel=0 note=62 velocity=71 time=84
 i : 0the msg is note_on channel=0 note=65 velocity=77 time=1
 i : 0the msg is note_on channel=0 note=69 velocity=66 time=7
 i : 0the msg is note_on channel=0 note=62 velocity=0 time=85
 i : 0the msg is note_on channel=0 note=65 velocity=0 time=7
 i : 0the msg is note_on channel=0 note=69 velocity=0 time=4
 i : 0the msg is note_on channel=0 note=62 velocity=103 time=164
 i : 0the msg is note_on channel=0 note=65 velocity=108 time=1
 i : 0the msg is note_on channel=0 note=69 velocity=91 time=1
 i : 0the msg is note_on channel=0 note=69 velocity=0 time=333
 i : 0the msg is note_on channel=0 note=62 velocity=0 time=10
 i : 0the msg is note_on channel=0 note=65 velocity=0 time=9
 i : 0the msg is note_on channel=0 note=59 velocity=100 time=116
 i : 0the msg is note_on channel=0 note=62 velocity=113 time=2
 i : 0the msg is note_on channel=0 note=67 velocity=89 time=1
 i : 0the msg is note_on channel=0 note=59 velocity=0 time=797
 i : 0the msg is note_on channel=0 note=67 velocity=0 time=18
 i : 0the msg is note_on channel=0 note=62 velocity=0 time=2
 i : 0the msg is note_on channel=0 note=67 velocity=66 time=154
 i : 0the msg is note_on channel=0 note=62 velocity=86 time=1
 i : 0the msg is note_on channel=0 note=59 velocity=67 time=2
 i : 0the msg is note_on channel=0 note=62 velocity=0 time=59
 i : 0the msg is note_on channel=0 note=59 velocity=0 time=1
 i : 0the msg is note_on channel=0 note=67 velocity=0 time=1
 i : 0the msg is note_on channel=0 note=59 velocity=71 time=172
 i : 0the msg is note_on channel=0 note=62 velocity=96 time=0
 i : 0the msg is note_on channel=0 note=67 velocity=85 time=2
 i : 0the msg is note_on channel=0 note=62 velocity=0 time=165
 i : 0the msg is note_on channel=0 note=67 velocity=0 time=1
 i : 0the msg is note_on channel=0 note=59 velocity=0 time=0
 i : 0the msg is note_on channel=0 note=62 velocity=100 time=307
 i : 0the msg is note_on channel=0 note=59 velocity=80 time=1
 i : 0the msg is note_on channel=0 note=67 velocity=83 time=1
 i : 0the msg is note_on channel=0 note=59 velocity=0 time=1083
 i : 0the msg is note_on channel=0 note=62 velocity=0 time=36
 i : 0the msg is note_on channel=0 note=67 velocity=0 time=25
 i : 0the msg is note_on channel=0 note=67 velocity=25 time=33
 i : 0the msg is note_on channel=0 note=62 velocity=48 time=12
 i : 0the msg is note_on channel=0 note=59 velocity=22 time=11
 i : 0the msg is note_on channel=0 note=59 velocity=0 time=59
 i : 0the msg is note_on channel=0 note=67 velocity=0 time=7
 i : 0the msg is note_on channel=0 note=62 velocity=0 time=1
 i : 0the msg is note_on channel=0 note=62 velocity=93 time=168
 i : 0the msg is note_on channel=0 note=59 velocity=68 time=1
 i : 0the msg is note_on channel=0 note=67 velocity=75 time=1
 i : 0the msg is note_on channel=0 note=59 velocity=0 time=70
 i : 0the msg is note_on channel=0 note=62 velocity=0 time=9
 i : 0the msg is note_on channel=0 note=67 velocity=0 time=6
 i : 0the msg is note_on channel=0 note=62 velocity=83 time=140
 i : 0the msg is note_on channel=0 note=59 velocity=64 time=1
 i : 0the msg is note_on channel=0 note=67 velocity=72 time=0
 i : 0the msg is note_on channel=0 note=59 velocity=0 time=260
 i : 0the msg is note_on channel=0 note=62 velocity=0 time=28
 i : 0the msg is note_on channel=0 note=67 velocity=0 time=22
 i : 0the msg is note_on channel=0 note=62 velocity=103 time=177
 i : 0the msg is note_on channel=0 note=69 velocity=93 time=1
 i : 0the msg is note_on channel=0 note=65 velocity=103 time=2
 i : 0the msg is note_on channel=0 note=62 velocity=0 time=822
 i : 0the msg is note_on channel=0 note=65 velocity=0 time=16
 i : 0the msg is note_on channel=0 note=69 velocity=0 time=13
 i : 0the msg is note_on channel=0 note=65 velocity=62 time=115
 i : 0the msg is note_on channel=0 note=69 velocity=68 time=0
 i : 0the msg is note_on channel=0 note=62 velocity=60 time=4
 i : 0the msg is note_on channel=0 note=62 velocity=0 time=85
 i : 0the msg is note_on channel=0 note=65 velocity=0 time=13
 i : 0the msg is note_on channel=0 note=69 velocity=0 time=4
 i : 0the msg is note_on channel=0 note=65 velocity=73 time=131
 i : 0the msg is note_on channel=0 note=69 velocity=85 time=3
 i : 0the msg is note_on channel=0 note=72 velocity=86 time=0
 i : 0the msg is note_on channel=0 note=72 velocity=0 time=128
 i : 0the msg is note_on channel=0 note=65 velocity=0 time=12
 i : 0the msg is note_on channel=0 note=69 velocity=0 time=3
 i : 0the msg is note_on channel=0 note=65 velocity=89 time=317
 i : 0the msg is note_on channel=0 note=62 velocity=91 time=2
 i : 0the msg is note_on channel=0 note=69 velocity=83 time=1
 i : 0the msg is note_on channel=0 note=69 velocity=0 time=1311
 i : 0the msg is note_on channel=0 note=65 velocity=0 time=10
 i : 0the msg is note_on channel=0 note=62 velocity=0 time=5
 i : 0the msg is note_on channel=0 note=65 velocity=77 time=128
 i : 0the msg is note_on channel=0 note=62 velocity=69 time=1
 i : 0the msg is note_on channel=0 note=69 velocity=69 time=2
 i : 0the msg is note_on channel=0 note=62 velocity=0 time=83
 i : 0the msg is note_on channel=0 note=69 velocity=0 time=3
 i : 0the msg is note_on channel=0 note=65 velocity=0 time=2
 i : 0the msg is note_on channel=0 note=65 velocity=96 time=152
 i : 0the msg is note_on channel=0 note=69 velocity=85 time=1
 i : 0the msg is note_on channel=0 note=62 velocity=89 time=1
 i : 0the msg is note_on channel=0 note=65 velocity=0 time=267
 i : 0the msg is note_on channel=0 note=69 velocity=0 time=9
 i : 0the msg is note_on channel=0 note=62 velocity=0 time=18
 i : 0the msg is note_on channel=0 note=59 velocity=86 time=190
 i : 0the msg is note_on channel=0 note=62 velocity=106 time=2
 i : 0the msg is note_on channel=0 note=67 velocity=93 time=3
 i : 0the msg is note_on channel=0 note=67 velocity=0 time=810
 i : 0the msg is note_on channel=0 note=62 velocity=0 time=1
 i : 0the msg is note_on channel=0 note=59 velocity=0 time=3
 i : 0the msg is note_on channel=0 note=67 velocity=60 time=111
 i : 0the msg is note_on channel=0 note=62 velocity=64 time=6
 i : 0the msg is note_on channel=0 note=59 velocity=28 time=19
 i : 0the msg is note_on channel=0 note=59 velocity=0 time=55
 i : 0the msg is note_on channel=0 note=62 velocity=0 time=0
 i : 0the msg is note_on channel=0 note=67 velocity=0 time=0
 i : 0the msg is note_on channel=0 note=59 velocity=80 time=174
 i : 0the msg is note_on channel=0 note=62 velocity=100 time=0
 i : 0the msg is note_on channel=0 note=67 velocity=86 time=4
 i : 0the msg is note_on channel=0 note=62 velocity=0 time=152
 i : 0the msg is note_on channel=0 note=59 velocity=0 time=1
 i : 0the msg is note_on channel=0 note=67 velocity=0 time=3
 i : 0the msg is note_on channel=0 note=62 velocity=89 time=320
 i : 0the msg is note_on channel=0 note=59 velocity=64 time=4
 i : 0the msg is note_on channel=0 note=67 velocity=78 time=3
 i : 0the msg is note_on channel=0 note=59 velocity=0 time=839
 i : 0the msg is note_on channel=0 note=67 velocity=0 time=2
 i : 0the msg is note_on channel=0 note=62 velocity=0 time=14
 i : 0the msg is note_on channel=0 note=62 velocity=78 time=132
 i : 0the msg is note_on channel=0 note=67 velocity=70 time=1
 i : 0the msg is note_on channel=0 note=59 velocity=53 time=6
 i : 0the msg is note_on channel=0 note=62 velocity=0 time=77
 i : 0the msg is note_on channel=0 note=67 velocity=0 time=2
 i : 0the msg is note_on channel=0 note=59 velocity=0 time=3
 i : 0the msg is note_on channel=0 note=62 velocity=57 time=153
 i : 0the msg is note_on channel=0 note=67 velocity=48 time=4
 i : 0the msg is note_on channel=0 note=59 velocity=32 time=2
 i : 0the msg is note_on channel=0 note=62 velocity=0 time=53
 i : 0the msg is note_on channel=0 note=59 velocity=0 time=5
 i : 0the msg is note_on channel=0 note=67 velocity=0 time=0
 i : 0the msg is note_on channel=0 note=62 velocity=96 time=180
 i : 0the msg is note_on channel=0 note=67 velocity=77 time=0
 i : 0the msg is note_on channel=0 note=59 velocity=73 time=2
 i : 0the msg is note_on channel=0 note=62 velocity=0 time=96
 i : 0the msg is note_on channel=0 note=59 velocity=0 time=8
 i : 0the msg is note_on channel=0 note=67 velocity=0 time=0
 i : 0the msg is note_on channel=0 note=62 velocity=96 time=116
 i : 0the msg is note_on channel=0 note=67 velocity=80 time=0
 i : 0the msg is note_on channel=0 note=59 velocity=77 time=1
 i : 0the msg is note_on channel=0 note=59 velocity=0 time=290
 i : 0the msg is note_on channel=0 note=62 velocity=0 time=28
 i : 0the msg is note_on channel=0 note=67 velocity=0 time=13
 i : 0the msg is note_on channel=0 note=69 velocity=98 time=150
 i : 0the msg is note_on channel=0 note=65 velocity=96 time=1
 i : 0the msg is note_on channel=0 note=62 velocity=93 time=1
 i : 0the msg is note_on channel=0 note=62 velocity=0 time=858
 i : 0the msg is note_on channel=0 note=69 velocity=0 time=3
 i : 0the msg is note_on channel=0 note=65 velocity=0 time=8
 i : 0the msg is note_on channel=0 note=65 velocity=65 time=93
 i : 0the msg is note_on channel=0 note=62 velocity=70 time=3
 i : 0the msg is note_on channel=0 note=69 velocity=62 time=1
 i : 0the msg is note_on channel=0 note=65 velocity=0 time=103
 i : 0the msg is note_on channel=0 note=62 velocity=0 time=1
 i : 0the msg is note_on channel=0 note=69 velocity=0 time=5
 i : 0the msg is note_on channel=0 note=65 velocity=80 time=116
 i : 0the msg is note_on channel=0 note=69 velocity=85 time=1
 i : 0the msg is note_on channel=0 note=72 velocity=96 time=1
 i : 0the msg is note_on channel=0 note=72 velocity=0 time=129
 i : 0the msg is note_on channel=0 note=69 velocity=0 time=14
 i : 0the msg is note_on channel=0 note=65 velocity=0 time=7
 i : 0the msg is note_on channel=0 note=65 velocity=91 time=318
 i : 0the msg is note_on channel=0 note=62 velocity=86 time=1
 i : 0the msg is note_on channel=0 note=69 velocity=89 time=1
 i : 0the msg is note_on channel=0 note=62 velocity=0 time=833
 i : 0the msg is note_on channel=0 note=69 velocity=0 time=11
 i : 0the msg is note_on channel=0 note=65 velocity=0 time=8
 i : 0the msg is note_on channel=0 note=65 velocity=46 time=116
 i : 0the msg is note_on channel=0 note=69 velocity=59 time=3
 i : 0the msg is note_on channel=0 note=62 velocity=46 time=8
 i : 0the msg is note_on channel=0 note=62 velocity=0 time=63
 i : 0the msg is note_on channel=0 note=69 velocity=0 time=4
 i : 0the msg is note_on channel=0 note=65 velocity=0 time=0
 i : 0the msg is note_on channel=0 note=62 velocity=48 time=148
 i : 0the msg is note_on channel=0 note=65 velocity=43 time=3
 i : 0the msg is note_on channel=0 note=69 velocity=60 time=0
 i : 0the msg is note_on channel=0 note=62 velocity=0 time=70
 i : 0the msg is note_on channel=0 note=65 velocity=0 time=14
 i : 0the msg is note_on channel=0 note=69 velocity=0 time=5
 i : 0the msg is note_on channel=0 note=69 velocity=82 time=135
 i : 0the msg is note_on channel=0 note=65 velocity=80 time=1
 i : 0the msg is note_on channel=0 note=72 velocity=91 time=7
 i : 0the msg is note_on channel=0 note=65 velocity=0 time=102
 i : 0the msg is note_on channel=0 note=72 velocity=0 time=1
 i : 0the msg is note_on channel=0 note=69 velocity=0 time=8
 i : 0the msg is note_on channel=0 note=62 velocity=89 time=147
 i : 0the msg is note_on channel=0 note=67 velocity=98 time=2
 i : 0the msg is note_on channel=0 note=71 velocity=100 time=0
 i : 0the msg is note_on channel=0 note=67 velocity=0 time=374
 i : 0the msg is note_on channel=0 note=62 velocity=0 time=4
 i : 0the msg is note_on channel=0 note=71 velocity=0 time=22
 i : 0the msg is note_on channel=0 note=62 velocity=80 time=96
 i : 0the msg is note_on channel=0 note=69 velocity=83 time=4
 i : 0the msg is note_on channel=0 note=65 velocity=93 time=5
 i : 0the msg is note_on channel=0 note=62 velocity=0 time=789
 i : 0the msg is note_on channel=0 note=65 velocity=0 time=6
 i : 0the msg is note_on channel=0 note=69 velocity=0 time=5
 i : 0the msg is note_on channel=0 note=69 velocity=72 time=112
 i : 0the msg is note_on channel=0 note=65 velocity=65 time=4
 i : 0the msg is note_on channel=0 note=62 velocity=61 time=5
 i : 0the msg is note_on channel=0 note=62 velocity=0 time=72
 i : 0the msg is note_on channel=0 note=65 velocity=0 time=6
 i : 0the msg is note_on channel=0 note=69 velocity=0 time=16
 i : 0the msg is note_on channel=0 note=69 velocity=82 time=141
 i : 0the msg is note_on channel=0 note=72 velocity=96 time=0
 i : 0the msg is note_on channel=0 note=65 velocity=93 time=1
 i : 0the msg is note_on channel=0 note=72 velocity=0 time=126
 i : 0the msg is note_on channel=0 note=69 velocity=0 time=4
 i : 0the msg is note_on channel=0 note=65 velocity=0 time=6
 i : 0the msg is note_on channel=0 note=65 velocity=98 time=364
 i : 0the msg is note_on channel=0 note=69 velocity=91 time=1
 i : 0the msg is note_on channel=0 note=62 velocity=89 time=1
 i : 0the msg is note_on channel=0 note=62 velocity=0 time=847
 i : 0the msg is note_on channel=0 note=69 velocity=0 time=15
 i : 0the msg is note_on channel=0 note=65 velocity=0 time=9
 i : 0the msg is note_on channel=0 note=65 velocity=51 time=91
 i : 0the msg is note_on channel=0 note=69 velocity=54 time=1
 i : 0the msg is note_on channel=0 note=62 velocity=53 time=12
 i : 0the msg is note_on channel=0 note=62 velocity=0 time=55
 i : 0the msg is note_on channel=0 note=65 velocity=0 time=17
 i : 0the msg is note_on channel=0 note=69 velocity=0 time=1
 i : 0the msg is note_on channel=0 note=65 velocity=51 time=132
 i : 0the msg is note_on channel=0 note=69 velocity=60 time=1
 i : 0the msg is note_on channel=0 note=62 velocity=48 time=12
 i : 0the msg is note_on channel=0 note=62 velocity=0 time=55
 i : 0the msg is note_on channel=0 note=65 velocity=0 time=24
 i : 0the msg is note_on channel=0 note=69 velocity=0 time=5
 i : 0the msg is note_on channel=0 note=65 velocity=82 time=127
 i : 0the msg is note_on channel=0 note=69 velocity=78 time=0
 i : 0the msg is note_on channel=0 note=72 velocity=80 time=4
 i : 0the msg is note_on channel=0 note=72 velocity=0 time=112
 i : 0the msg is note_on channel=0 note=65 velocity=0 time=1
 i : 0the msg is note_on channel=0 note=69 velocity=0 time=1
 i : 0the msg is note_on channel=0 note=67 velocity=89 time=153
 i : 0the msg is note_on channel=0 note=62 velocity=91 time=1
 i : 0the msg is note_on channel=0 note=71 velocity=86 time=0
 i : 0the msg is note_on channel=0 note=62 velocity=0 time=320
 i : 0the msg is note_on channel=0 note=67 velocity=0 time=16
 i : 0the msg is note_on channel=0 note=71 velocity=0 time=16
 i : 0the msg is note_on channel=0 note=62 velocity=75 time=122
 i : 0the msg is note_on channel=0 note=65 velocity=91 time=2
 i : 0the msg is note_on channel=0 note=69 velocity=86 time=2
 i : 0the msg is note_on channel=0 note=62 velocity=0 time=829
 i : 0the msg is note_on channel=0 note=69 velocity=0 time=16
 i : 0the msg is note_on channel=0 note=65 velocity=0 time=1
 i : 0the msg is note_on channel=0 note=65 velocity=62 time=97
 i : 0the msg is note_on channel=0 note=69 velocity=65 time=2
 i : 0the msg is note_on channel=0 note=62 velocity=61 time=5
 i : 0the msg is note_on channel=0 note=62 velocity=0 time=82
 i : 0the msg is note_on channel=0 note=65 velocity=0 time=8
 i : 0the msg is note_on channel=0 note=69 velocity=0 time=5
 i : 0the msg is note_on channel=0 note=65 velocity=73 time=122
 i : 0the msg is note_on channel=0 note=69 velocity=77 time=0
 i : 0the msg is note_on channel=0 note=72 velocity=85 time=4
 i : 0the msg is note_on channel=0 note=72 velocity=0 time=114
 i : 0the msg is note_on channel=0 note=69 velocity=0 time=29
 i : 0the msg is note_on channel=0 note=65 velocity=0 time=8
 i : 0the msg is note_on channel=0 note=65 velocity=93 time=341
 i : 0the msg is note_on channel=0 note=69 velocity=89 time=1
 i : 0the msg is note_on channel=0 note=62 velocity=86 time=2
 i : 0the msg is note_on channel=0 note=62 velocity=0 time=824
 i : 0the msg is note_on channel=0 note=69 velocity=0 time=10
 i : 0the msg is note_on channel=0 note=65 velocity=0 time=2
 i : 0the msg is note_on channel=0 note=69 velocity=66 time=109
 i : 0the msg is note_on channel=0 note=65 velocity=56 time=1
 i : 0the msg is note_on channel=0 note=62 velocity=60 time=13
 i : 0the msg is note_on channel=0 note=62 velocity=0 time=69
 i : 0the msg is note_on channel=0 note=65 velocity=0 time=8
 i : 0the msg is note_on channel=0 note=69 velocity=0 time=2
 i : 0the msg is note_on channel=0 note=65 velocity=56 time=154
 i : 0the msg is note_on channel=0 note=69 velocity=64 time=0
 i : 0the msg is note_on channel=0 note=62 velocity=52 time=9
 i : 0the msg is note_on channel=0 note=62 velocity=0 time=51
 i : 0the msg is note_on channel=0 note=69 velocity=0 time=32
 i : 0the msg is note_on channel=0 note=65 velocity=0 time=0
 i : 0the msg is note_on channel=0 note=65 velocity=85 time=144
 i : 0the msg is note_on channel=0 note=69 velocity=75 time=3
 i : 0the msg is note_on channel=0 note=72 velocity=85 time=0
 i : 0the msg is note_on channel=0 note=72 velocity=0 time=101
 i : 0the msg is note_on channel=0 note=69 velocity=0 time=7
 i : 0the msg is note_on channel=0 note=65 velocity=0 time=9
 i : 0the msg is note_on channel=0 note=62 velocity=89 time=145
 i : 0the msg is note_on channel=0 note=67 velocity=91 time=0
 i : 0the msg is note_on channel=0 note=71 velocity=89 time=3
 i : 0the msg is note_on channel=0 note=62 velocity=0 time=316
 i : 0the msg is note_on channel=0 note=67 velocity=0 time=29
 i : 0the msg is note_on channel=0 note=71 velocity=0 time=26
 i : 0the msg is note_on channel=0 note=62 velocity=91 time=112
 i : 0the msg is note_on channel=0 note=69 velocity=89 time=1
 i : 0the msg is note_on channel=0 note=65 velocity=96 time=1
 i : 0the msg is note_on channel=0 note=62 velocity=0 time=807
 i : 0the msg is note_on channel=0 note=65 velocity=0 time=15
 i : 0the msg is note_on channel=0 note=69 velocity=0 time=3
 i : 0the msg is note_on channel=0 note=69 velocity=65 time=129
 i : 0the msg is note_on channel=0 note=65 velocity=60 time=1
 i : 0the msg is note_on channel=0 note=62 velocity=58 time=10
 i : 0the msg is note_on channel=0 note=62 velocity=0 time=59
 i : 0the msg is note_on channel=0 note=65 velocity=0 time=17
 i : 0the msg is note_on channel=0 note=69 velocity=0 time=8
 i : 0the msg is note_on channel=0 note=65 velocity=83 time=136
 i : 0the msg is note_on channel=0 note=69 velocity=75 time=2
 i : 0the msg is note_on channel=0 note=72 velocity=86 time=0
 i : 0the msg is note_on channel=0 note=72 velocity=0 time=123
 i : 0the msg is note_on channel=0 note=69 velocity=0 time=9
 i : 0the msg is note_on channel=0 note=65 velocity=0 time=11
 i : 0the msg is note_on channel=0 note=65 velocity=89 time=309
 i : 0the msg is note_on channel=0 note=69 velocity=83 time=1
 i : 0the msg is note_on channel=0 note=62 velocity=82 time=1
 i : 0the msg is note_on channel=0 note=62 velocity=0 time=833
 i : 0the msg is note_on channel=0 note=69 velocity=0 time=9
 i : 0the msg is note_on channel=0 note=65 velocity=0 time=4
 i : 0the msg is note_on channel=0 note=65 velocity=48 time=132
 i : 0the msg is note_on channel=0 note=69 velocity=52 time=5
 i : 0the msg is note_on channel=0 note=62 velocity=53 time=4
 i : 0the msg is note_on channel=0 note=69 velocity=0 time=69
 i : 0the msg is note_on channel=0 note=62 velocity=0 time=2
 i : 0the msg is note_on channel=0 note=65 velocity=0 time=0
 i : 0the msg is note_on channel=0 note=65 velocity=56 time=153
 i : 0the msg is note_on channel=0 note=69 velocity=60 time=7
 i : 0the msg is note_on channel=0 note=62 velocity=48 time=4
 i : 0the msg is note_on channel=0 note=62 velocity=0 time=47
 i : 0the msg is note_on channel=0 note=65 velocity=0 time=35
 i : 0the msg is note_on channel=0 note=69 velocity=0 time=6
 i : 0the msg is note_on channel=0 note=65 velocity=80 time=132
 i : 0the msg is note_on channel=0 note=69 velocity=77 time=3
 i : 0the msg is note_on channel=0 note=72 velocity=86 time=2
 i : 0the msg is note_on channel=0 note=72 velocity=0 time=102
 i : 0the msg is note_on channel=0 note=69 velocity=0 time=15
 i : 0the msg is note_on channel=0 note=65 velocity=0 time=9
 i : 0the msg is note_on channel=0 note=62 velocity=93 time=132
 i : 0the msg is note_on channel=0 note=67 velocity=96 time=0
 i : 0the msg is note_on channel=0 note=71 velocity=96 time=3
 i : 0the msg is note_on channel=0 note=62 velocity=0 time=346
 i : 0the msg is note_on channel=0 note=67 velocity=0 time=9
 i : 0the msg is note_on channel=0 note=71 velocity=0 time=26
 i : 0the msg is note_on channel=0 note=62 velocity=85 time=98
 i : 0the msg is note_on channel=0 note=65 velocity=89 time=0
 i : 0the msg is note_on channel=0 note=69 velocity=78 time=2
 i : 0the msg is note_on channel=0 note=69 velocity=0 time=751
 i : 0the msg is note_on channel=0 note=65 velocity=0 time=4
 i : 0the msg is note_on channel=0 note=62 velocity=0 time=10
 i : 0the msg is note_on channel=0 note=65 velocity=65 time=210
 i : 0the msg is note_on channel=0 note=62 velocity=70 time=3
 i : 0the msg is note_on channel=0 note=69 velocity=62 time=1
 i : 0the msg is note_on channel=0 note=65 velocity=0 time=103
 i : 0the msg is note_on channel=0 note=62 velocity=0 time=1
 i : 0the msg is note_on channel=0 note=69 velocity=0 time=5
 i : 0the msg is note_on channel=0 note=65 velocity=80 time=116
 i : 0the msg is note_on channel=0 note=69 velocity=85 time=1
 i : 0the msg is note_on channel=0 note=72 velocity=96 time=1
 i : 0the msg is note_on channel=0 note=72 velocity=0 time=129
 i : 0the msg is note_on channel=0 note=69 velocity=0 time=14
 i : 0the msg is note_on channel=0 note=65 velocity=0 time=7
 i : 0the msg is note_on channel=0 note=65 velocity=91 time=318
 i : 0the msg is note_on channel=0 note=62 velocity=86 time=1
 i : 0the msg is note_on channel=0 note=69 velocity=89 time=1
 i : 0the msg is note_on channel=0 note=62 velocity=0 time=833
 i : 0the msg is note_on channel=0 note=69 velocity=0 time=11
 i : 0the msg is note_on channel=0 note=65 velocity=0 time=8
 i : 0the msg is note_on channel=0 note=65 velocity=46 time=116
 i : 0the msg is note_on channel=0 note=69 velocity=59 time=3
 i : 0the msg is note_on channel=0 note=62 velocity=46 time=8
 i : 0the msg is note_on channel=0 note=62 velocity=0 time=63
 i : 0the msg is note_on channel=0 note=69 velocity=0 time=4
 i : 0the msg is note_on channel=0 note=65 velocity=0 time=0
 i : 0the msg is note_on channel=0 note=62 velocity=48 time=148
 i : 0the msg is note_on channel=0 note=65 velocity=43 time=3
 i : 0the msg is note_on channel=0 note=69 velocity=60 time=0
 i : 0the msg is note_on channel=0 note=62 velocity=0 time=70
 i : 0the msg is note_on channel=0 note=65 velocity=0 time=14
 i : 0the msg is note_on channel=0 note=69 velocity=0 time=5
 i : 0the msg is note_on channel=0 note=69 velocity=82 time=135
 i : 0the msg is note_on channel=0 note=65 velocity=80 time=1
 i : 0the msg is note_on channel=0 note=72 velocity=91 time=7
 i : 0the msg is note_on channel=0 note=65 velocity=0 time=102
 i : 0the msg is note_on channel=0 note=72 velocity=0 time=1
 i : 0the msg is note_on channel=0 note=69 velocity=0 time=8
 i : 0the msg is note_on channel=0 note=62 velocity=89 time=147
 i : 0the msg is note_on channel=0 note=67 velocity=98 time=2
 i : 0the msg is note_on channel=0 note=71 velocity=100 time=0
 i : 0the msg is note_on channel=0 note=67 velocity=0 time=374
 i : 0the msg is note_on channel=0 note=62 velocity=0 time=4
 i : 0the msg is note_on channel=0 note=71 velocity=0 time=22
 i : 0the msg is note_on channel=0 note=62 velocity=80 time=96
 i : 0the msg is note_on channel=0 note=69 velocity=83 time=4
 i : 0the msg is note_on channel=0 note=65 velocity=93 time=5
 i : 0the msg is note_on channel=0 note=62 velocity=0 time=789
 i : 0the msg is note_on channel=0 note=65 velocity=0 time=6
 i : 0the msg is note_on channel=0 note=69 velocity=0 time=5
 i : 0the msg is note_on channel=0 note=69 velocity=72 time=112
 i : 0the msg is note_on channel=0 note=65 velocity=65 time=4
 i : 0the msg is note_on channel=0 note=62 velocity=61 time=5
 i : 0the msg is note_on channel=0 note=62 velocity=0 time=72
 i : 0the msg is note_on channel=0 note=65 velocity=0 time=6
 i : 0the msg is note_on channel=0 note=69 velocity=0 time=16
 i : 0the msg is note_on channel=0 note=69 velocity=82 time=141
 i : 0the msg is note_on channel=0 note=72 velocity=96 time=0
 i : 0the msg is note_on channel=0 note=65 velocity=93 time=1
 i : 0the msg is note_on channel=0 note=72 velocity=0 time=126
 i : 0the msg is note_on channel=0 note=69 velocity=0 time=4
 i : 0the msg is note_on channel=0 note=65 velocity=0 time=6
 i : 0the msg is note_on channel=0 note=65 velocity=98 time=364
 i : 0the msg is note_on channel=0 note=69 velocity=91 time=1
 i : 0the msg is note_on channel=0 note=62 velocity=89 time=1
 i : 0the msg is note_on channel=0 note=62 velocity=0 time=847
 i : 0the msg is note_on channel=0 note=69 velocity=0 time=15
 i : 0the msg is note_on channel=0 note=65 velocity=0 time=9
 i : 0the msg is note_on channel=0 note=65 velocity=51 time=91
 i : 0the msg is note_on channel=0 note=69 velocity=54 time=1
 i : 0the msg is note_on channel=0 note=62 velocity=53 time=12
 i : 0the msg is note_on channel=0 note=62 velocity=0 time=55
 i : 0the msg is note_on channel=0 note=65 velocity=0 time=17
 i : 0the msg is note_on channel=0 note=69 velocity=0 time=1
 i : 0the msg is note_on channel=0 note=65 velocity=51 time=132
 i : 0the msg is note_on channel=0 note=69 velocity=60 time=1
 i : 0the msg is note_on channel=0 note=62 velocity=48 time=12
 i : 0the msg is note_on channel=0 note=62 velocity=0 time=55
 i : 0the msg is note_on channel=0 note=65 velocity=0 time=24
 i : 0the msg is note_on channel=0 note=69 velocity=0 time=5
 i : 0the msg is note_on channel=0 note=65 velocity=82 time=127
 i : 0the msg is note_on channel=0 note=69 velocity=78 time=0
 i : 0the msg is note_on channel=0 note=72 velocity=80 time=4
 i : 0the msg is note_on channel=0 note=72 velocity=0 time=112
 i : 0the msg is note_on channel=0 note=65 velocity=0 time=1
 i : 0the msg is note_on channel=0 note=69 velocity=0 time=1
 i : 0the msg is note_on channel=0 note=67 velocity=89 time=153
 i : 0the msg is note_on channel=0 note=62 velocity=91 time=1
 i : 0the msg is note_on channel=0 note=71 velocity=86 time=0
 i : 0the msg is note_on channel=0 note=62 velocity=0 time=320
 i : 0the msg is note_on channel=0 note=67 velocity=0 time=16
 i : 0the msg is note_on channel=0 note=71 velocity=0 time=16
 i : 0the msg is note_on channel=0 note=62 velocity=75 time=122
 i : 0the msg is note_on channel=0 note=65 velocity=91 time=2
 i : 0the msg is note_on channel=0 note=69 velocity=86 time=2
 i : 0the msg is note_on channel=0 note=62 velocity=0 time=829
 i : 0the msg is note_on channel=0 note=69 velocity=0 time=16
 i : 0the msg is note_on channel=0 note=65 velocity=0 time=1
 i : 0the msg is <meta message end_of_track time=0>
