 i : 0the msg is <meta message smpte_offset frame_rate=25 hours=32 minutes=0 seconds=3 frames=0 sub_frames=0 time=0>
 i : 0the msg is <meta message time_signature numerator=4 denominator=4 clocks_per_click=24 notated_32nd_notes_per_beat=8 time=0>
 i : 0the msg is <meta message key_signature key='D' time=0>
 i : 0the msg is <meta message set_tempo tempo=500000 time=0>
 i : 0the msg is <meta message marker text='I HEARD IT FROM THE GRAPEVINE - Marvin Gaye' time=0>
 i : 0the msg is <meta message midi_port port=0 time=0>
 i : 0the msg is <meta message track_name name='Melody' time=0>
 i : 0the msg is program_change channel=3 program=63 time=0
 i : 0the msg is control_change channel=3 control=7 value=110 time=0
 i : 0the msg is control_change channel=3 control=10 value=64 time=0
 i : 0the msg is control_change channel=3 control=121 value=0 time=0
 i : 0the msg is control_change channel=3 control=91 value=100 time=0
 i : 0the msg is note_on channel=3 note=65 velocity=100 time=30720
 i : 0the msg is note_on channel=3 note=65 velocity=0 time=239
 i : 0the msg is note_on channel=3 note=62 velocity=100 time=1
 i : 0the msg is note_on channel=3 note=62 velocity=0 time=239
 i : 0the msg is note_on channel=3 note=62 velocity=100 time=1
 i : 0the msg is note_on channel=3 note=62 velocity=0 time=239
 i : 0the msg is note_on channel=3 note=62 velocity=100 time=1
 i : 0the msg is note_on channel=3 note=62 velocity=0 time=239
 i : 0the msg is note_on channel=3 note=65 velocity=100 time=1
 i : 0the msg is note_on channel=3 note=65 velocity=0 time=239
 i : 0the msg is note_on channel=3 note=62 velocity=100 time=1
 i : 0the msg is note_on channel=3 note=62 velocity=0 time=239
 i : 0the msg is note_on channel=3 note=62 velocity=100 time=1
 i : 0the msg is note_on channel=3 note=62 velocity=0 time=480
 i : 0the msg is note_on channel=3 note=62 velocity=100 time=960
 i : 0the msg is note_on channel=3 note=62 velocity=0 time=239
 i : 0the msg is note_on channel=3 note=62 velocity=100 time=1
 i : 0the msg is note_on channel=3 note=62 velocity=0 time=239
 i : 0the msg is note_on channel=3 note=64 velocity=100 time=241
 i : 0the msg is note_on channel=3 note=64 velocity=0 time=239
 i : 0the msg is note_on channel=3 note=64 velocity=100 time=721
 i : 0the msg is note_on channel=3 note=64 velocity=0 time=239
 i : 0the msg is note_on channel=3 note=64 velocity=100 time=1
 i : 0the msg is note_on channel=3 note=64 velocity=0 time=239
 i : 0the msg is note_on channel=3 note=59 velocity=100 time=1
 i : 0the msg is note_on channel=3 note=59 velocity=0 time=239
 i : 0the msg is note_on channel=3 note=62 velocity=100 time=1
 i : 0the msg is note_on channel=3 note=62 velocity=0 time=239
 i : 0the msg is note_on channel=3 note=62 velocity=100 time=961
 i : 0the msg is note_on channel=3 note=62 velocity=0 time=239
 i : 0the msg is note_on channel=3 note=62 velocity=100 time=1
 i : 0the msg is note_on channel=3 note=62 velocity=0 time=239
 i : 0the msg is note_on channel=3 note=62 velocity=100 time=1
 i : 0the msg is note_on channel=3 note=62 velocity=0 time=239
 i : 0the msg is note_on channel=3 note=62 velocity=100 time=1
 i : 0the msg is note_on channel=3 note=62 velocity=0 time=239
 i : 0the msg is note_on channel=3 note=74 velocity=100 time=1
 i : 0the msg is note_on channel=3 note=74 velocity=0 time=720
 i : 0the msg is note_on channel=3 note=62 velocity=100 time=0
 i : 0the msg is note_on channel=3 note=62 velocity=0 time=239
 i : 0the msg is note_on channel=3 note=62 velocity=100 time=1
 i : 0the msg is note_on channel=3 note=62 velocity=0 time=239
 i : 0the msg is note_on channel=3 note=65 velocity=100 time=1
 i : 0the msg is note_on channel=3 note=65 velocity=0 time=239
 i : 0the msg is note_on channel=3 note=62 velocity=100 time=1
 i : 0the msg is note_on channel=3 note=62 velocity=0 time=239
 i : 0the msg is note_on channel=3 note=65 velocity=100 time=1
 i : 0the msg is note_on channel=3 note=65 velocity=0 time=480
 i : 0the msg is note_on channel=3 note=62 velocity=100 time=240
 i : 0the msg is note_on channel=3 note=62 velocity=0 time=239
 i : 0the msg is note_on channel=3 note=62 velocity=100 time=1
 i : 0the msg is note_on channel=3 note=62 velocity=0 time=239
 i : 0the msg is note_on channel=3 note=62 velocity=100 time=1
 i : 0the msg is note_on channel=3 note=62 velocity=0 time=239
 i : 0the msg is note_on channel=3 note=62 velocity=100 time=1
 i : 0the msg is note_on channel=3 note=62 velocity=0 time=239
 i : 0the msg is note_on channel=3 note=62 velocity=100 time=1
 i : 0the msg is note_on channel=3 note=62 velocity=0 time=239
 i : 0the msg is note_on channel=3 note=62 velocity=100 time=1
 i : 0the msg is note_on channel=3 note=62 velocity=0 time=239
 i : 0the msg is note_on channel=3 note=64 velocity=100 time=1
 i : 0the msg is note_on channel=3 note=64 velocity=0 time=239
 i : 0the msg is note_on channel=3 note=64 velocity=100 time=241
 i : 0the msg is note_on channel=3 note=64 velocity=0 time=239
 i : 0the msg is note_on channel=3 note=64 velocity=100 time=1
 i : 0the msg is note_on channel=3 note=64 velocity=0 time=239
 i : 0the msg is note_on channel=3 note=64 velocity=100 time=1
 i : 0the msg is note_on channel=3 note=64 velocity=0 time=239
 i : 0the msg is note_on channel=3 note=64 velocity=100 time=1
 i : 0the msg is note_on channel=3 note=64 velocity=0 time=239
 i : 0the msg is note_on channel=3 note=59 velocity=100 time=1
 i : 0the msg is note_on channel=3 note=59 velocity=0 time=239
 i : 0the msg is note_on channel=3 note=62 velocity=100 time=1
 i : 0the msg is note_on channel=3 note=62 velocity=0 time=239
 i : 0the msg is note_on channel=3 note=62 velocity=100 time=961
 i : 0the msg is note_on channel=3 note=62 velocity=0 time=239
 i : 0the msg is note_on channel=3 note=62 velocity=100 time=1
 i : 0the msg is note_on channel=3 note=62 velocity=0 time=239
 i : 0the msg is note_on channel=3 note=62 velocity=100 time=1
 i : 0the msg is note_on channel=3 note=62 velocity=0 time=239
 i : 0the msg is note_on channel=3 note=62 velocity=100 time=1
 i : 0the msg is note_on channel=3 note=62 velocity=0 time=239
 i : 0the msg is note_on channel=3 note=62 velocity=100 time=1
 i : 0the msg is note_on channel=3 note=62 velocity=0 time=239
 i : 0the msg is note_on channel=3 note=71 velocity=100 time=1
 i : 0the msg is note_on channel=3 note=71 velocity=0 time=480
 i : 0the msg is note_on channel=3 note=69 velocity=100 time=0
 i : 0the msg is note_on channel=3 note=69 velocity=0 time=480
 i : 0the msg is note_on channel=3 note=65 velocity=100 time=0
 i : 0the msg is note_on channel=3 note=64 velocity=100 time=236
 i : 0the msg is note_on channel=3 note=65 velocity=0 time=3
 i : 0the msg is note_on channel=3 note=64 velocity=0 time=477
 i : 0the msg is note_on channel=3 note=62 velocity=100 time=4
 i : 0the msg is note_on channel=3 note=62 velocity=0 time=239
 i : 0the msg is note_on channel=3 note=62 velocity=100 time=961
 i : 0the msg is note_on channel=3 note=62 velocity=0 time=239
 i : 0the msg is note_on channel=3 note=62 velocity=100 time=1
 i : 0the msg is note_on channel=3 note=62 velocity=0 time=239
 i : 0the msg is note_on channel=3 note=62 velocity=100 time=1
 i : 0the msg is note_on channel=3 note=62 velocity=0 time=239
 i : 0the msg is note_on channel=3 note=71 velocity=100 time=1
 i : 0the msg is note_on channel=3 note=71 velocity=0 time=720
 i : 0the msg is note_on channel=3 note=69 velocity=100 time=0
 i : 0the msg is note_on channel=3 note=69 velocity=0 time=480
 i : 0the msg is note_on channel=3 note=65 velocity=100 time=0
 i : 0the msg is note_on channel=3 note=65 velocity=0 time=239
 i : 0the msg is note_on channel=3 note=64 velocity=100 time=1
 i : 0the msg is note_on channel=3 note=64 velocity=0 time=239
 i : 0the msg is note_on channel=3 note=62 velocity=100 time=241
 i : 0the msg is note_on channel=3 note=62 velocity=0 time=239
 i : 0the msg is note_on channel=3 note=67 velocity=100 time=1201
 i : 0the msg is note_on channel=3 note=67 velocity=0 time=239
 i : 0the msg is note_on channel=3 note=67 velocity=100 time=1
 i : 0the msg is note_on channel=3 note=67 velocity=0 time=239
 i : 0the msg is note_on channel=3 note=65 velocity=100 time=1
 i : 0the msg is note_on channel=3 note=65 velocity=0 time=239
 i : 0the msg is note_on channel=3 note=62 velocity=100 time=241
 i : 0the msg is note_on channel=3 note=62 velocity=0 time=239
 i : 0the msg is note_on channel=3 note=65 velocity=100 time=1
 i : 0the msg is note_on channel=3 note=65 velocity=0 time=239
 i : 0the msg is note_on channel=3 note=62 velocity=100 time=1
 i : 0the msg is note_on channel=3 note=62 velocity=0 time=239
 i : 0the msg is note_on channel=3 note=65 velocity=100 time=1
 i : 0the msg is note_on channel=3 note=65 velocity=0 time=239
 i : 0the msg is note_on channel=3 note=62 velocity=100 time=241
 i : 0the msg is note_on channel=3 note=62 velocity=0 time=239
 i : 0the msg is note_on channel=3 note=65 velocity=100 time=1201
 i : 0the msg is note_on channel=3 note=65 velocity=0 time=239
 i : 0the msg is note_on channel=3 note=65 velocity=100 time=1
 i : 0the msg is note_on channel=3 note=65 velocity=0 time=239
 i : 0the msg is note_on channel=3 note=67 velocity=100 time=241
 i : 0the msg is note_on channel=3 note=67 velocity=0 time=239
 i : 0the msg is note_on channel=3 note=67 velocity=100 time=241
 i : 0the msg is note_on channel=3 note=67 velocity=0 time=239
 i : 0the msg is note_on channel=3 note=67 velocity=100 time=1
 i : 0the msg is note_on channel=3 note=67 velocity=0 time=239
 i : 0the msg is note_on channel=3 note=65 velocity=100 time=1
 i : 0the msg is note_on channel=3 note=65 velocity=0 time=239
 i : 0the msg is note_on channel=3 note=67 velocity=100 time=1
 i : 0the msg is note_on channel=3 note=67 velocity=0 time=239
 i : 0the msg is note_on channel=3 note=62 velocity=100 time=241
 i : 0the msg is note_on channel=3 note=62 velocity=0 time=239
 i : 0the msg is note_on channel=3 note=67 velocity=100 time=1201
 i : 0the msg is note_on channel=3 note=67 velocity=0 time=239
 i : 0the msg is note_on channel=3 note=67 velocity=100 time=1
 i : 0the msg is note_on channel=3 note=67 velocity=0 time=239
 i : 0the msg is note_on channel=3 note=65 velocity=100 time=241
 i : 0the msg is note_on channel=3 note=65 velocity=0 time=239
 i : 0the msg is note_on channel=3 note=62 velocity=100 time=241
 i : 0the msg is note_on channel=3 note=62 velocity=0 time=239
 i : 0the msg is note_on channel=3 note=65 velocity=100 time=1
 i : 0the msg is note_on channel=3 note=65 velocity=0 time=239
 i : 0the msg is note_on channel=3 note=62 velocity=100 time=1
 i : 0the msg is note_on channel=3 note=62 velocity=0 time=239
 i : 0the msg is note_on channel=3 note=65 velocity=100 time=1
 i : 0the msg is note_on channel=3 note=65 velocity=0 time=239
 i : 0the msg is note_on channel=3 note=62 velocity=100 time=241
 i : 0the msg is note_on channel=3 note=62 velocity=0 time=239
 i : 0the msg is note_on channel=3 note=65 velocity=100 time=961
 i : 0the msg is note_on channel=3 note=65 velocity=0 time=239
 i : 0the msg is note_on channel=3 note=65 velocity=100 time=1
 i : 0the msg is note_on channel=3 note=65 velocity=0 time=239
 i : 0the msg is note_on channel=3 note=65 velocity=100 time=1
 i : 0the msg is note_on channel=3 note=65 velocity=0 time=239
 i : 0the msg is note_on channel=3 note=65 velocity=100 time=1
 i : 0the msg is note_on channel=3 note=65 velocity=0 time=239
 i : 0the msg is note_on channel=3 note=67 velocity=100 time=1
 i : 0the msg is note_on channel=3 note=67 velocity=0 time=239
 i : 0the msg is note_on channel=3 note=67 velocity=100 time=721
 i : 0the msg is note_on channel=3 note=67 velocity=0 time=239
 i : 0the msg is note_on channel=3 note=67 velocity=100 time=1
 i : 0the msg is note_on channel=3 note=67 velocity=0 time=239
 i : 0the msg is note_on channel=3 note=62 velocity=100 time=1
 i : 0the msg is note_on channel=3 note=62 velocity=0 time=239
 i : 0the msg is note_on channel=3 note=65 velocity=100 time=1
 i : 0the msg is note_on channel=3 note=65 velocity=0 time=480
 i : 0the msg is note_on channel=3 note=62 velocity=100 time=480
 i : 0the msg is note_on channel=3 note=62 velocity=0 time=239
 i : 0the msg is note_on channel=3 note=62 velocity=100 time=1
 i : 0the msg is note_on channel=3 note=62 velocity=0 time=239
 i : 0the msg is note_on channel=3 note=65 velocity=100 time=1
 i : 0the msg is note_on channel=3 note=65 velocity=0 time=239
 i : 0the msg is note_on channel=3 note=62 velocity=100 time=1
 i : 0the msg is note_on channel=3 note=62 velocity=0 time=239
 i : 0the msg is note_on channel=3 note=62 velocity=100 time=241
 i : 0the msg is note_on channel=3 note=62 velocity=0 time=720
 i : 0the msg is note_on channel=3 note=67 velocity=100 time=13680
 i : 0the msg is note_on channel=3 note=67 velocity=0 time=239
 i : 0the msg is note_on channel=3 note=67 velocity=100 time=1
 i : 0the msg is note_on channel=3 note=67 velocity=0 time=239
 i : 0the msg is note_on channel=3 note=67 velocity=100 time=1
 i : 0the msg is note_on channel=3 note=67 velocity=0 time=239
 i : 0the msg is note_on channel=3 note=67 velocity=100 time=1
 i : 0the msg is note_on channel=3 note=67 velocity=0 time=239
 i : 0the msg is note_on channel=3 note=65 velocity=100 time=1
 i : 0the msg is note_on channel=3 note=65 velocity=0 time=239
 i : 0the msg is note_on channel=3 note=62 velocity=100 time=481
 i : 0the msg is note_on channel=3 note=62 velocity=0 time=239
 i : 0the msg is note_on channel=3 note=62 velocity=100 time=1
 i : 0the msg is note_on channel=3 note=62 velocity=0 time=239
 i : 0the msg is note_on channel=3 note=65 velocity=100 time=1
 i : 0the msg is note_on channel=3 note=65 velocity=0 time=239
 i : 0the msg is note_on channel=3 note=62 velocity=100 time=1
 i : 0the msg is note_on channel=3 note=62 velocity=0 time=239
 i : 0the msg is note_on channel=3 note=62 velocity=100 time=1
 i : 0the msg is note_on channel=3 note=62 velocity=0 time=480
 i : 0the msg is note_on channel=3 note=62 velocity=100 time=960
 i : 0the msg is note_on channel=3 note=62 velocity=0 time=239
 i : 0the msg is note_on channel=3 note=62 velocity=100 time=1
 i : 0the msg is note_on channel=3 note=62 velocity=0 time=239
 i : 0the msg is note_on channel=3 note=64 velocity=100 time=241
 i : 0the msg is note_on channel=3 note=64 velocity=0 time=239
 i : 0the msg is note_on channel=3 note=64 velocity=100 time=481
 i : 0the msg is note_on channel=3 note=64 velocity=0 time=239
 i : 0the msg is note_on channel=3 note=64 velocity=100 time=1
 i : 0the msg is note_on channel=3 note=64 velocity=0 time=239
 i : 0the msg is note_on channel=3 note=64 velocity=100 time=1
 i : 0the msg is note_on channel=3 note=64 velocity=0 time=239
 i : 0the msg is note_on channel=3 note=59 velocity=100 time=1
 i : 0the msg is note_on channel=3 note=59 velocity=0 time=239
 i : 0the msg is note_on channel=3 note=62 velocity=100 time=1
 i : 0the msg is note_on channel=3 note=62 velocity=0 time=480
 i : 0the msg is note_on channel=3 note=62 velocity=100 time=960
 i : 0the msg is note_on channel=3 note=62 velocity=0 time=239
 i : 0the msg is note_on channel=3 note=62 velocity=100 time=1
 i : 0the msg is note_on channel=3 note=62 velocity=0 time=239
 i : 0the msg is note_on channel=3 note=74 velocity=100 time=241
 i : 0the msg is note_on channel=3 note=74 velocity=0 time=480
 i : 0the msg is note_on channel=3 note=62 velocity=100 time=0
 i : 0the msg is note_on channel=3 note=62 velocity=0 time=239
 i : 0the msg is note_on channel=3 note=65 velocity=100 time=1
 i : 0the msg is note_on channel=3 note=65 velocity=0 time=239
 i : 0the msg is note_on channel=3 note=62 velocity=100 time=1
 i : 0the msg is note_on channel=3 note=65 velocity=100 time=226
 i : 0the msg is note_on channel=3 note=62 velocity=0 time=13
 i : 0the msg is note_on channel=3 note=65 velocity=0 time=226
 i : 0the msg is note_on channel=3 note=62 velocity=100 time=15
 i : 0the msg is note_on channel=3 note=62 velocity=0 time=239
 i : 0the msg is note_on channel=3 note=62 velocity=100 time=1
 i : 0the msg is note_on channel=3 note=62 velocity=0 time=480
 i : 0the msg is note_on channel=3 note=62 velocity=100 time=960
 i : 0the msg is note_on channel=3 note=62 velocity=0 time=239
 i : 0the msg is note_on channel=3 note=62 velocity=100 time=1
 i : 0the msg is note_on channel=3 note=62 velocity=0 time=239
 i : 0the msg is note_on channel=3 note=64 velocity=100 time=241
 i : 0the msg is note_on channel=3 note=64 velocity=0 time=239
 i : 0the msg is note_on channel=3 note=65 velocity=100 time=721
 i : 0the msg is note_on channel=3 note=65 velocity=0 time=239
 i : 0the msg is note_on channel=3 note=64 velocity=100 time=1
 i : 0the msg is note_on channel=3 note=64 velocity=0 time=239
 i : 0the msg is note_on channel=3 note=59 velocity=100 time=1
 i : 0the msg is note_on channel=3 note=59 velocity=0 time=239
 i : 0the msg is note_on channel=3 note=62 velocity=100 time=1
 i : 0the msg is note_on channel=3 note=62 velocity=0 time=239
 i : 0the msg is note_on channel=3 note=62 velocity=100 time=1201
 i : 0the msg is note_on channel=3 note=62 velocity=0 time=239
 i : 0the msg is note_on channel=3 note=62 velocity=100 time=1
 i : 0the msg is note_on channel=3 note=62 velocity=0 time=239
 i : 0the msg is note_on channel=3 note=62 velocity=100 time=1
 i : 0the msg is note_on channel=3 note=62 velocity=0 time=239
 i : 0the msg is note_on channel=3 note=71 velocity=100 time=1
 i : 0the msg is note_on channel=3 note=71 velocity=0 time=239
 i : 0the msg is note_on channel=3 note=69 velocity=100 time=481
 i : 0the msg is note_on channel=3 note=69 velocity=0 time=239
 i : 0the msg is note_on channel=3 note=65 velocity=100 time=241
 i : 0the msg is note_on channel=3 note=65 velocity=0 time=239
 i : 0the msg is note_on channel=3 note=64 velocity=100 time=1
 i : 0the msg is note_on channel=3 note=64 velocity=0 time=239
 i : 0the msg is note_on channel=3 note=62 velocity=100 time=241
 i : 0the msg is note_on channel=3 note=62 velocity=0 time=239
 i : 0the msg is note_on channel=3 note=66 velocity=100 time=1201
 i : 0the msg is note_on channel=3 note=66 velocity=0 time=239
 i : 0the msg is note_on channel=3 note=69 velocity=100 time=1
 i : 0the msg is note_on channel=3 note=69 velocity=0 time=239
 i : 0the msg is note_on channel=3 note=71 velocity=100 time=1
 i : 0the msg is note_on channel=3 note=71 velocity=0 time=239
 i : 0the msg is note_on channel=3 note=69 velocity=100 time=481
 i : 0the msg is note_on channel=3 note=69 velocity=0 time=239
 i : 0the msg is note_on channel=3 note=65 velocity=100 time=241
 i : 0the msg is note_on channel=3 note=65 velocity=0 time=239
 i : 0the msg is note_on channel=3 note=64 velocity=100 time=1
 i : 0the msg is note_on channel=3 note=64 velocity=0 time=239
 i : 0the msg is note_on channel=3 note=62 velocity=100 time=241
 i : 0the msg is note_on channel=3 note=62 velocity=0 time=239
 i : 0the msg is note_on channel=3 note=67 velocity=100 time=721
 i : 0the msg is note_on channel=3 note=67 velocity=0 time=239
 i : 0the msg is note_on channel=3 note=67 velocity=100 time=1
 i : 0the msg is note_on channel=3 note=67 velocity=0 time=239
 i : 0the msg is note_on channel=3 note=67 velocity=100 time=1
 i : 0the msg is note_on channel=3 note=67 velocity=0 time=239
 i : 0the msg is note_on channel=3 note=65 velocity=100 time=241
 i : 0the msg is note_on channel=3 note=65 velocity=0 time=239
 i : 0the msg is note_on channel=3 note=62 velocity=100 time=241
 i : 0the msg is note_on channel=3 note=62 velocity=0 time=239
 i : 0the msg is note_on channel=3 note=65 velocity=100 time=1
 i : 0the msg is note_on channel=3 note=65 velocity=0 time=239
 i : 0the msg is note_on channel=3 note=62 velocity=100 time=1
 i : 0the msg is note_on channel=3 note=62 velocity=0 time=239
 i : 0the msg is note_on channel=3 note=65 velocity=100 time=1
 i : 0the msg is note_on channel=3 note=65 velocity=0 time=239
 i : 0the msg is note_on channel=3 note=62 velocity=100 time=241
 i : 0the msg is note_on channel=3 note=62 velocity=0 time=239
 i : 0the msg is note_on channel=3 note=65 velocity=100 time=1201
 i : 0the msg is note_on channel=3 note=65 velocity=0 time=239
 i : 0the msg is note_on channel=3 note=65 velocity=100 time=1
 i : 0the msg is note_on channel=3 note=65 velocity=0 time=239
 i : 0the msg is note_on channel=3 note=67 velocity=100 time=241
 i : 0the msg is note_on channel=3 note=67 velocity=0 time=239
 i : 0the msg is note_on channel=3 note=67 velocity=100 time=241
 i : 0the msg is note_on channel=3 note=67 velocity=0 time=239
 i : 0the msg is note_on channel=3 note=67 velocity=100 time=1
 i : 0the msg is note_on channel=3 note=67 velocity=0 time=239
 i : 0the msg is note_on channel=3 note=65 velocity=100 time=1
 i : 0the msg is note_on channel=3 note=65 velocity=0 time=239
 i : 0the msg is note_on channel=3 note=67 velocity=100 time=1
 i : 0the msg is note_on channel=3 note=67 velocity=0 time=239
 i : 0the msg is note_on channel=3 note=62 velocity=100 time=241
 i : 0the msg is note_on channel=3 note=62 velocity=0 time=239
 i : 0the msg is note_on channel=3 note=67 velocity=100 time=1201
 i : 0the msg is note_on channel=3 note=67 velocity=0 time=239
 i : 0the msg is note_on channel=3 note=67 velocity=100 time=1
 i : 0the msg is note_on channel=3 note=67 velocity=0 time=239
 i : 0the msg is note_on channel=3 note=65 velocity=100 time=241
 i : 0the msg is note_on channel=3 note=65 velocity=0 time=239
 i : 0the msg is note_on channel=3 note=62 velocity=100 time=241
 i : 0the msg is note_on channel=3 note=62 velocity=0 time=239
 i : 0the msg is note_on channel=3 note=65 velocity=100 time=1
 i : 0the msg is note_on channel=3 note=65 velocity=0 time=239
 i : 0the msg is note_on channel=3 note=62 velocity=100 time=1
 i : 0the msg is note_on channel=3 note=62 velocity=0 time=239
 i : 0the msg is note_on channel=3 note=65 velocity=100 time=1
 i : 0the msg is note_on channel=3 note=65 velocity=0 time=239
 i : 0the msg is note_on channel=3 note=62 velocity=100 time=241
 i : 0the msg is note_on channel=3 note=62 velocity=0 time=239
 i : 0the msg is note_on channel=3 note=65 velocity=100 time=961
 i : 0the msg is note_on channel=3 note=65 velocity=0 time=239
 i : 0the msg is note_on channel=3 note=65 velocity=100 time=1
 i : 0the msg is note_on channel=3 note=65 velocity=0 time=239
 i : 0the msg is note_on channel=3 note=65 velocity=100 time=1
 i : 0the msg is note_on channel=3 note=65 velocity=0 time=239
 i : 0the msg is note_on channel=3 note=65 velocity=100 time=1
 i : 0the msg is note_on channel=3 note=65 velocity=0 time=239
 i : 0the msg is note_on channel=3 note=67 velocity=100 time=1
 i : 0the msg is note_on channel=3 note=67 velocity=0 time=239
 i : 0the msg is note_on channel=3 note=67 velocity=100 time=721
 i : 0the msg is note_on channel=3 note=67 velocity=0 time=239
 i : 0the msg is note_on channel=3 note=67 velocity=100 time=1
 i : 0the msg is note_on channel=3 note=67 velocity=0 time=239
 i : 0the msg is note_on channel=3 note=62 velocity=100 time=1
 i : 0the msg is note_on channel=3 note=62 velocity=0 time=239
 i : 0the msg is note_on channel=3 note=65 velocity=100 time=1
 i : 0the msg is note_on channel=3 note=65 velocity=0 time=480
 i : 0the msg is note_on channel=3 note=62 velocity=100 time=480
 i : 0the msg is note_on channel=3 note=62 velocity=0 time=239
 i : 0the msg is note_on channel=3 note=62 velocity=100 time=1
 i : 0the msg is note_on channel=3 note=62 velocity=0 time=239
 i : 0the msg is note_on channel=3 note=65 velocity=100 time=1
 i : 0the msg is note_on channel=3 note=65 velocity=0 time=239
 i : 0the msg is note_on channel=3 note=62 velocity=100 time=1
 i : 0the msg is note_on channel=3 note=62 velocity=0 time=239
 i : 0the msg is note_on channel=3 note=62 velocity=100 time=241
 i : 0the msg is note_on channel=3 note=62 velocity=0 time=720
 i : 0the msg is note_on channel=3 note=62 velocity=100 time=13920
 i : 0the msg is note_on channel=3 note=62 velocity=0 time=240
 i : 0the msg is note_on channel=3 note=62 velocity=100 time=0
 i : 0the msg is note_on channel=3 note=62 velocity=0 time=240
 i : 0the msg is note_on channel=3 note=62 velocity=100 time=0
 i : 0the msg is note_on channel=3 note=62 velocity=0 time=240
 i : 0the msg is note_on channel=3 note=62 velocity=100 time=0
 i : 0the msg is note_on channel=3 note=62 velocity=0 time=240
 i : 0the msg is note_on channel=3 note=65 velocity=100 time=0
 i : 0the msg is note_on channel=3 note=65 velocity=0 time=480
 i : 0the msg is note_on channel=3 note=62 velocity=100 time=0
 i : 0the msg is note_on channel=3 note=62 velocity=0 time=240
 i : 0the msg is note_on channel=3 note=62 velocity=100 time=0
 i : 0the msg is note_on channel=3 note=62 velocity=0 time=240
 i : 0the msg is note_on channel=3 note=65 velocity=100 time=0
 i : 0the msg is note_on channel=3 note=65 velocity=0 time=240
 i : 0the msg is note_on channel=3 note=62 velocity=100 time=0
 i : 0the msg is note_on channel=3 note=62 velocity=0 time=240
 i : 0the msg is note_on channel=3 note=62 velocity=100 time=0
 i : 0the msg is note_on channel=3 note=62 velocity=0 time=480
 i : 0the msg is note_on channel=3 note=62 velocity=100 time=960
 i : 0the msg is note_on channel=3 note=62 velocity=0 time=720
 i : 0the msg is note_on channel=3 note=64 velocity=100 time=0
 i : 0the msg is note_on channel=3 note=64 velocity=0 time=720
 i : 0the msg is note_on channel=3 note=65 velocity=100 time=240
 i : 0the msg is note_on channel=3 note=65 velocity=0 time=240
 i : 0the msg is note_on channel=3 note=64 velocity=100 time=0
 i : 0the msg is note_on channel=3 note=64 velocity=0 time=240
 i : 0the msg is note_on channel=3 note=59 velocity=100 time=0
 i : 0the msg is note_on channel=3 note=59 velocity=0 time=240
 i : 0the msg is note_on channel=3 note=62 velocity=100 time=0
 i : 0the msg is note_on channel=3 note=62 velocity=0 time=480
 i : 0the msg is note_on channel=3 note=62 velocity=100 time=960
 i : 0the msg is note_on channel=3 note=62 velocity=0 time=240
 i : 0the msg is note_on channel=3 note=62 velocity=100 time=0
 i : 0the msg is note_on channel=3 note=62 velocity=0 time=240
 i : 0the msg is note_on channel=3 note=74 velocity=100 time=240
 i : 0the msg is note_on channel=3 note=74 velocity=0 time=720
 i : 0the msg is note_on channel=3 note=62 velocity=100 time=240
 i : 0the msg is note_on channel=3 note=62 velocity=0 time=240
 i : 0the msg is note_on channel=3 note=65 velocity=100 time=0
 i : 0the msg is note_on channel=3 note=65 velocity=0 time=240
 i : 0the msg is note_on channel=3 note=62 velocity=100 time=0
 i : 0the msg is note_on channel=3 note=62 velocity=0 time=240
 i : 0the msg is note_on channel=3 note=65 velocity=100 time=0
 i : 0the msg is note_on channel=3 note=65 velocity=0 time=480
 i : 0the msg is note_on channel=3 note=69 velocity=100 time=960
 i : 0the msg is note_on channel=3 note=69 velocity=0 time=240
 i : 0the msg is note_on channel=3 note=68 velocity=100 time=0
 i : 0the msg is note_on channel=3 note=68 velocity=0 time=240
 i : 0the msg is note_on channel=3 note=67 velocity=100 time=240
 i : 0the msg is note_on channel=3 note=67 velocity=0 time=720
 i : 0the msg is note_on channel=3 note=64 velocity=100 time=240
 i : 0the msg is note_on channel=3 note=64 velocity=0 time=240
 i : 0the msg is note_on channel=3 note=67 velocity=100 time=0
 i : 0the msg is note_on channel=3 note=67 velocity=0 time=240
 i : 0the msg is note_on channel=3 note=62 velocity=100 time=0
 i : 0the msg is note_on channel=3 note=62 velocity=0 time=240
 i : 0the msg is note_on channel=3 note=65 velocity=100 time=0
 i : 0the msg is note_on channel=3 note=65 velocity=0 time=480
 i : 0the msg is note_on channel=3 note=69 velocity=100 time=960
 i : 0the msg is note_on channel=3 note=69 velocity=0 time=240
 i : 0the msg is note_on channel=3 note=67 velocity=100 time=0
 i : 0the msg is note_on channel=3 note=67 velocity=0 time=240
 i : 0the msg is note_on channel=3 note=69 velocity=100 time=0
 i : 0the msg is note_on channel=3 note=69 velocity=0 time=240
 i : 0the msg is note_on channel=3 note=72 velocity=100 time=0
 i : 0the msg is note_on channel=3 note=72 velocity=0 time=240
 i : 0the msg is note_on channel=3 note=74 velocity=100 time=0
 i : 0the msg is note_on channel=3 note=74 velocity=0 time=480
 i : 0the msg is note_on channel=3 note=72 velocity=100 time=0
 i : 0the msg is note_on channel=3 note=72 velocity=0 time=480
 i : 0the msg is note_on channel=3 note=69 velocity=100 time=0
 i : 0the msg is note_on channel=3 note=69 velocity=0 time=240
 i : 0the msg is note_on channel=3 note=67 velocity=100 time=0
 i : 0the msg is note_on channel=3 note=67 velocity=0 time=240
 i : 0the msg is note_on channel=3 note=65 velocity=100 time=240
 i : 0the msg is note_on channel=3 note=65 velocity=0 time=240
 i : 0the msg is note_on channel=3 note=67 velocity=100 time=960
 i : 0the msg is note_on channel=3 note=67 velocity=0 time=240
 i : 0the msg is note_on channel=3 note=65 velocity=100 time=0
 i : 0the msg is note_on channel=3 note=65 velocity=0 time=240
 i : 0the msg is note_on channel=3 note=67 velocity=100 time=0
 i : 0the msg is note_on channel=3 note=67 velocity=0 time=240
 i : 0the msg is note_on channel=3 note=72 velocity=100 time=0
 i : 0the msg is note_on channel=3 note=72 velocity=0 time=240
 i : 0the msg is note_on channel=3 note=74 velocity=100 time=0
 i : 0the msg is note_on channel=3 note=74 velocity=0 time=480
 i : 0the msg is note_on channel=3 note=72 velocity=100 time=0
 i : 0the msg is note_on channel=3 note=72 velocity=0 time=240
 i : 0the msg is note_on channel=3 note=65 velocity=100 time=0
 i : 0the msg is note_on channel=3 note=65 velocity=0 time=240
 i : 0the msg is note_on channel=3 note=67 velocity=100 time=0
 i : 0the msg is note_on channel=3 note=67 velocity=0 time=240
 i : 0the msg is note_on channel=3 note=62 velocity=100 time=0
 i : 0the msg is note_on channel=3 note=62 velocity=0 time=240
 i : 0the msg is note_on channel=3 note=65 velocity=100 time=0
 i : 0the msg is note_on channel=3 note=65 velocity=0 time=480
 i : 0the msg is note_on channel=3 note=67 velocity=100 time=960
 i : 0the msg is note_on channel=3 note=67 velocity=0 time=240
 i : 0the msg is note_on channel=3 note=67 velocity=100 time=0
 i : 0the msg is note_on channel=3 note=67 velocity=0 time=240
 i : 0the msg is note_on channel=3 note=65 velocity=100 time=240
 i : 0the msg is note_on channel=3 note=65 velocity=0 time=240
 i : 0the msg is note_on channel=3 note=62 velocity=100 time=240
 i : 0the msg is note_on channel=3 note=62 velocity=0 time=239
 i : 0the msg is note_on channel=3 note=65 velocity=100 time=1
 i : 0the msg is note_on channel=3 note=65 velocity=0 time=239
 i : 0the msg is note_on channel=3 note=62 velocity=100 time=1
 i : 0the msg is note_on channel=3 note=62 velocity=0 time=239
 i : 0the msg is note_on channel=3 note=65 velocity=100 time=1
 i : 0the msg is note_on channel=3 note=65 velocity=0 time=239
 i : 0the msg is note_on channel=3 note=62 velocity=100 time=241
 i : 0the msg is note_on channel=3 note=62 velocity=0 time=239
 i : 0the msg is note_on channel=3 note=65 velocity=100 time=1201
 i : 0the msg is note_on channel=3 note=65 velocity=0 time=239
 i : 0the msg is note_on channel=3 note=65 velocity=100 time=1
 i : 0the msg is note_on channel=3 note=65 velocity=0 time=239
 i : 0the msg is note_on channel=3 note=67 velocity=100 time=241
 i : 0the msg is note_on channel=3 note=67 velocity=0 time=239
 i : 0the msg is note_on channel=3 note=67 velocity=100 time=241
 i : 0the msg is note_on channel=3 note=67 velocity=0 time=239
 i : 0the msg is note_on channel=3 note=67 velocity=100 time=1
 i : 0the msg is note_on channel=3 note=67 velocity=0 time=239
 i : 0the msg is note_on channel=3 note=65 velocity=100 time=1
 i : 0the msg is note_on channel=3 note=65 velocity=0 time=239
 i : 0the msg is note_on channel=3 note=67 velocity=100 time=1
 i : 0the msg is note_on channel=3 note=67 velocity=0 time=239
 i : 0the msg is note_on channel=3 note=62 velocity=100 time=241
 i : 0the msg is note_on channel=3 note=62 velocity=0 time=239
 i : 0the msg is note_on channel=3 note=67 velocity=100 time=1201
 i : 0the msg is note_on channel=3 note=67 velocity=0 time=239
 i : 0the msg is note_on channel=3 note=67 velocity=100 time=1
 i : 0the msg is note_on channel=3 note=67 velocity=0 time=239
 i : 0the msg is note_on channel=3 note=65 velocity=100 time=241
 i : 0the msg is note_on channel=3 note=65 velocity=0 time=239
 i : 0the msg is note_on channel=3 note=62 velocity=100 time=241
 i : 0the msg is note_on channel=3 note=62 velocity=0 time=239
 i : 0the msg is note_on channel=3 note=65 velocity=100 time=1
 i : 0the msg is note_on channel=3 note=65 velocity=0 time=239
 i : 0the msg is note_on channel=3 note=62 velocity=100 time=1
 i : 0the msg is note_on channel=3 note=62 velocity=0 time=239
 i : 0the msg is note_on channel=3 note=65 velocity=100 time=1
 i : 0the msg is note_on channel=3 note=65 velocity=0 time=239
 i : 0the msg is note_on channel=3 note=62 velocity=100 time=241
 i : 0the msg is note_on channel=3 note=62 velocity=0 time=239
 i : 0the msg is note_on channel=3 note=65 velocity=100 time=961
 i : 0the msg is note_on channel=3 note=65 velocity=0 time=239
 i : 0the msg is note_on channel=3 note=65 velocity=100 time=1
 i : 0the msg is note_on channel=3 note=65 velocity=0 time=239
 i : 0the msg is note_on channel=3 note=65 velocity=100 time=1
 i : 0the msg is note_on channel=3 note=65 velocity=0 time=239
 i : 0the msg is note_on channel=3 note=65 velocity=100 time=1
 i : 0the msg is note_on channel=3 note=65 velocity=0 time=239
 i : 0the msg is note_on channel=3 note=67 velocity=100 time=1
 i : 0the msg is note_on channel=3 note=67 velocity=0 time=239
 i : 0the msg is note_on channel=3 note=67 velocity=100 time=721
 i : 0the msg is note_on channel=3 note=67 velocity=0 time=239
 i : 0the msg is note_on channel=3 note=67 velocity=100 time=1
 i : 0the msg is note_on channel=3 note=67 velocity=0 time=239
 i : 0the msg is note_on channel=3 note=62 velocity=100 time=1
 i : 0the msg is note_on channel=3 note=62 velocity=0 time=239
 i : 0the msg is note_on channel=3 note=65 velocity=100 time=1
 i : 0the msg is note_on channel=3 note=65 velocity=0 time=480
 i : 0the msg is note_on channel=3 note=62 velocity=100 time=480
 i : 0the msg is note_on channel=3 note=62 velocity=0 time=239
 i : 0the msg is note_on channel=3 note=62 velocity=100 time=1
 i : 0the msg is note_on channel=3 note=62 velocity=0 time=239
 i : 0the msg is note_on channel=3 note=65 velocity=100 time=1
 i : 0the msg is note_on channel=3 note=65 velocity=0 time=239
 i : 0the msg is note_on channel=3 note=62 velocity=100 time=1
 i : 0the msg is note_on channel=3 note=62 velocity=0 time=239
 i : 0the msg is note_on channel=3 note=62 velocity=100 time=241
 i : 0the msg is note_on channel=3 note=62 velocity=0 time=720
 i : 0the msg is note_on channel=3 note=67 velocity=100 time=6720
 i : 0the msg is note_on channel=3 note=67 velocity=0 time=240
 i : 0the msg is note_on channel=3 note=65 velocity=100 time=0
 i : 0the msg is note_on channel=3 note=62 velocity=100 time=480
 i : 0the msg is note_on channel=3 note=62 velocity=0 time=239
 i : 0the msg is note_on channel=3 note=65 velocity=0 time=1
 i : 0the msg is note_on channel=3 note=65 velocity=100 time=0
 i : 0the msg is note_on channel=3 note=65 velocity=0 time=239
 i : 0the msg is note_on channel=3 note=62 velocity=100 time=1
 i : 0the msg is note_on channel=3 note=62 velocity=0 time=239
 i : 0the msg is note_on channel=3 note=65 velocity=100 time=1
 i : 0the msg is note_on channel=3 note=65 velocity=0 time=239
 i : 0the msg is note_on channel=3 note=62 velocity=100 time=241
 i : 0the msg is note_on channel=3 note=62 velocity=0 time=239
 i : 0the msg is note_on channel=3 note=67 velocity=100 time=1681
 i : 0the msg is note_on channel=3 note=67 velocity=0 time=240
 i : 0the msg is note_on channel=3 note=65 velocity=100 time=0
 i : 0the msg is note_on channel=3 note=62 velocity=100 time=480
 i : 0the msg is note_on channel=3 note=62 velocity=0 time=239
 i : 0the msg is note_on channel=3 note=65 velocity=0 time=1
 i : 0the msg is note_on channel=3 note=65 velocity=100 time=0
 i : 0the msg is note_on channel=3 note=65 velocity=0 time=239
 i : 0the msg is note_on channel=3 note=62 velocity=100 time=1
 i : 0the msg is note_on channel=3 note=62 velocity=0 time=239
 i : 0the msg is note_on channel=3 note=65 velocity=100 time=1
 i : 0the msg is note_on channel=3 note=65 velocity=0 time=239
 i : 0the msg is note_on channel=3 note=62 velocity=100 time=241
 i : 0the msg is note_on channel=3 note=62 velocity=0 time=239
 i : 0the msg is note_on channel=3 note=67 velocity=100 time=1681
 i : 0the msg is note_on channel=3 note=67 velocity=0 time=240
 i : 0the msg is note_on channel=3 note=65 velocity=100 time=0
 i : 0the msg is note_on channel=3 note=62 velocity=100 time=480
 i : 0the msg is note_on channel=3 note=62 velocity=0 time=239
 i : 0the msg is note_on channel=3 note=65 velocity=0 time=1
 i : 0the msg is note_on channel=3 note=65 velocity=100 time=0
 i : 0the msg is note_on channel=3 note=65 velocity=0 time=239
 i : 0the msg is note_on channel=3 note=62 velocity=100 time=1
 i : 0the msg is note_on channel=3 note=62 velocity=0 time=239
 i : 0the msg is note_on channel=3 note=65 velocity=100 time=1
 i : 0the msg is note_on channel=3 note=65 velocity=0 time=239
 i : 0the msg is note_on channel=3 note=62 velocity=100 time=241
 i : 0the msg is note_on channel=3 note=62 velocity=0 time=239
 i : 0the msg is note_on channel=3 note=67 velocity=100 time=1681
 i : 0the msg is note_on channel=3 note=67 velocity=0 time=240
 i : 0the msg is note_on channel=3 note=65 velocity=100 time=0
 i : 0the msg is note_on channel=3 note=62 velocity=100 time=480
 i : 0the msg is note_on channel=3 note=62 velocity=0 time=239
 i : 0the msg is note_on channel=3 note=65 velocity=0 time=1
 i : 0the msg is note_on channel=3 note=65 velocity=100 time=0
 i : 0the msg is note_on channel=3 note=65 velocity=0 time=239
 i : 0the msg is note_on channel=3 note=62 velocity=100 time=1
 i : 0the msg is note_on channel=3 note=62 velocity=0 time=239
 i : 0the msg is note_on channel=3 note=65 velocity=100 time=1
 i : 0the msg is note_on channel=3 note=65 velocity=0 time=239
 i : 0the msg is note_on channel=3 note=62 velocity=100 time=241
 i : 0the msg is note_on channel=3 note=62 velocity=0 time=239
 i : 0the msg is <meta message end_of_track time=0>
