the msg is <meta message track_name name='outTest85_512_1.0.mid' time=0>
the msg is <meta message time_signature numerator=4 denominator=4 clocks_per_click=24 notated_32nd_notes_per_beat=8 time=0>
the msg is <meta message set_tempo tempo=500000 time=0>
the msg is <meta message end_of_track time=0>
the msg is <meta message track_name name='outTest85_512_1.0.mid' time=0>
the msg is <meta message time_signature numerator=4 denominator=4 clocks_per_click=24 notated_32nd_notes_per_beat=8 time=0>
the msg is <meta message set_tempo tempo=500000 time=0>
the msg is <meta message end_of_track time=0>
the msg is <meta message track_name name='outTest85_512_1.0.mid' time=0>
the msg is <meta message time_signature numerator=4 denominator=4 clocks_per_click=24 notated_32nd_notes_per_beat=8 time=0>
the msg is <meta message set_tempo tempo=500000 time=0>
the msg is <meta message end_of_track time=0>
the msg is <meta message track_name name='outTest85_512_1.0.mid' time=0>
the msg is <meta message time_signature numerator=4 denominator=4 clocks_per_click=24 notated_32nd_notes_per_beat=8 time=0>
the msg is <meta message set_tempo tempo=500000 time=0>
the msg is <meta message end_of_track time=0>
the msg is <meta message track_name name='outTest85_512_1.0.mid' time=0>
the msg is note_on channel=9 note=69 velocity=100 time=1
the msg is note_off channel=9 note=69 velocity=100 time=1
the msg is note_on channel=9 note=72 velocity=100 time=75
the msg is note_off channel=9 note=72 velocity=100 time=1
the msg is note_on channel=9 note=72 velocity=100 time=4
the msg is note_off channel=9 note=72 velocity=100 time=1
the msg is note_on channel=9 note=72 velocity=100 time=4
the msg is note_off channel=9 note=72 velocity=100 time=1
the msg is note_on channel=9 note=72 velocity=100 time=10
the msg is note_off channel=9 note=72 velocity=100 time=1
the msg is note_on channel=9 note=74 velocity=100 time=10
the msg is note_off channel=9 note=74 velocity=100 time=1
the msg is note_on channel=9 note=74 velocity=100 time=4
the msg is note_off channel=9 note=74 velocity=100 time=1
the msg is note_on channel=9 note=71 velocity=100 time=4
the msg is note_off channel=9 note=71 velocity=100 time=1
the msg is note_on channel=9 note=74 velocity=100 time=10
the msg is note_off channel=9 note=74 velocity=100 time=1
the msg is note_on channel=9 note=74 velocity=100 time=4
the msg is note_off channel=9 note=74 velocity=100 time=1
the msg is note_on channel=9 note=71 velocity=100 time=4
the msg is note_off channel=9 note=71 velocity=100 time=1
the msg is note_on channel=9 note=71 velocity=100 time=4
the msg is note_off channel=9 note=71 velocity=100 time=1
the msg is note_on channel=9 note=69 velocity=100 time=4
the msg is note_off channel=9 note=69 velocity=100 time=1
the msg is note_on channel=9 note=72 velocity=100 time=55
the msg is note_off channel=9 note=72 velocity=100 time=1
the msg is note_on channel=9 note=72 velocity=100 time=10
the msg is note_off channel=9 note=72 velocity=100 time=1
the msg is note_on channel=9 note=72 velocity=100 time=4
the msg is note_off channel=9 note=72 velocity=100 time=1
the msg is note_on channel=9 note=72 velocity=100 time=4
the msg is note_off channel=9 note=72 velocity=100 time=1
the msg is note_on channel=9 note=72 velocity=100 time=4
the msg is note_off channel=9 note=72 velocity=100 time=1
the msg is note_on channel=9 note=76 velocity=100 time=4
the msg is note_off channel=9 note=76 velocity=100 time=1
the msg is note_on channel=9 note=79 velocity=100 time=10
the msg is note_off channel=9 note=79 velocity=100 time=1
the msg is note_on channel=9 note=76 velocity=100 time=10
the msg is note_off channel=9 note=76 velocity=100 time=1
the msg is note_on channel=9 note=79 velocity=100 time=10
the msg is note_off channel=9 note=79 velocity=100 time=1
the msg is note_on channel=9 note=79 velocity=100 time=4
the msg is note_off channel=9 note=79 velocity=100 time=1
the msg is note_on channel=9 note=76 velocity=100 time=4
the msg is note_off channel=9 note=76 velocity=100 time=1
the msg is note_on channel=9 note=74 velocity=100 time=4
the msg is note_off channel=9 note=74 velocity=100 time=1
the msg is note_on channel=9 note=72 velocity=100 time=4
the msg is note_off channel=9 note=72 velocity=100 time=1
the msg is note_on channel=9 note=74 velocity=100 time=10
the msg is note_off channel=9 note=74 velocity=100 time=1
the msg is note_on channel=9 note=74 velocity=100 time=10
the msg is note_off channel=9 note=74 velocity=100 time=1
the msg is note_on channel=9 note=74 velocity=100 time=10
the msg is note_off channel=9 note=74 velocity=100 time=1
the msg is note_on channel=9 note=76 velocity=100 time=10
the msg is note_off channel=9 note=76 velocity=100 time=1
the msg is note_on channel=9 note=79 velocity=100 time=10
the msg is note_off channel=9 note=79 velocity=100 time=1
the msg is note_on channel=9 note=79 velocity=100 time=6
the msg is note_off channel=9 note=79 velocity=100 time=1
the msg is note_on channel=9 note=76 velocity=100 time=3
the msg is note_off channel=9 note=76 velocity=100 time=1
the msg is note_on channel=9 note=74 velocity=100 time=6
the msg is note_off channel=9 note=74 velocity=100 time=1
the msg is note_on channel=9 note=72 velocity=100 time=3
the msg is note_off channel=9 note=72 velocity=100 time=1
the msg is note_on channel=9 note=74 velocity=100 time=10
the msg is note_off channel=9 note=74 velocity=100 time=1
the msg is note_on channel=9 note=76 velocity=100 time=10
the msg is note_off channel=9 note=76 velocity=100 time=1
the msg is note_on channel=9 note=72 velocity=100 time=4
the msg is note_off channel=9 note=72 velocity=100 time=1
the msg is note_on channel=9 note=74 velocity=100 time=4
the msg is note_off channel=9 note=74 velocity=100 time=1
the msg is note_on channel=9 note=74 velocity=100 time=10
the msg is note_off channel=9 note=74 velocity=100 time=1
the msg is note_on channel=9 note=74 velocity=100 time=10
the msg is note_off channel=9 note=74 velocity=100 time=1
the msg is note_on channel=9 note=74 velocity=100 time=4
the msg is note_off channel=9 note=74 velocity=100 time=1
the msg is note_on channel=9 note=71 velocity=100 time=4
the msg is note_off channel=9 note=71 velocity=100 time=1
the msg is note_on channel=9 note=74 velocity=100 time=10
the msg is note_off channel=9 note=74 velocity=100 time=1
the msg is note_on channel=9 note=74 velocity=100 time=10
the msg is note_off channel=9 note=74 velocity=100 time=1
the msg is note_on channel=9 note=72 velocity=100 time=3
the msg is note_off channel=9 note=72 velocity=100 time=1
the msg is note_on channel=9 note=74 velocity=100 time=10
the msg is note_off channel=9 note=74 velocity=100 time=1
the msg is note_on channel=9 note=74 velocity=100 time=10
the msg is note_off channel=9 note=74 velocity=100 time=1
the msg is note_on channel=9 note=74 velocity=100 time=4
the msg is note_off channel=9 note=74 velocity=100 time=1
the msg is note_on channel=9 note=71 velocity=100 time=4
the msg is note_off channel=9 note=71 velocity=100 time=1
the msg is note_on channel=9 note=74 velocity=100 time=4
the msg is note_off channel=9 note=74 velocity=100 time=1
the msg is note_on channel=9 note=76 velocity=100 time=10
the msg is note_off channel=9 note=76 velocity=100 time=1
the msg is note_on channel=9 note=79 velocity=100 time=10
the msg is note_off channel=9 note=79 velocity=100 time=1
the msg is note_on channel=9 note=72 velocity=100 time=3
the msg is note_off channel=9 note=72 velocity=100 time=1
the msg is note_on channel=9 note=72 velocity=100 time=6
the msg is note_off channel=9 note=72 velocity=100 time=1
the msg is note_on channel=9 note=72 velocity=100 time=3
the msg is note_off channel=9 note=72 velocity=100 time=1
the msg is note_on channel=9 note=72 velocity=100 time=10
the msg is note_off channel=9 note=72 velocity=100 time=1
the msg is note_on channel=9 note=72 velocity=100 time=4
the msg is note_off channel=9 note=72 velocity=100 time=1
the msg is note_on channel=9 note=72 velocity=100 time=4
the msg is note_off channel=9 note=72 velocity=100 time=1
the msg is <meta message end_of_track time=0>
the msg is <meta message track_name name='outTest85_512_1.0.mid' time=0>
the msg is note_on channel=9 note=69 velocity=100 time=1
the msg is note_off channel=9 note=69 velocity=100 time=1
the msg is note_on channel=9 note=72 velocity=100 time=75
the msg is note_off channel=9 note=72 velocity=100 time=1
the msg is note_on channel=9 note=72 velocity=100 time=4
the msg is note_off channel=9 note=72 velocity=100 time=1
the msg is note_on channel=9 note=72 velocity=100 time=4
the msg is note_off channel=9 note=72 velocity=100 time=1
the msg is note_on channel=9 note=72 velocity=100 time=10
the msg is note_off channel=9 note=72 velocity=100 time=1
the msg is note_on channel=9 note=74 velocity=100 time=10
the msg is note_off channel=9 note=74 velocity=100 time=1
the msg is note_on channel=9 note=74 velocity=100 time=4
the msg is note_off channel=9 note=74 velocity=100 time=1
the msg is note_on channel=9 note=71 velocity=100 time=4
the msg is note_off channel=9 note=71 velocity=100 time=1
the msg is note_on channel=9 note=74 velocity=100 time=10
the msg is note_off channel=9 note=74 velocity=100 time=1
the msg is note_on channel=9 note=74 velocity=100 time=4
the msg is note_off channel=9 note=74 velocity=100 time=1
the msg is note_on channel=9 note=71 velocity=100 time=4
the msg is note_off channel=9 note=71 velocity=100 time=1
the msg is note_on channel=9 note=71 velocity=100 time=4
the msg is note_off channel=9 note=71 velocity=100 time=1
the msg is note_on channel=9 note=69 velocity=100 time=4
the msg is note_off channel=9 note=69 velocity=100 time=1
the msg is note_on channel=9 note=72 velocity=100 time=55
the msg is note_off channel=9 note=72 velocity=100 time=1
the msg is note_on channel=9 note=72 velocity=100 time=10
the msg is note_off channel=9 note=72 velocity=100 time=1
the msg is note_on channel=9 note=72 velocity=100 time=4
the msg is note_off channel=9 note=72 velocity=100 time=1
the msg is note_on channel=9 note=72 velocity=100 time=4
the msg is note_off channel=9 note=72 velocity=100 time=1
the msg is note_on channel=9 note=72 velocity=100 time=4
the msg is note_off channel=9 note=72 velocity=100 time=1
the msg is note_on channel=9 note=76 velocity=100 time=4
the msg is note_off channel=9 note=76 velocity=100 time=1
the msg is note_on channel=9 note=79 velocity=100 time=10
the msg is note_off channel=9 note=79 velocity=100 time=1
the msg is note_on channel=9 note=76 velocity=100 time=10
the msg is note_off channel=9 note=76 velocity=100 time=1
the msg is note_on channel=9 note=79 velocity=100 time=10
the msg is note_off channel=9 note=79 velocity=100 time=1
the msg is note_on channel=9 note=79 velocity=100 time=4
the msg is note_off channel=9 note=79 velocity=100 time=1
the msg is note_on channel=9 note=76 velocity=100 time=4
the msg is note_off channel=9 note=76 velocity=100 time=1
the msg is note_on channel=9 note=74 velocity=100 time=4
the msg is note_off channel=9 note=74 velocity=100 time=1
the msg is note_on channel=9 note=72 velocity=100 time=4
the msg is note_off channel=9 note=72 velocity=100 time=1
the msg is note_on channel=9 note=74 velocity=100 time=10
the msg is note_off channel=9 note=74 velocity=100 time=1
the msg is note_on channel=9 note=74 velocity=100 time=10
the msg is note_off channel=9 note=74 velocity=100 time=1
the msg is note_on channel=9 note=74 velocity=100 time=10
the msg is note_off channel=9 note=74 velocity=100 time=1
the msg is note_on channel=9 note=76 velocity=100 time=10
the msg is note_off channel=9 note=76 velocity=100 time=1
the msg is note_on channel=9 note=79 velocity=100 time=10
the msg is note_off channel=9 note=79 velocity=100 time=1
the msg is note_on channel=9 note=79 velocity=100 time=6
the msg is note_off channel=9 note=79 velocity=100 time=1
the msg is note_on channel=9 note=76 velocity=100 time=3
the msg is note_off channel=9 note=76 velocity=100 time=1
the msg is note_on channel=9 note=74 velocity=100 time=6
the msg is note_off channel=9 note=74 velocity=100 time=1
the msg is note_on channel=9 note=72 velocity=100 time=3
the msg is note_off channel=9 note=72 velocity=100 time=1
the msg is note_on channel=9 note=74 velocity=100 time=10
the msg is note_off channel=9 note=74 velocity=100 time=1
the msg is note_on channel=9 note=76 velocity=100 time=10
the msg is note_off channel=9 note=76 velocity=100 time=1
the msg is note_on channel=9 note=72 velocity=100 time=4
the msg is note_off channel=9 note=72 velocity=100 time=1
the msg is note_on channel=9 note=74 velocity=100 time=4
the msg is note_off channel=9 note=74 velocity=100 time=1
the msg is note_on channel=9 note=74 velocity=100 time=10
the msg is note_off channel=9 note=74 velocity=100 time=1
the msg is note_on channel=9 note=74 velocity=100 time=10
the msg is note_off channel=9 note=74 velocity=100 time=1
the msg is note_on channel=9 note=74 velocity=100 time=4
the msg is note_off channel=9 note=74 velocity=100 time=1
the msg is note_on channel=9 note=71 velocity=100 time=4
the msg is note_off channel=9 note=71 velocity=100 time=1
the msg is note_on channel=9 note=74 velocity=100 time=10
the msg is note_off channel=9 note=74 velocity=100 time=1
the msg is note_on channel=9 note=74 velocity=100 time=10
the msg is note_off channel=9 note=74 velocity=100 time=1
the msg is note_on channel=9 note=72 velocity=100 time=3
the msg is note_off channel=9 note=72 velocity=100 time=1
the msg is note_on channel=9 note=74 velocity=100 time=10
the msg is note_off channel=9 note=74 velocity=100 time=1
the msg is note_on channel=9 note=74 velocity=100 time=10
the msg is note_off channel=9 note=74 velocity=100 time=1
the msg is note_on channel=9 note=74 velocity=100 time=4
the msg is note_off channel=9 note=74 velocity=100 time=1
the msg is note_on channel=9 note=71 velocity=100 time=4
the msg is note_off channel=9 note=71 velocity=100 time=1
the msg is note_on channel=9 note=74 velocity=100 time=4
the msg is note_off channel=9 note=74 velocity=100 time=1
the msg is note_on channel=9 note=76 velocity=100 time=10
the msg is note_off channel=9 note=76 velocity=100 time=1
the msg is note_on channel=9 note=79 velocity=100 time=10
the msg is note_off channel=9 note=79 velocity=100 time=1
the msg is note_on channel=9 note=72 velocity=100 time=3
the msg is note_off channel=9 note=72 velocity=100 time=1
the msg is note_on channel=9 note=72 velocity=100 time=6
the msg is note_off channel=9 note=72 velocity=100 time=1
the msg is note_on channel=9 note=72 velocity=100 time=3
the msg is note_off channel=9 note=72 velocity=100 time=1
the msg is note_on channel=9 note=72 velocity=100 time=10
the msg is note_off channel=9 note=72 velocity=100 time=1
the msg is note_on channel=9 note=72 velocity=100 time=4
the msg is note_off channel=9 note=72 velocity=100 time=1
the msg is note_on channel=9 note=72 velocity=100 time=4
the msg is note_off channel=9 note=72 velocity=100 time=1
the msg is <meta message end_of_track time=0>
the msg is <meta message track_name name='outTest85_512_1.0.mid' time=0>
the msg is note_on channel=9 note=69 velocity=100 time=1
the msg is note_off channel=9 note=69 velocity=100 time=1
the msg is note_on channel=9 note=72 velocity=100 time=75
the msg is note_off channel=9 note=72 velocity=100 time=1
the msg is note_on channel=9 note=72 velocity=100 time=4
the msg is note_off channel=9 note=72 velocity=100 time=1
the msg is note_on channel=9 note=72 velocity=100 time=4
the msg is note_off channel=9 note=72 velocity=100 time=1
the msg is note_on channel=9 note=72 velocity=100 time=10
the msg is note_off channel=9 note=72 velocity=100 time=1
the msg is note_on channel=9 note=74 velocity=100 time=10
the msg is note_off channel=9 note=74 velocity=100 time=1
the msg is note_on channel=9 note=74 velocity=100 time=4
the msg is note_off channel=9 note=74 velocity=100 time=1
the msg is note_on channel=9 note=71 velocity=100 time=4
the msg is note_off channel=9 note=71 velocity=100 time=1
the msg is note_on channel=9 note=74 velocity=100 time=10
the msg is note_off channel=9 note=74 velocity=100 time=1
the msg is note_on channel=9 note=74 velocity=100 time=4
the msg is note_off channel=9 note=74 velocity=100 time=1
the msg is note_on channel=9 note=71 velocity=100 time=4
the msg is note_off channel=9 note=71 velocity=100 time=1
the msg is note_on channel=9 note=71 velocity=100 time=4
the msg is note_off channel=9 note=71 velocity=100 time=1
the msg is note_on channel=9 note=69 velocity=100 time=4
the msg is note_off channel=9 note=69 velocity=100 time=1
the msg is note_on channel=9 note=72 velocity=100 time=55
the msg is note_off channel=9 note=72 velocity=100 time=1
the msg is note_on channel=9 note=72 velocity=100 time=10
the msg is note_off channel=9 note=72 velocity=100 time=1
the msg is note_on channel=9 note=72 velocity=100 time=4
the msg is note_off channel=9 note=72 velocity=100 time=1
the msg is note_on channel=9 note=72 velocity=100 time=4
the msg is note_off channel=9 note=72 velocity=100 time=1
the msg is note_on channel=9 note=72 velocity=100 time=4
the msg is note_off channel=9 note=72 velocity=100 time=1
the msg is note_on channel=9 note=76 velocity=100 time=4
the msg is note_off channel=9 note=76 velocity=100 time=1
the msg is note_on channel=9 note=79 velocity=100 time=10
the msg is note_off channel=9 note=79 velocity=100 time=1
the msg is note_on channel=9 note=76 velocity=100 time=10
the msg is note_off channel=9 note=76 velocity=100 time=1
the msg is note_on channel=9 note=79 velocity=100 time=10
the msg is note_off channel=9 note=79 velocity=100 time=1
the msg is note_on channel=9 note=79 velocity=100 time=4
the msg is note_off channel=9 note=79 velocity=100 time=1
the msg is note_on channel=9 note=76 velocity=100 time=4
the msg is note_off channel=9 note=76 velocity=100 time=1
the msg is note_on channel=9 note=74 velocity=100 time=4
the msg is note_off channel=9 note=74 velocity=100 time=1
the msg is note_on channel=9 note=72 velocity=100 time=4
the msg is note_off channel=9 note=72 velocity=100 time=1
the msg is note_on channel=9 note=74 velocity=100 time=10
the msg is note_off channel=9 note=74 velocity=100 time=1
the msg is note_on channel=9 note=74 velocity=100 time=10
the msg is note_off channel=9 note=74 velocity=100 time=1
the msg is note_on channel=9 note=74 velocity=100 time=10
the msg is note_off channel=9 note=74 velocity=100 time=1
the msg is note_on channel=9 note=76 velocity=100 time=10
the msg is note_off channel=9 note=76 velocity=100 time=1
the msg is note_on channel=9 note=79 velocity=100 time=10
the msg is note_off channel=9 note=79 velocity=100 time=1
the msg is note_on channel=9 note=79 velocity=100 time=6
the msg is note_off channel=9 note=79 velocity=100 time=1
the msg is note_on channel=9 note=76 velocity=100 time=3
the msg is note_off channel=9 note=76 velocity=100 time=1
the msg is note_on channel=9 note=74 velocity=100 time=6
the msg is note_off channel=9 note=74 velocity=100 time=1
the msg is note_on channel=9 note=72 velocity=100 time=3
the msg is note_off channel=9 note=72 velocity=100 time=1
the msg is note_on channel=9 note=74 velocity=100 time=10
the msg is note_off channel=9 note=74 velocity=100 time=1
the msg is note_on channel=9 note=76 velocity=100 time=10
the msg is note_off channel=9 note=76 velocity=100 time=1
the msg is note_on channel=9 note=72 velocity=100 time=4
the msg is note_off channel=9 note=72 velocity=100 time=1
the msg is note_on channel=9 note=74 velocity=100 time=4
the msg is note_off channel=9 note=74 velocity=100 time=1
the msg is note_on channel=9 note=74 velocity=100 time=10
the msg is note_off channel=9 note=74 velocity=100 time=1
the msg is note_on channel=9 note=74 velocity=100 time=10
the msg is note_off channel=9 note=74 velocity=100 time=1
the msg is note_on channel=9 note=74 velocity=100 time=4
the msg is note_off channel=9 note=74 velocity=100 time=1
the msg is note_on channel=9 note=71 velocity=100 time=4
the msg is note_off channel=9 note=71 velocity=100 time=1
the msg is note_on channel=9 note=74 velocity=100 time=10
the msg is note_off channel=9 note=74 velocity=100 time=1
the msg is note_on channel=9 note=74 velocity=100 time=10
the msg is note_off channel=9 note=74 velocity=100 time=1
the msg is note_on channel=9 note=72 velocity=100 time=3
the msg is note_off channel=9 note=72 velocity=100 time=1
the msg is note_on channel=9 note=74 velocity=100 time=10
the msg is note_off channel=9 note=74 velocity=100 time=1
the msg is note_on channel=9 note=74 velocity=100 time=10
the msg is note_off channel=9 note=74 velocity=100 time=1
the msg is note_on channel=9 note=74 velocity=100 time=4
the msg is note_off channel=9 note=74 velocity=100 time=1
the msg is note_on channel=9 note=71 velocity=100 time=4
the msg is note_off channel=9 note=71 velocity=100 time=1
the msg is note_on channel=9 note=74 velocity=100 time=4
the msg is note_off channel=9 note=74 velocity=100 time=1
the msg is note_on channel=9 note=76 velocity=100 time=10
the msg is note_off channel=9 note=76 velocity=100 time=1
the msg is note_on channel=9 note=79 velocity=100 time=10
the msg is note_off channel=9 note=79 velocity=100 time=1
the msg is note_on channel=9 note=72 velocity=100 time=3
the msg is note_off channel=9 note=72 velocity=100 time=1
the msg is note_on channel=9 note=72 velocity=100 time=6
the msg is note_off channel=9 note=72 velocity=100 time=1
the msg is note_on channel=9 note=72 velocity=100 time=3
the msg is note_off channel=9 note=72 velocity=100 time=1
the msg is note_on channel=9 note=72 velocity=100 time=10
the msg is note_off channel=9 note=72 velocity=100 time=1
the msg is note_on channel=9 note=72 velocity=100 time=4
the msg is note_off channel=9 note=72 velocity=100 time=1
the msg is note_on channel=9 note=72 velocity=100 time=4
the msg is note_off channel=9 note=72 velocity=100 time=1
the msg is <meta message end_of_track time=0>
the msg is <meta message track_name name='outTest85_512_1.0.mid' time=0>
the msg is note_on channel=9 note=69 velocity=100 time=1
the msg is note_off channel=9 note=69 velocity=100 time=1
the msg is note_on channel=9 note=72 velocity=100 time=75
the msg is note_off channel=9 note=72 velocity=100 time=1
the msg is note_on channel=9 note=72 velocity=100 time=4
the msg is note_off channel=9 note=72 velocity=100 time=1
the msg is note_on channel=9 note=72 velocity=100 time=4
the msg is note_off channel=9 note=72 velocity=100 time=1
the msg is note_on channel=9 note=72 velocity=100 time=10
the msg is note_off channel=9 note=72 velocity=100 time=1
the msg is note_on channel=9 note=74 velocity=100 time=10
the msg is note_off channel=9 note=74 velocity=100 time=1
the msg is note_on channel=9 note=74 velocity=100 time=4
the msg is note_off channel=9 note=74 velocity=100 time=1
the msg is note_on channel=9 note=71 velocity=100 time=4
the msg is note_off channel=9 note=71 velocity=100 time=1
the msg is note_on channel=9 note=74 velocity=100 time=10
the msg is note_off channel=9 note=74 velocity=100 time=1
the msg is note_on channel=9 note=74 velocity=100 time=4
the msg is note_off channel=9 note=74 velocity=100 time=1
the msg is note_on channel=9 note=71 velocity=100 time=4
the msg is note_off channel=9 note=71 velocity=100 time=1
the msg is note_on channel=9 note=71 velocity=100 time=4
the msg is note_off channel=9 note=71 velocity=100 time=1
the msg is note_on channel=9 note=69 velocity=100 time=4
the msg is note_off channel=9 note=69 velocity=100 time=1
the msg is note_on channel=9 note=72 velocity=100 time=55
the msg is note_off channel=9 note=72 velocity=100 time=1
the msg is note_on channel=9 note=72 velocity=100 time=10
the msg is note_off channel=9 note=72 velocity=100 time=1
the msg is note_on channel=9 note=72 velocity=100 time=4
the msg is note_off channel=9 note=72 velocity=100 time=1
the msg is note_on channel=9 note=72 velocity=100 time=4
the msg is note_off channel=9 note=72 velocity=100 time=1
the msg is note_on channel=9 note=72 velocity=100 time=4
the msg is note_off channel=9 note=72 velocity=100 time=1
the msg is note_on channel=9 note=76 velocity=100 time=4
the msg is note_off channel=9 note=76 velocity=100 time=1
the msg is note_on channel=9 note=79 velocity=100 time=10
the msg is note_off channel=9 note=79 velocity=100 time=1
the msg is note_on channel=9 note=76 velocity=100 time=10
the msg is note_off channel=9 note=76 velocity=100 time=1
the msg is note_on channel=9 note=79 velocity=100 time=10
the msg is note_off channel=9 note=79 velocity=100 time=1
the msg is note_on channel=9 note=79 velocity=100 time=4
the msg is note_off channel=9 note=79 velocity=100 time=1
the msg is note_on channel=9 note=76 velocity=100 time=4
the msg is note_off channel=9 note=76 velocity=100 time=1
the msg is note_on channel=9 note=74 velocity=100 time=4
the msg is note_off channel=9 note=74 velocity=100 time=1
the msg is note_on channel=9 note=72 velocity=100 time=4
the msg is note_off channel=9 note=72 velocity=100 time=1
the msg is note_on channel=9 note=74 velocity=100 time=10
the msg is note_off channel=9 note=74 velocity=100 time=1
the msg is note_on channel=9 note=74 velocity=100 time=10
the msg is note_off channel=9 note=74 velocity=100 time=1
the msg is note_on channel=9 note=74 velocity=100 time=10
the msg is note_off channel=9 note=74 velocity=100 time=1
the msg is note_on channel=9 note=76 velocity=100 time=10
the msg is note_off channel=9 note=76 velocity=100 time=1
the msg is note_on channel=9 note=79 velocity=100 time=10
the msg is note_off channel=9 note=79 velocity=100 time=1
the msg is note_on channel=9 note=79 velocity=100 time=6
the msg is note_off channel=9 note=79 velocity=100 time=1
the msg is note_on channel=9 note=76 velocity=100 time=3
the msg is note_off channel=9 note=76 velocity=100 time=1
the msg is note_on channel=9 note=74 velocity=100 time=6
the msg is note_off channel=9 note=74 velocity=100 time=1
the msg is note_on channel=9 note=72 velocity=100 time=3
the msg is note_off channel=9 note=72 velocity=100 time=1
the msg is note_on channel=9 note=74 velocity=100 time=10
the msg is note_off channel=9 note=74 velocity=100 time=1
the msg is note_on channel=9 note=76 velocity=100 time=10
the msg is note_off channel=9 note=76 velocity=100 time=1
the msg is note_on channel=9 note=72 velocity=100 time=4
the msg is note_off channel=9 note=72 velocity=100 time=1
the msg is note_on channel=9 note=74 velocity=100 time=4
the msg is note_off channel=9 note=74 velocity=100 time=1
the msg is note_on channel=9 note=74 velocity=100 time=10
the msg is note_off channel=9 note=74 velocity=100 time=1
the msg is note_on channel=9 note=74 velocity=100 time=10
the msg is note_off channel=9 note=74 velocity=100 time=1
the msg is note_on channel=9 note=74 velocity=100 time=4
the msg is note_off channel=9 note=74 velocity=100 time=1
the msg is note_on channel=9 note=71 velocity=100 time=4
the msg is note_off channel=9 note=71 velocity=100 time=1
the msg is note_on channel=9 note=74 velocity=100 time=10
the msg is note_off channel=9 note=74 velocity=100 time=1
the msg is note_on channel=9 note=74 velocity=100 time=10
the msg is note_off channel=9 note=74 velocity=100 time=1
the msg is note_on channel=9 note=72 velocity=100 time=3
the msg is note_off channel=9 note=72 velocity=100 time=1
the msg is note_on channel=9 note=74 velocity=100 time=10
the msg is note_off channel=9 note=74 velocity=100 time=1
the msg is note_on channel=9 note=74 velocity=100 time=10
the msg is note_off channel=9 note=74 velocity=100 time=1
the msg is note_on channel=9 note=74 velocity=100 time=4
the msg is note_off channel=9 note=74 velocity=100 time=1
the msg is note_on channel=9 note=71 velocity=100 time=4
the msg is note_off channel=9 note=71 velocity=100 time=1
the msg is note_on channel=9 note=74 velocity=100 time=4
the msg is note_off channel=9 note=74 velocity=100 time=1
the msg is note_on channel=9 note=76 velocity=100 time=10
the msg is note_off channel=9 note=76 velocity=100 time=1
the msg is note_on channel=9 note=79 velocity=100 time=10
the msg is note_off channel=9 note=79 velocity=100 time=1
the msg is note_on channel=9 note=72 velocity=100 time=3
the msg is note_off channel=9 note=72 velocity=100 time=1
the msg is note_on channel=9 note=72 velocity=100 time=6
the msg is note_off channel=9 note=72 velocity=100 time=1
the msg is note_on channel=9 note=72 velocity=100 time=3
the msg is note_off channel=9 note=72 velocity=100 time=1
the msg is note_on channel=9 note=72 velocity=100 time=10
the msg is note_off channel=9 note=72 velocity=100 time=1
the msg is note_on channel=9 note=72 velocity=100 time=4
the msg is note_off channel=9 note=72 velocity=100 time=1
the msg is note_on channel=9 note=72 velocity=100 time=4
the msg is note_off channel=9 note=72 velocity=100 time=1
the msg is <meta message end_of_track time=0>
the msg is <meta message track_name name='outTest85_512_1.0.mid' time=0>
the msg is note_on channel=9 note=69 velocity=100 time=1
the msg is note_off channel=9 note=69 velocity=100 time=1
the msg is note_on channel=9 note=72 velocity=100 time=75
the msg is note_off channel=9 note=72 velocity=100 time=1
the msg is note_on channel=9 note=72 velocity=100 time=4
the msg is note_off channel=9 note=72 velocity=100 time=1
the msg is note_on channel=9 note=72 velocity=100 time=4
the msg is note_off channel=9 note=72 velocity=100 time=1
the msg is note_on channel=9 note=72 velocity=100 time=10
the msg is note_off channel=9 note=72 velocity=100 time=1
the msg is note_on channel=9 note=74 velocity=100 time=10
the msg is note_off channel=9 note=74 velocity=100 time=1
the msg is note_on channel=9 note=74 velocity=100 time=4
the msg is note_off channel=9 note=74 velocity=100 time=1
the msg is note_on channel=9 note=71 velocity=100 time=4
the msg is note_off channel=9 note=71 velocity=100 time=1
the msg is note_on channel=9 note=74 velocity=100 time=10
the msg is note_off channel=9 note=74 velocity=100 time=1
the msg is note_on channel=9 note=74 velocity=100 time=4
the msg is note_off channel=9 note=74 velocity=100 time=1
the msg is note_on channel=9 note=71 velocity=100 time=4
the msg is note_off channel=9 note=71 velocity=100 time=1
the msg is note_on channel=9 note=71 velocity=100 time=4
the msg is note_off channel=9 note=71 velocity=100 time=1
the msg is note_on channel=9 note=69 velocity=100 time=4
the msg is note_off channel=9 note=69 velocity=100 time=1
the msg is note_on channel=9 note=72 velocity=100 time=55
the msg is note_off channel=9 note=72 velocity=100 time=1
the msg is note_on channel=9 note=72 velocity=100 time=10
the msg is note_off channel=9 note=72 velocity=100 time=1
the msg is note_on channel=9 note=72 velocity=100 time=4
the msg is note_off channel=9 note=72 velocity=100 time=1
the msg is note_on channel=9 note=72 velocity=100 time=4
the msg is note_off channel=9 note=72 velocity=100 time=1
the msg is note_on channel=9 note=72 velocity=100 time=4
the msg is note_off channel=9 note=72 velocity=100 time=1
the msg is note_on channel=9 note=76 velocity=100 time=4
the msg is note_off channel=9 note=76 velocity=100 time=1
the msg is note_on channel=9 note=79 velocity=100 time=10
the msg is note_off channel=9 note=79 velocity=100 time=1
the msg is note_on channel=9 note=76 velocity=100 time=10
the msg is note_off channel=9 note=76 velocity=100 time=1
the msg is note_on channel=9 note=79 velocity=100 time=10
the msg is note_off channel=9 note=79 velocity=100 time=1
the msg is note_on channel=9 note=79 velocity=100 time=4
the msg is note_off channel=9 note=79 velocity=100 time=1
the msg is note_on channel=9 note=76 velocity=100 time=4
the msg is note_off channel=9 note=76 velocity=100 time=1
the msg is note_on channel=9 note=74 velocity=100 time=4
the msg is note_off channel=9 note=74 velocity=100 time=1
the msg is note_on channel=9 note=72 velocity=100 time=4
the msg is note_off channel=9 note=72 velocity=100 time=1
the msg is note_on channel=9 note=74 velocity=100 time=10
the msg is note_off channel=9 note=74 velocity=100 time=1
the msg is note_on channel=9 note=74 velocity=100 time=10
the msg is note_off channel=9 note=74 velocity=100 time=1
the msg is note_on channel=9 note=74 velocity=100 time=10
the msg is note_off channel=9 note=74 velocity=100 time=1
the msg is note_on channel=9 note=76 velocity=100 time=10
the msg is note_off channel=9 note=76 velocity=100 time=1
the msg is note_on channel=9 note=79 velocity=100 time=10
the msg is note_off channel=9 note=79 velocity=100 time=1
the msg is note_on channel=9 note=79 velocity=100 time=6
the msg is note_off channel=9 note=79 velocity=100 time=1
the msg is note_on channel=9 note=76 velocity=100 time=3
the msg is note_off channel=9 note=76 velocity=100 time=1
the msg is note_on channel=9 note=74 velocity=100 time=6
the msg is note_off channel=9 note=74 velocity=100 time=1
the msg is note_on channel=9 note=72 velocity=100 time=3
the msg is note_off channel=9 note=72 velocity=100 time=1
the msg is note_on channel=9 note=74 velocity=100 time=10
the msg is note_off channel=9 note=74 velocity=100 time=1
the msg is note_on channel=9 note=76 velocity=100 time=10
the msg is note_off channel=9 note=76 velocity=100 time=1
the msg is note_on channel=9 note=72 velocity=100 time=4
the msg is note_off channel=9 note=72 velocity=100 time=1
the msg is note_on channel=9 note=74 velocity=100 time=4
the msg is note_off channel=9 note=74 velocity=100 time=1
the msg is note_on channel=9 note=74 velocity=100 time=10
the msg is note_off channel=9 note=74 velocity=100 time=1
the msg is note_on channel=9 note=74 velocity=100 time=10
the msg is note_off channel=9 note=74 velocity=100 time=1
the msg is note_on channel=9 note=74 velocity=100 time=4
the msg is note_off channel=9 note=74 velocity=100 time=1
the msg is note_on channel=9 note=71 velocity=100 time=4
the msg is note_off channel=9 note=71 velocity=100 time=1
the msg is note_on channel=9 note=74 velocity=100 time=10
the msg is note_off channel=9 note=74 velocity=100 time=1
the msg is note_on channel=9 note=74 velocity=100 time=10
the msg is note_off channel=9 note=74 velocity=100 time=1
the msg is note_on channel=9 note=72 velocity=100 time=3
the msg is note_off channel=9 note=72 velocity=100 time=1
the msg is note_on channel=9 note=74 velocity=100 time=10
the msg is note_off channel=9 note=74 velocity=100 time=1
the msg is note_on channel=9 note=74 velocity=100 time=10
the msg is note_off channel=9 note=74 velocity=100 time=1
the msg is note_on channel=9 note=74 velocity=100 time=4
the msg is note_off channel=9 note=74 velocity=100 time=1
the msg is note_on channel=9 note=71 velocity=100 time=4
the msg is note_off channel=9 note=71 velocity=100 time=1
the msg is note_on channel=9 note=74 velocity=100 time=4
the msg is note_off channel=9 note=74 velocity=100 time=1
the msg is note_on channel=9 note=76 velocity=100 time=10
the msg is note_off channel=9 note=76 velocity=100 time=1
the msg is note_on channel=9 note=79 velocity=100 time=10
the msg is note_off channel=9 note=79 velocity=100 time=1
the msg is note_on channel=9 note=72 velocity=100 time=3
the msg is note_off channel=9 note=72 velocity=100 time=1
the msg is note_on channel=9 note=72 velocity=100 time=6
the msg is note_off channel=9 note=72 velocity=100 time=1
the msg is note_on channel=9 note=72 velocity=100 time=3
the msg is note_off channel=9 note=72 velocity=100 time=1
the msg is note_on channel=9 note=72 velocity=100 time=10
the msg is note_off channel=9 note=72 velocity=100 time=1
the msg is note_on channel=9 note=72 velocity=100 time=4
the msg is note_off channel=9 note=72 velocity=100 time=1
the msg is note_on channel=9 note=72 velocity=100 time=4
the msg is note_off channel=9 note=72 velocity=100 time=1
the msg is <meta message end_of_track time=0>
the msg is <meta message track_name name='outTest85_512_1.0.mid' time=0>
the msg is note_on channel=9 note=69 velocity=100 time=1
the msg is note_off channel=9 note=69 velocity=100 time=1
the msg is note_on channel=9 note=72 velocity=100 time=75
the msg is note_off channel=9 note=72 velocity=100 time=1
the msg is note_on channel=9 note=72 velocity=100 time=4
the msg is note_off channel=9 note=72 velocity=100 time=1
the msg is note_on channel=9 note=72 velocity=100 time=4
the msg is note_off channel=9 note=72 velocity=100 time=1
the msg is note_on channel=9 note=72 velocity=100 time=10
the msg is note_off channel=9 note=72 velocity=100 time=1
the msg is note_on channel=9 note=74 velocity=100 time=10
the msg is note_off channel=9 note=74 velocity=100 time=1
the msg is note_on channel=9 note=74 velocity=100 time=4
the msg is note_off channel=9 note=74 velocity=100 time=1
the msg is note_on channel=9 note=71 velocity=100 time=4
the msg is note_off channel=9 note=71 velocity=100 time=1
the msg is note_on channel=9 note=74 velocity=100 time=10
the msg is note_off channel=9 note=74 velocity=100 time=1
the msg is note_on channel=9 note=74 velocity=100 time=4
the msg is note_off channel=9 note=74 velocity=100 time=1
the msg is note_on channel=9 note=71 velocity=100 time=4
the msg is note_off channel=9 note=71 velocity=100 time=1
the msg is note_on channel=9 note=71 velocity=100 time=4
the msg is note_off channel=9 note=71 velocity=100 time=1
the msg is note_on channel=9 note=69 velocity=100 time=4
the msg is note_off channel=9 note=69 velocity=100 time=1
the msg is note_on channel=9 note=72 velocity=100 time=55
the msg is note_off channel=9 note=72 velocity=100 time=1
the msg is note_on channel=9 note=72 velocity=100 time=10
the msg is note_off channel=9 note=72 velocity=100 time=1
the msg is note_on channel=9 note=72 velocity=100 time=4
the msg is note_off channel=9 note=72 velocity=100 time=1
the msg is note_on channel=9 note=72 velocity=100 time=4
the msg is note_off channel=9 note=72 velocity=100 time=1
the msg is note_on channel=9 note=72 velocity=100 time=4
the msg is note_off channel=9 note=72 velocity=100 time=1
the msg is note_on channel=9 note=76 velocity=100 time=4
the msg is note_off channel=9 note=76 velocity=100 time=1
the msg is note_on channel=9 note=79 velocity=100 time=10
the msg is note_off channel=9 note=79 velocity=100 time=1
the msg is note_on channel=9 note=76 velocity=100 time=10
the msg is note_off channel=9 note=76 velocity=100 time=1
the msg is note_on channel=9 note=79 velocity=100 time=10
the msg is note_off channel=9 note=79 velocity=100 time=1
the msg is note_on channel=9 note=79 velocity=100 time=4
the msg is note_off channel=9 note=79 velocity=100 time=1
the msg is note_on channel=9 note=76 velocity=100 time=4
the msg is note_off channel=9 note=76 velocity=100 time=1
the msg is note_on channel=9 note=74 velocity=100 time=4
the msg is note_off channel=9 note=74 velocity=100 time=1
the msg is note_on channel=9 note=72 velocity=100 time=4
the msg is note_off channel=9 note=72 velocity=100 time=1
the msg is note_on channel=9 note=74 velocity=100 time=10
the msg is note_off channel=9 note=74 velocity=100 time=1
the msg is note_on channel=9 note=74 velocity=100 time=10
the msg is note_off channel=9 note=74 velocity=100 time=1
the msg is note_on channel=9 note=74 velocity=100 time=10
the msg is note_off channel=9 note=74 velocity=100 time=1
the msg is note_on channel=9 note=76 velocity=100 time=10
the msg is note_off channel=9 note=76 velocity=100 time=1
the msg is note_on channel=9 note=79 velocity=100 time=10
the msg is note_off channel=9 note=79 velocity=100 time=1
the msg is note_on channel=9 note=79 velocity=100 time=6
the msg is note_off channel=9 note=79 velocity=100 time=1
the msg is note_on channel=9 note=76 velocity=100 time=3
the msg is note_off channel=9 note=76 velocity=100 time=1
the msg is note_on channel=9 note=74 velocity=100 time=6
the msg is note_off channel=9 note=74 velocity=100 time=1
the msg is note_on channel=9 note=72 velocity=100 time=3
the msg is note_off channel=9 note=72 velocity=100 time=1
the msg is note_on channel=9 note=74 velocity=100 time=10
the msg is note_off channel=9 note=74 velocity=100 time=1
the msg is note_on channel=9 note=76 velocity=100 time=10
the msg is note_off channel=9 note=76 velocity=100 time=1
the msg is note_on channel=9 note=72 velocity=100 time=4
the msg is note_off channel=9 note=72 velocity=100 time=1
the msg is note_on channel=9 note=74 velocity=100 time=4
the msg is note_off channel=9 note=74 velocity=100 time=1
the msg is note_on channel=9 note=74 velocity=100 time=10
the msg is note_off channel=9 note=74 velocity=100 time=1
the msg is note_on channel=9 note=74 velocity=100 time=10
the msg is note_off channel=9 note=74 velocity=100 time=1
the msg is note_on channel=9 note=74 velocity=100 time=4
the msg is note_off channel=9 note=74 velocity=100 time=1
the msg is note_on channel=9 note=71 velocity=100 time=4
the msg is note_off channel=9 note=71 velocity=100 time=1
the msg is note_on channel=9 note=74 velocity=100 time=10
the msg is note_off channel=9 note=74 velocity=100 time=1
the msg is note_on channel=9 note=74 velocity=100 time=10
the msg is note_off channel=9 note=74 velocity=100 time=1
the msg is note_on channel=9 note=72 velocity=100 time=3
the msg is note_off channel=9 note=72 velocity=100 time=1
the msg is note_on channel=9 note=74 velocity=100 time=10
the msg is note_off channel=9 note=74 velocity=100 time=1
the msg is note_on channel=9 note=74 velocity=100 time=10
the msg is note_off channel=9 note=74 velocity=100 time=1
the msg is note_on channel=9 note=74 velocity=100 time=4
the msg is note_off channel=9 note=74 velocity=100 time=1
the msg is note_on channel=9 note=71 velocity=100 time=4
the msg is note_off channel=9 note=71 velocity=100 time=1
the msg is note_on channel=9 note=74 velocity=100 time=4
the msg is note_off channel=9 note=74 velocity=100 time=1
the msg is note_on channel=9 note=76 velocity=100 time=10
the msg is note_off channel=9 note=76 velocity=100 time=1
the msg is note_on channel=9 note=79 velocity=100 time=10
the msg is note_off channel=9 note=79 velocity=100 time=1
the msg is note_on channel=9 note=72 velocity=100 time=3
the msg is note_off channel=9 note=72 velocity=100 time=1
the msg is note_on channel=9 note=72 velocity=100 time=6
the msg is note_off channel=9 note=72 velocity=100 time=1
the msg is note_on channel=9 note=72 velocity=100 time=3
the msg is note_off channel=9 note=72 velocity=100 time=1
the msg is note_on channel=9 note=72 velocity=100 time=10
the msg is note_off channel=9 note=72 velocity=100 time=1
the msg is note_on channel=9 note=72 velocity=100 time=4
the msg is note_off channel=9 note=72 velocity=100 time=1
the msg is note_on channel=9 note=72 velocity=100 time=4
the msg is note_off channel=9 note=72 velocity=100 time=1
the msg is <meta message end_of_track time=0>
the msg is <meta message track_name name='outTest85_512_1.0.mid' time=0>
the msg is note_on channel=9 note=69 velocity=100 time=1
the msg is note_off channel=9 note=69 velocity=100 time=1
the msg is note_on channel=9 note=72 velocity=100 time=75
the msg is note_off channel=9 note=72 velocity=100 time=1
the msg is note_on channel=9 note=72 velocity=100 time=4
the msg is note_off channel=9 note=72 velocity=100 time=1
the msg is note_on channel=9 note=72 velocity=100 time=4
the msg is note_off channel=9 note=72 velocity=100 time=1
the msg is note_on channel=9 note=72 velocity=100 time=10
the msg is note_off channel=9 note=72 velocity=100 time=1
the msg is note_on channel=9 note=74 velocity=100 time=10
the msg is note_off channel=9 note=74 velocity=100 time=1
the msg is note_on channel=9 note=74 velocity=100 time=4
the msg is note_off channel=9 note=74 velocity=100 time=1
the msg is note_on channel=9 note=71 velocity=100 time=4
the msg is note_off channel=9 note=71 velocity=100 time=1
the msg is note_on channel=9 note=74 velocity=100 time=10
the msg is note_off channel=9 note=74 velocity=100 time=1
the msg is note_on channel=9 note=74 velocity=100 time=4
the msg is note_off channel=9 note=74 velocity=100 time=1
the msg is note_on channel=9 note=71 velocity=100 time=4
the msg is note_off channel=9 note=71 velocity=100 time=1
the msg is note_on channel=9 note=71 velocity=100 time=4
the msg is note_off channel=9 note=71 velocity=100 time=1
the msg is note_on channel=9 note=69 velocity=100 time=4
the msg is note_off channel=9 note=69 velocity=100 time=1
the msg is note_on channel=9 note=72 velocity=100 time=55
the msg is note_off channel=9 note=72 velocity=100 time=1
the msg is note_on channel=9 note=72 velocity=100 time=10
the msg is note_off channel=9 note=72 velocity=100 time=1
the msg is note_on channel=9 note=72 velocity=100 time=4
the msg is note_off channel=9 note=72 velocity=100 time=1
the msg is note_on channel=9 note=72 velocity=100 time=4
the msg is note_off channel=9 note=72 velocity=100 time=1
the msg is note_on channel=9 note=72 velocity=100 time=4
the msg is note_off channel=9 note=72 velocity=100 time=1
the msg is note_on channel=9 note=76 velocity=100 time=4
the msg is note_off channel=9 note=76 velocity=100 time=1
the msg is note_on channel=9 note=79 velocity=100 time=10
the msg is note_off channel=9 note=79 velocity=100 time=1
the msg is note_on channel=9 note=76 velocity=100 time=10
the msg is note_off channel=9 note=76 velocity=100 time=1
the msg is note_on channel=9 note=79 velocity=100 time=10
the msg is note_off channel=9 note=79 velocity=100 time=1
the msg is note_on channel=9 note=79 velocity=100 time=4
the msg is note_off channel=9 note=79 velocity=100 time=1
the msg is note_on channel=9 note=76 velocity=100 time=4
the msg is note_off channel=9 note=76 velocity=100 time=1
the msg is note_on channel=9 note=74 velocity=100 time=4
the msg is note_off channel=9 note=74 velocity=100 time=1
the msg is note_on channel=9 note=72 velocity=100 time=4
the msg is note_off channel=9 note=72 velocity=100 time=1
the msg is note_on channel=9 note=74 velocity=100 time=10
the msg is note_off channel=9 note=74 velocity=100 time=1
the msg is note_on channel=9 note=74 velocity=100 time=10
the msg is note_off channel=9 note=74 velocity=100 time=1
the msg is note_on channel=9 note=74 velocity=100 time=10
the msg is note_off channel=9 note=74 velocity=100 time=1
the msg is note_on channel=9 note=76 velocity=100 time=10
the msg is note_off channel=9 note=76 velocity=100 time=1
the msg is note_on channel=9 note=79 velocity=100 time=10
the msg is note_off channel=9 note=79 velocity=100 time=1
the msg is note_on channel=9 note=79 velocity=100 time=6
the msg is note_off channel=9 note=79 velocity=100 time=1
the msg is note_on channel=9 note=76 velocity=100 time=3
the msg is note_off channel=9 note=76 velocity=100 time=1
the msg is note_on channel=9 note=74 velocity=100 time=6
the msg is note_off channel=9 note=74 velocity=100 time=1
the msg is note_on channel=9 note=72 velocity=100 time=3
the msg is note_off channel=9 note=72 velocity=100 time=1
the msg is note_on channel=9 note=74 velocity=100 time=10
the msg is note_off channel=9 note=74 velocity=100 time=1
the msg is note_on channel=9 note=76 velocity=100 time=10
the msg is note_off channel=9 note=76 velocity=100 time=1
the msg is note_on channel=9 note=72 velocity=100 time=4
the msg is note_off channel=9 note=72 velocity=100 time=1
the msg is note_on channel=9 note=74 velocity=100 time=4
the msg is note_off channel=9 note=74 velocity=100 time=1
the msg is note_on channel=9 note=74 velocity=100 time=10
the msg is note_off channel=9 note=74 velocity=100 time=1
the msg is note_on channel=9 note=74 velocity=100 time=10
the msg is note_off channel=9 note=74 velocity=100 time=1
the msg is note_on channel=9 note=74 velocity=100 time=4
the msg is note_off channel=9 note=74 velocity=100 time=1
the msg is note_on channel=9 note=71 velocity=100 time=4
the msg is note_off channel=9 note=71 velocity=100 time=1
the msg is note_on channel=9 note=74 velocity=100 time=10
the msg is note_off channel=9 note=74 velocity=100 time=1
the msg is note_on channel=9 note=74 velocity=100 time=10
the msg is note_off channel=9 note=74 velocity=100 time=1
the msg is note_on channel=9 note=72 velocity=100 time=3
the msg is note_off channel=9 note=72 velocity=100 time=1
the msg is note_on channel=9 note=74 velocity=100 time=10
the msg is note_off channel=9 note=74 velocity=100 time=1
the msg is note_on channel=9 note=74 velocity=100 time=10
the msg is note_off channel=9 note=74 velocity=100 time=1
the msg is note_on channel=9 note=74 velocity=100 time=4
the msg is note_off channel=9 note=74 velocity=100 time=1
the msg is note_on channel=9 note=71 velocity=100 time=4
the msg is note_off channel=9 note=71 velocity=100 time=1
the msg is note_on channel=9 note=74 velocity=100 time=4
the msg is note_off channel=9 note=74 velocity=100 time=1
the msg is note_on channel=9 note=76 velocity=100 time=10
the msg is note_off channel=9 note=76 velocity=100 time=1
the msg is note_on channel=9 note=79 velocity=100 time=10
the msg is note_off channel=9 note=79 velocity=100 time=1
the msg is note_on channel=9 note=72 velocity=100 time=3
the msg is note_off channel=9 note=72 velocity=100 time=1
the msg is note_on channel=9 note=72 velocity=100 time=6
the msg is note_off channel=9 note=72 velocity=100 time=1
the msg is note_on channel=9 note=72 velocity=100 time=3
the msg is note_off channel=9 note=72 velocity=100 time=1
the msg is note_on channel=9 note=72 velocity=100 time=10
the msg is note_off channel=9 note=72 velocity=100 time=1
the msg is note_on channel=9 note=72 velocity=100 time=4
the msg is note_off channel=9 note=72 velocity=100 time=1
the msg is note_on channel=9 note=72 velocity=100 time=4
the msg is note_off channel=9 note=72 velocity=100 time=1
the msg is <meta message end_of_track time=0>
the msg is <meta message track_name name='outTest85_512_1.0.mid' time=0>
the msg is note_on channel=9 note=69 velocity=100 time=1
the msg is note_off channel=9 note=69 velocity=100 time=1
the msg is note_on channel=9 note=72 velocity=100 time=75
the msg is note_off channel=9 note=72 velocity=100 time=1
the msg is note_on channel=9 note=72 velocity=100 time=4
the msg is note_off channel=9 note=72 velocity=100 time=1
the msg is note_on channel=9 note=72 velocity=100 time=4
the msg is note_off channel=9 note=72 velocity=100 time=1
the msg is note_on channel=9 note=72 velocity=100 time=10
the msg is note_off channel=9 note=72 velocity=100 time=1
the msg is note_on channel=9 note=74 velocity=100 time=10
the msg is note_off channel=9 note=74 velocity=100 time=1
the msg is note_on channel=9 note=74 velocity=100 time=4
the msg is note_off channel=9 note=74 velocity=100 time=1
the msg is note_on channel=9 note=71 velocity=100 time=4
the msg is note_off channel=9 note=71 velocity=100 time=1
the msg is note_on channel=9 note=74 velocity=100 time=10
the msg is note_off channel=9 note=74 velocity=100 time=1
the msg is note_on channel=9 note=74 velocity=100 time=4
the msg is note_off channel=9 note=74 velocity=100 time=1
the msg is note_on channel=9 note=71 velocity=100 time=4
the msg is note_off channel=9 note=71 velocity=100 time=1
the msg is note_on channel=9 note=71 velocity=100 time=4
the msg is note_off channel=9 note=71 velocity=100 time=1
the msg is note_on channel=9 note=69 velocity=100 time=4
the msg is note_off channel=9 note=69 velocity=100 time=1
the msg is note_on channel=9 note=72 velocity=100 time=55
the msg is note_off channel=9 note=72 velocity=100 time=1
the msg is note_on channel=9 note=72 velocity=100 time=10
the msg is note_off channel=9 note=72 velocity=100 time=1
the msg is note_on channel=9 note=72 velocity=100 time=4
the msg is note_off channel=9 note=72 velocity=100 time=1
the msg is note_on channel=9 note=72 velocity=100 time=4
the msg is note_off channel=9 note=72 velocity=100 time=1
the msg is note_on channel=9 note=72 velocity=100 time=4
the msg is note_off channel=9 note=72 velocity=100 time=1
the msg is note_on channel=9 note=76 velocity=100 time=4
the msg is note_off channel=9 note=76 velocity=100 time=1
the msg is note_on channel=9 note=79 velocity=100 time=10
the msg is note_off channel=9 note=79 velocity=100 time=1
the msg is note_on channel=9 note=76 velocity=100 time=10
the msg is note_off channel=9 note=76 velocity=100 time=1
the msg is note_on channel=9 note=79 velocity=100 time=10
the msg is note_off channel=9 note=79 velocity=100 time=1
the msg is note_on channel=9 note=79 velocity=100 time=4
the msg is note_off channel=9 note=79 velocity=100 time=1
the msg is note_on channel=9 note=76 velocity=100 time=4
the msg is note_off channel=9 note=76 velocity=100 time=1
the msg is note_on channel=9 note=74 velocity=100 time=4
the msg is note_off channel=9 note=74 velocity=100 time=1
the msg is note_on channel=9 note=72 velocity=100 time=4
the msg is note_off channel=9 note=72 velocity=100 time=1
the msg is note_on channel=9 note=74 velocity=100 time=10
the msg is note_off channel=9 note=74 velocity=100 time=1
the msg is note_on channel=9 note=74 velocity=100 time=10
the msg is note_off channel=9 note=74 velocity=100 time=1
the msg is note_on channel=9 note=74 velocity=100 time=10
the msg is note_off channel=9 note=74 velocity=100 time=1
the msg is note_on channel=9 note=76 velocity=100 time=10
the msg is note_off channel=9 note=76 velocity=100 time=1
the msg is note_on channel=9 note=79 velocity=100 time=10
the msg is note_off channel=9 note=79 velocity=100 time=1
the msg is note_on channel=9 note=79 velocity=100 time=6
the msg is note_off channel=9 note=79 velocity=100 time=1
the msg is note_on channel=9 note=76 velocity=100 time=3
the msg is note_off channel=9 note=76 velocity=100 time=1
the msg is note_on channel=9 note=74 velocity=100 time=6
the msg is note_off channel=9 note=74 velocity=100 time=1
the msg is note_on channel=9 note=72 velocity=100 time=3
the msg is note_off channel=9 note=72 velocity=100 time=1
the msg is note_on channel=9 note=74 velocity=100 time=10
the msg is note_off channel=9 note=74 velocity=100 time=1
the msg is note_on channel=9 note=76 velocity=100 time=10
the msg is note_off channel=9 note=76 velocity=100 time=1
the msg is note_on channel=9 note=72 velocity=100 time=4
the msg is note_off channel=9 note=72 velocity=100 time=1
the msg is note_on channel=9 note=74 velocity=100 time=4
the msg is note_off channel=9 note=74 velocity=100 time=1
the msg is note_on channel=9 note=74 velocity=100 time=10
the msg is note_off channel=9 note=74 velocity=100 time=1
the msg is note_on channel=9 note=74 velocity=100 time=10
the msg is note_off channel=9 note=74 velocity=100 time=1
the msg is note_on channel=9 note=74 velocity=100 time=4
the msg is note_off channel=9 note=74 velocity=100 time=1
the msg is note_on channel=9 note=71 velocity=100 time=4
the msg is note_off channel=9 note=71 velocity=100 time=1
the msg is note_on channel=9 note=74 velocity=100 time=10
the msg is note_off channel=9 note=74 velocity=100 time=1
the msg is note_on channel=9 note=74 velocity=100 time=10
the msg is note_off channel=9 note=74 velocity=100 time=1
the msg is note_on channel=9 note=72 velocity=100 time=3
the msg is note_off channel=9 note=72 velocity=100 time=1
the msg is note_on channel=9 note=74 velocity=100 time=10
the msg is note_off channel=9 note=74 velocity=100 time=1
the msg is note_on channel=9 note=74 velocity=100 time=10
the msg is note_off channel=9 note=74 velocity=100 time=1
the msg is note_on channel=9 note=74 velocity=100 time=4
the msg is note_off channel=9 note=74 velocity=100 time=1
the msg is note_on channel=9 note=71 velocity=100 time=4
the msg is note_off channel=9 note=71 velocity=100 time=1
the msg is note_on channel=9 note=74 velocity=100 time=4
the msg is note_off channel=9 note=74 velocity=100 time=1
the msg is note_on channel=9 note=76 velocity=100 time=10
the msg is note_off channel=9 note=76 velocity=100 time=1
the msg is note_on channel=9 note=79 velocity=100 time=10
the msg is note_off channel=9 note=79 velocity=100 time=1
the msg is note_on channel=9 note=72 velocity=100 time=3
the msg is note_off channel=9 note=72 velocity=100 time=1
the msg is note_on channel=9 note=72 velocity=100 time=6
the msg is note_off channel=9 note=72 velocity=100 time=1
the msg is note_on channel=9 note=72 velocity=100 time=3
the msg is note_off channel=9 note=72 velocity=100 time=1
the msg is note_on channel=9 note=72 velocity=100 time=10
the msg is note_off channel=9 note=72 velocity=100 time=1
the msg is note_on channel=9 note=72 velocity=100 time=4
the msg is note_off channel=9 note=72 velocity=100 time=1
the msg is note_on channel=9 note=72 velocity=100 time=4
the msg is note_off channel=9 note=72 velocity=100 time=1
the msg is <meta message end_of_track time=0>
the msg is <meta message track_name name='outTest85_512_1.0.mid' time=0>
the msg is note_on channel=9 note=69 velocity=100 time=1
the msg is note_off channel=9 note=69 velocity=100 time=1
the msg is note_on channel=9 note=72 velocity=100 time=75
the msg is note_off channel=9 note=72 velocity=100 time=1
the msg is note_on channel=9 note=72 velocity=100 time=4
the msg is note_off channel=9 note=72 velocity=100 time=1
the msg is note_on channel=9 note=72 velocity=100 time=4
the msg is note_off channel=9 note=72 velocity=100 time=1
the msg is note_on channel=9 note=72 velocity=100 time=10
the msg is note_off channel=9 note=72 velocity=100 time=1
the msg is note_on channel=9 note=74 velocity=100 time=10
the msg is note_off channel=9 note=74 velocity=100 time=1
the msg is note_on channel=9 note=74 velocity=100 time=4
the msg is note_off channel=9 note=74 velocity=100 time=1
the msg is note_on channel=9 note=71 velocity=100 time=4
the msg is note_off channel=9 note=71 velocity=100 time=1
the msg is note_on channel=9 note=74 velocity=100 time=10
the msg is note_off channel=9 note=74 velocity=100 time=1
the msg is note_on channel=9 note=74 velocity=100 time=4
the msg is note_off channel=9 note=74 velocity=100 time=1
the msg is note_on channel=9 note=71 velocity=100 time=4
the msg is note_off channel=9 note=71 velocity=100 time=1
the msg is note_on channel=9 note=71 velocity=100 time=4
the msg is note_off channel=9 note=71 velocity=100 time=1
the msg is note_on channel=9 note=69 velocity=100 time=4
the msg is note_off channel=9 note=69 velocity=100 time=1
the msg is note_on channel=9 note=72 velocity=100 time=55
the msg is note_off channel=9 note=72 velocity=100 time=1
the msg is note_on channel=9 note=72 velocity=100 time=10
the msg is note_off channel=9 note=72 velocity=100 time=1
the msg is note_on channel=9 note=72 velocity=100 time=4
the msg is note_off channel=9 note=72 velocity=100 time=1
the msg is note_on channel=9 note=72 velocity=100 time=4
the msg is note_off channel=9 note=72 velocity=100 time=1
the msg is note_on channel=9 note=72 velocity=100 time=4
the msg is note_off channel=9 note=72 velocity=100 time=1
the msg is note_on channel=9 note=76 velocity=100 time=4
the msg is note_off channel=9 note=76 velocity=100 time=1
the msg is note_on channel=9 note=79 velocity=100 time=10
the msg is note_off channel=9 note=79 velocity=100 time=1
the msg is note_on channel=9 note=76 velocity=100 time=10
the msg is note_off channel=9 note=76 velocity=100 time=1
the msg is note_on channel=9 note=79 velocity=100 time=10
the msg is note_off channel=9 note=79 velocity=100 time=1
the msg is note_on channel=9 note=79 velocity=100 time=4
the msg is note_off channel=9 note=79 velocity=100 time=1
the msg is note_on channel=9 note=76 velocity=100 time=4
the msg is note_off channel=9 note=76 velocity=100 time=1
the msg is note_on channel=9 note=74 velocity=100 time=4
the msg is note_off channel=9 note=74 velocity=100 time=1
the msg is note_on channel=9 note=72 velocity=100 time=4
the msg is note_off channel=9 note=72 velocity=100 time=1
the msg is note_on channel=9 note=74 velocity=100 time=10
the msg is note_off channel=9 note=74 velocity=100 time=1
the msg is note_on channel=9 note=74 velocity=100 time=10
the msg is note_off channel=9 note=74 velocity=100 time=1
the msg is note_on channel=9 note=74 velocity=100 time=10
the msg is note_off channel=9 note=74 velocity=100 time=1
the msg is note_on channel=9 note=76 velocity=100 time=10
the msg is note_off channel=9 note=76 velocity=100 time=1
the msg is note_on channel=9 note=79 velocity=100 time=10
the msg is note_off channel=9 note=79 velocity=100 time=1
the msg is note_on channel=9 note=79 velocity=100 time=6
the msg is note_off channel=9 note=79 velocity=100 time=1
the msg is note_on channel=9 note=76 velocity=100 time=3
the msg is note_off channel=9 note=76 velocity=100 time=1
the msg is note_on channel=9 note=74 velocity=100 time=6
the msg is note_off channel=9 note=74 velocity=100 time=1
the msg is note_on channel=9 note=72 velocity=100 time=3
the msg is note_off channel=9 note=72 velocity=100 time=1
the msg is note_on channel=9 note=74 velocity=100 time=10
the msg is note_off channel=9 note=74 velocity=100 time=1
the msg is note_on channel=9 note=76 velocity=100 time=10
the msg is note_off channel=9 note=76 velocity=100 time=1
the msg is note_on channel=9 note=72 velocity=100 time=4
the msg is note_off channel=9 note=72 velocity=100 time=1
the msg is note_on channel=9 note=74 velocity=100 time=4
the msg is note_off channel=9 note=74 velocity=100 time=1
the msg is note_on channel=9 note=74 velocity=100 time=10
the msg is note_off channel=9 note=74 velocity=100 time=1
the msg is note_on channel=9 note=74 velocity=100 time=10
the msg is note_off channel=9 note=74 velocity=100 time=1
the msg is note_on channel=9 note=74 velocity=100 time=4
the msg is note_off channel=9 note=74 velocity=100 time=1
the msg is note_on channel=9 note=71 velocity=100 time=4
the msg is note_off channel=9 note=71 velocity=100 time=1
the msg is note_on channel=9 note=74 velocity=100 time=10
the msg is note_off channel=9 note=74 velocity=100 time=1
the msg is note_on channel=9 note=74 velocity=100 time=10
the msg is note_off channel=9 note=74 velocity=100 time=1
the msg is note_on channel=9 note=72 velocity=100 time=3
the msg is note_off channel=9 note=72 velocity=100 time=1
the msg is note_on channel=9 note=74 velocity=100 time=10
the msg is note_off channel=9 note=74 velocity=100 time=1
the msg is note_on channel=9 note=74 velocity=100 time=10
the msg is note_off channel=9 note=74 velocity=100 time=1
the msg is note_on channel=9 note=74 velocity=100 time=4
the msg is note_off channel=9 note=74 velocity=100 time=1
the msg is note_on channel=9 note=71 velocity=100 time=4
the msg is note_off channel=9 note=71 velocity=100 time=1
the msg is note_on channel=9 note=74 velocity=100 time=4
the msg is note_off channel=9 note=74 velocity=100 time=1
the msg is note_on channel=9 note=76 velocity=100 time=10
the msg is note_off channel=9 note=76 velocity=100 time=1
the msg is note_on channel=9 note=79 velocity=100 time=10
the msg is note_off channel=9 note=79 velocity=100 time=1
the msg is note_on channel=9 note=72 velocity=100 time=3
the msg is note_off channel=9 note=72 velocity=100 time=1
the msg is note_on channel=9 note=72 velocity=100 time=6
the msg is note_off channel=9 note=72 velocity=100 time=1
the msg is note_on channel=9 note=72 velocity=100 time=3
the msg is note_off channel=9 note=72 velocity=100 time=1
the msg is note_on channel=9 note=72 velocity=100 time=10
the msg is note_off channel=9 note=72 velocity=100 time=1
the msg is note_on channel=9 note=72 velocity=100 time=4
the msg is note_off channel=9 note=72 velocity=100 time=1
the msg is note_on channel=9 note=72 velocity=100 time=4
the msg is note_off channel=9 note=72 velocity=100 time=1
the msg is <meta message end_of_track time=0>
the msg is <meta message track_name name='outTest85_512_1.0.mid' time=0>
the msg is note_on channel=9 note=69 velocity=100 time=1
the msg is note_off channel=9 note=69 velocity=100 time=1
the msg is note_on channel=9 note=72 velocity=100 time=75
the msg is note_off channel=9 note=72 velocity=100 time=1
the msg is note_on channel=9 note=72 velocity=100 time=4
the msg is note_off channel=9 note=72 velocity=100 time=1
the msg is note_on channel=9 note=72 velocity=100 time=4
the msg is note_off channel=9 note=72 velocity=100 time=1
the msg is note_on channel=9 note=72 velocity=100 time=10
the msg is note_off channel=9 note=72 velocity=100 time=1
the msg is note_on channel=9 note=74 velocity=100 time=10
the msg is note_off channel=9 note=74 velocity=100 time=1
the msg is note_on channel=9 note=74 velocity=100 time=4
the msg is note_off channel=9 note=74 velocity=100 time=1
the msg is note_on channel=9 note=71 velocity=100 time=4
the msg is note_off channel=9 note=71 velocity=100 time=1
the msg is note_on channel=9 note=74 velocity=100 time=10
the msg is note_off channel=9 note=74 velocity=100 time=1
the msg is note_on channel=9 note=74 velocity=100 time=4
the msg is note_off channel=9 note=74 velocity=100 time=1
the msg is note_on channel=9 note=71 velocity=100 time=4
the msg is note_off channel=9 note=71 velocity=100 time=1
the msg is note_on channel=9 note=71 velocity=100 time=4
the msg is note_off channel=9 note=71 velocity=100 time=1
the msg is note_on channel=9 note=69 velocity=100 time=4
the msg is note_off channel=9 note=69 velocity=100 time=1
the msg is note_on channel=9 note=72 velocity=100 time=55
the msg is note_off channel=9 note=72 velocity=100 time=1
the msg is note_on channel=9 note=72 velocity=100 time=10
the msg is note_off channel=9 note=72 velocity=100 time=1
the msg is note_on channel=9 note=72 velocity=100 time=4
the msg is note_off channel=9 note=72 velocity=100 time=1
the msg is note_on channel=9 note=72 velocity=100 time=4
the msg is note_off channel=9 note=72 velocity=100 time=1
the msg is note_on channel=9 note=72 velocity=100 time=4
the msg is note_off channel=9 note=72 velocity=100 time=1
the msg is note_on channel=9 note=76 velocity=100 time=4
the msg is note_off channel=9 note=76 velocity=100 time=1
the msg is note_on channel=9 note=79 velocity=100 time=10
the msg is note_off channel=9 note=79 velocity=100 time=1
the msg is note_on channel=9 note=76 velocity=100 time=10
the msg is note_off channel=9 note=76 velocity=100 time=1
the msg is note_on channel=9 note=79 velocity=100 time=10
the msg is note_off channel=9 note=79 velocity=100 time=1
the msg is note_on channel=9 note=79 velocity=100 time=4
the msg is note_off channel=9 note=79 velocity=100 time=1
the msg is note_on channel=9 note=76 velocity=100 time=4
the msg is note_off channel=9 note=76 velocity=100 time=1
the msg is note_on channel=9 note=74 velocity=100 time=4
the msg is note_off channel=9 note=74 velocity=100 time=1
the msg is note_on channel=9 note=72 velocity=100 time=4
the msg is note_off channel=9 note=72 velocity=100 time=1
the msg is note_on channel=9 note=74 velocity=100 time=10
the msg is note_off channel=9 note=74 velocity=100 time=1
the msg is note_on channel=9 note=74 velocity=100 time=10
the msg is note_off channel=9 note=74 velocity=100 time=1
the msg is note_on channel=9 note=74 velocity=100 time=10
the msg is note_off channel=9 note=74 velocity=100 time=1
the msg is note_on channel=9 note=76 velocity=100 time=10
the msg is note_off channel=9 note=76 velocity=100 time=1
the msg is note_on channel=9 note=79 velocity=100 time=10
the msg is note_off channel=9 note=79 velocity=100 time=1
the msg is note_on channel=9 note=79 velocity=100 time=6
the msg is note_off channel=9 note=79 velocity=100 time=1
the msg is note_on channel=9 note=76 velocity=100 time=3
the msg is note_off channel=9 note=76 velocity=100 time=1
the msg is note_on channel=9 note=74 velocity=100 time=6
the msg is note_off channel=9 note=74 velocity=100 time=1
the msg is note_on channel=9 note=72 velocity=100 time=3
the msg is note_off channel=9 note=72 velocity=100 time=1
the msg is note_on channel=9 note=74 velocity=100 time=10
the msg is note_off channel=9 note=74 velocity=100 time=1
the msg is note_on channel=9 note=76 velocity=100 time=10
the msg is note_off channel=9 note=76 velocity=100 time=1
the msg is note_on channel=9 note=72 velocity=100 time=4
the msg is note_off channel=9 note=72 velocity=100 time=1
the msg is note_on channel=9 note=74 velocity=100 time=4
the msg is note_off channel=9 note=74 velocity=100 time=1
the msg is note_on channel=9 note=74 velocity=100 time=10
the msg is note_off channel=9 note=74 velocity=100 time=1
the msg is note_on channel=9 note=74 velocity=100 time=10
the msg is note_off channel=9 note=74 velocity=100 time=1
the msg is note_on channel=9 note=74 velocity=100 time=4
the msg is note_off channel=9 note=74 velocity=100 time=1
the msg is note_on channel=9 note=71 velocity=100 time=4
the msg is note_off channel=9 note=71 velocity=100 time=1
the msg is note_on channel=9 note=74 velocity=100 time=10
the msg is note_off channel=9 note=74 velocity=100 time=1
the msg is note_on channel=9 note=74 velocity=100 time=10
the msg is note_off channel=9 note=74 velocity=100 time=1
the msg is note_on channel=9 note=72 velocity=100 time=3
the msg is note_off channel=9 note=72 velocity=100 time=1
the msg is note_on channel=9 note=74 velocity=100 time=10
the msg is note_off channel=9 note=74 velocity=100 time=1
the msg is note_on channel=9 note=74 velocity=100 time=10
the msg is note_off channel=9 note=74 velocity=100 time=1
the msg is note_on channel=9 note=74 velocity=100 time=4
the msg is note_off channel=9 note=74 velocity=100 time=1
the msg is note_on channel=9 note=71 velocity=100 time=4
the msg is note_off channel=9 note=71 velocity=100 time=1
the msg is note_on channel=9 note=74 velocity=100 time=4
the msg is note_off channel=9 note=74 velocity=100 time=1
the msg is note_on channel=9 note=76 velocity=100 time=10
the msg is note_off channel=9 note=76 velocity=100 time=1
the msg is note_on channel=9 note=79 velocity=100 time=10
the msg is note_off channel=9 note=79 velocity=100 time=1
the msg is note_on channel=9 note=72 velocity=100 time=3
the msg is note_off channel=9 note=72 velocity=100 time=1
the msg is note_on channel=9 note=72 velocity=100 time=6
the msg is note_off channel=9 note=72 velocity=100 time=1
the msg is note_on channel=9 note=72 velocity=100 time=3
the msg is note_off channel=9 note=72 velocity=100 time=1
the msg is note_on channel=9 note=72 velocity=100 time=10
the msg is note_off channel=9 note=72 velocity=100 time=1
the msg is note_on channel=9 note=72 velocity=100 time=4
the msg is note_off channel=9 note=72 velocity=100 time=1
the msg is note_on channel=9 note=72 velocity=100 time=4
the msg is note_off channel=9 note=72 velocity=100 time=1
the msg is <meta message end_of_track time=0>
the msg is <meta message track_name name='outTest85_512_1.0.mid' time=0>
the msg is note_on channel=9 note=69 velocity=100 time=1
the msg is note_off channel=9 note=69 velocity=100 time=1
the msg is note_on channel=9 note=72 velocity=100 time=75
the msg is note_off channel=9 note=72 velocity=100 time=1
the msg is note_on channel=9 note=72 velocity=100 time=4
the msg is note_off channel=9 note=72 velocity=100 time=1
the msg is note_on channel=9 note=72 velocity=100 time=4
the msg is note_off channel=9 note=72 velocity=100 time=1
the msg is note_on channel=9 note=72 velocity=100 time=10
the msg is note_off channel=9 note=72 velocity=100 time=1
the msg is note_on channel=9 note=74 velocity=100 time=10
the msg is note_off channel=9 note=74 velocity=100 time=1
the msg is note_on channel=9 note=74 velocity=100 time=4
the msg is note_off channel=9 note=74 velocity=100 time=1
the msg is note_on channel=9 note=71 velocity=100 time=4
the msg is note_off channel=9 note=71 velocity=100 time=1
the msg is note_on channel=9 note=74 velocity=100 time=10
the msg is note_off channel=9 note=74 velocity=100 time=1
the msg is note_on channel=9 note=74 velocity=100 time=4
the msg is note_off channel=9 note=74 velocity=100 time=1
the msg is note_on channel=9 note=71 velocity=100 time=4
the msg is note_off channel=9 note=71 velocity=100 time=1
the msg is note_on channel=9 note=71 velocity=100 time=4
the msg is note_off channel=9 note=71 velocity=100 time=1
the msg is note_on channel=9 note=69 velocity=100 time=4
the msg is note_off channel=9 note=69 velocity=100 time=1
the msg is note_on channel=9 note=72 velocity=100 time=55
the msg is note_off channel=9 note=72 velocity=100 time=1
the msg is note_on channel=9 note=72 velocity=100 time=10
the msg is note_off channel=9 note=72 velocity=100 time=1
the msg is note_on channel=9 note=72 velocity=100 time=4
the msg is note_off channel=9 note=72 velocity=100 time=1
the msg is note_on channel=9 note=72 velocity=100 time=4
the msg is note_off channel=9 note=72 velocity=100 time=1
the msg is note_on channel=9 note=72 velocity=100 time=4
the msg is note_off channel=9 note=72 velocity=100 time=1
the msg is note_on channel=9 note=76 velocity=100 time=4
the msg is note_off channel=9 note=76 velocity=100 time=1
the msg is note_on channel=9 note=79 velocity=100 time=10
the msg is note_off channel=9 note=79 velocity=100 time=1
the msg is note_on channel=9 note=76 velocity=100 time=10
the msg is note_off channel=9 note=76 velocity=100 time=1
the msg is note_on channel=9 note=79 velocity=100 time=10
the msg is note_off channel=9 note=79 velocity=100 time=1
the msg is note_on channel=9 note=79 velocity=100 time=4
the msg is note_off channel=9 note=79 velocity=100 time=1
the msg is note_on channel=9 note=76 velocity=100 time=4
the msg is note_off channel=9 note=76 velocity=100 time=1
the msg is note_on channel=9 note=74 velocity=100 time=4
the msg is note_off channel=9 note=74 velocity=100 time=1
the msg is note_on channel=9 note=72 velocity=100 time=4
the msg is note_off channel=9 note=72 velocity=100 time=1
the msg is note_on channel=9 note=74 velocity=100 time=10
the msg is note_off channel=9 note=74 velocity=100 time=1
the msg is note_on channel=9 note=74 velocity=100 time=10
the msg is note_off channel=9 note=74 velocity=100 time=1
the msg is note_on channel=9 note=74 velocity=100 time=10
the msg is note_off channel=9 note=74 velocity=100 time=1
the msg is note_on channel=9 note=76 velocity=100 time=10
the msg is note_off channel=9 note=76 velocity=100 time=1
the msg is note_on channel=9 note=79 velocity=100 time=10
the msg is note_off channel=9 note=79 velocity=100 time=1
the msg is note_on channel=9 note=79 velocity=100 time=6
the msg is note_off channel=9 note=79 velocity=100 time=1
the msg is note_on channel=9 note=76 velocity=100 time=3
the msg is note_off channel=9 note=76 velocity=100 time=1
the msg is note_on channel=9 note=74 velocity=100 time=6
the msg is note_off channel=9 note=74 velocity=100 time=1
the msg is note_on channel=9 note=72 velocity=100 time=3
the msg is note_off channel=9 note=72 velocity=100 time=1
the msg is note_on channel=9 note=74 velocity=100 time=10
the msg is note_off channel=9 note=74 velocity=100 time=1
the msg is note_on channel=9 note=76 velocity=100 time=10
the msg is note_off channel=9 note=76 velocity=100 time=1
the msg is note_on channel=9 note=72 velocity=100 time=4
the msg is note_off channel=9 note=72 velocity=100 time=1
the msg is note_on channel=9 note=74 velocity=100 time=4
the msg is note_off channel=9 note=74 velocity=100 time=1
the msg is note_on channel=9 note=74 velocity=100 time=10
the msg is note_off channel=9 note=74 velocity=100 time=1
the msg is note_on channel=9 note=74 velocity=100 time=10
the msg is note_off channel=9 note=74 velocity=100 time=1
the msg is note_on channel=9 note=74 velocity=100 time=4
the msg is note_off channel=9 note=74 velocity=100 time=1
the msg is note_on channel=9 note=71 velocity=100 time=4
the msg is note_off channel=9 note=71 velocity=100 time=1
the msg is note_on channel=9 note=74 velocity=100 time=10
the msg is note_off channel=9 note=74 velocity=100 time=1
the msg is note_on channel=9 note=74 velocity=100 time=10
the msg is note_off channel=9 note=74 velocity=100 time=1
the msg is note_on channel=9 note=72 velocity=100 time=3
the msg is note_off channel=9 note=72 velocity=100 time=1
the msg is note_on channel=9 note=74 velocity=100 time=10
the msg is note_off channel=9 note=74 velocity=100 time=1
the msg is note_on channel=9 note=74 velocity=100 time=10
the msg is note_off channel=9 note=74 velocity=100 time=1
the msg is note_on channel=9 note=74 velocity=100 time=4
the msg is note_off channel=9 note=74 velocity=100 time=1
the msg is note_on channel=9 note=71 velocity=100 time=4
the msg is note_off channel=9 note=71 velocity=100 time=1
the msg is note_on channel=9 note=74 velocity=100 time=4
the msg is note_off channel=9 note=74 velocity=100 time=1
the msg is note_on channel=9 note=76 velocity=100 time=10
the msg is note_off channel=9 note=76 velocity=100 time=1
the msg is note_on channel=9 note=79 velocity=100 time=10
the msg is note_off channel=9 note=79 velocity=100 time=1
the msg is note_on channel=9 note=72 velocity=100 time=3
the msg is note_off channel=9 note=72 velocity=100 time=1
the msg is note_on channel=9 note=72 velocity=100 time=6
the msg is note_off channel=9 note=72 velocity=100 time=1
the msg is note_on channel=9 note=72 velocity=100 time=3
the msg is note_off channel=9 note=72 velocity=100 time=1
the msg is note_on channel=9 note=72 velocity=100 time=10
the msg is note_off channel=9 note=72 velocity=100 time=1
the msg is note_on channel=9 note=72 velocity=100 time=4
the msg is note_off channel=9 note=72 velocity=100 time=1
the msg is note_on channel=9 note=72 velocity=100 time=4
the msg is note_off channel=9 note=72 velocity=100 time=1
the msg is <meta message end_of_track time=0>
the msg is <meta message track_name name='outTest85_512_1.0.mid' time=0>
the msg is note_on channel=9 note=69 velocity=100 time=1
the msg is note_off channel=9 note=69 velocity=100 time=1
the msg is note_on channel=9 note=72 velocity=100 time=75
the msg is note_off channel=9 note=72 velocity=100 time=1
the msg is note_on channel=9 note=72 velocity=100 time=4
the msg is note_off channel=9 note=72 velocity=100 time=1
the msg is note_on channel=9 note=72 velocity=100 time=4
the msg is note_off channel=9 note=72 velocity=100 time=1
the msg is note_on channel=9 note=72 velocity=100 time=10
the msg is note_off channel=9 note=72 velocity=100 time=1
the msg is note_on channel=9 note=74 velocity=100 time=10
the msg is note_off channel=9 note=74 velocity=100 time=1
the msg is note_on channel=9 note=74 velocity=100 time=4
the msg is note_off channel=9 note=74 velocity=100 time=1
the msg is note_on channel=9 note=71 velocity=100 time=4
the msg is note_off channel=9 note=71 velocity=100 time=1
the msg is note_on channel=9 note=74 velocity=100 time=10
the msg is note_off channel=9 note=74 velocity=100 time=1
the msg is note_on channel=9 note=74 velocity=100 time=4
the msg is note_off channel=9 note=74 velocity=100 time=1
the msg is note_on channel=9 note=71 velocity=100 time=4
the msg is note_off channel=9 note=71 velocity=100 time=1
the msg is note_on channel=9 note=71 velocity=100 time=4
the msg is note_off channel=9 note=71 velocity=100 time=1
the msg is note_on channel=9 note=69 velocity=100 time=4
the msg is note_off channel=9 note=69 velocity=100 time=1
the msg is note_on channel=9 note=72 velocity=100 time=55
the msg is note_off channel=9 note=72 velocity=100 time=1
the msg is note_on channel=9 note=72 velocity=100 time=10
the msg is note_off channel=9 note=72 velocity=100 time=1
the msg is note_on channel=9 note=72 velocity=100 time=4
the msg is note_off channel=9 note=72 velocity=100 time=1
the msg is note_on channel=9 note=72 velocity=100 time=4
the msg is note_off channel=9 note=72 velocity=100 time=1
the msg is note_on channel=9 note=72 velocity=100 time=4
the msg is note_off channel=9 note=72 velocity=100 time=1
the msg is note_on channel=9 note=76 velocity=100 time=4
the msg is note_off channel=9 note=76 velocity=100 time=1
the msg is note_on channel=9 note=79 velocity=100 time=10
the msg is note_off channel=9 note=79 velocity=100 time=1
the msg is note_on channel=9 note=76 velocity=100 time=10
the msg is note_off channel=9 note=76 velocity=100 time=1
the msg is note_on channel=9 note=79 velocity=100 time=10
the msg is note_off channel=9 note=79 velocity=100 time=1
the msg is note_on channel=9 note=79 velocity=100 time=4
the msg is note_off channel=9 note=79 velocity=100 time=1
the msg is note_on channel=9 note=76 velocity=100 time=4
the msg is note_off channel=9 note=76 velocity=100 time=1
the msg is note_on channel=9 note=74 velocity=100 time=4
the msg is note_off channel=9 note=74 velocity=100 time=1
the msg is note_on channel=9 note=72 velocity=100 time=4
the msg is note_off channel=9 note=72 velocity=100 time=1
the msg is note_on channel=9 note=74 velocity=100 time=10
the msg is note_off channel=9 note=74 velocity=100 time=1
the msg is note_on channel=9 note=74 velocity=100 time=10
the msg is note_off channel=9 note=74 velocity=100 time=1
the msg is note_on channel=9 note=74 velocity=100 time=10
the msg is note_off channel=9 note=74 velocity=100 time=1
the msg is note_on channel=9 note=76 velocity=100 time=10
the msg is note_off channel=9 note=76 velocity=100 time=1
the msg is note_on channel=9 note=79 velocity=100 time=10
the msg is note_off channel=9 note=79 velocity=100 time=1
the msg is note_on channel=9 note=79 velocity=100 time=6
the msg is note_off channel=9 note=79 velocity=100 time=1
the msg is note_on channel=9 note=76 velocity=100 time=3
the msg is note_off channel=9 note=76 velocity=100 time=1
the msg is note_on channel=9 note=74 velocity=100 time=6
the msg is note_off channel=9 note=74 velocity=100 time=1
the msg is note_on channel=9 note=72 velocity=100 time=3
the msg is note_off channel=9 note=72 velocity=100 time=1
the msg is note_on channel=9 note=74 velocity=100 time=10
the msg is note_off channel=9 note=74 velocity=100 time=1
the msg is note_on channel=9 note=76 velocity=100 time=10
the msg is note_off channel=9 note=76 velocity=100 time=1
the msg is note_on channel=9 note=72 velocity=100 time=4
the msg is note_off channel=9 note=72 velocity=100 time=1
the msg is note_on channel=9 note=74 velocity=100 time=4
the msg is note_off channel=9 note=74 velocity=100 time=1
the msg is note_on channel=9 note=74 velocity=100 time=10
the msg is note_off channel=9 note=74 velocity=100 time=1
the msg is note_on channel=9 note=74 velocity=100 time=10
the msg is note_off channel=9 note=74 velocity=100 time=1
the msg is note_on channel=9 note=74 velocity=100 time=4
the msg is note_off channel=9 note=74 velocity=100 time=1
the msg is note_on channel=9 note=71 velocity=100 time=4
the msg is note_off channel=9 note=71 velocity=100 time=1
the msg is note_on channel=9 note=74 velocity=100 time=10
the msg is note_off channel=9 note=74 velocity=100 time=1
the msg is note_on channel=9 note=74 velocity=100 time=10
the msg is note_off channel=9 note=74 velocity=100 time=1
the msg is note_on channel=9 note=72 velocity=100 time=3
the msg is note_off channel=9 note=72 velocity=100 time=1
the msg is note_on channel=9 note=74 velocity=100 time=10
the msg is note_off channel=9 note=74 velocity=100 time=1
the msg is note_on channel=9 note=74 velocity=100 time=10
the msg is note_off channel=9 note=74 velocity=100 time=1
the msg is note_on channel=9 note=74 velocity=100 time=4
the msg is note_off channel=9 note=74 velocity=100 time=1
the msg is note_on channel=9 note=71 velocity=100 time=4
the msg is note_off channel=9 note=71 velocity=100 time=1
the msg is note_on channel=9 note=74 velocity=100 time=4
the msg is note_off channel=9 note=74 velocity=100 time=1
the msg is note_on channel=9 note=76 velocity=100 time=10
the msg is note_off channel=9 note=76 velocity=100 time=1
the msg is note_on channel=9 note=79 velocity=100 time=10
the msg is note_off channel=9 note=79 velocity=100 time=1
the msg is note_on channel=9 note=72 velocity=100 time=3
the msg is note_off channel=9 note=72 velocity=100 time=1
the msg is note_on channel=9 note=72 velocity=100 time=6
the msg is note_off channel=9 note=72 velocity=100 time=1
the msg is note_on channel=9 note=72 velocity=100 time=3
the msg is note_off channel=9 note=72 velocity=100 time=1
the msg is note_on channel=9 note=72 velocity=100 time=10
the msg is note_off channel=9 note=72 velocity=100 time=1
the msg is note_on channel=9 note=72 velocity=100 time=4
the msg is note_off channel=9 note=72 velocity=100 time=1
the msg is note_on channel=9 note=72 velocity=100 time=4
the msg is note_off channel=9 note=72 velocity=100 time=1
the msg is <meta message end_of_track time=0>
the msg is <meta message track_name name='outTest85_512_1.0.mid' time=0>
the msg is note_on channel=9 note=69 velocity=100 time=1
the msg is note_off channel=9 note=69 velocity=100 time=1
the msg is note_on channel=9 note=72 velocity=100 time=75
the msg is note_off channel=9 note=72 velocity=100 time=1
the msg is note_on channel=9 note=72 velocity=100 time=4
the msg is note_off channel=9 note=72 velocity=100 time=1
the msg is note_on channel=9 note=72 velocity=100 time=4
the msg is note_off channel=9 note=72 velocity=100 time=1
the msg is note_on channel=9 note=72 velocity=100 time=10
the msg is note_off channel=9 note=72 velocity=100 time=1
the msg is note_on channel=9 note=74 velocity=100 time=10
the msg is note_off channel=9 note=74 velocity=100 time=1
the msg is note_on channel=9 note=74 velocity=100 time=4
the msg is note_off channel=9 note=74 velocity=100 time=1
the msg is note_on channel=9 note=71 velocity=100 time=4
the msg is note_off channel=9 note=71 velocity=100 time=1
the msg is note_on channel=9 note=74 velocity=100 time=10
the msg is note_off channel=9 note=74 velocity=100 time=1
the msg is note_on channel=9 note=74 velocity=100 time=4
the msg is note_off channel=9 note=74 velocity=100 time=1
the msg is note_on channel=9 note=71 velocity=100 time=4
the msg is note_off channel=9 note=71 velocity=100 time=1
the msg is note_on channel=9 note=71 velocity=100 time=4
the msg is note_off channel=9 note=71 velocity=100 time=1
the msg is note_on channel=9 note=69 velocity=100 time=4
the msg is note_off channel=9 note=69 velocity=100 time=1
the msg is note_on channel=9 note=72 velocity=100 time=55
the msg is note_off channel=9 note=72 velocity=100 time=1
the msg is note_on channel=9 note=72 velocity=100 time=10
the msg is note_off channel=9 note=72 velocity=100 time=1
the msg is note_on channel=9 note=72 velocity=100 time=4
the msg is note_off channel=9 note=72 velocity=100 time=1
the msg is note_on channel=9 note=72 velocity=100 time=4
the msg is note_off channel=9 note=72 velocity=100 time=1
the msg is note_on channel=9 note=72 velocity=100 time=4
the msg is note_off channel=9 note=72 velocity=100 time=1
the msg is note_on channel=9 note=76 velocity=100 time=4
the msg is note_off channel=9 note=76 velocity=100 time=1
the msg is note_on channel=9 note=79 velocity=100 time=10
the msg is note_off channel=9 note=79 velocity=100 time=1
the msg is note_on channel=9 note=76 velocity=100 time=10
the msg is note_off channel=9 note=76 velocity=100 time=1
the msg is note_on channel=9 note=79 velocity=100 time=10
the msg is note_off channel=9 note=79 velocity=100 time=1
the msg is note_on channel=9 note=79 velocity=100 time=4
the msg is note_off channel=9 note=79 velocity=100 time=1
the msg is note_on channel=9 note=76 velocity=100 time=4
the msg is note_off channel=9 note=76 velocity=100 time=1
the msg is note_on channel=9 note=74 velocity=100 time=4
the msg is note_off channel=9 note=74 velocity=100 time=1
the msg is note_on channel=9 note=72 velocity=100 time=4
the msg is note_off channel=9 note=72 velocity=100 time=1
the msg is note_on channel=9 note=74 velocity=100 time=10
the msg is note_off channel=9 note=74 velocity=100 time=1
the msg is note_on channel=9 note=74 velocity=100 time=10
the msg is note_off channel=9 note=74 velocity=100 time=1
the msg is note_on channel=9 note=74 velocity=100 time=10
the msg is note_off channel=9 note=74 velocity=100 time=1
the msg is note_on channel=9 note=76 velocity=100 time=10
the msg is note_off channel=9 note=76 velocity=100 time=1
the msg is note_on channel=9 note=79 velocity=100 time=10
the msg is note_off channel=9 note=79 velocity=100 time=1
the msg is note_on channel=9 note=79 velocity=100 time=6
the msg is note_off channel=9 note=79 velocity=100 time=1
the msg is note_on channel=9 note=76 velocity=100 time=3
the msg is note_off channel=9 note=76 velocity=100 time=1
the msg is note_on channel=9 note=74 velocity=100 time=6
the msg is note_off channel=9 note=74 velocity=100 time=1
the msg is note_on channel=9 note=72 velocity=100 time=3
the msg is note_off channel=9 note=72 velocity=100 time=1
the msg is note_on channel=9 note=74 velocity=100 time=10
the msg is note_off channel=9 note=74 velocity=100 time=1
the msg is note_on channel=9 note=76 velocity=100 time=10
the msg is note_off channel=9 note=76 velocity=100 time=1
the msg is note_on channel=9 note=72 velocity=100 time=4
the msg is note_off channel=9 note=72 velocity=100 time=1
the msg is note_on channel=9 note=74 velocity=100 time=4
the msg is note_off channel=9 note=74 velocity=100 time=1
the msg is note_on channel=9 note=74 velocity=100 time=10
the msg is note_off channel=9 note=74 velocity=100 time=1
the msg is note_on channel=9 note=74 velocity=100 time=10
the msg is note_off channel=9 note=74 velocity=100 time=1
the msg is note_on channel=9 note=74 velocity=100 time=4
the msg is note_off channel=9 note=74 velocity=100 time=1
the msg is note_on channel=9 note=71 velocity=100 time=4
the msg is note_off channel=9 note=71 velocity=100 time=1
the msg is note_on channel=9 note=74 velocity=100 time=10
the msg is note_off channel=9 note=74 velocity=100 time=1
the msg is note_on channel=9 note=74 velocity=100 time=10
the msg is note_off channel=9 note=74 velocity=100 time=1
the msg is note_on channel=9 note=72 velocity=100 time=3
the msg is note_off channel=9 note=72 velocity=100 time=1
the msg is note_on channel=9 note=74 velocity=100 time=10
the msg is note_off channel=9 note=74 velocity=100 time=1
the msg is note_on channel=9 note=74 velocity=100 time=10
the msg is note_off channel=9 note=74 velocity=100 time=1
the msg is note_on channel=9 note=74 velocity=100 time=4
the msg is note_off channel=9 note=74 velocity=100 time=1
the msg is note_on channel=9 note=71 velocity=100 time=4
the msg is note_off channel=9 note=71 velocity=100 time=1
the msg is note_on channel=9 note=74 velocity=100 time=4
the msg is note_off channel=9 note=74 velocity=100 time=1
the msg is note_on channel=9 note=76 velocity=100 time=10
the msg is note_off channel=9 note=76 velocity=100 time=1
the msg is note_on channel=9 note=79 velocity=100 time=10
the msg is note_off channel=9 note=79 velocity=100 time=1
the msg is note_on channel=9 note=72 velocity=100 time=3
the msg is note_off channel=9 note=72 velocity=100 time=1
the msg is note_on channel=9 note=72 velocity=100 time=6
the msg is note_off channel=9 note=72 velocity=100 time=1
the msg is note_on channel=9 note=72 velocity=100 time=3
the msg is note_off channel=9 note=72 velocity=100 time=1
the msg is note_on channel=9 note=72 velocity=100 time=10
the msg is note_off channel=9 note=72 velocity=100 time=1
the msg is note_on channel=9 note=72 velocity=100 time=4
the msg is note_off channel=9 note=72 velocity=100 time=1
the msg is note_on channel=9 note=72 velocity=100 time=4
the msg is note_off channel=9 note=72 velocity=100 time=1
the msg is <meta message end_of_track time=0>
the msg is <meta message track_name name='outTest85_512_1.0.mid' time=0>
the msg is note_on channel=9 note=69 velocity=100 time=1
the msg is note_off channel=9 note=69 velocity=100 time=1
the msg is note_on channel=9 note=72 velocity=100 time=75
the msg is note_off channel=9 note=72 velocity=100 time=1
the msg is note_on channel=9 note=72 velocity=100 time=4
the msg is note_off channel=9 note=72 velocity=100 time=1
the msg is note_on channel=9 note=72 velocity=100 time=4
the msg is note_off channel=9 note=72 velocity=100 time=1
the msg is note_on channel=9 note=72 velocity=100 time=10
the msg is note_off channel=9 note=72 velocity=100 time=1
the msg is note_on channel=9 note=74 velocity=100 time=10
the msg is note_off channel=9 note=74 velocity=100 time=1
the msg is note_on channel=9 note=74 velocity=100 time=4
the msg is note_off channel=9 note=74 velocity=100 time=1
the msg is note_on channel=9 note=71 velocity=100 time=4
the msg is note_off channel=9 note=71 velocity=100 time=1
the msg is note_on channel=9 note=74 velocity=100 time=10
the msg is note_off channel=9 note=74 velocity=100 time=1
the msg is note_on channel=9 note=74 velocity=100 time=4
the msg is note_off channel=9 note=74 velocity=100 time=1
the msg is note_on channel=9 note=71 velocity=100 time=4
the msg is note_off channel=9 note=71 velocity=100 time=1
the msg is note_on channel=9 note=71 velocity=100 time=4
the msg is note_off channel=9 note=71 velocity=100 time=1
the msg is note_on channel=9 note=69 velocity=100 time=4
the msg is note_off channel=9 note=69 velocity=100 time=1
the msg is note_on channel=9 note=72 velocity=100 time=55
the msg is note_off channel=9 note=72 velocity=100 time=1
the msg is note_on channel=9 note=72 velocity=100 time=10
the msg is note_off channel=9 note=72 velocity=100 time=1
the msg is note_on channel=9 note=72 velocity=100 time=4
the msg is note_off channel=9 note=72 velocity=100 time=1
the msg is note_on channel=9 note=72 velocity=100 time=4
the msg is note_off channel=9 note=72 velocity=100 time=1
the msg is note_on channel=9 note=72 velocity=100 time=4
the msg is note_off channel=9 note=72 velocity=100 time=1
the msg is note_on channel=9 note=76 velocity=100 time=4
the msg is note_off channel=9 note=76 velocity=100 time=1
the msg is note_on channel=9 note=79 velocity=100 time=10
the msg is note_off channel=9 note=79 velocity=100 time=1
the msg is note_on channel=9 note=76 velocity=100 time=10
the msg is note_off channel=9 note=76 velocity=100 time=1
the msg is note_on channel=9 note=79 velocity=100 time=10
the msg is note_off channel=9 note=79 velocity=100 time=1
the msg is note_on channel=9 note=79 velocity=100 time=4
the msg is note_off channel=9 note=79 velocity=100 time=1
the msg is note_on channel=9 note=76 velocity=100 time=4
the msg is note_off channel=9 note=76 velocity=100 time=1
the msg is note_on channel=9 note=74 velocity=100 time=4
the msg is note_off channel=9 note=74 velocity=100 time=1
the msg is note_on channel=9 note=72 velocity=100 time=4
the msg is note_off channel=9 note=72 velocity=100 time=1
the msg is note_on channel=9 note=74 velocity=100 time=10
the msg is note_off channel=9 note=74 velocity=100 time=1
the msg is note_on channel=9 note=74 velocity=100 time=10
the msg is note_off channel=9 note=74 velocity=100 time=1
the msg is note_on channel=9 note=74 velocity=100 time=10
the msg is note_off channel=9 note=74 velocity=100 time=1
the msg is note_on channel=9 note=76 velocity=100 time=10
the msg is note_off channel=9 note=76 velocity=100 time=1
the msg is note_on channel=9 note=79 velocity=100 time=10
the msg is note_off channel=9 note=79 velocity=100 time=1
the msg is note_on channel=9 note=79 velocity=100 time=6
the msg is note_off channel=9 note=79 velocity=100 time=1
the msg is note_on channel=9 note=76 velocity=100 time=3
the msg is note_off channel=9 note=76 velocity=100 time=1
the msg is note_on channel=9 note=74 velocity=100 time=6
the msg is note_off channel=9 note=74 velocity=100 time=1
the msg is note_on channel=9 note=72 velocity=100 time=3
the msg is note_off channel=9 note=72 velocity=100 time=1
the msg is note_on channel=9 note=74 velocity=100 time=10
the msg is note_off channel=9 note=74 velocity=100 time=1
the msg is note_on channel=9 note=76 velocity=100 time=10
the msg is note_off channel=9 note=76 velocity=100 time=1
the msg is note_on channel=9 note=72 velocity=100 time=4
the msg is note_off channel=9 note=72 velocity=100 time=1
the msg is note_on channel=9 note=74 velocity=100 time=4
the msg is note_off channel=9 note=74 velocity=100 time=1
the msg is note_on channel=9 note=74 velocity=100 time=10
the msg is note_off channel=9 note=74 velocity=100 time=1
the msg is note_on channel=9 note=74 velocity=100 time=10
the msg is note_off channel=9 note=74 velocity=100 time=1
the msg is note_on channel=9 note=74 velocity=100 time=4
the msg is note_off channel=9 note=74 velocity=100 time=1
the msg is note_on channel=9 note=71 velocity=100 time=4
the msg is note_off channel=9 note=71 velocity=100 time=1
the msg is note_on channel=9 note=74 velocity=100 time=10
the msg is note_off channel=9 note=74 velocity=100 time=1
the msg is note_on channel=9 note=74 velocity=100 time=10
the msg is note_off channel=9 note=74 velocity=100 time=1
the msg is note_on channel=9 note=72 velocity=100 time=3
the msg is note_off channel=9 note=72 velocity=100 time=1
the msg is note_on channel=9 note=74 velocity=100 time=10
the msg is note_off channel=9 note=74 velocity=100 time=1
the msg is note_on channel=9 note=74 velocity=100 time=10
the msg is note_off channel=9 note=74 velocity=100 time=1
the msg is note_on channel=9 note=74 velocity=100 time=4
the msg is note_off channel=9 note=74 velocity=100 time=1
the msg is note_on channel=9 note=71 velocity=100 time=4
the msg is note_off channel=9 note=71 velocity=100 time=1
the msg is note_on channel=9 note=74 velocity=100 time=4
the msg is note_off channel=9 note=74 velocity=100 time=1
the msg is note_on channel=9 note=76 velocity=100 time=10
the msg is note_off channel=9 note=76 velocity=100 time=1
the msg is note_on channel=9 note=79 velocity=100 time=10
the msg is note_off channel=9 note=79 velocity=100 time=1
the msg is note_on channel=9 note=72 velocity=100 time=3
the msg is note_off channel=9 note=72 velocity=100 time=1
the msg is note_on channel=9 note=72 velocity=100 time=6
the msg is note_off channel=9 note=72 velocity=100 time=1
the msg is note_on channel=9 note=72 velocity=100 time=3
the msg is note_off channel=9 note=72 velocity=100 time=1
the msg is note_on channel=9 note=72 velocity=100 time=10
the msg is note_off channel=9 note=72 velocity=100 time=1
the msg is note_on channel=9 note=72 velocity=100 time=4
the msg is note_off channel=9 note=72 velocity=100 time=1
the msg is note_on channel=9 note=72 velocity=100 time=4
the msg is note_off channel=9 note=72 velocity=100 time=1
the msg is <meta message end_of_track time=0>
the msg is <meta message track_name name='outTest85_512_1.0.mid' time=0>
the msg is note_on channel=9 note=69 velocity=100 time=1
the msg is note_off channel=9 note=69 velocity=100 time=1
the msg is note_on channel=9 note=72 velocity=100 time=75
the msg is note_off channel=9 note=72 velocity=100 time=1
the msg is note_on channel=9 note=72 velocity=100 time=4
the msg is note_off channel=9 note=72 velocity=100 time=1
the msg is note_on channel=9 note=72 velocity=100 time=4
the msg is note_off channel=9 note=72 velocity=100 time=1
the msg is note_on channel=9 note=72 velocity=100 time=10
the msg is note_off channel=9 note=72 velocity=100 time=1
the msg is note_on channel=9 note=74 velocity=100 time=10
the msg is note_off channel=9 note=74 velocity=100 time=1
the msg is note_on channel=9 note=74 velocity=100 time=4
the msg is note_off channel=9 note=74 velocity=100 time=1
the msg is note_on channel=9 note=71 velocity=100 time=4
the msg is note_off channel=9 note=71 velocity=100 time=1
the msg is note_on channel=9 note=74 velocity=100 time=10
the msg is note_off channel=9 note=74 velocity=100 time=1
the msg is note_on channel=9 note=74 velocity=100 time=4
the msg is note_off channel=9 note=74 velocity=100 time=1
the msg is note_on channel=9 note=71 velocity=100 time=4
the msg is note_off channel=9 note=71 velocity=100 time=1
the msg is note_on channel=9 note=71 velocity=100 time=4
the msg is note_off channel=9 note=71 velocity=100 time=1
the msg is note_on channel=9 note=69 velocity=100 time=4
the msg is note_off channel=9 note=69 velocity=100 time=1
the msg is note_on channel=9 note=72 velocity=100 time=55
the msg is note_off channel=9 note=72 velocity=100 time=1
the msg is note_on channel=9 note=72 velocity=100 time=10
the msg is note_off channel=9 note=72 velocity=100 time=1
the msg is note_on channel=9 note=72 velocity=100 time=4
the msg is note_off channel=9 note=72 velocity=100 time=1
the msg is note_on channel=9 note=72 velocity=100 time=4
the msg is note_off channel=9 note=72 velocity=100 time=1
the msg is note_on channel=9 note=72 velocity=100 time=4
the msg is note_off channel=9 note=72 velocity=100 time=1
the msg is note_on channel=9 note=76 velocity=100 time=4
the msg is note_off channel=9 note=76 velocity=100 time=1
the msg is note_on channel=9 note=79 velocity=100 time=10
the msg is note_off channel=9 note=79 velocity=100 time=1
the msg is note_on channel=9 note=76 velocity=100 time=10
the msg is note_off channel=9 note=76 velocity=100 time=1
the msg is note_on channel=9 note=79 velocity=100 time=10
the msg is note_off channel=9 note=79 velocity=100 time=1
the msg is note_on channel=9 note=79 velocity=100 time=4
the msg is note_off channel=9 note=79 velocity=100 time=1
the msg is note_on channel=9 note=76 velocity=100 time=4
the msg is note_off channel=9 note=76 velocity=100 time=1
the msg is note_on channel=9 note=74 velocity=100 time=4
the msg is note_off channel=9 note=74 velocity=100 time=1
the msg is note_on channel=9 note=72 velocity=100 time=4
the msg is note_off channel=9 note=72 velocity=100 time=1
the msg is note_on channel=9 note=74 velocity=100 time=10
the msg is note_off channel=9 note=74 velocity=100 time=1
the msg is note_on channel=9 note=74 velocity=100 time=10
the msg is note_off channel=9 note=74 velocity=100 time=1
the msg is note_on channel=9 note=74 velocity=100 time=10
the msg is note_off channel=9 note=74 velocity=100 time=1
the msg is note_on channel=9 note=76 velocity=100 time=10
the msg is note_off channel=9 note=76 velocity=100 time=1
the msg is note_on channel=9 note=79 velocity=100 time=10
the msg is note_off channel=9 note=79 velocity=100 time=1
the msg is note_on channel=9 note=79 velocity=100 time=6
the msg is note_off channel=9 note=79 velocity=100 time=1
the msg is note_on channel=9 note=76 velocity=100 time=3
the msg is note_off channel=9 note=76 velocity=100 time=1
the msg is note_on channel=9 note=74 velocity=100 time=6
the msg is note_off channel=9 note=74 velocity=100 time=1
the msg is note_on channel=9 note=72 velocity=100 time=3
the msg is note_off channel=9 note=72 velocity=100 time=1
the msg is note_on channel=9 note=74 velocity=100 time=10
the msg is note_off channel=9 note=74 velocity=100 time=1
the msg is note_on channel=9 note=76 velocity=100 time=10
the msg is note_off channel=9 note=76 velocity=100 time=1
the msg is note_on channel=9 note=72 velocity=100 time=4
the msg is note_off channel=9 note=72 velocity=100 time=1
the msg is note_on channel=9 note=74 velocity=100 time=4
the msg is note_off channel=9 note=74 velocity=100 time=1
the msg is note_on channel=9 note=74 velocity=100 time=10
the msg is note_off channel=9 note=74 velocity=100 time=1
the msg is note_on channel=9 note=74 velocity=100 time=10
the msg is note_off channel=9 note=74 velocity=100 time=1
the msg is note_on channel=9 note=74 velocity=100 time=4
the msg is note_off channel=9 note=74 velocity=100 time=1
the msg is note_on channel=9 note=71 velocity=100 time=4
the msg is note_off channel=9 note=71 velocity=100 time=1
the msg is note_on channel=9 note=74 velocity=100 time=10
the msg is note_off channel=9 note=74 velocity=100 time=1
the msg is note_on channel=9 note=74 velocity=100 time=10
the msg is note_off channel=9 note=74 velocity=100 time=1
the msg is note_on channel=9 note=72 velocity=100 time=3
the msg is note_off channel=9 note=72 velocity=100 time=1
the msg is note_on channel=9 note=74 velocity=100 time=10
the msg is note_off channel=9 note=74 velocity=100 time=1
the msg is note_on channel=9 note=74 velocity=100 time=10
the msg is note_off channel=9 note=74 velocity=100 time=1
the msg is note_on channel=9 note=74 velocity=100 time=4
the msg is note_off channel=9 note=74 velocity=100 time=1
the msg is note_on channel=9 note=71 velocity=100 time=4
the msg is note_off channel=9 note=71 velocity=100 time=1
the msg is note_on channel=9 note=74 velocity=100 time=4
the msg is note_off channel=9 note=74 velocity=100 time=1
the msg is note_on channel=9 note=76 velocity=100 time=10
the msg is note_off channel=9 note=76 velocity=100 time=1
the msg is note_on channel=9 note=79 velocity=100 time=10
the msg is note_off channel=9 note=79 velocity=100 time=1
the msg is note_on channel=9 note=72 velocity=100 time=3
the msg is note_off channel=9 note=72 velocity=100 time=1
the msg is note_on channel=9 note=72 velocity=100 time=6
the msg is note_off channel=9 note=72 velocity=100 time=1
the msg is note_on channel=9 note=72 velocity=100 time=3
the msg is note_off channel=9 note=72 velocity=100 time=1
the msg is note_on channel=9 note=72 velocity=100 time=10
the msg is note_off channel=9 note=72 velocity=100 time=1
the msg is note_on channel=9 note=72 velocity=100 time=4
the msg is note_off channel=9 note=72 velocity=100 time=1
the msg is note_on channel=9 note=72 velocity=100 time=4
the msg is note_off channel=9 note=72 velocity=100 time=1
the msg is <meta message end_of_track time=0>
the msg is <meta message track_name name='outTest85_512_1.0.mid' time=0>
the msg is note_on channel=9 note=69 velocity=100 time=1
the msg is note_off channel=9 note=69 velocity=100 time=1
the msg is note_on channel=9 note=72 velocity=100 time=75
the msg is note_off channel=9 note=72 velocity=100 time=1
the msg is note_on channel=9 note=72 velocity=100 time=4
the msg is note_off channel=9 note=72 velocity=100 time=1
the msg is note_on channel=9 note=72 velocity=100 time=4
the msg is note_off channel=9 note=72 velocity=100 time=1
the msg is note_on channel=9 note=72 velocity=100 time=10
the msg is note_off channel=9 note=72 velocity=100 time=1
the msg is note_on channel=9 note=74 velocity=100 time=10
the msg is note_off channel=9 note=74 velocity=100 time=1
the msg is note_on channel=9 note=74 velocity=100 time=4
the msg is note_off channel=9 note=74 velocity=100 time=1
the msg is note_on channel=9 note=71 velocity=100 time=4
the msg is note_off channel=9 note=71 velocity=100 time=1
the msg is note_on channel=9 note=74 velocity=100 time=10
the msg is note_off channel=9 note=74 velocity=100 time=1
the msg is note_on channel=9 note=74 velocity=100 time=4
the msg is note_off channel=9 note=74 velocity=100 time=1
the msg is note_on channel=9 note=71 velocity=100 time=4
the msg is note_off channel=9 note=71 velocity=100 time=1
the msg is note_on channel=9 note=71 velocity=100 time=4
the msg is note_off channel=9 note=71 velocity=100 time=1
the msg is note_on channel=9 note=69 velocity=100 time=4
the msg is note_off channel=9 note=69 velocity=100 time=1
the msg is note_on channel=9 note=72 velocity=100 time=55
the msg is note_off channel=9 note=72 velocity=100 time=1
the msg is note_on channel=9 note=72 velocity=100 time=10
the msg is note_off channel=9 note=72 velocity=100 time=1
the msg is note_on channel=9 note=72 velocity=100 time=4
the msg is note_off channel=9 note=72 velocity=100 time=1
the msg is note_on channel=9 note=72 velocity=100 time=4
the msg is note_off channel=9 note=72 velocity=100 time=1
the msg is note_on channel=9 note=72 velocity=100 time=4
the msg is note_off channel=9 note=72 velocity=100 time=1
the msg is note_on channel=9 note=76 velocity=100 time=4
the msg is note_off channel=9 note=76 velocity=100 time=1
the msg is note_on channel=9 note=79 velocity=100 time=10
the msg is note_off channel=9 note=79 velocity=100 time=1
the msg is note_on channel=9 note=76 velocity=100 time=10
the msg is note_off channel=9 note=76 velocity=100 time=1
the msg is note_on channel=9 note=79 velocity=100 time=10
the msg is note_off channel=9 note=79 velocity=100 time=1
the msg is note_on channel=9 note=79 velocity=100 time=4
the msg is note_off channel=9 note=79 velocity=100 time=1
the msg is note_on channel=9 note=76 velocity=100 time=4
the msg is note_off channel=9 note=76 velocity=100 time=1
the msg is note_on channel=9 note=74 velocity=100 time=4
the msg is note_off channel=9 note=74 velocity=100 time=1
the msg is note_on channel=9 note=72 velocity=100 time=4
the msg is note_off channel=9 note=72 velocity=100 time=1
the msg is note_on channel=9 note=74 velocity=100 time=10
the msg is note_off channel=9 note=74 velocity=100 time=1
the msg is note_on channel=9 note=74 velocity=100 time=10
the msg is note_off channel=9 note=74 velocity=100 time=1
the msg is note_on channel=9 note=74 velocity=100 time=10
the msg is note_off channel=9 note=74 velocity=100 time=1
the msg is note_on channel=9 note=76 velocity=100 time=10
the msg is note_off channel=9 note=76 velocity=100 time=1
the msg is note_on channel=9 note=79 velocity=100 time=10
the msg is note_off channel=9 note=79 velocity=100 time=1
the msg is note_on channel=9 note=79 velocity=100 time=6
the msg is note_off channel=9 note=79 velocity=100 time=1
the msg is note_on channel=9 note=76 velocity=100 time=3
the msg is note_off channel=9 note=76 velocity=100 time=1
the msg is note_on channel=9 note=74 velocity=100 time=6
the msg is note_off channel=9 note=74 velocity=100 time=1
the msg is note_on channel=9 note=72 velocity=100 time=3
the msg is note_off channel=9 note=72 velocity=100 time=1
the msg is note_on channel=9 note=74 velocity=100 time=10
the msg is note_off channel=9 note=74 velocity=100 time=1
the msg is note_on channel=9 note=76 velocity=100 time=10
the msg is note_off channel=9 note=76 velocity=100 time=1
the msg is note_on channel=9 note=72 velocity=100 time=4
the msg is note_off channel=9 note=72 velocity=100 time=1
the msg is note_on channel=9 note=74 velocity=100 time=4
the msg is note_off channel=9 note=74 velocity=100 time=1
the msg is note_on channel=9 note=74 velocity=100 time=10
the msg is note_off channel=9 note=74 velocity=100 time=1
the msg is note_on channel=9 note=74 velocity=100 time=10
the msg is note_off channel=9 note=74 velocity=100 time=1
the msg is note_on channel=9 note=74 velocity=100 time=4
the msg is note_off channel=9 note=74 velocity=100 time=1
the msg is note_on channel=9 note=71 velocity=100 time=4
the msg is note_off channel=9 note=71 velocity=100 time=1
the msg is note_on channel=9 note=74 velocity=100 time=10
the msg is note_off channel=9 note=74 velocity=100 time=1
the msg is note_on channel=9 note=74 velocity=100 time=10
the msg is note_off channel=9 note=74 velocity=100 time=1
the msg is note_on channel=9 note=72 velocity=100 time=3
the msg is note_off channel=9 note=72 velocity=100 time=1
the msg is note_on channel=9 note=74 velocity=100 time=10
the msg is note_off channel=9 note=74 velocity=100 time=1
the msg is note_on channel=9 note=74 velocity=100 time=10
the msg is note_off channel=9 note=74 velocity=100 time=1
the msg is note_on channel=9 note=74 velocity=100 time=4
the msg is note_off channel=9 note=74 velocity=100 time=1
the msg is note_on channel=9 note=71 velocity=100 time=4
the msg is note_off channel=9 note=71 velocity=100 time=1
the msg is note_on channel=9 note=74 velocity=100 time=4
the msg is note_off channel=9 note=74 velocity=100 time=1
the msg is note_on channel=9 note=76 velocity=100 time=10
the msg is note_off channel=9 note=76 velocity=100 time=1
the msg is note_on channel=9 note=79 velocity=100 time=10
the msg is note_off channel=9 note=79 velocity=100 time=1
the msg is note_on channel=9 note=72 velocity=100 time=3
the msg is note_off channel=9 note=72 velocity=100 time=1
the msg is note_on channel=9 note=72 velocity=100 time=6
the msg is note_off channel=9 note=72 velocity=100 time=1
the msg is note_on channel=9 note=72 velocity=100 time=3
the msg is note_off channel=9 note=72 velocity=100 time=1
the msg is note_on channel=9 note=72 velocity=100 time=10
the msg is note_off channel=9 note=72 velocity=100 time=1
the msg is note_on channel=9 note=72 velocity=100 time=4
the msg is note_off channel=9 note=72 velocity=100 time=1
the msg is note_on channel=9 note=72 velocity=100 time=4
the msg is note_off channel=9 note=72 velocity=100 time=1
the msg is <meta message end_of_track time=0>
the msg is <meta message track_name name='outTest85_512_1.0.mid' time=0>
the msg is note_on channel=9 note=69 velocity=100 time=1
the msg is note_off channel=9 note=69 velocity=100 time=1
the msg is note_on channel=9 note=72 velocity=100 time=75
the msg is note_off channel=9 note=72 velocity=100 time=1
the msg is note_on channel=9 note=72 velocity=100 time=4
the msg is note_off channel=9 note=72 velocity=100 time=1
the msg is note_on channel=9 note=72 velocity=100 time=4
the msg is note_off channel=9 note=72 velocity=100 time=1
the msg is note_on channel=9 note=72 velocity=100 time=10
the msg is note_off channel=9 note=72 velocity=100 time=1
the msg is note_on channel=9 note=74 velocity=100 time=10
the msg is note_off channel=9 note=74 velocity=100 time=1
the msg is note_on channel=9 note=74 velocity=100 time=4
the msg is note_off channel=9 note=74 velocity=100 time=1
the msg is note_on channel=9 note=71 velocity=100 time=4
the msg is note_off channel=9 note=71 velocity=100 time=1
the msg is note_on channel=9 note=74 velocity=100 time=10
the msg is note_off channel=9 note=74 velocity=100 time=1
the msg is note_on channel=9 note=74 velocity=100 time=4
the msg is note_off channel=9 note=74 velocity=100 time=1
the msg is note_on channel=9 note=71 velocity=100 time=4
the msg is note_off channel=9 note=71 velocity=100 time=1
the msg is note_on channel=9 note=71 velocity=100 time=4
the msg is note_off channel=9 note=71 velocity=100 time=1
the msg is note_on channel=9 note=69 velocity=100 time=4
the msg is note_off channel=9 note=69 velocity=100 time=1
the msg is note_on channel=9 note=72 velocity=100 time=55
the msg is note_off channel=9 note=72 velocity=100 time=1
the msg is note_on channel=9 note=72 velocity=100 time=10
the msg is note_off channel=9 note=72 velocity=100 time=1
the msg is note_on channel=9 note=72 velocity=100 time=4
the msg is note_off channel=9 note=72 velocity=100 time=1
the msg is note_on channel=9 note=72 velocity=100 time=4
the msg is note_off channel=9 note=72 velocity=100 time=1
the msg is note_on channel=9 note=72 velocity=100 time=4
the msg is note_off channel=9 note=72 velocity=100 time=1
the msg is note_on channel=9 note=76 velocity=100 time=4
the msg is note_off channel=9 note=76 velocity=100 time=1
the msg is note_on channel=9 note=79 velocity=100 time=10
the msg is note_off channel=9 note=79 velocity=100 time=1
the msg is note_on channel=9 note=76 velocity=100 time=10
the msg is note_off channel=9 note=76 velocity=100 time=1
the msg is note_on channel=9 note=79 velocity=100 time=10
the msg is note_off channel=9 note=79 velocity=100 time=1
the msg is note_on channel=9 note=79 velocity=100 time=4
the msg is note_off channel=9 note=79 velocity=100 time=1
the msg is note_on channel=9 note=76 velocity=100 time=4
the msg is note_off channel=9 note=76 velocity=100 time=1
the msg is note_on channel=9 note=74 velocity=100 time=4
the msg is note_off channel=9 note=74 velocity=100 time=1
the msg is note_on channel=9 note=72 velocity=100 time=4
the msg is note_off channel=9 note=72 velocity=100 time=1
the msg is note_on channel=9 note=74 velocity=100 time=10
the msg is note_off channel=9 note=74 velocity=100 time=1
the msg is note_on channel=9 note=74 velocity=100 time=10
the msg is note_off channel=9 note=74 velocity=100 time=1
the msg is note_on channel=9 note=74 velocity=100 time=10
the msg is note_off channel=9 note=74 velocity=100 time=1
the msg is note_on channel=9 note=76 velocity=100 time=10
the msg is note_off channel=9 note=76 velocity=100 time=1
the msg is note_on channel=9 note=79 velocity=100 time=10
the msg is note_off channel=9 note=79 velocity=100 time=1
the msg is note_on channel=9 note=79 velocity=100 time=6
the msg is note_off channel=9 note=79 velocity=100 time=1
the msg is note_on channel=9 note=76 velocity=100 time=3
the msg is note_off channel=9 note=76 velocity=100 time=1
the msg is note_on channel=9 note=74 velocity=100 time=6
the msg is note_off channel=9 note=74 velocity=100 time=1
the msg is note_on channel=9 note=72 velocity=100 time=3
the msg is note_off channel=9 note=72 velocity=100 time=1
the msg is note_on channel=9 note=74 velocity=100 time=10
the msg is note_off channel=9 note=74 velocity=100 time=1
the msg is note_on channel=9 note=76 velocity=100 time=10
the msg is note_off channel=9 note=76 velocity=100 time=1
the msg is note_on channel=9 note=72 velocity=100 time=4
the msg is note_off channel=9 note=72 velocity=100 time=1
the msg is note_on channel=9 note=74 velocity=100 time=4
the msg is note_off channel=9 note=74 velocity=100 time=1
the msg is note_on channel=9 note=74 velocity=100 time=10
the msg is note_off channel=9 note=74 velocity=100 time=1
the msg is note_on channel=9 note=74 velocity=100 time=10
the msg is note_off channel=9 note=74 velocity=100 time=1
the msg is note_on channel=9 note=74 velocity=100 time=4
the msg is note_off channel=9 note=74 velocity=100 time=1
the msg is note_on channel=9 note=71 velocity=100 time=4
the msg is note_off channel=9 note=71 velocity=100 time=1
the msg is note_on channel=9 note=74 velocity=100 time=10
the msg is note_off channel=9 note=74 velocity=100 time=1
the msg is note_on channel=9 note=74 velocity=100 time=10
the msg is note_off channel=9 note=74 velocity=100 time=1
the msg is note_on channel=9 note=72 velocity=100 time=3
the msg is note_off channel=9 note=72 velocity=100 time=1
the msg is note_on channel=9 note=74 velocity=100 time=10
the msg is note_off channel=9 note=74 velocity=100 time=1
the msg is note_on channel=9 note=74 velocity=100 time=10
the msg is note_off channel=9 note=74 velocity=100 time=1
the msg is note_on channel=9 note=74 velocity=100 time=4
the msg is note_off channel=9 note=74 velocity=100 time=1
the msg is note_on channel=9 note=71 velocity=100 time=4
the msg is note_off channel=9 note=71 velocity=100 time=1
the msg is note_on channel=9 note=74 velocity=100 time=4
the msg is note_off channel=9 note=74 velocity=100 time=1
the msg is note_on channel=9 note=76 velocity=100 time=10
the msg is note_off channel=9 note=76 velocity=100 time=1
the msg is note_on channel=9 note=79 velocity=100 time=10
the msg is note_off channel=9 note=79 velocity=100 time=1
the msg is note_on channel=9 note=72 velocity=100 time=3
the msg is note_off channel=9 note=72 velocity=100 time=1
the msg is note_on channel=9 note=72 velocity=100 time=6
the msg is note_off channel=9 note=72 velocity=100 time=1
the msg is note_on channel=9 note=72 velocity=100 time=3
the msg is note_off channel=9 note=72 velocity=100 time=1
the msg is note_on channel=9 note=72 velocity=100 time=10
the msg is note_off channel=9 note=72 velocity=100 time=1
the msg is note_on channel=9 note=72 velocity=100 time=4
the msg is note_off channel=9 note=72 velocity=100 time=1
the msg is note_on channel=9 note=72 velocity=100 time=4
the msg is note_off channel=9 note=72 velocity=100 time=1
the msg is <meta message end_of_track time=0>
the msg is <meta message track_name name='outTest85_512_1.0.mid' time=0>
the msg is note_on channel=9 note=69 velocity=100 time=1
the msg is note_off channel=9 note=69 velocity=100 time=1
the msg is note_on channel=9 note=72 velocity=100 time=75
the msg is note_off channel=9 note=72 velocity=100 time=1
the msg is note_on channel=9 note=72 velocity=100 time=4
the msg is note_off channel=9 note=72 velocity=100 time=1
the msg is note_on channel=9 note=72 velocity=100 time=4
the msg is note_off channel=9 note=72 velocity=100 time=1
the msg is note_on channel=9 note=72 velocity=100 time=10
the msg is note_off channel=9 note=72 velocity=100 time=1
the msg is note_on channel=9 note=74 velocity=100 time=10
the msg is note_off channel=9 note=74 velocity=100 time=1
the msg is note_on channel=9 note=74 velocity=100 time=4
the msg is note_off channel=9 note=74 velocity=100 time=1
the msg is note_on channel=9 note=71 velocity=100 time=4
the msg is note_off channel=9 note=71 velocity=100 time=1
the msg is note_on channel=9 note=74 velocity=100 time=10
the msg is note_off channel=9 note=74 velocity=100 time=1
the msg is note_on channel=9 note=74 velocity=100 time=4
the msg is note_off channel=9 note=74 velocity=100 time=1
the msg is note_on channel=9 note=71 velocity=100 time=4
the msg is note_off channel=9 note=71 velocity=100 time=1
the msg is note_on channel=9 note=71 velocity=100 time=4
the msg is note_off channel=9 note=71 velocity=100 time=1
the msg is note_on channel=9 note=69 velocity=100 time=4
the msg is note_off channel=9 note=69 velocity=100 time=1
the msg is note_on channel=9 note=72 velocity=100 time=55
the msg is note_off channel=9 note=72 velocity=100 time=1
the msg is note_on channel=9 note=72 velocity=100 time=10
the msg is note_off channel=9 note=72 velocity=100 time=1
the msg is note_on channel=9 note=72 velocity=100 time=4
the msg is note_off channel=9 note=72 velocity=100 time=1
the msg is note_on channel=9 note=72 velocity=100 time=4
the msg is note_off channel=9 note=72 velocity=100 time=1
the msg is note_on channel=9 note=72 velocity=100 time=4
the msg is note_off channel=9 note=72 velocity=100 time=1
the msg is note_on channel=9 note=76 velocity=100 time=4
the msg is note_off channel=9 note=76 velocity=100 time=1
the msg is note_on channel=9 note=79 velocity=100 time=10
the msg is note_off channel=9 note=79 velocity=100 time=1
the msg is note_on channel=9 note=76 velocity=100 time=10
the msg is note_off channel=9 note=76 velocity=100 time=1
the msg is note_on channel=9 note=79 velocity=100 time=10
the msg is note_off channel=9 note=79 velocity=100 time=1
the msg is note_on channel=9 note=79 velocity=100 time=4
the msg is note_off channel=9 note=79 velocity=100 time=1
the msg is note_on channel=9 note=76 velocity=100 time=4
the msg is note_off channel=9 note=76 velocity=100 time=1
the msg is note_on channel=9 note=74 velocity=100 time=4
the msg is note_off channel=9 note=74 velocity=100 time=1
the msg is note_on channel=9 note=72 velocity=100 time=4
the msg is note_off channel=9 note=72 velocity=100 time=1
the msg is note_on channel=9 note=74 velocity=100 time=10
the msg is note_off channel=9 note=74 velocity=100 time=1
the msg is note_on channel=9 note=74 velocity=100 time=10
the msg is note_off channel=9 note=74 velocity=100 time=1
the msg is note_on channel=9 note=74 velocity=100 time=10
the msg is note_off channel=9 note=74 velocity=100 time=1
the msg is note_on channel=9 note=76 velocity=100 time=10
the msg is note_off channel=9 note=76 velocity=100 time=1
the msg is note_on channel=9 note=79 velocity=100 time=10
the msg is note_off channel=9 note=79 velocity=100 time=1
the msg is note_on channel=9 note=79 velocity=100 time=6
the msg is note_off channel=9 note=79 velocity=100 time=1
the msg is note_on channel=9 note=76 velocity=100 time=3
the msg is note_off channel=9 note=76 velocity=100 time=1
the msg is note_on channel=9 note=74 velocity=100 time=6
the msg is note_off channel=9 note=74 velocity=100 time=1
the msg is note_on channel=9 note=72 velocity=100 time=3
the msg is note_off channel=9 note=72 velocity=100 time=1
the msg is note_on channel=9 note=74 velocity=100 time=10
the msg is note_off channel=9 note=74 velocity=100 time=1
the msg is note_on channel=9 note=76 velocity=100 time=10
the msg is note_off channel=9 note=76 velocity=100 time=1
the msg is note_on channel=9 note=72 velocity=100 time=4
the msg is note_off channel=9 note=72 velocity=100 time=1
the msg is note_on channel=9 note=74 velocity=100 time=4
the msg is note_off channel=9 note=74 velocity=100 time=1
the msg is note_on channel=9 note=74 velocity=100 time=10
the msg is note_off channel=9 note=74 velocity=100 time=1
the msg is note_on channel=9 note=74 velocity=100 time=10
the msg is note_off channel=9 note=74 velocity=100 time=1
the msg is note_on channel=9 note=74 velocity=100 time=4
the msg is note_off channel=9 note=74 velocity=100 time=1
the msg is note_on channel=9 note=71 velocity=100 time=4
the msg is note_off channel=9 note=71 velocity=100 time=1
the msg is note_on channel=9 note=74 velocity=100 time=10
the msg is note_off channel=9 note=74 velocity=100 time=1
the msg is note_on channel=9 note=74 velocity=100 time=10
the msg is note_off channel=9 note=74 velocity=100 time=1
the msg is note_on channel=9 note=72 velocity=100 time=3
the msg is note_off channel=9 note=72 velocity=100 time=1
the msg is note_on channel=9 note=74 velocity=100 time=10
the msg is note_off channel=9 note=74 velocity=100 time=1
the msg is note_on channel=9 note=74 velocity=100 time=10
the msg is note_off channel=9 note=74 velocity=100 time=1
the msg is note_on channel=9 note=74 velocity=100 time=4
the msg is note_off channel=9 note=74 velocity=100 time=1
the msg is note_on channel=9 note=71 velocity=100 time=4
the msg is note_off channel=9 note=71 velocity=100 time=1
the msg is note_on channel=9 note=74 velocity=100 time=4
the msg is note_off channel=9 note=74 velocity=100 time=1
the msg is note_on channel=9 note=76 velocity=100 time=10
the msg is note_off channel=9 note=76 velocity=100 time=1
the msg is note_on channel=9 note=79 velocity=100 time=10
the msg is note_off channel=9 note=79 velocity=100 time=1
the msg is note_on channel=9 note=72 velocity=100 time=3
the msg is note_off channel=9 note=72 velocity=100 time=1
the msg is note_on channel=9 note=72 velocity=100 time=6
the msg is note_off channel=9 note=72 velocity=100 time=1
the msg is note_on channel=9 note=72 velocity=100 time=3
the msg is note_off channel=9 note=72 velocity=100 time=1
the msg is note_on channel=9 note=72 velocity=100 time=10
the msg is note_off channel=9 note=72 velocity=100 time=1
the msg is note_on channel=9 note=72 velocity=100 time=4
the msg is note_off channel=9 note=72 velocity=100 time=1
the msg is note_on channel=9 note=72 velocity=100 time=4
the msg is note_off channel=9 note=72 velocity=100 time=1
the msg is <meta message end_of_track time=0>
the msg is <meta message track_name name='outTest85_512_1.0.mid' time=0>
the msg is note_on channel=9 note=69 velocity=100 time=1
the msg is note_off channel=9 note=69 velocity=100 time=1
the msg is note_on channel=9 note=72 velocity=100 time=75
the msg is note_off channel=9 note=72 velocity=100 time=1
the msg is note_on channel=9 note=72 velocity=100 time=4
the msg is note_off channel=9 note=72 velocity=100 time=1
the msg is note_on channel=9 note=72 velocity=100 time=4
the msg is note_off channel=9 note=72 velocity=100 time=1
the msg is note_on channel=9 note=72 velocity=100 time=10
the msg is note_off channel=9 note=72 velocity=100 time=1
the msg is note_on channel=9 note=74 velocity=100 time=10
the msg is note_off channel=9 note=74 velocity=100 time=1
the msg is note_on channel=9 note=74 velocity=100 time=4
the msg is note_off channel=9 note=74 velocity=100 time=1
the msg is note_on channel=9 note=71 velocity=100 time=4
the msg is note_off channel=9 note=71 velocity=100 time=1
the msg is note_on channel=9 note=74 velocity=100 time=10
the msg is note_off channel=9 note=74 velocity=100 time=1
the msg is note_on channel=9 note=74 velocity=100 time=4
the msg is note_off channel=9 note=74 velocity=100 time=1
the msg is note_on channel=9 note=71 velocity=100 time=4
the msg is note_off channel=9 note=71 velocity=100 time=1
the msg is note_on channel=9 note=71 velocity=100 time=4
the msg is note_off channel=9 note=71 velocity=100 time=1
the msg is note_on channel=9 note=69 velocity=100 time=4
the msg is note_off channel=9 note=69 velocity=100 time=1
the msg is note_on channel=9 note=72 velocity=100 time=55
the msg is note_off channel=9 note=72 velocity=100 time=1
the msg is note_on channel=9 note=72 velocity=100 time=10
the msg is note_off channel=9 note=72 velocity=100 time=1
the msg is note_on channel=9 note=72 velocity=100 time=4
the msg is note_off channel=9 note=72 velocity=100 time=1
the msg is note_on channel=9 note=72 velocity=100 time=4
the msg is note_off channel=9 note=72 velocity=100 time=1
the msg is note_on channel=9 note=72 velocity=100 time=4
the msg is note_off channel=9 note=72 velocity=100 time=1
the msg is note_on channel=9 note=76 velocity=100 time=4
the msg is note_off channel=9 note=76 velocity=100 time=1
the msg is note_on channel=9 note=79 velocity=100 time=10
the msg is note_off channel=9 note=79 velocity=100 time=1
the msg is note_on channel=9 note=76 velocity=100 time=10
the msg is note_off channel=9 note=76 velocity=100 time=1
the msg is note_on channel=9 note=79 velocity=100 time=10
the msg is note_off channel=9 note=79 velocity=100 time=1
the msg is note_on channel=9 note=79 velocity=100 time=4
the msg is note_off channel=9 note=79 velocity=100 time=1
the msg is note_on channel=9 note=76 velocity=100 time=4
the msg is note_off channel=9 note=76 velocity=100 time=1
the msg is note_on channel=9 note=74 velocity=100 time=4
the msg is note_off channel=9 note=74 velocity=100 time=1
the msg is note_on channel=9 note=72 velocity=100 time=4
the msg is note_off channel=9 note=72 velocity=100 time=1
the msg is note_on channel=9 note=74 velocity=100 time=10
the msg is note_off channel=9 note=74 velocity=100 time=1
the msg is note_on channel=9 note=74 velocity=100 time=10
the msg is note_off channel=9 note=74 velocity=100 time=1
the msg is note_on channel=9 note=74 velocity=100 time=10
the msg is note_off channel=9 note=74 velocity=100 time=1
the msg is note_on channel=9 note=76 velocity=100 time=10
the msg is note_off channel=9 note=76 velocity=100 time=1
the msg is note_on channel=9 note=79 velocity=100 time=10
the msg is note_off channel=9 note=79 velocity=100 time=1
the msg is note_on channel=9 note=79 velocity=100 time=6
the msg is note_off channel=9 note=79 velocity=100 time=1
the msg is note_on channel=9 note=76 velocity=100 time=3
the msg is note_off channel=9 note=76 velocity=100 time=1
the msg is note_on channel=9 note=74 velocity=100 time=6
the msg is note_off channel=9 note=74 velocity=100 time=1
the msg is note_on channel=9 note=72 velocity=100 time=3
the msg is note_off channel=9 note=72 velocity=100 time=1
the msg is note_on channel=9 note=74 velocity=100 time=10
the msg is note_off channel=9 note=74 velocity=100 time=1
the msg is note_on channel=9 note=76 velocity=100 time=10
the msg is note_off channel=9 note=76 velocity=100 time=1
the msg is note_on channel=9 note=72 velocity=100 time=4
the msg is note_off channel=9 note=72 velocity=100 time=1
the msg is note_on channel=9 note=74 velocity=100 time=4
the msg is note_off channel=9 note=74 velocity=100 time=1
the msg is note_on channel=9 note=74 velocity=100 time=10
the msg is note_off channel=9 note=74 velocity=100 time=1
the msg is note_on channel=9 note=74 velocity=100 time=10
the msg is note_off channel=9 note=74 velocity=100 time=1
the msg is note_on channel=9 note=74 velocity=100 time=4
the msg is note_off channel=9 note=74 velocity=100 time=1
the msg is note_on channel=9 note=71 velocity=100 time=4
the msg is note_off channel=9 note=71 velocity=100 time=1
the msg is note_on channel=9 note=74 velocity=100 time=10
the msg is note_off channel=9 note=74 velocity=100 time=1
the msg is note_on channel=9 note=74 velocity=100 time=10
the msg is note_off channel=9 note=74 velocity=100 time=1
the msg is note_on channel=9 note=72 velocity=100 time=3
the msg is note_off channel=9 note=72 velocity=100 time=1
the msg is note_on channel=9 note=74 velocity=100 time=10
the msg is note_off channel=9 note=74 velocity=100 time=1
the msg is note_on channel=9 note=74 velocity=100 time=10
the msg is note_off channel=9 note=74 velocity=100 time=1
the msg is note_on channel=9 note=74 velocity=100 time=4
the msg is note_off channel=9 note=74 velocity=100 time=1
the msg is note_on channel=9 note=71 velocity=100 time=4
the msg is note_off channel=9 note=71 velocity=100 time=1
the msg is note_on channel=9 note=74 velocity=100 time=4
the msg is note_off channel=9 note=74 velocity=100 time=1
the msg is note_on channel=9 note=76 velocity=100 time=10
the msg is note_off channel=9 note=76 velocity=100 time=1
the msg is note_on channel=9 note=79 velocity=100 time=10
the msg is note_off channel=9 note=79 velocity=100 time=1
the msg is note_on channel=9 note=72 velocity=100 time=3
the msg is note_off channel=9 note=72 velocity=100 time=1
the msg is note_on channel=9 note=72 velocity=100 time=6
the msg is note_off channel=9 note=72 velocity=100 time=1
the msg is note_on channel=9 note=72 velocity=100 time=3
the msg is note_off channel=9 note=72 velocity=100 time=1
the msg is note_on channel=9 note=72 velocity=100 time=10
the msg is note_off channel=9 note=72 velocity=100 time=1
the msg is note_on channel=9 note=72 velocity=100 time=4
the msg is note_off channel=9 note=72 velocity=100 time=1
the msg is note_on channel=9 note=72 velocity=100 time=4
the msg is note_off channel=9 note=72 velocity=100 time=1
the msg is <meta message end_of_track time=0>
the msg is <meta message track_name name='outTest85_512_1.0.mid' time=0>
the msg is note_on channel=9 note=69 velocity=100 time=1
the msg is note_off channel=9 note=69 velocity=100 time=1
the msg is note_on channel=9 note=72 velocity=100 time=75
the msg is note_off channel=9 note=72 velocity=100 time=1
the msg is note_on channel=9 note=72 velocity=100 time=4
the msg is note_off channel=9 note=72 velocity=100 time=1
the msg is note_on channel=9 note=72 velocity=100 time=4
the msg is note_off channel=9 note=72 velocity=100 time=1
the msg is note_on channel=9 note=72 velocity=100 time=10
the msg is note_off channel=9 note=72 velocity=100 time=1
the msg is note_on channel=9 note=74 velocity=100 time=10
the msg is note_off channel=9 note=74 velocity=100 time=1
the msg is note_on channel=9 note=74 velocity=100 time=4
the msg is note_off channel=9 note=74 velocity=100 time=1
the msg is note_on channel=9 note=71 velocity=100 time=4
the msg is note_off channel=9 note=71 velocity=100 time=1
the msg is note_on channel=9 note=74 velocity=100 time=10
the msg is note_off channel=9 note=74 velocity=100 time=1
the msg is note_on channel=9 note=74 velocity=100 time=4
the msg is note_off channel=9 note=74 velocity=100 time=1
the msg is note_on channel=9 note=71 velocity=100 time=4
the msg is note_off channel=9 note=71 velocity=100 time=1
the msg is note_on channel=9 note=71 velocity=100 time=4
the msg is note_off channel=9 note=71 velocity=100 time=1
the msg is note_on channel=9 note=69 velocity=100 time=4
the msg is note_off channel=9 note=69 velocity=100 time=1
the msg is note_on channel=9 note=72 velocity=100 time=55
the msg is note_off channel=9 note=72 velocity=100 time=1
the msg is note_on channel=9 note=72 velocity=100 time=10
the msg is note_off channel=9 note=72 velocity=100 time=1
the msg is note_on channel=9 note=72 velocity=100 time=4
the msg is note_off channel=9 note=72 velocity=100 time=1
the msg is note_on channel=9 note=72 velocity=100 time=4
the msg is note_off channel=9 note=72 velocity=100 time=1
the msg is note_on channel=9 note=72 velocity=100 time=4
the msg is note_off channel=9 note=72 velocity=100 time=1
the msg is note_on channel=9 note=76 velocity=100 time=4
the msg is note_off channel=9 note=76 velocity=100 time=1
the msg is note_on channel=9 note=79 velocity=100 time=10
the msg is note_off channel=9 note=79 velocity=100 time=1
the msg is note_on channel=9 note=76 velocity=100 time=10
the msg is note_off channel=9 note=76 velocity=100 time=1
the msg is note_on channel=9 note=79 velocity=100 time=10
the msg is note_off channel=9 note=79 velocity=100 time=1
the msg is note_on channel=9 note=79 velocity=100 time=4
the msg is note_off channel=9 note=79 velocity=100 time=1
the msg is note_on channel=9 note=76 velocity=100 time=4
the msg is note_off channel=9 note=76 velocity=100 time=1
the msg is note_on channel=9 note=74 velocity=100 time=4
the msg is note_off channel=9 note=74 velocity=100 time=1
the msg is note_on channel=9 note=72 velocity=100 time=4
the msg is note_off channel=9 note=72 velocity=100 time=1
the msg is note_on channel=9 note=74 velocity=100 time=10
the msg is note_off channel=9 note=74 velocity=100 time=1
the msg is note_on channel=9 note=74 velocity=100 time=10
the msg is note_off channel=9 note=74 velocity=100 time=1
the msg is note_on channel=9 note=74 velocity=100 time=10
the msg is note_off channel=9 note=74 velocity=100 time=1
the msg is note_on channel=9 note=76 velocity=100 time=10
the msg is note_off channel=9 note=76 velocity=100 time=1
the msg is note_on channel=9 note=79 velocity=100 time=10
the msg is note_off channel=9 note=79 velocity=100 time=1
the msg is note_on channel=9 note=79 velocity=100 time=6
the msg is note_off channel=9 note=79 velocity=100 time=1
the msg is note_on channel=9 note=76 velocity=100 time=3
the msg is note_off channel=9 note=76 velocity=100 time=1
the msg is note_on channel=9 note=74 velocity=100 time=6
the msg is note_off channel=9 note=74 velocity=100 time=1
the msg is note_on channel=9 note=72 velocity=100 time=3
the msg is note_off channel=9 note=72 velocity=100 time=1
the msg is note_on channel=9 note=74 velocity=100 time=10
the msg is note_off channel=9 note=74 velocity=100 time=1
the msg is note_on channel=9 note=76 velocity=100 time=10
the msg is note_off channel=9 note=76 velocity=100 time=1
the msg is note_on channel=9 note=72 velocity=100 time=4
the msg is note_off channel=9 note=72 velocity=100 time=1
the msg is note_on channel=9 note=74 velocity=100 time=4
the msg is note_off channel=9 note=74 velocity=100 time=1
the msg is note_on channel=9 note=74 velocity=100 time=10
the msg is note_off channel=9 note=74 velocity=100 time=1
the msg is note_on channel=9 note=74 velocity=100 time=10
the msg is note_off channel=9 note=74 velocity=100 time=1
the msg is note_on channel=9 note=74 velocity=100 time=4
the msg is note_off channel=9 note=74 velocity=100 time=1
the msg is note_on channel=9 note=71 velocity=100 time=4
the msg is note_off channel=9 note=71 velocity=100 time=1
the msg is note_on channel=9 note=74 velocity=100 time=10
the msg is note_off channel=9 note=74 velocity=100 time=1
the msg is note_on channel=9 note=74 velocity=100 time=10
the msg is note_off channel=9 note=74 velocity=100 time=1
the msg is note_on channel=9 note=72 velocity=100 time=3
the msg is note_off channel=9 note=72 velocity=100 time=1
the msg is note_on channel=9 note=74 velocity=100 time=10
the msg is note_off channel=9 note=74 velocity=100 time=1
the msg is note_on channel=9 note=74 velocity=100 time=10
the msg is note_off channel=9 note=74 velocity=100 time=1
the msg is note_on channel=9 note=74 velocity=100 time=4
the msg is note_off channel=9 note=74 velocity=100 time=1
the msg is note_on channel=9 note=71 velocity=100 time=4
the msg is note_off channel=9 note=71 velocity=100 time=1
the msg is note_on channel=9 note=74 velocity=100 time=4
the msg is note_off channel=9 note=74 velocity=100 time=1
the msg is note_on channel=9 note=76 velocity=100 time=10
the msg is note_off channel=9 note=76 velocity=100 time=1
the msg is note_on channel=9 note=79 velocity=100 time=10
the msg is note_off channel=9 note=79 velocity=100 time=1
the msg is note_on channel=9 note=72 velocity=100 time=3
the msg is note_off channel=9 note=72 velocity=100 time=1
the msg is note_on channel=9 note=72 velocity=100 time=6
the msg is note_off channel=9 note=72 velocity=100 time=1
the msg is note_on channel=9 note=72 velocity=100 time=3
the msg is note_off channel=9 note=72 velocity=100 time=1
the msg is note_on channel=9 note=72 velocity=100 time=10
the msg is note_off channel=9 note=72 velocity=100 time=1
the msg is note_on channel=9 note=72 velocity=100 time=4
the msg is note_off channel=9 note=72 velocity=100 time=1
the msg is note_on channel=9 note=72 velocity=100 time=4
the msg is note_off channel=9 note=72 velocity=100 time=1
the msg is <meta message end_of_track time=0>
the msg is <meta message track_name name='outTest85_512_1.0.mid' time=0>
the msg is note_on channel=9 note=69 velocity=100 time=1
the msg is note_off channel=9 note=69 velocity=100 time=1
the msg is note_on channel=9 note=72 velocity=100 time=75
the msg is note_off channel=9 note=72 velocity=100 time=1
the msg is note_on channel=9 note=72 velocity=100 time=4
the msg is note_off channel=9 note=72 velocity=100 time=1
the msg is note_on channel=9 note=72 velocity=100 time=4
the msg is note_off channel=9 note=72 velocity=100 time=1
the msg is note_on channel=9 note=72 velocity=100 time=10
the msg is note_off channel=9 note=72 velocity=100 time=1
the msg is note_on channel=9 note=74 velocity=100 time=10
the msg is note_off channel=9 note=74 velocity=100 time=1
the msg is note_on channel=9 note=74 velocity=100 time=4
the msg is note_off channel=9 note=74 velocity=100 time=1
the msg is note_on channel=9 note=71 velocity=100 time=4
the msg is note_off channel=9 note=71 velocity=100 time=1
the msg is note_on channel=9 note=74 velocity=100 time=10
the msg is note_off channel=9 note=74 velocity=100 time=1
the msg is note_on channel=9 note=74 velocity=100 time=4
the msg is note_off channel=9 note=74 velocity=100 time=1
the msg is note_on channel=9 note=71 velocity=100 time=4
the msg is note_off channel=9 note=71 velocity=100 time=1
the msg is note_on channel=9 note=71 velocity=100 time=4
the msg is note_off channel=9 note=71 velocity=100 time=1
the msg is note_on channel=9 note=69 velocity=100 time=4
the msg is note_off channel=9 note=69 velocity=100 time=1
the msg is note_on channel=9 note=72 velocity=100 time=55
the msg is note_off channel=9 note=72 velocity=100 time=1
the msg is note_on channel=9 note=72 velocity=100 time=10
the msg is note_off channel=9 note=72 velocity=100 time=1
the msg is note_on channel=9 note=72 velocity=100 time=4
the msg is note_off channel=9 note=72 velocity=100 time=1
the msg is note_on channel=9 note=72 velocity=100 time=4
the msg is note_off channel=9 note=72 velocity=100 time=1
the msg is note_on channel=9 note=72 velocity=100 time=4
the msg is note_off channel=9 note=72 velocity=100 time=1
the msg is note_on channel=9 note=76 velocity=100 time=4
the msg is note_off channel=9 note=76 velocity=100 time=1
the msg is note_on channel=9 note=79 velocity=100 time=10
the msg is note_off channel=9 note=79 velocity=100 time=1
the msg is note_on channel=9 note=76 velocity=100 time=10
the msg is note_off channel=9 note=76 velocity=100 time=1
the msg is note_on channel=9 note=79 velocity=100 time=10
the msg is note_off channel=9 note=79 velocity=100 time=1
the msg is note_on channel=9 note=79 velocity=100 time=4
the msg is note_off channel=9 note=79 velocity=100 time=1
the msg is note_on channel=9 note=76 velocity=100 time=4
the msg is note_off channel=9 note=76 velocity=100 time=1
the msg is note_on channel=9 note=74 velocity=100 time=4
the msg is note_off channel=9 note=74 velocity=100 time=1
the msg is note_on channel=9 note=72 velocity=100 time=4
the msg is note_off channel=9 note=72 velocity=100 time=1
the msg is note_on channel=9 note=74 velocity=100 time=10
the msg is note_off channel=9 note=74 velocity=100 time=1
the msg is note_on channel=9 note=74 velocity=100 time=10
the msg is note_off channel=9 note=74 velocity=100 time=1
the msg is note_on channel=9 note=74 velocity=100 time=10
the msg is note_off channel=9 note=74 velocity=100 time=1
the msg is note_on channel=9 note=76 velocity=100 time=10
the msg is note_off channel=9 note=76 velocity=100 time=1
the msg is note_on channel=9 note=79 velocity=100 time=10
the msg is note_off channel=9 note=79 velocity=100 time=1
the msg is note_on channel=9 note=79 velocity=100 time=6
the msg is note_off channel=9 note=79 velocity=100 time=1
the msg is note_on channel=9 note=76 velocity=100 time=3
the msg is note_off channel=9 note=76 velocity=100 time=1
the msg is note_on channel=9 note=74 velocity=100 time=6
the msg is note_off channel=9 note=74 velocity=100 time=1
the msg is note_on channel=9 note=72 velocity=100 time=3
the msg is note_off channel=9 note=72 velocity=100 time=1
the msg is note_on channel=9 note=74 velocity=100 time=10
the msg is note_off channel=9 note=74 velocity=100 time=1
the msg is note_on channel=9 note=76 velocity=100 time=10
the msg is note_off channel=9 note=76 velocity=100 time=1
the msg is note_on channel=9 note=72 velocity=100 time=4
the msg is note_off channel=9 note=72 velocity=100 time=1
the msg is note_on channel=9 note=74 velocity=100 time=4
the msg is note_off channel=9 note=74 velocity=100 time=1
the msg is note_on channel=9 note=74 velocity=100 time=10
the msg is note_off channel=9 note=74 velocity=100 time=1
the msg is note_on channel=9 note=74 velocity=100 time=10
the msg is note_off channel=9 note=74 velocity=100 time=1
the msg is note_on channel=9 note=74 velocity=100 time=4
the msg is note_off channel=9 note=74 velocity=100 time=1
the msg is note_on channel=9 note=71 velocity=100 time=4
the msg is note_off channel=9 note=71 velocity=100 time=1
the msg is note_on channel=9 note=74 velocity=100 time=10
the msg is note_off channel=9 note=74 velocity=100 time=1
the msg is note_on channel=9 note=74 velocity=100 time=10
the msg is note_off channel=9 note=74 velocity=100 time=1
the msg is note_on channel=9 note=72 velocity=100 time=3
the msg is note_off channel=9 note=72 velocity=100 time=1
the msg is note_on channel=9 note=74 velocity=100 time=10
the msg is note_off channel=9 note=74 velocity=100 time=1
the msg is note_on channel=9 note=74 velocity=100 time=10
the msg is note_off channel=9 note=74 velocity=100 time=1
the msg is note_on channel=9 note=74 velocity=100 time=4
the msg is note_off channel=9 note=74 velocity=100 time=1
the msg is note_on channel=9 note=71 velocity=100 time=4
the msg is note_off channel=9 note=71 velocity=100 time=1
the msg is note_on channel=9 note=74 velocity=100 time=4
the msg is note_off channel=9 note=74 velocity=100 time=1
the msg is note_on channel=9 note=76 velocity=100 time=10
the msg is note_off channel=9 note=76 velocity=100 time=1
the msg is note_on channel=9 note=79 velocity=100 time=10
the msg is note_off channel=9 note=79 velocity=100 time=1
the msg is note_on channel=9 note=72 velocity=100 time=3
the msg is note_off channel=9 note=72 velocity=100 time=1
the msg is note_on channel=9 note=72 velocity=100 time=6
the msg is note_off channel=9 note=72 velocity=100 time=1
the msg is note_on channel=9 note=72 velocity=100 time=3
the msg is note_off channel=9 note=72 velocity=100 time=1
the msg is note_on channel=9 note=72 velocity=100 time=10
the msg is note_off channel=9 note=72 velocity=100 time=1
the msg is note_on channel=9 note=72 velocity=100 time=4
the msg is note_off channel=9 note=72 velocity=100 time=1
the msg is note_on channel=9 note=72 velocity=100 time=4
the msg is note_off channel=9 note=72 velocity=100 time=1
the msg is <meta message end_of_track time=0>
the msg is <meta message track_name name='outTest85_512_1.0.mid' time=0>
the msg is note_on channel=9 note=69 velocity=100 time=1
the msg is note_off channel=9 note=69 velocity=100 time=1
the msg is note_on channel=9 note=72 velocity=100 time=75
the msg is note_off channel=9 note=72 velocity=100 time=1
the msg is note_on channel=9 note=72 velocity=100 time=4
the msg is note_off channel=9 note=72 velocity=100 time=1
the msg is note_on channel=9 note=72 velocity=100 time=4
the msg is note_off channel=9 note=72 velocity=100 time=1
the msg is note_on channel=9 note=72 velocity=100 time=10
the msg is note_off channel=9 note=72 velocity=100 time=1
the msg is note_on channel=9 note=74 velocity=100 time=10
the msg is note_off channel=9 note=74 velocity=100 time=1
the msg is note_on channel=9 note=74 velocity=100 time=4
the msg is note_off channel=9 note=74 velocity=100 time=1
the msg is note_on channel=9 note=71 velocity=100 time=4
the msg is note_off channel=9 note=71 velocity=100 time=1
the msg is note_on channel=9 note=74 velocity=100 time=10
the msg is note_off channel=9 note=74 velocity=100 time=1
the msg is note_on channel=9 note=74 velocity=100 time=4
the msg is note_off channel=9 note=74 velocity=100 time=1
the msg is note_on channel=9 note=71 velocity=100 time=4
the msg is note_off channel=9 note=71 velocity=100 time=1
the msg is note_on channel=9 note=71 velocity=100 time=4
the msg is note_off channel=9 note=71 velocity=100 time=1
the msg is note_on channel=9 note=69 velocity=100 time=4
the msg is note_off channel=9 note=69 velocity=100 time=1
the msg is note_on channel=9 note=72 velocity=100 time=55
the msg is note_off channel=9 note=72 velocity=100 time=1
the msg is note_on channel=9 note=72 velocity=100 time=10
the msg is note_off channel=9 note=72 velocity=100 time=1
the msg is note_on channel=9 note=72 velocity=100 time=4
the msg is note_off channel=9 note=72 velocity=100 time=1
the msg is note_on channel=9 note=72 velocity=100 time=4
the msg is note_off channel=9 note=72 velocity=100 time=1
the msg is note_on channel=9 note=72 velocity=100 time=4
the msg is note_off channel=9 note=72 velocity=100 time=1
the msg is note_on channel=9 note=76 velocity=100 time=4
the msg is note_off channel=9 note=76 velocity=100 time=1
the msg is note_on channel=9 note=79 velocity=100 time=10
the msg is note_off channel=9 note=79 velocity=100 time=1
the msg is note_on channel=9 note=76 velocity=100 time=10
the msg is note_off channel=9 note=76 velocity=100 time=1
the msg is note_on channel=9 note=79 velocity=100 time=10
the msg is note_off channel=9 note=79 velocity=100 time=1
the msg is note_on channel=9 note=79 velocity=100 time=4
the msg is note_off channel=9 note=79 velocity=100 time=1
the msg is note_on channel=9 note=76 velocity=100 time=4
the msg is note_off channel=9 note=76 velocity=100 time=1
the msg is note_on channel=9 note=74 velocity=100 time=4
the msg is note_off channel=9 note=74 velocity=100 time=1
the msg is note_on channel=9 note=72 velocity=100 time=4
the msg is note_off channel=9 note=72 velocity=100 time=1
the msg is note_on channel=9 note=74 velocity=100 time=10
the msg is note_off channel=9 note=74 velocity=100 time=1
the msg is note_on channel=9 note=74 velocity=100 time=10
the msg is note_off channel=9 note=74 velocity=100 time=1
the msg is note_on channel=9 note=74 velocity=100 time=10
the msg is note_off channel=9 note=74 velocity=100 time=1
the msg is note_on channel=9 note=76 velocity=100 time=10
the msg is note_off channel=9 note=76 velocity=100 time=1
the msg is note_on channel=9 note=79 velocity=100 time=10
the msg is note_off channel=9 note=79 velocity=100 time=1
the msg is note_on channel=9 note=79 velocity=100 time=6
the msg is note_off channel=9 note=79 velocity=100 time=1
the msg is note_on channel=9 note=76 velocity=100 time=3
the msg is note_off channel=9 note=76 velocity=100 time=1
the msg is note_on channel=9 note=74 velocity=100 time=6
the msg is note_off channel=9 note=74 velocity=100 time=1
the msg is note_on channel=9 note=72 velocity=100 time=3
the msg is note_off channel=9 note=72 velocity=100 time=1
the msg is note_on channel=9 note=74 velocity=100 time=10
the msg is note_off channel=9 note=74 velocity=100 time=1
the msg is note_on channel=9 note=76 velocity=100 time=10
the msg is note_off channel=9 note=76 velocity=100 time=1
the msg is note_on channel=9 note=72 velocity=100 time=4
the msg is note_off channel=9 note=72 velocity=100 time=1
the msg is note_on channel=9 note=74 velocity=100 time=4
the msg is note_off channel=9 note=74 velocity=100 time=1
the msg is note_on channel=9 note=74 velocity=100 time=10
the msg is note_off channel=9 note=74 velocity=100 time=1
the msg is note_on channel=9 note=74 velocity=100 time=10
the msg is note_off channel=9 note=74 velocity=100 time=1
the msg is note_on channel=9 note=74 velocity=100 time=4
the msg is note_off channel=9 note=74 velocity=100 time=1
the msg is note_on channel=9 note=71 velocity=100 time=4
the msg is note_off channel=9 note=71 velocity=100 time=1
the msg is note_on channel=9 note=74 velocity=100 time=10
the msg is note_off channel=9 note=74 velocity=100 time=1
the msg is note_on channel=9 note=74 velocity=100 time=10
the msg is note_off channel=9 note=74 velocity=100 time=1
the msg is note_on channel=9 note=72 velocity=100 time=3
the msg is note_off channel=9 note=72 velocity=100 time=1
the msg is note_on channel=9 note=74 velocity=100 time=10
the msg is note_off channel=9 note=74 velocity=100 time=1
the msg is note_on channel=9 note=74 velocity=100 time=10
the msg is note_off channel=9 note=74 velocity=100 time=1
the msg is note_on channel=9 note=74 velocity=100 time=4
the msg is note_off channel=9 note=74 velocity=100 time=1
the msg is note_on channel=9 note=71 velocity=100 time=4
the msg is note_off channel=9 note=71 velocity=100 time=1
the msg is note_on channel=9 note=74 velocity=100 time=4
the msg is note_off channel=9 note=74 velocity=100 time=1
the msg is note_on channel=9 note=76 velocity=100 time=10
the msg is note_off channel=9 note=76 velocity=100 time=1
the msg is note_on channel=9 note=79 velocity=100 time=10
the msg is note_off channel=9 note=79 velocity=100 time=1
the msg is note_on channel=9 note=72 velocity=100 time=3
the msg is note_off channel=9 note=72 velocity=100 time=1
the msg is note_on channel=9 note=72 velocity=100 time=6
the msg is note_off channel=9 note=72 velocity=100 time=1
the msg is note_on channel=9 note=72 velocity=100 time=3
the msg is note_off channel=9 note=72 velocity=100 time=1
the msg is note_on channel=9 note=72 velocity=100 time=10
the msg is note_off channel=9 note=72 velocity=100 time=1
the msg is note_on channel=9 note=72 velocity=100 time=4
the msg is note_off channel=9 note=72 velocity=100 time=1
the msg is note_on channel=9 note=72 velocity=100 time=4
the msg is note_off channel=9 note=72 velocity=100 time=1
the msg is <meta message end_of_track time=0>
the msg is <meta message track_name name='outTest85_512_1.0.mid' time=0>
the msg is note_on channel=9 note=69 velocity=100 time=1
the msg is note_off channel=9 note=69 velocity=100 time=1
the msg is note_on channel=9 note=72 velocity=100 time=75
the msg is note_off channel=9 note=72 velocity=100 time=1
the msg is note_on channel=9 note=72 velocity=100 time=4
the msg is note_off channel=9 note=72 velocity=100 time=1
the msg is note_on channel=9 note=72 velocity=100 time=4
the msg is note_off channel=9 note=72 velocity=100 time=1
the msg is note_on channel=9 note=72 velocity=100 time=10
the msg is note_off channel=9 note=72 velocity=100 time=1
the msg is note_on channel=9 note=74 velocity=100 time=10
the msg is note_off channel=9 note=74 velocity=100 time=1
the msg is note_on channel=9 note=74 velocity=100 time=4
the msg is note_off channel=9 note=74 velocity=100 time=1
the msg is note_on channel=9 note=71 velocity=100 time=4
the msg is note_off channel=9 note=71 velocity=100 time=1
the msg is note_on channel=9 note=74 velocity=100 time=10
the msg is note_off channel=9 note=74 velocity=100 time=1
the msg is note_on channel=9 note=74 velocity=100 time=4
the msg is note_off channel=9 note=74 velocity=100 time=1
the msg is note_on channel=9 note=71 velocity=100 time=4
the msg is note_off channel=9 note=71 velocity=100 time=1
the msg is note_on channel=9 note=71 velocity=100 time=4
the msg is note_off channel=9 note=71 velocity=100 time=1
the msg is note_on channel=9 note=69 velocity=100 time=4
the msg is note_off channel=9 note=69 velocity=100 time=1
the msg is note_on channel=9 note=72 velocity=100 time=55
the msg is note_off channel=9 note=72 velocity=100 time=1
the msg is note_on channel=9 note=72 velocity=100 time=10
the msg is note_off channel=9 note=72 velocity=100 time=1
the msg is note_on channel=9 note=72 velocity=100 time=4
the msg is note_off channel=9 note=72 velocity=100 time=1
the msg is note_on channel=9 note=72 velocity=100 time=4
the msg is note_off channel=9 note=72 velocity=100 time=1
the msg is note_on channel=9 note=72 velocity=100 time=4
the msg is note_off channel=9 note=72 velocity=100 time=1
the msg is note_on channel=9 note=76 velocity=100 time=4
the msg is note_off channel=9 note=76 velocity=100 time=1
the msg is note_on channel=9 note=79 velocity=100 time=10
the msg is note_off channel=9 note=79 velocity=100 time=1
the msg is note_on channel=9 note=76 velocity=100 time=10
the msg is note_off channel=9 note=76 velocity=100 time=1
the msg is note_on channel=9 note=79 velocity=100 time=10
the msg is note_off channel=9 note=79 velocity=100 time=1
the msg is note_on channel=9 note=79 velocity=100 time=4
the msg is note_off channel=9 note=79 velocity=100 time=1
the msg is note_on channel=9 note=76 velocity=100 time=4
the msg is note_off channel=9 note=76 velocity=100 time=1
the msg is note_on channel=9 note=74 velocity=100 time=4
the msg is note_off channel=9 note=74 velocity=100 time=1
the msg is note_on channel=9 note=72 velocity=100 time=4
the msg is note_off channel=9 note=72 velocity=100 time=1
the msg is note_on channel=9 note=74 velocity=100 time=10
the msg is note_off channel=9 note=74 velocity=100 time=1
the msg is note_on channel=9 note=74 velocity=100 time=10
the msg is note_off channel=9 note=74 velocity=100 time=1
the msg is note_on channel=9 note=74 velocity=100 time=10
the msg is note_off channel=9 note=74 velocity=100 time=1
the msg is note_on channel=9 note=76 velocity=100 time=10
the msg is note_off channel=9 note=76 velocity=100 time=1
the msg is note_on channel=9 note=79 velocity=100 time=10
the msg is note_off channel=9 note=79 velocity=100 time=1
the msg is note_on channel=9 note=79 velocity=100 time=6
the msg is note_off channel=9 note=79 velocity=100 time=1
the msg is note_on channel=9 note=76 velocity=100 time=3
the msg is note_off channel=9 note=76 velocity=100 time=1
the msg is note_on channel=9 note=74 velocity=100 time=6
the msg is note_off channel=9 note=74 velocity=100 time=1
the msg is note_on channel=9 note=72 velocity=100 time=3
the msg is note_off channel=9 note=72 velocity=100 time=1
the msg is note_on channel=9 note=74 velocity=100 time=10
the msg is note_off channel=9 note=74 velocity=100 time=1
the msg is note_on channel=9 note=76 velocity=100 time=10
the msg is note_off channel=9 note=76 velocity=100 time=1
the msg is note_on channel=9 note=72 velocity=100 time=4
the msg is note_off channel=9 note=72 velocity=100 time=1
the msg is note_on channel=9 note=74 velocity=100 time=4
the msg is note_off channel=9 note=74 velocity=100 time=1
the msg is note_on channel=9 note=74 velocity=100 time=10
the msg is note_off channel=9 note=74 velocity=100 time=1
the msg is note_on channel=9 note=74 velocity=100 time=10
the msg is note_off channel=9 note=74 velocity=100 time=1
the msg is note_on channel=9 note=74 velocity=100 time=4
the msg is note_off channel=9 note=74 velocity=100 time=1
the msg is note_on channel=9 note=71 velocity=100 time=4
the msg is note_off channel=9 note=71 velocity=100 time=1
the msg is note_on channel=9 note=74 velocity=100 time=10
the msg is note_off channel=9 note=74 velocity=100 time=1
the msg is note_on channel=9 note=74 velocity=100 time=10
the msg is note_off channel=9 note=74 velocity=100 time=1
the msg is note_on channel=9 note=72 velocity=100 time=3
the msg is note_off channel=9 note=72 velocity=100 time=1
the msg is note_on channel=9 note=74 velocity=100 time=10
the msg is note_off channel=9 note=74 velocity=100 time=1
the msg is note_on channel=9 note=74 velocity=100 time=10
the msg is note_off channel=9 note=74 velocity=100 time=1
the msg is note_on channel=9 note=74 velocity=100 time=4
the msg is note_off channel=9 note=74 velocity=100 time=1
the msg is note_on channel=9 note=71 velocity=100 time=4
the msg is note_off channel=9 note=71 velocity=100 time=1
the msg is note_on channel=9 note=74 velocity=100 time=4
the msg is note_off channel=9 note=74 velocity=100 time=1
the msg is note_on channel=9 note=76 velocity=100 time=10
the msg is note_off channel=9 note=76 velocity=100 time=1
the msg is note_on channel=9 note=79 velocity=100 time=10
the msg is note_off channel=9 note=79 velocity=100 time=1
the msg is note_on channel=9 note=72 velocity=100 time=3
the msg is note_off channel=9 note=72 velocity=100 time=1
the msg is note_on channel=9 note=72 velocity=100 time=6
the msg is note_off channel=9 note=72 velocity=100 time=1
the msg is note_on channel=9 note=72 velocity=100 time=3
the msg is note_off channel=9 note=72 velocity=100 time=1
the msg is note_on channel=9 note=72 velocity=100 time=10
the msg is note_off channel=9 note=72 velocity=100 time=1
the msg is note_on channel=9 note=72 velocity=100 time=4
the msg is note_off channel=9 note=72 velocity=100 time=1
the msg is note_on channel=9 note=72 velocity=100 time=4
the msg is note_off channel=9 note=72 velocity=100 time=1
the msg is <meta message end_of_track time=0>
the msg is <meta message track_name name='outTest85_512_1.0.mid' time=0>
the msg is note_on channel=9 note=69 velocity=100 time=1
the msg is note_off channel=9 note=69 velocity=100 time=1
the msg is note_on channel=9 note=72 velocity=100 time=75
the msg is note_off channel=9 note=72 velocity=100 time=1
the msg is note_on channel=9 note=72 velocity=100 time=4
the msg is note_off channel=9 note=72 velocity=100 time=1
the msg is note_on channel=9 note=72 velocity=100 time=4
the msg is note_off channel=9 note=72 velocity=100 time=1
the msg is note_on channel=9 note=72 velocity=100 time=10
the msg is note_off channel=9 note=72 velocity=100 time=1
the msg is note_on channel=9 note=74 velocity=100 time=10
the msg is note_off channel=9 note=74 velocity=100 time=1
the msg is note_on channel=9 note=74 velocity=100 time=4
the msg is note_off channel=9 note=74 velocity=100 time=1
the msg is note_on channel=9 note=71 velocity=100 time=4
the msg is note_off channel=9 note=71 velocity=100 time=1
the msg is note_on channel=9 note=74 velocity=100 time=10
the msg is note_off channel=9 note=74 velocity=100 time=1
the msg is note_on channel=9 note=74 velocity=100 time=4
the msg is note_off channel=9 note=74 velocity=100 time=1
the msg is note_on channel=9 note=71 velocity=100 time=4
the msg is note_off channel=9 note=71 velocity=100 time=1
the msg is note_on channel=9 note=71 velocity=100 time=4
the msg is note_off channel=9 note=71 velocity=100 time=1
the msg is note_on channel=9 note=69 velocity=100 time=4
the msg is note_off channel=9 note=69 velocity=100 time=1
the msg is note_on channel=9 note=72 velocity=100 time=55
the msg is note_off channel=9 note=72 velocity=100 time=1
the msg is note_on channel=9 note=72 velocity=100 time=10
the msg is note_off channel=9 note=72 velocity=100 time=1
the msg is note_on channel=9 note=72 velocity=100 time=4
the msg is note_off channel=9 note=72 velocity=100 time=1
the msg is note_on channel=9 note=72 velocity=100 time=4
the msg is note_off channel=9 note=72 velocity=100 time=1
the msg is note_on channel=9 note=72 velocity=100 time=4
the msg is note_off channel=9 note=72 velocity=100 time=1
the msg is note_on channel=9 note=76 velocity=100 time=4
the msg is note_off channel=9 note=76 velocity=100 time=1
the msg is note_on channel=9 note=79 velocity=100 time=10
the msg is note_off channel=9 note=79 velocity=100 time=1
the msg is note_on channel=9 note=76 velocity=100 time=10
the msg is note_off channel=9 note=76 velocity=100 time=1
the msg is note_on channel=9 note=79 velocity=100 time=10
the msg is note_off channel=9 note=79 velocity=100 time=1
the msg is note_on channel=9 note=79 velocity=100 time=4
the msg is note_off channel=9 note=79 velocity=100 time=1
the msg is note_on channel=9 note=76 velocity=100 time=4
the msg is note_off channel=9 note=76 velocity=100 time=1
the msg is note_on channel=9 note=74 velocity=100 time=4
the msg is note_off channel=9 note=74 velocity=100 time=1
the msg is note_on channel=9 note=72 velocity=100 time=4
the msg is note_off channel=9 note=72 velocity=100 time=1
the msg is note_on channel=9 note=74 velocity=100 time=10
the msg is note_off channel=9 note=74 velocity=100 time=1
the msg is note_on channel=9 note=74 velocity=100 time=10
the msg is note_off channel=9 note=74 velocity=100 time=1
the msg is note_on channel=9 note=74 velocity=100 time=10
the msg is note_off channel=9 note=74 velocity=100 time=1
the msg is note_on channel=9 note=76 velocity=100 time=10
the msg is note_off channel=9 note=76 velocity=100 time=1
the msg is note_on channel=9 note=79 velocity=100 time=10
the msg is note_off channel=9 note=79 velocity=100 time=1
the msg is note_on channel=9 note=79 velocity=100 time=6
the msg is note_off channel=9 note=79 velocity=100 time=1
the msg is note_on channel=9 note=76 velocity=100 time=3
the msg is note_off channel=9 note=76 velocity=100 time=1
the msg is note_on channel=9 note=74 velocity=100 time=6
the msg is note_off channel=9 note=74 velocity=100 time=1
the msg is note_on channel=9 note=72 velocity=100 time=3
the msg is note_off channel=9 note=72 velocity=100 time=1
the msg is note_on channel=9 note=74 velocity=100 time=10
the msg is note_off channel=9 note=74 velocity=100 time=1
the msg is note_on channel=9 note=76 velocity=100 time=10
the msg is note_off channel=9 note=76 velocity=100 time=1
the msg is note_on channel=9 note=72 velocity=100 time=4
the msg is note_off channel=9 note=72 velocity=100 time=1
the msg is note_on channel=9 note=74 velocity=100 time=4
the msg is note_off channel=9 note=74 velocity=100 time=1
the msg is note_on channel=9 note=74 velocity=100 time=10
the msg is note_off channel=9 note=74 velocity=100 time=1
the msg is note_on channel=9 note=74 velocity=100 time=10
the msg is note_off channel=9 note=74 velocity=100 time=1
the msg is note_on channel=9 note=74 velocity=100 time=4
the msg is note_off channel=9 note=74 velocity=100 time=1
the msg is note_on channel=9 note=71 velocity=100 time=4
the msg is note_off channel=9 note=71 velocity=100 time=1
the msg is note_on channel=9 note=74 velocity=100 time=10
the msg is note_off channel=9 note=74 velocity=100 time=1
the msg is note_on channel=9 note=74 velocity=100 time=10
the msg is note_off channel=9 note=74 velocity=100 time=1
the msg is note_on channel=9 note=72 velocity=100 time=3
the msg is note_off channel=9 note=72 velocity=100 time=1
the msg is note_on channel=9 note=74 velocity=100 time=10
the msg is note_off channel=9 note=74 velocity=100 time=1
the msg is note_on channel=9 note=74 velocity=100 time=10
the msg is note_off channel=9 note=74 velocity=100 time=1
the msg is note_on channel=9 note=74 velocity=100 time=4
the msg is note_off channel=9 note=74 velocity=100 time=1
the msg is note_on channel=9 note=71 velocity=100 time=4
the msg is note_off channel=9 note=71 velocity=100 time=1
the msg is note_on channel=9 note=74 velocity=100 time=4
the msg is note_off channel=9 note=74 velocity=100 time=1
the msg is note_on channel=9 note=76 velocity=100 time=10
the msg is note_off channel=9 note=76 velocity=100 time=1
the msg is note_on channel=9 note=79 velocity=100 time=10
the msg is note_off channel=9 note=79 velocity=100 time=1
the msg is note_on channel=9 note=72 velocity=100 time=3
the msg is note_off channel=9 note=72 velocity=100 time=1
the msg is note_on channel=9 note=72 velocity=100 time=6
the msg is note_off channel=9 note=72 velocity=100 time=1
the msg is note_on channel=9 note=72 velocity=100 time=3
the msg is note_off channel=9 note=72 velocity=100 time=1
the msg is note_on channel=9 note=72 velocity=100 time=10
the msg is note_off channel=9 note=72 velocity=100 time=1
the msg is note_on channel=9 note=72 velocity=100 time=4
the msg is note_off channel=9 note=72 velocity=100 time=1
the msg is note_on channel=9 note=72 velocity=100 time=4
the msg is note_off channel=9 note=72 velocity=100 time=1
the msg is <meta message end_of_track time=0>
the msg is <meta message track_name name='outTest85_512_1.0.mid' time=0>
the msg is note_on channel=9 note=69 velocity=100 time=1
the msg is note_off channel=9 note=69 velocity=100 time=1
the msg is note_on channel=9 note=72 velocity=100 time=75
the msg is note_off channel=9 note=72 velocity=100 time=1
the msg is note_on channel=9 note=72 velocity=100 time=4
the msg is note_off channel=9 note=72 velocity=100 time=1
the msg is note_on channel=9 note=72 velocity=100 time=4
the msg is note_off channel=9 note=72 velocity=100 time=1
the msg is note_on channel=9 note=72 velocity=100 time=10
the msg is note_off channel=9 note=72 velocity=100 time=1
the msg is note_on channel=9 note=74 velocity=100 time=10
the msg is note_off channel=9 note=74 velocity=100 time=1
the msg is note_on channel=9 note=74 velocity=100 time=4
the msg is note_off channel=9 note=74 velocity=100 time=1
the msg is note_on channel=9 note=71 velocity=100 time=4
the msg is note_off channel=9 note=71 velocity=100 time=1
the msg is note_on channel=9 note=74 velocity=100 time=10
the msg is note_off channel=9 note=74 velocity=100 time=1
the msg is note_on channel=9 note=74 velocity=100 time=4
the msg is note_off channel=9 note=74 velocity=100 time=1
the msg is note_on channel=9 note=71 velocity=100 time=4
the msg is note_off channel=9 note=71 velocity=100 time=1
the msg is note_on channel=9 note=71 velocity=100 time=4
the msg is note_off channel=9 note=71 velocity=100 time=1
the msg is note_on channel=9 note=69 velocity=100 time=4
the msg is note_off channel=9 note=69 velocity=100 time=1
the msg is note_on channel=9 note=72 velocity=100 time=55
the msg is note_off channel=9 note=72 velocity=100 time=1
the msg is note_on channel=9 note=72 velocity=100 time=10
the msg is note_off channel=9 note=72 velocity=100 time=1
the msg is note_on channel=9 note=72 velocity=100 time=4
the msg is note_off channel=9 note=72 velocity=100 time=1
the msg is note_on channel=9 note=72 velocity=100 time=4
the msg is note_off channel=9 note=72 velocity=100 time=1
the msg is note_on channel=9 note=72 velocity=100 time=4
the msg is note_off channel=9 note=72 velocity=100 time=1
the msg is note_on channel=9 note=76 velocity=100 time=4
the msg is note_off channel=9 note=76 velocity=100 time=1
the msg is note_on channel=9 note=79 velocity=100 time=10
the msg is note_off channel=9 note=79 velocity=100 time=1
the msg is note_on channel=9 note=76 velocity=100 time=10
the msg is note_off channel=9 note=76 velocity=100 time=1
the msg is note_on channel=9 note=79 velocity=100 time=10
the msg is note_off channel=9 note=79 velocity=100 time=1
the msg is note_on channel=9 note=79 velocity=100 time=4
the msg is note_off channel=9 note=79 velocity=100 time=1
the msg is note_on channel=9 note=76 velocity=100 time=4
the msg is note_off channel=9 note=76 velocity=100 time=1
the msg is note_on channel=9 note=74 velocity=100 time=4
the msg is note_off channel=9 note=74 velocity=100 time=1
the msg is note_on channel=9 note=72 velocity=100 time=4
the msg is note_off channel=9 note=72 velocity=100 time=1
the msg is note_on channel=9 note=74 velocity=100 time=10
the msg is note_off channel=9 note=74 velocity=100 time=1
the msg is note_on channel=9 note=74 velocity=100 time=10
the msg is note_off channel=9 note=74 velocity=100 time=1
the msg is note_on channel=9 note=74 velocity=100 time=10
the msg is note_off channel=9 note=74 velocity=100 time=1
the msg is note_on channel=9 note=76 velocity=100 time=10
the msg is note_off channel=9 note=76 velocity=100 time=1
the msg is note_on channel=9 note=79 velocity=100 time=10
the msg is note_off channel=9 note=79 velocity=100 time=1
the msg is note_on channel=9 note=79 velocity=100 time=6
the msg is note_off channel=9 note=79 velocity=100 time=1
the msg is note_on channel=9 note=76 velocity=100 time=3
the msg is note_off channel=9 note=76 velocity=100 time=1
the msg is note_on channel=9 note=74 velocity=100 time=6
the msg is note_off channel=9 note=74 velocity=100 time=1
the msg is note_on channel=9 note=72 velocity=100 time=3
the msg is note_off channel=9 note=72 velocity=100 time=1
the msg is note_on channel=9 note=74 velocity=100 time=10
the msg is note_off channel=9 note=74 velocity=100 time=1
the msg is note_on channel=9 note=76 velocity=100 time=10
the msg is note_off channel=9 note=76 velocity=100 time=1
the msg is note_on channel=9 note=72 velocity=100 time=4
the msg is note_off channel=9 note=72 velocity=100 time=1
the msg is note_on channel=9 note=74 velocity=100 time=4
the msg is note_off channel=9 note=74 velocity=100 time=1
the msg is note_on channel=9 note=74 velocity=100 time=10
the msg is note_off channel=9 note=74 velocity=100 time=1
the msg is note_on channel=9 note=74 velocity=100 time=10
the msg is note_off channel=9 note=74 velocity=100 time=1
the msg is note_on channel=9 note=74 velocity=100 time=4
the msg is note_off channel=9 note=74 velocity=100 time=1
the msg is note_on channel=9 note=71 velocity=100 time=4
the msg is note_off channel=9 note=71 velocity=100 time=1
the msg is note_on channel=9 note=74 velocity=100 time=10
the msg is note_off channel=9 note=74 velocity=100 time=1
the msg is note_on channel=9 note=74 velocity=100 time=10
the msg is note_off channel=9 note=74 velocity=100 time=1
the msg is note_on channel=9 note=72 velocity=100 time=3
the msg is note_off channel=9 note=72 velocity=100 time=1
the msg is note_on channel=9 note=74 velocity=100 time=10
the msg is note_off channel=9 note=74 velocity=100 time=1
the msg is note_on channel=9 note=74 velocity=100 time=10
the msg is note_off channel=9 note=74 velocity=100 time=1
the msg is note_on channel=9 note=74 velocity=100 time=4
the msg is note_off channel=9 note=74 velocity=100 time=1
the msg is note_on channel=9 note=71 velocity=100 time=4
the msg is note_off channel=9 note=71 velocity=100 time=1
the msg is note_on channel=9 note=74 velocity=100 time=4
the msg is note_off channel=9 note=74 velocity=100 time=1
the msg is note_on channel=9 note=76 velocity=100 time=10
the msg is note_off channel=9 note=76 velocity=100 time=1
the msg is note_on channel=9 note=79 velocity=100 time=10
the msg is note_off channel=9 note=79 velocity=100 time=1
the msg is note_on channel=9 note=72 velocity=100 time=3
the msg is note_off channel=9 note=72 velocity=100 time=1
the msg is note_on channel=9 note=72 velocity=100 time=6
the msg is note_off channel=9 note=72 velocity=100 time=1
the msg is note_on channel=9 note=72 velocity=100 time=3
the msg is note_off channel=9 note=72 velocity=100 time=1
the msg is note_on channel=9 note=72 velocity=100 time=10
the msg is note_off channel=9 note=72 velocity=100 time=1
the msg is note_on channel=9 note=72 velocity=100 time=4
the msg is note_off channel=9 note=72 velocity=100 time=1
the msg is note_on channel=9 note=72 velocity=100 time=4
the msg is note_off channel=9 note=72 velocity=100 time=1
the msg is <meta message end_of_track time=0>
the msg is <meta message track_name name='outTest85_512_1.0.mid' time=0>
the msg is note_on channel=9 note=69 velocity=100 time=1
the msg is note_off channel=9 note=69 velocity=100 time=1
the msg is note_on channel=9 note=72 velocity=100 time=75
the msg is note_off channel=9 note=72 velocity=100 time=1
the msg is note_on channel=9 note=72 velocity=100 time=4
the msg is note_off channel=9 note=72 velocity=100 time=1
the msg is note_on channel=9 note=72 velocity=100 time=4
the msg is note_off channel=9 note=72 velocity=100 time=1
the msg is note_on channel=9 note=72 velocity=100 time=10
the msg is note_off channel=9 note=72 velocity=100 time=1
the msg is note_on channel=9 note=74 velocity=100 time=10
the msg is note_off channel=9 note=74 velocity=100 time=1
the msg is note_on channel=9 note=74 velocity=100 time=4
the msg is note_off channel=9 note=74 velocity=100 time=1
the msg is note_on channel=9 note=71 velocity=100 time=4
the msg is note_off channel=9 note=71 velocity=100 time=1
the msg is note_on channel=9 note=74 velocity=100 time=10
the msg is note_off channel=9 note=74 velocity=100 time=1
the msg is note_on channel=9 note=74 velocity=100 time=4
the msg is note_off channel=9 note=74 velocity=100 time=1
the msg is note_on channel=9 note=71 velocity=100 time=4
the msg is note_off channel=9 note=71 velocity=100 time=1
the msg is note_on channel=9 note=71 velocity=100 time=4
the msg is note_off channel=9 note=71 velocity=100 time=1
the msg is note_on channel=9 note=69 velocity=100 time=4
the msg is note_off channel=9 note=69 velocity=100 time=1
the msg is note_on channel=9 note=72 velocity=100 time=55
the msg is note_off channel=9 note=72 velocity=100 time=1
the msg is note_on channel=9 note=72 velocity=100 time=10
the msg is note_off channel=9 note=72 velocity=100 time=1
the msg is note_on channel=9 note=72 velocity=100 time=4
the msg is note_off channel=9 note=72 velocity=100 time=1
the msg is note_on channel=9 note=72 velocity=100 time=4
the msg is note_off channel=9 note=72 velocity=100 time=1
the msg is note_on channel=9 note=72 velocity=100 time=4
the msg is note_off channel=9 note=72 velocity=100 time=1
the msg is note_on channel=9 note=76 velocity=100 time=4
the msg is note_off channel=9 note=76 velocity=100 time=1
the msg is note_on channel=9 note=79 velocity=100 time=10
the msg is note_off channel=9 note=79 velocity=100 time=1
the msg is note_on channel=9 note=76 velocity=100 time=10
the msg is note_off channel=9 note=76 velocity=100 time=1
the msg is note_on channel=9 note=79 velocity=100 time=10
the msg is note_off channel=9 note=79 velocity=100 time=1
the msg is note_on channel=9 note=79 velocity=100 time=4
the msg is note_off channel=9 note=79 velocity=100 time=1
the msg is note_on channel=9 note=76 velocity=100 time=4
the msg is note_off channel=9 note=76 velocity=100 time=1
the msg is note_on channel=9 note=74 velocity=100 time=4
the msg is note_off channel=9 note=74 velocity=100 time=1
the msg is note_on channel=9 note=72 velocity=100 time=4
the msg is note_off channel=9 note=72 velocity=100 time=1
the msg is note_on channel=9 note=74 velocity=100 time=10
the msg is note_off channel=9 note=74 velocity=100 time=1
the msg is note_on channel=9 note=74 velocity=100 time=10
the msg is note_off channel=9 note=74 velocity=100 time=1
the msg is note_on channel=9 note=74 velocity=100 time=10
the msg is note_off channel=9 note=74 velocity=100 time=1
the msg is note_on channel=9 note=76 velocity=100 time=10
the msg is note_off channel=9 note=76 velocity=100 time=1
the msg is note_on channel=9 note=79 velocity=100 time=10
the msg is note_off channel=9 note=79 velocity=100 time=1
the msg is note_on channel=9 note=79 velocity=100 time=6
the msg is note_off channel=9 note=79 velocity=100 time=1
the msg is note_on channel=9 note=76 velocity=100 time=3
the msg is note_off channel=9 note=76 velocity=100 time=1
the msg is note_on channel=9 note=74 velocity=100 time=6
the msg is note_off channel=9 note=74 velocity=100 time=1
the msg is note_on channel=9 note=72 velocity=100 time=3
the msg is note_off channel=9 note=72 velocity=100 time=1
the msg is note_on channel=9 note=74 velocity=100 time=10
the msg is note_off channel=9 note=74 velocity=100 time=1
the msg is note_on channel=9 note=76 velocity=100 time=10
the msg is note_off channel=9 note=76 velocity=100 time=1
the msg is note_on channel=9 note=72 velocity=100 time=4
the msg is note_off channel=9 note=72 velocity=100 time=1
the msg is note_on channel=9 note=74 velocity=100 time=4
the msg is note_off channel=9 note=74 velocity=100 time=1
the msg is note_on channel=9 note=74 velocity=100 time=10
the msg is note_off channel=9 note=74 velocity=100 time=1
the msg is note_on channel=9 note=74 velocity=100 time=10
the msg is note_off channel=9 note=74 velocity=100 time=1
the msg is note_on channel=9 note=74 velocity=100 time=4
the msg is note_off channel=9 note=74 velocity=100 time=1
the msg is note_on channel=9 note=71 velocity=100 time=4
the msg is note_off channel=9 note=71 velocity=100 time=1
the msg is note_on channel=9 note=74 velocity=100 time=10
the msg is note_off channel=9 note=74 velocity=100 time=1
the msg is note_on channel=9 note=74 velocity=100 time=10
the msg is note_off channel=9 note=74 velocity=100 time=1
the msg is note_on channel=9 note=72 velocity=100 time=3
the msg is note_off channel=9 note=72 velocity=100 time=1
the msg is note_on channel=9 note=74 velocity=100 time=10
the msg is note_off channel=9 note=74 velocity=100 time=1
the msg is note_on channel=9 note=74 velocity=100 time=10
the msg is note_off channel=9 note=74 velocity=100 time=1
the msg is note_on channel=9 note=74 velocity=100 time=4
the msg is note_off channel=9 note=74 velocity=100 time=1
the msg is note_on channel=9 note=71 velocity=100 time=4
the msg is note_off channel=9 note=71 velocity=100 time=1
the msg is note_on channel=9 note=74 velocity=100 time=4
the msg is note_off channel=9 note=74 velocity=100 time=1
the msg is note_on channel=9 note=76 velocity=100 time=10
the msg is note_off channel=9 note=76 velocity=100 time=1
the msg is note_on channel=9 note=79 velocity=100 time=10
the msg is note_off channel=9 note=79 velocity=100 time=1
the msg is note_on channel=9 note=72 velocity=100 time=3
the msg is note_off channel=9 note=72 velocity=100 time=1
the msg is note_on channel=9 note=72 velocity=100 time=6
the msg is note_off channel=9 note=72 velocity=100 time=1
the msg is note_on channel=9 note=72 velocity=100 time=3
the msg is note_off channel=9 note=72 velocity=100 time=1
the msg is note_on channel=9 note=72 velocity=100 time=10
the msg is note_off channel=9 note=72 velocity=100 time=1
the msg is note_on channel=9 note=72 velocity=100 time=4
the msg is note_off channel=9 note=72 velocity=100 time=1
the msg is note_on channel=9 note=72 velocity=100 time=4
the msg is note_off channel=9 note=72 velocity=100 time=1
the msg is <meta message end_of_track time=0>
the msg is <meta message track_name name='outTest85_512_1.0.mid' time=0>
the msg is note_on channel=9 note=69 velocity=100 time=1
the msg is note_off channel=9 note=69 velocity=100 time=1
the msg is note_on channel=9 note=72 velocity=100 time=75
the msg is note_off channel=9 note=72 velocity=100 time=1
the msg is note_on channel=9 note=72 velocity=100 time=4
the msg is note_off channel=9 note=72 velocity=100 time=1
the msg is note_on channel=9 note=72 velocity=100 time=4
the msg is note_off channel=9 note=72 velocity=100 time=1
the msg is note_on channel=9 note=72 velocity=100 time=10
the msg is note_off channel=9 note=72 velocity=100 time=1
the msg is note_on channel=9 note=74 velocity=100 time=10
the msg is note_off channel=9 note=74 velocity=100 time=1
the msg is note_on channel=9 note=74 velocity=100 time=4
the msg is note_off channel=9 note=74 velocity=100 time=1
the msg is note_on channel=9 note=71 velocity=100 time=4
the msg is note_off channel=9 note=71 velocity=100 time=1
the msg is note_on channel=9 note=74 velocity=100 time=10
the msg is note_off channel=9 note=74 velocity=100 time=1
the msg is note_on channel=9 note=74 velocity=100 time=4
the msg is note_off channel=9 note=74 velocity=100 time=1
the msg is note_on channel=9 note=71 velocity=100 time=4
the msg is note_off channel=9 note=71 velocity=100 time=1
the msg is note_on channel=9 note=71 velocity=100 time=4
the msg is note_off channel=9 note=71 velocity=100 time=1
the msg is note_on channel=9 note=69 velocity=100 time=4
the msg is note_off channel=9 note=69 velocity=100 time=1
the msg is note_on channel=9 note=72 velocity=100 time=55
the msg is note_off channel=9 note=72 velocity=100 time=1
the msg is note_on channel=9 note=72 velocity=100 time=10
the msg is note_off channel=9 note=72 velocity=100 time=1
the msg is note_on channel=9 note=72 velocity=100 time=4
the msg is note_off channel=9 note=72 velocity=100 time=1
the msg is note_on channel=9 note=72 velocity=100 time=4
the msg is note_off channel=9 note=72 velocity=100 time=1
the msg is note_on channel=9 note=72 velocity=100 time=4
the msg is note_off channel=9 note=72 velocity=100 time=1
the msg is note_on channel=9 note=76 velocity=100 time=4
the msg is note_off channel=9 note=76 velocity=100 time=1
the msg is note_on channel=9 note=79 velocity=100 time=10
the msg is note_off channel=9 note=79 velocity=100 time=1
the msg is note_on channel=9 note=76 velocity=100 time=10
the msg is note_off channel=9 note=76 velocity=100 time=1
the msg is note_on channel=9 note=79 velocity=100 time=10
the msg is note_off channel=9 note=79 velocity=100 time=1
the msg is note_on channel=9 note=79 velocity=100 time=4
the msg is note_off channel=9 note=79 velocity=100 time=1
the msg is note_on channel=9 note=76 velocity=100 time=4
the msg is note_off channel=9 note=76 velocity=100 time=1
the msg is note_on channel=9 note=74 velocity=100 time=4
the msg is note_off channel=9 note=74 velocity=100 time=1
the msg is note_on channel=9 note=72 velocity=100 time=4
the msg is note_off channel=9 note=72 velocity=100 time=1
the msg is note_on channel=9 note=74 velocity=100 time=10
the msg is note_off channel=9 note=74 velocity=100 time=1
the msg is note_on channel=9 note=74 velocity=100 time=10
the msg is note_off channel=9 note=74 velocity=100 time=1
the msg is note_on channel=9 note=74 velocity=100 time=10
the msg is note_off channel=9 note=74 velocity=100 time=1
the msg is note_on channel=9 note=76 velocity=100 time=10
the msg is note_off channel=9 note=76 velocity=100 time=1
the msg is note_on channel=9 note=79 velocity=100 time=10
the msg is note_off channel=9 note=79 velocity=100 time=1
the msg is note_on channel=9 note=79 velocity=100 time=6
the msg is note_off channel=9 note=79 velocity=100 time=1
the msg is note_on channel=9 note=76 velocity=100 time=3
the msg is note_off channel=9 note=76 velocity=100 time=1
the msg is note_on channel=9 note=74 velocity=100 time=6
the msg is note_off channel=9 note=74 velocity=100 time=1
the msg is note_on channel=9 note=72 velocity=100 time=3
the msg is note_off channel=9 note=72 velocity=100 time=1
the msg is note_on channel=9 note=74 velocity=100 time=10
the msg is note_off channel=9 note=74 velocity=100 time=1
the msg is note_on channel=9 note=76 velocity=100 time=10
the msg is note_off channel=9 note=76 velocity=100 time=1
the msg is note_on channel=9 note=72 velocity=100 time=4
the msg is note_off channel=9 note=72 velocity=100 time=1
the msg is note_on channel=9 note=74 velocity=100 time=4
the msg is note_off channel=9 note=74 velocity=100 time=1
the msg is note_on channel=9 note=74 velocity=100 time=10
the msg is note_off channel=9 note=74 velocity=100 time=1
the msg is note_on channel=9 note=74 velocity=100 time=10
the msg is note_off channel=9 note=74 velocity=100 time=1
the msg is note_on channel=9 note=74 velocity=100 time=4
the msg is note_off channel=9 note=74 velocity=100 time=1
the msg is note_on channel=9 note=71 velocity=100 time=4
the msg is note_off channel=9 note=71 velocity=100 time=1
the msg is note_on channel=9 note=74 velocity=100 time=10
the msg is note_off channel=9 note=74 velocity=100 time=1
the msg is note_on channel=9 note=74 velocity=100 time=10
the msg is note_off channel=9 note=74 velocity=100 time=1
the msg is note_on channel=9 note=72 velocity=100 time=3
the msg is note_off channel=9 note=72 velocity=100 time=1
the msg is note_on channel=9 note=74 velocity=100 time=10
the msg is note_off channel=9 note=74 velocity=100 time=1
the msg is note_on channel=9 note=74 velocity=100 time=10
the msg is note_off channel=9 note=74 velocity=100 time=1
the msg is note_on channel=9 note=74 velocity=100 time=4
the msg is note_off channel=9 note=74 velocity=100 time=1
the msg is note_on channel=9 note=71 velocity=100 time=4
the msg is note_off channel=9 note=71 velocity=100 time=1
the msg is note_on channel=9 note=74 velocity=100 time=4
the msg is note_off channel=9 note=74 velocity=100 time=1
the msg is note_on channel=9 note=76 velocity=100 time=10
the msg is note_off channel=9 note=76 velocity=100 time=1
the msg is note_on channel=9 note=79 velocity=100 time=10
the msg is note_off channel=9 note=79 velocity=100 time=1
the msg is note_on channel=9 note=72 velocity=100 time=3
the msg is note_off channel=9 note=72 velocity=100 time=1
the msg is note_on channel=9 note=72 velocity=100 time=6
the msg is note_off channel=9 note=72 velocity=100 time=1
the msg is note_on channel=9 note=72 velocity=100 time=3
the msg is note_off channel=9 note=72 velocity=100 time=1
the msg is note_on channel=9 note=72 velocity=100 time=10
the msg is note_off channel=9 note=72 velocity=100 time=1
the msg is note_on channel=9 note=72 velocity=100 time=4
the msg is note_off channel=9 note=72 velocity=100 time=1
the msg is note_on channel=9 note=72 velocity=100 time=4
the msg is note_off channel=9 note=72 velocity=100 time=1
the msg is <meta message end_of_track time=0>
the msg is <meta message track_name name='outTest85_512_1.0.mid' time=0>
the msg is note_on channel=9 note=69 velocity=100 time=1
the msg is note_off channel=9 note=69 velocity=100 time=1
the msg is note_on channel=9 note=72 velocity=100 time=75
the msg is note_off channel=9 note=72 velocity=100 time=1
the msg is note_on channel=9 note=72 velocity=100 time=4
the msg is note_off channel=9 note=72 velocity=100 time=1
the msg is note_on channel=9 note=72 velocity=100 time=4
the msg is note_off channel=9 note=72 velocity=100 time=1
the msg is note_on channel=9 note=72 velocity=100 time=10
the msg is note_off channel=9 note=72 velocity=100 time=1
the msg is note_on channel=9 note=74 velocity=100 time=10
the msg is note_off channel=9 note=74 velocity=100 time=1
the msg is note_on channel=9 note=74 velocity=100 time=4
the msg is note_off channel=9 note=74 velocity=100 time=1
the msg is note_on channel=9 note=71 velocity=100 time=4
the msg is note_off channel=9 note=71 velocity=100 time=1
the msg is note_on channel=9 note=74 velocity=100 time=10
the msg is note_off channel=9 note=74 velocity=100 time=1
the msg is note_on channel=9 note=74 velocity=100 time=4
the msg is note_off channel=9 note=74 velocity=100 time=1
the msg is note_on channel=9 note=71 velocity=100 time=4
the msg is note_off channel=9 note=71 velocity=100 time=1
the msg is note_on channel=9 note=71 velocity=100 time=4
the msg is note_off channel=9 note=71 velocity=100 time=1
the msg is note_on channel=9 note=69 velocity=100 time=4
the msg is note_off channel=9 note=69 velocity=100 time=1
the msg is note_on channel=9 note=72 velocity=100 time=55
the msg is note_off channel=9 note=72 velocity=100 time=1
the msg is note_on channel=9 note=72 velocity=100 time=10
the msg is note_off channel=9 note=72 velocity=100 time=1
the msg is note_on channel=9 note=72 velocity=100 time=4
the msg is note_off channel=9 note=72 velocity=100 time=1
the msg is note_on channel=9 note=72 velocity=100 time=4
the msg is note_off channel=9 note=72 velocity=100 time=1
the msg is note_on channel=9 note=72 velocity=100 time=4
the msg is note_off channel=9 note=72 velocity=100 time=1
the msg is note_on channel=9 note=76 velocity=100 time=4
the msg is note_off channel=9 note=76 velocity=100 time=1
the msg is note_on channel=9 note=79 velocity=100 time=10
the msg is note_off channel=9 note=79 velocity=100 time=1
the msg is note_on channel=9 note=76 velocity=100 time=10
the msg is note_off channel=9 note=76 velocity=100 time=1
the msg is note_on channel=9 note=79 velocity=100 time=10
the msg is note_off channel=9 note=79 velocity=100 time=1
the msg is note_on channel=9 note=79 velocity=100 time=4
the msg is note_off channel=9 note=79 velocity=100 time=1
the msg is note_on channel=9 note=76 velocity=100 time=4
the msg is note_off channel=9 note=76 velocity=100 time=1
the msg is note_on channel=9 note=74 velocity=100 time=4
the msg is note_off channel=9 note=74 velocity=100 time=1
the msg is note_on channel=9 note=72 velocity=100 time=4
the msg is note_off channel=9 note=72 velocity=100 time=1
the msg is note_on channel=9 note=74 velocity=100 time=10
the msg is note_off channel=9 note=74 velocity=100 time=1
the msg is note_on channel=9 note=74 velocity=100 time=10
the msg is note_off channel=9 note=74 velocity=100 time=1
the msg is note_on channel=9 note=74 velocity=100 time=10
the msg is note_off channel=9 note=74 velocity=100 time=1
the msg is note_on channel=9 note=76 velocity=100 time=10
the msg is note_off channel=9 note=76 velocity=100 time=1
the msg is note_on channel=9 note=79 velocity=100 time=10
the msg is note_off channel=9 note=79 velocity=100 time=1
the msg is note_on channel=9 note=79 velocity=100 time=6
the msg is note_off channel=9 note=79 velocity=100 time=1
the msg is note_on channel=9 note=76 velocity=100 time=3
the msg is note_off channel=9 note=76 velocity=100 time=1
the msg is note_on channel=9 note=74 velocity=100 time=6
the msg is note_off channel=9 note=74 velocity=100 time=1
the msg is note_on channel=9 note=72 velocity=100 time=3
the msg is note_off channel=9 note=72 velocity=100 time=1
the msg is note_on channel=9 note=74 velocity=100 time=10
the msg is note_off channel=9 note=74 velocity=100 time=1
the msg is note_on channel=9 note=76 velocity=100 time=10
the msg is note_off channel=9 note=76 velocity=100 time=1
the msg is note_on channel=9 note=72 velocity=100 time=4
the msg is note_off channel=9 note=72 velocity=100 time=1
the msg is note_on channel=9 note=74 velocity=100 time=4
the msg is note_off channel=9 note=74 velocity=100 time=1
the msg is note_on channel=9 note=74 velocity=100 time=10
the msg is note_off channel=9 note=74 velocity=100 time=1
the msg is note_on channel=9 note=74 velocity=100 time=10
the msg is note_off channel=9 note=74 velocity=100 time=1
the msg is note_on channel=9 note=74 velocity=100 time=4
the msg is note_off channel=9 note=74 velocity=100 time=1
the msg is note_on channel=9 note=71 velocity=100 time=4
the msg is note_off channel=9 note=71 velocity=100 time=1
the msg is note_on channel=9 note=74 velocity=100 time=10
the msg is note_off channel=9 note=74 velocity=100 time=1
the msg is note_on channel=9 note=74 velocity=100 time=10
the msg is note_off channel=9 note=74 velocity=100 time=1
the msg is note_on channel=9 note=72 velocity=100 time=3
the msg is note_off channel=9 note=72 velocity=100 time=1
the msg is note_on channel=9 note=74 velocity=100 time=10
the msg is note_off channel=9 note=74 velocity=100 time=1
the msg is note_on channel=9 note=74 velocity=100 time=10
the msg is note_off channel=9 note=74 velocity=100 time=1
the msg is note_on channel=9 note=74 velocity=100 time=4
the msg is note_off channel=9 note=74 velocity=100 time=1
the msg is note_on channel=9 note=71 velocity=100 time=4
the msg is note_off channel=9 note=71 velocity=100 time=1
the msg is note_on channel=9 note=74 velocity=100 time=4
the msg is note_off channel=9 note=74 velocity=100 time=1
the msg is note_on channel=9 note=76 velocity=100 time=10
the msg is note_off channel=9 note=76 velocity=100 time=1
the msg is note_on channel=9 note=79 velocity=100 time=10
the msg is note_off channel=9 note=79 velocity=100 time=1
the msg is note_on channel=9 note=72 velocity=100 time=3
the msg is note_off channel=9 note=72 velocity=100 time=1
the msg is note_on channel=9 note=72 velocity=100 time=6
the msg is note_off channel=9 note=72 velocity=100 time=1
the msg is note_on channel=9 note=72 velocity=100 time=3
the msg is note_off channel=9 note=72 velocity=100 time=1
the msg is note_on channel=9 note=72 velocity=100 time=10
the msg is note_off channel=9 note=72 velocity=100 time=1
the msg is note_on channel=9 note=72 velocity=100 time=4
the msg is note_off channel=9 note=72 velocity=100 time=1
the msg is note_on channel=9 note=72 velocity=100 time=4
the msg is note_off channel=9 note=72 velocity=100 time=1
the msg is <meta message end_of_track time=0>
the msg is <meta message track_name name='outTest85_512_1.0.mid' time=0>
the msg is note_on channel=9 note=69 velocity=100 time=1
the msg is note_off channel=9 note=69 velocity=100 time=1
the msg is note_on channel=9 note=72 velocity=100 time=75
the msg is note_off channel=9 note=72 velocity=100 time=1
the msg is note_on channel=9 note=72 velocity=100 time=4
the msg is note_off channel=9 note=72 velocity=100 time=1
the msg is note_on channel=9 note=72 velocity=100 time=4
the msg is note_off channel=9 note=72 velocity=100 time=1
the msg is note_on channel=9 note=72 velocity=100 time=10
the msg is note_off channel=9 note=72 velocity=100 time=1
the msg is note_on channel=9 note=74 velocity=100 time=10
the msg is note_off channel=9 note=74 velocity=100 time=1
the msg is note_on channel=9 note=74 velocity=100 time=4
the msg is note_off channel=9 note=74 velocity=100 time=1
the msg is note_on channel=9 note=71 velocity=100 time=4
the msg is note_off channel=9 note=71 velocity=100 time=1
the msg is note_on channel=9 note=74 velocity=100 time=10
the msg is note_off channel=9 note=74 velocity=100 time=1
the msg is note_on channel=9 note=74 velocity=100 time=4
the msg is note_off channel=9 note=74 velocity=100 time=1
the msg is note_on channel=9 note=71 velocity=100 time=4
the msg is note_off channel=9 note=71 velocity=100 time=1
the msg is note_on channel=9 note=71 velocity=100 time=4
the msg is note_off channel=9 note=71 velocity=100 time=1
the msg is note_on channel=9 note=69 velocity=100 time=4
the msg is note_off channel=9 note=69 velocity=100 time=1
the msg is note_on channel=9 note=72 velocity=100 time=55
the msg is note_off channel=9 note=72 velocity=100 time=1
the msg is note_on channel=9 note=72 velocity=100 time=10
the msg is note_off channel=9 note=72 velocity=100 time=1
the msg is note_on channel=9 note=72 velocity=100 time=4
the msg is note_off channel=9 note=72 velocity=100 time=1
the msg is note_on channel=9 note=72 velocity=100 time=4
the msg is note_off channel=9 note=72 velocity=100 time=1
the msg is note_on channel=9 note=72 velocity=100 time=4
the msg is note_off channel=9 note=72 velocity=100 time=1
the msg is note_on channel=9 note=76 velocity=100 time=4
the msg is note_off channel=9 note=76 velocity=100 time=1
the msg is note_on channel=9 note=79 velocity=100 time=10
the msg is note_off channel=9 note=79 velocity=100 time=1
the msg is note_on channel=9 note=76 velocity=100 time=10
the msg is note_off channel=9 note=76 velocity=100 time=1
the msg is note_on channel=9 note=79 velocity=100 time=10
the msg is note_off channel=9 note=79 velocity=100 time=1
the msg is note_on channel=9 note=79 velocity=100 time=4
the msg is note_off channel=9 note=79 velocity=100 time=1
the msg is note_on channel=9 note=76 velocity=100 time=4
the msg is note_off channel=9 note=76 velocity=100 time=1
the msg is note_on channel=9 note=74 velocity=100 time=4
the msg is note_off channel=9 note=74 velocity=100 time=1
the msg is note_on channel=9 note=72 velocity=100 time=4
the msg is note_off channel=9 note=72 velocity=100 time=1
the msg is note_on channel=9 note=74 velocity=100 time=10
the msg is note_off channel=9 note=74 velocity=100 time=1
the msg is note_on channel=9 note=74 velocity=100 time=10
the msg is note_off channel=9 note=74 velocity=100 time=1
the msg is note_on channel=9 note=74 velocity=100 time=10
the msg is note_off channel=9 note=74 velocity=100 time=1
the msg is note_on channel=9 note=76 velocity=100 time=10
the msg is note_off channel=9 note=76 velocity=100 time=1
the msg is note_on channel=9 note=79 velocity=100 time=10
the msg is note_off channel=9 note=79 velocity=100 time=1
the msg is note_on channel=9 note=79 velocity=100 time=6
the msg is note_off channel=9 note=79 velocity=100 time=1
the msg is note_on channel=9 note=76 velocity=100 time=3
the msg is note_off channel=9 note=76 velocity=100 time=1
the msg is note_on channel=9 note=74 velocity=100 time=6
the msg is note_off channel=9 note=74 velocity=100 time=1
the msg is note_on channel=9 note=72 velocity=100 time=3
the msg is note_off channel=9 note=72 velocity=100 time=1
the msg is note_on channel=9 note=74 velocity=100 time=10
the msg is note_off channel=9 note=74 velocity=100 time=1
the msg is note_on channel=9 note=76 velocity=100 time=10
the msg is note_off channel=9 note=76 velocity=100 time=1
the msg is note_on channel=9 note=72 velocity=100 time=4
the msg is note_off channel=9 note=72 velocity=100 time=1
the msg is note_on channel=9 note=74 velocity=100 time=4
the msg is note_off channel=9 note=74 velocity=100 time=1
the msg is note_on channel=9 note=74 velocity=100 time=10
the msg is note_off channel=9 note=74 velocity=100 time=1
the msg is note_on channel=9 note=74 velocity=100 time=10
the msg is note_off channel=9 note=74 velocity=100 time=1
the msg is note_on channel=9 note=74 velocity=100 time=4
the msg is note_off channel=9 note=74 velocity=100 time=1
the msg is note_on channel=9 note=71 velocity=100 time=4
the msg is note_off channel=9 note=71 velocity=100 time=1
the msg is note_on channel=9 note=74 velocity=100 time=10
the msg is note_off channel=9 note=74 velocity=100 time=1
the msg is note_on channel=9 note=74 velocity=100 time=10
the msg is note_off channel=9 note=74 velocity=100 time=1
the msg is note_on channel=9 note=72 velocity=100 time=3
the msg is note_off channel=9 note=72 velocity=100 time=1
the msg is note_on channel=9 note=74 velocity=100 time=10
the msg is note_off channel=9 note=74 velocity=100 time=1
the msg is note_on channel=9 note=74 velocity=100 time=10
the msg is note_off channel=9 note=74 velocity=100 time=1
the msg is note_on channel=9 note=74 velocity=100 time=4
the msg is note_off channel=9 note=74 velocity=100 time=1
the msg is note_on channel=9 note=71 velocity=100 time=4
the msg is note_off channel=9 note=71 velocity=100 time=1
the msg is note_on channel=9 note=74 velocity=100 time=4
the msg is note_off channel=9 note=74 velocity=100 time=1
the msg is note_on channel=9 note=76 velocity=100 time=10
the msg is note_off channel=9 note=76 velocity=100 time=1
the msg is note_on channel=9 note=79 velocity=100 time=10
the msg is note_off channel=9 note=79 velocity=100 time=1
the msg is note_on channel=9 note=72 velocity=100 time=3
the msg is note_off channel=9 note=72 velocity=100 time=1
the msg is note_on channel=9 note=72 velocity=100 time=6
the msg is note_off channel=9 note=72 velocity=100 time=1
the msg is note_on channel=9 note=72 velocity=100 time=3
the msg is note_off channel=9 note=72 velocity=100 time=1
the msg is note_on channel=9 note=72 velocity=100 time=10
the msg is note_off channel=9 note=72 velocity=100 time=1
the msg is note_on channel=9 note=72 velocity=100 time=4
the msg is note_off channel=9 note=72 velocity=100 time=1
the msg is note_on channel=9 note=72 velocity=100 time=4
the msg is note_off channel=9 note=72 velocity=100 time=1
the msg is <meta message end_of_track time=0>
the msg is <meta message track_name name='outTest85_512_1.0.mid' time=0>
the msg is note_on channel=9 note=69 velocity=100 time=1
the msg is note_off channel=9 note=69 velocity=100 time=1
the msg is note_on channel=9 note=72 velocity=100 time=75
the msg is note_off channel=9 note=72 velocity=100 time=1
the msg is note_on channel=9 note=72 velocity=100 time=4
the msg is note_off channel=9 note=72 velocity=100 time=1
the msg is note_on channel=9 note=72 velocity=100 time=4
the msg is note_off channel=9 note=72 velocity=100 time=1
the msg is note_on channel=9 note=72 velocity=100 time=10
the msg is note_off channel=9 note=72 velocity=100 time=1
the msg is note_on channel=9 note=74 velocity=100 time=10
the msg is note_off channel=9 note=74 velocity=100 time=1
the msg is note_on channel=9 note=74 velocity=100 time=4
the msg is note_off channel=9 note=74 velocity=100 time=1
the msg is note_on channel=9 note=71 velocity=100 time=4
the msg is note_off channel=9 note=71 velocity=100 time=1
the msg is note_on channel=9 note=74 velocity=100 time=10
the msg is note_off channel=9 note=74 velocity=100 time=1
the msg is note_on channel=9 note=74 velocity=100 time=4
the msg is note_off channel=9 note=74 velocity=100 time=1
the msg is note_on channel=9 note=71 velocity=100 time=4
the msg is note_off channel=9 note=71 velocity=100 time=1
the msg is note_on channel=9 note=71 velocity=100 time=4
the msg is note_off channel=9 note=71 velocity=100 time=1
the msg is note_on channel=9 note=69 velocity=100 time=4
the msg is note_off channel=9 note=69 velocity=100 time=1
the msg is note_on channel=9 note=72 velocity=100 time=55
the msg is note_off channel=9 note=72 velocity=100 time=1
the msg is note_on channel=9 note=72 velocity=100 time=10
the msg is note_off channel=9 note=72 velocity=100 time=1
the msg is note_on channel=9 note=72 velocity=100 time=4
the msg is note_off channel=9 note=72 velocity=100 time=1
the msg is note_on channel=9 note=72 velocity=100 time=4
the msg is note_off channel=9 note=72 velocity=100 time=1
the msg is note_on channel=9 note=72 velocity=100 time=4
the msg is note_off channel=9 note=72 velocity=100 time=1
the msg is note_on channel=9 note=76 velocity=100 time=4
the msg is note_off channel=9 note=76 velocity=100 time=1
the msg is note_on channel=9 note=79 velocity=100 time=10
the msg is note_off channel=9 note=79 velocity=100 time=1
the msg is note_on channel=9 note=76 velocity=100 time=10
the msg is note_off channel=9 note=76 velocity=100 time=1
the msg is note_on channel=9 note=79 velocity=100 time=10
the msg is note_off channel=9 note=79 velocity=100 time=1
the msg is note_on channel=9 note=79 velocity=100 time=4
the msg is note_off channel=9 note=79 velocity=100 time=1
the msg is note_on channel=9 note=76 velocity=100 time=4
the msg is note_off channel=9 note=76 velocity=100 time=1
the msg is note_on channel=9 note=74 velocity=100 time=4
the msg is note_off channel=9 note=74 velocity=100 time=1
the msg is note_on channel=9 note=72 velocity=100 time=4
the msg is note_off channel=9 note=72 velocity=100 time=1
the msg is note_on channel=9 note=74 velocity=100 time=10
the msg is note_off channel=9 note=74 velocity=100 time=1
the msg is note_on channel=9 note=74 velocity=100 time=10
the msg is note_off channel=9 note=74 velocity=100 time=1
the msg is note_on channel=9 note=74 velocity=100 time=10
the msg is note_off channel=9 note=74 velocity=100 time=1
the msg is note_on channel=9 note=76 velocity=100 time=10
the msg is note_off channel=9 note=76 velocity=100 time=1
the msg is note_on channel=9 note=79 velocity=100 time=10
the msg is note_off channel=9 note=79 velocity=100 time=1
the msg is note_on channel=9 note=79 velocity=100 time=6
the msg is note_off channel=9 note=79 velocity=100 time=1
the msg is note_on channel=9 note=76 velocity=100 time=3
the msg is note_off channel=9 note=76 velocity=100 time=1
the msg is note_on channel=9 note=74 velocity=100 time=6
the msg is note_off channel=9 note=74 velocity=100 time=1
the msg is note_on channel=9 note=72 velocity=100 time=3
the msg is note_off channel=9 note=72 velocity=100 time=1
the msg is note_on channel=9 note=74 velocity=100 time=10
the msg is note_off channel=9 note=74 velocity=100 time=1
the msg is note_on channel=9 note=76 velocity=100 time=10
the msg is note_off channel=9 note=76 velocity=100 time=1
the msg is note_on channel=9 note=72 velocity=100 time=4
the msg is note_off channel=9 note=72 velocity=100 time=1
the msg is note_on channel=9 note=74 velocity=100 time=4
the msg is note_off channel=9 note=74 velocity=100 time=1
the msg is note_on channel=9 note=74 velocity=100 time=10
the msg is note_off channel=9 note=74 velocity=100 time=1
the msg is note_on channel=9 note=74 velocity=100 time=10
the msg is note_off channel=9 note=74 velocity=100 time=1
the msg is note_on channel=9 note=74 velocity=100 time=4
the msg is note_off channel=9 note=74 velocity=100 time=1
the msg is note_on channel=9 note=71 velocity=100 time=4
the msg is note_off channel=9 note=71 velocity=100 time=1
the msg is note_on channel=9 note=74 velocity=100 time=10
the msg is note_off channel=9 note=74 velocity=100 time=1
the msg is note_on channel=9 note=74 velocity=100 time=10
the msg is note_off channel=9 note=74 velocity=100 time=1
the msg is note_on channel=9 note=72 velocity=100 time=3
the msg is note_off channel=9 note=72 velocity=100 time=1
the msg is note_on channel=9 note=74 velocity=100 time=10
the msg is note_off channel=9 note=74 velocity=100 time=1
the msg is note_on channel=9 note=74 velocity=100 time=10
the msg is note_off channel=9 note=74 velocity=100 time=1
the msg is note_on channel=9 note=74 velocity=100 time=4
the msg is note_off channel=9 note=74 velocity=100 time=1
the msg is note_on channel=9 note=71 velocity=100 time=4
the msg is note_off channel=9 note=71 velocity=100 time=1
the msg is note_on channel=9 note=74 velocity=100 time=4
the msg is note_off channel=9 note=74 velocity=100 time=1
the msg is note_on channel=9 note=76 velocity=100 time=10
the msg is note_off channel=9 note=76 velocity=100 time=1
the msg is note_on channel=9 note=79 velocity=100 time=10
the msg is note_off channel=9 note=79 velocity=100 time=1
the msg is note_on channel=9 note=72 velocity=100 time=3
the msg is note_off channel=9 note=72 velocity=100 time=1
the msg is note_on channel=9 note=72 velocity=100 time=6
the msg is note_off channel=9 note=72 velocity=100 time=1
the msg is note_on channel=9 note=72 velocity=100 time=3
the msg is note_off channel=9 note=72 velocity=100 time=1
the msg is note_on channel=9 note=72 velocity=100 time=10
the msg is note_off channel=9 note=72 velocity=100 time=1
the msg is note_on channel=9 note=72 velocity=100 time=4
the msg is note_off channel=9 note=72 velocity=100 time=1
the msg is note_on channel=9 note=72 velocity=100 time=4
the msg is note_off channel=9 note=72 velocity=100 time=1
the msg is <meta message end_of_track time=0>
the msg is <meta message track_name name='outTest85_512_1.0.mid' time=0>
the msg is note_on channel=9 note=69 velocity=100 time=1
the msg is note_off channel=9 note=69 velocity=100 time=1
the msg is note_on channel=9 note=72 velocity=100 time=75
the msg is note_off channel=9 note=72 velocity=100 time=1
the msg is note_on channel=9 note=72 velocity=100 time=4
the msg is note_off channel=9 note=72 velocity=100 time=1
the msg is note_on channel=9 note=72 velocity=100 time=4
the msg is note_off channel=9 note=72 velocity=100 time=1
the msg is note_on channel=9 note=72 velocity=100 time=10
the msg is note_off channel=9 note=72 velocity=100 time=1
the msg is note_on channel=9 note=74 velocity=100 time=10
the msg is note_off channel=9 note=74 velocity=100 time=1
the msg is note_on channel=9 note=74 velocity=100 time=4
the msg is note_off channel=9 note=74 velocity=100 time=1
the msg is note_on channel=9 note=71 velocity=100 time=4
the msg is note_off channel=9 note=71 velocity=100 time=1
the msg is note_on channel=9 note=74 velocity=100 time=10
the msg is note_off channel=9 note=74 velocity=100 time=1
the msg is note_on channel=9 note=74 velocity=100 time=4
the msg is note_off channel=9 note=74 velocity=100 time=1
the msg is note_on channel=9 note=71 velocity=100 time=4
the msg is note_off channel=9 note=71 velocity=100 time=1
the msg is note_on channel=9 note=71 velocity=100 time=4
the msg is note_off channel=9 note=71 velocity=100 time=1
the msg is note_on channel=9 note=69 velocity=100 time=4
the msg is note_off channel=9 note=69 velocity=100 time=1
the msg is note_on channel=9 note=72 velocity=100 time=55
the msg is note_off channel=9 note=72 velocity=100 time=1
the msg is note_on channel=9 note=72 velocity=100 time=10
the msg is note_off channel=9 note=72 velocity=100 time=1
the msg is note_on channel=9 note=72 velocity=100 time=4
the msg is note_off channel=9 note=72 velocity=100 time=1
the msg is note_on channel=9 note=72 velocity=100 time=4
the msg is note_off channel=9 note=72 velocity=100 time=1
the msg is note_on channel=9 note=72 velocity=100 time=4
the msg is note_off channel=9 note=72 velocity=100 time=1
the msg is note_on channel=9 note=76 velocity=100 time=4
the msg is note_off channel=9 note=76 velocity=100 time=1
the msg is note_on channel=9 note=79 velocity=100 time=10
the msg is note_off channel=9 note=79 velocity=100 time=1
the msg is note_on channel=9 note=76 velocity=100 time=10
the msg is note_off channel=9 note=76 velocity=100 time=1
the msg is note_on channel=9 note=79 velocity=100 time=10
the msg is note_off channel=9 note=79 velocity=100 time=1
the msg is note_on channel=9 note=79 velocity=100 time=4
the msg is note_off channel=9 note=79 velocity=100 time=1
the msg is note_on channel=9 note=76 velocity=100 time=4
the msg is note_off channel=9 note=76 velocity=100 time=1
the msg is note_on channel=9 note=74 velocity=100 time=4
the msg is note_off channel=9 note=74 velocity=100 time=1
the msg is note_on channel=9 note=72 velocity=100 time=4
the msg is note_off channel=9 note=72 velocity=100 time=1
the msg is note_on channel=9 note=74 velocity=100 time=10
the msg is note_off channel=9 note=74 velocity=100 time=1
the msg is note_on channel=9 note=74 velocity=100 time=10
the msg is note_off channel=9 note=74 velocity=100 time=1
the msg is note_on channel=9 note=74 velocity=100 time=10
the msg is note_off channel=9 note=74 velocity=100 time=1
the msg is note_on channel=9 note=76 velocity=100 time=10
the msg is note_off channel=9 note=76 velocity=100 time=1
the msg is note_on channel=9 note=79 velocity=100 time=10
the msg is note_off channel=9 note=79 velocity=100 time=1
the msg is note_on channel=9 note=79 velocity=100 time=6
the msg is note_off channel=9 note=79 velocity=100 time=1
the msg is note_on channel=9 note=76 velocity=100 time=3
the msg is note_off channel=9 note=76 velocity=100 time=1
the msg is note_on channel=9 note=74 velocity=100 time=6
the msg is note_off channel=9 note=74 velocity=100 time=1
the msg is note_on channel=9 note=72 velocity=100 time=3
the msg is note_off channel=9 note=72 velocity=100 time=1
the msg is note_on channel=9 note=74 velocity=100 time=10
the msg is note_off channel=9 note=74 velocity=100 time=1
the msg is note_on channel=9 note=76 velocity=100 time=10
the msg is note_off channel=9 note=76 velocity=100 time=1
the msg is note_on channel=9 note=72 velocity=100 time=4
the msg is note_off channel=9 note=72 velocity=100 time=1
the msg is note_on channel=9 note=74 velocity=100 time=4
the msg is note_off channel=9 note=74 velocity=100 time=1
the msg is note_on channel=9 note=74 velocity=100 time=10
the msg is note_off channel=9 note=74 velocity=100 time=1
the msg is note_on channel=9 note=74 velocity=100 time=10
the msg is note_off channel=9 note=74 velocity=100 time=1
the msg is note_on channel=9 note=74 velocity=100 time=4
the msg is note_off channel=9 note=74 velocity=100 time=1
the msg is note_on channel=9 note=71 velocity=100 time=4
the msg is note_off channel=9 note=71 velocity=100 time=1
the msg is note_on channel=9 note=74 velocity=100 time=10
the msg is note_off channel=9 note=74 velocity=100 time=1
the msg is note_on channel=9 note=74 velocity=100 time=10
the msg is note_off channel=9 note=74 velocity=100 time=1
the msg is note_on channel=9 note=72 velocity=100 time=3
the msg is note_off channel=9 note=72 velocity=100 time=1
the msg is note_on channel=9 note=74 velocity=100 time=10
the msg is note_off channel=9 note=74 velocity=100 time=1
the msg is note_on channel=9 note=74 velocity=100 time=10
the msg is note_off channel=9 note=74 velocity=100 time=1
the msg is note_on channel=9 note=74 velocity=100 time=4
the msg is note_off channel=9 note=74 velocity=100 time=1
the msg is note_on channel=9 note=71 velocity=100 time=4
the msg is note_off channel=9 note=71 velocity=100 time=1
the msg is note_on channel=9 note=74 velocity=100 time=4
the msg is note_off channel=9 note=74 velocity=100 time=1
the msg is note_on channel=9 note=76 velocity=100 time=10
the msg is note_off channel=9 note=76 velocity=100 time=1
the msg is note_on channel=9 note=79 velocity=100 time=10
the msg is note_off channel=9 note=79 velocity=100 time=1
the msg is note_on channel=9 note=72 velocity=100 time=3
the msg is note_off channel=9 note=72 velocity=100 time=1
the msg is note_on channel=9 note=72 velocity=100 time=6
the msg is note_off channel=9 note=72 velocity=100 time=1
the msg is note_on channel=9 note=72 velocity=100 time=3
the msg is note_off channel=9 note=72 velocity=100 time=1
the msg is note_on channel=9 note=72 velocity=100 time=10
the msg is note_off channel=9 note=72 velocity=100 time=1
the msg is note_on channel=9 note=72 velocity=100 time=4
the msg is note_off channel=9 note=72 velocity=100 time=1
the msg is note_on channel=9 note=72 velocity=100 time=4
the msg is note_off channel=9 note=72 velocity=100 time=1
the msg is <meta message end_of_track time=0>
the msg is <meta message track_name name='outTest85_512_1.0.mid' time=0>
the msg is note_on channel=9 note=69 velocity=100 time=1
the msg is note_off channel=9 note=69 velocity=100 time=1
the msg is note_on channel=9 note=72 velocity=100 time=75
the msg is note_off channel=9 note=72 velocity=100 time=1
the msg is note_on channel=9 note=72 velocity=100 time=4
the msg is note_off channel=9 note=72 velocity=100 time=1
the msg is note_on channel=9 note=72 velocity=100 time=4
the msg is note_off channel=9 note=72 velocity=100 time=1
the msg is note_on channel=9 note=72 velocity=100 time=10
the msg is note_off channel=9 note=72 velocity=100 time=1
the msg is note_on channel=9 note=74 velocity=100 time=10
the msg is note_off channel=9 note=74 velocity=100 time=1
the msg is note_on channel=9 note=74 velocity=100 time=4
the msg is note_off channel=9 note=74 velocity=100 time=1
the msg is note_on channel=9 note=71 velocity=100 time=4
the msg is note_off channel=9 note=71 velocity=100 time=1
the msg is note_on channel=9 note=74 velocity=100 time=10
the msg is note_off channel=9 note=74 velocity=100 time=1
the msg is note_on channel=9 note=74 velocity=100 time=4
the msg is note_off channel=9 note=74 velocity=100 time=1
the msg is note_on channel=9 note=71 velocity=100 time=4
the msg is note_off channel=9 note=71 velocity=100 time=1
the msg is note_on channel=9 note=71 velocity=100 time=4
the msg is note_off channel=9 note=71 velocity=100 time=1
the msg is note_on channel=9 note=69 velocity=100 time=4
the msg is note_off channel=9 note=69 velocity=100 time=1
the msg is note_on channel=9 note=72 velocity=100 time=55
the msg is note_off channel=9 note=72 velocity=100 time=1
the msg is note_on channel=9 note=72 velocity=100 time=10
the msg is note_off channel=9 note=72 velocity=100 time=1
the msg is note_on channel=9 note=72 velocity=100 time=4
the msg is note_off channel=9 note=72 velocity=100 time=1
the msg is note_on channel=9 note=72 velocity=100 time=4
the msg is note_off channel=9 note=72 velocity=100 time=1
the msg is note_on channel=9 note=72 velocity=100 time=4
the msg is note_off channel=9 note=72 velocity=100 time=1
the msg is note_on channel=9 note=76 velocity=100 time=4
the msg is note_off channel=9 note=76 velocity=100 time=1
the msg is note_on channel=9 note=79 velocity=100 time=10
the msg is note_off channel=9 note=79 velocity=100 time=1
the msg is note_on channel=9 note=76 velocity=100 time=10
the msg is note_off channel=9 note=76 velocity=100 time=1
the msg is note_on channel=9 note=79 velocity=100 time=10
the msg is note_off channel=9 note=79 velocity=100 time=1
the msg is note_on channel=9 note=79 velocity=100 time=4
the msg is note_off channel=9 note=79 velocity=100 time=1
the msg is note_on channel=9 note=76 velocity=100 time=4
the msg is note_off channel=9 note=76 velocity=100 time=1
the msg is note_on channel=9 note=74 velocity=100 time=4
the msg is note_off channel=9 note=74 velocity=100 time=1
the msg is note_on channel=9 note=72 velocity=100 time=4
the msg is note_off channel=9 note=72 velocity=100 time=1
the msg is note_on channel=9 note=74 velocity=100 time=10
the msg is note_off channel=9 note=74 velocity=100 time=1
the msg is note_on channel=9 note=74 velocity=100 time=10
the msg is note_off channel=9 note=74 velocity=100 time=1
the msg is note_on channel=9 note=74 velocity=100 time=10
the msg is note_off channel=9 note=74 velocity=100 time=1
the msg is note_on channel=9 note=76 velocity=100 time=10
the msg is note_off channel=9 note=76 velocity=100 time=1
the msg is note_on channel=9 note=79 velocity=100 time=10
the msg is note_off channel=9 note=79 velocity=100 time=1
the msg is note_on channel=9 note=79 velocity=100 time=6
the msg is note_off channel=9 note=79 velocity=100 time=1
the msg is note_on channel=9 note=76 velocity=100 time=3
the msg is note_off channel=9 note=76 velocity=100 time=1
the msg is note_on channel=9 note=74 velocity=100 time=6
the msg is note_off channel=9 note=74 velocity=100 time=1
the msg is note_on channel=9 note=72 velocity=100 time=3
the msg is note_off channel=9 note=72 velocity=100 time=1
the msg is note_on channel=9 note=74 velocity=100 time=10
the msg is note_off channel=9 note=74 velocity=100 time=1
the msg is note_on channel=9 note=76 velocity=100 time=10
the msg is note_off channel=9 note=76 velocity=100 time=1
the msg is note_on channel=9 note=72 velocity=100 time=4
the msg is note_off channel=9 note=72 velocity=100 time=1
the msg is note_on channel=9 note=74 velocity=100 time=4
the msg is note_off channel=9 note=74 velocity=100 time=1
the msg is note_on channel=9 note=74 velocity=100 time=10
the msg is note_off channel=9 note=74 velocity=100 time=1
the msg is note_on channel=9 note=74 velocity=100 time=10
the msg is note_off channel=9 note=74 velocity=100 time=1
the msg is note_on channel=9 note=74 velocity=100 time=4
the msg is note_off channel=9 note=74 velocity=100 time=1
the msg is note_on channel=9 note=71 velocity=100 time=4
the msg is note_off channel=9 note=71 velocity=100 time=1
the msg is note_on channel=9 note=74 velocity=100 time=10
the msg is note_off channel=9 note=74 velocity=100 time=1
the msg is note_on channel=9 note=74 velocity=100 time=10
the msg is note_off channel=9 note=74 velocity=100 time=1
the msg is note_on channel=9 note=72 velocity=100 time=3
the msg is note_off channel=9 note=72 velocity=100 time=1
the msg is note_on channel=9 note=74 velocity=100 time=10
the msg is note_off channel=9 note=74 velocity=100 time=1
the msg is note_on channel=9 note=74 velocity=100 time=10
the msg is note_off channel=9 note=74 velocity=100 time=1
the msg is note_on channel=9 note=74 velocity=100 time=4
the msg is note_off channel=9 note=74 velocity=100 time=1
the msg is note_on channel=9 note=71 velocity=100 time=4
the msg is note_off channel=9 note=71 velocity=100 time=1
the msg is note_on channel=9 note=74 velocity=100 time=4
the msg is note_off channel=9 note=74 velocity=100 time=1
the msg is note_on channel=9 note=76 velocity=100 time=10
the msg is note_off channel=9 note=76 velocity=100 time=1
the msg is note_on channel=9 note=79 velocity=100 time=10
the msg is note_off channel=9 note=79 velocity=100 time=1
the msg is note_on channel=9 note=72 velocity=100 time=3
the msg is note_off channel=9 note=72 velocity=100 time=1
the msg is note_on channel=9 note=72 velocity=100 time=6
the msg is note_off channel=9 note=72 velocity=100 time=1
the msg is note_on channel=9 note=72 velocity=100 time=3
the msg is note_off channel=9 note=72 velocity=100 time=1
the msg is note_on channel=9 note=72 velocity=100 time=10
the msg is note_off channel=9 note=72 velocity=100 time=1
the msg is note_on channel=9 note=72 velocity=100 time=4
the msg is note_off channel=9 note=72 velocity=100 time=1
the msg is note_on channel=9 note=72 velocity=100 time=4
the msg is note_off channel=9 note=72 velocity=100 time=1
the msg is <meta message end_of_track time=0>
the msg is <meta message track_name name='outTest85_512_1.0.mid' time=0>
the msg is note_on channel=9 note=69 velocity=100 time=1
the msg is note_off channel=9 note=69 velocity=100 time=1
the msg is note_on channel=9 note=72 velocity=100 time=75
the msg is note_off channel=9 note=72 velocity=100 time=1
the msg is note_on channel=9 note=72 velocity=100 time=4
the msg is note_off channel=9 note=72 velocity=100 time=1
the msg is note_on channel=9 note=72 velocity=100 time=4
the msg is note_off channel=9 note=72 velocity=100 time=1
the msg is note_on channel=9 note=72 velocity=100 time=10
the msg is note_off channel=9 note=72 velocity=100 time=1
the msg is note_on channel=9 note=74 velocity=100 time=10
the msg is note_off channel=9 note=74 velocity=100 time=1
the msg is note_on channel=9 note=74 velocity=100 time=4
the msg is note_off channel=9 note=74 velocity=100 time=1
the msg is note_on channel=9 note=71 velocity=100 time=4
the msg is note_off channel=9 note=71 velocity=100 time=1
the msg is note_on channel=9 note=74 velocity=100 time=10
the msg is note_off channel=9 note=74 velocity=100 time=1
the msg is note_on channel=9 note=74 velocity=100 time=4
the msg is note_off channel=9 note=74 velocity=100 time=1
the msg is note_on channel=9 note=71 velocity=100 time=4
the msg is note_off channel=9 note=71 velocity=100 time=1
the msg is note_on channel=9 note=71 velocity=100 time=4
the msg is note_off channel=9 note=71 velocity=100 time=1
the msg is note_on channel=9 note=69 velocity=100 time=4
the msg is note_off channel=9 note=69 velocity=100 time=1
the msg is note_on channel=9 note=72 velocity=100 time=55
the msg is note_off channel=9 note=72 velocity=100 time=1
the msg is note_on channel=9 note=72 velocity=100 time=10
the msg is note_off channel=9 note=72 velocity=100 time=1
the msg is note_on channel=9 note=72 velocity=100 time=4
the msg is note_off channel=9 note=72 velocity=100 time=1
the msg is note_on channel=9 note=72 velocity=100 time=4
the msg is note_off channel=9 note=72 velocity=100 time=1
the msg is note_on channel=9 note=72 velocity=100 time=4
the msg is note_off channel=9 note=72 velocity=100 time=1
the msg is note_on channel=9 note=76 velocity=100 time=4
the msg is note_off channel=9 note=76 velocity=100 time=1
the msg is note_on channel=9 note=79 velocity=100 time=10
the msg is note_off channel=9 note=79 velocity=100 time=1
the msg is note_on channel=9 note=76 velocity=100 time=10
the msg is note_off channel=9 note=76 velocity=100 time=1
the msg is note_on channel=9 note=79 velocity=100 time=10
the msg is note_off channel=9 note=79 velocity=100 time=1
the msg is note_on channel=9 note=79 velocity=100 time=4
the msg is note_off channel=9 note=79 velocity=100 time=1
the msg is note_on channel=9 note=76 velocity=100 time=4
the msg is note_off channel=9 note=76 velocity=100 time=1
the msg is note_on channel=9 note=74 velocity=100 time=4
the msg is note_off channel=9 note=74 velocity=100 time=1
the msg is note_on channel=9 note=72 velocity=100 time=4
the msg is note_off channel=9 note=72 velocity=100 time=1
the msg is note_on channel=9 note=74 velocity=100 time=10
the msg is note_off channel=9 note=74 velocity=100 time=1
the msg is note_on channel=9 note=74 velocity=100 time=10
the msg is note_off channel=9 note=74 velocity=100 time=1
the msg is note_on channel=9 note=74 velocity=100 time=10
the msg is note_off channel=9 note=74 velocity=100 time=1
the msg is note_on channel=9 note=76 velocity=100 time=10
the msg is note_off channel=9 note=76 velocity=100 time=1
the msg is note_on channel=9 note=79 velocity=100 time=10
the msg is note_off channel=9 note=79 velocity=100 time=1
the msg is note_on channel=9 note=79 velocity=100 time=6
the msg is note_off channel=9 note=79 velocity=100 time=1
the msg is note_on channel=9 note=76 velocity=100 time=3
the msg is note_off channel=9 note=76 velocity=100 time=1
the msg is note_on channel=9 note=74 velocity=100 time=6
the msg is note_off channel=9 note=74 velocity=100 time=1
the msg is note_on channel=9 note=72 velocity=100 time=3
the msg is note_off channel=9 note=72 velocity=100 time=1
the msg is note_on channel=9 note=74 velocity=100 time=10
the msg is note_off channel=9 note=74 velocity=100 time=1
the msg is note_on channel=9 note=76 velocity=100 time=10
the msg is note_off channel=9 note=76 velocity=100 time=1
the msg is note_on channel=9 note=72 velocity=100 time=4
the msg is note_off channel=9 note=72 velocity=100 time=1
the msg is note_on channel=9 note=74 velocity=100 time=4
the msg is note_off channel=9 note=74 velocity=100 time=1
the msg is note_on channel=9 note=74 velocity=100 time=10
the msg is note_off channel=9 note=74 velocity=100 time=1
the msg is note_on channel=9 note=74 velocity=100 time=10
the msg is note_off channel=9 note=74 velocity=100 time=1
the msg is note_on channel=9 note=74 velocity=100 time=4
the msg is note_off channel=9 note=74 velocity=100 time=1
the msg is note_on channel=9 note=71 velocity=100 time=4
the msg is note_off channel=9 note=71 velocity=100 time=1
the msg is note_on channel=9 note=74 velocity=100 time=10
the msg is note_off channel=9 note=74 velocity=100 time=1
the msg is note_on channel=9 note=74 velocity=100 time=10
the msg is note_off channel=9 note=74 velocity=100 time=1
the msg is note_on channel=9 note=72 velocity=100 time=3
the msg is note_off channel=9 note=72 velocity=100 time=1
the msg is note_on channel=9 note=74 velocity=100 time=10
the msg is note_off channel=9 note=74 velocity=100 time=1
the msg is note_on channel=9 note=74 velocity=100 time=10
the msg is note_off channel=9 note=74 velocity=100 time=1
the msg is note_on channel=9 note=74 velocity=100 time=4
the msg is note_off channel=9 note=74 velocity=100 time=1
the msg is note_on channel=9 note=71 velocity=100 time=4
the msg is note_off channel=9 note=71 velocity=100 time=1
the msg is note_on channel=9 note=74 velocity=100 time=4
the msg is note_off channel=9 note=74 velocity=100 time=1
the msg is note_on channel=9 note=76 velocity=100 time=10
the msg is note_off channel=9 note=76 velocity=100 time=1
the msg is note_on channel=9 note=79 velocity=100 time=10
the msg is note_off channel=9 note=79 velocity=100 time=1
the msg is note_on channel=9 note=72 velocity=100 time=3
the msg is note_off channel=9 note=72 velocity=100 time=1
the msg is note_on channel=9 note=72 velocity=100 time=6
the msg is note_off channel=9 note=72 velocity=100 time=1
the msg is note_on channel=9 note=72 velocity=100 time=3
the msg is note_off channel=9 note=72 velocity=100 time=1
the msg is note_on channel=9 note=72 velocity=100 time=10
the msg is note_off channel=9 note=72 velocity=100 time=1
the msg is note_on channel=9 note=72 velocity=100 time=4
the msg is note_off channel=9 note=72 velocity=100 time=1
the msg is note_on channel=9 note=72 velocity=100 time=4
the msg is note_off channel=9 note=72 velocity=100 time=1
the msg is <meta message end_of_track time=0>
the msg is <meta message track_name name='outTest85_512_1.0.mid' time=0>
the msg is note_on channel=9 note=69 velocity=100 time=1
the msg is note_off channel=9 note=69 velocity=100 time=1
the msg is note_on channel=9 note=72 velocity=100 time=75
the msg is note_off channel=9 note=72 velocity=100 time=1
the msg is note_on channel=9 note=72 velocity=100 time=4
the msg is note_off channel=9 note=72 velocity=100 time=1
the msg is note_on channel=9 note=72 velocity=100 time=4
the msg is note_off channel=9 note=72 velocity=100 time=1
the msg is note_on channel=9 note=72 velocity=100 time=10
the msg is note_off channel=9 note=72 velocity=100 time=1
the msg is note_on channel=9 note=74 velocity=100 time=10
the msg is note_off channel=9 note=74 velocity=100 time=1
the msg is note_on channel=9 note=74 velocity=100 time=4
the msg is note_off channel=9 note=74 velocity=100 time=1
the msg is note_on channel=9 note=71 velocity=100 time=4
the msg is note_off channel=9 note=71 velocity=100 time=1
the msg is note_on channel=9 note=74 velocity=100 time=10
the msg is note_off channel=9 note=74 velocity=100 time=1
the msg is note_on channel=9 note=74 velocity=100 time=4
the msg is note_off channel=9 note=74 velocity=100 time=1
the msg is note_on channel=9 note=71 velocity=100 time=4
the msg is note_off channel=9 note=71 velocity=100 time=1
the msg is note_on channel=9 note=71 velocity=100 time=4
the msg is note_off channel=9 note=71 velocity=100 time=1
the msg is note_on channel=9 note=69 velocity=100 time=4
the msg is note_off channel=9 note=69 velocity=100 time=1
the msg is note_on channel=9 note=72 velocity=100 time=55
the msg is note_off channel=9 note=72 velocity=100 time=1
the msg is note_on channel=9 note=72 velocity=100 time=10
the msg is note_off channel=9 note=72 velocity=100 time=1
the msg is note_on channel=9 note=72 velocity=100 time=4
the msg is note_off channel=9 note=72 velocity=100 time=1
the msg is note_on channel=9 note=72 velocity=100 time=4
the msg is note_off channel=9 note=72 velocity=100 time=1
the msg is note_on channel=9 note=72 velocity=100 time=4
the msg is note_off channel=9 note=72 velocity=100 time=1
the msg is note_on channel=9 note=76 velocity=100 time=4
the msg is note_off channel=9 note=76 velocity=100 time=1
the msg is note_on channel=9 note=79 velocity=100 time=10
the msg is note_off channel=9 note=79 velocity=100 time=1
the msg is note_on channel=9 note=76 velocity=100 time=10
the msg is note_off channel=9 note=76 velocity=100 time=1
the msg is note_on channel=9 note=79 velocity=100 time=10
the msg is note_off channel=9 note=79 velocity=100 time=1
the msg is note_on channel=9 note=79 velocity=100 time=4
the msg is note_off channel=9 note=79 velocity=100 time=1
the msg is note_on channel=9 note=76 velocity=100 time=4
the msg is note_off channel=9 note=76 velocity=100 time=1
the msg is note_on channel=9 note=74 velocity=100 time=4
the msg is note_off channel=9 note=74 velocity=100 time=1
the msg is note_on channel=9 note=72 velocity=100 time=4
the msg is note_off channel=9 note=72 velocity=100 time=1
the msg is note_on channel=9 note=74 velocity=100 time=10
the msg is note_off channel=9 note=74 velocity=100 time=1
the msg is note_on channel=9 note=74 velocity=100 time=10
the msg is note_off channel=9 note=74 velocity=100 time=1
the msg is note_on channel=9 note=74 velocity=100 time=10
the msg is note_off channel=9 note=74 velocity=100 time=1
the msg is note_on channel=9 note=76 velocity=100 time=10
the msg is note_off channel=9 note=76 velocity=100 time=1
the msg is note_on channel=9 note=79 velocity=100 time=10
the msg is note_off channel=9 note=79 velocity=100 time=1
the msg is note_on channel=9 note=79 velocity=100 time=6
the msg is note_off channel=9 note=79 velocity=100 time=1
the msg is note_on channel=9 note=76 velocity=100 time=3
the msg is note_off channel=9 note=76 velocity=100 time=1
the msg is note_on channel=9 note=74 velocity=100 time=6
the msg is note_off channel=9 note=74 velocity=100 time=1
the msg is note_on channel=9 note=72 velocity=100 time=3
the msg is note_off channel=9 note=72 velocity=100 time=1
the msg is note_on channel=9 note=74 velocity=100 time=10
the msg is note_off channel=9 note=74 velocity=100 time=1
the msg is note_on channel=9 note=76 velocity=100 time=10
the msg is note_off channel=9 note=76 velocity=100 time=1
the msg is note_on channel=9 note=72 velocity=100 time=4
the msg is note_off channel=9 note=72 velocity=100 time=1
the msg is note_on channel=9 note=74 velocity=100 time=4
the msg is note_off channel=9 note=74 velocity=100 time=1
the msg is note_on channel=9 note=74 velocity=100 time=10
the msg is note_off channel=9 note=74 velocity=100 time=1
the msg is note_on channel=9 note=74 velocity=100 time=10
the msg is note_off channel=9 note=74 velocity=100 time=1
the msg is note_on channel=9 note=74 velocity=100 time=4
the msg is note_off channel=9 note=74 velocity=100 time=1
the msg is note_on channel=9 note=71 velocity=100 time=4
the msg is note_off channel=9 note=71 velocity=100 time=1
the msg is note_on channel=9 note=74 velocity=100 time=10
the msg is note_off channel=9 note=74 velocity=100 time=1
the msg is note_on channel=9 note=74 velocity=100 time=10
the msg is note_off channel=9 note=74 velocity=100 time=1
the msg is note_on channel=9 note=72 velocity=100 time=3
the msg is note_off channel=9 note=72 velocity=100 time=1
the msg is note_on channel=9 note=74 velocity=100 time=10
the msg is note_off channel=9 note=74 velocity=100 time=1
the msg is note_on channel=9 note=74 velocity=100 time=10
the msg is note_off channel=9 note=74 velocity=100 time=1
the msg is note_on channel=9 note=74 velocity=100 time=4
the msg is note_off channel=9 note=74 velocity=100 time=1
the msg is note_on channel=9 note=71 velocity=100 time=4
the msg is note_off channel=9 note=71 velocity=100 time=1
the msg is note_on channel=9 note=74 velocity=100 time=4
the msg is note_off channel=9 note=74 velocity=100 time=1
the msg is note_on channel=9 note=76 velocity=100 time=10
the msg is note_off channel=9 note=76 velocity=100 time=1
the msg is note_on channel=9 note=79 velocity=100 time=10
the msg is note_off channel=9 note=79 velocity=100 time=1
the msg is note_on channel=9 note=72 velocity=100 time=3
the msg is note_off channel=9 note=72 velocity=100 time=1
the msg is note_on channel=9 note=72 velocity=100 time=6
the msg is note_off channel=9 note=72 velocity=100 time=1
the msg is note_on channel=9 note=72 velocity=100 time=3
the msg is note_off channel=9 note=72 velocity=100 time=1
the msg is note_on channel=9 note=72 velocity=100 time=10
the msg is note_off channel=9 note=72 velocity=100 time=1
the msg is note_on channel=9 note=72 velocity=100 time=4
the msg is note_off channel=9 note=72 velocity=100 time=1
the msg is note_on channel=9 note=72 velocity=100 time=4
the msg is note_off channel=9 note=72 velocity=100 time=1
the msg is <meta message end_of_track time=0>
the msg is <meta message track_name name='outTest85_512_1.0.mid' time=0>
the msg is note_on channel=9 note=69 velocity=100 time=1
the msg is note_off channel=9 note=69 velocity=100 time=1
the msg is note_on channel=9 note=72 velocity=100 time=75
the msg is note_off channel=9 note=72 velocity=100 time=1
the msg is note_on channel=9 note=72 velocity=100 time=4
the msg is note_off channel=9 note=72 velocity=100 time=1
the msg is note_on channel=9 note=72 velocity=100 time=4
the msg is note_off channel=9 note=72 velocity=100 time=1
the msg is note_on channel=9 note=72 velocity=100 time=10
the msg is note_off channel=9 note=72 velocity=100 time=1
the msg is note_on channel=9 note=74 velocity=100 time=10
the msg is note_off channel=9 note=74 velocity=100 time=1
the msg is note_on channel=9 note=74 velocity=100 time=4
the msg is note_off channel=9 note=74 velocity=100 time=1
the msg is note_on channel=9 note=71 velocity=100 time=4
the msg is note_off channel=9 note=71 velocity=100 time=1
the msg is note_on channel=9 note=74 velocity=100 time=10
the msg is note_off channel=9 note=74 velocity=100 time=1
the msg is note_on channel=9 note=74 velocity=100 time=4
the msg is note_off channel=9 note=74 velocity=100 time=1
the msg is note_on channel=9 note=71 velocity=100 time=4
the msg is note_off channel=9 note=71 velocity=100 time=1
the msg is note_on channel=9 note=71 velocity=100 time=4
the msg is note_off channel=9 note=71 velocity=100 time=1
the msg is note_on channel=9 note=69 velocity=100 time=4
the msg is note_off channel=9 note=69 velocity=100 time=1
the msg is note_on channel=9 note=72 velocity=100 time=55
the msg is note_off channel=9 note=72 velocity=100 time=1
the msg is note_on channel=9 note=72 velocity=100 time=10
the msg is note_off channel=9 note=72 velocity=100 time=1
the msg is note_on channel=9 note=72 velocity=100 time=4
the msg is note_off channel=9 note=72 velocity=100 time=1
the msg is note_on channel=9 note=72 velocity=100 time=4
the msg is note_off channel=9 note=72 velocity=100 time=1
the msg is note_on channel=9 note=72 velocity=100 time=4
the msg is note_off channel=9 note=72 velocity=100 time=1
the msg is note_on channel=9 note=76 velocity=100 time=4
the msg is note_off channel=9 note=76 velocity=100 time=1
the msg is note_on channel=9 note=79 velocity=100 time=10
the msg is note_off channel=9 note=79 velocity=100 time=1
the msg is note_on channel=9 note=76 velocity=100 time=10
the msg is note_off channel=9 note=76 velocity=100 time=1
the msg is note_on channel=9 note=79 velocity=100 time=10
the msg is note_off channel=9 note=79 velocity=100 time=1
the msg is note_on channel=9 note=79 velocity=100 time=4
the msg is note_off channel=9 note=79 velocity=100 time=1
the msg is note_on channel=9 note=76 velocity=100 time=4
the msg is note_off channel=9 note=76 velocity=100 time=1
the msg is note_on channel=9 note=74 velocity=100 time=4
the msg is note_off channel=9 note=74 velocity=100 time=1
the msg is note_on channel=9 note=72 velocity=100 time=4
the msg is note_off channel=9 note=72 velocity=100 time=1
the msg is note_on channel=9 note=74 velocity=100 time=10
the msg is note_off channel=9 note=74 velocity=100 time=1
the msg is note_on channel=9 note=74 velocity=100 time=10
the msg is note_off channel=9 note=74 velocity=100 time=1
the msg is note_on channel=9 note=74 velocity=100 time=10
the msg is note_off channel=9 note=74 velocity=100 time=1
the msg is note_on channel=9 note=76 velocity=100 time=10
the msg is note_off channel=9 note=76 velocity=100 time=1
the msg is note_on channel=9 note=79 velocity=100 time=10
the msg is note_off channel=9 note=79 velocity=100 time=1
the msg is note_on channel=9 note=79 velocity=100 time=6
the msg is note_off channel=9 note=79 velocity=100 time=1
the msg is note_on channel=9 note=76 velocity=100 time=3
the msg is note_off channel=9 note=76 velocity=100 time=1
the msg is note_on channel=9 note=74 velocity=100 time=6
the msg is note_off channel=9 note=74 velocity=100 time=1
the msg is note_on channel=9 note=72 velocity=100 time=3
the msg is note_off channel=9 note=72 velocity=100 time=1
the msg is note_on channel=9 note=74 velocity=100 time=10
the msg is note_off channel=9 note=74 velocity=100 time=1
the msg is note_on channel=9 note=76 velocity=100 time=10
the msg is note_off channel=9 note=76 velocity=100 time=1
the msg is note_on channel=9 note=72 velocity=100 time=4
the msg is note_off channel=9 note=72 velocity=100 time=1
the msg is note_on channel=9 note=74 velocity=100 time=4
the msg is note_off channel=9 note=74 velocity=100 time=1
the msg is note_on channel=9 note=74 velocity=100 time=10
the msg is note_off channel=9 note=74 velocity=100 time=1
the msg is note_on channel=9 note=74 velocity=100 time=10
the msg is note_off channel=9 note=74 velocity=100 time=1
the msg is note_on channel=9 note=74 velocity=100 time=4
the msg is note_off channel=9 note=74 velocity=100 time=1
the msg is note_on channel=9 note=71 velocity=100 time=4
the msg is note_off channel=9 note=71 velocity=100 time=1
the msg is note_on channel=9 note=74 velocity=100 time=10
the msg is note_off channel=9 note=74 velocity=100 time=1
the msg is note_on channel=9 note=74 velocity=100 time=10
the msg is note_off channel=9 note=74 velocity=100 time=1
the msg is note_on channel=9 note=72 velocity=100 time=3
the msg is note_off channel=9 note=72 velocity=100 time=1
the msg is note_on channel=9 note=74 velocity=100 time=10
the msg is note_off channel=9 note=74 velocity=100 time=1
the msg is note_on channel=9 note=74 velocity=100 time=10
the msg is note_off channel=9 note=74 velocity=100 time=1
the msg is note_on channel=9 note=74 velocity=100 time=4
the msg is note_off channel=9 note=74 velocity=100 time=1
the msg is note_on channel=9 note=71 velocity=100 time=4
the msg is note_off channel=9 note=71 velocity=100 time=1
the msg is note_on channel=9 note=74 velocity=100 time=4
the msg is note_off channel=9 note=74 velocity=100 time=1
the msg is note_on channel=9 note=76 velocity=100 time=10
the msg is note_off channel=9 note=76 velocity=100 time=1
the msg is note_on channel=9 note=79 velocity=100 time=10
the msg is note_off channel=9 note=79 velocity=100 time=1
the msg is note_on channel=9 note=72 velocity=100 time=3
the msg is note_off channel=9 note=72 velocity=100 time=1
the msg is note_on channel=9 note=72 velocity=100 time=6
the msg is note_off channel=9 note=72 velocity=100 time=1
the msg is note_on channel=9 note=72 velocity=100 time=3
the msg is note_off channel=9 note=72 velocity=100 time=1
the msg is note_on channel=9 note=72 velocity=100 time=10
the msg is note_off channel=9 note=72 velocity=100 time=1
the msg is note_on channel=9 note=72 velocity=100 time=4
the msg is note_off channel=9 note=72 velocity=100 time=1
the msg is note_on channel=9 note=72 velocity=100 time=4
the msg is note_off channel=9 note=72 velocity=100 time=1
the msg is <meta message end_of_track time=0>
the msg is <meta message track_name name='outTest85_512_1.0.mid' time=0>
the msg is note_on channel=9 note=69 velocity=100 time=1
the msg is note_off channel=9 note=69 velocity=100 time=1
the msg is note_on channel=9 note=72 velocity=100 time=75
the msg is note_off channel=9 note=72 velocity=100 time=1
the msg is note_on channel=9 note=72 velocity=100 time=4
the msg is note_off channel=9 note=72 velocity=100 time=1
the msg is note_on channel=9 note=72 velocity=100 time=4
the msg is note_off channel=9 note=72 velocity=100 time=1
the msg is note_on channel=9 note=72 velocity=100 time=10
the msg is note_off channel=9 note=72 velocity=100 time=1
the msg is note_on channel=9 note=74 velocity=100 time=10
the msg is note_off channel=9 note=74 velocity=100 time=1
the msg is note_on channel=9 note=74 velocity=100 time=4
the msg is note_off channel=9 note=74 velocity=100 time=1
the msg is note_on channel=9 note=71 velocity=100 time=4
the msg is note_off channel=9 note=71 velocity=100 time=1
the msg is note_on channel=9 note=74 velocity=100 time=10
the msg is note_off channel=9 note=74 velocity=100 time=1
the msg is note_on channel=9 note=74 velocity=100 time=4
the msg is note_off channel=9 note=74 velocity=100 time=1
the msg is note_on channel=9 note=71 velocity=100 time=4
the msg is note_off channel=9 note=71 velocity=100 time=1
the msg is note_on channel=9 note=71 velocity=100 time=4
the msg is note_off channel=9 note=71 velocity=100 time=1
the msg is note_on channel=9 note=69 velocity=100 time=4
the msg is note_off channel=9 note=69 velocity=100 time=1
the msg is note_on channel=9 note=72 velocity=100 time=55
the msg is note_off channel=9 note=72 velocity=100 time=1
the msg is note_on channel=9 note=72 velocity=100 time=10
the msg is note_off channel=9 note=72 velocity=100 time=1
the msg is note_on channel=9 note=72 velocity=100 time=4
the msg is note_off channel=9 note=72 velocity=100 time=1
the msg is note_on channel=9 note=72 velocity=100 time=4
the msg is note_off channel=9 note=72 velocity=100 time=1
the msg is note_on channel=9 note=72 velocity=100 time=4
the msg is note_off channel=9 note=72 velocity=100 time=1
the msg is note_on channel=9 note=76 velocity=100 time=4
the msg is note_off channel=9 note=76 velocity=100 time=1
the msg is note_on channel=9 note=79 velocity=100 time=10
the msg is note_off channel=9 note=79 velocity=100 time=1
the msg is note_on channel=9 note=76 velocity=100 time=10
the msg is note_off channel=9 note=76 velocity=100 time=1
the msg is note_on channel=9 note=79 velocity=100 time=10
the msg is note_off channel=9 note=79 velocity=100 time=1
the msg is note_on channel=9 note=79 velocity=100 time=4
the msg is note_off channel=9 note=79 velocity=100 time=1
the msg is note_on channel=9 note=76 velocity=100 time=4
the msg is note_off channel=9 note=76 velocity=100 time=1
the msg is note_on channel=9 note=74 velocity=100 time=4
the msg is note_off channel=9 note=74 velocity=100 time=1
the msg is note_on channel=9 note=72 velocity=100 time=4
the msg is note_off channel=9 note=72 velocity=100 time=1
the msg is note_on channel=9 note=74 velocity=100 time=10
the msg is note_off channel=9 note=74 velocity=100 time=1
the msg is note_on channel=9 note=74 velocity=100 time=10
the msg is note_off channel=9 note=74 velocity=100 time=1
the msg is note_on channel=9 note=74 velocity=100 time=10
the msg is note_off channel=9 note=74 velocity=100 time=1
the msg is note_on channel=9 note=76 velocity=100 time=10
the msg is note_off channel=9 note=76 velocity=100 time=1
the msg is note_on channel=9 note=79 velocity=100 time=10
the msg is note_off channel=9 note=79 velocity=100 time=1
the msg is note_on channel=9 note=79 velocity=100 time=6
the msg is note_off channel=9 note=79 velocity=100 time=1
the msg is note_on channel=9 note=76 velocity=100 time=3
the msg is note_off channel=9 note=76 velocity=100 time=1
the msg is note_on channel=9 note=74 velocity=100 time=6
the msg is note_off channel=9 note=74 velocity=100 time=1
the msg is note_on channel=9 note=72 velocity=100 time=3
the msg is note_off channel=9 note=72 velocity=100 time=1
the msg is note_on channel=9 note=74 velocity=100 time=10
the msg is note_off channel=9 note=74 velocity=100 time=1
the msg is note_on channel=9 note=76 velocity=100 time=10
the msg is note_off channel=9 note=76 velocity=100 time=1
the msg is note_on channel=9 note=72 velocity=100 time=4
the msg is note_off channel=9 note=72 velocity=100 time=1
the msg is note_on channel=9 note=74 velocity=100 time=4
the msg is note_off channel=9 note=74 velocity=100 time=1
the msg is note_on channel=9 note=74 velocity=100 time=10
the msg is note_off channel=9 note=74 velocity=100 time=1
the msg is note_on channel=9 note=74 velocity=100 time=10
the msg is note_off channel=9 note=74 velocity=100 time=1
the msg is note_on channel=9 note=74 velocity=100 time=4
the msg is note_off channel=9 note=74 velocity=100 time=1
the msg is note_on channel=9 note=71 velocity=100 time=4
the msg is note_off channel=9 note=71 velocity=100 time=1
the msg is note_on channel=9 note=74 velocity=100 time=10
the msg is note_off channel=9 note=74 velocity=100 time=1
the msg is note_on channel=9 note=74 velocity=100 time=10
the msg is note_off channel=9 note=74 velocity=100 time=1
the msg is note_on channel=9 note=72 velocity=100 time=3
the msg is note_off channel=9 note=72 velocity=100 time=1
the msg is note_on channel=9 note=74 velocity=100 time=10
the msg is note_off channel=9 note=74 velocity=100 time=1
the msg is note_on channel=9 note=74 velocity=100 time=10
the msg is note_off channel=9 note=74 velocity=100 time=1
the msg is note_on channel=9 note=74 velocity=100 time=4
the msg is note_off channel=9 note=74 velocity=100 time=1
the msg is note_on channel=9 note=71 velocity=100 time=4
the msg is note_off channel=9 note=71 velocity=100 time=1
the msg is note_on channel=9 note=74 velocity=100 time=4
the msg is note_off channel=9 note=74 velocity=100 time=1
the msg is note_on channel=9 note=76 velocity=100 time=10
the msg is note_off channel=9 note=76 velocity=100 time=1
the msg is note_on channel=9 note=79 velocity=100 time=10
the msg is note_off channel=9 note=79 velocity=100 time=1
the msg is note_on channel=9 note=72 velocity=100 time=3
the msg is note_off channel=9 note=72 velocity=100 time=1
the msg is note_on channel=9 note=72 velocity=100 time=6
the msg is note_off channel=9 note=72 velocity=100 time=1
the msg is note_on channel=9 note=72 velocity=100 time=3
the msg is note_off channel=9 note=72 velocity=100 time=1
the msg is note_on channel=9 note=72 velocity=100 time=10
the msg is note_off channel=9 note=72 velocity=100 time=1
the msg is note_on channel=9 note=72 velocity=100 time=4
the msg is note_off channel=9 note=72 velocity=100 time=1
the msg is note_on channel=9 note=72 velocity=100 time=4
the msg is note_off channel=9 note=72 velocity=100 time=1
the msg is <meta message end_of_track time=0>
the msg is <meta message track_name name='outTest85_512_1.0.mid' time=0>
the msg is note_on channel=9 note=69 velocity=100 time=1
the msg is note_off channel=9 note=69 velocity=100 time=1
the msg is note_on channel=9 note=72 velocity=100 time=75
the msg is note_off channel=9 note=72 velocity=100 time=1
the msg is note_on channel=9 note=72 velocity=100 time=4
the msg is note_off channel=9 note=72 velocity=100 time=1
the msg is note_on channel=9 note=72 velocity=100 time=4
the msg is note_off channel=9 note=72 velocity=100 time=1
the msg is note_on channel=9 note=72 velocity=100 time=10
the msg is note_off channel=9 note=72 velocity=100 time=1
the msg is note_on channel=9 note=74 velocity=100 time=10
the msg is note_off channel=9 note=74 velocity=100 time=1
the msg is note_on channel=9 note=74 velocity=100 time=4
the msg is note_off channel=9 note=74 velocity=100 time=1
the msg is note_on channel=9 note=71 velocity=100 time=4
the msg is note_off channel=9 note=71 velocity=100 time=1
the msg is note_on channel=9 note=74 velocity=100 time=10
the msg is note_off channel=9 note=74 velocity=100 time=1
the msg is note_on channel=9 note=74 velocity=100 time=4
the msg is note_off channel=9 note=74 velocity=100 time=1
the msg is note_on channel=9 note=71 velocity=100 time=4
the msg is note_off channel=9 note=71 velocity=100 time=1
the msg is note_on channel=9 note=71 velocity=100 time=4
the msg is note_off channel=9 note=71 velocity=100 time=1
the msg is note_on channel=9 note=69 velocity=100 time=4
the msg is note_off channel=9 note=69 velocity=100 time=1
the msg is note_on channel=9 note=72 velocity=100 time=55
the msg is note_off channel=9 note=72 velocity=100 time=1
the msg is note_on channel=9 note=72 velocity=100 time=10
the msg is note_off channel=9 note=72 velocity=100 time=1
the msg is note_on channel=9 note=72 velocity=100 time=4
the msg is note_off channel=9 note=72 velocity=100 time=1
the msg is note_on channel=9 note=72 velocity=100 time=4
the msg is note_off channel=9 note=72 velocity=100 time=1
the msg is note_on channel=9 note=72 velocity=100 time=4
the msg is note_off channel=9 note=72 velocity=100 time=1
the msg is note_on channel=9 note=76 velocity=100 time=4
the msg is note_off channel=9 note=76 velocity=100 time=1
the msg is note_on channel=9 note=79 velocity=100 time=10
the msg is note_off channel=9 note=79 velocity=100 time=1
the msg is note_on channel=9 note=76 velocity=100 time=10
the msg is note_off channel=9 note=76 velocity=100 time=1
the msg is note_on channel=9 note=79 velocity=100 time=10
the msg is note_off channel=9 note=79 velocity=100 time=1
the msg is note_on channel=9 note=79 velocity=100 time=4
the msg is note_off channel=9 note=79 velocity=100 time=1
the msg is note_on channel=9 note=76 velocity=100 time=4
the msg is note_off channel=9 note=76 velocity=100 time=1
the msg is note_on channel=9 note=74 velocity=100 time=4
the msg is note_off channel=9 note=74 velocity=100 time=1
the msg is note_on channel=9 note=72 velocity=100 time=4
the msg is note_off channel=9 note=72 velocity=100 time=1
the msg is note_on channel=9 note=74 velocity=100 time=10
the msg is note_off channel=9 note=74 velocity=100 time=1
the msg is note_on channel=9 note=74 velocity=100 time=10
the msg is note_off channel=9 note=74 velocity=100 time=1
the msg is note_on channel=9 note=74 velocity=100 time=10
the msg is note_off channel=9 note=74 velocity=100 time=1
the msg is note_on channel=9 note=76 velocity=100 time=10
the msg is note_off channel=9 note=76 velocity=100 time=1
the msg is note_on channel=9 note=79 velocity=100 time=10
the msg is note_off channel=9 note=79 velocity=100 time=1
the msg is note_on channel=9 note=79 velocity=100 time=6
the msg is note_off channel=9 note=79 velocity=100 time=1
the msg is note_on channel=9 note=76 velocity=100 time=3
the msg is note_off channel=9 note=76 velocity=100 time=1
the msg is note_on channel=9 note=74 velocity=100 time=6
the msg is note_off channel=9 note=74 velocity=100 time=1
the msg is note_on channel=9 note=72 velocity=100 time=3
the msg is note_off channel=9 note=72 velocity=100 time=1
the msg is note_on channel=9 note=74 velocity=100 time=10
the msg is note_off channel=9 note=74 velocity=100 time=1
the msg is note_on channel=9 note=76 velocity=100 time=10
the msg is note_off channel=9 note=76 velocity=100 time=1
the msg is note_on channel=9 note=72 velocity=100 time=4
the msg is note_off channel=9 note=72 velocity=100 time=1
the msg is note_on channel=9 note=74 velocity=100 time=4
the msg is note_off channel=9 note=74 velocity=100 time=1
the msg is note_on channel=9 note=74 velocity=100 time=10
the msg is note_off channel=9 note=74 velocity=100 time=1
the msg is note_on channel=9 note=74 velocity=100 time=10
the msg is note_off channel=9 note=74 velocity=100 time=1
the msg is note_on channel=9 note=74 velocity=100 time=4
the msg is note_off channel=9 note=74 velocity=100 time=1
the msg is note_on channel=9 note=71 velocity=100 time=4
the msg is note_off channel=9 note=71 velocity=100 time=1
the msg is note_on channel=9 note=74 velocity=100 time=10
the msg is note_off channel=9 note=74 velocity=100 time=1
the msg is note_on channel=9 note=74 velocity=100 time=10
the msg is note_off channel=9 note=74 velocity=100 time=1
the msg is note_on channel=9 note=72 velocity=100 time=3
the msg is note_off channel=9 note=72 velocity=100 time=1
the msg is note_on channel=9 note=74 velocity=100 time=10
the msg is note_off channel=9 note=74 velocity=100 time=1
the msg is note_on channel=9 note=74 velocity=100 time=10
the msg is note_off channel=9 note=74 velocity=100 time=1
the msg is note_on channel=9 note=74 velocity=100 time=4
the msg is note_off channel=9 note=74 velocity=100 time=1
the msg is note_on channel=9 note=71 velocity=100 time=4
the msg is note_off channel=9 note=71 velocity=100 time=1
the msg is note_on channel=9 note=74 velocity=100 time=4
the msg is note_off channel=9 note=74 velocity=100 time=1
the msg is note_on channel=9 note=76 velocity=100 time=10
the msg is note_off channel=9 note=76 velocity=100 time=1
the msg is note_on channel=9 note=79 velocity=100 time=10
the msg is note_off channel=9 note=79 velocity=100 time=1
the msg is note_on channel=9 note=72 velocity=100 time=3
the msg is note_off channel=9 note=72 velocity=100 time=1
the msg is note_on channel=9 note=72 velocity=100 time=6
the msg is note_off channel=9 note=72 velocity=100 time=1
the msg is note_on channel=9 note=72 velocity=100 time=3
the msg is note_off channel=9 note=72 velocity=100 time=1
the msg is note_on channel=9 note=72 velocity=100 time=10
the msg is note_off channel=9 note=72 velocity=100 time=1
the msg is note_on channel=9 note=72 velocity=100 time=4
the msg is note_off channel=9 note=72 velocity=100 time=1
the msg is note_on channel=9 note=72 velocity=100 time=4
the msg is note_off channel=9 note=72 velocity=100 time=1
the msg is <meta message end_of_track time=0>
the msg is <meta message track_name name='outTest85_512_1.0.mid' time=0>
the msg is note_on channel=9 note=69 velocity=100 time=1
the msg is note_off channel=9 note=69 velocity=100 time=1
the msg is note_on channel=9 note=72 velocity=100 time=75
the msg is note_off channel=9 note=72 velocity=100 time=1
the msg is note_on channel=9 note=72 velocity=100 time=4
the msg is note_off channel=9 note=72 velocity=100 time=1
the msg is note_on channel=9 note=72 velocity=100 time=4
the msg is note_off channel=9 note=72 velocity=100 time=1
the msg is note_on channel=9 note=72 velocity=100 time=10
the msg is note_off channel=9 note=72 velocity=100 time=1
the msg is note_on channel=9 note=74 velocity=100 time=10
the msg is note_off channel=9 note=74 velocity=100 time=1
the msg is note_on channel=9 note=74 velocity=100 time=4
the msg is note_off channel=9 note=74 velocity=100 time=1
the msg is note_on channel=9 note=71 velocity=100 time=4
the msg is note_off channel=9 note=71 velocity=100 time=1
the msg is note_on channel=9 note=74 velocity=100 time=10
the msg is note_off channel=9 note=74 velocity=100 time=1
the msg is note_on channel=9 note=74 velocity=100 time=4
the msg is note_off channel=9 note=74 velocity=100 time=1
the msg is note_on channel=9 note=71 velocity=100 time=4
the msg is note_off channel=9 note=71 velocity=100 time=1
the msg is note_on channel=9 note=71 velocity=100 time=4
the msg is note_off channel=9 note=71 velocity=100 time=1
the msg is note_on channel=9 note=69 velocity=100 time=4
the msg is note_off channel=9 note=69 velocity=100 time=1
the msg is note_on channel=9 note=72 velocity=100 time=55
the msg is note_off channel=9 note=72 velocity=100 time=1
the msg is note_on channel=9 note=72 velocity=100 time=10
the msg is note_off channel=9 note=72 velocity=100 time=1
the msg is note_on channel=9 note=72 velocity=100 time=4
the msg is note_off channel=9 note=72 velocity=100 time=1
the msg is note_on channel=9 note=72 velocity=100 time=4
the msg is note_off channel=9 note=72 velocity=100 time=1
the msg is note_on channel=9 note=72 velocity=100 time=4
the msg is note_off channel=9 note=72 velocity=100 time=1
the msg is note_on channel=9 note=76 velocity=100 time=4
the msg is note_off channel=9 note=76 velocity=100 time=1
the msg is note_on channel=9 note=79 velocity=100 time=10
the msg is note_off channel=9 note=79 velocity=100 time=1
the msg is note_on channel=9 note=76 velocity=100 time=10
the msg is note_off channel=9 note=76 velocity=100 time=1
the msg is note_on channel=9 note=79 velocity=100 time=10
the msg is note_off channel=9 note=79 velocity=100 time=1
the msg is note_on channel=9 note=79 velocity=100 time=4
the msg is note_off channel=9 note=79 velocity=100 time=1
the msg is note_on channel=9 note=76 velocity=100 time=4
the msg is note_off channel=9 note=76 velocity=100 time=1
the msg is note_on channel=9 note=74 velocity=100 time=4
the msg is note_off channel=9 note=74 velocity=100 time=1
the msg is note_on channel=9 note=72 velocity=100 time=4
the msg is note_off channel=9 note=72 velocity=100 time=1
the msg is note_on channel=9 note=74 velocity=100 time=10
the msg is note_off channel=9 note=74 velocity=100 time=1
the msg is note_on channel=9 note=74 velocity=100 time=10
the msg is note_off channel=9 note=74 velocity=100 time=1
the msg is note_on channel=9 note=74 velocity=100 time=10
the msg is note_off channel=9 note=74 velocity=100 time=1
the msg is note_on channel=9 note=76 velocity=100 time=10
the msg is note_off channel=9 note=76 velocity=100 time=1
the msg is note_on channel=9 note=79 velocity=100 time=10
the msg is note_off channel=9 note=79 velocity=100 time=1
the msg is note_on channel=9 note=79 velocity=100 time=6
the msg is note_off channel=9 note=79 velocity=100 time=1
the msg is note_on channel=9 note=76 velocity=100 time=3
the msg is note_off channel=9 note=76 velocity=100 time=1
the msg is note_on channel=9 note=74 velocity=100 time=6
the msg is note_off channel=9 note=74 velocity=100 time=1
the msg is note_on channel=9 note=72 velocity=100 time=3
the msg is note_off channel=9 note=72 velocity=100 time=1
the msg is note_on channel=9 note=74 velocity=100 time=10
the msg is note_off channel=9 note=74 velocity=100 time=1
the msg is note_on channel=9 note=76 velocity=100 time=10
the msg is note_off channel=9 note=76 velocity=100 time=1
the msg is note_on channel=9 note=72 velocity=100 time=4
the msg is note_off channel=9 note=72 velocity=100 time=1
the msg is note_on channel=9 note=74 velocity=100 time=4
the msg is note_off channel=9 note=74 velocity=100 time=1
the msg is note_on channel=9 note=74 velocity=100 time=10
the msg is note_off channel=9 note=74 velocity=100 time=1
the msg is note_on channel=9 note=74 velocity=100 time=10
the msg is note_off channel=9 note=74 velocity=100 time=1
the msg is note_on channel=9 note=74 velocity=100 time=4
the msg is note_off channel=9 note=74 velocity=100 time=1
the msg is note_on channel=9 note=71 velocity=100 time=4
the msg is note_off channel=9 note=71 velocity=100 time=1
the msg is note_on channel=9 note=74 velocity=100 time=10
the msg is note_off channel=9 note=74 velocity=100 time=1
the msg is note_on channel=9 note=74 velocity=100 time=10
the msg is note_off channel=9 note=74 velocity=100 time=1
the msg is note_on channel=9 note=72 velocity=100 time=3
the msg is note_off channel=9 note=72 velocity=100 time=1
the msg is note_on channel=9 note=74 velocity=100 time=10
the msg is note_off channel=9 note=74 velocity=100 time=1
the msg is note_on channel=9 note=74 velocity=100 time=10
the msg is note_off channel=9 note=74 velocity=100 time=1
the msg is note_on channel=9 note=74 velocity=100 time=4
the msg is note_off channel=9 note=74 velocity=100 time=1
the msg is note_on channel=9 note=71 velocity=100 time=4
the msg is note_off channel=9 note=71 velocity=100 time=1
the msg is note_on channel=9 note=74 velocity=100 time=4
the msg is note_off channel=9 note=74 velocity=100 time=1
the msg is note_on channel=9 note=76 velocity=100 time=10
the msg is note_off channel=9 note=76 velocity=100 time=1
the msg is note_on channel=9 note=79 velocity=100 time=10
the msg is note_off channel=9 note=79 velocity=100 time=1
the msg is note_on channel=9 note=72 velocity=100 time=3
the msg is note_off channel=9 note=72 velocity=100 time=1
the msg is note_on channel=9 note=72 velocity=100 time=6
the msg is note_off channel=9 note=72 velocity=100 time=1
the msg is note_on channel=9 note=72 velocity=100 time=3
the msg is note_off channel=9 note=72 velocity=100 time=1
the msg is note_on channel=9 note=72 velocity=100 time=10
the msg is note_off channel=9 note=72 velocity=100 time=1
the msg is note_on channel=9 note=72 velocity=100 time=4
the msg is note_off channel=9 note=72 velocity=100 time=1
the msg is note_on channel=9 note=72 velocity=100 time=4
the msg is note_off channel=9 note=72 velocity=100 time=1
the msg is <meta message end_of_track time=0>
the msg is <meta message track_name name='outTest85_512_1.0.mid' time=0>
the msg is note_on channel=9 note=69 velocity=100 time=1
the msg is note_off channel=9 note=69 velocity=100 time=1
the msg is note_on channel=9 note=72 velocity=100 time=75
the msg is note_off channel=9 note=72 velocity=100 time=1
the msg is note_on channel=9 note=72 velocity=100 time=4
the msg is note_off channel=9 note=72 velocity=100 time=1
the msg is note_on channel=9 note=72 velocity=100 time=4
the msg is note_off channel=9 note=72 velocity=100 time=1
the msg is note_on channel=9 note=72 velocity=100 time=10
the msg is note_off channel=9 note=72 velocity=100 time=1
the msg is note_on channel=9 note=74 velocity=100 time=10
the msg is note_off channel=9 note=74 velocity=100 time=1
the msg is note_on channel=9 note=74 velocity=100 time=4
the msg is note_off channel=9 note=74 velocity=100 time=1
the msg is note_on channel=9 note=71 velocity=100 time=4
the msg is note_off channel=9 note=71 velocity=100 time=1
the msg is note_on channel=9 note=74 velocity=100 time=10
the msg is note_off channel=9 note=74 velocity=100 time=1
the msg is note_on channel=9 note=74 velocity=100 time=4
the msg is note_off channel=9 note=74 velocity=100 time=1
the msg is note_on channel=9 note=71 velocity=100 time=4
the msg is note_off channel=9 note=71 velocity=100 time=1
the msg is note_on channel=9 note=71 velocity=100 time=4
the msg is note_off channel=9 note=71 velocity=100 time=1
the msg is note_on channel=9 note=69 velocity=100 time=4
the msg is note_off channel=9 note=69 velocity=100 time=1
the msg is note_on channel=9 note=72 velocity=100 time=55
the msg is note_off channel=9 note=72 velocity=100 time=1
the msg is note_on channel=9 note=72 velocity=100 time=10
the msg is note_off channel=9 note=72 velocity=100 time=1
the msg is note_on channel=9 note=72 velocity=100 time=4
the msg is note_off channel=9 note=72 velocity=100 time=1
the msg is note_on channel=9 note=72 velocity=100 time=4
the msg is note_off channel=9 note=72 velocity=100 time=1
the msg is note_on channel=9 note=72 velocity=100 time=4
the msg is note_off channel=9 note=72 velocity=100 time=1
the msg is note_on channel=9 note=76 velocity=100 time=4
the msg is note_off channel=9 note=76 velocity=100 time=1
the msg is note_on channel=9 note=79 velocity=100 time=10
the msg is note_off channel=9 note=79 velocity=100 time=1
the msg is note_on channel=9 note=76 velocity=100 time=10
the msg is note_off channel=9 note=76 velocity=100 time=1
the msg is note_on channel=9 note=79 velocity=100 time=10
the msg is note_off channel=9 note=79 velocity=100 time=1
the msg is note_on channel=9 note=79 velocity=100 time=4
the msg is note_off channel=9 note=79 velocity=100 time=1
the msg is note_on channel=9 note=76 velocity=100 time=4
the msg is note_off channel=9 note=76 velocity=100 time=1
the msg is note_on channel=9 note=74 velocity=100 time=4
the msg is note_off channel=9 note=74 velocity=100 time=1
the msg is note_on channel=9 note=72 velocity=100 time=4
the msg is note_off channel=9 note=72 velocity=100 time=1
the msg is note_on channel=9 note=74 velocity=100 time=10
the msg is note_off channel=9 note=74 velocity=100 time=1
the msg is note_on channel=9 note=74 velocity=100 time=10
the msg is note_off channel=9 note=74 velocity=100 time=1
the msg is note_on channel=9 note=74 velocity=100 time=10
the msg is note_off channel=9 note=74 velocity=100 time=1
the msg is note_on channel=9 note=76 velocity=100 time=10
the msg is note_off channel=9 note=76 velocity=100 time=1
the msg is note_on channel=9 note=79 velocity=100 time=10
the msg is note_off channel=9 note=79 velocity=100 time=1
the msg is note_on channel=9 note=79 velocity=100 time=6
the msg is note_off channel=9 note=79 velocity=100 time=1
the msg is note_on channel=9 note=76 velocity=100 time=3
the msg is note_off channel=9 note=76 velocity=100 time=1
the msg is note_on channel=9 note=74 velocity=100 time=6
the msg is note_off channel=9 note=74 velocity=100 time=1
the msg is note_on channel=9 note=72 velocity=100 time=3
the msg is note_off channel=9 note=72 velocity=100 time=1
the msg is note_on channel=9 note=74 velocity=100 time=10
the msg is note_off channel=9 note=74 velocity=100 time=1
the msg is note_on channel=9 note=76 velocity=100 time=10
the msg is note_off channel=9 note=76 velocity=100 time=1
the msg is note_on channel=9 note=72 velocity=100 time=4
the msg is note_off channel=9 note=72 velocity=100 time=1
the msg is note_on channel=9 note=74 velocity=100 time=4
the msg is note_off channel=9 note=74 velocity=100 time=1
the msg is note_on channel=9 note=74 velocity=100 time=10
the msg is note_off channel=9 note=74 velocity=100 time=1
the msg is note_on channel=9 note=74 velocity=100 time=10
the msg is note_off channel=9 note=74 velocity=100 time=1
the msg is note_on channel=9 note=74 velocity=100 time=4
the msg is note_off channel=9 note=74 velocity=100 time=1
the msg is note_on channel=9 note=71 velocity=100 time=4
the msg is note_off channel=9 note=71 velocity=100 time=1
the msg is note_on channel=9 note=74 velocity=100 time=10
the msg is note_off channel=9 note=74 velocity=100 time=1
the msg is note_on channel=9 note=74 velocity=100 time=10
the msg is note_off channel=9 note=74 velocity=100 time=1
the msg is note_on channel=9 note=72 velocity=100 time=3
the msg is note_off channel=9 note=72 velocity=100 time=1
the msg is note_on channel=9 note=74 velocity=100 time=10
the msg is note_off channel=9 note=74 velocity=100 time=1
the msg is note_on channel=9 note=74 velocity=100 time=10
the msg is note_off channel=9 note=74 velocity=100 time=1
the msg is note_on channel=9 note=74 velocity=100 time=4
the msg is note_off channel=9 note=74 velocity=100 time=1
the msg is note_on channel=9 note=71 velocity=100 time=4
the msg is note_off channel=9 note=71 velocity=100 time=1
the msg is note_on channel=9 note=74 velocity=100 time=4
the msg is note_off channel=9 note=74 velocity=100 time=1
the msg is note_on channel=9 note=76 velocity=100 time=10
the msg is note_off channel=9 note=76 velocity=100 time=1
the msg is note_on channel=9 note=79 velocity=100 time=10
the msg is note_off channel=9 note=79 velocity=100 time=1
the msg is note_on channel=9 note=72 velocity=100 time=3
the msg is note_off channel=9 note=72 velocity=100 time=1
the msg is note_on channel=9 note=72 velocity=100 time=6
the msg is note_off channel=9 note=72 velocity=100 time=1
the msg is note_on channel=9 note=72 velocity=100 time=3
the msg is note_off channel=9 note=72 velocity=100 time=1
the msg is note_on channel=9 note=72 velocity=100 time=10
the msg is note_off channel=9 note=72 velocity=100 time=1
the msg is note_on channel=9 note=72 velocity=100 time=4
the msg is note_off channel=9 note=72 velocity=100 time=1
the msg is note_on channel=9 note=72 velocity=100 time=4
the msg is note_off channel=9 note=72 velocity=100 time=1
the msg is <meta message end_of_track time=0>
the msg is <meta message track_name name='outTest85_512_1.0.mid' time=0>
the msg is note_on channel=9 note=69 velocity=100 time=1
the msg is note_off channel=9 note=69 velocity=100 time=1
the msg is note_on channel=9 note=72 velocity=100 time=75
the msg is note_off channel=9 note=72 velocity=100 time=1
the msg is note_on channel=9 note=72 velocity=100 time=4
the msg is note_off channel=9 note=72 velocity=100 time=1
the msg is note_on channel=9 note=72 velocity=100 time=4
the msg is note_off channel=9 note=72 velocity=100 time=1
the msg is note_on channel=9 note=72 velocity=100 time=10
the msg is note_off channel=9 note=72 velocity=100 time=1
the msg is note_on channel=9 note=74 velocity=100 time=10
the msg is note_off channel=9 note=74 velocity=100 time=1
the msg is note_on channel=9 note=74 velocity=100 time=4
the msg is note_off channel=9 note=74 velocity=100 time=1
the msg is note_on channel=9 note=71 velocity=100 time=4
the msg is note_off channel=9 note=71 velocity=100 time=1
the msg is note_on channel=9 note=74 velocity=100 time=10
the msg is note_off channel=9 note=74 velocity=100 time=1
the msg is note_on channel=9 note=74 velocity=100 time=4
the msg is note_off channel=9 note=74 velocity=100 time=1
the msg is note_on channel=9 note=71 velocity=100 time=4
the msg is note_off channel=9 note=71 velocity=100 time=1
the msg is note_on channel=9 note=71 velocity=100 time=4
the msg is note_off channel=9 note=71 velocity=100 time=1
the msg is note_on channel=9 note=69 velocity=100 time=4
the msg is note_off channel=9 note=69 velocity=100 time=1
the msg is note_on channel=9 note=72 velocity=100 time=55
the msg is note_off channel=9 note=72 velocity=100 time=1
the msg is note_on channel=9 note=72 velocity=100 time=10
the msg is note_off channel=9 note=72 velocity=100 time=1
the msg is note_on channel=9 note=72 velocity=100 time=4
the msg is note_off channel=9 note=72 velocity=100 time=1
the msg is note_on channel=9 note=72 velocity=100 time=4
the msg is note_off channel=9 note=72 velocity=100 time=1
the msg is note_on channel=9 note=72 velocity=100 time=4
the msg is note_off channel=9 note=72 velocity=100 time=1
the msg is note_on channel=9 note=76 velocity=100 time=4
the msg is note_off channel=9 note=76 velocity=100 time=1
the msg is note_on channel=9 note=79 velocity=100 time=10
the msg is note_off channel=9 note=79 velocity=100 time=1
the msg is note_on channel=9 note=76 velocity=100 time=10
the msg is note_off channel=9 note=76 velocity=100 time=1
the msg is note_on channel=9 note=79 velocity=100 time=10
the msg is note_off channel=9 note=79 velocity=100 time=1
the msg is note_on channel=9 note=79 velocity=100 time=4
the msg is note_off channel=9 note=79 velocity=100 time=1
the msg is note_on channel=9 note=76 velocity=100 time=4
the msg is note_off channel=9 note=76 velocity=100 time=1
the msg is note_on channel=9 note=74 velocity=100 time=4
the msg is note_off channel=9 note=74 velocity=100 time=1
the msg is note_on channel=9 note=72 velocity=100 time=4
the msg is note_off channel=9 note=72 velocity=100 time=1
the msg is note_on channel=9 note=74 velocity=100 time=10
the msg is note_off channel=9 note=74 velocity=100 time=1
the msg is note_on channel=9 note=74 velocity=100 time=10
the msg is note_off channel=9 note=74 velocity=100 time=1
the msg is note_on channel=9 note=74 velocity=100 time=10
the msg is note_off channel=9 note=74 velocity=100 time=1
the msg is note_on channel=9 note=76 velocity=100 time=10
the msg is note_off channel=9 note=76 velocity=100 time=1
the msg is note_on channel=9 note=79 velocity=100 time=10
the msg is note_off channel=9 note=79 velocity=100 time=1
the msg is note_on channel=9 note=79 velocity=100 time=6
the msg is note_off channel=9 note=79 velocity=100 time=1
the msg is note_on channel=9 note=76 velocity=100 time=3
the msg is note_off channel=9 note=76 velocity=100 time=1
the msg is note_on channel=9 note=74 velocity=100 time=6
the msg is note_off channel=9 note=74 velocity=100 time=1
the msg is note_on channel=9 note=72 velocity=100 time=3
the msg is note_off channel=9 note=72 velocity=100 time=1
the msg is note_on channel=9 note=74 velocity=100 time=10
the msg is note_off channel=9 note=74 velocity=100 time=1
the msg is note_on channel=9 note=76 velocity=100 time=10
the msg is note_off channel=9 note=76 velocity=100 time=1
the msg is note_on channel=9 note=72 velocity=100 time=4
the msg is note_off channel=9 note=72 velocity=100 time=1
the msg is note_on channel=9 note=74 velocity=100 time=4
the msg is note_off channel=9 note=74 velocity=100 time=1
the msg is note_on channel=9 note=74 velocity=100 time=10
the msg is note_off channel=9 note=74 velocity=100 time=1
the msg is note_on channel=9 note=74 velocity=100 time=10
the msg is note_off channel=9 note=74 velocity=100 time=1
the msg is note_on channel=9 note=74 velocity=100 time=4
the msg is note_off channel=9 note=74 velocity=100 time=1
the msg is note_on channel=9 note=71 velocity=100 time=4
the msg is note_off channel=9 note=71 velocity=100 time=1
the msg is note_on channel=9 note=74 velocity=100 time=10
the msg is note_off channel=9 note=74 velocity=100 time=1
the msg is note_on channel=9 note=74 velocity=100 time=10
the msg is note_off channel=9 note=74 velocity=100 time=1
the msg is note_on channel=9 note=72 velocity=100 time=3
the msg is note_off channel=9 note=72 velocity=100 time=1
the msg is note_on channel=9 note=74 velocity=100 time=10
the msg is note_off channel=9 note=74 velocity=100 time=1
the msg is note_on channel=9 note=74 velocity=100 time=10
the msg is note_off channel=9 note=74 velocity=100 time=1
the msg is note_on channel=9 note=74 velocity=100 time=4
the msg is note_off channel=9 note=74 velocity=100 time=1
the msg is note_on channel=9 note=71 velocity=100 time=4
the msg is note_off channel=9 note=71 velocity=100 time=1
the msg is note_on channel=9 note=74 velocity=100 time=4
the msg is note_off channel=9 note=74 velocity=100 time=1
the msg is note_on channel=9 note=76 velocity=100 time=10
the msg is note_off channel=9 note=76 velocity=100 time=1
the msg is note_on channel=9 note=79 velocity=100 time=10
the msg is note_off channel=9 note=79 velocity=100 time=1
the msg is note_on channel=9 note=72 velocity=100 time=3
the msg is note_off channel=9 note=72 velocity=100 time=1
the msg is note_on channel=9 note=72 velocity=100 time=6
the msg is note_off channel=9 note=72 velocity=100 time=1
the msg is note_on channel=9 note=72 velocity=100 time=3
the msg is note_off channel=9 note=72 velocity=100 time=1
the msg is note_on channel=9 note=72 velocity=100 time=10
the msg is note_off channel=9 note=72 velocity=100 time=1
the msg is note_on channel=9 note=72 velocity=100 time=4
the msg is note_off channel=9 note=72 velocity=100 time=1
the msg is note_on channel=9 note=72 velocity=100 time=4
the msg is note_off channel=9 note=72 velocity=100 time=1
the msg is <meta message end_of_track time=0>
the msg is <meta message track_name name='outTest85_512_1.0.mid' time=0>
the msg is note_on channel=9 note=69 velocity=100 time=1
the msg is note_off channel=9 note=69 velocity=100 time=1
the msg is note_on channel=9 note=72 velocity=100 time=75
the msg is note_off channel=9 note=72 velocity=100 time=1
the msg is note_on channel=9 note=72 velocity=100 time=4
the msg is note_off channel=9 note=72 velocity=100 time=1
the msg is note_on channel=9 note=72 velocity=100 time=4
the msg is note_off channel=9 note=72 velocity=100 time=1
the msg is note_on channel=9 note=72 velocity=100 time=10
the msg is note_off channel=9 note=72 velocity=100 time=1
the msg is note_on channel=9 note=74 velocity=100 time=10
the msg is note_off channel=9 note=74 velocity=100 time=1
the msg is note_on channel=9 note=74 velocity=100 time=4
the msg is note_off channel=9 note=74 velocity=100 time=1
the msg is note_on channel=9 note=71 velocity=100 time=4
the msg is note_off channel=9 note=71 velocity=100 time=1
the msg is note_on channel=9 note=74 velocity=100 time=10
the msg is note_off channel=9 note=74 velocity=100 time=1
the msg is note_on channel=9 note=74 velocity=100 time=4
the msg is note_off channel=9 note=74 velocity=100 time=1
the msg is note_on channel=9 note=71 velocity=100 time=4
the msg is note_off channel=9 note=71 velocity=100 time=1
the msg is note_on channel=9 note=71 velocity=100 time=4
the msg is note_off channel=9 note=71 velocity=100 time=1
the msg is note_on channel=9 note=69 velocity=100 time=4
the msg is note_off channel=9 note=69 velocity=100 time=1
the msg is note_on channel=9 note=72 velocity=100 time=55
the msg is note_off channel=9 note=72 velocity=100 time=1
the msg is note_on channel=9 note=72 velocity=100 time=10
the msg is note_off channel=9 note=72 velocity=100 time=1
the msg is note_on channel=9 note=72 velocity=100 time=4
the msg is note_off channel=9 note=72 velocity=100 time=1
the msg is note_on channel=9 note=72 velocity=100 time=4
the msg is note_off channel=9 note=72 velocity=100 time=1
the msg is note_on channel=9 note=72 velocity=100 time=4
the msg is note_off channel=9 note=72 velocity=100 time=1
the msg is note_on channel=9 note=76 velocity=100 time=4
the msg is note_off channel=9 note=76 velocity=100 time=1
the msg is note_on channel=9 note=79 velocity=100 time=10
the msg is note_off channel=9 note=79 velocity=100 time=1
the msg is note_on channel=9 note=76 velocity=100 time=10
the msg is note_off channel=9 note=76 velocity=100 time=1
the msg is note_on channel=9 note=79 velocity=100 time=10
the msg is note_off channel=9 note=79 velocity=100 time=1
the msg is note_on channel=9 note=79 velocity=100 time=4
the msg is note_off channel=9 note=79 velocity=100 time=1
the msg is note_on channel=9 note=76 velocity=100 time=4
the msg is note_off channel=9 note=76 velocity=100 time=1
the msg is note_on channel=9 note=74 velocity=100 time=4
the msg is note_off channel=9 note=74 velocity=100 time=1
the msg is note_on channel=9 note=72 velocity=100 time=4
the msg is note_off channel=9 note=72 velocity=100 time=1
the msg is note_on channel=9 note=74 velocity=100 time=10
the msg is note_off channel=9 note=74 velocity=100 time=1
the msg is note_on channel=9 note=74 velocity=100 time=10
the msg is note_off channel=9 note=74 velocity=100 time=1
the msg is note_on channel=9 note=74 velocity=100 time=10
the msg is note_off channel=9 note=74 velocity=100 time=1
the msg is note_on channel=9 note=76 velocity=100 time=10
the msg is note_off channel=9 note=76 velocity=100 time=1
the msg is note_on channel=9 note=79 velocity=100 time=10
the msg is note_off channel=9 note=79 velocity=100 time=1
the msg is note_on channel=9 note=79 velocity=100 time=6
the msg is note_off channel=9 note=79 velocity=100 time=1
the msg is note_on channel=9 note=76 velocity=100 time=3
the msg is note_off channel=9 note=76 velocity=100 time=1
the msg is note_on channel=9 note=74 velocity=100 time=6
the msg is note_off channel=9 note=74 velocity=100 time=1
the msg is note_on channel=9 note=72 velocity=100 time=3
the msg is note_off channel=9 note=72 velocity=100 time=1
the msg is note_on channel=9 note=74 velocity=100 time=10
the msg is note_off channel=9 note=74 velocity=100 time=1
the msg is note_on channel=9 note=76 velocity=100 time=10
the msg is note_off channel=9 note=76 velocity=100 time=1
the msg is note_on channel=9 note=72 velocity=100 time=4
the msg is note_off channel=9 note=72 velocity=100 time=1
the msg is note_on channel=9 note=74 velocity=100 time=4
the msg is note_off channel=9 note=74 velocity=100 time=1
the msg is note_on channel=9 note=74 velocity=100 time=10
the msg is note_off channel=9 note=74 velocity=100 time=1
the msg is note_on channel=9 note=74 velocity=100 time=10
the msg is note_off channel=9 note=74 velocity=100 time=1
the msg is note_on channel=9 note=74 velocity=100 time=4
the msg is note_off channel=9 note=74 velocity=100 time=1
the msg is note_on channel=9 note=71 velocity=100 time=4
the msg is note_off channel=9 note=71 velocity=100 time=1
the msg is note_on channel=9 note=74 velocity=100 time=10
the msg is note_off channel=9 note=74 velocity=100 time=1
the msg is note_on channel=9 note=74 velocity=100 time=10
the msg is note_off channel=9 note=74 velocity=100 time=1
the msg is note_on channel=9 note=72 velocity=100 time=3
the msg is note_off channel=9 note=72 velocity=100 time=1
the msg is note_on channel=9 note=74 velocity=100 time=10
the msg is note_off channel=9 note=74 velocity=100 time=1
the msg is note_on channel=9 note=74 velocity=100 time=10
the msg is note_off channel=9 note=74 velocity=100 time=1
the msg is note_on channel=9 note=74 velocity=100 time=4
the msg is note_off channel=9 note=74 velocity=100 time=1
the msg is note_on channel=9 note=71 velocity=100 time=4
the msg is note_off channel=9 note=71 velocity=100 time=1
the msg is note_on channel=9 note=74 velocity=100 time=4
the msg is note_off channel=9 note=74 velocity=100 time=1
the msg is note_on channel=9 note=76 velocity=100 time=10
the msg is note_off channel=9 note=76 velocity=100 time=1
the msg is note_on channel=9 note=79 velocity=100 time=10
the msg is note_off channel=9 note=79 velocity=100 time=1
the msg is note_on channel=9 note=72 velocity=100 time=3
the msg is note_off channel=9 note=72 velocity=100 time=1
the msg is note_on channel=9 note=72 velocity=100 time=6
the msg is note_off channel=9 note=72 velocity=100 time=1
the msg is note_on channel=9 note=72 velocity=100 time=3
the msg is note_off channel=9 note=72 velocity=100 time=1
the msg is note_on channel=9 note=72 velocity=100 time=10
the msg is note_off channel=9 note=72 velocity=100 time=1
the msg is note_on channel=9 note=72 velocity=100 time=4
the msg is note_off channel=9 note=72 velocity=100 time=1
the msg is note_on channel=9 note=72 velocity=100 time=4
the msg is note_off channel=9 note=72 velocity=100 time=1
the msg is <meta message end_of_track time=0>
the msg is <meta message track_name name='outTest85_512_1.0.mid' time=0>
the msg is note_on channel=9 note=69 velocity=100 time=1
the msg is note_off channel=9 note=69 velocity=100 time=1
the msg is note_on channel=9 note=72 velocity=100 time=75
the msg is note_off channel=9 note=72 velocity=100 time=1
the msg is note_on channel=9 note=72 velocity=100 time=4
the msg is note_off channel=9 note=72 velocity=100 time=1
the msg is note_on channel=9 note=72 velocity=100 time=4
the msg is note_off channel=9 note=72 velocity=100 time=1
the msg is note_on channel=9 note=72 velocity=100 time=10
the msg is note_off channel=9 note=72 velocity=100 time=1
the msg is note_on channel=9 note=74 velocity=100 time=10
the msg is note_off channel=9 note=74 velocity=100 time=1
the msg is note_on channel=9 note=74 velocity=100 time=4
the msg is note_off channel=9 note=74 velocity=100 time=1
the msg is note_on channel=9 note=71 velocity=100 time=4
the msg is note_off channel=9 note=71 velocity=100 time=1
the msg is note_on channel=9 note=74 velocity=100 time=10
the msg is note_off channel=9 note=74 velocity=100 time=1
the msg is note_on channel=9 note=74 velocity=100 time=4
the msg is note_off channel=9 note=74 velocity=100 time=1
the msg is note_on channel=9 note=71 velocity=100 time=4
the msg is note_off channel=9 note=71 velocity=100 time=1
the msg is note_on channel=9 note=71 velocity=100 time=4
the msg is note_off channel=9 note=71 velocity=100 time=1
the msg is note_on channel=9 note=69 velocity=100 time=4
the msg is note_off channel=9 note=69 velocity=100 time=1
the msg is note_on channel=9 note=72 velocity=100 time=55
the msg is note_off channel=9 note=72 velocity=100 time=1
the msg is note_on channel=9 note=72 velocity=100 time=10
the msg is note_off channel=9 note=72 velocity=100 time=1
the msg is note_on channel=9 note=72 velocity=100 time=4
the msg is note_off channel=9 note=72 velocity=100 time=1
the msg is note_on channel=9 note=72 velocity=100 time=4
the msg is note_off channel=9 note=72 velocity=100 time=1
the msg is note_on channel=9 note=72 velocity=100 time=4
the msg is note_off channel=9 note=72 velocity=100 time=1
the msg is note_on channel=9 note=76 velocity=100 time=4
the msg is note_off channel=9 note=76 velocity=100 time=1
the msg is note_on channel=9 note=79 velocity=100 time=10
the msg is note_off channel=9 note=79 velocity=100 time=1
the msg is note_on channel=9 note=76 velocity=100 time=10
the msg is note_off channel=9 note=76 velocity=100 time=1
the msg is note_on channel=9 note=79 velocity=100 time=10
the msg is note_off channel=9 note=79 velocity=100 time=1
the msg is note_on channel=9 note=79 velocity=100 time=4
the msg is note_off channel=9 note=79 velocity=100 time=1
the msg is note_on channel=9 note=76 velocity=100 time=4
the msg is note_off channel=9 note=76 velocity=100 time=1
the msg is note_on channel=9 note=74 velocity=100 time=4
the msg is note_off channel=9 note=74 velocity=100 time=1
the msg is note_on channel=9 note=72 velocity=100 time=4
the msg is note_off channel=9 note=72 velocity=100 time=1
the msg is note_on channel=9 note=74 velocity=100 time=10
the msg is note_off channel=9 note=74 velocity=100 time=1
the msg is note_on channel=9 note=74 velocity=100 time=10
the msg is note_off channel=9 note=74 velocity=100 time=1
the msg is note_on channel=9 note=74 velocity=100 time=10
the msg is note_off channel=9 note=74 velocity=100 time=1
the msg is note_on channel=9 note=76 velocity=100 time=10
the msg is note_off channel=9 note=76 velocity=100 time=1
the msg is note_on channel=9 note=79 velocity=100 time=10
the msg is note_off channel=9 note=79 velocity=100 time=1
the msg is note_on channel=9 note=79 velocity=100 time=6
the msg is note_off channel=9 note=79 velocity=100 time=1
the msg is note_on channel=9 note=76 velocity=100 time=3
the msg is note_off channel=9 note=76 velocity=100 time=1
the msg is note_on channel=9 note=74 velocity=100 time=6
the msg is note_off channel=9 note=74 velocity=100 time=1
the msg is note_on channel=9 note=72 velocity=100 time=3
the msg is note_off channel=9 note=72 velocity=100 time=1
the msg is note_on channel=9 note=74 velocity=100 time=10
the msg is note_off channel=9 note=74 velocity=100 time=1
the msg is note_on channel=9 note=76 velocity=100 time=10
the msg is note_off channel=9 note=76 velocity=100 time=1
the msg is note_on channel=9 note=72 velocity=100 time=4
the msg is note_off channel=9 note=72 velocity=100 time=1
the msg is note_on channel=9 note=74 velocity=100 time=4
the msg is note_off channel=9 note=74 velocity=100 time=1
the msg is note_on channel=9 note=74 velocity=100 time=10
the msg is note_off channel=9 note=74 velocity=100 time=1
the msg is note_on channel=9 note=74 velocity=100 time=10
the msg is note_off channel=9 note=74 velocity=100 time=1
the msg is note_on channel=9 note=74 velocity=100 time=4
the msg is note_off channel=9 note=74 velocity=100 time=1
the msg is note_on channel=9 note=71 velocity=100 time=4
the msg is note_off channel=9 note=71 velocity=100 time=1
the msg is note_on channel=9 note=74 velocity=100 time=10
the msg is note_off channel=9 note=74 velocity=100 time=1
the msg is note_on channel=9 note=74 velocity=100 time=10
the msg is note_off channel=9 note=74 velocity=100 time=1
the msg is note_on channel=9 note=72 velocity=100 time=3
the msg is note_off channel=9 note=72 velocity=100 time=1
the msg is note_on channel=9 note=74 velocity=100 time=10
the msg is note_off channel=9 note=74 velocity=100 time=1
the msg is note_on channel=9 note=74 velocity=100 time=10
the msg is note_off channel=9 note=74 velocity=100 time=1
the msg is note_on channel=9 note=74 velocity=100 time=4
the msg is note_off channel=9 note=74 velocity=100 time=1
the msg is note_on channel=9 note=71 velocity=100 time=4
the msg is note_off channel=9 note=71 velocity=100 time=1
the msg is note_on channel=9 note=74 velocity=100 time=4
the msg is note_off channel=9 note=74 velocity=100 time=1
the msg is note_on channel=9 note=76 velocity=100 time=10
the msg is note_off channel=9 note=76 velocity=100 time=1
the msg is note_on channel=9 note=79 velocity=100 time=10
the msg is note_off channel=9 note=79 velocity=100 time=1
the msg is note_on channel=9 note=72 velocity=100 time=3
the msg is note_off channel=9 note=72 velocity=100 time=1
the msg is note_on channel=9 note=72 velocity=100 time=6
the msg is note_off channel=9 note=72 velocity=100 time=1
the msg is note_on channel=9 note=72 velocity=100 time=3
the msg is note_off channel=9 note=72 velocity=100 time=1
the msg is note_on channel=9 note=72 velocity=100 time=10
the msg is note_off channel=9 note=72 velocity=100 time=1
the msg is note_on channel=9 note=72 velocity=100 time=4
the msg is note_off channel=9 note=72 velocity=100 time=1
the msg is note_on channel=9 note=72 velocity=100 time=4
the msg is note_off channel=9 note=72 velocity=100 time=1
the msg is <meta message end_of_track time=0>
the msg is <meta message track_name name='outTest85_512_1.0.mid' time=0>
the msg is note_on channel=9 note=69 velocity=100 time=1
the msg is note_off channel=9 note=69 velocity=100 time=1
the msg is note_on channel=9 note=72 velocity=100 time=75
the msg is note_off channel=9 note=72 velocity=100 time=1
the msg is note_on channel=9 note=72 velocity=100 time=4
the msg is note_off channel=9 note=72 velocity=100 time=1
the msg is note_on channel=9 note=72 velocity=100 time=4
the msg is note_off channel=9 note=72 velocity=100 time=1
the msg is note_on channel=9 note=72 velocity=100 time=10
the msg is note_off channel=9 note=72 velocity=100 time=1
the msg is note_on channel=9 note=74 velocity=100 time=10
the msg is note_off channel=9 note=74 velocity=100 time=1
the msg is note_on channel=9 note=74 velocity=100 time=4
the msg is note_off channel=9 note=74 velocity=100 time=1
the msg is note_on channel=9 note=71 velocity=100 time=4
the msg is note_off channel=9 note=71 velocity=100 time=1
the msg is note_on channel=9 note=74 velocity=100 time=10
the msg is note_off channel=9 note=74 velocity=100 time=1
the msg is note_on channel=9 note=74 velocity=100 time=4
the msg is note_off channel=9 note=74 velocity=100 time=1
the msg is note_on channel=9 note=71 velocity=100 time=4
the msg is note_off channel=9 note=71 velocity=100 time=1
the msg is note_on channel=9 note=71 velocity=100 time=4
the msg is note_off channel=9 note=71 velocity=100 time=1
the msg is note_on channel=9 note=69 velocity=100 time=4
the msg is note_off channel=9 note=69 velocity=100 time=1
the msg is note_on channel=9 note=72 velocity=100 time=55
the msg is note_off channel=9 note=72 velocity=100 time=1
the msg is note_on channel=9 note=72 velocity=100 time=10
the msg is note_off channel=9 note=72 velocity=100 time=1
the msg is note_on channel=9 note=72 velocity=100 time=4
the msg is note_off channel=9 note=72 velocity=100 time=1
the msg is note_on channel=9 note=72 velocity=100 time=4
the msg is note_off channel=9 note=72 velocity=100 time=1
the msg is note_on channel=9 note=72 velocity=100 time=4
the msg is note_off channel=9 note=72 velocity=100 time=1
the msg is note_on channel=9 note=76 velocity=100 time=4
the msg is note_off channel=9 note=76 velocity=100 time=1
the msg is note_on channel=9 note=79 velocity=100 time=10
the msg is note_off channel=9 note=79 velocity=100 time=1
the msg is note_on channel=9 note=76 velocity=100 time=10
the msg is note_off channel=9 note=76 velocity=100 time=1
the msg is note_on channel=9 note=79 velocity=100 time=10
the msg is note_off channel=9 note=79 velocity=100 time=1
the msg is note_on channel=9 note=79 velocity=100 time=4
the msg is note_off channel=9 note=79 velocity=100 time=1
the msg is note_on channel=9 note=76 velocity=100 time=4
the msg is note_off channel=9 note=76 velocity=100 time=1
the msg is note_on channel=9 note=74 velocity=100 time=4
the msg is note_off channel=9 note=74 velocity=100 time=1
the msg is note_on channel=9 note=72 velocity=100 time=4
the msg is note_off channel=9 note=72 velocity=100 time=1
the msg is note_on channel=9 note=74 velocity=100 time=10
the msg is note_off channel=9 note=74 velocity=100 time=1
the msg is note_on channel=9 note=74 velocity=100 time=10
the msg is note_off channel=9 note=74 velocity=100 time=1
the msg is note_on channel=9 note=74 velocity=100 time=10
the msg is note_off channel=9 note=74 velocity=100 time=1
the msg is note_on channel=9 note=76 velocity=100 time=10
the msg is note_off channel=9 note=76 velocity=100 time=1
the msg is note_on channel=9 note=79 velocity=100 time=10
the msg is note_off channel=9 note=79 velocity=100 time=1
the msg is note_on channel=9 note=79 velocity=100 time=6
the msg is note_off channel=9 note=79 velocity=100 time=1
the msg is note_on channel=9 note=76 velocity=100 time=3
the msg is note_off channel=9 note=76 velocity=100 time=1
the msg is note_on channel=9 note=74 velocity=100 time=6
the msg is note_off channel=9 note=74 velocity=100 time=1
the msg is note_on channel=9 note=72 velocity=100 time=3
the msg is note_off channel=9 note=72 velocity=100 time=1
the msg is note_on channel=9 note=74 velocity=100 time=10
the msg is note_off channel=9 note=74 velocity=100 time=1
the msg is note_on channel=9 note=76 velocity=100 time=10
the msg is note_off channel=9 note=76 velocity=100 time=1
the msg is note_on channel=9 note=72 velocity=100 time=4
the msg is note_off channel=9 note=72 velocity=100 time=1
the msg is note_on channel=9 note=74 velocity=100 time=4
the msg is note_off channel=9 note=74 velocity=100 time=1
the msg is note_on channel=9 note=74 velocity=100 time=10
the msg is note_off channel=9 note=74 velocity=100 time=1
the msg is note_on channel=9 note=74 velocity=100 time=10
the msg is note_off channel=9 note=74 velocity=100 time=1
the msg is note_on channel=9 note=74 velocity=100 time=4
the msg is note_off channel=9 note=74 velocity=100 time=1
the msg is note_on channel=9 note=71 velocity=100 time=4
the msg is note_off channel=9 note=71 velocity=100 time=1
the msg is note_on channel=9 note=74 velocity=100 time=10
the msg is note_off channel=9 note=74 velocity=100 time=1
the msg is note_on channel=9 note=74 velocity=100 time=10
the msg is note_off channel=9 note=74 velocity=100 time=1
the msg is note_on channel=9 note=72 velocity=100 time=3
the msg is note_off channel=9 note=72 velocity=100 time=1
the msg is note_on channel=9 note=74 velocity=100 time=10
the msg is note_off channel=9 note=74 velocity=100 time=1
the msg is note_on channel=9 note=74 velocity=100 time=10
the msg is note_off channel=9 note=74 velocity=100 time=1
the msg is note_on channel=9 note=74 velocity=100 time=4
the msg is note_off channel=9 note=74 velocity=100 time=1
the msg is note_on channel=9 note=71 velocity=100 time=4
the msg is note_off channel=9 note=71 velocity=100 time=1
the msg is note_on channel=9 note=74 velocity=100 time=4
the msg is note_off channel=9 note=74 velocity=100 time=1
the msg is note_on channel=9 note=76 velocity=100 time=10
the msg is note_off channel=9 note=76 velocity=100 time=1
the msg is note_on channel=9 note=79 velocity=100 time=10
the msg is note_off channel=9 note=79 velocity=100 time=1
the msg is note_on channel=9 note=72 velocity=100 time=3
the msg is note_off channel=9 note=72 velocity=100 time=1
the msg is note_on channel=9 note=72 velocity=100 time=6
the msg is note_off channel=9 note=72 velocity=100 time=1
the msg is note_on channel=9 note=72 velocity=100 time=3
the msg is note_off channel=9 note=72 velocity=100 time=1
the msg is note_on channel=9 note=72 velocity=100 time=10
the msg is note_off channel=9 note=72 velocity=100 time=1
the msg is note_on channel=9 note=72 velocity=100 time=4
the msg is note_off channel=9 note=72 velocity=100 time=1
the msg is note_on channel=9 note=72 velocity=100 time=4
the msg is note_off channel=9 note=72 velocity=100 time=1
the msg is <meta message end_of_track time=0>
the msg is <meta message track_name name='outTest85_512_1.0.mid' time=0>
the msg is note_on channel=9 note=69 velocity=100 time=1
the msg is note_off channel=9 note=69 velocity=100 time=1
the msg is note_on channel=9 note=72 velocity=100 time=75
the msg is note_off channel=9 note=72 velocity=100 time=1
the msg is note_on channel=9 note=72 velocity=100 time=4
the msg is note_off channel=9 note=72 velocity=100 time=1
the msg is note_on channel=9 note=72 velocity=100 time=4
the msg is note_off channel=9 note=72 velocity=100 time=1
the msg is note_on channel=9 note=72 velocity=100 time=10
the msg is note_off channel=9 note=72 velocity=100 time=1
the msg is note_on channel=9 note=74 velocity=100 time=10
the msg is note_off channel=9 note=74 velocity=100 time=1
the msg is note_on channel=9 note=74 velocity=100 time=4
the msg is note_off channel=9 note=74 velocity=100 time=1
the msg is note_on channel=9 note=71 velocity=100 time=4
the msg is note_off channel=9 note=71 velocity=100 time=1
the msg is note_on channel=9 note=74 velocity=100 time=10
the msg is note_off channel=9 note=74 velocity=100 time=1
the msg is note_on channel=9 note=74 velocity=100 time=4
the msg is note_off channel=9 note=74 velocity=100 time=1
the msg is note_on channel=9 note=71 velocity=100 time=4
the msg is note_off channel=9 note=71 velocity=100 time=1
the msg is note_on channel=9 note=71 velocity=100 time=4
the msg is note_off channel=9 note=71 velocity=100 time=1
the msg is note_on channel=9 note=69 velocity=100 time=4
the msg is note_off channel=9 note=69 velocity=100 time=1
the msg is note_on channel=9 note=72 velocity=100 time=55
the msg is note_off channel=9 note=72 velocity=100 time=1
the msg is note_on channel=9 note=72 velocity=100 time=10
the msg is note_off channel=9 note=72 velocity=100 time=1
the msg is note_on channel=9 note=72 velocity=100 time=4
the msg is note_off channel=9 note=72 velocity=100 time=1
the msg is note_on channel=9 note=72 velocity=100 time=4
the msg is note_off channel=9 note=72 velocity=100 time=1
the msg is note_on channel=9 note=72 velocity=100 time=4
the msg is note_off channel=9 note=72 velocity=100 time=1
the msg is note_on channel=9 note=76 velocity=100 time=4
the msg is note_off channel=9 note=76 velocity=100 time=1
the msg is note_on channel=9 note=79 velocity=100 time=10
the msg is note_off channel=9 note=79 velocity=100 time=1
the msg is note_on channel=9 note=76 velocity=100 time=10
the msg is note_off channel=9 note=76 velocity=100 time=1
the msg is note_on channel=9 note=79 velocity=100 time=10
the msg is note_off channel=9 note=79 velocity=100 time=1
the msg is note_on channel=9 note=79 velocity=100 time=4
the msg is note_off channel=9 note=79 velocity=100 time=1
the msg is note_on channel=9 note=76 velocity=100 time=4
the msg is note_off channel=9 note=76 velocity=100 time=1
the msg is note_on channel=9 note=74 velocity=100 time=4
the msg is note_off channel=9 note=74 velocity=100 time=1
the msg is note_on channel=9 note=72 velocity=100 time=4
the msg is note_off channel=9 note=72 velocity=100 time=1
the msg is note_on channel=9 note=74 velocity=100 time=10
the msg is note_off channel=9 note=74 velocity=100 time=1
the msg is note_on channel=9 note=74 velocity=100 time=10
the msg is note_off channel=9 note=74 velocity=100 time=1
the msg is note_on channel=9 note=74 velocity=100 time=10
the msg is note_off channel=9 note=74 velocity=100 time=1
the msg is note_on channel=9 note=76 velocity=100 time=10
the msg is note_off channel=9 note=76 velocity=100 time=1
the msg is note_on channel=9 note=79 velocity=100 time=10
the msg is note_off channel=9 note=79 velocity=100 time=1
the msg is note_on channel=9 note=79 velocity=100 time=6
the msg is note_off channel=9 note=79 velocity=100 time=1
the msg is note_on channel=9 note=76 velocity=100 time=3
the msg is note_off channel=9 note=76 velocity=100 time=1
the msg is note_on channel=9 note=74 velocity=100 time=6
the msg is note_off channel=9 note=74 velocity=100 time=1
the msg is note_on channel=9 note=72 velocity=100 time=3
the msg is note_off channel=9 note=72 velocity=100 time=1
the msg is note_on channel=9 note=74 velocity=100 time=10
the msg is note_off channel=9 note=74 velocity=100 time=1
the msg is note_on channel=9 note=76 velocity=100 time=10
the msg is note_off channel=9 note=76 velocity=100 time=1
the msg is note_on channel=9 note=72 velocity=100 time=4
the msg is note_off channel=9 note=72 velocity=100 time=1
the msg is note_on channel=9 note=74 velocity=100 time=4
the msg is note_off channel=9 note=74 velocity=100 time=1
the msg is note_on channel=9 note=74 velocity=100 time=10
the msg is note_off channel=9 note=74 velocity=100 time=1
the msg is note_on channel=9 note=74 velocity=100 time=10
the msg is note_off channel=9 note=74 velocity=100 time=1
the msg is note_on channel=9 note=74 velocity=100 time=4
the msg is note_off channel=9 note=74 velocity=100 time=1
the msg is note_on channel=9 note=71 velocity=100 time=4
the msg is note_off channel=9 note=71 velocity=100 time=1
the msg is note_on channel=9 note=74 velocity=100 time=10
the msg is note_off channel=9 note=74 velocity=100 time=1
the msg is note_on channel=9 note=74 velocity=100 time=10
the msg is note_off channel=9 note=74 velocity=100 time=1
the msg is note_on channel=9 note=72 velocity=100 time=3
the msg is note_off channel=9 note=72 velocity=100 time=1
the msg is note_on channel=9 note=74 velocity=100 time=10
the msg is note_off channel=9 note=74 velocity=100 time=1
the msg is note_on channel=9 note=74 velocity=100 time=10
the msg is note_off channel=9 note=74 velocity=100 time=1
the msg is note_on channel=9 note=74 velocity=100 time=4
the msg is note_off channel=9 note=74 velocity=100 time=1
the msg is note_on channel=9 note=71 velocity=100 time=4
the msg is note_off channel=9 note=71 velocity=100 time=1
the msg is note_on channel=9 note=74 velocity=100 time=4
the msg is note_off channel=9 note=74 velocity=100 time=1
the msg is note_on channel=9 note=76 velocity=100 time=10
the msg is note_off channel=9 note=76 velocity=100 time=1
the msg is note_on channel=9 note=79 velocity=100 time=10
the msg is note_off channel=9 note=79 velocity=100 time=1
the msg is note_on channel=9 note=72 velocity=100 time=3
the msg is note_off channel=9 note=72 velocity=100 time=1
the msg is note_on channel=9 note=72 velocity=100 time=6
the msg is note_off channel=9 note=72 velocity=100 time=1
the msg is note_on channel=9 note=72 velocity=100 time=3
the msg is note_off channel=9 note=72 velocity=100 time=1
the msg is note_on channel=9 note=72 velocity=100 time=10
the msg is note_off channel=9 note=72 velocity=100 time=1
the msg is note_on channel=9 note=72 velocity=100 time=4
the msg is note_off channel=9 note=72 velocity=100 time=1
the msg is note_on channel=9 note=72 velocity=100 time=4
the msg is note_off channel=9 note=72 velocity=100 time=1
the msg is <meta message end_of_track time=0>
the msg is <meta message track_name name='outTest85_512_1.0.mid' time=0>
the msg is note_on channel=9 note=69 velocity=100 time=1
the msg is note_off channel=9 note=69 velocity=100 time=1
the msg is note_on channel=9 note=72 velocity=100 time=75
the msg is note_off channel=9 note=72 velocity=100 time=1
the msg is note_on channel=9 note=72 velocity=100 time=4
the msg is note_off channel=9 note=72 velocity=100 time=1
the msg is note_on channel=9 note=72 velocity=100 time=4
the msg is note_off channel=9 note=72 velocity=100 time=1
the msg is note_on channel=9 note=72 velocity=100 time=10
the msg is note_off channel=9 note=72 velocity=100 time=1
the msg is note_on channel=9 note=74 velocity=100 time=10
the msg is note_off channel=9 note=74 velocity=100 time=1
the msg is note_on channel=9 note=74 velocity=100 time=4
the msg is note_off channel=9 note=74 velocity=100 time=1
the msg is note_on channel=9 note=71 velocity=100 time=4
the msg is note_off channel=9 note=71 velocity=100 time=1
the msg is note_on channel=9 note=74 velocity=100 time=10
the msg is note_off channel=9 note=74 velocity=100 time=1
the msg is note_on channel=9 note=74 velocity=100 time=4
the msg is note_off channel=9 note=74 velocity=100 time=1
the msg is note_on channel=9 note=71 velocity=100 time=4
the msg is note_off channel=9 note=71 velocity=100 time=1
the msg is note_on channel=9 note=71 velocity=100 time=4
the msg is note_off channel=9 note=71 velocity=100 time=1
the msg is note_on channel=9 note=69 velocity=100 time=4
the msg is note_off channel=9 note=69 velocity=100 time=1
the msg is note_on channel=9 note=72 velocity=100 time=55
the msg is note_off channel=9 note=72 velocity=100 time=1
the msg is note_on channel=9 note=72 velocity=100 time=10
the msg is note_off channel=9 note=72 velocity=100 time=1
the msg is note_on channel=9 note=72 velocity=100 time=4
the msg is note_off channel=9 note=72 velocity=100 time=1
the msg is note_on channel=9 note=72 velocity=100 time=4
the msg is note_off channel=9 note=72 velocity=100 time=1
the msg is note_on channel=9 note=72 velocity=100 time=4
the msg is note_off channel=9 note=72 velocity=100 time=1
the msg is note_on channel=9 note=76 velocity=100 time=4
the msg is note_off channel=9 note=76 velocity=100 time=1
the msg is note_on channel=9 note=79 velocity=100 time=10
the msg is note_off channel=9 note=79 velocity=100 time=1
the msg is note_on channel=9 note=76 velocity=100 time=10
the msg is note_off channel=9 note=76 velocity=100 time=1
the msg is note_on channel=9 note=79 velocity=100 time=10
the msg is note_off channel=9 note=79 velocity=100 time=1
the msg is note_on channel=9 note=79 velocity=100 time=4
the msg is note_off channel=9 note=79 velocity=100 time=1
the msg is note_on channel=9 note=76 velocity=100 time=4
the msg is note_off channel=9 note=76 velocity=100 time=1
the msg is note_on channel=9 note=74 velocity=100 time=4
the msg is note_off channel=9 note=74 velocity=100 time=1
the msg is note_on channel=9 note=72 velocity=100 time=4
the msg is note_off channel=9 note=72 velocity=100 time=1
the msg is note_on channel=9 note=74 velocity=100 time=10
the msg is note_off channel=9 note=74 velocity=100 time=1
the msg is note_on channel=9 note=74 velocity=100 time=10
the msg is note_off channel=9 note=74 velocity=100 time=1
the msg is note_on channel=9 note=74 velocity=100 time=10
the msg is note_off channel=9 note=74 velocity=100 time=1
the msg is note_on channel=9 note=76 velocity=100 time=10
the msg is note_off channel=9 note=76 velocity=100 time=1
the msg is note_on channel=9 note=79 velocity=100 time=10
the msg is note_off channel=9 note=79 velocity=100 time=1
the msg is note_on channel=9 note=79 velocity=100 time=6
the msg is note_off channel=9 note=79 velocity=100 time=1
the msg is note_on channel=9 note=76 velocity=100 time=3
the msg is note_off channel=9 note=76 velocity=100 time=1
the msg is note_on channel=9 note=74 velocity=100 time=6
the msg is note_off channel=9 note=74 velocity=100 time=1
the msg is note_on channel=9 note=72 velocity=100 time=3
the msg is note_off channel=9 note=72 velocity=100 time=1
the msg is note_on channel=9 note=74 velocity=100 time=10
the msg is note_off channel=9 note=74 velocity=100 time=1
the msg is note_on channel=9 note=76 velocity=100 time=10
the msg is note_off channel=9 note=76 velocity=100 time=1
the msg is note_on channel=9 note=72 velocity=100 time=4
the msg is note_off channel=9 note=72 velocity=100 time=1
the msg is note_on channel=9 note=74 velocity=100 time=4
the msg is note_off channel=9 note=74 velocity=100 time=1
the msg is note_on channel=9 note=74 velocity=100 time=10
the msg is note_off channel=9 note=74 velocity=100 time=1
the msg is note_on channel=9 note=74 velocity=100 time=10
the msg is note_off channel=9 note=74 velocity=100 time=1
the msg is note_on channel=9 note=74 velocity=100 time=4
the msg is note_off channel=9 note=74 velocity=100 time=1
the msg is note_on channel=9 note=71 velocity=100 time=4
the msg is note_off channel=9 note=71 velocity=100 time=1
the msg is note_on channel=9 note=74 velocity=100 time=10
the msg is note_off channel=9 note=74 velocity=100 time=1
the msg is note_on channel=9 note=74 velocity=100 time=10
the msg is note_off channel=9 note=74 velocity=100 time=1
the msg is note_on channel=9 note=72 velocity=100 time=3
the msg is note_off channel=9 note=72 velocity=100 time=1
the msg is note_on channel=9 note=74 velocity=100 time=10
the msg is note_off channel=9 note=74 velocity=100 time=1
the msg is note_on channel=9 note=74 velocity=100 time=10
the msg is note_off channel=9 note=74 velocity=100 time=1
the msg is note_on channel=9 note=74 velocity=100 time=4
the msg is note_off channel=9 note=74 velocity=100 time=1
the msg is note_on channel=9 note=71 velocity=100 time=4
the msg is note_off channel=9 note=71 velocity=100 time=1
the msg is note_on channel=9 note=74 velocity=100 time=4
the msg is note_off channel=9 note=74 velocity=100 time=1
the msg is note_on channel=9 note=76 velocity=100 time=10
the msg is note_off channel=9 note=76 velocity=100 time=1
the msg is note_on channel=9 note=79 velocity=100 time=10
the msg is note_off channel=9 note=79 velocity=100 time=1
the msg is note_on channel=9 note=72 velocity=100 time=3
the msg is note_off channel=9 note=72 velocity=100 time=1
the msg is note_on channel=9 note=72 velocity=100 time=6
the msg is note_off channel=9 note=72 velocity=100 time=1
the msg is note_on channel=9 note=72 velocity=100 time=3
the msg is note_off channel=9 note=72 velocity=100 time=1
the msg is note_on channel=9 note=72 velocity=100 time=10
the msg is note_off channel=9 note=72 velocity=100 time=1
the msg is note_on channel=9 note=72 velocity=100 time=4
the msg is note_off channel=9 note=72 velocity=100 time=1
the msg is note_on channel=9 note=72 velocity=100 time=4
the msg is note_off channel=9 note=72 velocity=100 time=1
the msg is <meta message end_of_track time=0>
the msg is <meta message track_name name='outTest85_512_1.0.mid' time=0>
the msg is note_on channel=9 note=69 velocity=100 time=1
the msg is note_off channel=9 note=69 velocity=100 time=1
the msg is note_on channel=9 note=72 velocity=100 time=75
the msg is note_off channel=9 note=72 velocity=100 time=1
the msg is note_on channel=9 note=72 velocity=100 time=4
the msg is note_off channel=9 note=72 velocity=100 time=1
the msg is note_on channel=9 note=72 velocity=100 time=4
the msg is note_off channel=9 note=72 velocity=100 time=1
the msg is note_on channel=9 note=72 velocity=100 time=10
the msg is note_off channel=9 note=72 velocity=100 time=1
the msg is note_on channel=9 note=74 velocity=100 time=10
the msg is note_off channel=9 note=74 velocity=100 time=1
the msg is note_on channel=9 note=74 velocity=100 time=4
the msg is note_off channel=9 note=74 velocity=100 time=1
the msg is note_on channel=9 note=71 velocity=100 time=4
the msg is note_off channel=9 note=71 velocity=100 time=1
the msg is note_on channel=9 note=74 velocity=100 time=10
the msg is note_off channel=9 note=74 velocity=100 time=1
the msg is note_on channel=9 note=74 velocity=100 time=4
the msg is note_off channel=9 note=74 velocity=100 time=1
the msg is note_on channel=9 note=71 velocity=100 time=4
the msg is note_off channel=9 note=71 velocity=100 time=1
the msg is note_on channel=9 note=71 velocity=100 time=4
the msg is note_off channel=9 note=71 velocity=100 time=1
the msg is note_on channel=9 note=69 velocity=100 time=4
the msg is note_off channel=9 note=69 velocity=100 time=1
the msg is note_on channel=9 note=72 velocity=100 time=55
the msg is note_off channel=9 note=72 velocity=100 time=1
the msg is note_on channel=9 note=72 velocity=100 time=10
the msg is note_off channel=9 note=72 velocity=100 time=1
the msg is note_on channel=9 note=72 velocity=100 time=4
the msg is note_off channel=9 note=72 velocity=100 time=1
the msg is note_on channel=9 note=72 velocity=100 time=4
the msg is note_off channel=9 note=72 velocity=100 time=1
the msg is note_on channel=9 note=72 velocity=100 time=4
the msg is note_off channel=9 note=72 velocity=100 time=1
the msg is note_on channel=9 note=76 velocity=100 time=4
the msg is note_off channel=9 note=76 velocity=100 time=1
the msg is note_on channel=9 note=79 velocity=100 time=10
the msg is note_off channel=9 note=79 velocity=100 time=1
the msg is note_on channel=9 note=76 velocity=100 time=10
the msg is note_off channel=9 note=76 velocity=100 time=1
the msg is note_on channel=9 note=79 velocity=100 time=10
the msg is note_off channel=9 note=79 velocity=100 time=1
the msg is note_on channel=9 note=79 velocity=100 time=4
the msg is note_off channel=9 note=79 velocity=100 time=1
the msg is note_on channel=9 note=76 velocity=100 time=4
the msg is note_off channel=9 note=76 velocity=100 time=1
the msg is note_on channel=9 note=74 velocity=100 time=4
the msg is note_off channel=9 note=74 velocity=100 time=1
the msg is note_on channel=9 note=72 velocity=100 time=4
the msg is note_off channel=9 note=72 velocity=100 time=1
the msg is note_on channel=9 note=74 velocity=100 time=10
the msg is note_off channel=9 note=74 velocity=100 time=1
the msg is note_on channel=9 note=74 velocity=100 time=10
the msg is note_off channel=9 note=74 velocity=100 time=1
the msg is note_on channel=9 note=74 velocity=100 time=10
the msg is note_off channel=9 note=74 velocity=100 time=1
the msg is note_on channel=9 note=76 velocity=100 time=10
the msg is note_off channel=9 note=76 velocity=100 time=1
the msg is note_on channel=9 note=79 velocity=100 time=10
the msg is note_off channel=9 note=79 velocity=100 time=1
the msg is note_on channel=9 note=79 velocity=100 time=6
the msg is note_off channel=9 note=79 velocity=100 time=1
the msg is note_on channel=9 note=76 velocity=100 time=3
the msg is note_off channel=9 note=76 velocity=100 time=1
the msg is note_on channel=9 note=74 velocity=100 time=6
the msg is note_off channel=9 note=74 velocity=100 time=1
the msg is note_on channel=9 note=72 velocity=100 time=3
the msg is note_off channel=9 note=72 velocity=100 time=1
the msg is note_on channel=9 note=74 velocity=100 time=10
the msg is note_off channel=9 note=74 velocity=100 time=1
the msg is note_on channel=9 note=76 velocity=100 time=10
the msg is note_off channel=9 note=76 velocity=100 time=1
the msg is note_on channel=9 note=72 velocity=100 time=4
the msg is note_off channel=9 note=72 velocity=100 time=1
the msg is note_on channel=9 note=74 velocity=100 time=4
the msg is note_off channel=9 note=74 velocity=100 time=1
the msg is note_on channel=9 note=74 velocity=100 time=10
the msg is note_off channel=9 note=74 velocity=100 time=1
the msg is note_on channel=9 note=74 velocity=100 time=10
the msg is note_off channel=9 note=74 velocity=100 time=1
the msg is note_on channel=9 note=74 velocity=100 time=4
the msg is note_off channel=9 note=74 velocity=100 time=1
the msg is note_on channel=9 note=71 velocity=100 time=4
the msg is note_off channel=9 note=71 velocity=100 time=1
the msg is note_on channel=9 note=74 velocity=100 time=10
the msg is note_off channel=9 note=74 velocity=100 time=1
the msg is note_on channel=9 note=74 velocity=100 time=10
the msg is note_off channel=9 note=74 velocity=100 time=1
the msg is note_on channel=9 note=72 velocity=100 time=3
the msg is note_off channel=9 note=72 velocity=100 time=1
the msg is note_on channel=9 note=74 velocity=100 time=10
the msg is note_off channel=9 note=74 velocity=100 time=1
the msg is note_on channel=9 note=74 velocity=100 time=10
the msg is note_off channel=9 note=74 velocity=100 time=1
the msg is note_on channel=9 note=74 velocity=100 time=4
the msg is note_off channel=9 note=74 velocity=100 time=1
the msg is note_on channel=9 note=71 velocity=100 time=4
the msg is note_off channel=9 note=71 velocity=100 time=1
the msg is note_on channel=9 note=74 velocity=100 time=4
the msg is note_off channel=9 note=74 velocity=100 time=1
the msg is note_on channel=9 note=76 velocity=100 time=10
the msg is note_off channel=9 note=76 velocity=100 time=1
the msg is note_on channel=9 note=79 velocity=100 time=10
the msg is note_off channel=9 note=79 velocity=100 time=1
the msg is note_on channel=9 note=72 velocity=100 time=3
the msg is note_off channel=9 note=72 velocity=100 time=1
the msg is note_on channel=9 note=72 velocity=100 time=6
the msg is note_off channel=9 note=72 velocity=100 time=1
the msg is note_on channel=9 note=72 velocity=100 time=3
the msg is note_off channel=9 note=72 velocity=100 time=1
the msg is note_on channel=9 note=72 velocity=100 time=10
the msg is note_off channel=9 note=72 velocity=100 time=1
the msg is note_on channel=9 note=72 velocity=100 time=4
the msg is note_off channel=9 note=72 velocity=100 time=1
the msg is note_on channel=9 note=72 velocity=100 time=4
the msg is note_off channel=9 note=72 velocity=100 time=1
the msg is <meta message end_of_track time=0>
the msg is <meta message track_name name='outTest85_512_1.0.mid' time=0>
the msg is note_on channel=9 note=69 velocity=100 time=1
the msg is note_off channel=9 note=69 velocity=100 time=1
the msg is note_on channel=9 note=72 velocity=100 time=75
the msg is note_off channel=9 note=72 velocity=100 time=1
the msg is note_on channel=9 note=72 velocity=100 time=4
the msg is note_off channel=9 note=72 velocity=100 time=1
the msg is note_on channel=9 note=72 velocity=100 time=4
the msg is note_off channel=9 note=72 velocity=100 time=1
the msg is note_on channel=9 note=72 velocity=100 time=10
the msg is note_off channel=9 note=72 velocity=100 time=1
the msg is note_on channel=9 note=74 velocity=100 time=10
the msg is note_off channel=9 note=74 velocity=100 time=1
the msg is note_on channel=9 note=74 velocity=100 time=4
the msg is note_off channel=9 note=74 velocity=100 time=1
the msg is note_on channel=9 note=71 velocity=100 time=4
the msg is note_off channel=9 note=71 velocity=100 time=1
the msg is note_on channel=9 note=74 velocity=100 time=10
the msg is note_off channel=9 note=74 velocity=100 time=1
the msg is note_on channel=9 note=74 velocity=100 time=4
the msg is note_off channel=9 note=74 velocity=100 time=1
the msg is note_on channel=9 note=71 velocity=100 time=4
the msg is note_off channel=9 note=71 velocity=100 time=1
the msg is note_on channel=9 note=71 velocity=100 time=4
the msg is note_off channel=9 note=71 velocity=100 time=1
the msg is note_on channel=9 note=69 velocity=100 time=4
the msg is note_off channel=9 note=69 velocity=100 time=1
the msg is note_on channel=9 note=72 velocity=100 time=55
the msg is note_off channel=9 note=72 velocity=100 time=1
the msg is note_on channel=9 note=72 velocity=100 time=10
the msg is note_off channel=9 note=72 velocity=100 time=1
the msg is note_on channel=9 note=72 velocity=100 time=4
the msg is note_off channel=9 note=72 velocity=100 time=1
the msg is note_on channel=9 note=72 velocity=100 time=4
the msg is note_off channel=9 note=72 velocity=100 time=1
the msg is note_on channel=9 note=72 velocity=100 time=4
the msg is note_off channel=9 note=72 velocity=100 time=1
the msg is note_on channel=9 note=76 velocity=100 time=4
the msg is note_off channel=9 note=76 velocity=100 time=1
the msg is note_on channel=9 note=79 velocity=100 time=10
the msg is note_off channel=9 note=79 velocity=100 time=1
the msg is note_on channel=9 note=76 velocity=100 time=10
the msg is note_off channel=9 note=76 velocity=100 time=1
the msg is note_on channel=9 note=79 velocity=100 time=10
the msg is note_off channel=9 note=79 velocity=100 time=1
the msg is note_on channel=9 note=79 velocity=100 time=4
the msg is note_off channel=9 note=79 velocity=100 time=1
the msg is note_on channel=9 note=76 velocity=100 time=4
the msg is note_off channel=9 note=76 velocity=100 time=1
the msg is note_on channel=9 note=74 velocity=100 time=4
the msg is note_off channel=9 note=74 velocity=100 time=1
the msg is note_on channel=9 note=72 velocity=100 time=4
the msg is note_off channel=9 note=72 velocity=100 time=1
the msg is note_on channel=9 note=74 velocity=100 time=10
the msg is note_off channel=9 note=74 velocity=100 time=1
the msg is note_on channel=9 note=74 velocity=100 time=10
the msg is note_off channel=9 note=74 velocity=100 time=1
the msg is note_on channel=9 note=74 velocity=100 time=10
the msg is note_off channel=9 note=74 velocity=100 time=1
the msg is note_on channel=9 note=76 velocity=100 time=10
the msg is note_off channel=9 note=76 velocity=100 time=1
the msg is note_on channel=9 note=79 velocity=100 time=10
the msg is note_off channel=9 note=79 velocity=100 time=1
the msg is note_on channel=9 note=79 velocity=100 time=6
the msg is note_off channel=9 note=79 velocity=100 time=1
the msg is note_on channel=9 note=76 velocity=100 time=3
the msg is note_off channel=9 note=76 velocity=100 time=1
the msg is note_on channel=9 note=74 velocity=100 time=6
the msg is note_off channel=9 note=74 velocity=100 time=1
the msg is note_on channel=9 note=72 velocity=100 time=3
the msg is note_off channel=9 note=72 velocity=100 time=1
the msg is note_on channel=9 note=74 velocity=100 time=10
the msg is note_off channel=9 note=74 velocity=100 time=1
the msg is note_on channel=9 note=76 velocity=100 time=10
the msg is note_off channel=9 note=76 velocity=100 time=1
the msg is note_on channel=9 note=72 velocity=100 time=4
the msg is note_off channel=9 note=72 velocity=100 time=1
the msg is note_on channel=9 note=74 velocity=100 time=4
the msg is note_off channel=9 note=74 velocity=100 time=1
the msg is note_on channel=9 note=74 velocity=100 time=10
the msg is note_off channel=9 note=74 velocity=100 time=1
the msg is note_on channel=9 note=74 velocity=100 time=10
the msg is note_off channel=9 note=74 velocity=100 time=1
the msg is note_on channel=9 note=74 velocity=100 time=4
the msg is note_off channel=9 note=74 velocity=100 time=1
the msg is note_on channel=9 note=71 velocity=100 time=4
the msg is note_off channel=9 note=71 velocity=100 time=1
the msg is note_on channel=9 note=74 velocity=100 time=10
the msg is note_off channel=9 note=74 velocity=100 time=1
the msg is note_on channel=9 note=74 velocity=100 time=10
the msg is note_off channel=9 note=74 velocity=100 time=1
the msg is note_on channel=9 note=72 velocity=100 time=3
the msg is note_off channel=9 note=72 velocity=100 time=1
the msg is note_on channel=9 note=74 velocity=100 time=10
the msg is note_off channel=9 note=74 velocity=100 time=1
the msg is note_on channel=9 note=74 velocity=100 time=10
the msg is note_off channel=9 note=74 velocity=100 time=1
the msg is note_on channel=9 note=74 velocity=100 time=4
the msg is note_off channel=9 note=74 velocity=100 time=1
the msg is note_on channel=9 note=71 velocity=100 time=4
the msg is note_off channel=9 note=71 velocity=100 time=1
the msg is note_on channel=9 note=74 velocity=100 time=4
the msg is note_off channel=9 note=74 velocity=100 time=1
the msg is note_on channel=9 note=76 velocity=100 time=10
the msg is note_off channel=9 note=76 velocity=100 time=1
the msg is note_on channel=9 note=79 velocity=100 time=10
the msg is note_off channel=9 note=79 velocity=100 time=1
the msg is note_on channel=9 note=72 velocity=100 time=3
the msg is note_off channel=9 note=72 velocity=100 time=1
the msg is note_on channel=9 note=72 velocity=100 time=6
the msg is note_off channel=9 note=72 velocity=100 time=1
the msg is note_on channel=9 note=72 velocity=100 time=3
the msg is note_off channel=9 note=72 velocity=100 time=1
the msg is note_on channel=9 note=72 velocity=100 time=10
the msg is note_off channel=9 note=72 velocity=100 time=1
the msg is note_on channel=9 note=72 velocity=100 time=4
the msg is note_off channel=9 note=72 velocity=100 time=1
the msg is note_on channel=9 note=72 velocity=100 time=4
the msg is note_off channel=9 note=72 velocity=100 time=1
the msg is <meta message end_of_track time=0>
the msg is <meta message track_name name='outTest85_512_1.0.mid' time=0>
the msg is note_on channel=9 note=69 velocity=100 time=1
the msg is note_off channel=9 note=69 velocity=100 time=1
the msg is note_on channel=9 note=72 velocity=100 time=75
the msg is note_off channel=9 note=72 velocity=100 time=1
the msg is note_on channel=9 note=72 velocity=100 time=4
the msg is note_off channel=9 note=72 velocity=100 time=1
the msg is note_on channel=9 note=72 velocity=100 time=4
the msg is note_off channel=9 note=72 velocity=100 time=1
the msg is note_on channel=9 note=72 velocity=100 time=10
the msg is note_off channel=9 note=72 velocity=100 time=1
the msg is note_on channel=9 note=74 velocity=100 time=10
the msg is note_off channel=9 note=74 velocity=100 time=1
the msg is note_on channel=9 note=74 velocity=100 time=4
the msg is note_off channel=9 note=74 velocity=100 time=1
the msg is note_on channel=9 note=71 velocity=100 time=4
the msg is note_off channel=9 note=71 velocity=100 time=1
the msg is note_on channel=9 note=74 velocity=100 time=10
the msg is note_off channel=9 note=74 velocity=100 time=1
the msg is note_on channel=9 note=74 velocity=100 time=4
the msg is note_off channel=9 note=74 velocity=100 time=1
the msg is note_on channel=9 note=71 velocity=100 time=4
the msg is note_off channel=9 note=71 velocity=100 time=1
the msg is note_on channel=9 note=71 velocity=100 time=4
the msg is note_off channel=9 note=71 velocity=100 time=1
the msg is note_on channel=9 note=69 velocity=100 time=4
the msg is note_off channel=9 note=69 velocity=100 time=1
the msg is note_on channel=9 note=72 velocity=100 time=55
the msg is note_off channel=9 note=72 velocity=100 time=1
the msg is note_on channel=9 note=72 velocity=100 time=10
the msg is note_off channel=9 note=72 velocity=100 time=1
the msg is note_on channel=9 note=72 velocity=100 time=4
the msg is note_off channel=9 note=72 velocity=100 time=1
the msg is note_on channel=9 note=72 velocity=100 time=4
the msg is note_off channel=9 note=72 velocity=100 time=1
the msg is note_on channel=9 note=72 velocity=100 time=4
the msg is note_off channel=9 note=72 velocity=100 time=1
the msg is note_on channel=9 note=76 velocity=100 time=4
the msg is note_off channel=9 note=76 velocity=100 time=1
the msg is note_on channel=9 note=79 velocity=100 time=10
the msg is note_off channel=9 note=79 velocity=100 time=1
the msg is note_on channel=9 note=76 velocity=100 time=10
the msg is note_off channel=9 note=76 velocity=100 time=1
the msg is note_on channel=9 note=79 velocity=100 time=10
the msg is note_off channel=9 note=79 velocity=100 time=1
the msg is note_on channel=9 note=79 velocity=100 time=4
the msg is note_off channel=9 note=79 velocity=100 time=1
the msg is note_on channel=9 note=76 velocity=100 time=4
the msg is note_off channel=9 note=76 velocity=100 time=1
the msg is note_on channel=9 note=74 velocity=100 time=4
the msg is note_off channel=9 note=74 velocity=100 time=1
the msg is note_on channel=9 note=72 velocity=100 time=4
the msg is note_off channel=9 note=72 velocity=100 time=1
the msg is note_on channel=9 note=74 velocity=100 time=10
the msg is note_off channel=9 note=74 velocity=100 time=1
the msg is note_on channel=9 note=74 velocity=100 time=10
the msg is note_off channel=9 note=74 velocity=100 time=1
the msg is note_on channel=9 note=74 velocity=100 time=10
the msg is note_off channel=9 note=74 velocity=100 time=1
the msg is note_on channel=9 note=76 velocity=100 time=10
the msg is note_off channel=9 note=76 velocity=100 time=1
the msg is note_on channel=9 note=79 velocity=100 time=10
the msg is note_off channel=9 note=79 velocity=100 time=1
the msg is note_on channel=9 note=79 velocity=100 time=6
the msg is note_off channel=9 note=79 velocity=100 time=1
the msg is note_on channel=9 note=76 velocity=100 time=3
the msg is note_off channel=9 note=76 velocity=100 time=1
the msg is note_on channel=9 note=74 velocity=100 time=6
the msg is note_off channel=9 note=74 velocity=100 time=1
the msg is note_on channel=9 note=72 velocity=100 time=3
the msg is note_off channel=9 note=72 velocity=100 time=1
the msg is note_on channel=9 note=74 velocity=100 time=10
the msg is note_off channel=9 note=74 velocity=100 time=1
the msg is note_on channel=9 note=76 velocity=100 time=10
the msg is note_off channel=9 note=76 velocity=100 time=1
the msg is note_on channel=9 note=72 velocity=100 time=4
the msg is note_off channel=9 note=72 velocity=100 time=1
the msg is note_on channel=9 note=74 velocity=100 time=4
the msg is note_off channel=9 note=74 velocity=100 time=1
the msg is note_on channel=9 note=74 velocity=100 time=10
the msg is note_off channel=9 note=74 velocity=100 time=1
the msg is note_on channel=9 note=74 velocity=100 time=10
the msg is note_off channel=9 note=74 velocity=100 time=1
the msg is note_on channel=9 note=74 velocity=100 time=4
the msg is note_off channel=9 note=74 velocity=100 time=1
the msg is note_on channel=9 note=71 velocity=100 time=4
the msg is note_off channel=9 note=71 velocity=100 time=1
the msg is note_on channel=9 note=74 velocity=100 time=10
the msg is note_off channel=9 note=74 velocity=100 time=1
the msg is note_on channel=9 note=74 velocity=100 time=10
the msg is note_off channel=9 note=74 velocity=100 time=1
the msg is note_on channel=9 note=72 velocity=100 time=3
the msg is note_off channel=9 note=72 velocity=100 time=1
the msg is note_on channel=9 note=74 velocity=100 time=10
the msg is note_off channel=9 note=74 velocity=100 time=1
the msg is note_on channel=9 note=74 velocity=100 time=10
the msg is note_off channel=9 note=74 velocity=100 time=1
the msg is note_on channel=9 note=74 velocity=100 time=4
the msg is note_off channel=9 note=74 velocity=100 time=1
the msg is note_on channel=9 note=71 velocity=100 time=4
the msg is note_off channel=9 note=71 velocity=100 time=1
the msg is note_on channel=9 note=74 velocity=100 time=4
the msg is note_off channel=9 note=74 velocity=100 time=1
the msg is note_on channel=9 note=76 velocity=100 time=10
the msg is note_off channel=9 note=76 velocity=100 time=1
the msg is note_on channel=9 note=79 velocity=100 time=10
the msg is note_off channel=9 note=79 velocity=100 time=1
the msg is note_on channel=9 note=72 velocity=100 time=3
the msg is note_off channel=9 note=72 velocity=100 time=1
the msg is note_on channel=9 note=72 velocity=100 time=6
the msg is note_off channel=9 note=72 velocity=100 time=1
the msg is note_on channel=9 note=72 velocity=100 time=3
the msg is note_off channel=9 note=72 velocity=100 time=1
the msg is note_on channel=9 note=72 velocity=100 time=10
the msg is note_off channel=9 note=72 velocity=100 time=1
the msg is note_on channel=9 note=72 velocity=100 time=4
the msg is note_off channel=9 note=72 velocity=100 time=1
the msg is note_on channel=9 note=72 velocity=100 time=4
the msg is note_off channel=9 note=72 velocity=100 time=1
the msg is <meta message end_of_track time=0>
the msg is <meta message track_name name='outTest85_512_1.0.mid' time=0>
the msg is note_on channel=9 note=69 velocity=100 time=1
the msg is note_off channel=9 note=69 velocity=100 time=1
the msg is note_on channel=9 note=72 velocity=100 time=75
the msg is note_off channel=9 note=72 velocity=100 time=1
the msg is note_on channel=9 note=72 velocity=100 time=4
the msg is note_off channel=9 note=72 velocity=100 time=1
the msg is note_on channel=9 note=72 velocity=100 time=4
the msg is note_off channel=9 note=72 velocity=100 time=1
the msg is note_on channel=9 note=72 velocity=100 time=10
the msg is note_off channel=9 note=72 velocity=100 time=1
the msg is note_on channel=9 note=74 velocity=100 time=10
the msg is note_off channel=9 note=74 velocity=100 time=1
the msg is note_on channel=9 note=74 velocity=100 time=4
the msg is note_off channel=9 note=74 velocity=100 time=1
the msg is note_on channel=9 note=71 velocity=100 time=4
the msg is note_off channel=9 note=71 velocity=100 time=1
the msg is note_on channel=9 note=74 velocity=100 time=10
the msg is note_off channel=9 note=74 velocity=100 time=1
the msg is note_on channel=9 note=74 velocity=100 time=4
the msg is note_off channel=9 note=74 velocity=100 time=1
the msg is note_on channel=9 note=71 velocity=100 time=4
the msg is note_off channel=9 note=71 velocity=100 time=1
the msg is note_on channel=9 note=71 velocity=100 time=4
the msg is note_off channel=9 note=71 velocity=100 time=1
the msg is note_on channel=9 note=69 velocity=100 time=4
the msg is note_off channel=9 note=69 velocity=100 time=1
the msg is note_on channel=9 note=72 velocity=100 time=55
the msg is note_off channel=9 note=72 velocity=100 time=1
the msg is note_on channel=9 note=72 velocity=100 time=10
the msg is note_off channel=9 note=72 velocity=100 time=1
the msg is note_on channel=9 note=72 velocity=100 time=4
the msg is note_off channel=9 note=72 velocity=100 time=1
the msg is note_on channel=9 note=72 velocity=100 time=4
the msg is note_off channel=9 note=72 velocity=100 time=1
the msg is note_on channel=9 note=72 velocity=100 time=4
the msg is note_off channel=9 note=72 velocity=100 time=1
the msg is note_on channel=9 note=76 velocity=100 time=4
the msg is note_off channel=9 note=76 velocity=100 time=1
the msg is note_on channel=9 note=79 velocity=100 time=10
the msg is note_off channel=9 note=79 velocity=100 time=1
the msg is note_on channel=9 note=76 velocity=100 time=10
the msg is note_off channel=9 note=76 velocity=100 time=1
the msg is note_on channel=9 note=79 velocity=100 time=10
the msg is note_off channel=9 note=79 velocity=100 time=1
the msg is note_on channel=9 note=79 velocity=100 time=4
the msg is note_off channel=9 note=79 velocity=100 time=1
the msg is note_on channel=9 note=76 velocity=100 time=4
the msg is note_off channel=9 note=76 velocity=100 time=1
the msg is note_on channel=9 note=74 velocity=100 time=4
the msg is note_off channel=9 note=74 velocity=100 time=1
the msg is note_on channel=9 note=72 velocity=100 time=4
the msg is note_off channel=9 note=72 velocity=100 time=1
the msg is note_on channel=9 note=74 velocity=100 time=10
the msg is note_off channel=9 note=74 velocity=100 time=1
the msg is note_on channel=9 note=74 velocity=100 time=10
the msg is note_off channel=9 note=74 velocity=100 time=1
the msg is note_on channel=9 note=74 velocity=100 time=10
the msg is note_off channel=9 note=74 velocity=100 time=1
the msg is note_on channel=9 note=76 velocity=100 time=10
the msg is note_off channel=9 note=76 velocity=100 time=1
the msg is note_on channel=9 note=79 velocity=100 time=10
the msg is note_off channel=9 note=79 velocity=100 time=1
the msg is note_on channel=9 note=79 velocity=100 time=6
the msg is note_off channel=9 note=79 velocity=100 time=1
the msg is note_on channel=9 note=76 velocity=100 time=3
the msg is note_off channel=9 note=76 velocity=100 time=1
the msg is note_on channel=9 note=74 velocity=100 time=6
the msg is note_off channel=9 note=74 velocity=100 time=1
the msg is note_on channel=9 note=72 velocity=100 time=3
the msg is note_off channel=9 note=72 velocity=100 time=1
the msg is note_on channel=9 note=74 velocity=100 time=10
the msg is note_off channel=9 note=74 velocity=100 time=1
the msg is note_on channel=9 note=76 velocity=100 time=10
the msg is note_off channel=9 note=76 velocity=100 time=1
the msg is note_on channel=9 note=72 velocity=100 time=4
the msg is note_off channel=9 note=72 velocity=100 time=1
the msg is note_on channel=9 note=74 velocity=100 time=4
the msg is note_off channel=9 note=74 velocity=100 time=1
the msg is note_on channel=9 note=74 velocity=100 time=10
the msg is note_off channel=9 note=74 velocity=100 time=1
the msg is note_on channel=9 note=74 velocity=100 time=10
the msg is note_off channel=9 note=74 velocity=100 time=1
the msg is note_on channel=9 note=74 velocity=100 time=4
the msg is note_off channel=9 note=74 velocity=100 time=1
the msg is note_on channel=9 note=71 velocity=100 time=4
the msg is note_off channel=9 note=71 velocity=100 time=1
the msg is note_on channel=9 note=74 velocity=100 time=10
the msg is note_off channel=9 note=74 velocity=100 time=1
the msg is note_on channel=9 note=74 velocity=100 time=10
the msg is note_off channel=9 note=74 velocity=100 time=1
the msg is note_on channel=9 note=72 velocity=100 time=3
the msg is note_off channel=9 note=72 velocity=100 time=1
the msg is note_on channel=9 note=74 velocity=100 time=10
the msg is note_off channel=9 note=74 velocity=100 time=1
the msg is note_on channel=9 note=74 velocity=100 time=10
the msg is note_off channel=9 note=74 velocity=100 time=1
the msg is note_on channel=9 note=74 velocity=100 time=4
the msg is note_off channel=9 note=74 velocity=100 time=1
the msg is note_on channel=9 note=71 velocity=100 time=4
the msg is note_off channel=9 note=71 velocity=100 time=1
the msg is note_on channel=9 note=74 velocity=100 time=4
the msg is note_off channel=9 note=74 velocity=100 time=1
the msg is note_on channel=9 note=76 velocity=100 time=10
the msg is note_off channel=9 note=76 velocity=100 time=1
the msg is note_on channel=9 note=79 velocity=100 time=10
the msg is note_off channel=9 note=79 velocity=100 time=1
the msg is note_on channel=9 note=72 velocity=100 time=3
the msg is note_off channel=9 note=72 velocity=100 time=1
the msg is note_on channel=9 note=72 velocity=100 time=6
the msg is note_off channel=9 note=72 velocity=100 time=1
the msg is note_on channel=9 note=72 velocity=100 time=3
the msg is note_off channel=9 note=72 velocity=100 time=1
the msg is note_on channel=9 note=72 velocity=100 time=10
the msg is note_off channel=9 note=72 velocity=100 time=1
the msg is note_on channel=9 note=72 velocity=100 time=4
the msg is note_off channel=9 note=72 velocity=100 time=1
the msg is note_on channel=9 note=72 velocity=100 time=4
the msg is note_off channel=9 note=72 velocity=100 time=1
the msg is <meta message end_of_track time=0>
the msg is <meta message track_name name='outTest85_512_1.0.mid' time=0>
the msg is note_on channel=9 note=69 velocity=100 time=1
the msg is note_off channel=9 note=69 velocity=100 time=1
the msg is note_on channel=9 note=72 velocity=100 time=75
the msg is note_off channel=9 note=72 velocity=100 time=1
the msg is note_on channel=9 note=72 velocity=100 time=4
the msg is note_off channel=9 note=72 velocity=100 time=1
the msg is note_on channel=9 note=72 velocity=100 time=4
the msg is note_off channel=9 note=72 velocity=100 time=1
the msg is note_on channel=9 note=72 velocity=100 time=10
the msg is note_off channel=9 note=72 velocity=100 time=1
the msg is note_on channel=9 note=74 velocity=100 time=10
the msg is note_off channel=9 note=74 velocity=100 time=1
the msg is note_on channel=9 note=74 velocity=100 time=4
the msg is note_off channel=9 note=74 velocity=100 time=1
the msg is note_on channel=9 note=71 velocity=100 time=4
the msg is note_off channel=9 note=71 velocity=100 time=1
the msg is note_on channel=9 note=74 velocity=100 time=10
the msg is note_off channel=9 note=74 velocity=100 time=1
the msg is note_on channel=9 note=74 velocity=100 time=4
the msg is note_off channel=9 note=74 velocity=100 time=1
the msg is note_on channel=9 note=71 velocity=100 time=4
the msg is note_off channel=9 note=71 velocity=100 time=1
the msg is note_on channel=9 note=71 velocity=100 time=4
the msg is note_off channel=9 note=71 velocity=100 time=1
the msg is note_on channel=9 note=69 velocity=100 time=4
the msg is note_off channel=9 note=69 velocity=100 time=1
the msg is note_on channel=9 note=72 velocity=100 time=55
the msg is note_off channel=9 note=72 velocity=100 time=1
the msg is note_on channel=9 note=72 velocity=100 time=10
the msg is note_off channel=9 note=72 velocity=100 time=1
the msg is note_on channel=9 note=72 velocity=100 time=4
the msg is note_off channel=9 note=72 velocity=100 time=1
the msg is note_on channel=9 note=72 velocity=100 time=4
the msg is note_off channel=9 note=72 velocity=100 time=1
the msg is note_on channel=9 note=72 velocity=100 time=4
the msg is note_off channel=9 note=72 velocity=100 time=1
the msg is note_on channel=9 note=76 velocity=100 time=4
the msg is note_off channel=9 note=76 velocity=100 time=1
the msg is note_on channel=9 note=79 velocity=100 time=10
the msg is note_off channel=9 note=79 velocity=100 time=1
the msg is note_on channel=9 note=76 velocity=100 time=10
the msg is note_off channel=9 note=76 velocity=100 time=1
the msg is note_on channel=9 note=79 velocity=100 time=10
the msg is note_off channel=9 note=79 velocity=100 time=1
the msg is note_on channel=9 note=79 velocity=100 time=4
the msg is note_off channel=9 note=79 velocity=100 time=1
the msg is note_on channel=9 note=76 velocity=100 time=4
the msg is note_off channel=9 note=76 velocity=100 time=1
the msg is note_on channel=9 note=74 velocity=100 time=4
the msg is note_off channel=9 note=74 velocity=100 time=1
the msg is note_on channel=9 note=72 velocity=100 time=4
the msg is note_off channel=9 note=72 velocity=100 time=1
the msg is note_on channel=9 note=74 velocity=100 time=10
the msg is note_off channel=9 note=74 velocity=100 time=1
the msg is note_on channel=9 note=74 velocity=100 time=10
the msg is note_off channel=9 note=74 velocity=100 time=1
the msg is note_on channel=9 note=74 velocity=100 time=10
the msg is note_off channel=9 note=74 velocity=100 time=1
the msg is note_on channel=9 note=76 velocity=100 time=10
the msg is note_off channel=9 note=76 velocity=100 time=1
the msg is note_on channel=9 note=79 velocity=100 time=10
the msg is note_off channel=9 note=79 velocity=100 time=1
the msg is note_on channel=9 note=79 velocity=100 time=6
the msg is note_off channel=9 note=79 velocity=100 time=1
the msg is note_on channel=9 note=76 velocity=100 time=3
the msg is note_off channel=9 note=76 velocity=100 time=1
the msg is note_on channel=9 note=74 velocity=100 time=6
the msg is note_off channel=9 note=74 velocity=100 time=1
the msg is note_on channel=9 note=72 velocity=100 time=3
the msg is note_off channel=9 note=72 velocity=100 time=1
the msg is note_on channel=9 note=74 velocity=100 time=10
the msg is note_off channel=9 note=74 velocity=100 time=1
the msg is note_on channel=9 note=76 velocity=100 time=10
the msg is note_off channel=9 note=76 velocity=100 time=1
the msg is note_on channel=9 note=72 velocity=100 time=4
the msg is note_off channel=9 note=72 velocity=100 time=1
the msg is note_on channel=9 note=74 velocity=100 time=4
the msg is note_off channel=9 note=74 velocity=100 time=1
the msg is note_on channel=9 note=74 velocity=100 time=10
the msg is note_off channel=9 note=74 velocity=100 time=1
the msg is note_on channel=9 note=74 velocity=100 time=10
the msg is note_off channel=9 note=74 velocity=100 time=1
the msg is note_on channel=9 note=74 velocity=100 time=4
the msg is note_off channel=9 note=74 velocity=100 time=1
the msg is note_on channel=9 note=71 velocity=100 time=4
the msg is note_off channel=9 note=71 velocity=100 time=1
the msg is note_on channel=9 note=74 velocity=100 time=10
the msg is note_off channel=9 note=74 velocity=100 time=1
the msg is note_on channel=9 note=74 velocity=100 time=10
the msg is note_off channel=9 note=74 velocity=100 time=1
the msg is note_on channel=9 note=72 velocity=100 time=3
the msg is note_off channel=9 note=72 velocity=100 time=1
the msg is note_on channel=9 note=74 velocity=100 time=10
the msg is note_off channel=9 note=74 velocity=100 time=1
the msg is note_on channel=9 note=74 velocity=100 time=10
the msg is note_off channel=9 note=74 velocity=100 time=1
the msg is note_on channel=9 note=74 velocity=100 time=4
the msg is note_off channel=9 note=74 velocity=100 time=1
the msg is note_on channel=9 note=71 velocity=100 time=4
the msg is note_off channel=9 note=71 velocity=100 time=1
the msg is note_on channel=9 note=74 velocity=100 time=4
the msg is note_off channel=9 note=74 velocity=100 time=1
the msg is note_on channel=9 note=76 velocity=100 time=10
the msg is note_off channel=9 note=76 velocity=100 time=1
the msg is note_on channel=9 note=79 velocity=100 time=10
the msg is note_off channel=9 note=79 velocity=100 time=1
the msg is note_on channel=9 note=72 velocity=100 time=3
the msg is note_off channel=9 note=72 velocity=100 time=1
the msg is note_on channel=9 note=72 velocity=100 time=6
the msg is note_off channel=9 note=72 velocity=100 time=1
the msg is note_on channel=9 note=72 velocity=100 time=3
the msg is note_off channel=9 note=72 velocity=100 time=1
the msg is note_on channel=9 note=72 velocity=100 time=10
the msg is note_off channel=9 note=72 velocity=100 time=1
the msg is note_on channel=9 note=72 velocity=100 time=4
the msg is note_off channel=9 note=72 velocity=100 time=1
the msg is note_on channel=9 note=72 velocity=100 time=4
the msg is note_off channel=9 note=72 velocity=100 time=1
the msg is <meta message end_of_track time=0>
the msg is <meta message track_name name='outTest85_512_1.0.mid' time=0>
the msg is note_on channel=9 note=69 velocity=100 time=1
the msg is note_off channel=9 note=69 velocity=100 time=1
the msg is note_on channel=9 note=72 velocity=100 time=75
the msg is note_off channel=9 note=72 velocity=100 time=1
the msg is note_on channel=9 note=72 velocity=100 time=4
the msg is note_off channel=9 note=72 velocity=100 time=1
the msg is note_on channel=9 note=72 velocity=100 time=4
the msg is note_off channel=9 note=72 velocity=100 time=1
the msg is note_on channel=9 note=72 velocity=100 time=10
the msg is note_off channel=9 note=72 velocity=100 time=1
the msg is note_on channel=9 note=74 velocity=100 time=10
the msg is note_off channel=9 note=74 velocity=100 time=1
the msg is note_on channel=9 note=74 velocity=100 time=4
the msg is note_off channel=9 note=74 velocity=100 time=1
the msg is note_on channel=9 note=71 velocity=100 time=4
the msg is note_off channel=9 note=71 velocity=100 time=1
the msg is note_on channel=9 note=74 velocity=100 time=10
the msg is note_off channel=9 note=74 velocity=100 time=1
the msg is note_on channel=9 note=74 velocity=100 time=4
the msg is note_off channel=9 note=74 velocity=100 time=1
the msg is note_on channel=9 note=71 velocity=100 time=4
the msg is note_off channel=9 note=71 velocity=100 time=1
the msg is note_on channel=9 note=71 velocity=100 time=4
the msg is note_off channel=9 note=71 velocity=100 time=1
the msg is note_on channel=9 note=69 velocity=100 time=4
the msg is note_off channel=9 note=69 velocity=100 time=1
the msg is note_on channel=9 note=72 velocity=100 time=55
the msg is note_off channel=9 note=72 velocity=100 time=1
the msg is note_on channel=9 note=72 velocity=100 time=10
the msg is note_off channel=9 note=72 velocity=100 time=1
the msg is note_on channel=9 note=72 velocity=100 time=4
the msg is note_off channel=9 note=72 velocity=100 time=1
the msg is note_on channel=9 note=72 velocity=100 time=4
the msg is note_off channel=9 note=72 velocity=100 time=1
the msg is note_on channel=9 note=72 velocity=100 time=4
the msg is note_off channel=9 note=72 velocity=100 time=1
the msg is note_on channel=9 note=76 velocity=100 time=4
the msg is note_off channel=9 note=76 velocity=100 time=1
the msg is note_on channel=9 note=79 velocity=100 time=10
the msg is note_off channel=9 note=79 velocity=100 time=1
the msg is note_on channel=9 note=76 velocity=100 time=10
the msg is note_off channel=9 note=76 velocity=100 time=1
the msg is note_on channel=9 note=79 velocity=100 time=10
the msg is note_off channel=9 note=79 velocity=100 time=1
the msg is note_on channel=9 note=79 velocity=100 time=4
the msg is note_off channel=9 note=79 velocity=100 time=1
the msg is note_on channel=9 note=76 velocity=100 time=4
the msg is note_off channel=9 note=76 velocity=100 time=1
the msg is note_on channel=9 note=74 velocity=100 time=4
the msg is note_off channel=9 note=74 velocity=100 time=1
the msg is note_on channel=9 note=72 velocity=100 time=4
the msg is note_off channel=9 note=72 velocity=100 time=1
the msg is note_on channel=9 note=74 velocity=100 time=10
the msg is note_off channel=9 note=74 velocity=100 time=1
the msg is note_on channel=9 note=74 velocity=100 time=10
the msg is note_off channel=9 note=74 velocity=100 time=1
the msg is note_on channel=9 note=74 velocity=100 time=10
the msg is note_off channel=9 note=74 velocity=100 time=1
the msg is note_on channel=9 note=76 velocity=100 time=10
the msg is note_off channel=9 note=76 velocity=100 time=1
the msg is note_on channel=9 note=79 velocity=100 time=10
the msg is note_off channel=9 note=79 velocity=100 time=1
the msg is note_on channel=9 note=79 velocity=100 time=6
the msg is note_off channel=9 note=79 velocity=100 time=1
the msg is note_on channel=9 note=76 velocity=100 time=3
the msg is note_off channel=9 note=76 velocity=100 time=1
the msg is note_on channel=9 note=74 velocity=100 time=6
the msg is note_off channel=9 note=74 velocity=100 time=1
the msg is note_on channel=9 note=72 velocity=100 time=3
the msg is note_off channel=9 note=72 velocity=100 time=1
the msg is note_on channel=9 note=74 velocity=100 time=10
the msg is note_off channel=9 note=74 velocity=100 time=1
the msg is note_on channel=9 note=76 velocity=100 time=10
the msg is note_off channel=9 note=76 velocity=100 time=1
the msg is note_on channel=9 note=72 velocity=100 time=4
the msg is note_off channel=9 note=72 velocity=100 time=1
the msg is note_on channel=9 note=74 velocity=100 time=4
the msg is note_off channel=9 note=74 velocity=100 time=1
the msg is note_on channel=9 note=74 velocity=100 time=10
the msg is note_off channel=9 note=74 velocity=100 time=1
the msg is note_on channel=9 note=74 velocity=100 time=10
the msg is note_off channel=9 note=74 velocity=100 time=1
the msg is note_on channel=9 note=74 velocity=100 time=4
the msg is note_off channel=9 note=74 velocity=100 time=1
the msg is note_on channel=9 note=71 velocity=100 time=4
the msg is note_off channel=9 note=71 velocity=100 time=1
the msg is note_on channel=9 note=74 velocity=100 time=10
the msg is note_off channel=9 note=74 velocity=100 time=1
the msg is note_on channel=9 note=74 velocity=100 time=10
the msg is note_off channel=9 note=74 velocity=100 time=1
the msg is note_on channel=9 note=72 velocity=100 time=3
the msg is note_off channel=9 note=72 velocity=100 time=1
the msg is note_on channel=9 note=74 velocity=100 time=10
the msg is note_off channel=9 note=74 velocity=100 time=1
the msg is note_on channel=9 note=74 velocity=100 time=10
the msg is note_off channel=9 note=74 velocity=100 time=1
the msg is note_on channel=9 note=74 velocity=100 time=4
the msg is note_off channel=9 note=74 velocity=100 time=1
the msg is note_on channel=9 note=71 velocity=100 time=4
the msg is note_off channel=9 note=71 velocity=100 time=1
the msg is note_on channel=9 note=74 velocity=100 time=4
the msg is note_off channel=9 note=74 velocity=100 time=1
the msg is note_on channel=9 note=76 velocity=100 time=10
the msg is note_off channel=9 note=76 velocity=100 time=1
the msg is note_on channel=9 note=79 velocity=100 time=10
the msg is note_off channel=9 note=79 velocity=100 time=1
the msg is note_on channel=9 note=72 velocity=100 time=3
the msg is note_off channel=9 note=72 velocity=100 time=1
the msg is note_on channel=9 note=72 velocity=100 time=6
the msg is note_off channel=9 note=72 velocity=100 time=1
the msg is note_on channel=9 note=72 velocity=100 time=3
the msg is note_off channel=9 note=72 velocity=100 time=1
the msg is note_on channel=9 note=72 velocity=100 time=10
the msg is note_off channel=9 note=72 velocity=100 time=1
the msg is note_on channel=9 note=72 velocity=100 time=4
the msg is note_off channel=9 note=72 velocity=100 time=1
the msg is note_on channel=9 note=72 velocity=100 time=4
the msg is note_off channel=9 note=72 velocity=100 time=1
the msg is <meta message end_of_track time=0>
the msg is <meta message track_name name='outTest85_512_1.0.mid' time=0>
the msg is note_on channel=9 note=69 velocity=100 time=1
the msg is note_off channel=9 note=69 velocity=100 time=1
the msg is note_on channel=9 note=72 velocity=100 time=75
the msg is note_off channel=9 note=72 velocity=100 time=1
the msg is note_on channel=9 note=72 velocity=100 time=4
the msg is note_off channel=9 note=72 velocity=100 time=1
the msg is note_on channel=9 note=72 velocity=100 time=4
the msg is note_off channel=9 note=72 velocity=100 time=1
the msg is note_on channel=9 note=72 velocity=100 time=10
the msg is note_off channel=9 note=72 velocity=100 time=1
the msg is note_on channel=9 note=74 velocity=100 time=10
the msg is note_off channel=9 note=74 velocity=100 time=1
the msg is note_on channel=9 note=74 velocity=100 time=4
the msg is note_off channel=9 note=74 velocity=100 time=1
the msg is note_on channel=9 note=71 velocity=100 time=4
the msg is note_off channel=9 note=71 velocity=100 time=1
the msg is note_on channel=9 note=74 velocity=100 time=10
the msg is note_off channel=9 note=74 velocity=100 time=1
the msg is note_on channel=9 note=74 velocity=100 time=4
the msg is note_off channel=9 note=74 velocity=100 time=1
the msg is note_on channel=9 note=71 velocity=100 time=4
the msg is note_off channel=9 note=71 velocity=100 time=1
the msg is note_on channel=9 note=71 velocity=100 time=4
the msg is note_off channel=9 note=71 velocity=100 time=1
the msg is note_on channel=9 note=69 velocity=100 time=4
the msg is note_off channel=9 note=69 velocity=100 time=1
the msg is note_on channel=9 note=72 velocity=100 time=55
the msg is note_off channel=9 note=72 velocity=100 time=1
the msg is note_on channel=9 note=72 velocity=100 time=10
the msg is note_off channel=9 note=72 velocity=100 time=1
the msg is note_on channel=9 note=72 velocity=100 time=4
the msg is note_off channel=9 note=72 velocity=100 time=1
the msg is note_on channel=9 note=72 velocity=100 time=4
the msg is note_off channel=9 note=72 velocity=100 time=1
the msg is note_on channel=9 note=72 velocity=100 time=4
the msg is note_off channel=9 note=72 velocity=100 time=1
the msg is note_on channel=9 note=76 velocity=100 time=4
the msg is note_off channel=9 note=76 velocity=100 time=1
the msg is note_on channel=9 note=79 velocity=100 time=10
the msg is note_off channel=9 note=79 velocity=100 time=1
the msg is note_on channel=9 note=76 velocity=100 time=10
the msg is note_off channel=9 note=76 velocity=100 time=1
the msg is note_on channel=9 note=79 velocity=100 time=10
the msg is note_off channel=9 note=79 velocity=100 time=1
the msg is note_on channel=9 note=79 velocity=100 time=4
the msg is note_off channel=9 note=79 velocity=100 time=1
the msg is note_on channel=9 note=76 velocity=100 time=4
the msg is note_off channel=9 note=76 velocity=100 time=1
the msg is note_on channel=9 note=74 velocity=100 time=4
the msg is note_off channel=9 note=74 velocity=100 time=1
the msg is note_on channel=9 note=72 velocity=100 time=4
the msg is note_off channel=9 note=72 velocity=100 time=1
the msg is note_on channel=9 note=74 velocity=100 time=10
the msg is note_off channel=9 note=74 velocity=100 time=1
the msg is note_on channel=9 note=74 velocity=100 time=10
the msg is note_off channel=9 note=74 velocity=100 time=1
the msg is note_on channel=9 note=74 velocity=100 time=10
the msg is note_off channel=9 note=74 velocity=100 time=1
the msg is note_on channel=9 note=76 velocity=100 time=10
the msg is note_off channel=9 note=76 velocity=100 time=1
the msg is note_on channel=9 note=79 velocity=100 time=10
the msg is note_off channel=9 note=79 velocity=100 time=1
the msg is note_on channel=9 note=79 velocity=100 time=6
the msg is note_off channel=9 note=79 velocity=100 time=1
the msg is note_on channel=9 note=76 velocity=100 time=3
the msg is note_off channel=9 note=76 velocity=100 time=1
the msg is note_on channel=9 note=74 velocity=100 time=6
the msg is note_off channel=9 note=74 velocity=100 time=1
the msg is note_on channel=9 note=72 velocity=100 time=3
the msg is note_off channel=9 note=72 velocity=100 time=1
the msg is note_on channel=9 note=74 velocity=100 time=10
the msg is note_off channel=9 note=74 velocity=100 time=1
the msg is note_on channel=9 note=76 velocity=100 time=10
the msg is note_off channel=9 note=76 velocity=100 time=1
the msg is note_on channel=9 note=72 velocity=100 time=4
the msg is note_off channel=9 note=72 velocity=100 time=1
the msg is note_on channel=9 note=74 velocity=100 time=4
the msg is note_off channel=9 note=74 velocity=100 time=1
the msg is note_on channel=9 note=74 velocity=100 time=10
the msg is note_off channel=9 note=74 velocity=100 time=1
the msg is note_on channel=9 note=74 velocity=100 time=10
the msg is note_off channel=9 note=74 velocity=100 time=1
the msg is note_on channel=9 note=74 velocity=100 time=4
the msg is note_off channel=9 note=74 velocity=100 time=1
the msg is note_on channel=9 note=71 velocity=100 time=4
the msg is note_off channel=9 note=71 velocity=100 time=1
the msg is note_on channel=9 note=74 velocity=100 time=10
the msg is note_off channel=9 note=74 velocity=100 time=1
the msg is note_on channel=9 note=74 velocity=100 time=10
the msg is note_off channel=9 note=74 velocity=100 time=1
the msg is note_on channel=9 note=72 velocity=100 time=3
the msg is note_off channel=9 note=72 velocity=100 time=1
the msg is note_on channel=9 note=74 velocity=100 time=10
the msg is note_off channel=9 note=74 velocity=100 time=1
the msg is note_on channel=9 note=74 velocity=100 time=10
the msg is note_off channel=9 note=74 velocity=100 time=1
the msg is note_on channel=9 note=74 velocity=100 time=4
the msg is note_off channel=9 note=74 velocity=100 time=1
the msg is note_on channel=9 note=71 velocity=100 time=4
the msg is note_off channel=9 note=71 velocity=100 time=1
the msg is note_on channel=9 note=74 velocity=100 time=4
the msg is note_off channel=9 note=74 velocity=100 time=1
the msg is note_on channel=9 note=76 velocity=100 time=10
the msg is note_off channel=9 note=76 velocity=100 time=1
the msg is note_on channel=9 note=79 velocity=100 time=10
the msg is note_off channel=9 note=79 velocity=100 time=1
the msg is note_on channel=9 note=72 velocity=100 time=3
the msg is note_off channel=9 note=72 velocity=100 time=1
the msg is note_on channel=9 note=72 velocity=100 time=6
the msg is note_off channel=9 note=72 velocity=100 time=1
the msg is note_on channel=9 note=72 velocity=100 time=3
the msg is note_off channel=9 note=72 velocity=100 time=1
the msg is note_on channel=9 note=72 velocity=100 time=10
the msg is note_off channel=9 note=72 velocity=100 time=1
the msg is note_on channel=9 note=72 velocity=100 time=4
the msg is note_off channel=9 note=72 velocity=100 time=1
the msg is note_on channel=9 note=72 velocity=100 time=4
the msg is note_off channel=9 note=72 velocity=100 time=1
the msg is <meta message end_of_track time=0>
the msg is <meta message track_name name='outTest85_512_1.0.mid' time=0>
the msg is note_on channel=9 note=69 velocity=100 time=1
the msg is note_off channel=9 note=69 velocity=100 time=1
the msg is note_on channel=9 note=72 velocity=100 time=75
the msg is note_off channel=9 note=72 velocity=100 time=1
the msg is note_on channel=9 note=72 velocity=100 time=4
the msg is note_off channel=9 note=72 velocity=100 time=1
the msg is note_on channel=9 note=72 velocity=100 time=4
the msg is note_off channel=9 note=72 velocity=100 time=1
the msg is note_on channel=9 note=72 velocity=100 time=10
the msg is note_off channel=9 note=72 velocity=100 time=1
the msg is note_on channel=9 note=74 velocity=100 time=10
the msg is note_off channel=9 note=74 velocity=100 time=1
the msg is note_on channel=9 note=74 velocity=100 time=4
the msg is note_off channel=9 note=74 velocity=100 time=1
the msg is note_on channel=9 note=71 velocity=100 time=4
the msg is note_off channel=9 note=71 velocity=100 time=1
the msg is note_on channel=9 note=74 velocity=100 time=10
the msg is note_off channel=9 note=74 velocity=100 time=1
the msg is note_on channel=9 note=74 velocity=100 time=4
the msg is note_off channel=9 note=74 velocity=100 time=1
the msg is note_on channel=9 note=71 velocity=100 time=4
the msg is note_off channel=9 note=71 velocity=100 time=1
the msg is note_on channel=9 note=71 velocity=100 time=4
the msg is note_off channel=9 note=71 velocity=100 time=1
the msg is note_on channel=9 note=69 velocity=100 time=4
the msg is note_off channel=9 note=69 velocity=100 time=1
the msg is note_on channel=9 note=72 velocity=100 time=55
the msg is note_off channel=9 note=72 velocity=100 time=1
the msg is note_on channel=9 note=72 velocity=100 time=10
the msg is note_off channel=9 note=72 velocity=100 time=1
the msg is note_on channel=9 note=72 velocity=100 time=4
the msg is note_off channel=9 note=72 velocity=100 time=1
the msg is note_on channel=9 note=72 velocity=100 time=4
the msg is note_off channel=9 note=72 velocity=100 time=1
the msg is note_on channel=9 note=72 velocity=100 time=4
the msg is note_off channel=9 note=72 velocity=100 time=1
the msg is note_on channel=9 note=76 velocity=100 time=4
the msg is note_off channel=9 note=76 velocity=100 time=1
the msg is note_on channel=9 note=79 velocity=100 time=10
the msg is note_off channel=9 note=79 velocity=100 time=1
the msg is note_on channel=9 note=76 velocity=100 time=10
the msg is note_off channel=9 note=76 velocity=100 time=1
the msg is note_on channel=9 note=79 velocity=100 time=10
the msg is note_off channel=9 note=79 velocity=100 time=1
the msg is note_on channel=9 note=79 velocity=100 time=4
the msg is note_off channel=9 note=79 velocity=100 time=1
the msg is note_on channel=9 note=76 velocity=100 time=4
the msg is note_off channel=9 note=76 velocity=100 time=1
the msg is note_on channel=9 note=74 velocity=100 time=4
the msg is note_off channel=9 note=74 velocity=100 time=1
the msg is note_on channel=9 note=72 velocity=100 time=4
the msg is note_off channel=9 note=72 velocity=100 time=1
the msg is note_on channel=9 note=74 velocity=100 time=10
the msg is note_off channel=9 note=74 velocity=100 time=1
the msg is note_on channel=9 note=74 velocity=100 time=10
the msg is note_off channel=9 note=74 velocity=100 time=1
the msg is note_on channel=9 note=74 velocity=100 time=10
the msg is note_off channel=9 note=74 velocity=100 time=1
the msg is note_on channel=9 note=76 velocity=100 time=10
the msg is note_off channel=9 note=76 velocity=100 time=1
the msg is note_on channel=9 note=79 velocity=100 time=10
the msg is note_off channel=9 note=79 velocity=100 time=1
the msg is note_on channel=9 note=79 velocity=100 time=6
the msg is note_off channel=9 note=79 velocity=100 time=1
the msg is note_on channel=9 note=76 velocity=100 time=3
the msg is note_off channel=9 note=76 velocity=100 time=1
the msg is note_on channel=9 note=74 velocity=100 time=6
the msg is note_off channel=9 note=74 velocity=100 time=1
the msg is note_on channel=9 note=72 velocity=100 time=3
the msg is note_off channel=9 note=72 velocity=100 time=1
the msg is note_on channel=9 note=74 velocity=100 time=10
the msg is note_off channel=9 note=74 velocity=100 time=1
the msg is note_on channel=9 note=76 velocity=100 time=10
the msg is note_off channel=9 note=76 velocity=100 time=1
the msg is note_on channel=9 note=72 velocity=100 time=4
the msg is note_off channel=9 note=72 velocity=100 time=1
the msg is note_on channel=9 note=74 velocity=100 time=4
the msg is note_off channel=9 note=74 velocity=100 time=1
the msg is note_on channel=9 note=74 velocity=100 time=10
the msg is note_off channel=9 note=74 velocity=100 time=1
the msg is note_on channel=9 note=74 velocity=100 time=10
the msg is note_off channel=9 note=74 velocity=100 time=1
the msg is note_on channel=9 note=74 velocity=100 time=4
the msg is note_off channel=9 note=74 velocity=100 time=1
the msg is note_on channel=9 note=71 velocity=100 time=4
the msg is note_off channel=9 note=71 velocity=100 time=1
the msg is note_on channel=9 note=74 velocity=100 time=10
the msg is note_off channel=9 note=74 velocity=100 time=1
the msg is note_on channel=9 note=74 velocity=100 time=10
the msg is note_off channel=9 note=74 velocity=100 time=1
the msg is note_on channel=9 note=72 velocity=100 time=3
the msg is note_off channel=9 note=72 velocity=100 time=1
the msg is note_on channel=9 note=74 velocity=100 time=10
the msg is note_off channel=9 note=74 velocity=100 time=1
the msg is note_on channel=9 note=74 velocity=100 time=10
the msg is note_off channel=9 note=74 velocity=100 time=1
the msg is note_on channel=9 note=74 velocity=100 time=4
the msg is note_off channel=9 note=74 velocity=100 time=1
the msg is note_on channel=9 note=71 velocity=100 time=4
the msg is note_off channel=9 note=71 velocity=100 time=1
the msg is note_on channel=9 note=74 velocity=100 time=4
the msg is note_off channel=9 note=74 velocity=100 time=1
the msg is note_on channel=9 note=76 velocity=100 time=10
the msg is note_off channel=9 note=76 velocity=100 time=1
the msg is note_on channel=9 note=79 velocity=100 time=10
the msg is note_off channel=9 note=79 velocity=100 time=1
the msg is note_on channel=9 note=72 velocity=100 time=3
the msg is note_off channel=9 note=72 velocity=100 time=1
the msg is note_on channel=9 note=72 velocity=100 time=6
the msg is note_off channel=9 note=72 velocity=100 time=1
the msg is note_on channel=9 note=72 velocity=100 time=3
the msg is note_off channel=9 note=72 velocity=100 time=1
the msg is note_on channel=9 note=72 velocity=100 time=10
the msg is note_off channel=9 note=72 velocity=100 time=1
the msg is note_on channel=9 note=72 velocity=100 time=4
the msg is note_off channel=9 note=72 velocity=100 time=1
the msg is note_on channel=9 note=72 velocity=100 time=4
the msg is note_off channel=9 note=72 velocity=100 time=1
the msg is <meta message end_of_track time=0>
the msg is <meta message track_name name='outTest85_512_1.0.mid' time=0>
the msg is note_on channel=9 note=69 velocity=100 time=1
the msg is note_off channel=9 note=69 velocity=100 time=1
the msg is note_on channel=9 note=72 velocity=100 time=75
the msg is note_off channel=9 note=72 velocity=100 time=1
the msg is note_on channel=9 note=72 velocity=100 time=4
the msg is note_off channel=9 note=72 velocity=100 time=1
the msg is note_on channel=9 note=72 velocity=100 time=4
the msg is note_off channel=9 note=72 velocity=100 time=1
the msg is note_on channel=9 note=72 velocity=100 time=10
the msg is note_off channel=9 note=72 velocity=100 time=1
the msg is note_on channel=9 note=74 velocity=100 time=10
the msg is note_off channel=9 note=74 velocity=100 time=1
the msg is note_on channel=9 note=74 velocity=100 time=4
the msg is note_off channel=9 note=74 velocity=100 time=1
the msg is note_on channel=9 note=71 velocity=100 time=4
the msg is note_off channel=9 note=71 velocity=100 time=1
the msg is note_on channel=9 note=74 velocity=100 time=10
the msg is note_off channel=9 note=74 velocity=100 time=1
the msg is note_on channel=9 note=74 velocity=100 time=4
the msg is note_off channel=9 note=74 velocity=100 time=1
the msg is note_on channel=9 note=71 velocity=100 time=4
the msg is note_off channel=9 note=71 velocity=100 time=1
the msg is note_on channel=9 note=71 velocity=100 time=4
the msg is note_off channel=9 note=71 velocity=100 time=1
the msg is note_on channel=9 note=69 velocity=100 time=4
the msg is note_off channel=9 note=69 velocity=100 time=1
the msg is note_on channel=9 note=72 velocity=100 time=55
the msg is note_off channel=9 note=72 velocity=100 time=1
the msg is note_on channel=9 note=72 velocity=100 time=10
the msg is note_off channel=9 note=72 velocity=100 time=1
the msg is note_on channel=9 note=72 velocity=100 time=4
the msg is note_off channel=9 note=72 velocity=100 time=1
the msg is note_on channel=9 note=72 velocity=100 time=4
the msg is note_off channel=9 note=72 velocity=100 time=1
the msg is note_on channel=9 note=72 velocity=100 time=4
the msg is note_off channel=9 note=72 velocity=100 time=1
the msg is note_on channel=9 note=76 velocity=100 time=4
the msg is note_off channel=9 note=76 velocity=100 time=1
the msg is note_on channel=9 note=79 velocity=100 time=10
the msg is note_off channel=9 note=79 velocity=100 time=1
the msg is note_on channel=9 note=76 velocity=100 time=10
the msg is note_off channel=9 note=76 velocity=100 time=1
the msg is note_on channel=9 note=79 velocity=100 time=10
the msg is note_off channel=9 note=79 velocity=100 time=1
the msg is note_on channel=9 note=79 velocity=100 time=4
the msg is note_off channel=9 note=79 velocity=100 time=1
the msg is note_on channel=9 note=76 velocity=100 time=4
the msg is note_off channel=9 note=76 velocity=100 time=1
the msg is note_on channel=9 note=74 velocity=100 time=4
the msg is note_off channel=9 note=74 velocity=100 time=1
the msg is note_on channel=9 note=72 velocity=100 time=4
the msg is note_off channel=9 note=72 velocity=100 time=1
the msg is note_on channel=9 note=74 velocity=100 time=10
the msg is note_off channel=9 note=74 velocity=100 time=1
the msg is note_on channel=9 note=74 velocity=100 time=10
the msg is note_off channel=9 note=74 velocity=100 time=1
the msg is note_on channel=9 note=74 velocity=100 time=10
the msg is note_off channel=9 note=74 velocity=100 time=1
the msg is note_on channel=9 note=76 velocity=100 time=10
the msg is note_off channel=9 note=76 velocity=100 time=1
the msg is note_on channel=9 note=79 velocity=100 time=10
the msg is note_off channel=9 note=79 velocity=100 time=1
the msg is note_on channel=9 note=79 velocity=100 time=6
the msg is note_off channel=9 note=79 velocity=100 time=1
the msg is note_on channel=9 note=76 velocity=100 time=3
the msg is note_off channel=9 note=76 velocity=100 time=1
the msg is note_on channel=9 note=74 velocity=100 time=6
the msg is note_off channel=9 note=74 velocity=100 time=1
the msg is note_on channel=9 note=72 velocity=100 time=3
the msg is note_off channel=9 note=72 velocity=100 time=1
the msg is note_on channel=9 note=74 velocity=100 time=10
the msg is note_off channel=9 note=74 velocity=100 time=1
the msg is note_on channel=9 note=76 velocity=100 time=10
the msg is note_off channel=9 note=76 velocity=100 time=1
the msg is note_on channel=9 note=72 velocity=100 time=4
the msg is note_off channel=9 note=72 velocity=100 time=1
the msg is note_on channel=9 note=74 velocity=100 time=4
the msg is note_off channel=9 note=74 velocity=100 time=1
the msg is note_on channel=9 note=74 velocity=100 time=10
the msg is note_off channel=9 note=74 velocity=100 time=1
the msg is note_on channel=9 note=74 velocity=100 time=10
the msg is note_off channel=9 note=74 velocity=100 time=1
the msg is note_on channel=9 note=74 velocity=100 time=4
the msg is note_off channel=9 note=74 velocity=100 time=1
the msg is note_on channel=9 note=71 velocity=100 time=4
the msg is note_off channel=9 note=71 velocity=100 time=1
the msg is note_on channel=9 note=74 velocity=100 time=10
the msg is note_off channel=9 note=74 velocity=100 time=1
the msg is note_on channel=9 note=74 velocity=100 time=10
the msg is note_off channel=9 note=74 velocity=100 time=1
the msg is note_on channel=9 note=72 velocity=100 time=3
the msg is note_off channel=9 note=72 velocity=100 time=1
the msg is note_on channel=9 note=74 velocity=100 time=10
the msg is note_off channel=9 note=74 velocity=100 time=1
the msg is note_on channel=9 note=74 velocity=100 time=10
the msg is note_off channel=9 note=74 velocity=100 time=1
the msg is note_on channel=9 note=74 velocity=100 time=4
the msg is note_off channel=9 note=74 velocity=100 time=1
the msg is note_on channel=9 note=71 velocity=100 time=4
the msg is note_off channel=9 note=71 velocity=100 time=1
the msg is note_on channel=9 note=74 velocity=100 time=4
the msg is note_off channel=9 note=74 velocity=100 time=1
the msg is note_on channel=9 note=76 velocity=100 time=10
the msg is note_off channel=9 note=76 velocity=100 time=1
the msg is note_on channel=9 note=79 velocity=100 time=10
the msg is note_off channel=9 note=79 velocity=100 time=1
the msg is note_on channel=9 note=72 velocity=100 time=3
the msg is note_off channel=9 note=72 velocity=100 time=1
the msg is note_on channel=9 note=72 velocity=100 time=6
the msg is note_off channel=9 note=72 velocity=100 time=1
the msg is note_on channel=9 note=72 velocity=100 time=3
the msg is note_off channel=9 note=72 velocity=100 time=1
the msg is note_on channel=9 note=72 velocity=100 time=10
the msg is note_off channel=9 note=72 velocity=100 time=1
the msg is note_on channel=9 note=72 velocity=100 time=4
the msg is note_off channel=9 note=72 velocity=100 time=1
the msg is note_on channel=9 note=72 velocity=100 time=4
the msg is note_off channel=9 note=72 velocity=100 time=1
the msg is <meta message end_of_track time=0>
the msg is <meta message track_name name='outTest85_512_1.0.mid' time=0>
the msg is note_on channel=9 note=69 velocity=100 time=1
the msg is note_off channel=9 note=69 velocity=100 time=1
the msg is note_on channel=9 note=72 velocity=100 time=75
the msg is note_off channel=9 note=72 velocity=100 time=1
the msg is note_on channel=9 note=72 velocity=100 time=4
the msg is note_off channel=9 note=72 velocity=100 time=1
the msg is note_on channel=9 note=72 velocity=100 time=4
the msg is note_off channel=9 note=72 velocity=100 time=1
the msg is note_on channel=9 note=72 velocity=100 time=10
the msg is note_off channel=9 note=72 velocity=100 time=1
the msg is note_on channel=9 note=74 velocity=100 time=10
the msg is note_off channel=9 note=74 velocity=100 time=1
the msg is note_on channel=9 note=74 velocity=100 time=4
the msg is note_off channel=9 note=74 velocity=100 time=1
the msg is note_on channel=9 note=71 velocity=100 time=4
the msg is note_off channel=9 note=71 velocity=100 time=1
the msg is note_on channel=9 note=74 velocity=100 time=10
the msg is note_off channel=9 note=74 velocity=100 time=1
the msg is note_on channel=9 note=74 velocity=100 time=4
the msg is note_off channel=9 note=74 velocity=100 time=1
the msg is note_on channel=9 note=71 velocity=100 time=4
the msg is note_off channel=9 note=71 velocity=100 time=1
the msg is note_on channel=9 note=71 velocity=100 time=4
the msg is note_off channel=9 note=71 velocity=100 time=1
the msg is note_on channel=9 note=69 velocity=100 time=4
the msg is note_off channel=9 note=69 velocity=100 time=1
the msg is note_on channel=9 note=72 velocity=100 time=55
the msg is note_off channel=9 note=72 velocity=100 time=1
the msg is note_on channel=9 note=72 velocity=100 time=10
the msg is note_off channel=9 note=72 velocity=100 time=1
the msg is note_on channel=9 note=72 velocity=100 time=4
the msg is note_off channel=9 note=72 velocity=100 time=1
the msg is note_on channel=9 note=72 velocity=100 time=4
the msg is note_off channel=9 note=72 velocity=100 time=1
the msg is note_on channel=9 note=72 velocity=100 time=4
the msg is note_off channel=9 note=72 velocity=100 time=1
the msg is note_on channel=9 note=76 velocity=100 time=4
the msg is note_off channel=9 note=76 velocity=100 time=1
the msg is note_on channel=9 note=79 velocity=100 time=10
the msg is note_off channel=9 note=79 velocity=100 time=1
the msg is note_on channel=9 note=76 velocity=100 time=10
the msg is note_off channel=9 note=76 velocity=100 time=1
the msg is note_on channel=9 note=79 velocity=100 time=10
the msg is note_off channel=9 note=79 velocity=100 time=1
the msg is note_on channel=9 note=79 velocity=100 time=4
the msg is note_off channel=9 note=79 velocity=100 time=1
the msg is note_on channel=9 note=76 velocity=100 time=4
the msg is note_off channel=9 note=76 velocity=100 time=1
the msg is note_on channel=9 note=74 velocity=100 time=4
the msg is note_off channel=9 note=74 velocity=100 time=1
the msg is note_on channel=9 note=72 velocity=100 time=4
the msg is note_off channel=9 note=72 velocity=100 time=1
the msg is note_on channel=9 note=74 velocity=100 time=10
the msg is note_off channel=9 note=74 velocity=100 time=1
the msg is note_on channel=9 note=74 velocity=100 time=10
the msg is note_off channel=9 note=74 velocity=100 time=1
the msg is note_on channel=9 note=74 velocity=100 time=10
the msg is note_off channel=9 note=74 velocity=100 time=1
the msg is note_on channel=9 note=76 velocity=100 time=10
the msg is note_off channel=9 note=76 velocity=100 time=1
the msg is note_on channel=9 note=79 velocity=100 time=10
the msg is note_off channel=9 note=79 velocity=100 time=1
the msg is note_on channel=9 note=79 velocity=100 time=6
the msg is note_off channel=9 note=79 velocity=100 time=1
the msg is note_on channel=9 note=76 velocity=100 time=3
the msg is note_off channel=9 note=76 velocity=100 time=1
the msg is note_on channel=9 note=74 velocity=100 time=6
the msg is note_off channel=9 note=74 velocity=100 time=1
the msg is note_on channel=9 note=72 velocity=100 time=3
the msg is note_off channel=9 note=72 velocity=100 time=1
the msg is note_on channel=9 note=74 velocity=100 time=10
the msg is note_off channel=9 note=74 velocity=100 time=1
the msg is note_on channel=9 note=76 velocity=100 time=10
the msg is note_off channel=9 note=76 velocity=100 time=1
the msg is note_on channel=9 note=72 velocity=100 time=4
the msg is note_off channel=9 note=72 velocity=100 time=1
the msg is note_on channel=9 note=74 velocity=100 time=4
the msg is note_off channel=9 note=74 velocity=100 time=1
the msg is note_on channel=9 note=74 velocity=100 time=10
the msg is note_off channel=9 note=74 velocity=100 time=1
the msg is note_on channel=9 note=74 velocity=100 time=10
the msg is note_off channel=9 note=74 velocity=100 time=1
the msg is note_on channel=9 note=74 velocity=100 time=4
the msg is note_off channel=9 note=74 velocity=100 time=1
the msg is note_on channel=9 note=71 velocity=100 time=4
the msg is note_off channel=9 note=71 velocity=100 time=1
the msg is note_on channel=9 note=74 velocity=100 time=10
the msg is note_off channel=9 note=74 velocity=100 time=1
the msg is note_on channel=9 note=74 velocity=100 time=10
the msg is note_off channel=9 note=74 velocity=100 time=1
the msg is note_on channel=9 note=72 velocity=100 time=3
the msg is note_off channel=9 note=72 velocity=100 time=1
the msg is note_on channel=9 note=74 velocity=100 time=10
the msg is note_off channel=9 note=74 velocity=100 time=1
the msg is note_on channel=9 note=74 velocity=100 time=10
the msg is note_off channel=9 note=74 velocity=100 time=1
the msg is note_on channel=9 note=74 velocity=100 time=4
the msg is note_off channel=9 note=74 velocity=100 time=1
the msg is note_on channel=9 note=71 velocity=100 time=4
the msg is note_off channel=9 note=71 velocity=100 time=1
the msg is note_on channel=9 note=74 velocity=100 time=4
the msg is note_off channel=9 note=74 velocity=100 time=1
the msg is note_on channel=9 note=76 velocity=100 time=10
the msg is note_off channel=9 note=76 velocity=100 time=1
the msg is note_on channel=9 note=79 velocity=100 time=10
the msg is note_off channel=9 note=79 velocity=100 time=1
the msg is note_on channel=9 note=72 velocity=100 time=3
the msg is note_off channel=9 note=72 velocity=100 time=1
the msg is note_on channel=9 note=72 velocity=100 time=6
the msg is note_off channel=9 note=72 velocity=100 time=1
the msg is note_on channel=9 note=72 velocity=100 time=3
the msg is note_off channel=9 note=72 velocity=100 time=1
the msg is note_on channel=9 note=72 velocity=100 time=10
the msg is note_off channel=9 note=72 velocity=100 time=1
the msg is note_on channel=9 note=72 velocity=100 time=4
the msg is note_off channel=9 note=72 velocity=100 time=1
the msg is note_on channel=9 note=72 velocity=100 time=4
the msg is note_off channel=9 note=72 velocity=100 time=1
the msg is <meta message end_of_track time=0>
the msg is <meta message track_name name='outTest85_512_1.0.mid' time=0>
the msg is note_on channel=9 note=69 velocity=100 time=1
the msg is note_off channel=9 note=69 velocity=100 time=1
the msg is note_on channel=9 note=72 velocity=100 time=75
the msg is note_off channel=9 note=72 velocity=100 time=1
the msg is note_on channel=9 note=72 velocity=100 time=4
the msg is note_off channel=9 note=72 velocity=100 time=1
the msg is note_on channel=9 note=72 velocity=100 time=4
the msg is note_off channel=9 note=72 velocity=100 time=1
the msg is note_on channel=9 note=72 velocity=100 time=10
the msg is note_off channel=9 note=72 velocity=100 time=1
the msg is note_on channel=9 note=74 velocity=100 time=10
the msg is note_off channel=9 note=74 velocity=100 time=1
the msg is note_on channel=9 note=74 velocity=100 time=4
the msg is note_off channel=9 note=74 velocity=100 time=1
the msg is note_on channel=9 note=71 velocity=100 time=4
the msg is note_off channel=9 note=71 velocity=100 time=1
the msg is note_on channel=9 note=74 velocity=100 time=10
the msg is note_off channel=9 note=74 velocity=100 time=1
the msg is note_on channel=9 note=74 velocity=100 time=4
the msg is note_off channel=9 note=74 velocity=100 time=1
the msg is note_on channel=9 note=71 velocity=100 time=4
the msg is note_off channel=9 note=71 velocity=100 time=1
the msg is note_on channel=9 note=71 velocity=100 time=4
the msg is note_off channel=9 note=71 velocity=100 time=1
the msg is note_on channel=9 note=69 velocity=100 time=4
the msg is note_off channel=9 note=69 velocity=100 time=1
the msg is note_on channel=9 note=72 velocity=100 time=55
the msg is note_off channel=9 note=72 velocity=100 time=1
the msg is note_on channel=9 note=72 velocity=100 time=10
the msg is note_off channel=9 note=72 velocity=100 time=1
the msg is note_on channel=9 note=72 velocity=100 time=4
the msg is note_off channel=9 note=72 velocity=100 time=1
the msg is note_on channel=9 note=72 velocity=100 time=4
the msg is note_off channel=9 note=72 velocity=100 time=1
the msg is note_on channel=9 note=72 velocity=100 time=4
the msg is note_off channel=9 note=72 velocity=100 time=1
the msg is note_on channel=9 note=76 velocity=100 time=4
the msg is note_off channel=9 note=76 velocity=100 time=1
the msg is note_on channel=9 note=79 velocity=100 time=10
the msg is note_off channel=9 note=79 velocity=100 time=1
the msg is note_on channel=9 note=76 velocity=100 time=10
the msg is note_off channel=9 note=76 velocity=100 time=1
the msg is note_on channel=9 note=79 velocity=100 time=10
the msg is note_off channel=9 note=79 velocity=100 time=1
the msg is note_on channel=9 note=79 velocity=100 time=4
the msg is note_off channel=9 note=79 velocity=100 time=1
the msg is note_on channel=9 note=76 velocity=100 time=4
the msg is note_off channel=9 note=76 velocity=100 time=1
the msg is note_on channel=9 note=74 velocity=100 time=4
the msg is note_off channel=9 note=74 velocity=100 time=1
the msg is note_on channel=9 note=72 velocity=100 time=4
the msg is note_off channel=9 note=72 velocity=100 time=1
the msg is note_on channel=9 note=74 velocity=100 time=10
the msg is note_off channel=9 note=74 velocity=100 time=1
the msg is note_on channel=9 note=74 velocity=100 time=10
the msg is note_off channel=9 note=74 velocity=100 time=1
the msg is note_on channel=9 note=74 velocity=100 time=10
the msg is note_off channel=9 note=74 velocity=100 time=1
the msg is note_on channel=9 note=76 velocity=100 time=10
the msg is note_off channel=9 note=76 velocity=100 time=1
the msg is note_on channel=9 note=79 velocity=100 time=10
the msg is note_off channel=9 note=79 velocity=100 time=1
the msg is note_on channel=9 note=79 velocity=100 time=6
the msg is note_off channel=9 note=79 velocity=100 time=1
the msg is note_on channel=9 note=76 velocity=100 time=3
the msg is note_off channel=9 note=76 velocity=100 time=1
the msg is note_on channel=9 note=74 velocity=100 time=6
the msg is note_off channel=9 note=74 velocity=100 time=1
the msg is note_on channel=9 note=72 velocity=100 time=3
the msg is note_off channel=9 note=72 velocity=100 time=1
the msg is note_on channel=9 note=74 velocity=100 time=10
the msg is note_off channel=9 note=74 velocity=100 time=1
the msg is note_on channel=9 note=76 velocity=100 time=10
the msg is note_off channel=9 note=76 velocity=100 time=1
the msg is note_on channel=9 note=72 velocity=100 time=4
the msg is note_off channel=9 note=72 velocity=100 time=1
the msg is note_on channel=9 note=74 velocity=100 time=4
the msg is note_off channel=9 note=74 velocity=100 time=1
the msg is note_on channel=9 note=74 velocity=100 time=10
the msg is note_off channel=9 note=74 velocity=100 time=1
the msg is note_on channel=9 note=74 velocity=100 time=10
the msg is note_off channel=9 note=74 velocity=100 time=1
the msg is note_on channel=9 note=74 velocity=100 time=4
the msg is note_off channel=9 note=74 velocity=100 time=1
the msg is note_on channel=9 note=71 velocity=100 time=4
the msg is note_off channel=9 note=71 velocity=100 time=1
the msg is note_on channel=9 note=74 velocity=100 time=10
the msg is note_off channel=9 note=74 velocity=100 time=1
the msg is note_on channel=9 note=74 velocity=100 time=10
the msg is note_off channel=9 note=74 velocity=100 time=1
the msg is note_on channel=9 note=72 velocity=100 time=3
the msg is note_off channel=9 note=72 velocity=100 time=1
the msg is note_on channel=9 note=74 velocity=100 time=10
the msg is note_off channel=9 note=74 velocity=100 time=1
the msg is note_on channel=9 note=74 velocity=100 time=10
the msg is note_off channel=9 note=74 velocity=100 time=1
the msg is note_on channel=9 note=74 velocity=100 time=4
the msg is note_off channel=9 note=74 velocity=100 time=1
the msg is note_on channel=9 note=71 velocity=100 time=4
the msg is note_off channel=9 note=71 velocity=100 time=1
the msg is note_on channel=9 note=74 velocity=100 time=4
the msg is note_off channel=9 note=74 velocity=100 time=1
the msg is note_on channel=9 note=76 velocity=100 time=10
the msg is note_off channel=9 note=76 velocity=100 time=1
the msg is note_on channel=9 note=79 velocity=100 time=10
the msg is note_off channel=9 note=79 velocity=100 time=1
the msg is note_on channel=9 note=72 velocity=100 time=3
the msg is note_off channel=9 note=72 velocity=100 time=1
the msg is note_on channel=9 note=72 velocity=100 time=6
the msg is note_off channel=9 note=72 velocity=100 time=1
the msg is note_on channel=9 note=72 velocity=100 time=3
the msg is note_off channel=9 note=72 velocity=100 time=1
the msg is note_on channel=9 note=72 velocity=100 time=10
the msg is note_off channel=9 note=72 velocity=100 time=1
the msg is note_on channel=9 note=72 velocity=100 time=4
the msg is note_off channel=9 note=72 velocity=100 time=1
the msg is note_on channel=9 note=72 velocity=100 time=4
the msg is note_off channel=9 note=72 velocity=100 time=1
the msg is <meta message end_of_track time=0>
the msg is <meta message track_name name='outTest85_512_1.0.mid' time=0>
the msg is note_on channel=9 note=69 velocity=100 time=1
the msg is note_off channel=9 note=69 velocity=100 time=1
the msg is note_on channel=9 note=72 velocity=100 time=75
the msg is note_off channel=9 note=72 velocity=100 time=1
the msg is note_on channel=9 note=72 velocity=100 time=4
the msg is note_off channel=9 note=72 velocity=100 time=1
the msg is note_on channel=9 note=72 velocity=100 time=4
the msg is note_off channel=9 note=72 velocity=100 time=1
the msg is note_on channel=9 note=72 velocity=100 time=10
the msg is note_off channel=9 note=72 velocity=100 time=1
the msg is note_on channel=9 note=74 velocity=100 time=10
the msg is note_off channel=9 note=74 velocity=100 time=1
the msg is note_on channel=9 note=74 velocity=100 time=4
the msg is note_off channel=9 note=74 velocity=100 time=1
the msg is note_on channel=9 note=71 velocity=100 time=4
the msg is note_off channel=9 note=71 velocity=100 time=1
the msg is note_on channel=9 note=74 velocity=100 time=10
the msg is note_off channel=9 note=74 velocity=100 time=1
the msg is note_on channel=9 note=74 velocity=100 time=4
the msg is note_off channel=9 note=74 velocity=100 time=1
the msg is note_on channel=9 note=71 velocity=100 time=4
the msg is note_off channel=9 note=71 velocity=100 time=1
the msg is note_on channel=9 note=71 velocity=100 time=4
the msg is note_off channel=9 note=71 velocity=100 time=1
the msg is note_on channel=9 note=69 velocity=100 time=4
the msg is note_off channel=9 note=69 velocity=100 time=1
the msg is note_on channel=9 note=72 velocity=100 time=55
the msg is note_off channel=9 note=72 velocity=100 time=1
the msg is note_on channel=9 note=72 velocity=100 time=10
the msg is note_off channel=9 note=72 velocity=100 time=1
the msg is note_on channel=9 note=72 velocity=100 time=4
the msg is note_off channel=9 note=72 velocity=100 time=1
the msg is note_on channel=9 note=72 velocity=100 time=4
the msg is note_off channel=9 note=72 velocity=100 time=1
the msg is note_on channel=9 note=72 velocity=100 time=4
the msg is note_off channel=9 note=72 velocity=100 time=1
the msg is note_on channel=9 note=76 velocity=100 time=4
the msg is note_off channel=9 note=76 velocity=100 time=1
the msg is note_on channel=9 note=79 velocity=100 time=10
the msg is note_off channel=9 note=79 velocity=100 time=1
the msg is note_on channel=9 note=76 velocity=100 time=10
the msg is note_off channel=9 note=76 velocity=100 time=1
the msg is note_on channel=9 note=79 velocity=100 time=10
the msg is note_off channel=9 note=79 velocity=100 time=1
the msg is note_on channel=9 note=79 velocity=100 time=4
the msg is note_off channel=9 note=79 velocity=100 time=1
the msg is note_on channel=9 note=76 velocity=100 time=4
the msg is note_off channel=9 note=76 velocity=100 time=1
the msg is note_on channel=9 note=74 velocity=100 time=4
the msg is note_off channel=9 note=74 velocity=100 time=1
the msg is note_on channel=9 note=72 velocity=100 time=4
the msg is note_off channel=9 note=72 velocity=100 time=1
the msg is note_on channel=9 note=74 velocity=100 time=10
the msg is note_off channel=9 note=74 velocity=100 time=1
the msg is note_on channel=9 note=74 velocity=100 time=10
the msg is note_off channel=9 note=74 velocity=100 time=1
the msg is note_on channel=9 note=74 velocity=100 time=10
the msg is note_off channel=9 note=74 velocity=100 time=1
the msg is note_on channel=9 note=76 velocity=100 time=10
the msg is note_off channel=9 note=76 velocity=100 time=1
the msg is note_on channel=9 note=79 velocity=100 time=10
the msg is note_off channel=9 note=79 velocity=100 time=1
the msg is note_on channel=9 note=79 velocity=100 time=6
the msg is note_off channel=9 note=79 velocity=100 time=1
the msg is note_on channel=9 note=76 velocity=100 time=3
the msg is note_off channel=9 note=76 velocity=100 time=1
the msg is note_on channel=9 note=74 velocity=100 time=6
the msg is note_off channel=9 note=74 velocity=100 time=1
the msg is note_on channel=9 note=72 velocity=100 time=3
the msg is note_off channel=9 note=72 velocity=100 time=1
the msg is note_on channel=9 note=74 velocity=100 time=10
the msg is note_off channel=9 note=74 velocity=100 time=1
the msg is note_on channel=9 note=76 velocity=100 time=10
the msg is note_off channel=9 note=76 velocity=100 time=1
the msg is note_on channel=9 note=72 velocity=100 time=4
the msg is note_off channel=9 note=72 velocity=100 time=1
the msg is note_on channel=9 note=74 velocity=100 time=4
the msg is note_off channel=9 note=74 velocity=100 time=1
the msg is note_on channel=9 note=74 velocity=100 time=10
the msg is note_off channel=9 note=74 velocity=100 time=1
the msg is note_on channel=9 note=74 velocity=100 time=10
the msg is note_off channel=9 note=74 velocity=100 time=1
the msg is note_on channel=9 note=74 velocity=100 time=4
the msg is note_off channel=9 note=74 velocity=100 time=1
the msg is note_on channel=9 note=71 velocity=100 time=4
the msg is note_off channel=9 note=71 velocity=100 time=1
the msg is note_on channel=9 note=74 velocity=100 time=10
the msg is note_off channel=9 note=74 velocity=100 time=1
the msg is note_on channel=9 note=74 velocity=100 time=10
the msg is note_off channel=9 note=74 velocity=100 time=1
the msg is note_on channel=9 note=72 velocity=100 time=3
the msg is note_off channel=9 note=72 velocity=100 time=1
the msg is note_on channel=9 note=74 velocity=100 time=10
the msg is note_off channel=9 note=74 velocity=100 time=1
the msg is note_on channel=9 note=74 velocity=100 time=10
the msg is note_off channel=9 note=74 velocity=100 time=1
the msg is note_on channel=9 note=74 velocity=100 time=4
the msg is note_off channel=9 note=74 velocity=100 time=1
the msg is note_on channel=9 note=71 velocity=100 time=4
the msg is note_off channel=9 note=71 velocity=100 time=1
the msg is note_on channel=9 note=74 velocity=100 time=4
the msg is note_off channel=9 note=74 velocity=100 time=1
the msg is note_on channel=9 note=76 velocity=100 time=10
the msg is note_off channel=9 note=76 velocity=100 time=1
the msg is note_on channel=9 note=79 velocity=100 time=10
the msg is note_off channel=9 note=79 velocity=100 time=1
the msg is note_on channel=9 note=72 velocity=100 time=3
the msg is note_off channel=9 note=72 velocity=100 time=1
the msg is note_on channel=9 note=72 velocity=100 time=6
the msg is note_off channel=9 note=72 velocity=100 time=1
the msg is note_on channel=9 note=72 velocity=100 time=3
the msg is note_off channel=9 note=72 velocity=100 time=1
the msg is note_on channel=9 note=72 velocity=100 time=10
the msg is note_off channel=9 note=72 velocity=100 time=1
the msg is note_on channel=9 note=72 velocity=100 time=4
the msg is note_off channel=9 note=72 velocity=100 time=1
the msg is note_on channel=9 note=72 velocity=100 time=4
the msg is note_off channel=9 note=72 velocity=100 time=1
the msg is <meta message end_of_track time=0>
the msg is <meta message track_name name='outTest85_512_1.0.mid' time=0>
the msg is note_on channel=9 note=69 velocity=100 time=1
the msg is note_off channel=9 note=69 velocity=100 time=1
the msg is note_on channel=9 note=72 velocity=100 time=75
the msg is note_off channel=9 note=72 velocity=100 time=1
the msg is note_on channel=9 note=72 velocity=100 time=4
the msg is note_off channel=9 note=72 velocity=100 time=1
the msg is note_on channel=9 note=72 velocity=100 time=4
the msg is note_off channel=9 note=72 velocity=100 time=1
the msg is note_on channel=9 note=72 velocity=100 time=10
the msg is note_off channel=9 note=72 velocity=100 time=1
the msg is note_on channel=9 note=74 velocity=100 time=10
the msg is note_off channel=9 note=74 velocity=100 time=1
the msg is note_on channel=9 note=74 velocity=100 time=4
the msg is note_off channel=9 note=74 velocity=100 time=1
the msg is note_on channel=9 note=71 velocity=100 time=4
the msg is note_off channel=9 note=71 velocity=100 time=1
the msg is note_on channel=9 note=74 velocity=100 time=10
the msg is note_off channel=9 note=74 velocity=100 time=1
the msg is note_on channel=9 note=74 velocity=100 time=4
the msg is note_off channel=9 note=74 velocity=100 time=1
the msg is note_on channel=9 note=71 velocity=100 time=4
the msg is note_off channel=9 note=71 velocity=100 time=1
the msg is note_on channel=9 note=71 velocity=100 time=4
the msg is note_off channel=9 note=71 velocity=100 time=1
the msg is note_on channel=9 note=69 velocity=100 time=4
the msg is note_off channel=9 note=69 velocity=100 time=1
the msg is note_on channel=9 note=72 velocity=100 time=55
the msg is note_off channel=9 note=72 velocity=100 time=1
the msg is note_on channel=9 note=72 velocity=100 time=10
the msg is note_off channel=9 note=72 velocity=100 time=1
the msg is note_on channel=9 note=72 velocity=100 time=4
the msg is note_off channel=9 note=72 velocity=100 time=1
the msg is note_on channel=9 note=72 velocity=100 time=4
the msg is note_off channel=9 note=72 velocity=100 time=1
the msg is note_on channel=9 note=72 velocity=100 time=4
the msg is note_off channel=9 note=72 velocity=100 time=1
the msg is note_on channel=9 note=76 velocity=100 time=4
the msg is note_off channel=9 note=76 velocity=100 time=1
the msg is note_on channel=9 note=79 velocity=100 time=10
the msg is note_off channel=9 note=79 velocity=100 time=1
the msg is note_on channel=9 note=76 velocity=100 time=10
the msg is note_off channel=9 note=76 velocity=100 time=1
the msg is note_on channel=9 note=79 velocity=100 time=10
the msg is note_off channel=9 note=79 velocity=100 time=1
the msg is note_on channel=9 note=79 velocity=100 time=4
the msg is note_off channel=9 note=79 velocity=100 time=1
the msg is note_on channel=9 note=76 velocity=100 time=4
the msg is note_off channel=9 note=76 velocity=100 time=1
the msg is note_on channel=9 note=74 velocity=100 time=4
the msg is note_off channel=9 note=74 velocity=100 time=1
the msg is note_on channel=9 note=72 velocity=100 time=4
the msg is note_off channel=9 note=72 velocity=100 time=1
the msg is note_on channel=9 note=74 velocity=100 time=10
the msg is note_off channel=9 note=74 velocity=100 time=1
the msg is note_on channel=9 note=74 velocity=100 time=10
the msg is note_off channel=9 note=74 velocity=100 time=1
the msg is note_on channel=9 note=74 velocity=100 time=10
the msg is note_off channel=9 note=74 velocity=100 time=1
the msg is note_on channel=9 note=76 velocity=100 time=10
the msg is note_off channel=9 note=76 velocity=100 time=1
the msg is note_on channel=9 note=79 velocity=100 time=10
the msg is note_off channel=9 note=79 velocity=100 time=1
the msg is note_on channel=9 note=79 velocity=100 time=6
the msg is note_off channel=9 note=79 velocity=100 time=1
the msg is note_on channel=9 note=76 velocity=100 time=3
the msg is note_off channel=9 note=76 velocity=100 time=1
the msg is note_on channel=9 note=74 velocity=100 time=6
the msg is note_off channel=9 note=74 velocity=100 time=1
the msg is note_on channel=9 note=72 velocity=100 time=3
the msg is note_off channel=9 note=72 velocity=100 time=1
the msg is note_on channel=9 note=74 velocity=100 time=10
the msg is note_off channel=9 note=74 velocity=100 time=1
the msg is note_on channel=9 note=76 velocity=100 time=10
the msg is note_off channel=9 note=76 velocity=100 time=1
the msg is note_on channel=9 note=72 velocity=100 time=4
the msg is note_off channel=9 note=72 velocity=100 time=1
the msg is note_on channel=9 note=74 velocity=100 time=4
the msg is note_off channel=9 note=74 velocity=100 time=1
the msg is note_on channel=9 note=74 velocity=100 time=10
the msg is note_off channel=9 note=74 velocity=100 time=1
the msg is note_on channel=9 note=74 velocity=100 time=10
the msg is note_off channel=9 note=74 velocity=100 time=1
the msg is note_on channel=9 note=74 velocity=100 time=4
the msg is note_off channel=9 note=74 velocity=100 time=1
the msg is note_on channel=9 note=71 velocity=100 time=4
the msg is note_off channel=9 note=71 velocity=100 time=1
the msg is note_on channel=9 note=74 velocity=100 time=10
the msg is note_off channel=9 note=74 velocity=100 time=1
the msg is note_on channel=9 note=74 velocity=100 time=10
the msg is note_off channel=9 note=74 velocity=100 time=1
the msg is note_on channel=9 note=72 velocity=100 time=3
the msg is note_off channel=9 note=72 velocity=100 time=1
the msg is note_on channel=9 note=74 velocity=100 time=10
the msg is note_off channel=9 note=74 velocity=100 time=1
the msg is note_on channel=9 note=74 velocity=100 time=10
the msg is note_off channel=9 note=74 velocity=100 time=1
the msg is note_on channel=9 note=74 velocity=100 time=4
the msg is note_off channel=9 note=74 velocity=100 time=1
the msg is note_on channel=9 note=71 velocity=100 time=4
the msg is note_off channel=9 note=71 velocity=100 time=1
the msg is note_on channel=9 note=74 velocity=100 time=4
the msg is note_off channel=9 note=74 velocity=100 time=1
the msg is note_on channel=9 note=76 velocity=100 time=10
the msg is note_off channel=9 note=76 velocity=100 time=1
the msg is note_on channel=9 note=79 velocity=100 time=10
the msg is note_off channel=9 note=79 velocity=100 time=1
the msg is note_on channel=9 note=72 velocity=100 time=3
the msg is note_off channel=9 note=72 velocity=100 time=1
the msg is note_on channel=9 note=72 velocity=100 time=6
the msg is note_off channel=9 note=72 velocity=100 time=1
the msg is note_on channel=9 note=72 velocity=100 time=3
the msg is note_off channel=9 note=72 velocity=100 time=1
the msg is note_on channel=9 note=72 velocity=100 time=10
the msg is note_off channel=9 note=72 velocity=100 time=1
the msg is note_on channel=9 note=72 velocity=100 time=4
the msg is note_off channel=9 note=72 velocity=100 time=1
the msg is note_on channel=9 note=72 velocity=100 time=4
the msg is note_off channel=9 note=72 velocity=100 time=1
the msg is <meta message end_of_track time=0>
the msg is <meta message track_name name='outTest85_512_1.0.mid' time=0>
the msg is note_on channel=9 note=69 velocity=100 time=1
the msg is note_off channel=9 note=69 velocity=100 time=1
the msg is note_on channel=9 note=72 velocity=100 time=75
the msg is note_off channel=9 note=72 velocity=100 time=1
the msg is note_on channel=9 note=72 velocity=100 time=4
the msg is note_off channel=9 note=72 velocity=100 time=1
the msg is note_on channel=9 note=72 velocity=100 time=4
the msg is note_off channel=9 note=72 velocity=100 time=1
the msg is note_on channel=9 note=72 velocity=100 time=10
the msg is note_off channel=9 note=72 velocity=100 time=1
the msg is note_on channel=9 note=74 velocity=100 time=10
the msg is note_off channel=9 note=74 velocity=100 time=1
the msg is note_on channel=9 note=74 velocity=100 time=4
the msg is note_off channel=9 note=74 velocity=100 time=1
the msg is note_on channel=9 note=71 velocity=100 time=4
the msg is note_off channel=9 note=71 velocity=100 time=1
the msg is note_on channel=9 note=74 velocity=100 time=10
the msg is note_off channel=9 note=74 velocity=100 time=1
the msg is note_on channel=9 note=74 velocity=100 time=4
the msg is note_off channel=9 note=74 velocity=100 time=1
the msg is note_on channel=9 note=71 velocity=100 time=4
the msg is note_off channel=9 note=71 velocity=100 time=1
the msg is note_on channel=9 note=71 velocity=100 time=4
the msg is note_off channel=9 note=71 velocity=100 time=1
the msg is note_on channel=9 note=69 velocity=100 time=4
the msg is note_off channel=9 note=69 velocity=100 time=1
the msg is note_on channel=9 note=72 velocity=100 time=55
the msg is note_off channel=9 note=72 velocity=100 time=1
the msg is note_on channel=9 note=72 velocity=100 time=10
the msg is note_off channel=9 note=72 velocity=100 time=1
the msg is note_on channel=9 note=72 velocity=100 time=4
the msg is note_off channel=9 note=72 velocity=100 time=1
the msg is note_on channel=9 note=72 velocity=100 time=4
the msg is note_off channel=9 note=72 velocity=100 time=1
the msg is note_on channel=9 note=72 velocity=100 time=4
the msg is note_off channel=9 note=72 velocity=100 time=1
the msg is note_on channel=9 note=76 velocity=100 time=4
the msg is note_off channel=9 note=76 velocity=100 time=1
the msg is note_on channel=9 note=79 velocity=100 time=10
the msg is note_off channel=9 note=79 velocity=100 time=1
the msg is note_on channel=9 note=76 velocity=100 time=10
the msg is note_off channel=9 note=76 velocity=100 time=1
the msg is note_on channel=9 note=79 velocity=100 time=10
the msg is note_off channel=9 note=79 velocity=100 time=1
the msg is note_on channel=9 note=79 velocity=100 time=4
the msg is note_off channel=9 note=79 velocity=100 time=1
the msg is note_on channel=9 note=76 velocity=100 time=4
the msg is note_off channel=9 note=76 velocity=100 time=1
the msg is note_on channel=9 note=74 velocity=100 time=4
the msg is note_off channel=9 note=74 velocity=100 time=1
the msg is note_on channel=9 note=72 velocity=100 time=4
the msg is note_off channel=9 note=72 velocity=100 time=1
the msg is note_on channel=9 note=74 velocity=100 time=10
the msg is note_off channel=9 note=74 velocity=100 time=1
the msg is note_on channel=9 note=74 velocity=100 time=10
the msg is note_off channel=9 note=74 velocity=100 time=1
the msg is note_on channel=9 note=74 velocity=100 time=10
the msg is note_off channel=9 note=74 velocity=100 time=1
the msg is note_on channel=9 note=76 velocity=100 time=10
the msg is note_off channel=9 note=76 velocity=100 time=1
the msg is note_on channel=9 note=79 velocity=100 time=10
the msg is note_off channel=9 note=79 velocity=100 time=1
the msg is note_on channel=9 note=79 velocity=100 time=6
the msg is note_off channel=9 note=79 velocity=100 time=1
the msg is note_on channel=9 note=76 velocity=100 time=3
the msg is note_off channel=9 note=76 velocity=100 time=1
the msg is note_on channel=9 note=74 velocity=100 time=6
the msg is note_off channel=9 note=74 velocity=100 time=1
the msg is note_on channel=9 note=72 velocity=100 time=3
the msg is note_off channel=9 note=72 velocity=100 time=1
the msg is note_on channel=9 note=74 velocity=100 time=10
the msg is note_off channel=9 note=74 velocity=100 time=1
the msg is note_on channel=9 note=76 velocity=100 time=10
the msg is note_off channel=9 note=76 velocity=100 time=1
the msg is note_on channel=9 note=72 velocity=100 time=4
the msg is note_off channel=9 note=72 velocity=100 time=1
the msg is note_on channel=9 note=74 velocity=100 time=4
the msg is note_off channel=9 note=74 velocity=100 time=1
the msg is note_on channel=9 note=74 velocity=100 time=10
the msg is note_off channel=9 note=74 velocity=100 time=1
the msg is note_on channel=9 note=74 velocity=100 time=10
the msg is note_off channel=9 note=74 velocity=100 time=1
the msg is note_on channel=9 note=74 velocity=100 time=4
the msg is note_off channel=9 note=74 velocity=100 time=1
the msg is note_on channel=9 note=71 velocity=100 time=4
the msg is note_off channel=9 note=71 velocity=100 time=1
the msg is note_on channel=9 note=74 velocity=100 time=10
the msg is note_off channel=9 note=74 velocity=100 time=1
the msg is note_on channel=9 note=74 velocity=100 time=10
the msg is note_off channel=9 note=74 velocity=100 time=1
the msg is note_on channel=9 note=72 velocity=100 time=3
the msg is note_off channel=9 note=72 velocity=100 time=1
the msg is note_on channel=9 note=74 velocity=100 time=10
the msg is note_off channel=9 note=74 velocity=100 time=1
the msg is note_on channel=9 note=74 velocity=100 time=10
the msg is note_off channel=9 note=74 velocity=100 time=1
the msg is note_on channel=9 note=74 velocity=100 time=4
the msg is note_off channel=9 note=74 velocity=100 time=1
the msg is note_on channel=9 note=71 velocity=100 time=4
the msg is note_off channel=9 note=71 velocity=100 time=1
the msg is note_on channel=9 note=74 velocity=100 time=4
the msg is note_off channel=9 note=74 velocity=100 time=1
the msg is note_on channel=9 note=76 velocity=100 time=10
the msg is note_off channel=9 note=76 velocity=100 time=1
the msg is note_on channel=9 note=79 velocity=100 time=10
the msg is note_off channel=9 note=79 velocity=100 time=1
the msg is note_on channel=9 note=72 velocity=100 time=3
the msg is note_off channel=9 note=72 velocity=100 time=1
the msg is note_on channel=9 note=72 velocity=100 time=6
the msg is note_off channel=9 note=72 velocity=100 time=1
the msg is note_on channel=9 note=72 velocity=100 time=3
the msg is note_off channel=9 note=72 velocity=100 time=1
the msg is note_on channel=9 note=72 velocity=100 time=10
the msg is note_off channel=9 note=72 velocity=100 time=1
the msg is note_on channel=9 note=72 velocity=100 time=4
the msg is note_off channel=9 note=72 velocity=100 time=1
the msg is note_on channel=9 note=72 velocity=100 time=4
the msg is note_off channel=9 note=72 velocity=100 time=1
the msg is <meta message end_of_track time=0>
the msg is <meta message track_name name='outTest85_512_1.0.mid' time=0>
the msg is note_on channel=9 note=69 velocity=100 time=1
the msg is note_off channel=9 note=69 velocity=100 time=1
the msg is note_on channel=9 note=72 velocity=100 time=75
the msg is note_off channel=9 note=72 velocity=100 time=1
the msg is note_on channel=9 note=72 velocity=100 time=4
the msg is note_off channel=9 note=72 velocity=100 time=1
the msg is note_on channel=9 note=72 velocity=100 time=4
the msg is note_off channel=9 note=72 velocity=100 time=1
the msg is note_on channel=9 note=72 velocity=100 time=10
the msg is note_off channel=9 note=72 velocity=100 time=1
the msg is note_on channel=9 note=74 velocity=100 time=10
the msg is note_off channel=9 note=74 velocity=100 time=1
the msg is note_on channel=9 note=74 velocity=100 time=4
the msg is note_off channel=9 note=74 velocity=100 time=1
the msg is note_on channel=9 note=71 velocity=100 time=4
the msg is note_off channel=9 note=71 velocity=100 time=1
the msg is note_on channel=9 note=74 velocity=100 time=10
the msg is note_off channel=9 note=74 velocity=100 time=1
the msg is note_on channel=9 note=74 velocity=100 time=4
the msg is note_off channel=9 note=74 velocity=100 time=1
the msg is note_on channel=9 note=71 velocity=100 time=4
the msg is note_off channel=9 note=71 velocity=100 time=1
the msg is note_on channel=9 note=71 velocity=100 time=4
the msg is note_off channel=9 note=71 velocity=100 time=1
the msg is note_on channel=9 note=69 velocity=100 time=4
the msg is note_off channel=9 note=69 velocity=100 time=1
the msg is note_on channel=9 note=72 velocity=100 time=55
the msg is note_off channel=9 note=72 velocity=100 time=1
the msg is note_on channel=9 note=72 velocity=100 time=10
the msg is note_off channel=9 note=72 velocity=100 time=1
the msg is note_on channel=9 note=72 velocity=100 time=4
the msg is note_off channel=9 note=72 velocity=100 time=1
the msg is note_on channel=9 note=72 velocity=100 time=4
the msg is note_off channel=9 note=72 velocity=100 time=1
the msg is note_on channel=9 note=72 velocity=100 time=4
the msg is note_off channel=9 note=72 velocity=100 time=1
the msg is note_on channel=9 note=76 velocity=100 time=4
the msg is note_off channel=9 note=76 velocity=100 time=1
the msg is note_on channel=9 note=79 velocity=100 time=10
the msg is note_off channel=9 note=79 velocity=100 time=1
the msg is note_on channel=9 note=76 velocity=100 time=10
the msg is note_off channel=9 note=76 velocity=100 time=1
the msg is note_on channel=9 note=79 velocity=100 time=10
the msg is note_off channel=9 note=79 velocity=100 time=1
the msg is note_on channel=9 note=79 velocity=100 time=4
the msg is note_off channel=9 note=79 velocity=100 time=1
the msg is note_on channel=9 note=76 velocity=100 time=4
the msg is note_off channel=9 note=76 velocity=100 time=1
the msg is note_on channel=9 note=74 velocity=100 time=4
the msg is note_off channel=9 note=74 velocity=100 time=1
the msg is note_on channel=9 note=72 velocity=100 time=4
the msg is note_off channel=9 note=72 velocity=100 time=1
the msg is note_on channel=9 note=74 velocity=100 time=10
the msg is note_off channel=9 note=74 velocity=100 time=1
the msg is note_on channel=9 note=74 velocity=100 time=10
the msg is note_off channel=9 note=74 velocity=100 time=1
the msg is note_on channel=9 note=74 velocity=100 time=10
the msg is note_off channel=9 note=74 velocity=100 time=1
the msg is note_on channel=9 note=76 velocity=100 time=10
the msg is note_off channel=9 note=76 velocity=100 time=1
the msg is note_on channel=9 note=79 velocity=100 time=10
the msg is note_off channel=9 note=79 velocity=100 time=1
the msg is note_on channel=9 note=79 velocity=100 time=6
the msg is note_off channel=9 note=79 velocity=100 time=1
the msg is note_on channel=9 note=76 velocity=100 time=3
the msg is note_off channel=9 note=76 velocity=100 time=1
the msg is note_on channel=9 note=74 velocity=100 time=6
the msg is note_off channel=9 note=74 velocity=100 time=1
the msg is note_on channel=9 note=72 velocity=100 time=3
the msg is note_off channel=9 note=72 velocity=100 time=1
the msg is note_on channel=9 note=74 velocity=100 time=10
the msg is note_off channel=9 note=74 velocity=100 time=1
the msg is note_on channel=9 note=76 velocity=100 time=10
the msg is note_off channel=9 note=76 velocity=100 time=1
the msg is note_on channel=9 note=72 velocity=100 time=4
the msg is note_off channel=9 note=72 velocity=100 time=1
the msg is note_on channel=9 note=74 velocity=100 time=4
the msg is note_off channel=9 note=74 velocity=100 time=1
the msg is note_on channel=9 note=74 velocity=100 time=10
the msg is note_off channel=9 note=74 velocity=100 time=1
the msg is note_on channel=9 note=74 velocity=100 time=10
the msg is note_off channel=9 note=74 velocity=100 time=1
the msg is note_on channel=9 note=74 velocity=100 time=4
the msg is note_off channel=9 note=74 velocity=100 time=1
the msg is note_on channel=9 note=71 velocity=100 time=4
the msg is note_off channel=9 note=71 velocity=100 time=1
the msg is note_on channel=9 note=74 velocity=100 time=10
the msg is note_off channel=9 note=74 velocity=100 time=1
the msg is note_on channel=9 note=74 velocity=100 time=10
the msg is note_off channel=9 note=74 velocity=100 time=1
the msg is note_on channel=9 note=72 velocity=100 time=3
the msg is note_off channel=9 note=72 velocity=100 time=1
the msg is note_on channel=9 note=74 velocity=100 time=10
the msg is note_off channel=9 note=74 velocity=100 time=1
the msg is note_on channel=9 note=74 velocity=100 time=10
the msg is note_off channel=9 note=74 velocity=100 time=1
the msg is note_on channel=9 note=74 velocity=100 time=4
the msg is note_off channel=9 note=74 velocity=100 time=1
the msg is note_on channel=9 note=71 velocity=100 time=4
the msg is note_off channel=9 note=71 velocity=100 time=1
the msg is note_on channel=9 note=74 velocity=100 time=4
the msg is note_off channel=9 note=74 velocity=100 time=1
the msg is note_on channel=9 note=76 velocity=100 time=10
the msg is note_off channel=9 note=76 velocity=100 time=1
the msg is note_on channel=9 note=79 velocity=100 time=10
the msg is note_off channel=9 note=79 velocity=100 time=1
the msg is note_on channel=9 note=72 velocity=100 time=3
the msg is note_off channel=9 note=72 velocity=100 time=1
the msg is note_on channel=9 note=72 velocity=100 time=6
the msg is note_off channel=9 note=72 velocity=100 time=1
the msg is note_on channel=9 note=72 velocity=100 time=3
the msg is note_off channel=9 note=72 velocity=100 time=1
the msg is note_on channel=9 note=72 velocity=100 time=10
the msg is note_off channel=9 note=72 velocity=100 time=1
the msg is note_on channel=9 note=72 velocity=100 time=4
the msg is note_off channel=9 note=72 velocity=100 time=1
the msg is note_on channel=9 note=72 velocity=100 time=4
the msg is note_off channel=9 note=72 velocity=100 time=1
the msg is <meta message end_of_track time=0>
the msg is <meta message track_name name='outTest85_512_1.0.mid' time=0>
the msg is note_on channel=9 note=69 velocity=100 time=1
the msg is note_off channel=9 note=69 velocity=100 time=1
the msg is note_on channel=9 note=72 velocity=100 time=75
the msg is note_off channel=9 note=72 velocity=100 time=1
the msg is note_on channel=9 note=72 velocity=100 time=4
the msg is note_off channel=9 note=72 velocity=100 time=1
the msg is note_on channel=9 note=72 velocity=100 time=4
the msg is note_off channel=9 note=72 velocity=100 time=1
the msg is note_on channel=9 note=72 velocity=100 time=10
the msg is note_off channel=9 note=72 velocity=100 time=1
the msg is note_on channel=9 note=74 velocity=100 time=10
the msg is note_off channel=9 note=74 velocity=100 time=1
the msg is note_on channel=9 note=74 velocity=100 time=4
the msg is note_off channel=9 note=74 velocity=100 time=1
the msg is note_on channel=9 note=71 velocity=100 time=4
the msg is note_off channel=9 note=71 velocity=100 time=1
the msg is note_on channel=9 note=74 velocity=100 time=10
the msg is note_off channel=9 note=74 velocity=100 time=1
the msg is note_on channel=9 note=74 velocity=100 time=4
the msg is note_off channel=9 note=74 velocity=100 time=1
the msg is note_on channel=9 note=71 velocity=100 time=4
the msg is note_off channel=9 note=71 velocity=100 time=1
the msg is note_on channel=9 note=71 velocity=100 time=4
the msg is note_off channel=9 note=71 velocity=100 time=1
the msg is note_on channel=9 note=69 velocity=100 time=4
the msg is note_off channel=9 note=69 velocity=100 time=1
the msg is note_on channel=9 note=72 velocity=100 time=55
the msg is note_off channel=9 note=72 velocity=100 time=1
the msg is note_on channel=9 note=72 velocity=100 time=10
the msg is note_off channel=9 note=72 velocity=100 time=1
the msg is note_on channel=9 note=72 velocity=100 time=4
the msg is note_off channel=9 note=72 velocity=100 time=1
the msg is note_on channel=9 note=72 velocity=100 time=4
the msg is note_off channel=9 note=72 velocity=100 time=1
the msg is note_on channel=9 note=72 velocity=100 time=4
the msg is note_off channel=9 note=72 velocity=100 time=1
the msg is note_on channel=9 note=76 velocity=100 time=4
the msg is note_off channel=9 note=76 velocity=100 time=1
the msg is note_on channel=9 note=79 velocity=100 time=10
the msg is note_off channel=9 note=79 velocity=100 time=1
the msg is note_on channel=9 note=76 velocity=100 time=10
the msg is note_off channel=9 note=76 velocity=100 time=1
the msg is note_on channel=9 note=79 velocity=100 time=10
the msg is note_off channel=9 note=79 velocity=100 time=1
the msg is note_on channel=9 note=79 velocity=100 time=4
the msg is note_off channel=9 note=79 velocity=100 time=1
the msg is note_on channel=9 note=76 velocity=100 time=4
the msg is note_off channel=9 note=76 velocity=100 time=1
the msg is note_on channel=9 note=74 velocity=100 time=4
the msg is note_off channel=9 note=74 velocity=100 time=1
the msg is note_on channel=9 note=72 velocity=100 time=4
the msg is note_off channel=9 note=72 velocity=100 time=1
the msg is note_on channel=9 note=74 velocity=100 time=10
the msg is note_off channel=9 note=74 velocity=100 time=1
the msg is note_on channel=9 note=74 velocity=100 time=10
the msg is note_off channel=9 note=74 velocity=100 time=1
the msg is note_on channel=9 note=74 velocity=100 time=10
the msg is note_off channel=9 note=74 velocity=100 time=1
the msg is note_on channel=9 note=76 velocity=100 time=10
the msg is note_off channel=9 note=76 velocity=100 time=1
the msg is note_on channel=9 note=79 velocity=100 time=10
the msg is note_off channel=9 note=79 velocity=100 time=1
the msg is note_on channel=9 note=79 velocity=100 time=6
the msg is note_off channel=9 note=79 velocity=100 time=1
the msg is note_on channel=9 note=76 velocity=100 time=3
the msg is note_off channel=9 note=76 velocity=100 time=1
the msg is note_on channel=9 note=74 velocity=100 time=6
the msg is note_off channel=9 note=74 velocity=100 time=1
the msg is note_on channel=9 note=72 velocity=100 time=3
the msg is note_off channel=9 note=72 velocity=100 time=1
the msg is note_on channel=9 note=74 velocity=100 time=10
the msg is note_off channel=9 note=74 velocity=100 time=1
the msg is note_on channel=9 note=76 velocity=100 time=10
the msg is note_off channel=9 note=76 velocity=100 time=1
the msg is note_on channel=9 note=72 velocity=100 time=4
the msg is note_off channel=9 note=72 velocity=100 time=1
the msg is note_on channel=9 note=74 velocity=100 time=4
the msg is note_off channel=9 note=74 velocity=100 time=1
the msg is note_on channel=9 note=74 velocity=100 time=10
the msg is note_off channel=9 note=74 velocity=100 time=1
the msg is note_on channel=9 note=74 velocity=100 time=10
the msg is note_off channel=9 note=74 velocity=100 time=1
the msg is note_on channel=9 note=74 velocity=100 time=4
the msg is note_off channel=9 note=74 velocity=100 time=1
the msg is note_on channel=9 note=71 velocity=100 time=4
the msg is note_off channel=9 note=71 velocity=100 time=1
the msg is note_on channel=9 note=74 velocity=100 time=10
the msg is note_off channel=9 note=74 velocity=100 time=1
the msg is note_on channel=9 note=74 velocity=100 time=10
the msg is note_off channel=9 note=74 velocity=100 time=1
the msg is note_on channel=9 note=72 velocity=100 time=3
the msg is note_off channel=9 note=72 velocity=100 time=1
the msg is note_on channel=9 note=74 velocity=100 time=10
the msg is note_off channel=9 note=74 velocity=100 time=1
the msg is note_on channel=9 note=74 velocity=100 time=10
the msg is note_off channel=9 note=74 velocity=100 time=1
the msg is note_on channel=9 note=74 velocity=100 time=4
the msg is note_off channel=9 note=74 velocity=100 time=1
the msg is note_on channel=9 note=71 velocity=100 time=4
the msg is note_off channel=9 note=71 velocity=100 time=1
the msg is note_on channel=9 note=74 velocity=100 time=4
the msg is note_off channel=9 note=74 velocity=100 time=1
the msg is note_on channel=9 note=76 velocity=100 time=10
the msg is note_off channel=9 note=76 velocity=100 time=1
the msg is note_on channel=9 note=79 velocity=100 time=10
the msg is note_off channel=9 note=79 velocity=100 time=1
the msg is note_on channel=9 note=72 velocity=100 time=3
the msg is note_off channel=9 note=72 velocity=100 time=1
the msg is note_on channel=9 note=72 velocity=100 time=6
the msg is note_off channel=9 note=72 velocity=100 time=1
the msg is note_on channel=9 note=72 velocity=100 time=3
the msg is note_off channel=9 note=72 velocity=100 time=1
the msg is note_on channel=9 note=72 velocity=100 time=10
the msg is note_off channel=9 note=72 velocity=100 time=1
the msg is note_on channel=9 note=72 velocity=100 time=4
the msg is note_off channel=9 note=72 velocity=100 time=1
the msg is note_on channel=9 note=72 velocity=100 time=4
the msg is note_off channel=9 note=72 velocity=100 time=1
the msg is <meta message end_of_track time=0>
the msg is <meta message track_name name='outTest85_512_1.0.mid' time=0>
the msg is note_on channel=9 note=69 velocity=100 time=1
the msg is note_off channel=9 note=69 velocity=100 time=1
the msg is note_on channel=9 note=72 velocity=100 time=75
the msg is note_off channel=9 note=72 velocity=100 time=1
the msg is note_on channel=9 note=72 velocity=100 time=4
the msg is note_off channel=9 note=72 velocity=100 time=1
the msg is note_on channel=9 note=72 velocity=100 time=4
the msg is note_off channel=9 note=72 velocity=100 time=1
the msg is note_on channel=9 note=72 velocity=100 time=10
the msg is note_off channel=9 note=72 velocity=100 time=1
the msg is note_on channel=9 note=74 velocity=100 time=10
the msg is note_off channel=9 note=74 velocity=100 time=1
the msg is note_on channel=9 note=74 velocity=100 time=4
the msg is note_off channel=9 note=74 velocity=100 time=1
the msg is note_on channel=9 note=71 velocity=100 time=4
the msg is note_off channel=9 note=71 velocity=100 time=1
the msg is note_on channel=9 note=74 velocity=100 time=10
the msg is note_off channel=9 note=74 velocity=100 time=1
the msg is note_on channel=9 note=74 velocity=100 time=4
the msg is note_off channel=9 note=74 velocity=100 time=1
the msg is note_on channel=9 note=71 velocity=100 time=4
the msg is note_off channel=9 note=71 velocity=100 time=1
the msg is note_on channel=9 note=71 velocity=100 time=4
the msg is note_off channel=9 note=71 velocity=100 time=1
the msg is note_on channel=9 note=69 velocity=100 time=4
the msg is note_off channel=9 note=69 velocity=100 time=1
the msg is note_on channel=9 note=72 velocity=100 time=55
the msg is note_off channel=9 note=72 velocity=100 time=1
the msg is note_on channel=9 note=72 velocity=100 time=10
the msg is note_off channel=9 note=72 velocity=100 time=1
the msg is note_on channel=9 note=72 velocity=100 time=4
the msg is note_off channel=9 note=72 velocity=100 time=1
the msg is note_on channel=9 note=72 velocity=100 time=4
the msg is note_off channel=9 note=72 velocity=100 time=1
the msg is note_on channel=9 note=72 velocity=100 time=4
the msg is note_off channel=9 note=72 velocity=100 time=1
the msg is note_on channel=9 note=76 velocity=100 time=4
the msg is note_off channel=9 note=76 velocity=100 time=1
the msg is note_on channel=9 note=79 velocity=100 time=10
the msg is note_off channel=9 note=79 velocity=100 time=1
the msg is note_on channel=9 note=76 velocity=100 time=10
the msg is note_off channel=9 note=76 velocity=100 time=1
the msg is note_on channel=9 note=79 velocity=100 time=10
the msg is note_off channel=9 note=79 velocity=100 time=1
the msg is note_on channel=9 note=79 velocity=100 time=4
the msg is note_off channel=9 note=79 velocity=100 time=1
the msg is note_on channel=9 note=76 velocity=100 time=4
the msg is note_off channel=9 note=76 velocity=100 time=1
the msg is note_on channel=9 note=74 velocity=100 time=4
the msg is note_off channel=9 note=74 velocity=100 time=1
the msg is note_on channel=9 note=72 velocity=100 time=4
the msg is note_off channel=9 note=72 velocity=100 time=1
the msg is note_on channel=9 note=74 velocity=100 time=10
the msg is note_off channel=9 note=74 velocity=100 time=1
the msg is note_on channel=9 note=74 velocity=100 time=10
the msg is note_off channel=9 note=74 velocity=100 time=1
the msg is note_on channel=9 note=74 velocity=100 time=10
the msg is note_off channel=9 note=74 velocity=100 time=1
the msg is note_on channel=9 note=76 velocity=100 time=10
the msg is note_off channel=9 note=76 velocity=100 time=1
the msg is note_on channel=9 note=79 velocity=100 time=10
the msg is note_off channel=9 note=79 velocity=100 time=1
the msg is note_on channel=9 note=79 velocity=100 time=6
the msg is note_off channel=9 note=79 velocity=100 time=1
the msg is note_on channel=9 note=76 velocity=100 time=3
the msg is note_off channel=9 note=76 velocity=100 time=1
the msg is note_on channel=9 note=74 velocity=100 time=6
the msg is note_off channel=9 note=74 velocity=100 time=1
the msg is note_on channel=9 note=72 velocity=100 time=3
the msg is note_off channel=9 note=72 velocity=100 time=1
the msg is note_on channel=9 note=74 velocity=100 time=10
the msg is note_off channel=9 note=74 velocity=100 time=1
the msg is note_on channel=9 note=76 velocity=100 time=10
the msg is note_off channel=9 note=76 velocity=100 time=1
the msg is note_on channel=9 note=72 velocity=100 time=4
the msg is note_off channel=9 note=72 velocity=100 time=1
the msg is note_on channel=9 note=74 velocity=100 time=4
the msg is note_off channel=9 note=74 velocity=100 time=1
the msg is note_on channel=9 note=74 velocity=100 time=10
the msg is note_off channel=9 note=74 velocity=100 time=1
the msg is note_on channel=9 note=74 velocity=100 time=10
the msg is note_off channel=9 note=74 velocity=100 time=1
the msg is note_on channel=9 note=74 velocity=100 time=4
the msg is note_off channel=9 note=74 velocity=100 time=1
the msg is note_on channel=9 note=71 velocity=100 time=4
the msg is note_off channel=9 note=71 velocity=100 time=1
the msg is note_on channel=9 note=74 velocity=100 time=10
the msg is note_off channel=9 note=74 velocity=100 time=1
the msg is note_on channel=9 note=74 velocity=100 time=10
the msg is note_off channel=9 note=74 velocity=100 time=1
the msg is note_on channel=9 note=72 velocity=100 time=3
the msg is note_off channel=9 note=72 velocity=100 time=1
the msg is note_on channel=9 note=74 velocity=100 time=10
the msg is note_off channel=9 note=74 velocity=100 time=1
the msg is note_on channel=9 note=74 velocity=100 time=10
the msg is note_off channel=9 note=74 velocity=100 time=1
the msg is note_on channel=9 note=74 velocity=100 time=4
the msg is note_off channel=9 note=74 velocity=100 time=1
the msg is note_on channel=9 note=71 velocity=100 time=4
the msg is note_off channel=9 note=71 velocity=100 time=1
the msg is note_on channel=9 note=74 velocity=100 time=4
the msg is note_off channel=9 note=74 velocity=100 time=1
the msg is note_on channel=9 note=76 velocity=100 time=10
the msg is note_off channel=9 note=76 velocity=100 time=1
the msg is note_on channel=9 note=79 velocity=100 time=10
the msg is note_off channel=9 note=79 velocity=100 time=1
the msg is note_on channel=9 note=72 velocity=100 time=3
the msg is note_off channel=9 note=72 velocity=100 time=1
the msg is note_on channel=9 note=72 velocity=100 time=6
the msg is note_off channel=9 note=72 velocity=100 time=1
the msg is note_on channel=9 note=72 velocity=100 time=3
the msg is note_off channel=9 note=72 velocity=100 time=1
the msg is note_on channel=9 note=72 velocity=100 time=10
the msg is note_off channel=9 note=72 velocity=100 time=1
the msg is note_on channel=9 note=72 velocity=100 time=4
the msg is note_off channel=9 note=72 velocity=100 time=1
the msg is note_on channel=9 note=72 velocity=100 time=4
the msg is note_off channel=9 note=72 velocity=100 time=1
the msg is <meta message end_of_track time=0>
the msg is <meta message track_name name='outTest85_512_1.0.mid' time=0>
the msg is note_on channel=9 note=69 velocity=100 time=1
the msg is note_off channel=9 note=69 velocity=100 time=1
the msg is note_on channel=9 note=72 velocity=100 time=75
the msg is note_off channel=9 note=72 velocity=100 time=1
the msg is note_on channel=9 note=72 velocity=100 time=4
the msg is note_off channel=9 note=72 velocity=100 time=1
the msg is note_on channel=9 note=72 velocity=100 time=4
the msg is note_off channel=9 note=72 velocity=100 time=1
the msg is note_on channel=9 note=72 velocity=100 time=10
the msg is note_off channel=9 note=72 velocity=100 time=1
the msg is note_on channel=9 note=74 velocity=100 time=10
the msg is note_off channel=9 note=74 velocity=100 time=1
the msg is note_on channel=9 note=74 velocity=100 time=4
the msg is note_off channel=9 note=74 velocity=100 time=1
the msg is note_on channel=9 note=71 velocity=100 time=4
the msg is note_off channel=9 note=71 velocity=100 time=1
the msg is note_on channel=9 note=74 velocity=100 time=10
the msg is note_off channel=9 note=74 velocity=100 time=1
the msg is note_on channel=9 note=74 velocity=100 time=4
the msg is note_off channel=9 note=74 velocity=100 time=1
the msg is note_on channel=9 note=71 velocity=100 time=4
the msg is note_off channel=9 note=71 velocity=100 time=1
the msg is note_on channel=9 note=71 velocity=100 time=4
the msg is note_off channel=9 note=71 velocity=100 time=1
the msg is note_on channel=9 note=69 velocity=100 time=4
the msg is note_off channel=9 note=69 velocity=100 time=1
the msg is note_on channel=9 note=72 velocity=100 time=55
the msg is note_off channel=9 note=72 velocity=100 time=1
the msg is note_on channel=9 note=72 velocity=100 time=10
the msg is note_off channel=9 note=72 velocity=100 time=1
the msg is note_on channel=9 note=72 velocity=100 time=4
the msg is note_off channel=9 note=72 velocity=100 time=1
the msg is note_on channel=9 note=72 velocity=100 time=4
the msg is note_off channel=9 note=72 velocity=100 time=1
the msg is note_on channel=9 note=72 velocity=100 time=4
the msg is note_off channel=9 note=72 velocity=100 time=1
the msg is note_on channel=9 note=76 velocity=100 time=4
the msg is note_off channel=9 note=76 velocity=100 time=1
the msg is note_on channel=9 note=79 velocity=100 time=10
the msg is note_off channel=9 note=79 velocity=100 time=1
the msg is note_on channel=9 note=76 velocity=100 time=10
the msg is note_off channel=9 note=76 velocity=100 time=1
the msg is note_on channel=9 note=79 velocity=100 time=10
the msg is note_off channel=9 note=79 velocity=100 time=1
the msg is note_on channel=9 note=79 velocity=100 time=4
the msg is note_off channel=9 note=79 velocity=100 time=1
the msg is note_on channel=9 note=76 velocity=100 time=4
the msg is note_off channel=9 note=76 velocity=100 time=1
the msg is note_on channel=9 note=74 velocity=100 time=4
the msg is note_off channel=9 note=74 velocity=100 time=1
the msg is note_on channel=9 note=72 velocity=100 time=4
the msg is note_off channel=9 note=72 velocity=100 time=1
the msg is note_on channel=9 note=74 velocity=100 time=10
the msg is note_off channel=9 note=74 velocity=100 time=1
the msg is note_on channel=9 note=74 velocity=100 time=10
the msg is note_off channel=9 note=74 velocity=100 time=1
the msg is note_on channel=9 note=74 velocity=100 time=10
the msg is note_off channel=9 note=74 velocity=100 time=1
the msg is note_on channel=9 note=76 velocity=100 time=10
the msg is note_off channel=9 note=76 velocity=100 time=1
the msg is note_on channel=9 note=79 velocity=100 time=10
the msg is note_off channel=9 note=79 velocity=100 time=1
the msg is note_on channel=9 note=79 velocity=100 time=6
the msg is note_off channel=9 note=79 velocity=100 time=1
the msg is note_on channel=9 note=76 velocity=100 time=3
the msg is note_off channel=9 note=76 velocity=100 time=1
the msg is note_on channel=9 note=74 velocity=100 time=6
the msg is note_off channel=9 note=74 velocity=100 time=1
the msg is note_on channel=9 note=72 velocity=100 time=3
the msg is note_off channel=9 note=72 velocity=100 time=1
the msg is note_on channel=9 note=74 velocity=100 time=10
the msg is note_off channel=9 note=74 velocity=100 time=1
the msg is note_on channel=9 note=76 velocity=100 time=10
the msg is note_off channel=9 note=76 velocity=100 time=1
the msg is note_on channel=9 note=72 velocity=100 time=4
the msg is note_off channel=9 note=72 velocity=100 time=1
the msg is note_on channel=9 note=74 velocity=100 time=4
the msg is note_off channel=9 note=74 velocity=100 time=1
the msg is note_on channel=9 note=74 velocity=100 time=10
the msg is note_off channel=9 note=74 velocity=100 time=1
the msg is note_on channel=9 note=74 velocity=100 time=10
the msg is note_off channel=9 note=74 velocity=100 time=1
the msg is note_on channel=9 note=74 velocity=100 time=4
the msg is note_off channel=9 note=74 velocity=100 time=1
the msg is note_on channel=9 note=71 velocity=100 time=4
the msg is note_off channel=9 note=71 velocity=100 time=1
the msg is note_on channel=9 note=74 velocity=100 time=10
the msg is note_off channel=9 note=74 velocity=100 time=1
the msg is note_on channel=9 note=74 velocity=100 time=10
the msg is note_off channel=9 note=74 velocity=100 time=1
the msg is note_on channel=9 note=72 velocity=100 time=3
the msg is note_off channel=9 note=72 velocity=100 time=1
the msg is note_on channel=9 note=74 velocity=100 time=10
the msg is note_off channel=9 note=74 velocity=100 time=1
the msg is note_on channel=9 note=74 velocity=100 time=10
the msg is note_off channel=9 note=74 velocity=100 time=1
the msg is note_on channel=9 note=74 velocity=100 time=4
the msg is note_off channel=9 note=74 velocity=100 time=1
the msg is note_on channel=9 note=71 velocity=100 time=4
the msg is note_off channel=9 note=71 velocity=100 time=1
the msg is note_on channel=9 note=74 velocity=100 time=4
the msg is note_off channel=9 note=74 velocity=100 time=1
the msg is note_on channel=9 note=76 velocity=100 time=10
the msg is note_off channel=9 note=76 velocity=100 time=1
the msg is note_on channel=9 note=79 velocity=100 time=10
the msg is note_off channel=9 note=79 velocity=100 time=1
the msg is note_on channel=9 note=72 velocity=100 time=3
the msg is note_off channel=9 note=72 velocity=100 time=1
the msg is note_on channel=9 note=72 velocity=100 time=6
the msg is note_off channel=9 note=72 velocity=100 time=1
the msg is note_on channel=9 note=72 velocity=100 time=3
the msg is note_off channel=9 note=72 velocity=100 time=1
the msg is note_on channel=9 note=72 velocity=100 time=10
the msg is note_off channel=9 note=72 velocity=100 time=1
the msg is note_on channel=9 note=72 velocity=100 time=4
the msg is note_off channel=9 note=72 velocity=100 time=1
the msg is note_on channel=9 note=72 velocity=100 time=4
the msg is note_off channel=9 note=72 velocity=100 time=1
the msg is <meta message end_of_track time=0>
the msg is <meta message track_name name='outTest85_512_1.0.mid' time=0>
the msg is note_on channel=9 note=69 velocity=100 time=1
the msg is note_off channel=9 note=69 velocity=100 time=1
the msg is note_on channel=9 note=72 velocity=100 time=75
the msg is note_off channel=9 note=72 velocity=100 time=1
the msg is note_on channel=9 note=72 velocity=100 time=4
the msg is note_off channel=9 note=72 velocity=100 time=1
the msg is note_on channel=9 note=72 velocity=100 time=4
the msg is note_off channel=9 note=72 velocity=100 time=1
the msg is note_on channel=9 note=72 velocity=100 time=10
the msg is note_off channel=9 note=72 velocity=100 time=1
the msg is note_on channel=9 note=74 velocity=100 time=10
the msg is note_off channel=9 note=74 velocity=100 time=1
the msg is note_on channel=9 note=74 velocity=100 time=4
the msg is note_off channel=9 note=74 velocity=100 time=1
the msg is note_on channel=9 note=71 velocity=100 time=4
the msg is note_off channel=9 note=71 velocity=100 time=1
the msg is note_on channel=9 note=74 velocity=100 time=10
the msg is note_off channel=9 note=74 velocity=100 time=1
the msg is note_on channel=9 note=74 velocity=100 time=4
the msg is note_off channel=9 note=74 velocity=100 time=1
the msg is note_on channel=9 note=71 velocity=100 time=4
the msg is note_off channel=9 note=71 velocity=100 time=1
the msg is note_on channel=9 note=71 velocity=100 time=4
the msg is note_off channel=9 note=71 velocity=100 time=1
the msg is note_on channel=9 note=69 velocity=100 time=4
the msg is note_off channel=9 note=69 velocity=100 time=1
the msg is note_on channel=9 note=72 velocity=100 time=55
the msg is note_off channel=9 note=72 velocity=100 time=1
the msg is note_on channel=9 note=72 velocity=100 time=10
the msg is note_off channel=9 note=72 velocity=100 time=1
the msg is note_on channel=9 note=72 velocity=100 time=4
the msg is note_off channel=9 note=72 velocity=100 time=1
the msg is note_on channel=9 note=72 velocity=100 time=4
the msg is note_off channel=9 note=72 velocity=100 time=1
the msg is note_on channel=9 note=72 velocity=100 time=4
the msg is note_off channel=9 note=72 velocity=100 time=1
the msg is note_on channel=9 note=76 velocity=100 time=4
the msg is note_off channel=9 note=76 velocity=100 time=1
the msg is note_on channel=9 note=79 velocity=100 time=10
the msg is note_off channel=9 note=79 velocity=100 time=1
the msg is note_on channel=9 note=76 velocity=100 time=10
the msg is note_off channel=9 note=76 velocity=100 time=1
the msg is note_on channel=9 note=79 velocity=100 time=10
the msg is note_off channel=9 note=79 velocity=100 time=1
the msg is note_on channel=9 note=79 velocity=100 time=4
the msg is note_off channel=9 note=79 velocity=100 time=1
the msg is note_on channel=9 note=76 velocity=100 time=4
the msg is note_off channel=9 note=76 velocity=100 time=1
the msg is note_on channel=9 note=74 velocity=100 time=4
the msg is note_off channel=9 note=74 velocity=100 time=1
the msg is note_on channel=9 note=72 velocity=100 time=4
the msg is note_off channel=9 note=72 velocity=100 time=1
the msg is note_on channel=9 note=74 velocity=100 time=10
the msg is note_off channel=9 note=74 velocity=100 time=1
the msg is note_on channel=9 note=74 velocity=100 time=10
the msg is note_off channel=9 note=74 velocity=100 time=1
the msg is note_on channel=9 note=74 velocity=100 time=10
the msg is note_off channel=9 note=74 velocity=100 time=1
the msg is note_on channel=9 note=76 velocity=100 time=10
the msg is note_off channel=9 note=76 velocity=100 time=1
the msg is note_on channel=9 note=79 velocity=100 time=10
the msg is note_off channel=9 note=79 velocity=100 time=1
the msg is note_on channel=9 note=79 velocity=100 time=6
the msg is note_off channel=9 note=79 velocity=100 time=1
the msg is note_on channel=9 note=76 velocity=100 time=3
the msg is note_off channel=9 note=76 velocity=100 time=1
the msg is note_on channel=9 note=74 velocity=100 time=6
the msg is note_off channel=9 note=74 velocity=100 time=1
the msg is note_on channel=9 note=72 velocity=100 time=3
the msg is note_off channel=9 note=72 velocity=100 time=1
the msg is note_on channel=9 note=74 velocity=100 time=10
the msg is note_off channel=9 note=74 velocity=100 time=1
the msg is note_on channel=9 note=76 velocity=100 time=10
the msg is note_off channel=9 note=76 velocity=100 time=1
the msg is note_on channel=9 note=72 velocity=100 time=4
the msg is note_off channel=9 note=72 velocity=100 time=1
the msg is note_on channel=9 note=74 velocity=100 time=4
the msg is note_off channel=9 note=74 velocity=100 time=1
the msg is note_on channel=9 note=74 velocity=100 time=10
the msg is note_off channel=9 note=74 velocity=100 time=1
the msg is note_on channel=9 note=74 velocity=100 time=10
the msg is note_off channel=9 note=74 velocity=100 time=1
the msg is note_on channel=9 note=74 velocity=100 time=4
the msg is note_off channel=9 note=74 velocity=100 time=1
the msg is note_on channel=9 note=71 velocity=100 time=4
the msg is note_off channel=9 note=71 velocity=100 time=1
the msg is note_on channel=9 note=74 velocity=100 time=10
the msg is note_off channel=9 note=74 velocity=100 time=1
the msg is note_on channel=9 note=74 velocity=100 time=10
the msg is note_off channel=9 note=74 velocity=100 time=1
the msg is note_on channel=9 note=72 velocity=100 time=3
the msg is note_off channel=9 note=72 velocity=100 time=1
the msg is note_on channel=9 note=74 velocity=100 time=10
the msg is note_off channel=9 note=74 velocity=100 time=1
the msg is note_on channel=9 note=74 velocity=100 time=10
the msg is note_off channel=9 note=74 velocity=100 time=1
the msg is note_on channel=9 note=74 velocity=100 time=4
the msg is note_off channel=9 note=74 velocity=100 time=1
the msg is note_on channel=9 note=71 velocity=100 time=4
the msg is note_off channel=9 note=71 velocity=100 time=1
the msg is note_on channel=9 note=74 velocity=100 time=4
the msg is note_off channel=9 note=74 velocity=100 time=1
the msg is note_on channel=9 note=76 velocity=100 time=10
the msg is note_off channel=9 note=76 velocity=100 time=1
the msg is note_on channel=9 note=79 velocity=100 time=10
the msg is note_off channel=9 note=79 velocity=100 time=1
the msg is note_on channel=9 note=72 velocity=100 time=3
the msg is note_off channel=9 note=72 velocity=100 time=1
the msg is note_on channel=9 note=72 velocity=100 time=6
the msg is note_off channel=9 note=72 velocity=100 time=1
the msg is note_on channel=9 note=72 velocity=100 time=3
the msg is note_off channel=9 note=72 velocity=100 time=1
the msg is note_on channel=9 note=72 velocity=100 time=10
the msg is note_off channel=9 note=72 velocity=100 time=1
the msg is note_on channel=9 note=72 velocity=100 time=4
the msg is note_off channel=9 note=72 velocity=100 time=1
the msg is note_on channel=9 note=72 velocity=100 time=4
the msg is note_off channel=9 note=72 velocity=100 time=1
the msg is <meta message end_of_track time=0>
the msg is <meta message track_name name='outTest85_512_1.0.mid' time=0>
the msg is note_on channel=9 note=69 velocity=100 time=1
the msg is note_off channel=9 note=69 velocity=100 time=1
the msg is note_on channel=9 note=72 velocity=100 time=75
the msg is note_off channel=9 note=72 velocity=100 time=1
the msg is note_on channel=9 note=72 velocity=100 time=4
the msg is note_off channel=9 note=72 velocity=100 time=1
the msg is note_on channel=9 note=72 velocity=100 time=4
the msg is note_off channel=9 note=72 velocity=100 time=1
the msg is note_on channel=9 note=72 velocity=100 time=10
the msg is note_off channel=9 note=72 velocity=100 time=1
the msg is note_on channel=9 note=74 velocity=100 time=10
the msg is note_off channel=9 note=74 velocity=100 time=1
the msg is note_on channel=9 note=74 velocity=100 time=4
the msg is note_off channel=9 note=74 velocity=100 time=1
the msg is note_on channel=9 note=71 velocity=100 time=4
the msg is note_off channel=9 note=71 velocity=100 time=1
the msg is note_on channel=9 note=74 velocity=100 time=10
the msg is note_off channel=9 note=74 velocity=100 time=1
the msg is note_on channel=9 note=74 velocity=100 time=4
the msg is note_off channel=9 note=74 velocity=100 time=1
the msg is note_on channel=9 note=71 velocity=100 time=4
the msg is note_off channel=9 note=71 velocity=100 time=1
the msg is note_on channel=9 note=71 velocity=100 time=4
the msg is note_off channel=9 note=71 velocity=100 time=1
the msg is note_on channel=9 note=69 velocity=100 time=4
the msg is note_off channel=9 note=69 velocity=100 time=1
the msg is note_on channel=9 note=72 velocity=100 time=55
the msg is note_off channel=9 note=72 velocity=100 time=1
the msg is note_on channel=9 note=72 velocity=100 time=10
the msg is note_off channel=9 note=72 velocity=100 time=1
the msg is note_on channel=9 note=72 velocity=100 time=4
the msg is note_off channel=9 note=72 velocity=100 time=1
the msg is note_on channel=9 note=72 velocity=100 time=4
the msg is note_off channel=9 note=72 velocity=100 time=1
the msg is note_on channel=9 note=72 velocity=100 time=4
the msg is note_off channel=9 note=72 velocity=100 time=1
the msg is note_on channel=9 note=76 velocity=100 time=4
the msg is note_off channel=9 note=76 velocity=100 time=1
the msg is note_on channel=9 note=79 velocity=100 time=10
the msg is note_off channel=9 note=79 velocity=100 time=1
the msg is note_on channel=9 note=76 velocity=100 time=10
the msg is note_off channel=9 note=76 velocity=100 time=1
the msg is note_on channel=9 note=79 velocity=100 time=10
the msg is note_off channel=9 note=79 velocity=100 time=1
the msg is note_on channel=9 note=79 velocity=100 time=4
the msg is note_off channel=9 note=79 velocity=100 time=1
the msg is note_on channel=9 note=76 velocity=100 time=4
the msg is note_off channel=9 note=76 velocity=100 time=1
the msg is note_on channel=9 note=74 velocity=100 time=4
the msg is note_off channel=9 note=74 velocity=100 time=1
the msg is note_on channel=9 note=72 velocity=100 time=4
the msg is note_off channel=9 note=72 velocity=100 time=1
the msg is note_on channel=9 note=74 velocity=100 time=10
the msg is note_off channel=9 note=74 velocity=100 time=1
the msg is note_on channel=9 note=74 velocity=100 time=10
the msg is note_off channel=9 note=74 velocity=100 time=1
the msg is note_on channel=9 note=74 velocity=100 time=10
the msg is note_off channel=9 note=74 velocity=100 time=1
the msg is note_on channel=9 note=76 velocity=100 time=10
the msg is note_off channel=9 note=76 velocity=100 time=1
the msg is note_on channel=9 note=79 velocity=100 time=10
the msg is note_off channel=9 note=79 velocity=100 time=1
the msg is note_on channel=9 note=79 velocity=100 time=6
the msg is note_off channel=9 note=79 velocity=100 time=1
the msg is note_on channel=9 note=76 velocity=100 time=3
the msg is note_off channel=9 note=76 velocity=100 time=1
the msg is note_on channel=9 note=74 velocity=100 time=6
the msg is note_off channel=9 note=74 velocity=100 time=1
the msg is note_on channel=9 note=72 velocity=100 time=3
the msg is note_off channel=9 note=72 velocity=100 time=1
the msg is note_on channel=9 note=74 velocity=100 time=10
the msg is note_off channel=9 note=74 velocity=100 time=1
the msg is note_on channel=9 note=76 velocity=100 time=10
the msg is note_off channel=9 note=76 velocity=100 time=1
the msg is note_on channel=9 note=72 velocity=100 time=4
the msg is note_off channel=9 note=72 velocity=100 time=1
the msg is note_on channel=9 note=74 velocity=100 time=4
the msg is note_off channel=9 note=74 velocity=100 time=1
the msg is note_on channel=9 note=74 velocity=100 time=10
the msg is note_off channel=9 note=74 velocity=100 time=1
the msg is note_on channel=9 note=74 velocity=100 time=10
the msg is note_off channel=9 note=74 velocity=100 time=1
the msg is note_on channel=9 note=74 velocity=100 time=4
the msg is note_off channel=9 note=74 velocity=100 time=1
the msg is note_on channel=9 note=71 velocity=100 time=4
the msg is note_off channel=9 note=71 velocity=100 time=1
the msg is note_on channel=9 note=74 velocity=100 time=10
the msg is note_off channel=9 note=74 velocity=100 time=1
the msg is note_on channel=9 note=74 velocity=100 time=10
the msg is note_off channel=9 note=74 velocity=100 time=1
the msg is note_on channel=9 note=72 velocity=100 time=3
the msg is note_off channel=9 note=72 velocity=100 time=1
the msg is note_on channel=9 note=74 velocity=100 time=10
the msg is note_off channel=9 note=74 velocity=100 time=1
the msg is note_on channel=9 note=74 velocity=100 time=10
the msg is note_off channel=9 note=74 velocity=100 time=1
the msg is note_on channel=9 note=74 velocity=100 time=4
the msg is note_off channel=9 note=74 velocity=100 time=1
the msg is note_on channel=9 note=71 velocity=100 time=4
the msg is note_off channel=9 note=71 velocity=100 time=1
the msg is note_on channel=9 note=74 velocity=100 time=4
the msg is note_off channel=9 note=74 velocity=100 time=1
the msg is note_on channel=9 note=76 velocity=100 time=10
the msg is note_off channel=9 note=76 velocity=100 time=1
the msg is note_on channel=9 note=79 velocity=100 time=10
the msg is note_off channel=9 note=79 velocity=100 time=1
the msg is note_on channel=9 note=72 velocity=100 time=3
the msg is note_off channel=9 note=72 velocity=100 time=1
the msg is note_on channel=9 note=72 velocity=100 time=6
the msg is note_off channel=9 note=72 velocity=100 time=1
the msg is note_on channel=9 note=72 velocity=100 time=3
the msg is note_off channel=9 note=72 velocity=100 time=1
the msg is note_on channel=9 note=72 velocity=100 time=10
the msg is note_off channel=9 note=72 velocity=100 time=1
the msg is note_on channel=9 note=72 velocity=100 time=4
the msg is note_off channel=9 note=72 velocity=100 time=1
the msg is note_on channel=9 note=72 velocity=100 time=4
the msg is note_off channel=9 note=72 velocity=100 time=1
the msg is <meta message end_of_track time=0>
the msg is <meta message track_name name='outTest85_512_1.0.mid' time=0>
the msg is note_on channel=9 note=69 velocity=100 time=1
the msg is note_off channel=9 note=69 velocity=100 time=1
the msg is note_on channel=9 note=72 velocity=100 time=75
the msg is note_off channel=9 note=72 velocity=100 time=1
the msg is note_on channel=9 note=72 velocity=100 time=4
the msg is note_off channel=9 note=72 velocity=100 time=1
the msg is note_on channel=9 note=72 velocity=100 time=4
the msg is note_off channel=9 note=72 velocity=100 time=1
the msg is note_on channel=9 note=72 velocity=100 time=10
the msg is note_off channel=9 note=72 velocity=100 time=1
the msg is note_on channel=9 note=74 velocity=100 time=10
the msg is note_off channel=9 note=74 velocity=100 time=1
the msg is note_on channel=9 note=74 velocity=100 time=4
the msg is note_off channel=9 note=74 velocity=100 time=1
the msg is note_on channel=9 note=71 velocity=100 time=4
the msg is note_off channel=9 note=71 velocity=100 time=1
the msg is note_on channel=9 note=74 velocity=100 time=10
the msg is note_off channel=9 note=74 velocity=100 time=1
the msg is note_on channel=9 note=74 velocity=100 time=4
the msg is note_off channel=9 note=74 velocity=100 time=1
the msg is note_on channel=9 note=71 velocity=100 time=4
the msg is note_off channel=9 note=71 velocity=100 time=1
the msg is note_on channel=9 note=71 velocity=100 time=4
the msg is note_off channel=9 note=71 velocity=100 time=1
the msg is note_on channel=9 note=69 velocity=100 time=4
the msg is note_off channel=9 note=69 velocity=100 time=1
the msg is note_on channel=9 note=72 velocity=100 time=55
the msg is note_off channel=9 note=72 velocity=100 time=1
the msg is note_on channel=9 note=72 velocity=100 time=10
the msg is note_off channel=9 note=72 velocity=100 time=1
the msg is note_on channel=9 note=72 velocity=100 time=4
the msg is note_off channel=9 note=72 velocity=100 time=1
the msg is note_on channel=9 note=72 velocity=100 time=4
the msg is note_off channel=9 note=72 velocity=100 time=1
the msg is note_on channel=9 note=72 velocity=100 time=4
the msg is note_off channel=9 note=72 velocity=100 time=1
the msg is note_on channel=9 note=76 velocity=100 time=4
the msg is note_off channel=9 note=76 velocity=100 time=1
the msg is note_on channel=9 note=79 velocity=100 time=10
the msg is note_off channel=9 note=79 velocity=100 time=1
the msg is note_on channel=9 note=76 velocity=100 time=10
the msg is note_off channel=9 note=76 velocity=100 time=1
the msg is note_on channel=9 note=79 velocity=100 time=10
the msg is note_off channel=9 note=79 velocity=100 time=1
the msg is note_on channel=9 note=79 velocity=100 time=4
the msg is note_off channel=9 note=79 velocity=100 time=1
the msg is note_on channel=9 note=76 velocity=100 time=4
the msg is note_off channel=9 note=76 velocity=100 time=1
the msg is note_on channel=9 note=74 velocity=100 time=4
the msg is note_off channel=9 note=74 velocity=100 time=1
the msg is note_on channel=9 note=72 velocity=100 time=4
the msg is note_off channel=9 note=72 velocity=100 time=1
the msg is note_on channel=9 note=74 velocity=100 time=10
the msg is note_off channel=9 note=74 velocity=100 time=1
the msg is note_on channel=9 note=74 velocity=100 time=10
the msg is note_off channel=9 note=74 velocity=100 time=1
the msg is note_on channel=9 note=74 velocity=100 time=10
the msg is note_off channel=9 note=74 velocity=100 time=1
the msg is note_on channel=9 note=76 velocity=100 time=10
the msg is note_off channel=9 note=76 velocity=100 time=1
the msg is note_on channel=9 note=79 velocity=100 time=10
the msg is note_off channel=9 note=79 velocity=100 time=1
the msg is note_on channel=9 note=79 velocity=100 time=6
the msg is note_off channel=9 note=79 velocity=100 time=1
the msg is note_on channel=9 note=76 velocity=100 time=3
the msg is note_off channel=9 note=76 velocity=100 time=1
the msg is note_on channel=9 note=74 velocity=100 time=6
the msg is note_off channel=9 note=74 velocity=100 time=1
the msg is note_on channel=9 note=72 velocity=100 time=3
the msg is note_off channel=9 note=72 velocity=100 time=1
the msg is note_on channel=9 note=74 velocity=100 time=10
the msg is note_off channel=9 note=74 velocity=100 time=1
the msg is note_on channel=9 note=76 velocity=100 time=10
the msg is note_off channel=9 note=76 velocity=100 time=1
the msg is note_on channel=9 note=72 velocity=100 time=4
the msg is note_off channel=9 note=72 velocity=100 time=1
the msg is note_on channel=9 note=74 velocity=100 time=4
the msg is note_off channel=9 note=74 velocity=100 time=1
the msg is note_on channel=9 note=74 velocity=100 time=10
the msg is note_off channel=9 note=74 velocity=100 time=1
the msg is note_on channel=9 note=74 velocity=100 time=10
the msg is note_off channel=9 note=74 velocity=100 time=1
the msg is note_on channel=9 note=74 velocity=100 time=4
the msg is note_off channel=9 note=74 velocity=100 time=1
the msg is note_on channel=9 note=71 velocity=100 time=4
the msg is note_off channel=9 note=71 velocity=100 time=1
the msg is note_on channel=9 note=74 velocity=100 time=10
the msg is note_off channel=9 note=74 velocity=100 time=1
the msg is note_on channel=9 note=74 velocity=100 time=10
the msg is note_off channel=9 note=74 velocity=100 time=1
the msg is note_on channel=9 note=72 velocity=100 time=3
the msg is note_off channel=9 note=72 velocity=100 time=1
the msg is note_on channel=9 note=74 velocity=100 time=10
the msg is note_off channel=9 note=74 velocity=100 time=1
the msg is note_on channel=9 note=74 velocity=100 time=10
the msg is note_off channel=9 note=74 velocity=100 time=1
the msg is note_on channel=9 note=74 velocity=100 time=4
the msg is note_off channel=9 note=74 velocity=100 time=1
the msg is note_on channel=9 note=71 velocity=100 time=4
the msg is note_off channel=9 note=71 velocity=100 time=1
the msg is note_on channel=9 note=74 velocity=100 time=4
the msg is note_off channel=9 note=74 velocity=100 time=1
the msg is note_on channel=9 note=76 velocity=100 time=10
the msg is note_off channel=9 note=76 velocity=100 time=1
the msg is note_on channel=9 note=79 velocity=100 time=10
the msg is note_off channel=9 note=79 velocity=100 time=1
the msg is note_on channel=9 note=72 velocity=100 time=3
the msg is note_off channel=9 note=72 velocity=100 time=1
the msg is note_on channel=9 note=72 velocity=100 time=6
the msg is note_off channel=9 note=72 velocity=100 time=1
the msg is note_on channel=9 note=72 velocity=100 time=3
the msg is note_off channel=9 note=72 velocity=100 time=1
the msg is note_on channel=9 note=72 velocity=100 time=10
the msg is note_off channel=9 note=72 velocity=100 time=1
the msg is note_on channel=9 note=72 velocity=100 time=4
the msg is note_off channel=9 note=72 velocity=100 time=1
the msg is note_on channel=9 note=72 velocity=100 time=4
the msg is note_off channel=9 note=72 velocity=100 time=1
the msg is <meta message end_of_track time=0>
the msg is <meta message track_name name='outTest85_512_1.0.mid' time=0>
the msg is note_on channel=9 note=69 velocity=100 time=1
the msg is note_off channel=9 note=69 velocity=100 time=1
the msg is note_on channel=9 note=72 velocity=100 time=75
the msg is note_off channel=9 note=72 velocity=100 time=1
the msg is note_on channel=9 note=72 velocity=100 time=4
the msg is note_off channel=9 note=72 velocity=100 time=1
the msg is note_on channel=9 note=72 velocity=100 time=4
the msg is note_off channel=9 note=72 velocity=100 time=1
the msg is note_on channel=9 note=72 velocity=100 time=10
the msg is note_off channel=9 note=72 velocity=100 time=1
the msg is note_on channel=9 note=74 velocity=100 time=10
the msg is note_off channel=9 note=74 velocity=100 time=1
the msg is note_on channel=9 note=74 velocity=100 time=4
the msg is note_off channel=9 note=74 velocity=100 time=1
the msg is note_on channel=9 note=71 velocity=100 time=4
the msg is note_off channel=9 note=71 velocity=100 time=1
the msg is note_on channel=9 note=74 velocity=100 time=10
the msg is note_off channel=9 note=74 velocity=100 time=1
the msg is note_on channel=9 note=74 velocity=100 time=4
the msg is note_off channel=9 note=74 velocity=100 time=1
the msg is note_on channel=9 note=71 velocity=100 time=4
the msg is note_off channel=9 note=71 velocity=100 time=1
the msg is note_on channel=9 note=71 velocity=100 time=4
the msg is note_off channel=9 note=71 velocity=100 time=1
the msg is note_on channel=9 note=69 velocity=100 time=4
the msg is note_off channel=9 note=69 velocity=100 time=1
the msg is note_on channel=9 note=72 velocity=100 time=55
the msg is note_off channel=9 note=72 velocity=100 time=1
the msg is note_on channel=9 note=72 velocity=100 time=10
the msg is note_off channel=9 note=72 velocity=100 time=1
the msg is note_on channel=9 note=72 velocity=100 time=4
the msg is note_off channel=9 note=72 velocity=100 time=1
the msg is note_on channel=9 note=72 velocity=100 time=4
the msg is note_off channel=9 note=72 velocity=100 time=1
the msg is note_on channel=9 note=72 velocity=100 time=4
the msg is note_off channel=9 note=72 velocity=100 time=1
the msg is note_on channel=9 note=76 velocity=100 time=4
the msg is note_off channel=9 note=76 velocity=100 time=1
the msg is note_on channel=9 note=79 velocity=100 time=10
the msg is note_off channel=9 note=79 velocity=100 time=1
the msg is note_on channel=9 note=76 velocity=100 time=10
the msg is note_off channel=9 note=76 velocity=100 time=1
the msg is note_on channel=9 note=79 velocity=100 time=10
the msg is note_off channel=9 note=79 velocity=100 time=1
the msg is note_on channel=9 note=79 velocity=100 time=4
the msg is note_off channel=9 note=79 velocity=100 time=1
the msg is note_on channel=9 note=76 velocity=100 time=4
the msg is note_off channel=9 note=76 velocity=100 time=1
the msg is note_on channel=9 note=74 velocity=100 time=4
the msg is note_off channel=9 note=74 velocity=100 time=1
the msg is note_on channel=9 note=72 velocity=100 time=4
the msg is note_off channel=9 note=72 velocity=100 time=1
the msg is note_on channel=9 note=74 velocity=100 time=10
the msg is note_off channel=9 note=74 velocity=100 time=1
the msg is note_on channel=9 note=74 velocity=100 time=10
the msg is note_off channel=9 note=74 velocity=100 time=1
the msg is note_on channel=9 note=74 velocity=100 time=10
the msg is note_off channel=9 note=74 velocity=100 time=1
the msg is note_on channel=9 note=76 velocity=100 time=10
the msg is note_off channel=9 note=76 velocity=100 time=1
the msg is note_on channel=9 note=79 velocity=100 time=10
the msg is note_off channel=9 note=79 velocity=100 time=1
the msg is note_on channel=9 note=79 velocity=100 time=6
the msg is note_off channel=9 note=79 velocity=100 time=1
the msg is note_on channel=9 note=76 velocity=100 time=3
the msg is note_off channel=9 note=76 velocity=100 time=1
the msg is note_on channel=9 note=74 velocity=100 time=6
the msg is note_off channel=9 note=74 velocity=100 time=1
the msg is note_on channel=9 note=72 velocity=100 time=3
the msg is note_off channel=9 note=72 velocity=100 time=1
the msg is note_on channel=9 note=74 velocity=100 time=10
the msg is note_off channel=9 note=74 velocity=100 time=1
the msg is note_on channel=9 note=76 velocity=100 time=10
the msg is note_off channel=9 note=76 velocity=100 time=1
the msg is note_on channel=9 note=72 velocity=100 time=4
the msg is note_off channel=9 note=72 velocity=100 time=1
the msg is note_on channel=9 note=74 velocity=100 time=4
the msg is note_off channel=9 note=74 velocity=100 time=1
the msg is note_on channel=9 note=74 velocity=100 time=10
the msg is note_off channel=9 note=74 velocity=100 time=1
the msg is note_on channel=9 note=74 velocity=100 time=10
the msg is note_off channel=9 note=74 velocity=100 time=1
the msg is note_on channel=9 note=74 velocity=100 time=4
the msg is note_off channel=9 note=74 velocity=100 time=1
the msg is note_on channel=9 note=71 velocity=100 time=4
the msg is note_off channel=9 note=71 velocity=100 time=1
the msg is note_on channel=9 note=74 velocity=100 time=10
the msg is note_off channel=9 note=74 velocity=100 time=1
the msg is note_on channel=9 note=74 velocity=100 time=10
the msg is note_off channel=9 note=74 velocity=100 time=1
the msg is note_on channel=9 note=72 velocity=100 time=3
the msg is note_off channel=9 note=72 velocity=100 time=1
the msg is note_on channel=9 note=74 velocity=100 time=10
the msg is note_off channel=9 note=74 velocity=100 time=1
the msg is note_on channel=9 note=74 velocity=100 time=10
the msg is note_off channel=9 note=74 velocity=100 time=1
the msg is note_on channel=9 note=74 velocity=100 time=4
the msg is note_off channel=9 note=74 velocity=100 time=1
the msg is note_on channel=9 note=71 velocity=100 time=4
the msg is note_off channel=9 note=71 velocity=100 time=1
the msg is note_on channel=9 note=74 velocity=100 time=4
the msg is note_off channel=9 note=74 velocity=100 time=1
the msg is note_on channel=9 note=76 velocity=100 time=10
the msg is note_off channel=9 note=76 velocity=100 time=1
the msg is note_on channel=9 note=79 velocity=100 time=10
the msg is note_off channel=9 note=79 velocity=100 time=1
the msg is note_on channel=9 note=72 velocity=100 time=3
the msg is note_off channel=9 note=72 velocity=100 time=1
the msg is note_on channel=9 note=72 velocity=100 time=6
the msg is note_off channel=9 note=72 velocity=100 time=1
the msg is note_on channel=9 note=72 velocity=100 time=3
the msg is note_off channel=9 note=72 velocity=100 time=1
the msg is note_on channel=9 note=72 velocity=100 time=10
the msg is note_off channel=9 note=72 velocity=100 time=1
the msg is note_on channel=9 note=72 velocity=100 time=4
the msg is note_off channel=9 note=72 velocity=100 time=1
the msg is note_on channel=9 note=72 velocity=100 time=4
the msg is note_off channel=9 note=72 velocity=100 time=1
the msg is <meta message end_of_track time=0>
the msg is <meta message track_name name='outTest85_512_1.0.mid' time=0>
the msg is note_on channel=9 note=69 velocity=100 time=1
the msg is note_off channel=9 note=69 velocity=100 time=1
the msg is note_on channel=9 note=72 velocity=100 time=75
the msg is note_off channel=9 note=72 velocity=100 time=1
the msg is note_on channel=9 note=72 velocity=100 time=4
the msg is note_off channel=9 note=72 velocity=100 time=1
the msg is note_on channel=9 note=72 velocity=100 time=4
the msg is note_off channel=9 note=72 velocity=100 time=1
the msg is note_on channel=9 note=72 velocity=100 time=10
the msg is note_off channel=9 note=72 velocity=100 time=1
the msg is note_on channel=9 note=74 velocity=100 time=10
the msg is note_off channel=9 note=74 velocity=100 time=1
the msg is note_on channel=9 note=74 velocity=100 time=4
the msg is note_off channel=9 note=74 velocity=100 time=1
the msg is note_on channel=9 note=71 velocity=100 time=4
the msg is note_off channel=9 note=71 velocity=100 time=1
the msg is note_on channel=9 note=74 velocity=100 time=10
the msg is note_off channel=9 note=74 velocity=100 time=1
the msg is note_on channel=9 note=74 velocity=100 time=4
the msg is note_off channel=9 note=74 velocity=100 time=1
the msg is note_on channel=9 note=71 velocity=100 time=4
the msg is note_off channel=9 note=71 velocity=100 time=1
the msg is note_on channel=9 note=71 velocity=100 time=4
the msg is note_off channel=9 note=71 velocity=100 time=1
the msg is note_on channel=9 note=69 velocity=100 time=4
the msg is note_off channel=9 note=69 velocity=100 time=1
the msg is note_on channel=9 note=72 velocity=100 time=55
the msg is note_off channel=9 note=72 velocity=100 time=1
the msg is note_on channel=9 note=72 velocity=100 time=10
the msg is note_off channel=9 note=72 velocity=100 time=1
the msg is note_on channel=9 note=72 velocity=100 time=4
the msg is note_off channel=9 note=72 velocity=100 time=1
the msg is note_on channel=9 note=72 velocity=100 time=4
the msg is note_off channel=9 note=72 velocity=100 time=1
the msg is note_on channel=9 note=72 velocity=100 time=4
the msg is note_off channel=9 note=72 velocity=100 time=1
the msg is note_on channel=9 note=76 velocity=100 time=4
the msg is note_off channel=9 note=76 velocity=100 time=1
the msg is note_on channel=9 note=79 velocity=100 time=10
the msg is note_off channel=9 note=79 velocity=100 time=1
the msg is note_on channel=9 note=76 velocity=100 time=10
the msg is note_off channel=9 note=76 velocity=100 time=1
the msg is note_on channel=9 note=79 velocity=100 time=10
the msg is note_off channel=9 note=79 velocity=100 time=1
the msg is note_on channel=9 note=79 velocity=100 time=4
the msg is note_off channel=9 note=79 velocity=100 time=1
the msg is note_on channel=9 note=76 velocity=100 time=4
the msg is note_off channel=9 note=76 velocity=100 time=1
the msg is note_on channel=9 note=74 velocity=100 time=4
the msg is note_off channel=9 note=74 velocity=100 time=1
the msg is note_on channel=9 note=72 velocity=100 time=4
the msg is note_off channel=9 note=72 velocity=100 time=1
the msg is note_on channel=9 note=74 velocity=100 time=10
the msg is note_off channel=9 note=74 velocity=100 time=1
the msg is note_on channel=9 note=74 velocity=100 time=10
the msg is note_off channel=9 note=74 velocity=100 time=1
the msg is note_on channel=9 note=74 velocity=100 time=10
the msg is note_off channel=9 note=74 velocity=100 time=1
the msg is note_on channel=9 note=76 velocity=100 time=10
the msg is note_off channel=9 note=76 velocity=100 time=1
the msg is note_on channel=9 note=79 velocity=100 time=10
the msg is note_off channel=9 note=79 velocity=100 time=1
the msg is note_on channel=9 note=79 velocity=100 time=6
the msg is note_off channel=9 note=79 velocity=100 time=1
the msg is note_on channel=9 note=76 velocity=100 time=3
the msg is note_off channel=9 note=76 velocity=100 time=1
the msg is note_on channel=9 note=74 velocity=100 time=6
the msg is note_off channel=9 note=74 velocity=100 time=1
the msg is note_on channel=9 note=72 velocity=100 time=3
the msg is note_off channel=9 note=72 velocity=100 time=1
the msg is note_on channel=9 note=74 velocity=100 time=10
the msg is note_off channel=9 note=74 velocity=100 time=1
the msg is note_on channel=9 note=76 velocity=100 time=10
the msg is note_off channel=9 note=76 velocity=100 time=1
the msg is note_on channel=9 note=72 velocity=100 time=4
the msg is note_off channel=9 note=72 velocity=100 time=1
the msg is note_on channel=9 note=74 velocity=100 time=4
the msg is note_off channel=9 note=74 velocity=100 time=1
the msg is note_on channel=9 note=74 velocity=100 time=10
the msg is note_off channel=9 note=74 velocity=100 time=1
the msg is note_on channel=9 note=74 velocity=100 time=10
the msg is note_off channel=9 note=74 velocity=100 time=1
the msg is note_on channel=9 note=74 velocity=100 time=4
the msg is note_off channel=9 note=74 velocity=100 time=1
the msg is note_on channel=9 note=71 velocity=100 time=4
the msg is note_off channel=9 note=71 velocity=100 time=1
the msg is note_on channel=9 note=74 velocity=100 time=10
the msg is note_off channel=9 note=74 velocity=100 time=1
the msg is note_on channel=9 note=74 velocity=100 time=10
the msg is note_off channel=9 note=74 velocity=100 time=1
the msg is note_on channel=9 note=72 velocity=100 time=3
the msg is note_off channel=9 note=72 velocity=100 time=1
the msg is note_on channel=9 note=74 velocity=100 time=10
the msg is note_off channel=9 note=74 velocity=100 time=1
the msg is note_on channel=9 note=74 velocity=100 time=10
the msg is note_off channel=9 note=74 velocity=100 time=1
the msg is note_on channel=9 note=74 velocity=100 time=4
the msg is note_off channel=9 note=74 velocity=100 time=1
the msg is note_on channel=9 note=71 velocity=100 time=4
the msg is note_off channel=9 note=71 velocity=100 time=1
the msg is note_on channel=9 note=74 velocity=100 time=4
the msg is note_off channel=9 note=74 velocity=100 time=1
the msg is note_on channel=9 note=76 velocity=100 time=10
the msg is note_off channel=9 note=76 velocity=100 time=1
the msg is note_on channel=9 note=79 velocity=100 time=10
the msg is note_off channel=9 note=79 velocity=100 time=1
the msg is note_on channel=9 note=72 velocity=100 time=3
the msg is note_off channel=9 note=72 velocity=100 time=1
the msg is note_on channel=9 note=72 velocity=100 time=6
the msg is note_off channel=9 note=72 velocity=100 time=1
the msg is note_on channel=9 note=72 velocity=100 time=3
the msg is note_off channel=9 note=72 velocity=100 time=1
the msg is note_on channel=9 note=72 velocity=100 time=10
the msg is note_off channel=9 note=72 velocity=100 time=1
the msg is note_on channel=9 note=72 velocity=100 time=4
the msg is note_off channel=9 note=72 velocity=100 time=1
the msg is note_on channel=9 note=72 velocity=100 time=4
the msg is note_off channel=9 note=72 velocity=100 time=1
the msg is <meta message end_of_track time=0>
the msg is <meta message track_name name='outTest85_512_1.0.mid' time=0>
the msg is note_on channel=9 note=69 velocity=100 time=1
the msg is note_off channel=9 note=69 velocity=100 time=1
the msg is note_on channel=9 note=72 velocity=100 time=75
the msg is note_off channel=9 note=72 velocity=100 time=1
the msg is note_on channel=9 note=72 velocity=100 time=4
the msg is note_off channel=9 note=72 velocity=100 time=1
the msg is note_on channel=9 note=72 velocity=100 time=4
the msg is note_off channel=9 note=72 velocity=100 time=1
the msg is note_on channel=9 note=72 velocity=100 time=10
the msg is note_off channel=9 note=72 velocity=100 time=1
the msg is note_on channel=9 note=74 velocity=100 time=10
the msg is note_off channel=9 note=74 velocity=100 time=1
the msg is note_on channel=9 note=74 velocity=100 time=4
the msg is note_off channel=9 note=74 velocity=100 time=1
the msg is note_on channel=9 note=71 velocity=100 time=4
the msg is note_off channel=9 note=71 velocity=100 time=1
the msg is note_on channel=9 note=74 velocity=100 time=10
the msg is note_off channel=9 note=74 velocity=100 time=1
the msg is note_on channel=9 note=74 velocity=100 time=4
the msg is note_off channel=9 note=74 velocity=100 time=1
the msg is note_on channel=9 note=71 velocity=100 time=4
the msg is note_off channel=9 note=71 velocity=100 time=1
the msg is note_on channel=9 note=71 velocity=100 time=4
the msg is note_off channel=9 note=71 velocity=100 time=1
the msg is note_on channel=9 note=69 velocity=100 time=4
the msg is note_off channel=9 note=69 velocity=100 time=1
the msg is note_on channel=9 note=72 velocity=100 time=55
the msg is note_off channel=9 note=72 velocity=100 time=1
the msg is note_on channel=9 note=72 velocity=100 time=10
the msg is note_off channel=9 note=72 velocity=100 time=1
the msg is note_on channel=9 note=72 velocity=100 time=4
the msg is note_off channel=9 note=72 velocity=100 time=1
the msg is note_on channel=9 note=72 velocity=100 time=4
the msg is note_off channel=9 note=72 velocity=100 time=1
the msg is note_on channel=9 note=72 velocity=100 time=4
the msg is note_off channel=9 note=72 velocity=100 time=1
the msg is note_on channel=9 note=76 velocity=100 time=4
the msg is note_off channel=9 note=76 velocity=100 time=1
the msg is note_on channel=9 note=79 velocity=100 time=10
the msg is note_off channel=9 note=79 velocity=100 time=1
the msg is note_on channel=9 note=76 velocity=100 time=10
the msg is note_off channel=9 note=76 velocity=100 time=1
the msg is note_on channel=9 note=79 velocity=100 time=10
the msg is note_off channel=9 note=79 velocity=100 time=1
the msg is note_on channel=9 note=79 velocity=100 time=4
the msg is note_off channel=9 note=79 velocity=100 time=1
the msg is note_on channel=9 note=76 velocity=100 time=4
the msg is note_off channel=9 note=76 velocity=100 time=1
the msg is note_on channel=9 note=74 velocity=100 time=4
the msg is note_off channel=9 note=74 velocity=100 time=1
the msg is note_on channel=9 note=72 velocity=100 time=4
the msg is note_off channel=9 note=72 velocity=100 time=1
the msg is note_on channel=9 note=74 velocity=100 time=10
the msg is note_off channel=9 note=74 velocity=100 time=1
the msg is note_on channel=9 note=74 velocity=100 time=10
the msg is note_off channel=9 note=74 velocity=100 time=1
the msg is note_on channel=9 note=74 velocity=100 time=10
the msg is note_off channel=9 note=74 velocity=100 time=1
the msg is note_on channel=9 note=76 velocity=100 time=10
the msg is note_off channel=9 note=76 velocity=100 time=1
the msg is note_on channel=9 note=79 velocity=100 time=10
the msg is note_off channel=9 note=79 velocity=100 time=1
the msg is note_on channel=9 note=79 velocity=100 time=6
the msg is note_off channel=9 note=79 velocity=100 time=1
the msg is note_on channel=9 note=76 velocity=100 time=3
the msg is note_off channel=9 note=76 velocity=100 time=1
the msg is note_on channel=9 note=74 velocity=100 time=6
the msg is note_off channel=9 note=74 velocity=100 time=1
the msg is note_on channel=9 note=72 velocity=100 time=3
the msg is note_off channel=9 note=72 velocity=100 time=1
the msg is note_on channel=9 note=74 velocity=100 time=10
the msg is note_off channel=9 note=74 velocity=100 time=1
the msg is note_on channel=9 note=76 velocity=100 time=10
the msg is note_off channel=9 note=76 velocity=100 time=1
the msg is note_on channel=9 note=72 velocity=100 time=4
the msg is note_off channel=9 note=72 velocity=100 time=1
the msg is note_on channel=9 note=74 velocity=100 time=4
the msg is note_off channel=9 note=74 velocity=100 time=1
the msg is note_on channel=9 note=74 velocity=100 time=10
the msg is note_off channel=9 note=74 velocity=100 time=1
the msg is note_on channel=9 note=74 velocity=100 time=10
the msg is note_off channel=9 note=74 velocity=100 time=1
the msg is note_on channel=9 note=74 velocity=100 time=4
the msg is note_off channel=9 note=74 velocity=100 time=1
the msg is note_on channel=9 note=71 velocity=100 time=4
the msg is note_off channel=9 note=71 velocity=100 time=1
the msg is note_on channel=9 note=74 velocity=100 time=10
the msg is note_off channel=9 note=74 velocity=100 time=1
the msg is note_on channel=9 note=74 velocity=100 time=10
the msg is note_off channel=9 note=74 velocity=100 time=1
the msg is note_on channel=9 note=72 velocity=100 time=3
the msg is note_off channel=9 note=72 velocity=100 time=1
the msg is note_on channel=9 note=74 velocity=100 time=10
the msg is note_off channel=9 note=74 velocity=100 time=1
the msg is note_on channel=9 note=74 velocity=100 time=10
the msg is note_off channel=9 note=74 velocity=100 time=1
the msg is note_on channel=9 note=74 velocity=100 time=4
the msg is note_off channel=9 note=74 velocity=100 time=1
the msg is note_on channel=9 note=71 velocity=100 time=4
the msg is note_off channel=9 note=71 velocity=100 time=1
the msg is note_on channel=9 note=74 velocity=100 time=4
the msg is note_off channel=9 note=74 velocity=100 time=1
the msg is note_on channel=9 note=76 velocity=100 time=10
the msg is note_off channel=9 note=76 velocity=100 time=1
the msg is note_on channel=9 note=79 velocity=100 time=10
the msg is note_off channel=9 note=79 velocity=100 time=1
the msg is note_on channel=9 note=72 velocity=100 time=3
the msg is note_off channel=9 note=72 velocity=100 time=1
the msg is note_on channel=9 note=72 velocity=100 time=6
the msg is note_off channel=9 note=72 velocity=100 time=1
the msg is note_on channel=9 note=72 velocity=100 time=3
the msg is note_off channel=9 note=72 velocity=100 time=1
the msg is note_on channel=9 note=72 velocity=100 time=10
the msg is note_off channel=9 note=72 velocity=100 time=1
the msg is note_on channel=9 note=72 velocity=100 time=4
the msg is note_off channel=9 note=72 velocity=100 time=1
the msg is note_on channel=9 note=72 velocity=100 time=4
the msg is note_off channel=9 note=72 velocity=100 time=1
the msg is <meta message end_of_track time=0>
the msg is <meta message track_name name='outTest85_512_1.0.mid' time=0>
the msg is note_on channel=9 note=69 velocity=100 time=1
the msg is note_off channel=9 note=69 velocity=100 time=1
the msg is note_on channel=9 note=72 velocity=100 time=75
the msg is note_off channel=9 note=72 velocity=100 time=1
the msg is note_on channel=9 note=72 velocity=100 time=4
the msg is note_off channel=9 note=72 velocity=100 time=1
the msg is note_on channel=9 note=72 velocity=100 time=4
the msg is note_off channel=9 note=72 velocity=100 time=1
the msg is note_on channel=9 note=72 velocity=100 time=10
the msg is note_off channel=9 note=72 velocity=100 time=1
the msg is note_on channel=9 note=74 velocity=100 time=10
the msg is note_off channel=9 note=74 velocity=100 time=1
the msg is note_on channel=9 note=74 velocity=100 time=4
the msg is note_off channel=9 note=74 velocity=100 time=1
the msg is note_on channel=9 note=71 velocity=100 time=4
the msg is note_off channel=9 note=71 velocity=100 time=1
the msg is note_on channel=9 note=74 velocity=100 time=10
the msg is note_off channel=9 note=74 velocity=100 time=1
the msg is note_on channel=9 note=74 velocity=100 time=4
the msg is note_off channel=9 note=74 velocity=100 time=1
the msg is note_on channel=9 note=71 velocity=100 time=4
the msg is note_off channel=9 note=71 velocity=100 time=1
the msg is note_on channel=9 note=71 velocity=100 time=4
the msg is note_off channel=9 note=71 velocity=100 time=1
the msg is note_on channel=9 note=69 velocity=100 time=4
the msg is note_off channel=9 note=69 velocity=100 time=1
the msg is note_on channel=9 note=72 velocity=100 time=55
the msg is note_off channel=9 note=72 velocity=100 time=1
the msg is note_on channel=9 note=72 velocity=100 time=10
the msg is note_off channel=9 note=72 velocity=100 time=1
the msg is note_on channel=9 note=72 velocity=100 time=4
the msg is note_off channel=9 note=72 velocity=100 time=1
the msg is note_on channel=9 note=72 velocity=100 time=4
the msg is note_off channel=9 note=72 velocity=100 time=1
the msg is note_on channel=9 note=72 velocity=100 time=4
the msg is note_off channel=9 note=72 velocity=100 time=1
the msg is note_on channel=9 note=76 velocity=100 time=4
the msg is note_off channel=9 note=76 velocity=100 time=1
the msg is note_on channel=9 note=79 velocity=100 time=10
the msg is note_off channel=9 note=79 velocity=100 time=1
the msg is note_on channel=9 note=76 velocity=100 time=10
the msg is note_off channel=9 note=76 velocity=100 time=1
the msg is note_on channel=9 note=79 velocity=100 time=10
the msg is note_off channel=9 note=79 velocity=100 time=1
the msg is note_on channel=9 note=79 velocity=100 time=4
the msg is note_off channel=9 note=79 velocity=100 time=1
the msg is note_on channel=9 note=76 velocity=100 time=4
the msg is note_off channel=9 note=76 velocity=100 time=1
the msg is note_on channel=9 note=74 velocity=100 time=4
the msg is note_off channel=9 note=74 velocity=100 time=1
the msg is note_on channel=9 note=72 velocity=100 time=4
the msg is note_off channel=9 note=72 velocity=100 time=1
the msg is note_on channel=9 note=74 velocity=100 time=10
the msg is note_off channel=9 note=74 velocity=100 time=1
the msg is note_on channel=9 note=74 velocity=100 time=10
the msg is note_off channel=9 note=74 velocity=100 time=1
the msg is note_on channel=9 note=74 velocity=100 time=10
the msg is note_off channel=9 note=74 velocity=100 time=1
the msg is note_on channel=9 note=76 velocity=100 time=10
the msg is note_off channel=9 note=76 velocity=100 time=1
the msg is note_on channel=9 note=79 velocity=100 time=10
the msg is note_off channel=9 note=79 velocity=100 time=1
the msg is note_on channel=9 note=79 velocity=100 time=6
the msg is note_off channel=9 note=79 velocity=100 time=1
the msg is note_on channel=9 note=76 velocity=100 time=3
the msg is note_off channel=9 note=76 velocity=100 time=1
the msg is note_on channel=9 note=74 velocity=100 time=6
the msg is note_off channel=9 note=74 velocity=100 time=1
the msg is note_on channel=9 note=72 velocity=100 time=3
the msg is note_off channel=9 note=72 velocity=100 time=1
the msg is note_on channel=9 note=74 velocity=100 time=10
the msg is note_off channel=9 note=74 velocity=100 time=1
the msg is note_on channel=9 note=76 velocity=100 time=10
the msg is note_off channel=9 note=76 velocity=100 time=1
the msg is note_on channel=9 note=72 velocity=100 time=4
the msg is note_off channel=9 note=72 velocity=100 time=1
the msg is note_on channel=9 note=74 velocity=100 time=4
the msg is note_off channel=9 note=74 velocity=100 time=1
the msg is note_on channel=9 note=74 velocity=100 time=10
the msg is note_off channel=9 note=74 velocity=100 time=1
the msg is note_on channel=9 note=74 velocity=100 time=10
the msg is note_off channel=9 note=74 velocity=100 time=1
the msg is note_on channel=9 note=74 velocity=100 time=4
the msg is note_off channel=9 note=74 velocity=100 time=1
the msg is note_on channel=9 note=71 velocity=100 time=4
the msg is note_off channel=9 note=71 velocity=100 time=1
the msg is note_on channel=9 note=74 velocity=100 time=10
the msg is note_off channel=9 note=74 velocity=100 time=1
the msg is note_on channel=9 note=74 velocity=100 time=10
the msg is note_off channel=9 note=74 velocity=100 time=1
the msg is note_on channel=9 note=72 velocity=100 time=3
the msg is note_off channel=9 note=72 velocity=100 time=1
the msg is note_on channel=9 note=74 velocity=100 time=10
the msg is note_off channel=9 note=74 velocity=100 time=1
the msg is note_on channel=9 note=74 velocity=100 time=10
the msg is note_off channel=9 note=74 velocity=100 time=1
the msg is note_on channel=9 note=74 velocity=100 time=4
the msg is note_off channel=9 note=74 velocity=100 time=1
the msg is note_on channel=9 note=71 velocity=100 time=4
the msg is note_off channel=9 note=71 velocity=100 time=1
the msg is note_on channel=9 note=74 velocity=100 time=4
the msg is note_off channel=9 note=74 velocity=100 time=1
the msg is note_on channel=9 note=76 velocity=100 time=10
the msg is note_off channel=9 note=76 velocity=100 time=1
the msg is note_on channel=9 note=79 velocity=100 time=10
the msg is note_off channel=9 note=79 velocity=100 time=1
the msg is note_on channel=9 note=72 velocity=100 time=3
the msg is note_off channel=9 note=72 velocity=100 time=1
the msg is note_on channel=9 note=72 velocity=100 time=6
the msg is note_off channel=9 note=72 velocity=100 time=1
the msg is note_on channel=9 note=72 velocity=100 time=3
the msg is note_off channel=9 note=72 velocity=100 time=1
the msg is note_on channel=9 note=72 velocity=100 time=10
the msg is note_off channel=9 note=72 velocity=100 time=1
the msg is note_on channel=9 note=72 velocity=100 time=4
the msg is note_off channel=9 note=72 velocity=100 time=1
the msg is note_on channel=9 note=72 velocity=100 time=4
the msg is note_off channel=9 note=72 velocity=100 time=1
the msg is <meta message end_of_track time=0>
the msg is <meta message track_name name='outTest85_512_1.0.mid' time=0>
the msg is note_on channel=9 note=69 velocity=100 time=1
the msg is note_off channel=9 note=69 velocity=100 time=1
the msg is note_on channel=9 note=72 velocity=100 time=75
the msg is note_off channel=9 note=72 velocity=100 time=1
the msg is note_on channel=9 note=72 velocity=100 time=4
the msg is note_off channel=9 note=72 velocity=100 time=1
the msg is note_on channel=9 note=72 velocity=100 time=4
the msg is note_off channel=9 note=72 velocity=100 time=1
the msg is note_on channel=9 note=72 velocity=100 time=10
the msg is note_off channel=9 note=72 velocity=100 time=1
the msg is note_on channel=9 note=74 velocity=100 time=10
the msg is note_off channel=9 note=74 velocity=100 time=1
the msg is note_on channel=9 note=74 velocity=100 time=4
the msg is note_off channel=9 note=74 velocity=100 time=1
the msg is note_on channel=9 note=71 velocity=100 time=4
the msg is note_off channel=9 note=71 velocity=100 time=1
the msg is note_on channel=9 note=74 velocity=100 time=10
the msg is note_off channel=9 note=74 velocity=100 time=1
the msg is note_on channel=9 note=74 velocity=100 time=4
the msg is note_off channel=9 note=74 velocity=100 time=1
the msg is note_on channel=9 note=71 velocity=100 time=4
the msg is note_off channel=9 note=71 velocity=100 time=1
the msg is note_on channel=9 note=71 velocity=100 time=4
the msg is note_off channel=9 note=71 velocity=100 time=1
the msg is note_on channel=9 note=69 velocity=100 time=4
the msg is note_off channel=9 note=69 velocity=100 time=1
the msg is note_on channel=9 note=72 velocity=100 time=55
the msg is note_off channel=9 note=72 velocity=100 time=1
the msg is note_on channel=9 note=72 velocity=100 time=10
the msg is note_off channel=9 note=72 velocity=100 time=1
the msg is note_on channel=9 note=72 velocity=100 time=4
the msg is note_off channel=9 note=72 velocity=100 time=1
the msg is note_on channel=9 note=72 velocity=100 time=4
the msg is note_off channel=9 note=72 velocity=100 time=1
the msg is note_on channel=9 note=72 velocity=100 time=4
the msg is note_off channel=9 note=72 velocity=100 time=1
the msg is note_on channel=9 note=76 velocity=100 time=4
the msg is note_off channel=9 note=76 velocity=100 time=1
the msg is note_on channel=9 note=79 velocity=100 time=10
the msg is note_off channel=9 note=79 velocity=100 time=1
the msg is note_on channel=9 note=76 velocity=100 time=10
the msg is note_off channel=9 note=76 velocity=100 time=1
the msg is note_on channel=9 note=79 velocity=100 time=10
the msg is note_off channel=9 note=79 velocity=100 time=1
the msg is note_on channel=9 note=79 velocity=100 time=4
the msg is note_off channel=9 note=79 velocity=100 time=1
the msg is note_on channel=9 note=76 velocity=100 time=4
the msg is note_off channel=9 note=76 velocity=100 time=1
the msg is note_on channel=9 note=74 velocity=100 time=4
the msg is note_off channel=9 note=74 velocity=100 time=1
the msg is note_on channel=9 note=72 velocity=100 time=4
the msg is note_off channel=9 note=72 velocity=100 time=1
the msg is note_on channel=9 note=74 velocity=100 time=10
the msg is note_off channel=9 note=74 velocity=100 time=1
the msg is note_on channel=9 note=74 velocity=100 time=10
the msg is note_off channel=9 note=74 velocity=100 time=1
the msg is note_on channel=9 note=74 velocity=100 time=10
the msg is note_off channel=9 note=74 velocity=100 time=1
the msg is note_on channel=9 note=76 velocity=100 time=10
the msg is note_off channel=9 note=76 velocity=100 time=1
the msg is note_on channel=9 note=79 velocity=100 time=10
the msg is note_off channel=9 note=79 velocity=100 time=1
the msg is note_on channel=9 note=79 velocity=100 time=6
the msg is note_off channel=9 note=79 velocity=100 time=1
the msg is note_on channel=9 note=76 velocity=100 time=3
the msg is note_off channel=9 note=76 velocity=100 time=1
the msg is note_on channel=9 note=74 velocity=100 time=6
the msg is note_off channel=9 note=74 velocity=100 time=1
the msg is note_on channel=9 note=72 velocity=100 time=3
the msg is note_off channel=9 note=72 velocity=100 time=1
the msg is note_on channel=9 note=74 velocity=100 time=10
the msg is note_off channel=9 note=74 velocity=100 time=1
the msg is note_on channel=9 note=76 velocity=100 time=10
the msg is note_off channel=9 note=76 velocity=100 time=1
the msg is note_on channel=9 note=72 velocity=100 time=4
the msg is note_off channel=9 note=72 velocity=100 time=1
the msg is note_on channel=9 note=74 velocity=100 time=4
the msg is note_off channel=9 note=74 velocity=100 time=1
the msg is note_on channel=9 note=74 velocity=100 time=10
the msg is note_off channel=9 note=74 velocity=100 time=1
the msg is note_on channel=9 note=74 velocity=100 time=10
the msg is note_off channel=9 note=74 velocity=100 time=1
the msg is note_on channel=9 note=74 velocity=100 time=4
the msg is note_off channel=9 note=74 velocity=100 time=1
the msg is note_on channel=9 note=71 velocity=100 time=4
the msg is note_off channel=9 note=71 velocity=100 time=1
the msg is note_on channel=9 note=74 velocity=100 time=10
the msg is note_off channel=9 note=74 velocity=100 time=1
the msg is note_on channel=9 note=74 velocity=100 time=10
the msg is note_off channel=9 note=74 velocity=100 time=1
the msg is note_on channel=9 note=72 velocity=100 time=3
the msg is note_off channel=9 note=72 velocity=100 time=1
the msg is note_on channel=9 note=74 velocity=100 time=10
the msg is note_off channel=9 note=74 velocity=100 time=1
the msg is note_on channel=9 note=74 velocity=100 time=10
the msg is note_off channel=9 note=74 velocity=100 time=1
the msg is note_on channel=9 note=74 velocity=100 time=4
the msg is note_off channel=9 note=74 velocity=100 time=1
the msg is note_on channel=9 note=71 velocity=100 time=4
the msg is note_off channel=9 note=71 velocity=100 time=1
the msg is note_on channel=9 note=74 velocity=100 time=4
the msg is note_off channel=9 note=74 velocity=100 time=1
the msg is note_on channel=9 note=76 velocity=100 time=10
the msg is note_off channel=9 note=76 velocity=100 time=1
the msg is note_on channel=9 note=79 velocity=100 time=10
the msg is note_off channel=9 note=79 velocity=100 time=1
the msg is note_on channel=9 note=72 velocity=100 time=3
the msg is note_off channel=9 note=72 velocity=100 time=1
the msg is note_on channel=9 note=72 velocity=100 time=6
the msg is note_off channel=9 note=72 velocity=100 time=1
the msg is note_on channel=9 note=72 velocity=100 time=3
the msg is note_off channel=9 note=72 velocity=100 time=1
the msg is note_on channel=9 note=72 velocity=100 time=10
the msg is note_off channel=9 note=72 velocity=100 time=1
the msg is note_on channel=9 note=72 velocity=100 time=4
the msg is note_off channel=9 note=72 velocity=100 time=1
the msg is note_on channel=9 note=72 velocity=100 time=4
the msg is note_off channel=9 note=72 velocity=100 time=1
the msg is <meta message end_of_track time=0>
the msg is <meta message track_name name='outTest85_512_1.0.mid' time=0>
the msg is note_on channel=9 note=69 velocity=100 time=1
the msg is note_off channel=9 note=69 velocity=100 time=1
the msg is note_on channel=9 note=72 velocity=100 time=75
the msg is note_off channel=9 note=72 velocity=100 time=1
the msg is note_on channel=9 note=72 velocity=100 time=4
the msg is note_off channel=9 note=72 velocity=100 time=1
the msg is note_on channel=9 note=72 velocity=100 time=4
the msg is note_off channel=9 note=72 velocity=100 time=1
the msg is note_on channel=9 note=72 velocity=100 time=10
the msg is note_off channel=9 note=72 velocity=100 time=1
the msg is note_on channel=9 note=74 velocity=100 time=10
the msg is note_off channel=9 note=74 velocity=100 time=1
the msg is note_on channel=9 note=74 velocity=100 time=4
the msg is note_off channel=9 note=74 velocity=100 time=1
the msg is note_on channel=9 note=71 velocity=100 time=4
the msg is note_off channel=9 note=71 velocity=100 time=1
the msg is note_on channel=9 note=74 velocity=100 time=10
the msg is note_off channel=9 note=74 velocity=100 time=1
the msg is note_on channel=9 note=74 velocity=100 time=4
the msg is note_off channel=9 note=74 velocity=100 time=1
the msg is note_on channel=9 note=71 velocity=100 time=4
the msg is note_off channel=9 note=71 velocity=100 time=1
the msg is note_on channel=9 note=71 velocity=100 time=4
the msg is note_off channel=9 note=71 velocity=100 time=1
the msg is note_on channel=9 note=69 velocity=100 time=4
the msg is note_off channel=9 note=69 velocity=100 time=1
the msg is note_on channel=9 note=72 velocity=100 time=55
the msg is note_off channel=9 note=72 velocity=100 time=1
the msg is note_on channel=9 note=72 velocity=100 time=10
the msg is note_off channel=9 note=72 velocity=100 time=1
the msg is note_on channel=9 note=72 velocity=100 time=4
the msg is note_off channel=9 note=72 velocity=100 time=1
the msg is note_on channel=9 note=72 velocity=100 time=4
the msg is note_off channel=9 note=72 velocity=100 time=1
the msg is note_on channel=9 note=72 velocity=100 time=4
the msg is note_off channel=9 note=72 velocity=100 time=1
the msg is note_on channel=9 note=76 velocity=100 time=4
the msg is note_off channel=9 note=76 velocity=100 time=1
the msg is note_on channel=9 note=79 velocity=100 time=10
the msg is note_off channel=9 note=79 velocity=100 time=1
the msg is note_on channel=9 note=76 velocity=100 time=10
the msg is note_off channel=9 note=76 velocity=100 time=1
the msg is note_on channel=9 note=79 velocity=100 time=10
the msg is note_off channel=9 note=79 velocity=100 time=1
the msg is note_on channel=9 note=79 velocity=100 time=4
the msg is note_off channel=9 note=79 velocity=100 time=1
the msg is note_on channel=9 note=76 velocity=100 time=4
the msg is note_off channel=9 note=76 velocity=100 time=1
the msg is note_on channel=9 note=74 velocity=100 time=4
the msg is note_off channel=9 note=74 velocity=100 time=1
the msg is note_on channel=9 note=72 velocity=100 time=4
the msg is note_off channel=9 note=72 velocity=100 time=1
the msg is note_on channel=9 note=74 velocity=100 time=10
the msg is note_off channel=9 note=74 velocity=100 time=1
the msg is note_on channel=9 note=74 velocity=100 time=10
the msg is note_off channel=9 note=74 velocity=100 time=1
the msg is note_on channel=9 note=74 velocity=100 time=10
the msg is note_off channel=9 note=74 velocity=100 time=1
the msg is note_on channel=9 note=76 velocity=100 time=10
the msg is note_off channel=9 note=76 velocity=100 time=1
the msg is note_on channel=9 note=79 velocity=100 time=10
the msg is note_off channel=9 note=79 velocity=100 time=1
the msg is note_on channel=9 note=79 velocity=100 time=6
the msg is note_off channel=9 note=79 velocity=100 time=1
the msg is note_on channel=9 note=76 velocity=100 time=3
the msg is note_off channel=9 note=76 velocity=100 time=1
the msg is note_on channel=9 note=74 velocity=100 time=6
the msg is note_off channel=9 note=74 velocity=100 time=1
the msg is note_on channel=9 note=72 velocity=100 time=3
the msg is note_off channel=9 note=72 velocity=100 time=1
the msg is note_on channel=9 note=74 velocity=100 time=10
the msg is note_off channel=9 note=74 velocity=100 time=1
the msg is note_on channel=9 note=76 velocity=100 time=10
the msg is note_off channel=9 note=76 velocity=100 time=1
the msg is note_on channel=9 note=72 velocity=100 time=4
the msg is note_off channel=9 note=72 velocity=100 time=1
the msg is note_on channel=9 note=74 velocity=100 time=4
the msg is note_off channel=9 note=74 velocity=100 time=1
the msg is note_on channel=9 note=74 velocity=100 time=10
the msg is note_off channel=9 note=74 velocity=100 time=1
the msg is note_on channel=9 note=74 velocity=100 time=10
the msg is note_off channel=9 note=74 velocity=100 time=1
the msg is note_on channel=9 note=74 velocity=100 time=4
the msg is note_off channel=9 note=74 velocity=100 time=1
the msg is note_on channel=9 note=71 velocity=100 time=4
the msg is note_off channel=9 note=71 velocity=100 time=1
the msg is note_on channel=9 note=74 velocity=100 time=10
the msg is note_off channel=9 note=74 velocity=100 time=1
the msg is note_on channel=9 note=74 velocity=100 time=10
the msg is note_off channel=9 note=74 velocity=100 time=1
the msg is note_on channel=9 note=72 velocity=100 time=3
the msg is note_off channel=9 note=72 velocity=100 time=1
the msg is note_on channel=9 note=74 velocity=100 time=10
the msg is note_off channel=9 note=74 velocity=100 time=1
the msg is note_on channel=9 note=74 velocity=100 time=10
the msg is note_off channel=9 note=74 velocity=100 time=1
the msg is note_on channel=9 note=74 velocity=100 time=4
the msg is note_off channel=9 note=74 velocity=100 time=1
the msg is note_on channel=9 note=71 velocity=100 time=4
the msg is note_off channel=9 note=71 velocity=100 time=1
the msg is note_on channel=9 note=74 velocity=100 time=4
the msg is note_off channel=9 note=74 velocity=100 time=1
the msg is note_on channel=9 note=76 velocity=100 time=10
the msg is note_off channel=9 note=76 velocity=100 time=1
the msg is note_on channel=9 note=79 velocity=100 time=10
the msg is note_off channel=9 note=79 velocity=100 time=1
the msg is note_on channel=9 note=72 velocity=100 time=3
the msg is note_off channel=9 note=72 velocity=100 time=1
the msg is note_on channel=9 note=72 velocity=100 time=6
the msg is note_off channel=9 note=72 velocity=100 time=1
the msg is note_on channel=9 note=72 velocity=100 time=3
the msg is note_off channel=9 note=72 velocity=100 time=1
the msg is note_on channel=9 note=72 velocity=100 time=10
the msg is note_off channel=9 note=72 velocity=100 time=1
the msg is note_on channel=9 note=72 velocity=100 time=4
the msg is note_off channel=9 note=72 velocity=100 time=1
the msg is note_on channel=9 note=72 velocity=100 time=4
the msg is note_off channel=9 note=72 velocity=100 time=1
the msg is <meta message end_of_track time=0>
the msg is <meta message track_name name='outTest85_512_1.0.mid' time=0>
the msg is note_on channel=9 note=69 velocity=100 time=1
the msg is note_off channel=9 note=69 velocity=100 time=1
the msg is note_on channel=9 note=72 velocity=100 time=75
the msg is note_off channel=9 note=72 velocity=100 time=1
the msg is note_on channel=9 note=72 velocity=100 time=4
the msg is note_off channel=9 note=72 velocity=100 time=1
the msg is note_on channel=9 note=72 velocity=100 time=4
the msg is note_off channel=9 note=72 velocity=100 time=1
the msg is note_on channel=9 note=72 velocity=100 time=10
the msg is note_off channel=9 note=72 velocity=100 time=1
the msg is note_on channel=9 note=74 velocity=100 time=10
the msg is note_off channel=9 note=74 velocity=100 time=1
the msg is note_on channel=9 note=74 velocity=100 time=4
the msg is note_off channel=9 note=74 velocity=100 time=1
the msg is note_on channel=9 note=71 velocity=100 time=4
the msg is note_off channel=9 note=71 velocity=100 time=1
the msg is note_on channel=9 note=74 velocity=100 time=10
the msg is note_off channel=9 note=74 velocity=100 time=1
the msg is note_on channel=9 note=74 velocity=100 time=4
the msg is note_off channel=9 note=74 velocity=100 time=1
the msg is note_on channel=9 note=71 velocity=100 time=4
the msg is note_off channel=9 note=71 velocity=100 time=1
the msg is note_on channel=9 note=71 velocity=100 time=4
the msg is note_off channel=9 note=71 velocity=100 time=1
the msg is note_on channel=9 note=69 velocity=100 time=4
the msg is note_off channel=9 note=69 velocity=100 time=1
the msg is note_on channel=9 note=72 velocity=100 time=55
the msg is note_off channel=9 note=72 velocity=100 time=1
the msg is note_on channel=9 note=72 velocity=100 time=10
the msg is note_off channel=9 note=72 velocity=100 time=1
the msg is note_on channel=9 note=72 velocity=100 time=4
the msg is note_off channel=9 note=72 velocity=100 time=1
the msg is note_on channel=9 note=72 velocity=100 time=4
the msg is note_off channel=9 note=72 velocity=100 time=1
the msg is note_on channel=9 note=72 velocity=100 time=4
the msg is note_off channel=9 note=72 velocity=100 time=1
the msg is note_on channel=9 note=76 velocity=100 time=4
the msg is note_off channel=9 note=76 velocity=100 time=1
the msg is note_on channel=9 note=79 velocity=100 time=10
the msg is note_off channel=9 note=79 velocity=100 time=1
the msg is note_on channel=9 note=76 velocity=100 time=10
the msg is note_off channel=9 note=76 velocity=100 time=1
the msg is note_on channel=9 note=79 velocity=100 time=10
the msg is note_off channel=9 note=79 velocity=100 time=1
the msg is note_on channel=9 note=79 velocity=100 time=4
the msg is note_off channel=9 note=79 velocity=100 time=1
the msg is note_on channel=9 note=76 velocity=100 time=4
the msg is note_off channel=9 note=76 velocity=100 time=1
the msg is note_on channel=9 note=74 velocity=100 time=4
the msg is note_off channel=9 note=74 velocity=100 time=1
the msg is note_on channel=9 note=72 velocity=100 time=4
the msg is note_off channel=9 note=72 velocity=100 time=1
the msg is note_on channel=9 note=74 velocity=100 time=10
the msg is note_off channel=9 note=74 velocity=100 time=1
the msg is note_on channel=9 note=74 velocity=100 time=10
the msg is note_off channel=9 note=74 velocity=100 time=1
the msg is note_on channel=9 note=74 velocity=100 time=10
the msg is note_off channel=9 note=74 velocity=100 time=1
the msg is note_on channel=9 note=76 velocity=100 time=10
the msg is note_off channel=9 note=76 velocity=100 time=1
the msg is note_on channel=9 note=79 velocity=100 time=10
the msg is note_off channel=9 note=79 velocity=100 time=1
the msg is note_on channel=9 note=79 velocity=100 time=6
the msg is note_off channel=9 note=79 velocity=100 time=1
the msg is note_on channel=9 note=76 velocity=100 time=3
the msg is note_off channel=9 note=76 velocity=100 time=1
the msg is note_on channel=9 note=74 velocity=100 time=6
the msg is note_off channel=9 note=74 velocity=100 time=1
the msg is note_on channel=9 note=72 velocity=100 time=3
the msg is note_off channel=9 note=72 velocity=100 time=1
the msg is note_on channel=9 note=74 velocity=100 time=10
the msg is note_off channel=9 note=74 velocity=100 time=1
the msg is note_on channel=9 note=76 velocity=100 time=10
the msg is note_off channel=9 note=76 velocity=100 time=1
the msg is note_on channel=9 note=72 velocity=100 time=4
the msg is note_off channel=9 note=72 velocity=100 time=1
the msg is note_on channel=9 note=74 velocity=100 time=4
the msg is note_off channel=9 note=74 velocity=100 time=1
the msg is note_on channel=9 note=74 velocity=100 time=10
the msg is note_off channel=9 note=74 velocity=100 time=1
the msg is note_on channel=9 note=74 velocity=100 time=10
the msg is note_off channel=9 note=74 velocity=100 time=1
the msg is note_on channel=9 note=74 velocity=100 time=4
the msg is note_off channel=9 note=74 velocity=100 time=1
the msg is note_on channel=9 note=71 velocity=100 time=4
the msg is note_off channel=9 note=71 velocity=100 time=1
the msg is note_on channel=9 note=74 velocity=100 time=10
the msg is note_off channel=9 note=74 velocity=100 time=1
the msg is note_on channel=9 note=74 velocity=100 time=10
the msg is note_off channel=9 note=74 velocity=100 time=1
the msg is note_on channel=9 note=72 velocity=100 time=3
the msg is note_off channel=9 note=72 velocity=100 time=1
the msg is note_on channel=9 note=74 velocity=100 time=10
the msg is note_off channel=9 note=74 velocity=100 time=1
the msg is note_on channel=9 note=74 velocity=100 time=10
the msg is note_off channel=9 note=74 velocity=100 time=1
the msg is note_on channel=9 note=74 velocity=100 time=4
the msg is note_off channel=9 note=74 velocity=100 time=1
the msg is note_on channel=9 note=71 velocity=100 time=4
the msg is note_off channel=9 note=71 velocity=100 time=1
the msg is note_on channel=9 note=74 velocity=100 time=4
the msg is note_off channel=9 note=74 velocity=100 time=1
the msg is note_on channel=9 note=76 velocity=100 time=10
the msg is note_off channel=9 note=76 velocity=100 time=1
the msg is note_on channel=9 note=79 velocity=100 time=10
the msg is note_off channel=9 note=79 velocity=100 time=1
the msg is note_on channel=9 note=72 velocity=100 time=3
the msg is note_off channel=9 note=72 velocity=100 time=1
the msg is note_on channel=9 note=72 velocity=100 time=6
the msg is note_off channel=9 note=72 velocity=100 time=1
the msg is note_on channel=9 note=72 velocity=100 time=3
the msg is note_off channel=9 note=72 velocity=100 time=1
the msg is note_on channel=9 note=72 velocity=100 time=10
the msg is note_off channel=9 note=72 velocity=100 time=1
the msg is note_on channel=9 note=72 velocity=100 time=4
the msg is note_off channel=9 note=72 velocity=100 time=1
the msg is note_on channel=9 note=72 velocity=100 time=4
the msg is note_off channel=9 note=72 velocity=100 time=1
the msg is <meta message end_of_track time=0>
the msg is <meta message track_name name='outTest85_512_1.0.mid' time=0>
the msg is note_on channel=9 note=69 velocity=100 time=1
the msg is note_off channel=9 note=69 velocity=100 time=1
the msg is note_on channel=9 note=72 velocity=100 time=75
the msg is note_off channel=9 note=72 velocity=100 time=1
the msg is note_on channel=9 note=72 velocity=100 time=4
the msg is note_off channel=9 note=72 velocity=100 time=1
the msg is note_on channel=9 note=72 velocity=100 time=4
the msg is note_off channel=9 note=72 velocity=100 time=1
the msg is note_on channel=9 note=72 velocity=100 time=10
the msg is note_off channel=9 note=72 velocity=100 time=1
the msg is note_on channel=9 note=74 velocity=100 time=10
the msg is note_off channel=9 note=74 velocity=100 time=1
the msg is note_on channel=9 note=74 velocity=100 time=4
the msg is note_off channel=9 note=74 velocity=100 time=1
the msg is note_on channel=9 note=71 velocity=100 time=4
the msg is note_off channel=9 note=71 velocity=100 time=1
the msg is note_on channel=9 note=74 velocity=100 time=10
the msg is note_off channel=9 note=74 velocity=100 time=1
the msg is note_on channel=9 note=74 velocity=100 time=4
the msg is note_off channel=9 note=74 velocity=100 time=1
the msg is note_on channel=9 note=71 velocity=100 time=4
the msg is note_off channel=9 note=71 velocity=100 time=1
the msg is note_on channel=9 note=71 velocity=100 time=4
the msg is note_off channel=9 note=71 velocity=100 time=1
the msg is note_on channel=9 note=69 velocity=100 time=4
the msg is note_off channel=9 note=69 velocity=100 time=1
the msg is note_on channel=9 note=72 velocity=100 time=55
the msg is note_off channel=9 note=72 velocity=100 time=1
the msg is note_on channel=9 note=72 velocity=100 time=10
the msg is note_off channel=9 note=72 velocity=100 time=1
the msg is note_on channel=9 note=72 velocity=100 time=4
the msg is note_off channel=9 note=72 velocity=100 time=1
the msg is note_on channel=9 note=72 velocity=100 time=4
the msg is note_off channel=9 note=72 velocity=100 time=1
the msg is note_on channel=9 note=72 velocity=100 time=4
the msg is note_off channel=9 note=72 velocity=100 time=1
the msg is note_on channel=9 note=76 velocity=100 time=4
the msg is note_off channel=9 note=76 velocity=100 time=1
the msg is note_on channel=9 note=79 velocity=100 time=10
the msg is note_off channel=9 note=79 velocity=100 time=1
the msg is note_on channel=9 note=76 velocity=100 time=10
the msg is note_off channel=9 note=76 velocity=100 time=1
the msg is note_on channel=9 note=79 velocity=100 time=10
the msg is note_off channel=9 note=79 velocity=100 time=1
the msg is note_on channel=9 note=79 velocity=100 time=4
the msg is note_off channel=9 note=79 velocity=100 time=1
the msg is note_on channel=9 note=76 velocity=100 time=4
the msg is note_off channel=9 note=76 velocity=100 time=1
the msg is note_on channel=9 note=74 velocity=100 time=4
the msg is note_off channel=9 note=74 velocity=100 time=1
the msg is note_on channel=9 note=72 velocity=100 time=4
the msg is note_off channel=9 note=72 velocity=100 time=1
the msg is note_on channel=9 note=74 velocity=100 time=10
the msg is note_off channel=9 note=74 velocity=100 time=1
the msg is note_on channel=9 note=74 velocity=100 time=10
the msg is note_off channel=9 note=74 velocity=100 time=1
the msg is note_on channel=9 note=74 velocity=100 time=10
the msg is note_off channel=9 note=74 velocity=100 time=1
the msg is note_on channel=9 note=76 velocity=100 time=10
the msg is note_off channel=9 note=76 velocity=100 time=1
the msg is note_on channel=9 note=79 velocity=100 time=10
the msg is note_off channel=9 note=79 velocity=100 time=1
the msg is note_on channel=9 note=79 velocity=100 time=6
the msg is note_off channel=9 note=79 velocity=100 time=1
the msg is note_on channel=9 note=76 velocity=100 time=3
the msg is note_off channel=9 note=76 velocity=100 time=1
the msg is note_on channel=9 note=74 velocity=100 time=6
the msg is note_off channel=9 note=74 velocity=100 time=1
the msg is note_on channel=9 note=72 velocity=100 time=3
the msg is note_off channel=9 note=72 velocity=100 time=1
the msg is note_on channel=9 note=74 velocity=100 time=10
the msg is note_off channel=9 note=74 velocity=100 time=1
the msg is note_on channel=9 note=76 velocity=100 time=10
the msg is note_off channel=9 note=76 velocity=100 time=1
the msg is note_on channel=9 note=72 velocity=100 time=4
the msg is note_off channel=9 note=72 velocity=100 time=1
the msg is note_on channel=9 note=74 velocity=100 time=4
the msg is note_off channel=9 note=74 velocity=100 time=1
the msg is note_on channel=9 note=74 velocity=100 time=10
the msg is note_off channel=9 note=74 velocity=100 time=1
the msg is note_on channel=9 note=74 velocity=100 time=10
the msg is note_off channel=9 note=74 velocity=100 time=1
the msg is note_on channel=9 note=74 velocity=100 time=4
the msg is note_off channel=9 note=74 velocity=100 time=1
the msg is note_on channel=9 note=71 velocity=100 time=4
the msg is note_off channel=9 note=71 velocity=100 time=1
the msg is note_on channel=9 note=74 velocity=100 time=10
the msg is note_off channel=9 note=74 velocity=100 time=1
the msg is note_on channel=9 note=74 velocity=100 time=10
the msg is note_off channel=9 note=74 velocity=100 time=1
the msg is note_on channel=9 note=72 velocity=100 time=3
the msg is note_off channel=9 note=72 velocity=100 time=1
the msg is note_on channel=9 note=74 velocity=100 time=10
the msg is note_off channel=9 note=74 velocity=100 time=1
the msg is note_on channel=9 note=74 velocity=100 time=10
the msg is note_off channel=9 note=74 velocity=100 time=1
the msg is note_on channel=9 note=74 velocity=100 time=4
the msg is note_off channel=9 note=74 velocity=100 time=1
the msg is note_on channel=9 note=71 velocity=100 time=4
the msg is note_off channel=9 note=71 velocity=100 time=1
the msg is note_on channel=9 note=74 velocity=100 time=4
the msg is note_off channel=9 note=74 velocity=100 time=1
the msg is note_on channel=9 note=76 velocity=100 time=10
the msg is note_off channel=9 note=76 velocity=100 time=1
the msg is note_on channel=9 note=79 velocity=100 time=10
the msg is note_off channel=9 note=79 velocity=100 time=1
the msg is note_on channel=9 note=72 velocity=100 time=3
the msg is note_off channel=9 note=72 velocity=100 time=1
the msg is note_on channel=9 note=72 velocity=100 time=6
the msg is note_off channel=9 note=72 velocity=100 time=1
the msg is note_on channel=9 note=72 velocity=100 time=3
the msg is note_off channel=9 note=72 velocity=100 time=1
the msg is note_on channel=9 note=72 velocity=100 time=10
the msg is note_off channel=9 note=72 velocity=100 time=1
the msg is note_on channel=9 note=72 velocity=100 time=4
the msg is note_off channel=9 note=72 velocity=100 time=1
the msg is note_on channel=9 note=72 velocity=100 time=4
the msg is note_off channel=9 note=72 velocity=100 time=1
the msg is <meta message end_of_track time=0>
the msg is <meta message track_name name='outTest85_512_1.0.mid' time=0>
the msg is note_on channel=9 note=69 velocity=100 time=1
the msg is note_off channel=9 note=69 velocity=100 time=1
the msg is note_on channel=9 note=72 velocity=100 time=75
the msg is note_off channel=9 note=72 velocity=100 time=1
the msg is note_on channel=9 note=72 velocity=100 time=4
the msg is note_off channel=9 note=72 velocity=100 time=1
the msg is note_on channel=9 note=72 velocity=100 time=4
the msg is note_off channel=9 note=72 velocity=100 time=1
the msg is note_on channel=9 note=72 velocity=100 time=10
the msg is note_off channel=9 note=72 velocity=100 time=1
the msg is note_on channel=9 note=74 velocity=100 time=10
the msg is note_off channel=9 note=74 velocity=100 time=1
the msg is note_on channel=9 note=74 velocity=100 time=4
the msg is note_off channel=9 note=74 velocity=100 time=1
the msg is note_on channel=9 note=71 velocity=100 time=4
the msg is note_off channel=9 note=71 velocity=100 time=1
the msg is note_on channel=9 note=74 velocity=100 time=10
the msg is note_off channel=9 note=74 velocity=100 time=1
the msg is note_on channel=9 note=74 velocity=100 time=4
the msg is note_off channel=9 note=74 velocity=100 time=1
the msg is note_on channel=9 note=71 velocity=100 time=4
the msg is note_off channel=9 note=71 velocity=100 time=1
the msg is note_on channel=9 note=71 velocity=100 time=4
the msg is note_off channel=9 note=71 velocity=100 time=1
the msg is note_on channel=9 note=69 velocity=100 time=4
the msg is note_off channel=9 note=69 velocity=100 time=1
the msg is note_on channel=9 note=72 velocity=100 time=55
the msg is note_off channel=9 note=72 velocity=100 time=1
the msg is note_on channel=9 note=72 velocity=100 time=10
the msg is note_off channel=9 note=72 velocity=100 time=1
the msg is note_on channel=9 note=72 velocity=100 time=4
the msg is note_off channel=9 note=72 velocity=100 time=1
the msg is note_on channel=9 note=72 velocity=100 time=4
the msg is note_off channel=9 note=72 velocity=100 time=1
the msg is note_on channel=9 note=72 velocity=100 time=4
the msg is note_off channel=9 note=72 velocity=100 time=1
the msg is note_on channel=9 note=76 velocity=100 time=4
the msg is note_off channel=9 note=76 velocity=100 time=1
the msg is note_on channel=9 note=79 velocity=100 time=10
the msg is note_off channel=9 note=79 velocity=100 time=1
the msg is note_on channel=9 note=76 velocity=100 time=10
the msg is note_off channel=9 note=76 velocity=100 time=1
the msg is note_on channel=9 note=79 velocity=100 time=10
the msg is note_off channel=9 note=79 velocity=100 time=1
the msg is note_on channel=9 note=79 velocity=100 time=4
the msg is note_off channel=9 note=79 velocity=100 time=1
the msg is note_on channel=9 note=76 velocity=100 time=4
the msg is note_off channel=9 note=76 velocity=100 time=1
the msg is note_on channel=9 note=74 velocity=100 time=4
the msg is note_off channel=9 note=74 velocity=100 time=1
the msg is note_on channel=9 note=72 velocity=100 time=4
the msg is note_off channel=9 note=72 velocity=100 time=1
the msg is note_on channel=9 note=74 velocity=100 time=10
the msg is note_off channel=9 note=74 velocity=100 time=1
the msg is note_on channel=9 note=74 velocity=100 time=10
the msg is note_off channel=9 note=74 velocity=100 time=1
the msg is note_on channel=9 note=74 velocity=100 time=10
the msg is note_off channel=9 note=74 velocity=100 time=1
the msg is note_on channel=9 note=76 velocity=100 time=10
the msg is note_off channel=9 note=76 velocity=100 time=1
the msg is note_on channel=9 note=79 velocity=100 time=10
the msg is note_off channel=9 note=79 velocity=100 time=1
the msg is note_on channel=9 note=79 velocity=100 time=6
the msg is note_off channel=9 note=79 velocity=100 time=1
the msg is note_on channel=9 note=76 velocity=100 time=3
the msg is note_off channel=9 note=76 velocity=100 time=1
the msg is note_on channel=9 note=74 velocity=100 time=6
the msg is note_off channel=9 note=74 velocity=100 time=1
the msg is note_on channel=9 note=72 velocity=100 time=3
the msg is note_off channel=9 note=72 velocity=100 time=1
the msg is note_on channel=9 note=74 velocity=100 time=10
the msg is note_off channel=9 note=74 velocity=100 time=1
the msg is note_on channel=9 note=76 velocity=100 time=10
the msg is note_off channel=9 note=76 velocity=100 time=1
the msg is note_on channel=9 note=72 velocity=100 time=4
the msg is note_off channel=9 note=72 velocity=100 time=1
the msg is note_on channel=9 note=74 velocity=100 time=4
the msg is note_off channel=9 note=74 velocity=100 time=1
the msg is note_on channel=9 note=74 velocity=100 time=10
the msg is note_off channel=9 note=74 velocity=100 time=1
the msg is note_on channel=9 note=74 velocity=100 time=10
the msg is note_off channel=9 note=74 velocity=100 time=1
the msg is note_on channel=9 note=74 velocity=100 time=4
the msg is note_off channel=9 note=74 velocity=100 time=1
the msg is note_on channel=9 note=71 velocity=100 time=4
the msg is note_off channel=9 note=71 velocity=100 time=1
the msg is note_on channel=9 note=74 velocity=100 time=10
the msg is note_off channel=9 note=74 velocity=100 time=1
the msg is note_on channel=9 note=74 velocity=100 time=10
the msg is note_off channel=9 note=74 velocity=100 time=1
the msg is note_on channel=9 note=72 velocity=100 time=3
the msg is note_off channel=9 note=72 velocity=100 time=1
the msg is note_on channel=9 note=74 velocity=100 time=10
the msg is note_off channel=9 note=74 velocity=100 time=1
the msg is note_on channel=9 note=74 velocity=100 time=10
the msg is note_off channel=9 note=74 velocity=100 time=1
the msg is note_on channel=9 note=74 velocity=100 time=4
the msg is note_off channel=9 note=74 velocity=100 time=1
the msg is note_on channel=9 note=71 velocity=100 time=4
the msg is note_off channel=9 note=71 velocity=100 time=1
the msg is note_on channel=9 note=74 velocity=100 time=4
the msg is note_off channel=9 note=74 velocity=100 time=1
the msg is note_on channel=9 note=76 velocity=100 time=10
the msg is note_off channel=9 note=76 velocity=100 time=1
the msg is note_on channel=9 note=79 velocity=100 time=10
the msg is note_off channel=9 note=79 velocity=100 time=1
the msg is note_on channel=9 note=72 velocity=100 time=3
the msg is note_off channel=9 note=72 velocity=100 time=1
the msg is note_on channel=9 note=72 velocity=100 time=6
the msg is note_off channel=9 note=72 velocity=100 time=1
the msg is note_on channel=9 note=72 velocity=100 time=3
the msg is note_off channel=9 note=72 velocity=100 time=1
the msg is note_on channel=9 note=72 velocity=100 time=10
the msg is note_off channel=9 note=72 velocity=100 time=1
the msg is note_on channel=9 note=72 velocity=100 time=4
the msg is note_off channel=9 note=72 velocity=100 time=1
the msg is note_on channel=9 note=72 velocity=100 time=4
the msg is note_off channel=9 note=72 velocity=100 time=1
the msg is <meta message end_of_track time=0>
the msg is <meta message track_name name='outTest85_512_1.0.mid' time=0>
the msg is note_on channel=9 note=69 velocity=100 time=1
the msg is note_off channel=9 note=69 velocity=100 time=1
the msg is note_on channel=9 note=72 velocity=100 time=75
the msg is note_off channel=9 note=72 velocity=100 time=1
the msg is note_on channel=9 note=72 velocity=100 time=4
the msg is note_off channel=9 note=72 velocity=100 time=1
the msg is note_on channel=9 note=72 velocity=100 time=4
the msg is note_off channel=9 note=72 velocity=100 time=1
the msg is note_on channel=9 note=72 velocity=100 time=10
the msg is note_off channel=9 note=72 velocity=100 time=1
the msg is note_on channel=9 note=74 velocity=100 time=10
the msg is note_off channel=9 note=74 velocity=100 time=1
the msg is note_on channel=9 note=74 velocity=100 time=4
the msg is note_off channel=9 note=74 velocity=100 time=1
the msg is note_on channel=9 note=71 velocity=100 time=4
the msg is note_off channel=9 note=71 velocity=100 time=1
the msg is note_on channel=9 note=74 velocity=100 time=10
the msg is note_off channel=9 note=74 velocity=100 time=1
the msg is note_on channel=9 note=74 velocity=100 time=4
the msg is note_off channel=9 note=74 velocity=100 time=1
the msg is note_on channel=9 note=71 velocity=100 time=4
the msg is note_off channel=9 note=71 velocity=100 time=1
the msg is note_on channel=9 note=71 velocity=100 time=4
the msg is note_off channel=9 note=71 velocity=100 time=1
the msg is note_on channel=9 note=69 velocity=100 time=4
the msg is note_off channel=9 note=69 velocity=100 time=1
the msg is note_on channel=9 note=72 velocity=100 time=55
the msg is note_off channel=9 note=72 velocity=100 time=1
the msg is note_on channel=9 note=72 velocity=100 time=10
the msg is note_off channel=9 note=72 velocity=100 time=1
the msg is note_on channel=9 note=72 velocity=100 time=4
the msg is note_off channel=9 note=72 velocity=100 time=1
the msg is note_on channel=9 note=72 velocity=100 time=4
the msg is note_off channel=9 note=72 velocity=100 time=1
the msg is note_on channel=9 note=72 velocity=100 time=4
the msg is note_off channel=9 note=72 velocity=100 time=1
the msg is note_on channel=9 note=76 velocity=100 time=4
the msg is note_off channel=9 note=76 velocity=100 time=1
the msg is note_on channel=9 note=79 velocity=100 time=10
the msg is note_off channel=9 note=79 velocity=100 time=1
the msg is note_on channel=9 note=76 velocity=100 time=10
the msg is note_off channel=9 note=76 velocity=100 time=1
the msg is note_on channel=9 note=79 velocity=100 time=10
the msg is note_off channel=9 note=79 velocity=100 time=1
the msg is note_on channel=9 note=79 velocity=100 time=4
the msg is note_off channel=9 note=79 velocity=100 time=1
the msg is note_on channel=9 note=76 velocity=100 time=4
the msg is note_off channel=9 note=76 velocity=100 time=1
the msg is note_on channel=9 note=74 velocity=100 time=4
the msg is note_off channel=9 note=74 velocity=100 time=1
the msg is note_on channel=9 note=72 velocity=100 time=4
the msg is note_off channel=9 note=72 velocity=100 time=1
the msg is note_on channel=9 note=74 velocity=100 time=10
the msg is note_off channel=9 note=74 velocity=100 time=1
the msg is note_on channel=9 note=74 velocity=100 time=10
the msg is note_off channel=9 note=74 velocity=100 time=1
the msg is note_on channel=9 note=74 velocity=100 time=10
the msg is note_off channel=9 note=74 velocity=100 time=1
the msg is note_on channel=9 note=76 velocity=100 time=10
the msg is note_off channel=9 note=76 velocity=100 time=1
the msg is note_on channel=9 note=79 velocity=100 time=10
the msg is note_off channel=9 note=79 velocity=100 time=1
the msg is note_on channel=9 note=79 velocity=100 time=6
the msg is note_off channel=9 note=79 velocity=100 time=1
the msg is note_on channel=9 note=76 velocity=100 time=3
the msg is note_off channel=9 note=76 velocity=100 time=1
the msg is note_on channel=9 note=74 velocity=100 time=6
the msg is note_off channel=9 note=74 velocity=100 time=1
the msg is note_on channel=9 note=72 velocity=100 time=3
the msg is note_off channel=9 note=72 velocity=100 time=1
the msg is note_on channel=9 note=74 velocity=100 time=10
the msg is note_off channel=9 note=74 velocity=100 time=1
the msg is note_on channel=9 note=76 velocity=100 time=10
the msg is note_off channel=9 note=76 velocity=100 time=1
the msg is note_on channel=9 note=72 velocity=100 time=4
the msg is note_off channel=9 note=72 velocity=100 time=1
the msg is note_on channel=9 note=74 velocity=100 time=4
the msg is note_off channel=9 note=74 velocity=100 time=1
the msg is note_on channel=9 note=74 velocity=100 time=10
the msg is note_off channel=9 note=74 velocity=100 time=1
the msg is note_on channel=9 note=74 velocity=100 time=10
the msg is note_off channel=9 note=74 velocity=100 time=1
the msg is note_on channel=9 note=74 velocity=100 time=4
the msg is note_off channel=9 note=74 velocity=100 time=1
the msg is note_on channel=9 note=71 velocity=100 time=4
the msg is note_off channel=9 note=71 velocity=100 time=1
the msg is note_on channel=9 note=74 velocity=100 time=10
the msg is note_off channel=9 note=74 velocity=100 time=1
the msg is note_on channel=9 note=74 velocity=100 time=10
the msg is note_off channel=9 note=74 velocity=100 time=1
the msg is note_on channel=9 note=72 velocity=100 time=3
the msg is note_off channel=9 note=72 velocity=100 time=1
the msg is note_on channel=9 note=74 velocity=100 time=10
the msg is note_off channel=9 note=74 velocity=100 time=1
the msg is note_on channel=9 note=74 velocity=100 time=10
the msg is note_off channel=9 note=74 velocity=100 time=1
the msg is note_on channel=9 note=74 velocity=100 time=4
the msg is note_off channel=9 note=74 velocity=100 time=1
the msg is note_on channel=9 note=71 velocity=100 time=4
the msg is note_off channel=9 note=71 velocity=100 time=1
the msg is note_on channel=9 note=74 velocity=100 time=4
the msg is note_off channel=9 note=74 velocity=100 time=1
the msg is note_on channel=9 note=76 velocity=100 time=10
the msg is note_off channel=9 note=76 velocity=100 time=1
the msg is note_on channel=9 note=79 velocity=100 time=10
the msg is note_off channel=9 note=79 velocity=100 time=1
the msg is note_on channel=9 note=72 velocity=100 time=3
the msg is note_off channel=9 note=72 velocity=100 time=1
the msg is note_on channel=9 note=72 velocity=100 time=6
the msg is note_off channel=9 note=72 velocity=100 time=1
the msg is note_on channel=9 note=72 velocity=100 time=3
the msg is note_off channel=9 note=72 velocity=100 time=1
the msg is note_on channel=9 note=72 velocity=100 time=10
the msg is note_off channel=9 note=72 velocity=100 time=1
the msg is note_on channel=9 note=72 velocity=100 time=4
the msg is note_off channel=9 note=72 velocity=100 time=1
the msg is note_on channel=9 note=72 velocity=100 time=4
the msg is note_off channel=9 note=72 velocity=100 time=1
the msg is <meta message end_of_track time=0>
the msg is <meta message track_name name='outTest85_512_1.0.mid' time=0>
the msg is note_on channel=9 note=69 velocity=100 time=1
the msg is note_off channel=9 note=69 velocity=100 time=1
the msg is note_on channel=9 note=72 velocity=100 time=75
the msg is note_off channel=9 note=72 velocity=100 time=1
the msg is note_on channel=9 note=72 velocity=100 time=4
the msg is note_off channel=9 note=72 velocity=100 time=1
the msg is note_on channel=9 note=72 velocity=100 time=4
the msg is note_off channel=9 note=72 velocity=100 time=1
the msg is note_on channel=9 note=72 velocity=100 time=10
the msg is note_off channel=9 note=72 velocity=100 time=1
the msg is note_on channel=9 note=74 velocity=100 time=10
the msg is note_off channel=9 note=74 velocity=100 time=1
the msg is note_on channel=9 note=74 velocity=100 time=4
the msg is note_off channel=9 note=74 velocity=100 time=1
the msg is note_on channel=9 note=71 velocity=100 time=4
the msg is note_off channel=9 note=71 velocity=100 time=1
the msg is note_on channel=9 note=74 velocity=100 time=10
the msg is note_off channel=9 note=74 velocity=100 time=1
the msg is note_on channel=9 note=74 velocity=100 time=4
the msg is note_off channel=9 note=74 velocity=100 time=1
the msg is note_on channel=9 note=71 velocity=100 time=4
the msg is note_off channel=9 note=71 velocity=100 time=1
the msg is note_on channel=9 note=71 velocity=100 time=4
the msg is note_off channel=9 note=71 velocity=100 time=1
the msg is note_on channel=9 note=69 velocity=100 time=4
the msg is note_off channel=9 note=69 velocity=100 time=1
the msg is note_on channel=9 note=72 velocity=100 time=55
the msg is note_off channel=9 note=72 velocity=100 time=1
the msg is note_on channel=9 note=72 velocity=100 time=10
the msg is note_off channel=9 note=72 velocity=100 time=1
the msg is note_on channel=9 note=72 velocity=100 time=4
the msg is note_off channel=9 note=72 velocity=100 time=1
the msg is note_on channel=9 note=72 velocity=100 time=4
the msg is note_off channel=9 note=72 velocity=100 time=1
the msg is note_on channel=9 note=72 velocity=100 time=4
the msg is note_off channel=9 note=72 velocity=100 time=1
the msg is note_on channel=9 note=76 velocity=100 time=4
the msg is note_off channel=9 note=76 velocity=100 time=1
the msg is note_on channel=9 note=79 velocity=100 time=10
the msg is note_off channel=9 note=79 velocity=100 time=1
the msg is note_on channel=9 note=76 velocity=100 time=10
the msg is note_off channel=9 note=76 velocity=100 time=1
the msg is note_on channel=9 note=79 velocity=100 time=10
the msg is note_off channel=9 note=79 velocity=100 time=1
the msg is note_on channel=9 note=79 velocity=100 time=4
the msg is note_off channel=9 note=79 velocity=100 time=1
the msg is note_on channel=9 note=76 velocity=100 time=4
the msg is note_off channel=9 note=76 velocity=100 time=1
the msg is note_on channel=9 note=74 velocity=100 time=4
the msg is note_off channel=9 note=74 velocity=100 time=1
the msg is note_on channel=9 note=72 velocity=100 time=4
the msg is note_off channel=9 note=72 velocity=100 time=1
the msg is note_on channel=9 note=74 velocity=100 time=10
the msg is note_off channel=9 note=74 velocity=100 time=1
the msg is note_on channel=9 note=74 velocity=100 time=10
the msg is note_off channel=9 note=74 velocity=100 time=1
the msg is note_on channel=9 note=74 velocity=100 time=10
the msg is note_off channel=9 note=74 velocity=100 time=1
the msg is note_on channel=9 note=76 velocity=100 time=10
the msg is note_off channel=9 note=76 velocity=100 time=1
the msg is note_on channel=9 note=79 velocity=100 time=10
the msg is note_off channel=9 note=79 velocity=100 time=1
the msg is note_on channel=9 note=79 velocity=100 time=6
the msg is note_off channel=9 note=79 velocity=100 time=1
the msg is note_on channel=9 note=76 velocity=100 time=3
the msg is note_off channel=9 note=76 velocity=100 time=1
the msg is note_on channel=9 note=74 velocity=100 time=6
the msg is note_off channel=9 note=74 velocity=100 time=1
the msg is note_on channel=9 note=72 velocity=100 time=3
the msg is note_off channel=9 note=72 velocity=100 time=1
the msg is note_on channel=9 note=74 velocity=100 time=10
the msg is note_off channel=9 note=74 velocity=100 time=1
the msg is note_on channel=9 note=76 velocity=100 time=10
the msg is note_off channel=9 note=76 velocity=100 time=1
the msg is note_on channel=9 note=72 velocity=100 time=4
the msg is note_off channel=9 note=72 velocity=100 time=1
the msg is note_on channel=9 note=74 velocity=100 time=4
the msg is note_off channel=9 note=74 velocity=100 time=1
the msg is note_on channel=9 note=74 velocity=100 time=10
the msg is note_off channel=9 note=74 velocity=100 time=1
the msg is note_on channel=9 note=74 velocity=100 time=10
the msg is note_off channel=9 note=74 velocity=100 time=1
the msg is note_on channel=9 note=74 velocity=100 time=4
the msg is note_off channel=9 note=74 velocity=100 time=1
the msg is note_on channel=9 note=71 velocity=100 time=4
the msg is note_off channel=9 note=71 velocity=100 time=1
the msg is note_on channel=9 note=74 velocity=100 time=10
the msg is note_off channel=9 note=74 velocity=100 time=1
the msg is note_on channel=9 note=74 velocity=100 time=10
the msg is note_off channel=9 note=74 velocity=100 time=1
the msg is note_on channel=9 note=72 velocity=100 time=3
the msg is note_off channel=9 note=72 velocity=100 time=1
the msg is note_on channel=9 note=74 velocity=100 time=10
the msg is note_off channel=9 note=74 velocity=100 time=1
the msg is note_on channel=9 note=74 velocity=100 time=10
the msg is note_off channel=9 note=74 velocity=100 time=1
the msg is note_on channel=9 note=74 velocity=100 time=4
the msg is note_off channel=9 note=74 velocity=100 time=1
the msg is note_on channel=9 note=71 velocity=100 time=4
the msg is note_off channel=9 note=71 velocity=100 time=1
the msg is note_on channel=9 note=74 velocity=100 time=4
the msg is note_off channel=9 note=74 velocity=100 time=1
the msg is note_on channel=9 note=76 velocity=100 time=10
the msg is note_off channel=9 note=76 velocity=100 time=1
the msg is note_on channel=9 note=79 velocity=100 time=10
the msg is note_off channel=9 note=79 velocity=100 time=1
the msg is note_on channel=9 note=72 velocity=100 time=3
the msg is note_off channel=9 note=72 velocity=100 time=1
the msg is note_on channel=9 note=72 velocity=100 time=6
the msg is note_off channel=9 note=72 velocity=100 time=1
the msg is note_on channel=9 note=72 velocity=100 time=3
the msg is note_off channel=9 note=72 velocity=100 time=1
the msg is note_on channel=9 note=72 velocity=100 time=10
the msg is note_off channel=9 note=72 velocity=100 time=1
the msg is note_on channel=9 note=72 velocity=100 time=4
the msg is note_off channel=9 note=72 velocity=100 time=1
the msg is note_on channel=9 note=72 velocity=100 time=4
the msg is note_off channel=9 note=72 velocity=100 time=1
the msg is <meta message end_of_track time=0>
the msg is <meta message track_name name='outTest85_512_1.0.mid' time=0>
the msg is note_on channel=9 note=69 velocity=100 time=1
the msg is note_off channel=9 note=69 velocity=100 time=1
the msg is note_on channel=9 note=72 velocity=100 time=75
the msg is note_off channel=9 note=72 velocity=100 time=1
the msg is note_on channel=9 note=72 velocity=100 time=4
the msg is note_off channel=9 note=72 velocity=100 time=1
the msg is note_on channel=9 note=72 velocity=100 time=4
the msg is note_off channel=9 note=72 velocity=100 time=1
the msg is note_on channel=9 note=72 velocity=100 time=10
the msg is note_off channel=9 note=72 velocity=100 time=1
the msg is note_on channel=9 note=74 velocity=100 time=10
the msg is note_off channel=9 note=74 velocity=100 time=1
the msg is note_on channel=9 note=74 velocity=100 time=4
the msg is note_off channel=9 note=74 velocity=100 time=1
the msg is note_on channel=9 note=71 velocity=100 time=4
the msg is note_off channel=9 note=71 velocity=100 time=1
the msg is note_on channel=9 note=74 velocity=100 time=10
the msg is note_off channel=9 note=74 velocity=100 time=1
the msg is note_on channel=9 note=74 velocity=100 time=4
the msg is note_off channel=9 note=74 velocity=100 time=1
the msg is note_on channel=9 note=71 velocity=100 time=4
the msg is note_off channel=9 note=71 velocity=100 time=1
the msg is note_on channel=9 note=71 velocity=100 time=4
the msg is note_off channel=9 note=71 velocity=100 time=1
the msg is note_on channel=9 note=69 velocity=100 time=4
the msg is note_off channel=9 note=69 velocity=100 time=1
the msg is note_on channel=9 note=72 velocity=100 time=55
the msg is note_off channel=9 note=72 velocity=100 time=1
the msg is note_on channel=9 note=72 velocity=100 time=10
the msg is note_off channel=9 note=72 velocity=100 time=1
the msg is note_on channel=9 note=72 velocity=100 time=4
the msg is note_off channel=9 note=72 velocity=100 time=1
the msg is note_on channel=9 note=72 velocity=100 time=4
the msg is note_off channel=9 note=72 velocity=100 time=1
the msg is note_on channel=9 note=72 velocity=100 time=4
the msg is note_off channel=9 note=72 velocity=100 time=1
the msg is note_on channel=9 note=76 velocity=100 time=4
the msg is note_off channel=9 note=76 velocity=100 time=1
the msg is note_on channel=9 note=79 velocity=100 time=10
the msg is note_off channel=9 note=79 velocity=100 time=1
the msg is note_on channel=9 note=76 velocity=100 time=10
the msg is note_off channel=9 note=76 velocity=100 time=1
the msg is note_on channel=9 note=79 velocity=100 time=10
the msg is note_off channel=9 note=79 velocity=100 time=1
the msg is note_on channel=9 note=79 velocity=100 time=4
the msg is note_off channel=9 note=79 velocity=100 time=1
the msg is note_on channel=9 note=76 velocity=100 time=4
the msg is note_off channel=9 note=76 velocity=100 time=1
the msg is note_on channel=9 note=74 velocity=100 time=4
the msg is note_off channel=9 note=74 velocity=100 time=1
the msg is note_on channel=9 note=72 velocity=100 time=4
the msg is note_off channel=9 note=72 velocity=100 time=1
the msg is note_on channel=9 note=74 velocity=100 time=10
the msg is note_off channel=9 note=74 velocity=100 time=1
the msg is note_on channel=9 note=74 velocity=100 time=10
the msg is note_off channel=9 note=74 velocity=100 time=1
the msg is note_on channel=9 note=74 velocity=100 time=10
the msg is note_off channel=9 note=74 velocity=100 time=1
the msg is note_on channel=9 note=76 velocity=100 time=10
the msg is note_off channel=9 note=76 velocity=100 time=1
the msg is note_on channel=9 note=79 velocity=100 time=10
the msg is note_off channel=9 note=79 velocity=100 time=1
the msg is note_on channel=9 note=79 velocity=100 time=6
the msg is note_off channel=9 note=79 velocity=100 time=1
the msg is note_on channel=9 note=76 velocity=100 time=3
the msg is note_off channel=9 note=76 velocity=100 time=1
the msg is note_on channel=9 note=74 velocity=100 time=6
the msg is note_off channel=9 note=74 velocity=100 time=1
the msg is note_on channel=9 note=72 velocity=100 time=3
the msg is note_off channel=9 note=72 velocity=100 time=1
the msg is note_on channel=9 note=74 velocity=100 time=10
the msg is note_off channel=9 note=74 velocity=100 time=1
the msg is note_on channel=9 note=76 velocity=100 time=10
the msg is note_off channel=9 note=76 velocity=100 time=1
the msg is note_on channel=9 note=72 velocity=100 time=4
the msg is note_off channel=9 note=72 velocity=100 time=1
the msg is note_on channel=9 note=74 velocity=100 time=4
the msg is note_off channel=9 note=74 velocity=100 time=1
the msg is note_on channel=9 note=74 velocity=100 time=10
the msg is note_off channel=9 note=74 velocity=100 time=1
the msg is note_on channel=9 note=74 velocity=100 time=10
the msg is note_off channel=9 note=74 velocity=100 time=1
the msg is note_on channel=9 note=74 velocity=100 time=4
the msg is note_off channel=9 note=74 velocity=100 time=1
the msg is note_on channel=9 note=71 velocity=100 time=4
the msg is note_off channel=9 note=71 velocity=100 time=1
the msg is note_on channel=9 note=74 velocity=100 time=10
the msg is note_off channel=9 note=74 velocity=100 time=1
the msg is note_on channel=9 note=74 velocity=100 time=10
the msg is note_off channel=9 note=74 velocity=100 time=1
the msg is note_on channel=9 note=72 velocity=100 time=3
the msg is note_off channel=9 note=72 velocity=100 time=1
the msg is note_on channel=9 note=74 velocity=100 time=10
the msg is note_off channel=9 note=74 velocity=100 time=1
the msg is note_on channel=9 note=74 velocity=100 time=10
the msg is note_off channel=9 note=74 velocity=100 time=1
the msg is note_on channel=9 note=74 velocity=100 time=4
the msg is note_off channel=9 note=74 velocity=100 time=1
the msg is note_on channel=9 note=71 velocity=100 time=4
the msg is note_off channel=9 note=71 velocity=100 time=1
the msg is note_on channel=9 note=74 velocity=100 time=4
the msg is note_off channel=9 note=74 velocity=100 time=1
the msg is note_on channel=9 note=76 velocity=100 time=10
the msg is note_off channel=9 note=76 velocity=100 time=1
the msg is note_on channel=9 note=79 velocity=100 time=10
the msg is note_off channel=9 note=79 velocity=100 time=1
the msg is note_on channel=9 note=72 velocity=100 time=3
the msg is note_off channel=9 note=72 velocity=100 time=1
the msg is note_on channel=9 note=72 velocity=100 time=6
the msg is note_off channel=9 note=72 velocity=100 time=1
the msg is note_on channel=9 note=72 velocity=100 time=3
the msg is note_off channel=9 note=72 velocity=100 time=1
the msg is note_on channel=9 note=72 velocity=100 time=10
the msg is note_off channel=9 note=72 velocity=100 time=1
the msg is note_on channel=9 note=72 velocity=100 time=4
the msg is note_off channel=9 note=72 velocity=100 time=1
the msg is note_on channel=9 note=72 velocity=100 time=4
the msg is note_off channel=9 note=72 velocity=100 time=1
the msg is <meta message end_of_track time=0>
the msg is <meta message track_name name='outTest85_512_1.0.mid' time=0>
the msg is note_on channel=9 note=69 velocity=100 time=1
the msg is note_off channel=9 note=69 velocity=100 time=1
the msg is note_on channel=9 note=72 velocity=100 time=75
the msg is note_off channel=9 note=72 velocity=100 time=1
the msg is note_on channel=9 note=72 velocity=100 time=4
the msg is note_off channel=9 note=72 velocity=100 time=1
the msg is note_on channel=9 note=72 velocity=100 time=4
the msg is note_off channel=9 note=72 velocity=100 time=1
the msg is note_on channel=9 note=72 velocity=100 time=10
the msg is note_off channel=9 note=72 velocity=100 time=1
the msg is note_on channel=9 note=74 velocity=100 time=10
the msg is note_off channel=9 note=74 velocity=100 time=1
the msg is note_on channel=9 note=74 velocity=100 time=4
the msg is note_off channel=9 note=74 velocity=100 time=1
the msg is note_on channel=9 note=71 velocity=100 time=4
the msg is note_off channel=9 note=71 velocity=100 time=1
the msg is note_on channel=9 note=74 velocity=100 time=10
the msg is note_off channel=9 note=74 velocity=100 time=1
the msg is note_on channel=9 note=74 velocity=100 time=4
the msg is note_off channel=9 note=74 velocity=100 time=1
the msg is note_on channel=9 note=71 velocity=100 time=4
the msg is note_off channel=9 note=71 velocity=100 time=1
the msg is note_on channel=9 note=71 velocity=100 time=4
the msg is note_off channel=9 note=71 velocity=100 time=1
the msg is note_on channel=9 note=69 velocity=100 time=4
the msg is note_off channel=9 note=69 velocity=100 time=1
the msg is note_on channel=9 note=72 velocity=100 time=55
the msg is note_off channel=9 note=72 velocity=100 time=1
the msg is note_on channel=9 note=72 velocity=100 time=10
the msg is note_off channel=9 note=72 velocity=100 time=1
the msg is note_on channel=9 note=72 velocity=100 time=4
the msg is note_off channel=9 note=72 velocity=100 time=1
the msg is note_on channel=9 note=72 velocity=100 time=4
the msg is note_off channel=9 note=72 velocity=100 time=1
the msg is note_on channel=9 note=72 velocity=100 time=4
the msg is note_off channel=9 note=72 velocity=100 time=1
the msg is note_on channel=9 note=76 velocity=100 time=4
the msg is note_off channel=9 note=76 velocity=100 time=1
the msg is note_on channel=9 note=79 velocity=100 time=10
the msg is note_off channel=9 note=79 velocity=100 time=1
the msg is note_on channel=9 note=76 velocity=100 time=10
the msg is note_off channel=9 note=76 velocity=100 time=1
the msg is note_on channel=9 note=79 velocity=100 time=10
the msg is note_off channel=9 note=79 velocity=100 time=1
the msg is note_on channel=9 note=79 velocity=100 time=4
the msg is note_off channel=9 note=79 velocity=100 time=1
the msg is note_on channel=9 note=76 velocity=100 time=4
the msg is note_off channel=9 note=76 velocity=100 time=1
the msg is note_on channel=9 note=74 velocity=100 time=4
the msg is note_off channel=9 note=74 velocity=100 time=1
the msg is note_on channel=9 note=72 velocity=100 time=4
the msg is note_off channel=9 note=72 velocity=100 time=1
the msg is note_on channel=9 note=74 velocity=100 time=10
the msg is note_off channel=9 note=74 velocity=100 time=1
the msg is note_on channel=9 note=74 velocity=100 time=10
the msg is note_off channel=9 note=74 velocity=100 time=1
the msg is note_on channel=9 note=74 velocity=100 time=10
the msg is note_off channel=9 note=74 velocity=100 time=1
the msg is note_on channel=9 note=76 velocity=100 time=10
the msg is note_off channel=9 note=76 velocity=100 time=1
the msg is note_on channel=9 note=79 velocity=100 time=10
the msg is note_off channel=9 note=79 velocity=100 time=1
the msg is note_on channel=9 note=79 velocity=100 time=6
the msg is note_off channel=9 note=79 velocity=100 time=1
the msg is note_on channel=9 note=76 velocity=100 time=3
the msg is note_off channel=9 note=76 velocity=100 time=1
the msg is note_on channel=9 note=74 velocity=100 time=6
the msg is note_off channel=9 note=74 velocity=100 time=1
the msg is note_on channel=9 note=72 velocity=100 time=3
the msg is note_off channel=9 note=72 velocity=100 time=1
the msg is note_on channel=9 note=74 velocity=100 time=10
the msg is note_off channel=9 note=74 velocity=100 time=1
the msg is note_on channel=9 note=76 velocity=100 time=10
the msg is note_off channel=9 note=76 velocity=100 time=1
the msg is note_on channel=9 note=72 velocity=100 time=4
the msg is note_off channel=9 note=72 velocity=100 time=1
the msg is note_on channel=9 note=74 velocity=100 time=4
the msg is note_off channel=9 note=74 velocity=100 time=1
the msg is note_on channel=9 note=74 velocity=100 time=10
the msg is note_off channel=9 note=74 velocity=100 time=1
the msg is note_on channel=9 note=74 velocity=100 time=10
the msg is note_off channel=9 note=74 velocity=100 time=1
the msg is note_on channel=9 note=74 velocity=100 time=4
the msg is note_off channel=9 note=74 velocity=100 time=1
the msg is note_on channel=9 note=71 velocity=100 time=4
the msg is note_off channel=9 note=71 velocity=100 time=1
the msg is note_on channel=9 note=74 velocity=100 time=10
the msg is note_off channel=9 note=74 velocity=100 time=1
the msg is note_on channel=9 note=74 velocity=100 time=10
the msg is note_off channel=9 note=74 velocity=100 time=1
the msg is note_on channel=9 note=72 velocity=100 time=3
the msg is note_off channel=9 note=72 velocity=100 time=1
the msg is note_on channel=9 note=74 velocity=100 time=10
the msg is note_off channel=9 note=74 velocity=100 time=1
the msg is note_on channel=9 note=74 velocity=100 time=10
the msg is note_off channel=9 note=74 velocity=100 time=1
the msg is note_on channel=9 note=74 velocity=100 time=4
the msg is note_off channel=9 note=74 velocity=100 time=1
the msg is note_on channel=9 note=71 velocity=100 time=4
the msg is note_off channel=9 note=71 velocity=100 time=1
the msg is note_on channel=9 note=74 velocity=100 time=4
the msg is note_off channel=9 note=74 velocity=100 time=1
the msg is note_on channel=9 note=76 velocity=100 time=10
the msg is note_off channel=9 note=76 velocity=100 time=1
the msg is note_on channel=9 note=79 velocity=100 time=10
the msg is note_off channel=9 note=79 velocity=100 time=1
the msg is note_on channel=9 note=72 velocity=100 time=3
the msg is note_off channel=9 note=72 velocity=100 time=1
the msg is note_on channel=9 note=72 velocity=100 time=6
the msg is note_off channel=9 note=72 velocity=100 time=1
the msg is note_on channel=9 note=72 velocity=100 time=3
the msg is note_off channel=9 note=72 velocity=100 time=1
the msg is note_on channel=9 note=72 velocity=100 time=10
the msg is note_off channel=9 note=72 velocity=100 time=1
the msg is note_on channel=9 note=72 velocity=100 time=4
the msg is note_off channel=9 note=72 velocity=100 time=1
the msg is note_on channel=9 note=72 velocity=100 time=4
the msg is note_off channel=9 note=72 velocity=100 time=1
the msg is <meta message end_of_track time=0>
the msg is <meta message track_name name='outTest85_512_1.0.mid' time=0>
the msg is note_on channel=9 note=69 velocity=100 time=1
the msg is note_off channel=9 note=69 velocity=100 time=1
the msg is note_on channel=9 note=72 velocity=100 time=75
the msg is note_off channel=9 note=72 velocity=100 time=1
the msg is note_on channel=9 note=72 velocity=100 time=4
the msg is note_off channel=9 note=72 velocity=100 time=1
the msg is note_on channel=9 note=72 velocity=100 time=4
the msg is note_off channel=9 note=72 velocity=100 time=1
the msg is note_on channel=9 note=72 velocity=100 time=10
the msg is note_off channel=9 note=72 velocity=100 time=1
the msg is note_on channel=9 note=74 velocity=100 time=10
the msg is note_off channel=9 note=74 velocity=100 time=1
the msg is note_on channel=9 note=74 velocity=100 time=4
the msg is note_off channel=9 note=74 velocity=100 time=1
the msg is note_on channel=9 note=71 velocity=100 time=4
the msg is note_off channel=9 note=71 velocity=100 time=1
the msg is note_on channel=9 note=74 velocity=100 time=10
the msg is note_off channel=9 note=74 velocity=100 time=1
the msg is note_on channel=9 note=74 velocity=100 time=4
the msg is note_off channel=9 note=74 velocity=100 time=1
the msg is note_on channel=9 note=71 velocity=100 time=4
the msg is note_off channel=9 note=71 velocity=100 time=1
the msg is note_on channel=9 note=71 velocity=100 time=4
the msg is note_off channel=9 note=71 velocity=100 time=1
the msg is note_on channel=9 note=69 velocity=100 time=4
the msg is note_off channel=9 note=69 velocity=100 time=1
the msg is note_on channel=9 note=72 velocity=100 time=55
the msg is note_off channel=9 note=72 velocity=100 time=1
the msg is note_on channel=9 note=72 velocity=100 time=10
the msg is note_off channel=9 note=72 velocity=100 time=1
the msg is note_on channel=9 note=72 velocity=100 time=4
the msg is note_off channel=9 note=72 velocity=100 time=1
the msg is note_on channel=9 note=72 velocity=100 time=4
the msg is note_off channel=9 note=72 velocity=100 time=1
the msg is note_on channel=9 note=72 velocity=100 time=4
the msg is note_off channel=9 note=72 velocity=100 time=1
the msg is note_on channel=9 note=76 velocity=100 time=4
the msg is note_off channel=9 note=76 velocity=100 time=1
the msg is note_on channel=9 note=79 velocity=100 time=10
the msg is note_off channel=9 note=79 velocity=100 time=1
the msg is note_on channel=9 note=76 velocity=100 time=10
the msg is note_off channel=9 note=76 velocity=100 time=1
the msg is note_on channel=9 note=79 velocity=100 time=10
the msg is note_off channel=9 note=79 velocity=100 time=1
the msg is note_on channel=9 note=79 velocity=100 time=4
the msg is note_off channel=9 note=79 velocity=100 time=1
the msg is note_on channel=9 note=76 velocity=100 time=4
the msg is note_off channel=9 note=76 velocity=100 time=1
the msg is note_on channel=9 note=74 velocity=100 time=4
the msg is note_off channel=9 note=74 velocity=100 time=1
the msg is note_on channel=9 note=72 velocity=100 time=4
the msg is note_off channel=9 note=72 velocity=100 time=1
the msg is note_on channel=9 note=74 velocity=100 time=10
the msg is note_off channel=9 note=74 velocity=100 time=1
the msg is note_on channel=9 note=74 velocity=100 time=10
the msg is note_off channel=9 note=74 velocity=100 time=1
the msg is note_on channel=9 note=74 velocity=100 time=10
the msg is note_off channel=9 note=74 velocity=100 time=1
the msg is note_on channel=9 note=76 velocity=100 time=10
the msg is note_off channel=9 note=76 velocity=100 time=1
the msg is note_on channel=9 note=79 velocity=100 time=10
the msg is note_off channel=9 note=79 velocity=100 time=1
the msg is note_on channel=9 note=79 velocity=100 time=6
the msg is note_off channel=9 note=79 velocity=100 time=1
the msg is note_on channel=9 note=76 velocity=100 time=3
the msg is note_off channel=9 note=76 velocity=100 time=1
the msg is note_on channel=9 note=74 velocity=100 time=6
the msg is note_off channel=9 note=74 velocity=100 time=1
the msg is note_on channel=9 note=72 velocity=100 time=3
the msg is note_off channel=9 note=72 velocity=100 time=1
the msg is note_on channel=9 note=74 velocity=100 time=10
the msg is note_off channel=9 note=74 velocity=100 time=1
the msg is note_on channel=9 note=76 velocity=100 time=10
the msg is note_off channel=9 note=76 velocity=100 time=1
the msg is note_on channel=9 note=72 velocity=100 time=4
the msg is note_off channel=9 note=72 velocity=100 time=1
the msg is note_on channel=9 note=74 velocity=100 time=4
the msg is note_off channel=9 note=74 velocity=100 time=1
the msg is note_on channel=9 note=74 velocity=100 time=10
the msg is note_off channel=9 note=74 velocity=100 time=1
the msg is note_on channel=9 note=74 velocity=100 time=10
the msg is note_off channel=9 note=74 velocity=100 time=1
the msg is note_on channel=9 note=74 velocity=100 time=4
the msg is note_off channel=9 note=74 velocity=100 time=1
the msg is note_on channel=9 note=71 velocity=100 time=4
the msg is note_off channel=9 note=71 velocity=100 time=1
the msg is note_on channel=9 note=74 velocity=100 time=10
the msg is note_off channel=9 note=74 velocity=100 time=1
the msg is note_on channel=9 note=74 velocity=100 time=10
the msg is note_off channel=9 note=74 velocity=100 time=1
the msg is note_on channel=9 note=72 velocity=100 time=3
the msg is note_off channel=9 note=72 velocity=100 time=1
the msg is note_on channel=9 note=74 velocity=100 time=10
the msg is note_off channel=9 note=74 velocity=100 time=1
the msg is note_on channel=9 note=74 velocity=100 time=10
the msg is note_off channel=9 note=74 velocity=100 time=1
the msg is note_on channel=9 note=74 velocity=100 time=4
the msg is note_off channel=9 note=74 velocity=100 time=1
the msg is note_on channel=9 note=71 velocity=100 time=4
the msg is note_off channel=9 note=71 velocity=100 time=1
the msg is note_on channel=9 note=74 velocity=100 time=4
the msg is note_off channel=9 note=74 velocity=100 time=1
the msg is note_on channel=9 note=76 velocity=100 time=10
the msg is note_off channel=9 note=76 velocity=100 time=1
the msg is note_on channel=9 note=79 velocity=100 time=10
the msg is note_off channel=9 note=79 velocity=100 time=1
the msg is note_on channel=9 note=72 velocity=100 time=3
the msg is note_off channel=9 note=72 velocity=100 time=1
the msg is note_on channel=9 note=72 velocity=100 time=6
the msg is note_off channel=9 note=72 velocity=100 time=1
the msg is note_on channel=9 note=72 velocity=100 time=3
the msg is note_off channel=9 note=72 velocity=100 time=1
the msg is note_on channel=9 note=72 velocity=100 time=10
the msg is note_off channel=9 note=72 velocity=100 time=1
the msg is note_on channel=9 note=72 velocity=100 time=4
the msg is note_off channel=9 note=72 velocity=100 time=1
the msg is note_on channel=9 note=72 velocity=100 time=4
the msg is note_off channel=9 note=72 velocity=100 time=1
the msg is <meta message end_of_track time=0>
the msg is <meta message track_name name='outTest85_512_1.0.mid' time=0>
the msg is note_on channel=9 note=69 velocity=100 time=1
the msg is note_off channel=9 note=69 velocity=100 time=1
the msg is note_on channel=9 note=72 velocity=100 time=75
the msg is note_off channel=9 note=72 velocity=100 time=1
the msg is note_on channel=9 note=72 velocity=100 time=4
the msg is note_off channel=9 note=72 velocity=100 time=1
the msg is note_on channel=9 note=72 velocity=100 time=4
the msg is note_off channel=9 note=72 velocity=100 time=1
the msg is note_on channel=9 note=72 velocity=100 time=10
the msg is note_off channel=9 note=72 velocity=100 time=1
the msg is note_on channel=9 note=74 velocity=100 time=10
the msg is note_off channel=9 note=74 velocity=100 time=1
the msg is note_on channel=9 note=74 velocity=100 time=4
the msg is note_off channel=9 note=74 velocity=100 time=1
the msg is note_on channel=9 note=71 velocity=100 time=4
the msg is note_off channel=9 note=71 velocity=100 time=1
the msg is note_on channel=9 note=74 velocity=100 time=10
the msg is note_off channel=9 note=74 velocity=100 time=1
the msg is note_on channel=9 note=74 velocity=100 time=4
the msg is note_off channel=9 note=74 velocity=100 time=1
the msg is note_on channel=9 note=71 velocity=100 time=4
the msg is note_off channel=9 note=71 velocity=100 time=1
the msg is note_on channel=9 note=71 velocity=100 time=4
the msg is note_off channel=9 note=71 velocity=100 time=1
the msg is note_on channel=9 note=69 velocity=100 time=4
the msg is note_off channel=9 note=69 velocity=100 time=1
the msg is note_on channel=9 note=72 velocity=100 time=55
the msg is note_off channel=9 note=72 velocity=100 time=1
the msg is note_on channel=9 note=72 velocity=100 time=10
the msg is note_off channel=9 note=72 velocity=100 time=1
the msg is note_on channel=9 note=72 velocity=100 time=4
the msg is note_off channel=9 note=72 velocity=100 time=1
the msg is note_on channel=9 note=72 velocity=100 time=4
the msg is note_off channel=9 note=72 velocity=100 time=1
the msg is note_on channel=9 note=72 velocity=100 time=4
the msg is note_off channel=9 note=72 velocity=100 time=1
the msg is note_on channel=9 note=76 velocity=100 time=4
the msg is note_off channel=9 note=76 velocity=100 time=1
the msg is note_on channel=9 note=79 velocity=100 time=10
the msg is note_off channel=9 note=79 velocity=100 time=1
the msg is note_on channel=9 note=76 velocity=100 time=10
the msg is note_off channel=9 note=76 velocity=100 time=1
the msg is note_on channel=9 note=79 velocity=100 time=10
the msg is note_off channel=9 note=79 velocity=100 time=1
the msg is note_on channel=9 note=79 velocity=100 time=4
the msg is note_off channel=9 note=79 velocity=100 time=1
the msg is note_on channel=9 note=76 velocity=100 time=4
the msg is note_off channel=9 note=76 velocity=100 time=1
the msg is note_on channel=9 note=74 velocity=100 time=4
the msg is note_off channel=9 note=74 velocity=100 time=1
the msg is note_on channel=9 note=72 velocity=100 time=4
the msg is note_off channel=9 note=72 velocity=100 time=1
the msg is note_on channel=9 note=74 velocity=100 time=10
the msg is note_off channel=9 note=74 velocity=100 time=1
the msg is note_on channel=9 note=74 velocity=100 time=10
the msg is note_off channel=9 note=74 velocity=100 time=1
the msg is note_on channel=9 note=74 velocity=100 time=10
the msg is note_off channel=9 note=74 velocity=100 time=1
the msg is note_on channel=9 note=76 velocity=100 time=10
the msg is note_off channel=9 note=76 velocity=100 time=1
the msg is note_on channel=9 note=79 velocity=100 time=10
the msg is note_off channel=9 note=79 velocity=100 time=1
the msg is note_on channel=9 note=79 velocity=100 time=6
the msg is note_off channel=9 note=79 velocity=100 time=1
the msg is note_on channel=9 note=76 velocity=100 time=3
the msg is note_off channel=9 note=76 velocity=100 time=1
the msg is note_on channel=9 note=74 velocity=100 time=6
the msg is note_off channel=9 note=74 velocity=100 time=1
the msg is note_on channel=9 note=72 velocity=100 time=3
the msg is note_off channel=9 note=72 velocity=100 time=1
the msg is note_on channel=9 note=74 velocity=100 time=10
the msg is note_off channel=9 note=74 velocity=100 time=1
the msg is note_on channel=9 note=76 velocity=100 time=10
the msg is note_off channel=9 note=76 velocity=100 time=1
the msg is note_on channel=9 note=72 velocity=100 time=4
the msg is note_off channel=9 note=72 velocity=100 time=1
the msg is note_on channel=9 note=74 velocity=100 time=4
the msg is note_off channel=9 note=74 velocity=100 time=1
the msg is note_on channel=9 note=74 velocity=100 time=10
the msg is note_off channel=9 note=74 velocity=100 time=1
the msg is note_on channel=9 note=74 velocity=100 time=10
the msg is note_off channel=9 note=74 velocity=100 time=1
the msg is note_on channel=9 note=74 velocity=100 time=4
the msg is note_off channel=9 note=74 velocity=100 time=1
the msg is note_on channel=9 note=71 velocity=100 time=4
the msg is note_off channel=9 note=71 velocity=100 time=1
the msg is note_on channel=9 note=74 velocity=100 time=10
the msg is note_off channel=9 note=74 velocity=100 time=1
the msg is note_on channel=9 note=74 velocity=100 time=10
the msg is note_off channel=9 note=74 velocity=100 time=1
the msg is note_on channel=9 note=72 velocity=100 time=3
the msg is note_off channel=9 note=72 velocity=100 time=1
the msg is note_on channel=9 note=74 velocity=100 time=10
the msg is note_off channel=9 note=74 velocity=100 time=1
the msg is note_on channel=9 note=74 velocity=100 time=10
the msg is note_off channel=9 note=74 velocity=100 time=1
the msg is note_on channel=9 note=74 velocity=100 time=4
the msg is note_off channel=9 note=74 velocity=100 time=1
the msg is note_on channel=9 note=71 velocity=100 time=4
the msg is note_off channel=9 note=71 velocity=100 time=1
the msg is note_on channel=9 note=74 velocity=100 time=4
the msg is note_off channel=9 note=74 velocity=100 time=1
the msg is note_on channel=9 note=76 velocity=100 time=10
the msg is note_off channel=9 note=76 velocity=100 time=1
the msg is note_on channel=9 note=79 velocity=100 time=10
the msg is note_off channel=9 note=79 velocity=100 time=1
the msg is note_on channel=9 note=72 velocity=100 time=3
the msg is note_off channel=9 note=72 velocity=100 time=1
the msg is note_on channel=9 note=72 velocity=100 time=6
the msg is note_off channel=9 note=72 velocity=100 time=1
the msg is note_on channel=9 note=72 velocity=100 time=3
the msg is note_off channel=9 note=72 velocity=100 time=1
the msg is note_on channel=9 note=72 velocity=100 time=10
the msg is note_off channel=9 note=72 velocity=100 time=1
the msg is note_on channel=9 note=72 velocity=100 time=4
the msg is note_off channel=9 note=72 velocity=100 time=1
the msg is note_on channel=9 note=72 velocity=100 time=4
the msg is note_off channel=9 note=72 velocity=100 time=1
the msg is <meta message end_of_track time=0>
the msg is <meta message track_name name='outTest85_512_1.0.mid' time=0>
the msg is note_on channel=9 note=69 velocity=100 time=1
the msg is note_off channel=9 note=69 velocity=100 time=1
the msg is note_on channel=9 note=72 velocity=100 time=75
the msg is note_off channel=9 note=72 velocity=100 time=1
the msg is note_on channel=9 note=72 velocity=100 time=4
the msg is note_off channel=9 note=72 velocity=100 time=1
the msg is note_on channel=9 note=72 velocity=100 time=4
the msg is note_off channel=9 note=72 velocity=100 time=1
the msg is note_on channel=9 note=72 velocity=100 time=10
the msg is note_off channel=9 note=72 velocity=100 time=1
the msg is note_on channel=9 note=74 velocity=100 time=10
the msg is note_off channel=9 note=74 velocity=100 time=1
the msg is note_on channel=9 note=74 velocity=100 time=4
the msg is note_off channel=9 note=74 velocity=100 time=1
the msg is note_on channel=9 note=71 velocity=100 time=4
the msg is note_off channel=9 note=71 velocity=100 time=1
the msg is note_on channel=9 note=74 velocity=100 time=10
the msg is note_off channel=9 note=74 velocity=100 time=1
the msg is note_on channel=9 note=74 velocity=100 time=4
the msg is note_off channel=9 note=74 velocity=100 time=1
the msg is note_on channel=9 note=71 velocity=100 time=4
the msg is note_off channel=9 note=71 velocity=100 time=1
the msg is note_on channel=9 note=71 velocity=100 time=4
the msg is note_off channel=9 note=71 velocity=100 time=1
the msg is note_on channel=9 note=69 velocity=100 time=4
the msg is note_off channel=9 note=69 velocity=100 time=1
the msg is note_on channel=9 note=72 velocity=100 time=55
the msg is note_off channel=9 note=72 velocity=100 time=1
the msg is note_on channel=9 note=72 velocity=100 time=10
the msg is note_off channel=9 note=72 velocity=100 time=1
the msg is note_on channel=9 note=72 velocity=100 time=4
the msg is note_off channel=9 note=72 velocity=100 time=1
the msg is note_on channel=9 note=72 velocity=100 time=4
the msg is note_off channel=9 note=72 velocity=100 time=1
the msg is note_on channel=9 note=72 velocity=100 time=4
the msg is note_off channel=9 note=72 velocity=100 time=1
the msg is note_on channel=9 note=76 velocity=100 time=4
the msg is note_off channel=9 note=76 velocity=100 time=1
the msg is note_on channel=9 note=79 velocity=100 time=10
the msg is note_off channel=9 note=79 velocity=100 time=1
the msg is note_on channel=9 note=76 velocity=100 time=10
the msg is note_off channel=9 note=76 velocity=100 time=1
the msg is note_on channel=9 note=79 velocity=100 time=10
the msg is note_off channel=9 note=79 velocity=100 time=1
the msg is note_on channel=9 note=79 velocity=100 time=4
the msg is note_off channel=9 note=79 velocity=100 time=1
the msg is note_on channel=9 note=76 velocity=100 time=4
the msg is note_off channel=9 note=76 velocity=100 time=1
the msg is note_on channel=9 note=74 velocity=100 time=4
the msg is note_off channel=9 note=74 velocity=100 time=1
the msg is note_on channel=9 note=72 velocity=100 time=4
the msg is note_off channel=9 note=72 velocity=100 time=1
the msg is note_on channel=9 note=74 velocity=100 time=10
the msg is note_off channel=9 note=74 velocity=100 time=1
the msg is note_on channel=9 note=74 velocity=100 time=10
the msg is note_off channel=9 note=74 velocity=100 time=1
the msg is note_on channel=9 note=74 velocity=100 time=10
the msg is note_off channel=9 note=74 velocity=100 time=1
the msg is note_on channel=9 note=76 velocity=100 time=10
the msg is note_off channel=9 note=76 velocity=100 time=1
the msg is note_on channel=9 note=79 velocity=100 time=10
the msg is note_off channel=9 note=79 velocity=100 time=1
the msg is note_on channel=9 note=79 velocity=100 time=6
the msg is note_off channel=9 note=79 velocity=100 time=1
the msg is note_on channel=9 note=76 velocity=100 time=3
the msg is note_off channel=9 note=76 velocity=100 time=1
the msg is note_on channel=9 note=74 velocity=100 time=6
the msg is note_off channel=9 note=74 velocity=100 time=1
the msg is note_on channel=9 note=72 velocity=100 time=3
the msg is note_off channel=9 note=72 velocity=100 time=1
the msg is note_on channel=9 note=74 velocity=100 time=10
the msg is note_off channel=9 note=74 velocity=100 time=1
the msg is note_on channel=9 note=76 velocity=100 time=10
the msg is note_off channel=9 note=76 velocity=100 time=1
the msg is note_on channel=9 note=72 velocity=100 time=4
the msg is note_off channel=9 note=72 velocity=100 time=1
the msg is note_on channel=9 note=74 velocity=100 time=4
the msg is note_off channel=9 note=74 velocity=100 time=1
the msg is note_on channel=9 note=74 velocity=100 time=10
the msg is note_off channel=9 note=74 velocity=100 time=1
the msg is note_on channel=9 note=74 velocity=100 time=10
the msg is note_off channel=9 note=74 velocity=100 time=1
the msg is note_on channel=9 note=74 velocity=100 time=4
the msg is note_off channel=9 note=74 velocity=100 time=1
the msg is note_on channel=9 note=71 velocity=100 time=4
the msg is note_off channel=9 note=71 velocity=100 time=1
the msg is note_on channel=9 note=74 velocity=100 time=10
the msg is note_off channel=9 note=74 velocity=100 time=1
the msg is note_on channel=9 note=74 velocity=100 time=10
the msg is note_off channel=9 note=74 velocity=100 time=1
the msg is note_on channel=9 note=72 velocity=100 time=3
the msg is note_off channel=9 note=72 velocity=100 time=1
the msg is note_on channel=9 note=74 velocity=100 time=10
the msg is note_off channel=9 note=74 velocity=100 time=1
the msg is note_on channel=9 note=74 velocity=100 time=10
the msg is note_off channel=9 note=74 velocity=100 time=1
the msg is note_on channel=9 note=74 velocity=100 time=4
the msg is note_off channel=9 note=74 velocity=100 time=1
the msg is note_on channel=9 note=71 velocity=100 time=4
the msg is note_off channel=9 note=71 velocity=100 time=1
the msg is note_on channel=9 note=74 velocity=100 time=4
the msg is note_off channel=9 note=74 velocity=100 time=1
the msg is note_on channel=9 note=76 velocity=100 time=10
the msg is note_off channel=9 note=76 velocity=100 time=1
the msg is note_on channel=9 note=79 velocity=100 time=10
the msg is note_off channel=9 note=79 velocity=100 time=1
the msg is note_on channel=9 note=72 velocity=100 time=3
the msg is note_off channel=9 note=72 velocity=100 time=1
the msg is note_on channel=9 note=72 velocity=100 time=6
the msg is note_off channel=9 note=72 velocity=100 time=1
the msg is note_on channel=9 note=72 velocity=100 time=3
the msg is note_off channel=9 note=72 velocity=100 time=1
the msg is note_on channel=9 note=72 velocity=100 time=10
the msg is note_off channel=9 note=72 velocity=100 time=1
the msg is note_on channel=9 note=72 velocity=100 time=4
the msg is note_off channel=9 note=72 velocity=100 time=1
the msg is note_on channel=9 note=72 velocity=100 time=4
the msg is note_off channel=9 note=72 velocity=100 time=1
the msg is <meta message end_of_track time=0>
the msg is <meta message track_name name='outTest85_512_1.0.mid' time=0>
the msg is note_on channel=9 note=69 velocity=100 time=1
the msg is note_off channel=9 note=69 velocity=100 time=1
the msg is note_on channel=9 note=72 velocity=100 time=75
the msg is note_off channel=9 note=72 velocity=100 time=1
the msg is note_on channel=9 note=72 velocity=100 time=4
the msg is note_off channel=9 note=72 velocity=100 time=1
the msg is note_on channel=9 note=72 velocity=100 time=4
the msg is note_off channel=9 note=72 velocity=100 time=1
the msg is note_on channel=9 note=72 velocity=100 time=10
the msg is note_off channel=9 note=72 velocity=100 time=1
the msg is note_on channel=9 note=74 velocity=100 time=10
the msg is note_off channel=9 note=74 velocity=100 time=1
the msg is note_on channel=9 note=74 velocity=100 time=4
the msg is note_off channel=9 note=74 velocity=100 time=1
the msg is note_on channel=9 note=71 velocity=100 time=4
the msg is note_off channel=9 note=71 velocity=100 time=1
the msg is note_on channel=9 note=74 velocity=100 time=10
the msg is note_off channel=9 note=74 velocity=100 time=1
the msg is note_on channel=9 note=74 velocity=100 time=4
the msg is note_off channel=9 note=74 velocity=100 time=1
the msg is note_on channel=9 note=71 velocity=100 time=4
the msg is note_off channel=9 note=71 velocity=100 time=1
the msg is note_on channel=9 note=71 velocity=100 time=4
the msg is note_off channel=9 note=71 velocity=100 time=1
the msg is note_on channel=9 note=69 velocity=100 time=4
the msg is note_off channel=9 note=69 velocity=100 time=1
the msg is note_on channel=9 note=72 velocity=100 time=55
the msg is note_off channel=9 note=72 velocity=100 time=1
the msg is note_on channel=9 note=72 velocity=100 time=10
the msg is note_off channel=9 note=72 velocity=100 time=1
the msg is note_on channel=9 note=72 velocity=100 time=4
the msg is note_off channel=9 note=72 velocity=100 time=1
the msg is note_on channel=9 note=72 velocity=100 time=4
the msg is note_off channel=9 note=72 velocity=100 time=1
the msg is note_on channel=9 note=72 velocity=100 time=4
the msg is note_off channel=9 note=72 velocity=100 time=1
the msg is note_on channel=9 note=76 velocity=100 time=4
the msg is note_off channel=9 note=76 velocity=100 time=1
the msg is note_on channel=9 note=79 velocity=100 time=10
the msg is note_off channel=9 note=79 velocity=100 time=1
the msg is note_on channel=9 note=76 velocity=100 time=10
the msg is note_off channel=9 note=76 velocity=100 time=1
the msg is note_on channel=9 note=79 velocity=100 time=10
the msg is note_off channel=9 note=79 velocity=100 time=1
the msg is note_on channel=9 note=79 velocity=100 time=4
the msg is note_off channel=9 note=79 velocity=100 time=1
the msg is note_on channel=9 note=76 velocity=100 time=4
the msg is note_off channel=9 note=76 velocity=100 time=1
the msg is note_on channel=9 note=74 velocity=100 time=4
the msg is note_off channel=9 note=74 velocity=100 time=1
the msg is note_on channel=9 note=72 velocity=100 time=4
the msg is note_off channel=9 note=72 velocity=100 time=1
the msg is note_on channel=9 note=74 velocity=100 time=10
the msg is note_off channel=9 note=74 velocity=100 time=1
the msg is note_on channel=9 note=74 velocity=100 time=10
the msg is note_off channel=9 note=74 velocity=100 time=1
the msg is note_on channel=9 note=74 velocity=100 time=10
the msg is note_off channel=9 note=74 velocity=100 time=1
the msg is note_on channel=9 note=76 velocity=100 time=10
the msg is note_off channel=9 note=76 velocity=100 time=1
the msg is note_on channel=9 note=79 velocity=100 time=10
the msg is note_off channel=9 note=79 velocity=100 time=1
the msg is note_on channel=9 note=79 velocity=100 time=6
the msg is note_off channel=9 note=79 velocity=100 time=1
the msg is note_on channel=9 note=76 velocity=100 time=3
the msg is note_off channel=9 note=76 velocity=100 time=1
the msg is note_on channel=9 note=74 velocity=100 time=6
the msg is note_off channel=9 note=74 velocity=100 time=1
the msg is note_on channel=9 note=72 velocity=100 time=3
the msg is note_off channel=9 note=72 velocity=100 time=1
the msg is note_on channel=9 note=74 velocity=100 time=10
the msg is note_off channel=9 note=74 velocity=100 time=1
the msg is note_on channel=9 note=76 velocity=100 time=10
the msg is note_off channel=9 note=76 velocity=100 time=1
the msg is note_on channel=9 note=72 velocity=100 time=4
the msg is note_off channel=9 note=72 velocity=100 time=1
the msg is note_on channel=9 note=74 velocity=100 time=4
the msg is note_off channel=9 note=74 velocity=100 time=1
the msg is note_on channel=9 note=74 velocity=100 time=10
the msg is note_off channel=9 note=74 velocity=100 time=1
the msg is note_on channel=9 note=74 velocity=100 time=10
the msg is note_off channel=9 note=74 velocity=100 time=1
the msg is note_on channel=9 note=74 velocity=100 time=4
the msg is note_off channel=9 note=74 velocity=100 time=1
the msg is note_on channel=9 note=71 velocity=100 time=4
the msg is note_off channel=9 note=71 velocity=100 time=1
the msg is note_on channel=9 note=74 velocity=100 time=10
the msg is note_off channel=9 note=74 velocity=100 time=1
the msg is note_on channel=9 note=74 velocity=100 time=10
the msg is note_off channel=9 note=74 velocity=100 time=1
the msg is note_on channel=9 note=72 velocity=100 time=3
the msg is note_off channel=9 note=72 velocity=100 time=1
the msg is note_on channel=9 note=74 velocity=100 time=10
the msg is note_off channel=9 note=74 velocity=100 time=1
the msg is note_on channel=9 note=74 velocity=100 time=10
the msg is note_off channel=9 note=74 velocity=100 time=1
the msg is note_on channel=9 note=74 velocity=100 time=4
the msg is note_off channel=9 note=74 velocity=100 time=1
the msg is note_on channel=9 note=71 velocity=100 time=4
the msg is note_off channel=9 note=71 velocity=100 time=1
the msg is note_on channel=9 note=74 velocity=100 time=4
the msg is note_off channel=9 note=74 velocity=100 time=1
the msg is note_on channel=9 note=76 velocity=100 time=10
the msg is note_off channel=9 note=76 velocity=100 time=1
the msg is note_on channel=9 note=79 velocity=100 time=10
the msg is note_off channel=9 note=79 velocity=100 time=1
the msg is note_on channel=9 note=72 velocity=100 time=3
the msg is note_off channel=9 note=72 velocity=100 time=1
the msg is note_on channel=9 note=72 velocity=100 time=6
the msg is note_off channel=9 note=72 velocity=100 time=1
the msg is note_on channel=9 note=72 velocity=100 time=3
the msg is note_off channel=9 note=72 velocity=100 time=1
the msg is note_on channel=9 note=72 velocity=100 time=10
the msg is note_off channel=9 note=72 velocity=100 time=1
the msg is note_on channel=9 note=72 velocity=100 time=4
the msg is note_off channel=9 note=72 velocity=100 time=1
the msg is note_on channel=9 note=72 velocity=100 time=4
the msg is note_off channel=9 note=72 velocity=100 time=1
the msg is <meta message end_of_track time=0>
the msg is <meta message track_name name='outTest85_512_1.0.mid' time=0>
the msg is note_on channel=9 note=69 velocity=100 time=1
the msg is note_off channel=9 note=69 velocity=100 time=1
the msg is note_on channel=9 note=72 velocity=100 time=75
the msg is note_off channel=9 note=72 velocity=100 time=1
the msg is note_on channel=9 note=72 velocity=100 time=4
the msg is note_off channel=9 note=72 velocity=100 time=1
the msg is note_on channel=9 note=72 velocity=100 time=4
the msg is note_off channel=9 note=72 velocity=100 time=1
the msg is note_on channel=9 note=72 velocity=100 time=10
the msg is note_off channel=9 note=72 velocity=100 time=1
the msg is note_on channel=9 note=74 velocity=100 time=10
the msg is note_off channel=9 note=74 velocity=100 time=1
the msg is note_on channel=9 note=74 velocity=100 time=4
the msg is note_off channel=9 note=74 velocity=100 time=1
the msg is note_on channel=9 note=71 velocity=100 time=4
the msg is note_off channel=9 note=71 velocity=100 time=1
the msg is note_on channel=9 note=74 velocity=100 time=10
the msg is note_off channel=9 note=74 velocity=100 time=1
the msg is note_on channel=9 note=74 velocity=100 time=4
the msg is note_off channel=9 note=74 velocity=100 time=1
the msg is note_on channel=9 note=71 velocity=100 time=4
the msg is note_off channel=9 note=71 velocity=100 time=1
the msg is note_on channel=9 note=71 velocity=100 time=4
the msg is note_off channel=9 note=71 velocity=100 time=1
the msg is note_on channel=9 note=69 velocity=100 time=4
the msg is note_off channel=9 note=69 velocity=100 time=1
the msg is note_on channel=9 note=72 velocity=100 time=55
the msg is note_off channel=9 note=72 velocity=100 time=1
the msg is note_on channel=9 note=72 velocity=100 time=10
the msg is note_off channel=9 note=72 velocity=100 time=1
the msg is note_on channel=9 note=72 velocity=100 time=4
the msg is note_off channel=9 note=72 velocity=100 time=1
the msg is note_on channel=9 note=72 velocity=100 time=4
the msg is note_off channel=9 note=72 velocity=100 time=1
the msg is note_on channel=9 note=72 velocity=100 time=4
the msg is note_off channel=9 note=72 velocity=100 time=1
the msg is note_on channel=9 note=76 velocity=100 time=4
the msg is note_off channel=9 note=76 velocity=100 time=1
the msg is note_on channel=9 note=79 velocity=100 time=10
the msg is note_off channel=9 note=79 velocity=100 time=1
the msg is note_on channel=9 note=76 velocity=100 time=10
the msg is note_off channel=9 note=76 velocity=100 time=1
the msg is note_on channel=9 note=79 velocity=100 time=10
the msg is note_off channel=9 note=79 velocity=100 time=1
the msg is note_on channel=9 note=79 velocity=100 time=4
the msg is note_off channel=9 note=79 velocity=100 time=1
the msg is note_on channel=9 note=76 velocity=100 time=4
the msg is note_off channel=9 note=76 velocity=100 time=1
the msg is note_on channel=9 note=74 velocity=100 time=4
the msg is note_off channel=9 note=74 velocity=100 time=1
the msg is note_on channel=9 note=72 velocity=100 time=4
the msg is note_off channel=9 note=72 velocity=100 time=1
the msg is note_on channel=9 note=74 velocity=100 time=10
the msg is note_off channel=9 note=74 velocity=100 time=1
the msg is note_on channel=9 note=74 velocity=100 time=10
the msg is note_off channel=9 note=74 velocity=100 time=1
the msg is note_on channel=9 note=74 velocity=100 time=10
the msg is note_off channel=9 note=74 velocity=100 time=1
the msg is note_on channel=9 note=76 velocity=100 time=10
the msg is note_off channel=9 note=76 velocity=100 time=1
the msg is note_on channel=9 note=79 velocity=100 time=10
the msg is note_off channel=9 note=79 velocity=100 time=1
the msg is note_on channel=9 note=79 velocity=100 time=6
the msg is note_off channel=9 note=79 velocity=100 time=1
the msg is note_on channel=9 note=76 velocity=100 time=3
the msg is note_off channel=9 note=76 velocity=100 time=1
the msg is note_on channel=9 note=74 velocity=100 time=6
the msg is note_off channel=9 note=74 velocity=100 time=1
the msg is note_on channel=9 note=72 velocity=100 time=3
the msg is note_off channel=9 note=72 velocity=100 time=1
the msg is note_on channel=9 note=74 velocity=100 time=10
the msg is note_off channel=9 note=74 velocity=100 time=1
the msg is note_on channel=9 note=76 velocity=100 time=10
the msg is note_off channel=9 note=76 velocity=100 time=1
the msg is note_on channel=9 note=72 velocity=100 time=4
the msg is note_off channel=9 note=72 velocity=100 time=1
the msg is note_on channel=9 note=74 velocity=100 time=4
the msg is note_off channel=9 note=74 velocity=100 time=1
the msg is note_on channel=9 note=74 velocity=100 time=10
the msg is note_off channel=9 note=74 velocity=100 time=1
the msg is note_on channel=9 note=74 velocity=100 time=10
the msg is note_off channel=9 note=74 velocity=100 time=1
the msg is note_on channel=9 note=74 velocity=100 time=4
the msg is note_off channel=9 note=74 velocity=100 time=1
the msg is note_on channel=9 note=71 velocity=100 time=4
the msg is note_off channel=9 note=71 velocity=100 time=1
the msg is note_on channel=9 note=74 velocity=100 time=10
the msg is note_off channel=9 note=74 velocity=100 time=1
the msg is note_on channel=9 note=74 velocity=100 time=10
the msg is note_off channel=9 note=74 velocity=100 time=1
the msg is note_on channel=9 note=72 velocity=100 time=3
the msg is note_off channel=9 note=72 velocity=100 time=1
the msg is note_on channel=9 note=74 velocity=100 time=10
the msg is note_off channel=9 note=74 velocity=100 time=1
the msg is note_on channel=9 note=74 velocity=100 time=10
the msg is note_off channel=9 note=74 velocity=100 time=1
the msg is note_on channel=9 note=74 velocity=100 time=4
the msg is note_off channel=9 note=74 velocity=100 time=1
the msg is note_on channel=9 note=71 velocity=100 time=4
the msg is note_off channel=9 note=71 velocity=100 time=1
the msg is note_on channel=9 note=74 velocity=100 time=4
the msg is note_off channel=9 note=74 velocity=100 time=1
the msg is note_on channel=9 note=76 velocity=100 time=10
the msg is note_off channel=9 note=76 velocity=100 time=1
the msg is note_on channel=9 note=79 velocity=100 time=10
the msg is note_off channel=9 note=79 velocity=100 time=1
the msg is note_on channel=9 note=72 velocity=100 time=3
the msg is note_off channel=9 note=72 velocity=100 time=1
the msg is note_on channel=9 note=72 velocity=100 time=6
the msg is note_off channel=9 note=72 velocity=100 time=1
the msg is note_on channel=9 note=72 velocity=100 time=3
the msg is note_off channel=9 note=72 velocity=100 time=1
the msg is note_on channel=9 note=72 velocity=100 time=10
the msg is note_off channel=9 note=72 velocity=100 time=1
the msg is note_on channel=9 note=72 velocity=100 time=4
the msg is note_off channel=9 note=72 velocity=100 time=1
the msg is note_on channel=9 note=72 velocity=100 time=4
the msg is note_off channel=9 note=72 velocity=100 time=1
the msg is <meta message end_of_track time=0>
the msg is <meta message track_name name='outTest85_512_1.0.mid' time=0>
the msg is note_on channel=9 note=69 velocity=100 time=1
the msg is note_off channel=9 note=69 velocity=100 time=1
the msg is note_on channel=9 note=72 velocity=100 time=75
the msg is note_off channel=9 note=72 velocity=100 time=1
the msg is note_on channel=9 note=72 velocity=100 time=4
the msg is note_off channel=9 note=72 velocity=100 time=1
the msg is note_on channel=9 note=72 velocity=100 time=4
the msg is note_off channel=9 note=72 velocity=100 time=1
the msg is note_on channel=9 note=72 velocity=100 time=10
the msg is note_off channel=9 note=72 velocity=100 time=1
the msg is note_on channel=9 note=74 velocity=100 time=10
the msg is note_off channel=9 note=74 velocity=100 time=1
the msg is note_on channel=9 note=74 velocity=100 time=4
the msg is note_off channel=9 note=74 velocity=100 time=1
the msg is note_on channel=9 note=71 velocity=100 time=4
the msg is note_off channel=9 note=71 velocity=100 time=1
the msg is note_on channel=9 note=74 velocity=100 time=10
the msg is note_off channel=9 note=74 velocity=100 time=1
the msg is note_on channel=9 note=74 velocity=100 time=4
the msg is note_off channel=9 note=74 velocity=100 time=1
the msg is note_on channel=9 note=71 velocity=100 time=4
the msg is note_off channel=9 note=71 velocity=100 time=1
the msg is note_on channel=9 note=71 velocity=100 time=4
the msg is note_off channel=9 note=71 velocity=100 time=1
the msg is note_on channel=9 note=69 velocity=100 time=4
the msg is note_off channel=9 note=69 velocity=100 time=1
the msg is note_on channel=9 note=72 velocity=100 time=55
the msg is note_off channel=9 note=72 velocity=100 time=1
the msg is note_on channel=9 note=72 velocity=100 time=10
the msg is note_off channel=9 note=72 velocity=100 time=1
the msg is note_on channel=9 note=72 velocity=100 time=4
the msg is note_off channel=9 note=72 velocity=100 time=1
the msg is note_on channel=9 note=72 velocity=100 time=4
the msg is note_off channel=9 note=72 velocity=100 time=1
the msg is note_on channel=9 note=72 velocity=100 time=4
the msg is note_off channel=9 note=72 velocity=100 time=1
the msg is note_on channel=9 note=76 velocity=100 time=4
the msg is note_off channel=9 note=76 velocity=100 time=1
the msg is note_on channel=9 note=79 velocity=100 time=10
the msg is note_off channel=9 note=79 velocity=100 time=1
the msg is note_on channel=9 note=76 velocity=100 time=10
the msg is note_off channel=9 note=76 velocity=100 time=1
the msg is note_on channel=9 note=79 velocity=100 time=10
the msg is note_off channel=9 note=79 velocity=100 time=1
the msg is note_on channel=9 note=79 velocity=100 time=4
the msg is note_off channel=9 note=79 velocity=100 time=1
the msg is note_on channel=9 note=76 velocity=100 time=4
the msg is note_off channel=9 note=76 velocity=100 time=1
the msg is note_on channel=9 note=74 velocity=100 time=4
the msg is note_off channel=9 note=74 velocity=100 time=1
the msg is note_on channel=9 note=72 velocity=100 time=4
the msg is note_off channel=9 note=72 velocity=100 time=1
the msg is note_on channel=9 note=74 velocity=100 time=10
the msg is note_off channel=9 note=74 velocity=100 time=1
the msg is note_on channel=9 note=74 velocity=100 time=10
the msg is note_off channel=9 note=74 velocity=100 time=1
the msg is note_on channel=9 note=74 velocity=100 time=10
the msg is note_off channel=9 note=74 velocity=100 time=1
the msg is note_on channel=9 note=76 velocity=100 time=10
the msg is note_off channel=9 note=76 velocity=100 time=1
the msg is note_on channel=9 note=79 velocity=100 time=10
the msg is note_off channel=9 note=79 velocity=100 time=1
the msg is note_on channel=9 note=79 velocity=100 time=6
the msg is note_off channel=9 note=79 velocity=100 time=1
the msg is note_on channel=9 note=76 velocity=100 time=3
the msg is note_off channel=9 note=76 velocity=100 time=1
the msg is note_on channel=9 note=74 velocity=100 time=6
the msg is note_off channel=9 note=74 velocity=100 time=1
the msg is note_on channel=9 note=72 velocity=100 time=3
the msg is note_off channel=9 note=72 velocity=100 time=1
the msg is note_on channel=9 note=74 velocity=100 time=10
the msg is note_off channel=9 note=74 velocity=100 time=1
the msg is note_on channel=9 note=76 velocity=100 time=10
the msg is note_off channel=9 note=76 velocity=100 time=1
the msg is note_on channel=9 note=72 velocity=100 time=4
the msg is note_off channel=9 note=72 velocity=100 time=1
the msg is note_on channel=9 note=74 velocity=100 time=4
the msg is note_off channel=9 note=74 velocity=100 time=1
the msg is note_on channel=9 note=74 velocity=100 time=10
the msg is note_off channel=9 note=74 velocity=100 time=1
the msg is note_on channel=9 note=74 velocity=100 time=10
the msg is note_off channel=9 note=74 velocity=100 time=1
the msg is note_on channel=9 note=74 velocity=100 time=4
the msg is note_off channel=9 note=74 velocity=100 time=1
the msg is note_on channel=9 note=71 velocity=100 time=4
the msg is note_off channel=9 note=71 velocity=100 time=1
the msg is note_on channel=9 note=74 velocity=100 time=10
the msg is note_off channel=9 note=74 velocity=100 time=1
the msg is note_on channel=9 note=74 velocity=100 time=10
the msg is note_off channel=9 note=74 velocity=100 time=1
the msg is note_on channel=9 note=72 velocity=100 time=3
the msg is note_off channel=9 note=72 velocity=100 time=1
the msg is note_on channel=9 note=74 velocity=100 time=10
the msg is note_off channel=9 note=74 velocity=100 time=1
the msg is note_on channel=9 note=74 velocity=100 time=10
the msg is note_off channel=9 note=74 velocity=100 time=1
the msg is note_on channel=9 note=74 velocity=100 time=4
the msg is note_off channel=9 note=74 velocity=100 time=1
the msg is note_on channel=9 note=71 velocity=100 time=4
the msg is note_off channel=9 note=71 velocity=100 time=1
the msg is note_on channel=9 note=74 velocity=100 time=4
the msg is note_off channel=9 note=74 velocity=100 time=1
the msg is note_on channel=9 note=76 velocity=100 time=10
the msg is note_off channel=9 note=76 velocity=100 time=1
the msg is note_on channel=9 note=79 velocity=100 time=10
the msg is note_off channel=9 note=79 velocity=100 time=1
the msg is note_on channel=9 note=72 velocity=100 time=3
the msg is note_off channel=9 note=72 velocity=100 time=1
the msg is note_on channel=9 note=72 velocity=100 time=6
the msg is note_off channel=9 note=72 velocity=100 time=1
the msg is note_on channel=9 note=72 velocity=100 time=3
the msg is note_off channel=9 note=72 velocity=100 time=1
the msg is note_on channel=9 note=72 velocity=100 time=10
the msg is note_off channel=9 note=72 velocity=100 time=1
the msg is note_on channel=9 note=72 velocity=100 time=4
the msg is note_off channel=9 note=72 velocity=100 time=1
the msg is note_on channel=9 note=72 velocity=100 time=4
the msg is note_off channel=9 note=72 velocity=100 time=1
the msg is <meta message end_of_track time=0>
the msg is <meta message track_name name='outTest85_512_1.0.mid' time=0>
the msg is note_on channel=9 note=69 velocity=100 time=1
the msg is note_off channel=9 note=69 velocity=100 time=1
the msg is note_on channel=9 note=72 velocity=100 time=75
the msg is note_off channel=9 note=72 velocity=100 time=1
the msg is note_on channel=9 note=72 velocity=100 time=4
the msg is note_off channel=9 note=72 velocity=100 time=1
the msg is note_on channel=9 note=72 velocity=100 time=4
the msg is note_off channel=9 note=72 velocity=100 time=1
the msg is note_on channel=9 note=72 velocity=100 time=10
the msg is note_off channel=9 note=72 velocity=100 time=1
the msg is note_on channel=9 note=74 velocity=100 time=10
the msg is note_off channel=9 note=74 velocity=100 time=1
the msg is note_on channel=9 note=74 velocity=100 time=4
the msg is note_off channel=9 note=74 velocity=100 time=1
the msg is note_on channel=9 note=71 velocity=100 time=4
the msg is note_off channel=9 note=71 velocity=100 time=1
the msg is note_on channel=9 note=74 velocity=100 time=10
the msg is note_off channel=9 note=74 velocity=100 time=1
the msg is note_on channel=9 note=74 velocity=100 time=4
the msg is note_off channel=9 note=74 velocity=100 time=1
the msg is note_on channel=9 note=71 velocity=100 time=4
the msg is note_off channel=9 note=71 velocity=100 time=1
the msg is note_on channel=9 note=71 velocity=100 time=4
the msg is note_off channel=9 note=71 velocity=100 time=1
the msg is note_on channel=9 note=69 velocity=100 time=4
the msg is note_off channel=9 note=69 velocity=100 time=1
the msg is note_on channel=9 note=72 velocity=100 time=55
the msg is note_off channel=9 note=72 velocity=100 time=1
the msg is note_on channel=9 note=72 velocity=100 time=10
the msg is note_off channel=9 note=72 velocity=100 time=1
the msg is note_on channel=9 note=72 velocity=100 time=4
the msg is note_off channel=9 note=72 velocity=100 time=1
the msg is note_on channel=9 note=72 velocity=100 time=4
the msg is note_off channel=9 note=72 velocity=100 time=1
the msg is note_on channel=9 note=72 velocity=100 time=4
the msg is note_off channel=9 note=72 velocity=100 time=1
the msg is note_on channel=9 note=76 velocity=100 time=4
the msg is note_off channel=9 note=76 velocity=100 time=1
the msg is note_on channel=9 note=79 velocity=100 time=10
the msg is note_off channel=9 note=79 velocity=100 time=1
the msg is note_on channel=9 note=76 velocity=100 time=10
the msg is note_off channel=9 note=76 velocity=100 time=1
the msg is note_on channel=9 note=79 velocity=100 time=10
the msg is note_off channel=9 note=79 velocity=100 time=1
the msg is note_on channel=9 note=79 velocity=100 time=4
the msg is note_off channel=9 note=79 velocity=100 time=1
the msg is note_on channel=9 note=76 velocity=100 time=4
the msg is note_off channel=9 note=76 velocity=100 time=1
the msg is note_on channel=9 note=74 velocity=100 time=4
the msg is note_off channel=9 note=74 velocity=100 time=1
the msg is note_on channel=9 note=72 velocity=100 time=4
the msg is note_off channel=9 note=72 velocity=100 time=1
the msg is note_on channel=9 note=74 velocity=100 time=10
the msg is note_off channel=9 note=74 velocity=100 time=1
the msg is note_on channel=9 note=74 velocity=100 time=10
the msg is note_off channel=9 note=74 velocity=100 time=1
the msg is note_on channel=9 note=74 velocity=100 time=10
the msg is note_off channel=9 note=74 velocity=100 time=1
the msg is note_on channel=9 note=76 velocity=100 time=10
the msg is note_off channel=9 note=76 velocity=100 time=1
the msg is note_on channel=9 note=79 velocity=100 time=10
the msg is note_off channel=9 note=79 velocity=100 time=1
the msg is note_on channel=9 note=79 velocity=100 time=6
the msg is note_off channel=9 note=79 velocity=100 time=1
the msg is note_on channel=9 note=76 velocity=100 time=3
the msg is note_off channel=9 note=76 velocity=100 time=1
the msg is note_on channel=9 note=74 velocity=100 time=6
the msg is note_off channel=9 note=74 velocity=100 time=1
the msg is note_on channel=9 note=72 velocity=100 time=3
the msg is note_off channel=9 note=72 velocity=100 time=1
the msg is note_on channel=9 note=74 velocity=100 time=10
the msg is note_off channel=9 note=74 velocity=100 time=1
the msg is note_on channel=9 note=76 velocity=100 time=10
the msg is note_off channel=9 note=76 velocity=100 time=1
the msg is note_on channel=9 note=72 velocity=100 time=4
the msg is note_off channel=9 note=72 velocity=100 time=1
the msg is note_on channel=9 note=74 velocity=100 time=4
the msg is note_off channel=9 note=74 velocity=100 time=1
the msg is note_on channel=9 note=74 velocity=100 time=10
the msg is note_off channel=9 note=74 velocity=100 time=1
the msg is note_on channel=9 note=74 velocity=100 time=10
the msg is note_off channel=9 note=74 velocity=100 time=1
the msg is note_on channel=9 note=74 velocity=100 time=4
the msg is note_off channel=9 note=74 velocity=100 time=1
the msg is note_on channel=9 note=71 velocity=100 time=4
the msg is note_off channel=9 note=71 velocity=100 time=1
the msg is note_on channel=9 note=74 velocity=100 time=10
the msg is note_off channel=9 note=74 velocity=100 time=1
the msg is note_on channel=9 note=74 velocity=100 time=10
the msg is note_off channel=9 note=74 velocity=100 time=1
the msg is note_on channel=9 note=72 velocity=100 time=3
the msg is note_off channel=9 note=72 velocity=100 time=1
the msg is note_on channel=9 note=74 velocity=100 time=10
the msg is note_off channel=9 note=74 velocity=100 time=1
the msg is note_on channel=9 note=74 velocity=100 time=10
the msg is note_off channel=9 note=74 velocity=100 time=1
the msg is note_on channel=9 note=74 velocity=100 time=4
the msg is note_off channel=9 note=74 velocity=100 time=1
the msg is note_on channel=9 note=71 velocity=100 time=4
the msg is note_off channel=9 note=71 velocity=100 time=1
the msg is note_on channel=9 note=74 velocity=100 time=4
the msg is note_off channel=9 note=74 velocity=100 time=1
the msg is note_on channel=9 note=76 velocity=100 time=10
the msg is note_off channel=9 note=76 velocity=100 time=1
the msg is note_on channel=9 note=79 velocity=100 time=10
the msg is note_off channel=9 note=79 velocity=100 time=1
the msg is note_on channel=9 note=72 velocity=100 time=3
the msg is note_off channel=9 note=72 velocity=100 time=1
the msg is note_on channel=9 note=72 velocity=100 time=6
the msg is note_off channel=9 note=72 velocity=100 time=1
the msg is note_on channel=9 note=72 velocity=100 time=3
the msg is note_off channel=9 note=72 velocity=100 time=1
the msg is note_on channel=9 note=72 velocity=100 time=10
the msg is note_off channel=9 note=72 velocity=100 time=1
the msg is note_on channel=9 note=72 velocity=100 time=4
the msg is note_off channel=9 note=72 velocity=100 time=1
the msg is note_on channel=9 note=72 velocity=100 time=4
the msg is note_off channel=9 note=72 velocity=100 time=1
the msg is <meta message end_of_track time=0>
the msg is <meta message track_name name='outTest85_512_1.0.mid' time=0>
the msg is note_on channel=9 note=69 velocity=100 time=1
the msg is note_off channel=9 note=69 velocity=100 time=1
the msg is note_on channel=9 note=72 velocity=100 time=75
the msg is note_off channel=9 note=72 velocity=100 time=1
the msg is note_on channel=9 note=72 velocity=100 time=4
the msg is note_off channel=9 note=72 velocity=100 time=1
the msg is note_on channel=9 note=72 velocity=100 time=4
the msg is note_off channel=9 note=72 velocity=100 time=1
the msg is note_on channel=9 note=72 velocity=100 time=10
the msg is note_off channel=9 note=72 velocity=100 time=1
the msg is note_on channel=9 note=74 velocity=100 time=10
the msg is note_off channel=9 note=74 velocity=100 time=1
the msg is note_on channel=9 note=74 velocity=100 time=4
the msg is note_off channel=9 note=74 velocity=100 time=1
the msg is note_on channel=9 note=71 velocity=100 time=4
the msg is note_off channel=9 note=71 velocity=100 time=1
the msg is note_on channel=9 note=74 velocity=100 time=10
the msg is note_off channel=9 note=74 velocity=100 time=1
the msg is note_on channel=9 note=74 velocity=100 time=4
the msg is note_off channel=9 note=74 velocity=100 time=1
the msg is note_on channel=9 note=71 velocity=100 time=4
the msg is note_off channel=9 note=71 velocity=100 time=1
the msg is note_on channel=9 note=71 velocity=100 time=4
the msg is note_off channel=9 note=71 velocity=100 time=1
the msg is note_on channel=9 note=69 velocity=100 time=4
the msg is note_off channel=9 note=69 velocity=100 time=1
the msg is note_on channel=9 note=72 velocity=100 time=55
the msg is note_off channel=9 note=72 velocity=100 time=1
the msg is note_on channel=9 note=72 velocity=100 time=10
the msg is note_off channel=9 note=72 velocity=100 time=1
the msg is note_on channel=9 note=72 velocity=100 time=4
the msg is note_off channel=9 note=72 velocity=100 time=1
the msg is note_on channel=9 note=72 velocity=100 time=4
the msg is note_off channel=9 note=72 velocity=100 time=1
the msg is note_on channel=9 note=72 velocity=100 time=4
the msg is note_off channel=9 note=72 velocity=100 time=1
the msg is note_on channel=9 note=76 velocity=100 time=4
the msg is note_off channel=9 note=76 velocity=100 time=1
the msg is note_on channel=9 note=79 velocity=100 time=10
the msg is note_off channel=9 note=79 velocity=100 time=1
the msg is note_on channel=9 note=76 velocity=100 time=10
the msg is note_off channel=9 note=76 velocity=100 time=1
the msg is note_on channel=9 note=79 velocity=100 time=10
the msg is note_off channel=9 note=79 velocity=100 time=1
the msg is note_on channel=9 note=79 velocity=100 time=4
the msg is note_off channel=9 note=79 velocity=100 time=1
the msg is note_on channel=9 note=76 velocity=100 time=4
the msg is note_off channel=9 note=76 velocity=100 time=1
the msg is note_on channel=9 note=74 velocity=100 time=4
the msg is note_off channel=9 note=74 velocity=100 time=1
the msg is note_on channel=9 note=72 velocity=100 time=4
the msg is note_off channel=9 note=72 velocity=100 time=1
the msg is note_on channel=9 note=74 velocity=100 time=10
the msg is note_off channel=9 note=74 velocity=100 time=1
the msg is note_on channel=9 note=74 velocity=100 time=10
the msg is note_off channel=9 note=74 velocity=100 time=1
the msg is note_on channel=9 note=74 velocity=100 time=10
the msg is note_off channel=9 note=74 velocity=100 time=1
the msg is note_on channel=9 note=76 velocity=100 time=10
the msg is note_off channel=9 note=76 velocity=100 time=1
the msg is note_on channel=9 note=79 velocity=100 time=10
the msg is note_off channel=9 note=79 velocity=100 time=1
the msg is note_on channel=9 note=79 velocity=100 time=6
the msg is note_off channel=9 note=79 velocity=100 time=1
the msg is note_on channel=9 note=76 velocity=100 time=3
the msg is note_off channel=9 note=76 velocity=100 time=1
the msg is note_on channel=9 note=74 velocity=100 time=6
the msg is note_off channel=9 note=74 velocity=100 time=1
the msg is note_on channel=9 note=72 velocity=100 time=3
the msg is note_off channel=9 note=72 velocity=100 time=1
the msg is note_on channel=9 note=74 velocity=100 time=10
the msg is note_off channel=9 note=74 velocity=100 time=1
the msg is note_on channel=9 note=76 velocity=100 time=10
the msg is note_off channel=9 note=76 velocity=100 time=1
the msg is note_on channel=9 note=72 velocity=100 time=4
the msg is note_off channel=9 note=72 velocity=100 time=1
the msg is note_on channel=9 note=74 velocity=100 time=4
the msg is note_off channel=9 note=74 velocity=100 time=1
the msg is note_on channel=9 note=74 velocity=100 time=10
the msg is note_off channel=9 note=74 velocity=100 time=1
the msg is note_on channel=9 note=74 velocity=100 time=10
the msg is note_off channel=9 note=74 velocity=100 time=1
the msg is note_on channel=9 note=74 velocity=100 time=4
the msg is note_off channel=9 note=74 velocity=100 time=1
the msg is note_on channel=9 note=71 velocity=100 time=4
the msg is note_off channel=9 note=71 velocity=100 time=1
the msg is note_on channel=9 note=74 velocity=100 time=10
the msg is note_off channel=9 note=74 velocity=100 time=1
the msg is note_on channel=9 note=74 velocity=100 time=10
the msg is note_off channel=9 note=74 velocity=100 time=1
the msg is note_on channel=9 note=72 velocity=100 time=3
the msg is note_off channel=9 note=72 velocity=100 time=1
the msg is note_on channel=9 note=74 velocity=100 time=10
the msg is note_off channel=9 note=74 velocity=100 time=1
the msg is note_on channel=9 note=74 velocity=100 time=10
the msg is note_off channel=9 note=74 velocity=100 time=1
the msg is note_on channel=9 note=74 velocity=100 time=4
the msg is note_off channel=9 note=74 velocity=100 time=1
the msg is note_on channel=9 note=71 velocity=100 time=4
the msg is note_off channel=9 note=71 velocity=100 time=1
the msg is note_on channel=9 note=74 velocity=100 time=4
the msg is note_off channel=9 note=74 velocity=100 time=1
the msg is note_on channel=9 note=76 velocity=100 time=10
the msg is note_off channel=9 note=76 velocity=100 time=1
the msg is note_on channel=9 note=79 velocity=100 time=10
the msg is note_off channel=9 note=79 velocity=100 time=1
the msg is note_on channel=9 note=72 velocity=100 time=3
the msg is note_off channel=9 note=72 velocity=100 time=1
the msg is note_on channel=9 note=72 velocity=100 time=6
the msg is note_off channel=9 note=72 velocity=100 time=1
the msg is note_on channel=9 note=72 velocity=100 time=3
the msg is note_off channel=9 note=72 velocity=100 time=1
the msg is note_on channel=9 note=72 velocity=100 time=10
the msg is note_off channel=9 note=72 velocity=100 time=1
the msg is note_on channel=9 note=72 velocity=100 time=4
the msg is note_off channel=9 note=72 velocity=100 time=1
the msg is note_on channel=9 note=72 velocity=100 time=4
the msg is note_off channel=9 note=72 velocity=100 time=1
the msg is <meta message end_of_track time=0>
the msg is <meta message track_name name='outTest85_512_1.0.mid' time=0>
the msg is note_on channel=9 note=69 velocity=100 time=1
the msg is note_off channel=9 note=69 velocity=100 time=1
the msg is note_on channel=9 note=72 velocity=100 time=75
the msg is note_off channel=9 note=72 velocity=100 time=1
the msg is note_on channel=9 note=72 velocity=100 time=4
the msg is note_off channel=9 note=72 velocity=100 time=1
the msg is note_on channel=9 note=72 velocity=100 time=4
the msg is note_off channel=9 note=72 velocity=100 time=1
the msg is note_on channel=9 note=72 velocity=100 time=10
the msg is note_off channel=9 note=72 velocity=100 time=1
the msg is note_on channel=9 note=74 velocity=100 time=10
the msg is note_off channel=9 note=74 velocity=100 time=1
the msg is note_on channel=9 note=74 velocity=100 time=4
the msg is note_off channel=9 note=74 velocity=100 time=1
the msg is note_on channel=9 note=71 velocity=100 time=4
the msg is note_off channel=9 note=71 velocity=100 time=1
the msg is note_on channel=9 note=74 velocity=100 time=10
the msg is note_off channel=9 note=74 velocity=100 time=1
the msg is note_on channel=9 note=74 velocity=100 time=4
the msg is note_off channel=9 note=74 velocity=100 time=1
the msg is note_on channel=9 note=71 velocity=100 time=4
the msg is note_off channel=9 note=71 velocity=100 time=1
the msg is note_on channel=9 note=71 velocity=100 time=4
the msg is note_off channel=9 note=71 velocity=100 time=1
the msg is note_on channel=9 note=69 velocity=100 time=4
the msg is note_off channel=9 note=69 velocity=100 time=1
the msg is note_on channel=9 note=72 velocity=100 time=55
the msg is note_off channel=9 note=72 velocity=100 time=1
the msg is note_on channel=9 note=72 velocity=100 time=10
the msg is note_off channel=9 note=72 velocity=100 time=1
the msg is note_on channel=9 note=72 velocity=100 time=4
the msg is note_off channel=9 note=72 velocity=100 time=1
the msg is note_on channel=9 note=72 velocity=100 time=4
the msg is note_off channel=9 note=72 velocity=100 time=1
the msg is note_on channel=9 note=72 velocity=100 time=4
the msg is note_off channel=9 note=72 velocity=100 time=1
the msg is note_on channel=9 note=76 velocity=100 time=4
the msg is note_off channel=9 note=76 velocity=100 time=1
the msg is note_on channel=9 note=79 velocity=100 time=10
the msg is note_off channel=9 note=79 velocity=100 time=1
the msg is note_on channel=9 note=76 velocity=100 time=10
the msg is note_off channel=9 note=76 velocity=100 time=1
the msg is note_on channel=9 note=79 velocity=100 time=10
the msg is note_off channel=9 note=79 velocity=100 time=1
the msg is note_on channel=9 note=79 velocity=100 time=4
the msg is note_off channel=9 note=79 velocity=100 time=1
the msg is note_on channel=9 note=76 velocity=100 time=4
the msg is note_off channel=9 note=76 velocity=100 time=1
the msg is note_on channel=9 note=74 velocity=100 time=4
the msg is note_off channel=9 note=74 velocity=100 time=1
the msg is note_on channel=9 note=72 velocity=100 time=4
the msg is note_off channel=9 note=72 velocity=100 time=1
the msg is note_on channel=9 note=74 velocity=100 time=10
the msg is note_off channel=9 note=74 velocity=100 time=1
the msg is note_on channel=9 note=74 velocity=100 time=10
the msg is note_off channel=9 note=74 velocity=100 time=1
the msg is note_on channel=9 note=74 velocity=100 time=10
the msg is note_off channel=9 note=74 velocity=100 time=1
the msg is note_on channel=9 note=76 velocity=100 time=10
the msg is note_off channel=9 note=76 velocity=100 time=1
the msg is note_on channel=9 note=79 velocity=100 time=10
the msg is note_off channel=9 note=79 velocity=100 time=1
the msg is note_on channel=9 note=79 velocity=100 time=6
the msg is note_off channel=9 note=79 velocity=100 time=1
the msg is note_on channel=9 note=76 velocity=100 time=3
the msg is note_off channel=9 note=76 velocity=100 time=1
the msg is note_on channel=9 note=74 velocity=100 time=6
the msg is note_off channel=9 note=74 velocity=100 time=1
the msg is note_on channel=9 note=72 velocity=100 time=3
the msg is note_off channel=9 note=72 velocity=100 time=1
the msg is note_on channel=9 note=74 velocity=100 time=10
the msg is note_off channel=9 note=74 velocity=100 time=1
the msg is note_on channel=9 note=76 velocity=100 time=10
the msg is note_off channel=9 note=76 velocity=100 time=1
the msg is note_on channel=9 note=72 velocity=100 time=4
the msg is note_off channel=9 note=72 velocity=100 time=1
the msg is note_on channel=9 note=74 velocity=100 time=4
the msg is note_off channel=9 note=74 velocity=100 time=1
the msg is note_on channel=9 note=74 velocity=100 time=10
the msg is note_off channel=9 note=74 velocity=100 time=1
the msg is note_on channel=9 note=74 velocity=100 time=10
the msg is note_off channel=9 note=74 velocity=100 time=1
the msg is note_on channel=9 note=74 velocity=100 time=4
the msg is note_off channel=9 note=74 velocity=100 time=1
the msg is note_on channel=9 note=71 velocity=100 time=4
the msg is note_off channel=9 note=71 velocity=100 time=1
the msg is note_on channel=9 note=74 velocity=100 time=10
the msg is note_off channel=9 note=74 velocity=100 time=1
the msg is note_on channel=9 note=74 velocity=100 time=10
the msg is note_off channel=9 note=74 velocity=100 time=1
the msg is note_on channel=9 note=72 velocity=100 time=3
the msg is note_off channel=9 note=72 velocity=100 time=1
the msg is note_on channel=9 note=74 velocity=100 time=10
the msg is note_off channel=9 note=74 velocity=100 time=1
the msg is note_on channel=9 note=74 velocity=100 time=10
the msg is note_off channel=9 note=74 velocity=100 time=1
the msg is note_on channel=9 note=74 velocity=100 time=4
the msg is note_off channel=9 note=74 velocity=100 time=1
the msg is note_on channel=9 note=71 velocity=100 time=4
the msg is note_off channel=9 note=71 velocity=100 time=1
the msg is note_on channel=9 note=74 velocity=100 time=4
the msg is note_off channel=9 note=74 velocity=100 time=1
the msg is note_on channel=9 note=76 velocity=100 time=10
the msg is note_off channel=9 note=76 velocity=100 time=1
the msg is note_on channel=9 note=79 velocity=100 time=10
the msg is note_off channel=9 note=79 velocity=100 time=1
the msg is note_on channel=9 note=72 velocity=100 time=3
the msg is note_off channel=9 note=72 velocity=100 time=1
the msg is note_on channel=9 note=72 velocity=100 time=6
the msg is note_off channel=9 note=72 velocity=100 time=1
the msg is note_on channel=9 note=72 velocity=100 time=3
the msg is note_off channel=9 note=72 velocity=100 time=1
the msg is note_on channel=9 note=72 velocity=100 time=10
the msg is note_off channel=9 note=72 velocity=100 time=1
the msg is note_on channel=9 note=72 velocity=100 time=4
the msg is note_off channel=9 note=72 velocity=100 time=1
the msg is note_on channel=9 note=72 velocity=100 time=4
the msg is note_off channel=9 note=72 velocity=100 time=1
the msg is <meta message end_of_track time=0>
the msg is <meta message track_name name='outTest85_512_1.0.mid' time=0>
the msg is note_on channel=9 note=69 velocity=100 time=1
the msg is note_off channel=9 note=69 velocity=100 time=1
the msg is note_on channel=9 note=72 velocity=100 time=75
the msg is note_off channel=9 note=72 velocity=100 time=1
the msg is note_on channel=9 note=72 velocity=100 time=4
the msg is note_off channel=9 note=72 velocity=100 time=1
the msg is note_on channel=9 note=72 velocity=100 time=4
the msg is note_off channel=9 note=72 velocity=100 time=1
the msg is note_on channel=9 note=72 velocity=100 time=10
the msg is note_off channel=9 note=72 velocity=100 time=1
the msg is note_on channel=9 note=74 velocity=100 time=10
the msg is note_off channel=9 note=74 velocity=100 time=1
the msg is note_on channel=9 note=74 velocity=100 time=4
the msg is note_off channel=9 note=74 velocity=100 time=1
the msg is note_on channel=9 note=71 velocity=100 time=4
the msg is note_off channel=9 note=71 velocity=100 time=1
the msg is note_on channel=9 note=74 velocity=100 time=10
the msg is note_off channel=9 note=74 velocity=100 time=1
the msg is note_on channel=9 note=74 velocity=100 time=4
the msg is note_off channel=9 note=74 velocity=100 time=1
the msg is note_on channel=9 note=71 velocity=100 time=4
the msg is note_off channel=9 note=71 velocity=100 time=1
the msg is note_on channel=9 note=71 velocity=100 time=4
the msg is note_off channel=9 note=71 velocity=100 time=1
the msg is note_on channel=9 note=69 velocity=100 time=4
the msg is note_off channel=9 note=69 velocity=100 time=1
the msg is note_on channel=9 note=72 velocity=100 time=55
the msg is note_off channel=9 note=72 velocity=100 time=1
the msg is note_on channel=9 note=72 velocity=100 time=10
the msg is note_off channel=9 note=72 velocity=100 time=1
the msg is note_on channel=9 note=72 velocity=100 time=4
the msg is note_off channel=9 note=72 velocity=100 time=1
the msg is note_on channel=9 note=72 velocity=100 time=4
the msg is note_off channel=9 note=72 velocity=100 time=1
the msg is note_on channel=9 note=72 velocity=100 time=4
the msg is note_off channel=9 note=72 velocity=100 time=1
the msg is note_on channel=9 note=76 velocity=100 time=4
the msg is note_off channel=9 note=76 velocity=100 time=1
the msg is note_on channel=9 note=79 velocity=100 time=10
the msg is note_off channel=9 note=79 velocity=100 time=1
the msg is note_on channel=9 note=76 velocity=100 time=10
the msg is note_off channel=9 note=76 velocity=100 time=1
the msg is note_on channel=9 note=79 velocity=100 time=10
the msg is note_off channel=9 note=79 velocity=100 time=1
the msg is note_on channel=9 note=79 velocity=100 time=4
the msg is note_off channel=9 note=79 velocity=100 time=1
the msg is note_on channel=9 note=76 velocity=100 time=4
the msg is note_off channel=9 note=76 velocity=100 time=1
the msg is note_on channel=9 note=74 velocity=100 time=4
the msg is note_off channel=9 note=74 velocity=100 time=1
the msg is note_on channel=9 note=72 velocity=100 time=4
the msg is note_off channel=9 note=72 velocity=100 time=1
the msg is note_on channel=9 note=74 velocity=100 time=10
the msg is note_off channel=9 note=74 velocity=100 time=1
the msg is note_on channel=9 note=74 velocity=100 time=10
the msg is note_off channel=9 note=74 velocity=100 time=1
the msg is note_on channel=9 note=74 velocity=100 time=10
the msg is note_off channel=9 note=74 velocity=100 time=1
the msg is note_on channel=9 note=76 velocity=100 time=10
the msg is note_off channel=9 note=76 velocity=100 time=1
the msg is note_on channel=9 note=79 velocity=100 time=10
the msg is note_off channel=9 note=79 velocity=100 time=1
the msg is note_on channel=9 note=79 velocity=100 time=6
the msg is note_off channel=9 note=79 velocity=100 time=1
the msg is note_on channel=9 note=76 velocity=100 time=3
the msg is note_off channel=9 note=76 velocity=100 time=1
the msg is note_on channel=9 note=74 velocity=100 time=6
the msg is note_off channel=9 note=74 velocity=100 time=1
the msg is note_on channel=9 note=72 velocity=100 time=3
the msg is note_off channel=9 note=72 velocity=100 time=1
the msg is note_on channel=9 note=74 velocity=100 time=10
the msg is note_off channel=9 note=74 velocity=100 time=1
the msg is note_on channel=9 note=76 velocity=100 time=10
the msg is note_off channel=9 note=76 velocity=100 time=1
the msg is note_on channel=9 note=72 velocity=100 time=4
the msg is note_off channel=9 note=72 velocity=100 time=1
the msg is note_on channel=9 note=74 velocity=100 time=4
the msg is note_off channel=9 note=74 velocity=100 time=1
the msg is note_on channel=9 note=74 velocity=100 time=10
the msg is note_off channel=9 note=74 velocity=100 time=1
the msg is note_on channel=9 note=74 velocity=100 time=10
the msg is note_off channel=9 note=74 velocity=100 time=1
the msg is note_on channel=9 note=74 velocity=100 time=4
the msg is note_off channel=9 note=74 velocity=100 time=1
the msg is note_on channel=9 note=71 velocity=100 time=4
the msg is note_off channel=9 note=71 velocity=100 time=1
the msg is note_on channel=9 note=74 velocity=100 time=10
the msg is note_off channel=9 note=74 velocity=100 time=1
the msg is note_on channel=9 note=74 velocity=100 time=10
the msg is note_off channel=9 note=74 velocity=100 time=1
the msg is note_on channel=9 note=72 velocity=100 time=3
the msg is note_off channel=9 note=72 velocity=100 time=1
the msg is note_on channel=9 note=74 velocity=100 time=10
the msg is note_off channel=9 note=74 velocity=100 time=1
the msg is note_on channel=9 note=74 velocity=100 time=10
the msg is note_off channel=9 note=74 velocity=100 time=1
the msg is note_on channel=9 note=74 velocity=100 time=4
the msg is note_off channel=9 note=74 velocity=100 time=1
the msg is note_on channel=9 note=71 velocity=100 time=4
the msg is note_off channel=9 note=71 velocity=100 time=1
the msg is note_on channel=9 note=74 velocity=100 time=4
the msg is note_off channel=9 note=74 velocity=100 time=1
the msg is note_on channel=9 note=76 velocity=100 time=10
the msg is note_off channel=9 note=76 velocity=100 time=1
the msg is note_on channel=9 note=79 velocity=100 time=10
the msg is note_off channel=9 note=79 velocity=100 time=1
the msg is note_on channel=9 note=72 velocity=100 time=3
the msg is note_off channel=9 note=72 velocity=100 time=1
the msg is note_on channel=9 note=72 velocity=100 time=6
the msg is note_off channel=9 note=72 velocity=100 time=1
the msg is note_on channel=9 note=72 velocity=100 time=3
the msg is note_off channel=9 note=72 velocity=100 time=1
the msg is note_on channel=9 note=72 velocity=100 time=10
the msg is note_off channel=9 note=72 velocity=100 time=1
the msg is note_on channel=9 note=72 velocity=100 time=4
the msg is note_off channel=9 note=72 velocity=100 time=1
the msg is note_on channel=9 note=72 velocity=100 time=4
the msg is note_off channel=9 note=72 velocity=100 time=1
the msg is <meta message end_of_track time=0>
the msg is <meta message track_name name='outTest85_512_1.0.mid' time=0>
the msg is note_on channel=9 note=69 velocity=100 time=1
the msg is note_off channel=9 note=69 velocity=100 time=1
the msg is note_on channel=9 note=72 velocity=100 time=75
the msg is note_off channel=9 note=72 velocity=100 time=1
the msg is note_on channel=9 note=72 velocity=100 time=4
the msg is note_off channel=9 note=72 velocity=100 time=1
the msg is note_on channel=9 note=72 velocity=100 time=4
the msg is note_off channel=9 note=72 velocity=100 time=1
the msg is note_on channel=9 note=72 velocity=100 time=10
the msg is note_off channel=9 note=72 velocity=100 time=1
the msg is note_on channel=9 note=74 velocity=100 time=10
the msg is note_off channel=9 note=74 velocity=100 time=1
the msg is note_on channel=9 note=74 velocity=100 time=4
the msg is note_off channel=9 note=74 velocity=100 time=1
the msg is note_on channel=9 note=71 velocity=100 time=4
the msg is note_off channel=9 note=71 velocity=100 time=1
the msg is note_on channel=9 note=74 velocity=100 time=10
the msg is note_off channel=9 note=74 velocity=100 time=1
the msg is note_on channel=9 note=74 velocity=100 time=4
the msg is note_off channel=9 note=74 velocity=100 time=1
the msg is note_on channel=9 note=71 velocity=100 time=4
the msg is note_off channel=9 note=71 velocity=100 time=1
the msg is note_on channel=9 note=71 velocity=100 time=4
the msg is note_off channel=9 note=71 velocity=100 time=1
the msg is note_on channel=9 note=69 velocity=100 time=4
the msg is note_off channel=9 note=69 velocity=100 time=1
the msg is note_on channel=9 note=72 velocity=100 time=55
the msg is note_off channel=9 note=72 velocity=100 time=1
the msg is note_on channel=9 note=72 velocity=100 time=10
the msg is note_off channel=9 note=72 velocity=100 time=1
the msg is note_on channel=9 note=72 velocity=100 time=4
the msg is note_off channel=9 note=72 velocity=100 time=1
the msg is note_on channel=9 note=72 velocity=100 time=4
the msg is note_off channel=9 note=72 velocity=100 time=1
the msg is note_on channel=9 note=72 velocity=100 time=4
the msg is note_off channel=9 note=72 velocity=100 time=1
the msg is note_on channel=9 note=76 velocity=100 time=4
the msg is note_off channel=9 note=76 velocity=100 time=1
the msg is note_on channel=9 note=79 velocity=100 time=10
the msg is note_off channel=9 note=79 velocity=100 time=1
the msg is note_on channel=9 note=76 velocity=100 time=10
the msg is note_off channel=9 note=76 velocity=100 time=1
the msg is note_on channel=9 note=79 velocity=100 time=10
the msg is note_off channel=9 note=79 velocity=100 time=1
the msg is note_on channel=9 note=79 velocity=100 time=4
the msg is note_off channel=9 note=79 velocity=100 time=1
the msg is note_on channel=9 note=76 velocity=100 time=4
the msg is note_off channel=9 note=76 velocity=100 time=1
the msg is note_on channel=9 note=74 velocity=100 time=4
the msg is note_off channel=9 note=74 velocity=100 time=1
the msg is note_on channel=9 note=72 velocity=100 time=4
the msg is note_off channel=9 note=72 velocity=100 time=1
the msg is note_on channel=9 note=74 velocity=100 time=10
the msg is note_off channel=9 note=74 velocity=100 time=1
the msg is note_on channel=9 note=74 velocity=100 time=10
the msg is note_off channel=9 note=74 velocity=100 time=1
the msg is note_on channel=9 note=74 velocity=100 time=10
the msg is note_off channel=9 note=74 velocity=100 time=1
the msg is note_on channel=9 note=76 velocity=100 time=10
the msg is note_off channel=9 note=76 velocity=100 time=1
the msg is note_on channel=9 note=79 velocity=100 time=10
the msg is note_off channel=9 note=79 velocity=100 time=1
the msg is note_on channel=9 note=79 velocity=100 time=6
the msg is note_off channel=9 note=79 velocity=100 time=1
the msg is note_on channel=9 note=76 velocity=100 time=3
the msg is note_off channel=9 note=76 velocity=100 time=1
the msg is note_on channel=9 note=74 velocity=100 time=6
the msg is note_off channel=9 note=74 velocity=100 time=1
the msg is note_on channel=9 note=72 velocity=100 time=3
the msg is note_off channel=9 note=72 velocity=100 time=1
the msg is note_on channel=9 note=74 velocity=100 time=10
the msg is note_off channel=9 note=74 velocity=100 time=1
the msg is note_on channel=9 note=76 velocity=100 time=10
the msg is note_off channel=9 note=76 velocity=100 time=1
the msg is note_on channel=9 note=72 velocity=100 time=4
the msg is note_off channel=9 note=72 velocity=100 time=1
the msg is note_on channel=9 note=74 velocity=100 time=4
the msg is note_off channel=9 note=74 velocity=100 time=1
the msg is note_on channel=9 note=74 velocity=100 time=10
the msg is note_off channel=9 note=74 velocity=100 time=1
the msg is note_on channel=9 note=74 velocity=100 time=10
the msg is note_off channel=9 note=74 velocity=100 time=1
the msg is note_on channel=9 note=74 velocity=100 time=4
the msg is note_off channel=9 note=74 velocity=100 time=1
the msg is note_on channel=9 note=71 velocity=100 time=4
the msg is note_off channel=9 note=71 velocity=100 time=1
the msg is note_on channel=9 note=74 velocity=100 time=10
the msg is note_off channel=9 note=74 velocity=100 time=1
the msg is note_on channel=9 note=74 velocity=100 time=10
the msg is note_off channel=9 note=74 velocity=100 time=1
the msg is note_on channel=9 note=72 velocity=100 time=3
the msg is note_off channel=9 note=72 velocity=100 time=1
the msg is note_on channel=9 note=74 velocity=100 time=10
the msg is note_off channel=9 note=74 velocity=100 time=1
the msg is note_on channel=9 note=74 velocity=100 time=10
the msg is note_off channel=9 note=74 velocity=100 time=1
the msg is note_on channel=9 note=74 velocity=100 time=4
the msg is note_off channel=9 note=74 velocity=100 time=1
the msg is note_on channel=9 note=71 velocity=100 time=4
the msg is note_off channel=9 note=71 velocity=100 time=1
the msg is note_on channel=9 note=74 velocity=100 time=4
the msg is note_off channel=9 note=74 velocity=100 time=1
the msg is note_on channel=9 note=76 velocity=100 time=10
the msg is note_off channel=9 note=76 velocity=100 time=1
the msg is note_on channel=9 note=79 velocity=100 time=10
the msg is note_off channel=9 note=79 velocity=100 time=1
the msg is note_on channel=9 note=72 velocity=100 time=3
the msg is note_off channel=9 note=72 velocity=100 time=1
the msg is note_on channel=9 note=72 velocity=100 time=6
the msg is note_off channel=9 note=72 velocity=100 time=1
the msg is note_on channel=9 note=72 velocity=100 time=3
the msg is note_off channel=9 note=72 velocity=100 time=1
the msg is note_on channel=9 note=72 velocity=100 time=10
the msg is note_off channel=9 note=72 velocity=100 time=1
the msg is note_on channel=9 note=72 velocity=100 time=4
the msg is note_off channel=9 note=72 velocity=100 time=1
the msg is note_on channel=9 note=72 velocity=100 time=4
the msg is note_off channel=9 note=72 velocity=100 time=1
the msg is <meta message end_of_track time=0>
the msg is <meta message track_name name='outTest85_512_1.0.mid' time=0>
the msg is note_on channel=9 note=69 velocity=100 time=1
the msg is note_off channel=9 note=69 velocity=100 time=1
the msg is note_on channel=9 note=72 velocity=100 time=75
the msg is note_off channel=9 note=72 velocity=100 time=1
the msg is note_on channel=9 note=72 velocity=100 time=4
the msg is note_off channel=9 note=72 velocity=100 time=1
the msg is note_on channel=9 note=72 velocity=100 time=4
the msg is note_off channel=9 note=72 velocity=100 time=1
the msg is note_on channel=9 note=72 velocity=100 time=10
the msg is note_off channel=9 note=72 velocity=100 time=1
the msg is note_on channel=9 note=74 velocity=100 time=10
the msg is note_off channel=9 note=74 velocity=100 time=1
the msg is note_on channel=9 note=74 velocity=100 time=4
the msg is note_off channel=9 note=74 velocity=100 time=1
the msg is note_on channel=9 note=71 velocity=100 time=4
the msg is note_off channel=9 note=71 velocity=100 time=1
the msg is note_on channel=9 note=74 velocity=100 time=10
the msg is note_off channel=9 note=74 velocity=100 time=1
the msg is note_on channel=9 note=74 velocity=100 time=4
the msg is note_off channel=9 note=74 velocity=100 time=1
the msg is note_on channel=9 note=71 velocity=100 time=4
the msg is note_off channel=9 note=71 velocity=100 time=1
the msg is note_on channel=9 note=71 velocity=100 time=4
the msg is note_off channel=9 note=71 velocity=100 time=1
the msg is note_on channel=9 note=69 velocity=100 time=4
the msg is note_off channel=9 note=69 velocity=100 time=1
the msg is note_on channel=9 note=72 velocity=100 time=55
the msg is note_off channel=9 note=72 velocity=100 time=1
the msg is note_on channel=9 note=72 velocity=100 time=10
the msg is note_off channel=9 note=72 velocity=100 time=1
the msg is note_on channel=9 note=72 velocity=100 time=4
the msg is note_off channel=9 note=72 velocity=100 time=1
the msg is note_on channel=9 note=72 velocity=100 time=4
the msg is note_off channel=9 note=72 velocity=100 time=1
the msg is note_on channel=9 note=72 velocity=100 time=4
the msg is note_off channel=9 note=72 velocity=100 time=1
the msg is note_on channel=9 note=76 velocity=100 time=4
the msg is note_off channel=9 note=76 velocity=100 time=1
the msg is note_on channel=9 note=79 velocity=100 time=10
the msg is note_off channel=9 note=79 velocity=100 time=1
the msg is note_on channel=9 note=76 velocity=100 time=10
the msg is note_off channel=9 note=76 velocity=100 time=1
the msg is note_on channel=9 note=79 velocity=100 time=10
the msg is note_off channel=9 note=79 velocity=100 time=1
the msg is note_on channel=9 note=79 velocity=100 time=4
the msg is note_off channel=9 note=79 velocity=100 time=1
the msg is note_on channel=9 note=76 velocity=100 time=4
the msg is note_off channel=9 note=76 velocity=100 time=1
the msg is note_on channel=9 note=74 velocity=100 time=4
the msg is note_off channel=9 note=74 velocity=100 time=1
the msg is note_on channel=9 note=72 velocity=100 time=4
the msg is note_off channel=9 note=72 velocity=100 time=1
the msg is note_on channel=9 note=74 velocity=100 time=10
the msg is note_off channel=9 note=74 velocity=100 time=1
the msg is note_on channel=9 note=74 velocity=100 time=10
the msg is note_off channel=9 note=74 velocity=100 time=1
the msg is note_on channel=9 note=74 velocity=100 time=10
the msg is note_off channel=9 note=74 velocity=100 time=1
the msg is note_on channel=9 note=76 velocity=100 time=10
the msg is note_off channel=9 note=76 velocity=100 time=1
the msg is note_on channel=9 note=79 velocity=100 time=10
the msg is note_off channel=9 note=79 velocity=100 time=1
the msg is note_on channel=9 note=79 velocity=100 time=6
the msg is note_off channel=9 note=79 velocity=100 time=1
the msg is note_on channel=9 note=76 velocity=100 time=3
the msg is note_off channel=9 note=76 velocity=100 time=1
the msg is note_on channel=9 note=74 velocity=100 time=6
the msg is note_off channel=9 note=74 velocity=100 time=1
the msg is note_on channel=9 note=72 velocity=100 time=3
the msg is note_off channel=9 note=72 velocity=100 time=1
the msg is note_on channel=9 note=74 velocity=100 time=10
the msg is note_off channel=9 note=74 velocity=100 time=1
the msg is note_on channel=9 note=76 velocity=100 time=10
the msg is note_off channel=9 note=76 velocity=100 time=1
the msg is note_on channel=9 note=72 velocity=100 time=4
the msg is note_off channel=9 note=72 velocity=100 time=1
the msg is note_on channel=9 note=74 velocity=100 time=4
the msg is note_off channel=9 note=74 velocity=100 time=1
the msg is note_on channel=9 note=74 velocity=100 time=10
the msg is note_off channel=9 note=74 velocity=100 time=1
the msg is note_on channel=9 note=74 velocity=100 time=10
the msg is note_off channel=9 note=74 velocity=100 time=1
the msg is note_on channel=9 note=74 velocity=100 time=4
the msg is note_off channel=9 note=74 velocity=100 time=1
the msg is note_on channel=9 note=71 velocity=100 time=4
the msg is note_off channel=9 note=71 velocity=100 time=1
the msg is note_on channel=9 note=74 velocity=100 time=10
the msg is note_off channel=9 note=74 velocity=100 time=1
the msg is note_on channel=9 note=74 velocity=100 time=10
the msg is note_off channel=9 note=74 velocity=100 time=1
the msg is note_on channel=9 note=72 velocity=100 time=3
the msg is note_off channel=9 note=72 velocity=100 time=1
the msg is note_on channel=9 note=74 velocity=100 time=10
the msg is note_off channel=9 note=74 velocity=100 time=1
the msg is note_on channel=9 note=74 velocity=100 time=10
the msg is note_off channel=9 note=74 velocity=100 time=1
the msg is note_on channel=9 note=74 velocity=100 time=4
the msg is note_off channel=9 note=74 velocity=100 time=1
the msg is note_on channel=9 note=71 velocity=100 time=4
the msg is note_off channel=9 note=71 velocity=100 time=1
the msg is note_on channel=9 note=74 velocity=100 time=4
the msg is note_off channel=9 note=74 velocity=100 time=1
the msg is note_on channel=9 note=76 velocity=100 time=10
the msg is note_off channel=9 note=76 velocity=100 time=1
the msg is note_on channel=9 note=79 velocity=100 time=10
the msg is note_off channel=9 note=79 velocity=100 time=1
the msg is note_on channel=9 note=72 velocity=100 time=3
the msg is note_off channel=9 note=72 velocity=100 time=1
the msg is note_on channel=9 note=72 velocity=100 time=6
the msg is note_off channel=9 note=72 velocity=100 time=1
the msg is note_on channel=9 note=72 velocity=100 time=3
the msg is note_off channel=9 note=72 velocity=100 time=1
the msg is note_on channel=9 note=72 velocity=100 time=10
the msg is note_off channel=9 note=72 velocity=100 time=1
the msg is note_on channel=9 note=72 velocity=100 time=4
the msg is note_off channel=9 note=72 velocity=100 time=1
the msg is note_on channel=9 note=72 velocity=100 time=4
the msg is note_off channel=9 note=72 velocity=100 time=1
the msg is <meta message end_of_track time=0>
the msg is <meta message track_name name='outTest85_512_1.0.mid' time=0>
the msg is note_on channel=9 note=69 velocity=100 time=1
the msg is note_off channel=9 note=69 velocity=100 time=1
the msg is note_on channel=9 note=72 velocity=100 time=75
the msg is note_off channel=9 note=72 velocity=100 time=1
the msg is note_on channel=9 note=72 velocity=100 time=4
the msg is note_off channel=9 note=72 velocity=100 time=1
the msg is note_on channel=9 note=72 velocity=100 time=4
the msg is note_off channel=9 note=72 velocity=100 time=1
the msg is note_on channel=9 note=72 velocity=100 time=10
the msg is note_off channel=9 note=72 velocity=100 time=1
the msg is note_on channel=9 note=74 velocity=100 time=10
the msg is note_off channel=9 note=74 velocity=100 time=1
the msg is note_on channel=9 note=74 velocity=100 time=4
the msg is note_off channel=9 note=74 velocity=100 time=1
the msg is note_on channel=9 note=71 velocity=100 time=4
the msg is note_off channel=9 note=71 velocity=100 time=1
the msg is note_on channel=9 note=74 velocity=100 time=10
the msg is note_off channel=9 note=74 velocity=100 time=1
the msg is note_on channel=9 note=74 velocity=100 time=4
the msg is note_off channel=9 note=74 velocity=100 time=1
the msg is note_on channel=9 note=71 velocity=100 time=4
the msg is note_off channel=9 note=71 velocity=100 time=1
the msg is note_on channel=9 note=71 velocity=100 time=4
the msg is note_off channel=9 note=71 velocity=100 time=1
the msg is note_on channel=9 note=69 velocity=100 time=4
the msg is note_off channel=9 note=69 velocity=100 time=1
the msg is note_on channel=9 note=72 velocity=100 time=55
the msg is note_off channel=9 note=72 velocity=100 time=1
the msg is note_on channel=9 note=72 velocity=100 time=10
the msg is note_off channel=9 note=72 velocity=100 time=1
the msg is note_on channel=9 note=72 velocity=100 time=4
the msg is note_off channel=9 note=72 velocity=100 time=1
the msg is note_on channel=9 note=72 velocity=100 time=4
the msg is note_off channel=9 note=72 velocity=100 time=1
the msg is note_on channel=9 note=72 velocity=100 time=4
the msg is note_off channel=9 note=72 velocity=100 time=1
the msg is note_on channel=9 note=76 velocity=100 time=4
the msg is note_off channel=9 note=76 velocity=100 time=1
the msg is note_on channel=9 note=79 velocity=100 time=10
the msg is note_off channel=9 note=79 velocity=100 time=1
the msg is note_on channel=9 note=76 velocity=100 time=10
the msg is note_off channel=9 note=76 velocity=100 time=1
the msg is note_on channel=9 note=79 velocity=100 time=10
the msg is note_off channel=9 note=79 velocity=100 time=1
the msg is note_on channel=9 note=79 velocity=100 time=4
the msg is note_off channel=9 note=79 velocity=100 time=1
the msg is note_on channel=9 note=76 velocity=100 time=4
the msg is note_off channel=9 note=76 velocity=100 time=1
the msg is note_on channel=9 note=74 velocity=100 time=4
the msg is note_off channel=9 note=74 velocity=100 time=1
the msg is note_on channel=9 note=72 velocity=100 time=4
the msg is note_off channel=9 note=72 velocity=100 time=1
the msg is note_on channel=9 note=74 velocity=100 time=10
the msg is note_off channel=9 note=74 velocity=100 time=1
the msg is note_on channel=9 note=74 velocity=100 time=10
the msg is note_off channel=9 note=74 velocity=100 time=1
the msg is note_on channel=9 note=74 velocity=100 time=10
the msg is note_off channel=9 note=74 velocity=100 time=1
the msg is note_on channel=9 note=76 velocity=100 time=10
the msg is note_off channel=9 note=76 velocity=100 time=1
the msg is note_on channel=9 note=79 velocity=100 time=10
the msg is note_off channel=9 note=79 velocity=100 time=1
the msg is note_on channel=9 note=79 velocity=100 time=6
the msg is note_off channel=9 note=79 velocity=100 time=1
the msg is note_on channel=9 note=76 velocity=100 time=3
the msg is note_off channel=9 note=76 velocity=100 time=1
the msg is note_on channel=9 note=74 velocity=100 time=6
the msg is note_off channel=9 note=74 velocity=100 time=1
the msg is note_on channel=9 note=72 velocity=100 time=3
the msg is note_off channel=9 note=72 velocity=100 time=1
the msg is note_on channel=9 note=74 velocity=100 time=10
the msg is note_off channel=9 note=74 velocity=100 time=1
the msg is note_on channel=9 note=76 velocity=100 time=10
the msg is note_off channel=9 note=76 velocity=100 time=1
the msg is note_on channel=9 note=72 velocity=100 time=4
the msg is note_off channel=9 note=72 velocity=100 time=1
the msg is note_on channel=9 note=74 velocity=100 time=4
the msg is note_off channel=9 note=74 velocity=100 time=1
the msg is note_on channel=9 note=74 velocity=100 time=10
the msg is note_off channel=9 note=74 velocity=100 time=1
the msg is note_on channel=9 note=74 velocity=100 time=10
the msg is note_off channel=9 note=74 velocity=100 time=1
the msg is note_on channel=9 note=74 velocity=100 time=4
the msg is note_off channel=9 note=74 velocity=100 time=1
the msg is note_on channel=9 note=71 velocity=100 time=4
the msg is note_off channel=9 note=71 velocity=100 time=1
the msg is note_on channel=9 note=74 velocity=100 time=10
the msg is note_off channel=9 note=74 velocity=100 time=1
the msg is note_on channel=9 note=74 velocity=100 time=10
the msg is note_off channel=9 note=74 velocity=100 time=1
the msg is note_on channel=9 note=72 velocity=100 time=3
the msg is note_off channel=9 note=72 velocity=100 time=1
the msg is note_on channel=9 note=74 velocity=100 time=10
the msg is note_off channel=9 note=74 velocity=100 time=1
the msg is note_on channel=9 note=74 velocity=100 time=10
the msg is note_off channel=9 note=74 velocity=100 time=1
the msg is note_on channel=9 note=74 velocity=100 time=4
the msg is note_off channel=9 note=74 velocity=100 time=1
the msg is note_on channel=9 note=71 velocity=100 time=4
the msg is note_off channel=9 note=71 velocity=100 time=1
the msg is note_on channel=9 note=74 velocity=100 time=4
the msg is note_off channel=9 note=74 velocity=100 time=1
the msg is note_on channel=9 note=76 velocity=100 time=10
the msg is note_off channel=9 note=76 velocity=100 time=1
the msg is note_on channel=9 note=79 velocity=100 time=10
the msg is note_off channel=9 note=79 velocity=100 time=1
the msg is note_on channel=9 note=72 velocity=100 time=3
the msg is note_off channel=9 note=72 velocity=100 time=1
the msg is note_on channel=9 note=72 velocity=100 time=6
the msg is note_off channel=9 note=72 velocity=100 time=1
the msg is note_on channel=9 note=72 velocity=100 time=3
the msg is note_off channel=9 note=72 velocity=100 time=1
the msg is note_on channel=9 note=72 velocity=100 time=10
the msg is note_off channel=9 note=72 velocity=100 time=1
the msg is note_on channel=9 note=72 velocity=100 time=4
the msg is note_off channel=9 note=72 velocity=100 time=1
the msg is note_on channel=9 note=72 velocity=100 time=4
the msg is note_off channel=9 note=72 velocity=100 time=1
the msg is <meta message end_of_track time=0>
the msg is <meta message track_name name='outTest85_512_1.0.mid' time=0>
the msg is note_on channel=9 note=69 velocity=100 time=1
the msg is note_off channel=9 note=69 velocity=100 time=1
the msg is note_on channel=9 note=72 velocity=100 time=75
the msg is note_off channel=9 note=72 velocity=100 time=1
the msg is note_on channel=9 note=72 velocity=100 time=4
the msg is note_off channel=9 note=72 velocity=100 time=1
the msg is note_on channel=9 note=72 velocity=100 time=4
the msg is note_off channel=9 note=72 velocity=100 time=1
the msg is note_on channel=9 note=72 velocity=100 time=10
the msg is note_off channel=9 note=72 velocity=100 time=1
the msg is note_on channel=9 note=74 velocity=100 time=10
the msg is note_off channel=9 note=74 velocity=100 time=1
the msg is note_on channel=9 note=74 velocity=100 time=4
the msg is note_off channel=9 note=74 velocity=100 time=1
the msg is note_on channel=9 note=71 velocity=100 time=4
the msg is note_off channel=9 note=71 velocity=100 time=1
the msg is note_on channel=9 note=74 velocity=100 time=10
the msg is note_off channel=9 note=74 velocity=100 time=1
the msg is note_on channel=9 note=74 velocity=100 time=4
the msg is note_off channel=9 note=74 velocity=100 time=1
the msg is note_on channel=9 note=71 velocity=100 time=4
the msg is note_off channel=9 note=71 velocity=100 time=1
the msg is note_on channel=9 note=71 velocity=100 time=4
the msg is note_off channel=9 note=71 velocity=100 time=1
the msg is note_on channel=9 note=69 velocity=100 time=4
the msg is note_off channel=9 note=69 velocity=100 time=1
the msg is note_on channel=9 note=72 velocity=100 time=55
the msg is note_off channel=9 note=72 velocity=100 time=1
the msg is note_on channel=9 note=72 velocity=100 time=10
the msg is note_off channel=9 note=72 velocity=100 time=1
the msg is note_on channel=9 note=72 velocity=100 time=4
the msg is note_off channel=9 note=72 velocity=100 time=1
the msg is note_on channel=9 note=72 velocity=100 time=4
the msg is note_off channel=9 note=72 velocity=100 time=1
the msg is note_on channel=9 note=72 velocity=100 time=4
the msg is note_off channel=9 note=72 velocity=100 time=1
the msg is note_on channel=9 note=76 velocity=100 time=4
the msg is note_off channel=9 note=76 velocity=100 time=1
the msg is note_on channel=9 note=79 velocity=100 time=10
the msg is note_off channel=9 note=79 velocity=100 time=1
the msg is note_on channel=9 note=76 velocity=100 time=10
the msg is note_off channel=9 note=76 velocity=100 time=1
the msg is note_on channel=9 note=79 velocity=100 time=10
the msg is note_off channel=9 note=79 velocity=100 time=1
the msg is note_on channel=9 note=79 velocity=100 time=4
the msg is note_off channel=9 note=79 velocity=100 time=1
the msg is note_on channel=9 note=76 velocity=100 time=4
the msg is note_off channel=9 note=76 velocity=100 time=1
the msg is note_on channel=9 note=74 velocity=100 time=4
the msg is note_off channel=9 note=74 velocity=100 time=1
the msg is note_on channel=9 note=72 velocity=100 time=4
the msg is note_off channel=9 note=72 velocity=100 time=1
the msg is note_on channel=9 note=74 velocity=100 time=10
the msg is note_off channel=9 note=74 velocity=100 time=1
the msg is note_on channel=9 note=74 velocity=100 time=10
the msg is note_off channel=9 note=74 velocity=100 time=1
the msg is note_on channel=9 note=74 velocity=100 time=10
the msg is note_off channel=9 note=74 velocity=100 time=1
the msg is note_on channel=9 note=76 velocity=100 time=10
the msg is note_off channel=9 note=76 velocity=100 time=1
the msg is note_on channel=9 note=79 velocity=100 time=10
the msg is note_off channel=9 note=79 velocity=100 time=1
the msg is note_on channel=9 note=79 velocity=100 time=6
the msg is note_off channel=9 note=79 velocity=100 time=1
the msg is note_on channel=9 note=76 velocity=100 time=3
the msg is note_off channel=9 note=76 velocity=100 time=1
the msg is note_on channel=9 note=74 velocity=100 time=6
the msg is note_off channel=9 note=74 velocity=100 time=1
the msg is note_on channel=9 note=72 velocity=100 time=3
the msg is note_off channel=9 note=72 velocity=100 time=1
the msg is note_on channel=9 note=74 velocity=100 time=10
the msg is note_off channel=9 note=74 velocity=100 time=1
the msg is note_on channel=9 note=76 velocity=100 time=10
the msg is note_off channel=9 note=76 velocity=100 time=1
the msg is note_on channel=9 note=72 velocity=100 time=4
the msg is note_off channel=9 note=72 velocity=100 time=1
the msg is note_on channel=9 note=74 velocity=100 time=4
the msg is note_off channel=9 note=74 velocity=100 time=1
the msg is note_on channel=9 note=74 velocity=100 time=10
the msg is note_off channel=9 note=74 velocity=100 time=1
the msg is note_on channel=9 note=74 velocity=100 time=10
the msg is note_off channel=9 note=74 velocity=100 time=1
the msg is note_on channel=9 note=74 velocity=100 time=4
the msg is note_off channel=9 note=74 velocity=100 time=1
the msg is note_on channel=9 note=71 velocity=100 time=4
the msg is note_off channel=9 note=71 velocity=100 time=1
the msg is note_on channel=9 note=74 velocity=100 time=10
the msg is note_off channel=9 note=74 velocity=100 time=1
the msg is note_on channel=9 note=74 velocity=100 time=10
the msg is note_off channel=9 note=74 velocity=100 time=1
the msg is note_on channel=9 note=72 velocity=100 time=3
the msg is note_off channel=9 note=72 velocity=100 time=1
the msg is note_on channel=9 note=74 velocity=100 time=10
the msg is note_off channel=9 note=74 velocity=100 time=1
the msg is note_on channel=9 note=74 velocity=100 time=10
the msg is note_off channel=9 note=74 velocity=100 time=1
the msg is note_on channel=9 note=74 velocity=100 time=4
the msg is note_off channel=9 note=74 velocity=100 time=1
the msg is note_on channel=9 note=71 velocity=100 time=4
the msg is note_off channel=9 note=71 velocity=100 time=1
the msg is note_on channel=9 note=74 velocity=100 time=4
the msg is note_off channel=9 note=74 velocity=100 time=1
the msg is note_on channel=9 note=76 velocity=100 time=10
the msg is note_off channel=9 note=76 velocity=100 time=1
the msg is note_on channel=9 note=79 velocity=100 time=10
the msg is note_off channel=9 note=79 velocity=100 time=1
the msg is note_on channel=9 note=72 velocity=100 time=3
the msg is note_off channel=9 note=72 velocity=100 time=1
the msg is note_on channel=9 note=72 velocity=100 time=6
the msg is note_off channel=9 note=72 velocity=100 time=1
the msg is note_on channel=9 note=72 velocity=100 time=3
the msg is note_off channel=9 note=72 velocity=100 time=1
the msg is note_on channel=9 note=72 velocity=100 time=10
the msg is note_off channel=9 note=72 velocity=100 time=1
the msg is note_on channel=9 note=72 velocity=100 time=4
the msg is note_off channel=9 note=72 velocity=100 time=1
the msg is note_on channel=9 note=72 velocity=100 time=4
the msg is note_off channel=9 note=72 velocity=100 time=1
the msg is <meta message end_of_track time=0>
the msg is <meta message track_name name='outTest85_512_1.0.mid' time=0>
the msg is note_on channel=9 note=69 velocity=100 time=1
the msg is note_off channel=9 note=69 velocity=100 time=1
the msg is note_on channel=9 note=72 velocity=100 time=75
the msg is note_off channel=9 note=72 velocity=100 time=1
the msg is note_on channel=9 note=72 velocity=100 time=4
the msg is note_off channel=9 note=72 velocity=100 time=1
the msg is note_on channel=9 note=72 velocity=100 time=4
the msg is note_off channel=9 note=72 velocity=100 time=1
the msg is note_on channel=9 note=72 velocity=100 time=10
the msg is note_off channel=9 note=72 velocity=100 time=1
the msg is note_on channel=9 note=74 velocity=100 time=10
the msg is note_off channel=9 note=74 velocity=100 time=1
the msg is note_on channel=9 note=74 velocity=100 time=4
the msg is note_off channel=9 note=74 velocity=100 time=1
the msg is note_on channel=9 note=71 velocity=100 time=4
the msg is note_off channel=9 note=71 velocity=100 time=1
the msg is note_on channel=9 note=74 velocity=100 time=10
the msg is note_off channel=9 note=74 velocity=100 time=1
the msg is note_on channel=9 note=74 velocity=100 time=4
the msg is note_off channel=9 note=74 velocity=100 time=1
the msg is note_on channel=9 note=71 velocity=100 time=4
the msg is note_off channel=9 note=71 velocity=100 time=1
the msg is note_on channel=9 note=71 velocity=100 time=4
the msg is note_off channel=9 note=71 velocity=100 time=1
the msg is note_on channel=9 note=69 velocity=100 time=4
the msg is note_off channel=9 note=69 velocity=100 time=1
the msg is note_on channel=9 note=72 velocity=100 time=55
the msg is note_off channel=9 note=72 velocity=100 time=1
the msg is note_on channel=9 note=72 velocity=100 time=10
the msg is note_off channel=9 note=72 velocity=100 time=1
the msg is note_on channel=9 note=72 velocity=100 time=4
the msg is note_off channel=9 note=72 velocity=100 time=1
the msg is note_on channel=9 note=72 velocity=100 time=4
the msg is note_off channel=9 note=72 velocity=100 time=1
the msg is note_on channel=9 note=72 velocity=100 time=4
the msg is note_off channel=9 note=72 velocity=100 time=1
the msg is note_on channel=9 note=76 velocity=100 time=4
the msg is note_off channel=9 note=76 velocity=100 time=1
the msg is note_on channel=9 note=79 velocity=100 time=10
the msg is note_off channel=9 note=79 velocity=100 time=1
the msg is note_on channel=9 note=76 velocity=100 time=10
the msg is note_off channel=9 note=76 velocity=100 time=1
the msg is note_on channel=9 note=79 velocity=100 time=10
the msg is note_off channel=9 note=79 velocity=100 time=1
the msg is note_on channel=9 note=79 velocity=100 time=4
the msg is note_off channel=9 note=79 velocity=100 time=1
the msg is note_on channel=9 note=76 velocity=100 time=4
the msg is note_off channel=9 note=76 velocity=100 time=1
the msg is note_on channel=9 note=74 velocity=100 time=4
the msg is note_off channel=9 note=74 velocity=100 time=1
the msg is note_on channel=9 note=72 velocity=100 time=4
the msg is note_off channel=9 note=72 velocity=100 time=1
the msg is note_on channel=9 note=74 velocity=100 time=10
the msg is note_off channel=9 note=74 velocity=100 time=1
the msg is note_on channel=9 note=74 velocity=100 time=10
the msg is note_off channel=9 note=74 velocity=100 time=1
the msg is note_on channel=9 note=74 velocity=100 time=10
the msg is note_off channel=9 note=74 velocity=100 time=1
the msg is note_on channel=9 note=76 velocity=100 time=10
the msg is note_off channel=9 note=76 velocity=100 time=1
the msg is note_on channel=9 note=79 velocity=100 time=10
the msg is note_off channel=9 note=79 velocity=100 time=1
the msg is note_on channel=9 note=79 velocity=100 time=6
the msg is note_off channel=9 note=79 velocity=100 time=1
the msg is note_on channel=9 note=76 velocity=100 time=3
the msg is note_off channel=9 note=76 velocity=100 time=1
the msg is note_on channel=9 note=74 velocity=100 time=6
the msg is note_off channel=9 note=74 velocity=100 time=1
the msg is note_on channel=9 note=72 velocity=100 time=3
the msg is note_off channel=9 note=72 velocity=100 time=1
the msg is note_on channel=9 note=74 velocity=100 time=10
the msg is note_off channel=9 note=74 velocity=100 time=1
the msg is note_on channel=9 note=76 velocity=100 time=10
the msg is note_off channel=9 note=76 velocity=100 time=1
the msg is note_on channel=9 note=72 velocity=100 time=4
the msg is note_off channel=9 note=72 velocity=100 time=1
the msg is note_on channel=9 note=74 velocity=100 time=4
the msg is note_off channel=9 note=74 velocity=100 time=1
the msg is note_on channel=9 note=74 velocity=100 time=10
the msg is note_off channel=9 note=74 velocity=100 time=1
the msg is note_on channel=9 note=74 velocity=100 time=10
the msg is note_off channel=9 note=74 velocity=100 time=1
the msg is note_on channel=9 note=74 velocity=100 time=4
the msg is note_off channel=9 note=74 velocity=100 time=1
the msg is note_on channel=9 note=71 velocity=100 time=4
the msg is note_off channel=9 note=71 velocity=100 time=1
the msg is note_on channel=9 note=74 velocity=100 time=10
the msg is note_off channel=9 note=74 velocity=100 time=1
the msg is note_on channel=9 note=74 velocity=100 time=10
the msg is note_off channel=9 note=74 velocity=100 time=1
the msg is note_on channel=9 note=72 velocity=100 time=3
the msg is note_off channel=9 note=72 velocity=100 time=1
the msg is note_on channel=9 note=74 velocity=100 time=10
the msg is note_off channel=9 note=74 velocity=100 time=1
the msg is note_on channel=9 note=74 velocity=100 time=10
the msg is note_off channel=9 note=74 velocity=100 time=1
the msg is note_on channel=9 note=74 velocity=100 time=4
the msg is note_off channel=9 note=74 velocity=100 time=1
the msg is note_on channel=9 note=71 velocity=100 time=4
the msg is note_off channel=9 note=71 velocity=100 time=1
the msg is note_on channel=9 note=74 velocity=100 time=4
the msg is note_off channel=9 note=74 velocity=100 time=1
the msg is note_on channel=9 note=76 velocity=100 time=10
the msg is note_off channel=9 note=76 velocity=100 time=1
the msg is note_on channel=9 note=79 velocity=100 time=10
the msg is note_off channel=9 note=79 velocity=100 time=1
the msg is note_on channel=9 note=72 velocity=100 time=3
the msg is note_off channel=9 note=72 velocity=100 time=1
the msg is note_on channel=9 note=72 velocity=100 time=6
the msg is note_off channel=9 note=72 velocity=100 time=1
the msg is note_on channel=9 note=72 velocity=100 time=3
the msg is note_off channel=9 note=72 velocity=100 time=1
the msg is note_on channel=9 note=72 velocity=100 time=10
the msg is note_off channel=9 note=72 velocity=100 time=1
the msg is note_on channel=9 note=72 velocity=100 time=4
the msg is note_off channel=9 note=72 velocity=100 time=1
the msg is note_on channel=9 note=72 velocity=100 time=4
the msg is note_off channel=9 note=72 velocity=100 time=1
the msg is <meta message end_of_track time=0>
the msg is <meta message track_name name='outTest85_512_1.0.mid' time=0>
the msg is note_on channel=9 note=69 velocity=100 time=1
the msg is note_off channel=9 note=69 velocity=100 time=1
the msg is note_on channel=9 note=72 velocity=100 time=75
the msg is note_off channel=9 note=72 velocity=100 time=1
the msg is note_on channel=9 note=72 velocity=100 time=4
the msg is note_off channel=9 note=72 velocity=100 time=1
the msg is note_on channel=9 note=72 velocity=100 time=4
the msg is note_off channel=9 note=72 velocity=100 time=1
the msg is note_on channel=9 note=72 velocity=100 time=10
the msg is note_off channel=9 note=72 velocity=100 time=1
the msg is note_on channel=9 note=74 velocity=100 time=10
the msg is note_off channel=9 note=74 velocity=100 time=1
the msg is note_on channel=9 note=74 velocity=100 time=4
the msg is note_off channel=9 note=74 velocity=100 time=1
the msg is note_on channel=9 note=71 velocity=100 time=4
the msg is note_off channel=9 note=71 velocity=100 time=1
the msg is note_on channel=9 note=74 velocity=100 time=10
the msg is note_off channel=9 note=74 velocity=100 time=1
the msg is note_on channel=9 note=74 velocity=100 time=4
the msg is note_off channel=9 note=74 velocity=100 time=1
the msg is note_on channel=9 note=71 velocity=100 time=4
the msg is note_off channel=9 note=71 velocity=100 time=1
the msg is note_on channel=9 note=71 velocity=100 time=4
the msg is note_off channel=9 note=71 velocity=100 time=1
the msg is note_on channel=9 note=69 velocity=100 time=4
the msg is note_off channel=9 note=69 velocity=100 time=1
the msg is note_on channel=9 note=72 velocity=100 time=55
the msg is note_off channel=9 note=72 velocity=100 time=1
the msg is note_on channel=9 note=72 velocity=100 time=10
the msg is note_off channel=9 note=72 velocity=100 time=1
the msg is note_on channel=9 note=72 velocity=100 time=4
the msg is note_off channel=9 note=72 velocity=100 time=1
the msg is note_on channel=9 note=72 velocity=100 time=4
the msg is note_off channel=9 note=72 velocity=100 time=1
the msg is note_on channel=9 note=72 velocity=100 time=4
the msg is note_off channel=9 note=72 velocity=100 time=1
the msg is note_on channel=9 note=76 velocity=100 time=4
the msg is note_off channel=9 note=76 velocity=100 time=1
the msg is note_on channel=9 note=79 velocity=100 time=10
the msg is note_off channel=9 note=79 velocity=100 time=1
the msg is note_on channel=9 note=76 velocity=100 time=10
the msg is note_off channel=9 note=76 velocity=100 time=1
the msg is note_on channel=9 note=79 velocity=100 time=10
the msg is note_off channel=9 note=79 velocity=100 time=1
the msg is note_on channel=9 note=79 velocity=100 time=4
the msg is note_off channel=9 note=79 velocity=100 time=1
the msg is note_on channel=9 note=76 velocity=100 time=4
the msg is note_off channel=9 note=76 velocity=100 time=1
the msg is note_on channel=9 note=74 velocity=100 time=4
the msg is note_off channel=9 note=74 velocity=100 time=1
the msg is note_on channel=9 note=72 velocity=100 time=4
the msg is note_off channel=9 note=72 velocity=100 time=1
the msg is note_on channel=9 note=74 velocity=100 time=10
the msg is note_off channel=9 note=74 velocity=100 time=1
the msg is note_on channel=9 note=74 velocity=100 time=10
the msg is note_off channel=9 note=74 velocity=100 time=1
the msg is note_on channel=9 note=74 velocity=100 time=10
the msg is note_off channel=9 note=74 velocity=100 time=1
the msg is note_on channel=9 note=76 velocity=100 time=10
the msg is note_off channel=9 note=76 velocity=100 time=1
the msg is note_on channel=9 note=79 velocity=100 time=10
the msg is note_off channel=9 note=79 velocity=100 time=1
the msg is note_on channel=9 note=79 velocity=100 time=6
the msg is note_off channel=9 note=79 velocity=100 time=1
the msg is note_on channel=9 note=76 velocity=100 time=3
the msg is note_off channel=9 note=76 velocity=100 time=1
the msg is note_on channel=9 note=74 velocity=100 time=6
the msg is note_off channel=9 note=74 velocity=100 time=1
the msg is note_on channel=9 note=72 velocity=100 time=3
the msg is note_off channel=9 note=72 velocity=100 time=1
the msg is note_on channel=9 note=74 velocity=100 time=10
the msg is note_off channel=9 note=74 velocity=100 time=1
the msg is note_on channel=9 note=76 velocity=100 time=10
the msg is note_off channel=9 note=76 velocity=100 time=1
the msg is note_on channel=9 note=72 velocity=100 time=4
the msg is note_off channel=9 note=72 velocity=100 time=1
the msg is note_on channel=9 note=74 velocity=100 time=4
the msg is note_off channel=9 note=74 velocity=100 time=1
the msg is note_on channel=9 note=74 velocity=100 time=10
the msg is note_off channel=9 note=74 velocity=100 time=1
the msg is note_on channel=9 note=74 velocity=100 time=10
the msg is note_off channel=9 note=74 velocity=100 time=1
the msg is note_on channel=9 note=74 velocity=100 time=4
the msg is note_off channel=9 note=74 velocity=100 time=1
the msg is note_on channel=9 note=71 velocity=100 time=4
the msg is note_off channel=9 note=71 velocity=100 time=1
the msg is note_on channel=9 note=74 velocity=100 time=10
the msg is note_off channel=9 note=74 velocity=100 time=1
the msg is note_on channel=9 note=74 velocity=100 time=10
the msg is note_off channel=9 note=74 velocity=100 time=1
the msg is note_on channel=9 note=72 velocity=100 time=3
the msg is note_off channel=9 note=72 velocity=100 time=1
the msg is note_on channel=9 note=74 velocity=100 time=10
the msg is note_off channel=9 note=74 velocity=100 time=1
the msg is note_on channel=9 note=74 velocity=100 time=10
the msg is note_off channel=9 note=74 velocity=100 time=1
the msg is note_on channel=9 note=74 velocity=100 time=4
the msg is note_off channel=9 note=74 velocity=100 time=1
the msg is note_on channel=9 note=71 velocity=100 time=4
the msg is note_off channel=9 note=71 velocity=100 time=1
the msg is note_on channel=9 note=74 velocity=100 time=4
the msg is note_off channel=9 note=74 velocity=100 time=1
the msg is note_on channel=9 note=76 velocity=100 time=10
the msg is note_off channel=9 note=76 velocity=100 time=1
the msg is note_on channel=9 note=79 velocity=100 time=10
the msg is note_off channel=9 note=79 velocity=100 time=1
the msg is note_on channel=9 note=72 velocity=100 time=3
the msg is note_off channel=9 note=72 velocity=100 time=1
the msg is note_on channel=9 note=72 velocity=100 time=6
the msg is note_off channel=9 note=72 velocity=100 time=1
the msg is note_on channel=9 note=72 velocity=100 time=3
the msg is note_off channel=9 note=72 velocity=100 time=1
the msg is note_on channel=9 note=72 velocity=100 time=10
the msg is note_off channel=9 note=72 velocity=100 time=1
the msg is note_on channel=9 note=72 velocity=100 time=4
the msg is note_off channel=9 note=72 velocity=100 time=1
the msg is note_on channel=9 note=72 velocity=100 time=4
the msg is note_off channel=9 note=72 velocity=100 time=1
the msg is <meta message end_of_track time=0>
the msg is <meta message track_name name='outTest85_512_1.0.mid' time=0>
the msg is note_on channel=9 note=69 velocity=100 time=1
the msg is note_off channel=9 note=69 velocity=100 time=1
the msg is note_on channel=9 note=72 velocity=100 time=75
the msg is note_off channel=9 note=72 velocity=100 time=1
the msg is note_on channel=9 note=72 velocity=100 time=4
the msg is note_off channel=9 note=72 velocity=100 time=1
the msg is note_on channel=9 note=72 velocity=100 time=4
the msg is note_off channel=9 note=72 velocity=100 time=1
the msg is note_on channel=9 note=72 velocity=100 time=10
the msg is note_off channel=9 note=72 velocity=100 time=1
the msg is note_on channel=9 note=74 velocity=100 time=10
the msg is note_off channel=9 note=74 velocity=100 time=1
the msg is note_on channel=9 note=74 velocity=100 time=4
the msg is note_off channel=9 note=74 velocity=100 time=1
the msg is note_on channel=9 note=71 velocity=100 time=4
the msg is note_off channel=9 note=71 velocity=100 time=1
the msg is note_on channel=9 note=74 velocity=100 time=10
the msg is note_off channel=9 note=74 velocity=100 time=1
the msg is note_on channel=9 note=74 velocity=100 time=4
the msg is note_off channel=9 note=74 velocity=100 time=1
the msg is note_on channel=9 note=71 velocity=100 time=4
the msg is note_off channel=9 note=71 velocity=100 time=1
the msg is note_on channel=9 note=71 velocity=100 time=4
the msg is note_off channel=9 note=71 velocity=100 time=1
the msg is note_on channel=9 note=69 velocity=100 time=4
the msg is note_off channel=9 note=69 velocity=100 time=1
the msg is note_on channel=9 note=72 velocity=100 time=55
the msg is note_off channel=9 note=72 velocity=100 time=1
the msg is note_on channel=9 note=72 velocity=100 time=10
the msg is note_off channel=9 note=72 velocity=100 time=1
the msg is note_on channel=9 note=72 velocity=100 time=4
the msg is note_off channel=9 note=72 velocity=100 time=1
the msg is note_on channel=9 note=72 velocity=100 time=4
the msg is note_off channel=9 note=72 velocity=100 time=1
the msg is note_on channel=9 note=72 velocity=100 time=4
the msg is note_off channel=9 note=72 velocity=100 time=1
the msg is note_on channel=9 note=76 velocity=100 time=4
the msg is note_off channel=9 note=76 velocity=100 time=1
the msg is note_on channel=9 note=79 velocity=100 time=10
the msg is note_off channel=9 note=79 velocity=100 time=1
the msg is note_on channel=9 note=76 velocity=100 time=10
the msg is note_off channel=9 note=76 velocity=100 time=1
the msg is note_on channel=9 note=79 velocity=100 time=10
the msg is note_off channel=9 note=79 velocity=100 time=1
the msg is note_on channel=9 note=79 velocity=100 time=4
the msg is note_off channel=9 note=79 velocity=100 time=1
the msg is note_on channel=9 note=76 velocity=100 time=4
the msg is note_off channel=9 note=76 velocity=100 time=1
the msg is note_on channel=9 note=74 velocity=100 time=4
the msg is note_off channel=9 note=74 velocity=100 time=1
the msg is note_on channel=9 note=72 velocity=100 time=4
the msg is note_off channel=9 note=72 velocity=100 time=1
the msg is note_on channel=9 note=74 velocity=100 time=10
the msg is note_off channel=9 note=74 velocity=100 time=1
the msg is note_on channel=9 note=74 velocity=100 time=10
the msg is note_off channel=9 note=74 velocity=100 time=1
the msg is note_on channel=9 note=74 velocity=100 time=10
the msg is note_off channel=9 note=74 velocity=100 time=1
the msg is note_on channel=9 note=76 velocity=100 time=10
the msg is note_off channel=9 note=76 velocity=100 time=1
the msg is note_on channel=9 note=79 velocity=100 time=10
the msg is note_off channel=9 note=79 velocity=100 time=1
the msg is note_on channel=9 note=79 velocity=100 time=6
the msg is note_off channel=9 note=79 velocity=100 time=1
the msg is note_on channel=9 note=76 velocity=100 time=3
the msg is note_off channel=9 note=76 velocity=100 time=1
the msg is note_on channel=9 note=74 velocity=100 time=6
the msg is note_off channel=9 note=74 velocity=100 time=1
the msg is note_on channel=9 note=72 velocity=100 time=3
the msg is note_off channel=9 note=72 velocity=100 time=1
the msg is note_on channel=9 note=74 velocity=100 time=10
the msg is note_off channel=9 note=74 velocity=100 time=1
the msg is note_on channel=9 note=76 velocity=100 time=10
the msg is note_off channel=9 note=76 velocity=100 time=1
the msg is note_on channel=9 note=72 velocity=100 time=4
the msg is note_off channel=9 note=72 velocity=100 time=1
the msg is note_on channel=9 note=74 velocity=100 time=4
the msg is note_off channel=9 note=74 velocity=100 time=1
the msg is note_on channel=9 note=74 velocity=100 time=10
the msg is note_off channel=9 note=74 velocity=100 time=1
the msg is note_on channel=9 note=74 velocity=100 time=10
the msg is note_off channel=9 note=74 velocity=100 time=1
the msg is note_on channel=9 note=74 velocity=100 time=4
the msg is note_off channel=9 note=74 velocity=100 time=1
the msg is note_on channel=9 note=71 velocity=100 time=4
the msg is note_off channel=9 note=71 velocity=100 time=1
the msg is note_on channel=9 note=74 velocity=100 time=10
the msg is note_off channel=9 note=74 velocity=100 time=1
the msg is note_on channel=9 note=74 velocity=100 time=10
the msg is note_off channel=9 note=74 velocity=100 time=1
the msg is note_on channel=9 note=72 velocity=100 time=3
the msg is note_off channel=9 note=72 velocity=100 time=1
the msg is note_on channel=9 note=74 velocity=100 time=10
the msg is note_off channel=9 note=74 velocity=100 time=1
the msg is note_on channel=9 note=74 velocity=100 time=10
the msg is note_off channel=9 note=74 velocity=100 time=1
the msg is note_on channel=9 note=74 velocity=100 time=4
the msg is note_off channel=9 note=74 velocity=100 time=1
the msg is note_on channel=9 note=71 velocity=100 time=4
the msg is note_off channel=9 note=71 velocity=100 time=1
the msg is note_on channel=9 note=74 velocity=100 time=4
the msg is note_off channel=9 note=74 velocity=100 time=1
the msg is note_on channel=9 note=76 velocity=100 time=10
the msg is note_off channel=9 note=76 velocity=100 time=1
the msg is note_on channel=9 note=79 velocity=100 time=10
the msg is note_off channel=9 note=79 velocity=100 time=1
the msg is note_on channel=9 note=72 velocity=100 time=3
the msg is note_off channel=9 note=72 velocity=100 time=1
the msg is note_on channel=9 note=72 velocity=100 time=6
the msg is note_off channel=9 note=72 velocity=100 time=1
the msg is note_on channel=9 note=72 velocity=100 time=3
the msg is note_off channel=9 note=72 velocity=100 time=1
the msg is note_on channel=9 note=72 velocity=100 time=10
the msg is note_off channel=9 note=72 velocity=100 time=1
the msg is note_on channel=9 note=72 velocity=100 time=4
the msg is note_off channel=9 note=72 velocity=100 time=1
the msg is note_on channel=9 note=72 velocity=100 time=4
the msg is note_off channel=9 note=72 velocity=100 time=1
the msg is <meta message end_of_track time=0>
the msg is <meta message track_name name='outTest85_512_1.0.mid' time=0>
the msg is note_on channel=9 note=69 velocity=100 time=1
the msg is note_off channel=9 note=69 velocity=100 time=1
the msg is note_on channel=9 note=72 velocity=100 time=75
the msg is note_off channel=9 note=72 velocity=100 time=1
the msg is note_on channel=9 note=72 velocity=100 time=4
the msg is note_off channel=9 note=72 velocity=100 time=1
the msg is note_on channel=9 note=72 velocity=100 time=4
the msg is note_off channel=9 note=72 velocity=100 time=1
the msg is note_on channel=9 note=72 velocity=100 time=10
the msg is note_off channel=9 note=72 velocity=100 time=1
the msg is note_on channel=9 note=74 velocity=100 time=10
the msg is note_off channel=9 note=74 velocity=100 time=1
the msg is note_on channel=9 note=74 velocity=100 time=4
the msg is note_off channel=9 note=74 velocity=100 time=1
the msg is note_on channel=9 note=71 velocity=100 time=4
the msg is note_off channel=9 note=71 velocity=100 time=1
the msg is note_on channel=9 note=74 velocity=100 time=10
the msg is note_off channel=9 note=74 velocity=100 time=1
the msg is note_on channel=9 note=74 velocity=100 time=4
the msg is note_off channel=9 note=74 velocity=100 time=1
the msg is note_on channel=9 note=71 velocity=100 time=4
the msg is note_off channel=9 note=71 velocity=100 time=1
the msg is note_on channel=9 note=71 velocity=100 time=4
the msg is note_off channel=9 note=71 velocity=100 time=1
the msg is note_on channel=9 note=69 velocity=100 time=4
the msg is note_off channel=9 note=69 velocity=100 time=1
the msg is note_on channel=9 note=72 velocity=100 time=55
the msg is note_off channel=9 note=72 velocity=100 time=1
the msg is note_on channel=9 note=72 velocity=100 time=10
the msg is note_off channel=9 note=72 velocity=100 time=1
the msg is note_on channel=9 note=72 velocity=100 time=4
the msg is note_off channel=9 note=72 velocity=100 time=1
the msg is note_on channel=9 note=72 velocity=100 time=4
the msg is note_off channel=9 note=72 velocity=100 time=1
the msg is note_on channel=9 note=72 velocity=100 time=4
the msg is note_off channel=9 note=72 velocity=100 time=1
the msg is note_on channel=9 note=76 velocity=100 time=4
the msg is note_off channel=9 note=76 velocity=100 time=1
the msg is note_on channel=9 note=79 velocity=100 time=10
the msg is note_off channel=9 note=79 velocity=100 time=1
the msg is note_on channel=9 note=76 velocity=100 time=10
the msg is note_off channel=9 note=76 velocity=100 time=1
the msg is note_on channel=9 note=79 velocity=100 time=10
the msg is note_off channel=9 note=79 velocity=100 time=1
the msg is note_on channel=9 note=79 velocity=100 time=4
the msg is note_off channel=9 note=79 velocity=100 time=1
the msg is note_on channel=9 note=76 velocity=100 time=4
the msg is note_off channel=9 note=76 velocity=100 time=1
the msg is note_on channel=9 note=74 velocity=100 time=4
the msg is note_off channel=9 note=74 velocity=100 time=1
the msg is note_on channel=9 note=72 velocity=100 time=4
the msg is note_off channel=9 note=72 velocity=100 time=1
the msg is note_on channel=9 note=74 velocity=100 time=10
the msg is note_off channel=9 note=74 velocity=100 time=1
the msg is note_on channel=9 note=74 velocity=100 time=10
the msg is note_off channel=9 note=74 velocity=100 time=1
the msg is note_on channel=9 note=74 velocity=100 time=10
the msg is note_off channel=9 note=74 velocity=100 time=1
the msg is note_on channel=9 note=76 velocity=100 time=10
the msg is note_off channel=9 note=76 velocity=100 time=1
the msg is note_on channel=9 note=79 velocity=100 time=10
the msg is note_off channel=9 note=79 velocity=100 time=1
the msg is note_on channel=9 note=79 velocity=100 time=6
the msg is note_off channel=9 note=79 velocity=100 time=1
the msg is note_on channel=9 note=76 velocity=100 time=3
the msg is note_off channel=9 note=76 velocity=100 time=1
the msg is note_on channel=9 note=74 velocity=100 time=6
the msg is note_off channel=9 note=74 velocity=100 time=1
the msg is note_on channel=9 note=72 velocity=100 time=3
the msg is note_off channel=9 note=72 velocity=100 time=1
the msg is note_on channel=9 note=74 velocity=100 time=10
the msg is note_off channel=9 note=74 velocity=100 time=1
the msg is note_on channel=9 note=76 velocity=100 time=10
the msg is note_off channel=9 note=76 velocity=100 time=1
the msg is note_on channel=9 note=72 velocity=100 time=4
the msg is note_off channel=9 note=72 velocity=100 time=1
the msg is note_on channel=9 note=74 velocity=100 time=4
the msg is note_off channel=9 note=74 velocity=100 time=1
the msg is note_on channel=9 note=74 velocity=100 time=10
the msg is note_off channel=9 note=74 velocity=100 time=1
the msg is note_on channel=9 note=74 velocity=100 time=10
the msg is note_off channel=9 note=74 velocity=100 time=1
the msg is note_on channel=9 note=74 velocity=100 time=4
the msg is note_off channel=9 note=74 velocity=100 time=1
the msg is note_on channel=9 note=71 velocity=100 time=4
the msg is note_off channel=9 note=71 velocity=100 time=1
the msg is note_on channel=9 note=74 velocity=100 time=10
the msg is note_off channel=9 note=74 velocity=100 time=1
the msg is note_on channel=9 note=74 velocity=100 time=10
the msg is note_off channel=9 note=74 velocity=100 time=1
the msg is note_on channel=9 note=72 velocity=100 time=3
the msg is note_off channel=9 note=72 velocity=100 time=1
the msg is note_on channel=9 note=74 velocity=100 time=10
the msg is note_off channel=9 note=74 velocity=100 time=1
the msg is note_on channel=9 note=74 velocity=100 time=10
the msg is note_off channel=9 note=74 velocity=100 time=1
the msg is note_on channel=9 note=74 velocity=100 time=4
the msg is note_off channel=9 note=74 velocity=100 time=1
the msg is note_on channel=9 note=71 velocity=100 time=4
the msg is note_off channel=9 note=71 velocity=100 time=1
the msg is note_on channel=9 note=74 velocity=100 time=4
the msg is note_off channel=9 note=74 velocity=100 time=1
the msg is note_on channel=9 note=76 velocity=100 time=10
the msg is note_off channel=9 note=76 velocity=100 time=1
the msg is note_on channel=9 note=79 velocity=100 time=10
the msg is note_off channel=9 note=79 velocity=100 time=1
the msg is note_on channel=9 note=72 velocity=100 time=3
the msg is note_off channel=9 note=72 velocity=100 time=1
the msg is note_on channel=9 note=72 velocity=100 time=6
the msg is note_off channel=9 note=72 velocity=100 time=1
the msg is note_on channel=9 note=72 velocity=100 time=3
the msg is note_off channel=9 note=72 velocity=100 time=1
the msg is note_on channel=9 note=72 velocity=100 time=10
the msg is note_off channel=9 note=72 velocity=100 time=1
the msg is note_on channel=9 note=72 velocity=100 time=4
the msg is note_off channel=9 note=72 velocity=100 time=1
the msg is note_on channel=9 note=72 velocity=100 time=4
the msg is note_off channel=9 note=72 velocity=100 time=1
the msg is <meta message end_of_track time=0>
the msg is <meta message track_name name='outTest85_512_1.0.mid' time=0>
the msg is note_on channel=9 note=69 velocity=100 time=1
the msg is note_off channel=9 note=69 velocity=100 time=1
the msg is note_on channel=9 note=72 velocity=100 time=75
the msg is note_off channel=9 note=72 velocity=100 time=1
the msg is note_on channel=9 note=72 velocity=100 time=4
the msg is note_off channel=9 note=72 velocity=100 time=1
the msg is note_on channel=9 note=72 velocity=100 time=4
the msg is note_off channel=9 note=72 velocity=100 time=1
the msg is note_on channel=9 note=72 velocity=100 time=10
the msg is note_off channel=9 note=72 velocity=100 time=1
the msg is note_on channel=9 note=74 velocity=100 time=10
the msg is note_off channel=9 note=74 velocity=100 time=1
the msg is note_on channel=9 note=74 velocity=100 time=4
the msg is note_off channel=9 note=74 velocity=100 time=1
the msg is note_on channel=9 note=71 velocity=100 time=4
the msg is note_off channel=9 note=71 velocity=100 time=1
the msg is note_on channel=9 note=74 velocity=100 time=10
the msg is note_off channel=9 note=74 velocity=100 time=1
the msg is note_on channel=9 note=74 velocity=100 time=4
the msg is note_off channel=9 note=74 velocity=100 time=1
the msg is note_on channel=9 note=71 velocity=100 time=4
the msg is note_off channel=9 note=71 velocity=100 time=1
the msg is note_on channel=9 note=71 velocity=100 time=4
the msg is note_off channel=9 note=71 velocity=100 time=1
the msg is note_on channel=9 note=69 velocity=100 time=4
the msg is note_off channel=9 note=69 velocity=100 time=1
the msg is note_on channel=9 note=72 velocity=100 time=55
the msg is note_off channel=9 note=72 velocity=100 time=1
the msg is note_on channel=9 note=72 velocity=100 time=10
the msg is note_off channel=9 note=72 velocity=100 time=1
the msg is note_on channel=9 note=72 velocity=100 time=4
the msg is note_off channel=9 note=72 velocity=100 time=1
the msg is note_on channel=9 note=72 velocity=100 time=4
the msg is note_off channel=9 note=72 velocity=100 time=1
the msg is note_on channel=9 note=72 velocity=100 time=4
the msg is note_off channel=9 note=72 velocity=100 time=1
the msg is note_on channel=9 note=76 velocity=100 time=4
the msg is note_off channel=9 note=76 velocity=100 time=1
the msg is note_on channel=9 note=79 velocity=100 time=10
the msg is note_off channel=9 note=79 velocity=100 time=1
the msg is note_on channel=9 note=76 velocity=100 time=10
the msg is note_off channel=9 note=76 velocity=100 time=1
the msg is note_on channel=9 note=79 velocity=100 time=10
the msg is note_off channel=9 note=79 velocity=100 time=1
the msg is note_on channel=9 note=79 velocity=100 time=4
the msg is note_off channel=9 note=79 velocity=100 time=1
the msg is note_on channel=9 note=76 velocity=100 time=4
the msg is note_off channel=9 note=76 velocity=100 time=1
the msg is note_on channel=9 note=74 velocity=100 time=4
the msg is note_off channel=9 note=74 velocity=100 time=1
the msg is note_on channel=9 note=72 velocity=100 time=4
the msg is note_off channel=9 note=72 velocity=100 time=1
the msg is note_on channel=9 note=74 velocity=100 time=10
the msg is note_off channel=9 note=74 velocity=100 time=1
the msg is note_on channel=9 note=74 velocity=100 time=10
the msg is note_off channel=9 note=74 velocity=100 time=1
the msg is note_on channel=9 note=74 velocity=100 time=10
the msg is note_off channel=9 note=74 velocity=100 time=1
the msg is note_on channel=9 note=76 velocity=100 time=10
the msg is note_off channel=9 note=76 velocity=100 time=1
the msg is note_on channel=9 note=79 velocity=100 time=10
the msg is note_off channel=9 note=79 velocity=100 time=1
the msg is note_on channel=9 note=79 velocity=100 time=6
the msg is note_off channel=9 note=79 velocity=100 time=1
the msg is note_on channel=9 note=76 velocity=100 time=3
the msg is note_off channel=9 note=76 velocity=100 time=1
the msg is note_on channel=9 note=74 velocity=100 time=6
the msg is note_off channel=9 note=74 velocity=100 time=1
the msg is note_on channel=9 note=72 velocity=100 time=3
the msg is note_off channel=9 note=72 velocity=100 time=1
the msg is note_on channel=9 note=74 velocity=100 time=10
the msg is note_off channel=9 note=74 velocity=100 time=1
the msg is note_on channel=9 note=76 velocity=100 time=10
the msg is note_off channel=9 note=76 velocity=100 time=1
the msg is note_on channel=9 note=72 velocity=100 time=4
the msg is note_off channel=9 note=72 velocity=100 time=1
the msg is note_on channel=9 note=74 velocity=100 time=4
the msg is note_off channel=9 note=74 velocity=100 time=1
the msg is note_on channel=9 note=74 velocity=100 time=10
the msg is note_off channel=9 note=74 velocity=100 time=1
the msg is note_on channel=9 note=74 velocity=100 time=10
the msg is note_off channel=9 note=74 velocity=100 time=1
the msg is note_on channel=9 note=74 velocity=100 time=4
the msg is note_off channel=9 note=74 velocity=100 time=1
the msg is note_on channel=9 note=71 velocity=100 time=4
the msg is note_off channel=9 note=71 velocity=100 time=1
the msg is note_on channel=9 note=74 velocity=100 time=10
the msg is note_off channel=9 note=74 velocity=100 time=1
the msg is note_on channel=9 note=74 velocity=100 time=10
the msg is note_off channel=9 note=74 velocity=100 time=1
the msg is note_on channel=9 note=72 velocity=100 time=3
the msg is note_off channel=9 note=72 velocity=100 time=1
the msg is note_on channel=9 note=74 velocity=100 time=10
the msg is note_off channel=9 note=74 velocity=100 time=1
the msg is note_on channel=9 note=74 velocity=100 time=10
the msg is note_off channel=9 note=74 velocity=100 time=1
the msg is note_on channel=9 note=74 velocity=100 time=4
the msg is note_off channel=9 note=74 velocity=100 time=1
the msg is note_on channel=9 note=71 velocity=100 time=4
the msg is note_off channel=9 note=71 velocity=100 time=1
the msg is note_on channel=9 note=74 velocity=100 time=4
the msg is note_off channel=9 note=74 velocity=100 time=1
the msg is note_on channel=9 note=76 velocity=100 time=10
the msg is note_off channel=9 note=76 velocity=100 time=1
the msg is note_on channel=9 note=79 velocity=100 time=10
the msg is note_off channel=9 note=79 velocity=100 time=1
the msg is note_on channel=9 note=72 velocity=100 time=3
the msg is note_off channel=9 note=72 velocity=100 time=1
the msg is note_on channel=9 note=72 velocity=100 time=6
the msg is note_off channel=9 note=72 velocity=100 time=1
the msg is note_on channel=9 note=72 velocity=100 time=3
the msg is note_off channel=9 note=72 velocity=100 time=1
the msg is note_on channel=9 note=72 velocity=100 time=10
the msg is note_off channel=9 note=72 velocity=100 time=1
the msg is note_on channel=9 note=72 velocity=100 time=4
the msg is note_off channel=9 note=72 velocity=100 time=1
the msg is note_on channel=9 note=72 velocity=100 time=4
the msg is note_off channel=9 note=72 velocity=100 time=1
the msg is <meta message end_of_track time=0>
the msg is <meta message track_name name='outTest85_512_1.0.mid' time=0>
the msg is note_on channel=9 note=69 velocity=100 time=1
the msg is note_off channel=9 note=69 velocity=100 time=1
the msg is note_on channel=9 note=72 velocity=100 time=75
the msg is note_off channel=9 note=72 velocity=100 time=1
the msg is note_on channel=9 note=72 velocity=100 time=4
the msg is note_off channel=9 note=72 velocity=100 time=1
the msg is note_on channel=9 note=72 velocity=100 time=4
the msg is note_off channel=9 note=72 velocity=100 time=1
the msg is note_on channel=9 note=72 velocity=100 time=10
the msg is note_off channel=9 note=72 velocity=100 time=1
the msg is note_on channel=9 note=74 velocity=100 time=10
the msg is note_off channel=9 note=74 velocity=100 time=1
the msg is note_on channel=9 note=74 velocity=100 time=4
the msg is note_off channel=9 note=74 velocity=100 time=1
the msg is note_on channel=9 note=71 velocity=100 time=4
the msg is note_off channel=9 note=71 velocity=100 time=1
the msg is note_on channel=9 note=74 velocity=100 time=10
the msg is note_off channel=9 note=74 velocity=100 time=1
the msg is note_on channel=9 note=74 velocity=100 time=4
the msg is note_off channel=9 note=74 velocity=100 time=1
the msg is note_on channel=9 note=71 velocity=100 time=4
the msg is note_off channel=9 note=71 velocity=100 time=1
the msg is note_on channel=9 note=71 velocity=100 time=4
the msg is note_off channel=9 note=71 velocity=100 time=1
the msg is note_on channel=9 note=69 velocity=100 time=4
the msg is note_off channel=9 note=69 velocity=100 time=1
the msg is note_on channel=9 note=72 velocity=100 time=55
the msg is note_off channel=9 note=72 velocity=100 time=1
the msg is note_on channel=9 note=72 velocity=100 time=10
the msg is note_off channel=9 note=72 velocity=100 time=1
the msg is note_on channel=9 note=72 velocity=100 time=4
the msg is note_off channel=9 note=72 velocity=100 time=1
the msg is note_on channel=9 note=72 velocity=100 time=4
the msg is note_off channel=9 note=72 velocity=100 time=1
the msg is note_on channel=9 note=72 velocity=100 time=4
the msg is note_off channel=9 note=72 velocity=100 time=1
the msg is note_on channel=9 note=76 velocity=100 time=4
the msg is note_off channel=9 note=76 velocity=100 time=1
the msg is note_on channel=9 note=79 velocity=100 time=10
the msg is note_off channel=9 note=79 velocity=100 time=1
the msg is note_on channel=9 note=76 velocity=100 time=10
the msg is note_off channel=9 note=76 velocity=100 time=1
the msg is note_on channel=9 note=79 velocity=100 time=10
the msg is note_off channel=9 note=79 velocity=100 time=1
the msg is note_on channel=9 note=79 velocity=100 time=4
the msg is note_off channel=9 note=79 velocity=100 time=1
the msg is note_on channel=9 note=76 velocity=100 time=4
the msg is note_off channel=9 note=76 velocity=100 time=1
the msg is note_on channel=9 note=74 velocity=100 time=4
the msg is note_off channel=9 note=74 velocity=100 time=1
the msg is note_on channel=9 note=72 velocity=100 time=4
the msg is note_off channel=9 note=72 velocity=100 time=1
the msg is note_on channel=9 note=74 velocity=100 time=10
the msg is note_off channel=9 note=74 velocity=100 time=1
the msg is note_on channel=9 note=74 velocity=100 time=10
the msg is note_off channel=9 note=74 velocity=100 time=1
the msg is note_on channel=9 note=74 velocity=100 time=10
the msg is note_off channel=9 note=74 velocity=100 time=1
the msg is note_on channel=9 note=76 velocity=100 time=10
the msg is note_off channel=9 note=76 velocity=100 time=1
the msg is note_on channel=9 note=79 velocity=100 time=10
the msg is note_off channel=9 note=79 velocity=100 time=1
the msg is note_on channel=9 note=79 velocity=100 time=6
the msg is note_off channel=9 note=79 velocity=100 time=1
the msg is note_on channel=9 note=76 velocity=100 time=3
the msg is note_off channel=9 note=76 velocity=100 time=1
the msg is note_on channel=9 note=74 velocity=100 time=6
the msg is note_off channel=9 note=74 velocity=100 time=1
the msg is note_on channel=9 note=72 velocity=100 time=3
the msg is note_off channel=9 note=72 velocity=100 time=1
the msg is note_on channel=9 note=74 velocity=100 time=10
the msg is note_off channel=9 note=74 velocity=100 time=1
the msg is note_on channel=9 note=76 velocity=100 time=10
the msg is note_off channel=9 note=76 velocity=100 time=1
the msg is note_on channel=9 note=72 velocity=100 time=4
the msg is note_off channel=9 note=72 velocity=100 time=1
the msg is note_on channel=9 note=74 velocity=100 time=4
the msg is note_off channel=9 note=74 velocity=100 time=1
the msg is note_on channel=9 note=74 velocity=100 time=10
the msg is note_off channel=9 note=74 velocity=100 time=1
the msg is note_on channel=9 note=74 velocity=100 time=10
the msg is note_off channel=9 note=74 velocity=100 time=1
the msg is note_on channel=9 note=74 velocity=100 time=4
the msg is note_off channel=9 note=74 velocity=100 time=1
the msg is note_on channel=9 note=71 velocity=100 time=4
the msg is note_off channel=9 note=71 velocity=100 time=1
the msg is note_on channel=9 note=74 velocity=100 time=10
the msg is note_off channel=9 note=74 velocity=100 time=1
the msg is note_on channel=9 note=74 velocity=100 time=10
the msg is note_off channel=9 note=74 velocity=100 time=1
the msg is note_on channel=9 note=72 velocity=100 time=3
the msg is note_off channel=9 note=72 velocity=100 time=1
the msg is note_on channel=9 note=74 velocity=100 time=10
the msg is note_off channel=9 note=74 velocity=100 time=1
the msg is note_on channel=9 note=74 velocity=100 time=10
the msg is note_off channel=9 note=74 velocity=100 time=1
the msg is note_on channel=9 note=74 velocity=100 time=4
the msg is note_off channel=9 note=74 velocity=100 time=1
the msg is note_on channel=9 note=71 velocity=100 time=4
the msg is note_off channel=9 note=71 velocity=100 time=1
the msg is note_on channel=9 note=74 velocity=100 time=4
the msg is note_off channel=9 note=74 velocity=100 time=1
the msg is note_on channel=9 note=76 velocity=100 time=10
the msg is note_off channel=9 note=76 velocity=100 time=1
the msg is note_on channel=9 note=79 velocity=100 time=10
the msg is note_off channel=9 note=79 velocity=100 time=1
the msg is note_on channel=9 note=72 velocity=100 time=3
the msg is note_off channel=9 note=72 velocity=100 time=1
the msg is note_on channel=9 note=72 velocity=100 time=6
the msg is note_off channel=9 note=72 velocity=100 time=1
the msg is note_on channel=9 note=72 velocity=100 time=3
the msg is note_off channel=9 note=72 velocity=100 time=1
the msg is note_on channel=9 note=72 velocity=100 time=10
the msg is note_off channel=9 note=72 velocity=100 time=1
the msg is note_on channel=9 note=72 velocity=100 time=4
the msg is note_off channel=9 note=72 velocity=100 time=1
the msg is note_on channel=9 note=72 velocity=100 time=4
the msg is note_off channel=9 note=72 velocity=100 time=1
the msg is <meta message end_of_track time=0>
the msg is <meta message track_name name='outTest85_512_1.0.mid' time=0>
the msg is note_on channel=9 note=69 velocity=100 time=1
the msg is note_off channel=9 note=69 velocity=100 time=1
the msg is note_on channel=9 note=72 velocity=100 time=75
the msg is note_off channel=9 note=72 velocity=100 time=1
the msg is note_on channel=9 note=72 velocity=100 time=4
the msg is note_off channel=9 note=72 velocity=100 time=1
the msg is note_on channel=9 note=72 velocity=100 time=4
the msg is note_off channel=9 note=72 velocity=100 time=1
the msg is note_on channel=9 note=72 velocity=100 time=10
the msg is note_off channel=9 note=72 velocity=100 time=1
the msg is note_on channel=9 note=74 velocity=100 time=10
the msg is note_off channel=9 note=74 velocity=100 time=1
the msg is note_on channel=9 note=74 velocity=100 time=4
the msg is note_off channel=9 note=74 velocity=100 time=1
the msg is note_on channel=9 note=71 velocity=100 time=4
the msg is note_off channel=9 note=71 velocity=100 time=1
the msg is note_on channel=9 note=74 velocity=100 time=10
the msg is note_off channel=9 note=74 velocity=100 time=1
the msg is note_on channel=9 note=74 velocity=100 time=4
the msg is note_off channel=9 note=74 velocity=100 time=1
the msg is note_on channel=9 note=71 velocity=100 time=4
the msg is note_off channel=9 note=71 velocity=100 time=1
the msg is note_on channel=9 note=71 velocity=100 time=4
the msg is note_off channel=9 note=71 velocity=100 time=1
the msg is note_on channel=9 note=69 velocity=100 time=4
the msg is note_off channel=9 note=69 velocity=100 time=1
the msg is note_on channel=9 note=72 velocity=100 time=55
the msg is note_off channel=9 note=72 velocity=100 time=1
the msg is note_on channel=9 note=72 velocity=100 time=10
the msg is note_off channel=9 note=72 velocity=100 time=1
the msg is note_on channel=9 note=72 velocity=100 time=4
the msg is note_off channel=9 note=72 velocity=100 time=1
the msg is note_on channel=9 note=72 velocity=100 time=4
the msg is note_off channel=9 note=72 velocity=100 time=1
the msg is note_on channel=9 note=72 velocity=100 time=4
the msg is note_off channel=9 note=72 velocity=100 time=1
the msg is note_on channel=9 note=76 velocity=100 time=4
the msg is note_off channel=9 note=76 velocity=100 time=1
the msg is note_on channel=9 note=79 velocity=100 time=10
the msg is note_off channel=9 note=79 velocity=100 time=1
the msg is note_on channel=9 note=76 velocity=100 time=10
the msg is note_off channel=9 note=76 velocity=100 time=1
the msg is note_on channel=9 note=79 velocity=100 time=10
the msg is note_off channel=9 note=79 velocity=100 time=1
the msg is note_on channel=9 note=79 velocity=100 time=4
the msg is note_off channel=9 note=79 velocity=100 time=1
the msg is note_on channel=9 note=76 velocity=100 time=4
the msg is note_off channel=9 note=76 velocity=100 time=1
the msg is note_on channel=9 note=74 velocity=100 time=4
the msg is note_off channel=9 note=74 velocity=100 time=1
the msg is note_on channel=9 note=72 velocity=100 time=4
the msg is note_off channel=9 note=72 velocity=100 time=1
the msg is note_on channel=9 note=74 velocity=100 time=10
the msg is note_off channel=9 note=74 velocity=100 time=1
the msg is note_on channel=9 note=74 velocity=100 time=10
the msg is note_off channel=9 note=74 velocity=100 time=1
the msg is note_on channel=9 note=74 velocity=100 time=10
the msg is note_off channel=9 note=74 velocity=100 time=1
the msg is note_on channel=9 note=76 velocity=100 time=10
the msg is note_off channel=9 note=76 velocity=100 time=1
the msg is note_on channel=9 note=79 velocity=100 time=10
the msg is note_off channel=9 note=79 velocity=100 time=1
the msg is note_on channel=9 note=79 velocity=100 time=6
the msg is note_off channel=9 note=79 velocity=100 time=1
the msg is note_on channel=9 note=76 velocity=100 time=3
the msg is note_off channel=9 note=76 velocity=100 time=1
the msg is note_on channel=9 note=74 velocity=100 time=6
the msg is note_off channel=9 note=74 velocity=100 time=1
the msg is note_on channel=9 note=72 velocity=100 time=3
the msg is note_off channel=9 note=72 velocity=100 time=1
the msg is note_on channel=9 note=74 velocity=100 time=10
the msg is note_off channel=9 note=74 velocity=100 time=1
the msg is note_on channel=9 note=76 velocity=100 time=10
the msg is note_off channel=9 note=76 velocity=100 time=1
the msg is note_on channel=9 note=72 velocity=100 time=4
the msg is note_off channel=9 note=72 velocity=100 time=1
the msg is note_on channel=9 note=74 velocity=100 time=4
the msg is note_off channel=9 note=74 velocity=100 time=1
the msg is note_on channel=9 note=74 velocity=100 time=10
the msg is note_off channel=9 note=74 velocity=100 time=1
the msg is note_on channel=9 note=74 velocity=100 time=10
the msg is note_off channel=9 note=74 velocity=100 time=1
the msg is note_on channel=9 note=74 velocity=100 time=4
the msg is note_off channel=9 note=74 velocity=100 time=1
the msg is note_on channel=9 note=71 velocity=100 time=4
the msg is note_off channel=9 note=71 velocity=100 time=1
the msg is note_on channel=9 note=74 velocity=100 time=10
the msg is note_off channel=9 note=74 velocity=100 time=1
the msg is note_on channel=9 note=74 velocity=100 time=10
the msg is note_off channel=9 note=74 velocity=100 time=1
the msg is note_on channel=9 note=72 velocity=100 time=3
the msg is note_off channel=9 note=72 velocity=100 time=1
the msg is note_on channel=9 note=74 velocity=100 time=10
the msg is note_off channel=9 note=74 velocity=100 time=1
the msg is note_on channel=9 note=74 velocity=100 time=10
the msg is note_off channel=9 note=74 velocity=100 time=1
the msg is note_on channel=9 note=74 velocity=100 time=4
the msg is note_off channel=9 note=74 velocity=100 time=1
the msg is note_on channel=9 note=71 velocity=100 time=4
the msg is note_off channel=9 note=71 velocity=100 time=1
the msg is note_on channel=9 note=74 velocity=100 time=4
the msg is note_off channel=9 note=74 velocity=100 time=1
the msg is note_on channel=9 note=76 velocity=100 time=10
the msg is note_off channel=9 note=76 velocity=100 time=1
the msg is note_on channel=9 note=79 velocity=100 time=10
the msg is note_off channel=9 note=79 velocity=100 time=1
the msg is note_on channel=9 note=72 velocity=100 time=3
the msg is note_off channel=9 note=72 velocity=100 time=1
the msg is note_on channel=9 note=72 velocity=100 time=6
the msg is note_off channel=9 note=72 velocity=100 time=1
the msg is note_on channel=9 note=72 velocity=100 time=3
the msg is note_off channel=9 note=72 velocity=100 time=1
the msg is note_on channel=9 note=72 velocity=100 time=10
the msg is note_off channel=9 note=72 velocity=100 time=1
the msg is note_on channel=9 note=72 velocity=100 time=4
the msg is note_off channel=9 note=72 velocity=100 time=1
the msg is note_on channel=9 note=72 velocity=100 time=4
the msg is note_off channel=9 note=72 velocity=100 time=1
the msg is <meta message end_of_track time=0>
the msg is <meta message track_name name='outTest85_512_1.0.mid' time=0>
the msg is note_on channel=9 note=69 velocity=100 time=1
the msg is note_off channel=9 note=69 velocity=100 time=1
the msg is note_on channel=9 note=72 velocity=100 time=75
the msg is note_off channel=9 note=72 velocity=100 time=1
the msg is note_on channel=9 note=72 velocity=100 time=4
the msg is note_off channel=9 note=72 velocity=100 time=1
the msg is note_on channel=9 note=72 velocity=100 time=4
the msg is note_off channel=9 note=72 velocity=100 time=1
the msg is note_on channel=9 note=72 velocity=100 time=10
the msg is note_off channel=9 note=72 velocity=100 time=1
the msg is note_on channel=9 note=74 velocity=100 time=10
the msg is note_off channel=9 note=74 velocity=100 time=1
the msg is note_on channel=9 note=74 velocity=100 time=4
the msg is note_off channel=9 note=74 velocity=100 time=1
the msg is note_on channel=9 note=71 velocity=100 time=4
the msg is note_off channel=9 note=71 velocity=100 time=1
the msg is note_on channel=9 note=74 velocity=100 time=10
the msg is note_off channel=9 note=74 velocity=100 time=1
the msg is note_on channel=9 note=74 velocity=100 time=4
the msg is note_off channel=9 note=74 velocity=100 time=1
the msg is note_on channel=9 note=71 velocity=100 time=4
the msg is note_off channel=9 note=71 velocity=100 time=1
the msg is note_on channel=9 note=71 velocity=100 time=4
the msg is note_off channel=9 note=71 velocity=100 time=1
the msg is note_on channel=9 note=69 velocity=100 time=4
the msg is note_off channel=9 note=69 velocity=100 time=1
the msg is note_on channel=9 note=72 velocity=100 time=55
the msg is note_off channel=9 note=72 velocity=100 time=1
the msg is note_on channel=9 note=72 velocity=100 time=10
the msg is note_off channel=9 note=72 velocity=100 time=1
the msg is note_on channel=9 note=72 velocity=100 time=4
the msg is note_off channel=9 note=72 velocity=100 time=1
the msg is note_on channel=9 note=72 velocity=100 time=4
the msg is note_off channel=9 note=72 velocity=100 time=1
the msg is note_on channel=9 note=72 velocity=100 time=4
the msg is note_off channel=9 note=72 velocity=100 time=1
the msg is note_on channel=9 note=76 velocity=100 time=4
the msg is note_off channel=9 note=76 velocity=100 time=1
the msg is note_on channel=9 note=79 velocity=100 time=10
the msg is note_off channel=9 note=79 velocity=100 time=1
the msg is note_on channel=9 note=76 velocity=100 time=10
the msg is note_off channel=9 note=76 velocity=100 time=1
the msg is note_on channel=9 note=79 velocity=100 time=10
the msg is note_off channel=9 note=79 velocity=100 time=1
the msg is note_on channel=9 note=79 velocity=100 time=4
the msg is note_off channel=9 note=79 velocity=100 time=1
the msg is note_on channel=9 note=76 velocity=100 time=4
the msg is note_off channel=9 note=76 velocity=100 time=1
the msg is note_on channel=9 note=74 velocity=100 time=4
the msg is note_off channel=9 note=74 velocity=100 time=1
the msg is note_on channel=9 note=72 velocity=100 time=4
the msg is note_off channel=9 note=72 velocity=100 time=1
the msg is note_on channel=9 note=74 velocity=100 time=10
the msg is note_off channel=9 note=74 velocity=100 time=1
the msg is note_on channel=9 note=74 velocity=100 time=10
the msg is note_off channel=9 note=74 velocity=100 time=1
the msg is note_on channel=9 note=74 velocity=100 time=10
the msg is note_off channel=9 note=74 velocity=100 time=1
the msg is note_on channel=9 note=76 velocity=100 time=10
the msg is note_off channel=9 note=76 velocity=100 time=1
the msg is note_on channel=9 note=79 velocity=100 time=10
the msg is note_off channel=9 note=79 velocity=100 time=1
the msg is note_on channel=9 note=79 velocity=100 time=6
the msg is note_off channel=9 note=79 velocity=100 time=1
the msg is note_on channel=9 note=76 velocity=100 time=3
the msg is note_off channel=9 note=76 velocity=100 time=1
the msg is note_on channel=9 note=74 velocity=100 time=6
the msg is note_off channel=9 note=74 velocity=100 time=1
the msg is note_on channel=9 note=72 velocity=100 time=3
the msg is note_off channel=9 note=72 velocity=100 time=1
the msg is note_on channel=9 note=74 velocity=100 time=10
the msg is note_off channel=9 note=74 velocity=100 time=1
the msg is note_on channel=9 note=76 velocity=100 time=10
the msg is note_off channel=9 note=76 velocity=100 time=1
the msg is note_on channel=9 note=72 velocity=100 time=4
the msg is note_off channel=9 note=72 velocity=100 time=1
the msg is note_on channel=9 note=74 velocity=100 time=4
the msg is note_off channel=9 note=74 velocity=100 time=1
the msg is note_on channel=9 note=74 velocity=100 time=10
the msg is note_off channel=9 note=74 velocity=100 time=1
the msg is note_on channel=9 note=74 velocity=100 time=10
the msg is note_off channel=9 note=74 velocity=100 time=1
the msg is note_on channel=9 note=74 velocity=100 time=4
the msg is note_off channel=9 note=74 velocity=100 time=1
the msg is note_on channel=9 note=71 velocity=100 time=4
the msg is note_off channel=9 note=71 velocity=100 time=1
the msg is note_on channel=9 note=74 velocity=100 time=10
the msg is note_off channel=9 note=74 velocity=100 time=1
the msg is note_on channel=9 note=74 velocity=100 time=10
the msg is note_off channel=9 note=74 velocity=100 time=1
the msg is note_on channel=9 note=72 velocity=100 time=3
the msg is note_off channel=9 note=72 velocity=100 time=1
the msg is note_on channel=9 note=74 velocity=100 time=10
the msg is note_off channel=9 note=74 velocity=100 time=1
the msg is note_on channel=9 note=74 velocity=100 time=10
the msg is note_off channel=9 note=74 velocity=100 time=1
the msg is note_on channel=9 note=74 velocity=100 time=4
the msg is note_off channel=9 note=74 velocity=100 time=1
the msg is note_on channel=9 note=71 velocity=100 time=4
the msg is note_off channel=9 note=71 velocity=100 time=1
the msg is note_on channel=9 note=74 velocity=100 time=4
the msg is note_off channel=9 note=74 velocity=100 time=1
the msg is note_on channel=9 note=76 velocity=100 time=10
the msg is note_off channel=9 note=76 velocity=100 time=1
the msg is note_on channel=9 note=79 velocity=100 time=10
the msg is note_off channel=9 note=79 velocity=100 time=1
the msg is note_on channel=9 note=72 velocity=100 time=3
the msg is note_off channel=9 note=72 velocity=100 time=1
the msg is note_on channel=9 note=72 velocity=100 time=6
the msg is note_off channel=9 note=72 velocity=100 time=1
the msg is note_on channel=9 note=72 velocity=100 time=3
the msg is note_off channel=9 note=72 velocity=100 time=1
the msg is note_on channel=9 note=72 velocity=100 time=10
the msg is note_off channel=9 note=72 velocity=100 time=1
the msg is note_on channel=9 note=72 velocity=100 time=4
the msg is note_off channel=9 note=72 velocity=100 time=1
the msg is note_on channel=9 note=72 velocity=100 time=4
the msg is note_off channel=9 note=72 velocity=100 time=1
the msg is <meta message end_of_track time=0>
the msg is <meta message track_name name='outTest85_512_1.0.mid' time=0>
the msg is note_on channel=9 note=69 velocity=100 time=1
the msg is note_off channel=9 note=69 velocity=100 time=1
the msg is note_on channel=9 note=72 velocity=100 time=75
the msg is note_off channel=9 note=72 velocity=100 time=1
the msg is note_on channel=9 note=72 velocity=100 time=4
the msg is note_off channel=9 note=72 velocity=100 time=1
the msg is note_on channel=9 note=72 velocity=100 time=4
the msg is note_off channel=9 note=72 velocity=100 time=1
the msg is note_on channel=9 note=72 velocity=100 time=10
the msg is note_off channel=9 note=72 velocity=100 time=1
the msg is note_on channel=9 note=74 velocity=100 time=10
the msg is note_off channel=9 note=74 velocity=100 time=1
the msg is note_on channel=9 note=74 velocity=100 time=4
the msg is note_off channel=9 note=74 velocity=100 time=1
the msg is note_on channel=9 note=71 velocity=100 time=4
the msg is note_off channel=9 note=71 velocity=100 time=1
the msg is note_on channel=9 note=74 velocity=100 time=10
the msg is note_off channel=9 note=74 velocity=100 time=1
the msg is note_on channel=9 note=74 velocity=100 time=4
the msg is note_off channel=9 note=74 velocity=100 time=1
the msg is note_on channel=9 note=71 velocity=100 time=4
the msg is note_off channel=9 note=71 velocity=100 time=1
the msg is note_on channel=9 note=71 velocity=100 time=4
the msg is note_off channel=9 note=71 velocity=100 time=1
the msg is note_on channel=9 note=69 velocity=100 time=4
the msg is note_off channel=9 note=69 velocity=100 time=1
the msg is note_on channel=9 note=72 velocity=100 time=55
the msg is note_off channel=9 note=72 velocity=100 time=1
the msg is note_on channel=9 note=72 velocity=100 time=10
the msg is note_off channel=9 note=72 velocity=100 time=1
the msg is note_on channel=9 note=72 velocity=100 time=4
the msg is note_off channel=9 note=72 velocity=100 time=1
the msg is note_on channel=9 note=72 velocity=100 time=4
the msg is note_off channel=9 note=72 velocity=100 time=1
the msg is note_on channel=9 note=72 velocity=100 time=4
the msg is note_off channel=9 note=72 velocity=100 time=1
the msg is note_on channel=9 note=76 velocity=100 time=4
the msg is note_off channel=9 note=76 velocity=100 time=1
the msg is note_on channel=9 note=79 velocity=100 time=10
the msg is note_off channel=9 note=79 velocity=100 time=1
the msg is note_on channel=9 note=76 velocity=100 time=10
the msg is note_off channel=9 note=76 velocity=100 time=1
the msg is note_on channel=9 note=79 velocity=100 time=10
the msg is note_off channel=9 note=79 velocity=100 time=1
the msg is note_on channel=9 note=79 velocity=100 time=4
the msg is note_off channel=9 note=79 velocity=100 time=1
the msg is note_on channel=9 note=76 velocity=100 time=4
the msg is note_off channel=9 note=76 velocity=100 time=1
the msg is note_on channel=9 note=74 velocity=100 time=4
the msg is note_off channel=9 note=74 velocity=100 time=1
the msg is note_on channel=9 note=72 velocity=100 time=4
the msg is note_off channel=9 note=72 velocity=100 time=1
the msg is note_on channel=9 note=74 velocity=100 time=10
the msg is note_off channel=9 note=74 velocity=100 time=1
the msg is note_on channel=9 note=74 velocity=100 time=10
the msg is note_off channel=9 note=74 velocity=100 time=1
the msg is note_on channel=9 note=74 velocity=100 time=10
the msg is note_off channel=9 note=74 velocity=100 time=1
the msg is note_on channel=9 note=76 velocity=100 time=10
the msg is note_off channel=9 note=76 velocity=100 time=1
the msg is note_on channel=9 note=79 velocity=100 time=10
the msg is note_off channel=9 note=79 velocity=100 time=1
the msg is note_on channel=9 note=79 velocity=100 time=6
the msg is note_off channel=9 note=79 velocity=100 time=1
the msg is note_on channel=9 note=76 velocity=100 time=3
the msg is note_off channel=9 note=76 velocity=100 time=1
the msg is note_on channel=9 note=74 velocity=100 time=6
the msg is note_off channel=9 note=74 velocity=100 time=1
the msg is note_on channel=9 note=72 velocity=100 time=3
the msg is note_off channel=9 note=72 velocity=100 time=1
the msg is note_on channel=9 note=74 velocity=100 time=10
the msg is note_off channel=9 note=74 velocity=100 time=1
the msg is note_on channel=9 note=76 velocity=100 time=10
the msg is note_off channel=9 note=76 velocity=100 time=1
the msg is note_on channel=9 note=72 velocity=100 time=4
the msg is note_off channel=9 note=72 velocity=100 time=1
the msg is note_on channel=9 note=74 velocity=100 time=4
the msg is note_off channel=9 note=74 velocity=100 time=1
the msg is note_on channel=9 note=74 velocity=100 time=10
the msg is note_off channel=9 note=74 velocity=100 time=1
the msg is note_on channel=9 note=74 velocity=100 time=10
the msg is note_off channel=9 note=74 velocity=100 time=1
the msg is note_on channel=9 note=74 velocity=100 time=4
the msg is note_off channel=9 note=74 velocity=100 time=1
the msg is note_on channel=9 note=71 velocity=100 time=4
the msg is note_off channel=9 note=71 velocity=100 time=1
the msg is note_on channel=9 note=74 velocity=100 time=10
the msg is note_off channel=9 note=74 velocity=100 time=1
the msg is note_on channel=9 note=74 velocity=100 time=10
the msg is note_off channel=9 note=74 velocity=100 time=1
the msg is note_on channel=9 note=72 velocity=100 time=3
the msg is note_off channel=9 note=72 velocity=100 time=1
the msg is note_on channel=9 note=74 velocity=100 time=10
the msg is note_off channel=9 note=74 velocity=100 time=1
the msg is note_on channel=9 note=74 velocity=100 time=10
the msg is note_off channel=9 note=74 velocity=100 time=1
the msg is note_on channel=9 note=74 velocity=100 time=4
the msg is note_off channel=9 note=74 velocity=100 time=1
the msg is note_on channel=9 note=71 velocity=100 time=4
the msg is note_off channel=9 note=71 velocity=100 time=1
the msg is note_on channel=9 note=74 velocity=100 time=4
the msg is note_off channel=9 note=74 velocity=100 time=1
the msg is note_on channel=9 note=76 velocity=100 time=10
the msg is note_off channel=9 note=76 velocity=100 time=1
the msg is note_on channel=9 note=79 velocity=100 time=10
the msg is note_off channel=9 note=79 velocity=100 time=1
the msg is note_on channel=9 note=72 velocity=100 time=3
the msg is note_off channel=9 note=72 velocity=100 time=1
the msg is note_on channel=9 note=72 velocity=100 time=6
the msg is note_off channel=9 note=72 velocity=100 time=1
the msg is note_on channel=9 note=72 velocity=100 time=3
the msg is note_off channel=9 note=72 velocity=100 time=1
the msg is note_on channel=9 note=72 velocity=100 time=10
the msg is note_off channel=9 note=72 velocity=100 time=1
the msg is note_on channel=9 note=72 velocity=100 time=4
the msg is note_off channel=9 note=72 velocity=100 time=1
the msg is note_on channel=9 note=72 velocity=100 time=4
the msg is note_off channel=9 note=72 velocity=100 time=1
the msg is <meta message end_of_track time=0>
the msg is <meta message track_name name='outTest85_512_1.0.mid' time=0>
the msg is note_on channel=9 note=69 velocity=100 time=1
the msg is note_off channel=9 note=69 velocity=100 time=1
the msg is note_on channel=9 note=72 velocity=100 time=75
the msg is note_off channel=9 note=72 velocity=100 time=1
the msg is note_on channel=9 note=72 velocity=100 time=4
the msg is note_off channel=9 note=72 velocity=100 time=1
the msg is note_on channel=9 note=72 velocity=100 time=4
the msg is note_off channel=9 note=72 velocity=100 time=1
the msg is note_on channel=9 note=72 velocity=100 time=10
the msg is note_off channel=9 note=72 velocity=100 time=1
the msg is note_on channel=9 note=74 velocity=100 time=10
the msg is note_off channel=9 note=74 velocity=100 time=1
the msg is note_on channel=9 note=74 velocity=100 time=4
the msg is note_off channel=9 note=74 velocity=100 time=1
the msg is note_on channel=9 note=71 velocity=100 time=4
the msg is note_off channel=9 note=71 velocity=100 time=1
the msg is note_on channel=9 note=74 velocity=100 time=10
the msg is note_off channel=9 note=74 velocity=100 time=1
the msg is note_on channel=9 note=74 velocity=100 time=4
the msg is note_off channel=9 note=74 velocity=100 time=1
the msg is note_on channel=9 note=71 velocity=100 time=4
the msg is note_off channel=9 note=71 velocity=100 time=1
the msg is note_on channel=9 note=71 velocity=100 time=4
the msg is note_off channel=9 note=71 velocity=100 time=1
the msg is note_on channel=9 note=69 velocity=100 time=4
the msg is note_off channel=9 note=69 velocity=100 time=1
the msg is note_on channel=9 note=72 velocity=100 time=55
the msg is note_off channel=9 note=72 velocity=100 time=1
the msg is note_on channel=9 note=72 velocity=100 time=10
the msg is note_off channel=9 note=72 velocity=100 time=1
the msg is note_on channel=9 note=72 velocity=100 time=4
the msg is note_off channel=9 note=72 velocity=100 time=1
the msg is note_on channel=9 note=72 velocity=100 time=4
the msg is note_off channel=9 note=72 velocity=100 time=1
the msg is note_on channel=9 note=72 velocity=100 time=4
the msg is note_off channel=9 note=72 velocity=100 time=1
the msg is note_on channel=9 note=76 velocity=100 time=4
the msg is note_off channel=9 note=76 velocity=100 time=1
the msg is note_on channel=9 note=79 velocity=100 time=10
the msg is note_off channel=9 note=79 velocity=100 time=1
the msg is note_on channel=9 note=76 velocity=100 time=10
the msg is note_off channel=9 note=76 velocity=100 time=1
the msg is note_on channel=9 note=79 velocity=100 time=10
the msg is note_off channel=9 note=79 velocity=100 time=1
the msg is note_on channel=9 note=79 velocity=100 time=4
the msg is note_off channel=9 note=79 velocity=100 time=1
the msg is note_on channel=9 note=76 velocity=100 time=4
the msg is note_off channel=9 note=76 velocity=100 time=1
the msg is note_on channel=9 note=74 velocity=100 time=4
the msg is note_off channel=9 note=74 velocity=100 time=1
the msg is note_on channel=9 note=72 velocity=100 time=4
the msg is note_off channel=9 note=72 velocity=100 time=1
the msg is note_on channel=9 note=74 velocity=100 time=10
the msg is note_off channel=9 note=74 velocity=100 time=1
the msg is note_on channel=9 note=74 velocity=100 time=10
the msg is note_off channel=9 note=74 velocity=100 time=1
the msg is note_on channel=9 note=74 velocity=100 time=10
the msg is note_off channel=9 note=74 velocity=100 time=1
the msg is note_on channel=9 note=76 velocity=100 time=10
the msg is note_off channel=9 note=76 velocity=100 time=1
the msg is note_on channel=9 note=79 velocity=100 time=10
the msg is note_off channel=9 note=79 velocity=100 time=1
the msg is note_on channel=9 note=79 velocity=100 time=6
the msg is note_off channel=9 note=79 velocity=100 time=1
the msg is note_on channel=9 note=76 velocity=100 time=3
the msg is note_off channel=9 note=76 velocity=100 time=1
the msg is note_on channel=9 note=74 velocity=100 time=6
the msg is note_off channel=9 note=74 velocity=100 time=1
the msg is note_on channel=9 note=72 velocity=100 time=3
the msg is note_off channel=9 note=72 velocity=100 time=1
the msg is note_on channel=9 note=74 velocity=100 time=10
the msg is note_off channel=9 note=74 velocity=100 time=1
the msg is note_on channel=9 note=76 velocity=100 time=10
the msg is note_off channel=9 note=76 velocity=100 time=1
the msg is note_on channel=9 note=72 velocity=100 time=4
the msg is note_off channel=9 note=72 velocity=100 time=1
the msg is note_on channel=9 note=74 velocity=100 time=4
the msg is note_off channel=9 note=74 velocity=100 time=1
the msg is note_on channel=9 note=74 velocity=100 time=10
the msg is note_off channel=9 note=74 velocity=100 time=1
the msg is note_on channel=9 note=74 velocity=100 time=10
the msg is note_off channel=9 note=74 velocity=100 time=1
the msg is note_on channel=9 note=74 velocity=100 time=4
the msg is note_off channel=9 note=74 velocity=100 time=1
the msg is note_on channel=9 note=71 velocity=100 time=4
the msg is note_off channel=9 note=71 velocity=100 time=1
the msg is note_on channel=9 note=74 velocity=100 time=10
the msg is note_off channel=9 note=74 velocity=100 time=1
the msg is note_on channel=9 note=74 velocity=100 time=10
the msg is note_off channel=9 note=74 velocity=100 time=1
the msg is note_on channel=9 note=72 velocity=100 time=3
the msg is note_off channel=9 note=72 velocity=100 time=1
the msg is note_on channel=9 note=74 velocity=100 time=10
the msg is note_off channel=9 note=74 velocity=100 time=1
the msg is note_on channel=9 note=74 velocity=100 time=10
the msg is note_off channel=9 note=74 velocity=100 time=1
the msg is note_on channel=9 note=74 velocity=100 time=4
the msg is note_off channel=9 note=74 velocity=100 time=1
the msg is note_on channel=9 note=71 velocity=100 time=4
the msg is note_off channel=9 note=71 velocity=100 time=1
the msg is note_on channel=9 note=74 velocity=100 time=4
the msg is note_off channel=9 note=74 velocity=100 time=1
the msg is note_on channel=9 note=76 velocity=100 time=10
the msg is note_off channel=9 note=76 velocity=100 time=1
the msg is note_on channel=9 note=79 velocity=100 time=10
the msg is note_off channel=9 note=79 velocity=100 time=1
the msg is note_on channel=9 note=72 velocity=100 time=3
the msg is note_off channel=9 note=72 velocity=100 time=1
the msg is note_on channel=9 note=72 velocity=100 time=6
the msg is note_off channel=9 note=72 velocity=100 time=1
the msg is note_on channel=9 note=72 velocity=100 time=3
the msg is note_off channel=9 note=72 velocity=100 time=1
the msg is note_on channel=9 note=72 velocity=100 time=10
the msg is note_off channel=9 note=72 velocity=100 time=1
the msg is note_on channel=9 note=72 velocity=100 time=4
the msg is note_off channel=9 note=72 velocity=100 time=1
the msg is note_on channel=9 note=72 velocity=100 time=4
the msg is note_off channel=9 note=72 velocity=100 time=1
the msg is <meta message end_of_track time=0>
the msg is <meta message track_name name='outTest85_512_1.0.mid' time=0>
the msg is note_on channel=9 note=69 velocity=100 time=1
the msg is note_off channel=9 note=69 velocity=100 time=1
the msg is note_on channel=9 note=72 velocity=100 time=75
the msg is note_off channel=9 note=72 velocity=100 time=1
the msg is note_on channel=9 note=72 velocity=100 time=4
the msg is note_off channel=9 note=72 velocity=100 time=1
the msg is note_on channel=9 note=72 velocity=100 time=4
the msg is note_off channel=9 note=72 velocity=100 time=1
the msg is note_on channel=9 note=72 velocity=100 time=10
the msg is note_off channel=9 note=72 velocity=100 time=1
the msg is note_on channel=9 note=74 velocity=100 time=10
the msg is note_off channel=9 note=74 velocity=100 time=1
the msg is note_on channel=9 note=74 velocity=100 time=4
the msg is note_off channel=9 note=74 velocity=100 time=1
the msg is note_on channel=9 note=71 velocity=100 time=4
the msg is note_off channel=9 note=71 velocity=100 time=1
the msg is note_on channel=9 note=74 velocity=100 time=10
the msg is note_off channel=9 note=74 velocity=100 time=1
the msg is note_on channel=9 note=74 velocity=100 time=4
the msg is note_off channel=9 note=74 velocity=100 time=1
the msg is note_on channel=9 note=71 velocity=100 time=4
the msg is note_off channel=9 note=71 velocity=100 time=1
the msg is note_on channel=9 note=71 velocity=100 time=4
the msg is note_off channel=9 note=71 velocity=100 time=1
the msg is note_on channel=9 note=69 velocity=100 time=4
the msg is note_off channel=9 note=69 velocity=100 time=1
the msg is note_on channel=9 note=72 velocity=100 time=55
the msg is note_off channel=9 note=72 velocity=100 time=1
the msg is note_on channel=9 note=72 velocity=100 time=10
the msg is note_off channel=9 note=72 velocity=100 time=1
the msg is note_on channel=9 note=72 velocity=100 time=4
the msg is note_off channel=9 note=72 velocity=100 time=1
the msg is note_on channel=9 note=72 velocity=100 time=4
the msg is note_off channel=9 note=72 velocity=100 time=1
the msg is note_on channel=9 note=72 velocity=100 time=4
the msg is note_off channel=9 note=72 velocity=100 time=1
the msg is note_on channel=9 note=76 velocity=100 time=4
the msg is note_off channel=9 note=76 velocity=100 time=1
the msg is note_on channel=9 note=79 velocity=100 time=10
the msg is note_off channel=9 note=79 velocity=100 time=1
the msg is note_on channel=9 note=76 velocity=100 time=10
the msg is note_off channel=9 note=76 velocity=100 time=1
the msg is note_on channel=9 note=79 velocity=100 time=10
the msg is note_off channel=9 note=79 velocity=100 time=1
the msg is note_on channel=9 note=79 velocity=100 time=4
the msg is note_off channel=9 note=79 velocity=100 time=1
the msg is note_on channel=9 note=76 velocity=100 time=4
the msg is note_off channel=9 note=76 velocity=100 time=1
the msg is note_on channel=9 note=74 velocity=100 time=4
the msg is note_off channel=9 note=74 velocity=100 time=1
the msg is note_on channel=9 note=72 velocity=100 time=4
the msg is note_off channel=9 note=72 velocity=100 time=1
the msg is note_on channel=9 note=74 velocity=100 time=10
the msg is note_off channel=9 note=74 velocity=100 time=1
the msg is note_on channel=9 note=74 velocity=100 time=10
the msg is note_off channel=9 note=74 velocity=100 time=1
the msg is note_on channel=9 note=74 velocity=100 time=10
the msg is note_off channel=9 note=74 velocity=100 time=1
the msg is note_on channel=9 note=76 velocity=100 time=10
the msg is note_off channel=9 note=76 velocity=100 time=1
the msg is note_on channel=9 note=79 velocity=100 time=10
the msg is note_off channel=9 note=79 velocity=100 time=1
the msg is note_on channel=9 note=79 velocity=100 time=6
the msg is note_off channel=9 note=79 velocity=100 time=1
the msg is note_on channel=9 note=76 velocity=100 time=3
the msg is note_off channel=9 note=76 velocity=100 time=1
the msg is note_on channel=9 note=74 velocity=100 time=6
the msg is note_off channel=9 note=74 velocity=100 time=1
the msg is note_on channel=9 note=72 velocity=100 time=3
the msg is note_off channel=9 note=72 velocity=100 time=1
the msg is note_on channel=9 note=74 velocity=100 time=10
the msg is note_off channel=9 note=74 velocity=100 time=1
the msg is note_on channel=9 note=76 velocity=100 time=10
the msg is note_off channel=9 note=76 velocity=100 time=1
the msg is note_on channel=9 note=72 velocity=100 time=4
the msg is note_off channel=9 note=72 velocity=100 time=1
the msg is note_on channel=9 note=74 velocity=100 time=4
the msg is note_off channel=9 note=74 velocity=100 time=1
the msg is note_on channel=9 note=74 velocity=100 time=10
the msg is note_off channel=9 note=74 velocity=100 time=1
the msg is note_on channel=9 note=74 velocity=100 time=10
the msg is note_off channel=9 note=74 velocity=100 time=1
the msg is note_on channel=9 note=74 velocity=100 time=4
the msg is note_off channel=9 note=74 velocity=100 time=1
the msg is note_on channel=9 note=71 velocity=100 time=4
the msg is note_off channel=9 note=71 velocity=100 time=1
the msg is note_on channel=9 note=74 velocity=100 time=10
the msg is note_off channel=9 note=74 velocity=100 time=1
the msg is note_on channel=9 note=74 velocity=100 time=10
the msg is note_off channel=9 note=74 velocity=100 time=1
the msg is note_on channel=9 note=72 velocity=100 time=3
the msg is note_off channel=9 note=72 velocity=100 time=1
the msg is note_on channel=9 note=74 velocity=100 time=10
the msg is note_off channel=9 note=74 velocity=100 time=1
the msg is note_on channel=9 note=74 velocity=100 time=10
the msg is note_off channel=9 note=74 velocity=100 time=1
the msg is note_on channel=9 note=74 velocity=100 time=4
the msg is note_off channel=9 note=74 velocity=100 time=1
the msg is note_on channel=9 note=71 velocity=100 time=4
the msg is note_off channel=9 note=71 velocity=100 time=1
the msg is note_on channel=9 note=74 velocity=100 time=4
the msg is note_off channel=9 note=74 velocity=100 time=1
the msg is note_on channel=9 note=76 velocity=100 time=10
the msg is note_off channel=9 note=76 velocity=100 time=1
the msg is note_on channel=9 note=79 velocity=100 time=10
the msg is note_off channel=9 note=79 velocity=100 time=1
the msg is note_on channel=9 note=72 velocity=100 time=3
the msg is note_off channel=9 note=72 velocity=100 time=1
the msg is note_on channel=9 note=72 velocity=100 time=6
the msg is note_off channel=9 note=72 velocity=100 time=1
the msg is note_on channel=9 note=72 velocity=100 time=3
the msg is note_off channel=9 note=72 velocity=100 time=1
the msg is note_on channel=9 note=72 velocity=100 time=10
the msg is note_off channel=9 note=72 velocity=100 time=1
the msg is note_on channel=9 note=72 velocity=100 time=4
the msg is note_off channel=9 note=72 velocity=100 time=1
the msg is note_on channel=9 note=72 velocity=100 time=4
the msg is note_off channel=9 note=72 velocity=100 time=1
the msg is <meta message end_of_track time=0>
the msg is <meta message track_name name='outTest85_512_1.0.mid' time=0>
the msg is note_on channel=9 note=69 velocity=100 time=1
the msg is note_off channel=9 note=69 velocity=100 time=1
the msg is note_on channel=9 note=72 velocity=100 time=75
the msg is note_off channel=9 note=72 velocity=100 time=1
the msg is note_on channel=9 note=72 velocity=100 time=4
the msg is note_off channel=9 note=72 velocity=100 time=1
the msg is note_on channel=9 note=72 velocity=100 time=4
the msg is note_off channel=9 note=72 velocity=100 time=1
the msg is note_on channel=9 note=72 velocity=100 time=10
the msg is note_off channel=9 note=72 velocity=100 time=1
the msg is note_on channel=9 note=74 velocity=100 time=10
the msg is note_off channel=9 note=74 velocity=100 time=1
the msg is note_on channel=9 note=74 velocity=100 time=4
the msg is note_off channel=9 note=74 velocity=100 time=1
the msg is note_on channel=9 note=71 velocity=100 time=4
the msg is note_off channel=9 note=71 velocity=100 time=1
the msg is note_on channel=9 note=74 velocity=100 time=10
the msg is note_off channel=9 note=74 velocity=100 time=1
the msg is note_on channel=9 note=74 velocity=100 time=4
the msg is note_off channel=9 note=74 velocity=100 time=1
the msg is note_on channel=9 note=71 velocity=100 time=4
the msg is note_off channel=9 note=71 velocity=100 time=1
the msg is note_on channel=9 note=71 velocity=100 time=4
the msg is note_off channel=9 note=71 velocity=100 time=1
the msg is note_on channel=9 note=69 velocity=100 time=4
the msg is note_off channel=9 note=69 velocity=100 time=1
the msg is note_on channel=9 note=72 velocity=100 time=55
the msg is note_off channel=9 note=72 velocity=100 time=1
the msg is note_on channel=9 note=72 velocity=100 time=10
the msg is note_off channel=9 note=72 velocity=100 time=1
the msg is note_on channel=9 note=72 velocity=100 time=4
the msg is note_off channel=9 note=72 velocity=100 time=1
the msg is note_on channel=9 note=72 velocity=100 time=4
the msg is note_off channel=9 note=72 velocity=100 time=1
the msg is note_on channel=9 note=72 velocity=100 time=4
the msg is note_off channel=9 note=72 velocity=100 time=1
the msg is note_on channel=9 note=76 velocity=100 time=4
the msg is note_off channel=9 note=76 velocity=100 time=1
the msg is note_on channel=9 note=79 velocity=100 time=10
the msg is note_off channel=9 note=79 velocity=100 time=1
the msg is note_on channel=9 note=76 velocity=100 time=10
the msg is note_off channel=9 note=76 velocity=100 time=1
the msg is note_on channel=9 note=79 velocity=100 time=10
the msg is note_off channel=9 note=79 velocity=100 time=1
the msg is note_on channel=9 note=79 velocity=100 time=4
the msg is note_off channel=9 note=79 velocity=100 time=1
the msg is note_on channel=9 note=76 velocity=100 time=4
the msg is note_off channel=9 note=76 velocity=100 time=1
the msg is note_on channel=9 note=74 velocity=100 time=4
the msg is note_off channel=9 note=74 velocity=100 time=1
the msg is note_on channel=9 note=72 velocity=100 time=4
the msg is note_off channel=9 note=72 velocity=100 time=1
the msg is note_on channel=9 note=74 velocity=100 time=10
the msg is note_off channel=9 note=74 velocity=100 time=1
the msg is note_on channel=9 note=74 velocity=100 time=10
the msg is note_off channel=9 note=74 velocity=100 time=1
the msg is note_on channel=9 note=74 velocity=100 time=10
the msg is note_off channel=9 note=74 velocity=100 time=1
the msg is note_on channel=9 note=76 velocity=100 time=10
the msg is note_off channel=9 note=76 velocity=100 time=1
the msg is note_on channel=9 note=79 velocity=100 time=10
the msg is note_off channel=9 note=79 velocity=100 time=1
the msg is note_on channel=9 note=79 velocity=100 time=6
the msg is note_off channel=9 note=79 velocity=100 time=1
the msg is note_on channel=9 note=76 velocity=100 time=3
the msg is note_off channel=9 note=76 velocity=100 time=1
the msg is note_on channel=9 note=74 velocity=100 time=6
the msg is note_off channel=9 note=74 velocity=100 time=1
the msg is note_on channel=9 note=72 velocity=100 time=3
the msg is note_off channel=9 note=72 velocity=100 time=1
the msg is note_on channel=9 note=74 velocity=100 time=10
the msg is note_off channel=9 note=74 velocity=100 time=1
the msg is note_on channel=9 note=76 velocity=100 time=10
the msg is note_off channel=9 note=76 velocity=100 time=1
the msg is note_on channel=9 note=72 velocity=100 time=4
the msg is note_off channel=9 note=72 velocity=100 time=1
the msg is note_on channel=9 note=74 velocity=100 time=4
the msg is note_off channel=9 note=74 velocity=100 time=1
the msg is note_on channel=9 note=74 velocity=100 time=10
the msg is note_off channel=9 note=74 velocity=100 time=1
the msg is note_on channel=9 note=74 velocity=100 time=10
the msg is note_off channel=9 note=74 velocity=100 time=1
the msg is note_on channel=9 note=74 velocity=100 time=4
the msg is note_off channel=9 note=74 velocity=100 time=1
the msg is note_on channel=9 note=71 velocity=100 time=4
the msg is note_off channel=9 note=71 velocity=100 time=1
the msg is note_on channel=9 note=74 velocity=100 time=10
the msg is note_off channel=9 note=74 velocity=100 time=1
the msg is note_on channel=9 note=74 velocity=100 time=10
the msg is note_off channel=9 note=74 velocity=100 time=1
the msg is note_on channel=9 note=72 velocity=100 time=3
the msg is note_off channel=9 note=72 velocity=100 time=1
the msg is note_on channel=9 note=74 velocity=100 time=10
the msg is note_off channel=9 note=74 velocity=100 time=1
the msg is note_on channel=9 note=74 velocity=100 time=10
the msg is note_off channel=9 note=74 velocity=100 time=1
the msg is note_on channel=9 note=74 velocity=100 time=4
the msg is note_off channel=9 note=74 velocity=100 time=1
the msg is note_on channel=9 note=71 velocity=100 time=4
the msg is note_off channel=9 note=71 velocity=100 time=1
the msg is note_on channel=9 note=74 velocity=100 time=4
the msg is note_off channel=9 note=74 velocity=100 time=1
the msg is note_on channel=9 note=76 velocity=100 time=10
the msg is note_off channel=9 note=76 velocity=100 time=1
the msg is note_on channel=9 note=79 velocity=100 time=10
the msg is note_off channel=9 note=79 velocity=100 time=1
the msg is note_on channel=9 note=72 velocity=100 time=3
the msg is note_off channel=9 note=72 velocity=100 time=1
the msg is note_on channel=9 note=72 velocity=100 time=6
the msg is note_off channel=9 note=72 velocity=100 time=1
the msg is note_on channel=9 note=72 velocity=100 time=3
the msg is note_off channel=9 note=72 velocity=100 time=1
the msg is note_on channel=9 note=72 velocity=100 time=10
the msg is note_off channel=9 note=72 velocity=100 time=1
the msg is note_on channel=9 note=72 velocity=100 time=4
the msg is note_off channel=9 note=72 velocity=100 time=1
the msg is note_on channel=9 note=72 velocity=100 time=4
the msg is note_off channel=9 note=72 velocity=100 time=1
the msg is <meta message end_of_track time=0>
the msg is <meta message track_name name='outTest85_512_1.0.mid' time=0>
the msg is note_on channel=9 note=69 velocity=100 time=1
the msg is note_off channel=9 note=69 velocity=100 time=1
the msg is note_on channel=9 note=72 velocity=100 time=75
the msg is note_off channel=9 note=72 velocity=100 time=1
the msg is note_on channel=9 note=72 velocity=100 time=4
the msg is note_off channel=9 note=72 velocity=100 time=1
the msg is note_on channel=9 note=72 velocity=100 time=4
the msg is note_off channel=9 note=72 velocity=100 time=1
the msg is note_on channel=9 note=72 velocity=100 time=10
the msg is note_off channel=9 note=72 velocity=100 time=1
the msg is note_on channel=9 note=74 velocity=100 time=10
the msg is note_off channel=9 note=74 velocity=100 time=1
the msg is note_on channel=9 note=74 velocity=100 time=4
the msg is note_off channel=9 note=74 velocity=100 time=1
the msg is note_on channel=9 note=71 velocity=100 time=4
the msg is note_off channel=9 note=71 velocity=100 time=1
the msg is note_on channel=9 note=74 velocity=100 time=10
the msg is note_off channel=9 note=74 velocity=100 time=1
the msg is note_on channel=9 note=74 velocity=100 time=4
the msg is note_off channel=9 note=74 velocity=100 time=1
the msg is note_on channel=9 note=71 velocity=100 time=4
the msg is note_off channel=9 note=71 velocity=100 time=1
the msg is note_on channel=9 note=71 velocity=100 time=4
the msg is note_off channel=9 note=71 velocity=100 time=1
the msg is note_on channel=9 note=69 velocity=100 time=4
the msg is note_off channel=9 note=69 velocity=100 time=1
the msg is note_on channel=9 note=72 velocity=100 time=55
the msg is note_off channel=9 note=72 velocity=100 time=1
the msg is note_on channel=9 note=72 velocity=100 time=10
the msg is note_off channel=9 note=72 velocity=100 time=1
the msg is note_on channel=9 note=72 velocity=100 time=4
the msg is note_off channel=9 note=72 velocity=100 time=1
the msg is note_on channel=9 note=72 velocity=100 time=4
the msg is note_off channel=9 note=72 velocity=100 time=1
the msg is note_on channel=9 note=72 velocity=100 time=4
the msg is note_off channel=9 note=72 velocity=100 time=1
the msg is note_on channel=9 note=76 velocity=100 time=4
the msg is note_off channel=9 note=76 velocity=100 time=1
the msg is note_on channel=9 note=79 velocity=100 time=10
the msg is note_off channel=9 note=79 velocity=100 time=1
the msg is note_on channel=9 note=76 velocity=100 time=10
the msg is note_off channel=9 note=76 velocity=100 time=1
the msg is note_on channel=9 note=79 velocity=100 time=10
the msg is note_off channel=9 note=79 velocity=100 time=1
the msg is note_on channel=9 note=79 velocity=100 time=4
the msg is note_off channel=9 note=79 velocity=100 time=1
the msg is note_on channel=9 note=76 velocity=100 time=4
the msg is note_off channel=9 note=76 velocity=100 time=1
the msg is note_on channel=9 note=74 velocity=100 time=4
the msg is note_off channel=9 note=74 velocity=100 time=1
the msg is note_on channel=9 note=72 velocity=100 time=4
the msg is note_off channel=9 note=72 velocity=100 time=1
the msg is note_on channel=9 note=74 velocity=100 time=10
the msg is note_off channel=9 note=74 velocity=100 time=1
the msg is note_on channel=9 note=74 velocity=100 time=10
the msg is note_off channel=9 note=74 velocity=100 time=1
the msg is note_on channel=9 note=74 velocity=100 time=10
the msg is note_off channel=9 note=74 velocity=100 time=1
the msg is note_on channel=9 note=76 velocity=100 time=10
the msg is note_off channel=9 note=76 velocity=100 time=1
the msg is note_on channel=9 note=79 velocity=100 time=10
the msg is note_off channel=9 note=79 velocity=100 time=1
the msg is note_on channel=9 note=79 velocity=100 time=6
the msg is note_off channel=9 note=79 velocity=100 time=1
the msg is note_on channel=9 note=76 velocity=100 time=3
the msg is note_off channel=9 note=76 velocity=100 time=1
the msg is note_on channel=9 note=74 velocity=100 time=6
the msg is note_off channel=9 note=74 velocity=100 time=1
the msg is note_on channel=9 note=72 velocity=100 time=3
the msg is note_off channel=9 note=72 velocity=100 time=1
the msg is note_on channel=9 note=74 velocity=100 time=10
the msg is note_off channel=9 note=74 velocity=100 time=1
the msg is note_on channel=9 note=76 velocity=100 time=10
the msg is note_off channel=9 note=76 velocity=100 time=1
the msg is note_on channel=9 note=72 velocity=100 time=4
the msg is note_off channel=9 note=72 velocity=100 time=1
the msg is note_on channel=9 note=74 velocity=100 time=4
the msg is note_off channel=9 note=74 velocity=100 time=1
the msg is note_on channel=9 note=74 velocity=100 time=10
the msg is note_off channel=9 note=74 velocity=100 time=1
the msg is note_on channel=9 note=74 velocity=100 time=10
the msg is note_off channel=9 note=74 velocity=100 time=1
the msg is note_on channel=9 note=74 velocity=100 time=4
the msg is note_off channel=9 note=74 velocity=100 time=1
the msg is note_on channel=9 note=71 velocity=100 time=4
the msg is note_off channel=9 note=71 velocity=100 time=1
the msg is note_on channel=9 note=74 velocity=100 time=10
the msg is note_off channel=9 note=74 velocity=100 time=1
the msg is note_on channel=9 note=74 velocity=100 time=10
the msg is note_off channel=9 note=74 velocity=100 time=1
the msg is note_on channel=9 note=72 velocity=100 time=3
the msg is note_off channel=9 note=72 velocity=100 time=1
the msg is note_on channel=9 note=74 velocity=100 time=10
the msg is note_off channel=9 note=74 velocity=100 time=1
the msg is note_on channel=9 note=74 velocity=100 time=10
the msg is note_off channel=9 note=74 velocity=100 time=1
the msg is note_on channel=9 note=74 velocity=100 time=4
the msg is note_off channel=9 note=74 velocity=100 time=1
the msg is note_on channel=9 note=71 velocity=100 time=4
the msg is note_off channel=9 note=71 velocity=100 time=1
the msg is note_on channel=9 note=74 velocity=100 time=4
the msg is note_off channel=9 note=74 velocity=100 time=1
the msg is note_on channel=9 note=76 velocity=100 time=10
the msg is note_off channel=9 note=76 velocity=100 time=1
the msg is note_on channel=9 note=79 velocity=100 time=10
the msg is note_off channel=9 note=79 velocity=100 time=1
the msg is note_on channel=9 note=72 velocity=100 time=3
the msg is note_off channel=9 note=72 velocity=100 time=1
the msg is note_on channel=9 note=72 velocity=100 time=6
the msg is note_off channel=9 note=72 velocity=100 time=1
the msg is note_on channel=9 note=72 velocity=100 time=3
the msg is note_off channel=9 note=72 velocity=100 time=1
the msg is note_on channel=9 note=72 velocity=100 time=10
the msg is note_off channel=9 note=72 velocity=100 time=1
the msg is note_on channel=9 note=72 velocity=100 time=4
the msg is note_off channel=9 note=72 velocity=100 time=1
the msg is note_on channel=9 note=72 velocity=100 time=4
the msg is note_off channel=9 note=72 velocity=100 time=1
the msg is <meta message end_of_track time=0>
the msg is <meta message track_name name='outTest85_512_1.0.mid' time=0>
the msg is note_on channel=9 note=69 velocity=100 time=1
the msg is note_off channel=9 note=69 velocity=100 time=1
the msg is note_on channel=9 note=72 velocity=100 time=75
the msg is note_off channel=9 note=72 velocity=100 time=1
the msg is note_on channel=9 note=72 velocity=100 time=4
the msg is note_off channel=9 note=72 velocity=100 time=1
the msg is note_on channel=9 note=72 velocity=100 time=4
the msg is note_off channel=9 note=72 velocity=100 time=1
the msg is note_on channel=9 note=72 velocity=100 time=10
the msg is note_off channel=9 note=72 velocity=100 time=1
the msg is note_on channel=9 note=74 velocity=100 time=10
the msg is note_off channel=9 note=74 velocity=100 time=1
the msg is note_on channel=9 note=74 velocity=100 time=4
the msg is note_off channel=9 note=74 velocity=100 time=1
the msg is note_on channel=9 note=71 velocity=100 time=4
the msg is note_off channel=9 note=71 velocity=100 time=1
the msg is note_on channel=9 note=74 velocity=100 time=10
the msg is note_off channel=9 note=74 velocity=100 time=1
the msg is note_on channel=9 note=74 velocity=100 time=4
the msg is note_off channel=9 note=74 velocity=100 time=1
the msg is note_on channel=9 note=71 velocity=100 time=4
the msg is note_off channel=9 note=71 velocity=100 time=1
the msg is note_on channel=9 note=71 velocity=100 time=4
the msg is note_off channel=9 note=71 velocity=100 time=1
the msg is note_on channel=9 note=69 velocity=100 time=4
the msg is note_off channel=9 note=69 velocity=100 time=1
the msg is note_on channel=9 note=72 velocity=100 time=55
the msg is note_off channel=9 note=72 velocity=100 time=1
the msg is note_on channel=9 note=72 velocity=100 time=10
the msg is note_off channel=9 note=72 velocity=100 time=1
the msg is note_on channel=9 note=72 velocity=100 time=4
the msg is note_off channel=9 note=72 velocity=100 time=1
the msg is note_on channel=9 note=72 velocity=100 time=4
the msg is note_off channel=9 note=72 velocity=100 time=1
the msg is note_on channel=9 note=72 velocity=100 time=4
the msg is note_off channel=9 note=72 velocity=100 time=1
the msg is note_on channel=9 note=76 velocity=100 time=4
the msg is note_off channel=9 note=76 velocity=100 time=1
the msg is note_on channel=9 note=79 velocity=100 time=10
the msg is note_off channel=9 note=79 velocity=100 time=1
the msg is note_on channel=9 note=76 velocity=100 time=10
the msg is note_off channel=9 note=76 velocity=100 time=1
the msg is note_on channel=9 note=79 velocity=100 time=10
the msg is note_off channel=9 note=79 velocity=100 time=1
the msg is note_on channel=9 note=79 velocity=100 time=4
the msg is note_off channel=9 note=79 velocity=100 time=1
the msg is note_on channel=9 note=76 velocity=100 time=4
the msg is note_off channel=9 note=76 velocity=100 time=1
the msg is note_on channel=9 note=74 velocity=100 time=4
the msg is note_off channel=9 note=74 velocity=100 time=1
the msg is note_on channel=9 note=72 velocity=100 time=4
the msg is note_off channel=9 note=72 velocity=100 time=1
the msg is note_on channel=9 note=74 velocity=100 time=10
the msg is note_off channel=9 note=74 velocity=100 time=1
the msg is note_on channel=9 note=74 velocity=100 time=10
the msg is note_off channel=9 note=74 velocity=100 time=1
the msg is note_on channel=9 note=74 velocity=100 time=10
the msg is note_off channel=9 note=74 velocity=100 time=1
the msg is note_on channel=9 note=76 velocity=100 time=10
the msg is note_off channel=9 note=76 velocity=100 time=1
the msg is note_on channel=9 note=79 velocity=100 time=10
the msg is note_off channel=9 note=79 velocity=100 time=1
the msg is note_on channel=9 note=79 velocity=100 time=6
the msg is note_off channel=9 note=79 velocity=100 time=1
the msg is note_on channel=9 note=76 velocity=100 time=3
the msg is note_off channel=9 note=76 velocity=100 time=1
the msg is note_on channel=9 note=74 velocity=100 time=6
the msg is note_off channel=9 note=74 velocity=100 time=1
the msg is note_on channel=9 note=72 velocity=100 time=3
the msg is note_off channel=9 note=72 velocity=100 time=1
the msg is note_on channel=9 note=74 velocity=100 time=10
the msg is note_off channel=9 note=74 velocity=100 time=1
the msg is note_on channel=9 note=76 velocity=100 time=10
the msg is note_off channel=9 note=76 velocity=100 time=1
the msg is note_on channel=9 note=72 velocity=100 time=4
the msg is note_off channel=9 note=72 velocity=100 time=1
the msg is note_on channel=9 note=74 velocity=100 time=4
the msg is note_off channel=9 note=74 velocity=100 time=1
the msg is note_on channel=9 note=74 velocity=100 time=10
the msg is note_off channel=9 note=74 velocity=100 time=1
the msg is note_on channel=9 note=74 velocity=100 time=10
the msg is note_off channel=9 note=74 velocity=100 time=1
the msg is note_on channel=9 note=74 velocity=100 time=4
the msg is note_off channel=9 note=74 velocity=100 time=1
the msg is note_on channel=9 note=71 velocity=100 time=4
the msg is note_off channel=9 note=71 velocity=100 time=1
the msg is note_on channel=9 note=74 velocity=100 time=10
the msg is note_off channel=9 note=74 velocity=100 time=1
the msg is note_on channel=9 note=74 velocity=100 time=10
the msg is note_off channel=9 note=74 velocity=100 time=1
the msg is note_on channel=9 note=72 velocity=100 time=3
the msg is note_off channel=9 note=72 velocity=100 time=1
the msg is note_on channel=9 note=74 velocity=100 time=10
the msg is note_off channel=9 note=74 velocity=100 time=1
the msg is note_on channel=9 note=74 velocity=100 time=10
the msg is note_off channel=9 note=74 velocity=100 time=1
the msg is note_on channel=9 note=74 velocity=100 time=4
the msg is note_off channel=9 note=74 velocity=100 time=1
the msg is note_on channel=9 note=71 velocity=100 time=4
the msg is note_off channel=9 note=71 velocity=100 time=1
the msg is note_on channel=9 note=74 velocity=100 time=4
the msg is note_off channel=9 note=74 velocity=100 time=1
the msg is note_on channel=9 note=76 velocity=100 time=10
the msg is note_off channel=9 note=76 velocity=100 time=1
the msg is note_on channel=9 note=79 velocity=100 time=10
the msg is note_off channel=9 note=79 velocity=100 time=1
the msg is note_on channel=9 note=72 velocity=100 time=3
the msg is note_off channel=9 note=72 velocity=100 time=1
the msg is note_on channel=9 note=72 velocity=100 time=6
the msg is note_off channel=9 note=72 velocity=100 time=1
the msg is note_on channel=9 note=72 velocity=100 time=3
the msg is note_off channel=9 note=72 velocity=100 time=1
the msg is note_on channel=9 note=72 velocity=100 time=10
the msg is note_off channel=9 note=72 velocity=100 time=1
the msg is note_on channel=9 note=72 velocity=100 time=4
the msg is note_off channel=9 note=72 velocity=100 time=1
the msg is note_on channel=9 note=72 velocity=100 time=4
the msg is note_off channel=9 note=72 velocity=100 time=1
the msg is <meta message end_of_track time=0>
the msg is <meta message track_name name='outTest85_512_1.0.mid' time=0>
the msg is note_on channel=9 note=69 velocity=100 time=1
the msg is note_off channel=9 note=69 velocity=100 time=1
the msg is note_on channel=9 note=72 velocity=100 time=75
the msg is note_off channel=9 note=72 velocity=100 time=1
the msg is note_on channel=9 note=72 velocity=100 time=4
the msg is note_off channel=9 note=72 velocity=100 time=1
the msg is note_on channel=9 note=72 velocity=100 time=4
the msg is note_off channel=9 note=72 velocity=100 time=1
the msg is note_on channel=9 note=72 velocity=100 time=10
the msg is note_off channel=9 note=72 velocity=100 time=1
the msg is note_on channel=9 note=74 velocity=100 time=10
the msg is note_off channel=9 note=74 velocity=100 time=1
the msg is note_on channel=9 note=74 velocity=100 time=4
the msg is note_off channel=9 note=74 velocity=100 time=1
the msg is note_on channel=9 note=71 velocity=100 time=4
the msg is note_off channel=9 note=71 velocity=100 time=1
the msg is note_on channel=9 note=74 velocity=100 time=10
the msg is note_off channel=9 note=74 velocity=100 time=1
the msg is note_on channel=9 note=74 velocity=100 time=4
the msg is note_off channel=9 note=74 velocity=100 time=1
the msg is note_on channel=9 note=71 velocity=100 time=4
the msg is note_off channel=9 note=71 velocity=100 time=1
the msg is note_on channel=9 note=71 velocity=100 time=4
the msg is note_off channel=9 note=71 velocity=100 time=1
the msg is note_on channel=9 note=69 velocity=100 time=4
the msg is note_off channel=9 note=69 velocity=100 time=1
the msg is note_on channel=9 note=72 velocity=100 time=55
the msg is note_off channel=9 note=72 velocity=100 time=1
the msg is note_on channel=9 note=72 velocity=100 time=10
the msg is note_off channel=9 note=72 velocity=100 time=1
the msg is note_on channel=9 note=72 velocity=100 time=4
the msg is note_off channel=9 note=72 velocity=100 time=1
the msg is note_on channel=9 note=72 velocity=100 time=4
the msg is note_off channel=9 note=72 velocity=100 time=1
the msg is note_on channel=9 note=72 velocity=100 time=4
the msg is note_off channel=9 note=72 velocity=100 time=1
the msg is note_on channel=9 note=76 velocity=100 time=4
the msg is note_off channel=9 note=76 velocity=100 time=1
the msg is note_on channel=9 note=79 velocity=100 time=10
the msg is note_off channel=9 note=79 velocity=100 time=1
the msg is note_on channel=9 note=76 velocity=100 time=10
the msg is note_off channel=9 note=76 velocity=100 time=1
the msg is note_on channel=9 note=79 velocity=100 time=10
the msg is note_off channel=9 note=79 velocity=100 time=1
the msg is note_on channel=9 note=79 velocity=100 time=4
the msg is note_off channel=9 note=79 velocity=100 time=1
the msg is note_on channel=9 note=76 velocity=100 time=4
the msg is note_off channel=9 note=76 velocity=100 time=1
the msg is note_on channel=9 note=74 velocity=100 time=4
the msg is note_off channel=9 note=74 velocity=100 time=1
the msg is note_on channel=9 note=72 velocity=100 time=4
the msg is note_off channel=9 note=72 velocity=100 time=1
the msg is note_on channel=9 note=74 velocity=100 time=10
the msg is note_off channel=9 note=74 velocity=100 time=1
the msg is note_on channel=9 note=74 velocity=100 time=10
the msg is note_off channel=9 note=74 velocity=100 time=1
the msg is note_on channel=9 note=74 velocity=100 time=10
the msg is note_off channel=9 note=74 velocity=100 time=1
the msg is note_on channel=9 note=76 velocity=100 time=10
the msg is note_off channel=9 note=76 velocity=100 time=1
the msg is note_on channel=9 note=79 velocity=100 time=10
the msg is note_off channel=9 note=79 velocity=100 time=1
the msg is note_on channel=9 note=79 velocity=100 time=6
the msg is note_off channel=9 note=79 velocity=100 time=1
the msg is note_on channel=9 note=76 velocity=100 time=3
the msg is note_off channel=9 note=76 velocity=100 time=1
the msg is note_on channel=9 note=74 velocity=100 time=6
the msg is note_off channel=9 note=74 velocity=100 time=1
the msg is note_on channel=9 note=72 velocity=100 time=3
the msg is note_off channel=9 note=72 velocity=100 time=1
the msg is note_on channel=9 note=74 velocity=100 time=10
the msg is note_off channel=9 note=74 velocity=100 time=1
the msg is note_on channel=9 note=76 velocity=100 time=10
the msg is note_off channel=9 note=76 velocity=100 time=1
the msg is note_on channel=9 note=72 velocity=100 time=4
the msg is note_off channel=9 note=72 velocity=100 time=1
the msg is note_on channel=9 note=74 velocity=100 time=4
the msg is note_off channel=9 note=74 velocity=100 time=1
the msg is note_on channel=9 note=74 velocity=100 time=10
the msg is note_off channel=9 note=74 velocity=100 time=1
the msg is note_on channel=9 note=74 velocity=100 time=10
the msg is note_off channel=9 note=74 velocity=100 time=1
the msg is note_on channel=9 note=74 velocity=100 time=4
the msg is note_off channel=9 note=74 velocity=100 time=1
the msg is note_on channel=9 note=71 velocity=100 time=4
the msg is note_off channel=9 note=71 velocity=100 time=1
the msg is note_on channel=9 note=74 velocity=100 time=10
the msg is note_off channel=9 note=74 velocity=100 time=1
the msg is note_on channel=9 note=74 velocity=100 time=10
the msg is note_off channel=9 note=74 velocity=100 time=1
the msg is note_on channel=9 note=72 velocity=100 time=3
the msg is note_off channel=9 note=72 velocity=100 time=1
the msg is note_on channel=9 note=74 velocity=100 time=10
the msg is note_off channel=9 note=74 velocity=100 time=1
the msg is note_on channel=9 note=74 velocity=100 time=10
the msg is note_off channel=9 note=74 velocity=100 time=1
the msg is note_on channel=9 note=74 velocity=100 time=4
the msg is note_off channel=9 note=74 velocity=100 time=1
the msg is note_on channel=9 note=71 velocity=100 time=4
the msg is note_off channel=9 note=71 velocity=100 time=1
the msg is note_on channel=9 note=74 velocity=100 time=4
the msg is note_off channel=9 note=74 velocity=100 time=1
the msg is note_on channel=9 note=76 velocity=100 time=10
the msg is note_off channel=9 note=76 velocity=100 time=1
the msg is note_on channel=9 note=79 velocity=100 time=10
the msg is note_off channel=9 note=79 velocity=100 time=1
the msg is note_on channel=9 note=72 velocity=100 time=3
the msg is note_off channel=9 note=72 velocity=100 time=1
the msg is note_on channel=9 note=72 velocity=100 time=6
the msg is note_off channel=9 note=72 velocity=100 time=1
the msg is note_on channel=9 note=72 velocity=100 time=3
the msg is note_off channel=9 note=72 velocity=100 time=1
the msg is note_on channel=9 note=72 velocity=100 time=10
the msg is note_off channel=9 note=72 velocity=100 time=1
the msg is note_on channel=9 note=72 velocity=100 time=4
the msg is note_off channel=9 note=72 velocity=100 time=1
the msg is note_on channel=9 note=72 velocity=100 time=4
the msg is note_off channel=9 note=72 velocity=100 time=1
the msg is <meta message end_of_track time=0>
the msg is <meta message track_name name='outTest85_512_1.0.mid' time=0>
the msg is note_on channel=9 note=69 velocity=100 time=1
the msg is note_off channel=9 note=69 velocity=100 time=1
the msg is note_on channel=9 note=72 velocity=100 time=75
the msg is note_off channel=9 note=72 velocity=100 time=1
the msg is note_on channel=9 note=72 velocity=100 time=4
the msg is note_off channel=9 note=72 velocity=100 time=1
the msg is note_on channel=9 note=72 velocity=100 time=4
the msg is note_off channel=9 note=72 velocity=100 time=1
the msg is note_on channel=9 note=72 velocity=100 time=10
the msg is note_off channel=9 note=72 velocity=100 time=1
the msg is note_on channel=9 note=74 velocity=100 time=10
the msg is note_off channel=9 note=74 velocity=100 time=1
the msg is note_on channel=9 note=74 velocity=100 time=4
the msg is note_off channel=9 note=74 velocity=100 time=1
the msg is note_on channel=9 note=71 velocity=100 time=4
the msg is note_off channel=9 note=71 velocity=100 time=1
the msg is note_on channel=9 note=74 velocity=100 time=10
the msg is note_off channel=9 note=74 velocity=100 time=1
the msg is note_on channel=9 note=74 velocity=100 time=4
the msg is note_off channel=9 note=74 velocity=100 time=1
the msg is note_on channel=9 note=71 velocity=100 time=4
the msg is note_off channel=9 note=71 velocity=100 time=1
the msg is note_on channel=9 note=71 velocity=100 time=4
the msg is note_off channel=9 note=71 velocity=100 time=1
the msg is note_on channel=9 note=69 velocity=100 time=4
the msg is note_off channel=9 note=69 velocity=100 time=1
the msg is note_on channel=9 note=72 velocity=100 time=55
the msg is note_off channel=9 note=72 velocity=100 time=1
the msg is note_on channel=9 note=72 velocity=100 time=10
the msg is note_off channel=9 note=72 velocity=100 time=1
the msg is note_on channel=9 note=72 velocity=100 time=4
the msg is note_off channel=9 note=72 velocity=100 time=1
the msg is note_on channel=9 note=72 velocity=100 time=4
the msg is note_off channel=9 note=72 velocity=100 time=1
the msg is note_on channel=9 note=72 velocity=100 time=4
the msg is note_off channel=9 note=72 velocity=100 time=1
the msg is note_on channel=9 note=76 velocity=100 time=4
the msg is note_off channel=9 note=76 velocity=100 time=1
the msg is note_on channel=9 note=79 velocity=100 time=10
the msg is note_off channel=9 note=79 velocity=100 time=1
the msg is note_on channel=9 note=76 velocity=100 time=10
the msg is note_off channel=9 note=76 velocity=100 time=1
the msg is note_on channel=9 note=79 velocity=100 time=10
the msg is note_off channel=9 note=79 velocity=100 time=1
the msg is note_on channel=9 note=79 velocity=100 time=4
the msg is note_off channel=9 note=79 velocity=100 time=1
the msg is note_on channel=9 note=76 velocity=100 time=4
the msg is note_off channel=9 note=76 velocity=100 time=1
the msg is note_on channel=9 note=74 velocity=100 time=4
the msg is note_off channel=9 note=74 velocity=100 time=1
the msg is note_on channel=9 note=72 velocity=100 time=4
the msg is note_off channel=9 note=72 velocity=100 time=1
the msg is note_on channel=9 note=74 velocity=100 time=10
the msg is note_off channel=9 note=74 velocity=100 time=1
the msg is note_on channel=9 note=74 velocity=100 time=10
the msg is note_off channel=9 note=74 velocity=100 time=1
the msg is note_on channel=9 note=74 velocity=100 time=10
the msg is note_off channel=9 note=74 velocity=100 time=1
the msg is note_on channel=9 note=76 velocity=100 time=10
the msg is note_off channel=9 note=76 velocity=100 time=1
the msg is note_on channel=9 note=79 velocity=100 time=10
the msg is note_off channel=9 note=79 velocity=100 time=1
the msg is note_on channel=9 note=79 velocity=100 time=6
the msg is note_off channel=9 note=79 velocity=100 time=1
the msg is note_on channel=9 note=76 velocity=100 time=3
the msg is note_off channel=9 note=76 velocity=100 time=1
the msg is note_on channel=9 note=74 velocity=100 time=6
the msg is note_off channel=9 note=74 velocity=100 time=1
the msg is note_on channel=9 note=72 velocity=100 time=3
the msg is note_off channel=9 note=72 velocity=100 time=1
the msg is note_on channel=9 note=74 velocity=100 time=10
the msg is note_off channel=9 note=74 velocity=100 time=1
the msg is note_on channel=9 note=76 velocity=100 time=10
the msg is note_off channel=9 note=76 velocity=100 time=1
the msg is note_on channel=9 note=72 velocity=100 time=4
the msg is note_off channel=9 note=72 velocity=100 time=1
the msg is note_on channel=9 note=74 velocity=100 time=4
the msg is note_off channel=9 note=74 velocity=100 time=1
the msg is note_on channel=9 note=74 velocity=100 time=10
the msg is note_off channel=9 note=74 velocity=100 time=1
the msg is note_on channel=9 note=74 velocity=100 time=10
the msg is note_off channel=9 note=74 velocity=100 time=1
the msg is note_on channel=9 note=74 velocity=100 time=4
the msg is note_off channel=9 note=74 velocity=100 time=1
the msg is note_on channel=9 note=71 velocity=100 time=4
the msg is note_off channel=9 note=71 velocity=100 time=1
the msg is note_on channel=9 note=74 velocity=100 time=10
the msg is note_off channel=9 note=74 velocity=100 time=1
the msg is note_on channel=9 note=74 velocity=100 time=10
the msg is note_off channel=9 note=74 velocity=100 time=1
the msg is note_on channel=9 note=72 velocity=100 time=3
the msg is note_off channel=9 note=72 velocity=100 time=1
the msg is note_on channel=9 note=74 velocity=100 time=10
the msg is note_off channel=9 note=74 velocity=100 time=1
the msg is note_on channel=9 note=74 velocity=100 time=10
the msg is note_off channel=9 note=74 velocity=100 time=1
the msg is note_on channel=9 note=74 velocity=100 time=4
the msg is note_off channel=9 note=74 velocity=100 time=1
the msg is note_on channel=9 note=71 velocity=100 time=4
the msg is note_off channel=9 note=71 velocity=100 time=1
the msg is note_on channel=9 note=74 velocity=100 time=4
the msg is note_off channel=9 note=74 velocity=100 time=1
the msg is note_on channel=9 note=76 velocity=100 time=10
the msg is note_off channel=9 note=76 velocity=100 time=1
the msg is note_on channel=9 note=79 velocity=100 time=10
the msg is note_off channel=9 note=79 velocity=100 time=1
the msg is note_on channel=9 note=72 velocity=100 time=3
the msg is note_off channel=9 note=72 velocity=100 time=1
the msg is note_on channel=9 note=72 velocity=100 time=6
the msg is note_off channel=9 note=72 velocity=100 time=1
the msg is note_on channel=9 note=72 velocity=100 time=3
the msg is note_off channel=9 note=72 velocity=100 time=1
the msg is note_on channel=9 note=72 velocity=100 time=10
the msg is note_off channel=9 note=72 velocity=100 time=1
the msg is note_on channel=9 note=72 velocity=100 time=4
the msg is note_off channel=9 note=72 velocity=100 time=1
the msg is note_on channel=9 note=72 velocity=100 time=4
the msg is note_off channel=9 note=72 velocity=100 time=1
the msg is <meta message end_of_track time=0>
the msg is <meta message track_name name='outTest85_512_1.0.mid' time=0>
the msg is note_on channel=9 note=69 velocity=100 time=1
the msg is note_off channel=9 note=69 velocity=100 time=1
the msg is note_on channel=9 note=72 velocity=100 time=75
the msg is note_off channel=9 note=72 velocity=100 time=1
the msg is note_on channel=9 note=72 velocity=100 time=4
the msg is note_off channel=9 note=72 velocity=100 time=1
the msg is note_on channel=9 note=72 velocity=100 time=4
the msg is note_off channel=9 note=72 velocity=100 time=1
the msg is note_on channel=9 note=72 velocity=100 time=10
the msg is note_off channel=9 note=72 velocity=100 time=1
the msg is note_on channel=9 note=74 velocity=100 time=10
the msg is note_off channel=9 note=74 velocity=100 time=1
the msg is note_on channel=9 note=74 velocity=100 time=4
the msg is note_off channel=9 note=74 velocity=100 time=1
the msg is note_on channel=9 note=71 velocity=100 time=4
the msg is note_off channel=9 note=71 velocity=100 time=1
the msg is note_on channel=9 note=74 velocity=100 time=10
the msg is note_off channel=9 note=74 velocity=100 time=1
the msg is note_on channel=9 note=74 velocity=100 time=4
the msg is note_off channel=9 note=74 velocity=100 time=1
the msg is note_on channel=9 note=71 velocity=100 time=4
the msg is note_off channel=9 note=71 velocity=100 time=1
the msg is note_on channel=9 note=71 velocity=100 time=4
the msg is note_off channel=9 note=71 velocity=100 time=1
the msg is note_on channel=9 note=69 velocity=100 time=4
the msg is note_off channel=9 note=69 velocity=100 time=1
the msg is note_on channel=9 note=72 velocity=100 time=55
the msg is note_off channel=9 note=72 velocity=100 time=1
the msg is note_on channel=9 note=72 velocity=100 time=10
the msg is note_off channel=9 note=72 velocity=100 time=1
the msg is note_on channel=9 note=72 velocity=100 time=4
the msg is note_off channel=9 note=72 velocity=100 time=1
the msg is note_on channel=9 note=72 velocity=100 time=4
the msg is note_off channel=9 note=72 velocity=100 time=1
the msg is note_on channel=9 note=72 velocity=100 time=4
the msg is note_off channel=9 note=72 velocity=100 time=1
the msg is note_on channel=9 note=76 velocity=100 time=4
the msg is note_off channel=9 note=76 velocity=100 time=1
the msg is note_on channel=9 note=79 velocity=100 time=10
the msg is note_off channel=9 note=79 velocity=100 time=1
the msg is note_on channel=9 note=76 velocity=100 time=10
the msg is note_off channel=9 note=76 velocity=100 time=1
the msg is note_on channel=9 note=79 velocity=100 time=10
the msg is note_off channel=9 note=79 velocity=100 time=1
the msg is note_on channel=9 note=79 velocity=100 time=4
the msg is note_off channel=9 note=79 velocity=100 time=1
the msg is note_on channel=9 note=76 velocity=100 time=4
the msg is note_off channel=9 note=76 velocity=100 time=1
the msg is note_on channel=9 note=74 velocity=100 time=4
the msg is note_off channel=9 note=74 velocity=100 time=1
the msg is note_on channel=9 note=72 velocity=100 time=4
the msg is note_off channel=9 note=72 velocity=100 time=1
the msg is note_on channel=9 note=74 velocity=100 time=10
the msg is note_off channel=9 note=74 velocity=100 time=1
the msg is note_on channel=9 note=74 velocity=100 time=10
the msg is note_off channel=9 note=74 velocity=100 time=1
the msg is note_on channel=9 note=74 velocity=100 time=10
the msg is note_off channel=9 note=74 velocity=100 time=1
the msg is note_on channel=9 note=76 velocity=100 time=10
the msg is note_off channel=9 note=76 velocity=100 time=1
the msg is note_on channel=9 note=79 velocity=100 time=10
the msg is note_off channel=9 note=79 velocity=100 time=1
the msg is note_on channel=9 note=79 velocity=100 time=6
the msg is note_off channel=9 note=79 velocity=100 time=1
the msg is note_on channel=9 note=76 velocity=100 time=3
the msg is note_off channel=9 note=76 velocity=100 time=1
the msg is note_on channel=9 note=74 velocity=100 time=6
the msg is note_off channel=9 note=74 velocity=100 time=1
the msg is note_on channel=9 note=72 velocity=100 time=3
the msg is note_off channel=9 note=72 velocity=100 time=1
the msg is note_on channel=9 note=74 velocity=100 time=10
the msg is note_off channel=9 note=74 velocity=100 time=1
the msg is note_on channel=9 note=76 velocity=100 time=10
the msg is note_off channel=9 note=76 velocity=100 time=1
the msg is note_on channel=9 note=72 velocity=100 time=4
the msg is note_off channel=9 note=72 velocity=100 time=1
the msg is note_on channel=9 note=74 velocity=100 time=4
the msg is note_off channel=9 note=74 velocity=100 time=1
the msg is note_on channel=9 note=74 velocity=100 time=10
the msg is note_off channel=9 note=74 velocity=100 time=1
the msg is note_on channel=9 note=74 velocity=100 time=10
the msg is note_off channel=9 note=74 velocity=100 time=1
the msg is note_on channel=9 note=74 velocity=100 time=4
the msg is note_off channel=9 note=74 velocity=100 time=1
the msg is note_on channel=9 note=71 velocity=100 time=4
the msg is note_off channel=9 note=71 velocity=100 time=1
the msg is note_on channel=9 note=74 velocity=100 time=10
the msg is note_off channel=9 note=74 velocity=100 time=1
the msg is note_on channel=9 note=74 velocity=100 time=10
the msg is note_off channel=9 note=74 velocity=100 time=1
the msg is note_on channel=9 note=72 velocity=100 time=3
the msg is note_off channel=9 note=72 velocity=100 time=1
the msg is note_on channel=9 note=74 velocity=100 time=10
the msg is note_off channel=9 note=74 velocity=100 time=1
the msg is note_on channel=9 note=74 velocity=100 time=10
the msg is note_off channel=9 note=74 velocity=100 time=1
the msg is note_on channel=9 note=74 velocity=100 time=4
the msg is note_off channel=9 note=74 velocity=100 time=1
the msg is note_on channel=9 note=71 velocity=100 time=4
the msg is note_off channel=9 note=71 velocity=100 time=1
the msg is note_on channel=9 note=74 velocity=100 time=4
the msg is note_off channel=9 note=74 velocity=100 time=1
the msg is note_on channel=9 note=76 velocity=100 time=10
the msg is note_off channel=9 note=76 velocity=100 time=1
the msg is note_on channel=9 note=79 velocity=100 time=10
the msg is note_off channel=9 note=79 velocity=100 time=1
the msg is note_on channel=9 note=72 velocity=100 time=3
the msg is note_off channel=9 note=72 velocity=100 time=1
the msg is note_on channel=9 note=72 velocity=100 time=6
the msg is note_off channel=9 note=72 velocity=100 time=1
the msg is note_on channel=9 note=72 velocity=100 time=3
the msg is note_off channel=9 note=72 velocity=100 time=1
the msg is note_on channel=9 note=72 velocity=100 time=10
the msg is note_off channel=9 note=72 velocity=100 time=1
the msg is note_on channel=9 note=72 velocity=100 time=4
the msg is note_off channel=9 note=72 velocity=100 time=1
the msg is note_on channel=9 note=72 velocity=100 time=4
the msg is note_off channel=9 note=72 velocity=100 time=1
the msg is <meta message end_of_track time=0>
the msg is <meta message track_name name='outTest85_512_1.0.mid' time=0>
the msg is note_on channel=9 note=69 velocity=100 time=1
the msg is note_off channel=9 note=69 velocity=100 time=1
the msg is note_on channel=9 note=72 velocity=100 time=75
the msg is note_off channel=9 note=72 velocity=100 time=1
the msg is note_on channel=9 note=72 velocity=100 time=4
the msg is note_off channel=9 note=72 velocity=100 time=1
the msg is note_on channel=9 note=72 velocity=100 time=4
the msg is note_off channel=9 note=72 velocity=100 time=1
the msg is note_on channel=9 note=72 velocity=100 time=10
the msg is note_off channel=9 note=72 velocity=100 time=1
the msg is note_on channel=9 note=74 velocity=100 time=10
the msg is note_off channel=9 note=74 velocity=100 time=1
the msg is note_on channel=9 note=74 velocity=100 time=4
the msg is note_off channel=9 note=74 velocity=100 time=1
the msg is note_on channel=9 note=71 velocity=100 time=4
the msg is note_off channel=9 note=71 velocity=100 time=1
the msg is note_on channel=9 note=74 velocity=100 time=10
the msg is note_off channel=9 note=74 velocity=100 time=1
the msg is note_on channel=9 note=74 velocity=100 time=4
the msg is note_off channel=9 note=74 velocity=100 time=1
the msg is note_on channel=9 note=71 velocity=100 time=4
the msg is note_off channel=9 note=71 velocity=100 time=1
the msg is note_on channel=9 note=71 velocity=100 time=4
the msg is note_off channel=9 note=71 velocity=100 time=1
the msg is note_on channel=9 note=69 velocity=100 time=4
the msg is note_off channel=9 note=69 velocity=100 time=1
the msg is note_on channel=9 note=72 velocity=100 time=55
the msg is note_off channel=9 note=72 velocity=100 time=1
the msg is note_on channel=9 note=72 velocity=100 time=10
the msg is note_off channel=9 note=72 velocity=100 time=1
the msg is note_on channel=9 note=72 velocity=100 time=4
the msg is note_off channel=9 note=72 velocity=100 time=1
the msg is note_on channel=9 note=72 velocity=100 time=4
the msg is note_off channel=9 note=72 velocity=100 time=1
the msg is note_on channel=9 note=72 velocity=100 time=4
the msg is note_off channel=9 note=72 velocity=100 time=1
the msg is note_on channel=9 note=76 velocity=100 time=4
the msg is note_off channel=9 note=76 velocity=100 time=1
the msg is note_on channel=9 note=79 velocity=100 time=10
the msg is note_off channel=9 note=79 velocity=100 time=1
the msg is note_on channel=9 note=76 velocity=100 time=10
the msg is note_off channel=9 note=76 velocity=100 time=1
the msg is note_on channel=9 note=79 velocity=100 time=10
the msg is note_off channel=9 note=79 velocity=100 time=1
the msg is note_on channel=9 note=79 velocity=100 time=4
the msg is note_off channel=9 note=79 velocity=100 time=1
the msg is note_on channel=9 note=76 velocity=100 time=4
the msg is note_off channel=9 note=76 velocity=100 time=1
the msg is note_on channel=9 note=74 velocity=100 time=4
the msg is note_off channel=9 note=74 velocity=100 time=1
the msg is note_on channel=9 note=72 velocity=100 time=4
the msg is note_off channel=9 note=72 velocity=100 time=1
the msg is note_on channel=9 note=74 velocity=100 time=10
the msg is note_off channel=9 note=74 velocity=100 time=1
the msg is note_on channel=9 note=74 velocity=100 time=10
the msg is note_off channel=9 note=74 velocity=100 time=1
the msg is note_on channel=9 note=74 velocity=100 time=10
the msg is note_off channel=9 note=74 velocity=100 time=1
the msg is note_on channel=9 note=76 velocity=100 time=10
the msg is note_off channel=9 note=76 velocity=100 time=1
the msg is note_on channel=9 note=79 velocity=100 time=10
the msg is note_off channel=9 note=79 velocity=100 time=1
the msg is note_on channel=9 note=79 velocity=100 time=6
the msg is note_off channel=9 note=79 velocity=100 time=1
the msg is note_on channel=9 note=76 velocity=100 time=3
the msg is note_off channel=9 note=76 velocity=100 time=1
the msg is note_on channel=9 note=74 velocity=100 time=6
the msg is note_off channel=9 note=74 velocity=100 time=1
the msg is note_on channel=9 note=72 velocity=100 time=3
the msg is note_off channel=9 note=72 velocity=100 time=1
the msg is note_on channel=9 note=74 velocity=100 time=10
the msg is note_off channel=9 note=74 velocity=100 time=1
the msg is note_on channel=9 note=76 velocity=100 time=10
the msg is note_off channel=9 note=76 velocity=100 time=1
the msg is note_on channel=9 note=72 velocity=100 time=4
the msg is note_off channel=9 note=72 velocity=100 time=1
the msg is note_on channel=9 note=74 velocity=100 time=4
the msg is note_off channel=9 note=74 velocity=100 time=1
the msg is note_on channel=9 note=74 velocity=100 time=10
the msg is note_off channel=9 note=74 velocity=100 time=1
the msg is note_on channel=9 note=74 velocity=100 time=10
the msg is note_off channel=9 note=74 velocity=100 time=1
the msg is note_on channel=9 note=74 velocity=100 time=4
the msg is note_off channel=9 note=74 velocity=100 time=1
the msg is note_on channel=9 note=71 velocity=100 time=4
the msg is note_off channel=9 note=71 velocity=100 time=1
the msg is note_on channel=9 note=74 velocity=100 time=10
the msg is note_off channel=9 note=74 velocity=100 time=1
the msg is note_on channel=9 note=74 velocity=100 time=10
the msg is note_off channel=9 note=74 velocity=100 time=1
the msg is note_on channel=9 note=72 velocity=100 time=3
the msg is note_off channel=9 note=72 velocity=100 time=1
the msg is note_on channel=9 note=74 velocity=100 time=10
the msg is note_off channel=9 note=74 velocity=100 time=1
the msg is note_on channel=9 note=74 velocity=100 time=10
the msg is note_off channel=9 note=74 velocity=100 time=1
the msg is note_on channel=9 note=74 velocity=100 time=4
the msg is note_off channel=9 note=74 velocity=100 time=1
the msg is note_on channel=9 note=71 velocity=100 time=4
the msg is note_off channel=9 note=71 velocity=100 time=1
the msg is note_on channel=9 note=74 velocity=100 time=4
the msg is note_off channel=9 note=74 velocity=100 time=1
the msg is note_on channel=9 note=76 velocity=100 time=10
the msg is note_off channel=9 note=76 velocity=100 time=1
the msg is note_on channel=9 note=79 velocity=100 time=10
the msg is note_off channel=9 note=79 velocity=100 time=1
the msg is note_on channel=9 note=72 velocity=100 time=3
the msg is note_off channel=9 note=72 velocity=100 time=1
the msg is note_on channel=9 note=72 velocity=100 time=6
the msg is note_off channel=9 note=72 velocity=100 time=1
the msg is note_on channel=9 note=72 velocity=100 time=3
the msg is note_off channel=9 note=72 velocity=100 time=1
the msg is note_on channel=9 note=72 velocity=100 time=10
the msg is note_off channel=9 note=72 velocity=100 time=1
the msg is note_on channel=9 note=72 velocity=100 time=4
the msg is note_off channel=9 note=72 velocity=100 time=1
the msg is note_on channel=9 note=72 velocity=100 time=4
the msg is note_off channel=9 note=72 velocity=100 time=1
the msg is <meta message end_of_track time=0>
the msg is <meta message track_name name='outTest85_512_1.0.mid' time=0>
the msg is note_on channel=9 note=69 velocity=100 time=1
the msg is note_off channel=9 note=69 velocity=100 time=1
the msg is note_on channel=9 note=72 velocity=100 time=75
the msg is note_off channel=9 note=72 velocity=100 time=1
the msg is note_on channel=9 note=72 velocity=100 time=4
the msg is note_off channel=9 note=72 velocity=100 time=1
the msg is note_on channel=9 note=72 velocity=100 time=4
the msg is note_off channel=9 note=72 velocity=100 time=1
the msg is note_on channel=9 note=72 velocity=100 time=10
the msg is note_off channel=9 note=72 velocity=100 time=1
the msg is note_on channel=9 note=74 velocity=100 time=10
the msg is note_off channel=9 note=74 velocity=100 time=1
the msg is note_on channel=9 note=74 velocity=100 time=4
the msg is note_off channel=9 note=74 velocity=100 time=1
the msg is note_on channel=9 note=71 velocity=100 time=4
the msg is note_off channel=9 note=71 velocity=100 time=1
the msg is note_on channel=9 note=74 velocity=100 time=10
the msg is note_off channel=9 note=74 velocity=100 time=1
the msg is note_on channel=9 note=74 velocity=100 time=4
the msg is note_off channel=9 note=74 velocity=100 time=1
the msg is note_on channel=9 note=71 velocity=100 time=4
the msg is note_off channel=9 note=71 velocity=100 time=1
the msg is note_on channel=9 note=71 velocity=100 time=4
the msg is note_off channel=9 note=71 velocity=100 time=1
the msg is note_on channel=9 note=69 velocity=100 time=4
the msg is note_off channel=9 note=69 velocity=100 time=1
the msg is note_on channel=9 note=72 velocity=100 time=55
the msg is note_off channel=9 note=72 velocity=100 time=1
the msg is note_on channel=9 note=72 velocity=100 time=10
the msg is note_off channel=9 note=72 velocity=100 time=1
the msg is note_on channel=9 note=72 velocity=100 time=4
the msg is note_off channel=9 note=72 velocity=100 time=1
the msg is note_on channel=9 note=72 velocity=100 time=4
the msg is note_off channel=9 note=72 velocity=100 time=1
the msg is note_on channel=9 note=72 velocity=100 time=4
the msg is note_off channel=9 note=72 velocity=100 time=1
the msg is note_on channel=9 note=76 velocity=100 time=4
the msg is note_off channel=9 note=76 velocity=100 time=1
the msg is note_on channel=9 note=79 velocity=100 time=10
the msg is note_off channel=9 note=79 velocity=100 time=1
the msg is note_on channel=9 note=76 velocity=100 time=10
the msg is note_off channel=9 note=76 velocity=100 time=1
the msg is note_on channel=9 note=79 velocity=100 time=10
the msg is note_off channel=9 note=79 velocity=100 time=1
the msg is note_on channel=9 note=79 velocity=100 time=4
the msg is note_off channel=9 note=79 velocity=100 time=1
the msg is note_on channel=9 note=76 velocity=100 time=4
the msg is note_off channel=9 note=76 velocity=100 time=1
the msg is note_on channel=9 note=74 velocity=100 time=4
the msg is note_off channel=9 note=74 velocity=100 time=1
the msg is note_on channel=9 note=72 velocity=100 time=4
the msg is note_off channel=9 note=72 velocity=100 time=1
the msg is note_on channel=9 note=74 velocity=100 time=10
the msg is note_off channel=9 note=74 velocity=100 time=1
the msg is note_on channel=9 note=74 velocity=100 time=10
the msg is note_off channel=9 note=74 velocity=100 time=1
the msg is note_on channel=9 note=74 velocity=100 time=10
the msg is note_off channel=9 note=74 velocity=100 time=1
the msg is note_on channel=9 note=76 velocity=100 time=10
the msg is note_off channel=9 note=76 velocity=100 time=1
the msg is note_on channel=9 note=79 velocity=100 time=10
the msg is note_off channel=9 note=79 velocity=100 time=1
the msg is note_on channel=9 note=79 velocity=100 time=6
the msg is note_off channel=9 note=79 velocity=100 time=1
the msg is note_on channel=9 note=76 velocity=100 time=3
the msg is note_off channel=9 note=76 velocity=100 time=1
the msg is note_on channel=9 note=74 velocity=100 time=6
the msg is note_off channel=9 note=74 velocity=100 time=1
the msg is note_on channel=9 note=72 velocity=100 time=3
the msg is note_off channel=9 note=72 velocity=100 time=1
the msg is note_on channel=9 note=74 velocity=100 time=10
the msg is note_off channel=9 note=74 velocity=100 time=1
the msg is note_on channel=9 note=76 velocity=100 time=10
the msg is note_off channel=9 note=76 velocity=100 time=1
the msg is note_on channel=9 note=72 velocity=100 time=4
the msg is note_off channel=9 note=72 velocity=100 time=1
the msg is note_on channel=9 note=74 velocity=100 time=4
the msg is note_off channel=9 note=74 velocity=100 time=1
the msg is note_on channel=9 note=74 velocity=100 time=10
the msg is note_off channel=9 note=74 velocity=100 time=1
the msg is note_on channel=9 note=74 velocity=100 time=10
the msg is note_off channel=9 note=74 velocity=100 time=1
the msg is note_on channel=9 note=74 velocity=100 time=4
the msg is note_off channel=9 note=74 velocity=100 time=1
the msg is note_on channel=9 note=71 velocity=100 time=4
the msg is note_off channel=9 note=71 velocity=100 time=1
the msg is note_on channel=9 note=74 velocity=100 time=10
the msg is note_off channel=9 note=74 velocity=100 time=1
the msg is note_on channel=9 note=74 velocity=100 time=10
the msg is note_off channel=9 note=74 velocity=100 time=1
the msg is note_on channel=9 note=72 velocity=100 time=3
the msg is note_off channel=9 note=72 velocity=100 time=1
the msg is note_on channel=9 note=74 velocity=100 time=10
the msg is note_off channel=9 note=74 velocity=100 time=1
the msg is note_on channel=9 note=74 velocity=100 time=10
the msg is note_off channel=9 note=74 velocity=100 time=1
the msg is note_on channel=9 note=74 velocity=100 time=4
the msg is note_off channel=9 note=74 velocity=100 time=1
the msg is note_on channel=9 note=71 velocity=100 time=4
the msg is note_off channel=9 note=71 velocity=100 time=1
the msg is note_on channel=9 note=74 velocity=100 time=4
the msg is note_off channel=9 note=74 velocity=100 time=1
the msg is note_on channel=9 note=76 velocity=100 time=10
the msg is note_off channel=9 note=76 velocity=100 time=1
the msg is note_on channel=9 note=79 velocity=100 time=10
the msg is note_off channel=9 note=79 velocity=100 time=1
the msg is note_on channel=9 note=72 velocity=100 time=3
the msg is note_off channel=9 note=72 velocity=100 time=1
the msg is note_on channel=9 note=72 velocity=100 time=6
the msg is note_off channel=9 note=72 velocity=100 time=1
the msg is note_on channel=9 note=72 velocity=100 time=3
the msg is note_off channel=9 note=72 velocity=100 time=1
the msg is note_on channel=9 note=72 velocity=100 time=10
the msg is note_off channel=9 note=72 velocity=100 time=1
the msg is note_on channel=9 note=72 velocity=100 time=4
the msg is note_off channel=9 note=72 velocity=100 time=1
the msg is note_on channel=9 note=72 velocity=100 time=4
the msg is note_off channel=9 note=72 velocity=100 time=1
the msg is <meta message end_of_track time=0>
the msg is <meta message track_name name='outTest85_512_1.0.mid' time=0>
the msg is note_on channel=9 note=69 velocity=100 time=1
the msg is note_off channel=9 note=69 velocity=100 time=1
the msg is note_on channel=9 note=72 velocity=100 time=75
the msg is note_off channel=9 note=72 velocity=100 time=1
the msg is note_on channel=9 note=72 velocity=100 time=4
the msg is note_off channel=9 note=72 velocity=100 time=1
the msg is note_on channel=9 note=72 velocity=100 time=4
the msg is note_off channel=9 note=72 velocity=100 time=1
the msg is note_on channel=9 note=72 velocity=100 time=10
the msg is note_off channel=9 note=72 velocity=100 time=1
the msg is note_on channel=9 note=74 velocity=100 time=10
the msg is note_off channel=9 note=74 velocity=100 time=1
the msg is note_on channel=9 note=74 velocity=100 time=4
the msg is note_off channel=9 note=74 velocity=100 time=1
the msg is note_on channel=9 note=71 velocity=100 time=4
the msg is note_off channel=9 note=71 velocity=100 time=1
the msg is note_on channel=9 note=74 velocity=100 time=10
the msg is note_off channel=9 note=74 velocity=100 time=1
the msg is note_on channel=9 note=74 velocity=100 time=4
the msg is note_off channel=9 note=74 velocity=100 time=1
the msg is note_on channel=9 note=71 velocity=100 time=4
the msg is note_off channel=9 note=71 velocity=100 time=1
the msg is note_on channel=9 note=71 velocity=100 time=4
the msg is note_off channel=9 note=71 velocity=100 time=1
the msg is note_on channel=9 note=69 velocity=100 time=4
the msg is note_off channel=9 note=69 velocity=100 time=1
the msg is note_on channel=9 note=72 velocity=100 time=55
the msg is note_off channel=9 note=72 velocity=100 time=1
the msg is note_on channel=9 note=72 velocity=100 time=10
the msg is note_off channel=9 note=72 velocity=100 time=1
the msg is note_on channel=9 note=72 velocity=100 time=4
the msg is note_off channel=9 note=72 velocity=100 time=1
the msg is note_on channel=9 note=72 velocity=100 time=4
the msg is note_off channel=9 note=72 velocity=100 time=1
the msg is note_on channel=9 note=72 velocity=100 time=4
the msg is note_off channel=9 note=72 velocity=100 time=1
the msg is note_on channel=9 note=76 velocity=100 time=4
the msg is note_off channel=9 note=76 velocity=100 time=1
the msg is note_on channel=9 note=79 velocity=100 time=10
the msg is note_off channel=9 note=79 velocity=100 time=1
the msg is note_on channel=9 note=76 velocity=100 time=10
the msg is note_off channel=9 note=76 velocity=100 time=1
the msg is note_on channel=9 note=79 velocity=100 time=10
the msg is note_off channel=9 note=79 velocity=100 time=1
the msg is note_on channel=9 note=79 velocity=100 time=4
the msg is note_off channel=9 note=79 velocity=100 time=1
the msg is note_on channel=9 note=76 velocity=100 time=4
the msg is note_off channel=9 note=76 velocity=100 time=1
the msg is note_on channel=9 note=74 velocity=100 time=4
the msg is note_off channel=9 note=74 velocity=100 time=1
the msg is note_on channel=9 note=72 velocity=100 time=4
the msg is note_off channel=9 note=72 velocity=100 time=1
the msg is note_on channel=9 note=74 velocity=100 time=10
the msg is note_off channel=9 note=74 velocity=100 time=1
the msg is note_on channel=9 note=74 velocity=100 time=10
the msg is note_off channel=9 note=74 velocity=100 time=1
the msg is note_on channel=9 note=74 velocity=100 time=10
the msg is note_off channel=9 note=74 velocity=100 time=1
the msg is note_on channel=9 note=76 velocity=100 time=10
the msg is note_off channel=9 note=76 velocity=100 time=1
the msg is note_on channel=9 note=79 velocity=100 time=10
the msg is note_off channel=9 note=79 velocity=100 time=1
the msg is note_on channel=9 note=79 velocity=100 time=6
the msg is note_off channel=9 note=79 velocity=100 time=1
the msg is note_on channel=9 note=76 velocity=100 time=3
the msg is note_off channel=9 note=76 velocity=100 time=1
the msg is note_on channel=9 note=74 velocity=100 time=6
the msg is note_off channel=9 note=74 velocity=100 time=1
the msg is note_on channel=9 note=72 velocity=100 time=3
the msg is note_off channel=9 note=72 velocity=100 time=1
the msg is note_on channel=9 note=74 velocity=100 time=10
the msg is note_off channel=9 note=74 velocity=100 time=1
the msg is note_on channel=9 note=76 velocity=100 time=10
the msg is note_off channel=9 note=76 velocity=100 time=1
the msg is note_on channel=9 note=72 velocity=100 time=4
the msg is note_off channel=9 note=72 velocity=100 time=1
the msg is note_on channel=9 note=74 velocity=100 time=4
the msg is note_off channel=9 note=74 velocity=100 time=1
the msg is note_on channel=9 note=74 velocity=100 time=10
the msg is note_off channel=9 note=74 velocity=100 time=1
the msg is note_on channel=9 note=74 velocity=100 time=10
the msg is note_off channel=9 note=74 velocity=100 time=1
the msg is note_on channel=9 note=74 velocity=100 time=4
the msg is note_off channel=9 note=74 velocity=100 time=1
the msg is note_on channel=9 note=71 velocity=100 time=4
the msg is note_off channel=9 note=71 velocity=100 time=1
the msg is note_on channel=9 note=74 velocity=100 time=10
the msg is note_off channel=9 note=74 velocity=100 time=1
the msg is note_on channel=9 note=74 velocity=100 time=10
the msg is note_off channel=9 note=74 velocity=100 time=1
the msg is note_on channel=9 note=72 velocity=100 time=3
the msg is note_off channel=9 note=72 velocity=100 time=1
the msg is note_on channel=9 note=74 velocity=100 time=10
the msg is note_off channel=9 note=74 velocity=100 time=1
the msg is note_on channel=9 note=74 velocity=100 time=10
the msg is note_off channel=9 note=74 velocity=100 time=1
the msg is note_on channel=9 note=74 velocity=100 time=4
the msg is note_off channel=9 note=74 velocity=100 time=1
the msg is note_on channel=9 note=71 velocity=100 time=4
the msg is note_off channel=9 note=71 velocity=100 time=1
the msg is note_on channel=9 note=74 velocity=100 time=4
the msg is note_off channel=9 note=74 velocity=100 time=1
the msg is note_on channel=9 note=76 velocity=100 time=10
the msg is note_off channel=9 note=76 velocity=100 time=1
the msg is note_on channel=9 note=79 velocity=100 time=10
the msg is note_off channel=9 note=79 velocity=100 time=1
the msg is note_on channel=9 note=72 velocity=100 time=3
the msg is note_off channel=9 note=72 velocity=100 time=1
the msg is note_on channel=9 note=72 velocity=100 time=6
the msg is note_off channel=9 note=72 velocity=100 time=1
the msg is note_on channel=9 note=72 velocity=100 time=3
the msg is note_off channel=9 note=72 velocity=100 time=1
the msg is note_on channel=9 note=72 velocity=100 time=10
the msg is note_off channel=9 note=72 velocity=100 time=1
the msg is note_on channel=9 note=72 velocity=100 time=4
the msg is note_off channel=9 note=72 velocity=100 time=1
the msg is note_on channel=9 note=72 velocity=100 time=4
the msg is note_off channel=9 note=72 velocity=100 time=1
the msg is <meta message end_of_track time=0>
the msg is <meta message track_name name='outTest85_512_1.0.mid' time=0>
the msg is note_on channel=9 note=69 velocity=100 time=1
the msg is note_off channel=9 note=69 velocity=100 time=1
the msg is note_on channel=9 note=72 velocity=100 time=75
the msg is note_off channel=9 note=72 velocity=100 time=1
the msg is note_on channel=9 note=72 velocity=100 time=4
the msg is note_off channel=9 note=72 velocity=100 time=1
the msg is note_on channel=9 note=72 velocity=100 time=4
the msg is note_off channel=9 note=72 velocity=100 time=1
the msg is note_on channel=9 note=72 velocity=100 time=10
the msg is note_off channel=9 note=72 velocity=100 time=1
the msg is note_on channel=9 note=74 velocity=100 time=10
the msg is note_off channel=9 note=74 velocity=100 time=1
the msg is note_on channel=9 note=74 velocity=100 time=4
the msg is note_off channel=9 note=74 velocity=100 time=1
the msg is note_on channel=9 note=71 velocity=100 time=4
the msg is note_off channel=9 note=71 velocity=100 time=1
the msg is note_on channel=9 note=74 velocity=100 time=10
the msg is note_off channel=9 note=74 velocity=100 time=1
the msg is note_on channel=9 note=74 velocity=100 time=4
the msg is note_off channel=9 note=74 velocity=100 time=1
the msg is note_on channel=9 note=71 velocity=100 time=4
the msg is note_off channel=9 note=71 velocity=100 time=1
the msg is note_on channel=9 note=71 velocity=100 time=4
the msg is note_off channel=9 note=71 velocity=100 time=1
the msg is note_on channel=9 note=69 velocity=100 time=4
the msg is note_off channel=9 note=69 velocity=100 time=1
the msg is note_on channel=9 note=72 velocity=100 time=55
the msg is note_off channel=9 note=72 velocity=100 time=1
the msg is note_on channel=9 note=72 velocity=100 time=10
the msg is note_off channel=9 note=72 velocity=100 time=1
the msg is note_on channel=9 note=72 velocity=100 time=4
the msg is note_off channel=9 note=72 velocity=100 time=1
the msg is note_on channel=9 note=72 velocity=100 time=4
the msg is note_off channel=9 note=72 velocity=100 time=1
the msg is note_on channel=9 note=72 velocity=100 time=4
the msg is note_off channel=9 note=72 velocity=100 time=1
the msg is note_on channel=9 note=76 velocity=100 time=4
the msg is note_off channel=9 note=76 velocity=100 time=1
the msg is note_on channel=9 note=79 velocity=100 time=10
the msg is note_off channel=9 note=79 velocity=100 time=1
the msg is note_on channel=9 note=76 velocity=100 time=10
the msg is note_off channel=9 note=76 velocity=100 time=1
the msg is note_on channel=9 note=79 velocity=100 time=10
the msg is note_off channel=9 note=79 velocity=100 time=1
the msg is note_on channel=9 note=79 velocity=100 time=4
the msg is note_off channel=9 note=79 velocity=100 time=1
the msg is note_on channel=9 note=76 velocity=100 time=4
the msg is note_off channel=9 note=76 velocity=100 time=1
the msg is note_on channel=9 note=74 velocity=100 time=4
the msg is note_off channel=9 note=74 velocity=100 time=1
the msg is note_on channel=9 note=72 velocity=100 time=4
the msg is note_off channel=9 note=72 velocity=100 time=1
the msg is note_on channel=9 note=74 velocity=100 time=10
the msg is note_off channel=9 note=74 velocity=100 time=1
the msg is note_on channel=9 note=74 velocity=100 time=10
the msg is note_off channel=9 note=74 velocity=100 time=1
the msg is note_on channel=9 note=74 velocity=100 time=10
the msg is note_off channel=9 note=74 velocity=100 time=1
the msg is note_on channel=9 note=76 velocity=100 time=10
the msg is note_off channel=9 note=76 velocity=100 time=1
the msg is note_on channel=9 note=79 velocity=100 time=10
the msg is note_off channel=9 note=79 velocity=100 time=1
the msg is note_on channel=9 note=79 velocity=100 time=6
the msg is note_off channel=9 note=79 velocity=100 time=1
the msg is note_on channel=9 note=76 velocity=100 time=3
the msg is note_off channel=9 note=76 velocity=100 time=1
the msg is note_on channel=9 note=74 velocity=100 time=6
the msg is note_off channel=9 note=74 velocity=100 time=1
the msg is note_on channel=9 note=72 velocity=100 time=3
the msg is note_off channel=9 note=72 velocity=100 time=1
the msg is note_on channel=9 note=74 velocity=100 time=10
the msg is note_off channel=9 note=74 velocity=100 time=1
the msg is note_on channel=9 note=76 velocity=100 time=10
the msg is note_off channel=9 note=76 velocity=100 time=1
the msg is note_on channel=9 note=72 velocity=100 time=4
the msg is note_off channel=9 note=72 velocity=100 time=1
the msg is note_on channel=9 note=74 velocity=100 time=4
the msg is note_off channel=9 note=74 velocity=100 time=1
the msg is note_on channel=9 note=74 velocity=100 time=10
the msg is note_off channel=9 note=74 velocity=100 time=1
the msg is note_on channel=9 note=74 velocity=100 time=10
the msg is note_off channel=9 note=74 velocity=100 time=1
the msg is note_on channel=9 note=74 velocity=100 time=4
the msg is note_off channel=9 note=74 velocity=100 time=1
the msg is note_on channel=9 note=71 velocity=100 time=4
the msg is note_off channel=9 note=71 velocity=100 time=1
the msg is note_on channel=9 note=74 velocity=100 time=10
the msg is note_off channel=9 note=74 velocity=100 time=1
the msg is note_on channel=9 note=74 velocity=100 time=10
the msg is note_off channel=9 note=74 velocity=100 time=1
the msg is note_on channel=9 note=72 velocity=100 time=3
the msg is note_off channel=9 note=72 velocity=100 time=1
the msg is note_on channel=9 note=74 velocity=100 time=10
the msg is note_off channel=9 note=74 velocity=100 time=1
the msg is note_on channel=9 note=74 velocity=100 time=10
the msg is note_off channel=9 note=74 velocity=100 time=1
the msg is note_on channel=9 note=74 velocity=100 time=4
the msg is note_off channel=9 note=74 velocity=100 time=1
the msg is note_on channel=9 note=71 velocity=100 time=4
the msg is note_off channel=9 note=71 velocity=100 time=1
the msg is note_on channel=9 note=74 velocity=100 time=4
the msg is note_off channel=9 note=74 velocity=100 time=1
the msg is note_on channel=9 note=76 velocity=100 time=10
the msg is note_off channel=9 note=76 velocity=100 time=1
the msg is note_on channel=9 note=79 velocity=100 time=10
the msg is note_off channel=9 note=79 velocity=100 time=1
the msg is note_on channel=9 note=72 velocity=100 time=3
the msg is note_off channel=9 note=72 velocity=100 time=1
the msg is note_on channel=9 note=72 velocity=100 time=6
the msg is note_off channel=9 note=72 velocity=100 time=1
the msg is note_on channel=9 note=72 velocity=100 time=3
the msg is note_off channel=9 note=72 velocity=100 time=1
the msg is note_on channel=9 note=72 velocity=100 time=10
the msg is note_off channel=9 note=72 velocity=100 time=1
the msg is note_on channel=9 note=72 velocity=100 time=4
the msg is note_off channel=9 note=72 velocity=100 time=1
the msg is note_on channel=9 note=72 velocity=100 time=4
the msg is note_off channel=9 note=72 velocity=100 time=1
the msg is <meta message end_of_track time=0>
the msg is <meta message track_name name='outTest85_512_1.0.mid' time=0>
the msg is note_on channel=9 note=69 velocity=100 time=1
the msg is note_off channel=9 note=69 velocity=100 time=1
the msg is note_on channel=9 note=72 velocity=100 time=75
the msg is note_off channel=9 note=72 velocity=100 time=1
the msg is note_on channel=9 note=72 velocity=100 time=4
the msg is note_off channel=9 note=72 velocity=100 time=1
the msg is note_on channel=9 note=72 velocity=100 time=4
the msg is note_off channel=9 note=72 velocity=100 time=1
the msg is note_on channel=9 note=72 velocity=100 time=10
the msg is note_off channel=9 note=72 velocity=100 time=1
the msg is note_on channel=9 note=74 velocity=100 time=10
the msg is note_off channel=9 note=74 velocity=100 time=1
the msg is note_on channel=9 note=74 velocity=100 time=4
the msg is note_off channel=9 note=74 velocity=100 time=1
the msg is note_on channel=9 note=71 velocity=100 time=4
the msg is note_off channel=9 note=71 velocity=100 time=1
the msg is note_on channel=9 note=74 velocity=100 time=10
the msg is note_off channel=9 note=74 velocity=100 time=1
the msg is note_on channel=9 note=74 velocity=100 time=4
the msg is note_off channel=9 note=74 velocity=100 time=1
the msg is note_on channel=9 note=71 velocity=100 time=4
the msg is note_off channel=9 note=71 velocity=100 time=1
the msg is note_on channel=9 note=71 velocity=100 time=4
the msg is note_off channel=9 note=71 velocity=100 time=1
the msg is note_on channel=9 note=69 velocity=100 time=4
the msg is note_off channel=9 note=69 velocity=100 time=1
the msg is note_on channel=9 note=72 velocity=100 time=55
the msg is note_off channel=9 note=72 velocity=100 time=1
the msg is note_on channel=9 note=72 velocity=100 time=10
the msg is note_off channel=9 note=72 velocity=100 time=1
the msg is note_on channel=9 note=72 velocity=100 time=4
the msg is note_off channel=9 note=72 velocity=100 time=1
the msg is note_on channel=9 note=72 velocity=100 time=4
the msg is note_off channel=9 note=72 velocity=100 time=1
the msg is note_on channel=9 note=72 velocity=100 time=4
the msg is note_off channel=9 note=72 velocity=100 time=1
the msg is note_on channel=9 note=76 velocity=100 time=4
the msg is note_off channel=9 note=76 velocity=100 time=1
the msg is note_on channel=9 note=79 velocity=100 time=10
the msg is note_off channel=9 note=79 velocity=100 time=1
the msg is note_on channel=9 note=76 velocity=100 time=10
the msg is note_off channel=9 note=76 velocity=100 time=1
the msg is note_on channel=9 note=79 velocity=100 time=10
the msg is note_off channel=9 note=79 velocity=100 time=1
the msg is note_on channel=9 note=79 velocity=100 time=4
the msg is note_off channel=9 note=79 velocity=100 time=1
the msg is note_on channel=9 note=76 velocity=100 time=4
the msg is note_off channel=9 note=76 velocity=100 time=1
the msg is note_on channel=9 note=74 velocity=100 time=4
the msg is note_off channel=9 note=74 velocity=100 time=1
the msg is note_on channel=9 note=72 velocity=100 time=4
the msg is note_off channel=9 note=72 velocity=100 time=1
the msg is note_on channel=9 note=74 velocity=100 time=10
the msg is note_off channel=9 note=74 velocity=100 time=1
the msg is note_on channel=9 note=74 velocity=100 time=10
the msg is note_off channel=9 note=74 velocity=100 time=1
the msg is note_on channel=9 note=74 velocity=100 time=10
the msg is note_off channel=9 note=74 velocity=100 time=1
the msg is note_on channel=9 note=76 velocity=100 time=10
the msg is note_off channel=9 note=76 velocity=100 time=1
the msg is note_on channel=9 note=79 velocity=100 time=10
the msg is note_off channel=9 note=79 velocity=100 time=1
the msg is note_on channel=9 note=79 velocity=100 time=6
the msg is note_off channel=9 note=79 velocity=100 time=1
the msg is note_on channel=9 note=76 velocity=100 time=3
the msg is note_off channel=9 note=76 velocity=100 time=1
the msg is note_on channel=9 note=74 velocity=100 time=6
the msg is note_off channel=9 note=74 velocity=100 time=1
the msg is note_on channel=9 note=72 velocity=100 time=3
the msg is note_off channel=9 note=72 velocity=100 time=1
the msg is note_on channel=9 note=74 velocity=100 time=10
the msg is note_off channel=9 note=74 velocity=100 time=1
the msg is note_on channel=9 note=76 velocity=100 time=10
the msg is note_off channel=9 note=76 velocity=100 time=1
the msg is note_on channel=9 note=72 velocity=100 time=4
the msg is note_off channel=9 note=72 velocity=100 time=1
the msg is note_on channel=9 note=74 velocity=100 time=4
the msg is note_off channel=9 note=74 velocity=100 time=1
the msg is note_on channel=9 note=74 velocity=100 time=10
the msg is note_off channel=9 note=74 velocity=100 time=1
the msg is note_on channel=9 note=74 velocity=100 time=10
the msg is note_off channel=9 note=74 velocity=100 time=1
the msg is note_on channel=9 note=74 velocity=100 time=4
the msg is note_off channel=9 note=74 velocity=100 time=1
the msg is note_on channel=9 note=71 velocity=100 time=4
the msg is note_off channel=9 note=71 velocity=100 time=1
the msg is note_on channel=9 note=74 velocity=100 time=10
the msg is note_off channel=9 note=74 velocity=100 time=1
the msg is note_on channel=9 note=74 velocity=100 time=10
the msg is note_off channel=9 note=74 velocity=100 time=1
the msg is note_on channel=9 note=72 velocity=100 time=3
the msg is note_off channel=9 note=72 velocity=100 time=1
the msg is note_on channel=9 note=74 velocity=100 time=10
the msg is note_off channel=9 note=74 velocity=100 time=1
the msg is note_on channel=9 note=74 velocity=100 time=10
the msg is note_off channel=9 note=74 velocity=100 time=1
the msg is note_on channel=9 note=74 velocity=100 time=4
the msg is note_off channel=9 note=74 velocity=100 time=1
the msg is note_on channel=9 note=71 velocity=100 time=4
the msg is note_off channel=9 note=71 velocity=100 time=1
the msg is note_on channel=9 note=74 velocity=100 time=4
the msg is note_off channel=9 note=74 velocity=100 time=1
the msg is note_on channel=9 note=76 velocity=100 time=10
the msg is note_off channel=9 note=76 velocity=100 time=1
the msg is note_on channel=9 note=79 velocity=100 time=10
the msg is note_off channel=9 note=79 velocity=100 time=1
the msg is note_on channel=9 note=72 velocity=100 time=3
the msg is note_off channel=9 note=72 velocity=100 time=1
the msg is note_on channel=9 note=72 velocity=100 time=6
the msg is note_off channel=9 note=72 velocity=100 time=1
the msg is note_on channel=9 note=72 velocity=100 time=3
the msg is note_off channel=9 note=72 velocity=100 time=1
the msg is note_on channel=9 note=72 velocity=100 time=10
the msg is note_off channel=9 note=72 velocity=100 time=1
the msg is note_on channel=9 note=72 velocity=100 time=4
the msg is note_off channel=9 note=72 velocity=100 time=1
the msg is note_on channel=9 note=72 velocity=100 time=4
the msg is note_off channel=9 note=72 velocity=100 time=1
the msg is <meta message end_of_track time=0>
the msg is <meta message track_name name='outTest85_512_1.0.mid' time=0>
the msg is note_on channel=9 note=69 velocity=100 time=1
the msg is note_off channel=9 note=69 velocity=100 time=1
the msg is note_on channel=9 note=72 velocity=100 time=75
the msg is note_off channel=9 note=72 velocity=100 time=1
the msg is note_on channel=9 note=72 velocity=100 time=4
the msg is note_off channel=9 note=72 velocity=100 time=1
the msg is note_on channel=9 note=72 velocity=100 time=4
the msg is note_off channel=9 note=72 velocity=100 time=1
the msg is note_on channel=9 note=72 velocity=100 time=10
the msg is note_off channel=9 note=72 velocity=100 time=1
the msg is note_on channel=9 note=74 velocity=100 time=10
the msg is note_off channel=9 note=74 velocity=100 time=1
the msg is note_on channel=9 note=74 velocity=100 time=4
the msg is note_off channel=9 note=74 velocity=100 time=1
the msg is note_on channel=9 note=71 velocity=100 time=4
the msg is note_off channel=9 note=71 velocity=100 time=1
the msg is note_on channel=9 note=74 velocity=100 time=10
the msg is note_off channel=9 note=74 velocity=100 time=1
the msg is note_on channel=9 note=74 velocity=100 time=4
the msg is note_off channel=9 note=74 velocity=100 time=1
the msg is note_on channel=9 note=71 velocity=100 time=4
the msg is note_off channel=9 note=71 velocity=100 time=1
the msg is note_on channel=9 note=71 velocity=100 time=4
the msg is note_off channel=9 note=71 velocity=100 time=1
the msg is note_on channel=9 note=69 velocity=100 time=4
the msg is note_off channel=9 note=69 velocity=100 time=1
the msg is note_on channel=9 note=72 velocity=100 time=55
the msg is note_off channel=9 note=72 velocity=100 time=1
the msg is note_on channel=9 note=72 velocity=100 time=10
the msg is note_off channel=9 note=72 velocity=100 time=1
the msg is note_on channel=9 note=72 velocity=100 time=4
the msg is note_off channel=9 note=72 velocity=100 time=1
the msg is note_on channel=9 note=72 velocity=100 time=4
the msg is note_off channel=9 note=72 velocity=100 time=1
the msg is note_on channel=9 note=72 velocity=100 time=4
the msg is note_off channel=9 note=72 velocity=100 time=1
the msg is note_on channel=9 note=76 velocity=100 time=4
the msg is note_off channel=9 note=76 velocity=100 time=1
the msg is note_on channel=9 note=79 velocity=100 time=10
the msg is note_off channel=9 note=79 velocity=100 time=1
the msg is note_on channel=9 note=76 velocity=100 time=10
the msg is note_off channel=9 note=76 velocity=100 time=1
the msg is note_on channel=9 note=79 velocity=100 time=10
the msg is note_off channel=9 note=79 velocity=100 time=1
the msg is note_on channel=9 note=79 velocity=100 time=4
the msg is note_off channel=9 note=79 velocity=100 time=1
the msg is note_on channel=9 note=76 velocity=100 time=4
the msg is note_off channel=9 note=76 velocity=100 time=1
the msg is note_on channel=9 note=74 velocity=100 time=4
the msg is note_off channel=9 note=74 velocity=100 time=1
the msg is note_on channel=9 note=72 velocity=100 time=4
the msg is note_off channel=9 note=72 velocity=100 time=1
the msg is note_on channel=9 note=74 velocity=100 time=10
the msg is note_off channel=9 note=74 velocity=100 time=1
the msg is note_on channel=9 note=74 velocity=100 time=10
the msg is note_off channel=9 note=74 velocity=100 time=1
the msg is note_on channel=9 note=74 velocity=100 time=10
the msg is note_off channel=9 note=74 velocity=100 time=1
the msg is note_on channel=9 note=76 velocity=100 time=10
the msg is note_off channel=9 note=76 velocity=100 time=1
the msg is note_on channel=9 note=79 velocity=100 time=10
the msg is note_off channel=9 note=79 velocity=100 time=1
the msg is note_on channel=9 note=79 velocity=100 time=6
the msg is note_off channel=9 note=79 velocity=100 time=1
the msg is note_on channel=9 note=76 velocity=100 time=3
the msg is note_off channel=9 note=76 velocity=100 time=1
the msg is note_on channel=9 note=74 velocity=100 time=6
the msg is note_off channel=9 note=74 velocity=100 time=1
the msg is note_on channel=9 note=72 velocity=100 time=3
the msg is note_off channel=9 note=72 velocity=100 time=1
the msg is note_on channel=9 note=74 velocity=100 time=10
the msg is note_off channel=9 note=74 velocity=100 time=1
the msg is note_on channel=9 note=76 velocity=100 time=10
the msg is note_off channel=9 note=76 velocity=100 time=1
the msg is note_on channel=9 note=72 velocity=100 time=4
the msg is note_off channel=9 note=72 velocity=100 time=1
the msg is note_on channel=9 note=74 velocity=100 time=4
the msg is note_off channel=9 note=74 velocity=100 time=1
the msg is note_on channel=9 note=74 velocity=100 time=10
the msg is note_off channel=9 note=74 velocity=100 time=1
the msg is note_on channel=9 note=74 velocity=100 time=10
the msg is note_off channel=9 note=74 velocity=100 time=1
the msg is note_on channel=9 note=74 velocity=100 time=4
the msg is note_off channel=9 note=74 velocity=100 time=1
the msg is note_on channel=9 note=71 velocity=100 time=4
the msg is note_off channel=9 note=71 velocity=100 time=1
the msg is note_on channel=9 note=74 velocity=100 time=10
the msg is note_off channel=9 note=74 velocity=100 time=1
the msg is note_on channel=9 note=74 velocity=100 time=10
the msg is note_off channel=9 note=74 velocity=100 time=1
the msg is note_on channel=9 note=72 velocity=100 time=3
the msg is note_off channel=9 note=72 velocity=100 time=1
the msg is note_on channel=9 note=74 velocity=100 time=10
the msg is note_off channel=9 note=74 velocity=100 time=1
the msg is note_on channel=9 note=74 velocity=100 time=10
the msg is note_off channel=9 note=74 velocity=100 time=1
the msg is note_on channel=9 note=74 velocity=100 time=4
the msg is note_off channel=9 note=74 velocity=100 time=1
the msg is note_on channel=9 note=71 velocity=100 time=4
the msg is note_off channel=9 note=71 velocity=100 time=1
the msg is note_on channel=9 note=74 velocity=100 time=4
the msg is note_off channel=9 note=74 velocity=100 time=1
the msg is note_on channel=9 note=76 velocity=100 time=10
the msg is note_off channel=9 note=76 velocity=100 time=1
the msg is note_on channel=9 note=79 velocity=100 time=10
the msg is note_off channel=9 note=79 velocity=100 time=1
the msg is note_on channel=9 note=72 velocity=100 time=3
the msg is note_off channel=9 note=72 velocity=100 time=1
the msg is note_on channel=9 note=72 velocity=100 time=6
the msg is note_off channel=9 note=72 velocity=100 time=1
the msg is note_on channel=9 note=72 velocity=100 time=3
the msg is note_off channel=9 note=72 velocity=100 time=1
the msg is note_on channel=9 note=72 velocity=100 time=10
the msg is note_off channel=9 note=72 velocity=100 time=1
the msg is note_on channel=9 note=72 velocity=100 time=4
the msg is note_off channel=9 note=72 velocity=100 time=1
the msg is note_on channel=9 note=72 velocity=100 time=4
the msg is note_off channel=9 note=72 velocity=100 time=1
the msg is <meta message end_of_track time=0>
the msg is <meta message track_name name='outTest85_512_1.0.mid' time=0>
the msg is note_on channel=9 note=69 velocity=100 time=1
the msg is note_off channel=9 note=69 velocity=100 time=1
the msg is note_on channel=9 note=72 velocity=100 time=75
the msg is note_off channel=9 note=72 velocity=100 time=1
the msg is note_on channel=9 note=72 velocity=100 time=4
the msg is note_off channel=9 note=72 velocity=100 time=1
the msg is note_on channel=9 note=72 velocity=100 time=4
the msg is note_off channel=9 note=72 velocity=100 time=1
the msg is note_on channel=9 note=72 velocity=100 time=10
the msg is note_off channel=9 note=72 velocity=100 time=1
the msg is note_on channel=9 note=74 velocity=100 time=10
the msg is note_off channel=9 note=74 velocity=100 time=1
the msg is note_on channel=9 note=74 velocity=100 time=4
the msg is note_off channel=9 note=74 velocity=100 time=1
the msg is note_on channel=9 note=71 velocity=100 time=4
the msg is note_off channel=9 note=71 velocity=100 time=1
the msg is note_on channel=9 note=74 velocity=100 time=10
the msg is note_off channel=9 note=74 velocity=100 time=1
the msg is note_on channel=9 note=74 velocity=100 time=4
the msg is note_off channel=9 note=74 velocity=100 time=1
the msg is note_on channel=9 note=71 velocity=100 time=4
the msg is note_off channel=9 note=71 velocity=100 time=1
the msg is note_on channel=9 note=71 velocity=100 time=4
the msg is note_off channel=9 note=71 velocity=100 time=1
the msg is note_on channel=9 note=69 velocity=100 time=4
the msg is note_off channel=9 note=69 velocity=100 time=1
the msg is note_on channel=9 note=72 velocity=100 time=55
the msg is note_off channel=9 note=72 velocity=100 time=1
the msg is note_on channel=9 note=72 velocity=100 time=10
the msg is note_off channel=9 note=72 velocity=100 time=1
the msg is note_on channel=9 note=72 velocity=100 time=4
the msg is note_off channel=9 note=72 velocity=100 time=1
the msg is note_on channel=9 note=72 velocity=100 time=4
the msg is note_off channel=9 note=72 velocity=100 time=1
the msg is note_on channel=9 note=72 velocity=100 time=4
the msg is note_off channel=9 note=72 velocity=100 time=1
the msg is note_on channel=9 note=76 velocity=100 time=4
the msg is note_off channel=9 note=76 velocity=100 time=1
the msg is note_on channel=9 note=79 velocity=100 time=10
the msg is note_off channel=9 note=79 velocity=100 time=1
the msg is note_on channel=9 note=76 velocity=100 time=10
the msg is note_off channel=9 note=76 velocity=100 time=1
the msg is note_on channel=9 note=79 velocity=100 time=10
the msg is note_off channel=9 note=79 velocity=100 time=1
the msg is note_on channel=9 note=79 velocity=100 time=4
the msg is note_off channel=9 note=79 velocity=100 time=1
the msg is note_on channel=9 note=76 velocity=100 time=4
the msg is note_off channel=9 note=76 velocity=100 time=1
the msg is note_on channel=9 note=74 velocity=100 time=4
the msg is note_off channel=9 note=74 velocity=100 time=1
the msg is note_on channel=9 note=72 velocity=100 time=4
the msg is note_off channel=9 note=72 velocity=100 time=1
the msg is note_on channel=9 note=74 velocity=100 time=10
the msg is note_off channel=9 note=74 velocity=100 time=1
the msg is note_on channel=9 note=74 velocity=100 time=10
the msg is note_off channel=9 note=74 velocity=100 time=1
the msg is note_on channel=9 note=74 velocity=100 time=10
the msg is note_off channel=9 note=74 velocity=100 time=1
the msg is note_on channel=9 note=76 velocity=100 time=10
the msg is note_off channel=9 note=76 velocity=100 time=1
the msg is note_on channel=9 note=79 velocity=100 time=10
the msg is note_off channel=9 note=79 velocity=100 time=1
the msg is note_on channel=9 note=79 velocity=100 time=6
the msg is note_off channel=9 note=79 velocity=100 time=1
the msg is note_on channel=9 note=76 velocity=100 time=3
the msg is note_off channel=9 note=76 velocity=100 time=1
the msg is note_on channel=9 note=74 velocity=100 time=6
the msg is note_off channel=9 note=74 velocity=100 time=1
the msg is note_on channel=9 note=72 velocity=100 time=3
the msg is note_off channel=9 note=72 velocity=100 time=1
the msg is note_on channel=9 note=74 velocity=100 time=10
the msg is note_off channel=9 note=74 velocity=100 time=1
the msg is note_on channel=9 note=76 velocity=100 time=10
the msg is note_off channel=9 note=76 velocity=100 time=1
the msg is note_on channel=9 note=72 velocity=100 time=4
the msg is note_off channel=9 note=72 velocity=100 time=1
the msg is note_on channel=9 note=74 velocity=100 time=4
the msg is note_off channel=9 note=74 velocity=100 time=1
the msg is note_on channel=9 note=74 velocity=100 time=10
the msg is note_off channel=9 note=74 velocity=100 time=1
the msg is note_on channel=9 note=74 velocity=100 time=10
the msg is note_off channel=9 note=74 velocity=100 time=1
the msg is note_on channel=9 note=74 velocity=100 time=4
the msg is note_off channel=9 note=74 velocity=100 time=1
the msg is note_on channel=9 note=71 velocity=100 time=4
the msg is note_off channel=9 note=71 velocity=100 time=1
the msg is note_on channel=9 note=74 velocity=100 time=10
the msg is note_off channel=9 note=74 velocity=100 time=1
the msg is note_on channel=9 note=74 velocity=100 time=10
the msg is note_off channel=9 note=74 velocity=100 time=1
the msg is note_on channel=9 note=72 velocity=100 time=3
the msg is note_off channel=9 note=72 velocity=100 time=1
the msg is note_on channel=9 note=74 velocity=100 time=10
the msg is note_off channel=9 note=74 velocity=100 time=1
the msg is note_on channel=9 note=74 velocity=100 time=10
the msg is note_off channel=9 note=74 velocity=100 time=1
the msg is note_on channel=9 note=74 velocity=100 time=4
the msg is note_off channel=9 note=74 velocity=100 time=1
the msg is note_on channel=9 note=71 velocity=100 time=4
the msg is note_off channel=9 note=71 velocity=100 time=1
the msg is note_on channel=9 note=74 velocity=100 time=4
the msg is note_off channel=9 note=74 velocity=100 time=1
the msg is note_on channel=9 note=76 velocity=100 time=10
the msg is note_off channel=9 note=76 velocity=100 time=1
the msg is note_on channel=9 note=79 velocity=100 time=10
the msg is note_off channel=9 note=79 velocity=100 time=1
the msg is note_on channel=9 note=72 velocity=100 time=3
the msg is note_off channel=9 note=72 velocity=100 time=1
the msg is note_on channel=9 note=72 velocity=100 time=6
the msg is note_off channel=9 note=72 velocity=100 time=1
the msg is note_on channel=9 note=72 velocity=100 time=3
the msg is note_off channel=9 note=72 velocity=100 time=1
the msg is note_on channel=9 note=72 velocity=100 time=10
the msg is note_off channel=9 note=72 velocity=100 time=1
the msg is note_on channel=9 note=72 velocity=100 time=4
the msg is note_off channel=9 note=72 velocity=100 time=1
the msg is note_on channel=9 note=72 velocity=100 time=4
the msg is note_off channel=9 note=72 velocity=100 time=1
the msg is <meta message end_of_track time=0>
the msg is <meta message track_name name='outTest85_512_1.0.mid' time=0>
the msg is note_on channel=9 note=69 velocity=100 time=1
the msg is note_off channel=9 note=69 velocity=100 time=1
the msg is note_on channel=9 note=72 velocity=100 time=75
the msg is note_off channel=9 note=72 velocity=100 time=1
the msg is note_on channel=9 note=72 velocity=100 time=4
the msg is note_off channel=9 note=72 velocity=100 time=1
the msg is note_on channel=9 note=72 velocity=100 time=4
the msg is note_off channel=9 note=72 velocity=100 time=1
the msg is note_on channel=9 note=72 velocity=100 time=10
the msg is note_off channel=9 note=72 velocity=100 time=1
the msg is note_on channel=9 note=74 velocity=100 time=10
the msg is note_off channel=9 note=74 velocity=100 time=1
the msg is note_on channel=9 note=74 velocity=100 time=4
the msg is note_off channel=9 note=74 velocity=100 time=1
the msg is note_on channel=9 note=71 velocity=100 time=4
the msg is note_off channel=9 note=71 velocity=100 time=1
the msg is note_on channel=9 note=74 velocity=100 time=10
the msg is note_off channel=9 note=74 velocity=100 time=1
the msg is note_on channel=9 note=74 velocity=100 time=4
the msg is note_off channel=9 note=74 velocity=100 time=1
the msg is note_on channel=9 note=71 velocity=100 time=4
the msg is note_off channel=9 note=71 velocity=100 time=1
the msg is note_on channel=9 note=71 velocity=100 time=4
the msg is note_off channel=9 note=71 velocity=100 time=1
the msg is note_on channel=9 note=69 velocity=100 time=4
the msg is note_off channel=9 note=69 velocity=100 time=1
the msg is note_on channel=9 note=72 velocity=100 time=55
the msg is note_off channel=9 note=72 velocity=100 time=1
the msg is note_on channel=9 note=72 velocity=100 time=10
the msg is note_off channel=9 note=72 velocity=100 time=1
the msg is note_on channel=9 note=72 velocity=100 time=4
the msg is note_off channel=9 note=72 velocity=100 time=1
the msg is note_on channel=9 note=72 velocity=100 time=4
the msg is note_off channel=9 note=72 velocity=100 time=1
the msg is note_on channel=9 note=72 velocity=100 time=4
the msg is note_off channel=9 note=72 velocity=100 time=1
the msg is note_on channel=9 note=76 velocity=100 time=4
the msg is note_off channel=9 note=76 velocity=100 time=1
the msg is note_on channel=9 note=79 velocity=100 time=10
the msg is note_off channel=9 note=79 velocity=100 time=1
the msg is note_on channel=9 note=76 velocity=100 time=10
the msg is note_off channel=9 note=76 velocity=100 time=1
the msg is note_on channel=9 note=79 velocity=100 time=10
the msg is note_off channel=9 note=79 velocity=100 time=1
the msg is note_on channel=9 note=79 velocity=100 time=4
the msg is note_off channel=9 note=79 velocity=100 time=1
the msg is note_on channel=9 note=76 velocity=100 time=4
the msg is note_off channel=9 note=76 velocity=100 time=1
the msg is note_on channel=9 note=74 velocity=100 time=4
the msg is note_off channel=9 note=74 velocity=100 time=1
the msg is note_on channel=9 note=72 velocity=100 time=4
the msg is note_off channel=9 note=72 velocity=100 time=1
the msg is note_on channel=9 note=74 velocity=100 time=10
the msg is note_off channel=9 note=74 velocity=100 time=1
the msg is note_on channel=9 note=74 velocity=100 time=10
the msg is note_off channel=9 note=74 velocity=100 time=1
the msg is note_on channel=9 note=74 velocity=100 time=10
the msg is note_off channel=9 note=74 velocity=100 time=1
the msg is note_on channel=9 note=76 velocity=100 time=10
the msg is note_off channel=9 note=76 velocity=100 time=1
the msg is note_on channel=9 note=79 velocity=100 time=10
the msg is note_off channel=9 note=79 velocity=100 time=1
the msg is note_on channel=9 note=79 velocity=100 time=6
the msg is note_off channel=9 note=79 velocity=100 time=1
the msg is note_on channel=9 note=76 velocity=100 time=3
the msg is note_off channel=9 note=76 velocity=100 time=1
the msg is note_on channel=9 note=74 velocity=100 time=6
the msg is note_off channel=9 note=74 velocity=100 time=1
the msg is note_on channel=9 note=72 velocity=100 time=3
the msg is note_off channel=9 note=72 velocity=100 time=1
the msg is note_on channel=9 note=74 velocity=100 time=10
the msg is note_off channel=9 note=74 velocity=100 time=1
the msg is note_on channel=9 note=76 velocity=100 time=10
the msg is note_off channel=9 note=76 velocity=100 time=1
the msg is note_on channel=9 note=72 velocity=100 time=4
the msg is note_off channel=9 note=72 velocity=100 time=1
the msg is note_on channel=9 note=74 velocity=100 time=4
the msg is note_off channel=9 note=74 velocity=100 time=1
the msg is note_on channel=9 note=74 velocity=100 time=10
the msg is note_off channel=9 note=74 velocity=100 time=1
the msg is note_on channel=9 note=74 velocity=100 time=10
the msg is note_off channel=9 note=74 velocity=100 time=1
the msg is note_on channel=9 note=74 velocity=100 time=4
the msg is note_off channel=9 note=74 velocity=100 time=1
the msg is note_on channel=9 note=71 velocity=100 time=4
the msg is note_off channel=9 note=71 velocity=100 time=1
the msg is note_on channel=9 note=74 velocity=100 time=10
the msg is note_off channel=9 note=74 velocity=100 time=1
the msg is note_on channel=9 note=74 velocity=100 time=10
the msg is note_off channel=9 note=74 velocity=100 time=1
the msg is note_on channel=9 note=72 velocity=100 time=3
the msg is note_off channel=9 note=72 velocity=100 time=1
the msg is note_on channel=9 note=74 velocity=100 time=10
the msg is note_off channel=9 note=74 velocity=100 time=1
the msg is note_on channel=9 note=74 velocity=100 time=10
the msg is note_off channel=9 note=74 velocity=100 time=1
the msg is note_on channel=9 note=74 velocity=100 time=4
the msg is note_off channel=9 note=74 velocity=100 time=1
the msg is note_on channel=9 note=71 velocity=100 time=4
the msg is note_off channel=9 note=71 velocity=100 time=1
the msg is note_on channel=9 note=74 velocity=100 time=4
the msg is note_off channel=9 note=74 velocity=100 time=1
the msg is note_on channel=9 note=76 velocity=100 time=10
the msg is note_off channel=9 note=76 velocity=100 time=1
the msg is note_on channel=9 note=79 velocity=100 time=10
the msg is note_off channel=9 note=79 velocity=100 time=1
the msg is note_on channel=9 note=72 velocity=100 time=3
the msg is note_off channel=9 note=72 velocity=100 time=1
the msg is note_on channel=9 note=72 velocity=100 time=6
the msg is note_off channel=9 note=72 velocity=100 time=1
the msg is note_on channel=9 note=72 velocity=100 time=3
the msg is note_off channel=9 note=72 velocity=100 time=1
the msg is note_on channel=9 note=72 velocity=100 time=10
the msg is note_off channel=9 note=72 velocity=100 time=1
the msg is note_on channel=9 note=72 velocity=100 time=4
the msg is note_off channel=9 note=72 velocity=100 time=1
the msg is note_on channel=9 note=72 velocity=100 time=4
the msg is note_off channel=9 note=72 velocity=100 time=1
the msg is <meta message end_of_track time=0>
the msg is <meta message track_name name='outTest85_512_1.0.mid' time=0>
the msg is note_on channel=9 note=69 velocity=100 time=1
the msg is note_off channel=9 note=69 velocity=100 time=1
the msg is note_on channel=9 note=72 velocity=100 time=75
the msg is note_off channel=9 note=72 velocity=100 time=1
the msg is note_on channel=9 note=72 velocity=100 time=4
the msg is note_off channel=9 note=72 velocity=100 time=1
the msg is note_on channel=9 note=72 velocity=100 time=4
the msg is note_off channel=9 note=72 velocity=100 time=1
the msg is note_on channel=9 note=72 velocity=100 time=10
the msg is note_off channel=9 note=72 velocity=100 time=1
the msg is note_on channel=9 note=74 velocity=100 time=10
the msg is note_off channel=9 note=74 velocity=100 time=1
the msg is note_on channel=9 note=74 velocity=100 time=4
the msg is note_off channel=9 note=74 velocity=100 time=1
the msg is note_on channel=9 note=71 velocity=100 time=4
the msg is note_off channel=9 note=71 velocity=100 time=1
the msg is note_on channel=9 note=74 velocity=100 time=10
the msg is note_off channel=9 note=74 velocity=100 time=1
the msg is note_on channel=9 note=74 velocity=100 time=4
the msg is note_off channel=9 note=74 velocity=100 time=1
the msg is note_on channel=9 note=71 velocity=100 time=4
the msg is note_off channel=9 note=71 velocity=100 time=1
the msg is note_on channel=9 note=71 velocity=100 time=4
the msg is note_off channel=9 note=71 velocity=100 time=1
the msg is note_on channel=9 note=69 velocity=100 time=4
the msg is note_off channel=9 note=69 velocity=100 time=1
the msg is note_on channel=9 note=72 velocity=100 time=55
the msg is note_off channel=9 note=72 velocity=100 time=1
the msg is note_on channel=9 note=72 velocity=100 time=10
the msg is note_off channel=9 note=72 velocity=100 time=1
the msg is note_on channel=9 note=72 velocity=100 time=4
the msg is note_off channel=9 note=72 velocity=100 time=1
the msg is note_on channel=9 note=72 velocity=100 time=4
the msg is note_off channel=9 note=72 velocity=100 time=1
the msg is note_on channel=9 note=72 velocity=100 time=4
the msg is note_off channel=9 note=72 velocity=100 time=1
the msg is note_on channel=9 note=76 velocity=100 time=4
the msg is note_off channel=9 note=76 velocity=100 time=1
the msg is note_on channel=9 note=79 velocity=100 time=10
the msg is note_off channel=9 note=79 velocity=100 time=1
the msg is note_on channel=9 note=76 velocity=100 time=10
the msg is note_off channel=9 note=76 velocity=100 time=1
the msg is note_on channel=9 note=79 velocity=100 time=10
the msg is note_off channel=9 note=79 velocity=100 time=1
the msg is note_on channel=9 note=79 velocity=100 time=4
the msg is note_off channel=9 note=79 velocity=100 time=1
the msg is note_on channel=9 note=76 velocity=100 time=4
the msg is note_off channel=9 note=76 velocity=100 time=1
the msg is note_on channel=9 note=74 velocity=100 time=4
the msg is note_off channel=9 note=74 velocity=100 time=1
the msg is note_on channel=9 note=72 velocity=100 time=4
the msg is note_off channel=9 note=72 velocity=100 time=1
the msg is note_on channel=9 note=74 velocity=100 time=10
the msg is note_off channel=9 note=74 velocity=100 time=1
the msg is note_on channel=9 note=74 velocity=100 time=10
the msg is note_off channel=9 note=74 velocity=100 time=1
the msg is note_on channel=9 note=74 velocity=100 time=10
the msg is note_off channel=9 note=74 velocity=100 time=1
the msg is note_on channel=9 note=76 velocity=100 time=10
the msg is note_off channel=9 note=76 velocity=100 time=1
the msg is note_on channel=9 note=79 velocity=100 time=10
the msg is note_off channel=9 note=79 velocity=100 time=1
the msg is note_on channel=9 note=79 velocity=100 time=6
the msg is note_off channel=9 note=79 velocity=100 time=1
the msg is note_on channel=9 note=76 velocity=100 time=3
the msg is note_off channel=9 note=76 velocity=100 time=1
the msg is note_on channel=9 note=74 velocity=100 time=6
the msg is note_off channel=9 note=74 velocity=100 time=1
the msg is note_on channel=9 note=72 velocity=100 time=3
the msg is note_off channel=9 note=72 velocity=100 time=1
the msg is note_on channel=9 note=74 velocity=100 time=10
the msg is note_off channel=9 note=74 velocity=100 time=1
the msg is note_on channel=9 note=76 velocity=100 time=10
the msg is note_off channel=9 note=76 velocity=100 time=1
the msg is note_on channel=9 note=72 velocity=100 time=4
the msg is note_off channel=9 note=72 velocity=100 time=1
the msg is note_on channel=9 note=74 velocity=100 time=4
the msg is note_off channel=9 note=74 velocity=100 time=1
the msg is note_on channel=9 note=74 velocity=100 time=10
the msg is note_off channel=9 note=74 velocity=100 time=1
the msg is note_on channel=9 note=74 velocity=100 time=10
the msg is note_off channel=9 note=74 velocity=100 time=1
the msg is note_on channel=9 note=74 velocity=100 time=4
the msg is note_off channel=9 note=74 velocity=100 time=1
the msg is note_on channel=9 note=71 velocity=100 time=4
the msg is note_off channel=9 note=71 velocity=100 time=1
the msg is note_on channel=9 note=74 velocity=100 time=10
the msg is note_off channel=9 note=74 velocity=100 time=1
the msg is note_on channel=9 note=74 velocity=100 time=10
the msg is note_off channel=9 note=74 velocity=100 time=1
the msg is note_on channel=9 note=72 velocity=100 time=3
the msg is note_off channel=9 note=72 velocity=100 time=1
the msg is note_on channel=9 note=74 velocity=100 time=10
the msg is note_off channel=9 note=74 velocity=100 time=1
the msg is note_on channel=9 note=74 velocity=100 time=10
the msg is note_off channel=9 note=74 velocity=100 time=1
the msg is note_on channel=9 note=74 velocity=100 time=4
the msg is note_off channel=9 note=74 velocity=100 time=1
the msg is note_on channel=9 note=71 velocity=100 time=4
the msg is note_off channel=9 note=71 velocity=100 time=1
the msg is note_on channel=9 note=74 velocity=100 time=4
the msg is note_off channel=9 note=74 velocity=100 time=1
the msg is note_on channel=9 note=76 velocity=100 time=10
the msg is note_off channel=9 note=76 velocity=100 time=1
the msg is note_on channel=9 note=79 velocity=100 time=10
the msg is note_off channel=9 note=79 velocity=100 time=1
the msg is note_on channel=9 note=72 velocity=100 time=3
the msg is note_off channel=9 note=72 velocity=100 time=1
the msg is note_on channel=9 note=72 velocity=100 time=6
the msg is note_off channel=9 note=72 velocity=100 time=1
the msg is note_on channel=9 note=72 velocity=100 time=3
the msg is note_off channel=9 note=72 velocity=100 time=1
the msg is note_on channel=9 note=72 velocity=100 time=10
the msg is note_off channel=9 note=72 velocity=100 time=1
the msg is note_on channel=9 note=72 velocity=100 time=4
the msg is note_off channel=9 note=72 velocity=100 time=1
the msg is note_on channel=9 note=72 velocity=100 time=4
the msg is note_off channel=9 note=72 velocity=100 time=1
the msg is <meta message end_of_track time=0>
the msg is <meta message track_name name='outTest85_512_1.0.mid' time=0>
the msg is note_on channel=9 note=69 velocity=100 time=1
the msg is note_off channel=9 note=69 velocity=100 time=1
the msg is note_on channel=9 note=72 velocity=100 time=75
the msg is note_off channel=9 note=72 velocity=100 time=1
the msg is note_on channel=9 note=72 velocity=100 time=4
the msg is note_off channel=9 note=72 velocity=100 time=1
the msg is note_on channel=9 note=72 velocity=100 time=4
the msg is note_off channel=9 note=72 velocity=100 time=1
the msg is note_on channel=9 note=72 velocity=100 time=10
the msg is note_off channel=9 note=72 velocity=100 time=1
the msg is note_on channel=9 note=74 velocity=100 time=10
the msg is note_off channel=9 note=74 velocity=100 time=1
the msg is note_on channel=9 note=74 velocity=100 time=4
the msg is note_off channel=9 note=74 velocity=100 time=1
the msg is note_on channel=9 note=71 velocity=100 time=4
the msg is note_off channel=9 note=71 velocity=100 time=1
the msg is note_on channel=9 note=74 velocity=100 time=10
the msg is note_off channel=9 note=74 velocity=100 time=1
the msg is note_on channel=9 note=74 velocity=100 time=4
the msg is note_off channel=9 note=74 velocity=100 time=1
the msg is note_on channel=9 note=71 velocity=100 time=4
the msg is note_off channel=9 note=71 velocity=100 time=1
the msg is note_on channel=9 note=71 velocity=100 time=4
the msg is note_off channel=9 note=71 velocity=100 time=1
the msg is note_on channel=9 note=69 velocity=100 time=4
the msg is note_off channel=9 note=69 velocity=100 time=1
the msg is note_on channel=9 note=72 velocity=100 time=55
the msg is note_off channel=9 note=72 velocity=100 time=1
the msg is note_on channel=9 note=72 velocity=100 time=10
the msg is note_off channel=9 note=72 velocity=100 time=1
the msg is note_on channel=9 note=72 velocity=100 time=4
the msg is note_off channel=9 note=72 velocity=100 time=1
the msg is note_on channel=9 note=72 velocity=100 time=4
the msg is note_off channel=9 note=72 velocity=100 time=1
the msg is note_on channel=9 note=72 velocity=100 time=4
the msg is note_off channel=9 note=72 velocity=100 time=1
the msg is note_on channel=9 note=76 velocity=100 time=4
the msg is note_off channel=9 note=76 velocity=100 time=1
the msg is note_on channel=9 note=79 velocity=100 time=10
the msg is note_off channel=9 note=79 velocity=100 time=1
the msg is note_on channel=9 note=76 velocity=100 time=10
the msg is note_off channel=9 note=76 velocity=100 time=1
the msg is note_on channel=9 note=79 velocity=100 time=10
the msg is note_off channel=9 note=79 velocity=100 time=1
the msg is note_on channel=9 note=79 velocity=100 time=4
the msg is note_off channel=9 note=79 velocity=100 time=1
the msg is note_on channel=9 note=76 velocity=100 time=4
the msg is note_off channel=9 note=76 velocity=100 time=1
the msg is note_on channel=9 note=74 velocity=100 time=4
the msg is note_off channel=9 note=74 velocity=100 time=1
the msg is note_on channel=9 note=72 velocity=100 time=4
the msg is note_off channel=9 note=72 velocity=100 time=1
the msg is note_on channel=9 note=74 velocity=100 time=10
the msg is note_off channel=9 note=74 velocity=100 time=1
the msg is note_on channel=9 note=74 velocity=100 time=10
the msg is note_off channel=9 note=74 velocity=100 time=1
the msg is note_on channel=9 note=74 velocity=100 time=10
the msg is note_off channel=9 note=74 velocity=100 time=1
the msg is note_on channel=9 note=76 velocity=100 time=10
the msg is note_off channel=9 note=76 velocity=100 time=1
the msg is note_on channel=9 note=79 velocity=100 time=10
the msg is note_off channel=9 note=79 velocity=100 time=1
the msg is note_on channel=9 note=79 velocity=100 time=6
the msg is note_off channel=9 note=79 velocity=100 time=1
the msg is note_on channel=9 note=76 velocity=100 time=3
the msg is note_off channel=9 note=76 velocity=100 time=1
the msg is note_on channel=9 note=74 velocity=100 time=6
the msg is note_off channel=9 note=74 velocity=100 time=1
the msg is note_on channel=9 note=72 velocity=100 time=3
the msg is note_off channel=9 note=72 velocity=100 time=1
the msg is note_on channel=9 note=74 velocity=100 time=10
the msg is note_off channel=9 note=74 velocity=100 time=1
the msg is note_on channel=9 note=76 velocity=100 time=10
the msg is note_off channel=9 note=76 velocity=100 time=1
the msg is note_on channel=9 note=72 velocity=100 time=4
the msg is note_off channel=9 note=72 velocity=100 time=1
the msg is note_on channel=9 note=74 velocity=100 time=4
the msg is note_off channel=9 note=74 velocity=100 time=1
the msg is note_on channel=9 note=74 velocity=100 time=10
the msg is note_off channel=9 note=74 velocity=100 time=1
the msg is note_on channel=9 note=74 velocity=100 time=10
the msg is note_off channel=9 note=74 velocity=100 time=1
the msg is note_on channel=9 note=74 velocity=100 time=4
the msg is note_off channel=9 note=74 velocity=100 time=1
the msg is note_on channel=9 note=71 velocity=100 time=4
the msg is note_off channel=9 note=71 velocity=100 time=1
the msg is note_on channel=9 note=74 velocity=100 time=10
the msg is note_off channel=9 note=74 velocity=100 time=1
the msg is note_on channel=9 note=74 velocity=100 time=10
the msg is note_off channel=9 note=74 velocity=100 time=1
the msg is note_on channel=9 note=72 velocity=100 time=3
the msg is note_off channel=9 note=72 velocity=100 time=1
the msg is note_on channel=9 note=74 velocity=100 time=10
the msg is note_off channel=9 note=74 velocity=100 time=1
the msg is note_on channel=9 note=74 velocity=100 time=10
the msg is note_off channel=9 note=74 velocity=100 time=1
the msg is note_on channel=9 note=74 velocity=100 time=4
the msg is note_off channel=9 note=74 velocity=100 time=1
the msg is note_on channel=9 note=71 velocity=100 time=4
the msg is note_off channel=9 note=71 velocity=100 time=1
the msg is note_on channel=9 note=74 velocity=100 time=4
the msg is note_off channel=9 note=74 velocity=100 time=1
the msg is note_on channel=9 note=76 velocity=100 time=10
the msg is note_off channel=9 note=76 velocity=100 time=1
the msg is note_on channel=9 note=79 velocity=100 time=10
the msg is note_off channel=9 note=79 velocity=100 time=1
the msg is note_on channel=9 note=72 velocity=100 time=3
the msg is note_off channel=9 note=72 velocity=100 time=1
the msg is note_on channel=9 note=72 velocity=100 time=6
the msg is note_off channel=9 note=72 velocity=100 time=1
the msg is note_on channel=9 note=72 velocity=100 time=3
the msg is note_off channel=9 note=72 velocity=100 time=1
the msg is note_on channel=9 note=72 velocity=100 time=10
the msg is note_off channel=9 note=72 velocity=100 time=1
the msg is note_on channel=9 note=72 velocity=100 time=4
the msg is note_off channel=9 note=72 velocity=100 time=1
the msg is note_on channel=9 note=72 velocity=100 time=4
the msg is note_off channel=9 note=72 velocity=100 time=1
the msg is <meta message end_of_track time=0>
the msg is <meta message track_name name='Piano' time=0>
the msg is program_change channel=0 program=0 time=0
the msg is note_off channel=0 note=72 velocity=0 time=0
the msg is pitchwheel channel=0 pitch=0 time=0
the msg is program_change channel=0 program=0 time=0
the msg is <meta message set_tempo tempo=500000 time=0>
the msg is <meta message time_signature numerator=4 denominator=4 clocks_per_click=24 notated_32nd_notes_per_beat=8 time=0>
the msg is note_on channel=0 note=72 velocity=100 time=0
the msg is note_off channel=0 note=74 velocity=0 time=34
the msg is note_on channel=0 note=74 velocity=100 time=0
the msg is note_off channel=0 note=74 velocity=0 time=17
the msg is note_on channel=0 note=74 velocity=100 time=0
the msg is note_off channel=0 note=74 velocity=0 time=34
the msg is note_on channel=0 note=74 velocity=100 time=0
the msg is note_off channel=0 note=74 velocity=0 time=17
the msg is note_on channel=0 note=74 velocity=100 time=0
the msg is note_off channel=0 note=76 velocity=0 time=34
the msg is note_on channel=0 note=76 velocity=100 time=0
the msg is note_off channel=0 note=79 velocity=0 time=17
the msg is note_on channel=0 note=79 velocity=100 time=0
the msg is note_off channel=0 note=79 velocity=0 time=17
the msg is note_on channel=0 note=79 velocity=100 time=0
the msg is note_off channel=0 note=76 velocity=0 time=17
the msg is note_on channel=0 note=76 velocity=100 time=0
the msg is note_off channel=0 note=74 velocity=0 time=4
the msg is note_on channel=0 note=74 velocity=100 time=0
the msg is note_off channel=0 note=72 velocity=0 time=12
the msg is note_on channel=0 note=72 velocity=100 time=0
the msg is note_off channel=0 note=72 velocity=0 time=89
the msg is note_on channel=0 note=72 velocity=100 time=0
the msg is note_off channel=0 note=72 velocity=0 time=12
the msg is note_on channel=0 note=72 velocity=100 time=0
the msg is note_off channel=0 note=74 velocity=0 time=25
the msg is note_on channel=0 note=74 velocity=100 time=0
the msg is note_off channel=0 note=74 velocity=0 time=25
the msg is note_on channel=0 note=74 velocity=100 time=0
the msg is note_off channel=0 note=74 velocity=0 time=12
the msg is note_on channel=0 note=74 velocity=100 time=0
the msg is note_off channel=0 note=76 velocity=0 time=25
the msg is note_on channel=0 note=76 velocity=100 time=0
the msg is note_off channel=0 note=79 velocity=0 time=25
the msg is note_on channel=0 note=79 velocity=100 time=0
the msg is note_off channel=0 note=79 velocity=0 time=12
the msg is note_on channel=0 note=79 velocity=100 time=0
the msg is note_off channel=0 note=76 velocity=0 time=12
the msg is note_on channel=0 note=76 velocity=100 time=0
the msg is note_off channel=0 note=74 velocity=0 time=12
the msg is note_on channel=0 note=74 velocity=100 time=0
the msg is note_off channel=0 note=72 velocity=0 time=12
the msg is note_on channel=0 note=72 velocity=100 time=0
the msg is note_off channel=0 note=74 velocity=0 time=25
the msg is note_on channel=0 note=74 velocity=100 time=0
the msg is note_off channel=0 note=76 velocity=0 time=25
the msg is note_on channel=0 note=76 velocity=100 time=0
the msg is note_off channel=0 note=79 velocity=0 time=25
the msg is note_on channel=0 note=79 velocity=100 time=0
the msg is note_off channel=0 note=79 velocity=0 time=12
the msg is note_on channel=0 note=79 velocity=100 time=0
the msg is note_off channel=0 note=76 velocity=0 time=12
the msg is note_on channel=0 note=76 velocity=100 time=0
the msg is note_off channel=0 note=74 velocity=0 time=12
the msg is note_on channel=0 note=74 velocity=100 time=0
the msg is note_off channel=0 note=72 velocity=0 time=12
the msg is note_on channel=0 note=72 velocity=100 time=0
the msg is note_off channel=0 note=74 velocity=0 time=25
the msg is note_on channel=0 note=74 velocity=100 time=0
the msg is note_off channel=0 note=74 velocity=0 time=12
the msg is note_on channel=0 note=74 velocity=100 time=0
the msg is note_off channel=0 note=74 velocity=0 time=12
the msg is note_on channel=0 note=74 velocity=100 time=0
the msg is note_off channel=0 note=74 velocity=0 time=25
the msg is note_on channel=0 note=74 velocity=100 time=0
the msg is note_off channel=0 note=74 velocity=0 time=25
the msg is note_on channel=0 note=74 velocity=100 time=0
the msg is note_off channel=0 note=76 velocity=0 time=25
the msg is note_on channel=0 note=76 velocity=100 time=0
the msg is note_off channel=0 note=79 velocity=0 time=25
the msg is note_on channel=0 note=79 velocity=100 time=0
the msg is note_off channel=0 note=79 velocity=0 time=12
the msg is note_on channel=0 note=79 velocity=100 time=0
the msg is note_off channel=0 note=76 velocity=0 time=12
the msg is note_on channel=0 note=76 velocity=100 time=0
the msg is note_off channel=0 note=74 velocity=0 time=12
the msg is note_on channel=0 note=74 velocity=100 time=0
the msg is note_off channel=0 note=72 velocity=0 time=12
the msg is note_on channel=0 note=72 velocity=100 time=0
the msg is note_off channel=0 note=72 velocity=0 time=81
the msg is note_on channel=0 note=72 velocity=100 time=0
the msg is note_off channel=0 note=72 velocity=0 time=8
the msg is note_on channel=0 note=72 velocity=100 time=0
the msg is note_off channel=0 note=74 velocity=0 time=25
the msg is note_on channel=0 note=74 velocity=100 time=0
the msg is note_off channel=0 note=74 velocity=0 time=25
the msg is note_on channel=0 note=74 velocity=100 time=0
the msg is note_off channel=0 note=74 velocity=0 time=25
the msg is note_on channel=0 note=74 velocity=100 time=0
the msg is note_off channel=0 note=74 velocity=0 time=25
the msg is note_on channel=0 note=74 velocity=100 time=0
the msg is note_off channel=0 note=74 velocity=0 time=25
the msg is note_on channel=0 note=74 velocity=100 time=0
the msg is note_off channel=0 note=74 velocity=0 time=25
the msg is note_on channel=0 note=74 velocity=100 time=0
the msg is note_off channel=0 note=76 velocity=0 time=25
the msg is note_on channel=0 note=76 velocity=100 time=0
the msg is note_off channel=0 note=79 velocity=0 time=25
the msg is note_on channel=0 note=79 velocity=100 time=0
the msg is note_off channel=0 note=79 velocity=0 time=12
the msg is note_on channel=0 note=79 velocity=100 time=0
the msg is note_off channel=0 note=76 velocity=0 time=12
the msg is note_on channel=0 note=76 velocity=100 time=0
the msg is note_off channel=0 note=74 velocity=0 time=17
the msg is note_on channel=0 note=74 velocity=100 time=0
the msg is note_off channel=0 note=72 velocity=0 time=8
the msg is note_on channel=0 note=72 velocity=100 time=0
the msg is note_off channel=0 note=72 velocity=0 time=25
the msg is note_on channel=0 note=72 velocity=100 time=0
the msg is note_off channel=0 note=72 velocity=0 time=25
the msg is note_on channel=0 note=72 velocity=100 time=0
the msg is note_off channel=0 note=72 velocity=0 time=12
the msg is note_on channel=0 note=72 velocity=100 time=0
the msg is note_off channel=0 note=72 velocity=0 time=29
the msg is note_on channel=0 note=72 velocity=100 time=0
the msg is note_off channel=0 note=72 velocity=0 time=8
the msg is note_on channel=0 note=72 velocity=100 time=0
the msg is note_off channel=0 note=72 velocity=0 time=25
the msg is note_on channel=0 note=72 velocity=100 time=0
the msg is note_off channel=0 note=72 velocity=0 time=12
the msg is note_on channel=0 note=72 velocity=100 time=0
the msg is note_off channel=0 note=72 velocity=0 time=12
the msg is note_on channel=0 note=72 velocity=100 time=0
the msg is note_off channel=0 note=72 velocity=0 time=12
the msg is note_on channel=0 note=72 velocity=100 time=0
the msg is note_off channel=0 note=76 velocity=0 time=12
the msg is note_on channel=0 note=76 velocity=100 time=0
the msg is note_off channel=0 note=79 velocity=0 time=25
the msg is note_on channel=0 note=79 velocity=100 time=0
the msg is note_off channel=0 note=79 velocity=0 time=12
the msg is note_on channel=0 note=79 velocity=100 time=0
the msg is note_off channel=0 note=76 velocity=0 time=12
the msg is note_on channel=0 note=76 velocity=100 time=0
the msg is note_off channel=0 note=74 velocity=0 time=12
the msg is note_on channel=0 note=74 velocity=100 time=0
the msg is note_off channel=0 note=72 velocity=0 time=12
the msg is note_on channel=0 note=72 velocity=100 time=0
the msg is note_off channel=0 note=72 velocity=0 time=76
the msg is note_on channel=0 note=72 velocity=100 time=0
the msg is note_off channel=0 note=72 velocity=0 time=12
the msg is note_on channel=0 note=72 velocity=100 time=0
the msg is note_off channel=0 note=72 velocity=0 time=12
the msg is note_on channel=0 note=72 velocity=100 time=0
the msg is note_off channel=0 note=72 velocity=0 time=8
the msg is note_on channel=0 note=72 velocity=100 time=0
the msg is note_off channel=0 note=72 velocity=0 time=17
the msg is note_on channel=0 note=72 velocity=100 time=0
the msg is note_off channel=0 note=72 velocity=0 time=12
the msg is note_on channel=0 note=72 velocity=100 time=0
the msg is note_off channel=0 note=72 velocity=0 time=12
the msg is note_on channel=0 note=72 velocity=100 time=0
the msg is note_off channel=0 note=76 velocity=0 time=8
the msg is note_on channel=0 note=76 velocity=100 time=0
the msg is note_off channel=0 note=79 velocity=0 time=29
the msg is note_on channel=0 note=79 velocity=100 time=0
the msg is note_off channel=0 note=79 velocity=0 time=12
the msg is note_on channel=0 note=79 velocity=100 time=0
the msg is note_off channel=0 note=76 velocity=0 time=8
the msg is note_on channel=0 note=76 velocity=100 time=0
the msg is note_off channel=0 note=74 velocity=0 time=17
the msg is note_on channel=0 note=74 velocity=100 time=0
the msg is <meta message end_of_track time=51>
the msg is <meta message track_name name='Piano' time=0>
the msg is program_change channel=0 program=0 time=0
the msg is note_off channel=0 note=72 velocity=0 time=0
the msg is pitchwheel channel=0 pitch=0 time=0
the msg is program_change channel=0 program=0 time=0
the msg is <meta message set_tempo tempo=500000 time=0>
the msg is <meta message time_signature numerator=4 denominator=4 clocks_per_click=24 notated_32nd_notes_per_beat=8 time=0>
the msg is note_on channel=0 note=72 velocity=100 time=0
the msg is note_off channel=0 note=74 velocity=0 time=34
the msg is note_on channel=0 note=74 velocity=100 time=0
the msg is note_off channel=0 note=74 velocity=0 time=17
the msg is note_on channel=0 note=74 velocity=100 time=0
the msg is note_off channel=0 note=74 velocity=0 time=34
the msg is note_on channel=0 note=74 velocity=100 time=0
the msg is note_off channel=0 note=74 velocity=0 time=17
the msg is note_on channel=0 note=74 velocity=100 time=0
the msg is note_off channel=0 note=76 velocity=0 time=34
the msg is note_on channel=0 note=76 velocity=100 time=0
the msg is note_off channel=0 note=79 velocity=0 time=17
the msg is note_on channel=0 note=79 velocity=100 time=0
the msg is note_off channel=0 note=79 velocity=0 time=17
the msg is note_on channel=0 note=79 velocity=100 time=0
the msg is note_off channel=0 note=76 velocity=0 time=17
the msg is note_on channel=0 note=76 velocity=100 time=0
the msg is note_off channel=0 note=74 velocity=0 time=4
the msg is note_on channel=0 note=74 velocity=100 time=0
the msg is note_off channel=0 note=72 velocity=0 time=12
the msg is note_on channel=0 note=72 velocity=100 time=0
the msg is note_off channel=0 note=72 velocity=0 time=89
the msg is note_on channel=0 note=72 velocity=100 time=0
the msg is note_off channel=0 note=72 velocity=0 time=12
the msg is note_on channel=0 note=72 velocity=100 time=0
the msg is note_off channel=0 note=74 velocity=0 time=25
the msg is note_on channel=0 note=74 velocity=100 time=0
the msg is note_off channel=0 note=74 velocity=0 time=25
the msg is note_on channel=0 note=74 velocity=100 time=0
the msg is note_off channel=0 note=74 velocity=0 time=12
the msg is note_on channel=0 note=74 velocity=100 time=0
the msg is note_off channel=0 note=76 velocity=0 time=25
the msg is note_on channel=0 note=76 velocity=100 time=0
the msg is note_off channel=0 note=79 velocity=0 time=25
the msg is note_on channel=0 note=79 velocity=100 time=0
the msg is note_off channel=0 note=79 velocity=0 time=12
the msg is note_on channel=0 note=79 velocity=100 time=0
the msg is note_off channel=0 note=76 velocity=0 time=12
the msg is note_on channel=0 note=76 velocity=100 time=0
the msg is note_off channel=0 note=74 velocity=0 time=12
the msg is note_on channel=0 note=74 velocity=100 time=0
the msg is note_off channel=0 note=72 velocity=0 time=12
the msg is note_on channel=0 note=72 velocity=100 time=0
the msg is note_off channel=0 note=74 velocity=0 time=25
the msg is note_on channel=0 note=74 velocity=100 time=0
the msg is note_off channel=0 note=76 velocity=0 time=25
the msg is note_on channel=0 note=76 velocity=100 time=0
the msg is note_off channel=0 note=79 velocity=0 time=25
the msg is note_on channel=0 note=79 velocity=100 time=0
the msg is note_off channel=0 note=79 velocity=0 time=12
the msg is note_on channel=0 note=79 velocity=100 time=0
the msg is note_off channel=0 note=76 velocity=0 time=12
the msg is note_on channel=0 note=76 velocity=100 time=0
the msg is note_off channel=0 note=74 velocity=0 time=12
the msg is note_on channel=0 note=74 velocity=100 time=0
the msg is note_off channel=0 note=72 velocity=0 time=12
the msg is note_on channel=0 note=72 velocity=100 time=0
the msg is note_off channel=0 note=74 velocity=0 time=25
the msg is note_on channel=0 note=74 velocity=100 time=0
the msg is note_off channel=0 note=74 velocity=0 time=12
the msg is note_on channel=0 note=74 velocity=100 time=0
the msg is note_off channel=0 note=74 velocity=0 time=12
the msg is note_on channel=0 note=74 velocity=100 time=0
the msg is note_off channel=0 note=74 velocity=0 time=25
the msg is note_on channel=0 note=74 velocity=100 time=0
the msg is note_off channel=0 note=74 velocity=0 time=25
the msg is note_on channel=0 note=74 velocity=100 time=0
the msg is note_off channel=0 note=76 velocity=0 time=25
the msg is note_on channel=0 note=76 velocity=100 time=0
the msg is note_off channel=0 note=79 velocity=0 time=25
the msg is note_on channel=0 note=79 velocity=100 time=0
the msg is note_off channel=0 note=79 velocity=0 time=12
the msg is note_on channel=0 note=79 velocity=100 time=0
the msg is note_off channel=0 note=76 velocity=0 time=12
the msg is note_on channel=0 note=76 velocity=100 time=0
the msg is note_off channel=0 note=74 velocity=0 time=12
the msg is note_on channel=0 note=74 velocity=100 time=0
the msg is note_off channel=0 note=72 velocity=0 time=12
the msg is note_on channel=0 note=72 velocity=100 time=0
the msg is note_off channel=0 note=72 velocity=0 time=81
the msg is note_on channel=0 note=72 velocity=100 time=0
the msg is note_off channel=0 note=72 velocity=0 time=8
the msg is note_on channel=0 note=72 velocity=100 time=0
the msg is note_off channel=0 note=74 velocity=0 time=25
the msg is note_on channel=0 note=74 velocity=100 time=0
the msg is note_off channel=0 note=74 velocity=0 time=25
the msg is note_on channel=0 note=74 velocity=100 time=0
the msg is note_off channel=0 note=74 velocity=0 time=25
the msg is note_on channel=0 note=74 velocity=100 time=0
the msg is note_off channel=0 note=74 velocity=0 time=25
the msg is note_on channel=0 note=74 velocity=100 time=0
the msg is note_off channel=0 note=74 velocity=0 time=25
the msg is note_on channel=0 note=74 velocity=100 time=0
the msg is note_off channel=0 note=74 velocity=0 time=25
the msg is note_on channel=0 note=74 velocity=100 time=0
the msg is note_off channel=0 note=76 velocity=0 time=25
the msg is note_on channel=0 note=76 velocity=100 time=0
the msg is note_off channel=0 note=79 velocity=0 time=25
the msg is note_on channel=0 note=79 velocity=100 time=0
the msg is note_off channel=0 note=79 velocity=0 time=12
the msg is note_on channel=0 note=79 velocity=100 time=0
the msg is note_off channel=0 note=76 velocity=0 time=12
the msg is note_on channel=0 note=76 velocity=100 time=0
the msg is note_off channel=0 note=74 velocity=0 time=17
the msg is note_on channel=0 note=74 velocity=100 time=0
the msg is note_off channel=0 note=72 velocity=0 time=8
the msg is note_on channel=0 note=72 velocity=100 time=0
the msg is note_off channel=0 note=72 velocity=0 time=25
the msg is note_on channel=0 note=72 velocity=100 time=0
the msg is note_off channel=0 note=72 velocity=0 time=25
the msg is note_on channel=0 note=72 velocity=100 time=0
the msg is note_off channel=0 note=72 velocity=0 time=12
the msg is note_on channel=0 note=72 velocity=100 time=0
the msg is note_off channel=0 note=72 velocity=0 time=29
the msg is note_on channel=0 note=72 velocity=100 time=0
the msg is note_off channel=0 note=72 velocity=0 time=8
the msg is note_on channel=0 note=72 velocity=100 time=0
the msg is note_off channel=0 note=72 velocity=0 time=25
the msg is note_on channel=0 note=72 velocity=100 time=0
the msg is note_off channel=0 note=72 velocity=0 time=12
the msg is note_on channel=0 note=72 velocity=100 time=0
the msg is note_off channel=0 note=72 velocity=0 time=12
the msg is note_on channel=0 note=72 velocity=100 time=0
the msg is note_off channel=0 note=72 velocity=0 time=12
the msg is note_on channel=0 note=72 velocity=100 time=0
the msg is note_off channel=0 note=76 velocity=0 time=12
the msg is note_on channel=0 note=76 velocity=100 time=0
the msg is note_off channel=0 note=79 velocity=0 time=25
the msg is note_on channel=0 note=79 velocity=100 time=0
the msg is note_off channel=0 note=79 velocity=0 time=12
the msg is note_on channel=0 note=79 velocity=100 time=0
the msg is note_off channel=0 note=76 velocity=0 time=12
the msg is note_on channel=0 note=76 velocity=100 time=0
the msg is note_off channel=0 note=74 velocity=0 time=12
the msg is note_on channel=0 note=74 velocity=100 time=0
the msg is note_off channel=0 note=72 velocity=0 time=12
the msg is note_on channel=0 note=72 velocity=100 time=0
the msg is note_off channel=0 note=72 velocity=0 time=76
the msg is note_on channel=0 note=72 velocity=100 time=0
the msg is note_off channel=0 note=72 velocity=0 time=12
the msg is note_on channel=0 note=72 velocity=100 time=0
the msg is note_off channel=0 note=72 velocity=0 time=12
the msg is note_on channel=0 note=72 velocity=100 time=0
the msg is note_off channel=0 note=72 velocity=0 time=8
the msg is note_on channel=0 note=72 velocity=100 time=0
the msg is note_off channel=0 note=72 velocity=0 time=17
the msg is note_on channel=0 note=72 velocity=100 time=0
the msg is note_off channel=0 note=72 velocity=0 time=12
the msg is note_on channel=0 note=72 velocity=100 time=0
the msg is note_off channel=0 note=72 velocity=0 time=12
the msg is note_on channel=0 note=72 velocity=100 time=0
the msg is note_off channel=0 note=76 velocity=0 time=8
the msg is note_on channel=0 note=76 velocity=100 time=0
the msg is note_off channel=0 note=79 velocity=0 time=29
the msg is note_on channel=0 note=79 velocity=100 time=0
the msg is note_off channel=0 note=79 velocity=0 time=12
the msg is note_on channel=0 note=79 velocity=100 time=0
the msg is note_off channel=0 note=76 velocity=0 time=8
the msg is note_on channel=0 note=76 velocity=100 time=0
the msg is note_off channel=0 note=74 velocity=0 time=17
the msg is note_on channel=0 note=74 velocity=100 time=0
the msg is <meta message end_of_track time=51>
the msg is <meta message track_name name='Piano' time=0>
the msg is program_change channel=0 program=0 time=0
the msg is note_off channel=0 note=72 velocity=0 time=0
the msg is pitchwheel channel=0 pitch=0 time=0
the msg is program_change channel=0 program=0 time=0
the msg is <meta message set_tempo tempo=500000 time=0>
the msg is <meta message time_signature numerator=4 denominator=4 clocks_per_click=24 notated_32nd_notes_per_beat=8 time=0>
the msg is note_on channel=0 note=72 velocity=100 time=0
the msg is note_off channel=0 note=74 velocity=0 time=34
the msg is note_on channel=0 note=74 velocity=100 time=0
the msg is note_off channel=0 note=74 velocity=0 time=17
the msg is note_on channel=0 note=74 velocity=100 time=0
the msg is note_off channel=0 note=74 velocity=0 time=34
the msg is note_on channel=0 note=74 velocity=100 time=0
the msg is note_off channel=0 note=74 velocity=0 time=17
the msg is note_on channel=0 note=74 velocity=100 time=0
the msg is note_off channel=0 note=76 velocity=0 time=34
the msg is note_on channel=0 note=76 velocity=100 time=0
the msg is note_off channel=0 note=79 velocity=0 time=17
the msg is note_on channel=0 note=79 velocity=100 time=0
the msg is note_off channel=0 note=79 velocity=0 time=17
the msg is note_on channel=0 note=79 velocity=100 time=0
the msg is note_off channel=0 note=76 velocity=0 time=17
the msg is note_on channel=0 note=76 velocity=100 time=0
the msg is note_off channel=0 note=74 velocity=0 time=4
the msg is note_on channel=0 note=74 velocity=100 time=0
the msg is note_off channel=0 note=72 velocity=0 time=12
the msg is note_on channel=0 note=72 velocity=100 time=0
the msg is note_off channel=0 note=72 velocity=0 time=89
the msg is note_on channel=0 note=72 velocity=100 time=0
the msg is note_off channel=0 note=72 velocity=0 time=12
the msg is note_on channel=0 note=72 velocity=100 time=0
the msg is note_off channel=0 note=74 velocity=0 time=25
the msg is note_on channel=0 note=74 velocity=100 time=0
the msg is note_off channel=0 note=74 velocity=0 time=25
the msg is note_on channel=0 note=74 velocity=100 time=0
the msg is note_off channel=0 note=74 velocity=0 time=12
the msg is note_on channel=0 note=74 velocity=100 time=0
the msg is note_off channel=0 note=76 velocity=0 time=25
the msg is note_on channel=0 note=76 velocity=100 time=0
the msg is note_off channel=0 note=79 velocity=0 time=25
the msg is note_on channel=0 note=79 velocity=100 time=0
the msg is note_off channel=0 note=79 velocity=0 time=12
the msg is note_on channel=0 note=79 velocity=100 time=0
the msg is note_off channel=0 note=76 velocity=0 time=12
the msg is note_on channel=0 note=76 velocity=100 time=0
the msg is note_off channel=0 note=74 velocity=0 time=12
the msg is note_on channel=0 note=74 velocity=100 time=0
the msg is note_off channel=0 note=72 velocity=0 time=12
the msg is note_on channel=0 note=72 velocity=100 time=0
the msg is note_off channel=0 note=74 velocity=0 time=25
the msg is note_on channel=0 note=74 velocity=100 time=0
the msg is note_off channel=0 note=76 velocity=0 time=25
the msg is note_on channel=0 note=76 velocity=100 time=0
the msg is note_off channel=0 note=79 velocity=0 time=25
the msg is note_on channel=0 note=79 velocity=100 time=0
the msg is note_off channel=0 note=79 velocity=0 time=12
the msg is note_on channel=0 note=79 velocity=100 time=0
the msg is note_off channel=0 note=76 velocity=0 time=12
the msg is note_on channel=0 note=76 velocity=100 time=0
the msg is note_off channel=0 note=74 velocity=0 time=12
the msg is note_on channel=0 note=74 velocity=100 time=0
the msg is note_off channel=0 note=72 velocity=0 time=12
the msg is note_on channel=0 note=72 velocity=100 time=0
the msg is note_off channel=0 note=74 velocity=0 time=25
the msg is note_on channel=0 note=74 velocity=100 time=0
the msg is note_off channel=0 note=74 velocity=0 time=12
the msg is note_on channel=0 note=74 velocity=100 time=0
the msg is note_off channel=0 note=74 velocity=0 time=12
the msg is note_on channel=0 note=74 velocity=100 time=0
the msg is note_off channel=0 note=74 velocity=0 time=25
the msg is note_on channel=0 note=74 velocity=100 time=0
the msg is note_off channel=0 note=74 velocity=0 time=25
the msg is note_on channel=0 note=74 velocity=100 time=0
the msg is note_off channel=0 note=76 velocity=0 time=25
the msg is note_on channel=0 note=76 velocity=100 time=0
the msg is note_off channel=0 note=79 velocity=0 time=25
the msg is note_on channel=0 note=79 velocity=100 time=0
the msg is note_off channel=0 note=79 velocity=0 time=12
the msg is note_on channel=0 note=79 velocity=100 time=0
the msg is note_off channel=0 note=76 velocity=0 time=12
the msg is note_on channel=0 note=76 velocity=100 time=0
the msg is note_off channel=0 note=74 velocity=0 time=12
the msg is note_on channel=0 note=74 velocity=100 time=0
the msg is note_off channel=0 note=72 velocity=0 time=12
the msg is note_on channel=0 note=72 velocity=100 time=0
the msg is note_off channel=0 note=72 velocity=0 time=81
the msg is note_on channel=0 note=72 velocity=100 time=0
the msg is note_off channel=0 note=72 velocity=0 time=8
the msg is note_on channel=0 note=72 velocity=100 time=0
the msg is note_off channel=0 note=74 velocity=0 time=25
the msg is note_on channel=0 note=74 velocity=100 time=0
the msg is note_off channel=0 note=74 velocity=0 time=25
the msg is note_on channel=0 note=74 velocity=100 time=0
the msg is note_off channel=0 note=74 velocity=0 time=25
the msg is note_on channel=0 note=74 velocity=100 time=0
the msg is note_off channel=0 note=74 velocity=0 time=25
the msg is note_on channel=0 note=74 velocity=100 time=0
the msg is note_off channel=0 note=74 velocity=0 time=25
the msg is note_on channel=0 note=74 velocity=100 time=0
the msg is note_off channel=0 note=74 velocity=0 time=25
the msg is note_on channel=0 note=74 velocity=100 time=0
the msg is note_off channel=0 note=76 velocity=0 time=25
the msg is note_on channel=0 note=76 velocity=100 time=0
the msg is note_off channel=0 note=79 velocity=0 time=25
the msg is note_on channel=0 note=79 velocity=100 time=0
the msg is note_off channel=0 note=79 velocity=0 time=12
the msg is note_on channel=0 note=79 velocity=100 time=0
the msg is note_off channel=0 note=76 velocity=0 time=12
the msg is note_on channel=0 note=76 velocity=100 time=0
the msg is note_off channel=0 note=74 velocity=0 time=17
the msg is note_on channel=0 note=74 velocity=100 time=0
the msg is note_off channel=0 note=72 velocity=0 time=8
the msg is note_on channel=0 note=72 velocity=100 time=0
the msg is note_off channel=0 note=72 velocity=0 time=25
the msg is note_on channel=0 note=72 velocity=100 time=0
the msg is note_off channel=0 note=72 velocity=0 time=25
the msg is note_on channel=0 note=72 velocity=100 time=0
the msg is note_off channel=0 note=72 velocity=0 time=12
the msg is note_on channel=0 note=72 velocity=100 time=0
the msg is note_off channel=0 note=72 velocity=0 time=29
the msg is note_on channel=0 note=72 velocity=100 time=0
the msg is note_off channel=0 note=72 velocity=0 time=8
the msg is note_on channel=0 note=72 velocity=100 time=0
the msg is note_off channel=0 note=72 velocity=0 time=25
the msg is note_on channel=0 note=72 velocity=100 time=0
the msg is note_off channel=0 note=72 velocity=0 time=12
the msg is note_on channel=0 note=72 velocity=100 time=0
the msg is note_off channel=0 note=72 velocity=0 time=12
the msg is note_on channel=0 note=72 velocity=100 time=0
the msg is note_off channel=0 note=72 velocity=0 time=12
the msg is note_on channel=0 note=72 velocity=100 time=0
the msg is note_off channel=0 note=76 velocity=0 time=12
the msg is note_on channel=0 note=76 velocity=100 time=0
the msg is note_off channel=0 note=79 velocity=0 time=25
the msg is note_on channel=0 note=79 velocity=100 time=0
the msg is note_off channel=0 note=79 velocity=0 time=12
the msg is note_on channel=0 note=79 velocity=100 time=0
the msg is note_off channel=0 note=76 velocity=0 time=12
the msg is note_on channel=0 note=76 velocity=100 time=0
the msg is note_off channel=0 note=74 velocity=0 time=12
the msg is note_on channel=0 note=74 velocity=100 time=0
the msg is note_off channel=0 note=72 velocity=0 time=12
the msg is note_on channel=0 note=72 velocity=100 time=0
the msg is note_off channel=0 note=72 velocity=0 time=76
the msg is note_on channel=0 note=72 velocity=100 time=0
the msg is note_off channel=0 note=72 velocity=0 time=12
the msg is note_on channel=0 note=72 velocity=100 time=0
the msg is note_off channel=0 note=72 velocity=0 time=12
the msg is note_on channel=0 note=72 velocity=100 time=0
the msg is note_off channel=0 note=72 velocity=0 time=8
the msg is note_on channel=0 note=72 velocity=100 time=0
the msg is note_off channel=0 note=72 velocity=0 time=17
the msg is note_on channel=0 note=72 velocity=100 time=0
the msg is note_off channel=0 note=72 velocity=0 time=12
the msg is note_on channel=0 note=72 velocity=100 time=0
the msg is note_off channel=0 note=72 velocity=0 time=12
the msg is note_on channel=0 note=72 velocity=100 time=0
the msg is note_off channel=0 note=76 velocity=0 time=8
the msg is note_on channel=0 note=76 velocity=100 time=0
the msg is note_off channel=0 note=79 velocity=0 time=29
the msg is note_on channel=0 note=79 velocity=100 time=0
the msg is note_off channel=0 note=79 velocity=0 time=12
the msg is note_on channel=0 note=79 velocity=100 time=0
the msg is note_off channel=0 note=76 velocity=0 time=8
the msg is note_on channel=0 note=76 velocity=100 time=0
the msg is note_off channel=0 note=74 velocity=0 time=17
the msg is note_on channel=0 note=74 velocity=100 time=0
the msg is <meta message end_of_track time=51>
the msg is <meta message track_name name='Piano' time=0>
the msg is program_change channel=0 program=0 time=0
the msg is note_off channel=0 note=72 velocity=0 time=0
the msg is pitchwheel channel=0 pitch=0 time=0
the msg is program_change channel=0 program=0 time=0
the msg is <meta message set_tempo tempo=500000 time=0>
the msg is <meta message time_signature numerator=4 denominator=4 clocks_per_click=24 notated_32nd_notes_per_beat=8 time=0>
the msg is note_on channel=0 note=72 velocity=100 time=0
the msg is note_off channel=0 note=74 velocity=0 time=34
the msg is note_on channel=0 note=74 velocity=100 time=0
the msg is note_off channel=0 note=74 velocity=0 time=17
the msg is note_on channel=0 note=74 velocity=100 time=0
the msg is note_off channel=0 note=74 velocity=0 time=34
the msg is note_on channel=0 note=74 velocity=100 time=0
the msg is note_off channel=0 note=74 velocity=0 time=17
the msg is note_on channel=0 note=74 velocity=100 time=0
the msg is note_off channel=0 note=76 velocity=0 time=34
the msg is note_on channel=0 note=76 velocity=100 time=0
the msg is note_off channel=0 note=79 velocity=0 time=17
the msg is note_on channel=0 note=79 velocity=100 time=0
the msg is note_off channel=0 note=79 velocity=0 time=17
the msg is note_on channel=0 note=79 velocity=100 time=0
the msg is note_off channel=0 note=76 velocity=0 time=17
the msg is note_on channel=0 note=76 velocity=100 time=0
the msg is note_off channel=0 note=74 velocity=0 time=4
the msg is note_on channel=0 note=74 velocity=100 time=0
the msg is note_off channel=0 note=72 velocity=0 time=12
the msg is note_on channel=0 note=72 velocity=100 time=0
the msg is note_off channel=0 note=72 velocity=0 time=89
the msg is note_on channel=0 note=72 velocity=100 time=0
the msg is note_off channel=0 note=72 velocity=0 time=12
the msg is note_on channel=0 note=72 velocity=100 time=0
the msg is note_off channel=0 note=74 velocity=0 time=25
the msg is note_on channel=0 note=74 velocity=100 time=0
the msg is note_off channel=0 note=74 velocity=0 time=25
the msg is note_on channel=0 note=74 velocity=100 time=0
the msg is note_off channel=0 note=74 velocity=0 time=12
the msg is note_on channel=0 note=74 velocity=100 time=0
the msg is note_off channel=0 note=76 velocity=0 time=25
the msg is note_on channel=0 note=76 velocity=100 time=0
the msg is note_off channel=0 note=79 velocity=0 time=25
the msg is note_on channel=0 note=79 velocity=100 time=0
the msg is note_off channel=0 note=79 velocity=0 time=12
the msg is note_on channel=0 note=79 velocity=100 time=0
the msg is note_off channel=0 note=76 velocity=0 time=12
the msg is note_on channel=0 note=76 velocity=100 time=0
the msg is note_off channel=0 note=74 velocity=0 time=12
the msg is note_on channel=0 note=74 velocity=100 time=0
the msg is note_off channel=0 note=72 velocity=0 time=12
the msg is note_on channel=0 note=72 velocity=100 time=0
the msg is note_off channel=0 note=74 velocity=0 time=25
the msg is note_on channel=0 note=74 velocity=100 time=0
the msg is note_off channel=0 note=76 velocity=0 time=25
the msg is note_on channel=0 note=76 velocity=100 time=0
the msg is note_off channel=0 note=79 velocity=0 time=25
the msg is note_on channel=0 note=79 velocity=100 time=0
the msg is note_off channel=0 note=79 velocity=0 time=12
the msg is note_on channel=0 note=79 velocity=100 time=0
the msg is note_off channel=0 note=76 velocity=0 time=12
the msg is note_on channel=0 note=76 velocity=100 time=0
the msg is note_off channel=0 note=74 velocity=0 time=12
the msg is note_on channel=0 note=74 velocity=100 time=0
the msg is note_off channel=0 note=72 velocity=0 time=12
the msg is note_on channel=0 note=72 velocity=100 time=0
the msg is note_off channel=0 note=74 velocity=0 time=25
the msg is note_on channel=0 note=74 velocity=100 time=0
the msg is note_off channel=0 note=74 velocity=0 time=12
the msg is note_on channel=0 note=74 velocity=100 time=0
the msg is note_off channel=0 note=74 velocity=0 time=12
the msg is note_on channel=0 note=74 velocity=100 time=0
the msg is note_off channel=0 note=74 velocity=0 time=25
the msg is note_on channel=0 note=74 velocity=100 time=0
the msg is note_off channel=0 note=74 velocity=0 time=25
the msg is note_on channel=0 note=74 velocity=100 time=0
the msg is note_off channel=0 note=76 velocity=0 time=25
the msg is note_on channel=0 note=76 velocity=100 time=0
the msg is note_off channel=0 note=79 velocity=0 time=25
the msg is note_on channel=0 note=79 velocity=100 time=0
the msg is note_off channel=0 note=79 velocity=0 time=12
the msg is note_on channel=0 note=79 velocity=100 time=0
the msg is note_off channel=0 note=76 velocity=0 time=12
the msg is note_on channel=0 note=76 velocity=100 time=0
the msg is note_off channel=0 note=74 velocity=0 time=12
the msg is note_on channel=0 note=74 velocity=100 time=0
the msg is note_off channel=0 note=72 velocity=0 time=12
the msg is note_on channel=0 note=72 velocity=100 time=0
the msg is note_off channel=0 note=72 velocity=0 time=81
the msg is note_on channel=0 note=72 velocity=100 time=0
the msg is note_off channel=0 note=72 velocity=0 time=8
the msg is note_on channel=0 note=72 velocity=100 time=0
the msg is note_off channel=0 note=74 velocity=0 time=25
the msg is note_on channel=0 note=74 velocity=100 time=0
the msg is note_off channel=0 note=74 velocity=0 time=25
the msg is note_on channel=0 note=74 velocity=100 time=0
the msg is note_off channel=0 note=74 velocity=0 time=25
the msg is note_on channel=0 note=74 velocity=100 time=0
the msg is note_off channel=0 note=74 velocity=0 time=25
the msg is note_on channel=0 note=74 velocity=100 time=0
the msg is note_off channel=0 note=74 velocity=0 time=25
the msg is note_on channel=0 note=74 velocity=100 time=0
the msg is note_off channel=0 note=74 velocity=0 time=25
the msg is note_on channel=0 note=74 velocity=100 time=0
the msg is note_off channel=0 note=76 velocity=0 time=25
the msg is note_on channel=0 note=76 velocity=100 time=0
the msg is note_off channel=0 note=79 velocity=0 time=25
the msg is note_on channel=0 note=79 velocity=100 time=0
the msg is note_off channel=0 note=79 velocity=0 time=12
the msg is note_on channel=0 note=79 velocity=100 time=0
the msg is note_off channel=0 note=76 velocity=0 time=12
the msg is note_on channel=0 note=76 velocity=100 time=0
the msg is note_off channel=0 note=74 velocity=0 time=17
the msg is note_on channel=0 note=74 velocity=100 time=0
the msg is note_off channel=0 note=72 velocity=0 time=8
the msg is note_on channel=0 note=72 velocity=100 time=0
the msg is note_off channel=0 note=72 velocity=0 time=25
the msg is note_on channel=0 note=72 velocity=100 time=0
the msg is note_off channel=0 note=72 velocity=0 time=25
the msg is note_on channel=0 note=72 velocity=100 time=0
the msg is note_off channel=0 note=72 velocity=0 time=12
the msg is note_on channel=0 note=72 velocity=100 time=0
the msg is note_off channel=0 note=72 velocity=0 time=29
the msg is note_on channel=0 note=72 velocity=100 time=0
the msg is note_off channel=0 note=72 velocity=0 time=8
the msg is note_on channel=0 note=72 velocity=100 time=0
the msg is note_off channel=0 note=72 velocity=0 time=25
the msg is note_on channel=0 note=72 velocity=100 time=0
the msg is note_off channel=0 note=72 velocity=0 time=12
the msg is note_on channel=0 note=72 velocity=100 time=0
the msg is note_off channel=0 note=72 velocity=0 time=12
the msg is note_on channel=0 note=72 velocity=100 time=0
the msg is note_off channel=0 note=72 velocity=0 time=12
the msg is note_on channel=0 note=72 velocity=100 time=0
the msg is note_off channel=0 note=76 velocity=0 time=12
the msg is note_on channel=0 note=76 velocity=100 time=0
the msg is note_off channel=0 note=79 velocity=0 time=25
the msg is note_on channel=0 note=79 velocity=100 time=0
the msg is note_off channel=0 note=79 velocity=0 time=12
the msg is note_on channel=0 note=79 velocity=100 time=0
the msg is note_off channel=0 note=76 velocity=0 time=12
the msg is note_on channel=0 note=76 velocity=100 time=0
the msg is note_off channel=0 note=74 velocity=0 time=12
the msg is note_on channel=0 note=74 velocity=100 time=0
the msg is note_off channel=0 note=72 velocity=0 time=12
the msg is note_on channel=0 note=72 velocity=100 time=0
the msg is note_off channel=0 note=72 velocity=0 time=76
the msg is note_on channel=0 note=72 velocity=100 time=0
the msg is note_off channel=0 note=72 velocity=0 time=12
the msg is note_on channel=0 note=72 velocity=100 time=0
the msg is note_off channel=0 note=72 velocity=0 time=12
the msg is note_on channel=0 note=72 velocity=100 time=0
the msg is note_off channel=0 note=72 velocity=0 time=8
the msg is note_on channel=0 note=72 velocity=100 time=0
the msg is note_off channel=0 note=72 velocity=0 time=17
the msg is note_on channel=0 note=72 velocity=100 time=0
the msg is note_off channel=0 note=72 velocity=0 time=12
the msg is note_on channel=0 note=72 velocity=100 time=0
the msg is note_off channel=0 note=72 velocity=0 time=12
the msg is note_on channel=0 note=72 velocity=100 time=0
the msg is note_off channel=0 note=76 velocity=0 time=8
the msg is note_on channel=0 note=76 velocity=100 time=0
the msg is note_off channel=0 note=79 velocity=0 time=29
the msg is note_on channel=0 note=79 velocity=100 time=0
the msg is note_off channel=0 note=79 velocity=0 time=12
the msg is note_on channel=0 note=79 velocity=100 time=0
the msg is note_off channel=0 note=76 velocity=0 time=8
the msg is note_on channel=0 note=76 velocity=100 time=0
the msg is note_off channel=0 note=74 velocity=0 time=17
the msg is note_on channel=0 note=74 velocity=100 time=0
the msg is <meta message end_of_track time=51>
the msg is <meta message track_name name='Piano' time=0>
the msg is program_change channel=0 program=0 time=0
the msg is note_off channel=0 note=72 velocity=0 time=0
the msg is pitchwheel channel=0 pitch=0 time=0
the msg is program_change channel=0 program=0 time=0
the msg is <meta message set_tempo tempo=500000 time=0>
the msg is <meta message time_signature numerator=4 denominator=4 clocks_per_click=24 notated_32nd_notes_per_beat=8 time=0>
the msg is note_on channel=0 note=72 velocity=100 time=0
the msg is note_off channel=0 note=74 velocity=0 time=34
the msg is note_on channel=0 note=74 velocity=100 time=0
the msg is note_off channel=0 note=74 velocity=0 time=17
the msg is note_on channel=0 note=74 velocity=100 time=0
the msg is note_off channel=0 note=74 velocity=0 time=34
the msg is note_on channel=0 note=74 velocity=100 time=0
the msg is note_off channel=0 note=74 velocity=0 time=17
the msg is note_on channel=0 note=74 velocity=100 time=0
the msg is note_off channel=0 note=76 velocity=0 time=34
the msg is note_on channel=0 note=76 velocity=100 time=0
the msg is note_off channel=0 note=79 velocity=0 time=17
the msg is note_on channel=0 note=79 velocity=100 time=0
the msg is note_off channel=0 note=79 velocity=0 time=17
the msg is note_on channel=0 note=79 velocity=100 time=0
the msg is note_off channel=0 note=76 velocity=0 time=17
the msg is note_on channel=0 note=76 velocity=100 time=0
the msg is note_off channel=0 note=74 velocity=0 time=4
the msg is note_on channel=0 note=74 velocity=100 time=0
the msg is note_off channel=0 note=72 velocity=0 time=12
the msg is note_on channel=0 note=72 velocity=100 time=0
the msg is note_off channel=0 note=72 velocity=0 time=89
the msg is note_on channel=0 note=72 velocity=100 time=0
the msg is note_off channel=0 note=72 velocity=0 time=12
the msg is note_on channel=0 note=72 velocity=100 time=0
the msg is note_off channel=0 note=74 velocity=0 time=25
the msg is note_on channel=0 note=74 velocity=100 time=0
the msg is note_off channel=0 note=74 velocity=0 time=25
the msg is note_on channel=0 note=74 velocity=100 time=0
the msg is note_off channel=0 note=74 velocity=0 time=12
the msg is note_on channel=0 note=74 velocity=100 time=0
the msg is note_off channel=0 note=76 velocity=0 time=25
the msg is note_on channel=0 note=76 velocity=100 time=0
the msg is note_off channel=0 note=79 velocity=0 time=25
the msg is note_on channel=0 note=79 velocity=100 time=0
the msg is note_off channel=0 note=79 velocity=0 time=12
the msg is note_on channel=0 note=79 velocity=100 time=0
the msg is note_off channel=0 note=76 velocity=0 time=12
the msg is note_on channel=0 note=76 velocity=100 time=0
the msg is note_off channel=0 note=74 velocity=0 time=12
the msg is note_on channel=0 note=74 velocity=100 time=0
the msg is note_off channel=0 note=72 velocity=0 time=12
the msg is note_on channel=0 note=72 velocity=100 time=0
the msg is note_off channel=0 note=74 velocity=0 time=25
the msg is note_on channel=0 note=74 velocity=100 time=0
the msg is note_off channel=0 note=76 velocity=0 time=25
the msg is note_on channel=0 note=76 velocity=100 time=0
the msg is note_off channel=0 note=79 velocity=0 time=25
the msg is note_on channel=0 note=79 velocity=100 time=0
the msg is note_off channel=0 note=79 velocity=0 time=12
the msg is note_on channel=0 note=79 velocity=100 time=0
the msg is note_off channel=0 note=76 velocity=0 time=12
the msg is note_on channel=0 note=76 velocity=100 time=0
the msg is note_off channel=0 note=74 velocity=0 time=12
the msg is note_on channel=0 note=74 velocity=100 time=0
the msg is note_off channel=0 note=72 velocity=0 time=12
the msg is note_on channel=0 note=72 velocity=100 time=0
the msg is note_off channel=0 note=74 velocity=0 time=25
the msg is note_on channel=0 note=74 velocity=100 time=0
the msg is note_off channel=0 note=74 velocity=0 time=12
the msg is note_on channel=0 note=74 velocity=100 time=0
the msg is note_off channel=0 note=74 velocity=0 time=12
the msg is note_on channel=0 note=74 velocity=100 time=0
the msg is note_off channel=0 note=74 velocity=0 time=25
the msg is note_on channel=0 note=74 velocity=100 time=0
the msg is note_off channel=0 note=74 velocity=0 time=25
the msg is note_on channel=0 note=74 velocity=100 time=0
the msg is note_off channel=0 note=76 velocity=0 time=25
the msg is note_on channel=0 note=76 velocity=100 time=0
the msg is note_off channel=0 note=79 velocity=0 time=25
the msg is note_on channel=0 note=79 velocity=100 time=0
the msg is note_off channel=0 note=79 velocity=0 time=12
the msg is note_on channel=0 note=79 velocity=100 time=0
the msg is note_off channel=0 note=76 velocity=0 time=12
the msg is note_on channel=0 note=76 velocity=100 time=0
the msg is note_off channel=0 note=74 velocity=0 time=12
the msg is note_on channel=0 note=74 velocity=100 time=0
the msg is note_off channel=0 note=72 velocity=0 time=12
the msg is note_on channel=0 note=72 velocity=100 time=0
the msg is note_off channel=0 note=72 velocity=0 time=81
the msg is note_on channel=0 note=72 velocity=100 time=0
the msg is note_off channel=0 note=72 velocity=0 time=8
the msg is note_on channel=0 note=72 velocity=100 time=0
the msg is note_off channel=0 note=74 velocity=0 time=25
the msg is note_on channel=0 note=74 velocity=100 time=0
the msg is note_off channel=0 note=74 velocity=0 time=25
the msg is note_on channel=0 note=74 velocity=100 time=0
the msg is note_off channel=0 note=74 velocity=0 time=25
the msg is note_on channel=0 note=74 velocity=100 time=0
the msg is note_off channel=0 note=74 velocity=0 time=25
the msg is note_on channel=0 note=74 velocity=100 time=0
the msg is note_off channel=0 note=74 velocity=0 time=25
the msg is note_on channel=0 note=74 velocity=100 time=0
the msg is note_off channel=0 note=74 velocity=0 time=25
the msg is note_on channel=0 note=74 velocity=100 time=0
the msg is note_off channel=0 note=76 velocity=0 time=25
the msg is note_on channel=0 note=76 velocity=100 time=0
the msg is note_off channel=0 note=79 velocity=0 time=25
the msg is note_on channel=0 note=79 velocity=100 time=0
the msg is note_off channel=0 note=79 velocity=0 time=12
the msg is note_on channel=0 note=79 velocity=100 time=0
the msg is note_off channel=0 note=76 velocity=0 time=12
the msg is note_on channel=0 note=76 velocity=100 time=0
the msg is note_off channel=0 note=74 velocity=0 time=17
the msg is note_on channel=0 note=74 velocity=100 time=0
the msg is note_off channel=0 note=72 velocity=0 time=8
the msg is note_on channel=0 note=72 velocity=100 time=0
the msg is note_off channel=0 note=72 velocity=0 time=25
the msg is note_on channel=0 note=72 velocity=100 time=0
the msg is note_off channel=0 note=72 velocity=0 time=25
the msg is note_on channel=0 note=72 velocity=100 time=0
the msg is note_off channel=0 note=72 velocity=0 time=12
the msg is note_on channel=0 note=72 velocity=100 time=0
the msg is note_off channel=0 note=72 velocity=0 time=29
the msg is note_on channel=0 note=72 velocity=100 time=0
the msg is note_off channel=0 note=72 velocity=0 time=8
the msg is note_on channel=0 note=72 velocity=100 time=0
the msg is note_off channel=0 note=72 velocity=0 time=25
the msg is note_on channel=0 note=72 velocity=100 time=0
the msg is note_off channel=0 note=72 velocity=0 time=12
the msg is note_on channel=0 note=72 velocity=100 time=0
the msg is note_off channel=0 note=72 velocity=0 time=12
the msg is note_on channel=0 note=72 velocity=100 time=0
the msg is note_off channel=0 note=72 velocity=0 time=12
the msg is note_on channel=0 note=72 velocity=100 time=0
the msg is note_off channel=0 note=76 velocity=0 time=12
the msg is note_on channel=0 note=76 velocity=100 time=0
the msg is note_off channel=0 note=79 velocity=0 time=25
the msg is note_on channel=0 note=79 velocity=100 time=0
the msg is note_off channel=0 note=79 velocity=0 time=12
the msg is note_on channel=0 note=79 velocity=100 time=0
the msg is note_off channel=0 note=76 velocity=0 time=12
the msg is note_on channel=0 note=76 velocity=100 time=0
the msg is note_off channel=0 note=74 velocity=0 time=12
the msg is note_on channel=0 note=74 velocity=100 time=0
the msg is note_off channel=0 note=72 velocity=0 time=12
the msg is note_on channel=0 note=72 velocity=100 time=0
the msg is note_off channel=0 note=72 velocity=0 time=76
the msg is note_on channel=0 note=72 velocity=100 time=0
the msg is note_off channel=0 note=72 velocity=0 time=12
the msg is note_on channel=0 note=72 velocity=100 time=0
the msg is note_off channel=0 note=72 velocity=0 time=12
the msg is note_on channel=0 note=72 velocity=100 time=0
the msg is note_off channel=0 note=72 velocity=0 time=8
the msg is note_on channel=0 note=72 velocity=100 time=0
the msg is note_off channel=0 note=72 velocity=0 time=17
the msg is note_on channel=0 note=72 velocity=100 time=0
the msg is note_off channel=0 note=72 velocity=0 time=12
the msg is note_on channel=0 note=72 velocity=100 time=0
the msg is note_off channel=0 note=72 velocity=0 time=12
the msg is note_on channel=0 note=72 velocity=100 time=0
the msg is note_off channel=0 note=76 velocity=0 time=8
the msg is note_on channel=0 note=76 velocity=100 time=0
the msg is note_off channel=0 note=79 velocity=0 time=29
the msg is note_on channel=0 note=79 velocity=100 time=0
the msg is note_off channel=0 note=79 velocity=0 time=12
the msg is note_on channel=0 note=79 velocity=100 time=0
the msg is note_off channel=0 note=76 velocity=0 time=8
the msg is note_on channel=0 note=76 velocity=100 time=0
the msg is note_off channel=0 note=74 velocity=0 time=17
the msg is note_on channel=0 note=74 velocity=100 time=0
the msg is <meta message end_of_track time=51>
the msg is <meta message track_name name='Piano' time=0>
the msg is program_change channel=0 program=0 time=0
the msg is note_off channel=0 note=72 velocity=0 time=0
the msg is pitchwheel channel=0 pitch=0 time=0
the msg is program_change channel=0 program=0 time=0
the msg is <meta message set_tempo tempo=500000 time=0>
the msg is <meta message time_signature numerator=4 denominator=4 clocks_per_click=24 notated_32nd_notes_per_beat=8 time=0>
the msg is note_on channel=0 note=72 velocity=100 time=0
the msg is note_off channel=0 note=74 velocity=0 time=34
the msg is note_on channel=0 note=74 velocity=100 time=0
the msg is note_off channel=0 note=74 velocity=0 time=17
the msg is note_on channel=0 note=74 velocity=100 time=0
the msg is note_off channel=0 note=74 velocity=0 time=34
the msg is note_on channel=0 note=74 velocity=100 time=0
the msg is note_off channel=0 note=74 velocity=0 time=17
the msg is note_on channel=0 note=74 velocity=100 time=0
the msg is note_off channel=0 note=76 velocity=0 time=34
the msg is note_on channel=0 note=76 velocity=100 time=0
the msg is note_off channel=0 note=79 velocity=0 time=17
the msg is note_on channel=0 note=79 velocity=100 time=0
the msg is note_off channel=0 note=79 velocity=0 time=17
the msg is note_on channel=0 note=79 velocity=100 time=0
the msg is note_off channel=0 note=76 velocity=0 time=17
the msg is note_on channel=0 note=76 velocity=100 time=0
the msg is note_off channel=0 note=74 velocity=0 time=4
the msg is note_on channel=0 note=74 velocity=100 time=0
the msg is note_off channel=0 note=72 velocity=0 time=12
the msg is note_on channel=0 note=72 velocity=100 time=0
the msg is note_off channel=0 note=72 velocity=0 time=89
the msg is note_on channel=0 note=72 velocity=100 time=0
the msg is note_off channel=0 note=72 velocity=0 time=12
the msg is note_on channel=0 note=72 velocity=100 time=0
the msg is note_off channel=0 note=74 velocity=0 time=25
the msg is note_on channel=0 note=74 velocity=100 time=0
the msg is note_off channel=0 note=74 velocity=0 time=25
the msg is note_on channel=0 note=74 velocity=100 time=0
the msg is note_off channel=0 note=74 velocity=0 time=12
the msg is note_on channel=0 note=74 velocity=100 time=0
the msg is note_off channel=0 note=76 velocity=0 time=25
the msg is note_on channel=0 note=76 velocity=100 time=0
the msg is note_off channel=0 note=79 velocity=0 time=25
the msg is note_on channel=0 note=79 velocity=100 time=0
the msg is note_off channel=0 note=79 velocity=0 time=12
the msg is note_on channel=0 note=79 velocity=100 time=0
the msg is note_off channel=0 note=76 velocity=0 time=12
the msg is note_on channel=0 note=76 velocity=100 time=0
the msg is note_off channel=0 note=74 velocity=0 time=12
the msg is note_on channel=0 note=74 velocity=100 time=0
the msg is note_off channel=0 note=72 velocity=0 time=12
the msg is note_on channel=0 note=72 velocity=100 time=0
the msg is note_off channel=0 note=74 velocity=0 time=25
the msg is note_on channel=0 note=74 velocity=100 time=0
the msg is note_off channel=0 note=76 velocity=0 time=25
the msg is note_on channel=0 note=76 velocity=100 time=0
the msg is note_off channel=0 note=79 velocity=0 time=25
the msg is note_on channel=0 note=79 velocity=100 time=0
the msg is note_off channel=0 note=79 velocity=0 time=12
the msg is note_on channel=0 note=79 velocity=100 time=0
the msg is note_off channel=0 note=76 velocity=0 time=12
the msg is note_on channel=0 note=76 velocity=100 time=0
the msg is note_off channel=0 note=74 velocity=0 time=12
the msg is note_on channel=0 note=74 velocity=100 time=0
the msg is note_off channel=0 note=72 velocity=0 time=12
the msg is note_on channel=0 note=72 velocity=100 time=0
the msg is note_off channel=0 note=74 velocity=0 time=25
the msg is note_on channel=0 note=74 velocity=100 time=0
the msg is note_off channel=0 note=74 velocity=0 time=12
the msg is note_on channel=0 note=74 velocity=100 time=0
the msg is note_off channel=0 note=74 velocity=0 time=12
the msg is note_on channel=0 note=74 velocity=100 time=0
the msg is note_off channel=0 note=74 velocity=0 time=25
the msg is note_on channel=0 note=74 velocity=100 time=0
the msg is note_off channel=0 note=74 velocity=0 time=25
the msg is note_on channel=0 note=74 velocity=100 time=0
the msg is note_off channel=0 note=76 velocity=0 time=25
the msg is note_on channel=0 note=76 velocity=100 time=0
the msg is note_off channel=0 note=79 velocity=0 time=25
the msg is note_on channel=0 note=79 velocity=100 time=0
the msg is note_off channel=0 note=79 velocity=0 time=12
the msg is note_on channel=0 note=79 velocity=100 time=0
the msg is note_off channel=0 note=76 velocity=0 time=12
the msg is note_on channel=0 note=76 velocity=100 time=0
the msg is note_off channel=0 note=74 velocity=0 time=12
the msg is note_on channel=0 note=74 velocity=100 time=0
the msg is note_off channel=0 note=72 velocity=0 time=12
the msg is note_on channel=0 note=72 velocity=100 time=0
the msg is note_off channel=0 note=72 velocity=0 time=81
the msg is note_on channel=0 note=72 velocity=100 time=0
the msg is note_off channel=0 note=72 velocity=0 time=8
the msg is note_on channel=0 note=72 velocity=100 time=0
the msg is note_off channel=0 note=74 velocity=0 time=25
the msg is note_on channel=0 note=74 velocity=100 time=0
the msg is note_off channel=0 note=74 velocity=0 time=25
the msg is note_on channel=0 note=74 velocity=100 time=0
the msg is note_off channel=0 note=74 velocity=0 time=25
the msg is note_on channel=0 note=74 velocity=100 time=0
the msg is note_off channel=0 note=74 velocity=0 time=25
the msg is note_on channel=0 note=74 velocity=100 time=0
the msg is note_off channel=0 note=74 velocity=0 time=25
the msg is note_on channel=0 note=74 velocity=100 time=0
the msg is note_off channel=0 note=74 velocity=0 time=25
the msg is note_on channel=0 note=74 velocity=100 time=0
the msg is note_off channel=0 note=76 velocity=0 time=25
the msg is note_on channel=0 note=76 velocity=100 time=0
the msg is note_off channel=0 note=79 velocity=0 time=25
the msg is note_on channel=0 note=79 velocity=100 time=0
the msg is note_off channel=0 note=79 velocity=0 time=12
the msg is note_on channel=0 note=79 velocity=100 time=0
the msg is note_off channel=0 note=76 velocity=0 time=12
the msg is note_on channel=0 note=76 velocity=100 time=0
the msg is note_off channel=0 note=74 velocity=0 time=17
the msg is note_on channel=0 note=74 velocity=100 time=0
the msg is note_off channel=0 note=72 velocity=0 time=8
the msg is note_on channel=0 note=72 velocity=100 time=0
the msg is note_off channel=0 note=72 velocity=0 time=25
the msg is note_on channel=0 note=72 velocity=100 time=0
the msg is note_off channel=0 note=72 velocity=0 time=25
the msg is note_on channel=0 note=72 velocity=100 time=0
the msg is note_off channel=0 note=72 velocity=0 time=12
the msg is note_on channel=0 note=72 velocity=100 time=0
the msg is note_off channel=0 note=72 velocity=0 time=29
the msg is note_on channel=0 note=72 velocity=100 time=0
the msg is note_off channel=0 note=72 velocity=0 time=8
the msg is note_on channel=0 note=72 velocity=100 time=0
the msg is note_off channel=0 note=72 velocity=0 time=25
the msg is note_on channel=0 note=72 velocity=100 time=0
the msg is note_off channel=0 note=72 velocity=0 time=12
the msg is note_on channel=0 note=72 velocity=100 time=0
the msg is note_off channel=0 note=72 velocity=0 time=12
the msg is note_on channel=0 note=72 velocity=100 time=0
the msg is note_off channel=0 note=72 velocity=0 time=12
the msg is note_on channel=0 note=72 velocity=100 time=0
the msg is note_off channel=0 note=76 velocity=0 time=12
the msg is note_on channel=0 note=76 velocity=100 time=0
the msg is note_off channel=0 note=79 velocity=0 time=25
the msg is note_on channel=0 note=79 velocity=100 time=0
the msg is note_off channel=0 note=79 velocity=0 time=12
the msg is note_on channel=0 note=79 velocity=100 time=0
the msg is note_off channel=0 note=76 velocity=0 time=12
the msg is note_on channel=0 note=76 velocity=100 time=0
the msg is note_off channel=0 note=74 velocity=0 time=12
the msg is note_on channel=0 note=74 velocity=100 time=0
the msg is note_off channel=0 note=72 velocity=0 time=12
the msg is note_on channel=0 note=72 velocity=100 time=0
the msg is note_off channel=0 note=72 velocity=0 time=76
the msg is note_on channel=0 note=72 velocity=100 time=0
the msg is note_off channel=0 note=72 velocity=0 time=12
the msg is note_on channel=0 note=72 velocity=100 time=0
the msg is note_off channel=0 note=72 velocity=0 time=12
the msg is note_on channel=0 note=72 velocity=100 time=0
the msg is note_off channel=0 note=72 velocity=0 time=8
the msg is note_on channel=0 note=72 velocity=100 time=0
the msg is note_off channel=0 note=72 velocity=0 time=17
the msg is note_on channel=0 note=72 velocity=100 time=0
the msg is note_off channel=0 note=72 velocity=0 time=12
the msg is note_on channel=0 note=72 velocity=100 time=0
the msg is note_off channel=0 note=72 velocity=0 time=12
the msg is note_on channel=0 note=72 velocity=100 time=0
the msg is note_off channel=0 note=76 velocity=0 time=8
the msg is note_on channel=0 note=76 velocity=100 time=0
the msg is note_off channel=0 note=79 velocity=0 time=29
the msg is note_on channel=0 note=79 velocity=100 time=0
the msg is note_off channel=0 note=79 velocity=0 time=12
the msg is note_on channel=0 note=79 velocity=100 time=0
the msg is note_off channel=0 note=76 velocity=0 time=8
the msg is note_on channel=0 note=76 velocity=100 time=0
the msg is note_off channel=0 note=74 velocity=0 time=17
the msg is note_on channel=0 note=74 velocity=100 time=0
the msg is <meta message end_of_track time=51>
the msg is <meta message track_name name='Piano' time=0>
the msg is program_change channel=0 program=0 time=0
the msg is note_off channel=0 note=72 velocity=0 time=0
the msg is pitchwheel channel=0 pitch=0 time=0
the msg is program_change channel=0 program=0 time=0
the msg is <meta message set_tempo tempo=500000 time=0>
the msg is <meta message time_signature numerator=4 denominator=4 clocks_per_click=24 notated_32nd_notes_per_beat=8 time=0>
the msg is note_on channel=0 note=72 velocity=100 time=0
the msg is note_off channel=0 note=74 velocity=0 time=34
the msg is note_on channel=0 note=74 velocity=100 time=0
the msg is note_off channel=0 note=74 velocity=0 time=17
the msg is note_on channel=0 note=74 velocity=100 time=0
the msg is note_off channel=0 note=74 velocity=0 time=34
the msg is note_on channel=0 note=74 velocity=100 time=0
the msg is note_off channel=0 note=74 velocity=0 time=17
the msg is note_on channel=0 note=74 velocity=100 time=0
the msg is note_off channel=0 note=76 velocity=0 time=34
the msg is note_on channel=0 note=76 velocity=100 time=0
the msg is note_off channel=0 note=79 velocity=0 time=17
the msg is note_on channel=0 note=79 velocity=100 time=0
the msg is note_off channel=0 note=79 velocity=0 time=17
the msg is note_on channel=0 note=79 velocity=100 time=0
the msg is note_off channel=0 note=76 velocity=0 time=17
the msg is note_on channel=0 note=76 velocity=100 time=0
the msg is note_off channel=0 note=74 velocity=0 time=4
the msg is note_on channel=0 note=74 velocity=100 time=0
the msg is note_off channel=0 note=72 velocity=0 time=12
the msg is note_on channel=0 note=72 velocity=100 time=0
the msg is note_off channel=0 note=72 velocity=0 time=89
the msg is note_on channel=0 note=72 velocity=100 time=0
the msg is note_off channel=0 note=72 velocity=0 time=12
the msg is note_on channel=0 note=72 velocity=100 time=0
the msg is note_off channel=0 note=74 velocity=0 time=25
the msg is note_on channel=0 note=74 velocity=100 time=0
the msg is note_off channel=0 note=74 velocity=0 time=25
the msg is note_on channel=0 note=74 velocity=100 time=0
the msg is note_off channel=0 note=74 velocity=0 time=12
the msg is note_on channel=0 note=74 velocity=100 time=0
the msg is note_off channel=0 note=76 velocity=0 time=25
the msg is note_on channel=0 note=76 velocity=100 time=0
the msg is note_off channel=0 note=79 velocity=0 time=25
the msg is note_on channel=0 note=79 velocity=100 time=0
the msg is note_off channel=0 note=79 velocity=0 time=12
the msg is note_on channel=0 note=79 velocity=100 time=0
the msg is note_off channel=0 note=76 velocity=0 time=12
the msg is note_on channel=0 note=76 velocity=100 time=0
the msg is note_off channel=0 note=74 velocity=0 time=12
the msg is note_on channel=0 note=74 velocity=100 time=0
the msg is note_off channel=0 note=72 velocity=0 time=12
the msg is note_on channel=0 note=72 velocity=100 time=0
the msg is note_off channel=0 note=74 velocity=0 time=25
the msg is note_on channel=0 note=74 velocity=100 time=0
the msg is note_off channel=0 note=76 velocity=0 time=25
the msg is note_on channel=0 note=76 velocity=100 time=0
the msg is note_off channel=0 note=79 velocity=0 time=25
the msg is note_on channel=0 note=79 velocity=100 time=0
the msg is note_off channel=0 note=79 velocity=0 time=12
the msg is note_on channel=0 note=79 velocity=100 time=0
the msg is note_off channel=0 note=76 velocity=0 time=12
the msg is note_on channel=0 note=76 velocity=100 time=0
the msg is note_off channel=0 note=74 velocity=0 time=12
the msg is note_on channel=0 note=74 velocity=100 time=0
the msg is note_off channel=0 note=72 velocity=0 time=12
the msg is note_on channel=0 note=72 velocity=100 time=0
the msg is note_off channel=0 note=74 velocity=0 time=25
the msg is note_on channel=0 note=74 velocity=100 time=0
the msg is note_off channel=0 note=74 velocity=0 time=12
the msg is note_on channel=0 note=74 velocity=100 time=0
the msg is note_off channel=0 note=74 velocity=0 time=12
the msg is note_on channel=0 note=74 velocity=100 time=0
the msg is note_off channel=0 note=74 velocity=0 time=25
the msg is note_on channel=0 note=74 velocity=100 time=0
the msg is note_off channel=0 note=74 velocity=0 time=25
the msg is note_on channel=0 note=74 velocity=100 time=0
the msg is note_off channel=0 note=76 velocity=0 time=25
the msg is note_on channel=0 note=76 velocity=100 time=0
the msg is note_off channel=0 note=79 velocity=0 time=25
the msg is note_on channel=0 note=79 velocity=100 time=0
the msg is note_off channel=0 note=79 velocity=0 time=12
the msg is note_on channel=0 note=79 velocity=100 time=0
the msg is note_off channel=0 note=76 velocity=0 time=12
the msg is note_on channel=0 note=76 velocity=100 time=0
the msg is note_off channel=0 note=74 velocity=0 time=12
the msg is note_on channel=0 note=74 velocity=100 time=0
the msg is note_off channel=0 note=72 velocity=0 time=12
the msg is note_on channel=0 note=72 velocity=100 time=0
the msg is note_off channel=0 note=72 velocity=0 time=81
the msg is note_on channel=0 note=72 velocity=100 time=0
the msg is note_off channel=0 note=72 velocity=0 time=8
the msg is note_on channel=0 note=72 velocity=100 time=0
the msg is note_off channel=0 note=74 velocity=0 time=25
the msg is note_on channel=0 note=74 velocity=100 time=0
the msg is note_off channel=0 note=74 velocity=0 time=25
the msg is note_on channel=0 note=74 velocity=100 time=0
the msg is note_off channel=0 note=74 velocity=0 time=25
the msg is note_on channel=0 note=74 velocity=100 time=0
the msg is note_off channel=0 note=74 velocity=0 time=25
the msg is note_on channel=0 note=74 velocity=100 time=0
the msg is note_off channel=0 note=74 velocity=0 time=25
the msg is note_on channel=0 note=74 velocity=100 time=0
the msg is note_off channel=0 note=74 velocity=0 time=25
the msg is note_on channel=0 note=74 velocity=100 time=0
the msg is note_off channel=0 note=76 velocity=0 time=25
the msg is note_on channel=0 note=76 velocity=100 time=0
the msg is note_off channel=0 note=79 velocity=0 time=25
the msg is note_on channel=0 note=79 velocity=100 time=0
the msg is note_off channel=0 note=79 velocity=0 time=12
the msg is note_on channel=0 note=79 velocity=100 time=0
the msg is note_off channel=0 note=76 velocity=0 time=12
the msg is note_on channel=0 note=76 velocity=100 time=0
the msg is note_off channel=0 note=74 velocity=0 time=17
the msg is note_on channel=0 note=74 velocity=100 time=0
the msg is note_off channel=0 note=72 velocity=0 time=8
the msg is note_on channel=0 note=72 velocity=100 time=0
the msg is note_off channel=0 note=72 velocity=0 time=25
the msg is note_on channel=0 note=72 velocity=100 time=0
the msg is note_off channel=0 note=72 velocity=0 time=25
the msg is note_on channel=0 note=72 velocity=100 time=0
the msg is note_off channel=0 note=72 velocity=0 time=12
the msg is note_on channel=0 note=72 velocity=100 time=0
the msg is note_off channel=0 note=72 velocity=0 time=29
the msg is note_on channel=0 note=72 velocity=100 time=0
the msg is note_off channel=0 note=72 velocity=0 time=8
the msg is note_on channel=0 note=72 velocity=100 time=0
the msg is note_off channel=0 note=72 velocity=0 time=25
the msg is note_on channel=0 note=72 velocity=100 time=0
the msg is note_off channel=0 note=72 velocity=0 time=12
the msg is note_on channel=0 note=72 velocity=100 time=0
the msg is note_off channel=0 note=72 velocity=0 time=12
the msg is note_on channel=0 note=72 velocity=100 time=0
the msg is note_off channel=0 note=72 velocity=0 time=12
the msg is note_on channel=0 note=72 velocity=100 time=0
the msg is note_off channel=0 note=76 velocity=0 time=12
the msg is note_on channel=0 note=76 velocity=100 time=0
the msg is note_off channel=0 note=79 velocity=0 time=25
the msg is note_on channel=0 note=79 velocity=100 time=0
the msg is note_off channel=0 note=79 velocity=0 time=12
the msg is note_on channel=0 note=79 velocity=100 time=0
the msg is note_off channel=0 note=76 velocity=0 time=12
the msg is note_on channel=0 note=76 velocity=100 time=0
the msg is note_off channel=0 note=74 velocity=0 time=12
the msg is note_on channel=0 note=74 velocity=100 time=0
the msg is note_off channel=0 note=72 velocity=0 time=12
the msg is note_on channel=0 note=72 velocity=100 time=0
the msg is note_off channel=0 note=72 velocity=0 time=76
the msg is note_on channel=0 note=72 velocity=100 time=0
the msg is note_off channel=0 note=72 velocity=0 time=12
the msg is note_on channel=0 note=72 velocity=100 time=0
the msg is note_off channel=0 note=72 velocity=0 time=12
the msg is note_on channel=0 note=72 velocity=100 time=0
the msg is note_off channel=0 note=72 velocity=0 time=8
the msg is note_on channel=0 note=72 velocity=100 time=0
the msg is note_off channel=0 note=72 velocity=0 time=17
the msg is note_on channel=0 note=72 velocity=100 time=0
the msg is note_off channel=0 note=72 velocity=0 time=12
the msg is note_on channel=0 note=72 velocity=100 time=0
the msg is note_off channel=0 note=72 velocity=0 time=12
the msg is note_on channel=0 note=72 velocity=100 time=0
the msg is note_off channel=0 note=76 velocity=0 time=8
the msg is note_on channel=0 note=76 velocity=100 time=0
the msg is note_off channel=0 note=79 velocity=0 time=29
the msg is note_on channel=0 note=79 velocity=100 time=0
the msg is note_off channel=0 note=79 velocity=0 time=12
the msg is note_on channel=0 note=79 velocity=100 time=0
the msg is note_off channel=0 note=76 velocity=0 time=8
the msg is note_on channel=0 note=76 velocity=100 time=0
the msg is note_off channel=0 note=74 velocity=0 time=17
the msg is note_on channel=0 note=74 velocity=100 time=0
the msg is <meta message end_of_track time=51>
the msg is <meta message track_name name='Piano' time=0>
the msg is program_change channel=0 program=0 time=0
the msg is note_off channel=0 note=72 velocity=0 time=0
the msg is pitchwheel channel=0 pitch=0 time=0
the msg is program_change channel=0 program=0 time=0
the msg is <meta message set_tempo tempo=500000 time=0>
the msg is <meta message time_signature numerator=4 denominator=4 clocks_per_click=24 notated_32nd_notes_per_beat=8 time=0>
the msg is note_on channel=0 note=72 velocity=100 time=0
the msg is note_off channel=0 note=74 velocity=0 time=34
the msg is note_on channel=0 note=74 velocity=100 time=0
the msg is note_off channel=0 note=74 velocity=0 time=17
the msg is note_on channel=0 note=74 velocity=100 time=0
the msg is note_off channel=0 note=74 velocity=0 time=34
the msg is note_on channel=0 note=74 velocity=100 time=0
the msg is note_off channel=0 note=74 velocity=0 time=17
the msg is note_on channel=0 note=74 velocity=100 time=0
the msg is note_off channel=0 note=76 velocity=0 time=34
the msg is note_on channel=0 note=76 velocity=100 time=0
the msg is note_off channel=0 note=79 velocity=0 time=17
the msg is note_on channel=0 note=79 velocity=100 time=0
the msg is note_off channel=0 note=79 velocity=0 time=17
the msg is note_on channel=0 note=79 velocity=100 time=0
the msg is note_off channel=0 note=76 velocity=0 time=17
the msg is note_on channel=0 note=76 velocity=100 time=0
the msg is note_off channel=0 note=74 velocity=0 time=4
the msg is note_on channel=0 note=74 velocity=100 time=0
the msg is note_off channel=0 note=72 velocity=0 time=12
the msg is note_on channel=0 note=72 velocity=100 time=0
the msg is note_off channel=0 note=72 velocity=0 time=89
the msg is note_on channel=0 note=72 velocity=100 time=0
the msg is note_off channel=0 note=72 velocity=0 time=12
the msg is note_on channel=0 note=72 velocity=100 time=0
the msg is note_off channel=0 note=74 velocity=0 time=25
the msg is note_on channel=0 note=74 velocity=100 time=0
the msg is note_off channel=0 note=74 velocity=0 time=25
the msg is note_on channel=0 note=74 velocity=100 time=0
the msg is note_off channel=0 note=74 velocity=0 time=12
the msg is note_on channel=0 note=74 velocity=100 time=0
the msg is note_off channel=0 note=76 velocity=0 time=25
the msg is note_on channel=0 note=76 velocity=100 time=0
the msg is note_off channel=0 note=79 velocity=0 time=25
the msg is note_on channel=0 note=79 velocity=100 time=0
the msg is note_off channel=0 note=79 velocity=0 time=12
the msg is note_on channel=0 note=79 velocity=100 time=0
the msg is note_off channel=0 note=76 velocity=0 time=12
the msg is note_on channel=0 note=76 velocity=100 time=0
the msg is note_off channel=0 note=74 velocity=0 time=12
the msg is note_on channel=0 note=74 velocity=100 time=0
the msg is note_off channel=0 note=72 velocity=0 time=12
the msg is note_on channel=0 note=72 velocity=100 time=0
the msg is note_off channel=0 note=74 velocity=0 time=25
the msg is note_on channel=0 note=74 velocity=100 time=0
the msg is note_off channel=0 note=76 velocity=0 time=25
the msg is note_on channel=0 note=76 velocity=100 time=0
the msg is note_off channel=0 note=79 velocity=0 time=25
the msg is note_on channel=0 note=79 velocity=100 time=0
the msg is note_off channel=0 note=79 velocity=0 time=12
the msg is note_on channel=0 note=79 velocity=100 time=0
the msg is note_off channel=0 note=76 velocity=0 time=12
the msg is note_on channel=0 note=76 velocity=100 time=0
the msg is note_off channel=0 note=74 velocity=0 time=12
the msg is note_on channel=0 note=74 velocity=100 time=0
the msg is note_off channel=0 note=72 velocity=0 time=12
the msg is note_on channel=0 note=72 velocity=100 time=0
the msg is note_off channel=0 note=74 velocity=0 time=25
the msg is note_on channel=0 note=74 velocity=100 time=0
the msg is note_off channel=0 note=74 velocity=0 time=12
the msg is note_on channel=0 note=74 velocity=100 time=0
the msg is note_off channel=0 note=74 velocity=0 time=12
the msg is note_on channel=0 note=74 velocity=100 time=0
the msg is note_off channel=0 note=74 velocity=0 time=25
the msg is note_on channel=0 note=74 velocity=100 time=0
the msg is note_off channel=0 note=74 velocity=0 time=25
the msg is note_on channel=0 note=74 velocity=100 time=0
the msg is note_off channel=0 note=76 velocity=0 time=25
the msg is note_on channel=0 note=76 velocity=100 time=0
the msg is note_off channel=0 note=79 velocity=0 time=25
the msg is note_on channel=0 note=79 velocity=100 time=0
the msg is note_off channel=0 note=79 velocity=0 time=12
the msg is note_on channel=0 note=79 velocity=100 time=0
the msg is note_off channel=0 note=76 velocity=0 time=12
the msg is note_on channel=0 note=76 velocity=100 time=0
the msg is note_off channel=0 note=74 velocity=0 time=12
the msg is note_on channel=0 note=74 velocity=100 time=0
the msg is note_off channel=0 note=72 velocity=0 time=12
the msg is note_on channel=0 note=72 velocity=100 time=0
the msg is note_off channel=0 note=72 velocity=0 time=81
the msg is note_on channel=0 note=72 velocity=100 time=0
the msg is note_off channel=0 note=72 velocity=0 time=8
the msg is note_on channel=0 note=72 velocity=100 time=0
the msg is note_off channel=0 note=74 velocity=0 time=25
the msg is note_on channel=0 note=74 velocity=100 time=0
the msg is note_off channel=0 note=74 velocity=0 time=25
the msg is note_on channel=0 note=74 velocity=100 time=0
the msg is note_off channel=0 note=74 velocity=0 time=25
the msg is note_on channel=0 note=74 velocity=100 time=0
the msg is note_off channel=0 note=74 velocity=0 time=25
the msg is note_on channel=0 note=74 velocity=100 time=0
the msg is note_off channel=0 note=74 velocity=0 time=25
the msg is note_on channel=0 note=74 velocity=100 time=0
the msg is note_off channel=0 note=74 velocity=0 time=25
the msg is note_on channel=0 note=74 velocity=100 time=0
the msg is note_off channel=0 note=76 velocity=0 time=25
the msg is note_on channel=0 note=76 velocity=100 time=0
the msg is note_off channel=0 note=79 velocity=0 time=25
the msg is note_on channel=0 note=79 velocity=100 time=0
the msg is note_off channel=0 note=79 velocity=0 time=12
the msg is note_on channel=0 note=79 velocity=100 time=0
the msg is note_off channel=0 note=76 velocity=0 time=12
the msg is note_on channel=0 note=76 velocity=100 time=0
the msg is note_off channel=0 note=74 velocity=0 time=17
the msg is note_on channel=0 note=74 velocity=100 time=0
the msg is note_off channel=0 note=72 velocity=0 time=8
the msg is note_on channel=0 note=72 velocity=100 time=0
the msg is note_off channel=0 note=72 velocity=0 time=25
the msg is note_on channel=0 note=72 velocity=100 time=0
the msg is note_off channel=0 note=72 velocity=0 time=25
the msg is note_on channel=0 note=72 velocity=100 time=0
the msg is note_off channel=0 note=72 velocity=0 time=12
the msg is note_on channel=0 note=72 velocity=100 time=0
the msg is note_off channel=0 note=72 velocity=0 time=29
the msg is note_on channel=0 note=72 velocity=100 time=0
the msg is note_off channel=0 note=72 velocity=0 time=8
the msg is note_on channel=0 note=72 velocity=100 time=0
the msg is note_off channel=0 note=72 velocity=0 time=25
the msg is note_on channel=0 note=72 velocity=100 time=0
the msg is note_off channel=0 note=72 velocity=0 time=12
the msg is note_on channel=0 note=72 velocity=100 time=0
the msg is note_off channel=0 note=72 velocity=0 time=12
the msg is note_on channel=0 note=72 velocity=100 time=0
the msg is note_off channel=0 note=72 velocity=0 time=12
the msg is note_on channel=0 note=72 velocity=100 time=0
the msg is note_off channel=0 note=76 velocity=0 time=12
the msg is note_on channel=0 note=76 velocity=100 time=0
the msg is note_off channel=0 note=79 velocity=0 time=25
the msg is note_on channel=0 note=79 velocity=100 time=0
the msg is note_off channel=0 note=79 velocity=0 time=12
the msg is note_on channel=0 note=79 velocity=100 time=0
the msg is note_off channel=0 note=76 velocity=0 time=12
the msg is note_on channel=0 note=76 velocity=100 time=0
the msg is note_off channel=0 note=74 velocity=0 time=12
the msg is note_on channel=0 note=74 velocity=100 time=0
the msg is note_off channel=0 note=72 velocity=0 time=12
the msg is note_on channel=0 note=72 velocity=100 time=0
the msg is note_off channel=0 note=72 velocity=0 time=76
the msg is note_on channel=0 note=72 velocity=100 time=0
the msg is note_off channel=0 note=72 velocity=0 time=12
the msg is note_on channel=0 note=72 velocity=100 time=0
the msg is note_off channel=0 note=72 velocity=0 time=12
the msg is note_on channel=0 note=72 velocity=100 time=0
the msg is note_off channel=0 note=72 velocity=0 time=8
the msg is note_on channel=0 note=72 velocity=100 time=0
the msg is note_off channel=0 note=72 velocity=0 time=17
the msg is note_on channel=0 note=72 velocity=100 time=0
the msg is note_off channel=0 note=72 velocity=0 time=12
the msg is note_on channel=0 note=72 velocity=100 time=0
the msg is note_off channel=0 note=72 velocity=0 time=12
the msg is note_on channel=0 note=72 velocity=100 time=0
the msg is note_off channel=0 note=76 velocity=0 time=8
the msg is note_on channel=0 note=76 velocity=100 time=0
the msg is note_off channel=0 note=79 velocity=0 time=29
the msg is note_on channel=0 note=79 velocity=100 time=0
the msg is note_off channel=0 note=79 velocity=0 time=12
the msg is note_on channel=0 note=79 velocity=100 time=0
the msg is note_off channel=0 note=76 velocity=0 time=8
the msg is note_on channel=0 note=76 velocity=100 time=0
the msg is note_off channel=0 note=74 velocity=0 time=17
the msg is note_on channel=0 note=74 velocity=100 time=0
the msg is <meta message end_of_track time=51>
the msg is <meta message track_name name='Piano' time=0>
the msg is program_change channel=0 program=0 time=0
the msg is note_off channel=0 note=72 velocity=0 time=0
the msg is pitchwheel channel=0 pitch=0 time=0
the msg is program_change channel=0 program=0 time=0
the msg is <meta message set_tempo tempo=500000 time=0>
the msg is <meta message time_signature numerator=4 denominator=4 clocks_per_click=24 notated_32nd_notes_per_beat=8 time=0>
the msg is note_on channel=0 note=72 velocity=100 time=0
the msg is note_off channel=0 note=74 velocity=0 time=34
the msg is note_on channel=0 note=74 velocity=100 time=0
the msg is note_off channel=0 note=74 velocity=0 time=17
the msg is note_on channel=0 note=74 velocity=100 time=0
the msg is note_off channel=0 note=74 velocity=0 time=34
the msg is note_on channel=0 note=74 velocity=100 time=0
the msg is note_off channel=0 note=74 velocity=0 time=17
the msg is note_on channel=0 note=74 velocity=100 time=0
the msg is note_off channel=0 note=76 velocity=0 time=34
the msg is note_on channel=0 note=76 velocity=100 time=0
the msg is note_off channel=0 note=79 velocity=0 time=17
the msg is note_on channel=0 note=79 velocity=100 time=0
the msg is note_off channel=0 note=79 velocity=0 time=17
the msg is note_on channel=0 note=79 velocity=100 time=0
the msg is note_off channel=0 note=76 velocity=0 time=17
the msg is note_on channel=0 note=76 velocity=100 time=0
the msg is note_off channel=0 note=74 velocity=0 time=4
the msg is note_on channel=0 note=74 velocity=100 time=0
the msg is note_off channel=0 note=72 velocity=0 time=12
the msg is note_on channel=0 note=72 velocity=100 time=0
the msg is note_off channel=0 note=72 velocity=0 time=89
the msg is note_on channel=0 note=72 velocity=100 time=0
the msg is note_off channel=0 note=72 velocity=0 time=12
the msg is note_on channel=0 note=72 velocity=100 time=0
the msg is note_off channel=0 note=74 velocity=0 time=25
the msg is note_on channel=0 note=74 velocity=100 time=0
the msg is note_off channel=0 note=74 velocity=0 time=25
the msg is note_on channel=0 note=74 velocity=100 time=0
the msg is note_off channel=0 note=74 velocity=0 time=12
the msg is note_on channel=0 note=74 velocity=100 time=0
the msg is note_off channel=0 note=76 velocity=0 time=25
the msg is note_on channel=0 note=76 velocity=100 time=0
the msg is note_off channel=0 note=79 velocity=0 time=25
the msg is note_on channel=0 note=79 velocity=100 time=0
the msg is note_off channel=0 note=79 velocity=0 time=12
the msg is note_on channel=0 note=79 velocity=100 time=0
the msg is note_off channel=0 note=76 velocity=0 time=12
the msg is note_on channel=0 note=76 velocity=100 time=0
the msg is note_off channel=0 note=74 velocity=0 time=12
the msg is note_on channel=0 note=74 velocity=100 time=0
the msg is note_off channel=0 note=72 velocity=0 time=12
the msg is note_on channel=0 note=72 velocity=100 time=0
the msg is note_off channel=0 note=74 velocity=0 time=25
the msg is note_on channel=0 note=74 velocity=100 time=0
the msg is note_off channel=0 note=76 velocity=0 time=25
the msg is note_on channel=0 note=76 velocity=100 time=0
the msg is note_off channel=0 note=79 velocity=0 time=25
the msg is note_on channel=0 note=79 velocity=100 time=0
the msg is note_off channel=0 note=79 velocity=0 time=12
the msg is note_on channel=0 note=79 velocity=100 time=0
the msg is note_off channel=0 note=76 velocity=0 time=12
the msg is note_on channel=0 note=76 velocity=100 time=0
the msg is note_off channel=0 note=74 velocity=0 time=12
the msg is note_on channel=0 note=74 velocity=100 time=0
the msg is note_off channel=0 note=72 velocity=0 time=12
the msg is note_on channel=0 note=72 velocity=100 time=0
the msg is note_off channel=0 note=74 velocity=0 time=25
the msg is note_on channel=0 note=74 velocity=100 time=0
the msg is note_off channel=0 note=74 velocity=0 time=12
the msg is note_on channel=0 note=74 velocity=100 time=0
the msg is note_off channel=0 note=74 velocity=0 time=12
the msg is note_on channel=0 note=74 velocity=100 time=0
the msg is note_off channel=0 note=74 velocity=0 time=25
the msg is note_on channel=0 note=74 velocity=100 time=0
the msg is note_off channel=0 note=74 velocity=0 time=25
the msg is note_on channel=0 note=74 velocity=100 time=0
the msg is note_off channel=0 note=76 velocity=0 time=25
the msg is note_on channel=0 note=76 velocity=100 time=0
the msg is note_off channel=0 note=79 velocity=0 time=25
the msg is note_on channel=0 note=79 velocity=100 time=0
the msg is note_off channel=0 note=79 velocity=0 time=12
the msg is note_on channel=0 note=79 velocity=100 time=0
the msg is note_off channel=0 note=76 velocity=0 time=12
the msg is note_on channel=0 note=76 velocity=100 time=0
the msg is note_off channel=0 note=74 velocity=0 time=12
the msg is note_on channel=0 note=74 velocity=100 time=0
the msg is note_off channel=0 note=72 velocity=0 time=12
the msg is note_on channel=0 note=72 velocity=100 time=0
the msg is note_off channel=0 note=72 velocity=0 time=81
the msg is note_on channel=0 note=72 velocity=100 time=0
the msg is note_off channel=0 note=72 velocity=0 time=8
the msg is note_on channel=0 note=72 velocity=100 time=0
the msg is note_off channel=0 note=74 velocity=0 time=25
the msg is note_on channel=0 note=74 velocity=100 time=0
the msg is note_off channel=0 note=74 velocity=0 time=25
the msg is note_on channel=0 note=74 velocity=100 time=0
the msg is note_off channel=0 note=74 velocity=0 time=25
the msg is note_on channel=0 note=74 velocity=100 time=0
the msg is note_off channel=0 note=74 velocity=0 time=25
the msg is note_on channel=0 note=74 velocity=100 time=0
the msg is note_off channel=0 note=74 velocity=0 time=25
the msg is note_on channel=0 note=74 velocity=100 time=0
the msg is note_off channel=0 note=74 velocity=0 time=25
the msg is note_on channel=0 note=74 velocity=100 time=0
the msg is note_off channel=0 note=76 velocity=0 time=25
the msg is note_on channel=0 note=76 velocity=100 time=0
the msg is note_off channel=0 note=79 velocity=0 time=25
the msg is note_on channel=0 note=79 velocity=100 time=0
the msg is note_off channel=0 note=79 velocity=0 time=12
the msg is note_on channel=0 note=79 velocity=100 time=0
the msg is note_off channel=0 note=76 velocity=0 time=12
the msg is note_on channel=0 note=76 velocity=100 time=0
the msg is note_off channel=0 note=74 velocity=0 time=17
the msg is note_on channel=0 note=74 velocity=100 time=0
the msg is note_off channel=0 note=72 velocity=0 time=8
the msg is note_on channel=0 note=72 velocity=100 time=0
the msg is note_off channel=0 note=72 velocity=0 time=25
the msg is note_on channel=0 note=72 velocity=100 time=0
the msg is note_off channel=0 note=72 velocity=0 time=25
the msg is note_on channel=0 note=72 velocity=100 time=0
the msg is note_off channel=0 note=72 velocity=0 time=12
the msg is note_on channel=0 note=72 velocity=100 time=0
the msg is note_off channel=0 note=72 velocity=0 time=29
the msg is note_on channel=0 note=72 velocity=100 time=0
the msg is note_off channel=0 note=72 velocity=0 time=8
the msg is note_on channel=0 note=72 velocity=100 time=0
the msg is note_off channel=0 note=72 velocity=0 time=25
the msg is note_on channel=0 note=72 velocity=100 time=0
the msg is note_off channel=0 note=72 velocity=0 time=12
the msg is note_on channel=0 note=72 velocity=100 time=0
the msg is note_off channel=0 note=72 velocity=0 time=12
the msg is note_on channel=0 note=72 velocity=100 time=0
the msg is note_off channel=0 note=72 velocity=0 time=12
the msg is note_on channel=0 note=72 velocity=100 time=0
the msg is note_off channel=0 note=76 velocity=0 time=12
the msg is note_on channel=0 note=76 velocity=100 time=0
the msg is note_off channel=0 note=79 velocity=0 time=25
the msg is note_on channel=0 note=79 velocity=100 time=0
the msg is note_off channel=0 note=79 velocity=0 time=12
the msg is note_on channel=0 note=79 velocity=100 time=0
the msg is note_off channel=0 note=76 velocity=0 time=12
the msg is note_on channel=0 note=76 velocity=100 time=0
the msg is note_off channel=0 note=74 velocity=0 time=12
the msg is note_on channel=0 note=74 velocity=100 time=0
the msg is note_off channel=0 note=72 velocity=0 time=12
the msg is note_on channel=0 note=72 velocity=100 time=0
the msg is note_off channel=0 note=72 velocity=0 time=76
the msg is note_on channel=0 note=72 velocity=100 time=0
the msg is note_off channel=0 note=72 velocity=0 time=12
the msg is note_on channel=0 note=72 velocity=100 time=0
the msg is note_off channel=0 note=72 velocity=0 time=12
the msg is note_on channel=0 note=72 velocity=100 time=0
the msg is note_off channel=0 note=72 velocity=0 time=8
the msg is note_on channel=0 note=72 velocity=100 time=0
the msg is note_off channel=0 note=72 velocity=0 time=17
the msg is note_on channel=0 note=72 velocity=100 time=0
the msg is note_off channel=0 note=72 velocity=0 time=12
the msg is note_on channel=0 note=72 velocity=100 time=0
the msg is note_off channel=0 note=72 velocity=0 time=12
the msg is note_on channel=0 note=72 velocity=100 time=0
the msg is note_off channel=0 note=76 velocity=0 time=8
the msg is note_on channel=0 note=76 velocity=100 time=0
the msg is note_off channel=0 note=79 velocity=0 time=29
the msg is note_on channel=0 note=79 velocity=100 time=0
the msg is note_off channel=0 note=79 velocity=0 time=12
the msg is note_on channel=0 note=79 velocity=100 time=0
the msg is note_off channel=0 note=76 velocity=0 time=8
the msg is note_on channel=0 note=76 velocity=100 time=0
the msg is note_off channel=0 note=74 velocity=0 time=17
the msg is note_on channel=0 note=74 velocity=100 time=0
the msg is <meta message end_of_track time=51>
the msg is <meta message track_name name='Piano' time=0>
the msg is program_change channel=0 program=0 time=0
the msg is note_off channel=0 note=72 velocity=0 time=0
the msg is pitchwheel channel=0 pitch=0 time=0
the msg is program_change channel=0 program=0 time=0
the msg is <meta message set_tempo tempo=500000 time=0>
the msg is <meta message time_signature numerator=4 denominator=4 clocks_per_click=24 notated_32nd_notes_per_beat=8 time=0>
the msg is note_on channel=0 note=72 velocity=100 time=0
the msg is note_off channel=0 note=74 velocity=0 time=34
the msg is note_on channel=0 note=74 velocity=100 time=0
the msg is note_off channel=0 note=74 velocity=0 time=17
the msg is note_on channel=0 note=74 velocity=100 time=0
the msg is note_off channel=0 note=74 velocity=0 time=34
the msg is note_on channel=0 note=74 velocity=100 time=0
the msg is note_off channel=0 note=74 velocity=0 time=17
the msg is note_on channel=0 note=74 velocity=100 time=0
the msg is note_off channel=0 note=76 velocity=0 time=34
the msg is note_on channel=0 note=76 velocity=100 time=0
the msg is note_off channel=0 note=79 velocity=0 time=17
the msg is note_on channel=0 note=79 velocity=100 time=0
the msg is note_off channel=0 note=79 velocity=0 time=17
the msg is note_on channel=0 note=79 velocity=100 time=0
the msg is note_off channel=0 note=76 velocity=0 time=17
the msg is note_on channel=0 note=76 velocity=100 time=0
the msg is note_off channel=0 note=74 velocity=0 time=4
the msg is note_on channel=0 note=74 velocity=100 time=0
the msg is note_off channel=0 note=72 velocity=0 time=12
the msg is note_on channel=0 note=72 velocity=100 time=0
the msg is note_off channel=0 note=72 velocity=0 time=89
the msg is note_on channel=0 note=72 velocity=100 time=0
the msg is note_off channel=0 note=72 velocity=0 time=12
the msg is note_on channel=0 note=72 velocity=100 time=0
the msg is note_off channel=0 note=74 velocity=0 time=25
the msg is note_on channel=0 note=74 velocity=100 time=0
the msg is note_off channel=0 note=74 velocity=0 time=25
the msg is note_on channel=0 note=74 velocity=100 time=0
the msg is note_off channel=0 note=74 velocity=0 time=12
the msg is note_on channel=0 note=74 velocity=100 time=0
the msg is note_off channel=0 note=76 velocity=0 time=25
the msg is note_on channel=0 note=76 velocity=100 time=0
the msg is note_off channel=0 note=79 velocity=0 time=25
the msg is note_on channel=0 note=79 velocity=100 time=0
the msg is note_off channel=0 note=79 velocity=0 time=12
the msg is note_on channel=0 note=79 velocity=100 time=0
the msg is note_off channel=0 note=76 velocity=0 time=12
the msg is note_on channel=0 note=76 velocity=100 time=0
the msg is note_off channel=0 note=74 velocity=0 time=12
the msg is note_on channel=0 note=74 velocity=100 time=0
the msg is note_off channel=0 note=72 velocity=0 time=12
the msg is note_on channel=0 note=72 velocity=100 time=0
the msg is note_off channel=0 note=74 velocity=0 time=25
the msg is note_on channel=0 note=74 velocity=100 time=0
the msg is note_off channel=0 note=76 velocity=0 time=25
the msg is note_on channel=0 note=76 velocity=100 time=0
the msg is note_off channel=0 note=79 velocity=0 time=25
the msg is note_on channel=0 note=79 velocity=100 time=0
the msg is note_off channel=0 note=79 velocity=0 time=12
the msg is note_on channel=0 note=79 velocity=100 time=0
the msg is note_off channel=0 note=76 velocity=0 time=12
the msg is note_on channel=0 note=76 velocity=100 time=0
the msg is note_off channel=0 note=74 velocity=0 time=12
the msg is note_on channel=0 note=74 velocity=100 time=0
the msg is note_off channel=0 note=72 velocity=0 time=12
the msg is note_on channel=0 note=72 velocity=100 time=0
the msg is note_off channel=0 note=74 velocity=0 time=25
the msg is note_on channel=0 note=74 velocity=100 time=0
the msg is note_off channel=0 note=74 velocity=0 time=12
the msg is note_on channel=0 note=74 velocity=100 time=0
the msg is note_off channel=0 note=74 velocity=0 time=12
the msg is note_on channel=0 note=74 velocity=100 time=0
the msg is note_off channel=0 note=74 velocity=0 time=25
the msg is note_on channel=0 note=74 velocity=100 time=0
the msg is note_off channel=0 note=74 velocity=0 time=25
the msg is note_on channel=0 note=74 velocity=100 time=0
the msg is note_off channel=0 note=76 velocity=0 time=25
the msg is note_on channel=0 note=76 velocity=100 time=0
the msg is note_off channel=0 note=79 velocity=0 time=25
the msg is note_on channel=0 note=79 velocity=100 time=0
the msg is note_off channel=0 note=79 velocity=0 time=12
the msg is note_on channel=0 note=79 velocity=100 time=0
the msg is note_off channel=0 note=76 velocity=0 time=12
the msg is note_on channel=0 note=76 velocity=100 time=0
the msg is note_off channel=0 note=74 velocity=0 time=12
the msg is note_on channel=0 note=74 velocity=100 time=0
the msg is note_off channel=0 note=72 velocity=0 time=12
the msg is note_on channel=0 note=72 velocity=100 time=0
the msg is note_off channel=0 note=72 velocity=0 time=81
the msg is note_on channel=0 note=72 velocity=100 time=0
the msg is note_off channel=0 note=72 velocity=0 time=8
the msg is note_on channel=0 note=72 velocity=100 time=0
the msg is note_off channel=0 note=74 velocity=0 time=25
the msg is note_on channel=0 note=74 velocity=100 time=0
the msg is note_off channel=0 note=74 velocity=0 time=25
the msg is note_on channel=0 note=74 velocity=100 time=0
the msg is note_off channel=0 note=74 velocity=0 time=25
the msg is note_on channel=0 note=74 velocity=100 time=0
the msg is note_off channel=0 note=74 velocity=0 time=25
the msg is note_on channel=0 note=74 velocity=100 time=0
the msg is note_off channel=0 note=74 velocity=0 time=25
the msg is note_on channel=0 note=74 velocity=100 time=0
the msg is note_off channel=0 note=74 velocity=0 time=25
the msg is note_on channel=0 note=74 velocity=100 time=0
the msg is note_off channel=0 note=76 velocity=0 time=25
the msg is note_on channel=0 note=76 velocity=100 time=0
the msg is note_off channel=0 note=79 velocity=0 time=25
the msg is note_on channel=0 note=79 velocity=100 time=0
the msg is note_off channel=0 note=79 velocity=0 time=12
the msg is note_on channel=0 note=79 velocity=100 time=0
the msg is note_off channel=0 note=76 velocity=0 time=12
the msg is note_on channel=0 note=76 velocity=100 time=0
the msg is note_off channel=0 note=74 velocity=0 time=17
the msg is note_on channel=0 note=74 velocity=100 time=0
the msg is note_off channel=0 note=72 velocity=0 time=8
the msg is note_on channel=0 note=72 velocity=100 time=0
the msg is note_off channel=0 note=72 velocity=0 time=25
the msg is note_on channel=0 note=72 velocity=100 time=0
the msg is note_off channel=0 note=72 velocity=0 time=25
the msg is note_on channel=0 note=72 velocity=100 time=0
the msg is note_off channel=0 note=72 velocity=0 time=12
the msg is note_on channel=0 note=72 velocity=100 time=0
the msg is note_off channel=0 note=72 velocity=0 time=29
the msg is note_on channel=0 note=72 velocity=100 time=0
the msg is note_off channel=0 note=72 velocity=0 time=8
the msg is note_on channel=0 note=72 velocity=100 time=0
the msg is note_off channel=0 note=72 velocity=0 time=25
the msg is note_on channel=0 note=72 velocity=100 time=0
the msg is note_off channel=0 note=72 velocity=0 time=12
the msg is note_on channel=0 note=72 velocity=100 time=0
the msg is note_off channel=0 note=72 velocity=0 time=12
the msg is note_on channel=0 note=72 velocity=100 time=0
the msg is note_off channel=0 note=72 velocity=0 time=12
the msg is note_on channel=0 note=72 velocity=100 time=0
the msg is note_off channel=0 note=76 velocity=0 time=12
the msg is note_on channel=0 note=76 velocity=100 time=0
the msg is note_off channel=0 note=79 velocity=0 time=25
the msg is note_on channel=0 note=79 velocity=100 time=0
the msg is note_off channel=0 note=79 velocity=0 time=12
the msg is note_on channel=0 note=79 velocity=100 time=0
the msg is note_off channel=0 note=76 velocity=0 time=12
the msg is note_on channel=0 note=76 velocity=100 time=0
the msg is note_off channel=0 note=74 velocity=0 time=12
the msg is note_on channel=0 note=74 velocity=100 time=0
the msg is note_off channel=0 note=72 velocity=0 time=12
the msg is note_on channel=0 note=72 velocity=100 time=0
the msg is note_off channel=0 note=72 velocity=0 time=76
the msg is note_on channel=0 note=72 velocity=100 time=0
the msg is note_off channel=0 note=72 velocity=0 time=12
the msg is note_on channel=0 note=72 velocity=100 time=0
the msg is note_off channel=0 note=72 velocity=0 time=12
the msg is note_on channel=0 note=72 velocity=100 time=0
the msg is note_off channel=0 note=72 velocity=0 time=8
the msg is note_on channel=0 note=72 velocity=100 time=0
the msg is note_off channel=0 note=72 velocity=0 time=17
the msg is note_on channel=0 note=72 velocity=100 time=0
the msg is note_off channel=0 note=72 velocity=0 time=12
the msg is note_on channel=0 note=72 velocity=100 time=0
the msg is note_off channel=0 note=72 velocity=0 time=12
the msg is note_on channel=0 note=72 velocity=100 time=0
the msg is note_off channel=0 note=76 velocity=0 time=8
the msg is note_on channel=0 note=76 velocity=100 time=0
the msg is note_off channel=0 note=79 velocity=0 time=29
the msg is note_on channel=0 note=79 velocity=100 time=0
the msg is note_off channel=0 note=79 velocity=0 time=12
the msg is note_on channel=0 note=79 velocity=100 time=0
the msg is note_off channel=0 note=76 velocity=0 time=8
the msg is note_on channel=0 note=76 velocity=100 time=0
the msg is note_off channel=0 note=74 velocity=0 time=17
the msg is note_on channel=0 note=74 velocity=100 time=0
the msg is <meta message end_of_track time=51>
the msg is <meta message track_name name='Piano' time=0>
the msg is program_change channel=0 program=0 time=0
the msg is note_off channel=0 note=72 velocity=0 time=0
the msg is pitchwheel channel=0 pitch=0 time=0
the msg is program_change channel=0 program=0 time=0
the msg is <meta message set_tempo tempo=500000 time=0>
the msg is <meta message time_signature numerator=4 denominator=4 clocks_per_click=24 notated_32nd_notes_per_beat=8 time=0>
the msg is note_on channel=0 note=72 velocity=100 time=0
the msg is note_off channel=0 note=74 velocity=0 time=34
the msg is note_on channel=0 note=74 velocity=100 time=0
the msg is note_off channel=0 note=74 velocity=0 time=17
the msg is note_on channel=0 note=74 velocity=100 time=0
the msg is note_off channel=0 note=74 velocity=0 time=34
the msg is note_on channel=0 note=74 velocity=100 time=0
the msg is note_off channel=0 note=74 velocity=0 time=17
the msg is note_on channel=0 note=74 velocity=100 time=0
the msg is note_off channel=0 note=76 velocity=0 time=34
the msg is note_on channel=0 note=76 velocity=100 time=0
the msg is note_off channel=0 note=79 velocity=0 time=17
the msg is note_on channel=0 note=79 velocity=100 time=0
the msg is note_off channel=0 note=79 velocity=0 time=17
the msg is note_on channel=0 note=79 velocity=100 time=0
the msg is note_off channel=0 note=76 velocity=0 time=17
the msg is note_on channel=0 note=76 velocity=100 time=0
the msg is note_off channel=0 note=74 velocity=0 time=4
the msg is note_on channel=0 note=74 velocity=100 time=0
the msg is note_off channel=0 note=72 velocity=0 time=12
the msg is note_on channel=0 note=72 velocity=100 time=0
the msg is note_off channel=0 note=72 velocity=0 time=89
the msg is note_on channel=0 note=72 velocity=100 time=0
the msg is note_off channel=0 note=72 velocity=0 time=12
the msg is note_on channel=0 note=72 velocity=100 time=0
the msg is note_off channel=0 note=74 velocity=0 time=25
the msg is note_on channel=0 note=74 velocity=100 time=0
the msg is note_off channel=0 note=74 velocity=0 time=25
the msg is note_on channel=0 note=74 velocity=100 time=0
the msg is note_off channel=0 note=74 velocity=0 time=12
the msg is note_on channel=0 note=74 velocity=100 time=0
the msg is note_off channel=0 note=76 velocity=0 time=25
the msg is note_on channel=0 note=76 velocity=100 time=0
the msg is note_off channel=0 note=79 velocity=0 time=25
the msg is note_on channel=0 note=79 velocity=100 time=0
the msg is note_off channel=0 note=79 velocity=0 time=12
the msg is note_on channel=0 note=79 velocity=100 time=0
the msg is note_off channel=0 note=76 velocity=0 time=12
the msg is note_on channel=0 note=76 velocity=100 time=0
the msg is note_off channel=0 note=74 velocity=0 time=12
the msg is note_on channel=0 note=74 velocity=100 time=0
the msg is note_off channel=0 note=72 velocity=0 time=12
the msg is note_on channel=0 note=72 velocity=100 time=0
the msg is note_off channel=0 note=74 velocity=0 time=25
the msg is note_on channel=0 note=74 velocity=100 time=0
the msg is note_off channel=0 note=76 velocity=0 time=25
the msg is note_on channel=0 note=76 velocity=100 time=0
the msg is note_off channel=0 note=79 velocity=0 time=25
the msg is note_on channel=0 note=79 velocity=100 time=0
the msg is note_off channel=0 note=79 velocity=0 time=12
the msg is note_on channel=0 note=79 velocity=100 time=0
the msg is note_off channel=0 note=76 velocity=0 time=12
the msg is note_on channel=0 note=76 velocity=100 time=0
the msg is note_off channel=0 note=74 velocity=0 time=12
the msg is note_on channel=0 note=74 velocity=100 time=0
the msg is note_off channel=0 note=72 velocity=0 time=12
the msg is note_on channel=0 note=72 velocity=100 time=0
the msg is note_off channel=0 note=74 velocity=0 time=25
the msg is note_on channel=0 note=74 velocity=100 time=0
the msg is note_off channel=0 note=74 velocity=0 time=12
the msg is note_on channel=0 note=74 velocity=100 time=0
the msg is note_off channel=0 note=74 velocity=0 time=12
the msg is note_on channel=0 note=74 velocity=100 time=0
the msg is note_off channel=0 note=74 velocity=0 time=25
the msg is note_on channel=0 note=74 velocity=100 time=0
the msg is note_off channel=0 note=74 velocity=0 time=25
the msg is note_on channel=0 note=74 velocity=100 time=0
the msg is note_off channel=0 note=76 velocity=0 time=25
the msg is note_on channel=0 note=76 velocity=100 time=0
the msg is note_off channel=0 note=79 velocity=0 time=25
the msg is note_on channel=0 note=79 velocity=100 time=0
the msg is note_off channel=0 note=79 velocity=0 time=12
the msg is note_on channel=0 note=79 velocity=100 time=0
the msg is note_off channel=0 note=76 velocity=0 time=12
the msg is note_on channel=0 note=76 velocity=100 time=0
the msg is note_off channel=0 note=74 velocity=0 time=12
the msg is note_on channel=0 note=74 velocity=100 time=0
the msg is note_off channel=0 note=72 velocity=0 time=12
the msg is note_on channel=0 note=72 velocity=100 time=0
the msg is note_off channel=0 note=72 velocity=0 time=81
the msg is note_on channel=0 note=72 velocity=100 time=0
the msg is note_off channel=0 note=72 velocity=0 time=8
the msg is note_on channel=0 note=72 velocity=100 time=0
the msg is note_off channel=0 note=74 velocity=0 time=25
the msg is note_on channel=0 note=74 velocity=100 time=0
the msg is note_off channel=0 note=74 velocity=0 time=25
the msg is note_on channel=0 note=74 velocity=100 time=0
the msg is note_off channel=0 note=74 velocity=0 time=25
the msg is note_on channel=0 note=74 velocity=100 time=0
the msg is note_off channel=0 note=74 velocity=0 time=25
the msg is note_on channel=0 note=74 velocity=100 time=0
the msg is note_off channel=0 note=74 velocity=0 time=25
the msg is note_on channel=0 note=74 velocity=100 time=0
the msg is note_off channel=0 note=74 velocity=0 time=25
the msg is note_on channel=0 note=74 velocity=100 time=0
the msg is note_off channel=0 note=76 velocity=0 time=25
the msg is note_on channel=0 note=76 velocity=100 time=0
the msg is note_off channel=0 note=79 velocity=0 time=25
the msg is note_on channel=0 note=79 velocity=100 time=0
the msg is note_off channel=0 note=79 velocity=0 time=12
the msg is note_on channel=0 note=79 velocity=100 time=0
the msg is note_off channel=0 note=76 velocity=0 time=12
the msg is note_on channel=0 note=76 velocity=100 time=0
the msg is note_off channel=0 note=74 velocity=0 time=17
the msg is note_on channel=0 note=74 velocity=100 time=0
the msg is note_off channel=0 note=72 velocity=0 time=8
the msg is note_on channel=0 note=72 velocity=100 time=0
the msg is note_off channel=0 note=72 velocity=0 time=25
the msg is note_on channel=0 note=72 velocity=100 time=0
the msg is note_off channel=0 note=72 velocity=0 time=25
the msg is note_on channel=0 note=72 velocity=100 time=0
the msg is note_off channel=0 note=72 velocity=0 time=12
the msg is note_on channel=0 note=72 velocity=100 time=0
the msg is note_off channel=0 note=72 velocity=0 time=29
the msg is note_on channel=0 note=72 velocity=100 time=0
the msg is note_off channel=0 note=72 velocity=0 time=8
the msg is note_on channel=0 note=72 velocity=100 time=0
the msg is note_off channel=0 note=72 velocity=0 time=25
the msg is note_on channel=0 note=72 velocity=100 time=0
the msg is note_off channel=0 note=72 velocity=0 time=12
the msg is note_on channel=0 note=72 velocity=100 time=0
the msg is note_off channel=0 note=72 velocity=0 time=12
the msg is note_on channel=0 note=72 velocity=100 time=0
the msg is note_off channel=0 note=72 velocity=0 time=12
the msg is note_on channel=0 note=72 velocity=100 time=0
the msg is note_off channel=0 note=76 velocity=0 time=12
the msg is note_on channel=0 note=76 velocity=100 time=0
the msg is note_off channel=0 note=79 velocity=0 time=25
the msg is note_on channel=0 note=79 velocity=100 time=0
the msg is note_off channel=0 note=79 velocity=0 time=12
the msg is note_on channel=0 note=79 velocity=100 time=0
the msg is note_off channel=0 note=76 velocity=0 time=12
the msg is note_on channel=0 note=76 velocity=100 time=0
the msg is note_off channel=0 note=74 velocity=0 time=12
the msg is note_on channel=0 note=74 velocity=100 time=0
the msg is note_off channel=0 note=72 velocity=0 time=12
the msg is note_on channel=0 note=72 velocity=100 time=0
the msg is note_off channel=0 note=72 velocity=0 time=76
the msg is note_on channel=0 note=72 velocity=100 time=0
the msg is note_off channel=0 note=72 velocity=0 time=12
the msg is note_on channel=0 note=72 velocity=100 time=0
the msg is note_off channel=0 note=72 velocity=0 time=12
the msg is note_on channel=0 note=72 velocity=100 time=0
the msg is note_off channel=0 note=72 velocity=0 time=8
the msg is note_on channel=0 note=72 velocity=100 time=0
the msg is note_off channel=0 note=72 velocity=0 time=17
the msg is note_on channel=0 note=72 velocity=100 time=0
the msg is note_off channel=0 note=72 velocity=0 time=12
the msg is note_on channel=0 note=72 velocity=100 time=0
the msg is note_off channel=0 note=72 velocity=0 time=12
the msg is note_on channel=0 note=72 velocity=100 time=0
the msg is note_off channel=0 note=76 velocity=0 time=8
the msg is note_on channel=0 note=76 velocity=100 time=0
the msg is note_off channel=0 note=79 velocity=0 time=29
the msg is note_on channel=0 note=79 velocity=100 time=0
the msg is note_off channel=0 note=79 velocity=0 time=12
the msg is note_on channel=0 note=79 velocity=100 time=0
the msg is note_off channel=0 note=76 velocity=0 time=8
the msg is note_on channel=0 note=76 velocity=100 time=0
the msg is note_off channel=0 note=74 velocity=0 time=17
the msg is note_on channel=0 note=74 velocity=100 time=0
the msg is <meta message end_of_track time=51>
the msg is <meta message track_name name='Piano' time=0>
the msg is program_change channel=0 program=0 time=0
the msg is note_off channel=0 note=72 velocity=0 time=0
the msg is pitchwheel channel=0 pitch=0 time=0
the msg is program_change channel=0 program=0 time=0
the msg is <meta message set_tempo tempo=500000 time=0>
the msg is <meta message time_signature numerator=4 denominator=4 clocks_per_click=24 notated_32nd_notes_per_beat=8 time=0>
the msg is note_on channel=0 note=72 velocity=100 time=0
the msg is note_off channel=0 note=74 velocity=0 time=34
the msg is note_on channel=0 note=74 velocity=100 time=0
the msg is note_off channel=0 note=74 velocity=0 time=17
the msg is note_on channel=0 note=74 velocity=100 time=0
the msg is note_off channel=0 note=74 velocity=0 time=34
the msg is note_on channel=0 note=74 velocity=100 time=0
the msg is note_off channel=0 note=74 velocity=0 time=17
the msg is note_on channel=0 note=74 velocity=100 time=0
the msg is note_off channel=0 note=76 velocity=0 time=34
the msg is note_on channel=0 note=76 velocity=100 time=0
the msg is note_off channel=0 note=79 velocity=0 time=17
the msg is note_on channel=0 note=79 velocity=100 time=0
the msg is note_off channel=0 note=79 velocity=0 time=17
the msg is note_on channel=0 note=79 velocity=100 time=0
the msg is note_off channel=0 note=76 velocity=0 time=17
the msg is note_on channel=0 note=76 velocity=100 time=0
the msg is note_off channel=0 note=74 velocity=0 time=4
the msg is note_on channel=0 note=74 velocity=100 time=0
the msg is note_off channel=0 note=72 velocity=0 time=12
the msg is note_on channel=0 note=72 velocity=100 time=0
the msg is note_off channel=0 note=72 velocity=0 time=89
the msg is note_on channel=0 note=72 velocity=100 time=0
the msg is note_off channel=0 note=72 velocity=0 time=12
the msg is note_on channel=0 note=72 velocity=100 time=0
the msg is note_off channel=0 note=74 velocity=0 time=25
the msg is note_on channel=0 note=74 velocity=100 time=0
the msg is note_off channel=0 note=74 velocity=0 time=25
the msg is note_on channel=0 note=74 velocity=100 time=0
the msg is note_off channel=0 note=74 velocity=0 time=12
the msg is note_on channel=0 note=74 velocity=100 time=0
the msg is note_off channel=0 note=76 velocity=0 time=25
the msg is note_on channel=0 note=76 velocity=100 time=0
the msg is note_off channel=0 note=79 velocity=0 time=25
the msg is note_on channel=0 note=79 velocity=100 time=0
the msg is note_off channel=0 note=79 velocity=0 time=12
the msg is note_on channel=0 note=79 velocity=100 time=0
the msg is note_off channel=0 note=76 velocity=0 time=12
the msg is note_on channel=0 note=76 velocity=100 time=0
the msg is note_off channel=0 note=74 velocity=0 time=12
the msg is note_on channel=0 note=74 velocity=100 time=0
the msg is note_off channel=0 note=72 velocity=0 time=12
the msg is note_on channel=0 note=72 velocity=100 time=0
the msg is note_off channel=0 note=74 velocity=0 time=25
the msg is note_on channel=0 note=74 velocity=100 time=0
the msg is note_off channel=0 note=76 velocity=0 time=25
the msg is note_on channel=0 note=76 velocity=100 time=0
the msg is note_off channel=0 note=79 velocity=0 time=25
the msg is note_on channel=0 note=79 velocity=100 time=0
the msg is note_off channel=0 note=79 velocity=0 time=12
the msg is note_on channel=0 note=79 velocity=100 time=0
the msg is note_off channel=0 note=76 velocity=0 time=12
the msg is note_on channel=0 note=76 velocity=100 time=0
the msg is note_off channel=0 note=74 velocity=0 time=12
the msg is note_on channel=0 note=74 velocity=100 time=0
the msg is note_off channel=0 note=72 velocity=0 time=12
the msg is note_on channel=0 note=72 velocity=100 time=0
the msg is note_off channel=0 note=74 velocity=0 time=25
the msg is note_on channel=0 note=74 velocity=100 time=0
the msg is note_off channel=0 note=74 velocity=0 time=12
the msg is note_on channel=0 note=74 velocity=100 time=0
the msg is note_off channel=0 note=74 velocity=0 time=12
the msg is note_on channel=0 note=74 velocity=100 time=0
the msg is note_off channel=0 note=74 velocity=0 time=25
the msg is note_on channel=0 note=74 velocity=100 time=0
the msg is note_off channel=0 note=74 velocity=0 time=25
the msg is note_on channel=0 note=74 velocity=100 time=0
the msg is note_off channel=0 note=76 velocity=0 time=25
the msg is note_on channel=0 note=76 velocity=100 time=0
the msg is note_off channel=0 note=79 velocity=0 time=25
the msg is note_on channel=0 note=79 velocity=100 time=0
the msg is note_off channel=0 note=79 velocity=0 time=12
the msg is note_on channel=0 note=79 velocity=100 time=0
the msg is note_off channel=0 note=76 velocity=0 time=12
the msg is note_on channel=0 note=76 velocity=100 time=0
the msg is note_off channel=0 note=74 velocity=0 time=12
the msg is note_on channel=0 note=74 velocity=100 time=0
the msg is note_off channel=0 note=72 velocity=0 time=12
the msg is note_on channel=0 note=72 velocity=100 time=0
the msg is note_off channel=0 note=72 velocity=0 time=81
the msg is note_on channel=0 note=72 velocity=100 time=0
the msg is note_off channel=0 note=72 velocity=0 time=8
the msg is note_on channel=0 note=72 velocity=100 time=0
the msg is note_off channel=0 note=74 velocity=0 time=25
the msg is note_on channel=0 note=74 velocity=100 time=0
the msg is note_off channel=0 note=74 velocity=0 time=25
the msg is note_on channel=0 note=74 velocity=100 time=0
the msg is note_off channel=0 note=74 velocity=0 time=25
the msg is note_on channel=0 note=74 velocity=100 time=0
the msg is note_off channel=0 note=74 velocity=0 time=25
the msg is note_on channel=0 note=74 velocity=100 time=0
the msg is note_off channel=0 note=74 velocity=0 time=25
the msg is note_on channel=0 note=74 velocity=100 time=0
the msg is note_off channel=0 note=74 velocity=0 time=25
the msg is note_on channel=0 note=74 velocity=100 time=0
the msg is note_off channel=0 note=76 velocity=0 time=25
the msg is note_on channel=0 note=76 velocity=100 time=0
the msg is note_off channel=0 note=79 velocity=0 time=25
the msg is note_on channel=0 note=79 velocity=100 time=0
the msg is note_off channel=0 note=79 velocity=0 time=12
the msg is note_on channel=0 note=79 velocity=100 time=0
the msg is note_off channel=0 note=76 velocity=0 time=12
the msg is note_on channel=0 note=76 velocity=100 time=0
the msg is note_off channel=0 note=74 velocity=0 time=17
the msg is note_on channel=0 note=74 velocity=100 time=0
the msg is note_off channel=0 note=72 velocity=0 time=8
the msg is note_on channel=0 note=72 velocity=100 time=0
the msg is note_off channel=0 note=72 velocity=0 time=25
the msg is note_on channel=0 note=72 velocity=100 time=0
the msg is note_off channel=0 note=72 velocity=0 time=25
the msg is note_on channel=0 note=72 velocity=100 time=0
the msg is note_off channel=0 note=72 velocity=0 time=12
the msg is note_on channel=0 note=72 velocity=100 time=0
the msg is note_off channel=0 note=72 velocity=0 time=29
the msg is note_on channel=0 note=72 velocity=100 time=0
the msg is note_off channel=0 note=72 velocity=0 time=8
the msg is note_on channel=0 note=72 velocity=100 time=0
the msg is note_off channel=0 note=72 velocity=0 time=25
the msg is note_on channel=0 note=72 velocity=100 time=0
the msg is note_off channel=0 note=72 velocity=0 time=12
the msg is note_on channel=0 note=72 velocity=100 time=0
the msg is note_off channel=0 note=72 velocity=0 time=12
the msg is note_on channel=0 note=72 velocity=100 time=0
the msg is note_off channel=0 note=72 velocity=0 time=12
the msg is note_on channel=0 note=72 velocity=100 time=0
the msg is note_off channel=0 note=76 velocity=0 time=12
the msg is note_on channel=0 note=76 velocity=100 time=0
the msg is note_off channel=0 note=79 velocity=0 time=25
the msg is note_on channel=0 note=79 velocity=100 time=0
the msg is note_off channel=0 note=79 velocity=0 time=12
the msg is note_on channel=0 note=79 velocity=100 time=0
the msg is note_off channel=0 note=76 velocity=0 time=12
the msg is note_on channel=0 note=76 velocity=100 time=0
the msg is note_off channel=0 note=74 velocity=0 time=12
the msg is note_on channel=0 note=74 velocity=100 time=0
the msg is note_off channel=0 note=72 velocity=0 time=12
the msg is note_on channel=0 note=72 velocity=100 time=0
the msg is note_off channel=0 note=72 velocity=0 time=76
the msg is note_on channel=0 note=72 velocity=100 time=0
the msg is note_off channel=0 note=72 velocity=0 time=12
the msg is note_on channel=0 note=72 velocity=100 time=0
the msg is note_off channel=0 note=72 velocity=0 time=12
the msg is note_on channel=0 note=72 velocity=100 time=0
the msg is note_off channel=0 note=72 velocity=0 time=8
the msg is note_on channel=0 note=72 velocity=100 time=0
the msg is note_off channel=0 note=72 velocity=0 time=17
the msg is note_on channel=0 note=72 velocity=100 time=0
the msg is note_off channel=0 note=72 velocity=0 time=12
the msg is note_on channel=0 note=72 velocity=100 time=0
the msg is note_off channel=0 note=72 velocity=0 time=12
the msg is note_on channel=0 note=72 velocity=100 time=0
the msg is note_off channel=0 note=76 velocity=0 time=8
the msg is note_on channel=0 note=76 velocity=100 time=0
the msg is note_off channel=0 note=79 velocity=0 time=29
the msg is note_on channel=0 note=79 velocity=100 time=0
the msg is note_off channel=0 note=79 velocity=0 time=12
the msg is note_on channel=0 note=79 velocity=100 time=0
the msg is note_off channel=0 note=76 velocity=0 time=8
the msg is note_on channel=0 note=76 velocity=100 time=0
the msg is note_off channel=0 note=74 velocity=0 time=17
the msg is note_on channel=0 note=74 velocity=100 time=0
the msg is <meta message end_of_track time=51>
the msg is <meta message track_name name='Piano' time=0>
the msg is program_change channel=0 program=0 time=0
the msg is note_off channel=0 note=72 velocity=0 time=0
the msg is pitchwheel channel=0 pitch=0 time=0
the msg is program_change channel=0 program=0 time=0
the msg is <meta message set_tempo tempo=500000 time=0>
the msg is <meta message time_signature numerator=4 denominator=4 clocks_per_click=24 notated_32nd_notes_per_beat=8 time=0>
the msg is note_on channel=0 note=72 velocity=100 time=0
the msg is note_off channel=0 note=74 velocity=0 time=34
the msg is note_on channel=0 note=74 velocity=100 time=0
the msg is note_off channel=0 note=74 velocity=0 time=17
the msg is note_on channel=0 note=74 velocity=100 time=0
the msg is note_off channel=0 note=74 velocity=0 time=34
the msg is note_on channel=0 note=74 velocity=100 time=0
the msg is note_off channel=0 note=74 velocity=0 time=17
the msg is note_on channel=0 note=74 velocity=100 time=0
the msg is note_off channel=0 note=76 velocity=0 time=34
the msg is note_on channel=0 note=76 velocity=100 time=0
the msg is note_off channel=0 note=79 velocity=0 time=17
the msg is note_on channel=0 note=79 velocity=100 time=0
the msg is note_off channel=0 note=79 velocity=0 time=17
the msg is note_on channel=0 note=79 velocity=100 time=0
the msg is note_off channel=0 note=76 velocity=0 time=17
the msg is note_on channel=0 note=76 velocity=100 time=0
the msg is note_off channel=0 note=74 velocity=0 time=4
the msg is note_on channel=0 note=74 velocity=100 time=0
the msg is note_off channel=0 note=72 velocity=0 time=12
the msg is note_on channel=0 note=72 velocity=100 time=0
the msg is note_off channel=0 note=72 velocity=0 time=89
the msg is note_on channel=0 note=72 velocity=100 time=0
the msg is note_off channel=0 note=72 velocity=0 time=12
the msg is note_on channel=0 note=72 velocity=100 time=0
the msg is note_off channel=0 note=74 velocity=0 time=25
the msg is note_on channel=0 note=74 velocity=100 time=0
the msg is note_off channel=0 note=74 velocity=0 time=25
the msg is note_on channel=0 note=74 velocity=100 time=0
the msg is note_off channel=0 note=74 velocity=0 time=12
the msg is note_on channel=0 note=74 velocity=100 time=0
the msg is note_off channel=0 note=76 velocity=0 time=25
the msg is note_on channel=0 note=76 velocity=100 time=0
the msg is note_off channel=0 note=79 velocity=0 time=25
the msg is note_on channel=0 note=79 velocity=100 time=0
the msg is note_off channel=0 note=79 velocity=0 time=12
the msg is note_on channel=0 note=79 velocity=100 time=0
the msg is note_off channel=0 note=76 velocity=0 time=12
the msg is note_on channel=0 note=76 velocity=100 time=0
the msg is note_off channel=0 note=74 velocity=0 time=12
the msg is note_on channel=0 note=74 velocity=100 time=0
the msg is note_off channel=0 note=72 velocity=0 time=12
the msg is note_on channel=0 note=72 velocity=100 time=0
the msg is note_off channel=0 note=74 velocity=0 time=25
the msg is note_on channel=0 note=74 velocity=100 time=0
the msg is note_off channel=0 note=76 velocity=0 time=25
the msg is note_on channel=0 note=76 velocity=100 time=0
the msg is note_off channel=0 note=79 velocity=0 time=25
the msg is note_on channel=0 note=79 velocity=100 time=0
the msg is note_off channel=0 note=79 velocity=0 time=12
the msg is note_on channel=0 note=79 velocity=100 time=0
the msg is note_off channel=0 note=76 velocity=0 time=12
the msg is note_on channel=0 note=76 velocity=100 time=0
the msg is note_off channel=0 note=74 velocity=0 time=12
the msg is note_on channel=0 note=74 velocity=100 time=0
the msg is note_off channel=0 note=72 velocity=0 time=12
the msg is note_on channel=0 note=72 velocity=100 time=0
the msg is note_off channel=0 note=74 velocity=0 time=25
the msg is note_on channel=0 note=74 velocity=100 time=0
the msg is note_off channel=0 note=74 velocity=0 time=12
the msg is note_on channel=0 note=74 velocity=100 time=0
the msg is note_off channel=0 note=74 velocity=0 time=12
the msg is note_on channel=0 note=74 velocity=100 time=0
the msg is note_off channel=0 note=74 velocity=0 time=25
the msg is note_on channel=0 note=74 velocity=100 time=0
the msg is note_off channel=0 note=74 velocity=0 time=25
the msg is note_on channel=0 note=74 velocity=100 time=0
the msg is note_off channel=0 note=76 velocity=0 time=25
the msg is note_on channel=0 note=76 velocity=100 time=0
the msg is note_off channel=0 note=79 velocity=0 time=25
the msg is note_on channel=0 note=79 velocity=100 time=0
the msg is note_off channel=0 note=79 velocity=0 time=12
the msg is note_on channel=0 note=79 velocity=100 time=0
the msg is note_off channel=0 note=76 velocity=0 time=12
the msg is note_on channel=0 note=76 velocity=100 time=0
the msg is note_off channel=0 note=74 velocity=0 time=12
the msg is note_on channel=0 note=74 velocity=100 time=0
the msg is note_off channel=0 note=72 velocity=0 time=12
the msg is note_on channel=0 note=72 velocity=100 time=0
the msg is note_off channel=0 note=72 velocity=0 time=81
the msg is note_on channel=0 note=72 velocity=100 time=0
the msg is note_off channel=0 note=72 velocity=0 time=8
the msg is note_on channel=0 note=72 velocity=100 time=0
the msg is note_off channel=0 note=74 velocity=0 time=25
the msg is note_on channel=0 note=74 velocity=100 time=0
the msg is note_off channel=0 note=74 velocity=0 time=25
the msg is note_on channel=0 note=74 velocity=100 time=0
the msg is note_off channel=0 note=74 velocity=0 time=25
the msg is note_on channel=0 note=74 velocity=100 time=0
the msg is note_off channel=0 note=74 velocity=0 time=25
the msg is note_on channel=0 note=74 velocity=100 time=0
the msg is note_off channel=0 note=74 velocity=0 time=25
the msg is note_on channel=0 note=74 velocity=100 time=0
the msg is note_off channel=0 note=74 velocity=0 time=25
the msg is note_on channel=0 note=74 velocity=100 time=0
the msg is note_off channel=0 note=76 velocity=0 time=25
the msg is note_on channel=0 note=76 velocity=100 time=0
the msg is note_off channel=0 note=79 velocity=0 time=25
the msg is note_on channel=0 note=79 velocity=100 time=0
the msg is note_off channel=0 note=79 velocity=0 time=12
the msg is note_on channel=0 note=79 velocity=100 time=0
the msg is note_off channel=0 note=76 velocity=0 time=12
the msg is note_on channel=0 note=76 velocity=100 time=0
the msg is note_off channel=0 note=74 velocity=0 time=17
the msg is note_on channel=0 note=74 velocity=100 time=0
the msg is note_off channel=0 note=72 velocity=0 time=8
the msg is note_on channel=0 note=72 velocity=100 time=0
the msg is note_off channel=0 note=72 velocity=0 time=25
the msg is note_on channel=0 note=72 velocity=100 time=0
the msg is note_off channel=0 note=72 velocity=0 time=25
the msg is note_on channel=0 note=72 velocity=100 time=0
the msg is note_off channel=0 note=72 velocity=0 time=12
the msg is note_on channel=0 note=72 velocity=100 time=0
the msg is note_off channel=0 note=72 velocity=0 time=29
the msg is note_on channel=0 note=72 velocity=100 time=0
the msg is note_off channel=0 note=72 velocity=0 time=8
the msg is note_on channel=0 note=72 velocity=100 time=0
the msg is note_off channel=0 note=72 velocity=0 time=25
the msg is note_on channel=0 note=72 velocity=100 time=0
the msg is note_off channel=0 note=72 velocity=0 time=12
the msg is note_on channel=0 note=72 velocity=100 time=0
the msg is note_off channel=0 note=72 velocity=0 time=12
the msg is note_on channel=0 note=72 velocity=100 time=0
the msg is note_off channel=0 note=72 velocity=0 time=12
the msg is note_on channel=0 note=72 velocity=100 time=0
the msg is note_off channel=0 note=76 velocity=0 time=12
the msg is note_on channel=0 note=76 velocity=100 time=0
the msg is note_off channel=0 note=79 velocity=0 time=25
the msg is note_on channel=0 note=79 velocity=100 time=0
the msg is note_off channel=0 note=79 velocity=0 time=12
the msg is note_on channel=0 note=79 velocity=100 time=0
the msg is note_off channel=0 note=76 velocity=0 time=12
the msg is note_on channel=0 note=76 velocity=100 time=0
the msg is note_off channel=0 note=74 velocity=0 time=12
the msg is note_on channel=0 note=74 velocity=100 time=0
the msg is note_off channel=0 note=72 velocity=0 time=12
the msg is note_on channel=0 note=72 velocity=100 time=0
the msg is note_off channel=0 note=72 velocity=0 time=76
the msg is note_on channel=0 note=72 velocity=100 time=0
the msg is note_off channel=0 note=72 velocity=0 time=12
the msg is note_on channel=0 note=72 velocity=100 time=0
the msg is note_off channel=0 note=72 velocity=0 time=12
the msg is note_on channel=0 note=72 velocity=100 time=0
the msg is note_off channel=0 note=72 velocity=0 time=8
the msg is note_on channel=0 note=72 velocity=100 time=0
the msg is note_off channel=0 note=72 velocity=0 time=17
the msg is note_on channel=0 note=72 velocity=100 time=0
the msg is note_off channel=0 note=72 velocity=0 time=12
the msg is note_on channel=0 note=72 velocity=100 time=0
the msg is note_off channel=0 note=72 velocity=0 time=12
the msg is note_on channel=0 note=72 velocity=100 time=0
the msg is note_off channel=0 note=76 velocity=0 time=8
the msg is note_on channel=0 note=76 velocity=100 time=0
the msg is note_off channel=0 note=79 velocity=0 time=29
the msg is note_on channel=0 note=79 velocity=100 time=0
the msg is note_off channel=0 note=79 velocity=0 time=12
the msg is note_on channel=0 note=79 velocity=100 time=0
the msg is note_off channel=0 note=76 velocity=0 time=8
the msg is note_on channel=0 note=76 velocity=100 time=0
the msg is note_off channel=0 note=74 velocity=0 time=17
the msg is note_on channel=0 note=74 velocity=100 time=0
the msg is <meta message end_of_track time=51>
the msg is <meta message track_name name='Piano' time=0>
the msg is program_change channel=0 program=0 time=0
the msg is note_off channel=0 note=72 velocity=0 time=0
the msg is pitchwheel channel=0 pitch=0 time=0
the msg is program_change channel=0 program=0 time=0
the msg is <meta message set_tempo tempo=500000 time=0>
the msg is <meta message time_signature numerator=4 denominator=4 clocks_per_click=24 notated_32nd_notes_per_beat=8 time=0>
the msg is note_on channel=0 note=72 velocity=100 time=0
the msg is note_off channel=0 note=74 velocity=0 time=34
the msg is note_on channel=0 note=74 velocity=100 time=0
the msg is note_off channel=0 note=74 velocity=0 time=17
the msg is note_on channel=0 note=74 velocity=100 time=0
the msg is note_off channel=0 note=74 velocity=0 time=34
the msg is note_on channel=0 note=74 velocity=100 time=0
the msg is note_off channel=0 note=74 velocity=0 time=17
the msg is note_on channel=0 note=74 velocity=100 time=0
the msg is note_off channel=0 note=76 velocity=0 time=34
the msg is note_on channel=0 note=76 velocity=100 time=0
the msg is note_off channel=0 note=79 velocity=0 time=17
the msg is note_on channel=0 note=79 velocity=100 time=0
the msg is note_off channel=0 note=79 velocity=0 time=17
the msg is note_on channel=0 note=79 velocity=100 time=0
the msg is note_off channel=0 note=76 velocity=0 time=17
the msg is note_on channel=0 note=76 velocity=100 time=0
the msg is note_off channel=0 note=74 velocity=0 time=4
the msg is note_on channel=0 note=74 velocity=100 time=0
the msg is note_off channel=0 note=72 velocity=0 time=12
the msg is note_on channel=0 note=72 velocity=100 time=0
the msg is note_off channel=0 note=72 velocity=0 time=89
the msg is note_on channel=0 note=72 velocity=100 time=0
the msg is note_off channel=0 note=72 velocity=0 time=12
the msg is note_on channel=0 note=72 velocity=100 time=0
the msg is note_off channel=0 note=74 velocity=0 time=25
the msg is note_on channel=0 note=74 velocity=100 time=0
the msg is note_off channel=0 note=74 velocity=0 time=25
the msg is note_on channel=0 note=74 velocity=100 time=0
the msg is note_off channel=0 note=74 velocity=0 time=12
the msg is note_on channel=0 note=74 velocity=100 time=0
the msg is note_off channel=0 note=76 velocity=0 time=25
the msg is note_on channel=0 note=76 velocity=100 time=0
the msg is note_off channel=0 note=79 velocity=0 time=25
the msg is note_on channel=0 note=79 velocity=100 time=0
the msg is note_off channel=0 note=79 velocity=0 time=12
the msg is note_on channel=0 note=79 velocity=100 time=0
the msg is note_off channel=0 note=76 velocity=0 time=12
the msg is note_on channel=0 note=76 velocity=100 time=0
the msg is note_off channel=0 note=74 velocity=0 time=12
the msg is note_on channel=0 note=74 velocity=100 time=0
the msg is note_off channel=0 note=72 velocity=0 time=12
the msg is note_on channel=0 note=72 velocity=100 time=0
the msg is note_off channel=0 note=74 velocity=0 time=25
the msg is note_on channel=0 note=74 velocity=100 time=0
the msg is note_off channel=0 note=76 velocity=0 time=25
the msg is note_on channel=0 note=76 velocity=100 time=0
the msg is note_off channel=0 note=79 velocity=0 time=25
the msg is note_on channel=0 note=79 velocity=100 time=0
the msg is note_off channel=0 note=79 velocity=0 time=12
the msg is note_on channel=0 note=79 velocity=100 time=0
the msg is note_off channel=0 note=76 velocity=0 time=12
the msg is note_on channel=0 note=76 velocity=100 time=0
the msg is note_off channel=0 note=74 velocity=0 time=12
the msg is note_on channel=0 note=74 velocity=100 time=0
the msg is note_off channel=0 note=72 velocity=0 time=12
the msg is note_on channel=0 note=72 velocity=100 time=0
the msg is note_off channel=0 note=74 velocity=0 time=25
the msg is note_on channel=0 note=74 velocity=100 time=0
the msg is note_off channel=0 note=74 velocity=0 time=12
the msg is note_on channel=0 note=74 velocity=100 time=0
the msg is note_off channel=0 note=74 velocity=0 time=12
the msg is note_on channel=0 note=74 velocity=100 time=0
the msg is note_off channel=0 note=74 velocity=0 time=25
the msg is note_on channel=0 note=74 velocity=100 time=0
the msg is note_off channel=0 note=74 velocity=0 time=25
the msg is note_on channel=0 note=74 velocity=100 time=0
the msg is note_off channel=0 note=76 velocity=0 time=25
the msg is note_on channel=0 note=76 velocity=100 time=0
the msg is note_off channel=0 note=79 velocity=0 time=25
the msg is note_on channel=0 note=79 velocity=100 time=0
the msg is note_off channel=0 note=79 velocity=0 time=12
the msg is note_on channel=0 note=79 velocity=100 time=0
the msg is note_off channel=0 note=76 velocity=0 time=12
the msg is note_on channel=0 note=76 velocity=100 time=0
the msg is note_off channel=0 note=74 velocity=0 time=12
the msg is note_on channel=0 note=74 velocity=100 time=0
the msg is note_off channel=0 note=72 velocity=0 time=12
the msg is note_on channel=0 note=72 velocity=100 time=0
the msg is note_off channel=0 note=72 velocity=0 time=81
the msg is note_on channel=0 note=72 velocity=100 time=0
the msg is note_off channel=0 note=72 velocity=0 time=8
the msg is note_on channel=0 note=72 velocity=100 time=0
the msg is note_off channel=0 note=74 velocity=0 time=25
the msg is note_on channel=0 note=74 velocity=100 time=0
the msg is note_off channel=0 note=74 velocity=0 time=25
the msg is note_on channel=0 note=74 velocity=100 time=0
the msg is note_off channel=0 note=74 velocity=0 time=25
the msg is note_on channel=0 note=74 velocity=100 time=0
the msg is note_off channel=0 note=74 velocity=0 time=25
the msg is note_on channel=0 note=74 velocity=100 time=0
the msg is note_off channel=0 note=74 velocity=0 time=25
the msg is note_on channel=0 note=74 velocity=100 time=0
the msg is note_off channel=0 note=74 velocity=0 time=25
the msg is note_on channel=0 note=74 velocity=100 time=0
the msg is note_off channel=0 note=76 velocity=0 time=25
the msg is note_on channel=0 note=76 velocity=100 time=0
the msg is note_off channel=0 note=79 velocity=0 time=25
the msg is note_on channel=0 note=79 velocity=100 time=0
the msg is note_off channel=0 note=79 velocity=0 time=12
the msg is note_on channel=0 note=79 velocity=100 time=0
the msg is note_off channel=0 note=76 velocity=0 time=12
the msg is note_on channel=0 note=76 velocity=100 time=0
the msg is note_off channel=0 note=74 velocity=0 time=17
the msg is note_on channel=0 note=74 velocity=100 time=0
the msg is note_off channel=0 note=72 velocity=0 time=8
the msg is note_on channel=0 note=72 velocity=100 time=0
the msg is note_off channel=0 note=72 velocity=0 time=25
the msg is note_on channel=0 note=72 velocity=100 time=0
the msg is note_off channel=0 note=72 velocity=0 time=25
the msg is note_on channel=0 note=72 velocity=100 time=0
the msg is note_off channel=0 note=72 velocity=0 time=12
the msg is note_on channel=0 note=72 velocity=100 time=0
the msg is note_off channel=0 note=72 velocity=0 time=29
the msg is note_on channel=0 note=72 velocity=100 time=0
the msg is note_off channel=0 note=72 velocity=0 time=8
the msg is note_on channel=0 note=72 velocity=100 time=0
the msg is note_off channel=0 note=72 velocity=0 time=25
the msg is note_on channel=0 note=72 velocity=100 time=0
the msg is note_off channel=0 note=72 velocity=0 time=12
the msg is note_on channel=0 note=72 velocity=100 time=0
the msg is note_off channel=0 note=72 velocity=0 time=12
the msg is note_on channel=0 note=72 velocity=100 time=0
the msg is note_off channel=0 note=72 velocity=0 time=12
the msg is note_on channel=0 note=72 velocity=100 time=0
the msg is note_off channel=0 note=76 velocity=0 time=12
the msg is note_on channel=0 note=76 velocity=100 time=0
the msg is note_off channel=0 note=79 velocity=0 time=25
the msg is note_on channel=0 note=79 velocity=100 time=0
the msg is note_off channel=0 note=79 velocity=0 time=12
the msg is note_on channel=0 note=79 velocity=100 time=0
the msg is note_off channel=0 note=76 velocity=0 time=12
the msg is note_on channel=0 note=76 velocity=100 time=0
the msg is note_off channel=0 note=74 velocity=0 time=12
the msg is note_on channel=0 note=74 velocity=100 time=0
the msg is note_off channel=0 note=72 velocity=0 time=12
the msg is note_on channel=0 note=72 velocity=100 time=0
the msg is note_off channel=0 note=72 velocity=0 time=76
the msg is note_on channel=0 note=72 velocity=100 time=0
the msg is note_off channel=0 note=72 velocity=0 time=12
the msg is note_on channel=0 note=72 velocity=100 time=0
the msg is note_off channel=0 note=72 velocity=0 time=12
the msg is note_on channel=0 note=72 velocity=100 time=0
the msg is note_off channel=0 note=72 velocity=0 time=8
the msg is note_on channel=0 note=72 velocity=100 time=0
the msg is note_off channel=0 note=72 velocity=0 time=17
the msg is note_on channel=0 note=72 velocity=100 time=0
the msg is note_off channel=0 note=72 velocity=0 time=12
the msg is note_on channel=0 note=72 velocity=100 time=0
the msg is note_off channel=0 note=72 velocity=0 time=12
the msg is note_on channel=0 note=72 velocity=100 time=0
the msg is note_off channel=0 note=76 velocity=0 time=8
the msg is note_on channel=0 note=76 velocity=100 time=0
the msg is note_off channel=0 note=79 velocity=0 time=29
the msg is note_on channel=0 note=79 velocity=100 time=0
the msg is note_off channel=0 note=79 velocity=0 time=12
the msg is note_on channel=0 note=79 velocity=100 time=0
the msg is note_off channel=0 note=76 velocity=0 time=8
the msg is note_on channel=0 note=76 velocity=100 time=0
the msg is note_off channel=0 note=74 velocity=0 time=17
the msg is note_on channel=0 note=74 velocity=100 time=0
the msg is <meta message end_of_track time=51>
the msg is <meta message track_name name='Piano' time=0>
the msg is program_change channel=0 program=0 time=0
the msg is note_off channel=0 note=72 velocity=0 time=0
the msg is pitchwheel channel=0 pitch=0 time=0
the msg is program_change channel=0 program=0 time=0
the msg is <meta message set_tempo tempo=500000 time=0>
the msg is <meta message time_signature numerator=4 denominator=4 clocks_per_click=24 notated_32nd_notes_per_beat=8 time=0>
the msg is note_on channel=0 note=72 velocity=100 time=0
the msg is note_off channel=0 note=74 velocity=0 time=34
the msg is note_on channel=0 note=74 velocity=100 time=0
the msg is note_off channel=0 note=74 velocity=0 time=17
the msg is note_on channel=0 note=74 velocity=100 time=0
the msg is note_off channel=0 note=74 velocity=0 time=34
the msg is note_on channel=0 note=74 velocity=100 time=0
the msg is note_off channel=0 note=74 velocity=0 time=17
the msg is note_on channel=0 note=74 velocity=100 time=0
the msg is note_off channel=0 note=76 velocity=0 time=34
the msg is note_on channel=0 note=76 velocity=100 time=0
the msg is note_off channel=0 note=79 velocity=0 time=17
the msg is note_on channel=0 note=79 velocity=100 time=0
the msg is note_off channel=0 note=79 velocity=0 time=17
the msg is note_on channel=0 note=79 velocity=100 time=0
the msg is note_off channel=0 note=76 velocity=0 time=17
the msg is note_on channel=0 note=76 velocity=100 time=0
the msg is note_off channel=0 note=74 velocity=0 time=4
the msg is note_on channel=0 note=74 velocity=100 time=0
the msg is note_off channel=0 note=72 velocity=0 time=12
the msg is note_on channel=0 note=72 velocity=100 time=0
the msg is note_off channel=0 note=72 velocity=0 time=89
the msg is note_on channel=0 note=72 velocity=100 time=0
the msg is note_off channel=0 note=72 velocity=0 time=12
the msg is note_on channel=0 note=72 velocity=100 time=0
the msg is note_off channel=0 note=74 velocity=0 time=25
the msg is note_on channel=0 note=74 velocity=100 time=0
the msg is note_off channel=0 note=74 velocity=0 time=25
the msg is note_on channel=0 note=74 velocity=100 time=0
the msg is note_off channel=0 note=74 velocity=0 time=12
the msg is note_on channel=0 note=74 velocity=100 time=0
the msg is note_off channel=0 note=76 velocity=0 time=25
the msg is note_on channel=0 note=76 velocity=100 time=0
the msg is note_off channel=0 note=79 velocity=0 time=25
the msg is note_on channel=0 note=79 velocity=100 time=0
the msg is note_off channel=0 note=79 velocity=0 time=12
the msg is note_on channel=0 note=79 velocity=100 time=0
the msg is note_off channel=0 note=76 velocity=0 time=12
the msg is note_on channel=0 note=76 velocity=100 time=0
the msg is note_off channel=0 note=74 velocity=0 time=12
the msg is note_on channel=0 note=74 velocity=100 time=0
the msg is note_off channel=0 note=72 velocity=0 time=12
the msg is note_on channel=0 note=72 velocity=100 time=0
the msg is note_off channel=0 note=74 velocity=0 time=25
the msg is note_on channel=0 note=74 velocity=100 time=0
the msg is note_off channel=0 note=76 velocity=0 time=25
the msg is note_on channel=0 note=76 velocity=100 time=0
the msg is note_off channel=0 note=79 velocity=0 time=25
the msg is note_on channel=0 note=79 velocity=100 time=0
the msg is note_off channel=0 note=79 velocity=0 time=12
the msg is note_on channel=0 note=79 velocity=100 time=0
the msg is note_off channel=0 note=76 velocity=0 time=12
the msg is note_on channel=0 note=76 velocity=100 time=0
the msg is note_off channel=0 note=74 velocity=0 time=12
the msg is note_on channel=0 note=74 velocity=100 time=0
the msg is note_off channel=0 note=72 velocity=0 time=12
the msg is note_on channel=0 note=72 velocity=100 time=0
the msg is note_off channel=0 note=74 velocity=0 time=25
the msg is note_on channel=0 note=74 velocity=100 time=0
the msg is note_off channel=0 note=74 velocity=0 time=12
the msg is note_on channel=0 note=74 velocity=100 time=0
the msg is note_off channel=0 note=74 velocity=0 time=12
the msg is note_on channel=0 note=74 velocity=100 time=0
the msg is note_off channel=0 note=74 velocity=0 time=25
the msg is note_on channel=0 note=74 velocity=100 time=0
the msg is note_off channel=0 note=74 velocity=0 time=25
the msg is note_on channel=0 note=74 velocity=100 time=0
the msg is note_off channel=0 note=76 velocity=0 time=25
the msg is note_on channel=0 note=76 velocity=100 time=0
the msg is note_off channel=0 note=79 velocity=0 time=25
the msg is note_on channel=0 note=79 velocity=100 time=0
the msg is note_off channel=0 note=79 velocity=0 time=12
the msg is note_on channel=0 note=79 velocity=100 time=0
the msg is note_off channel=0 note=76 velocity=0 time=12
the msg is note_on channel=0 note=76 velocity=100 time=0
the msg is note_off channel=0 note=74 velocity=0 time=12
the msg is note_on channel=0 note=74 velocity=100 time=0
the msg is note_off channel=0 note=72 velocity=0 time=12
the msg is note_on channel=0 note=72 velocity=100 time=0
the msg is note_off channel=0 note=72 velocity=0 time=81
the msg is note_on channel=0 note=72 velocity=100 time=0
the msg is note_off channel=0 note=72 velocity=0 time=8
the msg is note_on channel=0 note=72 velocity=100 time=0
the msg is note_off channel=0 note=74 velocity=0 time=25
the msg is note_on channel=0 note=74 velocity=100 time=0
the msg is note_off channel=0 note=74 velocity=0 time=25
the msg is note_on channel=0 note=74 velocity=100 time=0
the msg is note_off channel=0 note=74 velocity=0 time=25
the msg is note_on channel=0 note=74 velocity=100 time=0
the msg is note_off channel=0 note=74 velocity=0 time=25
the msg is note_on channel=0 note=74 velocity=100 time=0
the msg is note_off channel=0 note=74 velocity=0 time=25
the msg is note_on channel=0 note=74 velocity=100 time=0
the msg is note_off channel=0 note=74 velocity=0 time=25
the msg is note_on channel=0 note=74 velocity=100 time=0
the msg is note_off channel=0 note=76 velocity=0 time=25
the msg is note_on channel=0 note=76 velocity=100 time=0
the msg is note_off channel=0 note=79 velocity=0 time=25
the msg is note_on channel=0 note=79 velocity=100 time=0
the msg is note_off channel=0 note=79 velocity=0 time=12
the msg is note_on channel=0 note=79 velocity=100 time=0
the msg is note_off channel=0 note=76 velocity=0 time=12
the msg is note_on channel=0 note=76 velocity=100 time=0
the msg is note_off channel=0 note=74 velocity=0 time=17
the msg is note_on channel=0 note=74 velocity=100 time=0
the msg is note_off channel=0 note=72 velocity=0 time=8
the msg is note_on channel=0 note=72 velocity=100 time=0
the msg is note_off channel=0 note=72 velocity=0 time=25
the msg is note_on channel=0 note=72 velocity=100 time=0
the msg is note_off channel=0 note=72 velocity=0 time=25
the msg is note_on channel=0 note=72 velocity=100 time=0
the msg is note_off channel=0 note=72 velocity=0 time=12
the msg is note_on channel=0 note=72 velocity=100 time=0
the msg is note_off channel=0 note=72 velocity=0 time=29
the msg is note_on channel=0 note=72 velocity=100 time=0
the msg is note_off channel=0 note=72 velocity=0 time=8
the msg is note_on channel=0 note=72 velocity=100 time=0
the msg is note_off channel=0 note=72 velocity=0 time=25
the msg is note_on channel=0 note=72 velocity=100 time=0
the msg is note_off channel=0 note=72 velocity=0 time=12
the msg is note_on channel=0 note=72 velocity=100 time=0
the msg is note_off channel=0 note=72 velocity=0 time=12
the msg is note_on channel=0 note=72 velocity=100 time=0
the msg is note_off channel=0 note=72 velocity=0 time=12
the msg is note_on channel=0 note=72 velocity=100 time=0
the msg is note_off channel=0 note=76 velocity=0 time=12
the msg is note_on channel=0 note=76 velocity=100 time=0
the msg is note_off channel=0 note=79 velocity=0 time=25
the msg is note_on channel=0 note=79 velocity=100 time=0
the msg is note_off channel=0 note=79 velocity=0 time=12
the msg is note_on channel=0 note=79 velocity=100 time=0
the msg is note_off channel=0 note=76 velocity=0 time=12
the msg is note_on channel=0 note=76 velocity=100 time=0
the msg is note_off channel=0 note=74 velocity=0 time=12
the msg is note_on channel=0 note=74 velocity=100 time=0
the msg is note_off channel=0 note=72 velocity=0 time=12
the msg is note_on channel=0 note=72 velocity=100 time=0
the msg is note_off channel=0 note=72 velocity=0 time=76
the msg is note_on channel=0 note=72 velocity=100 time=0
the msg is note_off channel=0 note=72 velocity=0 time=12
the msg is note_on channel=0 note=72 velocity=100 time=0
the msg is note_off channel=0 note=72 velocity=0 time=12
the msg is note_on channel=0 note=72 velocity=100 time=0
the msg is note_off channel=0 note=72 velocity=0 time=8
the msg is note_on channel=0 note=72 velocity=100 time=0
the msg is note_off channel=0 note=72 velocity=0 time=17
the msg is note_on channel=0 note=72 velocity=100 time=0
the msg is note_off channel=0 note=72 velocity=0 time=12
the msg is note_on channel=0 note=72 velocity=100 time=0
the msg is note_off channel=0 note=72 velocity=0 time=12
the msg is note_on channel=0 note=72 velocity=100 time=0
the msg is note_off channel=0 note=76 velocity=0 time=8
the msg is note_on channel=0 note=76 velocity=100 time=0
the msg is note_off channel=0 note=79 velocity=0 time=29
the msg is note_on channel=0 note=79 velocity=100 time=0
the msg is note_off channel=0 note=79 velocity=0 time=12
the msg is note_on channel=0 note=79 velocity=100 time=0
the msg is note_off channel=0 note=76 velocity=0 time=8
the msg is note_on channel=0 note=76 velocity=100 time=0
the msg is note_off channel=0 note=74 velocity=0 time=17
the msg is note_on channel=0 note=74 velocity=100 time=0
the msg is <meta message end_of_track time=51>
the msg is <meta message track_name name='Piano' time=0>
the msg is program_change channel=0 program=0 time=0
the msg is note_off channel=0 note=72 velocity=0 time=0
the msg is pitchwheel channel=0 pitch=0 time=0
the msg is program_change channel=0 program=0 time=0
the msg is <meta message set_tempo tempo=500000 time=0>
the msg is <meta message time_signature numerator=4 denominator=4 clocks_per_click=24 notated_32nd_notes_per_beat=8 time=0>
the msg is note_on channel=0 note=72 velocity=100 time=0
the msg is note_off channel=0 note=74 velocity=0 time=34
the msg is note_on channel=0 note=74 velocity=100 time=0
the msg is note_off channel=0 note=74 velocity=0 time=17
the msg is note_on channel=0 note=74 velocity=100 time=0
the msg is note_off channel=0 note=74 velocity=0 time=34
the msg is note_on channel=0 note=74 velocity=100 time=0
the msg is note_off channel=0 note=74 velocity=0 time=17
the msg is note_on channel=0 note=74 velocity=100 time=0
the msg is note_off channel=0 note=76 velocity=0 time=34
the msg is note_on channel=0 note=76 velocity=100 time=0
the msg is note_off channel=0 note=79 velocity=0 time=17
the msg is note_on channel=0 note=79 velocity=100 time=0
the msg is note_off channel=0 note=79 velocity=0 time=17
the msg is note_on channel=0 note=79 velocity=100 time=0
the msg is note_off channel=0 note=76 velocity=0 time=17
the msg is note_on channel=0 note=76 velocity=100 time=0
the msg is note_off channel=0 note=74 velocity=0 time=4
the msg is note_on channel=0 note=74 velocity=100 time=0
the msg is note_off channel=0 note=72 velocity=0 time=12
the msg is note_on channel=0 note=72 velocity=100 time=0
the msg is note_off channel=0 note=72 velocity=0 time=89
the msg is note_on channel=0 note=72 velocity=100 time=0
the msg is note_off channel=0 note=72 velocity=0 time=12
the msg is note_on channel=0 note=72 velocity=100 time=0
the msg is note_off channel=0 note=74 velocity=0 time=25
the msg is note_on channel=0 note=74 velocity=100 time=0
the msg is note_off channel=0 note=74 velocity=0 time=25
the msg is note_on channel=0 note=74 velocity=100 time=0
the msg is note_off channel=0 note=74 velocity=0 time=12
the msg is note_on channel=0 note=74 velocity=100 time=0
the msg is note_off channel=0 note=76 velocity=0 time=25
the msg is note_on channel=0 note=76 velocity=100 time=0
the msg is note_off channel=0 note=79 velocity=0 time=25
the msg is note_on channel=0 note=79 velocity=100 time=0
the msg is note_off channel=0 note=79 velocity=0 time=12
the msg is note_on channel=0 note=79 velocity=100 time=0
the msg is note_off channel=0 note=76 velocity=0 time=12
the msg is note_on channel=0 note=76 velocity=100 time=0
the msg is note_off channel=0 note=74 velocity=0 time=12
the msg is note_on channel=0 note=74 velocity=100 time=0
the msg is note_off channel=0 note=72 velocity=0 time=12
the msg is note_on channel=0 note=72 velocity=100 time=0
the msg is note_off channel=0 note=74 velocity=0 time=25
the msg is note_on channel=0 note=74 velocity=100 time=0
the msg is note_off channel=0 note=76 velocity=0 time=25
the msg is note_on channel=0 note=76 velocity=100 time=0
the msg is note_off channel=0 note=79 velocity=0 time=25
the msg is note_on channel=0 note=79 velocity=100 time=0
the msg is note_off channel=0 note=79 velocity=0 time=12
the msg is note_on channel=0 note=79 velocity=100 time=0
the msg is note_off channel=0 note=76 velocity=0 time=12
the msg is note_on channel=0 note=76 velocity=100 time=0
the msg is note_off channel=0 note=74 velocity=0 time=12
the msg is note_on channel=0 note=74 velocity=100 time=0
the msg is note_off channel=0 note=72 velocity=0 time=12
the msg is note_on channel=0 note=72 velocity=100 time=0
the msg is note_off channel=0 note=74 velocity=0 time=25
the msg is note_on channel=0 note=74 velocity=100 time=0
the msg is note_off channel=0 note=74 velocity=0 time=12
the msg is note_on channel=0 note=74 velocity=100 time=0
the msg is note_off channel=0 note=74 velocity=0 time=12
the msg is note_on channel=0 note=74 velocity=100 time=0
the msg is note_off channel=0 note=74 velocity=0 time=25
the msg is note_on channel=0 note=74 velocity=100 time=0
the msg is note_off channel=0 note=74 velocity=0 time=25
the msg is note_on channel=0 note=74 velocity=100 time=0
the msg is note_off channel=0 note=76 velocity=0 time=25
the msg is note_on channel=0 note=76 velocity=100 time=0
the msg is note_off channel=0 note=79 velocity=0 time=25
the msg is note_on channel=0 note=79 velocity=100 time=0
the msg is note_off channel=0 note=79 velocity=0 time=12
the msg is note_on channel=0 note=79 velocity=100 time=0
the msg is note_off channel=0 note=76 velocity=0 time=12
the msg is note_on channel=0 note=76 velocity=100 time=0
the msg is note_off channel=0 note=74 velocity=0 time=12
the msg is note_on channel=0 note=74 velocity=100 time=0
the msg is note_off channel=0 note=72 velocity=0 time=12
the msg is note_on channel=0 note=72 velocity=100 time=0
the msg is note_off channel=0 note=72 velocity=0 time=81
the msg is note_on channel=0 note=72 velocity=100 time=0
the msg is note_off channel=0 note=72 velocity=0 time=8
the msg is note_on channel=0 note=72 velocity=100 time=0
the msg is note_off channel=0 note=74 velocity=0 time=25
the msg is note_on channel=0 note=74 velocity=100 time=0
the msg is note_off channel=0 note=74 velocity=0 time=25
the msg is note_on channel=0 note=74 velocity=100 time=0
the msg is note_off channel=0 note=74 velocity=0 time=25
the msg is note_on channel=0 note=74 velocity=100 time=0
the msg is note_off channel=0 note=74 velocity=0 time=25
the msg is note_on channel=0 note=74 velocity=100 time=0
the msg is note_off channel=0 note=74 velocity=0 time=25
the msg is note_on channel=0 note=74 velocity=100 time=0
the msg is note_off channel=0 note=74 velocity=0 time=25
the msg is note_on channel=0 note=74 velocity=100 time=0
the msg is note_off channel=0 note=76 velocity=0 time=25
the msg is note_on channel=0 note=76 velocity=100 time=0
the msg is note_off channel=0 note=79 velocity=0 time=25
the msg is note_on channel=0 note=79 velocity=100 time=0
the msg is note_off channel=0 note=79 velocity=0 time=12
the msg is note_on channel=0 note=79 velocity=100 time=0
the msg is note_off channel=0 note=76 velocity=0 time=12
the msg is note_on channel=0 note=76 velocity=100 time=0
the msg is note_off channel=0 note=74 velocity=0 time=17
the msg is note_on channel=0 note=74 velocity=100 time=0
the msg is note_off channel=0 note=72 velocity=0 time=8
the msg is note_on channel=0 note=72 velocity=100 time=0
the msg is note_off channel=0 note=72 velocity=0 time=25
the msg is note_on channel=0 note=72 velocity=100 time=0
the msg is note_off channel=0 note=72 velocity=0 time=25
the msg is note_on channel=0 note=72 velocity=100 time=0
the msg is note_off channel=0 note=72 velocity=0 time=12
the msg is note_on channel=0 note=72 velocity=100 time=0
the msg is note_off channel=0 note=72 velocity=0 time=29
the msg is note_on channel=0 note=72 velocity=100 time=0
the msg is note_off channel=0 note=72 velocity=0 time=8
the msg is note_on channel=0 note=72 velocity=100 time=0
the msg is note_off channel=0 note=72 velocity=0 time=25
the msg is note_on channel=0 note=72 velocity=100 time=0
the msg is note_off channel=0 note=72 velocity=0 time=12
the msg is note_on channel=0 note=72 velocity=100 time=0
the msg is note_off channel=0 note=72 velocity=0 time=12
the msg is note_on channel=0 note=72 velocity=100 time=0
the msg is note_off channel=0 note=72 velocity=0 time=12
the msg is note_on channel=0 note=72 velocity=100 time=0
the msg is note_off channel=0 note=76 velocity=0 time=12
the msg is note_on channel=0 note=76 velocity=100 time=0
the msg is note_off channel=0 note=79 velocity=0 time=25
the msg is note_on channel=0 note=79 velocity=100 time=0
the msg is note_off channel=0 note=79 velocity=0 time=12
the msg is note_on channel=0 note=79 velocity=100 time=0
the msg is note_off channel=0 note=76 velocity=0 time=12
the msg is note_on channel=0 note=76 velocity=100 time=0
the msg is note_off channel=0 note=74 velocity=0 time=12
the msg is note_on channel=0 note=74 velocity=100 time=0
the msg is note_off channel=0 note=72 velocity=0 time=12
the msg is note_on channel=0 note=72 velocity=100 time=0
the msg is note_off channel=0 note=72 velocity=0 time=76
the msg is note_on channel=0 note=72 velocity=100 time=0
the msg is note_off channel=0 note=72 velocity=0 time=12
the msg is note_on channel=0 note=72 velocity=100 time=0
the msg is note_off channel=0 note=72 velocity=0 time=12
the msg is note_on channel=0 note=72 velocity=100 time=0
the msg is note_off channel=0 note=72 velocity=0 time=8
the msg is note_on channel=0 note=72 velocity=100 time=0
the msg is note_off channel=0 note=72 velocity=0 time=17
the msg is note_on channel=0 note=72 velocity=100 time=0
the msg is note_off channel=0 note=72 velocity=0 time=12
the msg is note_on channel=0 note=72 velocity=100 time=0
the msg is note_off channel=0 note=72 velocity=0 time=12
the msg is note_on channel=0 note=72 velocity=100 time=0
the msg is note_off channel=0 note=76 velocity=0 time=8
the msg is note_on channel=0 note=76 velocity=100 time=0
the msg is note_off channel=0 note=79 velocity=0 time=29
the msg is note_on channel=0 note=79 velocity=100 time=0
the msg is note_off channel=0 note=79 velocity=0 time=12
the msg is note_on channel=0 note=79 velocity=100 time=0
the msg is note_off channel=0 note=76 velocity=0 time=8
the msg is note_on channel=0 note=76 velocity=100 time=0
the msg is note_off channel=0 note=74 velocity=0 time=17
the msg is note_on channel=0 note=74 velocity=100 time=0
the msg is <meta message end_of_track time=51>
the msg is <meta message track_name name='Piano' time=0>
the msg is program_change channel=0 program=0 time=0
the msg is note_off channel=0 note=72 velocity=0 time=0
the msg is pitchwheel channel=0 pitch=0 time=0
the msg is program_change channel=0 program=0 time=0
the msg is <meta message set_tempo tempo=500000 time=0>
the msg is <meta message time_signature numerator=4 denominator=4 clocks_per_click=24 notated_32nd_notes_per_beat=8 time=0>
the msg is note_on channel=0 note=72 velocity=100 time=0
the msg is note_off channel=0 note=74 velocity=0 time=34
the msg is note_on channel=0 note=74 velocity=100 time=0
the msg is note_off channel=0 note=74 velocity=0 time=17
the msg is note_on channel=0 note=74 velocity=100 time=0
the msg is note_off channel=0 note=74 velocity=0 time=34
the msg is note_on channel=0 note=74 velocity=100 time=0
the msg is note_off channel=0 note=74 velocity=0 time=17
the msg is note_on channel=0 note=74 velocity=100 time=0
the msg is note_off channel=0 note=76 velocity=0 time=34
the msg is note_on channel=0 note=76 velocity=100 time=0
the msg is note_off channel=0 note=79 velocity=0 time=17
the msg is note_on channel=0 note=79 velocity=100 time=0
the msg is note_off channel=0 note=79 velocity=0 time=17
the msg is note_on channel=0 note=79 velocity=100 time=0
the msg is note_off channel=0 note=76 velocity=0 time=17
the msg is note_on channel=0 note=76 velocity=100 time=0
the msg is note_off channel=0 note=74 velocity=0 time=4
the msg is note_on channel=0 note=74 velocity=100 time=0
the msg is note_off channel=0 note=72 velocity=0 time=12
the msg is note_on channel=0 note=72 velocity=100 time=0
the msg is note_off channel=0 note=72 velocity=0 time=89
the msg is note_on channel=0 note=72 velocity=100 time=0
the msg is note_off channel=0 note=72 velocity=0 time=12
the msg is note_on channel=0 note=72 velocity=100 time=0
the msg is note_off channel=0 note=74 velocity=0 time=25
the msg is note_on channel=0 note=74 velocity=100 time=0
the msg is note_off channel=0 note=74 velocity=0 time=25
the msg is note_on channel=0 note=74 velocity=100 time=0
the msg is note_off channel=0 note=74 velocity=0 time=12
the msg is note_on channel=0 note=74 velocity=100 time=0
the msg is note_off channel=0 note=76 velocity=0 time=25
the msg is note_on channel=0 note=76 velocity=100 time=0
the msg is note_off channel=0 note=79 velocity=0 time=25
the msg is note_on channel=0 note=79 velocity=100 time=0
the msg is note_off channel=0 note=79 velocity=0 time=12
the msg is note_on channel=0 note=79 velocity=100 time=0
the msg is note_off channel=0 note=76 velocity=0 time=12
the msg is note_on channel=0 note=76 velocity=100 time=0
the msg is note_off channel=0 note=74 velocity=0 time=12
the msg is note_on channel=0 note=74 velocity=100 time=0
the msg is note_off channel=0 note=72 velocity=0 time=12
the msg is note_on channel=0 note=72 velocity=100 time=0
the msg is note_off channel=0 note=74 velocity=0 time=25
the msg is note_on channel=0 note=74 velocity=100 time=0
the msg is note_off channel=0 note=76 velocity=0 time=25
the msg is note_on channel=0 note=76 velocity=100 time=0
the msg is note_off channel=0 note=79 velocity=0 time=25
the msg is note_on channel=0 note=79 velocity=100 time=0
the msg is note_off channel=0 note=79 velocity=0 time=12
the msg is note_on channel=0 note=79 velocity=100 time=0
the msg is note_off channel=0 note=76 velocity=0 time=12
the msg is note_on channel=0 note=76 velocity=100 time=0
the msg is note_off channel=0 note=74 velocity=0 time=12
the msg is note_on channel=0 note=74 velocity=100 time=0
the msg is note_off channel=0 note=72 velocity=0 time=12
the msg is note_on channel=0 note=72 velocity=100 time=0
the msg is note_off channel=0 note=74 velocity=0 time=25
the msg is note_on channel=0 note=74 velocity=100 time=0
the msg is note_off channel=0 note=74 velocity=0 time=12
the msg is note_on channel=0 note=74 velocity=100 time=0
the msg is note_off channel=0 note=74 velocity=0 time=12
the msg is note_on channel=0 note=74 velocity=100 time=0
the msg is note_off channel=0 note=74 velocity=0 time=25
the msg is note_on channel=0 note=74 velocity=100 time=0
the msg is note_off channel=0 note=74 velocity=0 time=25
the msg is note_on channel=0 note=74 velocity=100 time=0
the msg is note_off channel=0 note=76 velocity=0 time=25
the msg is note_on channel=0 note=76 velocity=100 time=0
the msg is note_off channel=0 note=79 velocity=0 time=25
the msg is note_on channel=0 note=79 velocity=100 time=0
the msg is note_off channel=0 note=79 velocity=0 time=12
the msg is note_on channel=0 note=79 velocity=100 time=0
the msg is note_off channel=0 note=76 velocity=0 time=12
the msg is note_on channel=0 note=76 velocity=100 time=0
the msg is note_off channel=0 note=74 velocity=0 time=12
the msg is note_on channel=0 note=74 velocity=100 time=0
the msg is note_off channel=0 note=72 velocity=0 time=12
the msg is note_on channel=0 note=72 velocity=100 time=0
the msg is note_off channel=0 note=72 velocity=0 time=81
the msg is note_on channel=0 note=72 velocity=100 time=0
the msg is note_off channel=0 note=72 velocity=0 time=8
the msg is note_on channel=0 note=72 velocity=100 time=0
the msg is note_off channel=0 note=74 velocity=0 time=25
the msg is note_on channel=0 note=74 velocity=100 time=0
the msg is note_off channel=0 note=74 velocity=0 time=25
the msg is note_on channel=0 note=74 velocity=100 time=0
the msg is note_off channel=0 note=74 velocity=0 time=25
the msg is note_on channel=0 note=74 velocity=100 time=0
the msg is note_off channel=0 note=74 velocity=0 time=25
the msg is note_on channel=0 note=74 velocity=100 time=0
the msg is note_off channel=0 note=74 velocity=0 time=25
the msg is note_on channel=0 note=74 velocity=100 time=0
the msg is note_off channel=0 note=74 velocity=0 time=25
the msg is note_on channel=0 note=74 velocity=100 time=0
the msg is note_off channel=0 note=76 velocity=0 time=25
the msg is note_on channel=0 note=76 velocity=100 time=0
the msg is note_off channel=0 note=79 velocity=0 time=25
the msg is note_on channel=0 note=79 velocity=100 time=0
the msg is note_off channel=0 note=79 velocity=0 time=12
the msg is note_on channel=0 note=79 velocity=100 time=0
the msg is note_off channel=0 note=76 velocity=0 time=12
the msg is note_on channel=0 note=76 velocity=100 time=0
the msg is note_off channel=0 note=74 velocity=0 time=17
the msg is note_on channel=0 note=74 velocity=100 time=0
the msg is note_off channel=0 note=72 velocity=0 time=8
the msg is note_on channel=0 note=72 velocity=100 time=0
the msg is note_off channel=0 note=72 velocity=0 time=25
the msg is note_on channel=0 note=72 velocity=100 time=0
the msg is note_off channel=0 note=72 velocity=0 time=25
the msg is note_on channel=0 note=72 velocity=100 time=0
the msg is note_off channel=0 note=72 velocity=0 time=12
the msg is note_on channel=0 note=72 velocity=100 time=0
the msg is note_off channel=0 note=72 velocity=0 time=29
the msg is note_on channel=0 note=72 velocity=100 time=0
the msg is note_off channel=0 note=72 velocity=0 time=8
the msg is note_on channel=0 note=72 velocity=100 time=0
the msg is note_off channel=0 note=72 velocity=0 time=25
the msg is note_on channel=0 note=72 velocity=100 time=0
the msg is note_off channel=0 note=72 velocity=0 time=12
the msg is note_on channel=0 note=72 velocity=100 time=0
the msg is note_off channel=0 note=72 velocity=0 time=12
the msg is note_on channel=0 note=72 velocity=100 time=0
the msg is note_off channel=0 note=72 velocity=0 time=12
the msg is note_on channel=0 note=72 velocity=100 time=0
the msg is note_off channel=0 note=76 velocity=0 time=12
the msg is note_on channel=0 note=76 velocity=100 time=0
the msg is note_off channel=0 note=79 velocity=0 time=25
the msg is note_on channel=0 note=79 velocity=100 time=0
the msg is note_off channel=0 note=79 velocity=0 time=12
the msg is note_on channel=0 note=79 velocity=100 time=0
the msg is note_off channel=0 note=76 velocity=0 time=12
the msg is note_on channel=0 note=76 velocity=100 time=0
the msg is note_off channel=0 note=74 velocity=0 time=12
the msg is note_on channel=0 note=74 velocity=100 time=0
the msg is note_off channel=0 note=72 velocity=0 time=12
the msg is note_on channel=0 note=72 velocity=100 time=0
the msg is note_off channel=0 note=72 velocity=0 time=76
the msg is note_on channel=0 note=72 velocity=100 time=0
the msg is note_off channel=0 note=72 velocity=0 time=12
the msg is note_on channel=0 note=72 velocity=100 time=0
the msg is note_off channel=0 note=72 velocity=0 time=12
the msg is note_on channel=0 note=72 velocity=100 time=0
the msg is note_off channel=0 note=72 velocity=0 time=8
the msg is note_on channel=0 note=72 velocity=100 time=0
the msg is note_off channel=0 note=72 velocity=0 time=17
the msg is note_on channel=0 note=72 velocity=100 time=0
the msg is note_off channel=0 note=72 velocity=0 time=12
the msg is note_on channel=0 note=72 velocity=100 time=0
the msg is note_off channel=0 note=72 velocity=0 time=12
the msg is note_on channel=0 note=72 velocity=100 time=0
the msg is note_off channel=0 note=76 velocity=0 time=8
the msg is note_on channel=0 note=76 velocity=100 time=0
the msg is note_off channel=0 note=79 velocity=0 time=29
the msg is note_on channel=0 note=79 velocity=100 time=0
the msg is note_off channel=0 note=79 velocity=0 time=12
the msg is note_on channel=0 note=79 velocity=100 time=0
the msg is note_off channel=0 note=76 velocity=0 time=8
the msg is note_on channel=0 note=76 velocity=100 time=0
the msg is note_off channel=0 note=74 velocity=0 time=17
the msg is note_on channel=0 note=74 velocity=100 time=0
the msg is <meta message end_of_track time=51>
the msg is <meta message track_name name='Piano' time=0>
the msg is program_change channel=0 program=0 time=0
the msg is note_off channel=0 note=72 velocity=0 time=0
the msg is pitchwheel channel=0 pitch=0 time=0
the msg is program_change channel=0 program=0 time=0
the msg is <meta message set_tempo tempo=500000 time=0>
the msg is <meta message time_signature numerator=4 denominator=4 clocks_per_click=24 notated_32nd_notes_per_beat=8 time=0>
the msg is note_on channel=0 note=72 velocity=100 time=0
the msg is note_off channel=0 note=74 velocity=0 time=34
the msg is note_on channel=0 note=74 velocity=100 time=0
the msg is note_off channel=0 note=74 velocity=0 time=17
the msg is note_on channel=0 note=74 velocity=100 time=0
the msg is note_off channel=0 note=74 velocity=0 time=34
the msg is note_on channel=0 note=74 velocity=100 time=0
the msg is note_off channel=0 note=74 velocity=0 time=17
the msg is note_on channel=0 note=74 velocity=100 time=0
the msg is note_off channel=0 note=76 velocity=0 time=34
the msg is note_on channel=0 note=76 velocity=100 time=0
the msg is note_off channel=0 note=79 velocity=0 time=17
the msg is note_on channel=0 note=79 velocity=100 time=0
the msg is note_off channel=0 note=79 velocity=0 time=17
the msg is note_on channel=0 note=79 velocity=100 time=0
the msg is note_off channel=0 note=76 velocity=0 time=17
the msg is note_on channel=0 note=76 velocity=100 time=0
the msg is note_off channel=0 note=74 velocity=0 time=4
the msg is note_on channel=0 note=74 velocity=100 time=0
the msg is note_off channel=0 note=72 velocity=0 time=12
the msg is note_on channel=0 note=72 velocity=100 time=0
the msg is note_off channel=0 note=72 velocity=0 time=89
the msg is note_on channel=0 note=72 velocity=100 time=0
the msg is note_off channel=0 note=72 velocity=0 time=12
the msg is note_on channel=0 note=72 velocity=100 time=0
the msg is note_off channel=0 note=74 velocity=0 time=25
the msg is note_on channel=0 note=74 velocity=100 time=0
the msg is note_off channel=0 note=74 velocity=0 time=25
the msg is note_on channel=0 note=74 velocity=100 time=0
the msg is note_off channel=0 note=74 velocity=0 time=12
the msg is note_on channel=0 note=74 velocity=100 time=0
the msg is note_off channel=0 note=76 velocity=0 time=25
the msg is note_on channel=0 note=76 velocity=100 time=0
the msg is note_off channel=0 note=79 velocity=0 time=25
the msg is note_on channel=0 note=79 velocity=100 time=0
the msg is note_off channel=0 note=79 velocity=0 time=12
the msg is note_on channel=0 note=79 velocity=100 time=0
the msg is note_off channel=0 note=76 velocity=0 time=12
the msg is note_on channel=0 note=76 velocity=100 time=0
the msg is note_off channel=0 note=74 velocity=0 time=12
the msg is note_on channel=0 note=74 velocity=100 time=0
the msg is note_off channel=0 note=72 velocity=0 time=12
the msg is note_on channel=0 note=72 velocity=100 time=0
the msg is note_off channel=0 note=74 velocity=0 time=25
the msg is note_on channel=0 note=74 velocity=100 time=0
the msg is note_off channel=0 note=76 velocity=0 time=25
the msg is note_on channel=0 note=76 velocity=100 time=0
the msg is note_off channel=0 note=79 velocity=0 time=25
the msg is note_on channel=0 note=79 velocity=100 time=0
the msg is note_off channel=0 note=79 velocity=0 time=12
the msg is note_on channel=0 note=79 velocity=100 time=0
the msg is note_off channel=0 note=76 velocity=0 time=12
the msg is note_on channel=0 note=76 velocity=100 time=0
the msg is note_off channel=0 note=74 velocity=0 time=12
the msg is note_on channel=0 note=74 velocity=100 time=0
the msg is note_off channel=0 note=72 velocity=0 time=12
the msg is note_on channel=0 note=72 velocity=100 time=0
the msg is note_off channel=0 note=74 velocity=0 time=25
the msg is note_on channel=0 note=74 velocity=100 time=0
the msg is note_off channel=0 note=74 velocity=0 time=12
the msg is note_on channel=0 note=74 velocity=100 time=0
the msg is note_off channel=0 note=74 velocity=0 time=12
the msg is note_on channel=0 note=74 velocity=100 time=0
the msg is note_off channel=0 note=74 velocity=0 time=25
the msg is note_on channel=0 note=74 velocity=100 time=0
the msg is note_off channel=0 note=74 velocity=0 time=25
the msg is note_on channel=0 note=74 velocity=100 time=0
the msg is note_off channel=0 note=76 velocity=0 time=25
the msg is note_on channel=0 note=76 velocity=100 time=0
the msg is note_off channel=0 note=79 velocity=0 time=25
the msg is note_on channel=0 note=79 velocity=100 time=0
the msg is note_off channel=0 note=79 velocity=0 time=12
the msg is note_on channel=0 note=79 velocity=100 time=0
the msg is note_off channel=0 note=76 velocity=0 time=12
the msg is note_on channel=0 note=76 velocity=100 time=0
the msg is note_off channel=0 note=74 velocity=0 time=12
the msg is note_on channel=0 note=74 velocity=100 time=0
the msg is note_off channel=0 note=72 velocity=0 time=12
the msg is note_on channel=0 note=72 velocity=100 time=0
the msg is note_off channel=0 note=72 velocity=0 time=81
the msg is note_on channel=0 note=72 velocity=100 time=0
the msg is note_off channel=0 note=72 velocity=0 time=8
the msg is note_on channel=0 note=72 velocity=100 time=0
the msg is note_off channel=0 note=74 velocity=0 time=25
the msg is note_on channel=0 note=74 velocity=100 time=0
the msg is note_off channel=0 note=74 velocity=0 time=25
the msg is note_on channel=0 note=74 velocity=100 time=0
the msg is note_off channel=0 note=74 velocity=0 time=25
the msg is note_on channel=0 note=74 velocity=100 time=0
the msg is note_off channel=0 note=74 velocity=0 time=25
the msg is note_on channel=0 note=74 velocity=100 time=0
the msg is note_off channel=0 note=74 velocity=0 time=25
the msg is note_on channel=0 note=74 velocity=100 time=0
the msg is note_off channel=0 note=74 velocity=0 time=25
the msg is note_on channel=0 note=74 velocity=100 time=0
the msg is note_off channel=0 note=76 velocity=0 time=25
the msg is note_on channel=0 note=76 velocity=100 time=0
the msg is note_off channel=0 note=79 velocity=0 time=25
the msg is note_on channel=0 note=79 velocity=100 time=0
the msg is note_off channel=0 note=79 velocity=0 time=12
the msg is note_on channel=0 note=79 velocity=100 time=0
the msg is note_off channel=0 note=76 velocity=0 time=12
the msg is note_on channel=0 note=76 velocity=100 time=0
the msg is note_off channel=0 note=74 velocity=0 time=17
the msg is note_on channel=0 note=74 velocity=100 time=0
the msg is note_off channel=0 note=72 velocity=0 time=8
the msg is note_on channel=0 note=72 velocity=100 time=0
the msg is note_off channel=0 note=72 velocity=0 time=25
the msg is note_on channel=0 note=72 velocity=100 time=0
the msg is note_off channel=0 note=72 velocity=0 time=25
the msg is note_on channel=0 note=72 velocity=100 time=0
the msg is note_off channel=0 note=72 velocity=0 time=12
the msg is note_on channel=0 note=72 velocity=100 time=0
the msg is note_off channel=0 note=72 velocity=0 time=29
the msg is note_on channel=0 note=72 velocity=100 time=0
the msg is note_off channel=0 note=72 velocity=0 time=8
the msg is note_on channel=0 note=72 velocity=100 time=0
the msg is note_off channel=0 note=72 velocity=0 time=25
the msg is note_on channel=0 note=72 velocity=100 time=0
the msg is note_off channel=0 note=72 velocity=0 time=12
the msg is note_on channel=0 note=72 velocity=100 time=0
the msg is note_off channel=0 note=72 velocity=0 time=12
the msg is note_on channel=0 note=72 velocity=100 time=0
the msg is note_off channel=0 note=72 velocity=0 time=12
the msg is note_on channel=0 note=72 velocity=100 time=0
the msg is note_off channel=0 note=76 velocity=0 time=12
the msg is note_on channel=0 note=76 velocity=100 time=0
the msg is note_off channel=0 note=79 velocity=0 time=25
the msg is note_on channel=0 note=79 velocity=100 time=0
the msg is note_off channel=0 note=79 velocity=0 time=12
the msg is note_on channel=0 note=79 velocity=100 time=0
the msg is note_off channel=0 note=76 velocity=0 time=12
the msg is note_on channel=0 note=76 velocity=100 time=0
the msg is note_off channel=0 note=74 velocity=0 time=12
the msg is note_on channel=0 note=74 velocity=100 time=0
the msg is note_off channel=0 note=72 velocity=0 time=12
the msg is note_on channel=0 note=72 velocity=100 time=0
the msg is note_off channel=0 note=72 velocity=0 time=76
the msg is note_on channel=0 note=72 velocity=100 time=0
the msg is note_off channel=0 note=72 velocity=0 time=12
the msg is note_on channel=0 note=72 velocity=100 time=0
the msg is note_off channel=0 note=72 velocity=0 time=12
the msg is note_on channel=0 note=72 velocity=100 time=0
the msg is note_off channel=0 note=72 velocity=0 time=8
the msg is note_on channel=0 note=72 velocity=100 time=0
the msg is note_off channel=0 note=72 velocity=0 time=17
the msg is note_on channel=0 note=72 velocity=100 time=0
the msg is note_off channel=0 note=72 velocity=0 time=12
the msg is note_on channel=0 note=72 velocity=100 time=0
the msg is note_off channel=0 note=72 velocity=0 time=12
the msg is note_on channel=0 note=72 velocity=100 time=0
the msg is note_off channel=0 note=76 velocity=0 time=8
the msg is note_on channel=0 note=76 velocity=100 time=0
the msg is note_off channel=0 note=79 velocity=0 time=29
the msg is note_on channel=0 note=79 velocity=100 time=0
the msg is note_off channel=0 note=79 velocity=0 time=12
the msg is note_on channel=0 note=79 velocity=100 time=0
the msg is note_off channel=0 note=76 velocity=0 time=8
the msg is note_on channel=0 note=76 velocity=100 time=0
the msg is note_off channel=0 note=74 velocity=0 time=17
the msg is note_on channel=0 note=74 velocity=100 time=0
the msg is <meta message end_of_track time=51>
the msg is <meta message track_name name='Piano' time=0>
the msg is program_change channel=0 program=0 time=0
the msg is note_off channel=0 note=72 velocity=0 time=0
the msg is pitchwheel channel=0 pitch=0 time=0
the msg is program_change channel=0 program=0 time=0
the msg is <meta message set_tempo tempo=500000 time=0>
the msg is <meta message time_signature numerator=4 denominator=4 clocks_per_click=24 notated_32nd_notes_per_beat=8 time=0>
the msg is note_on channel=0 note=72 velocity=100 time=0
the msg is note_off channel=0 note=74 velocity=0 time=34
the msg is note_on channel=0 note=74 velocity=100 time=0
the msg is note_off channel=0 note=74 velocity=0 time=17
the msg is note_on channel=0 note=74 velocity=100 time=0
the msg is note_off channel=0 note=74 velocity=0 time=34
the msg is note_on channel=0 note=74 velocity=100 time=0
the msg is note_off channel=0 note=74 velocity=0 time=17
the msg is note_on channel=0 note=74 velocity=100 time=0
the msg is note_off channel=0 note=76 velocity=0 time=34
the msg is note_on channel=0 note=76 velocity=100 time=0
the msg is note_off channel=0 note=79 velocity=0 time=17
the msg is note_on channel=0 note=79 velocity=100 time=0
the msg is note_off channel=0 note=79 velocity=0 time=17
the msg is note_on channel=0 note=79 velocity=100 time=0
the msg is note_off channel=0 note=76 velocity=0 time=17
the msg is note_on channel=0 note=76 velocity=100 time=0
the msg is note_off channel=0 note=74 velocity=0 time=4
the msg is note_on channel=0 note=74 velocity=100 time=0
the msg is note_off channel=0 note=72 velocity=0 time=12
the msg is note_on channel=0 note=72 velocity=100 time=0
the msg is note_off channel=0 note=72 velocity=0 time=89
the msg is note_on channel=0 note=72 velocity=100 time=0
the msg is note_off channel=0 note=72 velocity=0 time=12
the msg is note_on channel=0 note=72 velocity=100 time=0
the msg is note_off channel=0 note=74 velocity=0 time=25
the msg is note_on channel=0 note=74 velocity=100 time=0
the msg is note_off channel=0 note=74 velocity=0 time=25
the msg is note_on channel=0 note=74 velocity=100 time=0
the msg is note_off channel=0 note=74 velocity=0 time=12
the msg is note_on channel=0 note=74 velocity=100 time=0
the msg is note_off channel=0 note=76 velocity=0 time=25
the msg is note_on channel=0 note=76 velocity=100 time=0
the msg is note_off channel=0 note=79 velocity=0 time=25
the msg is note_on channel=0 note=79 velocity=100 time=0
the msg is note_off channel=0 note=79 velocity=0 time=12
the msg is note_on channel=0 note=79 velocity=100 time=0
the msg is note_off channel=0 note=76 velocity=0 time=12
the msg is note_on channel=0 note=76 velocity=100 time=0
the msg is note_off channel=0 note=74 velocity=0 time=12
the msg is note_on channel=0 note=74 velocity=100 time=0
the msg is note_off channel=0 note=72 velocity=0 time=12
the msg is note_on channel=0 note=72 velocity=100 time=0
the msg is note_off channel=0 note=74 velocity=0 time=25
the msg is note_on channel=0 note=74 velocity=100 time=0
the msg is note_off channel=0 note=76 velocity=0 time=25
the msg is note_on channel=0 note=76 velocity=100 time=0
the msg is note_off channel=0 note=79 velocity=0 time=25
the msg is note_on channel=0 note=79 velocity=100 time=0
the msg is note_off channel=0 note=79 velocity=0 time=12
the msg is note_on channel=0 note=79 velocity=100 time=0
the msg is note_off channel=0 note=76 velocity=0 time=12
the msg is note_on channel=0 note=76 velocity=100 time=0
the msg is note_off channel=0 note=74 velocity=0 time=12
the msg is note_on channel=0 note=74 velocity=100 time=0
the msg is note_off channel=0 note=72 velocity=0 time=12
the msg is note_on channel=0 note=72 velocity=100 time=0
the msg is note_off channel=0 note=74 velocity=0 time=25
the msg is note_on channel=0 note=74 velocity=100 time=0
the msg is note_off channel=0 note=74 velocity=0 time=12
the msg is note_on channel=0 note=74 velocity=100 time=0
the msg is note_off channel=0 note=74 velocity=0 time=12
the msg is note_on channel=0 note=74 velocity=100 time=0
the msg is note_off channel=0 note=74 velocity=0 time=25
the msg is note_on channel=0 note=74 velocity=100 time=0
the msg is note_off channel=0 note=74 velocity=0 time=25
the msg is note_on channel=0 note=74 velocity=100 time=0
the msg is note_off channel=0 note=76 velocity=0 time=25
the msg is note_on channel=0 note=76 velocity=100 time=0
the msg is note_off channel=0 note=79 velocity=0 time=25
the msg is note_on channel=0 note=79 velocity=100 time=0
the msg is note_off channel=0 note=79 velocity=0 time=12
the msg is note_on channel=0 note=79 velocity=100 time=0
the msg is note_off channel=0 note=76 velocity=0 time=12
the msg is note_on channel=0 note=76 velocity=100 time=0
the msg is note_off channel=0 note=74 velocity=0 time=12
the msg is note_on channel=0 note=74 velocity=100 time=0
the msg is note_off channel=0 note=72 velocity=0 time=12
the msg is note_on channel=0 note=72 velocity=100 time=0
the msg is note_off channel=0 note=72 velocity=0 time=81
the msg is note_on channel=0 note=72 velocity=100 time=0
the msg is note_off channel=0 note=72 velocity=0 time=8
the msg is note_on channel=0 note=72 velocity=100 time=0
the msg is note_off channel=0 note=74 velocity=0 time=25
the msg is note_on channel=0 note=74 velocity=100 time=0
the msg is note_off channel=0 note=74 velocity=0 time=25
the msg is note_on channel=0 note=74 velocity=100 time=0
the msg is note_off channel=0 note=74 velocity=0 time=25
the msg is note_on channel=0 note=74 velocity=100 time=0
the msg is note_off channel=0 note=74 velocity=0 time=25
the msg is note_on channel=0 note=74 velocity=100 time=0
the msg is note_off channel=0 note=74 velocity=0 time=25
the msg is note_on channel=0 note=74 velocity=100 time=0
the msg is note_off channel=0 note=74 velocity=0 time=25
the msg is note_on channel=0 note=74 velocity=100 time=0
the msg is note_off channel=0 note=76 velocity=0 time=25
the msg is note_on channel=0 note=76 velocity=100 time=0
the msg is note_off channel=0 note=79 velocity=0 time=25
the msg is note_on channel=0 note=79 velocity=100 time=0
the msg is note_off channel=0 note=79 velocity=0 time=12
the msg is note_on channel=0 note=79 velocity=100 time=0
the msg is note_off channel=0 note=76 velocity=0 time=12
the msg is note_on channel=0 note=76 velocity=100 time=0
the msg is note_off channel=0 note=74 velocity=0 time=17
the msg is note_on channel=0 note=74 velocity=100 time=0
the msg is note_off channel=0 note=72 velocity=0 time=8
the msg is note_on channel=0 note=72 velocity=100 time=0
the msg is note_off channel=0 note=72 velocity=0 time=25
the msg is note_on channel=0 note=72 velocity=100 time=0
the msg is note_off channel=0 note=72 velocity=0 time=25
the msg is note_on channel=0 note=72 velocity=100 time=0
the msg is note_off channel=0 note=72 velocity=0 time=12
the msg is note_on channel=0 note=72 velocity=100 time=0
the msg is note_off channel=0 note=72 velocity=0 time=29
the msg is note_on channel=0 note=72 velocity=100 time=0
the msg is note_off channel=0 note=72 velocity=0 time=8
the msg is note_on channel=0 note=72 velocity=100 time=0
the msg is note_off channel=0 note=72 velocity=0 time=25
the msg is note_on channel=0 note=72 velocity=100 time=0
the msg is note_off channel=0 note=72 velocity=0 time=12
the msg is note_on channel=0 note=72 velocity=100 time=0
the msg is note_off channel=0 note=72 velocity=0 time=12
the msg is note_on channel=0 note=72 velocity=100 time=0
the msg is note_off channel=0 note=72 velocity=0 time=12
the msg is note_on channel=0 note=72 velocity=100 time=0
the msg is note_off channel=0 note=76 velocity=0 time=12
the msg is note_on channel=0 note=76 velocity=100 time=0
the msg is note_off channel=0 note=79 velocity=0 time=25
the msg is note_on channel=0 note=79 velocity=100 time=0
the msg is note_off channel=0 note=79 velocity=0 time=12
the msg is note_on channel=0 note=79 velocity=100 time=0
the msg is note_off channel=0 note=76 velocity=0 time=12
the msg is note_on channel=0 note=76 velocity=100 time=0
the msg is note_off channel=0 note=74 velocity=0 time=12
the msg is note_on channel=0 note=74 velocity=100 time=0
the msg is note_off channel=0 note=72 velocity=0 time=12
the msg is note_on channel=0 note=72 velocity=100 time=0
the msg is note_off channel=0 note=72 velocity=0 time=76
the msg is note_on channel=0 note=72 velocity=100 time=0
the msg is note_off channel=0 note=72 velocity=0 time=12
the msg is note_on channel=0 note=72 velocity=100 time=0
the msg is note_off channel=0 note=72 velocity=0 time=12
the msg is note_on channel=0 note=72 velocity=100 time=0
the msg is note_off channel=0 note=72 velocity=0 time=8
the msg is note_on channel=0 note=72 velocity=100 time=0
the msg is note_off channel=0 note=72 velocity=0 time=17
the msg is note_on channel=0 note=72 velocity=100 time=0
the msg is note_off channel=0 note=72 velocity=0 time=12
the msg is note_on channel=0 note=72 velocity=100 time=0
the msg is note_off channel=0 note=72 velocity=0 time=12
the msg is note_on channel=0 note=72 velocity=100 time=0
the msg is note_off channel=0 note=76 velocity=0 time=8
the msg is note_on channel=0 note=76 velocity=100 time=0
the msg is note_off channel=0 note=79 velocity=0 time=29
the msg is note_on channel=0 note=79 velocity=100 time=0
the msg is note_off channel=0 note=79 velocity=0 time=12
the msg is note_on channel=0 note=79 velocity=100 time=0
the msg is note_off channel=0 note=76 velocity=0 time=8
the msg is note_on channel=0 note=76 velocity=100 time=0
the msg is note_off channel=0 note=74 velocity=0 time=17
the msg is note_on channel=0 note=74 velocity=100 time=0
the msg is <meta message end_of_track time=51>
the msg is <meta message track_name name='Piano' time=0>
the msg is program_change channel=0 program=0 time=0
the msg is note_off channel=0 note=72 velocity=0 time=0
the msg is pitchwheel channel=0 pitch=0 time=0
the msg is program_change channel=0 program=0 time=0
the msg is <meta message set_tempo tempo=500000 time=0>
the msg is <meta message time_signature numerator=4 denominator=4 clocks_per_click=24 notated_32nd_notes_per_beat=8 time=0>
the msg is note_on channel=0 note=72 velocity=100 time=0
the msg is note_off channel=0 note=74 velocity=0 time=34
the msg is note_on channel=0 note=74 velocity=100 time=0
the msg is note_off channel=0 note=74 velocity=0 time=17
the msg is note_on channel=0 note=74 velocity=100 time=0
the msg is note_off channel=0 note=74 velocity=0 time=34
the msg is note_on channel=0 note=74 velocity=100 time=0
the msg is note_off channel=0 note=74 velocity=0 time=17
the msg is note_on channel=0 note=74 velocity=100 time=0
the msg is note_off channel=0 note=76 velocity=0 time=34
the msg is note_on channel=0 note=76 velocity=100 time=0
the msg is note_off channel=0 note=79 velocity=0 time=17
the msg is note_on channel=0 note=79 velocity=100 time=0
the msg is note_off channel=0 note=79 velocity=0 time=17
the msg is note_on channel=0 note=79 velocity=100 time=0
the msg is note_off channel=0 note=76 velocity=0 time=17
the msg is note_on channel=0 note=76 velocity=100 time=0
the msg is note_off channel=0 note=74 velocity=0 time=4
the msg is note_on channel=0 note=74 velocity=100 time=0
the msg is note_off channel=0 note=72 velocity=0 time=12
the msg is note_on channel=0 note=72 velocity=100 time=0
the msg is note_off channel=0 note=72 velocity=0 time=89
the msg is note_on channel=0 note=72 velocity=100 time=0
the msg is note_off channel=0 note=72 velocity=0 time=12
the msg is note_on channel=0 note=72 velocity=100 time=0
the msg is note_off channel=0 note=74 velocity=0 time=25
the msg is note_on channel=0 note=74 velocity=100 time=0
the msg is note_off channel=0 note=74 velocity=0 time=25
the msg is note_on channel=0 note=74 velocity=100 time=0
the msg is note_off channel=0 note=74 velocity=0 time=12
the msg is note_on channel=0 note=74 velocity=100 time=0
the msg is note_off channel=0 note=76 velocity=0 time=25
the msg is note_on channel=0 note=76 velocity=100 time=0
the msg is note_off channel=0 note=79 velocity=0 time=25
the msg is note_on channel=0 note=79 velocity=100 time=0
the msg is note_off channel=0 note=79 velocity=0 time=12
the msg is note_on channel=0 note=79 velocity=100 time=0
the msg is note_off channel=0 note=76 velocity=0 time=12
the msg is note_on channel=0 note=76 velocity=100 time=0
the msg is note_off channel=0 note=74 velocity=0 time=12
the msg is note_on channel=0 note=74 velocity=100 time=0
the msg is note_off channel=0 note=72 velocity=0 time=12
the msg is note_on channel=0 note=72 velocity=100 time=0
the msg is note_off channel=0 note=74 velocity=0 time=25
the msg is note_on channel=0 note=74 velocity=100 time=0
the msg is note_off channel=0 note=76 velocity=0 time=25
the msg is note_on channel=0 note=76 velocity=100 time=0
the msg is note_off channel=0 note=79 velocity=0 time=25
the msg is note_on channel=0 note=79 velocity=100 time=0
the msg is note_off channel=0 note=79 velocity=0 time=12
the msg is note_on channel=0 note=79 velocity=100 time=0
the msg is note_off channel=0 note=76 velocity=0 time=12
the msg is note_on channel=0 note=76 velocity=100 time=0
the msg is note_off channel=0 note=74 velocity=0 time=12
the msg is note_on channel=0 note=74 velocity=100 time=0
the msg is note_off channel=0 note=72 velocity=0 time=12
the msg is note_on channel=0 note=72 velocity=100 time=0
the msg is note_off channel=0 note=74 velocity=0 time=25
the msg is note_on channel=0 note=74 velocity=100 time=0
the msg is note_off channel=0 note=74 velocity=0 time=12
the msg is note_on channel=0 note=74 velocity=100 time=0
the msg is note_off channel=0 note=74 velocity=0 time=12
the msg is note_on channel=0 note=74 velocity=100 time=0
the msg is note_off channel=0 note=74 velocity=0 time=25
the msg is note_on channel=0 note=74 velocity=100 time=0
the msg is note_off channel=0 note=74 velocity=0 time=25
the msg is note_on channel=0 note=74 velocity=100 time=0
the msg is note_off channel=0 note=76 velocity=0 time=25
the msg is note_on channel=0 note=76 velocity=100 time=0
the msg is note_off channel=0 note=79 velocity=0 time=25
the msg is note_on channel=0 note=79 velocity=100 time=0
the msg is note_off channel=0 note=79 velocity=0 time=12
the msg is note_on channel=0 note=79 velocity=100 time=0
the msg is note_off channel=0 note=76 velocity=0 time=12
the msg is note_on channel=0 note=76 velocity=100 time=0
the msg is note_off channel=0 note=74 velocity=0 time=12
the msg is note_on channel=0 note=74 velocity=100 time=0
the msg is note_off channel=0 note=72 velocity=0 time=12
the msg is note_on channel=0 note=72 velocity=100 time=0
the msg is note_off channel=0 note=72 velocity=0 time=81
the msg is note_on channel=0 note=72 velocity=100 time=0
the msg is note_off channel=0 note=72 velocity=0 time=8
the msg is note_on channel=0 note=72 velocity=100 time=0
the msg is note_off channel=0 note=74 velocity=0 time=25
the msg is note_on channel=0 note=74 velocity=100 time=0
the msg is note_off channel=0 note=74 velocity=0 time=25
the msg is note_on channel=0 note=74 velocity=100 time=0
the msg is note_off channel=0 note=74 velocity=0 time=25
the msg is note_on channel=0 note=74 velocity=100 time=0
the msg is note_off channel=0 note=74 velocity=0 time=25
the msg is note_on channel=0 note=74 velocity=100 time=0
the msg is note_off channel=0 note=74 velocity=0 time=25
the msg is note_on channel=0 note=74 velocity=100 time=0
the msg is note_off channel=0 note=74 velocity=0 time=25
the msg is note_on channel=0 note=74 velocity=100 time=0
the msg is note_off channel=0 note=76 velocity=0 time=25
the msg is note_on channel=0 note=76 velocity=100 time=0
the msg is note_off channel=0 note=79 velocity=0 time=25
the msg is note_on channel=0 note=79 velocity=100 time=0
the msg is note_off channel=0 note=79 velocity=0 time=12
the msg is note_on channel=0 note=79 velocity=100 time=0
the msg is note_off channel=0 note=76 velocity=0 time=12
the msg is note_on channel=0 note=76 velocity=100 time=0
the msg is note_off channel=0 note=74 velocity=0 time=17
the msg is note_on channel=0 note=74 velocity=100 time=0
the msg is note_off channel=0 note=72 velocity=0 time=8
the msg is note_on channel=0 note=72 velocity=100 time=0
the msg is note_off channel=0 note=72 velocity=0 time=25
the msg is note_on channel=0 note=72 velocity=100 time=0
the msg is note_off channel=0 note=72 velocity=0 time=25
the msg is note_on channel=0 note=72 velocity=100 time=0
the msg is note_off channel=0 note=72 velocity=0 time=12
the msg is note_on channel=0 note=72 velocity=100 time=0
the msg is note_off channel=0 note=72 velocity=0 time=29
the msg is note_on channel=0 note=72 velocity=100 time=0
the msg is note_off channel=0 note=72 velocity=0 time=8
the msg is note_on channel=0 note=72 velocity=100 time=0
the msg is note_off channel=0 note=72 velocity=0 time=25
the msg is note_on channel=0 note=72 velocity=100 time=0
the msg is note_off channel=0 note=72 velocity=0 time=12
the msg is note_on channel=0 note=72 velocity=100 time=0
the msg is note_off channel=0 note=72 velocity=0 time=12
the msg is note_on channel=0 note=72 velocity=100 time=0
the msg is note_off channel=0 note=72 velocity=0 time=12
the msg is note_on channel=0 note=72 velocity=100 time=0
the msg is note_off channel=0 note=76 velocity=0 time=12
the msg is note_on channel=0 note=76 velocity=100 time=0
the msg is note_off channel=0 note=79 velocity=0 time=25
the msg is note_on channel=0 note=79 velocity=100 time=0
the msg is note_off channel=0 note=79 velocity=0 time=12
the msg is note_on channel=0 note=79 velocity=100 time=0
the msg is note_off channel=0 note=76 velocity=0 time=12
the msg is note_on channel=0 note=76 velocity=100 time=0
the msg is note_off channel=0 note=74 velocity=0 time=12
the msg is note_on channel=0 note=74 velocity=100 time=0
the msg is note_off channel=0 note=72 velocity=0 time=12
the msg is note_on channel=0 note=72 velocity=100 time=0
the msg is note_off channel=0 note=72 velocity=0 time=76
the msg is note_on channel=0 note=72 velocity=100 time=0
the msg is note_off channel=0 note=72 velocity=0 time=12
the msg is note_on channel=0 note=72 velocity=100 time=0
the msg is note_off channel=0 note=72 velocity=0 time=12
the msg is note_on channel=0 note=72 velocity=100 time=0
the msg is note_off channel=0 note=72 velocity=0 time=8
the msg is note_on channel=0 note=72 velocity=100 time=0
the msg is note_off channel=0 note=72 velocity=0 time=17
the msg is note_on channel=0 note=72 velocity=100 time=0
the msg is note_off channel=0 note=72 velocity=0 time=12
the msg is note_on channel=0 note=72 velocity=100 time=0
the msg is note_off channel=0 note=72 velocity=0 time=12
the msg is note_on channel=0 note=72 velocity=100 time=0
the msg is note_off channel=0 note=76 velocity=0 time=8
the msg is note_on channel=0 note=76 velocity=100 time=0
the msg is note_off channel=0 note=79 velocity=0 time=29
the msg is note_on channel=0 note=79 velocity=100 time=0
the msg is note_off channel=0 note=79 velocity=0 time=12
the msg is note_on channel=0 note=79 velocity=100 time=0
the msg is note_off channel=0 note=76 velocity=0 time=8
the msg is note_on channel=0 note=76 velocity=100 time=0
the msg is note_off channel=0 note=74 velocity=0 time=17
the msg is note_on channel=0 note=74 velocity=100 time=0
the msg is <meta message end_of_track time=51>
the msg is <meta message track_name name='Piano' time=0>
the msg is program_change channel=0 program=0 time=0
the msg is note_off channel=0 note=72 velocity=0 time=0
the msg is pitchwheel channel=0 pitch=0 time=0
the msg is program_change channel=0 program=0 time=0
the msg is <meta message set_tempo tempo=500000 time=0>
the msg is <meta message time_signature numerator=4 denominator=4 clocks_per_click=24 notated_32nd_notes_per_beat=8 time=0>
the msg is note_on channel=0 note=72 velocity=100 time=0
the msg is note_off channel=0 note=74 velocity=0 time=34
the msg is note_on channel=0 note=74 velocity=100 time=0
the msg is note_off channel=0 note=74 velocity=0 time=17
the msg is note_on channel=0 note=74 velocity=100 time=0
the msg is note_off channel=0 note=74 velocity=0 time=34
the msg is note_on channel=0 note=74 velocity=100 time=0
the msg is note_off channel=0 note=74 velocity=0 time=17
the msg is note_on channel=0 note=74 velocity=100 time=0
the msg is note_off channel=0 note=76 velocity=0 time=34
the msg is note_on channel=0 note=76 velocity=100 time=0
the msg is note_off channel=0 note=79 velocity=0 time=17
the msg is note_on channel=0 note=79 velocity=100 time=0
the msg is note_off channel=0 note=79 velocity=0 time=17
the msg is note_on channel=0 note=79 velocity=100 time=0
the msg is note_off channel=0 note=76 velocity=0 time=17
the msg is note_on channel=0 note=76 velocity=100 time=0
the msg is note_off channel=0 note=74 velocity=0 time=4
the msg is note_on channel=0 note=74 velocity=100 time=0
the msg is note_off channel=0 note=72 velocity=0 time=12
the msg is note_on channel=0 note=72 velocity=100 time=0
the msg is note_off channel=0 note=72 velocity=0 time=89
the msg is note_on channel=0 note=72 velocity=100 time=0
the msg is note_off channel=0 note=72 velocity=0 time=12
the msg is note_on channel=0 note=72 velocity=100 time=0
the msg is note_off channel=0 note=74 velocity=0 time=25
the msg is note_on channel=0 note=74 velocity=100 time=0
the msg is note_off channel=0 note=74 velocity=0 time=25
the msg is note_on channel=0 note=74 velocity=100 time=0
the msg is note_off channel=0 note=74 velocity=0 time=12
the msg is note_on channel=0 note=74 velocity=100 time=0
the msg is note_off channel=0 note=76 velocity=0 time=25
the msg is note_on channel=0 note=76 velocity=100 time=0
the msg is note_off channel=0 note=79 velocity=0 time=25
the msg is note_on channel=0 note=79 velocity=100 time=0
the msg is note_off channel=0 note=79 velocity=0 time=12
the msg is note_on channel=0 note=79 velocity=100 time=0
the msg is note_off channel=0 note=76 velocity=0 time=12
the msg is note_on channel=0 note=76 velocity=100 time=0
the msg is note_off channel=0 note=74 velocity=0 time=12
the msg is note_on channel=0 note=74 velocity=100 time=0
the msg is note_off channel=0 note=72 velocity=0 time=12
the msg is note_on channel=0 note=72 velocity=100 time=0
the msg is note_off channel=0 note=74 velocity=0 time=25
the msg is note_on channel=0 note=74 velocity=100 time=0
the msg is note_off channel=0 note=76 velocity=0 time=25
the msg is note_on channel=0 note=76 velocity=100 time=0
the msg is note_off channel=0 note=79 velocity=0 time=25
the msg is note_on channel=0 note=79 velocity=100 time=0
the msg is note_off channel=0 note=79 velocity=0 time=12
the msg is note_on channel=0 note=79 velocity=100 time=0
the msg is note_off channel=0 note=76 velocity=0 time=12
the msg is note_on channel=0 note=76 velocity=100 time=0
the msg is note_off channel=0 note=74 velocity=0 time=12
the msg is note_on channel=0 note=74 velocity=100 time=0
the msg is note_off channel=0 note=72 velocity=0 time=12
the msg is note_on channel=0 note=72 velocity=100 time=0
the msg is note_off channel=0 note=74 velocity=0 time=25
the msg is note_on channel=0 note=74 velocity=100 time=0
the msg is note_off channel=0 note=74 velocity=0 time=12
the msg is note_on channel=0 note=74 velocity=100 time=0
the msg is note_off channel=0 note=74 velocity=0 time=12
the msg is note_on channel=0 note=74 velocity=100 time=0
the msg is note_off channel=0 note=74 velocity=0 time=25
the msg is note_on channel=0 note=74 velocity=100 time=0
the msg is note_off channel=0 note=74 velocity=0 time=25
the msg is note_on channel=0 note=74 velocity=100 time=0
the msg is note_off channel=0 note=76 velocity=0 time=25
the msg is note_on channel=0 note=76 velocity=100 time=0
the msg is note_off channel=0 note=79 velocity=0 time=25
the msg is note_on channel=0 note=79 velocity=100 time=0
the msg is note_off channel=0 note=79 velocity=0 time=12
the msg is note_on channel=0 note=79 velocity=100 time=0
the msg is note_off channel=0 note=76 velocity=0 time=12
the msg is note_on channel=0 note=76 velocity=100 time=0
the msg is note_off channel=0 note=74 velocity=0 time=12
the msg is note_on channel=0 note=74 velocity=100 time=0
the msg is note_off channel=0 note=72 velocity=0 time=12
the msg is note_on channel=0 note=72 velocity=100 time=0
the msg is note_off channel=0 note=72 velocity=0 time=81
the msg is note_on channel=0 note=72 velocity=100 time=0
the msg is note_off channel=0 note=72 velocity=0 time=8
the msg is note_on channel=0 note=72 velocity=100 time=0
the msg is note_off channel=0 note=74 velocity=0 time=25
the msg is note_on channel=0 note=74 velocity=100 time=0
the msg is note_off channel=0 note=74 velocity=0 time=25
the msg is note_on channel=0 note=74 velocity=100 time=0
the msg is note_off channel=0 note=74 velocity=0 time=25
the msg is note_on channel=0 note=74 velocity=100 time=0
the msg is note_off channel=0 note=74 velocity=0 time=25
the msg is note_on channel=0 note=74 velocity=100 time=0
the msg is note_off channel=0 note=74 velocity=0 time=25
the msg is note_on channel=0 note=74 velocity=100 time=0
the msg is note_off channel=0 note=74 velocity=0 time=25
the msg is note_on channel=0 note=74 velocity=100 time=0
the msg is note_off channel=0 note=76 velocity=0 time=25
the msg is note_on channel=0 note=76 velocity=100 time=0
the msg is note_off channel=0 note=79 velocity=0 time=25
the msg is note_on channel=0 note=79 velocity=100 time=0
the msg is note_off channel=0 note=79 velocity=0 time=12
the msg is note_on channel=0 note=79 velocity=100 time=0
the msg is note_off channel=0 note=76 velocity=0 time=12
the msg is note_on channel=0 note=76 velocity=100 time=0
the msg is note_off channel=0 note=74 velocity=0 time=17
the msg is note_on channel=0 note=74 velocity=100 time=0
the msg is note_off channel=0 note=72 velocity=0 time=8
the msg is note_on channel=0 note=72 velocity=100 time=0
the msg is note_off channel=0 note=72 velocity=0 time=25
the msg is note_on channel=0 note=72 velocity=100 time=0
the msg is note_off channel=0 note=72 velocity=0 time=25
the msg is note_on channel=0 note=72 velocity=100 time=0
the msg is note_off channel=0 note=72 velocity=0 time=12
the msg is note_on channel=0 note=72 velocity=100 time=0
the msg is note_off channel=0 note=72 velocity=0 time=29
the msg is note_on channel=0 note=72 velocity=100 time=0
the msg is note_off channel=0 note=72 velocity=0 time=8
the msg is note_on channel=0 note=72 velocity=100 time=0
the msg is note_off channel=0 note=72 velocity=0 time=25
the msg is note_on channel=0 note=72 velocity=100 time=0
the msg is note_off channel=0 note=72 velocity=0 time=12
the msg is note_on channel=0 note=72 velocity=100 time=0
the msg is note_off channel=0 note=72 velocity=0 time=12
the msg is note_on channel=0 note=72 velocity=100 time=0
the msg is note_off channel=0 note=72 velocity=0 time=12
the msg is note_on channel=0 note=72 velocity=100 time=0
the msg is note_off channel=0 note=76 velocity=0 time=12
the msg is note_on channel=0 note=76 velocity=100 time=0
the msg is note_off channel=0 note=79 velocity=0 time=25
the msg is note_on channel=0 note=79 velocity=100 time=0
the msg is note_off channel=0 note=79 velocity=0 time=12
the msg is note_on channel=0 note=79 velocity=100 time=0
the msg is note_off channel=0 note=76 velocity=0 time=12
the msg is note_on channel=0 note=76 velocity=100 time=0
the msg is note_off channel=0 note=74 velocity=0 time=12
the msg is note_on channel=0 note=74 velocity=100 time=0
the msg is note_off channel=0 note=72 velocity=0 time=12
the msg is note_on channel=0 note=72 velocity=100 time=0
the msg is note_off channel=0 note=72 velocity=0 time=76
the msg is note_on channel=0 note=72 velocity=100 time=0
the msg is note_off channel=0 note=72 velocity=0 time=12
the msg is note_on channel=0 note=72 velocity=100 time=0
the msg is note_off channel=0 note=72 velocity=0 time=12
the msg is note_on channel=0 note=72 velocity=100 time=0
the msg is note_off channel=0 note=72 velocity=0 time=8
the msg is note_on channel=0 note=72 velocity=100 time=0
the msg is note_off channel=0 note=72 velocity=0 time=17
the msg is note_on channel=0 note=72 velocity=100 time=0
the msg is note_off channel=0 note=72 velocity=0 time=12
the msg is note_on channel=0 note=72 velocity=100 time=0
the msg is note_off channel=0 note=72 velocity=0 time=12
the msg is note_on channel=0 note=72 velocity=100 time=0
the msg is note_off channel=0 note=76 velocity=0 time=8
the msg is note_on channel=0 note=76 velocity=100 time=0
the msg is note_off channel=0 note=79 velocity=0 time=29
the msg is note_on channel=0 note=79 velocity=100 time=0
the msg is note_off channel=0 note=79 velocity=0 time=12
the msg is note_on channel=0 note=79 velocity=100 time=0
the msg is note_off channel=0 note=76 velocity=0 time=8
the msg is note_on channel=0 note=76 velocity=100 time=0
the msg is note_off channel=0 note=74 velocity=0 time=17
the msg is note_on channel=0 note=74 velocity=100 time=0
the msg is <meta message end_of_track time=51>
the msg is <meta message track_name name='Piano' time=0>
the msg is program_change channel=0 program=0 time=0
the msg is note_off channel=0 note=72 velocity=0 time=0
the msg is pitchwheel channel=0 pitch=0 time=0
the msg is program_change channel=0 program=0 time=0
the msg is <meta message set_tempo tempo=500000 time=0>
the msg is <meta message time_signature numerator=4 denominator=4 clocks_per_click=24 notated_32nd_notes_per_beat=8 time=0>
the msg is note_on channel=0 note=72 velocity=100 time=0
the msg is note_off channel=0 note=74 velocity=0 time=34
the msg is note_on channel=0 note=74 velocity=100 time=0
the msg is note_off channel=0 note=74 velocity=0 time=17
the msg is note_on channel=0 note=74 velocity=100 time=0
the msg is note_off channel=0 note=74 velocity=0 time=34
the msg is note_on channel=0 note=74 velocity=100 time=0
the msg is note_off channel=0 note=74 velocity=0 time=17
the msg is note_on channel=0 note=74 velocity=100 time=0
the msg is note_off channel=0 note=76 velocity=0 time=34
the msg is note_on channel=0 note=76 velocity=100 time=0
the msg is note_off channel=0 note=79 velocity=0 time=17
the msg is note_on channel=0 note=79 velocity=100 time=0
the msg is note_off channel=0 note=79 velocity=0 time=17
the msg is note_on channel=0 note=79 velocity=100 time=0
the msg is note_off channel=0 note=76 velocity=0 time=17
the msg is note_on channel=0 note=76 velocity=100 time=0
the msg is note_off channel=0 note=74 velocity=0 time=4
the msg is note_on channel=0 note=74 velocity=100 time=0
the msg is note_off channel=0 note=72 velocity=0 time=12
the msg is note_on channel=0 note=72 velocity=100 time=0
the msg is note_off channel=0 note=72 velocity=0 time=89
the msg is note_on channel=0 note=72 velocity=100 time=0
the msg is note_off channel=0 note=72 velocity=0 time=12
the msg is note_on channel=0 note=72 velocity=100 time=0
the msg is note_off channel=0 note=74 velocity=0 time=25
the msg is note_on channel=0 note=74 velocity=100 time=0
the msg is note_off channel=0 note=74 velocity=0 time=25
the msg is note_on channel=0 note=74 velocity=100 time=0
the msg is note_off channel=0 note=74 velocity=0 time=12
the msg is note_on channel=0 note=74 velocity=100 time=0
the msg is note_off channel=0 note=76 velocity=0 time=25
the msg is note_on channel=0 note=76 velocity=100 time=0
the msg is note_off channel=0 note=79 velocity=0 time=25
the msg is note_on channel=0 note=79 velocity=100 time=0
the msg is note_off channel=0 note=79 velocity=0 time=12
the msg is note_on channel=0 note=79 velocity=100 time=0
the msg is note_off channel=0 note=76 velocity=0 time=12
the msg is note_on channel=0 note=76 velocity=100 time=0
the msg is note_off channel=0 note=74 velocity=0 time=12
the msg is note_on channel=0 note=74 velocity=100 time=0
the msg is note_off channel=0 note=72 velocity=0 time=12
the msg is note_on channel=0 note=72 velocity=100 time=0
the msg is note_off channel=0 note=74 velocity=0 time=25
the msg is note_on channel=0 note=74 velocity=100 time=0
the msg is note_off channel=0 note=76 velocity=0 time=25
the msg is note_on channel=0 note=76 velocity=100 time=0
the msg is note_off channel=0 note=79 velocity=0 time=25
the msg is note_on channel=0 note=79 velocity=100 time=0
the msg is note_off channel=0 note=79 velocity=0 time=12
the msg is note_on channel=0 note=79 velocity=100 time=0
the msg is note_off channel=0 note=76 velocity=0 time=12
the msg is note_on channel=0 note=76 velocity=100 time=0
the msg is note_off channel=0 note=74 velocity=0 time=12
the msg is note_on channel=0 note=74 velocity=100 time=0
the msg is note_off channel=0 note=72 velocity=0 time=12
the msg is note_on channel=0 note=72 velocity=100 time=0
the msg is note_off channel=0 note=74 velocity=0 time=25
the msg is note_on channel=0 note=74 velocity=100 time=0
the msg is note_off channel=0 note=74 velocity=0 time=12
the msg is note_on channel=0 note=74 velocity=100 time=0
the msg is note_off channel=0 note=74 velocity=0 time=12
the msg is note_on channel=0 note=74 velocity=100 time=0
the msg is note_off channel=0 note=74 velocity=0 time=25
the msg is note_on channel=0 note=74 velocity=100 time=0
the msg is note_off channel=0 note=74 velocity=0 time=25
the msg is note_on channel=0 note=74 velocity=100 time=0
the msg is note_off channel=0 note=76 velocity=0 time=25
the msg is note_on channel=0 note=76 velocity=100 time=0
the msg is note_off channel=0 note=79 velocity=0 time=25
the msg is note_on channel=0 note=79 velocity=100 time=0
the msg is note_off channel=0 note=79 velocity=0 time=12
the msg is note_on channel=0 note=79 velocity=100 time=0
the msg is note_off channel=0 note=76 velocity=0 time=12
the msg is note_on channel=0 note=76 velocity=100 time=0
the msg is note_off channel=0 note=74 velocity=0 time=12
the msg is note_on channel=0 note=74 velocity=100 time=0
the msg is note_off channel=0 note=72 velocity=0 time=12
the msg is note_on channel=0 note=72 velocity=100 time=0
the msg is note_off channel=0 note=72 velocity=0 time=81
the msg is note_on channel=0 note=72 velocity=100 time=0
the msg is note_off channel=0 note=72 velocity=0 time=8
the msg is note_on channel=0 note=72 velocity=100 time=0
the msg is note_off channel=0 note=74 velocity=0 time=25
the msg is note_on channel=0 note=74 velocity=100 time=0
the msg is note_off channel=0 note=74 velocity=0 time=25
the msg is note_on channel=0 note=74 velocity=100 time=0
the msg is note_off channel=0 note=74 velocity=0 time=25
the msg is note_on channel=0 note=74 velocity=100 time=0
the msg is note_off channel=0 note=74 velocity=0 time=25
the msg is note_on channel=0 note=74 velocity=100 time=0
the msg is note_off channel=0 note=74 velocity=0 time=25
the msg is note_on channel=0 note=74 velocity=100 time=0
the msg is note_off channel=0 note=74 velocity=0 time=25
the msg is note_on channel=0 note=74 velocity=100 time=0
the msg is note_off channel=0 note=76 velocity=0 time=25
the msg is note_on channel=0 note=76 velocity=100 time=0
the msg is note_off channel=0 note=79 velocity=0 time=25
the msg is note_on channel=0 note=79 velocity=100 time=0
the msg is note_off channel=0 note=79 velocity=0 time=12
the msg is note_on channel=0 note=79 velocity=100 time=0
the msg is note_off channel=0 note=76 velocity=0 time=12
the msg is note_on channel=0 note=76 velocity=100 time=0
the msg is note_off channel=0 note=74 velocity=0 time=17
the msg is note_on channel=0 note=74 velocity=100 time=0
the msg is note_off channel=0 note=72 velocity=0 time=8
the msg is note_on channel=0 note=72 velocity=100 time=0
the msg is note_off channel=0 note=72 velocity=0 time=25
the msg is note_on channel=0 note=72 velocity=100 time=0
the msg is note_off channel=0 note=72 velocity=0 time=25
the msg is note_on channel=0 note=72 velocity=100 time=0
the msg is note_off channel=0 note=72 velocity=0 time=12
the msg is note_on channel=0 note=72 velocity=100 time=0
the msg is note_off channel=0 note=72 velocity=0 time=29
the msg is note_on channel=0 note=72 velocity=100 time=0
the msg is note_off channel=0 note=72 velocity=0 time=8
the msg is note_on channel=0 note=72 velocity=100 time=0
the msg is note_off channel=0 note=72 velocity=0 time=25
the msg is note_on channel=0 note=72 velocity=100 time=0
the msg is note_off channel=0 note=72 velocity=0 time=12
the msg is note_on channel=0 note=72 velocity=100 time=0
the msg is note_off channel=0 note=72 velocity=0 time=12
the msg is note_on channel=0 note=72 velocity=100 time=0
the msg is note_off channel=0 note=72 velocity=0 time=12
the msg is note_on channel=0 note=72 velocity=100 time=0
the msg is note_off channel=0 note=76 velocity=0 time=12
the msg is note_on channel=0 note=76 velocity=100 time=0
the msg is note_off channel=0 note=79 velocity=0 time=25
the msg is note_on channel=0 note=79 velocity=100 time=0
the msg is note_off channel=0 note=79 velocity=0 time=12
the msg is note_on channel=0 note=79 velocity=100 time=0
the msg is note_off channel=0 note=76 velocity=0 time=12
the msg is note_on channel=0 note=76 velocity=100 time=0
the msg is note_off channel=0 note=74 velocity=0 time=12
the msg is note_on channel=0 note=74 velocity=100 time=0
the msg is note_off channel=0 note=72 velocity=0 time=12
the msg is note_on channel=0 note=72 velocity=100 time=0
the msg is note_off channel=0 note=72 velocity=0 time=76
the msg is note_on channel=0 note=72 velocity=100 time=0
the msg is note_off channel=0 note=72 velocity=0 time=12
the msg is note_on channel=0 note=72 velocity=100 time=0
the msg is note_off channel=0 note=72 velocity=0 time=12
the msg is note_on channel=0 note=72 velocity=100 time=0
the msg is note_off channel=0 note=72 velocity=0 time=8
the msg is note_on channel=0 note=72 velocity=100 time=0
the msg is note_off channel=0 note=72 velocity=0 time=17
the msg is note_on channel=0 note=72 velocity=100 time=0
the msg is note_off channel=0 note=72 velocity=0 time=12
the msg is note_on channel=0 note=72 velocity=100 time=0
the msg is note_off channel=0 note=72 velocity=0 time=12
the msg is note_on channel=0 note=72 velocity=100 time=0
the msg is note_off channel=0 note=76 velocity=0 time=8
the msg is note_on channel=0 note=76 velocity=100 time=0
the msg is note_off channel=0 note=79 velocity=0 time=29
the msg is note_on channel=0 note=79 velocity=100 time=0
the msg is note_off channel=0 note=79 velocity=0 time=12
the msg is note_on channel=0 note=79 velocity=100 time=0
the msg is note_off channel=0 note=76 velocity=0 time=8
the msg is note_on channel=0 note=76 velocity=100 time=0
the msg is note_off channel=0 note=74 velocity=0 time=17
the msg is note_on channel=0 note=74 velocity=100 time=0
the msg is <meta message end_of_track time=51>
the msg is <meta message track_name name='Piano' time=0>
the msg is program_change channel=0 program=0 time=0
the msg is note_off channel=0 note=72 velocity=0 time=0
the msg is pitchwheel channel=0 pitch=0 time=0
the msg is program_change channel=0 program=0 time=0
the msg is <meta message set_tempo tempo=500000 time=0>
the msg is <meta message time_signature numerator=4 denominator=4 clocks_per_click=24 notated_32nd_notes_per_beat=8 time=0>
the msg is note_on channel=0 note=72 velocity=100 time=0
the msg is note_off channel=0 note=74 velocity=0 time=34
the msg is note_on channel=0 note=74 velocity=100 time=0
the msg is note_off channel=0 note=74 velocity=0 time=17
the msg is note_on channel=0 note=74 velocity=100 time=0
the msg is note_off channel=0 note=74 velocity=0 time=34
the msg is note_on channel=0 note=74 velocity=100 time=0
the msg is note_off channel=0 note=74 velocity=0 time=17
the msg is note_on channel=0 note=74 velocity=100 time=0
the msg is note_off channel=0 note=76 velocity=0 time=34
the msg is note_on channel=0 note=76 velocity=100 time=0
the msg is note_off channel=0 note=79 velocity=0 time=17
the msg is note_on channel=0 note=79 velocity=100 time=0
the msg is note_off channel=0 note=79 velocity=0 time=17
the msg is note_on channel=0 note=79 velocity=100 time=0
the msg is note_off channel=0 note=76 velocity=0 time=17
the msg is note_on channel=0 note=76 velocity=100 time=0
the msg is note_off channel=0 note=74 velocity=0 time=4
the msg is note_on channel=0 note=74 velocity=100 time=0
the msg is note_off channel=0 note=72 velocity=0 time=12
the msg is note_on channel=0 note=72 velocity=100 time=0
the msg is note_off channel=0 note=72 velocity=0 time=89
the msg is note_on channel=0 note=72 velocity=100 time=0
the msg is note_off channel=0 note=72 velocity=0 time=12
the msg is note_on channel=0 note=72 velocity=100 time=0
the msg is note_off channel=0 note=74 velocity=0 time=25
the msg is note_on channel=0 note=74 velocity=100 time=0
the msg is note_off channel=0 note=74 velocity=0 time=25
the msg is note_on channel=0 note=74 velocity=100 time=0
the msg is note_off channel=0 note=74 velocity=0 time=12
the msg is note_on channel=0 note=74 velocity=100 time=0
the msg is note_off channel=0 note=76 velocity=0 time=25
the msg is note_on channel=0 note=76 velocity=100 time=0
the msg is note_off channel=0 note=79 velocity=0 time=25
the msg is note_on channel=0 note=79 velocity=100 time=0
the msg is note_off channel=0 note=79 velocity=0 time=12
the msg is note_on channel=0 note=79 velocity=100 time=0
the msg is note_off channel=0 note=76 velocity=0 time=12
the msg is note_on channel=0 note=76 velocity=100 time=0
the msg is note_off channel=0 note=74 velocity=0 time=12
the msg is note_on channel=0 note=74 velocity=100 time=0
the msg is note_off channel=0 note=72 velocity=0 time=12
the msg is note_on channel=0 note=72 velocity=100 time=0
the msg is note_off channel=0 note=74 velocity=0 time=25
the msg is note_on channel=0 note=74 velocity=100 time=0
the msg is note_off channel=0 note=76 velocity=0 time=25
the msg is note_on channel=0 note=76 velocity=100 time=0
the msg is note_off channel=0 note=79 velocity=0 time=25
the msg is note_on channel=0 note=79 velocity=100 time=0
the msg is note_off channel=0 note=79 velocity=0 time=12
the msg is note_on channel=0 note=79 velocity=100 time=0
the msg is note_off channel=0 note=76 velocity=0 time=12
the msg is note_on channel=0 note=76 velocity=100 time=0
the msg is note_off channel=0 note=74 velocity=0 time=12
the msg is note_on channel=0 note=74 velocity=100 time=0
the msg is note_off channel=0 note=72 velocity=0 time=12
the msg is note_on channel=0 note=72 velocity=100 time=0
the msg is note_off channel=0 note=74 velocity=0 time=25
the msg is note_on channel=0 note=74 velocity=100 time=0
the msg is note_off channel=0 note=74 velocity=0 time=12
the msg is note_on channel=0 note=74 velocity=100 time=0
the msg is note_off channel=0 note=74 velocity=0 time=12
the msg is note_on channel=0 note=74 velocity=100 time=0
the msg is note_off channel=0 note=74 velocity=0 time=25
the msg is note_on channel=0 note=74 velocity=100 time=0
the msg is note_off channel=0 note=74 velocity=0 time=25
the msg is note_on channel=0 note=74 velocity=100 time=0
the msg is note_off channel=0 note=76 velocity=0 time=25
the msg is note_on channel=0 note=76 velocity=100 time=0
the msg is note_off channel=0 note=79 velocity=0 time=25
the msg is note_on channel=0 note=79 velocity=100 time=0
the msg is note_off channel=0 note=79 velocity=0 time=12
the msg is note_on channel=0 note=79 velocity=100 time=0
the msg is note_off channel=0 note=76 velocity=0 time=12
the msg is note_on channel=0 note=76 velocity=100 time=0
the msg is note_off channel=0 note=74 velocity=0 time=12
the msg is note_on channel=0 note=74 velocity=100 time=0
the msg is note_off channel=0 note=72 velocity=0 time=12
the msg is note_on channel=0 note=72 velocity=100 time=0
the msg is note_off channel=0 note=72 velocity=0 time=81
the msg is note_on channel=0 note=72 velocity=100 time=0
the msg is note_off channel=0 note=72 velocity=0 time=8
the msg is note_on channel=0 note=72 velocity=100 time=0
the msg is note_off channel=0 note=74 velocity=0 time=25
the msg is note_on channel=0 note=74 velocity=100 time=0
the msg is note_off channel=0 note=74 velocity=0 time=25
the msg is note_on channel=0 note=74 velocity=100 time=0
the msg is note_off channel=0 note=74 velocity=0 time=25
the msg is note_on channel=0 note=74 velocity=100 time=0
the msg is note_off channel=0 note=74 velocity=0 time=25
the msg is note_on channel=0 note=74 velocity=100 time=0
the msg is note_off channel=0 note=74 velocity=0 time=25
the msg is note_on channel=0 note=74 velocity=100 time=0
the msg is note_off channel=0 note=74 velocity=0 time=25
the msg is note_on channel=0 note=74 velocity=100 time=0
the msg is note_off channel=0 note=76 velocity=0 time=25
the msg is note_on channel=0 note=76 velocity=100 time=0
the msg is note_off channel=0 note=79 velocity=0 time=25
the msg is note_on channel=0 note=79 velocity=100 time=0
the msg is note_off channel=0 note=79 velocity=0 time=12
the msg is note_on channel=0 note=79 velocity=100 time=0
the msg is note_off channel=0 note=76 velocity=0 time=12
the msg is note_on channel=0 note=76 velocity=100 time=0
the msg is note_off channel=0 note=74 velocity=0 time=17
the msg is note_on channel=0 note=74 velocity=100 time=0
the msg is note_off channel=0 note=72 velocity=0 time=8
the msg is note_on channel=0 note=72 velocity=100 time=0
the msg is note_off channel=0 note=72 velocity=0 time=25
the msg is note_on channel=0 note=72 velocity=100 time=0
the msg is note_off channel=0 note=72 velocity=0 time=25
the msg is note_on channel=0 note=72 velocity=100 time=0
the msg is note_off channel=0 note=72 velocity=0 time=12
the msg is note_on channel=0 note=72 velocity=100 time=0
the msg is note_off channel=0 note=72 velocity=0 time=29
the msg is note_on channel=0 note=72 velocity=100 time=0
the msg is note_off channel=0 note=72 velocity=0 time=8
the msg is note_on channel=0 note=72 velocity=100 time=0
the msg is note_off channel=0 note=72 velocity=0 time=25
the msg is note_on channel=0 note=72 velocity=100 time=0
the msg is note_off channel=0 note=72 velocity=0 time=12
the msg is note_on channel=0 note=72 velocity=100 time=0
the msg is note_off channel=0 note=72 velocity=0 time=12
the msg is note_on channel=0 note=72 velocity=100 time=0
the msg is note_off channel=0 note=72 velocity=0 time=12
the msg is note_on channel=0 note=72 velocity=100 time=0
the msg is note_off channel=0 note=76 velocity=0 time=12
the msg is note_on channel=0 note=76 velocity=100 time=0
the msg is note_off channel=0 note=79 velocity=0 time=25
the msg is note_on channel=0 note=79 velocity=100 time=0
the msg is note_off channel=0 note=79 velocity=0 time=12
the msg is note_on channel=0 note=79 velocity=100 time=0
the msg is note_off channel=0 note=76 velocity=0 time=12
the msg is note_on channel=0 note=76 velocity=100 time=0
the msg is note_off channel=0 note=74 velocity=0 time=12
the msg is note_on channel=0 note=74 velocity=100 time=0
the msg is note_off channel=0 note=72 velocity=0 time=12
the msg is note_on channel=0 note=72 velocity=100 time=0
the msg is note_off channel=0 note=72 velocity=0 time=76
the msg is note_on channel=0 note=72 velocity=100 time=0
the msg is note_off channel=0 note=72 velocity=0 time=12
the msg is note_on channel=0 note=72 velocity=100 time=0
the msg is note_off channel=0 note=72 velocity=0 time=12
the msg is note_on channel=0 note=72 velocity=100 time=0
the msg is note_off channel=0 note=72 velocity=0 time=8
the msg is note_on channel=0 note=72 velocity=100 time=0
the msg is note_off channel=0 note=72 velocity=0 time=17
the msg is note_on channel=0 note=72 velocity=100 time=0
the msg is note_off channel=0 note=72 velocity=0 time=12
the msg is note_on channel=0 note=72 velocity=100 time=0
the msg is note_off channel=0 note=72 velocity=0 time=12
the msg is note_on channel=0 note=72 velocity=100 time=0
the msg is note_off channel=0 note=76 velocity=0 time=8
the msg is note_on channel=0 note=76 velocity=100 time=0
the msg is note_off channel=0 note=79 velocity=0 time=29
the msg is note_on channel=0 note=79 velocity=100 time=0
the msg is note_off channel=0 note=79 velocity=0 time=12
the msg is note_on channel=0 note=79 velocity=100 time=0
the msg is note_off channel=0 note=76 velocity=0 time=8
the msg is note_on channel=0 note=76 velocity=100 time=0
the msg is note_off channel=0 note=74 velocity=0 time=17
the msg is note_on channel=0 note=74 velocity=100 time=0
the msg is <meta message end_of_track time=51>
the msg is <meta message track_name name='Piano' time=0>
the msg is program_change channel=0 program=0 time=0
the msg is note_off channel=0 note=72 velocity=0 time=0
the msg is pitchwheel channel=0 pitch=0 time=0
the msg is program_change channel=0 program=0 time=0
the msg is <meta message set_tempo tempo=500000 time=0>
the msg is <meta message time_signature numerator=4 denominator=4 clocks_per_click=24 notated_32nd_notes_per_beat=8 time=0>
the msg is note_on channel=0 note=72 velocity=100 time=0
the msg is note_off channel=0 note=74 velocity=0 time=34
the msg is note_on channel=0 note=74 velocity=100 time=0
the msg is note_off channel=0 note=74 velocity=0 time=17
the msg is note_on channel=0 note=74 velocity=100 time=0
the msg is note_off channel=0 note=74 velocity=0 time=34
the msg is note_on channel=0 note=74 velocity=100 time=0
the msg is note_off channel=0 note=74 velocity=0 time=17
the msg is note_on channel=0 note=74 velocity=100 time=0
the msg is note_off channel=0 note=76 velocity=0 time=34
the msg is note_on channel=0 note=76 velocity=100 time=0
the msg is note_off channel=0 note=79 velocity=0 time=17
the msg is note_on channel=0 note=79 velocity=100 time=0
the msg is note_off channel=0 note=79 velocity=0 time=17
the msg is note_on channel=0 note=79 velocity=100 time=0
the msg is note_off channel=0 note=76 velocity=0 time=17
the msg is note_on channel=0 note=76 velocity=100 time=0
the msg is note_off channel=0 note=74 velocity=0 time=4
the msg is note_on channel=0 note=74 velocity=100 time=0
the msg is note_off channel=0 note=72 velocity=0 time=12
the msg is note_on channel=0 note=72 velocity=100 time=0
the msg is note_off channel=0 note=72 velocity=0 time=89
the msg is note_on channel=0 note=72 velocity=100 time=0
the msg is note_off channel=0 note=72 velocity=0 time=12
the msg is note_on channel=0 note=72 velocity=100 time=0
the msg is note_off channel=0 note=74 velocity=0 time=25
the msg is note_on channel=0 note=74 velocity=100 time=0
the msg is note_off channel=0 note=74 velocity=0 time=25
the msg is note_on channel=0 note=74 velocity=100 time=0
the msg is note_off channel=0 note=74 velocity=0 time=12
the msg is note_on channel=0 note=74 velocity=100 time=0
the msg is note_off channel=0 note=76 velocity=0 time=25
the msg is note_on channel=0 note=76 velocity=100 time=0
the msg is note_off channel=0 note=79 velocity=0 time=25
the msg is note_on channel=0 note=79 velocity=100 time=0
the msg is note_off channel=0 note=79 velocity=0 time=12
the msg is note_on channel=0 note=79 velocity=100 time=0
the msg is note_off channel=0 note=76 velocity=0 time=12
the msg is note_on channel=0 note=76 velocity=100 time=0
the msg is note_off channel=0 note=74 velocity=0 time=12
the msg is note_on channel=0 note=74 velocity=100 time=0
the msg is note_off channel=0 note=72 velocity=0 time=12
the msg is note_on channel=0 note=72 velocity=100 time=0
the msg is note_off channel=0 note=74 velocity=0 time=25
the msg is note_on channel=0 note=74 velocity=100 time=0
the msg is note_off channel=0 note=76 velocity=0 time=25
the msg is note_on channel=0 note=76 velocity=100 time=0
the msg is note_off channel=0 note=79 velocity=0 time=25
the msg is note_on channel=0 note=79 velocity=100 time=0
the msg is note_off channel=0 note=79 velocity=0 time=12
the msg is note_on channel=0 note=79 velocity=100 time=0
the msg is note_off channel=0 note=76 velocity=0 time=12
the msg is note_on channel=0 note=76 velocity=100 time=0
the msg is note_off channel=0 note=74 velocity=0 time=12
the msg is note_on channel=0 note=74 velocity=100 time=0
the msg is note_off channel=0 note=72 velocity=0 time=12
the msg is note_on channel=0 note=72 velocity=100 time=0
the msg is note_off channel=0 note=74 velocity=0 time=25
the msg is note_on channel=0 note=74 velocity=100 time=0
the msg is note_off channel=0 note=74 velocity=0 time=12
the msg is note_on channel=0 note=74 velocity=100 time=0
the msg is note_off channel=0 note=74 velocity=0 time=12
the msg is note_on channel=0 note=74 velocity=100 time=0
the msg is note_off channel=0 note=74 velocity=0 time=25
the msg is note_on channel=0 note=74 velocity=100 time=0
the msg is note_off channel=0 note=74 velocity=0 time=25
the msg is note_on channel=0 note=74 velocity=100 time=0
the msg is note_off channel=0 note=76 velocity=0 time=25
the msg is note_on channel=0 note=76 velocity=100 time=0
the msg is note_off channel=0 note=79 velocity=0 time=25
the msg is note_on channel=0 note=79 velocity=100 time=0
the msg is note_off channel=0 note=79 velocity=0 time=12
the msg is note_on channel=0 note=79 velocity=100 time=0
the msg is note_off channel=0 note=76 velocity=0 time=12
the msg is note_on channel=0 note=76 velocity=100 time=0
the msg is note_off channel=0 note=74 velocity=0 time=12
the msg is note_on channel=0 note=74 velocity=100 time=0
the msg is note_off channel=0 note=72 velocity=0 time=12
the msg is note_on channel=0 note=72 velocity=100 time=0
the msg is note_off channel=0 note=72 velocity=0 time=81
the msg is note_on channel=0 note=72 velocity=100 time=0
the msg is note_off channel=0 note=72 velocity=0 time=8
the msg is note_on channel=0 note=72 velocity=100 time=0
the msg is note_off channel=0 note=74 velocity=0 time=25
the msg is note_on channel=0 note=74 velocity=100 time=0
the msg is note_off channel=0 note=74 velocity=0 time=25
the msg is note_on channel=0 note=74 velocity=100 time=0
the msg is note_off channel=0 note=74 velocity=0 time=25
the msg is note_on channel=0 note=74 velocity=100 time=0
the msg is note_off channel=0 note=74 velocity=0 time=25
the msg is note_on channel=0 note=74 velocity=100 time=0
the msg is note_off channel=0 note=74 velocity=0 time=25
the msg is note_on channel=0 note=74 velocity=100 time=0
the msg is note_off channel=0 note=74 velocity=0 time=25
the msg is note_on channel=0 note=74 velocity=100 time=0
the msg is note_off channel=0 note=76 velocity=0 time=25
the msg is note_on channel=0 note=76 velocity=100 time=0
the msg is note_off channel=0 note=79 velocity=0 time=25
the msg is note_on channel=0 note=79 velocity=100 time=0
the msg is note_off channel=0 note=79 velocity=0 time=12
the msg is note_on channel=0 note=79 velocity=100 time=0
the msg is note_off channel=0 note=76 velocity=0 time=12
the msg is note_on channel=0 note=76 velocity=100 time=0
the msg is note_off channel=0 note=74 velocity=0 time=17
the msg is note_on channel=0 note=74 velocity=100 time=0
the msg is note_off channel=0 note=72 velocity=0 time=8
the msg is note_on channel=0 note=72 velocity=100 time=0
the msg is note_off channel=0 note=72 velocity=0 time=25
the msg is note_on channel=0 note=72 velocity=100 time=0
the msg is note_off channel=0 note=72 velocity=0 time=25
the msg is note_on channel=0 note=72 velocity=100 time=0
the msg is note_off channel=0 note=72 velocity=0 time=12
the msg is note_on channel=0 note=72 velocity=100 time=0
the msg is note_off channel=0 note=72 velocity=0 time=29
the msg is note_on channel=0 note=72 velocity=100 time=0
the msg is note_off channel=0 note=72 velocity=0 time=8
the msg is note_on channel=0 note=72 velocity=100 time=0
the msg is note_off channel=0 note=72 velocity=0 time=25
the msg is note_on channel=0 note=72 velocity=100 time=0
the msg is note_off channel=0 note=72 velocity=0 time=12
the msg is note_on channel=0 note=72 velocity=100 time=0
the msg is note_off channel=0 note=72 velocity=0 time=12
the msg is note_on channel=0 note=72 velocity=100 time=0
the msg is note_off channel=0 note=72 velocity=0 time=12
the msg is note_on channel=0 note=72 velocity=100 time=0
the msg is note_off channel=0 note=76 velocity=0 time=12
the msg is note_on channel=0 note=76 velocity=100 time=0
the msg is note_off channel=0 note=79 velocity=0 time=25
the msg is note_on channel=0 note=79 velocity=100 time=0
the msg is note_off channel=0 note=79 velocity=0 time=12
the msg is note_on channel=0 note=79 velocity=100 time=0
the msg is note_off channel=0 note=76 velocity=0 time=12
the msg is note_on channel=0 note=76 velocity=100 time=0
the msg is note_off channel=0 note=74 velocity=0 time=12
the msg is note_on channel=0 note=74 velocity=100 time=0
the msg is note_off channel=0 note=72 velocity=0 time=12
the msg is note_on channel=0 note=72 velocity=100 time=0
the msg is note_off channel=0 note=72 velocity=0 time=76
the msg is note_on channel=0 note=72 velocity=100 time=0
the msg is note_off channel=0 note=72 velocity=0 time=12
the msg is note_on channel=0 note=72 velocity=100 time=0
the msg is note_off channel=0 note=72 velocity=0 time=12
the msg is note_on channel=0 note=72 velocity=100 time=0
the msg is note_off channel=0 note=72 velocity=0 time=8
the msg is note_on channel=0 note=72 velocity=100 time=0
the msg is note_off channel=0 note=72 velocity=0 time=17
the msg is note_on channel=0 note=72 velocity=100 time=0
the msg is note_off channel=0 note=72 velocity=0 time=12
the msg is note_on channel=0 note=72 velocity=100 time=0
the msg is note_off channel=0 note=72 velocity=0 time=12
the msg is note_on channel=0 note=72 velocity=100 time=0
the msg is note_off channel=0 note=76 velocity=0 time=8
the msg is note_on channel=0 note=76 velocity=100 time=0
the msg is note_off channel=0 note=79 velocity=0 time=29
the msg is note_on channel=0 note=79 velocity=100 time=0
the msg is note_off channel=0 note=79 velocity=0 time=12
the msg is note_on channel=0 note=79 velocity=100 time=0
the msg is note_off channel=0 note=76 velocity=0 time=8
the msg is note_on channel=0 note=76 velocity=100 time=0
the msg is note_off channel=0 note=74 velocity=0 time=17
the msg is note_on channel=0 note=74 velocity=100 time=0
the msg is <meta message end_of_track time=51>
the msg is <meta message track_name name='Piano' time=0>
the msg is program_change channel=0 program=0 time=0
the msg is note_off channel=0 note=72 velocity=0 time=0
the msg is pitchwheel channel=0 pitch=0 time=0
the msg is program_change channel=0 program=0 time=0
the msg is <meta message set_tempo tempo=500000 time=0>
the msg is <meta message time_signature numerator=4 denominator=4 clocks_per_click=24 notated_32nd_notes_per_beat=8 time=0>
the msg is note_on channel=0 note=72 velocity=100 time=0
the msg is note_off channel=0 note=74 velocity=0 time=34
the msg is note_on channel=0 note=74 velocity=100 time=0
the msg is note_off channel=0 note=74 velocity=0 time=17
the msg is note_on channel=0 note=74 velocity=100 time=0
the msg is note_off channel=0 note=74 velocity=0 time=34
the msg is note_on channel=0 note=74 velocity=100 time=0
the msg is note_off channel=0 note=74 velocity=0 time=17
the msg is note_on channel=0 note=74 velocity=100 time=0
the msg is note_off channel=0 note=76 velocity=0 time=34
the msg is note_on channel=0 note=76 velocity=100 time=0
the msg is note_off channel=0 note=79 velocity=0 time=17
the msg is note_on channel=0 note=79 velocity=100 time=0
the msg is note_off channel=0 note=79 velocity=0 time=17
the msg is note_on channel=0 note=79 velocity=100 time=0
the msg is note_off channel=0 note=76 velocity=0 time=17
the msg is note_on channel=0 note=76 velocity=100 time=0
the msg is note_off channel=0 note=74 velocity=0 time=4
the msg is note_on channel=0 note=74 velocity=100 time=0
the msg is note_off channel=0 note=72 velocity=0 time=12
the msg is note_on channel=0 note=72 velocity=100 time=0
the msg is note_off channel=0 note=72 velocity=0 time=89
the msg is note_on channel=0 note=72 velocity=100 time=0
the msg is note_off channel=0 note=72 velocity=0 time=12
the msg is note_on channel=0 note=72 velocity=100 time=0
the msg is note_off channel=0 note=74 velocity=0 time=25
the msg is note_on channel=0 note=74 velocity=100 time=0
the msg is note_off channel=0 note=74 velocity=0 time=25
the msg is note_on channel=0 note=74 velocity=100 time=0
the msg is note_off channel=0 note=74 velocity=0 time=12
the msg is note_on channel=0 note=74 velocity=100 time=0
the msg is note_off channel=0 note=76 velocity=0 time=25
the msg is note_on channel=0 note=76 velocity=100 time=0
the msg is note_off channel=0 note=79 velocity=0 time=25
the msg is note_on channel=0 note=79 velocity=100 time=0
the msg is note_off channel=0 note=79 velocity=0 time=12
the msg is note_on channel=0 note=79 velocity=100 time=0
the msg is note_off channel=0 note=76 velocity=0 time=12
the msg is note_on channel=0 note=76 velocity=100 time=0
the msg is note_off channel=0 note=74 velocity=0 time=12
the msg is note_on channel=0 note=74 velocity=100 time=0
the msg is note_off channel=0 note=72 velocity=0 time=12
the msg is note_on channel=0 note=72 velocity=100 time=0
the msg is note_off channel=0 note=74 velocity=0 time=25
the msg is note_on channel=0 note=74 velocity=100 time=0
the msg is note_off channel=0 note=76 velocity=0 time=25
the msg is note_on channel=0 note=76 velocity=100 time=0
the msg is note_off channel=0 note=79 velocity=0 time=25
the msg is note_on channel=0 note=79 velocity=100 time=0
the msg is note_off channel=0 note=79 velocity=0 time=12
the msg is note_on channel=0 note=79 velocity=100 time=0
the msg is note_off channel=0 note=76 velocity=0 time=12
the msg is note_on channel=0 note=76 velocity=100 time=0
the msg is note_off channel=0 note=74 velocity=0 time=12
the msg is note_on channel=0 note=74 velocity=100 time=0
the msg is note_off channel=0 note=72 velocity=0 time=12
the msg is note_on channel=0 note=72 velocity=100 time=0
the msg is note_off channel=0 note=74 velocity=0 time=25
the msg is note_on channel=0 note=74 velocity=100 time=0
the msg is note_off channel=0 note=74 velocity=0 time=12
the msg is note_on channel=0 note=74 velocity=100 time=0
the msg is note_off channel=0 note=74 velocity=0 time=12
the msg is note_on channel=0 note=74 velocity=100 time=0
the msg is note_off channel=0 note=74 velocity=0 time=25
the msg is note_on channel=0 note=74 velocity=100 time=0
the msg is note_off channel=0 note=74 velocity=0 time=25
the msg is note_on channel=0 note=74 velocity=100 time=0
the msg is note_off channel=0 note=76 velocity=0 time=25
the msg is note_on channel=0 note=76 velocity=100 time=0
the msg is note_off channel=0 note=79 velocity=0 time=25
the msg is note_on channel=0 note=79 velocity=100 time=0
the msg is note_off channel=0 note=79 velocity=0 time=12
the msg is note_on channel=0 note=79 velocity=100 time=0
the msg is note_off channel=0 note=76 velocity=0 time=12
the msg is note_on channel=0 note=76 velocity=100 time=0
the msg is note_off channel=0 note=74 velocity=0 time=12
the msg is note_on channel=0 note=74 velocity=100 time=0
the msg is note_off channel=0 note=72 velocity=0 time=12
the msg is note_on channel=0 note=72 velocity=100 time=0
the msg is note_off channel=0 note=72 velocity=0 time=81
the msg is note_on channel=0 note=72 velocity=100 time=0
the msg is note_off channel=0 note=72 velocity=0 time=8
the msg is note_on channel=0 note=72 velocity=100 time=0
the msg is note_off channel=0 note=74 velocity=0 time=25
the msg is note_on channel=0 note=74 velocity=100 time=0
the msg is note_off channel=0 note=74 velocity=0 time=25
the msg is note_on channel=0 note=74 velocity=100 time=0
the msg is note_off channel=0 note=74 velocity=0 time=25
the msg is note_on channel=0 note=74 velocity=100 time=0
the msg is note_off channel=0 note=74 velocity=0 time=25
the msg is note_on channel=0 note=74 velocity=100 time=0
the msg is note_off channel=0 note=74 velocity=0 time=25
the msg is note_on channel=0 note=74 velocity=100 time=0
the msg is note_off channel=0 note=74 velocity=0 time=25
the msg is note_on channel=0 note=74 velocity=100 time=0
the msg is note_off channel=0 note=76 velocity=0 time=25
the msg is note_on channel=0 note=76 velocity=100 time=0
the msg is note_off channel=0 note=79 velocity=0 time=25
the msg is note_on channel=0 note=79 velocity=100 time=0
the msg is note_off channel=0 note=79 velocity=0 time=12
the msg is note_on channel=0 note=79 velocity=100 time=0
the msg is note_off channel=0 note=76 velocity=0 time=12
the msg is note_on channel=0 note=76 velocity=100 time=0
the msg is note_off channel=0 note=74 velocity=0 time=17
the msg is note_on channel=0 note=74 velocity=100 time=0
the msg is note_off channel=0 note=72 velocity=0 time=8
the msg is note_on channel=0 note=72 velocity=100 time=0
the msg is note_off channel=0 note=72 velocity=0 time=25
the msg is note_on channel=0 note=72 velocity=100 time=0
the msg is note_off channel=0 note=72 velocity=0 time=25
the msg is note_on channel=0 note=72 velocity=100 time=0
the msg is note_off channel=0 note=72 velocity=0 time=12
the msg is note_on channel=0 note=72 velocity=100 time=0
the msg is note_off channel=0 note=72 velocity=0 time=29
the msg is note_on channel=0 note=72 velocity=100 time=0
the msg is note_off channel=0 note=72 velocity=0 time=8
the msg is note_on channel=0 note=72 velocity=100 time=0
the msg is note_off channel=0 note=72 velocity=0 time=25
the msg is note_on channel=0 note=72 velocity=100 time=0
the msg is note_off channel=0 note=72 velocity=0 time=12
the msg is note_on channel=0 note=72 velocity=100 time=0
the msg is note_off channel=0 note=72 velocity=0 time=12
the msg is note_on channel=0 note=72 velocity=100 time=0
the msg is note_off channel=0 note=72 velocity=0 time=12
the msg is note_on channel=0 note=72 velocity=100 time=0
the msg is note_off channel=0 note=76 velocity=0 time=12
the msg is note_on channel=0 note=76 velocity=100 time=0
the msg is note_off channel=0 note=79 velocity=0 time=25
the msg is note_on channel=0 note=79 velocity=100 time=0
the msg is note_off channel=0 note=79 velocity=0 time=12
the msg is note_on channel=0 note=79 velocity=100 time=0
the msg is note_off channel=0 note=76 velocity=0 time=12
the msg is note_on channel=0 note=76 velocity=100 time=0
the msg is note_off channel=0 note=74 velocity=0 time=12
the msg is note_on channel=0 note=74 velocity=100 time=0
the msg is note_off channel=0 note=72 velocity=0 time=12
the msg is note_on channel=0 note=72 velocity=100 time=0
the msg is note_off channel=0 note=72 velocity=0 time=76
the msg is note_on channel=0 note=72 velocity=100 time=0
the msg is note_off channel=0 note=72 velocity=0 time=12
the msg is note_on channel=0 note=72 velocity=100 time=0
the msg is note_off channel=0 note=72 velocity=0 time=12
the msg is note_on channel=0 note=72 velocity=100 time=0
the msg is note_off channel=0 note=72 velocity=0 time=8
the msg is note_on channel=0 note=72 velocity=100 time=0
the msg is note_off channel=0 note=72 velocity=0 time=17
the msg is note_on channel=0 note=72 velocity=100 time=0
the msg is note_off channel=0 note=72 velocity=0 time=12
the msg is note_on channel=0 note=72 velocity=100 time=0
the msg is note_off channel=0 note=72 velocity=0 time=12
the msg is note_on channel=0 note=72 velocity=100 time=0
the msg is note_off channel=0 note=76 velocity=0 time=8
the msg is note_on channel=0 note=76 velocity=100 time=0
the msg is note_off channel=0 note=79 velocity=0 time=29
the msg is note_on channel=0 note=79 velocity=100 time=0
the msg is note_off channel=0 note=79 velocity=0 time=12
the msg is note_on channel=0 note=79 velocity=100 time=0
the msg is note_off channel=0 note=76 velocity=0 time=8
the msg is note_on channel=0 note=76 velocity=100 time=0
the msg is note_off channel=0 note=74 velocity=0 time=17
the msg is note_on channel=0 note=74 velocity=100 time=0
the msg is <meta message end_of_track time=51>
the msg is <meta message track_name name='Piano' time=0>
the msg is program_change channel=0 program=0 time=0
the msg is note_off channel=0 note=72 velocity=0 time=0
the msg is pitchwheel channel=0 pitch=0 time=0
the msg is program_change channel=0 program=0 time=0
the msg is <meta message set_tempo tempo=500000 time=0>
the msg is <meta message time_signature numerator=4 denominator=4 clocks_per_click=24 notated_32nd_notes_per_beat=8 time=0>
the msg is note_on channel=0 note=72 velocity=100 time=0
the msg is note_off channel=0 note=74 velocity=0 time=34
the msg is note_on channel=0 note=74 velocity=100 time=0
the msg is note_off channel=0 note=74 velocity=0 time=17
the msg is note_on channel=0 note=74 velocity=100 time=0
the msg is note_off channel=0 note=74 velocity=0 time=34
the msg is note_on channel=0 note=74 velocity=100 time=0
the msg is note_off channel=0 note=74 velocity=0 time=17
the msg is note_on channel=0 note=74 velocity=100 time=0
the msg is note_off channel=0 note=76 velocity=0 time=34
the msg is note_on channel=0 note=76 velocity=100 time=0
the msg is note_off channel=0 note=79 velocity=0 time=17
the msg is note_on channel=0 note=79 velocity=100 time=0
the msg is note_off channel=0 note=79 velocity=0 time=17
the msg is note_on channel=0 note=79 velocity=100 time=0
the msg is note_off channel=0 note=76 velocity=0 time=17
the msg is note_on channel=0 note=76 velocity=100 time=0
the msg is note_off channel=0 note=74 velocity=0 time=4
the msg is note_on channel=0 note=74 velocity=100 time=0
the msg is note_off channel=0 note=72 velocity=0 time=12
the msg is note_on channel=0 note=72 velocity=100 time=0
the msg is note_off channel=0 note=72 velocity=0 time=89
the msg is note_on channel=0 note=72 velocity=100 time=0
the msg is note_off channel=0 note=72 velocity=0 time=12
the msg is note_on channel=0 note=72 velocity=100 time=0
the msg is note_off channel=0 note=74 velocity=0 time=25
the msg is note_on channel=0 note=74 velocity=100 time=0
the msg is note_off channel=0 note=74 velocity=0 time=25
the msg is note_on channel=0 note=74 velocity=100 time=0
the msg is note_off channel=0 note=74 velocity=0 time=12
the msg is note_on channel=0 note=74 velocity=100 time=0
the msg is note_off channel=0 note=76 velocity=0 time=25
the msg is note_on channel=0 note=76 velocity=100 time=0
the msg is note_off channel=0 note=79 velocity=0 time=25
the msg is note_on channel=0 note=79 velocity=100 time=0
the msg is note_off channel=0 note=79 velocity=0 time=12
the msg is note_on channel=0 note=79 velocity=100 time=0
the msg is note_off channel=0 note=76 velocity=0 time=12
the msg is note_on channel=0 note=76 velocity=100 time=0
the msg is note_off channel=0 note=74 velocity=0 time=12
the msg is note_on channel=0 note=74 velocity=100 time=0
the msg is note_off channel=0 note=72 velocity=0 time=12
the msg is note_on channel=0 note=72 velocity=100 time=0
the msg is note_off channel=0 note=74 velocity=0 time=25
the msg is note_on channel=0 note=74 velocity=100 time=0
the msg is note_off channel=0 note=76 velocity=0 time=25
the msg is note_on channel=0 note=76 velocity=100 time=0
the msg is note_off channel=0 note=79 velocity=0 time=25
the msg is note_on channel=0 note=79 velocity=100 time=0
the msg is note_off channel=0 note=79 velocity=0 time=12
the msg is note_on channel=0 note=79 velocity=100 time=0
the msg is note_off channel=0 note=76 velocity=0 time=12
the msg is note_on channel=0 note=76 velocity=100 time=0
the msg is note_off channel=0 note=74 velocity=0 time=12
the msg is note_on channel=0 note=74 velocity=100 time=0
the msg is note_off channel=0 note=72 velocity=0 time=12
the msg is note_on channel=0 note=72 velocity=100 time=0
the msg is note_off channel=0 note=74 velocity=0 time=25
the msg is note_on channel=0 note=74 velocity=100 time=0
the msg is note_off channel=0 note=74 velocity=0 time=12
the msg is note_on channel=0 note=74 velocity=100 time=0
the msg is note_off channel=0 note=74 velocity=0 time=12
the msg is note_on channel=0 note=74 velocity=100 time=0
the msg is note_off channel=0 note=74 velocity=0 time=25
the msg is note_on channel=0 note=74 velocity=100 time=0
the msg is note_off channel=0 note=74 velocity=0 time=25
the msg is note_on channel=0 note=74 velocity=100 time=0
the msg is note_off channel=0 note=76 velocity=0 time=25
the msg is note_on channel=0 note=76 velocity=100 time=0
the msg is note_off channel=0 note=79 velocity=0 time=25
the msg is note_on channel=0 note=79 velocity=100 time=0
the msg is note_off channel=0 note=79 velocity=0 time=12
the msg is note_on channel=0 note=79 velocity=100 time=0
the msg is note_off channel=0 note=76 velocity=0 time=12
the msg is note_on channel=0 note=76 velocity=100 time=0
the msg is note_off channel=0 note=74 velocity=0 time=12
the msg is note_on channel=0 note=74 velocity=100 time=0
the msg is note_off channel=0 note=72 velocity=0 time=12
the msg is note_on channel=0 note=72 velocity=100 time=0
the msg is note_off channel=0 note=72 velocity=0 time=81
the msg is note_on channel=0 note=72 velocity=100 time=0
the msg is note_off channel=0 note=72 velocity=0 time=8
the msg is note_on channel=0 note=72 velocity=100 time=0
the msg is note_off channel=0 note=74 velocity=0 time=25
the msg is note_on channel=0 note=74 velocity=100 time=0
the msg is note_off channel=0 note=74 velocity=0 time=25
the msg is note_on channel=0 note=74 velocity=100 time=0
the msg is note_off channel=0 note=74 velocity=0 time=25
the msg is note_on channel=0 note=74 velocity=100 time=0
the msg is note_off channel=0 note=74 velocity=0 time=25
the msg is note_on channel=0 note=74 velocity=100 time=0
the msg is note_off channel=0 note=74 velocity=0 time=25
the msg is note_on channel=0 note=74 velocity=100 time=0
the msg is note_off channel=0 note=74 velocity=0 time=25
the msg is note_on channel=0 note=74 velocity=100 time=0
the msg is note_off channel=0 note=76 velocity=0 time=25
the msg is note_on channel=0 note=76 velocity=100 time=0
the msg is note_off channel=0 note=79 velocity=0 time=25
the msg is note_on channel=0 note=79 velocity=100 time=0
the msg is note_off channel=0 note=79 velocity=0 time=12
the msg is note_on channel=0 note=79 velocity=100 time=0
the msg is note_off channel=0 note=76 velocity=0 time=12
the msg is note_on channel=0 note=76 velocity=100 time=0
the msg is note_off channel=0 note=74 velocity=0 time=17
the msg is note_on channel=0 note=74 velocity=100 time=0
the msg is note_off channel=0 note=72 velocity=0 time=8
the msg is note_on channel=0 note=72 velocity=100 time=0
the msg is note_off channel=0 note=72 velocity=0 time=25
the msg is note_on channel=0 note=72 velocity=100 time=0
the msg is note_off channel=0 note=72 velocity=0 time=25
the msg is note_on channel=0 note=72 velocity=100 time=0
the msg is note_off channel=0 note=72 velocity=0 time=12
the msg is note_on channel=0 note=72 velocity=100 time=0
the msg is note_off channel=0 note=72 velocity=0 time=29
the msg is note_on channel=0 note=72 velocity=100 time=0
the msg is note_off channel=0 note=72 velocity=0 time=8
the msg is note_on channel=0 note=72 velocity=100 time=0
the msg is note_off channel=0 note=72 velocity=0 time=25
the msg is note_on channel=0 note=72 velocity=100 time=0
the msg is note_off channel=0 note=72 velocity=0 time=12
the msg is note_on channel=0 note=72 velocity=100 time=0
the msg is note_off channel=0 note=72 velocity=0 time=12
the msg is note_on channel=0 note=72 velocity=100 time=0
the msg is note_off channel=0 note=72 velocity=0 time=12
the msg is note_on channel=0 note=72 velocity=100 time=0
the msg is note_off channel=0 note=76 velocity=0 time=12
the msg is note_on channel=0 note=76 velocity=100 time=0
the msg is note_off channel=0 note=79 velocity=0 time=25
the msg is note_on channel=0 note=79 velocity=100 time=0
the msg is note_off channel=0 note=79 velocity=0 time=12
the msg is note_on channel=0 note=79 velocity=100 time=0
the msg is note_off channel=0 note=76 velocity=0 time=12
the msg is note_on channel=0 note=76 velocity=100 time=0
the msg is note_off channel=0 note=74 velocity=0 time=12
the msg is note_on channel=0 note=74 velocity=100 time=0
the msg is note_off channel=0 note=72 velocity=0 time=12
the msg is note_on channel=0 note=72 velocity=100 time=0
the msg is note_off channel=0 note=72 velocity=0 time=76
the msg is note_on channel=0 note=72 velocity=100 time=0
the msg is note_off channel=0 note=72 velocity=0 time=12
the msg is note_on channel=0 note=72 velocity=100 time=0
the msg is note_off channel=0 note=72 velocity=0 time=12
the msg is note_on channel=0 note=72 velocity=100 time=0
the msg is note_off channel=0 note=72 velocity=0 time=8
the msg is note_on channel=0 note=72 velocity=100 time=0
the msg is note_off channel=0 note=72 velocity=0 time=17
the msg is note_on channel=0 note=72 velocity=100 time=0
the msg is note_off channel=0 note=72 velocity=0 time=12
the msg is note_on channel=0 note=72 velocity=100 time=0
the msg is note_off channel=0 note=72 velocity=0 time=12
the msg is note_on channel=0 note=72 velocity=100 time=0
the msg is note_off channel=0 note=76 velocity=0 time=8
the msg is note_on channel=0 note=76 velocity=100 time=0
the msg is note_off channel=0 note=79 velocity=0 time=29
the msg is note_on channel=0 note=79 velocity=100 time=0
the msg is note_off channel=0 note=79 velocity=0 time=12
the msg is note_on channel=0 note=79 velocity=100 time=0
the msg is note_off channel=0 note=76 velocity=0 time=8
the msg is note_on channel=0 note=76 velocity=100 time=0
the msg is note_off channel=0 note=74 velocity=0 time=17
the msg is note_on channel=0 note=74 velocity=100 time=0
the msg is <meta message end_of_track time=51>
the msg is <meta message track_name name='Piano' time=0>
the msg is program_change channel=0 program=0 time=0
the msg is note_off channel=0 note=72 velocity=0 time=0
the msg is pitchwheel channel=0 pitch=0 time=0
the msg is program_change channel=0 program=0 time=0
the msg is <meta message set_tempo tempo=500000 time=0>
the msg is <meta message time_signature numerator=4 denominator=4 clocks_per_click=24 notated_32nd_notes_per_beat=8 time=0>
the msg is note_on channel=0 note=72 velocity=100 time=0
the msg is note_off channel=0 note=74 velocity=0 time=34
the msg is note_on channel=0 note=74 velocity=100 time=0
the msg is note_off channel=0 note=74 velocity=0 time=17
the msg is note_on channel=0 note=74 velocity=100 time=0
the msg is note_off channel=0 note=74 velocity=0 time=34
the msg is note_on channel=0 note=74 velocity=100 time=0
the msg is note_off channel=0 note=74 velocity=0 time=17
the msg is note_on channel=0 note=74 velocity=100 time=0
the msg is note_off channel=0 note=76 velocity=0 time=34
the msg is note_on channel=0 note=76 velocity=100 time=0
the msg is note_off channel=0 note=79 velocity=0 time=17
the msg is note_on channel=0 note=79 velocity=100 time=0
the msg is note_off channel=0 note=79 velocity=0 time=17
the msg is note_on channel=0 note=79 velocity=100 time=0
the msg is note_off channel=0 note=76 velocity=0 time=17
the msg is note_on channel=0 note=76 velocity=100 time=0
the msg is note_off channel=0 note=74 velocity=0 time=4
the msg is note_on channel=0 note=74 velocity=100 time=0
the msg is note_off channel=0 note=72 velocity=0 time=12
the msg is note_on channel=0 note=72 velocity=100 time=0
the msg is note_off channel=0 note=72 velocity=0 time=89
the msg is note_on channel=0 note=72 velocity=100 time=0
the msg is note_off channel=0 note=72 velocity=0 time=12
the msg is note_on channel=0 note=72 velocity=100 time=0
the msg is note_off channel=0 note=74 velocity=0 time=25
the msg is note_on channel=0 note=74 velocity=100 time=0
the msg is note_off channel=0 note=74 velocity=0 time=25
the msg is note_on channel=0 note=74 velocity=100 time=0
the msg is note_off channel=0 note=74 velocity=0 time=12
the msg is note_on channel=0 note=74 velocity=100 time=0
the msg is note_off channel=0 note=76 velocity=0 time=25
the msg is note_on channel=0 note=76 velocity=100 time=0
the msg is note_off channel=0 note=79 velocity=0 time=25
the msg is note_on channel=0 note=79 velocity=100 time=0
the msg is note_off channel=0 note=79 velocity=0 time=12
the msg is note_on channel=0 note=79 velocity=100 time=0
the msg is note_off channel=0 note=76 velocity=0 time=12
the msg is note_on channel=0 note=76 velocity=100 time=0
the msg is note_off channel=0 note=74 velocity=0 time=12
the msg is note_on channel=0 note=74 velocity=100 time=0
the msg is note_off channel=0 note=72 velocity=0 time=12
the msg is note_on channel=0 note=72 velocity=100 time=0
the msg is note_off channel=0 note=74 velocity=0 time=25
the msg is note_on channel=0 note=74 velocity=100 time=0
the msg is note_off channel=0 note=76 velocity=0 time=25
the msg is note_on channel=0 note=76 velocity=100 time=0
the msg is note_off channel=0 note=79 velocity=0 time=25
the msg is note_on channel=0 note=79 velocity=100 time=0
the msg is note_off channel=0 note=79 velocity=0 time=12
the msg is note_on channel=0 note=79 velocity=100 time=0
the msg is note_off channel=0 note=76 velocity=0 time=12
the msg is note_on channel=0 note=76 velocity=100 time=0
the msg is note_off channel=0 note=74 velocity=0 time=12
the msg is note_on channel=0 note=74 velocity=100 time=0
the msg is note_off channel=0 note=72 velocity=0 time=12
the msg is note_on channel=0 note=72 velocity=100 time=0
the msg is note_off channel=0 note=74 velocity=0 time=25
the msg is note_on channel=0 note=74 velocity=100 time=0
the msg is note_off channel=0 note=74 velocity=0 time=12
the msg is note_on channel=0 note=74 velocity=100 time=0
the msg is note_off channel=0 note=74 velocity=0 time=12
the msg is note_on channel=0 note=74 velocity=100 time=0
the msg is note_off channel=0 note=74 velocity=0 time=25
the msg is note_on channel=0 note=74 velocity=100 time=0
the msg is note_off channel=0 note=74 velocity=0 time=25
the msg is note_on channel=0 note=74 velocity=100 time=0
the msg is note_off channel=0 note=76 velocity=0 time=25
the msg is note_on channel=0 note=76 velocity=100 time=0
the msg is note_off channel=0 note=79 velocity=0 time=25
the msg is note_on channel=0 note=79 velocity=100 time=0
the msg is note_off channel=0 note=79 velocity=0 time=12
the msg is note_on channel=0 note=79 velocity=100 time=0
the msg is note_off channel=0 note=76 velocity=0 time=12
the msg is note_on channel=0 note=76 velocity=100 time=0
the msg is note_off channel=0 note=74 velocity=0 time=12
the msg is note_on channel=0 note=74 velocity=100 time=0
the msg is note_off channel=0 note=72 velocity=0 time=12
the msg is note_on channel=0 note=72 velocity=100 time=0
the msg is note_off channel=0 note=72 velocity=0 time=81
the msg is note_on channel=0 note=72 velocity=100 time=0
the msg is note_off channel=0 note=72 velocity=0 time=8
the msg is note_on channel=0 note=72 velocity=100 time=0
the msg is note_off channel=0 note=74 velocity=0 time=25
the msg is note_on channel=0 note=74 velocity=100 time=0
the msg is note_off channel=0 note=74 velocity=0 time=25
the msg is note_on channel=0 note=74 velocity=100 time=0
the msg is note_off channel=0 note=74 velocity=0 time=25
the msg is note_on channel=0 note=74 velocity=100 time=0
the msg is note_off channel=0 note=74 velocity=0 time=25
the msg is note_on channel=0 note=74 velocity=100 time=0
the msg is note_off channel=0 note=74 velocity=0 time=25
the msg is note_on channel=0 note=74 velocity=100 time=0
the msg is note_off channel=0 note=74 velocity=0 time=25
the msg is note_on channel=0 note=74 velocity=100 time=0
the msg is note_off channel=0 note=76 velocity=0 time=25
the msg is note_on channel=0 note=76 velocity=100 time=0
the msg is note_off channel=0 note=79 velocity=0 time=25
the msg is note_on channel=0 note=79 velocity=100 time=0
the msg is note_off channel=0 note=79 velocity=0 time=12
the msg is note_on channel=0 note=79 velocity=100 time=0
the msg is note_off channel=0 note=76 velocity=0 time=12
the msg is note_on channel=0 note=76 velocity=100 time=0
the msg is note_off channel=0 note=74 velocity=0 time=17
the msg is note_on channel=0 note=74 velocity=100 time=0
the msg is note_off channel=0 note=72 velocity=0 time=8
the msg is note_on channel=0 note=72 velocity=100 time=0
the msg is note_off channel=0 note=72 velocity=0 time=25
the msg is note_on channel=0 note=72 velocity=100 time=0
the msg is note_off channel=0 note=72 velocity=0 time=25
the msg is note_on channel=0 note=72 velocity=100 time=0
the msg is note_off channel=0 note=72 velocity=0 time=12
the msg is note_on channel=0 note=72 velocity=100 time=0
the msg is note_off channel=0 note=72 velocity=0 time=29
the msg is note_on channel=0 note=72 velocity=100 time=0
the msg is note_off channel=0 note=72 velocity=0 time=8
the msg is note_on channel=0 note=72 velocity=100 time=0
the msg is note_off channel=0 note=72 velocity=0 time=25
the msg is note_on channel=0 note=72 velocity=100 time=0
the msg is note_off channel=0 note=72 velocity=0 time=12
the msg is note_on channel=0 note=72 velocity=100 time=0
the msg is note_off channel=0 note=72 velocity=0 time=12
the msg is note_on channel=0 note=72 velocity=100 time=0
the msg is note_off channel=0 note=72 velocity=0 time=12
the msg is note_on channel=0 note=72 velocity=100 time=0
the msg is note_off channel=0 note=76 velocity=0 time=12
the msg is note_on channel=0 note=76 velocity=100 time=0
the msg is note_off channel=0 note=79 velocity=0 time=25
the msg is note_on channel=0 note=79 velocity=100 time=0
the msg is note_off channel=0 note=79 velocity=0 time=12
the msg is note_on channel=0 note=79 velocity=100 time=0
the msg is note_off channel=0 note=76 velocity=0 time=12
the msg is note_on channel=0 note=76 velocity=100 time=0
the msg is note_off channel=0 note=74 velocity=0 time=12
the msg is note_on channel=0 note=74 velocity=100 time=0
the msg is note_off channel=0 note=72 velocity=0 time=12
the msg is note_on channel=0 note=72 velocity=100 time=0
the msg is note_off channel=0 note=72 velocity=0 time=76
the msg is note_on channel=0 note=72 velocity=100 time=0
the msg is note_off channel=0 note=72 velocity=0 time=12
the msg is note_on channel=0 note=72 velocity=100 time=0
the msg is note_off channel=0 note=72 velocity=0 time=12
the msg is note_on channel=0 note=72 velocity=100 time=0
the msg is note_off channel=0 note=72 velocity=0 time=8
the msg is note_on channel=0 note=72 velocity=100 time=0
the msg is note_off channel=0 note=72 velocity=0 time=17
the msg is note_on channel=0 note=72 velocity=100 time=0
the msg is note_off channel=0 note=72 velocity=0 time=12
the msg is note_on channel=0 note=72 velocity=100 time=0
the msg is note_off channel=0 note=72 velocity=0 time=12
the msg is note_on channel=0 note=72 velocity=100 time=0
the msg is note_off channel=0 note=76 velocity=0 time=8
the msg is note_on channel=0 note=76 velocity=100 time=0
the msg is note_off channel=0 note=79 velocity=0 time=29
the msg is note_on channel=0 note=79 velocity=100 time=0
the msg is note_off channel=0 note=79 velocity=0 time=12
the msg is note_on channel=0 note=79 velocity=100 time=0
the msg is note_off channel=0 note=76 velocity=0 time=8
the msg is note_on channel=0 note=76 velocity=100 time=0
the msg is note_off channel=0 note=74 velocity=0 time=17
the msg is note_on channel=0 note=74 velocity=100 time=0
the msg is <meta message end_of_track time=51>
the msg is <meta message track_name name='Piano' time=0>
the msg is program_change channel=0 program=0 time=0
the msg is note_off channel=0 note=72 velocity=0 time=0
the msg is pitchwheel channel=0 pitch=0 time=0
the msg is program_change channel=0 program=0 time=0
the msg is <meta message set_tempo tempo=500000 time=0>
the msg is <meta message time_signature numerator=4 denominator=4 clocks_per_click=24 notated_32nd_notes_per_beat=8 time=0>
the msg is note_on channel=0 note=72 velocity=100 time=0
the msg is note_off channel=0 note=74 velocity=0 time=34
the msg is note_on channel=0 note=74 velocity=100 time=0
the msg is note_off channel=0 note=74 velocity=0 time=17
the msg is note_on channel=0 note=74 velocity=100 time=0
the msg is note_off channel=0 note=74 velocity=0 time=34
the msg is note_on channel=0 note=74 velocity=100 time=0
the msg is note_off channel=0 note=74 velocity=0 time=17
the msg is note_on channel=0 note=74 velocity=100 time=0
the msg is note_off channel=0 note=76 velocity=0 time=34
the msg is note_on channel=0 note=76 velocity=100 time=0
the msg is note_off channel=0 note=79 velocity=0 time=17
the msg is note_on channel=0 note=79 velocity=100 time=0
the msg is note_off channel=0 note=79 velocity=0 time=17
the msg is note_on channel=0 note=79 velocity=100 time=0
the msg is note_off channel=0 note=76 velocity=0 time=17
the msg is note_on channel=0 note=76 velocity=100 time=0
the msg is note_off channel=0 note=74 velocity=0 time=4
the msg is note_on channel=0 note=74 velocity=100 time=0
the msg is note_off channel=0 note=72 velocity=0 time=12
the msg is note_on channel=0 note=72 velocity=100 time=0
the msg is note_off channel=0 note=72 velocity=0 time=89
the msg is note_on channel=0 note=72 velocity=100 time=0
the msg is note_off channel=0 note=72 velocity=0 time=12
the msg is note_on channel=0 note=72 velocity=100 time=0
the msg is note_off channel=0 note=74 velocity=0 time=25
the msg is note_on channel=0 note=74 velocity=100 time=0
the msg is note_off channel=0 note=74 velocity=0 time=25
the msg is note_on channel=0 note=74 velocity=100 time=0
the msg is note_off channel=0 note=74 velocity=0 time=12
the msg is note_on channel=0 note=74 velocity=100 time=0
the msg is note_off channel=0 note=76 velocity=0 time=25
the msg is note_on channel=0 note=76 velocity=100 time=0
the msg is note_off channel=0 note=79 velocity=0 time=25
the msg is note_on channel=0 note=79 velocity=100 time=0
the msg is note_off channel=0 note=79 velocity=0 time=12
the msg is note_on channel=0 note=79 velocity=100 time=0
the msg is note_off channel=0 note=76 velocity=0 time=12
the msg is note_on channel=0 note=76 velocity=100 time=0
the msg is note_off channel=0 note=74 velocity=0 time=12
the msg is note_on channel=0 note=74 velocity=100 time=0
the msg is note_off channel=0 note=72 velocity=0 time=12
the msg is note_on channel=0 note=72 velocity=100 time=0
the msg is note_off channel=0 note=74 velocity=0 time=25
the msg is note_on channel=0 note=74 velocity=100 time=0
the msg is note_off channel=0 note=76 velocity=0 time=25
the msg is note_on channel=0 note=76 velocity=100 time=0
the msg is note_off channel=0 note=79 velocity=0 time=25
the msg is note_on channel=0 note=79 velocity=100 time=0
the msg is note_off channel=0 note=79 velocity=0 time=12
the msg is note_on channel=0 note=79 velocity=100 time=0
the msg is note_off channel=0 note=76 velocity=0 time=12
the msg is note_on channel=0 note=76 velocity=100 time=0
the msg is note_off channel=0 note=74 velocity=0 time=12
the msg is note_on channel=0 note=74 velocity=100 time=0
the msg is note_off channel=0 note=72 velocity=0 time=12
the msg is note_on channel=0 note=72 velocity=100 time=0
the msg is note_off channel=0 note=74 velocity=0 time=25
the msg is note_on channel=0 note=74 velocity=100 time=0
the msg is note_off channel=0 note=74 velocity=0 time=12
the msg is note_on channel=0 note=74 velocity=100 time=0
the msg is note_off channel=0 note=74 velocity=0 time=12
the msg is note_on channel=0 note=74 velocity=100 time=0
the msg is note_off channel=0 note=74 velocity=0 time=25
the msg is note_on channel=0 note=74 velocity=100 time=0
the msg is note_off channel=0 note=74 velocity=0 time=25
the msg is note_on channel=0 note=74 velocity=100 time=0
the msg is note_off channel=0 note=76 velocity=0 time=25
the msg is note_on channel=0 note=76 velocity=100 time=0
the msg is note_off channel=0 note=79 velocity=0 time=25
the msg is note_on channel=0 note=79 velocity=100 time=0
the msg is note_off channel=0 note=79 velocity=0 time=12
the msg is note_on channel=0 note=79 velocity=100 time=0
the msg is note_off channel=0 note=76 velocity=0 time=12
the msg is note_on channel=0 note=76 velocity=100 time=0
the msg is note_off channel=0 note=74 velocity=0 time=12
the msg is note_on channel=0 note=74 velocity=100 time=0
the msg is note_off channel=0 note=72 velocity=0 time=12
the msg is note_on channel=0 note=72 velocity=100 time=0
the msg is note_off channel=0 note=72 velocity=0 time=81
the msg is note_on channel=0 note=72 velocity=100 time=0
the msg is note_off channel=0 note=72 velocity=0 time=8
the msg is note_on channel=0 note=72 velocity=100 time=0
the msg is note_off channel=0 note=74 velocity=0 time=25
the msg is note_on channel=0 note=74 velocity=100 time=0
the msg is note_off channel=0 note=74 velocity=0 time=25
the msg is note_on channel=0 note=74 velocity=100 time=0
the msg is note_off channel=0 note=74 velocity=0 time=25
the msg is note_on channel=0 note=74 velocity=100 time=0
the msg is note_off channel=0 note=74 velocity=0 time=25
the msg is note_on channel=0 note=74 velocity=100 time=0
the msg is note_off channel=0 note=74 velocity=0 time=25
the msg is note_on channel=0 note=74 velocity=100 time=0
the msg is note_off channel=0 note=74 velocity=0 time=25
the msg is note_on channel=0 note=74 velocity=100 time=0
the msg is note_off channel=0 note=76 velocity=0 time=25
the msg is note_on channel=0 note=76 velocity=100 time=0
the msg is note_off channel=0 note=79 velocity=0 time=25
the msg is note_on channel=0 note=79 velocity=100 time=0
the msg is note_off channel=0 note=79 velocity=0 time=12
the msg is note_on channel=0 note=79 velocity=100 time=0
the msg is note_off channel=0 note=76 velocity=0 time=12
the msg is note_on channel=0 note=76 velocity=100 time=0
the msg is note_off channel=0 note=74 velocity=0 time=17
the msg is note_on channel=0 note=74 velocity=100 time=0
the msg is note_off channel=0 note=72 velocity=0 time=8
the msg is note_on channel=0 note=72 velocity=100 time=0
the msg is note_off channel=0 note=72 velocity=0 time=25
the msg is note_on channel=0 note=72 velocity=100 time=0
the msg is note_off channel=0 note=72 velocity=0 time=25
the msg is note_on channel=0 note=72 velocity=100 time=0
the msg is note_off channel=0 note=72 velocity=0 time=12
the msg is note_on channel=0 note=72 velocity=100 time=0
the msg is note_off channel=0 note=72 velocity=0 time=29
the msg is note_on channel=0 note=72 velocity=100 time=0
the msg is note_off channel=0 note=72 velocity=0 time=8
the msg is note_on channel=0 note=72 velocity=100 time=0
the msg is note_off channel=0 note=72 velocity=0 time=25
the msg is note_on channel=0 note=72 velocity=100 time=0
the msg is note_off channel=0 note=72 velocity=0 time=12
the msg is note_on channel=0 note=72 velocity=100 time=0
the msg is note_off channel=0 note=72 velocity=0 time=12
the msg is note_on channel=0 note=72 velocity=100 time=0
the msg is note_off channel=0 note=72 velocity=0 time=12
the msg is note_on channel=0 note=72 velocity=100 time=0
the msg is note_off channel=0 note=76 velocity=0 time=12
the msg is note_on channel=0 note=76 velocity=100 time=0
the msg is note_off channel=0 note=79 velocity=0 time=25
the msg is note_on channel=0 note=79 velocity=100 time=0
the msg is note_off channel=0 note=79 velocity=0 time=12
the msg is note_on channel=0 note=79 velocity=100 time=0
the msg is note_off channel=0 note=76 velocity=0 time=12
the msg is note_on channel=0 note=76 velocity=100 time=0
the msg is note_off channel=0 note=74 velocity=0 time=12
the msg is note_on channel=0 note=74 velocity=100 time=0
the msg is note_off channel=0 note=72 velocity=0 time=12
the msg is note_on channel=0 note=72 velocity=100 time=0
the msg is note_off channel=0 note=72 velocity=0 time=76
the msg is note_on channel=0 note=72 velocity=100 time=0
the msg is note_off channel=0 note=72 velocity=0 time=12
the msg is note_on channel=0 note=72 velocity=100 time=0
the msg is note_off channel=0 note=72 velocity=0 time=12
the msg is note_on channel=0 note=72 velocity=100 time=0
the msg is note_off channel=0 note=72 velocity=0 time=8
the msg is note_on channel=0 note=72 velocity=100 time=0
the msg is note_off channel=0 note=72 velocity=0 time=17
the msg is note_on channel=0 note=72 velocity=100 time=0
the msg is note_off channel=0 note=72 velocity=0 time=12
the msg is note_on channel=0 note=72 velocity=100 time=0
the msg is note_off channel=0 note=72 velocity=0 time=12
the msg is note_on channel=0 note=72 velocity=100 time=0
the msg is note_off channel=0 note=76 velocity=0 time=8
the msg is note_on channel=0 note=76 velocity=100 time=0
the msg is note_off channel=0 note=79 velocity=0 time=29
the msg is note_on channel=0 note=79 velocity=100 time=0
the msg is note_off channel=0 note=79 velocity=0 time=12
the msg is note_on channel=0 note=79 velocity=100 time=0
the msg is note_off channel=0 note=76 velocity=0 time=8
the msg is note_on channel=0 note=76 velocity=100 time=0
the msg is note_off channel=0 note=74 velocity=0 time=17
the msg is note_on channel=0 note=74 velocity=100 time=0
the msg is <meta message end_of_track time=51>
the msg is <meta message track_name name='Piano' time=0>
the msg is program_change channel=0 program=0 time=0
the msg is note_off channel=0 note=72 velocity=0 time=0
the msg is pitchwheel channel=0 pitch=0 time=0
the msg is program_change channel=0 program=0 time=0
the msg is <meta message set_tempo tempo=500000 time=0>
the msg is <meta message time_signature numerator=4 denominator=4 clocks_per_click=24 notated_32nd_notes_per_beat=8 time=0>
the msg is note_on channel=0 note=72 velocity=100 time=0
the msg is note_off channel=0 note=74 velocity=0 time=34
the msg is note_on channel=0 note=74 velocity=100 time=0
the msg is note_off channel=0 note=74 velocity=0 time=17
the msg is note_on channel=0 note=74 velocity=100 time=0
the msg is note_off channel=0 note=74 velocity=0 time=34
the msg is note_on channel=0 note=74 velocity=100 time=0
the msg is note_off channel=0 note=74 velocity=0 time=17
the msg is note_on channel=0 note=74 velocity=100 time=0
the msg is note_off channel=0 note=76 velocity=0 time=34
the msg is note_on channel=0 note=76 velocity=100 time=0
the msg is note_off channel=0 note=79 velocity=0 time=17
the msg is note_on channel=0 note=79 velocity=100 time=0
the msg is note_off channel=0 note=79 velocity=0 time=17
the msg is note_on channel=0 note=79 velocity=100 time=0
the msg is note_off channel=0 note=76 velocity=0 time=17
the msg is note_on channel=0 note=76 velocity=100 time=0
the msg is note_off channel=0 note=74 velocity=0 time=4
the msg is note_on channel=0 note=74 velocity=100 time=0
the msg is note_off channel=0 note=72 velocity=0 time=12
the msg is note_on channel=0 note=72 velocity=100 time=0
the msg is note_off channel=0 note=72 velocity=0 time=89
the msg is note_on channel=0 note=72 velocity=100 time=0
the msg is note_off channel=0 note=72 velocity=0 time=12
the msg is note_on channel=0 note=72 velocity=100 time=0
the msg is note_off channel=0 note=74 velocity=0 time=25
the msg is note_on channel=0 note=74 velocity=100 time=0
the msg is note_off channel=0 note=74 velocity=0 time=25
the msg is note_on channel=0 note=74 velocity=100 time=0
the msg is note_off channel=0 note=74 velocity=0 time=12
the msg is note_on channel=0 note=74 velocity=100 time=0
the msg is note_off channel=0 note=76 velocity=0 time=25
the msg is note_on channel=0 note=76 velocity=100 time=0
the msg is note_off channel=0 note=79 velocity=0 time=25
the msg is note_on channel=0 note=79 velocity=100 time=0
the msg is note_off channel=0 note=79 velocity=0 time=12
the msg is note_on channel=0 note=79 velocity=100 time=0
the msg is note_off channel=0 note=76 velocity=0 time=12
the msg is note_on channel=0 note=76 velocity=100 time=0
the msg is note_off channel=0 note=74 velocity=0 time=12
the msg is note_on channel=0 note=74 velocity=100 time=0
the msg is note_off channel=0 note=72 velocity=0 time=12
the msg is note_on channel=0 note=72 velocity=100 time=0
the msg is note_off channel=0 note=74 velocity=0 time=25
the msg is note_on channel=0 note=74 velocity=100 time=0
the msg is note_off channel=0 note=76 velocity=0 time=25
the msg is note_on channel=0 note=76 velocity=100 time=0
the msg is note_off channel=0 note=79 velocity=0 time=25
the msg is note_on channel=0 note=79 velocity=100 time=0
the msg is note_off channel=0 note=79 velocity=0 time=12
the msg is note_on channel=0 note=79 velocity=100 time=0
the msg is note_off channel=0 note=76 velocity=0 time=12
the msg is note_on channel=0 note=76 velocity=100 time=0
the msg is note_off channel=0 note=74 velocity=0 time=12
the msg is note_on channel=0 note=74 velocity=100 time=0
the msg is note_off channel=0 note=72 velocity=0 time=12
the msg is note_on channel=0 note=72 velocity=100 time=0
the msg is note_off channel=0 note=74 velocity=0 time=25
the msg is note_on channel=0 note=74 velocity=100 time=0
the msg is note_off channel=0 note=74 velocity=0 time=12
the msg is note_on channel=0 note=74 velocity=100 time=0
the msg is note_off channel=0 note=74 velocity=0 time=12
the msg is note_on channel=0 note=74 velocity=100 time=0
the msg is note_off channel=0 note=74 velocity=0 time=25
the msg is note_on channel=0 note=74 velocity=100 time=0
the msg is note_off channel=0 note=74 velocity=0 time=25
the msg is note_on channel=0 note=74 velocity=100 time=0
the msg is note_off channel=0 note=76 velocity=0 time=25
the msg is note_on channel=0 note=76 velocity=100 time=0
the msg is note_off channel=0 note=79 velocity=0 time=25
the msg is note_on channel=0 note=79 velocity=100 time=0
the msg is note_off channel=0 note=79 velocity=0 time=12
the msg is note_on channel=0 note=79 velocity=100 time=0
the msg is note_off channel=0 note=76 velocity=0 time=12
the msg is note_on channel=0 note=76 velocity=100 time=0
the msg is note_off channel=0 note=74 velocity=0 time=12
the msg is note_on channel=0 note=74 velocity=100 time=0
the msg is note_off channel=0 note=72 velocity=0 time=12
the msg is note_on channel=0 note=72 velocity=100 time=0
the msg is note_off channel=0 note=72 velocity=0 time=81
the msg is note_on channel=0 note=72 velocity=100 time=0
the msg is note_off channel=0 note=72 velocity=0 time=8
the msg is note_on channel=0 note=72 velocity=100 time=0
the msg is note_off channel=0 note=74 velocity=0 time=25
the msg is note_on channel=0 note=74 velocity=100 time=0
the msg is note_off channel=0 note=74 velocity=0 time=25
the msg is note_on channel=0 note=74 velocity=100 time=0
the msg is note_off channel=0 note=74 velocity=0 time=25
the msg is note_on channel=0 note=74 velocity=100 time=0
the msg is note_off channel=0 note=74 velocity=0 time=25
the msg is note_on channel=0 note=74 velocity=100 time=0
the msg is note_off channel=0 note=74 velocity=0 time=25
the msg is note_on channel=0 note=74 velocity=100 time=0
the msg is note_off channel=0 note=74 velocity=0 time=25
the msg is note_on channel=0 note=74 velocity=100 time=0
the msg is note_off channel=0 note=76 velocity=0 time=25
the msg is note_on channel=0 note=76 velocity=100 time=0
the msg is note_off channel=0 note=79 velocity=0 time=25
the msg is note_on channel=0 note=79 velocity=100 time=0
the msg is note_off channel=0 note=79 velocity=0 time=12
the msg is note_on channel=0 note=79 velocity=100 time=0
the msg is note_off channel=0 note=76 velocity=0 time=12
the msg is note_on channel=0 note=76 velocity=100 time=0
the msg is note_off channel=0 note=74 velocity=0 time=17
the msg is note_on channel=0 note=74 velocity=100 time=0
the msg is note_off channel=0 note=72 velocity=0 time=8
the msg is note_on channel=0 note=72 velocity=100 time=0
the msg is note_off channel=0 note=72 velocity=0 time=25
the msg is note_on channel=0 note=72 velocity=100 time=0
the msg is note_off channel=0 note=72 velocity=0 time=25
the msg is note_on channel=0 note=72 velocity=100 time=0
the msg is note_off channel=0 note=72 velocity=0 time=12
the msg is note_on channel=0 note=72 velocity=100 time=0
the msg is note_off channel=0 note=72 velocity=0 time=29
the msg is note_on channel=0 note=72 velocity=100 time=0
the msg is note_off channel=0 note=72 velocity=0 time=8
the msg is note_on channel=0 note=72 velocity=100 time=0
the msg is note_off channel=0 note=72 velocity=0 time=25
the msg is note_on channel=0 note=72 velocity=100 time=0
the msg is note_off channel=0 note=72 velocity=0 time=12
the msg is note_on channel=0 note=72 velocity=100 time=0
the msg is note_off channel=0 note=72 velocity=0 time=12
the msg is note_on channel=0 note=72 velocity=100 time=0
the msg is note_off channel=0 note=72 velocity=0 time=12
the msg is note_on channel=0 note=72 velocity=100 time=0
the msg is note_off channel=0 note=76 velocity=0 time=12
the msg is note_on channel=0 note=76 velocity=100 time=0
the msg is note_off channel=0 note=79 velocity=0 time=25
the msg is note_on channel=0 note=79 velocity=100 time=0
the msg is note_off channel=0 note=79 velocity=0 time=12
the msg is note_on channel=0 note=79 velocity=100 time=0
the msg is note_off channel=0 note=76 velocity=0 time=12
the msg is note_on channel=0 note=76 velocity=100 time=0
the msg is note_off channel=0 note=74 velocity=0 time=12
the msg is note_on channel=0 note=74 velocity=100 time=0
the msg is note_off channel=0 note=72 velocity=0 time=12
the msg is note_on channel=0 note=72 velocity=100 time=0
the msg is note_off channel=0 note=72 velocity=0 time=76
the msg is note_on channel=0 note=72 velocity=100 time=0
the msg is note_off channel=0 note=72 velocity=0 time=12
the msg is note_on channel=0 note=72 velocity=100 time=0
the msg is note_off channel=0 note=72 velocity=0 time=12
the msg is note_on channel=0 note=72 velocity=100 time=0
the msg is note_off channel=0 note=72 velocity=0 time=8
the msg is note_on channel=0 note=72 velocity=100 time=0
the msg is note_off channel=0 note=72 velocity=0 time=17
the msg is note_on channel=0 note=72 velocity=100 time=0
the msg is note_off channel=0 note=72 velocity=0 time=12
the msg is note_on channel=0 note=72 velocity=100 time=0
the msg is note_off channel=0 note=72 velocity=0 time=12
the msg is note_on channel=0 note=72 velocity=100 time=0
the msg is note_off channel=0 note=76 velocity=0 time=8
the msg is note_on channel=0 note=76 velocity=100 time=0
the msg is note_off channel=0 note=79 velocity=0 time=29
the msg is note_on channel=0 note=79 velocity=100 time=0
the msg is note_off channel=0 note=79 velocity=0 time=12
the msg is note_on channel=0 note=79 velocity=100 time=0
the msg is note_off channel=0 note=76 velocity=0 time=8
the msg is note_on channel=0 note=76 velocity=100 time=0
the msg is note_off channel=0 note=74 velocity=0 time=17
the msg is note_on channel=0 note=74 velocity=100 time=0
the msg is <meta message end_of_track time=51>
the msg is <meta message track_name name='Piano' time=0>
the msg is program_change channel=0 program=0 time=0
the msg is note_off channel=0 note=72 velocity=0 time=0
the msg is pitchwheel channel=0 pitch=0 time=0
the msg is program_change channel=0 program=0 time=0
the msg is <meta message set_tempo tempo=500000 time=0>
the msg is <meta message time_signature numerator=4 denominator=4 clocks_per_click=24 notated_32nd_notes_per_beat=8 time=0>
the msg is note_on channel=0 note=72 velocity=100 time=0
the msg is note_off channel=0 note=74 velocity=0 time=34
the msg is note_on channel=0 note=74 velocity=100 time=0
the msg is note_off channel=0 note=74 velocity=0 time=17
the msg is note_on channel=0 note=74 velocity=100 time=0
the msg is note_off channel=0 note=74 velocity=0 time=34
the msg is note_on channel=0 note=74 velocity=100 time=0
the msg is note_off channel=0 note=74 velocity=0 time=17
the msg is note_on channel=0 note=74 velocity=100 time=0
the msg is note_off channel=0 note=76 velocity=0 time=34
the msg is note_on channel=0 note=76 velocity=100 time=0
the msg is note_off channel=0 note=79 velocity=0 time=17
the msg is note_on channel=0 note=79 velocity=100 time=0
the msg is note_off channel=0 note=79 velocity=0 time=17
the msg is note_on channel=0 note=79 velocity=100 time=0
the msg is note_off channel=0 note=76 velocity=0 time=17
the msg is note_on channel=0 note=76 velocity=100 time=0
the msg is note_off channel=0 note=74 velocity=0 time=4
the msg is note_on channel=0 note=74 velocity=100 time=0
the msg is note_off channel=0 note=72 velocity=0 time=12
the msg is note_on channel=0 note=72 velocity=100 time=0
the msg is note_off channel=0 note=72 velocity=0 time=89
the msg is note_on channel=0 note=72 velocity=100 time=0
the msg is note_off channel=0 note=72 velocity=0 time=12
the msg is note_on channel=0 note=72 velocity=100 time=0
the msg is note_off channel=0 note=74 velocity=0 time=25
the msg is note_on channel=0 note=74 velocity=100 time=0
the msg is note_off channel=0 note=74 velocity=0 time=25
the msg is note_on channel=0 note=74 velocity=100 time=0
the msg is note_off channel=0 note=74 velocity=0 time=12
the msg is note_on channel=0 note=74 velocity=100 time=0
the msg is note_off channel=0 note=76 velocity=0 time=25
the msg is note_on channel=0 note=76 velocity=100 time=0
the msg is note_off channel=0 note=79 velocity=0 time=25
the msg is note_on channel=0 note=79 velocity=100 time=0
the msg is note_off channel=0 note=79 velocity=0 time=12
the msg is note_on channel=0 note=79 velocity=100 time=0
the msg is note_off channel=0 note=76 velocity=0 time=12
the msg is note_on channel=0 note=76 velocity=100 time=0
the msg is note_off channel=0 note=74 velocity=0 time=12
the msg is note_on channel=0 note=74 velocity=100 time=0
the msg is note_off channel=0 note=72 velocity=0 time=12
the msg is note_on channel=0 note=72 velocity=100 time=0
the msg is note_off channel=0 note=74 velocity=0 time=25
the msg is note_on channel=0 note=74 velocity=100 time=0
the msg is note_off channel=0 note=76 velocity=0 time=25
the msg is note_on channel=0 note=76 velocity=100 time=0
the msg is note_off channel=0 note=79 velocity=0 time=25
the msg is note_on channel=0 note=79 velocity=100 time=0
the msg is note_off channel=0 note=79 velocity=0 time=12
the msg is note_on channel=0 note=79 velocity=100 time=0
the msg is note_off channel=0 note=76 velocity=0 time=12
the msg is note_on channel=0 note=76 velocity=100 time=0
the msg is note_off channel=0 note=74 velocity=0 time=12
the msg is note_on channel=0 note=74 velocity=100 time=0
the msg is note_off channel=0 note=72 velocity=0 time=12
the msg is note_on channel=0 note=72 velocity=100 time=0
the msg is note_off channel=0 note=74 velocity=0 time=25
the msg is note_on channel=0 note=74 velocity=100 time=0
the msg is note_off channel=0 note=74 velocity=0 time=12
the msg is note_on channel=0 note=74 velocity=100 time=0
the msg is note_off channel=0 note=74 velocity=0 time=12
the msg is note_on channel=0 note=74 velocity=100 time=0
the msg is note_off channel=0 note=74 velocity=0 time=25
the msg is note_on channel=0 note=74 velocity=100 time=0
the msg is note_off channel=0 note=74 velocity=0 time=25
the msg is note_on channel=0 note=74 velocity=100 time=0
the msg is note_off channel=0 note=76 velocity=0 time=25
the msg is note_on channel=0 note=76 velocity=100 time=0
the msg is note_off channel=0 note=79 velocity=0 time=25
the msg is note_on channel=0 note=79 velocity=100 time=0
the msg is note_off channel=0 note=79 velocity=0 time=12
the msg is note_on channel=0 note=79 velocity=100 time=0
the msg is note_off channel=0 note=76 velocity=0 time=12
the msg is note_on channel=0 note=76 velocity=100 time=0
the msg is note_off channel=0 note=74 velocity=0 time=12
the msg is note_on channel=0 note=74 velocity=100 time=0
the msg is note_off channel=0 note=72 velocity=0 time=12
the msg is note_on channel=0 note=72 velocity=100 time=0
the msg is note_off channel=0 note=72 velocity=0 time=81
the msg is note_on channel=0 note=72 velocity=100 time=0
the msg is note_off channel=0 note=72 velocity=0 time=8
the msg is note_on channel=0 note=72 velocity=100 time=0
the msg is note_off channel=0 note=74 velocity=0 time=25
the msg is note_on channel=0 note=74 velocity=100 time=0
the msg is note_off channel=0 note=74 velocity=0 time=25
the msg is note_on channel=0 note=74 velocity=100 time=0
the msg is note_off channel=0 note=74 velocity=0 time=25
the msg is note_on channel=0 note=74 velocity=100 time=0
the msg is note_off channel=0 note=74 velocity=0 time=25
the msg is note_on channel=0 note=74 velocity=100 time=0
the msg is note_off channel=0 note=74 velocity=0 time=25
the msg is note_on channel=0 note=74 velocity=100 time=0
the msg is note_off channel=0 note=74 velocity=0 time=25
the msg is note_on channel=0 note=74 velocity=100 time=0
the msg is note_off channel=0 note=76 velocity=0 time=25
the msg is note_on channel=0 note=76 velocity=100 time=0
the msg is note_off channel=0 note=79 velocity=0 time=25
the msg is note_on channel=0 note=79 velocity=100 time=0
the msg is note_off channel=0 note=79 velocity=0 time=12
the msg is note_on channel=0 note=79 velocity=100 time=0
the msg is note_off channel=0 note=76 velocity=0 time=12
the msg is note_on channel=0 note=76 velocity=100 time=0
the msg is note_off channel=0 note=74 velocity=0 time=17
the msg is note_on channel=0 note=74 velocity=100 time=0
the msg is note_off channel=0 note=72 velocity=0 time=8
the msg is note_on channel=0 note=72 velocity=100 time=0
the msg is note_off channel=0 note=72 velocity=0 time=25
the msg is note_on channel=0 note=72 velocity=100 time=0
the msg is note_off channel=0 note=72 velocity=0 time=25
the msg is note_on channel=0 note=72 velocity=100 time=0
the msg is note_off channel=0 note=72 velocity=0 time=12
the msg is note_on channel=0 note=72 velocity=100 time=0
the msg is note_off channel=0 note=72 velocity=0 time=29
the msg is note_on channel=0 note=72 velocity=100 time=0
the msg is note_off channel=0 note=72 velocity=0 time=8
the msg is note_on channel=0 note=72 velocity=100 time=0
the msg is note_off channel=0 note=72 velocity=0 time=25
the msg is note_on channel=0 note=72 velocity=100 time=0
the msg is note_off channel=0 note=72 velocity=0 time=12
the msg is note_on channel=0 note=72 velocity=100 time=0
the msg is note_off channel=0 note=72 velocity=0 time=12
the msg is note_on channel=0 note=72 velocity=100 time=0
the msg is note_off channel=0 note=72 velocity=0 time=12
the msg is note_on channel=0 note=72 velocity=100 time=0
the msg is note_off channel=0 note=76 velocity=0 time=12
the msg is note_on channel=0 note=76 velocity=100 time=0
the msg is note_off channel=0 note=79 velocity=0 time=25
the msg is note_on channel=0 note=79 velocity=100 time=0
the msg is note_off channel=0 note=79 velocity=0 time=12
the msg is note_on channel=0 note=79 velocity=100 time=0
the msg is note_off channel=0 note=76 velocity=0 time=12
the msg is note_on channel=0 note=76 velocity=100 time=0
the msg is note_off channel=0 note=74 velocity=0 time=12
the msg is note_on channel=0 note=74 velocity=100 time=0
the msg is note_off channel=0 note=72 velocity=0 time=12
the msg is note_on channel=0 note=72 velocity=100 time=0
the msg is note_off channel=0 note=72 velocity=0 time=76
the msg is note_on channel=0 note=72 velocity=100 time=0
the msg is note_off channel=0 note=72 velocity=0 time=12
the msg is note_on channel=0 note=72 velocity=100 time=0
the msg is note_off channel=0 note=72 velocity=0 time=12
the msg is note_on channel=0 note=72 velocity=100 time=0
the msg is note_off channel=0 note=72 velocity=0 time=8
the msg is note_on channel=0 note=72 velocity=100 time=0
the msg is note_off channel=0 note=72 velocity=0 time=17
the msg is note_on channel=0 note=72 velocity=100 time=0
the msg is note_off channel=0 note=72 velocity=0 time=12
the msg is note_on channel=0 note=72 velocity=100 time=0
the msg is note_off channel=0 note=72 velocity=0 time=12
the msg is note_on channel=0 note=72 velocity=100 time=0
the msg is note_off channel=0 note=76 velocity=0 time=8
the msg is note_on channel=0 note=76 velocity=100 time=0
the msg is note_off channel=0 note=79 velocity=0 time=29
the msg is note_on channel=0 note=79 velocity=100 time=0
the msg is note_off channel=0 note=79 velocity=0 time=12
the msg is note_on channel=0 note=79 velocity=100 time=0
the msg is note_off channel=0 note=76 velocity=0 time=8
the msg is note_on channel=0 note=76 velocity=100 time=0
the msg is note_off channel=0 note=74 velocity=0 time=17
the msg is note_on channel=0 note=74 velocity=100 time=0
the msg is <meta message end_of_track time=51>
the msg is <meta message track_name name='Piano' time=0>
the msg is program_change channel=0 program=0 time=0
the msg is note_off channel=0 note=72 velocity=0 time=0
the msg is pitchwheel channel=0 pitch=0 time=0
the msg is program_change channel=0 program=0 time=0
the msg is <meta message set_tempo tempo=500000 time=0>
the msg is <meta message time_signature numerator=4 denominator=4 clocks_per_click=24 notated_32nd_notes_per_beat=8 time=0>
the msg is note_on channel=0 note=72 velocity=100 time=0
the msg is note_off channel=0 note=74 velocity=0 time=34
the msg is note_on channel=0 note=74 velocity=100 time=0
the msg is note_off channel=0 note=74 velocity=0 time=17
the msg is note_on channel=0 note=74 velocity=100 time=0
the msg is note_off channel=0 note=74 velocity=0 time=34
the msg is note_on channel=0 note=74 velocity=100 time=0
the msg is note_off channel=0 note=74 velocity=0 time=17
the msg is note_on channel=0 note=74 velocity=100 time=0
the msg is note_off channel=0 note=76 velocity=0 time=34
the msg is note_on channel=0 note=76 velocity=100 time=0
the msg is note_off channel=0 note=79 velocity=0 time=17
the msg is note_on channel=0 note=79 velocity=100 time=0
the msg is note_off channel=0 note=79 velocity=0 time=17
the msg is note_on channel=0 note=79 velocity=100 time=0
the msg is note_off channel=0 note=76 velocity=0 time=17
the msg is note_on channel=0 note=76 velocity=100 time=0
the msg is note_off channel=0 note=74 velocity=0 time=4
the msg is note_on channel=0 note=74 velocity=100 time=0
the msg is note_off channel=0 note=72 velocity=0 time=12
the msg is note_on channel=0 note=72 velocity=100 time=0
the msg is note_off channel=0 note=72 velocity=0 time=89
the msg is note_on channel=0 note=72 velocity=100 time=0
the msg is note_off channel=0 note=72 velocity=0 time=12
the msg is note_on channel=0 note=72 velocity=100 time=0
the msg is note_off channel=0 note=74 velocity=0 time=25
the msg is note_on channel=0 note=74 velocity=100 time=0
the msg is note_off channel=0 note=74 velocity=0 time=25
the msg is note_on channel=0 note=74 velocity=100 time=0
the msg is note_off channel=0 note=74 velocity=0 time=12
the msg is note_on channel=0 note=74 velocity=100 time=0
the msg is note_off channel=0 note=76 velocity=0 time=25
the msg is note_on channel=0 note=76 velocity=100 time=0
the msg is note_off channel=0 note=79 velocity=0 time=25
the msg is note_on channel=0 note=79 velocity=100 time=0
the msg is note_off channel=0 note=79 velocity=0 time=12
the msg is note_on channel=0 note=79 velocity=100 time=0
the msg is note_off channel=0 note=76 velocity=0 time=12
the msg is note_on channel=0 note=76 velocity=100 time=0
the msg is note_off channel=0 note=74 velocity=0 time=12
the msg is note_on channel=0 note=74 velocity=100 time=0
the msg is note_off channel=0 note=72 velocity=0 time=12
the msg is note_on channel=0 note=72 velocity=100 time=0
the msg is note_off channel=0 note=74 velocity=0 time=25
the msg is note_on channel=0 note=74 velocity=100 time=0
the msg is note_off channel=0 note=76 velocity=0 time=25
the msg is note_on channel=0 note=76 velocity=100 time=0
the msg is note_off channel=0 note=79 velocity=0 time=25
the msg is note_on channel=0 note=79 velocity=100 time=0
the msg is note_off channel=0 note=79 velocity=0 time=12
the msg is note_on channel=0 note=79 velocity=100 time=0
the msg is note_off channel=0 note=76 velocity=0 time=12
the msg is note_on channel=0 note=76 velocity=100 time=0
the msg is note_off channel=0 note=74 velocity=0 time=12
the msg is note_on channel=0 note=74 velocity=100 time=0
the msg is note_off channel=0 note=72 velocity=0 time=12
the msg is note_on channel=0 note=72 velocity=100 time=0
the msg is note_off channel=0 note=74 velocity=0 time=25
the msg is note_on channel=0 note=74 velocity=100 time=0
the msg is note_off channel=0 note=74 velocity=0 time=12
the msg is note_on channel=0 note=74 velocity=100 time=0
the msg is note_off channel=0 note=74 velocity=0 time=12
the msg is note_on channel=0 note=74 velocity=100 time=0
the msg is note_off channel=0 note=74 velocity=0 time=25
the msg is note_on channel=0 note=74 velocity=100 time=0
the msg is note_off channel=0 note=74 velocity=0 time=25
the msg is note_on channel=0 note=74 velocity=100 time=0
the msg is note_off channel=0 note=76 velocity=0 time=25
the msg is note_on channel=0 note=76 velocity=100 time=0
the msg is note_off channel=0 note=79 velocity=0 time=25
the msg is note_on channel=0 note=79 velocity=100 time=0
the msg is note_off channel=0 note=79 velocity=0 time=12
the msg is note_on channel=0 note=79 velocity=100 time=0
the msg is note_off channel=0 note=76 velocity=0 time=12
the msg is note_on channel=0 note=76 velocity=100 time=0
the msg is note_off channel=0 note=74 velocity=0 time=12
the msg is note_on channel=0 note=74 velocity=100 time=0
the msg is note_off channel=0 note=72 velocity=0 time=12
the msg is note_on channel=0 note=72 velocity=100 time=0
the msg is note_off channel=0 note=72 velocity=0 time=81
the msg is note_on channel=0 note=72 velocity=100 time=0
the msg is note_off channel=0 note=72 velocity=0 time=8
the msg is note_on channel=0 note=72 velocity=100 time=0
the msg is note_off channel=0 note=74 velocity=0 time=25
the msg is note_on channel=0 note=74 velocity=100 time=0
the msg is note_off channel=0 note=74 velocity=0 time=25
the msg is note_on channel=0 note=74 velocity=100 time=0
the msg is note_off channel=0 note=74 velocity=0 time=25
the msg is note_on channel=0 note=74 velocity=100 time=0
the msg is note_off channel=0 note=74 velocity=0 time=25
the msg is note_on channel=0 note=74 velocity=100 time=0
the msg is note_off channel=0 note=74 velocity=0 time=25
the msg is note_on channel=0 note=74 velocity=100 time=0
the msg is note_off channel=0 note=74 velocity=0 time=25
the msg is note_on channel=0 note=74 velocity=100 time=0
the msg is note_off channel=0 note=76 velocity=0 time=25
the msg is note_on channel=0 note=76 velocity=100 time=0
the msg is note_off channel=0 note=79 velocity=0 time=25
the msg is note_on channel=0 note=79 velocity=100 time=0
the msg is note_off channel=0 note=79 velocity=0 time=12
the msg is note_on channel=0 note=79 velocity=100 time=0
the msg is note_off channel=0 note=76 velocity=0 time=12
the msg is note_on channel=0 note=76 velocity=100 time=0
the msg is note_off channel=0 note=74 velocity=0 time=17
the msg is note_on channel=0 note=74 velocity=100 time=0
the msg is note_off channel=0 note=72 velocity=0 time=8
the msg is note_on channel=0 note=72 velocity=100 time=0
the msg is note_off channel=0 note=72 velocity=0 time=25
the msg is note_on channel=0 note=72 velocity=100 time=0
the msg is note_off channel=0 note=72 velocity=0 time=25
the msg is note_on channel=0 note=72 velocity=100 time=0
the msg is note_off channel=0 note=72 velocity=0 time=12
the msg is note_on channel=0 note=72 velocity=100 time=0
the msg is note_off channel=0 note=72 velocity=0 time=29
the msg is note_on channel=0 note=72 velocity=100 time=0
the msg is note_off channel=0 note=72 velocity=0 time=8
the msg is note_on channel=0 note=72 velocity=100 time=0
the msg is note_off channel=0 note=72 velocity=0 time=25
the msg is note_on channel=0 note=72 velocity=100 time=0
the msg is note_off channel=0 note=72 velocity=0 time=12
the msg is note_on channel=0 note=72 velocity=100 time=0
the msg is note_off channel=0 note=72 velocity=0 time=12
the msg is note_on channel=0 note=72 velocity=100 time=0
the msg is note_off channel=0 note=72 velocity=0 time=12
the msg is note_on channel=0 note=72 velocity=100 time=0
the msg is note_off channel=0 note=76 velocity=0 time=12
the msg is note_on channel=0 note=76 velocity=100 time=0
the msg is note_off channel=0 note=79 velocity=0 time=25
the msg is note_on channel=0 note=79 velocity=100 time=0
the msg is note_off channel=0 note=79 velocity=0 time=12
the msg is note_on channel=0 note=79 velocity=100 time=0
the msg is note_off channel=0 note=76 velocity=0 time=12
the msg is note_on channel=0 note=76 velocity=100 time=0
the msg is note_off channel=0 note=74 velocity=0 time=12
the msg is note_on channel=0 note=74 velocity=100 time=0
the msg is note_off channel=0 note=72 velocity=0 time=12
the msg is note_on channel=0 note=72 velocity=100 time=0
the msg is note_off channel=0 note=72 velocity=0 time=76
the msg is note_on channel=0 note=72 velocity=100 time=0
the msg is note_off channel=0 note=72 velocity=0 time=12
the msg is note_on channel=0 note=72 velocity=100 time=0
the msg is note_off channel=0 note=72 velocity=0 time=12
the msg is note_on channel=0 note=72 velocity=100 time=0
the msg is note_off channel=0 note=72 velocity=0 time=8
the msg is note_on channel=0 note=72 velocity=100 time=0
the msg is note_off channel=0 note=72 velocity=0 time=17
the msg is note_on channel=0 note=72 velocity=100 time=0
the msg is note_off channel=0 note=72 velocity=0 time=12
the msg is note_on channel=0 note=72 velocity=100 time=0
the msg is note_off channel=0 note=72 velocity=0 time=12
the msg is note_on channel=0 note=72 velocity=100 time=0
the msg is note_off channel=0 note=76 velocity=0 time=8
the msg is note_on channel=0 note=76 velocity=100 time=0
the msg is note_off channel=0 note=79 velocity=0 time=29
the msg is note_on channel=0 note=79 velocity=100 time=0
the msg is note_off channel=0 note=79 velocity=0 time=12
the msg is note_on channel=0 note=79 velocity=100 time=0
the msg is note_off channel=0 note=76 velocity=0 time=8
the msg is note_on channel=0 note=76 velocity=100 time=0
the msg is note_off channel=0 note=74 velocity=0 time=17
the msg is note_on channel=0 note=74 velocity=100 time=0
the msg is <meta message end_of_track time=51>
the msg is <meta message track_name name='Piano' time=0>
the msg is program_change channel=0 program=0 time=0
the msg is note_off channel=0 note=72 velocity=0 time=0
the msg is pitchwheel channel=0 pitch=0 time=0
the msg is program_change channel=0 program=0 time=0
the msg is <meta message set_tempo tempo=500000 time=0>
the msg is <meta message time_signature numerator=4 denominator=4 clocks_per_click=24 notated_32nd_notes_per_beat=8 time=0>
the msg is note_on channel=0 note=72 velocity=100 time=0
the msg is note_off channel=0 note=74 velocity=0 time=34
the msg is note_on channel=0 note=74 velocity=100 time=0
the msg is note_off channel=0 note=74 velocity=0 time=17
the msg is note_on channel=0 note=74 velocity=100 time=0
the msg is note_off channel=0 note=74 velocity=0 time=34
the msg is note_on channel=0 note=74 velocity=100 time=0
the msg is note_off channel=0 note=74 velocity=0 time=17
the msg is note_on channel=0 note=74 velocity=100 time=0
the msg is note_off channel=0 note=76 velocity=0 time=34
the msg is note_on channel=0 note=76 velocity=100 time=0
the msg is note_off channel=0 note=79 velocity=0 time=17
the msg is note_on channel=0 note=79 velocity=100 time=0
the msg is note_off channel=0 note=79 velocity=0 time=17
the msg is note_on channel=0 note=79 velocity=100 time=0
the msg is note_off channel=0 note=76 velocity=0 time=17
the msg is note_on channel=0 note=76 velocity=100 time=0
the msg is note_off channel=0 note=74 velocity=0 time=4
the msg is note_on channel=0 note=74 velocity=100 time=0
the msg is note_off channel=0 note=72 velocity=0 time=12
the msg is note_on channel=0 note=72 velocity=100 time=0
the msg is note_off channel=0 note=72 velocity=0 time=89
the msg is note_on channel=0 note=72 velocity=100 time=0
the msg is note_off channel=0 note=72 velocity=0 time=12
the msg is note_on channel=0 note=72 velocity=100 time=0
the msg is note_off channel=0 note=74 velocity=0 time=25
the msg is note_on channel=0 note=74 velocity=100 time=0
the msg is note_off channel=0 note=74 velocity=0 time=25
the msg is note_on channel=0 note=74 velocity=100 time=0
the msg is note_off channel=0 note=74 velocity=0 time=12
the msg is note_on channel=0 note=74 velocity=100 time=0
the msg is note_off channel=0 note=76 velocity=0 time=25
the msg is note_on channel=0 note=76 velocity=100 time=0
the msg is note_off channel=0 note=79 velocity=0 time=25
the msg is note_on channel=0 note=79 velocity=100 time=0
the msg is note_off channel=0 note=79 velocity=0 time=12
the msg is note_on channel=0 note=79 velocity=100 time=0
the msg is note_off channel=0 note=76 velocity=0 time=12
the msg is note_on channel=0 note=76 velocity=100 time=0
the msg is note_off channel=0 note=74 velocity=0 time=12
the msg is note_on channel=0 note=74 velocity=100 time=0
the msg is note_off channel=0 note=72 velocity=0 time=12
the msg is note_on channel=0 note=72 velocity=100 time=0
the msg is note_off channel=0 note=74 velocity=0 time=25
the msg is note_on channel=0 note=74 velocity=100 time=0
the msg is note_off channel=0 note=76 velocity=0 time=25
the msg is note_on channel=0 note=76 velocity=100 time=0
the msg is note_off channel=0 note=79 velocity=0 time=25
the msg is note_on channel=0 note=79 velocity=100 time=0
the msg is note_off channel=0 note=79 velocity=0 time=12
the msg is note_on channel=0 note=79 velocity=100 time=0
the msg is note_off channel=0 note=76 velocity=0 time=12
the msg is note_on channel=0 note=76 velocity=100 time=0
the msg is note_off channel=0 note=74 velocity=0 time=12
the msg is note_on channel=0 note=74 velocity=100 time=0
the msg is note_off channel=0 note=72 velocity=0 time=12
the msg is note_on channel=0 note=72 velocity=100 time=0
the msg is note_off channel=0 note=74 velocity=0 time=25
the msg is note_on channel=0 note=74 velocity=100 time=0
the msg is note_off channel=0 note=74 velocity=0 time=12
the msg is note_on channel=0 note=74 velocity=100 time=0
the msg is note_off channel=0 note=74 velocity=0 time=12
the msg is note_on channel=0 note=74 velocity=100 time=0
the msg is note_off channel=0 note=74 velocity=0 time=25
the msg is note_on channel=0 note=74 velocity=100 time=0
the msg is note_off channel=0 note=74 velocity=0 time=25
the msg is note_on channel=0 note=74 velocity=100 time=0
the msg is note_off channel=0 note=76 velocity=0 time=25
the msg is note_on channel=0 note=76 velocity=100 time=0
the msg is note_off channel=0 note=79 velocity=0 time=25
the msg is note_on channel=0 note=79 velocity=100 time=0
the msg is note_off channel=0 note=79 velocity=0 time=12
the msg is note_on channel=0 note=79 velocity=100 time=0
the msg is note_off channel=0 note=76 velocity=0 time=12
the msg is note_on channel=0 note=76 velocity=100 time=0
the msg is note_off channel=0 note=74 velocity=0 time=12
the msg is note_on channel=0 note=74 velocity=100 time=0
the msg is note_off channel=0 note=72 velocity=0 time=12
the msg is note_on channel=0 note=72 velocity=100 time=0
the msg is note_off channel=0 note=72 velocity=0 time=81
the msg is note_on channel=0 note=72 velocity=100 time=0
the msg is note_off channel=0 note=72 velocity=0 time=8
the msg is note_on channel=0 note=72 velocity=100 time=0
the msg is note_off channel=0 note=74 velocity=0 time=25
the msg is note_on channel=0 note=74 velocity=100 time=0
the msg is note_off channel=0 note=74 velocity=0 time=25
the msg is note_on channel=0 note=74 velocity=100 time=0
the msg is note_off channel=0 note=74 velocity=0 time=25
the msg is note_on channel=0 note=74 velocity=100 time=0
the msg is note_off channel=0 note=74 velocity=0 time=25
the msg is note_on channel=0 note=74 velocity=100 time=0
the msg is note_off channel=0 note=74 velocity=0 time=25
the msg is note_on channel=0 note=74 velocity=100 time=0
the msg is note_off channel=0 note=74 velocity=0 time=25
the msg is note_on channel=0 note=74 velocity=100 time=0
the msg is note_off channel=0 note=76 velocity=0 time=25
the msg is note_on channel=0 note=76 velocity=100 time=0
the msg is note_off channel=0 note=79 velocity=0 time=25
the msg is note_on channel=0 note=79 velocity=100 time=0
the msg is note_off channel=0 note=79 velocity=0 time=12
the msg is note_on channel=0 note=79 velocity=100 time=0
the msg is note_off channel=0 note=76 velocity=0 time=12
the msg is note_on channel=0 note=76 velocity=100 time=0
the msg is note_off channel=0 note=74 velocity=0 time=17
the msg is note_on channel=0 note=74 velocity=100 time=0
the msg is note_off channel=0 note=72 velocity=0 time=8
the msg is note_on channel=0 note=72 velocity=100 time=0
the msg is note_off channel=0 note=72 velocity=0 time=25
the msg is note_on channel=0 note=72 velocity=100 time=0
the msg is note_off channel=0 note=72 velocity=0 time=25
the msg is note_on channel=0 note=72 velocity=100 time=0
the msg is note_off channel=0 note=72 velocity=0 time=12
the msg is note_on channel=0 note=72 velocity=100 time=0
the msg is note_off channel=0 note=72 velocity=0 time=29
the msg is note_on channel=0 note=72 velocity=100 time=0
the msg is note_off channel=0 note=72 velocity=0 time=8
the msg is note_on channel=0 note=72 velocity=100 time=0
the msg is note_off channel=0 note=72 velocity=0 time=25
the msg is note_on channel=0 note=72 velocity=100 time=0
the msg is note_off channel=0 note=72 velocity=0 time=12
the msg is note_on channel=0 note=72 velocity=100 time=0
the msg is note_off channel=0 note=72 velocity=0 time=12
the msg is note_on channel=0 note=72 velocity=100 time=0
the msg is note_off channel=0 note=72 velocity=0 time=12
the msg is note_on channel=0 note=72 velocity=100 time=0
the msg is note_off channel=0 note=76 velocity=0 time=12
the msg is note_on channel=0 note=76 velocity=100 time=0
the msg is note_off channel=0 note=79 velocity=0 time=25
the msg is note_on channel=0 note=79 velocity=100 time=0
the msg is note_off channel=0 note=79 velocity=0 time=12
the msg is note_on channel=0 note=79 velocity=100 time=0
the msg is note_off channel=0 note=76 velocity=0 time=12
the msg is note_on channel=0 note=76 velocity=100 time=0
the msg is note_off channel=0 note=74 velocity=0 time=12
the msg is note_on channel=0 note=74 velocity=100 time=0
the msg is note_off channel=0 note=72 velocity=0 time=12
the msg is note_on channel=0 note=72 velocity=100 time=0
the msg is note_off channel=0 note=72 velocity=0 time=76
the msg is note_on channel=0 note=72 velocity=100 time=0
the msg is note_off channel=0 note=72 velocity=0 time=12
the msg is note_on channel=0 note=72 velocity=100 time=0
the msg is note_off channel=0 note=72 velocity=0 time=12
the msg is note_on channel=0 note=72 velocity=100 time=0
the msg is note_off channel=0 note=72 velocity=0 time=8
the msg is note_on channel=0 note=72 velocity=100 time=0
the msg is note_off channel=0 note=72 velocity=0 time=17
the msg is note_on channel=0 note=72 velocity=100 time=0
the msg is note_off channel=0 note=72 velocity=0 time=12
the msg is note_on channel=0 note=72 velocity=100 time=0
the msg is note_off channel=0 note=72 velocity=0 time=12
the msg is note_on channel=0 note=72 velocity=100 time=0
the msg is note_off channel=0 note=76 velocity=0 time=8
the msg is note_on channel=0 note=76 velocity=100 time=0
the msg is note_off channel=0 note=79 velocity=0 time=29
the msg is note_on channel=0 note=79 velocity=100 time=0
the msg is note_off channel=0 note=79 velocity=0 time=12
the msg is note_on channel=0 note=79 velocity=100 time=0
the msg is note_off channel=0 note=76 velocity=0 time=8
the msg is note_on channel=0 note=76 velocity=100 time=0
the msg is note_off channel=0 note=74 velocity=0 time=17
the msg is note_on channel=0 note=74 velocity=100 time=0
the msg is <meta message end_of_track time=51>
the msg is <meta message track_name name='Piano' time=0>
the msg is program_change channel=0 program=0 time=0
the msg is note_off channel=0 note=72 velocity=0 time=0
the msg is pitchwheel channel=0 pitch=0 time=0
the msg is program_change channel=0 program=0 time=0
the msg is <meta message set_tempo tempo=500000 time=0>
the msg is <meta message time_signature numerator=4 denominator=4 clocks_per_click=24 notated_32nd_notes_per_beat=8 time=0>
the msg is note_on channel=0 note=72 velocity=100 time=0
the msg is note_off channel=0 note=74 velocity=0 time=34
the msg is note_on channel=0 note=74 velocity=100 time=0
the msg is note_off channel=0 note=74 velocity=0 time=17
the msg is note_on channel=0 note=74 velocity=100 time=0
the msg is note_off channel=0 note=74 velocity=0 time=34
the msg is note_on channel=0 note=74 velocity=100 time=0
the msg is note_off channel=0 note=74 velocity=0 time=17
the msg is note_on channel=0 note=74 velocity=100 time=0
the msg is note_off channel=0 note=76 velocity=0 time=34
the msg is note_on channel=0 note=76 velocity=100 time=0
the msg is note_off channel=0 note=79 velocity=0 time=17
the msg is note_on channel=0 note=79 velocity=100 time=0
the msg is note_off channel=0 note=79 velocity=0 time=17
the msg is note_on channel=0 note=79 velocity=100 time=0
the msg is note_off channel=0 note=76 velocity=0 time=17
the msg is note_on channel=0 note=76 velocity=100 time=0
the msg is note_off channel=0 note=74 velocity=0 time=4
the msg is note_on channel=0 note=74 velocity=100 time=0
the msg is note_off channel=0 note=72 velocity=0 time=12
the msg is note_on channel=0 note=72 velocity=100 time=0
the msg is note_off channel=0 note=72 velocity=0 time=89
the msg is note_on channel=0 note=72 velocity=100 time=0
the msg is note_off channel=0 note=72 velocity=0 time=12
the msg is note_on channel=0 note=72 velocity=100 time=0
the msg is note_off channel=0 note=74 velocity=0 time=25
the msg is note_on channel=0 note=74 velocity=100 time=0
the msg is note_off channel=0 note=74 velocity=0 time=25
the msg is note_on channel=0 note=74 velocity=100 time=0
the msg is note_off channel=0 note=74 velocity=0 time=12
the msg is note_on channel=0 note=74 velocity=100 time=0
the msg is note_off channel=0 note=76 velocity=0 time=25
the msg is note_on channel=0 note=76 velocity=100 time=0
the msg is note_off channel=0 note=79 velocity=0 time=25
the msg is note_on channel=0 note=79 velocity=100 time=0
the msg is note_off channel=0 note=79 velocity=0 time=12
the msg is note_on channel=0 note=79 velocity=100 time=0
the msg is note_off channel=0 note=76 velocity=0 time=12
the msg is note_on channel=0 note=76 velocity=100 time=0
the msg is note_off channel=0 note=74 velocity=0 time=12
the msg is note_on channel=0 note=74 velocity=100 time=0
the msg is note_off channel=0 note=72 velocity=0 time=12
the msg is note_on channel=0 note=72 velocity=100 time=0
the msg is note_off channel=0 note=74 velocity=0 time=25
the msg is note_on channel=0 note=74 velocity=100 time=0
the msg is note_off channel=0 note=76 velocity=0 time=25
the msg is note_on channel=0 note=76 velocity=100 time=0
the msg is note_off channel=0 note=79 velocity=0 time=25
the msg is note_on channel=0 note=79 velocity=100 time=0
the msg is note_off channel=0 note=79 velocity=0 time=12
the msg is note_on channel=0 note=79 velocity=100 time=0
the msg is note_off channel=0 note=76 velocity=0 time=12
the msg is note_on channel=0 note=76 velocity=100 time=0
the msg is note_off channel=0 note=74 velocity=0 time=12
the msg is note_on channel=0 note=74 velocity=100 time=0
the msg is note_off channel=0 note=72 velocity=0 time=12
the msg is note_on channel=0 note=72 velocity=100 time=0
the msg is note_off channel=0 note=74 velocity=0 time=25
the msg is note_on channel=0 note=74 velocity=100 time=0
the msg is note_off channel=0 note=74 velocity=0 time=12
the msg is note_on channel=0 note=74 velocity=100 time=0
the msg is note_off channel=0 note=74 velocity=0 time=12
the msg is note_on channel=0 note=74 velocity=100 time=0
the msg is note_off channel=0 note=74 velocity=0 time=25
the msg is note_on channel=0 note=74 velocity=100 time=0
the msg is note_off channel=0 note=74 velocity=0 time=25
the msg is note_on channel=0 note=74 velocity=100 time=0
the msg is note_off channel=0 note=76 velocity=0 time=25
the msg is note_on channel=0 note=76 velocity=100 time=0
the msg is note_off channel=0 note=79 velocity=0 time=25
the msg is note_on channel=0 note=79 velocity=100 time=0
the msg is note_off channel=0 note=79 velocity=0 time=12
the msg is note_on channel=0 note=79 velocity=100 time=0
the msg is note_off channel=0 note=76 velocity=0 time=12
the msg is note_on channel=0 note=76 velocity=100 time=0
the msg is note_off channel=0 note=74 velocity=0 time=12
the msg is note_on channel=0 note=74 velocity=100 time=0
the msg is note_off channel=0 note=72 velocity=0 time=12
the msg is note_on channel=0 note=72 velocity=100 time=0
the msg is note_off channel=0 note=72 velocity=0 time=81
the msg is note_on channel=0 note=72 velocity=100 time=0
the msg is note_off channel=0 note=72 velocity=0 time=8
the msg is note_on channel=0 note=72 velocity=100 time=0
the msg is note_off channel=0 note=74 velocity=0 time=25
the msg is note_on channel=0 note=74 velocity=100 time=0
the msg is note_off channel=0 note=74 velocity=0 time=25
the msg is note_on channel=0 note=74 velocity=100 time=0
the msg is note_off channel=0 note=74 velocity=0 time=25
the msg is note_on channel=0 note=74 velocity=100 time=0
the msg is note_off channel=0 note=74 velocity=0 time=25
the msg is note_on channel=0 note=74 velocity=100 time=0
the msg is note_off channel=0 note=74 velocity=0 time=25
the msg is note_on channel=0 note=74 velocity=100 time=0
the msg is note_off channel=0 note=74 velocity=0 time=25
the msg is note_on channel=0 note=74 velocity=100 time=0
the msg is note_off channel=0 note=76 velocity=0 time=25
the msg is note_on channel=0 note=76 velocity=100 time=0
the msg is note_off channel=0 note=79 velocity=0 time=25
the msg is note_on channel=0 note=79 velocity=100 time=0
the msg is note_off channel=0 note=79 velocity=0 time=12
the msg is note_on channel=0 note=79 velocity=100 time=0
the msg is note_off channel=0 note=76 velocity=0 time=12
the msg is note_on channel=0 note=76 velocity=100 time=0
the msg is note_off channel=0 note=74 velocity=0 time=17
the msg is note_on channel=0 note=74 velocity=100 time=0
the msg is note_off channel=0 note=72 velocity=0 time=8
the msg is note_on channel=0 note=72 velocity=100 time=0
the msg is note_off channel=0 note=72 velocity=0 time=25
the msg is note_on channel=0 note=72 velocity=100 time=0
the msg is note_off channel=0 note=72 velocity=0 time=25
the msg is note_on channel=0 note=72 velocity=100 time=0
the msg is note_off channel=0 note=72 velocity=0 time=12
the msg is note_on channel=0 note=72 velocity=100 time=0
the msg is note_off channel=0 note=72 velocity=0 time=29
the msg is note_on channel=0 note=72 velocity=100 time=0
the msg is note_off channel=0 note=72 velocity=0 time=8
the msg is note_on channel=0 note=72 velocity=100 time=0
the msg is note_off channel=0 note=72 velocity=0 time=25
the msg is note_on channel=0 note=72 velocity=100 time=0
the msg is note_off channel=0 note=72 velocity=0 time=12
the msg is note_on channel=0 note=72 velocity=100 time=0
the msg is note_off channel=0 note=72 velocity=0 time=12
the msg is note_on channel=0 note=72 velocity=100 time=0
the msg is note_off channel=0 note=72 velocity=0 time=12
the msg is note_on channel=0 note=72 velocity=100 time=0
the msg is note_off channel=0 note=76 velocity=0 time=12
the msg is note_on channel=0 note=76 velocity=100 time=0
the msg is note_off channel=0 note=79 velocity=0 time=25
the msg is note_on channel=0 note=79 velocity=100 time=0
the msg is note_off channel=0 note=79 velocity=0 time=12
the msg is note_on channel=0 note=79 velocity=100 time=0
the msg is note_off channel=0 note=76 velocity=0 time=12
the msg is note_on channel=0 note=76 velocity=100 time=0
the msg is note_off channel=0 note=74 velocity=0 time=12
the msg is note_on channel=0 note=74 velocity=100 time=0
the msg is note_off channel=0 note=72 velocity=0 time=12
the msg is note_on channel=0 note=72 velocity=100 time=0
the msg is note_off channel=0 note=72 velocity=0 time=76
the msg is note_on channel=0 note=72 velocity=100 time=0
the msg is note_off channel=0 note=72 velocity=0 time=12
the msg is note_on channel=0 note=72 velocity=100 time=0
the msg is note_off channel=0 note=72 velocity=0 time=12
the msg is note_on channel=0 note=72 velocity=100 time=0
the msg is note_off channel=0 note=72 velocity=0 time=8
the msg is note_on channel=0 note=72 velocity=100 time=0
the msg is note_off channel=0 note=72 velocity=0 time=17
the msg is note_on channel=0 note=72 velocity=100 time=0
the msg is note_off channel=0 note=72 velocity=0 time=12
the msg is note_on channel=0 note=72 velocity=100 time=0
the msg is note_off channel=0 note=72 velocity=0 time=12
the msg is note_on channel=0 note=72 velocity=100 time=0
the msg is note_off channel=0 note=76 velocity=0 time=8
the msg is note_on channel=0 note=76 velocity=100 time=0
the msg is note_off channel=0 note=79 velocity=0 time=29
the msg is note_on channel=0 note=79 velocity=100 time=0
the msg is note_off channel=0 note=79 velocity=0 time=12
the msg is note_on channel=0 note=79 velocity=100 time=0
the msg is note_off channel=0 note=76 velocity=0 time=8
the msg is note_on channel=0 note=76 velocity=100 time=0
the msg is note_off channel=0 note=74 velocity=0 time=17
the msg is note_on channel=0 note=74 velocity=100 time=0
the msg is <meta message end_of_track time=51>
the msg is <meta message track_name name='Piano' time=0>
the msg is program_change channel=0 program=0 time=0
the msg is note_off channel=0 note=72 velocity=0 time=0
the msg is pitchwheel channel=0 pitch=0 time=0
the msg is program_change channel=0 program=0 time=0
the msg is <meta message set_tempo tempo=500000 time=0>
the msg is <meta message time_signature numerator=4 denominator=4 clocks_per_click=24 notated_32nd_notes_per_beat=8 time=0>
the msg is note_on channel=0 note=72 velocity=100 time=0
the msg is note_off channel=0 note=74 velocity=0 time=34
the msg is note_on channel=0 note=74 velocity=100 time=0
the msg is note_off channel=0 note=74 velocity=0 time=17
the msg is note_on channel=0 note=74 velocity=100 time=0
the msg is note_off channel=0 note=74 velocity=0 time=34
the msg is note_on channel=0 note=74 velocity=100 time=0
the msg is note_off channel=0 note=74 velocity=0 time=17
the msg is note_on channel=0 note=74 velocity=100 time=0
the msg is note_off channel=0 note=76 velocity=0 time=34
the msg is note_on channel=0 note=76 velocity=100 time=0
the msg is note_off channel=0 note=79 velocity=0 time=17
the msg is note_on channel=0 note=79 velocity=100 time=0
the msg is note_off channel=0 note=79 velocity=0 time=17
the msg is note_on channel=0 note=79 velocity=100 time=0
the msg is note_off channel=0 note=76 velocity=0 time=17
the msg is note_on channel=0 note=76 velocity=100 time=0
the msg is note_off channel=0 note=74 velocity=0 time=4
the msg is note_on channel=0 note=74 velocity=100 time=0
the msg is note_off channel=0 note=72 velocity=0 time=12
the msg is note_on channel=0 note=72 velocity=100 time=0
the msg is note_off channel=0 note=72 velocity=0 time=89
the msg is note_on channel=0 note=72 velocity=100 time=0
the msg is note_off channel=0 note=72 velocity=0 time=12
the msg is note_on channel=0 note=72 velocity=100 time=0
the msg is note_off channel=0 note=74 velocity=0 time=25
the msg is note_on channel=0 note=74 velocity=100 time=0
the msg is note_off channel=0 note=74 velocity=0 time=25
the msg is note_on channel=0 note=74 velocity=100 time=0
the msg is note_off channel=0 note=74 velocity=0 time=12
the msg is note_on channel=0 note=74 velocity=100 time=0
the msg is note_off channel=0 note=76 velocity=0 time=25
the msg is note_on channel=0 note=76 velocity=100 time=0
the msg is note_off channel=0 note=79 velocity=0 time=25
the msg is note_on channel=0 note=79 velocity=100 time=0
the msg is note_off channel=0 note=79 velocity=0 time=12
the msg is note_on channel=0 note=79 velocity=100 time=0
the msg is note_off channel=0 note=76 velocity=0 time=12
the msg is note_on channel=0 note=76 velocity=100 time=0
the msg is note_off channel=0 note=74 velocity=0 time=12
the msg is note_on channel=0 note=74 velocity=100 time=0
the msg is note_off channel=0 note=72 velocity=0 time=12
the msg is note_on channel=0 note=72 velocity=100 time=0
the msg is note_off channel=0 note=74 velocity=0 time=25
the msg is note_on channel=0 note=74 velocity=100 time=0
the msg is note_off channel=0 note=76 velocity=0 time=25
the msg is note_on channel=0 note=76 velocity=100 time=0
the msg is note_off channel=0 note=79 velocity=0 time=25
the msg is note_on channel=0 note=79 velocity=100 time=0
the msg is note_off channel=0 note=79 velocity=0 time=12
the msg is note_on channel=0 note=79 velocity=100 time=0
the msg is note_off channel=0 note=76 velocity=0 time=12
the msg is note_on channel=0 note=76 velocity=100 time=0
the msg is note_off channel=0 note=74 velocity=0 time=12
the msg is note_on channel=0 note=74 velocity=100 time=0
the msg is note_off channel=0 note=72 velocity=0 time=12
the msg is note_on channel=0 note=72 velocity=100 time=0
the msg is note_off channel=0 note=74 velocity=0 time=25
the msg is note_on channel=0 note=74 velocity=100 time=0
the msg is note_off channel=0 note=74 velocity=0 time=12
the msg is note_on channel=0 note=74 velocity=100 time=0
the msg is note_off channel=0 note=74 velocity=0 time=12
the msg is note_on channel=0 note=74 velocity=100 time=0
the msg is note_off channel=0 note=74 velocity=0 time=25
the msg is note_on channel=0 note=74 velocity=100 time=0
the msg is note_off channel=0 note=74 velocity=0 time=25
the msg is note_on channel=0 note=74 velocity=100 time=0
the msg is note_off channel=0 note=76 velocity=0 time=25
the msg is note_on channel=0 note=76 velocity=100 time=0
the msg is note_off channel=0 note=79 velocity=0 time=25
the msg is note_on channel=0 note=79 velocity=100 time=0
the msg is note_off channel=0 note=79 velocity=0 time=12
the msg is note_on channel=0 note=79 velocity=100 time=0
the msg is note_off channel=0 note=76 velocity=0 time=12
the msg is note_on channel=0 note=76 velocity=100 time=0
the msg is note_off channel=0 note=74 velocity=0 time=12
the msg is note_on channel=0 note=74 velocity=100 time=0
the msg is note_off channel=0 note=72 velocity=0 time=12
the msg is note_on channel=0 note=72 velocity=100 time=0
the msg is note_off channel=0 note=72 velocity=0 time=81
the msg is note_on channel=0 note=72 velocity=100 time=0
the msg is note_off channel=0 note=72 velocity=0 time=8
the msg is note_on channel=0 note=72 velocity=100 time=0
the msg is note_off channel=0 note=74 velocity=0 time=25
the msg is note_on channel=0 note=74 velocity=100 time=0
the msg is note_off channel=0 note=74 velocity=0 time=25
the msg is note_on channel=0 note=74 velocity=100 time=0
the msg is note_off channel=0 note=74 velocity=0 time=25
the msg is note_on channel=0 note=74 velocity=100 time=0
the msg is note_off channel=0 note=74 velocity=0 time=25
the msg is note_on channel=0 note=74 velocity=100 time=0
the msg is note_off channel=0 note=74 velocity=0 time=25
the msg is note_on channel=0 note=74 velocity=100 time=0
the msg is note_off channel=0 note=74 velocity=0 time=25
the msg is note_on channel=0 note=74 velocity=100 time=0
the msg is note_off channel=0 note=76 velocity=0 time=25
the msg is note_on channel=0 note=76 velocity=100 time=0
the msg is note_off channel=0 note=79 velocity=0 time=25
the msg is note_on channel=0 note=79 velocity=100 time=0
the msg is note_off channel=0 note=79 velocity=0 time=12
the msg is note_on channel=0 note=79 velocity=100 time=0
the msg is note_off channel=0 note=76 velocity=0 time=12
the msg is note_on channel=0 note=76 velocity=100 time=0
the msg is note_off channel=0 note=74 velocity=0 time=17
the msg is note_on channel=0 note=74 velocity=100 time=0
the msg is note_off channel=0 note=72 velocity=0 time=8
the msg is note_on channel=0 note=72 velocity=100 time=0
the msg is note_off channel=0 note=72 velocity=0 time=25
the msg is note_on channel=0 note=72 velocity=100 time=0
the msg is note_off channel=0 note=72 velocity=0 time=25
the msg is note_on channel=0 note=72 velocity=100 time=0
the msg is note_off channel=0 note=72 velocity=0 time=12
the msg is note_on channel=0 note=72 velocity=100 time=0
the msg is note_off channel=0 note=72 velocity=0 time=29
the msg is note_on channel=0 note=72 velocity=100 time=0
the msg is note_off channel=0 note=72 velocity=0 time=8
the msg is note_on channel=0 note=72 velocity=100 time=0
the msg is note_off channel=0 note=72 velocity=0 time=25
the msg is note_on channel=0 note=72 velocity=100 time=0
the msg is note_off channel=0 note=72 velocity=0 time=12
the msg is note_on channel=0 note=72 velocity=100 time=0
the msg is note_off channel=0 note=72 velocity=0 time=12
the msg is note_on channel=0 note=72 velocity=100 time=0
the msg is note_off channel=0 note=72 velocity=0 time=12
the msg is note_on channel=0 note=72 velocity=100 time=0
the msg is note_off channel=0 note=76 velocity=0 time=12
the msg is note_on channel=0 note=76 velocity=100 time=0
the msg is note_off channel=0 note=79 velocity=0 time=25
the msg is note_on channel=0 note=79 velocity=100 time=0
the msg is note_off channel=0 note=79 velocity=0 time=12
the msg is note_on channel=0 note=79 velocity=100 time=0
the msg is note_off channel=0 note=76 velocity=0 time=12
the msg is note_on channel=0 note=76 velocity=100 time=0
the msg is note_off channel=0 note=74 velocity=0 time=12
the msg is note_on channel=0 note=74 velocity=100 time=0
the msg is note_off channel=0 note=72 velocity=0 time=12
the msg is note_on channel=0 note=72 velocity=100 time=0
the msg is note_off channel=0 note=72 velocity=0 time=76
the msg is note_on channel=0 note=72 velocity=100 time=0
the msg is note_off channel=0 note=72 velocity=0 time=12
the msg is note_on channel=0 note=72 velocity=100 time=0
the msg is note_off channel=0 note=72 velocity=0 time=12
the msg is note_on channel=0 note=72 velocity=100 time=0
the msg is note_off channel=0 note=72 velocity=0 time=8
the msg is note_on channel=0 note=72 velocity=100 time=0
the msg is note_off channel=0 note=72 velocity=0 time=17
the msg is note_on channel=0 note=72 velocity=100 time=0
the msg is note_off channel=0 note=72 velocity=0 time=12
the msg is note_on channel=0 note=72 velocity=100 time=0
the msg is note_off channel=0 note=72 velocity=0 time=12
the msg is note_on channel=0 note=72 velocity=100 time=0
the msg is note_off channel=0 note=76 velocity=0 time=8
the msg is note_on channel=0 note=76 velocity=100 time=0
the msg is note_off channel=0 note=79 velocity=0 time=29
the msg is note_on channel=0 note=79 velocity=100 time=0
the msg is note_off channel=0 note=79 velocity=0 time=12
the msg is note_on channel=0 note=79 velocity=100 time=0
the msg is note_off channel=0 note=76 velocity=0 time=8
the msg is note_on channel=0 note=76 velocity=100 time=0
the msg is note_off channel=0 note=74 velocity=0 time=17
the msg is note_on channel=0 note=74 velocity=100 time=0
the msg is <meta message end_of_track time=51>
the msg is <meta message track_name name='Piano' time=0>
the msg is program_change channel=0 program=0 time=0
the msg is note_off channel=0 note=72 velocity=0 time=0
the msg is pitchwheel channel=0 pitch=0 time=0
the msg is program_change channel=0 program=0 time=0
the msg is <meta message set_tempo tempo=500000 time=0>
the msg is <meta message time_signature numerator=4 denominator=4 clocks_per_click=24 notated_32nd_notes_per_beat=8 time=0>
the msg is note_on channel=0 note=72 velocity=100 time=0
the msg is note_off channel=0 note=74 velocity=0 time=34
the msg is note_on channel=0 note=74 velocity=100 time=0
the msg is note_off channel=0 note=74 velocity=0 time=17
the msg is note_on channel=0 note=74 velocity=100 time=0
the msg is note_off channel=0 note=74 velocity=0 time=34
the msg is note_on channel=0 note=74 velocity=100 time=0
the msg is note_off channel=0 note=74 velocity=0 time=17
the msg is note_on channel=0 note=74 velocity=100 time=0
the msg is note_off channel=0 note=76 velocity=0 time=34
the msg is note_on channel=0 note=76 velocity=100 time=0
the msg is note_off channel=0 note=79 velocity=0 time=17
the msg is note_on channel=0 note=79 velocity=100 time=0
the msg is note_off channel=0 note=79 velocity=0 time=17
the msg is note_on channel=0 note=79 velocity=100 time=0
the msg is note_off channel=0 note=76 velocity=0 time=17
the msg is note_on channel=0 note=76 velocity=100 time=0
the msg is note_off channel=0 note=74 velocity=0 time=4
the msg is note_on channel=0 note=74 velocity=100 time=0
the msg is note_off channel=0 note=72 velocity=0 time=12
the msg is note_on channel=0 note=72 velocity=100 time=0
the msg is note_off channel=0 note=72 velocity=0 time=89
the msg is note_on channel=0 note=72 velocity=100 time=0
the msg is note_off channel=0 note=72 velocity=0 time=12
the msg is note_on channel=0 note=72 velocity=100 time=0
the msg is note_off channel=0 note=74 velocity=0 time=25
the msg is note_on channel=0 note=74 velocity=100 time=0
the msg is note_off channel=0 note=74 velocity=0 time=25
the msg is note_on channel=0 note=74 velocity=100 time=0
the msg is note_off channel=0 note=74 velocity=0 time=12
the msg is note_on channel=0 note=74 velocity=100 time=0
the msg is note_off channel=0 note=76 velocity=0 time=25
the msg is note_on channel=0 note=76 velocity=100 time=0
the msg is note_off channel=0 note=79 velocity=0 time=25
the msg is note_on channel=0 note=79 velocity=100 time=0
the msg is note_off channel=0 note=79 velocity=0 time=12
the msg is note_on channel=0 note=79 velocity=100 time=0
the msg is note_off channel=0 note=76 velocity=0 time=12
the msg is note_on channel=0 note=76 velocity=100 time=0
the msg is note_off channel=0 note=74 velocity=0 time=12
the msg is note_on channel=0 note=74 velocity=100 time=0
the msg is note_off channel=0 note=72 velocity=0 time=12
the msg is note_on channel=0 note=72 velocity=100 time=0
the msg is note_off channel=0 note=74 velocity=0 time=25
the msg is note_on channel=0 note=74 velocity=100 time=0
the msg is note_off channel=0 note=76 velocity=0 time=25
the msg is note_on channel=0 note=76 velocity=100 time=0
the msg is note_off channel=0 note=79 velocity=0 time=25
the msg is note_on channel=0 note=79 velocity=100 time=0
the msg is note_off channel=0 note=79 velocity=0 time=12
the msg is note_on channel=0 note=79 velocity=100 time=0
the msg is note_off channel=0 note=76 velocity=0 time=12
the msg is note_on channel=0 note=76 velocity=100 time=0
the msg is note_off channel=0 note=74 velocity=0 time=12
the msg is note_on channel=0 note=74 velocity=100 time=0
the msg is note_off channel=0 note=72 velocity=0 time=12
the msg is note_on channel=0 note=72 velocity=100 time=0
the msg is note_off channel=0 note=74 velocity=0 time=25
the msg is note_on channel=0 note=74 velocity=100 time=0
the msg is note_off channel=0 note=74 velocity=0 time=12
the msg is note_on channel=0 note=74 velocity=100 time=0
the msg is note_off channel=0 note=74 velocity=0 time=12
the msg is note_on channel=0 note=74 velocity=100 time=0
the msg is note_off channel=0 note=74 velocity=0 time=25
the msg is note_on channel=0 note=74 velocity=100 time=0
the msg is note_off channel=0 note=74 velocity=0 time=25
the msg is note_on channel=0 note=74 velocity=100 time=0
the msg is note_off channel=0 note=76 velocity=0 time=25
the msg is note_on channel=0 note=76 velocity=100 time=0
the msg is note_off channel=0 note=79 velocity=0 time=25
the msg is note_on channel=0 note=79 velocity=100 time=0
the msg is note_off channel=0 note=79 velocity=0 time=12
the msg is note_on channel=0 note=79 velocity=100 time=0
the msg is note_off channel=0 note=76 velocity=0 time=12
the msg is note_on channel=0 note=76 velocity=100 time=0
the msg is note_off channel=0 note=74 velocity=0 time=12
the msg is note_on channel=0 note=74 velocity=100 time=0
the msg is note_off channel=0 note=72 velocity=0 time=12
the msg is note_on channel=0 note=72 velocity=100 time=0
the msg is note_off channel=0 note=72 velocity=0 time=81
the msg is note_on channel=0 note=72 velocity=100 time=0
the msg is note_off channel=0 note=72 velocity=0 time=8
the msg is note_on channel=0 note=72 velocity=100 time=0
the msg is note_off channel=0 note=74 velocity=0 time=25
the msg is note_on channel=0 note=74 velocity=100 time=0
the msg is note_off channel=0 note=74 velocity=0 time=25
the msg is note_on channel=0 note=74 velocity=100 time=0
the msg is note_off channel=0 note=74 velocity=0 time=25
the msg is note_on channel=0 note=74 velocity=100 time=0
the msg is note_off channel=0 note=74 velocity=0 time=25
the msg is note_on channel=0 note=74 velocity=100 time=0
the msg is note_off channel=0 note=74 velocity=0 time=25
the msg is note_on channel=0 note=74 velocity=100 time=0
the msg is note_off channel=0 note=74 velocity=0 time=25
the msg is note_on channel=0 note=74 velocity=100 time=0
the msg is note_off channel=0 note=76 velocity=0 time=25
the msg is note_on channel=0 note=76 velocity=100 time=0
the msg is note_off channel=0 note=79 velocity=0 time=25
the msg is note_on channel=0 note=79 velocity=100 time=0
the msg is note_off channel=0 note=79 velocity=0 time=12
the msg is note_on channel=0 note=79 velocity=100 time=0
the msg is note_off channel=0 note=76 velocity=0 time=12
the msg is note_on channel=0 note=76 velocity=100 time=0
the msg is note_off channel=0 note=74 velocity=0 time=17
the msg is note_on channel=0 note=74 velocity=100 time=0
the msg is note_off channel=0 note=72 velocity=0 time=8
the msg is note_on channel=0 note=72 velocity=100 time=0
the msg is note_off channel=0 note=72 velocity=0 time=25
the msg is note_on channel=0 note=72 velocity=100 time=0
the msg is note_off channel=0 note=72 velocity=0 time=25
the msg is note_on channel=0 note=72 velocity=100 time=0
the msg is note_off channel=0 note=72 velocity=0 time=12
the msg is note_on channel=0 note=72 velocity=100 time=0
the msg is note_off channel=0 note=72 velocity=0 time=29
the msg is note_on channel=0 note=72 velocity=100 time=0
the msg is note_off channel=0 note=72 velocity=0 time=8
the msg is note_on channel=0 note=72 velocity=100 time=0
the msg is note_off channel=0 note=72 velocity=0 time=25
the msg is note_on channel=0 note=72 velocity=100 time=0
the msg is note_off channel=0 note=72 velocity=0 time=12
the msg is note_on channel=0 note=72 velocity=100 time=0
the msg is note_off channel=0 note=72 velocity=0 time=12
the msg is note_on channel=0 note=72 velocity=100 time=0
the msg is note_off channel=0 note=72 velocity=0 time=12
the msg is note_on channel=0 note=72 velocity=100 time=0
the msg is note_off channel=0 note=76 velocity=0 time=12
the msg is note_on channel=0 note=76 velocity=100 time=0
the msg is note_off channel=0 note=79 velocity=0 time=25
the msg is note_on channel=0 note=79 velocity=100 time=0
the msg is note_off channel=0 note=79 velocity=0 time=12
the msg is note_on channel=0 note=79 velocity=100 time=0
the msg is note_off channel=0 note=76 velocity=0 time=12
the msg is note_on channel=0 note=76 velocity=100 time=0
the msg is note_off channel=0 note=74 velocity=0 time=12
the msg is note_on channel=0 note=74 velocity=100 time=0
the msg is note_off channel=0 note=72 velocity=0 time=12
the msg is note_on channel=0 note=72 velocity=100 time=0
the msg is note_off channel=0 note=72 velocity=0 time=76
the msg is note_on channel=0 note=72 velocity=100 time=0
the msg is note_off channel=0 note=72 velocity=0 time=12
the msg is note_on channel=0 note=72 velocity=100 time=0
the msg is note_off channel=0 note=72 velocity=0 time=12
the msg is note_on channel=0 note=72 velocity=100 time=0
the msg is note_off channel=0 note=72 velocity=0 time=8
the msg is note_on channel=0 note=72 velocity=100 time=0
the msg is note_off channel=0 note=72 velocity=0 time=17
the msg is note_on channel=0 note=72 velocity=100 time=0
the msg is note_off channel=0 note=72 velocity=0 time=12
the msg is note_on channel=0 note=72 velocity=100 time=0
the msg is note_off channel=0 note=72 velocity=0 time=12
the msg is note_on channel=0 note=72 velocity=100 time=0
the msg is note_off channel=0 note=76 velocity=0 time=8
the msg is note_on channel=0 note=76 velocity=100 time=0
the msg is note_off channel=0 note=79 velocity=0 time=29
the msg is note_on channel=0 note=79 velocity=100 time=0
the msg is note_off channel=0 note=79 velocity=0 time=12
the msg is note_on channel=0 note=79 velocity=100 time=0
the msg is note_off channel=0 note=76 velocity=0 time=8
the msg is note_on channel=0 note=76 velocity=100 time=0
the msg is note_off channel=0 note=74 velocity=0 time=17
the msg is note_on channel=0 note=74 velocity=100 time=0
the msg is <meta message end_of_track time=51>
the msg is <meta message track_name name='Piano' time=0>
the msg is program_change channel=0 program=0 time=0
the msg is note_off channel=0 note=72 velocity=0 time=0
the msg is pitchwheel channel=0 pitch=0 time=0
the msg is program_change channel=0 program=0 time=0
the msg is <meta message set_tempo tempo=500000 time=0>
the msg is <meta message time_signature numerator=4 denominator=4 clocks_per_click=24 notated_32nd_notes_per_beat=8 time=0>
the msg is note_on channel=0 note=72 velocity=100 time=0
the msg is note_off channel=0 note=74 velocity=0 time=34
the msg is note_on channel=0 note=74 velocity=100 time=0
the msg is note_off channel=0 note=74 velocity=0 time=17
the msg is note_on channel=0 note=74 velocity=100 time=0
the msg is note_off channel=0 note=74 velocity=0 time=34
the msg is note_on channel=0 note=74 velocity=100 time=0
the msg is note_off channel=0 note=74 velocity=0 time=17
the msg is note_on channel=0 note=74 velocity=100 time=0
the msg is note_off channel=0 note=76 velocity=0 time=34
the msg is note_on channel=0 note=76 velocity=100 time=0
the msg is note_off channel=0 note=79 velocity=0 time=17
the msg is note_on channel=0 note=79 velocity=100 time=0
the msg is note_off channel=0 note=79 velocity=0 time=17
the msg is note_on channel=0 note=79 velocity=100 time=0
the msg is note_off channel=0 note=76 velocity=0 time=17
the msg is note_on channel=0 note=76 velocity=100 time=0
the msg is note_off channel=0 note=74 velocity=0 time=4
the msg is note_on channel=0 note=74 velocity=100 time=0
the msg is note_off channel=0 note=72 velocity=0 time=12
the msg is note_on channel=0 note=72 velocity=100 time=0
the msg is note_off channel=0 note=72 velocity=0 time=89
the msg is note_on channel=0 note=72 velocity=100 time=0
the msg is note_off channel=0 note=72 velocity=0 time=12
the msg is note_on channel=0 note=72 velocity=100 time=0
the msg is note_off channel=0 note=74 velocity=0 time=25
the msg is note_on channel=0 note=74 velocity=100 time=0
the msg is note_off channel=0 note=74 velocity=0 time=25
the msg is note_on channel=0 note=74 velocity=100 time=0
the msg is note_off channel=0 note=74 velocity=0 time=12
the msg is note_on channel=0 note=74 velocity=100 time=0
the msg is note_off channel=0 note=76 velocity=0 time=25
the msg is note_on channel=0 note=76 velocity=100 time=0
the msg is note_off channel=0 note=79 velocity=0 time=25
the msg is note_on channel=0 note=79 velocity=100 time=0
the msg is note_off channel=0 note=79 velocity=0 time=12
the msg is note_on channel=0 note=79 velocity=100 time=0
the msg is note_off channel=0 note=76 velocity=0 time=12
the msg is note_on channel=0 note=76 velocity=100 time=0
the msg is note_off channel=0 note=74 velocity=0 time=12
the msg is note_on channel=0 note=74 velocity=100 time=0
the msg is note_off channel=0 note=72 velocity=0 time=12
the msg is note_on channel=0 note=72 velocity=100 time=0
the msg is note_off channel=0 note=74 velocity=0 time=25
the msg is note_on channel=0 note=74 velocity=100 time=0
the msg is note_off channel=0 note=76 velocity=0 time=25
the msg is note_on channel=0 note=76 velocity=100 time=0
the msg is note_off channel=0 note=79 velocity=0 time=25
the msg is note_on channel=0 note=79 velocity=100 time=0
the msg is note_off channel=0 note=79 velocity=0 time=12
the msg is note_on channel=0 note=79 velocity=100 time=0
the msg is note_off channel=0 note=76 velocity=0 time=12
the msg is note_on channel=0 note=76 velocity=100 time=0
the msg is note_off channel=0 note=74 velocity=0 time=12
the msg is note_on channel=0 note=74 velocity=100 time=0
the msg is note_off channel=0 note=72 velocity=0 time=12
the msg is note_on channel=0 note=72 velocity=100 time=0
the msg is note_off channel=0 note=74 velocity=0 time=25
the msg is note_on channel=0 note=74 velocity=100 time=0
the msg is note_off channel=0 note=74 velocity=0 time=12
the msg is note_on channel=0 note=74 velocity=100 time=0
the msg is note_off channel=0 note=74 velocity=0 time=12
the msg is note_on channel=0 note=74 velocity=100 time=0
the msg is note_off channel=0 note=74 velocity=0 time=25
the msg is note_on channel=0 note=74 velocity=100 time=0
the msg is note_off channel=0 note=74 velocity=0 time=25
the msg is note_on channel=0 note=74 velocity=100 time=0
the msg is note_off channel=0 note=76 velocity=0 time=25
the msg is note_on channel=0 note=76 velocity=100 time=0
the msg is note_off channel=0 note=79 velocity=0 time=25
the msg is note_on channel=0 note=79 velocity=100 time=0
the msg is note_off channel=0 note=79 velocity=0 time=12
the msg is note_on channel=0 note=79 velocity=100 time=0
the msg is note_off channel=0 note=76 velocity=0 time=12
the msg is note_on channel=0 note=76 velocity=100 time=0
the msg is note_off channel=0 note=74 velocity=0 time=12
the msg is note_on channel=0 note=74 velocity=100 time=0
the msg is note_off channel=0 note=72 velocity=0 time=12
the msg is note_on channel=0 note=72 velocity=100 time=0
the msg is note_off channel=0 note=72 velocity=0 time=81
the msg is note_on channel=0 note=72 velocity=100 time=0
the msg is note_off channel=0 note=72 velocity=0 time=8
the msg is note_on channel=0 note=72 velocity=100 time=0
the msg is note_off channel=0 note=74 velocity=0 time=25
the msg is note_on channel=0 note=74 velocity=100 time=0
the msg is note_off channel=0 note=74 velocity=0 time=25
the msg is note_on channel=0 note=74 velocity=100 time=0
the msg is note_off channel=0 note=74 velocity=0 time=25
the msg is note_on channel=0 note=74 velocity=100 time=0
the msg is note_off channel=0 note=74 velocity=0 time=25
the msg is note_on channel=0 note=74 velocity=100 time=0
the msg is note_off channel=0 note=74 velocity=0 time=25
the msg is note_on channel=0 note=74 velocity=100 time=0
the msg is note_off channel=0 note=74 velocity=0 time=25
the msg is note_on channel=0 note=74 velocity=100 time=0
the msg is note_off channel=0 note=76 velocity=0 time=25
the msg is note_on channel=0 note=76 velocity=100 time=0
the msg is note_off channel=0 note=79 velocity=0 time=25
the msg is note_on channel=0 note=79 velocity=100 time=0
the msg is note_off channel=0 note=79 velocity=0 time=12
the msg is note_on channel=0 note=79 velocity=100 time=0
the msg is note_off channel=0 note=76 velocity=0 time=12
the msg is note_on channel=0 note=76 velocity=100 time=0
the msg is note_off channel=0 note=74 velocity=0 time=17
the msg is note_on channel=0 note=74 velocity=100 time=0
the msg is note_off channel=0 note=72 velocity=0 time=8
the msg is note_on channel=0 note=72 velocity=100 time=0
the msg is note_off channel=0 note=72 velocity=0 time=25
the msg is note_on channel=0 note=72 velocity=100 time=0
the msg is note_off channel=0 note=72 velocity=0 time=25
the msg is note_on channel=0 note=72 velocity=100 time=0
the msg is note_off channel=0 note=72 velocity=0 time=12
the msg is note_on channel=0 note=72 velocity=100 time=0
the msg is note_off channel=0 note=72 velocity=0 time=29
the msg is note_on channel=0 note=72 velocity=100 time=0
the msg is note_off channel=0 note=72 velocity=0 time=8
the msg is note_on channel=0 note=72 velocity=100 time=0
the msg is note_off channel=0 note=72 velocity=0 time=25
the msg is note_on channel=0 note=72 velocity=100 time=0
the msg is note_off channel=0 note=72 velocity=0 time=12
the msg is note_on channel=0 note=72 velocity=100 time=0
the msg is note_off channel=0 note=72 velocity=0 time=12
the msg is note_on channel=0 note=72 velocity=100 time=0
the msg is note_off channel=0 note=72 velocity=0 time=12
the msg is note_on channel=0 note=72 velocity=100 time=0
the msg is note_off channel=0 note=76 velocity=0 time=12
the msg is note_on channel=0 note=76 velocity=100 time=0
the msg is note_off channel=0 note=79 velocity=0 time=25
the msg is note_on channel=0 note=79 velocity=100 time=0
the msg is note_off channel=0 note=79 velocity=0 time=12
the msg is note_on channel=0 note=79 velocity=100 time=0
the msg is note_off channel=0 note=76 velocity=0 time=12
the msg is note_on channel=0 note=76 velocity=100 time=0
the msg is note_off channel=0 note=74 velocity=0 time=12
the msg is note_on channel=0 note=74 velocity=100 time=0
the msg is note_off channel=0 note=72 velocity=0 time=12
the msg is note_on channel=0 note=72 velocity=100 time=0
the msg is note_off channel=0 note=72 velocity=0 time=76
the msg is note_on channel=0 note=72 velocity=100 time=0
the msg is note_off channel=0 note=72 velocity=0 time=12
the msg is note_on channel=0 note=72 velocity=100 time=0
the msg is note_off channel=0 note=72 velocity=0 time=12
the msg is note_on channel=0 note=72 velocity=100 time=0
the msg is note_off channel=0 note=72 velocity=0 time=8
the msg is note_on channel=0 note=72 velocity=100 time=0
the msg is note_off channel=0 note=72 velocity=0 time=17
the msg is note_on channel=0 note=72 velocity=100 time=0
the msg is note_off channel=0 note=72 velocity=0 time=12
the msg is note_on channel=0 note=72 velocity=100 time=0
the msg is note_off channel=0 note=72 velocity=0 time=12
the msg is note_on channel=0 note=72 velocity=100 time=0
the msg is note_off channel=0 note=76 velocity=0 time=8
the msg is note_on channel=0 note=76 velocity=100 time=0
the msg is note_off channel=0 note=79 velocity=0 time=29
the msg is note_on channel=0 note=79 velocity=100 time=0
the msg is note_off channel=0 note=79 velocity=0 time=12
the msg is note_on channel=0 note=79 velocity=100 time=0
the msg is note_off channel=0 note=76 velocity=0 time=8
the msg is note_on channel=0 note=76 velocity=100 time=0
the msg is note_off channel=0 note=74 velocity=0 time=17
the msg is note_on channel=0 note=74 velocity=100 time=0
the msg is <meta message end_of_track time=51>
the msg is <meta message track_name name='Piano' time=0>
the msg is program_change channel=0 program=0 time=0
the msg is note_off channel=0 note=72 velocity=0 time=0
the msg is pitchwheel channel=0 pitch=0 time=0
the msg is program_change channel=0 program=0 time=0
the msg is <meta message set_tempo tempo=500000 time=0>
the msg is <meta message time_signature numerator=4 denominator=4 clocks_per_click=24 notated_32nd_notes_per_beat=8 time=0>
the msg is note_on channel=0 note=72 velocity=100 time=0
the msg is note_off channel=0 note=74 velocity=0 time=34
the msg is note_on channel=0 note=74 velocity=100 time=0
the msg is note_off channel=0 note=74 velocity=0 time=17
the msg is note_on channel=0 note=74 velocity=100 time=0
the msg is note_off channel=0 note=74 velocity=0 time=34
the msg is note_on channel=0 note=74 velocity=100 time=0
the msg is note_off channel=0 note=74 velocity=0 time=17
the msg is note_on channel=0 note=74 velocity=100 time=0
the msg is note_off channel=0 note=76 velocity=0 time=34
the msg is note_on channel=0 note=76 velocity=100 time=0
the msg is note_off channel=0 note=79 velocity=0 time=17
the msg is note_on channel=0 note=79 velocity=100 time=0
the msg is note_off channel=0 note=79 velocity=0 time=17
the msg is note_on channel=0 note=79 velocity=100 time=0
the msg is note_off channel=0 note=76 velocity=0 time=17
the msg is note_on channel=0 note=76 velocity=100 time=0
the msg is note_off channel=0 note=74 velocity=0 time=4
the msg is note_on channel=0 note=74 velocity=100 time=0
the msg is note_off channel=0 note=72 velocity=0 time=12
the msg is note_on channel=0 note=72 velocity=100 time=0
the msg is note_off channel=0 note=72 velocity=0 time=89
the msg is note_on channel=0 note=72 velocity=100 time=0
the msg is note_off channel=0 note=72 velocity=0 time=12
the msg is note_on channel=0 note=72 velocity=100 time=0
the msg is note_off channel=0 note=74 velocity=0 time=25
the msg is note_on channel=0 note=74 velocity=100 time=0
the msg is note_off channel=0 note=74 velocity=0 time=25
the msg is note_on channel=0 note=74 velocity=100 time=0
the msg is note_off channel=0 note=74 velocity=0 time=12
the msg is note_on channel=0 note=74 velocity=100 time=0
the msg is note_off channel=0 note=76 velocity=0 time=25
the msg is note_on channel=0 note=76 velocity=100 time=0
the msg is note_off channel=0 note=79 velocity=0 time=25
the msg is note_on channel=0 note=79 velocity=100 time=0
the msg is note_off channel=0 note=79 velocity=0 time=12
the msg is note_on channel=0 note=79 velocity=100 time=0
the msg is note_off channel=0 note=76 velocity=0 time=12
the msg is note_on channel=0 note=76 velocity=100 time=0
the msg is note_off channel=0 note=74 velocity=0 time=12
the msg is note_on channel=0 note=74 velocity=100 time=0
the msg is note_off channel=0 note=72 velocity=0 time=12
the msg is note_on channel=0 note=72 velocity=100 time=0
the msg is note_off channel=0 note=74 velocity=0 time=25
the msg is note_on channel=0 note=74 velocity=100 time=0
the msg is note_off channel=0 note=76 velocity=0 time=25
the msg is note_on channel=0 note=76 velocity=100 time=0
the msg is note_off channel=0 note=79 velocity=0 time=25
the msg is note_on channel=0 note=79 velocity=100 time=0
the msg is note_off channel=0 note=79 velocity=0 time=12
the msg is note_on channel=0 note=79 velocity=100 time=0
the msg is note_off channel=0 note=76 velocity=0 time=12
the msg is note_on channel=0 note=76 velocity=100 time=0
the msg is note_off channel=0 note=74 velocity=0 time=12
the msg is note_on channel=0 note=74 velocity=100 time=0
the msg is note_off channel=0 note=72 velocity=0 time=12
the msg is note_on channel=0 note=72 velocity=100 time=0
the msg is note_off channel=0 note=74 velocity=0 time=25
the msg is note_on channel=0 note=74 velocity=100 time=0
the msg is note_off channel=0 note=74 velocity=0 time=12
the msg is note_on channel=0 note=74 velocity=100 time=0
the msg is note_off channel=0 note=74 velocity=0 time=12
the msg is note_on channel=0 note=74 velocity=100 time=0
the msg is note_off channel=0 note=74 velocity=0 time=25
the msg is note_on channel=0 note=74 velocity=100 time=0
the msg is note_off channel=0 note=74 velocity=0 time=25
the msg is note_on channel=0 note=74 velocity=100 time=0
the msg is note_off channel=0 note=76 velocity=0 time=25
the msg is note_on channel=0 note=76 velocity=100 time=0
the msg is note_off channel=0 note=79 velocity=0 time=25
the msg is note_on channel=0 note=79 velocity=100 time=0
the msg is note_off channel=0 note=79 velocity=0 time=12
the msg is note_on channel=0 note=79 velocity=100 time=0
the msg is note_off channel=0 note=76 velocity=0 time=12
the msg is note_on channel=0 note=76 velocity=100 time=0
the msg is note_off channel=0 note=74 velocity=0 time=12
the msg is note_on channel=0 note=74 velocity=100 time=0
the msg is note_off channel=0 note=72 velocity=0 time=12
the msg is note_on channel=0 note=72 velocity=100 time=0
the msg is note_off channel=0 note=72 velocity=0 time=81
the msg is note_on channel=0 note=72 velocity=100 time=0
the msg is note_off channel=0 note=72 velocity=0 time=8
the msg is note_on channel=0 note=72 velocity=100 time=0
the msg is note_off channel=0 note=74 velocity=0 time=25
the msg is note_on channel=0 note=74 velocity=100 time=0
the msg is note_off channel=0 note=74 velocity=0 time=25
the msg is note_on channel=0 note=74 velocity=100 time=0
the msg is note_off channel=0 note=74 velocity=0 time=25
the msg is note_on channel=0 note=74 velocity=100 time=0
the msg is note_off channel=0 note=74 velocity=0 time=25
the msg is note_on channel=0 note=74 velocity=100 time=0
the msg is note_off channel=0 note=74 velocity=0 time=25
the msg is note_on channel=0 note=74 velocity=100 time=0
the msg is note_off channel=0 note=74 velocity=0 time=25
the msg is note_on channel=0 note=74 velocity=100 time=0
the msg is note_off channel=0 note=76 velocity=0 time=25
the msg is note_on channel=0 note=76 velocity=100 time=0
the msg is note_off channel=0 note=79 velocity=0 time=25
the msg is note_on channel=0 note=79 velocity=100 time=0
the msg is note_off channel=0 note=79 velocity=0 time=12
the msg is note_on channel=0 note=79 velocity=100 time=0
the msg is note_off channel=0 note=76 velocity=0 time=12
the msg is note_on channel=0 note=76 velocity=100 time=0
the msg is note_off channel=0 note=74 velocity=0 time=17
the msg is note_on channel=0 note=74 velocity=100 time=0
the msg is note_off channel=0 note=72 velocity=0 time=8
the msg is note_on channel=0 note=72 velocity=100 time=0
the msg is note_off channel=0 note=72 velocity=0 time=25
the msg is note_on channel=0 note=72 velocity=100 time=0
the msg is note_off channel=0 note=72 velocity=0 time=25
the msg is note_on channel=0 note=72 velocity=100 time=0
the msg is note_off channel=0 note=72 velocity=0 time=12
the msg is note_on channel=0 note=72 velocity=100 time=0
the msg is note_off channel=0 note=72 velocity=0 time=29
the msg is note_on channel=0 note=72 velocity=100 time=0
the msg is note_off channel=0 note=72 velocity=0 time=8
the msg is note_on channel=0 note=72 velocity=100 time=0
the msg is note_off channel=0 note=72 velocity=0 time=25
the msg is note_on channel=0 note=72 velocity=100 time=0
the msg is note_off channel=0 note=72 velocity=0 time=12
the msg is note_on channel=0 note=72 velocity=100 time=0
the msg is note_off channel=0 note=72 velocity=0 time=12
the msg is note_on channel=0 note=72 velocity=100 time=0
the msg is note_off channel=0 note=72 velocity=0 time=12
the msg is note_on channel=0 note=72 velocity=100 time=0
the msg is note_off channel=0 note=76 velocity=0 time=12
the msg is note_on channel=0 note=76 velocity=100 time=0
the msg is note_off channel=0 note=79 velocity=0 time=25
the msg is note_on channel=0 note=79 velocity=100 time=0
the msg is note_off channel=0 note=79 velocity=0 time=12
the msg is note_on channel=0 note=79 velocity=100 time=0
the msg is note_off channel=0 note=76 velocity=0 time=12
the msg is note_on channel=0 note=76 velocity=100 time=0
the msg is note_off channel=0 note=74 velocity=0 time=12
the msg is note_on channel=0 note=74 velocity=100 time=0
the msg is note_off channel=0 note=72 velocity=0 time=12
the msg is note_on channel=0 note=72 velocity=100 time=0
the msg is note_off channel=0 note=72 velocity=0 time=76
the msg is note_on channel=0 note=72 velocity=100 time=0
the msg is note_off channel=0 note=72 velocity=0 time=12
the msg is note_on channel=0 note=72 velocity=100 time=0
the msg is note_off channel=0 note=72 velocity=0 time=12
the msg is note_on channel=0 note=72 velocity=100 time=0
the msg is note_off channel=0 note=72 velocity=0 time=8
the msg is note_on channel=0 note=72 velocity=100 time=0
the msg is note_off channel=0 note=72 velocity=0 time=17
the msg is note_on channel=0 note=72 velocity=100 time=0
the msg is note_off channel=0 note=72 velocity=0 time=12
the msg is note_on channel=0 note=72 velocity=100 time=0
the msg is note_off channel=0 note=72 velocity=0 time=12
the msg is note_on channel=0 note=72 velocity=100 time=0
the msg is note_off channel=0 note=76 velocity=0 time=8
the msg is note_on channel=0 note=76 velocity=100 time=0
the msg is note_off channel=0 note=79 velocity=0 time=29
the msg is note_on channel=0 note=79 velocity=100 time=0
the msg is note_off channel=0 note=79 velocity=0 time=12
the msg is note_on channel=0 note=79 velocity=100 time=0
the msg is note_off channel=0 note=76 velocity=0 time=8
the msg is note_on channel=0 note=76 velocity=100 time=0
the msg is note_off channel=0 note=74 velocity=0 time=17
the msg is note_on channel=0 note=74 velocity=100 time=0
the msg is <meta message end_of_track time=51>
the msg is <meta message track_name name='Piano' time=0>
the msg is program_change channel=0 program=0 time=0
the msg is note_off channel=0 note=72 velocity=0 time=0
the msg is pitchwheel channel=0 pitch=0 time=0
the msg is program_change channel=0 program=0 time=0
the msg is <meta message set_tempo tempo=500000 time=0>
the msg is <meta message time_signature numerator=4 denominator=4 clocks_per_click=24 notated_32nd_notes_per_beat=8 time=0>
the msg is note_on channel=0 note=72 velocity=100 time=0
the msg is note_off channel=0 note=74 velocity=0 time=34
the msg is note_on channel=0 note=74 velocity=100 time=0
the msg is note_off channel=0 note=74 velocity=0 time=17
the msg is note_on channel=0 note=74 velocity=100 time=0
the msg is note_off channel=0 note=74 velocity=0 time=34
the msg is note_on channel=0 note=74 velocity=100 time=0
the msg is note_off channel=0 note=74 velocity=0 time=17
the msg is note_on channel=0 note=74 velocity=100 time=0
the msg is note_off channel=0 note=76 velocity=0 time=34
the msg is note_on channel=0 note=76 velocity=100 time=0
the msg is note_off channel=0 note=79 velocity=0 time=17
the msg is note_on channel=0 note=79 velocity=100 time=0
the msg is note_off channel=0 note=79 velocity=0 time=17
the msg is note_on channel=0 note=79 velocity=100 time=0
the msg is note_off channel=0 note=76 velocity=0 time=17
the msg is note_on channel=0 note=76 velocity=100 time=0
the msg is note_off channel=0 note=74 velocity=0 time=4
the msg is note_on channel=0 note=74 velocity=100 time=0
the msg is note_off channel=0 note=72 velocity=0 time=12
the msg is note_on channel=0 note=72 velocity=100 time=0
the msg is note_off channel=0 note=72 velocity=0 time=89
the msg is note_on channel=0 note=72 velocity=100 time=0
the msg is note_off channel=0 note=72 velocity=0 time=12
the msg is note_on channel=0 note=72 velocity=100 time=0
the msg is note_off channel=0 note=74 velocity=0 time=25
the msg is note_on channel=0 note=74 velocity=100 time=0
the msg is note_off channel=0 note=74 velocity=0 time=25
the msg is note_on channel=0 note=74 velocity=100 time=0
the msg is note_off channel=0 note=74 velocity=0 time=12
the msg is note_on channel=0 note=74 velocity=100 time=0
the msg is note_off channel=0 note=76 velocity=0 time=25
the msg is note_on channel=0 note=76 velocity=100 time=0
the msg is note_off channel=0 note=79 velocity=0 time=25
the msg is note_on channel=0 note=79 velocity=100 time=0
the msg is note_off channel=0 note=79 velocity=0 time=12
the msg is note_on channel=0 note=79 velocity=100 time=0
the msg is note_off channel=0 note=76 velocity=0 time=12
the msg is note_on channel=0 note=76 velocity=100 time=0
the msg is note_off channel=0 note=74 velocity=0 time=12
the msg is note_on channel=0 note=74 velocity=100 time=0
the msg is note_off channel=0 note=72 velocity=0 time=12
the msg is note_on channel=0 note=72 velocity=100 time=0
the msg is note_off channel=0 note=74 velocity=0 time=25
the msg is note_on channel=0 note=74 velocity=100 time=0
the msg is note_off channel=0 note=76 velocity=0 time=25
the msg is note_on channel=0 note=76 velocity=100 time=0
the msg is note_off channel=0 note=79 velocity=0 time=25
the msg is note_on channel=0 note=79 velocity=100 time=0
the msg is note_off channel=0 note=79 velocity=0 time=12
the msg is note_on channel=0 note=79 velocity=100 time=0
the msg is note_off channel=0 note=76 velocity=0 time=12
the msg is note_on channel=0 note=76 velocity=100 time=0
the msg is note_off channel=0 note=74 velocity=0 time=12
the msg is note_on channel=0 note=74 velocity=100 time=0
the msg is note_off channel=0 note=72 velocity=0 time=12
the msg is note_on channel=0 note=72 velocity=100 time=0
the msg is note_off channel=0 note=74 velocity=0 time=25
the msg is note_on channel=0 note=74 velocity=100 time=0
the msg is note_off channel=0 note=74 velocity=0 time=12
the msg is note_on channel=0 note=74 velocity=100 time=0
the msg is note_off channel=0 note=74 velocity=0 time=12
the msg is note_on channel=0 note=74 velocity=100 time=0
the msg is note_off channel=0 note=74 velocity=0 time=25
the msg is note_on channel=0 note=74 velocity=100 time=0
the msg is note_off channel=0 note=74 velocity=0 time=25
the msg is note_on channel=0 note=74 velocity=100 time=0
the msg is note_off channel=0 note=76 velocity=0 time=25
the msg is note_on channel=0 note=76 velocity=100 time=0
the msg is note_off channel=0 note=79 velocity=0 time=25
the msg is note_on channel=0 note=79 velocity=100 time=0
the msg is note_off channel=0 note=79 velocity=0 time=12
the msg is note_on channel=0 note=79 velocity=100 time=0
the msg is note_off channel=0 note=76 velocity=0 time=12
the msg is note_on channel=0 note=76 velocity=100 time=0
the msg is note_off channel=0 note=74 velocity=0 time=12
the msg is note_on channel=0 note=74 velocity=100 time=0
the msg is note_off channel=0 note=72 velocity=0 time=12
the msg is note_on channel=0 note=72 velocity=100 time=0
the msg is note_off channel=0 note=72 velocity=0 time=81
the msg is note_on channel=0 note=72 velocity=100 time=0
the msg is note_off channel=0 note=72 velocity=0 time=8
the msg is note_on channel=0 note=72 velocity=100 time=0
the msg is note_off channel=0 note=74 velocity=0 time=25
the msg is note_on channel=0 note=74 velocity=100 time=0
the msg is note_off channel=0 note=74 velocity=0 time=25
the msg is note_on channel=0 note=74 velocity=100 time=0
the msg is note_off channel=0 note=74 velocity=0 time=25
the msg is note_on channel=0 note=74 velocity=100 time=0
the msg is note_off channel=0 note=74 velocity=0 time=25
the msg is note_on channel=0 note=74 velocity=100 time=0
the msg is note_off channel=0 note=74 velocity=0 time=25
the msg is note_on channel=0 note=74 velocity=100 time=0
the msg is note_off channel=0 note=74 velocity=0 time=25
the msg is note_on channel=0 note=74 velocity=100 time=0
the msg is note_off channel=0 note=76 velocity=0 time=25
the msg is note_on channel=0 note=76 velocity=100 time=0
the msg is note_off channel=0 note=79 velocity=0 time=25
the msg is note_on channel=0 note=79 velocity=100 time=0
the msg is note_off channel=0 note=79 velocity=0 time=12
the msg is note_on channel=0 note=79 velocity=100 time=0
the msg is note_off channel=0 note=76 velocity=0 time=12
the msg is note_on channel=0 note=76 velocity=100 time=0
the msg is note_off channel=0 note=74 velocity=0 time=17
the msg is note_on channel=0 note=74 velocity=100 time=0
the msg is note_off channel=0 note=72 velocity=0 time=8
the msg is note_on channel=0 note=72 velocity=100 time=0
the msg is note_off channel=0 note=72 velocity=0 time=25
the msg is note_on channel=0 note=72 velocity=100 time=0
the msg is note_off channel=0 note=72 velocity=0 time=25
the msg is note_on channel=0 note=72 velocity=100 time=0
the msg is note_off channel=0 note=72 velocity=0 time=12
the msg is note_on channel=0 note=72 velocity=100 time=0
the msg is note_off channel=0 note=72 velocity=0 time=29
the msg is note_on channel=0 note=72 velocity=100 time=0
the msg is note_off channel=0 note=72 velocity=0 time=8
the msg is note_on channel=0 note=72 velocity=100 time=0
the msg is note_off channel=0 note=72 velocity=0 time=25
the msg is note_on channel=0 note=72 velocity=100 time=0
the msg is note_off channel=0 note=72 velocity=0 time=12
the msg is note_on channel=0 note=72 velocity=100 time=0
the msg is note_off channel=0 note=72 velocity=0 time=12
the msg is note_on channel=0 note=72 velocity=100 time=0
the msg is note_off channel=0 note=72 velocity=0 time=12
the msg is note_on channel=0 note=72 velocity=100 time=0
the msg is note_off channel=0 note=76 velocity=0 time=12
the msg is note_on channel=0 note=76 velocity=100 time=0
the msg is note_off channel=0 note=79 velocity=0 time=25
the msg is note_on channel=0 note=79 velocity=100 time=0
the msg is note_off channel=0 note=79 velocity=0 time=12
the msg is note_on channel=0 note=79 velocity=100 time=0
the msg is note_off channel=0 note=76 velocity=0 time=12
the msg is note_on channel=0 note=76 velocity=100 time=0
the msg is note_off channel=0 note=74 velocity=0 time=12
the msg is note_on channel=0 note=74 velocity=100 time=0
the msg is note_off channel=0 note=72 velocity=0 time=12
the msg is note_on channel=0 note=72 velocity=100 time=0
the msg is note_off channel=0 note=72 velocity=0 time=76
the msg is note_on channel=0 note=72 velocity=100 time=0
the msg is note_off channel=0 note=72 velocity=0 time=12
the msg is note_on channel=0 note=72 velocity=100 time=0
the msg is note_off channel=0 note=72 velocity=0 time=12
the msg is note_on channel=0 note=72 velocity=100 time=0
the msg is note_off channel=0 note=72 velocity=0 time=8
the msg is note_on channel=0 note=72 velocity=100 time=0
the msg is note_off channel=0 note=72 velocity=0 time=17
the msg is note_on channel=0 note=72 velocity=100 time=0
the msg is note_off channel=0 note=72 velocity=0 time=12
the msg is note_on channel=0 note=72 velocity=100 time=0
the msg is note_off channel=0 note=72 velocity=0 time=12
the msg is note_on channel=0 note=72 velocity=100 time=0
the msg is note_off channel=0 note=76 velocity=0 time=8
the msg is note_on channel=0 note=76 velocity=100 time=0
the msg is note_off channel=0 note=79 velocity=0 time=29
the msg is note_on channel=0 note=79 velocity=100 time=0
the msg is note_off channel=0 note=79 velocity=0 time=12
the msg is note_on channel=0 note=79 velocity=100 time=0
the msg is note_off channel=0 note=76 velocity=0 time=8
the msg is note_on channel=0 note=76 velocity=100 time=0
the msg is note_off channel=0 note=74 velocity=0 time=17
the msg is note_on channel=0 note=74 velocity=100 time=0
the msg is <meta message end_of_track time=51>
the msg is <meta message track_name name='Piano' time=0>
the msg is program_change channel=0 program=0 time=0
the msg is note_off channel=0 note=72 velocity=0 time=0
the msg is pitchwheel channel=0 pitch=0 time=0
the msg is program_change channel=0 program=0 time=0
the msg is <meta message set_tempo tempo=500000 time=0>
the msg is <meta message time_signature numerator=4 denominator=4 clocks_per_click=24 notated_32nd_notes_per_beat=8 time=0>
the msg is note_on channel=0 note=72 velocity=100 time=0
the msg is note_off channel=0 note=74 velocity=0 time=34
the msg is note_on channel=0 note=74 velocity=100 time=0
the msg is note_off channel=0 note=74 velocity=0 time=17
the msg is note_on channel=0 note=74 velocity=100 time=0
the msg is note_off channel=0 note=74 velocity=0 time=34
the msg is note_on channel=0 note=74 velocity=100 time=0
the msg is note_off channel=0 note=74 velocity=0 time=17
the msg is note_on channel=0 note=74 velocity=100 time=0
the msg is note_off channel=0 note=76 velocity=0 time=34
the msg is note_on channel=0 note=76 velocity=100 time=0
the msg is note_off channel=0 note=79 velocity=0 time=17
the msg is note_on channel=0 note=79 velocity=100 time=0
the msg is note_off channel=0 note=79 velocity=0 time=17
the msg is note_on channel=0 note=79 velocity=100 time=0
the msg is note_off channel=0 note=76 velocity=0 time=17
the msg is note_on channel=0 note=76 velocity=100 time=0
the msg is note_off channel=0 note=74 velocity=0 time=4
the msg is note_on channel=0 note=74 velocity=100 time=0
the msg is note_off channel=0 note=72 velocity=0 time=12
the msg is note_on channel=0 note=72 velocity=100 time=0
the msg is note_off channel=0 note=72 velocity=0 time=89
the msg is note_on channel=0 note=72 velocity=100 time=0
the msg is note_off channel=0 note=72 velocity=0 time=12
the msg is note_on channel=0 note=72 velocity=100 time=0
the msg is note_off channel=0 note=74 velocity=0 time=25
the msg is note_on channel=0 note=74 velocity=100 time=0
the msg is note_off channel=0 note=74 velocity=0 time=25
the msg is note_on channel=0 note=74 velocity=100 time=0
the msg is note_off channel=0 note=74 velocity=0 time=12
the msg is note_on channel=0 note=74 velocity=100 time=0
the msg is note_off channel=0 note=76 velocity=0 time=25
the msg is note_on channel=0 note=76 velocity=100 time=0
the msg is note_off channel=0 note=79 velocity=0 time=25
the msg is note_on channel=0 note=79 velocity=100 time=0
the msg is note_off channel=0 note=79 velocity=0 time=12
the msg is note_on channel=0 note=79 velocity=100 time=0
the msg is note_off channel=0 note=76 velocity=0 time=12
the msg is note_on channel=0 note=76 velocity=100 time=0
the msg is note_off channel=0 note=74 velocity=0 time=12
the msg is note_on channel=0 note=74 velocity=100 time=0
the msg is note_off channel=0 note=72 velocity=0 time=12
the msg is note_on channel=0 note=72 velocity=100 time=0
the msg is note_off channel=0 note=74 velocity=0 time=25
the msg is note_on channel=0 note=74 velocity=100 time=0
the msg is note_off channel=0 note=76 velocity=0 time=25
the msg is note_on channel=0 note=76 velocity=100 time=0
the msg is note_off channel=0 note=79 velocity=0 time=25
the msg is note_on channel=0 note=79 velocity=100 time=0
the msg is note_off channel=0 note=79 velocity=0 time=12
the msg is note_on channel=0 note=79 velocity=100 time=0
the msg is note_off channel=0 note=76 velocity=0 time=12
the msg is note_on channel=0 note=76 velocity=100 time=0
the msg is note_off channel=0 note=74 velocity=0 time=12
the msg is note_on channel=0 note=74 velocity=100 time=0
the msg is note_off channel=0 note=72 velocity=0 time=12
the msg is note_on channel=0 note=72 velocity=100 time=0
the msg is note_off channel=0 note=74 velocity=0 time=25
the msg is note_on channel=0 note=74 velocity=100 time=0
the msg is note_off channel=0 note=74 velocity=0 time=12
the msg is note_on channel=0 note=74 velocity=100 time=0
the msg is note_off channel=0 note=74 velocity=0 time=12
the msg is note_on channel=0 note=74 velocity=100 time=0
the msg is note_off channel=0 note=74 velocity=0 time=25
the msg is note_on channel=0 note=74 velocity=100 time=0
the msg is note_off channel=0 note=74 velocity=0 time=25
the msg is note_on channel=0 note=74 velocity=100 time=0
the msg is note_off channel=0 note=76 velocity=0 time=25
the msg is note_on channel=0 note=76 velocity=100 time=0
the msg is note_off channel=0 note=79 velocity=0 time=25
the msg is note_on channel=0 note=79 velocity=100 time=0
the msg is note_off channel=0 note=79 velocity=0 time=12
the msg is note_on channel=0 note=79 velocity=100 time=0
the msg is note_off channel=0 note=76 velocity=0 time=12
the msg is note_on channel=0 note=76 velocity=100 time=0
the msg is note_off channel=0 note=74 velocity=0 time=12
the msg is note_on channel=0 note=74 velocity=100 time=0
the msg is note_off channel=0 note=72 velocity=0 time=12
the msg is note_on channel=0 note=72 velocity=100 time=0
the msg is note_off channel=0 note=72 velocity=0 time=81
the msg is note_on channel=0 note=72 velocity=100 time=0
the msg is note_off channel=0 note=72 velocity=0 time=8
the msg is note_on channel=0 note=72 velocity=100 time=0
the msg is note_off channel=0 note=74 velocity=0 time=25
the msg is note_on channel=0 note=74 velocity=100 time=0
the msg is note_off channel=0 note=74 velocity=0 time=25
the msg is note_on channel=0 note=74 velocity=100 time=0
the msg is note_off channel=0 note=74 velocity=0 time=25
the msg is note_on channel=0 note=74 velocity=100 time=0
the msg is note_off channel=0 note=74 velocity=0 time=25
the msg is note_on channel=0 note=74 velocity=100 time=0
the msg is note_off channel=0 note=74 velocity=0 time=25
the msg is note_on channel=0 note=74 velocity=100 time=0
the msg is note_off channel=0 note=74 velocity=0 time=25
the msg is note_on channel=0 note=74 velocity=100 time=0
the msg is note_off channel=0 note=76 velocity=0 time=25
the msg is note_on channel=0 note=76 velocity=100 time=0
the msg is note_off channel=0 note=79 velocity=0 time=25
the msg is note_on channel=0 note=79 velocity=100 time=0
the msg is note_off channel=0 note=79 velocity=0 time=12
the msg is note_on channel=0 note=79 velocity=100 time=0
the msg is note_off channel=0 note=76 velocity=0 time=12
the msg is note_on channel=0 note=76 velocity=100 time=0
the msg is note_off channel=0 note=74 velocity=0 time=17
the msg is note_on channel=0 note=74 velocity=100 time=0
the msg is note_off channel=0 note=72 velocity=0 time=8
the msg is note_on channel=0 note=72 velocity=100 time=0
the msg is note_off channel=0 note=72 velocity=0 time=25
the msg is note_on channel=0 note=72 velocity=100 time=0
the msg is note_off channel=0 note=72 velocity=0 time=25
the msg is note_on channel=0 note=72 velocity=100 time=0
the msg is note_off channel=0 note=72 velocity=0 time=12
the msg is note_on channel=0 note=72 velocity=100 time=0
the msg is note_off channel=0 note=72 velocity=0 time=29
the msg is note_on channel=0 note=72 velocity=100 time=0
the msg is note_off channel=0 note=72 velocity=0 time=8
the msg is note_on channel=0 note=72 velocity=100 time=0
the msg is note_off channel=0 note=72 velocity=0 time=25
the msg is note_on channel=0 note=72 velocity=100 time=0
the msg is note_off channel=0 note=72 velocity=0 time=12
the msg is note_on channel=0 note=72 velocity=100 time=0
the msg is note_off channel=0 note=72 velocity=0 time=12
the msg is note_on channel=0 note=72 velocity=100 time=0
the msg is note_off channel=0 note=72 velocity=0 time=12
the msg is note_on channel=0 note=72 velocity=100 time=0
the msg is note_off channel=0 note=76 velocity=0 time=12
the msg is note_on channel=0 note=76 velocity=100 time=0
the msg is note_off channel=0 note=79 velocity=0 time=25
the msg is note_on channel=0 note=79 velocity=100 time=0
the msg is note_off channel=0 note=79 velocity=0 time=12
the msg is note_on channel=0 note=79 velocity=100 time=0
the msg is note_off channel=0 note=76 velocity=0 time=12
the msg is note_on channel=0 note=76 velocity=100 time=0
the msg is note_off channel=0 note=74 velocity=0 time=12
the msg is note_on channel=0 note=74 velocity=100 time=0
the msg is note_off channel=0 note=72 velocity=0 time=12
the msg is note_on channel=0 note=72 velocity=100 time=0
the msg is note_off channel=0 note=72 velocity=0 time=76
the msg is note_on channel=0 note=72 velocity=100 time=0
the msg is note_off channel=0 note=72 velocity=0 time=12
the msg is note_on channel=0 note=72 velocity=100 time=0
the msg is note_off channel=0 note=72 velocity=0 time=12
the msg is note_on channel=0 note=72 velocity=100 time=0
the msg is note_off channel=0 note=72 velocity=0 time=8
the msg is note_on channel=0 note=72 velocity=100 time=0
the msg is note_off channel=0 note=72 velocity=0 time=17
the msg is note_on channel=0 note=72 velocity=100 time=0
the msg is note_off channel=0 note=72 velocity=0 time=12
the msg is note_on channel=0 note=72 velocity=100 time=0
the msg is note_off channel=0 note=72 velocity=0 time=12
the msg is note_on channel=0 note=72 velocity=100 time=0
the msg is note_off channel=0 note=76 velocity=0 time=8
the msg is note_on channel=0 note=76 velocity=100 time=0
the msg is note_off channel=0 note=79 velocity=0 time=29
the msg is note_on channel=0 note=79 velocity=100 time=0
the msg is note_off channel=0 note=79 velocity=0 time=12
the msg is note_on channel=0 note=79 velocity=100 time=0
the msg is note_off channel=0 note=76 velocity=0 time=8
the msg is note_on channel=0 note=76 velocity=100 time=0
the msg is note_off channel=0 note=74 velocity=0 time=17
the msg is note_on channel=0 note=74 velocity=100 time=0
the msg is <meta message end_of_track time=51>
the msg is <meta message track_name name='Piano' time=0>
the msg is program_change channel=0 program=0 time=0
the msg is note_off channel=0 note=72 velocity=0 time=0
the msg is pitchwheel channel=0 pitch=0 time=0
the msg is program_change channel=0 program=0 time=0
the msg is <meta message set_tempo tempo=500000 time=0>
the msg is <meta message time_signature numerator=4 denominator=4 clocks_per_click=24 notated_32nd_notes_per_beat=8 time=0>
the msg is note_on channel=0 note=72 velocity=100 time=0
the msg is note_off channel=0 note=74 velocity=0 time=34
the msg is note_on channel=0 note=74 velocity=100 time=0
the msg is note_off channel=0 note=74 velocity=0 time=17
the msg is note_on channel=0 note=74 velocity=100 time=0
the msg is note_off channel=0 note=74 velocity=0 time=34
the msg is note_on channel=0 note=74 velocity=100 time=0
the msg is note_off channel=0 note=74 velocity=0 time=17
the msg is note_on channel=0 note=74 velocity=100 time=0
the msg is note_off channel=0 note=76 velocity=0 time=34
the msg is note_on channel=0 note=76 velocity=100 time=0
the msg is note_off channel=0 note=79 velocity=0 time=17
the msg is note_on channel=0 note=79 velocity=100 time=0
the msg is note_off channel=0 note=79 velocity=0 time=17
the msg is note_on channel=0 note=79 velocity=100 time=0
the msg is note_off channel=0 note=76 velocity=0 time=17
the msg is note_on channel=0 note=76 velocity=100 time=0
the msg is note_off channel=0 note=74 velocity=0 time=4
the msg is note_on channel=0 note=74 velocity=100 time=0
the msg is note_off channel=0 note=72 velocity=0 time=12
the msg is note_on channel=0 note=72 velocity=100 time=0
the msg is note_off channel=0 note=72 velocity=0 time=89
the msg is note_on channel=0 note=72 velocity=100 time=0
the msg is note_off channel=0 note=72 velocity=0 time=12
the msg is note_on channel=0 note=72 velocity=100 time=0
the msg is note_off channel=0 note=74 velocity=0 time=25
the msg is note_on channel=0 note=74 velocity=100 time=0
the msg is note_off channel=0 note=74 velocity=0 time=25
the msg is note_on channel=0 note=74 velocity=100 time=0
the msg is note_off channel=0 note=74 velocity=0 time=12
the msg is note_on channel=0 note=74 velocity=100 time=0
the msg is note_off channel=0 note=76 velocity=0 time=25
the msg is note_on channel=0 note=76 velocity=100 time=0
the msg is note_off channel=0 note=79 velocity=0 time=25
the msg is note_on channel=0 note=79 velocity=100 time=0
the msg is note_off channel=0 note=79 velocity=0 time=12
the msg is note_on channel=0 note=79 velocity=100 time=0
the msg is note_off channel=0 note=76 velocity=0 time=12
the msg is note_on channel=0 note=76 velocity=100 time=0
the msg is note_off channel=0 note=74 velocity=0 time=12
the msg is note_on channel=0 note=74 velocity=100 time=0
the msg is note_off channel=0 note=72 velocity=0 time=12
the msg is note_on channel=0 note=72 velocity=100 time=0
the msg is note_off channel=0 note=74 velocity=0 time=25
the msg is note_on channel=0 note=74 velocity=100 time=0
the msg is note_off channel=0 note=76 velocity=0 time=25
the msg is note_on channel=0 note=76 velocity=100 time=0
the msg is note_off channel=0 note=79 velocity=0 time=25
the msg is note_on channel=0 note=79 velocity=100 time=0
the msg is note_off channel=0 note=79 velocity=0 time=12
the msg is note_on channel=0 note=79 velocity=100 time=0
the msg is note_off channel=0 note=76 velocity=0 time=12
the msg is note_on channel=0 note=76 velocity=100 time=0
the msg is note_off channel=0 note=74 velocity=0 time=12
the msg is note_on channel=0 note=74 velocity=100 time=0
the msg is note_off channel=0 note=72 velocity=0 time=12
the msg is note_on channel=0 note=72 velocity=100 time=0
the msg is note_off channel=0 note=74 velocity=0 time=25
the msg is note_on channel=0 note=74 velocity=100 time=0
the msg is note_off channel=0 note=74 velocity=0 time=12
the msg is note_on channel=0 note=74 velocity=100 time=0
the msg is note_off channel=0 note=74 velocity=0 time=12
the msg is note_on channel=0 note=74 velocity=100 time=0
the msg is note_off channel=0 note=74 velocity=0 time=25
the msg is note_on channel=0 note=74 velocity=100 time=0
the msg is note_off channel=0 note=74 velocity=0 time=25
the msg is note_on channel=0 note=74 velocity=100 time=0
the msg is note_off channel=0 note=76 velocity=0 time=25
the msg is note_on channel=0 note=76 velocity=100 time=0
the msg is note_off channel=0 note=79 velocity=0 time=25
the msg is note_on channel=0 note=79 velocity=100 time=0
the msg is note_off channel=0 note=79 velocity=0 time=12
the msg is note_on channel=0 note=79 velocity=100 time=0
the msg is note_off channel=0 note=76 velocity=0 time=12
the msg is note_on channel=0 note=76 velocity=100 time=0
the msg is note_off channel=0 note=74 velocity=0 time=12
the msg is note_on channel=0 note=74 velocity=100 time=0
the msg is note_off channel=0 note=72 velocity=0 time=12
the msg is note_on channel=0 note=72 velocity=100 time=0
the msg is note_off channel=0 note=72 velocity=0 time=81
the msg is note_on channel=0 note=72 velocity=100 time=0
the msg is note_off channel=0 note=72 velocity=0 time=8
the msg is note_on channel=0 note=72 velocity=100 time=0
the msg is note_off channel=0 note=74 velocity=0 time=25
the msg is note_on channel=0 note=74 velocity=100 time=0
the msg is note_off channel=0 note=74 velocity=0 time=25
the msg is note_on channel=0 note=74 velocity=100 time=0
the msg is note_off channel=0 note=74 velocity=0 time=25
the msg is note_on channel=0 note=74 velocity=100 time=0
the msg is note_off channel=0 note=74 velocity=0 time=25
the msg is note_on channel=0 note=74 velocity=100 time=0
the msg is note_off channel=0 note=74 velocity=0 time=25
the msg is note_on channel=0 note=74 velocity=100 time=0
the msg is note_off channel=0 note=74 velocity=0 time=25
the msg is note_on channel=0 note=74 velocity=100 time=0
the msg is note_off channel=0 note=76 velocity=0 time=25
the msg is note_on channel=0 note=76 velocity=100 time=0
the msg is note_off channel=0 note=79 velocity=0 time=25
the msg is note_on channel=0 note=79 velocity=100 time=0
the msg is note_off channel=0 note=79 velocity=0 time=12
the msg is note_on channel=0 note=79 velocity=100 time=0
the msg is note_off channel=0 note=76 velocity=0 time=12
the msg is note_on channel=0 note=76 velocity=100 time=0
the msg is note_off channel=0 note=74 velocity=0 time=17
the msg is note_on channel=0 note=74 velocity=100 time=0
the msg is note_off channel=0 note=72 velocity=0 time=8
the msg is note_on channel=0 note=72 velocity=100 time=0
the msg is note_off channel=0 note=72 velocity=0 time=25
the msg is note_on channel=0 note=72 velocity=100 time=0
the msg is note_off channel=0 note=72 velocity=0 time=25
the msg is note_on channel=0 note=72 velocity=100 time=0
the msg is note_off channel=0 note=72 velocity=0 time=12
the msg is note_on channel=0 note=72 velocity=100 time=0
the msg is note_off channel=0 note=72 velocity=0 time=29
the msg is note_on channel=0 note=72 velocity=100 time=0
the msg is note_off channel=0 note=72 velocity=0 time=8
the msg is note_on channel=0 note=72 velocity=100 time=0
the msg is note_off channel=0 note=72 velocity=0 time=25
the msg is note_on channel=0 note=72 velocity=100 time=0
the msg is note_off channel=0 note=72 velocity=0 time=12
the msg is note_on channel=0 note=72 velocity=100 time=0
the msg is note_off channel=0 note=72 velocity=0 time=12
the msg is note_on channel=0 note=72 velocity=100 time=0
the msg is note_off channel=0 note=72 velocity=0 time=12
the msg is note_on channel=0 note=72 velocity=100 time=0
the msg is note_off channel=0 note=76 velocity=0 time=12
the msg is note_on channel=0 note=76 velocity=100 time=0
the msg is note_off channel=0 note=79 velocity=0 time=25
the msg is note_on channel=0 note=79 velocity=100 time=0
the msg is note_off channel=0 note=79 velocity=0 time=12
the msg is note_on channel=0 note=79 velocity=100 time=0
the msg is note_off channel=0 note=76 velocity=0 time=12
the msg is note_on channel=0 note=76 velocity=100 time=0
the msg is note_off channel=0 note=74 velocity=0 time=12
the msg is note_on channel=0 note=74 velocity=100 time=0
the msg is note_off channel=0 note=72 velocity=0 time=12
the msg is note_on channel=0 note=72 velocity=100 time=0
the msg is note_off channel=0 note=72 velocity=0 time=76
the msg is note_on channel=0 note=72 velocity=100 time=0
the msg is note_off channel=0 note=72 velocity=0 time=12
the msg is note_on channel=0 note=72 velocity=100 time=0
the msg is note_off channel=0 note=72 velocity=0 time=12
the msg is note_on channel=0 note=72 velocity=100 time=0
the msg is note_off channel=0 note=72 velocity=0 time=8
the msg is note_on channel=0 note=72 velocity=100 time=0
the msg is note_off channel=0 note=72 velocity=0 time=17
the msg is note_on channel=0 note=72 velocity=100 time=0
the msg is note_off channel=0 note=72 velocity=0 time=12
the msg is note_on channel=0 note=72 velocity=100 time=0
the msg is note_off channel=0 note=72 velocity=0 time=12
the msg is note_on channel=0 note=72 velocity=100 time=0
the msg is note_off channel=0 note=76 velocity=0 time=8
the msg is note_on channel=0 note=76 velocity=100 time=0
the msg is note_off channel=0 note=79 velocity=0 time=29
the msg is note_on channel=0 note=79 velocity=100 time=0
the msg is note_off channel=0 note=79 velocity=0 time=12
the msg is note_on channel=0 note=79 velocity=100 time=0
the msg is note_off channel=0 note=76 velocity=0 time=8
the msg is note_on channel=0 note=76 velocity=100 time=0
the msg is note_off channel=0 note=74 velocity=0 time=17
the msg is note_on channel=0 note=74 velocity=100 time=0
the msg is <meta message end_of_track time=51>
the msg is <meta message track_name name='Piano' time=0>
the msg is program_change channel=0 program=0 time=0
the msg is note_off channel=0 note=72 velocity=0 time=0
the msg is pitchwheel channel=0 pitch=0 time=0
the msg is program_change channel=0 program=0 time=0
the msg is <meta message set_tempo tempo=500000 time=0>
the msg is <meta message time_signature numerator=4 denominator=4 clocks_per_click=24 notated_32nd_notes_per_beat=8 time=0>
the msg is note_on channel=0 note=72 velocity=100 time=0
the msg is note_off channel=0 note=74 velocity=0 time=34
the msg is note_on channel=0 note=74 velocity=100 time=0
the msg is note_off channel=0 note=74 velocity=0 time=17
the msg is note_on channel=0 note=74 velocity=100 time=0
the msg is note_off channel=0 note=74 velocity=0 time=34
the msg is note_on channel=0 note=74 velocity=100 time=0
the msg is note_off channel=0 note=74 velocity=0 time=17
the msg is note_on channel=0 note=74 velocity=100 time=0
the msg is note_off channel=0 note=76 velocity=0 time=34
the msg is note_on channel=0 note=76 velocity=100 time=0
the msg is note_off channel=0 note=79 velocity=0 time=17
the msg is note_on channel=0 note=79 velocity=100 time=0
the msg is note_off channel=0 note=79 velocity=0 time=17
the msg is note_on channel=0 note=79 velocity=100 time=0
the msg is note_off channel=0 note=76 velocity=0 time=17
the msg is note_on channel=0 note=76 velocity=100 time=0
the msg is note_off channel=0 note=74 velocity=0 time=4
the msg is note_on channel=0 note=74 velocity=100 time=0
the msg is note_off channel=0 note=72 velocity=0 time=12
the msg is note_on channel=0 note=72 velocity=100 time=0
the msg is note_off channel=0 note=72 velocity=0 time=89
the msg is note_on channel=0 note=72 velocity=100 time=0
the msg is note_off channel=0 note=72 velocity=0 time=12
the msg is note_on channel=0 note=72 velocity=100 time=0
the msg is note_off channel=0 note=74 velocity=0 time=25
the msg is note_on channel=0 note=74 velocity=100 time=0
the msg is note_off channel=0 note=74 velocity=0 time=25
the msg is note_on channel=0 note=74 velocity=100 time=0
the msg is note_off channel=0 note=74 velocity=0 time=12
the msg is note_on channel=0 note=74 velocity=100 time=0
the msg is note_off channel=0 note=76 velocity=0 time=25
the msg is note_on channel=0 note=76 velocity=100 time=0
the msg is note_off channel=0 note=79 velocity=0 time=25
the msg is note_on channel=0 note=79 velocity=100 time=0
the msg is note_off channel=0 note=79 velocity=0 time=12
the msg is note_on channel=0 note=79 velocity=100 time=0
the msg is note_off channel=0 note=76 velocity=0 time=12
the msg is note_on channel=0 note=76 velocity=100 time=0
the msg is note_off channel=0 note=74 velocity=0 time=12
the msg is note_on channel=0 note=74 velocity=100 time=0
the msg is note_off channel=0 note=72 velocity=0 time=12
the msg is note_on channel=0 note=72 velocity=100 time=0
the msg is note_off channel=0 note=74 velocity=0 time=25
the msg is note_on channel=0 note=74 velocity=100 time=0
the msg is note_off channel=0 note=76 velocity=0 time=25
the msg is note_on channel=0 note=76 velocity=100 time=0
the msg is note_off channel=0 note=79 velocity=0 time=25
the msg is note_on channel=0 note=79 velocity=100 time=0
the msg is note_off channel=0 note=79 velocity=0 time=12
the msg is note_on channel=0 note=79 velocity=100 time=0
the msg is note_off channel=0 note=76 velocity=0 time=12
the msg is note_on channel=0 note=76 velocity=100 time=0
the msg is note_off channel=0 note=74 velocity=0 time=12
the msg is note_on channel=0 note=74 velocity=100 time=0
the msg is note_off channel=0 note=72 velocity=0 time=12
the msg is note_on channel=0 note=72 velocity=100 time=0
the msg is note_off channel=0 note=74 velocity=0 time=25
the msg is note_on channel=0 note=74 velocity=100 time=0
the msg is note_off channel=0 note=74 velocity=0 time=12
the msg is note_on channel=0 note=74 velocity=100 time=0
the msg is note_off channel=0 note=74 velocity=0 time=12
the msg is note_on channel=0 note=74 velocity=100 time=0
the msg is note_off channel=0 note=74 velocity=0 time=25
the msg is note_on channel=0 note=74 velocity=100 time=0
the msg is note_off channel=0 note=74 velocity=0 time=25
the msg is note_on channel=0 note=74 velocity=100 time=0
the msg is note_off channel=0 note=76 velocity=0 time=25
the msg is note_on channel=0 note=76 velocity=100 time=0
the msg is note_off channel=0 note=79 velocity=0 time=25
the msg is note_on channel=0 note=79 velocity=100 time=0
the msg is note_off channel=0 note=79 velocity=0 time=12
the msg is note_on channel=0 note=79 velocity=100 time=0
the msg is note_off channel=0 note=76 velocity=0 time=12
the msg is note_on channel=0 note=76 velocity=100 time=0
the msg is note_off channel=0 note=74 velocity=0 time=12
the msg is note_on channel=0 note=74 velocity=100 time=0
the msg is note_off channel=0 note=72 velocity=0 time=12
the msg is note_on channel=0 note=72 velocity=100 time=0
the msg is note_off channel=0 note=72 velocity=0 time=81
the msg is note_on channel=0 note=72 velocity=100 time=0
the msg is note_off channel=0 note=72 velocity=0 time=8
the msg is note_on channel=0 note=72 velocity=100 time=0
the msg is note_off channel=0 note=74 velocity=0 time=25
the msg is note_on channel=0 note=74 velocity=100 time=0
the msg is note_off channel=0 note=74 velocity=0 time=25
the msg is note_on channel=0 note=74 velocity=100 time=0
the msg is note_off channel=0 note=74 velocity=0 time=25
the msg is note_on channel=0 note=74 velocity=100 time=0
the msg is note_off channel=0 note=74 velocity=0 time=25
the msg is note_on channel=0 note=74 velocity=100 time=0
the msg is note_off channel=0 note=74 velocity=0 time=25
the msg is note_on channel=0 note=74 velocity=100 time=0
the msg is note_off channel=0 note=74 velocity=0 time=25
the msg is note_on channel=0 note=74 velocity=100 time=0
the msg is note_off channel=0 note=76 velocity=0 time=25
the msg is note_on channel=0 note=76 velocity=100 time=0
the msg is note_off channel=0 note=79 velocity=0 time=25
the msg is note_on channel=0 note=79 velocity=100 time=0
the msg is note_off channel=0 note=79 velocity=0 time=12
the msg is note_on channel=0 note=79 velocity=100 time=0
the msg is note_off channel=0 note=76 velocity=0 time=12
the msg is note_on channel=0 note=76 velocity=100 time=0
the msg is note_off channel=0 note=74 velocity=0 time=17
the msg is note_on channel=0 note=74 velocity=100 time=0
the msg is note_off channel=0 note=72 velocity=0 time=8
the msg is note_on channel=0 note=72 velocity=100 time=0
the msg is note_off channel=0 note=72 velocity=0 time=25
the msg is note_on channel=0 note=72 velocity=100 time=0
the msg is note_off channel=0 note=72 velocity=0 time=25
the msg is note_on channel=0 note=72 velocity=100 time=0
the msg is note_off channel=0 note=72 velocity=0 time=12
the msg is note_on channel=0 note=72 velocity=100 time=0
the msg is note_off channel=0 note=72 velocity=0 time=29
the msg is note_on channel=0 note=72 velocity=100 time=0
the msg is note_off channel=0 note=72 velocity=0 time=8
the msg is note_on channel=0 note=72 velocity=100 time=0
the msg is note_off channel=0 note=72 velocity=0 time=25
the msg is note_on channel=0 note=72 velocity=100 time=0
the msg is note_off channel=0 note=72 velocity=0 time=12
the msg is note_on channel=0 note=72 velocity=100 time=0
the msg is note_off channel=0 note=72 velocity=0 time=12
the msg is note_on channel=0 note=72 velocity=100 time=0
the msg is note_off channel=0 note=72 velocity=0 time=12
the msg is note_on channel=0 note=72 velocity=100 time=0
the msg is note_off channel=0 note=76 velocity=0 time=12
the msg is note_on channel=0 note=76 velocity=100 time=0
the msg is note_off channel=0 note=79 velocity=0 time=25
the msg is note_on channel=0 note=79 velocity=100 time=0
the msg is note_off channel=0 note=79 velocity=0 time=12
the msg is note_on channel=0 note=79 velocity=100 time=0
the msg is note_off channel=0 note=76 velocity=0 time=12
the msg is note_on channel=0 note=76 velocity=100 time=0
the msg is note_off channel=0 note=74 velocity=0 time=12
the msg is note_on channel=0 note=74 velocity=100 time=0
the msg is note_off channel=0 note=72 velocity=0 time=12
the msg is note_on channel=0 note=72 velocity=100 time=0
the msg is note_off channel=0 note=72 velocity=0 time=76
the msg is note_on channel=0 note=72 velocity=100 time=0
the msg is note_off channel=0 note=72 velocity=0 time=12
the msg is note_on channel=0 note=72 velocity=100 time=0
the msg is note_off channel=0 note=72 velocity=0 time=12
the msg is note_on channel=0 note=72 velocity=100 time=0
the msg is note_off channel=0 note=72 velocity=0 time=8
the msg is note_on channel=0 note=72 velocity=100 time=0
the msg is note_off channel=0 note=72 velocity=0 time=17
the msg is note_on channel=0 note=72 velocity=100 time=0
the msg is note_off channel=0 note=72 velocity=0 time=12
the msg is note_on channel=0 note=72 velocity=100 time=0
the msg is note_off channel=0 note=72 velocity=0 time=12
the msg is note_on channel=0 note=72 velocity=100 time=0
the msg is note_off channel=0 note=76 velocity=0 time=8
the msg is note_on channel=0 note=76 velocity=100 time=0
the msg is note_off channel=0 note=79 velocity=0 time=29
the msg is note_on channel=0 note=79 velocity=100 time=0
the msg is note_off channel=0 note=79 velocity=0 time=12
the msg is note_on channel=0 note=79 velocity=100 time=0
the msg is note_off channel=0 note=76 velocity=0 time=8
the msg is note_on channel=0 note=76 velocity=100 time=0
the msg is note_off channel=0 note=74 velocity=0 time=17
the msg is note_on channel=0 note=74 velocity=100 time=0
the msg is <meta message end_of_track time=51>
the msg is <meta message track_name name='Piano' time=0>
the msg is program_change channel=0 program=0 time=0
the msg is note_off channel=0 note=72 velocity=0 time=0
the msg is pitchwheel channel=0 pitch=0 time=0
the msg is program_change channel=0 program=0 time=0
the msg is <meta message set_tempo tempo=500000 time=0>
the msg is <meta message time_signature numerator=4 denominator=4 clocks_per_click=24 notated_32nd_notes_per_beat=8 time=0>
the msg is note_on channel=0 note=72 velocity=100 time=0
the msg is note_off channel=0 note=74 velocity=0 time=34
the msg is note_on channel=0 note=74 velocity=100 time=0
the msg is note_off channel=0 note=74 velocity=0 time=17
the msg is note_on channel=0 note=74 velocity=100 time=0
the msg is note_off channel=0 note=74 velocity=0 time=34
the msg is note_on channel=0 note=74 velocity=100 time=0
the msg is note_off channel=0 note=74 velocity=0 time=17
the msg is note_on channel=0 note=74 velocity=100 time=0
the msg is note_off channel=0 note=76 velocity=0 time=34
the msg is note_on channel=0 note=76 velocity=100 time=0
the msg is note_off channel=0 note=79 velocity=0 time=17
the msg is note_on channel=0 note=79 velocity=100 time=0
the msg is note_off channel=0 note=79 velocity=0 time=17
the msg is note_on channel=0 note=79 velocity=100 time=0
the msg is note_off channel=0 note=76 velocity=0 time=17
the msg is note_on channel=0 note=76 velocity=100 time=0
the msg is note_off channel=0 note=74 velocity=0 time=4
the msg is note_on channel=0 note=74 velocity=100 time=0
the msg is note_off channel=0 note=72 velocity=0 time=12
the msg is note_on channel=0 note=72 velocity=100 time=0
the msg is note_off channel=0 note=72 velocity=0 time=89
the msg is note_on channel=0 note=72 velocity=100 time=0
the msg is note_off channel=0 note=72 velocity=0 time=12
the msg is note_on channel=0 note=72 velocity=100 time=0
the msg is note_off channel=0 note=74 velocity=0 time=25
the msg is note_on channel=0 note=74 velocity=100 time=0
the msg is note_off channel=0 note=74 velocity=0 time=25
the msg is note_on channel=0 note=74 velocity=100 time=0
the msg is note_off channel=0 note=74 velocity=0 time=12
the msg is note_on channel=0 note=74 velocity=100 time=0
the msg is note_off channel=0 note=76 velocity=0 time=25
the msg is note_on channel=0 note=76 velocity=100 time=0
the msg is note_off channel=0 note=79 velocity=0 time=25
the msg is note_on channel=0 note=79 velocity=100 time=0
the msg is note_off channel=0 note=79 velocity=0 time=12
the msg is note_on channel=0 note=79 velocity=100 time=0
the msg is note_off channel=0 note=76 velocity=0 time=12
the msg is note_on channel=0 note=76 velocity=100 time=0
the msg is note_off channel=0 note=74 velocity=0 time=12
the msg is note_on channel=0 note=74 velocity=100 time=0
the msg is note_off channel=0 note=72 velocity=0 time=12
the msg is note_on channel=0 note=72 velocity=100 time=0
the msg is note_off channel=0 note=74 velocity=0 time=25
the msg is note_on channel=0 note=74 velocity=100 time=0
the msg is note_off channel=0 note=76 velocity=0 time=25
the msg is note_on channel=0 note=76 velocity=100 time=0
the msg is note_off channel=0 note=79 velocity=0 time=25
the msg is note_on channel=0 note=79 velocity=100 time=0
the msg is note_off channel=0 note=79 velocity=0 time=12
the msg is note_on channel=0 note=79 velocity=100 time=0
the msg is note_off channel=0 note=76 velocity=0 time=12
the msg is note_on channel=0 note=76 velocity=100 time=0
the msg is note_off channel=0 note=74 velocity=0 time=12
the msg is note_on channel=0 note=74 velocity=100 time=0
the msg is note_off channel=0 note=72 velocity=0 time=12
the msg is note_on channel=0 note=72 velocity=100 time=0
the msg is note_off channel=0 note=74 velocity=0 time=25
the msg is note_on channel=0 note=74 velocity=100 time=0
the msg is note_off channel=0 note=74 velocity=0 time=12
the msg is note_on channel=0 note=74 velocity=100 time=0
the msg is note_off channel=0 note=74 velocity=0 time=12
the msg is note_on channel=0 note=74 velocity=100 time=0
the msg is note_off channel=0 note=74 velocity=0 time=25
the msg is note_on channel=0 note=74 velocity=100 time=0
the msg is note_off channel=0 note=74 velocity=0 time=25
the msg is note_on channel=0 note=74 velocity=100 time=0
the msg is note_off channel=0 note=76 velocity=0 time=25
the msg is note_on channel=0 note=76 velocity=100 time=0
the msg is note_off channel=0 note=79 velocity=0 time=25
the msg is note_on channel=0 note=79 velocity=100 time=0
the msg is note_off channel=0 note=79 velocity=0 time=12
the msg is note_on channel=0 note=79 velocity=100 time=0
the msg is note_off channel=0 note=76 velocity=0 time=12
the msg is note_on channel=0 note=76 velocity=100 time=0
the msg is note_off channel=0 note=74 velocity=0 time=12
the msg is note_on channel=0 note=74 velocity=100 time=0
the msg is note_off channel=0 note=72 velocity=0 time=12
the msg is note_on channel=0 note=72 velocity=100 time=0
the msg is note_off channel=0 note=72 velocity=0 time=81
the msg is note_on channel=0 note=72 velocity=100 time=0
the msg is note_off channel=0 note=72 velocity=0 time=8
the msg is note_on channel=0 note=72 velocity=100 time=0
the msg is note_off channel=0 note=74 velocity=0 time=25
the msg is note_on channel=0 note=74 velocity=100 time=0
the msg is note_off channel=0 note=74 velocity=0 time=25
the msg is note_on channel=0 note=74 velocity=100 time=0
the msg is note_off channel=0 note=74 velocity=0 time=25
the msg is note_on channel=0 note=74 velocity=100 time=0
the msg is note_off channel=0 note=74 velocity=0 time=25
the msg is note_on channel=0 note=74 velocity=100 time=0
the msg is note_off channel=0 note=74 velocity=0 time=25
the msg is note_on channel=0 note=74 velocity=100 time=0
the msg is note_off channel=0 note=74 velocity=0 time=25
the msg is note_on channel=0 note=74 velocity=100 time=0
the msg is note_off channel=0 note=76 velocity=0 time=25
the msg is note_on channel=0 note=76 velocity=100 time=0
the msg is note_off channel=0 note=79 velocity=0 time=25
the msg is note_on channel=0 note=79 velocity=100 time=0
the msg is note_off channel=0 note=79 velocity=0 time=12
the msg is note_on channel=0 note=79 velocity=100 time=0
the msg is note_off channel=0 note=76 velocity=0 time=12
the msg is note_on channel=0 note=76 velocity=100 time=0
the msg is note_off channel=0 note=74 velocity=0 time=17
the msg is note_on channel=0 note=74 velocity=100 time=0
the msg is note_off channel=0 note=72 velocity=0 time=8
the msg is note_on channel=0 note=72 velocity=100 time=0
the msg is note_off channel=0 note=72 velocity=0 time=25
the msg is note_on channel=0 note=72 velocity=100 time=0
the msg is note_off channel=0 note=72 velocity=0 time=25
the msg is note_on channel=0 note=72 velocity=100 time=0
the msg is note_off channel=0 note=72 velocity=0 time=12
the msg is note_on channel=0 note=72 velocity=100 time=0
the msg is note_off channel=0 note=72 velocity=0 time=29
the msg is note_on channel=0 note=72 velocity=100 time=0
the msg is note_off channel=0 note=72 velocity=0 time=8
the msg is note_on channel=0 note=72 velocity=100 time=0
the msg is note_off channel=0 note=72 velocity=0 time=25
the msg is note_on channel=0 note=72 velocity=100 time=0
the msg is note_off channel=0 note=72 velocity=0 time=12
the msg is note_on channel=0 note=72 velocity=100 time=0
the msg is note_off channel=0 note=72 velocity=0 time=12
the msg is note_on channel=0 note=72 velocity=100 time=0
the msg is note_off channel=0 note=72 velocity=0 time=12
the msg is note_on channel=0 note=72 velocity=100 time=0
the msg is note_off channel=0 note=76 velocity=0 time=12
the msg is note_on channel=0 note=76 velocity=100 time=0
the msg is note_off channel=0 note=79 velocity=0 time=25
the msg is note_on channel=0 note=79 velocity=100 time=0
the msg is note_off channel=0 note=79 velocity=0 time=12
the msg is note_on channel=0 note=79 velocity=100 time=0
the msg is note_off channel=0 note=76 velocity=0 time=12
the msg is note_on channel=0 note=76 velocity=100 time=0
the msg is note_off channel=0 note=74 velocity=0 time=12
the msg is note_on channel=0 note=74 velocity=100 time=0
the msg is note_off channel=0 note=72 velocity=0 time=12
the msg is note_on channel=0 note=72 velocity=100 time=0
the msg is note_off channel=0 note=72 velocity=0 time=76
the msg is note_on channel=0 note=72 velocity=100 time=0
the msg is note_off channel=0 note=72 velocity=0 time=12
the msg is note_on channel=0 note=72 velocity=100 time=0
the msg is note_off channel=0 note=72 velocity=0 time=12
the msg is note_on channel=0 note=72 velocity=100 time=0
the msg is note_off channel=0 note=72 velocity=0 time=8
the msg is note_on channel=0 note=72 velocity=100 time=0
the msg is note_off channel=0 note=72 velocity=0 time=17
the msg is note_on channel=0 note=72 velocity=100 time=0
the msg is note_off channel=0 note=72 velocity=0 time=12
the msg is note_on channel=0 note=72 velocity=100 time=0
the msg is note_off channel=0 note=72 velocity=0 time=12
the msg is note_on channel=0 note=72 velocity=100 time=0
the msg is note_off channel=0 note=76 velocity=0 time=8
the msg is note_on channel=0 note=76 velocity=100 time=0
the msg is note_off channel=0 note=79 velocity=0 time=29
the msg is note_on channel=0 note=79 velocity=100 time=0
the msg is note_off channel=0 note=79 velocity=0 time=12
the msg is note_on channel=0 note=79 velocity=100 time=0
the msg is note_off channel=0 note=76 velocity=0 time=8
the msg is note_on channel=0 note=76 velocity=100 time=0
the msg is note_off channel=0 note=74 velocity=0 time=17
the msg is note_on channel=0 note=74 velocity=100 time=0
the msg is <meta message end_of_track time=51>
the msg is <meta message track_name name='Piano' time=0>
the msg is program_change channel=0 program=0 time=0
the msg is note_off channel=0 note=72 velocity=0 time=0
the msg is pitchwheel channel=0 pitch=0 time=0
the msg is program_change channel=0 program=0 time=0
the msg is <meta message set_tempo tempo=500000 time=0>
the msg is <meta message time_signature numerator=4 denominator=4 clocks_per_click=24 notated_32nd_notes_per_beat=8 time=0>
the msg is note_on channel=0 note=72 velocity=100 time=0
the msg is note_off channel=0 note=74 velocity=0 time=34
the msg is note_on channel=0 note=74 velocity=100 time=0
the msg is note_off channel=0 note=74 velocity=0 time=17
the msg is note_on channel=0 note=74 velocity=100 time=0
the msg is note_off channel=0 note=74 velocity=0 time=34
the msg is note_on channel=0 note=74 velocity=100 time=0
the msg is note_off channel=0 note=74 velocity=0 time=17
the msg is note_on channel=0 note=74 velocity=100 time=0
the msg is note_off channel=0 note=76 velocity=0 time=34
the msg is note_on channel=0 note=76 velocity=100 time=0
the msg is note_off channel=0 note=79 velocity=0 time=17
the msg is note_on channel=0 note=79 velocity=100 time=0
the msg is note_off channel=0 note=79 velocity=0 time=17
the msg is note_on channel=0 note=79 velocity=100 time=0
the msg is note_off channel=0 note=76 velocity=0 time=17
the msg is note_on channel=0 note=76 velocity=100 time=0
the msg is note_off channel=0 note=74 velocity=0 time=4
the msg is note_on channel=0 note=74 velocity=100 time=0
the msg is note_off channel=0 note=72 velocity=0 time=12
the msg is note_on channel=0 note=72 velocity=100 time=0
the msg is note_off channel=0 note=72 velocity=0 time=89
the msg is note_on channel=0 note=72 velocity=100 time=0
the msg is note_off channel=0 note=72 velocity=0 time=12
the msg is note_on channel=0 note=72 velocity=100 time=0
the msg is note_off channel=0 note=74 velocity=0 time=25
the msg is note_on channel=0 note=74 velocity=100 time=0
the msg is note_off channel=0 note=74 velocity=0 time=25
the msg is note_on channel=0 note=74 velocity=100 time=0
the msg is note_off channel=0 note=74 velocity=0 time=12
the msg is note_on channel=0 note=74 velocity=100 time=0
the msg is note_off channel=0 note=76 velocity=0 time=25
the msg is note_on channel=0 note=76 velocity=100 time=0
the msg is note_off channel=0 note=79 velocity=0 time=25
the msg is note_on channel=0 note=79 velocity=100 time=0
the msg is note_off channel=0 note=79 velocity=0 time=12
the msg is note_on channel=0 note=79 velocity=100 time=0
the msg is note_off channel=0 note=76 velocity=0 time=12
the msg is note_on channel=0 note=76 velocity=100 time=0
the msg is note_off channel=0 note=74 velocity=0 time=12
the msg is note_on channel=0 note=74 velocity=100 time=0
the msg is note_off channel=0 note=72 velocity=0 time=12
the msg is note_on channel=0 note=72 velocity=100 time=0
the msg is note_off channel=0 note=74 velocity=0 time=25
the msg is note_on channel=0 note=74 velocity=100 time=0
the msg is note_off channel=0 note=76 velocity=0 time=25
the msg is note_on channel=0 note=76 velocity=100 time=0
the msg is note_off channel=0 note=79 velocity=0 time=25
the msg is note_on channel=0 note=79 velocity=100 time=0
the msg is note_off channel=0 note=79 velocity=0 time=12
the msg is note_on channel=0 note=79 velocity=100 time=0
the msg is note_off channel=0 note=76 velocity=0 time=12
the msg is note_on channel=0 note=76 velocity=100 time=0
the msg is note_off channel=0 note=74 velocity=0 time=12
the msg is note_on channel=0 note=74 velocity=100 time=0
the msg is note_off channel=0 note=72 velocity=0 time=12
the msg is note_on channel=0 note=72 velocity=100 time=0
the msg is note_off channel=0 note=74 velocity=0 time=25
the msg is note_on channel=0 note=74 velocity=100 time=0
the msg is note_off channel=0 note=74 velocity=0 time=12
the msg is note_on channel=0 note=74 velocity=100 time=0
the msg is note_off channel=0 note=74 velocity=0 time=12
the msg is note_on channel=0 note=74 velocity=100 time=0
the msg is note_off channel=0 note=74 velocity=0 time=25
the msg is note_on channel=0 note=74 velocity=100 time=0
the msg is note_off channel=0 note=74 velocity=0 time=25
the msg is note_on channel=0 note=74 velocity=100 time=0
the msg is note_off channel=0 note=76 velocity=0 time=25
the msg is note_on channel=0 note=76 velocity=100 time=0
the msg is note_off channel=0 note=79 velocity=0 time=25
the msg is note_on channel=0 note=79 velocity=100 time=0
the msg is note_off channel=0 note=79 velocity=0 time=12
the msg is note_on channel=0 note=79 velocity=100 time=0
the msg is note_off channel=0 note=76 velocity=0 time=12
the msg is note_on channel=0 note=76 velocity=100 time=0
the msg is note_off channel=0 note=74 velocity=0 time=12
the msg is note_on channel=0 note=74 velocity=100 time=0
the msg is note_off channel=0 note=72 velocity=0 time=12
the msg is note_on channel=0 note=72 velocity=100 time=0
the msg is note_off channel=0 note=72 velocity=0 time=81
the msg is note_on channel=0 note=72 velocity=100 time=0
the msg is note_off channel=0 note=72 velocity=0 time=8
the msg is note_on channel=0 note=72 velocity=100 time=0
the msg is note_off channel=0 note=74 velocity=0 time=25
the msg is note_on channel=0 note=74 velocity=100 time=0
the msg is note_off channel=0 note=74 velocity=0 time=25
the msg is note_on channel=0 note=74 velocity=100 time=0
the msg is note_off channel=0 note=74 velocity=0 time=25
the msg is note_on channel=0 note=74 velocity=100 time=0
the msg is note_off channel=0 note=74 velocity=0 time=25
the msg is note_on channel=0 note=74 velocity=100 time=0
the msg is note_off channel=0 note=74 velocity=0 time=25
the msg is note_on channel=0 note=74 velocity=100 time=0
the msg is note_off channel=0 note=74 velocity=0 time=25
the msg is note_on channel=0 note=74 velocity=100 time=0
the msg is note_off channel=0 note=76 velocity=0 time=25
the msg is note_on channel=0 note=76 velocity=100 time=0
the msg is note_off channel=0 note=79 velocity=0 time=25
the msg is note_on channel=0 note=79 velocity=100 time=0
the msg is note_off channel=0 note=79 velocity=0 time=12
the msg is note_on channel=0 note=79 velocity=100 time=0
the msg is note_off channel=0 note=76 velocity=0 time=12
the msg is note_on channel=0 note=76 velocity=100 time=0
the msg is note_off channel=0 note=74 velocity=0 time=17
the msg is note_on channel=0 note=74 velocity=100 time=0
the msg is note_off channel=0 note=72 velocity=0 time=8
the msg is note_on channel=0 note=72 velocity=100 time=0
the msg is note_off channel=0 note=72 velocity=0 time=25
the msg is note_on channel=0 note=72 velocity=100 time=0
the msg is note_off channel=0 note=72 velocity=0 time=25
the msg is note_on channel=0 note=72 velocity=100 time=0
the msg is note_off channel=0 note=72 velocity=0 time=12
the msg is note_on channel=0 note=72 velocity=100 time=0
the msg is note_off channel=0 note=72 velocity=0 time=29
the msg is note_on channel=0 note=72 velocity=100 time=0
the msg is note_off channel=0 note=72 velocity=0 time=8
the msg is note_on channel=0 note=72 velocity=100 time=0
the msg is note_off channel=0 note=72 velocity=0 time=25
the msg is note_on channel=0 note=72 velocity=100 time=0
the msg is note_off channel=0 note=72 velocity=0 time=12
the msg is note_on channel=0 note=72 velocity=100 time=0
the msg is note_off channel=0 note=72 velocity=0 time=12
the msg is note_on channel=0 note=72 velocity=100 time=0
the msg is note_off channel=0 note=72 velocity=0 time=12
the msg is note_on channel=0 note=72 velocity=100 time=0
the msg is note_off channel=0 note=76 velocity=0 time=12
the msg is note_on channel=0 note=76 velocity=100 time=0
the msg is note_off channel=0 note=79 velocity=0 time=25
the msg is note_on channel=0 note=79 velocity=100 time=0
the msg is note_off channel=0 note=79 velocity=0 time=12
the msg is note_on channel=0 note=79 velocity=100 time=0
the msg is note_off channel=0 note=76 velocity=0 time=12
the msg is note_on channel=0 note=76 velocity=100 time=0
the msg is note_off channel=0 note=74 velocity=0 time=12
the msg is note_on channel=0 note=74 velocity=100 time=0
the msg is note_off channel=0 note=72 velocity=0 time=12
the msg is note_on channel=0 note=72 velocity=100 time=0
the msg is note_off channel=0 note=72 velocity=0 time=76
the msg is note_on channel=0 note=72 velocity=100 time=0
the msg is note_off channel=0 note=72 velocity=0 time=12
the msg is note_on channel=0 note=72 velocity=100 time=0
the msg is note_off channel=0 note=72 velocity=0 time=12
the msg is note_on channel=0 note=72 velocity=100 time=0
the msg is note_off channel=0 note=72 velocity=0 time=8
the msg is note_on channel=0 note=72 velocity=100 time=0
the msg is note_off channel=0 note=72 velocity=0 time=17
the msg is note_on channel=0 note=72 velocity=100 time=0
the msg is note_off channel=0 note=72 velocity=0 time=12
the msg is note_on channel=0 note=72 velocity=100 time=0
the msg is note_off channel=0 note=72 velocity=0 time=12
the msg is note_on channel=0 note=72 velocity=100 time=0
the msg is note_off channel=0 note=76 velocity=0 time=8
the msg is note_on channel=0 note=76 velocity=100 time=0
the msg is note_off channel=0 note=79 velocity=0 time=29
the msg is note_on channel=0 note=79 velocity=100 time=0
the msg is note_off channel=0 note=79 velocity=0 time=12
the msg is note_on channel=0 note=79 velocity=100 time=0
the msg is note_off channel=0 note=76 velocity=0 time=8
the msg is note_on channel=0 note=76 velocity=100 time=0
the msg is note_off channel=0 note=74 velocity=0 time=17
the msg is note_on channel=0 note=74 velocity=100 time=0
the msg is <meta message end_of_track time=51>
the msg is <meta message track_name name='Piano' time=0>
the msg is program_change channel=0 program=0 time=0
the msg is note_off channel=0 note=72 velocity=0 time=0
the msg is pitchwheel channel=0 pitch=0 time=0
the msg is program_change channel=0 program=0 time=0
the msg is <meta message set_tempo tempo=500000 time=0>
the msg is <meta message time_signature numerator=4 denominator=4 clocks_per_click=24 notated_32nd_notes_per_beat=8 time=0>
the msg is note_on channel=0 note=72 velocity=100 time=0
the msg is note_off channel=0 note=74 velocity=0 time=34
the msg is note_on channel=0 note=74 velocity=100 time=0
the msg is note_off channel=0 note=74 velocity=0 time=17
the msg is note_on channel=0 note=74 velocity=100 time=0
the msg is note_off channel=0 note=74 velocity=0 time=34
the msg is note_on channel=0 note=74 velocity=100 time=0
the msg is note_off channel=0 note=74 velocity=0 time=17
the msg is note_on channel=0 note=74 velocity=100 time=0
the msg is note_off channel=0 note=76 velocity=0 time=34
the msg is note_on channel=0 note=76 velocity=100 time=0
the msg is note_off channel=0 note=79 velocity=0 time=17
the msg is note_on channel=0 note=79 velocity=100 time=0
the msg is note_off channel=0 note=79 velocity=0 time=17
the msg is note_on channel=0 note=79 velocity=100 time=0
the msg is note_off channel=0 note=76 velocity=0 time=17
the msg is note_on channel=0 note=76 velocity=100 time=0
the msg is note_off channel=0 note=74 velocity=0 time=4
the msg is note_on channel=0 note=74 velocity=100 time=0
the msg is note_off channel=0 note=72 velocity=0 time=12
the msg is note_on channel=0 note=72 velocity=100 time=0
the msg is note_off channel=0 note=72 velocity=0 time=89
the msg is note_on channel=0 note=72 velocity=100 time=0
the msg is note_off channel=0 note=72 velocity=0 time=12
the msg is note_on channel=0 note=72 velocity=100 time=0
the msg is note_off channel=0 note=74 velocity=0 time=25
the msg is note_on channel=0 note=74 velocity=100 time=0
the msg is note_off channel=0 note=74 velocity=0 time=25
the msg is note_on channel=0 note=74 velocity=100 time=0
the msg is note_off channel=0 note=74 velocity=0 time=12
the msg is note_on channel=0 note=74 velocity=100 time=0
the msg is note_off channel=0 note=76 velocity=0 time=25
the msg is note_on channel=0 note=76 velocity=100 time=0
the msg is note_off channel=0 note=79 velocity=0 time=25
the msg is note_on channel=0 note=79 velocity=100 time=0
the msg is note_off channel=0 note=79 velocity=0 time=12
the msg is note_on channel=0 note=79 velocity=100 time=0
the msg is note_off channel=0 note=76 velocity=0 time=12
the msg is note_on channel=0 note=76 velocity=100 time=0
the msg is note_off channel=0 note=74 velocity=0 time=12
the msg is note_on channel=0 note=74 velocity=100 time=0
the msg is note_off channel=0 note=72 velocity=0 time=12
the msg is note_on channel=0 note=72 velocity=100 time=0
the msg is note_off channel=0 note=74 velocity=0 time=25
the msg is note_on channel=0 note=74 velocity=100 time=0
the msg is note_off channel=0 note=76 velocity=0 time=25
the msg is note_on channel=0 note=76 velocity=100 time=0
the msg is note_off channel=0 note=79 velocity=0 time=25
the msg is note_on channel=0 note=79 velocity=100 time=0
the msg is note_off channel=0 note=79 velocity=0 time=12
the msg is note_on channel=0 note=79 velocity=100 time=0
the msg is note_off channel=0 note=76 velocity=0 time=12
the msg is note_on channel=0 note=76 velocity=100 time=0
the msg is note_off channel=0 note=74 velocity=0 time=12
the msg is note_on channel=0 note=74 velocity=100 time=0
the msg is note_off channel=0 note=72 velocity=0 time=12
the msg is note_on channel=0 note=72 velocity=100 time=0
the msg is note_off channel=0 note=74 velocity=0 time=25
the msg is note_on channel=0 note=74 velocity=100 time=0
the msg is note_off channel=0 note=74 velocity=0 time=12
the msg is note_on channel=0 note=74 velocity=100 time=0
the msg is note_off channel=0 note=74 velocity=0 time=12
the msg is note_on channel=0 note=74 velocity=100 time=0
the msg is note_off channel=0 note=74 velocity=0 time=25
the msg is note_on channel=0 note=74 velocity=100 time=0
the msg is note_off channel=0 note=74 velocity=0 time=25
the msg is note_on channel=0 note=74 velocity=100 time=0
the msg is note_off channel=0 note=76 velocity=0 time=25
the msg is note_on channel=0 note=76 velocity=100 time=0
the msg is note_off channel=0 note=79 velocity=0 time=25
the msg is note_on channel=0 note=79 velocity=100 time=0
the msg is note_off channel=0 note=79 velocity=0 time=12
the msg is note_on channel=0 note=79 velocity=100 time=0
the msg is note_off channel=0 note=76 velocity=0 time=12
the msg is note_on channel=0 note=76 velocity=100 time=0
the msg is note_off channel=0 note=74 velocity=0 time=12
the msg is note_on channel=0 note=74 velocity=100 time=0
the msg is note_off channel=0 note=72 velocity=0 time=12
the msg is note_on channel=0 note=72 velocity=100 time=0
the msg is note_off channel=0 note=72 velocity=0 time=81
the msg is note_on channel=0 note=72 velocity=100 time=0
the msg is note_off channel=0 note=72 velocity=0 time=8
the msg is note_on channel=0 note=72 velocity=100 time=0
the msg is note_off channel=0 note=74 velocity=0 time=25
the msg is note_on channel=0 note=74 velocity=100 time=0
the msg is note_off channel=0 note=74 velocity=0 time=25
the msg is note_on channel=0 note=74 velocity=100 time=0
the msg is note_off channel=0 note=74 velocity=0 time=25
the msg is note_on channel=0 note=74 velocity=100 time=0
the msg is note_off channel=0 note=74 velocity=0 time=25
the msg is note_on channel=0 note=74 velocity=100 time=0
the msg is note_off channel=0 note=74 velocity=0 time=25
the msg is note_on channel=0 note=74 velocity=100 time=0
the msg is note_off channel=0 note=74 velocity=0 time=25
the msg is note_on channel=0 note=74 velocity=100 time=0
the msg is note_off channel=0 note=76 velocity=0 time=25
the msg is note_on channel=0 note=76 velocity=100 time=0
the msg is note_off channel=0 note=79 velocity=0 time=25
the msg is note_on channel=0 note=79 velocity=100 time=0
the msg is note_off channel=0 note=79 velocity=0 time=12
the msg is note_on channel=0 note=79 velocity=100 time=0
the msg is note_off channel=0 note=76 velocity=0 time=12
the msg is note_on channel=0 note=76 velocity=100 time=0
the msg is note_off channel=0 note=74 velocity=0 time=17
the msg is note_on channel=0 note=74 velocity=100 time=0
the msg is note_off channel=0 note=72 velocity=0 time=8
the msg is note_on channel=0 note=72 velocity=100 time=0
the msg is note_off channel=0 note=72 velocity=0 time=25
the msg is note_on channel=0 note=72 velocity=100 time=0
the msg is note_off channel=0 note=72 velocity=0 time=25
the msg is note_on channel=0 note=72 velocity=100 time=0
the msg is note_off channel=0 note=72 velocity=0 time=12
the msg is note_on channel=0 note=72 velocity=100 time=0
the msg is note_off channel=0 note=72 velocity=0 time=29
the msg is note_on channel=0 note=72 velocity=100 time=0
the msg is note_off channel=0 note=72 velocity=0 time=8
the msg is note_on channel=0 note=72 velocity=100 time=0
the msg is note_off channel=0 note=72 velocity=0 time=25
the msg is note_on channel=0 note=72 velocity=100 time=0
the msg is note_off channel=0 note=72 velocity=0 time=12
the msg is note_on channel=0 note=72 velocity=100 time=0
the msg is note_off channel=0 note=72 velocity=0 time=12
the msg is note_on channel=0 note=72 velocity=100 time=0
the msg is note_off channel=0 note=72 velocity=0 time=12
the msg is note_on channel=0 note=72 velocity=100 time=0
the msg is note_off channel=0 note=76 velocity=0 time=12
the msg is note_on channel=0 note=76 velocity=100 time=0
the msg is note_off channel=0 note=79 velocity=0 time=25
the msg is note_on channel=0 note=79 velocity=100 time=0
the msg is note_off channel=0 note=79 velocity=0 time=12
the msg is note_on channel=0 note=79 velocity=100 time=0
the msg is note_off channel=0 note=76 velocity=0 time=12
the msg is note_on channel=0 note=76 velocity=100 time=0
the msg is note_off channel=0 note=74 velocity=0 time=12
the msg is note_on channel=0 note=74 velocity=100 time=0
the msg is note_off channel=0 note=72 velocity=0 time=12
the msg is note_on channel=0 note=72 velocity=100 time=0
the msg is note_off channel=0 note=72 velocity=0 time=76
the msg is note_on channel=0 note=72 velocity=100 time=0
the msg is note_off channel=0 note=72 velocity=0 time=12
the msg is note_on channel=0 note=72 velocity=100 time=0
the msg is note_off channel=0 note=72 velocity=0 time=12
the msg is note_on channel=0 note=72 velocity=100 time=0
the msg is note_off channel=0 note=72 velocity=0 time=8
the msg is note_on channel=0 note=72 velocity=100 time=0
the msg is note_off channel=0 note=72 velocity=0 time=17
the msg is note_on channel=0 note=72 velocity=100 time=0
the msg is note_off channel=0 note=72 velocity=0 time=12
the msg is note_on channel=0 note=72 velocity=100 time=0
the msg is note_off channel=0 note=72 velocity=0 time=12
the msg is note_on channel=0 note=72 velocity=100 time=0
the msg is note_off channel=0 note=76 velocity=0 time=8
the msg is note_on channel=0 note=76 velocity=100 time=0
the msg is note_off channel=0 note=79 velocity=0 time=29
the msg is note_on channel=0 note=79 velocity=100 time=0
the msg is note_off channel=0 note=79 velocity=0 time=12
the msg is note_on channel=0 note=79 velocity=100 time=0
the msg is note_off channel=0 note=76 velocity=0 time=8
the msg is note_on channel=0 note=76 velocity=100 time=0
the msg is note_off channel=0 note=74 velocity=0 time=17
the msg is note_on channel=0 note=74 velocity=100 time=0
the msg is <meta message end_of_track time=51>
the msg is <meta message track_name name='Piano' time=0>
the msg is program_change channel=0 program=0 time=0
the msg is note_off channel=0 note=72 velocity=0 time=0
the msg is pitchwheel channel=0 pitch=0 time=0
the msg is program_change channel=0 program=0 time=0
the msg is <meta message set_tempo tempo=500000 time=0>
the msg is <meta message time_signature numerator=4 denominator=4 clocks_per_click=24 notated_32nd_notes_per_beat=8 time=0>
the msg is note_on channel=0 note=72 velocity=100 time=0
the msg is note_off channel=0 note=74 velocity=0 time=34
the msg is note_on channel=0 note=74 velocity=100 time=0
the msg is note_off channel=0 note=74 velocity=0 time=17
the msg is note_on channel=0 note=74 velocity=100 time=0
the msg is note_off channel=0 note=74 velocity=0 time=34
the msg is note_on channel=0 note=74 velocity=100 time=0
the msg is note_off channel=0 note=74 velocity=0 time=17
the msg is note_on channel=0 note=74 velocity=100 time=0
the msg is note_off channel=0 note=76 velocity=0 time=34
the msg is note_on channel=0 note=76 velocity=100 time=0
the msg is note_off channel=0 note=79 velocity=0 time=17
the msg is note_on channel=0 note=79 velocity=100 time=0
the msg is note_off channel=0 note=79 velocity=0 time=17
the msg is note_on channel=0 note=79 velocity=100 time=0
the msg is note_off channel=0 note=76 velocity=0 time=17
the msg is note_on channel=0 note=76 velocity=100 time=0
the msg is note_off channel=0 note=74 velocity=0 time=4
the msg is note_on channel=0 note=74 velocity=100 time=0
the msg is note_off channel=0 note=72 velocity=0 time=12
the msg is note_on channel=0 note=72 velocity=100 time=0
the msg is note_off channel=0 note=72 velocity=0 time=89
the msg is note_on channel=0 note=72 velocity=100 time=0
the msg is note_off channel=0 note=72 velocity=0 time=12
the msg is note_on channel=0 note=72 velocity=100 time=0
the msg is note_off channel=0 note=74 velocity=0 time=25
the msg is note_on channel=0 note=74 velocity=100 time=0
the msg is note_off channel=0 note=74 velocity=0 time=25
the msg is note_on channel=0 note=74 velocity=100 time=0
the msg is note_off channel=0 note=74 velocity=0 time=12
the msg is note_on channel=0 note=74 velocity=100 time=0
the msg is note_off channel=0 note=76 velocity=0 time=25
the msg is note_on channel=0 note=76 velocity=100 time=0
the msg is note_off channel=0 note=79 velocity=0 time=25
the msg is note_on channel=0 note=79 velocity=100 time=0
the msg is note_off channel=0 note=79 velocity=0 time=12
the msg is note_on channel=0 note=79 velocity=100 time=0
the msg is note_off channel=0 note=76 velocity=0 time=12
the msg is note_on channel=0 note=76 velocity=100 time=0
the msg is note_off channel=0 note=74 velocity=0 time=12
the msg is note_on channel=0 note=74 velocity=100 time=0
the msg is note_off channel=0 note=72 velocity=0 time=12
the msg is note_on channel=0 note=72 velocity=100 time=0
the msg is note_off channel=0 note=74 velocity=0 time=25
the msg is note_on channel=0 note=74 velocity=100 time=0
the msg is note_off channel=0 note=76 velocity=0 time=25
the msg is note_on channel=0 note=76 velocity=100 time=0
the msg is note_off channel=0 note=79 velocity=0 time=25
the msg is note_on channel=0 note=79 velocity=100 time=0
the msg is note_off channel=0 note=79 velocity=0 time=12
the msg is note_on channel=0 note=79 velocity=100 time=0
the msg is note_off channel=0 note=76 velocity=0 time=12
the msg is note_on channel=0 note=76 velocity=100 time=0
the msg is note_off channel=0 note=74 velocity=0 time=12
the msg is note_on channel=0 note=74 velocity=100 time=0
the msg is note_off channel=0 note=72 velocity=0 time=12
the msg is note_on channel=0 note=72 velocity=100 time=0
the msg is note_off channel=0 note=74 velocity=0 time=25
the msg is note_on channel=0 note=74 velocity=100 time=0
the msg is note_off channel=0 note=74 velocity=0 time=12
the msg is note_on channel=0 note=74 velocity=100 time=0
the msg is note_off channel=0 note=74 velocity=0 time=12
the msg is note_on channel=0 note=74 velocity=100 time=0
the msg is note_off channel=0 note=74 velocity=0 time=25
the msg is note_on channel=0 note=74 velocity=100 time=0
the msg is note_off channel=0 note=74 velocity=0 time=25
the msg is note_on channel=0 note=74 velocity=100 time=0
the msg is note_off channel=0 note=76 velocity=0 time=25
the msg is note_on channel=0 note=76 velocity=100 time=0
the msg is note_off channel=0 note=79 velocity=0 time=25
the msg is note_on channel=0 note=79 velocity=100 time=0
the msg is note_off channel=0 note=79 velocity=0 time=12
the msg is note_on channel=0 note=79 velocity=100 time=0
the msg is note_off channel=0 note=76 velocity=0 time=12
the msg is note_on channel=0 note=76 velocity=100 time=0
the msg is note_off channel=0 note=74 velocity=0 time=12
the msg is note_on channel=0 note=74 velocity=100 time=0
the msg is note_off channel=0 note=72 velocity=0 time=12
the msg is note_on channel=0 note=72 velocity=100 time=0
the msg is note_off channel=0 note=72 velocity=0 time=81
the msg is note_on channel=0 note=72 velocity=100 time=0
the msg is note_off channel=0 note=72 velocity=0 time=8
the msg is note_on channel=0 note=72 velocity=100 time=0
the msg is note_off channel=0 note=74 velocity=0 time=25
the msg is note_on channel=0 note=74 velocity=100 time=0
the msg is note_off channel=0 note=74 velocity=0 time=25
the msg is note_on channel=0 note=74 velocity=100 time=0
the msg is note_off channel=0 note=74 velocity=0 time=25
the msg is note_on channel=0 note=74 velocity=100 time=0
the msg is note_off channel=0 note=74 velocity=0 time=25
the msg is note_on channel=0 note=74 velocity=100 time=0
the msg is note_off channel=0 note=74 velocity=0 time=25
the msg is note_on channel=0 note=74 velocity=100 time=0
the msg is note_off channel=0 note=74 velocity=0 time=25
the msg is note_on channel=0 note=74 velocity=100 time=0
the msg is note_off channel=0 note=76 velocity=0 time=25
the msg is note_on channel=0 note=76 velocity=100 time=0
the msg is note_off channel=0 note=79 velocity=0 time=25
the msg is note_on channel=0 note=79 velocity=100 time=0
the msg is note_off channel=0 note=79 velocity=0 time=12
the msg is note_on channel=0 note=79 velocity=100 time=0
the msg is note_off channel=0 note=76 velocity=0 time=12
the msg is note_on channel=0 note=76 velocity=100 time=0
the msg is note_off channel=0 note=74 velocity=0 time=17
the msg is note_on channel=0 note=74 velocity=100 time=0
the msg is note_off channel=0 note=72 velocity=0 time=8
the msg is note_on channel=0 note=72 velocity=100 time=0
the msg is note_off channel=0 note=72 velocity=0 time=25
the msg is note_on channel=0 note=72 velocity=100 time=0
the msg is note_off channel=0 note=72 velocity=0 time=25
the msg is note_on channel=0 note=72 velocity=100 time=0
the msg is note_off channel=0 note=72 velocity=0 time=12
the msg is note_on channel=0 note=72 velocity=100 time=0
the msg is note_off channel=0 note=72 velocity=0 time=29
the msg is note_on channel=0 note=72 velocity=100 time=0
the msg is note_off channel=0 note=72 velocity=0 time=8
the msg is note_on channel=0 note=72 velocity=100 time=0
the msg is note_off channel=0 note=72 velocity=0 time=25
the msg is note_on channel=0 note=72 velocity=100 time=0
the msg is note_off channel=0 note=72 velocity=0 time=12
the msg is note_on channel=0 note=72 velocity=100 time=0
the msg is note_off channel=0 note=72 velocity=0 time=12
the msg is note_on channel=0 note=72 velocity=100 time=0
the msg is note_off channel=0 note=72 velocity=0 time=12
the msg is note_on channel=0 note=72 velocity=100 time=0
the msg is note_off channel=0 note=76 velocity=0 time=12
the msg is note_on channel=0 note=76 velocity=100 time=0
the msg is note_off channel=0 note=79 velocity=0 time=25
the msg is note_on channel=0 note=79 velocity=100 time=0
the msg is note_off channel=0 note=79 velocity=0 time=12
the msg is note_on channel=0 note=79 velocity=100 time=0
the msg is note_off channel=0 note=76 velocity=0 time=12
the msg is note_on channel=0 note=76 velocity=100 time=0
the msg is note_off channel=0 note=74 velocity=0 time=12
the msg is note_on channel=0 note=74 velocity=100 time=0
the msg is note_off channel=0 note=72 velocity=0 time=12
the msg is note_on channel=0 note=72 velocity=100 time=0
the msg is note_off channel=0 note=72 velocity=0 time=76
the msg is note_on channel=0 note=72 velocity=100 time=0
the msg is note_off channel=0 note=72 velocity=0 time=12
the msg is note_on channel=0 note=72 velocity=100 time=0
the msg is note_off channel=0 note=72 velocity=0 time=12
the msg is note_on channel=0 note=72 velocity=100 time=0
the msg is note_off channel=0 note=72 velocity=0 time=8
the msg is note_on channel=0 note=72 velocity=100 time=0
the msg is note_off channel=0 note=72 velocity=0 time=17
the msg is note_on channel=0 note=72 velocity=100 time=0
the msg is note_off channel=0 note=72 velocity=0 time=12
the msg is note_on channel=0 note=72 velocity=100 time=0
the msg is note_off channel=0 note=72 velocity=0 time=12
the msg is note_on channel=0 note=72 velocity=100 time=0
the msg is note_off channel=0 note=76 velocity=0 time=8
the msg is note_on channel=0 note=76 velocity=100 time=0
the msg is note_off channel=0 note=79 velocity=0 time=29
the msg is note_on channel=0 note=79 velocity=100 time=0
the msg is note_off channel=0 note=79 velocity=0 time=12
the msg is note_on channel=0 note=79 velocity=100 time=0
the msg is note_off channel=0 note=76 velocity=0 time=8
the msg is note_on channel=0 note=76 velocity=100 time=0
the msg is note_off channel=0 note=74 velocity=0 time=17
the msg is note_on channel=0 note=74 velocity=100 time=0
the msg is <meta message end_of_track time=51>
the msg is <meta message track_name name='Piano' time=0>
the msg is program_change channel=0 program=0 time=0
the msg is note_off channel=0 note=72 velocity=0 time=0
the msg is pitchwheel channel=0 pitch=0 time=0
the msg is program_change channel=0 program=0 time=0
the msg is <meta message set_tempo tempo=500000 time=0>
the msg is <meta message time_signature numerator=4 denominator=4 clocks_per_click=24 notated_32nd_notes_per_beat=8 time=0>
the msg is note_on channel=0 note=72 velocity=100 time=0
the msg is note_off channel=0 note=74 velocity=0 time=34
the msg is note_on channel=0 note=74 velocity=100 time=0
the msg is note_off channel=0 note=74 velocity=0 time=17
the msg is note_on channel=0 note=74 velocity=100 time=0
the msg is note_off channel=0 note=74 velocity=0 time=34
the msg is note_on channel=0 note=74 velocity=100 time=0
the msg is note_off channel=0 note=74 velocity=0 time=17
the msg is note_on channel=0 note=74 velocity=100 time=0
the msg is note_off channel=0 note=76 velocity=0 time=34
the msg is note_on channel=0 note=76 velocity=100 time=0
the msg is note_off channel=0 note=79 velocity=0 time=17
the msg is note_on channel=0 note=79 velocity=100 time=0
the msg is note_off channel=0 note=79 velocity=0 time=17
the msg is note_on channel=0 note=79 velocity=100 time=0
the msg is note_off channel=0 note=76 velocity=0 time=17
the msg is note_on channel=0 note=76 velocity=100 time=0
the msg is note_off channel=0 note=74 velocity=0 time=4
the msg is note_on channel=0 note=74 velocity=100 time=0
the msg is note_off channel=0 note=72 velocity=0 time=12
the msg is note_on channel=0 note=72 velocity=100 time=0
the msg is note_off channel=0 note=72 velocity=0 time=89
the msg is note_on channel=0 note=72 velocity=100 time=0
the msg is note_off channel=0 note=72 velocity=0 time=12
the msg is note_on channel=0 note=72 velocity=100 time=0
the msg is note_off channel=0 note=74 velocity=0 time=25
the msg is note_on channel=0 note=74 velocity=100 time=0
the msg is note_off channel=0 note=74 velocity=0 time=25
the msg is note_on channel=0 note=74 velocity=100 time=0
the msg is note_off channel=0 note=74 velocity=0 time=12
the msg is note_on channel=0 note=74 velocity=100 time=0
the msg is note_off channel=0 note=76 velocity=0 time=25
the msg is note_on channel=0 note=76 velocity=100 time=0
the msg is note_off channel=0 note=79 velocity=0 time=25
the msg is note_on channel=0 note=79 velocity=100 time=0
the msg is note_off channel=0 note=79 velocity=0 time=12
the msg is note_on channel=0 note=79 velocity=100 time=0
the msg is note_off channel=0 note=76 velocity=0 time=12
the msg is note_on channel=0 note=76 velocity=100 time=0
the msg is note_off channel=0 note=74 velocity=0 time=12
the msg is note_on channel=0 note=74 velocity=100 time=0
the msg is note_off channel=0 note=72 velocity=0 time=12
the msg is note_on channel=0 note=72 velocity=100 time=0
the msg is note_off channel=0 note=74 velocity=0 time=25
the msg is note_on channel=0 note=74 velocity=100 time=0
the msg is note_off channel=0 note=76 velocity=0 time=25
the msg is note_on channel=0 note=76 velocity=100 time=0
the msg is note_off channel=0 note=79 velocity=0 time=25
the msg is note_on channel=0 note=79 velocity=100 time=0
the msg is note_off channel=0 note=79 velocity=0 time=12
the msg is note_on channel=0 note=79 velocity=100 time=0
the msg is note_off channel=0 note=76 velocity=0 time=12
the msg is note_on channel=0 note=76 velocity=100 time=0
the msg is note_off channel=0 note=74 velocity=0 time=12
the msg is note_on channel=0 note=74 velocity=100 time=0
the msg is note_off channel=0 note=72 velocity=0 time=12
the msg is note_on channel=0 note=72 velocity=100 time=0
the msg is note_off channel=0 note=74 velocity=0 time=25
the msg is note_on channel=0 note=74 velocity=100 time=0
the msg is note_off channel=0 note=74 velocity=0 time=12
the msg is note_on channel=0 note=74 velocity=100 time=0
the msg is note_off channel=0 note=74 velocity=0 time=12
the msg is note_on channel=0 note=74 velocity=100 time=0
the msg is note_off channel=0 note=74 velocity=0 time=25
the msg is note_on channel=0 note=74 velocity=100 time=0
the msg is note_off channel=0 note=74 velocity=0 time=25
the msg is note_on channel=0 note=74 velocity=100 time=0
the msg is note_off channel=0 note=76 velocity=0 time=25
the msg is note_on channel=0 note=76 velocity=100 time=0
the msg is note_off channel=0 note=79 velocity=0 time=25
the msg is note_on channel=0 note=79 velocity=100 time=0
the msg is note_off channel=0 note=79 velocity=0 time=12
the msg is note_on channel=0 note=79 velocity=100 time=0
the msg is note_off channel=0 note=76 velocity=0 time=12
the msg is note_on channel=0 note=76 velocity=100 time=0
the msg is note_off channel=0 note=74 velocity=0 time=12
the msg is note_on channel=0 note=74 velocity=100 time=0
the msg is note_off channel=0 note=72 velocity=0 time=12
the msg is note_on channel=0 note=72 velocity=100 time=0
the msg is note_off channel=0 note=72 velocity=0 time=81
the msg is note_on channel=0 note=72 velocity=100 time=0
the msg is note_off channel=0 note=72 velocity=0 time=8
the msg is note_on channel=0 note=72 velocity=100 time=0
the msg is note_off channel=0 note=74 velocity=0 time=25
the msg is note_on channel=0 note=74 velocity=100 time=0
the msg is note_off channel=0 note=74 velocity=0 time=25
the msg is note_on channel=0 note=74 velocity=100 time=0
the msg is note_off channel=0 note=74 velocity=0 time=25
the msg is note_on channel=0 note=74 velocity=100 time=0
the msg is note_off channel=0 note=74 velocity=0 time=25
the msg is note_on channel=0 note=74 velocity=100 time=0
the msg is note_off channel=0 note=74 velocity=0 time=25
the msg is note_on channel=0 note=74 velocity=100 time=0
the msg is note_off channel=0 note=74 velocity=0 time=25
the msg is note_on channel=0 note=74 velocity=100 time=0
the msg is note_off channel=0 note=76 velocity=0 time=25
the msg is note_on channel=0 note=76 velocity=100 time=0
the msg is note_off channel=0 note=79 velocity=0 time=25
the msg is note_on channel=0 note=79 velocity=100 time=0
the msg is note_off channel=0 note=79 velocity=0 time=12
the msg is note_on channel=0 note=79 velocity=100 time=0
the msg is note_off channel=0 note=76 velocity=0 time=12
the msg is note_on channel=0 note=76 velocity=100 time=0
the msg is note_off channel=0 note=74 velocity=0 time=17
the msg is note_on channel=0 note=74 velocity=100 time=0
the msg is note_off channel=0 note=72 velocity=0 time=8
the msg is note_on channel=0 note=72 velocity=100 time=0
the msg is note_off channel=0 note=72 velocity=0 time=25
the msg is note_on channel=0 note=72 velocity=100 time=0
the msg is note_off channel=0 note=72 velocity=0 time=25
the msg is note_on channel=0 note=72 velocity=100 time=0
the msg is note_off channel=0 note=72 velocity=0 time=12
the msg is note_on channel=0 note=72 velocity=100 time=0
the msg is note_off channel=0 note=72 velocity=0 time=29
the msg is note_on channel=0 note=72 velocity=100 time=0
the msg is note_off channel=0 note=72 velocity=0 time=8
the msg is note_on channel=0 note=72 velocity=100 time=0
the msg is note_off channel=0 note=72 velocity=0 time=25
the msg is note_on channel=0 note=72 velocity=100 time=0
the msg is note_off channel=0 note=72 velocity=0 time=12
the msg is note_on channel=0 note=72 velocity=100 time=0
the msg is note_off channel=0 note=72 velocity=0 time=12
the msg is note_on channel=0 note=72 velocity=100 time=0
the msg is note_off channel=0 note=72 velocity=0 time=12
the msg is note_on channel=0 note=72 velocity=100 time=0
the msg is note_off channel=0 note=76 velocity=0 time=12
the msg is note_on channel=0 note=76 velocity=100 time=0
the msg is note_off channel=0 note=79 velocity=0 time=25
the msg is note_on channel=0 note=79 velocity=100 time=0
the msg is note_off channel=0 note=79 velocity=0 time=12
the msg is note_on channel=0 note=79 velocity=100 time=0
the msg is note_off channel=0 note=76 velocity=0 time=12
the msg is note_on channel=0 note=76 velocity=100 time=0
the msg is note_off channel=0 note=74 velocity=0 time=12
the msg is note_on channel=0 note=74 velocity=100 time=0
the msg is note_off channel=0 note=72 velocity=0 time=12
the msg is note_on channel=0 note=72 velocity=100 time=0
the msg is note_off channel=0 note=72 velocity=0 time=76
the msg is note_on channel=0 note=72 velocity=100 time=0
the msg is note_off channel=0 note=72 velocity=0 time=12
the msg is note_on channel=0 note=72 velocity=100 time=0
the msg is note_off channel=0 note=72 velocity=0 time=12
the msg is note_on channel=0 note=72 velocity=100 time=0
the msg is note_off channel=0 note=72 velocity=0 time=8
the msg is note_on channel=0 note=72 velocity=100 time=0
the msg is note_off channel=0 note=72 velocity=0 time=17
the msg is note_on channel=0 note=72 velocity=100 time=0
the msg is note_off channel=0 note=72 velocity=0 time=12
the msg is note_on channel=0 note=72 velocity=100 time=0
the msg is note_off channel=0 note=72 velocity=0 time=12
the msg is note_on channel=0 note=72 velocity=100 time=0
the msg is note_off channel=0 note=76 velocity=0 time=8
the msg is note_on channel=0 note=76 velocity=100 time=0
the msg is note_off channel=0 note=79 velocity=0 time=29
the msg is note_on channel=0 note=79 velocity=100 time=0
the msg is note_off channel=0 note=79 velocity=0 time=12
the msg is note_on channel=0 note=79 velocity=100 time=0
the msg is note_off channel=0 note=76 velocity=0 time=8
the msg is note_on channel=0 note=76 velocity=100 time=0
the msg is note_off channel=0 note=74 velocity=0 time=17
the msg is note_on channel=0 note=74 velocity=100 time=0
the msg is <meta message end_of_track time=51>
the msg is <meta message track_name name='Piano' time=0>
the msg is program_change channel=0 program=0 time=0
the msg is note_off channel=0 note=72 velocity=0 time=0
the msg is pitchwheel channel=0 pitch=0 time=0
the msg is program_change channel=0 program=0 time=0
the msg is <meta message set_tempo tempo=500000 time=0>
the msg is <meta message time_signature numerator=4 denominator=4 clocks_per_click=24 notated_32nd_notes_per_beat=8 time=0>
the msg is note_on channel=0 note=72 velocity=100 time=0
the msg is note_off channel=0 note=74 velocity=0 time=34
the msg is note_on channel=0 note=74 velocity=100 time=0
the msg is note_off channel=0 note=74 velocity=0 time=17
the msg is note_on channel=0 note=74 velocity=100 time=0
the msg is note_off channel=0 note=74 velocity=0 time=34
the msg is note_on channel=0 note=74 velocity=100 time=0
the msg is note_off channel=0 note=74 velocity=0 time=17
the msg is note_on channel=0 note=74 velocity=100 time=0
the msg is note_off channel=0 note=76 velocity=0 time=34
the msg is note_on channel=0 note=76 velocity=100 time=0
the msg is note_off channel=0 note=79 velocity=0 time=17
the msg is note_on channel=0 note=79 velocity=100 time=0
the msg is note_off channel=0 note=79 velocity=0 time=17
the msg is note_on channel=0 note=79 velocity=100 time=0
the msg is note_off channel=0 note=76 velocity=0 time=17
the msg is note_on channel=0 note=76 velocity=100 time=0
the msg is note_off channel=0 note=74 velocity=0 time=4
the msg is note_on channel=0 note=74 velocity=100 time=0
the msg is note_off channel=0 note=72 velocity=0 time=12
the msg is note_on channel=0 note=72 velocity=100 time=0
the msg is note_off channel=0 note=72 velocity=0 time=89
the msg is note_on channel=0 note=72 velocity=100 time=0
the msg is note_off channel=0 note=72 velocity=0 time=12
the msg is note_on channel=0 note=72 velocity=100 time=0
the msg is note_off channel=0 note=74 velocity=0 time=25
the msg is note_on channel=0 note=74 velocity=100 time=0
the msg is note_off channel=0 note=74 velocity=0 time=25
the msg is note_on channel=0 note=74 velocity=100 time=0
the msg is note_off channel=0 note=74 velocity=0 time=12
the msg is note_on channel=0 note=74 velocity=100 time=0
the msg is note_off channel=0 note=76 velocity=0 time=25
the msg is note_on channel=0 note=76 velocity=100 time=0
the msg is note_off channel=0 note=79 velocity=0 time=25
the msg is note_on channel=0 note=79 velocity=100 time=0
the msg is note_off channel=0 note=79 velocity=0 time=12
the msg is note_on channel=0 note=79 velocity=100 time=0
the msg is note_off channel=0 note=76 velocity=0 time=12
the msg is note_on channel=0 note=76 velocity=100 time=0
the msg is note_off channel=0 note=74 velocity=0 time=12
the msg is note_on channel=0 note=74 velocity=100 time=0
the msg is note_off channel=0 note=72 velocity=0 time=12
the msg is note_on channel=0 note=72 velocity=100 time=0
the msg is note_off channel=0 note=74 velocity=0 time=25
the msg is note_on channel=0 note=74 velocity=100 time=0
the msg is note_off channel=0 note=76 velocity=0 time=25
the msg is note_on channel=0 note=76 velocity=100 time=0
the msg is note_off channel=0 note=79 velocity=0 time=25
the msg is note_on channel=0 note=79 velocity=100 time=0
the msg is note_off channel=0 note=79 velocity=0 time=12
the msg is note_on channel=0 note=79 velocity=100 time=0
the msg is note_off channel=0 note=76 velocity=0 time=12
the msg is note_on channel=0 note=76 velocity=100 time=0
the msg is note_off channel=0 note=74 velocity=0 time=12
the msg is note_on channel=0 note=74 velocity=100 time=0
the msg is note_off channel=0 note=72 velocity=0 time=12
the msg is note_on channel=0 note=72 velocity=100 time=0
the msg is note_off channel=0 note=74 velocity=0 time=25
the msg is note_on channel=0 note=74 velocity=100 time=0
the msg is note_off channel=0 note=74 velocity=0 time=12
the msg is note_on channel=0 note=74 velocity=100 time=0
the msg is note_off channel=0 note=74 velocity=0 time=12
the msg is note_on channel=0 note=74 velocity=100 time=0
the msg is note_off channel=0 note=74 velocity=0 time=25
the msg is note_on channel=0 note=74 velocity=100 time=0
the msg is note_off channel=0 note=74 velocity=0 time=25
the msg is note_on channel=0 note=74 velocity=100 time=0
the msg is note_off channel=0 note=76 velocity=0 time=25
the msg is note_on channel=0 note=76 velocity=100 time=0
the msg is note_off channel=0 note=79 velocity=0 time=25
the msg is note_on channel=0 note=79 velocity=100 time=0
the msg is note_off channel=0 note=79 velocity=0 time=12
the msg is note_on channel=0 note=79 velocity=100 time=0
the msg is note_off channel=0 note=76 velocity=0 time=12
the msg is note_on channel=0 note=76 velocity=100 time=0
the msg is note_off channel=0 note=74 velocity=0 time=12
the msg is note_on channel=0 note=74 velocity=100 time=0
the msg is note_off channel=0 note=72 velocity=0 time=12
the msg is note_on channel=0 note=72 velocity=100 time=0
the msg is note_off channel=0 note=72 velocity=0 time=81
the msg is note_on channel=0 note=72 velocity=100 time=0
the msg is note_off channel=0 note=72 velocity=0 time=8
the msg is note_on channel=0 note=72 velocity=100 time=0
the msg is note_off channel=0 note=74 velocity=0 time=25
the msg is note_on channel=0 note=74 velocity=100 time=0
the msg is note_off channel=0 note=74 velocity=0 time=25
the msg is note_on channel=0 note=74 velocity=100 time=0
the msg is note_off channel=0 note=74 velocity=0 time=25
the msg is note_on channel=0 note=74 velocity=100 time=0
the msg is note_off channel=0 note=74 velocity=0 time=25
the msg is note_on channel=0 note=74 velocity=100 time=0
the msg is note_off channel=0 note=74 velocity=0 time=25
the msg is note_on channel=0 note=74 velocity=100 time=0
the msg is note_off channel=0 note=74 velocity=0 time=25
the msg is note_on channel=0 note=74 velocity=100 time=0
the msg is note_off channel=0 note=76 velocity=0 time=25
the msg is note_on channel=0 note=76 velocity=100 time=0
the msg is note_off channel=0 note=79 velocity=0 time=25
the msg is note_on channel=0 note=79 velocity=100 time=0
the msg is note_off channel=0 note=79 velocity=0 time=12
the msg is note_on channel=0 note=79 velocity=100 time=0
the msg is note_off channel=0 note=76 velocity=0 time=12
the msg is note_on channel=0 note=76 velocity=100 time=0
the msg is note_off channel=0 note=74 velocity=0 time=17
the msg is note_on channel=0 note=74 velocity=100 time=0
the msg is note_off channel=0 note=72 velocity=0 time=8
the msg is note_on channel=0 note=72 velocity=100 time=0
the msg is note_off channel=0 note=72 velocity=0 time=25
the msg is note_on channel=0 note=72 velocity=100 time=0
the msg is note_off channel=0 note=72 velocity=0 time=25
the msg is note_on channel=0 note=72 velocity=100 time=0
the msg is note_off channel=0 note=72 velocity=0 time=12
the msg is note_on channel=0 note=72 velocity=100 time=0
the msg is note_off channel=0 note=72 velocity=0 time=29
the msg is note_on channel=0 note=72 velocity=100 time=0
the msg is note_off channel=0 note=72 velocity=0 time=8
the msg is note_on channel=0 note=72 velocity=100 time=0
the msg is note_off channel=0 note=72 velocity=0 time=25
the msg is note_on channel=0 note=72 velocity=100 time=0
the msg is note_off channel=0 note=72 velocity=0 time=12
the msg is note_on channel=0 note=72 velocity=100 time=0
the msg is note_off channel=0 note=72 velocity=0 time=12
the msg is note_on channel=0 note=72 velocity=100 time=0
the msg is note_off channel=0 note=72 velocity=0 time=12
the msg is note_on channel=0 note=72 velocity=100 time=0
the msg is note_off channel=0 note=76 velocity=0 time=12
the msg is note_on channel=0 note=76 velocity=100 time=0
the msg is note_off channel=0 note=79 velocity=0 time=25
the msg is note_on channel=0 note=79 velocity=100 time=0
the msg is note_off channel=0 note=79 velocity=0 time=12
the msg is note_on channel=0 note=79 velocity=100 time=0
the msg is note_off channel=0 note=76 velocity=0 time=12
the msg is note_on channel=0 note=76 velocity=100 time=0
the msg is note_off channel=0 note=74 velocity=0 time=12
the msg is note_on channel=0 note=74 velocity=100 time=0
the msg is note_off channel=0 note=72 velocity=0 time=12
the msg is note_on channel=0 note=72 velocity=100 time=0
the msg is note_off channel=0 note=72 velocity=0 time=76
the msg is note_on channel=0 note=72 velocity=100 time=0
the msg is note_off channel=0 note=72 velocity=0 time=12
the msg is note_on channel=0 note=72 velocity=100 time=0
the msg is note_off channel=0 note=72 velocity=0 time=12
the msg is note_on channel=0 note=72 velocity=100 time=0
the msg is note_off channel=0 note=72 velocity=0 time=8
the msg is note_on channel=0 note=72 velocity=100 time=0
the msg is note_off channel=0 note=72 velocity=0 time=17
the msg is note_on channel=0 note=72 velocity=100 time=0
the msg is note_off channel=0 note=72 velocity=0 time=12
the msg is note_on channel=0 note=72 velocity=100 time=0
the msg is note_off channel=0 note=72 velocity=0 time=12
the msg is note_on channel=0 note=72 velocity=100 time=0
the msg is note_off channel=0 note=76 velocity=0 time=8
the msg is note_on channel=0 note=76 velocity=100 time=0
the msg is note_off channel=0 note=79 velocity=0 time=29
the msg is note_on channel=0 note=79 velocity=100 time=0
the msg is note_off channel=0 note=79 velocity=0 time=12
the msg is note_on channel=0 note=79 velocity=100 time=0
the msg is note_off channel=0 note=76 velocity=0 time=8
the msg is note_on channel=0 note=76 velocity=100 time=0
the msg is note_off channel=0 note=74 velocity=0 time=17
the msg is note_on channel=0 note=74 velocity=100 time=0
the msg is <meta message end_of_track time=51>
the msg is <meta message track_name name='Piano' time=0>
the msg is program_change channel=0 program=0 time=0
the msg is note_off channel=0 note=72 velocity=0 time=0
the msg is pitchwheel channel=0 pitch=0 time=0
the msg is program_change channel=0 program=0 time=0
the msg is <meta message set_tempo tempo=500000 time=0>
the msg is <meta message time_signature numerator=4 denominator=4 clocks_per_click=24 notated_32nd_notes_per_beat=8 time=0>
the msg is note_on channel=0 note=72 velocity=100 time=0
the msg is note_off channel=0 note=74 velocity=0 time=34
the msg is note_on channel=0 note=74 velocity=100 time=0
the msg is note_off channel=0 note=74 velocity=0 time=17
the msg is note_on channel=0 note=74 velocity=100 time=0
the msg is note_off channel=0 note=74 velocity=0 time=34
the msg is note_on channel=0 note=74 velocity=100 time=0
the msg is note_off channel=0 note=74 velocity=0 time=17
the msg is note_on channel=0 note=74 velocity=100 time=0
the msg is note_off channel=0 note=76 velocity=0 time=34
the msg is note_on channel=0 note=76 velocity=100 time=0
the msg is note_off channel=0 note=79 velocity=0 time=17
the msg is note_on channel=0 note=79 velocity=100 time=0
the msg is note_off channel=0 note=79 velocity=0 time=17
the msg is note_on channel=0 note=79 velocity=100 time=0
the msg is note_off channel=0 note=76 velocity=0 time=17
the msg is note_on channel=0 note=76 velocity=100 time=0
the msg is note_off channel=0 note=74 velocity=0 time=4
the msg is note_on channel=0 note=74 velocity=100 time=0
the msg is note_off channel=0 note=72 velocity=0 time=12
the msg is note_on channel=0 note=72 velocity=100 time=0
the msg is note_off channel=0 note=72 velocity=0 time=89
the msg is note_on channel=0 note=72 velocity=100 time=0
the msg is note_off channel=0 note=72 velocity=0 time=12
the msg is note_on channel=0 note=72 velocity=100 time=0
the msg is note_off channel=0 note=74 velocity=0 time=25
the msg is note_on channel=0 note=74 velocity=100 time=0
the msg is note_off channel=0 note=74 velocity=0 time=25
the msg is note_on channel=0 note=74 velocity=100 time=0
the msg is note_off channel=0 note=74 velocity=0 time=12
the msg is note_on channel=0 note=74 velocity=100 time=0
the msg is note_off channel=0 note=76 velocity=0 time=25
the msg is note_on channel=0 note=76 velocity=100 time=0
the msg is note_off channel=0 note=79 velocity=0 time=25
the msg is note_on channel=0 note=79 velocity=100 time=0
the msg is note_off channel=0 note=79 velocity=0 time=12
the msg is note_on channel=0 note=79 velocity=100 time=0
the msg is note_off channel=0 note=76 velocity=0 time=12
the msg is note_on channel=0 note=76 velocity=100 time=0
the msg is note_off channel=0 note=74 velocity=0 time=12
the msg is note_on channel=0 note=74 velocity=100 time=0
the msg is note_off channel=0 note=72 velocity=0 time=12
the msg is note_on channel=0 note=72 velocity=100 time=0
the msg is note_off channel=0 note=74 velocity=0 time=25
the msg is note_on channel=0 note=74 velocity=100 time=0
the msg is note_off channel=0 note=76 velocity=0 time=25
the msg is note_on channel=0 note=76 velocity=100 time=0
the msg is note_off channel=0 note=79 velocity=0 time=25
the msg is note_on channel=0 note=79 velocity=100 time=0
the msg is note_off channel=0 note=79 velocity=0 time=12
the msg is note_on channel=0 note=79 velocity=100 time=0
the msg is note_off channel=0 note=76 velocity=0 time=12
the msg is note_on channel=0 note=76 velocity=100 time=0
the msg is note_off channel=0 note=74 velocity=0 time=12
the msg is note_on channel=0 note=74 velocity=100 time=0
the msg is note_off channel=0 note=72 velocity=0 time=12
the msg is note_on channel=0 note=72 velocity=100 time=0
the msg is note_off channel=0 note=74 velocity=0 time=25
the msg is note_on channel=0 note=74 velocity=100 time=0
the msg is note_off channel=0 note=74 velocity=0 time=12
the msg is note_on channel=0 note=74 velocity=100 time=0
the msg is note_off channel=0 note=74 velocity=0 time=12
the msg is note_on channel=0 note=74 velocity=100 time=0
the msg is note_off channel=0 note=74 velocity=0 time=25
the msg is note_on channel=0 note=74 velocity=100 time=0
the msg is note_off channel=0 note=74 velocity=0 time=25
the msg is note_on channel=0 note=74 velocity=100 time=0
the msg is note_off channel=0 note=76 velocity=0 time=25
the msg is note_on channel=0 note=76 velocity=100 time=0
the msg is note_off channel=0 note=79 velocity=0 time=25
the msg is note_on channel=0 note=79 velocity=100 time=0
the msg is note_off channel=0 note=79 velocity=0 time=12
the msg is note_on channel=0 note=79 velocity=100 time=0
the msg is note_off channel=0 note=76 velocity=0 time=12
the msg is note_on channel=0 note=76 velocity=100 time=0
the msg is note_off channel=0 note=74 velocity=0 time=12
the msg is note_on channel=0 note=74 velocity=100 time=0
the msg is note_off channel=0 note=72 velocity=0 time=12
the msg is note_on channel=0 note=72 velocity=100 time=0
the msg is note_off channel=0 note=72 velocity=0 time=81
the msg is note_on channel=0 note=72 velocity=100 time=0
the msg is note_off channel=0 note=72 velocity=0 time=8
the msg is note_on channel=0 note=72 velocity=100 time=0
the msg is note_off channel=0 note=74 velocity=0 time=25
the msg is note_on channel=0 note=74 velocity=100 time=0
the msg is note_off channel=0 note=74 velocity=0 time=25
the msg is note_on channel=0 note=74 velocity=100 time=0
the msg is note_off channel=0 note=74 velocity=0 time=25
the msg is note_on channel=0 note=74 velocity=100 time=0
the msg is note_off channel=0 note=74 velocity=0 time=25
the msg is note_on channel=0 note=74 velocity=100 time=0
the msg is note_off channel=0 note=74 velocity=0 time=25
the msg is note_on channel=0 note=74 velocity=100 time=0
the msg is note_off channel=0 note=74 velocity=0 time=25
the msg is note_on channel=0 note=74 velocity=100 time=0
the msg is note_off channel=0 note=76 velocity=0 time=25
the msg is note_on channel=0 note=76 velocity=100 time=0
the msg is note_off channel=0 note=79 velocity=0 time=25
the msg is note_on channel=0 note=79 velocity=100 time=0
the msg is note_off channel=0 note=79 velocity=0 time=12
the msg is note_on channel=0 note=79 velocity=100 time=0
the msg is note_off channel=0 note=76 velocity=0 time=12
the msg is note_on channel=0 note=76 velocity=100 time=0
the msg is note_off channel=0 note=74 velocity=0 time=17
the msg is note_on channel=0 note=74 velocity=100 time=0
the msg is note_off channel=0 note=72 velocity=0 time=8
the msg is note_on channel=0 note=72 velocity=100 time=0
the msg is note_off channel=0 note=72 velocity=0 time=25
the msg is note_on channel=0 note=72 velocity=100 time=0
the msg is note_off channel=0 note=72 velocity=0 time=25
the msg is note_on channel=0 note=72 velocity=100 time=0
the msg is note_off channel=0 note=72 velocity=0 time=12
the msg is note_on channel=0 note=72 velocity=100 time=0
the msg is note_off channel=0 note=72 velocity=0 time=29
the msg is note_on channel=0 note=72 velocity=100 time=0
the msg is note_off channel=0 note=72 velocity=0 time=8
the msg is note_on channel=0 note=72 velocity=100 time=0
the msg is note_off channel=0 note=72 velocity=0 time=25
the msg is note_on channel=0 note=72 velocity=100 time=0
the msg is note_off channel=0 note=72 velocity=0 time=12
the msg is note_on channel=0 note=72 velocity=100 time=0
the msg is note_off channel=0 note=72 velocity=0 time=12
the msg is note_on channel=0 note=72 velocity=100 time=0
the msg is note_off channel=0 note=72 velocity=0 time=12
the msg is note_on channel=0 note=72 velocity=100 time=0
the msg is note_off channel=0 note=76 velocity=0 time=12
the msg is note_on channel=0 note=76 velocity=100 time=0
the msg is note_off channel=0 note=79 velocity=0 time=25
the msg is note_on channel=0 note=79 velocity=100 time=0
the msg is note_off channel=0 note=79 velocity=0 time=12
the msg is note_on channel=0 note=79 velocity=100 time=0
the msg is note_off channel=0 note=76 velocity=0 time=12
the msg is note_on channel=0 note=76 velocity=100 time=0
the msg is note_off channel=0 note=74 velocity=0 time=12
the msg is note_on channel=0 note=74 velocity=100 time=0
the msg is note_off channel=0 note=72 velocity=0 time=12
the msg is note_on channel=0 note=72 velocity=100 time=0
the msg is note_off channel=0 note=72 velocity=0 time=76
the msg is note_on channel=0 note=72 velocity=100 time=0
the msg is note_off channel=0 note=72 velocity=0 time=12
the msg is note_on channel=0 note=72 velocity=100 time=0
the msg is note_off channel=0 note=72 velocity=0 time=12
the msg is note_on channel=0 note=72 velocity=100 time=0
the msg is note_off channel=0 note=72 velocity=0 time=8
the msg is note_on channel=0 note=72 velocity=100 time=0
the msg is note_off channel=0 note=72 velocity=0 time=17
the msg is note_on channel=0 note=72 velocity=100 time=0
the msg is note_off channel=0 note=72 velocity=0 time=12
the msg is note_on channel=0 note=72 velocity=100 time=0
the msg is note_off channel=0 note=72 velocity=0 time=12
the msg is note_on channel=0 note=72 velocity=100 time=0
the msg is note_off channel=0 note=76 velocity=0 time=8
the msg is note_on channel=0 note=76 velocity=100 time=0
the msg is note_off channel=0 note=79 velocity=0 time=29
the msg is note_on channel=0 note=79 velocity=100 time=0
the msg is note_off channel=0 note=79 velocity=0 time=12
the msg is note_on channel=0 note=79 velocity=100 time=0
the msg is note_off channel=0 note=76 velocity=0 time=8
the msg is note_on channel=0 note=76 velocity=100 time=0
the msg is note_off channel=0 note=74 velocity=0 time=17
the msg is note_on channel=0 note=74 velocity=100 time=0
the msg is <meta message end_of_track time=51>
the msg is <meta message track_name name='Piano' time=0>
the msg is program_change channel=0 program=0 time=0
the msg is note_off channel=0 note=72 velocity=0 time=0
the msg is pitchwheel channel=0 pitch=0 time=0
the msg is program_change channel=0 program=0 time=0
the msg is <meta message set_tempo tempo=500000 time=0>
the msg is <meta message time_signature numerator=4 denominator=4 clocks_per_click=24 notated_32nd_notes_per_beat=8 time=0>
the msg is note_on channel=0 note=72 velocity=100 time=0
the msg is note_off channel=0 note=74 velocity=0 time=34
the msg is note_on channel=0 note=74 velocity=100 time=0
the msg is note_off channel=0 note=74 velocity=0 time=17
the msg is note_on channel=0 note=74 velocity=100 time=0
the msg is note_off channel=0 note=74 velocity=0 time=34
the msg is note_on channel=0 note=74 velocity=100 time=0
the msg is note_off channel=0 note=74 velocity=0 time=17
the msg is note_on channel=0 note=74 velocity=100 time=0
the msg is note_off channel=0 note=76 velocity=0 time=34
the msg is note_on channel=0 note=76 velocity=100 time=0
the msg is note_off channel=0 note=79 velocity=0 time=17
the msg is note_on channel=0 note=79 velocity=100 time=0
the msg is note_off channel=0 note=79 velocity=0 time=17
the msg is note_on channel=0 note=79 velocity=100 time=0
the msg is note_off channel=0 note=76 velocity=0 time=17
the msg is note_on channel=0 note=76 velocity=100 time=0
the msg is note_off channel=0 note=74 velocity=0 time=4
the msg is note_on channel=0 note=74 velocity=100 time=0
the msg is note_off channel=0 note=72 velocity=0 time=12
the msg is note_on channel=0 note=72 velocity=100 time=0
the msg is note_off channel=0 note=72 velocity=0 time=89
the msg is note_on channel=0 note=72 velocity=100 time=0
the msg is note_off channel=0 note=72 velocity=0 time=12
the msg is note_on channel=0 note=72 velocity=100 time=0
the msg is note_off channel=0 note=74 velocity=0 time=25
the msg is note_on channel=0 note=74 velocity=100 time=0
the msg is note_off channel=0 note=74 velocity=0 time=25
the msg is note_on channel=0 note=74 velocity=100 time=0
the msg is note_off channel=0 note=74 velocity=0 time=12
the msg is note_on channel=0 note=74 velocity=100 time=0
the msg is note_off channel=0 note=76 velocity=0 time=25
the msg is note_on channel=0 note=76 velocity=100 time=0
the msg is note_off channel=0 note=79 velocity=0 time=25
the msg is note_on channel=0 note=79 velocity=100 time=0
the msg is note_off channel=0 note=79 velocity=0 time=12
the msg is note_on channel=0 note=79 velocity=100 time=0
the msg is note_off channel=0 note=76 velocity=0 time=12
the msg is note_on channel=0 note=76 velocity=100 time=0
the msg is note_off channel=0 note=74 velocity=0 time=12
the msg is note_on channel=0 note=74 velocity=100 time=0
the msg is note_off channel=0 note=72 velocity=0 time=12
the msg is note_on channel=0 note=72 velocity=100 time=0
the msg is note_off channel=0 note=74 velocity=0 time=25
the msg is note_on channel=0 note=74 velocity=100 time=0
the msg is note_off channel=0 note=76 velocity=0 time=25
the msg is note_on channel=0 note=76 velocity=100 time=0
the msg is note_off channel=0 note=79 velocity=0 time=25
the msg is note_on channel=0 note=79 velocity=100 time=0
the msg is note_off channel=0 note=79 velocity=0 time=12
the msg is note_on channel=0 note=79 velocity=100 time=0
the msg is note_off channel=0 note=76 velocity=0 time=12
the msg is note_on channel=0 note=76 velocity=100 time=0
the msg is note_off channel=0 note=74 velocity=0 time=12
the msg is note_on channel=0 note=74 velocity=100 time=0
the msg is note_off channel=0 note=72 velocity=0 time=12
the msg is note_on channel=0 note=72 velocity=100 time=0
the msg is note_off channel=0 note=74 velocity=0 time=25
the msg is note_on channel=0 note=74 velocity=100 time=0
the msg is note_off channel=0 note=74 velocity=0 time=12
the msg is note_on channel=0 note=74 velocity=100 time=0
the msg is note_off channel=0 note=74 velocity=0 time=12
the msg is note_on channel=0 note=74 velocity=100 time=0
the msg is note_off channel=0 note=74 velocity=0 time=25
the msg is note_on channel=0 note=74 velocity=100 time=0
the msg is note_off channel=0 note=74 velocity=0 time=25
the msg is note_on channel=0 note=74 velocity=100 time=0
the msg is note_off channel=0 note=76 velocity=0 time=25
the msg is note_on channel=0 note=76 velocity=100 time=0
the msg is note_off channel=0 note=79 velocity=0 time=25
the msg is note_on channel=0 note=79 velocity=100 time=0
the msg is note_off channel=0 note=79 velocity=0 time=12
the msg is note_on channel=0 note=79 velocity=100 time=0
the msg is note_off channel=0 note=76 velocity=0 time=12
the msg is note_on channel=0 note=76 velocity=100 time=0
the msg is note_off channel=0 note=74 velocity=0 time=12
the msg is note_on channel=0 note=74 velocity=100 time=0
the msg is note_off channel=0 note=72 velocity=0 time=12
the msg is note_on channel=0 note=72 velocity=100 time=0
the msg is note_off channel=0 note=72 velocity=0 time=81
the msg is note_on channel=0 note=72 velocity=100 time=0
the msg is note_off channel=0 note=72 velocity=0 time=8
the msg is note_on channel=0 note=72 velocity=100 time=0
the msg is note_off channel=0 note=74 velocity=0 time=25
the msg is note_on channel=0 note=74 velocity=100 time=0
the msg is note_off channel=0 note=74 velocity=0 time=25
the msg is note_on channel=0 note=74 velocity=100 time=0
the msg is note_off channel=0 note=74 velocity=0 time=25
the msg is note_on channel=0 note=74 velocity=100 time=0
the msg is note_off channel=0 note=74 velocity=0 time=25
the msg is note_on channel=0 note=74 velocity=100 time=0
the msg is note_off channel=0 note=74 velocity=0 time=25
the msg is note_on channel=0 note=74 velocity=100 time=0
the msg is note_off channel=0 note=74 velocity=0 time=25
the msg is note_on channel=0 note=74 velocity=100 time=0
the msg is note_off channel=0 note=76 velocity=0 time=25
the msg is note_on channel=0 note=76 velocity=100 time=0
the msg is note_off channel=0 note=79 velocity=0 time=25
the msg is note_on channel=0 note=79 velocity=100 time=0
the msg is note_off channel=0 note=79 velocity=0 time=12
the msg is note_on channel=0 note=79 velocity=100 time=0
the msg is note_off channel=0 note=76 velocity=0 time=12
the msg is note_on channel=0 note=76 velocity=100 time=0
the msg is note_off channel=0 note=74 velocity=0 time=17
the msg is note_on channel=0 note=74 velocity=100 time=0
the msg is note_off channel=0 note=72 velocity=0 time=8
the msg is note_on channel=0 note=72 velocity=100 time=0
the msg is note_off channel=0 note=72 velocity=0 time=25
the msg is note_on channel=0 note=72 velocity=100 time=0
the msg is note_off channel=0 note=72 velocity=0 time=25
the msg is note_on channel=0 note=72 velocity=100 time=0
the msg is note_off channel=0 note=72 velocity=0 time=12
the msg is note_on channel=0 note=72 velocity=100 time=0
the msg is note_off channel=0 note=72 velocity=0 time=29
the msg is note_on channel=0 note=72 velocity=100 time=0
the msg is note_off channel=0 note=72 velocity=0 time=8
the msg is note_on channel=0 note=72 velocity=100 time=0
the msg is note_off channel=0 note=72 velocity=0 time=25
the msg is note_on channel=0 note=72 velocity=100 time=0
the msg is note_off channel=0 note=72 velocity=0 time=12
the msg is note_on channel=0 note=72 velocity=100 time=0
the msg is note_off channel=0 note=72 velocity=0 time=12
the msg is note_on channel=0 note=72 velocity=100 time=0
the msg is note_off channel=0 note=72 velocity=0 time=12
the msg is note_on channel=0 note=72 velocity=100 time=0
the msg is note_off channel=0 note=76 velocity=0 time=12
the msg is note_on channel=0 note=76 velocity=100 time=0
the msg is note_off channel=0 note=79 velocity=0 time=25
the msg is note_on channel=0 note=79 velocity=100 time=0
the msg is note_off channel=0 note=79 velocity=0 time=12
the msg is note_on channel=0 note=79 velocity=100 time=0
the msg is note_off channel=0 note=76 velocity=0 time=12
the msg is note_on channel=0 note=76 velocity=100 time=0
the msg is note_off channel=0 note=74 velocity=0 time=12
the msg is note_on channel=0 note=74 velocity=100 time=0
the msg is note_off channel=0 note=72 velocity=0 time=12
the msg is note_on channel=0 note=72 velocity=100 time=0
the msg is note_off channel=0 note=72 velocity=0 time=76
the msg is note_on channel=0 note=72 velocity=100 time=0
the msg is note_off channel=0 note=72 velocity=0 time=12
the msg is note_on channel=0 note=72 velocity=100 time=0
the msg is note_off channel=0 note=72 velocity=0 time=12
the msg is note_on channel=0 note=72 velocity=100 time=0
the msg is note_off channel=0 note=72 velocity=0 time=8
the msg is note_on channel=0 note=72 velocity=100 time=0
the msg is note_off channel=0 note=72 velocity=0 time=17
the msg is note_on channel=0 note=72 velocity=100 time=0
the msg is note_off channel=0 note=72 velocity=0 time=12
the msg is note_on channel=0 note=72 velocity=100 time=0
the msg is note_off channel=0 note=72 velocity=0 time=12
the msg is note_on channel=0 note=72 velocity=100 time=0
the msg is note_off channel=0 note=76 velocity=0 time=8
the msg is note_on channel=0 note=76 velocity=100 time=0
the msg is note_off channel=0 note=79 velocity=0 time=29
the msg is note_on channel=0 note=79 velocity=100 time=0
the msg is note_off channel=0 note=79 velocity=0 time=12
the msg is note_on channel=0 note=79 velocity=100 time=0
the msg is note_off channel=0 note=76 velocity=0 time=8
the msg is note_on channel=0 note=76 velocity=100 time=0
the msg is note_off channel=0 note=74 velocity=0 time=17
the msg is note_on channel=0 note=74 velocity=100 time=0
the msg is <meta message end_of_track time=51>
the msg is <meta message track_name name='Piano' time=0>
the msg is program_change channel=0 program=0 time=0
the msg is note_off channel=0 note=72 velocity=0 time=0
the msg is pitchwheel channel=0 pitch=0 time=0
the msg is program_change channel=0 program=0 time=0
the msg is <meta message set_tempo tempo=500000 time=0>
the msg is <meta message time_signature numerator=4 denominator=4 clocks_per_click=24 notated_32nd_notes_per_beat=8 time=0>
the msg is note_on channel=0 note=72 velocity=100 time=0
the msg is note_off channel=0 note=74 velocity=0 time=34
the msg is note_on channel=0 note=74 velocity=100 time=0
the msg is note_off channel=0 note=74 velocity=0 time=17
the msg is note_on channel=0 note=74 velocity=100 time=0
the msg is note_off channel=0 note=74 velocity=0 time=34
the msg is note_on channel=0 note=74 velocity=100 time=0
the msg is note_off channel=0 note=74 velocity=0 time=17
the msg is note_on channel=0 note=74 velocity=100 time=0
the msg is note_off channel=0 note=76 velocity=0 time=34
the msg is note_on channel=0 note=76 velocity=100 time=0
the msg is note_off channel=0 note=79 velocity=0 time=17
the msg is note_on channel=0 note=79 velocity=100 time=0
the msg is note_off channel=0 note=79 velocity=0 time=17
the msg is note_on channel=0 note=79 velocity=100 time=0
the msg is note_off channel=0 note=76 velocity=0 time=17
the msg is note_on channel=0 note=76 velocity=100 time=0
the msg is note_off channel=0 note=74 velocity=0 time=4
the msg is note_on channel=0 note=74 velocity=100 time=0
the msg is note_off channel=0 note=72 velocity=0 time=12
the msg is note_on channel=0 note=72 velocity=100 time=0
the msg is note_off channel=0 note=72 velocity=0 time=89
the msg is note_on channel=0 note=72 velocity=100 time=0
the msg is note_off channel=0 note=72 velocity=0 time=12
the msg is note_on channel=0 note=72 velocity=100 time=0
the msg is note_off channel=0 note=74 velocity=0 time=25
the msg is note_on channel=0 note=74 velocity=100 time=0
the msg is note_off channel=0 note=74 velocity=0 time=25
the msg is note_on channel=0 note=74 velocity=100 time=0
the msg is note_off channel=0 note=74 velocity=0 time=12
the msg is note_on channel=0 note=74 velocity=100 time=0
the msg is note_off channel=0 note=76 velocity=0 time=25
the msg is note_on channel=0 note=76 velocity=100 time=0
the msg is note_off channel=0 note=79 velocity=0 time=25
the msg is note_on channel=0 note=79 velocity=100 time=0
the msg is note_off channel=0 note=79 velocity=0 time=12
the msg is note_on channel=0 note=79 velocity=100 time=0
the msg is note_off channel=0 note=76 velocity=0 time=12
the msg is note_on channel=0 note=76 velocity=100 time=0
the msg is note_off channel=0 note=74 velocity=0 time=12
the msg is note_on channel=0 note=74 velocity=100 time=0
the msg is note_off channel=0 note=72 velocity=0 time=12
the msg is note_on channel=0 note=72 velocity=100 time=0
the msg is note_off channel=0 note=74 velocity=0 time=25
the msg is note_on channel=0 note=74 velocity=100 time=0
the msg is note_off channel=0 note=76 velocity=0 time=25
the msg is note_on channel=0 note=76 velocity=100 time=0
the msg is note_off channel=0 note=79 velocity=0 time=25
the msg is note_on channel=0 note=79 velocity=100 time=0
the msg is note_off channel=0 note=79 velocity=0 time=12
the msg is note_on channel=0 note=79 velocity=100 time=0
the msg is note_off channel=0 note=76 velocity=0 time=12
the msg is note_on channel=0 note=76 velocity=100 time=0
the msg is note_off channel=0 note=74 velocity=0 time=12
the msg is note_on channel=0 note=74 velocity=100 time=0
the msg is note_off channel=0 note=72 velocity=0 time=12
the msg is note_on channel=0 note=72 velocity=100 time=0
the msg is note_off channel=0 note=74 velocity=0 time=25
the msg is note_on channel=0 note=74 velocity=100 time=0
the msg is note_off channel=0 note=74 velocity=0 time=12
the msg is note_on channel=0 note=74 velocity=100 time=0
the msg is note_off channel=0 note=74 velocity=0 time=12
the msg is note_on channel=0 note=74 velocity=100 time=0
the msg is note_off channel=0 note=74 velocity=0 time=25
the msg is note_on channel=0 note=74 velocity=100 time=0
the msg is note_off channel=0 note=74 velocity=0 time=25
the msg is note_on channel=0 note=74 velocity=100 time=0
the msg is note_off channel=0 note=76 velocity=0 time=25
the msg is note_on channel=0 note=76 velocity=100 time=0
the msg is note_off channel=0 note=79 velocity=0 time=25
the msg is note_on channel=0 note=79 velocity=100 time=0
the msg is note_off channel=0 note=79 velocity=0 time=12
the msg is note_on channel=0 note=79 velocity=100 time=0
the msg is note_off channel=0 note=76 velocity=0 time=12
the msg is note_on channel=0 note=76 velocity=100 time=0
the msg is note_off channel=0 note=74 velocity=0 time=12
the msg is note_on channel=0 note=74 velocity=100 time=0
the msg is note_off channel=0 note=72 velocity=0 time=12
the msg is note_on channel=0 note=72 velocity=100 time=0
the msg is note_off channel=0 note=72 velocity=0 time=81
the msg is note_on channel=0 note=72 velocity=100 time=0
the msg is note_off channel=0 note=72 velocity=0 time=8
the msg is note_on channel=0 note=72 velocity=100 time=0
the msg is note_off channel=0 note=74 velocity=0 time=25
the msg is note_on channel=0 note=74 velocity=100 time=0
the msg is note_off channel=0 note=74 velocity=0 time=25
the msg is note_on channel=0 note=74 velocity=100 time=0
the msg is note_off channel=0 note=74 velocity=0 time=25
the msg is note_on channel=0 note=74 velocity=100 time=0
the msg is note_off channel=0 note=74 velocity=0 time=25
the msg is note_on channel=0 note=74 velocity=100 time=0
the msg is note_off channel=0 note=74 velocity=0 time=25
the msg is note_on channel=0 note=74 velocity=100 time=0
the msg is note_off channel=0 note=74 velocity=0 time=25
the msg is note_on channel=0 note=74 velocity=100 time=0
the msg is note_off channel=0 note=76 velocity=0 time=25
the msg is note_on channel=0 note=76 velocity=100 time=0
the msg is note_off channel=0 note=79 velocity=0 time=25
the msg is note_on channel=0 note=79 velocity=100 time=0
the msg is note_off channel=0 note=79 velocity=0 time=12
the msg is note_on channel=0 note=79 velocity=100 time=0
the msg is note_off channel=0 note=76 velocity=0 time=12
the msg is note_on channel=0 note=76 velocity=100 time=0
the msg is note_off channel=0 note=74 velocity=0 time=17
the msg is note_on channel=0 note=74 velocity=100 time=0
the msg is note_off channel=0 note=72 velocity=0 time=8
the msg is note_on channel=0 note=72 velocity=100 time=0
the msg is note_off channel=0 note=72 velocity=0 time=25
the msg is note_on channel=0 note=72 velocity=100 time=0
the msg is note_off channel=0 note=72 velocity=0 time=25
the msg is note_on channel=0 note=72 velocity=100 time=0
the msg is note_off channel=0 note=72 velocity=0 time=12
the msg is note_on channel=0 note=72 velocity=100 time=0
the msg is note_off channel=0 note=72 velocity=0 time=29
the msg is note_on channel=0 note=72 velocity=100 time=0
the msg is note_off channel=0 note=72 velocity=0 time=8
the msg is note_on channel=0 note=72 velocity=100 time=0
the msg is note_off channel=0 note=72 velocity=0 time=25
the msg is note_on channel=0 note=72 velocity=100 time=0
the msg is note_off channel=0 note=72 velocity=0 time=12
the msg is note_on channel=0 note=72 velocity=100 time=0
the msg is note_off channel=0 note=72 velocity=0 time=12
the msg is note_on channel=0 note=72 velocity=100 time=0
the msg is note_off channel=0 note=72 velocity=0 time=12
the msg is note_on channel=0 note=72 velocity=100 time=0
the msg is note_off channel=0 note=76 velocity=0 time=12
the msg is note_on channel=0 note=76 velocity=100 time=0
the msg is note_off channel=0 note=79 velocity=0 time=25
the msg is note_on channel=0 note=79 velocity=100 time=0
the msg is note_off channel=0 note=79 velocity=0 time=12
the msg is note_on channel=0 note=79 velocity=100 time=0
the msg is note_off channel=0 note=76 velocity=0 time=12
the msg is note_on channel=0 note=76 velocity=100 time=0
the msg is note_off channel=0 note=74 velocity=0 time=12
the msg is note_on channel=0 note=74 velocity=100 time=0
the msg is note_off channel=0 note=72 velocity=0 time=12
the msg is note_on channel=0 note=72 velocity=100 time=0
the msg is note_off channel=0 note=72 velocity=0 time=76
the msg is note_on channel=0 note=72 velocity=100 time=0
the msg is note_off channel=0 note=72 velocity=0 time=12
the msg is note_on channel=0 note=72 velocity=100 time=0
the msg is note_off channel=0 note=72 velocity=0 time=12
the msg is note_on channel=0 note=72 velocity=100 time=0
the msg is note_off channel=0 note=72 velocity=0 time=8
the msg is note_on channel=0 note=72 velocity=100 time=0
the msg is note_off channel=0 note=72 velocity=0 time=17
the msg is note_on channel=0 note=72 velocity=100 time=0
the msg is note_off channel=0 note=72 velocity=0 time=12
the msg is note_on channel=0 note=72 velocity=100 time=0
the msg is note_off channel=0 note=72 velocity=0 time=12
the msg is note_on channel=0 note=72 velocity=100 time=0
the msg is note_off channel=0 note=76 velocity=0 time=8
the msg is note_on channel=0 note=76 velocity=100 time=0
the msg is note_off channel=0 note=79 velocity=0 time=29
the msg is note_on channel=0 note=79 velocity=100 time=0
the msg is note_off channel=0 note=79 velocity=0 time=12
the msg is note_on channel=0 note=79 velocity=100 time=0
the msg is note_off channel=0 note=76 velocity=0 time=8
the msg is note_on channel=0 note=76 velocity=100 time=0
the msg is note_off channel=0 note=74 velocity=0 time=17
the msg is note_on channel=0 note=74 velocity=100 time=0
the msg is <meta message end_of_track time=51>
the msg is <meta message track_name name='Piano' time=0>
the msg is program_change channel=0 program=0 time=0
the msg is note_off channel=0 note=72 velocity=0 time=0
the msg is pitchwheel channel=0 pitch=0 time=0
the msg is program_change channel=0 program=0 time=0
the msg is <meta message set_tempo tempo=500000 time=0>
the msg is <meta message time_signature numerator=4 denominator=4 clocks_per_click=24 notated_32nd_notes_per_beat=8 time=0>
the msg is note_on channel=0 note=72 velocity=100 time=0
the msg is note_off channel=0 note=74 velocity=0 time=34
the msg is note_on channel=0 note=74 velocity=100 time=0
the msg is note_off channel=0 note=74 velocity=0 time=17
the msg is note_on channel=0 note=74 velocity=100 time=0
the msg is note_off channel=0 note=74 velocity=0 time=34
the msg is note_on channel=0 note=74 velocity=100 time=0
the msg is note_off channel=0 note=74 velocity=0 time=17
the msg is note_on channel=0 note=74 velocity=100 time=0
the msg is note_off channel=0 note=76 velocity=0 time=34
the msg is note_on channel=0 note=76 velocity=100 time=0
the msg is note_off channel=0 note=79 velocity=0 time=17
the msg is note_on channel=0 note=79 velocity=100 time=0
the msg is note_off channel=0 note=79 velocity=0 time=17
the msg is note_on channel=0 note=79 velocity=100 time=0
the msg is note_off channel=0 note=76 velocity=0 time=17
the msg is note_on channel=0 note=76 velocity=100 time=0
the msg is note_off channel=0 note=74 velocity=0 time=4
the msg is note_on channel=0 note=74 velocity=100 time=0
the msg is note_off channel=0 note=72 velocity=0 time=12
the msg is note_on channel=0 note=72 velocity=100 time=0
the msg is note_off channel=0 note=72 velocity=0 time=89
the msg is note_on channel=0 note=72 velocity=100 time=0
the msg is note_off channel=0 note=72 velocity=0 time=12
the msg is note_on channel=0 note=72 velocity=100 time=0
the msg is note_off channel=0 note=74 velocity=0 time=25
the msg is note_on channel=0 note=74 velocity=100 time=0
the msg is note_off channel=0 note=74 velocity=0 time=25
the msg is note_on channel=0 note=74 velocity=100 time=0
the msg is note_off channel=0 note=74 velocity=0 time=12
the msg is note_on channel=0 note=74 velocity=100 time=0
the msg is note_off channel=0 note=76 velocity=0 time=25
the msg is note_on channel=0 note=76 velocity=100 time=0
the msg is note_off channel=0 note=79 velocity=0 time=25
the msg is note_on channel=0 note=79 velocity=100 time=0
the msg is note_off channel=0 note=79 velocity=0 time=12
the msg is note_on channel=0 note=79 velocity=100 time=0
the msg is note_off channel=0 note=76 velocity=0 time=12
the msg is note_on channel=0 note=76 velocity=100 time=0
the msg is note_off channel=0 note=74 velocity=0 time=12
the msg is note_on channel=0 note=74 velocity=100 time=0
the msg is note_off channel=0 note=72 velocity=0 time=12
the msg is note_on channel=0 note=72 velocity=100 time=0
the msg is note_off channel=0 note=74 velocity=0 time=25
the msg is note_on channel=0 note=74 velocity=100 time=0
the msg is note_off channel=0 note=76 velocity=0 time=25
the msg is note_on channel=0 note=76 velocity=100 time=0
the msg is note_off channel=0 note=79 velocity=0 time=25
the msg is note_on channel=0 note=79 velocity=100 time=0
the msg is note_off channel=0 note=79 velocity=0 time=12
the msg is note_on channel=0 note=79 velocity=100 time=0
the msg is note_off channel=0 note=76 velocity=0 time=12
the msg is note_on channel=0 note=76 velocity=100 time=0
the msg is note_off channel=0 note=74 velocity=0 time=12
the msg is note_on channel=0 note=74 velocity=100 time=0
the msg is note_off channel=0 note=72 velocity=0 time=12
the msg is note_on channel=0 note=72 velocity=100 time=0
the msg is note_off channel=0 note=74 velocity=0 time=25
the msg is note_on channel=0 note=74 velocity=100 time=0
the msg is note_off channel=0 note=74 velocity=0 time=12
the msg is note_on channel=0 note=74 velocity=100 time=0
the msg is note_off channel=0 note=74 velocity=0 time=12
the msg is note_on channel=0 note=74 velocity=100 time=0
the msg is note_off channel=0 note=74 velocity=0 time=25
the msg is note_on channel=0 note=74 velocity=100 time=0
the msg is note_off channel=0 note=74 velocity=0 time=25
the msg is note_on channel=0 note=74 velocity=100 time=0
the msg is note_off channel=0 note=76 velocity=0 time=25
the msg is note_on channel=0 note=76 velocity=100 time=0
the msg is note_off channel=0 note=79 velocity=0 time=25
the msg is note_on channel=0 note=79 velocity=100 time=0
the msg is note_off channel=0 note=79 velocity=0 time=12
the msg is note_on channel=0 note=79 velocity=100 time=0
the msg is note_off channel=0 note=76 velocity=0 time=12
the msg is note_on channel=0 note=76 velocity=100 time=0
the msg is note_off channel=0 note=74 velocity=0 time=12
the msg is note_on channel=0 note=74 velocity=100 time=0
the msg is note_off channel=0 note=72 velocity=0 time=12
the msg is note_on channel=0 note=72 velocity=100 time=0
the msg is note_off channel=0 note=72 velocity=0 time=81
the msg is note_on channel=0 note=72 velocity=100 time=0
the msg is note_off channel=0 note=72 velocity=0 time=8
the msg is note_on channel=0 note=72 velocity=100 time=0
the msg is note_off channel=0 note=74 velocity=0 time=25
the msg is note_on channel=0 note=74 velocity=100 time=0
the msg is note_off channel=0 note=74 velocity=0 time=25
the msg is note_on channel=0 note=74 velocity=100 time=0
the msg is note_off channel=0 note=74 velocity=0 time=25
the msg is note_on channel=0 note=74 velocity=100 time=0
the msg is note_off channel=0 note=74 velocity=0 time=25
the msg is note_on channel=0 note=74 velocity=100 time=0
the msg is note_off channel=0 note=74 velocity=0 time=25
the msg is note_on channel=0 note=74 velocity=100 time=0
the msg is note_off channel=0 note=74 velocity=0 time=25
the msg is note_on channel=0 note=74 velocity=100 time=0
the msg is note_off channel=0 note=76 velocity=0 time=25
the msg is note_on channel=0 note=76 velocity=100 time=0
the msg is note_off channel=0 note=79 velocity=0 time=25
the msg is note_on channel=0 note=79 velocity=100 time=0
the msg is note_off channel=0 note=79 velocity=0 time=12
the msg is note_on channel=0 note=79 velocity=100 time=0
the msg is note_off channel=0 note=76 velocity=0 time=12
the msg is note_on channel=0 note=76 velocity=100 time=0
the msg is note_off channel=0 note=74 velocity=0 time=17
the msg is note_on channel=0 note=74 velocity=100 time=0
the msg is note_off channel=0 note=72 velocity=0 time=8
the msg is note_on channel=0 note=72 velocity=100 time=0
the msg is note_off channel=0 note=72 velocity=0 time=25
the msg is note_on channel=0 note=72 velocity=100 time=0
the msg is note_off channel=0 note=72 velocity=0 time=25
the msg is note_on channel=0 note=72 velocity=100 time=0
the msg is note_off channel=0 note=72 velocity=0 time=12
the msg is note_on channel=0 note=72 velocity=100 time=0
the msg is note_off channel=0 note=72 velocity=0 time=29
the msg is note_on channel=0 note=72 velocity=100 time=0
the msg is note_off channel=0 note=72 velocity=0 time=8
the msg is note_on channel=0 note=72 velocity=100 time=0
the msg is note_off channel=0 note=72 velocity=0 time=25
the msg is note_on channel=0 note=72 velocity=100 time=0
the msg is note_off channel=0 note=72 velocity=0 time=12
the msg is note_on channel=0 note=72 velocity=100 time=0
the msg is note_off channel=0 note=72 velocity=0 time=12
the msg is note_on channel=0 note=72 velocity=100 time=0
the msg is note_off channel=0 note=72 velocity=0 time=12
the msg is note_on channel=0 note=72 velocity=100 time=0
the msg is note_off channel=0 note=76 velocity=0 time=12
the msg is note_on channel=0 note=76 velocity=100 time=0
the msg is note_off channel=0 note=79 velocity=0 time=25
the msg is note_on channel=0 note=79 velocity=100 time=0
the msg is note_off channel=0 note=79 velocity=0 time=12
the msg is note_on channel=0 note=79 velocity=100 time=0
the msg is note_off channel=0 note=76 velocity=0 time=12
the msg is note_on channel=0 note=76 velocity=100 time=0
the msg is note_off channel=0 note=74 velocity=0 time=12
the msg is note_on channel=0 note=74 velocity=100 time=0
the msg is note_off channel=0 note=72 velocity=0 time=12
the msg is note_on channel=0 note=72 velocity=100 time=0
the msg is note_off channel=0 note=72 velocity=0 time=76
the msg is note_on channel=0 note=72 velocity=100 time=0
the msg is note_off channel=0 note=72 velocity=0 time=12
the msg is note_on channel=0 note=72 velocity=100 time=0
the msg is note_off channel=0 note=72 velocity=0 time=12
the msg is note_on channel=0 note=72 velocity=100 time=0
the msg is note_off channel=0 note=72 velocity=0 time=8
the msg is note_on channel=0 note=72 velocity=100 time=0
the msg is note_off channel=0 note=72 velocity=0 time=17
the msg is note_on channel=0 note=72 velocity=100 time=0
the msg is note_off channel=0 note=72 velocity=0 time=12
the msg is note_on channel=0 note=72 velocity=100 time=0
the msg is note_off channel=0 note=72 velocity=0 time=12
the msg is note_on channel=0 note=72 velocity=100 time=0
the msg is note_off channel=0 note=76 velocity=0 time=8
the msg is note_on channel=0 note=76 velocity=100 time=0
the msg is note_off channel=0 note=79 velocity=0 time=29
the msg is note_on channel=0 note=79 velocity=100 time=0
the msg is note_off channel=0 note=79 velocity=0 time=12
the msg is note_on channel=0 note=79 velocity=100 time=0
the msg is note_off channel=0 note=76 velocity=0 time=8
the msg is note_on channel=0 note=76 velocity=100 time=0
the msg is note_off channel=0 note=74 velocity=0 time=17
the msg is note_on channel=0 note=74 velocity=100 time=0
the msg is <meta message end_of_track time=51>
the msg is <meta message track_name name='Piano' time=0>
the msg is program_change channel=0 program=0 time=0
the msg is note_off channel=0 note=72 velocity=0 time=0
the msg is pitchwheel channel=0 pitch=0 time=0
the msg is program_change channel=0 program=0 time=0
the msg is <meta message set_tempo tempo=500000 time=0>
the msg is <meta message time_signature numerator=4 denominator=4 clocks_per_click=24 notated_32nd_notes_per_beat=8 time=0>
the msg is note_on channel=0 note=72 velocity=100 time=0
the msg is note_off channel=0 note=74 velocity=0 time=34
the msg is note_on channel=0 note=74 velocity=100 time=0
the msg is note_off channel=0 note=74 velocity=0 time=17
the msg is note_on channel=0 note=74 velocity=100 time=0
the msg is note_off channel=0 note=74 velocity=0 time=34
the msg is note_on channel=0 note=74 velocity=100 time=0
the msg is note_off channel=0 note=74 velocity=0 time=17
the msg is note_on channel=0 note=74 velocity=100 time=0
the msg is note_off channel=0 note=76 velocity=0 time=34
the msg is note_on channel=0 note=76 velocity=100 time=0
the msg is note_off channel=0 note=79 velocity=0 time=17
the msg is note_on channel=0 note=79 velocity=100 time=0
the msg is note_off channel=0 note=79 velocity=0 time=17
the msg is note_on channel=0 note=79 velocity=100 time=0
the msg is note_off channel=0 note=76 velocity=0 time=17
the msg is note_on channel=0 note=76 velocity=100 time=0
the msg is note_off channel=0 note=74 velocity=0 time=4
the msg is note_on channel=0 note=74 velocity=100 time=0
the msg is note_off channel=0 note=72 velocity=0 time=12
the msg is note_on channel=0 note=72 velocity=100 time=0
the msg is note_off channel=0 note=72 velocity=0 time=89
the msg is note_on channel=0 note=72 velocity=100 time=0
the msg is note_off channel=0 note=72 velocity=0 time=12
the msg is note_on channel=0 note=72 velocity=100 time=0
the msg is note_off channel=0 note=74 velocity=0 time=25
the msg is note_on channel=0 note=74 velocity=100 time=0
the msg is note_off channel=0 note=74 velocity=0 time=25
the msg is note_on channel=0 note=74 velocity=100 time=0
the msg is note_off channel=0 note=74 velocity=0 time=12
the msg is note_on channel=0 note=74 velocity=100 time=0
the msg is note_off channel=0 note=76 velocity=0 time=25
the msg is note_on channel=0 note=76 velocity=100 time=0
the msg is note_off channel=0 note=79 velocity=0 time=25
the msg is note_on channel=0 note=79 velocity=100 time=0
the msg is note_off channel=0 note=79 velocity=0 time=12
the msg is note_on channel=0 note=79 velocity=100 time=0
the msg is note_off channel=0 note=76 velocity=0 time=12
the msg is note_on channel=0 note=76 velocity=100 time=0
the msg is note_off channel=0 note=74 velocity=0 time=12
the msg is note_on channel=0 note=74 velocity=100 time=0
the msg is note_off channel=0 note=72 velocity=0 time=12
the msg is note_on channel=0 note=72 velocity=100 time=0
the msg is note_off channel=0 note=74 velocity=0 time=25
the msg is note_on channel=0 note=74 velocity=100 time=0
the msg is note_off channel=0 note=76 velocity=0 time=25
the msg is note_on channel=0 note=76 velocity=100 time=0
the msg is note_off channel=0 note=79 velocity=0 time=25
the msg is note_on channel=0 note=79 velocity=100 time=0
the msg is note_off channel=0 note=79 velocity=0 time=12
the msg is note_on channel=0 note=79 velocity=100 time=0
the msg is note_off channel=0 note=76 velocity=0 time=12
the msg is note_on channel=0 note=76 velocity=100 time=0
the msg is note_off channel=0 note=74 velocity=0 time=12
the msg is note_on channel=0 note=74 velocity=100 time=0
the msg is note_off channel=0 note=72 velocity=0 time=12
the msg is note_on channel=0 note=72 velocity=100 time=0
the msg is note_off channel=0 note=74 velocity=0 time=25
the msg is note_on channel=0 note=74 velocity=100 time=0
the msg is note_off channel=0 note=74 velocity=0 time=12
the msg is note_on channel=0 note=74 velocity=100 time=0
the msg is note_off channel=0 note=74 velocity=0 time=12
the msg is note_on channel=0 note=74 velocity=100 time=0
the msg is note_off channel=0 note=74 velocity=0 time=25
the msg is note_on channel=0 note=74 velocity=100 time=0
the msg is note_off channel=0 note=74 velocity=0 time=25
the msg is note_on channel=0 note=74 velocity=100 time=0
the msg is note_off channel=0 note=76 velocity=0 time=25
the msg is note_on channel=0 note=76 velocity=100 time=0
the msg is note_off channel=0 note=79 velocity=0 time=25
the msg is note_on channel=0 note=79 velocity=100 time=0
the msg is note_off channel=0 note=79 velocity=0 time=12
the msg is note_on channel=0 note=79 velocity=100 time=0
the msg is note_off channel=0 note=76 velocity=0 time=12
the msg is note_on channel=0 note=76 velocity=100 time=0
the msg is note_off channel=0 note=74 velocity=0 time=12
the msg is note_on channel=0 note=74 velocity=100 time=0
the msg is note_off channel=0 note=72 velocity=0 time=12
the msg is note_on channel=0 note=72 velocity=100 time=0
the msg is note_off channel=0 note=72 velocity=0 time=81
the msg is note_on channel=0 note=72 velocity=100 time=0
the msg is note_off channel=0 note=72 velocity=0 time=8
the msg is note_on channel=0 note=72 velocity=100 time=0
the msg is note_off channel=0 note=74 velocity=0 time=25
the msg is note_on channel=0 note=74 velocity=100 time=0
the msg is note_off channel=0 note=74 velocity=0 time=25
the msg is note_on channel=0 note=74 velocity=100 time=0
the msg is note_off channel=0 note=74 velocity=0 time=25
the msg is note_on channel=0 note=74 velocity=100 time=0
the msg is note_off channel=0 note=74 velocity=0 time=25
the msg is note_on channel=0 note=74 velocity=100 time=0
the msg is note_off channel=0 note=74 velocity=0 time=25
the msg is note_on channel=0 note=74 velocity=100 time=0
the msg is note_off channel=0 note=74 velocity=0 time=25
the msg is note_on channel=0 note=74 velocity=100 time=0
the msg is note_off channel=0 note=76 velocity=0 time=25
the msg is note_on channel=0 note=76 velocity=100 time=0
the msg is note_off channel=0 note=79 velocity=0 time=25
the msg is note_on channel=0 note=79 velocity=100 time=0
the msg is note_off channel=0 note=79 velocity=0 time=12
the msg is note_on channel=0 note=79 velocity=100 time=0
the msg is note_off channel=0 note=76 velocity=0 time=12
the msg is note_on channel=0 note=76 velocity=100 time=0
the msg is note_off channel=0 note=74 velocity=0 time=17
the msg is note_on channel=0 note=74 velocity=100 time=0
the msg is note_off channel=0 note=72 velocity=0 time=8
the msg is note_on channel=0 note=72 velocity=100 time=0
the msg is note_off channel=0 note=72 velocity=0 time=25
the msg is note_on channel=0 note=72 velocity=100 time=0
the msg is note_off channel=0 note=72 velocity=0 time=25
the msg is note_on channel=0 note=72 velocity=100 time=0
the msg is note_off channel=0 note=72 velocity=0 time=12
the msg is note_on channel=0 note=72 velocity=100 time=0
the msg is note_off channel=0 note=72 velocity=0 time=29
the msg is note_on channel=0 note=72 velocity=100 time=0
the msg is note_off channel=0 note=72 velocity=0 time=8
the msg is note_on channel=0 note=72 velocity=100 time=0
the msg is note_off channel=0 note=72 velocity=0 time=25
the msg is note_on channel=0 note=72 velocity=100 time=0
the msg is note_off channel=0 note=72 velocity=0 time=12
the msg is note_on channel=0 note=72 velocity=100 time=0
the msg is note_off channel=0 note=72 velocity=0 time=12
the msg is note_on channel=0 note=72 velocity=100 time=0
the msg is note_off channel=0 note=72 velocity=0 time=12
the msg is note_on channel=0 note=72 velocity=100 time=0
the msg is note_off channel=0 note=76 velocity=0 time=12
the msg is note_on channel=0 note=76 velocity=100 time=0
the msg is note_off channel=0 note=79 velocity=0 time=25
the msg is note_on channel=0 note=79 velocity=100 time=0
the msg is note_off channel=0 note=79 velocity=0 time=12
the msg is note_on channel=0 note=79 velocity=100 time=0
the msg is note_off channel=0 note=76 velocity=0 time=12
the msg is note_on channel=0 note=76 velocity=100 time=0
the msg is note_off channel=0 note=74 velocity=0 time=12
the msg is note_on channel=0 note=74 velocity=100 time=0
the msg is note_off channel=0 note=72 velocity=0 time=12
the msg is note_on channel=0 note=72 velocity=100 time=0
the msg is note_off channel=0 note=72 velocity=0 time=76
the msg is note_on channel=0 note=72 velocity=100 time=0
the msg is note_off channel=0 note=72 velocity=0 time=12
the msg is note_on channel=0 note=72 velocity=100 time=0
the msg is note_off channel=0 note=72 velocity=0 time=12
the msg is note_on channel=0 note=72 velocity=100 time=0
the msg is note_off channel=0 note=72 velocity=0 time=8
the msg is note_on channel=0 note=72 velocity=100 time=0
the msg is note_off channel=0 note=72 velocity=0 time=17
the msg is note_on channel=0 note=72 velocity=100 time=0
the msg is note_off channel=0 note=72 velocity=0 time=12
the msg is note_on channel=0 note=72 velocity=100 time=0
the msg is note_off channel=0 note=72 velocity=0 time=12
the msg is note_on channel=0 note=72 velocity=100 time=0
the msg is note_off channel=0 note=76 velocity=0 time=8
the msg is note_on channel=0 note=76 velocity=100 time=0
the msg is note_off channel=0 note=79 velocity=0 time=29
the msg is note_on channel=0 note=79 velocity=100 time=0
the msg is note_off channel=0 note=79 velocity=0 time=12
the msg is note_on channel=0 note=79 velocity=100 time=0
the msg is note_off channel=0 note=76 velocity=0 time=8
the msg is note_on channel=0 note=76 velocity=100 time=0
the msg is note_off channel=0 note=74 velocity=0 time=17
the msg is note_on channel=0 note=74 velocity=100 time=0
the msg is <meta message end_of_track time=51>
the msg is <meta message track_name name='Piano' time=0>
the msg is program_change channel=0 program=0 time=0
the msg is note_off channel=0 note=72 velocity=0 time=0
the msg is pitchwheel channel=0 pitch=0 time=0
the msg is program_change channel=0 program=0 time=0
the msg is <meta message set_tempo tempo=500000 time=0>
the msg is <meta message time_signature numerator=4 denominator=4 clocks_per_click=24 notated_32nd_notes_per_beat=8 time=0>
the msg is note_on channel=0 note=72 velocity=100 time=0
the msg is note_off channel=0 note=74 velocity=0 time=34
the msg is note_on channel=0 note=74 velocity=100 time=0
the msg is note_off channel=0 note=74 velocity=0 time=17
the msg is note_on channel=0 note=74 velocity=100 time=0
the msg is note_off channel=0 note=74 velocity=0 time=34
the msg is note_on channel=0 note=74 velocity=100 time=0
the msg is note_off channel=0 note=74 velocity=0 time=17
the msg is note_on channel=0 note=74 velocity=100 time=0
the msg is note_off channel=0 note=76 velocity=0 time=34
the msg is note_on channel=0 note=76 velocity=100 time=0
the msg is note_off channel=0 note=79 velocity=0 time=17
the msg is note_on channel=0 note=79 velocity=100 time=0
the msg is note_off channel=0 note=79 velocity=0 time=17
the msg is note_on channel=0 note=79 velocity=100 time=0
the msg is note_off channel=0 note=76 velocity=0 time=17
the msg is note_on channel=0 note=76 velocity=100 time=0
the msg is note_off channel=0 note=74 velocity=0 time=4
the msg is note_on channel=0 note=74 velocity=100 time=0
the msg is note_off channel=0 note=72 velocity=0 time=12
the msg is note_on channel=0 note=72 velocity=100 time=0
the msg is note_off channel=0 note=72 velocity=0 time=89
the msg is note_on channel=0 note=72 velocity=100 time=0
the msg is note_off channel=0 note=72 velocity=0 time=12
the msg is note_on channel=0 note=72 velocity=100 time=0
the msg is note_off channel=0 note=74 velocity=0 time=25
the msg is note_on channel=0 note=74 velocity=100 time=0
the msg is note_off channel=0 note=74 velocity=0 time=25
the msg is note_on channel=0 note=74 velocity=100 time=0
the msg is note_off channel=0 note=74 velocity=0 time=12
the msg is note_on channel=0 note=74 velocity=100 time=0
the msg is note_off channel=0 note=76 velocity=0 time=25
the msg is note_on channel=0 note=76 velocity=100 time=0
the msg is note_off channel=0 note=79 velocity=0 time=25
the msg is note_on channel=0 note=79 velocity=100 time=0
the msg is note_off channel=0 note=79 velocity=0 time=12
the msg is note_on channel=0 note=79 velocity=100 time=0
the msg is note_off channel=0 note=76 velocity=0 time=12
the msg is note_on channel=0 note=76 velocity=100 time=0
the msg is note_off channel=0 note=74 velocity=0 time=12
the msg is note_on channel=0 note=74 velocity=100 time=0
the msg is note_off channel=0 note=72 velocity=0 time=12
the msg is note_on channel=0 note=72 velocity=100 time=0
the msg is note_off channel=0 note=74 velocity=0 time=25
the msg is note_on channel=0 note=74 velocity=100 time=0
the msg is note_off channel=0 note=76 velocity=0 time=25
the msg is note_on channel=0 note=76 velocity=100 time=0
the msg is note_off channel=0 note=79 velocity=0 time=25
the msg is note_on channel=0 note=79 velocity=100 time=0
the msg is note_off channel=0 note=79 velocity=0 time=12
the msg is note_on channel=0 note=79 velocity=100 time=0
the msg is note_off channel=0 note=76 velocity=0 time=12
the msg is note_on channel=0 note=76 velocity=100 time=0
the msg is note_off channel=0 note=74 velocity=0 time=12
the msg is note_on channel=0 note=74 velocity=100 time=0
the msg is note_off channel=0 note=72 velocity=0 time=12
the msg is note_on channel=0 note=72 velocity=100 time=0
the msg is note_off channel=0 note=74 velocity=0 time=25
the msg is note_on channel=0 note=74 velocity=100 time=0
the msg is note_off channel=0 note=74 velocity=0 time=12
the msg is note_on channel=0 note=74 velocity=100 time=0
the msg is note_off channel=0 note=74 velocity=0 time=12
the msg is note_on channel=0 note=74 velocity=100 time=0
the msg is note_off channel=0 note=74 velocity=0 time=25
the msg is note_on channel=0 note=74 velocity=100 time=0
the msg is note_off channel=0 note=74 velocity=0 time=25
the msg is note_on channel=0 note=74 velocity=100 time=0
the msg is note_off channel=0 note=76 velocity=0 time=25
the msg is note_on channel=0 note=76 velocity=100 time=0
the msg is note_off channel=0 note=79 velocity=0 time=25
the msg is note_on channel=0 note=79 velocity=100 time=0
the msg is note_off channel=0 note=79 velocity=0 time=12
the msg is note_on channel=0 note=79 velocity=100 time=0
the msg is note_off channel=0 note=76 velocity=0 time=12
the msg is note_on channel=0 note=76 velocity=100 time=0
the msg is note_off channel=0 note=74 velocity=0 time=12
the msg is note_on channel=0 note=74 velocity=100 time=0
the msg is note_off channel=0 note=72 velocity=0 time=12
the msg is note_on channel=0 note=72 velocity=100 time=0
the msg is note_off channel=0 note=72 velocity=0 time=81
the msg is note_on channel=0 note=72 velocity=100 time=0
the msg is note_off channel=0 note=72 velocity=0 time=8
the msg is note_on channel=0 note=72 velocity=100 time=0
the msg is note_off channel=0 note=74 velocity=0 time=25
the msg is note_on channel=0 note=74 velocity=100 time=0
the msg is note_off channel=0 note=74 velocity=0 time=25
the msg is note_on channel=0 note=74 velocity=100 time=0
the msg is note_off channel=0 note=74 velocity=0 time=25
the msg is note_on channel=0 note=74 velocity=100 time=0
the msg is note_off channel=0 note=74 velocity=0 time=25
the msg is note_on channel=0 note=74 velocity=100 time=0
the msg is note_off channel=0 note=74 velocity=0 time=25
the msg is note_on channel=0 note=74 velocity=100 time=0
the msg is note_off channel=0 note=74 velocity=0 time=25
the msg is note_on channel=0 note=74 velocity=100 time=0
the msg is note_off channel=0 note=76 velocity=0 time=25
the msg is note_on channel=0 note=76 velocity=100 time=0
the msg is note_off channel=0 note=79 velocity=0 time=25
the msg is note_on channel=0 note=79 velocity=100 time=0
the msg is note_off channel=0 note=79 velocity=0 time=12
the msg is note_on channel=0 note=79 velocity=100 time=0
the msg is note_off channel=0 note=76 velocity=0 time=12
the msg is note_on channel=0 note=76 velocity=100 time=0
the msg is note_off channel=0 note=74 velocity=0 time=17
the msg is note_on channel=0 note=74 velocity=100 time=0
the msg is note_off channel=0 note=72 velocity=0 time=8
the msg is note_on channel=0 note=72 velocity=100 time=0
the msg is note_off channel=0 note=72 velocity=0 time=25
the msg is note_on channel=0 note=72 velocity=100 time=0
the msg is note_off channel=0 note=72 velocity=0 time=25
the msg is note_on channel=0 note=72 velocity=100 time=0
the msg is note_off channel=0 note=72 velocity=0 time=12
the msg is note_on channel=0 note=72 velocity=100 time=0
the msg is note_off channel=0 note=72 velocity=0 time=29
the msg is note_on channel=0 note=72 velocity=100 time=0
the msg is note_off channel=0 note=72 velocity=0 time=8
the msg is note_on channel=0 note=72 velocity=100 time=0
the msg is note_off channel=0 note=72 velocity=0 time=25
the msg is note_on channel=0 note=72 velocity=100 time=0
the msg is note_off channel=0 note=72 velocity=0 time=12
the msg is note_on channel=0 note=72 velocity=100 time=0
the msg is note_off channel=0 note=72 velocity=0 time=12
the msg is note_on channel=0 note=72 velocity=100 time=0
the msg is note_off channel=0 note=72 velocity=0 time=12
the msg is note_on channel=0 note=72 velocity=100 time=0
the msg is note_off channel=0 note=76 velocity=0 time=12
the msg is note_on channel=0 note=76 velocity=100 time=0
the msg is note_off channel=0 note=79 velocity=0 time=25
the msg is note_on channel=0 note=79 velocity=100 time=0
the msg is note_off channel=0 note=79 velocity=0 time=12
the msg is note_on channel=0 note=79 velocity=100 time=0
the msg is note_off channel=0 note=76 velocity=0 time=12
the msg is note_on channel=0 note=76 velocity=100 time=0
the msg is note_off channel=0 note=74 velocity=0 time=12
the msg is note_on channel=0 note=74 velocity=100 time=0
the msg is note_off channel=0 note=72 velocity=0 time=12
the msg is note_on channel=0 note=72 velocity=100 time=0
the msg is note_off channel=0 note=72 velocity=0 time=76
the msg is note_on channel=0 note=72 velocity=100 time=0
the msg is note_off channel=0 note=72 velocity=0 time=12
the msg is note_on channel=0 note=72 velocity=100 time=0
the msg is note_off channel=0 note=72 velocity=0 time=12
the msg is note_on channel=0 note=72 velocity=100 time=0
the msg is note_off channel=0 note=72 velocity=0 time=8
the msg is note_on channel=0 note=72 velocity=100 time=0
the msg is note_off channel=0 note=72 velocity=0 time=17
the msg is note_on channel=0 note=72 velocity=100 time=0
the msg is note_off channel=0 note=72 velocity=0 time=12
the msg is note_on channel=0 note=72 velocity=100 time=0
the msg is note_off channel=0 note=72 velocity=0 time=12
the msg is note_on channel=0 note=72 velocity=100 time=0
the msg is note_off channel=0 note=76 velocity=0 time=8
the msg is note_on channel=0 note=76 velocity=100 time=0
the msg is note_off channel=0 note=79 velocity=0 time=29
the msg is note_on channel=0 note=79 velocity=100 time=0
the msg is note_off channel=0 note=79 velocity=0 time=12
the msg is note_on channel=0 note=79 velocity=100 time=0
the msg is note_off channel=0 note=76 velocity=0 time=8
the msg is note_on channel=0 note=76 velocity=100 time=0
the msg is note_off channel=0 note=74 velocity=0 time=17
the msg is note_on channel=0 note=74 velocity=100 time=0
the msg is <meta message end_of_track time=51>
the msg is <meta message track_name name='Piano' time=0>
the msg is program_change channel=0 program=0 time=0
the msg is note_off channel=0 note=72 velocity=0 time=0
the msg is pitchwheel channel=0 pitch=0 time=0
the msg is program_change channel=0 program=0 time=0
the msg is <meta message set_tempo tempo=500000 time=0>
the msg is <meta message time_signature numerator=4 denominator=4 clocks_per_click=24 notated_32nd_notes_per_beat=8 time=0>
the msg is note_on channel=0 note=72 velocity=100 time=0
the msg is note_off channel=0 note=74 velocity=0 time=34
the msg is note_on channel=0 note=74 velocity=100 time=0
the msg is note_off channel=0 note=74 velocity=0 time=17
the msg is note_on channel=0 note=74 velocity=100 time=0
the msg is note_off channel=0 note=74 velocity=0 time=34
the msg is note_on channel=0 note=74 velocity=100 time=0
the msg is note_off channel=0 note=74 velocity=0 time=17
the msg is note_on channel=0 note=74 velocity=100 time=0
the msg is note_off channel=0 note=76 velocity=0 time=34
the msg is note_on channel=0 note=76 velocity=100 time=0
the msg is note_off channel=0 note=79 velocity=0 time=17
the msg is note_on channel=0 note=79 velocity=100 time=0
the msg is note_off channel=0 note=79 velocity=0 time=17
the msg is note_on channel=0 note=79 velocity=100 time=0
the msg is note_off channel=0 note=76 velocity=0 time=17
the msg is note_on channel=0 note=76 velocity=100 time=0
the msg is note_off channel=0 note=74 velocity=0 time=4
the msg is note_on channel=0 note=74 velocity=100 time=0
the msg is note_off channel=0 note=72 velocity=0 time=12
the msg is note_on channel=0 note=72 velocity=100 time=0
the msg is note_off channel=0 note=72 velocity=0 time=89
the msg is note_on channel=0 note=72 velocity=100 time=0
the msg is note_off channel=0 note=72 velocity=0 time=12
the msg is note_on channel=0 note=72 velocity=100 time=0
the msg is note_off channel=0 note=74 velocity=0 time=25
the msg is note_on channel=0 note=74 velocity=100 time=0
the msg is note_off channel=0 note=74 velocity=0 time=25
the msg is note_on channel=0 note=74 velocity=100 time=0
the msg is note_off channel=0 note=74 velocity=0 time=12
the msg is note_on channel=0 note=74 velocity=100 time=0
the msg is note_off channel=0 note=76 velocity=0 time=25
the msg is note_on channel=0 note=76 velocity=100 time=0
the msg is note_off channel=0 note=79 velocity=0 time=25
the msg is note_on channel=0 note=79 velocity=100 time=0
the msg is note_off channel=0 note=79 velocity=0 time=12
the msg is note_on channel=0 note=79 velocity=100 time=0
the msg is note_off channel=0 note=76 velocity=0 time=12
the msg is note_on channel=0 note=76 velocity=100 time=0
the msg is note_off channel=0 note=74 velocity=0 time=12
the msg is note_on channel=0 note=74 velocity=100 time=0
the msg is note_off channel=0 note=72 velocity=0 time=12
the msg is note_on channel=0 note=72 velocity=100 time=0
the msg is note_off channel=0 note=74 velocity=0 time=25
the msg is note_on channel=0 note=74 velocity=100 time=0
the msg is note_off channel=0 note=76 velocity=0 time=25
the msg is note_on channel=0 note=76 velocity=100 time=0
the msg is note_off channel=0 note=79 velocity=0 time=25
the msg is note_on channel=0 note=79 velocity=100 time=0
the msg is note_off channel=0 note=79 velocity=0 time=12
the msg is note_on channel=0 note=79 velocity=100 time=0
the msg is note_off channel=0 note=76 velocity=0 time=12
the msg is note_on channel=0 note=76 velocity=100 time=0
the msg is note_off channel=0 note=74 velocity=0 time=12
the msg is note_on channel=0 note=74 velocity=100 time=0
the msg is note_off channel=0 note=72 velocity=0 time=12
the msg is note_on channel=0 note=72 velocity=100 time=0
the msg is note_off channel=0 note=74 velocity=0 time=25
the msg is note_on channel=0 note=74 velocity=100 time=0
the msg is note_off channel=0 note=74 velocity=0 time=12
the msg is note_on channel=0 note=74 velocity=100 time=0
the msg is note_off channel=0 note=74 velocity=0 time=12
the msg is note_on channel=0 note=74 velocity=100 time=0
the msg is note_off channel=0 note=74 velocity=0 time=25
the msg is note_on channel=0 note=74 velocity=100 time=0
the msg is note_off channel=0 note=74 velocity=0 time=25
the msg is note_on channel=0 note=74 velocity=100 time=0
the msg is note_off channel=0 note=76 velocity=0 time=25
the msg is note_on channel=0 note=76 velocity=100 time=0
the msg is note_off channel=0 note=79 velocity=0 time=25
the msg is note_on channel=0 note=79 velocity=100 time=0
the msg is note_off channel=0 note=79 velocity=0 time=12
the msg is note_on channel=0 note=79 velocity=100 time=0
the msg is note_off channel=0 note=76 velocity=0 time=12
the msg is note_on channel=0 note=76 velocity=100 time=0
the msg is note_off channel=0 note=74 velocity=0 time=12
the msg is note_on channel=0 note=74 velocity=100 time=0
the msg is note_off channel=0 note=72 velocity=0 time=12
the msg is note_on channel=0 note=72 velocity=100 time=0
the msg is note_off channel=0 note=72 velocity=0 time=81
the msg is note_on channel=0 note=72 velocity=100 time=0
the msg is note_off channel=0 note=72 velocity=0 time=8
the msg is note_on channel=0 note=72 velocity=100 time=0
the msg is note_off channel=0 note=74 velocity=0 time=25
the msg is note_on channel=0 note=74 velocity=100 time=0
the msg is note_off channel=0 note=74 velocity=0 time=25
the msg is note_on channel=0 note=74 velocity=100 time=0
the msg is note_off channel=0 note=74 velocity=0 time=25
the msg is note_on channel=0 note=74 velocity=100 time=0
the msg is note_off channel=0 note=74 velocity=0 time=25
the msg is note_on channel=0 note=74 velocity=100 time=0
the msg is note_off channel=0 note=74 velocity=0 time=25
the msg is note_on channel=0 note=74 velocity=100 time=0
the msg is note_off channel=0 note=74 velocity=0 time=25
the msg is note_on channel=0 note=74 velocity=100 time=0
the msg is note_off channel=0 note=76 velocity=0 time=25
the msg is note_on channel=0 note=76 velocity=100 time=0
the msg is note_off channel=0 note=79 velocity=0 time=25
the msg is note_on channel=0 note=79 velocity=100 time=0
the msg is note_off channel=0 note=79 velocity=0 time=12
the msg is note_on channel=0 note=79 velocity=100 time=0
the msg is note_off channel=0 note=76 velocity=0 time=12
the msg is note_on channel=0 note=76 velocity=100 time=0
the msg is note_off channel=0 note=74 velocity=0 time=17
the msg is note_on channel=0 note=74 velocity=100 time=0
the msg is note_off channel=0 note=72 velocity=0 time=8
the msg is note_on channel=0 note=72 velocity=100 time=0
the msg is note_off channel=0 note=72 velocity=0 time=25
the msg is note_on channel=0 note=72 velocity=100 time=0
the msg is note_off channel=0 note=72 velocity=0 time=25
the msg is note_on channel=0 note=72 velocity=100 time=0
the msg is note_off channel=0 note=72 velocity=0 time=12
the msg is note_on channel=0 note=72 velocity=100 time=0
the msg is note_off channel=0 note=72 velocity=0 time=29
the msg is note_on channel=0 note=72 velocity=100 time=0
the msg is note_off channel=0 note=72 velocity=0 time=8
the msg is note_on channel=0 note=72 velocity=100 time=0
the msg is note_off channel=0 note=72 velocity=0 time=25
the msg is note_on channel=0 note=72 velocity=100 time=0
the msg is note_off channel=0 note=72 velocity=0 time=12
the msg is note_on channel=0 note=72 velocity=100 time=0
the msg is note_off channel=0 note=72 velocity=0 time=12
the msg is note_on channel=0 note=72 velocity=100 time=0
the msg is note_off channel=0 note=72 velocity=0 time=12
the msg is note_on channel=0 note=72 velocity=100 time=0
the msg is note_off channel=0 note=76 velocity=0 time=12
the msg is note_on channel=0 note=76 velocity=100 time=0
the msg is note_off channel=0 note=79 velocity=0 time=25
the msg is note_on channel=0 note=79 velocity=100 time=0
the msg is note_off channel=0 note=79 velocity=0 time=12
the msg is note_on channel=0 note=79 velocity=100 time=0
the msg is note_off channel=0 note=76 velocity=0 time=12
the msg is note_on channel=0 note=76 velocity=100 time=0
the msg is note_off channel=0 note=74 velocity=0 time=12
the msg is note_on channel=0 note=74 velocity=100 time=0
the msg is note_off channel=0 note=72 velocity=0 time=12
the msg is note_on channel=0 note=72 velocity=100 time=0
the msg is note_off channel=0 note=72 velocity=0 time=76
the msg is note_on channel=0 note=72 velocity=100 time=0
the msg is note_off channel=0 note=72 velocity=0 time=12
the msg is note_on channel=0 note=72 velocity=100 time=0
the msg is note_off channel=0 note=72 velocity=0 time=12
the msg is note_on channel=0 note=72 velocity=100 time=0
the msg is note_off channel=0 note=72 velocity=0 time=8
the msg is note_on channel=0 note=72 velocity=100 time=0
the msg is note_off channel=0 note=72 velocity=0 time=17
the msg is note_on channel=0 note=72 velocity=100 time=0
the msg is note_off channel=0 note=72 velocity=0 time=12
the msg is note_on channel=0 note=72 velocity=100 time=0
the msg is note_off channel=0 note=72 velocity=0 time=12
the msg is note_on channel=0 note=72 velocity=100 time=0
the msg is note_off channel=0 note=76 velocity=0 time=8
the msg is note_on channel=0 note=76 velocity=100 time=0
the msg is note_off channel=0 note=79 velocity=0 time=29
the msg is note_on channel=0 note=79 velocity=100 time=0
the msg is note_off channel=0 note=79 velocity=0 time=12
the msg is note_on channel=0 note=79 velocity=100 time=0
the msg is note_off channel=0 note=76 velocity=0 time=8
the msg is note_on channel=0 note=76 velocity=100 time=0
the msg is note_off channel=0 note=74 velocity=0 time=17
the msg is note_on channel=0 note=74 velocity=100 time=0
the msg is <meta message end_of_track time=51>
the msg is <meta message track_name name='Piano' time=0>
the msg is program_change channel=0 program=0 time=0
the msg is note_off channel=0 note=72 velocity=0 time=0
the msg is pitchwheel channel=0 pitch=0 time=0
the msg is program_change channel=0 program=0 time=0
the msg is <meta message set_tempo tempo=500000 time=0>
the msg is <meta message time_signature numerator=4 denominator=4 clocks_per_click=24 notated_32nd_notes_per_beat=8 time=0>
the msg is note_on channel=0 note=72 velocity=100 time=0
the msg is note_off channel=0 note=74 velocity=0 time=34
the msg is note_on channel=0 note=74 velocity=100 time=0
the msg is note_off channel=0 note=74 velocity=0 time=17
the msg is note_on channel=0 note=74 velocity=100 time=0
the msg is note_off channel=0 note=74 velocity=0 time=34
the msg is note_on channel=0 note=74 velocity=100 time=0
the msg is note_off channel=0 note=74 velocity=0 time=17
the msg is note_on channel=0 note=74 velocity=100 time=0
the msg is note_off channel=0 note=76 velocity=0 time=34
the msg is note_on channel=0 note=76 velocity=100 time=0
the msg is note_off channel=0 note=79 velocity=0 time=17
the msg is note_on channel=0 note=79 velocity=100 time=0
the msg is note_off channel=0 note=79 velocity=0 time=17
the msg is note_on channel=0 note=79 velocity=100 time=0
the msg is note_off channel=0 note=76 velocity=0 time=17
the msg is note_on channel=0 note=76 velocity=100 time=0
the msg is note_off channel=0 note=74 velocity=0 time=4
the msg is note_on channel=0 note=74 velocity=100 time=0
the msg is note_off channel=0 note=72 velocity=0 time=12
the msg is note_on channel=0 note=72 velocity=100 time=0
the msg is note_off channel=0 note=72 velocity=0 time=89
the msg is note_on channel=0 note=72 velocity=100 time=0
the msg is note_off channel=0 note=72 velocity=0 time=12
the msg is note_on channel=0 note=72 velocity=100 time=0
the msg is note_off channel=0 note=74 velocity=0 time=25
the msg is note_on channel=0 note=74 velocity=100 time=0
the msg is note_off channel=0 note=74 velocity=0 time=25
the msg is note_on channel=0 note=74 velocity=100 time=0
the msg is note_off channel=0 note=74 velocity=0 time=12
the msg is note_on channel=0 note=74 velocity=100 time=0
the msg is note_off channel=0 note=76 velocity=0 time=25
the msg is note_on channel=0 note=76 velocity=100 time=0
the msg is note_off channel=0 note=79 velocity=0 time=25
the msg is note_on channel=0 note=79 velocity=100 time=0
the msg is note_off channel=0 note=79 velocity=0 time=12
the msg is note_on channel=0 note=79 velocity=100 time=0
the msg is note_off channel=0 note=76 velocity=0 time=12
the msg is note_on channel=0 note=76 velocity=100 time=0
the msg is note_off channel=0 note=74 velocity=0 time=12
the msg is note_on channel=0 note=74 velocity=100 time=0
the msg is note_off channel=0 note=72 velocity=0 time=12
the msg is note_on channel=0 note=72 velocity=100 time=0
the msg is note_off channel=0 note=74 velocity=0 time=25
the msg is note_on channel=0 note=74 velocity=100 time=0
the msg is note_off channel=0 note=76 velocity=0 time=25
the msg is note_on channel=0 note=76 velocity=100 time=0
the msg is note_off channel=0 note=79 velocity=0 time=25
the msg is note_on channel=0 note=79 velocity=100 time=0
the msg is note_off channel=0 note=79 velocity=0 time=12
the msg is note_on channel=0 note=79 velocity=100 time=0
the msg is note_off channel=0 note=76 velocity=0 time=12
the msg is note_on channel=0 note=76 velocity=100 time=0
the msg is note_off channel=0 note=74 velocity=0 time=12
the msg is note_on channel=0 note=74 velocity=100 time=0
the msg is note_off channel=0 note=72 velocity=0 time=12
the msg is note_on channel=0 note=72 velocity=100 time=0
the msg is note_off channel=0 note=74 velocity=0 time=25
the msg is note_on channel=0 note=74 velocity=100 time=0
the msg is note_off channel=0 note=74 velocity=0 time=12
the msg is note_on channel=0 note=74 velocity=100 time=0
the msg is note_off channel=0 note=74 velocity=0 time=12
the msg is note_on channel=0 note=74 velocity=100 time=0
the msg is note_off channel=0 note=74 velocity=0 time=25
the msg is note_on channel=0 note=74 velocity=100 time=0
the msg is note_off channel=0 note=74 velocity=0 time=25
the msg is note_on channel=0 note=74 velocity=100 time=0
the msg is note_off channel=0 note=76 velocity=0 time=25
the msg is note_on channel=0 note=76 velocity=100 time=0
the msg is note_off channel=0 note=79 velocity=0 time=25
the msg is note_on channel=0 note=79 velocity=100 time=0
the msg is note_off channel=0 note=79 velocity=0 time=12
the msg is note_on channel=0 note=79 velocity=100 time=0
the msg is note_off channel=0 note=76 velocity=0 time=12
the msg is note_on channel=0 note=76 velocity=100 time=0
the msg is note_off channel=0 note=74 velocity=0 time=12
the msg is note_on channel=0 note=74 velocity=100 time=0
the msg is note_off channel=0 note=72 velocity=0 time=12
the msg is note_on channel=0 note=72 velocity=100 time=0
the msg is note_off channel=0 note=72 velocity=0 time=81
the msg is note_on channel=0 note=72 velocity=100 time=0
the msg is note_off channel=0 note=72 velocity=0 time=8
the msg is note_on channel=0 note=72 velocity=100 time=0
the msg is note_off channel=0 note=74 velocity=0 time=25
the msg is note_on channel=0 note=74 velocity=100 time=0
the msg is note_off channel=0 note=74 velocity=0 time=25
the msg is note_on channel=0 note=74 velocity=100 time=0
the msg is note_off channel=0 note=74 velocity=0 time=25
the msg is note_on channel=0 note=74 velocity=100 time=0
the msg is note_off channel=0 note=74 velocity=0 time=25
the msg is note_on channel=0 note=74 velocity=100 time=0
the msg is note_off channel=0 note=74 velocity=0 time=25
the msg is note_on channel=0 note=74 velocity=100 time=0
the msg is note_off channel=0 note=74 velocity=0 time=25
the msg is note_on channel=0 note=74 velocity=100 time=0
the msg is note_off channel=0 note=76 velocity=0 time=25
the msg is note_on channel=0 note=76 velocity=100 time=0
the msg is note_off channel=0 note=79 velocity=0 time=25
the msg is note_on channel=0 note=79 velocity=100 time=0
the msg is note_off channel=0 note=79 velocity=0 time=12
the msg is note_on channel=0 note=79 velocity=100 time=0
the msg is note_off channel=0 note=76 velocity=0 time=12
the msg is note_on channel=0 note=76 velocity=100 time=0
the msg is note_off channel=0 note=74 velocity=0 time=17
the msg is note_on channel=0 note=74 velocity=100 time=0
the msg is note_off channel=0 note=72 velocity=0 time=8
the msg is note_on channel=0 note=72 velocity=100 time=0
the msg is note_off channel=0 note=72 velocity=0 time=25
the msg is note_on channel=0 note=72 velocity=100 time=0
the msg is note_off channel=0 note=72 velocity=0 time=25
the msg is note_on channel=0 note=72 velocity=100 time=0
the msg is note_off channel=0 note=72 velocity=0 time=12
the msg is note_on channel=0 note=72 velocity=100 time=0
the msg is note_off channel=0 note=72 velocity=0 time=29
the msg is note_on channel=0 note=72 velocity=100 time=0
the msg is note_off channel=0 note=72 velocity=0 time=8
the msg is note_on channel=0 note=72 velocity=100 time=0
the msg is note_off channel=0 note=72 velocity=0 time=25
the msg is note_on channel=0 note=72 velocity=100 time=0
the msg is note_off channel=0 note=72 velocity=0 time=12
the msg is note_on channel=0 note=72 velocity=100 time=0
the msg is note_off channel=0 note=72 velocity=0 time=12
the msg is note_on channel=0 note=72 velocity=100 time=0
the msg is note_off channel=0 note=72 velocity=0 time=12
the msg is note_on channel=0 note=72 velocity=100 time=0
the msg is note_off channel=0 note=76 velocity=0 time=12
the msg is note_on channel=0 note=76 velocity=100 time=0
the msg is note_off channel=0 note=79 velocity=0 time=25
the msg is note_on channel=0 note=79 velocity=100 time=0
the msg is note_off channel=0 note=79 velocity=0 time=12
the msg is note_on channel=0 note=79 velocity=100 time=0
the msg is note_off channel=0 note=76 velocity=0 time=12
the msg is note_on channel=0 note=76 velocity=100 time=0
the msg is note_off channel=0 note=74 velocity=0 time=12
the msg is note_on channel=0 note=74 velocity=100 time=0
the msg is note_off channel=0 note=72 velocity=0 time=12
the msg is note_on channel=0 note=72 velocity=100 time=0
the msg is note_off channel=0 note=72 velocity=0 time=76
the msg is note_on channel=0 note=72 velocity=100 time=0
the msg is note_off channel=0 note=72 velocity=0 time=12
the msg is note_on channel=0 note=72 velocity=100 time=0
the msg is note_off channel=0 note=72 velocity=0 time=12
the msg is note_on channel=0 note=72 velocity=100 time=0
the msg is note_off channel=0 note=72 velocity=0 time=8
the msg is note_on channel=0 note=72 velocity=100 time=0
the msg is note_off channel=0 note=72 velocity=0 time=17
the msg is note_on channel=0 note=72 velocity=100 time=0
the msg is note_off channel=0 note=72 velocity=0 time=12
the msg is note_on channel=0 note=72 velocity=100 time=0
the msg is note_off channel=0 note=72 velocity=0 time=12
the msg is note_on channel=0 note=72 velocity=100 time=0
the msg is note_off channel=0 note=76 velocity=0 time=8
the msg is note_on channel=0 note=76 velocity=100 time=0
the msg is note_off channel=0 note=79 velocity=0 time=29
the msg is note_on channel=0 note=79 velocity=100 time=0
the msg is note_off channel=0 note=79 velocity=0 time=12
the msg is note_on channel=0 note=79 velocity=100 time=0
the msg is note_off channel=0 note=76 velocity=0 time=8
the msg is note_on channel=0 note=76 velocity=100 time=0
the msg is note_off channel=0 note=74 velocity=0 time=17
the msg is note_on channel=0 note=74 velocity=100 time=0
the msg is <meta message end_of_track time=51>
the msg is <meta message track_name name='Piano' time=0>
the msg is program_change channel=0 program=0 time=0
the msg is note_off channel=0 note=72 velocity=0 time=0
the msg is pitchwheel channel=0 pitch=0 time=0
the msg is program_change channel=0 program=0 time=0
the msg is <meta message set_tempo tempo=500000 time=0>
the msg is <meta message time_signature numerator=4 denominator=4 clocks_per_click=24 notated_32nd_notes_per_beat=8 time=0>
the msg is note_on channel=0 note=72 velocity=100 time=0
the msg is note_off channel=0 note=74 velocity=0 time=34
the msg is note_on channel=0 note=74 velocity=100 time=0
the msg is note_off channel=0 note=74 velocity=0 time=17
the msg is note_on channel=0 note=74 velocity=100 time=0
the msg is note_off channel=0 note=74 velocity=0 time=34
the msg is note_on channel=0 note=74 velocity=100 time=0
the msg is note_off channel=0 note=74 velocity=0 time=17
the msg is note_on channel=0 note=74 velocity=100 time=0
the msg is note_off channel=0 note=76 velocity=0 time=34
the msg is note_on channel=0 note=76 velocity=100 time=0
the msg is note_off channel=0 note=79 velocity=0 time=17
the msg is note_on channel=0 note=79 velocity=100 time=0
the msg is note_off channel=0 note=79 velocity=0 time=17
the msg is note_on channel=0 note=79 velocity=100 time=0
the msg is note_off channel=0 note=76 velocity=0 time=17
the msg is note_on channel=0 note=76 velocity=100 time=0
the msg is note_off channel=0 note=74 velocity=0 time=4
the msg is note_on channel=0 note=74 velocity=100 time=0
the msg is note_off channel=0 note=72 velocity=0 time=12
the msg is note_on channel=0 note=72 velocity=100 time=0
the msg is note_off channel=0 note=72 velocity=0 time=89
the msg is note_on channel=0 note=72 velocity=100 time=0
the msg is note_off channel=0 note=72 velocity=0 time=12
the msg is note_on channel=0 note=72 velocity=100 time=0
the msg is note_off channel=0 note=74 velocity=0 time=25
the msg is note_on channel=0 note=74 velocity=100 time=0
the msg is note_off channel=0 note=74 velocity=0 time=25
the msg is note_on channel=0 note=74 velocity=100 time=0
the msg is note_off channel=0 note=74 velocity=0 time=12
the msg is note_on channel=0 note=74 velocity=100 time=0
the msg is note_off channel=0 note=76 velocity=0 time=25
the msg is note_on channel=0 note=76 velocity=100 time=0
the msg is note_off channel=0 note=79 velocity=0 time=25
the msg is note_on channel=0 note=79 velocity=100 time=0
the msg is note_off channel=0 note=79 velocity=0 time=12
the msg is note_on channel=0 note=79 velocity=100 time=0
the msg is note_off channel=0 note=76 velocity=0 time=12
the msg is note_on channel=0 note=76 velocity=100 time=0
the msg is note_off channel=0 note=74 velocity=0 time=12
the msg is note_on channel=0 note=74 velocity=100 time=0
the msg is note_off channel=0 note=72 velocity=0 time=12
the msg is note_on channel=0 note=72 velocity=100 time=0
the msg is note_off channel=0 note=74 velocity=0 time=25
the msg is note_on channel=0 note=74 velocity=100 time=0
the msg is note_off channel=0 note=76 velocity=0 time=25
the msg is note_on channel=0 note=76 velocity=100 time=0
the msg is note_off channel=0 note=79 velocity=0 time=25
the msg is note_on channel=0 note=79 velocity=100 time=0
the msg is note_off channel=0 note=79 velocity=0 time=12
the msg is note_on channel=0 note=79 velocity=100 time=0
the msg is note_off channel=0 note=76 velocity=0 time=12
the msg is note_on channel=0 note=76 velocity=100 time=0
the msg is note_off channel=0 note=74 velocity=0 time=12
the msg is note_on channel=0 note=74 velocity=100 time=0
the msg is note_off channel=0 note=72 velocity=0 time=12
the msg is note_on channel=0 note=72 velocity=100 time=0
the msg is note_off channel=0 note=74 velocity=0 time=25
the msg is note_on channel=0 note=74 velocity=100 time=0
the msg is note_off channel=0 note=74 velocity=0 time=12
the msg is note_on channel=0 note=74 velocity=100 time=0
the msg is note_off channel=0 note=74 velocity=0 time=12
the msg is note_on channel=0 note=74 velocity=100 time=0
the msg is note_off channel=0 note=74 velocity=0 time=25
the msg is note_on channel=0 note=74 velocity=100 time=0
the msg is note_off channel=0 note=74 velocity=0 time=25
the msg is note_on channel=0 note=74 velocity=100 time=0
the msg is note_off channel=0 note=76 velocity=0 time=25
the msg is note_on channel=0 note=76 velocity=100 time=0
the msg is note_off channel=0 note=79 velocity=0 time=25
the msg is note_on channel=0 note=79 velocity=100 time=0
the msg is note_off channel=0 note=79 velocity=0 time=12
the msg is note_on channel=0 note=79 velocity=100 time=0
the msg is note_off channel=0 note=76 velocity=0 time=12
the msg is note_on channel=0 note=76 velocity=100 time=0
the msg is note_off channel=0 note=74 velocity=0 time=12
the msg is note_on channel=0 note=74 velocity=100 time=0
the msg is note_off channel=0 note=72 velocity=0 time=12
the msg is note_on channel=0 note=72 velocity=100 time=0
the msg is note_off channel=0 note=72 velocity=0 time=81
the msg is note_on channel=0 note=72 velocity=100 time=0
the msg is note_off channel=0 note=72 velocity=0 time=8
the msg is note_on channel=0 note=72 velocity=100 time=0
the msg is note_off channel=0 note=74 velocity=0 time=25
the msg is note_on channel=0 note=74 velocity=100 time=0
the msg is note_off channel=0 note=74 velocity=0 time=25
the msg is note_on channel=0 note=74 velocity=100 time=0
the msg is note_off channel=0 note=74 velocity=0 time=25
the msg is note_on channel=0 note=74 velocity=100 time=0
the msg is note_off channel=0 note=74 velocity=0 time=25
the msg is note_on channel=0 note=74 velocity=100 time=0
the msg is note_off channel=0 note=74 velocity=0 time=25
the msg is note_on channel=0 note=74 velocity=100 time=0
the msg is note_off channel=0 note=74 velocity=0 time=25
the msg is note_on channel=0 note=74 velocity=100 time=0
the msg is note_off channel=0 note=76 velocity=0 time=25
the msg is note_on channel=0 note=76 velocity=100 time=0
the msg is note_off channel=0 note=79 velocity=0 time=25
the msg is note_on channel=0 note=79 velocity=100 time=0
the msg is note_off channel=0 note=79 velocity=0 time=12
the msg is note_on channel=0 note=79 velocity=100 time=0
the msg is note_off channel=0 note=76 velocity=0 time=12
the msg is note_on channel=0 note=76 velocity=100 time=0
the msg is note_off channel=0 note=74 velocity=0 time=17
the msg is note_on channel=0 note=74 velocity=100 time=0
the msg is note_off channel=0 note=72 velocity=0 time=8
the msg is note_on channel=0 note=72 velocity=100 time=0
the msg is note_off channel=0 note=72 velocity=0 time=25
the msg is note_on channel=0 note=72 velocity=100 time=0
the msg is note_off channel=0 note=72 velocity=0 time=25
the msg is note_on channel=0 note=72 velocity=100 time=0
the msg is note_off channel=0 note=72 velocity=0 time=12
the msg is note_on channel=0 note=72 velocity=100 time=0
the msg is note_off channel=0 note=72 velocity=0 time=29
the msg is note_on channel=0 note=72 velocity=100 time=0
the msg is note_off channel=0 note=72 velocity=0 time=8
the msg is note_on channel=0 note=72 velocity=100 time=0
the msg is note_off channel=0 note=72 velocity=0 time=25
the msg is note_on channel=0 note=72 velocity=100 time=0
the msg is note_off channel=0 note=72 velocity=0 time=12
the msg is note_on channel=0 note=72 velocity=100 time=0
the msg is note_off channel=0 note=72 velocity=0 time=12
the msg is note_on channel=0 note=72 velocity=100 time=0
the msg is note_off channel=0 note=72 velocity=0 time=12
the msg is note_on channel=0 note=72 velocity=100 time=0
the msg is note_off channel=0 note=76 velocity=0 time=12
the msg is note_on channel=0 note=76 velocity=100 time=0
the msg is note_off channel=0 note=79 velocity=0 time=25
the msg is note_on channel=0 note=79 velocity=100 time=0
the msg is note_off channel=0 note=79 velocity=0 time=12
the msg is note_on channel=0 note=79 velocity=100 time=0
the msg is note_off channel=0 note=76 velocity=0 time=12
the msg is note_on channel=0 note=76 velocity=100 time=0
the msg is note_off channel=0 note=74 velocity=0 time=12
the msg is note_on channel=0 note=74 velocity=100 time=0
the msg is note_off channel=0 note=72 velocity=0 time=12
the msg is note_on channel=0 note=72 velocity=100 time=0
the msg is note_off channel=0 note=72 velocity=0 time=76
the msg is note_on channel=0 note=72 velocity=100 time=0
the msg is note_off channel=0 note=72 velocity=0 time=12
the msg is note_on channel=0 note=72 velocity=100 time=0
the msg is note_off channel=0 note=72 velocity=0 time=12
the msg is note_on channel=0 note=72 velocity=100 time=0
the msg is note_off channel=0 note=72 velocity=0 time=8
the msg is note_on channel=0 note=72 velocity=100 time=0
the msg is note_off channel=0 note=72 velocity=0 time=17
the msg is note_on channel=0 note=72 velocity=100 time=0
the msg is note_off channel=0 note=72 velocity=0 time=12
the msg is note_on channel=0 note=72 velocity=100 time=0
the msg is note_off channel=0 note=72 velocity=0 time=12
the msg is note_on channel=0 note=72 velocity=100 time=0
the msg is note_off channel=0 note=76 velocity=0 time=8
the msg is note_on channel=0 note=76 velocity=100 time=0
the msg is note_off channel=0 note=79 velocity=0 time=29
the msg is note_on channel=0 note=79 velocity=100 time=0
the msg is note_off channel=0 note=79 velocity=0 time=12
the msg is note_on channel=0 note=79 velocity=100 time=0
the msg is note_off channel=0 note=76 velocity=0 time=8
the msg is note_on channel=0 note=76 velocity=100 time=0
the msg is note_off channel=0 note=74 velocity=0 time=17
the msg is note_on channel=0 note=74 velocity=100 time=0
the msg is <meta message end_of_track time=51>
the msg is <meta message track_name name='Piano' time=0>
the msg is program_change channel=0 program=0 time=0
the msg is note_off channel=0 note=72 velocity=0 time=0
the msg is pitchwheel channel=0 pitch=0 time=0
the msg is program_change channel=0 program=0 time=0
the msg is <meta message set_tempo tempo=500000 time=0>
the msg is <meta message time_signature numerator=4 denominator=4 clocks_per_click=24 notated_32nd_notes_per_beat=8 time=0>
the msg is note_on channel=0 note=72 velocity=100 time=0
the msg is note_off channel=0 note=74 velocity=0 time=34
the msg is note_on channel=0 note=74 velocity=100 time=0
the msg is note_off channel=0 note=74 velocity=0 time=17
the msg is note_on channel=0 note=74 velocity=100 time=0
the msg is note_off channel=0 note=74 velocity=0 time=34
the msg is note_on channel=0 note=74 velocity=100 time=0
the msg is note_off channel=0 note=74 velocity=0 time=17
the msg is note_on channel=0 note=74 velocity=100 time=0
the msg is note_off channel=0 note=76 velocity=0 time=34
the msg is note_on channel=0 note=76 velocity=100 time=0
the msg is note_off channel=0 note=79 velocity=0 time=17
the msg is note_on channel=0 note=79 velocity=100 time=0
the msg is note_off channel=0 note=79 velocity=0 time=17
the msg is note_on channel=0 note=79 velocity=100 time=0
the msg is note_off channel=0 note=76 velocity=0 time=17
the msg is note_on channel=0 note=76 velocity=100 time=0
the msg is note_off channel=0 note=74 velocity=0 time=4
the msg is note_on channel=0 note=74 velocity=100 time=0
the msg is note_off channel=0 note=72 velocity=0 time=12
the msg is note_on channel=0 note=72 velocity=100 time=0
the msg is note_off channel=0 note=72 velocity=0 time=89
the msg is note_on channel=0 note=72 velocity=100 time=0
the msg is note_off channel=0 note=72 velocity=0 time=12
the msg is note_on channel=0 note=72 velocity=100 time=0
the msg is note_off channel=0 note=74 velocity=0 time=25
the msg is note_on channel=0 note=74 velocity=100 time=0
the msg is note_off channel=0 note=74 velocity=0 time=25
the msg is note_on channel=0 note=74 velocity=100 time=0
the msg is note_off channel=0 note=74 velocity=0 time=12
the msg is note_on channel=0 note=74 velocity=100 time=0
the msg is note_off channel=0 note=76 velocity=0 time=25
the msg is note_on channel=0 note=76 velocity=100 time=0
the msg is note_off channel=0 note=79 velocity=0 time=25
the msg is note_on channel=0 note=79 velocity=100 time=0
the msg is note_off channel=0 note=79 velocity=0 time=12
the msg is note_on channel=0 note=79 velocity=100 time=0
the msg is note_off channel=0 note=76 velocity=0 time=12
the msg is note_on channel=0 note=76 velocity=100 time=0
the msg is note_off channel=0 note=74 velocity=0 time=12
the msg is note_on channel=0 note=74 velocity=100 time=0
the msg is note_off channel=0 note=72 velocity=0 time=12
the msg is note_on channel=0 note=72 velocity=100 time=0
the msg is note_off channel=0 note=74 velocity=0 time=25
the msg is note_on channel=0 note=74 velocity=100 time=0
the msg is note_off channel=0 note=76 velocity=0 time=25
the msg is note_on channel=0 note=76 velocity=100 time=0
the msg is note_off channel=0 note=79 velocity=0 time=25
the msg is note_on channel=0 note=79 velocity=100 time=0
the msg is note_off channel=0 note=79 velocity=0 time=12
the msg is note_on channel=0 note=79 velocity=100 time=0
the msg is note_off channel=0 note=76 velocity=0 time=12
the msg is note_on channel=0 note=76 velocity=100 time=0
the msg is note_off channel=0 note=74 velocity=0 time=12
the msg is note_on channel=0 note=74 velocity=100 time=0
the msg is note_off channel=0 note=72 velocity=0 time=12
the msg is note_on channel=0 note=72 velocity=100 time=0
the msg is note_off channel=0 note=74 velocity=0 time=25
the msg is note_on channel=0 note=74 velocity=100 time=0
the msg is note_off channel=0 note=74 velocity=0 time=12
the msg is note_on channel=0 note=74 velocity=100 time=0
the msg is note_off channel=0 note=74 velocity=0 time=12
the msg is note_on channel=0 note=74 velocity=100 time=0
the msg is note_off channel=0 note=74 velocity=0 time=25
the msg is note_on channel=0 note=74 velocity=100 time=0
the msg is note_off channel=0 note=74 velocity=0 time=25
the msg is note_on channel=0 note=74 velocity=100 time=0
the msg is note_off channel=0 note=76 velocity=0 time=25
the msg is note_on channel=0 note=76 velocity=100 time=0
the msg is note_off channel=0 note=79 velocity=0 time=25
the msg is note_on channel=0 note=79 velocity=100 time=0
the msg is note_off channel=0 note=79 velocity=0 time=12
the msg is note_on channel=0 note=79 velocity=100 time=0
the msg is note_off channel=0 note=76 velocity=0 time=12
the msg is note_on channel=0 note=76 velocity=100 time=0
the msg is note_off channel=0 note=74 velocity=0 time=12
the msg is note_on channel=0 note=74 velocity=100 time=0
the msg is note_off channel=0 note=72 velocity=0 time=12
the msg is note_on channel=0 note=72 velocity=100 time=0
the msg is note_off channel=0 note=72 velocity=0 time=81
the msg is note_on channel=0 note=72 velocity=100 time=0
the msg is note_off channel=0 note=72 velocity=0 time=8
the msg is note_on channel=0 note=72 velocity=100 time=0
the msg is note_off channel=0 note=74 velocity=0 time=25
the msg is note_on channel=0 note=74 velocity=100 time=0
the msg is note_off channel=0 note=74 velocity=0 time=25
the msg is note_on channel=0 note=74 velocity=100 time=0
the msg is note_off channel=0 note=74 velocity=0 time=25
the msg is note_on channel=0 note=74 velocity=100 time=0
the msg is note_off channel=0 note=74 velocity=0 time=25
the msg is note_on channel=0 note=74 velocity=100 time=0
the msg is note_off channel=0 note=74 velocity=0 time=25
the msg is note_on channel=0 note=74 velocity=100 time=0
the msg is note_off channel=0 note=74 velocity=0 time=25
the msg is note_on channel=0 note=74 velocity=100 time=0
the msg is note_off channel=0 note=76 velocity=0 time=25
the msg is note_on channel=0 note=76 velocity=100 time=0
the msg is note_off channel=0 note=79 velocity=0 time=25
the msg is note_on channel=0 note=79 velocity=100 time=0
the msg is note_off channel=0 note=79 velocity=0 time=12
the msg is note_on channel=0 note=79 velocity=100 time=0
the msg is note_off channel=0 note=76 velocity=0 time=12
the msg is note_on channel=0 note=76 velocity=100 time=0
the msg is note_off channel=0 note=74 velocity=0 time=17
the msg is note_on channel=0 note=74 velocity=100 time=0
the msg is note_off channel=0 note=72 velocity=0 time=8
the msg is note_on channel=0 note=72 velocity=100 time=0
the msg is note_off channel=0 note=72 velocity=0 time=25
the msg is note_on channel=0 note=72 velocity=100 time=0
the msg is note_off channel=0 note=72 velocity=0 time=25
the msg is note_on channel=0 note=72 velocity=100 time=0
the msg is note_off channel=0 note=72 velocity=0 time=12
the msg is note_on channel=0 note=72 velocity=100 time=0
the msg is note_off channel=0 note=72 velocity=0 time=29
the msg is note_on channel=0 note=72 velocity=100 time=0
the msg is note_off channel=0 note=72 velocity=0 time=8
the msg is note_on channel=0 note=72 velocity=100 time=0
the msg is note_off channel=0 note=72 velocity=0 time=25
the msg is note_on channel=0 note=72 velocity=100 time=0
the msg is note_off channel=0 note=72 velocity=0 time=12
the msg is note_on channel=0 note=72 velocity=100 time=0
the msg is note_off channel=0 note=72 velocity=0 time=12
the msg is note_on channel=0 note=72 velocity=100 time=0
the msg is note_off channel=0 note=72 velocity=0 time=12
the msg is note_on channel=0 note=72 velocity=100 time=0
the msg is note_off channel=0 note=76 velocity=0 time=12
the msg is note_on channel=0 note=76 velocity=100 time=0
the msg is note_off channel=0 note=79 velocity=0 time=25
the msg is note_on channel=0 note=79 velocity=100 time=0
the msg is note_off channel=0 note=79 velocity=0 time=12
the msg is note_on channel=0 note=79 velocity=100 time=0
the msg is note_off channel=0 note=76 velocity=0 time=12
the msg is note_on channel=0 note=76 velocity=100 time=0
the msg is note_off channel=0 note=74 velocity=0 time=12
the msg is note_on channel=0 note=74 velocity=100 time=0
the msg is note_off channel=0 note=72 velocity=0 time=12
the msg is note_on channel=0 note=72 velocity=100 time=0
the msg is note_off channel=0 note=72 velocity=0 time=76
the msg is note_on channel=0 note=72 velocity=100 time=0
the msg is note_off channel=0 note=72 velocity=0 time=12
the msg is note_on channel=0 note=72 velocity=100 time=0
the msg is note_off channel=0 note=72 velocity=0 time=12
the msg is note_on channel=0 note=72 velocity=100 time=0
the msg is note_off channel=0 note=72 velocity=0 time=8
the msg is note_on channel=0 note=72 velocity=100 time=0
the msg is note_off channel=0 note=72 velocity=0 time=17
the msg is note_on channel=0 note=72 velocity=100 time=0
the msg is note_off channel=0 note=72 velocity=0 time=12
the msg is note_on channel=0 note=72 velocity=100 time=0
the msg is note_off channel=0 note=72 velocity=0 time=12
the msg is note_on channel=0 note=72 velocity=100 time=0
the msg is note_off channel=0 note=76 velocity=0 time=8
the msg is note_on channel=0 note=76 velocity=100 time=0
the msg is note_off channel=0 note=79 velocity=0 time=29
the msg is note_on channel=0 note=79 velocity=100 time=0
the msg is note_off channel=0 note=79 velocity=0 time=12
the msg is note_on channel=0 note=79 velocity=100 time=0
the msg is note_off channel=0 note=76 velocity=0 time=8
the msg is note_on channel=0 note=76 velocity=100 time=0
the msg is note_off channel=0 note=74 velocity=0 time=17
the msg is note_on channel=0 note=74 velocity=100 time=0
the msg is <meta message end_of_track time=51>
the msg is <meta message track_name name='Piano' time=0>
the msg is program_change channel=0 program=0 time=0
the msg is note_off channel=0 note=72 velocity=0 time=0
the msg is pitchwheel channel=0 pitch=0 time=0
the msg is program_change channel=0 program=0 time=0
the msg is <meta message set_tempo tempo=500000 time=0>
the msg is <meta message time_signature numerator=4 denominator=4 clocks_per_click=24 notated_32nd_notes_per_beat=8 time=0>
the msg is note_on channel=0 note=72 velocity=100 time=0
the msg is note_off channel=0 note=74 velocity=0 time=34
the msg is note_on channel=0 note=74 velocity=100 time=0
the msg is note_off channel=0 note=74 velocity=0 time=17
the msg is note_on channel=0 note=74 velocity=100 time=0
the msg is note_off channel=0 note=74 velocity=0 time=34
the msg is note_on channel=0 note=74 velocity=100 time=0
the msg is note_off channel=0 note=74 velocity=0 time=17
the msg is note_on channel=0 note=74 velocity=100 time=0
the msg is note_off channel=0 note=76 velocity=0 time=34
the msg is note_on channel=0 note=76 velocity=100 time=0
the msg is note_off channel=0 note=79 velocity=0 time=17
the msg is note_on channel=0 note=79 velocity=100 time=0
the msg is note_off channel=0 note=79 velocity=0 time=17
the msg is note_on channel=0 note=79 velocity=100 time=0
the msg is note_off channel=0 note=76 velocity=0 time=17
the msg is note_on channel=0 note=76 velocity=100 time=0
the msg is note_off channel=0 note=74 velocity=0 time=4
the msg is note_on channel=0 note=74 velocity=100 time=0
the msg is note_off channel=0 note=72 velocity=0 time=12
the msg is note_on channel=0 note=72 velocity=100 time=0
the msg is note_off channel=0 note=72 velocity=0 time=89
the msg is note_on channel=0 note=72 velocity=100 time=0
the msg is note_off channel=0 note=72 velocity=0 time=12
the msg is note_on channel=0 note=72 velocity=100 time=0
the msg is note_off channel=0 note=74 velocity=0 time=25
the msg is note_on channel=0 note=74 velocity=100 time=0
the msg is note_off channel=0 note=74 velocity=0 time=25
the msg is note_on channel=0 note=74 velocity=100 time=0
the msg is note_off channel=0 note=74 velocity=0 time=12
the msg is note_on channel=0 note=74 velocity=100 time=0
the msg is note_off channel=0 note=76 velocity=0 time=25
the msg is note_on channel=0 note=76 velocity=100 time=0
the msg is note_off channel=0 note=79 velocity=0 time=25
the msg is note_on channel=0 note=79 velocity=100 time=0
the msg is note_off channel=0 note=79 velocity=0 time=12
the msg is note_on channel=0 note=79 velocity=100 time=0
the msg is note_off channel=0 note=76 velocity=0 time=12
the msg is note_on channel=0 note=76 velocity=100 time=0
the msg is note_off channel=0 note=74 velocity=0 time=12
the msg is note_on channel=0 note=74 velocity=100 time=0
the msg is note_off channel=0 note=72 velocity=0 time=12
the msg is note_on channel=0 note=72 velocity=100 time=0
the msg is note_off channel=0 note=74 velocity=0 time=25
the msg is note_on channel=0 note=74 velocity=100 time=0
the msg is note_off channel=0 note=76 velocity=0 time=25
the msg is note_on channel=0 note=76 velocity=100 time=0
the msg is note_off channel=0 note=79 velocity=0 time=25
the msg is note_on channel=0 note=79 velocity=100 time=0
the msg is note_off channel=0 note=79 velocity=0 time=12
the msg is note_on channel=0 note=79 velocity=100 time=0
the msg is note_off channel=0 note=76 velocity=0 time=12
the msg is note_on channel=0 note=76 velocity=100 time=0
the msg is note_off channel=0 note=74 velocity=0 time=12
the msg is note_on channel=0 note=74 velocity=100 time=0
the msg is note_off channel=0 note=72 velocity=0 time=12
the msg is note_on channel=0 note=72 velocity=100 time=0
the msg is note_off channel=0 note=74 velocity=0 time=25
the msg is note_on channel=0 note=74 velocity=100 time=0
the msg is note_off channel=0 note=74 velocity=0 time=12
the msg is note_on channel=0 note=74 velocity=100 time=0
the msg is note_off channel=0 note=74 velocity=0 time=12
the msg is note_on channel=0 note=74 velocity=100 time=0
the msg is note_off channel=0 note=74 velocity=0 time=25
the msg is note_on channel=0 note=74 velocity=100 time=0
the msg is note_off channel=0 note=74 velocity=0 time=25
the msg is note_on channel=0 note=74 velocity=100 time=0
the msg is note_off channel=0 note=76 velocity=0 time=25
the msg is note_on channel=0 note=76 velocity=100 time=0
the msg is note_off channel=0 note=79 velocity=0 time=25
the msg is note_on channel=0 note=79 velocity=100 time=0
the msg is note_off channel=0 note=79 velocity=0 time=12
the msg is note_on channel=0 note=79 velocity=100 time=0
the msg is note_off channel=0 note=76 velocity=0 time=12
the msg is note_on channel=0 note=76 velocity=100 time=0
the msg is note_off channel=0 note=74 velocity=0 time=12
the msg is note_on channel=0 note=74 velocity=100 time=0
the msg is note_off channel=0 note=72 velocity=0 time=12
the msg is note_on channel=0 note=72 velocity=100 time=0
the msg is note_off channel=0 note=72 velocity=0 time=81
the msg is note_on channel=0 note=72 velocity=100 time=0
the msg is note_off channel=0 note=72 velocity=0 time=8
the msg is note_on channel=0 note=72 velocity=100 time=0
the msg is note_off channel=0 note=74 velocity=0 time=25
the msg is note_on channel=0 note=74 velocity=100 time=0
the msg is note_off channel=0 note=74 velocity=0 time=25
the msg is note_on channel=0 note=74 velocity=100 time=0
the msg is note_off channel=0 note=74 velocity=0 time=25
the msg is note_on channel=0 note=74 velocity=100 time=0
the msg is note_off channel=0 note=74 velocity=0 time=25
the msg is note_on channel=0 note=74 velocity=100 time=0
the msg is note_off channel=0 note=74 velocity=0 time=25
the msg is note_on channel=0 note=74 velocity=100 time=0
the msg is note_off channel=0 note=74 velocity=0 time=25
the msg is note_on channel=0 note=74 velocity=100 time=0
the msg is note_off channel=0 note=76 velocity=0 time=25
the msg is note_on channel=0 note=76 velocity=100 time=0
the msg is note_off channel=0 note=79 velocity=0 time=25
the msg is note_on channel=0 note=79 velocity=100 time=0
the msg is note_off channel=0 note=79 velocity=0 time=12
the msg is note_on channel=0 note=79 velocity=100 time=0
the msg is note_off channel=0 note=76 velocity=0 time=12
the msg is note_on channel=0 note=76 velocity=100 time=0
the msg is note_off channel=0 note=74 velocity=0 time=17
the msg is note_on channel=0 note=74 velocity=100 time=0
the msg is note_off channel=0 note=72 velocity=0 time=8
the msg is note_on channel=0 note=72 velocity=100 time=0
the msg is note_off channel=0 note=72 velocity=0 time=25
the msg is note_on channel=0 note=72 velocity=100 time=0
the msg is note_off channel=0 note=72 velocity=0 time=25
the msg is note_on channel=0 note=72 velocity=100 time=0
the msg is note_off channel=0 note=72 velocity=0 time=12
the msg is note_on channel=0 note=72 velocity=100 time=0
the msg is note_off channel=0 note=72 velocity=0 time=29
the msg is note_on channel=0 note=72 velocity=100 time=0
the msg is note_off channel=0 note=72 velocity=0 time=8
the msg is note_on channel=0 note=72 velocity=100 time=0
the msg is note_off channel=0 note=72 velocity=0 time=25
the msg is note_on channel=0 note=72 velocity=100 time=0
the msg is note_off channel=0 note=72 velocity=0 time=12
the msg is note_on channel=0 note=72 velocity=100 time=0
the msg is note_off channel=0 note=72 velocity=0 time=12
the msg is note_on channel=0 note=72 velocity=100 time=0
the msg is note_off channel=0 note=72 velocity=0 time=12
the msg is note_on channel=0 note=72 velocity=100 time=0
the msg is note_off channel=0 note=76 velocity=0 time=12
the msg is note_on channel=0 note=76 velocity=100 time=0
the msg is note_off channel=0 note=79 velocity=0 time=25
the msg is note_on channel=0 note=79 velocity=100 time=0
the msg is note_off channel=0 note=79 velocity=0 time=12
the msg is note_on channel=0 note=79 velocity=100 time=0
the msg is note_off channel=0 note=76 velocity=0 time=12
the msg is note_on channel=0 note=76 velocity=100 time=0
the msg is note_off channel=0 note=74 velocity=0 time=12
the msg is note_on channel=0 note=74 velocity=100 time=0
the msg is note_off channel=0 note=72 velocity=0 time=12
the msg is note_on channel=0 note=72 velocity=100 time=0
the msg is note_off channel=0 note=72 velocity=0 time=76
the msg is note_on channel=0 note=72 velocity=100 time=0
the msg is note_off channel=0 note=72 velocity=0 time=12
the msg is note_on channel=0 note=72 velocity=100 time=0
the msg is note_off channel=0 note=72 velocity=0 time=12
the msg is note_on channel=0 note=72 velocity=100 time=0
the msg is note_off channel=0 note=72 velocity=0 time=8
the msg is note_on channel=0 note=72 velocity=100 time=0
the msg is note_off channel=0 note=72 velocity=0 time=17
the msg is note_on channel=0 note=72 velocity=100 time=0
the msg is note_off channel=0 note=72 velocity=0 time=12
the msg is note_on channel=0 note=72 velocity=100 time=0
the msg is note_off channel=0 note=72 velocity=0 time=12
the msg is note_on channel=0 note=72 velocity=100 time=0
the msg is note_off channel=0 note=76 velocity=0 time=8
the msg is note_on channel=0 note=76 velocity=100 time=0
the msg is note_off channel=0 note=79 velocity=0 time=29
the msg is note_on channel=0 note=79 velocity=100 time=0
the msg is note_off channel=0 note=79 velocity=0 time=12
the msg is note_on channel=0 note=79 velocity=100 time=0
the msg is note_off channel=0 note=76 velocity=0 time=8
the msg is note_on channel=0 note=76 velocity=100 time=0
the msg is note_off channel=0 note=74 velocity=0 time=17
the msg is note_on channel=0 note=74 velocity=100 time=0
the msg is <meta message end_of_track time=51>
the msg is <meta message track_name name='Piano' time=0>
the msg is program_change channel=0 program=0 time=0
the msg is note_off channel=0 note=72 velocity=0 time=0
the msg is pitchwheel channel=0 pitch=0 time=0
the msg is program_change channel=0 program=0 time=0
the msg is <meta message set_tempo tempo=500000 time=0>
the msg is <meta message time_signature numerator=4 denominator=4 clocks_per_click=24 notated_32nd_notes_per_beat=8 time=0>
the msg is note_on channel=0 note=72 velocity=100 time=0
the msg is note_off channel=0 note=74 velocity=0 time=34
the msg is note_on channel=0 note=74 velocity=100 time=0
the msg is note_off channel=0 note=74 velocity=0 time=17
the msg is note_on channel=0 note=74 velocity=100 time=0
the msg is note_off channel=0 note=74 velocity=0 time=34
the msg is note_on channel=0 note=74 velocity=100 time=0
the msg is note_off channel=0 note=74 velocity=0 time=17
the msg is note_on channel=0 note=74 velocity=100 time=0
the msg is note_off channel=0 note=76 velocity=0 time=34
the msg is note_on channel=0 note=76 velocity=100 time=0
the msg is note_off channel=0 note=79 velocity=0 time=17
the msg is note_on channel=0 note=79 velocity=100 time=0
the msg is note_off channel=0 note=79 velocity=0 time=17
the msg is note_on channel=0 note=79 velocity=100 time=0
the msg is note_off channel=0 note=76 velocity=0 time=17
the msg is note_on channel=0 note=76 velocity=100 time=0
the msg is note_off channel=0 note=74 velocity=0 time=4
the msg is note_on channel=0 note=74 velocity=100 time=0
the msg is note_off channel=0 note=72 velocity=0 time=12
the msg is note_on channel=0 note=72 velocity=100 time=0
the msg is note_off channel=0 note=72 velocity=0 time=89
the msg is note_on channel=0 note=72 velocity=100 time=0
the msg is note_off channel=0 note=72 velocity=0 time=12
the msg is note_on channel=0 note=72 velocity=100 time=0
the msg is note_off channel=0 note=74 velocity=0 time=25
the msg is note_on channel=0 note=74 velocity=100 time=0
the msg is note_off channel=0 note=74 velocity=0 time=25
the msg is note_on channel=0 note=74 velocity=100 time=0
the msg is note_off channel=0 note=74 velocity=0 time=12
the msg is note_on channel=0 note=74 velocity=100 time=0
the msg is note_off channel=0 note=76 velocity=0 time=25
the msg is note_on channel=0 note=76 velocity=100 time=0
the msg is note_off channel=0 note=79 velocity=0 time=25
the msg is note_on channel=0 note=79 velocity=100 time=0
the msg is note_off channel=0 note=79 velocity=0 time=12
the msg is note_on channel=0 note=79 velocity=100 time=0
the msg is note_off channel=0 note=76 velocity=0 time=12
the msg is note_on channel=0 note=76 velocity=100 time=0
the msg is note_off channel=0 note=74 velocity=0 time=12
the msg is note_on channel=0 note=74 velocity=100 time=0
the msg is note_off channel=0 note=72 velocity=0 time=12
the msg is note_on channel=0 note=72 velocity=100 time=0
the msg is note_off channel=0 note=74 velocity=0 time=25
the msg is note_on channel=0 note=74 velocity=100 time=0
the msg is note_off channel=0 note=76 velocity=0 time=25
the msg is note_on channel=0 note=76 velocity=100 time=0
the msg is note_off channel=0 note=79 velocity=0 time=25
the msg is note_on channel=0 note=79 velocity=100 time=0
the msg is note_off channel=0 note=79 velocity=0 time=12
the msg is note_on channel=0 note=79 velocity=100 time=0
the msg is note_off channel=0 note=76 velocity=0 time=12
the msg is note_on channel=0 note=76 velocity=100 time=0
the msg is note_off channel=0 note=74 velocity=0 time=12
the msg is note_on channel=0 note=74 velocity=100 time=0
the msg is note_off channel=0 note=72 velocity=0 time=12
the msg is note_on channel=0 note=72 velocity=100 time=0
the msg is note_off channel=0 note=74 velocity=0 time=25
the msg is note_on channel=0 note=74 velocity=100 time=0
the msg is note_off channel=0 note=74 velocity=0 time=12
the msg is note_on channel=0 note=74 velocity=100 time=0
the msg is note_off channel=0 note=74 velocity=0 time=12
the msg is note_on channel=0 note=74 velocity=100 time=0
the msg is note_off channel=0 note=74 velocity=0 time=25
the msg is note_on channel=0 note=74 velocity=100 time=0
the msg is note_off channel=0 note=74 velocity=0 time=25
the msg is note_on channel=0 note=74 velocity=100 time=0
the msg is note_off channel=0 note=76 velocity=0 time=25
the msg is note_on channel=0 note=76 velocity=100 time=0
the msg is note_off channel=0 note=79 velocity=0 time=25
the msg is note_on channel=0 note=79 velocity=100 time=0
the msg is note_off channel=0 note=79 velocity=0 time=12
the msg is note_on channel=0 note=79 velocity=100 time=0
the msg is note_off channel=0 note=76 velocity=0 time=12
the msg is note_on channel=0 note=76 velocity=100 time=0
the msg is note_off channel=0 note=74 velocity=0 time=12
the msg is note_on channel=0 note=74 velocity=100 time=0
the msg is note_off channel=0 note=72 velocity=0 time=12
the msg is note_on channel=0 note=72 velocity=100 time=0
the msg is note_off channel=0 note=72 velocity=0 time=81
the msg is note_on channel=0 note=72 velocity=100 time=0
the msg is note_off channel=0 note=72 velocity=0 time=8
the msg is note_on channel=0 note=72 velocity=100 time=0
the msg is note_off channel=0 note=74 velocity=0 time=25
the msg is note_on channel=0 note=74 velocity=100 time=0
the msg is note_off channel=0 note=74 velocity=0 time=25
the msg is note_on channel=0 note=74 velocity=100 time=0
the msg is note_off channel=0 note=74 velocity=0 time=25
the msg is note_on channel=0 note=74 velocity=100 time=0
the msg is note_off channel=0 note=74 velocity=0 time=25
the msg is note_on channel=0 note=74 velocity=100 time=0
the msg is note_off channel=0 note=74 velocity=0 time=25
the msg is note_on channel=0 note=74 velocity=100 time=0
the msg is note_off channel=0 note=74 velocity=0 time=25
the msg is note_on channel=0 note=74 velocity=100 time=0
the msg is note_off channel=0 note=76 velocity=0 time=25
the msg is note_on channel=0 note=76 velocity=100 time=0
the msg is note_off channel=0 note=79 velocity=0 time=25
the msg is note_on channel=0 note=79 velocity=100 time=0
the msg is note_off channel=0 note=79 velocity=0 time=12
the msg is note_on channel=0 note=79 velocity=100 time=0
the msg is note_off channel=0 note=76 velocity=0 time=12
the msg is note_on channel=0 note=76 velocity=100 time=0
the msg is note_off channel=0 note=74 velocity=0 time=17
the msg is note_on channel=0 note=74 velocity=100 time=0
the msg is note_off channel=0 note=72 velocity=0 time=8
the msg is note_on channel=0 note=72 velocity=100 time=0
the msg is note_off channel=0 note=72 velocity=0 time=25
the msg is note_on channel=0 note=72 velocity=100 time=0
the msg is note_off channel=0 note=72 velocity=0 time=25
the msg is note_on channel=0 note=72 velocity=100 time=0
the msg is note_off channel=0 note=72 velocity=0 time=12
the msg is note_on channel=0 note=72 velocity=100 time=0
the msg is note_off channel=0 note=72 velocity=0 time=29
the msg is note_on channel=0 note=72 velocity=100 time=0
the msg is note_off channel=0 note=72 velocity=0 time=8
the msg is note_on channel=0 note=72 velocity=100 time=0
the msg is note_off channel=0 note=72 velocity=0 time=25
the msg is note_on channel=0 note=72 velocity=100 time=0
the msg is note_off channel=0 note=72 velocity=0 time=12
the msg is note_on channel=0 note=72 velocity=100 time=0
the msg is note_off channel=0 note=72 velocity=0 time=12
the msg is note_on channel=0 note=72 velocity=100 time=0
the msg is note_off channel=0 note=72 velocity=0 time=12
the msg is note_on channel=0 note=72 velocity=100 time=0
the msg is note_off channel=0 note=76 velocity=0 time=12
the msg is note_on channel=0 note=76 velocity=100 time=0
the msg is note_off channel=0 note=79 velocity=0 time=25
the msg is note_on channel=0 note=79 velocity=100 time=0
the msg is note_off channel=0 note=79 velocity=0 time=12
the msg is note_on channel=0 note=79 velocity=100 time=0
the msg is note_off channel=0 note=76 velocity=0 time=12
the msg is note_on channel=0 note=76 velocity=100 time=0
the msg is note_off channel=0 note=74 velocity=0 time=12
the msg is note_on channel=0 note=74 velocity=100 time=0
the msg is note_off channel=0 note=72 velocity=0 time=12
the msg is note_on channel=0 note=72 velocity=100 time=0
the msg is note_off channel=0 note=72 velocity=0 time=76
the msg is note_on channel=0 note=72 velocity=100 time=0
the msg is note_off channel=0 note=72 velocity=0 time=12
the msg is note_on channel=0 note=72 velocity=100 time=0
the msg is note_off channel=0 note=72 velocity=0 time=12
the msg is note_on channel=0 note=72 velocity=100 time=0
the msg is note_off channel=0 note=72 velocity=0 time=8
the msg is note_on channel=0 note=72 velocity=100 time=0
the msg is note_off channel=0 note=72 velocity=0 time=17
the msg is note_on channel=0 note=72 velocity=100 time=0
the msg is note_off channel=0 note=72 velocity=0 time=12
the msg is note_on channel=0 note=72 velocity=100 time=0
the msg is note_off channel=0 note=72 velocity=0 time=12
the msg is note_on channel=0 note=72 velocity=100 time=0
the msg is note_off channel=0 note=76 velocity=0 time=8
the msg is note_on channel=0 note=76 velocity=100 time=0
the msg is note_off channel=0 note=79 velocity=0 time=29
the msg is note_on channel=0 note=79 velocity=100 time=0
the msg is note_off channel=0 note=79 velocity=0 time=12
the msg is note_on channel=0 note=79 velocity=100 time=0
the msg is note_off channel=0 note=76 velocity=0 time=8
the msg is note_on channel=0 note=76 velocity=100 time=0
the msg is note_off channel=0 note=74 velocity=0 time=17
the msg is note_on channel=0 note=74 velocity=100 time=0
the msg is <meta message end_of_track time=51>
the msg is <meta message track_name name='Piano' time=0>
the msg is program_change channel=0 program=0 time=0
the msg is note_off channel=0 note=72 velocity=0 time=0
the msg is pitchwheel channel=0 pitch=0 time=0
the msg is program_change channel=0 program=0 time=0
the msg is <meta message set_tempo tempo=500000 time=0>
the msg is <meta message time_signature numerator=4 denominator=4 clocks_per_click=24 notated_32nd_notes_per_beat=8 time=0>
the msg is note_on channel=0 note=72 velocity=100 time=0
the msg is note_off channel=0 note=74 velocity=0 time=34
the msg is note_on channel=0 note=74 velocity=100 time=0
the msg is note_off channel=0 note=74 velocity=0 time=17
the msg is note_on channel=0 note=74 velocity=100 time=0
the msg is note_off channel=0 note=74 velocity=0 time=34
the msg is note_on channel=0 note=74 velocity=100 time=0
the msg is note_off channel=0 note=74 velocity=0 time=17
the msg is note_on channel=0 note=74 velocity=100 time=0
the msg is note_off channel=0 note=76 velocity=0 time=34
the msg is note_on channel=0 note=76 velocity=100 time=0
the msg is note_off channel=0 note=79 velocity=0 time=17
the msg is note_on channel=0 note=79 velocity=100 time=0
the msg is note_off channel=0 note=79 velocity=0 time=17
the msg is note_on channel=0 note=79 velocity=100 time=0
the msg is note_off channel=0 note=76 velocity=0 time=17
the msg is note_on channel=0 note=76 velocity=100 time=0
the msg is note_off channel=0 note=74 velocity=0 time=4
the msg is note_on channel=0 note=74 velocity=100 time=0
the msg is note_off channel=0 note=72 velocity=0 time=12
the msg is note_on channel=0 note=72 velocity=100 time=0
the msg is note_off channel=0 note=72 velocity=0 time=89
the msg is note_on channel=0 note=72 velocity=100 time=0
the msg is note_off channel=0 note=72 velocity=0 time=12
the msg is note_on channel=0 note=72 velocity=100 time=0
the msg is note_off channel=0 note=74 velocity=0 time=25
the msg is note_on channel=0 note=74 velocity=100 time=0
the msg is note_off channel=0 note=74 velocity=0 time=25
the msg is note_on channel=0 note=74 velocity=100 time=0
the msg is note_off channel=0 note=74 velocity=0 time=12
the msg is note_on channel=0 note=74 velocity=100 time=0
the msg is note_off channel=0 note=76 velocity=0 time=25
the msg is note_on channel=0 note=76 velocity=100 time=0
the msg is note_off channel=0 note=79 velocity=0 time=25
the msg is note_on channel=0 note=79 velocity=100 time=0
the msg is note_off channel=0 note=79 velocity=0 time=12
the msg is note_on channel=0 note=79 velocity=100 time=0
the msg is note_off channel=0 note=76 velocity=0 time=12
the msg is note_on channel=0 note=76 velocity=100 time=0
the msg is note_off channel=0 note=74 velocity=0 time=12
the msg is note_on channel=0 note=74 velocity=100 time=0
the msg is note_off channel=0 note=72 velocity=0 time=12
the msg is note_on channel=0 note=72 velocity=100 time=0
the msg is note_off channel=0 note=74 velocity=0 time=25
the msg is note_on channel=0 note=74 velocity=100 time=0
the msg is note_off channel=0 note=76 velocity=0 time=25
the msg is note_on channel=0 note=76 velocity=100 time=0
the msg is note_off channel=0 note=79 velocity=0 time=25
the msg is note_on channel=0 note=79 velocity=100 time=0
the msg is note_off channel=0 note=79 velocity=0 time=12
the msg is note_on channel=0 note=79 velocity=100 time=0
the msg is note_off channel=0 note=76 velocity=0 time=12
the msg is note_on channel=0 note=76 velocity=100 time=0
the msg is note_off channel=0 note=74 velocity=0 time=12
the msg is note_on channel=0 note=74 velocity=100 time=0
the msg is note_off channel=0 note=72 velocity=0 time=12
the msg is note_on channel=0 note=72 velocity=100 time=0
the msg is note_off channel=0 note=74 velocity=0 time=25
the msg is note_on channel=0 note=74 velocity=100 time=0
the msg is note_off channel=0 note=74 velocity=0 time=12
the msg is note_on channel=0 note=74 velocity=100 time=0
the msg is note_off channel=0 note=74 velocity=0 time=12
the msg is note_on channel=0 note=74 velocity=100 time=0
the msg is note_off channel=0 note=74 velocity=0 time=25
the msg is note_on channel=0 note=74 velocity=100 time=0
the msg is note_off channel=0 note=74 velocity=0 time=25
the msg is note_on channel=0 note=74 velocity=100 time=0
the msg is note_off channel=0 note=76 velocity=0 time=25
the msg is note_on channel=0 note=76 velocity=100 time=0
the msg is note_off channel=0 note=79 velocity=0 time=25
the msg is note_on channel=0 note=79 velocity=100 time=0
the msg is note_off channel=0 note=79 velocity=0 time=12
the msg is note_on channel=0 note=79 velocity=100 time=0
the msg is note_off channel=0 note=76 velocity=0 time=12
the msg is note_on channel=0 note=76 velocity=100 time=0
the msg is note_off channel=0 note=74 velocity=0 time=12
the msg is note_on channel=0 note=74 velocity=100 time=0
the msg is note_off channel=0 note=72 velocity=0 time=12
the msg is note_on channel=0 note=72 velocity=100 time=0
the msg is note_off channel=0 note=72 velocity=0 time=81
the msg is note_on channel=0 note=72 velocity=100 time=0
the msg is note_off channel=0 note=72 velocity=0 time=8
the msg is note_on channel=0 note=72 velocity=100 time=0
the msg is note_off channel=0 note=74 velocity=0 time=25
the msg is note_on channel=0 note=74 velocity=100 time=0
the msg is note_off channel=0 note=74 velocity=0 time=25
the msg is note_on channel=0 note=74 velocity=100 time=0
the msg is note_off channel=0 note=74 velocity=0 time=25
the msg is note_on channel=0 note=74 velocity=100 time=0
the msg is note_off channel=0 note=74 velocity=0 time=25
the msg is note_on channel=0 note=74 velocity=100 time=0
the msg is note_off channel=0 note=74 velocity=0 time=25
the msg is note_on channel=0 note=74 velocity=100 time=0
the msg is note_off channel=0 note=74 velocity=0 time=25
the msg is note_on channel=0 note=74 velocity=100 time=0
the msg is note_off channel=0 note=76 velocity=0 time=25
the msg is note_on channel=0 note=76 velocity=100 time=0
the msg is note_off channel=0 note=79 velocity=0 time=25
the msg is note_on channel=0 note=79 velocity=100 time=0
the msg is note_off channel=0 note=79 velocity=0 time=12
the msg is note_on channel=0 note=79 velocity=100 time=0
the msg is note_off channel=0 note=76 velocity=0 time=12
the msg is note_on channel=0 note=76 velocity=100 time=0
the msg is note_off channel=0 note=74 velocity=0 time=17
the msg is note_on channel=0 note=74 velocity=100 time=0
the msg is note_off channel=0 note=72 velocity=0 time=8
the msg is note_on channel=0 note=72 velocity=100 time=0
the msg is note_off channel=0 note=72 velocity=0 time=25
the msg is note_on channel=0 note=72 velocity=100 time=0
the msg is note_off channel=0 note=72 velocity=0 time=25
the msg is note_on channel=0 note=72 velocity=100 time=0
the msg is note_off channel=0 note=72 velocity=0 time=12
the msg is note_on channel=0 note=72 velocity=100 time=0
the msg is note_off channel=0 note=72 velocity=0 time=29
the msg is note_on channel=0 note=72 velocity=100 time=0
the msg is note_off channel=0 note=72 velocity=0 time=8
the msg is note_on channel=0 note=72 velocity=100 time=0
the msg is note_off channel=0 note=72 velocity=0 time=25
the msg is note_on channel=0 note=72 velocity=100 time=0
the msg is note_off channel=0 note=72 velocity=0 time=12
the msg is note_on channel=0 note=72 velocity=100 time=0
the msg is note_off channel=0 note=72 velocity=0 time=12
the msg is note_on channel=0 note=72 velocity=100 time=0
the msg is note_off channel=0 note=72 velocity=0 time=12
the msg is note_on channel=0 note=72 velocity=100 time=0
the msg is note_off channel=0 note=76 velocity=0 time=12
the msg is note_on channel=0 note=76 velocity=100 time=0
the msg is note_off channel=0 note=79 velocity=0 time=25
the msg is note_on channel=0 note=79 velocity=100 time=0
the msg is note_off channel=0 note=79 velocity=0 time=12
the msg is note_on channel=0 note=79 velocity=100 time=0
the msg is note_off channel=0 note=76 velocity=0 time=12
the msg is note_on channel=0 note=76 velocity=100 time=0
the msg is note_off channel=0 note=74 velocity=0 time=12
the msg is note_on channel=0 note=74 velocity=100 time=0
the msg is note_off channel=0 note=72 velocity=0 time=12
the msg is note_on channel=0 note=72 velocity=100 time=0
the msg is note_off channel=0 note=72 velocity=0 time=76
the msg is note_on channel=0 note=72 velocity=100 time=0
the msg is note_off channel=0 note=72 velocity=0 time=12
the msg is note_on channel=0 note=72 velocity=100 time=0
the msg is note_off channel=0 note=72 velocity=0 time=12
the msg is note_on channel=0 note=72 velocity=100 time=0
the msg is note_off channel=0 note=72 velocity=0 time=8
the msg is note_on channel=0 note=72 velocity=100 time=0
the msg is note_off channel=0 note=72 velocity=0 time=17
the msg is note_on channel=0 note=72 velocity=100 time=0
the msg is note_off channel=0 note=72 velocity=0 time=12
the msg is note_on channel=0 note=72 velocity=100 time=0
the msg is note_off channel=0 note=72 velocity=0 time=12
the msg is note_on channel=0 note=72 velocity=100 time=0
the msg is note_off channel=0 note=76 velocity=0 time=8
the msg is note_on channel=0 note=76 velocity=100 time=0
the msg is note_off channel=0 note=79 velocity=0 time=29
the msg is note_on channel=0 note=79 velocity=100 time=0
the msg is note_off channel=0 note=79 velocity=0 time=12
the msg is note_on channel=0 note=79 velocity=100 time=0
the msg is note_off channel=0 note=76 velocity=0 time=8
the msg is note_on channel=0 note=76 velocity=100 time=0
the msg is note_off channel=0 note=74 velocity=0 time=17
the msg is note_on channel=0 note=74 velocity=100 time=0
the msg is <meta message end_of_track time=51>
the msg is <meta message track_name name='Piano' time=0>
the msg is program_change channel=0 program=0 time=0
the msg is note_off channel=0 note=72 velocity=0 time=0
the msg is pitchwheel channel=0 pitch=0 time=0
the msg is program_change channel=0 program=0 time=0
the msg is <meta message set_tempo tempo=500000 time=0>
the msg is <meta message time_signature numerator=4 denominator=4 clocks_per_click=24 notated_32nd_notes_per_beat=8 time=0>
the msg is note_on channel=0 note=72 velocity=100 time=0
the msg is note_off channel=0 note=74 velocity=0 time=34
the msg is note_on channel=0 note=74 velocity=100 time=0
the msg is note_off channel=0 note=74 velocity=0 time=17
the msg is note_on channel=0 note=74 velocity=100 time=0
the msg is note_off channel=0 note=74 velocity=0 time=34
the msg is note_on channel=0 note=74 velocity=100 time=0
the msg is note_off channel=0 note=74 velocity=0 time=17
the msg is note_on channel=0 note=74 velocity=100 time=0
the msg is note_off channel=0 note=76 velocity=0 time=34
the msg is note_on channel=0 note=76 velocity=100 time=0
the msg is note_off channel=0 note=79 velocity=0 time=17
the msg is note_on channel=0 note=79 velocity=100 time=0
the msg is note_off channel=0 note=79 velocity=0 time=17
the msg is note_on channel=0 note=79 velocity=100 time=0
the msg is note_off channel=0 note=76 velocity=0 time=17
the msg is note_on channel=0 note=76 velocity=100 time=0
the msg is note_off channel=0 note=74 velocity=0 time=4
the msg is note_on channel=0 note=74 velocity=100 time=0
the msg is note_off channel=0 note=72 velocity=0 time=12
the msg is note_on channel=0 note=72 velocity=100 time=0
the msg is note_off channel=0 note=72 velocity=0 time=89
the msg is note_on channel=0 note=72 velocity=100 time=0
the msg is note_off channel=0 note=72 velocity=0 time=12
the msg is note_on channel=0 note=72 velocity=100 time=0
the msg is note_off channel=0 note=74 velocity=0 time=25
the msg is note_on channel=0 note=74 velocity=100 time=0
the msg is note_off channel=0 note=74 velocity=0 time=25
the msg is note_on channel=0 note=74 velocity=100 time=0
the msg is note_off channel=0 note=74 velocity=0 time=12
the msg is note_on channel=0 note=74 velocity=100 time=0
the msg is note_off channel=0 note=76 velocity=0 time=25
the msg is note_on channel=0 note=76 velocity=100 time=0
the msg is note_off channel=0 note=79 velocity=0 time=25
the msg is note_on channel=0 note=79 velocity=100 time=0
the msg is note_off channel=0 note=79 velocity=0 time=12
the msg is note_on channel=0 note=79 velocity=100 time=0
the msg is note_off channel=0 note=76 velocity=0 time=12
the msg is note_on channel=0 note=76 velocity=100 time=0
the msg is note_off channel=0 note=74 velocity=0 time=12
the msg is note_on channel=0 note=74 velocity=100 time=0
the msg is note_off channel=0 note=72 velocity=0 time=12
the msg is note_on channel=0 note=72 velocity=100 time=0
the msg is note_off channel=0 note=74 velocity=0 time=25
the msg is note_on channel=0 note=74 velocity=100 time=0
the msg is note_off channel=0 note=76 velocity=0 time=25
the msg is note_on channel=0 note=76 velocity=100 time=0
the msg is note_off channel=0 note=79 velocity=0 time=25
the msg is note_on channel=0 note=79 velocity=100 time=0
the msg is note_off channel=0 note=79 velocity=0 time=12
the msg is note_on channel=0 note=79 velocity=100 time=0
the msg is note_off channel=0 note=76 velocity=0 time=12
the msg is note_on channel=0 note=76 velocity=100 time=0
the msg is note_off channel=0 note=74 velocity=0 time=12
the msg is note_on channel=0 note=74 velocity=100 time=0
the msg is note_off channel=0 note=72 velocity=0 time=12
the msg is note_on channel=0 note=72 velocity=100 time=0
the msg is note_off channel=0 note=74 velocity=0 time=25
the msg is note_on channel=0 note=74 velocity=100 time=0
the msg is note_off channel=0 note=74 velocity=0 time=12
the msg is note_on channel=0 note=74 velocity=100 time=0
the msg is note_off channel=0 note=74 velocity=0 time=12
the msg is note_on channel=0 note=74 velocity=100 time=0
the msg is note_off channel=0 note=74 velocity=0 time=25
the msg is note_on channel=0 note=74 velocity=100 time=0
the msg is note_off channel=0 note=74 velocity=0 time=25
the msg is note_on channel=0 note=74 velocity=100 time=0
the msg is note_off channel=0 note=76 velocity=0 time=25
the msg is note_on channel=0 note=76 velocity=100 time=0
the msg is note_off channel=0 note=79 velocity=0 time=25
the msg is note_on channel=0 note=79 velocity=100 time=0
the msg is note_off channel=0 note=79 velocity=0 time=12
the msg is note_on channel=0 note=79 velocity=100 time=0
the msg is note_off channel=0 note=76 velocity=0 time=12
the msg is note_on channel=0 note=76 velocity=100 time=0
the msg is note_off channel=0 note=74 velocity=0 time=12
the msg is note_on channel=0 note=74 velocity=100 time=0
the msg is note_off channel=0 note=72 velocity=0 time=12
the msg is note_on channel=0 note=72 velocity=100 time=0
the msg is note_off channel=0 note=72 velocity=0 time=81
the msg is note_on channel=0 note=72 velocity=100 time=0
the msg is note_off channel=0 note=72 velocity=0 time=8
the msg is note_on channel=0 note=72 velocity=100 time=0
the msg is note_off channel=0 note=74 velocity=0 time=25
the msg is note_on channel=0 note=74 velocity=100 time=0
the msg is note_off channel=0 note=74 velocity=0 time=25
the msg is note_on channel=0 note=74 velocity=100 time=0
the msg is note_off channel=0 note=74 velocity=0 time=25
the msg is note_on channel=0 note=74 velocity=100 time=0
the msg is note_off channel=0 note=74 velocity=0 time=25
the msg is note_on channel=0 note=74 velocity=100 time=0
the msg is note_off channel=0 note=74 velocity=0 time=25
the msg is note_on channel=0 note=74 velocity=100 time=0
the msg is note_off channel=0 note=74 velocity=0 time=25
the msg is note_on channel=0 note=74 velocity=100 time=0
the msg is note_off channel=0 note=76 velocity=0 time=25
the msg is note_on channel=0 note=76 velocity=100 time=0
the msg is note_off channel=0 note=79 velocity=0 time=25
the msg is note_on channel=0 note=79 velocity=100 time=0
the msg is note_off channel=0 note=79 velocity=0 time=12
the msg is note_on channel=0 note=79 velocity=100 time=0
the msg is note_off channel=0 note=76 velocity=0 time=12
the msg is note_on channel=0 note=76 velocity=100 time=0
the msg is note_off channel=0 note=74 velocity=0 time=17
the msg is note_on channel=0 note=74 velocity=100 time=0
the msg is note_off channel=0 note=72 velocity=0 time=8
the msg is note_on channel=0 note=72 velocity=100 time=0
the msg is note_off channel=0 note=72 velocity=0 time=25
the msg is note_on channel=0 note=72 velocity=100 time=0
the msg is note_off channel=0 note=72 velocity=0 time=25
the msg is note_on channel=0 note=72 velocity=100 time=0
the msg is note_off channel=0 note=72 velocity=0 time=12
the msg is note_on channel=0 note=72 velocity=100 time=0
the msg is note_off channel=0 note=72 velocity=0 time=29
the msg is note_on channel=0 note=72 velocity=100 time=0
the msg is note_off channel=0 note=72 velocity=0 time=8
the msg is note_on channel=0 note=72 velocity=100 time=0
the msg is note_off channel=0 note=72 velocity=0 time=25
the msg is note_on channel=0 note=72 velocity=100 time=0
the msg is note_off channel=0 note=72 velocity=0 time=12
the msg is note_on channel=0 note=72 velocity=100 time=0
the msg is note_off channel=0 note=72 velocity=0 time=12
the msg is note_on channel=0 note=72 velocity=100 time=0
the msg is note_off channel=0 note=72 velocity=0 time=12
the msg is note_on channel=0 note=72 velocity=100 time=0
the msg is note_off channel=0 note=76 velocity=0 time=12
the msg is note_on channel=0 note=76 velocity=100 time=0
the msg is note_off channel=0 note=79 velocity=0 time=25
the msg is note_on channel=0 note=79 velocity=100 time=0
the msg is note_off channel=0 note=79 velocity=0 time=12
the msg is note_on channel=0 note=79 velocity=100 time=0
the msg is note_off channel=0 note=76 velocity=0 time=12
the msg is note_on channel=0 note=76 velocity=100 time=0
the msg is note_off channel=0 note=74 velocity=0 time=12
the msg is note_on channel=0 note=74 velocity=100 time=0
the msg is note_off channel=0 note=72 velocity=0 time=12
the msg is note_on channel=0 note=72 velocity=100 time=0
the msg is note_off channel=0 note=72 velocity=0 time=76
the msg is note_on channel=0 note=72 velocity=100 time=0
the msg is note_off channel=0 note=72 velocity=0 time=12
the msg is note_on channel=0 note=72 velocity=100 time=0
the msg is note_off channel=0 note=72 velocity=0 time=12
the msg is note_on channel=0 note=72 velocity=100 time=0
the msg is note_off channel=0 note=72 velocity=0 time=8
the msg is note_on channel=0 note=72 velocity=100 time=0
the msg is note_off channel=0 note=72 velocity=0 time=17
the msg is note_on channel=0 note=72 velocity=100 time=0
the msg is note_off channel=0 note=72 velocity=0 time=12
the msg is note_on channel=0 note=72 velocity=100 time=0
the msg is note_off channel=0 note=72 velocity=0 time=12
the msg is note_on channel=0 note=72 velocity=100 time=0
the msg is note_off channel=0 note=76 velocity=0 time=8
the msg is note_on channel=0 note=76 velocity=100 time=0
the msg is note_off channel=0 note=79 velocity=0 time=29
the msg is note_on channel=0 note=79 velocity=100 time=0
the msg is note_off channel=0 note=79 velocity=0 time=12
the msg is note_on channel=0 note=79 velocity=100 time=0
the msg is note_off channel=0 note=76 velocity=0 time=8
the msg is note_on channel=0 note=76 velocity=100 time=0
the msg is note_off channel=0 note=74 velocity=0 time=17
the msg is note_on channel=0 note=74 velocity=100 time=0
the msg is <meta message end_of_track time=51>
the msg is <meta message track_name name='Piano' time=0>
the msg is program_change channel=0 program=0 time=0
the msg is note_off channel=0 note=72 velocity=0 time=0
the msg is pitchwheel channel=0 pitch=0 time=0
the msg is program_change channel=0 program=0 time=0
the msg is <meta message set_tempo tempo=500000 time=0>
the msg is <meta message time_signature numerator=4 denominator=4 clocks_per_click=24 notated_32nd_notes_per_beat=8 time=0>
the msg is note_on channel=0 note=72 velocity=100 time=0
the msg is note_off channel=0 note=74 velocity=0 time=34
the msg is note_on channel=0 note=74 velocity=100 time=0
the msg is note_off channel=0 note=74 velocity=0 time=17
the msg is note_on channel=0 note=74 velocity=100 time=0
the msg is note_off channel=0 note=74 velocity=0 time=34
the msg is note_on channel=0 note=74 velocity=100 time=0
the msg is note_off channel=0 note=74 velocity=0 time=17
the msg is note_on channel=0 note=74 velocity=100 time=0
the msg is note_off channel=0 note=76 velocity=0 time=34
the msg is note_on channel=0 note=76 velocity=100 time=0
the msg is note_off channel=0 note=79 velocity=0 time=17
the msg is note_on channel=0 note=79 velocity=100 time=0
the msg is note_off channel=0 note=79 velocity=0 time=17
the msg is note_on channel=0 note=79 velocity=100 time=0
the msg is note_off channel=0 note=76 velocity=0 time=17
the msg is note_on channel=0 note=76 velocity=100 time=0
the msg is note_off channel=0 note=74 velocity=0 time=4
the msg is note_on channel=0 note=74 velocity=100 time=0
the msg is note_off channel=0 note=72 velocity=0 time=12
the msg is note_on channel=0 note=72 velocity=100 time=0
the msg is note_off channel=0 note=72 velocity=0 time=89
the msg is note_on channel=0 note=72 velocity=100 time=0
the msg is note_off channel=0 note=72 velocity=0 time=12
the msg is note_on channel=0 note=72 velocity=100 time=0
the msg is note_off channel=0 note=74 velocity=0 time=25
the msg is note_on channel=0 note=74 velocity=100 time=0
the msg is note_off channel=0 note=74 velocity=0 time=25
the msg is note_on channel=0 note=74 velocity=100 time=0
the msg is note_off channel=0 note=74 velocity=0 time=12
the msg is note_on channel=0 note=74 velocity=100 time=0
the msg is note_off channel=0 note=76 velocity=0 time=25
the msg is note_on channel=0 note=76 velocity=100 time=0
the msg is note_off channel=0 note=79 velocity=0 time=25
the msg is note_on channel=0 note=79 velocity=100 time=0
the msg is note_off channel=0 note=79 velocity=0 time=12
the msg is note_on channel=0 note=79 velocity=100 time=0
the msg is note_off channel=0 note=76 velocity=0 time=12
the msg is note_on channel=0 note=76 velocity=100 time=0
the msg is note_off channel=0 note=74 velocity=0 time=12
the msg is note_on channel=0 note=74 velocity=100 time=0
the msg is note_off channel=0 note=72 velocity=0 time=12
the msg is note_on channel=0 note=72 velocity=100 time=0
the msg is note_off channel=0 note=74 velocity=0 time=25
the msg is note_on channel=0 note=74 velocity=100 time=0
the msg is note_off channel=0 note=76 velocity=0 time=25
the msg is note_on channel=0 note=76 velocity=100 time=0
the msg is note_off channel=0 note=79 velocity=0 time=25
the msg is note_on channel=0 note=79 velocity=100 time=0
the msg is note_off channel=0 note=79 velocity=0 time=12
the msg is note_on channel=0 note=79 velocity=100 time=0
the msg is note_off channel=0 note=76 velocity=0 time=12
the msg is note_on channel=0 note=76 velocity=100 time=0
the msg is note_off channel=0 note=74 velocity=0 time=12
the msg is note_on channel=0 note=74 velocity=100 time=0
the msg is note_off channel=0 note=72 velocity=0 time=12
the msg is note_on channel=0 note=72 velocity=100 time=0
the msg is note_off channel=0 note=74 velocity=0 time=25
the msg is note_on channel=0 note=74 velocity=100 time=0
the msg is note_off channel=0 note=74 velocity=0 time=12
the msg is note_on channel=0 note=74 velocity=100 time=0
the msg is note_off channel=0 note=74 velocity=0 time=12
the msg is note_on channel=0 note=74 velocity=100 time=0
the msg is note_off channel=0 note=74 velocity=0 time=25
the msg is note_on channel=0 note=74 velocity=100 time=0
the msg is note_off channel=0 note=74 velocity=0 time=25
the msg is note_on channel=0 note=74 velocity=100 time=0
the msg is note_off channel=0 note=76 velocity=0 time=25
the msg is note_on channel=0 note=76 velocity=100 time=0
the msg is note_off channel=0 note=79 velocity=0 time=25
the msg is note_on channel=0 note=79 velocity=100 time=0
the msg is note_off channel=0 note=79 velocity=0 time=12
the msg is note_on channel=0 note=79 velocity=100 time=0
the msg is note_off channel=0 note=76 velocity=0 time=12
the msg is note_on channel=0 note=76 velocity=100 time=0
the msg is note_off channel=0 note=74 velocity=0 time=12
the msg is note_on channel=0 note=74 velocity=100 time=0
the msg is note_off channel=0 note=72 velocity=0 time=12
the msg is note_on channel=0 note=72 velocity=100 time=0
the msg is note_off channel=0 note=72 velocity=0 time=81
the msg is note_on channel=0 note=72 velocity=100 time=0
the msg is note_off channel=0 note=72 velocity=0 time=8
the msg is note_on channel=0 note=72 velocity=100 time=0
the msg is note_off channel=0 note=74 velocity=0 time=25
the msg is note_on channel=0 note=74 velocity=100 time=0
the msg is note_off channel=0 note=74 velocity=0 time=25
the msg is note_on channel=0 note=74 velocity=100 time=0
the msg is note_off channel=0 note=74 velocity=0 time=25
the msg is note_on channel=0 note=74 velocity=100 time=0
the msg is note_off channel=0 note=74 velocity=0 time=25
the msg is note_on channel=0 note=74 velocity=100 time=0
the msg is note_off channel=0 note=74 velocity=0 time=25
the msg is note_on channel=0 note=74 velocity=100 time=0
the msg is note_off channel=0 note=74 velocity=0 time=25
the msg is note_on channel=0 note=74 velocity=100 time=0
the msg is note_off channel=0 note=76 velocity=0 time=25
the msg is note_on channel=0 note=76 velocity=100 time=0
the msg is note_off channel=0 note=79 velocity=0 time=25
the msg is note_on channel=0 note=79 velocity=100 time=0
the msg is note_off channel=0 note=79 velocity=0 time=12
the msg is note_on channel=0 note=79 velocity=100 time=0
the msg is note_off channel=0 note=76 velocity=0 time=12
the msg is note_on channel=0 note=76 velocity=100 time=0
the msg is note_off channel=0 note=74 velocity=0 time=17
the msg is note_on channel=0 note=74 velocity=100 time=0
the msg is note_off channel=0 note=72 velocity=0 time=8
the msg is note_on channel=0 note=72 velocity=100 time=0
the msg is note_off channel=0 note=72 velocity=0 time=25
the msg is note_on channel=0 note=72 velocity=100 time=0
the msg is note_off channel=0 note=72 velocity=0 time=25
the msg is note_on channel=0 note=72 velocity=100 time=0
the msg is note_off channel=0 note=72 velocity=0 time=12
the msg is note_on channel=0 note=72 velocity=100 time=0
the msg is note_off channel=0 note=72 velocity=0 time=29
the msg is note_on channel=0 note=72 velocity=100 time=0
the msg is note_off channel=0 note=72 velocity=0 time=8
the msg is note_on channel=0 note=72 velocity=100 time=0
the msg is note_off channel=0 note=72 velocity=0 time=25
the msg is note_on channel=0 note=72 velocity=100 time=0
the msg is note_off channel=0 note=72 velocity=0 time=12
the msg is note_on channel=0 note=72 velocity=100 time=0
the msg is note_off channel=0 note=72 velocity=0 time=12
the msg is note_on channel=0 note=72 velocity=100 time=0
the msg is note_off channel=0 note=72 velocity=0 time=12
the msg is note_on channel=0 note=72 velocity=100 time=0
the msg is note_off channel=0 note=76 velocity=0 time=12
the msg is note_on channel=0 note=76 velocity=100 time=0
the msg is note_off channel=0 note=79 velocity=0 time=25
the msg is note_on channel=0 note=79 velocity=100 time=0
the msg is note_off channel=0 note=79 velocity=0 time=12
the msg is note_on channel=0 note=79 velocity=100 time=0
the msg is note_off channel=0 note=76 velocity=0 time=12
the msg is note_on channel=0 note=76 velocity=100 time=0
the msg is note_off channel=0 note=74 velocity=0 time=12
the msg is note_on channel=0 note=74 velocity=100 time=0
the msg is note_off channel=0 note=72 velocity=0 time=12
the msg is note_on channel=0 note=72 velocity=100 time=0
the msg is note_off channel=0 note=72 velocity=0 time=76
the msg is note_on channel=0 note=72 velocity=100 time=0
the msg is note_off channel=0 note=72 velocity=0 time=12
the msg is note_on channel=0 note=72 velocity=100 time=0
the msg is note_off channel=0 note=72 velocity=0 time=12
the msg is note_on channel=0 note=72 velocity=100 time=0
the msg is note_off channel=0 note=72 velocity=0 time=8
the msg is note_on channel=0 note=72 velocity=100 time=0
the msg is note_off channel=0 note=72 velocity=0 time=17
the msg is note_on channel=0 note=72 velocity=100 time=0
the msg is note_off channel=0 note=72 velocity=0 time=12
the msg is note_on channel=0 note=72 velocity=100 time=0
the msg is note_off channel=0 note=72 velocity=0 time=12
the msg is note_on channel=0 note=72 velocity=100 time=0
the msg is note_off channel=0 note=76 velocity=0 time=8
the msg is note_on channel=0 note=76 velocity=100 time=0
the msg is note_off channel=0 note=79 velocity=0 time=29
the msg is note_on channel=0 note=79 velocity=100 time=0
the msg is note_off channel=0 note=79 velocity=0 time=12
the msg is note_on channel=0 note=79 velocity=100 time=0
the msg is note_off channel=0 note=76 velocity=0 time=8
the msg is note_on channel=0 note=76 velocity=100 time=0
the msg is note_off channel=0 note=74 velocity=0 time=17
the msg is note_on channel=0 note=74 velocity=100 time=0
the msg is <meta message end_of_track time=51>
the msg is <meta message track_name name='Piano' time=0>
the msg is program_change channel=0 program=0 time=0
the msg is note_off channel=0 note=72 velocity=0 time=0
the msg is pitchwheel channel=0 pitch=0 time=0
the msg is program_change channel=0 program=0 time=0
the msg is <meta message set_tempo tempo=500000 time=0>
the msg is <meta message time_signature numerator=4 denominator=4 clocks_per_click=24 notated_32nd_notes_per_beat=8 time=0>
the msg is note_on channel=0 note=72 velocity=100 time=0
the msg is note_off channel=0 note=74 velocity=0 time=34
the msg is note_on channel=0 note=74 velocity=100 time=0
the msg is note_off channel=0 note=74 velocity=0 time=17
the msg is note_on channel=0 note=74 velocity=100 time=0
the msg is note_off channel=0 note=74 velocity=0 time=34
the msg is note_on channel=0 note=74 velocity=100 time=0
the msg is note_off channel=0 note=74 velocity=0 time=17
the msg is note_on channel=0 note=74 velocity=100 time=0
the msg is note_off channel=0 note=76 velocity=0 time=34
the msg is note_on channel=0 note=76 velocity=100 time=0
the msg is note_off channel=0 note=79 velocity=0 time=17
the msg is note_on channel=0 note=79 velocity=100 time=0
the msg is note_off channel=0 note=79 velocity=0 time=17
the msg is note_on channel=0 note=79 velocity=100 time=0
the msg is note_off channel=0 note=76 velocity=0 time=17
the msg is note_on channel=0 note=76 velocity=100 time=0
the msg is note_off channel=0 note=74 velocity=0 time=4
the msg is note_on channel=0 note=74 velocity=100 time=0
the msg is note_off channel=0 note=72 velocity=0 time=12
the msg is note_on channel=0 note=72 velocity=100 time=0
the msg is note_off channel=0 note=72 velocity=0 time=89
the msg is note_on channel=0 note=72 velocity=100 time=0
the msg is note_off channel=0 note=72 velocity=0 time=12
the msg is note_on channel=0 note=72 velocity=100 time=0
the msg is note_off channel=0 note=74 velocity=0 time=25
the msg is note_on channel=0 note=74 velocity=100 time=0
the msg is note_off channel=0 note=74 velocity=0 time=25
the msg is note_on channel=0 note=74 velocity=100 time=0
the msg is note_off channel=0 note=74 velocity=0 time=12
the msg is note_on channel=0 note=74 velocity=100 time=0
the msg is note_off channel=0 note=76 velocity=0 time=25
the msg is note_on channel=0 note=76 velocity=100 time=0
the msg is note_off channel=0 note=79 velocity=0 time=25
the msg is note_on channel=0 note=79 velocity=100 time=0
the msg is note_off channel=0 note=79 velocity=0 time=12
the msg is note_on channel=0 note=79 velocity=100 time=0
the msg is note_off channel=0 note=76 velocity=0 time=12
the msg is note_on channel=0 note=76 velocity=100 time=0
the msg is note_off channel=0 note=74 velocity=0 time=12
the msg is note_on channel=0 note=74 velocity=100 time=0
the msg is note_off channel=0 note=72 velocity=0 time=12
the msg is note_on channel=0 note=72 velocity=100 time=0
the msg is note_off channel=0 note=74 velocity=0 time=25
the msg is note_on channel=0 note=74 velocity=100 time=0
the msg is note_off channel=0 note=76 velocity=0 time=25
the msg is note_on channel=0 note=76 velocity=100 time=0
the msg is note_off channel=0 note=79 velocity=0 time=25
the msg is note_on channel=0 note=79 velocity=100 time=0
the msg is note_off channel=0 note=79 velocity=0 time=12
the msg is note_on channel=0 note=79 velocity=100 time=0
the msg is note_off channel=0 note=76 velocity=0 time=12
the msg is note_on channel=0 note=76 velocity=100 time=0
the msg is note_off channel=0 note=74 velocity=0 time=12
the msg is note_on channel=0 note=74 velocity=100 time=0
the msg is note_off channel=0 note=72 velocity=0 time=12
the msg is note_on channel=0 note=72 velocity=100 time=0
the msg is note_off channel=0 note=74 velocity=0 time=25
the msg is note_on channel=0 note=74 velocity=100 time=0
the msg is note_off channel=0 note=74 velocity=0 time=12
the msg is note_on channel=0 note=74 velocity=100 time=0
the msg is note_off channel=0 note=74 velocity=0 time=12
the msg is note_on channel=0 note=74 velocity=100 time=0
the msg is note_off channel=0 note=74 velocity=0 time=25
the msg is note_on channel=0 note=74 velocity=100 time=0
the msg is note_off channel=0 note=74 velocity=0 time=25
the msg is note_on channel=0 note=74 velocity=100 time=0
the msg is note_off channel=0 note=76 velocity=0 time=25
the msg is note_on channel=0 note=76 velocity=100 time=0
the msg is note_off channel=0 note=79 velocity=0 time=25
the msg is note_on channel=0 note=79 velocity=100 time=0
the msg is note_off channel=0 note=79 velocity=0 time=12
the msg is note_on channel=0 note=79 velocity=100 time=0
the msg is note_off channel=0 note=76 velocity=0 time=12
the msg is note_on channel=0 note=76 velocity=100 time=0
the msg is note_off channel=0 note=74 velocity=0 time=12
the msg is note_on channel=0 note=74 velocity=100 time=0
the msg is note_off channel=0 note=72 velocity=0 time=12
the msg is note_on channel=0 note=72 velocity=100 time=0
the msg is note_off channel=0 note=72 velocity=0 time=81
the msg is note_on channel=0 note=72 velocity=100 time=0
the msg is note_off channel=0 note=72 velocity=0 time=8
the msg is note_on channel=0 note=72 velocity=100 time=0
the msg is note_off channel=0 note=74 velocity=0 time=25
the msg is note_on channel=0 note=74 velocity=100 time=0
the msg is note_off channel=0 note=74 velocity=0 time=25
the msg is note_on channel=0 note=74 velocity=100 time=0
the msg is note_off channel=0 note=74 velocity=0 time=25
the msg is note_on channel=0 note=74 velocity=100 time=0
the msg is note_off channel=0 note=74 velocity=0 time=25
the msg is note_on channel=0 note=74 velocity=100 time=0
the msg is note_off channel=0 note=74 velocity=0 time=25
the msg is note_on channel=0 note=74 velocity=100 time=0
the msg is note_off channel=0 note=74 velocity=0 time=25
the msg is note_on channel=0 note=74 velocity=100 time=0
the msg is note_off channel=0 note=76 velocity=0 time=25
the msg is note_on channel=0 note=76 velocity=100 time=0
the msg is note_off channel=0 note=79 velocity=0 time=25
the msg is note_on channel=0 note=79 velocity=100 time=0
the msg is note_off channel=0 note=79 velocity=0 time=12
the msg is note_on channel=0 note=79 velocity=100 time=0
the msg is note_off channel=0 note=76 velocity=0 time=12
the msg is note_on channel=0 note=76 velocity=100 time=0
the msg is note_off channel=0 note=74 velocity=0 time=17
the msg is note_on channel=0 note=74 velocity=100 time=0
the msg is note_off channel=0 note=72 velocity=0 time=8
the msg is note_on channel=0 note=72 velocity=100 time=0
the msg is note_off channel=0 note=72 velocity=0 time=25
the msg is note_on channel=0 note=72 velocity=100 time=0
the msg is note_off channel=0 note=72 velocity=0 time=25
the msg is note_on channel=0 note=72 velocity=100 time=0
the msg is note_off channel=0 note=72 velocity=0 time=12
the msg is note_on channel=0 note=72 velocity=100 time=0
the msg is note_off channel=0 note=72 velocity=0 time=29
the msg is note_on channel=0 note=72 velocity=100 time=0
the msg is note_off channel=0 note=72 velocity=0 time=8
the msg is note_on channel=0 note=72 velocity=100 time=0
the msg is note_off channel=0 note=72 velocity=0 time=25
the msg is note_on channel=0 note=72 velocity=100 time=0
the msg is note_off channel=0 note=72 velocity=0 time=12
the msg is note_on channel=0 note=72 velocity=100 time=0
the msg is note_off channel=0 note=72 velocity=0 time=12
the msg is note_on channel=0 note=72 velocity=100 time=0
the msg is note_off channel=0 note=72 velocity=0 time=12
the msg is note_on channel=0 note=72 velocity=100 time=0
the msg is note_off channel=0 note=76 velocity=0 time=12
the msg is note_on channel=0 note=76 velocity=100 time=0
the msg is note_off channel=0 note=79 velocity=0 time=25
the msg is note_on channel=0 note=79 velocity=100 time=0
the msg is note_off channel=0 note=79 velocity=0 time=12
the msg is note_on channel=0 note=79 velocity=100 time=0
the msg is note_off channel=0 note=76 velocity=0 time=12
the msg is note_on channel=0 note=76 velocity=100 time=0
the msg is note_off channel=0 note=74 velocity=0 time=12
the msg is note_on channel=0 note=74 velocity=100 time=0
the msg is note_off channel=0 note=72 velocity=0 time=12
the msg is note_on channel=0 note=72 velocity=100 time=0
the msg is note_off channel=0 note=72 velocity=0 time=76
the msg is note_on channel=0 note=72 velocity=100 time=0
the msg is note_off channel=0 note=72 velocity=0 time=12
the msg is note_on channel=0 note=72 velocity=100 time=0
the msg is note_off channel=0 note=72 velocity=0 time=12
the msg is note_on channel=0 note=72 velocity=100 time=0
the msg is note_off channel=0 note=72 velocity=0 time=8
the msg is note_on channel=0 note=72 velocity=100 time=0
the msg is note_off channel=0 note=72 velocity=0 time=17
the msg is note_on channel=0 note=72 velocity=100 time=0
the msg is note_off channel=0 note=72 velocity=0 time=12
the msg is note_on channel=0 note=72 velocity=100 time=0
the msg is note_off channel=0 note=72 velocity=0 time=12
the msg is note_on channel=0 note=72 velocity=100 time=0
the msg is note_off channel=0 note=76 velocity=0 time=8
the msg is note_on channel=0 note=76 velocity=100 time=0
the msg is note_off channel=0 note=79 velocity=0 time=29
the msg is note_on channel=0 note=79 velocity=100 time=0
the msg is note_off channel=0 note=79 velocity=0 time=12
the msg is note_on channel=0 note=79 velocity=100 time=0
the msg is note_off channel=0 note=76 velocity=0 time=8
the msg is note_on channel=0 note=76 velocity=100 time=0
the msg is note_off channel=0 note=74 velocity=0 time=17
the msg is note_on channel=0 note=74 velocity=100 time=0
the msg is <meta message end_of_track time=51>
the msg is <meta message track_name name='Piano' time=0>
the msg is program_change channel=0 program=0 time=0
the msg is note_off channel=0 note=72 velocity=0 time=0
the msg is pitchwheel channel=0 pitch=0 time=0
the msg is program_change channel=0 program=0 time=0
the msg is <meta message set_tempo tempo=500000 time=0>
the msg is <meta message time_signature numerator=4 denominator=4 clocks_per_click=24 notated_32nd_notes_per_beat=8 time=0>
the msg is note_on channel=0 note=72 velocity=100 time=0
the msg is note_off channel=0 note=74 velocity=0 time=34
the msg is note_on channel=0 note=74 velocity=100 time=0
the msg is note_off channel=0 note=74 velocity=0 time=17
the msg is note_on channel=0 note=74 velocity=100 time=0
the msg is note_off channel=0 note=74 velocity=0 time=34
the msg is note_on channel=0 note=74 velocity=100 time=0
the msg is note_off channel=0 note=74 velocity=0 time=17
the msg is note_on channel=0 note=74 velocity=100 time=0
the msg is note_off channel=0 note=76 velocity=0 time=34
the msg is note_on channel=0 note=76 velocity=100 time=0
the msg is note_off channel=0 note=79 velocity=0 time=17
the msg is note_on channel=0 note=79 velocity=100 time=0
the msg is note_off channel=0 note=79 velocity=0 time=17
the msg is note_on channel=0 note=79 velocity=100 time=0
the msg is note_off channel=0 note=76 velocity=0 time=17
the msg is note_on channel=0 note=76 velocity=100 time=0
the msg is note_off channel=0 note=74 velocity=0 time=4
the msg is note_on channel=0 note=74 velocity=100 time=0
the msg is note_off channel=0 note=72 velocity=0 time=12
the msg is note_on channel=0 note=72 velocity=100 time=0
the msg is note_off channel=0 note=72 velocity=0 time=89
the msg is note_on channel=0 note=72 velocity=100 time=0
the msg is note_off channel=0 note=72 velocity=0 time=12
the msg is note_on channel=0 note=72 velocity=100 time=0
the msg is note_off channel=0 note=74 velocity=0 time=25
the msg is note_on channel=0 note=74 velocity=100 time=0
the msg is note_off channel=0 note=74 velocity=0 time=25
the msg is note_on channel=0 note=74 velocity=100 time=0
the msg is note_off channel=0 note=74 velocity=0 time=12
the msg is note_on channel=0 note=74 velocity=100 time=0
the msg is note_off channel=0 note=76 velocity=0 time=25
the msg is note_on channel=0 note=76 velocity=100 time=0
the msg is note_off channel=0 note=79 velocity=0 time=25
the msg is note_on channel=0 note=79 velocity=100 time=0
the msg is note_off channel=0 note=79 velocity=0 time=12
the msg is note_on channel=0 note=79 velocity=100 time=0
the msg is note_off channel=0 note=76 velocity=0 time=12
the msg is note_on channel=0 note=76 velocity=100 time=0
the msg is note_off channel=0 note=74 velocity=0 time=12
the msg is note_on channel=0 note=74 velocity=100 time=0
the msg is note_off channel=0 note=72 velocity=0 time=12
the msg is note_on channel=0 note=72 velocity=100 time=0
the msg is note_off channel=0 note=74 velocity=0 time=25
the msg is note_on channel=0 note=74 velocity=100 time=0
the msg is note_off channel=0 note=76 velocity=0 time=25
the msg is note_on channel=0 note=76 velocity=100 time=0
the msg is note_off channel=0 note=79 velocity=0 time=25
the msg is note_on channel=0 note=79 velocity=100 time=0
the msg is note_off channel=0 note=79 velocity=0 time=12
the msg is note_on channel=0 note=79 velocity=100 time=0
the msg is note_off channel=0 note=76 velocity=0 time=12
the msg is note_on channel=0 note=76 velocity=100 time=0
the msg is note_off channel=0 note=74 velocity=0 time=12
the msg is note_on channel=0 note=74 velocity=100 time=0
the msg is note_off channel=0 note=72 velocity=0 time=12
the msg is note_on channel=0 note=72 velocity=100 time=0
the msg is note_off channel=0 note=74 velocity=0 time=25
the msg is note_on channel=0 note=74 velocity=100 time=0
the msg is note_off channel=0 note=74 velocity=0 time=12
the msg is note_on channel=0 note=74 velocity=100 time=0
the msg is note_off channel=0 note=74 velocity=0 time=12
the msg is note_on channel=0 note=74 velocity=100 time=0
the msg is note_off channel=0 note=74 velocity=0 time=25
the msg is note_on channel=0 note=74 velocity=100 time=0
the msg is note_off channel=0 note=74 velocity=0 time=25
the msg is note_on channel=0 note=74 velocity=100 time=0
the msg is note_off channel=0 note=76 velocity=0 time=25
the msg is note_on channel=0 note=76 velocity=100 time=0
the msg is note_off channel=0 note=79 velocity=0 time=25
the msg is note_on channel=0 note=79 velocity=100 time=0
the msg is note_off channel=0 note=79 velocity=0 time=12
the msg is note_on channel=0 note=79 velocity=100 time=0
the msg is note_off channel=0 note=76 velocity=0 time=12
the msg is note_on channel=0 note=76 velocity=100 time=0
the msg is note_off channel=0 note=74 velocity=0 time=12
the msg is note_on channel=0 note=74 velocity=100 time=0
the msg is note_off channel=0 note=72 velocity=0 time=12
the msg is note_on channel=0 note=72 velocity=100 time=0
the msg is note_off channel=0 note=72 velocity=0 time=81
the msg is note_on channel=0 note=72 velocity=100 time=0
the msg is note_off channel=0 note=72 velocity=0 time=8
the msg is note_on channel=0 note=72 velocity=100 time=0
the msg is note_off channel=0 note=74 velocity=0 time=25
the msg is note_on channel=0 note=74 velocity=100 time=0
the msg is note_off channel=0 note=74 velocity=0 time=25
the msg is note_on channel=0 note=74 velocity=100 time=0
the msg is note_off channel=0 note=74 velocity=0 time=25
the msg is note_on channel=0 note=74 velocity=100 time=0
the msg is note_off channel=0 note=74 velocity=0 time=25
the msg is note_on channel=0 note=74 velocity=100 time=0
the msg is note_off channel=0 note=74 velocity=0 time=25
the msg is note_on channel=0 note=74 velocity=100 time=0
the msg is note_off channel=0 note=74 velocity=0 time=25
the msg is note_on channel=0 note=74 velocity=100 time=0
the msg is note_off channel=0 note=76 velocity=0 time=25
the msg is note_on channel=0 note=76 velocity=100 time=0
the msg is note_off channel=0 note=79 velocity=0 time=25
the msg is note_on channel=0 note=79 velocity=100 time=0
the msg is note_off channel=0 note=79 velocity=0 time=12
the msg is note_on channel=0 note=79 velocity=100 time=0
the msg is note_off channel=0 note=76 velocity=0 time=12
the msg is note_on channel=0 note=76 velocity=100 time=0
the msg is note_off channel=0 note=74 velocity=0 time=17
the msg is note_on channel=0 note=74 velocity=100 time=0
the msg is note_off channel=0 note=72 velocity=0 time=8
the msg is note_on channel=0 note=72 velocity=100 time=0
the msg is note_off channel=0 note=72 velocity=0 time=25
the msg is note_on channel=0 note=72 velocity=100 time=0
the msg is note_off channel=0 note=72 velocity=0 time=25
the msg is note_on channel=0 note=72 velocity=100 time=0
the msg is note_off channel=0 note=72 velocity=0 time=12
the msg is note_on channel=0 note=72 velocity=100 time=0
the msg is note_off channel=0 note=72 velocity=0 time=29
the msg is note_on channel=0 note=72 velocity=100 time=0
the msg is note_off channel=0 note=72 velocity=0 time=8
the msg is note_on channel=0 note=72 velocity=100 time=0
the msg is note_off channel=0 note=72 velocity=0 time=25
the msg is note_on channel=0 note=72 velocity=100 time=0
the msg is note_off channel=0 note=72 velocity=0 time=12
the msg is note_on channel=0 note=72 velocity=100 time=0
the msg is note_off channel=0 note=72 velocity=0 time=12
the msg is note_on channel=0 note=72 velocity=100 time=0
the msg is note_off channel=0 note=72 velocity=0 time=12
the msg is note_on channel=0 note=72 velocity=100 time=0
the msg is note_off channel=0 note=76 velocity=0 time=12
the msg is note_on channel=0 note=76 velocity=100 time=0
the msg is note_off channel=0 note=79 velocity=0 time=25
the msg is note_on channel=0 note=79 velocity=100 time=0
the msg is note_off channel=0 note=79 velocity=0 time=12
the msg is note_on channel=0 note=79 velocity=100 time=0
the msg is note_off channel=0 note=76 velocity=0 time=12
the msg is note_on channel=0 note=76 velocity=100 time=0
the msg is note_off channel=0 note=74 velocity=0 time=12
the msg is note_on channel=0 note=74 velocity=100 time=0
the msg is note_off channel=0 note=72 velocity=0 time=12
the msg is note_on channel=0 note=72 velocity=100 time=0
the msg is note_off channel=0 note=72 velocity=0 time=76
the msg is note_on channel=0 note=72 velocity=100 time=0
the msg is note_off channel=0 note=72 velocity=0 time=12
the msg is note_on channel=0 note=72 velocity=100 time=0
the msg is note_off channel=0 note=72 velocity=0 time=12
the msg is note_on channel=0 note=72 velocity=100 time=0
the msg is note_off channel=0 note=72 velocity=0 time=8
the msg is note_on channel=0 note=72 velocity=100 time=0
the msg is note_off channel=0 note=72 velocity=0 time=17
the msg is note_on channel=0 note=72 velocity=100 time=0
the msg is note_off channel=0 note=72 velocity=0 time=12
the msg is note_on channel=0 note=72 velocity=100 time=0
the msg is note_off channel=0 note=72 velocity=0 time=12
the msg is note_on channel=0 note=72 velocity=100 time=0
the msg is note_off channel=0 note=76 velocity=0 time=8
the msg is note_on channel=0 note=76 velocity=100 time=0
the msg is note_off channel=0 note=79 velocity=0 time=29
the msg is note_on channel=0 note=79 velocity=100 time=0
the msg is note_off channel=0 note=79 velocity=0 time=12
the msg is note_on channel=0 note=79 velocity=100 time=0
the msg is note_off channel=0 note=76 velocity=0 time=8
the msg is note_on channel=0 note=76 velocity=100 time=0
the msg is note_off channel=0 note=74 velocity=0 time=17
the msg is note_on channel=0 note=74 velocity=100 time=0
the msg is <meta message end_of_track time=51>
the msg is <meta message track_name name='Piano' time=0>
the msg is program_change channel=0 program=0 time=0
the msg is note_off channel=0 note=72 velocity=0 time=0
the msg is pitchwheel channel=0 pitch=0 time=0
the msg is program_change channel=0 program=0 time=0
the msg is <meta message set_tempo tempo=500000 time=0>
the msg is <meta message time_signature numerator=4 denominator=4 clocks_per_click=24 notated_32nd_notes_per_beat=8 time=0>
the msg is note_on channel=0 note=72 velocity=100 time=0
the msg is note_off channel=0 note=74 velocity=0 time=34
the msg is note_on channel=0 note=74 velocity=100 time=0
the msg is note_off channel=0 note=74 velocity=0 time=17
the msg is note_on channel=0 note=74 velocity=100 time=0
the msg is note_off channel=0 note=74 velocity=0 time=34
the msg is note_on channel=0 note=74 velocity=100 time=0
the msg is note_off channel=0 note=74 velocity=0 time=17
the msg is note_on channel=0 note=74 velocity=100 time=0
the msg is note_off channel=0 note=76 velocity=0 time=34
the msg is note_on channel=0 note=76 velocity=100 time=0
the msg is note_off channel=0 note=79 velocity=0 time=17
the msg is note_on channel=0 note=79 velocity=100 time=0
the msg is note_off channel=0 note=79 velocity=0 time=17
the msg is note_on channel=0 note=79 velocity=100 time=0
the msg is note_off channel=0 note=76 velocity=0 time=17
the msg is note_on channel=0 note=76 velocity=100 time=0
the msg is note_off channel=0 note=74 velocity=0 time=4
the msg is note_on channel=0 note=74 velocity=100 time=0
the msg is note_off channel=0 note=72 velocity=0 time=12
the msg is note_on channel=0 note=72 velocity=100 time=0
the msg is note_off channel=0 note=72 velocity=0 time=89
the msg is note_on channel=0 note=72 velocity=100 time=0
the msg is note_off channel=0 note=72 velocity=0 time=12
the msg is note_on channel=0 note=72 velocity=100 time=0
the msg is note_off channel=0 note=74 velocity=0 time=25
the msg is note_on channel=0 note=74 velocity=100 time=0
the msg is note_off channel=0 note=74 velocity=0 time=25
the msg is note_on channel=0 note=74 velocity=100 time=0
the msg is note_off channel=0 note=74 velocity=0 time=12
the msg is note_on channel=0 note=74 velocity=100 time=0
the msg is note_off channel=0 note=76 velocity=0 time=25
the msg is note_on channel=0 note=76 velocity=100 time=0
the msg is note_off channel=0 note=79 velocity=0 time=25
the msg is note_on channel=0 note=79 velocity=100 time=0
the msg is note_off channel=0 note=79 velocity=0 time=12
the msg is note_on channel=0 note=79 velocity=100 time=0
the msg is note_off channel=0 note=76 velocity=0 time=12
the msg is note_on channel=0 note=76 velocity=100 time=0
the msg is note_off channel=0 note=74 velocity=0 time=12
the msg is note_on channel=0 note=74 velocity=100 time=0
the msg is note_off channel=0 note=72 velocity=0 time=12
the msg is note_on channel=0 note=72 velocity=100 time=0
the msg is note_off channel=0 note=74 velocity=0 time=25
the msg is note_on channel=0 note=74 velocity=100 time=0
the msg is note_off channel=0 note=76 velocity=0 time=25
the msg is note_on channel=0 note=76 velocity=100 time=0
the msg is note_off channel=0 note=79 velocity=0 time=25
the msg is note_on channel=0 note=79 velocity=100 time=0
the msg is note_off channel=0 note=79 velocity=0 time=12
the msg is note_on channel=0 note=79 velocity=100 time=0
the msg is note_off channel=0 note=76 velocity=0 time=12
the msg is note_on channel=0 note=76 velocity=100 time=0
the msg is note_off channel=0 note=74 velocity=0 time=12
the msg is note_on channel=0 note=74 velocity=100 time=0
the msg is note_off channel=0 note=72 velocity=0 time=12
the msg is note_on channel=0 note=72 velocity=100 time=0
the msg is note_off channel=0 note=74 velocity=0 time=25
the msg is note_on channel=0 note=74 velocity=100 time=0
the msg is note_off channel=0 note=74 velocity=0 time=12
the msg is note_on channel=0 note=74 velocity=100 time=0
the msg is note_off channel=0 note=74 velocity=0 time=12
the msg is note_on channel=0 note=74 velocity=100 time=0
the msg is note_off channel=0 note=74 velocity=0 time=25
the msg is note_on channel=0 note=74 velocity=100 time=0
the msg is note_off channel=0 note=74 velocity=0 time=25
the msg is note_on channel=0 note=74 velocity=100 time=0
the msg is note_off channel=0 note=76 velocity=0 time=25
the msg is note_on channel=0 note=76 velocity=100 time=0
the msg is note_off channel=0 note=79 velocity=0 time=25
the msg is note_on channel=0 note=79 velocity=100 time=0
the msg is note_off channel=0 note=79 velocity=0 time=12
the msg is note_on channel=0 note=79 velocity=100 time=0
the msg is note_off channel=0 note=76 velocity=0 time=12
the msg is note_on channel=0 note=76 velocity=100 time=0
the msg is note_off channel=0 note=74 velocity=0 time=12
the msg is note_on channel=0 note=74 velocity=100 time=0
the msg is note_off channel=0 note=72 velocity=0 time=12
the msg is note_on channel=0 note=72 velocity=100 time=0
the msg is note_off channel=0 note=72 velocity=0 time=81
the msg is note_on channel=0 note=72 velocity=100 time=0
the msg is note_off channel=0 note=72 velocity=0 time=8
the msg is note_on channel=0 note=72 velocity=100 time=0
the msg is note_off channel=0 note=74 velocity=0 time=25
the msg is note_on channel=0 note=74 velocity=100 time=0
the msg is note_off channel=0 note=74 velocity=0 time=25
the msg is note_on channel=0 note=74 velocity=100 time=0
the msg is note_off channel=0 note=74 velocity=0 time=25
the msg is note_on channel=0 note=74 velocity=100 time=0
the msg is note_off channel=0 note=74 velocity=0 time=25
the msg is note_on channel=0 note=74 velocity=100 time=0
the msg is note_off channel=0 note=74 velocity=0 time=25
the msg is note_on channel=0 note=74 velocity=100 time=0
the msg is note_off channel=0 note=74 velocity=0 time=25
the msg is note_on channel=0 note=74 velocity=100 time=0
the msg is note_off channel=0 note=76 velocity=0 time=25
the msg is note_on channel=0 note=76 velocity=100 time=0
the msg is note_off channel=0 note=79 velocity=0 time=25
the msg is note_on channel=0 note=79 velocity=100 time=0
the msg is note_off channel=0 note=79 velocity=0 time=12
the msg is note_on channel=0 note=79 velocity=100 time=0
the msg is note_off channel=0 note=76 velocity=0 time=12
the msg is note_on channel=0 note=76 velocity=100 time=0
the msg is note_off channel=0 note=74 velocity=0 time=17
the msg is note_on channel=0 note=74 velocity=100 time=0
the msg is note_off channel=0 note=72 velocity=0 time=8
the msg is note_on channel=0 note=72 velocity=100 time=0
the msg is note_off channel=0 note=72 velocity=0 time=25
the msg is note_on channel=0 note=72 velocity=100 time=0
the msg is note_off channel=0 note=72 velocity=0 time=25
the msg is note_on channel=0 note=72 velocity=100 time=0
the msg is note_off channel=0 note=72 velocity=0 time=12
the msg is note_on channel=0 note=72 velocity=100 time=0
the msg is note_off channel=0 note=72 velocity=0 time=29
the msg is note_on channel=0 note=72 velocity=100 time=0
the msg is note_off channel=0 note=72 velocity=0 time=8
the msg is note_on channel=0 note=72 velocity=100 time=0
the msg is note_off channel=0 note=72 velocity=0 time=25
the msg is note_on channel=0 note=72 velocity=100 time=0
the msg is note_off channel=0 note=72 velocity=0 time=12
the msg is note_on channel=0 note=72 velocity=100 time=0
the msg is note_off channel=0 note=72 velocity=0 time=12
the msg is note_on channel=0 note=72 velocity=100 time=0
the msg is note_off channel=0 note=72 velocity=0 time=12
the msg is note_on channel=0 note=72 velocity=100 time=0
the msg is note_off channel=0 note=76 velocity=0 time=12
the msg is note_on channel=0 note=76 velocity=100 time=0
the msg is note_off channel=0 note=79 velocity=0 time=25
the msg is note_on channel=0 note=79 velocity=100 time=0
the msg is note_off channel=0 note=79 velocity=0 time=12
the msg is note_on channel=0 note=79 velocity=100 time=0
the msg is note_off channel=0 note=76 velocity=0 time=12
the msg is note_on channel=0 note=76 velocity=100 time=0
the msg is note_off channel=0 note=74 velocity=0 time=12
the msg is note_on channel=0 note=74 velocity=100 time=0
the msg is note_off channel=0 note=72 velocity=0 time=12
the msg is note_on channel=0 note=72 velocity=100 time=0
the msg is note_off channel=0 note=72 velocity=0 time=76
the msg is note_on channel=0 note=72 velocity=100 time=0
the msg is note_off channel=0 note=72 velocity=0 time=12
the msg is note_on channel=0 note=72 velocity=100 time=0
the msg is note_off channel=0 note=72 velocity=0 time=12
the msg is note_on channel=0 note=72 velocity=100 time=0
the msg is note_off channel=0 note=72 velocity=0 time=8
the msg is note_on channel=0 note=72 velocity=100 time=0
the msg is note_off channel=0 note=72 velocity=0 time=17
the msg is note_on channel=0 note=72 velocity=100 time=0
the msg is note_off channel=0 note=72 velocity=0 time=12
the msg is note_on channel=0 note=72 velocity=100 time=0
the msg is note_off channel=0 note=72 velocity=0 time=12
the msg is note_on channel=0 note=72 velocity=100 time=0
the msg is note_off channel=0 note=76 velocity=0 time=8
the msg is note_on channel=0 note=76 velocity=100 time=0
the msg is note_off channel=0 note=79 velocity=0 time=29
the msg is note_on channel=0 note=79 velocity=100 time=0
the msg is note_off channel=0 note=79 velocity=0 time=12
the msg is note_on channel=0 note=79 velocity=100 time=0
the msg is note_off channel=0 note=76 velocity=0 time=8
the msg is note_on channel=0 note=76 velocity=100 time=0
the msg is note_off channel=0 note=74 velocity=0 time=17
the msg is note_on channel=0 note=74 velocity=100 time=0
the msg is <meta message end_of_track time=51>
the msg is <meta message track_name name='Piano' time=0>
the msg is program_change channel=0 program=0 time=0
the msg is note_off channel=0 note=72 velocity=0 time=0
the msg is pitchwheel channel=0 pitch=0 time=0
the msg is program_change channel=0 program=0 time=0
the msg is <meta message set_tempo tempo=500000 time=0>
the msg is <meta message time_signature numerator=4 denominator=4 clocks_per_click=24 notated_32nd_notes_per_beat=8 time=0>
the msg is note_on channel=0 note=72 velocity=100 time=0
the msg is note_off channel=0 note=74 velocity=0 time=34
the msg is note_on channel=0 note=74 velocity=100 time=0
the msg is note_off channel=0 note=74 velocity=0 time=17
the msg is note_on channel=0 note=74 velocity=100 time=0
the msg is note_off channel=0 note=74 velocity=0 time=34
the msg is note_on channel=0 note=74 velocity=100 time=0
the msg is note_off channel=0 note=74 velocity=0 time=17
the msg is note_on channel=0 note=74 velocity=100 time=0
the msg is note_off channel=0 note=76 velocity=0 time=34
the msg is note_on channel=0 note=76 velocity=100 time=0
the msg is note_off channel=0 note=79 velocity=0 time=17
the msg is note_on channel=0 note=79 velocity=100 time=0
the msg is note_off channel=0 note=79 velocity=0 time=17
the msg is note_on channel=0 note=79 velocity=100 time=0
the msg is note_off channel=0 note=76 velocity=0 time=17
the msg is note_on channel=0 note=76 velocity=100 time=0
the msg is note_off channel=0 note=74 velocity=0 time=4
the msg is note_on channel=0 note=74 velocity=100 time=0
the msg is note_off channel=0 note=72 velocity=0 time=12
the msg is note_on channel=0 note=72 velocity=100 time=0
the msg is note_off channel=0 note=72 velocity=0 time=89
the msg is note_on channel=0 note=72 velocity=100 time=0
the msg is note_off channel=0 note=72 velocity=0 time=12
the msg is note_on channel=0 note=72 velocity=100 time=0
the msg is note_off channel=0 note=74 velocity=0 time=25
the msg is note_on channel=0 note=74 velocity=100 time=0
the msg is note_off channel=0 note=74 velocity=0 time=25
the msg is note_on channel=0 note=74 velocity=100 time=0
the msg is note_off channel=0 note=74 velocity=0 time=12
the msg is note_on channel=0 note=74 velocity=100 time=0
the msg is note_off channel=0 note=76 velocity=0 time=25
the msg is note_on channel=0 note=76 velocity=100 time=0
the msg is note_off channel=0 note=79 velocity=0 time=25
the msg is note_on channel=0 note=79 velocity=100 time=0
the msg is note_off channel=0 note=79 velocity=0 time=12
the msg is note_on channel=0 note=79 velocity=100 time=0
the msg is note_off channel=0 note=76 velocity=0 time=12
the msg is note_on channel=0 note=76 velocity=100 time=0
the msg is note_off channel=0 note=74 velocity=0 time=12
the msg is note_on channel=0 note=74 velocity=100 time=0
the msg is note_off channel=0 note=72 velocity=0 time=12
the msg is note_on channel=0 note=72 velocity=100 time=0
the msg is note_off channel=0 note=74 velocity=0 time=25
the msg is note_on channel=0 note=74 velocity=100 time=0
the msg is note_off channel=0 note=76 velocity=0 time=25
the msg is note_on channel=0 note=76 velocity=100 time=0
the msg is note_off channel=0 note=79 velocity=0 time=25
the msg is note_on channel=0 note=79 velocity=100 time=0
the msg is note_off channel=0 note=79 velocity=0 time=12
the msg is note_on channel=0 note=79 velocity=100 time=0
the msg is note_off channel=0 note=76 velocity=0 time=12
the msg is note_on channel=0 note=76 velocity=100 time=0
the msg is note_off channel=0 note=74 velocity=0 time=12
the msg is note_on channel=0 note=74 velocity=100 time=0
the msg is note_off channel=0 note=72 velocity=0 time=12
the msg is note_on channel=0 note=72 velocity=100 time=0
the msg is note_off channel=0 note=74 velocity=0 time=25
the msg is note_on channel=0 note=74 velocity=100 time=0
the msg is note_off channel=0 note=74 velocity=0 time=12
the msg is note_on channel=0 note=74 velocity=100 time=0
the msg is note_off channel=0 note=74 velocity=0 time=12
the msg is note_on channel=0 note=74 velocity=100 time=0
the msg is note_off channel=0 note=74 velocity=0 time=25
the msg is note_on channel=0 note=74 velocity=100 time=0
the msg is note_off channel=0 note=74 velocity=0 time=25
the msg is note_on channel=0 note=74 velocity=100 time=0
the msg is note_off channel=0 note=76 velocity=0 time=25
the msg is note_on channel=0 note=76 velocity=100 time=0
the msg is note_off channel=0 note=79 velocity=0 time=25
the msg is note_on channel=0 note=79 velocity=100 time=0
the msg is note_off channel=0 note=79 velocity=0 time=12
the msg is note_on channel=0 note=79 velocity=100 time=0
the msg is note_off channel=0 note=76 velocity=0 time=12
the msg is note_on channel=0 note=76 velocity=100 time=0
the msg is note_off channel=0 note=74 velocity=0 time=12
the msg is note_on channel=0 note=74 velocity=100 time=0
the msg is note_off channel=0 note=72 velocity=0 time=12
the msg is note_on channel=0 note=72 velocity=100 time=0
the msg is note_off channel=0 note=72 velocity=0 time=81
the msg is note_on channel=0 note=72 velocity=100 time=0
the msg is note_off channel=0 note=72 velocity=0 time=8
the msg is note_on channel=0 note=72 velocity=100 time=0
the msg is note_off channel=0 note=74 velocity=0 time=25
the msg is note_on channel=0 note=74 velocity=100 time=0
the msg is note_off channel=0 note=74 velocity=0 time=25
the msg is note_on channel=0 note=74 velocity=100 time=0
the msg is note_off channel=0 note=74 velocity=0 time=25
the msg is note_on channel=0 note=74 velocity=100 time=0
the msg is note_off channel=0 note=74 velocity=0 time=25
the msg is note_on channel=0 note=74 velocity=100 time=0
the msg is note_off channel=0 note=74 velocity=0 time=25
the msg is note_on channel=0 note=74 velocity=100 time=0
the msg is note_off channel=0 note=74 velocity=0 time=25
the msg is note_on channel=0 note=74 velocity=100 time=0
the msg is note_off channel=0 note=76 velocity=0 time=25
the msg is note_on channel=0 note=76 velocity=100 time=0
the msg is note_off channel=0 note=79 velocity=0 time=25
the msg is note_on channel=0 note=79 velocity=100 time=0
the msg is note_off channel=0 note=79 velocity=0 time=12
the msg is note_on channel=0 note=79 velocity=100 time=0
the msg is note_off channel=0 note=76 velocity=0 time=12
the msg is note_on channel=0 note=76 velocity=100 time=0
the msg is note_off channel=0 note=74 velocity=0 time=17
the msg is note_on channel=0 note=74 velocity=100 time=0
the msg is note_off channel=0 note=72 velocity=0 time=8
the msg is note_on channel=0 note=72 velocity=100 time=0
the msg is note_off channel=0 note=72 velocity=0 time=25
the msg is note_on channel=0 note=72 velocity=100 time=0
the msg is note_off channel=0 note=72 velocity=0 time=25
the msg is note_on channel=0 note=72 velocity=100 time=0
the msg is note_off channel=0 note=72 velocity=0 time=12
the msg is note_on channel=0 note=72 velocity=100 time=0
the msg is note_off channel=0 note=72 velocity=0 time=29
the msg is note_on channel=0 note=72 velocity=100 time=0
the msg is note_off channel=0 note=72 velocity=0 time=8
the msg is note_on channel=0 note=72 velocity=100 time=0
the msg is note_off channel=0 note=72 velocity=0 time=25
the msg is note_on channel=0 note=72 velocity=100 time=0
the msg is note_off channel=0 note=72 velocity=0 time=12
the msg is note_on channel=0 note=72 velocity=100 time=0
the msg is note_off channel=0 note=72 velocity=0 time=12
the msg is note_on channel=0 note=72 velocity=100 time=0
the msg is note_off channel=0 note=72 velocity=0 time=12
the msg is note_on channel=0 note=72 velocity=100 time=0
the msg is note_off channel=0 note=76 velocity=0 time=12
the msg is note_on channel=0 note=76 velocity=100 time=0
the msg is note_off channel=0 note=79 velocity=0 time=25
the msg is note_on channel=0 note=79 velocity=100 time=0
the msg is note_off channel=0 note=79 velocity=0 time=12
the msg is note_on channel=0 note=79 velocity=100 time=0
the msg is note_off channel=0 note=76 velocity=0 time=12
the msg is note_on channel=0 note=76 velocity=100 time=0
the msg is note_off channel=0 note=74 velocity=0 time=12
the msg is note_on channel=0 note=74 velocity=100 time=0
the msg is note_off channel=0 note=72 velocity=0 time=12
the msg is note_on channel=0 note=72 velocity=100 time=0
the msg is note_off channel=0 note=72 velocity=0 time=76
the msg is note_on channel=0 note=72 velocity=100 time=0
the msg is note_off channel=0 note=72 velocity=0 time=12
the msg is note_on channel=0 note=72 velocity=100 time=0
the msg is note_off channel=0 note=72 velocity=0 time=12
the msg is note_on channel=0 note=72 velocity=100 time=0
the msg is note_off channel=0 note=72 velocity=0 time=8
the msg is note_on channel=0 note=72 velocity=100 time=0
the msg is note_off channel=0 note=72 velocity=0 time=17
the msg is note_on channel=0 note=72 velocity=100 time=0
the msg is note_off channel=0 note=72 velocity=0 time=12
the msg is note_on channel=0 note=72 velocity=100 time=0
the msg is note_off channel=0 note=72 velocity=0 time=12
the msg is note_on channel=0 note=72 velocity=100 time=0
the msg is note_off channel=0 note=76 velocity=0 time=8
the msg is note_on channel=0 note=76 velocity=100 time=0
the msg is note_off channel=0 note=79 velocity=0 time=29
the msg is note_on channel=0 note=79 velocity=100 time=0
the msg is note_off channel=0 note=79 velocity=0 time=12
the msg is note_on channel=0 note=79 velocity=100 time=0
the msg is note_off channel=0 note=76 velocity=0 time=8
the msg is note_on channel=0 note=76 velocity=100 time=0
the msg is note_off channel=0 note=74 velocity=0 time=17
the msg is note_on channel=0 note=74 velocity=100 time=0
the msg is <meta message end_of_track time=51>
the msg is <meta message track_name name='Piano' time=0>
the msg is program_change channel=0 program=0 time=0
the msg is note_off channel=0 note=72 velocity=0 time=0
the msg is pitchwheel channel=0 pitch=0 time=0
the msg is program_change channel=0 program=0 time=0
the msg is <meta message set_tempo tempo=500000 time=0>
the msg is <meta message time_signature numerator=4 denominator=4 clocks_per_click=24 notated_32nd_notes_per_beat=8 time=0>
the msg is note_on channel=0 note=72 velocity=100 time=0
the msg is note_off channel=0 note=74 velocity=0 time=34
the msg is note_on channel=0 note=74 velocity=100 time=0
the msg is note_off channel=0 note=74 velocity=0 time=17
the msg is note_on channel=0 note=74 velocity=100 time=0
the msg is note_off channel=0 note=74 velocity=0 time=34
the msg is note_on channel=0 note=74 velocity=100 time=0
the msg is note_off channel=0 note=74 velocity=0 time=17
the msg is note_on channel=0 note=74 velocity=100 time=0
the msg is note_off channel=0 note=76 velocity=0 time=34
the msg is note_on channel=0 note=76 velocity=100 time=0
the msg is note_off channel=0 note=79 velocity=0 time=17
the msg is note_on channel=0 note=79 velocity=100 time=0
the msg is note_off channel=0 note=79 velocity=0 time=17
the msg is note_on channel=0 note=79 velocity=100 time=0
the msg is note_off channel=0 note=76 velocity=0 time=17
the msg is note_on channel=0 note=76 velocity=100 time=0
the msg is note_off channel=0 note=74 velocity=0 time=4
the msg is note_on channel=0 note=74 velocity=100 time=0
the msg is note_off channel=0 note=72 velocity=0 time=12
the msg is note_on channel=0 note=72 velocity=100 time=0
the msg is note_off channel=0 note=72 velocity=0 time=89
the msg is note_on channel=0 note=72 velocity=100 time=0
the msg is note_off channel=0 note=72 velocity=0 time=12
the msg is note_on channel=0 note=72 velocity=100 time=0
the msg is note_off channel=0 note=74 velocity=0 time=25
the msg is note_on channel=0 note=74 velocity=100 time=0
the msg is note_off channel=0 note=74 velocity=0 time=25
the msg is note_on channel=0 note=74 velocity=100 time=0
the msg is note_off channel=0 note=74 velocity=0 time=12
the msg is note_on channel=0 note=74 velocity=100 time=0
the msg is note_off channel=0 note=76 velocity=0 time=25
the msg is note_on channel=0 note=76 velocity=100 time=0
the msg is note_off channel=0 note=79 velocity=0 time=25
the msg is note_on channel=0 note=79 velocity=100 time=0
the msg is note_off channel=0 note=79 velocity=0 time=12
the msg is note_on channel=0 note=79 velocity=100 time=0
the msg is note_off channel=0 note=76 velocity=0 time=12
the msg is note_on channel=0 note=76 velocity=100 time=0
the msg is note_off channel=0 note=74 velocity=0 time=12
the msg is note_on channel=0 note=74 velocity=100 time=0
the msg is note_off channel=0 note=72 velocity=0 time=12
the msg is note_on channel=0 note=72 velocity=100 time=0
the msg is note_off channel=0 note=74 velocity=0 time=25
the msg is note_on channel=0 note=74 velocity=100 time=0
the msg is note_off channel=0 note=76 velocity=0 time=25
the msg is note_on channel=0 note=76 velocity=100 time=0
the msg is note_off channel=0 note=79 velocity=0 time=25
the msg is note_on channel=0 note=79 velocity=100 time=0
the msg is note_off channel=0 note=79 velocity=0 time=12
the msg is note_on channel=0 note=79 velocity=100 time=0
the msg is note_off channel=0 note=76 velocity=0 time=12
the msg is note_on channel=0 note=76 velocity=100 time=0
the msg is note_off channel=0 note=74 velocity=0 time=12
the msg is note_on channel=0 note=74 velocity=100 time=0
the msg is note_off channel=0 note=72 velocity=0 time=12
the msg is note_on channel=0 note=72 velocity=100 time=0
the msg is note_off channel=0 note=74 velocity=0 time=25
the msg is note_on channel=0 note=74 velocity=100 time=0
the msg is note_off channel=0 note=74 velocity=0 time=12
the msg is note_on channel=0 note=74 velocity=100 time=0
the msg is note_off channel=0 note=74 velocity=0 time=12
the msg is note_on channel=0 note=74 velocity=100 time=0
the msg is note_off channel=0 note=74 velocity=0 time=25
the msg is note_on channel=0 note=74 velocity=100 time=0
the msg is note_off channel=0 note=74 velocity=0 time=25
the msg is note_on channel=0 note=74 velocity=100 time=0
the msg is note_off channel=0 note=76 velocity=0 time=25
the msg is note_on channel=0 note=76 velocity=100 time=0
the msg is note_off channel=0 note=79 velocity=0 time=25
the msg is note_on channel=0 note=79 velocity=100 time=0
the msg is note_off channel=0 note=79 velocity=0 time=12
the msg is note_on channel=0 note=79 velocity=100 time=0
the msg is note_off channel=0 note=76 velocity=0 time=12
the msg is note_on channel=0 note=76 velocity=100 time=0
the msg is note_off channel=0 note=74 velocity=0 time=12
the msg is note_on channel=0 note=74 velocity=100 time=0
the msg is note_off channel=0 note=72 velocity=0 time=12
the msg is note_on channel=0 note=72 velocity=100 time=0
the msg is note_off channel=0 note=72 velocity=0 time=81
the msg is note_on channel=0 note=72 velocity=100 time=0
the msg is note_off channel=0 note=72 velocity=0 time=8
the msg is note_on channel=0 note=72 velocity=100 time=0
the msg is note_off channel=0 note=74 velocity=0 time=25
the msg is note_on channel=0 note=74 velocity=100 time=0
the msg is note_off channel=0 note=74 velocity=0 time=25
the msg is note_on channel=0 note=74 velocity=100 time=0
the msg is note_off channel=0 note=74 velocity=0 time=25
the msg is note_on channel=0 note=74 velocity=100 time=0
the msg is note_off channel=0 note=74 velocity=0 time=25
the msg is note_on channel=0 note=74 velocity=100 time=0
the msg is note_off channel=0 note=74 velocity=0 time=25
the msg is note_on channel=0 note=74 velocity=100 time=0
the msg is note_off channel=0 note=74 velocity=0 time=25
the msg is note_on channel=0 note=74 velocity=100 time=0
the msg is note_off channel=0 note=76 velocity=0 time=25
the msg is note_on channel=0 note=76 velocity=100 time=0
the msg is note_off channel=0 note=79 velocity=0 time=25
the msg is note_on channel=0 note=79 velocity=100 time=0
the msg is note_off channel=0 note=79 velocity=0 time=12
the msg is note_on channel=0 note=79 velocity=100 time=0
the msg is note_off channel=0 note=76 velocity=0 time=12
the msg is note_on channel=0 note=76 velocity=100 time=0
the msg is note_off channel=0 note=74 velocity=0 time=17
the msg is note_on channel=0 note=74 velocity=100 time=0
the msg is note_off channel=0 note=72 velocity=0 time=8
the msg is note_on channel=0 note=72 velocity=100 time=0
the msg is note_off channel=0 note=72 velocity=0 time=25
the msg is note_on channel=0 note=72 velocity=100 time=0
the msg is note_off channel=0 note=72 velocity=0 time=25
the msg is note_on channel=0 note=72 velocity=100 time=0
the msg is note_off channel=0 note=72 velocity=0 time=12
the msg is note_on channel=0 note=72 velocity=100 time=0
the msg is note_off channel=0 note=72 velocity=0 time=29
the msg is note_on channel=0 note=72 velocity=100 time=0
the msg is note_off channel=0 note=72 velocity=0 time=8
the msg is note_on channel=0 note=72 velocity=100 time=0
the msg is note_off channel=0 note=72 velocity=0 time=25
the msg is note_on channel=0 note=72 velocity=100 time=0
the msg is note_off channel=0 note=72 velocity=0 time=12
the msg is note_on channel=0 note=72 velocity=100 time=0
the msg is note_off channel=0 note=72 velocity=0 time=12
the msg is note_on channel=0 note=72 velocity=100 time=0
the msg is note_off channel=0 note=72 velocity=0 time=12
the msg is note_on channel=0 note=72 velocity=100 time=0
the msg is note_off channel=0 note=76 velocity=0 time=12
the msg is note_on channel=0 note=76 velocity=100 time=0
the msg is note_off channel=0 note=79 velocity=0 time=25
the msg is note_on channel=0 note=79 velocity=100 time=0
the msg is note_off channel=0 note=79 velocity=0 time=12
the msg is note_on channel=0 note=79 velocity=100 time=0
the msg is note_off channel=0 note=76 velocity=0 time=12
the msg is note_on channel=0 note=76 velocity=100 time=0
the msg is note_off channel=0 note=74 velocity=0 time=12
the msg is note_on channel=0 note=74 velocity=100 time=0
the msg is note_off channel=0 note=72 velocity=0 time=12
the msg is note_on channel=0 note=72 velocity=100 time=0
the msg is note_off channel=0 note=72 velocity=0 time=76
the msg is note_on channel=0 note=72 velocity=100 time=0
the msg is note_off channel=0 note=72 velocity=0 time=12
the msg is note_on channel=0 note=72 velocity=100 time=0
the msg is note_off channel=0 note=72 velocity=0 time=12
the msg is note_on channel=0 note=72 velocity=100 time=0
the msg is note_off channel=0 note=72 velocity=0 time=8
the msg is note_on channel=0 note=72 velocity=100 time=0
the msg is note_off channel=0 note=72 velocity=0 time=17
the msg is note_on channel=0 note=72 velocity=100 time=0
the msg is note_off channel=0 note=72 velocity=0 time=12
the msg is note_on channel=0 note=72 velocity=100 time=0
the msg is note_off channel=0 note=72 velocity=0 time=12
the msg is note_on channel=0 note=72 velocity=100 time=0
the msg is note_off channel=0 note=76 velocity=0 time=8
the msg is note_on channel=0 note=76 velocity=100 time=0
the msg is note_off channel=0 note=79 velocity=0 time=29
the msg is note_on channel=0 note=79 velocity=100 time=0
the msg is note_off channel=0 note=79 velocity=0 time=12
the msg is note_on channel=0 note=79 velocity=100 time=0
the msg is note_off channel=0 note=76 velocity=0 time=8
the msg is note_on channel=0 note=76 velocity=100 time=0
the msg is note_off channel=0 note=74 velocity=0 time=17
the msg is note_on channel=0 note=74 velocity=100 time=0
the msg is <meta message end_of_track time=51>
the msg is <meta message track_name name='Piano' time=0>
the msg is program_change channel=0 program=0 time=0
the msg is note_off channel=0 note=72 velocity=0 time=0
the msg is pitchwheel channel=0 pitch=0 time=0
the msg is program_change channel=0 program=0 time=0
the msg is <meta message set_tempo tempo=500000 time=0>
the msg is <meta message time_signature numerator=4 denominator=4 clocks_per_click=24 notated_32nd_notes_per_beat=8 time=0>
the msg is note_on channel=0 note=72 velocity=100 time=0
the msg is note_off channel=0 note=74 velocity=0 time=34
the msg is note_on channel=0 note=74 velocity=100 time=0
the msg is note_off channel=0 note=74 velocity=0 time=17
the msg is note_on channel=0 note=74 velocity=100 time=0
the msg is note_off channel=0 note=74 velocity=0 time=34
the msg is note_on channel=0 note=74 velocity=100 time=0
the msg is note_off channel=0 note=74 velocity=0 time=17
the msg is note_on channel=0 note=74 velocity=100 time=0
the msg is note_off channel=0 note=76 velocity=0 time=34
the msg is note_on channel=0 note=76 velocity=100 time=0
the msg is note_off channel=0 note=79 velocity=0 time=17
the msg is note_on channel=0 note=79 velocity=100 time=0
the msg is note_off channel=0 note=79 velocity=0 time=17
the msg is note_on channel=0 note=79 velocity=100 time=0
the msg is note_off channel=0 note=76 velocity=0 time=17
the msg is note_on channel=0 note=76 velocity=100 time=0
the msg is note_off channel=0 note=74 velocity=0 time=4
the msg is note_on channel=0 note=74 velocity=100 time=0
the msg is note_off channel=0 note=72 velocity=0 time=12
the msg is note_on channel=0 note=72 velocity=100 time=0
the msg is note_off channel=0 note=72 velocity=0 time=89
the msg is note_on channel=0 note=72 velocity=100 time=0
the msg is note_off channel=0 note=72 velocity=0 time=12
the msg is note_on channel=0 note=72 velocity=100 time=0
the msg is note_off channel=0 note=74 velocity=0 time=25
the msg is note_on channel=0 note=74 velocity=100 time=0
the msg is note_off channel=0 note=74 velocity=0 time=25
the msg is note_on channel=0 note=74 velocity=100 time=0
the msg is note_off channel=0 note=74 velocity=0 time=12
the msg is note_on channel=0 note=74 velocity=100 time=0
the msg is note_off channel=0 note=76 velocity=0 time=25
the msg is note_on channel=0 note=76 velocity=100 time=0
the msg is note_off channel=0 note=79 velocity=0 time=25
the msg is note_on channel=0 note=79 velocity=100 time=0
the msg is note_off channel=0 note=79 velocity=0 time=12
the msg is note_on channel=0 note=79 velocity=100 time=0
the msg is note_off channel=0 note=76 velocity=0 time=12
the msg is note_on channel=0 note=76 velocity=100 time=0
the msg is note_off channel=0 note=74 velocity=0 time=12
the msg is note_on channel=0 note=74 velocity=100 time=0
the msg is note_off channel=0 note=72 velocity=0 time=12
the msg is note_on channel=0 note=72 velocity=100 time=0
the msg is note_off channel=0 note=74 velocity=0 time=25
the msg is note_on channel=0 note=74 velocity=100 time=0
the msg is note_off channel=0 note=76 velocity=0 time=25
the msg is note_on channel=0 note=76 velocity=100 time=0
the msg is note_off channel=0 note=79 velocity=0 time=25
the msg is note_on channel=0 note=79 velocity=100 time=0
the msg is note_off channel=0 note=79 velocity=0 time=12
the msg is note_on channel=0 note=79 velocity=100 time=0
the msg is note_off channel=0 note=76 velocity=0 time=12
the msg is note_on channel=0 note=76 velocity=100 time=0
the msg is note_off channel=0 note=74 velocity=0 time=12
the msg is note_on channel=0 note=74 velocity=100 time=0
the msg is note_off channel=0 note=72 velocity=0 time=12
the msg is note_on channel=0 note=72 velocity=100 time=0
the msg is note_off channel=0 note=74 velocity=0 time=25
the msg is note_on channel=0 note=74 velocity=100 time=0
the msg is note_off channel=0 note=74 velocity=0 time=12
the msg is note_on channel=0 note=74 velocity=100 time=0
the msg is note_off channel=0 note=74 velocity=0 time=12
the msg is note_on channel=0 note=74 velocity=100 time=0
the msg is note_off channel=0 note=74 velocity=0 time=25
the msg is note_on channel=0 note=74 velocity=100 time=0
the msg is note_off channel=0 note=74 velocity=0 time=25
the msg is note_on channel=0 note=74 velocity=100 time=0
the msg is note_off channel=0 note=76 velocity=0 time=25
the msg is note_on channel=0 note=76 velocity=100 time=0
the msg is note_off channel=0 note=79 velocity=0 time=25
the msg is note_on channel=0 note=79 velocity=100 time=0
the msg is note_off channel=0 note=79 velocity=0 time=12
the msg is note_on channel=0 note=79 velocity=100 time=0
the msg is note_off channel=0 note=76 velocity=0 time=12
the msg is note_on channel=0 note=76 velocity=100 time=0
the msg is note_off channel=0 note=74 velocity=0 time=12
the msg is note_on channel=0 note=74 velocity=100 time=0
the msg is note_off channel=0 note=72 velocity=0 time=12
the msg is note_on channel=0 note=72 velocity=100 time=0
the msg is note_off channel=0 note=72 velocity=0 time=81
the msg is note_on channel=0 note=72 velocity=100 time=0
the msg is note_off channel=0 note=72 velocity=0 time=8
the msg is note_on channel=0 note=72 velocity=100 time=0
the msg is note_off channel=0 note=74 velocity=0 time=25
the msg is note_on channel=0 note=74 velocity=100 time=0
the msg is note_off channel=0 note=74 velocity=0 time=25
the msg is note_on channel=0 note=74 velocity=100 time=0
the msg is note_off channel=0 note=74 velocity=0 time=25
the msg is note_on channel=0 note=74 velocity=100 time=0
the msg is note_off channel=0 note=74 velocity=0 time=25
the msg is note_on channel=0 note=74 velocity=100 time=0
the msg is note_off channel=0 note=74 velocity=0 time=25
the msg is note_on channel=0 note=74 velocity=100 time=0
the msg is note_off channel=0 note=74 velocity=0 time=25
the msg is note_on channel=0 note=74 velocity=100 time=0
the msg is note_off channel=0 note=76 velocity=0 time=25
the msg is note_on channel=0 note=76 velocity=100 time=0
the msg is note_off channel=0 note=79 velocity=0 time=25
the msg is note_on channel=0 note=79 velocity=100 time=0
the msg is note_off channel=0 note=79 velocity=0 time=12
the msg is note_on channel=0 note=79 velocity=100 time=0
the msg is note_off channel=0 note=76 velocity=0 time=12
the msg is note_on channel=0 note=76 velocity=100 time=0
the msg is note_off channel=0 note=74 velocity=0 time=17
the msg is note_on channel=0 note=74 velocity=100 time=0
the msg is note_off channel=0 note=72 velocity=0 time=8
the msg is note_on channel=0 note=72 velocity=100 time=0
the msg is note_off channel=0 note=72 velocity=0 time=25
the msg is note_on channel=0 note=72 velocity=100 time=0
the msg is note_off channel=0 note=72 velocity=0 time=25
the msg is note_on channel=0 note=72 velocity=100 time=0
the msg is note_off channel=0 note=72 velocity=0 time=12
the msg is note_on channel=0 note=72 velocity=100 time=0
the msg is note_off channel=0 note=72 velocity=0 time=29
the msg is note_on channel=0 note=72 velocity=100 time=0
the msg is note_off channel=0 note=72 velocity=0 time=8
the msg is note_on channel=0 note=72 velocity=100 time=0
the msg is note_off channel=0 note=72 velocity=0 time=25
the msg is note_on channel=0 note=72 velocity=100 time=0
the msg is note_off channel=0 note=72 velocity=0 time=12
the msg is note_on channel=0 note=72 velocity=100 time=0
the msg is note_off channel=0 note=72 velocity=0 time=12
the msg is note_on channel=0 note=72 velocity=100 time=0
the msg is note_off channel=0 note=72 velocity=0 time=12
the msg is note_on channel=0 note=72 velocity=100 time=0
the msg is note_off channel=0 note=76 velocity=0 time=12
the msg is note_on channel=0 note=76 velocity=100 time=0
the msg is note_off channel=0 note=79 velocity=0 time=25
the msg is note_on channel=0 note=79 velocity=100 time=0
the msg is note_off channel=0 note=79 velocity=0 time=12
the msg is note_on channel=0 note=79 velocity=100 time=0
the msg is note_off channel=0 note=76 velocity=0 time=12
the msg is note_on channel=0 note=76 velocity=100 time=0
the msg is note_off channel=0 note=74 velocity=0 time=12
the msg is note_on channel=0 note=74 velocity=100 time=0
the msg is note_off channel=0 note=72 velocity=0 time=12
the msg is note_on channel=0 note=72 velocity=100 time=0
the msg is note_off channel=0 note=72 velocity=0 time=76
the msg is note_on channel=0 note=72 velocity=100 time=0
the msg is note_off channel=0 note=72 velocity=0 time=12
the msg is note_on channel=0 note=72 velocity=100 time=0
the msg is note_off channel=0 note=72 velocity=0 time=12
the msg is note_on channel=0 note=72 velocity=100 time=0
the msg is note_off channel=0 note=72 velocity=0 time=8
the msg is note_on channel=0 note=72 velocity=100 time=0
the msg is note_off channel=0 note=72 velocity=0 time=17
the msg is note_on channel=0 note=72 velocity=100 time=0
the msg is note_off channel=0 note=72 velocity=0 time=12
the msg is note_on channel=0 note=72 velocity=100 time=0
the msg is note_off channel=0 note=72 velocity=0 time=12
the msg is note_on channel=0 note=72 velocity=100 time=0
the msg is note_off channel=0 note=76 velocity=0 time=8
the msg is note_on channel=0 note=76 velocity=100 time=0
the msg is note_off channel=0 note=79 velocity=0 time=29
the msg is note_on channel=0 note=79 velocity=100 time=0
the msg is note_off channel=0 note=79 velocity=0 time=12
the msg is note_on channel=0 note=79 velocity=100 time=0
the msg is note_off channel=0 note=76 velocity=0 time=8
the msg is note_on channel=0 note=76 velocity=100 time=0
the msg is note_off channel=0 note=74 velocity=0 time=17
the msg is note_on channel=0 note=74 velocity=100 time=0
the msg is <meta message end_of_track time=51>
the msg is <meta message track_name name='Piano' time=0>
the msg is program_change channel=0 program=0 time=0
the msg is note_off channel=0 note=72 velocity=0 time=0
the msg is pitchwheel channel=0 pitch=0 time=0
the msg is program_change channel=0 program=0 time=0
the msg is <meta message set_tempo tempo=500000 time=0>
the msg is <meta message time_signature numerator=4 denominator=4 clocks_per_click=24 notated_32nd_notes_per_beat=8 time=0>
the msg is note_on channel=0 note=72 velocity=100 time=0
the msg is note_off channel=0 note=74 velocity=0 time=34
the msg is note_on channel=0 note=74 velocity=100 time=0
the msg is note_off channel=0 note=74 velocity=0 time=17
the msg is note_on channel=0 note=74 velocity=100 time=0
the msg is note_off channel=0 note=74 velocity=0 time=34
the msg is note_on channel=0 note=74 velocity=100 time=0
the msg is note_off channel=0 note=74 velocity=0 time=17
the msg is note_on channel=0 note=74 velocity=100 time=0
the msg is note_off channel=0 note=76 velocity=0 time=34
the msg is note_on channel=0 note=76 velocity=100 time=0
the msg is note_off channel=0 note=79 velocity=0 time=17
the msg is note_on channel=0 note=79 velocity=100 time=0
the msg is note_off channel=0 note=79 velocity=0 time=17
the msg is note_on channel=0 note=79 velocity=100 time=0
the msg is note_off channel=0 note=76 velocity=0 time=17
the msg is note_on channel=0 note=76 velocity=100 time=0
the msg is note_off channel=0 note=74 velocity=0 time=4
the msg is note_on channel=0 note=74 velocity=100 time=0
the msg is note_off channel=0 note=72 velocity=0 time=12
the msg is note_on channel=0 note=72 velocity=100 time=0
the msg is note_off channel=0 note=72 velocity=0 time=89
the msg is note_on channel=0 note=72 velocity=100 time=0
the msg is note_off channel=0 note=72 velocity=0 time=12
the msg is note_on channel=0 note=72 velocity=100 time=0
the msg is note_off channel=0 note=74 velocity=0 time=25
the msg is note_on channel=0 note=74 velocity=100 time=0
the msg is note_off channel=0 note=74 velocity=0 time=25
the msg is note_on channel=0 note=74 velocity=100 time=0
the msg is note_off channel=0 note=74 velocity=0 time=12
the msg is note_on channel=0 note=74 velocity=100 time=0
the msg is note_off channel=0 note=76 velocity=0 time=25
the msg is note_on channel=0 note=76 velocity=100 time=0
the msg is note_off channel=0 note=79 velocity=0 time=25
the msg is note_on channel=0 note=79 velocity=100 time=0
the msg is note_off channel=0 note=79 velocity=0 time=12
the msg is note_on channel=0 note=79 velocity=100 time=0
the msg is note_off channel=0 note=76 velocity=0 time=12
the msg is note_on channel=0 note=76 velocity=100 time=0
the msg is note_off channel=0 note=74 velocity=0 time=12
the msg is note_on channel=0 note=74 velocity=100 time=0
the msg is note_off channel=0 note=72 velocity=0 time=12
the msg is note_on channel=0 note=72 velocity=100 time=0
the msg is note_off channel=0 note=74 velocity=0 time=25
the msg is note_on channel=0 note=74 velocity=100 time=0
the msg is note_off channel=0 note=76 velocity=0 time=25
the msg is note_on channel=0 note=76 velocity=100 time=0
the msg is note_off channel=0 note=79 velocity=0 time=25
the msg is note_on channel=0 note=79 velocity=100 time=0
the msg is note_off channel=0 note=79 velocity=0 time=12
the msg is note_on channel=0 note=79 velocity=100 time=0
the msg is note_off channel=0 note=76 velocity=0 time=12
the msg is note_on channel=0 note=76 velocity=100 time=0
the msg is note_off channel=0 note=74 velocity=0 time=12
the msg is note_on channel=0 note=74 velocity=100 time=0
the msg is note_off channel=0 note=72 velocity=0 time=12
the msg is note_on channel=0 note=72 velocity=100 time=0
the msg is note_off channel=0 note=74 velocity=0 time=25
the msg is note_on channel=0 note=74 velocity=100 time=0
the msg is note_off channel=0 note=74 velocity=0 time=12
the msg is note_on channel=0 note=74 velocity=100 time=0
the msg is note_off channel=0 note=74 velocity=0 time=12
the msg is note_on channel=0 note=74 velocity=100 time=0
the msg is note_off channel=0 note=74 velocity=0 time=25
the msg is note_on channel=0 note=74 velocity=100 time=0
the msg is note_off channel=0 note=74 velocity=0 time=25
the msg is note_on channel=0 note=74 velocity=100 time=0
the msg is note_off channel=0 note=76 velocity=0 time=25
the msg is note_on channel=0 note=76 velocity=100 time=0
the msg is note_off channel=0 note=79 velocity=0 time=25
the msg is note_on channel=0 note=79 velocity=100 time=0
the msg is note_off channel=0 note=79 velocity=0 time=12
the msg is note_on channel=0 note=79 velocity=100 time=0
the msg is note_off channel=0 note=76 velocity=0 time=12
the msg is note_on channel=0 note=76 velocity=100 time=0
the msg is note_off channel=0 note=74 velocity=0 time=12
the msg is note_on channel=0 note=74 velocity=100 time=0
the msg is note_off channel=0 note=72 velocity=0 time=12
the msg is note_on channel=0 note=72 velocity=100 time=0
the msg is note_off channel=0 note=72 velocity=0 time=81
the msg is note_on channel=0 note=72 velocity=100 time=0
the msg is note_off channel=0 note=72 velocity=0 time=8
the msg is note_on channel=0 note=72 velocity=100 time=0
the msg is note_off channel=0 note=74 velocity=0 time=25
the msg is note_on channel=0 note=74 velocity=100 time=0
the msg is note_off channel=0 note=74 velocity=0 time=25
the msg is note_on channel=0 note=74 velocity=100 time=0
the msg is note_off channel=0 note=74 velocity=0 time=25
the msg is note_on channel=0 note=74 velocity=100 time=0
the msg is note_off channel=0 note=74 velocity=0 time=25
the msg is note_on channel=0 note=74 velocity=100 time=0
the msg is note_off channel=0 note=74 velocity=0 time=25
the msg is note_on channel=0 note=74 velocity=100 time=0
the msg is note_off channel=0 note=74 velocity=0 time=25
the msg is note_on channel=0 note=74 velocity=100 time=0
the msg is note_off channel=0 note=76 velocity=0 time=25
the msg is note_on channel=0 note=76 velocity=100 time=0
the msg is note_off channel=0 note=79 velocity=0 time=25
the msg is note_on channel=0 note=79 velocity=100 time=0
the msg is note_off channel=0 note=79 velocity=0 time=12
the msg is note_on channel=0 note=79 velocity=100 time=0
the msg is note_off channel=0 note=76 velocity=0 time=12
the msg is note_on channel=0 note=76 velocity=100 time=0
the msg is note_off channel=0 note=74 velocity=0 time=17
the msg is note_on channel=0 note=74 velocity=100 time=0
the msg is note_off channel=0 note=72 velocity=0 time=8
the msg is note_on channel=0 note=72 velocity=100 time=0
the msg is note_off channel=0 note=72 velocity=0 time=25
the msg is note_on channel=0 note=72 velocity=100 time=0
the msg is note_off channel=0 note=72 velocity=0 time=25
the msg is note_on channel=0 note=72 velocity=100 time=0
the msg is note_off channel=0 note=72 velocity=0 time=12
the msg is note_on channel=0 note=72 velocity=100 time=0
the msg is note_off channel=0 note=72 velocity=0 time=29
the msg is note_on channel=0 note=72 velocity=100 time=0
the msg is note_off channel=0 note=72 velocity=0 time=8
the msg is note_on channel=0 note=72 velocity=100 time=0
the msg is note_off channel=0 note=72 velocity=0 time=25
the msg is note_on channel=0 note=72 velocity=100 time=0
the msg is note_off channel=0 note=72 velocity=0 time=12
the msg is note_on channel=0 note=72 velocity=100 time=0
the msg is note_off channel=0 note=72 velocity=0 time=12
the msg is note_on channel=0 note=72 velocity=100 time=0
the msg is note_off channel=0 note=72 velocity=0 time=12
the msg is note_on channel=0 note=72 velocity=100 time=0
the msg is note_off channel=0 note=76 velocity=0 time=12
the msg is note_on channel=0 note=76 velocity=100 time=0
the msg is note_off channel=0 note=79 velocity=0 time=25
the msg is note_on channel=0 note=79 velocity=100 time=0
the msg is note_off channel=0 note=79 velocity=0 time=12
the msg is note_on channel=0 note=79 velocity=100 time=0
the msg is note_off channel=0 note=76 velocity=0 time=12
the msg is note_on channel=0 note=76 velocity=100 time=0
the msg is note_off channel=0 note=74 velocity=0 time=12
the msg is note_on channel=0 note=74 velocity=100 time=0
the msg is note_off channel=0 note=72 velocity=0 time=12
the msg is note_on channel=0 note=72 velocity=100 time=0
the msg is note_off channel=0 note=72 velocity=0 time=76
the msg is note_on channel=0 note=72 velocity=100 time=0
the msg is note_off channel=0 note=72 velocity=0 time=12
the msg is note_on channel=0 note=72 velocity=100 time=0
the msg is note_off channel=0 note=72 velocity=0 time=12
the msg is note_on channel=0 note=72 velocity=100 time=0
the msg is note_off channel=0 note=72 velocity=0 time=8
the msg is note_on channel=0 note=72 velocity=100 time=0
the msg is note_off channel=0 note=72 velocity=0 time=17
the msg is note_on channel=0 note=72 velocity=100 time=0
the msg is note_off channel=0 note=72 velocity=0 time=12
the msg is note_on channel=0 note=72 velocity=100 time=0
the msg is note_off channel=0 note=72 velocity=0 time=12
the msg is note_on channel=0 note=72 velocity=100 time=0
the msg is note_off channel=0 note=76 velocity=0 time=8
the msg is note_on channel=0 note=76 velocity=100 time=0
the msg is note_off channel=0 note=79 velocity=0 time=29
the msg is note_on channel=0 note=79 velocity=100 time=0
the msg is note_off channel=0 note=79 velocity=0 time=12
the msg is note_on channel=0 note=79 velocity=100 time=0
the msg is note_off channel=0 note=76 velocity=0 time=8
the msg is note_on channel=0 note=76 velocity=100 time=0
the msg is note_off channel=0 note=74 velocity=0 time=17
the msg is note_on channel=0 note=74 velocity=100 time=0
the msg is <meta message end_of_track time=51>
the msg is <meta message track_name name='Piano' time=0>
the msg is program_change channel=0 program=0 time=0
the msg is note_off channel=0 note=72 velocity=0 time=0
the msg is pitchwheel channel=0 pitch=0 time=0
the msg is program_change channel=0 program=0 time=0
the msg is <meta message set_tempo tempo=500000 time=0>
the msg is <meta message time_signature numerator=4 denominator=4 clocks_per_click=24 notated_32nd_notes_per_beat=8 time=0>
the msg is note_on channel=0 note=72 velocity=100 time=0
the msg is note_off channel=0 note=74 velocity=0 time=34
the msg is note_on channel=0 note=74 velocity=100 time=0
the msg is note_off channel=0 note=74 velocity=0 time=17
the msg is note_on channel=0 note=74 velocity=100 time=0
the msg is note_off channel=0 note=74 velocity=0 time=34
the msg is note_on channel=0 note=74 velocity=100 time=0
the msg is note_off channel=0 note=74 velocity=0 time=17
the msg is note_on channel=0 note=74 velocity=100 time=0
the msg is note_off channel=0 note=76 velocity=0 time=34
the msg is note_on channel=0 note=76 velocity=100 time=0
the msg is note_off channel=0 note=79 velocity=0 time=17
the msg is note_on channel=0 note=79 velocity=100 time=0
the msg is note_off channel=0 note=79 velocity=0 time=17
the msg is note_on channel=0 note=79 velocity=100 time=0
the msg is note_off channel=0 note=76 velocity=0 time=17
the msg is note_on channel=0 note=76 velocity=100 time=0
the msg is note_off channel=0 note=74 velocity=0 time=4
the msg is note_on channel=0 note=74 velocity=100 time=0
the msg is note_off channel=0 note=72 velocity=0 time=12
the msg is note_on channel=0 note=72 velocity=100 time=0
the msg is note_off channel=0 note=72 velocity=0 time=89
the msg is note_on channel=0 note=72 velocity=100 time=0
the msg is note_off channel=0 note=72 velocity=0 time=12
the msg is note_on channel=0 note=72 velocity=100 time=0
the msg is note_off channel=0 note=74 velocity=0 time=25
the msg is note_on channel=0 note=74 velocity=100 time=0
the msg is note_off channel=0 note=74 velocity=0 time=25
the msg is note_on channel=0 note=74 velocity=100 time=0
the msg is note_off channel=0 note=74 velocity=0 time=12
the msg is note_on channel=0 note=74 velocity=100 time=0
the msg is note_off channel=0 note=76 velocity=0 time=25
the msg is note_on channel=0 note=76 velocity=100 time=0
the msg is note_off channel=0 note=79 velocity=0 time=25
the msg is note_on channel=0 note=79 velocity=100 time=0
the msg is note_off channel=0 note=79 velocity=0 time=12
the msg is note_on channel=0 note=79 velocity=100 time=0
the msg is note_off channel=0 note=76 velocity=0 time=12
the msg is note_on channel=0 note=76 velocity=100 time=0
the msg is note_off channel=0 note=74 velocity=0 time=12
the msg is note_on channel=0 note=74 velocity=100 time=0
the msg is note_off channel=0 note=72 velocity=0 time=12
the msg is note_on channel=0 note=72 velocity=100 time=0
the msg is note_off channel=0 note=74 velocity=0 time=25
the msg is note_on channel=0 note=74 velocity=100 time=0
the msg is note_off channel=0 note=76 velocity=0 time=25
the msg is note_on channel=0 note=76 velocity=100 time=0
the msg is note_off channel=0 note=79 velocity=0 time=25
the msg is note_on channel=0 note=79 velocity=100 time=0
the msg is note_off channel=0 note=79 velocity=0 time=12
the msg is note_on channel=0 note=79 velocity=100 time=0
the msg is note_off channel=0 note=76 velocity=0 time=12
the msg is note_on channel=0 note=76 velocity=100 time=0
the msg is note_off channel=0 note=74 velocity=0 time=12
the msg is note_on channel=0 note=74 velocity=100 time=0
the msg is note_off channel=0 note=72 velocity=0 time=12
the msg is note_on channel=0 note=72 velocity=100 time=0
the msg is note_off channel=0 note=74 velocity=0 time=25
the msg is note_on channel=0 note=74 velocity=100 time=0
the msg is note_off channel=0 note=74 velocity=0 time=12
the msg is note_on channel=0 note=74 velocity=100 time=0
the msg is note_off channel=0 note=74 velocity=0 time=12
the msg is note_on channel=0 note=74 velocity=100 time=0
the msg is note_off channel=0 note=74 velocity=0 time=25
the msg is note_on channel=0 note=74 velocity=100 time=0
the msg is note_off channel=0 note=74 velocity=0 time=25
the msg is note_on channel=0 note=74 velocity=100 time=0
the msg is note_off channel=0 note=76 velocity=0 time=25
the msg is note_on channel=0 note=76 velocity=100 time=0
the msg is note_off channel=0 note=79 velocity=0 time=25
the msg is note_on channel=0 note=79 velocity=100 time=0
the msg is note_off channel=0 note=79 velocity=0 time=12
the msg is note_on channel=0 note=79 velocity=100 time=0
the msg is note_off channel=0 note=76 velocity=0 time=12
the msg is note_on channel=0 note=76 velocity=100 time=0
the msg is note_off channel=0 note=74 velocity=0 time=12
the msg is note_on channel=0 note=74 velocity=100 time=0
the msg is note_off channel=0 note=72 velocity=0 time=12
the msg is note_on channel=0 note=72 velocity=100 time=0
the msg is note_off channel=0 note=72 velocity=0 time=81
the msg is note_on channel=0 note=72 velocity=100 time=0
the msg is note_off channel=0 note=72 velocity=0 time=8
the msg is note_on channel=0 note=72 velocity=100 time=0
the msg is note_off channel=0 note=74 velocity=0 time=25
the msg is note_on channel=0 note=74 velocity=100 time=0
the msg is note_off channel=0 note=74 velocity=0 time=25
the msg is note_on channel=0 note=74 velocity=100 time=0
the msg is note_off channel=0 note=74 velocity=0 time=25
the msg is note_on channel=0 note=74 velocity=100 time=0
the msg is note_off channel=0 note=74 velocity=0 time=25
the msg is note_on channel=0 note=74 velocity=100 time=0
the msg is note_off channel=0 note=74 velocity=0 time=25
the msg is note_on channel=0 note=74 velocity=100 time=0
the msg is note_off channel=0 note=74 velocity=0 time=25
the msg is note_on channel=0 note=74 velocity=100 time=0
the msg is note_off channel=0 note=76 velocity=0 time=25
the msg is note_on channel=0 note=76 velocity=100 time=0
the msg is note_off channel=0 note=79 velocity=0 time=25
the msg is note_on channel=0 note=79 velocity=100 time=0
the msg is note_off channel=0 note=79 velocity=0 time=12
the msg is note_on channel=0 note=79 velocity=100 time=0
the msg is note_off channel=0 note=76 velocity=0 time=12
the msg is note_on channel=0 note=76 velocity=100 time=0
the msg is note_off channel=0 note=74 velocity=0 time=17
the msg is note_on channel=0 note=74 velocity=100 time=0
the msg is note_off channel=0 note=72 velocity=0 time=8
the msg is note_on channel=0 note=72 velocity=100 time=0
the msg is note_off channel=0 note=72 velocity=0 time=25
the msg is note_on channel=0 note=72 velocity=100 time=0
the msg is note_off channel=0 note=72 velocity=0 time=25
the msg is note_on channel=0 note=72 velocity=100 time=0
the msg is note_off channel=0 note=72 velocity=0 time=12
the msg is note_on channel=0 note=72 velocity=100 time=0
the msg is note_off channel=0 note=72 velocity=0 time=29
the msg is note_on channel=0 note=72 velocity=100 time=0
the msg is note_off channel=0 note=72 velocity=0 time=8
the msg is note_on channel=0 note=72 velocity=100 time=0
the msg is note_off channel=0 note=72 velocity=0 time=25
the msg is note_on channel=0 note=72 velocity=100 time=0
the msg is note_off channel=0 note=72 velocity=0 time=12
the msg is note_on channel=0 note=72 velocity=100 time=0
the msg is note_off channel=0 note=72 velocity=0 time=12
the msg is note_on channel=0 note=72 velocity=100 time=0
the msg is note_off channel=0 note=72 velocity=0 time=12
the msg is note_on channel=0 note=72 velocity=100 time=0
the msg is note_off channel=0 note=76 velocity=0 time=12
the msg is note_on channel=0 note=76 velocity=100 time=0
the msg is note_off channel=0 note=79 velocity=0 time=25
the msg is note_on channel=0 note=79 velocity=100 time=0
the msg is note_off channel=0 note=79 velocity=0 time=12
the msg is note_on channel=0 note=79 velocity=100 time=0
the msg is note_off channel=0 note=76 velocity=0 time=12
the msg is note_on channel=0 note=76 velocity=100 time=0
the msg is note_off channel=0 note=74 velocity=0 time=12
the msg is note_on channel=0 note=74 velocity=100 time=0
the msg is note_off channel=0 note=72 velocity=0 time=12
the msg is note_on channel=0 note=72 velocity=100 time=0
the msg is note_off channel=0 note=72 velocity=0 time=76
the msg is note_on channel=0 note=72 velocity=100 time=0
the msg is note_off channel=0 note=72 velocity=0 time=12
the msg is note_on channel=0 note=72 velocity=100 time=0
the msg is note_off channel=0 note=72 velocity=0 time=12
the msg is note_on channel=0 note=72 velocity=100 time=0
the msg is note_off channel=0 note=72 velocity=0 time=8
the msg is note_on channel=0 note=72 velocity=100 time=0
the msg is note_off channel=0 note=72 velocity=0 time=17
the msg is note_on channel=0 note=72 velocity=100 time=0
the msg is note_off channel=0 note=72 velocity=0 time=12
the msg is note_on channel=0 note=72 velocity=100 time=0
the msg is note_off channel=0 note=72 velocity=0 time=12
the msg is note_on channel=0 note=72 velocity=100 time=0
the msg is note_off channel=0 note=76 velocity=0 time=8
the msg is note_on channel=0 note=76 velocity=100 time=0
the msg is note_off channel=0 note=79 velocity=0 time=29
the msg is note_on channel=0 note=79 velocity=100 time=0
the msg is note_off channel=0 note=79 velocity=0 time=12
the msg is note_on channel=0 note=79 velocity=100 time=0
the msg is note_off channel=0 note=76 velocity=0 time=8
the msg is note_on channel=0 note=76 velocity=100 time=0
the msg is note_off channel=0 note=74 velocity=0 time=17
the msg is note_on channel=0 note=74 velocity=100 time=0
the msg is <meta message end_of_track time=51>
the msg is <meta message track_name name='Piano' time=0>
the msg is program_change channel=0 program=0 time=0
the msg is note_off channel=0 note=72 velocity=0 time=0
the msg is pitchwheel channel=0 pitch=0 time=0
the msg is program_change channel=0 program=0 time=0
the msg is <meta message set_tempo tempo=500000 time=0>
the msg is <meta message time_signature numerator=4 denominator=4 clocks_per_click=24 notated_32nd_notes_per_beat=8 time=0>
the msg is note_on channel=0 note=72 velocity=100 time=0
the msg is note_off channel=0 note=74 velocity=0 time=34
the msg is note_on channel=0 note=74 velocity=100 time=0
the msg is note_off channel=0 note=74 velocity=0 time=17
the msg is note_on channel=0 note=74 velocity=100 time=0
the msg is note_off channel=0 note=74 velocity=0 time=34
the msg is note_on channel=0 note=74 velocity=100 time=0
the msg is note_off channel=0 note=74 velocity=0 time=17
the msg is note_on channel=0 note=74 velocity=100 time=0
the msg is note_off channel=0 note=76 velocity=0 time=34
the msg is note_on channel=0 note=76 velocity=100 time=0
the msg is note_off channel=0 note=79 velocity=0 time=17
the msg is note_on channel=0 note=79 velocity=100 time=0
the msg is note_off channel=0 note=79 velocity=0 time=17
the msg is note_on channel=0 note=79 velocity=100 time=0
the msg is note_off channel=0 note=76 velocity=0 time=17
the msg is note_on channel=0 note=76 velocity=100 time=0
the msg is note_off channel=0 note=74 velocity=0 time=4
the msg is note_on channel=0 note=74 velocity=100 time=0
the msg is note_off channel=0 note=72 velocity=0 time=12
the msg is note_on channel=0 note=72 velocity=100 time=0
the msg is note_off channel=0 note=72 velocity=0 time=89
the msg is note_on channel=0 note=72 velocity=100 time=0
the msg is note_off channel=0 note=72 velocity=0 time=12
the msg is note_on channel=0 note=72 velocity=100 time=0
the msg is note_off channel=0 note=74 velocity=0 time=25
the msg is note_on channel=0 note=74 velocity=100 time=0
the msg is note_off channel=0 note=74 velocity=0 time=25
the msg is note_on channel=0 note=74 velocity=100 time=0
the msg is note_off channel=0 note=74 velocity=0 time=12
the msg is note_on channel=0 note=74 velocity=100 time=0
the msg is note_off channel=0 note=76 velocity=0 time=25
the msg is note_on channel=0 note=76 velocity=100 time=0
the msg is note_off channel=0 note=79 velocity=0 time=25
the msg is note_on channel=0 note=79 velocity=100 time=0
the msg is note_off channel=0 note=79 velocity=0 time=12
the msg is note_on channel=0 note=79 velocity=100 time=0
the msg is note_off channel=0 note=76 velocity=0 time=12
the msg is note_on channel=0 note=76 velocity=100 time=0
the msg is note_off channel=0 note=74 velocity=0 time=12
the msg is note_on channel=0 note=74 velocity=100 time=0
the msg is note_off channel=0 note=72 velocity=0 time=12
the msg is note_on channel=0 note=72 velocity=100 time=0
the msg is note_off channel=0 note=74 velocity=0 time=25
the msg is note_on channel=0 note=74 velocity=100 time=0
the msg is note_off channel=0 note=76 velocity=0 time=25
the msg is note_on channel=0 note=76 velocity=100 time=0
the msg is note_off channel=0 note=79 velocity=0 time=25
the msg is note_on channel=0 note=79 velocity=100 time=0
the msg is note_off channel=0 note=79 velocity=0 time=12
the msg is note_on channel=0 note=79 velocity=100 time=0
the msg is note_off channel=0 note=76 velocity=0 time=12
the msg is note_on channel=0 note=76 velocity=100 time=0
the msg is note_off channel=0 note=74 velocity=0 time=12
the msg is note_on channel=0 note=74 velocity=100 time=0
the msg is note_off channel=0 note=72 velocity=0 time=12
the msg is note_on channel=0 note=72 velocity=100 time=0
the msg is note_off channel=0 note=74 velocity=0 time=25
the msg is note_on channel=0 note=74 velocity=100 time=0
the msg is note_off channel=0 note=74 velocity=0 time=12
the msg is note_on channel=0 note=74 velocity=100 time=0
the msg is note_off channel=0 note=74 velocity=0 time=12
the msg is note_on channel=0 note=74 velocity=100 time=0
the msg is note_off channel=0 note=74 velocity=0 time=25
the msg is note_on channel=0 note=74 velocity=100 time=0
the msg is note_off channel=0 note=74 velocity=0 time=25
the msg is note_on channel=0 note=74 velocity=100 time=0
the msg is note_off channel=0 note=76 velocity=0 time=25
the msg is note_on channel=0 note=76 velocity=100 time=0
the msg is note_off channel=0 note=79 velocity=0 time=25
the msg is note_on channel=0 note=79 velocity=100 time=0
the msg is note_off channel=0 note=79 velocity=0 time=12
the msg is note_on channel=0 note=79 velocity=100 time=0
the msg is note_off channel=0 note=76 velocity=0 time=12
the msg is note_on channel=0 note=76 velocity=100 time=0
the msg is note_off channel=0 note=74 velocity=0 time=12
the msg is note_on channel=0 note=74 velocity=100 time=0
the msg is note_off channel=0 note=72 velocity=0 time=12
the msg is note_on channel=0 note=72 velocity=100 time=0
the msg is note_off channel=0 note=72 velocity=0 time=81
the msg is note_on channel=0 note=72 velocity=100 time=0
the msg is note_off channel=0 note=72 velocity=0 time=8
the msg is note_on channel=0 note=72 velocity=100 time=0
the msg is note_off channel=0 note=74 velocity=0 time=25
the msg is note_on channel=0 note=74 velocity=100 time=0
the msg is note_off channel=0 note=74 velocity=0 time=25
the msg is note_on channel=0 note=74 velocity=100 time=0
the msg is note_off channel=0 note=74 velocity=0 time=25
the msg is note_on channel=0 note=74 velocity=100 time=0
the msg is note_off channel=0 note=74 velocity=0 time=25
the msg is note_on channel=0 note=74 velocity=100 time=0
the msg is note_off channel=0 note=74 velocity=0 time=25
the msg is note_on channel=0 note=74 velocity=100 time=0
the msg is note_off channel=0 note=74 velocity=0 time=25
the msg is note_on channel=0 note=74 velocity=100 time=0
the msg is note_off channel=0 note=76 velocity=0 time=25
the msg is note_on channel=0 note=76 velocity=100 time=0
the msg is note_off channel=0 note=79 velocity=0 time=25
the msg is note_on channel=0 note=79 velocity=100 time=0
the msg is note_off channel=0 note=79 velocity=0 time=12
the msg is note_on channel=0 note=79 velocity=100 time=0
the msg is note_off channel=0 note=76 velocity=0 time=12
the msg is note_on channel=0 note=76 velocity=100 time=0
the msg is note_off channel=0 note=74 velocity=0 time=17
the msg is note_on channel=0 note=74 velocity=100 time=0
the msg is note_off channel=0 note=72 velocity=0 time=8
the msg is note_on channel=0 note=72 velocity=100 time=0
the msg is note_off channel=0 note=72 velocity=0 time=25
the msg is note_on channel=0 note=72 velocity=100 time=0
the msg is note_off channel=0 note=72 velocity=0 time=25
the msg is note_on channel=0 note=72 velocity=100 time=0
the msg is note_off channel=0 note=72 velocity=0 time=12
the msg is note_on channel=0 note=72 velocity=100 time=0
the msg is note_off channel=0 note=72 velocity=0 time=29
the msg is note_on channel=0 note=72 velocity=100 time=0
the msg is note_off channel=0 note=72 velocity=0 time=8
the msg is note_on channel=0 note=72 velocity=100 time=0
the msg is note_off channel=0 note=72 velocity=0 time=25
the msg is note_on channel=0 note=72 velocity=100 time=0
the msg is note_off channel=0 note=72 velocity=0 time=12
the msg is note_on channel=0 note=72 velocity=100 time=0
the msg is note_off channel=0 note=72 velocity=0 time=12
the msg is note_on channel=0 note=72 velocity=100 time=0
the msg is note_off channel=0 note=72 velocity=0 time=12
the msg is note_on channel=0 note=72 velocity=100 time=0
the msg is note_off channel=0 note=76 velocity=0 time=12
the msg is note_on channel=0 note=76 velocity=100 time=0
the msg is note_off channel=0 note=79 velocity=0 time=25
the msg is note_on channel=0 note=79 velocity=100 time=0
the msg is note_off channel=0 note=79 velocity=0 time=12
the msg is note_on channel=0 note=79 velocity=100 time=0
the msg is note_off channel=0 note=76 velocity=0 time=12
the msg is note_on channel=0 note=76 velocity=100 time=0
the msg is note_off channel=0 note=74 velocity=0 time=12
the msg is note_on channel=0 note=74 velocity=100 time=0
the msg is note_off channel=0 note=72 velocity=0 time=12
the msg is note_on channel=0 note=72 velocity=100 time=0
the msg is note_off channel=0 note=72 velocity=0 time=76
the msg is note_on channel=0 note=72 velocity=100 time=0
the msg is note_off channel=0 note=72 velocity=0 time=12
the msg is note_on channel=0 note=72 velocity=100 time=0
the msg is note_off channel=0 note=72 velocity=0 time=12
the msg is note_on channel=0 note=72 velocity=100 time=0
the msg is note_off channel=0 note=72 velocity=0 time=8
the msg is note_on channel=0 note=72 velocity=100 time=0
the msg is note_off channel=0 note=72 velocity=0 time=17
the msg is note_on channel=0 note=72 velocity=100 time=0
the msg is note_off channel=0 note=72 velocity=0 time=12
the msg is note_on channel=0 note=72 velocity=100 time=0
the msg is note_off channel=0 note=72 velocity=0 time=12
the msg is note_on channel=0 note=72 velocity=100 time=0
the msg is note_off channel=0 note=76 velocity=0 time=8
the msg is note_on channel=0 note=76 velocity=100 time=0
the msg is note_off channel=0 note=79 velocity=0 time=29
the msg is note_on channel=0 note=79 velocity=100 time=0
the msg is note_off channel=0 note=79 velocity=0 time=12
the msg is note_on channel=0 note=79 velocity=100 time=0
the msg is note_off channel=0 note=76 velocity=0 time=8
the msg is note_on channel=0 note=76 velocity=100 time=0
the msg is note_off channel=0 note=74 velocity=0 time=17
the msg is note_on channel=0 note=74 velocity=100 time=0
the msg is <meta message end_of_track time=51>
the msg is <meta message track_name name='Piano' time=0>
the msg is program_change channel=0 program=0 time=0
the msg is note_off channel=0 note=72 velocity=0 time=0
the msg is pitchwheel channel=0 pitch=0 time=0
the msg is program_change channel=0 program=0 time=0
the msg is <meta message set_tempo tempo=500000 time=0>
the msg is <meta message time_signature numerator=4 denominator=4 clocks_per_click=24 notated_32nd_notes_per_beat=8 time=0>
the msg is note_on channel=0 note=72 velocity=100 time=0
the msg is note_off channel=0 note=74 velocity=0 time=34
the msg is note_on channel=0 note=74 velocity=100 time=0
the msg is note_off channel=0 note=74 velocity=0 time=17
the msg is note_on channel=0 note=74 velocity=100 time=0
the msg is note_off channel=0 note=74 velocity=0 time=34
the msg is note_on channel=0 note=74 velocity=100 time=0
the msg is note_off channel=0 note=74 velocity=0 time=17
the msg is note_on channel=0 note=74 velocity=100 time=0
the msg is note_off channel=0 note=76 velocity=0 time=34
the msg is note_on channel=0 note=76 velocity=100 time=0
the msg is note_off channel=0 note=79 velocity=0 time=17
the msg is note_on channel=0 note=79 velocity=100 time=0
the msg is note_off channel=0 note=79 velocity=0 time=17
the msg is note_on channel=0 note=79 velocity=100 time=0
the msg is note_off channel=0 note=76 velocity=0 time=17
the msg is note_on channel=0 note=76 velocity=100 time=0
the msg is note_off channel=0 note=74 velocity=0 time=4
the msg is note_on channel=0 note=74 velocity=100 time=0
the msg is note_off channel=0 note=72 velocity=0 time=12
the msg is note_on channel=0 note=72 velocity=100 time=0
the msg is note_off channel=0 note=72 velocity=0 time=89
the msg is note_on channel=0 note=72 velocity=100 time=0
the msg is note_off channel=0 note=72 velocity=0 time=12
the msg is note_on channel=0 note=72 velocity=100 time=0
the msg is note_off channel=0 note=74 velocity=0 time=25
the msg is note_on channel=0 note=74 velocity=100 time=0
the msg is note_off channel=0 note=74 velocity=0 time=25
the msg is note_on channel=0 note=74 velocity=100 time=0
the msg is note_off channel=0 note=74 velocity=0 time=12
the msg is note_on channel=0 note=74 velocity=100 time=0
the msg is note_off channel=0 note=76 velocity=0 time=25
the msg is note_on channel=0 note=76 velocity=100 time=0
the msg is note_off channel=0 note=79 velocity=0 time=25
the msg is note_on channel=0 note=79 velocity=100 time=0
the msg is note_off channel=0 note=79 velocity=0 time=12
the msg is note_on channel=0 note=79 velocity=100 time=0
the msg is note_off channel=0 note=76 velocity=0 time=12
the msg is note_on channel=0 note=76 velocity=100 time=0
the msg is note_off channel=0 note=74 velocity=0 time=12
the msg is note_on channel=0 note=74 velocity=100 time=0
the msg is note_off channel=0 note=72 velocity=0 time=12
the msg is note_on channel=0 note=72 velocity=100 time=0
the msg is note_off channel=0 note=74 velocity=0 time=25
the msg is note_on channel=0 note=74 velocity=100 time=0
the msg is note_off channel=0 note=76 velocity=0 time=25
the msg is note_on channel=0 note=76 velocity=100 time=0
the msg is note_off channel=0 note=79 velocity=0 time=25
the msg is note_on channel=0 note=79 velocity=100 time=0
the msg is note_off channel=0 note=79 velocity=0 time=12
the msg is note_on channel=0 note=79 velocity=100 time=0
the msg is note_off channel=0 note=76 velocity=0 time=12
the msg is note_on channel=0 note=76 velocity=100 time=0
the msg is note_off channel=0 note=74 velocity=0 time=12
the msg is note_on channel=0 note=74 velocity=100 time=0
the msg is note_off channel=0 note=72 velocity=0 time=12
the msg is note_on channel=0 note=72 velocity=100 time=0
the msg is note_off channel=0 note=74 velocity=0 time=25
the msg is note_on channel=0 note=74 velocity=100 time=0
the msg is note_off channel=0 note=74 velocity=0 time=12
the msg is note_on channel=0 note=74 velocity=100 time=0
the msg is note_off channel=0 note=74 velocity=0 time=12
the msg is note_on channel=0 note=74 velocity=100 time=0
the msg is note_off channel=0 note=74 velocity=0 time=25
the msg is note_on channel=0 note=74 velocity=100 time=0
the msg is note_off channel=0 note=74 velocity=0 time=25
the msg is note_on channel=0 note=74 velocity=100 time=0
the msg is note_off channel=0 note=76 velocity=0 time=25
the msg is note_on channel=0 note=76 velocity=100 time=0
the msg is note_off channel=0 note=79 velocity=0 time=25
the msg is note_on channel=0 note=79 velocity=100 time=0
the msg is note_off channel=0 note=79 velocity=0 time=12
the msg is note_on channel=0 note=79 velocity=100 time=0
the msg is note_off channel=0 note=76 velocity=0 time=12
the msg is note_on channel=0 note=76 velocity=100 time=0
the msg is note_off channel=0 note=74 velocity=0 time=12
the msg is note_on channel=0 note=74 velocity=100 time=0
the msg is note_off channel=0 note=72 velocity=0 time=12
the msg is note_on channel=0 note=72 velocity=100 time=0
the msg is note_off channel=0 note=72 velocity=0 time=81
the msg is note_on channel=0 note=72 velocity=100 time=0
the msg is note_off channel=0 note=72 velocity=0 time=8
the msg is note_on channel=0 note=72 velocity=100 time=0
the msg is note_off channel=0 note=74 velocity=0 time=25
the msg is note_on channel=0 note=74 velocity=100 time=0
the msg is note_off channel=0 note=74 velocity=0 time=25
the msg is note_on channel=0 note=74 velocity=100 time=0
the msg is note_off channel=0 note=74 velocity=0 time=25
the msg is note_on channel=0 note=74 velocity=100 time=0
the msg is note_off channel=0 note=74 velocity=0 time=25
the msg is note_on channel=0 note=74 velocity=100 time=0
the msg is note_off channel=0 note=74 velocity=0 time=25
the msg is note_on channel=0 note=74 velocity=100 time=0
the msg is note_off channel=0 note=74 velocity=0 time=25
the msg is note_on channel=0 note=74 velocity=100 time=0
the msg is note_off channel=0 note=76 velocity=0 time=25
the msg is note_on channel=0 note=76 velocity=100 time=0
the msg is note_off channel=0 note=79 velocity=0 time=25
the msg is note_on channel=0 note=79 velocity=100 time=0
the msg is note_off channel=0 note=79 velocity=0 time=12
the msg is note_on channel=0 note=79 velocity=100 time=0
the msg is note_off channel=0 note=76 velocity=0 time=12
the msg is note_on channel=0 note=76 velocity=100 time=0
the msg is note_off channel=0 note=74 velocity=0 time=17
the msg is note_on channel=0 note=74 velocity=100 time=0
the msg is note_off channel=0 note=72 velocity=0 time=8
the msg is note_on channel=0 note=72 velocity=100 time=0
the msg is note_off channel=0 note=72 velocity=0 time=25
the msg is note_on channel=0 note=72 velocity=100 time=0
the msg is note_off channel=0 note=72 velocity=0 time=25
the msg is note_on channel=0 note=72 velocity=100 time=0
the msg is note_off channel=0 note=72 velocity=0 time=12
the msg is note_on channel=0 note=72 velocity=100 time=0
the msg is note_off channel=0 note=72 velocity=0 time=29
the msg is note_on channel=0 note=72 velocity=100 time=0
the msg is note_off channel=0 note=72 velocity=0 time=8
the msg is note_on channel=0 note=72 velocity=100 time=0
the msg is note_off channel=0 note=72 velocity=0 time=25
the msg is note_on channel=0 note=72 velocity=100 time=0
the msg is note_off channel=0 note=72 velocity=0 time=12
the msg is note_on channel=0 note=72 velocity=100 time=0
the msg is note_off channel=0 note=72 velocity=0 time=12
the msg is note_on channel=0 note=72 velocity=100 time=0
the msg is note_off channel=0 note=72 velocity=0 time=12
the msg is note_on channel=0 note=72 velocity=100 time=0
the msg is note_off channel=0 note=76 velocity=0 time=12
the msg is note_on channel=0 note=76 velocity=100 time=0
the msg is note_off channel=0 note=79 velocity=0 time=25
the msg is note_on channel=0 note=79 velocity=100 time=0
the msg is note_off channel=0 note=79 velocity=0 time=12
the msg is note_on channel=0 note=79 velocity=100 time=0
the msg is note_off channel=0 note=76 velocity=0 time=12
the msg is note_on channel=0 note=76 velocity=100 time=0
the msg is note_off channel=0 note=74 velocity=0 time=12
the msg is note_on channel=0 note=74 velocity=100 time=0
the msg is note_off channel=0 note=72 velocity=0 time=12
the msg is note_on channel=0 note=72 velocity=100 time=0
the msg is note_off channel=0 note=72 velocity=0 time=76
the msg is note_on channel=0 note=72 velocity=100 time=0
the msg is note_off channel=0 note=72 velocity=0 time=12
the msg is note_on channel=0 note=72 velocity=100 time=0
the msg is note_off channel=0 note=72 velocity=0 time=12
the msg is note_on channel=0 note=72 velocity=100 time=0
the msg is note_off channel=0 note=72 velocity=0 time=8
the msg is note_on channel=0 note=72 velocity=100 time=0
the msg is note_off channel=0 note=72 velocity=0 time=17
the msg is note_on channel=0 note=72 velocity=100 time=0
the msg is note_off channel=0 note=72 velocity=0 time=12
the msg is note_on channel=0 note=72 velocity=100 time=0
the msg is note_off channel=0 note=72 velocity=0 time=12
the msg is note_on channel=0 note=72 velocity=100 time=0
the msg is note_off channel=0 note=76 velocity=0 time=8
the msg is note_on channel=0 note=76 velocity=100 time=0
the msg is note_off channel=0 note=79 velocity=0 time=29
the msg is note_on channel=0 note=79 velocity=100 time=0
the msg is note_off channel=0 note=79 velocity=0 time=12
the msg is note_on channel=0 note=79 velocity=100 time=0
the msg is note_off channel=0 note=76 velocity=0 time=8
the msg is note_on channel=0 note=76 velocity=100 time=0
the msg is note_off channel=0 note=74 velocity=0 time=17
the msg is note_on channel=0 note=74 velocity=100 time=0
the msg is <meta message end_of_track time=51>
the msg is <meta message track_name name='Piano' time=0>
the msg is program_change channel=0 program=0 time=0
the msg is note_off channel=0 note=72 velocity=0 time=0
the msg is pitchwheel channel=0 pitch=0 time=0
the msg is program_change channel=0 program=0 time=0
the msg is <meta message set_tempo tempo=500000 time=0>
the msg is <meta message time_signature numerator=4 denominator=4 clocks_per_click=24 notated_32nd_notes_per_beat=8 time=0>
the msg is note_on channel=0 note=72 velocity=100 time=0
the msg is note_off channel=0 note=74 velocity=0 time=34
the msg is note_on channel=0 note=74 velocity=100 time=0
the msg is note_off channel=0 note=74 velocity=0 time=17
the msg is note_on channel=0 note=74 velocity=100 time=0
the msg is note_off channel=0 note=74 velocity=0 time=34
the msg is note_on channel=0 note=74 velocity=100 time=0
the msg is note_off channel=0 note=74 velocity=0 time=17
the msg is note_on channel=0 note=74 velocity=100 time=0
the msg is note_off channel=0 note=76 velocity=0 time=34
the msg is note_on channel=0 note=76 velocity=100 time=0
the msg is note_off channel=0 note=79 velocity=0 time=17
the msg is note_on channel=0 note=79 velocity=100 time=0
the msg is note_off channel=0 note=79 velocity=0 time=17
the msg is note_on channel=0 note=79 velocity=100 time=0
the msg is note_off channel=0 note=76 velocity=0 time=17
the msg is note_on channel=0 note=76 velocity=100 time=0
the msg is note_off channel=0 note=74 velocity=0 time=4
the msg is note_on channel=0 note=74 velocity=100 time=0
the msg is note_off channel=0 note=72 velocity=0 time=12
the msg is note_on channel=0 note=72 velocity=100 time=0
the msg is note_off channel=0 note=72 velocity=0 time=89
the msg is note_on channel=0 note=72 velocity=100 time=0
the msg is note_off channel=0 note=72 velocity=0 time=12
the msg is note_on channel=0 note=72 velocity=100 time=0
the msg is note_off channel=0 note=74 velocity=0 time=25
the msg is note_on channel=0 note=74 velocity=100 time=0
the msg is note_off channel=0 note=74 velocity=0 time=25
the msg is note_on channel=0 note=74 velocity=100 time=0
the msg is note_off channel=0 note=74 velocity=0 time=12
the msg is note_on channel=0 note=74 velocity=100 time=0
the msg is note_off channel=0 note=76 velocity=0 time=25
the msg is note_on channel=0 note=76 velocity=100 time=0
the msg is note_off channel=0 note=79 velocity=0 time=25
the msg is note_on channel=0 note=79 velocity=100 time=0
the msg is note_off channel=0 note=79 velocity=0 time=12
the msg is note_on channel=0 note=79 velocity=100 time=0
the msg is note_off channel=0 note=76 velocity=0 time=12
the msg is note_on channel=0 note=76 velocity=100 time=0
the msg is note_off channel=0 note=74 velocity=0 time=12
the msg is note_on channel=0 note=74 velocity=100 time=0
the msg is note_off channel=0 note=72 velocity=0 time=12
the msg is note_on channel=0 note=72 velocity=100 time=0
the msg is note_off channel=0 note=74 velocity=0 time=25
the msg is note_on channel=0 note=74 velocity=100 time=0
the msg is note_off channel=0 note=76 velocity=0 time=25
the msg is note_on channel=0 note=76 velocity=100 time=0
the msg is note_off channel=0 note=79 velocity=0 time=25
the msg is note_on channel=0 note=79 velocity=100 time=0
the msg is note_off channel=0 note=79 velocity=0 time=12
the msg is note_on channel=0 note=79 velocity=100 time=0
the msg is note_off channel=0 note=76 velocity=0 time=12
the msg is note_on channel=0 note=76 velocity=100 time=0
the msg is note_off channel=0 note=74 velocity=0 time=12
the msg is note_on channel=0 note=74 velocity=100 time=0
the msg is note_off channel=0 note=72 velocity=0 time=12
the msg is note_on channel=0 note=72 velocity=100 time=0
the msg is note_off channel=0 note=74 velocity=0 time=25
the msg is note_on channel=0 note=74 velocity=100 time=0
the msg is note_off channel=0 note=74 velocity=0 time=12
the msg is note_on channel=0 note=74 velocity=100 time=0
the msg is note_off channel=0 note=74 velocity=0 time=12
the msg is note_on channel=0 note=74 velocity=100 time=0
the msg is note_off channel=0 note=74 velocity=0 time=25
the msg is note_on channel=0 note=74 velocity=100 time=0
the msg is note_off channel=0 note=74 velocity=0 time=25
the msg is note_on channel=0 note=74 velocity=100 time=0
the msg is note_off channel=0 note=76 velocity=0 time=25
the msg is note_on channel=0 note=76 velocity=100 time=0
the msg is note_off channel=0 note=79 velocity=0 time=25
the msg is note_on channel=0 note=79 velocity=100 time=0
the msg is note_off channel=0 note=79 velocity=0 time=12
the msg is note_on channel=0 note=79 velocity=100 time=0
the msg is note_off channel=0 note=76 velocity=0 time=12
the msg is note_on channel=0 note=76 velocity=100 time=0
the msg is note_off channel=0 note=74 velocity=0 time=12
the msg is note_on channel=0 note=74 velocity=100 time=0
the msg is note_off channel=0 note=72 velocity=0 time=12
the msg is note_on channel=0 note=72 velocity=100 time=0
the msg is note_off channel=0 note=72 velocity=0 time=81
the msg is note_on channel=0 note=72 velocity=100 time=0
the msg is note_off channel=0 note=72 velocity=0 time=8
the msg is note_on channel=0 note=72 velocity=100 time=0
the msg is note_off channel=0 note=74 velocity=0 time=25
the msg is note_on channel=0 note=74 velocity=100 time=0
the msg is note_off channel=0 note=74 velocity=0 time=25
the msg is note_on channel=0 note=74 velocity=100 time=0
the msg is note_off channel=0 note=74 velocity=0 time=25
the msg is note_on channel=0 note=74 velocity=100 time=0
the msg is note_off channel=0 note=74 velocity=0 time=25
the msg is note_on channel=0 note=74 velocity=100 time=0
the msg is note_off channel=0 note=74 velocity=0 time=25
the msg is note_on channel=0 note=74 velocity=100 time=0
the msg is note_off channel=0 note=74 velocity=0 time=25
the msg is note_on channel=0 note=74 velocity=100 time=0
the msg is note_off channel=0 note=76 velocity=0 time=25
the msg is note_on channel=0 note=76 velocity=100 time=0
the msg is note_off channel=0 note=79 velocity=0 time=25
the msg is note_on channel=0 note=79 velocity=100 time=0
the msg is note_off channel=0 note=79 velocity=0 time=12
the msg is note_on channel=0 note=79 velocity=100 time=0
the msg is note_off channel=0 note=76 velocity=0 time=12
the msg is note_on channel=0 note=76 velocity=100 time=0
the msg is note_off channel=0 note=74 velocity=0 time=17
the msg is note_on channel=0 note=74 velocity=100 time=0
the msg is note_off channel=0 note=72 velocity=0 time=8
the msg is note_on channel=0 note=72 velocity=100 time=0
the msg is note_off channel=0 note=72 velocity=0 time=25
the msg is note_on channel=0 note=72 velocity=100 time=0
the msg is note_off channel=0 note=72 velocity=0 time=25
the msg is note_on channel=0 note=72 velocity=100 time=0
the msg is note_off channel=0 note=72 velocity=0 time=12
the msg is note_on channel=0 note=72 velocity=100 time=0
the msg is note_off channel=0 note=72 velocity=0 time=29
the msg is note_on channel=0 note=72 velocity=100 time=0
the msg is note_off channel=0 note=72 velocity=0 time=8
the msg is note_on channel=0 note=72 velocity=100 time=0
the msg is note_off channel=0 note=72 velocity=0 time=25
the msg is note_on channel=0 note=72 velocity=100 time=0
the msg is note_off channel=0 note=72 velocity=0 time=12
the msg is note_on channel=0 note=72 velocity=100 time=0
the msg is note_off channel=0 note=72 velocity=0 time=12
the msg is note_on channel=0 note=72 velocity=100 time=0
the msg is note_off channel=0 note=72 velocity=0 time=12
the msg is note_on channel=0 note=72 velocity=100 time=0
the msg is note_off channel=0 note=76 velocity=0 time=12
the msg is note_on channel=0 note=76 velocity=100 time=0
the msg is note_off channel=0 note=79 velocity=0 time=25
the msg is note_on channel=0 note=79 velocity=100 time=0
the msg is note_off channel=0 note=79 velocity=0 time=12
the msg is note_on channel=0 note=79 velocity=100 time=0
the msg is note_off channel=0 note=76 velocity=0 time=12
the msg is note_on channel=0 note=76 velocity=100 time=0
the msg is note_off channel=0 note=74 velocity=0 time=12
the msg is note_on channel=0 note=74 velocity=100 time=0
the msg is note_off channel=0 note=72 velocity=0 time=12
the msg is note_on channel=0 note=72 velocity=100 time=0
the msg is note_off channel=0 note=72 velocity=0 time=76
the msg is note_on channel=0 note=72 velocity=100 time=0
the msg is note_off channel=0 note=72 velocity=0 time=12
the msg is note_on channel=0 note=72 velocity=100 time=0
the msg is note_off channel=0 note=72 velocity=0 time=12
the msg is note_on channel=0 note=72 velocity=100 time=0
the msg is note_off channel=0 note=72 velocity=0 time=8
the msg is note_on channel=0 note=72 velocity=100 time=0
the msg is note_off channel=0 note=72 velocity=0 time=17
the msg is note_on channel=0 note=72 velocity=100 time=0
the msg is note_off channel=0 note=72 velocity=0 time=12
the msg is note_on channel=0 note=72 velocity=100 time=0
the msg is note_off channel=0 note=72 velocity=0 time=12
the msg is note_on channel=0 note=72 velocity=100 time=0
the msg is note_off channel=0 note=76 velocity=0 time=8
the msg is note_on channel=0 note=76 velocity=100 time=0
the msg is note_off channel=0 note=79 velocity=0 time=29
the msg is note_on channel=0 note=79 velocity=100 time=0
the msg is note_off channel=0 note=79 velocity=0 time=12
the msg is note_on channel=0 note=79 velocity=100 time=0
the msg is note_off channel=0 note=76 velocity=0 time=8
the msg is note_on channel=0 note=76 velocity=100 time=0
the msg is note_off channel=0 note=74 velocity=0 time=17
the msg is note_on channel=0 note=74 velocity=100 time=0
the msg is <meta message end_of_track time=51>
the msg is <meta message track_name name='Piano' time=0>
the msg is program_change channel=0 program=0 time=0
the msg is note_off channel=0 note=72 velocity=0 time=0
the msg is pitchwheel channel=0 pitch=0 time=0
the msg is program_change channel=0 program=0 time=0
the msg is <meta message set_tempo tempo=500000 time=0>
the msg is <meta message time_signature numerator=4 denominator=4 clocks_per_click=24 notated_32nd_notes_per_beat=8 time=0>
the msg is note_on channel=0 note=72 velocity=100 time=0
the msg is note_off channel=0 note=74 velocity=0 time=34
the msg is note_on channel=0 note=74 velocity=100 time=0
the msg is note_off channel=0 note=74 velocity=0 time=17
the msg is note_on channel=0 note=74 velocity=100 time=0
the msg is note_off channel=0 note=74 velocity=0 time=34
the msg is note_on channel=0 note=74 velocity=100 time=0
the msg is note_off channel=0 note=74 velocity=0 time=17
the msg is note_on channel=0 note=74 velocity=100 time=0
the msg is note_off channel=0 note=76 velocity=0 time=34
the msg is note_on channel=0 note=76 velocity=100 time=0
the msg is note_off channel=0 note=79 velocity=0 time=17
the msg is note_on channel=0 note=79 velocity=100 time=0
the msg is note_off channel=0 note=79 velocity=0 time=17
the msg is note_on channel=0 note=79 velocity=100 time=0
the msg is note_off channel=0 note=76 velocity=0 time=17
the msg is note_on channel=0 note=76 velocity=100 time=0
the msg is note_off channel=0 note=74 velocity=0 time=4
the msg is note_on channel=0 note=74 velocity=100 time=0
the msg is note_off channel=0 note=72 velocity=0 time=12
the msg is note_on channel=0 note=72 velocity=100 time=0
the msg is note_off channel=0 note=72 velocity=0 time=89
the msg is note_on channel=0 note=72 velocity=100 time=0
the msg is note_off channel=0 note=72 velocity=0 time=12
the msg is note_on channel=0 note=72 velocity=100 time=0
the msg is note_off channel=0 note=74 velocity=0 time=25
the msg is note_on channel=0 note=74 velocity=100 time=0
the msg is note_off channel=0 note=74 velocity=0 time=25
the msg is note_on channel=0 note=74 velocity=100 time=0
the msg is note_off channel=0 note=74 velocity=0 time=12
the msg is note_on channel=0 note=74 velocity=100 time=0
the msg is note_off channel=0 note=76 velocity=0 time=25
the msg is note_on channel=0 note=76 velocity=100 time=0
the msg is note_off channel=0 note=79 velocity=0 time=25
the msg is note_on channel=0 note=79 velocity=100 time=0
the msg is note_off channel=0 note=79 velocity=0 time=12
the msg is note_on channel=0 note=79 velocity=100 time=0
the msg is note_off channel=0 note=76 velocity=0 time=12
the msg is note_on channel=0 note=76 velocity=100 time=0
the msg is note_off channel=0 note=74 velocity=0 time=12
the msg is note_on channel=0 note=74 velocity=100 time=0
the msg is note_off channel=0 note=72 velocity=0 time=12
the msg is note_on channel=0 note=72 velocity=100 time=0
the msg is note_off channel=0 note=74 velocity=0 time=25
the msg is note_on channel=0 note=74 velocity=100 time=0
the msg is note_off channel=0 note=76 velocity=0 time=25
the msg is note_on channel=0 note=76 velocity=100 time=0
the msg is note_off channel=0 note=79 velocity=0 time=25
the msg is note_on channel=0 note=79 velocity=100 time=0
the msg is note_off channel=0 note=79 velocity=0 time=12
the msg is note_on channel=0 note=79 velocity=100 time=0
the msg is note_off channel=0 note=76 velocity=0 time=12
the msg is note_on channel=0 note=76 velocity=100 time=0
the msg is note_off channel=0 note=74 velocity=0 time=12
the msg is note_on channel=0 note=74 velocity=100 time=0
the msg is note_off channel=0 note=72 velocity=0 time=12
the msg is note_on channel=0 note=72 velocity=100 time=0
the msg is note_off channel=0 note=74 velocity=0 time=25
the msg is note_on channel=0 note=74 velocity=100 time=0
the msg is note_off channel=0 note=74 velocity=0 time=12
the msg is note_on channel=0 note=74 velocity=100 time=0
the msg is note_off channel=0 note=74 velocity=0 time=12
the msg is note_on channel=0 note=74 velocity=100 time=0
the msg is note_off channel=0 note=74 velocity=0 time=25
the msg is note_on channel=0 note=74 velocity=100 time=0
the msg is note_off channel=0 note=74 velocity=0 time=25
the msg is note_on channel=0 note=74 velocity=100 time=0
the msg is note_off channel=0 note=76 velocity=0 time=25
the msg is note_on channel=0 note=76 velocity=100 time=0
the msg is note_off channel=0 note=79 velocity=0 time=25
the msg is note_on channel=0 note=79 velocity=100 time=0
the msg is note_off channel=0 note=79 velocity=0 time=12
the msg is note_on channel=0 note=79 velocity=100 time=0
the msg is note_off channel=0 note=76 velocity=0 time=12
the msg is note_on channel=0 note=76 velocity=100 time=0
the msg is note_off channel=0 note=74 velocity=0 time=12
the msg is note_on channel=0 note=74 velocity=100 time=0
the msg is note_off channel=0 note=72 velocity=0 time=12
the msg is note_on channel=0 note=72 velocity=100 time=0
the msg is note_off channel=0 note=72 velocity=0 time=81
the msg is note_on channel=0 note=72 velocity=100 time=0
the msg is note_off channel=0 note=72 velocity=0 time=8
the msg is note_on channel=0 note=72 velocity=100 time=0
the msg is note_off channel=0 note=74 velocity=0 time=25
the msg is note_on channel=0 note=74 velocity=100 time=0
the msg is note_off channel=0 note=74 velocity=0 time=25
the msg is note_on channel=0 note=74 velocity=100 time=0
the msg is note_off channel=0 note=74 velocity=0 time=25
the msg is note_on channel=0 note=74 velocity=100 time=0
the msg is note_off channel=0 note=74 velocity=0 time=25
the msg is note_on channel=0 note=74 velocity=100 time=0
the msg is note_off channel=0 note=74 velocity=0 time=25
the msg is note_on channel=0 note=74 velocity=100 time=0
the msg is note_off channel=0 note=74 velocity=0 time=25
the msg is note_on channel=0 note=74 velocity=100 time=0
the msg is note_off channel=0 note=76 velocity=0 time=25
the msg is note_on channel=0 note=76 velocity=100 time=0
the msg is note_off channel=0 note=79 velocity=0 time=25
the msg is note_on channel=0 note=79 velocity=100 time=0
the msg is note_off channel=0 note=79 velocity=0 time=12
the msg is note_on channel=0 note=79 velocity=100 time=0
the msg is note_off channel=0 note=76 velocity=0 time=12
the msg is note_on channel=0 note=76 velocity=100 time=0
the msg is note_off channel=0 note=74 velocity=0 time=17
the msg is note_on channel=0 note=74 velocity=100 time=0
the msg is note_off channel=0 note=72 velocity=0 time=8
the msg is note_on channel=0 note=72 velocity=100 time=0
the msg is note_off channel=0 note=72 velocity=0 time=25
the msg is note_on channel=0 note=72 velocity=100 time=0
the msg is note_off channel=0 note=72 velocity=0 time=25
the msg is note_on channel=0 note=72 velocity=100 time=0
the msg is note_off channel=0 note=72 velocity=0 time=12
the msg is note_on channel=0 note=72 velocity=100 time=0
the msg is note_off channel=0 note=72 velocity=0 time=29
the msg is note_on channel=0 note=72 velocity=100 time=0
the msg is note_off channel=0 note=72 velocity=0 time=8
the msg is note_on channel=0 note=72 velocity=100 time=0
the msg is note_off channel=0 note=72 velocity=0 time=25
the msg is note_on channel=0 note=72 velocity=100 time=0
the msg is note_off channel=0 note=72 velocity=0 time=12
the msg is note_on channel=0 note=72 velocity=100 time=0
the msg is note_off channel=0 note=72 velocity=0 time=12
the msg is note_on channel=0 note=72 velocity=100 time=0
the msg is note_off channel=0 note=72 velocity=0 time=12
the msg is note_on channel=0 note=72 velocity=100 time=0
the msg is note_off channel=0 note=76 velocity=0 time=12
the msg is note_on channel=0 note=76 velocity=100 time=0
the msg is note_off channel=0 note=79 velocity=0 time=25
the msg is note_on channel=0 note=79 velocity=100 time=0
the msg is note_off channel=0 note=79 velocity=0 time=12
the msg is note_on channel=0 note=79 velocity=100 time=0
the msg is note_off channel=0 note=76 velocity=0 time=12
the msg is note_on channel=0 note=76 velocity=100 time=0
the msg is note_off channel=0 note=74 velocity=0 time=12
the msg is note_on channel=0 note=74 velocity=100 time=0
the msg is note_off channel=0 note=72 velocity=0 time=12
the msg is note_on channel=0 note=72 velocity=100 time=0
the msg is note_off channel=0 note=72 velocity=0 time=76
the msg is note_on channel=0 note=72 velocity=100 time=0
the msg is note_off channel=0 note=72 velocity=0 time=12
the msg is note_on channel=0 note=72 velocity=100 time=0
the msg is note_off channel=0 note=72 velocity=0 time=12
the msg is note_on channel=0 note=72 velocity=100 time=0
the msg is note_off channel=0 note=72 velocity=0 time=8
the msg is note_on channel=0 note=72 velocity=100 time=0
the msg is note_off channel=0 note=72 velocity=0 time=17
the msg is note_on channel=0 note=72 velocity=100 time=0
the msg is note_off channel=0 note=72 velocity=0 time=12
the msg is note_on channel=0 note=72 velocity=100 time=0
the msg is note_off channel=0 note=72 velocity=0 time=12
the msg is note_on channel=0 note=72 velocity=100 time=0
the msg is note_off channel=0 note=76 velocity=0 time=8
the msg is note_on channel=0 note=76 velocity=100 time=0
the msg is note_off channel=0 note=79 velocity=0 time=29
the msg is note_on channel=0 note=79 velocity=100 time=0
the msg is note_off channel=0 note=79 velocity=0 time=12
the msg is note_on channel=0 note=79 velocity=100 time=0
the msg is note_off channel=0 note=76 velocity=0 time=8
the msg is note_on channel=0 note=76 velocity=100 time=0
the msg is note_off channel=0 note=74 velocity=0 time=17
the msg is note_on channel=0 note=74 velocity=100 time=0
the msg is <meta message end_of_track time=51>
the msg is <meta message track_name name='Piano' time=0>
the msg is program_change channel=0 program=0 time=0
the msg is note_off channel=0 note=72 velocity=0 time=0
the msg is pitchwheel channel=0 pitch=0 time=0
the msg is program_change channel=0 program=0 time=0
the msg is <meta message set_tempo tempo=500000 time=0>
the msg is <meta message time_signature numerator=4 denominator=4 clocks_per_click=24 notated_32nd_notes_per_beat=8 time=0>
the msg is note_on channel=0 note=72 velocity=100 time=0
the msg is note_off channel=0 note=74 velocity=0 time=34
the msg is note_on channel=0 note=74 velocity=100 time=0
the msg is note_off channel=0 note=74 velocity=0 time=17
the msg is note_on channel=0 note=74 velocity=100 time=0
the msg is note_off channel=0 note=74 velocity=0 time=34
the msg is note_on channel=0 note=74 velocity=100 time=0
the msg is note_off channel=0 note=74 velocity=0 time=17
the msg is note_on channel=0 note=74 velocity=100 time=0
the msg is note_off channel=0 note=76 velocity=0 time=34
the msg is note_on channel=0 note=76 velocity=100 time=0
the msg is note_off channel=0 note=79 velocity=0 time=17
the msg is note_on channel=0 note=79 velocity=100 time=0
the msg is note_off channel=0 note=79 velocity=0 time=17
the msg is note_on channel=0 note=79 velocity=100 time=0
the msg is note_off channel=0 note=76 velocity=0 time=17
the msg is note_on channel=0 note=76 velocity=100 time=0
the msg is note_off channel=0 note=74 velocity=0 time=4
the msg is note_on channel=0 note=74 velocity=100 time=0
the msg is note_off channel=0 note=72 velocity=0 time=12
the msg is note_on channel=0 note=72 velocity=100 time=0
the msg is note_off channel=0 note=72 velocity=0 time=89
the msg is note_on channel=0 note=72 velocity=100 time=0
the msg is note_off channel=0 note=72 velocity=0 time=12
the msg is note_on channel=0 note=72 velocity=100 time=0
the msg is note_off channel=0 note=74 velocity=0 time=25
the msg is note_on channel=0 note=74 velocity=100 time=0
the msg is note_off channel=0 note=74 velocity=0 time=25
the msg is note_on channel=0 note=74 velocity=100 time=0
the msg is note_off channel=0 note=74 velocity=0 time=12
the msg is note_on channel=0 note=74 velocity=100 time=0
the msg is note_off channel=0 note=76 velocity=0 time=25
the msg is note_on channel=0 note=76 velocity=100 time=0
the msg is note_off channel=0 note=79 velocity=0 time=25
the msg is note_on channel=0 note=79 velocity=100 time=0
the msg is note_off channel=0 note=79 velocity=0 time=12
the msg is note_on channel=0 note=79 velocity=100 time=0
the msg is note_off channel=0 note=76 velocity=0 time=12
the msg is note_on channel=0 note=76 velocity=100 time=0
the msg is note_off channel=0 note=74 velocity=0 time=12
the msg is note_on channel=0 note=74 velocity=100 time=0
the msg is note_off channel=0 note=72 velocity=0 time=12
the msg is note_on channel=0 note=72 velocity=100 time=0
the msg is note_off channel=0 note=74 velocity=0 time=25
the msg is note_on channel=0 note=74 velocity=100 time=0
the msg is note_off channel=0 note=76 velocity=0 time=25
the msg is note_on channel=0 note=76 velocity=100 time=0
the msg is note_off channel=0 note=79 velocity=0 time=25
the msg is note_on channel=0 note=79 velocity=100 time=0
the msg is note_off channel=0 note=79 velocity=0 time=12
the msg is note_on channel=0 note=79 velocity=100 time=0
the msg is note_off channel=0 note=76 velocity=0 time=12
the msg is note_on channel=0 note=76 velocity=100 time=0
the msg is note_off channel=0 note=74 velocity=0 time=12
the msg is note_on channel=0 note=74 velocity=100 time=0
the msg is note_off channel=0 note=72 velocity=0 time=12
the msg is note_on channel=0 note=72 velocity=100 time=0
the msg is note_off channel=0 note=74 velocity=0 time=25
the msg is note_on channel=0 note=74 velocity=100 time=0
the msg is note_off channel=0 note=74 velocity=0 time=12
the msg is note_on channel=0 note=74 velocity=100 time=0
the msg is note_off channel=0 note=74 velocity=0 time=12
the msg is note_on channel=0 note=74 velocity=100 time=0
the msg is note_off channel=0 note=74 velocity=0 time=25
the msg is note_on channel=0 note=74 velocity=100 time=0
the msg is note_off channel=0 note=74 velocity=0 time=25
the msg is note_on channel=0 note=74 velocity=100 time=0
the msg is note_off channel=0 note=76 velocity=0 time=25
the msg is note_on channel=0 note=76 velocity=100 time=0
the msg is note_off channel=0 note=79 velocity=0 time=25
the msg is note_on channel=0 note=79 velocity=100 time=0
the msg is note_off channel=0 note=79 velocity=0 time=12
the msg is note_on channel=0 note=79 velocity=100 time=0
the msg is note_off channel=0 note=76 velocity=0 time=12
the msg is note_on channel=0 note=76 velocity=100 time=0
the msg is note_off channel=0 note=74 velocity=0 time=12
the msg is note_on channel=0 note=74 velocity=100 time=0
the msg is note_off channel=0 note=72 velocity=0 time=12
the msg is note_on channel=0 note=72 velocity=100 time=0
the msg is note_off channel=0 note=72 velocity=0 time=81
the msg is note_on channel=0 note=72 velocity=100 time=0
the msg is note_off channel=0 note=72 velocity=0 time=8
the msg is note_on channel=0 note=72 velocity=100 time=0
the msg is note_off channel=0 note=74 velocity=0 time=25
the msg is note_on channel=0 note=74 velocity=100 time=0
the msg is note_off channel=0 note=74 velocity=0 time=25
the msg is note_on channel=0 note=74 velocity=100 time=0
the msg is note_off channel=0 note=74 velocity=0 time=25
the msg is note_on channel=0 note=74 velocity=100 time=0
the msg is note_off channel=0 note=74 velocity=0 time=25
the msg is note_on channel=0 note=74 velocity=100 time=0
the msg is note_off channel=0 note=74 velocity=0 time=25
the msg is note_on channel=0 note=74 velocity=100 time=0
the msg is note_off channel=0 note=74 velocity=0 time=25
the msg is note_on channel=0 note=74 velocity=100 time=0
the msg is note_off channel=0 note=76 velocity=0 time=25
the msg is note_on channel=0 note=76 velocity=100 time=0
the msg is note_off channel=0 note=79 velocity=0 time=25
the msg is note_on channel=0 note=79 velocity=100 time=0
the msg is note_off channel=0 note=79 velocity=0 time=12
the msg is note_on channel=0 note=79 velocity=100 time=0
the msg is note_off channel=0 note=76 velocity=0 time=12
the msg is note_on channel=0 note=76 velocity=100 time=0
the msg is note_off channel=0 note=74 velocity=0 time=17
the msg is note_on channel=0 note=74 velocity=100 time=0
the msg is note_off channel=0 note=72 velocity=0 time=8
the msg is note_on channel=0 note=72 velocity=100 time=0
the msg is note_off channel=0 note=72 velocity=0 time=25
the msg is note_on channel=0 note=72 velocity=100 time=0
the msg is note_off channel=0 note=72 velocity=0 time=25
the msg is note_on channel=0 note=72 velocity=100 time=0
the msg is note_off channel=0 note=72 velocity=0 time=12
the msg is note_on channel=0 note=72 velocity=100 time=0
the msg is note_off channel=0 note=72 velocity=0 time=29
the msg is note_on channel=0 note=72 velocity=100 time=0
the msg is note_off channel=0 note=72 velocity=0 time=8
the msg is note_on channel=0 note=72 velocity=100 time=0
the msg is note_off channel=0 note=72 velocity=0 time=25
the msg is note_on channel=0 note=72 velocity=100 time=0
the msg is note_off channel=0 note=72 velocity=0 time=12
the msg is note_on channel=0 note=72 velocity=100 time=0
the msg is note_off channel=0 note=72 velocity=0 time=12
the msg is note_on channel=0 note=72 velocity=100 time=0
the msg is note_off channel=0 note=72 velocity=0 time=12
the msg is note_on channel=0 note=72 velocity=100 time=0
the msg is note_off channel=0 note=76 velocity=0 time=12
the msg is note_on channel=0 note=76 velocity=100 time=0
the msg is note_off channel=0 note=79 velocity=0 time=25
the msg is note_on channel=0 note=79 velocity=100 time=0
the msg is note_off channel=0 note=79 velocity=0 time=12
the msg is note_on channel=0 note=79 velocity=100 time=0
the msg is note_off channel=0 note=76 velocity=0 time=12
the msg is note_on channel=0 note=76 velocity=100 time=0
the msg is note_off channel=0 note=74 velocity=0 time=12
the msg is note_on channel=0 note=74 velocity=100 time=0
the msg is note_off channel=0 note=72 velocity=0 time=12
the msg is note_on channel=0 note=72 velocity=100 time=0
the msg is note_off channel=0 note=72 velocity=0 time=76
the msg is note_on channel=0 note=72 velocity=100 time=0
the msg is note_off channel=0 note=72 velocity=0 time=12
the msg is note_on channel=0 note=72 velocity=100 time=0
the msg is note_off channel=0 note=72 velocity=0 time=12
the msg is note_on channel=0 note=72 velocity=100 time=0
the msg is note_off channel=0 note=72 velocity=0 time=8
the msg is note_on channel=0 note=72 velocity=100 time=0
the msg is note_off channel=0 note=72 velocity=0 time=17
the msg is note_on channel=0 note=72 velocity=100 time=0
the msg is note_off channel=0 note=72 velocity=0 time=12
the msg is note_on channel=0 note=72 velocity=100 time=0
the msg is note_off channel=0 note=72 velocity=0 time=12
the msg is note_on channel=0 note=72 velocity=100 time=0
the msg is note_off channel=0 note=76 velocity=0 time=8
the msg is note_on channel=0 note=76 velocity=100 time=0
the msg is note_off channel=0 note=79 velocity=0 time=29
the msg is note_on channel=0 note=79 velocity=100 time=0
the msg is note_off channel=0 note=79 velocity=0 time=12
the msg is note_on channel=0 note=79 velocity=100 time=0
the msg is note_off channel=0 note=76 velocity=0 time=8
the msg is note_on channel=0 note=76 velocity=100 time=0
the msg is note_off channel=0 note=74 velocity=0 time=17
the msg is note_on channel=0 note=74 velocity=100 time=0
the msg is <meta message end_of_track time=51>
the msg is <meta message track_name name='Piano' time=0>
the msg is program_change channel=0 program=0 time=0
the msg is note_off channel=0 note=72 velocity=0 time=0
the msg is pitchwheel channel=0 pitch=0 time=0
the msg is program_change channel=0 program=0 time=0
the msg is <meta message set_tempo tempo=500000 time=0>
the msg is <meta message time_signature numerator=4 denominator=4 clocks_per_click=24 notated_32nd_notes_per_beat=8 time=0>
the msg is note_on channel=0 note=72 velocity=100 time=0
the msg is note_off channel=0 note=74 velocity=0 time=34
the msg is note_on channel=0 note=74 velocity=100 time=0
the msg is note_off channel=0 note=74 velocity=0 time=17
the msg is note_on channel=0 note=74 velocity=100 time=0
the msg is note_off channel=0 note=74 velocity=0 time=34
the msg is note_on channel=0 note=74 velocity=100 time=0
the msg is note_off channel=0 note=74 velocity=0 time=17
the msg is note_on channel=0 note=74 velocity=100 time=0
the msg is note_off channel=0 note=76 velocity=0 time=34
the msg is note_on channel=0 note=76 velocity=100 time=0
the msg is note_off channel=0 note=79 velocity=0 time=17
the msg is note_on channel=0 note=79 velocity=100 time=0
the msg is note_off channel=0 note=79 velocity=0 time=17
the msg is note_on channel=0 note=79 velocity=100 time=0
the msg is note_off channel=0 note=76 velocity=0 time=17
the msg is note_on channel=0 note=76 velocity=100 time=0
the msg is note_off channel=0 note=74 velocity=0 time=4
the msg is note_on channel=0 note=74 velocity=100 time=0
the msg is note_off channel=0 note=72 velocity=0 time=12
the msg is note_on channel=0 note=72 velocity=100 time=0
the msg is note_off channel=0 note=72 velocity=0 time=89
the msg is note_on channel=0 note=72 velocity=100 time=0
the msg is note_off channel=0 note=72 velocity=0 time=12
the msg is note_on channel=0 note=72 velocity=100 time=0
the msg is note_off channel=0 note=74 velocity=0 time=25
the msg is note_on channel=0 note=74 velocity=100 time=0
the msg is note_off channel=0 note=74 velocity=0 time=25
the msg is note_on channel=0 note=74 velocity=100 time=0
the msg is note_off channel=0 note=74 velocity=0 time=12
the msg is note_on channel=0 note=74 velocity=100 time=0
the msg is note_off channel=0 note=76 velocity=0 time=25
the msg is note_on channel=0 note=76 velocity=100 time=0
the msg is note_off channel=0 note=79 velocity=0 time=25
the msg is note_on channel=0 note=79 velocity=100 time=0
the msg is note_off channel=0 note=79 velocity=0 time=12
the msg is note_on channel=0 note=79 velocity=100 time=0
the msg is note_off channel=0 note=76 velocity=0 time=12
the msg is note_on channel=0 note=76 velocity=100 time=0
the msg is note_off channel=0 note=74 velocity=0 time=12
the msg is note_on channel=0 note=74 velocity=100 time=0
the msg is note_off channel=0 note=72 velocity=0 time=12
the msg is note_on channel=0 note=72 velocity=100 time=0
the msg is note_off channel=0 note=74 velocity=0 time=25
the msg is note_on channel=0 note=74 velocity=100 time=0
the msg is note_off channel=0 note=76 velocity=0 time=25
the msg is note_on channel=0 note=76 velocity=100 time=0
the msg is note_off channel=0 note=79 velocity=0 time=25
the msg is note_on channel=0 note=79 velocity=100 time=0
the msg is note_off channel=0 note=79 velocity=0 time=12
the msg is note_on channel=0 note=79 velocity=100 time=0
the msg is note_off channel=0 note=76 velocity=0 time=12
the msg is note_on channel=0 note=76 velocity=100 time=0
the msg is note_off channel=0 note=74 velocity=0 time=12
the msg is note_on channel=0 note=74 velocity=100 time=0
the msg is note_off channel=0 note=72 velocity=0 time=12
the msg is note_on channel=0 note=72 velocity=100 time=0
the msg is note_off channel=0 note=74 velocity=0 time=25
the msg is note_on channel=0 note=74 velocity=100 time=0
the msg is note_off channel=0 note=74 velocity=0 time=12
the msg is note_on channel=0 note=74 velocity=100 time=0
the msg is note_off channel=0 note=74 velocity=0 time=12
the msg is note_on channel=0 note=74 velocity=100 time=0
the msg is note_off channel=0 note=74 velocity=0 time=25
the msg is note_on channel=0 note=74 velocity=100 time=0
the msg is note_off channel=0 note=74 velocity=0 time=25
the msg is note_on channel=0 note=74 velocity=100 time=0
the msg is note_off channel=0 note=76 velocity=0 time=25
the msg is note_on channel=0 note=76 velocity=100 time=0
the msg is note_off channel=0 note=79 velocity=0 time=25
the msg is note_on channel=0 note=79 velocity=100 time=0
the msg is note_off channel=0 note=79 velocity=0 time=12
the msg is note_on channel=0 note=79 velocity=100 time=0
the msg is note_off channel=0 note=76 velocity=0 time=12
the msg is note_on channel=0 note=76 velocity=100 time=0
the msg is note_off channel=0 note=74 velocity=0 time=12
the msg is note_on channel=0 note=74 velocity=100 time=0
the msg is note_off channel=0 note=72 velocity=0 time=12
the msg is note_on channel=0 note=72 velocity=100 time=0
the msg is note_off channel=0 note=72 velocity=0 time=81
the msg is note_on channel=0 note=72 velocity=100 time=0
the msg is note_off channel=0 note=72 velocity=0 time=8
the msg is note_on channel=0 note=72 velocity=100 time=0
the msg is note_off channel=0 note=74 velocity=0 time=25
the msg is note_on channel=0 note=74 velocity=100 time=0
the msg is note_off channel=0 note=74 velocity=0 time=25
the msg is note_on channel=0 note=74 velocity=100 time=0
the msg is note_off channel=0 note=74 velocity=0 time=25
the msg is note_on channel=0 note=74 velocity=100 time=0
the msg is note_off channel=0 note=74 velocity=0 time=25
the msg is note_on channel=0 note=74 velocity=100 time=0
the msg is note_off channel=0 note=74 velocity=0 time=25
the msg is note_on channel=0 note=74 velocity=100 time=0
the msg is note_off channel=0 note=74 velocity=0 time=25
the msg is note_on channel=0 note=74 velocity=100 time=0
the msg is note_off channel=0 note=76 velocity=0 time=25
the msg is note_on channel=0 note=76 velocity=100 time=0
the msg is note_off channel=0 note=79 velocity=0 time=25
the msg is note_on channel=0 note=79 velocity=100 time=0
the msg is note_off channel=0 note=79 velocity=0 time=12
the msg is note_on channel=0 note=79 velocity=100 time=0
the msg is note_off channel=0 note=76 velocity=0 time=12
the msg is note_on channel=0 note=76 velocity=100 time=0
the msg is note_off channel=0 note=74 velocity=0 time=17
the msg is note_on channel=0 note=74 velocity=100 time=0
the msg is note_off channel=0 note=72 velocity=0 time=8
the msg is note_on channel=0 note=72 velocity=100 time=0
the msg is note_off channel=0 note=72 velocity=0 time=25
the msg is note_on channel=0 note=72 velocity=100 time=0
the msg is note_off channel=0 note=72 velocity=0 time=25
the msg is note_on channel=0 note=72 velocity=100 time=0
the msg is note_off channel=0 note=72 velocity=0 time=12
the msg is note_on channel=0 note=72 velocity=100 time=0
the msg is note_off channel=0 note=72 velocity=0 time=29
the msg is note_on channel=0 note=72 velocity=100 time=0
the msg is note_off channel=0 note=72 velocity=0 time=8
the msg is note_on channel=0 note=72 velocity=100 time=0
the msg is note_off channel=0 note=72 velocity=0 time=25
the msg is note_on channel=0 note=72 velocity=100 time=0
the msg is note_off channel=0 note=72 velocity=0 time=12
the msg is note_on channel=0 note=72 velocity=100 time=0
the msg is note_off channel=0 note=72 velocity=0 time=12
the msg is note_on channel=0 note=72 velocity=100 time=0
the msg is note_off channel=0 note=72 velocity=0 time=12
the msg is note_on channel=0 note=72 velocity=100 time=0
the msg is note_off channel=0 note=76 velocity=0 time=12
the msg is note_on channel=0 note=76 velocity=100 time=0
the msg is note_off channel=0 note=79 velocity=0 time=25
the msg is note_on channel=0 note=79 velocity=100 time=0
the msg is note_off channel=0 note=79 velocity=0 time=12
the msg is note_on channel=0 note=79 velocity=100 time=0
the msg is note_off channel=0 note=76 velocity=0 time=12
the msg is note_on channel=0 note=76 velocity=100 time=0
the msg is note_off channel=0 note=74 velocity=0 time=12
the msg is note_on channel=0 note=74 velocity=100 time=0
the msg is note_off channel=0 note=72 velocity=0 time=12
the msg is note_on channel=0 note=72 velocity=100 time=0
the msg is note_off channel=0 note=72 velocity=0 time=76
the msg is note_on channel=0 note=72 velocity=100 time=0
the msg is note_off channel=0 note=72 velocity=0 time=12
the msg is note_on channel=0 note=72 velocity=100 time=0
the msg is note_off channel=0 note=72 velocity=0 time=12
the msg is note_on channel=0 note=72 velocity=100 time=0
the msg is note_off channel=0 note=72 velocity=0 time=8
the msg is note_on channel=0 note=72 velocity=100 time=0
the msg is note_off channel=0 note=72 velocity=0 time=17
the msg is note_on channel=0 note=72 velocity=100 time=0
the msg is note_off channel=0 note=72 velocity=0 time=12
the msg is note_on channel=0 note=72 velocity=100 time=0
the msg is note_off channel=0 note=72 velocity=0 time=12
the msg is note_on channel=0 note=72 velocity=100 time=0
the msg is note_off channel=0 note=76 velocity=0 time=8
the msg is note_on channel=0 note=76 velocity=100 time=0
the msg is note_off channel=0 note=79 velocity=0 time=29
the msg is note_on channel=0 note=79 velocity=100 time=0
the msg is note_off channel=0 note=79 velocity=0 time=12
the msg is note_on channel=0 note=79 velocity=100 time=0
the msg is note_off channel=0 note=76 velocity=0 time=8
the msg is note_on channel=0 note=76 velocity=100 time=0
the msg is note_off channel=0 note=74 velocity=0 time=17
the msg is note_on channel=0 note=74 velocity=100 time=0
the msg is <meta message end_of_track time=51>
the msg is <meta message track_name name='Piano' time=0>
the msg is program_change channel=0 program=0 time=0
the msg is note_off channel=0 note=72 velocity=0 time=0
the msg is pitchwheel channel=0 pitch=0 time=0
the msg is program_change channel=0 program=0 time=0
the msg is <meta message set_tempo tempo=500000 time=0>
the msg is <meta message time_signature numerator=4 denominator=4 clocks_per_click=24 notated_32nd_notes_per_beat=8 time=0>
the msg is note_on channel=0 note=72 velocity=100 time=0
the msg is note_off channel=0 note=74 velocity=0 time=34
the msg is note_on channel=0 note=74 velocity=100 time=0
the msg is note_off channel=0 note=74 velocity=0 time=17
the msg is note_on channel=0 note=74 velocity=100 time=0
the msg is note_off channel=0 note=74 velocity=0 time=34
the msg is note_on channel=0 note=74 velocity=100 time=0
the msg is note_off channel=0 note=74 velocity=0 time=17
the msg is note_on channel=0 note=74 velocity=100 time=0
the msg is note_off channel=0 note=76 velocity=0 time=34
the msg is note_on channel=0 note=76 velocity=100 time=0
the msg is note_off channel=0 note=79 velocity=0 time=17
the msg is note_on channel=0 note=79 velocity=100 time=0
the msg is note_off channel=0 note=79 velocity=0 time=17
the msg is note_on channel=0 note=79 velocity=100 time=0
the msg is note_off channel=0 note=76 velocity=0 time=17
the msg is note_on channel=0 note=76 velocity=100 time=0
the msg is note_off channel=0 note=74 velocity=0 time=4
the msg is note_on channel=0 note=74 velocity=100 time=0
the msg is note_off channel=0 note=72 velocity=0 time=12
the msg is note_on channel=0 note=72 velocity=100 time=0
the msg is note_off channel=0 note=72 velocity=0 time=89
the msg is note_on channel=0 note=72 velocity=100 time=0
the msg is note_off channel=0 note=72 velocity=0 time=12
the msg is note_on channel=0 note=72 velocity=100 time=0
the msg is note_off channel=0 note=74 velocity=0 time=25
the msg is note_on channel=0 note=74 velocity=100 time=0
the msg is note_off channel=0 note=74 velocity=0 time=25
the msg is note_on channel=0 note=74 velocity=100 time=0
the msg is note_off channel=0 note=74 velocity=0 time=12
the msg is note_on channel=0 note=74 velocity=100 time=0
the msg is note_off channel=0 note=76 velocity=0 time=25
the msg is note_on channel=0 note=76 velocity=100 time=0
the msg is note_off channel=0 note=79 velocity=0 time=25
the msg is note_on channel=0 note=79 velocity=100 time=0
the msg is note_off channel=0 note=79 velocity=0 time=12
the msg is note_on channel=0 note=79 velocity=100 time=0
the msg is note_off channel=0 note=76 velocity=0 time=12
the msg is note_on channel=0 note=76 velocity=100 time=0
the msg is note_off channel=0 note=74 velocity=0 time=12
the msg is note_on channel=0 note=74 velocity=100 time=0
the msg is note_off channel=0 note=72 velocity=0 time=12
the msg is note_on channel=0 note=72 velocity=100 time=0
the msg is note_off channel=0 note=74 velocity=0 time=25
the msg is note_on channel=0 note=74 velocity=100 time=0
the msg is note_off channel=0 note=76 velocity=0 time=25
the msg is note_on channel=0 note=76 velocity=100 time=0
the msg is note_off channel=0 note=79 velocity=0 time=25
the msg is note_on channel=0 note=79 velocity=100 time=0
the msg is note_off channel=0 note=79 velocity=0 time=12
the msg is note_on channel=0 note=79 velocity=100 time=0
the msg is note_off channel=0 note=76 velocity=0 time=12
the msg is note_on channel=0 note=76 velocity=100 time=0
the msg is note_off channel=0 note=74 velocity=0 time=12
the msg is note_on channel=0 note=74 velocity=100 time=0
the msg is note_off channel=0 note=72 velocity=0 time=12
the msg is note_on channel=0 note=72 velocity=100 time=0
the msg is note_off channel=0 note=74 velocity=0 time=25
the msg is note_on channel=0 note=74 velocity=100 time=0
the msg is note_off channel=0 note=74 velocity=0 time=12
the msg is note_on channel=0 note=74 velocity=100 time=0
the msg is note_off channel=0 note=74 velocity=0 time=12
the msg is note_on channel=0 note=74 velocity=100 time=0
the msg is note_off channel=0 note=74 velocity=0 time=25
the msg is note_on channel=0 note=74 velocity=100 time=0
the msg is note_off channel=0 note=74 velocity=0 time=25
the msg is note_on channel=0 note=74 velocity=100 time=0
the msg is note_off channel=0 note=76 velocity=0 time=25
the msg is note_on channel=0 note=76 velocity=100 time=0
the msg is note_off channel=0 note=79 velocity=0 time=25
the msg is note_on channel=0 note=79 velocity=100 time=0
the msg is note_off channel=0 note=79 velocity=0 time=12
the msg is note_on channel=0 note=79 velocity=100 time=0
the msg is note_off channel=0 note=76 velocity=0 time=12
the msg is note_on channel=0 note=76 velocity=100 time=0
the msg is note_off channel=0 note=74 velocity=0 time=12
the msg is note_on channel=0 note=74 velocity=100 time=0
the msg is note_off channel=0 note=72 velocity=0 time=12
the msg is note_on channel=0 note=72 velocity=100 time=0
the msg is note_off channel=0 note=72 velocity=0 time=81
the msg is note_on channel=0 note=72 velocity=100 time=0
the msg is note_off channel=0 note=72 velocity=0 time=8
the msg is note_on channel=0 note=72 velocity=100 time=0
the msg is note_off channel=0 note=74 velocity=0 time=25
the msg is note_on channel=0 note=74 velocity=100 time=0
the msg is note_off channel=0 note=74 velocity=0 time=25
the msg is note_on channel=0 note=74 velocity=100 time=0
the msg is note_off channel=0 note=74 velocity=0 time=25
the msg is note_on channel=0 note=74 velocity=100 time=0
the msg is note_off channel=0 note=74 velocity=0 time=25
the msg is note_on channel=0 note=74 velocity=100 time=0
the msg is note_off channel=0 note=74 velocity=0 time=25
the msg is note_on channel=0 note=74 velocity=100 time=0
the msg is note_off channel=0 note=74 velocity=0 time=25
the msg is note_on channel=0 note=74 velocity=100 time=0
the msg is note_off channel=0 note=76 velocity=0 time=25
the msg is note_on channel=0 note=76 velocity=100 time=0
the msg is note_off channel=0 note=79 velocity=0 time=25
the msg is note_on channel=0 note=79 velocity=100 time=0
the msg is note_off channel=0 note=79 velocity=0 time=12
the msg is note_on channel=0 note=79 velocity=100 time=0
the msg is note_off channel=0 note=76 velocity=0 time=12
the msg is note_on channel=0 note=76 velocity=100 time=0
the msg is note_off channel=0 note=74 velocity=0 time=17
the msg is note_on channel=0 note=74 velocity=100 time=0
the msg is note_off channel=0 note=72 velocity=0 time=8
the msg is note_on channel=0 note=72 velocity=100 time=0
the msg is note_off channel=0 note=72 velocity=0 time=25
the msg is note_on channel=0 note=72 velocity=100 time=0
the msg is note_off channel=0 note=72 velocity=0 time=25
the msg is note_on channel=0 note=72 velocity=100 time=0
the msg is note_off channel=0 note=72 velocity=0 time=12
the msg is note_on channel=0 note=72 velocity=100 time=0
the msg is note_off channel=0 note=72 velocity=0 time=29
the msg is note_on channel=0 note=72 velocity=100 time=0
the msg is note_off channel=0 note=72 velocity=0 time=8
the msg is note_on channel=0 note=72 velocity=100 time=0
the msg is note_off channel=0 note=72 velocity=0 time=25
the msg is note_on channel=0 note=72 velocity=100 time=0
the msg is note_off channel=0 note=72 velocity=0 time=12
the msg is note_on channel=0 note=72 velocity=100 time=0
the msg is note_off channel=0 note=72 velocity=0 time=12
the msg is note_on channel=0 note=72 velocity=100 time=0
the msg is note_off channel=0 note=72 velocity=0 time=12
the msg is note_on channel=0 note=72 velocity=100 time=0
the msg is note_off channel=0 note=76 velocity=0 time=12
the msg is note_on channel=0 note=76 velocity=100 time=0
the msg is note_off channel=0 note=79 velocity=0 time=25
the msg is note_on channel=0 note=79 velocity=100 time=0
the msg is note_off channel=0 note=79 velocity=0 time=12
the msg is note_on channel=0 note=79 velocity=100 time=0
the msg is note_off channel=0 note=76 velocity=0 time=12
the msg is note_on channel=0 note=76 velocity=100 time=0
the msg is note_off channel=0 note=74 velocity=0 time=12
the msg is note_on channel=0 note=74 velocity=100 time=0
the msg is note_off channel=0 note=72 velocity=0 time=12
the msg is note_on channel=0 note=72 velocity=100 time=0
the msg is note_off channel=0 note=72 velocity=0 time=76
the msg is note_on channel=0 note=72 velocity=100 time=0
the msg is note_off channel=0 note=72 velocity=0 time=12
the msg is note_on channel=0 note=72 velocity=100 time=0
the msg is note_off channel=0 note=72 velocity=0 time=12
the msg is note_on channel=0 note=72 velocity=100 time=0
the msg is note_off channel=0 note=72 velocity=0 time=8
the msg is note_on channel=0 note=72 velocity=100 time=0
the msg is note_off channel=0 note=72 velocity=0 time=17
the msg is note_on channel=0 note=72 velocity=100 time=0
the msg is note_off channel=0 note=72 velocity=0 time=12
the msg is note_on channel=0 note=72 velocity=100 time=0
the msg is note_off channel=0 note=72 velocity=0 time=12
the msg is note_on channel=0 note=72 velocity=100 time=0
the msg is note_off channel=0 note=76 velocity=0 time=8
the msg is note_on channel=0 note=76 velocity=100 time=0
the msg is note_off channel=0 note=79 velocity=0 time=29
the msg is note_on channel=0 note=79 velocity=100 time=0
the msg is note_off channel=0 note=79 velocity=0 time=12
the msg is note_on channel=0 note=79 velocity=100 time=0
the msg is note_off channel=0 note=76 velocity=0 time=8
the msg is note_on channel=0 note=76 velocity=100 time=0
the msg is note_off channel=0 note=74 velocity=0 time=17
the msg is note_on channel=0 note=74 velocity=100 time=0
the msg is <meta message end_of_track time=51>
the msg is <meta message track_name name='Piano' time=0>
the msg is program_change channel=0 program=0 time=0
the msg is note_off channel=0 note=72 velocity=0 time=0
the msg is pitchwheel channel=0 pitch=0 time=0
the msg is program_change channel=0 program=0 time=0
the msg is <meta message set_tempo tempo=500000 time=0>
the msg is <meta message time_signature numerator=4 denominator=4 clocks_per_click=24 notated_32nd_notes_per_beat=8 time=0>
the msg is note_on channel=0 note=72 velocity=100 time=0
the msg is note_off channel=0 note=74 velocity=0 time=34
the msg is note_on channel=0 note=74 velocity=100 time=0
the msg is note_off channel=0 note=74 velocity=0 time=17
the msg is note_on channel=0 note=74 velocity=100 time=0
the msg is note_off channel=0 note=74 velocity=0 time=34
the msg is note_on channel=0 note=74 velocity=100 time=0
the msg is note_off channel=0 note=74 velocity=0 time=17
the msg is note_on channel=0 note=74 velocity=100 time=0
the msg is note_off channel=0 note=76 velocity=0 time=34
the msg is note_on channel=0 note=76 velocity=100 time=0
the msg is note_off channel=0 note=79 velocity=0 time=17
the msg is note_on channel=0 note=79 velocity=100 time=0
the msg is note_off channel=0 note=79 velocity=0 time=17
the msg is note_on channel=0 note=79 velocity=100 time=0
the msg is note_off channel=0 note=76 velocity=0 time=17
the msg is note_on channel=0 note=76 velocity=100 time=0
the msg is note_off channel=0 note=74 velocity=0 time=4
the msg is note_on channel=0 note=74 velocity=100 time=0
the msg is note_off channel=0 note=72 velocity=0 time=12
the msg is note_on channel=0 note=72 velocity=100 time=0
the msg is note_off channel=0 note=72 velocity=0 time=89
the msg is note_on channel=0 note=72 velocity=100 time=0
the msg is note_off channel=0 note=72 velocity=0 time=12
the msg is note_on channel=0 note=72 velocity=100 time=0
the msg is note_off channel=0 note=74 velocity=0 time=25
the msg is note_on channel=0 note=74 velocity=100 time=0
the msg is note_off channel=0 note=74 velocity=0 time=25
the msg is note_on channel=0 note=74 velocity=100 time=0
the msg is note_off channel=0 note=74 velocity=0 time=12
the msg is note_on channel=0 note=74 velocity=100 time=0
the msg is note_off channel=0 note=76 velocity=0 time=25
the msg is note_on channel=0 note=76 velocity=100 time=0
the msg is note_off channel=0 note=79 velocity=0 time=25
the msg is note_on channel=0 note=79 velocity=100 time=0
the msg is note_off channel=0 note=79 velocity=0 time=12
the msg is note_on channel=0 note=79 velocity=100 time=0
the msg is note_off channel=0 note=76 velocity=0 time=12
the msg is note_on channel=0 note=76 velocity=100 time=0
the msg is note_off channel=0 note=74 velocity=0 time=12
the msg is note_on channel=0 note=74 velocity=100 time=0
the msg is note_off channel=0 note=72 velocity=0 time=12
the msg is note_on channel=0 note=72 velocity=100 time=0
the msg is note_off channel=0 note=74 velocity=0 time=25
the msg is note_on channel=0 note=74 velocity=100 time=0
the msg is note_off channel=0 note=76 velocity=0 time=25
the msg is note_on channel=0 note=76 velocity=100 time=0
the msg is note_off channel=0 note=79 velocity=0 time=25
the msg is note_on channel=0 note=79 velocity=100 time=0
the msg is note_off channel=0 note=79 velocity=0 time=12
the msg is note_on channel=0 note=79 velocity=100 time=0
the msg is note_off channel=0 note=76 velocity=0 time=12
the msg is note_on channel=0 note=76 velocity=100 time=0
the msg is note_off channel=0 note=74 velocity=0 time=12
the msg is note_on channel=0 note=74 velocity=100 time=0
the msg is note_off channel=0 note=72 velocity=0 time=12
the msg is note_on channel=0 note=72 velocity=100 time=0
the msg is note_off channel=0 note=74 velocity=0 time=25
the msg is note_on channel=0 note=74 velocity=100 time=0
the msg is note_off channel=0 note=74 velocity=0 time=12
the msg is note_on channel=0 note=74 velocity=100 time=0
the msg is note_off channel=0 note=74 velocity=0 time=12
the msg is note_on channel=0 note=74 velocity=100 time=0
the msg is note_off channel=0 note=74 velocity=0 time=25
the msg is note_on channel=0 note=74 velocity=100 time=0
the msg is note_off channel=0 note=74 velocity=0 time=25
the msg is note_on channel=0 note=74 velocity=100 time=0
the msg is note_off channel=0 note=76 velocity=0 time=25
the msg is note_on channel=0 note=76 velocity=100 time=0
the msg is note_off channel=0 note=79 velocity=0 time=25
the msg is note_on channel=0 note=79 velocity=100 time=0
the msg is note_off channel=0 note=79 velocity=0 time=12
the msg is note_on channel=0 note=79 velocity=100 time=0
the msg is note_off channel=0 note=76 velocity=0 time=12
the msg is note_on channel=0 note=76 velocity=100 time=0
the msg is note_off channel=0 note=74 velocity=0 time=12
the msg is note_on channel=0 note=74 velocity=100 time=0
the msg is note_off channel=0 note=72 velocity=0 time=12
the msg is note_on channel=0 note=72 velocity=100 time=0
the msg is note_off channel=0 note=72 velocity=0 time=81
the msg is note_on channel=0 note=72 velocity=100 time=0
the msg is note_off channel=0 note=72 velocity=0 time=8
the msg is note_on channel=0 note=72 velocity=100 time=0
the msg is note_off channel=0 note=74 velocity=0 time=25
the msg is note_on channel=0 note=74 velocity=100 time=0
the msg is note_off channel=0 note=74 velocity=0 time=25
the msg is note_on channel=0 note=74 velocity=100 time=0
the msg is note_off channel=0 note=74 velocity=0 time=25
the msg is note_on channel=0 note=74 velocity=100 time=0
the msg is note_off channel=0 note=74 velocity=0 time=25
the msg is note_on channel=0 note=74 velocity=100 time=0
the msg is note_off channel=0 note=74 velocity=0 time=25
the msg is note_on channel=0 note=74 velocity=100 time=0
the msg is note_off channel=0 note=74 velocity=0 time=25
the msg is note_on channel=0 note=74 velocity=100 time=0
the msg is note_off channel=0 note=76 velocity=0 time=25
the msg is note_on channel=0 note=76 velocity=100 time=0
the msg is note_off channel=0 note=79 velocity=0 time=25
the msg is note_on channel=0 note=79 velocity=100 time=0
the msg is note_off channel=0 note=79 velocity=0 time=12
the msg is note_on channel=0 note=79 velocity=100 time=0
the msg is note_off channel=0 note=76 velocity=0 time=12
the msg is note_on channel=0 note=76 velocity=100 time=0
the msg is note_off channel=0 note=74 velocity=0 time=17
the msg is note_on channel=0 note=74 velocity=100 time=0
the msg is note_off channel=0 note=72 velocity=0 time=8
the msg is note_on channel=0 note=72 velocity=100 time=0
the msg is note_off channel=0 note=72 velocity=0 time=25
the msg is note_on channel=0 note=72 velocity=100 time=0
the msg is note_off channel=0 note=72 velocity=0 time=25
the msg is note_on channel=0 note=72 velocity=100 time=0
the msg is note_off channel=0 note=72 velocity=0 time=12
the msg is note_on channel=0 note=72 velocity=100 time=0
the msg is note_off channel=0 note=72 velocity=0 time=29
the msg is note_on channel=0 note=72 velocity=100 time=0
the msg is note_off channel=0 note=72 velocity=0 time=8
the msg is note_on channel=0 note=72 velocity=100 time=0
the msg is note_off channel=0 note=72 velocity=0 time=25
the msg is note_on channel=0 note=72 velocity=100 time=0
the msg is note_off channel=0 note=72 velocity=0 time=12
the msg is note_on channel=0 note=72 velocity=100 time=0
the msg is note_off channel=0 note=72 velocity=0 time=12
the msg is note_on channel=0 note=72 velocity=100 time=0
the msg is note_off channel=0 note=72 velocity=0 time=12
the msg is note_on channel=0 note=72 velocity=100 time=0
the msg is note_off channel=0 note=76 velocity=0 time=12
the msg is note_on channel=0 note=76 velocity=100 time=0
the msg is note_off channel=0 note=79 velocity=0 time=25
the msg is note_on channel=0 note=79 velocity=100 time=0
the msg is note_off channel=0 note=79 velocity=0 time=12
the msg is note_on channel=0 note=79 velocity=100 time=0
the msg is note_off channel=0 note=76 velocity=0 time=12
the msg is note_on channel=0 note=76 velocity=100 time=0
the msg is note_off channel=0 note=74 velocity=0 time=12
the msg is note_on channel=0 note=74 velocity=100 time=0
the msg is note_off channel=0 note=72 velocity=0 time=12
the msg is note_on channel=0 note=72 velocity=100 time=0
the msg is note_off channel=0 note=72 velocity=0 time=76
the msg is note_on channel=0 note=72 velocity=100 time=0
the msg is note_off channel=0 note=72 velocity=0 time=12
the msg is note_on channel=0 note=72 velocity=100 time=0
the msg is note_off channel=0 note=72 velocity=0 time=12
the msg is note_on channel=0 note=72 velocity=100 time=0
the msg is note_off channel=0 note=72 velocity=0 time=8
the msg is note_on channel=0 note=72 velocity=100 time=0
the msg is note_off channel=0 note=72 velocity=0 time=17
the msg is note_on channel=0 note=72 velocity=100 time=0
the msg is note_off channel=0 note=72 velocity=0 time=12
the msg is note_on channel=0 note=72 velocity=100 time=0
the msg is note_off channel=0 note=72 velocity=0 time=12
the msg is note_on channel=0 note=72 velocity=100 time=0
the msg is note_off channel=0 note=76 velocity=0 time=8
the msg is note_on channel=0 note=76 velocity=100 time=0
the msg is note_off channel=0 note=79 velocity=0 time=29
the msg is note_on channel=0 note=79 velocity=100 time=0
the msg is note_off channel=0 note=79 velocity=0 time=12
the msg is note_on channel=0 note=79 velocity=100 time=0
the msg is note_off channel=0 note=76 velocity=0 time=8
the msg is note_on channel=0 note=76 velocity=100 time=0
the msg is note_off channel=0 note=74 velocity=0 time=17
the msg is note_on channel=0 note=74 velocity=100 time=0
the msg is <meta message end_of_track time=51>
the msg is <meta message track_name name='Piano' time=0>
the msg is program_change channel=0 program=0 time=0
the msg is note_off channel=0 note=72 velocity=0 time=0
the msg is pitchwheel channel=0 pitch=0 time=0
the msg is program_change channel=0 program=0 time=0
the msg is <meta message set_tempo tempo=500000 time=0>
the msg is <meta message time_signature numerator=4 denominator=4 clocks_per_click=24 notated_32nd_notes_per_beat=8 time=0>
the msg is note_on channel=0 note=72 velocity=100 time=0
the msg is note_off channel=0 note=74 velocity=0 time=34
the msg is note_on channel=0 note=74 velocity=100 time=0
the msg is note_off channel=0 note=74 velocity=0 time=17
the msg is note_on channel=0 note=74 velocity=100 time=0
the msg is note_off channel=0 note=74 velocity=0 time=34
the msg is note_on channel=0 note=74 velocity=100 time=0
the msg is note_off channel=0 note=74 velocity=0 time=17
the msg is note_on channel=0 note=74 velocity=100 time=0
the msg is note_off channel=0 note=76 velocity=0 time=34
the msg is note_on channel=0 note=76 velocity=100 time=0
the msg is note_off channel=0 note=79 velocity=0 time=17
the msg is note_on channel=0 note=79 velocity=100 time=0
the msg is note_off channel=0 note=79 velocity=0 time=17
the msg is note_on channel=0 note=79 velocity=100 time=0
the msg is note_off channel=0 note=76 velocity=0 time=17
the msg is note_on channel=0 note=76 velocity=100 time=0
the msg is note_off channel=0 note=74 velocity=0 time=4
the msg is note_on channel=0 note=74 velocity=100 time=0
the msg is note_off channel=0 note=72 velocity=0 time=12
the msg is note_on channel=0 note=72 velocity=100 time=0
the msg is note_off channel=0 note=72 velocity=0 time=89
the msg is note_on channel=0 note=72 velocity=100 time=0
the msg is note_off channel=0 note=72 velocity=0 time=12
the msg is note_on channel=0 note=72 velocity=100 time=0
the msg is note_off channel=0 note=74 velocity=0 time=25
the msg is note_on channel=0 note=74 velocity=100 time=0
the msg is note_off channel=0 note=74 velocity=0 time=25
the msg is note_on channel=0 note=74 velocity=100 time=0
the msg is note_off channel=0 note=74 velocity=0 time=12
the msg is note_on channel=0 note=74 velocity=100 time=0
the msg is note_off channel=0 note=76 velocity=0 time=25
the msg is note_on channel=0 note=76 velocity=100 time=0
the msg is note_off channel=0 note=79 velocity=0 time=25
the msg is note_on channel=0 note=79 velocity=100 time=0
the msg is note_off channel=0 note=79 velocity=0 time=12
the msg is note_on channel=0 note=79 velocity=100 time=0
the msg is note_off channel=0 note=76 velocity=0 time=12
the msg is note_on channel=0 note=76 velocity=100 time=0
the msg is note_off channel=0 note=74 velocity=0 time=12
the msg is note_on channel=0 note=74 velocity=100 time=0
the msg is note_off channel=0 note=72 velocity=0 time=12
the msg is note_on channel=0 note=72 velocity=100 time=0
the msg is note_off channel=0 note=74 velocity=0 time=25
the msg is note_on channel=0 note=74 velocity=100 time=0
the msg is note_off channel=0 note=76 velocity=0 time=25
the msg is note_on channel=0 note=76 velocity=100 time=0
the msg is note_off channel=0 note=79 velocity=0 time=25
the msg is note_on channel=0 note=79 velocity=100 time=0
the msg is note_off channel=0 note=79 velocity=0 time=12
the msg is note_on channel=0 note=79 velocity=100 time=0
the msg is note_off channel=0 note=76 velocity=0 time=12
the msg is note_on channel=0 note=76 velocity=100 time=0
the msg is note_off channel=0 note=74 velocity=0 time=12
the msg is note_on channel=0 note=74 velocity=100 time=0
the msg is note_off channel=0 note=72 velocity=0 time=12
the msg is note_on channel=0 note=72 velocity=100 time=0
the msg is note_off channel=0 note=74 velocity=0 time=25
the msg is note_on channel=0 note=74 velocity=100 time=0
the msg is note_off channel=0 note=74 velocity=0 time=12
the msg is note_on channel=0 note=74 velocity=100 time=0
the msg is note_off channel=0 note=74 velocity=0 time=12
the msg is note_on channel=0 note=74 velocity=100 time=0
the msg is note_off channel=0 note=74 velocity=0 time=25
the msg is note_on channel=0 note=74 velocity=100 time=0
the msg is note_off channel=0 note=74 velocity=0 time=25
the msg is note_on channel=0 note=74 velocity=100 time=0
the msg is note_off channel=0 note=76 velocity=0 time=25
the msg is note_on channel=0 note=76 velocity=100 time=0
the msg is note_off channel=0 note=79 velocity=0 time=25
the msg is note_on channel=0 note=79 velocity=100 time=0
the msg is note_off channel=0 note=79 velocity=0 time=12
the msg is note_on channel=0 note=79 velocity=100 time=0
the msg is note_off channel=0 note=76 velocity=0 time=12
the msg is note_on channel=0 note=76 velocity=100 time=0
the msg is note_off channel=0 note=74 velocity=0 time=12
the msg is note_on channel=0 note=74 velocity=100 time=0
the msg is note_off channel=0 note=72 velocity=0 time=12
the msg is note_on channel=0 note=72 velocity=100 time=0
the msg is note_off channel=0 note=72 velocity=0 time=81
the msg is note_on channel=0 note=72 velocity=100 time=0
the msg is note_off channel=0 note=72 velocity=0 time=8
the msg is note_on channel=0 note=72 velocity=100 time=0
the msg is note_off channel=0 note=74 velocity=0 time=25
the msg is note_on channel=0 note=74 velocity=100 time=0
the msg is note_off channel=0 note=74 velocity=0 time=25
the msg is note_on channel=0 note=74 velocity=100 time=0
the msg is note_off channel=0 note=74 velocity=0 time=25
the msg is note_on channel=0 note=74 velocity=100 time=0
the msg is note_off channel=0 note=74 velocity=0 time=25
the msg is note_on channel=0 note=74 velocity=100 time=0
the msg is note_off channel=0 note=74 velocity=0 time=25
the msg is note_on channel=0 note=74 velocity=100 time=0
the msg is note_off channel=0 note=74 velocity=0 time=25
the msg is note_on channel=0 note=74 velocity=100 time=0
the msg is note_off channel=0 note=76 velocity=0 time=25
the msg is note_on channel=0 note=76 velocity=100 time=0
the msg is note_off channel=0 note=79 velocity=0 time=25
the msg is note_on channel=0 note=79 velocity=100 time=0
the msg is note_off channel=0 note=79 velocity=0 time=12
the msg is note_on channel=0 note=79 velocity=100 time=0
the msg is note_off channel=0 note=76 velocity=0 time=12
the msg is note_on channel=0 note=76 velocity=100 time=0
the msg is note_off channel=0 note=74 velocity=0 time=17
the msg is note_on channel=0 note=74 velocity=100 time=0
the msg is note_off channel=0 note=72 velocity=0 time=8
the msg is note_on channel=0 note=72 velocity=100 time=0
the msg is note_off channel=0 note=72 velocity=0 time=25
the msg is note_on channel=0 note=72 velocity=100 time=0
the msg is note_off channel=0 note=72 velocity=0 time=25
the msg is note_on channel=0 note=72 velocity=100 time=0
the msg is note_off channel=0 note=72 velocity=0 time=12
the msg is note_on channel=0 note=72 velocity=100 time=0
the msg is note_off channel=0 note=72 velocity=0 time=29
the msg is note_on channel=0 note=72 velocity=100 time=0
the msg is note_off channel=0 note=72 velocity=0 time=8
the msg is note_on channel=0 note=72 velocity=100 time=0
the msg is note_off channel=0 note=72 velocity=0 time=25
the msg is note_on channel=0 note=72 velocity=100 time=0
the msg is note_off channel=0 note=72 velocity=0 time=12
the msg is note_on channel=0 note=72 velocity=100 time=0
the msg is note_off channel=0 note=72 velocity=0 time=12
the msg is note_on channel=0 note=72 velocity=100 time=0
the msg is note_off channel=0 note=72 velocity=0 time=12
the msg is note_on channel=0 note=72 velocity=100 time=0
the msg is note_off channel=0 note=76 velocity=0 time=12
the msg is note_on channel=0 note=76 velocity=100 time=0
the msg is note_off channel=0 note=79 velocity=0 time=25
the msg is note_on channel=0 note=79 velocity=100 time=0
the msg is note_off channel=0 note=79 velocity=0 time=12
the msg is note_on channel=0 note=79 velocity=100 time=0
the msg is note_off channel=0 note=76 velocity=0 time=12
the msg is note_on channel=0 note=76 velocity=100 time=0
the msg is note_off channel=0 note=74 velocity=0 time=12
the msg is note_on channel=0 note=74 velocity=100 time=0
the msg is note_off channel=0 note=72 velocity=0 time=12
the msg is note_on channel=0 note=72 velocity=100 time=0
the msg is note_off channel=0 note=72 velocity=0 time=76
the msg is note_on channel=0 note=72 velocity=100 time=0
the msg is note_off channel=0 note=72 velocity=0 time=12
the msg is note_on channel=0 note=72 velocity=100 time=0
the msg is note_off channel=0 note=72 velocity=0 time=12
the msg is note_on channel=0 note=72 velocity=100 time=0
the msg is note_off channel=0 note=72 velocity=0 time=8
the msg is note_on channel=0 note=72 velocity=100 time=0
the msg is note_off channel=0 note=72 velocity=0 time=17
the msg is note_on channel=0 note=72 velocity=100 time=0
the msg is note_off channel=0 note=72 velocity=0 time=12
the msg is note_on channel=0 note=72 velocity=100 time=0
the msg is note_off channel=0 note=72 velocity=0 time=12
the msg is note_on channel=0 note=72 velocity=100 time=0
the msg is note_off channel=0 note=76 velocity=0 time=8
the msg is note_on channel=0 note=76 velocity=100 time=0
the msg is note_off channel=0 note=79 velocity=0 time=29
the msg is note_on channel=0 note=79 velocity=100 time=0
the msg is note_off channel=0 note=79 velocity=0 time=12
the msg is note_on channel=0 note=79 velocity=100 time=0
the msg is note_off channel=0 note=76 velocity=0 time=8
the msg is note_on channel=0 note=76 velocity=100 time=0
the msg is note_off channel=0 note=74 velocity=0 time=17
the msg is note_on channel=0 note=74 velocity=100 time=0
the msg is <meta message end_of_track time=51>
the msg is <meta message track_name name='Piano' time=0>
the msg is program_change channel=0 program=0 time=0
the msg is note_off channel=0 note=72 velocity=0 time=0
the msg is pitchwheel channel=0 pitch=0 time=0
the msg is program_change channel=0 program=0 time=0
the msg is <meta message set_tempo tempo=500000 time=0>
the msg is <meta message time_signature numerator=4 denominator=4 clocks_per_click=24 notated_32nd_notes_per_beat=8 time=0>
the msg is note_on channel=0 note=72 velocity=100 time=0
the msg is note_off channel=0 note=74 velocity=0 time=34
the msg is note_on channel=0 note=74 velocity=100 time=0
the msg is note_off channel=0 note=74 velocity=0 time=17
the msg is note_on channel=0 note=74 velocity=100 time=0
the msg is note_off channel=0 note=74 velocity=0 time=34
the msg is note_on channel=0 note=74 velocity=100 time=0
the msg is note_off channel=0 note=74 velocity=0 time=17
the msg is note_on channel=0 note=74 velocity=100 time=0
the msg is note_off channel=0 note=76 velocity=0 time=34
the msg is note_on channel=0 note=76 velocity=100 time=0
the msg is note_off channel=0 note=79 velocity=0 time=17
the msg is note_on channel=0 note=79 velocity=100 time=0
the msg is note_off channel=0 note=79 velocity=0 time=17
the msg is note_on channel=0 note=79 velocity=100 time=0
the msg is note_off channel=0 note=76 velocity=0 time=17
the msg is note_on channel=0 note=76 velocity=100 time=0
the msg is note_off channel=0 note=74 velocity=0 time=4
the msg is note_on channel=0 note=74 velocity=100 time=0
the msg is note_off channel=0 note=72 velocity=0 time=12
the msg is note_on channel=0 note=72 velocity=100 time=0
the msg is note_off channel=0 note=72 velocity=0 time=89
the msg is note_on channel=0 note=72 velocity=100 time=0
the msg is note_off channel=0 note=72 velocity=0 time=12
the msg is note_on channel=0 note=72 velocity=100 time=0
the msg is note_off channel=0 note=74 velocity=0 time=25
the msg is note_on channel=0 note=74 velocity=100 time=0
the msg is note_off channel=0 note=74 velocity=0 time=25
the msg is note_on channel=0 note=74 velocity=100 time=0
the msg is note_off channel=0 note=74 velocity=0 time=12
the msg is note_on channel=0 note=74 velocity=100 time=0
the msg is note_off channel=0 note=76 velocity=0 time=25
the msg is note_on channel=0 note=76 velocity=100 time=0
the msg is note_off channel=0 note=79 velocity=0 time=25
the msg is note_on channel=0 note=79 velocity=100 time=0
the msg is note_off channel=0 note=79 velocity=0 time=12
the msg is note_on channel=0 note=79 velocity=100 time=0
the msg is note_off channel=0 note=76 velocity=0 time=12
the msg is note_on channel=0 note=76 velocity=100 time=0
the msg is note_off channel=0 note=74 velocity=0 time=12
the msg is note_on channel=0 note=74 velocity=100 time=0
the msg is note_off channel=0 note=72 velocity=0 time=12
the msg is note_on channel=0 note=72 velocity=100 time=0
the msg is note_off channel=0 note=74 velocity=0 time=25
the msg is note_on channel=0 note=74 velocity=100 time=0
the msg is note_off channel=0 note=76 velocity=0 time=25
the msg is note_on channel=0 note=76 velocity=100 time=0
the msg is note_off channel=0 note=79 velocity=0 time=25
the msg is note_on channel=0 note=79 velocity=100 time=0
the msg is note_off channel=0 note=79 velocity=0 time=12
the msg is note_on channel=0 note=79 velocity=100 time=0
the msg is note_off channel=0 note=76 velocity=0 time=12
the msg is note_on channel=0 note=76 velocity=100 time=0
the msg is note_off channel=0 note=74 velocity=0 time=12
the msg is note_on channel=0 note=74 velocity=100 time=0
the msg is note_off channel=0 note=72 velocity=0 time=12
the msg is note_on channel=0 note=72 velocity=100 time=0
the msg is note_off channel=0 note=74 velocity=0 time=25
the msg is note_on channel=0 note=74 velocity=100 time=0
the msg is note_off channel=0 note=74 velocity=0 time=12
the msg is note_on channel=0 note=74 velocity=100 time=0
the msg is note_off channel=0 note=74 velocity=0 time=12
the msg is note_on channel=0 note=74 velocity=100 time=0
the msg is note_off channel=0 note=74 velocity=0 time=25
the msg is note_on channel=0 note=74 velocity=100 time=0
the msg is note_off channel=0 note=74 velocity=0 time=25
the msg is note_on channel=0 note=74 velocity=100 time=0
the msg is note_off channel=0 note=76 velocity=0 time=25
the msg is note_on channel=0 note=76 velocity=100 time=0
the msg is note_off channel=0 note=79 velocity=0 time=25
the msg is note_on channel=0 note=79 velocity=100 time=0
the msg is note_off channel=0 note=79 velocity=0 time=12
the msg is note_on channel=0 note=79 velocity=100 time=0
the msg is note_off channel=0 note=76 velocity=0 time=12
the msg is note_on channel=0 note=76 velocity=100 time=0
the msg is note_off channel=0 note=74 velocity=0 time=12
the msg is note_on channel=0 note=74 velocity=100 time=0
the msg is note_off channel=0 note=72 velocity=0 time=12
the msg is note_on channel=0 note=72 velocity=100 time=0
the msg is note_off channel=0 note=72 velocity=0 time=81
the msg is note_on channel=0 note=72 velocity=100 time=0
the msg is note_off channel=0 note=72 velocity=0 time=8
the msg is note_on channel=0 note=72 velocity=100 time=0
the msg is note_off channel=0 note=74 velocity=0 time=25
the msg is note_on channel=0 note=74 velocity=100 time=0
the msg is note_off channel=0 note=74 velocity=0 time=25
the msg is note_on channel=0 note=74 velocity=100 time=0
the msg is note_off channel=0 note=74 velocity=0 time=25
the msg is note_on channel=0 note=74 velocity=100 time=0
the msg is note_off channel=0 note=74 velocity=0 time=25
the msg is note_on channel=0 note=74 velocity=100 time=0
the msg is note_off channel=0 note=74 velocity=0 time=25
the msg is note_on channel=0 note=74 velocity=100 time=0
the msg is note_off channel=0 note=74 velocity=0 time=25
the msg is note_on channel=0 note=74 velocity=100 time=0
the msg is note_off channel=0 note=76 velocity=0 time=25
the msg is note_on channel=0 note=76 velocity=100 time=0
the msg is note_off channel=0 note=79 velocity=0 time=25
the msg is note_on channel=0 note=79 velocity=100 time=0
the msg is note_off channel=0 note=79 velocity=0 time=12
the msg is note_on channel=0 note=79 velocity=100 time=0
the msg is note_off channel=0 note=76 velocity=0 time=12
the msg is note_on channel=0 note=76 velocity=100 time=0
the msg is note_off channel=0 note=74 velocity=0 time=17
the msg is note_on channel=0 note=74 velocity=100 time=0
the msg is note_off channel=0 note=72 velocity=0 time=8
the msg is note_on channel=0 note=72 velocity=100 time=0
the msg is note_off channel=0 note=72 velocity=0 time=25
the msg is note_on channel=0 note=72 velocity=100 time=0
the msg is note_off channel=0 note=72 velocity=0 time=25
the msg is note_on channel=0 note=72 velocity=100 time=0
the msg is note_off channel=0 note=72 velocity=0 time=12
the msg is note_on channel=0 note=72 velocity=100 time=0
the msg is note_off channel=0 note=72 velocity=0 time=29
the msg is note_on channel=0 note=72 velocity=100 time=0
the msg is note_off channel=0 note=72 velocity=0 time=8
the msg is note_on channel=0 note=72 velocity=100 time=0
the msg is note_off channel=0 note=72 velocity=0 time=25
the msg is note_on channel=0 note=72 velocity=100 time=0
the msg is note_off channel=0 note=72 velocity=0 time=12
the msg is note_on channel=0 note=72 velocity=100 time=0
the msg is note_off channel=0 note=72 velocity=0 time=12
the msg is note_on channel=0 note=72 velocity=100 time=0
the msg is note_off channel=0 note=72 velocity=0 time=12
the msg is note_on channel=0 note=72 velocity=100 time=0
the msg is note_off channel=0 note=76 velocity=0 time=12
the msg is note_on channel=0 note=76 velocity=100 time=0
the msg is note_off channel=0 note=79 velocity=0 time=25
the msg is note_on channel=0 note=79 velocity=100 time=0
the msg is note_off channel=0 note=79 velocity=0 time=12
the msg is note_on channel=0 note=79 velocity=100 time=0
the msg is note_off channel=0 note=76 velocity=0 time=12
the msg is note_on channel=0 note=76 velocity=100 time=0
the msg is note_off channel=0 note=74 velocity=0 time=12
the msg is note_on channel=0 note=74 velocity=100 time=0
the msg is note_off channel=0 note=72 velocity=0 time=12
the msg is note_on channel=0 note=72 velocity=100 time=0
the msg is note_off channel=0 note=72 velocity=0 time=76
the msg is note_on channel=0 note=72 velocity=100 time=0
the msg is note_off channel=0 note=72 velocity=0 time=12
the msg is note_on channel=0 note=72 velocity=100 time=0
the msg is note_off channel=0 note=72 velocity=0 time=12
the msg is note_on channel=0 note=72 velocity=100 time=0
the msg is note_off channel=0 note=72 velocity=0 time=8
the msg is note_on channel=0 note=72 velocity=100 time=0
the msg is note_off channel=0 note=72 velocity=0 time=17
the msg is note_on channel=0 note=72 velocity=100 time=0
the msg is note_off channel=0 note=72 velocity=0 time=12
the msg is note_on channel=0 note=72 velocity=100 time=0
the msg is note_off channel=0 note=72 velocity=0 time=12
the msg is note_on channel=0 note=72 velocity=100 time=0
the msg is note_off channel=0 note=76 velocity=0 time=8
the msg is note_on channel=0 note=76 velocity=100 time=0
the msg is note_off channel=0 note=79 velocity=0 time=29
the msg is note_on channel=0 note=79 velocity=100 time=0
the msg is note_off channel=0 note=79 velocity=0 time=12
the msg is note_on channel=0 note=79 velocity=100 time=0
the msg is note_off channel=0 note=76 velocity=0 time=8
the msg is note_on channel=0 note=76 velocity=100 time=0
the msg is note_off channel=0 note=74 velocity=0 time=17
the msg is note_on channel=0 note=74 velocity=100 time=0
the msg is <meta message end_of_track time=51>
the msg is <meta message track_name name='Piano' time=0>
the msg is program_change channel=0 program=0 time=0
the msg is note_off channel=0 note=72 velocity=0 time=0
the msg is pitchwheel channel=0 pitch=0 time=0
the msg is program_change channel=0 program=0 time=0
the msg is <meta message set_tempo tempo=500000 time=0>
the msg is <meta message time_signature numerator=4 denominator=4 clocks_per_click=24 notated_32nd_notes_per_beat=8 time=0>
the msg is note_on channel=0 note=72 velocity=100 time=0
the msg is note_off channel=0 note=74 velocity=0 time=34
the msg is note_on channel=0 note=74 velocity=100 time=0
the msg is note_off channel=0 note=74 velocity=0 time=17
the msg is note_on channel=0 note=74 velocity=100 time=0
the msg is note_off channel=0 note=74 velocity=0 time=34
the msg is note_on channel=0 note=74 velocity=100 time=0
the msg is note_off channel=0 note=74 velocity=0 time=17
the msg is note_on channel=0 note=74 velocity=100 time=0
the msg is note_off channel=0 note=76 velocity=0 time=34
the msg is note_on channel=0 note=76 velocity=100 time=0
the msg is note_off channel=0 note=79 velocity=0 time=17
the msg is note_on channel=0 note=79 velocity=100 time=0
the msg is note_off channel=0 note=79 velocity=0 time=17
the msg is note_on channel=0 note=79 velocity=100 time=0
the msg is note_off channel=0 note=76 velocity=0 time=17
the msg is note_on channel=0 note=76 velocity=100 time=0
the msg is note_off channel=0 note=74 velocity=0 time=4
the msg is note_on channel=0 note=74 velocity=100 time=0
the msg is note_off channel=0 note=72 velocity=0 time=12
the msg is note_on channel=0 note=72 velocity=100 time=0
the msg is note_off channel=0 note=72 velocity=0 time=89
the msg is note_on channel=0 note=72 velocity=100 time=0
the msg is note_off channel=0 note=72 velocity=0 time=12
the msg is note_on channel=0 note=72 velocity=100 time=0
the msg is note_off channel=0 note=74 velocity=0 time=25
the msg is note_on channel=0 note=74 velocity=100 time=0
the msg is note_off channel=0 note=74 velocity=0 time=25
the msg is note_on channel=0 note=74 velocity=100 time=0
the msg is note_off channel=0 note=74 velocity=0 time=12
the msg is note_on channel=0 note=74 velocity=100 time=0
the msg is note_off channel=0 note=76 velocity=0 time=25
the msg is note_on channel=0 note=76 velocity=100 time=0
the msg is note_off channel=0 note=79 velocity=0 time=25
the msg is note_on channel=0 note=79 velocity=100 time=0
the msg is note_off channel=0 note=79 velocity=0 time=12
the msg is note_on channel=0 note=79 velocity=100 time=0
the msg is note_off channel=0 note=76 velocity=0 time=12
the msg is note_on channel=0 note=76 velocity=100 time=0
the msg is note_off channel=0 note=74 velocity=0 time=12
the msg is note_on channel=0 note=74 velocity=100 time=0
the msg is note_off channel=0 note=72 velocity=0 time=12
the msg is note_on channel=0 note=72 velocity=100 time=0
the msg is note_off channel=0 note=74 velocity=0 time=25
the msg is note_on channel=0 note=74 velocity=100 time=0
the msg is note_off channel=0 note=76 velocity=0 time=25
the msg is note_on channel=0 note=76 velocity=100 time=0
the msg is note_off channel=0 note=79 velocity=0 time=25
the msg is note_on channel=0 note=79 velocity=100 time=0
the msg is note_off channel=0 note=79 velocity=0 time=12
the msg is note_on channel=0 note=79 velocity=100 time=0
the msg is note_off channel=0 note=76 velocity=0 time=12
the msg is note_on channel=0 note=76 velocity=100 time=0
the msg is note_off channel=0 note=74 velocity=0 time=12
the msg is note_on channel=0 note=74 velocity=100 time=0
the msg is note_off channel=0 note=72 velocity=0 time=12
the msg is note_on channel=0 note=72 velocity=100 time=0
the msg is note_off channel=0 note=74 velocity=0 time=25
the msg is note_on channel=0 note=74 velocity=100 time=0
the msg is note_off channel=0 note=74 velocity=0 time=12
the msg is note_on channel=0 note=74 velocity=100 time=0
the msg is note_off channel=0 note=74 velocity=0 time=12
the msg is note_on channel=0 note=74 velocity=100 time=0
the msg is note_off channel=0 note=74 velocity=0 time=25
the msg is note_on channel=0 note=74 velocity=100 time=0
the msg is note_off channel=0 note=74 velocity=0 time=25
the msg is note_on channel=0 note=74 velocity=100 time=0
the msg is note_off channel=0 note=76 velocity=0 time=25
the msg is note_on channel=0 note=76 velocity=100 time=0
the msg is note_off channel=0 note=79 velocity=0 time=25
the msg is note_on channel=0 note=79 velocity=100 time=0
the msg is note_off channel=0 note=79 velocity=0 time=12
the msg is note_on channel=0 note=79 velocity=100 time=0
the msg is note_off channel=0 note=76 velocity=0 time=12
the msg is note_on channel=0 note=76 velocity=100 time=0
the msg is note_off channel=0 note=74 velocity=0 time=12
the msg is note_on channel=0 note=74 velocity=100 time=0
the msg is note_off channel=0 note=72 velocity=0 time=12
the msg is note_on channel=0 note=72 velocity=100 time=0
the msg is note_off channel=0 note=72 velocity=0 time=81
the msg is note_on channel=0 note=72 velocity=100 time=0
the msg is note_off channel=0 note=72 velocity=0 time=8
the msg is note_on channel=0 note=72 velocity=100 time=0
the msg is note_off channel=0 note=74 velocity=0 time=25
the msg is note_on channel=0 note=74 velocity=100 time=0
the msg is note_off channel=0 note=74 velocity=0 time=25
the msg is note_on channel=0 note=74 velocity=100 time=0
the msg is note_off channel=0 note=74 velocity=0 time=25
the msg is note_on channel=0 note=74 velocity=100 time=0
the msg is note_off channel=0 note=74 velocity=0 time=25
the msg is note_on channel=0 note=74 velocity=100 time=0
the msg is note_off channel=0 note=74 velocity=0 time=25
the msg is note_on channel=0 note=74 velocity=100 time=0
the msg is note_off channel=0 note=74 velocity=0 time=25
the msg is note_on channel=0 note=74 velocity=100 time=0
the msg is note_off channel=0 note=76 velocity=0 time=25
the msg is note_on channel=0 note=76 velocity=100 time=0
the msg is note_off channel=0 note=79 velocity=0 time=25
the msg is note_on channel=0 note=79 velocity=100 time=0
the msg is note_off channel=0 note=79 velocity=0 time=12
the msg is note_on channel=0 note=79 velocity=100 time=0
the msg is note_off channel=0 note=76 velocity=0 time=12
the msg is note_on channel=0 note=76 velocity=100 time=0
the msg is note_off channel=0 note=74 velocity=0 time=17
the msg is note_on channel=0 note=74 velocity=100 time=0
the msg is note_off channel=0 note=72 velocity=0 time=8
the msg is note_on channel=0 note=72 velocity=100 time=0
the msg is note_off channel=0 note=72 velocity=0 time=25
the msg is note_on channel=0 note=72 velocity=100 time=0
the msg is note_off channel=0 note=72 velocity=0 time=25
the msg is note_on channel=0 note=72 velocity=100 time=0
the msg is note_off channel=0 note=72 velocity=0 time=12
the msg is note_on channel=0 note=72 velocity=100 time=0
the msg is note_off channel=0 note=72 velocity=0 time=29
the msg is note_on channel=0 note=72 velocity=100 time=0
the msg is note_off channel=0 note=72 velocity=0 time=8
the msg is note_on channel=0 note=72 velocity=100 time=0
the msg is note_off channel=0 note=72 velocity=0 time=25
the msg is note_on channel=0 note=72 velocity=100 time=0
the msg is note_off channel=0 note=72 velocity=0 time=12
the msg is note_on channel=0 note=72 velocity=100 time=0
the msg is note_off channel=0 note=72 velocity=0 time=12
the msg is note_on channel=0 note=72 velocity=100 time=0
the msg is note_off channel=0 note=72 velocity=0 time=12
the msg is note_on channel=0 note=72 velocity=100 time=0
the msg is note_off channel=0 note=76 velocity=0 time=12
the msg is note_on channel=0 note=76 velocity=100 time=0
the msg is note_off channel=0 note=79 velocity=0 time=25
the msg is note_on channel=0 note=79 velocity=100 time=0
the msg is note_off channel=0 note=79 velocity=0 time=12
the msg is note_on channel=0 note=79 velocity=100 time=0
the msg is note_off channel=0 note=76 velocity=0 time=12
the msg is note_on channel=0 note=76 velocity=100 time=0
the msg is note_off channel=0 note=74 velocity=0 time=12
the msg is note_on channel=0 note=74 velocity=100 time=0
the msg is note_off channel=0 note=72 velocity=0 time=12
the msg is note_on channel=0 note=72 velocity=100 time=0
the msg is note_off channel=0 note=72 velocity=0 time=76
the msg is note_on channel=0 note=72 velocity=100 time=0
the msg is note_off channel=0 note=72 velocity=0 time=12
the msg is note_on channel=0 note=72 velocity=100 time=0
the msg is note_off channel=0 note=72 velocity=0 time=12
the msg is note_on channel=0 note=72 velocity=100 time=0
the msg is note_off channel=0 note=72 velocity=0 time=8
the msg is note_on channel=0 note=72 velocity=100 time=0
the msg is note_off channel=0 note=72 velocity=0 time=17
the msg is note_on channel=0 note=72 velocity=100 time=0
the msg is note_off channel=0 note=72 velocity=0 time=12
the msg is note_on channel=0 note=72 velocity=100 time=0
the msg is note_off channel=0 note=72 velocity=0 time=12
the msg is note_on channel=0 note=72 velocity=100 time=0
the msg is note_off channel=0 note=76 velocity=0 time=8
the msg is note_on channel=0 note=76 velocity=100 time=0
the msg is note_off channel=0 note=79 velocity=0 time=29
the msg is note_on channel=0 note=79 velocity=100 time=0
the msg is note_off channel=0 note=79 velocity=0 time=12
the msg is note_on channel=0 note=79 velocity=100 time=0
the msg is note_off channel=0 note=76 velocity=0 time=8
the msg is note_on channel=0 note=76 velocity=100 time=0
the msg is note_off channel=0 note=74 velocity=0 time=17
the msg is note_on channel=0 note=74 velocity=100 time=0
the msg is <meta message end_of_track time=51>
the msg is <meta message track_name name='Piano' time=0>
the msg is program_change channel=0 program=0 time=0
the msg is note_off channel=0 note=72 velocity=0 time=0
the msg is pitchwheel channel=0 pitch=0 time=0
the msg is program_change channel=0 program=0 time=0
the msg is <meta message set_tempo tempo=500000 time=0>
the msg is <meta message time_signature numerator=4 denominator=4 clocks_per_click=24 notated_32nd_notes_per_beat=8 time=0>
the msg is note_on channel=0 note=72 velocity=100 time=0
the msg is note_off channel=0 note=74 velocity=0 time=34
the msg is note_on channel=0 note=74 velocity=100 time=0
the msg is note_off channel=0 note=74 velocity=0 time=17
the msg is note_on channel=0 note=74 velocity=100 time=0
the msg is note_off channel=0 note=74 velocity=0 time=34
the msg is note_on channel=0 note=74 velocity=100 time=0
the msg is note_off channel=0 note=74 velocity=0 time=17
the msg is note_on channel=0 note=74 velocity=100 time=0
the msg is note_off channel=0 note=76 velocity=0 time=34
the msg is note_on channel=0 note=76 velocity=100 time=0
the msg is note_off channel=0 note=79 velocity=0 time=17
the msg is note_on channel=0 note=79 velocity=100 time=0
the msg is note_off channel=0 note=79 velocity=0 time=17
the msg is note_on channel=0 note=79 velocity=100 time=0
the msg is note_off channel=0 note=76 velocity=0 time=17
the msg is note_on channel=0 note=76 velocity=100 time=0
the msg is note_off channel=0 note=74 velocity=0 time=4
the msg is note_on channel=0 note=74 velocity=100 time=0
the msg is note_off channel=0 note=72 velocity=0 time=12
the msg is note_on channel=0 note=72 velocity=100 time=0
the msg is note_off channel=0 note=72 velocity=0 time=89
the msg is note_on channel=0 note=72 velocity=100 time=0
the msg is note_off channel=0 note=72 velocity=0 time=12
the msg is note_on channel=0 note=72 velocity=100 time=0
the msg is note_off channel=0 note=74 velocity=0 time=25
the msg is note_on channel=0 note=74 velocity=100 time=0
the msg is note_off channel=0 note=74 velocity=0 time=25
the msg is note_on channel=0 note=74 velocity=100 time=0
the msg is note_off channel=0 note=74 velocity=0 time=12
the msg is note_on channel=0 note=74 velocity=100 time=0
the msg is note_off channel=0 note=76 velocity=0 time=25
the msg is note_on channel=0 note=76 velocity=100 time=0
the msg is note_off channel=0 note=79 velocity=0 time=25
the msg is note_on channel=0 note=79 velocity=100 time=0
the msg is note_off channel=0 note=79 velocity=0 time=12
the msg is note_on channel=0 note=79 velocity=100 time=0
the msg is note_off channel=0 note=76 velocity=0 time=12
the msg is note_on channel=0 note=76 velocity=100 time=0
the msg is note_off channel=0 note=74 velocity=0 time=12
the msg is note_on channel=0 note=74 velocity=100 time=0
the msg is note_off channel=0 note=72 velocity=0 time=12
the msg is note_on channel=0 note=72 velocity=100 time=0
the msg is note_off channel=0 note=74 velocity=0 time=25
the msg is note_on channel=0 note=74 velocity=100 time=0
the msg is note_off channel=0 note=76 velocity=0 time=25
the msg is note_on channel=0 note=76 velocity=100 time=0
the msg is note_off channel=0 note=79 velocity=0 time=25
the msg is note_on channel=0 note=79 velocity=100 time=0
the msg is note_off channel=0 note=79 velocity=0 time=12
the msg is note_on channel=0 note=79 velocity=100 time=0
the msg is note_off channel=0 note=76 velocity=0 time=12
the msg is note_on channel=0 note=76 velocity=100 time=0
the msg is note_off channel=0 note=74 velocity=0 time=12
the msg is note_on channel=0 note=74 velocity=100 time=0
the msg is note_off channel=0 note=72 velocity=0 time=12
the msg is note_on channel=0 note=72 velocity=100 time=0
the msg is note_off channel=0 note=74 velocity=0 time=25
the msg is note_on channel=0 note=74 velocity=100 time=0
the msg is note_off channel=0 note=74 velocity=0 time=12
the msg is note_on channel=0 note=74 velocity=100 time=0
the msg is note_off channel=0 note=74 velocity=0 time=12
the msg is note_on channel=0 note=74 velocity=100 time=0
the msg is note_off channel=0 note=74 velocity=0 time=25
the msg is note_on channel=0 note=74 velocity=100 time=0
the msg is note_off channel=0 note=74 velocity=0 time=25
the msg is note_on channel=0 note=74 velocity=100 time=0
the msg is note_off channel=0 note=76 velocity=0 time=25
the msg is note_on channel=0 note=76 velocity=100 time=0
the msg is note_off channel=0 note=79 velocity=0 time=25
the msg is note_on channel=0 note=79 velocity=100 time=0
the msg is note_off channel=0 note=79 velocity=0 time=12
the msg is note_on channel=0 note=79 velocity=100 time=0
the msg is note_off channel=0 note=76 velocity=0 time=12
the msg is note_on channel=0 note=76 velocity=100 time=0
the msg is note_off channel=0 note=74 velocity=0 time=12
the msg is note_on channel=0 note=74 velocity=100 time=0
the msg is note_off channel=0 note=72 velocity=0 time=12
the msg is note_on channel=0 note=72 velocity=100 time=0
the msg is note_off channel=0 note=72 velocity=0 time=81
the msg is note_on channel=0 note=72 velocity=100 time=0
the msg is note_off channel=0 note=72 velocity=0 time=8
the msg is note_on channel=0 note=72 velocity=100 time=0
the msg is note_off channel=0 note=74 velocity=0 time=25
the msg is note_on channel=0 note=74 velocity=100 time=0
the msg is note_off channel=0 note=74 velocity=0 time=25
the msg is note_on channel=0 note=74 velocity=100 time=0
the msg is note_off channel=0 note=74 velocity=0 time=25
the msg is note_on channel=0 note=74 velocity=100 time=0
the msg is note_off channel=0 note=74 velocity=0 time=25
the msg is note_on channel=0 note=74 velocity=100 time=0
the msg is note_off channel=0 note=74 velocity=0 time=25
the msg is note_on channel=0 note=74 velocity=100 time=0
the msg is note_off channel=0 note=74 velocity=0 time=25
the msg is note_on channel=0 note=74 velocity=100 time=0
the msg is note_off channel=0 note=76 velocity=0 time=25
the msg is note_on channel=0 note=76 velocity=100 time=0
the msg is note_off channel=0 note=79 velocity=0 time=25
the msg is note_on channel=0 note=79 velocity=100 time=0
the msg is note_off channel=0 note=79 velocity=0 time=12
the msg is note_on channel=0 note=79 velocity=100 time=0
the msg is note_off channel=0 note=76 velocity=0 time=12
the msg is note_on channel=0 note=76 velocity=100 time=0
the msg is note_off channel=0 note=74 velocity=0 time=17
the msg is note_on channel=0 note=74 velocity=100 time=0
the msg is note_off channel=0 note=72 velocity=0 time=8
the msg is note_on channel=0 note=72 velocity=100 time=0
the msg is note_off channel=0 note=72 velocity=0 time=25
the msg is note_on channel=0 note=72 velocity=100 time=0
the msg is note_off channel=0 note=72 velocity=0 time=25
the msg is note_on channel=0 note=72 velocity=100 time=0
the msg is note_off channel=0 note=72 velocity=0 time=12
the msg is note_on channel=0 note=72 velocity=100 time=0
the msg is note_off channel=0 note=72 velocity=0 time=29
the msg is note_on channel=0 note=72 velocity=100 time=0
the msg is note_off channel=0 note=72 velocity=0 time=8
the msg is note_on channel=0 note=72 velocity=100 time=0
the msg is note_off channel=0 note=72 velocity=0 time=25
the msg is note_on channel=0 note=72 velocity=100 time=0
the msg is note_off channel=0 note=72 velocity=0 time=12
the msg is note_on channel=0 note=72 velocity=100 time=0
the msg is note_off channel=0 note=72 velocity=0 time=12
the msg is note_on channel=0 note=72 velocity=100 time=0
the msg is note_off channel=0 note=72 velocity=0 time=12
the msg is note_on channel=0 note=72 velocity=100 time=0
the msg is note_off channel=0 note=76 velocity=0 time=12
the msg is note_on channel=0 note=76 velocity=100 time=0
the msg is note_off channel=0 note=79 velocity=0 time=25
the msg is note_on channel=0 note=79 velocity=100 time=0
the msg is note_off channel=0 note=79 velocity=0 time=12
the msg is note_on channel=0 note=79 velocity=100 time=0
the msg is note_off channel=0 note=76 velocity=0 time=12
the msg is note_on channel=0 note=76 velocity=100 time=0
the msg is note_off channel=0 note=74 velocity=0 time=12
the msg is note_on channel=0 note=74 velocity=100 time=0
the msg is note_off channel=0 note=72 velocity=0 time=12
the msg is note_on channel=0 note=72 velocity=100 time=0
the msg is note_off channel=0 note=72 velocity=0 time=76
the msg is note_on channel=0 note=72 velocity=100 time=0
the msg is note_off channel=0 note=72 velocity=0 time=12
the msg is note_on channel=0 note=72 velocity=100 time=0
the msg is note_off channel=0 note=72 velocity=0 time=12
the msg is note_on channel=0 note=72 velocity=100 time=0
the msg is note_off channel=0 note=72 velocity=0 time=8
the msg is note_on channel=0 note=72 velocity=100 time=0
the msg is note_off channel=0 note=72 velocity=0 time=17
the msg is note_on channel=0 note=72 velocity=100 time=0
the msg is note_off channel=0 note=72 velocity=0 time=12
the msg is note_on channel=0 note=72 velocity=100 time=0
the msg is note_off channel=0 note=72 velocity=0 time=12
the msg is note_on channel=0 note=72 velocity=100 time=0
the msg is note_off channel=0 note=76 velocity=0 time=8
the msg is note_on channel=0 note=76 velocity=100 time=0
the msg is note_off channel=0 note=79 velocity=0 time=29
the msg is note_on channel=0 note=79 velocity=100 time=0
the msg is note_off channel=0 note=79 velocity=0 time=12
the msg is note_on channel=0 note=79 velocity=100 time=0
the msg is note_off channel=0 note=76 velocity=0 time=8
the msg is note_on channel=0 note=76 velocity=100 time=0
the msg is note_off channel=0 note=74 velocity=0 time=17
the msg is note_on channel=0 note=74 velocity=100 time=0
the msg is <meta message end_of_track time=51>
the msg is <meta message track_name name='Piano' time=0>
the msg is program_change channel=0 program=0 time=0
the msg is note_off channel=0 note=72 velocity=0 time=0
the msg is pitchwheel channel=0 pitch=0 time=0
the msg is program_change channel=0 program=0 time=0
the msg is <meta message set_tempo tempo=500000 time=0>
the msg is <meta message time_signature numerator=4 denominator=4 clocks_per_click=24 notated_32nd_notes_per_beat=8 time=0>
the msg is note_on channel=0 note=72 velocity=100 time=0
the msg is note_off channel=0 note=74 velocity=0 time=34
the msg is note_on channel=0 note=74 velocity=100 time=0
the msg is note_off channel=0 note=74 velocity=0 time=17
the msg is note_on channel=0 note=74 velocity=100 time=0
the msg is note_off channel=0 note=74 velocity=0 time=34
the msg is note_on channel=0 note=74 velocity=100 time=0
the msg is note_off channel=0 note=74 velocity=0 time=17
the msg is note_on channel=0 note=74 velocity=100 time=0
the msg is note_off channel=0 note=76 velocity=0 time=34
the msg is note_on channel=0 note=76 velocity=100 time=0
the msg is note_off channel=0 note=79 velocity=0 time=17
the msg is note_on channel=0 note=79 velocity=100 time=0
the msg is note_off channel=0 note=79 velocity=0 time=17
the msg is note_on channel=0 note=79 velocity=100 time=0
the msg is note_off channel=0 note=76 velocity=0 time=17
the msg is note_on channel=0 note=76 velocity=100 time=0
the msg is note_off channel=0 note=74 velocity=0 time=4
the msg is note_on channel=0 note=74 velocity=100 time=0
the msg is note_off channel=0 note=72 velocity=0 time=12
the msg is note_on channel=0 note=72 velocity=100 time=0
the msg is note_off channel=0 note=72 velocity=0 time=89
the msg is note_on channel=0 note=72 velocity=100 time=0
the msg is note_off channel=0 note=72 velocity=0 time=12
the msg is note_on channel=0 note=72 velocity=100 time=0
the msg is note_off channel=0 note=74 velocity=0 time=25
the msg is note_on channel=0 note=74 velocity=100 time=0
the msg is note_off channel=0 note=74 velocity=0 time=25
the msg is note_on channel=0 note=74 velocity=100 time=0
the msg is note_off channel=0 note=74 velocity=0 time=12
the msg is note_on channel=0 note=74 velocity=100 time=0
the msg is note_off channel=0 note=76 velocity=0 time=25
the msg is note_on channel=0 note=76 velocity=100 time=0
the msg is note_off channel=0 note=79 velocity=0 time=25
the msg is note_on channel=0 note=79 velocity=100 time=0
the msg is note_off channel=0 note=79 velocity=0 time=12
the msg is note_on channel=0 note=79 velocity=100 time=0
the msg is note_off channel=0 note=76 velocity=0 time=12
the msg is note_on channel=0 note=76 velocity=100 time=0
the msg is note_off channel=0 note=74 velocity=0 time=12
the msg is note_on channel=0 note=74 velocity=100 time=0
the msg is note_off channel=0 note=72 velocity=0 time=12
the msg is note_on channel=0 note=72 velocity=100 time=0
the msg is note_off channel=0 note=74 velocity=0 time=25
the msg is note_on channel=0 note=74 velocity=100 time=0
the msg is note_off channel=0 note=76 velocity=0 time=25
the msg is note_on channel=0 note=76 velocity=100 time=0
the msg is note_off channel=0 note=79 velocity=0 time=25
the msg is note_on channel=0 note=79 velocity=100 time=0
the msg is note_off channel=0 note=79 velocity=0 time=12
the msg is note_on channel=0 note=79 velocity=100 time=0
the msg is note_off channel=0 note=76 velocity=0 time=12
the msg is note_on channel=0 note=76 velocity=100 time=0
the msg is note_off channel=0 note=74 velocity=0 time=12
the msg is note_on channel=0 note=74 velocity=100 time=0
the msg is note_off channel=0 note=72 velocity=0 time=12
the msg is note_on channel=0 note=72 velocity=100 time=0
the msg is note_off channel=0 note=74 velocity=0 time=25
the msg is note_on channel=0 note=74 velocity=100 time=0
the msg is note_off channel=0 note=74 velocity=0 time=12
the msg is note_on channel=0 note=74 velocity=100 time=0
the msg is note_off channel=0 note=74 velocity=0 time=12
the msg is note_on channel=0 note=74 velocity=100 time=0
the msg is note_off channel=0 note=74 velocity=0 time=25
the msg is note_on channel=0 note=74 velocity=100 time=0
the msg is note_off channel=0 note=74 velocity=0 time=25
the msg is note_on channel=0 note=74 velocity=100 time=0
the msg is note_off channel=0 note=76 velocity=0 time=25
the msg is note_on channel=0 note=76 velocity=100 time=0
the msg is note_off channel=0 note=79 velocity=0 time=25
the msg is note_on channel=0 note=79 velocity=100 time=0
the msg is note_off channel=0 note=79 velocity=0 time=12
the msg is note_on channel=0 note=79 velocity=100 time=0
the msg is note_off channel=0 note=76 velocity=0 time=12
the msg is note_on channel=0 note=76 velocity=100 time=0
the msg is note_off channel=0 note=74 velocity=0 time=12
the msg is note_on channel=0 note=74 velocity=100 time=0
the msg is note_off channel=0 note=72 velocity=0 time=12
the msg is note_on channel=0 note=72 velocity=100 time=0
the msg is note_off channel=0 note=72 velocity=0 time=81
the msg is note_on channel=0 note=72 velocity=100 time=0
the msg is note_off channel=0 note=72 velocity=0 time=8
the msg is note_on channel=0 note=72 velocity=100 time=0
the msg is note_off channel=0 note=74 velocity=0 time=25
the msg is note_on channel=0 note=74 velocity=100 time=0
the msg is note_off channel=0 note=74 velocity=0 time=25
the msg is note_on channel=0 note=74 velocity=100 time=0
the msg is note_off channel=0 note=74 velocity=0 time=25
the msg is note_on channel=0 note=74 velocity=100 time=0
the msg is note_off channel=0 note=74 velocity=0 time=25
the msg is note_on channel=0 note=74 velocity=100 time=0
the msg is note_off channel=0 note=74 velocity=0 time=25
the msg is note_on channel=0 note=74 velocity=100 time=0
the msg is note_off channel=0 note=74 velocity=0 time=25
the msg is note_on channel=0 note=74 velocity=100 time=0
the msg is note_off channel=0 note=76 velocity=0 time=25
the msg is note_on channel=0 note=76 velocity=100 time=0
the msg is note_off channel=0 note=79 velocity=0 time=25
the msg is note_on channel=0 note=79 velocity=100 time=0
the msg is note_off channel=0 note=79 velocity=0 time=12
the msg is note_on channel=0 note=79 velocity=100 time=0
the msg is note_off channel=0 note=76 velocity=0 time=12
the msg is note_on channel=0 note=76 velocity=100 time=0
the msg is note_off channel=0 note=74 velocity=0 time=17
the msg is note_on channel=0 note=74 velocity=100 time=0
the msg is note_off channel=0 note=72 velocity=0 time=8
the msg is note_on channel=0 note=72 velocity=100 time=0
the msg is note_off channel=0 note=72 velocity=0 time=25
the msg is note_on channel=0 note=72 velocity=100 time=0
the msg is note_off channel=0 note=72 velocity=0 time=25
the msg is note_on channel=0 note=72 velocity=100 time=0
the msg is note_off channel=0 note=72 velocity=0 time=12
the msg is note_on channel=0 note=72 velocity=100 time=0
the msg is note_off channel=0 note=72 velocity=0 time=29
the msg is note_on channel=0 note=72 velocity=100 time=0
the msg is note_off channel=0 note=72 velocity=0 time=8
the msg is note_on channel=0 note=72 velocity=100 time=0
the msg is note_off channel=0 note=72 velocity=0 time=25
the msg is note_on channel=0 note=72 velocity=100 time=0
the msg is note_off channel=0 note=72 velocity=0 time=12
the msg is note_on channel=0 note=72 velocity=100 time=0
the msg is note_off channel=0 note=72 velocity=0 time=12
the msg is note_on channel=0 note=72 velocity=100 time=0
the msg is note_off channel=0 note=72 velocity=0 time=12
the msg is note_on channel=0 note=72 velocity=100 time=0
the msg is note_off channel=0 note=76 velocity=0 time=12
the msg is note_on channel=0 note=76 velocity=100 time=0
the msg is note_off channel=0 note=79 velocity=0 time=25
the msg is note_on channel=0 note=79 velocity=100 time=0
the msg is note_off channel=0 note=79 velocity=0 time=12
the msg is note_on channel=0 note=79 velocity=100 time=0
the msg is note_off channel=0 note=76 velocity=0 time=12
the msg is note_on channel=0 note=76 velocity=100 time=0
the msg is note_off channel=0 note=74 velocity=0 time=12
the msg is note_on channel=0 note=74 velocity=100 time=0
the msg is note_off channel=0 note=72 velocity=0 time=12
the msg is note_on channel=0 note=72 velocity=100 time=0
the msg is note_off channel=0 note=72 velocity=0 time=76
the msg is note_on channel=0 note=72 velocity=100 time=0
the msg is note_off channel=0 note=72 velocity=0 time=12
the msg is note_on channel=0 note=72 velocity=100 time=0
the msg is note_off channel=0 note=72 velocity=0 time=12
the msg is note_on channel=0 note=72 velocity=100 time=0
the msg is note_off channel=0 note=72 velocity=0 time=8
the msg is note_on channel=0 note=72 velocity=100 time=0
the msg is note_off channel=0 note=72 velocity=0 time=17
the msg is note_on channel=0 note=72 velocity=100 time=0
the msg is note_off channel=0 note=72 velocity=0 time=12
the msg is note_on channel=0 note=72 velocity=100 time=0
the msg is note_off channel=0 note=72 velocity=0 time=12
the msg is note_on channel=0 note=72 velocity=100 time=0
the msg is note_off channel=0 note=76 velocity=0 time=8
the msg is note_on channel=0 note=76 velocity=100 time=0
the msg is note_off channel=0 note=79 velocity=0 time=29
the msg is note_on channel=0 note=79 velocity=100 time=0
the msg is note_off channel=0 note=79 velocity=0 time=12
the msg is note_on channel=0 note=79 velocity=100 time=0
the msg is note_off channel=0 note=76 velocity=0 time=8
the msg is note_on channel=0 note=76 velocity=100 time=0
the msg is note_off channel=0 note=74 velocity=0 time=17
the msg is note_on channel=0 note=74 velocity=100 time=0
the msg is <meta message end_of_track time=51>
the msg is <meta message track_name name='Piano' time=0>
the msg is program_change channel=0 program=0 time=0
the msg is note_off channel=0 note=72 velocity=0 time=0
the msg is pitchwheel channel=0 pitch=0 time=0
the msg is program_change channel=0 program=0 time=0
the msg is <meta message set_tempo tempo=500000 time=0>
the msg is <meta message time_signature numerator=4 denominator=4 clocks_per_click=24 notated_32nd_notes_per_beat=8 time=0>
the msg is note_on channel=0 note=72 velocity=100 time=0
the msg is note_off channel=0 note=74 velocity=0 time=34
the msg is note_on channel=0 note=74 velocity=100 time=0
the msg is note_off channel=0 note=74 velocity=0 time=17
the msg is note_on channel=0 note=74 velocity=100 time=0
the msg is note_off channel=0 note=74 velocity=0 time=34
the msg is note_on channel=0 note=74 velocity=100 time=0
the msg is note_off channel=0 note=74 velocity=0 time=17
the msg is note_on channel=0 note=74 velocity=100 time=0
the msg is note_off channel=0 note=76 velocity=0 time=34
the msg is note_on channel=0 note=76 velocity=100 time=0
the msg is note_off channel=0 note=79 velocity=0 time=17
the msg is note_on channel=0 note=79 velocity=100 time=0
the msg is note_off channel=0 note=79 velocity=0 time=17
the msg is note_on channel=0 note=79 velocity=100 time=0
the msg is note_off channel=0 note=76 velocity=0 time=17
the msg is note_on channel=0 note=76 velocity=100 time=0
the msg is note_off channel=0 note=74 velocity=0 time=4
the msg is note_on channel=0 note=74 velocity=100 time=0
the msg is note_off channel=0 note=72 velocity=0 time=12
the msg is note_on channel=0 note=72 velocity=100 time=0
the msg is note_off channel=0 note=72 velocity=0 time=89
the msg is note_on channel=0 note=72 velocity=100 time=0
the msg is note_off channel=0 note=72 velocity=0 time=12
the msg is note_on channel=0 note=72 velocity=100 time=0
the msg is note_off channel=0 note=74 velocity=0 time=25
the msg is note_on channel=0 note=74 velocity=100 time=0
the msg is note_off channel=0 note=74 velocity=0 time=25
the msg is note_on channel=0 note=74 velocity=100 time=0
the msg is note_off channel=0 note=74 velocity=0 time=12
the msg is note_on channel=0 note=74 velocity=100 time=0
the msg is note_off channel=0 note=76 velocity=0 time=25
the msg is note_on channel=0 note=76 velocity=100 time=0
the msg is note_off channel=0 note=79 velocity=0 time=25
the msg is note_on channel=0 note=79 velocity=100 time=0
the msg is note_off channel=0 note=79 velocity=0 time=12
the msg is note_on channel=0 note=79 velocity=100 time=0
the msg is note_off channel=0 note=76 velocity=0 time=12
the msg is note_on channel=0 note=76 velocity=100 time=0
the msg is note_off channel=0 note=74 velocity=0 time=12
the msg is note_on channel=0 note=74 velocity=100 time=0
the msg is note_off channel=0 note=72 velocity=0 time=12
the msg is note_on channel=0 note=72 velocity=100 time=0
the msg is note_off channel=0 note=74 velocity=0 time=25
the msg is note_on channel=0 note=74 velocity=100 time=0
the msg is note_off channel=0 note=76 velocity=0 time=25
the msg is note_on channel=0 note=76 velocity=100 time=0
the msg is note_off channel=0 note=79 velocity=0 time=25
the msg is note_on channel=0 note=79 velocity=100 time=0
the msg is note_off channel=0 note=79 velocity=0 time=12
the msg is note_on channel=0 note=79 velocity=100 time=0
the msg is note_off channel=0 note=76 velocity=0 time=12
the msg is note_on channel=0 note=76 velocity=100 time=0
the msg is note_off channel=0 note=74 velocity=0 time=12
the msg is note_on channel=0 note=74 velocity=100 time=0
the msg is note_off channel=0 note=72 velocity=0 time=12
the msg is note_on channel=0 note=72 velocity=100 time=0
the msg is note_off channel=0 note=74 velocity=0 time=25
the msg is note_on channel=0 note=74 velocity=100 time=0
the msg is note_off channel=0 note=74 velocity=0 time=12
the msg is note_on channel=0 note=74 velocity=100 time=0
the msg is note_off channel=0 note=74 velocity=0 time=12
the msg is note_on channel=0 note=74 velocity=100 time=0
the msg is note_off channel=0 note=74 velocity=0 time=25
the msg is note_on channel=0 note=74 velocity=100 time=0
the msg is note_off channel=0 note=74 velocity=0 time=25
the msg is note_on channel=0 note=74 velocity=100 time=0
the msg is note_off channel=0 note=76 velocity=0 time=25
the msg is note_on channel=0 note=76 velocity=100 time=0
the msg is note_off channel=0 note=79 velocity=0 time=25
the msg is note_on channel=0 note=79 velocity=100 time=0
the msg is note_off channel=0 note=79 velocity=0 time=12
the msg is note_on channel=0 note=79 velocity=100 time=0
the msg is note_off channel=0 note=76 velocity=0 time=12
the msg is note_on channel=0 note=76 velocity=100 time=0
the msg is note_off channel=0 note=74 velocity=0 time=12
the msg is note_on channel=0 note=74 velocity=100 time=0
the msg is note_off channel=0 note=72 velocity=0 time=12
the msg is note_on channel=0 note=72 velocity=100 time=0
the msg is note_off channel=0 note=72 velocity=0 time=81
the msg is note_on channel=0 note=72 velocity=100 time=0
the msg is note_off channel=0 note=72 velocity=0 time=8
the msg is note_on channel=0 note=72 velocity=100 time=0
the msg is note_off channel=0 note=74 velocity=0 time=25
the msg is note_on channel=0 note=74 velocity=100 time=0
the msg is note_off channel=0 note=74 velocity=0 time=25
the msg is note_on channel=0 note=74 velocity=100 time=0
the msg is note_off channel=0 note=74 velocity=0 time=25
the msg is note_on channel=0 note=74 velocity=100 time=0
the msg is note_off channel=0 note=74 velocity=0 time=25
the msg is note_on channel=0 note=74 velocity=100 time=0
the msg is note_off channel=0 note=74 velocity=0 time=25
the msg is note_on channel=0 note=74 velocity=100 time=0
the msg is note_off channel=0 note=74 velocity=0 time=25
the msg is note_on channel=0 note=74 velocity=100 time=0
the msg is note_off channel=0 note=76 velocity=0 time=25
the msg is note_on channel=0 note=76 velocity=100 time=0
the msg is note_off channel=0 note=79 velocity=0 time=25
the msg is note_on channel=0 note=79 velocity=100 time=0
the msg is note_off channel=0 note=79 velocity=0 time=12
the msg is note_on channel=0 note=79 velocity=100 time=0
the msg is note_off channel=0 note=76 velocity=0 time=12
the msg is note_on channel=0 note=76 velocity=100 time=0
the msg is note_off channel=0 note=74 velocity=0 time=17
the msg is note_on channel=0 note=74 velocity=100 time=0
the msg is note_off channel=0 note=72 velocity=0 time=8
the msg is note_on channel=0 note=72 velocity=100 time=0
the msg is note_off channel=0 note=72 velocity=0 time=25
the msg is note_on channel=0 note=72 velocity=100 time=0
the msg is note_off channel=0 note=72 velocity=0 time=25
the msg is note_on channel=0 note=72 velocity=100 time=0
the msg is note_off channel=0 note=72 velocity=0 time=12
the msg is note_on channel=0 note=72 velocity=100 time=0
the msg is note_off channel=0 note=72 velocity=0 time=29
the msg is note_on channel=0 note=72 velocity=100 time=0
the msg is note_off channel=0 note=72 velocity=0 time=8
the msg is note_on channel=0 note=72 velocity=100 time=0
the msg is note_off channel=0 note=72 velocity=0 time=25
the msg is note_on channel=0 note=72 velocity=100 time=0
the msg is note_off channel=0 note=72 velocity=0 time=12
the msg is note_on channel=0 note=72 velocity=100 time=0
the msg is note_off channel=0 note=72 velocity=0 time=12
the msg is note_on channel=0 note=72 velocity=100 time=0
the msg is note_off channel=0 note=72 velocity=0 time=12
the msg is note_on channel=0 note=72 velocity=100 time=0
the msg is note_off channel=0 note=76 velocity=0 time=12
the msg is note_on channel=0 note=76 velocity=100 time=0
the msg is note_off channel=0 note=79 velocity=0 time=25
the msg is note_on channel=0 note=79 velocity=100 time=0
the msg is note_off channel=0 note=79 velocity=0 time=12
the msg is note_on channel=0 note=79 velocity=100 time=0
the msg is note_off channel=0 note=76 velocity=0 time=12
the msg is note_on channel=0 note=76 velocity=100 time=0
the msg is note_off channel=0 note=74 velocity=0 time=12
the msg is note_on channel=0 note=74 velocity=100 time=0
the msg is note_off channel=0 note=72 velocity=0 time=12
the msg is note_on channel=0 note=72 velocity=100 time=0
the msg is note_off channel=0 note=72 velocity=0 time=76
the msg is note_on channel=0 note=72 velocity=100 time=0
the msg is note_off channel=0 note=72 velocity=0 time=12
the msg is note_on channel=0 note=72 velocity=100 time=0
the msg is note_off channel=0 note=72 velocity=0 time=12
the msg is note_on channel=0 note=72 velocity=100 time=0
the msg is note_off channel=0 note=72 velocity=0 time=8
the msg is note_on channel=0 note=72 velocity=100 time=0
the msg is note_off channel=0 note=72 velocity=0 time=17
the msg is note_on channel=0 note=72 velocity=100 time=0
the msg is note_off channel=0 note=72 velocity=0 time=12
the msg is note_on channel=0 note=72 velocity=100 time=0
the msg is note_off channel=0 note=72 velocity=0 time=12
the msg is note_on channel=0 note=72 velocity=100 time=0
the msg is note_off channel=0 note=76 velocity=0 time=8
the msg is note_on channel=0 note=76 velocity=100 time=0
the msg is note_off channel=0 note=79 velocity=0 time=29
the msg is note_on channel=0 note=79 velocity=100 time=0
the msg is note_off channel=0 note=79 velocity=0 time=12
the msg is note_on channel=0 note=79 velocity=100 time=0
the msg is note_off channel=0 note=76 velocity=0 time=8
the msg is note_on channel=0 note=76 velocity=100 time=0
the msg is note_off channel=0 note=74 velocity=0 time=17
the msg is note_on channel=0 note=74 velocity=100 time=0
the msg is <meta message end_of_track time=51>
the msg is <meta message track_name name='Piano' time=0>
the msg is program_change channel=0 program=0 time=0
the msg is note_off channel=0 note=72 velocity=0 time=0
the msg is pitchwheel channel=0 pitch=0 time=0
the msg is program_change channel=0 program=0 time=0
the msg is <meta message set_tempo tempo=500000 time=0>
the msg is <meta message time_signature numerator=4 denominator=4 clocks_per_click=24 notated_32nd_notes_per_beat=8 time=0>
the msg is note_on channel=0 note=72 velocity=100 time=0
the msg is note_off channel=0 note=74 velocity=0 time=34
the msg is note_on channel=0 note=74 velocity=100 time=0
the msg is note_off channel=0 note=74 velocity=0 time=17
the msg is note_on channel=0 note=74 velocity=100 time=0
the msg is note_off channel=0 note=74 velocity=0 time=34
the msg is note_on channel=0 note=74 velocity=100 time=0
the msg is note_off channel=0 note=74 velocity=0 time=17
the msg is note_on channel=0 note=74 velocity=100 time=0
the msg is note_off channel=0 note=76 velocity=0 time=34
the msg is note_on channel=0 note=76 velocity=100 time=0
the msg is note_off channel=0 note=79 velocity=0 time=17
the msg is note_on channel=0 note=79 velocity=100 time=0
the msg is note_off channel=0 note=79 velocity=0 time=17
the msg is note_on channel=0 note=79 velocity=100 time=0
the msg is note_off channel=0 note=76 velocity=0 time=17
the msg is note_on channel=0 note=76 velocity=100 time=0
the msg is note_off channel=0 note=74 velocity=0 time=4
the msg is note_on channel=0 note=74 velocity=100 time=0
the msg is note_off channel=0 note=72 velocity=0 time=12
the msg is note_on channel=0 note=72 velocity=100 time=0
the msg is note_off channel=0 note=72 velocity=0 time=89
the msg is note_on channel=0 note=72 velocity=100 time=0
the msg is note_off channel=0 note=72 velocity=0 time=12
the msg is note_on channel=0 note=72 velocity=100 time=0
the msg is note_off channel=0 note=74 velocity=0 time=25
the msg is note_on channel=0 note=74 velocity=100 time=0
the msg is note_off channel=0 note=74 velocity=0 time=25
the msg is note_on channel=0 note=74 velocity=100 time=0
the msg is note_off channel=0 note=74 velocity=0 time=12
the msg is note_on channel=0 note=74 velocity=100 time=0
the msg is note_off channel=0 note=76 velocity=0 time=25
the msg is note_on channel=0 note=76 velocity=100 time=0
the msg is note_off channel=0 note=79 velocity=0 time=25
the msg is note_on channel=0 note=79 velocity=100 time=0
the msg is note_off channel=0 note=79 velocity=0 time=12
the msg is note_on channel=0 note=79 velocity=100 time=0
the msg is note_off channel=0 note=76 velocity=0 time=12
the msg is note_on channel=0 note=76 velocity=100 time=0
the msg is note_off channel=0 note=74 velocity=0 time=12
the msg is note_on channel=0 note=74 velocity=100 time=0
the msg is note_off channel=0 note=72 velocity=0 time=12
the msg is note_on channel=0 note=72 velocity=100 time=0
the msg is note_off channel=0 note=74 velocity=0 time=25
the msg is note_on channel=0 note=74 velocity=100 time=0
the msg is note_off channel=0 note=76 velocity=0 time=25
the msg is note_on channel=0 note=76 velocity=100 time=0
the msg is note_off channel=0 note=79 velocity=0 time=25
the msg is note_on channel=0 note=79 velocity=100 time=0
the msg is note_off channel=0 note=79 velocity=0 time=12
the msg is note_on channel=0 note=79 velocity=100 time=0
the msg is note_off channel=0 note=76 velocity=0 time=12
the msg is note_on channel=0 note=76 velocity=100 time=0
the msg is note_off channel=0 note=74 velocity=0 time=12
the msg is note_on channel=0 note=74 velocity=100 time=0
the msg is note_off channel=0 note=72 velocity=0 time=12
the msg is note_on channel=0 note=72 velocity=100 time=0
the msg is note_off channel=0 note=74 velocity=0 time=25
the msg is note_on channel=0 note=74 velocity=100 time=0
the msg is note_off channel=0 note=74 velocity=0 time=12
the msg is note_on channel=0 note=74 velocity=100 time=0
the msg is note_off channel=0 note=74 velocity=0 time=12
the msg is note_on channel=0 note=74 velocity=100 time=0
the msg is note_off channel=0 note=74 velocity=0 time=25
the msg is note_on channel=0 note=74 velocity=100 time=0
the msg is note_off channel=0 note=74 velocity=0 time=25
the msg is note_on channel=0 note=74 velocity=100 time=0
the msg is note_off channel=0 note=76 velocity=0 time=25
the msg is note_on channel=0 note=76 velocity=100 time=0
the msg is note_off channel=0 note=79 velocity=0 time=25
the msg is note_on channel=0 note=79 velocity=100 time=0
the msg is note_off channel=0 note=79 velocity=0 time=12
the msg is note_on channel=0 note=79 velocity=100 time=0
the msg is note_off channel=0 note=76 velocity=0 time=12
the msg is note_on channel=0 note=76 velocity=100 time=0
the msg is note_off channel=0 note=74 velocity=0 time=12
the msg is note_on channel=0 note=74 velocity=100 time=0
the msg is note_off channel=0 note=72 velocity=0 time=12
the msg is note_on channel=0 note=72 velocity=100 time=0
the msg is note_off channel=0 note=72 velocity=0 time=81
the msg is note_on channel=0 note=72 velocity=100 time=0
the msg is note_off channel=0 note=72 velocity=0 time=8
the msg is note_on channel=0 note=72 velocity=100 time=0
the msg is note_off channel=0 note=74 velocity=0 time=25
the msg is note_on channel=0 note=74 velocity=100 time=0
the msg is note_off channel=0 note=74 velocity=0 time=25
the msg is note_on channel=0 note=74 velocity=100 time=0
the msg is note_off channel=0 note=74 velocity=0 time=25
the msg is note_on channel=0 note=74 velocity=100 time=0
the msg is note_off channel=0 note=74 velocity=0 time=25
the msg is note_on channel=0 note=74 velocity=100 time=0
the msg is note_off channel=0 note=74 velocity=0 time=25
the msg is note_on channel=0 note=74 velocity=100 time=0
the msg is note_off channel=0 note=74 velocity=0 time=25
the msg is note_on channel=0 note=74 velocity=100 time=0
the msg is note_off channel=0 note=76 velocity=0 time=25
the msg is note_on channel=0 note=76 velocity=100 time=0
the msg is note_off channel=0 note=79 velocity=0 time=25
the msg is note_on channel=0 note=79 velocity=100 time=0
the msg is note_off channel=0 note=79 velocity=0 time=12
the msg is note_on channel=0 note=79 velocity=100 time=0
the msg is note_off channel=0 note=76 velocity=0 time=12
the msg is note_on channel=0 note=76 velocity=100 time=0
the msg is note_off channel=0 note=74 velocity=0 time=17
the msg is note_on channel=0 note=74 velocity=100 time=0
the msg is note_off channel=0 note=72 velocity=0 time=8
the msg is note_on channel=0 note=72 velocity=100 time=0
the msg is note_off channel=0 note=72 velocity=0 time=25
the msg is note_on channel=0 note=72 velocity=100 time=0
the msg is note_off channel=0 note=72 velocity=0 time=25
the msg is note_on channel=0 note=72 velocity=100 time=0
the msg is note_off channel=0 note=72 velocity=0 time=12
the msg is note_on channel=0 note=72 velocity=100 time=0
the msg is note_off channel=0 note=72 velocity=0 time=29
the msg is note_on channel=0 note=72 velocity=100 time=0
the msg is note_off channel=0 note=72 velocity=0 time=8
the msg is note_on channel=0 note=72 velocity=100 time=0
the msg is note_off channel=0 note=72 velocity=0 time=25
the msg is note_on channel=0 note=72 velocity=100 time=0
the msg is note_off channel=0 note=72 velocity=0 time=12
the msg is note_on channel=0 note=72 velocity=100 time=0
the msg is note_off channel=0 note=72 velocity=0 time=12
the msg is note_on channel=0 note=72 velocity=100 time=0
the msg is note_off channel=0 note=72 velocity=0 time=12
the msg is note_on channel=0 note=72 velocity=100 time=0
the msg is note_off channel=0 note=76 velocity=0 time=12
the msg is note_on channel=0 note=76 velocity=100 time=0
the msg is note_off channel=0 note=79 velocity=0 time=25
the msg is note_on channel=0 note=79 velocity=100 time=0
the msg is note_off channel=0 note=79 velocity=0 time=12
the msg is note_on channel=0 note=79 velocity=100 time=0
the msg is note_off channel=0 note=76 velocity=0 time=12
the msg is note_on channel=0 note=76 velocity=100 time=0
the msg is note_off channel=0 note=74 velocity=0 time=12
the msg is note_on channel=0 note=74 velocity=100 time=0
the msg is note_off channel=0 note=72 velocity=0 time=12
the msg is note_on channel=0 note=72 velocity=100 time=0
the msg is note_off channel=0 note=72 velocity=0 time=76
the msg is note_on channel=0 note=72 velocity=100 time=0
the msg is note_off channel=0 note=72 velocity=0 time=12
the msg is note_on channel=0 note=72 velocity=100 time=0
the msg is note_off channel=0 note=72 velocity=0 time=12
the msg is note_on channel=0 note=72 velocity=100 time=0
the msg is note_off channel=0 note=72 velocity=0 time=8
the msg is note_on channel=0 note=72 velocity=100 time=0
the msg is note_off channel=0 note=72 velocity=0 time=17
the msg is note_on channel=0 note=72 velocity=100 time=0
the msg is note_off channel=0 note=72 velocity=0 time=12
the msg is note_on channel=0 note=72 velocity=100 time=0
the msg is note_off channel=0 note=72 velocity=0 time=12
the msg is note_on channel=0 note=72 velocity=100 time=0
the msg is note_off channel=0 note=76 velocity=0 time=8
the msg is note_on channel=0 note=76 velocity=100 time=0
the msg is note_off channel=0 note=79 velocity=0 time=29
the msg is note_on channel=0 note=79 velocity=100 time=0
the msg is note_off channel=0 note=79 velocity=0 time=12
the msg is note_on channel=0 note=79 velocity=100 time=0
the msg is note_off channel=0 note=76 velocity=0 time=8
the msg is note_on channel=0 note=76 velocity=100 time=0
the msg is note_off channel=0 note=74 velocity=0 time=17
the msg is note_on channel=0 note=74 velocity=100 time=0
the msg is <meta message end_of_track time=51>
the msg is <meta message track_name name='Piano' time=0>
the msg is program_change channel=0 program=0 time=0
the msg is note_off channel=0 note=72 velocity=0 time=0
the msg is pitchwheel channel=0 pitch=0 time=0
the msg is program_change channel=0 program=0 time=0
the msg is <meta message set_tempo tempo=500000 time=0>
the msg is <meta message time_signature numerator=4 denominator=4 clocks_per_click=24 notated_32nd_notes_per_beat=8 time=0>
the msg is note_on channel=0 note=72 velocity=100 time=0
the msg is note_off channel=0 note=74 velocity=0 time=34
the msg is note_on channel=0 note=74 velocity=100 time=0
the msg is note_off channel=0 note=74 velocity=0 time=17
the msg is note_on channel=0 note=74 velocity=100 time=0
the msg is note_off channel=0 note=74 velocity=0 time=34
the msg is note_on channel=0 note=74 velocity=100 time=0
the msg is note_off channel=0 note=74 velocity=0 time=17
the msg is note_on channel=0 note=74 velocity=100 time=0
the msg is note_off channel=0 note=76 velocity=0 time=34
the msg is note_on channel=0 note=76 velocity=100 time=0
the msg is note_off channel=0 note=79 velocity=0 time=17
the msg is note_on channel=0 note=79 velocity=100 time=0
the msg is note_off channel=0 note=79 velocity=0 time=17
the msg is note_on channel=0 note=79 velocity=100 time=0
the msg is note_off channel=0 note=76 velocity=0 time=17
the msg is note_on channel=0 note=76 velocity=100 time=0
the msg is note_off channel=0 note=74 velocity=0 time=4
the msg is note_on channel=0 note=74 velocity=100 time=0
the msg is note_off channel=0 note=72 velocity=0 time=12
the msg is note_on channel=0 note=72 velocity=100 time=0
the msg is note_off channel=0 note=72 velocity=0 time=89
the msg is note_on channel=0 note=72 velocity=100 time=0
the msg is note_off channel=0 note=72 velocity=0 time=12
the msg is note_on channel=0 note=72 velocity=100 time=0
the msg is note_off channel=0 note=74 velocity=0 time=25
the msg is note_on channel=0 note=74 velocity=100 time=0
the msg is note_off channel=0 note=74 velocity=0 time=25
the msg is note_on channel=0 note=74 velocity=100 time=0
the msg is note_off channel=0 note=74 velocity=0 time=12
the msg is note_on channel=0 note=74 velocity=100 time=0
the msg is note_off channel=0 note=76 velocity=0 time=25
the msg is note_on channel=0 note=76 velocity=100 time=0
the msg is note_off channel=0 note=79 velocity=0 time=25
the msg is note_on channel=0 note=79 velocity=100 time=0
the msg is note_off channel=0 note=79 velocity=0 time=12
the msg is note_on channel=0 note=79 velocity=100 time=0
the msg is note_off channel=0 note=76 velocity=0 time=12
the msg is note_on channel=0 note=76 velocity=100 time=0
the msg is note_off channel=0 note=74 velocity=0 time=12
the msg is note_on channel=0 note=74 velocity=100 time=0
the msg is note_off channel=0 note=72 velocity=0 time=12
the msg is note_on channel=0 note=72 velocity=100 time=0
the msg is note_off channel=0 note=74 velocity=0 time=25
the msg is note_on channel=0 note=74 velocity=100 time=0
the msg is note_off channel=0 note=76 velocity=0 time=25
the msg is note_on channel=0 note=76 velocity=100 time=0
the msg is note_off channel=0 note=79 velocity=0 time=25
the msg is note_on channel=0 note=79 velocity=100 time=0
the msg is note_off channel=0 note=79 velocity=0 time=12
the msg is note_on channel=0 note=79 velocity=100 time=0
the msg is note_off channel=0 note=76 velocity=0 time=12
the msg is note_on channel=0 note=76 velocity=100 time=0
the msg is note_off channel=0 note=74 velocity=0 time=12
the msg is note_on channel=0 note=74 velocity=100 time=0
the msg is note_off channel=0 note=72 velocity=0 time=12
the msg is note_on channel=0 note=72 velocity=100 time=0
the msg is note_off channel=0 note=74 velocity=0 time=25
the msg is note_on channel=0 note=74 velocity=100 time=0
the msg is note_off channel=0 note=74 velocity=0 time=12
the msg is note_on channel=0 note=74 velocity=100 time=0
the msg is note_off channel=0 note=74 velocity=0 time=12
the msg is note_on channel=0 note=74 velocity=100 time=0
the msg is note_off channel=0 note=74 velocity=0 time=25
the msg is note_on channel=0 note=74 velocity=100 time=0
the msg is note_off channel=0 note=74 velocity=0 time=25
the msg is note_on channel=0 note=74 velocity=100 time=0
the msg is note_off channel=0 note=76 velocity=0 time=25
the msg is note_on channel=0 note=76 velocity=100 time=0
the msg is note_off channel=0 note=79 velocity=0 time=25
the msg is note_on channel=0 note=79 velocity=100 time=0
the msg is note_off channel=0 note=79 velocity=0 time=12
the msg is note_on channel=0 note=79 velocity=100 time=0
the msg is note_off channel=0 note=76 velocity=0 time=12
the msg is note_on channel=0 note=76 velocity=100 time=0
the msg is note_off channel=0 note=74 velocity=0 time=12
the msg is note_on channel=0 note=74 velocity=100 time=0
the msg is note_off channel=0 note=72 velocity=0 time=12
the msg is note_on channel=0 note=72 velocity=100 time=0
the msg is note_off channel=0 note=72 velocity=0 time=81
the msg is note_on channel=0 note=72 velocity=100 time=0
the msg is note_off channel=0 note=72 velocity=0 time=8
the msg is note_on channel=0 note=72 velocity=100 time=0
the msg is note_off channel=0 note=74 velocity=0 time=25
the msg is note_on channel=0 note=74 velocity=100 time=0
the msg is note_off channel=0 note=74 velocity=0 time=25
the msg is note_on channel=0 note=74 velocity=100 time=0
the msg is note_off channel=0 note=74 velocity=0 time=25
the msg is note_on channel=0 note=74 velocity=100 time=0
the msg is note_off channel=0 note=74 velocity=0 time=25
the msg is note_on channel=0 note=74 velocity=100 time=0
the msg is note_off channel=0 note=74 velocity=0 time=25
the msg is note_on channel=0 note=74 velocity=100 time=0
the msg is note_off channel=0 note=74 velocity=0 time=25
the msg is note_on channel=0 note=74 velocity=100 time=0
the msg is note_off channel=0 note=76 velocity=0 time=25
the msg is note_on channel=0 note=76 velocity=100 time=0
the msg is note_off channel=0 note=79 velocity=0 time=25
the msg is note_on channel=0 note=79 velocity=100 time=0
the msg is note_off channel=0 note=79 velocity=0 time=12
the msg is note_on channel=0 note=79 velocity=100 time=0
the msg is note_off channel=0 note=76 velocity=0 time=12
the msg is note_on channel=0 note=76 velocity=100 time=0
the msg is note_off channel=0 note=74 velocity=0 time=17
the msg is note_on channel=0 note=74 velocity=100 time=0
the msg is note_off channel=0 note=72 velocity=0 time=8
the msg is note_on channel=0 note=72 velocity=100 time=0
the msg is note_off channel=0 note=72 velocity=0 time=25
the msg is note_on channel=0 note=72 velocity=100 time=0
the msg is note_off channel=0 note=72 velocity=0 time=25
the msg is note_on channel=0 note=72 velocity=100 time=0
the msg is note_off channel=0 note=72 velocity=0 time=12
the msg is note_on channel=0 note=72 velocity=100 time=0
the msg is note_off channel=0 note=72 velocity=0 time=29
the msg is note_on channel=0 note=72 velocity=100 time=0
the msg is note_off channel=0 note=72 velocity=0 time=8
the msg is note_on channel=0 note=72 velocity=100 time=0
the msg is note_off channel=0 note=72 velocity=0 time=25
the msg is note_on channel=0 note=72 velocity=100 time=0
the msg is note_off channel=0 note=72 velocity=0 time=12
the msg is note_on channel=0 note=72 velocity=100 time=0
the msg is note_off channel=0 note=72 velocity=0 time=12
the msg is note_on channel=0 note=72 velocity=100 time=0
the msg is note_off channel=0 note=72 velocity=0 time=12
the msg is note_on channel=0 note=72 velocity=100 time=0
the msg is note_off channel=0 note=76 velocity=0 time=12
the msg is note_on channel=0 note=76 velocity=100 time=0
the msg is note_off channel=0 note=79 velocity=0 time=25
the msg is note_on channel=0 note=79 velocity=100 time=0
the msg is note_off channel=0 note=79 velocity=0 time=12
the msg is note_on channel=0 note=79 velocity=100 time=0
the msg is note_off channel=0 note=76 velocity=0 time=12
the msg is note_on channel=0 note=76 velocity=100 time=0
the msg is note_off channel=0 note=74 velocity=0 time=12
the msg is note_on channel=0 note=74 velocity=100 time=0
the msg is note_off channel=0 note=72 velocity=0 time=12
the msg is note_on channel=0 note=72 velocity=100 time=0
the msg is note_off channel=0 note=72 velocity=0 time=76
the msg is note_on channel=0 note=72 velocity=100 time=0
the msg is note_off channel=0 note=72 velocity=0 time=12
the msg is note_on channel=0 note=72 velocity=100 time=0
the msg is note_off channel=0 note=72 velocity=0 time=12
the msg is note_on channel=0 note=72 velocity=100 time=0
the msg is note_off channel=0 note=72 velocity=0 time=8
the msg is note_on channel=0 note=72 velocity=100 time=0
the msg is note_off channel=0 note=72 velocity=0 time=17
the msg is note_on channel=0 note=72 velocity=100 time=0
the msg is note_off channel=0 note=72 velocity=0 time=12
the msg is note_on channel=0 note=72 velocity=100 time=0
the msg is note_off channel=0 note=72 velocity=0 time=12
the msg is note_on channel=0 note=72 velocity=100 time=0
the msg is note_off channel=0 note=76 velocity=0 time=8
the msg is note_on channel=0 note=76 velocity=100 time=0
the msg is note_off channel=0 note=79 velocity=0 time=29
the msg is note_on channel=0 note=79 velocity=100 time=0
the msg is note_off channel=0 note=79 velocity=0 time=12
the msg is note_on channel=0 note=79 velocity=100 time=0
the msg is note_off channel=0 note=76 velocity=0 time=8
the msg is note_on channel=0 note=76 velocity=100 time=0
the msg is note_off channel=0 note=74 velocity=0 time=17
the msg is note_on channel=0 note=74 velocity=100 time=0
the msg is <meta message end_of_track time=51>
the msg is <meta message track_name name='Piano' time=0>
the msg is program_change channel=0 program=0 time=0
the msg is note_off channel=0 note=72 velocity=0 time=0
the msg is pitchwheel channel=0 pitch=0 time=0
the msg is program_change channel=0 program=0 time=0
the msg is <meta message set_tempo tempo=500000 time=0>
the msg is <meta message time_signature numerator=4 denominator=4 clocks_per_click=24 notated_32nd_notes_per_beat=8 time=0>
the msg is note_on channel=0 note=72 velocity=100 time=0
the msg is note_off channel=0 note=74 velocity=0 time=34
the msg is note_on channel=0 note=74 velocity=100 time=0
the msg is note_off channel=0 note=74 velocity=0 time=17
the msg is note_on channel=0 note=74 velocity=100 time=0
the msg is note_off channel=0 note=74 velocity=0 time=34
the msg is note_on channel=0 note=74 velocity=100 time=0
the msg is note_off channel=0 note=74 velocity=0 time=17
the msg is note_on channel=0 note=74 velocity=100 time=0
the msg is note_off channel=0 note=76 velocity=0 time=34
the msg is note_on channel=0 note=76 velocity=100 time=0
the msg is note_off channel=0 note=79 velocity=0 time=17
the msg is note_on channel=0 note=79 velocity=100 time=0
the msg is note_off channel=0 note=79 velocity=0 time=17
the msg is note_on channel=0 note=79 velocity=100 time=0
the msg is note_off channel=0 note=76 velocity=0 time=17
the msg is note_on channel=0 note=76 velocity=100 time=0
the msg is note_off channel=0 note=74 velocity=0 time=4
the msg is note_on channel=0 note=74 velocity=100 time=0
the msg is note_off channel=0 note=72 velocity=0 time=12
the msg is note_on channel=0 note=72 velocity=100 time=0
the msg is note_off channel=0 note=72 velocity=0 time=89
the msg is note_on channel=0 note=72 velocity=100 time=0
the msg is note_off channel=0 note=72 velocity=0 time=12
the msg is note_on channel=0 note=72 velocity=100 time=0
the msg is note_off channel=0 note=74 velocity=0 time=25
the msg is note_on channel=0 note=74 velocity=100 time=0
the msg is note_off channel=0 note=74 velocity=0 time=25
the msg is note_on channel=0 note=74 velocity=100 time=0
the msg is note_off channel=0 note=74 velocity=0 time=12
the msg is note_on channel=0 note=74 velocity=100 time=0
the msg is note_off channel=0 note=76 velocity=0 time=25
the msg is note_on channel=0 note=76 velocity=100 time=0
the msg is note_off channel=0 note=79 velocity=0 time=25
the msg is note_on channel=0 note=79 velocity=100 time=0
the msg is note_off channel=0 note=79 velocity=0 time=12
the msg is note_on channel=0 note=79 velocity=100 time=0
the msg is note_off channel=0 note=76 velocity=0 time=12
the msg is note_on channel=0 note=76 velocity=100 time=0
the msg is note_off channel=0 note=74 velocity=0 time=12
the msg is note_on channel=0 note=74 velocity=100 time=0
the msg is note_off channel=0 note=72 velocity=0 time=12
the msg is note_on channel=0 note=72 velocity=100 time=0
the msg is note_off channel=0 note=74 velocity=0 time=25
the msg is note_on channel=0 note=74 velocity=100 time=0
the msg is note_off channel=0 note=76 velocity=0 time=25
the msg is note_on channel=0 note=76 velocity=100 time=0
the msg is note_off channel=0 note=79 velocity=0 time=25
the msg is note_on channel=0 note=79 velocity=100 time=0
the msg is note_off channel=0 note=79 velocity=0 time=12
the msg is note_on channel=0 note=79 velocity=100 time=0
the msg is note_off channel=0 note=76 velocity=0 time=12
the msg is note_on channel=0 note=76 velocity=100 time=0
the msg is note_off channel=0 note=74 velocity=0 time=12
the msg is note_on channel=0 note=74 velocity=100 time=0
the msg is note_off channel=0 note=72 velocity=0 time=12
the msg is note_on channel=0 note=72 velocity=100 time=0
the msg is note_off channel=0 note=74 velocity=0 time=25
the msg is note_on channel=0 note=74 velocity=100 time=0
the msg is note_off channel=0 note=74 velocity=0 time=12
the msg is note_on channel=0 note=74 velocity=100 time=0
the msg is note_off channel=0 note=74 velocity=0 time=12
the msg is note_on channel=0 note=74 velocity=100 time=0
the msg is note_off channel=0 note=74 velocity=0 time=25
the msg is note_on channel=0 note=74 velocity=100 time=0
the msg is note_off channel=0 note=74 velocity=0 time=25
the msg is note_on channel=0 note=74 velocity=100 time=0
the msg is note_off channel=0 note=76 velocity=0 time=25
the msg is note_on channel=0 note=76 velocity=100 time=0
the msg is note_off channel=0 note=79 velocity=0 time=25
the msg is note_on channel=0 note=79 velocity=100 time=0
the msg is note_off channel=0 note=79 velocity=0 time=12
the msg is note_on channel=0 note=79 velocity=100 time=0
the msg is note_off channel=0 note=76 velocity=0 time=12
the msg is note_on channel=0 note=76 velocity=100 time=0
the msg is note_off channel=0 note=74 velocity=0 time=12
the msg is note_on channel=0 note=74 velocity=100 time=0
the msg is note_off channel=0 note=72 velocity=0 time=12
the msg is note_on channel=0 note=72 velocity=100 time=0
the msg is note_off channel=0 note=72 velocity=0 time=81
the msg is note_on channel=0 note=72 velocity=100 time=0
the msg is note_off channel=0 note=72 velocity=0 time=8
the msg is note_on channel=0 note=72 velocity=100 time=0
the msg is note_off channel=0 note=74 velocity=0 time=25
the msg is note_on channel=0 note=74 velocity=100 time=0
the msg is note_off channel=0 note=74 velocity=0 time=25
the msg is note_on channel=0 note=74 velocity=100 time=0
the msg is note_off channel=0 note=74 velocity=0 time=25
the msg is note_on channel=0 note=74 velocity=100 time=0
the msg is note_off channel=0 note=74 velocity=0 time=25
the msg is note_on channel=0 note=74 velocity=100 time=0
the msg is note_off channel=0 note=74 velocity=0 time=25
the msg is note_on channel=0 note=74 velocity=100 time=0
the msg is note_off channel=0 note=74 velocity=0 time=25
the msg is note_on channel=0 note=74 velocity=100 time=0
the msg is note_off channel=0 note=76 velocity=0 time=25
the msg is note_on channel=0 note=76 velocity=100 time=0
the msg is note_off channel=0 note=79 velocity=0 time=25
the msg is note_on channel=0 note=79 velocity=100 time=0
the msg is note_off channel=0 note=79 velocity=0 time=12
the msg is note_on channel=0 note=79 velocity=100 time=0
the msg is note_off channel=0 note=76 velocity=0 time=12
the msg is note_on channel=0 note=76 velocity=100 time=0
the msg is note_off channel=0 note=74 velocity=0 time=17
the msg is note_on channel=0 note=74 velocity=100 time=0
the msg is note_off channel=0 note=72 velocity=0 time=8
the msg is note_on channel=0 note=72 velocity=100 time=0
the msg is note_off channel=0 note=72 velocity=0 time=25
the msg is note_on channel=0 note=72 velocity=100 time=0
the msg is note_off channel=0 note=72 velocity=0 time=25
the msg is note_on channel=0 note=72 velocity=100 time=0
the msg is note_off channel=0 note=72 velocity=0 time=12
the msg is note_on channel=0 note=72 velocity=100 time=0
the msg is note_off channel=0 note=72 velocity=0 time=29
the msg is note_on channel=0 note=72 velocity=100 time=0
the msg is note_off channel=0 note=72 velocity=0 time=8
the msg is note_on channel=0 note=72 velocity=100 time=0
the msg is note_off channel=0 note=72 velocity=0 time=25
the msg is note_on channel=0 note=72 velocity=100 time=0
the msg is note_off channel=0 note=72 velocity=0 time=12
the msg is note_on channel=0 note=72 velocity=100 time=0
the msg is note_off channel=0 note=72 velocity=0 time=12
the msg is note_on channel=0 note=72 velocity=100 time=0
the msg is note_off channel=0 note=72 velocity=0 time=12
the msg is note_on channel=0 note=72 velocity=100 time=0
the msg is note_off channel=0 note=76 velocity=0 time=12
the msg is note_on channel=0 note=76 velocity=100 time=0
the msg is note_off channel=0 note=79 velocity=0 time=25
the msg is note_on channel=0 note=79 velocity=100 time=0
the msg is note_off channel=0 note=79 velocity=0 time=12
the msg is note_on channel=0 note=79 velocity=100 time=0
the msg is note_off channel=0 note=76 velocity=0 time=12
the msg is note_on channel=0 note=76 velocity=100 time=0
the msg is note_off channel=0 note=74 velocity=0 time=12
the msg is note_on channel=0 note=74 velocity=100 time=0
the msg is note_off channel=0 note=72 velocity=0 time=12
the msg is note_on channel=0 note=72 velocity=100 time=0
the msg is note_off channel=0 note=72 velocity=0 time=76
the msg is note_on channel=0 note=72 velocity=100 time=0
the msg is note_off channel=0 note=72 velocity=0 time=12
the msg is note_on channel=0 note=72 velocity=100 time=0
the msg is note_off channel=0 note=72 velocity=0 time=12
the msg is note_on channel=0 note=72 velocity=100 time=0
the msg is note_off channel=0 note=72 velocity=0 time=8
the msg is note_on channel=0 note=72 velocity=100 time=0
the msg is note_off channel=0 note=72 velocity=0 time=17
the msg is note_on channel=0 note=72 velocity=100 time=0
the msg is note_off channel=0 note=72 velocity=0 time=12
the msg is note_on channel=0 note=72 velocity=100 time=0
the msg is note_off channel=0 note=72 velocity=0 time=12
the msg is note_on channel=0 note=72 velocity=100 time=0
the msg is note_off channel=0 note=76 velocity=0 time=8
the msg is note_on channel=0 note=76 velocity=100 time=0
the msg is note_off channel=0 note=79 velocity=0 time=29
the msg is note_on channel=0 note=79 velocity=100 time=0
the msg is note_off channel=0 note=79 velocity=0 time=12
the msg is note_on channel=0 note=79 velocity=100 time=0
the msg is note_off channel=0 note=76 velocity=0 time=8
the msg is note_on channel=0 note=76 velocity=100 time=0
the msg is note_off channel=0 note=74 velocity=0 time=17
the msg is note_on channel=0 note=74 velocity=100 time=0
the msg is <meta message end_of_track time=51>
the msg is <meta message track_name name='Piano' time=0>
the msg is program_change channel=0 program=0 time=0
the msg is note_off channel=0 note=72 velocity=0 time=0
the msg is pitchwheel channel=0 pitch=0 time=0
the msg is program_change channel=0 program=0 time=0
the msg is <meta message set_tempo tempo=500000 time=0>
the msg is <meta message time_signature numerator=4 denominator=4 clocks_per_click=24 notated_32nd_notes_per_beat=8 time=0>
the msg is note_on channel=0 note=72 velocity=100 time=0
the msg is note_off channel=0 note=74 velocity=0 time=34
the msg is note_on channel=0 note=74 velocity=100 time=0
the msg is note_off channel=0 note=74 velocity=0 time=17
the msg is note_on channel=0 note=74 velocity=100 time=0
the msg is note_off channel=0 note=74 velocity=0 time=34
the msg is note_on channel=0 note=74 velocity=100 time=0
the msg is note_off channel=0 note=74 velocity=0 time=17
the msg is note_on channel=0 note=74 velocity=100 time=0
the msg is note_off channel=0 note=76 velocity=0 time=34
the msg is note_on channel=0 note=76 velocity=100 time=0
the msg is note_off channel=0 note=79 velocity=0 time=17
the msg is note_on channel=0 note=79 velocity=100 time=0
the msg is note_off channel=0 note=79 velocity=0 time=17
the msg is note_on channel=0 note=79 velocity=100 time=0
the msg is note_off channel=0 note=76 velocity=0 time=17
the msg is note_on channel=0 note=76 velocity=100 time=0
the msg is note_off channel=0 note=74 velocity=0 time=4
the msg is note_on channel=0 note=74 velocity=100 time=0
the msg is note_off channel=0 note=72 velocity=0 time=12
the msg is note_on channel=0 note=72 velocity=100 time=0
the msg is note_off channel=0 note=72 velocity=0 time=89
the msg is note_on channel=0 note=72 velocity=100 time=0
the msg is note_off channel=0 note=72 velocity=0 time=12
the msg is note_on channel=0 note=72 velocity=100 time=0
the msg is note_off channel=0 note=74 velocity=0 time=25
the msg is note_on channel=0 note=74 velocity=100 time=0
the msg is note_off channel=0 note=74 velocity=0 time=25
the msg is note_on channel=0 note=74 velocity=100 time=0
the msg is note_off channel=0 note=74 velocity=0 time=12
the msg is note_on channel=0 note=74 velocity=100 time=0
the msg is note_off channel=0 note=76 velocity=0 time=25
the msg is note_on channel=0 note=76 velocity=100 time=0
the msg is note_off channel=0 note=79 velocity=0 time=25
the msg is note_on channel=0 note=79 velocity=100 time=0
the msg is note_off channel=0 note=79 velocity=0 time=12
the msg is note_on channel=0 note=79 velocity=100 time=0
the msg is note_off channel=0 note=76 velocity=0 time=12
the msg is note_on channel=0 note=76 velocity=100 time=0
the msg is note_off channel=0 note=74 velocity=0 time=12
the msg is note_on channel=0 note=74 velocity=100 time=0
the msg is note_off channel=0 note=72 velocity=0 time=12
the msg is note_on channel=0 note=72 velocity=100 time=0
the msg is note_off channel=0 note=74 velocity=0 time=25
the msg is note_on channel=0 note=74 velocity=100 time=0
the msg is note_off channel=0 note=76 velocity=0 time=25
the msg is note_on channel=0 note=76 velocity=100 time=0
the msg is note_off channel=0 note=79 velocity=0 time=25
the msg is note_on channel=0 note=79 velocity=100 time=0
the msg is note_off channel=0 note=79 velocity=0 time=12
the msg is note_on channel=0 note=79 velocity=100 time=0
the msg is note_off channel=0 note=76 velocity=0 time=12
the msg is note_on channel=0 note=76 velocity=100 time=0
the msg is note_off channel=0 note=74 velocity=0 time=12
the msg is note_on channel=0 note=74 velocity=100 time=0
the msg is note_off channel=0 note=72 velocity=0 time=12
the msg is note_on channel=0 note=72 velocity=100 time=0
the msg is note_off channel=0 note=74 velocity=0 time=25
the msg is note_on channel=0 note=74 velocity=100 time=0
the msg is note_off channel=0 note=74 velocity=0 time=12
the msg is note_on channel=0 note=74 velocity=100 time=0
the msg is note_off channel=0 note=74 velocity=0 time=12
the msg is note_on channel=0 note=74 velocity=100 time=0
the msg is note_off channel=0 note=74 velocity=0 time=25
the msg is note_on channel=0 note=74 velocity=100 time=0
the msg is note_off channel=0 note=74 velocity=0 time=25
the msg is note_on channel=0 note=74 velocity=100 time=0
the msg is note_off channel=0 note=76 velocity=0 time=25
the msg is note_on channel=0 note=76 velocity=100 time=0
the msg is note_off channel=0 note=79 velocity=0 time=25
the msg is note_on channel=0 note=79 velocity=100 time=0
the msg is note_off channel=0 note=79 velocity=0 time=12
the msg is note_on channel=0 note=79 velocity=100 time=0
the msg is note_off channel=0 note=76 velocity=0 time=12
the msg is note_on channel=0 note=76 velocity=100 time=0
the msg is note_off channel=0 note=74 velocity=0 time=12
the msg is note_on channel=0 note=74 velocity=100 time=0
the msg is note_off channel=0 note=72 velocity=0 time=12
the msg is note_on channel=0 note=72 velocity=100 time=0
the msg is note_off channel=0 note=72 velocity=0 time=81
the msg is note_on channel=0 note=72 velocity=100 time=0
the msg is note_off channel=0 note=72 velocity=0 time=8
the msg is note_on channel=0 note=72 velocity=100 time=0
the msg is note_off channel=0 note=74 velocity=0 time=25
the msg is note_on channel=0 note=74 velocity=100 time=0
the msg is note_off channel=0 note=74 velocity=0 time=25
the msg is note_on channel=0 note=74 velocity=100 time=0
the msg is note_off channel=0 note=74 velocity=0 time=25
the msg is note_on channel=0 note=74 velocity=100 time=0
the msg is note_off channel=0 note=74 velocity=0 time=25
the msg is note_on channel=0 note=74 velocity=100 time=0
the msg is note_off channel=0 note=74 velocity=0 time=25
the msg is note_on channel=0 note=74 velocity=100 time=0
the msg is note_off channel=0 note=74 velocity=0 time=25
the msg is note_on channel=0 note=74 velocity=100 time=0
the msg is note_off channel=0 note=76 velocity=0 time=25
the msg is note_on channel=0 note=76 velocity=100 time=0
the msg is note_off channel=0 note=79 velocity=0 time=25
the msg is note_on channel=0 note=79 velocity=100 time=0
the msg is note_off channel=0 note=79 velocity=0 time=12
the msg is note_on channel=0 note=79 velocity=100 time=0
the msg is note_off channel=0 note=76 velocity=0 time=12
the msg is note_on channel=0 note=76 velocity=100 time=0
the msg is note_off channel=0 note=74 velocity=0 time=17
the msg is note_on channel=0 note=74 velocity=100 time=0
the msg is note_off channel=0 note=72 velocity=0 time=8
the msg is note_on channel=0 note=72 velocity=100 time=0
the msg is note_off channel=0 note=72 velocity=0 time=25
the msg is note_on channel=0 note=72 velocity=100 time=0
the msg is note_off channel=0 note=72 velocity=0 time=25
the msg is note_on channel=0 note=72 velocity=100 time=0
the msg is note_off channel=0 note=72 velocity=0 time=12
the msg is note_on channel=0 note=72 velocity=100 time=0
the msg is note_off channel=0 note=72 velocity=0 time=29
the msg is note_on channel=0 note=72 velocity=100 time=0
the msg is note_off channel=0 note=72 velocity=0 time=8
the msg is note_on channel=0 note=72 velocity=100 time=0
the msg is note_off channel=0 note=72 velocity=0 time=25
the msg is note_on channel=0 note=72 velocity=100 time=0
the msg is note_off channel=0 note=72 velocity=0 time=12
the msg is note_on channel=0 note=72 velocity=100 time=0
the msg is note_off channel=0 note=72 velocity=0 time=12
the msg is note_on channel=0 note=72 velocity=100 time=0
the msg is note_off channel=0 note=72 velocity=0 time=12
the msg is note_on channel=0 note=72 velocity=100 time=0
the msg is note_off channel=0 note=76 velocity=0 time=12
the msg is note_on channel=0 note=76 velocity=100 time=0
the msg is note_off channel=0 note=79 velocity=0 time=25
the msg is note_on channel=0 note=79 velocity=100 time=0
the msg is note_off channel=0 note=79 velocity=0 time=12
the msg is note_on channel=0 note=79 velocity=100 time=0
the msg is note_off channel=0 note=76 velocity=0 time=12
the msg is note_on channel=0 note=76 velocity=100 time=0
the msg is note_off channel=0 note=74 velocity=0 time=12
the msg is note_on channel=0 note=74 velocity=100 time=0
the msg is note_off channel=0 note=72 velocity=0 time=12
the msg is note_on channel=0 note=72 velocity=100 time=0
the msg is note_off channel=0 note=72 velocity=0 time=76
the msg is note_on channel=0 note=72 velocity=100 time=0
the msg is note_off channel=0 note=72 velocity=0 time=12
the msg is note_on channel=0 note=72 velocity=100 time=0
the msg is note_off channel=0 note=72 velocity=0 time=12
the msg is note_on channel=0 note=72 velocity=100 time=0
the msg is note_off channel=0 note=72 velocity=0 time=8
the msg is note_on channel=0 note=72 velocity=100 time=0
the msg is note_off channel=0 note=72 velocity=0 time=17
the msg is note_on channel=0 note=72 velocity=100 time=0
the msg is note_off channel=0 note=72 velocity=0 time=12
the msg is note_on channel=0 note=72 velocity=100 time=0
the msg is note_off channel=0 note=72 velocity=0 time=12
the msg is note_on channel=0 note=72 velocity=100 time=0
the msg is note_off channel=0 note=76 velocity=0 time=8
the msg is note_on channel=0 note=76 velocity=100 time=0
the msg is note_off channel=0 note=79 velocity=0 time=29
the msg is note_on channel=0 note=79 velocity=100 time=0
the msg is note_off channel=0 note=79 velocity=0 time=12
the msg is note_on channel=0 note=79 velocity=100 time=0
the msg is note_off channel=0 note=76 velocity=0 time=8
the msg is note_on channel=0 note=76 velocity=100 time=0
the msg is note_off channel=0 note=74 velocity=0 time=17
the msg is note_on channel=0 note=74 velocity=100 time=0
the msg is <meta message end_of_track time=51>
the msg is <meta message track_name name='Piano' time=0>
the msg is program_change channel=0 program=0 time=0
the msg is note_off channel=0 note=72 velocity=0 time=0
the msg is pitchwheel channel=0 pitch=0 time=0
the msg is program_change channel=0 program=0 time=0
the msg is <meta message set_tempo tempo=500000 time=0>
the msg is <meta message time_signature numerator=4 denominator=4 clocks_per_click=24 notated_32nd_notes_per_beat=8 time=0>
the msg is note_on channel=0 note=72 velocity=100 time=0
the msg is note_off channel=0 note=74 velocity=0 time=34
the msg is note_on channel=0 note=74 velocity=100 time=0
the msg is note_off channel=0 note=74 velocity=0 time=17
the msg is note_on channel=0 note=74 velocity=100 time=0
the msg is note_off channel=0 note=74 velocity=0 time=34
the msg is note_on channel=0 note=74 velocity=100 time=0
the msg is note_off channel=0 note=74 velocity=0 time=17
the msg is note_on channel=0 note=74 velocity=100 time=0
the msg is note_off channel=0 note=76 velocity=0 time=34
the msg is note_on channel=0 note=76 velocity=100 time=0
the msg is note_off channel=0 note=79 velocity=0 time=17
the msg is note_on channel=0 note=79 velocity=100 time=0
the msg is note_off channel=0 note=79 velocity=0 time=17
the msg is note_on channel=0 note=79 velocity=100 time=0
the msg is note_off channel=0 note=76 velocity=0 time=17
the msg is note_on channel=0 note=76 velocity=100 time=0
the msg is note_off channel=0 note=74 velocity=0 time=4
the msg is note_on channel=0 note=74 velocity=100 time=0
the msg is note_off channel=0 note=72 velocity=0 time=12
the msg is note_on channel=0 note=72 velocity=100 time=0
the msg is note_off channel=0 note=72 velocity=0 time=89
the msg is note_on channel=0 note=72 velocity=100 time=0
the msg is note_off channel=0 note=72 velocity=0 time=12
the msg is note_on channel=0 note=72 velocity=100 time=0
the msg is note_off channel=0 note=74 velocity=0 time=25
the msg is note_on channel=0 note=74 velocity=100 time=0
the msg is note_off channel=0 note=74 velocity=0 time=25
the msg is note_on channel=0 note=74 velocity=100 time=0
the msg is note_off channel=0 note=74 velocity=0 time=12
the msg is note_on channel=0 note=74 velocity=100 time=0
the msg is note_off channel=0 note=76 velocity=0 time=25
the msg is note_on channel=0 note=76 velocity=100 time=0
the msg is note_off channel=0 note=79 velocity=0 time=25
the msg is note_on channel=0 note=79 velocity=100 time=0
the msg is note_off channel=0 note=79 velocity=0 time=12
the msg is note_on channel=0 note=79 velocity=100 time=0
the msg is note_off channel=0 note=76 velocity=0 time=12
the msg is note_on channel=0 note=76 velocity=100 time=0
the msg is note_off channel=0 note=74 velocity=0 time=12
the msg is note_on channel=0 note=74 velocity=100 time=0
the msg is note_off channel=0 note=72 velocity=0 time=12
the msg is note_on channel=0 note=72 velocity=100 time=0
the msg is note_off channel=0 note=74 velocity=0 time=25
the msg is note_on channel=0 note=74 velocity=100 time=0
the msg is note_off channel=0 note=76 velocity=0 time=25
the msg is note_on channel=0 note=76 velocity=100 time=0
the msg is note_off channel=0 note=79 velocity=0 time=25
the msg is note_on channel=0 note=79 velocity=100 time=0
the msg is note_off channel=0 note=79 velocity=0 time=12
the msg is note_on channel=0 note=79 velocity=100 time=0
the msg is note_off channel=0 note=76 velocity=0 time=12
the msg is note_on channel=0 note=76 velocity=100 time=0
the msg is note_off channel=0 note=74 velocity=0 time=12
the msg is note_on channel=0 note=74 velocity=100 time=0
the msg is note_off channel=0 note=72 velocity=0 time=12
the msg is note_on channel=0 note=72 velocity=100 time=0
the msg is note_off channel=0 note=74 velocity=0 time=25
the msg is note_on channel=0 note=74 velocity=100 time=0
the msg is note_off channel=0 note=74 velocity=0 time=12
the msg is note_on channel=0 note=74 velocity=100 time=0
the msg is note_off channel=0 note=74 velocity=0 time=12
the msg is note_on channel=0 note=74 velocity=100 time=0
the msg is note_off channel=0 note=74 velocity=0 time=25
the msg is note_on channel=0 note=74 velocity=100 time=0
the msg is note_off channel=0 note=74 velocity=0 time=25
the msg is note_on channel=0 note=74 velocity=100 time=0
the msg is note_off channel=0 note=76 velocity=0 time=25
the msg is note_on channel=0 note=76 velocity=100 time=0
the msg is note_off channel=0 note=79 velocity=0 time=25
the msg is note_on channel=0 note=79 velocity=100 time=0
the msg is note_off channel=0 note=79 velocity=0 time=12
the msg is note_on channel=0 note=79 velocity=100 time=0
the msg is note_off channel=0 note=76 velocity=0 time=12
the msg is note_on channel=0 note=76 velocity=100 time=0
the msg is note_off channel=0 note=74 velocity=0 time=12
the msg is note_on channel=0 note=74 velocity=100 time=0
the msg is note_off channel=0 note=72 velocity=0 time=12
the msg is note_on channel=0 note=72 velocity=100 time=0
the msg is note_off channel=0 note=72 velocity=0 time=81
the msg is note_on channel=0 note=72 velocity=100 time=0
the msg is note_off channel=0 note=72 velocity=0 time=8
the msg is note_on channel=0 note=72 velocity=100 time=0
the msg is note_off channel=0 note=74 velocity=0 time=25
the msg is note_on channel=0 note=74 velocity=100 time=0
the msg is note_off channel=0 note=74 velocity=0 time=25
the msg is note_on channel=0 note=74 velocity=100 time=0
the msg is note_off channel=0 note=74 velocity=0 time=25
the msg is note_on channel=0 note=74 velocity=100 time=0
the msg is note_off channel=0 note=74 velocity=0 time=25
the msg is note_on channel=0 note=74 velocity=100 time=0
the msg is note_off channel=0 note=74 velocity=0 time=25
the msg is note_on channel=0 note=74 velocity=100 time=0
the msg is note_off channel=0 note=74 velocity=0 time=25
the msg is note_on channel=0 note=74 velocity=100 time=0
the msg is note_off channel=0 note=76 velocity=0 time=25
the msg is note_on channel=0 note=76 velocity=100 time=0
the msg is note_off channel=0 note=79 velocity=0 time=25
the msg is note_on channel=0 note=79 velocity=100 time=0
the msg is note_off channel=0 note=79 velocity=0 time=12
the msg is note_on channel=0 note=79 velocity=100 time=0
the msg is note_off channel=0 note=76 velocity=0 time=12
the msg is note_on channel=0 note=76 velocity=100 time=0
the msg is note_off channel=0 note=74 velocity=0 time=17
the msg is note_on channel=0 note=74 velocity=100 time=0
the msg is note_off channel=0 note=72 velocity=0 time=8
the msg is note_on channel=0 note=72 velocity=100 time=0
the msg is note_off channel=0 note=72 velocity=0 time=25
the msg is note_on channel=0 note=72 velocity=100 time=0
the msg is note_off channel=0 note=72 velocity=0 time=25
the msg is note_on channel=0 note=72 velocity=100 time=0
the msg is note_off channel=0 note=72 velocity=0 time=12
the msg is note_on channel=0 note=72 velocity=100 time=0
the msg is note_off channel=0 note=72 velocity=0 time=29
the msg is note_on channel=0 note=72 velocity=100 time=0
the msg is note_off channel=0 note=72 velocity=0 time=8
the msg is note_on channel=0 note=72 velocity=100 time=0
the msg is note_off channel=0 note=72 velocity=0 time=25
the msg is note_on channel=0 note=72 velocity=100 time=0
the msg is note_off channel=0 note=72 velocity=0 time=12
the msg is note_on channel=0 note=72 velocity=100 time=0
the msg is note_off channel=0 note=72 velocity=0 time=12
the msg is note_on channel=0 note=72 velocity=100 time=0
the msg is note_off channel=0 note=72 velocity=0 time=12
the msg is note_on channel=0 note=72 velocity=100 time=0
the msg is note_off channel=0 note=76 velocity=0 time=12
the msg is note_on channel=0 note=76 velocity=100 time=0
the msg is note_off channel=0 note=79 velocity=0 time=25
the msg is note_on channel=0 note=79 velocity=100 time=0
the msg is note_off channel=0 note=79 velocity=0 time=12
the msg is note_on channel=0 note=79 velocity=100 time=0
the msg is note_off channel=0 note=76 velocity=0 time=12
the msg is note_on channel=0 note=76 velocity=100 time=0
the msg is note_off channel=0 note=74 velocity=0 time=12
the msg is note_on channel=0 note=74 velocity=100 time=0
the msg is note_off channel=0 note=72 velocity=0 time=12
the msg is note_on channel=0 note=72 velocity=100 time=0
the msg is note_off channel=0 note=72 velocity=0 time=76
the msg is note_on channel=0 note=72 velocity=100 time=0
the msg is note_off channel=0 note=72 velocity=0 time=12
the msg is note_on channel=0 note=72 velocity=100 time=0
the msg is note_off channel=0 note=72 velocity=0 time=12
the msg is note_on channel=0 note=72 velocity=100 time=0
the msg is note_off channel=0 note=72 velocity=0 time=8
the msg is note_on channel=0 note=72 velocity=100 time=0
the msg is note_off channel=0 note=72 velocity=0 time=17
the msg is note_on channel=0 note=72 velocity=100 time=0
the msg is note_off channel=0 note=72 velocity=0 time=12
the msg is note_on channel=0 note=72 velocity=100 time=0
the msg is note_off channel=0 note=72 velocity=0 time=12
the msg is note_on channel=0 note=72 velocity=100 time=0
the msg is note_off channel=0 note=76 velocity=0 time=8
the msg is note_on channel=0 note=76 velocity=100 time=0
the msg is note_off channel=0 note=79 velocity=0 time=29
the msg is note_on channel=0 note=79 velocity=100 time=0
the msg is note_off channel=0 note=79 velocity=0 time=12
the msg is note_on channel=0 note=79 velocity=100 time=0
the msg is note_off channel=0 note=76 velocity=0 time=8
the msg is note_on channel=0 note=76 velocity=100 time=0
the msg is note_off channel=0 note=74 velocity=0 time=17
the msg is note_on channel=0 note=74 velocity=100 time=0
the msg is <meta message end_of_track time=51>
the msg is <meta message track_name name='Piano' time=0>
the msg is program_change channel=0 program=0 time=0
the msg is note_off channel=0 note=72 velocity=0 time=0
the msg is pitchwheel channel=0 pitch=0 time=0
the msg is program_change channel=0 program=0 time=0
the msg is <meta message set_tempo tempo=500000 time=0>
the msg is <meta message time_signature numerator=4 denominator=4 clocks_per_click=24 notated_32nd_notes_per_beat=8 time=0>
the msg is note_on channel=0 note=72 velocity=100 time=0
the msg is note_off channel=0 note=74 velocity=0 time=34
the msg is note_on channel=0 note=74 velocity=100 time=0
the msg is note_off channel=0 note=74 velocity=0 time=17
the msg is note_on channel=0 note=74 velocity=100 time=0
the msg is note_off channel=0 note=74 velocity=0 time=34
the msg is note_on channel=0 note=74 velocity=100 time=0
the msg is note_off channel=0 note=74 velocity=0 time=17
the msg is note_on channel=0 note=74 velocity=100 time=0
the msg is note_off channel=0 note=76 velocity=0 time=34
the msg is note_on channel=0 note=76 velocity=100 time=0
the msg is note_off channel=0 note=79 velocity=0 time=17
the msg is note_on channel=0 note=79 velocity=100 time=0
the msg is note_off channel=0 note=79 velocity=0 time=17
the msg is note_on channel=0 note=79 velocity=100 time=0
the msg is note_off channel=0 note=76 velocity=0 time=17
the msg is note_on channel=0 note=76 velocity=100 time=0
the msg is note_off channel=0 note=74 velocity=0 time=4
the msg is note_on channel=0 note=74 velocity=100 time=0
the msg is note_off channel=0 note=72 velocity=0 time=12
the msg is note_on channel=0 note=72 velocity=100 time=0
the msg is note_off channel=0 note=72 velocity=0 time=89
the msg is note_on channel=0 note=72 velocity=100 time=0
the msg is note_off channel=0 note=72 velocity=0 time=12
the msg is note_on channel=0 note=72 velocity=100 time=0
the msg is note_off channel=0 note=74 velocity=0 time=25
the msg is note_on channel=0 note=74 velocity=100 time=0
the msg is note_off channel=0 note=74 velocity=0 time=25
the msg is note_on channel=0 note=74 velocity=100 time=0
the msg is note_off channel=0 note=74 velocity=0 time=12
the msg is note_on channel=0 note=74 velocity=100 time=0
the msg is note_off channel=0 note=76 velocity=0 time=25
the msg is note_on channel=0 note=76 velocity=100 time=0
the msg is note_off channel=0 note=79 velocity=0 time=25
the msg is note_on channel=0 note=79 velocity=100 time=0
the msg is note_off channel=0 note=79 velocity=0 time=12
the msg is note_on channel=0 note=79 velocity=100 time=0
the msg is note_off channel=0 note=76 velocity=0 time=12
the msg is note_on channel=0 note=76 velocity=100 time=0
the msg is note_off channel=0 note=74 velocity=0 time=12
the msg is note_on channel=0 note=74 velocity=100 time=0
the msg is note_off channel=0 note=72 velocity=0 time=12
the msg is note_on channel=0 note=72 velocity=100 time=0
the msg is note_off channel=0 note=74 velocity=0 time=25
the msg is note_on channel=0 note=74 velocity=100 time=0
the msg is note_off channel=0 note=76 velocity=0 time=25
the msg is note_on channel=0 note=76 velocity=100 time=0
the msg is note_off channel=0 note=79 velocity=0 time=25
the msg is note_on channel=0 note=79 velocity=100 time=0
the msg is note_off channel=0 note=79 velocity=0 time=12
the msg is note_on channel=0 note=79 velocity=100 time=0
the msg is note_off channel=0 note=76 velocity=0 time=12
the msg is note_on channel=0 note=76 velocity=100 time=0
the msg is note_off channel=0 note=74 velocity=0 time=12
the msg is note_on channel=0 note=74 velocity=100 time=0
the msg is note_off channel=0 note=72 velocity=0 time=12
the msg is note_on channel=0 note=72 velocity=100 time=0
the msg is note_off channel=0 note=74 velocity=0 time=25
the msg is note_on channel=0 note=74 velocity=100 time=0
the msg is note_off channel=0 note=74 velocity=0 time=12
the msg is note_on channel=0 note=74 velocity=100 time=0
the msg is note_off channel=0 note=74 velocity=0 time=12
the msg is note_on channel=0 note=74 velocity=100 time=0
the msg is note_off channel=0 note=74 velocity=0 time=25
the msg is note_on channel=0 note=74 velocity=100 time=0
the msg is note_off channel=0 note=74 velocity=0 time=25
the msg is note_on channel=0 note=74 velocity=100 time=0
the msg is note_off channel=0 note=76 velocity=0 time=25
the msg is note_on channel=0 note=76 velocity=100 time=0
the msg is note_off channel=0 note=79 velocity=0 time=25
the msg is note_on channel=0 note=79 velocity=100 time=0
the msg is note_off channel=0 note=79 velocity=0 time=12
the msg is note_on channel=0 note=79 velocity=100 time=0
the msg is note_off channel=0 note=76 velocity=0 time=12
the msg is note_on channel=0 note=76 velocity=100 time=0
the msg is note_off channel=0 note=74 velocity=0 time=12
the msg is note_on channel=0 note=74 velocity=100 time=0
the msg is note_off channel=0 note=72 velocity=0 time=12
the msg is note_on channel=0 note=72 velocity=100 time=0
the msg is note_off channel=0 note=72 velocity=0 time=81
the msg is note_on channel=0 note=72 velocity=100 time=0
the msg is note_off channel=0 note=72 velocity=0 time=8
the msg is note_on channel=0 note=72 velocity=100 time=0
the msg is note_off channel=0 note=74 velocity=0 time=25
the msg is note_on channel=0 note=74 velocity=100 time=0
the msg is note_off channel=0 note=74 velocity=0 time=25
the msg is note_on channel=0 note=74 velocity=100 time=0
the msg is note_off channel=0 note=74 velocity=0 time=25
the msg is note_on channel=0 note=74 velocity=100 time=0
the msg is note_off channel=0 note=74 velocity=0 time=25
the msg is note_on channel=0 note=74 velocity=100 time=0
the msg is note_off channel=0 note=74 velocity=0 time=25
the msg is note_on channel=0 note=74 velocity=100 time=0
the msg is note_off channel=0 note=74 velocity=0 time=25
the msg is note_on channel=0 note=74 velocity=100 time=0
the msg is note_off channel=0 note=76 velocity=0 time=25
the msg is note_on channel=0 note=76 velocity=100 time=0
the msg is note_off channel=0 note=79 velocity=0 time=25
the msg is note_on channel=0 note=79 velocity=100 time=0
the msg is note_off channel=0 note=79 velocity=0 time=12
the msg is note_on channel=0 note=79 velocity=100 time=0
the msg is note_off channel=0 note=76 velocity=0 time=12
the msg is note_on channel=0 note=76 velocity=100 time=0
the msg is note_off channel=0 note=74 velocity=0 time=17
the msg is note_on channel=0 note=74 velocity=100 time=0
the msg is note_off channel=0 note=72 velocity=0 time=8
the msg is note_on channel=0 note=72 velocity=100 time=0
the msg is note_off channel=0 note=72 velocity=0 time=25
the msg is note_on channel=0 note=72 velocity=100 time=0
the msg is note_off channel=0 note=72 velocity=0 time=25
the msg is note_on channel=0 note=72 velocity=100 time=0
the msg is note_off channel=0 note=72 velocity=0 time=12
the msg is note_on channel=0 note=72 velocity=100 time=0
the msg is note_off channel=0 note=72 velocity=0 time=29
the msg is note_on channel=0 note=72 velocity=100 time=0
the msg is note_off channel=0 note=72 velocity=0 time=8
the msg is note_on channel=0 note=72 velocity=100 time=0
the msg is note_off channel=0 note=72 velocity=0 time=25
the msg is note_on channel=0 note=72 velocity=100 time=0
the msg is note_off channel=0 note=72 velocity=0 time=12
the msg is note_on channel=0 note=72 velocity=100 time=0
the msg is note_off channel=0 note=72 velocity=0 time=12
the msg is note_on channel=0 note=72 velocity=100 time=0
the msg is note_off channel=0 note=72 velocity=0 time=12
the msg is note_on channel=0 note=72 velocity=100 time=0
the msg is note_off channel=0 note=76 velocity=0 time=12
the msg is note_on channel=0 note=76 velocity=100 time=0
the msg is note_off channel=0 note=79 velocity=0 time=25
the msg is note_on channel=0 note=79 velocity=100 time=0
the msg is note_off channel=0 note=79 velocity=0 time=12
the msg is note_on channel=0 note=79 velocity=100 time=0
the msg is note_off channel=0 note=76 velocity=0 time=12
the msg is note_on channel=0 note=76 velocity=100 time=0
the msg is note_off channel=0 note=74 velocity=0 time=12
the msg is note_on channel=0 note=74 velocity=100 time=0
the msg is note_off channel=0 note=72 velocity=0 time=12
the msg is note_on channel=0 note=72 velocity=100 time=0
the msg is note_off channel=0 note=72 velocity=0 time=76
the msg is note_on channel=0 note=72 velocity=100 time=0
the msg is note_off channel=0 note=72 velocity=0 time=12
the msg is note_on channel=0 note=72 velocity=100 time=0
the msg is note_off channel=0 note=72 velocity=0 time=12
the msg is note_on channel=0 note=72 velocity=100 time=0
the msg is note_off channel=0 note=72 velocity=0 time=8
the msg is note_on channel=0 note=72 velocity=100 time=0
the msg is note_off channel=0 note=72 velocity=0 time=17
the msg is note_on channel=0 note=72 velocity=100 time=0
the msg is note_off channel=0 note=72 velocity=0 time=12
the msg is note_on channel=0 note=72 velocity=100 time=0
the msg is note_off channel=0 note=72 velocity=0 time=12
the msg is note_on channel=0 note=72 velocity=100 time=0
the msg is note_off channel=0 note=76 velocity=0 time=8
the msg is note_on channel=0 note=76 velocity=100 time=0
the msg is note_off channel=0 note=79 velocity=0 time=29
the msg is note_on channel=0 note=79 velocity=100 time=0
the msg is note_off channel=0 note=79 velocity=0 time=12
the msg is note_on channel=0 note=79 velocity=100 time=0
the msg is note_off channel=0 note=76 velocity=0 time=8
the msg is note_on channel=0 note=76 velocity=100 time=0
the msg is note_off channel=0 note=74 velocity=0 time=17
the msg is note_on channel=0 note=74 velocity=100 time=0
the msg is <meta message end_of_track time=51>
the msg is <meta message track_name name='Piano' time=0>
the msg is program_change channel=0 program=0 time=0
the msg is note_off channel=0 note=72 velocity=0 time=0
the msg is pitchwheel channel=0 pitch=0 time=0
the msg is program_change channel=0 program=0 time=0
the msg is <meta message set_tempo tempo=500000 time=0>
the msg is <meta message time_signature numerator=4 denominator=4 clocks_per_click=24 notated_32nd_notes_per_beat=8 time=0>
the msg is note_on channel=0 note=72 velocity=100 time=0
the msg is note_off channel=0 note=74 velocity=0 time=34
the msg is note_on channel=0 note=74 velocity=100 time=0
the msg is note_off channel=0 note=74 velocity=0 time=17
the msg is note_on channel=0 note=74 velocity=100 time=0
the msg is note_off channel=0 note=74 velocity=0 time=34
the msg is note_on channel=0 note=74 velocity=100 time=0
the msg is note_off channel=0 note=74 velocity=0 time=17
the msg is note_on channel=0 note=74 velocity=100 time=0
the msg is note_off channel=0 note=76 velocity=0 time=34
the msg is note_on channel=0 note=76 velocity=100 time=0
the msg is note_off channel=0 note=79 velocity=0 time=17
the msg is note_on channel=0 note=79 velocity=100 time=0
the msg is note_off channel=0 note=79 velocity=0 time=17
the msg is note_on channel=0 note=79 velocity=100 time=0
the msg is note_off channel=0 note=76 velocity=0 time=17
the msg is note_on channel=0 note=76 velocity=100 time=0
the msg is note_off channel=0 note=74 velocity=0 time=4
the msg is note_on channel=0 note=74 velocity=100 time=0
the msg is note_off channel=0 note=72 velocity=0 time=12
the msg is note_on channel=0 note=72 velocity=100 time=0
the msg is note_off channel=0 note=72 velocity=0 time=89
the msg is note_on channel=0 note=72 velocity=100 time=0
the msg is note_off channel=0 note=72 velocity=0 time=12
the msg is note_on channel=0 note=72 velocity=100 time=0
the msg is note_off channel=0 note=74 velocity=0 time=25
the msg is note_on channel=0 note=74 velocity=100 time=0
the msg is note_off channel=0 note=74 velocity=0 time=25
the msg is note_on channel=0 note=74 velocity=100 time=0
the msg is note_off channel=0 note=74 velocity=0 time=12
the msg is note_on channel=0 note=74 velocity=100 time=0
the msg is note_off channel=0 note=76 velocity=0 time=25
the msg is note_on channel=0 note=76 velocity=100 time=0
the msg is note_off channel=0 note=79 velocity=0 time=25
the msg is note_on channel=0 note=79 velocity=100 time=0
the msg is note_off channel=0 note=79 velocity=0 time=12
the msg is note_on channel=0 note=79 velocity=100 time=0
the msg is note_off channel=0 note=76 velocity=0 time=12
the msg is note_on channel=0 note=76 velocity=100 time=0
the msg is note_off channel=0 note=74 velocity=0 time=12
the msg is note_on channel=0 note=74 velocity=100 time=0
the msg is note_off channel=0 note=72 velocity=0 time=12
the msg is note_on channel=0 note=72 velocity=100 time=0
the msg is note_off channel=0 note=74 velocity=0 time=25
the msg is note_on channel=0 note=74 velocity=100 time=0
the msg is note_off channel=0 note=76 velocity=0 time=25
the msg is note_on channel=0 note=76 velocity=100 time=0
the msg is note_off channel=0 note=79 velocity=0 time=25
the msg is note_on channel=0 note=79 velocity=100 time=0
the msg is note_off channel=0 note=79 velocity=0 time=12
the msg is note_on channel=0 note=79 velocity=100 time=0
the msg is note_off channel=0 note=76 velocity=0 time=12
the msg is note_on channel=0 note=76 velocity=100 time=0
the msg is note_off channel=0 note=74 velocity=0 time=12
the msg is note_on channel=0 note=74 velocity=100 time=0
the msg is note_off channel=0 note=72 velocity=0 time=12
the msg is note_on channel=0 note=72 velocity=100 time=0
the msg is note_off channel=0 note=74 velocity=0 time=25
the msg is note_on channel=0 note=74 velocity=100 time=0
the msg is note_off channel=0 note=74 velocity=0 time=12
the msg is note_on channel=0 note=74 velocity=100 time=0
the msg is note_off channel=0 note=74 velocity=0 time=12
the msg is note_on channel=0 note=74 velocity=100 time=0
the msg is note_off channel=0 note=74 velocity=0 time=25
the msg is note_on channel=0 note=74 velocity=100 time=0
the msg is note_off channel=0 note=74 velocity=0 time=25
the msg is note_on channel=0 note=74 velocity=100 time=0
the msg is note_off channel=0 note=76 velocity=0 time=25
the msg is note_on channel=0 note=76 velocity=100 time=0
the msg is note_off channel=0 note=79 velocity=0 time=25
the msg is note_on channel=0 note=79 velocity=100 time=0
the msg is note_off channel=0 note=79 velocity=0 time=12
the msg is note_on channel=0 note=79 velocity=100 time=0
the msg is note_off channel=0 note=76 velocity=0 time=12
the msg is note_on channel=0 note=76 velocity=100 time=0
the msg is note_off channel=0 note=74 velocity=0 time=12
the msg is note_on channel=0 note=74 velocity=100 time=0
the msg is note_off channel=0 note=72 velocity=0 time=12
the msg is note_on channel=0 note=72 velocity=100 time=0
the msg is note_off channel=0 note=72 velocity=0 time=81
the msg is note_on channel=0 note=72 velocity=100 time=0
the msg is note_off channel=0 note=72 velocity=0 time=8
the msg is note_on channel=0 note=72 velocity=100 time=0
the msg is note_off channel=0 note=74 velocity=0 time=25
the msg is note_on channel=0 note=74 velocity=100 time=0
the msg is note_off channel=0 note=74 velocity=0 time=25
the msg is note_on channel=0 note=74 velocity=100 time=0
the msg is note_off channel=0 note=74 velocity=0 time=25
the msg is note_on channel=0 note=74 velocity=100 time=0
the msg is note_off channel=0 note=74 velocity=0 time=25
the msg is note_on channel=0 note=74 velocity=100 time=0
the msg is note_off channel=0 note=74 velocity=0 time=25
the msg is note_on channel=0 note=74 velocity=100 time=0
the msg is note_off channel=0 note=74 velocity=0 time=25
the msg is note_on channel=0 note=74 velocity=100 time=0
the msg is note_off channel=0 note=76 velocity=0 time=25
the msg is note_on channel=0 note=76 velocity=100 time=0
the msg is note_off channel=0 note=79 velocity=0 time=25
the msg is note_on channel=0 note=79 velocity=100 time=0
the msg is note_off channel=0 note=79 velocity=0 time=12
the msg is note_on channel=0 note=79 velocity=100 time=0
the msg is note_off channel=0 note=76 velocity=0 time=12
the msg is note_on channel=0 note=76 velocity=100 time=0
the msg is note_off channel=0 note=74 velocity=0 time=17
the msg is note_on channel=0 note=74 velocity=100 time=0
the msg is note_off channel=0 note=72 velocity=0 time=8
the msg is note_on channel=0 note=72 velocity=100 time=0
the msg is note_off channel=0 note=72 velocity=0 time=25
the msg is note_on channel=0 note=72 velocity=100 time=0
the msg is note_off channel=0 note=72 velocity=0 time=25
the msg is note_on channel=0 note=72 velocity=100 time=0
the msg is note_off channel=0 note=72 velocity=0 time=12
the msg is note_on channel=0 note=72 velocity=100 time=0
the msg is note_off channel=0 note=72 velocity=0 time=29
the msg is note_on channel=0 note=72 velocity=100 time=0
the msg is note_off channel=0 note=72 velocity=0 time=8
the msg is note_on channel=0 note=72 velocity=100 time=0
the msg is note_off channel=0 note=72 velocity=0 time=25
the msg is note_on channel=0 note=72 velocity=100 time=0
the msg is note_off channel=0 note=72 velocity=0 time=12
the msg is note_on channel=0 note=72 velocity=100 time=0
the msg is note_off channel=0 note=72 velocity=0 time=12
the msg is note_on channel=0 note=72 velocity=100 time=0
the msg is note_off channel=0 note=72 velocity=0 time=12
the msg is note_on channel=0 note=72 velocity=100 time=0
the msg is note_off channel=0 note=76 velocity=0 time=12
the msg is note_on channel=0 note=76 velocity=100 time=0
the msg is note_off channel=0 note=79 velocity=0 time=25
the msg is note_on channel=0 note=79 velocity=100 time=0
the msg is note_off channel=0 note=79 velocity=0 time=12
the msg is note_on channel=0 note=79 velocity=100 time=0
the msg is note_off channel=0 note=76 velocity=0 time=12
the msg is note_on channel=0 note=76 velocity=100 time=0
the msg is note_off channel=0 note=74 velocity=0 time=12
the msg is note_on channel=0 note=74 velocity=100 time=0
the msg is note_off channel=0 note=72 velocity=0 time=12
the msg is note_on channel=0 note=72 velocity=100 time=0
the msg is note_off channel=0 note=72 velocity=0 time=76
the msg is note_on channel=0 note=72 velocity=100 time=0
the msg is note_off channel=0 note=72 velocity=0 time=12
the msg is note_on channel=0 note=72 velocity=100 time=0
the msg is note_off channel=0 note=72 velocity=0 time=12
the msg is note_on channel=0 note=72 velocity=100 time=0
the msg is note_off channel=0 note=72 velocity=0 time=8
the msg is note_on channel=0 note=72 velocity=100 time=0
the msg is note_off channel=0 note=72 velocity=0 time=17
the msg is note_on channel=0 note=72 velocity=100 time=0
the msg is note_off channel=0 note=72 velocity=0 time=12
the msg is note_on channel=0 note=72 velocity=100 time=0
the msg is note_off channel=0 note=72 velocity=0 time=12
the msg is note_on channel=0 note=72 velocity=100 time=0
the msg is note_off channel=0 note=76 velocity=0 time=8
the msg is note_on channel=0 note=76 velocity=100 time=0
the msg is note_off channel=0 note=79 velocity=0 time=29
the msg is note_on channel=0 note=79 velocity=100 time=0
the msg is note_off channel=0 note=79 velocity=0 time=12
the msg is note_on channel=0 note=79 velocity=100 time=0
the msg is note_off channel=0 note=76 velocity=0 time=8
the msg is note_on channel=0 note=76 velocity=100 time=0
the msg is note_off channel=0 note=74 velocity=0 time=17
the msg is note_on channel=0 note=74 velocity=100 time=0
the msg is <meta message end_of_track time=51>
the msg is <meta message track_name name='Piano' time=0>
the msg is program_change channel=0 program=0 time=0
the msg is note_off channel=0 note=72 velocity=0 time=0
the msg is pitchwheel channel=0 pitch=0 time=0
the msg is program_change channel=0 program=0 time=0
the msg is <meta message set_tempo tempo=500000 time=0>
the msg is <meta message time_signature numerator=4 denominator=4 clocks_per_click=24 notated_32nd_notes_per_beat=8 time=0>
the msg is note_on channel=0 note=72 velocity=100 time=0
the msg is note_off channel=0 note=74 velocity=0 time=34
the msg is note_on channel=0 note=74 velocity=100 time=0
the msg is note_off channel=0 note=74 velocity=0 time=17
the msg is note_on channel=0 note=74 velocity=100 time=0
the msg is note_off channel=0 note=74 velocity=0 time=34
the msg is note_on channel=0 note=74 velocity=100 time=0
the msg is note_off channel=0 note=74 velocity=0 time=17
the msg is note_on channel=0 note=74 velocity=100 time=0
the msg is note_off channel=0 note=76 velocity=0 time=34
the msg is note_on channel=0 note=76 velocity=100 time=0
the msg is note_off channel=0 note=79 velocity=0 time=17
the msg is note_on channel=0 note=79 velocity=100 time=0
the msg is note_off channel=0 note=79 velocity=0 time=17
the msg is note_on channel=0 note=79 velocity=100 time=0
the msg is note_off channel=0 note=76 velocity=0 time=17
the msg is note_on channel=0 note=76 velocity=100 time=0
the msg is note_off channel=0 note=74 velocity=0 time=4
the msg is note_on channel=0 note=74 velocity=100 time=0
the msg is note_off channel=0 note=72 velocity=0 time=12
the msg is note_on channel=0 note=72 velocity=100 time=0
the msg is note_off channel=0 note=72 velocity=0 time=89
the msg is note_on channel=0 note=72 velocity=100 time=0
the msg is note_off channel=0 note=72 velocity=0 time=12
the msg is note_on channel=0 note=72 velocity=100 time=0
the msg is note_off channel=0 note=74 velocity=0 time=25
the msg is note_on channel=0 note=74 velocity=100 time=0
the msg is note_off channel=0 note=74 velocity=0 time=25
the msg is note_on channel=0 note=74 velocity=100 time=0
the msg is note_off channel=0 note=74 velocity=0 time=12
the msg is note_on channel=0 note=74 velocity=100 time=0
the msg is note_off channel=0 note=76 velocity=0 time=25
the msg is note_on channel=0 note=76 velocity=100 time=0
the msg is note_off channel=0 note=79 velocity=0 time=25
the msg is note_on channel=0 note=79 velocity=100 time=0
the msg is note_off channel=0 note=79 velocity=0 time=12
the msg is note_on channel=0 note=79 velocity=100 time=0
the msg is note_off channel=0 note=76 velocity=0 time=12
the msg is note_on channel=0 note=76 velocity=100 time=0
the msg is note_off channel=0 note=74 velocity=0 time=12
the msg is note_on channel=0 note=74 velocity=100 time=0
the msg is note_off channel=0 note=72 velocity=0 time=12
the msg is note_on channel=0 note=72 velocity=100 time=0
the msg is note_off channel=0 note=74 velocity=0 time=25
the msg is note_on channel=0 note=74 velocity=100 time=0
the msg is note_off channel=0 note=76 velocity=0 time=25
the msg is note_on channel=0 note=76 velocity=100 time=0
the msg is note_off channel=0 note=79 velocity=0 time=25
the msg is note_on channel=0 note=79 velocity=100 time=0
the msg is note_off channel=0 note=79 velocity=0 time=12
the msg is note_on channel=0 note=79 velocity=100 time=0
the msg is note_off channel=0 note=76 velocity=0 time=12
the msg is note_on channel=0 note=76 velocity=100 time=0
the msg is note_off channel=0 note=74 velocity=0 time=12
the msg is note_on channel=0 note=74 velocity=100 time=0
the msg is note_off channel=0 note=72 velocity=0 time=12
the msg is note_on channel=0 note=72 velocity=100 time=0
the msg is note_off channel=0 note=74 velocity=0 time=25
the msg is note_on channel=0 note=74 velocity=100 time=0
the msg is note_off channel=0 note=74 velocity=0 time=12
the msg is note_on channel=0 note=74 velocity=100 time=0
the msg is note_off channel=0 note=74 velocity=0 time=12
the msg is note_on channel=0 note=74 velocity=100 time=0
the msg is note_off channel=0 note=74 velocity=0 time=25
the msg is note_on channel=0 note=74 velocity=100 time=0
the msg is note_off channel=0 note=74 velocity=0 time=25
the msg is note_on channel=0 note=74 velocity=100 time=0
the msg is note_off channel=0 note=76 velocity=0 time=25
the msg is note_on channel=0 note=76 velocity=100 time=0
the msg is note_off channel=0 note=79 velocity=0 time=25
the msg is note_on channel=0 note=79 velocity=100 time=0
the msg is note_off channel=0 note=79 velocity=0 time=12
the msg is note_on channel=0 note=79 velocity=100 time=0
the msg is note_off channel=0 note=76 velocity=0 time=12
the msg is note_on channel=0 note=76 velocity=100 time=0
the msg is note_off channel=0 note=74 velocity=0 time=12
the msg is note_on channel=0 note=74 velocity=100 time=0
the msg is note_off channel=0 note=72 velocity=0 time=12
the msg is note_on channel=0 note=72 velocity=100 time=0
the msg is note_off channel=0 note=72 velocity=0 time=81
the msg is note_on channel=0 note=72 velocity=100 time=0
the msg is note_off channel=0 note=72 velocity=0 time=8
the msg is note_on channel=0 note=72 velocity=100 time=0
the msg is note_off channel=0 note=74 velocity=0 time=25
the msg is note_on channel=0 note=74 velocity=100 time=0
the msg is note_off channel=0 note=74 velocity=0 time=25
the msg is note_on channel=0 note=74 velocity=100 time=0
the msg is note_off channel=0 note=74 velocity=0 time=25
the msg is note_on channel=0 note=74 velocity=100 time=0
the msg is note_off channel=0 note=74 velocity=0 time=25
the msg is note_on channel=0 note=74 velocity=100 time=0
the msg is note_off channel=0 note=74 velocity=0 time=25
the msg is note_on channel=0 note=74 velocity=100 time=0
the msg is note_off channel=0 note=74 velocity=0 time=25
the msg is note_on channel=0 note=74 velocity=100 time=0
the msg is note_off channel=0 note=76 velocity=0 time=25
the msg is note_on channel=0 note=76 velocity=100 time=0
the msg is note_off channel=0 note=79 velocity=0 time=25
the msg is note_on channel=0 note=79 velocity=100 time=0
the msg is note_off channel=0 note=79 velocity=0 time=12
the msg is note_on channel=0 note=79 velocity=100 time=0
the msg is note_off channel=0 note=76 velocity=0 time=12
the msg is note_on channel=0 note=76 velocity=100 time=0
the msg is note_off channel=0 note=74 velocity=0 time=17
the msg is note_on channel=0 note=74 velocity=100 time=0
the msg is note_off channel=0 note=72 velocity=0 time=8
the msg is note_on channel=0 note=72 velocity=100 time=0
the msg is note_off channel=0 note=72 velocity=0 time=25
the msg is note_on channel=0 note=72 velocity=100 time=0
the msg is note_off channel=0 note=72 velocity=0 time=25
the msg is note_on channel=0 note=72 velocity=100 time=0
the msg is note_off channel=0 note=72 velocity=0 time=12
the msg is note_on channel=0 note=72 velocity=100 time=0
the msg is note_off channel=0 note=72 velocity=0 time=29
the msg is note_on channel=0 note=72 velocity=100 time=0
the msg is note_off channel=0 note=72 velocity=0 time=8
the msg is note_on channel=0 note=72 velocity=100 time=0
the msg is note_off channel=0 note=72 velocity=0 time=25
the msg is note_on channel=0 note=72 velocity=100 time=0
the msg is note_off channel=0 note=72 velocity=0 time=12
the msg is note_on channel=0 note=72 velocity=100 time=0
the msg is note_off channel=0 note=72 velocity=0 time=12
the msg is note_on channel=0 note=72 velocity=100 time=0
the msg is note_off channel=0 note=72 velocity=0 time=12
the msg is note_on channel=0 note=72 velocity=100 time=0
the msg is note_off channel=0 note=76 velocity=0 time=12
the msg is note_on channel=0 note=76 velocity=100 time=0
the msg is note_off channel=0 note=79 velocity=0 time=25
the msg is note_on channel=0 note=79 velocity=100 time=0
the msg is note_off channel=0 note=79 velocity=0 time=12
the msg is note_on channel=0 note=79 velocity=100 time=0
the msg is note_off channel=0 note=76 velocity=0 time=12
the msg is note_on channel=0 note=76 velocity=100 time=0
the msg is note_off channel=0 note=74 velocity=0 time=12
the msg is note_on channel=0 note=74 velocity=100 time=0
the msg is note_off channel=0 note=72 velocity=0 time=12
the msg is note_on channel=0 note=72 velocity=100 time=0
the msg is note_off channel=0 note=72 velocity=0 time=76
the msg is note_on channel=0 note=72 velocity=100 time=0
the msg is note_off channel=0 note=72 velocity=0 time=12
the msg is note_on channel=0 note=72 velocity=100 time=0
the msg is note_off channel=0 note=72 velocity=0 time=12
the msg is note_on channel=0 note=72 velocity=100 time=0
the msg is note_off channel=0 note=72 velocity=0 time=8
the msg is note_on channel=0 note=72 velocity=100 time=0
the msg is note_off channel=0 note=72 velocity=0 time=17
the msg is note_on channel=0 note=72 velocity=100 time=0
the msg is note_off channel=0 note=72 velocity=0 time=12
the msg is note_on channel=0 note=72 velocity=100 time=0
the msg is note_off channel=0 note=72 velocity=0 time=12
the msg is note_on channel=0 note=72 velocity=100 time=0
the msg is note_off channel=0 note=76 velocity=0 time=8
the msg is note_on channel=0 note=76 velocity=100 time=0
the msg is note_off channel=0 note=79 velocity=0 time=29
the msg is note_on channel=0 note=79 velocity=100 time=0
the msg is note_off channel=0 note=79 velocity=0 time=12
the msg is note_on channel=0 note=79 velocity=100 time=0
the msg is note_off channel=0 note=76 velocity=0 time=8
the msg is note_on channel=0 note=76 velocity=100 time=0
the msg is note_off channel=0 note=74 velocity=0 time=17
the msg is note_on channel=0 note=74 velocity=100 time=0
the msg is <meta message end_of_track time=51>
the msg is <meta message track_name name='Piano' time=0>
the msg is program_change channel=0 program=0 time=0
the msg is note_off channel=0 note=72 velocity=0 time=0
the msg is pitchwheel channel=0 pitch=0 time=0
the msg is program_change channel=0 program=0 time=0
the msg is <meta message set_tempo tempo=500000 time=0>
the msg is <meta message time_signature numerator=4 denominator=4 clocks_per_click=24 notated_32nd_notes_per_beat=8 time=0>
the msg is note_on channel=0 note=72 velocity=100 time=0
the msg is note_off channel=0 note=74 velocity=0 time=34
the msg is note_on channel=0 note=74 velocity=100 time=0
the msg is note_off channel=0 note=74 velocity=0 time=17
the msg is note_on channel=0 note=74 velocity=100 time=0
the msg is note_off channel=0 note=74 velocity=0 time=34
the msg is note_on channel=0 note=74 velocity=100 time=0
the msg is note_off channel=0 note=74 velocity=0 time=17
the msg is note_on channel=0 note=74 velocity=100 time=0
the msg is note_off channel=0 note=76 velocity=0 time=34
the msg is note_on channel=0 note=76 velocity=100 time=0
the msg is note_off channel=0 note=79 velocity=0 time=17
the msg is note_on channel=0 note=79 velocity=100 time=0
the msg is note_off channel=0 note=79 velocity=0 time=17
the msg is note_on channel=0 note=79 velocity=100 time=0
the msg is note_off channel=0 note=76 velocity=0 time=17
the msg is note_on channel=0 note=76 velocity=100 time=0
the msg is note_off channel=0 note=74 velocity=0 time=4
the msg is note_on channel=0 note=74 velocity=100 time=0
the msg is note_off channel=0 note=72 velocity=0 time=12
the msg is note_on channel=0 note=72 velocity=100 time=0
the msg is note_off channel=0 note=72 velocity=0 time=89
the msg is note_on channel=0 note=72 velocity=100 time=0
the msg is note_off channel=0 note=72 velocity=0 time=12
the msg is note_on channel=0 note=72 velocity=100 time=0
the msg is note_off channel=0 note=74 velocity=0 time=25
the msg is note_on channel=0 note=74 velocity=100 time=0
the msg is note_off channel=0 note=74 velocity=0 time=25
the msg is note_on channel=0 note=74 velocity=100 time=0
the msg is note_off channel=0 note=74 velocity=0 time=12
the msg is note_on channel=0 note=74 velocity=100 time=0
the msg is note_off channel=0 note=76 velocity=0 time=25
the msg is note_on channel=0 note=76 velocity=100 time=0
the msg is note_off channel=0 note=79 velocity=0 time=25
the msg is note_on channel=0 note=79 velocity=100 time=0
the msg is note_off channel=0 note=79 velocity=0 time=12
the msg is note_on channel=0 note=79 velocity=100 time=0
the msg is note_off channel=0 note=76 velocity=0 time=12
the msg is note_on channel=0 note=76 velocity=100 time=0
the msg is note_off channel=0 note=74 velocity=0 time=12
the msg is note_on channel=0 note=74 velocity=100 time=0
the msg is note_off channel=0 note=72 velocity=0 time=12
the msg is note_on channel=0 note=72 velocity=100 time=0
the msg is note_off channel=0 note=74 velocity=0 time=25
the msg is note_on channel=0 note=74 velocity=100 time=0
the msg is note_off channel=0 note=76 velocity=0 time=25
the msg is note_on channel=0 note=76 velocity=100 time=0
the msg is note_off channel=0 note=79 velocity=0 time=25
the msg is note_on channel=0 note=79 velocity=100 time=0
the msg is note_off channel=0 note=79 velocity=0 time=12
the msg is note_on channel=0 note=79 velocity=100 time=0
the msg is note_off channel=0 note=76 velocity=0 time=12
the msg is note_on channel=0 note=76 velocity=100 time=0
the msg is note_off channel=0 note=74 velocity=0 time=12
the msg is note_on channel=0 note=74 velocity=100 time=0
the msg is note_off channel=0 note=72 velocity=0 time=12
the msg is note_on channel=0 note=72 velocity=100 time=0
the msg is note_off channel=0 note=74 velocity=0 time=25
the msg is note_on channel=0 note=74 velocity=100 time=0
the msg is note_off channel=0 note=74 velocity=0 time=12
the msg is note_on channel=0 note=74 velocity=100 time=0
the msg is note_off channel=0 note=74 velocity=0 time=12
the msg is note_on channel=0 note=74 velocity=100 time=0
the msg is note_off channel=0 note=74 velocity=0 time=25
the msg is note_on channel=0 note=74 velocity=100 time=0
the msg is note_off channel=0 note=74 velocity=0 time=25
the msg is note_on channel=0 note=74 velocity=100 time=0
the msg is note_off channel=0 note=76 velocity=0 time=25
the msg is note_on channel=0 note=76 velocity=100 time=0
the msg is note_off channel=0 note=79 velocity=0 time=25
the msg is note_on channel=0 note=79 velocity=100 time=0
the msg is note_off channel=0 note=79 velocity=0 time=12
the msg is note_on channel=0 note=79 velocity=100 time=0
the msg is note_off channel=0 note=76 velocity=0 time=12
the msg is note_on channel=0 note=76 velocity=100 time=0
the msg is note_off channel=0 note=74 velocity=0 time=12
the msg is note_on channel=0 note=74 velocity=100 time=0
the msg is note_off channel=0 note=72 velocity=0 time=12
the msg is note_on channel=0 note=72 velocity=100 time=0
the msg is note_off channel=0 note=72 velocity=0 time=81
the msg is note_on channel=0 note=72 velocity=100 time=0
the msg is note_off channel=0 note=72 velocity=0 time=8
the msg is note_on channel=0 note=72 velocity=100 time=0
the msg is note_off channel=0 note=74 velocity=0 time=25
the msg is note_on channel=0 note=74 velocity=100 time=0
the msg is note_off channel=0 note=74 velocity=0 time=25
the msg is note_on channel=0 note=74 velocity=100 time=0
the msg is note_off channel=0 note=74 velocity=0 time=25
the msg is note_on channel=0 note=74 velocity=100 time=0
the msg is note_off channel=0 note=74 velocity=0 time=25
the msg is note_on channel=0 note=74 velocity=100 time=0
the msg is note_off channel=0 note=74 velocity=0 time=25
the msg is note_on channel=0 note=74 velocity=100 time=0
the msg is note_off channel=0 note=74 velocity=0 time=25
the msg is note_on channel=0 note=74 velocity=100 time=0
the msg is note_off channel=0 note=76 velocity=0 time=25
the msg is note_on channel=0 note=76 velocity=100 time=0
the msg is note_off channel=0 note=79 velocity=0 time=25
the msg is note_on channel=0 note=79 velocity=100 time=0
the msg is note_off channel=0 note=79 velocity=0 time=12
the msg is note_on channel=0 note=79 velocity=100 time=0
the msg is note_off channel=0 note=76 velocity=0 time=12
the msg is note_on channel=0 note=76 velocity=100 time=0
the msg is note_off channel=0 note=74 velocity=0 time=17
the msg is note_on channel=0 note=74 velocity=100 time=0
the msg is note_off channel=0 note=72 velocity=0 time=8
the msg is note_on channel=0 note=72 velocity=100 time=0
the msg is note_off channel=0 note=72 velocity=0 time=25
the msg is note_on channel=0 note=72 velocity=100 time=0
the msg is note_off channel=0 note=72 velocity=0 time=25
the msg is note_on channel=0 note=72 velocity=100 time=0
the msg is note_off channel=0 note=72 velocity=0 time=12
the msg is note_on channel=0 note=72 velocity=100 time=0
the msg is note_off channel=0 note=72 velocity=0 time=29
the msg is note_on channel=0 note=72 velocity=100 time=0
the msg is note_off channel=0 note=72 velocity=0 time=8
the msg is note_on channel=0 note=72 velocity=100 time=0
the msg is note_off channel=0 note=72 velocity=0 time=25
the msg is note_on channel=0 note=72 velocity=100 time=0
the msg is note_off channel=0 note=72 velocity=0 time=12
the msg is note_on channel=0 note=72 velocity=100 time=0
the msg is note_off channel=0 note=72 velocity=0 time=12
the msg is note_on channel=0 note=72 velocity=100 time=0
the msg is note_off channel=0 note=72 velocity=0 time=12
the msg is note_on channel=0 note=72 velocity=100 time=0
the msg is note_off channel=0 note=76 velocity=0 time=12
the msg is note_on channel=0 note=76 velocity=100 time=0
the msg is note_off channel=0 note=79 velocity=0 time=25
the msg is note_on channel=0 note=79 velocity=100 time=0
the msg is note_off channel=0 note=79 velocity=0 time=12
the msg is note_on channel=0 note=79 velocity=100 time=0
the msg is note_off channel=0 note=76 velocity=0 time=12
the msg is note_on channel=0 note=76 velocity=100 time=0
the msg is note_off channel=0 note=74 velocity=0 time=12
the msg is note_on channel=0 note=74 velocity=100 time=0
the msg is note_off channel=0 note=72 velocity=0 time=12
the msg is note_on channel=0 note=72 velocity=100 time=0
the msg is note_off channel=0 note=72 velocity=0 time=76
the msg is note_on channel=0 note=72 velocity=100 time=0
the msg is note_off channel=0 note=72 velocity=0 time=12
the msg is note_on channel=0 note=72 velocity=100 time=0
the msg is note_off channel=0 note=72 velocity=0 time=12
the msg is note_on channel=0 note=72 velocity=100 time=0
the msg is note_off channel=0 note=72 velocity=0 time=8
the msg is note_on channel=0 note=72 velocity=100 time=0
the msg is note_off channel=0 note=72 velocity=0 time=17
the msg is note_on channel=0 note=72 velocity=100 time=0
the msg is note_off channel=0 note=72 velocity=0 time=12
the msg is note_on channel=0 note=72 velocity=100 time=0
the msg is note_off channel=0 note=72 velocity=0 time=12
the msg is note_on channel=0 note=72 velocity=100 time=0
the msg is note_off channel=0 note=76 velocity=0 time=8
the msg is note_on channel=0 note=76 velocity=100 time=0
the msg is note_off channel=0 note=79 velocity=0 time=29
the msg is note_on channel=0 note=79 velocity=100 time=0
the msg is note_off channel=0 note=79 velocity=0 time=12
the msg is note_on channel=0 note=79 velocity=100 time=0
the msg is note_off channel=0 note=76 velocity=0 time=8
the msg is note_on channel=0 note=76 velocity=100 time=0
the msg is note_off channel=0 note=74 velocity=0 time=17
the msg is note_on channel=0 note=74 velocity=100 time=0
the msg is <meta message end_of_track time=51>
the msg is <meta message track_name name='Piano' time=0>
the msg is program_change channel=0 program=0 time=0
the msg is note_off channel=0 note=72 velocity=0 time=0
the msg is pitchwheel channel=0 pitch=0 time=0
the msg is program_change channel=0 program=0 time=0
the msg is <meta message set_tempo tempo=500000 time=0>
the msg is <meta message time_signature numerator=4 denominator=4 clocks_per_click=24 notated_32nd_notes_per_beat=8 time=0>
the msg is note_on channel=0 note=72 velocity=100 time=0
the msg is note_off channel=0 note=74 velocity=0 time=34
the msg is note_on channel=0 note=74 velocity=100 time=0
the msg is note_off channel=0 note=74 velocity=0 time=17
the msg is note_on channel=0 note=74 velocity=100 time=0
the msg is note_off channel=0 note=74 velocity=0 time=34
the msg is note_on channel=0 note=74 velocity=100 time=0
the msg is note_off channel=0 note=74 velocity=0 time=17
the msg is note_on channel=0 note=74 velocity=100 time=0
the msg is note_off channel=0 note=76 velocity=0 time=34
the msg is note_on channel=0 note=76 velocity=100 time=0
the msg is note_off channel=0 note=79 velocity=0 time=17
the msg is note_on channel=0 note=79 velocity=100 time=0
the msg is note_off channel=0 note=79 velocity=0 time=17
the msg is note_on channel=0 note=79 velocity=100 time=0
the msg is note_off channel=0 note=76 velocity=0 time=17
the msg is note_on channel=0 note=76 velocity=100 time=0
the msg is note_off channel=0 note=74 velocity=0 time=4
the msg is note_on channel=0 note=74 velocity=100 time=0
the msg is note_off channel=0 note=72 velocity=0 time=12
the msg is note_on channel=0 note=72 velocity=100 time=0
the msg is note_off channel=0 note=72 velocity=0 time=89
the msg is note_on channel=0 note=72 velocity=100 time=0
the msg is note_off channel=0 note=72 velocity=0 time=12
the msg is note_on channel=0 note=72 velocity=100 time=0
the msg is note_off channel=0 note=74 velocity=0 time=25
the msg is note_on channel=0 note=74 velocity=100 time=0
the msg is note_off channel=0 note=74 velocity=0 time=25
the msg is note_on channel=0 note=74 velocity=100 time=0
the msg is note_off channel=0 note=74 velocity=0 time=12
the msg is note_on channel=0 note=74 velocity=100 time=0
the msg is note_off channel=0 note=76 velocity=0 time=25
the msg is note_on channel=0 note=76 velocity=100 time=0
the msg is note_off channel=0 note=79 velocity=0 time=25
the msg is note_on channel=0 note=79 velocity=100 time=0
the msg is note_off channel=0 note=79 velocity=0 time=12
the msg is note_on channel=0 note=79 velocity=100 time=0
the msg is note_off channel=0 note=76 velocity=0 time=12
the msg is note_on channel=0 note=76 velocity=100 time=0
the msg is note_off channel=0 note=74 velocity=0 time=12
the msg is note_on channel=0 note=74 velocity=100 time=0
the msg is note_off channel=0 note=72 velocity=0 time=12
the msg is note_on channel=0 note=72 velocity=100 time=0
the msg is note_off channel=0 note=74 velocity=0 time=25
the msg is note_on channel=0 note=74 velocity=100 time=0
the msg is note_off channel=0 note=76 velocity=0 time=25
the msg is note_on channel=0 note=76 velocity=100 time=0
the msg is note_off channel=0 note=79 velocity=0 time=25
the msg is note_on channel=0 note=79 velocity=100 time=0
the msg is note_off channel=0 note=79 velocity=0 time=12
the msg is note_on channel=0 note=79 velocity=100 time=0
the msg is note_off channel=0 note=76 velocity=0 time=12
the msg is note_on channel=0 note=76 velocity=100 time=0
the msg is note_off channel=0 note=74 velocity=0 time=12
the msg is note_on channel=0 note=74 velocity=100 time=0
the msg is note_off channel=0 note=72 velocity=0 time=12
the msg is note_on channel=0 note=72 velocity=100 time=0
the msg is note_off channel=0 note=74 velocity=0 time=25
the msg is note_on channel=0 note=74 velocity=100 time=0
the msg is note_off channel=0 note=74 velocity=0 time=12
the msg is note_on channel=0 note=74 velocity=100 time=0
the msg is note_off channel=0 note=74 velocity=0 time=12
the msg is note_on channel=0 note=74 velocity=100 time=0
the msg is note_off channel=0 note=74 velocity=0 time=25
the msg is note_on channel=0 note=74 velocity=100 time=0
the msg is note_off channel=0 note=74 velocity=0 time=25
the msg is note_on channel=0 note=74 velocity=100 time=0
the msg is note_off channel=0 note=76 velocity=0 time=25
the msg is note_on channel=0 note=76 velocity=100 time=0
the msg is note_off channel=0 note=79 velocity=0 time=25
the msg is note_on channel=0 note=79 velocity=100 time=0
the msg is note_off channel=0 note=79 velocity=0 time=12
the msg is note_on channel=0 note=79 velocity=100 time=0
the msg is note_off channel=0 note=76 velocity=0 time=12
the msg is note_on channel=0 note=76 velocity=100 time=0
the msg is note_off channel=0 note=74 velocity=0 time=12
the msg is note_on channel=0 note=74 velocity=100 time=0
the msg is note_off channel=0 note=72 velocity=0 time=12
the msg is note_on channel=0 note=72 velocity=100 time=0
the msg is note_off channel=0 note=72 velocity=0 time=81
the msg is note_on channel=0 note=72 velocity=100 time=0
the msg is note_off channel=0 note=72 velocity=0 time=8
the msg is note_on channel=0 note=72 velocity=100 time=0
the msg is note_off channel=0 note=74 velocity=0 time=25
the msg is note_on channel=0 note=74 velocity=100 time=0
the msg is note_off channel=0 note=74 velocity=0 time=25
the msg is note_on channel=0 note=74 velocity=100 time=0
the msg is note_off channel=0 note=74 velocity=0 time=25
the msg is note_on channel=0 note=74 velocity=100 time=0
the msg is note_off channel=0 note=74 velocity=0 time=25
the msg is note_on channel=0 note=74 velocity=100 time=0
the msg is note_off channel=0 note=74 velocity=0 time=25
the msg is note_on channel=0 note=74 velocity=100 time=0
the msg is note_off channel=0 note=74 velocity=0 time=25
the msg is note_on channel=0 note=74 velocity=100 time=0
the msg is note_off channel=0 note=76 velocity=0 time=25
the msg is note_on channel=0 note=76 velocity=100 time=0
the msg is note_off channel=0 note=79 velocity=0 time=25
the msg is note_on channel=0 note=79 velocity=100 time=0
the msg is note_off channel=0 note=79 velocity=0 time=12
the msg is note_on channel=0 note=79 velocity=100 time=0
the msg is note_off channel=0 note=76 velocity=0 time=12
the msg is note_on channel=0 note=76 velocity=100 time=0
the msg is note_off channel=0 note=74 velocity=0 time=17
the msg is note_on channel=0 note=74 velocity=100 time=0
the msg is note_off channel=0 note=72 velocity=0 time=8
the msg is note_on channel=0 note=72 velocity=100 time=0
the msg is note_off channel=0 note=72 velocity=0 time=25
the msg is note_on channel=0 note=72 velocity=100 time=0
the msg is note_off channel=0 note=72 velocity=0 time=25
the msg is note_on channel=0 note=72 velocity=100 time=0
the msg is note_off channel=0 note=72 velocity=0 time=12
the msg is note_on channel=0 note=72 velocity=100 time=0
the msg is note_off channel=0 note=72 velocity=0 time=29
the msg is note_on channel=0 note=72 velocity=100 time=0
the msg is note_off channel=0 note=72 velocity=0 time=8
the msg is note_on channel=0 note=72 velocity=100 time=0
the msg is note_off channel=0 note=72 velocity=0 time=25
the msg is note_on channel=0 note=72 velocity=100 time=0
the msg is note_off channel=0 note=72 velocity=0 time=12
the msg is note_on channel=0 note=72 velocity=100 time=0
the msg is note_off channel=0 note=72 velocity=0 time=12
the msg is note_on channel=0 note=72 velocity=100 time=0
the msg is note_off channel=0 note=72 velocity=0 time=12
the msg is note_on channel=0 note=72 velocity=100 time=0
the msg is note_off channel=0 note=76 velocity=0 time=12
the msg is note_on channel=0 note=76 velocity=100 time=0
the msg is note_off channel=0 note=79 velocity=0 time=25
the msg is note_on channel=0 note=79 velocity=100 time=0
the msg is note_off channel=0 note=79 velocity=0 time=12
the msg is note_on channel=0 note=79 velocity=100 time=0
the msg is note_off channel=0 note=76 velocity=0 time=12
the msg is note_on channel=0 note=76 velocity=100 time=0
the msg is note_off channel=0 note=74 velocity=0 time=12
the msg is note_on channel=0 note=74 velocity=100 time=0
the msg is note_off channel=0 note=72 velocity=0 time=12
the msg is note_on channel=0 note=72 velocity=100 time=0
the msg is note_off channel=0 note=72 velocity=0 time=76
the msg is note_on channel=0 note=72 velocity=100 time=0
the msg is note_off channel=0 note=72 velocity=0 time=12
the msg is note_on channel=0 note=72 velocity=100 time=0
the msg is note_off channel=0 note=72 velocity=0 time=12
the msg is note_on channel=0 note=72 velocity=100 time=0
the msg is note_off channel=0 note=72 velocity=0 time=8
the msg is note_on channel=0 note=72 velocity=100 time=0
the msg is note_off channel=0 note=72 velocity=0 time=17
the msg is note_on channel=0 note=72 velocity=100 time=0
the msg is note_off channel=0 note=72 velocity=0 time=12
the msg is note_on channel=0 note=72 velocity=100 time=0
the msg is note_off channel=0 note=72 velocity=0 time=12
the msg is note_on channel=0 note=72 velocity=100 time=0
the msg is note_off channel=0 note=76 velocity=0 time=8
the msg is note_on channel=0 note=76 velocity=100 time=0
the msg is note_off channel=0 note=79 velocity=0 time=29
the msg is note_on channel=0 note=79 velocity=100 time=0
the msg is note_off channel=0 note=79 velocity=0 time=12
the msg is note_on channel=0 note=79 velocity=100 time=0
the msg is note_off channel=0 note=76 velocity=0 time=8
the msg is note_on channel=0 note=76 velocity=100 time=0
the msg is note_off channel=0 note=74 velocity=0 time=17
the msg is note_on channel=0 note=74 velocity=100 time=0
the msg is <meta message end_of_track time=51>
the msg is <meta message track_name name='Piano' time=0>
the msg is program_change channel=0 program=0 time=0
the msg is note_off channel=0 note=72 velocity=0 time=0
the msg is pitchwheel channel=0 pitch=0 time=0
the msg is program_change channel=0 program=0 time=0
the msg is <meta message set_tempo tempo=500000 time=0>
the msg is <meta message time_signature numerator=4 denominator=4 clocks_per_click=24 notated_32nd_notes_per_beat=8 time=0>
the msg is note_on channel=0 note=72 velocity=100 time=0
the msg is note_off channel=0 note=74 velocity=0 time=34
the msg is note_on channel=0 note=74 velocity=100 time=0
the msg is note_off channel=0 note=74 velocity=0 time=17
the msg is note_on channel=0 note=74 velocity=100 time=0
the msg is note_off channel=0 note=74 velocity=0 time=34
the msg is note_on channel=0 note=74 velocity=100 time=0
the msg is note_off channel=0 note=74 velocity=0 time=17
the msg is note_on channel=0 note=74 velocity=100 time=0
the msg is note_off channel=0 note=76 velocity=0 time=34
the msg is note_on channel=0 note=76 velocity=100 time=0
the msg is note_off channel=0 note=79 velocity=0 time=17
the msg is note_on channel=0 note=79 velocity=100 time=0
the msg is note_off channel=0 note=79 velocity=0 time=17
the msg is note_on channel=0 note=79 velocity=100 time=0
the msg is note_off channel=0 note=76 velocity=0 time=17
the msg is note_on channel=0 note=76 velocity=100 time=0
the msg is note_off channel=0 note=74 velocity=0 time=4
the msg is note_on channel=0 note=74 velocity=100 time=0
the msg is note_off channel=0 note=72 velocity=0 time=12
the msg is note_on channel=0 note=72 velocity=100 time=0
the msg is note_off channel=0 note=72 velocity=0 time=89
the msg is note_on channel=0 note=72 velocity=100 time=0
the msg is note_off channel=0 note=72 velocity=0 time=12
the msg is note_on channel=0 note=72 velocity=100 time=0
the msg is note_off channel=0 note=74 velocity=0 time=25
the msg is note_on channel=0 note=74 velocity=100 time=0
the msg is note_off channel=0 note=74 velocity=0 time=25
the msg is note_on channel=0 note=74 velocity=100 time=0
the msg is note_off channel=0 note=74 velocity=0 time=12
the msg is note_on channel=0 note=74 velocity=100 time=0
the msg is note_off channel=0 note=76 velocity=0 time=25
the msg is note_on channel=0 note=76 velocity=100 time=0
the msg is note_off channel=0 note=79 velocity=0 time=25
the msg is note_on channel=0 note=79 velocity=100 time=0
the msg is note_off channel=0 note=79 velocity=0 time=12
the msg is note_on channel=0 note=79 velocity=100 time=0
the msg is note_off channel=0 note=76 velocity=0 time=12
the msg is note_on channel=0 note=76 velocity=100 time=0
the msg is note_off channel=0 note=74 velocity=0 time=12
the msg is note_on channel=0 note=74 velocity=100 time=0
the msg is note_off channel=0 note=72 velocity=0 time=12
the msg is note_on channel=0 note=72 velocity=100 time=0
the msg is note_off channel=0 note=74 velocity=0 time=25
the msg is note_on channel=0 note=74 velocity=100 time=0
the msg is note_off channel=0 note=76 velocity=0 time=25
the msg is note_on channel=0 note=76 velocity=100 time=0
the msg is note_off channel=0 note=79 velocity=0 time=25
the msg is note_on channel=0 note=79 velocity=100 time=0
the msg is note_off channel=0 note=79 velocity=0 time=12
the msg is note_on channel=0 note=79 velocity=100 time=0
the msg is note_off channel=0 note=76 velocity=0 time=12
the msg is note_on channel=0 note=76 velocity=100 time=0
the msg is note_off channel=0 note=74 velocity=0 time=12
the msg is note_on channel=0 note=74 velocity=100 time=0
the msg is note_off channel=0 note=72 velocity=0 time=12
the msg is note_on channel=0 note=72 velocity=100 time=0
the msg is note_off channel=0 note=74 velocity=0 time=25
the msg is note_on channel=0 note=74 velocity=100 time=0
the msg is note_off channel=0 note=74 velocity=0 time=12
the msg is note_on channel=0 note=74 velocity=100 time=0
the msg is note_off channel=0 note=74 velocity=0 time=12
the msg is note_on channel=0 note=74 velocity=100 time=0
the msg is note_off channel=0 note=74 velocity=0 time=25
the msg is note_on channel=0 note=74 velocity=100 time=0
the msg is note_off channel=0 note=74 velocity=0 time=25
the msg is note_on channel=0 note=74 velocity=100 time=0
the msg is note_off channel=0 note=76 velocity=0 time=25
the msg is note_on channel=0 note=76 velocity=100 time=0
the msg is note_off channel=0 note=79 velocity=0 time=25
the msg is note_on channel=0 note=79 velocity=100 time=0
the msg is note_off channel=0 note=79 velocity=0 time=12
the msg is note_on channel=0 note=79 velocity=100 time=0
the msg is note_off channel=0 note=76 velocity=0 time=12
the msg is note_on channel=0 note=76 velocity=100 time=0
the msg is note_off channel=0 note=74 velocity=0 time=12
the msg is note_on channel=0 note=74 velocity=100 time=0
the msg is note_off channel=0 note=72 velocity=0 time=12
the msg is note_on channel=0 note=72 velocity=100 time=0
the msg is note_off channel=0 note=72 velocity=0 time=81
the msg is note_on channel=0 note=72 velocity=100 time=0
the msg is note_off channel=0 note=72 velocity=0 time=8
the msg is note_on channel=0 note=72 velocity=100 time=0
the msg is note_off channel=0 note=74 velocity=0 time=25
the msg is note_on channel=0 note=74 velocity=100 time=0
the msg is note_off channel=0 note=74 velocity=0 time=25
the msg is note_on channel=0 note=74 velocity=100 time=0
the msg is note_off channel=0 note=74 velocity=0 time=25
the msg is note_on channel=0 note=74 velocity=100 time=0
the msg is note_off channel=0 note=74 velocity=0 time=25
the msg is note_on channel=0 note=74 velocity=100 time=0
the msg is note_off channel=0 note=74 velocity=0 time=25
the msg is note_on channel=0 note=74 velocity=100 time=0
the msg is note_off channel=0 note=74 velocity=0 time=25
the msg is note_on channel=0 note=74 velocity=100 time=0
the msg is note_off channel=0 note=76 velocity=0 time=25
the msg is note_on channel=0 note=76 velocity=100 time=0
the msg is note_off channel=0 note=79 velocity=0 time=25
the msg is note_on channel=0 note=79 velocity=100 time=0
the msg is note_off channel=0 note=79 velocity=0 time=12
the msg is note_on channel=0 note=79 velocity=100 time=0
the msg is note_off channel=0 note=76 velocity=0 time=12
the msg is note_on channel=0 note=76 velocity=100 time=0
the msg is note_off channel=0 note=74 velocity=0 time=17
the msg is note_on channel=0 note=74 velocity=100 time=0
the msg is note_off channel=0 note=72 velocity=0 time=8
the msg is note_on channel=0 note=72 velocity=100 time=0
the msg is note_off channel=0 note=72 velocity=0 time=25
the msg is note_on channel=0 note=72 velocity=100 time=0
the msg is note_off channel=0 note=72 velocity=0 time=25
the msg is note_on channel=0 note=72 velocity=100 time=0
the msg is note_off channel=0 note=72 velocity=0 time=12
the msg is note_on channel=0 note=72 velocity=100 time=0
the msg is note_off channel=0 note=72 velocity=0 time=29
the msg is note_on channel=0 note=72 velocity=100 time=0
the msg is note_off channel=0 note=72 velocity=0 time=8
the msg is note_on channel=0 note=72 velocity=100 time=0
the msg is note_off channel=0 note=72 velocity=0 time=25
the msg is note_on channel=0 note=72 velocity=100 time=0
the msg is note_off channel=0 note=72 velocity=0 time=12
the msg is note_on channel=0 note=72 velocity=100 time=0
the msg is note_off channel=0 note=72 velocity=0 time=12
the msg is note_on channel=0 note=72 velocity=100 time=0
the msg is note_off channel=0 note=72 velocity=0 time=12
the msg is note_on channel=0 note=72 velocity=100 time=0
the msg is note_off channel=0 note=76 velocity=0 time=12
the msg is note_on channel=0 note=76 velocity=100 time=0
the msg is note_off channel=0 note=79 velocity=0 time=25
the msg is note_on channel=0 note=79 velocity=100 time=0
the msg is note_off channel=0 note=79 velocity=0 time=12
the msg is note_on channel=0 note=79 velocity=100 time=0
the msg is note_off channel=0 note=76 velocity=0 time=12
the msg is note_on channel=0 note=76 velocity=100 time=0
the msg is note_off channel=0 note=74 velocity=0 time=12
the msg is note_on channel=0 note=74 velocity=100 time=0
the msg is note_off channel=0 note=72 velocity=0 time=12
the msg is note_on channel=0 note=72 velocity=100 time=0
the msg is note_off channel=0 note=72 velocity=0 time=76
the msg is note_on channel=0 note=72 velocity=100 time=0
the msg is note_off channel=0 note=72 velocity=0 time=12
the msg is note_on channel=0 note=72 velocity=100 time=0
the msg is note_off channel=0 note=72 velocity=0 time=12
the msg is note_on channel=0 note=72 velocity=100 time=0
the msg is note_off channel=0 note=72 velocity=0 time=8
the msg is note_on channel=0 note=72 velocity=100 time=0
the msg is note_off channel=0 note=72 velocity=0 time=17
the msg is note_on channel=0 note=72 velocity=100 time=0
the msg is note_off channel=0 note=72 velocity=0 time=12
the msg is note_on channel=0 note=72 velocity=100 time=0
the msg is note_off channel=0 note=72 velocity=0 time=12
the msg is note_on channel=0 note=72 velocity=100 time=0
the msg is note_off channel=0 note=76 velocity=0 time=8
the msg is note_on channel=0 note=76 velocity=100 time=0
the msg is note_off channel=0 note=79 velocity=0 time=29
the msg is note_on channel=0 note=79 velocity=100 time=0
the msg is note_off channel=0 note=79 velocity=0 time=12
the msg is note_on channel=0 note=79 velocity=100 time=0
the msg is note_off channel=0 note=76 velocity=0 time=8
the msg is note_on channel=0 note=76 velocity=100 time=0
the msg is note_off channel=0 note=74 velocity=0 time=17
the msg is note_on channel=0 note=74 velocity=100 time=0
the msg is <meta message end_of_track time=51>
the msg is <meta message track_name name='Piano' time=0>
the msg is program_change channel=0 program=0 time=0
the msg is note_off channel=0 note=72 velocity=0 time=0
the msg is pitchwheel channel=0 pitch=0 time=0
the msg is program_change channel=0 program=0 time=0
the msg is <meta message set_tempo tempo=500000 time=0>
the msg is <meta message time_signature numerator=4 denominator=4 clocks_per_click=24 notated_32nd_notes_per_beat=8 time=0>
the msg is note_on channel=0 note=72 velocity=100 time=0
the msg is note_off channel=0 note=74 velocity=0 time=34
the msg is note_on channel=0 note=74 velocity=100 time=0
the msg is note_off channel=0 note=74 velocity=0 time=17
the msg is note_on channel=0 note=74 velocity=100 time=0
the msg is note_off channel=0 note=74 velocity=0 time=34
the msg is note_on channel=0 note=74 velocity=100 time=0
the msg is note_off channel=0 note=74 velocity=0 time=17
the msg is note_on channel=0 note=74 velocity=100 time=0
the msg is note_off channel=0 note=76 velocity=0 time=34
the msg is note_on channel=0 note=76 velocity=100 time=0
the msg is note_off channel=0 note=79 velocity=0 time=17
the msg is note_on channel=0 note=79 velocity=100 time=0
the msg is note_off channel=0 note=79 velocity=0 time=17
the msg is note_on channel=0 note=79 velocity=100 time=0
the msg is note_off channel=0 note=76 velocity=0 time=17
the msg is note_on channel=0 note=76 velocity=100 time=0
the msg is note_off channel=0 note=74 velocity=0 time=4
the msg is note_on channel=0 note=74 velocity=100 time=0
the msg is note_off channel=0 note=72 velocity=0 time=12
the msg is note_on channel=0 note=72 velocity=100 time=0
the msg is note_off channel=0 note=72 velocity=0 time=89
the msg is note_on channel=0 note=72 velocity=100 time=0
the msg is note_off channel=0 note=72 velocity=0 time=12
the msg is note_on channel=0 note=72 velocity=100 time=0
the msg is note_off channel=0 note=74 velocity=0 time=25
the msg is note_on channel=0 note=74 velocity=100 time=0
the msg is note_off channel=0 note=74 velocity=0 time=25
the msg is note_on channel=0 note=74 velocity=100 time=0
the msg is note_off channel=0 note=74 velocity=0 time=12
the msg is note_on channel=0 note=74 velocity=100 time=0
the msg is note_off channel=0 note=76 velocity=0 time=25
the msg is note_on channel=0 note=76 velocity=100 time=0
the msg is note_off channel=0 note=79 velocity=0 time=25
the msg is note_on channel=0 note=79 velocity=100 time=0
the msg is note_off channel=0 note=79 velocity=0 time=12
the msg is note_on channel=0 note=79 velocity=100 time=0
the msg is note_off channel=0 note=76 velocity=0 time=12
the msg is note_on channel=0 note=76 velocity=100 time=0
the msg is note_off channel=0 note=74 velocity=0 time=12
the msg is note_on channel=0 note=74 velocity=100 time=0
the msg is note_off channel=0 note=72 velocity=0 time=12
the msg is note_on channel=0 note=72 velocity=100 time=0
the msg is note_off channel=0 note=74 velocity=0 time=25
the msg is note_on channel=0 note=74 velocity=100 time=0
the msg is note_off channel=0 note=76 velocity=0 time=25
the msg is note_on channel=0 note=76 velocity=100 time=0
the msg is note_off channel=0 note=79 velocity=0 time=25
the msg is note_on channel=0 note=79 velocity=100 time=0
the msg is note_off channel=0 note=79 velocity=0 time=12
the msg is note_on channel=0 note=79 velocity=100 time=0
the msg is note_off channel=0 note=76 velocity=0 time=12
the msg is note_on channel=0 note=76 velocity=100 time=0
the msg is note_off channel=0 note=74 velocity=0 time=12
the msg is note_on channel=0 note=74 velocity=100 time=0
the msg is note_off channel=0 note=72 velocity=0 time=12
the msg is note_on channel=0 note=72 velocity=100 time=0
the msg is note_off channel=0 note=74 velocity=0 time=25
the msg is note_on channel=0 note=74 velocity=100 time=0
the msg is note_off channel=0 note=74 velocity=0 time=12
the msg is note_on channel=0 note=74 velocity=100 time=0
the msg is note_off channel=0 note=74 velocity=0 time=12
the msg is note_on channel=0 note=74 velocity=100 time=0
the msg is note_off channel=0 note=74 velocity=0 time=25
the msg is note_on channel=0 note=74 velocity=100 time=0
the msg is note_off channel=0 note=74 velocity=0 time=25
the msg is note_on channel=0 note=74 velocity=100 time=0
the msg is note_off channel=0 note=76 velocity=0 time=25
the msg is note_on channel=0 note=76 velocity=100 time=0
the msg is note_off channel=0 note=79 velocity=0 time=25
the msg is note_on channel=0 note=79 velocity=100 time=0
the msg is note_off channel=0 note=79 velocity=0 time=12
the msg is note_on channel=0 note=79 velocity=100 time=0
the msg is note_off channel=0 note=76 velocity=0 time=12
the msg is note_on channel=0 note=76 velocity=100 time=0
the msg is note_off channel=0 note=74 velocity=0 time=12
the msg is note_on channel=0 note=74 velocity=100 time=0
the msg is note_off channel=0 note=72 velocity=0 time=12
the msg is note_on channel=0 note=72 velocity=100 time=0
the msg is note_off channel=0 note=72 velocity=0 time=81
the msg is note_on channel=0 note=72 velocity=100 time=0
the msg is note_off channel=0 note=72 velocity=0 time=8
the msg is note_on channel=0 note=72 velocity=100 time=0
the msg is note_off channel=0 note=74 velocity=0 time=25
the msg is note_on channel=0 note=74 velocity=100 time=0
the msg is note_off channel=0 note=74 velocity=0 time=25
the msg is note_on channel=0 note=74 velocity=100 time=0
the msg is note_off channel=0 note=74 velocity=0 time=25
the msg is note_on channel=0 note=74 velocity=100 time=0
the msg is note_off channel=0 note=74 velocity=0 time=25
the msg is note_on channel=0 note=74 velocity=100 time=0
the msg is note_off channel=0 note=74 velocity=0 time=25
the msg is note_on channel=0 note=74 velocity=100 time=0
the msg is note_off channel=0 note=74 velocity=0 time=25
the msg is note_on channel=0 note=74 velocity=100 time=0
the msg is note_off channel=0 note=76 velocity=0 time=25
the msg is note_on channel=0 note=76 velocity=100 time=0
the msg is note_off channel=0 note=79 velocity=0 time=25
the msg is note_on channel=0 note=79 velocity=100 time=0
the msg is note_off channel=0 note=79 velocity=0 time=12
the msg is note_on channel=0 note=79 velocity=100 time=0
the msg is note_off channel=0 note=76 velocity=0 time=12
the msg is note_on channel=0 note=76 velocity=100 time=0
the msg is note_off channel=0 note=74 velocity=0 time=17
the msg is note_on channel=0 note=74 velocity=100 time=0
the msg is note_off channel=0 note=72 velocity=0 time=8
the msg is note_on channel=0 note=72 velocity=100 time=0
the msg is note_off channel=0 note=72 velocity=0 time=25
the msg is note_on channel=0 note=72 velocity=100 time=0
the msg is note_off channel=0 note=72 velocity=0 time=25
the msg is note_on channel=0 note=72 velocity=100 time=0
the msg is note_off channel=0 note=72 velocity=0 time=12
the msg is note_on channel=0 note=72 velocity=100 time=0
the msg is note_off channel=0 note=72 velocity=0 time=29
the msg is note_on channel=0 note=72 velocity=100 time=0
the msg is note_off channel=0 note=72 velocity=0 time=8
the msg is note_on channel=0 note=72 velocity=100 time=0
the msg is note_off channel=0 note=72 velocity=0 time=25
the msg is note_on channel=0 note=72 velocity=100 time=0
the msg is note_off channel=0 note=72 velocity=0 time=12
the msg is note_on channel=0 note=72 velocity=100 time=0
the msg is note_off channel=0 note=72 velocity=0 time=12
the msg is note_on channel=0 note=72 velocity=100 time=0
the msg is note_off channel=0 note=72 velocity=0 time=12
the msg is note_on channel=0 note=72 velocity=100 time=0
the msg is note_off channel=0 note=76 velocity=0 time=12
the msg is note_on channel=0 note=76 velocity=100 time=0
the msg is note_off channel=0 note=79 velocity=0 time=25
the msg is note_on channel=0 note=79 velocity=100 time=0
the msg is note_off channel=0 note=79 velocity=0 time=12
the msg is note_on channel=0 note=79 velocity=100 time=0
the msg is note_off channel=0 note=76 velocity=0 time=12
the msg is note_on channel=0 note=76 velocity=100 time=0
the msg is note_off channel=0 note=74 velocity=0 time=12
the msg is note_on channel=0 note=74 velocity=100 time=0
the msg is note_off channel=0 note=72 velocity=0 time=12
the msg is note_on channel=0 note=72 velocity=100 time=0
the msg is note_off channel=0 note=72 velocity=0 time=76
the msg is note_on channel=0 note=72 velocity=100 time=0
the msg is note_off channel=0 note=72 velocity=0 time=12
the msg is note_on channel=0 note=72 velocity=100 time=0
the msg is note_off channel=0 note=72 velocity=0 time=12
the msg is note_on channel=0 note=72 velocity=100 time=0
the msg is note_off channel=0 note=72 velocity=0 time=8
the msg is note_on channel=0 note=72 velocity=100 time=0
the msg is note_off channel=0 note=72 velocity=0 time=17
the msg is note_on channel=0 note=72 velocity=100 time=0
the msg is note_off channel=0 note=72 velocity=0 time=12
the msg is note_on channel=0 note=72 velocity=100 time=0
the msg is note_off channel=0 note=72 velocity=0 time=12
the msg is note_on channel=0 note=72 velocity=100 time=0
the msg is note_off channel=0 note=76 velocity=0 time=8
the msg is note_on channel=0 note=76 velocity=100 time=0
the msg is note_off channel=0 note=79 velocity=0 time=29
the msg is note_on channel=0 note=79 velocity=100 time=0
the msg is note_off channel=0 note=79 velocity=0 time=12
the msg is note_on channel=0 note=79 velocity=100 time=0
the msg is note_off channel=0 note=76 velocity=0 time=8
the msg is note_on channel=0 note=76 velocity=100 time=0
the msg is note_off channel=0 note=74 velocity=0 time=17
the msg is note_on channel=0 note=74 velocity=100 time=0
the msg is <meta message end_of_track time=51>
the msg is <meta message track_name name='Piano' time=0>
the msg is program_change channel=0 program=0 time=0
the msg is note_off channel=0 note=72 velocity=0 time=0
the msg is pitchwheel channel=0 pitch=0 time=0
the msg is program_change channel=0 program=0 time=0
the msg is <meta message set_tempo tempo=500000 time=0>
the msg is <meta message time_signature numerator=4 denominator=4 clocks_per_click=24 notated_32nd_notes_per_beat=8 time=0>
the msg is note_on channel=0 note=72 velocity=100 time=0
the msg is note_off channel=0 note=74 velocity=0 time=34
the msg is note_on channel=0 note=74 velocity=100 time=0
the msg is note_off channel=0 note=74 velocity=0 time=17
the msg is note_on channel=0 note=74 velocity=100 time=0
the msg is note_off channel=0 note=74 velocity=0 time=34
the msg is note_on channel=0 note=74 velocity=100 time=0
the msg is note_off channel=0 note=74 velocity=0 time=17
the msg is note_on channel=0 note=74 velocity=100 time=0
the msg is note_off channel=0 note=76 velocity=0 time=34
the msg is note_on channel=0 note=76 velocity=100 time=0
the msg is note_off channel=0 note=79 velocity=0 time=17
the msg is note_on channel=0 note=79 velocity=100 time=0
the msg is note_off channel=0 note=79 velocity=0 time=17
the msg is note_on channel=0 note=79 velocity=100 time=0
the msg is note_off channel=0 note=76 velocity=0 time=17
the msg is note_on channel=0 note=76 velocity=100 time=0
the msg is note_off channel=0 note=74 velocity=0 time=4
the msg is note_on channel=0 note=74 velocity=100 time=0
the msg is note_off channel=0 note=72 velocity=0 time=12
the msg is note_on channel=0 note=72 velocity=100 time=0
the msg is note_off channel=0 note=72 velocity=0 time=89
the msg is note_on channel=0 note=72 velocity=100 time=0
the msg is note_off channel=0 note=72 velocity=0 time=12
the msg is note_on channel=0 note=72 velocity=100 time=0
the msg is note_off channel=0 note=74 velocity=0 time=25
the msg is note_on channel=0 note=74 velocity=100 time=0
the msg is note_off channel=0 note=74 velocity=0 time=25
the msg is note_on channel=0 note=74 velocity=100 time=0
the msg is note_off channel=0 note=74 velocity=0 time=12
the msg is note_on channel=0 note=74 velocity=100 time=0
the msg is note_off channel=0 note=76 velocity=0 time=25
the msg is note_on channel=0 note=76 velocity=100 time=0
the msg is note_off channel=0 note=79 velocity=0 time=25
the msg is note_on channel=0 note=79 velocity=100 time=0
the msg is note_off channel=0 note=79 velocity=0 time=12
the msg is note_on channel=0 note=79 velocity=100 time=0
the msg is note_off channel=0 note=76 velocity=0 time=12
the msg is note_on channel=0 note=76 velocity=100 time=0
the msg is note_off channel=0 note=74 velocity=0 time=12
the msg is note_on channel=0 note=74 velocity=100 time=0
the msg is note_off channel=0 note=72 velocity=0 time=12
the msg is note_on channel=0 note=72 velocity=100 time=0
the msg is note_off channel=0 note=74 velocity=0 time=25
the msg is note_on channel=0 note=74 velocity=100 time=0
the msg is note_off channel=0 note=76 velocity=0 time=25
the msg is note_on channel=0 note=76 velocity=100 time=0
the msg is note_off channel=0 note=79 velocity=0 time=25
the msg is note_on channel=0 note=79 velocity=100 time=0
the msg is note_off channel=0 note=79 velocity=0 time=12
the msg is note_on channel=0 note=79 velocity=100 time=0
the msg is note_off channel=0 note=76 velocity=0 time=12
the msg is note_on channel=0 note=76 velocity=100 time=0
the msg is note_off channel=0 note=74 velocity=0 time=12
the msg is note_on channel=0 note=74 velocity=100 time=0
the msg is note_off channel=0 note=72 velocity=0 time=12
the msg is note_on channel=0 note=72 velocity=100 time=0
the msg is note_off channel=0 note=74 velocity=0 time=25
the msg is note_on channel=0 note=74 velocity=100 time=0
the msg is note_off channel=0 note=74 velocity=0 time=12
the msg is note_on channel=0 note=74 velocity=100 time=0
the msg is note_off channel=0 note=74 velocity=0 time=12
the msg is note_on channel=0 note=74 velocity=100 time=0
the msg is note_off channel=0 note=74 velocity=0 time=25
the msg is note_on channel=0 note=74 velocity=100 time=0
the msg is note_off channel=0 note=74 velocity=0 time=25
the msg is note_on channel=0 note=74 velocity=100 time=0
the msg is note_off channel=0 note=76 velocity=0 time=25
the msg is note_on channel=0 note=76 velocity=100 time=0
the msg is note_off channel=0 note=79 velocity=0 time=25
the msg is note_on channel=0 note=79 velocity=100 time=0
the msg is note_off channel=0 note=79 velocity=0 time=12
the msg is note_on channel=0 note=79 velocity=100 time=0
the msg is note_off channel=0 note=76 velocity=0 time=12
the msg is note_on channel=0 note=76 velocity=100 time=0
the msg is note_off channel=0 note=74 velocity=0 time=12
the msg is note_on channel=0 note=74 velocity=100 time=0
the msg is note_off channel=0 note=72 velocity=0 time=12
the msg is note_on channel=0 note=72 velocity=100 time=0
the msg is note_off channel=0 note=72 velocity=0 time=81
the msg is note_on channel=0 note=72 velocity=100 time=0
the msg is note_off channel=0 note=72 velocity=0 time=8
the msg is note_on channel=0 note=72 velocity=100 time=0
the msg is note_off channel=0 note=74 velocity=0 time=25
the msg is note_on channel=0 note=74 velocity=100 time=0
the msg is note_off channel=0 note=74 velocity=0 time=25
the msg is note_on channel=0 note=74 velocity=100 time=0
the msg is note_off channel=0 note=74 velocity=0 time=25
the msg is note_on channel=0 note=74 velocity=100 time=0
the msg is note_off channel=0 note=74 velocity=0 time=25
the msg is note_on channel=0 note=74 velocity=100 time=0
the msg is note_off channel=0 note=74 velocity=0 time=25
the msg is note_on channel=0 note=74 velocity=100 time=0
the msg is note_off channel=0 note=74 velocity=0 time=25
the msg is note_on channel=0 note=74 velocity=100 time=0
the msg is note_off channel=0 note=76 velocity=0 time=25
the msg is note_on channel=0 note=76 velocity=100 time=0
the msg is note_off channel=0 note=79 velocity=0 time=25
the msg is note_on channel=0 note=79 velocity=100 time=0
the msg is note_off channel=0 note=79 velocity=0 time=12
the msg is note_on channel=0 note=79 velocity=100 time=0
the msg is note_off channel=0 note=76 velocity=0 time=12
the msg is note_on channel=0 note=76 velocity=100 time=0
the msg is note_off channel=0 note=74 velocity=0 time=17
the msg is note_on channel=0 note=74 velocity=100 time=0
the msg is note_off channel=0 note=72 velocity=0 time=8
the msg is note_on channel=0 note=72 velocity=100 time=0
the msg is note_off channel=0 note=72 velocity=0 time=25
the msg is note_on channel=0 note=72 velocity=100 time=0
the msg is note_off channel=0 note=72 velocity=0 time=25
the msg is note_on channel=0 note=72 velocity=100 time=0
the msg is note_off channel=0 note=72 velocity=0 time=12
the msg is note_on channel=0 note=72 velocity=100 time=0
the msg is note_off channel=0 note=72 velocity=0 time=29
the msg is note_on channel=0 note=72 velocity=100 time=0
the msg is note_off channel=0 note=72 velocity=0 time=8
the msg is note_on channel=0 note=72 velocity=100 time=0
the msg is note_off channel=0 note=72 velocity=0 time=25
the msg is note_on channel=0 note=72 velocity=100 time=0
the msg is note_off channel=0 note=72 velocity=0 time=12
the msg is note_on channel=0 note=72 velocity=100 time=0
the msg is note_off channel=0 note=72 velocity=0 time=12
the msg is note_on channel=0 note=72 velocity=100 time=0
the msg is note_off channel=0 note=72 velocity=0 time=12
the msg is note_on channel=0 note=72 velocity=100 time=0
the msg is note_off channel=0 note=76 velocity=0 time=12
the msg is note_on channel=0 note=76 velocity=100 time=0
the msg is note_off channel=0 note=79 velocity=0 time=25
the msg is note_on channel=0 note=79 velocity=100 time=0
the msg is note_off channel=0 note=79 velocity=0 time=12
the msg is note_on channel=0 note=79 velocity=100 time=0
the msg is note_off channel=0 note=76 velocity=0 time=12
the msg is note_on channel=0 note=76 velocity=100 time=0
the msg is note_off channel=0 note=74 velocity=0 time=12
the msg is note_on channel=0 note=74 velocity=100 time=0
the msg is note_off channel=0 note=72 velocity=0 time=12
the msg is note_on channel=0 note=72 velocity=100 time=0
the msg is note_off channel=0 note=72 velocity=0 time=76
the msg is note_on channel=0 note=72 velocity=100 time=0
the msg is note_off channel=0 note=72 velocity=0 time=12
the msg is note_on channel=0 note=72 velocity=100 time=0
the msg is note_off channel=0 note=72 velocity=0 time=12
the msg is note_on channel=0 note=72 velocity=100 time=0
the msg is note_off channel=0 note=72 velocity=0 time=8
the msg is note_on channel=0 note=72 velocity=100 time=0
the msg is note_off channel=0 note=72 velocity=0 time=17
the msg is note_on channel=0 note=72 velocity=100 time=0
the msg is note_off channel=0 note=72 velocity=0 time=12
the msg is note_on channel=0 note=72 velocity=100 time=0
the msg is note_off channel=0 note=72 velocity=0 time=12
the msg is note_on channel=0 note=72 velocity=100 time=0
the msg is note_off channel=0 note=76 velocity=0 time=8
the msg is note_on channel=0 note=76 velocity=100 time=0
the msg is note_off channel=0 note=79 velocity=0 time=29
the msg is note_on channel=0 note=79 velocity=100 time=0
the msg is note_off channel=0 note=79 velocity=0 time=12
the msg is note_on channel=0 note=79 velocity=100 time=0
the msg is note_off channel=0 note=76 velocity=0 time=8
the msg is note_on channel=0 note=76 velocity=100 time=0
the msg is note_off channel=0 note=74 velocity=0 time=17
the msg is note_on channel=0 note=74 velocity=100 time=0
the msg is <meta message end_of_track time=51>
the msg is <meta message track_name name='Piano' time=0>
the msg is program_change channel=0 program=0 time=0
the msg is note_off channel=0 note=72 velocity=0 time=0
the msg is pitchwheel channel=0 pitch=0 time=0
the msg is program_change channel=0 program=0 time=0
the msg is <meta message set_tempo tempo=500000 time=0>
the msg is <meta message time_signature numerator=4 denominator=4 clocks_per_click=24 notated_32nd_notes_per_beat=8 time=0>
the msg is note_on channel=0 note=72 velocity=100 time=0
the msg is note_off channel=0 note=74 velocity=0 time=34
the msg is note_on channel=0 note=74 velocity=100 time=0
the msg is note_off channel=0 note=74 velocity=0 time=17
the msg is note_on channel=0 note=74 velocity=100 time=0
the msg is note_off channel=0 note=74 velocity=0 time=34
the msg is note_on channel=0 note=74 velocity=100 time=0
the msg is note_off channel=0 note=74 velocity=0 time=17
the msg is note_on channel=0 note=74 velocity=100 time=0
the msg is note_off channel=0 note=76 velocity=0 time=34
the msg is note_on channel=0 note=76 velocity=100 time=0
the msg is note_off channel=0 note=79 velocity=0 time=17
the msg is note_on channel=0 note=79 velocity=100 time=0
the msg is note_off channel=0 note=79 velocity=0 time=17
the msg is note_on channel=0 note=79 velocity=100 time=0
the msg is note_off channel=0 note=76 velocity=0 time=17
the msg is note_on channel=0 note=76 velocity=100 time=0
the msg is note_off channel=0 note=74 velocity=0 time=4
the msg is note_on channel=0 note=74 velocity=100 time=0
the msg is note_off channel=0 note=72 velocity=0 time=12
the msg is note_on channel=0 note=72 velocity=100 time=0
the msg is note_off channel=0 note=72 velocity=0 time=89
the msg is note_on channel=0 note=72 velocity=100 time=0
the msg is note_off channel=0 note=72 velocity=0 time=12
the msg is note_on channel=0 note=72 velocity=100 time=0
the msg is note_off channel=0 note=74 velocity=0 time=25
the msg is note_on channel=0 note=74 velocity=100 time=0
the msg is note_off channel=0 note=74 velocity=0 time=25
the msg is note_on channel=0 note=74 velocity=100 time=0
the msg is note_off channel=0 note=74 velocity=0 time=12
the msg is note_on channel=0 note=74 velocity=100 time=0
the msg is note_off channel=0 note=76 velocity=0 time=25
the msg is note_on channel=0 note=76 velocity=100 time=0
the msg is note_off channel=0 note=79 velocity=0 time=25
the msg is note_on channel=0 note=79 velocity=100 time=0
the msg is note_off channel=0 note=79 velocity=0 time=12
the msg is note_on channel=0 note=79 velocity=100 time=0
the msg is note_off channel=0 note=76 velocity=0 time=12
the msg is note_on channel=0 note=76 velocity=100 time=0
the msg is note_off channel=0 note=74 velocity=0 time=12
the msg is note_on channel=0 note=74 velocity=100 time=0
the msg is note_off channel=0 note=72 velocity=0 time=12
the msg is note_on channel=0 note=72 velocity=100 time=0
the msg is note_off channel=0 note=74 velocity=0 time=25
the msg is note_on channel=0 note=74 velocity=100 time=0
the msg is note_off channel=0 note=76 velocity=0 time=25
the msg is note_on channel=0 note=76 velocity=100 time=0
the msg is note_off channel=0 note=79 velocity=0 time=25
the msg is note_on channel=0 note=79 velocity=100 time=0
the msg is note_off channel=0 note=79 velocity=0 time=12
the msg is note_on channel=0 note=79 velocity=100 time=0
the msg is note_off channel=0 note=76 velocity=0 time=12
the msg is note_on channel=0 note=76 velocity=100 time=0
the msg is note_off channel=0 note=74 velocity=0 time=12
the msg is note_on channel=0 note=74 velocity=100 time=0
the msg is note_off channel=0 note=72 velocity=0 time=12
the msg is note_on channel=0 note=72 velocity=100 time=0
the msg is note_off channel=0 note=74 velocity=0 time=25
the msg is note_on channel=0 note=74 velocity=100 time=0
the msg is note_off channel=0 note=74 velocity=0 time=12
the msg is note_on channel=0 note=74 velocity=100 time=0
the msg is note_off channel=0 note=74 velocity=0 time=12
the msg is note_on channel=0 note=74 velocity=100 time=0
the msg is note_off channel=0 note=74 velocity=0 time=25
the msg is note_on channel=0 note=74 velocity=100 time=0
the msg is note_off channel=0 note=74 velocity=0 time=25
the msg is note_on channel=0 note=74 velocity=100 time=0
the msg is note_off channel=0 note=76 velocity=0 time=25
the msg is note_on channel=0 note=76 velocity=100 time=0
the msg is note_off channel=0 note=79 velocity=0 time=25
the msg is note_on channel=0 note=79 velocity=100 time=0
the msg is note_off channel=0 note=79 velocity=0 time=12
the msg is note_on channel=0 note=79 velocity=100 time=0
the msg is note_off channel=0 note=76 velocity=0 time=12
the msg is note_on channel=0 note=76 velocity=100 time=0
the msg is note_off channel=0 note=74 velocity=0 time=12
the msg is note_on channel=0 note=74 velocity=100 time=0
the msg is note_off channel=0 note=72 velocity=0 time=12
the msg is note_on channel=0 note=72 velocity=100 time=0
the msg is note_off channel=0 note=72 velocity=0 time=81
the msg is note_on channel=0 note=72 velocity=100 time=0
the msg is note_off channel=0 note=72 velocity=0 time=8
the msg is note_on channel=0 note=72 velocity=100 time=0
the msg is note_off channel=0 note=74 velocity=0 time=25
the msg is note_on channel=0 note=74 velocity=100 time=0
the msg is note_off channel=0 note=74 velocity=0 time=25
the msg is note_on channel=0 note=74 velocity=100 time=0
the msg is note_off channel=0 note=74 velocity=0 time=25
the msg is note_on channel=0 note=74 velocity=100 time=0
the msg is note_off channel=0 note=74 velocity=0 time=25
the msg is note_on channel=0 note=74 velocity=100 time=0
the msg is note_off channel=0 note=74 velocity=0 time=25
the msg is note_on channel=0 note=74 velocity=100 time=0
the msg is note_off channel=0 note=74 velocity=0 time=25
the msg is note_on channel=0 note=74 velocity=100 time=0
the msg is note_off channel=0 note=76 velocity=0 time=25
the msg is note_on channel=0 note=76 velocity=100 time=0
the msg is note_off channel=0 note=79 velocity=0 time=25
the msg is note_on channel=0 note=79 velocity=100 time=0
the msg is note_off channel=0 note=79 velocity=0 time=12
the msg is note_on channel=0 note=79 velocity=100 time=0
the msg is note_off channel=0 note=76 velocity=0 time=12
the msg is note_on channel=0 note=76 velocity=100 time=0
the msg is note_off channel=0 note=74 velocity=0 time=17
the msg is note_on channel=0 note=74 velocity=100 time=0
the msg is note_off channel=0 note=72 velocity=0 time=8
the msg is note_on channel=0 note=72 velocity=100 time=0
the msg is note_off channel=0 note=72 velocity=0 time=25
the msg is note_on channel=0 note=72 velocity=100 time=0
the msg is note_off channel=0 note=72 velocity=0 time=25
the msg is note_on channel=0 note=72 velocity=100 time=0
the msg is note_off channel=0 note=72 velocity=0 time=12
the msg is note_on channel=0 note=72 velocity=100 time=0
the msg is note_off channel=0 note=72 velocity=0 time=29
the msg is note_on channel=0 note=72 velocity=100 time=0
the msg is note_off channel=0 note=72 velocity=0 time=8
the msg is note_on channel=0 note=72 velocity=100 time=0
the msg is note_off channel=0 note=72 velocity=0 time=25
the msg is note_on channel=0 note=72 velocity=100 time=0
the msg is note_off channel=0 note=72 velocity=0 time=12
the msg is note_on channel=0 note=72 velocity=100 time=0
the msg is note_off channel=0 note=72 velocity=0 time=12
the msg is note_on channel=0 note=72 velocity=100 time=0
the msg is note_off channel=0 note=72 velocity=0 time=12
the msg is note_on channel=0 note=72 velocity=100 time=0
the msg is note_off channel=0 note=76 velocity=0 time=12
the msg is note_on channel=0 note=76 velocity=100 time=0
the msg is note_off channel=0 note=79 velocity=0 time=25
the msg is note_on channel=0 note=79 velocity=100 time=0
the msg is note_off channel=0 note=79 velocity=0 time=12
the msg is note_on channel=0 note=79 velocity=100 time=0
the msg is note_off channel=0 note=76 velocity=0 time=12
the msg is note_on channel=0 note=76 velocity=100 time=0
the msg is note_off channel=0 note=74 velocity=0 time=12
the msg is note_on channel=0 note=74 velocity=100 time=0
the msg is note_off channel=0 note=72 velocity=0 time=12
the msg is note_on channel=0 note=72 velocity=100 time=0
the msg is note_off channel=0 note=72 velocity=0 time=76
the msg is note_on channel=0 note=72 velocity=100 time=0
the msg is note_off channel=0 note=72 velocity=0 time=12
the msg is note_on channel=0 note=72 velocity=100 time=0
the msg is note_off channel=0 note=72 velocity=0 time=12
the msg is note_on channel=0 note=72 velocity=100 time=0
the msg is note_off channel=0 note=72 velocity=0 time=8
the msg is note_on channel=0 note=72 velocity=100 time=0
the msg is note_off channel=0 note=72 velocity=0 time=17
the msg is note_on channel=0 note=72 velocity=100 time=0
the msg is note_off channel=0 note=72 velocity=0 time=12
the msg is note_on channel=0 note=72 velocity=100 time=0
the msg is note_off channel=0 note=72 velocity=0 time=12
the msg is note_on channel=0 note=72 velocity=100 time=0
the msg is note_off channel=0 note=76 velocity=0 time=8
the msg is note_on channel=0 note=76 velocity=100 time=0
the msg is note_off channel=0 note=79 velocity=0 time=29
the msg is note_on channel=0 note=79 velocity=100 time=0
the msg is note_off channel=0 note=79 velocity=0 time=12
the msg is note_on channel=0 note=79 velocity=100 time=0
the msg is note_off channel=0 note=76 velocity=0 time=8
the msg is note_on channel=0 note=76 velocity=100 time=0
the msg is note_off channel=0 note=74 velocity=0 time=17
the msg is note_on channel=0 note=74 velocity=100 time=0
the msg is <meta message end_of_track time=51>
the msg is <meta message track_name name='Piano' time=0>
the msg is program_change channel=0 program=0 time=0
the msg is note_off channel=0 note=72 velocity=0 time=0
the msg is pitchwheel channel=0 pitch=0 time=0
the msg is program_change channel=0 program=0 time=0
the msg is <meta message set_tempo tempo=500000 time=0>
the msg is <meta message time_signature numerator=4 denominator=4 clocks_per_click=24 notated_32nd_notes_per_beat=8 time=0>
the msg is note_on channel=0 note=72 velocity=100 time=0
the msg is note_off channel=0 note=74 velocity=0 time=34
the msg is note_on channel=0 note=74 velocity=100 time=0
the msg is note_off channel=0 note=74 velocity=0 time=17
the msg is note_on channel=0 note=74 velocity=100 time=0
the msg is note_off channel=0 note=74 velocity=0 time=34
the msg is note_on channel=0 note=74 velocity=100 time=0
the msg is note_off channel=0 note=74 velocity=0 time=17
the msg is note_on channel=0 note=74 velocity=100 time=0
the msg is note_off channel=0 note=76 velocity=0 time=34
the msg is note_on channel=0 note=76 velocity=100 time=0
the msg is note_off channel=0 note=79 velocity=0 time=17
the msg is note_on channel=0 note=79 velocity=100 time=0
the msg is note_off channel=0 note=79 velocity=0 time=17
the msg is note_on channel=0 note=79 velocity=100 time=0
the msg is note_off channel=0 note=76 velocity=0 time=17
the msg is note_on channel=0 note=76 velocity=100 time=0
the msg is note_off channel=0 note=74 velocity=0 time=4
the msg is note_on channel=0 note=74 velocity=100 time=0
the msg is note_off channel=0 note=72 velocity=0 time=12
the msg is note_on channel=0 note=72 velocity=100 time=0
the msg is note_off channel=0 note=72 velocity=0 time=89
the msg is note_on channel=0 note=72 velocity=100 time=0
the msg is note_off channel=0 note=72 velocity=0 time=12
the msg is note_on channel=0 note=72 velocity=100 time=0
the msg is note_off channel=0 note=74 velocity=0 time=25
the msg is note_on channel=0 note=74 velocity=100 time=0
the msg is note_off channel=0 note=74 velocity=0 time=25
the msg is note_on channel=0 note=74 velocity=100 time=0
the msg is note_off channel=0 note=74 velocity=0 time=12
the msg is note_on channel=0 note=74 velocity=100 time=0
the msg is note_off channel=0 note=76 velocity=0 time=25
the msg is note_on channel=0 note=76 velocity=100 time=0
the msg is note_off channel=0 note=79 velocity=0 time=25
the msg is note_on channel=0 note=79 velocity=100 time=0
the msg is note_off channel=0 note=79 velocity=0 time=12
the msg is note_on channel=0 note=79 velocity=100 time=0
the msg is note_off channel=0 note=76 velocity=0 time=12
the msg is note_on channel=0 note=76 velocity=100 time=0
the msg is note_off channel=0 note=74 velocity=0 time=12
the msg is note_on channel=0 note=74 velocity=100 time=0
the msg is note_off channel=0 note=72 velocity=0 time=12
the msg is note_on channel=0 note=72 velocity=100 time=0
the msg is note_off channel=0 note=74 velocity=0 time=25
the msg is note_on channel=0 note=74 velocity=100 time=0
the msg is note_off channel=0 note=76 velocity=0 time=25
the msg is note_on channel=0 note=76 velocity=100 time=0
the msg is note_off channel=0 note=79 velocity=0 time=25
the msg is note_on channel=0 note=79 velocity=100 time=0
the msg is note_off channel=0 note=79 velocity=0 time=12
the msg is note_on channel=0 note=79 velocity=100 time=0
the msg is note_off channel=0 note=76 velocity=0 time=12
the msg is note_on channel=0 note=76 velocity=100 time=0
the msg is note_off channel=0 note=74 velocity=0 time=12
the msg is note_on channel=0 note=74 velocity=100 time=0
the msg is note_off channel=0 note=72 velocity=0 time=12
the msg is note_on channel=0 note=72 velocity=100 time=0
the msg is note_off channel=0 note=74 velocity=0 time=25
the msg is note_on channel=0 note=74 velocity=100 time=0
the msg is note_off channel=0 note=74 velocity=0 time=12
the msg is note_on channel=0 note=74 velocity=100 time=0
the msg is note_off channel=0 note=74 velocity=0 time=12
the msg is note_on channel=0 note=74 velocity=100 time=0
the msg is note_off channel=0 note=74 velocity=0 time=25
the msg is note_on channel=0 note=74 velocity=100 time=0
the msg is note_off channel=0 note=74 velocity=0 time=25
the msg is note_on channel=0 note=74 velocity=100 time=0
the msg is note_off channel=0 note=76 velocity=0 time=25
the msg is note_on channel=0 note=76 velocity=100 time=0
the msg is note_off channel=0 note=79 velocity=0 time=25
the msg is note_on channel=0 note=79 velocity=100 time=0
the msg is note_off channel=0 note=79 velocity=0 time=12
the msg is note_on channel=0 note=79 velocity=100 time=0
the msg is note_off channel=0 note=76 velocity=0 time=12
the msg is note_on channel=0 note=76 velocity=100 time=0
the msg is note_off channel=0 note=74 velocity=0 time=12
the msg is note_on channel=0 note=74 velocity=100 time=0
the msg is note_off channel=0 note=72 velocity=0 time=12
the msg is note_on channel=0 note=72 velocity=100 time=0
the msg is note_off channel=0 note=72 velocity=0 time=81
the msg is note_on channel=0 note=72 velocity=100 time=0
the msg is note_off channel=0 note=72 velocity=0 time=8
the msg is note_on channel=0 note=72 velocity=100 time=0
the msg is note_off channel=0 note=74 velocity=0 time=25
the msg is note_on channel=0 note=74 velocity=100 time=0
the msg is note_off channel=0 note=74 velocity=0 time=25
the msg is note_on channel=0 note=74 velocity=100 time=0
the msg is note_off channel=0 note=74 velocity=0 time=25
the msg is note_on channel=0 note=74 velocity=100 time=0
the msg is note_off channel=0 note=74 velocity=0 time=25
the msg is note_on channel=0 note=74 velocity=100 time=0
the msg is note_off channel=0 note=74 velocity=0 time=25
the msg is note_on channel=0 note=74 velocity=100 time=0
the msg is note_off channel=0 note=74 velocity=0 time=25
the msg is note_on channel=0 note=74 velocity=100 time=0
the msg is note_off channel=0 note=76 velocity=0 time=25
the msg is note_on channel=0 note=76 velocity=100 time=0
the msg is note_off channel=0 note=79 velocity=0 time=25
the msg is note_on channel=0 note=79 velocity=100 time=0
the msg is note_off channel=0 note=79 velocity=0 time=12
the msg is note_on channel=0 note=79 velocity=100 time=0
the msg is note_off channel=0 note=76 velocity=0 time=12
the msg is note_on channel=0 note=76 velocity=100 time=0
the msg is note_off channel=0 note=74 velocity=0 time=17
the msg is note_on channel=0 note=74 velocity=100 time=0
the msg is note_off channel=0 note=72 velocity=0 time=8
the msg is note_on channel=0 note=72 velocity=100 time=0
the msg is note_off channel=0 note=72 velocity=0 time=25
the msg is note_on channel=0 note=72 velocity=100 time=0
the msg is note_off channel=0 note=72 velocity=0 time=25
the msg is note_on channel=0 note=72 velocity=100 time=0
the msg is note_off channel=0 note=72 velocity=0 time=12
the msg is note_on channel=0 note=72 velocity=100 time=0
the msg is note_off channel=0 note=72 velocity=0 time=29
the msg is note_on channel=0 note=72 velocity=100 time=0
the msg is note_off channel=0 note=72 velocity=0 time=8
the msg is note_on channel=0 note=72 velocity=100 time=0
the msg is note_off channel=0 note=72 velocity=0 time=25
the msg is note_on channel=0 note=72 velocity=100 time=0
the msg is note_off channel=0 note=72 velocity=0 time=12
the msg is note_on channel=0 note=72 velocity=100 time=0
the msg is note_off channel=0 note=72 velocity=0 time=12
the msg is note_on channel=0 note=72 velocity=100 time=0
the msg is note_off channel=0 note=72 velocity=0 time=12
the msg is note_on channel=0 note=72 velocity=100 time=0
the msg is note_off channel=0 note=76 velocity=0 time=12
the msg is note_on channel=0 note=76 velocity=100 time=0
the msg is note_off channel=0 note=79 velocity=0 time=25
the msg is note_on channel=0 note=79 velocity=100 time=0
the msg is note_off channel=0 note=79 velocity=0 time=12
the msg is note_on channel=0 note=79 velocity=100 time=0
the msg is note_off channel=0 note=76 velocity=0 time=12
the msg is note_on channel=0 note=76 velocity=100 time=0
the msg is note_off channel=0 note=74 velocity=0 time=12
the msg is note_on channel=0 note=74 velocity=100 time=0
the msg is note_off channel=0 note=72 velocity=0 time=12
the msg is note_on channel=0 note=72 velocity=100 time=0
the msg is note_off channel=0 note=72 velocity=0 time=76
the msg is note_on channel=0 note=72 velocity=100 time=0
the msg is note_off channel=0 note=72 velocity=0 time=12
the msg is note_on channel=0 note=72 velocity=100 time=0
the msg is note_off channel=0 note=72 velocity=0 time=12
the msg is note_on channel=0 note=72 velocity=100 time=0
the msg is note_off channel=0 note=72 velocity=0 time=8
the msg is note_on channel=0 note=72 velocity=100 time=0
the msg is note_off channel=0 note=72 velocity=0 time=17
the msg is note_on channel=0 note=72 velocity=100 time=0
the msg is note_off channel=0 note=72 velocity=0 time=12
the msg is note_on channel=0 note=72 velocity=100 time=0
the msg is note_off channel=0 note=72 velocity=0 time=12
the msg is note_on channel=0 note=72 velocity=100 time=0
the msg is note_off channel=0 note=76 velocity=0 time=8
the msg is note_on channel=0 note=76 velocity=100 time=0
the msg is note_off channel=0 note=79 velocity=0 time=29
the msg is note_on channel=0 note=79 velocity=100 time=0
the msg is note_off channel=0 note=79 velocity=0 time=12
the msg is note_on channel=0 note=79 velocity=100 time=0
the msg is note_off channel=0 note=76 velocity=0 time=8
the msg is note_on channel=0 note=76 velocity=100 time=0
the msg is note_off channel=0 note=74 velocity=0 time=17
the msg is note_on channel=0 note=74 velocity=100 time=0
the msg is <meta message end_of_track time=51>
the msg is <meta message track_name name='Piano' time=0>
the msg is program_change channel=0 program=0 time=0
the msg is note_off channel=0 note=72 velocity=0 time=0
the msg is pitchwheel channel=0 pitch=0 time=0
the msg is program_change channel=0 program=0 time=0
the msg is <meta message set_tempo tempo=500000 time=0>
the msg is <meta message time_signature numerator=4 denominator=4 clocks_per_click=24 notated_32nd_notes_per_beat=8 time=0>
the msg is note_on channel=0 note=72 velocity=100 time=0
the msg is note_off channel=0 note=74 velocity=0 time=34
the msg is note_on channel=0 note=74 velocity=100 time=0
the msg is note_off channel=0 note=74 velocity=0 time=17
the msg is note_on channel=0 note=74 velocity=100 time=0
the msg is note_off channel=0 note=74 velocity=0 time=34
the msg is note_on channel=0 note=74 velocity=100 time=0
the msg is note_off channel=0 note=74 velocity=0 time=17
the msg is note_on channel=0 note=74 velocity=100 time=0
the msg is note_off channel=0 note=76 velocity=0 time=34
the msg is note_on channel=0 note=76 velocity=100 time=0
the msg is note_off channel=0 note=79 velocity=0 time=17
the msg is note_on channel=0 note=79 velocity=100 time=0
the msg is note_off channel=0 note=79 velocity=0 time=17
the msg is note_on channel=0 note=79 velocity=100 time=0
the msg is note_off channel=0 note=76 velocity=0 time=17
the msg is note_on channel=0 note=76 velocity=100 time=0
the msg is note_off channel=0 note=74 velocity=0 time=4
the msg is note_on channel=0 note=74 velocity=100 time=0
the msg is note_off channel=0 note=72 velocity=0 time=12
the msg is note_on channel=0 note=72 velocity=100 time=0
the msg is note_off channel=0 note=72 velocity=0 time=89
the msg is note_on channel=0 note=72 velocity=100 time=0
the msg is note_off channel=0 note=72 velocity=0 time=12
the msg is note_on channel=0 note=72 velocity=100 time=0
the msg is note_off channel=0 note=74 velocity=0 time=25
the msg is note_on channel=0 note=74 velocity=100 time=0
the msg is note_off channel=0 note=74 velocity=0 time=25
the msg is note_on channel=0 note=74 velocity=100 time=0
the msg is note_off channel=0 note=74 velocity=0 time=12
the msg is note_on channel=0 note=74 velocity=100 time=0
the msg is note_off channel=0 note=76 velocity=0 time=25
the msg is note_on channel=0 note=76 velocity=100 time=0
the msg is note_off channel=0 note=79 velocity=0 time=25
the msg is note_on channel=0 note=79 velocity=100 time=0
the msg is note_off channel=0 note=79 velocity=0 time=12
the msg is note_on channel=0 note=79 velocity=100 time=0
the msg is note_off channel=0 note=76 velocity=0 time=12
the msg is note_on channel=0 note=76 velocity=100 time=0
the msg is note_off channel=0 note=74 velocity=0 time=12
the msg is note_on channel=0 note=74 velocity=100 time=0
the msg is note_off channel=0 note=72 velocity=0 time=12
the msg is note_on channel=0 note=72 velocity=100 time=0
the msg is note_off channel=0 note=74 velocity=0 time=25
the msg is note_on channel=0 note=74 velocity=100 time=0
the msg is note_off channel=0 note=76 velocity=0 time=25
the msg is note_on channel=0 note=76 velocity=100 time=0
the msg is note_off channel=0 note=79 velocity=0 time=25
the msg is note_on channel=0 note=79 velocity=100 time=0
the msg is note_off channel=0 note=79 velocity=0 time=12
the msg is note_on channel=0 note=79 velocity=100 time=0
the msg is note_off channel=0 note=76 velocity=0 time=12
the msg is note_on channel=0 note=76 velocity=100 time=0
the msg is note_off channel=0 note=74 velocity=0 time=12
the msg is note_on channel=0 note=74 velocity=100 time=0
the msg is note_off channel=0 note=72 velocity=0 time=12
the msg is note_on channel=0 note=72 velocity=100 time=0
the msg is note_off channel=0 note=74 velocity=0 time=25
the msg is note_on channel=0 note=74 velocity=100 time=0
the msg is note_off channel=0 note=74 velocity=0 time=12
the msg is note_on channel=0 note=74 velocity=100 time=0
the msg is note_off channel=0 note=74 velocity=0 time=12
the msg is note_on channel=0 note=74 velocity=100 time=0
the msg is note_off channel=0 note=74 velocity=0 time=25
the msg is note_on channel=0 note=74 velocity=100 time=0
the msg is note_off channel=0 note=74 velocity=0 time=25
the msg is note_on channel=0 note=74 velocity=100 time=0
the msg is note_off channel=0 note=76 velocity=0 time=25
the msg is note_on channel=0 note=76 velocity=100 time=0
the msg is note_off channel=0 note=79 velocity=0 time=25
the msg is note_on channel=0 note=79 velocity=100 time=0
the msg is note_off channel=0 note=79 velocity=0 time=12
the msg is note_on channel=0 note=79 velocity=100 time=0
the msg is note_off channel=0 note=76 velocity=0 time=12
the msg is note_on channel=0 note=76 velocity=100 time=0
the msg is note_off channel=0 note=74 velocity=0 time=12
the msg is note_on channel=0 note=74 velocity=100 time=0
the msg is note_off channel=0 note=72 velocity=0 time=12
the msg is note_on channel=0 note=72 velocity=100 time=0
the msg is note_off channel=0 note=72 velocity=0 time=81
the msg is note_on channel=0 note=72 velocity=100 time=0
the msg is note_off channel=0 note=72 velocity=0 time=8
the msg is note_on channel=0 note=72 velocity=100 time=0
the msg is note_off channel=0 note=74 velocity=0 time=25
the msg is note_on channel=0 note=74 velocity=100 time=0
the msg is note_off channel=0 note=74 velocity=0 time=25
the msg is note_on channel=0 note=74 velocity=100 time=0
the msg is note_off channel=0 note=74 velocity=0 time=25
the msg is note_on channel=0 note=74 velocity=100 time=0
the msg is note_off channel=0 note=74 velocity=0 time=25
the msg is note_on channel=0 note=74 velocity=100 time=0
the msg is note_off channel=0 note=74 velocity=0 time=25
the msg is note_on channel=0 note=74 velocity=100 time=0
the msg is note_off channel=0 note=74 velocity=0 time=25
the msg is note_on channel=0 note=74 velocity=100 time=0
the msg is note_off channel=0 note=76 velocity=0 time=25
the msg is note_on channel=0 note=76 velocity=100 time=0
the msg is note_off channel=0 note=79 velocity=0 time=25
the msg is note_on channel=0 note=79 velocity=100 time=0
the msg is note_off channel=0 note=79 velocity=0 time=12
the msg is note_on channel=0 note=79 velocity=100 time=0
the msg is note_off channel=0 note=76 velocity=0 time=12
the msg is note_on channel=0 note=76 velocity=100 time=0
the msg is note_off channel=0 note=74 velocity=0 time=17
the msg is note_on channel=0 note=74 velocity=100 time=0
the msg is note_off channel=0 note=72 velocity=0 time=8
the msg is note_on channel=0 note=72 velocity=100 time=0
the msg is note_off channel=0 note=72 velocity=0 time=25
the msg is note_on channel=0 note=72 velocity=100 time=0
the msg is note_off channel=0 note=72 velocity=0 time=25
the msg is note_on channel=0 note=72 velocity=100 time=0
the msg is note_off channel=0 note=72 velocity=0 time=12
the msg is note_on channel=0 note=72 velocity=100 time=0
the msg is note_off channel=0 note=72 velocity=0 time=29
the msg is note_on channel=0 note=72 velocity=100 time=0
the msg is note_off channel=0 note=72 velocity=0 time=8
the msg is note_on channel=0 note=72 velocity=100 time=0
the msg is note_off channel=0 note=72 velocity=0 time=25
the msg is note_on channel=0 note=72 velocity=100 time=0
the msg is note_off channel=0 note=72 velocity=0 time=12
the msg is note_on channel=0 note=72 velocity=100 time=0
the msg is note_off channel=0 note=72 velocity=0 time=12
the msg is note_on channel=0 note=72 velocity=100 time=0
the msg is note_off channel=0 note=72 velocity=0 time=12
the msg is note_on channel=0 note=72 velocity=100 time=0
the msg is note_off channel=0 note=76 velocity=0 time=12
the msg is note_on channel=0 note=76 velocity=100 time=0
the msg is note_off channel=0 note=79 velocity=0 time=25
the msg is note_on channel=0 note=79 velocity=100 time=0
the msg is note_off channel=0 note=79 velocity=0 time=12
the msg is note_on channel=0 note=79 velocity=100 time=0
the msg is note_off channel=0 note=76 velocity=0 time=12
the msg is note_on channel=0 note=76 velocity=100 time=0
the msg is note_off channel=0 note=74 velocity=0 time=12
the msg is note_on channel=0 note=74 velocity=100 time=0
the msg is note_off channel=0 note=72 velocity=0 time=12
the msg is note_on channel=0 note=72 velocity=100 time=0
the msg is note_off channel=0 note=72 velocity=0 time=76
the msg is note_on channel=0 note=72 velocity=100 time=0
the msg is note_off channel=0 note=72 velocity=0 time=12
the msg is note_on channel=0 note=72 velocity=100 time=0
the msg is note_off channel=0 note=72 velocity=0 time=12
the msg is note_on channel=0 note=72 velocity=100 time=0
the msg is note_off channel=0 note=72 velocity=0 time=8
the msg is note_on channel=0 note=72 velocity=100 time=0
the msg is note_off channel=0 note=72 velocity=0 time=17
the msg is note_on channel=0 note=72 velocity=100 time=0
the msg is note_off channel=0 note=72 velocity=0 time=12
the msg is note_on channel=0 note=72 velocity=100 time=0
the msg is note_off channel=0 note=72 velocity=0 time=12
the msg is note_on channel=0 note=72 velocity=100 time=0
the msg is note_off channel=0 note=76 velocity=0 time=8
the msg is note_on channel=0 note=76 velocity=100 time=0
the msg is note_off channel=0 note=79 velocity=0 time=29
the msg is note_on channel=0 note=79 velocity=100 time=0
the msg is note_off channel=0 note=79 velocity=0 time=12
the msg is note_on channel=0 note=79 velocity=100 time=0
the msg is note_off channel=0 note=76 velocity=0 time=8
the msg is note_on channel=0 note=76 velocity=100 time=0
the msg is note_off channel=0 note=74 velocity=0 time=17
the msg is note_on channel=0 note=74 velocity=100 time=0
the msg is <meta message end_of_track time=51>
the msg is <meta message track_name name='Piano' time=0>
the msg is program_change channel=0 program=0 time=0
the msg is note_off channel=0 note=72 velocity=0 time=0
the msg is pitchwheel channel=0 pitch=0 time=0
the msg is program_change channel=0 program=0 time=0
the msg is <meta message set_tempo tempo=500000 time=0>
the msg is <meta message time_signature numerator=4 denominator=4 clocks_per_click=24 notated_32nd_notes_per_beat=8 time=0>
the msg is note_on channel=0 note=72 velocity=100 time=0
the msg is note_off channel=0 note=74 velocity=0 time=34
the msg is note_on channel=0 note=74 velocity=100 time=0
the msg is note_off channel=0 note=74 velocity=0 time=17
the msg is note_on channel=0 note=74 velocity=100 time=0
the msg is note_off channel=0 note=74 velocity=0 time=34
the msg is note_on channel=0 note=74 velocity=100 time=0
the msg is note_off channel=0 note=74 velocity=0 time=17
the msg is note_on channel=0 note=74 velocity=100 time=0
the msg is note_off channel=0 note=76 velocity=0 time=34
the msg is note_on channel=0 note=76 velocity=100 time=0
the msg is note_off channel=0 note=79 velocity=0 time=17
the msg is note_on channel=0 note=79 velocity=100 time=0
the msg is note_off channel=0 note=79 velocity=0 time=17
the msg is note_on channel=0 note=79 velocity=100 time=0
the msg is note_off channel=0 note=76 velocity=0 time=17
the msg is note_on channel=0 note=76 velocity=100 time=0
the msg is note_off channel=0 note=74 velocity=0 time=4
the msg is note_on channel=0 note=74 velocity=100 time=0
the msg is note_off channel=0 note=72 velocity=0 time=12
the msg is note_on channel=0 note=72 velocity=100 time=0
the msg is note_off channel=0 note=72 velocity=0 time=89
the msg is note_on channel=0 note=72 velocity=100 time=0
the msg is note_off channel=0 note=72 velocity=0 time=12
the msg is note_on channel=0 note=72 velocity=100 time=0
the msg is note_off channel=0 note=74 velocity=0 time=25
the msg is note_on channel=0 note=74 velocity=100 time=0
the msg is note_off channel=0 note=74 velocity=0 time=25
the msg is note_on channel=0 note=74 velocity=100 time=0
the msg is note_off channel=0 note=74 velocity=0 time=12
the msg is note_on channel=0 note=74 velocity=100 time=0
the msg is note_off channel=0 note=76 velocity=0 time=25
the msg is note_on channel=0 note=76 velocity=100 time=0
the msg is note_off channel=0 note=79 velocity=0 time=25
the msg is note_on channel=0 note=79 velocity=100 time=0
the msg is note_off channel=0 note=79 velocity=0 time=12
the msg is note_on channel=0 note=79 velocity=100 time=0
the msg is note_off channel=0 note=76 velocity=0 time=12
the msg is note_on channel=0 note=76 velocity=100 time=0
the msg is note_off channel=0 note=74 velocity=0 time=12
the msg is note_on channel=0 note=74 velocity=100 time=0
the msg is note_off channel=0 note=72 velocity=0 time=12
the msg is note_on channel=0 note=72 velocity=100 time=0
the msg is note_off channel=0 note=74 velocity=0 time=25
the msg is note_on channel=0 note=74 velocity=100 time=0
the msg is note_off channel=0 note=76 velocity=0 time=25
the msg is note_on channel=0 note=76 velocity=100 time=0
the msg is note_off channel=0 note=79 velocity=0 time=25
the msg is note_on channel=0 note=79 velocity=100 time=0
the msg is note_off channel=0 note=79 velocity=0 time=12
the msg is note_on channel=0 note=79 velocity=100 time=0
the msg is note_off channel=0 note=76 velocity=0 time=12
the msg is note_on channel=0 note=76 velocity=100 time=0
the msg is note_off channel=0 note=74 velocity=0 time=12
the msg is note_on channel=0 note=74 velocity=100 time=0
the msg is note_off channel=0 note=72 velocity=0 time=12
the msg is note_on channel=0 note=72 velocity=100 time=0
the msg is note_off channel=0 note=74 velocity=0 time=25
the msg is note_on channel=0 note=74 velocity=100 time=0
the msg is note_off channel=0 note=74 velocity=0 time=12
the msg is note_on channel=0 note=74 velocity=100 time=0
the msg is note_off channel=0 note=74 velocity=0 time=12
the msg is note_on channel=0 note=74 velocity=100 time=0
the msg is note_off channel=0 note=74 velocity=0 time=25
the msg is note_on channel=0 note=74 velocity=100 time=0
the msg is note_off channel=0 note=74 velocity=0 time=25
the msg is note_on channel=0 note=74 velocity=100 time=0
the msg is note_off channel=0 note=76 velocity=0 time=25
the msg is note_on channel=0 note=76 velocity=100 time=0
the msg is note_off channel=0 note=79 velocity=0 time=25
the msg is note_on channel=0 note=79 velocity=100 time=0
the msg is note_off channel=0 note=79 velocity=0 time=12
the msg is note_on channel=0 note=79 velocity=100 time=0
the msg is note_off channel=0 note=76 velocity=0 time=12
the msg is note_on channel=0 note=76 velocity=100 time=0
the msg is note_off channel=0 note=74 velocity=0 time=12
the msg is note_on channel=0 note=74 velocity=100 time=0
the msg is note_off channel=0 note=72 velocity=0 time=12
the msg is note_on channel=0 note=72 velocity=100 time=0
the msg is note_off channel=0 note=72 velocity=0 time=81
the msg is note_on channel=0 note=72 velocity=100 time=0
the msg is note_off channel=0 note=72 velocity=0 time=8
the msg is note_on channel=0 note=72 velocity=100 time=0
the msg is note_off channel=0 note=74 velocity=0 time=25
the msg is note_on channel=0 note=74 velocity=100 time=0
the msg is note_off channel=0 note=74 velocity=0 time=25
the msg is note_on channel=0 note=74 velocity=100 time=0
the msg is note_off channel=0 note=74 velocity=0 time=25
the msg is note_on channel=0 note=74 velocity=100 time=0
the msg is note_off channel=0 note=74 velocity=0 time=25
the msg is note_on channel=0 note=74 velocity=100 time=0
the msg is note_off channel=0 note=74 velocity=0 time=25
the msg is note_on channel=0 note=74 velocity=100 time=0
the msg is note_off channel=0 note=74 velocity=0 time=25
the msg is note_on channel=0 note=74 velocity=100 time=0
the msg is note_off channel=0 note=76 velocity=0 time=25
the msg is note_on channel=0 note=76 velocity=100 time=0
the msg is note_off channel=0 note=79 velocity=0 time=25
the msg is note_on channel=0 note=79 velocity=100 time=0
the msg is note_off channel=0 note=79 velocity=0 time=12
the msg is note_on channel=0 note=79 velocity=100 time=0
the msg is note_off channel=0 note=76 velocity=0 time=12
the msg is note_on channel=0 note=76 velocity=100 time=0
the msg is note_off channel=0 note=74 velocity=0 time=17
the msg is note_on channel=0 note=74 velocity=100 time=0
the msg is note_off channel=0 note=72 velocity=0 time=8
the msg is note_on channel=0 note=72 velocity=100 time=0
the msg is note_off channel=0 note=72 velocity=0 time=25
the msg is note_on channel=0 note=72 velocity=100 time=0
the msg is note_off channel=0 note=72 velocity=0 time=25
the msg is note_on channel=0 note=72 velocity=100 time=0
the msg is note_off channel=0 note=72 velocity=0 time=12
the msg is note_on channel=0 note=72 velocity=100 time=0
the msg is note_off channel=0 note=72 velocity=0 time=29
the msg is note_on channel=0 note=72 velocity=100 time=0
the msg is note_off channel=0 note=72 velocity=0 time=8
the msg is note_on channel=0 note=72 velocity=100 time=0
the msg is note_off channel=0 note=72 velocity=0 time=25
the msg is note_on channel=0 note=72 velocity=100 time=0
the msg is note_off channel=0 note=72 velocity=0 time=12
the msg is note_on channel=0 note=72 velocity=100 time=0
the msg is note_off channel=0 note=72 velocity=0 time=12
the msg is note_on channel=0 note=72 velocity=100 time=0
the msg is note_off channel=0 note=72 velocity=0 time=12
the msg is note_on channel=0 note=72 velocity=100 time=0
the msg is note_off channel=0 note=76 velocity=0 time=12
the msg is note_on channel=0 note=76 velocity=100 time=0
the msg is note_off channel=0 note=79 velocity=0 time=25
the msg is note_on channel=0 note=79 velocity=100 time=0
the msg is note_off channel=0 note=79 velocity=0 time=12
the msg is note_on channel=0 note=79 velocity=100 time=0
the msg is note_off channel=0 note=76 velocity=0 time=12
the msg is note_on channel=0 note=76 velocity=100 time=0
the msg is note_off channel=0 note=74 velocity=0 time=12
the msg is note_on channel=0 note=74 velocity=100 time=0
the msg is note_off channel=0 note=72 velocity=0 time=12
the msg is note_on channel=0 note=72 velocity=100 time=0
the msg is note_off channel=0 note=72 velocity=0 time=76
the msg is note_on channel=0 note=72 velocity=100 time=0
the msg is note_off channel=0 note=72 velocity=0 time=12
the msg is note_on channel=0 note=72 velocity=100 time=0
the msg is note_off channel=0 note=72 velocity=0 time=12
the msg is note_on channel=0 note=72 velocity=100 time=0
the msg is note_off channel=0 note=72 velocity=0 time=8
the msg is note_on channel=0 note=72 velocity=100 time=0
the msg is note_off channel=0 note=72 velocity=0 time=17
the msg is note_on channel=0 note=72 velocity=100 time=0
the msg is note_off channel=0 note=72 velocity=0 time=12
the msg is note_on channel=0 note=72 velocity=100 time=0
the msg is note_off channel=0 note=72 velocity=0 time=12
the msg is note_on channel=0 note=72 velocity=100 time=0
the msg is note_off channel=0 note=76 velocity=0 time=8
the msg is note_on channel=0 note=76 velocity=100 time=0
the msg is note_off channel=0 note=79 velocity=0 time=29
the msg is note_on channel=0 note=79 velocity=100 time=0
the msg is note_off channel=0 note=79 velocity=0 time=12
the msg is note_on channel=0 note=79 velocity=100 time=0
the msg is note_off channel=0 note=76 velocity=0 time=8
the msg is note_on channel=0 note=76 velocity=100 time=0
the msg is note_off channel=0 note=74 velocity=0 time=17
the msg is note_on channel=0 note=74 velocity=100 time=0
the msg is <meta message end_of_track time=51>
the msg is <meta message track_name name='Piano' time=0>
the msg is program_change channel=0 program=0 time=0
the msg is note_off channel=0 note=72 velocity=0 time=0
the msg is pitchwheel channel=0 pitch=0 time=0
the msg is program_change channel=0 program=0 time=0
the msg is <meta message set_tempo tempo=500000 time=0>
the msg is <meta message time_signature numerator=4 denominator=4 clocks_per_click=24 notated_32nd_notes_per_beat=8 time=0>
the msg is note_on channel=0 note=72 velocity=100 time=0
the msg is note_off channel=0 note=74 velocity=0 time=34
the msg is note_on channel=0 note=74 velocity=100 time=0
the msg is note_off channel=0 note=74 velocity=0 time=17
the msg is note_on channel=0 note=74 velocity=100 time=0
the msg is note_off channel=0 note=74 velocity=0 time=34
the msg is note_on channel=0 note=74 velocity=100 time=0
the msg is note_off channel=0 note=74 velocity=0 time=17
the msg is note_on channel=0 note=74 velocity=100 time=0
the msg is note_off channel=0 note=76 velocity=0 time=34
the msg is note_on channel=0 note=76 velocity=100 time=0
the msg is note_off channel=0 note=79 velocity=0 time=17
the msg is note_on channel=0 note=79 velocity=100 time=0
the msg is note_off channel=0 note=79 velocity=0 time=17
the msg is note_on channel=0 note=79 velocity=100 time=0
the msg is note_off channel=0 note=76 velocity=0 time=17
the msg is note_on channel=0 note=76 velocity=100 time=0
the msg is note_off channel=0 note=74 velocity=0 time=4
the msg is note_on channel=0 note=74 velocity=100 time=0
the msg is note_off channel=0 note=72 velocity=0 time=12
the msg is note_on channel=0 note=72 velocity=100 time=0
the msg is note_off channel=0 note=72 velocity=0 time=89
the msg is note_on channel=0 note=72 velocity=100 time=0
the msg is note_off channel=0 note=72 velocity=0 time=12
the msg is note_on channel=0 note=72 velocity=100 time=0
the msg is note_off channel=0 note=74 velocity=0 time=25
the msg is note_on channel=0 note=74 velocity=100 time=0
the msg is note_off channel=0 note=74 velocity=0 time=25
the msg is note_on channel=0 note=74 velocity=100 time=0
the msg is note_off channel=0 note=74 velocity=0 time=12
the msg is note_on channel=0 note=74 velocity=100 time=0
the msg is note_off channel=0 note=76 velocity=0 time=25
the msg is note_on channel=0 note=76 velocity=100 time=0
the msg is note_off channel=0 note=79 velocity=0 time=25
the msg is note_on channel=0 note=79 velocity=100 time=0
the msg is note_off channel=0 note=79 velocity=0 time=12
the msg is note_on channel=0 note=79 velocity=100 time=0
the msg is note_off channel=0 note=76 velocity=0 time=12
the msg is note_on channel=0 note=76 velocity=100 time=0
the msg is note_off channel=0 note=74 velocity=0 time=12
the msg is note_on channel=0 note=74 velocity=100 time=0
the msg is note_off channel=0 note=72 velocity=0 time=12
the msg is note_on channel=0 note=72 velocity=100 time=0
the msg is note_off channel=0 note=74 velocity=0 time=25
the msg is note_on channel=0 note=74 velocity=100 time=0
the msg is note_off channel=0 note=76 velocity=0 time=25
the msg is note_on channel=0 note=76 velocity=100 time=0
the msg is note_off channel=0 note=79 velocity=0 time=25
the msg is note_on channel=0 note=79 velocity=100 time=0
the msg is note_off channel=0 note=79 velocity=0 time=12
the msg is note_on channel=0 note=79 velocity=100 time=0
the msg is note_off channel=0 note=76 velocity=0 time=12
the msg is note_on channel=0 note=76 velocity=100 time=0
the msg is note_off channel=0 note=74 velocity=0 time=12
the msg is note_on channel=0 note=74 velocity=100 time=0
the msg is note_off channel=0 note=72 velocity=0 time=12
the msg is note_on channel=0 note=72 velocity=100 time=0
the msg is note_off channel=0 note=74 velocity=0 time=25
the msg is note_on channel=0 note=74 velocity=100 time=0
the msg is note_off channel=0 note=74 velocity=0 time=12
the msg is note_on channel=0 note=74 velocity=100 time=0
the msg is note_off channel=0 note=74 velocity=0 time=12
the msg is note_on channel=0 note=74 velocity=100 time=0
the msg is note_off channel=0 note=74 velocity=0 time=25
the msg is note_on channel=0 note=74 velocity=100 time=0
the msg is note_off channel=0 note=74 velocity=0 time=25
the msg is note_on channel=0 note=74 velocity=100 time=0
the msg is note_off channel=0 note=76 velocity=0 time=25
the msg is note_on channel=0 note=76 velocity=100 time=0
the msg is note_off channel=0 note=79 velocity=0 time=25
the msg is note_on channel=0 note=79 velocity=100 time=0
the msg is note_off channel=0 note=79 velocity=0 time=12
the msg is note_on channel=0 note=79 velocity=100 time=0
the msg is note_off channel=0 note=76 velocity=0 time=12
the msg is note_on channel=0 note=76 velocity=100 time=0
the msg is note_off channel=0 note=74 velocity=0 time=12
the msg is note_on channel=0 note=74 velocity=100 time=0
the msg is note_off channel=0 note=72 velocity=0 time=12
the msg is note_on channel=0 note=72 velocity=100 time=0
the msg is note_off channel=0 note=72 velocity=0 time=81
the msg is note_on channel=0 note=72 velocity=100 time=0
the msg is note_off channel=0 note=72 velocity=0 time=8
the msg is note_on channel=0 note=72 velocity=100 time=0
the msg is note_off channel=0 note=74 velocity=0 time=25
the msg is note_on channel=0 note=74 velocity=100 time=0
the msg is note_off channel=0 note=74 velocity=0 time=25
the msg is note_on channel=0 note=74 velocity=100 time=0
the msg is note_off channel=0 note=74 velocity=0 time=25
the msg is note_on channel=0 note=74 velocity=100 time=0
the msg is note_off channel=0 note=74 velocity=0 time=25
the msg is note_on channel=0 note=74 velocity=100 time=0
the msg is note_off channel=0 note=74 velocity=0 time=25
the msg is note_on channel=0 note=74 velocity=100 time=0
the msg is note_off channel=0 note=74 velocity=0 time=25
the msg is note_on channel=0 note=74 velocity=100 time=0
the msg is note_off channel=0 note=76 velocity=0 time=25
the msg is note_on channel=0 note=76 velocity=100 time=0
the msg is note_off channel=0 note=79 velocity=0 time=25
the msg is note_on channel=0 note=79 velocity=100 time=0
the msg is note_off channel=0 note=79 velocity=0 time=12
the msg is note_on channel=0 note=79 velocity=100 time=0
the msg is note_off channel=0 note=76 velocity=0 time=12
the msg is note_on channel=0 note=76 velocity=100 time=0
the msg is note_off channel=0 note=74 velocity=0 time=17
the msg is note_on channel=0 note=74 velocity=100 time=0
the msg is note_off channel=0 note=72 velocity=0 time=8
the msg is note_on channel=0 note=72 velocity=100 time=0
the msg is note_off channel=0 note=72 velocity=0 time=25
the msg is note_on channel=0 note=72 velocity=100 time=0
the msg is note_off channel=0 note=72 velocity=0 time=25
the msg is note_on channel=0 note=72 velocity=100 time=0
the msg is note_off channel=0 note=72 velocity=0 time=12
the msg is note_on channel=0 note=72 velocity=100 time=0
the msg is note_off channel=0 note=72 velocity=0 time=29
the msg is note_on channel=0 note=72 velocity=100 time=0
the msg is note_off channel=0 note=72 velocity=0 time=8
the msg is note_on channel=0 note=72 velocity=100 time=0
the msg is note_off channel=0 note=72 velocity=0 time=25
the msg is note_on channel=0 note=72 velocity=100 time=0
the msg is note_off channel=0 note=72 velocity=0 time=12
the msg is note_on channel=0 note=72 velocity=100 time=0
the msg is note_off channel=0 note=72 velocity=0 time=12
the msg is note_on channel=0 note=72 velocity=100 time=0
the msg is note_off channel=0 note=72 velocity=0 time=12
the msg is note_on channel=0 note=72 velocity=100 time=0
the msg is note_off channel=0 note=76 velocity=0 time=12
the msg is note_on channel=0 note=76 velocity=100 time=0
the msg is note_off channel=0 note=79 velocity=0 time=25
the msg is note_on channel=0 note=79 velocity=100 time=0
the msg is note_off channel=0 note=79 velocity=0 time=12
the msg is note_on channel=0 note=79 velocity=100 time=0
the msg is note_off channel=0 note=76 velocity=0 time=12
the msg is note_on channel=0 note=76 velocity=100 time=0
the msg is note_off channel=0 note=74 velocity=0 time=12
the msg is note_on channel=0 note=74 velocity=100 time=0
the msg is note_off channel=0 note=72 velocity=0 time=12
the msg is note_on channel=0 note=72 velocity=100 time=0
the msg is note_off channel=0 note=72 velocity=0 time=76
the msg is note_on channel=0 note=72 velocity=100 time=0
the msg is note_off channel=0 note=72 velocity=0 time=12
the msg is note_on channel=0 note=72 velocity=100 time=0
the msg is note_off channel=0 note=72 velocity=0 time=12
the msg is note_on channel=0 note=72 velocity=100 time=0
the msg is note_off channel=0 note=72 velocity=0 time=8
the msg is note_on channel=0 note=72 velocity=100 time=0
the msg is note_off channel=0 note=72 velocity=0 time=17
the msg is note_on channel=0 note=72 velocity=100 time=0
the msg is note_off channel=0 note=72 velocity=0 time=12
the msg is note_on channel=0 note=72 velocity=100 time=0
the msg is note_off channel=0 note=72 velocity=0 time=12
the msg is note_on channel=0 note=72 velocity=100 time=0
the msg is note_off channel=0 note=76 velocity=0 time=8
the msg is note_on channel=0 note=76 velocity=100 time=0
the msg is note_off channel=0 note=79 velocity=0 time=29
the msg is note_on channel=0 note=79 velocity=100 time=0
the msg is note_off channel=0 note=79 velocity=0 time=12
the msg is note_on channel=0 note=79 velocity=100 time=0
the msg is note_off channel=0 note=76 velocity=0 time=8
the msg is note_on channel=0 note=76 velocity=100 time=0
the msg is note_off channel=0 note=74 velocity=0 time=17
the msg is note_on channel=0 note=74 velocity=100 time=0
the msg is <meta message end_of_track time=51>
the msg is <meta message track_name name='Piano' time=0>
the msg is program_change channel=0 program=0 time=0
the msg is note_off channel=0 note=72 velocity=0 time=0
the msg is pitchwheel channel=0 pitch=0 time=0
the msg is program_change channel=0 program=0 time=0
the msg is <meta message set_tempo tempo=500000 time=0>
the msg is <meta message time_signature numerator=4 denominator=4 clocks_per_click=24 notated_32nd_notes_per_beat=8 time=0>
the msg is note_on channel=0 note=72 velocity=100 time=0
the msg is note_off channel=0 note=74 velocity=0 time=34
the msg is note_on channel=0 note=74 velocity=100 time=0
the msg is note_off channel=0 note=74 velocity=0 time=17
the msg is note_on channel=0 note=74 velocity=100 time=0
the msg is note_off channel=0 note=74 velocity=0 time=34
the msg is note_on channel=0 note=74 velocity=100 time=0
the msg is note_off channel=0 note=74 velocity=0 time=17
the msg is note_on channel=0 note=74 velocity=100 time=0
the msg is note_off channel=0 note=76 velocity=0 time=34
the msg is note_on channel=0 note=76 velocity=100 time=0
the msg is note_off channel=0 note=79 velocity=0 time=17
the msg is note_on channel=0 note=79 velocity=100 time=0
the msg is note_off channel=0 note=79 velocity=0 time=17
the msg is note_on channel=0 note=79 velocity=100 time=0
the msg is note_off channel=0 note=76 velocity=0 time=17
the msg is note_on channel=0 note=76 velocity=100 time=0
the msg is note_off channel=0 note=74 velocity=0 time=4
the msg is note_on channel=0 note=74 velocity=100 time=0
the msg is note_off channel=0 note=72 velocity=0 time=12
the msg is note_on channel=0 note=72 velocity=100 time=0
the msg is note_off channel=0 note=72 velocity=0 time=89
the msg is note_on channel=0 note=72 velocity=100 time=0
the msg is note_off channel=0 note=72 velocity=0 time=12
the msg is note_on channel=0 note=72 velocity=100 time=0
the msg is note_off channel=0 note=74 velocity=0 time=25
the msg is note_on channel=0 note=74 velocity=100 time=0
the msg is note_off channel=0 note=74 velocity=0 time=25
the msg is note_on channel=0 note=74 velocity=100 time=0
the msg is note_off channel=0 note=74 velocity=0 time=12
the msg is note_on channel=0 note=74 velocity=100 time=0
the msg is note_off channel=0 note=76 velocity=0 time=25
the msg is note_on channel=0 note=76 velocity=100 time=0
the msg is note_off channel=0 note=79 velocity=0 time=25
the msg is note_on channel=0 note=79 velocity=100 time=0
the msg is note_off channel=0 note=79 velocity=0 time=12
the msg is note_on channel=0 note=79 velocity=100 time=0
the msg is note_off channel=0 note=76 velocity=0 time=12
the msg is note_on channel=0 note=76 velocity=100 time=0
the msg is note_off channel=0 note=74 velocity=0 time=12
the msg is note_on channel=0 note=74 velocity=100 time=0
the msg is note_off channel=0 note=72 velocity=0 time=12
the msg is note_on channel=0 note=72 velocity=100 time=0
the msg is note_off channel=0 note=74 velocity=0 time=25
the msg is note_on channel=0 note=74 velocity=100 time=0
the msg is note_off channel=0 note=76 velocity=0 time=25
the msg is note_on channel=0 note=76 velocity=100 time=0
the msg is note_off channel=0 note=79 velocity=0 time=25
the msg is note_on channel=0 note=79 velocity=100 time=0
the msg is note_off channel=0 note=79 velocity=0 time=12
the msg is note_on channel=0 note=79 velocity=100 time=0
the msg is note_off channel=0 note=76 velocity=0 time=12
the msg is note_on channel=0 note=76 velocity=100 time=0
the msg is note_off channel=0 note=74 velocity=0 time=12
the msg is note_on channel=0 note=74 velocity=100 time=0
the msg is note_off channel=0 note=72 velocity=0 time=12
the msg is note_on channel=0 note=72 velocity=100 time=0
the msg is note_off channel=0 note=74 velocity=0 time=25
the msg is note_on channel=0 note=74 velocity=100 time=0
the msg is note_off channel=0 note=74 velocity=0 time=12
the msg is note_on channel=0 note=74 velocity=100 time=0
the msg is note_off channel=0 note=74 velocity=0 time=12
the msg is note_on channel=0 note=74 velocity=100 time=0
the msg is note_off channel=0 note=74 velocity=0 time=25
the msg is note_on channel=0 note=74 velocity=100 time=0
the msg is note_off channel=0 note=74 velocity=0 time=25
the msg is note_on channel=0 note=74 velocity=100 time=0
the msg is note_off channel=0 note=76 velocity=0 time=25
the msg is note_on channel=0 note=76 velocity=100 time=0
the msg is note_off channel=0 note=79 velocity=0 time=25
the msg is note_on channel=0 note=79 velocity=100 time=0
the msg is note_off channel=0 note=79 velocity=0 time=12
the msg is note_on channel=0 note=79 velocity=100 time=0
the msg is note_off channel=0 note=76 velocity=0 time=12
the msg is note_on channel=0 note=76 velocity=100 time=0
the msg is note_off channel=0 note=74 velocity=0 time=12
the msg is note_on channel=0 note=74 velocity=100 time=0
the msg is note_off channel=0 note=72 velocity=0 time=12
the msg is note_on channel=0 note=72 velocity=100 time=0
the msg is note_off channel=0 note=72 velocity=0 time=81
the msg is note_on channel=0 note=72 velocity=100 time=0
the msg is note_off channel=0 note=72 velocity=0 time=8
the msg is note_on channel=0 note=72 velocity=100 time=0
the msg is note_off channel=0 note=74 velocity=0 time=25
the msg is note_on channel=0 note=74 velocity=100 time=0
the msg is note_off channel=0 note=74 velocity=0 time=25
the msg is note_on channel=0 note=74 velocity=100 time=0
the msg is note_off channel=0 note=74 velocity=0 time=25
the msg is note_on channel=0 note=74 velocity=100 time=0
the msg is note_off channel=0 note=74 velocity=0 time=25
the msg is note_on channel=0 note=74 velocity=100 time=0
the msg is note_off channel=0 note=74 velocity=0 time=25
the msg is note_on channel=0 note=74 velocity=100 time=0
the msg is note_off channel=0 note=74 velocity=0 time=25
the msg is note_on channel=0 note=74 velocity=100 time=0
the msg is note_off channel=0 note=76 velocity=0 time=25
the msg is note_on channel=0 note=76 velocity=100 time=0
the msg is note_off channel=0 note=79 velocity=0 time=25
the msg is note_on channel=0 note=79 velocity=100 time=0
the msg is note_off channel=0 note=79 velocity=0 time=12
the msg is note_on channel=0 note=79 velocity=100 time=0
the msg is note_off channel=0 note=76 velocity=0 time=12
the msg is note_on channel=0 note=76 velocity=100 time=0
the msg is note_off channel=0 note=74 velocity=0 time=17
the msg is note_on channel=0 note=74 velocity=100 time=0
the msg is note_off channel=0 note=72 velocity=0 time=8
the msg is note_on channel=0 note=72 velocity=100 time=0
the msg is note_off channel=0 note=72 velocity=0 time=25
the msg is note_on channel=0 note=72 velocity=100 time=0
the msg is note_off channel=0 note=72 velocity=0 time=25
the msg is note_on channel=0 note=72 velocity=100 time=0
the msg is note_off channel=0 note=72 velocity=0 time=12
the msg is note_on channel=0 note=72 velocity=100 time=0
the msg is note_off channel=0 note=72 velocity=0 time=29
the msg is note_on channel=0 note=72 velocity=100 time=0
the msg is note_off channel=0 note=72 velocity=0 time=8
the msg is note_on channel=0 note=72 velocity=100 time=0
the msg is note_off channel=0 note=72 velocity=0 time=25
the msg is note_on channel=0 note=72 velocity=100 time=0
the msg is note_off channel=0 note=72 velocity=0 time=12
the msg is note_on channel=0 note=72 velocity=100 time=0
the msg is note_off channel=0 note=72 velocity=0 time=12
the msg is note_on channel=0 note=72 velocity=100 time=0
the msg is note_off channel=0 note=72 velocity=0 time=12
the msg is note_on channel=0 note=72 velocity=100 time=0
the msg is note_off channel=0 note=76 velocity=0 time=12
the msg is note_on channel=0 note=76 velocity=100 time=0
the msg is note_off channel=0 note=79 velocity=0 time=25
the msg is note_on channel=0 note=79 velocity=100 time=0
the msg is note_off channel=0 note=79 velocity=0 time=12
the msg is note_on channel=0 note=79 velocity=100 time=0
the msg is note_off channel=0 note=76 velocity=0 time=12
the msg is note_on channel=0 note=76 velocity=100 time=0
the msg is note_off channel=0 note=74 velocity=0 time=12
the msg is note_on channel=0 note=74 velocity=100 time=0
the msg is note_off channel=0 note=72 velocity=0 time=12
the msg is note_on channel=0 note=72 velocity=100 time=0
the msg is note_off channel=0 note=72 velocity=0 time=76
the msg is note_on channel=0 note=72 velocity=100 time=0
the msg is note_off channel=0 note=72 velocity=0 time=12
the msg is note_on channel=0 note=72 velocity=100 time=0
the msg is note_off channel=0 note=72 velocity=0 time=12
the msg is note_on channel=0 note=72 velocity=100 time=0
the msg is note_off channel=0 note=72 velocity=0 time=8
the msg is note_on channel=0 note=72 velocity=100 time=0
the msg is note_off channel=0 note=72 velocity=0 time=17
the msg is note_on channel=0 note=72 velocity=100 time=0
the msg is note_off channel=0 note=72 velocity=0 time=12
the msg is note_on channel=0 note=72 velocity=100 time=0
the msg is note_off channel=0 note=72 velocity=0 time=12
the msg is note_on channel=0 note=72 velocity=100 time=0
the msg is note_off channel=0 note=76 velocity=0 time=8
the msg is note_on channel=0 note=76 velocity=100 time=0
the msg is note_off channel=0 note=79 velocity=0 time=29
the msg is note_on channel=0 note=79 velocity=100 time=0
the msg is note_off channel=0 note=79 velocity=0 time=12
the msg is note_on channel=0 note=79 velocity=100 time=0
the msg is note_off channel=0 note=76 velocity=0 time=8
the msg is note_on channel=0 note=76 velocity=100 time=0
the msg is note_off channel=0 note=74 velocity=0 time=17
the msg is note_on channel=0 note=74 velocity=100 time=0
the msg is <meta message end_of_track time=51>
the msg is <meta message track_name name='Piano' time=0>
the msg is program_change channel=0 program=0 time=0
the msg is note_off channel=0 note=72 velocity=0 time=0
the msg is pitchwheel channel=0 pitch=0 time=0
the msg is program_change channel=0 program=0 time=0
the msg is <meta message set_tempo tempo=500000 time=0>
the msg is <meta message time_signature numerator=4 denominator=4 clocks_per_click=24 notated_32nd_notes_per_beat=8 time=0>
the msg is note_on channel=0 note=72 velocity=100 time=0
the msg is note_off channel=0 note=74 velocity=0 time=34
the msg is note_on channel=0 note=74 velocity=100 time=0
the msg is note_off channel=0 note=74 velocity=0 time=17
the msg is note_on channel=0 note=74 velocity=100 time=0
the msg is note_off channel=0 note=74 velocity=0 time=34
the msg is note_on channel=0 note=74 velocity=100 time=0
the msg is note_off channel=0 note=74 velocity=0 time=17
the msg is note_on channel=0 note=74 velocity=100 time=0
the msg is note_off channel=0 note=76 velocity=0 time=34
the msg is note_on channel=0 note=76 velocity=100 time=0
the msg is note_off channel=0 note=79 velocity=0 time=17
the msg is note_on channel=0 note=79 velocity=100 time=0
the msg is note_off channel=0 note=79 velocity=0 time=17
the msg is note_on channel=0 note=79 velocity=100 time=0
the msg is note_off channel=0 note=76 velocity=0 time=17
the msg is note_on channel=0 note=76 velocity=100 time=0
the msg is note_off channel=0 note=74 velocity=0 time=4
the msg is note_on channel=0 note=74 velocity=100 time=0
the msg is note_off channel=0 note=72 velocity=0 time=12
the msg is note_on channel=0 note=72 velocity=100 time=0
the msg is note_off channel=0 note=72 velocity=0 time=89
the msg is note_on channel=0 note=72 velocity=100 time=0
the msg is note_off channel=0 note=72 velocity=0 time=12
the msg is note_on channel=0 note=72 velocity=100 time=0
the msg is note_off channel=0 note=74 velocity=0 time=25
the msg is note_on channel=0 note=74 velocity=100 time=0
the msg is note_off channel=0 note=74 velocity=0 time=25
the msg is note_on channel=0 note=74 velocity=100 time=0
the msg is note_off channel=0 note=74 velocity=0 time=12
the msg is note_on channel=0 note=74 velocity=100 time=0
the msg is note_off channel=0 note=76 velocity=0 time=25
the msg is note_on channel=0 note=76 velocity=100 time=0
the msg is note_off channel=0 note=79 velocity=0 time=25
the msg is note_on channel=0 note=79 velocity=100 time=0
the msg is note_off channel=0 note=79 velocity=0 time=12
the msg is note_on channel=0 note=79 velocity=100 time=0
the msg is note_off channel=0 note=76 velocity=0 time=12
the msg is note_on channel=0 note=76 velocity=100 time=0
the msg is note_off channel=0 note=74 velocity=0 time=12
the msg is note_on channel=0 note=74 velocity=100 time=0
the msg is note_off channel=0 note=72 velocity=0 time=12
the msg is note_on channel=0 note=72 velocity=100 time=0
the msg is note_off channel=0 note=74 velocity=0 time=25
the msg is note_on channel=0 note=74 velocity=100 time=0
the msg is note_off channel=0 note=76 velocity=0 time=25
the msg is note_on channel=0 note=76 velocity=100 time=0
the msg is note_off channel=0 note=79 velocity=0 time=25
the msg is note_on channel=0 note=79 velocity=100 time=0
the msg is note_off channel=0 note=79 velocity=0 time=12
the msg is note_on channel=0 note=79 velocity=100 time=0
the msg is note_off channel=0 note=76 velocity=0 time=12
the msg is note_on channel=0 note=76 velocity=100 time=0
the msg is note_off channel=0 note=74 velocity=0 time=12
the msg is note_on channel=0 note=74 velocity=100 time=0
the msg is note_off channel=0 note=72 velocity=0 time=12
the msg is note_on channel=0 note=72 velocity=100 time=0
the msg is note_off channel=0 note=74 velocity=0 time=25
the msg is note_on channel=0 note=74 velocity=100 time=0
the msg is note_off channel=0 note=74 velocity=0 time=12
the msg is note_on channel=0 note=74 velocity=100 time=0
the msg is note_off channel=0 note=74 velocity=0 time=12
the msg is note_on channel=0 note=74 velocity=100 time=0
the msg is note_off channel=0 note=74 velocity=0 time=25
the msg is note_on channel=0 note=74 velocity=100 time=0
the msg is note_off channel=0 note=74 velocity=0 time=25
the msg is note_on channel=0 note=74 velocity=100 time=0
the msg is note_off channel=0 note=76 velocity=0 time=25
the msg is note_on channel=0 note=76 velocity=100 time=0
the msg is note_off channel=0 note=79 velocity=0 time=25
the msg is note_on channel=0 note=79 velocity=100 time=0
the msg is note_off channel=0 note=79 velocity=0 time=12
the msg is note_on channel=0 note=79 velocity=100 time=0
the msg is note_off channel=0 note=76 velocity=0 time=12
the msg is note_on channel=0 note=76 velocity=100 time=0
the msg is note_off channel=0 note=74 velocity=0 time=12
the msg is note_on channel=0 note=74 velocity=100 time=0
the msg is note_off channel=0 note=72 velocity=0 time=12
the msg is note_on channel=0 note=72 velocity=100 time=0
the msg is note_off channel=0 note=72 velocity=0 time=81
the msg is note_on channel=0 note=72 velocity=100 time=0
the msg is note_off channel=0 note=72 velocity=0 time=8
the msg is note_on channel=0 note=72 velocity=100 time=0
the msg is note_off channel=0 note=74 velocity=0 time=25
the msg is note_on channel=0 note=74 velocity=100 time=0
the msg is note_off channel=0 note=74 velocity=0 time=25
the msg is note_on channel=0 note=74 velocity=100 time=0
the msg is note_off channel=0 note=74 velocity=0 time=25
the msg is note_on channel=0 note=74 velocity=100 time=0
the msg is note_off channel=0 note=74 velocity=0 time=25
the msg is note_on channel=0 note=74 velocity=100 time=0
the msg is note_off channel=0 note=74 velocity=0 time=25
the msg is note_on channel=0 note=74 velocity=100 time=0
the msg is note_off channel=0 note=74 velocity=0 time=25
the msg is note_on channel=0 note=74 velocity=100 time=0
the msg is note_off channel=0 note=76 velocity=0 time=25
the msg is note_on channel=0 note=76 velocity=100 time=0
the msg is note_off channel=0 note=79 velocity=0 time=25
the msg is note_on channel=0 note=79 velocity=100 time=0
the msg is note_off channel=0 note=79 velocity=0 time=12
the msg is note_on channel=0 note=79 velocity=100 time=0
the msg is note_off channel=0 note=76 velocity=0 time=12
the msg is note_on channel=0 note=76 velocity=100 time=0
the msg is note_off channel=0 note=74 velocity=0 time=17
the msg is note_on channel=0 note=74 velocity=100 time=0
the msg is note_off channel=0 note=72 velocity=0 time=8
the msg is note_on channel=0 note=72 velocity=100 time=0
the msg is note_off channel=0 note=72 velocity=0 time=25
the msg is note_on channel=0 note=72 velocity=100 time=0
the msg is note_off channel=0 note=72 velocity=0 time=25
the msg is note_on channel=0 note=72 velocity=100 time=0
the msg is note_off channel=0 note=72 velocity=0 time=12
the msg is note_on channel=0 note=72 velocity=100 time=0
the msg is note_off channel=0 note=72 velocity=0 time=29
the msg is note_on channel=0 note=72 velocity=100 time=0
the msg is note_off channel=0 note=72 velocity=0 time=8
the msg is note_on channel=0 note=72 velocity=100 time=0
the msg is note_off channel=0 note=72 velocity=0 time=25
the msg is note_on channel=0 note=72 velocity=100 time=0
the msg is note_off channel=0 note=72 velocity=0 time=12
the msg is note_on channel=0 note=72 velocity=100 time=0
the msg is note_off channel=0 note=72 velocity=0 time=12
the msg is note_on channel=0 note=72 velocity=100 time=0
the msg is note_off channel=0 note=72 velocity=0 time=12
the msg is note_on channel=0 note=72 velocity=100 time=0
the msg is note_off channel=0 note=76 velocity=0 time=12
the msg is note_on channel=0 note=76 velocity=100 time=0
the msg is note_off channel=0 note=79 velocity=0 time=25
the msg is note_on channel=0 note=79 velocity=100 time=0
the msg is note_off channel=0 note=79 velocity=0 time=12
the msg is note_on channel=0 note=79 velocity=100 time=0
the msg is note_off channel=0 note=76 velocity=0 time=12
the msg is note_on channel=0 note=76 velocity=100 time=0
the msg is note_off channel=0 note=74 velocity=0 time=12
the msg is note_on channel=0 note=74 velocity=100 time=0
the msg is note_off channel=0 note=72 velocity=0 time=12
the msg is note_on channel=0 note=72 velocity=100 time=0
the msg is note_off channel=0 note=72 velocity=0 time=76
the msg is note_on channel=0 note=72 velocity=100 time=0
the msg is note_off channel=0 note=72 velocity=0 time=12
the msg is note_on channel=0 note=72 velocity=100 time=0
the msg is note_off channel=0 note=72 velocity=0 time=12
the msg is note_on channel=0 note=72 velocity=100 time=0
the msg is note_off channel=0 note=72 velocity=0 time=8
the msg is note_on channel=0 note=72 velocity=100 time=0
the msg is note_off channel=0 note=72 velocity=0 time=17
the msg is note_on channel=0 note=72 velocity=100 time=0
the msg is note_off channel=0 note=72 velocity=0 time=12
the msg is note_on channel=0 note=72 velocity=100 time=0
the msg is note_off channel=0 note=72 velocity=0 time=12
the msg is note_on channel=0 note=72 velocity=100 time=0
the msg is note_off channel=0 note=76 velocity=0 time=8
the msg is note_on channel=0 note=76 velocity=100 time=0
the msg is note_off channel=0 note=79 velocity=0 time=29
the msg is note_on channel=0 note=79 velocity=100 time=0
the msg is note_off channel=0 note=79 velocity=0 time=12
the msg is note_on channel=0 note=79 velocity=100 time=0
the msg is note_off channel=0 note=76 velocity=0 time=8
the msg is note_on channel=0 note=76 velocity=100 time=0
the msg is note_off channel=0 note=74 velocity=0 time=17
the msg is note_on channel=0 note=74 velocity=100 time=0
the msg is <meta message end_of_track time=51>
the msg is <meta message track_name name='Piano' time=0>
the msg is program_change channel=0 program=0 time=0
the msg is note_off channel=0 note=72 velocity=0 time=0
the msg is pitchwheel channel=0 pitch=0 time=0
the msg is program_change channel=0 program=0 time=0
the msg is <meta message set_tempo tempo=500000 time=0>
the msg is <meta message time_signature numerator=4 denominator=4 clocks_per_click=24 notated_32nd_notes_per_beat=8 time=0>
the msg is note_on channel=0 note=72 velocity=100 time=0
the msg is note_off channel=0 note=74 velocity=0 time=34
the msg is note_on channel=0 note=74 velocity=100 time=0
the msg is note_off channel=0 note=74 velocity=0 time=17
the msg is note_on channel=0 note=74 velocity=100 time=0
the msg is note_off channel=0 note=74 velocity=0 time=34
the msg is note_on channel=0 note=74 velocity=100 time=0
the msg is note_off channel=0 note=74 velocity=0 time=17
the msg is note_on channel=0 note=74 velocity=100 time=0
the msg is note_off channel=0 note=76 velocity=0 time=34
the msg is note_on channel=0 note=76 velocity=100 time=0
the msg is note_off channel=0 note=79 velocity=0 time=17
the msg is note_on channel=0 note=79 velocity=100 time=0
the msg is note_off channel=0 note=79 velocity=0 time=17
the msg is note_on channel=0 note=79 velocity=100 time=0
the msg is note_off channel=0 note=76 velocity=0 time=17
the msg is note_on channel=0 note=76 velocity=100 time=0
the msg is note_off channel=0 note=74 velocity=0 time=4
the msg is note_on channel=0 note=74 velocity=100 time=0
the msg is note_off channel=0 note=72 velocity=0 time=12
the msg is note_on channel=0 note=72 velocity=100 time=0
the msg is note_off channel=0 note=72 velocity=0 time=89
the msg is note_on channel=0 note=72 velocity=100 time=0
the msg is note_off channel=0 note=72 velocity=0 time=12
the msg is note_on channel=0 note=72 velocity=100 time=0
the msg is note_off channel=0 note=74 velocity=0 time=25
the msg is note_on channel=0 note=74 velocity=100 time=0
the msg is note_off channel=0 note=74 velocity=0 time=25
the msg is note_on channel=0 note=74 velocity=100 time=0
the msg is note_off channel=0 note=74 velocity=0 time=12
the msg is note_on channel=0 note=74 velocity=100 time=0
the msg is note_off channel=0 note=76 velocity=0 time=25
the msg is note_on channel=0 note=76 velocity=100 time=0
the msg is note_off channel=0 note=79 velocity=0 time=25
the msg is note_on channel=0 note=79 velocity=100 time=0
the msg is note_off channel=0 note=79 velocity=0 time=12
the msg is note_on channel=0 note=79 velocity=100 time=0
the msg is note_off channel=0 note=76 velocity=0 time=12
the msg is note_on channel=0 note=76 velocity=100 time=0
the msg is note_off channel=0 note=74 velocity=0 time=12
the msg is note_on channel=0 note=74 velocity=100 time=0
the msg is note_off channel=0 note=72 velocity=0 time=12
the msg is note_on channel=0 note=72 velocity=100 time=0
the msg is note_off channel=0 note=74 velocity=0 time=25
the msg is note_on channel=0 note=74 velocity=100 time=0
the msg is note_off channel=0 note=76 velocity=0 time=25
the msg is note_on channel=0 note=76 velocity=100 time=0
the msg is note_off channel=0 note=79 velocity=0 time=25
the msg is note_on channel=0 note=79 velocity=100 time=0
the msg is note_off channel=0 note=79 velocity=0 time=12
the msg is note_on channel=0 note=79 velocity=100 time=0
the msg is note_off channel=0 note=76 velocity=0 time=12
the msg is note_on channel=0 note=76 velocity=100 time=0
the msg is note_off channel=0 note=74 velocity=0 time=12
the msg is note_on channel=0 note=74 velocity=100 time=0
the msg is note_off channel=0 note=72 velocity=0 time=12
the msg is note_on channel=0 note=72 velocity=100 time=0
the msg is note_off channel=0 note=74 velocity=0 time=25
the msg is note_on channel=0 note=74 velocity=100 time=0
the msg is note_off channel=0 note=74 velocity=0 time=12
the msg is note_on channel=0 note=74 velocity=100 time=0
the msg is note_off channel=0 note=74 velocity=0 time=12
the msg is note_on channel=0 note=74 velocity=100 time=0
the msg is note_off channel=0 note=74 velocity=0 time=25
the msg is note_on channel=0 note=74 velocity=100 time=0
the msg is note_off channel=0 note=74 velocity=0 time=25
the msg is note_on channel=0 note=74 velocity=100 time=0
the msg is note_off channel=0 note=76 velocity=0 time=25
the msg is note_on channel=0 note=76 velocity=100 time=0
the msg is note_off channel=0 note=79 velocity=0 time=25
the msg is note_on channel=0 note=79 velocity=100 time=0
the msg is note_off channel=0 note=79 velocity=0 time=12
the msg is note_on channel=0 note=79 velocity=100 time=0
the msg is note_off channel=0 note=76 velocity=0 time=12
the msg is note_on channel=0 note=76 velocity=100 time=0
the msg is note_off channel=0 note=74 velocity=0 time=12
the msg is note_on channel=0 note=74 velocity=100 time=0
the msg is note_off channel=0 note=72 velocity=0 time=12
the msg is note_on channel=0 note=72 velocity=100 time=0
the msg is note_off channel=0 note=72 velocity=0 time=81
the msg is note_on channel=0 note=72 velocity=100 time=0
the msg is note_off channel=0 note=72 velocity=0 time=8
the msg is note_on channel=0 note=72 velocity=100 time=0
the msg is note_off channel=0 note=74 velocity=0 time=25
the msg is note_on channel=0 note=74 velocity=100 time=0
the msg is note_off channel=0 note=74 velocity=0 time=25
the msg is note_on channel=0 note=74 velocity=100 time=0
the msg is note_off channel=0 note=74 velocity=0 time=25
the msg is note_on channel=0 note=74 velocity=100 time=0
the msg is note_off channel=0 note=74 velocity=0 time=25
the msg is note_on channel=0 note=74 velocity=100 time=0
the msg is note_off channel=0 note=74 velocity=0 time=25
the msg is note_on channel=0 note=74 velocity=100 time=0
the msg is note_off channel=0 note=74 velocity=0 time=25
the msg is note_on channel=0 note=74 velocity=100 time=0
the msg is note_off channel=0 note=76 velocity=0 time=25
the msg is note_on channel=0 note=76 velocity=100 time=0
the msg is note_off channel=0 note=79 velocity=0 time=25
the msg is note_on channel=0 note=79 velocity=100 time=0
the msg is note_off channel=0 note=79 velocity=0 time=12
the msg is note_on channel=0 note=79 velocity=100 time=0
the msg is note_off channel=0 note=76 velocity=0 time=12
the msg is note_on channel=0 note=76 velocity=100 time=0
the msg is note_off channel=0 note=74 velocity=0 time=17
the msg is note_on channel=0 note=74 velocity=100 time=0
the msg is note_off channel=0 note=72 velocity=0 time=8
the msg is note_on channel=0 note=72 velocity=100 time=0
the msg is note_off channel=0 note=72 velocity=0 time=25
the msg is note_on channel=0 note=72 velocity=100 time=0
the msg is note_off channel=0 note=72 velocity=0 time=25
the msg is note_on channel=0 note=72 velocity=100 time=0
the msg is note_off channel=0 note=72 velocity=0 time=12
the msg is note_on channel=0 note=72 velocity=100 time=0
the msg is note_off channel=0 note=72 velocity=0 time=29
the msg is note_on channel=0 note=72 velocity=100 time=0
the msg is note_off channel=0 note=72 velocity=0 time=8
the msg is note_on channel=0 note=72 velocity=100 time=0
the msg is note_off channel=0 note=72 velocity=0 time=25
the msg is note_on channel=0 note=72 velocity=100 time=0
the msg is note_off channel=0 note=72 velocity=0 time=12
the msg is note_on channel=0 note=72 velocity=100 time=0
the msg is note_off channel=0 note=72 velocity=0 time=12
the msg is note_on channel=0 note=72 velocity=100 time=0
the msg is note_off channel=0 note=72 velocity=0 time=12
the msg is note_on channel=0 note=72 velocity=100 time=0
the msg is note_off channel=0 note=76 velocity=0 time=12
the msg is note_on channel=0 note=76 velocity=100 time=0
the msg is note_off channel=0 note=79 velocity=0 time=25
the msg is note_on channel=0 note=79 velocity=100 time=0
the msg is note_off channel=0 note=79 velocity=0 time=12
the msg is note_on channel=0 note=79 velocity=100 time=0
the msg is note_off channel=0 note=76 velocity=0 time=12
the msg is note_on channel=0 note=76 velocity=100 time=0
the msg is note_off channel=0 note=74 velocity=0 time=12
the msg is note_on channel=0 note=74 velocity=100 time=0
the msg is note_off channel=0 note=72 velocity=0 time=12
the msg is note_on channel=0 note=72 velocity=100 time=0
the msg is note_off channel=0 note=72 velocity=0 time=76
the msg is note_on channel=0 note=72 velocity=100 time=0
the msg is note_off channel=0 note=72 velocity=0 time=12
the msg is note_on channel=0 note=72 velocity=100 time=0
the msg is note_off channel=0 note=72 velocity=0 time=12
the msg is note_on channel=0 note=72 velocity=100 time=0
the msg is note_off channel=0 note=72 velocity=0 time=8
the msg is note_on channel=0 note=72 velocity=100 time=0
the msg is note_off channel=0 note=72 velocity=0 time=17
the msg is note_on channel=0 note=72 velocity=100 time=0
the msg is note_off channel=0 note=72 velocity=0 time=12
the msg is note_on channel=0 note=72 velocity=100 time=0
the msg is note_off channel=0 note=72 velocity=0 time=12
the msg is note_on channel=0 note=72 velocity=100 time=0
the msg is note_off channel=0 note=76 velocity=0 time=8
the msg is note_on channel=0 note=76 velocity=100 time=0
the msg is note_off channel=0 note=79 velocity=0 time=29
the msg is note_on channel=0 note=79 velocity=100 time=0
the msg is note_off channel=0 note=79 velocity=0 time=12
the msg is note_on channel=0 note=79 velocity=100 time=0
the msg is note_off channel=0 note=76 velocity=0 time=8
the msg is note_on channel=0 note=76 velocity=100 time=0
the msg is note_off channel=0 note=74 velocity=0 time=17
the msg is note_on channel=0 note=74 velocity=100 time=0
the msg is <meta message end_of_track time=51>
the msg is <meta message track_name name='Piano' time=0>
the msg is program_change channel=0 program=0 time=0
the msg is note_off channel=0 note=72 velocity=0 time=0
the msg is pitchwheel channel=0 pitch=0 time=0
the msg is program_change channel=0 program=0 time=0
the msg is <meta message set_tempo tempo=500000 time=0>
the msg is <meta message time_signature numerator=4 denominator=4 clocks_per_click=24 notated_32nd_notes_per_beat=8 time=0>
the msg is note_on channel=0 note=72 velocity=100 time=0
the msg is note_off channel=0 note=74 velocity=0 time=34
the msg is note_on channel=0 note=74 velocity=100 time=0
the msg is note_off channel=0 note=74 velocity=0 time=17
the msg is note_on channel=0 note=74 velocity=100 time=0
the msg is note_off channel=0 note=74 velocity=0 time=34
the msg is note_on channel=0 note=74 velocity=100 time=0
the msg is note_off channel=0 note=74 velocity=0 time=17
the msg is note_on channel=0 note=74 velocity=100 time=0
the msg is note_off channel=0 note=76 velocity=0 time=34
the msg is note_on channel=0 note=76 velocity=100 time=0
the msg is note_off channel=0 note=79 velocity=0 time=17
the msg is note_on channel=0 note=79 velocity=100 time=0
the msg is note_off channel=0 note=79 velocity=0 time=17
the msg is note_on channel=0 note=79 velocity=100 time=0
the msg is note_off channel=0 note=76 velocity=0 time=17
the msg is note_on channel=0 note=76 velocity=100 time=0
the msg is note_off channel=0 note=74 velocity=0 time=4
the msg is note_on channel=0 note=74 velocity=100 time=0
the msg is note_off channel=0 note=72 velocity=0 time=12
the msg is note_on channel=0 note=72 velocity=100 time=0
the msg is note_off channel=0 note=72 velocity=0 time=89
the msg is note_on channel=0 note=72 velocity=100 time=0
the msg is note_off channel=0 note=72 velocity=0 time=12
the msg is note_on channel=0 note=72 velocity=100 time=0
the msg is note_off channel=0 note=74 velocity=0 time=25
the msg is note_on channel=0 note=74 velocity=100 time=0
the msg is note_off channel=0 note=74 velocity=0 time=25
the msg is note_on channel=0 note=74 velocity=100 time=0
the msg is note_off channel=0 note=74 velocity=0 time=12
the msg is note_on channel=0 note=74 velocity=100 time=0
the msg is note_off channel=0 note=76 velocity=0 time=25
the msg is note_on channel=0 note=76 velocity=100 time=0
the msg is note_off channel=0 note=79 velocity=0 time=25
the msg is note_on channel=0 note=79 velocity=100 time=0
the msg is note_off channel=0 note=79 velocity=0 time=12
the msg is note_on channel=0 note=79 velocity=100 time=0
the msg is note_off channel=0 note=76 velocity=0 time=12
the msg is note_on channel=0 note=76 velocity=100 time=0
the msg is note_off channel=0 note=74 velocity=0 time=12
the msg is note_on channel=0 note=74 velocity=100 time=0
the msg is note_off channel=0 note=72 velocity=0 time=12
the msg is note_on channel=0 note=72 velocity=100 time=0
the msg is note_off channel=0 note=74 velocity=0 time=25
the msg is note_on channel=0 note=74 velocity=100 time=0
the msg is note_off channel=0 note=76 velocity=0 time=25
the msg is note_on channel=0 note=76 velocity=100 time=0
the msg is note_off channel=0 note=79 velocity=0 time=25
the msg is note_on channel=0 note=79 velocity=100 time=0
the msg is note_off channel=0 note=79 velocity=0 time=12
the msg is note_on channel=0 note=79 velocity=100 time=0
the msg is note_off channel=0 note=76 velocity=0 time=12
the msg is note_on channel=0 note=76 velocity=100 time=0
the msg is note_off channel=0 note=74 velocity=0 time=12
the msg is note_on channel=0 note=74 velocity=100 time=0
the msg is note_off channel=0 note=72 velocity=0 time=12
the msg is note_on channel=0 note=72 velocity=100 time=0
the msg is note_off channel=0 note=74 velocity=0 time=25
the msg is note_on channel=0 note=74 velocity=100 time=0
the msg is note_off channel=0 note=74 velocity=0 time=12
the msg is note_on channel=0 note=74 velocity=100 time=0
the msg is note_off channel=0 note=74 velocity=0 time=12
the msg is note_on channel=0 note=74 velocity=100 time=0
the msg is note_off channel=0 note=74 velocity=0 time=25
the msg is note_on channel=0 note=74 velocity=100 time=0
the msg is note_off channel=0 note=74 velocity=0 time=25
the msg is note_on channel=0 note=74 velocity=100 time=0
the msg is note_off channel=0 note=76 velocity=0 time=25
the msg is note_on channel=0 note=76 velocity=100 time=0
the msg is note_off channel=0 note=79 velocity=0 time=25
the msg is note_on channel=0 note=79 velocity=100 time=0
the msg is note_off channel=0 note=79 velocity=0 time=12
the msg is note_on channel=0 note=79 velocity=100 time=0
the msg is note_off channel=0 note=76 velocity=0 time=12
the msg is note_on channel=0 note=76 velocity=100 time=0
the msg is note_off channel=0 note=74 velocity=0 time=12
the msg is note_on channel=0 note=74 velocity=100 time=0
the msg is note_off channel=0 note=72 velocity=0 time=12
the msg is note_on channel=0 note=72 velocity=100 time=0
the msg is note_off channel=0 note=72 velocity=0 time=81
the msg is note_on channel=0 note=72 velocity=100 time=0
the msg is note_off channel=0 note=72 velocity=0 time=8
the msg is note_on channel=0 note=72 velocity=100 time=0
the msg is note_off channel=0 note=74 velocity=0 time=25
the msg is note_on channel=0 note=74 velocity=100 time=0
the msg is note_off channel=0 note=74 velocity=0 time=25
the msg is note_on channel=0 note=74 velocity=100 time=0
the msg is note_off channel=0 note=74 velocity=0 time=25
the msg is note_on channel=0 note=74 velocity=100 time=0
the msg is note_off channel=0 note=74 velocity=0 time=25
the msg is note_on channel=0 note=74 velocity=100 time=0
the msg is note_off channel=0 note=74 velocity=0 time=25
the msg is note_on channel=0 note=74 velocity=100 time=0
the msg is note_off channel=0 note=74 velocity=0 time=25
the msg is note_on channel=0 note=74 velocity=100 time=0
the msg is note_off channel=0 note=76 velocity=0 time=25
the msg is note_on channel=0 note=76 velocity=100 time=0
the msg is note_off channel=0 note=79 velocity=0 time=25
the msg is note_on channel=0 note=79 velocity=100 time=0
the msg is note_off channel=0 note=79 velocity=0 time=12
the msg is note_on channel=0 note=79 velocity=100 time=0
the msg is note_off channel=0 note=76 velocity=0 time=12
the msg is note_on channel=0 note=76 velocity=100 time=0
the msg is note_off channel=0 note=74 velocity=0 time=17
the msg is note_on channel=0 note=74 velocity=100 time=0
the msg is note_off channel=0 note=72 velocity=0 time=8
the msg is note_on channel=0 note=72 velocity=100 time=0
the msg is note_off channel=0 note=72 velocity=0 time=25
the msg is note_on channel=0 note=72 velocity=100 time=0
the msg is note_off channel=0 note=72 velocity=0 time=25
the msg is note_on channel=0 note=72 velocity=100 time=0
the msg is note_off channel=0 note=72 velocity=0 time=12
the msg is note_on channel=0 note=72 velocity=100 time=0
the msg is note_off channel=0 note=72 velocity=0 time=29
the msg is note_on channel=0 note=72 velocity=100 time=0
the msg is note_off channel=0 note=72 velocity=0 time=8
the msg is note_on channel=0 note=72 velocity=100 time=0
the msg is note_off channel=0 note=72 velocity=0 time=25
the msg is note_on channel=0 note=72 velocity=100 time=0
the msg is note_off channel=0 note=72 velocity=0 time=12
the msg is note_on channel=0 note=72 velocity=100 time=0
the msg is note_off channel=0 note=72 velocity=0 time=12
the msg is note_on channel=0 note=72 velocity=100 time=0
the msg is note_off channel=0 note=72 velocity=0 time=12
the msg is note_on channel=0 note=72 velocity=100 time=0
the msg is note_off channel=0 note=76 velocity=0 time=12
the msg is note_on channel=0 note=76 velocity=100 time=0
the msg is note_off channel=0 note=79 velocity=0 time=25
the msg is note_on channel=0 note=79 velocity=100 time=0
the msg is note_off channel=0 note=79 velocity=0 time=12
the msg is note_on channel=0 note=79 velocity=100 time=0
the msg is note_off channel=0 note=76 velocity=0 time=12
the msg is note_on channel=0 note=76 velocity=100 time=0
the msg is note_off channel=0 note=74 velocity=0 time=12
the msg is note_on channel=0 note=74 velocity=100 time=0
the msg is note_off channel=0 note=72 velocity=0 time=12
the msg is note_on channel=0 note=72 velocity=100 time=0
the msg is note_off channel=0 note=72 velocity=0 time=76
the msg is note_on channel=0 note=72 velocity=100 time=0
the msg is note_off channel=0 note=72 velocity=0 time=12
the msg is note_on channel=0 note=72 velocity=100 time=0
the msg is note_off channel=0 note=72 velocity=0 time=12
the msg is note_on channel=0 note=72 velocity=100 time=0
the msg is note_off channel=0 note=72 velocity=0 time=8
the msg is note_on channel=0 note=72 velocity=100 time=0
the msg is note_off channel=0 note=72 velocity=0 time=17
the msg is note_on channel=0 note=72 velocity=100 time=0
the msg is note_off channel=0 note=72 velocity=0 time=12
the msg is note_on channel=0 note=72 velocity=100 time=0
the msg is note_off channel=0 note=72 velocity=0 time=12
the msg is note_on channel=0 note=72 velocity=100 time=0
the msg is note_off channel=0 note=76 velocity=0 time=8
the msg is note_on channel=0 note=76 velocity=100 time=0
the msg is note_off channel=0 note=79 velocity=0 time=29
the msg is note_on channel=0 note=79 velocity=100 time=0
the msg is note_off channel=0 note=79 velocity=0 time=12
the msg is note_on channel=0 note=79 velocity=100 time=0
the msg is note_off channel=0 note=76 velocity=0 time=8
the msg is note_on channel=0 note=76 velocity=100 time=0
the msg is note_off channel=0 note=74 velocity=0 time=17
the msg is note_on channel=0 note=74 velocity=100 time=0
the msg is <meta message end_of_track time=51>
the msg is <meta message track_name name='Piano' time=0>
the msg is program_change channel=0 program=0 time=0
the msg is note_off channel=0 note=72 velocity=0 time=0
the msg is pitchwheel channel=0 pitch=0 time=0
the msg is program_change channel=0 program=0 time=0
the msg is <meta message set_tempo tempo=500000 time=0>
the msg is <meta message time_signature numerator=4 denominator=4 clocks_per_click=24 notated_32nd_notes_per_beat=8 time=0>
the msg is note_on channel=0 note=72 velocity=100 time=0
the msg is note_off channel=0 note=74 velocity=0 time=34
the msg is note_on channel=0 note=74 velocity=100 time=0
the msg is note_off channel=0 note=74 velocity=0 time=17
the msg is note_on channel=0 note=74 velocity=100 time=0
the msg is note_off channel=0 note=74 velocity=0 time=34
the msg is note_on channel=0 note=74 velocity=100 time=0
the msg is note_off channel=0 note=74 velocity=0 time=17
the msg is note_on channel=0 note=74 velocity=100 time=0
the msg is note_off channel=0 note=76 velocity=0 time=34
the msg is note_on channel=0 note=76 velocity=100 time=0
the msg is note_off channel=0 note=79 velocity=0 time=17
the msg is note_on channel=0 note=79 velocity=100 time=0
the msg is note_off channel=0 note=79 velocity=0 time=17
the msg is note_on channel=0 note=79 velocity=100 time=0
the msg is note_off channel=0 note=76 velocity=0 time=17
the msg is note_on channel=0 note=76 velocity=100 time=0
the msg is note_off channel=0 note=74 velocity=0 time=4
the msg is note_on channel=0 note=74 velocity=100 time=0
the msg is note_off channel=0 note=72 velocity=0 time=12
the msg is note_on channel=0 note=72 velocity=100 time=0
the msg is note_off channel=0 note=72 velocity=0 time=89
the msg is note_on channel=0 note=72 velocity=100 time=0
the msg is note_off channel=0 note=72 velocity=0 time=12
the msg is note_on channel=0 note=72 velocity=100 time=0
the msg is note_off channel=0 note=74 velocity=0 time=25
the msg is note_on channel=0 note=74 velocity=100 time=0
the msg is note_off channel=0 note=74 velocity=0 time=25
the msg is note_on channel=0 note=74 velocity=100 time=0
the msg is note_off channel=0 note=74 velocity=0 time=12
the msg is note_on channel=0 note=74 velocity=100 time=0
the msg is note_off channel=0 note=76 velocity=0 time=25
the msg is note_on channel=0 note=76 velocity=100 time=0
the msg is note_off channel=0 note=79 velocity=0 time=25
the msg is note_on channel=0 note=79 velocity=100 time=0
the msg is note_off channel=0 note=79 velocity=0 time=12
the msg is note_on channel=0 note=79 velocity=100 time=0
the msg is note_off channel=0 note=76 velocity=0 time=12
the msg is note_on channel=0 note=76 velocity=100 time=0
the msg is note_off channel=0 note=74 velocity=0 time=12
the msg is note_on channel=0 note=74 velocity=100 time=0
the msg is note_off channel=0 note=72 velocity=0 time=12
the msg is note_on channel=0 note=72 velocity=100 time=0
the msg is note_off channel=0 note=74 velocity=0 time=25
the msg is note_on channel=0 note=74 velocity=100 time=0
the msg is note_off channel=0 note=76 velocity=0 time=25
the msg is note_on channel=0 note=76 velocity=100 time=0
the msg is note_off channel=0 note=79 velocity=0 time=25
the msg is note_on channel=0 note=79 velocity=100 time=0
the msg is note_off channel=0 note=79 velocity=0 time=12
the msg is note_on channel=0 note=79 velocity=100 time=0
the msg is note_off channel=0 note=76 velocity=0 time=12
the msg is note_on channel=0 note=76 velocity=100 time=0
the msg is note_off channel=0 note=74 velocity=0 time=12
the msg is note_on channel=0 note=74 velocity=100 time=0
the msg is note_off channel=0 note=72 velocity=0 time=12
the msg is note_on channel=0 note=72 velocity=100 time=0
the msg is note_off channel=0 note=74 velocity=0 time=25
the msg is note_on channel=0 note=74 velocity=100 time=0
the msg is note_off channel=0 note=74 velocity=0 time=12
the msg is note_on channel=0 note=74 velocity=100 time=0
the msg is note_off channel=0 note=74 velocity=0 time=12
the msg is note_on channel=0 note=74 velocity=100 time=0
the msg is note_off channel=0 note=74 velocity=0 time=25
the msg is note_on channel=0 note=74 velocity=100 time=0
the msg is note_off channel=0 note=74 velocity=0 time=25
the msg is note_on channel=0 note=74 velocity=100 time=0
the msg is note_off channel=0 note=76 velocity=0 time=25
the msg is note_on channel=0 note=76 velocity=100 time=0
the msg is note_off channel=0 note=79 velocity=0 time=25
the msg is note_on channel=0 note=79 velocity=100 time=0
the msg is note_off channel=0 note=79 velocity=0 time=12
the msg is note_on channel=0 note=79 velocity=100 time=0
the msg is note_off channel=0 note=76 velocity=0 time=12
the msg is note_on channel=0 note=76 velocity=100 time=0
the msg is note_off channel=0 note=74 velocity=0 time=12
the msg is note_on channel=0 note=74 velocity=100 time=0
the msg is note_off channel=0 note=72 velocity=0 time=12
the msg is note_on channel=0 note=72 velocity=100 time=0
the msg is note_off channel=0 note=72 velocity=0 time=81
the msg is note_on channel=0 note=72 velocity=100 time=0
the msg is note_off channel=0 note=72 velocity=0 time=8
the msg is note_on channel=0 note=72 velocity=100 time=0
the msg is note_off channel=0 note=74 velocity=0 time=25
the msg is note_on channel=0 note=74 velocity=100 time=0
the msg is note_off channel=0 note=74 velocity=0 time=25
the msg is note_on channel=0 note=74 velocity=100 time=0
the msg is note_off channel=0 note=74 velocity=0 time=25
the msg is note_on channel=0 note=74 velocity=100 time=0
the msg is note_off channel=0 note=74 velocity=0 time=25
the msg is note_on channel=0 note=74 velocity=100 time=0
the msg is note_off channel=0 note=74 velocity=0 time=25
the msg is note_on channel=0 note=74 velocity=100 time=0
the msg is note_off channel=0 note=74 velocity=0 time=25
the msg is note_on channel=0 note=74 velocity=100 time=0
the msg is note_off channel=0 note=76 velocity=0 time=25
the msg is note_on channel=0 note=76 velocity=100 time=0
the msg is note_off channel=0 note=79 velocity=0 time=25
the msg is note_on channel=0 note=79 velocity=100 time=0
the msg is note_off channel=0 note=79 velocity=0 time=12
the msg is note_on channel=0 note=79 velocity=100 time=0
the msg is note_off channel=0 note=76 velocity=0 time=12
the msg is note_on channel=0 note=76 velocity=100 time=0
the msg is note_off channel=0 note=74 velocity=0 time=17
the msg is note_on channel=0 note=74 velocity=100 time=0
the msg is note_off channel=0 note=72 velocity=0 time=8
the msg is note_on channel=0 note=72 velocity=100 time=0
the msg is note_off channel=0 note=72 velocity=0 time=25
the msg is note_on channel=0 note=72 velocity=100 time=0
the msg is note_off channel=0 note=72 velocity=0 time=25
the msg is note_on channel=0 note=72 velocity=100 time=0
the msg is note_off channel=0 note=72 velocity=0 time=12
the msg is note_on channel=0 note=72 velocity=100 time=0
the msg is note_off channel=0 note=72 velocity=0 time=29
the msg is note_on channel=0 note=72 velocity=100 time=0
the msg is note_off channel=0 note=72 velocity=0 time=8
the msg is note_on channel=0 note=72 velocity=100 time=0
the msg is note_off channel=0 note=72 velocity=0 time=25
the msg is note_on channel=0 note=72 velocity=100 time=0
the msg is note_off channel=0 note=72 velocity=0 time=12
the msg is note_on channel=0 note=72 velocity=100 time=0
the msg is note_off channel=0 note=72 velocity=0 time=12
the msg is note_on channel=0 note=72 velocity=100 time=0
the msg is note_off channel=0 note=72 velocity=0 time=12
the msg is note_on channel=0 note=72 velocity=100 time=0
the msg is note_off channel=0 note=76 velocity=0 time=12
the msg is note_on channel=0 note=76 velocity=100 time=0
the msg is note_off channel=0 note=79 velocity=0 time=25
the msg is note_on channel=0 note=79 velocity=100 time=0
the msg is note_off channel=0 note=79 velocity=0 time=12
the msg is note_on channel=0 note=79 velocity=100 time=0
the msg is note_off channel=0 note=76 velocity=0 time=12
the msg is note_on channel=0 note=76 velocity=100 time=0
the msg is note_off channel=0 note=74 velocity=0 time=12
the msg is note_on channel=0 note=74 velocity=100 time=0
the msg is note_off channel=0 note=72 velocity=0 time=12
the msg is note_on channel=0 note=72 velocity=100 time=0
the msg is note_off channel=0 note=72 velocity=0 time=76
the msg is note_on channel=0 note=72 velocity=100 time=0
the msg is note_off channel=0 note=72 velocity=0 time=12
the msg is note_on channel=0 note=72 velocity=100 time=0
the msg is note_off channel=0 note=72 velocity=0 time=12
the msg is note_on channel=0 note=72 velocity=100 time=0
the msg is note_off channel=0 note=72 velocity=0 time=8
the msg is note_on channel=0 note=72 velocity=100 time=0
the msg is note_off channel=0 note=72 velocity=0 time=17
the msg is note_on channel=0 note=72 velocity=100 time=0
the msg is note_off channel=0 note=72 velocity=0 time=12
the msg is note_on channel=0 note=72 velocity=100 time=0
the msg is note_off channel=0 note=72 velocity=0 time=12
the msg is note_on channel=0 note=72 velocity=100 time=0
the msg is note_off channel=0 note=76 velocity=0 time=8
the msg is note_on channel=0 note=76 velocity=100 time=0
the msg is note_off channel=0 note=79 velocity=0 time=29
the msg is note_on channel=0 note=79 velocity=100 time=0
the msg is note_off channel=0 note=79 velocity=0 time=12
the msg is note_on channel=0 note=79 velocity=100 time=0
the msg is note_off channel=0 note=76 velocity=0 time=8
the msg is note_on channel=0 note=76 velocity=100 time=0
the msg is note_off channel=0 note=74 velocity=0 time=17
the msg is note_on channel=0 note=74 velocity=100 time=0
the msg is <meta message end_of_track time=51>
the msg is <meta message track_name name='Piano' time=0>
the msg is program_change channel=0 program=0 time=0
the msg is note_off channel=0 note=72 velocity=0 time=0
the msg is pitchwheel channel=0 pitch=0 time=0
the msg is program_change channel=0 program=0 time=0
the msg is <meta message set_tempo tempo=500000 time=0>
the msg is <meta message time_signature numerator=4 denominator=4 clocks_per_click=24 notated_32nd_notes_per_beat=8 time=0>
the msg is note_on channel=0 note=72 velocity=100 time=0
the msg is note_off channel=0 note=74 velocity=0 time=34
the msg is note_on channel=0 note=74 velocity=100 time=0
the msg is note_off channel=0 note=74 velocity=0 time=17
the msg is note_on channel=0 note=74 velocity=100 time=0
the msg is note_off channel=0 note=74 velocity=0 time=34
the msg is note_on channel=0 note=74 velocity=100 time=0
the msg is note_off channel=0 note=74 velocity=0 time=17
the msg is note_on channel=0 note=74 velocity=100 time=0
the msg is note_off channel=0 note=76 velocity=0 time=34
the msg is note_on channel=0 note=76 velocity=100 time=0
the msg is note_off channel=0 note=79 velocity=0 time=17
the msg is note_on channel=0 note=79 velocity=100 time=0
the msg is note_off channel=0 note=79 velocity=0 time=17
the msg is note_on channel=0 note=79 velocity=100 time=0
the msg is note_off channel=0 note=76 velocity=0 time=17
the msg is note_on channel=0 note=76 velocity=100 time=0
the msg is note_off channel=0 note=74 velocity=0 time=4
the msg is note_on channel=0 note=74 velocity=100 time=0
the msg is note_off channel=0 note=72 velocity=0 time=12
the msg is note_on channel=0 note=72 velocity=100 time=0
the msg is note_off channel=0 note=72 velocity=0 time=89
the msg is note_on channel=0 note=72 velocity=100 time=0
the msg is note_off channel=0 note=72 velocity=0 time=12
the msg is note_on channel=0 note=72 velocity=100 time=0
the msg is note_off channel=0 note=74 velocity=0 time=25
the msg is note_on channel=0 note=74 velocity=100 time=0
the msg is note_off channel=0 note=74 velocity=0 time=25
the msg is note_on channel=0 note=74 velocity=100 time=0
the msg is note_off channel=0 note=74 velocity=0 time=12
the msg is note_on channel=0 note=74 velocity=100 time=0
the msg is note_off channel=0 note=76 velocity=0 time=25
the msg is note_on channel=0 note=76 velocity=100 time=0
the msg is note_off channel=0 note=79 velocity=0 time=25
the msg is note_on channel=0 note=79 velocity=100 time=0
the msg is note_off channel=0 note=79 velocity=0 time=12
the msg is note_on channel=0 note=79 velocity=100 time=0
the msg is note_off channel=0 note=76 velocity=0 time=12
the msg is note_on channel=0 note=76 velocity=100 time=0
the msg is note_off channel=0 note=74 velocity=0 time=12
the msg is note_on channel=0 note=74 velocity=100 time=0
the msg is note_off channel=0 note=72 velocity=0 time=12
the msg is note_on channel=0 note=72 velocity=100 time=0
the msg is note_off channel=0 note=74 velocity=0 time=25
the msg is note_on channel=0 note=74 velocity=100 time=0
the msg is note_off channel=0 note=76 velocity=0 time=25
the msg is note_on channel=0 note=76 velocity=100 time=0
the msg is note_off channel=0 note=79 velocity=0 time=25
the msg is note_on channel=0 note=79 velocity=100 time=0
the msg is note_off channel=0 note=79 velocity=0 time=12
the msg is note_on channel=0 note=79 velocity=100 time=0
the msg is note_off channel=0 note=76 velocity=0 time=12
the msg is note_on channel=0 note=76 velocity=100 time=0
the msg is note_off channel=0 note=74 velocity=0 time=12
the msg is note_on channel=0 note=74 velocity=100 time=0
the msg is note_off channel=0 note=72 velocity=0 time=12
the msg is note_on channel=0 note=72 velocity=100 time=0
the msg is note_off channel=0 note=74 velocity=0 time=25
the msg is note_on channel=0 note=74 velocity=100 time=0
the msg is note_off channel=0 note=74 velocity=0 time=12
the msg is note_on channel=0 note=74 velocity=100 time=0
the msg is note_off channel=0 note=74 velocity=0 time=12
the msg is note_on channel=0 note=74 velocity=100 time=0
the msg is note_off channel=0 note=74 velocity=0 time=25
the msg is note_on channel=0 note=74 velocity=100 time=0
the msg is note_off channel=0 note=74 velocity=0 time=25
the msg is note_on channel=0 note=74 velocity=100 time=0
the msg is note_off channel=0 note=76 velocity=0 time=25
the msg is note_on channel=0 note=76 velocity=100 time=0
the msg is note_off channel=0 note=79 velocity=0 time=25
the msg is note_on channel=0 note=79 velocity=100 time=0
the msg is note_off channel=0 note=79 velocity=0 time=12
the msg is note_on channel=0 note=79 velocity=100 time=0
the msg is note_off channel=0 note=76 velocity=0 time=12
the msg is note_on channel=0 note=76 velocity=100 time=0
the msg is note_off channel=0 note=74 velocity=0 time=12
the msg is note_on channel=0 note=74 velocity=100 time=0
the msg is note_off channel=0 note=72 velocity=0 time=12
the msg is note_on channel=0 note=72 velocity=100 time=0
the msg is note_off channel=0 note=72 velocity=0 time=81
the msg is note_on channel=0 note=72 velocity=100 time=0
the msg is note_off channel=0 note=72 velocity=0 time=8
the msg is note_on channel=0 note=72 velocity=100 time=0
the msg is note_off channel=0 note=74 velocity=0 time=25
the msg is note_on channel=0 note=74 velocity=100 time=0
the msg is note_off channel=0 note=74 velocity=0 time=25
the msg is note_on channel=0 note=74 velocity=100 time=0
the msg is note_off channel=0 note=74 velocity=0 time=25
the msg is note_on channel=0 note=74 velocity=100 time=0
the msg is note_off channel=0 note=74 velocity=0 time=25
the msg is note_on channel=0 note=74 velocity=100 time=0
the msg is note_off channel=0 note=74 velocity=0 time=25
the msg is note_on channel=0 note=74 velocity=100 time=0
the msg is note_off channel=0 note=74 velocity=0 time=25
the msg is note_on channel=0 note=74 velocity=100 time=0
the msg is note_off channel=0 note=76 velocity=0 time=25
the msg is note_on channel=0 note=76 velocity=100 time=0
the msg is note_off channel=0 note=79 velocity=0 time=25
the msg is note_on channel=0 note=79 velocity=100 time=0
the msg is note_off channel=0 note=79 velocity=0 time=12
the msg is note_on channel=0 note=79 velocity=100 time=0
the msg is note_off channel=0 note=76 velocity=0 time=12
the msg is note_on channel=0 note=76 velocity=100 time=0
the msg is note_off channel=0 note=74 velocity=0 time=17
the msg is note_on channel=0 note=74 velocity=100 time=0
the msg is note_off channel=0 note=72 velocity=0 time=8
the msg is note_on channel=0 note=72 velocity=100 time=0
the msg is note_off channel=0 note=72 velocity=0 time=25
the msg is note_on channel=0 note=72 velocity=100 time=0
the msg is note_off channel=0 note=72 velocity=0 time=25
the msg is note_on channel=0 note=72 velocity=100 time=0
the msg is note_off channel=0 note=72 velocity=0 time=12
the msg is note_on channel=0 note=72 velocity=100 time=0
the msg is note_off channel=0 note=72 velocity=0 time=29
the msg is note_on channel=0 note=72 velocity=100 time=0
the msg is note_off channel=0 note=72 velocity=0 time=8
the msg is note_on channel=0 note=72 velocity=100 time=0
the msg is note_off channel=0 note=72 velocity=0 time=25
the msg is note_on channel=0 note=72 velocity=100 time=0
the msg is note_off channel=0 note=72 velocity=0 time=12
the msg is note_on channel=0 note=72 velocity=100 time=0
the msg is note_off channel=0 note=72 velocity=0 time=12
the msg is note_on channel=0 note=72 velocity=100 time=0
the msg is note_off channel=0 note=72 velocity=0 time=12
the msg is note_on channel=0 note=72 velocity=100 time=0
the msg is note_off channel=0 note=76 velocity=0 time=12
the msg is note_on channel=0 note=76 velocity=100 time=0
the msg is note_off channel=0 note=79 velocity=0 time=25
the msg is note_on channel=0 note=79 velocity=100 time=0
the msg is note_off channel=0 note=79 velocity=0 time=12
the msg is note_on channel=0 note=79 velocity=100 time=0
the msg is note_off channel=0 note=76 velocity=0 time=12
the msg is note_on channel=0 note=76 velocity=100 time=0
the msg is note_off channel=0 note=74 velocity=0 time=12
the msg is note_on channel=0 note=74 velocity=100 time=0
the msg is note_off channel=0 note=72 velocity=0 time=12
the msg is note_on channel=0 note=72 velocity=100 time=0
the msg is note_off channel=0 note=72 velocity=0 time=76
the msg is note_on channel=0 note=72 velocity=100 time=0
the msg is note_off channel=0 note=72 velocity=0 time=12
the msg is note_on channel=0 note=72 velocity=100 time=0
the msg is note_off channel=0 note=72 velocity=0 time=12
the msg is note_on channel=0 note=72 velocity=100 time=0
the msg is note_off channel=0 note=72 velocity=0 time=8
the msg is note_on channel=0 note=72 velocity=100 time=0
the msg is note_off channel=0 note=72 velocity=0 time=17
the msg is note_on channel=0 note=72 velocity=100 time=0
the msg is note_off channel=0 note=72 velocity=0 time=12
the msg is note_on channel=0 note=72 velocity=100 time=0
the msg is note_off channel=0 note=72 velocity=0 time=12
the msg is note_on channel=0 note=72 velocity=100 time=0
the msg is note_off channel=0 note=76 velocity=0 time=8
the msg is note_on channel=0 note=76 velocity=100 time=0
the msg is note_off channel=0 note=79 velocity=0 time=29
the msg is note_on channel=0 note=79 velocity=100 time=0
the msg is note_off channel=0 note=79 velocity=0 time=12
the msg is note_on channel=0 note=79 velocity=100 time=0
the msg is note_off channel=0 note=76 velocity=0 time=8
the msg is note_on channel=0 note=76 velocity=100 time=0
the msg is note_off channel=0 note=74 velocity=0 time=17
the msg is note_on channel=0 note=74 velocity=100 time=0
the msg is <meta message end_of_track time=51>
the msg is <meta message track_name name='Piano' time=0>
the msg is program_change channel=0 program=0 time=0
the msg is note_off channel=0 note=72 velocity=0 time=0
the msg is pitchwheel channel=0 pitch=0 time=0
the msg is program_change channel=0 program=0 time=0
the msg is <meta message set_tempo tempo=500000 time=0>
the msg is <meta message time_signature numerator=4 denominator=4 clocks_per_click=24 notated_32nd_notes_per_beat=8 time=0>
the msg is note_on channel=0 note=72 velocity=100 time=0
the msg is note_off channel=0 note=74 velocity=0 time=34
the msg is note_on channel=0 note=74 velocity=100 time=0
the msg is note_off channel=0 note=74 velocity=0 time=17
the msg is note_on channel=0 note=74 velocity=100 time=0
the msg is note_off channel=0 note=74 velocity=0 time=34
the msg is note_on channel=0 note=74 velocity=100 time=0
the msg is note_off channel=0 note=74 velocity=0 time=17
the msg is note_on channel=0 note=74 velocity=100 time=0
the msg is note_off channel=0 note=76 velocity=0 time=34
the msg is note_on channel=0 note=76 velocity=100 time=0
the msg is note_off channel=0 note=79 velocity=0 time=17
the msg is note_on channel=0 note=79 velocity=100 time=0
the msg is note_off channel=0 note=79 velocity=0 time=17
the msg is note_on channel=0 note=79 velocity=100 time=0
the msg is note_off channel=0 note=76 velocity=0 time=17
the msg is note_on channel=0 note=76 velocity=100 time=0
the msg is note_off channel=0 note=74 velocity=0 time=4
the msg is note_on channel=0 note=74 velocity=100 time=0
the msg is note_off channel=0 note=72 velocity=0 time=12
the msg is note_on channel=0 note=72 velocity=100 time=0
the msg is note_off channel=0 note=72 velocity=0 time=89
the msg is note_on channel=0 note=72 velocity=100 time=0
the msg is note_off channel=0 note=72 velocity=0 time=12
the msg is note_on channel=0 note=72 velocity=100 time=0
the msg is note_off channel=0 note=74 velocity=0 time=25
the msg is note_on channel=0 note=74 velocity=100 time=0
the msg is note_off channel=0 note=74 velocity=0 time=25
the msg is note_on channel=0 note=74 velocity=100 time=0
the msg is note_off channel=0 note=74 velocity=0 time=12
the msg is note_on channel=0 note=74 velocity=100 time=0
the msg is note_off channel=0 note=76 velocity=0 time=25
the msg is note_on channel=0 note=76 velocity=100 time=0
the msg is note_off channel=0 note=79 velocity=0 time=25
the msg is note_on channel=0 note=79 velocity=100 time=0
the msg is note_off channel=0 note=79 velocity=0 time=12
the msg is note_on channel=0 note=79 velocity=100 time=0
the msg is note_off channel=0 note=76 velocity=0 time=12
the msg is note_on channel=0 note=76 velocity=100 time=0
the msg is note_off channel=0 note=74 velocity=0 time=12
the msg is note_on channel=0 note=74 velocity=100 time=0
the msg is note_off channel=0 note=72 velocity=0 time=12
the msg is note_on channel=0 note=72 velocity=100 time=0
the msg is note_off channel=0 note=74 velocity=0 time=25
the msg is note_on channel=0 note=74 velocity=100 time=0
the msg is note_off channel=0 note=76 velocity=0 time=25
the msg is note_on channel=0 note=76 velocity=100 time=0
the msg is note_off channel=0 note=79 velocity=0 time=25
the msg is note_on channel=0 note=79 velocity=100 time=0
the msg is note_off channel=0 note=79 velocity=0 time=12
the msg is note_on channel=0 note=79 velocity=100 time=0
the msg is note_off channel=0 note=76 velocity=0 time=12
the msg is note_on channel=0 note=76 velocity=100 time=0
the msg is note_off channel=0 note=74 velocity=0 time=12
the msg is note_on channel=0 note=74 velocity=100 time=0
the msg is note_off channel=0 note=72 velocity=0 time=12
the msg is note_on channel=0 note=72 velocity=100 time=0
the msg is note_off channel=0 note=74 velocity=0 time=25
the msg is note_on channel=0 note=74 velocity=100 time=0
the msg is note_off channel=0 note=74 velocity=0 time=12
the msg is note_on channel=0 note=74 velocity=100 time=0
the msg is note_off channel=0 note=74 velocity=0 time=12
the msg is note_on channel=0 note=74 velocity=100 time=0
the msg is note_off channel=0 note=74 velocity=0 time=25
the msg is note_on channel=0 note=74 velocity=100 time=0
the msg is note_off channel=0 note=74 velocity=0 time=25
the msg is note_on channel=0 note=74 velocity=100 time=0
the msg is note_off channel=0 note=76 velocity=0 time=25
the msg is note_on channel=0 note=76 velocity=100 time=0
the msg is note_off channel=0 note=79 velocity=0 time=25
the msg is note_on channel=0 note=79 velocity=100 time=0
the msg is note_off channel=0 note=79 velocity=0 time=12
the msg is note_on channel=0 note=79 velocity=100 time=0
the msg is note_off channel=0 note=76 velocity=0 time=12
the msg is note_on channel=0 note=76 velocity=100 time=0
the msg is note_off channel=0 note=74 velocity=0 time=12
the msg is note_on channel=0 note=74 velocity=100 time=0
the msg is note_off channel=0 note=72 velocity=0 time=12
the msg is note_on channel=0 note=72 velocity=100 time=0
the msg is note_off channel=0 note=72 velocity=0 time=81
the msg is note_on channel=0 note=72 velocity=100 time=0
the msg is note_off channel=0 note=72 velocity=0 time=8
the msg is note_on channel=0 note=72 velocity=100 time=0
the msg is note_off channel=0 note=74 velocity=0 time=25
the msg is note_on channel=0 note=74 velocity=100 time=0
the msg is note_off channel=0 note=74 velocity=0 time=25
the msg is note_on channel=0 note=74 velocity=100 time=0
the msg is note_off channel=0 note=74 velocity=0 time=25
the msg is note_on channel=0 note=74 velocity=100 time=0
the msg is note_off channel=0 note=74 velocity=0 time=25
the msg is note_on channel=0 note=74 velocity=100 time=0
the msg is note_off channel=0 note=74 velocity=0 time=25
the msg is note_on channel=0 note=74 velocity=100 time=0
the msg is note_off channel=0 note=74 velocity=0 time=25
the msg is note_on channel=0 note=74 velocity=100 time=0
the msg is note_off channel=0 note=76 velocity=0 time=25
the msg is note_on channel=0 note=76 velocity=100 time=0
the msg is note_off channel=0 note=79 velocity=0 time=25
the msg is note_on channel=0 note=79 velocity=100 time=0
the msg is note_off channel=0 note=79 velocity=0 time=12
the msg is note_on channel=0 note=79 velocity=100 time=0
the msg is note_off channel=0 note=76 velocity=0 time=12
the msg is note_on channel=0 note=76 velocity=100 time=0
the msg is note_off channel=0 note=74 velocity=0 time=17
the msg is note_on channel=0 note=74 velocity=100 time=0
the msg is note_off channel=0 note=72 velocity=0 time=8
the msg is note_on channel=0 note=72 velocity=100 time=0
the msg is note_off channel=0 note=72 velocity=0 time=25
the msg is note_on channel=0 note=72 velocity=100 time=0
the msg is note_off channel=0 note=72 velocity=0 time=25
the msg is note_on channel=0 note=72 velocity=100 time=0
the msg is note_off channel=0 note=72 velocity=0 time=12
the msg is note_on channel=0 note=72 velocity=100 time=0
the msg is note_off channel=0 note=72 velocity=0 time=29
the msg is note_on channel=0 note=72 velocity=100 time=0
the msg is note_off channel=0 note=72 velocity=0 time=8
the msg is note_on channel=0 note=72 velocity=100 time=0
the msg is note_off channel=0 note=72 velocity=0 time=25
the msg is note_on channel=0 note=72 velocity=100 time=0
the msg is note_off channel=0 note=72 velocity=0 time=12
the msg is note_on channel=0 note=72 velocity=100 time=0
the msg is note_off channel=0 note=72 velocity=0 time=12
the msg is note_on channel=0 note=72 velocity=100 time=0
the msg is note_off channel=0 note=72 velocity=0 time=12
the msg is note_on channel=0 note=72 velocity=100 time=0
the msg is note_off channel=0 note=76 velocity=0 time=12
the msg is note_on channel=0 note=76 velocity=100 time=0
the msg is note_off channel=0 note=79 velocity=0 time=25
the msg is note_on channel=0 note=79 velocity=100 time=0
the msg is note_off channel=0 note=79 velocity=0 time=12
the msg is note_on channel=0 note=79 velocity=100 time=0
the msg is note_off channel=0 note=76 velocity=0 time=12
the msg is note_on channel=0 note=76 velocity=100 time=0
the msg is note_off channel=0 note=74 velocity=0 time=12
the msg is note_on channel=0 note=74 velocity=100 time=0
the msg is note_off channel=0 note=72 velocity=0 time=12
the msg is note_on channel=0 note=72 velocity=100 time=0
the msg is note_off channel=0 note=72 velocity=0 time=76
the msg is note_on channel=0 note=72 velocity=100 time=0
the msg is note_off channel=0 note=72 velocity=0 time=12
the msg is note_on channel=0 note=72 velocity=100 time=0
the msg is note_off channel=0 note=72 velocity=0 time=12
the msg is note_on channel=0 note=72 velocity=100 time=0
the msg is note_off channel=0 note=72 velocity=0 time=8
the msg is note_on channel=0 note=72 velocity=100 time=0
the msg is note_off channel=0 note=72 velocity=0 time=17
the msg is note_on channel=0 note=72 velocity=100 time=0
the msg is note_off channel=0 note=72 velocity=0 time=12
the msg is note_on channel=0 note=72 velocity=100 time=0
the msg is note_off channel=0 note=72 velocity=0 time=12
the msg is note_on channel=0 note=72 velocity=100 time=0
the msg is note_off channel=0 note=76 velocity=0 time=8
the msg is note_on channel=0 note=76 velocity=100 time=0
the msg is note_off channel=0 note=79 velocity=0 time=29
the msg is note_on channel=0 note=79 velocity=100 time=0
the msg is note_off channel=0 note=79 velocity=0 time=12
the msg is note_on channel=0 note=79 velocity=100 time=0
the msg is note_off channel=0 note=76 velocity=0 time=8
the msg is note_on channel=0 note=76 velocity=100 time=0
the msg is note_off channel=0 note=74 velocity=0 time=17
the msg is note_on channel=0 note=74 velocity=100 time=0
the msg is <meta message end_of_track time=51>
the msg is <meta message track_name name='Piano' time=0>
the msg is program_change channel=0 program=0 time=0
the msg is note_off channel=0 note=72 velocity=0 time=0
the msg is pitchwheel channel=0 pitch=0 time=0
the msg is program_change channel=0 program=0 time=0
the msg is <meta message set_tempo tempo=500000 time=0>
the msg is <meta message time_signature numerator=4 denominator=4 clocks_per_click=24 notated_32nd_notes_per_beat=8 time=0>
the msg is note_on channel=0 note=72 velocity=100 time=0
the msg is note_off channel=0 note=74 velocity=0 time=34
the msg is note_on channel=0 note=74 velocity=100 time=0
the msg is note_off channel=0 note=74 velocity=0 time=17
the msg is note_on channel=0 note=74 velocity=100 time=0
the msg is note_off channel=0 note=74 velocity=0 time=34
the msg is note_on channel=0 note=74 velocity=100 time=0
the msg is note_off channel=0 note=74 velocity=0 time=17
the msg is note_on channel=0 note=74 velocity=100 time=0
the msg is note_off channel=0 note=76 velocity=0 time=34
the msg is note_on channel=0 note=76 velocity=100 time=0
the msg is note_off channel=0 note=79 velocity=0 time=17
the msg is note_on channel=0 note=79 velocity=100 time=0
the msg is note_off channel=0 note=79 velocity=0 time=17
the msg is note_on channel=0 note=79 velocity=100 time=0
the msg is note_off channel=0 note=76 velocity=0 time=17
the msg is note_on channel=0 note=76 velocity=100 time=0
the msg is note_off channel=0 note=74 velocity=0 time=4
the msg is note_on channel=0 note=74 velocity=100 time=0
the msg is note_off channel=0 note=72 velocity=0 time=12
the msg is note_on channel=0 note=72 velocity=100 time=0
the msg is note_off channel=0 note=72 velocity=0 time=89
the msg is note_on channel=0 note=72 velocity=100 time=0
the msg is note_off channel=0 note=72 velocity=0 time=12
the msg is note_on channel=0 note=72 velocity=100 time=0
the msg is note_off channel=0 note=74 velocity=0 time=25
the msg is note_on channel=0 note=74 velocity=100 time=0
the msg is note_off channel=0 note=74 velocity=0 time=25
the msg is note_on channel=0 note=74 velocity=100 time=0
the msg is note_off channel=0 note=74 velocity=0 time=12
the msg is note_on channel=0 note=74 velocity=100 time=0
the msg is note_off channel=0 note=76 velocity=0 time=25
the msg is note_on channel=0 note=76 velocity=100 time=0
the msg is note_off channel=0 note=79 velocity=0 time=25
the msg is note_on channel=0 note=79 velocity=100 time=0
the msg is note_off channel=0 note=79 velocity=0 time=12
the msg is note_on channel=0 note=79 velocity=100 time=0
the msg is note_off channel=0 note=76 velocity=0 time=12
the msg is note_on channel=0 note=76 velocity=100 time=0
the msg is note_off channel=0 note=74 velocity=0 time=12
the msg is note_on channel=0 note=74 velocity=100 time=0
the msg is note_off channel=0 note=72 velocity=0 time=12
the msg is note_on channel=0 note=72 velocity=100 time=0
the msg is note_off channel=0 note=74 velocity=0 time=25
the msg is note_on channel=0 note=74 velocity=100 time=0
the msg is note_off channel=0 note=76 velocity=0 time=25
the msg is note_on channel=0 note=76 velocity=100 time=0
the msg is note_off channel=0 note=79 velocity=0 time=25
the msg is note_on channel=0 note=79 velocity=100 time=0
the msg is note_off channel=0 note=79 velocity=0 time=12
the msg is note_on channel=0 note=79 velocity=100 time=0
the msg is note_off channel=0 note=76 velocity=0 time=12
the msg is note_on channel=0 note=76 velocity=100 time=0
the msg is note_off channel=0 note=74 velocity=0 time=12
the msg is note_on channel=0 note=74 velocity=100 time=0
the msg is note_off channel=0 note=72 velocity=0 time=12
the msg is note_on channel=0 note=72 velocity=100 time=0
the msg is note_off channel=0 note=74 velocity=0 time=25
the msg is note_on channel=0 note=74 velocity=100 time=0
the msg is note_off channel=0 note=74 velocity=0 time=12
the msg is note_on channel=0 note=74 velocity=100 time=0
the msg is note_off channel=0 note=74 velocity=0 time=12
the msg is note_on channel=0 note=74 velocity=100 time=0
the msg is note_off channel=0 note=74 velocity=0 time=25
the msg is note_on channel=0 note=74 velocity=100 time=0
the msg is note_off channel=0 note=74 velocity=0 time=25
the msg is note_on channel=0 note=74 velocity=100 time=0
the msg is note_off channel=0 note=76 velocity=0 time=25
the msg is note_on channel=0 note=76 velocity=100 time=0
the msg is note_off channel=0 note=79 velocity=0 time=25
the msg is note_on channel=0 note=79 velocity=100 time=0
the msg is note_off channel=0 note=79 velocity=0 time=12
the msg is note_on channel=0 note=79 velocity=100 time=0
the msg is note_off channel=0 note=76 velocity=0 time=12
the msg is note_on channel=0 note=76 velocity=100 time=0
the msg is note_off channel=0 note=74 velocity=0 time=12
the msg is note_on channel=0 note=74 velocity=100 time=0
the msg is note_off channel=0 note=72 velocity=0 time=12
the msg is note_on channel=0 note=72 velocity=100 time=0
the msg is note_off channel=0 note=72 velocity=0 time=81
the msg is note_on channel=0 note=72 velocity=100 time=0
the msg is note_off channel=0 note=72 velocity=0 time=8
the msg is note_on channel=0 note=72 velocity=100 time=0
the msg is note_off channel=0 note=74 velocity=0 time=25
the msg is note_on channel=0 note=74 velocity=100 time=0
the msg is note_off channel=0 note=74 velocity=0 time=25
the msg is note_on channel=0 note=74 velocity=100 time=0
the msg is note_off channel=0 note=74 velocity=0 time=25
the msg is note_on channel=0 note=74 velocity=100 time=0
the msg is note_off channel=0 note=74 velocity=0 time=25
the msg is note_on channel=0 note=74 velocity=100 time=0
the msg is note_off channel=0 note=74 velocity=0 time=25
the msg is note_on channel=0 note=74 velocity=100 time=0
the msg is note_off channel=0 note=74 velocity=0 time=25
the msg is note_on channel=0 note=74 velocity=100 time=0
the msg is note_off channel=0 note=76 velocity=0 time=25
the msg is note_on channel=0 note=76 velocity=100 time=0
the msg is note_off channel=0 note=79 velocity=0 time=25
the msg is note_on channel=0 note=79 velocity=100 time=0
the msg is note_off channel=0 note=79 velocity=0 time=12
the msg is note_on channel=0 note=79 velocity=100 time=0
the msg is note_off channel=0 note=76 velocity=0 time=12
the msg is note_on channel=0 note=76 velocity=100 time=0
the msg is note_off channel=0 note=74 velocity=0 time=17
the msg is note_on channel=0 note=74 velocity=100 time=0
the msg is note_off channel=0 note=72 velocity=0 time=8
the msg is note_on channel=0 note=72 velocity=100 time=0
the msg is note_off channel=0 note=72 velocity=0 time=25
the msg is note_on channel=0 note=72 velocity=100 time=0
the msg is note_off channel=0 note=72 velocity=0 time=25
the msg is note_on channel=0 note=72 velocity=100 time=0
the msg is note_off channel=0 note=72 velocity=0 time=12
the msg is note_on channel=0 note=72 velocity=100 time=0
the msg is note_off channel=0 note=72 velocity=0 time=29
the msg is note_on channel=0 note=72 velocity=100 time=0
the msg is note_off channel=0 note=72 velocity=0 time=8
the msg is note_on channel=0 note=72 velocity=100 time=0
the msg is note_off channel=0 note=72 velocity=0 time=25
the msg is note_on channel=0 note=72 velocity=100 time=0
the msg is note_off channel=0 note=72 velocity=0 time=12
the msg is note_on channel=0 note=72 velocity=100 time=0
the msg is note_off channel=0 note=72 velocity=0 time=12
the msg is note_on channel=0 note=72 velocity=100 time=0
the msg is note_off channel=0 note=72 velocity=0 time=12
the msg is note_on channel=0 note=72 velocity=100 time=0
the msg is note_off channel=0 note=76 velocity=0 time=12
the msg is note_on channel=0 note=76 velocity=100 time=0
the msg is note_off channel=0 note=79 velocity=0 time=25
the msg is note_on channel=0 note=79 velocity=100 time=0
the msg is note_off channel=0 note=79 velocity=0 time=12
the msg is note_on channel=0 note=79 velocity=100 time=0
the msg is note_off channel=0 note=76 velocity=0 time=12
the msg is note_on channel=0 note=76 velocity=100 time=0
the msg is note_off channel=0 note=74 velocity=0 time=12
the msg is note_on channel=0 note=74 velocity=100 time=0
the msg is note_off channel=0 note=72 velocity=0 time=12
the msg is note_on channel=0 note=72 velocity=100 time=0
the msg is note_off channel=0 note=72 velocity=0 time=76
the msg is note_on channel=0 note=72 velocity=100 time=0
the msg is note_off channel=0 note=72 velocity=0 time=12
the msg is note_on channel=0 note=72 velocity=100 time=0
the msg is note_off channel=0 note=72 velocity=0 time=12
the msg is note_on channel=0 note=72 velocity=100 time=0
the msg is note_off channel=0 note=72 velocity=0 time=8
the msg is note_on channel=0 note=72 velocity=100 time=0
the msg is note_off channel=0 note=72 velocity=0 time=17
the msg is note_on channel=0 note=72 velocity=100 time=0
the msg is note_off channel=0 note=72 velocity=0 time=12
the msg is note_on channel=0 note=72 velocity=100 time=0
the msg is note_off channel=0 note=72 velocity=0 time=12
the msg is note_on channel=0 note=72 velocity=100 time=0
the msg is note_off channel=0 note=76 velocity=0 time=8
the msg is note_on channel=0 note=76 velocity=100 time=0
the msg is note_off channel=0 note=79 velocity=0 time=29
the msg is note_on channel=0 note=79 velocity=100 time=0
the msg is note_off channel=0 note=79 velocity=0 time=12
the msg is note_on channel=0 note=79 velocity=100 time=0
the msg is note_off channel=0 note=76 velocity=0 time=8
the msg is note_on channel=0 note=76 velocity=100 time=0
the msg is note_off channel=0 note=74 velocity=0 time=17
the msg is note_on channel=0 note=74 velocity=100 time=0
the msg is <meta message end_of_track time=51>
the msg is <meta message track_name name='Piano' time=0>
the msg is program_change channel=0 program=0 time=0
the msg is note_off channel=0 note=72 velocity=0 time=0
the msg is pitchwheel channel=0 pitch=0 time=0
the msg is program_change channel=0 program=0 time=0
the msg is <meta message set_tempo tempo=500000 time=0>
the msg is <meta message time_signature numerator=4 denominator=4 clocks_per_click=24 notated_32nd_notes_per_beat=8 time=0>
the msg is note_on channel=0 note=72 velocity=100 time=0
the msg is note_off channel=0 note=74 velocity=0 time=34
the msg is note_on channel=0 note=74 velocity=100 time=0
the msg is note_off channel=0 note=74 velocity=0 time=17
the msg is note_on channel=0 note=74 velocity=100 time=0
the msg is note_off channel=0 note=74 velocity=0 time=34
the msg is note_on channel=0 note=74 velocity=100 time=0
the msg is note_off channel=0 note=74 velocity=0 time=17
the msg is note_on channel=0 note=74 velocity=100 time=0
the msg is note_off channel=0 note=76 velocity=0 time=34
the msg is note_on channel=0 note=76 velocity=100 time=0
the msg is note_off channel=0 note=79 velocity=0 time=17
the msg is note_on channel=0 note=79 velocity=100 time=0
the msg is note_off channel=0 note=79 velocity=0 time=17
the msg is note_on channel=0 note=79 velocity=100 time=0
the msg is note_off channel=0 note=76 velocity=0 time=17
the msg is note_on channel=0 note=76 velocity=100 time=0
the msg is note_off channel=0 note=74 velocity=0 time=4
the msg is note_on channel=0 note=74 velocity=100 time=0
the msg is note_off channel=0 note=72 velocity=0 time=12
the msg is note_on channel=0 note=72 velocity=100 time=0
the msg is note_off channel=0 note=72 velocity=0 time=89
the msg is note_on channel=0 note=72 velocity=100 time=0
the msg is note_off channel=0 note=72 velocity=0 time=12
the msg is note_on channel=0 note=72 velocity=100 time=0
the msg is note_off channel=0 note=74 velocity=0 time=25
the msg is note_on channel=0 note=74 velocity=100 time=0
the msg is note_off channel=0 note=74 velocity=0 time=25
the msg is note_on channel=0 note=74 velocity=100 time=0
the msg is note_off channel=0 note=74 velocity=0 time=12
the msg is note_on channel=0 note=74 velocity=100 time=0
the msg is note_off channel=0 note=76 velocity=0 time=25
the msg is note_on channel=0 note=76 velocity=100 time=0
the msg is note_off channel=0 note=79 velocity=0 time=25
the msg is note_on channel=0 note=79 velocity=100 time=0
the msg is note_off channel=0 note=79 velocity=0 time=12
the msg is note_on channel=0 note=79 velocity=100 time=0
the msg is note_off channel=0 note=76 velocity=0 time=12
the msg is note_on channel=0 note=76 velocity=100 time=0
the msg is note_off channel=0 note=74 velocity=0 time=12
the msg is note_on channel=0 note=74 velocity=100 time=0
the msg is note_off channel=0 note=72 velocity=0 time=12
the msg is note_on channel=0 note=72 velocity=100 time=0
the msg is note_off channel=0 note=74 velocity=0 time=25
the msg is note_on channel=0 note=74 velocity=100 time=0
the msg is note_off channel=0 note=76 velocity=0 time=25
the msg is note_on channel=0 note=76 velocity=100 time=0
the msg is note_off channel=0 note=79 velocity=0 time=25
the msg is note_on channel=0 note=79 velocity=100 time=0
the msg is note_off channel=0 note=79 velocity=0 time=12
the msg is note_on channel=0 note=79 velocity=100 time=0
the msg is note_off channel=0 note=76 velocity=0 time=12
the msg is note_on channel=0 note=76 velocity=100 time=0
the msg is note_off channel=0 note=74 velocity=0 time=12
the msg is note_on channel=0 note=74 velocity=100 time=0
the msg is note_off channel=0 note=72 velocity=0 time=12
the msg is note_on channel=0 note=72 velocity=100 time=0
the msg is note_off channel=0 note=74 velocity=0 time=25
the msg is note_on channel=0 note=74 velocity=100 time=0
the msg is note_off channel=0 note=74 velocity=0 time=12
the msg is note_on channel=0 note=74 velocity=100 time=0
the msg is note_off channel=0 note=74 velocity=0 time=12
the msg is note_on channel=0 note=74 velocity=100 time=0
the msg is note_off channel=0 note=74 velocity=0 time=25
the msg is note_on channel=0 note=74 velocity=100 time=0
the msg is note_off channel=0 note=74 velocity=0 time=25
the msg is note_on channel=0 note=74 velocity=100 time=0
the msg is note_off channel=0 note=76 velocity=0 time=25
the msg is note_on channel=0 note=76 velocity=100 time=0
the msg is note_off channel=0 note=79 velocity=0 time=25
the msg is note_on channel=0 note=79 velocity=100 time=0
the msg is note_off channel=0 note=79 velocity=0 time=12
the msg is note_on channel=0 note=79 velocity=100 time=0
the msg is note_off channel=0 note=76 velocity=0 time=12
the msg is note_on channel=0 note=76 velocity=100 time=0
the msg is note_off channel=0 note=74 velocity=0 time=12
the msg is note_on channel=0 note=74 velocity=100 time=0
the msg is note_off channel=0 note=72 velocity=0 time=12
the msg is note_on channel=0 note=72 velocity=100 time=0
the msg is note_off channel=0 note=72 velocity=0 time=81
the msg is note_on channel=0 note=72 velocity=100 time=0
the msg is note_off channel=0 note=72 velocity=0 time=8
the msg is note_on channel=0 note=72 velocity=100 time=0
the msg is note_off channel=0 note=74 velocity=0 time=25
the msg is note_on channel=0 note=74 velocity=100 time=0
the msg is note_off channel=0 note=74 velocity=0 time=25
the msg is note_on channel=0 note=74 velocity=100 time=0
the msg is note_off channel=0 note=74 velocity=0 time=25
the msg is note_on channel=0 note=74 velocity=100 time=0
the msg is note_off channel=0 note=74 velocity=0 time=25
the msg is note_on channel=0 note=74 velocity=100 time=0
the msg is note_off channel=0 note=74 velocity=0 time=25
the msg is note_on channel=0 note=74 velocity=100 time=0
the msg is note_off channel=0 note=74 velocity=0 time=25
the msg is note_on channel=0 note=74 velocity=100 time=0
the msg is note_off channel=0 note=76 velocity=0 time=25
the msg is note_on channel=0 note=76 velocity=100 time=0
the msg is note_off channel=0 note=79 velocity=0 time=25
the msg is note_on channel=0 note=79 velocity=100 time=0
the msg is note_off channel=0 note=79 velocity=0 time=12
the msg is note_on channel=0 note=79 velocity=100 time=0
the msg is note_off channel=0 note=76 velocity=0 time=12
the msg is note_on channel=0 note=76 velocity=100 time=0
the msg is note_off channel=0 note=74 velocity=0 time=17
the msg is note_on channel=0 note=74 velocity=100 time=0
the msg is note_off channel=0 note=72 velocity=0 time=8
the msg is note_on channel=0 note=72 velocity=100 time=0
the msg is note_off channel=0 note=72 velocity=0 time=25
the msg is note_on channel=0 note=72 velocity=100 time=0
the msg is note_off channel=0 note=72 velocity=0 time=25
the msg is note_on channel=0 note=72 velocity=100 time=0
the msg is note_off channel=0 note=72 velocity=0 time=12
the msg is note_on channel=0 note=72 velocity=100 time=0
the msg is note_off channel=0 note=72 velocity=0 time=29
the msg is note_on channel=0 note=72 velocity=100 time=0
the msg is note_off channel=0 note=72 velocity=0 time=8
the msg is note_on channel=0 note=72 velocity=100 time=0
the msg is note_off channel=0 note=72 velocity=0 time=25
the msg is note_on channel=0 note=72 velocity=100 time=0
the msg is note_off channel=0 note=72 velocity=0 time=12
the msg is note_on channel=0 note=72 velocity=100 time=0
the msg is note_off channel=0 note=72 velocity=0 time=12
the msg is note_on channel=0 note=72 velocity=100 time=0
the msg is note_off channel=0 note=72 velocity=0 time=12
the msg is note_on channel=0 note=72 velocity=100 time=0
the msg is note_off channel=0 note=76 velocity=0 time=12
the msg is note_on channel=0 note=76 velocity=100 time=0
the msg is note_off channel=0 note=79 velocity=0 time=25
the msg is note_on channel=0 note=79 velocity=100 time=0
the msg is note_off channel=0 note=79 velocity=0 time=12
the msg is note_on channel=0 note=79 velocity=100 time=0
the msg is note_off channel=0 note=76 velocity=0 time=12
the msg is note_on channel=0 note=76 velocity=100 time=0
the msg is note_off channel=0 note=74 velocity=0 time=12
the msg is note_on channel=0 note=74 velocity=100 time=0
the msg is note_off channel=0 note=72 velocity=0 time=12
the msg is note_on channel=0 note=72 velocity=100 time=0
the msg is note_off channel=0 note=72 velocity=0 time=76
the msg is note_on channel=0 note=72 velocity=100 time=0
the msg is note_off channel=0 note=72 velocity=0 time=12
the msg is note_on channel=0 note=72 velocity=100 time=0
the msg is note_off channel=0 note=72 velocity=0 time=12
the msg is note_on channel=0 note=72 velocity=100 time=0
the msg is note_off channel=0 note=72 velocity=0 time=8
the msg is note_on channel=0 note=72 velocity=100 time=0
the msg is note_off channel=0 note=72 velocity=0 time=17
the msg is note_on channel=0 note=72 velocity=100 time=0
the msg is note_off channel=0 note=72 velocity=0 time=12
the msg is note_on channel=0 note=72 velocity=100 time=0
the msg is note_off channel=0 note=72 velocity=0 time=12
the msg is note_on channel=0 note=72 velocity=100 time=0
the msg is note_off channel=0 note=76 velocity=0 time=8
the msg is note_on channel=0 note=76 velocity=100 time=0
the msg is note_off channel=0 note=79 velocity=0 time=29
the msg is note_on channel=0 note=79 velocity=100 time=0
the msg is note_off channel=0 note=79 velocity=0 time=12
the msg is note_on channel=0 note=79 velocity=100 time=0
the msg is note_off channel=0 note=76 velocity=0 time=8
the msg is note_on channel=0 note=76 velocity=100 time=0
the msg is note_off channel=0 note=74 velocity=0 time=17
the msg is note_on channel=0 note=74 velocity=100 time=0
the msg is <meta message end_of_track time=51>
the msg is <meta message track_name name='Piano' time=0>
the msg is program_change channel=0 program=0 time=0
the msg is note_off channel=0 note=72 velocity=0 time=0
the msg is pitchwheel channel=0 pitch=0 time=0
the msg is program_change channel=0 program=0 time=0
the msg is <meta message set_tempo tempo=500000 time=0>
the msg is <meta message time_signature numerator=4 denominator=4 clocks_per_click=24 notated_32nd_notes_per_beat=8 time=0>
the msg is note_on channel=0 note=72 velocity=100 time=0
the msg is note_off channel=0 note=74 velocity=0 time=34
the msg is note_on channel=0 note=74 velocity=100 time=0
the msg is note_off channel=0 note=74 velocity=0 time=17
the msg is note_on channel=0 note=74 velocity=100 time=0
the msg is note_off channel=0 note=74 velocity=0 time=34
the msg is note_on channel=0 note=74 velocity=100 time=0
the msg is note_off channel=0 note=74 velocity=0 time=17
the msg is note_on channel=0 note=74 velocity=100 time=0
the msg is note_off channel=0 note=76 velocity=0 time=34
the msg is note_on channel=0 note=76 velocity=100 time=0
the msg is note_off channel=0 note=79 velocity=0 time=17
the msg is note_on channel=0 note=79 velocity=100 time=0
the msg is note_off channel=0 note=79 velocity=0 time=17
the msg is note_on channel=0 note=79 velocity=100 time=0
the msg is note_off channel=0 note=76 velocity=0 time=17
the msg is note_on channel=0 note=76 velocity=100 time=0
the msg is note_off channel=0 note=74 velocity=0 time=4
the msg is note_on channel=0 note=74 velocity=100 time=0
the msg is note_off channel=0 note=72 velocity=0 time=12
the msg is note_on channel=0 note=72 velocity=100 time=0
the msg is note_off channel=0 note=72 velocity=0 time=89
the msg is note_on channel=0 note=72 velocity=100 time=0
the msg is note_off channel=0 note=72 velocity=0 time=12
the msg is note_on channel=0 note=72 velocity=100 time=0
the msg is note_off channel=0 note=74 velocity=0 time=25
the msg is note_on channel=0 note=74 velocity=100 time=0
the msg is note_off channel=0 note=74 velocity=0 time=25
the msg is note_on channel=0 note=74 velocity=100 time=0
the msg is note_off channel=0 note=74 velocity=0 time=12
the msg is note_on channel=0 note=74 velocity=100 time=0
the msg is note_off channel=0 note=76 velocity=0 time=25
the msg is note_on channel=0 note=76 velocity=100 time=0
the msg is note_off channel=0 note=79 velocity=0 time=25
the msg is note_on channel=0 note=79 velocity=100 time=0
the msg is note_off channel=0 note=79 velocity=0 time=12
the msg is note_on channel=0 note=79 velocity=100 time=0
the msg is note_off channel=0 note=76 velocity=0 time=12
the msg is note_on channel=0 note=76 velocity=100 time=0
the msg is note_off channel=0 note=74 velocity=0 time=12
the msg is note_on channel=0 note=74 velocity=100 time=0
the msg is note_off channel=0 note=72 velocity=0 time=12
the msg is note_on channel=0 note=72 velocity=100 time=0
the msg is note_off channel=0 note=74 velocity=0 time=25
the msg is note_on channel=0 note=74 velocity=100 time=0
the msg is note_off channel=0 note=76 velocity=0 time=25
the msg is note_on channel=0 note=76 velocity=100 time=0
the msg is note_off channel=0 note=79 velocity=0 time=25
the msg is note_on channel=0 note=79 velocity=100 time=0
the msg is note_off channel=0 note=79 velocity=0 time=12
the msg is note_on channel=0 note=79 velocity=100 time=0
the msg is note_off channel=0 note=76 velocity=0 time=12
the msg is note_on channel=0 note=76 velocity=100 time=0
the msg is note_off channel=0 note=74 velocity=0 time=12
the msg is note_on channel=0 note=74 velocity=100 time=0
the msg is note_off channel=0 note=72 velocity=0 time=12
the msg is note_on channel=0 note=72 velocity=100 time=0
the msg is note_off channel=0 note=74 velocity=0 time=25
the msg is note_on channel=0 note=74 velocity=100 time=0
the msg is note_off channel=0 note=74 velocity=0 time=12
the msg is note_on channel=0 note=74 velocity=100 time=0
the msg is note_off channel=0 note=74 velocity=0 time=12
the msg is note_on channel=0 note=74 velocity=100 time=0
the msg is note_off channel=0 note=74 velocity=0 time=25
the msg is note_on channel=0 note=74 velocity=100 time=0
the msg is note_off channel=0 note=74 velocity=0 time=25
the msg is note_on channel=0 note=74 velocity=100 time=0
the msg is note_off channel=0 note=76 velocity=0 time=25
the msg is note_on channel=0 note=76 velocity=100 time=0
the msg is note_off channel=0 note=79 velocity=0 time=25
the msg is note_on channel=0 note=79 velocity=100 time=0
the msg is note_off channel=0 note=79 velocity=0 time=12
the msg is note_on channel=0 note=79 velocity=100 time=0
the msg is note_off channel=0 note=76 velocity=0 time=12
the msg is note_on channel=0 note=76 velocity=100 time=0
the msg is note_off channel=0 note=74 velocity=0 time=12
the msg is note_on channel=0 note=74 velocity=100 time=0
the msg is note_off channel=0 note=72 velocity=0 time=12
the msg is note_on channel=0 note=72 velocity=100 time=0
the msg is note_off channel=0 note=72 velocity=0 time=81
the msg is note_on channel=0 note=72 velocity=100 time=0
the msg is note_off channel=0 note=72 velocity=0 time=8
the msg is note_on channel=0 note=72 velocity=100 time=0
the msg is note_off channel=0 note=74 velocity=0 time=25
the msg is note_on channel=0 note=74 velocity=100 time=0
the msg is note_off channel=0 note=74 velocity=0 time=25
the msg is note_on channel=0 note=74 velocity=100 time=0
the msg is note_off channel=0 note=74 velocity=0 time=25
the msg is note_on channel=0 note=74 velocity=100 time=0
the msg is note_off channel=0 note=74 velocity=0 time=25
the msg is note_on channel=0 note=74 velocity=100 time=0
the msg is note_off channel=0 note=74 velocity=0 time=25
the msg is note_on channel=0 note=74 velocity=100 time=0
the msg is note_off channel=0 note=74 velocity=0 time=25
the msg is note_on channel=0 note=74 velocity=100 time=0
the msg is note_off channel=0 note=76 velocity=0 time=25
the msg is note_on channel=0 note=76 velocity=100 time=0
the msg is note_off channel=0 note=79 velocity=0 time=25
the msg is note_on channel=0 note=79 velocity=100 time=0
the msg is note_off channel=0 note=79 velocity=0 time=12
the msg is note_on channel=0 note=79 velocity=100 time=0
the msg is note_off channel=0 note=76 velocity=0 time=12
the msg is note_on channel=0 note=76 velocity=100 time=0
the msg is note_off channel=0 note=74 velocity=0 time=17
the msg is note_on channel=0 note=74 velocity=100 time=0
the msg is note_off channel=0 note=72 velocity=0 time=8
the msg is note_on channel=0 note=72 velocity=100 time=0
the msg is note_off channel=0 note=72 velocity=0 time=25
the msg is note_on channel=0 note=72 velocity=100 time=0
the msg is note_off channel=0 note=72 velocity=0 time=25
the msg is note_on channel=0 note=72 velocity=100 time=0
the msg is note_off channel=0 note=72 velocity=0 time=12
the msg is note_on channel=0 note=72 velocity=100 time=0
the msg is note_off channel=0 note=72 velocity=0 time=29
the msg is note_on channel=0 note=72 velocity=100 time=0
the msg is note_off channel=0 note=72 velocity=0 time=8
the msg is note_on channel=0 note=72 velocity=100 time=0
the msg is note_off channel=0 note=72 velocity=0 time=25
the msg is note_on channel=0 note=72 velocity=100 time=0
the msg is note_off channel=0 note=72 velocity=0 time=12
the msg is note_on channel=0 note=72 velocity=100 time=0
the msg is note_off channel=0 note=72 velocity=0 time=12
the msg is note_on channel=0 note=72 velocity=100 time=0
the msg is note_off channel=0 note=72 velocity=0 time=12
the msg is note_on channel=0 note=72 velocity=100 time=0
the msg is note_off channel=0 note=76 velocity=0 time=12
the msg is note_on channel=0 note=76 velocity=100 time=0
the msg is note_off channel=0 note=79 velocity=0 time=25
the msg is note_on channel=0 note=79 velocity=100 time=0
the msg is note_off channel=0 note=79 velocity=0 time=12
the msg is note_on channel=0 note=79 velocity=100 time=0
the msg is note_off channel=0 note=76 velocity=0 time=12
the msg is note_on channel=0 note=76 velocity=100 time=0
the msg is note_off channel=0 note=74 velocity=0 time=12
the msg is note_on channel=0 note=74 velocity=100 time=0
the msg is note_off channel=0 note=72 velocity=0 time=12
the msg is note_on channel=0 note=72 velocity=100 time=0
the msg is note_off channel=0 note=72 velocity=0 time=76
the msg is note_on channel=0 note=72 velocity=100 time=0
the msg is note_off channel=0 note=72 velocity=0 time=12
the msg is note_on channel=0 note=72 velocity=100 time=0
the msg is note_off channel=0 note=72 velocity=0 time=12
the msg is note_on channel=0 note=72 velocity=100 time=0
the msg is note_off channel=0 note=72 velocity=0 time=8
the msg is note_on channel=0 note=72 velocity=100 time=0
the msg is note_off channel=0 note=72 velocity=0 time=17
the msg is note_on channel=0 note=72 velocity=100 time=0
the msg is note_off channel=0 note=72 velocity=0 time=12
the msg is note_on channel=0 note=72 velocity=100 time=0
the msg is note_off channel=0 note=72 velocity=0 time=12
the msg is note_on channel=0 note=72 velocity=100 time=0
the msg is note_off channel=0 note=76 velocity=0 time=8
the msg is note_on channel=0 note=76 velocity=100 time=0
the msg is note_off channel=0 note=79 velocity=0 time=29
the msg is note_on channel=0 note=79 velocity=100 time=0
the msg is note_off channel=0 note=79 velocity=0 time=12
the msg is note_on channel=0 note=79 velocity=100 time=0
the msg is note_off channel=0 note=76 velocity=0 time=8
the msg is note_on channel=0 note=76 velocity=100 time=0
the msg is note_off channel=0 note=74 velocity=0 time=17
the msg is note_on channel=0 note=74 velocity=100 time=0
the msg is <meta message end_of_track time=51>
the msg is <meta message track_name name='Piano' time=0>
the msg is program_change channel=0 program=0 time=0
the msg is note_off channel=0 note=72 velocity=0 time=0
the msg is pitchwheel channel=0 pitch=0 time=0
the msg is program_change channel=0 program=0 time=0
the msg is <meta message set_tempo tempo=500000 time=0>
the msg is <meta message time_signature numerator=4 denominator=4 clocks_per_click=24 notated_32nd_notes_per_beat=8 time=0>
the msg is note_on channel=0 note=72 velocity=100 time=0
the msg is note_off channel=0 note=74 velocity=0 time=34
the msg is note_on channel=0 note=74 velocity=100 time=0
the msg is note_off channel=0 note=74 velocity=0 time=17
the msg is note_on channel=0 note=74 velocity=100 time=0
the msg is note_off channel=0 note=74 velocity=0 time=34
the msg is note_on channel=0 note=74 velocity=100 time=0
the msg is note_off channel=0 note=74 velocity=0 time=17
the msg is note_on channel=0 note=74 velocity=100 time=0
the msg is note_off channel=0 note=76 velocity=0 time=34
the msg is note_on channel=0 note=76 velocity=100 time=0
the msg is note_off channel=0 note=79 velocity=0 time=17
the msg is note_on channel=0 note=79 velocity=100 time=0
the msg is note_off channel=0 note=79 velocity=0 time=17
the msg is note_on channel=0 note=79 velocity=100 time=0
the msg is note_off channel=0 note=76 velocity=0 time=17
the msg is note_on channel=0 note=76 velocity=100 time=0
the msg is note_off channel=0 note=74 velocity=0 time=4
the msg is note_on channel=0 note=74 velocity=100 time=0
the msg is note_off channel=0 note=72 velocity=0 time=12
the msg is note_on channel=0 note=72 velocity=100 time=0
the msg is note_off channel=0 note=72 velocity=0 time=89
the msg is note_on channel=0 note=72 velocity=100 time=0
the msg is note_off channel=0 note=72 velocity=0 time=12
the msg is note_on channel=0 note=72 velocity=100 time=0
the msg is note_off channel=0 note=74 velocity=0 time=25
the msg is note_on channel=0 note=74 velocity=100 time=0
the msg is note_off channel=0 note=74 velocity=0 time=25
the msg is note_on channel=0 note=74 velocity=100 time=0
the msg is note_off channel=0 note=74 velocity=0 time=12
the msg is note_on channel=0 note=74 velocity=100 time=0
the msg is note_off channel=0 note=76 velocity=0 time=25
the msg is note_on channel=0 note=76 velocity=100 time=0
the msg is note_off channel=0 note=79 velocity=0 time=25
the msg is note_on channel=0 note=79 velocity=100 time=0
the msg is note_off channel=0 note=79 velocity=0 time=12
the msg is note_on channel=0 note=79 velocity=100 time=0
the msg is note_off channel=0 note=76 velocity=0 time=12
the msg is note_on channel=0 note=76 velocity=100 time=0
the msg is note_off channel=0 note=74 velocity=0 time=12
the msg is note_on channel=0 note=74 velocity=100 time=0
the msg is note_off channel=0 note=72 velocity=0 time=12
the msg is note_on channel=0 note=72 velocity=100 time=0
the msg is note_off channel=0 note=74 velocity=0 time=25
the msg is note_on channel=0 note=74 velocity=100 time=0
the msg is note_off channel=0 note=76 velocity=0 time=25
the msg is note_on channel=0 note=76 velocity=100 time=0
the msg is note_off channel=0 note=79 velocity=0 time=25
the msg is note_on channel=0 note=79 velocity=100 time=0
the msg is note_off channel=0 note=79 velocity=0 time=12
the msg is note_on channel=0 note=79 velocity=100 time=0
the msg is note_off channel=0 note=76 velocity=0 time=12
the msg is note_on channel=0 note=76 velocity=100 time=0
the msg is note_off channel=0 note=74 velocity=0 time=12
the msg is note_on channel=0 note=74 velocity=100 time=0
the msg is note_off channel=0 note=72 velocity=0 time=12
the msg is note_on channel=0 note=72 velocity=100 time=0
the msg is note_off channel=0 note=74 velocity=0 time=25
the msg is note_on channel=0 note=74 velocity=100 time=0
the msg is note_off channel=0 note=74 velocity=0 time=12
the msg is note_on channel=0 note=74 velocity=100 time=0
the msg is note_off channel=0 note=74 velocity=0 time=12
the msg is note_on channel=0 note=74 velocity=100 time=0
the msg is note_off channel=0 note=74 velocity=0 time=25
the msg is note_on channel=0 note=74 velocity=100 time=0
the msg is note_off channel=0 note=74 velocity=0 time=25
the msg is note_on channel=0 note=74 velocity=100 time=0
the msg is note_off channel=0 note=76 velocity=0 time=25
the msg is note_on channel=0 note=76 velocity=100 time=0
the msg is note_off channel=0 note=79 velocity=0 time=25
the msg is note_on channel=0 note=79 velocity=100 time=0
the msg is note_off channel=0 note=79 velocity=0 time=12
the msg is note_on channel=0 note=79 velocity=100 time=0
the msg is note_off channel=0 note=76 velocity=0 time=12
the msg is note_on channel=0 note=76 velocity=100 time=0
the msg is note_off channel=0 note=74 velocity=0 time=12
the msg is note_on channel=0 note=74 velocity=100 time=0
the msg is note_off channel=0 note=72 velocity=0 time=12
the msg is note_on channel=0 note=72 velocity=100 time=0
the msg is note_off channel=0 note=72 velocity=0 time=81
the msg is note_on channel=0 note=72 velocity=100 time=0
the msg is note_off channel=0 note=72 velocity=0 time=8
the msg is note_on channel=0 note=72 velocity=100 time=0
the msg is note_off channel=0 note=74 velocity=0 time=25
the msg is note_on channel=0 note=74 velocity=100 time=0
the msg is note_off channel=0 note=74 velocity=0 time=25
the msg is note_on channel=0 note=74 velocity=100 time=0
the msg is note_off channel=0 note=74 velocity=0 time=25
the msg is note_on channel=0 note=74 velocity=100 time=0
the msg is note_off channel=0 note=74 velocity=0 time=25
the msg is note_on channel=0 note=74 velocity=100 time=0
the msg is note_off channel=0 note=74 velocity=0 time=25
the msg is note_on channel=0 note=74 velocity=100 time=0
the msg is note_off channel=0 note=74 velocity=0 time=25
the msg is note_on channel=0 note=74 velocity=100 time=0
the msg is note_off channel=0 note=76 velocity=0 time=25
the msg is note_on channel=0 note=76 velocity=100 time=0
the msg is note_off channel=0 note=79 velocity=0 time=25
the msg is note_on channel=0 note=79 velocity=100 time=0
the msg is note_off channel=0 note=79 velocity=0 time=12
the msg is note_on channel=0 note=79 velocity=100 time=0
the msg is note_off channel=0 note=76 velocity=0 time=12
the msg is note_on channel=0 note=76 velocity=100 time=0
the msg is note_off channel=0 note=74 velocity=0 time=17
the msg is note_on channel=0 note=74 velocity=100 time=0
the msg is note_off channel=0 note=72 velocity=0 time=8
the msg is note_on channel=0 note=72 velocity=100 time=0
the msg is note_off channel=0 note=72 velocity=0 time=25
the msg is note_on channel=0 note=72 velocity=100 time=0
the msg is note_off channel=0 note=72 velocity=0 time=25
the msg is note_on channel=0 note=72 velocity=100 time=0
the msg is note_off channel=0 note=72 velocity=0 time=12
the msg is note_on channel=0 note=72 velocity=100 time=0
the msg is note_off channel=0 note=72 velocity=0 time=29
the msg is note_on channel=0 note=72 velocity=100 time=0
the msg is note_off channel=0 note=72 velocity=0 time=8
the msg is note_on channel=0 note=72 velocity=100 time=0
the msg is note_off channel=0 note=72 velocity=0 time=25
the msg is note_on channel=0 note=72 velocity=100 time=0
the msg is note_off channel=0 note=72 velocity=0 time=12
the msg is note_on channel=0 note=72 velocity=100 time=0
the msg is note_off channel=0 note=72 velocity=0 time=12
the msg is note_on channel=0 note=72 velocity=100 time=0
the msg is note_off channel=0 note=72 velocity=0 time=12
the msg is note_on channel=0 note=72 velocity=100 time=0
the msg is note_off channel=0 note=76 velocity=0 time=12
the msg is note_on channel=0 note=76 velocity=100 time=0
the msg is note_off channel=0 note=79 velocity=0 time=25
the msg is note_on channel=0 note=79 velocity=100 time=0
the msg is note_off channel=0 note=79 velocity=0 time=12
the msg is note_on channel=0 note=79 velocity=100 time=0
the msg is note_off channel=0 note=76 velocity=0 time=12
the msg is note_on channel=0 note=76 velocity=100 time=0
the msg is note_off channel=0 note=74 velocity=0 time=12
the msg is note_on channel=0 note=74 velocity=100 time=0
the msg is note_off channel=0 note=72 velocity=0 time=12
the msg is note_on channel=0 note=72 velocity=100 time=0
the msg is note_off channel=0 note=72 velocity=0 time=76
the msg is note_on channel=0 note=72 velocity=100 time=0
the msg is note_off channel=0 note=72 velocity=0 time=12
the msg is note_on channel=0 note=72 velocity=100 time=0
the msg is note_off channel=0 note=72 velocity=0 time=12
the msg is note_on channel=0 note=72 velocity=100 time=0
the msg is note_off channel=0 note=72 velocity=0 time=8
the msg is note_on channel=0 note=72 velocity=100 time=0
the msg is note_off channel=0 note=72 velocity=0 time=17
the msg is note_on channel=0 note=72 velocity=100 time=0
the msg is note_off channel=0 note=72 velocity=0 time=12
the msg is note_on channel=0 note=72 velocity=100 time=0
the msg is note_off channel=0 note=72 velocity=0 time=12
the msg is note_on channel=0 note=72 velocity=100 time=0
the msg is note_off channel=0 note=76 velocity=0 time=8
the msg is note_on channel=0 note=76 velocity=100 time=0
the msg is note_off channel=0 note=79 velocity=0 time=29
the msg is note_on channel=0 note=79 velocity=100 time=0
the msg is note_off channel=0 note=79 velocity=0 time=12
the msg is note_on channel=0 note=79 velocity=100 time=0
the msg is note_off channel=0 note=76 velocity=0 time=8
the msg is note_on channel=0 note=76 velocity=100 time=0
the msg is note_off channel=0 note=74 velocity=0 time=17
the msg is note_on channel=0 note=74 velocity=100 time=0
the msg is <meta message end_of_track time=51>
the msg is <meta message track_name name='Piano' time=0>
the msg is program_change channel=0 program=0 time=0
the msg is note_off channel=0 note=72 velocity=0 time=0
the msg is pitchwheel channel=0 pitch=0 time=0
the msg is program_change channel=0 program=0 time=0
the msg is <meta message set_tempo tempo=500000 time=0>
the msg is <meta message time_signature numerator=4 denominator=4 clocks_per_click=24 notated_32nd_notes_per_beat=8 time=0>
the msg is note_on channel=0 note=72 velocity=100 time=0
the msg is note_off channel=0 note=74 velocity=0 time=34
the msg is note_on channel=0 note=74 velocity=100 time=0
the msg is note_off channel=0 note=74 velocity=0 time=17
the msg is note_on channel=0 note=74 velocity=100 time=0
the msg is note_off channel=0 note=74 velocity=0 time=34
the msg is note_on channel=0 note=74 velocity=100 time=0
the msg is note_off channel=0 note=74 velocity=0 time=17
the msg is note_on channel=0 note=74 velocity=100 time=0
the msg is note_off channel=0 note=76 velocity=0 time=34
the msg is note_on channel=0 note=76 velocity=100 time=0
the msg is note_off channel=0 note=79 velocity=0 time=17
the msg is note_on channel=0 note=79 velocity=100 time=0
the msg is note_off channel=0 note=79 velocity=0 time=17
the msg is note_on channel=0 note=79 velocity=100 time=0
the msg is note_off channel=0 note=76 velocity=0 time=17
the msg is note_on channel=0 note=76 velocity=100 time=0
the msg is note_off channel=0 note=74 velocity=0 time=4
the msg is note_on channel=0 note=74 velocity=100 time=0
the msg is note_off channel=0 note=72 velocity=0 time=12
the msg is note_on channel=0 note=72 velocity=100 time=0
the msg is note_off channel=0 note=72 velocity=0 time=89
the msg is note_on channel=0 note=72 velocity=100 time=0
the msg is note_off channel=0 note=72 velocity=0 time=12
the msg is note_on channel=0 note=72 velocity=100 time=0
the msg is note_off channel=0 note=74 velocity=0 time=25
the msg is note_on channel=0 note=74 velocity=100 time=0
the msg is note_off channel=0 note=74 velocity=0 time=25
the msg is note_on channel=0 note=74 velocity=100 time=0
the msg is note_off channel=0 note=74 velocity=0 time=12
the msg is note_on channel=0 note=74 velocity=100 time=0
the msg is note_off channel=0 note=76 velocity=0 time=25
the msg is note_on channel=0 note=76 velocity=100 time=0
the msg is note_off channel=0 note=79 velocity=0 time=25
the msg is note_on channel=0 note=79 velocity=100 time=0
the msg is note_off channel=0 note=79 velocity=0 time=12
the msg is note_on channel=0 note=79 velocity=100 time=0
the msg is note_off channel=0 note=76 velocity=0 time=12
the msg is note_on channel=0 note=76 velocity=100 time=0
the msg is note_off channel=0 note=74 velocity=0 time=12
the msg is note_on channel=0 note=74 velocity=100 time=0
the msg is note_off channel=0 note=72 velocity=0 time=12
the msg is note_on channel=0 note=72 velocity=100 time=0
the msg is note_off channel=0 note=74 velocity=0 time=25
the msg is note_on channel=0 note=74 velocity=100 time=0
the msg is note_off channel=0 note=76 velocity=0 time=25
the msg is note_on channel=0 note=76 velocity=100 time=0
the msg is note_off channel=0 note=79 velocity=0 time=25
the msg is note_on channel=0 note=79 velocity=100 time=0
the msg is note_off channel=0 note=79 velocity=0 time=12
the msg is note_on channel=0 note=79 velocity=100 time=0
the msg is note_off channel=0 note=76 velocity=0 time=12
the msg is note_on channel=0 note=76 velocity=100 time=0
the msg is note_off channel=0 note=74 velocity=0 time=12
the msg is note_on channel=0 note=74 velocity=100 time=0
the msg is note_off channel=0 note=72 velocity=0 time=12
the msg is note_on channel=0 note=72 velocity=100 time=0
the msg is note_off channel=0 note=74 velocity=0 time=25
the msg is note_on channel=0 note=74 velocity=100 time=0
the msg is note_off channel=0 note=74 velocity=0 time=12
the msg is note_on channel=0 note=74 velocity=100 time=0
the msg is note_off channel=0 note=74 velocity=0 time=12
the msg is note_on channel=0 note=74 velocity=100 time=0
the msg is note_off channel=0 note=74 velocity=0 time=25
the msg is note_on channel=0 note=74 velocity=100 time=0
the msg is note_off channel=0 note=74 velocity=0 time=25
the msg is note_on channel=0 note=74 velocity=100 time=0
the msg is note_off channel=0 note=76 velocity=0 time=25
the msg is note_on channel=0 note=76 velocity=100 time=0
the msg is note_off channel=0 note=79 velocity=0 time=25
the msg is note_on channel=0 note=79 velocity=100 time=0
the msg is note_off channel=0 note=79 velocity=0 time=12
the msg is note_on channel=0 note=79 velocity=100 time=0
the msg is note_off channel=0 note=76 velocity=0 time=12
the msg is note_on channel=0 note=76 velocity=100 time=0
the msg is note_off channel=0 note=74 velocity=0 time=12
the msg is note_on channel=0 note=74 velocity=100 time=0
the msg is note_off channel=0 note=72 velocity=0 time=12
the msg is note_on channel=0 note=72 velocity=100 time=0
the msg is note_off channel=0 note=72 velocity=0 time=81
the msg is note_on channel=0 note=72 velocity=100 time=0
the msg is note_off channel=0 note=72 velocity=0 time=8
the msg is note_on channel=0 note=72 velocity=100 time=0
the msg is note_off channel=0 note=74 velocity=0 time=25
the msg is note_on channel=0 note=74 velocity=100 time=0
the msg is note_off channel=0 note=74 velocity=0 time=25
the msg is note_on channel=0 note=74 velocity=100 time=0
the msg is note_off channel=0 note=74 velocity=0 time=25
the msg is note_on channel=0 note=74 velocity=100 time=0
the msg is note_off channel=0 note=74 velocity=0 time=25
the msg is note_on channel=0 note=74 velocity=100 time=0
the msg is note_off channel=0 note=74 velocity=0 time=25
the msg is note_on channel=0 note=74 velocity=100 time=0
the msg is note_off channel=0 note=74 velocity=0 time=25
the msg is note_on channel=0 note=74 velocity=100 time=0
the msg is note_off channel=0 note=76 velocity=0 time=25
the msg is note_on channel=0 note=76 velocity=100 time=0
the msg is note_off channel=0 note=79 velocity=0 time=25
the msg is note_on channel=0 note=79 velocity=100 time=0
the msg is note_off channel=0 note=79 velocity=0 time=12
the msg is note_on channel=0 note=79 velocity=100 time=0
the msg is note_off channel=0 note=76 velocity=0 time=12
the msg is note_on channel=0 note=76 velocity=100 time=0
the msg is note_off channel=0 note=74 velocity=0 time=17
the msg is note_on channel=0 note=74 velocity=100 time=0
the msg is note_off channel=0 note=72 velocity=0 time=8
the msg is note_on channel=0 note=72 velocity=100 time=0
the msg is note_off channel=0 note=72 velocity=0 time=25
the msg is note_on channel=0 note=72 velocity=100 time=0
the msg is note_off channel=0 note=72 velocity=0 time=25
the msg is note_on channel=0 note=72 velocity=100 time=0
the msg is note_off channel=0 note=72 velocity=0 time=12
the msg is note_on channel=0 note=72 velocity=100 time=0
the msg is note_off channel=0 note=72 velocity=0 time=29
the msg is note_on channel=0 note=72 velocity=100 time=0
the msg is note_off channel=0 note=72 velocity=0 time=8
the msg is note_on channel=0 note=72 velocity=100 time=0
the msg is note_off channel=0 note=72 velocity=0 time=25
the msg is note_on channel=0 note=72 velocity=100 time=0
the msg is note_off channel=0 note=72 velocity=0 time=12
the msg is note_on channel=0 note=72 velocity=100 time=0
the msg is note_off channel=0 note=72 velocity=0 time=12
the msg is note_on channel=0 note=72 velocity=100 time=0
the msg is note_off channel=0 note=72 velocity=0 time=12
the msg is note_on channel=0 note=72 velocity=100 time=0
the msg is note_off channel=0 note=76 velocity=0 time=12
the msg is note_on channel=0 note=76 velocity=100 time=0
the msg is note_off channel=0 note=79 velocity=0 time=25
the msg is note_on channel=0 note=79 velocity=100 time=0
the msg is note_off channel=0 note=79 velocity=0 time=12
the msg is note_on channel=0 note=79 velocity=100 time=0
the msg is note_off channel=0 note=76 velocity=0 time=12
the msg is note_on channel=0 note=76 velocity=100 time=0
the msg is note_off channel=0 note=74 velocity=0 time=12
the msg is note_on channel=0 note=74 velocity=100 time=0
the msg is note_off channel=0 note=72 velocity=0 time=12
the msg is note_on channel=0 note=72 velocity=100 time=0
the msg is note_off channel=0 note=72 velocity=0 time=76
the msg is note_on channel=0 note=72 velocity=100 time=0
the msg is note_off channel=0 note=72 velocity=0 time=12
the msg is note_on channel=0 note=72 velocity=100 time=0
the msg is note_off channel=0 note=72 velocity=0 time=12
the msg is note_on channel=0 note=72 velocity=100 time=0
the msg is note_off channel=0 note=72 velocity=0 time=8
the msg is note_on channel=0 note=72 velocity=100 time=0
the msg is note_off channel=0 note=72 velocity=0 time=17
the msg is note_on channel=0 note=72 velocity=100 time=0
the msg is note_off channel=0 note=72 velocity=0 time=12
the msg is note_on channel=0 note=72 velocity=100 time=0
the msg is note_off channel=0 note=72 velocity=0 time=12
the msg is note_on channel=0 note=72 velocity=100 time=0
the msg is note_off channel=0 note=76 velocity=0 time=8
the msg is note_on channel=0 note=76 velocity=100 time=0
the msg is note_off channel=0 note=79 velocity=0 time=29
the msg is note_on channel=0 note=79 velocity=100 time=0
the msg is note_off channel=0 note=79 velocity=0 time=12
the msg is note_on channel=0 note=79 velocity=100 time=0
the msg is note_off channel=0 note=76 velocity=0 time=8
the msg is note_on channel=0 note=76 velocity=100 time=0
the msg is note_off channel=0 note=74 velocity=0 time=17
the msg is note_on channel=0 note=74 velocity=100 time=0
the msg is <meta message end_of_track time=51>
the msg is <meta message track_name name='Piano' time=0>
the msg is program_change channel=0 program=0 time=0
the msg is note_off channel=0 note=72 velocity=0 time=0
the msg is pitchwheel channel=0 pitch=0 time=0
the msg is program_change channel=0 program=0 time=0
the msg is <meta message set_tempo tempo=500000 time=0>
the msg is <meta message time_signature numerator=4 denominator=4 clocks_per_click=24 notated_32nd_notes_per_beat=8 time=0>
the msg is note_on channel=0 note=72 velocity=100 time=0
the msg is note_off channel=0 note=74 velocity=0 time=34
the msg is note_on channel=0 note=74 velocity=100 time=0
the msg is note_off channel=0 note=74 velocity=0 time=17
the msg is note_on channel=0 note=74 velocity=100 time=0
the msg is note_off channel=0 note=74 velocity=0 time=34
the msg is note_on channel=0 note=74 velocity=100 time=0
the msg is note_off channel=0 note=74 velocity=0 time=17
the msg is note_on channel=0 note=74 velocity=100 time=0
the msg is note_off channel=0 note=76 velocity=0 time=34
the msg is note_on channel=0 note=76 velocity=100 time=0
the msg is note_off channel=0 note=79 velocity=0 time=17
the msg is note_on channel=0 note=79 velocity=100 time=0
the msg is note_off channel=0 note=79 velocity=0 time=17
the msg is note_on channel=0 note=79 velocity=100 time=0
the msg is note_off channel=0 note=76 velocity=0 time=17
the msg is note_on channel=0 note=76 velocity=100 time=0
the msg is note_off channel=0 note=74 velocity=0 time=4
the msg is note_on channel=0 note=74 velocity=100 time=0
the msg is note_off channel=0 note=72 velocity=0 time=12
the msg is note_on channel=0 note=72 velocity=100 time=0
the msg is note_off channel=0 note=72 velocity=0 time=89
the msg is note_on channel=0 note=72 velocity=100 time=0
the msg is note_off channel=0 note=72 velocity=0 time=12
the msg is note_on channel=0 note=72 velocity=100 time=0
the msg is note_off channel=0 note=74 velocity=0 time=25
the msg is note_on channel=0 note=74 velocity=100 time=0
the msg is note_off channel=0 note=74 velocity=0 time=25
the msg is note_on channel=0 note=74 velocity=100 time=0
the msg is note_off channel=0 note=74 velocity=0 time=12
the msg is note_on channel=0 note=74 velocity=100 time=0
the msg is note_off channel=0 note=76 velocity=0 time=25
the msg is note_on channel=0 note=76 velocity=100 time=0
the msg is note_off channel=0 note=79 velocity=0 time=25
the msg is note_on channel=0 note=79 velocity=100 time=0
the msg is note_off channel=0 note=79 velocity=0 time=12
the msg is note_on channel=0 note=79 velocity=100 time=0
the msg is note_off channel=0 note=76 velocity=0 time=12
the msg is note_on channel=0 note=76 velocity=100 time=0
the msg is note_off channel=0 note=74 velocity=0 time=12
the msg is note_on channel=0 note=74 velocity=100 time=0
the msg is note_off channel=0 note=72 velocity=0 time=12
the msg is note_on channel=0 note=72 velocity=100 time=0
the msg is note_off channel=0 note=74 velocity=0 time=25
the msg is note_on channel=0 note=74 velocity=100 time=0
the msg is note_off channel=0 note=76 velocity=0 time=25
the msg is note_on channel=0 note=76 velocity=100 time=0
the msg is note_off channel=0 note=79 velocity=0 time=25
the msg is note_on channel=0 note=79 velocity=100 time=0
the msg is note_off channel=0 note=79 velocity=0 time=12
the msg is note_on channel=0 note=79 velocity=100 time=0
the msg is note_off channel=0 note=76 velocity=0 time=12
the msg is note_on channel=0 note=76 velocity=100 time=0
the msg is note_off channel=0 note=74 velocity=0 time=12
the msg is note_on channel=0 note=74 velocity=100 time=0
the msg is note_off channel=0 note=72 velocity=0 time=12
the msg is note_on channel=0 note=72 velocity=100 time=0
the msg is note_off channel=0 note=74 velocity=0 time=25
the msg is note_on channel=0 note=74 velocity=100 time=0
the msg is note_off channel=0 note=74 velocity=0 time=12
the msg is note_on channel=0 note=74 velocity=100 time=0
the msg is note_off channel=0 note=74 velocity=0 time=12
the msg is note_on channel=0 note=74 velocity=100 time=0
the msg is note_off channel=0 note=74 velocity=0 time=25
the msg is note_on channel=0 note=74 velocity=100 time=0
the msg is note_off channel=0 note=74 velocity=0 time=25
the msg is note_on channel=0 note=74 velocity=100 time=0
the msg is note_off channel=0 note=76 velocity=0 time=25
the msg is note_on channel=0 note=76 velocity=100 time=0
the msg is note_off channel=0 note=79 velocity=0 time=25
the msg is note_on channel=0 note=79 velocity=100 time=0
the msg is note_off channel=0 note=79 velocity=0 time=12
the msg is note_on channel=0 note=79 velocity=100 time=0
the msg is note_off channel=0 note=76 velocity=0 time=12
the msg is note_on channel=0 note=76 velocity=100 time=0
the msg is note_off channel=0 note=74 velocity=0 time=12
the msg is note_on channel=0 note=74 velocity=100 time=0
the msg is note_off channel=0 note=72 velocity=0 time=12
the msg is note_on channel=0 note=72 velocity=100 time=0
the msg is note_off channel=0 note=72 velocity=0 time=81
the msg is note_on channel=0 note=72 velocity=100 time=0
the msg is note_off channel=0 note=72 velocity=0 time=8
the msg is note_on channel=0 note=72 velocity=100 time=0
the msg is note_off channel=0 note=74 velocity=0 time=25
the msg is note_on channel=0 note=74 velocity=100 time=0
the msg is note_off channel=0 note=74 velocity=0 time=25
the msg is note_on channel=0 note=74 velocity=100 time=0
the msg is note_off channel=0 note=74 velocity=0 time=25
the msg is note_on channel=0 note=74 velocity=100 time=0
the msg is note_off channel=0 note=74 velocity=0 time=25
the msg is note_on channel=0 note=74 velocity=100 time=0
the msg is note_off channel=0 note=74 velocity=0 time=25
the msg is note_on channel=0 note=74 velocity=100 time=0
the msg is note_off channel=0 note=74 velocity=0 time=25
the msg is note_on channel=0 note=74 velocity=100 time=0
the msg is note_off channel=0 note=76 velocity=0 time=25
the msg is note_on channel=0 note=76 velocity=100 time=0
the msg is note_off channel=0 note=79 velocity=0 time=25
the msg is note_on channel=0 note=79 velocity=100 time=0
the msg is note_off channel=0 note=79 velocity=0 time=12
the msg is note_on channel=0 note=79 velocity=100 time=0
the msg is note_off channel=0 note=76 velocity=0 time=12
the msg is note_on channel=0 note=76 velocity=100 time=0
the msg is note_off channel=0 note=74 velocity=0 time=17
the msg is note_on channel=0 note=74 velocity=100 time=0
the msg is note_off channel=0 note=72 velocity=0 time=8
the msg is note_on channel=0 note=72 velocity=100 time=0
the msg is note_off channel=0 note=72 velocity=0 time=25
the msg is note_on channel=0 note=72 velocity=100 time=0
the msg is note_off channel=0 note=72 velocity=0 time=25
the msg is note_on channel=0 note=72 velocity=100 time=0
the msg is note_off channel=0 note=72 velocity=0 time=12
the msg is note_on channel=0 note=72 velocity=100 time=0
the msg is note_off channel=0 note=72 velocity=0 time=29
the msg is note_on channel=0 note=72 velocity=100 time=0
the msg is note_off channel=0 note=72 velocity=0 time=8
the msg is note_on channel=0 note=72 velocity=100 time=0
the msg is note_off channel=0 note=72 velocity=0 time=25
the msg is note_on channel=0 note=72 velocity=100 time=0
the msg is note_off channel=0 note=72 velocity=0 time=12
the msg is note_on channel=0 note=72 velocity=100 time=0
the msg is note_off channel=0 note=72 velocity=0 time=12
the msg is note_on channel=0 note=72 velocity=100 time=0
the msg is note_off channel=0 note=72 velocity=0 time=12
the msg is note_on channel=0 note=72 velocity=100 time=0
the msg is note_off channel=0 note=76 velocity=0 time=12
the msg is note_on channel=0 note=76 velocity=100 time=0
the msg is note_off channel=0 note=79 velocity=0 time=25
the msg is note_on channel=0 note=79 velocity=100 time=0
the msg is note_off channel=0 note=79 velocity=0 time=12
the msg is note_on channel=0 note=79 velocity=100 time=0
the msg is note_off channel=0 note=76 velocity=0 time=12
the msg is note_on channel=0 note=76 velocity=100 time=0
the msg is note_off channel=0 note=74 velocity=0 time=12
the msg is note_on channel=0 note=74 velocity=100 time=0
the msg is note_off channel=0 note=72 velocity=0 time=12
the msg is note_on channel=0 note=72 velocity=100 time=0
the msg is note_off channel=0 note=72 velocity=0 time=76
the msg is note_on channel=0 note=72 velocity=100 time=0
the msg is note_off channel=0 note=72 velocity=0 time=12
the msg is note_on channel=0 note=72 velocity=100 time=0
the msg is note_off channel=0 note=72 velocity=0 time=12
the msg is note_on channel=0 note=72 velocity=100 time=0
the msg is note_off channel=0 note=72 velocity=0 time=8
the msg is note_on channel=0 note=72 velocity=100 time=0
the msg is note_off channel=0 note=72 velocity=0 time=17
the msg is note_on channel=0 note=72 velocity=100 time=0
the msg is note_off channel=0 note=72 velocity=0 time=12
the msg is note_on channel=0 note=72 velocity=100 time=0
the msg is note_off channel=0 note=72 velocity=0 time=12
the msg is note_on channel=0 note=72 velocity=100 time=0
the msg is note_off channel=0 note=76 velocity=0 time=8
the msg is note_on channel=0 note=76 velocity=100 time=0
the msg is note_off channel=0 note=79 velocity=0 time=29
the msg is note_on channel=0 note=79 velocity=100 time=0
the msg is note_off channel=0 note=79 velocity=0 time=12
the msg is note_on channel=0 note=79 velocity=100 time=0
the msg is note_off channel=0 note=76 velocity=0 time=8
the msg is note_on channel=0 note=76 velocity=100 time=0
the msg is note_off channel=0 note=74 velocity=0 time=17
the msg is note_on channel=0 note=74 velocity=100 time=0
the msg is <meta message end_of_track time=51>
the msg is <meta message track_name name='Piano' time=0>
the msg is program_change channel=0 program=0 time=0
the msg is note_off channel=0 note=72 velocity=0 time=0
the msg is pitchwheel channel=0 pitch=0 time=0
the msg is program_change channel=0 program=0 time=0
the msg is <meta message set_tempo tempo=500000 time=0>
the msg is <meta message time_signature numerator=4 denominator=4 clocks_per_click=24 notated_32nd_notes_per_beat=8 time=0>
the msg is note_on channel=0 note=72 velocity=100 time=0
the msg is note_off channel=0 note=74 velocity=0 time=34
the msg is note_on channel=0 note=74 velocity=100 time=0
the msg is note_off channel=0 note=74 velocity=0 time=17
the msg is note_on channel=0 note=74 velocity=100 time=0
the msg is note_off channel=0 note=74 velocity=0 time=34
the msg is note_on channel=0 note=74 velocity=100 time=0
the msg is note_off channel=0 note=74 velocity=0 time=17
the msg is note_on channel=0 note=74 velocity=100 time=0
the msg is note_off channel=0 note=76 velocity=0 time=34
the msg is note_on channel=0 note=76 velocity=100 time=0
the msg is note_off channel=0 note=79 velocity=0 time=17
the msg is note_on channel=0 note=79 velocity=100 time=0
the msg is note_off channel=0 note=79 velocity=0 time=17
the msg is note_on channel=0 note=79 velocity=100 time=0
the msg is note_off channel=0 note=76 velocity=0 time=17
the msg is note_on channel=0 note=76 velocity=100 time=0
the msg is note_off channel=0 note=74 velocity=0 time=4
the msg is note_on channel=0 note=74 velocity=100 time=0
the msg is note_off channel=0 note=72 velocity=0 time=12
the msg is note_on channel=0 note=72 velocity=100 time=0
the msg is note_off channel=0 note=72 velocity=0 time=89
the msg is note_on channel=0 note=72 velocity=100 time=0
the msg is note_off channel=0 note=72 velocity=0 time=12
the msg is note_on channel=0 note=72 velocity=100 time=0
the msg is note_off channel=0 note=74 velocity=0 time=25
the msg is note_on channel=0 note=74 velocity=100 time=0
the msg is note_off channel=0 note=74 velocity=0 time=25
the msg is note_on channel=0 note=74 velocity=100 time=0
the msg is note_off channel=0 note=74 velocity=0 time=12
the msg is note_on channel=0 note=74 velocity=100 time=0
the msg is note_off channel=0 note=76 velocity=0 time=25
the msg is note_on channel=0 note=76 velocity=100 time=0
the msg is note_off channel=0 note=79 velocity=0 time=25
the msg is note_on channel=0 note=79 velocity=100 time=0
the msg is note_off channel=0 note=79 velocity=0 time=12
the msg is note_on channel=0 note=79 velocity=100 time=0
the msg is note_off channel=0 note=76 velocity=0 time=12
the msg is note_on channel=0 note=76 velocity=100 time=0
the msg is note_off channel=0 note=74 velocity=0 time=12
the msg is note_on channel=0 note=74 velocity=100 time=0
the msg is note_off channel=0 note=72 velocity=0 time=12
the msg is note_on channel=0 note=72 velocity=100 time=0
the msg is note_off channel=0 note=74 velocity=0 time=25
the msg is note_on channel=0 note=74 velocity=100 time=0
the msg is note_off channel=0 note=76 velocity=0 time=25
the msg is note_on channel=0 note=76 velocity=100 time=0
the msg is note_off channel=0 note=79 velocity=0 time=25
the msg is note_on channel=0 note=79 velocity=100 time=0
the msg is note_off channel=0 note=79 velocity=0 time=12
the msg is note_on channel=0 note=79 velocity=100 time=0
the msg is note_off channel=0 note=76 velocity=0 time=12
the msg is note_on channel=0 note=76 velocity=100 time=0
the msg is note_off channel=0 note=74 velocity=0 time=12
the msg is note_on channel=0 note=74 velocity=100 time=0
the msg is note_off channel=0 note=72 velocity=0 time=12
the msg is note_on channel=0 note=72 velocity=100 time=0
the msg is note_off channel=0 note=74 velocity=0 time=25
the msg is note_on channel=0 note=74 velocity=100 time=0
the msg is note_off channel=0 note=74 velocity=0 time=12
the msg is note_on channel=0 note=74 velocity=100 time=0
the msg is note_off channel=0 note=74 velocity=0 time=12
the msg is note_on channel=0 note=74 velocity=100 time=0
the msg is note_off channel=0 note=74 velocity=0 time=25
the msg is note_on channel=0 note=74 velocity=100 time=0
the msg is note_off channel=0 note=74 velocity=0 time=25
the msg is note_on channel=0 note=74 velocity=100 time=0
the msg is note_off channel=0 note=76 velocity=0 time=25
the msg is note_on channel=0 note=76 velocity=100 time=0
the msg is note_off channel=0 note=79 velocity=0 time=25
the msg is note_on channel=0 note=79 velocity=100 time=0
the msg is note_off channel=0 note=79 velocity=0 time=12
the msg is note_on channel=0 note=79 velocity=100 time=0
the msg is note_off channel=0 note=76 velocity=0 time=12
the msg is note_on channel=0 note=76 velocity=100 time=0
the msg is note_off channel=0 note=74 velocity=0 time=12
the msg is note_on channel=0 note=74 velocity=100 time=0
the msg is note_off channel=0 note=72 velocity=0 time=12
the msg is note_on channel=0 note=72 velocity=100 time=0
the msg is note_off channel=0 note=72 velocity=0 time=81
the msg is note_on channel=0 note=72 velocity=100 time=0
the msg is note_off channel=0 note=72 velocity=0 time=8
the msg is note_on channel=0 note=72 velocity=100 time=0
the msg is note_off channel=0 note=74 velocity=0 time=25
the msg is note_on channel=0 note=74 velocity=100 time=0
the msg is note_off channel=0 note=74 velocity=0 time=25
the msg is note_on channel=0 note=74 velocity=100 time=0
the msg is note_off channel=0 note=74 velocity=0 time=25
the msg is note_on channel=0 note=74 velocity=100 time=0
the msg is note_off channel=0 note=74 velocity=0 time=25
the msg is note_on channel=0 note=74 velocity=100 time=0
the msg is note_off channel=0 note=74 velocity=0 time=25
the msg is note_on channel=0 note=74 velocity=100 time=0
the msg is note_off channel=0 note=74 velocity=0 time=25
the msg is note_on channel=0 note=74 velocity=100 time=0
the msg is note_off channel=0 note=76 velocity=0 time=25
the msg is note_on channel=0 note=76 velocity=100 time=0
the msg is note_off channel=0 note=79 velocity=0 time=25
the msg is note_on channel=0 note=79 velocity=100 time=0
the msg is note_off channel=0 note=79 velocity=0 time=12
the msg is note_on channel=0 note=79 velocity=100 time=0
the msg is note_off channel=0 note=76 velocity=0 time=12
the msg is note_on channel=0 note=76 velocity=100 time=0
the msg is note_off channel=0 note=74 velocity=0 time=17
the msg is note_on channel=0 note=74 velocity=100 time=0
the msg is note_off channel=0 note=72 velocity=0 time=8
the msg is note_on channel=0 note=72 velocity=100 time=0
the msg is note_off channel=0 note=72 velocity=0 time=25
the msg is note_on channel=0 note=72 velocity=100 time=0
the msg is note_off channel=0 note=72 velocity=0 time=25
the msg is note_on channel=0 note=72 velocity=100 time=0
the msg is note_off channel=0 note=72 velocity=0 time=12
the msg is note_on channel=0 note=72 velocity=100 time=0
the msg is note_off channel=0 note=72 velocity=0 time=29
the msg is note_on channel=0 note=72 velocity=100 time=0
the msg is note_off channel=0 note=72 velocity=0 time=8
the msg is note_on channel=0 note=72 velocity=100 time=0
the msg is note_off channel=0 note=72 velocity=0 time=25
the msg is note_on channel=0 note=72 velocity=100 time=0
the msg is note_off channel=0 note=72 velocity=0 time=12
the msg is note_on channel=0 note=72 velocity=100 time=0
the msg is note_off channel=0 note=72 velocity=0 time=12
the msg is note_on channel=0 note=72 velocity=100 time=0
the msg is note_off channel=0 note=72 velocity=0 time=12
the msg is note_on channel=0 note=72 velocity=100 time=0
the msg is note_off channel=0 note=76 velocity=0 time=12
the msg is note_on channel=0 note=76 velocity=100 time=0
the msg is note_off channel=0 note=79 velocity=0 time=25
the msg is note_on channel=0 note=79 velocity=100 time=0
the msg is note_off channel=0 note=79 velocity=0 time=12
the msg is note_on channel=0 note=79 velocity=100 time=0
the msg is note_off channel=0 note=76 velocity=0 time=12
the msg is note_on channel=0 note=76 velocity=100 time=0
the msg is note_off channel=0 note=74 velocity=0 time=12
the msg is note_on channel=0 note=74 velocity=100 time=0
the msg is note_off channel=0 note=72 velocity=0 time=12
the msg is note_on channel=0 note=72 velocity=100 time=0
the msg is note_off channel=0 note=72 velocity=0 time=76
the msg is note_on channel=0 note=72 velocity=100 time=0
the msg is note_off channel=0 note=72 velocity=0 time=12
the msg is note_on channel=0 note=72 velocity=100 time=0
the msg is note_off channel=0 note=72 velocity=0 time=12
the msg is note_on channel=0 note=72 velocity=100 time=0
the msg is note_off channel=0 note=72 velocity=0 time=8
the msg is note_on channel=0 note=72 velocity=100 time=0
the msg is note_off channel=0 note=72 velocity=0 time=17
the msg is note_on channel=0 note=72 velocity=100 time=0
the msg is note_off channel=0 note=72 velocity=0 time=12
the msg is note_on channel=0 note=72 velocity=100 time=0
the msg is note_off channel=0 note=72 velocity=0 time=12
the msg is note_on channel=0 note=72 velocity=100 time=0
the msg is note_off channel=0 note=76 velocity=0 time=8
the msg is note_on channel=0 note=76 velocity=100 time=0
the msg is note_off channel=0 note=79 velocity=0 time=29
the msg is note_on channel=0 note=79 velocity=100 time=0
the msg is note_off channel=0 note=79 velocity=0 time=12
the msg is note_on channel=0 note=79 velocity=100 time=0
the msg is note_off channel=0 note=76 velocity=0 time=8
the msg is note_on channel=0 note=76 velocity=100 time=0
the msg is note_off channel=0 note=74 velocity=0 time=17
the msg is note_on channel=0 note=74 velocity=100 time=0
the msg is <meta message end_of_track time=51>
the msg is <meta message track_name name='Piano' time=0>
the msg is program_change channel=0 program=0 time=0
the msg is note_off channel=0 note=72 velocity=0 time=0
the msg is pitchwheel channel=0 pitch=0 time=0
the msg is program_change channel=0 program=0 time=0
the msg is <meta message set_tempo tempo=500000 time=0>
the msg is <meta message time_signature numerator=4 denominator=4 clocks_per_click=24 notated_32nd_notes_per_beat=8 time=0>
the msg is note_on channel=0 note=72 velocity=100 time=0
the msg is note_off channel=0 note=74 velocity=0 time=34
the msg is note_on channel=0 note=74 velocity=100 time=0
the msg is note_off channel=0 note=74 velocity=0 time=17
the msg is note_on channel=0 note=74 velocity=100 time=0
the msg is note_off channel=0 note=74 velocity=0 time=34
the msg is note_on channel=0 note=74 velocity=100 time=0
the msg is note_off channel=0 note=74 velocity=0 time=17
the msg is note_on channel=0 note=74 velocity=100 time=0
the msg is note_off channel=0 note=76 velocity=0 time=34
the msg is note_on channel=0 note=76 velocity=100 time=0
the msg is note_off channel=0 note=79 velocity=0 time=17
the msg is note_on channel=0 note=79 velocity=100 time=0
the msg is note_off channel=0 note=79 velocity=0 time=17
the msg is note_on channel=0 note=79 velocity=100 time=0
the msg is note_off channel=0 note=76 velocity=0 time=17
the msg is note_on channel=0 note=76 velocity=100 time=0
the msg is note_off channel=0 note=74 velocity=0 time=4
the msg is note_on channel=0 note=74 velocity=100 time=0
the msg is note_off channel=0 note=72 velocity=0 time=12
the msg is note_on channel=0 note=72 velocity=100 time=0
the msg is note_off channel=0 note=72 velocity=0 time=89
the msg is note_on channel=0 note=72 velocity=100 time=0
the msg is note_off channel=0 note=72 velocity=0 time=12
the msg is note_on channel=0 note=72 velocity=100 time=0
the msg is note_off channel=0 note=74 velocity=0 time=25
the msg is note_on channel=0 note=74 velocity=100 time=0
the msg is note_off channel=0 note=74 velocity=0 time=25
the msg is note_on channel=0 note=74 velocity=100 time=0
the msg is note_off channel=0 note=74 velocity=0 time=12
the msg is note_on channel=0 note=74 velocity=100 time=0
the msg is note_off channel=0 note=76 velocity=0 time=25
the msg is note_on channel=0 note=76 velocity=100 time=0
the msg is note_off channel=0 note=79 velocity=0 time=25
the msg is note_on channel=0 note=79 velocity=100 time=0
the msg is note_off channel=0 note=79 velocity=0 time=12
the msg is note_on channel=0 note=79 velocity=100 time=0
the msg is note_off channel=0 note=76 velocity=0 time=12
the msg is note_on channel=0 note=76 velocity=100 time=0
the msg is note_off channel=0 note=74 velocity=0 time=12
the msg is note_on channel=0 note=74 velocity=100 time=0
the msg is note_off channel=0 note=72 velocity=0 time=12
the msg is note_on channel=0 note=72 velocity=100 time=0
the msg is note_off channel=0 note=74 velocity=0 time=25
the msg is note_on channel=0 note=74 velocity=100 time=0
the msg is note_off channel=0 note=76 velocity=0 time=25
the msg is note_on channel=0 note=76 velocity=100 time=0
the msg is note_off channel=0 note=79 velocity=0 time=25
the msg is note_on channel=0 note=79 velocity=100 time=0
the msg is note_off channel=0 note=79 velocity=0 time=12
the msg is note_on channel=0 note=79 velocity=100 time=0
the msg is note_off channel=0 note=76 velocity=0 time=12
the msg is note_on channel=0 note=76 velocity=100 time=0
the msg is note_off channel=0 note=74 velocity=0 time=12
the msg is note_on channel=0 note=74 velocity=100 time=0
the msg is note_off channel=0 note=72 velocity=0 time=12
the msg is note_on channel=0 note=72 velocity=100 time=0
the msg is note_off channel=0 note=74 velocity=0 time=25
the msg is note_on channel=0 note=74 velocity=100 time=0
the msg is note_off channel=0 note=74 velocity=0 time=12
the msg is note_on channel=0 note=74 velocity=100 time=0
the msg is note_off channel=0 note=74 velocity=0 time=12
the msg is note_on channel=0 note=74 velocity=100 time=0
the msg is note_off channel=0 note=74 velocity=0 time=25
the msg is note_on channel=0 note=74 velocity=100 time=0
the msg is note_off channel=0 note=74 velocity=0 time=25
the msg is note_on channel=0 note=74 velocity=100 time=0
the msg is note_off channel=0 note=76 velocity=0 time=25
the msg is note_on channel=0 note=76 velocity=100 time=0
the msg is note_off channel=0 note=79 velocity=0 time=25
the msg is note_on channel=0 note=79 velocity=100 time=0
the msg is note_off channel=0 note=79 velocity=0 time=12
the msg is note_on channel=0 note=79 velocity=100 time=0
the msg is note_off channel=0 note=76 velocity=0 time=12
the msg is note_on channel=0 note=76 velocity=100 time=0
the msg is note_off channel=0 note=74 velocity=0 time=12
the msg is note_on channel=0 note=74 velocity=100 time=0
the msg is note_off channel=0 note=72 velocity=0 time=12
the msg is note_on channel=0 note=72 velocity=100 time=0
the msg is note_off channel=0 note=72 velocity=0 time=81
the msg is note_on channel=0 note=72 velocity=100 time=0
the msg is note_off channel=0 note=72 velocity=0 time=8
the msg is note_on channel=0 note=72 velocity=100 time=0
the msg is note_off channel=0 note=74 velocity=0 time=25
the msg is note_on channel=0 note=74 velocity=100 time=0
the msg is note_off channel=0 note=74 velocity=0 time=25
the msg is note_on channel=0 note=74 velocity=100 time=0
the msg is note_off channel=0 note=74 velocity=0 time=25
the msg is note_on channel=0 note=74 velocity=100 time=0
the msg is note_off channel=0 note=74 velocity=0 time=25
the msg is note_on channel=0 note=74 velocity=100 time=0
the msg is note_off channel=0 note=74 velocity=0 time=25
the msg is note_on channel=0 note=74 velocity=100 time=0
the msg is note_off channel=0 note=74 velocity=0 time=25
the msg is note_on channel=0 note=74 velocity=100 time=0
the msg is note_off channel=0 note=76 velocity=0 time=25
the msg is note_on channel=0 note=76 velocity=100 time=0
the msg is note_off channel=0 note=79 velocity=0 time=25
the msg is note_on channel=0 note=79 velocity=100 time=0
the msg is note_off channel=0 note=79 velocity=0 time=12
the msg is note_on channel=0 note=79 velocity=100 time=0
the msg is note_off channel=0 note=76 velocity=0 time=12
the msg is note_on channel=0 note=76 velocity=100 time=0
the msg is note_off channel=0 note=74 velocity=0 time=17
the msg is note_on channel=0 note=74 velocity=100 time=0
the msg is note_off channel=0 note=72 velocity=0 time=8
the msg is note_on channel=0 note=72 velocity=100 time=0
the msg is note_off channel=0 note=72 velocity=0 time=25
the msg is note_on channel=0 note=72 velocity=100 time=0
the msg is note_off channel=0 note=72 velocity=0 time=25
the msg is note_on channel=0 note=72 velocity=100 time=0
the msg is note_off channel=0 note=72 velocity=0 time=12
the msg is note_on channel=0 note=72 velocity=100 time=0
the msg is note_off channel=0 note=72 velocity=0 time=29
the msg is note_on channel=0 note=72 velocity=100 time=0
the msg is note_off channel=0 note=72 velocity=0 time=8
the msg is note_on channel=0 note=72 velocity=100 time=0
the msg is note_off channel=0 note=72 velocity=0 time=25
the msg is note_on channel=0 note=72 velocity=100 time=0
the msg is note_off channel=0 note=72 velocity=0 time=12
the msg is note_on channel=0 note=72 velocity=100 time=0
the msg is note_off channel=0 note=72 velocity=0 time=12
the msg is note_on channel=0 note=72 velocity=100 time=0
the msg is note_off channel=0 note=72 velocity=0 time=12
the msg is note_on channel=0 note=72 velocity=100 time=0
the msg is note_off channel=0 note=76 velocity=0 time=12
the msg is note_on channel=0 note=76 velocity=100 time=0
the msg is note_off channel=0 note=79 velocity=0 time=25
the msg is note_on channel=0 note=79 velocity=100 time=0
the msg is note_off channel=0 note=79 velocity=0 time=12
the msg is note_on channel=0 note=79 velocity=100 time=0
the msg is note_off channel=0 note=76 velocity=0 time=12
the msg is note_on channel=0 note=76 velocity=100 time=0
the msg is note_off channel=0 note=74 velocity=0 time=12
the msg is note_on channel=0 note=74 velocity=100 time=0
the msg is note_off channel=0 note=72 velocity=0 time=12
the msg is note_on channel=0 note=72 velocity=100 time=0
the msg is note_off channel=0 note=72 velocity=0 time=76
the msg is note_on channel=0 note=72 velocity=100 time=0
the msg is note_off channel=0 note=72 velocity=0 time=12
the msg is note_on channel=0 note=72 velocity=100 time=0
the msg is note_off channel=0 note=72 velocity=0 time=12
the msg is note_on channel=0 note=72 velocity=100 time=0
the msg is note_off channel=0 note=72 velocity=0 time=8
the msg is note_on channel=0 note=72 velocity=100 time=0
the msg is note_off channel=0 note=72 velocity=0 time=17
the msg is note_on channel=0 note=72 velocity=100 time=0
the msg is note_off channel=0 note=72 velocity=0 time=12
the msg is note_on channel=0 note=72 velocity=100 time=0
the msg is note_off channel=0 note=72 velocity=0 time=12
the msg is note_on channel=0 note=72 velocity=100 time=0
the msg is note_off channel=0 note=76 velocity=0 time=8
the msg is note_on channel=0 note=76 velocity=100 time=0
the msg is note_off channel=0 note=79 velocity=0 time=29
the msg is note_on channel=0 note=79 velocity=100 time=0
the msg is note_off channel=0 note=79 velocity=0 time=12
the msg is note_on channel=0 note=79 velocity=100 time=0
the msg is note_off channel=0 note=76 velocity=0 time=8
the msg is note_on channel=0 note=76 velocity=100 time=0
the msg is note_off channel=0 note=74 velocity=0 time=17
the msg is note_on channel=0 note=74 velocity=100 time=0
the msg is <meta message end_of_track time=51>
the msg is <meta message track_name name='Piano' time=0>
the msg is program_change channel=0 program=0 time=0
the msg is note_off channel=0 note=72 velocity=0 time=0
the msg is pitchwheel channel=0 pitch=0 time=0
the msg is program_change channel=0 program=0 time=0
the msg is <meta message set_tempo tempo=500000 time=0>
the msg is <meta message time_signature numerator=4 denominator=4 clocks_per_click=24 notated_32nd_notes_per_beat=8 time=0>
the msg is note_on channel=0 note=72 velocity=100 time=0
the msg is note_off channel=0 note=74 velocity=0 time=34
the msg is note_on channel=0 note=74 velocity=100 time=0
the msg is note_off channel=0 note=74 velocity=0 time=17
the msg is note_on channel=0 note=74 velocity=100 time=0
the msg is note_off channel=0 note=74 velocity=0 time=34
the msg is note_on channel=0 note=74 velocity=100 time=0
the msg is note_off channel=0 note=74 velocity=0 time=17
the msg is note_on channel=0 note=74 velocity=100 time=0
the msg is note_off channel=0 note=76 velocity=0 time=34
the msg is note_on channel=0 note=76 velocity=100 time=0
the msg is note_off channel=0 note=79 velocity=0 time=17
the msg is note_on channel=0 note=79 velocity=100 time=0
the msg is note_off channel=0 note=79 velocity=0 time=17
the msg is note_on channel=0 note=79 velocity=100 time=0
the msg is note_off channel=0 note=76 velocity=0 time=17
the msg is note_on channel=0 note=76 velocity=100 time=0
the msg is note_off channel=0 note=74 velocity=0 time=4
the msg is note_on channel=0 note=74 velocity=100 time=0
the msg is note_off channel=0 note=72 velocity=0 time=12
the msg is note_on channel=0 note=72 velocity=100 time=0
the msg is note_off channel=0 note=72 velocity=0 time=89
the msg is note_on channel=0 note=72 velocity=100 time=0
the msg is note_off channel=0 note=72 velocity=0 time=12
the msg is note_on channel=0 note=72 velocity=100 time=0
the msg is note_off channel=0 note=74 velocity=0 time=25
the msg is note_on channel=0 note=74 velocity=100 time=0
the msg is note_off channel=0 note=74 velocity=0 time=25
the msg is note_on channel=0 note=74 velocity=100 time=0
the msg is note_off channel=0 note=74 velocity=0 time=12
the msg is note_on channel=0 note=74 velocity=100 time=0
the msg is note_off channel=0 note=76 velocity=0 time=25
the msg is note_on channel=0 note=76 velocity=100 time=0
the msg is note_off channel=0 note=79 velocity=0 time=25
the msg is note_on channel=0 note=79 velocity=100 time=0
the msg is note_off channel=0 note=79 velocity=0 time=12
the msg is note_on channel=0 note=79 velocity=100 time=0
the msg is note_off channel=0 note=76 velocity=0 time=12
the msg is note_on channel=0 note=76 velocity=100 time=0
the msg is note_off channel=0 note=74 velocity=0 time=12
the msg is note_on channel=0 note=74 velocity=100 time=0
the msg is note_off channel=0 note=72 velocity=0 time=12
the msg is note_on channel=0 note=72 velocity=100 time=0
the msg is note_off channel=0 note=74 velocity=0 time=25
the msg is note_on channel=0 note=74 velocity=100 time=0
the msg is note_off channel=0 note=76 velocity=0 time=25
the msg is note_on channel=0 note=76 velocity=100 time=0
the msg is note_off channel=0 note=79 velocity=0 time=25
the msg is note_on channel=0 note=79 velocity=100 time=0
the msg is note_off channel=0 note=79 velocity=0 time=12
the msg is note_on channel=0 note=79 velocity=100 time=0
the msg is note_off channel=0 note=76 velocity=0 time=12
the msg is note_on channel=0 note=76 velocity=100 time=0
the msg is note_off channel=0 note=74 velocity=0 time=12
the msg is note_on channel=0 note=74 velocity=100 time=0
the msg is note_off channel=0 note=72 velocity=0 time=12
the msg is note_on channel=0 note=72 velocity=100 time=0
the msg is note_off channel=0 note=74 velocity=0 time=25
the msg is note_on channel=0 note=74 velocity=100 time=0
the msg is note_off channel=0 note=74 velocity=0 time=12
the msg is note_on channel=0 note=74 velocity=100 time=0
the msg is note_off channel=0 note=74 velocity=0 time=12
the msg is note_on channel=0 note=74 velocity=100 time=0
the msg is note_off channel=0 note=74 velocity=0 time=25
the msg is note_on channel=0 note=74 velocity=100 time=0
the msg is note_off channel=0 note=74 velocity=0 time=25
the msg is note_on channel=0 note=74 velocity=100 time=0
the msg is note_off channel=0 note=76 velocity=0 time=25
the msg is note_on channel=0 note=76 velocity=100 time=0
the msg is note_off channel=0 note=79 velocity=0 time=25
the msg is note_on channel=0 note=79 velocity=100 time=0
the msg is note_off channel=0 note=79 velocity=0 time=12
the msg is note_on channel=0 note=79 velocity=100 time=0
the msg is note_off channel=0 note=76 velocity=0 time=12
the msg is note_on channel=0 note=76 velocity=100 time=0
the msg is note_off channel=0 note=74 velocity=0 time=12
the msg is note_on channel=0 note=74 velocity=100 time=0
the msg is note_off channel=0 note=72 velocity=0 time=12
the msg is note_on channel=0 note=72 velocity=100 time=0
the msg is note_off channel=0 note=72 velocity=0 time=81
the msg is note_on channel=0 note=72 velocity=100 time=0
the msg is note_off channel=0 note=72 velocity=0 time=8
the msg is note_on channel=0 note=72 velocity=100 time=0
the msg is note_off channel=0 note=74 velocity=0 time=25
the msg is note_on channel=0 note=74 velocity=100 time=0
the msg is note_off channel=0 note=74 velocity=0 time=25
the msg is note_on channel=0 note=74 velocity=100 time=0
the msg is note_off channel=0 note=74 velocity=0 time=25
the msg is note_on channel=0 note=74 velocity=100 time=0
the msg is note_off channel=0 note=74 velocity=0 time=25
the msg is note_on channel=0 note=74 velocity=100 time=0
the msg is note_off channel=0 note=74 velocity=0 time=25
the msg is note_on channel=0 note=74 velocity=100 time=0
the msg is note_off channel=0 note=74 velocity=0 time=25
the msg is note_on channel=0 note=74 velocity=100 time=0
the msg is note_off channel=0 note=76 velocity=0 time=25
the msg is note_on channel=0 note=76 velocity=100 time=0
the msg is note_off channel=0 note=79 velocity=0 time=25
the msg is note_on channel=0 note=79 velocity=100 time=0
the msg is note_off channel=0 note=79 velocity=0 time=12
the msg is note_on channel=0 note=79 velocity=100 time=0
the msg is note_off channel=0 note=76 velocity=0 time=12
the msg is note_on channel=0 note=76 velocity=100 time=0
the msg is note_off channel=0 note=74 velocity=0 time=17
the msg is note_on channel=0 note=74 velocity=100 time=0
the msg is note_off channel=0 note=72 velocity=0 time=8
the msg is note_on channel=0 note=72 velocity=100 time=0
the msg is note_off channel=0 note=72 velocity=0 time=25
the msg is note_on channel=0 note=72 velocity=100 time=0
the msg is note_off channel=0 note=72 velocity=0 time=25
the msg is note_on channel=0 note=72 velocity=100 time=0
the msg is note_off channel=0 note=72 velocity=0 time=12
the msg is note_on channel=0 note=72 velocity=100 time=0
the msg is note_off channel=0 note=72 velocity=0 time=29
the msg is note_on channel=0 note=72 velocity=100 time=0
the msg is note_off channel=0 note=72 velocity=0 time=8
the msg is note_on channel=0 note=72 velocity=100 time=0
the msg is note_off channel=0 note=72 velocity=0 time=25
the msg is note_on channel=0 note=72 velocity=100 time=0
the msg is note_off channel=0 note=72 velocity=0 time=12
the msg is note_on channel=0 note=72 velocity=100 time=0
the msg is note_off channel=0 note=72 velocity=0 time=12
the msg is note_on channel=0 note=72 velocity=100 time=0
the msg is note_off channel=0 note=72 velocity=0 time=12
the msg is note_on channel=0 note=72 velocity=100 time=0
the msg is note_off channel=0 note=76 velocity=0 time=12
the msg is note_on channel=0 note=76 velocity=100 time=0
the msg is note_off channel=0 note=79 velocity=0 time=25
the msg is note_on channel=0 note=79 velocity=100 time=0
the msg is note_off channel=0 note=79 velocity=0 time=12
the msg is note_on channel=0 note=79 velocity=100 time=0
the msg is note_off channel=0 note=76 velocity=0 time=12
the msg is note_on channel=0 note=76 velocity=100 time=0
the msg is note_off channel=0 note=74 velocity=0 time=12
the msg is note_on channel=0 note=74 velocity=100 time=0
the msg is note_off channel=0 note=72 velocity=0 time=12
the msg is note_on channel=0 note=72 velocity=100 time=0
the msg is note_off channel=0 note=72 velocity=0 time=76
the msg is note_on channel=0 note=72 velocity=100 time=0
the msg is note_off channel=0 note=72 velocity=0 time=12
the msg is note_on channel=0 note=72 velocity=100 time=0
the msg is note_off channel=0 note=72 velocity=0 time=12
the msg is note_on channel=0 note=72 velocity=100 time=0
the msg is note_off channel=0 note=72 velocity=0 time=8
the msg is note_on channel=0 note=72 velocity=100 time=0
the msg is note_off channel=0 note=72 velocity=0 time=17
the msg is note_on channel=0 note=72 velocity=100 time=0
the msg is note_off channel=0 note=72 velocity=0 time=12
the msg is note_on channel=0 note=72 velocity=100 time=0
the msg is note_off channel=0 note=72 velocity=0 time=12
the msg is note_on channel=0 note=72 velocity=100 time=0
the msg is note_off channel=0 note=76 velocity=0 time=8
the msg is note_on channel=0 note=76 velocity=100 time=0
the msg is note_off channel=0 note=79 velocity=0 time=29
the msg is note_on channel=0 note=79 velocity=100 time=0
the msg is note_off channel=0 note=79 velocity=0 time=12
the msg is note_on channel=0 note=79 velocity=100 time=0
the msg is note_off channel=0 note=76 velocity=0 time=8
the msg is note_on channel=0 note=76 velocity=100 time=0
the msg is note_off channel=0 note=74 velocity=0 time=17
the msg is note_on channel=0 note=74 velocity=100 time=0
the msg is <meta message end_of_track time=51>
the msg is <meta message track_name name='Piano' time=0>
the msg is program_change channel=0 program=0 time=0
the msg is note_off channel=0 note=72 velocity=0 time=0
the msg is pitchwheel channel=0 pitch=0 time=0
the msg is program_change channel=0 program=0 time=0
the msg is <meta message set_tempo tempo=500000 time=0>
the msg is <meta message time_signature numerator=4 denominator=4 clocks_per_click=24 notated_32nd_notes_per_beat=8 time=0>
the msg is note_on channel=0 note=72 velocity=100 time=0
the msg is note_off channel=0 note=74 velocity=0 time=34
the msg is note_on channel=0 note=74 velocity=100 time=0
the msg is note_off channel=0 note=74 velocity=0 time=17
the msg is note_on channel=0 note=74 velocity=100 time=0
the msg is note_off channel=0 note=74 velocity=0 time=34
the msg is note_on channel=0 note=74 velocity=100 time=0
the msg is note_off channel=0 note=74 velocity=0 time=17
the msg is note_on channel=0 note=74 velocity=100 time=0
the msg is note_off channel=0 note=76 velocity=0 time=34
the msg is note_on channel=0 note=76 velocity=100 time=0
the msg is note_off channel=0 note=79 velocity=0 time=17
the msg is note_on channel=0 note=79 velocity=100 time=0
the msg is note_off channel=0 note=79 velocity=0 time=17
the msg is note_on channel=0 note=79 velocity=100 time=0
the msg is note_off channel=0 note=76 velocity=0 time=17
the msg is note_on channel=0 note=76 velocity=100 time=0
the msg is note_off channel=0 note=74 velocity=0 time=4
the msg is note_on channel=0 note=74 velocity=100 time=0
the msg is note_off channel=0 note=72 velocity=0 time=12
the msg is note_on channel=0 note=72 velocity=100 time=0
the msg is note_off channel=0 note=72 velocity=0 time=89
the msg is note_on channel=0 note=72 velocity=100 time=0
the msg is note_off channel=0 note=72 velocity=0 time=12
the msg is note_on channel=0 note=72 velocity=100 time=0
the msg is note_off channel=0 note=74 velocity=0 time=25
the msg is note_on channel=0 note=74 velocity=100 time=0
the msg is note_off channel=0 note=74 velocity=0 time=25
the msg is note_on channel=0 note=74 velocity=100 time=0
the msg is note_off channel=0 note=74 velocity=0 time=12
the msg is note_on channel=0 note=74 velocity=100 time=0
the msg is note_off channel=0 note=76 velocity=0 time=25
the msg is note_on channel=0 note=76 velocity=100 time=0
the msg is note_off channel=0 note=79 velocity=0 time=25
the msg is note_on channel=0 note=79 velocity=100 time=0
the msg is note_off channel=0 note=79 velocity=0 time=12
the msg is note_on channel=0 note=79 velocity=100 time=0
the msg is note_off channel=0 note=76 velocity=0 time=12
the msg is note_on channel=0 note=76 velocity=100 time=0
the msg is note_off channel=0 note=74 velocity=0 time=12
the msg is note_on channel=0 note=74 velocity=100 time=0
the msg is note_off channel=0 note=72 velocity=0 time=12
the msg is note_on channel=0 note=72 velocity=100 time=0
the msg is note_off channel=0 note=74 velocity=0 time=25
the msg is note_on channel=0 note=74 velocity=100 time=0
the msg is note_off channel=0 note=76 velocity=0 time=25
the msg is note_on channel=0 note=76 velocity=100 time=0
the msg is note_off channel=0 note=79 velocity=0 time=25
the msg is note_on channel=0 note=79 velocity=100 time=0
the msg is note_off channel=0 note=79 velocity=0 time=12
the msg is note_on channel=0 note=79 velocity=100 time=0
the msg is note_off channel=0 note=76 velocity=0 time=12
the msg is note_on channel=0 note=76 velocity=100 time=0
the msg is note_off channel=0 note=74 velocity=0 time=12
the msg is note_on channel=0 note=74 velocity=100 time=0
the msg is note_off channel=0 note=72 velocity=0 time=12
the msg is note_on channel=0 note=72 velocity=100 time=0
the msg is note_off channel=0 note=74 velocity=0 time=25
the msg is note_on channel=0 note=74 velocity=100 time=0
the msg is note_off channel=0 note=74 velocity=0 time=12
the msg is note_on channel=0 note=74 velocity=100 time=0
the msg is note_off channel=0 note=74 velocity=0 time=12
the msg is note_on channel=0 note=74 velocity=100 time=0
the msg is note_off channel=0 note=74 velocity=0 time=25
the msg is note_on channel=0 note=74 velocity=100 time=0
the msg is note_off channel=0 note=74 velocity=0 time=25
the msg is note_on channel=0 note=74 velocity=100 time=0
the msg is note_off channel=0 note=76 velocity=0 time=25
the msg is note_on channel=0 note=76 velocity=100 time=0
the msg is note_off channel=0 note=79 velocity=0 time=25
the msg is note_on channel=0 note=79 velocity=100 time=0
the msg is note_off channel=0 note=79 velocity=0 time=12
the msg is note_on channel=0 note=79 velocity=100 time=0
the msg is note_off channel=0 note=76 velocity=0 time=12
the msg is note_on channel=0 note=76 velocity=100 time=0
the msg is note_off channel=0 note=74 velocity=0 time=12
the msg is note_on channel=0 note=74 velocity=100 time=0
the msg is note_off channel=0 note=72 velocity=0 time=12
the msg is note_on channel=0 note=72 velocity=100 time=0
the msg is note_off channel=0 note=72 velocity=0 time=81
the msg is note_on channel=0 note=72 velocity=100 time=0
the msg is note_off channel=0 note=72 velocity=0 time=8
the msg is note_on channel=0 note=72 velocity=100 time=0
the msg is note_off channel=0 note=74 velocity=0 time=25
the msg is note_on channel=0 note=74 velocity=100 time=0
the msg is note_off channel=0 note=74 velocity=0 time=25
the msg is note_on channel=0 note=74 velocity=100 time=0
the msg is note_off channel=0 note=74 velocity=0 time=25
the msg is note_on channel=0 note=74 velocity=100 time=0
the msg is note_off channel=0 note=74 velocity=0 time=25
the msg is note_on channel=0 note=74 velocity=100 time=0
the msg is note_off channel=0 note=74 velocity=0 time=25
the msg is note_on channel=0 note=74 velocity=100 time=0
the msg is note_off channel=0 note=74 velocity=0 time=25
the msg is note_on channel=0 note=74 velocity=100 time=0
the msg is note_off channel=0 note=76 velocity=0 time=25
the msg is note_on channel=0 note=76 velocity=100 time=0
the msg is note_off channel=0 note=79 velocity=0 time=25
the msg is note_on channel=0 note=79 velocity=100 time=0
the msg is note_off channel=0 note=79 velocity=0 time=12
the msg is note_on channel=0 note=79 velocity=100 time=0
the msg is note_off channel=0 note=76 velocity=0 time=12
the msg is note_on channel=0 note=76 velocity=100 time=0
the msg is note_off channel=0 note=74 velocity=0 time=17
the msg is note_on channel=0 note=74 velocity=100 time=0
the msg is note_off channel=0 note=72 velocity=0 time=8
the msg is note_on channel=0 note=72 velocity=100 time=0
the msg is note_off channel=0 note=72 velocity=0 time=25
the msg is note_on channel=0 note=72 velocity=100 time=0
the msg is note_off channel=0 note=72 velocity=0 time=25
the msg is note_on channel=0 note=72 velocity=100 time=0
the msg is note_off channel=0 note=72 velocity=0 time=12
the msg is note_on channel=0 note=72 velocity=100 time=0
the msg is note_off channel=0 note=72 velocity=0 time=29
the msg is note_on channel=0 note=72 velocity=100 time=0
the msg is note_off channel=0 note=72 velocity=0 time=8
the msg is note_on channel=0 note=72 velocity=100 time=0
the msg is note_off channel=0 note=72 velocity=0 time=25
the msg is note_on channel=0 note=72 velocity=100 time=0
the msg is note_off channel=0 note=72 velocity=0 time=12
the msg is note_on channel=0 note=72 velocity=100 time=0
the msg is note_off channel=0 note=72 velocity=0 time=12
the msg is note_on channel=0 note=72 velocity=100 time=0
the msg is note_off channel=0 note=72 velocity=0 time=12
the msg is note_on channel=0 note=72 velocity=100 time=0
the msg is note_off channel=0 note=76 velocity=0 time=12
the msg is note_on channel=0 note=76 velocity=100 time=0
the msg is note_off channel=0 note=79 velocity=0 time=25
the msg is note_on channel=0 note=79 velocity=100 time=0
the msg is note_off channel=0 note=79 velocity=0 time=12
the msg is note_on channel=0 note=79 velocity=100 time=0
the msg is note_off channel=0 note=76 velocity=0 time=12
the msg is note_on channel=0 note=76 velocity=100 time=0
the msg is note_off channel=0 note=74 velocity=0 time=12
the msg is note_on channel=0 note=74 velocity=100 time=0
the msg is note_off channel=0 note=72 velocity=0 time=12
the msg is note_on channel=0 note=72 velocity=100 time=0
the msg is note_off channel=0 note=72 velocity=0 time=76
the msg is note_on channel=0 note=72 velocity=100 time=0
the msg is note_off channel=0 note=72 velocity=0 time=12
the msg is note_on channel=0 note=72 velocity=100 time=0
the msg is note_off channel=0 note=72 velocity=0 time=12
the msg is note_on channel=0 note=72 velocity=100 time=0
the msg is note_off channel=0 note=72 velocity=0 time=8
the msg is note_on channel=0 note=72 velocity=100 time=0
the msg is note_off channel=0 note=72 velocity=0 time=17
the msg is note_on channel=0 note=72 velocity=100 time=0
the msg is note_off channel=0 note=72 velocity=0 time=12
the msg is note_on channel=0 note=72 velocity=100 time=0
the msg is note_off channel=0 note=72 velocity=0 time=12
the msg is note_on channel=0 note=72 velocity=100 time=0
the msg is note_off channel=0 note=76 velocity=0 time=8
the msg is note_on channel=0 note=76 velocity=100 time=0
the msg is note_off channel=0 note=79 velocity=0 time=29
the msg is note_on channel=0 note=79 velocity=100 time=0
the msg is note_off channel=0 note=79 velocity=0 time=12
the msg is note_on channel=0 note=79 velocity=100 time=0
the msg is note_off channel=0 note=76 velocity=0 time=8
the msg is note_on channel=0 note=76 velocity=100 time=0
the msg is note_off channel=0 note=74 velocity=0 time=17
the msg is note_on channel=0 note=74 velocity=100 time=0
the msg is <meta message end_of_track time=51>
the msg is <meta message track_name name='Piano' time=0>
the msg is program_change channel=0 program=0 time=0
the msg is note_off channel=0 note=72 velocity=0 time=0
the msg is pitchwheel channel=0 pitch=0 time=0
the msg is program_change channel=0 program=0 time=0
the msg is <meta message set_tempo tempo=500000 time=0>
the msg is <meta message time_signature numerator=4 denominator=4 clocks_per_click=24 notated_32nd_notes_per_beat=8 time=0>
the msg is note_on channel=0 note=72 velocity=100 time=0
the msg is note_off channel=0 note=74 velocity=0 time=34
the msg is note_on channel=0 note=74 velocity=100 time=0
the msg is note_off channel=0 note=74 velocity=0 time=17
the msg is note_on channel=0 note=74 velocity=100 time=0
the msg is note_off channel=0 note=74 velocity=0 time=34
the msg is note_on channel=0 note=74 velocity=100 time=0
the msg is note_off channel=0 note=74 velocity=0 time=17
the msg is note_on channel=0 note=74 velocity=100 time=0
the msg is note_off channel=0 note=76 velocity=0 time=34
the msg is note_on channel=0 note=76 velocity=100 time=0
the msg is note_off channel=0 note=79 velocity=0 time=17
the msg is note_on channel=0 note=79 velocity=100 time=0
the msg is note_off channel=0 note=79 velocity=0 time=17
the msg is note_on channel=0 note=79 velocity=100 time=0
the msg is note_off channel=0 note=76 velocity=0 time=17
the msg is note_on channel=0 note=76 velocity=100 time=0
the msg is note_off channel=0 note=74 velocity=0 time=4
the msg is note_on channel=0 note=74 velocity=100 time=0
the msg is note_off channel=0 note=72 velocity=0 time=12
the msg is note_on channel=0 note=72 velocity=100 time=0
the msg is note_off channel=0 note=72 velocity=0 time=89
the msg is note_on channel=0 note=72 velocity=100 time=0
the msg is note_off channel=0 note=72 velocity=0 time=12
the msg is note_on channel=0 note=72 velocity=100 time=0
the msg is note_off channel=0 note=74 velocity=0 time=25
the msg is note_on channel=0 note=74 velocity=100 time=0
the msg is note_off channel=0 note=74 velocity=0 time=25
the msg is note_on channel=0 note=74 velocity=100 time=0
the msg is note_off channel=0 note=74 velocity=0 time=12
the msg is note_on channel=0 note=74 velocity=100 time=0
the msg is note_off channel=0 note=76 velocity=0 time=25
the msg is note_on channel=0 note=76 velocity=100 time=0
the msg is note_off channel=0 note=79 velocity=0 time=25
the msg is note_on channel=0 note=79 velocity=100 time=0
the msg is note_off channel=0 note=79 velocity=0 time=12
the msg is note_on channel=0 note=79 velocity=100 time=0
the msg is note_off channel=0 note=76 velocity=0 time=12
the msg is note_on channel=0 note=76 velocity=100 time=0
the msg is note_off channel=0 note=74 velocity=0 time=12
the msg is note_on channel=0 note=74 velocity=100 time=0
the msg is note_off channel=0 note=72 velocity=0 time=12
the msg is note_on channel=0 note=72 velocity=100 time=0
the msg is note_off channel=0 note=74 velocity=0 time=25
the msg is note_on channel=0 note=74 velocity=100 time=0
the msg is note_off channel=0 note=76 velocity=0 time=25
the msg is note_on channel=0 note=76 velocity=100 time=0
the msg is note_off channel=0 note=79 velocity=0 time=25
the msg is note_on channel=0 note=79 velocity=100 time=0
the msg is note_off channel=0 note=79 velocity=0 time=12
the msg is note_on channel=0 note=79 velocity=100 time=0
the msg is note_off channel=0 note=76 velocity=0 time=12
the msg is note_on channel=0 note=76 velocity=100 time=0
the msg is note_off channel=0 note=74 velocity=0 time=12
the msg is note_on channel=0 note=74 velocity=100 time=0
the msg is note_off channel=0 note=72 velocity=0 time=12
the msg is note_on channel=0 note=72 velocity=100 time=0
the msg is note_off channel=0 note=74 velocity=0 time=25
the msg is note_on channel=0 note=74 velocity=100 time=0
the msg is note_off channel=0 note=74 velocity=0 time=12
the msg is note_on channel=0 note=74 velocity=100 time=0
the msg is note_off channel=0 note=74 velocity=0 time=12
the msg is note_on channel=0 note=74 velocity=100 time=0
the msg is note_off channel=0 note=74 velocity=0 time=25
the msg is note_on channel=0 note=74 velocity=100 time=0
the msg is note_off channel=0 note=74 velocity=0 time=25
the msg is note_on channel=0 note=74 velocity=100 time=0
the msg is note_off channel=0 note=76 velocity=0 time=25
the msg is note_on channel=0 note=76 velocity=100 time=0
the msg is note_off channel=0 note=79 velocity=0 time=25
the msg is note_on channel=0 note=79 velocity=100 time=0
the msg is note_off channel=0 note=79 velocity=0 time=12
the msg is note_on channel=0 note=79 velocity=100 time=0
the msg is note_off channel=0 note=76 velocity=0 time=12
the msg is note_on channel=0 note=76 velocity=100 time=0
the msg is note_off channel=0 note=74 velocity=0 time=12
the msg is note_on channel=0 note=74 velocity=100 time=0
the msg is note_off channel=0 note=72 velocity=0 time=12
the msg is note_on channel=0 note=72 velocity=100 time=0
the msg is note_off channel=0 note=72 velocity=0 time=81
the msg is note_on channel=0 note=72 velocity=100 time=0
the msg is note_off channel=0 note=72 velocity=0 time=8
the msg is note_on channel=0 note=72 velocity=100 time=0
the msg is note_off channel=0 note=74 velocity=0 time=25
the msg is note_on channel=0 note=74 velocity=100 time=0
the msg is note_off channel=0 note=74 velocity=0 time=25
the msg is note_on channel=0 note=74 velocity=100 time=0
the msg is note_off channel=0 note=74 velocity=0 time=25
the msg is note_on channel=0 note=74 velocity=100 time=0
the msg is note_off channel=0 note=74 velocity=0 time=25
the msg is note_on channel=0 note=74 velocity=100 time=0
the msg is note_off channel=0 note=74 velocity=0 time=25
the msg is note_on channel=0 note=74 velocity=100 time=0
the msg is note_off channel=0 note=74 velocity=0 time=25
the msg is note_on channel=0 note=74 velocity=100 time=0
the msg is note_off channel=0 note=76 velocity=0 time=25
the msg is note_on channel=0 note=76 velocity=100 time=0
the msg is note_off channel=0 note=79 velocity=0 time=25
the msg is note_on channel=0 note=79 velocity=100 time=0
the msg is note_off channel=0 note=79 velocity=0 time=12
the msg is note_on channel=0 note=79 velocity=100 time=0
the msg is note_off channel=0 note=76 velocity=0 time=12
the msg is note_on channel=0 note=76 velocity=100 time=0
the msg is note_off channel=0 note=74 velocity=0 time=17
the msg is note_on channel=0 note=74 velocity=100 time=0
the msg is note_off channel=0 note=72 velocity=0 time=8
the msg is note_on channel=0 note=72 velocity=100 time=0
the msg is note_off channel=0 note=72 velocity=0 time=25
the msg is note_on channel=0 note=72 velocity=100 time=0
the msg is note_off channel=0 note=72 velocity=0 time=25
the msg is note_on channel=0 note=72 velocity=100 time=0
the msg is note_off channel=0 note=72 velocity=0 time=12
the msg is note_on channel=0 note=72 velocity=100 time=0
the msg is note_off channel=0 note=72 velocity=0 time=29
the msg is note_on channel=0 note=72 velocity=100 time=0
the msg is note_off channel=0 note=72 velocity=0 time=8
the msg is note_on channel=0 note=72 velocity=100 time=0
the msg is note_off channel=0 note=72 velocity=0 time=25
the msg is note_on channel=0 note=72 velocity=100 time=0
the msg is note_off channel=0 note=72 velocity=0 time=12
the msg is note_on channel=0 note=72 velocity=100 time=0
the msg is note_off channel=0 note=72 velocity=0 time=12
the msg is note_on channel=0 note=72 velocity=100 time=0
the msg is note_off channel=0 note=72 velocity=0 time=12
the msg is note_on channel=0 note=72 velocity=100 time=0
the msg is note_off channel=0 note=76 velocity=0 time=12
the msg is note_on channel=0 note=76 velocity=100 time=0
the msg is note_off channel=0 note=79 velocity=0 time=25
the msg is note_on channel=0 note=79 velocity=100 time=0
the msg is note_off channel=0 note=79 velocity=0 time=12
the msg is note_on channel=0 note=79 velocity=100 time=0
the msg is note_off channel=0 note=76 velocity=0 time=12
the msg is note_on channel=0 note=76 velocity=100 time=0
the msg is note_off channel=0 note=74 velocity=0 time=12
the msg is note_on channel=0 note=74 velocity=100 time=0
the msg is note_off channel=0 note=72 velocity=0 time=12
the msg is note_on channel=0 note=72 velocity=100 time=0
the msg is note_off channel=0 note=72 velocity=0 time=76
the msg is note_on channel=0 note=72 velocity=100 time=0
the msg is note_off channel=0 note=72 velocity=0 time=12
the msg is note_on channel=0 note=72 velocity=100 time=0
the msg is note_off channel=0 note=72 velocity=0 time=12
the msg is note_on channel=0 note=72 velocity=100 time=0
the msg is note_off channel=0 note=72 velocity=0 time=8
the msg is note_on channel=0 note=72 velocity=100 time=0
the msg is note_off channel=0 note=72 velocity=0 time=17
the msg is note_on channel=0 note=72 velocity=100 time=0
the msg is note_off channel=0 note=72 velocity=0 time=12
the msg is note_on channel=0 note=72 velocity=100 time=0
the msg is note_off channel=0 note=72 velocity=0 time=12
the msg is note_on channel=0 note=72 velocity=100 time=0
the msg is note_off channel=0 note=76 velocity=0 time=8
the msg is note_on channel=0 note=76 velocity=100 time=0
the msg is note_off channel=0 note=79 velocity=0 time=29
the msg is note_on channel=0 note=79 velocity=100 time=0
the msg is note_off channel=0 note=79 velocity=0 time=12
the msg is note_on channel=0 note=79 velocity=100 time=0
the msg is note_off channel=0 note=76 velocity=0 time=8
the msg is note_on channel=0 note=76 velocity=100 time=0
the msg is note_off channel=0 note=74 velocity=0 time=17
the msg is note_on channel=0 note=74 velocity=100 time=0
the msg is <meta message end_of_track time=51>
the msg is <meta message track_name name='Piano' time=0>
the msg is program_change channel=0 program=0 time=0
the msg is note_off channel=0 note=72 velocity=0 time=0
the msg is pitchwheel channel=0 pitch=0 time=0
the msg is program_change channel=0 program=0 time=0
the msg is <meta message set_tempo tempo=500000 time=0>
the msg is <meta message time_signature numerator=4 denominator=4 clocks_per_click=24 notated_32nd_notes_per_beat=8 time=0>
the msg is note_on channel=0 note=72 velocity=100 time=0
the msg is note_off channel=0 note=74 velocity=0 time=34
the msg is note_on channel=0 note=74 velocity=100 time=0
the msg is note_off channel=0 note=74 velocity=0 time=17
the msg is note_on channel=0 note=74 velocity=100 time=0
the msg is note_off channel=0 note=74 velocity=0 time=34
the msg is note_on channel=0 note=74 velocity=100 time=0
the msg is note_off channel=0 note=74 velocity=0 time=17
the msg is note_on channel=0 note=74 velocity=100 time=0
the msg is note_off channel=0 note=76 velocity=0 time=34
the msg is note_on channel=0 note=76 velocity=100 time=0
the msg is note_off channel=0 note=79 velocity=0 time=17
the msg is note_on channel=0 note=79 velocity=100 time=0
the msg is note_off channel=0 note=79 velocity=0 time=17
the msg is note_on channel=0 note=79 velocity=100 time=0
the msg is note_off channel=0 note=76 velocity=0 time=17
the msg is note_on channel=0 note=76 velocity=100 time=0
the msg is note_off channel=0 note=74 velocity=0 time=4
the msg is note_on channel=0 note=74 velocity=100 time=0
the msg is note_off channel=0 note=72 velocity=0 time=12
the msg is note_on channel=0 note=72 velocity=100 time=0
the msg is note_off channel=0 note=72 velocity=0 time=89
the msg is note_on channel=0 note=72 velocity=100 time=0
the msg is note_off channel=0 note=72 velocity=0 time=12
the msg is note_on channel=0 note=72 velocity=100 time=0
the msg is note_off channel=0 note=74 velocity=0 time=25
the msg is note_on channel=0 note=74 velocity=100 time=0
the msg is note_off channel=0 note=74 velocity=0 time=25
the msg is note_on channel=0 note=74 velocity=100 time=0
the msg is note_off channel=0 note=74 velocity=0 time=12
the msg is note_on channel=0 note=74 velocity=100 time=0
the msg is note_off channel=0 note=76 velocity=0 time=25
the msg is note_on channel=0 note=76 velocity=100 time=0
the msg is note_off channel=0 note=79 velocity=0 time=25
the msg is note_on channel=0 note=79 velocity=100 time=0
the msg is note_off channel=0 note=79 velocity=0 time=12
the msg is note_on channel=0 note=79 velocity=100 time=0
the msg is note_off channel=0 note=76 velocity=0 time=12
the msg is note_on channel=0 note=76 velocity=100 time=0
the msg is note_off channel=0 note=74 velocity=0 time=12
the msg is note_on channel=0 note=74 velocity=100 time=0
the msg is note_off channel=0 note=72 velocity=0 time=12
the msg is note_on channel=0 note=72 velocity=100 time=0
the msg is note_off channel=0 note=74 velocity=0 time=25
the msg is note_on channel=0 note=74 velocity=100 time=0
the msg is note_off channel=0 note=76 velocity=0 time=25
the msg is note_on channel=0 note=76 velocity=100 time=0
the msg is note_off channel=0 note=79 velocity=0 time=25
the msg is note_on channel=0 note=79 velocity=100 time=0
the msg is note_off channel=0 note=79 velocity=0 time=12
the msg is note_on channel=0 note=79 velocity=100 time=0
the msg is note_off channel=0 note=76 velocity=0 time=12
the msg is note_on channel=0 note=76 velocity=100 time=0
the msg is note_off channel=0 note=74 velocity=0 time=12
the msg is note_on channel=0 note=74 velocity=100 time=0
the msg is note_off channel=0 note=72 velocity=0 time=12
the msg is note_on channel=0 note=72 velocity=100 time=0
the msg is note_off channel=0 note=74 velocity=0 time=25
the msg is note_on channel=0 note=74 velocity=100 time=0
the msg is note_off channel=0 note=74 velocity=0 time=12
the msg is note_on channel=0 note=74 velocity=100 time=0
the msg is note_off channel=0 note=74 velocity=0 time=12
the msg is note_on channel=0 note=74 velocity=100 time=0
the msg is note_off channel=0 note=74 velocity=0 time=25
the msg is note_on channel=0 note=74 velocity=100 time=0
the msg is note_off channel=0 note=74 velocity=0 time=25
the msg is note_on channel=0 note=74 velocity=100 time=0
the msg is note_off channel=0 note=76 velocity=0 time=25
the msg is note_on channel=0 note=76 velocity=100 time=0
the msg is note_off channel=0 note=79 velocity=0 time=25
the msg is note_on channel=0 note=79 velocity=100 time=0
the msg is note_off channel=0 note=79 velocity=0 time=12
the msg is note_on channel=0 note=79 velocity=100 time=0
the msg is note_off channel=0 note=76 velocity=0 time=12
the msg is note_on channel=0 note=76 velocity=100 time=0
the msg is note_off channel=0 note=74 velocity=0 time=12
the msg is note_on channel=0 note=74 velocity=100 time=0
the msg is note_off channel=0 note=72 velocity=0 time=12
the msg is note_on channel=0 note=72 velocity=100 time=0
the msg is note_off channel=0 note=72 velocity=0 time=81
the msg is note_on channel=0 note=72 velocity=100 time=0
the msg is note_off channel=0 note=72 velocity=0 time=8
the msg is note_on channel=0 note=72 velocity=100 time=0
the msg is note_off channel=0 note=74 velocity=0 time=25
the msg is note_on channel=0 note=74 velocity=100 time=0
the msg is note_off channel=0 note=74 velocity=0 time=25
the msg is note_on channel=0 note=74 velocity=100 time=0
the msg is note_off channel=0 note=74 velocity=0 time=25
the msg is note_on channel=0 note=74 velocity=100 time=0
the msg is note_off channel=0 note=74 velocity=0 time=25
the msg is note_on channel=0 note=74 velocity=100 time=0
the msg is note_off channel=0 note=74 velocity=0 time=25
the msg is note_on channel=0 note=74 velocity=100 time=0
the msg is note_off channel=0 note=74 velocity=0 time=25
the msg is note_on channel=0 note=74 velocity=100 time=0
the msg is note_off channel=0 note=76 velocity=0 time=25
the msg is note_on channel=0 note=76 velocity=100 time=0
the msg is note_off channel=0 note=79 velocity=0 time=25
the msg is note_on channel=0 note=79 velocity=100 time=0
the msg is note_off channel=0 note=79 velocity=0 time=12
the msg is note_on channel=0 note=79 velocity=100 time=0
the msg is note_off channel=0 note=76 velocity=0 time=12
the msg is note_on channel=0 note=76 velocity=100 time=0
the msg is note_off channel=0 note=74 velocity=0 time=17
the msg is note_on channel=0 note=74 velocity=100 time=0
the msg is note_off channel=0 note=72 velocity=0 time=8
the msg is note_on channel=0 note=72 velocity=100 time=0
the msg is note_off channel=0 note=72 velocity=0 time=25
the msg is note_on channel=0 note=72 velocity=100 time=0
the msg is note_off channel=0 note=72 velocity=0 time=25
the msg is note_on channel=0 note=72 velocity=100 time=0
the msg is note_off channel=0 note=72 velocity=0 time=12
the msg is note_on channel=0 note=72 velocity=100 time=0
the msg is note_off channel=0 note=72 velocity=0 time=29
the msg is note_on channel=0 note=72 velocity=100 time=0
the msg is note_off channel=0 note=72 velocity=0 time=8
the msg is note_on channel=0 note=72 velocity=100 time=0
the msg is note_off channel=0 note=72 velocity=0 time=25
the msg is note_on channel=0 note=72 velocity=100 time=0
the msg is note_off channel=0 note=72 velocity=0 time=12
the msg is note_on channel=0 note=72 velocity=100 time=0
the msg is note_off channel=0 note=72 velocity=0 time=12
the msg is note_on channel=0 note=72 velocity=100 time=0
the msg is note_off channel=0 note=72 velocity=0 time=12
the msg is note_on channel=0 note=72 velocity=100 time=0
the msg is note_off channel=0 note=76 velocity=0 time=12
the msg is note_on channel=0 note=76 velocity=100 time=0
the msg is note_off channel=0 note=79 velocity=0 time=25
the msg is note_on channel=0 note=79 velocity=100 time=0
the msg is note_off channel=0 note=79 velocity=0 time=12
the msg is note_on channel=0 note=79 velocity=100 time=0
the msg is note_off channel=0 note=76 velocity=0 time=12
the msg is note_on channel=0 note=76 velocity=100 time=0
the msg is note_off channel=0 note=74 velocity=0 time=12
the msg is note_on channel=0 note=74 velocity=100 time=0
the msg is note_off channel=0 note=72 velocity=0 time=12
the msg is note_on channel=0 note=72 velocity=100 time=0
the msg is note_off channel=0 note=72 velocity=0 time=76
the msg is note_on channel=0 note=72 velocity=100 time=0
the msg is note_off channel=0 note=72 velocity=0 time=12
the msg is note_on channel=0 note=72 velocity=100 time=0
the msg is note_off channel=0 note=72 velocity=0 time=12
the msg is note_on channel=0 note=72 velocity=100 time=0
the msg is note_off channel=0 note=72 velocity=0 time=8
the msg is note_on channel=0 note=72 velocity=100 time=0
the msg is note_off channel=0 note=72 velocity=0 time=17
the msg is note_on channel=0 note=72 velocity=100 time=0
the msg is note_off channel=0 note=72 velocity=0 time=12
the msg is note_on channel=0 note=72 velocity=100 time=0
the msg is note_off channel=0 note=72 velocity=0 time=12
the msg is note_on channel=0 note=72 velocity=100 time=0
the msg is note_off channel=0 note=76 velocity=0 time=8
the msg is note_on channel=0 note=76 velocity=100 time=0
the msg is note_off channel=0 note=79 velocity=0 time=29
the msg is note_on channel=0 note=79 velocity=100 time=0
the msg is note_off channel=0 note=79 velocity=0 time=12
the msg is note_on channel=0 note=79 velocity=100 time=0
the msg is note_off channel=0 note=76 velocity=0 time=8
the msg is note_on channel=0 note=76 velocity=100 time=0
the msg is note_off channel=0 note=74 velocity=0 time=17
the msg is note_on channel=0 note=74 velocity=100 time=0
the msg is <meta message end_of_track time=51>
the msg is <meta message track_name name='Piano' time=0>
the msg is program_change channel=0 program=0 time=0
the msg is note_off channel=0 note=72 velocity=0 time=0
the msg is pitchwheel channel=0 pitch=0 time=0
the msg is program_change channel=0 program=0 time=0
the msg is <meta message set_tempo tempo=500000 time=0>
the msg is <meta message time_signature numerator=4 denominator=4 clocks_per_click=24 notated_32nd_notes_per_beat=8 time=0>
the msg is note_on channel=0 note=72 velocity=100 time=0
the msg is note_off channel=0 note=74 velocity=0 time=34
the msg is note_on channel=0 note=74 velocity=100 time=0
the msg is note_off channel=0 note=74 velocity=0 time=17
the msg is note_on channel=0 note=74 velocity=100 time=0
the msg is note_off channel=0 note=74 velocity=0 time=34
the msg is note_on channel=0 note=74 velocity=100 time=0
the msg is note_off channel=0 note=74 velocity=0 time=17
the msg is note_on channel=0 note=74 velocity=100 time=0
the msg is note_off channel=0 note=76 velocity=0 time=34
the msg is note_on channel=0 note=76 velocity=100 time=0
the msg is note_off channel=0 note=79 velocity=0 time=17
the msg is note_on channel=0 note=79 velocity=100 time=0
the msg is note_off channel=0 note=79 velocity=0 time=17
the msg is note_on channel=0 note=79 velocity=100 time=0
the msg is note_off channel=0 note=76 velocity=0 time=17
the msg is note_on channel=0 note=76 velocity=100 time=0
the msg is note_off channel=0 note=74 velocity=0 time=4
the msg is note_on channel=0 note=74 velocity=100 time=0
the msg is note_off channel=0 note=72 velocity=0 time=12
the msg is note_on channel=0 note=72 velocity=100 time=0
the msg is note_off channel=0 note=72 velocity=0 time=89
the msg is note_on channel=0 note=72 velocity=100 time=0
the msg is note_off channel=0 note=72 velocity=0 time=12
the msg is note_on channel=0 note=72 velocity=100 time=0
the msg is note_off channel=0 note=74 velocity=0 time=25
the msg is note_on channel=0 note=74 velocity=100 time=0
the msg is note_off channel=0 note=74 velocity=0 time=25
the msg is note_on channel=0 note=74 velocity=100 time=0
the msg is note_off channel=0 note=74 velocity=0 time=12
the msg is note_on channel=0 note=74 velocity=100 time=0
the msg is note_off channel=0 note=76 velocity=0 time=25
the msg is note_on channel=0 note=76 velocity=100 time=0
the msg is note_off channel=0 note=79 velocity=0 time=25
the msg is note_on channel=0 note=79 velocity=100 time=0
the msg is note_off channel=0 note=79 velocity=0 time=12
the msg is note_on channel=0 note=79 velocity=100 time=0
the msg is note_off channel=0 note=76 velocity=0 time=12
the msg is note_on channel=0 note=76 velocity=100 time=0
the msg is note_off channel=0 note=74 velocity=0 time=12
the msg is note_on channel=0 note=74 velocity=100 time=0
the msg is note_off channel=0 note=72 velocity=0 time=12
the msg is note_on channel=0 note=72 velocity=100 time=0
the msg is note_off channel=0 note=74 velocity=0 time=25
the msg is note_on channel=0 note=74 velocity=100 time=0
the msg is note_off channel=0 note=76 velocity=0 time=25
the msg is note_on channel=0 note=76 velocity=100 time=0
the msg is note_off channel=0 note=79 velocity=0 time=25
the msg is note_on channel=0 note=79 velocity=100 time=0
the msg is note_off channel=0 note=79 velocity=0 time=12
the msg is note_on channel=0 note=79 velocity=100 time=0
the msg is note_off channel=0 note=76 velocity=0 time=12
the msg is note_on channel=0 note=76 velocity=100 time=0
the msg is note_off channel=0 note=74 velocity=0 time=12
the msg is note_on channel=0 note=74 velocity=100 time=0
the msg is note_off channel=0 note=72 velocity=0 time=12
the msg is note_on channel=0 note=72 velocity=100 time=0
the msg is note_off channel=0 note=74 velocity=0 time=25
the msg is note_on channel=0 note=74 velocity=100 time=0
the msg is note_off channel=0 note=74 velocity=0 time=12
the msg is note_on channel=0 note=74 velocity=100 time=0
the msg is note_off channel=0 note=74 velocity=0 time=12
the msg is note_on channel=0 note=74 velocity=100 time=0
the msg is note_off channel=0 note=74 velocity=0 time=25
the msg is note_on channel=0 note=74 velocity=100 time=0
the msg is note_off channel=0 note=74 velocity=0 time=25
the msg is note_on channel=0 note=74 velocity=100 time=0
the msg is note_off channel=0 note=76 velocity=0 time=25
the msg is note_on channel=0 note=76 velocity=100 time=0
the msg is note_off channel=0 note=79 velocity=0 time=25
the msg is note_on channel=0 note=79 velocity=100 time=0
the msg is note_off channel=0 note=79 velocity=0 time=12
the msg is note_on channel=0 note=79 velocity=100 time=0
the msg is note_off channel=0 note=76 velocity=0 time=12
the msg is note_on channel=0 note=76 velocity=100 time=0
the msg is note_off channel=0 note=74 velocity=0 time=12
the msg is note_on channel=0 note=74 velocity=100 time=0
the msg is note_off channel=0 note=72 velocity=0 time=12
the msg is note_on channel=0 note=72 velocity=100 time=0
the msg is note_off channel=0 note=72 velocity=0 time=81
the msg is note_on channel=0 note=72 velocity=100 time=0
the msg is note_off channel=0 note=72 velocity=0 time=8
the msg is note_on channel=0 note=72 velocity=100 time=0
the msg is note_off channel=0 note=74 velocity=0 time=25
the msg is note_on channel=0 note=74 velocity=100 time=0
the msg is note_off channel=0 note=74 velocity=0 time=25
the msg is note_on channel=0 note=74 velocity=100 time=0
the msg is note_off channel=0 note=74 velocity=0 time=25
the msg is note_on channel=0 note=74 velocity=100 time=0
the msg is note_off channel=0 note=74 velocity=0 time=25
the msg is note_on channel=0 note=74 velocity=100 time=0
the msg is note_off channel=0 note=74 velocity=0 time=25
the msg is note_on channel=0 note=74 velocity=100 time=0
the msg is note_off channel=0 note=74 velocity=0 time=25
the msg is note_on channel=0 note=74 velocity=100 time=0
the msg is note_off channel=0 note=76 velocity=0 time=25
the msg is note_on channel=0 note=76 velocity=100 time=0
the msg is note_off channel=0 note=79 velocity=0 time=25
the msg is note_on channel=0 note=79 velocity=100 time=0
the msg is note_off channel=0 note=79 velocity=0 time=12
the msg is note_on channel=0 note=79 velocity=100 time=0
the msg is note_off channel=0 note=76 velocity=0 time=12
the msg is note_on channel=0 note=76 velocity=100 time=0
the msg is note_off channel=0 note=74 velocity=0 time=17
the msg is note_on channel=0 note=74 velocity=100 time=0
the msg is note_off channel=0 note=72 velocity=0 time=8
the msg is note_on channel=0 note=72 velocity=100 time=0
the msg is note_off channel=0 note=72 velocity=0 time=25
the msg is note_on channel=0 note=72 velocity=100 time=0
the msg is note_off channel=0 note=72 velocity=0 time=25
the msg is note_on channel=0 note=72 velocity=100 time=0
the msg is note_off channel=0 note=72 velocity=0 time=12
the msg is note_on channel=0 note=72 velocity=100 time=0
the msg is note_off channel=0 note=72 velocity=0 time=29
the msg is note_on channel=0 note=72 velocity=100 time=0
the msg is note_off channel=0 note=72 velocity=0 time=8
the msg is note_on channel=0 note=72 velocity=100 time=0
the msg is note_off channel=0 note=72 velocity=0 time=25
the msg is note_on channel=0 note=72 velocity=100 time=0
the msg is note_off channel=0 note=72 velocity=0 time=12
the msg is note_on channel=0 note=72 velocity=100 time=0
the msg is note_off channel=0 note=72 velocity=0 time=12
the msg is note_on channel=0 note=72 velocity=100 time=0
the msg is note_off channel=0 note=72 velocity=0 time=12
the msg is note_on channel=0 note=72 velocity=100 time=0
the msg is note_off channel=0 note=76 velocity=0 time=12
the msg is note_on channel=0 note=76 velocity=100 time=0
the msg is note_off channel=0 note=79 velocity=0 time=25
the msg is note_on channel=0 note=79 velocity=100 time=0
the msg is note_off channel=0 note=79 velocity=0 time=12
the msg is note_on channel=0 note=79 velocity=100 time=0
the msg is note_off channel=0 note=76 velocity=0 time=12
the msg is note_on channel=0 note=76 velocity=100 time=0
the msg is note_off channel=0 note=74 velocity=0 time=12
the msg is note_on channel=0 note=74 velocity=100 time=0
the msg is note_off channel=0 note=72 velocity=0 time=12
the msg is note_on channel=0 note=72 velocity=100 time=0
the msg is note_off channel=0 note=72 velocity=0 time=76
the msg is note_on channel=0 note=72 velocity=100 time=0
the msg is note_off channel=0 note=72 velocity=0 time=12
the msg is note_on channel=0 note=72 velocity=100 time=0
the msg is note_off channel=0 note=72 velocity=0 time=12
the msg is note_on channel=0 note=72 velocity=100 time=0
the msg is note_off channel=0 note=72 velocity=0 time=8
the msg is note_on channel=0 note=72 velocity=100 time=0
the msg is note_off channel=0 note=72 velocity=0 time=17
the msg is note_on channel=0 note=72 velocity=100 time=0
the msg is note_off channel=0 note=72 velocity=0 time=12
the msg is note_on channel=0 note=72 velocity=100 time=0
the msg is note_off channel=0 note=72 velocity=0 time=12
the msg is note_on channel=0 note=72 velocity=100 time=0
the msg is note_off channel=0 note=76 velocity=0 time=8
the msg is note_on channel=0 note=76 velocity=100 time=0
the msg is note_off channel=0 note=79 velocity=0 time=29
the msg is note_on channel=0 note=79 velocity=100 time=0
the msg is note_off channel=0 note=79 velocity=0 time=12
the msg is note_on channel=0 note=79 velocity=100 time=0
the msg is note_off channel=0 note=76 velocity=0 time=8
the msg is note_on channel=0 note=76 velocity=100 time=0
the msg is note_off channel=0 note=74 velocity=0 time=17
the msg is note_on channel=0 note=74 velocity=100 time=0
the msg is <meta message end_of_track time=51>
the msg is <meta message track_name name='Piano' time=0>
the msg is program_change channel=0 program=0 time=0
the msg is note_off channel=0 note=72 velocity=0 time=0
the msg is pitchwheel channel=0 pitch=0 time=0
the msg is program_change channel=0 program=0 time=0
the msg is <meta message set_tempo tempo=500000 time=0>
the msg is <meta message time_signature numerator=4 denominator=4 clocks_per_click=24 notated_32nd_notes_per_beat=8 time=0>
the msg is note_on channel=0 note=72 velocity=100 time=0
the msg is note_off channel=0 note=74 velocity=0 time=34
the msg is note_on channel=0 note=74 velocity=100 time=0
the msg is note_off channel=0 note=74 velocity=0 time=17
the msg is note_on channel=0 note=74 velocity=100 time=0
the msg is note_off channel=0 note=74 velocity=0 time=34
the msg is note_on channel=0 note=74 velocity=100 time=0
the msg is note_off channel=0 note=74 velocity=0 time=17
the msg is note_on channel=0 note=74 velocity=100 time=0
the msg is note_off channel=0 note=76 velocity=0 time=34
the msg is note_on channel=0 note=76 velocity=100 time=0
the msg is note_off channel=0 note=79 velocity=0 time=17
the msg is note_on channel=0 note=79 velocity=100 time=0
the msg is note_off channel=0 note=79 velocity=0 time=17
the msg is note_on channel=0 note=79 velocity=100 time=0
the msg is note_off channel=0 note=76 velocity=0 time=17
the msg is note_on channel=0 note=76 velocity=100 time=0
the msg is note_off channel=0 note=74 velocity=0 time=4
the msg is note_on channel=0 note=74 velocity=100 time=0
the msg is note_off channel=0 note=72 velocity=0 time=12
the msg is note_on channel=0 note=72 velocity=100 time=0
the msg is note_off channel=0 note=72 velocity=0 time=89
the msg is note_on channel=0 note=72 velocity=100 time=0
the msg is note_off channel=0 note=72 velocity=0 time=12
the msg is note_on channel=0 note=72 velocity=100 time=0
the msg is note_off channel=0 note=74 velocity=0 time=25
the msg is note_on channel=0 note=74 velocity=100 time=0
the msg is note_off channel=0 note=74 velocity=0 time=25
the msg is note_on channel=0 note=74 velocity=100 time=0
the msg is note_off channel=0 note=74 velocity=0 time=12
the msg is note_on channel=0 note=74 velocity=100 time=0
the msg is note_off channel=0 note=76 velocity=0 time=25
the msg is note_on channel=0 note=76 velocity=100 time=0
the msg is note_off channel=0 note=79 velocity=0 time=25
the msg is note_on channel=0 note=79 velocity=100 time=0
the msg is note_off channel=0 note=79 velocity=0 time=12
the msg is note_on channel=0 note=79 velocity=100 time=0
the msg is note_off channel=0 note=76 velocity=0 time=12
the msg is note_on channel=0 note=76 velocity=100 time=0
the msg is note_off channel=0 note=74 velocity=0 time=12
the msg is note_on channel=0 note=74 velocity=100 time=0
the msg is note_off channel=0 note=72 velocity=0 time=12
the msg is note_on channel=0 note=72 velocity=100 time=0
the msg is note_off channel=0 note=74 velocity=0 time=25
the msg is note_on channel=0 note=74 velocity=100 time=0
the msg is note_off channel=0 note=76 velocity=0 time=25
the msg is note_on channel=0 note=76 velocity=100 time=0
the msg is note_off channel=0 note=79 velocity=0 time=25
the msg is note_on channel=0 note=79 velocity=100 time=0
the msg is note_off channel=0 note=79 velocity=0 time=12
the msg is note_on channel=0 note=79 velocity=100 time=0
the msg is note_off channel=0 note=76 velocity=0 time=12
the msg is note_on channel=0 note=76 velocity=100 time=0
the msg is note_off channel=0 note=74 velocity=0 time=12
the msg is note_on channel=0 note=74 velocity=100 time=0
the msg is note_off channel=0 note=72 velocity=0 time=12
the msg is note_on channel=0 note=72 velocity=100 time=0
the msg is note_off channel=0 note=74 velocity=0 time=25
the msg is note_on channel=0 note=74 velocity=100 time=0
the msg is note_off channel=0 note=74 velocity=0 time=12
the msg is note_on channel=0 note=74 velocity=100 time=0
the msg is note_off channel=0 note=74 velocity=0 time=12
the msg is note_on channel=0 note=74 velocity=100 time=0
the msg is note_off channel=0 note=74 velocity=0 time=25
the msg is note_on channel=0 note=74 velocity=100 time=0
the msg is note_off channel=0 note=74 velocity=0 time=25
the msg is note_on channel=0 note=74 velocity=100 time=0
the msg is note_off channel=0 note=76 velocity=0 time=25
the msg is note_on channel=0 note=76 velocity=100 time=0
the msg is note_off channel=0 note=79 velocity=0 time=25
the msg is note_on channel=0 note=79 velocity=100 time=0
the msg is note_off channel=0 note=79 velocity=0 time=12
the msg is note_on channel=0 note=79 velocity=100 time=0
the msg is note_off channel=0 note=76 velocity=0 time=12
the msg is note_on channel=0 note=76 velocity=100 time=0
the msg is note_off channel=0 note=74 velocity=0 time=12
the msg is note_on channel=0 note=74 velocity=100 time=0
the msg is note_off channel=0 note=72 velocity=0 time=12
the msg is note_on channel=0 note=72 velocity=100 time=0
the msg is note_off channel=0 note=72 velocity=0 time=81
the msg is note_on channel=0 note=72 velocity=100 time=0
the msg is note_off channel=0 note=72 velocity=0 time=8
the msg is note_on channel=0 note=72 velocity=100 time=0
the msg is note_off channel=0 note=74 velocity=0 time=25
the msg is note_on channel=0 note=74 velocity=100 time=0
the msg is note_off channel=0 note=74 velocity=0 time=25
the msg is note_on channel=0 note=74 velocity=100 time=0
the msg is note_off channel=0 note=74 velocity=0 time=25
the msg is note_on channel=0 note=74 velocity=100 time=0
the msg is note_off channel=0 note=74 velocity=0 time=25
the msg is note_on channel=0 note=74 velocity=100 time=0
the msg is note_off channel=0 note=74 velocity=0 time=25
the msg is note_on channel=0 note=74 velocity=100 time=0
the msg is note_off channel=0 note=74 velocity=0 time=25
the msg is note_on channel=0 note=74 velocity=100 time=0
the msg is note_off channel=0 note=76 velocity=0 time=25
the msg is note_on channel=0 note=76 velocity=100 time=0
the msg is note_off channel=0 note=79 velocity=0 time=25
the msg is note_on channel=0 note=79 velocity=100 time=0
the msg is note_off channel=0 note=79 velocity=0 time=12
the msg is note_on channel=0 note=79 velocity=100 time=0
the msg is note_off channel=0 note=76 velocity=0 time=12
the msg is note_on channel=0 note=76 velocity=100 time=0
the msg is note_off channel=0 note=74 velocity=0 time=17
the msg is note_on channel=0 note=74 velocity=100 time=0
the msg is note_off channel=0 note=72 velocity=0 time=8
the msg is note_on channel=0 note=72 velocity=100 time=0
the msg is note_off channel=0 note=72 velocity=0 time=25
the msg is note_on channel=0 note=72 velocity=100 time=0
the msg is note_off channel=0 note=72 velocity=0 time=25
the msg is note_on channel=0 note=72 velocity=100 time=0
the msg is note_off channel=0 note=72 velocity=0 time=12
the msg is note_on channel=0 note=72 velocity=100 time=0
the msg is note_off channel=0 note=72 velocity=0 time=29
the msg is note_on channel=0 note=72 velocity=100 time=0
the msg is note_off channel=0 note=72 velocity=0 time=8
the msg is note_on channel=0 note=72 velocity=100 time=0
the msg is note_off channel=0 note=72 velocity=0 time=25
the msg is note_on channel=0 note=72 velocity=100 time=0
the msg is note_off channel=0 note=72 velocity=0 time=12
the msg is note_on channel=0 note=72 velocity=100 time=0
the msg is note_off channel=0 note=72 velocity=0 time=12
the msg is note_on channel=0 note=72 velocity=100 time=0
the msg is note_off channel=0 note=72 velocity=0 time=12
the msg is note_on channel=0 note=72 velocity=100 time=0
the msg is note_off channel=0 note=76 velocity=0 time=12
the msg is note_on channel=0 note=76 velocity=100 time=0
the msg is note_off channel=0 note=79 velocity=0 time=25
the msg is note_on channel=0 note=79 velocity=100 time=0
the msg is note_off channel=0 note=79 velocity=0 time=12
the msg is note_on channel=0 note=79 velocity=100 time=0
the msg is note_off channel=0 note=76 velocity=0 time=12
the msg is note_on channel=0 note=76 velocity=100 time=0
the msg is note_off channel=0 note=74 velocity=0 time=12
the msg is note_on channel=0 note=74 velocity=100 time=0
the msg is note_off channel=0 note=72 velocity=0 time=12
the msg is note_on channel=0 note=72 velocity=100 time=0
the msg is note_off channel=0 note=72 velocity=0 time=76
the msg is note_on channel=0 note=72 velocity=100 time=0
the msg is note_off channel=0 note=72 velocity=0 time=12
the msg is note_on channel=0 note=72 velocity=100 time=0
the msg is note_off channel=0 note=72 velocity=0 time=12
the msg is note_on channel=0 note=72 velocity=100 time=0
the msg is note_off channel=0 note=72 velocity=0 time=8
the msg is note_on channel=0 note=72 velocity=100 time=0
the msg is note_off channel=0 note=72 velocity=0 time=17
the msg is note_on channel=0 note=72 velocity=100 time=0
the msg is note_off channel=0 note=72 velocity=0 time=12
the msg is note_on channel=0 note=72 velocity=100 time=0
the msg is note_off channel=0 note=72 velocity=0 time=12
the msg is note_on channel=0 note=72 velocity=100 time=0
the msg is note_off channel=0 note=76 velocity=0 time=8
the msg is note_on channel=0 note=76 velocity=100 time=0
the msg is note_off channel=0 note=79 velocity=0 time=29
the msg is note_on channel=0 note=79 velocity=100 time=0
the msg is note_off channel=0 note=79 velocity=0 time=12
the msg is note_on channel=0 note=79 velocity=100 time=0
the msg is note_off channel=0 note=76 velocity=0 time=8
the msg is note_on channel=0 note=76 velocity=100 time=0
the msg is note_off channel=0 note=74 velocity=0 time=17
the msg is note_on channel=0 note=74 velocity=100 time=0
the msg is <meta message end_of_track time=51>
the msg is <meta message track_name name='Piano' time=0>
the msg is program_change channel=0 program=0 time=0
the msg is note_off channel=0 note=72 velocity=0 time=0
the msg is pitchwheel channel=0 pitch=0 time=0
the msg is program_change channel=0 program=0 time=0
the msg is <meta message set_tempo tempo=500000 time=0>
the msg is <meta message time_signature numerator=4 denominator=4 clocks_per_click=24 notated_32nd_notes_per_beat=8 time=0>
the msg is note_on channel=0 note=72 velocity=100 time=0
the msg is note_off channel=0 note=74 velocity=0 time=34
the msg is note_on channel=0 note=74 velocity=100 time=0
the msg is note_off channel=0 note=74 velocity=0 time=17
the msg is note_on channel=0 note=74 velocity=100 time=0
the msg is note_off channel=0 note=74 velocity=0 time=34
the msg is note_on channel=0 note=74 velocity=100 time=0
the msg is note_off channel=0 note=74 velocity=0 time=17
the msg is note_on channel=0 note=74 velocity=100 time=0
the msg is note_off channel=0 note=76 velocity=0 time=34
the msg is note_on channel=0 note=76 velocity=100 time=0
the msg is note_off channel=0 note=79 velocity=0 time=17
the msg is note_on channel=0 note=79 velocity=100 time=0
the msg is note_off channel=0 note=79 velocity=0 time=17
the msg is note_on channel=0 note=79 velocity=100 time=0
the msg is note_off channel=0 note=76 velocity=0 time=17
the msg is note_on channel=0 note=76 velocity=100 time=0
the msg is note_off channel=0 note=74 velocity=0 time=4
the msg is note_on channel=0 note=74 velocity=100 time=0
the msg is note_off channel=0 note=72 velocity=0 time=12
the msg is note_on channel=0 note=72 velocity=100 time=0
the msg is note_off channel=0 note=72 velocity=0 time=89
the msg is note_on channel=0 note=72 velocity=100 time=0
the msg is note_off channel=0 note=72 velocity=0 time=12
the msg is note_on channel=0 note=72 velocity=100 time=0
the msg is note_off channel=0 note=74 velocity=0 time=25
the msg is note_on channel=0 note=74 velocity=100 time=0
the msg is note_off channel=0 note=74 velocity=0 time=25
the msg is note_on channel=0 note=74 velocity=100 time=0
the msg is note_off channel=0 note=74 velocity=0 time=12
the msg is note_on channel=0 note=74 velocity=100 time=0
the msg is note_off channel=0 note=76 velocity=0 time=25
the msg is note_on channel=0 note=76 velocity=100 time=0
the msg is note_off channel=0 note=79 velocity=0 time=25
the msg is note_on channel=0 note=79 velocity=100 time=0
the msg is note_off channel=0 note=79 velocity=0 time=12
the msg is note_on channel=0 note=79 velocity=100 time=0
the msg is note_off channel=0 note=76 velocity=0 time=12
the msg is note_on channel=0 note=76 velocity=100 time=0
the msg is note_off channel=0 note=74 velocity=0 time=12
the msg is note_on channel=0 note=74 velocity=100 time=0
the msg is note_off channel=0 note=72 velocity=0 time=12
the msg is note_on channel=0 note=72 velocity=100 time=0
the msg is note_off channel=0 note=74 velocity=0 time=25
the msg is note_on channel=0 note=74 velocity=100 time=0
the msg is note_off channel=0 note=76 velocity=0 time=25
the msg is note_on channel=0 note=76 velocity=100 time=0
the msg is note_off channel=0 note=79 velocity=0 time=25
the msg is note_on channel=0 note=79 velocity=100 time=0
the msg is note_off channel=0 note=79 velocity=0 time=12
the msg is note_on channel=0 note=79 velocity=100 time=0
the msg is note_off channel=0 note=76 velocity=0 time=12
the msg is note_on channel=0 note=76 velocity=100 time=0
the msg is note_off channel=0 note=74 velocity=0 time=12
the msg is note_on channel=0 note=74 velocity=100 time=0
the msg is note_off channel=0 note=72 velocity=0 time=12
the msg is note_on channel=0 note=72 velocity=100 time=0
the msg is note_off channel=0 note=74 velocity=0 time=25
the msg is note_on channel=0 note=74 velocity=100 time=0
the msg is note_off channel=0 note=74 velocity=0 time=12
the msg is note_on channel=0 note=74 velocity=100 time=0
the msg is note_off channel=0 note=74 velocity=0 time=12
the msg is note_on channel=0 note=74 velocity=100 time=0
the msg is note_off channel=0 note=74 velocity=0 time=25
the msg is note_on channel=0 note=74 velocity=100 time=0
the msg is note_off channel=0 note=74 velocity=0 time=25
the msg is note_on channel=0 note=74 velocity=100 time=0
the msg is note_off channel=0 note=76 velocity=0 time=25
the msg is note_on channel=0 note=76 velocity=100 time=0
the msg is note_off channel=0 note=79 velocity=0 time=25
the msg is note_on channel=0 note=79 velocity=100 time=0
the msg is note_off channel=0 note=79 velocity=0 time=12
the msg is note_on channel=0 note=79 velocity=100 time=0
the msg is note_off channel=0 note=76 velocity=0 time=12
the msg is note_on channel=0 note=76 velocity=100 time=0
the msg is note_off channel=0 note=74 velocity=0 time=12
the msg is note_on channel=0 note=74 velocity=100 time=0
the msg is note_off channel=0 note=72 velocity=0 time=12
the msg is note_on channel=0 note=72 velocity=100 time=0
the msg is note_off channel=0 note=72 velocity=0 time=81
the msg is note_on channel=0 note=72 velocity=100 time=0
the msg is note_off channel=0 note=72 velocity=0 time=8
the msg is note_on channel=0 note=72 velocity=100 time=0
the msg is note_off channel=0 note=74 velocity=0 time=25
the msg is note_on channel=0 note=74 velocity=100 time=0
the msg is note_off channel=0 note=74 velocity=0 time=25
the msg is note_on channel=0 note=74 velocity=100 time=0
the msg is note_off channel=0 note=74 velocity=0 time=25
the msg is note_on channel=0 note=74 velocity=100 time=0
the msg is note_off channel=0 note=74 velocity=0 time=25
the msg is note_on channel=0 note=74 velocity=100 time=0
the msg is note_off channel=0 note=74 velocity=0 time=25
the msg is note_on channel=0 note=74 velocity=100 time=0
the msg is note_off channel=0 note=74 velocity=0 time=25
the msg is note_on channel=0 note=74 velocity=100 time=0
the msg is note_off channel=0 note=76 velocity=0 time=25
the msg is note_on channel=0 note=76 velocity=100 time=0
the msg is note_off channel=0 note=79 velocity=0 time=25
the msg is note_on channel=0 note=79 velocity=100 time=0
the msg is note_off channel=0 note=79 velocity=0 time=12
the msg is note_on channel=0 note=79 velocity=100 time=0
the msg is note_off channel=0 note=76 velocity=0 time=12
the msg is note_on channel=0 note=76 velocity=100 time=0
the msg is note_off channel=0 note=74 velocity=0 time=17
the msg is note_on channel=0 note=74 velocity=100 time=0
the msg is note_off channel=0 note=72 velocity=0 time=8
the msg is note_on channel=0 note=72 velocity=100 time=0
the msg is note_off channel=0 note=72 velocity=0 time=25
the msg is note_on channel=0 note=72 velocity=100 time=0
the msg is note_off channel=0 note=72 velocity=0 time=25
the msg is note_on channel=0 note=72 velocity=100 time=0
the msg is note_off channel=0 note=72 velocity=0 time=12
the msg is note_on channel=0 note=72 velocity=100 time=0
the msg is note_off channel=0 note=72 velocity=0 time=29
the msg is note_on channel=0 note=72 velocity=100 time=0
the msg is note_off channel=0 note=72 velocity=0 time=8
the msg is note_on channel=0 note=72 velocity=100 time=0
the msg is note_off channel=0 note=72 velocity=0 time=25
the msg is note_on channel=0 note=72 velocity=100 time=0
the msg is note_off channel=0 note=72 velocity=0 time=12
the msg is note_on channel=0 note=72 velocity=100 time=0
the msg is note_off channel=0 note=72 velocity=0 time=12
the msg is note_on channel=0 note=72 velocity=100 time=0
the msg is note_off channel=0 note=72 velocity=0 time=12
the msg is note_on channel=0 note=72 velocity=100 time=0
the msg is note_off channel=0 note=76 velocity=0 time=12
the msg is note_on channel=0 note=76 velocity=100 time=0
the msg is note_off channel=0 note=79 velocity=0 time=25
the msg is note_on channel=0 note=79 velocity=100 time=0
the msg is note_off channel=0 note=79 velocity=0 time=12
the msg is note_on channel=0 note=79 velocity=100 time=0
the msg is note_off channel=0 note=76 velocity=0 time=12
the msg is note_on channel=0 note=76 velocity=100 time=0
the msg is note_off channel=0 note=74 velocity=0 time=12
the msg is note_on channel=0 note=74 velocity=100 time=0
the msg is note_off channel=0 note=72 velocity=0 time=12
the msg is note_on channel=0 note=72 velocity=100 time=0
the msg is note_off channel=0 note=72 velocity=0 time=76
the msg is note_on channel=0 note=72 velocity=100 time=0
the msg is note_off channel=0 note=72 velocity=0 time=12
the msg is note_on channel=0 note=72 velocity=100 time=0
the msg is note_off channel=0 note=72 velocity=0 time=12
the msg is note_on channel=0 note=72 velocity=100 time=0
the msg is note_off channel=0 note=72 velocity=0 time=8
the msg is note_on channel=0 note=72 velocity=100 time=0
the msg is note_off channel=0 note=72 velocity=0 time=17
the msg is note_on channel=0 note=72 velocity=100 time=0
the msg is note_off channel=0 note=72 velocity=0 time=12
the msg is note_on channel=0 note=72 velocity=100 time=0
the msg is note_off channel=0 note=72 velocity=0 time=12
the msg is note_on channel=0 note=72 velocity=100 time=0
the msg is note_off channel=0 note=76 velocity=0 time=8
the msg is note_on channel=0 note=76 velocity=100 time=0
the msg is note_off channel=0 note=79 velocity=0 time=29
the msg is note_on channel=0 note=79 velocity=100 time=0
the msg is note_off channel=0 note=79 velocity=0 time=12
the msg is note_on channel=0 note=79 velocity=100 time=0
the msg is note_off channel=0 note=76 velocity=0 time=8
the msg is note_on channel=0 note=76 velocity=100 time=0
the msg is note_off channel=0 note=74 velocity=0 time=17
the msg is note_on channel=0 note=74 velocity=100 time=0
the msg is <meta message end_of_track time=51>
the msg is <meta message track_name name='Piano' time=0>
the msg is program_change channel=0 program=0 time=0
the msg is note_off channel=0 note=72 velocity=0 time=0
the msg is pitchwheel channel=0 pitch=0 time=0
the msg is program_change channel=0 program=0 time=0
the msg is <meta message set_tempo tempo=500000 time=0>
the msg is <meta message time_signature numerator=4 denominator=4 clocks_per_click=24 notated_32nd_notes_per_beat=8 time=0>
the msg is note_on channel=0 note=72 velocity=100 time=0
the msg is note_off channel=0 note=74 velocity=0 time=34
the msg is note_on channel=0 note=74 velocity=100 time=0
the msg is note_off channel=0 note=74 velocity=0 time=17
the msg is note_on channel=0 note=74 velocity=100 time=0
the msg is note_off channel=0 note=74 velocity=0 time=34
the msg is note_on channel=0 note=74 velocity=100 time=0
the msg is note_off channel=0 note=74 velocity=0 time=17
the msg is note_on channel=0 note=74 velocity=100 time=0
the msg is note_off channel=0 note=76 velocity=0 time=34
the msg is note_on channel=0 note=76 velocity=100 time=0
the msg is note_off channel=0 note=79 velocity=0 time=17
the msg is note_on channel=0 note=79 velocity=100 time=0
the msg is note_off channel=0 note=79 velocity=0 time=17
the msg is note_on channel=0 note=79 velocity=100 time=0
the msg is note_off channel=0 note=76 velocity=0 time=17
the msg is note_on channel=0 note=76 velocity=100 time=0
the msg is note_off channel=0 note=74 velocity=0 time=4
the msg is note_on channel=0 note=74 velocity=100 time=0
the msg is note_off channel=0 note=72 velocity=0 time=12
the msg is note_on channel=0 note=72 velocity=100 time=0
the msg is note_off channel=0 note=72 velocity=0 time=89
the msg is note_on channel=0 note=72 velocity=100 time=0
the msg is note_off channel=0 note=72 velocity=0 time=12
the msg is note_on channel=0 note=72 velocity=100 time=0
the msg is note_off channel=0 note=74 velocity=0 time=25
the msg is note_on channel=0 note=74 velocity=100 time=0
the msg is note_off channel=0 note=74 velocity=0 time=25
the msg is note_on channel=0 note=74 velocity=100 time=0
the msg is note_off channel=0 note=74 velocity=0 time=12
the msg is note_on channel=0 note=74 velocity=100 time=0
the msg is note_off channel=0 note=76 velocity=0 time=25
the msg is note_on channel=0 note=76 velocity=100 time=0
the msg is note_off channel=0 note=79 velocity=0 time=25
the msg is note_on channel=0 note=79 velocity=100 time=0
the msg is note_off channel=0 note=79 velocity=0 time=12
the msg is note_on channel=0 note=79 velocity=100 time=0
the msg is note_off channel=0 note=76 velocity=0 time=12
the msg is note_on channel=0 note=76 velocity=100 time=0
the msg is note_off channel=0 note=74 velocity=0 time=12
the msg is note_on channel=0 note=74 velocity=100 time=0
the msg is note_off channel=0 note=72 velocity=0 time=12
the msg is note_on channel=0 note=72 velocity=100 time=0
the msg is note_off channel=0 note=74 velocity=0 time=25
the msg is note_on channel=0 note=74 velocity=100 time=0
the msg is note_off channel=0 note=76 velocity=0 time=25
the msg is note_on channel=0 note=76 velocity=100 time=0
the msg is note_off channel=0 note=79 velocity=0 time=25
the msg is note_on channel=0 note=79 velocity=100 time=0
the msg is note_off channel=0 note=79 velocity=0 time=12
the msg is note_on channel=0 note=79 velocity=100 time=0
the msg is note_off channel=0 note=76 velocity=0 time=12
the msg is note_on channel=0 note=76 velocity=100 time=0
the msg is note_off channel=0 note=74 velocity=0 time=12
the msg is note_on channel=0 note=74 velocity=100 time=0
the msg is note_off channel=0 note=72 velocity=0 time=12
the msg is note_on channel=0 note=72 velocity=100 time=0
the msg is note_off channel=0 note=74 velocity=0 time=25
the msg is note_on channel=0 note=74 velocity=100 time=0
the msg is note_off channel=0 note=74 velocity=0 time=12
the msg is note_on channel=0 note=74 velocity=100 time=0
the msg is note_off channel=0 note=74 velocity=0 time=12
the msg is note_on channel=0 note=74 velocity=100 time=0
the msg is note_off channel=0 note=74 velocity=0 time=25
the msg is note_on channel=0 note=74 velocity=100 time=0
the msg is note_off channel=0 note=74 velocity=0 time=25
the msg is note_on channel=0 note=74 velocity=100 time=0
the msg is note_off channel=0 note=76 velocity=0 time=25
the msg is note_on channel=0 note=76 velocity=100 time=0
the msg is note_off channel=0 note=79 velocity=0 time=25
the msg is note_on channel=0 note=79 velocity=100 time=0
the msg is note_off channel=0 note=79 velocity=0 time=12
the msg is note_on channel=0 note=79 velocity=100 time=0
the msg is note_off channel=0 note=76 velocity=0 time=12
the msg is note_on channel=0 note=76 velocity=100 time=0
the msg is note_off channel=0 note=74 velocity=0 time=12
the msg is note_on channel=0 note=74 velocity=100 time=0
the msg is note_off channel=0 note=72 velocity=0 time=12
the msg is note_on channel=0 note=72 velocity=100 time=0
the msg is note_off channel=0 note=72 velocity=0 time=81
the msg is note_on channel=0 note=72 velocity=100 time=0
the msg is note_off channel=0 note=72 velocity=0 time=8
the msg is note_on channel=0 note=72 velocity=100 time=0
the msg is note_off channel=0 note=74 velocity=0 time=25
the msg is note_on channel=0 note=74 velocity=100 time=0
the msg is note_off channel=0 note=74 velocity=0 time=25
the msg is note_on channel=0 note=74 velocity=100 time=0
the msg is note_off channel=0 note=74 velocity=0 time=25
the msg is note_on channel=0 note=74 velocity=100 time=0
the msg is note_off channel=0 note=74 velocity=0 time=25
the msg is note_on channel=0 note=74 velocity=100 time=0
the msg is note_off channel=0 note=74 velocity=0 time=25
the msg is note_on channel=0 note=74 velocity=100 time=0
the msg is note_off channel=0 note=74 velocity=0 time=25
the msg is note_on channel=0 note=74 velocity=100 time=0
the msg is note_off channel=0 note=76 velocity=0 time=25
the msg is note_on channel=0 note=76 velocity=100 time=0
the msg is note_off channel=0 note=79 velocity=0 time=25
the msg is note_on channel=0 note=79 velocity=100 time=0
the msg is note_off channel=0 note=79 velocity=0 time=12
the msg is note_on channel=0 note=79 velocity=100 time=0
the msg is note_off channel=0 note=76 velocity=0 time=12
the msg is note_on channel=0 note=76 velocity=100 time=0
the msg is note_off channel=0 note=74 velocity=0 time=17
the msg is note_on channel=0 note=74 velocity=100 time=0
the msg is note_off channel=0 note=72 velocity=0 time=8
the msg is note_on channel=0 note=72 velocity=100 time=0
the msg is note_off channel=0 note=72 velocity=0 time=25
the msg is note_on channel=0 note=72 velocity=100 time=0
the msg is note_off channel=0 note=72 velocity=0 time=25
the msg is note_on channel=0 note=72 velocity=100 time=0
the msg is note_off channel=0 note=72 velocity=0 time=12
the msg is note_on channel=0 note=72 velocity=100 time=0
the msg is note_off channel=0 note=72 velocity=0 time=29
the msg is note_on channel=0 note=72 velocity=100 time=0
the msg is note_off channel=0 note=72 velocity=0 time=8
the msg is note_on channel=0 note=72 velocity=100 time=0
the msg is note_off channel=0 note=72 velocity=0 time=25
the msg is note_on channel=0 note=72 velocity=100 time=0
the msg is note_off channel=0 note=72 velocity=0 time=12
the msg is note_on channel=0 note=72 velocity=100 time=0
the msg is note_off channel=0 note=72 velocity=0 time=12
the msg is note_on channel=0 note=72 velocity=100 time=0
the msg is note_off channel=0 note=72 velocity=0 time=12
the msg is note_on channel=0 note=72 velocity=100 time=0
the msg is note_off channel=0 note=76 velocity=0 time=12
the msg is note_on channel=0 note=76 velocity=100 time=0
the msg is note_off channel=0 note=79 velocity=0 time=25
the msg is note_on channel=0 note=79 velocity=100 time=0
the msg is note_off channel=0 note=79 velocity=0 time=12
the msg is note_on channel=0 note=79 velocity=100 time=0
the msg is note_off channel=0 note=76 velocity=0 time=12
the msg is note_on channel=0 note=76 velocity=100 time=0
the msg is note_off channel=0 note=74 velocity=0 time=12
the msg is note_on channel=0 note=74 velocity=100 time=0
the msg is note_off channel=0 note=72 velocity=0 time=12
the msg is note_on channel=0 note=72 velocity=100 time=0
the msg is note_off channel=0 note=72 velocity=0 time=76
the msg is note_on channel=0 note=72 velocity=100 time=0
the msg is note_off channel=0 note=72 velocity=0 time=12
the msg is note_on channel=0 note=72 velocity=100 time=0
the msg is note_off channel=0 note=72 velocity=0 time=12
the msg is note_on channel=0 note=72 velocity=100 time=0
the msg is note_off channel=0 note=72 velocity=0 time=8
the msg is note_on channel=0 note=72 velocity=100 time=0
the msg is note_off channel=0 note=72 velocity=0 time=17
the msg is note_on channel=0 note=72 velocity=100 time=0
the msg is note_off channel=0 note=72 velocity=0 time=12
the msg is note_on channel=0 note=72 velocity=100 time=0
the msg is note_off channel=0 note=72 velocity=0 time=12
the msg is note_on channel=0 note=72 velocity=100 time=0
the msg is note_off channel=0 note=76 velocity=0 time=8
the msg is note_on channel=0 note=76 velocity=100 time=0
the msg is note_off channel=0 note=79 velocity=0 time=29
the msg is note_on channel=0 note=79 velocity=100 time=0
the msg is note_off channel=0 note=79 velocity=0 time=12
the msg is note_on channel=0 note=79 velocity=100 time=0
the msg is note_off channel=0 note=76 velocity=0 time=8
the msg is note_on channel=0 note=76 velocity=100 time=0
the msg is note_off channel=0 note=74 velocity=0 time=17
the msg is note_on channel=0 note=74 velocity=100 time=0
the msg is <meta message end_of_track time=51>
the msg is <meta message track_name name='Piano' time=0>
the msg is program_change channel=0 program=0 time=0
the msg is note_off channel=0 note=72 velocity=0 time=0
the msg is pitchwheel channel=0 pitch=0 time=0
the msg is program_change channel=0 program=0 time=0
the msg is <meta message set_tempo tempo=500000 time=0>
the msg is <meta message time_signature numerator=4 denominator=4 clocks_per_click=24 notated_32nd_notes_per_beat=8 time=0>
the msg is note_on channel=0 note=72 velocity=100 time=0
the msg is note_off channel=0 note=74 velocity=0 time=34
the msg is note_on channel=0 note=74 velocity=100 time=0
the msg is note_off channel=0 note=74 velocity=0 time=17
the msg is note_on channel=0 note=74 velocity=100 time=0
the msg is note_off channel=0 note=74 velocity=0 time=34
the msg is note_on channel=0 note=74 velocity=100 time=0
the msg is note_off channel=0 note=74 velocity=0 time=17
the msg is note_on channel=0 note=74 velocity=100 time=0
the msg is note_off channel=0 note=76 velocity=0 time=34
the msg is note_on channel=0 note=76 velocity=100 time=0
the msg is note_off channel=0 note=79 velocity=0 time=17
the msg is note_on channel=0 note=79 velocity=100 time=0
the msg is note_off channel=0 note=79 velocity=0 time=17
the msg is note_on channel=0 note=79 velocity=100 time=0
the msg is note_off channel=0 note=76 velocity=0 time=17
the msg is note_on channel=0 note=76 velocity=100 time=0
the msg is note_off channel=0 note=74 velocity=0 time=4
the msg is note_on channel=0 note=74 velocity=100 time=0
the msg is note_off channel=0 note=72 velocity=0 time=12
the msg is note_on channel=0 note=72 velocity=100 time=0
the msg is note_off channel=0 note=72 velocity=0 time=89
the msg is note_on channel=0 note=72 velocity=100 time=0
the msg is note_off channel=0 note=72 velocity=0 time=12
the msg is note_on channel=0 note=72 velocity=100 time=0
the msg is note_off channel=0 note=74 velocity=0 time=25
the msg is note_on channel=0 note=74 velocity=100 time=0
the msg is note_off channel=0 note=74 velocity=0 time=25
the msg is note_on channel=0 note=74 velocity=100 time=0
the msg is note_off channel=0 note=74 velocity=0 time=12
the msg is note_on channel=0 note=74 velocity=100 time=0
the msg is note_off channel=0 note=76 velocity=0 time=25
the msg is note_on channel=0 note=76 velocity=100 time=0
the msg is note_off channel=0 note=79 velocity=0 time=25
the msg is note_on channel=0 note=79 velocity=100 time=0
the msg is note_off channel=0 note=79 velocity=0 time=12
the msg is note_on channel=0 note=79 velocity=100 time=0
the msg is note_off channel=0 note=76 velocity=0 time=12
the msg is note_on channel=0 note=76 velocity=100 time=0
the msg is note_off channel=0 note=74 velocity=0 time=12
the msg is note_on channel=0 note=74 velocity=100 time=0
the msg is note_off channel=0 note=72 velocity=0 time=12
the msg is note_on channel=0 note=72 velocity=100 time=0
the msg is note_off channel=0 note=74 velocity=0 time=25
the msg is note_on channel=0 note=74 velocity=100 time=0
the msg is note_off channel=0 note=76 velocity=0 time=25
the msg is note_on channel=0 note=76 velocity=100 time=0
the msg is note_off channel=0 note=79 velocity=0 time=25
the msg is note_on channel=0 note=79 velocity=100 time=0
the msg is note_off channel=0 note=79 velocity=0 time=12
the msg is note_on channel=0 note=79 velocity=100 time=0
the msg is note_off channel=0 note=76 velocity=0 time=12
the msg is note_on channel=0 note=76 velocity=100 time=0
the msg is note_off channel=0 note=74 velocity=0 time=12
the msg is note_on channel=0 note=74 velocity=100 time=0
the msg is note_off channel=0 note=72 velocity=0 time=12
the msg is note_on channel=0 note=72 velocity=100 time=0
the msg is note_off channel=0 note=74 velocity=0 time=25
the msg is note_on channel=0 note=74 velocity=100 time=0
the msg is note_off channel=0 note=74 velocity=0 time=12
the msg is note_on channel=0 note=74 velocity=100 time=0
the msg is note_off channel=0 note=74 velocity=0 time=12
the msg is note_on channel=0 note=74 velocity=100 time=0
the msg is note_off channel=0 note=74 velocity=0 time=25
the msg is note_on channel=0 note=74 velocity=100 time=0
the msg is note_off channel=0 note=74 velocity=0 time=25
the msg is note_on channel=0 note=74 velocity=100 time=0
the msg is note_off channel=0 note=76 velocity=0 time=25
the msg is note_on channel=0 note=76 velocity=100 time=0
the msg is note_off channel=0 note=79 velocity=0 time=25
the msg is note_on channel=0 note=79 velocity=100 time=0
the msg is note_off channel=0 note=79 velocity=0 time=12
the msg is note_on channel=0 note=79 velocity=100 time=0
the msg is note_off channel=0 note=76 velocity=0 time=12
the msg is note_on channel=0 note=76 velocity=100 time=0
the msg is note_off channel=0 note=74 velocity=0 time=12
the msg is note_on channel=0 note=74 velocity=100 time=0
the msg is note_off channel=0 note=72 velocity=0 time=12
the msg is note_on channel=0 note=72 velocity=100 time=0
the msg is note_off channel=0 note=72 velocity=0 time=81
the msg is note_on channel=0 note=72 velocity=100 time=0
the msg is note_off channel=0 note=72 velocity=0 time=8
the msg is note_on channel=0 note=72 velocity=100 time=0
the msg is note_off channel=0 note=74 velocity=0 time=25
the msg is note_on channel=0 note=74 velocity=100 time=0
the msg is note_off channel=0 note=74 velocity=0 time=25
the msg is note_on channel=0 note=74 velocity=100 time=0
the msg is note_off channel=0 note=74 velocity=0 time=25
the msg is note_on channel=0 note=74 velocity=100 time=0
the msg is note_off channel=0 note=74 velocity=0 time=25
the msg is note_on channel=0 note=74 velocity=100 time=0
the msg is note_off channel=0 note=74 velocity=0 time=25
the msg is note_on channel=0 note=74 velocity=100 time=0
the msg is note_off channel=0 note=74 velocity=0 time=25
the msg is note_on channel=0 note=74 velocity=100 time=0
the msg is note_off channel=0 note=76 velocity=0 time=25
the msg is note_on channel=0 note=76 velocity=100 time=0
the msg is note_off channel=0 note=79 velocity=0 time=25
the msg is note_on channel=0 note=79 velocity=100 time=0
the msg is note_off channel=0 note=79 velocity=0 time=12
the msg is note_on channel=0 note=79 velocity=100 time=0
the msg is note_off channel=0 note=76 velocity=0 time=12
the msg is note_on channel=0 note=76 velocity=100 time=0
the msg is note_off channel=0 note=74 velocity=0 time=17
the msg is note_on channel=0 note=74 velocity=100 time=0
the msg is note_off channel=0 note=72 velocity=0 time=8
the msg is note_on channel=0 note=72 velocity=100 time=0
the msg is note_off channel=0 note=72 velocity=0 time=25
the msg is note_on channel=0 note=72 velocity=100 time=0
the msg is note_off channel=0 note=72 velocity=0 time=25
the msg is note_on channel=0 note=72 velocity=100 time=0
the msg is note_off channel=0 note=72 velocity=0 time=12
the msg is note_on channel=0 note=72 velocity=100 time=0
the msg is note_off channel=0 note=72 velocity=0 time=29
the msg is note_on channel=0 note=72 velocity=100 time=0
the msg is note_off channel=0 note=72 velocity=0 time=8
the msg is note_on channel=0 note=72 velocity=100 time=0
the msg is note_off channel=0 note=72 velocity=0 time=25
the msg is note_on channel=0 note=72 velocity=100 time=0
the msg is note_off channel=0 note=72 velocity=0 time=12
the msg is note_on channel=0 note=72 velocity=100 time=0
the msg is note_off channel=0 note=72 velocity=0 time=12
the msg is note_on channel=0 note=72 velocity=100 time=0
the msg is note_off channel=0 note=72 velocity=0 time=12
the msg is note_on channel=0 note=72 velocity=100 time=0
the msg is note_off channel=0 note=76 velocity=0 time=12
the msg is note_on channel=0 note=76 velocity=100 time=0
the msg is note_off channel=0 note=79 velocity=0 time=25
the msg is note_on channel=0 note=79 velocity=100 time=0
the msg is note_off channel=0 note=79 velocity=0 time=12
the msg is note_on channel=0 note=79 velocity=100 time=0
the msg is note_off channel=0 note=76 velocity=0 time=12
the msg is note_on channel=0 note=76 velocity=100 time=0
the msg is note_off channel=0 note=74 velocity=0 time=12
the msg is note_on channel=0 note=74 velocity=100 time=0
the msg is note_off channel=0 note=72 velocity=0 time=12
the msg is note_on channel=0 note=72 velocity=100 time=0
the msg is note_off channel=0 note=72 velocity=0 time=76
the msg is note_on channel=0 note=72 velocity=100 time=0
the msg is note_off channel=0 note=72 velocity=0 time=12
the msg is note_on channel=0 note=72 velocity=100 time=0
the msg is note_off channel=0 note=72 velocity=0 time=12
the msg is note_on channel=0 note=72 velocity=100 time=0
the msg is note_off channel=0 note=72 velocity=0 time=8
the msg is note_on channel=0 note=72 velocity=100 time=0
the msg is note_off channel=0 note=72 velocity=0 time=17
the msg is note_on channel=0 note=72 velocity=100 time=0
the msg is note_off channel=0 note=72 velocity=0 time=12
the msg is note_on channel=0 note=72 velocity=100 time=0
the msg is note_off channel=0 note=72 velocity=0 time=12
the msg is note_on channel=0 note=72 velocity=100 time=0
the msg is note_off channel=0 note=76 velocity=0 time=8
the msg is note_on channel=0 note=76 velocity=100 time=0
the msg is note_off channel=0 note=79 velocity=0 time=29
the msg is note_on channel=0 note=79 velocity=100 time=0
the msg is note_off channel=0 note=79 velocity=0 time=12
the msg is note_on channel=0 note=79 velocity=100 time=0
the msg is note_off channel=0 note=76 velocity=0 time=8
the msg is note_on channel=0 note=76 velocity=100 time=0
the msg is note_off channel=0 note=74 velocity=0 time=17
the msg is note_on channel=0 note=74 velocity=100 time=0
the msg is <meta message end_of_track time=51>
the msg is <meta message track_name name='Piano' time=0>
the msg is program_change channel=0 program=0 time=0
the msg is note_off channel=0 note=72 velocity=0 time=0
the msg is pitchwheel channel=0 pitch=0 time=0
the msg is program_change channel=0 program=0 time=0
the msg is <meta message set_tempo tempo=500000 time=0>
the msg is <meta message time_signature numerator=4 denominator=4 clocks_per_click=24 notated_32nd_notes_per_beat=8 time=0>
the msg is note_on channel=0 note=72 velocity=100 time=0
the msg is note_off channel=0 note=74 velocity=0 time=34
the msg is note_on channel=0 note=74 velocity=100 time=0
the msg is note_off channel=0 note=74 velocity=0 time=17
the msg is note_on channel=0 note=74 velocity=100 time=0
the msg is note_off channel=0 note=74 velocity=0 time=34
the msg is note_on channel=0 note=74 velocity=100 time=0
the msg is note_off channel=0 note=74 velocity=0 time=17
the msg is note_on channel=0 note=74 velocity=100 time=0
the msg is note_off channel=0 note=76 velocity=0 time=34
the msg is note_on channel=0 note=76 velocity=100 time=0
the msg is note_off channel=0 note=79 velocity=0 time=17
the msg is note_on channel=0 note=79 velocity=100 time=0
the msg is note_off channel=0 note=79 velocity=0 time=17
the msg is note_on channel=0 note=79 velocity=100 time=0
the msg is note_off channel=0 note=76 velocity=0 time=17
the msg is note_on channel=0 note=76 velocity=100 time=0
the msg is note_off channel=0 note=74 velocity=0 time=4
the msg is note_on channel=0 note=74 velocity=100 time=0
the msg is note_off channel=0 note=72 velocity=0 time=12
the msg is note_on channel=0 note=72 velocity=100 time=0
the msg is note_off channel=0 note=72 velocity=0 time=89
the msg is note_on channel=0 note=72 velocity=100 time=0
the msg is note_off channel=0 note=72 velocity=0 time=12
the msg is note_on channel=0 note=72 velocity=100 time=0
the msg is note_off channel=0 note=74 velocity=0 time=25
the msg is note_on channel=0 note=74 velocity=100 time=0
the msg is note_off channel=0 note=74 velocity=0 time=25
the msg is note_on channel=0 note=74 velocity=100 time=0
the msg is note_off channel=0 note=74 velocity=0 time=12
the msg is note_on channel=0 note=74 velocity=100 time=0
the msg is note_off channel=0 note=76 velocity=0 time=25
the msg is note_on channel=0 note=76 velocity=100 time=0
the msg is note_off channel=0 note=79 velocity=0 time=25
the msg is note_on channel=0 note=79 velocity=100 time=0
the msg is note_off channel=0 note=79 velocity=0 time=12
the msg is note_on channel=0 note=79 velocity=100 time=0
the msg is note_off channel=0 note=76 velocity=0 time=12
the msg is note_on channel=0 note=76 velocity=100 time=0
the msg is note_off channel=0 note=74 velocity=0 time=12
the msg is note_on channel=0 note=74 velocity=100 time=0
the msg is note_off channel=0 note=72 velocity=0 time=12
the msg is note_on channel=0 note=72 velocity=100 time=0
the msg is note_off channel=0 note=74 velocity=0 time=25
the msg is note_on channel=0 note=74 velocity=100 time=0
the msg is note_off channel=0 note=76 velocity=0 time=25
the msg is note_on channel=0 note=76 velocity=100 time=0
the msg is note_off channel=0 note=79 velocity=0 time=25
the msg is note_on channel=0 note=79 velocity=100 time=0
the msg is note_off channel=0 note=79 velocity=0 time=12
the msg is note_on channel=0 note=79 velocity=100 time=0
the msg is note_off channel=0 note=76 velocity=0 time=12
the msg is note_on channel=0 note=76 velocity=100 time=0
the msg is note_off channel=0 note=74 velocity=0 time=12
the msg is note_on channel=0 note=74 velocity=100 time=0
the msg is note_off channel=0 note=72 velocity=0 time=12
the msg is note_on channel=0 note=72 velocity=100 time=0
the msg is note_off channel=0 note=74 velocity=0 time=25
the msg is note_on channel=0 note=74 velocity=100 time=0
the msg is note_off channel=0 note=74 velocity=0 time=12
the msg is note_on channel=0 note=74 velocity=100 time=0
the msg is note_off channel=0 note=74 velocity=0 time=12
the msg is note_on channel=0 note=74 velocity=100 time=0
the msg is note_off channel=0 note=74 velocity=0 time=25
the msg is note_on channel=0 note=74 velocity=100 time=0
the msg is note_off channel=0 note=74 velocity=0 time=25
the msg is note_on channel=0 note=74 velocity=100 time=0
the msg is note_off channel=0 note=76 velocity=0 time=25
the msg is note_on channel=0 note=76 velocity=100 time=0
the msg is note_off channel=0 note=79 velocity=0 time=25
the msg is note_on channel=0 note=79 velocity=100 time=0
the msg is note_off channel=0 note=79 velocity=0 time=12
the msg is note_on channel=0 note=79 velocity=100 time=0
the msg is note_off channel=0 note=76 velocity=0 time=12
the msg is note_on channel=0 note=76 velocity=100 time=0
the msg is note_off channel=0 note=74 velocity=0 time=12
the msg is note_on channel=0 note=74 velocity=100 time=0
the msg is note_off channel=0 note=72 velocity=0 time=12
the msg is note_on channel=0 note=72 velocity=100 time=0
the msg is note_off channel=0 note=72 velocity=0 time=81
the msg is note_on channel=0 note=72 velocity=100 time=0
the msg is note_off channel=0 note=72 velocity=0 time=8
the msg is note_on channel=0 note=72 velocity=100 time=0
the msg is note_off channel=0 note=74 velocity=0 time=25
the msg is note_on channel=0 note=74 velocity=100 time=0
the msg is note_off channel=0 note=74 velocity=0 time=25
the msg is note_on channel=0 note=74 velocity=100 time=0
the msg is note_off channel=0 note=74 velocity=0 time=25
the msg is note_on channel=0 note=74 velocity=100 time=0
the msg is note_off channel=0 note=74 velocity=0 time=25
the msg is note_on channel=0 note=74 velocity=100 time=0
the msg is note_off channel=0 note=74 velocity=0 time=25
the msg is note_on channel=0 note=74 velocity=100 time=0
the msg is note_off channel=0 note=74 velocity=0 time=25
the msg is note_on channel=0 note=74 velocity=100 time=0
the msg is note_off channel=0 note=76 velocity=0 time=25
the msg is note_on channel=0 note=76 velocity=100 time=0
the msg is note_off channel=0 note=79 velocity=0 time=25
the msg is note_on channel=0 note=79 velocity=100 time=0
the msg is note_off channel=0 note=79 velocity=0 time=12
the msg is note_on channel=0 note=79 velocity=100 time=0
the msg is note_off channel=0 note=76 velocity=0 time=12
the msg is note_on channel=0 note=76 velocity=100 time=0
the msg is note_off channel=0 note=74 velocity=0 time=17
the msg is note_on channel=0 note=74 velocity=100 time=0
the msg is note_off channel=0 note=72 velocity=0 time=8
the msg is note_on channel=0 note=72 velocity=100 time=0
the msg is note_off channel=0 note=72 velocity=0 time=25
the msg is note_on channel=0 note=72 velocity=100 time=0
the msg is note_off channel=0 note=72 velocity=0 time=25
the msg is note_on channel=0 note=72 velocity=100 time=0
the msg is note_off channel=0 note=72 velocity=0 time=12
the msg is note_on channel=0 note=72 velocity=100 time=0
the msg is note_off channel=0 note=72 velocity=0 time=29
the msg is note_on channel=0 note=72 velocity=100 time=0
the msg is note_off channel=0 note=72 velocity=0 time=8
the msg is note_on channel=0 note=72 velocity=100 time=0
the msg is note_off channel=0 note=72 velocity=0 time=25
the msg is note_on channel=0 note=72 velocity=100 time=0
the msg is note_off channel=0 note=72 velocity=0 time=12
the msg is note_on channel=0 note=72 velocity=100 time=0
the msg is note_off channel=0 note=72 velocity=0 time=12
the msg is note_on channel=0 note=72 velocity=100 time=0
the msg is note_off channel=0 note=72 velocity=0 time=12
the msg is note_on channel=0 note=72 velocity=100 time=0
the msg is note_off channel=0 note=76 velocity=0 time=12
the msg is note_on channel=0 note=76 velocity=100 time=0
the msg is note_off channel=0 note=79 velocity=0 time=25
the msg is note_on channel=0 note=79 velocity=100 time=0
the msg is note_off channel=0 note=79 velocity=0 time=12
the msg is note_on channel=0 note=79 velocity=100 time=0
the msg is note_off channel=0 note=76 velocity=0 time=12
the msg is note_on channel=0 note=76 velocity=100 time=0
the msg is note_off channel=0 note=74 velocity=0 time=12
the msg is note_on channel=0 note=74 velocity=100 time=0
the msg is note_off channel=0 note=72 velocity=0 time=12
the msg is note_on channel=0 note=72 velocity=100 time=0
the msg is note_off channel=0 note=72 velocity=0 time=76
the msg is note_on channel=0 note=72 velocity=100 time=0
the msg is note_off channel=0 note=72 velocity=0 time=12
the msg is note_on channel=0 note=72 velocity=100 time=0
the msg is note_off channel=0 note=72 velocity=0 time=12
the msg is note_on channel=0 note=72 velocity=100 time=0
the msg is note_off channel=0 note=72 velocity=0 time=8
the msg is note_on channel=0 note=72 velocity=100 time=0
the msg is note_off channel=0 note=72 velocity=0 time=17
the msg is note_on channel=0 note=72 velocity=100 time=0
the msg is note_off channel=0 note=72 velocity=0 time=12
the msg is note_on channel=0 note=72 velocity=100 time=0
the msg is note_off channel=0 note=72 velocity=0 time=12
the msg is note_on channel=0 note=72 velocity=100 time=0
the msg is note_off channel=0 note=76 velocity=0 time=8
the msg is note_on channel=0 note=76 velocity=100 time=0
the msg is note_off channel=0 note=79 velocity=0 time=29
the msg is note_on channel=0 note=79 velocity=100 time=0
the msg is note_off channel=0 note=79 velocity=0 time=12
the msg is note_on channel=0 note=79 velocity=100 time=0
the msg is note_off channel=0 note=76 velocity=0 time=8
the msg is note_on channel=0 note=76 velocity=100 time=0
the msg is note_off channel=0 note=74 velocity=0 time=17
the msg is note_on channel=0 note=74 velocity=100 time=0
the msg is <meta message end_of_track time=51>
the msg is <meta message track_name name='Piano' time=0>
the msg is program_change channel=0 program=0 time=0
the msg is note_off channel=0 note=72 velocity=0 time=0
the msg is pitchwheel channel=0 pitch=0 time=0
the msg is program_change channel=0 program=0 time=0
the msg is <meta message set_tempo tempo=500000 time=0>
the msg is <meta message time_signature numerator=4 denominator=4 clocks_per_click=24 notated_32nd_notes_per_beat=8 time=0>
the msg is note_on channel=0 note=72 velocity=100 time=0
the msg is note_off channel=0 note=74 velocity=0 time=34
the msg is note_on channel=0 note=74 velocity=100 time=0
the msg is note_off channel=0 note=74 velocity=0 time=17
the msg is note_on channel=0 note=74 velocity=100 time=0
the msg is note_off channel=0 note=74 velocity=0 time=34
the msg is note_on channel=0 note=74 velocity=100 time=0
the msg is note_off channel=0 note=74 velocity=0 time=17
the msg is note_on channel=0 note=74 velocity=100 time=0
the msg is note_off channel=0 note=76 velocity=0 time=34
the msg is note_on channel=0 note=76 velocity=100 time=0
the msg is note_off channel=0 note=79 velocity=0 time=17
the msg is note_on channel=0 note=79 velocity=100 time=0
the msg is note_off channel=0 note=79 velocity=0 time=17
the msg is note_on channel=0 note=79 velocity=100 time=0
the msg is note_off channel=0 note=76 velocity=0 time=17
the msg is note_on channel=0 note=76 velocity=100 time=0
the msg is note_off channel=0 note=74 velocity=0 time=4
the msg is note_on channel=0 note=74 velocity=100 time=0
the msg is note_off channel=0 note=72 velocity=0 time=12
the msg is note_on channel=0 note=72 velocity=100 time=0
the msg is note_off channel=0 note=72 velocity=0 time=89
the msg is note_on channel=0 note=72 velocity=100 time=0
the msg is note_off channel=0 note=72 velocity=0 time=12
the msg is note_on channel=0 note=72 velocity=100 time=0
the msg is note_off channel=0 note=74 velocity=0 time=25
the msg is note_on channel=0 note=74 velocity=100 time=0
the msg is note_off channel=0 note=74 velocity=0 time=25
the msg is note_on channel=0 note=74 velocity=100 time=0
the msg is note_off channel=0 note=74 velocity=0 time=12
the msg is note_on channel=0 note=74 velocity=100 time=0
the msg is note_off channel=0 note=76 velocity=0 time=25
the msg is note_on channel=0 note=76 velocity=100 time=0
the msg is note_off channel=0 note=79 velocity=0 time=25
the msg is note_on channel=0 note=79 velocity=100 time=0
the msg is note_off channel=0 note=79 velocity=0 time=12
the msg is note_on channel=0 note=79 velocity=100 time=0
the msg is note_off channel=0 note=76 velocity=0 time=12
the msg is note_on channel=0 note=76 velocity=100 time=0
the msg is note_off channel=0 note=74 velocity=0 time=12
the msg is note_on channel=0 note=74 velocity=100 time=0
the msg is note_off channel=0 note=72 velocity=0 time=12
the msg is note_on channel=0 note=72 velocity=100 time=0
the msg is note_off channel=0 note=74 velocity=0 time=25
the msg is note_on channel=0 note=74 velocity=100 time=0
the msg is note_off channel=0 note=76 velocity=0 time=25
the msg is note_on channel=0 note=76 velocity=100 time=0
the msg is note_off channel=0 note=79 velocity=0 time=25
the msg is note_on channel=0 note=79 velocity=100 time=0
the msg is note_off channel=0 note=79 velocity=0 time=12
the msg is note_on channel=0 note=79 velocity=100 time=0
the msg is note_off channel=0 note=76 velocity=0 time=12
the msg is note_on channel=0 note=76 velocity=100 time=0
the msg is note_off channel=0 note=74 velocity=0 time=12
the msg is note_on channel=0 note=74 velocity=100 time=0
the msg is note_off channel=0 note=72 velocity=0 time=12
the msg is note_on channel=0 note=72 velocity=100 time=0
the msg is note_off channel=0 note=74 velocity=0 time=25
the msg is note_on channel=0 note=74 velocity=100 time=0
the msg is note_off channel=0 note=74 velocity=0 time=12
the msg is note_on channel=0 note=74 velocity=100 time=0
the msg is note_off channel=0 note=74 velocity=0 time=12
the msg is note_on channel=0 note=74 velocity=100 time=0
the msg is note_off channel=0 note=74 velocity=0 time=25
the msg is note_on channel=0 note=74 velocity=100 time=0
the msg is note_off channel=0 note=74 velocity=0 time=25
the msg is note_on channel=0 note=74 velocity=100 time=0
the msg is note_off channel=0 note=76 velocity=0 time=25
the msg is note_on channel=0 note=76 velocity=100 time=0
the msg is note_off channel=0 note=79 velocity=0 time=25
the msg is note_on channel=0 note=79 velocity=100 time=0
the msg is note_off channel=0 note=79 velocity=0 time=12
the msg is note_on channel=0 note=79 velocity=100 time=0
the msg is note_off channel=0 note=76 velocity=0 time=12
the msg is note_on channel=0 note=76 velocity=100 time=0
the msg is note_off channel=0 note=74 velocity=0 time=12
the msg is note_on channel=0 note=74 velocity=100 time=0
the msg is note_off channel=0 note=72 velocity=0 time=12
the msg is note_on channel=0 note=72 velocity=100 time=0
the msg is note_off channel=0 note=72 velocity=0 time=81
the msg is note_on channel=0 note=72 velocity=100 time=0
the msg is note_off channel=0 note=72 velocity=0 time=8
the msg is note_on channel=0 note=72 velocity=100 time=0
the msg is note_off channel=0 note=74 velocity=0 time=25
the msg is note_on channel=0 note=74 velocity=100 time=0
the msg is note_off channel=0 note=74 velocity=0 time=25
the msg is note_on channel=0 note=74 velocity=100 time=0
the msg is note_off channel=0 note=74 velocity=0 time=25
the msg is note_on channel=0 note=74 velocity=100 time=0
the msg is note_off channel=0 note=74 velocity=0 time=25
the msg is note_on channel=0 note=74 velocity=100 time=0
the msg is note_off channel=0 note=74 velocity=0 time=25
the msg is note_on channel=0 note=74 velocity=100 time=0
the msg is note_off channel=0 note=74 velocity=0 time=25
the msg is note_on channel=0 note=74 velocity=100 time=0
the msg is note_off channel=0 note=76 velocity=0 time=25
the msg is note_on channel=0 note=76 velocity=100 time=0
the msg is note_off channel=0 note=79 velocity=0 time=25
the msg is note_on channel=0 note=79 velocity=100 time=0
the msg is note_off channel=0 note=79 velocity=0 time=12
the msg is note_on channel=0 note=79 velocity=100 time=0
the msg is note_off channel=0 note=76 velocity=0 time=12
the msg is note_on channel=0 note=76 velocity=100 time=0
the msg is note_off channel=0 note=74 velocity=0 time=17
the msg is note_on channel=0 note=74 velocity=100 time=0
the msg is note_off channel=0 note=72 velocity=0 time=8
the msg is note_on channel=0 note=72 velocity=100 time=0
the msg is note_off channel=0 note=72 velocity=0 time=25
the msg is note_on channel=0 note=72 velocity=100 time=0
the msg is note_off channel=0 note=72 velocity=0 time=25
the msg is note_on channel=0 note=72 velocity=100 time=0
the msg is note_off channel=0 note=72 velocity=0 time=12
the msg is note_on channel=0 note=72 velocity=100 time=0
the msg is note_off channel=0 note=72 velocity=0 time=29
the msg is note_on channel=0 note=72 velocity=100 time=0
the msg is note_off channel=0 note=72 velocity=0 time=8
the msg is note_on channel=0 note=72 velocity=100 time=0
the msg is note_off channel=0 note=72 velocity=0 time=25
the msg is note_on channel=0 note=72 velocity=100 time=0
the msg is note_off channel=0 note=72 velocity=0 time=12
the msg is note_on channel=0 note=72 velocity=100 time=0
the msg is note_off channel=0 note=72 velocity=0 time=12
the msg is note_on channel=0 note=72 velocity=100 time=0
the msg is note_off channel=0 note=72 velocity=0 time=12
the msg is note_on channel=0 note=72 velocity=100 time=0
the msg is note_off channel=0 note=76 velocity=0 time=12
the msg is note_on channel=0 note=76 velocity=100 time=0
the msg is note_off channel=0 note=79 velocity=0 time=25
the msg is note_on channel=0 note=79 velocity=100 time=0
the msg is note_off channel=0 note=79 velocity=0 time=12
the msg is note_on channel=0 note=79 velocity=100 time=0
the msg is note_off channel=0 note=76 velocity=0 time=12
the msg is note_on channel=0 note=76 velocity=100 time=0
the msg is note_off channel=0 note=74 velocity=0 time=12
the msg is note_on channel=0 note=74 velocity=100 time=0
the msg is note_off channel=0 note=72 velocity=0 time=12
the msg is note_on channel=0 note=72 velocity=100 time=0
the msg is note_off channel=0 note=72 velocity=0 time=76
the msg is note_on channel=0 note=72 velocity=100 time=0
the msg is note_off channel=0 note=72 velocity=0 time=12
the msg is note_on channel=0 note=72 velocity=100 time=0
the msg is note_off channel=0 note=72 velocity=0 time=12
the msg is note_on channel=0 note=72 velocity=100 time=0
the msg is note_off channel=0 note=72 velocity=0 time=8
the msg is note_on channel=0 note=72 velocity=100 time=0
the msg is note_off channel=0 note=72 velocity=0 time=17
the msg is note_on channel=0 note=72 velocity=100 time=0
the msg is note_off channel=0 note=72 velocity=0 time=12
the msg is note_on channel=0 note=72 velocity=100 time=0
the msg is note_off channel=0 note=72 velocity=0 time=12
the msg is note_on channel=0 note=72 velocity=100 time=0
the msg is note_off channel=0 note=76 velocity=0 time=8
the msg is note_on channel=0 note=76 velocity=100 time=0
the msg is note_off channel=0 note=79 velocity=0 time=29
the msg is note_on channel=0 note=79 velocity=100 time=0
the msg is note_off channel=0 note=79 velocity=0 time=12
the msg is note_on channel=0 note=79 velocity=100 time=0
the msg is note_off channel=0 note=76 velocity=0 time=8
the msg is note_on channel=0 note=76 velocity=100 time=0
the msg is note_off channel=0 note=74 velocity=0 time=17
the msg is note_on channel=0 note=74 velocity=100 time=0
the msg is <meta message end_of_track time=51>
the msg is <meta message track_name name='Piano' time=0>
the msg is program_change channel=0 program=0 time=0
the msg is note_off channel=0 note=72 velocity=0 time=0
the msg is pitchwheel channel=0 pitch=0 time=0
the msg is program_change channel=0 program=0 time=0
the msg is <meta message set_tempo tempo=500000 time=0>
the msg is <meta message time_signature numerator=4 denominator=4 clocks_per_click=24 notated_32nd_notes_per_beat=8 time=0>
the msg is note_on channel=0 note=72 velocity=100 time=0
the msg is note_off channel=0 note=74 velocity=0 time=34
the msg is note_on channel=0 note=74 velocity=100 time=0
the msg is note_off channel=0 note=74 velocity=0 time=17
the msg is note_on channel=0 note=74 velocity=100 time=0
the msg is note_off channel=0 note=74 velocity=0 time=34
the msg is note_on channel=0 note=74 velocity=100 time=0
the msg is note_off channel=0 note=74 velocity=0 time=17
the msg is note_on channel=0 note=74 velocity=100 time=0
the msg is note_off channel=0 note=76 velocity=0 time=34
the msg is note_on channel=0 note=76 velocity=100 time=0
the msg is note_off channel=0 note=79 velocity=0 time=17
the msg is note_on channel=0 note=79 velocity=100 time=0
the msg is note_off channel=0 note=79 velocity=0 time=17
the msg is note_on channel=0 note=79 velocity=100 time=0
the msg is note_off channel=0 note=76 velocity=0 time=17
the msg is note_on channel=0 note=76 velocity=100 time=0
the msg is note_off channel=0 note=74 velocity=0 time=4
the msg is note_on channel=0 note=74 velocity=100 time=0
the msg is note_off channel=0 note=72 velocity=0 time=12
the msg is note_on channel=0 note=72 velocity=100 time=0
the msg is note_off channel=0 note=72 velocity=0 time=89
the msg is note_on channel=0 note=72 velocity=100 time=0
the msg is note_off channel=0 note=72 velocity=0 time=12
the msg is note_on channel=0 note=72 velocity=100 time=0
the msg is note_off channel=0 note=74 velocity=0 time=25
the msg is note_on channel=0 note=74 velocity=100 time=0
the msg is note_off channel=0 note=74 velocity=0 time=25
the msg is note_on channel=0 note=74 velocity=100 time=0
the msg is note_off channel=0 note=74 velocity=0 time=12
the msg is note_on channel=0 note=74 velocity=100 time=0
the msg is note_off channel=0 note=76 velocity=0 time=25
the msg is note_on channel=0 note=76 velocity=100 time=0
the msg is note_off channel=0 note=79 velocity=0 time=25
the msg is note_on channel=0 note=79 velocity=100 time=0
the msg is note_off channel=0 note=79 velocity=0 time=12
the msg is note_on channel=0 note=79 velocity=100 time=0
the msg is note_off channel=0 note=76 velocity=0 time=12
the msg is note_on channel=0 note=76 velocity=100 time=0
the msg is note_off channel=0 note=74 velocity=0 time=12
the msg is note_on channel=0 note=74 velocity=100 time=0
the msg is note_off channel=0 note=72 velocity=0 time=12
the msg is note_on channel=0 note=72 velocity=100 time=0
the msg is note_off channel=0 note=74 velocity=0 time=25
the msg is note_on channel=0 note=74 velocity=100 time=0
the msg is note_off channel=0 note=76 velocity=0 time=25
the msg is note_on channel=0 note=76 velocity=100 time=0
the msg is note_off channel=0 note=79 velocity=0 time=25
the msg is note_on channel=0 note=79 velocity=100 time=0
the msg is note_off channel=0 note=79 velocity=0 time=12
the msg is note_on channel=0 note=79 velocity=100 time=0
the msg is note_off channel=0 note=76 velocity=0 time=12
the msg is note_on channel=0 note=76 velocity=100 time=0
the msg is note_off channel=0 note=74 velocity=0 time=12
the msg is note_on channel=0 note=74 velocity=100 time=0
the msg is note_off channel=0 note=72 velocity=0 time=12
the msg is note_on channel=0 note=72 velocity=100 time=0
the msg is note_off channel=0 note=74 velocity=0 time=25
the msg is note_on channel=0 note=74 velocity=100 time=0
the msg is note_off channel=0 note=74 velocity=0 time=12
the msg is note_on channel=0 note=74 velocity=100 time=0
the msg is note_off channel=0 note=74 velocity=0 time=12
the msg is note_on channel=0 note=74 velocity=100 time=0
the msg is note_off channel=0 note=74 velocity=0 time=25
the msg is note_on channel=0 note=74 velocity=100 time=0
the msg is note_off channel=0 note=74 velocity=0 time=25
the msg is note_on channel=0 note=74 velocity=100 time=0
the msg is note_off channel=0 note=76 velocity=0 time=25
the msg is note_on channel=0 note=76 velocity=100 time=0
the msg is note_off channel=0 note=79 velocity=0 time=25
the msg is note_on channel=0 note=79 velocity=100 time=0
the msg is note_off channel=0 note=79 velocity=0 time=12
the msg is note_on channel=0 note=79 velocity=100 time=0
the msg is note_off channel=0 note=76 velocity=0 time=12
the msg is note_on channel=0 note=76 velocity=100 time=0
the msg is note_off channel=0 note=74 velocity=0 time=12
the msg is note_on channel=0 note=74 velocity=100 time=0
the msg is note_off channel=0 note=72 velocity=0 time=12
the msg is note_on channel=0 note=72 velocity=100 time=0
the msg is note_off channel=0 note=72 velocity=0 time=81
the msg is note_on channel=0 note=72 velocity=100 time=0
the msg is note_off channel=0 note=72 velocity=0 time=8
the msg is note_on channel=0 note=72 velocity=100 time=0
the msg is note_off channel=0 note=74 velocity=0 time=25
the msg is note_on channel=0 note=74 velocity=100 time=0
the msg is note_off channel=0 note=74 velocity=0 time=25
the msg is note_on channel=0 note=74 velocity=100 time=0
the msg is note_off channel=0 note=74 velocity=0 time=25
the msg is note_on channel=0 note=74 velocity=100 time=0
the msg is note_off channel=0 note=74 velocity=0 time=25
the msg is note_on channel=0 note=74 velocity=100 time=0
the msg is note_off channel=0 note=74 velocity=0 time=25
the msg is note_on channel=0 note=74 velocity=100 time=0
the msg is note_off channel=0 note=74 velocity=0 time=25
the msg is note_on channel=0 note=74 velocity=100 time=0
the msg is note_off channel=0 note=76 velocity=0 time=25
the msg is note_on channel=0 note=76 velocity=100 time=0
the msg is note_off channel=0 note=79 velocity=0 time=25
the msg is note_on channel=0 note=79 velocity=100 time=0
the msg is note_off channel=0 note=79 velocity=0 time=12
the msg is note_on channel=0 note=79 velocity=100 time=0
the msg is note_off channel=0 note=76 velocity=0 time=12
the msg is note_on channel=0 note=76 velocity=100 time=0
the msg is note_off channel=0 note=74 velocity=0 time=17
the msg is note_on channel=0 note=74 velocity=100 time=0
the msg is note_off channel=0 note=72 velocity=0 time=8
the msg is note_on channel=0 note=72 velocity=100 time=0
the msg is note_off channel=0 note=72 velocity=0 time=25
the msg is note_on channel=0 note=72 velocity=100 time=0
the msg is note_off channel=0 note=72 velocity=0 time=25
the msg is note_on channel=0 note=72 velocity=100 time=0
the msg is note_off channel=0 note=72 velocity=0 time=12
the msg is note_on channel=0 note=72 velocity=100 time=0
the msg is note_off channel=0 note=72 velocity=0 time=29
the msg is note_on channel=0 note=72 velocity=100 time=0
the msg is note_off channel=0 note=72 velocity=0 time=8
the msg is note_on channel=0 note=72 velocity=100 time=0
the msg is note_off channel=0 note=72 velocity=0 time=25
the msg is note_on channel=0 note=72 velocity=100 time=0
the msg is note_off channel=0 note=72 velocity=0 time=12
the msg is note_on channel=0 note=72 velocity=100 time=0
the msg is note_off channel=0 note=72 velocity=0 time=12
the msg is note_on channel=0 note=72 velocity=100 time=0
the msg is note_off channel=0 note=72 velocity=0 time=12
the msg is note_on channel=0 note=72 velocity=100 time=0
the msg is note_off channel=0 note=76 velocity=0 time=12
the msg is note_on channel=0 note=76 velocity=100 time=0
the msg is note_off channel=0 note=79 velocity=0 time=25
the msg is note_on channel=0 note=79 velocity=100 time=0
the msg is note_off channel=0 note=79 velocity=0 time=12
the msg is note_on channel=0 note=79 velocity=100 time=0
the msg is note_off channel=0 note=76 velocity=0 time=12
the msg is note_on channel=0 note=76 velocity=100 time=0
the msg is note_off channel=0 note=74 velocity=0 time=12
the msg is note_on channel=0 note=74 velocity=100 time=0
the msg is note_off channel=0 note=72 velocity=0 time=12
the msg is note_on channel=0 note=72 velocity=100 time=0
the msg is note_off channel=0 note=72 velocity=0 time=76
the msg is note_on channel=0 note=72 velocity=100 time=0
the msg is note_off channel=0 note=72 velocity=0 time=12
the msg is note_on channel=0 note=72 velocity=100 time=0
the msg is note_off channel=0 note=72 velocity=0 time=12
the msg is note_on channel=0 note=72 velocity=100 time=0
the msg is note_off channel=0 note=72 velocity=0 time=8
the msg is note_on channel=0 note=72 velocity=100 time=0
the msg is note_off channel=0 note=72 velocity=0 time=17
the msg is note_on channel=0 note=72 velocity=100 time=0
the msg is note_off channel=0 note=72 velocity=0 time=12
the msg is note_on channel=0 note=72 velocity=100 time=0
the msg is note_off channel=0 note=72 velocity=0 time=12
the msg is note_on channel=0 note=72 velocity=100 time=0
the msg is note_off channel=0 note=76 velocity=0 time=8
the msg is note_on channel=0 note=76 velocity=100 time=0
the msg is note_off channel=0 note=79 velocity=0 time=29
the msg is note_on channel=0 note=79 velocity=100 time=0
the msg is note_off channel=0 note=79 velocity=0 time=12
the msg is note_on channel=0 note=79 velocity=100 time=0
the msg is note_off channel=0 note=76 velocity=0 time=8
the msg is note_on channel=0 note=76 velocity=100 time=0
the msg is note_off channel=0 note=74 velocity=0 time=17
the msg is note_on channel=0 note=74 velocity=100 time=0
the msg is <meta message end_of_track time=51>
the msg is <meta message track_name name='Piano' time=0>
the msg is program_change channel=0 program=0 time=0
the msg is note_off channel=0 note=72 velocity=0 time=0
the msg is pitchwheel channel=0 pitch=0 time=0
the msg is program_change channel=0 program=0 time=0
the msg is <meta message set_tempo tempo=500000 time=0>
the msg is <meta message time_signature numerator=4 denominator=4 clocks_per_click=24 notated_32nd_notes_per_beat=8 time=0>
the msg is note_on channel=0 note=72 velocity=100 time=0
the msg is note_off channel=0 note=74 velocity=0 time=34
the msg is note_on channel=0 note=74 velocity=100 time=0
the msg is note_off channel=0 note=74 velocity=0 time=17
the msg is note_on channel=0 note=74 velocity=100 time=0
the msg is note_off channel=0 note=74 velocity=0 time=34
the msg is note_on channel=0 note=74 velocity=100 time=0
the msg is note_off channel=0 note=74 velocity=0 time=17
the msg is note_on channel=0 note=74 velocity=100 time=0
the msg is note_off channel=0 note=76 velocity=0 time=34
the msg is note_on channel=0 note=76 velocity=100 time=0
the msg is note_off channel=0 note=79 velocity=0 time=17
the msg is note_on channel=0 note=79 velocity=100 time=0
the msg is note_off channel=0 note=79 velocity=0 time=17
the msg is note_on channel=0 note=79 velocity=100 time=0
the msg is note_off channel=0 note=76 velocity=0 time=17
the msg is note_on channel=0 note=76 velocity=100 time=0
the msg is note_off channel=0 note=74 velocity=0 time=4
the msg is note_on channel=0 note=74 velocity=100 time=0
the msg is note_off channel=0 note=72 velocity=0 time=12
the msg is note_on channel=0 note=72 velocity=100 time=0
the msg is note_off channel=0 note=72 velocity=0 time=89
the msg is note_on channel=0 note=72 velocity=100 time=0
the msg is note_off channel=0 note=72 velocity=0 time=12
the msg is note_on channel=0 note=72 velocity=100 time=0
the msg is note_off channel=0 note=74 velocity=0 time=25
the msg is note_on channel=0 note=74 velocity=100 time=0
the msg is note_off channel=0 note=74 velocity=0 time=25
the msg is note_on channel=0 note=74 velocity=100 time=0
the msg is note_off channel=0 note=74 velocity=0 time=12
the msg is note_on channel=0 note=74 velocity=100 time=0
the msg is note_off channel=0 note=76 velocity=0 time=25
the msg is note_on channel=0 note=76 velocity=100 time=0
the msg is note_off channel=0 note=79 velocity=0 time=25
the msg is note_on channel=0 note=79 velocity=100 time=0
the msg is note_off channel=0 note=79 velocity=0 time=12
the msg is note_on channel=0 note=79 velocity=100 time=0
the msg is note_off channel=0 note=76 velocity=0 time=12
the msg is note_on channel=0 note=76 velocity=100 time=0
the msg is note_off channel=0 note=74 velocity=0 time=12
the msg is note_on channel=0 note=74 velocity=100 time=0
the msg is note_off channel=0 note=72 velocity=0 time=12
the msg is note_on channel=0 note=72 velocity=100 time=0
the msg is note_off channel=0 note=74 velocity=0 time=25
the msg is note_on channel=0 note=74 velocity=100 time=0
the msg is note_off channel=0 note=76 velocity=0 time=25
the msg is note_on channel=0 note=76 velocity=100 time=0
the msg is note_off channel=0 note=79 velocity=0 time=25
the msg is note_on channel=0 note=79 velocity=100 time=0
the msg is note_off channel=0 note=79 velocity=0 time=12
the msg is note_on channel=0 note=79 velocity=100 time=0
the msg is note_off channel=0 note=76 velocity=0 time=12
the msg is note_on channel=0 note=76 velocity=100 time=0
the msg is note_off channel=0 note=74 velocity=0 time=12
the msg is note_on channel=0 note=74 velocity=100 time=0
the msg is note_off channel=0 note=72 velocity=0 time=12
the msg is note_on channel=0 note=72 velocity=100 time=0
the msg is note_off channel=0 note=74 velocity=0 time=25
the msg is note_on channel=0 note=74 velocity=100 time=0
the msg is note_off channel=0 note=74 velocity=0 time=12
the msg is note_on channel=0 note=74 velocity=100 time=0
the msg is note_off channel=0 note=74 velocity=0 time=12
the msg is note_on channel=0 note=74 velocity=100 time=0
the msg is note_off channel=0 note=74 velocity=0 time=25
the msg is note_on channel=0 note=74 velocity=100 time=0
the msg is note_off channel=0 note=74 velocity=0 time=25
the msg is note_on channel=0 note=74 velocity=100 time=0
the msg is note_off channel=0 note=76 velocity=0 time=25
the msg is note_on channel=0 note=76 velocity=100 time=0
the msg is note_off channel=0 note=79 velocity=0 time=25
the msg is note_on channel=0 note=79 velocity=100 time=0
the msg is note_off channel=0 note=79 velocity=0 time=12
the msg is note_on channel=0 note=79 velocity=100 time=0
the msg is note_off channel=0 note=76 velocity=0 time=12
the msg is note_on channel=0 note=76 velocity=100 time=0
the msg is note_off channel=0 note=74 velocity=0 time=12
the msg is note_on channel=0 note=74 velocity=100 time=0
the msg is note_off channel=0 note=72 velocity=0 time=12
the msg is note_on channel=0 note=72 velocity=100 time=0
the msg is note_off channel=0 note=72 velocity=0 time=81
the msg is note_on channel=0 note=72 velocity=100 time=0
the msg is note_off channel=0 note=72 velocity=0 time=8
the msg is note_on channel=0 note=72 velocity=100 time=0
the msg is note_off channel=0 note=74 velocity=0 time=25
the msg is note_on channel=0 note=74 velocity=100 time=0
the msg is note_off channel=0 note=74 velocity=0 time=25
the msg is note_on channel=0 note=74 velocity=100 time=0
the msg is note_off channel=0 note=74 velocity=0 time=25
the msg is note_on channel=0 note=74 velocity=100 time=0
the msg is note_off channel=0 note=74 velocity=0 time=25
the msg is note_on channel=0 note=74 velocity=100 time=0
the msg is note_off channel=0 note=74 velocity=0 time=25
the msg is note_on channel=0 note=74 velocity=100 time=0
the msg is note_off channel=0 note=74 velocity=0 time=25
the msg is note_on channel=0 note=74 velocity=100 time=0
the msg is note_off channel=0 note=76 velocity=0 time=25
the msg is note_on channel=0 note=76 velocity=100 time=0
the msg is note_off channel=0 note=79 velocity=0 time=25
the msg is note_on channel=0 note=79 velocity=100 time=0
the msg is note_off channel=0 note=79 velocity=0 time=12
the msg is note_on channel=0 note=79 velocity=100 time=0
the msg is note_off channel=0 note=76 velocity=0 time=12
the msg is note_on channel=0 note=76 velocity=100 time=0
the msg is note_off channel=0 note=74 velocity=0 time=17
the msg is note_on channel=0 note=74 velocity=100 time=0
the msg is note_off channel=0 note=72 velocity=0 time=8
the msg is note_on channel=0 note=72 velocity=100 time=0
the msg is note_off channel=0 note=72 velocity=0 time=25
the msg is note_on channel=0 note=72 velocity=100 time=0
the msg is note_off channel=0 note=72 velocity=0 time=25
the msg is note_on channel=0 note=72 velocity=100 time=0
the msg is note_off channel=0 note=72 velocity=0 time=12
the msg is note_on channel=0 note=72 velocity=100 time=0
the msg is note_off channel=0 note=72 velocity=0 time=29
the msg is note_on channel=0 note=72 velocity=100 time=0
the msg is note_off channel=0 note=72 velocity=0 time=8
the msg is note_on channel=0 note=72 velocity=100 time=0
the msg is note_off channel=0 note=72 velocity=0 time=25
the msg is note_on channel=0 note=72 velocity=100 time=0
the msg is note_off channel=0 note=72 velocity=0 time=12
the msg is note_on channel=0 note=72 velocity=100 time=0
the msg is note_off channel=0 note=72 velocity=0 time=12
the msg is note_on channel=0 note=72 velocity=100 time=0
the msg is note_off channel=0 note=72 velocity=0 time=12
the msg is note_on channel=0 note=72 velocity=100 time=0
the msg is note_off channel=0 note=76 velocity=0 time=12
the msg is note_on channel=0 note=76 velocity=100 time=0
the msg is note_off channel=0 note=79 velocity=0 time=25
the msg is note_on channel=0 note=79 velocity=100 time=0
the msg is note_off channel=0 note=79 velocity=0 time=12
the msg is note_on channel=0 note=79 velocity=100 time=0
the msg is note_off channel=0 note=76 velocity=0 time=12
the msg is note_on channel=0 note=76 velocity=100 time=0
the msg is note_off channel=0 note=74 velocity=0 time=12
the msg is note_on channel=0 note=74 velocity=100 time=0
the msg is note_off channel=0 note=72 velocity=0 time=12
the msg is note_on channel=0 note=72 velocity=100 time=0
the msg is note_off channel=0 note=72 velocity=0 time=76
the msg is note_on channel=0 note=72 velocity=100 time=0
the msg is note_off channel=0 note=72 velocity=0 time=12
the msg is note_on channel=0 note=72 velocity=100 time=0
the msg is note_off channel=0 note=72 velocity=0 time=12
the msg is note_on channel=0 note=72 velocity=100 time=0
the msg is note_off channel=0 note=72 velocity=0 time=8
the msg is note_on channel=0 note=72 velocity=100 time=0
the msg is note_off channel=0 note=72 velocity=0 time=17
the msg is note_on channel=0 note=72 velocity=100 time=0
the msg is note_off channel=0 note=72 velocity=0 time=12
the msg is note_on channel=0 note=72 velocity=100 time=0
the msg is note_off channel=0 note=72 velocity=0 time=12
the msg is note_on channel=0 note=72 velocity=100 time=0
the msg is note_off channel=0 note=76 velocity=0 time=8
the msg is note_on channel=0 note=76 velocity=100 time=0
the msg is note_off channel=0 note=79 velocity=0 time=29
the msg is note_on channel=0 note=79 velocity=100 time=0
the msg is note_off channel=0 note=79 velocity=0 time=12
the msg is note_on channel=0 note=79 velocity=100 time=0
the msg is note_off channel=0 note=76 velocity=0 time=8
the msg is note_on channel=0 note=76 velocity=100 time=0
the msg is note_off channel=0 note=74 velocity=0 time=17
the msg is note_on channel=0 note=74 velocity=100 time=0
the msg is <meta message end_of_track time=51>
the msg is <meta message track_name name='Piano' time=0>
the msg is program_change channel=0 program=0 time=0
the msg is note_off channel=0 note=72 velocity=0 time=0
the msg is pitchwheel channel=0 pitch=0 time=0
the msg is program_change channel=0 program=0 time=0
the msg is <meta message set_tempo tempo=500000 time=0>
the msg is <meta message time_signature numerator=4 denominator=4 clocks_per_click=24 notated_32nd_notes_per_beat=8 time=0>
the msg is note_on channel=0 note=72 velocity=100 time=0
the msg is note_off channel=0 note=74 velocity=0 time=34
the msg is note_on channel=0 note=74 velocity=100 time=0
the msg is note_off channel=0 note=74 velocity=0 time=17
the msg is note_on channel=0 note=74 velocity=100 time=0
the msg is note_off channel=0 note=74 velocity=0 time=34
the msg is note_on channel=0 note=74 velocity=100 time=0
the msg is note_off channel=0 note=74 velocity=0 time=17
the msg is note_on channel=0 note=74 velocity=100 time=0
the msg is note_off channel=0 note=76 velocity=0 time=34
the msg is note_on channel=0 note=76 velocity=100 time=0
the msg is note_off channel=0 note=79 velocity=0 time=17
the msg is note_on channel=0 note=79 velocity=100 time=0
the msg is note_off channel=0 note=79 velocity=0 time=17
the msg is note_on channel=0 note=79 velocity=100 time=0
the msg is note_off channel=0 note=76 velocity=0 time=17
the msg is note_on channel=0 note=76 velocity=100 time=0
the msg is note_off channel=0 note=74 velocity=0 time=4
the msg is note_on channel=0 note=74 velocity=100 time=0
the msg is note_off channel=0 note=72 velocity=0 time=12
the msg is note_on channel=0 note=72 velocity=100 time=0
the msg is note_off channel=0 note=72 velocity=0 time=89
the msg is note_on channel=0 note=72 velocity=100 time=0
the msg is note_off channel=0 note=72 velocity=0 time=12
the msg is note_on channel=0 note=72 velocity=100 time=0
the msg is note_off channel=0 note=74 velocity=0 time=25
the msg is note_on channel=0 note=74 velocity=100 time=0
the msg is note_off channel=0 note=74 velocity=0 time=25
the msg is note_on channel=0 note=74 velocity=100 time=0
the msg is note_off channel=0 note=74 velocity=0 time=12
the msg is note_on channel=0 note=74 velocity=100 time=0
the msg is note_off channel=0 note=76 velocity=0 time=25
the msg is note_on channel=0 note=76 velocity=100 time=0
the msg is note_off channel=0 note=79 velocity=0 time=25
the msg is note_on channel=0 note=79 velocity=100 time=0
the msg is note_off channel=0 note=79 velocity=0 time=12
the msg is note_on channel=0 note=79 velocity=100 time=0
the msg is note_off channel=0 note=76 velocity=0 time=12
the msg is note_on channel=0 note=76 velocity=100 time=0
the msg is note_off channel=0 note=74 velocity=0 time=12
the msg is note_on channel=0 note=74 velocity=100 time=0
the msg is note_off channel=0 note=72 velocity=0 time=12
the msg is note_on channel=0 note=72 velocity=100 time=0
the msg is note_off channel=0 note=74 velocity=0 time=25
the msg is note_on channel=0 note=74 velocity=100 time=0
the msg is note_off channel=0 note=76 velocity=0 time=25
the msg is note_on channel=0 note=76 velocity=100 time=0
the msg is note_off channel=0 note=79 velocity=0 time=25
the msg is note_on channel=0 note=79 velocity=100 time=0
the msg is note_off channel=0 note=79 velocity=0 time=12
the msg is note_on channel=0 note=79 velocity=100 time=0
the msg is note_off channel=0 note=76 velocity=0 time=12
the msg is note_on channel=0 note=76 velocity=100 time=0
the msg is note_off channel=0 note=74 velocity=0 time=12
the msg is note_on channel=0 note=74 velocity=100 time=0
the msg is note_off channel=0 note=72 velocity=0 time=12
the msg is note_on channel=0 note=72 velocity=100 time=0
the msg is note_off channel=0 note=74 velocity=0 time=25
the msg is note_on channel=0 note=74 velocity=100 time=0
the msg is note_off channel=0 note=74 velocity=0 time=12
the msg is note_on channel=0 note=74 velocity=100 time=0
the msg is note_off channel=0 note=74 velocity=0 time=12
the msg is note_on channel=0 note=74 velocity=100 time=0
the msg is note_off channel=0 note=74 velocity=0 time=25
the msg is note_on channel=0 note=74 velocity=100 time=0
the msg is note_off channel=0 note=74 velocity=0 time=25
the msg is note_on channel=0 note=74 velocity=100 time=0
the msg is note_off channel=0 note=76 velocity=0 time=25
the msg is note_on channel=0 note=76 velocity=100 time=0
the msg is note_off channel=0 note=79 velocity=0 time=25
the msg is note_on channel=0 note=79 velocity=100 time=0
the msg is note_off channel=0 note=79 velocity=0 time=12
the msg is note_on channel=0 note=79 velocity=100 time=0
the msg is note_off channel=0 note=76 velocity=0 time=12
the msg is note_on channel=0 note=76 velocity=100 time=0
the msg is note_off channel=0 note=74 velocity=0 time=12
the msg is note_on channel=0 note=74 velocity=100 time=0
the msg is note_off channel=0 note=72 velocity=0 time=12
the msg is note_on channel=0 note=72 velocity=100 time=0
the msg is note_off channel=0 note=72 velocity=0 time=81
the msg is note_on channel=0 note=72 velocity=100 time=0
the msg is note_off channel=0 note=72 velocity=0 time=8
the msg is note_on channel=0 note=72 velocity=100 time=0
the msg is note_off channel=0 note=74 velocity=0 time=25
the msg is note_on channel=0 note=74 velocity=100 time=0
the msg is note_off channel=0 note=74 velocity=0 time=25
the msg is note_on channel=0 note=74 velocity=100 time=0
the msg is note_off channel=0 note=74 velocity=0 time=25
the msg is note_on channel=0 note=74 velocity=100 time=0
the msg is note_off channel=0 note=74 velocity=0 time=25
the msg is note_on channel=0 note=74 velocity=100 time=0
the msg is note_off channel=0 note=74 velocity=0 time=25
the msg is note_on channel=0 note=74 velocity=100 time=0
the msg is note_off channel=0 note=74 velocity=0 time=25
the msg is note_on channel=0 note=74 velocity=100 time=0
the msg is note_off channel=0 note=76 velocity=0 time=25
the msg is note_on channel=0 note=76 velocity=100 time=0
the msg is note_off channel=0 note=79 velocity=0 time=25
the msg is note_on channel=0 note=79 velocity=100 time=0
the msg is note_off channel=0 note=79 velocity=0 time=12
the msg is note_on channel=0 note=79 velocity=100 time=0
the msg is note_off channel=0 note=76 velocity=0 time=12
the msg is note_on channel=0 note=76 velocity=100 time=0
the msg is note_off channel=0 note=74 velocity=0 time=17
the msg is note_on channel=0 note=74 velocity=100 time=0
the msg is note_off channel=0 note=72 velocity=0 time=8
the msg is note_on channel=0 note=72 velocity=100 time=0
the msg is note_off channel=0 note=72 velocity=0 time=25
the msg is note_on channel=0 note=72 velocity=100 time=0
the msg is note_off channel=0 note=72 velocity=0 time=25
the msg is note_on channel=0 note=72 velocity=100 time=0
the msg is note_off channel=0 note=72 velocity=0 time=12
the msg is note_on channel=0 note=72 velocity=100 time=0
the msg is note_off channel=0 note=72 velocity=0 time=29
the msg is note_on channel=0 note=72 velocity=100 time=0
the msg is note_off channel=0 note=72 velocity=0 time=8
the msg is note_on channel=0 note=72 velocity=100 time=0
the msg is note_off channel=0 note=72 velocity=0 time=25
the msg is note_on channel=0 note=72 velocity=100 time=0
the msg is note_off channel=0 note=72 velocity=0 time=12
the msg is note_on channel=0 note=72 velocity=100 time=0
the msg is note_off channel=0 note=72 velocity=0 time=12
the msg is note_on channel=0 note=72 velocity=100 time=0
the msg is note_off channel=0 note=72 velocity=0 time=12
the msg is note_on channel=0 note=72 velocity=100 time=0
the msg is note_off channel=0 note=76 velocity=0 time=12
the msg is note_on channel=0 note=76 velocity=100 time=0
the msg is note_off channel=0 note=79 velocity=0 time=25
the msg is note_on channel=0 note=79 velocity=100 time=0
the msg is note_off channel=0 note=79 velocity=0 time=12
the msg is note_on channel=0 note=79 velocity=100 time=0
the msg is note_off channel=0 note=76 velocity=0 time=12
the msg is note_on channel=0 note=76 velocity=100 time=0
the msg is note_off channel=0 note=74 velocity=0 time=12
the msg is note_on channel=0 note=74 velocity=100 time=0
the msg is note_off channel=0 note=72 velocity=0 time=12
the msg is note_on channel=0 note=72 velocity=100 time=0
the msg is note_off channel=0 note=72 velocity=0 time=76
the msg is note_on channel=0 note=72 velocity=100 time=0
the msg is note_off channel=0 note=72 velocity=0 time=12
the msg is note_on channel=0 note=72 velocity=100 time=0
the msg is note_off channel=0 note=72 velocity=0 time=12
the msg is note_on channel=0 note=72 velocity=100 time=0
the msg is note_off channel=0 note=72 velocity=0 time=8
the msg is note_on channel=0 note=72 velocity=100 time=0
the msg is note_off channel=0 note=72 velocity=0 time=17
the msg is note_on channel=0 note=72 velocity=100 time=0
the msg is note_off channel=0 note=72 velocity=0 time=12
the msg is note_on channel=0 note=72 velocity=100 time=0
the msg is note_off channel=0 note=72 velocity=0 time=12
the msg is note_on channel=0 note=72 velocity=100 time=0
the msg is note_off channel=0 note=76 velocity=0 time=8
the msg is note_on channel=0 note=76 velocity=100 time=0
the msg is note_off channel=0 note=79 velocity=0 time=29
the msg is note_on channel=0 note=79 velocity=100 time=0
the msg is note_off channel=0 note=79 velocity=0 time=12
the msg is note_on channel=0 note=79 velocity=100 time=0
the msg is note_off channel=0 note=76 velocity=0 time=8
the msg is note_on channel=0 note=76 velocity=100 time=0
the msg is note_off channel=0 note=74 velocity=0 time=17
the msg is note_on channel=0 note=74 velocity=100 time=0
the msg is <meta message end_of_track time=51>
the msg is <meta message track_name name='Piano' time=0>
the msg is program_change channel=0 program=0 time=0
the msg is note_off channel=0 note=72 velocity=0 time=0
the msg is pitchwheel channel=0 pitch=0 time=0
the msg is program_change channel=0 program=0 time=0
the msg is <meta message set_tempo tempo=500000 time=0>
the msg is <meta message time_signature numerator=4 denominator=4 clocks_per_click=24 notated_32nd_notes_per_beat=8 time=0>
the msg is note_on channel=0 note=72 velocity=100 time=0
the msg is note_off channel=0 note=74 velocity=0 time=34
the msg is note_on channel=0 note=74 velocity=100 time=0
the msg is note_off channel=0 note=74 velocity=0 time=17
the msg is note_on channel=0 note=74 velocity=100 time=0
the msg is note_off channel=0 note=74 velocity=0 time=34
the msg is note_on channel=0 note=74 velocity=100 time=0
the msg is note_off channel=0 note=74 velocity=0 time=17
the msg is note_on channel=0 note=74 velocity=100 time=0
the msg is note_off channel=0 note=76 velocity=0 time=34
the msg is note_on channel=0 note=76 velocity=100 time=0
the msg is note_off channel=0 note=79 velocity=0 time=17
the msg is note_on channel=0 note=79 velocity=100 time=0
the msg is note_off channel=0 note=79 velocity=0 time=17
the msg is note_on channel=0 note=79 velocity=100 time=0
the msg is note_off channel=0 note=76 velocity=0 time=17
the msg is note_on channel=0 note=76 velocity=100 time=0
the msg is note_off channel=0 note=74 velocity=0 time=4
the msg is note_on channel=0 note=74 velocity=100 time=0
the msg is note_off channel=0 note=72 velocity=0 time=12
the msg is note_on channel=0 note=72 velocity=100 time=0
the msg is note_off channel=0 note=72 velocity=0 time=89
the msg is note_on channel=0 note=72 velocity=100 time=0
the msg is note_off channel=0 note=72 velocity=0 time=12
the msg is note_on channel=0 note=72 velocity=100 time=0
the msg is note_off channel=0 note=74 velocity=0 time=25
the msg is note_on channel=0 note=74 velocity=100 time=0
the msg is note_off channel=0 note=74 velocity=0 time=25
the msg is note_on channel=0 note=74 velocity=100 time=0
the msg is note_off channel=0 note=74 velocity=0 time=12
the msg is note_on channel=0 note=74 velocity=100 time=0
the msg is note_off channel=0 note=76 velocity=0 time=25
the msg is note_on channel=0 note=76 velocity=100 time=0
the msg is note_off channel=0 note=79 velocity=0 time=25
the msg is note_on channel=0 note=79 velocity=100 time=0
the msg is note_off channel=0 note=79 velocity=0 time=12
the msg is note_on channel=0 note=79 velocity=100 time=0
the msg is note_off channel=0 note=76 velocity=0 time=12
the msg is note_on channel=0 note=76 velocity=100 time=0
the msg is note_off channel=0 note=74 velocity=0 time=12
the msg is note_on channel=0 note=74 velocity=100 time=0
the msg is note_off channel=0 note=72 velocity=0 time=12
the msg is note_on channel=0 note=72 velocity=100 time=0
the msg is note_off channel=0 note=74 velocity=0 time=25
the msg is note_on channel=0 note=74 velocity=100 time=0
the msg is note_off channel=0 note=76 velocity=0 time=25
the msg is note_on channel=0 note=76 velocity=100 time=0
the msg is note_off channel=0 note=79 velocity=0 time=25
the msg is note_on channel=0 note=79 velocity=100 time=0
the msg is note_off channel=0 note=79 velocity=0 time=12
the msg is note_on channel=0 note=79 velocity=100 time=0
the msg is note_off channel=0 note=76 velocity=0 time=12
the msg is note_on channel=0 note=76 velocity=100 time=0
the msg is note_off channel=0 note=74 velocity=0 time=12
the msg is note_on channel=0 note=74 velocity=100 time=0
the msg is note_off channel=0 note=72 velocity=0 time=12
the msg is note_on channel=0 note=72 velocity=100 time=0
the msg is note_off channel=0 note=74 velocity=0 time=25
the msg is note_on channel=0 note=74 velocity=100 time=0
the msg is note_off channel=0 note=74 velocity=0 time=12
the msg is note_on channel=0 note=74 velocity=100 time=0
the msg is note_off channel=0 note=74 velocity=0 time=12
the msg is note_on channel=0 note=74 velocity=100 time=0
the msg is note_off channel=0 note=74 velocity=0 time=25
the msg is note_on channel=0 note=74 velocity=100 time=0
the msg is note_off channel=0 note=74 velocity=0 time=25
the msg is note_on channel=0 note=74 velocity=100 time=0
the msg is note_off channel=0 note=76 velocity=0 time=25
the msg is note_on channel=0 note=76 velocity=100 time=0
the msg is note_off channel=0 note=79 velocity=0 time=25
the msg is note_on channel=0 note=79 velocity=100 time=0
the msg is note_off channel=0 note=79 velocity=0 time=12
the msg is note_on channel=0 note=79 velocity=100 time=0
the msg is note_off channel=0 note=76 velocity=0 time=12
the msg is note_on channel=0 note=76 velocity=100 time=0
the msg is note_off channel=0 note=74 velocity=0 time=12
the msg is note_on channel=0 note=74 velocity=100 time=0
the msg is note_off channel=0 note=72 velocity=0 time=12
the msg is note_on channel=0 note=72 velocity=100 time=0
the msg is note_off channel=0 note=72 velocity=0 time=81
the msg is note_on channel=0 note=72 velocity=100 time=0
the msg is note_off channel=0 note=72 velocity=0 time=8
the msg is note_on channel=0 note=72 velocity=100 time=0
the msg is note_off channel=0 note=74 velocity=0 time=25
the msg is note_on channel=0 note=74 velocity=100 time=0
the msg is note_off channel=0 note=74 velocity=0 time=25
the msg is note_on channel=0 note=74 velocity=100 time=0
the msg is note_off channel=0 note=74 velocity=0 time=25
the msg is note_on channel=0 note=74 velocity=100 time=0
the msg is note_off channel=0 note=74 velocity=0 time=25
the msg is note_on channel=0 note=74 velocity=100 time=0
the msg is note_off channel=0 note=74 velocity=0 time=25
the msg is note_on channel=0 note=74 velocity=100 time=0
the msg is note_off channel=0 note=74 velocity=0 time=25
the msg is note_on channel=0 note=74 velocity=100 time=0
the msg is note_off channel=0 note=76 velocity=0 time=25
the msg is note_on channel=0 note=76 velocity=100 time=0
the msg is note_off channel=0 note=79 velocity=0 time=25
the msg is note_on channel=0 note=79 velocity=100 time=0
the msg is note_off channel=0 note=79 velocity=0 time=12
the msg is note_on channel=0 note=79 velocity=100 time=0
the msg is note_off channel=0 note=76 velocity=0 time=12
the msg is note_on channel=0 note=76 velocity=100 time=0
the msg is note_off channel=0 note=74 velocity=0 time=17
the msg is note_on channel=0 note=74 velocity=100 time=0
the msg is note_off channel=0 note=72 velocity=0 time=8
the msg is note_on channel=0 note=72 velocity=100 time=0
the msg is note_off channel=0 note=72 velocity=0 time=25
the msg is note_on channel=0 note=72 velocity=100 time=0
the msg is note_off channel=0 note=72 velocity=0 time=25
the msg is note_on channel=0 note=72 velocity=100 time=0
the msg is note_off channel=0 note=72 velocity=0 time=12
the msg is note_on channel=0 note=72 velocity=100 time=0
the msg is note_off channel=0 note=72 velocity=0 time=29
the msg is note_on channel=0 note=72 velocity=100 time=0
the msg is note_off channel=0 note=72 velocity=0 time=8
the msg is note_on channel=0 note=72 velocity=100 time=0
the msg is note_off channel=0 note=72 velocity=0 time=25
the msg is note_on channel=0 note=72 velocity=100 time=0
the msg is note_off channel=0 note=72 velocity=0 time=12
the msg is note_on channel=0 note=72 velocity=100 time=0
the msg is note_off channel=0 note=72 velocity=0 time=12
the msg is note_on channel=0 note=72 velocity=100 time=0
the msg is note_off channel=0 note=72 velocity=0 time=12
the msg is note_on channel=0 note=72 velocity=100 time=0
the msg is note_off channel=0 note=76 velocity=0 time=12
the msg is note_on channel=0 note=76 velocity=100 time=0
the msg is note_off channel=0 note=79 velocity=0 time=25
the msg is note_on channel=0 note=79 velocity=100 time=0
the msg is note_off channel=0 note=79 velocity=0 time=12
the msg is note_on channel=0 note=79 velocity=100 time=0
the msg is note_off channel=0 note=76 velocity=0 time=12
the msg is note_on channel=0 note=76 velocity=100 time=0
the msg is note_off channel=0 note=74 velocity=0 time=12
the msg is note_on channel=0 note=74 velocity=100 time=0
the msg is note_off channel=0 note=72 velocity=0 time=12
the msg is note_on channel=0 note=72 velocity=100 time=0
the msg is note_off channel=0 note=72 velocity=0 time=76
the msg is note_on channel=0 note=72 velocity=100 time=0
the msg is note_off channel=0 note=72 velocity=0 time=12
the msg is note_on channel=0 note=72 velocity=100 time=0
the msg is note_off channel=0 note=72 velocity=0 time=12
the msg is note_on channel=0 note=72 velocity=100 time=0
the msg is note_off channel=0 note=72 velocity=0 time=8
the msg is note_on channel=0 note=72 velocity=100 time=0
the msg is note_off channel=0 note=72 velocity=0 time=17
the msg is note_on channel=0 note=72 velocity=100 time=0
the msg is note_off channel=0 note=72 velocity=0 time=12
the msg is note_on channel=0 note=72 velocity=100 time=0
the msg is note_off channel=0 note=72 velocity=0 time=12
the msg is note_on channel=0 note=72 velocity=100 time=0
the msg is note_off channel=0 note=76 velocity=0 time=8
the msg is note_on channel=0 note=76 velocity=100 time=0
the msg is note_off channel=0 note=79 velocity=0 time=29
the msg is note_on channel=0 note=79 velocity=100 time=0
the msg is note_off channel=0 note=79 velocity=0 time=12
the msg is note_on channel=0 note=79 velocity=100 time=0
the msg is note_off channel=0 note=76 velocity=0 time=8
the msg is note_on channel=0 note=76 velocity=100 time=0
the msg is note_off channel=0 note=74 velocity=0 time=17
the msg is note_on channel=0 note=74 velocity=100 time=0
the msg is <meta message end_of_track time=51>
the msg is <meta message track_name name='Piano' time=0>
the msg is program_change channel=0 program=0 time=0
the msg is note_off channel=0 note=72 velocity=0 time=0
the msg is pitchwheel channel=0 pitch=0 time=0
the msg is program_change channel=0 program=0 time=0
the msg is <meta message set_tempo tempo=500000 time=0>
the msg is <meta message time_signature numerator=4 denominator=4 clocks_per_click=24 notated_32nd_notes_per_beat=8 time=0>
the msg is note_on channel=0 note=72 velocity=100 time=0
the msg is note_off channel=0 note=74 velocity=0 time=34
the msg is note_on channel=0 note=74 velocity=100 time=0
the msg is note_off channel=0 note=74 velocity=0 time=17
the msg is note_on channel=0 note=74 velocity=100 time=0
the msg is note_off channel=0 note=74 velocity=0 time=34
the msg is note_on channel=0 note=74 velocity=100 time=0
the msg is note_off channel=0 note=74 velocity=0 time=17
the msg is note_on channel=0 note=74 velocity=100 time=0
the msg is note_off channel=0 note=76 velocity=0 time=34
the msg is note_on channel=0 note=76 velocity=100 time=0
the msg is note_off channel=0 note=79 velocity=0 time=17
the msg is note_on channel=0 note=79 velocity=100 time=0
the msg is note_off channel=0 note=79 velocity=0 time=17
the msg is note_on channel=0 note=79 velocity=100 time=0
the msg is note_off channel=0 note=76 velocity=0 time=17
the msg is note_on channel=0 note=76 velocity=100 time=0
the msg is note_off channel=0 note=74 velocity=0 time=4
the msg is note_on channel=0 note=74 velocity=100 time=0
the msg is note_off channel=0 note=72 velocity=0 time=12
the msg is note_on channel=0 note=72 velocity=100 time=0
the msg is note_off channel=0 note=72 velocity=0 time=89
the msg is note_on channel=0 note=72 velocity=100 time=0
the msg is note_off channel=0 note=72 velocity=0 time=12
the msg is note_on channel=0 note=72 velocity=100 time=0
the msg is note_off channel=0 note=74 velocity=0 time=25
the msg is note_on channel=0 note=74 velocity=100 time=0
the msg is note_off channel=0 note=74 velocity=0 time=25
the msg is note_on channel=0 note=74 velocity=100 time=0
the msg is note_off channel=0 note=74 velocity=0 time=12
the msg is note_on channel=0 note=74 velocity=100 time=0
the msg is note_off channel=0 note=76 velocity=0 time=25
the msg is note_on channel=0 note=76 velocity=100 time=0
the msg is note_off channel=0 note=79 velocity=0 time=25
the msg is note_on channel=0 note=79 velocity=100 time=0
the msg is note_off channel=0 note=79 velocity=0 time=12
the msg is note_on channel=0 note=79 velocity=100 time=0
the msg is note_off channel=0 note=76 velocity=0 time=12
the msg is note_on channel=0 note=76 velocity=100 time=0
the msg is note_off channel=0 note=74 velocity=0 time=12
the msg is note_on channel=0 note=74 velocity=100 time=0
the msg is note_off channel=0 note=72 velocity=0 time=12
the msg is note_on channel=0 note=72 velocity=100 time=0
the msg is note_off channel=0 note=74 velocity=0 time=25
the msg is note_on channel=0 note=74 velocity=100 time=0
the msg is note_off channel=0 note=76 velocity=0 time=25
the msg is note_on channel=0 note=76 velocity=100 time=0
the msg is note_off channel=0 note=79 velocity=0 time=25
the msg is note_on channel=0 note=79 velocity=100 time=0
the msg is note_off channel=0 note=79 velocity=0 time=12
the msg is note_on channel=0 note=79 velocity=100 time=0
the msg is note_off channel=0 note=76 velocity=0 time=12
the msg is note_on channel=0 note=76 velocity=100 time=0
the msg is note_off channel=0 note=74 velocity=0 time=12
the msg is note_on channel=0 note=74 velocity=100 time=0
the msg is note_off channel=0 note=72 velocity=0 time=12
the msg is note_on channel=0 note=72 velocity=100 time=0
the msg is note_off channel=0 note=74 velocity=0 time=25
the msg is note_on channel=0 note=74 velocity=100 time=0
the msg is note_off channel=0 note=74 velocity=0 time=12
the msg is note_on channel=0 note=74 velocity=100 time=0
the msg is note_off channel=0 note=74 velocity=0 time=12
the msg is note_on channel=0 note=74 velocity=100 time=0
the msg is note_off channel=0 note=74 velocity=0 time=25
the msg is note_on channel=0 note=74 velocity=100 time=0
the msg is note_off channel=0 note=74 velocity=0 time=25
the msg is note_on channel=0 note=74 velocity=100 time=0
the msg is note_off channel=0 note=76 velocity=0 time=25
the msg is note_on channel=0 note=76 velocity=100 time=0
the msg is note_off channel=0 note=79 velocity=0 time=25
the msg is note_on channel=0 note=79 velocity=100 time=0
the msg is note_off channel=0 note=79 velocity=0 time=12
the msg is note_on channel=0 note=79 velocity=100 time=0
the msg is note_off channel=0 note=76 velocity=0 time=12
the msg is note_on channel=0 note=76 velocity=100 time=0
the msg is note_off channel=0 note=74 velocity=0 time=12
the msg is note_on channel=0 note=74 velocity=100 time=0
the msg is note_off channel=0 note=72 velocity=0 time=12
the msg is note_on channel=0 note=72 velocity=100 time=0
the msg is note_off channel=0 note=72 velocity=0 time=81
the msg is note_on channel=0 note=72 velocity=100 time=0
the msg is note_off channel=0 note=72 velocity=0 time=8
the msg is note_on channel=0 note=72 velocity=100 time=0
the msg is note_off channel=0 note=74 velocity=0 time=25
the msg is note_on channel=0 note=74 velocity=100 time=0
the msg is note_off channel=0 note=74 velocity=0 time=25
the msg is note_on channel=0 note=74 velocity=100 time=0
the msg is note_off channel=0 note=74 velocity=0 time=25
the msg is note_on channel=0 note=74 velocity=100 time=0
the msg is note_off channel=0 note=74 velocity=0 time=25
the msg is note_on channel=0 note=74 velocity=100 time=0
the msg is note_off channel=0 note=74 velocity=0 time=25
the msg is note_on channel=0 note=74 velocity=100 time=0
the msg is note_off channel=0 note=74 velocity=0 time=25
the msg is note_on channel=0 note=74 velocity=100 time=0
the msg is note_off channel=0 note=76 velocity=0 time=25
the msg is note_on channel=0 note=76 velocity=100 time=0
the msg is note_off channel=0 note=79 velocity=0 time=25
the msg is note_on channel=0 note=79 velocity=100 time=0
the msg is note_off channel=0 note=79 velocity=0 time=12
the msg is note_on channel=0 note=79 velocity=100 time=0
the msg is note_off channel=0 note=76 velocity=0 time=12
the msg is note_on channel=0 note=76 velocity=100 time=0
the msg is note_off channel=0 note=74 velocity=0 time=17
the msg is note_on channel=0 note=74 velocity=100 time=0
the msg is note_off channel=0 note=72 velocity=0 time=8
the msg is note_on channel=0 note=72 velocity=100 time=0
the msg is note_off channel=0 note=72 velocity=0 time=25
the msg is note_on channel=0 note=72 velocity=100 time=0
the msg is note_off channel=0 note=72 velocity=0 time=25
the msg is note_on channel=0 note=72 velocity=100 time=0
the msg is note_off channel=0 note=72 velocity=0 time=12
the msg is note_on channel=0 note=72 velocity=100 time=0
the msg is note_off channel=0 note=72 velocity=0 time=29
the msg is note_on channel=0 note=72 velocity=100 time=0
the msg is note_off channel=0 note=72 velocity=0 time=8
the msg is note_on channel=0 note=72 velocity=100 time=0
the msg is note_off channel=0 note=72 velocity=0 time=25
the msg is note_on channel=0 note=72 velocity=100 time=0
the msg is note_off channel=0 note=72 velocity=0 time=12
the msg is note_on channel=0 note=72 velocity=100 time=0
the msg is note_off channel=0 note=72 velocity=0 time=12
the msg is note_on channel=0 note=72 velocity=100 time=0
the msg is note_off channel=0 note=72 velocity=0 time=12
the msg is note_on channel=0 note=72 velocity=100 time=0
the msg is note_off channel=0 note=76 velocity=0 time=12
the msg is note_on channel=0 note=76 velocity=100 time=0
the msg is note_off channel=0 note=79 velocity=0 time=25
the msg is note_on channel=0 note=79 velocity=100 time=0
the msg is note_off channel=0 note=79 velocity=0 time=12
the msg is note_on channel=0 note=79 velocity=100 time=0
the msg is note_off channel=0 note=76 velocity=0 time=12
the msg is note_on channel=0 note=76 velocity=100 time=0
the msg is note_off channel=0 note=74 velocity=0 time=12
the msg is note_on channel=0 note=74 velocity=100 time=0
the msg is note_off channel=0 note=72 velocity=0 time=12
the msg is note_on channel=0 note=72 velocity=100 time=0
the msg is note_off channel=0 note=72 velocity=0 time=76
the msg is note_on channel=0 note=72 velocity=100 time=0
the msg is note_off channel=0 note=72 velocity=0 time=12
the msg is note_on channel=0 note=72 velocity=100 time=0
the msg is note_off channel=0 note=72 velocity=0 time=12
the msg is note_on channel=0 note=72 velocity=100 time=0
the msg is note_off channel=0 note=72 velocity=0 time=8
the msg is note_on channel=0 note=72 velocity=100 time=0
the msg is note_off channel=0 note=72 velocity=0 time=17
the msg is note_on channel=0 note=72 velocity=100 time=0
the msg is note_off channel=0 note=72 velocity=0 time=12
the msg is note_on channel=0 note=72 velocity=100 time=0
the msg is note_off channel=0 note=72 velocity=0 time=12
the msg is note_on channel=0 note=72 velocity=100 time=0
the msg is note_off channel=0 note=76 velocity=0 time=8
the msg is note_on channel=0 note=76 velocity=100 time=0
the msg is note_off channel=0 note=79 velocity=0 time=29
the msg is note_on channel=0 note=79 velocity=100 time=0
the msg is note_off channel=0 note=79 velocity=0 time=12
the msg is note_on channel=0 note=79 velocity=100 time=0
the msg is note_off channel=0 note=76 velocity=0 time=8
the msg is note_on channel=0 note=76 velocity=100 time=0
the msg is note_off channel=0 note=74 velocity=0 time=17
the msg is note_on channel=0 note=74 velocity=100 time=0
the msg is <meta message end_of_track time=51>
the msg is <meta message track_name name='Piano' time=0>
the msg is program_change channel=0 program=0 time=0
the msg is note_off channel=0 note=72 velocity=0 time=0
the msg is pitchwheel channel=0 pitch=0 time=0
the msg is program_change channel=0 program=0 time=0
the msg is <meta message set_tempo tempo=500000 time=0>
the msg is <meta message time_signature numerator=4 denominator=4 clocks_per_click=24 notated_32nd_notes_per_beat=8 time=0>
the msg is note_on channel=0 note=72 velocity=100 time=0
the msg is note_off channel=0 note=74 velocity=0 time=34
the msg is note_on channel=0 note=74 velocity=100 time=0
the msg is note_off channel=0 note=74 velocity=0 time=17
the msg is note_on channel=0 note=74 velocity=100 time=0
the msg is note_off channel=0 note=74 velocity=0 time=34
the msg is note_on channel=0 note=74 velocity=100 time=0
the msg is note_off channel=0 note=74 velocity=0 time=17
the msg is note_on channel=0 note=74 velocity=100 time=0
the msg is note_off channel=0 note=76 velocity=0 time=34
the msg is note_on channel=0 note=76 velocity=100 time=0
the msg is note_off channel=0 note=79 velocity=0 time=17
the msg is note_on channel=0 note=79 velocity=100 time=0
the msg is note_off channel=0 note=79 velocity=0 time=17
the msg is note_on channel=0 note=79 velocity=100 time=0
the msg is note_off channel=0 note=76 velocity=0 time=17
the msg is note_on channel=0 note=76 velocity=100 time=0
the msg is note_off channel=0 note=74 velocity=0 time=4
the msg is note_on channel=0 note=74 velocity=100 time=0
the msg is note_off channel=0 note=72 velocity=0 time=12
the msg is note_on channel=0 note=72 velocity=100 time=0
the msg is note_off channel=0 note=72 velocity=0 time=89
the msg is note_on channel=0 note=72 velocity=100 time=0
the msg is note_off channel=0 note=72 velocity=0 time=12
the msg is note_on channel=0 note=72 velocity=100 time=0
the msg is note_off channel=0 note=74 velocity=0 time=25
the msg is note_on channel=0 note=74 velocity=100 time=0
the msg is note_off channel=0 note=74 velocity=0 time=25
the msg is note_on channel=0 note=74 velocity=100 time=0
the msg is note_off channel=0 note=74 velocity=0 time=12
the msg is note_on channel=0 note=74 velocity=100 time=0
the msg is note_off channel=0 note=76 velocity=0 time=25
the msg is note_on channel=0 note=76 velocity=100 time=0
the msg is note_off channel=0 note=79 velocity=0 time=25
the msg is note_on channel=0 note=79 velocity=100 time=0
the msg is note_off channel=0 note=79 velocity=0 time=12
the msg is note_on channel=0 note=79 velocity=100 time=0
the msg is note_off channel=0 note=76 velocity=0 time=12
the msg is note_on channel=0 note=76 velocity=100 time=0
the msg is note_off channel=0 note=74 velocity=0 time=12
the msg is note_on channel=0 note=74 velocity=100 time=0
the msg is note_off channel=0 note=72 velocity=0 time=12
the msg is note_on channel=0 note=72 velocity=100 time=0
the msg is note_off channel=0 note=74 velocity=0 time=25
the msg is note_on channel=0 note=74 velocity=100 time=0
the msg is note_off channel=0 note=76 velocity=0 time=25
the msg is note_on channel=0 note=76 velocity=100 time=0
the msg is note_off channel=0 note=79 velocity=0 time=25
the msg is note_on channel=0 note=79 velocity=100 time=0
the msg is note_off channel=0 note=79 velocity=0 time=12
the msg is note_on channel=0 note=79 velocity=100 time=0
the msg is note_off channel=0 note=76 velocity=0 time=12
the msg is note_on channel=0 note=76 velocity=100 time=0
the msg is note_off channel=0 note=74 velocity=0 time=12
the msg is note_on channel=0 note=74 velocity=100 time=0
the msg is note_off channel=0 note=72 velocity=0 time=12
the msg is note_on channel=0 note=72 velocity=100 time=0
the msg is note_off channel=0 note=74 velocity=0 time=25
the msg is note_on channel=0 note=74 velocity=100 time=0
the msg is note_off channel=0 note=74 velocity=0 time=12
the msg is note_on channel=0 note=74 velocity=100 time=0
the msg is note_off channel=0 note=74 velocity=0 time=12
the msg is note_on channel=0 note=74 velocity=100 time=0
the msg is note_off channel=0 note=74 velocity=0 time=25
the msg is note_on channel=0 note=74 velocity=100 time=0
the msg is note_off channel=0 note=74 velocity=0 time=25
the msg is note_on channel=0 note=74 velocity=100 time=0
the msg is note_off channel=0 note=76 velocity=0 time=25
the msg is note_on channel=0 note=76 velocity=100 time=0
the msg is note_off channel=0 note=79 velocity=0 time=25
the msg is note_on channel=0 note=79 velocity=100 time=0
the msg is note_off channel=0 note=79 velocity=0 time=12
the msg is note_on channel=0 note=79 velocity=100 time=0
the msg is note_off channel=0 note=76 velocity=0 time=12
the msg is note_on channel=0 note=76 velocity=100 time=0
the msg is note_off channel=0 note=74 velocity=0 time=12
the msg is note_on channel=0 note=74 velocity=100 time=0
the msg is note_off channel=0 note=72 velocity=0 time=12
the msg is note_on channel=0 note=72 velocity=100 time=0
the msg is note_off channel=0 note=72 velocity=0 time=81
the msg is note_on channel=0 note=72 velocity=100 time=0
the msg is note_off channel=0 note=72 velocity=0 time=8
the msg is note_on channel=0 note=72 velocity=100 time=0
the msg is note_off channel=0 note=74 velocity=0 time=25
the msg is note_on channel=0 note=74 velocity=100 time=0
the msg is note_off channel=0 note=74 velocity=0 time=25
the msg is note_on channel=0 note=74 velocity=100 time=0
the msg is note_off channel=0 note=74 velocity=0 time=25
the msg is note_on channel=0 note=74 velocity=100 time=0
the msg is note_off channel=0 note=74 velocity=0 time=25
the msg is note_on channel=0 note=74 velocity=100 time=0
the msg is note_off channel=0 note=74 velocity=0 time=25
the msg is note_on channel=0 note=74 velocity=100 time=0
the msg is note_off channel=0 note=74 velocity=0 time=25
the msg is note_on channel=0 note=74 velocity=100 time=0
the msg is note_off channel=0 note=76 velocity=0 time=25
the msg is note_on channel=0 note=76 velocity=100 time=0
the msg is note_off channel=0 note=79 velocity=0 time=25
the msg is note_on channel=0 note=79 velocity=100 time=0
the msg is note_off channel=0 note=79 velocity=0 time=12
the msg is note_on channel=0 note=79 velocity=100 time=0
the msg is note_off channel=0 note=76 velocity=0 time=12
the msg is note_on channel=0 note=76 velocity=100 time=0
the msg is note_off channel=0 note=74 velocity=0 time=17
the msg is note_on channel=0 note=74 velocity=100 time=0
the msg is note_off channel=0 note=72 velocity=0 time=8
the msg is note_on channel=0 note=72 velocity=100 time=0
the msg is note_off channel=0 note=72 velocity=0 time=25
the msg is note_on channel=0 note=72 velocity=100 time=0
the msg is note_off channel=0 note=72 velocity=0 time=25
the msg is note_on channel=0 note=72 velocity=100 time=0
the msg is note_off channel=0 note=72 velocity=0 time=12
the msg is note_on channel=0 note=72 velocity=100 time=0
the msg is note_off channel=0 note=72 velocity=0 time=29
the msg is note_on channel=0 note=72 velocity=100 time=0
the msg is note_off channel=0 note=72 velocity=0 time=8
the msg is note_on channel=0 note=72 velocity=100 time=0
the msg is note_off channel=0 note=72 velocity=0 time=25
the msg is note_on channel=0 note=72 velocity=100 time=0
the msg is note_off channel=0 note=72 velocity=0 time=12
the msg is note_on channel=0 note=72 velocity=100 time=0
the msg is note_off channel=0 note=72 velocity=0 time=12
the msg is note_on channel=0 note=72 velocity=100 time=0
the msg is note_off channel=0 note=72 velocity=0 time=12
the msg is note_on channel=0 note=72 velocity=100 time=0
the msg is note_off channel=0 note=76 velocity=0 time=12
the msg is note_on channel=0 note=76 velocity=100 time=0
the msg is note_off channel=0 note=79 velocity=0 time=25
the msg is note_on channel=0 note=79 velocity=100 time=0
the msg is note_off channel=0 note=79 velocity=0 time=12
the msg is note_on channel=0 note=79 velocity=100 time=0
the msg is note_off channel=0 note=76 velocity=0 time=12
the msg is note_on channel=0 note=76 velocity=100 time=0
the msg is note_off channel=0 note=74 velocity=0 time=12
the msg is note_on channel=0 note=74 velocity=100 time=0
the msg is note_off channel=0 note=72 velocity=0 time=12
the msg is note_on channel=0 note=72 velocity=100 time=0
the msg is note_off channel=0 note=72 velocity=0 time=76
the msg is note_on channel=0 note=72 velocity=100 time=0
the msg is note_off channel=0 note=72 velocity=0 time=12
the msg is note_on channel=0 note=72 velocity=100 time=0
the msg is note_off channel=0 note=72 velocity=0 time=12
the msg is note_on channel=0 note=72 velocity=100 time=0
the msg is note_off channel=0 note=72 velocity=0 time=8
the msg is note_on channel=0 note=72 velocity=100 time=0
the msg is note_off channel=0 note=72 velocity=0 time=17
the msg is note_on channel=0 note=72 velocity=100 time=0
the msg is note_off channel=0 note=72 velocity=0 time=12
the msg is note_on channel=0 note=72 velocity=100 time=0
the msg is note_off channel=0 note=72 velocity=0 time=12
the msg is note_on channel=0 note=72 velocity=100 time=0
the msg is note_off channel=0 note=76 velocity=0 time=8
the msg is note_on channel=0 note=76 velocity=100 time=0
the msg is note_off channel=0 note=79 velocity=0 time=29
the msg is note_on channel=0 note=79 velocity=100 time=0
the msg is note_off channel=0 note=79 velocity=0 time=12
the msg is note_on channel=0 note=79 velocity=100 time=0
the msg is note_off channel=0 note=76 velocity=0 time=8
the msg is note_on channel=0 note=76 velocity=100 time=0
the msg is note_off channel=0 note=74 velocity=0 time=17
the msg is note_on channel=0 note=74 velocity=100 time=0
the msg is <meta message end_of_track time=51>
the msg is <meta message track_name name='Piano' time=0>
the msg is program_change channel=0 program=0 time=0
the msg is note_off channel=0 note=72 velocity=0 time=0
the msg is pitchwheel channel=0 pitch=0 time=0
the msg is program_change channel=0 program=0 time=0
the msg is <meta message set_tempo tempo=500000 time=0>
the msg is <meta message time_signature numerator=4 denominator=4 clocks_per_click=24 notated_32nd_notes_per_beat=8 time=0>
the msg is note_on channel=0 note=72 velocity=100 time=0
the msg is note_off channel=0 note=74 velocity=0 time=34
the msg is note_on channel=0 note=74 velocity=100 time=0
the msg is note_off channel=0 note=74 velocity=0 time=17
the msg is note_on channel=0 note=74 velocity=100 time=0
the msg is note_off channel=0 note=74 velocity=0 time=34
the msg is note_on channel=0 note=74 velocity=100 time=0
the msg is note_off channel=0 note=74 velocity=0 time=17
the msg is note_on channel=0 note=74 velocity=100 time=0
the msg is note_off channel=0 note=76 velocity=0 time=34
the msg is note_on channel=0 note=76 velocity=100 time=0
the msg is note_off channel=0 note=79 velocity=0 time=17
the msg is note_on channel=0 note=79 velocity=100 time=0
the msg is note_off channel=0 note=79 velocity=0 time=17
the msg is note_on channel=0 note=79 velocity=100 time=0
the msg is note_off channel=0 note=76 velocity=0 time=17
the msg is note_on channel=0 note=76 velocity=100 time=0
the msg is note_off channel=0 note=74 velocity=0 time=4
the msg is note_on channel=0 note=74 velocity=100 time=0
the msg is note_off channel=0 note=72 velocity=0 time=12
the msg is note_on channel=0 note=72 velocity=100 time=0
the msg is note_off channel=0 note=72 velocity=0 time=89
the msg is note_on channel=0 note=72 velocity=100 time=0
the msg is note_off channel=0 note=72 velocity=0 time=12
the msg is note_on channel=0 note=72 velocity=100 time=0
the msg is note_off channel=0 note=74 velocity=0 time=25
the msg is note_on channel=0 note=74 velocity=100 time=0
the msg is note_off channel=0 note=74 velocity=0 time=25
the msg is note_on channel=0 note=74 velocity=100 time=0
the msg is note_off channel=0 note=74 velocity=0 time=12
the msg is note_on channel=0 note=74 velocity=100 time=0
the msg is note_off channel=0 note=76 velocity=0 time=25
the msg is note_on channel=0 note=76 velocity=100 time=0
the msg is note_off channel=0 note=79 velocity=0 time=25
the msg is note_on channel=0 note=79 velocity=100 time=0
the msg is note_off channel=0 note=79 velocity=0 time=12
the msg is note_on channel=0 note=79 velocity=100 time=0
the msg is note_off channel=0 note=76 velocity=0 time=12
the msg is note_on channel=0 note=76 velocity=100 time=0
the msg is note_off channel=0 note=74 velocity=0 time=12
the msg is note_on channel=0 note=74 velocity=100 time=0
the msg is note_off channel=0 note=72 velocity=0 time=12
the msg is note_on channel=0 note=72 velocity=100 time=0
the msg is note_off channel=0 note=74 velocity=0 time=25
the msg is note_on channel=0 note=74 velocity=100 time=0
the msg is note_off channel=0 note=76 velocity=0 time=25
the msg is note_on channel=0 note=76 velocity=100 time=0
the msg is note_off channel=0 note=79 velocity=0 time=25
the msg is note_on channel=0 note=79 velocity=100 time=0
the msg is note_off channel=0 note=79 velocity=0 time=12
the msg is note_on channel=0 note=79 velocity=100 time=0
the msg is note_off channel=0 note=76 velocity=0 time=12
the msg is note_on channel=0 note=76 velocity=100 time=0
the msg is note_off channel=0 note=74 velocity=0 time=12
the msg is note_on channel=0 note=74 velocity=100 time=0
the msg is note_off channel=0 note=72 velocity=0 time=12
the msg is note_on channel=0 note=72 velocity=100 time=0
the msg is note_off channel=0 note=74 velocity=0 time=25
the msg is note_on channel=0 note=74 velocity=100 time=0
the msg is note_off channel=0 note=74 velocity=0 time=12
the msg is note_on channel=0 note=74 velocity=100 time=0
the msg is note_off channel=0 note=74 velocity=0 time=12
the msg is note_on channel=0 note=74 velocity=100 time=0
the msg is note_off channel=0 note=74 velocity=0 time=25
the msg is note_on channel=0 note=74 velocity=100 time=0
the msg is note_off channel=0 note=74 velocity=0 time=25
the msg is note_on channel=0 note=74 velocity=100 time=0
the msg is note_off channel=0 note=76 velocity=0 time=25
the msg is note_on channel=0 note=76 velocity=100 time=0
the msg is note_off channel=0 note=79 velocity=0 time=25
the msg is note_on channel=0 note=79 velocity=100 time=0
the msg is note_off channel=0 note=79 velocity=0 time=12
the msg is note_on channel=0 note=79 velocity=100 time=0
the msg is note_off channel=0 note=76 velocity=0 time=12
the msg is note_on channel=0 note=76 velocity=100 time=0
the msg is note_off channel=0 note=74 velocity=0 time=12
the msg is note_on channel=0 note=74 velocity=100 time=0
the msg is note_off channel=0 note=72 velocity=0 time=12
the msg is note_on channel=0 note=72 velocity=100 time=0
the msg is note_off channel=0 note=72 velocity=0 time=81
the msg is note_on channel=0 note=72 velocity=100 time=0
the msg is note_off channel=0 note=72 velocity=0 time=8
the msg is note_on channel=0 note=72 velocity=100 time=0
the msg is note_off channel=0 note=74 velocity=0 time=25
the msg is note_on channel=0 note=74 velocity=100 time=0
the msg is note_off channel=0 note=74 velocity=0 time=25
the msg is note_on channel=0 note=74 velocity=100 time=0
the msg is note_off channel=0 note=74 velocity=0 time=25
the msg is note_on channel=0 note=74 velocity=100 time=0
the msg is note_off channel=0 note=74 velocity=0 time=25
the msg is note_on channel=0 note=74 velocity=100 time=0
the msg is note_off channel=0 note=74 velocity=0 time=25
the msg is note_on channel=0 note=74 velocity=100 time=0
the msg is note_off channel=0 note=74 velocity=0 time=25
the msg is note_on channel=0 note=74 velocity=100 time=0
the msg is note_off channel=0 note=76 velocity=0 time=25
the msg is note_on channel=0 note=76 velocity=100 time=0
the msg is note_off channel=0 note=79 velocity=0 time=25
the msg is note_on channel=0 note=79 velocity=100 time=0
the msg is note_off channel=0 note=79 velocity=0 time=12
the msg is note_on channel=0 note=79 velocity=100 time=0
the msg is note_off channel=0 note=76 velocity=0 time=12
the msg is note_on channel=0 note=76 velocity=100 time=0
the msg is note_off channel=0 note=74 velocity=0 time=17
the msg is note_on channel=0 note=74 velocity=100 time=0
the msg is note_off channel=0 note=72 velocity=0 time=8
the msg is note_on channel=0 note=72 velocity=100 time=0
the msg is note_off channel=0 note=72 velocity=0 time=25
the msg is note_on channel=0 note=72 velocity=100 time=0
the msg is note_off channel=0 note=72 velocity=0 time=25
the msg is note_on channel=0 note=72 velocity=100 time=0
the msg is note_off channel=0 note=72 velocity=0 time=12
the msg is note_on channel=0 note=72 velocity=100 time=0
the msg is note_off channel=0 note=72 velocity=0 time=29
the msg is note_on channel=0 note=72 velocity=100 time=0
the msg is note_off channel=0 note=72 velocity=0 time=8
the msg is note_on channel=0 note=72 velocity=100 time=0
the msg is note_off channel=0 note=72 velocity=0 time=25
the msg is note_on channel=0 note=72 velocity=100 time=0
the msg is note_off channel=0 note=72 velocity=0 time=12
the msg is note_on channel=0 note=72 velocity=100 time=0
the msg is note_off channel=0 note=72 velocity=0 time=12
the msg is note_on channel=0 note=72 velocity=100 time=0
the msg is note_off channel=0 note=72 velocity=0 time=12
the msg is note_on channel=0 note=72 velocity=100 time=0
the msg is note_off channel=0 note=76 velocity=0 time=12
the msg is note_on channel=0 note=76 velocity=100 time=0
the msg is note_off channel=0 note=79 velocity=0 time=25
the msg is note_on channel=0 note=79 velocity=100 time=0
the msg is note_off channel=0 note=79 velocity=0 time=12
the msg is note_on channel=0 note=79 velocity=100 time=0
the msg is note_off channel=0 note=76 velocity=0 time=12
the msg is note_on channel=0 note=76 velocity=100 time=0
the msg is note_off channel=0 note=74 velocity=0 time=12
the msg is note_on channel=0 note=74 velocity=100 time=0
the msg is note_off channel=0 note=72 velocity=0 time=12
the msg is note_on channel=0 note=72 velocity=100 time=0
the msg is note_off channel=0 note=72 velocity=0 time=76
the msg is note_on channel=0 note=72 velocity=100 time=0
the msg is note_off channel=0 note=72 velocity=0 time=12
the msg is note_on channel=0 note=72 velocity=100 time=0
the msg is note_off channel=0 note=72 velocity=0 time=12
the msg is note_on channel=0 note=72 velocity=100 time=0
the msg is note_off channel=0 note=72 velocity=0 time=8
the msg is note_on channel=0 note=72 velocity=100 time=0
the msg is note_off channel=0 note=72 velocity=0 time=17
the msg is note_on channel=0 note=72 velocity=100 time=0
the msg is note_off channel=0 note=72 velocity=0 time=12
the msg is note_on channel=0 note=72 velocity=100 time=0
the msg is note_off channel=0 note=72 velocity=0 time=12
the msg is note_on channel=0 note=72 velocity=100 time=0
the msg is note_off channel=0 note=76 velocity=0 time=8
the msg is note_on channel=0 note=76 velocity=100 time=0
the msg is note_off channel=0 note=79 velocity=0 time=29
the msg is note_on channel=0 note=79 velocity=100 time=0
the msg is note_off channel=0 note=79 velocity=0 time=12
the msg is note_on channel=0 note=79 velocity=100 time=0
the msg is note_off channel=0 note=76 velocity=0 time=8
the msg is note_on channel=0 note=76 velocity=100 time=0
the msg is note_off channel=0 note=74 velocity=0 time=17
the msg is note_on channel=0 note=74 velocity=100 time=0
the msg is <meta message end_of_track time=51>
the msg is <meta message track_name name='Piano' time=0>
the msg is program_change channel=0 program=0 time=0
the msg is note_off channel=0 note=72 velocity=0 time=0
the msg is pitchwheel channel=0 pitch=0 time=0
the msg is program_change channel=0 program=0 time=0
the msg is <meta message set_tempo tempo=500000 time=0>
the msg is <meta message time_signature numerator=4 denominator=4 clocks_per_click=24 notated_32nd_notes_per_beat=8 time=0>
the msg is note_on channel=0 note=72 velocity=100 time=0
the msg is note_off channel=0 note=74 velocity=0 time=34
the msg is note_on channel=0 note=74 velocity=100 time=0
the msg is note_off channel=0 note=74 velocity=0 time=17
the msg is note_on channel=0 note=74 velocity=100 time=0
the msg is note_off channel=0 note=74 velocity=0 time=34
the msg is note_on channel=0 note=74 velocity=100 time=0
the msg is note_off channel=0 note=74 velocity=0 time=17
the msg is note_on channel=0 note=74 velocity=100 time=0
the msg is note_off channel=0 note=76 velocity=0 time=34
the msg is note_on channel=0 note=76 velocity=100 time=0
the msg is note_off channel=0 note=79 velocity=0 time=17
the msg is note_on channel=0 note=79 velocity=100 time=0
the msg is note_off channel=0 note=79 velocity=0 time=17
the msg is note_on channel=0 note=79 velocity=100 time=0
the msg is note_off channel=0 note=76 velocity=0 time=17
the msg is note_on channel=0 note=76 velocity=100 time=0
the msg is note_off channel=0 note=74 velocity=0 time=4
the msg is note_on channel=0 note=74 velocity=100 time=0
the msg is note_off channel=0 note=72 velocity=0 time=12
the msg is note_on channel=0 note=72 velocity=100 time=0
the msg is note_off channel=0 note=72 velocity=0 time=89
the msg is note_on channel=0 note=72 velocity=100 time=0
the msg is note_off channel=0 note=72 velocity=0 time=12
the msg is note_on channel=0 note=72 velocity=100 time=0
the msg is note_off channel=0 note=74 velocity=0 time=25
the msg is note_on channel=0 note=74 velocity=100 time=0
the msg is note_off channel=0 note=74 velocity=0 time=25
the msg is note_on channel=0 note=74 velocity=100 time=0
the msg is note_off channel=0 note=74 velocity=0 time=12
the msg is note_on channel=0 note=74 velocity=100 time=0
the msg is note_off channel=0 note=76 velocity=0 time=25
the msg is note_on channel=0 note=76 velocity=100 time=0
the msg is note_off channel=0 note=79 velocity=0 time=25
the msg is note_on channel=0 note=79 velocity=100 time=0
the msg is note_off channel=0 note=79 velocity=0 time=12
the msg is note_on channel=0 note=79 velocity=100 time=0
the msg is note_off channel=0 note=76 velocity=0 time=12
the msg is note_on channel=0 note=76 velocity=100 time=0
the msg is note_off channel=0 note=74 velocity=0 time=12
the msg is note_on channel=0 note=74 velocity=100 time=0
the msg is note_off channel=0 note=72 velocity=0 time=12
the msg is note_on channel=0 note=72 velocity=100 time=0
the msg is note_off channel=0 note=74 velocity=0 time=25
the msg is note_on channel=0 note=74 velocity=100 time=0
the msg is note_off channel=0 note=76 velocity=0 time=25
the msg is note_on channel=0 note=76 velocity=100 time=0
the msg is note_off channel=0 note=79 velocity=0 time=25
the msg is note_on channel=0 note=79 velocity=100 time=0
the msg is note_off channel=0 note=79 velocity=0 time=12
the msg is note_on channel=0 note=79 velocity=100 time=0
the msg is note_off channel=0 note=76 velocity=0 time=12
the msg is note_on channel=0 note=76 velocity=100 time=0
the msg is note_off channel=0 note=74 velocity=0 time=12
the msg is note_on channel=0 note=74 velocity=100 time=0
the msg is note_off channel=0 note=72 velocity=0 time=12
the msg is note_on channel=0 note=72 velocity=100 time=0
the msg is note_off channel=0 note=74 velocity=0 time=25
the msg is note_on channel=0 note=74 velocity=100 time=0
the msg is note_off channel=0 note=74 velocity=0 time=12
the msg is note_on channel=0 note=74 velocity=100 time=0
the msg is note_off channel=0 note=74 velocity=0 time=12
the msg is note_on channel=0 note=74 velocity=100 time=0
the msg is note_off channel=0 note=74 velocity=0 time=25
the msg is note_on channel=0 note=74 velocity=100 time=0
the msg is note_off channel=0 note=74 velocity=0 time=25
the msg is note_on channel=0 note=74 velocity=100 time=0
the msg is note_off channel=0 note=76 velocity=0 time=25
the msg is note_on channel=0 note=76 velocity=100 time=0
the msg is note_off channel=0 note=79 velocity=0 time=25
the msg is note_on channel=0 note=79 velocity=100 time=0
the msg is note_off channel=0 note=79 velocity=0 time=12
the msg is note_on channel=0 note=79 velocity=100 time=0
the msg is note_off channel=0 note=76 velocity=0 time=12
the msg is note_on channel=0 note=76 velocity=100 time=0
the msg is note_off channel=0 note=74 velocity=0 time=12
the msg is note_on channel=0 note=74 velocity=100 time=0
the msg is note_off channel=0 note=72 velocity=0 time=12
the msg is note_on channel=0 note=72 velocity=100 time=0
the msg is note_off channel=0 note=72 velocity=0 time=81
the msg is note_on channel=0 note=72 velocity=100 time=0
the msg is note_off channel=0 note=72 velocity=0 time=8
the msg is note_on channel=0 note=72 velocity=100 time=0
the msg is note_off channel=0 note=74 velocity=0 time=25
the msg is note_on channel=0 note=74 velocity=100 time=0
the msg is note_off channel=0 note=74 velocity=0 time=25
the msg is note_on channel=0 note=74 velocity=100 time=0
the msg is note_off channel=0 note=74 velocity=0 time=25
the msg is note_on channel=0 note=74 velocity=100 time=0
the msg is note_off channel=0 note=74 velocity=0 time=25
the msg is note_on channel=0 note=74 velocity=100 time=0
the msg is note_off channel=0 note=74 velocity=0 time=25
the msg is note_on channel=0 note=74 velocity=100 time=0
the msg is note_off channel=0 note=74 velocity=0 time=25
the msg is note_on channel=0 note=74 velocity=100 time=0
the msg is note_off channel=0 note=76 velocity=0 time=25
the msg is note_on channel=0 note=76 velocity=100 time=0
the msg is note_off channel=0 note=79 velocity=0 time=25
the msg is note_on channel=0 note=79 velocity=100 time=0
the msg is note_off channel=0 note=79 velocity=0 time=12
the msg is note_on channel=0 note=79 velocity=100 time=0
the msg is note_off channel=0 note=76 velocity=0 time=12
the msg is note_on channel=0 note=76 velocity=100 time=0
the msg is note_off channel=0 note=74 velocity=0 time=17
the msg is note_on channel=0 note=74 velocity=100 time=0
the msg is note_off channel=0 note=72 velocity=0 time=8
the msg is note_on channel=0 note=72 velocity=100 time=0
the msg is note_off channel=0 note=72 velocity=0 time=25
the msg is note_on channel=0 note=72 velocity=100 time=0
the msg is note_off channel=0 note=72 velocity=0 time=25
the msg is note_on channel=0 note=72 velocity=100 time=0
the msg is note_off channel=0 note=72 velocity=0 time=12
the msg is note_on channel=0 note=72 velocity=100 time=0
the msg is note_off channel=0 note=72 velocity=0 time=29
the msg is note_on channel=0 note=72 velocity=100 time=0
the msg is note_off channel=0 note=72 velocity=0 time=8
the msg is note_on channel=0 note=72 velocity=100 time=0
the msg is note_off channel=0 note=72 velocity=0 time=25
the msg is note_on channel=0 note=72 velocity=100 time=0
the msg is note_off channel=0 note=72 velocity=0 time=12
the msg is note_on channel=0 note=72 velocity=100 time=0
the msg is note_off channel=0 note=72 velocity=0 time=12
the msg is note_on channel=0 note=72 velocity=100 time=0
the msg is note_off channel=0 note=72 velocity=0 time=12
the msg is note_on channel=0 note=72 velocity=100 time=0
the msg is note_off channel=0 note=76 velocity=0 time=12
the msg is note_on channel=0 note=76 velocity=100 time=0
the msg is note_off channel=0 note=79 velocity=0 time=25
the msg is note_on channel=0 note=79 velocity=100 time=0
the msg is note_off channel=0 note=79 velocity=0 time=12
the msg is note_on channel=0 note=79 velocity=100 time=0
the msg is note_off channel=0 note=76 velocity=0 time=12
the msg is note_on channel=0 note=76 velocity=100 time=0
the msg is note_off channel=0 note=74 velocity=0 time=12
the msg is note_on channel=0 note=74 velocity=100 time=0
the msg is note_off channel=0 note=72 velocity=0 time=12
the msg is note_on channel=0 note=72 velocity=100 time=0
the msg is note_off channel=0 note=72 velocity=0 time=76
the msg is note_on channel=0 note=72 velocity=100 time=0
the msg is note_off channel=0 note=72 velocity=0 time=12
the msg is note_on channel=0 note=72 velocity=100 time=0
the msg is note_off channel=0 note=72 velocity=0 time=12
the msg is note_on channel=0 note=72 velocity=100 time=0
the msg is note_off channel=0 note=72 velocity=0 time=8
the msg is note_on channel=0 note=72 velocity=100 time=0
the msg is note_off channel=0 note=72 velocity=0 time=17
the msg is note_on channel=0 note=72 velocity=100 time=0
the msg is note_off channel=0 note=72 velocity=0 time=12
the msg is note_on channel=0 note=72 velocity=100 time=0
the msg is note_off channel=0 note=72 velocity=0 time=12
the msg is note_on channel=0 note=72 velocity=100 time=0
the msg is note_off channel=0 note=76 velocity=0 time=8
the msg is note_on channel=0 note=76 velocity=100 time=0
the msg is note_off channel=0 note=79 velocity=0 time=29
the msg is note_on channel=0 note=79 velocity=100 time=0
the msg is note_off channel=0 note=79 velocity=0 time=12
the msg is note_on channel=0 note=79 velocity=100 time=0
the msg is note_off channel=0 note=76 velocity=0 time=8
the msg is note_on channel=0 note=76 velocity=100 time=0
the msg is note_off channel=0 note=74 velocity=0 time=17
the msg is note_on channel=0 note=74 velocity=100 time=0
the msg is <meta message end_of_track time=51>
the msg is <meta message track_name name='Piano' time=0>
the msg is program_change channel=0 program=0 time=0
the msg is note_off channel=0 note=72 velocity=0 time=0
the msg is pitchwheel channel=0 pitch=0 time=0
the msg is program_change channel=0 program=0 time=0
the msg is <meta message set_tempo tempo=500000 time=0>
the msg is <meta message time_signature numerator=4 denominator=4 clocks_per_click=24 notated_32nd_notes_per_beat=8 time=0>
the msg is note_on channel=0 note=72 velocity=100 time=0
the msg is note_off channel=0 note=74 velocity=0 time=34
the msg is note_on channel=0 note=74 velocity=100 time=0
the msg is note_off channel=0 note=74 velocity=0 time=17
the msg is note_on channel=0 note=74 velocity=100 time=0
the msg is note_off channel=0 note=74 velocity=0 time=34
the msg is note_on channel=0 note=74 velocity=100 time=0
the msg is note_off channel=0 note=74 velocity=0 time=17
the msg is note_on channel=0 note=74 velocity=100 time=0
the msg is note_off channel=0 note=76 velocity=0 time=34
the msg is note_on channel=0 note=76 velocity=100 time=0
the msg is note_off channel=0 note=79 velocity=0 time=17
the msg is note_on channel=0 note=79 velocity=100 time=0
the msg is note_off channel=0 note=79 velocity=0 time=17
the msg is note_on channel=0 note=79 velocity=100 time=0
the msg is note_off channel=0 note=76 velocity=0 time=17
the msg is note_on channel=0 note=76 velocity=100 time=0
the msg is note_off channel=0 note=74 velocity=0 time=4
the msg is note_on channel=0 note=74 velocity=100 time=0
the msg is note_off channel=0 note=72 velocity=0 time=12
the msg is note_on channel=0 note=72 velocity=100 time=0
the msg is note_off channel=0 note=72 velocity=0 time=89
the msg is note_on channel=0 note=72 velocity=100 time=0
the msg is note_off channel=0 note=72 velocity=0 time=12
the msg is note_on channel=0 note=72 velocity=100 time=0
the msg is note_off channel=0 note=74 velocity=0 time=25
the msg is note_on channel=0 note=74 velocity=100 time=0
the msg is note_off channel=0 note=74 velocity=0 time=25
the msg is note_on channel=0 note=74 velocity=100 time=0
the msg is note_off channel=0 note=74 velocity=0 time=12
the msg is note_on channel=0 note=74 velocity=100 time=0
the msg is note_off channel=0 note=76 velocity=0 time=25
the msg is note_on channel=0 note=76 velocity=100 time=0
the msg is note_off channel=0 note=79 velocity=0 time=25
the msg is note_on channel=0 note=79 velocity=100 time=0
the msg is note_off channel=0 note=79 velocity=0 time=12
the msg is note_on channel=0 note=79 velocity=100 time=0
the msg is note_off channel=0 note=76 velocity=0 time=12
the msg is note_on channel=0 note=76 velocity=100 time=0
the msg is note_off channel=0 note=74 velocity=0 time=12
the msg is note_on channel=0 note=74 velocity=100 time=0
the msg is note_off channel=0 note=72 velocity=0 time=12
the msg is note_on channel=0 note=72 velocity=100 time=0
the msg is note_off channel=0 note=74 velocity=0 time=25
the msg is note_on channel=0 note=74 velocity=100 time=0
the msg is note_off channel=0 note=76 velocity=0 time=25
the msg is note_on channel=0 note=76 velocity=100 time=0
the msg is note_off channel=0 note=79 velocity=0 time=25
the msg is note_on channel=0 note=79 velocity=100 time=0
the msg is note_off channel=0 note=79 velocity=0 time=12
the msg is note_on channel=0 note=79 velocity=100 time=0
the msg is note_off channel=0 note=76 velocity=0 time=12
the msg is note_on channel=0 note=76 velocity=100 time=0
the msg is note_off channel=0 note=74 velocity=0 time=12
the msg is note_on channel=0 note=74 velocity=100 time=0
the msg is note_off channel=0 note=72 velocity=0 time=12
the msg is note_on channel=0 note=72 velocity=100 time=0
the msg is note_off channel=0 note=74 velocity=0 time=25
the msg is note_on channel=0 note=74 velocity=100 time=0
the msg is note_off channel=0 note=74 velocity=0 time=12
the msg is note_on channel=0 note=74 velocity=100 time=0
the msg is note_off channel=0 note=74 velocity=0 time=12
the msg is note_on channel=0 note=74 velocity=100 time=0
the msg is note_off channel=0 note=74 velocity=0 time=25
the msg is note_on channel=0 note=74 velocity=100 time=0
the msg is note_off channel=0 note=74 velocity=0 time=25
the msg is note_on channel=0 note=74 velocity=100 time=0
the msg is note_off channel=0 note=76 velocity=0 time=25
the msg is note_on channel=0 note=76 velocity=100 time=0
the msg is note_off channel=0 note=79 velocity=0 time=25
the msg is note_on channel=0 note=79 velocity=100 time=0
the msg is note_off channel=0 note=79 velocity=0 time=12
the msg is note_on channel=0 note=79 velocity=100 time=0
the msg is note_off channel=0 note=76 velocity=0 time=12
the msg is note_on channel=0 note=76 velocity=100 time=0
the msg is note_off channel=0 note=74 velocity=0 time=12
the msg is note_on channel=0 note=74 velocity=100 time=0
the msg is note_off channel=0 note=72 velocity=0 time=12
the msg is note_on channel=0 note=72 velocity=100 time=0
the msg is note_off channel=0 note=72 velocity=0 time=81
the msg is note_on channel=0 note=72 velocity=100 time=0
the msg is note_off channel=0 note=72 velocity=0 time=8
the msg is note_on channel=0 note=72 velocity=100 time=0
the msg is note_off channel=0 note=74 velocity=0 time=25
the msg is note_on channel=0 note=74 velocity=100 time=0
the msg is note_off channel=0 note=74 velocity=0 time=25
the msg is note_on channel=0 note=74 velocity=100 time=0
the msg is note_off channel=0 note=74 velocity=0 time=25
the msg is note_on channel=0 note=74 velocity=100 time=0
the msg is note_off channel=0 note=74 velocity=0 time=25
the msg is note_on channel=0 note=74 velocity=100 time=0
the msg is note_off channel=0 note=74 velocity=0 time=25
the msg is note_on channel=0 note=74 velocity=100 time=0
the msg is note_off channel=0 note=74 velocity=0 time=25
the msg is note_on channel=0 note=74 velocity=100 time=0
the msg is note_off channel=0 note=76 velocity=0 time=25
the msg is note_on channel=0 note=76 velocity=100 time=0
the msg is note_off channel=0 note=79 velocity=0 time=25
the msg is note_on channel=0 note=79 velocity=100 time=0
the msg is note_off channel=0 note=79 velocity=0 time=12
the msg is note_on channel=0 note=79 velocity=100 time=0
the msg is note_off channel=0 note=76 velocity=0 time=12
the msg is note_on channel=0 note=76 velocity=100 time=0
the msg is note_off channel=0 note=74 velocity=0 time=17
the msg is note_on channel=0 note=74 velocity=100 time=0
the msg is note_off channel=0 note=72 velocity=0 time=8
the msg is note_on channel=0 note=72 velocity=100 time=0
the msg is note_off channel=0 note=72 velocity=0 time=25
the msg is note_on channel=0 note=72 velocity=100 time=0
the msg is note_off channel=0 note=72 velocity=0 time=25
the msg is note_on channel=0 note=72 velocity=100 time=0
the msg is note_off channel=0 note=72 velocity=0 time=12
the msg is note_on channel=0 note=72 velocity=100 time=0
the msg is note_off channel=0 note=72 velocity=0 time=29
the msg is note_on channel=0 note=72 velocity=100 time=0
the msg is note_off channel=0 note=72 velocity=0 time=8
the msg is note_on channel=0 note=72 velocity=100 time=0
the msg is note_off channel=0 note=72 velocity=0 time=25
the msg is note_on channel=0 note=72 velocity=100 time=0
the msg is note_off channel=0 note=72 velocity=0 time=12
the msg is note_on channel=0 note=72 velocity=100 time=0
the msg is note_off channel=0 note=72 velocity=0 time=12
the msg is note_on channel=0 note=72 velocity=100 time=0
the msg is note_off channel=0 note=72 velocity=0 time=12
the msg is note_on channel=0 note=72 velocity=100 time=0
the msg is note_off channel=0 note=76 velocity=0 time=12
the msg is note_on channel=0 note=76 velocity=100 time=0
the msg is note_off channel=0 note=79 velocity=0 time=25
the msg is note_on channel=0 note=79 velocity=100 time=0
the msg is note_off channel=0 note=79 velocity=0 time=12
the msg is note_on channel=0 note=79 velocity=100 time=0
the msg is note_off channel=0 note=76 velocity=0 time=12
the msg is note_on channel=0 note=76 velocity=100 time=0
the msg is note_off channel=0 note=74 velocity=0 time=12
the msg is note_on channel=0 note=74 velocity=100 time=0
the msg is note_off channel=0 note=72 velocity=0 time=12
the msg is note_on channel=0 note=72 velocity=100 time=0
the msg is note_off channel=0 note=72 velocity=0 time=76
the msg is note_on channel=0 note=72 velocity=100 time=0
the msg is note_off channel=0 note=72 velocity=0 time=12
the msg is note_on channel=0 note=72 velocity=100 time=0
the msg is note_off channel=0 note=72 velocity=0 time=12
the msg is note_on channel=0 note=72 velocity=100 time=0
the msg is note_off channel=0 note=72 velocity=0 time=8
the msg is note_on channel=0 note=72 velocity=100 time=0
the msg is note_off channel=0 note=72 velocity=0 time=17
the msg is note_on channel=0 note=72 velocity=100 time=0
the msg is note_off channel=0 note=72 velocity=0 time=12
the msg is note_on channel=0 note=72 velocity=100 time=0
the msg is note_off channel=0 note=72 velocity=0 time=12
the msg is note_on channel=0 note=72 velocity=100 time=0
the msg is note_off channel=0 note=76 velocity=0 time=8
the msg is note_on channel=0 note=76 velocity=100 time=0
the msg is note_off channel=0 note=79 velocity=0 time=29
the msg is note_on channel=0 note=79 velocity=100 time=0
the msg is note_off channel=0 note=79 velocity=0 time=12
the msg is note_on channel=0 note=79 velocity=100 time=0
the msg is note_off channel=0 note=76 velocity=0 time=8
the msg is note_on channel=0 note=76 velocity=100 time=0
the msg is note_off channel=0 note=74 velocity=0 time=17
the msg is note_on channel=0 note=74 velocity=100 time=0
the msg is <meta message end_of_track time=51>
the msg is <meta message track_name name='Piano' time=0>
the msg is program_change channel=0 program=0 time=0
the msg is note_off channel=0 note=72 velocity=0 time=0
the msg is pitchwheel channel=0 pitch=0 time=0
the msg is program_change channel=0 program=0 time=0
the msg is <meta message set_tempo tempo=500000 time=0>
the msg is <meta message time_signature numerator=4 denominator=4 clocks_per_click=24 notated_32nd_notes_per_beat=8 time=0>
the msg is note_on channel=0 note=72 velocity=100 time=0
the msg is note_off channel=0 note=74 velocity=0 time=34
the msg is note_on channel=0 note=74 velocity=100 time=0
the msg is note_off channel=0 note=74 velocity=0 time=17
the msg is note_on channel=0 note=74 velocity=100 time=0
the msg is note_off channel=0 note=74 velocity=0 time=34
the msg is note_on channel=0 note=74 velocity=100 time=0
the msg is note_off channel=0 note=74 velocity=0 time=17
the msg is note_on channel=0 note=74 velocity=100 time=0
the msg is note_off channel=0 note=76 velocity=0 time=34
the msg is note_on channel=0 note=76 velocity=100 time=0
the msg is note_off channel=0 note=79 velocity=0 time=17
the msg is note_on channel=0 note=79 velocity=100 time=0
the msg is note_off channel=0 note=79 velocity=0 time=17
the msg is note_on channel=0 note=79 velocity=100 time=0
the msg is note_off channel=0 note=76 velocity=0 time=17
the msg is note_on channel=0 note=76 velocity=100 time=0
the msg is note_off channel=0 note=74 velocity=0 time=4
the msg is note_on channel=0 note=74 velocity=100 time=0
the msg is note_off channel=0 note=72 velocity=0 time=12
the msg is note_on channel=0 note=72 velocity=100 time=0
the msg is note_off channel=0 note=72 velocity=0 time=89
the msg is note_on channel=0 note=72 velocity=100 time=0
the msg is note_off channel=0 note=72 velocity=0 time=12
the msg is note_on channel=0 note=72 velocity=100 time=0
the msg is note_off channel=0 note=74 velocity=0 time=25
the msg is note_on channel=0 note=74 velocity=100 time=0
the msg is note_off channel=0 note=74 velocity=0 time=25
the msg is note_on channel=0 note=74 velocity=100 time=0
the msg is note_off channel=0 note=74 velocity=0 time=12
the msg is note_on channel=0 note=74 velocity=100 time=0
the msg is note_off channel=0 note=76 velocity=0 time=25
the msg is note_on channel=0 note=76 velocity=100 time=0
the msg is note_off channel=0 note=79 velocity=0 time=25
the msg is note_on channel=0 note=79 velocity=100 time=0
the msg is note_off channel=0 note=79 velocity=0 time=12
the msg is note_on channel=0 note=79 velocity=100 time=0
the msg is note_off channel=0 note=76 velocity=0 time=12
the msg is note_on channel=0 note=76 velocity=100 time=0
the msg is note_off channel=0 note=74 velocity=0 time=12
the msg is note_on channel=0 note=74 velocity=100 time=0
the msg is note_off channel=0 note=72 velocity=0 time=12
the msg is note_on channel=0 note=72 velocity=100 time=0
the msg is note_off channel=0 note=74 velocity=0 time=25
the msg is note_on channel=0 note=74 velocity=100 time=0
the msg is note_off channel=0 note=76 velocity=0 time=25
the msg is note_on channel=0 note=76 velocity=100 time=0
the msg is note_off channel=0 note=79 velocity=0 time=25
the msg is note_on channel=0 note=79 velocity=100 time=0
the msg is note_off channel=0 note=79 velocity=0 time=12
the msg is note_on channel=0 note=79 velocity=100 time=0
the msg is note_off channel=0 note=76 velocity=0 time=12
the msg is note_on channel=0 note=76 velocity=100 time=0
the msg is note_off channel=0 note=74 velocity=0 time=12
the msg is note_on channel=0 note=74 velocity=100 time=0
the msg is note_off channel=0 note=72 velocity=0 time=12
the msg is note_on channel=0 note=72 velocity=100 time=0
the msg is note_off channel=0 note=74 velocity=0 time=25
the msg is note_on channel=0 note=74 velocity=100 time=0
the msg is note_off channel=0 note=74 velocity=0 time=12
the msg is note_on channel=0 note=74 velocity=100 time=0
the msg is note_off channel=0 note=74 velocity=0 time=12
the msg is note_on channel=0 note=74 velocity=100 time=0
the msg is note_off channel=0 note=74 velocity=0 time=25
the msg is note_on channel=0 note=74 velocity=100 time=0
the msg is note_off channel=0 note=74 velocity=0 time=25
the msg is note_on channel=0 note=74 velocity=100 time=0
the msg is note_off channel=0 note=76 velocity=0 time=25
the msg is note_on channel=0 note=76 velocity=100 time=0
the msg is note_off channel=0 note=79 velocity=0 time=25
the msg is note_on channel=0 note=79 velocity=100 time=0
the msg is note_off channel=0 note=79 velocity=0 time=12
the msg is note_on channel=0 note=79 velocity=100 time=0
the msg is note_off channel=0 note=76 velocity=0 time=12
the msg is note_on channel=0 note=76 velocity=100 time=0
the msg is note_off channel=0 note=74 velocity=0 time=12
the msg is note_on channel=0 note=74 velocity=100 time=0
the msg is note_off channel=0 note=72 velocity=0 time=12
the msg is note_on channel=0 note=72 velocity=100 time=0
the msg is note_off channel=0 note=72 velocity=0 time=81
the msg is note_on channel=0 note=72 velocity=100 time=0
the msg is note_off channel=0 note=72 velocity=0 time=8
the msg is note_on channel=0 note=72 velocity=100 time=0
the msg is note_off channel=0 note=74 velocity=0 time=25
the msg is note_on channel=0 note=74 velocity=100 time=0
the msg is note_off channel=0 note=74 velocity=0 time=25
the msg is note_on channel=0 note=74 velocity=100 time=0
the msg is note_off channel=0 note=74 velocity=0 time=25
the msg is note_on channel=0 note=74 velocity=100 time=0
the msg is note_off channel=0 note=74 velocity=0 time=25
the msg is note_on channel=0 note=74 velocity=100 time=0
the msg is note_off channel=0 note=74 velocity=0 time=25
the msg is note_on channel=0 note=74 velocity=100 time=0
the msg is note_off channel=0 note=74 velocity=0 time=25
the msg is note_on channel=0 note=74 velocity=100 time=0
the msg is note_off channel=0 note=76 velocity=0 time=25
the msg is note_on channel=0 note=76 velocity=100 time=0
the msg is note_off channel=0 note=79 velocity=0 time=25
the msg is note_on channel=0 note=79 velocity=100 time=0
the msg is note_off channel=0 note=79 velocity=0 time=12
the msg is note_on channel=0 note=79 velocity=100 time=0
the msg is note_off channel=0 note=76 velocity=0 time=12
the msg is note_on channel=0 note=76 velocity=100 time=0
the msg is note_off channel=0 note=74 velocity=0 time=17
the msg is note_on channel=0 note=74 velocity=100 time=0
the msg is note_off channel=0 note=72 velocity=0 time=8
the msg is note_on channel=0 note=72 velocity=100 time=0
the msg is note_off channel=0 note=72 velocity=0 time=25
the msg is note_on channel=0 note=72 velocity=100 time=0
the msg is note_off channel=0 note=72 velocity=0 time=25
the msg is note_on channel=0 note=72 velocity=100 time=0
the msg is note_off channel=0 note=72 velocity=0 time=12
the msg is note_on channel=0 note=72 velocity=100 time=0
the msg is note_off channel=0 note=72 velocity=0 time=29
the msg is note_on channel=0 note=72 velocity=100 time=0
the msg is note_off channel=0 note=72 velocity=0 time=8
the msg is note_on channel=0 note=72 velocity=100 time=0
the msg is note_off channel=0 note=72 velocity=0 time=25
the msg is note_on channel=0 note=72 velocity=100 time=0
the msg is note_off channel=0 note=72 velocity=0 time=12
the msg is note_on channel=0 note=72 velocity=100 time=0
the msg is note_off channel=0 note=72 velocity=0 time=12
the msg is note_on channel=0 note=72 velocity=100 time=0
the msg is note_off channel=0 note=72 velocity=0 time=12
the msg is note_on channel=0 note=72 velocity=100 time=0
the msg is note_off channel=0 note=76 velocity=0 time=12
the msg is note_on channel=0 note=76 velocity=100 time=0
the msg is note_off channel=0 note=79 velocity=0 time=25
the msg is note_on channel=0 note=79 velocity=100 time=0
the msg is note_off channel=0 note=79 velocity=0 time=12
the msg is note_on channel=0 note=79 velocity=100 time=0
the msg is note_off channel=0 note=76 velocity=0 time=12
the msg is note_on channel=0 note=76 velocity=100 time=0
the msg is note_off channel=0 note=74 velocity=0 time=12
the msg is note_on channel=0 note=74 velocity=100 time=0
the msg is note_off channel=0 note=72 velocity=0 time=12
the msg is note_on channel=0 note=72 velocity=100 time=0
the msg is note_off channel=0 note=72 velocity=0 time=76
the msg is note_on channel=0 note=72 velocity=100 time=0
the msg is note_off channel=0 note=72 velocity=0 time=12
the msg is note_on channel=0 note=72 velocity=100 time=0
the msg is note_off channel=0 note=72 velocity=0 time=12
the msg is note_on channel=0 note=72 velocity=100 time=0
the msg is note_off channel=0 note=72 velocity=0 time=8
the msg is note_on channel=0 note=72 velocity=100 time=0
the msg is note_off channel=0 note=72 velocity=0 time=17
the msg is note_on channel=0 note=72 velocity=100 time=0
the msg is note_off channel=0 note=72 velocity=0 time=12
the msg is note_on channel=0 note=72 velocity=100 time=0
the msg is note_off channel=0 note=72 velocity=0 time=12
the msg is note_on channel=0 note=72 velocity=100 time=0
the msg is note_off channel=0 note=76 velocity=0 time=8
the msg is note_on channel=0 note=76 velocity=100 time=0
the msg is note_off channel=0 note=79 velocity=0 time=29
the msg is note_on channel=0 note=79 velocity=100 time=0
the msg is note_off channel=0 note=79 velocity=0 time=12
the msg is note_on channel=0 note=79 velocity=100 time=0
the msg is note_off channel=0 note=76 velocity=0 time=8
the msg is note_on channel=0 note=76 velocity=100 time=0
the msg is note_off channel=0 note=74 velocity=0 time=17
the msg is note_on channel=0 note=74 velocity=100 time=0
the msg is <meta message end_of_track time=51>
the msg is <meta message track_name name='Piano' time=0>
the msg is program_change channel=0 program=0 time=0
the msg is note_off channel=0 note=72 velocity=0 time=0
the msg is pitchwheel channel=0 pitch=0 time=0
the msg is program_change channel=0 program=0 time=0
the msg is <meta message set_tempo tempo=500000 time=0>
the msg is <meta message time_signature numerator=4 denominator=4 clocks_per_click=24 notated_32nd_notes_per_beat=8 time=0>
the msg is note_on channel=0 note=72 velocity=100 time=0
the msg is note_off channel=0 note=74 velocity=0 time=34
the msg is note_on channel=0 note=74 velocity=100 time=0
the msg is note_off channel=0 note=74 velocity=0 time=17
the msg is note_on channel=0 note=74 velocity=100 time=0
the msg is note_off channel=0 note=74 velocity=0 time=34
the msg is note_on channel=0 note=74 velocity=100 time=0
the msg is note_off channel=0 note=74 velocity=0 time=17
the msg is note_on channel=0 note=74 velocity=100 time=0
the msg is note_off channel=0 note=76 velocity=0 time=34
the msg is note_on channel=0 note=76 velocity=100 time=0
the msg is note_off channel=0 note=79 velocity=0 time=17
the msg is note_on channel=0 note=79 velocity=100 time=0
the msg is note_off channel=0 note=79 velocity=0 time=17
the msg is note_on channel=0 note=79 velocity=100 time=0
the msg is note_off channel=0 note=76 velocity=0 time=17
the msg is note_on channel=0 note=76 velocity=100 time=0
the msg is note_off channel=0 note=74 velocity=0 time=4
the msg is note_on channel=0 note=74 velocity=100 time=0
the msg is note_off channel=0 note=72 velocity=0 time=12
the msg is note_on channel=0 note=72 velocity=100 time=0
the msg is note_off channel=0 note=72 velocity=0 time=89
the msg is note_on channel=0 note=72 velocity=100 time=0
the msg is note_off channel=0 note=72 velocity=0 time=12
the msg is note_on channel=0 note=72 velocity=100 time=0
the msg is note_off channel=0 note=74 velocity=0 time=25
the msg is note_on channel=0 note=74 velocity=100 time=0
the msg is note_off channel=0 note=74 velocity=0 time=25
the msg is note_on channel=0 note=74 velocity=100 time=0
the msg is note_off channel=0 note=74 velocity=0 time=12
the msg is note_on channel=0 note=74 velocity=100 time=0
the msg is note_off channel=0 note=76 velocity=0 time=25
the msg is note_on channel=0 note=76 velocity=100 time=0
the msg is note_off channel=0 note=79 velocity=0 time=25
the msg is note_on channel=0 note=79 velocity=100 time=0
the msg is note_off channel=0 note=79 velocity=0 time=12
the msg is note_on channel=0 note=79 velocity=100 time=0
the msg is note_off channel=0 note=76 velocity=0 time=12
the msg is note_on channel=0 note=76 velocity=100 time=0
the msg is note_off channel=0 note=74 velocity=0 time=12
the msg is note_on channel=0 note=74 velocity=100 time=0
the msg is note_off channel=0 note=72 velocity=0 time=12
the msg is note_on channel=0 note=72 velocity=100 time=0
the msg is note_off channel=0 note=74 velocity=0 time=25
the msg is note_on channel=0 note=74 velocity=100 time=0
the msg is note_off channel=0 note=76 velocity=0 time=25
the msg is note_on channel=0 note=76 velocity=100 time=0
the msg is note_off channel=0 note=79 velocity=0 time=25
the msg is note_on channel=0 note=79 velocity=100 time=0
the msg is note_off channel=0 note=79 velocity=0 time=12
the msg is note_on channel=0 note=79 velocity=100 time=0
the msg is note_off channel=0 note=76 velocity=0 time=12
the msg is note_on channel=0 note=76 velocity=100 time=0
the msg is note_off channel=0 note=74 velocity=0 time=12
the msg is note_on channel=0 note=74 velocity=100 time=0
the msg is note_off channel=0 note=72 velocity=0 time=12
the msg is note_on channel=0 note=72 velocity=100 time=0
the msg is note_off channel=0 note=74 velocity=0 time=25
the msg is note_on channel=0 note=74 velocity=100 time=0
the msg is note_off channel=0 note=74 velocity=0 time=12
the msg is note_on channel=0 note=74 velocity=100 time=0
the msg is note_off channel=0 note=74 velocity=0 time=12
the msg is note_on channel=0 note=74 velocity=100 time=0
the msg is note_off channel=0 note=74 velocity=0 time=25
the msg is note_on channel=0 note=74 velocity=100 time=0
the msg is note_off channel=0 note=74 velocity=0 time=25
the msg is note_on channel=0 note=74 velocity=100 time=0
the msg is note_off channel=0 note=76 velocity=0 time=25
the msg is note_on channel=0 note=76 velocity=100 time=0
the msg is note_off channel=0 note=79 velocity=0 time=25
the msg is note_on channel=0 note=79 velocity=100 time=0
the msg is note_off channel=0 note=79 velocity=0 time=12
the msg is note_on channel=0 note=79 velocity=100 time=0
the msg is note_off channel=0 note=76 velocity=0 time=12
the msg is note_on channel=0 note=76 velocity=100 time=0
the msg is note_off channel=0 note=74 velocity=0 time=12
the msg is note_on channel=0 note=74 velocity=100 time=0
the msg is note_off channel=0 note=72 velocity=0 time=12
the msg is note_on channel=0 note=72 velocity=100 time=0
the msg is note_off channel=0 note=72 velocity=0 time=81
the msg is note_on channel=0 note=72 velocity=100 time=0
the msg is note_off channel=0 note=72 velocity=0 time=8
the msg is note_on channel=0 note=72 velocity=100 time=0
the msg is note_off channel=0 note=74 velocity=0 time=25
the msg is note_on channel=0 note=74 velocity=100 time=0
the msg is note_off channel=0 note=74 velocity=0 time=25
the msg is note_on channel=0 note=74 velocity=100 time=0
the msg is note_off channel=0 note=74 velocity=0 time=25
the msg is note_on channel=0 note=74 velocity=100 time=0
the msg is note_off channel=0 note=74 velocity=0 time=25
the msg is note_on channel=0 note=74 velocity=100 time=0
the msg is note_off channel=0 note=74 velocity=0 time=25
the msg is note_on channel=0 note=74 velocity=100 time=0
the msg is note_off channel=0 note=74 velocity=0 time=25
the msg is note_on channel=0 note=74 velocity=100 time=0
the msg is note_off channel=0 note=76 velocity=0 time=25
the msg is note_on channel=0 note=76 velocity=100 time=0
the msg is note_off channel=0 note=79 velocity=0 time=25
the msg is note_on channel=0 note=79 velocity=100 time=0
the msg is note_off channel=0 note=79 velocity=0 time=12
the msg is note_on channel=0 note=79 velocity=100 time=0
the msg is note_off channel=0 note=76 velocity=0 time=12
the msg is note_on channel=0 note=76 velocity=100 time=0
the msg is note_off channel=0 note=74 velocity=0 time=17
the msg is note_on channel=0 note=74 velocity=100 time=0
the msg is note_off channel=0 note=72 velocity=0 time=8
the msg is note_on channel=0 note=72 velocity=100 time=0
the msg is note_off channel=0 note=72 velocity=0 time=25
the msg is note_on channel=0 note=72 velocity=100 time=0
the msg is note_off channel=0 note=72 velocity=0 time=25
the msg is note_on channel=0 note=72 velocity=100 time=0
the msg is note_off channel=0 note=72 velocity=0 time=12
the msg is note_on channel=0 note=72 velocity=100 time=0
the msg is note_off channel=0 note=72 velocity=0 time=29
the msg is note_on channel=0 note=72 velocity=100 time=0
the msg is note_off channel=0 note=72 velocity=0 time=8
the msg is note_on channel=0 note=72 velocity=100 time=0
the msg is note_off channel=0 note=72 velocity=0 time=25
the msg is note_on channel=0 note=72 velocity=100 time=0
the msg is note_off channel=0 note=72 velocity=0 time=12
the msg is note_on channel=0 note=72 velocity=100 time=0
the msg is note_off channel=0 note=72 velocity=0 time=12
the msg is note_on channel=0 note=72 velocity=100 time=0
the msg is note_off channel=0 note=72 velocity=0 time=12
the msg is note_on channel=0 note=72 velocity=100 time=0
the msg is note_off channel=0 note=76 velocity=0 time=12
the msg is note_on channel=0 note=76 velocity=100 time=0
the msg is note_off channel=0 note=79 velocity=0 time=25
the msg is note_on channel=0 note=79 velocity=100 time=0
the msg is note_off channel=0 note=79 velocity=0 time=12
the msg is note_on channel=0 note=79 velocity=100 time=0
the msg is note_off channel=0 note=76 velocity=0 time=12
the msg is note_on channel=0 note=76 velocity=100 time=0
the msg is note_off channel=0 note=74 velocity=0 time=12
the msg is note_on channel=0 note=74 velocity=100 time=0
the msg is note_off channel=0 note=72 velocity=0 time=12
the msg is note_on channel=0 note=72 velocity=100 time=0
the msg is note_off channel=0 note=72 velocity=0 time=76
the msg is note_on channel=0 note=72 velocity=100 time=0
the msg is note_off channel=0 note=72 velocity=0 time=12
the msg is note_on channel=0 note=72 velocity=100 time=0
the msg is note_off channel=0 note=72 velocity=0 time=12
the msg is note_on channel=0 note=72 velocity=100 time=0
the msg is note_off channel=0 note=72 velocity=0 time=8
the msg is note_on channel=0 note=72 velocity=100 time=0
the msg is note_off channel=0 note=72 velocity=0 time=17
the msg is note_on channel=0 note=72 velocity=100 time=0
the msg is note_off channel=0 note=72 velocity=0 time=12
the msg is note_on channel=0 note=72 velocity=100 time=0
the msg is note_off channel=0 note=72 velocity=0 time=12
the msg is note_on channel=0 note=72 velocity=100 time=0
the msg is note_off channel=0 note=76 velocity=0 time=8
the msg is note_on channel=0 note=76 velocity=100 time=0
the msg is note_off channel=0 note=79 velocity=0 time=29
the msg is note_on channel=0 note=79 velocity=100 time=0
the msg is note_off channel=0 note=79 velocity=0 time=12
the msg is note_on channel=0 note=79 velocity=100 time=0
the msg is note_off channel=0 note=76 velocity=0 time=8
the msg is note_on channel=0 note=76 velocity=100 time=0
the msg is note_off channel=0 note=74 velocity=0 time=17
the msg is note_on channel=0 note=74 velocity=100 time=0
the msg is <meta message end_of_track time=51>
the msg is <meta message track_name name='Piano' time=0>
the msg is program_change channel=0 program=0 time=0
the msg is note_off channel=0 note=72 velocity=0 time=0
the msg is pitchwheel channel=0 pitch=0 time=0
the msg is program_change channel=0 program=0 time=0
the msg is <meta message set_tempo tempo=500000 time=0>
the msg is <meta message time_signature numerator=4 denominator=4 clocks_per_click=24 notated_32nd_notes_per_beat=8 time=0>
the msg is note_on channel=0 note=72 velocity=100 time=0
the msg is note_off channel=0 note=74 velocity=0 time=34
the msg is note_on channel=0 note=74 velocity=100 time=0
the msg is note_off channel=0 note=74 velocity=0 time=17
the msg is note_on channel=0 note=74 velocity=100 time=0
the msg is note_off channel=0 note=74 velocity=0 time=34
the msg is note_on channel=0 note=74 velocity=100 time=0
the msg is note_off channel=0 note=74 velocity=0 time=17
the msg is note_on channel=0 note=74 velocity=100 time=0
the msg is note_off channel=0 note=76 velocity=0 time=34
the msg is note_on channel=0 note=76 velocity=100 time=0
the msg is note_off channel=0 note=79 velocity=0 time=17
the msg is note_on channel=0 note=79 velocity=100 time=0
the msg is note_off channel=0 note=79 velocity=0 time=17
the msg is note_on channel=0 note=79 velocity=100 time=0
the msg is note_off channel=0 note=76 velocity=0 time=17
the msg is note_on channel=0 note=76 velocity=100 time=0
the msg is note_off channel=0 note=74 velocity=0 time=4
the msg is note_on channel=0 note=74 velocity=100 time=0
the msg is note_off channel=0 note=72 velocity=0 time=12
the msg is note_on channel=0 note=72 velocity=100 time=0
the msg is note_off channel=0 note=72 velocity=0 time=89
the msg is note_on channel=0 note=72 velocity=100 time=0
the msg is note_off channel=0 note=72 velocity=0 time=12
the msg is note_on channel=0 note=72 velocity=100 time=0
the msg is note_off channel=0 note=74 velocity=0 time=25
the msg is note_on channel=0 note=74 velocity=100 time=0
the msg is note_off channel=0 note=74 velocity=0 time=25
the msg is note_on channel=0 note=74 velocity=100 time=0
the msg is note_off channel=0 note=74 velocity=0 time=12
the msg is note_on channel=0 note=74 velocity=100 time=0
the msg is note_off channel=0 note=76 velocity=0 time=25
the msg is note_on channel=0 note=76 velocity=100 time=0
the msg is note_off channel=0 note=79 velocity=0 time=25
the msg is note_on channel=0 note=79 velocity=100 time=0
the msg is note_off channel=0 note=79 velocity=0 time=12
the msg is note_on channel=0 note=79 velocity=100 time=0
the msg is note_off channel=0 note=76 velocity=0 time=12
the msg is note_on channel=0 note=76 velocity=100 time=0
the msg is note_off channel=0 note=74 velocity=0 time=12
the msg is note_on channel=0 note=74 velocity=100 time=0
the msg is note_off channel=0 note=72 velocity=0 time=12
the msg is note_on channel=0 note=72 velocity=100 time=0
the msg is note_off channel=0 note=74 velocity=0 time=25
the msg is note_on channel=0 note=74 velocity=100 time=0
the msg is note_off channel=0 note=76 velocity=0 time=25
the msg is note_on channel=0 note=76 velocity=100 time=0
the msg is note_off channel=0 note=79 velocity=0 time=25
the msg is note_on channel=0 note=79 velocity=100 time=0
the msg is note_off channel=0 note=79 velocity=0 time=12
the msg is note_on channel=0 note=79 velocity=100 time=0
the msg is note_off channel=0 note=76 velocity=0 time=12
the msg is note_on channel=0 note=76 velocity=100 time=0
the msg is note_off channel=0 note=74 velocity=0 time=12
the msg is note_on channel=0 note=74 velocity=100 time=0
the msg is note_off channel=0 note=72 velocity=0 time=12
the msg is note_on channel=0 note=72 velocity=100 time=0
the msg is note_off channel=0 note=74 velocity=0 time=25
the msg is note_on channel=0 note=74 velocity=100 time=0
the msg is note_off channel=0 note=74 velocity=0 time=12
the msg is note_on channel=0 note=74 velocity=100 time=0
the msg is note_off channel=0 note=74 velocity=0 time=12
the msg is note_on channel=0 note=74 velocity=100 time=0
the msg is note_off channel=0 note=74 velocity=0 time=25
the msg is note_on channel=0 note=74 velocity=100 time=0
the msg is note_off channel=0 note=74 velocity=0 time=25
the msg is note_on channel=0 note=74 velocity=100 time=0
the msg is note_off channel=0 note=76 velocity=0 time=25
the msg is note_on channel=0 note=76 velocity=100 time=0
the msg is note_off channel=0 note=79 velocity=0 time=25
the msg is note_on channel=0 note=79 velocity=100 time=0
the msg is note_off channel=0 note=79 velocity=0 time=12
the msg is note_on channel=0 note=79 velocity=100 time=0
the msg is note_off channel=0 note=76 velocity=0 time=12
the msg is note_on channel=0 note=76 velocity=100 time=0
the msg is note_off channel=0 note=74 velocity=0 time=12
the msg is note_on channel=0 note=74 velocity=100 time=0
the msg is note_off channel=0 note=72 velocity=0 time=12
the msg is note_on channel=0 note=72 velocity=100 time=0
the msg is note_off channel=0 note=72 velocity=0 time=81
the msg is note_on channel=0 note=72 velocity=100 time=0
the msg is note_off channel=0 note=72 velocity=0 time=8
the msg is note_on channel=0 note=72 velocity=100 time=0
the msg is note_off channel=0 note=74 velocity=0 time=25
the msg is note_on channel=0 note=74 velocity=100 time=0
the msg is note_off channel=0 note=74 velocity=0 time=25
the msg is note_on channel=0 note=74 velocity=100 time=0
the msg is note_off channel=0 note=74 velocity=0 time=25
the msg is note_on channel=0 note=74 velocity=100 time=0
the msg is note_off channel=0 note=74 velocity=0 time=25
the msg is note_on channel=0 note=74 velocity=100 time=0
the msg is note_off channel=0 note=74 velocity=0 time=25
the msg is note_on channel=0 note=74 velocity=100 time=0
the msg is note_off channel=0 note=74 velocity=0 time=25
the msg is note_on channel=0 note=74 velocity=100 time=0
the msg is note_off channel=0 note=76 velocity=0 time=25
the msg is note_on channel=0 note=76 velocity=100 time=0
the msg is note_off channel=0 note=79 velocity=0 time=25
the msg is note_on channel=0 note=79 velocity=100 time=0
the msg is note_off channel=0 note=79 velocity=0 time=12
the msg is note_on channel=0 note=79 velocity=100 time=0
the msg is note_off channel=0 note=76 velocity=0 time=12
the msg is note_on channel=0 note=76 velocity=100 time=0
the msg is note_off channel=0 note=74 velocity=0 time=17
the msg is note_on channel=0 note=74 velocity=100 time=0
the msg is note_off channel=0 note=72 velocity=0 time=8
the msg is note_on channel=0 note=72 velocity=100 time=0
the msg is note_off channel=0 note=72 velocity=0 time=25
the msg is note_on channel=0 note=72 velocity=100 time=0
the msg is note_off channel=0 note=72 velocity=0 time=25
the msg is note_on channel=0 note=72 velocity=100 time=0
the msg is note_off channel=0 note=72 velocity=0 time=12
the msg is note_on channel=0 note=72 velocity=100 time=0
the msg is note_off channel=0 note=72 velocity=0 time=29
the msg is note_on channel=0 note=72 velocity=100 time=0
the msg is note_off channel=0 note=72 velocity=0 time=8
the msg is note_on channel=0 note=72 velocity=100 time=0
the msg is note_off channel=0 note=72 velocity=0 time=25
the msg is note_on channel=0 note=72 velocity=100 time=0
the msg is note_off channel=0 note=72 velocity=0 time=12
the msg is note_on channel=0 note=72 velocity=100 time=0
the msg is note_off channel=0 note=72 velocity=0 time=12
the msg is note_on channel=0 note=72 velocity=100 time=0
the msg is note_off channel=0 note=72 velocity=0 time=12
the msg is note_on channel=0 note=72 velocity=100 time=0
the msg is note_off channel=0 note=76 velocity=0 time=12
the msg is note_on channel=0 note=76 velocity=100 time=0
the msg is note_off channel=0 note=79 velocity=0 time=25
the msg is note_on channel=0 note=79 velocity=100 time=0
the msg is note_off channel=0 note=79 velocity=0 time=12
the msg is note_on channel=0 note=79 velocity=100 time=0
the msg is note_off channel=0 note=76 velocity=0 time=12
the msg is note_on channel=0 note=76 velocity=100 time=0
the msg is note_off channel=0 note=74 velocity=0 time=12
the msg is note_on channel=0 note=74 velocity=100 time=0
the msg is note_off channel=0 note=72 velocity=0 time=12
the msg is note_on channel=0 note=72 velocity=100 time=0
the msg is note_off channel=0 note=72 velocity=0 time=76
the msg is note_on channel=0 note=72 velocity=100 time=0
the msg is note_off channel=0 note=72 velocity=0 time=12
the msg is note_on channel=0 note=72 velocity=100 time=0
the msg is note_off channel=0 note=72 velocity=0 time=12
the msg is note_on channel=0 note=72 velocity=100 time=0
the msg is note_off channel=0 note=72 velocity=0 time=8
the msg is note_on channel=0 note=72 velocity=100 time=0
the msg is note_off channel=0 note=72 velocity=0 time=17
the msg is note_on channel=0 note=72 velocity=100 time=0
the msg is note_off channel=0 note=72 velocity=0 time=12
the msg is note_on channel=0 note=72 velocity=100 time=0
the msg is note_off channel=0 note=72 velocity=0 time=12
the msg is note_on channel=0 note=72 velocity=100 time=0
the msg is note_off channel=0 note=76 velocity=0 time=8
the msg is note_on channel=0 note=76 velocity=100 time=0
the msg is note_off channel=0 note=79 velocity=0 time=29
the msg is note_on channel=0 note=79 velocity=100 time=0
the msg is note_off channel=0 note=79 velocity=0 time=12
the msg is note_on channel=0 note=79 velocity=100 time=0
the msg is note_off channel=0 note=76 velocity=0 time=8
the msg is note_on channel=0 note=76 velocity=100 time=0
the msg is note_off channel=0 note=74 velocity=0 time=17
the msg is note_on channel=0 note=74 velocity=100 time=0
the msg is <meta message end_of_track time=51>
the msg is <meta message track_name name='Piano' time=0>
the msg is program_change channel=0 program=0 time=0
the msg is note_off channel=0 note=72 velocity=0 time=0
the msg is pitchwheel channel=0 pitch=0 time=0
the msg is program_change channel=0 program=0 time=0
the msg is <meta message set_tempo tempo=500000 time=0>
the msg is <meta message time_signature numerator=4 denominator=4 clocks_per_click=24 notated_32nd_notes_per_beat=8 time=0>
the msg is note_on channel=0 note=72 velocity=100 time=0
the msg is note_off channel=0 note=74 velocity=0 time=34
the msg is note_on channel=0 note=74 velocity=100 time=0
the msg is note_off channel=0 note=74 velocity=0 time=17
the msg is note_on channel=0 note=74 velocity=100 time=0
the msg is note_off channel=0 note=74 velocity=0 time=34
the msg is note_on channel=0 note=74 velocity=100 time=0
the msg is note_off channel=0 note=74 velocity=0 time=17
the msg is note_on channel=0 note=74 velocity=100 time=0
the msg is note_off channel=0 note=76 velocity=0 time=34
the msg is note_on channel=0 note=76 velocity=100 time=0
the msg is note_off channel=0 note=79 velocity=0 time=17
the msg is note_on channel=0 note=79 velocity=100 time=0
the msg is note_off channel=0 note=79 velocity=0 time=17
the msg is note_on channel=0 note=79 velocity=100 time=0
the msg is note_off channel=0 note=76 velocity=0 time=17
the msg is note_on channel=0 note=76 velocity=100 time=0
the msg is note_off channel=0 note=74 velocity=0 time=4
the msg is note_on channel=0 note=74 velocity=100 time=0
the msg is note_off channel=0 note=72 velocity=0 time=12
the msg is note_on channel=0 note=72 velocity=100 time=0
the msg is note_off channel=0 note=72 velocity=0 time=89
the msg is note_on channel=0 note=72 velocity=100 time=0
the msg is note_off channel=0 note=72 velocity=0 time=12
the msg is note_on channel=0 note=72 velocity=100 time=0
the msg is note_off channel=0 note=74 velocity=0 time=25
the msg is note_on channel=0 note=74 velocity=100 time=0
the msg is note_off channel=0 note=74 velocity=0 time=25
the msg is note_on channel=0 note=74 velocity=100 time=0
the msg is note_off channel=0 note=74 velocity=0 time=12
the msg is note_on channel=0 note=74 velocity=100 time=0
the msg is note_off channel=0 note=76 velocity=0 time=25
the msg is note_on channel=0 note=76 velocity=100 time=0
the msg is note_off channel=0 note=79 velocity=0 time=25
the msg is note_on channel=0 note=79 velocity=100 time=0
the msg is note_off channel=0 note=79 velocity=0 time=12
the msg is note_on channel=0 note=79 velocity=100 time=0
the msg is note_off channel=0 note=76 velocity=0 time=12
the msg is note_on channel=0 note=76 velocity=100 time=0
the msg is note_off channel=0 note=74 velocity=0 time=12
the msg is note_on channel=0 note=74 velocity=100 time=0
the msg is note_off channel=0 note=72 velocity=0 time=12
the msg is note_on channel=0 note=72 velocity=100 time=0
the msg is note_off channel=0 note=74 velocity=0 time=25
the msg is note_on channel=0 note=74 velocity=100 time=0
the msg is note_off channel=0 note=76 velocity=0 time=25
the msg is note_on channel=0 note=76 velocity=100 time=0
the msg is note_off channel=0 note=79 velocity=0 time=25
the msg is note_on channel=0 note=79 velocity=100 time=0
the msg is note_off channel=0 note=79 velocity=0 time=12
the msg is note_on channel=0 note=79 velocity=100 time=0
the msg is note_off channel=0 note=76 velocity=0 time=12
the msg is note_on channel=0 note=76 velocity=100 time=0
the msg is note_off channel=0 note=74 velocity=0 time=12
the msg is note_on channel=0 note=74 velocity=100 time=0
the msg is note_off channel=0 note=72 velocity=0 time=12
the msg is note_on channel=0 note=72 velocity=100 time=0
the msg is note_off channel=0 note=74 velocity=0 time=25
the msg is note_on channel=0 note=74 velocity=100 time=0
the msg is note_off channel=0 note=74 velocity=0 time=12
the msg is note_on channel=0 note=74 velocity=100 time=0
the msg is note_off channel=0 note=74 velocity=0 time=12
the msg is note_on channel=0 note=74 velocity=100 time=0
the msg is note_off channel=0 note=74 velocity=0 time=25
the msg is note_on channel=0 note=74 velocity=100 time=0
the msg is note_off channel=0 note=74 velocity=0 time=25
the msg is note_on channel=0 note=74 velocity=100 time=0
the msg is note_off channel=0 note=76 velocity=0 time=25
the msg is note_on channel=0 note=76 velocity=100 time=0
the msg is note_off channel=0 note=79 velocity=0 time=25
the msg is note_on channel=0 note=79 velocity=100 time=0
the msg is note_off channel=0 note=79 velocity=0 time=12
the msg is note_on channel=0 note=79 velocity=100 time=0
the msg is note_off channel=0 note=76 velocity=0 time=12
the msg is note_on channel=0 note=76 velocity=100 time=0
the msg is note_off channel=0 note=74 velocity=0 time=12
the msg is note_on channel=0 note=74 velocity=100 time=0
the msg is note_off channel=0 note=72 velocity=0 time=12
the msg is note_on channel=0 note=72 velocity=100 time=0
the msg is note_off channel=0 note=72 velocity=0 time=81
the msg is note_on channel=0 note=72 velocity=100 time=0
the msg is note_off channel=0 note=72 velocity=0 time=8
the msg is note_on channel=0 note=72 velocity=100 time=0
the msg is note_off channel=0 note=74 velocity=0 time=25
the msg is note_on channel=0 note=74 velocity=100 time=0
the msg is note_off channel=0 note=74 velocity=0 time=25
the msg is note_on channel=0 note=74 velocity=100 time=0
the msg is note_off channel=0 note=74 velocity=0 time=25
the msg is note_on channel=0 note=74 velocity=100 time=0
the msg is note_off channel=0 note=74 velocity=0 time=25
the msg is note_on channel=0 note=74 velocity=100 time=0
the msg is note_off channel=0 note=74 velocity=0 time=25
the msg is note_on channel=0 note=74 velocity=100 time=0
the msg is note_off channel=0 note=74 velocity=0 time=25
the msg is note_on channel=0 note=74 velocity=100 time=0
the msg is note_off channel=0 note=76 velocity=0 time=25
the msg is note_on channel=0 note=76 velocity=100 time=0
the msg is note_off channel=0 note=79 velocity=0 time=25
the msg is note_on channel=0 note=79 velocity=100 time=0
the msg is note_off channel=0 note=79 velocity=0 time=12
the msg is note_on channel=0 note=79 velocity=100 time=0
the msg is note_off channel=0 note=76 velocity=0 time=12
the msg is note_on channel=0 note=76 velocity=100 time=0
the msg is note_off channel=0 note=74 velocity=0 time=17
the msg is note_on channel=0 note=74 velocity=100 time=0
the msg is note_off channel=0 note=72 velocity=0 time=8
the msg is note_on channel=0 note=72 velocity=100 time=0
the msg is note_off channel=0 note=72 velocity=0 time=25
the msg is note_on channel=0 note=72 velocity=100 time=0
the msg is note_off channel=0 note=72 velocity=0 time=25
the msg is note_on channel=0 note=72 velocity=100 time=0
the msg is note_off channel=0 note=72 velocity=0 time=12
the msg is note_on channel=0 note=72 velocity=100 time=0
the msg is note_off channel=0 note=72 velocity=0 time=29
the msg is note_on channel=0 note=72 velocity=100 time=0
the msg is note_off channel=0 note=72 velocity=0 time=8
the msg is note_on channel=0 note=72 velocity=100 time=0
the msg is note_off channel=0 note=72 velocity=0 time=25
the msg is note_on channel=0 note=72 velocity=100 time=0
the msg is note_off channel=0 note=72 velocity=0 time=12
the msg is note_on channel=0 note=72 velocity=100 time=0
the msg is note_off channel=0 note=72 velocity=0 time=12
the msg is note_on channel=0 note=72 velocity=100 time=0
the msg is note_off channel=0 note=72 velocity=0 time=12
the msg is note_on channel=0 note=72 velocity=100 time=0
the msg is note_off channel=0 note=76 velocity=0 time=12
the msg is note_on channel=0 note=76 velocity=100 time=0
the msg is note_off channel=0 note=79 velocity=0 time=25
the msg is note_on channel=0 note=79 velocity=100 time=0
the msg is note_off channel=0 note=79 velocity=0 time=12
the msg is note_on channel=0 note=79 velocity=100 time=0
the msg is note_off channel=0 note=76 velocity=0 time=12
the msg is note_on channel=0 note=76 velocity=100 time=0
the msg is note_off channel=0 note=74 velocity=0 time=12
the msg is note_on channel=0 note=74 velocity=100 time=0
the msg is note_off channel=0 note=72 velocity=0 time=12
the msg is note_on channel=0 note=72 velocity=100 time=0
the msg is note_off channel=0 note=72 velocity=0 time=76
the msg is note_on channel=0 note=72 velocity=100 time=0
the msg is note_off channel=0 note=72 velocity=0 time=12
the msg is note_on channel=0 note=72 velocity=100 time=0
the msg is note_off channel=0 note=72 velocity=0 time=12
the msg is note_on channel=0 note=72 velocity=100 time=0
the msg is note_off channel=0 note=72 velocity=0 time=8
the msg is note_on channel=0 note=72 velocity=100 time=0
the msg is note_off channel=0 note=72 velocity=0 time=17
the msg is note_on channel=0 note=72 velocity=100 time=0
the msg is note_off channel=0 note=72 velocity=0 time=12
the msg is note_on channel=0 note=72 velocity=100 time=0
the msg is note_off channel=0 note=72 velocity=0 time=12
the msg is note_on channel=0 note=72 velocity=100 time=0
the msg is note_off channel=0 note=76 velocity=0 time=8
the msg is note_on channel=0 note=76 velocity=100 time=0
the msg is note_off channel=0 note=79 velocity=0 time=29
the msg is note_on channel=0 note=79 velocity=100 time=0
the msg is note_off channel=0 note=79 velocity=0 time=12
the msg is note_on channel=0 note=79 velocity=100 time=0
the msg is note_off channel=0 note=76 velocity=0 time=8
the msg is note_on channel=0 note=76 velocity=100 time=0
the msg is note_off channel=0 note=74 velocity=0 time=17
the msg is note_on channel=0 note=74 velocity=100 time=0
the msg is <meta message end_of_track time=51>
the msg is <meta message track_name name='Piano' time=0>
the msg is program_change channel=0 program=0 time=0
the msg is note_off channel=0 note=72 velocity=0 time=0
the msg is pitchwheel channel=0 pitch=0 time=0
the msg is program_change channel=0 program=0 time=0
the msg is <meta message set_tempo tempo=500000 time=0>
the msg is <meta message time_signature numerator=4 denominator=4 clocks_per_click=24 notated_32nd_notes_per_beat=8 time=0>
the msg is note_on channel=0 note=72 velocity=100 time=0
the msg is note_off channel=0 note=74 velocity=0 time=34
the msg is note_on channel=0 note=74 velocity=100 time=0
the msg is note_off channel=0 note=74 velocity=0 time=17
the msg is note_on channel=0 note=74 velocity=100 time=0
the msg is note_off channel=0 note=74 velocity=0 time=34
the msg is note_on channel=0 note=74 velocity=100 time=0
the msg is note_off channel=0 note=74 velocity=0 time=17
the msg is note_on channel=0 note=74 velocity=100 time=0
the msg is note_off channel=0 note=76 velocity=0 time=34
the msg is note_on channel=0 note=76 velocity=100 time=0
the msg is note_off channel=0 note=79 velocity=0 time=17
the msg is note_on channel=0 note=79 velocity=100 time=0
the msg is note_off channel=0 note=79 velocity=0 time=17
the msg is note_on channel=0 note=79 velocity=100 time=0
the msg is note_off channel=0 note=76 velocity=0 time=17
the msg is note_on channel=0 note=76 velocity=100 time=0
the msg is note_off channel=0 note=74 velocity=0 time=4
the msg is note_on channel=0 note=74 velocity=100 time=0
the msg is note_off channel=0 note=72 velocity=0 time=12
the msg is note_on channel=0 note=72 velocity=100 time=0
the msg is note_off channel=0 note=72 velocity=0 time=89
the msg is note_on channel=0 note=72 velocity=100 time=0
the msg is note_off channel=0 note=72 velocity=0 time=12
the msg is note_on channel=0 note=72 velocity=100 time=0
the msg is note_off channel=0 note=74 velocity=0 time=25
the msg is note_on channel=0 note=74 velocity=100 time=0
the msg is note_off channel=0 note=74 velocity=0 time=25
the msg is note_on channel=0 note=74 velocity=100 time=0
the msg is note_off channel=0 note=74 velocity=0 time=12
the msg is note_on channel=0 note=74 velocity=100 time=0
the msg is note_off channel=0 note=76 velocity=0 time=25
the msg is note_on channel=0 note=76 velocity=100 time=0
the msg is note_off channel=0 note=79 velocity=0 time=25
the msg is note_on channel=0 note=79 velocity=100 time=0
the msg is note_off channel=0 note=79 velocity=0 time=12
the msg is note_on channel=0 note=79 velocity=100 time=0
the msg is note_off channel=0 note=76 velocity=0 time=12
the msg is note_on channel=0 note=76 velocity=100 time=0
the msg is note_off channel=0 note=74 velocity=0 time=12
the msg is note_on channel=0 note=74 velocity=100 time=0
the msg is note_off channel=0 note=72 velocity=0 time=12
the msg is note_on channel=0 note=72 velocity=100 time=0
the msg is note_off channel=0 note=74 velocity=0 time=25
the msg is note_on channel=0 note=74 velocity=100 time=0
the msg is note_off channel=0 note=76 velocity=0 time=25
the msg is note_on channel=0 note=76 velocity=100 time=0
the msg is note_off channel=0 note=79 velocity=0 time=25
the msg is note_on channel=0 note=79 velocity=100 time=0
the msg is note_off channel=0 note=79 velocity=0 time=12
the msg is note_on channel=0 note=79 velocity=100 time=0
the msg is note_off channel=0 note=76 velocity=0 time=12
the msg is note_on channel=0 note=76 velocity=100 time=0
the msg is note_off channel=0 note=74 velocity=0 time=12
the msg is note_on channel=0 note=74 velocity=100 time=0
the msg is note_off channel=0 note=72 velocity=0 time=12
the msg is note_on channel=0 note=72 velocity=100 time=0
the msg is note_off channel=0 note=74 velocity=0 time=25
the msg is note_on channel=0 note=74 velocity=100 time=0
the msg is note_off channel=0 note=74 velocity=0 time=12
the msg is note_on channel=0 note=74 velocity=100 time=0
the msg is note_off channel=0 note=74 velocity=0 time=12
the msg is note_on channel=0 note=74 velocity=100 time=0
the msg is note_off channel=0 note=74 velocity=0 time=25
the msg is note_on channel=0 note=74 velocity=100 time=0
the msg is note_off channel=0 note=74 velocity=0 time=25
the msg is note_on channel=0 note=74 velocity=100 time=0
the msg is note_off channel=0 note=76 velocity=0 time=25
the msg is note_on channel=0 note=76 velocity=100 time=0
the msg is note_off channel=0 note=79 velocity=0 time=25
the msg is note_on channel=0 note=79 velocity=100 time=0
the msg is note_off channel=0 note=79 velocity=0 time=12
the msg is note_on channel=0 note=79 velocity=100 time=0
the msg is note_off channel=0 note=76 velocity=0 time=12
the msg is note_on channel=0 note=76 velocity=100 time=0
the msg is note_off channel=0 note=74 velocity=0 time=12
the msg is note_on channel=0 note=74 velocity=100 time=0
the msg is note_off channel=0 note=72 velocity=0 time=12
the msg is note_on channel=0 note=72 velocity=100 time=0
the msg is note_off channel=0 note=72 velocity=0 time=81
the msg is note_on channel=0 note=72 velocity=100 time=0
the msg is note_off channel=0 note=72 velocity=0 time=8
the msg is note_on channel=0 note=72 velocity=100 time=0
the msg is note_off channel=0 note=74 velocity=0 time=25
the msg is note_on channel=0 note=74 velocity=100 time=0
the msg is note_off channel=0 note=74 velocity=0 time=25
the msg is note_on channel=0 note=74 velocity=100 time=0
the msg is note_off channel=0 note=74 velocity=0 time=25
the msg is note_on channel=0 note=74 velocity=100 time=0
the msg is note_off channel=0 note=74 velocity=0 time=25
the msg is note_on channel=0 note=74 velocity=100 time=0
the msg is note_off channel=0 note=74 velocity=0 time=25
the msg is note_on channel=0 note=74 velocity=100 time=0
the msg is note_off channel=0 note=74 velocity=0 time=25
the msg is note_on channel=0 note=74 velocity=100 time=0
the msg is note_off channel=0 note=76 velocity=0 time=25
the msg is note_on channel=0 note=76 velocity=100 time=0
the msg is note_off channel=0 note=79 velocity=0 time=25
the msg is note_on channel=0 note=79 velocity=100 time=0
the msg is note_off channel=0 note=79 velocity=0 time=12
the msg is note_on channel=0 note=79 velocity=100 time=0
the msg is note_off channel=0 note=76 velocity=0 time=12
the msg is note_on channel=0 note=76 velocity=100 time=0
the msg is note_off channel=0 note=74 velocity=0 time=17
the msg is note_on channel=0 note=74 velocity=100 time=0
the msg is note_off channel=0 note=72 velocity=0 time=8
the msg is note_on channel=0 note=72 velocity=100 time=0
the msg is note_off channel=0 note=72 velocity=0 time=25
the msg is note_on channel=0 note=72 velocity=100 time=0
the msg is note_off channel=0 note=72 velocity=0 time=25
the msg is note_on channel=0 note=72 velocity=100 time=0
the msg is note_off channel=0 note=72 velocity=0 time=12
the msg is note_on channel=0 note=72 velocity=100 time=0
the msg is note_off channel=0 note=72 velocity=0 time=29
the msg is note_on channel=0 note=72 velocity=100 time=0
the msg is note_off channel=0 note=72 velocity=0 time=8
the msg is note_on channel=0 note=72 velocity=100 time=0
the msg is note_off channel=0 note=72 velocity=0 time=25
the msg is note_on channel=0 note=72 velocity=100 time=0
the msg is note_off channel=0 note=72 velocity=0 time=12
the msg is note_on channel=0 note=72 velocity=100 time=0
the msg is note_off channel=0 note=72 velocity=0 time=12
the msg is note_on channel=0 note=72 velocity=100 time=0
the msg is note_off channel=0 note=72 velocity=0 time=12
the msg is note_on channel=0 note=72 velocity=100 time=0
the msg is note_off channel=0 note=76 velocity=0 time=12
the msg is note_on channel=0 note=76 velocity=100 time=0
the msg is note_off channel=0 note=79 velocity=0 time=25
the msg is note_on channel=0 note=79 velocity=100 time=0
the msg is note_off channel=0 note=79 velocity=0 time=12
the msg is note_on channel=0 note=79 velocity=100 time=0
the msg is note_off channel=0 note=76 velocity=0 time=12
the msg is note_on channel=0 note=76 velocity=100 time=0
the msg is note_off channel=0 note=74 velocity=0 time=12
the msg is note_on channel=0 note=74 velocity=100 time=0
the msg is note_off channel=0 note=72 velocity=0 time=12
the msg is note_on channel=0 note=72 velocity=100 time=0
the msg is note_off channel=0 note=72 velocity=0 time=76
the msg is note_on channel=0 note=72 velocity=100 time=0
the msg is note_off channel=0 note=72 velocity=0 time=12
the msg is note_on channel=0 note=72 velocity=100 time=0
the msg is note_off channel=0 note=72 velocity=0 time=12
the msg is note_on channel=0 note=72 velocity=100 time=0
the msg is note_off channel=0 note=72 velocity=0 time=8
the msg is note_on channel=0 note=72 velocity=100 time=0
the msg is note_off channel=0 note=72 velocity=0 time=17
the msg is note_on channel=0 note=72 velocity=100 time=0
the msg is note_off channel=0 note=72 velocity=0 time=12
the msg is note_on channel=0 note=72 velocity=100 time=0
the msg is note_off channel=0 note=72 velocity=0 time=12
the msg is note_on channel=0 note=72 velocity=100 time=0
the msg is note_off channel=0 note=76 velocity=0 time=8
the msg is note_on channel=0 note=76 velocity=100 time=0
the msg is note_off channel=0 note=79 velocity=0 time=29
the msg is note_on channel=0 note=79 velocity=100 time=0
the msg is note_off channel=0 note=79 velocity=0 time=12
the msg is note_on channel=0 note=79 velocity=100 time=0
the msg is note_off channel=0 note=76 velocity=0 time=8
the msg is note_on channel=0 note=76 velocity=100 time=0
the msg is note_off channel=0 note=74 velocity=0 time=17
the msg is note_on channel=0 note=74 velocity=100 time=0
the msg is <meta message end_of_track time=51>
the msg is <meta message track_name name='Piano' time=0>
the msg is program_change channel=0 program=0 time=0
the msg is note_off channel=0 note=72 velocity=0 time=0
the msg is pitchwheel channel=0 pitch=0 time=0
the msg is program_change channel=0 program=0 time=0
the msg is <meta message set_tempo tempo=500000 time=0>
the msg is <meta message time_signature numerator=4 denominator=4 clocks_per_click=24 notated_32nd_notes_per_beat=8 time=0>
the msg is note_on channel=0 note=72 velocity=100 time=0
the msg is note_off channel=0 note=74 velocity=0 time=34
the msg is note_on channel=0 note=74 velocity=100 time=0
the msg is note_off channel=0 note=74 velocity=0 time=17
the msg is note_on channel=0 note=74 velocity=100 time=0
the msg is note_off channel=0 note=74 velocity=0 time=34
the msg is note_on channel=0 note=74 velocity=100 time=0
the msg is note_off channel=0 note=74 velocity=0 time=17
the msg is note_on channel=0 note=74 velocity=100 time=0
the msg is note_off channel=0 note=76 velocity=0 time=34
the msg is note_on channel=0 note=76 velocity=100 time=0
the msg is note_off channel=0 note=79 velocity=0 time=17
the msg is note_on channel=0 note=79 velocity=100 time=0
the msg is note_off channel=0 note=79 velocity=0 time=17
the msg is note_on channel=0 note=79 velocity=100 time=0
the msg is note_off channel=0 note=76 velocity=0 time=17
the msg is note_on channel=0 note=76 velocity=100 time=0
the msg is note_off channel=0 note=74 velocity=0 time=4
the msg is note_on channel=0 note=74 velocity=100 time=0
the msg is note_off channel=0 note=72 velocity=0 time=12
the msg is note_on channel=0 note=72 velocity=100 time=0
the msg is note_off channel=0 note=72 velocity=0 time=89
the msg is note_on channel=0 note=72 velocity=100 time=0
the msg is note_off channel=0 note=72 velocity=0 time=12
the msg is note_on channel=0 note=72 velocity=100 time=0
the msg is note_off channel=0 note=74 velocity=0 time=25
the msg is note_on channel=0 note=74 velocity=100 time=0
the msg is note_off channel=0 note=74 velocity=0 time=25
the msg is note_on channel=0 note=74 velocity=100 time=0
the msg is note_off channel=0 note=74 velocity=0 time=12
the msg is note_on channel=0 note=74 velocity=100 time=0
the msg is note_off channel=0 note=76 velocity=0 time=25
the msg is note_on channel=0 note=76 velocity=100 time=0
the msg is note_off channel=0 note=79 velocity=0 time=25
the msg is note_on channel=0 note=79 velocity=100 time=0
the msg is note_off channel=0 note=79 velocity=0 time=12
the msg is note_on channel=0 note=79 velocity=100 time=0
the msg is note_off channel=0 note=76 velocity=0 time=12
the msg is note_on channel=0 note=76 velocity=100 time=0
the msg is note_off channel=0 note=74 velocity=0 time=12
the msg is note_on channel=0 note=74 velocity=100 time=0
the msg is note_off channel=0 note=72 velocity=0 time=12
the msg is note_on channel=0 note=72 velocity=100 time=0
the msg is note_off channel=0 note=74 velocity=0 time=25
the msg is note_on channel=0 note=74 velocity=100 time=0
the msg is note_off channel=0 note=76 velocity=0 time=25
the msg is note_on channel=0 note=76 velocity=100 time=0
the msg is note_off channel=0 note=79 velocity=0 time=25
the msg is note_on channel=0 note=79 velocity=100 time=0
the msg is note_off channel=0 note=79 velocity=0 time=12
the msg is note_on channel=0 note=79 velocity=100 time=0
the msg is note_off channel=0 note=76 velocity=0 time=12
the msg is note_on channel=0 note=76 velocity=100 time=0
the msg is note_off channel=0 note=74 velocity=0 time=12
the msg is note_on channel=0 note=74 velocity=100 time=0
the msg is note_off channel=0 note=72 velocity=0 time=12
the msg is note_on channel=0 note=72 velocity=100 time=0
the msg is note_off channel=0 note=74 velocity=0 time=25
the msg is note_on channel=0 note=74 velocity=100 time=0
the msg is note_off channel=0 note=74 velocity=0 time=12
the msg is note_on channel=0 note=74 velocity=100 time=0
the msg is note_off channel=0 note=74 velocity=0 time=12
the msg is note_on channel=0 note=74 velocity=100 time=0
the msg is note_off channel=0 note=74 velocity=0 time=25
the msg is note_on channel=0 note=74 velocity=100 time=0
the msg is note_off channel=0 note=74 velocity=0 time=25
the msg is note_on channel=0 note=74 velocity=100 time=0
the msg is note_off channel=0 note=76 velocity=0 time=25
the msg is note_on channel=0 note=76 velocity=100 time=0
the msg is note_off channel=0 note=79 velocity=0 time=25
the msg is note_on channel=0 note=79 velocity=100 time=0
the msg is note_off channel=0 note=79 velocity=0 time=12
the msg is note_on channel=0 note=79 velocity=100 time=0
the msg is note_off channel=0 note=76 velocity=0 time=12
the msg is note_on channel=0 note=76 velocity=100 time=0
the msg is note_off channel=0 note=74 velocity=0 time=12
the msg is note_on channel=0 note=74 velocity=100 time=0
the msg is note_off channel=0 note=72 velocity=0 time=12
the msg is note_on channel=0 note=72 velocity=100 time=0
the msg is note_off channel=0 note=72 velocity=0 time=81
the msg is note_on channel=0 note=72 velocity=100 time=0
the msg is note_off channel=0 note=72 velocity=0 time=8
the msg is note_on channel=0 note=72 velocity=100 time=0
the msg is note_off channel=0 note=74 velocity=0 time=25
the msg is note_on channel=0 note=74 velocity=100 time=0
the msg is note_off channel=0 note=74 velocity=0 time=25
the msg is note_on channel=0 note=74 velocity=100 time=0
the msg is note_off channel=0 note=74 velocity=0 time=25
the msg is note_on channel=0 note=74 velocity=100 time=0
the msg is note_off channel=0 note=74 velocity=0 time=25
the msg is note_on channel=0 note=74 velocity=100 time=0
the msg is note_off channel=0 note=74 velocity=0 time=25
the msg is note_on channel=0 note=74 velocity=100 time=0
the msg is note_off channel=0 note=74 velocity=0 time=25
the msg is note_on channel=0 note=74 velocity=100 time=0
the msg is note_off channel=0 note=76 velocity=0 time=25
the msg is note_on channel=0 note=76 velocity=100 time=0
the msg is note_off channel=0 note=79 velocity=0 time=25
the msg is note_on channel=0 note=79 velocity=100 time=0
the msg is note_off channel=0 note=79 velocity=0 time=12
the msg is note_on channel=0 note=79 velocity=100 time=0
the msg is note_off channel=0 note=76 velocity=0 time=12
the msg is note_on channel=0 note=76 velocity=100 time=0
the msg is note_off channel=0 note=74 velocity=0 time=17
the msg is note_on channel=0 note=74 velocity=100 time=0
the msg is note_off channel=0 note=72 velocity=0 time=8
the msg is note_on channel=0 note=72 velocity=100 time=0
the msg is note_off channel=0 note=72 velocity=0 time=25
the msg is note_on channel=0 note=72 velocity=100 time=0
the msg is note_off channel=0 note=72 velocity=0 time=25
the msg is note_on channel=0 note=72 velocity=100 time=0
the msg is note_off channel=0 note=72 velocity=0 time=12
the msg is note_on channel=0 note=72 velocity=100 time=0
the msg is note_off channel=0 note=72 velocity=0 time=29
the msg is note_on channel=0 note=72 velocity=100 time=0
the msg is note_off channel=0 note=72 velocity=0 time=8
the msg is note_on channel=0 note=72 velocity=100 time=0
the msg is note_off channel=0 note=72 velocity=0 time=25
the msg is note_on channel=0 note=72 velocity=100 time=0
the msg is note_off channel=0 note=72 velocity=0 time=12
the msg is note_on channel=0 note=72 velocity=100 time=0
the msg is note_off channel=0 note=72 velocity=0 time=12
the msg is note_on channel=0 note=72 velocity=100 time=0
the msg is note_off channel=0 note=72 velocity=0 time=12
the msg is note_on channel=0 note=72 velocity=100 time=0
the msg is note_off channel=0 note=76 velocity=0 time=12
the msg is note_on channel=0 note=76 velocity=100 time=0
the msg is note_off channel=0 note=79 velocity=0 time=25
the msg is note_on channel=0 note=79 velocity=100 time=0
the msg is note_off channel=0 note=79 velocity=0 time=12
the msg is note_on channel=0 note=79 velocity=100 time=0
the msg is note_off channel=0 note=76 velocity=0 time=12
the msg is note_on channel=0 note=76 velocity=100 time=0
the msg is note_off channel=0 note=74 velocity=0 time=12
the msg is note_on channel=0 note=74 velocity=100 time=0
the msg is note_off channel=0 note=72 velocity=0 time=12
the msg is note_on channel=0 note=72 velocity=100 time=0
the msg is note_off channel=0 note=72 velocity=0 time=76
the msg is note_on channel=0 note=72 velocity=100 time=0
the msg is note_off channel=0 note=72 velocity=0 time=12
the msg is note_on channel=0 note=72 velocity=100 time=0
the msg is note_off channel=0 note=72 velocity=0 time=12
the msg is note_on channel=0 note=72 velocity=100 time=0
the msg is note_off channel=0 note=72 velocity=0 time=8
the msg is note_on channel=0 note=72 velocity=100 time=0
the msg is note_off channel=0 note=72 velocity=0 time=17
the msg is note_on channel=0 note=72 velocity=100 time=0
the msg is note_off channel=0 note=72 velocity=0 time=12
the msg is note_on channel=0 note=72 velocity=100 time=0
the msg is note_off channel=0 note=72 velocity=0 time=12
the msg is note_on channel=0 note=72 velocity=100 time=0
the msg is note_off channel=0 note=76 velocity=0 time=8
the msg is note_on channel=0 note=76 velocity=100 time=0
the msg is note_off channel=0 note=79 velocity=0 time=29
the msg is note_on channel=0 note=79 velocity=100 time=0
the msg is note_off channel=0 note=79 velocity=0 time=12
the msg is note_on channel=0 note=79 velocity=100 time=0
the msg is note_off channel=0 note=76 velocity=0 time=8
the msg is note_on channel=0 note=76 velocity=100 time=0
the msg is note_off channel=0 note=74 velocity=0 time=17
the msg is note_on channel=0 note=74 velocity=100 time=0
the msg is <meta message end_of_track time=51>
the msg is <meta message track_name name='Piano' time=0>
the msg is program_change channel=0 program=0 time=0
the msg is note_off channel=0 note=72 velocity=0 time=0
the msg is pitchwheel channel=0 pitch=0 time=0
the msg is program_change channel=0 program=0 time=0
the msg is <meta message set_tempo tempo=500000 time=0>
the msg is <meta message time_signature numerator=4 denominator=4 clocks_per_click=24 notated_32nd_notes_per_beat=8 time=0>
the msg is note_on channel=0 note=72 velocity=100 time=0
the msg is note_off channel=0 note=74 velocity=0 time=34
the msg is note_on channel=0 note=74 velocity=100 time=0
the msg is note_off channel=0 note=74 velocity=0 time=17
the msg is note_on channel=0 note=74 velocity=100 time=0
the msg is note_off channel=0 note=74 velocity=0 time=34
the msg is note_on channel=0 note=74 velocity=100 time=0
the msg is note_off channel=0 note=74 velocity=0 time=17
the msg is note_on channel=0 note=74 velocity=100 time=0
the msg is note_off channel=0 note=76 velocity=0 time=34
the msg is note_on channel=0 note=76 velocity=100 time=0
the msg is note_off channel=0 note=79 velocity=0 time=17
the msg is note_on channel=0 note=79 velocity=100 time=0
the msg is note_off channel=0 note=79 velocity=0 time=17
the msg is note_on channel=0 note=79 velocity=100 time=0
the msg is note_off channel=0 note=76 velocity=0 time=17
the msg is note_on channel=0 note=76 velocity=100 time=0
the msg is note_off channel=0 note=74 velocity=0 time=4
the msg is note_on channel=0 note=74 velocity=100 time=0
the msg is note_off channel=0 note=72 velocity=0 time=12
the msg is note_on channel=0 note=72 velocity=100 time=0
the msg is note_off channel=0 note=72 velocity=0 time=89
the msg is note_on channel=0 note=72 velocity=100 time=0
the msg is note_off channel=0 note=72 velocity=0 time=12
the msg is note_on channel=0 note=72 velocity=100 time=0
the msg is note_off channel=0 note=74 velocity=0 time=25
the msg is note_on channel=0 note=74 velocity=100 time=0
the msg is note_off channel=0 note=74 velocity=0 time=25
the msg is note_on channel=0 note=74 velocity=100 time=0
the msg is note_off channel=0 note=74 velocity=0 time=12
the msg is note_on channel=0 note=74 velocity=100 time=0
the msg is note_off channel=0 note=76 velocity=0 time=25
the msg is note_on channel=0 note=76 velocity=100 time=0
the msg is note_off channel=0 note=79 velocity=0 time=25
the msg is note_on channel=0 note=79 velocity=100 time=0
the msg is note_off channel=0 note=79 velocity=0 time=12
the msg is note_on channel=0 note=79 velocity=100 time=0
the msg is note_off channel=0 note=76 velocity=0 time=12
the msg is note_on channel=0 note=76 velocity=100 time=0
the msg is note_off channel=0 note=74 velocity=0 time=12
the msg is note_on channel=0 note=74 velocity=100 time=0
the msg is note_off channel=0 note=72 velocity=0 time=12
the msg is note_on channel=0 note=72 velocity=100 time=0
the msg is note_off channel=0 note=74 velocity=0 time=25
the msg is note_on channel=0 note=74 velocity=100 time=0
the msg is note_off channel=0 note=76 velocity=0 time=25
the msg is note_on channel=0 note=76 velocity=100 time=0
the msg is note_off channel=0 note=79 velocity=0 time=25
the msg is note_on channel=0 note=79 velocity=100 time=0
the msg is note_off channel=0 note=79 velocity=0 time=12
the msg is note_on channel=0 note=79 velocity=100 time=0
the msg is note_off channel=0 note=76 velocity=0 time=12
the msg is note_on channel=0 note=76 velocity=100 time=0
the msg is note_off channel=0 note=74 velocity=0 time=12
the msg is note_on channel=0 note=74 velocity=100 time=0
the msg is note_off channel=0 note=72 velocity=0 time=12
the msg is note_on channel=0 note=72 velocity=100 time=0
the msg is note_off channel=0 note=74 velocity=0 time=25
the msg is note_on channel=0 note=74 velocity=100 time=0
the msg is note_off channel=0 note=74 velocity=0 time=12
the msg is note_on channel=0 note=74 velocity=100 time=0
the msg is note_off channel=0 note=74 velocity=0 time=12
the msg is note_on channel=0 note=74 velocity=100 time=0
the msg is note_off channel=0 note=74 velocity=0 time=25
the msg is note_on channel=0 note=74 velocity=100 time=0
the msg is note_off channel=0 note=74 velocity=0 time=25
the msg is note_on channel=0 note=74 velocity=100 time=0
the msg is note_off channel=0 note=76 velocity=0 time=25
the msg is note_on channel=0 note=76 velocity=100 time=0
the msg is note_off channel=0 note=79 velocity=0 time=25
the msg is note_on channel=0 note=79 velocity=100 time=0
the msg is note_off channel=0 note=79 velocity=0 time=12
the msg is note_on channel=0 note=79 velocity=100 time=0
the msg is note_off channel=0 note=76 velocity=0 time=12
the msg is note_on channel=0 note=76 velocity=100 time=0
the msg is note_off channel=0 note=74 velocity=0 time=12
the msg is note_on channel=0 note=74 velocity=100 time=0
the msg is note_off channel=0 note=72 velocity=0 time=12
the msg is note_on channel=0 note=72 velocity=100 time=0
the msg is note_off channel=0 note=72 velocity=0 time=81
the msg is note_on channel=0 note=72 velocity=100 time=0
the msg is note_off channel=0 note=72 velocity=0 time=8
the msg is note_on channel=0 note=72 velocity=100 time=0
the msg is note_off channel=0 note=74 velocity=0 time=25
the msg is note_on channel=0 note=74 velocity=100 time=0
the msg is note_off channel=0 note=74 velocity=0 time=25
the msg is note_on channel=0 note=74 velocity=100 time=0
the msg is note_off channel=0 note=74 velocity=0 time=25
the msg is note_on channel=0 note=74 velocity=100 time=0
the msg is note_off channel=0 note=74 velocity=0 time=25
the msg is note_on channel=0 note=74 velocity=100 time=0
the msg is note_off channel=0 note=74 velocity=0 time=25
the msg is note_on channel=0 note=74 velocity=100 time=0
the msg is note_off channel=0 note=74 velocity=0 time=25
the msg is note_on channel=0 note=74 velocity=100 time=0
the msg is note_off channel=0 note=76 velocity=0 time=25
the msg is note_on channel=0 note=76 velocity=100 time=0
the msg is note_off channel=0 note=79 velocity=0 time=25
the msg is note_on channel=0 note=79 velocity=100 time=0
the msg is note_off channel=0 note=79 velocity=0 time=12
the msg is note_on channel=0 note=79 velocity=100 time=0
the msg is note_off channel=0 note=76 velocity=0 time=12
the msg is note_on channel=0 note=76 velocity=100 time=0
the msg is note_off channel=0 note=74 velocity=0 time=17
the msg is note_on channel=0 note=74 velocity=100 time=0
the msg is note_off channel=0 note=72 velocity=0 time=8
the msg is note_on channel=0 note=72 velocity=100 time=0
the msg is note_off channel=0 note=72 velocity=0 time=25
the msg is note_on channel=0 note=72 velocity=100 time=0
the msg is note_off channel=0 note=72 velocity=0 time=25
the msg is note_on channel=0 note=72 velocity=100 time=0
the msg is note_off channel=0 note=72 velocity=0 time=12
the msg is note_on channel=0 note=72 velocity=100 time=0
the msg is note_off channel=0 note=72 velocity=0 time=29
the msg is note_on channel=0 note=72 velocity=100 time=0
the msg is note_off channel=0 note=72 velocity=0 time=8
the msg is note_on channel=0 note=72 velocity=100 time=0
the msg is note_off channel=0 note=72 velocity=0 time=25
the msg is note_on channel=0 note=72 velocity=100 time=0
the msg is note_off channel=0 note=72 velocity=0 time=12
the msg is note_on channel=0 note=72 velocity=100 time=0
the msg is note_off channel=0 note=72 velocity=0 time=12
the msg is note_on channel=0 note=72 velocity=100 time=0
the msg is note_off channel=0 note=72 velocity=0 time=12
the msg is note_on channel=0 note=72 velocity=100 time=0
the msg is note_off channel=0 note=76 velocity=0 time=12
the msg is note_on channel=0 note=76 velocity=100 time=0
the msg is note_off channel=0 note=79 velocity=0 time=25
the msg is note_on channel=0 note=79 velocity=100 time=0
the msg is note_off channel=0 note=79 velocity=0 time=12
the msg is note_on channel=0 note=79 velocity=100 time=0
the msg is note_off channel=0 note=76 velocity=0 time=12
the msg is note_on channel=0 note=76 velocity=100 time=0
the msg is note_off channel=0 note=74 velocity=0 time=12
the msg is note_on channel=0 note=74 velocity=100 time=0
the msg is note_off channel=0 note=72 velocity=0 time=12
the msg is note_on channel=0 note=72 velocity=100 time=0
the msg is note_off channel=0 note=72 velocity=0 time=76
the msg is note_on channel=0 note=72 velocity=100 time=0
the msg is note_off channel=0 note=72 velocity=0 time=12
the msg is note_on channel=0 note=72 velocity=100 time=0
the msg is note_off channel=0 note=72 velocity=0 time=12
the msg is note_on channel=0 note=72 velocity=100 time=0
the msg is note_off channel=0 note=72 velocity=0 time=8
the msg is note_on channel=0 note=72 velocity=100 time=0
the msg is note_off channel=0 note=72 velocity=0 time=17
the msg is note_on channel=0 note=72 velocity=100 time=0
the msg is note_off channel=0 note=72 velocity=0 time=12
the msg is note_on channel=0 note=72 velocity=100 time=0
the msg is note_off channel=0 note=72 velocity=0 time=12
the msg is note_on channel=0 note=72 velocity=100 time=0
the msg is note_off channel=0 note=76 velocity=0 time=8
the msg is note_on channel=0 note=76 velocity=100 time=0
the msg is note_off channel=0 note=79 velocity=0 time=29
the msg is note_on channel=0 note=79 velocity=100 time=0
the msg is note_off channel=0 note=79 velocity=0 time=12
the msg is note_on channel=0 note=79 velocity=100 time=0
the msg is note_off channel=0 note=76 velocity=0 time=8
the msg is note_on channel=0 note=76 velocity=100 time=0
the msg is note_off channel=0 note=74 velocity=0 time=17
the msg is note_on channel=0 note=74 velocity=100 time=0
the msg is <meta message end_of_track time=51>
the msg is <meta message track_name name='Piano' time=0>
the msg is program_change channel=0 program=0 time=0
the msg is note_off channel=0 note=72 velocity=0 time=0
the msg is pitchwheel channel=0 pitch=0 time=0
the msg is program_change channel=0 program=0 time=0
the msg is <meta message set_tempo tempo=500000 time=0>
the msg is <meta message time_signature numerator=4 denominator=4 clocks_per_click=24 notated_32nd_notes_per_beat=8 time=0>
the msg is note_on channel=0 note=72 velocity=100 time=0
the msg is note_off channel=0 note=74 velocity=0 time=34
the msg is note_on channel=0 note=74 velocity=100 time=0
the msg is note_off channel=0 note=74 velocity=0 time=17
the msg is note_on channel=0 note=74 velocity=100 time=0
the msg is note_off channel=0 note=74 velocity=0 time=34
the msg is note_on channel=0 note=74 velocity=100 time=0
the msg is note_off channel=0 note=74 velocity=0 time=17
the msg is note_on channel=0 note=74 velocity=100 time=0
the msg is note_off channel=0 note=76 velocity=0 time=34
the msg is note_on channel=0 note=76 velocity=100 time=0
the msg is note_off channel=0 note=79 velocity=0 time=17
the msg is note_on channel=0 note=79 velocity=100 time=0
the msg is note_off channel=0 note=79 velocity=0 time=17
the msg is note_on channel=0 note=79 velocity=100 time=0
the msg is note_off channel=0 note=76 velocity=0 time=17
the msg is note_on channel=0 note=76 velocity=100 time=0
the msg is note_off channel=0 note=74 velocity=0 time=4
the msg is note_on channel=0 note=74 velocity=100 time=0
the msg is note_off channel=0 note=72 velocity=0 time=12
the msg is note_on channel=0 note=72 velocity=100 time=0
the msg is note_off channel=0 note=72 velocity=0 time=89
the msg is note_on channel=0 note=72 velocity=100 time=0
the msg is note_off channel=0 note=72 velocity=0 time=12
the msg is note_on channel=0 note=72 velocity=100 time=0
the msg is note_off channel=0 note=74 velocity=0 time=25
the msg is note_on channel=0 note=74 velocity=100 time=0
the msg is note_off channel=0 note=74 velocity=0 time=25
the msg is note_on channel=0 note=74 velocity=100 time=0
the msg is note_off channel=0 note=74 velocity=0 time=12
the msg is note_on channel=0 note=74 velocity=100 time=0
the msg is note_off channel=0 note=76 velocity=0 time=25
the msg is note_on channel=0 note=76 velocity=100 time=0
the msg is note_off channel=0 note=79 velocity=0 time=25
the msg is note_on channel=0 note=79 velocity=100 time=0
the msg is note_off channel=0 note=79 velocity=0 time=12
the msg is note_on channel=0 note=79 velocity=100 time=0
the msg is note_off channel=0 note=76 velocity=0 time=12
the msg is note_on channel=0 note=76 velocity=100 time=0
the msg is note_off channel=0 note=74 velocity=0 time=12
the msg is note_on channel=0 note=74 velocity=100 time=0
the msg is note_off channel=0 note=72 velocity=0 time=12
the msg is note_on channel=0 note=72 velocity=100 time=0
the msg is note_off channel=0 note=74 velocity=0 time=25
the msg is note_on channel=0 note=74 velocity=100 time=0
the msg is note_off channel=0 note=76 velocity=0 time=25
the msg is note_on channel=0 note=76 velocity=100 time=0
the msg is note_off channel=0 note=79 velocity=0 time=25
the msg is note_on channel=0 note=79 velocity=100 time=0
the msg is note_off channel=0 note=79 velocity=0 time=12
the msg is note_on channel=0 note=79 velocity=100 time=0
the msg is note_off channel=0 note=76 velocity=0 time=12
the msg is note_on channel=0 note=76 velocity=100 time=0
the msg is note_off channel=0 note=74 velocity=0 time=12
the msg is note_on channel=0 note=74 velocity=100 time=0
the msg is note_off channel=0 note=72 velocity=0 time=12
the msg is note_on channel=0 note=72 velocity=100 time=0
the msg is note_off channel=0 note=74 velocity=0 time=25
the msg is note_on channel=0 note=74 velocity=100 time=0
the msg is note_off channel=0 note=74 velocity=0 time=12
the msg is note_on channel=0 note=74 velocity=100 time=0
the msg is note_off channel=0 note=74 velocity=0 time=12
the msg is note_on channel=0 note=74 velocity=100 time=0
the msg is note_off channel=0 note=74 velocity=0 time=25
the msg is note_on channel=0 note=74 velocity=100 time=0
the msg is note_off channel=0 note=74 velocity=0 time=25
the msg is note_on channel=0 note=74 velocity=100 time=0
the msg is note_off channel=0 note=76 velocity=0 time=25
the msg is note_on channel=0 note=76 velocity=100 time=0
the msg is note_off channel=0 note=79 velocity=0 time=25
the msg is note_on channel=0 note=79 velocity=100 time=0
the msg is note_off channel=0 note=79 velocity=0 time=12
the msg is note_on channel=0 note=79 velocity=100 time=0
the msg is note_off channel=0 note=76 velocity=0 time=12
the msg is note_on channel=0 note=76 velocity=100 time=0
the msg is note_off channel=0 note=74 velocity=0 time=12
the msg is note_on channel=0 note=74 velocity=100 time=0
the msg is note_off channel=0 note=72 velocity=0 time=12
the msg is note_on channel=0 note=72 velocity=100 time=0
the msg is note_off channel=0 note=72 velocity=0 time=81
the msg is note_on channel=0 note=72 velocity=100 time=0
the msg is note_off channel=0 note=72 velocity=0 time=8
the msg is note_on channel=0 note=72 velocity=100 time=0
the msg is note_off channel=0 note=74 velocity=0 time=25
the msg is note_on channel=0 note=74 velocity=100 time=0
the msg is note_off channel=0 note=74 velocity=0 time=25
the msg is note_on channel=0 note=74 velocity=100 time=0
the msg is note_off channel=0 note=74 velocity=0 time=25
the msg is note_on channel=0 note=74 velocity=100 time=0
the msg is note_off channel=0 note=74 velocity=0 time=25
the msg is note_on channel=0 note=74 velocity=100 time=0
the msg is note_off channel=0 note=74 velocity=0 time=25
the msg is note_on channel=0 note=74 velocity=100 time=0
the msg is note_off channel=0 note=74 velocity=0 time=25
the msg is note_on channel=0 note=74 velocity=100 time=0
the msg is note_off channel=0 note=76 velocity=0 time=25
the msg is note_on channel=0 note=76 velocity=100 time=0
the msg is note_off channel=0 note=79 velocity=0 time=25
the msg is note_on channel=0 note=79 velocity=100 time=0
the msg is note_off channel=0 note=79 velocity=0 time=12
the msg is note_on channel=0 note=79 velocity=100 time=0
the msg is note_off channel=0 note=76 velocity=0 time=12
the msg is note_on channel=0 note=76 velocity=100 time=0
the msg is note_off channel=0 note=74 velocity=0 time=17
the msg is note_on channel=0 note=74 velocity=100 time=0
the msg is note_off channel=0 note=72 velocity=0 time=8
the msg is note_on channel=0 note=72 velocity=100 time=0
the msg is note_off channel=0 note=72 velocity=0 time=25
the msg is note_on channel=0 note=72 velocity=100 time=0
the msg is note_off channel=0 note=72 velocity=0 time=25
the msg is note_on channel=0 note=72 velocity=100 time=0
the msg is note_off channel=0 note=72 velocity=0 time=12
the msg is note_on channel=0 note=72 velocity=100 time=0
the msg is note_off channel=0 note=72 velocity=0 time=29
the msg is note_on channel=0 note=72 velocity=100 time=0
the msg is note_off channel=0 note=72 velocity=0 time=8
the msg is note_on channel=0 note=72 velocity=100 time=0
the msg is note_off channel=0 note=72 velocity=0 time=25
the msg is note_on channel=0 note=72 velocity=100 time=0
the msg is note_off channel=0 note=72 velocity=0 time=12
the msg is note_on channel=0 note=72 velocity=100 time=0
the msg is note_off channel=0 note=72 velocity=0 time=12
the msg is note_on channel=0 note=72 velocity=100 time=0
the msg is note_off channel=0 note=72 velocity=0 time=12
the msg is note_on channel=0 note=72 velocity=100 time=0
the msg is note_off channel=0 note=76 velocity=0 time=12
the msg is note_on channel=0 note=76 velocity=100 time=0
the msg is note_off channel=0 note=79 velocity=0 time=25
the msg is note_on channel=0 note=79 velocity=100 time=0
the msg is note_off channel=0 note=79 velocity=0 time=12
the msg is note_on channel=0 note=79 velocity=100 time=0
the msg is note_off channel=0 note=76 velocity=0 time=12
the msg is note_on channel=0 note=76 velocity=100 time=0
the msg is note_off channel=0 note=74 velocity=0 time=12
the msg is note_on channel=0 note=74 velocity=100 time=0
the msg is note_off channel=0 note=72 velocity=0 time=12
the msg is note_on channel=0 note=72 velocity=100 time=0
the msg is note_off channel=0 note=72 velocity=0 time=76
the msg is note_on channel=0 note=72 velocity=100 time=0
the msg is note_off channel=0 note=72 velocity=0 time=12
the msg is note_on channel=0 note=72 velocity=100 time=0
the msg is note_off channel=0 note=72 velocity=0 time=12
the msg is note_on channel=0 note=72 velocity=100 time=0
the msg is note_off channel=0 note=72 velocity=0 time=8
the msg is note_on channel=0 note=72 velocity=100 time=0
the msg is note_off channel=0 note=72 velocity=0 time=17
the msg is note_on channel=0 note=72 velocity=100 time=0
the msg is note_off channel=0 note=72 velocity=0 time=12
the msg is note_on channel=0 note=72 velocity=100 time=0
the msg is note_off channel=0 note=72 velocity=0 time=12
the msg is note_on channel=0 note=72 velocity=100 time=0
the msg is note_off channel=0 note=76 velocity=0 time=8
the msg is note_on channel=0 note=76 velocity=100 time=0
the msg is note_off channel=0 note=79 velocity=0 time=29
the msg is note_on channel=0 note=79 velocity=100 time=0
the msg is note_off channel=0 note=79 velocity=0 time=12
the msg is note_on channel=0 note=79 velocity=100 time=0
the msg is note_off channel=0 note=76 velocity=0 time=8
the msg is note_on channel=0 note=76 velocity=100 time=0
the msg is note_off channel=0 note=74 velocity=0 time=17
the msg is note_on channel=0 note=74 velocity=100 time=0
the msg is <meta message end_of_track time=51>
the msg is <meta message track_name name='Piano' time=0>
the msg is program_change channel=0 program=0 time=0
the msg is note_off channel=0 note=72 velocity=0 time=0
the msg is pitchwheel channel=0 pitch=0 time=0
the msg is program_change channel=0 program=0 time=0
the msg is <meta message set_tempo tempo=500000 time=0>
the msg is <meta message time_signature numerator=4 denominator=4 clocks_per_click=24 notated_32nd_notes_per_beat=8 time=0>
the msg is note_on channel=0 note=72 velocity=100 time=0
the msg is note_off channel=0 note=74 velocity=0 time=34
the msg is note_on channel=0 note=74 velocity=100 time=0
the msg is note_off channel=0 note=74 velocity=0 time=17
the msg is note_on channel=0 note=74 velocity=100 time=0
the msg is note_off channel=0 note=74 velocity=0 time=34
the msg is note_on channel=0 note=74 velocity=100 time=0
the msg is note_off channel=0 note=74 velocity=0 time=17
the msg is note_on channel=0 note=74 velocity=100 time=0
the msg is note_off channel=0 note=76 velocity=0 time=34
the msg is note_on channel=0 note=76 velocity=100 time=0
the msg is note_off channel=0 note=79 velocity=0 time=17
the msg is note_on channel=0 note=79 velocity=100 time=0
the msg is note_off channel=0 note=79 velocity=0 time=17
the msg is note_on channel=0 note=79 velocity=100 time=0
the msg is note_off channel=0 note=76 velocity=0 time=17
the msg is note_on channel=0 note=76 velocity=100 time=0
the msg is note_off channel=0 note=74 velocity=0 time=4
the msg is note_on channel=0 note=74 velocity=100 time=0
the msg is note_off channel=0 note=72 velocity=0 time=12
the msg is note_on channel=0 note=72 velocity=100 time=0
the msg is note_off channel=0 note=72 velocity=0 time=89
the msg is note_on channel=0 note=72 velocity=100 time=0
the msg is note_off channel=0 note=72 velocity=0 time=12
the msg is note_on channel=0 note=72 velocity=100 time=0
the msg is note_off channel=0 note=74 velocity=0 time=25
the msg is note_on channel=0 note=74 velocity=100 time=0
the msg is note_off channel=0 note=74 velocity=0 time=25
the msg is note_on channel=0 note=74 velocity=100 time=0
the msg is note_off channel=0 note=74 velocity=0 time=12
the msg is note_on channel=0 note=74 velocity=100 time=0
the msg is note_off channel=0 note=76 velocity=0 time=25
the msg is note_on channel=0 note=76 velocity=100 time=0
the msg is note_off channel=0 note=79 velocity=0 time=25
the msg is note_on channel=0 note=79 velocity=100 time=0
the msg is note_off channel=0 note=79 velocity=0 time=12
the msg is note_on channel=0 note=79 velocity=100 time=0
the msg is note_off channel=0 note=76 velocity=0 time=12
the msg is note_on channel=0 note=76 velocity=100 time=0
the msg is note_off channel=0 note=74 velocity=0 time=12
the msg is note_on channel=0 note=74 velocity=100 time=0
the msg is note_off channel=0 note=72 velocity=0 time=12
the msg is note_on channel=0 note=72 velocity=100 time=0
the msg is note_off channel=0 note=74 velocity=0 time=25
the msg is note_on channel=0 note=74 velocity=100 time=0
the msg is note_off channel=0 note=76 velocity=0 time=25
the msg is note_on channel=0 note=76 velocity=100 time=0
the msg is note_off channel=0 note=79 velocity=0 time=25
the msg is note_on channel=0 note=79 velocity=100 time=0
the msg is note_off channel=0 note=79 velocity=0 time=12
the msg is note_on channel=0 note=79 velocity=100 time=0
the msg is note_off channel=0 note=76 velocity=0 time=12
the msg is note_on channel=0 note=76 velocity=100 time=0
the msg is note_off channel=0 note=74 velocity=0 time=12
the msg is note_on channel=0 note=74 velocity=100 time=0
the msg is note_off channel=0 note=72 velocity=0 time=12
the msg is note_on channel=0 note=72 velocity=100 time=0
the msg is note_off channel=0 note=74 velocity=0 time=25
the msg is note_on channel=0 note=74 velocity=100 time=0
the msg is note_off channel=0 note=74 velocity=0 time=12
the msg is note_on channel=0 note=74 velocity=100 time=0
the msg is note_off channel=0 note=74 velocity=0 time=12
the msg is note_on channel=0 note=74 velocity=100 time=0
the msg is note_off channel=0 note=74 velocity=0 time=25
the msg is note_on channel=0 note=74 velocity=100 time=0
the msg is note_off channel=0 note=74 velocity=0 time=25
the msg is note_on channel=0 note=74 velocity=100 time=0
the msg is note_off channel=0 note=76 velocity=0 time=25
the msg is note_on channel=0 note=76 velocity=100 time=0
the msg is note_off channel=0 note=79 velocity=0 time=25
the msg is note_on channel=0 note=79 velocity=100 time=0
the msg is note_off channel=0 note=79 velocity=0 time=12
the msg is note_on channel=0 note=79 velocity=100 time=0
the msg is note_off channel=0 note=76 velocity=0 time=12
the msg is note_on channel=0 note=76 velocity=100 time=0
the msg is note_off channel=0 note=74 velocity=0 time=12
the msg is note_on channel=0 note=74 velocity=100 time=0
the msg is note_off channel=0 note=72 velocity=0 time=12
the msg is note_on channel=0 note=72 velocity=100 time=0
the msg is note_off channel=0 note=72 velocity=0 time=81
the msg is note_on channel=0 note=72 velocity=100 time=0
the msg is note_off channel=0 note=72 velocity=0 time=8
the msg is note_on channel=0 note=72 velocity=100 time=0
the msg is note_off channel=0 note=74 velocity=0 time=25
the msg is note_on channel=0 note=74 velocity=100 time=0
the msg is note_off channel=0 note=74 velocity=0 time=25
the msg is note_on channel=0 note=74 velocity=100 time=0
the msg is note_off channel=0 note=74 velocity=0 time=25
the msg is note_on channel=0 note=74 velocity=100 time=0
the msg is note_off channel=0 note=74 velocity=0 time=25
the msg is note_on channel=0 note=74 velocity=100 time=0
the msg is note_off channel=0 note=74 velocity=0 time=25
the msg is note_on channel=0 note=74 velocity=100 time=0
the msg is note_off channel=0 note=74 velocity=0 time=25
the msg is note_on channel=0 note=74 velocity=100 time=0
the msg is note_off channel=0 note=76 velocity=0 time=25
the msg is note_on channel=0 note=76 velocity=100 time=0
the msg is note_off channel=0 note=79 velocity=0 time=25
the msg is note_on channel=0 note=79 velocity=100 time=0
the msg is note_off channel=0 note=79 velocity=0 time=12
the msg is note_on channel=0 note=79 velocity=100 time=0
the msg is note_off channel=0 note=76 velocity=0 time=12
the msg is note_on channel=0 note=76 velocity=100 time=0
the msg is note_off channel=0 note=74 velocity=0 time=17
the msg is note_on channel=0 note=74 velocity=100 time=0
the msg is note_off channel=0 note=72 velocity=0 time=8
the msg is note_on channel=0 note=72 velocity=100 time=0
the msg is note_off channel=0 note=72 velocity=0 time=25
the msg is note_on channel=0 note=72 velocity=100 time=0
the msg is note_off channel=0 note=72 velocity=0 time=25
the msg is note_on channel=0 note=72 velocity=100 time=0
the msg is note_off channel=0 note=72 velocity=0 time=12
the msg is note_on channel=0 note=72 velocity=100 time=0
the msg is note_off channel=0 note=72 velocity=0 time=29
the msg is note_on channel=0 note=72 velocity=100 time=0
the msg is note_off channel=0 note=72 velocity=0 time=8
the msg is note_on channel=0 note=72 velocity=100 time=0
the msg is note_off channel=0 note=72 velocity=0 time=25
the msg is note_on channel=0 note=72 velocity=100 time=0
the msg is note_off channel=0 note=72 velocity=0 time=12
the msg is note_on channel=0 note=72 velocity=100 time=0
the msg is note_off channel=0 note=72 velocity=0 time=12
the msg is note_on channel=0 note=72 velocity=100 time=0
the msg is note_off channel=0 note=72 velocity=0 time=12
the msg is note_on channel=0 note=72 velocity=100 time=0
the msg is note_off channel=0 note=76 velocity=0 time=12
the msg is note_on channel=0 note=76 velocity=100 time=0
the msg is note_off channel=0 note=79 velocity=0 time=25
the msg is note_on channel=0 note=79 velocity=100 time=0
the msg is note_off channel=0 note=79 velocity=0 time=12
the msg is note_on channel=0 note=79 velocity=100 time=0
the msg is note_off channel=0 note=76 velocity=0 time=12
the msg is note_on channel=0 note=76 velocity=100 time=0
the msg is note_off channel=0 note=74 velocity=0 time=12
the msg is note_on channel=0 note=74 velocity=100 time=0
the msg is note_off channel=0 note=72 velocity=0 time=12
the msg is note_on channel=0 note=72 velocity=100 time=0
the msg is note_off channel=0 note=72 velocity=0 time=76
the msg is note_on channel=0 note=72 velocity=100 time=0
the msg is note_off channel=0 note=72 velocity=0 time=12
the msg is note_on channel=0 note=72 velocity=100 time=0
the msg is note_off channel=0 note=72 velocity=0 time=12
the msg is note_on channel=0 note=72 velocity=100 time=0
the msg is note_off channel=0 note=72 velocity=0 time=8
the msg is note_on channel=0 note=72 velocity=100 time=0
the msg is note_off channel=0 note=72 velocity=0 time=17
the msg is note_on channel=0 note=72 velocity=100 time=0
the msg is note_off channel=0 note=72 velocity=0 time=12
the msg is note_on channel=0 note=72 velocity=100 time=0
the msg is note_off channel=0 note=72 velocity=0 time=12
the msg is note_on channel=0 note=72 velocity=100 time=0
the msg is note_off channel=0 note=76 velocity=0 time=8
the msg is note_on channel=0 note=76 velocity=100 time=0
the msg is note_off channel=0 note=79 velocity=0 time=29
the msg is note_on channel=0 note=79 velocity=100 time=0
the msg is note_off channel=0 note=79 velocity=0 time=12
the msg is note_on channel=0 note=79 velocity=100 time=0
the msg is note_off channel=0 note=76 velocity=0 time=8
the msg is note_on channel=0 note=76 velocity=100 time=0
the msg is note_off channel=0 note=74 velocity=0 time=17
the msg is note_on channel=0 note=74 velocity=100 time=0
the msg is <meta message end_of_track time=51>
the msg is <meta message track_name name='Piano' time=0>
the msg is program_change channel=0 program=0 time=0
the msg is note_off channel=0 note=72 velocity=0 time=0
the msg is pitchwheel channel=0 pitch=0 time=0
the msg is program_change channel=0 program=0 time=0
the msg is <meta message set_tempo tempo=500000 time=0>
the msg is <meta message time_signature numerator=4 denominator=4 clocks_per_click=24 notated_32nd_notes_per_beat=8 time=0>
the msg is note_on channel=0 note=72 velocity=100 time=0
the msg is note_off channel=0 note=74 velocity=0 time=34
the msg is note_on channel=0 note=74 velocity=100 time=0
the msg is note_off channel=0 note=74 velocity=0 time=17
the msg is note_on channel=0 note=74 velocity=100 time=0
the msg is note_off channel=0 note=74 velocity=0 time=34
the msg is note_on channel=0 note=74 velocity=100 time=0
the msg is note_off channel=0 note=74 velocity=0 time=17
the msg is note_on channel=0 note=74 velocity=100 time=0
the msg is note_off channel=0 note=76 velocity=0 time=34
the msg is note_on channel=0 note=76 velocity=100 time=0
the msg is note_off channel=0 note=79 velocity=0 time=17
the msg is note_on channel=0 note=79 velocity=100 time=0
the msg is note_off channel=0 note=79 velocity=0 time=17
the msg is note_on channel=0 note=79 velocity=100 time=0
the msg is note_off channel=0 note=76 velocity=0 time=17
the msg is note_on channel=0 note=76 velocity=100 time=0
the msg is note_off channel=0 note=74 velocity=0 time=4
the msg is note_on channel=0 note=74 velocity=100 time=0
the msg is note_off channel=0 note=72 velocity=0 time=12
the msg is note_on channel=0 note=72 velocity=100 time=0
the msg is note_off channel=0 note=72 velocity=0 time=89
the msg is note_on channel=0 note=72 velocity=100 time=0
the msg is note_off channel=0 note=72 velocity=0 time=12
the msg is note_on channel=0 note=72 velocity=100 time=0
the msg is note_off channel=0 note=74 velocity=0 time=25
the msg is note_on channel=0 note=74 velocity=100 time=0
the msg is note_off channel=0 note=74 velocity=0 time=25
the msg is note_on channel=0 note=74 velocity=100 time=0
the msg is note_off channel=0 note=74 velocity=0 time=12
the msg is note_on channel=0 note=74 velocity=100 time=0
the msg is note_off channel=0 note=76 velocity=0 time=25
the msg is note_on channel=0 note=76 velocity=100 time=0
the msg is note_off channel=0 note=79 velocity=0 time=25
the msg is note_on channel=0 note=79 velocity=100 time=0
the msg is note_off channel=0 note=79 velocity=0 time=12
the msg is note_on channel=0 note=79 velocity=100 time=0
the msg is note_off channel=0 note=76 velocity=0 time=12
the msg is note_on channel=0 note=76 velocity=100 time=0
the msg is note_off channel=0 note=74 velocity=0 time=12
the msg is note_on channel=0 note=74 velocity=100 time=0
the msg is note_off channel=0 note=72 velocity=0 time=12
the msg is note_on channel=0 note=72 velocity=100 time=0
the msg is note_off channel=0 note=74 velocity=0 time=25
the msg is note_on channel=0 note=74 velocity=100 time=0
the msg is note_off channel=0 note=76 velocity=0 time=25
the msg is note_on channel=0 note=76 velocity=100 time=0
the msg is note_off channel=0 note=79 velocity=0 time=25
the msg is note_on channel=0 note=79 velocity=100 time=0
the msg is note_off channel=0 note=79 velocity=0 time=12
the msg is note_on channel=0 note=79 velocity=100 time=0
the msg is note_off channel=0 note=76 velocity=0 time=12
the msg is note_on channel=0 note=76 velocity=100 time=0
the msg is note_off channel=0 note=74 velocity=0 time=12
the msg is note_on channel=0 note=74 velocity=100 time=0
the msg is note_off channel=0 note=72 velocity=0 time=12
the msg is note_on channel=0 note=72 velocity=100 time=0
the msg is note_off channel=0 note=74 velocity=0 time=25
the msg is note_on channel=0 note=74 velocity=100 time=0
the msg is note_off channel=0 note=74 velocity=0 time=12
the msg is note_on channel=0 note=74 velocity=100 time=0
the msg is note_off channel=0 note=74 velocity=0 time=12
the msg is note_on channel=0 note=74 velocity=100 time=0
the msg is note_off channel=0 note=74 velocity=0 time=25
the msg is note_on channel=0 note=74 velocity=100 time=0
the msg is note_off channel=0 note=74 velocity=0 time=25
the msg is note_on channel=0 note=74 velocity=100 time=0
the msg is note_off channel=0 note=76 velocity=0 time=25
the msg is note_on channel=0 note=76 velocity=100 time=0
the msg is note_off channel=0 note=79 velocity=0 time=25
the msg is note_on channel=0 note=79 velocity=100 time=0
the msg is note_off channel=0 note=79 velocity=0 time=12
the msg is note_on channel=0 note=79 velocity=100 time=0
the msg is note_off channel=0 note=76 velocity=0 time=12
the msg is note_on channel=0 note=76 velocity=100 time=0
the msg is note_off channel=0 note=74 velocity=0 time=12
the msg is note_on channel=0 note=74 velocity=100 time=0
the msg is note_off channel=0 note=72 velocity=0 time=12
the msg is note_on channel=0 note=72 velocity=100 time=0
the msg is note_off channel=0 note=72 velocity=0 time=81
the msg is note_on channel=0 note=72 velocity=100 time=0
the msg is note_off channel=0 note=72 velocity=0 time=8
the msg is note_on channel=0 note=72 velocity=100 time=0
the msg is note_off channel=0 note=74 velocity=0 time=25
the msg is note_on channel=0 note=74 velocity=100 time=0
the msg is note_off channel=0 note=74 velocity=0 time=25
the msg is note_on channel=0 note=74 velocity=100 time=0
the msg is note_off channel=0 note=74 velocity=0 time=25
the msg is note_on channel=0 note=74 velocity=100 time=0
the msg is note_off channel=0 note=74 velocity=0 time=25
the msg is note_on channel=0 note=74 velocity=100 time=0
the msg is note_off channel=0 note=74 velocity=0 time=25
the msg is note_on channel=0 note=74 velocity=100 time=0
the msg is note_off channel=0 note=74 velocity=0 time=25
the msg is note_on channel=0 note=74 velocity=100 time=0
the msg is note_off channel=0 note=76 velocity=0 time=25
the msg is note_on channel=0 note=76 velocity=100 time=0
the msg is note_off channel=0 note=79 velocity=0 time=25
the msg is note_on channel=0 note=79 velocity=100 time=0
the msg is note_off channel=0 note=79 velocity=0 time=12
the msg is note_on channel=0 note=79 velocity=100 time=0
the msg is note_off channel=0 note=76 velocity=0 time=12
the msg is note_on channel=0 note=76 velocity=100 time=0
the msg is note_off channel=0 note=74 velocity=0 time=17
the msg is note_on channel=0 note=74 velocity=100 time=0
the msg is note_off channel=0 note=72 velocity=0 time=8
the msg is note_on channel=0 note=72 velocity=100 time=0
the msg is note_off channel=0 note=72 velocity=0 time=25
the msg is note_on channel=0 note=72 velocity=100 time=0
the msg is note_off channel=0 note=72 velocity=0 time=25
the msg is note_on channel=0 note=72 velocity=100 time=0
the msg is note_off channel=0 note=72 velocity=0 time=12
the msg is note_on channel=0 note=72 velocity=100 time=0
the msg is note_off channel=0 note=72 velocity=0 time=29
the msg is note_on channel=0 note=72 velocity=100 time=0
the msg is note_off channel=0 note=72 velocity=0 time=8
the msg is note_on channel=0 note=72 velocity=100 time=0
the msg is note_off channel=0 note=72 velocity=0 time=25
the msg is note_on channel=0 note=72 velocity=100 time=0
the msg is note_off channel=0 note=72 velocity=0 time=12
the msg is note_on channel=0 note=72 velocity=100 time=0
the msg is note_off channel=0 note=72 velocity=0 time=12
the msg is note_on channel=0 note=72 velocity=100 time=0
the msg is note_off channel=0 note=72 velocity=0 time=12
the msg is note_on channel=0 note=72 velocity=100 time=0
the msg is note_off channel=0 note=76 velocity=0 time=12
the msg is note_on channel=0 note=76 velocity=100 time=0
the msg is note_off channel=0 note=79 velocity=0 time=25
the msg is note_on channel=0 note=79 velocity=100 time=0
the msg is note_off channel=0 note=79 velocity=0 time=12
the msg is note_on channel=0 note=79 velocity=100 time=0
the msg is note_off channel=0 note=76 velocity=0 time=12
the msg is note_on channel=0 note=76 velocity=100 time=0
the msg is note_off channel=0 note=74 velocity=0 time=12
the msg is note_on channel=0 note=74 velocity=100 time=0
the msg is note_off channel=0 note=72 velocity=0 time=12
the msg is note_on channel=0 note=72 velocity=100 time=0
the msg is note_off channel=0 note=72 velocity=0 time=76
the msg is note_on channel=0 note=72 velocity=100 time=0
the msg is note_off channel=0 note=72 velocity=0 time=12
the msg is note_on channel=0 note=72 velocity=100 time=0
the msg is note_off channel=0 note=72 velocity=0 time=12
the msg is note_on channel=0 note=72 velocity=100 time=0
the msg is note_off channel=0 note=72 velocity=0 time=8
the msg is note_on channel=0 note=72 velocity=100 time=0
the msg is note_off channel=0 note=72 velocity=0 time=17
the msg is note_on channel=0 note=72 velocity=100 time=0
the msg is note_off channel=0 note=72 velocity=0 time=12
the msg is note_on channel=0 note=72 velocity=100 time=0
the msg is note_off channel=0 note=72 velocity=0 time=12
the msg is note_on channel=0 note=72 velocity=100 time=0
the msg is note_off channel=0 note=76 velocity=0 time=8
the msg is note_on channel=0 note=76 velocity=100 time=0
the msg is note_off channel=0 note=79 velocity=0 time=29
the msg is note_on channel=0 note=79 velocity=100 time=0
the msg is note_off channel=0 note=79 velocity=0 time=12
the msg is note_on channel=0 note=79 velocity=100 time=0
the msg is note_off channel=0 note=76 velocity=0 time=8
the msg is note_on channel=0 note=76 velocity=100 time=0
the msg is note_off channel=0 note=74 velocity=0 time=17
the msg is note_on channel=0 note=74 velocity=100 time=0
the msg is <meta message end_of_track time=51>
the msg is <meta message track_name name='Piano' time=0>
the msg is program_change channel=0 program=0 time=0
the msg is note_off channel=0 note=72 velocity=0 time=0
the msg is pitchwheel channel=0 pitch=0 time=0
the msg is program_change channel=0 program=0 time=0
the msg is <meta message set_tempo tempo=500000 time=0>
the msg is <meta message time_signature numerator=4 denominator=4 clocks_per_click=24 notated_32nd_notes_per_beat=8 time=0>
the msg is note_on channel=0 note=72 velocity=100 time=0
the msg is note_off channel=0 note=74 velocity=0 time=34
the msg is note_on channel=0 note=74 velocity=100 time=0
the msg is note_off channel=0 note=74 velocity=0 time=17
the msg is note_on channel=0 note=74 velocity=100 time=0
the msg is note_off channel=0 note=74 velocity=0 time=34
the msg is note_on channel=0 note=74 velocity=100 time=0
the msg is note_off channel=0 note=74 velocity=0 time=17
the msg is note_on channel=0 note=74 velocity=100 time=0
the msg is note_off channel=0 note=76 velocity=0 time=34
the msg is note_on channel=0 note=76 velocity=100 time=0
the msg is note_off channel=0 note=79 velocity=0 time=17
the msg is note_on channel=0 note=79 velocity=100 time=0
the msg is note_off channel=0 note=79 velocity=0 time=17
the msg is note_on channel=0 note=79 velocity=100 time=0
the msg is note_off channel=0 note=76 velocity=0 time=17
the msg is note_on channel=0 note=76 velocity=100 time=0
the msg is note_off channel=0 note=74 velocity=0 time=4
the msg is note_on channel=0 note=74 velocity=100 time=0
the msg is note_off channel=0 note=72 velocity=0 time=12
the msg is note_on channel=0 note=72 velocity=100 time=0
the msg is note_off channel=0 note=72 velocity=0 time=89
the msg is note_on channel=0 note=72 velocity=100 time=0
the msg is note_off channel=0 note=72 velocity=0 time=12
the msg is note_on channel=0 note=72 velocity=100 time=0
the msg is note_off channel=0 note=74 velocity=0 time=25
the msg is note_on channel=0 note=74 velocity=100 time=0
the msg is note_off channel=0 note=74 velocity=0 time=25
the msg is note_on channel=0 note=74 velocity=100 time=0
the msg is note_off channel=0 note=74 velocity=0 time=12
the msg is note_on channel=0 note=74 velocity=100 time=0
the msg is note_off channel=0 note=76 velocity=0 time=25
the msg is note_on channel=0 note=76 velocity=100 time=0
the msg is note_off channel=0 note=79 velocity=0 time=25
the msg is note_on channel=0 note=79 velocity=100 time=0
the msg is note_off channel=0 note=79 velocity=0 time=12
the msg is note_on channel=0 note=79 velocity=100 time=0
the msg is note_off channel=0 note=76 velocity=0 time=12
the msg is note_on channel=0 note=76 velocity=100 time=0
the msg is note_off channel=0 note=74 velocity=0 time=12
the msg is note_on channel=0 note=74 velocity=100 time=0
the msg is note_off channel=0 note=72 velocity=0 time=12
the msg is note_on channel=0 note=72 velocity=100 time=0
the msg is note_off channel=0 note=74 velocity=0 time=25
the msg is note_on channel=0 note=74 velocity=100 time=0
the msg is note_off channel=0 note=76 velocity=0 time=25
the msg is note_on channel=0 note=76 velocity=100 time=0
the msg is note_off channel=0 note=79 velocity=0 time=25
the msg is note_on channel=0 note=79 velocity=100 time=0
the msg is note_off channel=0 note=79 velocity=0 time=12
the msg is note_on channel=0 note=79 velocity=100 time=0
the msg is note_off channel=0 note=76 velocity=0 time=12
the msg is note_on channel=0 note=76 velocity=100 time=0
the msg is note_off channel=0 note=74 velocity=0 time=12
the msg is note_on channel=0 note=74 velocity=100 time=0
the msg is note_off channel=0 note=72 velocity=0 time=12
the msg is note_on channel=0 note=72 velocity=100 time=0
the msg is note_off channel=0 note=74 velocity=0 time=25
the msg is note_on channel=0 note=74 velocity=100 time=0
the msg is note_off channel=0 note=74 velocity=0 time=12
the msg is note_on channel=0 note=74 velocity=100 time=0
the msg is note_off channel=0 note=74 velocity=0 time=12
the msg is note_on channel=0 note=74 velocity=100 time=0
the msg is note_off channel=0 note=74 velocity=0 time=25
the msg is note_on channel=0 note=74 velocity=100 time=0
the msg is note_off channel=0 note=74 velocity=0 time=25
the msg is note_on channel=0 note=74 velocity=100 time=0
the msg is note_off channel=0 note=76 velocity=0 time=25
the msg is note_on channel=0 note=76 velocity=100 time=0
the msg is note_off channel=0 note=79 velocity=0 time=25
the msg is note_on channel=0 note=79 velocity=100 time=0
the msg is note_off channel=0 note=79 velocity=0 time=12
the msg is note_on channel=0 note=79 velocity=100 time=0
the msg is note_off channel=0 note=76 velocity=0 time=12
the msg is note_on channel=0 note=76 velocity=100 time=0
the msg is note_off channel=0 note=74 velocity=0 time=12
the msg is note_on channel=0 note=74 velocity=100 time=0
the msg is note_off channel=0 note=72 velocity=0 time=12
the msg is note_on channel=0 note=72 velocity=100 time=0
the msg is note_off channel=0 note=72 velocity=0 time=81
the msg is note_on channel=0 note=72 velocity=100 time=0
the msg is note_off channel=0 note=72 velocity=0 time=8
the msg is note_on channel=0 note=72 velocity=100 time=0
the msg is note_off channel=0 note=74 velocity=0 time=25
the msg is note_on channel=0 note=74 velocity=100 time=0
the msg is note_off channel=0 note=74 velocity=0 time=25
the msg is note_on channel=0 note=74 velocity=100 time=0
the msg is note_off channel=0 note=74 velocity=0 time=25
the msg is note_on channel=0 note=74 velocity=100 time=0
the msg is note_off channel=0 note=74 velocity=0 time=25
the msg is note_on channel=0 note=74 velocity=100 time=0
the msg is note_off channel=0 note=74 velocity=0 time=25
the msg is note_on channel=0 note=74 velocity=100 time=0
the msg is note_off channel=0 note=74 velocity=0 time=25
the msg is note_on channel=0 note=74 velocity=100 time=0
the msg is note_off channel=0 note=76 velocity=0 time=25
the msg is note_on channel=0 note=76 velocity=100 time=0
the msg is note_off channel=0 note=79 velocity=0 time=25
the msg is note_on channel=0 note=79 velocity=100 time=0
the msg is note_off channel=0 note=79 velocity=0 time=12
the msg is note_on channel=0 note=79 velocity=100 time=0
the msg is note_off channel=0 note=76 velocity=0 time=12
the msg is note_on channel=0 note=76 velocity=100 time=0
the msg is note_off channel=0 note=74 velocity=0 time=17
the msg is note_on channel=0 note=74 velocity=100 time=0
the msg is note_off channel=0 note=72 velocity=0 time=8
the msg is note_on channel=0 note=72 velocity=100 time=0
the msg is note_off channel=0 note=72 velocity=0 time=25
the msg is note_on channel=0 note=72 velocity=100 time=0
the msg is note_off channel=0 note=72 velocity=0 time=25
the msg is note_on channel=0 note=72 velocity=100 time=0
the msg is note_off channel=0 note=72 velocity=0 time=12
the msg is note_on channel=0 note=72 velocity=100 time=0
the msg is note_off channel=0 note=72 velocity=0 time=29
the msg is note_on channel=0 note=72 velocity=100 time=0
the msg is note_off channel=0 note=72 velocity=0 time=8
the msg is note_on channel=0 note=72 velocity=100 time=0
the msg is note_off channel=0 note=72 velocity=0 time=25
the msg is note_on channel=0 note=72 velocity=100 time=0
the msg is note_off channel=0 note=72 velocity=0 time=12
the msg is note_on channel=0 note=72 velocity=100 time=0
the msg is note_off channel=0 note=72 velocity=0 time=12
the msg is note_on channel=0 note=72 velocity=100 time=0
the msg is note_off channel=0 note=72 velocity=0 time=12
the msg is note_on channel=0 note=72 velocity=100 time=0
the msg is note_off channel=0 note=76 velocity=0 time=12
the msg is note_on channel=0 note=76 velocity=100 time=0
the msg is note_off channel=0 note=79 velocity=0 time=25
the msg is note_on channel=0 note=79 velocity=100 time=0
the msg is note_off channel=0 note=79 velocity=0 time=12
the msg is note_on channel=0 note=79 velocity=100 time=0
the msg is note_off channel=0 note=76 velocity=0 time=12
the msg is note_on channel=0 note=76 velocity=100 time=0
the msg is note_off channel=0 note=74 velocity=0 time=12
the msg is note_on channel=0 note=74 velocity=100 time=0
the msg is note_off channel=0 note=72 velocity=0 time=12
the msg is note_on channel=0 note=72 velocity=100 time=0
the msg is note_off channel=0 note=72 velocity=0 time=76
the msg is note_on channel=0 note=72 velocity=100 time=0
the msg is note_off channel=0 note=72 velocity=0 time=12
the msg is note_on channel=0 note=72 velocity=100 time=0
the msg is note_off channel=0 note=72 velocity=0 time=12
the msg is note_on channel=0 note=72 velocity=100 time=0
the msg is note_off channel=0 note=72 velocity=0 time=8
the msg is note_on channel=0 note=72 velocity=100 time=0
the msg is note_off channel=0 note=72 velocity=0 time=17
the msg is note_on channel=0 note=72 velocity=100 time=0
the msg is note_off channel=0 note=72 velocity=0 time=12
the msg is note_on channel=0 note=72 velocity=100 time=0
the msg is note_off channel=0 note=72 velocity=0 time=12
the msg is note_on channel=0 note=72 velocity=100 time=0
the msg is note_off channel=0 note=76 velocity=0 time=8
the msg is note_on channel=0 note=76 velocity=100 time=0
the msg is note_off channel=0 note=79 velocity=0 time=29
the msg is note_on channel=0 note=79 velocity=100 time=0
the msg is note_off channel=0 note=79 velocity=0 time=12
the msg is note_on channel=0 note=79 velocity=100 time=0
the msg is note_off channel=0 note=76 velocity=0 time=8
the msg is note_on channel=0 note=76 velocity=100 time=0
the msg is note_off channel=0 note=74 velocity=0 time=17
the msg is note_on channel=0 note=74 velocity=100 time=0
the msg is <meta message end_of_track time=51>
the msg is <meta message track_name name='Piano' time=0>
the msg is program_change channel=0 program=0 time=0
the msg is note_off channel=0 note=72 velocity=0 time=0
the msg is pitchwheel channel=0 pitch=0 time=0
the msg is program_change channel=0 program=0 time=0
the msg is <meta message set_tempo tempo=500000 time=0>
the msg is <meta message time_signature numerator=4 denominator=4 clocks_per_click=24 notated_32nd_notes_per_beat=8 time=0>
the msg is note_on channel=0 note=72 velocity=100 time=0
the msg is note_off channel=0 note=74 velocity=0 time=34
the msg is note_on channel=0 note=74 velocity=100 time=0
the msg is note_off channel=0 note=74 velocity=0 time=17
the msg is note_on channel=0 note=74 velocity=100 time=0
the msg is note_off channel=0 note=74 velocity=0 time=34
the msg is note_on channel=0 note=74 velocity=100 time=0
the msg is note_off channel=0 note=74 velocity=0 time=17
the msg is note_on channel=0 note=74 velocity=100 time=0
the msg is note_off channel=0 note=76 velocity=0 time=34
the msg is note_on channel=0 note=76 velocity=100 time=0
the msg is note_off channel=0 note=79 velocity=0 time=17
the msg is note_on channel=0 note=79 velocity=100 time=0
the msg is note_off channel=0 note=79 velocity=0 time=17
the msg is note_on channel=0 note=79 velocity=100 time=0
the msg is note_off channel=0 note=76 velocity=0 time=17
the msg is note_on channel=0 note=76 velocity=100 time=0
the msg is note_off channel=0 note=74 velocity=0 time=4
the msg is note_on channel=0 note=74 velocity=100 time=0
the msg is note_off channel=0 note=72 velocity=0 time=12
the msg is note_on channel=0 note=72 velocity=100 time=0
the msg is note_off channel=0 note=72 velocity=0 time=89
the msg is note_on channel=0 note=72 velocity=100 time=0
the msg is note_off channel=0 note=72 velocity=0 time=12
the msg is note_on channel=0 note=72 velocity=100 time=0
the msg is note_off channel=0 note=74 velocity=0 time=25
the msg is note_on channel=0 note=74 velocity=100 time=0
the msg is note_off channel=0 note=74 velocity=0 time=25
the msg is note_on channel=0 note=74 velocity=100 time=0
the msg is note_off channel=0 note=74 velocity=0 time=12
the msg is note_on channel=0 note=74 velocity=100 time=0
the msg is note_off channel=0 note=76 velocity=0 time=25
the msg is note_on channel=0 note=76 velocity=100 time=0
the msg is note_off channel=0 note=79 velocity=0 time=25
the msg is note_on channel=0 note=79 velocity=100 time=0
the msg is note_off channel=0 note=79 velocity=0 time=12
the msg is note_on channel=0 note=79 velocity=100 time=0
the msg is note_off channel=0 note=76 velocity=0 time=12
the msg is note_on channel=0 note=76 velocity=100 time=0
the msg is note_off channel=0 note=74 velocity=0 time=12
the msg is note_on channel=0 note=74 velocity=100 time=0
the msg is note_off channel=0 note=72 velocity=0 time=12
the msg is note_on channel=0 note=72 velocity=100 time=0
the msg is note_off channel=0 note=74 velocity=0 time=25
the msg is note_on channel=0 note=74 velocity=100 time=0
the msg is note_off channel=0 note=76 velocity=0 time=25
the msg is note_on channel=0 note=76 velocity=100 time=0
the msg is note_off channel=0 note=79 velocity=0 time=25
the msg is note_on channel=0 note=79 velocity=100 time=0
the msg is note_off channel=0 note=79 velocity=0 time=12
the msg is note_on channel=0 note=79 velocity=100 time=0
the msg is note_off channel=0 note=76 velocity=0 time=12
the msg is note_on channel=0 note=76 velocity=100 time=0
the msg is note_off channel=0 note=74 velocity=0 time=12
the msg is note_on channel=0 note=74 velocity=100 time=0
the msg is note_off channel=0 note=72 velocity=0 time=12
the msg is note_on channel=0 note=72 velocity=100 time=0
the msg is note_off channel=0 note=74 velocity=0 time=25
the msg is note_on channel=0 note=74 velocity=100 time=0
the msg is note_off channel=0 note=74 velocity=0 time=12
the msg is note_on channel=0 note=74 velocity=100 time=0
the msg is note_off channel=0 note=74 velocity=0 time=12
the msg is note_on channel=0 note=74 velocity=100 time=0
the msg is note_off channel=0 note=74 velocity=0 time=25
the msg is note_on channel=0 note=74 velocity=100 time=0
the msg is note_off channel=0 note=74 velocity=0 time=25
the msg is note_on channel=0 note=74 velocity=100 time=0
the msg is note_off channel=0 note=76 velocity=0 time=25
the msg is note_on channel=0 note=76 velocity=100 time=0
the msg is note_off channel=0 note=79 velocity=0 time=25
the msg is note_on channel=0 note=79 velocity=100 time=0
the msg is note_off channel=0 note=79 velocity=0 time=12
the msg is note_on channel=0 note=79 velocity=100 time=0
the msg is note_off channel=0 note=76 velocity=0 time=12
the msg is note_on channel=0 note=76 velocity=100 time=0
the msg is note_off channel=0 note=74 velocity=0 time=12
the msg is note_on channel=0 note=74 velocity=100 time=0
the msg is note_off channel=0 note=72 velocity=0 time=12
the msg is note_on channel=0 note=72 velocity=100 time=0
the msg is note_off channel=0 note=72 velocity=0 time=81
the msg is note_on channel=0 note=72 velocity=100 time=0
the msg is note_off channel=0 note=72 velocity=0 time=8
the msg is note_on channel=0 note=72 velocity=100 time=0
the msg is note_off channel=0 note=74 velocity=0 time=25
the msg is note_on channel=0 note=74 velocity=100 time=0
the msg is note_off channel=0 note=74 velocity=0 time=25
the msg is note_on channel=0 note=74 velocity=100 time=0
the msg is note_off channel=0 note=74 velocity=0 time=25
the msg is note_on channel=0 note=74 velocity=100 time=0
the msg is note_off channel=0 note=74 velocity=0 time=25
the msg is note_on channel=0 note=74 velocity=100 time=0
the msg is note_off channel=0 note=74 velocity=0 time=25
the msg is note_on channel=0 note=74 velocity=100 time=0
the msg is note_off channel=0 note=74 velocity=0 time=25
the msg is note_on channel=0 note=74 velocity=100 time=0
the msg is note_off channel=0 note=76 velocity=0 time=25
the msg is note_on channel=0 note=76 velocity=100 time=0
the msg is note_off channel=0 note=79 velocity=0 time=25
the msg is note_on channel=0 note=79 velocity=100 time=0
the msg is note_off channel=0 note=79 velocity=0 time=12
the msg is note_on channel=0 note=79 velocity=100 time=0
the msg is note_off channel=0 note=76 velocity=0 time=12
the msg is note_on channel=0 note=76 velocity=100 time=0
the msg is note_off channel=0 note=74 velocity=0 time=17
the msg is note_on channel=0 note=74 velocity=100 time=0
the msg is note_off channel=0 note=72 velocity=0 time=8
the msg is note_on channel=0 note=72 velocity=100 time=0
the msg is note_off channel=0 note=72 velocity=0 time=25
the msg is note_on channel=0 note=72 velocity=100 time=0
the msg is note_off channel=0 note=72 velocity=0 time=25
the msg is note_on channel=0 note=72 velocity=100 time=0
the msg is note_off channel=0 note=72 velocity=0 time=12
the msg is note_on channel=0 note=72 velocity=100 time=0
the msg is note_off channel=0 note=72 velocity=0 time=29
the msg is note_on channel=0 note=72 velocity=100 time=0
the msg is note_off channel=0 note=72 velocity=0 time=8
the msg is note_on channel=0 note=72 velocity=100 time=0
the msg is note_off channel=0 note=72 velocity=0 time=25
the msg is note_on channel=0 note=72 velocity=100 time=0
the msg is note_off channel=0 note=72 velocity=0 time=12
the msg is note_on channel=0 note=72 velocity=100 time=0
the msg is note_off channel=0 note=72 velocity=0 time=12
the msg is note_on channel=0 note=72 velocity=100 time=0
the msg is note_off channel=0 note=72 velocity=0 time=12
the msg is note_on channel=0 note=72 velocity=100 time=0
the msg is note_off channel=0 note=76 velocity=0 time=12
the msg is note_on channel=0 note=76 velocity=100 time=0
the msg is note_off channel=0 note=79 velocity=0 time=25
the msg is note_on channel=0 note=79 velocity=100 time=0
the msg is note_off channel=0 note=79 velocity=0 time=12
the msg is note_on channel=0 note=79 velocity=100 time=0
the msg is note_off channel=0 note=76 velocity=0 time=12
the msg is note_on channel=0 note=76 velocity=100 time=0
the msg is note_off channel=0 note=74 velocity=0 time=12
the msg is note_on channel=0 note=74 velocity=100 time=0
the msg is note_off channel=0 note=72 velocity=0 time=12
the msg is note_on channel=0 note=72 velocity=100 time=0
the msg is note_off channel=0 note=72 velocity=0 time=76
the msg is note_on channel=0 note=72 velocity=100 time=0
the msg is note_off channel=0 note=72 velocity=0 time=12
the msg is note_on channel=0 note=72 velocity=100 time=0
the msg is note_off channel=0 note=72 velocity=0 time=12
the msg is note_on channel=0 note=72 velocity=100 time=0
the msg is note_off channel=0 note=72 velocity=0 time=8
the msg is note_on channel=0 note=72 velocity=100 time=0
the msg is note_off channel=0 note=72 velocity=0 time=17
the msg is note_on channel=0 note=72 velocity=100 time=0
the msg is note_off channel=0 note=72 velocity=0 time=12
the msg is note_on channel=0 note=72 velocity=100 time=0
the msg is note_off channel=0 note=72 velocity=0 time=12
the msg is note_on channel=0 note=72 velocity=100 time=0
the msg is note_off channel=0 note=76 velocity=0 time=8
the msg is note_on channel=0 note=76 velocity=100 time=0
the msg is note_off channel=0 note=79 velocity=0 time=29
the msg is note_on channel=0 note=79 velocity=100 time=0
the msg is note_off channel=0 note=79 velocity=0 time=12
the msg is note_on channel=0 note=79 velocity=100 time=0
the msg is note_off channel=0 note=76 velocity=0 time=8
the msg is note_on channel=0 note=76 velocity=100 time=0
the msg is note_off channel=0 note=74 velocity=0 time=17
the msg is note_on channel=0 note=74 velocity=100 time=0
the msg is <meta message end_of_track time=51>
the msg is <meta message track_name name='Piano' time=0>
the msg is program_change channel=0 program=0 time=0
the msg is note_off channel=0 note=72 velocity=0 time=0
the msg is pitchwheel channel=0 pitch=0 time=0
the msg is program_change channel=0 program=0 time=0
the msg is <meta message set_tempo tempo=500000 time=0>
the msg is <meta message time_signature numerator=4 denominator=4 clocks_per_click=24 notated_32nd_notes_per_beat=8 time=0>
the msg is note_on channel=0 note=72 velocity=100 time=0
the msg is note_off channel=0 note=74 velocity=0 time=34
the msg is note_on channel=0 note=74 velocity=100 time=0
the msg is note_off channel=0 note=74 velocity=0 time=17
the msg is note_on channel=0 note=74 velocity=100 time=0
the msg is note_off channel=0 note=74 velocity=0 time=34
the msg is note_on channel=0 note=74 velocity=100 time=0
the msg is note_off channel=0 note=74 velocity=0 time=17
the msg is note_on channel=0 note=74 velocity=100 time=0
the msg is note_off channel=0 note=76 velocity=0 time=34
the msg is note_on channel=0 note=76 velocity=100 time=0
the msg is note_off channel=0 note=79 velocity=0 time=17
the msg is note_on channel=0 note=79 velocity=100 time=0
the msg is note_off channel=0 note=79 velocity=0 time=17
the msg is note_on channel=0 note=79 velocity=100 time=0
the msg is note_off channel=0 note=76 velocity=0 time=17
the msg is note_on channel=0 note=76 velocity=100 time=0
the msg is note_off channel=0 note=74 velocity=0 time=4
the msg is note_on channel=0 note=74 velocity=100 time=0
the msg is note_off channel=0 note=72 velocity=0 time=12
the msg is note_on channel=0 note=72 velocity=100 time=0
the msg is note_off channel=0 note=72 velocity=0 time=89
the msg is note_on channel=0 note=72 velocity=100 time=0
the msg is note_off channel=0 note=72 velocity=0 time=12
the msg is note_on channel=0 note=72 velocity=100 time=0
the msg is note_off channel=0 note=74 velocity=0 time=25
the msg is note_on channel=0 note=74 velocity=100 time=0
the msg is note_off channel=0 note=74 velocity=0 time=25
the msg is note_on channel=0 note=74 velocity=100 time=0
the msg is note_off channel=0 note=74 velocity=0 time=12
the msg is note_on channel=0 note=74 velocity=100 time=0
the msg is note_off channel=0 note=76 velocity=0 time=25
the msg is note_on channel=0 note=76 velocity=100 time=0
the msg is note_off channel=0 note=79 velocity=0 time=25
the msg is note_on channel=0 note=79 velocity=100 time=0
the msg is note_off channel=0 note=79 velocity=0 time=12
the msg is note_on channel=0 note=79 velocity=100 time=0
the msg is note_off channel=0 note=76 velocity=0 time=12
the msg is note_on channel=0 note=76 velocity=100 time=0
the msg is note_off channel=0 note=74 velocity=0 time=12
the msg is note_on channel=0 note=74 velocity=100 time=0
the msg is note_off channel=0 note=72 velocity=0 time=12
the msg is note_on channel=0 note=72 velocity=100 time=0
the msg is note_off channel=0 note=74 velocity=0 time=25
the msg is note_on channel=0 note=74 velocity=100 time=0
the msg is note_off channel=0 note=76 velocity=0 time=25
the msg is note_on channel=0 note=76 velocity=100 time=0
the msg is note_off channel=0 note=79 velocity=0 time=25
the msg is note_on channel=0 note=79 velocity=100 time=0
the msg is note_off channel=0 note=79 velocity=0 time=12
the msg is note_on channel=0 note=79 velocity=100 time=0
the msg is note_off channel=0 note=76 velocity=0 time=12
the msg is note_on channel=0 note=76 velocity=100 time=0
the msg is note_off channel=0 note=74 velocity=0 time=12
the msg is note_on channel=0 note=74 velocity=100 time=0
the msg is note_off channel=0 note=72 velocity=0 time=12
the msg is note_on channel=0 note=72 velocity=100 time=0
the msg is note_off channel=0 note=74 velocity=0 time=25
the msg is note_on channel=0 note=74 velocity=100 time=0
the msg is note_off channel=0 note=74 velocity=0 time=12
the msg is note_on channel=0 note=74 velocity=100 time=0
the msg is note_off channel=0 note=74 velocity=0 time=12
the msg is note_on channel=0 note=74 velocity=100 time=0
the msg is note_off channel=0 note=74 velocity=0 time=25
the msg is note_on channel=0 note=74 velocity=100 time=0
the msg is note_off channel=0 note=74 velocity=0 time=25
the msg is note_on channel=0 note=74 velocity=100 time=0
the msg is note_off channel=0 note=76 velocity=0 time=25
the msg is note_on channel=0 note=76 velocity=100 time=0
the msg is note_off channel=0 note=79 velocity=0 time=25
the msg is note_on channel=0 note=79 velocity=100 time=0
the msg is note_off channel=0 note=79 velocity=0 time=12
the msg is note_on channel=0 note=79 velocity=100 time=0
the msg is note_off channel=0 note=76 velocity=0 time=12
the msg is note_on channel=0 note=76 velocity=100 time=0
the msg is note_off channel=0 note=74 velocity=0 time=12
the msg is note_on channel=0 note=74 velocity=100 time=0
the msg is note_off channel=0 note=72 velocity=0 time=12
the msg is note_on channel=0 note=72 velocity=100 time=0
the msg is note_off channel=0 note=72 velocity=0 time=81
the msg is note_on channel=0 note=72 velocity=100 time=0
the msg is note_off channel=0 note=72 velocity=0 time=8
the msg is note_on channel=0 note=72 velocity=100 time=0
the msg is note_off channel=0 note=74 velocity=0 time=25
the msg is note_on channel=0 note=74 velocity=100 time=0
the msg is note_off channel=0 note=74 velocity=0 time=25
the msg is note_on channel=0 note=74 velocity=100 time=0
the msg is note_off channel=0 note=74 velocity=0 time=25
the msg is note_on channel=0 note=74 velocity=100 time=0
the msg is note_off channel=0 note=74 velocity=0 time=25
the msg is note_on channel=0 note=74 velocity=100 time=0
the msg is note_off channel=0 note=74 velocity=0 time=25
the msg is note_on channel=0 note=74 velocity=100 time=0
the msg is note_off channel=0 note=74 velocity=0 time=25
the msg is note_on channel=0 note=74 velocity=100 time=0
the msg is note_off channel=0 note=76 velocity=0 time=25
the msg is note_on channel=0 note=76 velocity=100 time=0
the msg is note_off channel=0 note=79 velocity=0 time=25
the msg is note_on channel=0 note=79 velocity=100 time=0
the msg is note_off channel=0 note=79 velocity=0 time=12
the msg is note_on channel=0 note=79 velocity=100 time=0
the msg is note_off channel=0 note=76 velocity=0 time=12
the msg is note_on channel=0 note=76 velocity=100 time=0
the msg is note_off channel=0 note=74 velocity=0 time=17
the msg is note_on channel=0 note=74 velocity=100 time=0
the msg is note_off channel=0 note=72 velocity=0 time=8
the msg is note_on channel=0 note=72 velocity=100 time=0
the msg is note_off channel=0 note=72 velocity=0 time=25
the msg is note_on channel=0 note=72 velocity=100 time=0
the msg is note_off channel=0 note=72 velocity=0 time=25
the msg is note_on channel=0 note=72 velocity=100 time=0
the msg is note_off channel=0 note=72 velocity=0 time=12
the msg is note_on channel=0 note=72 velocity=100 time=0
the msg is note_off channel=0 note=72 velocity=0 time=29
the msg is note_on channel=0 note=72 velocity=100 time=0
the msg is note_off channel=0 note=72 velocity=0 time=8
the msg is note_on channel=0 note=72 velocity=100 time=0
the msg is note_off channel=0 note=72 velocity=0 time=25
the msg is note_on channel=0 note=72 velocity=100 time=0
the msg is note_off channel=0 note=72 velocity=0 time=12
the msg is note_on channel=0 note=72 velocity=100 time=0
the msg is note_off channel=0 note=72 velocity=0 time=12
the msg is note_on channel=0 note=72 velocity=100 time=0
the msg is note_off channel=0 note=72 velocity=0 time=12
the msg is note_on channel=0 note=72 velocity=100 time=0
the msg is note_off channel=0 note=76 velocity=0 time=12
the msg is note_on channel=0 note=76 velocity=100 time=0
the msg is note_off channel=0 note=79 velocity=0 time=25
the msg is note_on channel=0 note=79 velocity=100 time=0
the msg is note_off channel=0 note=79 velocity=0 time=12
the msg is note_on channel=0 note=79 velocity=100 time=0
the msg is note_off channel=0 note=76 velocity=0 time=12
the msg is note_on channel=0 note=76 velocity=100 time=0
the msg is note_off channel=0 note=74 velocity=0 time=12
the msg is note_on channel=0 note=74 velocity=100 time=0
the msg is note_off channel=0 note=72 velocity=0 time=12
the msg is note_on channel=0 note=72 velocity=100 time=0
the msg is note_off channel=0 note=72 velocity=0 time=76
the msg is note_on channel=0 note=72 velocity=100 time=0
the msg is note_off channel=0 note=72 velocity=0 time=12
the msg is note_on channel=0 note=72 velocity=100 time=0
the msg is note_off channel=0 note=72 velocity=0 time=12
the msg is note_on channel=0 note=72 velocity=100 time=0
the msg is note_off channel=0 note=72 velocity=0 time=8
the msg is note_on channel=0 note=72 velocity=100 time=0
the msg is note_off channel=0 note=72 velocity=0 time=17
the msg is note_on channel=0 note=72 velocity=100 time=0
the msg is note_off channel=0 note=72 velocity=0 time=12
the msg is note_on channel=0 note=72 velocity=100 time=0
the msg is note_off channel=0 note=72 velocity=0 time=12
the msg is note_on channel=0 note=72 velocity=100 time=0
the msg is note_off channel=0 note=76 velocity=0 time=8
the msg is note_on channel=0 note=76 velocity=100 time=0
the msg is note_off channel=0 note=79 velocity=0 time=29
the msg is note_on channel=0 note=79 velocity=100 time=0
the msg is note_off channel=0 note=79 velocity=0 time=12
the msg is note_on channel=0 note=79 velocity=100 time=0
the msg is note_off channel=0 note=76 velocity=0 time=8
the msg is note_on channel=0 note=76 velocity=100 time=0
the msg is note_off channel=0 note=74 velocity=0 time=17
the msg is note_on channel=0 note=74 velocity=100 time=0
the msg is <meta message end_of_track time=51>
the msg is <meta message track_name name='Piano' time=0>
the msg is program_change channel=0 program=0 time=0
the msg is note_off channel=0 note=72 velocity=0 time=0
the msg is pitchwheel channel=0 pitch=0 time=0
the msg is program_change channel=0 program=0 time=0
the msg is <meta message set_tempo tempo=500000 time=0>
the msg is <meta message time_signature numerator=4 denominator=4 clocks_per_click=24 notated_32nd_notes_per_beat=8 time=0>
the msg is note_on channel=0 note=72 velocity=100 time=0
the msg is note_off channel=0 note=74 velocity=0 time=34
the msg is note_on channel=0 note=74 velocity=100 time=0
the msg is note_off channel=0 note=74 velocity=0 time=17
the msg is note_on channel=0 note=74 velocity=100 time=0
the msg is note_off channel=0 note=74 velocity=0 time=34
the msg is note_on channel=0 note=74 velocity=100 time=0
the msg is note_off channel=0 note=74 velocity=0 time=17
the msg is note_on channel=0 note=74 velocity=100 time=0
the msg is note_off channel=0 note=76 velocity=0 time=34
the msg is note_on channel=0 note=76 velocity=100 time=0
the msg is note_off channel=0 note=79 velocity=0 time=17
the msg is note_on channel=0 note=79 velocity=100 time=0
the msg is note_off channel=0 note=79 velocity=0 time=17
the msg is note_on channel=0 note=79 velocity=100 time=0
the msg is note_off channel=0 note=76 velocity=0 time=17
the msg is note_on channel=0 note=76 velocity=100 time=0
the msg is note_off channel=0 note=74 velocity=0 time=4
the msg is note_on channel=0 note=74 velocity=100 time=0
the msg is note_off channel=0 note=72 velocity=0 time=12
the msg is note_on channel=0 note=72 velocity=100 time=0
the msg is note_off channel=0 note=72 velocity=0 time=89
the msg is note_on channel=0 note=72 velocity=100 time=0
the msg is note_off channel=0 note=72 velocity=0 time=12
the msg is note_on channel=0 note=72 velocity=100 time=0
the msg is note_off channel=0 note=74 velocity=0 time=25
the msg is note_on channel=0 note=74 velocity=100 time=0
the msg is note_off channel=0 note=74 velocity=0 time=25
the msg is note_on channel=0 note=74 velocity=100 time=0
the msg is note_off channel=0 note=74 velocity=0 time=12
the msg is note_on channel=0 note=74 velocity=100 time=0
the msg is note_off channel=0 note=76 velocity=0 time=25
the msg is note_on channel=0 note=76 velocity=100 time=0
the msg is note_off channel=0 note=79 velocity=0 time=25
the msg is note_on channel=0 note=79 velocity=100 time=0
the msg is note_off channel=0 note=79 velocity=0 time=12
the msg is note_on channel=0 note=79 velocity=100 time=0
the msg is note_off channel=0 note=76 velocity=0 time=12
the msg is note_on channel=0 note=76 velocity=100 time=0
the msg is note_off channel=0 note=74 velocity=0 time=12
the msg is note_on channel=0 note=74 velocity=100 time=0
the msg is note_off channel=0 note=72 velocity=0 time=12
the msg is note_on channel=0 note=72 velocity=100 time=0
the msg is note_off channel=0 note=74 velocity=0 time=25
the msg is note_on channel=0 note=74 velocity=100 time=0
the msg is note_off channel=0 note=76 velocity=0 time=25
the msg is note_on channel=0 note=76 velocity=100 time=0
the msg is note_off channel=0 note=79 velocity=0 time=25
the msg is note_on channel=0 note=79 velocity=100 time=0
the msg is note_off channel=0 note=79 velocity=0 time=12
the msg is note_on channel=0 note=79 velocity=100 time=0
the msg is note_off channel=0 note=76 velocity=0 time=12
the msg is note_on channel=0 note=76 velocity=100 time=0
the msg is note_off channel=0 note=74 velocity=0 time=12
the msg is note_on channel=0 note=74 velocity=100 time=0
the msg is note_off channel=0 note=72 velocity=0 time=12
the msg is note_on channel=0 note=72 velocity=100 time=0
the msg is note_off channel=0 note=74 velocity=0 time=25
the msg is note_on channel=0 note=74 velocity=100 time=0
the msg is note_off channel=0 note=74 velocity=0 time=12
the msg is note_on channel=0 note=74 velocity=100 time=0
the msg is note_off channel=0 note=74 velocity=0 time=12
the msg is note_on channel=0 note=74 velocity=100 time=0
the msg is note_off channel=0 note=74 velocity=0 time=25
the msg is note_on channel=0 note=74 velocity=100 time=0
the msg is note_off channel=0 note=74 velocity=0 time=25
the msg is note_on channel=0 note=74 velocity=100 time=0
the msg is note_off channel=0 note=76 velocity=0 time=25
the msg is note_on channel=0 note=76 velocity=100 time=0
the msg is note_off channel=0 note=79 velocity=0 time=25
the msg is note_on channel=0 note=79 velocity=100 time=0
the msg is note_off channel=0 note=79 velocity=0 time=12
the msg is note_on channel=0 note=79 velocity=100 time=0
the msg is note_off channel=0 note=76 velocity=0 time=12
the msg is note_on channel=0 note=76 velocity=100 time=0
the msg is note_off channel=0 note=74 velocity=0 time=12
the msg is note_on channel=0 note=74 velocity=100 time=0
the msg is note_off channel=0 note=72 velocity=0 time=12
the msg is note_on channel=0 note=72 velocity=100 time=0
the msg is note_off channel=0 note=72 velocity=0 time=81
the msg is note_on channel=0 note=72 velocity=100 time=0
the msg is note_off channel=0 note=72 velocity=0 time=8
the msg is note_on channel=0 note=72 velocity=100 time=0
the msg is note_off channel=0 note=74 velocity=0 time=25
the msg is note_on channel=0 note=74 velocity=100 time=0
the msg is note_off channel=0 note=74 velocity=0 time=25
the msg is note_on channel=0 note=74 velocity=100 time=0
the msg is note_off channel=0 note=74 velocity=0 time=25
the msg is note_on channel=0 note=74 velocity=100 time=0
the msg is note_off channel=0 note=74 velocity=0 time=25
the msg is note_on channel=0 note=74 velocity=100 time=0
the msg is note_off channel=0 note=74 velocity=0 time=25
the msg is note_on channel=0 note=74 velocity=100 time=0
the msg is note_off channel=0 note=74 velocity=0 time=25
the msg is note_on channel=0 note=74 velocity=100 time=0
the msg is note_off channel=0 note=76 velocity=0 time=25
the msg is note_on channel=0 note=76 velocity=100 time=0
the msg is note_off channel=0 note=79 velocity=0 time=25
the msg is note_on channel=0 note=79 velocity=100 time=0
the msg is note_off channel=0 note=79 velocity=0 time=12
the msg is note_on channel=0 note=79 velocity=100 time=0
the msg is note_off channel=0 note=76 velocity=0 time=12
the msg is note_on channel=0 note=76 velocity=100 time=0
the msg is note_off channel=0 note=74 velocity=0 time=17
the msg is note_on channel=0 note=74 velocity=100 time=0
the msg is note_off channel=0 note=72 velocity=0 time=8
the msg is note_on channel=0 note=72 velocity=100 time=0
the msg is note_off channel=0 note=72 velocity=0 time=25
the msg is note_on channel=0 note=72 velocity=100 time=0
the msg is note_off channel=0 note=72 velocity=0 time=25
the msg is note_on channel=0 note=72 velocity=100 time=0
the msg is note_off channel=0 note=72 velocity=0 time=12
the msg is note_on channel=0 note=72 velocity=100 time=0
the msg is note_off channel=0 note=72 velocity=0 time=29
the msg is note_on channel=0 note=72 velocity=100 time=0
the msg is note_off channel=0 note=72 velocity=0 time=8
the msg is note_on channel=0 note=72 velocity=100 time=0
the msg is note_off channel=0 note=72 velocity=0 time=25
the msg is note_on channel=0 note=72 velocity=100 time=0
the msg is note_off channel=0 note=72 velocity=0 time=12
the msg is note_on channel=0 note=72 velocity=100 time=0
the msg is note_off channel=0 note=72 velocity=0 time=12
the msg is note_on channel=0 note=72 velocity=100 time=0
the msg is note_off channel=0 note=72 velocity=0 time=12
the msg is note_on channel=0 note=72 velocity=100 time=0
the msg is note_off channel=0 note=76 velocity=0 time=12
the msg is note_on channel=0 note=76 velocity=100 time=0
the msg is note_off channel=0 note=79 velocity=0 time=25
the msg is note_on channel=0 note=79 velocity=100 time=0
the msg is note_off channel=0 note=79 velocity=0 time=12
the msg is note_on channel=0 note=79 velocity=100 time=0
the msg is note_off channel=0 note=76 velocity=0 time=12
the msg is note_on channel=0 note=76 velocity=100 time=0
the msg is note_off channel=0 note=74 velocity=0 time=12
the msg is note_on channel=0 note=74 velocity=100 time=0
the msg is note_off channel=0 note=72 velocity=0 time=12
the msg is note_on channel=0 note=72 velocity=100 time=0
the msg is note_off channel=0 note=72 velocity=0 time=76
the msg is note_on channel=0 note=72 velocity=100 time=0
the msg is note_off channel=0 note=72 velocity=0 time=12
the msg is note_on channel=0 note=72 velocity=100 time=0
the msg is note_off channel=0 note=72 velocity=0 time=12
the msg is note_on channel=0 note=72 velocity=100 time=0
the msg is note_off channel=0 note=72 velocity=0 time=8
the msg is note_on channel=0 note=72 velocity=100 time=0
the msg is note_off channel=0 note=72 velocity=0 time=17
the msg is note_on channel=0 note=72 velocity=100 time=0
the msg is note_off channel=0 note=72 velocity=0 time=12
the msg is note_on channel=0 note=72 velocity=100 time=0
the msg is note_off channel=0 note=72 velocity=0 time=12
the msg is note_on channel=0 note=72 velocity=100 time=0
the msg is note_off channel=0 note=76 velocity=0 time=8
the msg is note_on channel=0 note=76 velocity=100 time=0
the msg is note_off channel=0 note=79 velocity=0 time=29
the msg is note_on channel=0 note=79 velocity=100 time=0
the msg is note_off channel=0 note=79 velocity=0 time=12
the msg is note_on channel=0 note=79 velocity=100 time=0
the msg is note_off channel=0 note=76 velocity=0 time=8
the msg is note_on channel=0 note=76 velocity=100 time=0
the msg is note_off channel=0 note=74 velocity=0 time=17
the msg is note_on channel=0 note=74 velocity=100 time=0
the msg is <meta message end_of_track time=51>
the msg is <meta message track_name name='Piano' time=0>
the msg is program_change channel=0 program=0 time=0
the msg is note_off channel=0 note=72 velocity=0 time=0
the msg is pitchwheel channel=0 pitch=0 time=0
the msg is program_change channel=0 program=0 time=0
the msg is <meta message set_tempo tempo=500000 time=0>
the msg is <meta message time_signature numerator=4 denominator=4 clocks_per_click=24 notated_32nd_notes_per_beat=8 time=0>
the msg is note_on channel=0 note=72 velocity=100 time=0
the msg is note_off channel=0 note=74 velocity=0 time=34
the msg is note_on channel=0 note=74 velocity=100 time=0
the msg is note_off channel=0 note=74 velocity=0 time=17
the msg is note_on channel=0 note=74 velocity=100 time=0
the msg is note_off channel=0 note=74 velocity=0 time=34
the msg is note_on channel=0 note=74 velocity=100 time=0
the msg is note_off channel=0 note=74 velocity=0 time=17
the msg is note_on channel=0 note=74 velocity=100 time=0
the msg is note_off channel=0 note=76 velocity=0 time=34
the msg is note_on channel=0 note=76 velocity=100 time=0
the msg is note_off channel=0 note=79 velocity=0 time=17
the msg is note_on channel=0 note=79 velocity=100 time=0
the msg is note_off channel=0 note=79 velocity=0 time=17
the msg is note_on channel=0 note=79 velocity=100 time=0
the msg is note_off channel=0 note=76 velocity=0 time=17
the msg is note_on channel=0 note=76 velocity=100 time=0
the msg is note_off channel=0 note=74 velocity=0 time=4
the msg is note_on channel=0 note=74 velocity=100 time=0
the msg is note_off channel=0 note=72 velocity=0 time=12
the msg is note_on channel=0 note=72 velocity=100 time=0
the msg is note_off channel=0 note=72 velocity=0 time=89
the msg is note_on channel=0 note=72 velocity=100 time=0
the msg is note_off channel=0 note=72 velocity=0 time=12
the msg is note_on channel=0 note=72 velocity=100 time=0
the msg is note_off channel=0 note=74 velocity=0 time=25
the msg is note_on channel=0 note=74 velocity=100 time=0
the msg is note_off channel=0 note=74 velocity=0 time=25
the msg is note_on channel=0 note=74 velocity=100 time=0
the msg is note_off channel=0 note=74 velocity=0 time=12
the msg is note_on channel=0 note=74 velocity=100 time=0
the msg is note_off channel=0 note=76 velocity=0 time=25
the msg is note_on channel=0 note=76 velocity=100 time=0
the msg is note_off channel=0 note=79 velocity=0 time=25
the msg is note_on channel=0 note=79 velocity=100 time=0
the msg is note_off channel=0 note=79 velocity=0 time=12
the msg is note_on channel=0 note=79 velocity=100 time=0
the msg is note_off channel=0 note=76 velocity=0 time=12
the msg is note_on channel=0 note=76 velocity=100 time=0
the msg is note_off channel=0 note=74 velocity=0 time=12
the msg is note_on channel=0 note=74 velocity=100 time=0
the msg is note_off channel=0 note=72 velocity=0 time=12
the msg is note_on channel=0 note=72 velocity=100 time=0
the msg is note_off channel=0 note=74 velocity=0 time=25
the msg is note_on channel=0 note=74 velocity=100 time=0
the msg is note_off channel=0 note=76 velocity=0 time=25
the msg is note_on channel=0 note=76 velocity=100 time=0
the msg is note_off channel=0 note=79 velocity=0 time=25
the msg is note_on channel=0 note=79 velocity=100 time=0
the msg is note_off channel=0 note=79 velocity=0 time=12
the msg is note_on channel=0 note=79 velocity=100 time=0
the msg is note_off channel=0 note=76 velocity=0 time=12
the msg is note_on channel=0 note=76 velocity=100 time=0
the msg is note_off channel=0 note=74 velocity=0 time=12
the msg is note_on channel=0 note=74 velocity=100 time=0
the msg is note_off channel=0 note=72 velocity=0 time=12
the msg is note_on channel=0 note=72 velocity=100 time=0
the msg is note_off channel=0 note=74 velocity=0 time=25
the msg is note_on channel=0 note=74 velocity=100 time=0
the msg is note_off channel=0 note=74 velocity=0 time=12
the msg is note_on channel=0 note=74 velocity=100 time=0
the msg is note_off channel=0 note=74 velocity=0 time=12
the msg is note_on channel=0 note=74 velocity=100 time=0
the msg is note_off channel=0 note=74 velocity=0 time=25
the msg is note_on channel=0 note=74 velocity=100 time=0
the msg is note_off channel=0 note=74 velocity=0 time=25
the msg is note_on channel=0 note=74 velocity=100 time=0
the msg is note_off channel=0 note=76 velocity=0 time=25
the msg is note_on channel=0 note=76 velocity=100 time=0
the msg is note_off channel=0 note=79 velocity=0 time=25
the msg is note_on channel=0 note=79 velocity=100 time=0
the msg is note_off channel=0 note=79 velocity=0 time=12
the msg is note_on channel=0 note=79 velocity=100 time=0
the msg is note_off channel=0 note=76 velocity=0 time=12
the msg is note_on channel=0 note=76 velocity=100 time=0
the msg is note_off channel=0 note=74 velocity=0 time=12
the msg is note_on channel=0 note=74 velocity=100 time=0
the msg is note_off channel=0 note=72 velocity=0 time=12
the msg is note_on channel=0 note=72 velocity=100 time=0
the msg is note_off channel=0 note=72 velocity=0 time=81
the msg is note_on channel=0 note=72 velocity=100 time=0
the msg is note_off channel=0 note=72 velocity=0 time=8
the msg is note_on channel=0 note=72 velocity=100 time=0
the msg is note_off channel=0 note=74 velocity=0 time=25
the msg is note_on channel=0 note=74 velocity=100 time=0
the msg is note_off channel=0 note=74 velocity=0 time=25
the msg is note_on channel=0 note=74 velocity=100 time=0
the msg is note_off channel=0 note=74 velocity=0 time=25
the msg is note_on channel=0 note=74 velocity=100 time=0
the msg is note_off channel=0 note=74 velocity=0 time=25
the msg is note_on channel=0 note=74 velocity=100 time=0
the msg is note_off channel=0 note=74 velocity=0 time=25
the msg is note_on channel=0 note=74 velocity=100 time=0
the msg is note_off channel=0 note=74 velocity=0 time=25
the msg is note_on channel=0 note=74 velocity=100 time=0
the msg is note_off channel=0 note=76 velocity=0 time=25
the msg is note_on channel=0 note=76 velocity=100 time=0
the msg is note_off channel=0 note=79 velocity=0 time=25
the msg is note_on channel=0 note=79 velocity=100 time=0
the msg is note_off channel=0 note=79 velocity=0 time=12
the msg is note_on channel=0 note=79 velocity=100 time=0
the msg is note_off channel=0 note=76 velocity=0 time=12
the msg is note_on channel=0 note=76 velocity=100 time=0
the msg is note_off channel=0 note=74 velocity=0 time=17
the msg is note_on channel=0 note=74 velocity=100 time=0
the msg is note_off channel=0 note=72 velocity=0 time=8
the msg is note_on channel=0 note=72 velocity=100 time=0
the msg is note_off channel=0 note=72 velocity=0 time=25
the msg is note_on channel=0 note=72 velocity=100 time=0
the msg is note_off channel=0 note=72 velocity=0 time=25
the msg is note_on channel=0 note=72 velocity=100 time=0
the msg is note_off channel=0 note=72 velocity=0 time=12
the msg is note_on channel=0 note=72 velocity=100 time=0
the msg is note_off channel=0 note=72 velocity=0 time=29
the msg is note_on channel=0 note=72 velocity=100 time=0
the msg is note_off channel=0 note=72 velocity=0 time=8
the msg is note_on channel=0 note=72 velocity=100 time=0
the msg is note_off channel=0 note=72 velocity=0 time=25
the msg is note_on channel=0 note=72 velocity=100 time=0
the msg is note_off channel=0 note=72 velocity=0 time=12
the msg is note_on channel=0 note=72 velocity=100 time=0
the msg is note_off channel=0 note=72 velocity=0 time=12
the msg is note_on channel=0 note=72 velocity=100 time=0
the msg is note_off channel=0 note=72 velocity=0 time=12
the msg is note_on channel=0 note=72 velocity=100 time=0
the msg is note_off channel=0 note=76 velocity=0 time=12
the msg is note_on channel=0 note=76 velocity=100 time=0
the msg is note_off channel=0 note=79 velocity=0 time=25
the msg is note_on channel=0 note=79 velocity=100 time=0
the msg is note_off channel=0 note=79 velocity=0 time=12
the msg is note_on channel=0 note=79 velocity=100 time=0
the msg is note_off channel=0 note=76 velocity=0 time=12
the msg is note_on channel=0 note=76 velocity=100 time=0
the msg is note_off channel=0 note=74 velocity=0 time=12
the msg is note_on channel=0 note=74 velocity=100 time=0
the msg is note_off channel=0 note=72 velocity=0 time=12
the msg is note_on channel=0 note=72 velocity=100 time=0
the msg is note_off channel=0 note=72 velocity=0 time=76
the msg is note_on channel=0 note=72 velocity=100 time=0
the msg is note_off channel=0 note=72 velocity=0 time=12
the msg is note_on channel=0 note=72 velocity=100 time=0
the msg is note_off channel=0 note=72 velocity=0 time=12
the msg is note_on channel=0 note=72 velocity=100 time=0
the msg is note_off channel=0 note=72 velocity=0 time=8
the msg is note_on channel=0 note=72 velocity=100 time=0
the msg is note_off channel=0 note=72 velocity=0 time=17
the msg is note_on channel=0 note=72 velocity=100 time=0
the msg is note_off channel=0 note=72 velocity=0 time=12
the msg is note_on channel=0 note=72 velocity=100 time=0
the msg is note_off channel=0 note=72 velocity=0 time=12
the msg is note_on channel=0 note=72 velocity=100 time=0
the msg is note_off channel=0 note=76 velocity=0 time=8
the msg is note_on channel=0 note=76 velocity=100 time=0
the msg is note_off channel=0 note=79 velocity=0 time=29
the msg is note_on channel=0 note=79 velocity=100 time=0
the msg is note_off channel=0 note=79 velocity=0 time=12
the msg is note_on channel=0 note=79 velocity=100 time=0
the msg is note_off channel=0 note=76 velocity=0 time=8
the msg is note_on channel=0 note=76 velocity=100 time=0
the msg is note_off channel=0 note=74 velocity=0 time=17
the msg is note_on channel=0 note=74 velocity=100 time=0
the msg is <meta message end_of_track time=51>
the msg is <meta message track_name name='Piano' time=0>
the msg is program_change channel=0 program=0 time=0
the msg is note_off channel=0 note=72 velocity=0 time=0
the msg is pitchwheel channel=0 pitch=0 time=0
the msg is program_change channel=0 program=0 time=0
the msg is <meta message set_tempo tempo=500000 time=0>
the msg is <meta message time_signature numerator=4 denominator=4 clocks_per_click=24 notated_32nd_notes_per_beat=8 time=0>
the msg is note_on channel=0 note=72 velocity=100 time=0
the msg is note_off channel=0 note=74 velocity=0 time=34
the msg is note_on channel=0 note=74 velocity=100 time=0
the msg is note_off channel=0 note=74 velocity=0 time=17
the msg is note_on channel=0 note=74 velocity=100 time=0
the msg is note_off channel=0 note=74 velocity=0 time=34
the msg is note_on channel=0 note=74 velocity=100 time=0
the msg is note_off channel=0 note=74 velocity=0 time=17
the msg is note_on channel=0 note=74 velocity=100 time=0
the msg is note_off channel=0 note=76 velocity=0 time=34
the msg is note_on channel=0 note=76 velocity=100 time=0
the msg is note_off channel=0 note=79 velocity=0 time=17
the msg is note_on channel=0 note=79 velocity=100 time=0
the msg is note_off channel=0 note=79 velocity=0 time=17
the msg is note_on channel=0 note=79 velocity=100 time=0
the msg is note_off channel=0 note=76 velocity=0 time=17
the msg is note_on channel=0 note=76 velocity=100 time=0
the msg is note_off channel=0 note=74 velocity=0 time=4
the msg is note_on channel=0 note=74 velocity=100 time=0
the msg is note_off channel=0 note=72 velocity=0 time=12
the msg is note_on channel=0 note=72 velocity=100 time=0
the msg is note_off channel=0 note=72 velocity=0 time=89
the msg is note_on channel=0 note=72 velocity=100 time=0
the msg is note_off channel=0 note=72 velocity=0 time=12
the msg is note_on channel=0 note=72 velocity=100 time=0
the msg is note_off channel=0 note=74 velocity=0 time=25
the msg is note_on channel=0 note=74 velocity=100 time=0
the msg is note_off channel=0 note=74 velocity=0 time=25
the msg is note_on channel=0 note=74 velocity=100 time=0
the msg is note_off channel=0 note=74 velocity=0 time=12
the msg is note_on channel=0 note=74 velocity=100 time=0
the msg is note_off channel=0 note=76 velocity=0 time=25
the msg is note_on channel=0 note=76 velocity=100 time=0
the msg is note_off channel=0 note=79 velocity=0 time=25
the msg is note_on channel=0 note=79 velocity=100 time=0
the msg is note_off channel=0 note=79 velocity=0 time=12
the msg is note_on channel=0 note=79 velocity=100 time=0
the msg is note_off channel=0 note=76 velocity=0 time=12
the msg is note_on channel=0 note=76 velocity=100 time=0
the msg is note_off channel=0 note=74 velocity=0 time=12
the msg is note_on channel=0 note=74 velocity=100 time=0
the msg is note_off channel=0 note=72 velocity=0 time=12
the msg is note_on channel=0 note=72 velocity=100 time=0
the msg is note_off channel=0 note=74 velocity=0 time=25
the msg is note_on channel=0 note=74 velocity=100 time=0
the msg is note_off channel=0 note=76 velocity=0 time=25
the msg is note_on channel=0 note=76 velocity=100 time=0
the msg is note_off channel=0 note=79 velocity=0 time=25
the msg is note_on channel=0 note=79 velocity=100 time=0
the msg is note_off channel=0 note=79 velocity=0 time=12
the msg is note_on channel=0 note=79 velocity=100 time=0
the msg is note_off channel=0 note=76 velocity=0 time=12
the msg is note_on channel=0 note=76 velocity=100 time=0
the msg is note_off channel=0 note=74 velocity=0 time=12
the msg is note_on channel=0 note=74 velocity=100 time=0
the msg is note_off channel=0 note=72 velocity=0 time=12
the msg is note_on channel=0 note=72 velocity=100 time=0
the msg is note_off channel=0 note=74 velocity=0 time=25
the msg is note_on channel=0 note=74 velocity=100 time=0
the msg is note_off channel=0 note=74 velocity=0 time=12
the msg is note_on channel=0 note=74 velocity=100 time=0
the msg is note_off channel=0 note=74 velocity=0 time=12
the msg is note_on channel=0 note=74 velocity=100 time=0
the msg is note_off channel=0 note=74 velocity=0 time=25
the msg is note_on channel=0 note=74 velocity=100 time=0
the msg is note_off channel=0 note=74 velocity=0 time=25
the msg is note_on channel=0 note=74 velocity=100 time=0
the msg is note_off channel=0 note=76 velocity=0 time=25
the msg is note_on channel=0 note=76 velocity=100 time=0
the msg is note_off channel=0 note=79 velocity=0 time=25
the msg is note_on channel=0 note=79 velocity=100 time=0
the msg is note_off channel=0 note=79 velocity=0 time=12
the msg is note_on channel=0 note=79 velocity=100 time=0
the msg is note_off channel=0 note=76 velocity=0 time=12
the msg is note_on channel=0 note=76 velocity=100 time=0
the msg is note_off channel=0 note=74 velocity=0 time=12
the msg is note_on channel=0 note=74 velocity=100 time=0
the msg is note_off channel=0 note=72 velocity=0 time=12
the msg is note_on channel=0 note=72 velocity=100 time=0
the msg is note_off channel=0 note=72 velocity=0 time=81
the msg is note_on channel=0 note=72 velocity=100 time=0
the msg is note_off channel=0 note=72 velocity=0 time=8
the msg is note_on channel=0 note=72 velocity=100 time=0
the msg is note_off channel=0 note=74 velocity=0 time=25
the msg is note_on channel=0 note=74 velocity=100 time=0
the msg is note_off channel=0 note=74 velocity=0 time=25
the msg is note_on channel=0 note=74 velocity=100 time=0
the msg is note_off channel=0 note=74 velocity=0 time=25
the msg is note_on channel=0 note=74 velocity=100 time=0
the msg is note_off channel=0 note=74 velocity=0 time=25
the msg is note_on channel=0 note=74 velocity=100 time=0
the msg is note_off channel=0 note=74 velocity=0 time=25
the msg is note_on channel=0 note=74 velocity=100 time=0
the msg is note_off channel=0 note=74 velocity=0 time=25
the msg is note_on channel=0 note=74 velocity=100 time=0
the msg is note_off channel=0 note=76 velocity=0 time=25
the msg is note_on channel=0 note=76 velocity=100 time=0
the msg is note_off channel=0 note=79 velocity=0 time=25
the msg is note_on channel=0 note=79 velocity=100 time=0
the msg is note_off channel=0 note=79 velocity=0 time=12
the msg is note_on channel=0 note=79 velocity=100 time=0
the msg is note_off channel=0 note=76 velocity=0 time=12
the msg is note_on channel=0 note=76 velocity=100 time=0
the msg is note_off channel=0 note=74 velocity=0 time=17
the msg is note_on channel=0 note=74 velocity=100 time=0
the msg is note_off channel=0 note=72 velocity=0 time=8
the msg is note_on channel=0 note=72 velocity=100 time=0
the msg is note_off channel=0 note=72 velocity=0 time=25
the msg is note_on channel=0 note=72 velocity=100 time=0
the msg is note_off channel=0 note=72 velocity=0 time=25
the msg is note_on channel=0 note=72 velocity=100 time=0
the msg is note_off channel=0 note=72 velocity=0 time=12
the msg is note_on channel=0 note=72 velocity=100 time=0
the msg is note_off channel=0 note=72 velocity=0 time=29
the msg is note_on channel=0 note=72 velocity=100 time=0
the msg is note_off channel=0 note=72 velocity=0 time=8
the msg is note_on channel=0 note=72 velocity=100 time=0
the msg is note_off channel=0 note=72 velocity=0 time=25
the msg is note_on channel=0 note=72 velocity=100 time=0
the msg is note_off channel=0 note=72 velocity=0 time=12
the msg is note_on channel=0 note=72 velocity=100 time=0
the msg is note_off channel=0 note=72 velocity=0 time=12
the msg is note_on channel=0 note=72 velocity=100 time=0
the msg is note_off channel=0 note=72 velocity=0 time=12
the msg is note_on channel=0 note=72 velocity=100 time=0
the msg is note_off channel=0 note=76 velocity=0 time=12
the msg is note_on channel=0 note=76 velocity=100 time=0
the msg is note_off channel=0 note=79 velocity=0 time=25
the msg is note_on channel=0 note=79 velocity=100 time=0
the msg is note_off channel=0 note=79 velocity=0 time=12
the msg is note_on channel=0 note=79 velocity=100 time=0
the msg is note_off channel=0 note=76 velocity=0 time=12
the msg is note_on channel=0 note=76 velocity=100 time=0
the msg is note_off channel=0 note=74 velocity=0 time=12
the msg is note_on channel=0 note=74 velocity=100 time=0
the msg is note_off channel=0 note=72 velocity=0 time=12
the msg is note_on channel=0 note=72 velocity=100 time=0
the msg is note_off channel=0 note=72 velocity=0 time=76
the msg is note_on channel=0 note=72 velocity=100 time=0
the msg is note_off channel=0 note=72 velocity=0 time=12
the msg is note_on channel=0 note=72 velocity=100 time=0
the msg is note_off channel=0 note=72 velocity=0 time=12
the msg is note_on channel=0 note=72 velocity=100 time=0
the msg is note_off channel=0 note=72 velocity=0 time=8
the msg is note_on channel=0 note=72 velocity=100 time=0
the msg is note_off channel=0 note=72 velocity=0 time=17
the msg is note_on channel=0 note=72 velocity=100 time=0
the msg is note_off channel=0 note=72 velocity=0 time=12
the msg is note_on channel=0 note=72 velocity=100 time=0
the msg is note_off channel=0 note=72 velocity=0 time=12
the msg is note_on channel=0 note=72 velocity=100 time=0
the msg is note_off channel=0 note=76 velocity=0 time=8
the msg is note_on channel=0 note=76 velocity=100 time=0
the msg is note_off channel=0 note=79 velocity=0 time=29
the msg is note_on channel=0 note=79 velocity=100 time=0
the msg is note_off channel=0 note=79 velocity=0 time=12
the msg is note_on channel=0 note=79 velocity=100 time=0
the msg is note_off channel=0 note=76 velocity=0 time=8
the msg is note_on channel=0 note=76 velocity=100 time=0
the msg is note_off channel=0 note=74 velocity=0 time=17
the msg is note_on channel=0 note=74 velocity=100 time=0
the msg is <meta message end_of_track time=51>
the msg is <meta message track_name name='Piano' time=0>
the msg is program_change channel=0 program=0 time=0
the msg is note_off channel=0 note=72 velocity=0 time=0
the msg is pitchwheel channel=0 pitch=0 time=0
the msg is program_change channel=0 program=0 time=0
the msg is <meta message set_tempo tempo=500000 time=0>
the msg is <meta message time_signature numerator=4 denominator=4 clocks_per_click=24 notated_32nd_notes_per_beat=8 time=0>
the msg is note_on channel=0 note=72 velocity=100 time=0
the msg is note_off channel=0 note=74 velocity=0 time=34
the msg is note_on channel=0 note=74 velocity=100 time=0
the msg is note_off channel=0 note=74 velocity=0 time=17
the msg is note_on channel=0 note=74 velocity=100 time=0
the msg is note_off channel=0 note=74 velocity=0 time=34
the msg is note_on channel=0 note=74 velocity=100 time=0
the msg is note_off channel=0 note=74 velocity=0 time=17
the msg is note_on channel=0 note=74 velocity=100 time=0
the msg is note_off channel=0 note=76 velocity=0 time=34
the msg is note_on channel=0 note=76 velocity=100 time=0
the msg is note_off channel=0 note=79 velocity=0 time=17
the msg is note_on channel=0 note=79 velocity=100 time=0
the msg is note_off channel=0 note=79 velocity=0 time=17
the msg is note_on channel=0 note=79 velocity=100 time=0
the msg is note_off channel=0 note=76 velocity=0 time=17
the msg is note_on channel=0 note=76 velocity=100 time=0
the msg is note_off channel=0 note=74 velocity=0 time=4
the msg is note_on channel=0 note=74 velocity=100 time=0
the msg is note_off channel=0 note=72 velocity=0 time=12
the msg is note_on channel=0 note=72 velocity=100 time=0
the msg is note_off channel=0 note=72 velocity=0 time=89
the msg is note_on channel=0 note=72 velocity=100 time=0
the msg is note_off channel=0 note=72 velocity=0 time=12
the msg is note_on channel=0 note=72 velocity=100 time=0
the msg is note_off channel=0 note=74 velocity=0 time=25
the msg is note_on channel=0 note=74 velocity=100 time=0
the msg is note_off channel=0 note=74 velocity=0 time=25
the msg is note_on channel=0 note=74 velocity=100 time=0
the msg is note_off channel=0 note=74 velocity=0 time=12
the msg is note_on channel=0 note=74 velocity=100 time=0
the msg is note_off channel=0 note=76 velocity=0 time=25
the msg is note_on channel=0 note=76 velocity=100 time=0
the msg is note_off channel=0 note=79 velocity=0 time=25
the msg is note_on channel=0 note=79 velocity=100 time=0
the msg is note_off channel=0 note=79 velocity=0 time=12
the msg is note_on channel=0 note=79 velocity=100 time=0
the msg is note_off channel=0 note=76 velocity=0 time=12
the msg is note_on channel=0 note=76 velocity=100 time=0
the msg is note_off channel=0 note=74 velocity=0 time=12
the msg is note_on channel=0 note=74 velocity=100 time=0
the msg is note_off channel=0 note=72 velocity=0 time=12
the msg is note_on channel=0 note=72 velocity=100 time=0
the msg is note_off channel=0 note=74 velocity=0 time=25
the msg is note_on channel=0 note=74 velocity=100 time=0
the msg is note_off channel=0 note=76 velocity=0 time=25
the msg is note_on channel=0 note=76 velocity=100 time=0
the msg is note_off channel=0 note=79 velocity=0 time=25
the msg is note_on channel=0 note=79 velocity=100 time=0
the msg is note_off channel=0 note=79 velocity=0 time=12
the msg is note_on channel=0 note=79 velocity=100 time=0
the msg is note_off channel=0 note=76 velocity=0 time=12
the msg is note_on channel=0 note=76 velocity=100 time=0
the msg is note_off channel=0 note=74 velocity=0 time=12
the msg is note_on channel=0 note=74 velocity=100 time=0
the msg is note_off channel=0 note=72 velocity=0 time=12
the msg is note_on channel=0 note=72 velocity=100 time=0
the msg is note_off channel=0 note=74 velocity=0 time=25
the msg is note_on channel=0 note=74 velocity=100 time=0
the msg is note_off channel=0 note=74 velocity=0 time=12
the msg is note_on channel=0 note=74 velocity=100 time=0
the msg is note_off channel=0 note=74 velocity=0 time=12
the msg is note_on channel=0 note=74 velocity=100 time=0
the msg is note_off channel=0 note=74 velocity=0 time=25
the msg is note_on channel=0 note=74 velocity=100 time=0
the msg is note_off channel=0 note=74 velocity=0 time=25
the msg is note_on channel=0 note=74 velocity=100 time=0
the msg is note_off channel=0 note=76 velocity=0 time=25
the msg is note_on channel=0 note=76 velocity=100 time=0
the msg is note_off channel=0 note=79 velocity=0 time=25
the msg is note_on channel=0 note=79 velocity=100 time=0
the msg is note_off channel=0 note=79 velocity=0 time=12
the msg is note_on channel=0 note=79 velocity=100 time=0
the msg is note_off channel=0 note=76 velocity=0 time=12
the msg is note_on channel=0 note=76 velocity=100 time=0
the msg is note_off channel=0 note=74 velocity=0 time=12
the msg is note_on channel=0 note=74 velocity=100 time=0
the msg is note_off channel=0 note=72 velocity=0 time=12
the msg is note_on channel=0 note=72 velocity=100 time=0
the msg is note_off channel=0 note=72 velocity=0 time=81
the msg is note_on channel=0 note=72 velocity=100 time=0
the msg is note_off channel=0 note=72 velocity=0 time=8
the msg is note_on channel=0 note=72 velocity=100 time=0
the msg is note_off channel=0 note=74 velocity=0 time=25
the msg is note_on channel=0 note=74 velocity=100 time=0
the msg is note_off channel=0 note=74 velocity=0 time=25
the msg is note_on channel=0 note=74 velocity=100 time=0
the msg is note_off channel=0 note=74 velocity=0 time=25
the msg is note_on channel=0 note=74 velocity=100 time=0
the msg is note_off channel=0 note=74 velocity=0 time=25
the msg is note_on channel=0 note=74 velocity=100 time=0
the msg is note_off channel=0 note=74 velocity=0 time=25
the msg is note_on channel=0 note=74 velocity=100 time=0
the msg is note_off channel=0 note=74 velocity=0 time=25
the msg is note_on channel=0 note=74 velocity=100 time=0
the msg is note_off channel=0 note=76 velocity=0 time=25
the msg is note_on channel=0 note=76 velocity=100 time=0
the msg is note_off channel=0 note=79 velocity=0 time=25
the msg is note_on channel=0 note=79 velocity=100 time=0
the msg is note_off channel=0 note=79 velocity=0 time=12
the msg is note_on channel=0 note=79 velocity=100 time=0
the msg is note_off channel=0 note=76 velocity=0 time=12
the msg is note_on channel=0 note=76 velocity=100 time=0
the msg is note_off channel=0 note=74 velocity=0 time=17
the msg is note_on channel=0 note=74 velocity=100 time=0
the msg is note_off channel=0 note=72 velocity=0 time=8
the msg is note_on channel=0 note=72 velocity=100 time=0
the msg is note_off channel=0 note=72 velocity=0 time=25
the msg is note_on channel=0 note=72 velocity=100 time=0
the msg is note_off channel=0 note=72 velocity=0 time=25
the msg is note_on channel=0 note=72 velocity=100 time=0
the msg is note_off channel=0 note=72 velocity=0 time=12
the msg is note_on channel=0 note=72 velocity=100 time=0
the msg is note_off channel=0 note=72 velocity=0 time=29
the msg is note_on channel=0 note=72 velocity=100 time=0
the msg is note_off channel=0 note=72 velocity=0 time=8
the msg is note_on channel=0 note=72 velocity=100 time=0
the msg is note_off channel=0 note=72 velocity=0 time=25
the msg is note_on channel=0 note=72 velocity=100 time=0
the msg is note_off channel=0 note=72 velocity=0 time=12
the msg is note_on channel=0 note=72 velocity=100 time=0
the msg is note_off channel=0 note=72 velocity=0 time=12
the msg is note_on channel=0 note=72 velocity=100 time=0
the msg is note_off channel=0 note=72 velocity=0 time=12
the msg is note_on channel=0 note=72 velocity=100 time=0
the msg is note_off channel=0 note=76 velocity=0 time=12
the msg is note_on channel=0 note=76 velocity=100 time=0
the msg is note_off channel=0 note=79 velocity=0 time=25
the msg is note_on channel=0 note=79 velocity=100 time=0
the msg is note_off channel=0 note=79 velocity=0 time=12
the msg is note_on channel=0 note=79 velocity=100 time=0
the msg is note_off channel=0 note=76 velocity=0 time=12
the msg is note_on channel=0 note=76 velocity=100 time=0
the msg is note_off channel=0 note=74 velocity=0 time=12
the msg is note_on channel=0 note=74 velocity=100 time=0
the msg is note_off channel=0 note=72 velocity=0 time=12
the msg is note_on channel=0 note=72 velocity=100 time=0
the msg is note_off channel=0 note=72 velocity=0 time=76
the msg is note_on channel=0 note=72 velocity=100 time=0
the msg is note_off channel=0 note=72 velocity=0 time=12
the msg is note_on channel=0 note=72 velocity=100 time=0
the msg is note_off channel=0 note=72 velocity=0 time=12
the msg is note_on channel=0 note=72 velocity=100 time=0
the msg is note_off channel=0 note=72 velocity=0 time=8
the msg is note_on channel=0 note=72 velocity=100 time=0
the msg is note_off channel=0 note=72 velocity=0 time=17
the msg is note_on channel=0 note=72 velocity=100 time=0
the msg is note_off channel=0 note=72 velocity=0 time=12
the msg is note_on channel=0 note=72 velocity=100 time=0
the msg is note_off channel=0 note=72 velocity=0 time=12
the msg is note_on channel=0 note=72 velocity=100 time=0
the msg is note_off channel=0 note=76 velocity=0 time=8
the msg is note_on channel=0 note=76 velocity=100 time=0
the msg is note_off channel=0 note=79 velocity=0 time=29
the msg is note_on channel=0 note=79 velocity=100 time=0
the msg is note_off channel=0 note=79 velocity=0 time=12
the msg is note_on channel=0 note=79 velocity=100 time=0
the msg is note_off channel=0 note=76 velocity=0 time=8
the msg is note_on channel=0 note=76 velocity=100 time=0
the msg is note_off channel=0 note=74 velocity=0 time=17
the msg is note_on channel=0 note=74 velocity=100 time=0
the msg is <meta message end_of_track time=51>
the msg is <meta message track_name name='Piano' time=0>
the msg is program_change channel=0 program=0 time=0
the msg is note_off channel=0 note=72 velocity=0 time=0
the msg is pitchwheel channel=0 pitch=0 time=0
the msg is program_change channel=0 program=0 time=0
the msg is <meta message set_tempo tempo=500000 time=0>
the msg is <meta message time_signature numerator=4 denominator=4 clocks_per_click=24 notated_32nd_notes_per_beat=8 time=0>
the msg is note_on channel=0 note=72 velocity=100 time=0
the msg is note_off channel=0 note=74 velocity=0 time=34
the msg is note_on channel=0 note=74 velocity=100 time=0
the msg is note_off channel=0 note=74 velocity=0 time=17
the msg is note_on channel=0 note=74 velocity=100 time=0
the msg is note_off channel=0 note=74 velocity=0 time=34
the msg is note_on channel=0 note=74 velocity=100 time=0
the msg is note_off channel=0 note=74 velocity=0 time=17
the msg is note_on channel=0 note=74 velocity=100 time=0
the msg is note_off channel=0 note=76 velocity=0 time=34
the msg is note_on channel=0 note=76 velocity=100 time=0
the msg is note_off channel=0 note=79 velocity=0 time=17
the msg is note_on channel=0 note=79 velocity=100 time=0
the msg is note_off channel=0 note=79 velocity=0 time=17
the msg is note_on channel=0 note=79 velocity=100 time=0
the msg is note_off channel=0 note=76 velocity=0 time=17
the msg is note_on channel=0 note=76 velocity=100 time=0
the msg is note_off channel=0 note=74 velocity=0 time=4
the msg is note_on channel=0 note=74 velocity=100 time=0
the msg is note_off channel=0 note=72 velocity=0 time=12
the msg is note_on channel=0 note=72 velocity=100 time=0
the msg is note_off channel=0 note=72 velocity=0 time=89
the msg is note_on channel=0 note=72 velocity=100 time=0
the msg is note_off channel=0 note=72 velocity=0 time=12
the msg is note_on channel=0 note=72 velocity=100 time=0
the msg is note_off channel=0 note=74 velocity=0 time=25
the msg is note_on channel=0 note=74 velocity=100 time=0
the msg is note_off channel=0 note=74 velocity=0 time=25
the msg is note_on channel=0 note=74 velocity=100 time=0
the msg is note_off channel=0 note=74 velocity=0 time=12
the msg is note_on channel=0 note=74 velocity=100 time=0
the msg is note_off channel=0 note=76 velocity=0 time=25
the msg is note_on channel=0 note=76 velocity=100 time=0
the msg is note_off channel=0 note=79 velocity=0 time=25
the msg is note_on channel=0 note=79 velocity=100 time=0
the msg is note_off channel=0 note=79 velocity=0 time=12
the msg is note_on channel=0 note=79 velocity=100 time=0
the msg is note_off channel=0 note=76 velocity=0 time=12
the msg is note_on channel=0 note=76 velocity=100 time=0
the msg is note_off channel=0 note=74 velocity=0 time=12
the msg is note_on channel=0 note=74 velocity=100 time=0
the msg is note_off channel=0 note=72 velocity=0 time=12
the msg is note_on channel=0 note=72 velocity=100 time=0
the msg is note_off channel=0 note=74 velocity=0 time=25
the msg is note_on channel=0 note=74 velocity=100 time=0
the msg is note_off channel=0 note=76 velocity=0 time=25
the msg is note_on channel=0 note=76 velocity=100 time=0
the msg is note_off channel=0 note=79 velocity=0 time=25
the msg is note_on channel=0 note=79 velocity=100 time=0
the msg is note_off channel=0 note=79 velocity=0 time=12
the msg is note_on channel=0 note=79 velocity=100 time=0
the msg is note_off channel=0 note=76 velocity=0 time=12
the msg is note_on channel=0 note=76 velocity=100 time=0
the msg is note_off channel=0 note=74 velocity=0 time=12
the msg is note_on channel=0 note=74 velocity=100 time=0
the msg is note_off channel=0 note=72 velocity=0 time=12
the msg is note_on channel=0 note=72 velocity=100 time=0
the msg is note_off channel=0 note=74 velocity=0 time=25
the msg is note_on channel=0 note=74 velocity=100 time=0
the msg is note_off channel=0 note=74 velocity=0 time=12
the msg is note_on channel=0 note=74 velocity=100 time=0
the msg is note_off channel=0 note=74 velocity=0 time=12
the msg is note_on channel=0 note=74 velocity=100 time=0
the msg is note_off channel=0 note=74 velocity=0 time=25
the msg is note_on channel=0 note=74 velocity=100 time=0
the msg is note_off channel=0 note=74 velocity=0 time=25
the msg is note_on channel=0 note=74 velocity=100 time=0
the msg is note_off channel=0 note=76 velocity=0 time=25
the msg is note_on channel=0 note=76 velocity=100 time=0
the msg is note_off channel=0 note=79 velocity=0 time=25
the msg is note_on channel=0 note=79 velocity=100 time=0
the msg is note_off channel=0 note=79 velocity=0 time=12
the msg is note_on channel=0 note=79 velocity=100 time=0
the msg is note_off channel=0 note=76 velocity=0 time=12
the msg is note_on channel=0 note=76 velocity=100 time=0
the msg is note_off channel=0 note=74 velocity=0 time=12
the msg is note_on channel=0 note=74 velocity=100 time=0
the msg is note_off channel=0 note=72 velocity=0 time=12
the msg is note_on channel=0 note=72 velocity=100 time=0
the msg is note_off channel=0 note=72 velocity=0 time=81
the msg is note_on channel=0 note=72 velocity=100 time=0
the msg is note_off channel=0 note=72 velocity=0 time=8
the msg is note_on channel=0 note=72 velocity=100 time=0
the msg is note_off channel=0 note=74 velocity=0 time=25
the msg is note_on channel=0 note=74 velocity=100 time=0
the msg is note_off channel=0 note=74 velocity=0 time=25
the msg is note_on channel=0 note=74 velocity=100 time=0
the msg is note_off channel=0 note=74 velocity=0 time=25
the msg is note_on channel=0 note=74 velocity=100 time=0
the msg is note_off channel=0 note=74 velocity=0 time=25
the msg is note_on channel=0 note=74 velocity=100 time=0
the msg is note_off channel=0 note=74 velocity=0 time=25
the msg is note_on channel=0 note=74 velocity=100 time=0
the msg is note_off channel=0 note=74 velocity=0 time=25
the msg is note_on channel=0 note=74 velocity=100 time=0
the msg is note_off channel=0 note=76 velocity=0 time=25
the msg is note_on channel=0 note=76 velocity=100 time=0
the msg is note_off channel=0 note=79 velocity=0 time=25
the msg is note_on channel=0 note=79 velocity=100 time=0
the msg is note_off channel=0 note=79 velocity=0 time=12
the msg is note_on channel=0 note=79 velocity=100 time=0
the msg is note_off channel=0 note=76 velocity=0 time=12
the msg is note_on channel=0 note=76 velocity=100 time=0
the msg is note_off channel=0 note=74 velocity=0 time=17
the msg is note_on channel=0 note=74 velocity=100 time=0
the msg is note_off channel=0 note=72 velocity=0 time=8
the msg is note_on channel=0 note=72 velocity=100 time=0
the msg is note_off channel=0 note=72 velocity=0 time=25
the msg is note_on channel=0 note=72 velocity=100 time=0
the msg is note_off channel=0 note=72 velocity=0 time=25
the msg is note_on channel=0 note=72 velocity=100 time=0
the msg is note_off channel=0 note=72 velocity=0 time=12
the msg is note_on channel=0 note=72 velocity=100 time=0
the msg is note_off channel=0 note=72 velocity=0 time=29
the msg is note_on channel=0 note=72 velocity=100 time=0
the msg is note_off channel=0 note=72 velocity=0 time=8
the msg is note_on channel=0 note=72 velocity=100 time=0
the msg is note_off channel=0 note=72 velocity=0 time=25
the msg is note_on channel=0 note=72 velocity=100 time=0
the msg is note_off channel=0 note=72 velocity=0 time=12
the msg is note_on channel=0 note=72 velocity=100 time=0
the msg is note_off channel=0 note=72 velocity=0 time=12
the msg is note_on channel=0 note=72 velocity=100 time=0
the msg is note_off channel=0 note=72 velocity=0 time=12
the msg is note_on channel=0 note=72 velocity=100 time=0
the msg is note_off channel=0 note=76 velocity=0 time=12
the msg is note_on channel=0 note=76 velocity=100 time=0
the msg is note_off channel=0 note=79 velocity=0 time=25
the msg is note_on channel=0 note=79 velocity=100 time=0
the msg is note_off channel=0 note=79 velocity=0 time=12
the msg is note_on channel=0 note=79 velocity=100 time=0
the msg is note_off channel=0 note=76 velocity=0 time=12
the msg is note_on channel=0 note=76 velocity=100 time=0
the msg is note_off channel=0 note=74 velocity=0 time=12
the msg is note_on channel=0 note=74 velocity=100 time=0
the msg is note_off channel=0 note=72 velocity=0 time=12
the msg is note_on channel=0 note=72 velocity=100 time=0
the msg is note_off channel=0 note=72 velocity=0 time=76
the msg is note_on channel=0 note=72 velocity=100 time=0
the msg is note_off channel=0 note=72 velocity=0 time=12
the msg is note_on channel=0 note=72 velocity=100 time=0
the msg is note_off channel=0 note=72 velocity=0 time=12
the msg is note_on channel=0 note=72 velocity=100 time=0
the msg is note_off channel=0 note=72 velocity=0 time=8
the msg is note_on channel=0 note=72 velocity=100 time=0
the msg is note_off channel=0 note=72 velocity=0 time=17
the msg is note_on channel=0 note=72 velocity=100 time=0
the msg is note_off channel=0 note=72 velocity=0 time=12
the msg is note_on channel=0 note=72 velocity=100 time=0
the msg is note_off channel=0 note=72 velocity=0 time=12
the msg is note_on channel=0 note=72 velocity=100 time=0
the msg is note_off channel=0 note=76 velocity=0 time=8
the msg is note_on channel=0 note=76 velocity=100 time=0
the msg is note_off channel=0 note=79 velocity=0 time=29
the msg is note_on channel=0 note=79 velocity=100 time=0
the msg is note_off channel=0 note=79 velocity=0 time=12
the msg is note_on channel=0 note=79 velocity=100 time=0
the msg is note_off channel=0 note=76 velocity=0 time=8
the msg is note_on channel=0 note=76 velocity=100 time=0
the msg is note_off channel=0 note=74 velocity=0 time=17
the msg is note_on channel=0 note=74 velocity=100 time=0
the msg is <meta message end_of_track time=51>
the msg is <meta message track_name name='Piano' time=0>
the msg is program_change channel=0 program=0 time=0
the msg is note_off channel=0 note=72 velocity=0 time=0
the msg is pitchwheel channel=0 pitch=0 time=0
the msg is program_change channel=0 program=0 time=0
the msg is <meta message set_tempo tempo=500000 time=0>
the msg is <meta message time_signature numerator=4 denominator=4 clocks_per_click=24 notated_32nd_notes_per_beat=8 time=0>
the msg is note_on channel=0 note=72 velocity=100 time=0
the msg is note_off channel=0 note=74 velocity=0 time=34
the msg is note_on channel=0 note=74 velocity=100 time=0
the msg is note_off channel=0 note=74 velocity=0 time=17
the msg is note_on channel=0 note=74 velocity=100 time=0
the msg is note_off channel=0 note=74 velocity=0 time=34
the msg is note_on channel=0 note=74 velocity=100 time=0
the msg is note_off channel=0 note=74 velocity=0 time=17
the msg is note_on channel=0 note=74 velocity=100 time=0
the msg is note_off channel=0 note=76 velocity=0 time=34
the msg is note_on channel=0 note=76 velocity=100 time=0
the msg is note_off channel=0 note=79 velocity=0 time=17
the msg is note_on channel=0 note=79 velocity=100 time=0
the msg is note_off channel=0 note=79 velocity=0 time=17
the msg is note_on channel=0 note=79 velocity=100 time=0
the msg is note_off channel=0 note=76 velocity=0 time=17
the msg is note_on channel=0 note=76 velocity=100 time=0
the msg is note_off channel=0 note=74 velocity=0 time=4
the msg is note_on channel=0 note=74 velocity=100 time=0
the msg is note_off channel=0 note=72 velocity=0 time=12
the msg is note_on channel=0 note=72 velocity=100 time=0
the msg is note_off channel=0 note=72 velocity=0 time=89
the msg is note_on channel=0 note=72 velocity=100 time=0
the msg is note_off channel=0 note=72 velocity=0 time=12
the msg is note_on channel=0 note=72 velocity=100 time=0
the msg is note_off channel=0 note=74 velocity=0 time=25
the msg is note_on channel=0 note=74 velocity=100 time=0
the msg is note_off channel=0 note=74 velocity=0 time=25
the msg is note_on channel=0 note=74 velocity=100 time=0
the msg is note_off channel=0 note=74 velocity=0 time=12
the msg is note_on channel=0 note=74 velocity=100 time=0
the msg is note_off channel=0 note=76 velocity=0 time=25
the msg is note_on channel=0 note=76 velocity=100 time=0
the msg is note_off channel=0 note=79 velocity=0 time=25
the msg is note_on channel=0 note=79 velocity=100 time=0
the msg is note_off channel=0 note=79 velocity=0 time=12
the msg is note_on channel=0 note=79 velocity=100 time=0
the msg is note_off channel=0 note=76 velocity=0 time=12
the msg is note_on channel=0 note=76 velocity=100 time=0
the msg is note_off channel=0 note=74 velocity=0 time=12
the msg is note_on channel=0 note=74 velocity=100 time=0
the msg is note_off channel=0 note=72 velocity=0 time=12
the msg is note_on channel=0 note=72 velocity=100 time=0
the msg is note_off channel=0 note=74 velocity=0 time=25
the msg is note_on channel=0 note=74 velocity=100 time=0
the msg is note_off channel=0 note=76 velocity=0 time=25
the msg is note_on channel=0 note=76 velocity=100 time=0
the msg is note_off channel=0 note=79 velocity=0 time=25
the msg is note_on channel=0 note=79 velocity=100 time=0
the msg is note_off channel=0 note=79 velocity=0 time=12
the msg is note_on channel=0 note=79 velocity=100 time=0
the msg is note_off channel=0 note=76 velocity=0 time=12
the msg is note_on channel=0 note=76 velocity=100 time=0
the msg is note_off channel=0 note=74 velocity=0 time=12
the msg is note_on channel=0 note=74 velocity=100 time=0
the msg is note_off channel=0 note=72 velocity=0 time=12
the msg is note_on channel=0 note=72 velocity=100 time=0
the msg is note_off channel=0 note=74 velocity=0 time=25
the msg is note_on channel=0 note=74 velocity=100 time=0
the msg is note_off channel=0 note=74 velocity=0 time=12
the msg is note_on channel=0 note=74 velocity=100 time=0
the msg is note_off channel=0 note=74 velocity=0 time=12
the msg is note_on channel=0 note=74 velocity=100 time=0
the msg is note_off channel=0 note=74 velocity=0 time=25
the msg is note_on channel=0 note=74 velocity=100 time=0
the msg is note_off channel=0 note=74 velocity=0 time=25
the msg is note_on channel=0 note=74 velocity=100 time=0
the msg is note_off channel=0 note=76 velocity=0 time=25
the msg is note_on channel=0 note=76 velocity=100 time=0
the msg is note_off channel=0 note=79 velocity=0 time=25
the msg is note_on channel=0 note=79 velocity=100 time=0
the msg is note_off channel=0 note=79 velocity=0 time=12
the msg is note_on channel=0 note=79 velocity=100 time=0
the msg is note_off channel=0 note=76 velocity=0 time=12
the msg is note_on channel=0 note=76 velocity=100 time=0
the msg is note_off channel=0 note=74 velocity=0 time=12
the msg is note_on channel=0 note=74 velocity=100 time=0
the msg is note_off channel=0 note=72 velocity=0 time=12
the msg is note_on channel=0 note=72 velocity=100 time=0
the msg is note_off channel=0 note=72 velocity=0 time=81
the msg is note_on channel=0 note=72 velocity=100 time=0
the msg is note_off channel=0 note=72 velocity=0 time=8
the msg is note_on channel=0 note=72 velocity=100 time=0
the msg is note_off channel=0 note=74 velocity=0 time=25
the msg is note_on channel=0 note=74 velocity=100 time=0
the msg is note_off channel=0 note=74 velocity=0 time=25
the msg is note_on channel=0 note=74 velocity=100 time=0
the msg is note_off channel=0 note=74 velocity=0 time=25
the msg is note_on channel=0 note=74 velocity=100 time=0
the msg is note_off channel=0 note=74 velocity=0 time=25
the msg is note_on channel=0 note=74 velocity=100 time=0
the msg is note_off channel=0 note=74 velocity=0 time=25
the msg is note_on channel=0 note=74 velocity=100 time=0
the msg is note_off channel=0 note=74 velocity=0 time=25
the msg is note_on channel=0 note=74 velocity=100 time=0
the msg is note_off channel=0 note=76 velocity=0 time=25
the msg is note_on channel=0 note=76 velocity=100 time=0
the msg is note_off channel=0 note=79 velocity=0 time=25
the msg is note_on channel=0 note=79 velocity=100 time=0
the msg is note_off channel=0 note=79 velocity=0 time=12
the msg is note_on channel=0 note=79 velocity=100 time=0
the msg is note_off channel=0 note=76 velocity=0 time=12
the msg is note_on channel=0 note=76 velocity=100 time=0
the msg is note_off channel=0 note=74 velocity=0 time=17
the msg is note_on channel=0 note=74 velocity=100 time=0
the msg is note_off channel=0 note=72 velocity=0 time=8
the msg is note_on channel=0 note=72 velocity=100 time=0
the msg is note_off channel=0 note=72 velocity=0 time=25
the msg is note_on channel=0 note=72 velocity=100 time=0
the msg is note_off channel=0 note=72 velocity=0 time=25
the msg is note_on channel=0 note=72 velocity=100 time=0
the msg is note_off channel=0 note=72 velocity=0 time=12
the msg is note_on channel=0 note=72 velocity=100 time=0
the msg is note_off channel=0 note=72 velocity=0 time=29
the msg is note_on channel=0 note=72 velocity=100 time=0
the msg is note_off channel=0 note=72 velocity=0 time=8
the msg is note_on channel=0 note=72 velocity=100 time=0
the msg is note_off channel=0 note=72 velocity=0 time=25
the msg is note_on channel=0 note=72 velocity=100 time=0
the msg is note_off channel=0 note=72 velocity=0 time=12
the msg is note_on channel=0 note=72 velocity=100 time=0
the msg is note_off channel=0 note=72 velocity=0 time=12
the msg is note_on channel=0 note=72 velocity=100 time=0
the msg is note_off channel=0 note=72 velocity=0 time=12
the msg is note_on channel=0 note=72 velocity=100 time=0
the msg is note_off channel=0 note=76 velocity=0 time=12
the msg is note_on channel=0 note=76 velocity=100 time=0
the msg is note_off channel=0 note=79 velocity=0 time=25
the msg is note_on channel=0 note=79 velocity=100 time=0
the msg is note_off channel=0 note=79 velocity=0 time=12
the msg is note_on channel=0 note=79 velocity=100 time=0
the msg is note_off channel=0 note=76 velocity=0 time=12
the msg is note_on channel=0 note=76 velocity=100 time=0
the msg is note_off channel=0 note=74 velocity=0 time=12
the msg is note_on channel=0 note=74 velocity=100 time=0
the msg is note_off channel=0 note=72 velocity=0 time=12
the msg is note_on channel=0 note=72 velocity=100 time=0
the msg is note_off channel=0 note=72 velocity=0 time=76
the msg is note_on channel=0 note=72 velocity=100 time=0
the msg is note_off channel=0 note=72 velocity=0 time=12
the msg is note_on channel=0 note=72 velocity=100 time=0
the msg is note_off channel=0 note=72 velocity=0 time=12
the msg is note_on channel=0 note=72 velocity=100 time=0
the msg is note_off channel=0 note=72 velocity=0 time=8
the msg is note_on channel=0 note=72 velocity=100 time=0
the msg is note_off channel=0 note=72 velocity=0 time=17
the msg is note_on channel=0 note=72 velocity=100 time=0
the msg is note_off channel=0 note=72 velocity=0 time=12
the msg is note_on channel=0 note=72 velocity=100 time=0
the msg is note_off channel=0 note=72 velocity=0 time=12
the msg is note_on channel=0 note=72 velocity=100 time=0
the msg is note_off channel=0 note=76 velocity=0 time=8
the msg is note_on channel=0 note=76 velocity=100 time=0
the msg is note_off channel=0 note=79 velocity=0 time=29
the msg is note_on channel=0 note=79 velocity=100 time=0
the msg is note_off channel=0 note=79 velocity=0 time=12
the msg is note_on channel=0 note=79 velocity=100 time=0
the msg is note_off channel=0 note=76 velocity=0 time=8
the msg is note_on channel=0 note=76 velocity=100 time=0
the msg is note_off channel=0 note=74 velocity=0 time=17
the msg is note_on channel=0 note=74 velocity=100 time=0
the msg is <meta message end_of_track time=51>
the msg is <meta message track_name name='Piano' time=0>
the msg is program_change channel=0 program=0 time=0
the msg is note_off channel=0 note=72 velocity=0 time=0
the msg is pitchwheel channel=0 pitch=0 time=0
the msg is program_change channel=0 program=0 time=0
the msg is <meta message set_tempo tempo=500000 time=0>
the msg is <meta message time_signature numerator=4 denominator=4 clocks_per_click=24 notated_32nd_notes_per_beat=8 time=0>
the msg is note_on channel=0 note=72 velocity=100 time=0
the msg is note_off channel=0 note=74 velocity=0 time=34
the msg is note_on channel=0 note=74 velocity=100 time=0
the msg is note_off channel=0 note=74 velocity=0 time=17
the msg is note_on channel=0 note=74 velocity=100 time=0
the msg is note_off channel=0 note=74 velocity=0 time=34
the msg is note_on channel=0 note=74 velocity=100 time=0
the msg is note_off channel=0 note=74 velocity=0 time=17
the msg is note_on channel=0 note=74 velocity=100 time=0
the msg is note_off channel=0 note=76 velocity=0 time=34
the msg is note_on channel=0 note=76 velocity=100 time=0
the msg is note_off channel=0 note=79 velocity=0 time=17
the msg is note_on channel=0 note=79 velocity=100 time=0
the msg is note_off channel=0 note=79 velocity=0 time=17
the msg is note_on channel=0 note=79 velocity=100 time=0
the msg is note_off channel=0 note=76 velocity=0 time=17
the msg is note_on channel=0 note=76 velocity=100 time=0
the msg is note_off channel=0 note=74 velocity=0 time=4
the msg is note_on channel=0 note=74 velocity=100 time=0
the msg is note_off channel=0 note=72 velocity=0 time=12
the msg is note_on channel=0 note=72 velocity=100 time=0
the msg is note_off channel=0 note=72 velocity=0 time=89
the msg is note_on channel=0 note=72 velocity=100 time=0
the msg is note_off channel=0 note=72 velocity=0 time=12
the msg is note_on channel=0 note=72 velocity=100 time=0
the msg is note_off channel=0 note=74 velocity=0 time=25
the msg is note_on channel=0 note=74 velocity=100 time=0
the msg is note_off channel=0 note=74 velocity=0 time=25
the msg is note_on channel=0 note=74 velocity=100 time=0
the msg is note_off channel=0 note=74 velocity=0 time=12
the msg is note_on channel=0 note=74 velocity=100 time=0
the msg is note_off channel=0 note=76 velocity=0 time=25
the msg is note_on channel=0 note=76 velocity=100 time=0
the msg is note_off channel=0 note=79 velocity=0 time=25
the msg is note_on channel=0 note=79 velocity=100 time=0
the msg is note_off channel=0 note=79 velocity=0 time=12
the msg is note_on channel=0 note=79 velocity=100 time=0
the msg is note_off channel=0 note=76 velocity=0 time=12
the msg is note_on channel=0 note=76 velocity=100 time=0
the msg is note_off channel=0 note=74 velocity=0 time=12
the msg is note_on channel=0 note=74 velocity=100 time=0
the msg is note_off channel=0 note=72 velocity=0 time=12
the msg is note_on channel=0 note=72 velocity=100 time=0
the msg is note_off channel=0 note=74 velocity=0 time=25
the msg is note_on channel=0 note=74 velocity=100 time=0
the msg is note_off channel=0 note=76 velocity=0 time=25
the msg is note_on channel=0 note=76 velocity=100 time=0
the msg is note_off channel=0 note=79 velocity=0 time=25
the msg is note_on channel=0 note=79 velocity=100 time=0
the msg is note_off channel=0 note=79 velocity=0 time=12
the msg is note_on channel=0 note=79 velocity=100 time=0
the msg is note_off channel=0 note=76 velocity=0 time=12
the msg is note_on channel=0 note=76 velocity=100 time=0
the msg is note_off channel=0 note=74 velocity=0 time=12
the msg is note_on channel=0 note=74 velocity=100 time=0
the msg is note_off channel=0 note=72 velocity=0 time=12
the msg is note_on channel=0 note=72 velocity=100 time=0
the msg is note_off channel=0 note=74 velocity=0 time=25
the msg is note_on channel=0 note=74 velocity=100 time=0
the msg is note_off channel=0 note=74 velocity=0 time=12
the msg is note_on channel=0 note=74 velocity=100 time=0
the msg is note_off channel=0 note=74 velocity=0 time=12
the msg is note_on channel=0 note=74 velocity=100 time=0
the msg is note_off channel=0 note=74 velocity=0 time=25
the msg is note_on channel=0 note=74 velocity=100 time=0
the msg is note_off channel=0 note=74 velocity=0 time=25
the msg is note_on channel=0 note=74 velocity=100 time=0
the msg is note_off channel=0 note=76 velocity=0 time=25
the msg is note_on channel=0 note=76 velocity=100 time=0
the msg is note_off channel=0 note=79 velocity=0 time=25
the msg is note_on channel=0 note=79 velocity=100 time=0
the msg is note_off channel=0 note=79 velocity=0 time=12
the msg is note_on channel=0 note=79 velocity=100 time=0
the msg is note_off channel=0 note=76 velocity=0 time=12
the msg is note_on channel=0 note=76 velocity=100 time=0
the msg is note_off channel=0 note=74 velocity=0 time=12
the msg is note_on channel=0 note=74 velocity=100 time=0
the msg is note_off channel=0 note=72 velocity=0 time=12
the msg is note_on channel=0 note=72 velocity=100 time=0
the msg is note_off channel=0 note=72 velocity=0 time=81
the msg is note_on channel=0 note=72 velocity=100 time=0
the msg is note_off channel=0 note=72 velocity=0 time=8
the msg is note_on channel=0 note=72 velocity=100 time=0
the msg is note_off channel=0 note=74 velocity=0 time=25
the msg is note_on channel=0 note=74 velocity=100 time=0
the msg is note_off channel=0 note=74 velocity=0 time=25
the msg is note_on channel=0 note=74 velocity=100 time=0
the msg is note_off channel=0 note=74 velocity=0 time=25
the msg is note_on channel=0 note=74 velocity=100 time=0
the msg is note_off channel=0 note=74 velocity=0 time=25
the msg is note_on channel=0 note=74 velocity=100 time=0
the msg is note_off channel=0 note=74 velocity=0 time=25
the msg is note_on channel=0 note=74 velocity=100 time=0
the msg is note_off channel=0 note=74 velocity=0 time=25
the msg is note_on channel=0 note=74 velocity=100 time=0
the msg is note_off channel=0 note=76 velocity=0 time=25
the msg is note_on channel=0 note=76 velocity=100 time=0
the msg is note_off channel=0 note=79 velocity=0 time=25
the msg is note_on channel=0 note=79 velocity=100 time=0
the msg is note_off channel=0 note=79 velocity=0 time=12
the msg is note_on channel=0 note=79 velocity=100 time=0
the msg is note_off channel=0 note=76 velocity=0 time=12
the msg is note_on channel=0 note=76 velocity=100 time=0
the msg is note_off channel=0 note=74 velocity=0 time=17
the msg is note_on channel=0 note=74 velocity=100 time=0
the msg is note_off channel=0 note=72 velocity=0 time=8
the msg is note_on channel=0 note=72 velocity=100 time=0
the msg is note_off channel=0 note=72 velocity=0 time=25
the msg is note_on channel=0 note=72 velocity=100 time=0
the msg is note_off channel=0 note=72 velocity=0 time=25
the msg is note_on channel=0 note=72 velocity=100 time=0
the msg is note_off channel=0 note=72 velocity=0 time=12
the msg is note_on channel=0 note=72 velocity=100 time=0
the msg is note_off channel=0 note=72 velocity=0 time=29
the msg is note_on channel=0 note=72 velocity=100 time=0
the msg is note_off channel=0 note=72 velocity=0 time=8
the msg is note_on channel=0 note=72 velocity=100 time=0
the msg is note_off channel=0 note=72 velocity=0 time=25
the msg is note_on channel=0 note=72 velocity=100 time=0
the msg is note_off channel=0 note=72 velocity=0 time=12
the msg is note_on channel=0 note=72 velocity=100 time=0
the msg is note_off channel=0 note=72 velocity=0 time=12
the msg is note_on channel=0 note=72 velocity=100 time=0
the msg is note_off channel=0 note=72 velocity=0 time=12
the msg is note_on channel=0 note=72 velocity=100 time=0
the msg is note_off channel=0 note=76 velocity=0 time=12
the msg is note_on channel=0 note=76 velocity=100 time=0
the msg is note_off channel=0 note=79 velocity=0 time=25
the msg is note_on channel=0 note=79 velocity=100 time=0
the msg is note_off channel=0 note=79 velocity=0 time=12
the msg is note_on channel=0 note=79 velocity=100 time=0
the msg is note_off channel=0 note=76 velocity=0 time=12
the msg is note_on channel=0 note=76 velocity=100 time=0
the msg is note_off channel=0 note=74 velocity=0 time=12
the msg is note_on channel=0 note=74 velocity=100 time=0
the msg is note_off channel=0 note=72 velocity=0 time=12
the msg is note_on channel=0 note=72 velocity=100 time=0
the msg is note_off channel=0 note=72 velocity=0 time=76
the msg is note_on channel=0 note=72 velocity=100 time=0
the msg is note_off channel=0 note=72 velocity=0 time=12
the msg is note_on channel=0 note=72 velocity=100 time=0
the msg is note_off channel=0 note=72 velocity=0 time=12
the msg is note_on channel=0 note=72 velocity=100 time=0
the msg is note_off channel=0 note=72 velocity=0 time=8
the msg is note_on channel=0 note=72 velocity=100 time=0
the msg is note_off channel=0 note=72 velocity=0 time=17
the msg is note_on channel=0 note=72 velocity=100 time=0
the msg is note_off channel=0 note=72 velocity=0 time=12
the msg is note_on channel=0 note=72 velocity=100 time=0
the msg is note_off channel=0 note=72 velocity=0 time=12
the msg is note_on channel=0 note=72 velocity=100 time=0
the msg is note_off channel=0 note=76 velocity=0 time=8
the msg is note_on channel=0 note=76 velocity=100 time=0
the msg is note_off channel=0 note=79 velocity=0 time=29
the msg is note_on channel=0 note=79 velocity=100 time=0
the msg is note_off channel=0 note=79 velocity=0 time=12
the msg is note_on channel=0 note=79 velocity=100 time=0
the msg is note_off channel=0 note=76 velocity=0 time=8
the msg is note_on channel=0 note=76 velocity=100 time=0
the msg is note_off channel=0 note=74 velocity=0 time=17
the msg is note_on channel=0 note=74 velocity=100 time=0
the msg is <meta message end_of_track time=51>
the msg is <meta message track_name name='Piano' time=0>
the msg is program_change channel=0 program=0 time=0
the msg is note_off channel=0 note=72 velocity=0 time=0
the msg is pitchwheel channel=0 pitch=0 time=0
the msg is program_change channel=0 program=0 time=0
the msg is <meta message set_tempo tempo=500000 time=0>
the msg is <meta message time_signature numerator=4 denominator=4 clocks_per_click=24 notated_32nd_notes_per_beat=8 time=0>
the msg is note_on channel=0 note=72 velocity=100 time=0
the msg is note_off channel=0 note=74 velocity=0 time=34
the msg is note_on channel=0 note=74 velocity=100 time=0
the msg is note_off channel=0 note=74 velocity=0 time=17
the msg is note_on channel=0 note=74 velocity=100 time=0
the msg is note_off channel=0 note=74 velocity=0 time=34
the msg is note_on channel=0 note=74 velocity=100 time=0
the msg is note_off channel=0 note=74 velocity=0 time=17
the msg is note_on channel=0 note=74 velocity=100 time=0
the msg is note_off channel=0 note=76 velocity=0 time=34
the msg is note_on channel=0 note=76 velocity=100 time=0
the msg is note_off channel=0 note=79 velocity=0 time=17
the msg is note_on channel=0 note=79 velocity=100 time=0
the msg is note_off channel=0 note=79 velocity=0 time=17
the msg is note_on channel=0 note=79 velocity=100 time=0
the msg is note_off channel=0 note=76 velocity=0 time=17
the msg is note_on channel=0 note=76 velocity=100 time=0
the msg is note_off channel=0 note=74 velocity=0 time=4
the msg is note_on channel=0 note=74 velocity=100 time=0
the msg is note_off channel=0 note=72 velocity=0 time=12
the msg is note_on channel=0 note=72 velocity=100 time=0
the msg is note_off channel=0 note=72 velocity=0 time=89
the msg is note_on channel=0 note=72 velocity=100 time=0
the msg is note_off channel=0 note=72 velocity=0 time=12
the msg is note_on channel=0 note=72 velocity=100 time=0
the msg is note_off channel=0 note=74 velocity=0 time=25
the msg is note_on channel=0 note=74 velocity=100 time=0
the msg is note_off channel=0 note=74 velocity=0 time=25
the msg is note_on channel=0 note=74 velocity=100 time=0
the msg is note_off channel=0 note=74 velocity=0 time=12
the msg is note_on channel=0 note=74 velocity=100 time=0
the msg is note_off channel=0 note=76 velocity=0 time=25
the msg is note_on channel=0 note=76 velocity=100 time=0
the msg is note_off channel=0 note=79 velocity=0 time=25
the msg is note_on channel=0 note=79 velocity=100 time=0
the msg is note_off channel=0 note=79 velocity=0 time=12
the msg is note_on channel=0 note=79 velocity=100 time=0
the msg is note_off channel=0 note=76 velocity=0 time=12
the msg is note_on channel=0 note=76 velocity=100 time=0
the msg is note_off channel=0 note=74 velocity=0 time=12
the msg is note_on channel=0 note=74 velocity=100 time=0
the msg is note_off channel=0 note=72 velocity=0 time=12
the msg is note_on channel=0 note=72 velocity=100 time=0
the msg is note_off channel=0 note=74 velocity=0 time=25
the msg is note_on channel=0 note=74 velocity=100 time=0
the msg is note_off channel=0 note=76 velocity=0 time=25
the msg is note_on channel=0 note=76 velocity=100 time=0
the msg is note_off channel=0 note=79 velocity=0 time=25
the msg is note_on channel=0 note=79 velocity=100 time=0
the msg is note_off channel=0 note=79 velocity=0 time=12
the msg is note_on channel=0 note=79 velocity=100 time=0
the msg is note_off channel=0 note=76 velocity=0 time=12
the msg is note_on channel=0 note=76 velocity=100 time=0
the msg is note_off channel=0 note=74 velocity=0 time=12
the msg is note_on channel=0 note=74 velocity=100 time=0
the msg is note_off channel=0 note=72 velocity=0 time=12
the msg is note_on channel=0 note=72 velocity=100 time=0
the msg is note_off channel=0 note=74 velocity=0 time=25
the msg is note_on channel=0 note=74 velocity=100 time=0
the msg is note_off channel=0 note=74 velocity=0 time=12
the msg is note_on channel=0 note=74 velocity=100 time=0
the msg is note_off channel=0 note=74 velocity=0 time=12
the msg is note_on channel=0 note=74 velocity=100 time=0
the msg is note_off channel=0 note=74 velocity=0 time=25
the msg is note_on channel=0 note=74 velocity=100 time=0
the msg is note_off channel=0 note=74 velocity=0 time=25
the msg is note_on channel=0 note=74 velocity=100 time=0
the msg is note_off channel=0 note=76 velocity=0 time=25
the msg is note_on channel=0 note=76 velocity=100 time=0
the msg is note_off channel=0 note=79 velocity=0 time=25
the msg is note_on channel=0 note=79 velocity=100 time=0
the msg is note_off channel=0 note=79 velocity=0 time=12
the msg is note_on channel=0 note=79 velocity=100 time=0
the msg is note_off channel=0 note=76 velocity=0 time=12
the msg is note_on channel=0 note=76 velocity=100 time=0
the msg is note_off channel=0 note=74 velocity=0 time=12
the msg is note_on channel=0 note=74 velocity=100 time=0
the msg is note_off channel=0 note=72 velocity=0 time=12
the msg is note_on channel=0 note=72 velocity=100 time=0
the msg is note_off channel=0 note=72 velocity=0 time=81
the msg is note_on channel=0 note=72 velocity=100 time=0
the msg is note_off channel=0 note=72 velocity=0 time=8
the msg is note_on channel=0 note=72 velocity=100 time=0
the msg is note_off channel=0 note=74 velocity=0 time=25
the msg is note_on channel=0 note=74 velocity=100 time=0
the msg is note_off channel=0 note=74 velocity=0 time=25
the msg is note_on channel=0 note=74 velocity=100 time=0
the msg is note_off channel=0 note=74 velocity=0 time=25
the msg is note_on channel=0 note=74 velocity=100 time=0
the msg is note_off channel=0 note=74 velocity=0 time=25
the msg is note_on channel=0 note=74 velocity=100 time=0
the msg is note_off channel=0 note=74 velocity=0 time=25
the msg is note_on channel=0 note=74 velocity=100 time=0
the msg is note_off channel=0 note=74 velocity=0 time=25
the msg is note_on channel=0 note=74 velocity=100 time=0
the msg is note_off channel=0 note=76 velocity=0 time=25
the msg is note_on channel=0 note=76 velocity=100 time=0
the msg is note_off channel=0 note=79 velocity=0 time=25
the msg is note_on channel=0 note=79 velocity=100 time=0
the msg is note_off channel=0 note=79 velocity=0 time=12
the msg is note_on channel=0 note=79 velocity=100 time=0
the msg is note_off channel=0 note=76 velocity=0 time=12
the msg is note_on channel=0 note=76 velocity=100 time=0
the msg is note_off channel=0 note=74 velocity=0 time=17
the msg is note_on channel=0 note=74 velocity=100 time=0
the msg is note_off channel=0 note=72 velocity=0 time=8
the msg is note_on channel=0 note=72 velocity=100 time=0
the msg is note_off channel=0 note=72 velocity=0 time=25
the msg is note_on channel=0 note=72 velocity=100 time=0
the msg is note_off channel=0 note=72 velocity=0 time=25
the msg is note_on channel=0 note=72 velocity=100 time=0
the msg is note_off channel=0 note=72 velocity=0 time=12
the msg is note_on channel=0 note=72 velocity=100 time=0
the msg is note_off channel=0 note=72 velocity=0 time=29
the msg is note_on channel=0 note=72 velocity=100 time=0
the msg is note_off channel=0 note=72 velocity=0 time=8
the msg is note_on channel=0 note=72 velocity=100 time=0
the msg is note_off channel=0 note=72 velocity=0 time=25
the msg is note_on channel=0 note=72 velocity=100 time=0
the msg is note_off channel=0 note=72 velocity=0 time=12
the msg is note_on channel=0 note=72 velocity=100 time=0
the msg is note_off channel=0 note=72 velocity=0 time=12
the msg is note_on channel=0 note=72 velocity=100 time=0
the msg is note_off channel=0 note=72 velocity=0 time=12
the msg is note_on channel=0 note=72 velocity=100 time=0
the msg is note_off channel=0 note=76 velocity=0 time=12
the msg is note_on channel=0 note=76 velocity=100 time=0
the msg is note_off channel=0 note=79 velocity=0 time=25
the msg is note_on channel=0 note=79 velocity=100 time=0
the msg is note_off channel=0 note=79 velocity=0 time=12
the msg is note_on channel=0 note=79 velocity=100 time=0
the msg is note_off channel=0 note=76 velocity=0 time=12
the msg is note_on channel=0 note=76 velocity=100 time=0
the msg is note_off channel=0 note=74 velocity=0 time=12
the msg is note_on channel=0 note=74 velocity=100 time=0
the msg is note_off channel=0 note=72 velocity=0 time=12
the msg is note_on channel=0 note=72 velocity=100 time=0
the msg is note_off channel=0 note=72 velocity=0 time=76
the msg is note_on channel=0 note=72 velocity=100 time=0
the msg is note_off channel=0 note=72 velocity=0 time=12
the msg is note_on channel=0 note=72 velocity=100 time=0
the msg is note_off channel=0 note=72 velocity=0 time=12
the msg is note_on channel=0 note=72 velocity=100 time=0
the msg is note_off channel=0 note=72 velocity=0 time=8
the msg is note_on channel=0 note=72 velocity=100 time=0
the msg is note_off channel=0 note=72 velocity=0 time=17
the msg is note_on channel=0 note=72 velocity=100 time=0
the msg is note_off channel=0 note=72 velocity=0 time=12
the msg is note_on channel=0 note=72 velocity=100 time=0
the msg is note_off channel=0 note=72 velocity=0 time=12
the msg is note_on channel=0 note=72 velocity=100 time=0
the msg is note_off channel=0 note=76 velocity=0 time=8
the msg is note_on channel=0 note=76 velocity=100 time=0
the msg is note_off channel=0 note=79 velocity=0 time=29
the msg is note_on channel=0 note=79 velocity=100 time=0
the msg is note_off channel=0 note=79 velocity=0 time=12
the msg is note_on channel=0 note=79 velocity=100 time=0
the msg is note_off channel=0 note=76 velocity=0 time=8
the msg is note_on channel=0 note=76 velocity=100 time=0
the msg is note_off channel=0 note=74 velocity=0 time=17
the msg is note_on channel=0 note=74 velocity=100 time=0
the msg is <meta message end_of_track time=51>
the msg is <meta message track_name name='Piano' time=0>
the msg is program_change channel=0 program=0 time=0
the msg is note_off channel=0 note=72 velocity=0 time=0
the msg is pitchwheel channel=0 pitch=0 time=0
the msg is program_change channel=0 program=0 time=0
the msg is <meta message set_tempo tempo=500000 time=0>
the msg is <meta message time_signature numerator=4 denominator=4 clocks_per_click=24 notated_32nd_notes_per_beat=8 time=0>
the msg is note_on channel=0 note=72 velocity=100 time=0
the msg is note_off channel=0 note=74 velocity=0 time=34
the msg is note_on channel=0 note=74 velocity=100 time=0
the msg is note_off channel=0 note=74 velocity=0 time=17
the msg is note_on channel=0 note=74 velocity=100 time=0
the msg is note_off channel=0 note=74 velocity=0 time=34
the msg is note_on channel=0 note=74 velocity=100 time=0
the msg is note_off channel=0 note=74 velocity=0 time=17
the msg is note_on channel=0 note=74 velocity=100 time=0
the msg is note_off channel=0 note=76 velocity=0 time=34
the msg is note_on channel=0 note=76 velocity=100 time=0
the msg is note_off channel=0 note=79 velocity=0 time=17
the msg is note_on channel=0 note=79 velocity=100 time=0
the msg is note_off channel=0 note=79 velocity=0 time=17
the msg is note_on channel=0 note=79 velocity=100 time=0
the msg is note_off channel=0 note=76 velocity=0 time=17
the msg is note_on channel=0 note=76 velocity=100 time=0
the msg is note_off channel=0 note=74 velocity=0 time=4
the msg is note_on channel=0 note=74 velocity=100 time=0
the msg is note_off channel=0 note=72 velocity=0 time=12
the msg is note_on channel=0 note=72 velocity=100 time=0
the msg is note_off channel=0 note=72 velocity=0 time=89
the msg is note_on channel=0 note=72 velocity=100 time=0
the msg is note_off channel=0 note=72 velocity=0 time=12
the msg is note_on channel=0 note=72 velocity=100 time=0
the msg is note_off channel=0 note=74 velocity=0 time=25
the msg is note_on channel=0 note=74 velocity=100 time=0
the msg is note_off channel=0 note=74 velocity=0 time=25
the msg is note_on channel=0 note=74 velocity=100 time=0
the msg is note_off channel=0 note=74 velocity=0 time=12
the msg is note_on channel=0 note=74 velocity=100 time=0
the msg is note_off channel=0 note=76 velocity=0 time=25
the msg is note_on channel=0 note=76 velocity=100 time=0
the msg is note_off channel=0 note=79 velocity=0 time=25
the msg is note_on channel=0 note=79 velocity=100 time=0
the msg is note_off channel=0 note=79 velocity=0 time=12
the msg is note_on channel=0 note=79 velocity=100 time=0
the msg is note_off channel=0 note=76 velocity=0 time=12
the msg is note_on channel=0 note=76 velocity=100 time=0
the msg is note_off channel=0 note=74 velocity=0 time=12
the msg is note_on channel=0 note=74 velocity=100 time=0
the msg is note_off channel=0 note=72 velocity=0 time=12
the msg is note_on channel=0 note=72 velocity=100 time=0
the msg is note_off channel=0 note=74 velocity=0 time=25
the msg is note_on channel=0 note=74 velocity=100 time=0
the msg is note_off channel=0 note=76 velocity=0 time=25
the msg is note_on channel=0 note=76 velocity=100 time=0
the msg is note_off channel=0 note=79 velocity=0 time=25
the msg is note_on channel=0 note=79 velocity=100 time=0
the msg is note_off channel=0 note=79 velocity=0 time=12
the msg is note_on channel=0 note=79 velocity=100 time=0
the msg is note_off channel=0 note=76 velocity=0 time=12
the msg is note_on channel=0 note=76 velocity=100 time=0
the msg is note_off channel=0 note=74 velocity=0 time=12
the msg is note_on channel=0 note=74 velocity=100 time=0
the msg is note_off channel=0 note=72 velocity=0 time=12
the msg is note_on channel=0 note=72 velocity=100 time=0
the msg is note_off channel=0 note=74 velocity=0 time=25
the msg is note_on channel=0 note=74 velocity=100 time=0
the msg is note_off channel=0 note=74 velocity=0 time=12
the msg is note_on channel=0 note=74 velocity=100 time=0
the msg is note_off channel=0 note=74 velocity=0 time=12
the msg is note_on channel=0 note=74 velocity=100 time=0
the msg is note_off channel=0 note=74 velocity=0 time=25
the msg is note_on channel=0 note=74 velocity=100 time=0
the msg is note_off channel=0 note=74 velocity=0 time=25
the msg is note_on channel=0 note=74 velocity=100 time=0
the msg is note_off channel=0 note=76 velocity=0 time=25
the msg is note_on channel=0 note=76 velocity=100 time=0
the msg is note_off channel=0 note=79 velocity=0 time=25
the msg is note_on channel=0 note=79 velocity=100 time=0
the msg is note_off channel=0 note=79 velocity=0 time=12
the msg is note_on channel=0 note=79 velocity=100 time=0
the msg is note_off channel=0 note=76 velocity=0 time=12
the msg is note_on channel=0 note=76 velocity=100 time=0
the msg is note_off channel=0 note=74 velocity=0 time=12
the msg is note_on channel=0 note=74 velocity=100 time=0
the msg is note_off channel=0 note=72 velocity=0 time=12
the msg is note_on channel=0 note=72 velocity=100 time=0
the msg is note_off channel=0 note=72 velocity=0 time=81
the msg is note_on channel=0 note=72 velocity=100 time=0
the msg is note_off channel=0 note=72 velocity=0 time=8
the msg is note_on channel=0 note=72 velocity=100 time=0
the msg is note_off channel=0 note=74 velocity=0 time=25
the msg is note_on channel=0 note=74 velocity=100 time=0
the msg is note_off channel=0 note=74 velocity=0 time=25
the msg is note_on channel=0 note=74 velocity=100 time=0
the msg is note_off channel=0 note=74 velocity=0 time=25
the msg is note_on channel=0 note=74 velocity=100 time=0
the msg is note_off channel=0 note=74 velocity=0 time=25
the msg is note_on channel=0 note=74 velocity=100 time=0
the msg is note_off channel=0 note=74 velocity=0 time=25
the msg is note_on channel=0 note=74 velocity=100 time=0
the msg is note_off channel=0 note=74 velocity=0 time=25
the msg is note_on channel=0 note=74 velocity=100 time=0
the msg is note_off channel=0 note=76 velocity=0 time=25
the msg is note_on channel=0 note=76 velocity=100 time=0
the msg is note_off channel=0 note=79 velocity=0 time=25
the msg is note_on channel=0 note=79 velocity=100 time=0
the msg is note_off channel=0 note=79 velocity=0 time=12
the msg is note_on channel=0 note=79 velocity=100 time=0
the msg is note_off channel=0 note=76 velocity=0 time=12
the msg is note_on channel=0 note=76 velocity=100 time=0
the msg is note_off channel=0 note=74 velocity=0 time=17
the msg is note_on channel=0 note=74 velocity=100 time=0
the msg is note_off channel=0 note=72 velocity=0 time=8
the msg is note_on channel=0 note=72 velocity=100 time=0
the msg is note_off channel=0 note=72 velocity=0 time=25
the msg is note_on channel=0 note=72 velocity=100 time=0
the msg is note_off channel=0 note=72 velocity=0 time=25
the msg is note_on channel=0 note=72 velocity=100 time=0
the msg is note_off channel=0 note=72 velocity=0 time=12
the msg is note_on channel=0 note=72 velocity=100 time=0
the msg is note_off channel=0 note=72 velocity=0 time=29
the msg is note_on channel=0 note=72 velocity=100 time=0
the msg is note_off channel=0 note=72 velocity=0 time=8
the msg is note_on channel=0 note=72 velocity=100 time=0
the msg is note_off channel=0 note=72 velocity=0 time=25
the msg is note_on channel=0 note=72 velocity=100 time=0
the msg is note_off channel=0 note=72 velocity=0 time=12
the msg is note_on channel=0 note=72 velocity=100 time=0
the msg is note_off channel=0 note=72 velocity=0 time=12
the msg is note_on channel=0 note=72 velocity=100 time=0
the msg is note_off channel=0 note=72 velocity=0 time=12
the msg is note_on channel=0 note=72 velocity=100 time=0
the msg is note_off channel=0 note=76 velocity=0 time=12
the msg is note_on channel=0 note=76 velocity=100 time=0
the msg is note_off channel=0 note=79 velocity=0 time=25
the msg is note_on channel=0 note=79 velocity=100 time=0
the msg is note_off channel=0 note=79 velocity=0 time=12
the msg is note_on channel=0 note=79 velocity=100 time=0
the msg is note_off channel=0 note=76 velocity=0 time=12
the msg is note_on channel=0 note=76 velocity=100 time=0
the msg is note_off channel=0 note=74 velocity=0 time=12
the msg is note_on channel=0 note=74 velocity=100 time=0
the msg is note_off channel=0 note=72 velocity=0 time=12
the msg is note_on channel=0 note=72 velocity=100 time=0
the msg is note_off channel=0 note=72 velocity=0 time=76
the msg is note_on channel=0 note=72 velocity=100 time=0
the msg is note_off channel=0 note=72 velocity=0 time=12
the msg is note_on channel=0 note=72 velocity=100 time=0
the msg is note_off channel=0 note=72 velocity=0 time=12
the msg is note_on channel=0 note=72 velocity=100 time=0
the msg is note_off channel=0 note=72 velocity=0 time=8
the msg is note_on channel=0 note=72 velocity=100 time=0
the msg is note_off channel=0 note=72 velocity=0 time=17
the msg is note_on channel=0 note=72 velocity=100 time=0
the msg is note_off channel=0 note=72 velocity=0 time=12
the msg is note_on channel=0 note=72 velocity=100 time=0
the msg is note_off channel=0 note=72 velocity=0 time=12
the msg is note_on channel=0 note=72 velocity=100 time=0
the msg is note_off channel=0 note=76 velocity=0 time=8
the msg is note_on channel=0 note=76 velocity=100 time=0
the msg is note_off channel=0 note=79 velocity=0 time=29
the msg is note_on channel=0 note=79 velocity=100 time=0
the msg is note_off channel=0 note=79 velocity=0 time=12
the msg is note_on channel=0 note=79 velocity=100 time=0
the msg is note_off channel=0 note=76 velocity=0 time=8
the msg is note_on channel=0 note=76 velocity=100 time=0
the msg is note_off channel=0 note=74 velocity=0 time=17
the msg is note_on channel=0 note=74 velocity=100 time=0
the msg is <meta message end_of_track time=51>
the msg is <meta message track_name name='Piano' time=0>
the msg is program_change channel=0 program=0 time=0
the msg is note_off channel=0 note=72 velocity=0 time=0
the msg is pitchwheel channel=0 pitch=0 time=0
the msg is program_change channel=0 program=0 time=0
the msg is <meta message set_tempo tempo=500000 time=0>
the msg is <meta message time_signature numerator=4 denominator=4 clocks_per_click=24 notated_32nd_notes_per_beat=8 time=0>
the msg is note_on channel=0 note=72 velocity=100 time=0
the msg is note_off channel=0 note=74 velocity=0 time=34
the msg is note_on channel=0 note=74 velocity=100 time=0
the msg is note_off channel=0 note=74 velocity=0 time=17
the msg is note_on channel=0 note=74 velocity=100 time=0
the msg is note_off channel=0 note=74 velocity=0 time=34
the msg is note_on channel=0 note=74 velocity=100 time=0
the msg is note_off channel=0 note=74 velocity=0 time=17
the msg is note_on channel=0 note=74 velocity=100 time=0
the msg is note_off channel=0 note=76 velocity=0 time=34
the msg is note_on channel=0 note=76 velocity=100 time=0
the msg is note_off channel=0 note=79 velocity=0 time=17
the msg is note_on channel=0 note=79 velocity=100 time=0
the msg is note_off channel=0 note=79 velocity=0 time=17
the msg is note_on channel=0 note=79 velocity=100 time=0
the msg is note_off channel=0 note=76 velocity=0 time=17
the msg is note_on channel=0 note=76 velocity=100 time=0
the msg is note_off channel=0 note=74 velocity=0 time=4
the msg is note_on channel=0 note=74 velocity=100 time=0
the msg is note_off channel=0 note=72 velocity=0 time=12
the msg is note_on channel=0 note=72 velocity=100 time=0
the msg is note_off channel=0 note=72 velocity=0 time=89
the msg is note_on channel=0 note=72 velocity=100 time=0
the msg is note_off channel=0 note=72 velocity=0 time=12
the msg is note_on channel=0 note=72 velocity=100 time=0
the msg is note_off channel=0 note=74 velocity=0 time=25
the msg is note_on channel=0 note=74 velocity=100 time=0
the msg is note_off channel=0 note=74 velocity=0 time=25
the msg is note_on channel=0 note=74 velocity=100 time=0
the msg is note_off channel=0 note=74 velocity=0 time=12
the msg is note_on channel=0 note=74 velocity=100 time=0
the msg is note_off channel=0 note=76 velocity=0 time=25
the msg is note_on channel=0 note=76 velocity=100 time=0
the msg is note_off channel=0 note=79 velocity=0 time=25
the msg is note_on channel=0 note=79 velocity=100 time=0
the msg is note_off channel=0 note=79 velocity=0 time=12
the msg is note_on channel=0 note=79 velocity=100 time=0
the msg is note_off channel=0 note=76 velocity=0 time=12
the msg is note_on channel=0 note=76 velocity=100 time=0
the msg is note_off channel=0 note=74 velocity=0 time=12
the msg is note_on channel=0 note=74 velocity=100 time=0
the msg is note_off channel=0 note=72 velocity=0 time=12
the msg is note_on channel=0 note=72 velocity=100 time=0
the msg is note_off channel=0 note=74 velocity=0 time=25
the msg is note_on channel=0 note=74 velocity=100 time=0
the msg is note_off channel=0 note=76 velocity=0 time=25
the msg is note_on channel=0 note=76 velocity=100 time=0
the msg is note_off channel=0 note=79 velocity=0 time=25
the msg is note_on channel=0 note=79 velocity=100 time=0
the msg is note_off channel=0 note=79 velocity=0 time=12
the msg is note_on channel=0 note=79 velocity=100 time=0
the msg is note_off channel=0 note=76 velocity=0 time=12
the msg is note_on channel=0 note=76 velocity=100 time=0
the msg is note_off channel=0 note=74 velocity=0 time=12
the msg is note_on channel=0 note=74 velocity=100 time=0
the msg is note_off channel=0 note=72 velocity=0 time=12
the msg is note_on channel=0 note=72 velocity=100 time=0
the msg is note_off channel=0 note=74 velocity=0 time=25
the msg is note_on channel=0 note=74 velocity=100 time=0
the msg is note_off channel=0 note=74 velocity=0 time=12
the msg is note_on channel=0 note=74 velocity=100 time=0
the msg is note_off channel=0 note=74 velocity=0 time=12
the msg is note_on channel=0 note=74 velocity=100 time=0
the msg is note_off channel=0 note=74 velocity=0 time=25
the msg is note_on channel=0 note=74 velocity=100 time=0
the msg is note_off channel=0 note=74 velocity=0 time=25
the msg is note_on channel=0 note=74 velocity=100 time=0
the msg is note_off channel=0 note=76 velocity=0 time=25
the msg is note_on channel=0 note=76 velocity=100 time=0
the msg is note_off channel=0 note=79 velocity=0 time=25
the msg is note_on channel=0 note=79 velocity=100 time=0
the msg is note_off channel=0 note=79 velocity=0 time=12
the msg is note_on channel=0 note=79 velocity=100 time=0
the msg is note_off channel=0 note=76 velocity=0 time=12
the msg is note_on channel=0 note=76 velocity=100 time=0
the msg is note_off channel=0 note=74 velocity=0 time=12
the msg is note_on channel=0 note=74 velocity=100 time=0
the msg is note_off channel=0 note=72 velocity=0 time=12
the msg is note_on channel=0 note=72 velocity=100 time=0
the msg is note_off channel=0 note=72 velocity=0 time=81
the msg is note_on channel=0 note=72 velocity=100 time=0
the msg is note_off channel=0 note=72 velocity=0 time=8
the msg is note_on channel=0 note=72 velocity=100 time=0
the msg is note_off channel=0 note=74 velocity=0 time=25
the msg is note_on channel=0 note=74 velocity=100 time=0
the msg is note_off channel=0 note=74 velocity=0 time=25
the msg is note_on channel=0 note=74 velocity=100 time=0
the msg is note_off channel=0 note=74 velocity=0 time=25
the msg is note_on channel=0 note=74 velocity=100 time=0
the msg is note_off channel=0 note=74 velocity=0 time=25
the msg is note_on channel=0 note=74 velocity=100 time=0
the msg is note_off channel=0 note=74 velocity=0 time=25
the msg is note_on channel=0 note=74 velocity=100 time=0
the msg is note_off channel=0 note=74 velocity=0 time=25
the msg is note_on channel=0 note=74 velocity=100 time=0
the msg is note_off channel=0 note=76 velocity=0 time=25
the msg is note_on channel=0 note=76 velocity=100 time=0
the msg is note_off channel=0 note=79 velocity=0 time=25
the msg is note_on channel=0 note=79 velocity=100 time=0
the msg is note_off channel=0 note=79 velocity=0 time=12
the msg is note_on channel=0 note=79 velocity=100 time=0
the msg is note_off channel=0 note=76 velocity=0 time=12
the msg is note_on channel=0 note=76 velocity=100 time=0
the msg is note_off channel=0 note=74 velocity=0 time=17
the msg is note_on channel=0 note=74 velocity=100 time=0
the msg is note_off channel=0 note=72 velocity=0 time=8
the msg is note_on channel=0 note=72 velocity=100 time=0
the msg is note_off channel=0 note=72 velocity=0 time=25
the msg is note_on channel=0 note=72 velocity=100 time=0
the msg is note_off channel=0 note=72 velocity=0 time=25
the msg is note_on channel=0 note=72 velocity=100 time=0
the msg is note_off channel=0 note=72 velocity=0 time=12
the msg is note_on channel=0 note=72 velocity=100 time=0
the msg is note_off channel=0 note=72 velocity=0 time=29
the msg is note_on channel=0 note=72 velocity=100 time=0
the msg is note_off channel=0 note=72 velocity=0 time=8
the msg is note_on channel=0 note=72 velocity=100 time=0
the msg is note_off channel=0 note=72 velocity=0 time=25
the msg is note_on channel=0 note=72 velocity=100 time=0
the msg is note_off channel=0 note=72 velocity=0 time=12
the msg is note_on channel=0 note=72 velocity=100 time=0
the msg is note_off channel=0 note=72 velocity=0 time=12
the msg is note_on channel=0 note=72 velocity=100 time=0
the msg is note_off channel=0 note=72 velocity=0 time=12
the msg is note_on channel=0 note=72 velocity=100 time=0
the msg is note_off channel=0 note=76 velocity=0 time=12
the msg is note_on channel=0 note=76 velocity=100 time=0
the msg is note_off channel=0 note=79 velocity=0 time=25
the msg is note_on channel=0 note=79 velocity=100 time=0
the msg is note_off channel=0 note=79 velocity=0 time=12
the msg is note_on channel=0 note=79 velocity=100 time=0
the msg is note_off channel=0 note=76 velocity=0 time=12
the msg is note_on channel=0 note=76 velocity=100 time=0
the msg is note_off channel=0 note=74 velocity=0 time=12
the msg is note_on channel=0 note=74 velocity=100 time=0
the msg is note_off channel=0 note=72 velocity=0 time=12
the msg is note_on channel=0 note=72 velocity=100 time=0
the msg is note_off channel=0 note=72 velocity=0 time=76
the msg is note_on channel=0 note=72 velocity=100 time=0
the msg is note_off channel=0 note=72 velocity=0 time=12
the msg is note_on channel=0 note=72 velocity=100 time=0
the msg is note_off channel=0 note=72 velocity=0 time=12
the msg is note_on channel=0 note=72 velocity=100 time=0
the msg is note_off channel=0 note=72 velocity=0 time=8
the msg is note_on channel=0 note=72 velocity=100 time=0
the msg is note_off channel=0 note=72 velocity=0 time=17
the msg is note_on channel=0 note=72 velocity=100 time=0
the msg is note_off channel=0 note=72 velocity=0 time=12
the msg is note_on channel=0 note=72 velocity=100 time=0
the msg is note_off channel=0 note=72 velocity=0 time=12
the msg is note_on channel=0 note=72 velocity=100 time=0
the msg is note_off channel=0 note=76 velocity=0 time=8
the msg is note_on channel=0 note=76 velocity=100 time=0
the msg is note_off channel=0 note=79 velocity=0 time=29
the msg is note_on channel=0 note=79 velocity=100 time=0
the msg is note_off channel=0 note=79 velocity=0 time=12
the msg is note_on channel=0 note=79 velocity=100 time=0
the msg is note_off channel=0 note=76 velocity=0 time=8
the msg is note_on channel=0 note=76 velocity=100 time=0
the msg is note_off channel=0 note=74 velocity=0 time=17
the msg is note_on channel=0 note=74 velocity=100 time=0
the msg is <meta message end_of_track time=51>
the msg is <meta message track_name name='Piano' time=0>
the msg is program_change channel=0 program=0 time=0
the msg is note_off channel=0 note=72 velocity=0 time=0
the msg is pitchwheel channel=0 pitch=0 time=0
the msg is program_change channel=0 program=0 time=0
the msg is <meta message set_tempo tempo=500000 time=0>
the msg is <meta message time_signature numerator=4 denominator=4 clocks_per_click=24 notated_32nd_notes_per_beat=8 time=0>
the msg is note_on channel=0 note=72 velocity=100 time=0
the msg is note_off channel=0 note=74 velocity=0 time=34
the msg is note_on channel=0 note=74 velocity=100 time=0
the msg is note_off channel=0 note=74 velocity=0 time=17
the msg is note_on channel=0 note=74 velocity=100 time=0
the msg is note_off channel=0 note=74 velocity=0 time=34
the msg is note_on channel=0 note=74 velocity=100 time=0
the msg is note_off channel=0 note=74 velocity=0 time=17
the msg is note_on channel=0 note=74 velocity=100 time=0
the msg is note_off channel=0 note=76 velocity=0 time=34
the msg is note_on channel=0 note=76 velocity=100 time=0
the msg is note_off channel=0 note=79 velocity=0 time=17
the msg is note_on channel=0 note=79 velocity=100 time=0
the msg is note_off channel=0 note=79 velocity=0 time=17
the msg is note_on channel=0 note=79 velocity=100 time=0
the msg is note_off channel=0 note=76 velocity=0 time=17
the msg is note_on channel=0 note=76 velocity=100 time=0
the msg is note_off channel=0 note=74 velocity=0 time=4
the msg is note_on channel=0 note=74 velocity=100 time=0
the msg is note_off channel=0 note=72 velocity=0 time=12
the msg is note_on channel=0 note=72 velocity=100 time=0
the msg is note_off channel=0 note=72 velocity=0 time=89
the msg is note_on channel=0 note=72 velocity=100 time=0
the msg is note_off channel=0 note=72 velocity=0 time=12
the msg is note_on channel=0 note=72 velocity=100 time=0
the msg is note_off channel=0 note=74 velocity=0 time=25
the msg is note_on channel=0 note=74 velocity=100 time=0
the msg is note_off channel=0 note=74 velocity=0 time=25
the msg is note_on channel=0 note=74 velocity=100 time=0
the msg is note_off channel=0 note=74 velocity=0 time=12
the msg is note_on channel=0 note=74 velocity=100 time=0
the msg is note_off channel=0 note=76 velocity=0 time=25
the msg is note_on channel=0 note=76 velocity=100 time=0
the msg is note_off channel=0 note=79 velocity=0 time=25
the msg is note_on channel=0 note=79 velocity=100 time=0
the msg is note_off channel=0 note=79 velocity=0 time=12
the msg is note_on channel=0 note=79 velocity=100 time=0
the msg is note_off channel=0 note=76 velocity=0 time=12
the msg is note_on channel=0 note=76 velocity=100 time=0
the msg is note_off channel=0 note=74 velocity=0 time=12
the msg is note_on channel=0 note=74 velocity=100 time=0
the msg is note_off channel=0 note=72 velocity=0 time=12
the msg is note_on channel=0 note=72 velocity=100 time=0
the msg is note_off channel=0 note=74 velocity=0 time=25
the msg is note_on channel=0 note=74 velocity=100 time=0
the msg is note_off channel=0 note=76 velocity=0 time=25
the msg is note_on channel=0 note=76 velocity=100 time=0
the msg is note_off channel=0 note=79 velocity=0 time=25
the msg is note_on channel=0 note=79 velocity=100 time=0
the msg is note_off channel=0 note=79 velocity=0 time=12
the msg is note_on channel=0 note=79 velocity=100 time=0
the msg is note_off channel=0 note=76 velocity=0 time=12
the msg is note_on channel=0 note=76 velocity=100 time=0
the msg is note_off channel=0 note=74 velocity=0 time=12
the msg is note_on channel=0 note=74 velocity=100 time=0
the msg is note_off channel=0 note=72 velocity=0 time=12
the msg is note_on channel=0 note=72 velocity=100 time=0
the msg is note_off channel=0 note=74 velocity=0 time=25
the msg is note_on channel=0 note=74 velocity=100 time=0
the msg is note_off channel=0 note=74 velocity=0 time=12
the msg is note_on channel=0 note=74 velocity=100 time=0
the msg is note_off channel=0 note=74 velocity=0 time=12
the msg is note_on channel=0 note=74 velocity=100 time=0
the msg is note_off channel=0 note=74 velocity=0 time=25
the msg is note_on channel=0 note=74 velocity=100 time=0
the msg is note_off channel=0 note=74 velocity=0 time=25
the msg is note_on channel=0 note=74 velocity=100 time=0
the msg is note_off channel=0 note=76 velocity=0 time=25
the msg is note_on channel=0 note=76 velocity=100 time=0
the msg is note_off channel=0 note=79 velocity=0 time=25
the msg is note_on channel=0 note=79 velocity=100 time=0
the msg is note_off channel=0 note=79 velocity=0 time=12
the msg is note_on channel=0 note=79 velocity=100 time=0
the msg is note_off channel=0 note=76 velocity=0 time=12
the msg is note_on channel=0 note=76 velocity=100 time=0
the msg is note_off channel=0 note=74 velocity=0 time=12
the msg is note_on channel=0 note=74 velocity=100 time=0
the msg is note_off channel=0 note=72 velocity=0 time=12
the msg is note_on channel=0 note=72 velocity=100 time=0
the msg is note_off channel=0 note=72 velocity=0 time=81
the msg is note_on channel=0 note=72 velocity=100 time=0
the msg is note_off channel=0 note=72 velocity=0 time=8
the msg is note_on channel=0 note=72 velocity=100 time=0
the msg is note_off channel=0 note=74 velocity=0 time=25
the msg is note_on channel=0 note=74 velocity=100 time=0
the msg is note_off channel=0 note=74 velocity=0 time=25
the msg is note_on channel=0 note=74 velocity=100 time=0
the msg is note_off channel=0 note=74 velocity=0 time=25
the msg is note_on channel=0 note=74 velocity=100 time=0
the msg is note_off channel=0 note=74 velocity=0 time=25
the msg is note_on channel=0 note=74 velocity=100 time=0
the msg is note_off channel=0 note=74 velocity=0 time=25
the msg is note_on channel=0 note=74 velocity=100 time=0
the msg is note_off channel=0 note=74 velocity=0 time=25
the msg is note_on channel=0 note=74 velocity=100 time=0
the msg is note_off channel=0 note=76 velocity=0 time=25
the msg is note_on channel=0 note=76 velocity=100 time=0
the msg is note_off channel=0 note=79 velocity=0 time=25
the msg is note_on channel=0 note=79 velocity=100 time=0
the msg is note_off channel=0 note=79 velocity=0 time=12
the msg is note_on channel=0 note=79 velocity=100 time=0
the msg is note_off channel=0 note=76 velocity=0 time=12
the msg is note_on channel=0 note=76 velocity=100 time=0
the msg is note_off channel=0 note=74 velocity=0 time=17
the msg is note_on channel=0 note=74 velocity=100 time=0
the msg is note_off channel=0 note=72 velocity=0 time=8
the msg is note_on channel=0 note=72 velocity=100 time=0
the msg is note_off channel=0 note=72 velocity=0 time=25
the msg is note_on channel=0 note=72 velocity=100 time=0
the msg is note_off channel=0 note=72 velocity=0 time=25
the msg is note_on channel=0 note=72 velocity=100 time=0
the msg is note_off channel=0 note=72 velocity=0 time=12
the msg is note_on channel=0 note=72 velocity=100 time=0
the msg is note_off channel=0 note=72 velocity=0 time=29
the msg is note_on channel=0 note=72 velocity=100 time=0
the msg is note_off channel=0 note=72 velocity=0 time=8
the msg is note_on channel=0 note=72 velocity=100 time=0
the msg is note_off channel=0 note=72 velocity=0 time=25
the msg is note_on channel=0 note=72 velocity=100 time=0
the msg is note_off channel=0 note=72 velocity=0 time=12
the msg is note_on channel=0 note=72 velocity=100 time=0
the msg is note_off channel=0 note=72 velocity=0 time=12
the msg is note_on channel=0 note=72 velocity=100 time=0
the msg is note_off channel=0 note=72 velocity=0 time=12
the msg is note_on channel=0 note=72 velocity=100 time=0
the msg is note_off channel=0 note=76 velocity=0 time=12
the msg is note_on channel=0 note=76 velocity=100 time=0
the msg is note_off channel=0 note=79 velocity=0 time=25
the msg is note_on channel=0 note=79 velocity=100 time=0
the msg is note_off channel=0 note=79 velocity=0 time=12
the msg is note_on channel=0 note=79 velocity=100 time=0
the msg is note_off channel=0 note=76 velocity=0 time=12
the msg is note_on channel=0 note=76 velocity=100 time=0
the msg is note_off channel=0 note=74 velocity=0 time=12
the msg is note_on channel=0 note=74 velocity=100 time=0
the msg is note_off channel=0 note=72 velocity=0 time=12
the msg is note_on channel=0 note=72 velocity=100 time=0
the msg is note_off channel=0 note=72 velocity=0 time=76
the msg is note_on channel=0 note=72 velocity=100 time=0
the msg is note_off channel=0 note=72 velocity=0 time=12
the msg is note_on channel=0 note=72 velocity=100 time=0
the msg is note_off channel=0 note=72 velocity=0 time=12
the msg is note_on channel=0 note=72 velocity=100 time=0
the msg is note_off channel=0 note=72 velocity=0 time=8
the msg is note_on channel=0 note=72 velocity=100 time=0
the msg is note_off channel=0 note=72 velocity=0 time=17
the msg is note_on channel=0 note=72 velocity=100 time=0
the msg is note_off channel=0 note=72 velocity=0 time=12
the msg is note_on channel=0 note=72 velocity=100 time=0
the msg is note_off channel=0 note=72 velocity=0 time=12
the msg is note_on channel=0 note=72 velocity=100 time=0
the msg is note_off channel=0 note=76 velocity=0 time=8
the msg is note_on channel=0 note=76 velocity=100 time=0
the msg is note_off channel=0 note=79 velocity=0 time=29
the msg is note_on channel=0 note=79 velocity=100 time=0
the msg is note_off channel=0 note=79 velocity=0 time=12
the msg is note_on channel=0 note=79 velocity=100 time=0
the msg is note_off channel=0 note=76 velocity=0 time=8
the msg is note_on channel=0 note=76 velocity=100 time=0
the msg is note_off channel=0 note=74 velocity=0 time=17
the msg is note_on channel=0 note=74 velocity=100 time=0
the msg is <meta message end_of_track time=51>
the msg is <meta message track_name name='Piano' time=0>
the msg is program_change channel=0 program=0 time=0
the msg is note_off channel=0 note=72 velocity=0 time=0
the msg is pitchwheel channel=0 pitch=0 time=0
the msg is program_change channel=0 program=0 time=0
the msg is <meta message set_tempo tempo=500000 time=0>
the msg is <meta message time_signature numerator=4 denominator=4 clocks_per_click=24 notated_32nd_notes_per_beat=8 time=0>
the msg is note_on channel=0 note=72 velocity=100 time=0
the msg is note_off channel=0 note=74 velocity=0 time=34
the msg is note_on channel=0 note=74 velocity=100 time=0
the msg is note_off channel=0 note=74 velocity=0 time=17
the msg is note_on channel=0 note=74 velocity=100 time=0
the msg is note_off channel=0 note=74 velocity=0 time=34
the msg is note_on channel=0 note=74 velocity=100 time=0
the msg is note_off channel=0 note=74 velocity=0 time=17
the msg is note_on channel=0 note=74 velocity=100 time=0
the msg is note_off channel=0 note=76 velocity=0 time=34
the msg is note_on channel=0 note=76 velocity=100 time=0
the msg is note_off channel=0 note=79 velocity=0 time=17
the msg is note_on channel=0 note=79 velocity=100 time=0
the msg is note_off channel=0 note=79 velocity=0 time=17
the msg is note_on channel=0 note=79 velocity=100 time=0
the msg is note_off channel=0 note=76 velocity=0 time=17
the msg is note_on channel=0 note=76 velocity=100 time=0
the msg is note_off channel=0 note=74 velocity=0 time=4
the msg is note_on channel=0 note=74 velocity=100 time=0
the msg is note_off channel=0 note=72 velocity=0 time=12
the msg is note_on channel=0 note=72 velocity=100 time=0
the msg is note_off channel=0 note=72 velocity=0 time=89
the msg is note_on channel=0 note=72 velocity=100 time=0
the msg is note_off channel=0 note=72 velocity=0 time=12
the msg is note_on channel=0 note=72 velocity=100 time=0
the msg is note_off channel=0 note=74 velocity=0 time=25
the msg is note_on channel=0 note=74 velocity=100 time=0
the msg is note_off channel=0 note=74 velocity=0 time=25
the msg is note_on channel=0 note=74 velocity=100 time=0
the msg is note_off channel=0 note=74 velocity=0 time=12
the msg is note_on channel=0 note=74 velocity=100 time=0
the msg is note_off channel=0 note=76 velocity=0 time=25
the msg is note_on channel=0 note=76 velocity=100 time=0
the msg is note_off channel=0 note=79 velocity=0 time=25
the msg is note_on channel=0 note=79 velocity=100 time=0
the msg is note_off channel=0 note=79 velocity=0 time=12
the msg is note_on channel=0 note=79 velocity=100 time=0
the msg is note_off channel=0 note=76 velocity=0 time=12
the msg is note_on channel=0 note=76 velocity=100 time=0
the msg is note_off channel=0 note=74 velocity=0 time=12
the msg is note_on channel=0 note=74 velocity=100 time=0
the msg is note_off channel=0 note=72 velocity=0 time=12
the msg is note_on channel=0 note=72 velocity=100 time=0
the msg is note_off channel=0 note=74 velocity=0 time=25
the msg is note_on channel=0 note=74 velocity=100 time=0
the msg is note_off channel=0 note=76 velocity=0 time=25
the msg is note_on channel=0 note=76 velocity=100 time=0
the msg is note_off channel=0 note=79 velocity=0 time=25
the msg is note_on channel=0 note=79 velocity=100 time=0
the msg is note_off channel=0 note=79 velocity=0 time=12
the msg is note_on channel=0 note=79 velocity=100 time=0
the msg is note_off channel=0 note=76 velocity=0 time=12
the msg is note_on channel=0 note=76 velocity=100 time=0
the msg is note_off channel=0 note=74 velocity=0 time=12
the msg is note_on channel=0 note=74 velocity=100 time=0
the msg is note_off channel=0 note=72 velocity=0 time=12
the msg is note_on channel=0 note=72 velocity=100 time=0
the msg is note_off channel=0 note=74 velocity=0 time=25
the msg is note_on channel=0 note=74 velocity=100 time=0
the msg is note_off channel=0 note=74 velocity=0 time=12
the msg is note_on channel=0 note=74 velocity=100 time=0
the msg is note_off channel=0 note=74 velocity=0 time=12
the msg is note_on channel=0 note=74 velocity=100 time=0
the msg is note_off channel=0 note=74 velocity=0 time=25
the msg is note_on channel=0 note=74 velocity=100 time=0
the msg is note_off channel=0 note=74 velocity=0 time=25
the msg is note_on channel=0 note=74 velocity=100 time=0
the msg is note_off channel=0 note=76 velocity=0 time=25
the msg is note_on channel=0 note=76 velocity=100 time=0
the msg is note_off channel=0 note=79 velocity=0 time=25
the msg is note_on channel=0 note=79 velocity=100 time=0
the msg is note_off channel=0 note=79 velocity=0 time=12
the msg is note_on channel=0 note=79 velocity=100 time=0
the msg is note_off channel=0 note=76 velocity=0 time=12
the msg is note_on channel=0 note=76 velocity=100 time=0
the msg is note_off channel=0 note=74 velocity=0 time=12
the msg is note_on channel=0 note=74 velocity=100 time=0
the msg is note_off channel=0 note=72 velocity=0 time=12
the msg is note_on channel=0 note=72 velocity=100 time=0
the msg is note_off channel=0 note=72 velocity=0 time=81
the msg is note_on channel=0 note=72 velocity=100 time=0
the msg is note_off channel=0 note=72 velocity=0 time=8
the msg is note_on channel=0 note=72 velocity=100 time=0
the msg is note_off channel=0 note=74 velocity=0 time=25
the msg is note_on channel=0 note=74 velocity=100 time=0
the msg is note_off channel=0 note=74 velocity=0 time=25
the msg is note_on channel=0 note=74 velocity=100 time=0
the msg is note_off channel=0 note=74 velocity=0 time=25
the msg is note_on channel=0 note=74 velocity=100 time=0
the msg is note_off channel=0 note=74 velocity=0 time=25
the msg is note_on channel=0 note=74 velocity=100 time=0
the msg is note_off channel=0 note=74 velocity=0 time=25
the msg is note_on channel=0 note=74 velocity=100 time=0
the msg is note_off channel=0 note=74 velocity=0 time=25
the msg is note_on channel=0 note=74 velocity=100 time=0
the msg is note_off channel=0 note=76 velocity=0 time=25
the msg is note_on channel=0 note=76 velocity=100 time=0
the msg is note_off channel=0 note=79 velocity=0 time=25
the msg is note_on channel=0 note=79 velocity=100 time=0
the msg is note_off channel=0 note=79 velocity=0 time=12
the msg is note_on channel=0 note=79 velocity=100 time=0
the msg is note_off channel=0 note=76 velocity=0 time=12
the msg is note_on channel=0 note=76 velocity=100 time=0
the msg is note_off channel=0 note=74 velocity=0 time=17
the msg is note_on channel=0 note=74 velocity=100 time=0
the msg is note_off channel=0 note=72 velocity=0 time=8
the msg is note_on channel=0 note=72 velocity=100 time=0
the msg is note_off channel=0 note=72 velocity=0 time=25
the msg is note_on channel=0 note=72 velocity=100 time=0
the msg is note_off channel=0 note=72 velocity=0 time=25
the msg is note_on channel=0 note=72 velocity=100 time=0
the msg is note_off channel=0 note=72 velocity=0 time=12
the msg is note_on channel=0 note=72 velocity=100 time=0
the msg is note_off channel=0 note=72 velocity=0 time=29
the msg is note_on channel=0 note=72 velocity=100 time=0
the msg is note_off channel=0 note=72 velocity=0 time=8
the msg is note_on channel=0 note=72 velocity=100 time=0
the msg is note_off channel=0 note=72 velocity=0 time=25
the msg is note_on channel=0 note=72 velocity=100 time=0
the msg is note_off channel=0 note=72 velocity=0 time=12
the msg is note_on channel=0 note=72 velocity=100 time=0
the msg is note_off channel=0 note=72 velocity=0 time=12
the msg is note_on channel=0 note=72 velocity=100 time=0
the msg is note_off channel=0 note=72 velocity=0 time=12
the msg is note_on channel=0 note=72 velocity=100 time=0
the msg is note_off channel=0 note=76 velocity=0 time=12
the msg is note_on channel=0 note=76 velocity=100 time=0
the msg is note_off channel=0 note=79 velocity=0 time=25
the msg is note_on channel=0 note=79 velocity=100 time=0
the msg is note_off channel=0 note=79 velocity=0 time=12
the msg is note_on channel=0 note=79 velocity=100 time=0
the msg is note_off channel=0 note=76 velocity=0 time=12
the msg is note_on channel=0 note=76 velocity=100 time=0
the msg is note_off channel=0 note=74 velocity=0 time=12
the msg is note_on channel=0 note=74 velocity=100 time=0
the msg is note_off channel=0 note=72 velocity=0 time=12
the msg is note_on channel=0 note=72 velocity=100 time=0
the msg is note_off channel=0 note=72 velocity=0 time=76
the msg is note_on channel=0 note=72 velocity=100 time=0
the msg is note_off channel=0 note=72 velocity=0 time=12
the msg is note_on channel=0 note=72 velocity=100 time=0
the msg is note_off channel=0 note=72 velocity=0 time=12
the msg is note_on channel=0 note=72 velocity=100 time=0
the msg is note_off channel=0 note=72 velocity=0 time=8
the msg is note_on channel=0 note=72 velocity=100 time=0
the msg is note_off channel=0 note=72 velocity=0 time=17
the msg is note_on channel=0 note=72 velocity=100 time=0
the msg is note_off channel=0 note=72 velocity=0 time=12
the msg is note_on channel=0 note=72 velocity=100 time=0
the msg is note_off channel=0 note=72 velocity=0 time=12
the msg is note_on channel=0 note=72 velocity=100 time=0
the msg is note_off channel=0 note=76 velocity=0 time=8
the msg is note_on channel=0 note=76 velocity=100 time=0
the msg is note_off channel=0 note=79 velocity=0 time=29
the msg is note_on channel=0 note=79 velocity=100 time=0
the msg is note_off channel=0 note=79 velocity=0 time=12
the msg is note_on channel=0 note=79 velocity=100 time=0
the msg is note_off channel=0 note=76 velocity=0 time=8
the msg is note_on channel=0 note=76 velocity=100 time=0
the msg is note_off channel=0 note=74 velocity=0 time=17
the msg is note_on channel=0 note=74 velocity=100 time=0
the msg is <meta message end_of_track time=51>
the msg is <meta message track_name name='Piano' time=0>
the msg is program_change channel=0 program=0 time=0
the msg is note_off channel=0 note=72 velocity=0 time=0
the msg is pitchwheel channel=0 pitch=0 time=0
the msg is program_change channel=0 program=0 time=0
the msg is <meta message set_tempo tempo=500000 time=0>
the msg is <meta message time_signature numerator=4 denominator=4 clocks_per_click=24 notated_32nd_notes_per_beat=8 time=0>
the msg is note_on channel=0 note=72 velocity=100 time=0
the msg is note_off channel=0 note=74 velocity=0 time=34
the msg is note_on channel=0 note=74 velocity=100 time=0
the msg is note_off channel=0 note=74 velocity=0 time=17
the msg is note_on channel=0 note=74 velocity=100 time=0
the msg is note_off channel=0 note=74 velocity=0 time=34
the msg is note_on channel=0 note=74 velocity=100 time=0
the msg is note_off channel=0 note=74 velocity=0 time=17
the msg is note_on channel=0 note=74 velocity=100 time=0
the msg is note_off channel=0 note=76 velocity=0 time=34
the msg is note_on channel=0 note=76 velocity=100 time=0
the msg is note_off channel=0 note=79 velocity=0 time=17
the msg is note_on channel=0 note=79 velocity=100 time=0
the msg is note_off channel=0 note=79 velocity=0 time=17
the msg is note_on channel=0 note=79 velocity=100 time=0
the msg is note_off channel=0 note=76 velocity=0 time=17
the msg is note_on channel=0 note=76 velocity=100 time=0
the msg is note_off channel=0 note=74 velocity=0 time=4
the msg is note_on channel=0 note=74 velocity=100 time=0
the msg is note_off channel=0 note=72 velocity=0 time=12
the msg is note_on channel=0 note=72 velocity=100 time=0
the msg is note_off channel=0 note=72 velocity=0 time=89
the msg is note_on channel=0 note=72 velocity=100 time=0
the msg is note_off channel=0 note=72 velocity=0 time=12
the msg is note_on channel=0 note=72 velocity=100 time=0
the msg is note_off channel=0 note=74 velocity=0 time=25
the msg is note_on channel=0 note=74 velocity=100 time=0
the msg is note_off channel=0 note=74 velocity=0 time=25
the msg is note_on channel=0 note=74 velocity=100 time=0
the msg is note_off channel=0 note=74 velocity=0 time=12
the msg is note_on channel=0 note=74 velocity=100 time=0
the msg is note_off channel=0 note=76 velocity=0 time=25
the msg is note_on channel=0 note=76 velocity=100 time=0
the msg is note_off channel=0 note=79 velocity=0 time=25
the msg is note_on channel=0 note=79 velocity=100 time=0
the msg is note_off channel=0 note=79 velocity=0 time=12
the msg is note_on channel=0 note=79 velocity=100 time=0
the msg is note_off channel=0 note=76 velocity=0 time=12
the msg is note_on channel=0 note=76 velocity=100 time=0
the msg is note_off channel=0 note=74 velocity=0 time=12
the msg is note_on channel=0 note=74 velocity=100 time=0
the msg is note_off channel=0 note=72 velocity=0 time=12
the msg is note_on channel=0 note=72 velocity=100 time=0
the msg is note_off channel=0 note=74 velocity=0 time=25
the msg is note_on channel=0 note=74 velocity=100 time=0
the msg is note_off channel=0 note=76 velocity=0 time=25
the msg is note_on channel=0 note=76 velocity=100 time=0
the msg is note_off channel=0 note=79 velocity=0 time=25
the msg is note_on channel=0 note=79 velocity=100 time=0
the msg is note_off channel=0 note=79 velocity=0 time=12
the msg is note_on channel=0 note=79 velocity=100 time=0
the msg is note_off channel=0 note=76 velocity=0 time=12
the msg is note_on channel=0 note=76 velocity=100 time=0
the msg is note_off channel=0 note=74 velocity=0 time=12
the msg is note_on channel=0 note=74 velocity=100 time=0
the msg is note_off channel=0 note=72 velocity=0 time=12
the msg is note_on channel=0 note=72 velocity=100 time=0
the msg is note_off channel=0 note=74 velocity=0 time=25
the msg is note_on channel=0 note=74 velocity=100 time=0
the msg is note_off channel=0 note=74 velocity=0 time=12
the msg is note_on channel=0 note=74 velocity=100 time=0
the msg is note_off channel=0 note=74 velocity=0 time=12
the msg is note_on channel=0 note=74 velocity=100 time=0
the msg is note_off channel=0 note=74 velocity=0 time=25
the msg is note_on channel=0 note=74 velocity=100 time=0
the msg is note_off channel=0 note=74 velocity=0 time=25
the msg is note_on channel=0 note=74 velocity=100 time=0
the msg is note_off channel=0 note=76 velocity=0 time=25
the msg is note_on channel=0 note=76 velocity=100 time=0
the msg is note_off channel=0 note=79 velocity=0 time=25
the msg is note_on channel=0 note=79 velocity=100 time=0
the msg is note_off channel=0 note=79 velocity=0 time=12
the msg is note_on channel=0 note=79 velocity=100 time=0
the msg is note_off channel=0 note=76 velocity=0 time=12
the msg is note_on channel=0 note=76 velocity=100 time=0
the msg is note_off channel=0 note=74 velocity=0 time=12
the msg is note_on channel=0 note=74 velocity=100 time=0
the msg is note_off channel=0 note=72 velocity=0 time=12
the msg is note_on channel=0 note=72 velocity=100 time=0
the msg is note_off channel=0 note=72 velocity=0 time=81
the msg is note_on channel=0 note=72 velocity=100 time=0
the msg is note_off channel=0 note=72 velocity=0 time=8
the msg is note_on channel=0 note=72 velocity=100 time=0
the msg is note_off channel=0 note=74 velocity=0 time=25
the msg is note_on channel=0 note=74 velocity=100 time=0
the msg is note_off channel=0 note=74 velocity=0 time=25
the msg is note_on channel=0 note=74 velocity=100 time=0
the msg is note_off channel=0 note=74 velocity=0 time=25
the msg is note_on channel=0 note=74 velocity=100 time=0
the msg is note_off channel=0 note=74 velocity=0 time=25
the msg is note_on channel=0 note=74 velocity=100 time=0
the msg is note_off channel=0 note=74 velocity=0 time=25
the msg is note_on channel=0 note=74 velocity=100 time=0
the msg is note_off channel=0 note=74 velocity=0 time=25
the msg is note_on channel=0 note=74 velocity=100 time=0
the msg is note_off channel=0 note=76 velocity=0 time=25
the msg is note_on channel=0 note=76 velocity=100 time=0
the msg is note_off channel=0 note=79 velocity=0 time=25
the msg is note_on channel=0 note=79 velocity=100 time=0
the msg is note_off channel=0 note=79 velocity=0 time=12
the msg is note_on channel=0 note=79 velocity=100 time=0
the msg is note_off channel=0 note=76 velocity=0 time=12
the msg is note_on channel=0 note=76 velocity=100 time=0
the msg is note_off channel=0 note=74 velocity=0 time=17
the msg is note_on channel=0 note=74 velocity=100 time=0
the msg is note_off channel=0 note=72 velocity=0 time=8
the msg is note_on channel=0 note=72 velocity=100 time=0
the msg is note_off channel=0 note=72 velocity=0 time=25
the msg is note_on channel=0 note=72 velocity=100 time=0
the msg is note_off channel=0 note=72 velocity=0 time=25
the msg is note_on channel=0 note=72 velocity=100 time=0
the msg is note_off channel=0 note=72 velocity=0 time=12
the msg is note_on channel=0 note=72 velocity=100 time=0
the msg is note_off channel=0 note=72 velocity=0 time=29
the msg is note_on channel=0 note=72 velocity=100 time=0
the msg is note_off channel=0 note=72 velocity=0 time=8
the msg is note_on channel=0 note=72 velocity=100 time=0
the msg is note_off channel=0 note=72 velocity=0 time=25
the msg is note_on channel=0 note=72 velocity=100 time=0
the msg is note_off channel=0 note=72 velocity=0 time=12
the msg is note_on channel=0 note=72 velocity=100 time=0
the msg is note_off channel=0 note=72 velocity=0 time=12
the msg is note_on channel=0 note=72 velocity=100 time=0
the msg is note_off channel=0 note=72 velocity=0 time=12
the msg is note_on channel=0 note=72 velocity=100 time=0
the msg is note_off channel=0 note=76 velocity=0 time=12
the msg is note_on channel=0 note=76 velocity=100 time=0
the msg is note_off channel=0 note=79 velocity=0 time=25
the msg is note_on channel=0 note=79 velocity=100 time=0
the msg is note_off channel=0 note=79 velocity=0 time=12
the msg is note_on channel=0 note=79 velocity=100 time=0
the msg is note_off channel=0 note=76 velocity=0 time=12
the msg is note_on channel=0 note=76 velocity=100 time=0
the msg is note_off channel=0 note=74 velocity=0 time=12
the msg is note_on channel=0 note=74 velocity=100 time=0
the msg is note_off channel=0 note=72 velocity=0 time=12
the msg is note_on channel=0 note=72 velocity=100 time=0
the msg is note_off channel=0 note=72 velocity=0 time=76
the msg is note_on channel=0 note=72 velocity=100 time=0
the msg is note_off channel=0 note=72 velocity=0 time=12
the msg is note_on channel=0 note=72 velocity=100 time=0
the msg is note_off channel=0 note=72 velocity=0 time=12
the msg is note_on channel=0 note=72 velocity=100 time=0
the msg is note_off channel=0 note=72 velocity=0 time=8
the msg is note_on channel=0 note=72 velocity=100 time=0
the msg is note_off channel=0 note=72 velocity=0 time=17
the msg is note_on channel=0 note=72 velocity=100 time=0
the msg is note_off channel=0 note=72 velocity=0 time=12
the msg is note_on channel=0 note=72 velocity=100 time=0
the msg is note_off channel=0 note=72 velocity=0 time=12
the msg is note_on channel=0 note=72 velocity=100 time=0
the msg is note_off channel=0 note=76 velocity=0 time=8
the msg is note_on channel=0 note=76 velocity=100 time=0
the msg is note_off channel=0 note=79 velocity=0 time=29
the msg is note_on channel=0 note=79 velocity=100 time=0
the msg is note_off channel=0 note=79 velocity=0 time=12
the msg is note_on channel=0 note=79 velocity=100 time=0
the msg is note_off channel=0 note=76 velocity=0 time=8
the msg is note_on channel=0 note=76 velocity=100 time=0
the msg is note_off channel=0 note=74 velocity=0 time=17
the msg is note_on channel=0 note=74 velocity=100 time=0
the msg is <meta message end_of_track time=51>
the msg is <meta message track_name name='Piano' time=0>
the msg is program_change channel=0 program=0 time=0
the msg is note_off channel=0 note=72 velocity=0 time=0
the msg is pitchwheel channel=0 pitch=0 time=0
the msg is program_change channel=0 program=0 time=0
the msg is <meta message set_tempo tempo=500000 time=0>
the msg is <meta message time_signature numerator=4 denominator=4 clocks_per_click=24 notated_32nd_notes_per_beat=8 time=0>
the msg is note_on channel=0 note=72 velocity=100 time=0
the msg is note_off channel=0 note=74 velocity=0 time=34
the msg is note_on channel=0 note=74 velocity=100 time=0
the msg is note_off channel=0 note=74 velocity=0 time=17
the msg is note_on channel=0 note=74 velocity=100 time=0
the msg is note_off channel=0 note=74 velocity=0 time=34
the msg is note_on channel=0 note=74 velocity=100 time=0
the msg is note_off channel=0 note=74 velocity=0 time=17
the msg is note_on channel=0 note=74 velocity=100 time=0
the msg is note_off channel=0 note=76 velocity=0 time=34
the msg is note_on channel=0 note=76 velocity=100 time=0
the msg is note_off channel=0 note=79 velocity=0 time=17
the msg is note_on channel=0 note=79 velocity=100 time=0
the msg is note_off channel=0 note=79 velocity=0 time=17
the msg is note_on channel=0 note=79 velocity=100 time=0
the msg is note_off channel=0 note=76 velocity=0 time=17
the msg is note_on channel=0 note=76 velocity=100 time=0
the msg is note_off channel=0 note=74 velocity=0 time=4
the msg is note_on channel=0 note=74 velocity=100 time=0
the msg is note_off channel=0 note=72 velocity=0 time=12
the msg is note_on channel=0 note=72 velocity=100 time=0
the msg is note_off channel=0 note=72 velocity=0 time=89
the msg is note_on channel=0 note=72 velocity=100 time=0
the msg is note_off channel=0 note=72 velocity=0 time=12
the msg is note_on channel=0 note=72 velocity=100 time=0
the msg is note_off channel=0 note=74 velocity=0 time=25
the msg is note_on channel=0 note=74 velocity=100 time=0
the msg is note_off channel=0 note=74 velocity=0 time=25
the msg is note_on channel=0 note=74 velocity=100 time=0
the msg is note_off channel=0 note=74 velocity=0 time=12
the msg is note_on channel=0 note=74 velocity=100 time=0
the msg is note_off channel=0 note=76 velocity=0 time=25
the msg is note_on channel=0 note=76 velocity=100 time=0
the msg is note_off channel=0 note=79 velocity=0 time=25
the msg is note_on channel=0 note=79 velocity=100 time=0
the msg is note_off channel=0 note=79 velocity=0 time=12
the msg is note_on channel=0 note=79 velocity=100 time=0
the msg is note_off channel=0 note=76 velocity=0 time=12
the msg is note_on channel=0 note=76 velocity=100 time=0
the msg is note_off channel=0 note=74 velocity=0 time=12
the msg is note_on channel=0 note=74 velocity=100 time=0
the msg is note_off channel=0 note=72 velocity=0 time=12
the msg is note_on channel=0 note=72 velocity=100 time=0
the msg is note_off channel=0 note=74 velocity=0 time=25
the msg is note_on channel=0 note=74 velocity=100 time=0
the msg is note_off channel=0 note=76 velocity=0 time=25
the msg is note_on channel=0 note=76 velocity=100 time=0
the msg is note_off channel=0 note=79 velocity=0 time=25
the msg is note_on channel=0 note=79 velocity=100 time=0
the msg is note_off channel=0 note=79 velocity=0 time=12
the msg is note_on channel=0 note=79 velocity=100 time=0
the msg is note_off channel=0 note=76 velocity=0 time=12
the msg is note_on channel=0 note=76 velocity=100 time=0
the msg is note_off channel=0 note=74 velocity=0 time=12
the msg is note_on channel=0 note=74 velocity=100 time=0
the msg is note_off channel=0 note=72 velocity=0 time=12
the msg is note_on channel=0 note=72 velocity=100 time=0
the msg is note_off channel=0 note=74 velocity=0 time=25
the msg is note_on channel=0 note=74 velocity=100 time=0
the msg is note_off channel=0 note=74 velocity=0 time=12
the msg is note_on channel=0 note=74 velocity=100 time=0
the msg is note_off channel=0 note=74 velocity=0 time=12
the msg is note_on channel=0 note=74 velocity=100 time=0
the msg is note_off channel=0 note=74 velocity=0 time=25
the msg is note_on channel=0 note=74 velocity=100 time=0
the msg is note_off channel=0 note=74 velocity=0 time=25
the msg is note_on channel=0 note=74 velocity=100 time=0
the msg is note_off channel=0 note=76 velocity=0 time=25
the msg is note_on channel=0 note=76 velocity=100 time=0
the msg is note_off channel=0 note=79 velocity=0 time=25
the msg is note_on channel=0 note=79 velocity=100 time=0
the msg is note_off channel=0 note=79 velocity=0 time=12
the msg is note_on channel=0 note=79 velocity=100 time=0
the msg is note_off channel=0 note=76 velocity=0 time=12
the msg is note_on channel=0 note=76 velocity=100 time=0
the msg is note_off channel=0 note=74 velocity=0 time=12
the msg is note_on channel=0 note=74 velocity=100 time=0
the msg is note_off channel=0 note=72 velocity=0 time=12
the msg is note_on channel=0 note=72 velocity=100 time=0
the msg is note_off channel=0 note=72 velocity=0 time=81
the msg is note_on channel=0 note=72 velocity=100 time=0
the msg is note_off channel=0 note=72 velocity=0 time=8
the msg is note_on channel=0 note=72 velocity=100 time=0
the msg is note_off channel=0 note=74 velocity=0 time=25
the msg is note_on channel=0 note=74 velocity=100 time=0
the msg is note_off channel=0 note=74 velocity=0 time=25
the msg is note_on channel=0 note=74 velocity=100 time=0
the msg is note_off channel=0 note=74 velocity=0 time=25
the msg is note_on channel=0 note=74 velocity=100 time=0
the msg is note_off channel=0 note=74 velocity=0 time=25
the msg is note_on channel=0 note=74 velocity=100 time=0
the msg is note_off channel=0 note=74 velocity=0 time=25
the msg is note_on channel=0 note=74 velocity=100 time=0
the msg is note_off channel=0 note=74 velocity=0 time=25
the msg is note_on channel=0 note=74 velocity=100 time=0
the msg is note_off channel=0 note=76 velocity=0 time=25
the msg is note_on channel=0 note=76 velocity=100 time=0
the msg is note_off channel=0 note=79 velocity=0 time=25
the msg is note_on channel=0 note=79 velocity=100 time=0
the msg is note_off channel=0 note=79 velocity=0 time=12
the msg is note_on channel=0 note=79 velocity=100 time=0
the msg is note_off channel=0 note=76 velocity=0 time=12
the msg is note_on channel=0 note=76 velocity=100 time=0
the msg is note_off channel=0 note=74 velocity=0 time=17
the msg is note_on channel=0 note=74 velocity=100 time=0
the msg is note_off channel=0 note=72 velocity=0 time=8
the msg is note_on channel=0 note=72 velocity=100 time=0
the msg is note_off channel=0 note=72 velocity=0 time=25
the msg is note_on channel=0 note=72 velocity=100 time=0
the msg is note_off channel=0 note=72 velocity=0 time=25
the msg is note_on channel=0 note=72 velocity=100 time=0
the msg is note_off channel=0 note=72 velocity=0 time=12
the msg is note_on channel=0 note=72 velocity=100 time=0
the msg is note_off channel=0 note=72 velocity=0 time=29
the msg is note_on channel=0 note=72 velocity=100 time=0
the msg is note_off channel=0 note=72 velocity=0 time=8
the msg is note_on channel=0 note=72 velocity=100 time=0
the msg is note_off channel=0 note=72 velocity=0 time=25
the msg is note_on channel=0 note=72 velocity=100 time=0
the msg is note_off channel=0 note=72 velocity=0 time=12
the msg is note_on channel=0 note=72 velocity=100 time=0
the msg is note_off channel=0 note=72 velocity=0 time=12
the msg is note_on channel=0 note=72 velocity=100 time=0
the msg is note_off channel=0 note=72 velocity=0 time=12
the msg is note_on channel=0 note=72 velocity=100 time=0
the msg is note_off channel=0 note=76 velocity=0 time=12
the msg is note_on channel=0 note=76 velocity=100 time=0
the msg is note_off channel=0 note=79 velocity=0 time=25
the msg is note_on channel=0 note=79 velocity=100 time=0
the msg is note_off channel=0 note=79 velocity=0 time=12
the msg is note_on channel=0 note=79 velocity=100 time=0
the msg is note_off channel=0 note=76 velocity=0 time=12
the msg is note_on channel=0 note=76 velocity=100 time=0
the msg is note_off channel=0 note=74 velocity=0 time=12
the msg is note_on channel=0 note=74 velocity=100 time=0
the msg is note_off channel=0 note=72 velocity=0 time=12
the msg is note_on channel=0 note=72 velocity=100 time=0
the msg is note_off channel=0 note=72 velocity=0 time=76
the msg is note_on channel=0 note=72 velocity=100 time=0
the msg is note_off channel=0 note=72 velocity=0 time=12
the msg is note_on channel=0 note=72 velocity=100 time=0
the msg is note_off channel=0 note=72 velocity=0 time=12
the msg is note_on channel=0 note=72 velocity=100 time=0
the msg is note_off channel=0 note=72 velocity=0 time=8
the msg is note_on channel=0 note=72 velocity=100 time=0
the msg is note_off channel=0 note=72 velocity=0 time=17
the msg is note_on channel=0 note=72 velocity=100 time=0
the msg is note_off channel=0 note=72 velocity=0 time=12
the msg is note_on channel=0 note=72 velocity=100 time=0
the msg is note_off channel=0 note=72 velocity=0 time=12
the msg is note_on channel=0 note=72 velocity=100 time=0
the msg is note_off channel=0 note=76 velocity=0 time=8
the msg is note_on channel=0 note=76 velocity=100 time=0
the msg is note_off channel=0 note=79 velocity=0 time=29
the msg is note_on channel=0 note=79 velocity=100 time=0
the msg is note_off channel=0 note=79 velocity=0 time=12
the msg is note_on channel=0 note=79 velocity=100 time=0
the msg is note_off channel=0 note=76 velocity=0 time=8
the msg is note_on channel=0 note=76 velocity=100 time=0
the msg is note_off channel=0 note=74 velocity=0 time=17
the msg is note_on channel=0 note=74 velocity=100 time=0
the msg is <meta message end_of_track time=51>
the msg is <meta message track_name name='Piano' time=0>
the msg is program_change channel=0 program=0 time=0
the msg is note_off channel=0 note=72 velocity=0 time=0
the msg is pitchwheel channel=0 pitch=0 time=0
the msg is program_change channel=0 program=0 time=0
the msg is <meta message set_tempo tempo=500000 time=0>
the msg is <meta message time_signature numerator=4 denominator=4 clocks_per_click=24 notated_32nd_notes_per_beat=8 time=0>
the msg is note_on channel=0 note=72 velocity=100 time=0
the msg is note_off channel=0 note=74 velocity=0 time=34
the msg is note_on channel=0 note=74 velocity=100 time=0
the msg is note_off channel=0 note=74 velocity=0 time=17
the msg is note_on channel=0 note=74 velocity=100 time=0
the msg is note_off channel=0 note=74 velocity=0 time=34
the msg is note_on channel=0 note=74 velocity=100 time=0
the msg is note_off channel=0 note=74 velocity=0 time=17
the msg is note_on channel=0 note=74 velocity=100 time=0
the msg is note_off channel=0 note=76 velocity=0 time=34
the msg is note_on channel=0 note=76 velocity=100 time=0
the msg is note_off channel=0 note=79 velocity=0 time=17
the msg is note_on channel=0 note=79 velocity=100 time=0
the msg is note_off channel=0 note=79 velocity=0 time=17
the msg is note_on channel=0 note=79 velocity=100 time=0
the msg is note_off channel=0 note=76 velocity=0 time=17
the msg is note_on channel=0 note=76 velocity=100 time=0
the msg is note_off channel=0 note=74 velocity=0 time=4
the msg is note_on channel=0 note=74 velocity=100 time=0
the msg is note_off channel=0 note=72 velocity=0 time=12
the msg is note_on channel=0 note=72 velocity=100 time=0
the msg is note_off channel=0 note=72 velocity=0 time=89
the msg is note_on channel=0 note=72 velocity=100 time=0
the msg is note_off channel=0 note=72 velocity=0 time=12
the msg is note_on channel=0 note=72 velocity=100 time=0
the msg is note_off channel=0 note=74 velocity=0 time=25
the msg is note_on channel=0 note=74 velocity=100 time=0
the msg is note_off channel=0 note=74 velocity=0 time=25
the msg is note_on channel=0 note=74 velocity=100 time=0
the msg is note_off channel=0 note=74 velocity=0 time=12
the msg is note_on channel=0 note=74 velocity=100 time=0
the msg is note_off channel=0 note=76 velocity=0 time=25
the msg is note_on channel=0 note=76 velocity=100 time=0
the msg is note_off channel=0 note=79 velocity=0 time=25
the msg is note_on channel=0 note=79 velocity=100 time=0
the msg is note_off channel=0 note=79 velocity=0 time=12
the msg is note_on channel=0 note=79 velocity=100 time=0
the msg is note_off channel=0 note=76 velocity=0 time=12
the msg is note_on channel=0 note=76 velocity=100 time=0
the msg is note_off channel=0 note=74 velocity=0 time=12
the msg is note_on channel=0 note=74 velocity=100 time=0
the msg is note_off channel=0 note=72 velocity=0 time=12
the msg is note_on channel=0 note=72 velocity=100 time=0
the msg is note_off channel=0 note=74 velocity=0 time=25
the msg is note_on channel=0 note=74 velocity=100 time=0
the msg is note_off channel=0 note=76 velocity=0 time=25
the msg is note_on channel=0 note=76 velocity=100 time=0
the msg is note_off channel=0 note=79 velocity=0 time=25
the msg is note_on channel=0 note=79 velocity=100 time=0
the msg is note_off channel=0 note=79 velocity=0 time=12
the msg is note_on channel=0 note=79 velocity=100 time=0
the msg is note_off channel=0 note=76 velocity=0 time=12
the msg is note_on channel=0 note=76 velocity=100 time=0
the msg is note_off channel=0 note=74 velocity=0 time=12
the msg is note_on channel=0 note=74 velocity=100 time=0
the msg is note_off channel=0 note=72 velocity=0 time=12
the msg is note_on channel=0 note=72 velocity=100 time=0
the msg is note_off channel=0 note=74 velocity=0 time=25
the msg is note_on channel=0 note=74 velocity=100 time=0
the msg is note_off channel=0 note=74 velocity=0 time=12
the msg is note_on channel=0 note=74 velocity=100 time=0
the msg is note_off channel=0 note=74 velocity=0 time=12
the msg is note_on channel=0 note=74 velocity=100 time=0
the msg is note_off channel=0 note=74 velocity=0 time=25
the msg is note_on channel=0 note=74 velocity=100 time=0
the msg is note_off channel=0 note=74 velocity=0 time=25
the msg is note_on channel=0 note=74 velocity=100 time=0
the msg is note_off channel=0 note=76 velocity=0 time=25
the msg is note_on channel=0 note=76 velocity=100 time=0
the msg is note_off channel=0 note=79 velocity=0 time=25
the msg is note_on channel=0 note=79 velocity=100 time=0
the msg is note_off channel=0 note=79 velocity=0 time=12
the msg is note_on channel=0 note=79 velocity=100 time=0
the msg is note_off channel=0 note=76 velocity=0 time=12
the msg is note_on channel=0 note=76 velocity=100 time=0
the msg is note_off channel=0 note=74 velocity=0 time=12
the msg is note_on channel=0 note=74 velocity=100 time=0
the msg is note_off channel=0 note=72 velocity=0 time=12
the msg is note_on channel=0 note=72 velocity=100 time=0
the msg is note_off channel=0 note=72 velocity=0 time=81
the msg is note_on channel=0 note=72 velocity=100 time=0
the msg is note_off channel=0 note=72 velocity=0 time=8
the msg is note_on channel=0 note=72 velocity=100 time=0
the msg is note_off channel=0 note=74 velocity=0 time=25
the msg is note_on channel=0 note=74 velocity=100 time=0
the msg is note_off channel=0 note=74 velocity=0 time=25
the msg is note_on channel=0 note=74 velocity=100 time=0
the msg is note_off channel=0 note=74 velocity=0 time=25
the msg is note_on channel=0 note=74 velocity=100 time=0
the msg is note_off channel=0 note=74 velocity=0 time=25
the msg is note_on channel=0 note=74 velocity=100 time=0
the msg is note_off channel=0 note=74 velocity=0 time=25
the msg is note_on channel=0 note=74 velocity=100 time=0
the msg is note_off channel=0 note=74 velocity=0 time=25
the msg is note_on channel=0 note=74 velocity=100 time=0
the msg is note_off channel=0 note=76 velocity=0 time=25
the msg is note_on channel=0 note=76 velocity=100 time=0
the msg is note_off channel=0 note=79 velocity=0 time=25
the msg is note_on channel=0 note=79 velocity=100 time=0
the msg is note_off channel=0 note=79 velocity=0 time=12
the msg is note_on channel=0 note=79 velocity=100 time=0
the msg is note_off channel=0 note=76 velocity=0 time=12
the msg is note_on channel=0 note=76 velocity=100 time=0
the msg is note_off channel=0 note=74 velocity=0 time=17
the msg is note_on channel=0 note=74 velocity=100 time=0
the msg is note_off channel=0 note=72 velocity=0 time=8
the msg is note_on channel=0 note=72 velocity=100 time=0
the msg is note_off channel=0 note=72 velocity=0 time=25
the msg is note_on channel=0 note=72 velocity=100 time=0
the msg is note_off channel=0 note=72 velocity=0 time=25
the msg is note_on channel=0 note=72 velocity=100 time=0
the msg is note_off channel=0 note=72 velocity=0 time=12
the msg is note_on channel=0 note=72 velocity=100 time=0
the msg is note_off channel=0 note=72 velocity=0 time=29
the msg is note_on channel=0 note=72 velocity=100 time=0
the msg is note_off channel=0 note=72 velocity=0 time=8
the msg is note_on channel=0 note=72 velocity=100 time=0
the msg is note_off channel=0 note=72 velocity=0 time=25
the msg is note_on channel=0 note=72 velocity=100 time=0
the msg is note_off channel=0 note=72 velocity=0 time=12
the msg is note_on channel=0 note=72 velocity=100 time=0
the msg is note_off channel=0 note=72 velocity=0 time=12
the msg is note_on channel=0 note=72 velocity=100 time=0
the msg is note_off channel=0 note=72 velocity=0 time=12
the msg is note_on channel=0 note=72 velocity=100 time=0
the msg is note_off channel=0 note=76 velocity=0 time=12
the msg is note_on channel=0 note=76 velocity=100 time=0
the msg is note_off channel=0 note=79 velocity=0 time=25
the msg is note_on channel=0 note=79 velocity=100 time=0
the msg is note_off channel=0 note=79 velocity=0 time=12
the msg is note_on channel=0 note=79 velocity=100 time=0
the msg is note_off channel=0 note=76 velocity=0 time=12
the msg is note_on channel=0 note=76 velocity=100 time=0
the msg is note_off channel=0 note=74 velocity=0 time=12
the msg is note_on channel=0 note=74 velocity=100 time=0
the msg is note_off channel=0 note=72 velocity=0 time=12
the msg is note_on channel=0 note=72 velocity=100 time=0
the msg is note_off channel=0 note=72 velocity=0 time=76
the msg is note_on channel=0 note=72 velocity=100 time=0
the msg is note_off channel=0 note=72 velocity=0 time=12
the msg is note_on channel=0 note=72 velocity=100 time=0
the msg is note_off channel=0 note=72 velocity=0 time=12
the msg is note_on channel=0 note=72 velocity=100 time=0
the msg is note_off channel=0 note=72 velocity=0 time=8
the msg is note_on channel=0 note=72 velocity=100 time=0
the msg is note_off channel=0 note=72 velocity=0 time=17
the msg is note_on channel=0 note=72 velocity=100 time=0
the msg is note_off channel=0 note=72 velocity=0 time=12
the msg is note_on channel=0 note=72 velocity=100 time=0
the msg is note_off channel=0 note=72 velocity=0 time=12
the msg is note_on channel=0 note=72 velocity=100 time=0
the msg is note_off channel=0 note=76 velocity=0 time=8
the msg is note_on channel=0 note=76 velocity=100 time=0
the msg is note_off channel=0 note=79 velocity=0 time=29
the msg is note_on channel=0 note=79 velocity=100 time=0
the msg is note_off channel=0 note=79 velocity=0 time=12
the msg is note_on channel=0 note=79 velocity=100 time=0
the msg is note_off channel=0 note=76 velocity=0 time=8
the msg is note_on channel=0 note=76 velocity=100 time=0
the msg is note_off channel=0 note=74 velocity=0 time=17
the msg is note_on channel=0 note=74 velocity=100 time=0
the msg is <meta message end_of_track time=51>
the msg is <meta message track_name name='Piano' time=0>
the msg is program_change channel=0 program=0 time=0
the msg is note_off channel=0 note=72 velocity=0 time=0
the msg is pitchwheel channel=0 pitch=0 time=0
the msg is program_change channel=0 program=0 time=0
the msg is <meta message set_tempo tempo=500000 time=0>
the msg is <meta message time_signature numerator=4 denominator=4 clocks_per_click=24 notated_32nd_notes_per_beat=8 time=0>
the msg is note_on channel=0 note=72 velocity=100 time=0
the msg is note_off channel=0 note=74 velocity=0 time=34
the msg is note_on channel=0 note=74 velocity=100 time=0
the msg is note_off channel=0 note=74 velocity=0 time=17
the msg is note_on channel=0 note=74 velocity=100 time=0
the msg is note_off channel=0 note=74 velocity=0 time=34
the msg is note_on channel=0 note=74 velocity=100 time=0
the msg is note_off channel=0 note=74 velocity=0 time=17
the msg is note_on channel=0 note=74 velocity=100 time=0
the msg is note_off channel=0 note=76 velocity=0 time=34
the msg is note_on channel=0 note=76 velocity=100 time=0
the msg is note_off channel=0 note=79 velocity=0 time=17
the msg is note_on channel=0 note=79 velocity=100 time=0
the msg is note_off channel=0 note=79 velocity=0 time=17
the msg is note_on channel=0 note=79 velocity=100 time=0
the msg is note_off channel=0 note=76 velocity=0 time=17
the msg is note_on channel=0 note=76 velocity=100 time=0
the msg is note_off channel=0 note=74 velocity=0 time=4
the msg is note_on channel=0 note=74 velocity=100 time=0
the msg is note_off channel=0 note=72 velocity=0 time=12
the msg is note_on channel=0 note=72 velocity=100 time=0
the msg is note_off channel=0 note=72 velocity=0 time=89
the msg is note_on channel=0 note=72 velocity=100 time=0
the msg is note_off channel=0 note=72 velocity=0 time=12
the msg is note_on channel=0 note=72 velocity=100 time=0
the msg is note_off channel=0 note=74 velocity=0 time=25
the msg is note_on channel=0 note=74 velocity=100 time=0
the msg is note_off channel=0 note=74 velocity=0 time=25
the msg is note_on channel=0 note=74 velocity=100 time=0
the msg is note_off channel=0 note=74 velocity=0 time=12
the msg is note_on channel=0 note=74 velocity=100 time=0
the msg is note_off channel=0 note=76 velocity=0 time=25
the msg is note_on channel=0 note=76 velocity=100 time=0
the msg is note_off channel=0 note=79 velocity=0 time=25
the msg is note_on channel=0 note=79 velocity=100 time=0
the msg is note_off channel=0 note=79 velocity=0 time=12
the msg is note_on channel=0 note=79 velocity=100 time=0
the msg is note_off channel=0 note=76 velocity=0 time=12
the msg is note_on channel=0 note=76 velocity=100 time=0
the msg is note_off channel=0 note=74 velocity=0 time=12
the msg is note_on channel=0 note=74 velocity=100 time=0
the msg is note_off channel=0 note=72 velocity=0 time=12
the msg is note_on channel=0 note=72 velocity=100 time=0
the msg is note_off channel=0 note=74 velocity=0 time=25
the msg is note_on channel=0 note=74 velocity=100 time=0
the msg is note_off channel=0 note=76 velocity=0 time=25
the msg is note_on channel=0 note=76 velocity=100 time=0
the msg is note_off channel=0 note=79 velocity=0 time=25
the msg is note_on channel=0 note=79 velocity=100 time=0
the msg is note_off channel=0 note=79 velocity=0 time=12
the msg is note_on channel=0 note=79 velocity=100 time=0
the msg is note_off channel=0 note=76 velocity=0 time=12
the msg is note_on channel=0 note=76 velocity=100 time=0
the msg is note_off channel=0 note=74 velocity=0 time=12
the msg is note_on channel=0 note=74 velocity=100 time=0
the msg is note_off channel=0 note=72 velocity=0 time=12
the msg is note_on channel=0 note=72 velocity=100 time=0
the msg is note_off channel=0 note=74 velocity=0 time=25
the msg is note_on channel=0 note=74 velocity=100 time=0
the msg is note_off channel=0 note=74 velocity=0 time=12
the msg is note_on channel=0 note=74 velocity=100 time=0
the msg is note_off channel=0 note=74 velocity=0 time=12
the msg is note_on channel=0 note=74 velocity=100 time=0
the msg is note_off channel=0 note=74 velocity=0 time=25
the msg is note_on channel=0 note=74 velocity=100 time=0
the msg is note_off channel=0 note=74 velocity=0 time=25
the msg is note_on channel=0 note=74 velocity=100 time=0
the msg is note_off channel=0 note=76 velocity=0 time=25
the msg is note_on channel=0 note=76 velocity=100 time=0
the msg is note_off channel=0 note=79 velocity=0 time=25
the msg is note_on channel=0 note=79 velocity=100 time=0
the msg is note_off channel=0 note=79 velocity=0 time=12
the msg is note_on channel=0 note=79 velocity=100 time=0
the msg is note_off channel=0 note=76 velocity=0 time=12
the msg is note_on channel=0 note=76 velocity=100 time=0
the msg is note_off channel=0 note=74 velocity=0 time=12
the msg is note_on channel=0 note=74 velocity=100 time=0
the msg is note_off channel=0 note=72 velocity=0 time=12
the msg is note_on channel=0 note=72 velocity=100 time=0
the msg is note_off channel=0 note=72 velocity=0 time=81
the msg is note_on channel=0 note=72 velocity=100 time=0
the msg is note_off channel=0 note=72 velocity=0 time=8
the msg is note_on channel=0 note=72 velocity=100 time=0
the msg is note_off channel=0 note=74 velocity=0 time=25
the msg is note_on channel=0 note=74 velocity=100 time=0
the msg is note_off channel=0 note=74 velocity=0 time=25
the msg is note_on channel=0 note=74 velocity=100 time=0
the msg is note_off channel=0 note=74 velocity=0 time=25
the msg is note_on channel=0 note=74 velocity=100 time=0
the msg is note_off channel=0 note=74 velocity=0 time=25
the msg is note_on channel=0 note=74 velocity=100 time=0
the msg is note_off channel=0 note=74 velocity=0 time=25
the msg is note_on channel=0 note=74 velocity=100 time=0
the msg is note_off channel=0 note=74 velocity=0 time=25
the msg is note_on channel=0 note=74 velocity=100 time=0
the msg is note_off channel=0 note=76 velocity=0 time=25
the msg is note_on channel=0 note=76 velocity=100 time=0
the msg is note_off channel=0 note=79 velocity=0 time=25
the msg is note_on channel=0 note=79 velocity=100 time=0
the msg is note_off channel=0 note=79 velocity=0 time=12
the msg is note_on channel=0 note=79 velocity=100 time=0
the msg is note_off channel=0 note=76 velocity=0 time=12
the msg is note_on channel=0 note=76 velocity=100 time=0
the msg is note_off channel=0 note=74 velocity=0 time=17
the msg is note_on channel=0 note=74 velocity=100 time=0
the msg is note_off channel=0 note=72 velocity=0 time=8
the msg is note_on channel=0 note=72 velocity=100 time=0
the msg is note_off channel=0 note=72 velocity=0 time=25
the msg is note_on channel=0 note=72 velocity=100 time=0
the msg is note_off channel=0 note=72 velocity=0 time=25
the msg is note_on channel=0 note=72 velocity=100 time=0
the msg is note_off channel=0 note=72 velocity=0 time=12
the msg is note_on channel=0 note=72 velocity=100 time=0
the msg is note_off channel=0 note=72 velocity=0 time=29
the msg is note_on channel=0 note=72 velocity=100 time=0
the msg is note_off channel=0 note=72 velocity=0 time=8
the msg is note_on channel=0 note=72 velocity=100 time=0
the msg is note_off channel=0 note=72 velocity=0 time=25
the msg is note_on channel=0 note=72 velocity=100 time=0
the msg is note_off channel=0 note=72 velocity=0 time=12
the msg is note_on channel=0 note=72 velocity=100 time=0
the msg is note_off channel=0 note=72 velocity=0 time=12
the msg is note_on channel=0 note=72 velocity=100 time=0
the msg is note_off channel=0 note=72 velocity=0 time=12
the msg is note_on channel=0 note=72 velocity=100 time=0
the msg is note_off channel=0 note=76 velocity=0 time=12
the msg is note_on channel=0 note=76 velocity=100 time=0
the msg is note_off channel=0 note=79 velocity=0 time=25
the msg is note_on channel=0 note=79 velocity=100 time=0
the msg is note_off channel=0 note=79 velocity=0 time=12
the msg is note_on channel=0 note=79 velocity=100 time=0
the msg is note_off channel=0 note=76 velocity=0 time=12
the msg is note_on channel=0 note=76 velocity=100 time=0
the msg is note_off channel=0 note=74 velocity=0 time=12
the msg is note_on channel=0 note=74 velocity=100 time=0
the msg is note_off channel=0 note=72 velocity=0 time=12
the msg is note_on channel=0 note=72 velocity=100 time=0
the msg is note_off channel=0 note=72 velocity=0 time=76
the msg is note_on channel=0 note=72 velocity=100 time=0
the msg is note_off channel=0 note=72 velocity=0 time=12
the msg is note_on channel=0 note=72 velocity=100 time=0
the msg is note_off channel=0 note=72 velocity=0 time=12
the msg is note_on channel=0 note=72 velocity=100 time=0
the msg is note_off channel=0 note=72 velocity=0 time=8
the msg is note_on channel=0 note=72 velocity=100 time=0
the msg is note_off channel=0 note=72 velocity=0 time=17
the msg is note_on channel=0 note=72 velocity=100 time=0
the msg is note_off channel=0 note=72 velocity=0 time=12
the msg is note_on channel=0 note=72 velocity=100 time=0
the msg is note_off channel=0 note=72 velocity=0 time=12
the msg is note_on channel=0 note=72 velocity=100 time=0
the msg is note_off channel=0 note=76 velocity=0 time=8
the msg is note_on channel=0 note=76 velocity=100 time=0
the msg is note_off channel=0 note=79 velocity=0 time=29
the msg is note_on channel=0 note=79 velocity=100 time=0
the msg is note_off channel=0 note=79 velocity=0 time=12
the msg is note_on channel=0 note=79 velocity=100 time=0
the msg is note_off channel=0 note=76 velocity=0 time=8
the msg is note_on channel=0 note=76 velocity=100 time=0
the msg is note_off channel=0 note=74 velocity=0 time=17
the msg is note_on channel=0 note=74 velocity=100 time=0
the msg is <meta message end_of_track time=51>
the msg is <meta message track_name name='Piano' time=0>
the msg is program_change channel=0 program=0 time=0
the msg is note_off channel=0 note=72 velocity=0 time=0
the msg is pitchwheel channel=0 pitch=0 time=0
the msg is program_change channel=0 program=0 time=0
the msg is <meta message set_tempo tempo=500000 time=0>
the msg is <meta message time_signature numerator=4 denominator=4 clocks_per_click=24 notated_32nd_notes_per_beat=8 time=0>
the msg is note_on channel=0 note=72 velocity=100 time=0
the msg is note_off channel=0 note=74 velocity=0 time=34
the msg is note_on channel=0 note=74 velocity=100 time=0
the msg is note_off channel=0 note=74 velocity=0 time=17
the msg is note_on channel=0 note=74 velocity=100 time=0
the msg is note_off channel=0 note=74 velocity=0 time=34
the msg is note_on channel=0 note=74 velocity=100 time=0
the msg is note_off channel=0 note=74 velocity=0 time=17
the msg is note_on channel=0 note=74 velocity=100 time=0
the msg is note_off channel=0 note=76 velocity=0 time=34
the msg is note_on channel=0 note=76 velocity=100 time=0
the msg is note_off channel=0 note=79 velocity=0 time=17
the msg is note_on channel=0 note=79 velocity=100 time=0
the msg is note_off channel=0 note=79 velocity=0 time=17
the msg is note_on channel=0 note=79 velocity=100 time=0
the msg is note_off channel=0 note=76 velocity=0 time=17
the msg is note_on channel=0 note=76 velocity=100 time=0
the msg is note_off channel=0 note=74 velocity=0 time=4
the msg is note_on channel=0 note=74 velocity=100 time=0
the msg is note_off channel=0 note=72 velocity=0 time=12
the msg is note_on channel=0 note=72 velocity=100 time=0
the msg is note_off channel=0 note=72 velocity=0 time=89
the msg is note_on channel=0 note=72 velocity=100 time=0
the msg is note_off channel=0 note=72 velocity=0 time=12
the msg is note_on channel=0 note=72 velocity=100 time=0
the msg is note_off channel=0 note=74 velocity=0 time=25
the msg is note_on channel=0 note=74 velocity=100 time=0
the msg is note_off channel=0 note=74 velocity=0 time=25
the msg is note_on channel=0 note=74 velocity=100 time=0
the msg is note_off channel=0 note=74 velocity=0 time=12
the msg is note_on channel=0 note=74 velocity=100 time=0
the msg is note_off channel=0 note=76 velocity=0 time=25
the msg is note_on channel=0 note=76 velocity=100 time=0
the msg is note_off channel=0 note=79 velocity=0 time=25
the msg is note_on channel=0 note=79 velocity=100 time=0
the msg is note_off channel=0 note=79 velocity=0 time=12
the msg is note_on channel=0 note=79 velocity=100 time=0
the msg is note_off channel=0 note=76 velocity=0 time=12
the msg is note_on channel=0 note=76 velocity=100 time=0
the msg is note_off channel=0 note=74 velocity=0 time=12
the msg is note_on channel=0 note=74 velocity=100 time=0
the msg is note_off channel=0 note=72 velocity=0 time=12
the msg is note_on channel=0 note=72 velocity=100 time=0
the msg is note_off channel=0 note=74 velocity=0 time=25
the msg is note_on channel=0 note=74 velocity=100 time=0
the msg is note_off channel=0 note=76 velocity=0 time=25
the msg is note_on channel=0 note=76 velocity=100 time=0
the msg is note_off channel=0 note=79 velocity=0 time=25
the msg is note_on channel=0 note=79 velocity=100 time=0
the msg is note_off channel=0 note=79 velocity=0 time=12
the msg is note_on channel=0 note=79 velocity=100 time=0
the msg is note_off channel=0 note=76 velocity=0 time=12
the msg is note_on channel=0 note=76 velocity=100 time=0
the msg is note_off channel=0 note=74 velocity=0 time=12
the msg is note_on channel=0 note=74 velocity=100 time=0
the msg is note_off channel=0 note=72 velocity=0 time=12
the msg is note_on channel=0 note=72 velocity=100 time=0
the msg is note_off channel=0 note=74 velocity=0 time=25
the msg is note_on channel=0 note=74 velocity=100 time=0
the msg is note_off channel=0 note=74 velocity=0 time=12
the msg is note_on channel=0 note=74 velocity=100 time=0
the msg is note_off channel=0 note=74 velocity=0 time=12
the msg is note_on channel=0 note=74 velocity=100 time=0
the msg is note_off channel=0 note=74 velocity=0 time=25
the msg is note_on channel=0 note=74 velocity=100 time=0
the msg is note_off channel=0 note=74 velocity=0 time=25
the msg is note_on channel=0 note=74 velocity=100 time=0
the msg is note_off channel=0 note=76 velocity=0 time=25
the msg is note_on channel=0 note=76 velocity=100 time=0
the msg is note_off channel=0 note=79 velocity=0 time=25
the msg is note_on channel=0 note=79 velocity=100 time=0
the msg is note_off channel=0 note=79 velocity=0 time=12
the msg is note_on channel=0 note=79 velocity=100 time=0
the msg is note_off channel=0 note=76 velocity=0 time=12
the msg is note_on channel=0 note=76 velocity=100 time=0
the msg is note_off channel=0 note=74 velocity=0 time=12
the msg is note_on channel=0 note=74 velocity=100 time=0
the msg is note_off channel=0 note=72 velocity=0 time=12
the msg is note_on channel=0 note=72 velocity=100 time=0
the msg is note_off channel=0 note=72 velocity=0 time=81
the msg is note_on channel=0 note=72 velocity=100 time=0
the msg is note_off channel=0 note=72 velocity=0 time=8
the msg is note_on channel=0 note=72 velocity=100 time=0
the msg is note_off channel=0 note=74 velocity=0 time=25
the msg is note_on channel=0 note=74 velocity=100 time=0
the msg is note_off channel=0 note=74 velocity=0 time=25
the msg is note_on channel=0 note=74 velocity=100 time=0
the msg is note_off channel=0 note=74 velocity=0 time=25
the msg is note_on channel=0 note=74 velocity=100 time=0
the msg is note_off channel=0 note=74 velocity=0 time=25
the msg is note_on channel=0 note=74 velocity=100 time=0
the msg is note_off channel=0 note=74 velocity=0 time=25
the msg is note_on channel=0 note=74 velocity=100 time=0
the msg is note_off channel=0 note=74 velocity=0 time=25
the msg is note_on channel=0 note=74 velocity=100 time=0
the msg is note_off channel=0 note=76 velocity=0 time=25
the msg is note_on channel=0 note=76 velocity=100 time=0
the msg is note_off channel=0 note=79 velocity=0 time=25
the msg is note_on channel=0 note=79 velocity=100 time=0
the msg is note_off channel=0 note=79 velocity=0 time=12
the msg is note_on channel=0 note=79 velocity=100 time=0
the msg is note_off channel=0 note=76 velocity=0 time=12
the msg is note_on channel=0 note=76 velocity=100 time=0
the msg is note_off channel=0 note=74 velocity=0 time=17
the msg is note_on channel=0 note=74 velocity=100 time=0
the msg is note_off channel=0 note=72 velocity=0 time=8
the msg is note_on channel=0 note=72 velocity=100 time=0
the msg is note_off channel=0 note=72 velocity=0 time=25
the msg is note_on channel=0 note=72 velocity=100 time=0
the msg is note_off channel=0 note=72 velocity=0 time=25
the msg is note_on channel=0 note=72 velocity=100 time=0
the msg is note_off channel=0 note=72 velocity=0 time=12
the msg is note_on channel=0 note=72 velocity=100 time=0
the msg is note_off channel=0 note=72 velocity=0 time=29
the msg is note_on channel=0 note=72 velocity=100 time=0
the msg is note_off channel=0 note=72 velocity=0 time=8
the msg is note_on channel=0 note=72 velocity=100 time=0
the msg is note_off channel=0 note=72 velocity=0 time=25
the msg is note_on channel=0 note=72 velocity=100 time=0
the msg is note_off channel=0 note=72 velocity=0 time=12
the msg is note_on channel=0 note=72 velocity=100 time=0
the msg is note_off channel=0 note=72 velocity=0 time=12
the msg is note_on channel=0 note=72 velocity=100 time=0
the msg is note_off channel=0 note=72 velocity=0 time=12
the msg is note_on channel=0 note=72 velocity=100 time=0
the msg is note_off channel=0 note=76 velocity=0 time=12
the msg is note_on channel=0 note=76 velocity=100 time=0
the msg is note_off channel=0 note=79 velocity=0 time=25
the msg is note_on channel=0 note=79 velocity=100 time=0
the msg is note_off channel=0 note=79 velocity=0 time=12
the msg is note_on channel=0 note=79 velocity=100 time=0
the msg is note_off channel=0 note=76 velocity=0 time=12
the msg is note_on channel=0 note=76 velocity=100 time=0
the msg is note_off channel=0 note=74 velocity=0 time=12
the msg is note_on channel=0 note=74 velocity=100 time=0
the msg is note_off channel=0 note=72 velocity=0 time=12
the msg is note_on channel=0 note=72 velocity=100 time=0
the msg is note_off channel=0 note=72 velocity=0 time=76
the msg is note_on channel=0 note=72 velocity=100 time=0
the msg is note_off channel=0 note=72 velocity=0 time=12
the msg is note_on channel=0 note=72 velocity=100 time=0
the msg is note_off channel=0 note=72 velocity=0 time=12
the msg is note_on channel=0 note=72 velocity=100 time=0
the msg is note_off channel=0 note=72 velocity=0 time=8
the msg is note_on channel=0 note=72 velocity=100 time=0
the msg is note_off channel=0 note=72 velocity=0 time=17
the msg is note_on channel=0 note=72 velocity=100 time=0
the msg is note_off channel=0 note=72 velocity=0 time=12
the msg is note_on channel=0 note=72 velocity=100 time=0
the msg is note_off channel=0 note=72 velocity=0 time=12
the msg is note_on channel=0 note=72 velocity=100 time=0
the msg is note_off channel=0 note=76 velocity=0 time=8
the msg is note_on channel=0 note=76 velocity=100 time=0
the msg is note_off channel=0 note=79 velocity=0 time=29
the msg is note_on channel=0 note=79 velocity=100 time=0
the msg is note_off channel=0 note=79 velocity=0 time=12
the msg is note_on channel=0 note=79 velocity=100 time=0
the msg is note_off channel=0 note=76 velocity=0 time=8
the msg is note_on channel=0 note=76 velocity=100 time=0
the msg is note_off channel=0 note=74 velocity=0 time=17
the msg is note_on channel=0 note=74 velocity=100 time=0
the msg is <meta message end_of_track time=51>
the msg is <meta message track_name name='Piano' time=0>
the msg is program_change channel=0 program=0 time=0
the msg is note_off channel=0 note=72 velocity=0 time=0
the msg is pitchwheel channel=0 pitch=0 time=0
the msg is program_change channel=0 program=0 time=0
the msg is <meta message set_tempo tempo=500000 time=0>
the msg is <meta message time_signature numerator=4 denominator=4 clocks_per_click=24 notated_32nd_notes_per_beat=8 time=0>
the msg is note_on channel=0 note=72 velocity=100 time=0
the msg is note_off channel=0 note=74 velocity=0 time=34
the msg is note_on channel=0 note=74 velocity=100 time=0
the msg is note_off channel=0 note=74 velocity=0 time=17
the msg is note_on channel=0 note=74 velocity=100 time=0
the msg is note_off channel=0 note=74 velocity=0 time=34
the msg is note_on channel=0 note=74 velocity=100 time=0
the msg is note_off channel=0 note=74 velocity=0 time=17
the msg is note_on channel=0 note=74 velocity=100 time=0
the msg is note_off channel=0 note=76 velocity=0 time=34
the msg is note_on channel=0 note=76 velocity=100 time=0
the msg is note_off channel=0 note=79 velocity=0 time=17
the msg is note_on channel=0 note=79 velocity=100 time=0
the msg is note_off channel=0 note=79 velocity=0 time=17
the msg is note_on channel=0 note=79 velocity=100 time=0
the msg is note_off channel=0 note=76 velocity=0 time=17
the msg is note_on channel=0 note=76 velocity=100 time=0
the msg is note_off channel=0 note=74 velocity=0 time=4
the msg is note_on channel=0 note=74 velocity=100 time=0
the msg is note_off channel=0 note=72 velocity=0 time=12
the msg is note_on channel=0 note=72 velocity=100 time=0
the msg is note_off channel=0 note=72 velocity=0 time=89
the msg is note_on channel=0 note=72 velocity=100 time=0
the msg is note_off channel=0 note=72 velocity=0 time=12
the msg is note_on channel=0 note=72 velocity=100 time=0
the msg is note_off channel=0 note=74 velocity=0 time=25
the msg is note_on channel=0 note=74 velocity=100 time=0
the msg is note_off channel=0 note=74 velocity=0 time=25
the msg is note_on channel=0 note=74 velocity=100 time=0
the msg is note_off channel=0 note=74 velocity=0 time=12
the msg is note_on channel=0 note=74 velocity=100 time=0
the msg is note_off channel=0 note=76 velocity=0 time=25
the msg is note_on channel=0 note=76 velocity=100 time=0
the msg is note_off channel=0 note=79 velocity=0 time=25
the msg is note_on channel=0 note=79 velocity=100 time=0
the msg is note_off channel=0 note=79 velocity=0 time=12
the msg is note_on channel=0 note=79 velocity=100 time=0
the msg is note_off channel=0 note=76 velocity=0 time=12
the msg is note_on channel=0 note=76 velocity=100 time=0
the msg is note_off channel=0 note=74 velocity=0 time=12
the msg is note_on channel=0 note=74 velocity=100 time=0
the msg is note_off channel=0 note=72 velocity=0 time=12
the msg is note_on channel=0 note=72 velocity=100 time=0
the msg is note_off channel=0 note=74 velocity=0 time=25
the msg is note_on channel=0 note=74 velocity=100 time=0
the msg is note_off channel=0 note=76 velocity=0 time=25
the msg is note_on channel=0 note=76 velocity=100 time=0
the msg is note_off channel=0 note=79 velocity=0 time=25
the msg is note_on channel=0 note=79 velocity=100 time=0
the msg is note_off channel=0 note=79 velocity=0 time=12
the msg is note_on channel=0 note=79 velocity=100 time=0
the msg is note_off channel=0 note=76 velocity=0 time=12
the msg is note_on channel=0 note=76 velocity=100 time=0
the msg is note_off channel=0 note=74 velocity=0 time=12
the msg is note_on channel=0 note=74 velocity=100 time=0
the msg is note_off channel=0 note=72 velocity=0 time=12
the msg is note_on channel=0 note=72 velocity=100 time=0
the msg is note_off channel=0 note=74 velocity=0 time=25
the msg is note_on channel=0 note=74 velocity=100 time=0
the msg is note_off channel=0 note=74 velocity=0 time=12
the msg is note_on channel=0 note=74 velocity=100 time=0
the msg is note_off channel=0 note=74 velocity=0 time=12
the msg is note_on channel=0 note=74 velocity=100 time=0
the msg is note_off channel=0 note=74 velocity=0 time=25
the msg is note_on channel=0 note=74 velocity=100 time=0
the msg is note_off channel=0 note=74 velocity=0 time=25
the msg is note_on channel=0 note=74 velocity=100 time=0
the msg is note_off channel=0 note=76 velocity=0 time=25
the msg is note_on channel=0 note=76 velocity=100 time=0
the msg is note_off channel=0 note=79 velocity=0 time=25
the msg is note_on channel=0 note=79 velocity=100 time=0
the msg is note_off channel=0 note=79 velocity=0 time=12
the msg is note_on channel=0 note=79 velocity=100 time=0
the msg is note_off channel=0 note=76 velocity=0 time=12
the msg is note_on channel=0 note=76 velocity=100 time=0
the msg is note_off channel=0 note=74 velocity=0 time=12
the msg is note_on channel=0 note=74 velocity=100 time=0
the msg is note_off channel=0 note=72 velocity=0 time=12
the msg is note_on channel=0 note=72 velocity=100 time=0
the msg is note_off channel=0 note=72 velocity=0 time=81
the msg is note_on channel=0 note=72 velocity=100 time=0
the msg is note_off channel=0 note=72 velocity=0 time=8
the msg is note_on channel=0 note=72 velocity=100 time=0
the msg is note_off channel=0 note=74 velocity=0 time=25
the msg is note_on channel=0 note=74 velocity=100 time=0
the msg is note_off channel=0 note=74 velocity=0 time=25
the msg is note_on channel=0 note=74 velocity=100 time=0
the msg is note_off channel=0 note=74 velocity=0 time=25
the msg is note_on channel=0 note=74 velocity=100 time=0
the msg is note_off channel=0 note=74 velocity=0 time=25
the msg is note_on channel=0 note=74 velocity=100 time=0
the msg is note_off channel=0 note=74 velocity=0 time=25
the msg is note_on channel=0 note=74 velocity=100 time=0
the msg is note_off channel=0 note=74 velocity=0 time=25
the msg is note_on channel=0 note=74 velocity=100 time=0
the msg is note_off channel=0 note=76 velocity=0 time=25
the msg is note_on channel=0 note=76 velocity=100 time=0
the msg is note_off channel=0 note=79 velocity=0 time=25
the msg is note_on channel=0 note=79 velocity=100 time=0
the msg is note_off channel=0 note=79 velocity=0 time=12
the msg is note_on channel=0 note=79 velocity=100 time=0
the msg is note_off channel=0 note=76 velocity=0 time=12
the msg is note_on channel=0 note=76 velocity=100 time=0
the msg is note_off channel=0 note=74 velocity=0 time=17
the msg is note_on channel=0 note=74 velocity=100 time=0
the msg is note_off channel=0 note=72 velocity=0 time=8
the msg is note_on channel=0 note=72 velocity=100 time=0
the msg is note_off channel=0 note=72 velocity=0 time=25
the msg is note_on channel=0 note=72 velocity=100 time=0
the msg is note_off channel=0 note=72 velocity=0 time=25
the msg is note_on channel=0 note=72 velocity=100 time=0
the msg is note_off channel=0 note=72 velocity=0 time=12
the msg is note_on channel=0 note=72 velocity=100 time=0
the msg is note_off channel=0 note=72 velocity=0 time=29
the msg is note_on channel=0 note=72 velocity=100 time=0
the msg is note_off channel=0 note=72 velocity=0 time=8
the msg is note_on channel=0 note=72 velocity=100 time=0
the msg is note_off channel=0 note=72 velocity=0 time=25
the msg is note_on channel=0 note=72 velocity=100 time=0
the msg is note_off channel=0 note=72 velocity=0 time=12
the msg is note_on channel=0 note=72 velocity=100 time=0
the msg is note_off channel=0 note=72 velocity=0 time=12
the msg is note_on channel=0 note=72 velocity=100 time=0
the msg is note_off channel=0 note=72 velocity=0 time=12
the msg is note_on channel=0 note=72 velocity=100 time=0
the msg is note_off channel=0 note=76 velocity=0 time=12
the msg is note_on channel=0 note=76 velocity=100 time=0
the msg is note_off channel=0 note=79 velocity=0 time=25
the msg is note_on channel=0 note=79 velocity=100 time=0
the msg is note_off channel=0 note=79 velocity=0 time=12
the msg is note_on channel=0 note=79 velocity=100 time=0
the msg is note_off channel=0 note=76 velocity=0 time=12
the msg is note_on channel=0 note=76 velocity=100 time=0
the msg is note_off channel=0 note=74 velocity=0 time=12
the msg is note_on channel=0 note=74 velocity=100 time=0
the msg is note_off channel=0 note=72 velocity=0 time=12
the msg is note_on channel=0 note=72 velocity=100 time=0
the msg is note_off channel=0 note=72 velocity=0 time=76
the msg is note_on channel=0 note=72 velocity=100 time=0
the msg is note_off channel=0 note=72 velocity=0 time=12
the msg is note_on channel=0 note=72 velocity=100 time=0
the msg is note_off channel=0 note=72 velocity=0 time=12
the msg is note_on channel=0 note=72 velocity=100 time=0
the msg is note_off channel=0 note=72 velocity=0 time=8
the msg is note_on channel=0 note=72 velocity=100 time=0
the msg is note_off channel=0 note=72 velocity=0 time=17
the msg is note_on channel=0 note=72 velocity=100 time=0
the msg is note_off channel=0 note=72 velocity=0 time=12
the msg is note_on channel=0 note=72 velocity=100 time=0
the msg is note_off channel=0 note=72 velocity=0 time=12
the msg is note_on channel=0 note=72 velocity=100 time=0
the msg is note_off channel=0 note=76 velocity=0 time=8
the msg is note_on channel=0 note=76 velocity=100 time=0
the msg is note_off channel=0 note=79 velocity=0 time=29
the msg is note_on channel=0 note=79 velocity=100 time=0
the msg is note_off channel=0 note=79 velocity=0 time=12
the msg is note_on channel=0 note=79 velocity=100 time=0
the msg is note_off channel=0 note=76 velocity=0 time=8
the msg is note_on channel=0 note=76 velocity=100 time=0
the msg is note_off channel=0 note=74 velocity=0 time=17
the msg is note_on channel=0 note=74 velocity=100 time=0
the msg is <meta message end_of_track time=51>
the msg is <meta message track_name name='Piano' time=0>
the msg is program_change channel=0 program=0 time=0
the msg is note_off channel=0 note=72 velocity=0 time=0
the msg is pitchwheel channel=0 pitch=0 time=0
the msg is program_change channel=0 program=0 time=0
the msg is <meta message set_tempo tempo=500000 time=0>
the msg is <meta message time_signature numerator=4 denominator=4 clocks_per_click=24 notated_32nd_notes_per_beat=8 time=0>
the msg is note_on channel=0 note=72 velocity=100 time=0
the msg is note_off channel=0 note=74 velocity=0 time=34
the msg is note_on channel=0 note=74 velocity=100 time=0
the msg is note_off channel=0 note=74 velocity=0 time=17
the msg is note_on channel=0 note=74 velocity=100 time=0
the msg is note_off channel=0 note=74 velocity=0 time=34
the msg is note_on channel=0 note=74 velocity=100 time=0
the msg is note_off channel=0 note=74 velocity=0 time=17
the msg is note_on channel=0 note=74 velocity=100 time=0
the msg is note_off channel=0 note=76 velocity=0 time=34
the msg is note_on channel=0 note=76 velocity=100 time=0
the msg is note_off channel=0 note=79 velocity=0 time=17
the msg is note_on channel=0 note=79 velocity=100 time=0
the msg is note_off channel=0 note=79 velocity=0 time=17
the msg is note_on channel=0 note=79 velocity=100 time=0
the msg is note_off channel=0 note=76 velocity=0 time=17
the msg is note_on channel=0 note=76 velocity=100 time=0
the msg is note_off channel=0 note=74 velocity=0 time=4
the msg is note_on channel=0 note=74 velocity=100 time=0
the msg is note_off channel=0 note=72 velocity=0 time=12
the msg is note_on channel=0 note=72 velocity=100 time=0
the msg is note_off channel=0 note=72 velocity=0 time=89
the msg is note_on channel=0 note=72 velocity=100 time=0
the msg is note_off channel=0 note=72 velocity=0 time=12
the msg is note_on channel=0 note=72 velocity=100 time=0
the msg is note_off channel=0 note=74 velocity=0 time=25
the msg is note_on channel=0 note=74 velocity=100 time=0
the msg is note_off channel=0 note=74 velocity=0 time=25
the msg is note_on channel=0 note=74 velocity=100 time=0
the msg is note_off channel=0 note=74 velocity=0 time=12
the msg is note_on channel=0 note=74 velocity=100 time=0
the msg is note_off channel=0 note=76 velocity=0 time=25
the msg is note_on channel=0 note=76 velocity=100 time=0
the msg is note_off channel=0 note=79 velocity=0 time=25
the msg is note_on channel=0 note=79 velocity=100 time=0
the msg is note_off channel=0 note=79 velocity=0 time=12
the msg is note_on channel=0 note=79 velocity=100 time=0
the msg is note_off channel=0 note=76 velocity=0 time=12
the msg is note_on channel=0 note=76 velocity=100 time=0
the msg is note_off channel=0 note=74 velocity=0 time=12
the msg is note_on channel=0 note=74 velocity=100 time=0
the msg is note_off channel=0 note=72 velocity=0 time=12
the msg is note_on channel=0 note=72 velocity=100 time=0
the msg is note_off channel=0 note=74 velocity=0 time=25
the msg is note_on channel=0 note=74 velocity=100 time=0
the msg is note_off channel=0 note=76 velocity=0 time=25
the msg is note_on channel=0 note=76 velocity=100 time=0
the msg is note_off channel=0 note=79 velocity=0 time=25
the msg is note_on channel=0 note=79 velocity=100 time=0
the msg is note_off channel=0 note=79 velocity=0 time=12
the msg is note_on channel=0 note=79 velocity=100 time=0
the msg is note_off channel=0 note=76 velocity=0 time=12
the msg is note_on channel=0 note=76 velocity=100 time=0
the msg is note_off channel=0 note=74 velocity=0 time=12
the msg is note_on channel=0 note=74 velocity=100 time=0
the msg is note_off channel=0 note=72 velocity=0 time=12
the msg is note_on channel=0 note=72 velocity=100 time=0
the msg is note_off channel=0 note=74 velocity=0 time=25
the msg is note_on channel=0 note=74 velocity=100 time=0
the msg is note_off channel=0 note=74 velocity=0 time=12
the msg is note_on channel=0 note=74 velocity=100 time=0
the msg is note_off channel=0 note=74 velocity=0 time=12
the msg is note_on channel=0 note=74 velocity=100 time=0
the msg is note_off channel=0 note=74 velocity=0 time=25
the msg is note_on channel=0 note=74 velocity=100 time=0
the msg is note_off channel=0 note=74 velocity=0 time=25
the msg is note_on channel=0 note=74 velocity=100 time=0
the msg is note_off channel=0 note=76 velocity=0 time=25
the msg is note_on channel=0 note=76 velocity=100 time=0
the msg is note_off channel=0 note=79 velocity=0 time=25
the msg is note_on channel=0 note=79 velocity=100 time=0
the msg is note_off channel=0 note=79 velocity=0 time=12
the msg is note_on channel=0 note=79 velocity=100 time=0
the msg is note_off channel=0 note=76 velocity=0 time=12
the msg is note_on channel=0 note=76 velocity=100 time=0
the msg is note_off channel=0 note=74 velocity=0 time=12
the msg is note_on channel=0 note=74 velocity=100 time=0
the msg is note_off channel=0 note=72 velocity=0 time=12
the msg is note_on channel=0 note=72 velocity=100 time=0
the msg is note_off channel=0 note=72 velocity=0 time=81
the msg is note_on channel=0 note=72 velocity=100 time=0
the msg is note_off channel=0 note=72 velocity=0 time=8
the msg is note_on channel=0 note=72 velocity=100 time=0
the msg is note_off channel=0 note=74 velocity=0 time=25
the msg is note_on channel=0 note=74 velocity=100 time=0
the msg is note_off channel=0 note=74 velocity=0 time=25
the msg is note_on channel=0 note=74 velocity=100 time=0
the msg is note_off channel=0 note=74 velocity=0 time=25
the msg is note_on channel=0 note=74 velocity=100 time=0
the msg is note_off channel=0 note=74 velocity=0 time=25
the msg is note_on channel=0 note=74 velocity=100 time=0
the msg is note_off channel=0 note=74 velocity=0 time=25
the msg is note_on channel=0 note=74 velocity=100 time=0
the msg is note_off channel=0 note=74 velocity=0 time=25
the msg is note_on channel=0 note=74 velocity=100 time=0
the msg is note_off channel=0 note=76 velocity=0 time=25
the msg is note_on channel=0 note=76 velocity=100 time=0
the msg is note_off channel=0 note=79 velocity=0 time=25
the msg is note_on channel=0 note=79 velocity=100 time=0
the msg is note_off channel=0 note=79 velocity=0 time=12
the msg is note_on channel=0 note=79 velocity=100 time=0
the msg is note_off channel=0 note=76 velocity=0 time=12
the msg is note_on channel=0 note=76 velocity=100 time=0
the msg is note_off channel=0 note=74 velocity=0 time=17
the msg is note_on channel=0 note=74 velocity=100 time=0
the msg is note_off channel=0 note=72 velocity=0 time=8
the msg is note_on channel=0 note=72 velocity=100 time=0
the msg is note_off channel=0 note=72 velocity=0 time=25
the msg is note_on channel=0 note=72 velocity=100 time=0
the msg is note_off channel=0 note=72 velocity=0 time=25
the msg is note_on channel=0 note=72 velocity=100 time=0
the msg is note_off channel=0 note=72 velocity=0 time=12
the msg is note_on channel=0 note=72 velocity=100 time=0
the msg is note_off channel=0 note=72 velocity=0 time=29
the msg is note_on channel=0 note=72 velocity=100 time=0
the msg is note_off channel=0 note=72 velocity=0 time=8
the msg is note_on channel=0 note=72 velocity=100 time=0
the msg is note_off channel=0 note=72 velocity=0 time=25
the msg is note_on channel=0 note=72 velocity=100 time=0
the msg is note_off channel=0 note=72 velocity=0 time=12
the msg is note_on channel=0 note=72 velocity=100 time=0
the msg is note_off channel=0 note=72 velocity=0 time=12
the msg is note_on channel=0 note=72 velocity=100 time=0
the msg is note_off channel=0 note=72 velocity=0 time=12
the msg is note_on channel=0 note=72 velocity=100 time=0
the msg is note_off channel=0 note=76 velocity=0 time=12
the msg is note_on channel=0 note=76 velocity=100 time=0
the msg is note_off channel=0 note=79 velocity=0 time=25
the msg is note_on channel=0 note=79 velocity=100 time=0
the msg is note_off channel=0 note=79 velocity=0 time=12
the msg is note_on channel=0 note=79 velocity=100 time=0
the msg is note_off channel=0 note=76 velocity=0 time=12
the msg is note_on channel=0 note=76 velocity=100 time=0
the msg is note_off channel=0 note=74 velocity=0 time=12
the msg is note_on channel=0 note=74 velocity=100 time=0
the msg is note_off channel=0 note=72 velocity=0 time=12
the msg is note_on channel=0 note=72 velocity=100 time=0
the msg is note_off channel=0 note=72 velocity=0 time=76
the msg is note_on channel=0 note=72 velocity=100 time=0
the msg is note_off channel=0 note=72 velocity=0 time=12
the msg is note_on channel=0 note=72 velocity=100 time=0
the msg is note_off channel=0 note=72 velocity=0 time=12
the msg is note_on channel=0 note=72 velocity=100 time=0
the msg is note_off channel=0 note=72 velocity=0 time=8
the msg is note_on channel=0 note=72 velocity=100 time=0
the msg is note_off channel=0 note=72 velocity=0 time=17
the msg is note_on channel=0 note=72 velocity=100 time=0
the msg is note_off channel=0 note=72 velocity=0 time=12
the msg is note_on channel=0 note=72 velocity=100 time=0
the msg is note_off channel=0 note=72 velocity=0 time=12
the msg is note_on channel=0 note=72 velocity=100 time=0
the msg is note_off channel=0 note=76 velocity=0 time=8
the msg is note_on channel=0 note=76 velocity=100 time=0
the msg is note_off channel=0 note=79 velocity=0 time=29
the msg is note_on channel=0 note=79 velocity=100 time=0
the msg is note_off channel=0 note=79 velocity=0 time=12
the msg is note_on channel=0 note=79 velocity=100 time=0
the msg is note_off channel=0 note=76 velocity=0 time=8
the msg is note_on channel=0 note=76 velocity=100 time=0
the msg is note_off channel=0 note=74 velocity=0 time=17
the msg is note_on channel=0 note=74 velocity=100 time=0
the msg is <meta message end_of_track time=51>
the msg is <meta message track_name name='Acoustic Guitar' time=0>
the msg is program_change channel=0 program=24 time=0
the msg is note_off channel=0 note=69 velocity=0 time=0
the msg is pitchwheel channel=0 pitch=0 time=0
the msg is program_change channel=0 program=24 time=0
the msg is <meta message set_tempo tempo=500000 time=0>
the msg is <meta message time_signature numerator=4 denominator=4 clocks_per_click=24 notated_32nd_notes_per_beat=8 time=0>
the msg is note_on channel=0 note=69 velocity=100 time=0
the msg is note_off channel=0 note=72 velocity=0 time=166
the msg is note_on channel=0 note=72 velocity=100 time=0
the msg is note_off channel=0 note=72 velocity=0 time=12
the msg is note_on channel=0 note=72 velocity=100 time=0
the msg is note_off channel=0 note=72 velocity=0 time=12
the msg is note_on channel=0 note=72 velocity=100 time=0
the msg is note_off channel=0 note=72 velocity=0 time=25
the msg is note_on channel=0 note=72 velocity=100 time=0
the msg is note_off channel=0 note=74 velocity=0 time=25
the msg is note_on channel=0 note=74 velocity=100 time=0
the msg is note_off channel=0 note=74 velocity=0 time=12
the msg is note_on channel=0 note=74 velocity=100 time=0
the msg is note_off channel=0 note=71 velocity=0 time=12
the msg is note_on channel=0 note=71 velocity=100 time=0
the msg is note_off channel=0 note=74 velocity=0 time=25
the msg is note_on channel=0 note=74 velocity=100 time=0
the msg is note_off channel=0 note=74 velocity=0 time=12
the msg is note_on channel=0 note=74 velocity=100 time=0
the msg is note_off channel=0 note=71 velocity=0 time=12
the msg is note_on channel=0 note=71 velocity=100 time=0
the msg is note_off channel=0 note=71 velocity=0 time=12
the msg is note_on channel=0 note=71 velocity=100 time=0
the msg is note_off channel=0 note=69 velocity=0 time=12
the msg is note_on channel=0 note=69 velocity=100 time=0
the msg is note_off channel=0 note=72 velocity=0 time=115
the msg is note_on channel=0 note=72 velocity=100 time=0
the msg is note_off channel=0 note=72 velocity=0 time=34
the msg is note_on channel=0 note=72 velocity=100 time=0
the msg is note_off channel=0 note=72 velocity=0 time=4
the msg is note_on channel=0 note=72 velocity=100 time=0
the msg is note_off channel=0 note=72 velocity=0 time=12
the msg is note_on channel=0 note=72 velocity=100 time=0
the msg is note_off channel=0 note=72 velocity=0 time=17
the msg is note_on channel=0 note=72 velocity=100 time=0
the msg is note_off channel=0 note=76 velocity=0 time=17
the msg is note_on channel=0 note=76 velocity=100 time=0
the msg is note_off channel=0 note=79 velocity=0 time=17
the msg is note_on channel=0 note=79 velocity=100 time=0
the msg is note_off channel=0 note=76 velocity=0 time=34
the msg is note_on channel=0 note=76 velocity=100 time=0
the msg is note_off channel=0 note=79 velocity=0 time=17
the msg is note_on channel=0 note=79 velocity=100 time=0
the msg is note_off channel=0 note=79 velocity=0 time=17
the msg is note_on channel=0 note=79 velocity=100 time=0
the msg is note_off channel=0 note=76 velocity=0 time=17
the msg is note_on channel=0 note=76 velocity=100 time=0
the msg is note_off channel=0 note=74 velocity=0 time=4
the msg is note_on channel=0 note=74 velocity=100 time=0
the msg is note_off channel=0 note=72 velocity=0 time=12
the msg is note_on channel=0 note=72 velocity=100 time=0
the msg is note_off channel=0 note=74 velocity=0 time=34
the msg is note_on channel=0 note=74 velocity=100 time=0
the msg is note_off channel=0 note=74 velocity=0 time=17
the msg is note_on channel=0 note=74 velocity=100 time=0
the msg is note_off channel=0 note=74 velocity=0 time=34
the msg is note_on channel=0 note=74 velocity=100 time=0
the msg is note_off channel=0 note=76 velocity=0 time=17
the msg is note_on channel=0 note=76 velocity=100 time=0
the msg is note_off channel=0 note=79 velocity=0 time=34
the msg is note_on channel=0 note=79 velocity=100 time=0
the msg is note_off channel=0 note=79 velocity=0 time=17
the msg is note_off channel=0 note=76 velocity=0 time=0
the msg is note_on channel=0 note=79 velocity=100 time=0
the msg is note_on channel=0 note=76 velocity=100 time=0
the msg is note_off channel=0 note=74 velocity=0 time=25
the msg is note_on channel=0 note=74 velocity=100 time=0
the msg is note_off channel=0 note=72 velocity=0 time=8
the msg is note_on channel=0 note=72 velocity=100 time=0
the msg is note_off channel=0 note=74 velocity=0 time=17
the msg is note_on channel=0 note=74 velocity=100 time=0
the msg is note_off channel=0 note=76 velocity=0 time=34
the msg is note_on channel=0 note=76 velocity=100 time=0
the msg is note_off channel=0 note=72 velocity=0 time=4
the msg is note_on channel=0 note=72 velocity=100 time=0
the msg is note_off channel=0 note=74 velocity=0 time=12
the msg is note_on channel=0 note=74 velocity=100 time=0
the msg is note_off channel=0 note=74 velocity=0 time=34
the msg is note_on channel=0 note=74 velocity=100 time=0
the msg is note_off channel=0 note=74 velocity=0 time=17
the msg is note_on channel=0 note=74 velocity=100 time=0
the msg is note_off channel=0 note=74 velocity=0 time=17
the msg is note_on channel=0 note=74 velocity=100 time=0
the msg is note_off channel=0 note=71 velocity=0 time=17
the msg is note_on channel=0 note=71 velocity=100 time=0
the msg is note_off channel=0 note=74 velocity=0 time=17
the msg is note_on channel=0 note=74 velocity=100 time=0
the msg is note_off channel=0 note=74 velocity=0 time=34
the msg is note_on channel=0 note=74 velocity=100 time=0
the msg is note_off channel=0 note=72 velocity=0 time=4
the msg is note_on channel=0 note=72 velocity=100 time=0
the msg is note_off channel=0 note=74 velocity=0 time=29
the msg is note_on channel=0 note=74 velocity=100 time=0
the msg is note_off channel=0 note=74 velocity=0 time=21
the msg is note_on channel=0 note=74 velocity=100 time=0
the msg is note_off channel=0 note=74 velocity=0 time=12
the msg is note_on channel=0 note=74 velocity=100 time=0
the msg is note_off channel=0 note=71 velocity=0 time=17
the msg is note_on channel=0 note=71 velocity=100 time=0
the msg is note_off channel=0 note=74 velocity=0 time=8
the msg is note_on channel=0 note=74 velocity=100 time=0
the msg is note_off channel=0 note=76 velocity=0 time=25
the msg is note_on channel=0 note=76 velocity=100 time=0
the msg is note_off channel=0 note=79 velocity=0 time=25
the msg is note_on channel=0 note=79 velocity=100 time=0
the msg is note_off channel=0 note=72 velocity=0 time=12
the msg is note_on channel=0 note=72 velocity=100 time=0
the msg is note_off channel=0 note=72 velocity=0 time=12
the msg is note_on channel=0 note=72 velocity=100 time=0
the msg is note_off channel=0 note=72 velocity=0 time=12
the msg is note_on channel=0 note=72 velocity=100 time=0
the msg is note_off channel=0 note=72 velocity=0 time=25
the msg is note_on channel=0 note=72 velocity=100 time=0
the msg is note_off channel=0 note=72 velocity=0 time=12
the msg is note_on channel=0 note=72 velocity=100 time=0
the msg is note_off channel=0 note=72 velocity=0 time=12
the msg is note_on channel=0 note=72 velocity=100 time=0
the msg is <meta message end_of_track time=51>
the msg is <meta message track_name name='Acoustic Guitar' time=0>
the msg is program_change channel=0 program=24 time=0
the msg is note_off channel=0 note=69 velocity=0 time=0
the msg is pitchwheel channel=0 pitch=0 time=0
the msg is program_change channel=0 program=24 time=0
the msg is <meta message set_tempo tempo=500000 time=0>
the msg is <meta message time_signature numerator=4 denominator=4 clocks_per_click=24 notated_32nd_notes_per_beat=8 time=0>
the msg is note_on channel=0 note=69 velocity=100 time=0
the msg is note_off channel=0 note=72 velocity=0 time=166
the msg is note_on channel=0 note=72 velocity=100 time=0
the msg is note_off channel=0 note=72 velocity=0 time=12
the msg is note_on channel=0 note=72 velocity=100 time=0
the msg is note_off channel=0 note=72 velocity=0 time=12
the msg is note_on channel=0 note=72 velocity=100 time=0
the msg is note_off channel=0 note=72 velocity=0 time=25
the msg is note_on channel=0 note=72 velocity=100 time=0
the msg is note_off channel=0 note=74 velocity=0 time=25
the msg is note_on channel=0 note=74 velocity=100 time=0
the msg is note_off channel=0 note=74 velocity=0 time=12
the msg is note_on channel=0 note=74 velocity=100 time=0
the msg is note_off channel=0 note=71 velocity=0 time=12
the msg is note_on channel=0 note=71 velocity=100 time=0
the msg is note_off channel=0 note=74 velocity=0 time=25
the msg is note_on channel=0 note=74 velocity=100 time=0
the msg is note_off channel=0 note=74 velocity=0 time=12
the msg is note_on channel=0 note=74 velocity=100 time=0
the msg is note_off channel=0 note=71 velocity=0 time=12
the msg is note_on channel=0 note=71 velocity=100 time=0
the msg is note_off channel=0 note=71 velocity=0 time=12
the msg is note_on channel=0 note=71 velocity=100 time=0
the msg is note_off channel=0 note=69 velocity=0 time=12
the msg is note_on channel=0 note=69 velocity=100 time=0
the msg is note_off channel=0 note=72 velocity=0 time=115
the msg is note_on channel=0 note=72 velocity=100 time=0
the msg is note_off channel=0 note=72 velocity=0 time=34
the msg is note_on channel=0 note=72 velocity=100 time=0
the msg is note_off channel=0 note=72 velocity=0 time=4
the msg is note_on channel=0 note=72 velocity=100 time=0
the msg is note_off channel=0 note=72 velocity=0 time=12
the msg is note_on channel=0 note=72 velocity=100 time=0
the msg is note_off channel=0 note=72 velocity=0 time=17
the msg is note_on channel=0 note=72 velocity=100 time=0
the msg is note_off channel=0 note=76 velocity=0 time=17
the msg is note_on channel=0 note=76 velocity=100 time=0
the msg is note_off channel=0 note=79 velocity=0 time=17
the msg is note_on channel=0 note=79 velocity=100 time=0
the msg is note_off channel=0 note=76 velocity=0 time=34
the msg is note_on channel=0 note=76 velocity=100 time=0
the msg is note_off channel=0 note=79 velocity=0 time=17
the msg is note_on channel=0 note=79 velocity=100 time=0
the msg is note_off channel=0 note=79 velocity=0 time=17
the msg is note_on channel=0 note=79 velocity=100 time=0
the msg is note_off channel=0 note=76 velocity=0 time=17
the msg is note_on channel=0 note=76 velocity=100 time=0
the msg is note_off channel=0 note=74 velocity=0 time=4
the msg is note_on channel=0 note=74 velocity=100 time=0
the msg is note_off channel=0 note=72 velocity=0 time=12
the msg is note_on channel=0 note=72 velocity=100 time=0
the msg is note_off channel=0 note=74 velocity=0 time=34
the msg is note_on channel=0 note=74 velocity=100 time=0
the msg is note_off channel=0 note=74 velocity=0 time=17
the msg is note_on channel=0 note=74 velocity=100 time=0
the msg is note_off channel=0 note=74 velocity=0 time=34
the msg is note_on channel=0 note=74 velocity=100 time=0
the msg is note_off channel=0 note=76 velocity=0 time=17
the msg is note_on channel=0 note=76 velocity=100 time=0
the msg is note_off channel=0 note=79 velocity=0 time=34
the msg is note_on channel=0 note=79 velocity=100 time=0
the msg is note_off channel=0 note=79 velocity=0 time=17
the msg is note_off channel=0 note=76 velocity=0 time=0
the msg is note_on channel=0 note=79 velocity=100 time=0
the msg is note_on channel=0 note=76 velocity=100 time=0
the msg is note_off channel=0 note=74 velocity=0 time=25
the msg is note_on channel=0 note=74 velocity=100 time=0
the msg is note_off channel=0 note=72 velocity=0 time=8
the msg is note_on channel=0 note=72 velocity=100 time=0
the msg is note_off channel=0 note=74 velocity=0 time=17
the msg is note_on channel=0 note=74 velocity=100 time=0
the msg is note_off channel=0 note=76 velocity=0 time=34
the msg is note_on channel=0 note=76 velocity=100 time=0
the msg is note_off channel=0 note=72 velocity=0 time=4
the msg is note_on channel=0 note=72 velocity=100 time=0
the msg is note_off channel=0 note=74 velocity=0 time=12
the msg is note_on channel=0 note=74 velocity=100 time=0
the msg is note_off channel=0 note=74 velocity=0 time=34
the msg is note_on channel=0 note=74 velocity=100 time=0
the msg is note_off channel=0 note=74 velocity=0 time=17
the msg is note_on channel=0 note=74 velocity=100 time=0
the msg is note_off channel=0 note=74 velocity=0 time=17
the msg is note_on channel=0 note=74 velocity=100 time=0
the msg is note_off channel=0 note=71 velocity=0 time=17
the msg is note_on channel=0 note=71 velocity=100 time=0
the msg is note_off channel=0 note=74 velocity=0 time=17
the msg is note_on channel=0 note=74 velocity=100 time=0
the msg is note_off channel=0 note=74 velocity=0 time=34
the msg is note_on channel=0 note=74 velocity=100 time=0
the msg is note_off channel=0 note=72 velocity=0 time=4
the msg is note_on channel=0 note=72 velocity=100 time=0
the msg is note_off channel=0 note=74 velocity=0 time=29
the msg is note_on channel=0 note=74 velocity=100 time=0
the msg is note_off channel=0 note=74 velocity=0 time=21
the msg is note_on channel=0 note=74 velocity=100 time=0
the msg is note_off channel=0 note=74 velocity=0 time=12
the msg is note_on channel=0 note=74 velocity=100 time=0
the msg is note_off channel=0 note=71 velocity=0 time=17
the msg is note_on channel=0 note=71 velocity=100 time=0
the msg is note_off channel=0 note=74 velocity=0 time=8
the msg is note_on channel=0 note=74 velocity=100 time=0
the msg is note_off channel=0 note=76 velocity=0 time=25
the msg is note_on channel=0 note=76 velocity=100 time=0
the msg is note_off channel=0 note=79 velocity=0 time=25
the msg is note_on channel=0 note=79 velocity=100 time=0
the msg is note_off channel=0 note=72 velocity=0 time=12
the msg is note_on channel=0 note=72 velocity=100 time=0
the msg is note_off channel=0 note=72 velocity=0 time=12
the msg is note_on channel=0 note=72 velocity=100 time=0
the msg is note_off channel=0 note=72 velocity=0 time=12
the msg is note_on channel=0 note=72 velocity=100 time=0
the msg is note_off channel=0 note=72 velocity=0 time=25
the msg is note_on channel=0 note=72 velocity=100 time=0
the msg is note_off channel=0 note=72 velocity=0 time=12
the msg is note_on channel=0 note=72 velocity=100 time=0
the msg is note_off channel=0 note=72 velocity=0 time=12
the msg is note_on channel=0 note=72 velocity=100 time=0
the msg is <meta message end_of_track time=51>
the msg is <meta message track_name name='Acoustic Guitar' time=0>
the msg is program_change channel=0 program=24 time=0
the msg is note_off channel=0 note=69 velocity=0 time=0
the msg is pitchwheel channel=0 pitch=0 time=0
the msg is program_change channel=0 program=24 time=0
the msg is <meta message set_tempo tempo=500000 time=0>
the msg is <meta message time_signature numerator=4 denominator=4 clocks_per_click=24 notated_32nd_notes_per_beat=8 time=0>
the msg is note_on channel=0 note=69 velocity=100 time=0
the msg is note_off channel=0 note=72 velocity=0 time=166
the msg is note_on channel=0 note=72 velocity=100 time=0
the msg is note_off channel=0 note=72 velocity=0 time=12
the msg is note_on channel=0 note=72 velocity=100 time=0
the msg is note_off channel=0 note=72 velocity=0 time=12
the msg is note_on channel=0 note=72 velocity=100 time=0
the msg is note_off channel=0 note=72 velocity=0 time=25
the msg is note_on channel=0 note=72 velocity=100 time=0
the msg is note_off channel=0 note=74 velocity=0 time=25
the msg is note_on channel=0 note=74 velocity=100 time=0
the msg is note_off channel=0 note=74 velocity=0 time=12
the msg is note_on channel=0 note=74 velocity=100 time=0
the msg is note_off channel=0 note=71 velocity=0 time=12
the msg is note_on channel=0 note=71 velocity=100 time=0
the msg is note_off channel=0 note=74 velocity=0 time=25
the msg is note_on channel=0 note=74 velocity=100 time=0
the msg is note_off channel=0 note=74 velocity=0 time=12
the msg is note_on channel=0 note=74 velocity=100 time=0
the msg is note_off channel=0 note=71 velocity=0 time=12
the msg is note_on channel=0 note=71 velocity=100 time=0
the msg is note_off channel=0 note=71 velocity=0 time=12
the msg is note_on channel=0 note=71 velocity=100 time=0
the msg is note_off channel=0 note=69 velocity=0 time=12
the msg is note_on channel=0 note=69 velocity=100 time=0
the msg is note_off channel=0 note=72 velocity=0 time=115
the msg is note_on channel=0 note=72 velocity=100 time=0
the msg is note_off channel=0 note=72 velocity=0 time=34
the msg is note_on channel=0 note=72 velocity=100 time=0
the msg is note_off channel=0 note=72 velocity=0 time=4
the msg is note_on channel=0 note=72 velocity=100 time=0
the msg is note_off channel=0 note=72 velocity=0 time=12
the msg is note_on channel=0 note=72 velocity=100 time=0
the msg is note_off channel=0 note=72 velocity=0 time=17
the msg is note_on channel=0 note=72 velocity=100 time=0
the msg is note_off channel=0 note=76 velocity=0 time=17
the msg is note_on channel=0 note=76 velocity=100 time=0
the msg is note_off channel=0 note=79 velocity=0 time=17
the msg is note_on channel=0 note=79 velocity=100 time=0
the msg is note_off channel=0 note=76 velocity=0 time=34
the msg is note_on channel=0 note=76 velocity=100 time=0
the msg is note_off channel=0 note=79 velocity=0 time=17
the msg is note_on channel=0 note=79 velocity=100 time=0
the msg is note_off channel=0 note=79 velocity=0 time=17
the msg is note_on channel=0 note=79 velocity=100 time=0
the msg is note_off channel=0 note=76 velocity=0 time=17
the msg is note_on channel=0 note=76 velocity=100 time=0
the msg is note_off channel=0 note=74 velocity=0 time=4
the msg is note_on channel=0 note=74 velocity=100 time=0
the msg is note_off channel=0 note=72 velocity=0 time=12
the msg is note_on channel=0 note=72 velocity=100 time=0
the msg is note_off channel=0 note=74 velocity=0 time=34
the msg is note_on channel=0 note=74 velocity=100 time=0
the msg is note_off channel=0 note=74 velocity=0 time=17
the msg is note_on channel=0 note=74 velocity=100 time=0
the msg is note_off channel=0 note=74 velocity=0 time=34
the msg is note_on channel=0 note=74 velocity=100 time=0
the msg is note_off channel=0 note=76 velocity=0 time=17
the msg is note_on channel=0 note=76 velocity=100 time=0
the msg is note_off channel=0 note=79 velocity=0 time=34
the msg is note_on channel=0 note=79 velocity=100 time=0
the msg is note_off channel=0 note=79 velocity=0 time=17
the msg is note_off channel=0 note=76 velocity=0 time=0
the msg is note_on channel=0 note=79 velocity=100 time=0
the msg is note_on channel=0 note=76 velocity=100 time=0
the msg is note_off channel=0 note=74 velocity=0 time=25
the msg is note_on channel=0 note=74 velocity=100 time=0
the msg is note_off channel=0 note=72 velocity=0 time=8
the msg is note_on channel=0 note=72 velocity=100 time=0
the msg is note_off channel=0 note=74 velocity=0 time=17
the msg is note_on channel=0 note=74 velocity=100 time=0
the msg is note_off channel=0 note=76 velocity=0 time=34
the msg is note_on channel=0 note=76 velocity=100 time=0
the msg is note_off channel=0 note=72 velocity=0 time=4
the msg is note_on channel=0 note=72 velocity=100 time=0
the msg is note_off channel=0 note=74 velocity=0 time=12
the msg is note_on channel=0 note=74 velocity=100 time=0
the msg is note_off channel=0 note=74 velocity=0 time=34
the msg is note_on channel=0 note=74 velocity=100 time=0
the msg is note_off channel=0 note=74 velocity=0 time=17
the msg is note_on channel=0 note=74 velocity=100 time=0
the msg is note_off channel=0 note=74 velocity=0 time=17
the msg is note_on channel=0 note=74 velocity=100 time=0
the msg is note_off channel=0 note=71 velocity=0 time=17
the msg is note_on channel=0 note=71 velocity=100 time=0
the msg is note_off channel=0 note=74 velocity=0 time=17
the msg is note_on channel=0 note=74 velocity=100 time=0
the msg is note_off channel=0 note=74 velocity=0 time=34
the msg is note_on channel=0 note=74 velocity=100 time=0
the msg is note_off channel=0 note=72 velocity=0 time=4
the msg is note_on channel=0 note=72 velocity=100 time=0
the msg is note_off channel=0 note=74 velocity=0 time=29
the msg is note_on channel=0 note=74 velocity=100 time=0
the msg is note_off channel=0 note=74 velocity=0 time=21
the msg is note_on channel=0 note=74 velocity=100 time=0
the msg is note_off channel=0 note=74 velocity=0 time=12
the msg is note_on channel=0 note=74 velocity=100 time=0
the msg is note_off channel=0 note=71 velocity=0 time=17
the msg is note_on channel=0 note=71 velocity=100 time=0
the msg is note_off channel=0 note=74 velocity=0 time=8
the msg is note_on channel=0 note=74 velocity=100 time=0
the msg is note_off channel=0 note=76 velocity=0 time=25
the msg is note_on channel=0 note=76 velocity=100 time=0
the msg is note_off channel=0 note=79 velocity=0 time=25
the msg is note_on channel=0 note=79 velocity=100 time=0
the msg is note_off channel=0 note=72 velocity=0 time=12
the msg is note_on channel=0 note=72 velocity=100 time=0
the msg is note_off channel=0 note=72 velocity=0 time=12
the msg is note_on channel=0 note=72 velocity=100 time=0
the msg is note_off channel=0 note=72 velocity=0 time=12
the msg is note_on channel=0 note=72 velocity=100 time=0
the msg is note_off channel=0 note=72 velocity=0 time=25
the msg is note_on channel=0 note=72 velocity=100 time=0
the msg is note_off channel=0 note=72 velocity=0 time=12
the msg is note_on channel=0 note=72 velocity=100 time=0
the msg is note_off channel=0 note=72 velocity=0 time=12
the msg is note_on channel=0 note=72 velocity=100 time=0
the msg is <meta message end_of_track time=51>
the msg is <meta message track_name name='Acoustic Guitar' time=0>
the msg is program_change channel=0 program=24 time=0
the msg is note_off channel=0 note=69 velocity=0 time=0
the msg is pitchwheel channel=0 pitch=0 time=0
the msg is program_change channel=0 program=24 time=0
the msg is <meta message set_tempo tempo=500000 time=0>
the msg is <meta message time_signature numerator=4 denominator=4 clocks_per_click=24 notated_32nd_notes_per_beat=8 time=0>
the msg is note_on channel=0 note=69 velocity=100 time=0
the msg is note_off channel=0 note=72 velocity=0 time=166
the msg is note_on channel=0 note=72 velocity=100 time=0
the msg is note_off channel=0 note=72 velocity=0 time=12
the msg is note_on channel=0 note=72 velocity=100 time=0
the msg is note_off channel=0 note=72 velocity=0 time=12
the msg is note_on channel=0 note=72 velocity=100 time=0
the msg is note_off channel=0 note=72 velocity=0 time=25
the msg is note_on channel=0 note=72 velocity=100 time=0
the msg is note_off channel=0 note=74 velocity=0 time=25
the msg is note_on channel=0 note=74 velocity=100 time=0
the msg is note_off channel=0 note=74 velocity=0 time=12
the msg is note_on channel=0 note=74 velocity=100 time=0
the msg is note_off channel=0 note=71 velocity=0 time=12
the msg is note_on channel=0 note=71 velocity=100 time=0
the msg is note_off channel=0 note=74 velocity=0 time=25
the msg is note_on channel=0 note=74 velocity=100 time=0
the msg is note_off channel=0 note=74 velocity=0 time=12
the msg is note_on channel=0 note=74 velocity=100 time=0
the msg is note_off channel=0 note=71 velocity=0 time=12
the msg is note_on channel=0 note=71 velocity=100 time=0
the msg is note_off channel=0 note=71 velocity=0 time=12
the msg is note_on channel=0 note=71 velocity=100 time=0
the msg is note_off channel=0 note=69 velocity=0 time=12
the msg is note_on channel=0 note=69 velocity=100 time=0
the msg is note_off channel=0 note=72 velocity=0 time=115
the msg is note_on channel=0 note=72 velocity=100 time=0
the msg is note_off channel=0 note=72 velocity=0 time=34
the msg is note_on channel=0 note=72 velocity=100 time=0
the msg is note_off channel=0 note=72 velocity=0 time=4
the msg is note_on channel=0 note=72 velocity=100 time=0
the msg is note_off channel=0 note=72 velocity=0 time=12
the msg is note_on channel=0 note=72 velocity=100 time=0
the msg is note_off channel=0 note=72 velocity=0 time=17
the msg is note_on channel=0 note=72 velocity=100 time=0
the msg is note_off channel=0 note=76 velocity=0 time=17
the msg is note_on channel=0 note=76 velocity=100 time=0
the msg is note_off channel=0 note=79 velocity=0 time=17
the msg is note_on channel=0 note=79 velocity=100 time=0
the msg is note_off channel=0 note=76 velocity=0 time=34
the msg is note_on channel=0 note=76 velocity=100 time=0
the msg is note_off channel=0 note=79 velocity=0 time=17
the msg is note_on channel=0 note=79 velocity=100 time=0
the msg is note_off channel=0 note=79 velocity=0 time=17
the msg is note_on channel=0 note=79 velocity=100 time=0
the msg is note_off channel=0 note=76 velocity=0 time=17
the msg is note_on channel=0 note=76 velocity=100 time=0
the msg is note_off channel=0 note=74 velocity=0 time=4
the msg is note_on channel=0 note=74 velocity=100 time=0
the msg is note_off channel=0 note=72 velocity=0 time=12
the msg is note_on channel=0 note=72 velocity=100 time=0
the msg is note_off channel=0 note=74 velocity=0 time=34
the msg is note_on channel=0 note=74 velocity=100 time=0
the msg is note_off channel=0 note=74 velocity=0 time=17
the msg is note_on channel=0 note=74 velocity=100 time=0
the msg is note_off channel=0 note=74 velocity=0 time=34
the msg is note_on channel=0 note=74 velocity=100 time=0
the msg is note_off channel=0 note=76 velocity=0 time=17
the msg is note_on channel=0 note=76 velocity=100 time=0
the msg is note_off channel=0 note=79 velocity=0 time=34
the msg is note_on channel=0 note=79 velocity=100 time=0
the msg is note_off channel=0 note=79 velocity=0 time=17
the msg is note_off channel=0 note=76 velocity=0 time=0
the msg is note_on channel=0 note=79 velocity=100 time=0
the msg is note_on channel=0 note=76 velocity=100 time=0
the msg is note_off channel=0 note=74 velocity=0 time=25
the msg is note_on channel=0 note=74 velocity=100 time=0
the msg is note_off channel=0 note=72 velocity=0 time=8
the msg is note_on channel=0 note=72 velocity=100 time=0
the msg is note_off channel=0 note=74 velocity=0 time=17
the msg is note_on channel=0 note=74 velocity=100 time=0
the msg is note_off channel=0 note=76 velocity=0 time=34
the msg is note_on channel=0 note=76 velocity=100 time=0
the msg is note_off channel=0 note=72 velocity=0 time=4
the msg is note_on channel=0 note=72 velocity=100 time=0
the msg is note_off channel=0 note=74 velocity=0 time=12
the msg is note_on channel=0 note=74 velocity=100 time=0
the msg is note_off channel=0 note=74 velocity=0 time=34
the msg is note_on channel=0 note=74 velocity=100 time=0
the msg is note_off channel=0 note=74 velocity=0 time=17
the msg is note_on channel=0 note=74 velocity=100 time=0
the msg is note_off channel=0 note=74 velocity=0 time=17
the msg is note_on channel=0 note=74 velocity=100 time=0
the msg is note_off channel=0 note=71 velocity=0 time=17
the msg is note_on channel=0 note=71 velocity=100 time=0
the msg is note_off channel=0 note=74 velocity=0 time=17
the msg is note_on channel=0 note=74 velocity=100 time=0
the msg is note_off channel=0 note=74 velocity=0 time=34
the msg is note_on channel=0 note=74 velocity=100 time=0
the msg is note_off channel=0 note=72 velocity=0 time=4
the msg is note_on channel=0 note=72 velocity=100 time=0
the msg is note_off channel=0 note=74 velocity=0 time=29
the msg is note_on channel=0 note=74 velocity=100 time=0
the msg is note_off channel=0 note=74 velocity=0 time=21
the msg is note_on channel=0 note=74 velocity=100 time=0
the msg is note_off channel=0 note=74 velocity=0 time=12
the msg is note_on channel=0 note=74 velocity=100 time=0
the msg is note_off channel=0 note=71 velocity=0 time=17
the msg is note_on channel=0 note=71 velocity=100 time=0
the msg is note_off channel=0 note=74 velocity=0 time=8
the msg is note_on channel=0 note=74 velocity=100 time=0
the msg is note_off channel=0 note=76 velocity=0 time=25
the msg is note_on channel=0 note=76 velocity=100 time=0
the msg is note_off channel=0 note=79 velocity=0 time=25
the msg is note_on channel=0 note=79 velocity=100 time=0
the msg is note_off channel=0 note=72 velocity=0 time=12
the msg is note_on channel=0 note=72 velocity=100 time=0
the msg is note_off channel=0 note=72 velocity=0 time=12
the msg is note_on channel=0 note=72 velocity=100 time=0
the msg is note_off channel=0 note=72 velocity=0 time=12
the msg is note_on channel=0 note=72 velocity=100 time=0
the msg is note_off channel=0 note=72 velocity=0 time=25
the msg is note_on channel=0 note=72 velocity=100 time=0
the msg is note_off channel=0 note=72 velocity=0 time=12
the msg is note_on channel=0 note=72 velocity=100 time=0
the msg is note_off channel=0 note=72 velocity=0 time=12
the msg is note_on channel=0 note=72 velocity=100 time=0
the msg is <meta message end_of_track time=51>
the msg is <meta message track_name name='Acoustic Guitar' time=0>
the msg is program_change channel=0 program=24 time=0
the msg is note_off channel=0 note=69 velocity=0 time=0
the msg is pitchwheel channel=0 pitch=0 time=0
the msg is program_change channel=0 program=24 time=0
the msg is <meta message set_tempo tempo=500000 time=0>
the msg is <meta message time_signature numerator=4 denominator=4 clocks_per_click=24 notated_32nd_notes_per_beat=8 time=0>
the msg is note_on channel=0 note=69 velocity=100 time=0
the msg is note_off channel=0 note=72 velocity=0 time=166
the msg is note_on channel=0 note=72 velocity=100 time=0
the msg is note_off channel=0 note=72 velocity=0 time=12
the msg is note_on channel=0 note=72 velocity=100 time=0
the msg is note_off channel=0 note=72 velocity=0 time=12
the msg is note_on channel=0 note=72 velocity=100 time=0
the msg is note_off channel=0 note=72 velocity=0 time=25
the msg is note_on channel=0 note=72 velocity=100 time=0
the msg is note_off channel=0 note=74 velocity=0 time=25
the msg is note_on channel=0 note=74 velocity=100 time=0
the msg is note_off channel=0 note=74 velocity=0 time=12
the msg is note_on channel=0 note=74 velocity=100 time=0
the msg is note_off channel=0 note=71 velocity=0 time=12
the msg is note_on channel=0 note=71 velocity=100 time=0
the msg is note_off channel=0 note=74 velocity=0 time=25
the msg is note_on channel=0 note=74 velocity=100 time=0
the msg is note_off channel=0 note=74 velocity=0 time=12
the msg is note_on channel=0 note=74 velocity=100 time=0
the msg is note_off channel=0 note=71 velocity=0 time=12
the msg is note_on channel=0 note=71 velocity=100 time=0
the msg is note_off channel=0 note=71 velocity=0 time=12
the msg is note_on channel=0 note=71 velocity=100 time=0
the msg is note_off channel=0 note=69 velocity=0 time=12
the msg is note_on channel=0 note=69 velocity=100 time=0
the msg is note_off channel=0 note=72 velocity=0 time=115
the msg is note_on channel=0 note=72 velocity=100 time=0
the msg is note_off channel=0 note=72 velocity=0 time=34
the msg is note_on channel=0 note=72 velocity=100 time=0
the msg is note_off channel=0 note=72 velocity=0 time=4
the msg is note_on channel=0 note=72 velocity=100 time=0
the msg is note_off channel=0 note=72 velocity=0 time=12
the msg is note_on channel=0 note=72 velocity=100 time=0
the msg is note_off channel=0 note=72 velocity=0 time=17
the msg is note_on channel=0 note=72 velocity=100 time=0
the msg is note_off channel=0 note=76 velocity=0 time=17
the msg is note_on channel=0 note=76 velocity=100 time=0
the msg is note_off channel=0 note=79 velocity=0 time=17
the msg is note_on channel=0 note=79 velocity=100 time=0
the msg is note_off channel=0 note=76 velocity=0 time=34
the msg is note_on channel=0 note=76 velocity=100 time=0
the msg is note_off channel=0 note=79 velocity=0 time=17
the msg is note_on channel=0 note=79 velocity=100 time=0
the msg is note_off channel=0 note=79 velocity=0 time=17
the msg is note_on channel=0 note=79 velocity=100 time=0
the msg is note_off channel=0 note=76 velocity=0 time=17
the msg is note_on channel=0 note=76 velocity=100 time=0
the msg is note_off channel=0 note=74 velocity=0 time=4
the msg is note_on channel=0 note=74 velocity=100 time=0
the msg is note_off channel=0 note=72 velocity=0 time=12
the msg is note_on channel=0 note=72 velocity=100 time=0
the msg is note_off channel=0 note=74 velocity=0 time=34
the msg is note_on channel=0 note=74 velocity=100 time=0
the msg is note_off channel=0 note=74 velocity=0 time=17
the msg is note_on channel=0 note=74 velocity=100 time=0
the msg is note_off channel=0 note=74 velocity=0 time=34
the msg is note_on channel=0 note=74 velocity=100 time=0
the msg is note_off channel=0 note=76 velocity=0 time=17
the msg is note_on channel=0 note=76 velocity=100 time=0
the msg is note_off channel=0 note=79 velocity=0 time=34
the msg is note_on channel=0 note=79 velocity=100 time=0
the msg is note_off channel=0 note=79 velocity=0 time=17
the msg is note_off channel=0 note=76 velocity=0 time=0
the msg is note_on channel=0 note=79 velocity=100 time=0
the msg is note_on channel=0 note=76 velocity=100 time=0
the msg is note_off channel=0 note=74 velocity=0 time=25
the msg is note_on channel=0 note=74 velocity=100 time=0
the msg is note_off channel=0 note=72 velocity=0 time=8
the msg is note_on channel=0 note=72 velocity=100 time=0
the msg is note_off channel=0 note=74 velocity=0 time=17
the msg is note_on channel=0 note=74 velocity=100 time=0
the msg is note_off channel=0 note=76 velocity=0 time=34
the msg is note_on channel=0 note=76 velocity=100 time=0
the msg is note_off channel=0 note=72 velocity=0 time=4
the msg is note_on channel=0 note=72 velocity=100 time=0
the msg is note_off channel=0 note=74 velocity=0 time=12
the msg is note_on channel=0 note=74 velocity=100 time=0
the msg is note_off channel=0 note=74 velocity=0 time=34
the msg is note_on channel=0 note=74 velocity=100 time=0
the msg is note_off channel=0 note=74 velocity=0 time=17
the msg is note_on channel=0 note=74 velocity=100 time=0
the msg is note_off channel=0 note=74 velocity=0 time=17
the msg is note_on channel=0 note=74 velocity=100 time=0
the msg is note_off channel=0 note=71 velocity=0 time=17
the msg is note_on channel=0 note=71 velocity=100 time=0
the msg is note_off channel=0 note=74 velocity=0 time=17
the msg is note_on channel=0 note=74 velocity=100 time=0
the msg is note_off channel=0 note=74 velocity=0 time=34
the msg is note_on channel=0 note=74 velocity=100 time=0
the msg is note_off channel=0 note=72 velocity=0 time=4
the msg is note_on channel=0 note=72 velocity=100 time=0
the msg is note_off channel=0 note=74 velocity=0 time=29
the msg is note_on channel=0 note=74 velocity=100 time=0
the msg is note_off channel=0 note=74 velocity=0 time=21
the msg is note_on channel=0 note=74 velocity=100 time=0
the msg is note_off channel=0 note=74 velocity=0 time=12
the msg is note_on channel=0 note=74 velocity=100 time=0
the msg is note_off channel=0 note=71 velocity=0 time=17
the msg is note_on channel=0 note=71 velocity=100 time=0
the msg is note_off channel=0 note=74 velocity=0 time=8
the msg is note_on channel=0 note=74 velocity=100 time=0
the msg is note_off channel=0 note=76 velocity=0 time=25
the msg is note_on channel=0 note=76 velocity=100 time=0
the msg is note_off channel=0 note=79 velocity=0 time=25
the msg is note_on channel=0 note=79 velocity=100 time=0
the msg is note_off channel=0 note=72 velocity=0 time=12
the msg is note_on channel=0 note=72 velocity=100 time=0
the msg is note_off channel=0 note=72 velocity=0 time=12
the msg is note_on channel=0 note=72 velocity=100 time=0
the msg is note_off channel=0 note=72 velocity=0 time=12
the msg is note_on channel=0 note=72 velocity=100 time=0
the msg is note_off channel=0 note=72 velocity=0 time=25
the msg is note_on channel=0 note=72 velocity=100 time=0
the msg is note_off channel=0 note=72 velocity=0 time=12
the msg is note_on channel=0 note=72 velocity=100 time=0
the msg is note_off channel=0 note=72 velocity=0 time=12
the msg is note_on channel=0 note=72 velocity=100 time=0
the msg is <meta message end_of_track time=51>
the msg is <meta message track_name name='Acoustic Guitar' time=0>
the msg is program_change channel=0 program=24 time=0
the msg is note_off channel=0 note=69 velocity=0 time=0
the msg is pitchwheel channel=0 pitch=0 time=0
the msg is program_change channel=0 program=24 time=0
the msg is <meta message set_tempo tempo=500000 time=0>
the msg is <meta message time_signature numerator=4 denominator=4 clocks_per_click=24 notated_32nd_notes_per_beat=8 time=0>
the msg is note_on channel=0 note=69 velocity=100 time=0
the msg is note_off channel=0 note=72 velocity=0 time=166
the msg is note_on channel=0 note=72 velocity=100 time=0
the msg is note_off channel=0 note=72 velocity=0 time=12
the msg is note_on channel=0 note=72 velocity=100 time=0
the msg is note_off channel=0 note=72 velocity=0 time=12
the msg is note_on channel=0 note=72 velocity=100 time=0
the msg is note_off channel=0 note=72 velocity=0 time=25
the msg is note_on channel=0 note=72 velocity=100 time=0
the msg is note_off channel=0 note=74 velocity=0 time=25
the msg is note_on channel=0 note=74 velocity=100 time=0
the msg is note_off channel=0 note=74 velocity=0 time=12
the msg is note_on channel=0 note=74 velocity=100 time=0
the msg is note_off channel=0 note=71 velocity=0 time=12
the msg is note_on channel=0 note=71 velocity=100 time=0
the msg is note_off channel=0 note=74 velocity=0 time=25
the msg is note_on channel=0 note=74 velocity=100 time=0
the msg is note_off channel=0 note=74 velocity=0 time=12
the msg is note_on channel=0 note=74 velocity=100 time=0
the msg is note_off channel=0 note=71 velocity=0 time=12
the msg is note_on channel=0 note=71 velocity=100 time=0
the msg is note_off channel=0 note=71 velocity=0 time=12
the msg is note_on channel=0 note=71 velocity=100 time=0
the msg is note_off channel=0 note=69 velocity=0 time=12
the msg is note_on channel=0 note=69 velocity=100 time=0
the msg is note_off channel=0 note=72 velocity=0 time=115
the msg is note_on channel=0 note=72 velocity=100 time=0
the msg is note_off channel=0 note=72 velocity=0 time=34
the msg is note_on channel=0 note=72 velocity=100 time=0
the msg is note_off channel=0 note=72 velocity=0 time=4
the msg is note_on channel=0 note=72 velocity=100 time=0
the msg is note_off channel=0 note=72 velocity=0 time=12
the msg is note_on channel=0 note=72 velocity=100 time=0
the msg is note_off channel=0 note=72 velocity=0 time=17
the msg is note_on channel=0 note=72 velocity=100 time=0
the msg is note_off channel=0 note=76 velocity=0 time=17
the msg is note_on channel=0 note=76 velocity=100 time=0
the msg is note_off channel=0 note=79 velocity=0 time=17
the msg is note_on channel=0 note=79 velocity=100 time=0
the msg is note_off channel=0 note=76 velocity=0 time=34
the msg is note_on channel=0 note=76 velocity=100 time=0
the msg is note_off channel=0 note=79 velocity=0 time=17
the msg is note_on channel=0 note=79 velocity=100 time=0
the msg is note_off channel=0 note=79 velocity=0 time=17
the msg is note_on channel=0 note=79 velocity=100 time=0
the msg is note_off channel=0 note=76 velocity=0 time=17
the msg is note_on channel=0 note=76 velocity=100 time=0
the msg is note_off channel=0 note=74 velocity=0 time=4
the msg is note_on channel=0 note=74 velocity=100 time=0
the msg is note_off channel=0 note=72 velocity=0 time=12
the msg is note_on channel=0 note=72 velocity=100 time=0
the msg is note_off channel=0 note=74 velocity=0 time=34
the msg is note_on channel=0 note=74 velocity=100 time=0
the msg is note_off channel=0 note=74 velocity=0 time=17
the msg is note_on channel=0 note=74 velocity=100 time=0
the msg is note_off channel=0 note=74 velocity=0 time=34
the msg is note_on channel=0 note=74 velocity=100 time=0
the msg is note_off channel=0 note=76 velocity=0 time=17
the msg is note_on channel=0 note=76 velocity=100 time=0
the msg is note_off channel=0 note=79 velocity=0 time=34
the msg is note_on channel=0 note=79 velocity=100 time=0
the msg is note_off channel=0 note=79 velocity=0 time=17
the msg is note_off channel=0 note=76 velocity=0 time=0
the msg is note_on channel=0 note=79 velocity=100 time=0
the msg is note_on channel=0 note=76 velocity=100 time=0
the msg is note_off channel=0 note=74 velocity=0 time=25
the msg is note_on channel=0 note=74 velocity=100 time=0
the msg is note_off channel=0 note=72 velocity=0 time=8
the msg is note_on channel=0 note=72 velocity=100 time=0
the msg is note_off channel=0 note=74 velocity=0 time=17
the msg is note_on channel=0 note=74 velocity=100 time=0
the msg is note_off channel=0 note=76 velocity=0 time=34
the msg is note_on channel=0 note=76 velocity=100 time=0
the msg is note_off channel=0 note=72 velocity=0 time=4
the msg is note_on channel=0 note=72 velocity=100 time=0
the msg is note_off channel=0 note=74 velocity=0 time=12
the msg is note_on channel=0 note=74 velocity=100 time=0
the msg is note_off channel=0 note=74 velocity=0 time=34
the msg is note_on channel=0 note=74 velocity=100 time=0
the msg is note_off channel=0 note=74 velocity=0 time=17
the msg is note_on channel=0 note=74 velocity=100 time=0
the msg is note_off channel=0 note=74 velocity=0 time=17
the msg is note_on channel=0 note=74 velocity=100 time=0
the msg is note_off channel=0 note=71 velocity=0 time=17
the msg is note_on channel=0 note=71 velocity=100 time=0
the msg is note_off channel=0 note=74 velocity=0 time=17
the msg is note_on channel=0 note=74 velocity=100 time=0
the msg is note_off channel=0 note=74 velocity=0 time=34
the msg is note_on channel=0 note=74 velocity=100 time=0
the msg is note_off channel=0 note=72 velocity=0 time=4
the msg is note_on channel=0 note=72 velocity=100 time=0
the msg is note_off channel=0 note=74 velocity=0 time=29
the msg is note_on channel=0 note=74 velocity=100 time=0
the msg is note_off channel=0 note=74 velocity=0 time=21
the msg is note_on channel=0 note=74 velocity=100 time=0
the msg is note_off channel=0 note=74 velocity=0 time=12
the msg is note_on channel=0 note=74 velocity=100 time=0
the msg is note_off channel=0 note=71 velocity=0 time=17
the msg is note_on channel=0 note=71 velocity=100 time=0
the msg is note_off channel=0 note=74 velocity=0 time=8
the msg is note_on channel=0 note=74 velocity=100 time=0
the msg is note_off channel=0 note=76 velocity=0 time=25
the msg is note_on channel=0 note=76 velocity=100 time=0
the msg is note_off channel=0 note=79 velocity=0 time=25
the msg is note_on channel=0 note=79 velocity=100 time=0
the msg is note_off channel=0 note=72 velocity=0 time=12
the msg is note_on channel=0 note=72 velocity=100 time=0
the msg is note_off channel=0 note=72 velocity=0 time=12
the msg is note_on channel=0 note=72 velocity=100 time=0
the msg is note_off channel=0 note=72 velocity=0 time=12
the msg is note_on channel=0 note=72 velocity=100 time=0
the msg is note_off channel=0 note=72 velocity=0 time=25
the msg is note_on channel=0 note=72 velocity=100 time=0
the msg is note_off channel=0 note=72 velocity=0 time=12
the msg is note_on channel=0 note=72 velocity=100 time=0
the msg is note_off channel=0 note=72 velocity=0 time=12
the msg is note_on channel=0 note=72 velocity=100 time=0
the msg is <meta message end_of_track time=51>
the msg is <meta message track_name name='Acoustic Guitar' time=0>
the msg is program_change channel=0 program=24 time=0
the msg is note_off channel=0 note=69 velocity=0 time=0
the msg is pitchwheel channel=0 pitch=0 time=0
the msg is program_change channel=0 program=24 time=0
the msg is <meta message set_tempo tempo=500000 time=0>
the msg is <meta message time_signature numerator=4 denominator=4 clocks_per_click=24 notated_32nd_notes_per_beat=8 time=0>
the msg is note_on channel=0 note=69 velocity=100 time=0
the msg is note_off channel=0 note=72 velocity=0 time=166
the msg is note_on channel=0 note=72 velocity=100 time=0
the msg is note_off channel=0 note=72 velocity=0 time=12
the msg is note_on channel=0 note=72 velocity=100 time=0
the msg is note_off channel=0 note=72 velocity=0 time=12
the msg is note_on channel=0 note=72 velocity=100 time=0
the msg is note_off channel=0 note=72 velocity=0 time=25
the msg is note_on channel=0 note=72 velocity=100 time=0
the msg is note_off channel=0 note=74 velocity=0 time=25
the msg is note_on channel=0 note=74 velocity=100 time=0
the msg is note_off channel=0 note=74 velocity=0 time=12
the msg is note_on channel=0 note=74 velocity=100 time=0
the msg is note_off channel=0 note=71 velocity=0 time=12
the msg is note_on channel=0 note=71 velocity=100 time=0
the msg is note_off channel=0 note=74 velocity=0 time=25
the msg is note_on channel=0 note=74 velocity=100 time=0
the msg is note_off channel=0 note=74 velocity=0 time=12
the msg is note_on channel=0 note=74 velocity=100 time=0
the msg is note_off channel=0 note=71 velocity=0 time=12
the msg is note_on channel=0 note=71 velocity=100 time=0
the msg is note_off channel=0 note=71 velocity=0 time=12
the msg is note_on channel=0 note=71 velocity=100 time=0
the msg is note_off channel=0 note=69 velocity=0 time=12
the msg is note_on channel=0 note=69 velocity=100 time=0
the msg is note_off channel=0 note=72 velocity=0 time=115
the msg is note_on channel=0 note=72 velocity=100 time=0
the msg is note_off channel=0 note=72 velocity=0 time=34
the msg is note_on channel=0 note=72 velocity=100 time=0
the msg is note_off channel=0 note=72 velocity=0 time=4
the msg is note_on channel=0 note=72 velocity=100 time=0
the msg is note_off channel=0 note=72 velocity=0 time=12
the msg is note_on channel=0 note=72 velocity=100 time=0
the msg is note_off channel=0 note=72 velocity=0 time=17
the msg is note_on channel=0 note=72 velocity=100 time=0
the msg is note_off channel=0 note=76 velocity=0 time=17
the msg is note_on channel=0 note=76 velocity=100 time=0
the msg is note_off channel=0 note=79 velocity=0 time=17
the msg is note_on channel=0 note=79 velocity=100 time=0
the msg is note_off channel=0 note=76 velocity=0 time=34
the msg is note_on channel=0 note=76 velocity=100 time=0
the msg is note_off channel=0 note=79 velocity=0 time=17
the msg is note_on channel=0 note=79 velocity=100 time=0
the msg is note_off channel=0 note=79 velocity=0 time=17
the msg is note_on channel=0 note=79 velocity=100 time=0
the msg is note_off channel=0 note=76 velocity=0 time=17
the msg is note_on channel=0 note=76 velocity=100 time=0
the msg is note_off channel=0 note=74 velocity=0 time=4
the msg is note_on channel=0 note=74 velocity=100 time=0
the msg is note_off channel=0 note=72 velocity=0 time=12
the msg is note_on channel=0 note=72 velocity=100 time=0
the msg is note_off channel=0 note=74 velocity=0 time=34
the msg is note_on channel=0 note=74 velocity=100 time=0
the msg is note_off channel=0 note=74 velocity=0 time=17
the msg is note_on channel=0 note=74 velocity=100 time=0
the msg is note_off channel=0 note=74 velocity=0 time=34
the msg is note_on channel=0 note=74 velocity=100 time=0
the msg is note_off channel=0 note=76 velocity=0 time=17
the msg is note_on channel=0 note=76 velocity=100 time=0
the msg is note_off channel=0 note=79 velocity=0 time=34
the msg is note_on channel=0 note=79 velocity=100 time=0
the msg is note_off channel=0 note=79 velocity=0 time=17
the msg is note_off channel=0 note=76 velocity=0 time=0
the msg is note_on channel=0 note=79 velocity=100 time=0
the msg is note_on channel=0 note=76 velocity=100 time=0
the msg is note_off channel=0 note=74 velocity=0 time=25
the msg is note_on channel=0 note=74 velocity=100 time=0
the msg is note_off channel=0 note=72 velocity=0 time=8
the msg is note_on channel=0 note=72 velocity=100 time=0
the msg is note_off channel=0 note=74 velocity=0 time=17
the msg is note_on channel=0 note=74 velocity=100 time=0
the msg is note_off channel=0 note=76 velocity=0 time=34
the msg is note_on channel=0 note=76 velocity=100 time=0
the msg is note_off channel=0 note=72 velocity=0 time=4
the msg is note_on channel=0 note=72 velocity=100 time=0
the msg is note_off channel=0 note=74 velocity=0 time=12
the msg is note_on channel=0 note=74 velocity=100 time=0
the msg is note_off channel=0 note=74 velocity=0 time=34
the msg is note_on channel=0 note=74 velocity=100 time=0
the msg is note_off channel=0 note=74 velocity=0 time=17
the msg is note_on channel=0 note=74 velocity=100 time=0
the msg is note_off channel=0 note=74 velocity=0 time=17
the msg is note_on channel=0 note=74 velocity=100 time=0
the msg is note_off channel=0 note=71 velocity=0 time=17
the msg is note_on channel=0 note=71 velocity=100 time=0
the msg is note_off channel=0 note=74 velocity=0 time=17
the msg is note_on channel=0 note=74 velocity=100 time=0
the msg is note_off channel=0 note=74 velocity=0 time=34
the msg is note_on channel=0 note=74 velocity=100 time=0
the msg is note_off channel=0 note=72 velocity=0 time=4
the msg is note_on channel=0 note=72 velocity=100 time=0
the msg is note_off channel=0 note=74 velocity=0 time=29
the msg is note_on channel=0 note=74 velocity=100 time=0
the msg is note_off channel=0 note=74 velocity=0 time=21
the msg is note_on channel=0 note=74 velocity=100 time=0
the msg is note_off channel=0 note=74 velocity=0 time=12
the msg is note_on channel=0 note=74 velocity=100 time=0
the msg is note_off channel=0 note=71 velocity=0 time=17
the msg is note_on channel=0 note=71 velocity=100 time=0
the msg is note_off channel=0 note=74 velocity=0 time=8
the msg is note_on channel=0 note=74 velocity=100 time=0
the msg is note_off channel=0 note=76 velocity=0 time=25
the msg is note_on channel=0 note=76 velocity=100 time=0
the msg is note_off channel=0 note=79 velocity=0 time=25
the msg is note_on channel=0 note=79 velocity=100 time=0
the msg is note_off channel=0 note=72 velocity=0 time=12
the msg is note_on channel=0 note=72 velocity=100 time=0
the msg is note_off channel=0 note=72 velocity=0 time=12
the msg is note_on channel=0 note=72 velocity=100 time=0
the msg is note_off channel=0 note=72 velocity=0 time=12
the msg is note_on channel=0 note=72 velocity=100 time=0
the msg is note_off channel=0 note=72 velocity=0 time=25
the msg is note_on channel=0 note=72 velocity=100 time=0
the msg is note_off channel=0 note=72 velocity=0 time=12
the msg is note_on channel=0 note=72 velocity=100 time=0
the msg is note_off channel=0 note=72 velocity=0 time=12
the msg is note_on channel=0 note=72 velocity=100 time=0
the msg is <meta message end_of_track time=51>
the msg is <meta message track_name name='Acoustic Guitar' time=0>
the msg is program_change channel=0 program=24 time=0
the msg is note_off channel=0 note=69 velocity=0 time=0
the msg is pitchwheel channel=0 pitch=0 time=0
the msg is program_change channel=0 program=24 time=0
the msg is <meta message set_tempo tempo=500000 time=0>
the msg is <meta message time_signature numerator=4 denominator=4 clocks_per_click=24 notated_32nd_notes_per_beat=8 time=0>
the msg is note_on channel=0 note=69 velocity=100 time=0
the msg is note_off channel=0 note=72 velocity=0 time=166
the msg is note_on channel=0 note=72 velocity=100 time=0
the msg is note_off channel=0 note=72 velocity=0 time=12
the msg is note_on channel=0 note=72 velocity=100 time=0
the msg is note_off channel=0 note=72 velocity=0 time=12
the msg is note_on channel=0 note=72 velocity=100 time=0
the msg is note_off channel=0 note=72 velocity=0 time=25
the msg is note_on channel=0 note=72 velocity=100 time=0
the msg is note_off channel=0 note=74 velocity=0 time=25
the msg is note_on channel=0 note=74 velocity=100 time=0
the msg is note_off channel=0 note=74 velocity=0 time=12
the msg is note_on channel=0 note=74 velocity=100 time=0
the msg is note_off channel=0 note=71 velocity=0 time=12
the msg is note_on channel=0 note=71 velocity=100 time=0
the msg is note_off channel=0 note=74 velocity=0 time=25
the msg is note_on channel=0 note=74 velocity=100 time=0
the msg is note_off channel=0 note=74 velocity=0 time=12
the msg is note_on channel=0 note=74 velocity=100 time=0
the msg is note_off channel=0 note=71 velocity=0 time=12
the msg is note_on channel=0 note=71 velocity=100 time=0
the msg is note_off channel=0 note=71 velocity=0 time=12
the msg is note_on channel=0 note=71 velocity=100 time=0
the msg is note_off channel=0 note=69 velocity=0 time=12
the msg is note_on channel=0 note=69 velocity=100 time=0
the msg is note_off channel=0 note=72 velocity=0 time=115
the msg is note_on channel=0 note=72 velocity=100 time=0
the msg is note_off channel=0 note=72 velocity=0 time=34
the msg is note_on channel=0 note=72 velocity=100 time=0
the msg is note_off channel=0 note=72 velocity=0 time=4
the msg is note_on channel=0 note=72 velocity=100 time=0
the msg is note_off channel=0 note=72 velocity=0 time=12
the msg is note_on channel=0 note=72 velocity=100 time=0
the msg is note_off channel=0 note=72 velocity=0 time=17
the msg is note_on channel=0 note=72 velocity=100 time=0
the msg is note_off channel=0 note=76 velocity=0 time=17
the msg is note_on channel=0 note=76 velocity=100 time=0
the msg is note_off channel=0 note=79 velocity=0 time=17
the msg is note_on channel=0 note=79 velocity=100 time=0
the msg is note_off channel=0 note=76 velocity=0 time=34
the msg is note_on channel=0 note=76 velocity=100 time=0
the msg is note_off channel=0 note=79 velocity=0 time=17
the msg is note_on channel=0 note=79 velocity=100 time=0
the msg is note_off channel=0 note=79 velocity=0 time=17
the msg is note_on channel=0 note=79 velocity=100 time=0
the msg is note_off channel=0 note=76 velocity=0 time=17
the msg is note_on channel=0 note=76 velocity=100 time=0
the msg is note_off channel=0 note=74 velocity=0 time=4
the msg is note_on channel=0 note=74 velocity=100 time=0
the msg is note_off channel=0 note=72 velocity=0 time=12
the msg is note_on channel=0 note=72 velocity=100 time=0
the msg is note_off channel=0 note=74 velocity=0 time=34
the msg is note_on channel=0 note=74 velocity=100 time=0
the msg is note_off channel=0 note=74 velocity=0 time=17
the msg is note_on channel=0 note=74 velocity=100 time=0
the msg is note_off channel=0 note=74 velocity=0 time=34
the msg is note_on channel=0 note=74 velocity=100 time=0
the msg is note_off channel=0 note=76 velocity=0 time=17
the msg is note_on channel=0 note=76 velocity=100 time=0
the msg is note_off channel=0 note=79 velocity=0 time=34
the msg is note_on channel=0 note=79 velocity=100 time=0
the msg is note_off channel=0 note=79 velocity=0 time=17
the msg is note_off channel=0 note=76 velocity=0 time=0
the msg is note_on channel=0 note=79 velocity=100 time=0
the msg is note_on channel=0 note=76 velocity=100 time=0
the msg is note_off channel=0 note=74 velocity=0 time=25
the msg is note_on channel=0 note=74 velocity=100 time=0
the msg is note_off channel=0 note=72 velocity=0 time=8
the msg is note_on channel=0 note=72 velocity=100 time=0
the msg is note_off channel=0 note=74 velocity=0 time=17
the msg is note_on channel=0 note=74 velocity=100 time=0
the msg is note_off channel=0 note=76 velocity=0 time=34
the msg is note_on channel=0 note=76 velocity=100 time=0
the msg is note_off channel=0 note=72 velocity=0 time=4
the msg is note_on channel=0 note=72 velocity=100 time=0
the msg is note_off channel=0 note=74 velocity=0 time=12
the msg is note_on channel=0 note=74 velocity=100 time=0
the msg is note_off channel=0 note=74 velocity=0 time=34
the msg is note_on channel=0 note=74 velocity=100 time=0
the msg is note_off channel=0 note=74 velocity=0 time=17
the msg is note_on channel=0 note=74 velocity=100 time=0
the msg is note_off channel=0 note=74 velocity=0 time=17
the msg is note_on channel=0 note=74 velocity=100 time=0
the msg is note_off channel=0 note=71 velocity=0 time=17
the msg is note_on channel=0 note=71 velocity=100 time=0
the msg is note_off channel=0 note=74 velocity=0 time=17
the msg is note_on channel=0 note=74 velocity=100 time=0
the msg is note_off channel=0 note=74 velocity=0 time=34
the msg is note_on channel=0 note=74 velocity=100 time=0
the msg is note_off channel=0 note=72 velocity=0 time=4
the msg is note_on channel=0 note=72 velocity=100 time=0
the msg is note_off channel=0 note=74 velocity=0 time=29
the msg is note_on channel=0 note=74 velocity=100 time=0
the msg is note_off channel=0 note=74 velocity=0 time=21
the msg is note_on channel=0 note=74 velocity=100 time=0
the msg is note_off channel=0 note=74 velocity=0 time=12
the msg is note_on channel=0 note=74 velocity=100 time=0
the msg is note_off channel=0 note=71 velocity=0 time=17
the msg is note_on channel=0 note=71 velocity=100 time=0
the msg is note_off channel=0 note=74 velocity=0 time=8
the msg is note_on channel=0 note=74 velocity=100 time=0
the msg is note_off channel=0 note=76 velocity=0 time=25
the msg is note_on channel=0 note=76 velocity=100 time=0
the msg is note_off channel=0 note=79 velocity=0 time=25
the msg is note_on channel=0 note=79 velocity=100 time=0
the msg is note_off channel=0 note=72 velocity=0 time=12
the msg is note_on channel=0 note=72 velocity=100 time=0
the msg is note_off channel=0 note=72 velocity=0 time=12
the msg is note_on channel=0 note=72 velocity=100 time=0
the msg is note_off channel=0 note=72 velocity=0 time=12
the msg is note_on channel=0 note=72 velocity=100 time=0
the msg is note_off channel=0 note=72 velocity=0 time=25
the msg is note_on channel=0 note=72 velocity=100 time=0
the msg is note_off channel=0 note=72 velocity=0 time=12
the msg is note_on channel=0 note=72 velocity=100 time=0
the msg is note_off channel=0 note=72 velocity=0 time=12
the msg is note_on channel=0 note=72 velocity=100 time=0
the msg is <meta message end_of_track time=51>
the msg is <meta message track_name name='Acoustic Guitar' time=0>
the msg is program_change channel=0 program=24 time=0
the msg is note_off channel=0 note=69 velocity=0 time=0
the msg is pitchwheel channel=0 pitch=0 time=0
the msg is program_change channel=0 program=24 time=0
the msg is <meta message set_tempo tempo=500000 time=0>
the msg is <meta message time_signature numerator=4 denominator=4 clocks_per_click=24 notated_32nd_notes_per_beat=8 time=0>
the msg is note_on channel=0 note=69 velocity=100 time=0
the msg is note_off channel=0 note=72 velocity=0 time=166
the msg is note_on channel=0 note=72 velocity=100 time=0
the msg is note_off channel=0 note=72 velocity=0 time=12
the msg is note_on channel=0 note=72 velocity=100 time=0
the msg is note_off channel=0 note=72 velocity=0 time=12
the msg is note_on channel=0 note=72 velocity=100 time=0
the msg is note_off channel=0 note=72 velocity=0 time=25
the msg is note_on channel=0 note=72 velocity=100 time=0
the msg is note_off channel=0 note=74 velocity=0 time=25
the msg is note_on channel=0 note=74 velocity=100 time=0
the msg is note_off channel=0 note=74 velocity=0 time=12
the msg is note_on channel=0 note=74 velocity=100 time=0
the msg is note_off channel=0 note=71 velocity=0 time=12
the msg is note_on channel=0 note=71 velocity=100 time=0
the msg is note_off channel=0 note=74 velocity=0 time=25
the msg is note_on channel=0 note=74 velocity=100 time=0
the msg is note_off channel=0 note=74 velocity=0 time=12
the msg is note_on channel=0 note=74 velocity=100 time=0
the msg is note_off channel=0 note=71 velocity=0 time=12
the msg is note_on channel=0 note=71 velocity=100 time=0
the msg is note_off channel=0 note=71 velocity=0 time=12
the msg is note_on channel=0 note=71 velocity=100 time=0
the msg is note_off channel=0 note=69 velocity=0 time=12
the msg is note_on channel=0 note=69 velocity=100 time=0
the msg is note_off channel=0 note=72 velocity=0 time=115
the msg is note_on channel=0 note=72 velocity=100 time=0
the msg is note_off channel=0 note=72 velocity=0 time=34
the msg is note_on channel=0 note=72 velocity=100 time=0
the msg is note_off channel=0 note=72 velocity=0 time=4
the msg is note_on channel=0 note=72 velocity=100 time=0
the msg is note_off channel=0 note=72 velocity=0 time=12
the msg is note_on channel=0 note=72 velocity=100 time=0
the msg is note_off channel=0 note=72 velocity=0 time=17
the msg is note_on channel=0 note=72 velocity=100 time=0
the msg is note_off channel=0 note=76 velocity=0 time=17
the msg is note_on channel=0 note=76 velocity=100 time=0
the msg is note_off channel=0 note=79 velocity=0 time=17
the msg is note_on channel=0 note=79 velocity=100 time=0
the msg is note_off channel=0 note=76 velocity=0 time=34
the msg is note_on channel=0 note=76 velocity=100 time=0
the msg is note_off channel=0 note=79 velocity=0 time=17
the msg is note_on channel=0 note=79 velocity=100 time=0
the msg is note_off channel=0 note=79 velocity=0 time=17
the msg is note_on channel=0 note=79 velocity=100 time=0
the msg is note_off channel=0 note=76 velocity=0 time=17
the msg is note_on channel=0 note=76 velocity=100 time=0
the msg is note_off channel=0 note=74 velocity=0 time=4
the msg is note_on channel=0 note=74 velocity=100 time=0
the msg is note_off channel=0 note=72 velocity=0 time=12
the msg is note_on channel=0 note=72 velocity=100 time=0
the msg is note_off channel=0 note=74 velocity=0 time=34
the msg is note_on channel=0 note=74 velocity=100 time=0
the msg is note_off channel=0 note=74 velocity=0 time=17
the msg is note_on channel=0 note=74 velocity=100 time=0
the msg is note_off channel=0 note=74 velocity=0 time=34
the msg is note_on channel=0 note=74 velocity=100 time=0
the msg is note_off channel=0 note=76 velocity=0 time=17
the msg is note_on channel=0 note=76 velocity=100 time=0
the msg is note_off channel=0 note=79 velocity=0 time=34
the msg is note_on channel=0 note=79 velocity=100 time=0
the msg is note_off channel=0 note=79 velocity=0 time=17
the msg is note_off channel=0 note=76 velocity=0 time=0
the msg is note_on channel=0 note=79 velocity=100 time=0
the msg is note_on channel=0 note=76 velocity=100 time=0
the msg is note_off channel=0 note=74 velocity=0 time=25
the msg is note_on channel=0 note=74 velocity=100 time=0
the msg is note_off channel=0 note=72 velocity=0 time=8
the msg is note_on channel=0 note=72 velocity=100 time=0
the msg is note_off channel=0 note=74 velocity=0 time=17
the msg is note_on channel=0 note=74 velocity=100 time=0
the msg is note_off channel=0 note=76 velocity=0 time=34
the msg is note_on channel=0 note=76 velocity=100 time=0
the msg is note_off channel=0 note=72 velocity=0 time=4
the msg is note_on channel=0 note=72 velocity=100 time=0
the msg is note_off channel=0 note=74 velocity=0 time=12
the msg is note_on channel=0 note=74 velocity=100 time=0
the msg is note_off channel=0 note=74 velocity=0 time=34
the msg is note_on channel=0 note=74 velocity=100 time=0
the msg is note_off channel=0 note=74 velocity=0 time=17
the msg is note_on channel=0 note=74 velocity=100 time=0
the msg is note_off channel=0 note=74 velocity=0 time=17
the msg is note_on channel=0 note=74 velocity=100 time=0
the msg is note_off channel=0 note=71 velocity=0 time=17
the msg is note_on channel=0 note=71 velocity=100 time=0
the msg is note_off channel=0 note=74 velocity=0 time=17
the msg is note_on channel=0 note=74 velocity=100 time=0
the msg is note_off channel=0 note=74 velocity=0 time=34
the msg is note_on channel=0 note=74 velocity=100 time=0
the msg is note_off channel=0 note=72 velocity=0 time=4
the msg is note_on channel=0 note=72 velocity=100 time=0
the msg is note_off channel=0 note=74 velocity=0 time=29
the msg is note_on channel=0 note=74 velocity=100 time=0
the msg is note_off channel=0 note=74 velocity=0 time=21
the msg is note_on channel=0 note=74 velocity=100 time=0
the msg is note_off channel=0 note=74 velocity=0 time=12
the msg is note_on channel=0 note=74 velocity=100 time=0
the msg is note_off channel=0 note=71 velocity=0 time=17
the msg is note_on channel=0 note=71 velocity=100 time=0
the msg is note_off channel=0 note=74 velocity=0 time=8
the msg is note_on channel=0 note=74 velocity=100 time=0
the msg is note_off channel=0 note=76 velocity=0 time=25
the msg is note_on channel=0 note=76 velocity=100 time=0
the msg is note_off channel=0 note=79 velocity=0 time=25
the msg is note_on channel=0 note=79 velocity=100 time=0
the msg is note_off channel=0 note=72 velocity=0 time=12
the msg is note_on channel=0 note=72 velocity=100 time=0
the msg is note_off channel=0 note=72 velocity=0 time=12
the msg is note_on channel=0 note=72 velocity=100 time=0
the msg is note_off channel=0 note=72 velocity=0 time=12
the msg is note_on channel=0 note=72 velocity=100 time=0
the msg is note_off channel=0 note=72 velocity=0 time=25
the msg is note_on channel=0 note=72 velocity=100 time=0
the msg is note_off channel=0 note=72 velocity=0 time=12
the msg is note_on channel=0 note=72 velocity=100 time=0
the msg is note_off channel=0 note=72 velocity=0 time=12
the msg is note_on channel=0 note=72 velocity=100 time=0
the msg is <meta message end_of_track time=51>
the msg is <meta message track_name name='Acoustic Guitar' time=0>
the msg is program_change channel=0 program=24 time=0
the msg is note_off channel=0 note=69 velocity=0 time=0
the msg is pitchwheel channel=0 pitch=0 time=0
the msg is program_change channel=0 program=24 time=0
the msg is <meta message set_tempo tempo=500000 time=0>
the msg is <meta message time_signature numerator=4 denominator=4 clocks_per_click=24 notated_32nd_notes_per_beat=8 time=0>
the msg is note_on channel=0 note=69 velocity=100 time=0
the msg is note_off channel=0 note=72 velocity=0 time=166
the msg is note_on channel=0 note=72 velocity=100 time=0
the msg is note_off channel=0 note=72 velocity=0 time=12
the msg is note_on channel=0 note=72 velocity=100 time=0
the msg is note_off channel=0 note=72 velocity=0 time=12
the msg is note_on channel=0 note=72 velocity=100 time=0
the msg is note_off channel=0 note=72 velocity=0 time=25
the msg is note_on channel=0 note=72 velocity=100 time=0
the msg is note_off channel=0 note=74 velocity=0 time=25
the msg is note_on channel=0 note=74 velocity=100 time=0
the msg is note_off channel=0 note=74 velocity=0 time=12
the msg is note_on channel=0 note=74 velocity=100 time=0
the msg is note_off channel=0 note=71 velocity=0 time=12
the msg is note_on channel=0 note=71 velocity=100 time=0
the msg is note_off channel=0 note=74 velocity=0 time=25
the msg is note_on channel=0 note=74 velocity=100 time=0
the msg is note_off channel=0 note=74 velocity=0 time=12
the msg is note_on channel=0 note=74 velocity=100 time=0
the msg is note_off channel=0 note=71 velocity=0 time=12
the msg is note_on channel=0 note=71 velocity=100 time=0
the msg is note_off channel=0 note=71 velocity=0 time=12
the msg is note_on channel=0 note=71 velocity=100 time=0
the msg is note_off channel=0 note=69 velocity=0 time=12
the msg is note_on channel=0 note=69 velocity=100 time=0
the msg is note_off channel=0 note=72 velocity=0 time=115
the msg is note_on channel=0 note=72 velocity=100 time=0
the msg is note_off channel=0 note=72 velocity=0 time=34
the msg is note_on channel=0 note=72 velocity=100 time=0
the msg is note_off channel=0 note=72 velocity=0 time=4
the msg is note_on channel=0 note=72 velocity=100 time=0
the msg is note_off channel=0 note=72 velocity=0 time=12
the msg is note_on channel=0 note=72 velocity=100 time=0
the msg is note_off channel=0 note=72 velocity=0 time=17
the msg is note_on channel=0 note=72 velocity=100 time=0
the msg is note_off channel=0 note=76 velocity=0 time=17
the msg is note_on channel=0 note=76 velocity=100 time=0
the msg is note_off channel=0 note=79 velocity=0 time=17
the msg is note_on channel=0 note=79 velocity=100 time=0
the msg is note_off channel=0 note=76 velocity=0 time=34
the msg is note_on channel=0 note=76 velocity=100 time=0
the msg is note_off channel=0 note=79 velocity=0 time=17
the msg is note_on channel=0 note=79 velocity=100 time=0
the msg is note_off channel=0 note=79 velocity=0 time=17
the msg is note_on channel=0 note=79 velocity=100 time=0
the msg is note_off channel=0 note=76 velocity=0 time=17
the msg is note_on channel=0 note=76 velocity=100 time=0
the msg is note_off channel=0 note=74 velocity=0 time=4
the msg is note_on channel=0 note=74 velocity=100 time=0
the msg is note_off channel=0 note=72 velocity=0 time=12
the msg is note_on channel=0 note=72 velocity=100 time=0
the msg is note_off channel=0 note=74 velocity=0 time=34
the msg is note_on channel=0 note=74 velocity=100 time=0
the msg is note_off channel=0 note=74 velocity=0 time=17
the msg is note_on channel=0 note=74 velocity=100 time=0
the msg is note_off channel=0 note=74 velocity=0 time=34
the msg is note_on channel=0 note=74 velocity=100 time=0
the msg is note_off channel=0 note=76 velocity=0 time=17
the msg is note_on channel=0 note=76 velocity=100 time=0
the msg is note_off channel=0 note=79 velocity=0 time=34
the msg is note_on channel=0 note=79 velocity=100 time=0
the msg is note_off channel=0 note=79 velocity=0 time=17
the msg is note_off channel=0 note=76 velocity=0 time=0
the msg is note_on channel=0 note=79 velocity=100 time=0
the msg is note_on channel=0 note=76 velocity=100 time=0
the msg is note_off channel=0 note=74 velocity=0 time=25
the msg is note_on channel=0 note=74 velocity=100 time=0
the msg is note_off channel=0 note=72 velocity=0 time=8
the msg is note_on channel=0 note=72 velocity=100 time=0
the msg is note_off channel=0 note=74 velocity=0 time=17
the msg is note_on channel=0 note=74 velocity=100 time=0
the msg is note_off channel=0 note=76 velocity=0 time=34
the msg is note_on channel=0 note=76 velocity=100 time=0
the msg is note_off channel=0 note=72 velocity=0 time=4
the msg is note_on channel=0 note=72 velocity=100 time=0
the msg is note_off channel=0 note=74 velocity=0 time=12
the msg is note_on channel=0 note=74 velocity=100 time=0
the msg is note_off channel=0 note=74 velocity=0 time=34
the msg is note_on channel=0 note=74 velocity=100 time=0
the msg is note_off channel=0 note=74 velocity=0 time=17
the msg is note_on channel=0 note=74 velocity=100 time=0
the msg is note_off channel=0 note=74 velocity=0 time=17
the msg is note_on channel=0 note=74 velocity=100 time=0
the msg is note_off channel=0 note=71 velocity=0 time=17
the msg is note_on channel=0 note=71 velocity=100 time=0
the msg is note_off channel=0 note=74 velocity=0 time=17
the msg is note_on channel=0 note=74 velocity=100 time=0
the msg is note_off channel=0 note=74 velocity=0 time=34
the msg is note_on channel=0 note=74 velocity=100 time=0
the msg is note_off channel=0 note=72 velocity=0 time=4
the msg is note_on channel=0 note=72 velocity=100 time=0
the msg is note_off channel=0 note=74 velocity=0 time=29
the msg is note_on channel=0 note=74 velocity=100 time=0
the msg is note_off channel=0 note=74 velocity=0 time=21
the msg is note_on channel=0 note=74 velocity=100 time=0
the msg is note_off channel=0 note=74 velocity=0 time=12
the msg is note_on channel=0 note=74 velocity=100 time=0
the msg is note_off channel=0 note=71 velocity=0 time=17
the msg is note_on channel=0 note=71 velocity=100 time=0
the msg is note_off channel=0 note=74 velocity=0 time=8
the msg is note_on channel=0 note=74 velocity=100 time=0
the msg is note_off channel=0 note=76 velocity=0 time=25
the msg is note_on channel=0 note=76 velocity=100 time=0
the msg is note_off channel=0 note=79 velocity=0 time=25
the msg is note_on channel=0 note=79 velocity=100 time=0
the msg is note_off channel=0 note=72 velocity=0 time=12
the msg is note_on channel=0 note=72 velocity=100 time=0
the msg is note_off channel=0 note=72 velocity=0 time=12
the msg is note_on channel=0 note=72 velocity=100 time=0
the msg is note_off channel=0 note=72 velocity=0 time=12
the msg is note_on channel=0 note=72 velocity=100 time=0
the msg is note_off channel=0 note=72 velocity=0 time=25
the msg is note_on channel=0 note=72 velocity=100 time=0
the msg is note_off channel=0 note=72 velocity=0 time=12
the msg is note_on channel=0 note=72 velocity=100 time=0
the msg is note_off channel=0 note=72 velocity=0 time=12
the msg is note_on channel=0 note=72 velocity=100 time=0
the msg is <meta message end_of_track time=51>
the msg is <meta message track_name name='Acoustic Guitar' time=0>
the msg is program_change channel=0 program=24 time=0
the msg is note_off channel=0 note=69 velocity=0 time=0
the msg is pitchwheel channel=0 pitch=0 time=0
the msg is program_change channel=0 program=24 time=0
the msg is <meta message set_tempo tempo=500000 time=0>
the msg is <meta message time_signature numerator=4 denominator=4 clocks_per_click=24 notated_32nd_notes_per_beat=8 time=0>
the msg is note_on channel=0 note=69 velocity=100 time=0
the msg is note_off channel=0 note=72 velocity=0 time=166
the msg is note_on channel=0 note=72 velocity=100 time=0
the msg is note_off channel=0 note=72 velocity=0 time=12
the msg is note_on channel=0 note=72 velocity=100 time=0
the msg is note_off channel=0 note=72 velocity=0 time=12
the msg is note_on channel=0 note=72 velocity=100 time=0
the msg is note_off channel=0 note=72 velocity=0 time=25
the msg is note_on channel=0 note=72 velocity=100 time=0
the msg is note_off channel=0 note=74 velocity=0 time=25
the msg is note_on channel=0 note=74 velocity=100 time=0
the msg is note_off channel=0 note=74 velocity=0 time=12
the msg is note_on channel=0 note=74 velocity=100 time=0
the msg is note_off channel=0 note=71 velocity=0 time=12
the msg is note_on channel=0 note=71 velocity=100 time=0
the msg is note_off channel=0 note=74 velocity=0 time=25
the msg is note_on channel=0 note=74 velocity=100 time=0
the msg is note_off channel=0 note=74 velocity=0 time=12
the msg is note_on channel=0 note=74 velocity=100 time=0
the msg is note_off channel=0 note=71 velocity=0 time=12
the msg is note_on channel=0 note=71 velocity=100 time=0
the msg is note_off channel=0 note=71 velocity=0 time=12
the msg is note_on channel=0 note=71 velocity=100 time=0
the msg is note_off channel=0 note=69 velocity=0 time=12
the msg is note_on channel=0 note=69 velocity=100 time=0
the msg is note_off channel=0 note=72 velocity=0 time=115
the msg is note_on channel=0 note=72 velocity=100 time=0
the msg is note_off channel=0 note=72 velocity=0 time=34
the msg is note_on channel=0 note=72 velocity=100 time=0
the msg is note_off channel=0 note=72 velocity=0 time=4
the msg is note_on channel=0 note=72 velocity=100 time=0
the msg is note_off channel=0 note=72 velocity=0 time=12
the msg is note_on channel=0 note=72 velocity=100 time=0
the msg is note_off channel=0 note=72 velocity=0 time=17
the msg is note_on channel=0 note=72 velocity=100 time=0
the msg is note_off channel=0 note=76 velocity=0 time=17
the msg is note_on channel=0 note=76 velocity=100 time=0
the msg is note_off channel=0 note=79 velocity=0 time=17
the msg is note_on channel=0 note=79 velocity=100 time=0
the msg is note_off channel=0 note=76 velocity=0 time=34
the msg is note_on channel=0 note=76 velocity=100 time=0
the msg is note_off channel=0 note=79 velocity=0 time=17
the msg is note_on channel=0 note=79 velocity=100 time=0
the msg is note_off channel=0 note=79 velocity=0 time=17
the msg is note_on channel=0 note=79 velocity=100 time=0
the msg is note_off channel=0 note=76 velocity=0 time=17
the msg is note_on channel=0 note=76 velocity=100 time=0
the msg is note_off channel=0 note=74 velocity=0 time=4
the msg is note_on channel=0 note=74 velocity=100 time=0
the msg is note_off channel=0 note=72 velocity=0 time=12
the msg is note_on channel=0 note=72 velocity=100 time=0
the msg is note_off channel=0 note=74 velocity=0 time=34
the msg is note_on channel=0 note=74 velocity=100 time=0
the msg is note_off channel=0 note=74 velocity=0 time=17
the msg is note_on channel=0 note=74 velocity=100 time=0
the msg is note_off channel=0 note=74 velocity=0 time=34
the msg is note_on channel=0 note=74 velocity=100 time=0
the msg is note_off channel=0 note=76 velocity=0 time=17
the msg is note_on channel=0 note=76 velocity=100 time=0
the msg is note_off channel=0 note=79 velocity=0 time=34
the msg is note_on channel=0 note=79 velocity=100 time=0
the msg is note_off channel=0 note=79 velocity=0 time=17
the msg is note_off channel=0 note=76 velocity=0 time=0
the msg is note_on channel=0 note=79 velocity=100 time=0
the msg is note_on channel=0 note=76 velocity=100 time=0
the msg is note_off channel=0 note=74 velocity=0 time=25
the msg is note_on channel=0 note=74 velocity=100 time=0
the msg is note_off channel=0 note=72 velocity=0 time=8
the msg is note_on channel=0 note=72 velocity=100 time=0
the msg is note_off channel=0 note=74 velocity=0 time=17
the msg is note_on channel=0 note=74 velocity=100 time=0
the msg is note_off channel=0 note=76 velocity=0 time=34
the msg is note_on channel=0 note=76 velocity=100 time=0
the msg is note_off channel=0 note=72 velocity=0 time=4
the msg is note_on channel=0 note=72 velocity=100 time=0
the msg is note_off channel=0 note=74 velocity=0 time=12
the msg is note_on channel=0 note=74 velocity=100 time=0
the msg is note_off channel=0 note=74 velocity=0 time=34
the msg is note_on channel=0 note=74 velocity=100 time=0
the msg is note_off channel=0 note=74 velocity=0 time=17
the msg is note_on channel=0 note=74 velocity=100 time=0
the msg is note_off channel=0 note=74 velocity=0 time=17
the msg is note_on channel=0 note=74 velocity=100 time=0
the msg is note_off channel=0 note=71 velocity=0 time=17
the msg is note_on channel=0 note=71 velocity=100 time=0
the msg is note_off channel=0 note=74 velocity=0 time=17
the msg is note_on channel=0 note=74 velocity=100 time=0
the msg is note_off channel=0 note=74 velocity=0 time=34
the msg is note_on channel=0 note=74 velocity=100 time=0
the msg is note_off channel=0 note=72 velocity=0 time=4
the msg is note_on channel=0 note=72 velocity=100 time=0
the msg is note_off channel=0 note=74 velocity=0 time=29
the msg is note_on channel=0 note=74 velocity=100 time=0
the msg is note_off channel=0 note=74 velocity=0 time=21
the msg is note_on channel=0 note=74 velocity=100 time=0
the msg is note_off channel=0 note=74 velocity=0 time=12
the msg is note_on channel=0 note=74 velocity=100 time=0
the msg is note_off channel=0 note=71 velocity=0 time=17
the msg is note_on channel=0 note=71 velocity=100 time=0
the msg is note_off channel=0 note=74 velocity=0 time=8
the msg is note_on channel=0 note=74 velocity=100 time=0
the msg is note_off channel=0 note=76 velocity=0 time=25
the msg is note_on channel=0 note=76 velocity=100 time=0
the msg is note_off channel=0 note=79 velocity=0 time=25
the msg is note_on channel=0 note=79 velocity=100 time=0
the msg is note_off channel=0 note=72 velocity=0 time=12
the msg is note_on channel=0 note=72 velocity=100 time=0
the msg is note_off channel=0 note=72 velocity=0 time=12
the msg is note_on channel=0 note=72 velocity=100 time=0
the msg is note_off channel=0 note=72 velocity=0 time=12
the msg is note_on channel=0 note=72 velocity=100 time=0
the msg is note_off channel=0 note=72 velocity=0 time=25
the msg is note_on channel=0 note=72 velocity=100 time=0
the msg is note_off channel=0 note=72 velocity=0 time=12
the msg is note_on channel=0 note=72 velocity=100 time=0
the msg is note_off channel=0 note=72 velocity=0 time=12
the msg is note_on channel=0 note=72 velocity=100 time=0
the msg is <meta message end_of_track time=51>
the msg is <meta message track_name name='Acoustic Guitar' time=0>
the msg is program_change channel=0 program=24 time=0
the msg is note_off channel=0 note=69 velocity=0 time=0
the msg is pitchwheel channel=0 pitch=0 time=0
the msg is program_change channel=0 program=24 time=0
the msg is <meta message set_tempo tempo=500000 time=0>
the msg is <meta message time_signature numerator=4 denominator=4 clocks_per_click=24 notated_32nd_notes_per_beat=8 time=0>
the msg is note_on channel=0 note=69 velocity=100 time=0
the msg is note_off channel=0 note=72 velocity=0 time=166
the msg is note_on channel=0 note=72 velocity=100 time=0
the msg is note_off channel=0 note=72 velocity=0 time=12
the msg is note_on channel=0 note=72 velocity=100 time=0
the msg is note_off channel=0 note=72 velocity=0 time=12
the msg is note_on channel=0 note=72 velocity=100 time=0
the msg is note_off channel=0 note=72 velocity=0 time=25
the msg is note_on channel=0 note=72 velocity=100 time=0
the msg is note_off channel=0 note=74 velocity=0 time=25
the msg is note_on channel=0 note=74 velocity=100 time=0
the msg is note_off channel=0 note=74 velocity=0 time=12
the msg is note_on channel=0 note=74 velocity=100 time=0
the msg is note_off channel=0 note=71 velocity=0 time=12
the msg is note_on channel=0 note=71 velocity=100 time=0
the msg is note_off channel=0 note=74 velocity=0 time=25
the msg is note_on channel=0 note=74 velocity=100 time=0
the msg is note_off channel=0 note=74 velocity=0 time=12
the msg is note_on channel=0 note=74 velocity=100 time=0
the msg is note_off channel=0 note=71 velocity=0 time=12
the msg is note_on channel=0 note=71 velocity=100 time=0
the msg is note_off channel=0 note=71 velocity=0 time=12
the msg is note_on channel=0 note=71 velocity=100 time=0
the msg is note_off channel=0 note=69 velocity=0 time=12
the msg is note_on channel=0 note=69 velocity=100 time=0
the msg is note_off channel=0 note=72 velocity=0 time=115
the msg is note_on channel=0 note=72 velocity=100 time=0
the msg is note_off channel=0 note=72 velocity=0 time=34
the msg is note_on channel=0 note=72 velocity=100 time=0
the msg is note_off channel=0 note=72 velocity=0 time=4
the msg is note_on channel=0 note=72 velocity=100 time=0
the msg is note_off channel=0 note=72 velocity=0 time=12
the msg is note_on channel=0 note=72 velocity=100 time=0
the msg is note_off channel=0 note=72 velocity=0 time=17
the msg is note_on channel=0 note=72 velocity=100 time=0
the msg is note_off channel=0 note=76 velocity=0 time=17
the msg is note_on channel=0 note=76 velocity=100 time=0
the msg is note_off channel=0 note=79 velocity=0 time=17
the msg is note_on channel=0 note=79 velocity=100 time=0
the msg is note_off channel=0 note=76 velocity=0 time=34
the msg is note_on channel=0 note=76 velocity=100 time=0
the msg is note_off channel=0 note=79 velocity=0 time=17
the msg is note_on channel=0 note=79 velocity=100 time=0
the msg is note_off channel=0 note=79 velocity=0 time=17
the msg is note_on channel=0 note=79 velocity=100 time=0
the msg is note_off channel=0 note=76 velocity=0 time=17
the msg is note_on channel=0 note=76 velocity=100 time=0
the msg is note_off channel=0 note=74 velocity=0 time=4
the msg is note_on channel=0 note=74 velocity=100 time=0
the msg is note_off channel=0 note=72 velocity=0 time=12
the msg is note_on channel=0 note=72 velocity=100 time=0
the msg is note_off channel=0 note=74 velocity=0 time=34
the msg is note_on channel=0 note=74 velocity=100 time=0
the msg is note_off channel=0 note=74 velocity=0 time=17
the msg is note_on channel=0 note=74 velocity=100 time=0
the msg is note_off channel=0 note=74 velocity=0 time=34
the msg is note_on channel=0 note=74 velocity=100 time=0
the msg is note_off channel=0 note=76 velocity=0 time=17
the msg is note_on channel=0 note=76 velocity=100 time=0
the msg is note_off channel=0 note=79 velocity=0 time=34
the msg is note_on channel=0 note=79 velocity=100 time=0
the msg is note_off channel=0 note=79 velocity=0 time=17
the msg is note_off channel=0 note=76 velocity=0 time=0
the msg is note_on channel=0 note=79 velocity=100 time=0
the msg is note_on channel=0 note=76 velocity=100 time=0
the msg is note_off channel=0 note=74 velocity=0 time=25
the msg is note_on channel=0 note=74 velocity=100 time=0
the msg is note_off channel=0 note=72 velocity=0 time=8
the msg is note_on channel=0 note=72 velocity=100 time=0
the msg is note_off channel=0 note=74 velocity=0 time=17
the msg is note_on channel=0 note=74 velocity=100 time=0
the msg is note_off channel=0 note=76 velocity=0 time=34
the msg is note_on channel=0 note=76 velocity=100 time=0
the msg is note_off channel=0 note=72 velocity=0 time=4
the msg is note_on channel=0 note=72 velocity=100 time=0
the msg is note_off channel=0 note=74 velocity=0 time=12
the msg is note_on channel=0 note=74 velocity=100 time=0
the msg is note_off channel=0 note=74 velocity=0 time=34
the msg is note_on channel=0 note=74 velocity=100 time=0
the msg is note_off channel=0 note=74 velocity=0 time=17
the msg is note_on channel=0 note=74 velocity=100 time=0
the msg is note_off channel=0 note=74 velocity=0 time=17
the msg is note_on channel=0 note=74 velocity=100 time=0
the msg is note_off channel=0 note=71 velocity=0 time=17
the msg is note_on channel=0 note=71 velocity=100 time=0
the msg is note_off channel=0 note=74 velocity=0 time=17
the msg is note_on channel=0 note=74 velocity=100 time=0
the msg is note_off channel=0 note=74 velocity=0 time=34
the msg is note_on channel=0 note=74 velocity=100 time=0
the msg is note_off channel=0 note=72 velocity=0 time=4
the msg is note_on channel=0 note=72 velocity=100 time=0
the msg is note_off channel=0 note=74 velocity=0 time=29
the msg is note_on channel=0 note=74 velocity=100 time=0
the msg is note_off channel=0 note=74 velocity=0 time=21
the msg is note_on channel=0 note=74 velocity=100 time=0
the msg is note_off channel=0 note=74 velocity=0 time=12
the msg is note_on channel=0 note=74 velocity=100 time=0
the msg is note_off channel=0 note=71 velocity=0 time=17
the msg is note_on channel=0 note=71 velocity=100 time=0
the msg is note_off channel=0 note=74 velocity=0 time=8
the msg is note_on channel=0 note=74 velocity=100 time=0
the msg is note_off channel=0 note=76 velocity=0 time=25
the msg is note_on channel=0 note=76 velocity=100 time=0
the msg is note_off channel=0 note=79 velocity=0 time=25
the msg is note_on channel=0 note=79 velocity=100 time=0
the msg is note_off channel=0 note=72 velocity=0 time=12
the msg is note_on channel=0 note=72 velocity=100 time=0
the msg is note_off channel=0 note=72 velocity=0 time=12
the msg is note_on channel=0 note=72 velocity=100 time=0
the msg is note_off channel=0 note=72 velocity=0 time=12
the msg is note_on channel=0 note=72 velocity=100 time=0
the msg is note_off channel=0 note=72 velocity=0 time=25
the msg is note_on channel=0 note=72 velocity=100 time=0
the msg is note_off channel=0 note=72 velocity=0 time=12
the msg is note_on channel=0 note=72 velocity=100 time=0
the msg is note_off channel=0 note=72 velocity=0 time=12
the msg is note_on channel=0 note=72 velocity=100 time=0
the msg is <meta message end_of_track time=51>
the msg is <meta message track_name name='Acoustic Guitar' time=0>
the msg is program_change channel=0 program=24 time=0
the msg is note_off channel=0 note=69 velocity=0 time=0
the msg is pitchwheel channel=0 pitch=0 time=0
the msg is program_change channel=0 program=24 time=0
the msg is <meta message set_tempo tempo=500000 time=0>
the msg is <meta message time_signature numerator=4 denominator=4 clocks_per_click=24 notated_32nd_notes_per_beat=8 time=0>
the msg is note_on channel=0 note=69 velocity=100 time=0
the msg is note_off channel=0 note=72 velocity=0 time=166
the msg is note_on channel=0 note=72 velocity=100 time=0
the msg is note_off channel=0 note=72 velocity=0 time=12
the msg is note_on channel=0 note=72 velocity=100 time=0
the msg is note_off channel=0 note=72 velocity=0 time=12
the msg is note_on channel=0 note=72 velocity=100 time=0
the msg is note_off channel=0 note=72 velocity=0 time=25
the msg is note_on channel=0 note=72 velocity=100 time=0
the msg is note_off channel=0 note=74 velocity=0 time=25
the msg is note_on channel=0 note=74 velocity=100 time=0
the msg is note_off channel=0 note=74 velocity=0 time=12
the msg is note_on channel=0 note=74 velocity=100 time=0
the msg is note_off channel=0 note=71 velocity=0 time=12
the msg is note_on channel=0 note=71 velocity=100 time=0
the msg is note_off channel=0 note=74 velocity=0 time=25
the msg is note_on channel=0 note=74 velocity=100 time=0
the msg is note_off channel=0 note=74 velocity=0 time=12
the msg is note_on channel=0 note=74 velocity=100 time=0
the msg is note_off channel=0 note=71 velocity=0 time=12
the msg is note_on channel=0 note=71 velocity=100 time=0
the msg is note_off channel=0 note=71 velocity=0 time=12
the msg is note_on channel=0 note=71 velocity=100 time=0
the msg is note_off channel=0 note=69 velocity=0 time=12
the msg is note_on channel=0 note=69 velocity=100 time=0
the msg is note_off channel=0 note=72 velocity=0 time=115
the msg is note_on channel=0 note=72 velocity=100 time=0
the msg is note_off channel=0 note=72 velocity=0 time=34
the msg is note_on channel=0 note=72 velocity=100 time=0
the msg is note_off channel=0 note=72 velocity=0 time=4
the msg is note_on channel=0 note=72 velocity=100 time=0
the msg is note_off channel=0 note=72 velocity=0 time=12
the msg is note_on channel=0 note=72 velocity=100 time=0
the msg is note_off channel=0 note=72 velocity=0 time=17
the msg is note_on channel=0 note=72 velocity=100 time=0
the msg is note_off channel=0 note=76 velocity=0 time=17
the msg is note_on channel=0 note=76 velocity=100 time=0
the msg is note_off channel=0 note=79 velocity=0 time=17
the msg is note_on channel=0 note=79 velocity=100 time=0
the msg is note_off channel=0 note=76 velocity=0 time=34
the msg is note_on channel=0 note=76 velocity=100 time=0
the msg is note_off channel=0 note=79 velocity=0 time=17
the msg is note_on channel=0 note=79 velocity=100 time=0
the msg is note_off channel=0 note=79 velocity=0 time=17
the msg is note_on channel=0 note=79 velocity=100 time=0
the msg is note_off channel=0 note=76 velocity=0 time=17
the msg is note_on channel=0 note=76 velocity=100 time=0
the msg is note_off channel=0 note=74 velocity=0 time=4
the msg is note_on channel=0 note=74 velocity=100 time=0
the msg is note_off channel=0 note=72 velocity=0 time=12
the msg is note_on channel=0 note=72 velocity=100 time=0
the msg is note_off channel=0 note=74 velocity=0 time=34
the msg is note_on channel=0 note=74 velocity=100 time=0
the msg is note_off channel=0 note=74 velocity=0 time=17
the msg is note_on channel=0 note=74 velocity=100 time=0
the msg is note_off channel=0 note=74 velocity=0 time=34
the msg is note_on channel=0 note=74 velocity=100 time=0
the msg is note_off channel=0 note=76 velocity=0 time=17
the msg is note_on channel=0 note=76 velocity=100 time=0
the msg is note_off channel=0 note=79 velocity=0 time=34
the msg is note_on channel=0 note=79 velocity=100 time=0
the msg is note_off channel=0 note=79 velocity=0 time=17
the msg is note_off channel=0 note=76 velocity=0 time=0
the msg is note_on channel=0 note=79 velocity=100 time=0
the msg is note_on channel=0 note=76 velocity=100 time=0
the msg is note_off channel=0 note=74 velocity=0 time=25
the msg is note_on channel=0 note=74 velocity=100 time=0
the msg is note_off channel=0 note=72 velocity=0 time=8
the msg is note_on channel=0 note=72 velocity=100 time=0
the msg is note_off channel=0 note=74 velocity=0 time=17
the msg is note_on channel=0 note=74 velocity=100 time=0
the msg is note_off channel=0 note=76 velocity=0 time=34
the msg is note_on channel=0 note=76 velocity=100 time=0
the msg is note_off channel=0 note=72 velocity=0 time=4
the msg is note_on channel=0 note=72 velocity=100 time=0
the msg is note_off channel=0 note=74 velocity=0 time=12
the msg is note_on channel=0 note=74 velocity=100 time=0
the msg is note_off channel=0 note=74 velocity=0 time=34
the msg is note_on channel=0 note=74 velocity=100 time=0
the msg is note_off channel=0 note=74 velocity=0 time=17
the msg is note_on channel=0 note=74 velocity=100 time=0
the msg is note_off channel=0 note=74 velocity=0 time=17
the msg is note_on channel=0 note=74 velocity=100 time=0
the msg is note_off channel=0 note=71 velocity=0 time=17
the msg is note_on channel=0 note=71 velocity=100 time=0
the msg is note_off channel=0 note=74 velocity=0 time=17
the msg is note_on channel=0 note=74 velocity=100 time=0
the msg is note_off channel=0 note=74 velocity=0 time=34
the msg is note_on channel=0 note=74 velocity=100 time=0
the msg is note_off channel=0 note=72 velocity=0 time=4
the msg is note_on channel=0 note=72 velocity=100 time=0
the msg is note_off channel=0 note=74 velocity=0 time=29
the msg is note_on channel=0 note=74 velocity=100 time=0
the msg is note_off channel=0 note=74 velocity=0 time=21
the msg is note_on channel=0 note=74 velocity=100 time=0
the msg is note_off channel=0 note=74 velocity=0 time=12
the msg is note_on channel=0 note=74 velocity=100 time=0
the msg is note_off channel=0 note=71 velocity=0 time=17
the msg is note_on channel=0 note=71 velocity=100 time=0
the msg is note_off channel=0 note=74 velocity=0 time=8
the msg is note_on channel=0 note=74 velocity=100 time=0
the msg is note_off channel=0 note=76 velocity=0 time=25
the msg is note_on channel=0 note=76 velocity=100 time=0
the msg is note_off channel=0 note=79 velocity=0 time=25
the msg is note_on channel=0 note=79 velocity=100 time=0
the msg is note_off channel=0 note=72 velocity=0 time=12
the msg is note_on channel=0 note=72 velocity=100 time=0
the msg is note_off channel=0 note=72 velocity=0 time=12
the msg is note_on channel=0 note=72 velocity=100 time=0
the msg is note_off channel=0 note=72 velocity=0 time=12
the msg is note_on channel=0 note=72 velocity=100 time=0
the msg is note_off channel=0 note=72 velocity=0 time=25
the msg is note_on channel=0 note=72 velocity=100 time=0
the msg is note_off channel=0 note=72 velocity=0 time=12
the msg is note_on channel=0 note=72 velocity=100 time=0
the msg is note_off channel=0 note=72 velocity=0 time=12
the msg is note_on channel=0 note=72 velocity=100 time=0
the msg is <meta message end_of_track time=51>
the msg is <meta message track_name name='Acoustic Guitar' time=0>
the msg is program_change channel=0 program=24 time=0
the msg is note_off channel=0 note=69 velocity=0 time=0
the msg is pitchwheel channel=0 pitch=0 time=0
the msg is program_change channel=0 program=24 time=0
the msg is <meta message set_tempo tempo=500000 time=0>
the msg is <meta message time_signature numerator=4 denominator=4 clocks_per_click=24 notated_32nd_notes_per_beat=8 time=0>
the msg is note_on channel=0 note=69 velocity=100 time=0
the msg is note_off channel=0 note=72 velocity=0 time=166
the msg is note_on channel=0 note=72 velocity=100 time=0
the msg is note_off channel=0 note=72 velocity=0 time=12
the msg is note_on channel=0 note=72 velocity=100 time=0
the msg is note_off channel=0 note=72 velocity=0 time=12
the msg is note_on channel=0 note=72 velocity=100 time=0
the msg is note_off channel=0 note=72 velocity=0 time=25
the msg is note_on channel=0 note=72 velocity=100 time=0
the msg is note_off channel=0 note=74 velocity=0 time=25
the msg is note_on channel=0 note=74 velocity=100 time=0
the msg is note_off channel=0 note=74 velocity=0 time=12
the msg is note_on channel=0 note=74 velocity=100 time=0
the msg is note_off channel=0 note=71 velocity=0 time=12
the msg is note_on channel=0 note=71 velocity=100 time=0
the msg is note_off channel=0 note=74 velocity=0 time=25
the msg is note_on channel=0 note=74 velocity=100 time=0
the msg is note_off channel=0 note=74 velocity=0 time=12
the msg is note_on channel=0 note=74 velocity=100 time=0
the msg is note_off channel=0 note=71 velocity=0 time=12
the msg is note_on channel=0 note=71 velocity=100 time=0
the msg is note_off channel=0 note=71 velocity=0 time=12
the msg is note_on channel=0 note=71 velocity=100 time=0
the msg is note_off channel=0 note=69 velocity=0 time=12
the msg is note_on channel=0 note=69 velocity=100 time=0
the msg is note_off channel=0 note=72 velocity=0 time=115
the msg is note_on channel=0 note=72 velocity=100 time=0
the msg is note_off channel=0 note=72 velocity=0 time=34
the msg is note_on channel=0 note=72 velocity=100 time=0
the msg is note_off channel=0 note=72 velocity=0 time=4
the msg is note_on channel=0 note=72 velocity=100 time=0
the msg is note_off channel=0 note=72 velocity=0 time=12
the msg is note_on channel=0 note=72 velocity=100 time=0
the msg is note_off channel=0 note=72 velocity=0 time=17
the msg is note_on channel=0 note=72 velocity=100 time=0
the msg is note_off channel=0 note=76 velocity=0 time=17
the msg is note_on channel=0 note=76 velocity=100 time=0
the msg is note_off channel=0 note=79 velocity=0 time=17
the msg is note_on channel=0 note=79 velocity=100 time=0
the msg is note_off channel=0 note=76 velocity=0 time=34
the msg is note_on channel=0 note=76 velocity=100 time=0
the msg is note_off channel=0 note=79 velocity=0 time=17
the msg is note_on channel=0 note=79 velocity=100 time=0
the msg is note_off channel=0 note=79 velocity=0 time=17
the msg is note_on channel=0 note=79 velocity=100 time=0
the msg is note_off channel=0 note=76 velocity=0 time=17
the msg is note_on channel=0 note=76 velocity=100 time=0
the msg is note_off channel=0 note=74 velocity=0 time=4
the msg is note_on channel=0 note=74 velocity=100 time=0
the msg is note_off channel=0 note=72 velocity=0 time=12
the msg is note_on channel=0 note=72 velocity=100 time=0
the msg is note_off channel=0 note=74 velocity=0 time=34
the msg is note_on channel=0 note=74 velocity=100 time=0
the msg is note_off channel=0 note=74 velocity=0 time=17
the msg is note_on channel=0 note=74 velocity=100 time=0
the msg is note_off channel=0 note=74 velocity=0 time=34
the msg is note_on channel=0 note=74 velocity=100 time=0
the msg is note_off channel=0 note=76 velocity=0 time=17
the msg is note_on channel=0 note=76 velocity=100 time=0
the msg is note_off channel=0 note=79 velocity=0 time=34
the msg is note_on channel=0 note=79 velocity=100 time=0
the msg is note_off channel=0 note=79 velocity=0 time=17
the msg is note_off channel=0 note=76 velocity=0 time=0
the msg is note_on channel=0 note=79 velocity=100 time=0
the msg is note_on channel=0 note=76 velocity=100 time=0
the msg is note_off channel=0 note=74 velocity=0 time=25
the msg is note_on channel=0 note=74 velocity=100 time=0
the msg is note_off channel=0 note=72 velocity=0 time=8
the msg is note_on channel=0 note=72 velocity=100 time=0
the msg is note_off channel=0 note=74 velocity=0 time=17
the msg is note_on channel=0 note=74 velocity=100 time=0
the msg is note_off channel=0 note=76 velocity=0 time=34
the msg is note_on channel=0 note=76 velocity=100 time=0
the msg is note_off channel=0 note=72 velocity=0 time=4
the msg is note_on channel=0 note=72 velocity=100 time=0
the msg is note_off channel=0 note=74 velocity=0 time=12
the msg is note_on channel=0 note=74 velocity=100 time=0
the msg is note_off channel=0 note=74 velocity=0 time=34
the msg is note_on channel=0 note=74 velocity=100 time=0
the msg is note_off channel=0 note=74 velocity=0 time=17
the msg is note_on channel=0 note=74 velocity=100 time=0
the msg is note_off channel=0 note=74 velocity=0 time=17
the msg is note_on channel=0 note=74 velocity=100 time=0
the msg is note_off channel=0 note=71 velocity=0 time=17
the msg is note_on channel=0 note=71 velocity=100 time=0
the msg is note_off channel=0 note=74 velocity=0 time=17
the msg is note_on channel=0 note=74 velocity=100 time=0
the msg is note_off channel=0 note=74 velocity=0 time=34
the msg is note_on channel=0 note=74 velocity=100 time=0
the msg is note_off channel=0 note=72 velocity=0 time=4
the msg is note_on channel=0 note=72 velocity=100 time=0
the msg is note_off channel=0 note=74 velocity=0 time=29
the msg is note_on channel=0 note=74 velocity=100 time=0
the msg is note_off channel=0 note=74 velocity=0 time=21
the msg is note_on channel=0 note=74 velocity=100 time=0
the msg is note_off channel=0 note=74 velocity=0 time=12
the msg is note_on channel=0 note=74 velocity=100 time=0
the msg is note_off channel=0 note=71 velocity=0 time=17
the msg is note_on channel=0 note=71 velocity=100 time=0
the msg is note_off channel=0 note=74 velocity=0 time=8
the msg is note_on channel=0 note=74 velocity=100 time=0
the msg is note_off channel=0 note=76 velocity=0 time=25
the msg is note_on channel=0 note=76 velocity=100 time=0
the msg is note_off channel=0 note=79 velocity=0 time=25
the msg is note_on channel=0 note=79 velocity=100 time=0
the msg is note_off channel=0 note=72 velocity=0 time=12
the msg is note_on channel=0 note=72 velocity=100 time=0
the msg is note_off channel=0 note=72 velocity=0 time=12
the msg is note_on channel=0 note=72 velocity=100 time=0
the msg is note_off channel=0 note=72 velocity=0 time=12
the msg is note_on channel=0 note=72 velocity=100 time=0
the msg is note_off channel=0 note=72 velocity=0 time=25
the msg is note_on channel=0 note=72 velocity=100 time=0
the msg is note_off channel=0 note=72 velocity=0 time=12
the msg is note_on channel=0 note=72 velocity=100 time=0
the msg is note_off channel=0 note=72 velocity=0 time=12
the msg is note_on channel=0 note=72 velocity=100 time=0
the msg is <meta message end_of_track time=51>
the msg is <meta message track_name name='Acoustic Guitar' time=0>
the msg is program_change channel=0 program=24 time=0
the msg is note_off channel=0 note=69 velocity=0 time=0
the msg is pitchwheel channel=0 pitch=0 time=0
the msg is program_change channel=0 program=24 time=0
the msg is <meta message set_tempo tempo=500000 time=0>
the msg is <meta message time_signature numerator=4 denominator=4 clocks_per_click=24 notated_32nd_notes_per_beat=8 time=0>
the msg is note_on channel=0 note=69 velocity=100 time=0
the msg is note_off channel=0 note=72 velocity=0 time=166
the msg is note_on channel=0 note=72 velocity=100 time=0
the msg is note_off channel=0 note=72 velocity=0 time=12
the msg is note_on channel=0 note=72 velocity=100 time=0
the msg is note_off channel=0 note=72 velocity=0 time=12
the msg is note_on channel=0 note=72 velocity=100 time=0
the msg is note_off channel=0 note=72 velocity=0 time=25
the msg is note_on channel=0 note=72 velocity=100 time=0
the msg is note_off channel=0 note=74 velocity=0 time=25
the msg is note_on channel=0 note=74 velocity=100 time=0
the msg is note_off channel=0 note=74 velocity=0 time=12
the msg is note_on channel=0 note=74 velocity=100 time=0
the msg is note_off channel=0 note=71 velocity=0 time=12
the msg is note_on channel=0 note=71 velocity=100 time=0
the msg is note_off channel=0 note=74 velocity=0 time=25
the msg is note_on channel=0 note=74 velocity=100 time=0
the msg is note_off channel=0 note=74 velocity=0 time=12
the msg is note_on channel=0 note=74 velocity=100 time=0
the msg is note_off channel=0 note=71 velocity=0 time=12
the msg is note_on channel=0 note=71 velocity=100 time=0
the msg is note_off channel=0 note=71 velocity=0 time=12
the msg is note_on channel=0 note=71 velocity=100 time=0
the msg is note_off channel=0 note=69 velocity=0 time=12
the msg is note_on channel=0 note=69 velocity=100 time=0
the msg is note_off channel=0 note=72 velocity=0 time=115
the msg is note_on channel=0 note=72 velocity=100 time=0
the msg is note_off channel=0 note=72 velocity=0 time=34
the msg is note_on channel=0 note=72 velocity=100 time=0
the msg is note_off channel=0 note=72 velocity=0 time=4
the msg is note_on channel=0 note=72 velocity=100 time=0
the msg is note_off channel=0 note=72 velocity=0 time=12
the msg is note_on channel=0 note=72 velocity=100 time=0
the msg is note_off channel=0 note=72 velocity=0 time=17
the msg is note_on channel=0 note=72 velocity=100 time=0
the msg is note_off channel=0 note=76 velocity=0 time=17
the msg is note_on channel=0 note=76 velocity=100 time=0
the msg is note_off channel=0 note=79 velocity=0 time=17
the msg is note_on channel=0 note=79 velocity=100 time=0
the msg is note_off channel=0 note=76 velocity=0 time=34
the msg is note_on channel=0 note=76 velocity=100 time=0
the msg is note_off channel=0 note=79 velocity=0 time=17
the msg is note_on channel=0 note=79 velocity=100 time=0
the msg is note_off channel=0 note=79 velocity=0 time=17
the msg is note_on channel=0 note=79 velocity=100 time=0
the msg is note_off channel=0 note=76 velocity=0 time=17
the msg is note_on channel=0 note=76 velocity=100 time=0
the msg is note_off channel=0 note=74 velocity=0 time=4
the msg is note_on channel=0 note=74 velocity=100 time=0
the msg is note_off channel=0 note=72 velocity=0 time=12
the msg is note_on channel=0 note=72 velocity=100 time=0
the msg is note_off channel=0 note=74 velocity=0 time=34
the msg is note_on channel=0 note=74 velocity=100 time=0
the msg is note_off channel=0 note=74 velocity=0 time=17
the msg is note_on channel=0 note=74 velocity=100 time=0
the msg is note_off channel=0 note=74 velocity=0 time=34
the msg is note_on channel=0 note=74 velocity=100 time=0
the msg is note_off channel=0 note=76 velocity=0 time=17
the msg is note_on channel=0 note=76 velocity=100 time=0
the msg is note_off channel=0 note=79 velocity=0 time=34
the msg is note_on channel=0 note=79 velocity=100 time=0
the msg is note_off channel=0 note=79 velocity=0 time=17
the msg is note_off channel=0 note=76 velocity=0 time=0
the msg is note_on channel=0 note=79 velocity=100 time=0
the msg is note_on channel=0 note=76 velocity=100 time=0
the msg is note_off channel=0 note=74 velocity=0 time=25
the msg is note_on channel=0 note=74 velocity=100 time=0
the msg is note_off channel=0 note=72 velocity=0 time=8
the msg is note_on channel=0 note=72 velocity=100 time=0
the msg is note_off channel=0 note=74 velocity=0 time=17
the msg is note_on channel=0 note=74 velocity=100 time=0
the msg is note_off channel=0 note=76 velocity=0 time=34
the msg is note_on channel=0 note=76 velocity=100 time=0
the msg is note_off channel=0 note=72 velocity=0 time=4
the msg is note_on channel=0 note=72 velocity=100 time=0
the msg is note_off channel=0 note=74 velocity=0 time=12
the msg is note_on channel=0 note=74 velocity=100 time=0
the msg is note_off channel=0 note=74 velocity=0 time=34
the msg is note_on channel=0 note=74 velocity=100 time=0
the msg is note_off channel=0 note=74 velocity=0 time=17
the msg is note_on channel=0 note=74 velocity=100 time=0
the msg is note_off channel=0 note=74 velocity=0 time=17
the msg is note_on channel=0 note=74 velocity=100 time=0
the msg is note_off channel=0 note=71 velocity=0 time=17
the msg is note_on channel=0 note=71 velocity=100 time=0
the msg is note_off channel=0 note=74 velocity=0 time=17
the msg is note_on channel=0 note=74 velocity=100 time=0
the msg is note_off channel=0 note=74 velocity=0 time=34
the msg is note_on channel=0 note=74 velocity=100 time=0
the msg is note_off channel=0 note=72 velocity=0 time=4
the msg is note_on channel=0 note=72 velocity=100 time=0
the msg is note_off channel=0 note=74 velocity=0 time=29
the msg is note_on channel=0 note=74 velocity=100 time=0
the msg is note_off channel=0 note=74 velocity=0 time=21
the msg is note_on channel=0 note=74 velocity=100 time=0
the msg is note_off channel=0 note=74 velocity=0 time=12
the msg is note_on channel=0 note=74 velocity=100 time=0
the msg is note_off channel=0 note=71 velocity=0 time=17
the msg is note_on channel=0 note=71 velocity=100 time=0
the msg is note_off channel=0 note=74 velocity=0 time=8
the msg is note_on channel=0 note=74 velocity=100 time=0
the msg is note_off channel=0 note=76 velocity=0 time=25
the msg is note_on channel=0 note=76 velocity=100 time=0
the msg is note_off channel=0 note=79 velocity=0 time=25
the msg is note_on channel=0 note=79 velocity=100 time=0
the msg is note_off channel=0 note=72 velocity=0 time=12
the msg is note_on channel=0 note=72 velocity=100 time=0
the msg is note_off channel=0 note=72 velocity=0 time=12
the msg is note_on channel=0 note=72 velocity=100 time=0
the msg is note_off channel=0 note=72 velocity=0 time=12
the msg is note_on channel=0 note=72 velocity=100 time=0
the msg is note_off channel=0 note=72 velocity=0 time=25
the msg is note_on channel=0 note=72 velocity=100 time=0
the msg is note_off channel=0 note=72 velocity=0 time=12
the msg is note_on channel=0 note=72 velocity=100 time=0
the msg is note_off channel=0 note=72 velocity=0 time=12
the msg is note_on channel=0 note=72 velocity=100 time=0
the msg is <meta message end_of_track time=51>
the msg is <meta message track_name name='Acoustic Guitar' time=0>
the msg is program_change channel=0 program=24 time=0
the msg is note_off channel=0 note=69 velocity=0 time=0
the msg is pitchwheel channel=0 pitch=0 time=0
the msg is program_change channel=0 program=24 time=0
the msg is <meta message set_tempo tempo=500000 time=0>
the msg is <meta message time_signature numerator=4 denominator=4 clocks_per_click=24 notated_32nd_notes_per_beat=8 time=0>
the msg is note_on channel=0 note=69 velocity=100 time=0
the msg is note_off channel=0 note=72 velocity=0 time=166
the msg is note_on channel=0 note=72 velocity=100 time=0
the msg is note_off channel=0 note=72 velocity=0 time=12
the msg is note_on channel=0 note=72 velocity=100 time=0
the msg is note_off channel=0 note=72 velocity=0 time=12
the msg is note_on channel=0 note=72 velocity=100 time=0
the msg is note_off channel=0 note=72 velocity=0 time=25
the msg is note_on channel=0 note=72 velocity=100 time=0
the msg is note_off channel=0 note=74 velocity=0 time=25
the msg is note_on channel=0 note=74 velocity=100 time=0
the msg is note_off channel=0 note=74 velocity=0 time=12
the msg is note_on channel=0 note=74 velocity=100 time=0
the msg is note_off channel=0 note=71 velocity=0 time=12
the msg is note_on channel=0 note=71 velocity=100 time=0
the msg is note_off channel=0 note=74 velocity=0 time=25
the msg is note_on channel=0 note=74 velocity=100 time=0
the msg is note_off channel=0 note=74 velocity=0 time=12
the msg is note_on channel=0 note=74 velocity=100 time=0
the msg is note_off channel=0 note=71 velocity=0 time=12
the msg is note_on channel=0 note=71 velocity=100 time=0
the msg is note_off channel=0 note=71 velocity=0 time=12
the msg is note_on channel=0 note=71 velocity=100 time=0
the msg is note_off channel=0 note=69 velocity=0 time=12
the msg is note_on channel=0 note=69 velocity=100 time=0
the msg is note_off channel=0 note=72 velocity=0 time=115
the msg is note_on channel=0 note=72 velocity=100 time=0
the msg is note_off channel=0 note=72 velocity=0 time=34
the msg is note_on channel=0 note=72 velocity=100 time=0
the msg is note_off channel=0 note=72 velocity=0 time=4
the msg is note_on channel=0 note=72 velocity=100 time=0
the msg is note_off channel=0 note=72 velocity=0 time=12
the msg is note_on channel=0 note=72 velocity=100 time=0
the msg is note_off channel=0 note=72 velocity=0 time=17
the msg is note_on channel=0 note=72 velocity=100 time=0
the msg is note_off channel=0 note=76 velocity=0 time=17
the msg is note_on channel=0 note=76 velocity=100 time=0
the msg is note_off channel=0 note=79 velocity=0 time=17
the msg is note_on channel=0 note=79 velocity=100 time=0
the msg is note_off channel=0 note=76 velocity=0 time=34
the msg is note_on channel=0 note=76 velocity=100 time=0
the msg is note_off channel=0 note=79 velocity=0 time=17
the msg is note_on channel=0 note=79 velocity=100 time=0
the msg is note_off channel=0 note=79 velocity=0 time=17
the msg is note_on channel=0 note=79 velocity=100 time=0
the msg is note_off channel=0 note=76 velocity=0 time=17
the msg is note_on channel=0 note=76 velocity=100 time=0
the msg is note_off channel=0 note=74 velocity=0 time=4
the msg is note_on channel=0 note=74 velocity=100 time=0
the msg is note_off channel=0 note=72 velocity=0 time=12
the msg is note_on channel=0 note=72 velocity=100 time=0
the msg is note_off channel=0 note=74 velocity=0 time=34
the msg is note_on channel=0 note=74 velocity=100 time=0
the msg is note_off channel=0 note=74 velocity=0 time=17
the msg is note_on channel=0 note=74 velocity=100 time=0
the msg is note_off channel=0 note=74 velocity=0 time=34
the msg is note_on channel=0 note=74 velocity=100 time=0
the msg is note_off channel=0 note=76 velocity=0 time=17
the msg is note_on channel=0 note=76 velocity=100 time=0
the msg is note_off channel=0 note=79 velocity=0 time=34
the msg is note_on channel=0 note=79 velocity=100 time=0
the msg is note_off channel=0 note=79 velocity=0 time=17
the msg is note_off channel=0 note=76 velocity=0 time=0
the msg is note_on channel=0 note=79 velocity=100 time=0
the msg is note_on channel=0 note=76 velocity=100 time=0
the msg is note_off channel=0 note=74 velocity=0 time=25
the msg is note_on channel=0 note=74 velocity=100 time=0
the msg is note_off channel=0 note=72 velocity=0 time=8
the msg is note_on channel=0 note=72 velocity=100 time=0
the msg is note_off channel=0 note=74 velocity=0 time=17
the msg is note_on channel=0 note=74 velocity=100 time=0
the msg is note_off channel=0 note=76 velocity=0 time=34
the msg is note_on channel=0 note=76 velocity=100 time=0
the msg is note_off channel=0 note=72 velocity=0 time=4
the msg is note_on channel=0 note=72 velocity=100 time=0
the msg is note_off channel=0 note=74 velocity=0 time=12
the msg is note_on channel=0 note=74 velocity=100 time=0
the msg is note_off channel=0 note=74 velocity=0 time=34
the msg is note_on channel=0 note=74 velocity=100 time=0
the msg is note_off channel=0 note=74 velocity=0 time=17
the msg is note_on channel=0 note=74 velocity=100 time=0
the msg is note_off channel=0 note=74 velocity=0 time=17
the msg is note_on channel=0 note=74 velocity=100 time=0
the msg is note_off channel=0 note=71 velocity=0 time=17
the msg is note_on channel=0 note=71 velocity=100 time=0
the msg is note_off channel=0 note=74 velocity=0 time=17
the msg is note_on channel=0 note=74 velocity=100 time=0
the msg is note_off channel=0 note=74 velocity=0 time=34
the msg is note_on channel=0 note=74 velocity=100 time=0
the msg is note_off channel=0 note=72 velocity=0 time=4
the msg is note_on channel=0 note=72 velocity=100 time=0
the msg is note_off channel=0 note=74 velocity=0 time=29
the msg is note_on channel=0 note=74 velocity=100 time=0
the msg is note_off channel=0 note=74 velocity=0 time=21
the msg is note_on channel=0 note=74 velocity=100 time=0
the msg is note_off channel=0 note=74 velocity=0 time=12
the msg is note_on channel=0 note=74 velocity=100 time=0
the msg is note_off channel=0 note=71 velocity=0 time=17
the msg is note_on channel=0 note=71 velocity=100 time=0
the msg is note_off channel=0 note=74 velocity=0 time=8
the msg is note_on channel=0 note=74 velocity=100 time=0
the msg is note_off channel=0 note=76 velocity=0 time=25
the msg is note_on channel=0 note=76 velocity=100 time=0
the msg is note_off channel=0 note=79 velocity=0 time=25
the msg is note_on channel=0 note=79 velocity=100 time=0
the msg is note_off channel=0 note=72 velocity=0 time=12
the msg is note_on channel=0 note=72 velocity=100 time=0
the msg is note_off channel=0 note=72 velocity=0 time=12
the msg is note_on channel=0 note=72 velocity=100 time=0
the msg is note_off channel=0 note=72 velocity=0 time=12
the msg is note_on channel=0 note=72 velocity=100 time=0
the msg is note_off channel=0 note=72 velocity=0 time=25
the msg is note_on channel=0 note=72 velocity=100 time=0
the msg is note_off channel=0 note=72 velocity=0 time=12
the msg is note_on channel=0 note=72 velocity=100 time=0
the msg is note_off channel=0 note=72 velocity=0 time=12
the msg is note_on channel=0 note=72 velocity=100 time=0
the msg is <meta message end_of_track time=51>
the msg is <meta message track_name name='Acoustic Guitar' time=0>
the msg is program_change channel=0 program=24 time=0
the msg is note_off channel=0 note=69 velocity=0 time=0
the msg is pitchwheel channel=0 pitch=0 time=0
the msg is program_change channel=0 program=24 time=0
the msg is <meta message set_tempo tempo=500000 time=0>
the msg is <meta message time_signature numerator=4 denominator=4 clocks_per_click=24 notated_32nd_notes_per_beat=8 time=0>
the msg is note_on channel=0 note=69 velocity=100 time=0
the msg is note_off channel=0 note=72 velocity=0 time=166
the msg is note_on channel=0 note=72 velocity=100 time=0
the msg is note_off channel=0 note=72 velocity=0 time=12
the msg is note_on channel=0 note=72 velocity=100 time=0
the msg is note_off channel=0 note=72 velocity=0 time=12
the msg is note_on channel=0 note=72 velocity=100 time=0
the msg is note_off channel=0 note=72 velocity=0 time=25
the msg is note_on channel=0 note=72 velocity=100 time=0
the msg is note_off channel=0 note=74 velocity=0 time=25
the msg is note_on channel=0 note=74 velocity=100 time=0
the msg is note_off channel=0 note=74 velocity=0 time=12
the msg is note_on channel=0 note=74 velocity=100 time=0
the msg is note_off channel=0 note=71 velocity=0 time=12
the msg is note_on channel=0 note=71 velocity=100 time=0
the msg is note_off channel=0 note=74 velocity=0 time=25
the msg is note_on channel=0 note=74 velocity=100 time=0
the msg is note_off channel=0 note=74 velocity=0 time=12
the msg is note_on channel=0 note=74 velocity=100 time=0
the msg is note_off channel=0 note=71 velocity=0 time=12
the msg is note_on channel=0 note=71 velocity=100 time=0
the msg is note_off channel=0 note=71 velocity=0 time=12
the msg is note_on channel=0 note=71 velocity=100 time=0
the msg is note_off channel=0 note=69 velocity=0 time=12
the msg is note_on channel=0 note=69 velocity=100 time=0
the msg is note_off channel=0 note=72 velocity=0 time=115
the msg is note_on channel=0 note=72 velocity=100 time=0
the msg is note_off channel=0 note=72 velocity=0 time=34
the msg is note_on channel=0 note=72 velocity=100 time=0
the msg is note_off channel=0 note=72 velocity=0 time=4
the msg is note_on channel=0 note=72 velocity=100 time=0
the msg is note_off channel=0 note=72 velocity=0 time=12
the msg is note_on channel=0 note=72 velocity=100 time=0
the msg is note_off channel=0 note=72 velocity=0 time=17
the msg is note_on channel=0 note=72 velocity=100 time=0
the msg is note_off channel=0 note=76 velocity=0 time=17
the msg is note_on channel=0 note=76 velocity=100 time=0
the msg is note_off channel=0 note=79 velocity=0 time=17
the msg is note_on channel=0 note=79 velocity=100 time=0
the msg is note_off channel=0 note=76 velocity=0 time=34
the msg is note_on channel=0 note=76 velocity=100 time=0
the msg is note_off channel=0 note=79 velocity=0 time=17
the msg is note_on channel=0 note=79 velocity=100 time=0
the msg is note_off channel=0 note=79 velocity=0 time=17
the msg is note_on channel=0 note=79 velocity=100 time=0
the msg is note_off channel=0 note=76 velocity=0 time=17
the msg is note_on channel=0 note=76 velocity=100 time=0
the msg is note_off channel=0 note=74 velocity=0 time=4
the msg is note_on channel=0 note=74 velocity=100 time=0
the msg is note_off channel=0 note=72 velocity=0 time=12
the msg is note_on channel=0 note=72 velocity=100 time=0
the msg is note_off channel=0 note=74 velocity=0 time=34
the msg is note_on channel=0 note=74 velocity=100 time=0
the msg is note_off channel=0 note=74 velocity=0 time=17
the msg is note_on channel=0 note=74 velocity=100 time=0
the msg is note_off channel=0 note=74 velocity=0 time=34
the msg is note_on channel=0 note=74 velocity=100 time=0
the msg is note_off channel=0 note=76 velocity=0 time=17
the msg is note_on channel=0 note=76 velocity=100 time=0
the msg is note_off channel=0 note=79 velocity=0 time=34
the msg is note_on channel=0 note=79 velocity=100 time=0
the msg is note_off channel=0 note=79 velocity=0 time=17
the msg is note_off channel=0 note=76 velocity=0 time=0
the msg is note_on channel=0 note=79 velocity=100 time=0
the msg is note_on channel=0 note=76 velocity=100 time=0
the msg is note_off channel=0 note=74 velocity=0 time=25
the msg is note_on channel=0 note=74 velocity=100 time=0
the msg is note_off channel=0 note=72 velocity=0 time=8
the msg is note_on channel=0 note=72 velocity=100 time=0
the msg is note_off channel=0 note=74 velocity=0 time=17
the msg is note_on channel=0 note=74 velocity=100 time=0
the msg is note_off channel=0 note=76 velocity=0 time=34
the msg is note_on channel=0 note=76 velocity=100 time=0
the msg is note_off channel=0 note=72 velocity=0 time=4
the msg is note_on channel=0 note=72 velocity=100 time=0
the msg is note_off channel=0 note=74 velocity=0 time=12
the msg is note_on channel=0 note=74 velocity=100 time=0
the msg is note_off channel=0 note=74 velocity=0 time=34
the msg is note_on channel=0 note=74 velocity=100 time=0
the msg is note_off channel=0 note=74 velocity=0 time=17
the msg is note_on channel=0 note=74 velocity=100 time=0
the msg is note_off channel=0 note=74 velocity=0 time=17
the msg is note_on channel=0 note=74 velocity=100 time=0
the msg is note_off channel=0 note=71 velocity=0 time=17
the msg is note_on channel=0 note=71 velocity=100 time=0
the msg is note_off channel=0 note=74 velocity=0 time=17
the msg is note_on channel=0 note=74 velocity=100 time=0
the msg is note_off channel=0 note=74 velocity=0 time=34
the msg is note_on channel=0 note=74 velocity=100 time=0
the msg is note_off channel=0 note=72 velocity=0 time=4
the msg is note_on channel=0 note=72 velocity=100 time=0
the msg is note_off channel=0 note=74 velocity=0 time=29
the msg is note_on channel=0 note=74 velocity=100 time=0
the msg is note_off channel=0 note=74 velocity=0 time=21
the msg is note_on channel=0 note=74 velocity=100 time=0
the msg is note_off channel=0 note=74 velocity=0 time=12
the msg is note_on channel=0 note=74 velocity=100 time=0
the msg is note_off channel=0 note=71 velocity=0 time=17
the msg is note_on channel=0 note=71 velocity=100 time=0
the msg is note_off channel=0 note=74 velocity=0 time=8
the msg is note_on channel=0 note=74 velocity=100 time=0
the msg is note_off channel=0 note=76 velocity=0 time=25
the msg is note_on channel=0 note=76 velocity=100 time=0
the msg is note_off channel=0 note=79 velocity=0 time=25
the msg is note_on channel=0 note=79 velocity=100 time=0
the msg is note_off channel=0 note=72 velocity=0 time=12
the msg is note_on channel=0 note=72 velocity=100 time=0
the msg is note_off channel=0 note=72 velocity=0 time=12
the msg is note_on channel=0 note=72 velocity=100 time=0
the msg is note_off channel=0 note=72 velocity=0 time=12
the msg is note_on channel=0 note=72 velocity=100 time=0
the msg is note_off channel=0 note=72 velocity=0 time=25
the msg is note_on channel=0 note=72 velocity=100 time=0
the msg is note_off channel=0 note=72 velocity=0 time=12
the msg is note_on channel=0 note=72 velocity=100 time=0
the msg is note_off channel=0 note=72 velocity=0 time=12
the msg is note_on channel=0 note=72 velocity=100 time=0
the msg is <meta message end_of_track time=51>
the msg is <meta message track_name name='Acoustic Guitar' time=0>
the msg is program_change channel=0 program=24 time=0
the msg is note_off channel=0 note=69 velocity=0 time=0
the msg is pitchwheel channel=0 pitch=0 time=0
the msg is program_change channel=0 program=24 time=0
the msg is <meta message set_tempo tempo=500000 time=0>
the msg is <meta message time_signature numerator=4 denominator=4 clocks_per_click=24 notated_32nd_notes_per_beat=8 time=0>
the msg is note_on channel=0 note=69 velocity=100 time=0
the msg is note_off channel=0 note=72 velocity=0 time=166
the msg is note_on channel=0 note=72 velocity=100 time=0
the msg is note_off channel=0 note=72 velocity=0 time=12
the msg is note_on channel=0 note=72 velocity=100 time=0
the msg is note_off channel=0 note=72 velocity=0 time=12
the msg is note_on channel=0 note=72 velocity=100 time=0
the msg is note_off channel=0 note=72 velocity=0 time=25
the msg is note_on channel=0 note=72 velocity=100 time=0
the msg is note_off channel=0 note=74 velocity=0 time=25
the msg is note_on channel=0 note=74 velocity=100 time=0
the msg is note_off channel=0 note=74 velocity=0 time=12
the msg is note_on channel=0 note=74 velocity=100 time=0
the msg is note_off channel=0 note=71 velocity=0 time=12
the msg is note_on channel=0 note=71 velocity=100 time=0
the msg is note_off channel=0 note=74 velocity=0 time=25
the msg is note_on channel=0 note=74 velocity=100 time=0
the msg is note_off channel=0 note=74 velocity=0 time=12
the msg is note_on channel=0 note=74 velocity=100 time=0
the msg is note_off channel=0 note=71 velocity=0 time=12
the msg is note_on channel=0 note=71 velocity=100 time=0
the msg is note_off channel=0 note=71 velocity=0 time=12
the msg is note_on channel=0 note=71 velocity=100 time=0
the msg is note_off channel=0 note=69 velocity=0 time=12
the msg is note_on channel=0 note=69 velocity=100 time=0
the msg is note_off channel=0 note=72 velocity=0 time=115
the msg is note_on channel=0 note=72 velocity=100 time=0
the msg is note_off channel=0 note=72 velocity=0 time=34
the msg is note_on channel=0 note=72 velocity=100 time=0
the msg is note_off channel=0 note=72 velocity=0 time=4
the msg is note_on channel=0 note=72 velocity=100 time=0
the msg is note_off channel=0 note=72 velocity=0 time=12
the msg is note_on channel=0 note=72 velocity=100 time=0
the msg is note_off channel=0 note=72 velocity=0 time=17
the msg is note_on channel=0 note=72 velocity=100 time=0
the msg is note_off channel=0 note=76 velocity=0 time=17
the msg is note_on channel=0 note=76 velocity=100 time=0
the msg is note_off channel=0 note=79 velocity=0 time=17
the msg is note_on channel=0 note=79 velocity=100 time=0
the msg is note_off channel=0 note=76 velocity=0 time=34
the msg is note_on channel=0 note=76 velocity=100 time=0
the msg is note_off channel=0 note=79 velocity=0 time=17
the msg is note_on channel=0 note=79 velocity=100 time=0
the msg is note_off channel=0 note=79 velocity=0 time=17
the msg is note_on channel=0 note=79 velocity=100 time=0
the msg is note_off channel=0 note=76 velocity=0 time=17
the msg is note_on channel=0 note=76 velocity=100 time=0
the msg is note_off channel=0 note=74 velocity=0 time=4
the msg is note_on channel=0 note=74 velocity=100 time=0
the msg is note_off channel=0 note=72 velocity=0 time=12
the msg is note_on channel=0 note=72 velocity=100 time=0
the msg is note_off channel=0 note=74 velocity=0 time=34
the msg is note_on channel=0 note=74 velocity=100 time=0
the msg is note_off channel=0 note=74 velocity=0 time=17
the msg is note_on channel=0 note=74 velocity=100 time=0
the msg is note_off channel=0 note=74 velocity=0 time=34
the msg is note_on channel=0 note=74 velocity=100 time=0
the msg is note_off channel=0 note=76 velocity=0 time=17
the msg is note_on channel=0 note=76 velocity=100 time=0
the msg is note_off channel=0 note=79 velocity=0 time=34
the msg is note_on channel=0 note=79 velocity=100 time=0
the msg is note_off channel=0 note=79 velocity=0 time=17
the msg is note_off channel=0 note=76 velocity=0 time=0
the msg is note_on channel=0 note=79 velocity=100 time=0
the msg is note_on channel=0 note=76 velocity=100 time=0
the msg is note_off channel=0 note=74 velocity=0 time=25
the msg is note_on channel=0 note=74 velocity=100 time=0
the msg is note_off channel=0 note=72 velocity=0 time=8
the msg is note_on channel=0 note=72 velocity=100 time=0
the msg is note_off channel=0 note=74 velocity=0 time=17
the msg is note_on channel=0 note=74 velocity=100 time=0
the msg is note_off channel=0 note=76 velocity=0 time=34
the msg is note_on channel=0 note=76 velocity=100 time=0
the msg is note_off channel=0 note=72 velocity=0 time=4
the msg is note_on channel=0 note=72 velocity=100 time=0
the msg is note_off channel=0 note=74 velocity=0 time=12
the msg is note_on channel=0 note=74 velocity=100 time=0
the msg is note_off channel=0 note=74 velocity=0 time=34
the msg is note_on channel=0 note=74 velocity=100 time=0
the msg is note_off channel=0 note=74 velocity=0 time=17
the msg is note_on channel=0 note=74 velocity=100 time=0
the msg is note_off channel=0 note=74 velocity=0 time=17
the msg is note_on channel=0 note=74 velocity=100 time=0
the msg is note_off channel=0 note=71 velocity=0 time=17
the msg is note_on channel=0 note=71 velocity=100 time=0
the msg is note_off channel=0 note=74 velocity=0 time=17
the msg is note_on channel=0 note=74 velocity=100 time=0
the msg is note_off channel=0 note=74 velocity=0 time=34
the msg is note_on channel=0 note=74 velocity=100 time=0
the msg is note_off channel=0 note=72 velocity=0 time=4
the msg is note_on channel=0 note=72 velocity=100 time=0
the msg is note_off channel=0 note=74 velocity=0 time=29
the msg is note_on channel=0 note=74 velocity=100 time=0
the msg is note_off channel=0 note=74 velocity=0 time=21
the msg is note_on channel=0 note=74 velocity=100 time=0
the msg is note_off channel=0 note=74 velocity=0 time=12
the msg is note_on channel=0 note=74 velocity=100 time=0
the msg is note_off channel=0 note=71 velocity=0 time=17
the msg is note_on channel=0 note=71 velocity=100 time=0
the msg is note_off channel=0 note=74 velocity=0 time=8
the msg is note_on channel=0 note=74 velocity=100 time=0
the msg is note_off channel=0 note=76 velocity=0 time=25
the msg is note_on channel=0 note=76 velocity=100 time=0
the msg is note_off channel=0 note=79 velocity=0 time=25
the msg is note_on channel=0 note=79 velocity=100 time=0
the msg is note_off channel=0 note=72 velocity=0 time=12
the msg is note_on channel=0 note=72 velocity=100 time=0
the msg is note_off channel=0 note=72 velocity=0 time=12
the msg is note_on channel=0 note=72 velocity=100 time=0
the msg is note_off channel=0 note=72 velocity=0 time=12
the msg is note_on channel=0 note=72 velocity=100 time=0
the msg is note_off channel=0 note=72 velocity=0 time=25
the msg is note_on channel=0 note=72 velocity=100 time=0
the msg is note_off channel=0 note=72 velocity=0 time=12
the msg is note_on channel=0 note=72 velocity=100 time=0
the msg is note_off channel=0 note=72 velocity=0 time=12
the msg is note_on channel=0 note=72 velocity=100 time=0
the msg is <meta message end_of_track time=51>
the msg is <meta message track_name name='Acoustic Guitar' time=0>
the msg is program_change channel=0 program=24 time=0
the msg is note_off channel=0 note=69 velocity=0 time=0
the msg is pitchwheel channel=0 pitch=0 time=0
the msg is program_change channel=0 program=24 time=0
the msg is <meta message set_tempo tempo=500000 time=0>
the msg is <meta message time_signature numerator=4 denominator=4 clocks_per_click=24 notated_32nd_notes_per_beat=8 time=0>
the msg is note_on channel=0 note=69 velocity=100 time=0
the msg is note_off channel=0 note=72 velocity=0 time=166
the msg is note_on channel=0 note=72 velocity=100 time=0
the msg is note_off channel=0 note=72 velocity=0 time=12
the msg is note_on channel=0 note=72 velocity=100 time=0
the msg is note_off channel=0 note=72 velocity=0 time=12
the msg is note_on channel=0 note=72 velocity=100 time=0
the msg is note_off channel=0 note=72 velocity=0 time=25
the msg is note_on channel=0 note=72 velocity=100 time=0
the msg is note_off channel=0 note=74 velocity=0 time=25
the msg is note_on channel=0 note=74 velocity=100 time=0
the msg is note_off channel=0 note=74 velocity=0 time=12
the msg is note_on channel=0 note=74 velocity=100 time=0
the msg is note_off channel=0 note=71 velocity=0 time=12
the msg is note_on channel=0 note=71 velocity=100 time=0
the msg is note_off channel=0 note=74 velocity=0 time=25
the msg is note_on channel=0 note=74 velocity=100 time=0
the msg is note_off channel=0 note=74 velocity=0 time=12
the msg is note_on channel=0 note=74 velocity=100 time=0
the msg is note_off channel=0 note=71 velocity=0 time=12
the msg is note_on channel=0 note=71 velocity=100 time=0
the msg is note_off channel=0 note=71 velocity=0 time=12
the msg is note_on channel=0 note=71 velocity=100 time=0
the msg is note_off channel=0 note=69 velocity=0 time=12
the msg is note_on channel=0 note=69 velocity=100 time=0
the msg is note_off channel=0 note=72 velocity=0 time=115
the msg is note_on channel=0 note=72 velocity=100 time=0
the msg is note_off channel=0 note=72 velocity=0 time=34
the msg is note_on channel=0 note=72 velocity=100 time=0
the msg is note_off channel=0 note=72 velocity=0 time=4
the msg is note_on channel=0 note=72 velocity=100 time=0
the msg is note_off channel=0 note=72 velocity=0 time=12
the msg is note_on channel=0 note=72 velocity=100 time=0
the msg is note_off channel=0 note=72 velocity=0 time=17
the msg is note_on channel=0 note=72 velocity=100 time=0
the msg is note_off channel=0 note=76 velocity=0 time=17
the msg is note_on channel=0 note=76 velocity=100 time=0
the msg is note_off channel=0 note=79 velocity=0 time=17
the msg is note_on channel=0 note=79 velocity=100 time=0
the msg is note_off channel=0 note=76 velocity=0 time=34
the msg is note_on channel=0 note=76 velocity=100 time=0
the msg is note_off channel=0 note=79 velocity=0 time=17
the msg is note_on channel=0 note=79 velocity=100 time=0
the msg is note_off channel=0 note=79 velocity=0 time=17
the msg is note_on channel=0 note=79 velocity=100 time=0
the msg is note_off channel=0 note=76 velocity=0 time=17
the msg is note_on channel=0 note=76 velocity=100 time=0
the msg is note_off channel=0 note=74 velocity=0 time=4
the msg is note_on channel=0 note=74 velocity=100 time=0
the msg is note_off channel=0 note=72 velocity=0 time=12
the msg is note_on channel=0 note=72 velocity=100 time=0
the msg is note_off channel=0 note=74 velocity=0 time=34
the msg is note_on channel=0 note=74 velocity=100 time=0
the msg is note_off channel=0 note=74 velocity=0 time=17
the msg is note_on channel=0 note=74 velocity=100 time=0
the msg is note_off channel=0 note=74 velocity=0 time=34
the msg is note_on channel=0 note=74 velocity=100 time=0
the msg is note_off channel=0 note=76 velocity=0 time=17
the msg is note_on channel=0 note=76 velocity=100 time=0
the msg is note_off channel=0 note=79 velocity=0 time=34
the msg is note_on channel=0 note=79 velocity=100 time=0
the msg is note_off channel=0 note=79 velocity=0 time=17
the msg is note_off channel=0 note=76 velocity=0 time=0
the msg is note_on channel=0 note=79 velocity=100 time=0
the msg is note_on channel=0 note=76 velocity=100 time=0
the msg is note_off channel=0 note=74 velocity=0 time=25
the msg is note_on channel=0 note=74 velocity=100 time=0
the msg is note_off channel=0 note=72 velocity=0 time=8
the msg is note_on channel=0 note=72 velocity=100 time=0
the msg is note_off channel=0 note=74 velocity=0 time=17
the msg is note_on channel=0 note=74 velocity=100 time=0
the msg is note_off channel=0 note=76 velocity=0 time=34
the msg is note_on channel=0 note=76 velocity=100 time=0
the msg is note_off channel=0 note=72 velocity=0 time=4
the msg is note_on channel=0 note=72 velocity=100 time=0
the msg is note_off channel=0 note=74 velocity=0 time=12
the msg is note_on channel=0 note=74 velocity=100 time=0
the msg is note_off channel=0 note=74 velocity=0 time=34
the msg is note_on channel=0 note=74 velocity=100 time=0
the msg is note_off channel=0 note=74 velocity=0 time=17
the msg is note_on channel=0 note=74 velocity=100 time=0
the msg is note_off channel=0 note=74 velocity=0 time=17
the msg is note_on channel=0 note=74 velocity=100 time=0
the msg is note_off channel=0 note=71 velocity=0 time=17
the msg is note_on channel=0 note=71 velocity=100 time=0
the msg is note_off channel=0 note=74 velocity=0 time=17
the msg is note_on channel=0 note=74 velocity=100 time=0
the msg is note_off channel=0 note=74 velocity=0 time=34
the msg is note_on channel=0 note=74 velocity=100 time=0
the msg is note_off channel=0 note=72 velocity=0 time=4
the msg is note_on channel=0 note=72 velocity=100 time=0
the msg is note_off channel=0 note=74 velocity=0 time=29
the msg is note_on channel=0 note=74 velocity=100 time=0
the msg is note_off channel=0 note=74 velocity=0 time=21
the msg is note_on channel=0 note=74 velocity=100 time=0
the msg is note_off channel=0 note=74 velocity=0 time=12
the msg is note_on channel=0 note=74 velocity=100 time=0
the msg is note_off channel=0 note=71 velocity=0 time=17
the msg is note_on channel=0 note=71 velocity=100 time=0
the msg is note_off channel=0 note=74 velocity=0 time=8
the msg is note_on channel=0 note=74 velocity=100 time=0
the msg is note_off channel=0 note=76 velocity=0 time=25
the msg is note_on channel=0 note=76 velocity=100 time=0
the msg is note_off channel=0 note=79 velocity=0 time=25
the msg is note_on channel=0 note=79 velocity=100 time=0
the msg is note_off channel=0 note=72 velocity=0 time=12
the msg is note_on channel=0 note=72 velocity=100 time=0
the msg is note_off channel=0 note=72 velocity=0 time=12
the msg is note_on channel=0 note=72 velocity=100 time=0
the msg is note_off channel=0 note=72 velocity=0 time=12
the msg is note_on channel=0 note=72 velocity=100 time=0
the msg is note_off channel=0 note=72 velocity=0 time=25
the msg is note_on channel=0 note=72 velocity=100 time=0
the msg is note_off channel=0 note=72 velocity=0 time=12
the msg is note_on channel=0 note=72 velocity=100 time=0
the msg is note_off channel=0 note=72 velocity=0 time=12
the msg is note_on channel=0 note=72 velocity=100 time=0
the msg is <meta message end_of_track time=51>
the msg is <meta message track_name name='Acoustic Guitar' time=0>
the msg is program_change channel=0 program=24 time=0
the msg is note_off channel=0 note=69 velocity=0 time=0
the msg is pitchwheel channel=0 pitch=0 time=0
the msg is program_change channel=0 program=24 time=0
the msg is <meta message set_tempo tempo=500000 time=0>
the msg is <meta message time_signature numerator=4 denominator=4 clocks_per_click=24 notated_32nd_notes_per_beat=8 time=0>
the msg is note_on channel=0 note=69 velocity=100 time=0
the msg is note_off channel=0 note=72 velocity=0 time=166
the msg is note_on channel=0 note=72 velocity=100 time=0
the msg is note_off channel=0 note=72 velocity=0 time=12
the msg is note_on channel=0 note=72 velocity=100 time=0
the msg is note_off channel=0 note=72 velocity=0 time=12
the msg is note_on channel=0 note=72 velocity=100 time=0
the msg is note_off channel=0 note=72 velocity=0 time=25
the msg is note_on channel=0 note=72 velocity=100 time=0
the msg is note_off channel=0 note=74 velocity=0 time=25
the msg is note_on channel=0 note=74 velocity=100 time=0
the msg is note_off channel=0 note=74 velocity=0 time=12
the msg is note_on channel=0 note=74 velocity=100 time=0
the msg is note_off channel=0 note=71 velocity=0 time=12
the msg is note_on channel=0 note=71 velocity=100 time=0
the msg is note_off channel=0 note=74 velocity=0 time=25
the msg is note_on channel=0 note=74 velocity=100 time=0
the msg is note_off channel=0 note=74 velocity=0 time=12
the msg is note_on channel=0 note=74 velocity=100 time=0
the msg is note_off channel=0 note=71 velocity=0 time=12
the msg is note_on channel=0 note=71 velocity=100 time=0
the msg is note_off channel=0 note=71 velocity=0 time=12
the msg is note_on channel=0 note=71 velocity=100 time=0
the msg is note_off channel=0 note=69 velocity=0 time=12
the msg is note_on channel=0 note=69 velocity=100 time=0
the msg is note_off channel=0 note=72 velocity=0 time=115
the msg is note_on channel=0 note=72 velocity=100 time=0
the msg is note_off channel=0 note=72 velocity=0 time=34
the msg is note_on channel=0 note=72 velocity=100 time=0
the msg is note_off channel=0 note=72 velocity=0 time=4
the msg is note_on channel=0 note=72 velocity=100 time=0
the msg is note_off channel=0 note=72 velocity=0 time=12
the msg is note_on channel=0 note=72 velocity=100 time=0
the msg is note_off channel=0 note=72 velocity=0 time=17
the msg is note_on channel=0 note=72 velocity=100 time=0
the msg is note_off channel=0 note=76 velocity=0 time=17
the msg is note_on channel=0 note=76 velocity=100 time=0
the msg is note_off channel=0 note=79 velocity=0 time=17
the msg is note_on channel=0 note=79 velocity=100 time=0
the msg is note_off channel=0 note=76 velocity=0 time=34
the msg is note_on channel=0 note=76 velocity=100 time=0
the msg is note_off channel=0 note=79 velocity=0 time=17
the msg is note_on channel=0 note=79 velocity=100 time=0
the msg is note_off channel=0 note=79 velocity=0 time=17
the msg is note_on channel=0 note=79 velocity=100 time=0
the msg is note_off channel=0 note=76 velocity=0 time=17
the msg is note_on channel=0 note=76 velocity=100 time=0
the msg is note_off channel=0 note=74 velocity=0 time=4
the msg is note_on channel=0 note=74 velocity=100 time=0
the msg is note_off channel=0 note=72 velocity=0 time=12
the msg is note_on channel=0 note=72 velocity=100 time=0
the msg is note_off channel=0 note=74 velocity=0 time=34
the msg is note_on channel=0 note=74 velocity=100 time=0
the msg is note_off channel=0 note=74 velocity=0 time=17
the msg is note_on channel=0 note=74 velocity=100 time=0
the msg is note_off channel=0 note=74 velocity=0 time=34
the msg is note_on channel=0 note=74 velocity=100 time=0
the msg is note_off channel=0 note=76 velocity=0 time=17
the msg is note_on channel=0 note=76 velocity=100 time=0
the msg is note_off channel=0 note=79 velocity=0 time=34
the msg is note_on channel=0 note=79 velocity=100 time=0
the msg is note_off channel=0 note=79 velocity=0 time=17
the msg is note_off channel=0 note=76 velocity=0 time=0
the msg is note_on channel=0 note=79 velocity=100 time=0
the msg is note_on channel=0 note=76 velocity=100 time=0
the msg is note_off channel=0 note=74 velocity=0 time=25
the msg is note_on channel=0 note=74 velocity=100 time=0
the msg is note_off channel=0 note=72 velocity=0 time=8
the msg is note_on channel=0 note=72 velocity=100 time=0
the msg is note_off channel=0 note=74 velocity=0 time=17
the msg is note_on channel=0 note=74 velocity=100 time=0
the msg is note_off channel=0 note=76 velocity=0 time=34
the msg is note_on channel=0 note=76 velocity=100 time=0
the msg is note_off channel=0 note=72 velocity=0 time=4
the msg is note_on channel=0 note=72 velocity=100 time=0
the msg is note_off channel=0 note=74 velocity=0 time=12
the msg is note_on channel=0 note=74 velocity=100 time=0
the msg is note_off channel=0 note=74 velocity=0 time=34
the msg is note_on channel=0 note=74 velocity=100 time=0
the msg is note_off channel=0 note=74 velocity=0 time=17
the msg is note_on channel=0 note=74 velocity=100 time=0
the msg is note_off channel=0 note=74 velocity=0 time=17
the msg is note_on channel=0 note=74 velocity=100 time=0
the msg is note_off channel=0 note=71 velocity=0 time=17
the msg is note_on channel=0 note=71 velocity=100 time=0
the msg is note_off channel=0 note=74 velocity=0 time=17
the msg is note_on channel=0 note=74 velocity=100 time=0
the msg is note_off channel=0 note=74 velocity=0 time=34
the msg is note_on channel=0 note=74 velocity=100 time=0
the msg is note_off channel=0 note=72 velocity=0 time=4
the msg is note_on channel=0 note=72 velocity=100 time=0
the msg is note_off channel=0 note=74 velocity=0 time=29
the msg is note_on channel=0 note=74 velocity=100 time=0
the msg is note_off channel=0 note=74 velocity=0 time=21
the msg is note_on channel=0 note=74 velocity=100 time=0
the msg is note_off channel=0 note=74 velocity=0 time=12
the msg is note_on channel=0 note=74 velocity=100 time=0
the msg is note_off channel=0 note=71 velocity=0 time=17
the msg is note_on channel=0 note=71 velocity=100 time=0
the msg is note_off channel=0 note=74 velocity=0 time=8
the msg is note_on channel=0 note=74 velocity=100 time=0
the msg is note_off channel=0 note=76 velocity=0 time=25
the msg is note_on channel=0 note=76 velocity=100 time=0
the msg is note_off channel=0 note=79 velocity=0 time=25
the msg is note_on channel=0 note=79 velocity=100 time=0
the msg is note_off channel=0 note=72 velocity=0 time=12
the msg is note_on channel=0 note=72 velocity=100 time=0
the msg is note_off channel=0 note=72 velocity=0 time=12
the msg is note_on channel=0 note=72 velocity=100 time=0
the msg is note_off channel=0 note=72 velocity=0 time=12
the msg is note_on channel=0 note=72 velocity=100 time=0
the msg is note_off channel=0 note=72 velocity=0 time=25
the msg is note_on channel=0 note=72 velocity=100 time=0
the msg is note_off channel=0 note=72 velocity=0 time=12
the msg is note_on channel=0 note=72 velocity=100 time=0
the msg is note_off channel=0 note=72 velocity=0 time=12
the msg is note_on channel=0 note=72 velocity=100 time=0
the msg is <meta message end_of_track time=51>
the msg is <meta message track_name name='Acoustic Guitar' time=0>
the msg is program_change channel=0 program=24 time=0
the msg is note_off channel=0 note=69 velocity=0 time=0
the msg is pitchwheel channel=0 pitch=0 time=0
the msg is program_change channel=0 program=24 time=0
the msg is <meta message set_tempo tempo=500000 time=0>
the msg is <meta message time_signature numerator=4 denominator=4 clocks_per_click=24 notated_32nd_notes_per_beat=8 time=0>
the msg is note_on channel=0 note=69 velocity=100 time=0
the msg is note_off channel=0 note=72 velocity=0 time=166
the msg is note_on channel=0 note=72 velocity=100 time=0
the msg is note_off channel=0 note=72 velocity=0 time=12
the msg is note_on channel=0 note=72 velocity=100 time=0
the msg is note_off channel=0 note=72 velocity=0 time=12
the msg is note_on channel=0 note=72 velocity=100 time=0
the msg is note_off channel=0 note=72 velocity=0 time=25
the msg is note_on channel=0 note=72 velocity=100 time=0
the msg is note_off channel=0 note=74 velocity=0 time=25
the msg is note_on channel=0 note=74 velocity=100 time=0
the msg is note_off channel=0 note=74 velocity=0 time=12
the msg is note_on channel=0 note=74 velocity=100 time=0
the msg is note_off channel=0 note=71 velocity=0 time=12
the msg is note_on channel=0 note=71 velocity=100 time=0
the msg is note_off channel=0 note=74 velocity=0 time=25
the msg is note_on channel=0 note=74 velocity=100 time=0
the msg is note_off channel=0 note=74 velocity=0 time=12
the msg is note_on channel=0 note=74 velocity=100 time=0
the msg is note_off channel=0 note=71 velocity=0 time=12
the msg is note_on channel=0 note=71 velocity=100 time=0
the msg is note_off channel=0 note=71 velocity=0 time=12
the msg is note_on channel=0 note=71 velocity=100 time=0
the msg is note_off channel=0 note=69 velocity=0 time=12
the msg is note_on channel=0 note=69 velocity=100 time=0
the msg is note_off channel=0 note=72 velocity=0 time=115
the msg is note_on channel=0 note=72 velocity=100 time=0
the msg is note_off channel=0 note=72 velocity=0 time=34
the msg is note_on channel=0 note=72 velocity=100 time=0
the msg is note_off channel=0 note=72 velocity=0 time=4
the msg is note_on channel=0 note=72 velocity=100 time=0
the msg is note_off channel=0 note=72 velocity=0 time=12
the msg is note_on channel=0 note=72 velocity=100 time=0
the msg is note_off channel=0 note=72 velocity=0 time=17
the msg is note_on channel=0 note=72 velocity=100 time=0
the msg is note_off channel=0 note=76 velocity=0 time=17
the msg is note_on channel=0 note=76 velocity=100 time=0
the msg is note_off channel=0 note=79 velocity=0 time=17
the msg is note_on channel=0 note=79 velocity=100 time=0
the msg is note_off channel=0 note=76 velocity=0 time=34
the msg is note_on channel=0 note=76 velocity=100 time=0
the msg is note_off channel=0 note=79 velocity=0 time=17
the msg is note_on channel=0 note=79 velocity=100 time=0
the msg is note_off channel=0 note=79 velocity=0 time=17
the msg is note_on channel=0 note=79 velocity=100 time=0
the msg is note_off channel=0 note=76 velocity=0 time=17
the msg is note_on channel=0 note=76 velocity=100 time=0
the msg is note_off channel=0 note=74 velocity=0 time=4
the msg is note_on channel=0 note=74 velocity=100 time=0
the msg is note_off channel=0 note=72 velocity=0 time=12
the msg is note_on channel=0 note=72 velocity=100 time=0
the msg is note_off channel=0 note=74 velocity=0 time=34
the msg is note_on channel=0 note=74 velocity=100 time=0
the msg is note_off channel=0 note=74 velocity=0 time=17
the msg is note_on channel=0 note=74 velocity=100 time=0
the msg is note_off channel=0 note=74 velocity=0 time=34
the msg is note_on channel=0 note=74 velocity=100 time=0
the msg is note_off channel=0 note=76 velocity=0 time=17
the msg is note_on channel=0 note=76 velocity=100 time=0
the msg is note_off channel=0 note=79 velocity=0 time=34
the msg is note_on channel=0 note=79 velocity=100 time=0
the msg is note_off channel=0 note=79 velocity=0 time=17
the msg is note_off channel=0 note=76 velocity=0 time=0
the msg is note_on channel=0 note=79 velocity=100 time=0
the msg is note_on channel=0 note=76 velocity=100 time=0
the msg is note_off channel=0 note=74 velocity=0 time=25
the msg is note_on channel=0 note=74 velocity=100 time=0
the msg is note_off channel=0 note=72 velocity=0 time=8
the msg is note_on channel=0 note=72 velocity=100 time=0
the msg is note_off channel=0 note=74 velocity=0 time=17
the msg is note_on channel=0 note=74 velocity=100 time=0
the msg is note_off channel=0 note=76 velocity=0 time=34
the msg is note_on channel=0 note=76 velocity=100 time=0
the msg is note_off channel=0 note=72 velocity=0 time=4
the msg is note_on channel=0 note=72 velocity=100 time=0
the msg is note_off channel=0 note=74 velocity=0 time=12
the msg is note_on channel=0 note=74 velocity=100 time=0
the msg is note_off channel=0 note=74 velocity=0 time=34
the msg is note_on channel=0 note=74 velocity=100 time=0
the msg is note_off channel=0 note=74 velocity=0 time=17
the msg is note_on channel=0 note=74 velocity=100 time=0
the msg is note_off channel=0 note=74 velocity=0 time=17
the msg is note_on channel=0 note=74 velocity=100 time=0
the msg is note_off channel=0 note=71 velocity=0 time=17
the msg is note_on channel=0 note=71 velocity=100 time=0
the msg is note_off channel=0 note=74 velocity=0 time=17
the msg is note_on channel=0 note=74 velocity=100 time=0
the msg is note_off channel=0 note=74 velocity=0 time=34
the msg is note_on channel=0 note=74 velocity=100 time=0
the msg is note_off channel=0 note=72 velocity=0 time=4
the msg is note_on channel=0 note=72 velocity=100 time=0
the msg is note_off channel=0 note=74 velocity=0 time=29
the msg is note_on channel=0 note=74 velocity=100 time=0
the msg is note_off channel=0 note=74 velocity=0 time=21
the msg is note_on channel=0 note=74 velocity=100 time=0
the msg is note_off channel=0 note=74 velocity=0 time=12
the msg is note_on channel=0 note=74 velocity=100 time=0
the msg is note_off channel=0 note=71 velocity=0 time=17
the msg is note_on channel=0 note=71 velocity=100 time=0
the msg is note_off channel=0 note=74 velocity=0 time=8
the msg is note_on channel=0 note=74 velocity=100 time=0
the msg is note_off channel=0 note=76 velocity=0 time=25
the msg is note_on channel=0 note=76 velocity=100 time=0
the msg is note_off channel=0 note=79 velocity=0 time=25
the msg is note_on channel=0 note=79 velocity=100 time=0
the msg is note_off channel=0 note=72 velocity=0 time=12
the msg is note_on channel=0 note=72 velocity=100 time=0
the msg is note_off channel=0 note=72 velocity=0 time=12
the msg is note_on channel=0 note=72 velocity=100 time=0
the msg is note_off channel=0 note=72 velocity=0 time=12
the msg is note_on channel=0 note=72 velocity=100 time=0
the msg is note_off channel=0 note=72 velocity=0 time=25
the msg is note_on channel=0 note=72 velocity=100 time=0
the msg is note_off channel=0 note=72 velocity=0 time=12
the msg is note_on channel=0 note=72 velocity=100 time=0
the msg is note_off channel=0 note=72 velocity=0 time=12
the msg is note_on channel=0 note=72 velocity=100 time=0
the msg is <meta message end_of_track time=51>
the msg is <meta message track_name name='Acoustic Guitar' time=0>
the msg is program_change channel=0 program=24 time=0
the msg is note_off channel=0 note=69 velocity=0 time=0
the msg is pitchwheel channel=0 pitch=0 time=0
the msg is program_change channel=0 program=24 time=0
the msg is <meta message set_tempo tempo=500000 time=0>
the msg is <meta message time_signature numerator=4 denominator=4 clocks_per_click=24 notated_32nd_notes_per_beat=8 time=0>
the msg is note_on channel=0 note=69 velocity=100 time=0
the msg is note_off channel=0 note=72 velocity=0 time=166
the msg is note_on channel=0 note=72 velocity=100 time=0
the msg is note_off channel=0 note=72 velocity=0 time=12
the msg is note_on channel=0 note=72 velocity=100 time=0
the msg is note_off channel=0 note=72 velocity=0 time=12
the msg is note_on channel=0 note=72 velocity=100 time=0
the msg is note_off channel=0 note=72 velocity=0 time=25
the msg is note_on channel=0 note=72 velocity=100 time=0
the msg is note_off channel=0 note=74 velocity=0 time=25
the msg is note_on channel=0 note=74 velocity=100 time=0
the msg is note_off channel=0 note=74 velocity=0 time=12
the msg is note_on channel=0 note=74 velocity=100 time=0
the msg is note_off channel=0 note=71 velocity=0 time=12
the msg is note_on channel=0 note=71 velocity=100 time=0
the msg is note_off channel=0 note=74 velocity=0 time=25
the msg is note_on channel=0 note=74 velocity=100 time=0
the msg is note_off channel=0 note=74 velocity=0 time=12
the msg is note_on channel=0 note=74 velocity=100 time=0
the msg is note_off channel=0 note=71 velocity=0 time=12
the msg is note_on channel=0 note=71 velocity=100 time=0
the msg is note_off channel=0 note=71 velocity=0 time=12
the msg is note_on channel=0 note=71 velocity=100 time=0
the msg is note_off channel=0 note=69 velocity=0 time=12
the msg is note_on channel=0 note=69 velocity=100 time=0
the msg is note_off channel=0 note=72 velocity=0 time=115
the msg is note_on channel=0 note=72 velocity=100 time=0
the msg is note_off channel=0 note=72 velocity=0 time=34
the msg is note_on channel=0 note=72 velocity=100 time=0
the msg is note_off channel=0 note=72 velocity=0 time=4
the msg is note_on channel=0 note=72 velocity=100 time=0
the msg is note_off channel=0 note=72 velocity=0 time=12
the msg is note_on channel=0 note=72 velocity=100 time=0
the msg is note_off channel=0 note=72 velocity=0 time=17
the msg is note_on channel=0 note=72 velocity=100 time=0
the msg is note_off channel=0 note=76 velocity=0 time=17
the msg is note_on channel=0 note=76 velocity=100 time=0
the msg is note_off channel=0 note=79 velocity=0 time=17
the msg is note_on channel=0 note=79 velocity=100 time=0
the msg is note_off channel=0 note=76 velocity=0 time=34
the msg is note_on channel=0 note=76 velocity=100 time=0
the msg is note_off channel=0 note=79 velocity=0 time=17
the msg is note_on channel=0 note=79 velocity=100 time=0
the msg is note_off channel=0 note=79 velocity=0 time=17
the msg is note_on channel=0 note=79 velocity=100 time=0
the msg is note_off channel=0 note=76 velocity=0 time=17
the msg is note_on channel=0 note=76 velocity=100 time=0
the msg is note_off channel=0 note=74 velocity=0 time=4
the msg is note_on channel=0 note=74 velocity=100 time=0
the msg is note_off channel=0 note=72 velocity=0 time=12
the msg is note_on channel=0 note=72 velocity=100 time=0
the msg is note_off channel=0 note=74 velocity=0 time=34
the msg is note_on channel=0 note=74 velocity=100 time=0
the msg is note_off channel=0 note=74 velocity=0 time=17
the msg is note_on channel=0 note=74 velocity=100 time=0
the msg is note_off channel=0 note=74 velocity=0 time=34
the msg is note_on channel=0 note=74 velocity=100 time=0
the msg is note_off channel=0 note=76 velocity=0 time=17
the msg is note_on channel=0 note=76 velocity=100 time=0
the msg is note_off channel=0 note=79 velocity=0 time=34
the msg is note_on channel=0 note=79 velocity=100 time=0
the msg is note_off channel=0 note=79 velocity=0 time=17
the msg is note_off channel=0 note=76 velocity=0 time=0
the msg is note_on channel=0 note=79 velocity=100 time=0
the msg is note_on channel=0 note=76 velocity=100 time=0
the msg is note_off channel=0 note=74 velocity=0 time=25
the msg is note_on channel=0 note=74 velocity=100 time=0
the msg is note_off channel=0 note=72 velocity=0 time=8
the msg is note_on channel=0 note=72 velocity=100 time=0
the msg is note_off channel=0 note=74 velocity=0 time=17
the msg is note_on channel=0 note=74 velocity=100 time=0
the msg is note_off channel=0 note=76 velocity=0 time=34
the msg is note_on channel=0 note=76 velocity=100 time=0
the msg is note_off channel=0 note=72 velocity=0 time=4
the msg is note_on channel=0 note=72 velocity=100 time=0
the msg is note_off channel=0 note=74 velocity=0 time=12
the msg is note_on channel=0 note=74 velocity=100 time=0
the msg is note_off channel=0 note=74 velocity=0 time=34
the msg is note_on channel=0 note=74 velocity=100 time=0
the msg is note_off channel=0 note=74 velocity=0 time=17
the msg is note_on channel=0 note=74 velocity=100 time=0
the msg is note_off channel=0 note=74 velocity=0 time=17
the msg is note_on channel=0 note=74 velocity=100 time=0
the msg is note_off channel=0 note=71 velocity=0 time=17
the msg is note_on channel=0 note=71 velocity=100 time=0
the msg is note_off channel=0 note=74 velocity=0 time=17
the msg is note_on channel=0 note=74 velocity=100 time=0
the msg is note_off channel=0 note=74 velocity=0 time=34
the msg is note_on channel=0 note=74 velocity=100 time=0
the msg is note_off channel=0 note=72 velocity=0 time=4
the msg is note_on channel=0 note=72 velocity=100 time=0
the msg is note_off channel=0 note=74 velocity=0 time=29
the msg is note_on channel=0 note=74 velocity=100 time=0
the msg is note_off channel=0 note=74 velocity=0 time=21
the msg is note_on channel=0 note=74 velocity=100 time=0
the msg is note_off channel=0 note=74 velocity=0 time=12
the msg is note_on channel=0 note=74 velocity=100 time=0
the msg is note_off channel=0 note=71 velocity=0 time=17
the msg is note_on channel=0 note=71 velocity=100 time=0
the msg is note_off channel=0 note=74 velocity=0 time=8
the msg is note_on channel=0 note=74 velocity=100 time=0
the msg is note_off channel=0 note=76 velocity=0 time=25
the msg is note_on channel=0 note=76 velocity=100 time=0
the msg is note_off channel=0 note=79 velocity=0 time=25
the msg is note_on channel=0 note=79 velocity=100 time=0
the msg is note_off channel=0 note=72 velocity=0 time=12
the msg is note_on channel=0 note=72 velocity=100 time=0
the msg is note_off channel=0 note=72 velocity=0 time=12
the msg is note_on channel=0 note=72 velocity=100 time=0
the msg is note_off channel=0 note=72 velocity=0 time=12
the msg is note_on channel=0 note=72 velocity=100 time=0
the msg is note_off channel=0 note=72 velocity=0 time=25
the msg is note_on channel=0 note=72 velocity=100 time=0
the msg is note_off channel=0 note=72 velocity=0 time=12
the msg is note_on channel=0 note=72 velocity=100 time=0
the msg is note_off channel=0 note=72 velocity=0 time=12
the msg is note_on channel=0 note=72 velocity=100 time=0
the msg is <meta message end_of_track time=51>
the msg is <meta message track_name name='Acoustic Guitar' time=0>
the msg is program_change channel=0 program=24 time=0
the msg is note_off channel=0 note=69 velocity=0 time=0
the msg is pitchwheel channel=0 pitch=0 time=0
the msg is program_change channel=0 program=24 time=0
the msg is <meta message set_tempo tempo=500000 time=0>
the msg is <meta message time_signature numerator=4 denominator=4 clocks_per_click=24 notated_32nd_notes_per_beat=8 time=0>
the msg is note_on channel=0 note=69 velocity=100 time=0
the msg is note_off channel=0 note=72 velocity=0 time=166
the msg is note_on channel=0 note=72 velocity=100 time=0
the msg is note_off channel=0 note=72 velocity=0 time=12
the msg is note_on channel=0 note=72 velocity=100 time=0
the msg is note_off channel=0 note=72 velocity=0 time=12
the msg is note_on channel=0 note=72 velocity=100 time=0
the msg is note_off channel=0 note=72 velocity=0 time=25
the msg is note_on channel=0 note=72 velocity=100 time=0
the msg is note_off channel=0 note=74 velocity=0 time=25
the msg is note_on channel=0 note=74 velocity=100 time=0
the msg is note_off channel=0 note=74 velocity=0 time=12
the msg is note_on channel=0 note=74 velocity=100 time=0
the msg is note_off channel=0 note=71 velocity=0 time=12
the msg is note_on channel=0 note=71 velocity=100 time=0
the msg is note_off channel=0 note=74 velocity=0 time=25
the msg is note_on channel=0 note=74 velocity=100 time=0
the msg is note_off channel=0 note=74 velocity=0 time=12
the msg is note_on channel=0 note=74 velocity=100 time=0
the msg is note_off channel=0 note=71 velocity=0 time=12
the msg is note_on channel=0 note=71 velocity=100 time=0
the msg is note_off channel=0 note=71 velocity=0 time=12
the msg is note_on channel=0 note=71 velocity=100 time=0
the msg is note_off channel=0 note=69 velocity=0 time=12
the msg is note_on channel=0 note=69 velocity=100 time=0
the msg is note_off channel=0 note=72 velocity=0 time=115
the msg is note_on channel=0 note=72 velocity=100 time=0
the msg is note_off channel=0 note=72 velocity=0 time=34
the msg is note_on channel=0 note=72 velocity=100 time=0
the msg is note_off channel=0 note=72 velocity=0 time=4
the msg is note_on channel=0 note=72 velocity=100 time=0
the msg is note_off channel=0 note=72 velocity=0 time=12
the msg is note_on channel=0 note=72 velocity=100 time=0
the msg is note_off channel=0 note=72 velocity=0 time=17
the msg is note_on channel=0 note=72 velocity=100 time=0
the msg is note_off channel=0 note=76 velocity=0 time=17
the msg is note_on channel=0 note=76 velocity=100 time=0
the msg is note_off channel=0 note=79 velocity=0 time=17
the msg is note_on channel=0 note=79 velocity=100 time=0
the msg is note_off channel=0 note=76 velocity=0 time=34
the msg is note_on channel=0 note=76 velocity=100 time=0
the msg is note_off channel=0 note=79 velocity=0 time=17
the msg is note_on channel=0 note=79 velocity=100 time=0
the msg is note_off channel=0 note=79 velocity=0 time=17
the msg is note_on channel=0 note=79 velocity=100 time=0
the msg is note_off channel=0 note=76 velocity=0 time=17
the msg is note_on channel=0 note=76 velocity=100 time=0
the msg is note_off channel=0 note=74 velocity=0 time=4
the msg is note_on channel=0 note=74 velocity=100 time=0
the msg is note_off channel=0 note=72 velocity=0 time=12
the msg is note_on channel=0 note=72 velocity=100 time=0
the msg is note_off channel=0 note=74 velocity=0 time=34
the msg is note_on channel=0 note=74 velocity=100 time=0
the msg is note_off channel=0 note=74 velocity=0 time=17
the msg is note_on channel=0 note=74 velocity=100 time=0
the msg is note_off channel=0 note=74 velocity=0 time=34
the msg is note_on channel=0 note=74 velocity=100 time=0
the msg is note_off channel=0 note=76 velocity=0 time=17
the msg is note_on channel=0 note=76 velocity=100 time=0
the msg is note_off channel=0 note=79 velocity=0 time=34
the msg is note_on channel=0 note=79 velocity=100 time=0
the msg is note_off channel=0 note=79 velocity=0 time=17
the msg is note_off channel=0 note=76 velocity=0 time=0
the msg is note_on channel=0 note=79 velocity=100 time=0
the msg is note_on channel=0 note=76 velocity=100 time=0
the msg is note_off channel=0 note=74 velocity=0 time=25
the msg is note_on channel=0 note=74 velocity=100 time=0
the msg is note_off channel=0 note=72 velocity=0 time=8
the msg is note_on channel=0 note=72 velocity=100 time=0
the msg is note_off channel=0 note=74 velocity=0 time=17
the msg is note_on channel=0 note=74 velocity=100 time=0
the msg is note_off channel=0 note=76 velocity=0 time=34
the msg is note_on channel=0 note=76 velocity=100 time=0
the msg is note_off channel=0 note=72 velocity=0 time=4
the msg is note_on channel=0 note=72 velocity=100 time=0
the msg is note_off channel=0 note=74 velocity=0 time=12
the msg is note_on channel=0 note=74 velocity=100 time=0
the msg is note_off channel=0 note=74 velocity=0 time=34
the msg is note_on channel=0 note=74 velocity=100 time=0
the msg is note_off channel=0 note=74 velocity=0 time=17
the msg is note_on channel=0 note=74 velocity=100 time=0
the msg is note_off channel=0 note=74 velocity=0 time=17
the msg is note_on channel=0 note=74 velocity=100 time=0
the msg is note_off channel=0 note=71 velocity=0 time=17
the msg is note_on channel=0 note=71 velocity=100 time=0
the msg is note_off channel=0 note=74 velocity=0 time=17
the msg is note_on channel=0 note=74 velocity=100 time=0
the msg is note_off channel=0 note=74 velocity=0 time=34
the msg is note_on channel=0 note=74 velocity=100 time=0
the msg is note_off channel=0 note=72 velocity=0 time=4
the msg is note_on channel=0 note=72 velocity=100 time=0
the msg is note_off channel=0 note=74 velocity=0 time=29
the msg is note_on channel=0 note=74 velocity=100 time=0
the msg is note_off channel=0 note=74 velocity=0 time=21
the msg is note_on channel=0 note=74 velocity=100 time=0
the msg is note_off channel=0 note=74 velocity=0 time=12
the msg is note_on channel=0 note=74 velocity=100 time=0
the msg is note_off channel=0 note=71 velocity=0 time=17
the msg is note_on channel=0 note=71 velocity=100 time=0
the msg is note_off channel=0 note=74 velocity=0 time=8
the msg is note_on channel=0 note=74 velocity=100 time=0
the msg is note_off channel=0 note=76 velocity=0 time=25
the msg is note_on channel=0 note=76 velocity=100 time=0
the msg is note_off channel=0 note=79 velocity=0 time=25
the msg is note_on channel=0 note=79 velocity=100 time=0
the msg is note_off channel=0 note=72 velocity=0 time=12
the msg is note_on channel=0 note=72 velocity=100 time=0
the msg is note_off channel=0 note=72 velocity=0 time=12
the msg is note_on channel=0 note=72 velocity=100 time=0
the msg is note_off channel=0 note=72 velocity=0 time=12
the msg is note_on channel=0 note=72 velocity=100 time=0
the msg is note_off channel=0 note=72 velocity=0 time=25
the msg is note_on channel=0 note=72 velocity=100 time=0
the msg is note_off channel=0 note=72 velocity=0 time=12
the msg is note_on channel=0 note=72 velocity=100 time=0
the msg is note_off channel=0 note=72 velocity=0 time=12
the msg is note_on channel=0 note=72 velocity=100 time=0
the msg is <meta message end_of_track time=51>
the msg is <meta message track_name name='Acoustic Guitar' time=0>
the msg is program_change channel=0 program=24 time=0
the msg is note_off channel=0 note=69 velocity=0 time=0
the msg is pitchwheel channel=0 pitch=0 time=0
the msg is program_change channel=0 program=24 time=0
the msg is <meta message set_tempo tempo=500000 time=0>
the msg is <meta message time_signature numerator=4 denominator=4 clocks_per_click=24 notated_32nd_notes_per_beat=8 time=0>
the msg is note_on channel=0 note=69 velocity=100 time=0
the msg is note_off channel=0 note=72 velocity=0 time=166
the msg is note_on channel=0 note=72 velocity=100 time=0
the msg is note_off channel=0 note=72 velocity=0 time=12
the msg is note_on channel=0 note=72 velocity=100 time=0
the msg is note_off channel=0 note=72 velocity=0 time=12
the msg is note_on channel=0 note=72 velocity=100 time=0
the msg is note_off channel=0 note=72 velocity=0 time=25
the msg is note_on channel=0 note=72 velocity=100 time=0
the msg is note_off channel=0 note=74 velocity=0 time=25
the msg is note_on channel=0 note=74 velocity=100 time=0
the msg is note_off channel=0 note=74 velocity=0 time=12
the msg is note_on channel=0 note=74 velocity=100 time=0
the msg is note_off channel=0 note=71 velocity=0 time=12
the msg is note_on channel=0 note=71 velocity=100 time=0
the msg is note_off channel=0 note=74 velocity=0 time=25
the msg is note_on channel=0 note=74 velocity=100 time=0
the msg is note_off channel=0 note=74 velocity=0 time=12
the msg is note_on channel=0 note=74 velocity=100 time=0
the msg is note_off channel=0 note=71 velocity=0 time=12
the msg is note_on channel=0 note=71 velocity=100 time=0
the msg is note_off channel=0 note=71 velocity=0 time=12
the msg is note_on channel=0 note=71 velocity=100 time=0
the msg is note_off channel=0 note=69 velocity=0 time=12
the msg is note_on channel=0 note=69 velocity=100 time=0
the msg is note_off channel=0 note=72 velocity=0 time=115
the msg is note_on channel=0 note=72 velocity=100 time=0
the msg is note_off channel=0 note=72 velocity=0 time=34
the msg is note_on channel=0 note=72 velocity=100 time=0
the msg is note_off channel=0 note=72 velocity=0 time=4
the msg is note_on channel=0 note=72 velocity=100 time=0
the msg is note_off channel=0 note=72 velocity=0 time=12
the msg is note_on channel=0 note=72 velocity=100 time=0
the msg is note_off channel=0 note=72 velocity=0 time=17
the msg is note_on channel=0 note=72 velocity=100 time=0
the msg is note_off channel=0 note=76 velocity=0 time=17
the msg is note_on channel=0 note=76 velocity=100 time=0
the msg is note_off channel=0 note=79 velocity=0 time=17
the msg is note_on channel=0 note=79 velocity=100 time=0
the msg is note_off channel=0 note=76 velocity=0 time=34
the msg is note_on channel=0 note=76 velocity=100 time=0
the msg is note_off channel=0 note=79 velocity=0 time=17
the msg is note_on channel=0 note=79 velocity=100 time=0
the msg is note_off channel=0 note=79 velocity=0 time=17
the msg is note_on channel=0 note=79 velocity=100 time=0
the msg is note_off channel=0 note=76 velocity=0 time=17
the msg is note_on channel=0 note=76 velocity=100 time=0
the msg is note_off channel=0 note=74 velocity=0 time=4
the msg is note_on channel=0 note=74 velocity=100 time=0
the msg is note_off channel=0 note=72 velocity=0 time=12
the msg is note_on channel=0 note=72 velocity=100 time=0
the msg is note_off channel=0 note=74 velocity=0 time=34
the msg is note_on channel=0 note=74 velocity=100 time=0
the msg is note_off channel=0 note=74 velocity=0 time=17
the msg is note_on channel=0 note=74 velocity=100 time=0
the msg is note_off channel=0 note=74 velocity=0 time=34
the msg is note_on channel=0 note=74 velocity=100 time=0
the msg is note_off channel=0 note=76 velocity=0 time=17
the msg is note_on channel=0 note=76 velocity=100 time=0
the msg is note_off channel=0 note=79 velocity=0 time=34
the msg is note_on channel=0 note=79 velocity=100 time=0
the msg is note_off channel=0 note=79 velocity=0 time=17
the msg is note_off channel=0 note=76 velocity=0 time=0
the msg is note_on channel=0 note=79 velocity=100 time=0
the msg is note_on channel=0 note=76 velocity=100 time=0
the msg is note_off channel=0 note=74 velocity=0 time=25
the msg is note_on channel=0 note=74 velocity=100 time=0
the msg is note_off channel=0 note=72 velocity=0 time=8
the msg is note_on channel=0 note=72 velocity=100 time=0
the msg is note_off channel=0 note=74 velocity=0 time=17
the msg is note_on channel=0 note=74 velocity=100 time=0
the msg is note_off channel=0 note=76 velocity=0 time=34
the msg is note_on channel=0 note=76 velocity=100 time=0
the msg is note_off channel=0 note=72 velocity=0 time=4
the msg is note_on channel=0 note=72 velocity=100 time=0
the msg is note_off channel=0 note=74 velocity=0 time=12
the msg is note_on channel=0 note=74 velocity=100 time=0
the msg is note_off channel=0 note=74 velocity=0 time=34
the msg is note_on channel=0 note=74 velocity=100 time=0
the msg is note_off channel=0 note=74 velocity=0 time=17
the msg is note_on channel=0 note=74 velocity=100 time=0
the msg is note_off channel=0 note=74 velocity=0 time=17
the msg is note_on channel=0 note=74 velocity=100 time=0
the msg is note_off channel=0 note=71 velocity=0 time=17
the msg is note_on channel=0 note=71 velocity=100 time=0
the msg is note_off channel=0 note=74 velocity=0 time=17
the msg is note_on channel=0 note=74 velocity=100 time=0
the msg is note_off channel=0 note=74 velocity=0 time=34
the msg is note_on channel=0 note=74 velocity=100 time=0
the msg is note_off channel=0 note=72 velocity=0 time=4
the msg is note_on channel=0 note=72 velocity=100 time=0
the msg is note_off channel=0 note=74 velocity=0 time=29
the msg is note_on channel=0 note=74 velocity=100 time=0
the msg is note_off channel=0 note=74 velocity=0 time=21
the msg is note_on channel=0 note=74 velocity=100 time=0
the msg is note_off channel=0 note=74 velocity=0 time=12
the msg is note_on channel=0 note=74 velocity=100 time=0
the msg is note_off channel=0 note=71 velocity=0 time=17
the msg is note_on channel=0 note=71 velocity=100 time=0
the msg is note_off channel=0 note=74 velocity=0 time=8
the msg is note_on channel=0 note=74 velocity=100 time=0
the msg is note_off channel=0 note=76 velocity=0 time=25
the msg is note_on channel=0 note=76 velocity=100 time=0
the msg is note_off channel=0 note=79 velocity=0 time=25
the msg is note_on channel=0 note=79 velocity=100 time=0
the msg is note_off channel=0 note=72 velocity=0 time=12
the msg is note_on channel=0 note=72 velocity=100 time=0
the msg is note_off channel=0 note=72 velocity=0 time=12
the msg is note_on channel=0 note=72 velocity=100 time=0
the msg is note_off channel=0 note=72 velocity=0 time=12
the msg is note_on channel=0 note=72 velocity=100 time=0
the msg is note_off channel=0 note=72 velocity=0 time=25
the msg is note_on channel=0 note=72 velocity=100 time=0
the msg is note_off channel=0 note=72 velocity=0 time=12
the msg is note_on channel=0 note=72 velocity=100 time=0
the msg is note_off channel=0 note=72 velocity=0 time=12
the msg is note_on channel=0 note=72 velocity=100 time=0
the msg is <meta message end_of_track time=51>
the msg is <meta message track_name name='Acoustic Guitar' time=0>
the msg is program_change channel=0 program=24 time=0
the msg is note_off channel=0 note=69 velocity=0 time=0
the msg is pitchwheel channel=0 pitch=0 time=0
the msg is program_change channel=0 program=24 time=0
the msg is <meta message set_tempo tempo=500000 time=0>
the msg is <meta message time_signature numerator=4 denominator=4 clocks_per_click=24 notated_32nd_notes_per_beat=8 time=0>
the msg is note_on channel=0 note=69 velocity=100 time=0
the msg is note_off channel=0 note=72 velocity=0 time=166
the msg is note_on channel=0 note=72 velocity=100 time=0
the msg is note_off channel=0 note=72 velocity=0 time=12
the msg is note_on channel=0 note=72 velocity=100 time=0
the msg is note_off channel=0 note=72 velocity=0 time=12
the msg is note_on channel=0 note=72 velocity=100 time=0
the msg is note_off channel=0 note=72 velocity=0 time=25
the msg is note_on channel=0 note=72 velocity=100 time=0
the msg is note_off channel=0 note=74 velocity=0 time=25
the msg is note_on channel=0 note=74 velocity=100 time=0
the msg is note_off channel=0 note=74 velocity=0 time=12
the msg is note_on channel=0 note=74 velocity=100 time=0
the msg is note_off channel=0 note=71 velocity=0 time=12
the msg is note_on channel=0 note=71 velocity=100 time=0
the msg is note_off channel=0 note=74 velocity=0 time=25
the msg is note_on channel=0 note=74 velocity=100 time=0
the msg is note_off channel=0 note=74 velocity=0 time=12
the msg is note_on channel=0 note=74 velocity=100 time=0
the msg is note_off channel=0 note=71 velocity=0 time=12
the msg is note_on channel=0 note=71 velocity=100 time=0
the msg is note_off channel=0 note=71 velocity=0 time=12
the msg is note_on channel=0 note=71 velocity=100 time=0
the msg is note_off channel=0 note=69 velocity=0 time=12
the msg is note_on channel=0 note=69 velocity=100 time=0
the msg is note_off channel=0 note=72 velocity=0 time=115
the msg is note_on channel=0 note=72 velocity=100 time=0
the msg is note_off channel=0 note=72 velocity=0 time=34
the msg is note_on channel=0 note=72 velocity=100 time=0
the msg is note_off channel=0 note=72 velocity=0 time=4
the msg is note_on channel=0 note=72 velocity=100 time=0
the msg is note_off channel=0 note=72 velocity=0 time=12
the msg is note_on channel=0 note=72 velocity=100 time=0
the msg is note_off channel=0 note=72 velocity=0 time=17
the msg is note_on channel=0 note=72 velocity=100 time=0
the msg is note_off channel=0 note=76 velocity=0 time=17
the msg is note_on channel=0 note=76 velocity=100 time=0
the msg is note_off channel=0 note=79 velocity=0 time=17
the msg is note_on channel=0 note=79 velocity=100 time=0
the msg is note_off channel=0 note=76 velocity=0 time=34
the msg is note_on channel=0 note=76 velocity=100 time=0
the msg is note_off channel=0 note=79 velocity=0 time=17
the msg is note_on channel=0 note=79 velocity=100 time=0
the msg is note_off channel=0 note=79 velocity=0 time=17
the msg is note_on channel=0 note=79 velocity=100 time=0
the msg is note_off channel=0 note=76 velocity=0 time=17
the msg is note_on channel=0 note=76 velocity=100 time=0
the msg is note_off channel=0 note=74 velocity=0 time=4
the msg is note_on channel=0 note=74 velocity=100 time=0
the msg is note_off channel=0 note=72 velocity=0 time=12
the msg is note_on channel=0 note=72 velocity=100 time=0
the msg is note_off channel=0 note=74 velocity=0 time=34
the msg is note_on channel=0 note=74 velocity=100 time=0
the msg is note_off channel=0 note=74 velocity=0 time=17
the msg is note_on channel=0 note=74 velocity=100 time=0
the msg is note_off channel=0 note=74 velocity=0 time=34
the msg is note_on channel=0 note=74 velocity=100 time=0
the msg is note_off channel=0 note=76 velocity=0 time=17
the msg is note_on channel=0 note=76 velocity=100 time=0
the msg is note_off channel=0 note=79 velocity=0 time=34
the msg is note_on channel=0 note=79 velocity=100 time=0
the msg is note_off channel=0 note=79 velocity=0 time=17
the msg is note_off channel=0 note=76 velocity=0 time=0
the msg is note_on channel=0 note=79 velocity=100 time=0
the msg is note_on channel=0 note=76 velocity=100 time=0
the msg is note_off channel=0 note=74 velocity=0 time=25
the msg is note_on channel=0 note=74 velocity=100 time=0
the msg is note_off channel=0 note=72 velocity=0 time=8
the msg is note_on channel=0 note=72 velocity=100 time=0
the msg is note_off channel=0 note=74 velocity=0 time=17
the msg is note_on channel=0 note=74 velocity=100 time=0
the msg is note_off channel=0 note=76 velocity=0 time=34
the msg is note_on channel=0 note=76 velocity=100 time=0
the msg is note_off channel=0 note=72 velocity=0 time=4
the msg is note_on channel=0 note=72 velocity=100 time=0
the msg is note_off channel=0 note=74 velocity=0 time=12
the msg is note_on channel=0 note=74 velocity=100 time=0
the msg is note_off channel=0 note=74 velocity=0 time=34
the msg is note_on channel=0 note=74 velocity=100 time=0
the msg is note_off channel=0 note=74 velocity=0 time=17
the msg is note_on channel=0 note=74 velocity=100 time=0
the msg is note_off channel=0 note=74 velocity=0 time=17
the msg is note_on channel=0 note=74 velocity=100 time=0
the msg is note_off channel=0 note=71 velocity=0 time=17
the msg is note_on channel=0 note=71 velocity=100 time=0
the msg is note_off channel=0 note=74 velocity=0 time=17
the msg is note_on channel=0 note=74 velocity=100 time=0
the msg is note_off channel=0 note=74 velocity=0 time=34
the msg is note_on channel=0 note=74 velocity=100 time=0
the msg is note_off channel=0 note=72 velocity=0 time=4
the msg is note_on channel=0 note=72 velocity=100 time=0
the msg is note_off channel=0 note=74 velocity=0 time=29
the msg is note_on channel=0 note=74 velocity=100 time=0
the msg is note_off channel=0 note=74 velocity=0 time=21
the msg is note_on channel=0 note=74 velocity=100 time=0
the msg is note_off channel=0 note=74 velocity=0 time=12
the msg is note_on channel=0 note=74 velocity=100 time=0
the msg is note_off channel=0 note=71 velocity=0 time=17
the msg is note_on channel=0 note=71 velocity=100 time=0
the msg is note_off channel=0 note=74 velocity=0 time=8
the msg is note_on channel=0 note=74 velocity=100 time=0
the msg is note_off channel=0 note=76 velocity=0 time=25
the msg is note_on channel=0 note=76 velocity=100 time=0
the msg is note_off channel=0 note=79 velocity=0 time=25
the msg is note_on channel=0 note=79 velocity=100 time=0
the msg is note_off channel=0 note=72 velocity=0 time=12
the msg is note_on channel=0 note=72 velocity=100 time=0
the msg is note_off channel=0 note=72 velocity=0 time=12
the msg is note_on channel=0 note=72 velocity=100 time=0
the msg is note_off channel=0 note=72 velocity=0 time=12
the msg is note_on channel=0 note=72 velocity=100 time=0
the msg is note_off channel=0 note=72 velocity=0 time=25
the msg is note_on channel=0 note=72 velocity=100 time=0
the msg is note_off channel=0 note=72 velocity=0 time=12
the msg is note_on channel=0 note=72 velocity=100 time=0
the msg is note_off channel=0 note=72 velocity=0 time=12
the msg is note_on channel=0 note=72 velocity=100 time=0
the msg is <meta message end_of_track time=51>
the msg is <meta message track_name name='Acoustic Guitar' time=0>
the msg is program_change channel=0 program=24 time=0
the msg is note_off channel=0 note=69 velocity=0 time=0
the msg is pitchwheel channel=0 pitch=0 time=0
the msg is program_change channel=0 program=24 time=0
the msg is <meta message set_tempo tempo=500000 time=0>
the msg is <meta message time_signature numerator=4 denominator=4 clocks_per_click=24 notated_32nd_notes_per_beat=8 time=0>
the msg is note_on channel=0 note=69 velocity=100 time=0
the msg is note_off channel=0 note=72 velocity=0 time=166
the msg is note_on channel=0 note=72 velocity=100 time=0
the msg is note_off channel=0 note=72 velocity=0 time=12
the msg is note_on channel=0 note=72 velocity=100 time=0
the msg is note_off channel=0 note=72 velocity=0 time=12
the msg is note_on channel=0 note=72 velocity=100 time=0
the msg is note_off channel=0 note=72 velocity=0 time=25
the msg is note_on channel=0 note=72 velocity=100 time=0
the msg is note_off channel=0 note=74 velocity=0 time=25
the msg is note_on channel=0 note=74 velocity=100 time=0
the msg is note_off channel=0 note=74 velocity=0 time=12
the msg is note_on channel=0 note=74 velocity=100 time=0
the msg is note_off channel=0 note=71 velocity=0 time=12
the msg is note_on channel=0 note=71 velocity=100 time=0
the msg is note_off channel=0 note=74 velocity=0 time=25
the msg is note_on channel=0 note=74 velocity=100 time=0
the msg is note_off channel=0 note=74 velocity=0 time=12
the msg is note_on channel=0 note=74 velocity=100 time=0
the msg is note_off channel=0 note=71 velocity=0 time=12
the msg is note_on channel=0 note=71 velocity=100 time=0
the msg is note_off channel=0 note=71 velocity=0 time=12
the msg is note_on channel=0 note=71 velocity=100 time=0
the msg is note_off channel=0 note=69 velocity=0 time=12
the msg is note_on channel=0 note=69 velocity=100 time=0
the msg is note_off channel=0 note=72 velocity=0 time=115
the msg is note_on channel=0 note=72 velocity=100 time=0
the msg is note_off channel=0 note=72 velocity=0 time=34
the msg is note_on channel=0 note=72 velocity=100 time=0
the msg is note_off channel=0 note=72 velocity=0 time=4
the msg is note_on channel=0 note=72 velocity=100 time=0
the msg is note_off channel=0 note=72 velocity=0 time=12
the msg is note_on channel=0 note=72 velocity=100 time=0
the msg is note_off channel=0 note=72 velocity=0 time=17
the msg is note_on channel=0 note=72 velocity=100 time=0
the msg is note_off channel=0 note=76 velocity=0 time=17
the msg is note_on channel=0 note=76 velocity=100 time=0
the msg is note_off channel=0 note=79 velocity=0 time=17
the msg is note_on channel=0 note=79 velocity=100 time=0
the msg is note_off channel=0 note=76 velocity=0 time=34
the msg is note_on channel=0 note=76 velocity=100 time=0
the msg is note_off channel=0 note=79 velocity=0 time=17
the msg is note_on channel=0 note=79 velocity=100 time=0
the msg is note_off channel=0 note=79 velocity=0 time=17
the msg is note_on channel=0 note=79 velocity=100 time=0
the msg is note_off channel=0 note=76 velocity=0 time=17
the msg is note_on channel=0 note=76 velocity=100 time=0
the msg is note_off channel=0 note=74 velocity=0 time=4
the msg is note_on channel=0 note=74 velocity=100 time=0
the msg is note_off channel=0 note=72 velocity=0 time=12
the msg is note_on channel=0 note=72 velocity=100 time=0
the msg is note_off channel=0 note=74 velocity=0 time=34
the msg is note_on channel=0 note=74 velocity=100 time=0
the msg is note_off channel=0 note=74 velocity=0 time=17
the msg is note_on channel=0 note=74 velocity=100 time=0
the msg is note_off channel=0 note=74 velocity=0 time=34
the msg is note_on channel=0 note=74 velocity=100 time=0
the msg is note_off channel=0 note=76 velocity=0 time=17
the msg is note_on channel=0 note=76 velocity=100 time=0
the msg is note_off channel=0 note=79 velocity=0 time=34
the msg is note_on channel=0 note=79 velocity=100 time=0
the msg is note_off channel=0 note=79 velocity=0 time=17
the msg is note_off channel=0 note=76 velocity=0 time=0
the msg is note_on channel=0 note=79 velocity=100 time=0
the msg is note_on channel=0 note=76 velocity=100 time=0
the msg is note_off channel=0 note=74 velocity=0 time=25
the msg is note_on channel=0 note=74 velocity=100 time=0
the msg is note_off channel=0 note=72 velocity=0 time=8
the msg is note_on channel=0 note=72 velocity=100 time=0
the msg is note_off channel=0 note=74 velocity=0 time=17
the msg is note_on channel=0 note=74 velocity=100 time=0
the msg is note_off channel=0 note=76 velocity=0 time=34
the msg is note_on channel=0 note=76 velocity=100 time=0
the msg is note_off channel=0 note=72 velocity=0 time=4
the msg is note_on channel=0 note=72 velocity=100 time=0
the msg is note_off channel=0 note=74 velocity=0 time=12
the msg is note_on channel=0 note=74 velocity=100 time=0
the msg is note_off channel=0 note=74 velocity=0 time=34
the msg is note_on channel=0 note=74 velocity=100 time=0
the msg is note_off channel=0 note=74 velocity=0 time=17
the msg is note_on channel=0 note=74 velocity=100 time=0
the msg is note_off channel=0 note=74 velocity=0 time=17
the msg is note_on channel=0 note=74 velocity=100 time=0
the msg is note_off channel=0 note=71 velocity=0 time=17
the msg is note_on channel=0 note=71 velocity=100 time=0
the msg is note_off channel=0 note=74 velocity=0 time=17
the msg is note_on channel=0 note=74 velocity=100 time=0
the msg is note_off channel=0 note=74 velocity=0 time=34
the msg is note_on channel=0 note=74 velocity=100 time=0
the msg is note_off channel=0 note=72 velocity=0 time=4
the msg is note_on channel=0 note=72 velocity=100 time=0
the msg is note_off channel=0 note=74 velocity=0 time=29
the msg is note_on channel=0 note=74 velocity=100 time=0
the msg is note_off channel=0 note=74 velocity=0 time=21
the msg is note_on channel=0 note=74 velocity=100 time=0
the msg is note_off channel=0 note=74 velocity=0 time=12
the msg is note_on channel=0 note=74 velocity=100 time=0
the msg is note_off channel=0 note=71 velocity=0 time=17
the msg is note_on channel=0 note=71 velocity=100 time=0
the msg is note_off channel=0 note=74 velocity=0 time=8
the msg is note_on channel=0 note=74 velocity=100 time=0
the msg is note_off channel=0 note=76 velocity=0 time=25
the msg is note_on channel=0 note=76 velocity=100 time=0
the msg is note_off channel=0 note=79 velocity=0 time=25
the msg is note_on channel=0 note=79 velocity=100 time=0
the msg is note_off channel=0 note=72 velocity=0 time=12
the msg is note_on channel=0 note=72 velocity=100 time=0
the msg is note_off channel=0 note=72 velocity=0 time=12
the msg is note_on channel=0 note=72 velocity=100 time=0
the msg is note_off channel=0 note=72 velocity=0 time=12
the msg is note_on channel=0 note=72 velocity=100 time=0
the msg is note_off channel=0 note=72 velocity=0 time=25
the msg is note_on channel=0 note=72 velocity=100 time=0
the msg is note_off channel=0 note=72 velocity=0 time=12
the msg is note_on channel=0 note=72 velocity=100 time=0
the msg is note_off channel=0 note=72 velocity=0 time=12
the msg is note_on channel=0 note=72 velocity=100 time=0
the msg is <meta message end_of_track time=51>
the msg is <meta message track_name name='Acoustic Guitar' time=0>
the msg is program_change channel=0 program=24 time=0
the msg is note_off channel=0 note=69 velocity=0 time=0
the msg is pitchwheel channel=0 pitch=0 time=0
the msg is program_change channel=0 program=24 time=0
the msg is <meta message set_tempo tempo=500000 time=0>
the msg is <meta message time_signature numerator=4 denominator=4 clocks_per_click=24 notated_32nd_notes_per_beat=8 time=0>
the msg is note_on channel=0 note=69 velocity=100 time=0
the msg is note_off channel=0 note=72 velocity=0 time=166
the msg is note_on channel=0 note=72 velocity=100 time=0
the msg is note_off channel=0 note=72 velocity=0 time=12
the msg is note_on channel=0 note=72 velocity=100 time=0
the msg is note_off channel=0 note=72 velocity=0 time=12
the msg is note_on channel=0 note=72 velocity=100 time=0
the msg is note_off channel=0 note=72 velocity=0 time=25
the msg is note_on channel=0 note=72 velocity=100 time=0
the msg is note_off channel=0 note=74 velocity=0 time=25
the msg is note_on channel=0 note=74 velocity=100 time=0
the msg is note_off channel=0 note=74 velocity=0 time=12
the msg is note_on channel=0 note=74 velocity=100 time=0
the msg is note_off channel=0 note=71 velocity=0 time=12
the msg is note_on channel=0 note=71 velocity=100 time=0
the msg is note_off channel=0 note=74 velocity=0 time=25
the msg is note_on channel=0 note=74 velocity=100 time=0
the msg is note_off channel=0 note=74 velocity=0 time=12
the msg is note_on channel=0 note=74 velocity=100 time=0
the msg is note_off channel=0 note=71 velocity=0 time=12
the msg is note_on channel=0 note=71 velocity=100 time=0
the msg is note_off channel=0 note=71 velocity=0 time=12
the msg is note_on channel=0 note=71 velocity=100 time=0
the msg is note_off channel=0 note=69 velocity=0 time=12
the msg is note_on channel=0 note=69 velocity=100 time=0
the msg is note_off channel=0 note=72 velocity=0 time=115
the msg is note_on channel=0 note=72 velocity=100 time=0
the msg is note_off channel=0 note=72 velocity=0 time=34
the msg is note_on channel=0 note=72 velocity=100 time=0
the msg is note_off channel=0 note=72 velocity=0 time=4
the msg is note_on channel=0 note=72 velocity=100 time=0
the msg is note_off channel=0 note=72 velocity=0 time=12
the msg is note_on channel=0 note=72 velocity=100 time=0
the msg is note_off channel=0 note=72 velocity=0 time=17
the msg is note_on channel=0 note=72 velocity=100 time=0
the msg is note_off channel=0 note=76 velocity=0 time=17
the msg is note_on channel=0 note=76 velocity=100 time=0
the msg is note_off channel=0 note=79 velocity=0 time=17
the msg is note_on channel=0 note=79 velocity=100 time=0
the msg is note_off channel=0 note=76 velocity=0 time=34
the msg is note_on channel=0 note=76 velocity=100 time=0
the msg is note_off channel=0 note=79 velocity=0 time=17
the msg is note_on channel=0 note=79 velocity=100 time=0
the msg is note_off channel=0 note=79 velocity=0 time=17
the msg is note_on channel=0 note=79 velocity=100 time=0
the msg is note_off channel=0 note=76 velocity=0 time=17
the msg is note_on channel=0 note=76 velocity=100 time=0
the msg is note_off channel=0 note=74 velocity=0 time=4
the msg is note_on channel=0 note=74 velocity=100 time=0
the msg is note_off channel=0 note=72 velocity=0 time=12
the msg is note_on channel=0 note=72 velocity=100 time=0
the msg is note_off channel=0 note=74 velocity=0 time=34
the msg is note_on channel=0 note=74 velocity=100 time=0
the msg is note_off channel=0 note=74 velocity=0 time=17
the msg is note_on channel=0 note=74 velocity=100 time=0
the msg is note_off channel=0 note=74 velocity=0 time=34
the msg is note_on channel=0 note=74 velocity=100 time=0
the msg is note_off channel=0 note=76 velocity=0 time=17
the msg is note_on channel=0 note=76 velocity=100 time=0
the msg is note_off channel=0 note=79 velocity=0 time=34
the msg is note_on channel=0 note=79 velocity=100 time=0
the msg is note_off channel=0 note=79 velocity=0 time=17
the msg is note_off channel=0 note=76 velocity=0 time=0
the msg is note_on channel=0 note=79 velocity=100 time=0
the msg is note_on channel=0 note=76 velocity=100 time=0
the msg is note_off channel=0 note=74 velocity=0 time=25
the msg is note_on channel=0 note=74 velocity=100 time=0
the msg is note_off channel=0 note=72 velocity=0 time=8
the msg is note_on channel=0 note=72 velocity=100 time=0
the msg is note_off channel=0 note=74 velocity=0 time=17
the msg is note_on channel=0 note=74 velocity=100 time=0
the msg is note_off channel=0 note=76 velocity=0 time=34
the msg is note_on channel=0 note=76 velocity=100 time=0
the msg is note_off channel=0 note=72 velocity=0 time=4
the msg is note_on channel=0 note=72 velocity=100 time=0
the msg is note_off channel=0 note=74 velocity=0 time=12
the msg is note_on channel=0 note=74 velocity=100 time=0
the msg is note_off channel=0 note=74 velocity=0 time=34
the msg is note_on channel=0 note=74 velocity=100 time=0
the msg is note_off channel=0 note=74 velocity=0 time=17
the msg is note_on channel=0 note=74 velocity=100 time=0
the msg is note_off channel=0 note=74 velocity=0 time=17
the msg is note_on channel=0 note=74 velocity=100 time=0
the msg is note_off channel=0 note=71 velocity=0 time=17
the msg is note_on channel=0 note=71 velocity=100 time=0
the msg is note_off channel=0 note=74 velocity=0 time=17
the msg is note_on channel=0 note=74 velocity=100 time=0
the msg is note_off channel=0 note=74 velocity=0 time=34
the msg is note_on channel=0 note=74 velocity=100 time=0
the msg is note_off channel=0 note=72 velocity=0 time=4
the msg is note_on channel=0 note=72 velocity=100 time=0
the msg is note_off channel=0 note=74 velocity=0 time=29
the msg is note_on channel=0 note=74 velocity=100 time=0
the msg is note_off channel=0 note=74 velocity=0 time=21
the msg is note_on channel=0 note=74 velocity=100 time=0
the msg is note_off channel=0 note=74 velocity=0 time=12
the msg is note_on channel=0 note=74 velocity=100 time=0
the msg is note_off channel=0 note=71 velocity=0 time=17
the msg is note_on channel=0 note=71 velocity=100 time=0
the msg is note_off channel=0 note=74 velocity=0 time=8
the msg is note_on channel=0 note=74 velocity=100 time=0
the msg is note_off channel=0 note=76 velocity=0 time=25
the msg is note_on channel=0 note=76 velocity=100 time=0
the msg is note_off channel=0 note=79 velocity=0 time=25
the msg is note_on channel=0 note=79 velocity=100 time=0
the msg is note_off channel=0 note=72 velocity=0 time=12
the msg is note_on channel=0 note=72 velocity=100 time=0
the msg is note_off channel=0 note=72 velocity=0 time=12
the msg is note_on channel=0 note=72 velocity=100 time=0
the msg is note_off channel=0 note=72 velocity=0 time=12
the msg is note_on channel=0 note=72 velocity=100 time=0
the msg is note_off channel=0 note=72 velocity=0 time=25
the msg is note_on channel=0 note=72 velocity=100 time=0
the msg is note_off channel=0 note=72 velocity=0 time=12
the msg is note_on channel=0 note=72 velocity=100 time=0
the msg is note_off channel=0 note=72 velocity=0 time=12
the msg is note_on channel=0 note=72 velocity=100 time=0
the msg is <meta message end_of_track time=51>
the msg is <meta message track_name name='Acoustic Guitar' time=0>
the msg is program_change channel=0 program=24 time=0
the msg is note_off channel=0 note=69 velocity=0 time=0
the msg is pitchwheel channel=0 pitch=0 time=0
the msg is program_change channel=0 program=24 time=0
the msg is <meta message set_tempo tempo=500000 time=0>
the msg is <meta message time_signature numerator=4 denominator=4 clocks_per_click=24 notated_32nd_notes_per_beat=8 time=0>
the msg is note_on channel=0 note=69 velocity=100 time=0
the msg is note_off channel=0 note=72 velocity=0 time=166
the msg is note_on channel=0 note=72 velocity=100 time=0
the msg is note_off channel=0 note=72 velocity=0 time=12
the msg is note_on channel=0 note=72 velocity=100 time=0
the msg is note_off channel=0 note=72 velocity=0 time=12
the msg is note_on channel=0 note=72 velocity=100 time=0
the msg is note_off channel=0 note=72 velocity=0 time=25
the msg is note_on channel=0 note=72 velocity=100 time=0
the msg is note_off channel=0 note=74 velocity=0 time=25
the msg is note_on channel=0 note=74 velocity=100 time=0
the msg is note_off channel=0 note=74 velocity=0 time=12
the msg is note_on channel=0 note=74 velocity=100 time=0
the msg is note_off channel=0 note=71 velocity=0 time=12
the msg is note_on channel=0 note=71 velocity=100 time=0
the msg is note_off channel=0 note=74 velocity=0 time=25
the msg is note_on channel=0 note=74 velocity=100 time=0
the msg is note_off channel=0 note=74 velocity=0 time=12
the msg is note_on channel=0 note=74 velocity=100 time=0
the msg is note_off channel=0 note=71 velocity=0 time=12
the msg is note_on channel=0 note=71 velocity=100 time=0
the msg is note_off channel=0 note=71 velocity=0 time=12
the msg is note_on channel=0 note=71 velocity=100 time=0
the msg is note_off channel=0 note=69 velocity=0 time=12
the msg is note_on channel=0 note=69 velocity=100 time=0
the msg is note_off channel=0 note=72 velocity=0 time=115
the msg is note_on channel=0 note=72 velocity=100 time=0
the msg is note_off channel=0 note=72 velocity=0 time=34
the msg is note_on channel=0 note=72 velocity=100 time=0
the msg is note_off channel=0 note=72 velocity=0 time=4
the msg is note_on channel=0 note=72 velocity=100 time=0
the msg is note_off channel=0 note=72 velocity=0 time=12
the msg is note_on channel=0 note=72 velocity=100 time=0
the msg is note_off channel=0 note=72 velocity=0 time=17
the msg is note_on channel=0 note=72 velocity=100 time=0
the msg is note_off channel=0 note=76 velocity=0 time=17
the msg is note_on channel=0 note=76 velocity=100 time=0
the msg is note_off channel=0 note=79 velocity=0 time=17
the msg is note_on channel=0 note=79 velocity=100 time=0
the msg is note_off channel=0 note=76 velocity=0 time=34
the msg is note_on channel=0 note=76 velocity=100 time=0
the msg is note_off channel=0 note=79 velocity=0 time=17
the msg is note_on channel=0 note=79 velocity=100 time=0
the msg is note_off channel=0 note=79 velocity=0 time=17
the msg is note_on channel=0 note=79 velocity=100 time=0
the msg is note_off channel=0 note=76 velocity=0 time=17
the msg is note_on channel=0 note=76 velocity=100 time=0
the msg is note_off channel=0 note=74 velocity=0 time=4
the msg is note_on channel=0 note=74 velocity=100 time=0
the msg is note_off channel=0 note=72 velocity=0 time=12
the msg is note_on channel=0 note=72 velocity=100 time=0
the msg is note_off channel=0 note=74 velocity=0 time=34
the msg is note_on channel=0 note=74 velocity=100 time=0
the msg is note_off channel=0 note=74 velocity=0 time=17
the msg is note_on channel=0 note=74 velocity=100 time=0
the msg is note_off channel=0 note=74 velocity=0 time=34
the msg is note_on channel=0 note=74 velocity=100 time=0
the msg is note_off channel=0 note=76 velocity=0 time=17
the msg is note_on channel=0 note=76 velocity=100 time=0
the msg is note_off channel=0 note=79 velocity=0 time=34
the msg is note_on channel=0 note=79 velocity=100 time=0
the msg is note_off channel=0 note=79 velocity=0 time=17
the msg is note_off channel=0 note=76 velocity=0 time=0
the msg is note_on channel=0 note=79 velocity=100 time=0
the msg is note_on channel=0 note=76 velocity=100 time=0
the msg is note_off channel=0 note=74 velocity=0 time=25
the msg is note_on channel=0 note=74 velocity=100 time=0
the msg is note_off channel=0 note=72 velocity=0 time=8
the msg is note_on channel=0 note=72 velocity=100 time=0
the msg is note_off channel=0 note=74 velocity=0 time=17
the msg is note_on channel=0 note=74 velocity=100 time=0
the msg is note_off channel=0 note=76 velocity=0 time=34
the msg is note_on channel=0 note=76 velocity=100 time=0
the msg is note_off channel=0 note=72 velocity=0 time=4
the msg is note_on channel=0 note=72 velocity=100 time=0
the msg is note_off channel=0 note=74 velocity=0 time=12
the msg is note_on channel=0 note=74 velocity=100 time=0
the msg is note_off channel=0 note=74 velocity=0 time=34
the msg is note_on channel=0 note=74 velocity=100 time=0
the msg is note_off channel=0 note=74 velocity=0 time=17
the msg is note_on channel=0 note=74 velocity=100 time=0
the msg is note_off channel=0 note=74 velocity=0 time=17
the msg is note_on channel=0 note=74 velocity=100 time=0
the msg is note_off channel=0 note=71 velocity=0 time=17
the msg is note_on channel=0 note=71 velocity=100 time=0
the msg is note_off channel=0 note=74 velocity=0 time=17
the msg is note_on channel=0 note=74 velocity=100 time=0
the msg is note_off channel=0 note=74 velocity=0 time=34
the msg is note_on channel=0 note=74 velocity=100 time=0
the msg is note_off channel=0 note=72 velocity=0 time=4
the msg is note_on channel=0 note=72 velocity=100 time=0
the msg is note_off channel=0 note=74 velocity=0 time=29
the msg is note_on channel=0 note=74 velocity=100 time=0
the msg is note_off channel=0 note=74 velocity=0 time=21
the msg is note_on channel=0 note=74 velocity=100 time=0
the msg is note_off channel=0 note=74 velocity=0 time=12
the msg is note_on channel=0 note=74 velocity=100 time=0
the msg is note_off channel=0 note=71 velocity=0 time=17
the msg is note_on channel=0 note=71 velocity=100 time=0
the msg is note_off channel=0 note=74 velocity=0 time=8
the msg is note_on channel=0 note=74 velocity=100 time=0
the msg is note_off channel=0 note=76 velocity=0 time=25
the msg is note_on channel=0 note=76 velocity=100 time=0
the msg is note_off channel=0 note=79 velocity=0 time=25
the msg is note_on channel=0 note=79 velocity=100 time=0
the msg is note_off channel=0 note=72 velocity=0 time=12
the msg is note_on channel=0 note=72 velocity=100 time=0
the msg is note_off channel=0 note=72 velocity=0 time=12
the msg is note_on channel=0 note=72 velocity=100 time=0
the msg is note_off channel=0 note=72 velocity=0 time=12
the msg is note_on channel=0 note=72 velocity=100 time=0
the msg is note_off channel=0 note=72 velocity=0 time=25
the msg is note_on channel=0 note=72 velocity=100 time=0
the msg is note_off channel=0 note=72 velocity=0 time=12
the msg is note_on channel=0 note=72 velocity=100 time=0
the msg is note_off channel=0 note=72 velocity=0 time=12
the msg is note_on channel=0 note=72 velocity=100 time=0
the msg is <meta message end_of_track time=51>
the msg is <meta message track_name name='Acoustic Guitar' time=0>
the msg is program_change channel=0 program=24 time=0
the msg is note_off channel=0 note=69 velocity=0 time=0
the msg is pitchwheel channel=0 pitch=0 time=0
the msg is program_change channel=0 program=24 time=0
the msg is <meta message set_tempo tempo=500000 time=0>
the msg is <meta message time_signature numerator=4 denominator=4 clocks_per_click=24 notated_32nd_notes_per_beat=8 time=0>
the msg is note_on channel=0 note=69 velocity=100 time=0
the msg is note_off channel=0 note=72 velocity=0 time=166
the msg is note_on channel=0 note=72 velocity=100 time=0
the msg is note_off channel=0 note=72 velocity=0 time=12
the msg is note_on channel=0 note=72 velocity=100 time=0
the msg is note_off channel=0 note=72 velocity=0 time=12
the msg is note_on channel=0 note=72 velocity=100 time=0
the msg is note_off channel=0 note=72 velocity=0 time=25
the msg is note_on channel=0 note=72 velocity=100 time=0
the msg is note_off channel=0 note=74 velocity=0 time=25
the msg is note_on channel=0 note=74 velocity=100 time=0
the msg is note_off channel=0 note=74 velocity=0 time=12
the msg is note_on channel=0 note=74 velocity=100 time=0
the msg is note_off channel=0 note=71 velocity=0 time=12
the msg is note_on channel=0 note=71 velocity=100 time=0
the msg is note_off channel=0 note=74 velocity=0 time=25
the msg is note_on channel=0 note=74 velocity=100 time=0
the msg is note_off channel=0 note=74 velocity=0 time=12
the msg is note_on channel=0 note=74 velocity=100 time=0
the msg is note_off channel=0 note=71 velocity=0 time=12
the msg is note_on channel=0 note=71 velocity=100 time=0
the msg is note_off channel=0 note=71 velocity=0 time=12
the msg is note_on channel=0 note=71 velocity=100 time=0
the msg is note_off channel=0 note=69 velocity=0 time=12
the msg is note_on channel=0 note=69 velocity=100 time=0
the msg is note_off channel=0 note=72 velocity=0 time=115
the msg is note_on channel=0 note=72 velocity=100 time=0
the msg is note_off channel=0 note=72 velocity=0 time=34
the msg is note_on channel=0 note=72 velocity=100 time=0
the msg is note_off channel=0 note=72 velocity=0 time=4
the msg is note_on channel=0 note=72 velocity=100 time=0
the msg is note_off channel=0 note=72 velocity=0 time=12
the msg is note_on channel=0 note=72 velocity=100 time=0
the msg is note_off channel=0 note=72 velocity=0 time=17
the msg is note_on channel=0 note=72 velocity=100 time=0
the msg is note_off channel=0 note=76 velocity=0 time=17
the msg is note_on channel=0 note=76 velocity=100 time=0
the msg is note_off channel=0 note=79 velocity=0 time=17
the msg is note_on channel=0 note=79 velocity=100 time=0
the msg is note_off channel=0 note=76 velocity=0 time=34
the msg is note_on channel=0 note=76 velocity=100 time=0
the msg is note_off channel=0 note=79 velocity=0 time=17
the msg is note_on channel=0 note=79 velocity=100 time=0
the msg is note_off channel=0 note=79 velocity=0 time=17
the msg is note_on channel=0 note=79 velocity=100 time=0
the msg is note_off channel=0 note=76 velocity=0 time=17
the msg is note_on channel=0 note=76 velocity=100 time=0
the msg is note_off channel=0 note=74 velocity=0 time=4
the msg is note_on channel=0 note=74 velocity=100 time=0
the msg is note_off channel=0 note=72 velocity=0 time=12
the msg is note_on channel=0 note=72 velocity=100 time=0
the msg is note_off channel=0 note=74 velocity=0 time=34
the msg is note_on channel=0 note=74 velocity=100 time=0
the msg is note_off channel=0 note=74 velocity=0 time=17
the msg is note_on channel=0 note=74 velocity=100 time=0
the msg is note_off channel=0 note=74 velocity=0 time=34
the msg is note_on channel=0 note=74 velocity=100 time=0
the msg is note_off channel=0 note=76 velocity=0 time=17
the msg is note_on channel=0 note=76 velocity=100 time=0
the msg is note_off channel=0 note=79 velocity=0 time=34
the msg is note_on channel=0 note=79 velocity=100 time=0
the msg is note_off channel=0 note=79 velocity=0 time=17
the msg is note_off channel=0 note=76 velocity=0 time=0
the msg is note_on channel=0 note=79 velocity=100 time=0
the msg is note_on channel=0 note=76 velocity=100 time=0
the msg is note_off channel=0 note=74 velocity=0 time=25
the msg is note_on channel=0 note=74 velocity=100 time=0
the msg is note_off channel=0 note=72 velocity=0 time=8
the msg is note_on channel=0 note=72 velocity=100 time=0
the msg is note_off channel=0 note=74 velocity=0 time=17
the msg is note_on channel=0 note=74 velocity=100 time=0
the msg is note_off channel=0 note=76 velocity=0 time=34
the msg is note_on channel=0 note=76 velocity=100 time=0
the msg is note_off channel=0 note=72 velocity=0 time=4
the msg is note_on channel=0 note=72 velocity=100 time=0
the msg is note_off channel=0 note=74 velocity=0 time=12
the msg is note_on channel=0 note=74 velocity=100 time=0
the msg is note_off channel=0 note=74 velocity=0 time=34
the msg is note_on channel=0 note=74 velocity=100 time=0
the msg is note_off channel=0 note=74 velocity=0 time=17
the msg is note_on channel=0 note=74 velocity=100 time=0
the msg is note_off channel=0 note=74 velocity=0 time=17
the msg is note_on channel=0 note=74 velocity=100 time=0
the msg is note_off channel=0 note=71 velocity=0 time=17
the msg is note_on channel=0 note=71 velocity=100 time=0
the msg is note_off channel=0 note=74 velocity=0 time=17
the msg is note_on channel=0 note=74 velocity=100 time=0
the msg is note_off channel=0 note=74 velocity=0 time=34
the msg is note_on channel=0 note=74 velocity=100 time=0
the msg is note_off channel=0 note=72 velocity=0 time=4
the msg is note_on channel=0 note=72 velocity=100 time=0
the msg is note_off channel=0 note=74 velocity=0 time=29
the msg is note_on channel=0 note=74 velocity=100 time=0
the msg is note_off channel=0 note=74 velocity=0 time=21
the msg is note_on channel=0 note=74 velocity=100 time=0
the msg is note_off channel=0 note=74 velocity=0 time=12
the msg is note_on channel=0 note=74 velocity=100 time=0
the msg is note_off channel=0 note=71 velocity=0 time=17
the msg is note_on channel=0 note=71 velocity=100 time=0
the msg is note_off channel=0 note=74 velocity=0 time=8
the msg is note_on channel=0 note=74 velocity=100 time=0
the msg is note_off channel=0 note=76 velocity=0 time=25
the msg is note_on channel=0 note=76 velocity=100 time=0
the msg is note_off channel=0 note=79 velocity=0 time=25
the msg is note_on channel=0 note=79 velocity=100 time=0
the msg is note_off channel=0 note=72 velocity=0 time=12
the msg is note_on channel=0 note=72 velocity=100 time=0
the msg is note_off channel=0 note=72 velocity=0 time=12
the msg is note_on channel=0 note=72 velocity=100 time=0
the msg is note_off channel=0 note=72 velocity=0 time=12
the msg is note_on channel=0 note=72 velocity=100 time=0
the msg is note_off channel=0 note=72 velocity=0 time=25
the msg is note_on channel=0 note=72 velocity=100 time=0
the msg is note_off channel=0 note=72 velocity=0 time=12
the msg is note_on channel=0 note=72 velocity=100 time=0
the msg is note_off channel=0 note=72 velocity=0 time=12
the msg is note_on channel=0 note=72 velocity=100 time=0
the msg is <meta message end_of_track time=51>
the msg is <meta message track_name name='Acoustic Guitar' time=0>
the msg is program_change channel=0 program=24 time=0
the msg is note_off channel=0 note=69 velocity=0 time=0
the msg is pitchwheel channel=0 pitch=0 time=0
the msg is program_change channel=0 program=24 time=0
the msg is <meta message set_tempo tempo=500000 time=0>
the msg is <meta message time_signature numerator=4 denominator=4 clocks_per_click=24 notated_32nd_notes_per_beat=8 time=0>
the msg is note_on channel=0 note=69 velocity=100 time=0
the msg is note_off channel=0 note=72 velocity=0 time=166
the msg is note_on channel=0 note=72 velocity=100 time=0
the msg is note_off channel=0 note=72 velocity=0 time=12
the msg is note_on channel=0 note=72 velocity=100 time=0
the msg is note_off channel=0 note=72 velocity=0 time=12
the msg is note_on channel=0 note=72 velocity=100 time=0
the msg is note_off channel=0 note=72 velocity=0 time=25
the msg is note_on channel=0 note=72 velocity=100 time=0
the msg is note_off channel=0 note=74 velocity=0 time=25
the msg is note_on channel=0 note=74 velocity=100 time=0
the msg is note_off channel=0 note=74 velocity=0 time=12
the msg is note_on channel=0 note=74 velocity=100 time=0
the msg is note_off channel=0 note=71 velocity=0 time=12
the msg is note_on channel=0 note=71 velocity=100 time=0
the msg is note_off channel=0 note=74 velocity=0 time=25
the msg is note_on channel=0 note=74 velocity=100 time=0
the msg is note_off channel=0 note=74 velocity=0 time=12
the msg is note_on channel=0 note=74 velocity=100 time=0
the msg is note_off channel=0 note=71 velocity=0 time=12
the msg is note_on channel=0 note=71 velocity=100 time=0
the msg is note_off channel=0 note=71 velocity=0 time=12
the msg is note_on channel=0 note=71 velocity=100 time=0
the msg is note_off channel=0 note=69 velocity=0 time=12
the msg is note_on channel=0 note=69 velocity=100 time=0
the msg is note_off channel=0 note=72 velocity=0 time=115
the msg is note_on channel=0 note=72 velocity=100 time=0
the msg is note_off channel=0 note=72 velocity=0 time=34
the msg is note_on channel=0 note=72 velocity=100 time=0
the msg is note_off channel=0 note=72 velocity=0 time=4
the msg is note_on channel=0 note=72 velocity=100 time=0
the msg is note_off channel=0 note=72 velocity=0 time=12
the msg is note_on channel=0 note=72 velocity=100 time=0
the msg is note_off channel=0 note=72 velocity=0 time=17
the msg is note_on channel=0 note=72 velocity=100 time=0
the msg is note_off channel=0 note=76 velocity=0 time=17
the msg is note_on channel=0 note=76 velocity=100 time=0
the msg is note_off channel=0 note=79 velocity=0 time=17
the msg is note_on channel=0 note=79 velocity=100 time=0
the msg is note_off channel=0 note=76 velocity=0 time=34
the msg is note_on channel=0 note=76 velocity=100 time=0
the msg is note_off channel=0 note=79 velocity=0 time=17
the msg is note_on channel=0 note=79 velocity=100 time=0
the msg is note_off channel=0 note=79 velocity=0 time=17
the msg is note_on channel=0 note=79 velocity=100 time=0
the msg is note_off channel=0 note=76 velocity=0 time=17
the msg is note_on channel=0 note=76 velocity=100 time=0
the msg is note_off channel=0 note=74 velocity=0 time=4
the msg is note_on channel=0 note=74 velocity=100 time=0
the msg is note_off channel=0 note=72 velocity=0 time=12
the msg is note_on channel=0 note=72 velocity=100 time=0
the msg is note_off channel=0 note=74 velocity=0 time=34
the msg is note_on channel=0 note=74 velocity=100 time=0
the msg is note_off channel=0 note=74 velocity=0 time=17
the msg is note_on channel=0 note=74 velocity=100 time=0
the msg is note_off channel=0 note=74 velocity=0 time=34
the msg is note_on channel=0 note=74 velocity=100 time=0
the msg is note_off channel=0 note=76 velocity=0 time=17
the msg is note_on channel=0 note=76 velocity=100 time=0
the msg is note_off channel=0 note=79 velocity=0 time=34
the msg is note_on channel=0 note=79 velocity=100 time=0
the msg is note_off channel=0 note=79 velocity=0 time=17
the msg is note_off channel=0 note=76 velocity=0 time=0
the msg is note_on channel=0 note=79 velocity=100 time=0
the msg is note_on channel=0 note=76 velocity=100 time=0
the msg is note_off channel=0 note=74 velocity=0 time=25
the msg is note_on channel=0 note=74 velocity=100 time=0
the msg is note_off channel=0 note=72 velocity=0 time=8
the msg is note_on channel=0 note=72 velocity=100 time=0
the msg is note_off channel=0 note=74 velocity=0 time=17
the msg is note_on channel=0 note=74 velocity=100 time=0
the msg is note_off channel=0 note=76 velocity=0 time=34
the msg is note_on channel=0 note=76 velocity=100 time=0
the msg is note_off channel=0 note=72 velocity=0 time=4
the msg is note_on channel=0 note=72 velocity=100 time=0
the msg is note_off channel=0 note=74 velocity=0 time=12
the msg is note_on channel=0 note=74 velocity=100 time=0
the msg is note_off channel=0 note=74 velocity=0 time=34
the msg is note_on channel=0 note=74 velocity=100 time=0
the msg is note_off channel=0 note=74 velocity=0 time=17
the msg is note_on channel=0 note=74 velocity=100 time=0
the msg is note_off channel=0 note=74 velocity=0 time=17
the msg is note_on channel=0 note=74 velocity=100 time=0
the msg is note_off channel=0 note=71 velocity=0 time=17
the msg is note_on channel=0 note=71 velocity=100 time=0
the msg is note_off channel=0 note=74 velocity=0 time=17
the msg is note_on channel=0 note=74 velocity=100 time=0
the msg is note_off channel=0 note=74 velocity=0 time=34
the msg is note_on channel=0 note=74 velocity=100 time=0
the msg is note_off channel=0 note=72 velocity=0 time=4
the msg is note_on channel=0 note=72 velocity=100 time=0
the msg is note_off channel=0 note=74 velocity=0 time=29
the msg is note_on channel=0 note=74 velocity=100 time=0
the msg is note_off channel=0 note=74 velocity=0 time=21
the msg is note_on channel=0 note=74 velocity=100 time=0
the msg is note_off channel=0 note=74 velocity=0 time=12
the msg is note_on channel=0 note=74 velocity=100 time=0
the msg is note_off channel=0 note=71 velocity=0 time=17
the msg is note_on channel=0 note=71 velocity=100 time=0
the msg is note_off channel=0 note=74 velocity=0 time=8
the msg is note_on channel=0 note=74 velocity=100 time=0
the msg is note_off channel=0 note=76 velocity=0 time=25
the msg is note_on channel=0 note=76 velocity=100 time=0
the msg is note_off channel=0 note=79 velocity=0 time=25
the msg is note_on channel=0 note=79 velocity=100 time=0
the msg is note_off channel=0 note=72 velocity=0 time=12
the msg is note_on channel=0 note=72 velocity=100 time=0
the msg is note_off channel=0 note=72 velocity=0 time=12
the msg is note_on channel=0 note=72 velocity=100 time=0
the msg is note_off channel=0 note=72 velocity=0 time=12
the msg is note_on channel=0 note=72 velocity=100 time=0
the msg is note_off channel=0 note=72 velocity=0 time=25
the msg is note_on channel=0 note=72 velocity=100 time=0
the msg is note_off channel=0 note=72 velocity=0 time=12
the msg is note_on channel=0 note=72 velocity=100 time=0
the msg is note_off channel=0 note=72 velocity=0 time=12
the msg is note_on channel=0 note=72 velocity=100 time=0
the msg is <meta message end_of_track time=51>
the msg is <meta message track_name name='Acoustic Guitar' time=0>
the msg is program_change channel=0 program=24 time=0
the msg is note_off channel=0 note=69 velocity=0 time=0
the msg is pitchwheel channel=0 pitch=0 time=0
the msg is program_change channel=0 program=24 time=0
the msg is <meta message set_tempo tempo=500000 time=0>
the msg is <meta message time_signature numerator=4 denominator=4 clocks_per_click=24 notated_32nd_notes_per_beat=8 time=0>
the msg is note_on channel=0 note=69 velocity=100 time=0
the msg is note_off channel=0 note=72 velocity=0 time=166
the msg is note_on channel=0 note=72 velocity=100 time=0
the msg is note_off channel=0 note=72 velocity=0 time=12
the msg is note_on channel=0 note=72 velocity=100 time=0
the msg is note_off channel=0 note=72 velocity=0 time=12
the msg is note_on channel=0 note=72 velocity=100 time=0
the msg is note_off channel=0 note=72 velocity=0 time=25
the msg is note_on channel=0 note=72 velocity=100 time=0
the msg is note_off channel=0 note=74 velocity=0 time=25
the msg is note_on channel=0 note=74 velocity=100 time=0
the msg is note_off channel=0 note=74 velocity=0 time=12
the msg is note_on channel=0 note=74 velocity=100 time=0
the msg is note_off channel=0 note=71 velocity=0 time=12
the msg is note_on channel=0 note=71 velocity=100 time=0
the msg is note_off channel=0 note=74 velocity=0 time=25
the msg is note_on channel=0 note=74 velocity=100 time=0
the msg is note_off channel=0 note=74 velocity=0 time=12
the msg is note_on channel=0 note=74 velocity=100 time=0
the msg is note_off channel=0 note=71 velocity=0 time=12
the msg is note_on channel=0 note=71 velocity=100 time=0
the msg is note_off channel=0 note=71 velocity=0 time=12
the msg is note_on channel=0 note=71 velocity=100 time=0
the msg is note_off channel=0 note=69 velocity=0 time=12
the msg is note_on channel=0 note=69 velocity=100 time=0
the msg is note_off channel=0 note=72 velocity=0 time=115
the msg is note_on channel=0 note=72 velocity=100 time=0
the msg is note_off channel=0 note=72 velocity=0 time=34
the msg is note_on channel=0 note=72 velocity=100 time=0
the msg is note_off channel=0 note=72 velocity=0 time=4
the msg is note_on channel=0 note=72 velocity=100 time=0
the msg is note_off channel=0 note=72 velocity=0 time=12
the msg is note_on channel=0 note=72 velocity=100 time=0
the msg is note_off channel=0 note=72 velocity=0 time=17
the msg is note_on channel=0 note=72 velocity=100 time=0
the msg is note_off channel=0 note=76 velocity=0 time=17
the msg is note_on channel=0 note=76 velocity=100 time=0
the msg is note_off channel=0 note=79 velocity=0 time=17
the msg is note_on channel=0 note=79 velocity=100 time=0
the msg is note_off channel=0 note=76 velocity=0 time=34
the msg is note_on channel=0 note=76 velocity=100 time=0
the msg is note_off channel=0 note=79 velocity=0 time=17
the msg is note_on channel=0 note=79 velocity=100 time=0
the msg is note_off channel=0 note=79 velocity=0 time=17
the msg is note_on channel=0 note=79 velocity=100 time=0
the msg is note_off channel=0 note=76 velocity=0 time=17
the msg is note_on channel=0 note=76 velocity=100 time=0
the msg is note_off channel=0 note=74 velocity=0 time=4
the msg is note_on channel=0 note=74 velocity=100 time=0
the msg is note_off channel=0 note=72 velocity=0 time=12
the msg is note_on channel=0 note=72 velocity=100 time=0
the msg is note_off channel=0 note=74 velocity=0 time=34
the msg is note_on channel=0 note=74 velocity=100 time=0
the msg is note_off channel=0 note=74 velocity=0 time=17
the msg is note_on channel=0 note=74 velocity=100 time=0
the msg is note_off channel=0 note=74 velocity=0 time=34
the msg is note_on channel=0 note=74 velocity=100 time=0
the msg is note_off channel=0 note=76 velocity=0 time=17
the msg is note_on channel=0 note=76 velocity=100 time=0
the msg is note_off channel=0 note=79 velocity=0 time=34
the msg is note_on channel=0 note=79 velocity=100 time=0
the msg is note_off channel=0 note=79 velocity=0 time=17
the msg is note_off channel=0 note=76 velocity=0 time=0
the msg is note_on channel=0 note=79 velocity=100 time=0
the msg is note_on channel=0 note=76 velocity=100 time=0
the msg is note_off channel=0 note=74 velocity=0 time=25
the msg is note_on channel=0 note=74 velocity=100 time=0
the msg is note_off channel=0 note=72 velocity=0 time=8
the msg is note_on channel=0 note=72 velocity=100 time=0
the msg is note_off channel=0 note=74 velocity=0 time=17
the msg is note_on channel=0 note=74 velocity=100 time=0
the msg is note_off channel=0 note=76 velocity=0 time=34
the msg is note_on channel=0 note=76 velocity=100 time=0
the msg is note_off channel=0 note=72 velocity=0 time=4
the msg is note_on channel=0 note=72 velocity=100 time=0
the msg is note_off channel=0 note=74 velocity=0 time=12
the msg is note_on channel=0 note=74 velocity=100 time=0
the msg is note_off channel=0 note=74 velocity=0 time=34
the msg is note_on channel=0 note=74 velocity=100 time=0
the msg is note_off channel=0 note=74 velocity=0 time=17
the msg is note_on channel=0 note=74 velocity=100 time=0
the msg is note_off channel=0 note=74 velocity=0 time=17
the msg is note_on channel=0 note=74 velocity=100 time=0
the msg is note_off channel=0 note=71 velocity=0 time=17
the msg is note_on channel=0 note=71 velocity=100 time=0
the msg is note_off channel=0 note=74 velocity=0 time=17
the msg is note_on channel=0 note=74 velocity=100 time=0
the msg is note_off channel=0 note=74 velocity=0 time=34
the msg is note_on channel=0 note=74 velocity=100 time=0
the msg is note_off channel=0 note=72 velocity=0 time=4
the msg is note_on channel=0 note=72 velocity=100 time=0
the msg is note_off channel=0 note=74 velocity=0 time=29
the msg is note_on channel=0 note=74 velocity=100 time=0
the msg is note_off channel=0 note=74 velocity=0 time=21
the msg is note_on channel=0 note=74 velocity=100 time=0
the msg is note_off channel=0 note=74 velocity=0 time=12
the msg is note_on channel=0 note=74 velocity=100 time=0
the msg is note_off channel=0 note=71 velocity=0 time=17
the msg is note_on channel=0 note=71 velocity=100 time=0
the msg is note_off channel=0 note=74 velocity=0 time=8
the msg is note_on channel=0 note=74 velocity=100 time=0
the msg is note_off channel=0 note=76 velocity=0 time=25
the msg is note_on channel=0 note=76 velocity=100 time=0
the msg is note_off channel=0 note=79 velocity=0 time=25
the msg is note_on channel=0 note=79 velocity=100 time=0
the msg is note_off channel=0 note=72 velocity=0 time=12
the msg is note_on channel=0 note=72 velocity=100 time=0
the msg is note_off channel=0 note=72 velocity=0 time=12
the msg is note_on channel=0 note=72 velocity=100 time=0
the msg is note_off channel=0 note=72 velocity=0 time=12
the msg is note_on channel=0 note=72 velocity=100 time=0
the msg is note_off channel=0 note=72 velocity=0 time=25
the msg is note_on channel=0 note=72 velocity=100 time=0
the msg is note_off channel=0 note=72 velocity=0 time=12
the msg is note_on channel=0 note=72 velocity=100 time=0
the msg is note_off channel=0 note=72 velocity=0 time=12
the msg is note_on channel=0 note=72 velocity=100 time=0
the msg is <meta message end_of_track time=51>
the msg is <meta message track_name name='Acoustic Guitar' time=0>
the msg is program_change channel=0 program=24 time=0
the msg is note_off channel=0 note=69 velocity=0 time=0
the msg is pitchwheel channel=0 pitch=0 time=0
the msg is program_change channel=0 program=24 time=0
the msg is <meta message set_tempo tempo=500000 time=0>
the msg is <meta message time_signature numerator=4 denominator=4 clocks_per_click=24 notated_32nd_notes_per_beat=8 time=0>
the msg is note_on channel=0 note=69 velocity=100 time=0
the msg is note_off channel=0 note=72 velocity=0 time=166
the msg is note_on channel=0 note=72 velocity=100 time=0
the msg is note_off channel=0 note=72 velocity=0 time=12
the msg is note_on channel=0 note=72 velocity=100 time=0
the msg is note_off channel=0 note=72 velocity=0 time=12
the msg is note_on channel=0 note=72 velocity=100 time=0
the msg is note_off channel=0 note=72 velocity=0 time=25
the msg is note_on channel=0 note=72 velocity=100 time=0
the msg is note_off channel=0 note=74 velocity=0 time=25
the msg is note_on channel=0 note=74 velocity=100 time=0
the msg is note_off channel=0 note=74 velocity=0 time=12
the msg is note_on channel=0 note=74 velocity=100 time=0
the msg is note_off channel=0 note=71 velocity=0 time=12
the msg is note_on channel=0 note=71 velocity=100 time=0
the msg is note_off channel=0 note=74 velocity=0 time=25
the msg is note_on channel=0 note=74 velocity=100 time=0
the msg is note_off channel=0 note=74 velocity=0 time=12
the msg is note_on channel=0 note=74 velocity=100 time=0
the msg is note_off channel=0 note=71 velocity=0 time=12
the msg is note_on channel=0 note=71 velocity=100 time=0
the msg is note_off channel=0 note=71 velocity=0 time=12
the msg is note_on channel=0 note=71 velocity=100 time=0
the msg is note_off channel=0 note=69 velocity=0 time=12
the msg is note_on channel=0 note=69 velocity=100 time=0
the msg is note_off channel=0 note=72 velocity=0 time=115
the msg is note_on channel=0 note=72 velocity=100 time=0
the msg is note_off channel=0 note=72 velocity=0 time=34
the msg is note_on channel=0 note=72 velocity=100 time=0
the msg is note_off channel=0 note=72 velocity=0 time=4
the msg is note_on channel=0 note=72 velocity=100 time=0
the msg is note_off channel=0 note=72 velocity=0 time=12
the msg is note_on channel=0 note=72 velocity=100 time=0
the msg is note_off channel=0 note=72 velocity=0 time=17
the msg is note_on channel=0 note=72 velocity=100 time=0
the msg is note_off channel=0 note=76 velocity=0 time=17
the msg is note_on channel=0 note=76 velocity=100 time=0
the msg is note_off channel=0 note=79 velocity=0 time=17
the msg is note_on channel=0 note=79 velocity=100 time=0
the msg is note_off channel=0 note=76 velocity=0 time=34
the msg is note_on channel=0 note=76 velocity=100 time=0
the msg is note_off channel=0 note=79 velocity=0 time=17
the msg is note_on channel=0 note=79 velocity=100 time=0
the msg is note_off channel=0 note=79 velocity=0 time=17
the msg is note_on channel=0 note=79 velocity=100 time=0
the msg is note_off channel=0 note=76 velocity=0 time=17
the msg is note_on channel=0 note=76 velocity=100 time=0
the msg is note_off channel=0 note=74 velocity=0 time=4
the msg is note_on channel=0 note=74 velocity=100 time=0
the msg is note_off channel=0 note=72 velocity=0 time=12
the msg is note_on channel=0 note=72 velocity=100 time=0
the msg is note_off channel=0 note=74 velocity=0 time=34
the msg is note_on channel=0 note=74 velocity=100 time=0
the msg is note_off channel=0 note=74 velocity=0 time=17
the msg is note_on channel=0 note=74 velocity=100 time=0
the msg is note_off channel=0 note=74 velocity=0 time=34
the msg is note_on channel=0 note=74 velocity=100 time=0
the msg is note_off channel=0 note=76 velocity=0 time=17
the msg is note_on channel=0 note=76 velocity=100 time=0
the msg is note_off channel=0 note=79 velocity=0 time=34
the msg is note_on channel=0 note=79 velocity=100 time=0
the msg is note_off channel=0 note=79 velocity=0 time=17
the msg is note_off channel=0 note=76 velocity=0 time=0
the msg is note_on channel=0 note=79 velocity=100 time=0
the msg is note_on channel=0 note=76 velocity=100 time=0
the msg is note_off channel=0 note=74 velocity=0 time=25
the msg is note_on channel=0 note=74 velocity=100 time=0
the msg is note_off channel=0 note=72 velocity=0 time=8
the msg is note_on channel=0 note=72 velocity=100 time=0
the msg is note_off channel=0 note=74 velocity=0 time=17
the msg is note_on channel=0 note=74 velocity=100 time=0
the msg is note_off channel=0 note=76 velocity=0 time=34
the msg is note_on channel=0 note=76 velocity=100 time=0
the msg is note_off channel=0 note=72 velocity=0 time=4
the msg is note_on channel=0 note=72 velocity=100 time=0
the msg is note_off channel=0 note=74 velocity=0 time=12
the msg is note_on channel=0 note=74 velocity=100 time=0
the msg is note_off channel=0 note=74 velocity=0 time=34
the msg is note_on channel=0 note=74 velocity=100 time=0
the msg is note_off channel=0 note=74 velocity=0 time=17
the msg is note_on channel=0 note=74 velocity=100 time=0
the msg is note_off channel=0 note=74 velocity=0 time=17
the msg is note_on channel=0 note=74 velocity=100 time=0
the msg is note_off channel=0 note=71 velocity=0 time=17
the msg is note_on channel=0 note=71 velocity=100 time=0
the msg is note_off channel=0 note=74 velocity=0 time=17
the msg is note_on channel=0 note=74 velocity=100 time=0
the msg is note_off channel=0 note=74 velocity=0 time=34
the msg is note_on channel=0 note=74 velocity=100 time=0
the msg is note_off channel=0 note=72 velocity=0 time=4
the msg is note_on channel=0 note=72 velocity=100 time=0
the msg is note_off channel=0 note=74 velocity=0 time=29
the msg is note_on channel=0 note=74 velocity=100 time=0
the msg is note_off channel=0 note=74 velocity=0 time=21
the msg is note_on channel=0 note=74 velocity=100 time=0
the msg is note_off channel=0 note=74 velocity=0 time=12
the msg is note_on channel=0 note=74 velocity=100 time=0
the msg is note_off channel=0 note=71 velocity=0 time=17
the msg is note_on channel=0 note=71 velocity=100 time=0
the msg is note_off channel=0 note=74 velocity=0 time=8
the msg is note_on channel=0 note=74 velocity=100 time=0
the msg is note_off channel=0 note=76 velocity=0 time=25
the msg is note_on channel=0 note=76 velocity=100 time=0
the msg is note_off channel=0 note=79 velocity=0 time=25
the msg is note_on channel=0 note=79 velocity=100 time=0
the msg is note_off channel=0 note=72 velocity=0 time=12
the msg is note_on channel=0 note=72 velocity=100 time=0
the msg is note_off channel=0 note=72 velocity=0 time=12
the msg is note_on channel=0 note=72 velocity=100 time=0
the msg is note_off channel=0 note=72 velocity=0 time=12
the msg is note_on channel=0 note=72 velocity=100 time=0
the msg is note_off channel=0 note=72 velocity=0 time=25
the msg is note_on channel=0 note=72 velocity=100 time=0
the msg is note_off channel=0 note=72 velocity=0 time=12
the msg is note_on channel=0 note=72 velocity=100 time=0
the msg is note_off channel=0 note=72 velocity=0 time=12
the msg is note_on channel=0 note=72 velocity=100 time=0
the msg is <meta message end_of_track time=51>
the msg is <meta message track_name name='Acoustic Guitar' time=0>
the msg is program_change channel=0 program=24 time=0
the msg is note_off channel=0 note=69 velocity=0 time=0
the msg is pitchwheel channel=0 pitch=0 time=0
the msg is program_change channel=0 program=24 time=0
the msg is <meta message set_tempo tempo=500000 time=0>
the msg is <meta message time_signature numerator=4 denominator=4 clocks_per_click=24 notated_32nd_notes_per_beat=8 time=0>
the msg is note_on channel=0 note=69 velocity=100 time=0
the msg is note_off channel=0 note=72 velocity=0 time=166
the msg is note_on channel=0 note=72 velocity=100 time=0
the msg is note_off channel=0 note=72 velocity=0 time=12
the msg is note_on channel=0 note=72 velocity=100 time=0
the msg is note_off channel=0 note=72 velocity=0 time=12
the msg is note_on channel=0 note=72 velocity=100 time=0
the msg is note_off channel=0 note=72 velocity=0 time=25
the msg is note_on channel=0 note=72 velocity=100 time=0
the msg is note_off channel=0 note=74 velocity=0 time=25
the msg is note_on channel=0 note=74 velocity=100 time=0
the msg is note_off channel=0 note=74 velocity=0 time=12
the msg is note_on channel=0 note=74 velocity=100 time=0
the msg is note_off channel=0 note=71 velocity=0 time=12
the msg is note_on channel=0 note=71 velocity=100 time=0
the msg is note_off channel=0 note=74 velocity=0 time=25
the msg is note_on channel=0 note=74 velocity=100 time=0
the msg is note_off channel=0 note=74 velocity=0 time=12
the msg is note_on channel=0 note=74 velocity=100 time=0
the msg is note_off channel=0 note=71 velocity=0 time=12
the msg is note_on channel=0 note=71 velocity=100 time=0
the msg is note_off channel=0 note=71 velocity=0 time=12
the msg is note_on channel=0 note=71 velocity=100 time=0
the msg is note_off channel=0 note=69 velocity=0 time=12
the msg is note_on channel=0 note=69 velocity=100 time=0
the msg is note_off channel=0 note=72 velocity=0 time=115
the msg is note_on channel=0 note=72 velocity=100 time=0
the msg is note_off channel=0 note=72 velocity=0 time=34
the msg is note_on channel=0 note=72 velocity=100 time=0
the msg is note_off channel=0 note=72 velocity=0 time=4
the msg is note_on channel=0 note=72 velocity=100 time=0
the msg is note_off channel=0 note=72 velocity=0 time=12
the msg is note_on channel=0 note=72 velocity=100 time=0
the msg is note_off channel=0 note=72 velocity=0 time=17
the msg is note_on channel=0 note=72 velocity=100 time=0
the msg is note_off channel=0 note=76 velocity=0 time=17
the msg is note_on channel=0 note=76 velocity=100 time=0
the msg is note_off channel=0 note=79 velocity=0 time=17
the msg is note_on channel=0 note=79 velocity=100 time=0
the msg is note_off channel=0 note=76 velocity=0 time=34
the msg is note_on channel=0 note=76 velocity=100 time=0
the msg is note_off channel=0 note=79 velocity=0 time=17
the msg is note_on channel=0 note=79 velocity=100 time=0
the msg is note_off channel=0 note=79 velocity=0 time=17
the msg is note_on channel=0 note=79 velocity=100 time=0
the msg is note_off channel=0 note=76 velocity=0 time=17
the msg is note_on channel=0 note=76 velocity=100 time=0
the msg is note_off channel=0 note=74 velocity=0 time=4
the msg is note_on channel=0 note=74 velocity=100 time=0
the msg is note_off channel=0 note=72 velocity=0 time=12
the msg is note_on channel=0 note=72 velocity=100 time=0
the msg is note_off channel=0 note=74 velocity=0 time=34
the msg is note_on channel=0 note=74 velocity=100 time=0
the msg is note_off channel=0 note=74 velocity=0 time=17
the msg is note_on channel=0 note=74 velocity=100 time=0
the msg is note_off channel=0 note=74 velocity=0 time=34
the msg is note_on channel=0 note=74 velocity=100 time=0
the msg is note_off channel=0 note=76 velocity=0 time=17
the msg is note_on channel=0 note=76 velocity=100 time=0
the msg is note_off channel=0 note=79 velocity=0 time=34
the msg is note_on channel=0 note=79 velocity=100 time=0
the msg is note_off channel=0 note=79 velocity=0 time=17
the msg is note_off channel=0 note=76 velocity=0 time=0
the msg is note_on channel=0 note=79 velocity=100 time=0
the msg is note_on channel=0 note=76 velocity=100 time=0
the msg is note_off channel=0 note=74 velocity=0 time=25
the msg is note_on channel=0 note=74 velocity=100 time=0
the msg is note_off channel=0 note=72 velocity=0 time=8
the msg is note_on channel=0 note=72 velocity=100 time=0
the msg is note_off channel=0 note=74 velocity=0 time=17
the msg is note_on channel=0 note=74 velocity=100 time=0
the msg is note_off channel=0 note=76 velocity=0 time=34
the msg is note_on channel=0 note=76 velocity=100 time=0
the msg is note_off channel=0 note=72 velocity=0 time=4
the msg is note_on channel=0 note=72 velocity=100 time=0
the msg is note_off channel=0 note=74 velocity=0 time=12
the msg is note_on channel=0 note=74 velocity=100 time=0
the msg is note_off channel=0 note=74 velocity=0 time=34
the msg is note_on channel=0 note=74 velocity=100 time=0
the msg is note_off channel=0 note=74 velocity=0 time=17
the msg is note_on channel=0 note=74 velocity=100 time=0
the msg is note_off channel=0 note=74 velocity=0 time=17
the msg is note_on channel=0 note=74 velocity=100 time=0
the msg is note_off channel=0 note=71 velocity=0 time=17
the msg is note_on channel=0 note=71 velocity=100 time=0
the msg is note_off channel=0 note=74 velocity=0 time=17
the msg is note_on channel=0 note=74 velocity=100 time=0
the msg is note_off channel=0 note=74 velocity=0 time=34
the msg is note_on channel=0 note=74 velocity=100 time=0
the msg is note_off channel=0 note=72 velocity=0 time=4
the msg is note_on channel=0 note=72 velocity=100 time=0
the msg is note_off channel=0 note=74 velocity=0 time=29
the msg is note_on channel=0 note=74 velocity=100 time=0
the msg is note_off channel=0 note=74 velocity=0 time=21
the msg is note_on channel=0 note=74 velocity=100 time=0
the msg is note_off channel=0 note=74 velocity=0 time=12
the msg is note_on channel=0 note=74 velocity=100 time=0
the msg is note_off channel=0 note=71 velocity=0 time=17
the msg is note_on channel=0 note=71 velocity=100 time=0
the msg is note_off channel=0 note=74 velocity=0 time=8
the msg is note_on channel=0 note=74 velocity=100 time=0
the msg is note_off channel=0 note=76 velocity=0 time=25
the msg is note_on channel=0 note=76 velocity=100 time=0
the msg is note_off channel=0 note=79 velocity=0 time=25
the msg is note_on channel=0 note=79 velocity=100 time=0
the msg is note_off channel=0 note=72 velocity=0 time=12
the msg is note_on channel=0 note=72 velocity=100 time=0
the msg is note_off channel=0 note=72 velocity=0 time=12
the msg is note_on channel=0 note=72 velocity=100 time=0
the msg is note_off channel=0 note=72 velocity=0 time=12
the msg is note_on channel=0 note=72 velocity=100 time=0
the msg is note_off channel=0 note=72 velocity=0 time=25
the msg is note_on channel=0 note=72 velocity=100 time=0
the msg is note_off channel=0 note=72 velocity=0 time=12
the msg is note_on channel=0 note=72 velocity=100 time=0
the msg is note_off channel=0 note=72 velocity=0 time=12
the msg is note_on channel=0 note=72 velocity=100 time=0
the msg is <meta message end_of_track time=51>
the msg is <meta message track_name name='Acoustic Guitar' time=0>
the msg is program_change channel=0 program=24 time=0
the msg is note_off channel=0 note=69 velocity=0 time=0
the msg is pitchwheel channel=0 pitch=0 time=0
the msg is program_change channel=0 program=24 time=0
the msg is <meta message set_tempo tempo=500000 time=0>
the msg is <meta message time_signature numerator=4 denominator=4 clocks_per_click=24 notated_32nd_notes_per_beat=8 time=0>
the msg is note_on channel=0 note=69 velocity=100 time=0
the msg is note_off channel=0 note=72 velocity=0 time=166
the msg is note_on channel=0 note=72 velocity=100 time=0
the msg is note_off channel=0 note=72 velocity=0 time=12
the msg is note_on channel=0 note=72 velocity=100 time=0
the msg is note_off channel=0 note=72 velocity=0 time=12
the msg is note_on channel=0 note=72 velocity=100 time=0
the msg is note_off channel=0 note=72 velocity=0 time=25
the msg is note_on channel=0 note=72 velocity=100 time=0
the msg is note_off channel=0 note=74 velocity=0 time=25
the msg is note_on channel=0 note=74 velocity=100 time=0
the msg is note_off channel=0 note=74 velocity=0 time=12
the msg is note_on channel=0 note=74 velocity=100 time=0
the msg is note_off channel=0 note=71 velocity=0 time=12
the msg is note_on channel=0 note=71 velocity=100 time=0
the msg is note_off channel=0 note=74 velocity=0 time=25
the msg is note_on channel=0 note=74 velocity=100 time=0
the msg is note_off channel=0 note=74 velocity=0 time=12
the msg is note_on channel=0 note=74 velocity=100 time=0
the msg is note_off channel=0 note=71 velocity=0 time=12
the msg is note_on channel=0 note=71 velocity=100 time=0
the msg is note_off channel=0 note=71 velocity=0 time=12
the msg is note_on channel=0 note=71 velocity=100 time=0
the msg is note_off channel=0 note=69 velocity=0 time=12
the msg is note_on channel=0 note=69 velocity=100 time=0
the msg is note_off channel=0 note=72 velocity=0 time=115
the msg is note_on channel=0 note=72 velocity=100 time=0
the msg is note_off channel=0 note=72 velocity=0 time=34
the msg is note_on channel=0 note=72 velocity=100 time=0
the msg is note_off channel=0 note=72 velocity=0 time=4
the msg is note_on channel=0 note=72 velocity=100 time=0
the msg is note_off channel=0 note=72 velocity=0 time=12
the msg is note_on channel=0 note=72 velocity=100 time=0
the msg is note_off channel=0 note=72 velocity=0 time=17
the msg is note_on channel=0 note=72 velocity=100 time=0
the msg is note_off channel=0 note=76 velocity=0 time=17
the msg is note_on channel=0 note=76 velocity=100 time=0
the msg is note_off channel=0 note=79 velocity=0 time=17
the msg is note_on channel=0 note=79 velocity=100 time=0
the msg is note_off channel=0 note=76 velocity=0 time=34
the msg is note_on channel=0 note=76 velocity=100 time=0
the msg is note_off channel=0 note=79 velocity=0 time=17
the msg is note_on channel=0 note=79 velocity=100 time=0
the msg is note_off channel=0 note=79 velocity=0 time=17
the msg is note_on channel=0 note=79 velocity=100 time=0
the msg is note_off channel=0 note=76 velocity=0 time=17
the msg is note_on channel=0 note=76 velocity=100 time=0
the msg is note_off channel=0 note=74 velocity=0 time=4
the msg is note_on channel=0 note=74 velocity=100 time=0
the msg is note_off channel=0 note=72 velocity=0 time=12
the msg is note_on channel=0 note=72 velocity=100 time=0
the msg is note_off channel=0 note=74 velocity=0 time=34
the msg is note_on channel=0 note=74 velocity=100 time=0
the msg is note_off channel=0 note=74 velocity=0 time=17
the msg is note_on channel=0 note=74 velocity=100 time=0
the msg is note_off channel=0 note=74 velocity=0 time=34
the msg is note_on channel=0 note=74 velocity=100 time=0
the msg is note_off channel=0 note=76 velocity=0 time=17
the msg is note_on channel=0 note=76 velocity=100 time=0
the msg is note_off channel=0 note=79 velocity=0 time=34
the msg is note_on channel=0 note=79 velocity=100 time=0
the msg is note_off channel=0 note=79 velocity=0 time=17
the msg is note_off channel=0 note=76 velocity=0 time=0
the msg is note_on channel=0 note=79 velocity=100 time=0
the msg is note_on channel=0 note=76 velocity=100 time=0
the msg is note_off channel=0 note=74 velocity=0 time=25
the msg is note_on channel=0 note=74 velocity=100 time=0
the msg is note_off channel=0 note=72 velocity=0 time=8
the msg is note_on channel=0 note=72 velocity=100 time=0
the msg is note_off channel=0 note=74 velocity=0 time=17
the msg is note_on channel=0 note=74 velocity=100 time=0
the msg is note_off channel=0 note=76 velocity=0 time=34
the msg is note_on channel=0 note=76 velocity=100 time=0
the msg is note_off channel=0 note=72 velocity=0 time=4
the msg is note_on channel=0 note=72 velocity=100 time=0
the msg is note_off channel=0 note=74 velocity=0 time=12
the msg is note_on channel=0 note=74 velocity=100 time=0
the msg is note_off channel=0 note=74 velocity=0 time=34
the msg is note_on channel=0 note=74 velocity=100 time=0
the msg is note_off channel=0 note=74 velocity=0 time=17
the msg is note_on channel=0 note=74 velocity=100 time=0
the msg is note_off channel=0 note=74 velocity=0 time=17
the msg is note_on channel=0 note=74 velocity=100 time=0
the msg is note_off channel=0 note=71 velocity=0 time=17
the msg is note_on channel=0 note=71 velocity=100 time=0
the msg is note_off channel=0 note=74 velocity=0 time=17
the msg is note_on channel=0 note=74 velocity=100 time=0
the msg is note_off channel=0 note=74 velocity=0 time=34
the msg is note_on channel=0 note=74 velocity=100 time=0
the msg is note_off channel=0 note=72 velocity=0 time=4
the msg is note_on channel=0 note=72 velocity=100 time=0
the msg is note_off channel=0 note=74 velocity=0 time=29
the msg is note_on channel=0 note=74 velocity=100 time=0
the msg is note_off channel=0 note=74 velocity=0 time=21
the msg is note_on channel=0 note=74 velocity=100 time=0
the msg is note_off channel=0 note=74 velocity=0 time=12
the msg is note_on channel=0 note=74 velocity=100 time=0
the msg is note_off channel=0 note=71 velocity=0 time=17
the msg is note_on channel=0 note=71 velocity=100 time=0
the msg is note_off channel=0 note=74 velocity=0 time=8
the msg is note_on channel=0 note=74 velocity=100 time=0
the msg is note_off channel=0 note=76 velocity=0 time=25
the msg is note_on channel=0 note=76 velocity=100 time=0
the msg is note_off channel=0 note=79 velocity=0 time=25
the msg is note_on channel=0 note=79 velocity=100 time=0
the msg is note_off channel=0 note=72 velocity=0 time=12
the msg is note_on channel=0 note=72 velocity=100 time=0
the msg is note_off channel=0 note=72 velocity=0 time=12
the msg is note_on channel=0 note=72 velocity=100 time=0
the msg is note_off channel=0 note=72 velocity=0 time=12
the msg is note_on channel=0 note=72 velocity=100 time=0
the msg is note_off channel=0 note=72 velocity=0 time=25
the msg is note_on channel=0 note=72 velocity=100 time=0
the msg is note_off channel=0 note=72 velocity=0 time=12
the msg is note_on channel=0 note=72 velocity=100 time=0
the msg is note_off channel=0 note=72 velocity=0 time=12
the msg is note_on channel=0 note=72 velocity=100 time=0
the msg is <meta message end_of_track time=51>
the msg is <meta message track_name name='Acoustic Guitar' time=0>
the msg is program_change channel=0 program=24 time=0
the msg is note_off channel=0 note=69 velocity=0 time=0
the msg is pitchwheel channel=0 pitch=0 time=0
the msg is program_change channel=0 program=24 time=0
the msg is <meta message set_tempo tempo=500000 time=0>
the msg is <meta message time_signature numerator=4 denominator=4 clocks_per_click=24 notated_32nd_notes_per_beat=8 time=0>
the msg is note_on channel=0 note=69 velocity=100 time=0
the msg is note_off channel=0 note=72 velocity=0 time=166
the msg is note_on channel=0 note=72 velocity=100 time=0
the msg is note_off channel=0 note=72 velocity=0 time=12
the msg is note_on channel=0 note=72 velocity=100 time=0
the msg is note_off channel=0 note=72 velocity=0 time=12
the msg is note_on channel=0 note=72 velocity=100 time=0
the msg is note_off channel=0 note=72 velocity=0 time=25
the msg is note_on channel=0 note=72 velocity=100 time=0
the msg is note_off channel=0 note=74 velocity=0 time=25
the msg is note_on channel=0 note=74 velocity=100 time=0
the msg is note_off channel=0 note=74 velocity=0 time=12
the msg is note_on channel=0 note=74 velocity=100 time=0
the msg is note_off channel=0 note=71 velocity=0 time=12
the msg is note_on channel=0 note=71 velocity=100 time=0
the msg is note_off channel=0 note=74 velocity=0 time=25
the msg is note_on channel=0 note=74 velocity=100 time=0
the msg is note_off channel=0 note=74 velocity=0 time=12
the msg is note_on channel=0 note=74 velocity=100 time=0
the msg is note_off channel=0 note=71 velocity=0 time=12
the msg is note_on channel=0 note=71 velocity=100 time=0
the msg is note_off channel=0 note=71 velocity=0 time=12
the msg is note_on channel=0 note=71 velocity=100 time=0
the msg is note_off channel=0 note=69 velocity=0 time=12
the msg is note_on channel=0 note=69 velocity=100 time=0
the msg is note_off channel=0 note=72 velocity=0 time=115
the msg is note_on channel=0 note=72 velocity=100 time=0
the msg is note_off channel=0 note=72 velocity=0 time=34
the msg is note_on channel=0 note=72 velocity=100 time=0
the msg is note_off channel=0 note=72 velocity=0 time=4
the msg is note_on channel=0 note=72 velocity=100 time=0
the msg is note_off channel=0 note=72 velocity=0 time=12
the msg is note_on channel=0 note=72 velocity=100 time=0
the msg is note_off channel=0 note=72 velocity=0 time=17
the msg is note_on channel=0 note=72 velocity=100 time=0
the msg is note_off channel=0 note=76 velocity=0 time=17
the msg is note_on channel=0 note=76 velocity=100 time=0
the msg is note_off channel=0 note=79 velocity=0 time=17
the msg is note_on channel=0 note=79 velocity=100 time=0
the msg is note_off channel=0 note=76 velocity=0 time=34
the msg is note_on channel=0 note=76 velocity=100 time=0
the msg is note_off channel=0 note=79 velocity=0 time=17
the msg is note_on channel=0 note=79 velocity=100 time=0
the msg is note_off channel=0 note=79 velocity=0 time=17
the msg is note_on channel=0 note=79 velocity=100 time=0
the msg is note_off channel=0 note=76 velocity=0 time=17
the msg is note_on channel=0 note=76 velocity=100 time=0
the msg is note_off channel=0 note=74 velocity=0 time=4
the msg is note_on channel=0 note=74 velocity=100 time=0
the msg is note_off channel=0 note=72 velocity=0 time=12
the msg is note_on channel=0 note=72 velocity=100 time=0
the msg is note_off channel=0 note=74 velocity=0 time=34
the msg is note_on channel=0 note=74 velocity=100 time=0
the msg is note_off channel=0 note=74 velocity=0 time=17
the msg is note_on channel=0 note=74 velocity=100 time=0
the msg is note_off channel=0 note=74 velocity=0 time=34
the msg is note_on channel=0 note=74 velocity=100 time=0
the msg is note_off channel=0 note=76 velocity=0 time=17
the msg is note_on channel=0 note=76 velocity=100 time=0
the msg is note_off channel=0 note=79 velocity=0 time=34
the msg is note_on channel=0 note=79 velocity=100 time=0
the msg is note_off channel=0 note=79 velocity=0 time=17
the msg is note_off channel=0 note=76 velocity=0 time=0
the msg is note_on channel=0 note=79 velocity=100 time=0
the msg is note_on channel=0 note=76 velocity=100 time=0
the msg is note_off channel=0 note=74 velocity=0 time=25
the msg is note_on channel=0 note=74 velocity=100 time=0
the msg is note_off channel=0 note=72 velocity=0 time=8
the msg is note_on channel=0 note=72 velocity=100 time=0
the msg is note_off channel=0 note=74 velocity=0 time=17
the msg is note_on channel=0 note=74 velocity=100 time=0
the msg is note_off channel=0 note=76 velocity=0 time=34
the msg is note_on channel=0 note=76 velocity=100 time=0
the msg is note_off channel=0 note=72 velocity=0 time=4
the msg is note_on channel=0 note=72 velocity=100 time=0
the msg is note_off channel=0 note=74 velocity=0 time=12
the msg is note_on channel=0 note=74 velocity=100 time=0
the msg is note_off channel=0 note=74 velocity=0 time=34
the msg is note_on channel=0 note=74 velocity=100 time=0
the msg is note_off channel=0 note=74 velocity=0 time=17
the msg is note_on channel=0 note=74 velocity=100 time=0
the msg is note_off channel=0 note=74 velocity=0 time=17
the msg is note_on channel=0 note=74 velocity=100 time=0
the msg is note_off channel=0 note=71 velocity=0 time=17
the msg is note_on channel=0 note=71 velocity=100 time=0
the msg is note_off channel=0 note=74 velocity=0 time=17
the msg is note_on channel=0 note=74 velocity=100 time=0
the msg is note_off channel=0 note=74 velocity=0 time=34
the msg is note_on channel=0 note=74 velocity=100 time=0
the msg is note_off channel=0 note=72 velocity=0 time=4
the msg is note_on channel=0 note=72 velocity=100 time=0
the msg is note_off channel=0 note=74 velocity=0 time=29
the msg is note_on channel=0 note=74 velocity=100 time=0
the msg is note_off channel=0 note=74 velocity=0 time=21
the msg is note_on channel=0 note=74 velocity=100 time=0
the msg is note_off channel=0 note=74 velocity=0 time=12
the msg is note_on channel=0 note=74 velocity=100 time=0
the msg is note_off channel=0 note=71 velocity=0 time=17
the msg is note_on channel=0 note=71 velocity=100 time=0
the msg is note_off channel=0 note=74 velocity=0 time=8
the msg is note_on channel=0 note=74 velocity=100 time=0
the msg is note_off channel=0 note=76 velocity=0 time=25
the msg is note_on channel=0 note=76 velocity=100 time=0
the msg is note_off channel=0 note=79 velocity=0 time=25
the msg is note_on channel=0 note=79 velocity=100 time=0
the msg is note_off channel=0 note=72 velocity=0 time=12
the msg is note_on channel=0 note=72 velocity=100 time=0
the msg is note_off channel=0 note=72 velocity=0 time=12
the msg is note_on channel=0 note=72 velocity=100 time=0
the msg is note_off channel=0 note=72 velocity=0 time=12
the msg is note_on channel=0 note=72 velocity=100 time=0
the msg is note_off channel=0 note=72 velocity=0 time=25
the msg is note_on channel=0 note=72 velocity=100 time=0
the msg is note_off channel=0 note=72 velocity=0 time=12
the msg is note_on channel=0 note=72 velocity=100 time=0
the msg is note_off channel=0 note=72 velocity=0 time=12
the msg is note_on channel=0 note=72 velocity=100 time=0
the msg is <meta message end_of_track time=51>
the msg is <meta message track_name name='Acoustic Guitar' time=0>
the msg is program_change channel=0 program=24 time=0
the msg is note_off channel=0 note=69 velocity=0 time=0
the msg is pitchwheel channel=0 pitch=0 time=0
the msg is program_change channel=0 program=24 time=0
the msg is <meta message set_tempo tempo=500000 time=0>
the msg is <meta message time_signature numerator=4 denominator=4 clocks_per_click=24 notated_32nd_notes_per_beat=8 time=0>
the msg is note_on channel=0 note=69 velocity=100 time=0
the msg is note_off channel=0 note=72 velocity=0 time=166
the msg is note_on channel=0 note=72 velocity=100 time=0
the msg is note_off channel=0 note=72 velocity=0 time=12
the msg is note_on channel=0 note=72 velocity=100 time=0
the msg is note_off channel=0 note=72 velocity=0 time=12
the msg is note_on channel=0 note=72 velocity=100 time=0
the msg is note_off channel=0 note=72 velocity=0 time=25
the msg is note_on channel=0 note=72 velocity=100 time=0
the msg is note_off channel=0 note=74 velocity=0 time=25
the msg is note_on channel=0 note=74 velocity=100 time=0
the msg is note_off channel=0 note=74 velocity=0 time=12
the msg is note_on channel=0 note=74 velocity=100 time=0
the msg is note_off channel=0 note=71 velocity=0 time=12
the msg is note_on channel=0 note=71 velocity=100 time=0
the msg is note_off channel=0 note=74 velocity=0 time=25
the msg is note_on channel=0 note=74 velocity=100 time=0
the msg is note_off channel=0 note=74 velocity=0 time=12
the msg is note_on channel=0 note=74 velocity=100 time=0
the msg is note_off channel=0 note=71 velocity=0 time=12
the msg is note_on channel=0 note=71 velocity=100 time=0
the msg is note_off channel=0 note=71 velocity=0 time=12
the msg is note_on channel=0 note=71 velocity=100 time=0
the msg is note_off channel=0 note=69 velocity=0 time=12
the msg is note_on channel=0 note=69 velocity=100 time=0
the msg is note_off channel=0 note=72 velocity=0 time=115
the msg is note_on channel=0 note=72 velocity=100 time=0
the msg is note_off channel=0 note=72 velocity=0 time=34
the msg is note_on channel=0 note=72 velocity=100 time=0
the msg is note_off channel=0 note=72 velocity=0 time=4
the msg is note_on channel=0 note=72 velocity=100 time=0
the msg is note_off channel=0 note=72 velocity=0 time=12
the msg is note_on channel=0 note=72 velocity=100 time=0
the msg is note_off channel=0 note=72 velocity=0 time=17
the msg is note_on channel=0 note=72 velocity=100 time=0
the msg is note_off channel=0 note=76 velocity=0 time=17
the msg is note_on channel=0 note=76 velocity=100 time=0
the msg is note_off channel=0 note=79 velocity=0 time=17
the msg is note_on channel=0 note=79 velocity=100 time=0
the msg is note_off channel=0 note=76 velocity=0 time=34
the msg is note_on channel=0 note=76 velocity=100 time=0
the msg is note_off channel=0 note=79 velocity=0 time=17
the msg is note_on channel=0 note=79 velocity=100 time=0
the msg is note_off channel=0 note=79 velocity=0 time=17
the msg is note_on channel=0 note=79 velocity=100 time=0
the msg is note_off channel=0 note=76 velocity=0 time=17
the msg is note_on channel=0 note=76 velocity=100 time=0
the msg is note_off channel=0 note=74 velocity=0 time=4
the msg is note_on channel=0 note=74 velocity=100 time=0
the msg is note_off channel=0 note=72 velocity=0 time=12
the msg is note_on channel=0 note=72 velocity=100 time=0
the msg is note_off channel=0 note=74 velocity=0 time=34
the msg is note_on channel=0 note=74 velocity=100 time=0
the msg is note_off channel=0 note=74 velocity=0 time=17
the msg is note_on channel=0 note=74 velocity=100 time=0
the msg is note_off channel=0 note=74 velocity=0 time=34
the msg is note_on channel=0 note=74 velocity=100 time=0
the msg is note_off channel=0 note=76 velocity=0 time=17
the msg is note_on channel=0 note=76 velocity=100 time=0
the msg is note_off channel=0 note=79 velocity=0 time=34
the msg is note_on channel=0 note=79 velocity=100 time=0
the msg is note_off channel=0 note=79 velocity=0 time=17
the msg is note_off channel=0 note=76 velocity=0 time=0
the msg is note_on channel=0 note=79 velocity=100 time=0
the msg is note_on channel=0 note=76 velocity=100 time=0
the msg is note_off channel=0 note=74 velocity=0 time=25
the msg is note_on channel=0 note=74 velocity=100 time=0
the msg is note_off channel=0 note=72 velocity=0 time=8
the msg is note_on channel=0 note=72 velocity=100 time=0
the msg is note_off channel=0 note=74 velocity=0 time=17
the msg is note_on channel=0 note=74 velocity=100 time=0
the msg is note_off channel=0 note=76 velocity=0 time=34
the msg is note_on channel=0 note=76 velocity=100 time=0
the msg is note_off channel=0 note=72 velocity=0 time=4
the msg is note_on channel=0 note=72 velocity=100 time=0
the msg is note_off channel=0 note=74 velocity=0 time=12
the msg is note_on channel=0 note=74 velocity=100 time=0
the msg is note_off channel=0 note=74 velocity=0 time=34
the msg is note_on channel=0 note=74 velocity=100 time=0
the msg is note_off channel=0 note=74 velocity=0 time=17
the msg is note_on channel=0 note=74 velocity=100 time=0
the msg is note_off channel=0 note=74 velocity=0 time=17
the msg is note_on channel=0 note=74 velocity=100 time=0
the msg is note_off channel=0 note=71 velocity=0 time=17
the msg is note_on channel=0 note=71 velocity=100 time=0
the msg is note_off channel=0 note=74 velocity=0 time=17
the msg is note_on channel=0 note=74 velocity=100 time=0
the msg is note_off channel=0 note=74 velocity=0 time=34
the msg is note_on channel=0 note=74 velocity=100 time=0
the msg is note_off channel=0 note=72 velocity=0 time=4
the msg is note_on channel=0 note=72 velocity=100 time=0
the msg is note_off channel=0 note=74 velocity=0 time=29
the msg is note_on channel=0 note=74 velocity=100 time=0
the msg is note_off channel=0 note=74 velocity=0 time=21
the msg is note_on channel=0 note=74 velocity=100 time=0
the msg is note_off channel=0 note=74 velocity=0 time=12
the msg is note_on channel=0 note=74 velocity=100 time=0
the msg is note_off channel=0 note=71 velocity=0 time=17
the msg is note_on channel=0 note=71 velocity=100 time=0
the msg is note_off channel=0 note=74 velocity=0 time=8
the msg is note_on channel=0 note=74 velocity=100 time=0
the msg is note_off channel=0 note=76 velocity=0 time=25
the msg is note_on channel=0 note=76 velocity=100 time=0
the msg is note_off channel=0 note=79 velocity=0 time=25
the msg is note_on channel=0 note=79 velocity=100 time=0
the msg is note_off channel=0 note=72 velocity=0 time=12
the msg is note_on channel=0 note=72 velocity=100 time=0
the msg is note_off channel=0 note=72 velocity=0 time=12
the msg is note_on channel=0 note=72 velocity=100 time=0
the msg is note_off channel=0 note=72 velocity=0 time=12
the msg is note_on channel=0 note=72 velocity=100 time=0
the msg is note_off channel=0 note=72 velocity=0 time=25
the msg is note_on channel=0 note=72 velocity=100 time=0
the msg is note_off channel=0 note=72 velocity=0 time=12
the msg is note_on channel=0 note=72 velocity=100 time=0
the msg is note_off channel=0 note=72 velocity=0 time=12
the msg is note_on channel=0 note=72 velocity=100 time=0
the msg is <meta message end_of_track time=51>
the msg is <meta message track_name name='Acoustic Guitar' time=0>
the msg is program_change channel=0 program=24 time=0
the msg is note_off channel=0 note=69 velocity=0 time=0
the msg is pitchwheel channel=0 pitch=0 time=0
the msg is program_change channel=0 program=24 time=0
the msg is <meta message set_tempo tempo=500000 time=0>
the msg is <meta message time_signature numerator=4 denominator=4 clocks_per_click=24 notated_32nd_notes_per_beat=8 time=0>
the msg is note_on channel=0 note=69 velocity=100 time=0
the msg is note_off channel=0 note=72 velocity=0 time=166
the msg is note_on channel=0 note=72 velocity=100 time=0
the msg is note_off channel=0 note=72 velocity=0 time=12
the msg is note_on channel=0 note=72 velocity=100 time=0
the msg is note_off channel=0 note=72 velocity=0 time=12
the msg is note_on channel=0 note=72 velocity=100 time=0
the msg is note_off channel=0 note=72 velocity=0 time=25
the msg is note_on channel=0 note=72 velocity=100 time=0
the msg is note_off channel=0 note=74 velocity=0 time=25
the msg is note_on channel=0 note=74 velocity=100 time=0
the msg is note_off channel=0 note=74 velocity=0 time=12
the msg is note_on channel=0 note=74 velocity=100 time=0
the msg is note_off channel=0 note=71 velocity=0 time=12
the msg is note_on channel=0 note=71 velocity=100 time=0
the msg is note_off channel=0 note=74 velocity=0 time=25
the msg is note_on channel=0 note=74 velocity=100 time=0
the msg is note_off channel=0 note=74 velocity=0 time=12
the msg is note_on channel=0 note=74 velocity=100 time=0
the msg is note_off channel=0 note=71 velocity=0 time=12
the msg is note_on channel=0 note=71 velocity=100 time=0
the msg is note_off channel=0 note=71 velocity=0 time=12
the msg is note_on channel=0 note=71 velocity=100 time=0
the msg is note_off channel=0 note=69 velocity=0 time=12
the msg is note_on channel=0 note=69 velocity=100 time=0
the msg is note_off channel=0 note=72 velocity=0 time=115
the msg is note_on channel=0 note=72 velocity=100 time=0
the msg is note_off channel=0 note=72 velocity=0 time=34
the msg is note_on channel=0 note=72 velocity=100 time=0
the msg is note_off channel=0 note=72 velocity=0 time=4
the msg is note_on channel=0 note=72 velocity=100 time=0
the msg is note_off channel=0 note=72 velocity=0 time=12
the msg is note_on channel=0 note=72 velocity=100 time=0
the msg is note_off channel=0 note=72 velocity=0 time=17
the msg is note_on channel=0 note=72 velocity=100 time=0
the msg is note_off channel=0 note=76 velocity=0 time=17
the msg is note_on channel=0 note=76 velocity=100 time=0
the msg is note_off channel=0 note=79 velocity=0 time=17
the msg is note_on channel=0 note=79 velocity=100 time=0
the msg is note_off channel=0 note=76 velocity=0 time=34
the msg is note_on channel=0 note=76 velocity=100 time=0
the msg is note_off channel=0 note=79 velocity=0 time=17
the msg is note_on channel=0 note=79 velocity=100 time=0
the msg is note_off channel=0 note=79 velocity=0 time=17
the msg is note_on channel=0 note=79 velocity=100 time=0
the msg is note_off channel=0 note=76 velocity=0 time=17
the msg is note_on channel=0 note=76 velocity=100 time=0
the msg is note_off channel=0 note=74 velocity=0 time=4
the msg is note_on channel=0 note=74 velocity=100 time=0
the msg is note_off channel=0 note=72 velocity=0 time=12
the msg is note_on channel=0 note=72 velocity=100 time=0
the msg is note_off channel=0 note=74 velocity=0 time=34
the msg is note_on channel=0 note=74 velocity=100 time=0
the msg is note_off channel=0 note=74 velocity=0 time=17
the msg is note_on channel=0 note=74 velocity=100 time=0
the msg is note_off channel=0 note=74 velocity=0 time=34
the msg is note_on channel=0 note=74 velocity=100 time=0
the msg is note_off channel=0 note=76 velocity=0 time=17
the msg is note_on channel=0 note=76 velocity=100 time=0
the msg is note_off channel=0 note=79 velocity=0 time=34
the msg is note_on channel=0 note=79 velocity=100 time=0
the msg is note_off channel=0 note=79 velocity=0 time=17
the msg is note_off channel=0 note=76 velocity=0 time=0
the msg is note_on channel=0 note=79 velocity=100 time=0
the msg is note_on channel=0 note=76 velocity=100 time=0
the msg is note_off channel=0 note=74 velocity=0 time=25
the msg is note_on channel=0 note=74 velocity=100 time=0
the msg is note_off channel=0 note=72 velocity=0 time=8
the msg is note_on channel=0 note=72 velocity=100 time=0
the msg is note_off channel=0 note=74 velocity=0 time=17
the msg is note_on channel=0 note=74 velocity=100 time=0
the msg is note_off channel=0 note=76 velocity=0 time=34
the msg is note_on channel=0 note=76 velocity=100 time=0
the msg is note_off channel=0 note=72 velocity=0 time=4
the msg is note_on channel=0 note=72 velocity=100 time=0
the msg is note_off channel=0 note=74 velocity=0 time=12
the msg is note_on channel=0 note=74 velocity=100 time=0
the msg is note_off channel=0 note=74 velocity=0 time=34
the msg is note_on channel=0 note=74 velocity=100 time=0
the msg is note_off channel=0 note=74 velocity=0 time=17
the msg is note_on channel=0 note=74 velocity=100 time=0
the msg is note_off channel=0 note=74 velocity=0 time=17
the msg is note_on channel=0 note=74 velocity=100 time=0
the msg is note_off channel=0 note=71 velocity=0 time=17
the msg is note_on channel=0 note=71 velocity=100 time=0
the msg is note_off channel=0 note=74 velocity=0 time=17
the msg is note_on channel=0 note=74 velocity=100 time=0
the msg is note_off channel=0 note=74 velocity=0 time=34
the msg is note_on channel=0 note=74 velocity=100 time=0
the msg is note_off channel=0 note=72 velocity=0 time=4
the msg is note_on channel=0 note=72 velocity=100 time=0
the msg is note_off channel=0 note=74 velocity=0 time=29
the msg is note_on channel=0 note=74 velocity=100 time=0
the msg is note_off channel=0 note=74 velocity=0 time=21
the msg is note_on channel=0 note=74 velocity=100 time=0
the msg is note_off channel=0 note=74 velocity=0 time=12
the msg is note_on channel=0 note=74 velocity=100 time=0
the msg is note_off channel=0 note=71 velocity=0 time=17
the msg is note_on channel=0 note=71 velocity=100 time=0
the msg is note_off channel=0 note=74 velocity=0 time=8
the msg is note_on channel=0 note=74 velocity=100 time=0
the msg is note_off channel=0 note=76 velocity=0 time=25
the msg is note_on channel=0 note=76 velocity=100 time=0
the msg is note_off channel=0 note=79 velocity=0 time=25
the msg is note_on channel=0 note=79 velocity=100 time=0
the msg is note_off channel=0 note=72 velocity=0 time=12
the msg is note_on channel=0 note=72 velocity=100 time=0
the msg is note_off channel=0 note=72 velocity=0 time=12
the msg is note_on channel=0 note=72 velocity=100 time=0
the msg is note_off channel=0 note=72 velocity=0 time=12
the msg is note_on channel=0 note=72 velocity=100 time=0
the msg is note_off channel=0 note=72 velocity=0 time=25
the msg is note_on channel=0 note=72 velocity=100 time=0
the msg is note_off channel=0 note=72 velocity=0 time=12
the msg is note_on channel=0 note=72 velocity=100 time=0
the msg is note_off channel=0 note=72 velocity=0 time=12
the msg is note_on channel=0 note=72 velocity=100 time=0
the msg is <meta message end_of_track time=51>
the msg is <meta message track_name name='Acoustic Guitar' time=0>
the msg is program_change channel=0 program=24 time=0
the msg is note_off channel=0 note=69 velocity=0 time=0
the msg is pitchwheel channel=0 pitch=0 time=0
the msg is program_change channel=0 program=24 time=0
the msg is <meta message set_tempo tempo=500000 time=0>
the msg is <meta message time_signature numerator=4 denominator=4 clocks_per_click=24 notated_32nd_notes_per_beat=8 time=0>
the msg is note_on channel=0 note=69 velocity=100 time=0
the msg is note_off channel=0 note=72 velocity=0 time=166
the msg is note_on channel=0 note=72 velocity=100 time=0
the msg is note_off channel=0 note=72 velocity=0 time=12
the msg is note_on channel=0 note=72 velocity=100 time=0
the msg is note_off channel=0 note=72 velocity=0 time=12
the msg is note_on channel=0 note=72 velocity=100 time=0
the msg is note_off channel=0 note=72 velocity=0 time=25
the msg is note_on channel=0 note=72 velocity=100 time=0
the msg is note_off channel=0 note=74 velocity=0 time=25
the msg is note_on channel=0 note=74 velocity=100 time=0
the msg is note_off channel=0 note=74 velocity=0 time=12
the msg is note_on channel=0 note=74 velocity=100 time=0
the msg is note_off channel=0 note=71 velocity=0 time=12
the msg is note_on channel=0 note=71 velocity=100 time=0
the msg is note_off channel=0 note=74 velocity=0 time=25
the msg is note_on channel=0 note=74 velocity=100 time=0
the msg is note_off channel=0 note=74 velocity=0 time=12
the msg is note_on channel=0 note=74 velocity=100 time=0
the msg is note_off channel=0 note=71 velocity=0 time=12
the msg is note_on channel=0 note=71 velocity=100 time=0
the msg is note_off channel=0 note=71 velocity=0 time=12
the msg is note_on channel=0 note=71 velocity=100 time=0
the msg is note_off channel=0 note=69 velocity=0 time=12
the msg is note_on channel=0 note=69 velocity=100 time=0
the msg is note_off channel=0 note=72 velocity=0 time=115
the msg is note_on channel=0 note=72 velocity=100 time=0
the msg is note_off channel=0 note=72 velocity=0 time=34
the msg is note_on channel=0 note=72 velocity=100 time=0
the msg is note_off channel=0 note=72 velocity=0 time=4
the msg is note_on channel=0 note=72 velocity=100 time=0
the msg is note_off channel=0 note=72 velocity=0 time=12
the msg is note_on channel=0 note=72 velocity=100 time=0
the msg is note_off channel=0 note=72 velocity=0 time=17
the msg is note_on channel=0 note=72 velocity=100 time=0
the msg is note_off channel=0 note=76 velocity=0 time=17
the msg is note_on channel=0 note=76 velocity=100 time=0
the msg is note_off channel=0 note=79 velocity=0 time=17
the msg is note_on channel=0 note=79 velocity=100 time=0
the msg is note_off channel=0 note=76 velocity=0 time=34
the msg is note_on channel=0 note=76 velocity=100 time=0
the msg is note_off channel=0 note=79 velocity=0 time=17
the msg is note_on channel=0 note=79 velocity=100 time=0
the msg is note_off channel=0 note=79 velocity=0 time=17
the msg is note_on channel=0 note=79 velocity=100 time=0
the msg is note_off channel=0 note=76 velocity=0 time=17
the msg is note_on channel=0 note=76 velocity=100 time=0
the msg is note_off channel=0 note=74 velocity=0 time=4
the msg is note_on channel=0 note=74 velocity=100 time=0
the msg is note_off channel=0 note=72 velocity=0 time=12
the msg is note_on channel=0 note=72 velocity=100 time=0
the msg is note_off channel=0 note=74 velocity=0 time=34
the msg is note_on channel=0 note=74 velocity=100 time=0
the msg is note_off channel=0 note=74 velocity=0 time=17
the msg is note_on channel=0 note=74 velocity=100 time=0
the msg is note_off channel=0 note=74 velocity=0 time=34
the msg is note_on channel=0 note=74 velocity=100 time=0
the msg is note_off channel=0 note=76 velocity=0 time=17
the msg is note_on channel=0 note=76 velocity=100 time=0
the msg is note_off channel=0 note=79 velocity=0 time=34
the msg is note_on channel=0 note=79 velocity=100 time=0
the msg is note_off channel=0 note=79 velocity=0 time=17
the msg is note_off channel=0 note=76 velocity=0 time=0
the msg is note_on channel=0 note=79 velocity=100 time=0
the msg is note_on channel=0 note=76 velocity=100 time=0
the msg is note_off channel=0 note=74 velocity=0 time=25
the msg is note_on channel=0 note=74 velocity=100 time=0
the msg is note_off channel=0 note=72 velocity=0 time=8
the msg is note_on channel=0 note=72 velocity=100 time=0
the msg is note_off channel=0 note=74 velocity=0 time=17
the msg is note_on channel=0 note=74 velocity=100 time=0
the msg is note_off channel=0 note=76 velocity=0 time=34
the msg is note_on channel=0 note=76 velocity=100 time=0
the msg is note_off channel=0 note=72 velocity=0 time=4
the msg is note_on channel=0 note=72 velocity=100 time=0
the msg is note_off channel=0 note=74 velocity=0 time=12
the msg is note_on channel=0 note=74 velocity=100 time=0
the msg is note_off channel=0 note=74 velocity=0 time=34
the msg is note_on channel=0 note=74 velocity=100 time=0
the msg is note_off channel=0 note=74 velocity=0 time=17
the msg is note_on channel=0 note=74 velocity=100 time=0
the msg is note_off channel=0 note=74 velocity=0 time=17
the msg is note_on channel=0 note=74 velocity=100 time=0
the msg is note_off channel=0 note=71 velocity=0 time=17
the msg is note_on channel=0 note=71 velocity=100 time=0
the msg is note_off channel=0 note=74 velocity=0 time=17
the msg is note_on channel=0 note=74 velocity=100 time=0
the msg is note_off channel=0 note=74 velocity=0 time=34
the msg is note_on channel=0 note=74 velocity=100 time=0
the msg is note_off channel=0 note=72 velocity=0 time=4
the msg is note_on channel=0 note=72 velocity=100 time=0
the msg is note_off channel=0 note=74 velocity=0 time=29
the msg is note_on channel=0 note=74 velocity=100 time=0
the msg is note_off channel=0 note=74 velocity=0 time=21
the msg is note_on channel=0 note=74 velocity=100 time=0
the msg is note_off channel=0 note=74 velocity=0 time=12
the msg is note_on channel=0 note=74 velocity=100 time=0
the msg is note_off channel=0 note=71 velocity=0 time=17
the msg is note_on channel=0 note=71 velocity=100 time=0
the msg is note_off channel=0 note=74 velocity=0 time=8
the msg is note_on channel=0 note=74 velocity=100 time=0
the msg is note_off channel=0 note=76 velocity=0 time=25
the msg is note_on channel=0 note=76 velocity=100 time=0
the msg is note_off channel=0 note=79 velocity=0 time=25
the msg is note_on channel=0 note=79 velocity=100 time=0
the msg is note_off channel=0 note=72 velocity=0 time=12
the msg is note_on channel=0 note=72 velocity=100 time=0
the msg is note_off channel=0 note=72 velocity=0 time=12
the msg is note_on channel=0 note=72 velocity=100 time=0
the msg is note_off channel=0 note=72 velocity=0 time=12
the msg is note_on channel=0 note=72 velocity=100 time=0
the msg is note_off channel=0 note=72 velocity=0 time=25
the msg is note_on channel=0 note=72 velocity=100 time=0
the msg is note_off channel=0 note=72 velocity=0 time=12
the msg is note_on channel=0 note=72 velocity=100 time=0
the msg is note_off channel=0 note=72 velocity=0 time=12
the msg is note_on channel=0 note=72 velocity=100 time=0
the msg is <meta message end_of_track time=51>
the msg is <meta message track_name name='Acoustic Guitar' time=0>
the msg is program_change channel=0 program=24 time=0
the msg is note_off channel=0 note=69 velocity=0 time=0
the msg is pitchwheel channel=0 pitch=0 time=0
the msg is program_change channel=0 program=24 time=0
the msg is <meta message set_tempo tempo=500000 time=0>
the msg is <meta message time_signature numerator=4 denominator=4 clocks_per_click=24 notated_32nd_notes_per_beat=8 time=0>
the msg is note_on channel=0 note=69 velocity=100 time=0
the msg is note_off channel=0 note=72 velocity=0 time=166
the msg is note_on channel=0 note=72 velocity=100 time=0
the msg is note_off channel=0 note=72 velocity=0 time=12
the msg is note_on channel=0 note=72 velocity=100 time=0
the msg is note_off channel=0 note=72 velocity=0 time=12
the msg is note_on channel=0 note=72 velocity=100 time=0
the msg is note_off channel=0 note=72 velocity=0 time=25
the msg is note_on channel=0 note=72 velocity=100 time=0
the msg is note_off channel=0 note=74 velocity=0 time=25
the msg is note_on channel=0 note=74 velocity=100 time=0
the msg is note_off channel=0 note=74 velocity=0 time=12
the msg is note_on channel=0 note=74 velocity=100 time=0
the msg is note_off channel=0 note=71 velocity=0 time=12
the msg is note_on channel=0 note=71 velocity=100 time=0
the msg is note_off channel=0 note=74 velocity=0 time=25
the msg is note_on channel=0 note=74 velocity=100 time=0
the msg is note_off channel=0 note=74 velocity=0 time=12
the msg is note_on channel=0 note=74 velocity=100 time=0
the msg is note_off channel=0 note=71 velocity=0 time=12
the msg is note_on channel=0 note=71 velocity=100 time=0
the msg is note_off channel=0 note=71 velocity=0 time=12
the msg is note_on channel=0 note=71 velocity=100 time=0
the msg is note_off channel=0 note=69 velocity=0 time=12
the msg is note_on channel=0 note=69 velocity=100 time=0
the msg is note_off channel=0 note=72 velocity=0 time=115
the msg is note_on channel=0 note=72 velocity=100 time=0
the msg is note_off channel=0 note=72 velocity=0 time=34
the msg is note_on channel=0 note=72 velocity=100 time=0
the msg is note_off channel=0 note=72 velocity=0 time=4
the msg is note_on channel=0 note=72 velocity=100 time=0
the msg is note_off channel=0 note=72 velocity=0 time=12
the msg is note_on channel=0 note=72 velocity=100 time=0
the msg is note_off channel=0 note=72 velocity=0 time=17
the msg is note_on channel=0 note=72 velocity=100 time=0
the msg is note_off channel=0 note=76 velocity=0 time=17
the msg is note_on channel=0 note=76 velocity=100 time=0
the msg is note_off channel=0 note=79 velocity=0 time=17
the msg is note_on channel=0 note=79 velocity=100 time=0
the msg is note_off channel=0 note=76 velocity=0 time=34
the msg is note_on channel=0 note=76 velocity=100 time=0
the msg is note_off channel=0 note=79 velocity=0 time=17
the msg is note_on channel=0 note=79 velocity=100 time=0
the msg is note_off channel=0 note=79 velocity=0 time=17
the msg is note_on channel=0 note=79 velocity=100 time=0
the msg is note_off channel=0 note=76 velocity=0 time=17
the msg is note_on channel=0 note=76 velocity=100 time=0
the msg is note_off channel=0 note=74 velocity=0 time=4
the msg is note_on channel=0 note=74 velocity=100 time=0
the msg is note_off channel=0 note=72 velocity=0 time=12
the msg is note_on channel=0 note=72 velocity=100 time=0
the msg is note_off channel=0 note=74 velocity=0 time=34
the msg is note_on channel=0 note=74 velocity=100 time=0
the msg is note_off channel=0 note=74 velocity=0 time=17
the msg is note_on channel=0 note=74 velocity=100 time=0
the msg is note_off channel=0 note=74 velocity=0 time=34
the msg is note_on channel=0 note=74 velocity=100 time=0
the msg is note_off channel=0 note=76 velocity=0 time=17
the msg is note_on channel=0 note=76 velocity=100 time=0
the msg is note_off channel=0 note=79 velocity=0 time=34
the msg is note_on channel=0 note=79 velocity=100 time=0
the msg is note_off channel=0 note=79 velocity=0 time=17
the msg is note_off channel=0 note=76 velocity=0 time=0
the msg is note_on channel=0 note=79 velocity=100 time=0
the msg is note_on channel=0 note=76 velocity=100 time=0
the msg is note_off channel=0 note=74 velocity=0 time=25
the msg is note_on channel=0 note=74 velocity=100 time=0
the msg is note_off channel=0 note=72 velocity=0 time=8
the msg is note_on channel=0 note=72 velocity=100 time=0
the msg is note_off channel=0 note=74 velocity=0 time=17
the msg is note_on channel=0 note=74 velocity=100 time=0
the msg is note_off channel=0 note=76 velocity=0 time=34
the msg is note_on channel=0 note=76 velocity=100 time=0
the msg is note_off channel=0 note=72 velocity=0 time=4
the msg is note_on channel=0 note=72 velocity=100 time=0
the msg is note_off channel=0 note=74 velocity=0 time=12
the msg is note_on channel=0 note=74 velocity=100 time=0
the msg is note_off channel=0 note=74 velocity=0 time=34
the msg is note_on channel=0 note=74 velocity=100 time=0
the msg is note_off channel=0 note=74 velocity=0 time=17
the msg is note_on channel=0 note=74 velocity=100 time=0
the msg is note_off channel=0 note=74 velocity=0 time=17
the msg is note_on channel=0 note=74 velocity=100 time=0
the msg is note_off channel=0 note=71 velocity=0 time=17
the msg is note_on channel=0 note=71 velocity=100 time=0
the msg is note_off channel=0 note=74 velocity=0 time=17
the msg is note_on channel=0 note=74 velocity=100 time=0
the msg is note_off channel=0 note=74 velocity=0 time=34
the msg is note_on channel=0 note=74 velocity=100 time=0
the msg is note_off channel=0 note=72 velocity=0 time=4
the msg is note_on channel=0 note=72 velocity=100 time=0
the msg is note_off channel=0 note=74 velocity=0 time=29
the msg is note_on channel=0 note=74 velocity=100 time=0
the msg is note_off channel=0 note=74 velocity=0 time=21
the msg is note_on channel=0 note=74 velocity=100 time=0
the msg is note_off channel=0 note=74 velocity=0 time=12
the msg is note_on channel=0 note=74 velocity=100 time=0
the msg is note_off channel=0 note=71 velocity=0 time=17
the msg is note_on channel=0 note=71 velocity=100 time=0
the msg is note_off channel=0 note=74 velocity=0 time=8
the msg is note_on channel=0 note=74 velocity=100 time=0
the msg is note_off channel=0 note=76 velocity=0 time=25
the msg is note_on channel=0 note=76 velocity=100 time=0
the msg is note_off channel=0 note=79 velocity=0 time=25
the msg is note_on channel=0 note=79 velocity=100 time=0
the msg is note_off channel=0 note=72 velocity=0 time=12
the msg is note_on channel=0 note=72 velocity=100 time=0
the msg is note_off channel=0 note=72 velocity=0 time=12
the msg is note_on channel=0 note=72 velocity=100 time=0
the msg is note_off channel=0 note=72 velocity=0 time=12
the msg is note_on channel=0 note=72 velocity=100 time=0
the msg is note_off channel=0 note=72 velocity=0 time=25
the msg is note_on channel=0 note=72 velocity=100 time=0
the msg is note_off channel=0 note=72 velocity=0 time=12
the msg is note_on channel=0 note=72 velocity=100 time=0
the msg is note_off channel=0 note=72 velocity=0 time=12
the msg is note_on channel=0 note=72 velocity=100 time=0
the msg is <meta message end_of_track time=51>
the msg is <meta message track_name name='Acoustic Guitar' time=0>
the msg is program_change channel=0 program=24 time=0
the msg is note_off channel=0 note=69 velocity=0 time=0
the msg is pitchwheel channel=0 pitch=0 time=0
the msg is program_change channel=0 program=24 time=0
the msg is <meta message set_tempo tempo=500000 time=0>
the msg is <meta message time_signature numerator=4 denominator=4 clocks_per_click=24 notated_32nd_notes_per_beat=8 time=0>
the msg is note_on channel=0 note=69 velocity=100 time=0
the msg is note_off channel=0 note=72 velocity=0 time=166
the msg is note_on channel=0 note=72 velocity=100 time=0
the msg is note_off channel=0 note=72 velocity=0 time=12
the msg is note_on channel=0 note=72 velocity=100 time=0
the msg is note_off channel=0 note=72 velocity=0 time=12
the msg is note_on channel=0 note=72 velocity=100 time=0
the msg is note_off channel=0 note=72 velocity=0 time=25
the msg is note_on channel=0 note=72 velocity=100 time=0
the msg is note_off channel=0 note=74 velocity=0 time=25
the msg is note_on channel=0 note=74 velocity=100 time=0
the msg is note_off channel=0 note=74 velocity=0 time=12
the msg is note_on channel=0 note=74 velocity=100 time=0
the msg is note_off channel=0 note=71 velocity=0 time=12
the msg is note_on channel=0 note=71 velocity=100 time=0
the msg is note_off channel=0 note=74 velocity=0 time=25
the msg is note_on channel=0 note=74 velocity=100 time=0
the msg is note_off channel=0 note=74 velocity=0 time=12
the msg is note_on channel=0 note=74 velocity=100 time=0
the msg is note_off channel=0 note=71 velocity=0 time=12
the msg is note_on channel=0 note=71 velocity=100 time=0
the msg is note_off channel=0 note=71 velocity=0 time=12
the msg is note_on channel=0 note=71 velocity=100 time=0
the msg is note_off channel=0 note=69 velocity=0 time=12
the msg is note_on channel=0 note=69 velocity=100 time=0
the msg is note_off channel=0 note=72 velocity=0 time=115
the msg is note_on channel=0 note=72 velocity=100 time=0
the msg is note_off channel=0 note=72 velocity=0 time=34
the msg is note_on channel=0 note=72 velocity=100 time=0
the msg is note_off channel=0 note=72 velocity=0 time=4
the msg is note_on channel=0 note=72 velocity=100 time=0
the msg is note_off channel=0 note=72 velocity=0 time=12
the msg is note_on channel=0 note=72 velocity=100 time=0
the msg is note_off channel=0 note=72 velocity=0 time=17
the msg is note_on channel=0 note=72 velocity=100 time=0
the msg is note_off channel=0 note=76 velocity=0 time=17
the msg is note_on channel=0 note=76 velocity=100 time=0
the msg is note_off channel=0 note=79 velocity=0 time=17
the msg is note_on channel=0 note=79 velocity=100 time=0
the msg is note_off channel=0 note=76 velocity=0 time=34
the msg is note_on channel=0 note=76 velocity=100 time=0
the msg is note_off channel=0 note=79 velocity=0 time=17
the msg is note_on channel=0 note=79 velocity=100 time=0
the msg is note_off channel=0 note=79 velocity=0 time=17
the msg is note_on channel=0 note=79 velocity=100 time=0
the msg is note_off channel=0 note=76 velocity=0 time=17
the msg is note_on channel=0 note=76 velocity=100 time=0
the msg is note_off channel=0 note=74 velocity=0 time=4
the msg is note_on channel=0 note=74 velocity=100 time=0
the msg is note_off channel=0 note=72 velocity=0 time=12
the msg is note_on channel=0 note=72 velocity=100 time=0
the msg is note_off channel=0 note=74 velocity=0 time=34
the msg is note_on channel=0 note=74 velocity=100 time=0
the msg is note_off channel=0 note=74 velocity=0 time=17
the msg is note_on channel=0 note=74 velocity=100 time=0
the msg is note_off channel=0 note=74 velocity=0 time=34
the msg is note_on channel=0 note=74 velocity=100 time=0
the msg is note_off channel=0 note=76 velocity=0 time=17
the msg is note_on channel=0 note=76 velocity=100 time=0
the msg is note_off channel=0 note=79 velocity=0 time=34
the msg is note_on channel=0 note=79 velocity=100 time=0
the msg is note_off channel=0 note=79 velocity=0 time=17
the msg is note_off channel=0 note=76 velocity=0 time=0
the msg is note_on channel=0 note=79 velocity=100 time=0
the msg is note_on channel=0 note=76 velocity=100 time=0
the msg is note_off channel=0 note=74 velocity=0 time=25
the msg is note_on channel=0 note=74 velocity=100 time=0
the msg is note_off channel=0 note=72 velocity=0 time=8
the msg is note_on channel=0 note=72 velocity=100 time=0
the msg is note_off channel=0 note=74 velocity=0 time=17
the msg is note_on channel=0 note=74 velocity=100 time=0
the msg is note_off channel=0 note=76 velocity=0 time=34
the msg is note_on channel=0 note=76 velocity=100 time=0
the msg is note_off channel=0 note=72 velocity=0 time=4
the msg is note_on channel=0 note=72 velocity=100 time=0
the msg is note_off channel=0 note=74 velocity=0 time=12
the msg is note_on channel=0 note=74 velocity=100 time=0
the msg is note_off channel=0 note=74 velocity=0 time=34
the msg is note_on channel=0 note=74 velocity=100 time=0
the msg is note_off channel=0 note=74 velocity=0 time=17
the msg is note_on channel=0 note=74 velocity=100 time=0
the msg is note_off channel=0 note=74 velocity=0 time=17
the msg is note_on channel=0 note=74 velocity=100 time=0
the msg is note_off channel=0 note=71 velocity=0 time=17
the msg is note_on channel=0 note=71 velocity=100 time=0
the msg is note_off channel=0 note=74 velocity=0 time=17
the msg is note_on channel=0 note=74 velocity=100 time=0
the msg is note_off channel=0 note=74 velocity=0 time=34
the msg is note_on channel=0 note=74 velocity=100 time=0
the msg is note_off channel=0 note=72 velocity=0 time=4
the msg is note_on channel=0 note=72 velocity=100 time=0
the msg is note_off channel=0 note=74 velocity=0 time=29
the msg is note_on channel=0 note=74 velocity=100 time=0
the msg is note_off channel=0 note=74 velocity=0 time=21
the msg is note_on channel=0 note=74 velocity=100 time=0
the msg is note_off channel=0 note=74 velocity=0 time=12
the msg is note_on channel=0 note=74 velocity=100 time=0
the msg is note_off channel=0 note=71 velocity=0 time=17
the msg is note_on channel=0 note=71 velocity=100 time=0
the msg is note_off channel=0 note=74 velocity=0 time=8
the msg is note_on channel=0 note=74 velocity=100 time=0
the msg is note_off channel=0 note=76 velocity=0 time=25
the msg is note_on channel=0 note=76 velocity=100 time=0
the msg is note_off channel=0 note=79 velocity=0 time=25
the msg is note_on channel=0 note=79 velocity=100 time=0
the msg is note_off channel=0 note=72 velocity=0 time=12
the msg is note_on channel=0 note=72 velocity=100 time=0
the msg is note_off channel=0 note=72 velocity=0 time=12
the msg is note_on channel=0 note=72 velocity=100 time=0
the msg is note_off channel=0 note=72 velocity=0 time=12
the msg is note_on channel=0 note=72 velocity=100 time=0
the msg is note_off channel=0 note=72 velocity=0 time=25
the msg is note_on channel=0 note=72 velocity=100 time=0
the msg is note_off channel=0 note=72 velocity=0 time=12
the msg is note_on channel=0 note=72 velocity=100 time=0
the msg is note_off channel=0 note=72 velocity=0 time=12
the msg is note_on channel=0 note=72 velocity=100 time=0
the msg is <meta message end_of_track time=51>
the msg is <meta message track_name name='Acoustic Guitar' time=0>
the msg is program_change channel=0 program=24 time=0
the msg is note_off channel=0 note=69 velocity=0 time=0
the msg is pitchwheel channel=0 pitch=0 time=0
the msg is program_change channel=0 program=24 time=0
the msg is <meta message set_tempo tempo=500000 time=0>
the msg is <meta message time_signature numerator=4 denominator=4 clocks_per_click=24 notated_32nd_notes_per_beat=8 time=0>
the msg is note_on channel=0 note=69 velocity=100 time=0
the msg is note_off channel=0 note=72 velocity=0 time=166
the msg is note_on channel=0 note=72 velocity=100 time=0
the msg is note_off channel=0 note=72 velocity=0 time=12
the msg is note_on channel=0 note=72 velocity=100 time=0
the msg is note_off channel=0 note=72 velocity=0 time=12
the msg is note_on channel=0 note=72 velocity=100 time=0
the msg is note_off channel=0 note=72 velocity=0 time=25
the msg is note_on channel=0 note=72 velocity=100 time=0
the msg is note_off channel=0 note=74 velocity=0 time=25
the msg is note_on channel=0 note=74 velocity=100 time=0
the msg is note_off channel=0 note=74 velocity=0 time=12
the msg is note_on channel=0 note=74 velocity=100 time=0
the msg is note_off channel=0 note=71 velocity=0 time=12
the msg is note_on channel=0 note=71 velocity=100 time=0
the msg is note_off channel=0 note=74 velocity=0 time=25
the msg is note_on channel=0 note=74 velocity=100 time=0
the msg is note_off channel=0 note=74 velocity=0 time=12
the msg is note_on channel=0 note=74 velocity=100 time=0
the msg is note_off channel=0 note=71 velocity=0 time=12
the msg is note_on channel=0 note=71 velocity=100 time=0
the msg is note_off channel=0 note=71 velocity=0 time=12
the msg is note_on channel=0 note=71 velocity=100 time=0
the msg is note_off channel=0 note=69 velocity=0 time=12
the msg is note_on channel=0 note=69 velocity=100 time=0
the msg is note_off channel=0 note=72 velocity=0 time=115
the msg is note_on channel=0 note=72 velocity=100 time=0
the msg is note_off channel=0 note=72 velocity=0 time=34
the msg is note_on channel=0 note=72 velocity=100 time=0
the msg is note_off channel=0 note=72 velocity=0 time=4
the msg is note_on channel=0 note=72 velocity=100 time=0
the msg is note_off channel=0 note=72 velocity=0 time=12
the msg is note_on channel=0 note=72 velocity=100 time=0
the msg is note_off channel=0 note=72 velocity=0 time=17
the msg is note_on channel=0 note=72 velocity=100 time=0
the msg is note_off channel=0 note=76 velocity=0 time=17
the msg is note_on channel=0 note=76 velocity=100 time=0
the msg is note_off channel=0 note=79 velocity=0 time=17
the msg is note_on channel=0 note=79 velocity=100 time=0
the msg is note_off channel=0 note=76 velocity=0 time=34
the msg is note_on channel=0 note=76 velocity=100 time=0
the msg is note_off channel=0 note=79 velocity=0 time=17
the msg is note_on channel=0 note=79 velocity=100 time=0
the msg is note_off channel=0 note=79 velocity=0 time=17
the msg is note_on channel=0 note=79 velocity=100 time=0
the msg is note_off channel=0 note=76 velocity=0 time=17
the msg is note_on channel=0 note=76 velocity=100 time=0
the msg is note_off channel=0 note=74 velocity=0 time=4
the msg is note_on channel=0 note=74 velocity=100 time=0
the msg is note_off channel=0 note=72 velocity=0 time=12
the msg is note_on channel=0 note=72 velocity=100 time=0
the msg is note_off channel=0 note=74 velocity=0 time=34
the msg is note_on channel=0 note=74 velocity=100 time=0
the msg is note_off channel=0 note=74 velocity=0 time=17
the msg is note_on channel=0 note=74 velocity=100 time=0
the msg is note_off channel=0 note=74 velocity=0 time=34
the msg is note_on channel=0 note=74 velocity=100 time=0
the msg is note_off channel=0 note=76 velocity=0 time=17
the msg is note_on channel=0 note=76 velocity=100 time=0
the msg is note_off channel=0 note=79 velocity=0 time=34
the msg is note_on channel=0 note=79 velocity=100 time=0
the msg is note_off channel=0 note=79 velocity=0 time=17
the msg is note_off channel=0 note=76 velocity=0 time=0
the msg is note_on channel=0 note=79 velocity=100 time=0
the msg is note_on channel=0 note=76 velocity=100 time=0
the msg is note_off channel=0 note=74 velocity=0 time=25
the msg is note_on channel=0 note=74 velocity=100 time=0
the msg is note_off channel=0 note=72 velocity=0 time=8
the msg is note_on channel=0 note=72 velocity=100 time=0
the msg is note_off channel=0 note=74 velocity=0 time=17
the msg is note_on channel=0 note=74 velocity=100 time=0
the msg is note_off channel=0 note=76 velocity=0 time=34
the msg is note_on channel=0 note=76 velocity=100 time=0
the msg is note_off channel=0 note=72 velocity=0 time=4
the msg is note_on channel=0 note=72 velocity=100 time=0
the msg is note_off channel=0 note=74 velocity=0 time=12
the msg is note_on channel=0 note=74 velocity=100 time=0
the msg is note_off channel=0 note=74 velocity=0 time=34
the msg is note_on channel=0 note=74 velocity=100 time=0
the msg is note_off channel=0 note=74 velocity=0 time=17
the msg is note_on channel=0 note=74 velocity=100 time=0
the msg is note_off channel=0 note=74 velocity=0 time=17
the msg is note_on channel=0 note=74 velocity=100 time=0
the msg is note_off channel=0 note=71 velocity=0 time=17
the msg is note_on channel=0 note=71 velocity=100 time=0
the msg is note_off channel=0 note=74 velocity=0 time=17
the msg is note_on channel=0 note=74 velocity=100 time=0
the msg is note_off channel=0 note=74 velocity=0 time=34
the msg is note_on channel=0 note=74 velocity=100 time=0
the msg is note_off channel=0 note=72 velocity=0 time=4
the msg is note_on channel=0 note=72 velocity=100 time=0
the msg is note_off channel=0 note=74 velocity=0 time=29
the msg is note_on channel=0 note=74 velocity=100 time=0
the msg is note_off channel=0 note=74 velocity=0 time=21
the msg is note_on channel=0 note=74 velocity=100 time=0
the msg is note_off channel=0 note=74 velocity=0 time=12
the msg is note_on channel=0 note=74 velocity=100 time=0
the msg is note_off channel=0 note=71 velocity=0 time=17
the msg is note_on channel=0 note=71 velocity=100 time=0
the msg is note_off channel=0 note=74 velocity=0 time=8
the msg is note_on channel=0 note=74 velocity=100 time=0
the msg is note_off channel=0 note=76 velocity=0 time=25
the msg is note_on channel=0 note=76 velocity=100 time=0
the msg is note_off channel=0 note=79 velocity=0 time=25
the msg is note_on channel=0 note=79 velocity=100 time=0
the msg is note_off channel=0 note=72 velocity=0 time=12
the msg is note_on channel=0 note=72 velocity=100 time=0
the msg is note_off channel=0 note=72 velocity=0 time=12
the msg is note_on channel=0 note=72 velocity=100 time=0
the msg is note_off channel=0 note=72 velocity=0 time=12
the msg is note_on channel=0 note=72 velocity=100 time=0
the msg is note_off channel=0 note=72 velocity=0 time=25
the msg is note_on channel=0 note=72 velocity=100 time=0
the msg is note_off channel=0 note=72 velocity=0 time=12
the msg is note_on channel=0 note=72 velocity=100 time=0
the msg is note_off channel=0 note=72 velocity=0 time=12
the msg is note_on channel=0 note=72 velocity=100 time=0
the msg is <meta message end_of_track time=51>
the msg is <meta message track_name name='Acoustic Guitar' time=0>
the msg is program_change channel=0 program=24 time=0
the msg is note_off channel=0 note=69 velocity=0 time=0
the msg is pitchwheel channel=0 pitch=0 time=0
the msg is program_change channel=0 program=24 time=0
the msg is <meta message set_tempo tempo=500000 time=0>
the msg is <meta message time_signature numerator=4 denominator=4 clocks_per_click=24 notated_32nd_notes_per_beat=8 time=0>
the msg is note_on channel=0 note=69 velocity=100 time=0
the msg is note_off channel=0 note=72 velocity=0 time=166
the msg is note_on channel=0 note=72 velocity=100 time=0
the msg is note_off channel=0 note=72 velocity=0 time=12
the msg is note_on channel=0 note=72 velocity=100 time=0
the msg is note_off channel=0 note=72 velocity=0 time=12
the msg is note_on channel=0 note=72 velocity=100 time=0
the msg is note_off channel=0 note=72 velocity=0 time=25
the msg is note_on channel=0 note=72 velocity=100 time=0
the msg is note_off channel=0 note=74 velocity=0 time=25
the msg is note_on channel=0 note=74 velocity=100 time=0
the msg is note_off channel=0 note=74 velocity=0 time=12
the msg is note_on channel=0 note=74 velocity=100 time=0
the msg is note_off channel=0 note=71 velocity=0 time=12
the msg is note_on channel=0 note=71 velocity=100 time=0
the msg is note_off channel=0 note=74 velocity=0 time=25
the msg is note_on channel=0 note=74 velocity=100 time=0
the msg is note_off channel=0 note=74 velocity=0 time=12
the msg is note_on channel=0 note=74 velocity=100 time=0
the msg is note_off channel=0 note=71 velocity=0 time=12
the msg is note_on channel=0 note=71 velocity=100 time=0
the msg is note_off channel=0 note=71 velocity=0 time=12
the msg is note_on channel=0 note=71 velocity=100 time=0
the msg is note_off channel=0 note=69 velocity=0 time=12
the msg is note_on channel=0 note=69 velocity=100 time=0
the msg is note_off channel=0 note=72 velocity=0 time=115
the msg is note_on channel=0 note=72 velocity=100 time=0
the msg is note_off channel=0 note=72 velocity=0 time=34
the msg is note_on channel=0 note=72 velocity=100 time=0
the msg is note_off channel=0 note=72 velocity=0 time=4
the msg is note_on channel=0 note=72 velocity=100 time=0
the msg is note_off channel=0 note=72 velocity=0 time=12
the msg is note_on channel=0 note=72 velocity=100 time=0
the msg is note_off channel=0 note=72 velocity=0 time=17
the msg is note_on channel=0 note=72 velocity=100 time=0
the msg is note_off channel=0 note=76 velocity=0 time=17
the msg is note_on channel=0 note=76 velocity=100 time=0
the msg is note_off channel=0 note=79 velocity=0 time=17
the msg is note_on channel=0 note=79 velocity=100 time=0
the msg is note_off channel=0 note=76 velocity=0 time=34
the msg is note_on channel=0 note=76 velocity=100 time=0
the msg is note_off channel=0 note=79 velocity=0 time=17
the msg is note_on channel=0 note=79 velocity=100 time=0
the msg is note_off channel=0 note=79 velocity=0 time=17
the msg is note_on channel=0 note=79 velocity=100 time=0
the msg is note_off channel=0 note=76 velocity=0 time=17
the msg is note_on channel=0 note=76 velocity=100 time=0
the msg is note_off channel=0 note=74 velocity=0 time=4
the msg is note_on channel=0 note=74 velocity=100 time=0
the msg is note_off channel=0 note=72 velocity=0 time=12
the msg is note_on channel=0 note=72 velocity=100 time=0
the msg is note_off channel=0 note=74 velocity=0 time=34
the msg is note_on channel=0 note=74 velocity=100 time=0
the msg is note_off channel=0 note=74 velocity=0 time=17
the msg is note_on channel=0 note=74 velocity=100 time=0
the msg is note_off channel=0 note=74 velocity=0 time=34
the msg is note_on channel=0 note=74 velocity=100 time=0
the msg is note_off channel=0 note=76 velocity=0 time=17
the msg is note_on channel=0 note=76 velocity=100 time=0
the msg is note_off channel=0 note=79 velocity=0 time=34
the msg is note_on channel=0 note=79 velocity=100 time=0
the msg is note_off channel=0 note=79 velocity=0 time=17
the msg is note_off channel=0 note=76 velocity=0 time=0
the msg is note_on channel=0 note=79 velocity=100 time=0
the msg is note_on channel=0 note=76 velocity=100 time=0
the msg is note_off channel=0 note=74 velocity=0 time=25
the msg is note_on channel=0 note=74 velocity=100 time=0
the msg is note_off channel=0 note=72 velocity=0 time=8
the msg is note_on channel=0 note=72 velocity=100 time=0
the msg is note_off channel=0 note=74 velocity=0 time=17
the msg is note_on channel=0 note=74 velocity=100 time=0
the msg is note_off channel=0 note=76 velocity=0 time=34
the msg is note_on channel=0 note=76 velocity=100 time=0
the msg is note_off channel=0 note=72 velocity=0 time=4
the msg is note_on channel=0 note=72 velocity=100 time=0
the msg is note_off channel=0 note=74 velocity=0 time=12
the msg is note_on channel=0 note=74 velocity=100 time=0
the msg is note_off channel=0 note=74 velocity=0 time=34
the msg is note_on channel=0 note=74 velocity=100 time=0
the msg is note_off channel=0 note=74 velocity=0 time=17
the msg is note_on channel=0 note=74 velocity=100 time=0
the msg is note_off channel=0 note=74 velocity=0 time=17
the msg is note_on channel=0 note=74 velocity=100 time=0
the msg is note_off channel=0 note=71 velocity=0 time=17
the msg is note_on channel=0 note=71 velocity=100 time=0
the msg is note_off channel=0 note=74 velocity=0 time=17
the msg is note_on channel=0 note=74 velocity=100 time=0
the msg is note_off channel=0 note=74 velocity=0 time=34
the msg is note_on channel=0 note=74 velocity=100 time=0
the msg is note_off channel=0 note=72 velocity=0 time=4
the msg is note_on channel=0 note=72 velocity=100 time=0
the msg is note_off channel=0 note=74 velocity=0 time=29
the msg is note_on channel=0 note=74 velocity=100 time=0
the msg is note_off channel=0 note=74 velocity=0 time=21
the msg is note_on channel=0 note=74 velocity=100 time=0
the msg is note_off channel=0 note=74 velocity=0 time=12
the msg is note_on channel=0 note=74 velocity=100 time=0
the msg is note_off channel=0 note=71 velocity=0 time=17
the msg is note_on channel=0 note=71 velocity=100 time=0
the msg is note_off channel=0 note=74 velocity=0 time=8
the msg is note_on channel=0 note=74 velocity=100 time=0
the msg is note_off channel=0 note=76 velocity=0 time=25
the msg is note_on channel=0 note=76 velocity=100 time=0
the msg is note_off channel=0 note=79 velocity=0 time=25
the msg is note_on channel=0 note=79 velocity=100 time=0
the msg is note_off channel=0 note=72 velocity=0 time=12
the msg is note_on channel=0 note=72 velocity=100 time=0
the msg is note_off channel=0 note=72 velocity=0 time=12
the msg is note_on channel=0 note=72 velocity=100 time=0
the msg is note_off channel=0 note=72 velocity=0 time=12
the msg is note_on channel=0 note=72 velocity=100 time=0
the msg is note_off channel=0 note=72 velocity=0 time=25
the msg is note_on channel=0 note=72 velocity=100 time=0
the msg is note_off channel=0 note=72 velocity=0 time=12
the msg is note_on channel=0 note=72 velocity=100 time=0
the msg is note_off channel=0 note=72 velocity=0 time=12
the msg is note_on channel=0 note=72 velocity=100 time=0
the msg is <meta message end_of_track time=51>
the msg is <meta message track_name name='Acoustic Guitar' time=0>
the msg is program_change channel=0 program=24 time=0
the msg is note_off channel=0 note=69 velocity=0 time=0
the msg is pitchwheel channel=0 pitch=0 time=0
the msg is program_change channel=0 program=24 time=0
the msg is <meta message set_tempo tempo=500000 time=0>
the msg is <meta message time_signature numerator=4 denominator=4 clocks_per_click=24 notated_32nd_notes_per_beat=8 time=0>
the msg is note_on channel=0 note=69 velocity=100 time=0
the msg is note_off channel=0 note=72 velocity=0 time=166
the msg is note_on channel=0 note=72 velocity=100 time=0
the msg is note_off channel=0 note=72 velocity=0 time=12
the msg is note_on channel=0 note=72 velocity=100 time=0
the msg is note_off channel=0 note=72 velocity=0 time=12
the msg is note_on channel=0 note=72 velocity=100 time=0
the msg is note_off channel=0 note=72 velocity=0 time=25
the msg is note_on channel=0 note=72 velocity=100 time=0
the msg is note_off channel=0 note=74 velocity=0 time=25
the msg is note_on channel=0 note=74 velocity=100 time=0
the msg is note_off channel=0 note=74 velocity=0 time=12
the msg is note_on channel=0 note=74 velocity=100 time=0
the msg is note_off channel=0 note=71 velocity=0 time=12
the msg is note_on channel=0 note=71 velocity=100 time=0
the msg is note_off channel=0 note=74 velocity=0 time=25
the msg is note_on channel=0 note=74 velocity=100 time=0
the msg is note_off channel=0 note=74 velocity=0 time=12
the msg is note_on channel=0 note=74 velocity=100 time=0
the msg is note_off channel=0 note=71 velocity=0 time=12
the msg is note_on channel=0 note=71 velocity=100 time=0
the msg is note_off channel=0 note=71 velocity=0 time=12
the msg is note_on channel=0 note=71 velocity=100 time=0
the msg is note_off channel=0 note=69 velocity=0 time=12
the msg is note_on channel=0 note=69 velocity=100 time=0
the msg is note_off channel=0 note=72 velocity=0 time=115
the msg is note_on channel=0 note=72 velocity=100 time=0
the msg is note_off channel=0 note=72 velocity=0 time=34
the msg is note_on channel=0 note=72 velocity=100 time=0
the msg is note_off channel=0 note=72 velocity=0 time=4
the msg is note_on channel=0 note=72 velocity=100 time=0
the msg is note_off channel=0 note=72 velocity=0 time=12
the msg is note_on channel=0 note=72 velocity=100 time=0
the msg is note_off channel=0 note=72 velocity=0 time=17
the msg is note_on channel=0 note=72 velocity=100 time=0
the msg is note_off channel=0 note=76 velocity=0 time=17
the msg is note_on channel=0 note=76 velocity=100 time=0
the msg is note_off channel=0 note=79 velocity=0 time=17
the msg is note_on channel=0 note=79 velocity=100 time=0
the msg is note_off channel=0 note=76 velocity=0 time=34
the msg is note_on channel=0 note=76 velocity=100 time=0
the msg is note_off channel=0 note=79 velocity=0 time=17
the msg is note_on channel=0 note=79 velocity=100 time=0
the msg is note_off channel=0 note=79 velocity=0 time=17
the msg is note_on channel=0 note=79 velocity=100 time=0
the msg is note_off channel=0 note=76 velocity=0 time=17
the msg is note_on channel=0 note=76 velocity=100 time=0
the msg is note_off channel=0 note=74 velocity=0 time=4
the msg is note_on channel=0 note=74 velocity=100 time=0
the msg is note_off channel=0 note=72 velocity=0 time=12
the msg is note_on channel=0 note=72 velocity=100 time=0
the msg is note_off channel=0 note=74 velocity=0 time=34
the msg is note_on channel=0 note=74 velocity=100 time=0
the msg is note_off channel=0 note=74 velocity=0 time=17
the msg is note_on channel=0 note=74 velocity=100 time=0
the msg is note_off channel=0 note=74 velocity=0 time=34
the msg is note_on channel=0 note=74 velocity=100 time=0
the msg is note_off channel=0 note=76 velocity=0 time=17
the msg is note_on channel=0 note=76 velocity=100 time=0
the msg is note_off channel=0 note=79 velocity=0 time=34
the msg is note_on channel=0 note=79 velocity=100 time=0
the msg is note_off channel=0 note=79 velocity=0 time=17
the msg is note_off channel=0 note=76 velocity=0 time=0
the msg is note_on channel=0 note=79 velocity=100 time=0
the msg is note_on channel=0 note=76 velocity=100 time=0
the msg is note_off channel=0 note=74 velocity=0 time=25
the msg is note_on channel=0 note=74 velocity=100 time=0
the msg is note_off channel=0 note=72 velocity=0 time=8
the msg is note_on channel=0 note=72 velocity=100 time=0
the msg is note_off channel=0 note=74 velocity=0 time=17
the msg is note_on channel=0 note=74 velocity=100 time=0
the msg is note_off channel=0 note=76 velocity=0 time=34
the msg is note_on channel=0 note=76 velocity=100 time=0
the msg is note_off channel=0 note=72 velocity=0 time=4
the msg is note_on channel=0 note=72 velocity=100 time=0
the msg is note_off channel=0 note=74 velocity=0 time=12
the msg is note_on channel=0 note=74 velocity=100 time=0
the msg is note_off channel=0 note=74 velocity=0 time=34
the msg is note_on channel=0 note=74 velocity=100 time=0
the msg is note_off channel=0 note=74 velocity=0 time=17
the msg is note_on channel=0 note=74 velocity=100 time=0
the msg is note_off channel=0 note=74 velocity=0 time=17
the msg is note_on channel=0 note=74 velocity=100 time=0
the msg is note_off channel=0 note=71 velocity=0 time=17
the msg is note_on channel=0 note=71 velocity=100 time=0
the msg is note_off channel=0 note=74 velocity=0 time=17
the msg is note_on channel=0 note=74 velocity=100 time=0
the msg is note_off channel=0 note=74 velocity=0 time=34
the msg is note_on channel=0 note=74 velocity=100 time=0
the msg is note_off channel=0 note=72 velocity=0 time=4
the msg is note_on channel=0 note=72 velocity=100 time=0
the msg is note_off channel=0 note=74 velocity=0 time=29
the msg is note_on channel=0 note=74 velocity=100 time=0
the msg is note_off channel=0 note=74 velocity=0 time=21
the msg is note_on channel=0 note=74 velocity=100 time=0
the msg is note_off channel=0 note=74 velocity=0 time=12
the msg is note_on channel=0 note=74 velocity=100 time=0
the msg is note_off channel=0 note=71 velocity=0 time=17
the msg is note_on channel=0 note=71 velocity=100 time=0
the msg is note_off channel=0 note=74 velocity=0 time=8
the msg is note_on channel=0 note=74 velocity=100 time=0
the msg is note_off channel=0 note=76 velocity=0 time=25
the msg is note_on channel=0 note=76 velocity=100 time=0
the msg is note_off channel=0 note=79 velocity=0 time=25
the msg is note_on channel=0 note=79 velocity=100 time=0
the msg is note_off channel=0 note=72 velocity=0 time=12
the msg is note_on channel=0 note=72 velocity=100 time=0
the msg is note_off channel=0 note=72 velocity=0 time=12
the msg is note_on channel=0 note=72 velocity=100 time=0
the msg is note_off channel=0 note=72 velocity=0 time=12
the msg is note_on channel=0 note=72 velocity=100 time=0
the msg is note_off channel=0 note=72 velocity=0 time=25
the msg is note_on channel=0 note=72 velocity=100 time=0
the msg is note_off channel=0 note=72 velocity=0 time=12
the msg is note_on channel=0 note=72 velocity=100 time=0
the msg is note_off channel=0 note=72 velocity=0 time=12
the msg is note_on channel=0 note=72 velocity=100 time=0
the msg is <meta message end_of_track time=51>
the msg is <meta message track_name name='Acoustic Guitar' time=0>
the msg is program_change channel=0 program=24 time=0
the msg is note_off channel=0 note=69 velocity=0 time=0
the msg is pitchwheel channel=0 pitch=0 time=0
the msg is program_change channel=0 program=24 time=0
the msg is <meta message set_tempo tempo=500000 time=0>
the msg is <meta message time_signature numerator=4 denominator=4 clocks_per_click=24 notated_32nd_notes_per_beat=8 time=0>
the msg is note_on channel=0 note=69 velocity=100 time=0
the msg is note_off channel=0 note=72 velocity=0 time=166
the msg is note_on channel=0 note=72 velocity=100 time=0
the msg is note_off channel=0 note=72 velocity=0 time=12
the msg is note_on channel=0 note=72 velocity=100 time=0
the msg is note_off channel=0 note=72 velocity=0 time=12
the msg is note_on channel=0 note=72 velocity=100 time=0
the msg is note_off channel=0 note=72 velocity=0 time=25
the msg is note_on channel=0 note=72 velocity=100 time=0
the msg is note_off channel=0 note=74 velocity=0 time=25
the msg is note_on channel=0 note=74 velocity=100 time=0
the msg is note_off channel=0 note=74 velocity=0 time=12
the msg is note_on channel=0 note=74 velocity=100 time=0
the msg is note_off channel=0 note=71 velocity=0 time=12
the msg is note_on channel=0 note=71 velocity=100 time=0
the msg is note_off channel=0 note=74 velocity=0 time=25
the msg is note_on channel=0 note=74 velocity=100 time=0
the msg is note_off channel=0 note=74 velocity=0 time=12
the msg is note_on channel=0 note=74 velocity=100 time=0
the msg is note_off channel=0 note=71 velocity=0 time=12
the msg is note_on channel=0 note=71 velocity=100 time=0
the msg is note_off channel=0 note=71 velocity=0 time=12
the msg is note_on channel=0 note=71 velocity=100 time=0
the msg is note_off channel=0 note=69 velocity=0 time=12
the msg is note_on channel=0 note=69 velocity=100 time=0
the msg is note_off channel=0 note=72 velocity=0 time=115
the msg is note_on channel=0 note=72 velocity=100 time=0
the msg is note_off channel=0 note=72 velocity=0 time=34
the msg is note_on channel=0 note=72 velocity=100 time=0
the msg is note_off channel=0 note=72 velocity=0 time=4
the msg is note_on channel=0 note=72 velocity=100 time=0
the msg is note_off channel=0 note=72 velocity=0 time=12
the msg is note_on channel=0 note=72 velocity=100 time=0
the msg is note_off channel=0 note=72 velocity=0 time=17
the msg is note_on channel=0 note=72 velocity=100 time=0
the msg is note_off channel=0 note=76 velocity=0 time=17
the msg is note_on channel=0 note=76 velocity=100 time=0
the msg is note_off channel=0 note=79 velocity=0 time=17
the msg is note_on channel=0 note=79 velocity=100 time=0
the msg is note_off channel=0 note=76 velocity=0 time=34
the msg is note_on channel=0 note=76 velocity=100 time=0
the msg is note_off channel=0 note=79 velocity=0 time=17
the msg is note_on channel=0 note=79 velocity=100 time=0
the msg is note_off channel=0 note=79 velocity=0 time=17
the msg is note_on channel=0 note=79 velocity=100 time=0
the msg is note_off channel=0 note=76 velocity=0 time=17
the msg is note_on channel=0 note=76 velocity=100 time=0
the msg is note_off channel=0 note=74 velocity=0 time=4
the msg is note_on channel=0 note=74 velocity=100 time=0
the msg is note_off channel=0 note=72 velocity=0 time=12
the msg is note_on channel=0 note=72 velocity=100 time=0
the msg is note_off channel=0 note=74 velocity=0 time=34
the msg is note_on channel=0 note=74 velocity=100 time=0
the msg is note_off channel=0 note=74 velocity=0 time=17
the msg is note_on channel=0 note=74 velocity=100 time=0
the msg is note_off channel=0 note=74 velocity=0 time=34
the msg is note_on channel=0 note=74 velocity=100 time=0
the msg is note_off channel=0 note=76 velocity=0 time=17
the msg is note_on channel=0 note=76 velocity=100 time=0
the msg is note_off channel=0 note=79 velocity=0 time=34
the msg is note_on channel=0 note=79 velocity=100 time=0
the msg is note_off channel=0 note=79 velocity=0 time=17
the msg is note_off channel=0 note=76 velocity=0 time=0
the msg is note_on channel=0 note=79 velocity=100 time=0
the msg is note_on channel=0 note=76 velocity=100 time=0
the msg is note_off channel=0 note=74 velocity=0 time=25
the msg is note_on channel=0 note=74 velocity=100 time=0
the msg is note_off channel=0 note=72 velocity=0 time=8
the msg is note_on channel=0 note=72 velocity=100 time=0
the msg is note_off channel=0 note=74 velocity=0 time=17
the msg is note_on channel=0 note=74 velocity=100 time=0
the msg is note_off channel=0 note=76 velocity=0 time=34
the msg is note_on channel=0 note=76 velocity=100 time=0
the msg is note_off channel=0 note=72 velocity=0 time=4
the msg is note_on channel=0 note=72 velocity=100 time=0
the msg is note_off channel=0 note=74 velocity=0 time=12
the msg is note_on channel=0 note=74 velocity=100 time=0
the msg is note_off channel=0 note=74 velocity=0 time=34
the msg is note_on channel=0 note=74 velocity=100 time=0
the msg is note_off channel=0 note=74 velocity=0 time=17
the msg is note_on channel=0 note=74 velocity=100 time=0
the msg is note_off channel=0 note=74 velocity=0 time=17
the msg is note_on channel=0 note=74 velocity=100 time=0
the msg is note_off channel=0 note=71 velocity=0 time=17
the msg is note_on channel=0 note=71 velocity=100 time=0
the msg is note_off channel=0 note=74 velocity=0 time=17
the msg is note_on channel=0 note=74 velocity=100 time=0
the msg is note_off channel=0 note=74 velocity=0 time=34
the msg is note_on channel=0 note=74 velocity=100 time=0
the msg is note_off channel=0 note=72 velocity=0 time=4
the msg is note_on channel=0 note=72 velocity=100 time=0
the msg is note_off channel=0 note=74 velocity=0 time=29
the msg is note_on channel=0 note=74 velocity=100 time=0
the msg is note_off channel=0 note=74 velocity=0 time=21
the msg is note_on channel=0 note=74 velocity=100 time=0
the msg is note_off channel=0 note=74 velocity=0 time=12
the msg is note_on channel=0 note=74 velocity=100 time=0
the msg is note_off channel=0 note=71 velocity=0 time=17
the msg is note_on channel=0 note=71 velocity=100 time=0
the msg is note_off channel=0 note=74 velocity=0 time=8
the msg is note_on channel=0 note=74 velocity=100 time=0
the msg is note_off channel=0 note=76 velocity=0 time=25
the msg is note_on channel=0 note=76 velocity=100 time=0
the msg is note_off channel=0 note=79 velocity=0 time=25
the msg is note_on channel=0 note=79 velocity=100 time=0
the msg is note_off channel=0 note=72 velocity=0 time=12
the msg is note_on channel=0 note=72 velocity=100 time=0
the msg is note_off channel=0 note=72 velocity=0 time=12
the msg is note_on channel=0 note=72 velocity=100 time=0
the msg is note_off channel=0 note=72 velocity=0 time=12
the msg is note_on channel=0 note=72 velocity=100 time=0
the msg is note_off channel=0 note=72 velocity=0 time=25
the msg is note_on channel=0 note=72 velocity=100 time=0
the msg is note_off channel=0 note=72 velocity=0 time=12
the msg is note_on channel=0 note=72 velocity=100 time=0
the msg is note_off channel=0 note=72 velocity=0 time=12
the msg is note_on channel=0 note=72 velocity=100 time=0
the msg is <meta message end_of_track time=51>
the msg is <meta message track_name name='Acoustic Guitar' time=0>
the msg is program_change channel=0 program=24 time=0
the msg is note_off channel=0 note=69 velocity=0 time=0
the msg is pitchwheel channel=0 pitch=0 time=0
the msg is program_change channel=0 program=24 time=0
the msg is <meta message set_tempo tempo=500000 time=0>
the msg is <meta message time_signature numerator=4 denominator=4 clocks_per_click=24 notated_32nd_notes_per_beat=8 time=0>
the msg is note_on channel=0 note=69 velocity=100 time=0
the msg is note_off channel=0 note=72 velocity=0 time=166
the msg is note_on channel=0 note=72 velocity=100 time=0
the msg is note_off channel=0 note=72 velocity=0 time=12
the msg is note_on channel=0 note=72 velocity=100 time=0
the msg is note_off channel=0 note=72 velocity=0 time=12
the msg is note_on channel=0 note=72 velocity=100 time=0
the msg is note_off channel=0 note=72 velocity=0 time=25
the msg is note_on channel=0 note=72 velocity=100 time=0
the msg is note_off channel=0 note=74 velocity=0 time=25
the msg is note_on channel=0 note=74 velocity=100 time=0
the msg is note_off channel=0 note=74 velocity=0 time=12
the msg is note_on channel=0 note=74 velocity=100 time=0
the msg is note_off channel=0 note=71 velocity=0 time=12
the msg is note_on channel=0 note=71 velocity=100 time=0
the msg is note_off channel=0 note=74 velocity=0 time=25
the msg is note_on channel=0 note=74 velocity=100 time=0
the msg is note_off channel=0 note=74 velocity=0 time=12
the msg is note_on channel=0 note=74 velocity=100 time=0
the msg is note_off channel=0 note=71 velocity=0 time=12
the msg is note_on channel=0 note=71 velocity=100 time=0
the msg is note_off channel=0 note=71 velocity=0 time=12
the msg is note_on channel=0 note=71 velocity=100 time=0
the msg is note_off channel=0 note=69 velocity=0 time=12
the msg is note_on channel=0 note=69 velocity=100 time=0
the msg is note_off channel=0 note=72 velocity=0 time=115
the msg is note_on channel=0 note=72 velocity=100 time=0
the msg is note_off channel=0 note=72 velocity=0 time=34
the msg is note_on channel=0 note=72 velocity=100 time=0
the msg is note_off channel=0 note=72 velocity=0 time=4
the msg is note_on channel=0 note=72 velocity=100 time=0
the msg is note_off channel=0 note=72 velocity=0 time=12
the msg is note_on channel=0 note=72 velocity=100 time=0
the msg is note_off channel=0 note=72 velocity=0 time=17
the msg is note_on channel=0 note=72 velocity=100 time=0
the msg is note_off channel=0 note=76 velocity=0 time=17
the msg is note_on channel=0 note=76 velocity=100 time=0
the msg is note_off channel=0 note=79 velocity=0 time=17
the msg is note_on channel=0 note=79 velocity=100 time=0
the msg is note_off channel=0 note=76 velocity=0 time=34
the msg is note_on channel=0 note=76 velocity=100 time=0
the msg is note_off channel=0 note=79 velocity=0 time=17
the msg is note_on channel=0 note=79 velocity=100 time=0
the msg is note_off channel=0 note=79 velocity=0 time=17
the msg is note_on channel=0 note=79 velocity=100 time=0
the msg is note_off channel=0 note=76 velocity=0 time=17
the msg is note_on channel=0 note=76 velocity=100 time=0
the msg is note_off channel=0 note=74 velocity=0 time=4
the msg is note_on channel=0 note=74 velocity=100 time=0
the msg is note_off channel=0 note=72 velocity=0 time=12
the msg is note_on channel=0 note=72 velocity=100 time=0
the msg is note_off channel=0 note=74 velocity=0 time=34
the msg is note_on channel=0 note=74 velocity=100 time=0
the msg is note_off channel=0 note=74 velocity=0 time=17
the msg is note_on channel=0 note=74 velocity=100 time=0
the msg is note_off channel=0 note=74 velocity=0 time=34
the msg is note_on channel=0 note=74 velocity=100 time=0
the msg is note_off channel=0 note=76 velocity=0 time=17
the msg is note_on channel=0 note=76 velocity=100 time=0
the msg is note_off channel=0 note=79 velocity=0 time=34
the msg is note_on channel=0 note=79 velocity=100 time=0
the msg is note_off channel=0 note=79 velocity=0 time=17
the msg is note_off channel=0 note=76 velocity=0 time=0
the msg is note_on channel=0 note=79 velocity=100 time=0
the msg is note_on channel=0 note=76 velocity=100 time=0
the msg is note_off channel=0 note=74 velocity=0 time=25
the msg is note_on channel=0 note=74 velocity=100 time=0
the msg is note_off channel=0 note=72 velocity=0 time=8
the msg is note_on channel=0 note=72 velocity=100 time=0
the msg is note_off channel=0 note=74 velocity=0 time=17
the msg is note_on channel=0 note=74 velocity=100 time=0
the msg is note_off channel=0 note=76 velocity=0 time=34
the msg is note_on channel=0 note=76 velocity=100 time=0
the msg is note_off channel=0 note=72 velocity=0 time=4
the msg is note_on channel=0 note=72 velocity=100 time=0
the msg is note_off channel=0 note=74 velocity=0 time=12
the msg is note_on channel=0 note=74 velocity=100 time=0
the msg is note_off channel=0 note=74 velocity=0 time=34
the msg is note_on channel=0 note=74 velocity=100 time=0
the msg is note_off channel=0 note=74 velocity=0 time=17
the msg is note_on channel=0 note=74 velocity=100 time=0
the msg is note_off channel=0 note=74 velocity=0 time=17
the msg is note_on channel=0 note=74 velocity=100 time=0
the msg is note_off channel=0 note=71 velocity=0 time=17
the msg is note_on channel=0 note=71 velocity=100 time=0
the msg is note_off channel=0 note=74 velocity=0 time=17
the msg is note_on channel=0 note=74 velocity=100 time=0
the msg is note_off channel=0 note=74 velocity=0 time=34
the msg is note_on channel=0 note=74 velocity=100 time=0
the msg is note_off channel=0 note=72 velocity=0 time=4
the msg is note_on channel=0 note=72 velocity=100 time=0
the msg is note_off channel=0 note=74 velocity=0 time=29
the msg is note_on channel=0 note=74 velocity=100 time=0
the msg is note_off channel=0 note=74 velocity=0 time=21
the msg is note_on channel=0 note=74 velocity=100 time=0
the msg is note_off channel=0 note=74 velocity=0 time=12
the msg is note_on channel=0 note=74 velocity=100 time=0
the msg is note_off channel=0 note=71 velocity=0 time=17
the msg is note_on channel=0 note=71 velocity=100 time=0
the msg is note_off channel=0 note=74 velocity=0 time=8
the msg is note_on channel=0 note=74 velocity=100 time=0
the msg is note_off channel=0 note=76 velocity=0 time=25
the msg is note_on channel=0 note=76 velocity=100 time=0
the msg is note_off channel=0 note=79 velocity=0 time=25
the msg is note_on channel=0 note=79 velocity=100 time=0
the msg is note_off channel=0 note=72 velocity=0 time=12
the msg is note_on channel=0 note=72 velocity=100 time=0
the msg is note_off channel=0 note=72 velocity=0 time=12
the msg is note_on channel=0 note=72 velocity=100 time=0
the msg is note_off channel=0 note=72 velocity=0 time=12
the msg is note_on channel=0 note=72 velocity=100 time=0
the msg is note_off channel=0 note=72 velocity=0 time=25
the msg is note_on channel=0 note=72 velocity=100 time=0
the msg is note_off channel=0 note=72 velocity=0 time=12
the msg is note_on channel=0 note=72 velocity=100 time=0
the msg is note_off channel=0 note=72 velocity=0 time=12
the msg is note_on channel=0 note=72 velocity=100 time=0
the msg is <meta message end_of_track time=51>
the msg is <meta message track_name name='Acoustic Guitar' time=0>
the msg is program_change channel=0 program=24 time=0
the msg is note_off channel=0 note=69 velocity=0 time=0
the msg is pitchwheel channel=0 pitch=0 time=0
the msg is program_change channel=0 program=24 time=0
the msg is <meta message set_tempo tempo=500000 time=0>
the msg is <meta message time_signature numerator=4 denominator=4 clocks_per_click=24 notated_32nd_notes_per_beat=8 time=0>
the msg is note_on channel=0 note=69 velocity=100 time=0
the msg is note_off channel=0 note=72 velocity=0 time=166
the msg is note_on channel=0 note=72 velocity=100 time=0
the msg is note_off channel=0 note=72 velocity=0 time=12
the msg is note_on channel=0 note=72 velocity=100 time=0
the msg is note_off channel=0 note=72 velocity=0 time=12
the msg is note_on channel=0 note=72 velocity=100 time=0
the msg is note_off channel=0 note=72 velocity=0 time=25
the msg is note_on channel=0 note=72 velocity=100 time=0
the msg is note_off channel=0 note=74 velocity=0 time=25
the msg is note_on channel=0 note=74 velocity=100 time=0
the msg is note_off channel=0 note=74 velocity=0 time=12
the msg is note_on channel=0 note=74 velocity=100 time=0
the msg is note_off channel=0 note=71 velocity=0 time=12
the msg is note_on channel=0 note=71 velocity=100 time=0
the msg is note_off channel=0 note=74 velocity=0 time=25
the msg is note_on channel=0 note=74 velocity=100 time=0
the msg is note_off channel=0 note=74 velocity=0 time=12
the msg is note_on channel=0 note=74 velocity=100 time=0
the msg is note_off channel=0 note=71 velocity=0 time=12
the msg is note_on channel=0 note=71 velocity=100 time=0
the msg is note_off channel=0 note=71 velocity=0 time=12
the msg is note_on channel=0 note=71 velocity=100 time=0
the msg is note_off channel=0 note=69 velocity=0 time=12
the msg is note_on channel=0 note=69 velocity=100 time=0
the msg is note_off channel=0 note=72 velocity=0 time=115
the msg is note_on channel=0 note=72 velocity=100 time=0
the msg is note_off channel=0 note=72 velocity=0 time=34
the msg is note_on channel=0 note=72 velocity=100 time=0
the msg is note_off channel=0 note=72 velocity=0 time=4
the msg is note_on channel=0 note=72 velocity=100 time=0
the msg is note_off channel=0 note=72 velocity=0 time=12
the msg is note_on channel=0 note=72 velocity=100 time=0
the msg is note_off channel=0 note=72 velocity=0 time=17
the msg is note_on channel=0 note=72 velocity=100 time=0
the msg is note_off channel=0 note=76 velocity=0 time=17
the msg is note_on channel=0 note=76 velocity=100 time=0
the msg is note_off channel=0 note=79 velocity=0 time=17
the msg is note_on channel=0 note=79 velocity=100 time=0
the msg is note_off channel=0 note=76 velocity=0 time=34
the msg is note_on channel=0 note=76 velocity=100 time=0
the msg is note_off channel=0 note=79 velocity=0 time=17
the msg is note_on channel=0 note=79 velocity=100 time=0
the msg is note_off channel=0 note=79 velocity=0 time=17
the msg is note_on channel=0 note=79 velocity=100 time=0
the msg is note_off channel=0 note=76 velocity=0 time=17
the msg is note_on channel=0 note=76 velocity=100 time=0
the msg is note_off channel=0 note=74 velocity=0 time=4
the msg is note_on channel=0 note=74 velocity=100 time=0
the msg is note_off channel=0 note=72 velocity=0 time=12
the msg is note_on channel=0 note=72 velocity=100 time=0
the msg is note_off channel=0 note=74 velocity=0 time=34
the msg is note_on channel=0 note=74 velocity=100 time=0
the msg is note_off channel=0 note=74 velocity=0 time=17
the msg is note_on channel=0 note=74 velocity=100 time=0
the msg is note_off channel=0 note=74 velocity=0 time=34
the msg is note_on channel=0 note=74 velocity=100 time=0
the msg is note_off channel=0 note=76 velocity=0 time=17
the msg is note_on channel=0 note=76 velocity=100 time=0
the msg is note_off channel=0 note=79 velocity=0 time=34
the msg is note_on channel=0 note=79 velocity=100 time=0
the msg is note_off channel=0 note=79 velocity=0 time=17
the msg is note_off channel=0 note=76 velocity=0 time=0
the msg is note_on channel=0 note=79 velocity=100 time=0
the msg is note_on channel=0 note=76 velocity=100 time=0
the msg is note_off channel=0 note=74 velocity=0 time=25
the msg is note_on channel=0 note=74 velocity=100 time=0
the msg is note_off channel=0 note=72 velocity=0 time=8
the msg is note_on channel=0 note=72 velocity=100 time=0
the msg is note_off channel=0 note=74 velocity=0 time=17
the msg is note_on channel=0 note=74 velocity=100 time=0
the msg is note_off channel=0 note=76 velocity=0 time=34
the msg is note_on channel=0 note=76 velocity=100 time=0
the msg is note_off channel=0 note=72 velocity=0 time=4
the msg is note_on channel=0 note=72 velocity=100 time=0
the msg is note_off channel=0 note=74 velocity=0 time=12
the msg is note_on channel=0 note=74 velocity=100 time=0
the msg is note_off channel=0 note=74 velocity=0 time=34
the msg is note_on channel=0 note=74 velocity=100 time=0
the msg is note_off channel=0 note=74 velocity=0 time=17
the msg is note_on channel=0 note=74 velocity=100 time=0
the msg is note_off channel=0 note=74 velocity=0 time=17
the msg is note_on channel=0 note=74 velocity=100 time=0
the msg is note_off channel=0 note=71 velocity=0 time=17
the msg is note_on channel=0 note=71 velocity=100 time=0
the msg is note_off channel=0 note=74 velocity=0 time=17
the msg is note_on channel=0 note=74 velocity=100 time=0
the msg is note_off channel=0 note=74 velocity=0 time=34
the msg is note_on channel=0 note=74 velocity=100 time=0
the msg is note_off channel=0 note=72 velocity=0 time=4
the msg is note_on channel=0 note=72 velocity=100 time=0
the msg is note_off channel=0 note=74 velocity=0 time=29
the msg is note_on channel=0 note=74 velocity=100 time=0
the msg is note_off channel=0 note=74 velocity=0 time=21
the msg is note_on channel=0 note=74 velocity=100 time=0
the msg is note_off channel=0 note=74 velocity=0 time=12
the msg is note_on channel=0 note=74 velocity=100 time=0
the msg is note_off channel=0 note=71 velocity=0 time=17
the msg is note_on channel=0 note=71 velocity=100 time=0
the msg is note_off channel=0 note=74 velocity=0 time=8
the msg is note_on channel=0 note=74 velocity=100 time=0
the msg is note_off channel=0 note=76 velocity=0 time=25
the msg is note_on channel=0 note=76 velocity=100 time=0
the msg is note_off channel=0 note=79 velocity=0 time=25
the msg is note_on channel=0 note=79 velocity=100 time=0
the msg is note_off channel=0 note=72 velocity=0 time=12
the msg is note_on channel=0 note=72 velocity=100 time=0
the msg is note_off channel=0 note=72 velocity=0 time=12
the msg is note_on channel=0 note=72 velocity=100 time=0
the msg is note_off channel=0 note=72 velocity=0 time=12
the msg is note_on channel=0 note=72 velocity=100 time=0
the msg is note_off channel=0 note=72 velocity=0 time=25
the msg is note_on channel=0 note=72 velocity=100 time=0
the msg is note_off channel=0 note=72 velocity=0 time=12
the msg is note_on channel=0 note=72 velocity=100 time=0
the msg is note_off channel=0 note=72 velocity=0 time=12
the msg is note_on channel=0 note=72 velocity=100 time=0
the msg is <meta message end_of_track time=51>
the msg is <meta message track_name name='Acoustic Guitar' time=0>
the msg is program_change channel=0 program=24 time=0
the msg is note_off channel=0 note=69 velocity=0 time=0
the msg is pitchwheel channel=0 pitch=0 time=0
the msg is program_change channel=0 program=24 time=0
the msg is <meta message set_tempo tempo=500000 time=0>
the msg is <meta message time_signature numerator=4 denominator=4 clocks_per_click=24 notated_32nd_notes_per_beat=8 time=0>
the msg is note_on channel=0 note=69 velocity=100 time=0
the msg is note_off channel=0 note=72 velocity=0 time=166
the msg is note_on channel=0 note=72 velocity=100 time=0
the msg is note_off channel=0 note=72 velocity=0 time=12
the msg is note_on channel=0 note=72 velocity=100 time=0
the msg is note_off channel=0 note=72 velocity=0 time=12
the msg is note_on channel=0 note=72 velocity=100 time=0
the msg is note_off channel=0 note=72 velocity=0 time=25
the msg is note_on channel=0 note=72 velocity=100 time=0
the msg is note_off channel=0 note=74 velocity=0 time=25
the msg is note_on channel=0 note=74 velocity=100 time=0
the msg is note_off channel=0 note=74 velocity=0 time=12
the msg is note_on channel=0 note=74 velocity=100 time=0
the msg is note_off channel=0 note=71 velocity=0 time=12
the msg is note_on channel=0 note=71 velocity=100 time=0
the msg is note_off channel=0 note=74 velocity=0 time=25
the msg is note_on channel=0 note=74 velocity=100 time=0
the msg is note_off channel=0 note=74 velocity=0 time=12
the msg is note_on channel=0 note=74 velocity=100 time=0
the msg is note_off channel=0 note=71 velocity=0 time=12
the msg is note_on channel=0 note=71 velocity=100 time=0
the msg is note_off channel=0 note=71 velocity=0 time=12
the msg is note_on channel=0 note=71 velocity=100 time=0
the msg is note_off channel=0 note=69 velocity=0 time=12
the msg is note_on channel=0 note=69 velocity=100 time=0
the msg is note_off channel=0 note=72 velocity=0 time=115
the msg is note_on channel=0 note=72 velocity=100 time=0
the msg is note_off channel=0 note=72 velocity=0 time=34
the msg is note_on channel=0 note=72 velocity=100 time=0
the msg is note_off channel=0 note=72 velocity=0 time=4
the msg is note_on channel=0 note=72 velocity=100 time=0
the msg is note_off channel=0 note=72 velocity=0 time=12
the msg is note_on channel=0 note=72 velocity=100 time=0
the msg is note_off channel=0 note=72 velocity=0 time=17
the msg is note_on channel=0 note=72 velocity=100 time=0
the msg is note_off channel=0 note=76 velocity=0 time=17
the msg is note_on channel=0 note=76 velocity=100 time=0
the msg is note_off channel=0 note=79 velocity=0 time=17
the msg is note_on channel=0 note=79 velocity=100 time=0
the msg is note_off channel=0 note=76 velocity=0 time=34
the msg is note_on channel=0 note=76 velocity=100 time=0
the msg is note_off channel=0 note=79 velocity=0 time=17
the msg is note_on channel=0 note=79 velocity=100 time=0
the msg is note_off channel=0 note=79 velocity=0 time=17
the msg is note_on channel=0 note=79 velocity=100 time=0
the msg is note_off channel=0 note=76 velocity=0 time=17
the msg is note_on channel=0 note=76 velocity=100 time=0
the msg is note_off channel=0 note=74 velocity=0 time=4
the msg is note_on channel=0 note=74 velocity=100 time=0
the msg is note_off channel=0 note=72 velocity=0 time=12
the msg is note_on channel=0 note=72 velocity=100 time=0
the msg is note_off channel=0 note=74 velocity=0 time=34
the msg is note_on channel=0 note=74 velocity=100 time=0
the msg is note_off channel=0 note=74 velocity=0 time=17
the msg is note_on channel=0 note=74 velocity=100 time=0
the msg is note_off channel=0 note=74 velocity=0 time=34
the msg is note_on channel=0 note=74 velocity=100 time=0
the msg is note_off channel=0 note=76 velocity=0 time=17
the msg is note_on channel=0 note=76 velocity=100 time=0
the msg is note_off channel=0 note=79 velocity=0 time=34
the msg is note_on channel=0 note=79 velocity=100 time=0
the msg is note_off channel=0 note=79 velocity=0 time=17
the msg is note_off channel=0 note=76 velocity=0 time=0
the msg is note_on channel=0 note=79 velocity=100 time=0
the msg is note_on channel=0 note=76 velocity=100 time=0
the msg is note_off channel=0 note=74 velocity=0 time=25
the msg is note_on channel=0 note=74 velocity=100 time=0
the msg is note_off channel=0 note=72 velocity=0 time=8
the msg is note_on channel=0 note=72 velocity=100 time=0
the msg is note_off channel=0 note=74 velocity=0 time=17
the msg is note_on channel=0 note=74 velocity=100 time=0
the msg is note_off channel=0 note=76 velocity=0 time=34
the msg is note_on channel=0 note=76 velocity=100 time=0
the msg is note_off channel=0 note=72 velocity=0 time=4
the msg is note_on channel=0 note=72 velocity=100 time=0
the msg is note_off channel=0 note=74 velocity=0 time=12
the msg is note_on channel=0 note=74 velocity=100 time=0
the msg is note_off channel=0 note=74 velocity=0 time=34
the msg is note_on channel=0 note=74 velocity=100 time=0
the msg is note_off channel=0 note=74 velocity=0 time=17
the msg is note_on channel=0 note=74 velocity=100 time=0
the msg is note_off channel=0 note=74 velocity=0 time=17
the msg is note_on channel=0 note=74 velocity=100 time=0
the msg is note_off channel=0 note=71 velocity=0 time=17
the msg is note_on channel=0 note=71 velocity=100 time=0
the msg is note_off channel=0 note=74 velocity=0 time=17
the msg is note_on channel=0 note=74 velocity=100 time=0
the msg is note_off channel=0 note=74 velocity=0 time=34
the msg is note_on channel=0 note=74 velocity=100 time=0
the msg is note_off channel=0 note=72 velocity=0 time=4
the msg is note_on channel=0 note=72 velocity=100 time=0
the msg is note_off channel=0 note=74 velocity=0 time=29
the msg is note_on channel=0 note=74 velocity=100 time=0
the msg is note_off channel=0 note=74 velocity=0 time=21
the msg is note_on channel=0 note=74 velocity=100 time=0
the msg is note_off channel=0 note=74 velocity=0 time=12
the msg is note_on channel=0 note=74 velocity=100 time=0
the msg is note_off channel=0 note=71 velocity=0 time=17
the msg is note_on channel=0 note=71 velocity=100 time=0
the msg is note_off channel=0 note=74 velocity=0 time=8
the msg is note_on channel=0 note=74 velocity=100 time=0
the msg is note_off channel=0 note=76 velocity=0 time=25
the msg is note_on channel=0 note=76 velocity=100 time=0
the msg is note_off channel=0 note=79 velocity=0 time=25
the msg is note_on channel=0 note=79 velocity=100 time=0
the msg is note_off channel=0 note=72 velocity=0 time=12
the msg is note_on channel=0 note=72 velocity=100 time=0
the msg is note_off channel=0 note=72 velocity=0 time=12
the msg is note_on channel=0 note=72 velocity=100 time=0
the msg is note_off channel=0 note=72 velocity=0 time=12
the msg is note_on channel=0 note=72 velocity=100 time=0
the msg is note_off channel=0 note=72 velocity=0 time=25
the msg is note_on channel=0 note=72 velocity=100 time=0
the msg is note_off channel=0 note=72 velocity=0 time=12
the msg is note_on channel=0 note=72 velocity=100 time=0
the msg is note_off channel=0 note=72 velocity=0 time=12
the msg is note_on channel=0 note=72 velocity=100 time=0
the msg is <meta message end_of_track time=51>
the msg is <meta message track_name name='Acoustic Guitar' time=0>
the msg is program_change channel=0 program=24 time=0
the msg is note_off channel=0 note=69 velocity=0 time=0
the msg is pitchwheel channel=0 pitch=0 time=0
the msg is program_change channel=0 program=24 time=0
the msg is <meta message set_tempo tempo=500000 time=0>
the msg is <meta message time_signature numerator=4 denominator=4 clocks_per_click=24 notated_32nd_notes_per_beat=8 time=0>
the msg is note_on channel=0 note=69 velocity=100 time=0
the msg is note_off channel=0 note=72 velocity=0 time=166
the msg is note_on channel=0 note=72 velocity=100 time=0
the msg is note_off channel=0 note=72 velocity=0 time=12
the msg is note_on channel=0 note=72 velocity=100 time=0
the msg is note_off channel=0 note=72 velocity=0 time=12
the msg is note_on channel=0 note=72 velocity=100 time=0
the msg is note_off channel=0 note=72 velocity=0 time=25
the msg is note_on channel=0 note=72 velocity=100 time=0
the msg is note_off channel=0 note=74 velocity=0 time=25
the msg is note_on channel=0 note=74 velocity=100 time=0
the msg is note_off channel=0 note=74 velocity=0 time=12
the msg is note_on channel=0 note=74 velocity=100 time=0
the msg is note_off channel=0 note=71 velocity=0 time=12
the msg is note_on channel=0 note=71 velocity=100 time=0
the msg is note_off channel=0 note=74 velocity=0 time=25
the msg is note_on channel=0 note=74 velocity=100 time=0
the msg is note_off channel=0 note=74 velocity=0 time=12
the msg is note_on channel=0 note=74 velocity=100 time=0
the msg is note_off channel=0 note=71 velocity=0 time=12
the msg is note_on channel=0 note=71 velocity=100 time=0
the msg is note_off channel=0 note=71 velocity=0 time=12
the msg is note_on channel=0 note=71 velocity=100 time=0
the msg is note_off channel=0 note=69 velocity=0 time=12
the msg is note_on channel=0 note=69 velocity=100 time=0
the msg is note_off channel=0 note=72 velocity=0 time=115
the msg is note_on channel=0 note=72 velocity=100 time=0
the msg is note_off channel=0 note=72 velocity=0 time=34
the msg is note_on channel=0 note=72 velocity=100 time=0
the msg is note_off channel=0 note=72 velocity=0 time=4
the msg is note_on channel=0 note=72 velocity=100 time=0
the msg is note_off channel=0 note=72 velocity=0 time=12
the msg is note_on channel=0 note=72 velocity=100 time=0
the msg is note_off channel=0 note=72 velocity=0 time=17
the msg is note_on channel=0 note=72 velocity=100 time=0
the msg is note_off channel=0 note=76 velocity=0 time=17
the msg is note_on channel=0 note=76 velocity=100 time=0
the msg is note_off channel=0 note=79 velocity=0 time=17
the msg is note_on channel=0 note=79 velocity=100 time=0
the msg is note_off channel=0 note=76 velocity=0 time=34
the msg is note_on channel=0 note=76 velocity=100 time=0
the msg is note_off channel=0 note=79 velocity=0 time=17
the msg is note_on channel=0 note=79 velocity=100 time=0
the msg is note_off channel=0 note=79 velocity=0 time=17
the msg is note_on channel=0 note=79 velocity=100 time=0
the msg is note_off channel=0 note=76 velocity=0 time=17
the msg is note_on channel=0 note=76 velocity=100 time=0
the msg is note_off channel=0 note=74 velocity=0 time=4
the msg is note_on channel=0 note=74 velocity=100 time=0
the msg is note_off channel=0 note=72 velocity=0 time=12
the msg is note_on channel=0 note=72 velocity=100 time=0
the msg is note_off channel=0 note=74 velocity=0 time=34
the msg is note_on channel=0 note=74 velocity=100 time=0
the msg is note_off channel=0 note=74 velocity=0 time=17
the msg is note_on channel=0 note=74 velocity=100 time=0
the msg is note_off channel=0 note=74 velocity=0 time=34
the msg is note_on channel=0 note=74 velocity=100 time=0
the msg is note_off channel=0 note=76 velocity=0 time=17
the msg is note_on channel=0 note=76 velocity=100 time=0
the msg is note_off channel=0 note=79 velocity=0 time=34
the msg is note_on channel=0 note=79 velocity=100 time=0
the msg is note_off channel=0 note=79 velocity=0 time=17
the msg is note_off channel=0 note=76 velocity=0 time=0
the msg is note_on channel=0 note=79 velocity=100 time=0
the msg is note_on channel=0 note=76 velocity=100 time=0
the msg is note_off channel=0 note=74 velocity=0 time=25
the msg is note_on channel=0 note=74 velocity=100 time=0
the msg is note_off channel=0 note=72 velocity=0 time=8
the msg is note_on channel=0 note=72 velocity=100 time=0
the msg is note_off channel=0 note=74 velocity=0 time=17
the msg is note_on channel=0 note=74 velocity=100 time=0
the msg is note_off channel=0 note=76 velocity=0 time=34
the msg is note_on channel=0 note=76 velocity=100 time=0
the msg is note_off channel=0 note=72 velocity=0 time=4
the msg is note_on channel=0 note=72 velocity=100 time=0
the msg is note_off channel=0 note=74 velocity=0 time=12
the msg is note_on channel=0 note=74 velocity=100 time=0
the msg is note_off channel=0 note=74 velocity=0 time=34
the msg is note_on channel=0 note=74 velocity=100 time=0
the msg is note_off channel=0 note=74 velocity=0 time=17
the msg is note_on channel=0 note=74 velocity=100 time=0
the msg is note_off channel=0 note=74 velocity=0 time=17
the msg is note_on channel=0 note=74 velocity=100 time=0
the msg is note_off channel=0 note=71 velocity=0 time=17
the msg is note_on channel=0 note=71 velocity=100 time=0
the msg is note_off channel=0 note=74 velocity=0 time=17
the msg is note_on channel=0 note=74 velocity=100 time=0
the msg is note_off channel=0 note=74 velocity=0 time=34
the msg is note_on channel=0 note=74 velocity=100 time=0
the msg is note_off channel=0 note=72 velocity=0 time=4
the msg is note_on channel=0 note=72 velocity=100 time=0
the msg is note_off channel=0 note=74 velocity=0 time=29
the msg is note_on channel=0 note=74 velocity=100 time=0
the msg is note_off channel=0 note=74 velocity=0 time=21
the msg is note_on channel=0 note=74 velocity=100 time=0
the msg is note_off channel=0 note=74 velocity=0 time=12
the msg is note_on channel=0 note=74 velocity=100 time=0
the msg is note_off channel=0 note=71 velocity=0 time=17
the msg is note_on channel=0 note=71 velocity=100 time=0
the msg is note_off channel=0 note=74 velocity=0 time=8
the msg is note_on channel=0 note=74 velocity=100 time=0
the msg is note_off channel=0 note=76 velocity=0 time=25
the msg is note_on channel=0 note=76 velocity=100 time=0
the msg is note_off channel=0 note=79 velocity=0 time=25
the msg is note_on channel=0 note=79 velocity=100 time=0
the msg is note_off channel=0 note=72 velocity=0 time=12
the msg is note_on channel=0 note=72 velocity=100 time=0
the msg is note_off channel=0 note=72 velocity=0 time=12
the msg is note_on channel=0 note=72 velocity=100 time=0
the msg is note_off channel=0 note=72 velocity=0 time=12
the msg is note_on channel=0 note=72 velocity=100 time=0
the msg is note_off channel=0 note=72 velocity=0 time=25
the msg is note_on channel=0 note=72 velocity=100 time=0
the msg is note_off channel=0 note=72 velocity=0 time=12
the msg is note_on channel=0 note=72 velocity=100 time=0
the msg is note_off channel=0 note=72 velocity=0 time=12
the msg is note_on channel=0 note=72 velocity=100 time=0
the msg is <meta message end_of_track time=51>
the msg is <meta message track_name name='Acoustic Guitar' time=0>
the msg is program_change channel=0 program=24 time=0
the msg is note_off channel=0 note=69 velocity=0 time=0
the msg is pitchwheel channel=0 pitch=0 time=0
the msg is program_change channel=0 program=24 time=0
the msg is <meta message set_tempo tempo=500000 time=0>
the msg is <meta message time_signature numerator=4 denominator=4 clocks_per_click=24 notated_32nd_notes_per_beat=8 time=0>
the msg is note_on channel=0 note=69 velocity=100 time=0
the msg is note_off channel=0 note=72 velocity=0 time=166
the msg is note_on channel=0 note=72 velocity=100 time=0
the msg is note_off channel=0 note=72 velocity=0 time=12
the msg is note_on channel=0 note=72 velocity=100 time=0
the msg is note_off channel=0 note=72 velocity=0 time=12
the msg is note_on channel=0 note=72 velocity=100 time=0
the msg is note_off channel=0 note=72 velocity=0 time=25
the msg is note_on channel=0 note=72 velocity=100 time=0
the msg is note_off channel=0 note=74 velocity=0 time=25
the msg is note_on channel=0 note=74 velocity=100 time=0
the msg is note_off channel=0 note=74 velocity=0 time=12
the msg is note_on channel=0 note=74 velocity=100 time=0
the msg is note_off channel=0 note=71 velocity=0 time=12
the msg is note_on channel=0 note=71 velocity=100 time=0
the msg is note_off channel=0 note=74 velocity=0 time=25
the msg is note_on channel=0 note=74 velocity=100 time=0
the msg is note_off channel=0 note=74 velocity=0 time=12
the msg is note_on channel=0 note=74 velocity=100 time=0
the msg is note_off channel=0 note=71 velocity=0 time=12
the msg is note_on channel=0 note=71 velocity=100 time=0
the msg is note_off channel=0 note=71 velocity=0 time=12
the msg is note_on channel=0 note=71 velocity=100 time=0
the msg is note_off channel=0 note=69 velocity=0 time=12
the msg is note_on channel=0 note=69 velocity=100 time=0
the msg is note_off channel=0 note=72 velocity=0 time=115
the msg is note_on channel=0 note=72 velocity=100 time=0
the msg is note_off channel=0 note=72 velocity=0 time=34
the msg is note_on channel=0 note=72 velocity=100 time=0
the msg is note_off channel=0 note=72 velocity=0 time=4
the msg is note_on channel=0 note=72 velocity=100 time=0
the msg is note_off channel=0 note=72 velocity=0 time=12
the msg is note_on channel=0 note=72 velocity=100 time=0
the msg is note_off channel=0 note=72 velocity=0 time=17
the msg is note_on channel=0 note=72 velocity=100 time=0
the msg is note_off channel=0 note=76 velocity=0 time=17
the msg is note_on channel=0 note=76 velocity=100 time=0
the msg is note_off channel=0 note=79 velocity=0 time=17
the msg is note_on channel=0 note=79 velocity=100 time=0
the msg is note_off channel=0 note=76 velocity=0 time=34
the msg is note_on channel=0 note=76 velocity=100 time=0
the msg is note_off channel=0 note=79 velocity=0 time=17
the msg is note_on channel=0 note=79 velocity=100 time=0
the msg is note_off channel=0 note=79 velocity=0 time=17
the msg is note_on channel=0 note=79 velocity=100 time=0
the msg is note_off channel=0 note=76 velocity=0 time=17
the msg is note_on channel=0 note=76 velocity=100 time=0
the msg is note_off channel=0 note=74 velocity=0 time=4
the msg is note_on channel=0 note=74 velocity=100 time=0
the msg is note_off channel=0 note=72 velocity=0 time=12
the msg is note_on channel=0 note=72 velocity=100 time=0
the msg is note_off channel=0 note=74 velocity=0 time=34
the msg is note_on channel=0 note=74 velocity=100 time=0
the msg is note_off channel=0 note=74 velocity=0 time=17
the msg is note_on channel=0 note=74 velocity=100 time=0
the msg is note_off channel=0 note=74 velocity=0 time=34
the msg is note_on channel=0 note=74 velocity=100 time=0
the msg is note_off channel=0 note=76 velocity=0 time=17
the msg is note_on channel=0 note=76 velocity=100 time=0
the msg is note_off channel=0 note=79 velocity=0 time=34
the msg is note_on channel=0 note=79 velocity=100 time=0
the msg is note_off channel=0 note=79 velocity=0 time=17
the msg is note_off channel=0 note=76 velocity=0 time=0
the msg is note_on channel=0 note=79 velocity=100 time=0
the msg is note_on channel=0 note=76 velocity=100 time=0
the msg is note_off channel=0 note=74 velocity=0 time=25
the msg is note_on channel=0 note=74 velocity=100 time=0
the msg is note_off channel=0 note=72 velocity=0 time=8
the msg is note_on channel=0 note=72 velocity=100 time=0
the msg is note_off channel=0 note=74 velocity=0 time=17
the msg is note_on channel=0 note=74 velocity=100 time=0
the msg is note_off channel=0 note=76 velocity=0 time=34
the msg is note_on channel=0 note=76 velocity=100 time=0
the msg is note_off channel=0 note=72 velocity=0 time=4
the msg is note_on channel=0 note=72 velocity=100 time=0
the msg is note_off channel=0 note=74 velocity=0 time=12
the msg is note_on channel=0 note=74 velocity=100 time=0
the msg is note_off channel=0 note=74 velocity=0 time=34
the msg is note_on channel=0 note=74 velocity=100 time=0
the msg is note_off channel=0 note=74 velocity=0 time=17
the msg is note_on channel=0 note=74 velocity=100 time=0
the msg is note_off channel=0 note=74 velocity=0 time=17
the msg is note_on channel=0 note=74 velocity=100 time=0
the msg is note_off channel=0 note=71 velocity=0 time=17
the msg is note_on channel=0 note=71 velocity=100 time=0
the msg is note_off channel=0 note=74 velocity=0 time=17
the msg is note_on channel=0 note=74 velocity=100 time=0
the msg is note_off channel=0 note=74 velocity=0 time=34
the msg is note_on channel=0 note=74 velocity=100 time=0
the msg is note_off channel=0 note=72 velocity=0 time=4
the msg is note_on channel=0 note=72 velocity=100 time=0
the msg is note_off channel=0 note=74 velocity=0 time=29
the msg is note_on channel=0 note=74 velocity=100 time=0
the msg is note_off channel=0 note=74 velocity=0 time=21
the msg is note_on channel=0 note=74 velocity=100 time=0
the msg is note_off channel=0 note=74 velocity=0 time=12
the msg is note_on channel=0 note=74 velocity=100 time=0
the msg is note_off channel=0 note=71 velocity=0 time=17
the msg is note_on channel=0 note=71 velocity=100 time=0
the msg is note_off channel=0 note=74 velocity=0 time=8
the msg is note_on channel=0 note=74 velocity=100 time=0
the msg is note_off channel=0 note=76 velocity=0 time=25
the msg is note_on channel=0 note=76 velocity=100 time=0
the msg is note_off channel=0 note=79 velocity=0 time=25
the msg is note_on channel=0 note=79 velocity=100 time=0
the msg is note_off channel=0 note=72 velocity=0 time=12
the msg is note_on channel=0 note=72 velocity=100 time=0
the msg is note_off channel=0 note=72 velocity=0 time=12
the msg is note_on channel=0 note=72 velocity=100 time=0
the msg is note_off channel=0 note=72 velocity=0 time=12
the msg is note_on channel=0 note=72 velocity=100 time=0
the msg is note_off channel=0 note=72 velocity=0 time=25
the msg is note_on channel=0 note=72 velocity=100 time=0
the msg is note_off channel=0 note=72 velocity=0 time=12
the msg is note_on channel=0 note=72 velocity=100 time=0
the msg is note_off channel=0 note=72 velocity=0 time=12
the msg is note_on channel=0 note=72 velocity=100 time=0
the msg is <meta message end_of_track time=51>
the msg is <meta message track_name name='Acoustic Guitar' time=0>
the msg is program_change channel=0 program=24 time=0
the msg is note_off channel=0 note=69 velocity=0 time=0
the msg is pitchwheel channel=0 pitch=0 time=0
the msg is program_change channel=0 program=24 time=0
the msg is <meta message set_tempo tempo=500000 time=0>
the msg is <meta message time_signature numerator=4 denominator=4 clocks_per_click=24 notated_32nd_notes_per_beat=8 time=0>
the msg is note_on channel=0 note=69 velocity=100 time=0
the msg is note_off channel=0 note=72 velocity=0 time=166
the msg is note_on channel=0 note=72 velocity=100 time=0
the msg is note_off channel=0 note=72 velocity=0 time=12
the msg is note_on channel=0 note=72 velocity=100 time=0
the msg is note_off channel=0 note=72 velocity=0 time=12
the msg is note_on channel=0 note=72 velocity=100 time=0
the msg is note_off channel=0 note=72 velocity=0 time=25
the msg is note_on channel=0 note=72 velocity=100 time=0
the msg is note_off channel=0 note=74 velocity=0 time=25
the msg is note_on channel=0 note=74 velocity=100 time=0
the msg is note_off channel=0 note=74 velocity=0 time=12
the msg is note_on channel=0 note=74 velocity=100 time=0
the msg is note_off channel=0 note=71 velocity=0 time=12
the msg is note_on channel=0 note=71 velocity=100 time=0
the msg is note_off channel=0 note=74 velocity=0 time=25
the msg is note_on channel=0 note=74 velocity=100 time=0
the msg is note_off channel=0 note=74 velocity=0 time=12
the msg is note_on channel=0 note=74 velocity=100 time=0
the msg is note_off channel=0 note=71 velocity=0 time=12
the msg is note_on channel=0 note=71 velocity=100 time=0
the msg is note_off channel=0 note=71 velocity=0 time=12
the msg is note_on channel=0 note=71 velocity=100 time=0
the msg is note_off channel=0 note=69 velocity=0 time=12
the msg is note_on channel=0 note=69 velocity=100 time=0
the msg is note_off channel=0 note=72 velocity=0 time=115
the msg is note_on channel=0 note=72 velocity=100 time=0
the msg is note_off channel=0 note=72 velocity=0 time=34
the msg is note_on channel=0 note=72 velocity=100 time=0
the msg is note_off channel=0 note=72 velocity=0 time=4
the msg is note_on channel=0 note=72 velocity=100 time=0
the msg is note_off channel=0 note=72 velocity=0 time=12
the msg is note_on channel=0 note=72 velocity=100 time=0
the msg is note_off channel=0 note=72 velocity=0 time=17
the msg is note_on channel=0 note=72 velocity=100 time=0
the msg is note_off channel=0 note=76 velocity=0 time=17
the msg is note_on channel=0 note=76 velocity=100 time=0
the msg is note_off channel=0 note=79 velocity=0 time=17
the msg is note_on channel=0 note=79 velocity=100 time=0
the msg is note_off channel=0 note=76 velocity=0 time=34
the msg is note_on channel=0 note=76 velocity=100 time=0
the msg is note_off channel=0 note=79 velocity=0 time=17
the msg is note_on channel=0 note=79 velocity=100 time=0
the msg is note_off channel=0 note=79 velocity=0 time=17
the msg is note_on channel=0 note=79 velocity=100 time=0
the msg is note_off channel=0 note=76 velocity=0 time=17
the msg is note_on channel=0 note=76 velocity=100 time=0
the msg is note_off channel=0 note=74 velocity=0 time=4
the msg is note_on channel=0 note=74 velocity=100 time=0
the msg is note_off channel=0 note=72 velocity=0 time=12
the msg is note_on channel=0 note=72 velocity=100 time=0
the msg is note_off channel=0 note=74 velocity=0 time=34
the msg is note_on channel=0 note=74 velocity=100 time=0
the msg is note_off channel=0 note=74 velocity=0 time=17
the msg is note_on channel=0 note=74 velocity=100 time=0
the msg is note_off channel=0 note=74 velocity=0 time=34
the msg is note_on channel=0 note=74 velocity=100 time=0
the msg is note_off channel=0 note=76 velocity=0 time=17
the msg is note_on channel=0 note=76 velocity=100 time=0
the msg is note_off channel=0 note=79 velocity=0 time=34
the msg is note_on channel=0 note=79 velocity=100 time=0
the msg is note_off channel=0 note=79 velocity=0 time=17
the msg is note_off channel=0 note=76 velocity=0 time=0
the msg is note_on channel=0 note=79 velocity=100 time=0
the msg is note_on channel=0 note=76 velocity=100 time=0
the msg is note_off channel=0 note=74 velocity=0 time=25
the msg is note_on channel=0 note=74 velocity=100 time=0
the msg is note_off channel=0 note=72 velocity=0 time=8
the msg is note_on channel=0 note=72 velocity=100 time=0
the msg is note_off channel=0 note=74 velocity=0 time=17
the msg is note_on channel=0 note=74 velocity=100 time=0
the msg is note_off channel=0 note=76 velocity=0 time=34
the msg is note_on channel=0 note=76 velocity=100 time=0
the msg is note_off channel=0 note=72 velocity=0 time=4
the msg is note_on channel=0 note=72 velocity=100 time=0
the msg is note_off channel=0 note=74 velocity=0 time=12
the msg is note_on channel=0 note=74 velocity=100 time=0
the msg is note_off channel=0 note=74 velocity=0 time=34
the msg is note_on channel=0 note=74 velocity=100 time=0
the msg is note_off channel=0 note=74 velocity=0 time=17
the msg is note_on channel=0 note=74 velocity=100 time=0
the msg is note_off channel=0 note=74 velocity=0 time=17
the msg is note_on channel=0 note=74 velocity=100 time=0
the msg is note_off channel=0 note=71 velocity=0 time=17
the msg is note_on channel=0 note=71 velocity=100 time=0
the msg is note_off channel=0 note=74 velocity=0 time=17
the msg is note_on channel=0 note=74 velocity=100 time=0
the msg is note_off channel=0 note=74 velocity=0 time=34
the msg is note_on channel=0 note=74 velocity=100 time=0
the msg is note_off channel=0 note=72 velocity=0 time=4
the msg is note_on channel=0 note=72 velocity=100 time=0
the msg is note_off channel=0 note=74 velocity=0 time=29
the msg is note_on channel=0 note=74 velocity=100 time=0
the msg is note_off channel=0 note=74 velocity=0 time=21
the msg is note_on channel=0 note=74 velocity=100 time=0
the msg is note_off channel=0 note=74 velocity=0 time=12
the msg is note_on channel=0 note=74 velocity=100 time=0
the msg is note_off channel=0 note=71 velocity=0 time=17
the msg is note_on channel=0 note=71 velocity=100 time=0
the msg is note_off channel=0 note=74 velocity=0 time=8
the msg is note_on channel=0 note=74 velocity=100 time=0
the msg is note_off channel=0 note=76 velocity=0 time=25
the msg is note_on channel=0 note=76 velocity=100 time=0
the msg is note_off channel=0 note=79 velocity=0 time=25
the msg is note_on channel=0 note=79 velocity=100 time=0
the msg is note_off channel=0 note=72 velocity=0 time=12
the msg is note_on channel=0 note=72 velocity=100 time=0
the msg is note_off channel=0 note=72 velocity=0 time=12
the msg is note_on channel=0 note=72 velocity=100 time=0
the msg is note_off channel=0 note=72 velocity=0 time=12
the msg is note_on channel=0 note=72 velocity=100 time=0
the msg is note_off channel=0 note=72 velocity=0 time=25
the msg is note_on channel=0 note=72 velocity=100 time=0
the msg is note_off channel=0 note=72 velocity=0 time=12
the msg is note_on channel=0 note=72 velocity=100 time=0
the msg is note_off channel=0 note=72 velocity=0 time=12
the msg is note_on channel=0 note=72 velocity=100 time=0
the msg is <meta message end_of_track time=51>
the msg is <meta message track_name name='Acoustic Guitar' time=0>
the msg is program_change channel=0 program=24 time=0
the msg is note_off channel=0 note=69 velocity=0 time=0
the msg is pitchwheel channel=0 pitch=0 time=0
the msg is program_change channel=0 program=24 time=0
the msg is <meta message set_tempo tempo=500000 time=0>
the msg is <meta message time_signature numerator=4 denominator=4 clocks_per_click=24 notated_32nd_notes_per_beat=8 time=0>
the msg is note_on channel=0 note=69 velocity=100 time=0
the msg is note_off channel=0 note=72 velocity=0 time=166
the msg is note_on channel=0 note=72 velocity=100 time=0
the msg is note_off channel=0 note=72 velocity=0 time=12
the msg is note_on channel=0 note=72 velocity=100 time=0
the msg is note_off channel=0 note=72 velocity=0 time=12
the msg is note_on channel=0 note=72 velocity=100 time=0
the msg is note_off channel=0 note=72 velocity=0 time=25
the msg is note_on channel=0 note=72 velocity=100 time=0
the msg is note_off channel=0 note=74 velocity=0 time=25
the msg is note_on channel=0 note=74 velocity=100 time=0
the msg is note_off channel=0 note=74 velocity=0 time=12
the msg is note_on channel=0 note=74 velocity=100 time=0
the msg is note_off channel=0 note=71 velocity=0 time=12
the msg is note_on channel=0 note=71 velocity=100 time=0
the msg is note_off channel=0 note=74 velocity=0 time=25
the msg is note_on channel=0 note=74 velocity=100 time=0
the msg is note_off channel=0 note=74 velocity=0 time=12
the msg is note_on channel=0 note=74 velocity=100 time=0
the msg is note_off channel=0 note=71 velocity=0 time=12
the msg is note_on channel=0 note=71 velocity=100 time=0
the msg is note_off channel=0 note=71 velocity=0 time=12
the msg is note_on channel=0 note=71 velocity=100 time=0
the msg is note_off channel=0 note=69 velocity=0 time=12
the msg is note_on channel=0 note=69 velocity=100 time=0
the msg is note_off channel=0 note=72 velocity=0 time=115
the msg is note_on channel=0 note=72 velocity=100 time=0
the msg is note_off channel=0 note=72 velocity=0 time=34
the msg is note_on channel=0 note=72 velocity=100 time=0
the msg is note_off channel=0 note=72 velocity=0 time=4
the msg is note_on channel=0 note=72 velocity=100 time=0
the msg is note_off channel=0 note=72 velocity=0 time=12
the msg is note_on channel=0 note=72 velocity=100 time=0
the msg is note_off channel=0 note=72 velocity=0 time=17
the msg is note_on channel=0 note=72 velocity=100 time=0
the msg is note_off channel=0 note=76 velocity=0 time=17
the msg is note_on channel=0 note=76 velocity=100 time=0
the msg is note_off channel=0 note=79 velocity=0 time=17
the msg is note_on channel=0 note=79 velocity=100 time=0
the msg is note_off channel=0 note=76 velocity=0 time=34
the msg is note_on channel=0 note=76 velocity=100 time=0
the msg is note_off channel=0 note=79 velocity=0 time=17
the msg is note_on channel=0 note=79 velocity=100 time=0
the msg is note_off channel=0 note=79 velocity=0 time=17
the msg is note_on channel=0 note=79 velocity=100 time=0
the msg is note_off channel=0 note=76 velocity=0 time=17
the msg is note_on channel=0 note=76 velocity=100 time=0
the msg is note_off channel=0 note=74 velocity=0 time=4
the msg is note_on channel=0 note=74 velocity=100 time=0
the msg is note_off channel=0 note=72 velocity=0 time=12
the msg is note_on channel=0 note=72 velocity=100 time=0
the msg is note_off channel=0 note=74 velocity=0 time=34
the msg is note_on channel=0 note=74 velocity=100 time=0
the msg is note_off channel=0 note=74 velocity=0 time=17
the msg is note_on channel=0 note=74 velocity=100 time=0
the msg is note_off channel=0 note=74 velocity=0 time=34
the msg is note_on channel=0 note=74 velocity=100 time=0
the msg is note_off channel=0 note=76 velocity=0 time=17
the msg is note_on channel=0 note=76 velocity=100 time=0
the msg is note_off channel=0 note=79 velocity=0 time=34
the msg is note_on channel=0 note=79 velocity=100 time=0
the msg is note_off channel=0 note=79 velocity=0 time=17
the msg is note_off channel=0 note=76 velocity=0 time=0
the msg is note_on channel=0 note=79 velocity=100 time=0
the msg is note_on channel=0 note=76 velocity=100 time=0
the msg is note_off channel=0 note=74 velocity=0 time=25
the msg is note_on channel=0 note=74 velocity=100 time=0
the msg is note_off channel=0 note=72 velocity=0 time=8
the msg is note_on channel=0 note=72 velocity=100 time=0
the msg is note_off channel=0 note=74 velocity=0 time=17
the msg is note_on channel=0 note=74 velocity=100 time=0
the msg is note_off channel=0 note=76 velocity=0 time=34
the msg is note_on channel=0 note=76 velocity=100 time=0
the msg is note_off channel=0 note=72 velocity=0 time=4
the msg is note_on channel=0 note=72 velocity=100 time=0
the msg is note_off channel=0 note=74 velocity=0 time=12
the msg is note_on channel=0 note=74 velocity=100 time=0
the msg is note_off channel=0 note=74 velocity=0 time=34
the msg is note_on channel=0 note=74 velocity=100 time=0
the msg is note_off channel=0 note=74 velocity=0 time=17
the msg is note_on channel=0 note=74 velocity=100 time=0
the msg is note_off channel=0 note=74 velocity=0 time=17
the msg is note_on channel=0 note=74 velocity=100 time=0
the msg is note_off channel=0 note=71 velocity=0 time=17
the msg is note_on channel=0 note=71 velocity=100 time=0
the msg is note_off channel=0 note=74 velocity=0 time=17
the msg is note_on channel=0 note=74 velocity=100 time=0
the msg is note_off channel=0 note=74 velocity=0 time=34
the msg is note_on channel=0 note=74 velocity=100 time=0
the msg is note_off channel=0 note=72 velocity=0 time=4
the msg is note_on channel=0 note=72 velocity=100 time=0
the msg is note_off channel=0 note=74 velocity=0 time=29
the msg is note_on channel=0 note=74 velocity=100 time=0
the msg is note_off channel=0 note=74 velocity=0 time=21
the msg is note_on channel=0 note=74 velocity=100 time=0
the msg is note_off channel=0 note=74 velocity=0 time=12
the msg is note_on channel=0 note=74 velocity=100 time=0
the msg is note_off channel=0 note=71 velocity=0 time=17
the msg is note_on channel=0 note=71 velocity=100 time=0
the msg is note_off channel=0 note=74 velocity=0 time=8
the msg is note_on channel=0 note=74 velocity=100 time=0
the msg is note_off channel=0 note=76 velocity=0 time=25
the msg is note_on channel=0 note=76 velocity=100 time=0
the msg is note_off channel=0 note=79 velocity=0 time=25
the msg is note_on channel=0 note=79 velocity=100 time=0
the msg is note_off channel=0 note=72 velocity=0 time=12
the msg is note_on channel=0 note=72 velocity=100 time=0
the msg is note_off channel=0 note=72 velocity=0 time=12
the msg is note_on channel=0 note=72 velocity=100 time=0
the msg is note_off channel=0 note=72 velocity=0 time=12
the msg is note_on channel=0 note=72 velocity=100 time=0
the msg is note_off channel=0 note=72 velocity=0 time=25
the msg is note_on channel=0 note=72 velocity=100 time=0
the msg is note_off channel=0 note=72 velocity=0 time=12
the msg is note_on channel=0 note=72 velocity=100 time=0
the msg is note_off channel=0 note=72 velocity=0 time=12
the msg is note_on channel=0 note=72 velocity=100 time=0
the msg is <meta message end_of_track time=51>
the msg is <meta message track_name name='Acoustic Guitar' time=0>
the msg is program_change channel=0 program=24 time=0
the msg is note_off channel=0 note=69 velocity=0 time=0
the msg is pitchwheel channel=0 pitch=0 time=0
the msg is program_change channel=0 program=24 time=0
the msg is <meta message set_tempo tempo=500000 time=0>
the msg is <meta message time_signature numerator=4 denominator=4 clocks_per_click=24 notated_32nd_notes_per_beat=8 time=0>
the msg is note_on channel=0 note=69 velocity=100 time=0
the msg is note_off channel=0 note=72 velocity=0 time=166
the msg is note_on channel=0 note=72 velocity=100 time=0
the msg is note_off channel=0 note=72 velocity=0 time=12
the msg is note_on channel=0 note=72 velocity=100 time=0
the msg is note_off channel=0 note=72 velocity=0 time=12
the msg is note_on channel=0 note=72 velocity=100 time=0
the msg is note_off channel=0 note=72 velocity=0 time=25
the msg is note_on channel=0 note=72 velocity=100 time=0
the msg is note_off channel=0 note=74 velocity=0 time=25
the msg is note_on channel=0 note=74 velocity=100 time=0
the msg is note_off channel=0 note=74 velocity=0 time=12
the msg is note_on channel=0 note=74 velocity=100 time=0
the msg is note_off channel=0 note=71 velocity=0 time=12
the msg is note_on channel=0 note=71 velocity=100 time=0
the msg is note_off channel=0 note=74 velocity=0 time=25
the msg is note_on channel=0 note=74 velocity=100 time=0
the msg is note_off channel=0 note=74 velocity=0 time=12
the msg is note_on channel=0 note=74 velocity=100 time=0
the msg is note_off channel=0 note=71 velocity=0 time=12
the msg is note_on channel=0 note=71 velocity=100 time=0
the msg is note_off channel=0 note=71 velocity=0 time=12
the msg is note_on channel=0 note=71 velocity=100 time=0
the msg is note_off channel=0 note=69 velocity=0 time=12
the msg is note_on channel=0 note=69 velocity=100 time=0
the msg is note_off channel=0 note=72 velocity=0 time=115
the msg is note_on channel=0 note=72 velocity=100 time=0
the msg is note_off channel=0 note=72 velocity=0 time=34
the msg is note_on channel=0 note=72 velocity=100 time=0
the msg is note_off channel=0 note=72 velocity=0 time=4
the msg is note_on channel=0 note=72 velocity=100 time=0
the msg is note_off channel=0 note=72 velocity=0 time=12
the msg is note_on channel=0 note=72 velocity=100 time=0
the msg is note_off channel=0 note=72 velocity=0 time=17
the msg is note_on channel=0 note=72 velocity=100 time=0
the msg is note_off channel=0 note=76 velocity=0 time=17
the msg is note_on channel=0 note=76 velocity=100 time=0
the msg is note_off channel=0 note=79 velocity=0 time=17
the msg is note_on channel=0 note=79 velocity=100 time=0
the msg is note_off channel=0 note=76 velocity=0 time=34
the msg is note_on channel=0 note=76 velocity=100 time=0
the msg is note_off channel=0 note=79 velocity=0 time=17
the msg is note_on channel=0 note=79 velocity=100 time=0
the msg is note_off channel=0 note=79 velocity=0 time=17
the msg is note_on channel=0 note=79 velocity=100 time=0
the msg is note_off channel=0 note=76 velocity=0 time=17
the msg is note_on channel=0 note=76 velocity=100 time=0
the msg is note_off channel=0 note=74 velocity=0 time=4
the msg is note_on channel=0 note=74 velocity=100 time=0
the msg is note_off channel=0 note=72 velocity=0 time=12
the msg is note_on channel=0 note=72 velocity=100 time=0
the msg is note_off channel=0 note=74 velocity=0 time=34
the msg is note_on channel=0 note=74 velocity=100 time=0
the msg is note_off channel=0 note=74 velocity=0 time=17
the msg is note_on channel=0 note=74 velocity=100 time=0
the msg is note_off channel=0 note=74 velocity=0 time=34
the msg is note_on channel=0 note=74 velocity=100 time=0
the msg is note_off channel=0 note=76 velocity=0 time=17
the msg is note_on channel=0 note=76 velocity=100 time=0
the msg is note_off channel=0 note=79 velocity=0 time=34
the msg is note_on channel=0 note=79 velocity=100 time=0
the msg is note_off channel=0 note=79 velocity=0 time=17
the msg is note_off channel=0 note=76 velocity=0 time=0
the msg is note_on channel=0 note=79 velocity=100 time=0
the msg is note_on channel=0 note=76 velocity=100 time=0
the msg is note_off channel=0 note=74 velocity=0 time=25
the msg is note_on channel=0 note=74 velocity=100 time=0
the msg is note_off channel=0 note=72 velocity=0 time=8
the msg is note_on channel=0 note=72 velocity=100 time=0
the msg is note_off channel=0 note=74 velocity=0 time=17
the msg is note_on channel=0 note=74 velocity=100 time=0
the msg is note_off channel=0 note=76 velocity=0 time=34
the msg is note_on channel=0 note=76 velocity=100 time=0
the msg is note_off channel=0 note=72 velocity=0 time=4
the msg is note_on channel=0 note=72 velocity=100 time=0
the msg is note_off channel=0 note=74 velocity=0 time=12
the msg is note_on channel=0 note=74 velocity=100 time=0
the msg is note_off channel=0 note=74 velocity=0 time=34
the msg is note_on channel=0 note=74 velocity=100 time=0
the msg is note_off channel=0 note=74 velocity=0 time=17
the msg is note_on channel=0 note=74 velocity=100 time=0
the msg is note_off channel=0 note=74 velocity=0 time=17
the msg is note_on channel=0 note=74 velocity=100 time=0
the msg is note_off channel=0 note=71 velocity=0 time=17
the msg is note_on channel=0 note=71 velocity=100 time=0
the msg is note_off channel=0 note=74 velocity=0 time=17
the msg is note_on channel=0 note=74 velocity=100 time=0
the msg is note_off channel=0 note=74 velocity=0 time=34
the msg is note_on channel=0 note=74 velocity=100 time=0
the msg is note_off channel=0 note=72 velocity=0 time=4
the msg is note_on channel=0 note=72 velocity=100 time=0
the msg is note_off channel=0 note=74 velocity=0 time=29
the msg is note_on channel=0 note=74 velocity=100 time=0
the msg is note_off channel=0 note=74 velocity=0 time=21
the msg is note_on channel=0 note=74 velocity=100 time=0
the msg is note_off channel=0 note=74 velocity=0 time=12
the msg is note_on channel=0 note=74 velocity=100 time=0
the msg is note_off channel=0 note=71 velocity=0 time=17
the msg is note_on channel=0 note=71 velocity=100 time=0
the msg is note_off channel=0 note=74 velocity=0 time=8
the msg is note_on channel=0 note=74 velocity=100 time=0
the msg is note_off channel=0 note=76 velocity=0 time=25
the msg is note_on channel=0 note=76 velocity=100 time=0
the msg is note_off channel=0 note=79 velocity=0 time=25
the msg is note_on channel=0 note=79 velocity=100 time=0
the msg is note_off channel=0 note=72 velocity=0 time=12
the msg is note_on channel=0 note=72 velocity=100 time=0
the msg is note_off channel=0 note=72 velocity=0 time=12
the msg is note_on channel=0 note=72 velocity=100 time=0
the msg is note_off channel=0 note=72 velocity=0 time=12
the msg is note_on channel=0 note=72 velocity=100 time=0
the msg is note_off channel=0 note=72 velocity=0 time=25
the msg is note_on channel=0 note=72 velocity=100 time=0
the msg is note_off channel=0 note=72 velocity=0 time=12
the msg is note_on channel=0 note=72 velocity=100 time=0
the msg is note_off channel=0 note=72 velocity=0 time=12
the msg is note_on channel=0 note=72 velocity=100 time=0
the msg is <meta message end_of_track time=51>
the msg is <meta message track_name name='Acoustic Guitar' time=0>
the msg is program_change channel=0 program=24 time=0
the msg is note_off channel=0 note=69 velocity=0 time=0
the msg is pitchwheel channel=0 pitch=0 time=0
the msg is program_change channel=0 program=24 time=0
the msg is <meta message set_tempo tempo=500000 time=0>
the msg is <meta message time_signature numerator=4 denominator=4 clocks_per_click=24 notated_32nd_notes_per_beat=8 time=0>
the msg is note_on channel=0 note=69 velocity=100 time=0
the msg is note_off channel=0 note=72 velocity=0 time=166
the msg is note_on channel=0 note=72 velocity=100 time=0
the msg is note_off channel=0 note=72 velocity=0 time=12
the msg is note_on channel=0 note=72 velocity=100 time=0
the msg is note_off channel=0 note=72 velocity=0 time=12
the msg is note_on channel=0 note=72 velocity=100 time=0
the msg is note_off channel=0 note=72 velocity=0 time=25
the msg is note_on channel=0 note=72 velocity=100 time=0
the msg is note_off channel=0 note=74 velocity=0 time=25
the msg is note_on channel=0 note=74 velocity=100 time=0
the msg is note_off channel=0 note=74 velocity=0 time=12
the msg is note_on channel=0 note=74 velocity=100 time=0
the msg is note_off channel=0 note=71 velocity=0 time=12
the msg is note_on channel=0 note=71 velocity=100 time=0
the msg is note_off channel=0 note=74 velocity=0 time=25
the msg is note_on channel=0 note=74 velocity=100 time=0
the msg is note_off channel=0 note=74 velocity=0 time=12
the msg is note_on channel=0 note=74 velocity=100 time=0
the msg is note_off channel=0 note=71 velocity=0 time=12
the msg is note_on channel=0 note=71 velocity=100 time=0
the msg is note_off channel=0 note=71 velocity=0 time=12
the msg is note_on channel=0 note=71 velocity=100 time=0
the msg is note_off channel=0 note=69 velocity=0 time=12
the msg is note_on channel=0 note=69 velocity=100 time=0
the msg is note_off channel=0 note=72 velocity=0 time=115
the msg is note_on channel=0 note=72 velocity=100 time=0
the msg is note_off channel=0 note=72 velocity=0 time=34
the msg is note_on channel=0 note=72 velocity=100 time=0
the msg is note_off channel=0 note=72 velocity=0 time=4
the msg is note_on channel=0 note=72 velocity=100 time=0
the msg is note_off channel=0 note=72 velocity=0 time=12
the msg is note_on channel=0 note=72 velocity=100 time=0
the msg is note_off channel=0 note=72 velocity=0 time=17
the msg is note_on channel=0 note=72 velocity=100 time=0
the msg is note_off channel=0 note=76 velocity=0 time=17
the msg is note_on channel=0 note=76 velocity=100 time=0
the msg is note_off channel=0 note=79 velocity=0 time=17
the msg is note_on channel=0 note=79 velocity=100 time=0
the msg is note_off channel=0 note=76 velocity=0 time=34
the msg is note_on channel=0 note=76 velocity=100 time=0
the msg is note_off channel=0 note=79 velocity=0 time=17
the msg is note_on channel=0 note=79 velocity=100 time=0
the msg is note_off channel=0 note=79 velocity=0 time=17
the msg is note_on channel=0 note=79 velocity=100 time=0
the msg is note_off channel=0 note=76 velocity=0 time=17
the msg is note_on channel=0 note=76 velocity=100 time=0
the msg is note_off channel=0 note=74 velocity=0 time=4
the msg is note_on channel=0 note=74 velocity=100 time=0
the msg is note_off channel=0 note=72 velocity=0 time=12
the msg is note_on channel=0 note=72 velocity=100 time=0
the msg is note_off channel=0 note=74 velocity=0 time=34
the msg is note_on channel=0 note=74 velocity=100 time=0
the msg is note_off channel=0 note=74 velocity=0 time=17
the msg is note_on channel=0 note=74 velocity=100 time=0
the msg is note_off channel=0 note=74 velocity=0 time=34
the msg is note_on channel=0 note=74 velocity=100 time=0
the msg is note_off channel=0 note=76 velocity=0 time=17
the msg is note_on channel=0 note=76 velocity=100 time=0
the msg is note_off channel=0 note=79 velocity=0 time=34
the msg is note_on channel=0 note=79 velocity=100 time=0
the msg is note_off channel=0 note=79 velocity=0 time=17
the msg is note_off channel=0 note=76 velocity=0 time=0
the msg is note_on channel=0 note=79 velocity=100 time=0
the msg is note_on channel=0 note=76 velocity=100 time=0
the msg is note_off channel=0 note=74 velocity=0 time=25
the msg is note_on channel=0 note=74 velocity=100 time=0
the msg is note_off channel=0 note=72 velocity=0 time=8
the msg is note_on channel=0 note=72 velocity=100 time=0
the msg is note_off channel=0 note=74 velocity=0 time=17
the msg is note_on channel=0 note=74 velocity=100 time=0
the msg is note_off channel=0 note=76 velocity=0 time=34
the msg is note_on channel=0 note=76 velocity=100 time=0
the msg is note_off channel=0 note=72 velocity=0 time=4
the msg is note_on channel=0 note=72 velocity=100 time=0
the msg is note_off channel=0 note=74 velocity=0 time=12
the msg is note_on channel=0 note=74 velocity=100 time=0
the msg is note_off channel=0 note=74 velocity=0 time=34
the msg is note_on channel=0 note=74 velocity=100 time=0
the msg is note_off channel=0 note=74 velocity=0 time=17
the msg is note_on channel=0 note=74 velocity=100 time=0
the msg is note_off channel=0 note=74 velocity=0 time=17
the msg is note_on channel=0 note=74 velocity=100 time=0
the msg is note_off channel=0 note=71 velocity=0 time=17
the msg is note_on channel=0 note=71 velocity=100 time=0
the msg is note_off channel=0 note=74 velocity=0 time=17
the msg is note_on channel=0 note=74 velocity=100 time=0
the msg is note_off channel=0 note=74 velocity=0 time=34
the msg is note_on channel=0 note=74 velocity=100 time=0
the msg is note_off channel=0 note=72 velocity=0 time=4
the msg is note_on channel=0 note=72 velocity=100 time=0
the msg is note_off channel=0 note=74 velocity=0 time=29
the msg is note_on channel=0 note=74 velocity=100 time=0
the msg is note_off channel=0 note=74 velocity=0 time=21
the msg is note_on channel=0 note=74 velocity=100 time=0
the msg is note_off channel=0 note=74 velocity=0 time=12
the msg is note_on channel=0 note=74 velocity=100 time=0
the msg is note_off channel=0 note=71 velocity=0 time=17
the msg is note_on channel=0 note=71 velocity=100 time=0
the msg is note_off channel=0 note=74 velocity=0 time=8
the msg is note_on channel=0 note=74 velocity=100 time=0
the msg is note_off channel=0 note=76 velocity=0 time=25
the msg is note_on channel=0 note=76 velocity=100 time=0
the msg is note_off channel=0 note=79 velocity=0 time=25
the msg is note_on channel=0 note=79 velocity=100 time=0
the msg is note_off channel=0 note=72 velocity=0 time=12
the msg is note_on channel=0 note=72 velocity=100 time=0
the msg is note_off channel=0 note=72 velocity=0 time=12
the msg is note_on channel=0 note=72 velocity=100 time=0
the msg is note_off channel=0 note=72 velocity=0 time=12
the msg is note_on channel=0 note=72 velocity=100 time=0
the msg is note_off channel=0 note=72 velocity=0 time=25
the msg is note_on channel=0 note=72 velocity=100 time=0
the msg is note_off channel=0 note=72 velocity=0 time=12
the msg is note_on channel=0 note=72 velocity=100 time=0
the msg is note_off channel=0 note=72 velocity=0 time=12
the msg is note_on channel=0 note=72 velocity=100 time=0
the msg is <meta message end_of_track time=51>
the msg is <meta message track_name name='Acoustic Guitar' time=0>
the msg is program_change channel=0 program=24 time=0
the msg is note_off channel=0 note=69 velocity=0 time=0
the msg is pitchwheel channel=0 pitch=0 time=0
the msg is program_change channel=0 program=24 time=0
the msg is <meta message set_tempo tempo=500000 time=0>
the msg is <meta message time_signature numerator=4 denominator=4 clocks_per_click=24 notated_32nd_notes_per_beat=8 time=0>
the msg is note_on channel=0 note=69 velocity=100 time=0
the msg is note_off channel=0 note=72 velocity=0 time=166
the msg is note_on channel=0 note=72 velocity=100 time=0
the msg is note_off channel=0 note=72 velocity=0 time=12
the msg is note_on channel=0 note=72 velocity=100 time=0
the msg is note_off channel=0 note=72 velocity=0 time=12
the msg is note_on channel=0 note=72 velocity=100 time=0
the msg is note_off channel=0 note=72 velocity=0 time=25
the msg is note_on channel=0 note=72 velocity=100 time=0
the msg is note_off channel=0 note=74 velocity=0 time=25
the msg is note_on channel=0 note=74 velocity=100 time=0
the msg is note_off channel=0 note=74 velocity=0 time=12
the msg is note_on channel=0 note=74 velocity=100 time=0
the msg is note_off channel=0 note=71 velocity=0 time=12
the msg is note_on channel=0 note=71 velocity=100 time=0
the msg is note_off channel=0 note=74 velocity=0 time=25
the msg is note_on channel=0 note=74 velocity=100 time=0
the msg is note_off channel=0 note=74 velocity=0 time=12
the msg is note_on channel=0 note=74 velocity=100 time=0
the msg is note_off channel=0 note=71 velocity=0 time=12
the msg is note_on channel=0 note=71 velocity=100 time=0
the msg is note_off channel=0 note=71 velocity=0 time=12
the msg is note_on channel=0 note=71 velocity=100 time=0
the msg is note_off channel=0 note=69 velocity=0 time=12
the msg is note_on channel=0 note=69 velocity=100 time=0
the msg is note_off channel=0 note=72 velocity=0 time=115
the msg is note_on channel=0 note=72 velocity=100 time=0
the msg is note_off channel=0 note=72 velocity=0 time=34
the msg is note_on channel=0 note=72 velocity=100 time=0
the msg is note_off channel=0 note=72 velocity=0 time=4
the msg is note_on channel=0 note=72 velocity=100 time=0
the msg is note_off channel=0 note=72 velocity=0 time=12
the msg is note_on channel=0 note=72 velocity=100 time=0
the msg is note_off channel=0 note=72 velocity=0 time=17
the msg is note_on channel=0 note=72 velocity=100 time=0
the msg is note_off channel=0 note=76 velocity=0 time=17
the msg is note_on channel=0 note=76 velocity=100 time=0
the msg is note_off channel=0 note=79 velocity=0 time=17
the msg is note_on channel=0 note=79 velocity=100 time=0
the msg is note_off channel=0 note=76 velocity=0 time=34
the msg is note_on channel=0 note=76 velocity=100 time=0
the msg is note_off channel=0 note=79 velocity=0 time=17
the msg is note_on channel=0 note=79 velocity=100 time=0
the msg is note_off channel=0 note=79 velocity=0 time=17
the msg is note_on channel=0 note=79 velocity=100 time=0
the msg is note_off channel=0 note=76 velocity=0 time=17
the msg is note_on channel=0 note=76 velocity=100 time=0
the msg is note_off channel=0 note=74 velocity=0 time=4
the msg is note_on channel=0 note=74 velocity=100 time=0
the msg is note_off channel=0 note=72 velocity=0 time=12
the msg is note_on channel=0 note=72 velocity=100 time=0
the msg is note_off channel=0 note=74 velocity=0 time=34
the msg is note_on channel=0 note=74 velocity=100 time=0
the msg is note_off channel=0 note=74 velocity=0 time=17
the msg is note_on channel=0 note=74 velocity=100 time=0
the msg is note_off channel=0 note=74 velocity=0 time=34
the msg is note_on channel=0 note=74 velocity=100 time=0
the msg is note_off channel=0 note=76 velocity=0 time=17
the msg is note_on channel=0 note=76 velocity=100 time=0
the msg is note_off channel=0 note=79 velocity=0 time=34
the msg is note_on channel=0 note=79 velocity=100 time=0
the msg is note_off channel=0 note=79 velocity=0 time=17
the msg is note_off channel=0 note=76 velocity=0 time=0
the msg is note_on channel=0 note=79 velocity=100 time=0
the msg is note_on channel=0 note=76 velocity=100 time=0
the msg is note_off channel=0 note=74 velocity=0 time=25
the msg is note_on channel=0 note=74 velocity=100 time=0
the msg is note_off channel=0 note=72 velocity=0 time=8
the msg is note_on channel=0 note=72 velocity=100 time=0
the msg is note_off channel=0 note=74 velocity=0 time=17
the msg is note_on channel=0 note=74 velocity=100 time=0
the msg is note_off channel=0 note=76 velocity=0 time=34
the msg is note_on channel=0 note=76 velocity=100 time=0
the msg is note_off channel=0 note=72 velocity=0 time=4
the msg is note_on channel=0 note=72 velocity=100 time=0
the msg is note_off channel=0 note=74 velocity=0 time=12
the msg is note_on channel=0 note=74 velocity=100 time=0
the msg is note_off channel=0 note=74 velocity=0 time=34
the msg is note_on channel=0 note=74 velocity=100 time=0
the msg is note_off channel=0 note=74 velocity=0 time=17
the msg is note_on channel=0 note=74 velocity=100 time=0
the msg is note_off channel=0 note=74 velocity=0 time=17
the msg is note_on channel=0 note=74 velocity=100 time=0
the msg is note_off channel=0 note=71 velocity=0 time=17
the msg is note_on channel=0 note=71 velocity=100 time=0
the msg is note_off channel=0 note=74 velocity=0 time=17
the msg is note_on channel=0 note=74 velocity=100 time=0
the msg is note_off channel=0 note=74 velocity=0 time=34
the msg is note_on channel=0 note=74 velocity=100 time=0
the msg is note_off channel=0 note=72 velocity=0 time=4
the msg is note_on channel=0 note=72 velocity=100 time=0
the msg is note_off channel=0 note=74 velocity=0 time=29
the msg is note_on channel=0 note=74 velocity=100 time=0
the msg is note_off channel=0 note=74 velocity=0 time=21
the msg is note_on channel=0 note=74 velocity=100 time=0
the msg is note_off channel=0 note=74 velocity=0 time=12
the msg is note_on channel=0 note=74 velocity=100 time=0
the msg is note_off channel=0 note=71 velocity=0 time=17
the msg is note_on channel=0 note=71 velocity=100 time=0
the msg is note_off channel=0 note=74 velocity=0 time=8
the msg is note_on channel=0 note=74 velocity=100 time=0
the msg is note_off channel=0 note=76 velocity=0 time=25
the msg is note_on channel=0 note=76 velocity=100 time=0
the msg is note_off channel=0 note=79 velocity=0 time=25
the msg is note_on channel=0 note=79 velocity=100 time=0
the msg is note_off channel=0 note=72 velocity=0 time=12
the msg is note_on channel=0 note=72 velocity=100 time=0
the msg is note_off channel=0 note=72 velocity=0 time=12
the msg is note_on channel=0 note=72 velocity=100 time=0
the msg is note_off channel=0 note=72 velocity=0 time=12
the msg is note_on channel=0 note=72 velocity=100 time=0
the msg is note_off channel=0 note=72 velocity=0 time=25
the msg is note_on channel=0 note=72 velocity=100 time=0
the msg is note_off channel=0 note=72 velocity=0 time=12
the msg is note_on channel=0 note=72 velocity=100 time=0
the msg is note_off channel=0 note=72 velocity=0 time=12
the msg is note_on channel=0 note=72 velocity=100 time=0
the msg is <meta message end_of_track time=51>
the msg is <meta message track_name name='Acoustic Guitar' time=0>
the msg is program_change channel=0 program=24 time=0
the msg is note_off channel=0 note=69 velocity=0 time=0
the msg is pitchwheel channel=0 pitch=0 time=0
the msg is program_change channel=0 program=24 time=0
the msg is <meta message set_tempo tempo=500000 time=0>
the msg is <meta message time_signature numerator=4 denominator=4 clocks_per_click=24 notated_32nd_notes_per_beat=8 time=0>
the msg is note_on channel=0 note=69 velocity=100 time=0
the msg is note_off channel=0 note=72 velocity=0 time=166
the msg is note_on channel=0 note=72 velocity=100 time=0
the msg is note_off channel=0 note=72 velocity=0 time=12
the msg is note_on channel=0 note=72 velocity=100 time=0
the msg is note_off channel=0 note=72 velocity=0 time=12
the msg is note_on channel=0 note=72 velocity=100 time=0
the msg is note_off channel=0 note=72 velocity=0 time=25
the msg is note_on channel=0 note=72 velocity=100 time=0
the msg is note_off channel=0 note=74 velocity=0 time=25
the msg is note_on channel=0 note=74 velocity=100 time=0
the msg is note_off channel=0 note=74 velocity=0 time=12
the msg is note_on channel=0 note=74 velocity=100 time=0
the msg is note_off channel=0 note=71 velocity=0 time=12
the msg is note_on channel=0 note=71 velocity=100 time=0
the msg is note_off channel=0 note=74 velocity=0 time=25
the msg is note_on channel=0 note=74 velocity=100 time=0
the msg is note_off channel=0 note=74 velocity=0 time=12
the msg is note_on channel=0 note=74 velocity=100 time=0
the msg is note_off channel=0 note=71 velocity=0 time=12
the msg is note_on channel=0 note=71 velocity=100 time=0
the msg is note_off channel=0 note=71 velocity=0 time=12
the msg is note_on channel=0 note=71 velocity=100 time=0
the msg is note_off channel=0 note=69 velocity=0 time=12
the msg is note_on channel=0 note=69 velocity=100 time=0
the msg is note_off channel=0 note=72 velocity=0 time=115
the msg is note_on channel=0 note=72 velocity=100 time=0
the msg is note_off channel=0 note=72 velocity=0 time=34
the msg is note_on channel=0 note=72 velocity=100 time=0
the msg is note_off channel=0 note=72 velocity=0 time=4
the msg is note_on channel=0 note=72 velocity=100 time=0
the msg is note_off channel=0 note=72 velocity=0 time=12
the msg is note_on channel=0 note=72 velocity=100 time=0
the msg is note_off channel=0 note=72 velocity=0 time=17
the msg is note_on channel=0 note=72 velocity=100 time=0
the msg is note_off channel=0 note=76 velocity=0 time=17
the msg is note_on channel=0 note=76 velocity=100 time=0
the msg is note_off channel=0 note=79 velocity=0 time=17
the msg is note_on channel=0 note=79 velocity=100 time=0
the msg is note_off channel=0 note=76 velocity=0 time=34
the msg is note_on channel=0 note=76 velocity=100 time=0
the msg is note_off channel=0 note=79 velocity=0 time=17
the msg is note_on channel=0 note=79 velocity=100 time=0
the msg is note_off channel=0 note=79 velocity=0 time=17
the msg is note_on channel=0 note=79 velocity=100 time=0
the msg is note_off channel=0 note=76 velocity=0 time=17
the msg is note_on channel=0 note=76 velocity=100 time=0
the msg is note_off channel=0 note=74 velocity=0 time=4
the msg is note_on channel=0 note=74 velocity=100 time=0
the msg is note_off channel=0 note=72 velocity=0 time=12
the msg is note_on channel=0 note=72 velocity=100 time=0
the msg is note_off channel=0 note=74 velocity=0 time=34
the msg is note_on channel=0 note=74 velocity=100 time=0
the msg is note_off channel=0 note=74 velocity=0 time=17
the msg is note_on channel=0 note=74 velocity=100 time=0
the msg is note_off channel=0 note=74 velocity=0 time=34
the msg is note_on channel=0 note=74 velocity=100 time=0
the msg is note_off channel=0 note=76 velocity=0 time=17
the msg is note_on channel=0 note=76 velocity=100 time=0
the msg is note_off channel=0 note=79 velocity=0 time=34
the msg is note_on channel=0 note=79 velocity=100 time=0
the msg is note_off channel=0 note=79 velocity=0 time=17
the msg is note_off channel=0 note=76 velocity=0 time=0
the msg is note_on channel=0 note=79 velocity=100 time=0
the msg is note_on channel=0 note=76 velocity=100 time=0
the msg is note_off channel=0 note=74 velocity=0 time=25
the msg is note_on channel=0 note=74 velocity=100 time=0
the msg is note_off channel=0 note=72 velocity=0 time=8
the msg is note_on channel=0 note=72 velocity=100 time=0
the msg is note_off channel=0 note=74 velocity=0 time=17
the msg is note_on channel=0 note=74 velocity=100 time=0
the msg is note_off channel=0 note=76 velocity=0 time=34
the msg is note_on channel=0 note=76 velocity=100 time=0
the msg is note_off channel=0 note=72 velocity=0 time=4
the msg is note_on channel=0 note=72 velocity=100 time=0
the msg is note_off channel=0 note=74 velocity=0 time=12
the msg is note_on channel=0 note=74 velocity=100 time=0
the msg is note_off channel=0 note=74 velocity=0 time=34
the msg is note_on channel=0 note=74 velocity=100 time=0
the msg is note_off channel=0 note=74 velocity=0 time=17
the msg is note_on channel=0 note=74 velocity=100 time=0
the msg is note_off channel=0 note=74 velocity=0 time=17
the msg is note_on channel=0 note=74 velocity=100 time=0
the msg is note_off channel=0 note=71 velocity=0 time=17
the msg is note_on channel=0 note=71 velocity=100 time=0
the msg is note_off channel=0 note=74 velocity=0 time=17
the msg is note_on channel=0 note=74 velocity=100 time=0
the msg is note_off channel=0 note=74 velocity=0 time=34
the msg is note_on channel=0 note=74 velocity=100 time=0
the msg is note_off channel=0 note=72 velocity=0 time=4
the msg is note_on channel=0 note=72 velocity=100 time=0
the msg is note_off channel=0 note=74 velocity=0 time=29
the msg is note_on channel=0 note=74 velocity=100 time=0
the msg is note_off channel=0 note=74 velocity=0 time=21
the msg is note_on channel=0 note=74 velocity=100 time=0
the msg is note_off channel=0 note=74 velocity=0 time=12
the msg is note_on channel=0 note=74 velocity=100 time=0
the msg is note_off channel=0 note=71 velocity=0 time=17
the msg is note_on channel=0 note=71 velocity=100 time=0
the msg is note_off channel=0 note=74 velocity=0 time=8
the msg is note_on channel=0 note=74 velocity=100 time=0
the msg is note_off channel=0 note=76 velocity=0 time=25
the msg is note_on channel=0 note=76 velocity=100 time=0
the msg is note_off channel=0 note=79 velocity=0 time=25
the msg is note_on channel=0 note=79 velocity=100 time=0
the msg is note_off channel=0 note=72 velocity=0 time=12
the msg is note_on channel=0 note=72 velocity=100 time=0
the msg is note_off channel=0 note=72 velocity=0 time=12
the msg is note_on channel=0 note=72 velocity=100 time=0
the msg is note_off channel=0 note=72 velocity=0 time=12
the msg is note_on channel=0 note=72 velocity=100 time=0
the msg is note_off channel=0 note=72 velocity=0 time=25
the msg is note_on channel=0 note=72 velocity=100 time=0
the msg is note_off channel=0 note=72 velocity=0 time=12
the msg is note_on channel=0 note=72 velocity=100 time=0
the msg is note_off channel=0 note=72 velocity=0 time=12
the msg is note_on channel=0 note=72 velocity=100 time=0
the msg is <meta message end_of_track time=51>
the msg is <meta message track_name name='Acoustic Guitar' time=0>
the msg is program_change channel=0 program=24 time=0
the msg is note_off channel=0 note=69 velocity=0 time=0
the msg is pitchwheel channel=0 pitch=0 time=0
the msg is program_change channel=0 program=24 time=0
the msg is <meta message set_tempo tempo=500000 time=0>
the msg is <meta message time_signature numerator=4 denominator=4 clocks_per_click=24 notated_32nd_notes_per_beat=8 time=0>
the msg is note_on channel=0 note=69 velocity=100 time=0
the msg is note_off channel=0 note=72 velocity=0 time=166
the msg is note_on channel=0 note=72 velocity=100 time=0
the msg is note_off channel=0 note=72 velocity=0 time=12
the msg is note_on channel=0 note=72 velocity=100 time=0
the msg is note_off channel=0 note=72 velocity=0 time=12
the msg is note_on channel=0 note=72 velocity=100 time=0
the msg is note_off channel=0 note=72 velocity=0 time=25
the msg is note_on channel=0 note=72 velocity=100 time=0
the msg is note_off channel=0 note=74 velocity=0 time=25
the msg is note_on channel=0 note=74 velocity=100 time=0
the msg is note_off channel=0 note=74 velocity=0 time=12
the msg is note_on channel=0 note=74 velocity=100 time=0
the msg is note_off channel=0 note=71 velocity=0 time=12
the msg is note_on channel=0 note=71 velocity=100 time=0
the msg is note_off channel=0 note=74 velocity=0 time=25
the msg is note_on channel=0 note=74 velocity=100 time=0
the msg is note_off channel=0 note=74 velocity=0 time=12
the msg is note_on channel=0 note=74 velocity=100 time=0
the msg is note_off channel=0 note=71 velocity=0 time=12
the msg is note_on channel=0 note=71 velocity=100 time=0
the msg is note_off channel=0 note=71 velocity=0 time=12
the msg is note_on channel=0 note=71 velocity=100 time=0
the msg is note_off channel=0 note=69 velocity=0 time=12
the msg is note_on channel=0 note=69 velocity=100 time=0
the msg is note_off channel=0 note=72 velocity=0 time=115
the msg is note_on channel=0 note=72 velocity=100 time=0
the msg is note_off channel=0 note=72 velocity=0 time=34
the msg is note_on channel=0 note=72 velocity=100 time=0
the msg is note_off channel=0 note=72 velocity=0 time=4
the msg is note_on channel=0 note=72 velocity=100 time=0
the msg is note_off channel=0 note=72 velocity=0 time=12
the msg is note_on channel=0 note=72 velocity=100 time=0
the msg is note_off channel=0 note=72 velocity=0 time=17
the msg is note_on channel=0 note=72 velocity=100 time=0
the msg is note_off channel=0 note=76 velocity=0 time=17
the msg is note_on channel=0 note=76 velocity=100 time=0
the msg is note_off channel=0 note=79 velocity=0 time=17
the msg is note_on channel=0 note=79 velocity=100 time=0
the msg is note_off channel=0 note=76 velocity=0 time=34
the msg is note_on channel=0 note=76 velocity=100 time=0
the msg is note_off channel=0 note=79 velocity=0 time=17
the msg is note_on channel=0 note=79 velocity=100 time=0
the msg is note_off channel=0 note=79 velocity=0 time=17
the msg is note_on channel=0 note=79 velocity=100 time=0
the msg is note_off channel=0 note=76 velocity=0 time=17
the msg is note_on channel=0 note=76 velocity=100 time=0
the msg is note_off channel=0 note=74 velocity=0 time=4
the msg is note_on channel=0 note=74 velocity=100 time=0
the msg is note_off channel=0 note=72 velocity=0 time=12
the msg is note_on channel=0 note=72 velocity=100 time=0
the msg is note_off channel=0 note=74 velocity=0 time=34
the msg is note_on channel=0 note=74 velocity=100 time=0
the msg is note_off channel=0 note=74 velocity=0 time=17
the msg is note_on channel=0 note=74 velocity=100 time=0
the msg is note_off channel=0 note=74 velocity=0 time=34
the msg is note_on channel=0 note=74 velocity=100 time=0
the msg is note_off channel=0 note=76 velocity=0 time=17
the msg is note_on channel=0 note=76 velocity=100 time=0
the msg is note_off channel=0 note=79 velocity=0 time=34
the msg is note_on channel=0 note=79 velocity=100 time=0
the msg is note_off channel=0 note=79 velocity=0 time=17
the msg is note_off channel=0 note=76 velocity=0 time=0
the msg is note_on channel=0 note=79 velocity=100 time=0
the msg is note_on channel=0 note=76 velocity=100 time=0
the msg is note_off channel=0 note=74 velocity=0 time=25
the msg is note_on channel=0 note=74 velocity=100 time=0
the msg is note_off channel=0 note=72 velocity=0 time=8
the msg is note_on channel=0 note=72 velocity=100 time=0
the msg is note_off channel=0 note=74 velocity=0 time=17
the msg is note_on channel=0 note=74 velocity=100 time=0
the msg is note_off channel=0 note=76 velocity=0 time=34
the msg is note_on channel=0 note=76 velocity=100 time=0
the msg is note_off channel=0 note=72 velocity=0 time=4
the msg is note_on channel=0 note=72 velocity=100 time=0
the msg is note_off channel=0 note=74 velocity=0 time=12
the msg is note_on channel=0 note=74 velocity=100 time=0
the msg is note_off channel=0 note=74 velocity=0 time=34
the msg is note_on channel=0 note=74 velocity=100 time=0
the msg is note_off channel=0 note=74 velocity=0 time=17
the msg is note_on channel=0 note=74 velocity=100 time=0
the msg is note_off channel=0 note=74 velocity=0 time=17
the msg is note_on channel=0 note=74 velocity=100 time=0
the msg is note_off channel=0 note=71 velocity=0 time=17
the msg is note_on channel=0 note=71 velocity=100 time=0
the msg is note_off channel=0 note=74 velocity=0 time=17
the msg is note_on channel=0 note=74 velocity=100 time=0
the msg is note_off channel=0 note=74 velocity=0 time=34
the msg is note_on channel=0 note=74 velocity=100 time=0
the msg is note_off channel=0 note=72 velocity=0 time=4
the msg is note_on channel=0 note=72 velocity=100 time=0
the msg is note_off channel=0 note=74 velocity=0 time=29
the msg is note_on channel=0 note=74 velocity=100 time=0
the msg is note_off channel=0 note=74 velocity=0 time=21
the msg is note_on channel=0 note=74 velocity=100 time=0
the msg is note_off channel=0 note=74 velocity=0 time=12
the msg is note_on channel=0 note=74 velocity=100 time=0
the msg is note_off channel=0 note=71 velocity=0 time=17
the msg is note_on channel=0 note=71 velocity=100 time=0
the msg is note_off channel=0 note=74 velocity=0 time=8
the msg is note_on channel=0 note=74 velocity=100 time=0
the msg is note_off channel=0 note=76 velocity=0 time=25
the msg is note_on channel=0 note=76 velocity=100 time=0
the msg is note_off channel=0 note=79 velocity=0 time=25
the msg is note_on channel=0 note=79 velocity=100 time=0
the msg is note_off channel=0 note=72 velocity=0 time=12
the msg is note_on channel=0 note=72 velocity=100 time=0
the msg is note_off channel=0 note=72 velocity=0 time=12
the msg is note_on channel=0 note=72 velocity=100 time=0
the msg is note_off channel=0 note=72 velocity=0 time=12
the msg is note_on channel=0 note=72 velocity=100 time=0
the msg is note_off channel=0 note=72 velocity=0 time=25
the msg is note_on channel=0 note=72 velocity=100 time=0
the msg is note_off channel=0 note=72 velocity=0 time=12
the msg is note_on channel=0 note=72 velocity=100 time=0
the msg is note_off channel=0 note=72 velocity=0 time=12
the msg is note_on channel=0 note=72 velocity=100 time=0
the msg is <meta message end_of_track time=51>
the msg is <meta message track_name name='Acoustic Guitar' time=0>
the msg is program_change channel=0 program=24 time=0
the msg is note_off channel=0 note=69 velocity=0 time=0
the msg is pitchwheel channel=0 pitch=0 time=0
the msg is program_change channel=0 program=24 time=0
the msg is <meta message set_tempo tempo=500000 time=0>
the msg is <meta message time_signature numerator=4 denominator=4 clocks_per_click=24 notated_32nd_notes_per_beat=8 time=0>
the msg is note_on channel=0 note=69 velocity=100 time=0
the msg is note_off channel=0 note=72 velocity=0 time=166
the msg is note_on channel=0 note=72 velocity=100 time=0
the msg is note_off channel=0 note=72 velocity=0 time=12
the msg is note_on channel=0 note=72 velocity=100 time=0
the msg is note_off channel=0 note=72 velocity=0 time=12
the msg is note_on channel=0 note=72 velocity=100 time=0
the msg is note_off channel=0 note=72 velocity=0 time=25
the msg is note_on channel=0 note=72 velocity=100 time=0
the msg is note_off channel=0 note=74 velocity=0 time=25
the msg is note_on channel=0 note=74 velocity=100 time=0
the msg is note_off channel=0 note=74 velocity=0 time=12
the msg is note_on channel=0 note=74 velocity=100 time=0
the msg is note_off channel=0 note=71 velocity=0 time=12
the msg is note_on channel=0 note=71 velocity=100 time=0
the msg is note_off channel=0 note=74 velocity=0 time=25
the msg is note_on channel=0 note=74 velocity=100 time=0
the msg is note_off channel=0 note=74 velocity=0 time=12
the msg is note_on channel=0 note=74 velocity=100 time=0
the msg is note_off channel=0 note=71 velocity=0 time=12
the msg is note_on channel=0 note=71 velocity=100 time=0
the msg is note_off channel=0 note=71 velocity=0 time=12
the msg is note_on channel=0 note=71 velocity=100 time=0
the msg is note_off channel=0 note=69 velocity=0 time=12
the msg is note_on channel=0 note=69 velocity=100 time=0
the msg is note_off channel=0 note=72 velocity=0 time=115
the msg is note_on channel=0 note=72 velocity=100 time=0
the msg is note_off channel=0 note=72 velocity=0 time=34
the msg is note_on channel=0 note=72 velocity=100 time=0
the msg is note_off channel=0 note=72 velocity=0 time=4
the msg is note_on channel=0 note=72 velocity=100 time=0
the msg is note_off channel=0 note=72 velocity=0 time=12
the msg is note_on channel=0 note=72 velocity=100 time=0
the msg is note_off channel=0 note=72 velocity=0 time=17
the msg is note_on channel=0 note=72 velocity=100 time=0
the msg is note_off channel=0 note=76 velocity=0 time=17
the msg is note_on channel=0 note=76 velocity=100 time=0
the msg is note_off channel=0 note=79 velocity=0 time=17
the msg is note_on channel=0 note=79 velocity=100 time=0
the msg is note_off channel=0 note=76 velocity=0 time=34
the msg is note_on channel=0 note=76 velocity=100 time=0
the msg is note_off channel=0 note=79 velocity=0 time=17
the msg is note_on channel=0 note=79 velocity=100 time=0
the msg is note_off channel=0 note=79 velocity=0 time=17
the msg is note_on channel=0 note=79 velocity=100 time=0
the msg is note_off channel=0 note=76 velocity=0 time=17
the msg is note_on channel=0 note=76 velocity=100 time=0
the msg is note_off channel=0 note=74 velocity=0 time=4
the msg is note_on channel=0 note=74 velocity=100 time=0
the msg is note_off channel=0 note=72 velocity=0 time=12
the msg is note_on channel=0 note=72 velocity=100 time=0
the msg is note_off channel=0 note=74 velocity=0 time=34
the msg is note_on channel=0 note=74 velocity=100 time=0
the msg is note_off channel=0 note=74 velocity=0 time=17
the msg is note_on channel=0 note=74 velocity=100 time=0
the msg is note_off channel=0 note=74 velocity=0 time=34
the msg is note_on channel=0 note=74 velocity=100 time=0
the msg is note_off channel=0 note=76 velocity=0 time=17
the msg is note_on channel=0 note=76 velocity=100 time=0
the msg is note_off channel=0 note=79 velocity=0 time=34
the msg is note_on channel=0 note=79 velocity=100 time=0
the msg is note_off channel=0 note=79 velocity=0 time=17
the msg is note_off channel=0 note=76 velocity=0 time=0
the msg is note_on channel=0 note=79 velocity=100 time=0
the msg is note_on channel=0 note=76 velocity=100 time=0
the msg is note_off channel=0 note=74 velocity=0 time=25
the msg is note_on channel=0 note=74 velocity=100 time=0
the msg is note_off channel=0 note=72 velocity=0 time=8
the msg is note_on channel=0 note=72 velocity=100 time=0
the msg is note_off channel=0 note=74 velocity=0 time=17
the msg is note_on channel=0 note=74 velocity=100 time=0
the msg is note_off channel=0 note=76 velocity=0 time=34
the msg is note_on channel=0 note=76 velocity=100 time=0
the msg is note_off channel=0 note=72 velocity=0 time=4
the msg is note_on channel=0 note=72 velocity=100 time=0
the msg is note_off channel=0 note=74 velocity=0 time=12
the msg is note_on channel=0 note=74 velocity=100 time=0
the msg is note_off channel=0 note=74 velocity=0 time=34
the msg is note_on channel=0 note=74 velocity=100 time=0
the msg is note_off channel=0 note=74 velocity=0 time=17
the msg is note_on channel=0 note=74 velocity=100 time=0
the msg is note_off channel=0 note=74 velocity=0 time=17
the msg is note_on channel=0 note=74 velocity=100 time=0
the msg is note_off channel=0 note=71 velocity=0 time=17
the msg is note_on channel=0 note=71 velocity=100 time=0
the msg is note_off channel=0 note=74 velocity=0 time=17
the msg is note_on channel=0 note=74 velocity=100 time=0
the msg is note_off channel=0 note=74 velocity=0 time=34
the msg is note_on channel=0 note=74 velocity=100 time=0
the msg is note_off channel=0 note=72 velocity=0 time=4
the msg is note_on channel=0 note=72 velocity=100 time=0
the msg is note_off channel=0 note=74 velocity=0 time=29
the msg is note_on channel=0 note=74 velocity=100 time=0
the msg is note_off channel=0 note=74 velocity=0 time=21
the msg is note_on channel=0 note=74 velocity=100 time=0
the msg is note_off channel=0 note=74 velocity=0 time=12
the msg is note_on channel=0 note=74 velocity=100 time=0
the msg is note_off channel=0 note=71 velocity=0 time=17
the msg is note_on channel=0 note=71 velocity=100 time=0
the msg is note_off channel=0 note=74 velocity=0 time=8
the msg is note_on channel=0 note=74 velocity=100 time=0
the msg is note_off channel=0 note=76 velocity=0 time=25
the msg is note_on channel=0 note=76 velocity=100 time=0
the msg is note_off channel=0 note=79 velocity=0 time=25
the msg is note_on channel=0 note=79 velocity=100 time=0
the msg is note_off channel=0 note=72 velocity=0 time=12
the msg is note_on channel=0 note=72 velocity=100 time=0
the msg is note_off channel=0 note=72 velocity=0 time=12
the msg is note_on channel=0 note=72 velocity=100 time=0
the msg is note_off channel=0 note=72 velocity=0 time=12
the msg is note_on channel=0 note=72 velocity=100 time=0
the msg is note_off channel=0 note=72 velocity=0 time=25
the msg is note_on channel=0 note=72 velocity=100 time=0
the msg is note_off channel=0 note=72 velocity=0 time=12
the msg is note_on channel=0 note=72 velocity=100 time=0
the msg is note_off channel=0 note=72 velocity=0 time=12
the msg is note_on channel=0 note=72 velocity=100 time=0
the msg is <meta message end_of_track time=51>
the msg is <meta message track_name name='Acoustic Guitar' time=0>
the msg is program_change channel=0 program=24 time=0
the msg is note_off channel=0 note=69 velocity=0 time=0
the msg is pitchwheel channel=0 pitch=0 time=0
the msg is program_change channel=0 program=24 time=0
the msg is <meta message set_tempo tempo=500000 time=0>
the msg is <meta message time_signature numerator=4 denominator=4 clocks_per_click=24 notated_32nd_notes_per_beat=8 time=0>
the msg is note_on channel=0 note=69 velocity=100 time=0
the msg is note_off channel=0 note=72 velocity=0 time=166
the msg is note_on channel=0 note=72 velocity=100 time=0
the msg is note_off channel=0 note=72 velocity=0 time=12
the msg is note_on channel=0 note=72 velocity=100 time=0
the msg is note_off channel=0 note=72 velocity=0 time=12
the msg is note_on channel=0 note=72 velocity=100 time=0
the msg is note_off channel=0 note=72 velocity=0 time=25
the msg is note_on channel=0 note=72 velocity=100 time=0
the msg is note_off channel=0 note=74 velocity=0 time=25
the msg is note_on channel=0 note=74 velocity=100 time=0
the msg is note_off channel=0 note=74 velocity=0 time=12
the msg is note_on channel=0 note=74 velocity=100 time=0
the msg is note_off channel=0 note=71 velocity=0 time=12
the msg is note_on channel=0 note=71 velocity=100 time=0
the msg is note_off channel=0 note=74 velocity=0 time=25
the msg is note_on channel=0 note=74 velocity=100 time=0
the msg is note_off channel=0 note=74 velocity=0 time=12
the msg is note_on channel=0 note=74 velocity=100 time=0
the msg is note_off channel=0 note=71 velocity=0 time=12
the msg is note_on channel=0 note=71 velocity=100 time=0
the msg is note_off channel=0 note=71 velocity=0 time=12
the msg is note_on channel=0 note=71 velocity=100 time=0
the msg is note_off channel=0 note=69 velocity=0 time=12
the msg is note_on channel=0 note=69 velocity=100 time=0
the msg is note_off channel=0 note=72 velocity=0 time=115
the msg is note_on channel=0 note=72 velocity=100 time=0
the msg is note_off channel=0 note=72 velocity=0 time=34
the msg is note_on channel=0 note=72 velocity=100 time=0
the msg is note_off channel=0 note=72 velocity=0 time=4
the msg is note_on channel=0 note=72 velocity=100 time=0
the msg is note_off channel=0 note=72 velocity=0 time=12
the msg is note_on channel=0 note=72 velocity=100 time=0
the msg is note_off channel=0 note=72 velocity=0 time=17
the msg is note_on channel=0 note=72 velocity=100 time=0
the msg is note_off channel=0 note=76 velocity=0 time=17
the msg is note_on channel=0 note=76 velocity=100 time=0
the msg is note_off channel=0 note=79 velocity=0 time=17
the msg is note_on channel=0 note=79 velocity=100 time=0
the msg is note_off channel=0 note=76 velocity=0 time=34
the msg is note_on channel=0 note=76 velocity=100 time=0
the msg is note_off channel=0 note=79 velocity=0 time=17
the msg is note_on channel=0 note=79 velocity=100 time=0
the msg is note_off channel=0 note=79 velocity=0 time=17
the msg is note_on channel=0 note=79 velocity=100 time=0
the msg is note_off channel=0 note=76 velocity=0 time=17
the msg is note_on channel=0 note=76 velocity=100 time=0
the msg is note_off channel=0 note=74 velocity=0 time=4
the msg is note_on channel=0 note=74 velocity=100 time=0
the msg is note_off channel=0 note=72 velocity=0 time=12
the msg is note_on channel=0 note=72 velocity=100 time=0
the msg is note_off channel=0 note=74 velocity=0 time=34
the msg is note_on channel=0 note=74 velocity=100 time=0
the msg is note_off channel=0 note=74 velocity=0 time=17
the msg is note_on channel=0 note=74 velocity=100 time=0
the msg is note_off channel=0 note=74 velocity=0 time=34
the msg is note_on channel=0 note=74 velocity=100 time=0
the msg is note_off channel=0 note=76 velocity=0 time=17
the msg is note_on channel=0 note=76 velocity=100 time=0
the msg is note_off channel=0 note=79 velocity=0 time=34
the msg is note_on channel=0 note=79 velocity=100 time=0
the msg is note_off channel=0 note=79 velocity=0 time=17
the msg is note_off channel=0 note=76 velocity=0 time=0
the msg is note_on channel=0 note=79 velocity=100 time=0
the msg is note_on channel=0 note=76 velocity=100 time=0
the msg is note_off channel=0 note=74 velocity=0 time=25
the msg is note_on channel=0 note=74 velocity=100 time=0
the msg is note_off channel=0 note=72 velocity=0 time=8
the msg is note_on channel=0 note=72 velocity=100 time=0
the msg is note_off channel=0 note=74 velocity=0 time=17
the msg is note_on channel=0 note=74 velocity=100 time=0
the msg is note_off channel=0 note=76 velocity=0 time=34
the msg is note_on channel=0 note=76 velocity=100 time=0
the msg is note_off channel=0 note=72 velocity=0 time=4
the msg is note_on channel=0 note=72 velocity=100 time=0
the msg is note_off channel=0 note=74 velocity=0 time=12
the msg is note_on channel=0 note=74 velocity=100 time=0
the msg is note_off channel=0 note=74 velocity=0 time=34
the msg is note_on channel=0 note=74 velocity=100 time=0
the msg is note_off channel=0 note=74 velocity=0 time=17
the msg is note_on channel=0 note=74 velocity=100 time=0
the msg is note_off channel=0 note=74 velocity=0 time=17
the msg is note_on channel=0 note=74 velocity=100 time=0
the msg is note_off channel=0 note=71 velocity=0 time=17
the msg is note_on channel=0 note=71 velocity=100 time=0
the msg is note_off channel=0 note=74 velocity=0 time=17
the msg is note_on channel=0 note=74 velocity=100 time=0
the msg is note_off channel=0 note=74 velocity=0 time=34
the msg is note_on channel=0 note=74 velocity=100 time=0
the msg is note_off channel=0 note=72 velocity=0 time=4
the msg is note_on channel=0 note=72 velocity=100 time=0
the msg is note_off channel=0 note=74 velocity=0 time=29
the msg is note_on channel=0 note=74 velocity=100 time=0
the msg is note_off channel=0 note=74 velocity=0 time=21
the msg is note_on channel=0 note=74 velocity=100 time=0
the msg is note_off channel=0 note=74 velocity=0 time=12
the msg is note_on channel=0 note=74 velocity=100 time=0
the msg is note_off channel=0 note=71 velocity=0 time=17
the msg is note_on channel=0 note=71 velocity=100 time=0
the msg is note_off channel=0 note=74 velocity=0 time=8
the msg is note_on channel=0 note=74 velocity=100 time=0
the msg is note_off channel=0 note=76 velocity=0 time=25
the msg is note_on channel=0 note=76 velocity=100 time=0
the msg is note_off channel=0 note=79 velocity=0 time=25
the msg is note_on channel=0 note=79 velocity=100 time=0
the msg is note_off channel=0 note=72 velocity=0 time=12
the msg is note_on channel=0 note=72 velocity=100 time=0
the msg is note_off channel=0 note=72 velocity=0 time=12
the msg is note_on channel=0 note=72 velocity=100 time=0
the msg is note_off channel=0 note=72 velocity=0 time=12
the msg is note_on channel=0 note=72 velocity=100 time=0
the msg is note_off channel=0 note=72 velocity=0 time=25
the msg is note_on channel=0 note=72 velocity=100 time=0
the msg is note_off channel=0 note=72 velocity=0 time=12
the msg is note_on channel=0 note=72 velocity=100 time=0
the msg is note_off channel=0 note=72 velocity=0 time=12
the msg is note_on channel=0 note=72 velocity=100 time=0
the msg is <meta message end_of_track time=51>
the msg is <meta message track_name name='Acoustic Guitar' time=0>
the msg is program_change channel=0 program=24 time=0
the msg is note_off channel=0 note=69 velocity=0 time=0
the msg is pitchwheel channel=0 pitch=0 time=0
the msg is program_change channel=0 program=24 time=0
the msg is <meta message set_tempo tempo=500000 time=0>
the msg is <meta message time_signature numerator=4 denominator=4 clocks_per_click=24 notated_32nd_notes_per_beat=8 time=0>
the msg is note_on channel=0 note=69 velocity=100 time=0
the msg is note_off channel=0 note=72 velocity=0 time=166
the msg is note_on channel=0 note=72 velocity=100 time=0
the msg is note_off channel=0 note=72 velocity=0 time=12
the msg is note_on channel=0 note=72 velocity=100 time=0
the msg is note_off channel=0 note=72 velocity=0 time=12
the msg is note_on channel=0 note=72 velocity=100 time=0
the msg is note_off channel=0 note=72 velocity=0 time=25
the msg is note_on channel=0 note=72 velocity=100 time=0
the msg is note_off channel=0 note=74 velocity=0 time=25
the msg is note_on channel=0 note=74 velocity=100 time=0
the msg is note_off channel=0 note=74 velocity=0 time=12
the msg is note_on channel=0 note=74 velocity=100 time=0
the msg is note_off channel=0 note=71 velocity=0 time=12
the msg is note_on channel=0 note=71 velocity=100 time=0
the msg is note_off channel=0 note=74 velocity=0 time=25
the msg is note_on channel=0 note=74 velocity=100 time=0
the msg is note_off channel=0 note=74 velocity=0 time=12
the msg is note_on channel=0 note=74 velocity=100 time=0
the msg is note_off channel=0 note=71 velocity=0 time=12
the msg is note_on channel=0 note=71 velocity=100 time=0
the msg is note_off channel=0 note=71 velocity=0 time=12
the msg is note_on channel=0 note=71 velocity=100 time=0
the msg is note_off channel=0 note=69 velocity=0 time=12
the msg is note_on channel=0 note=69 velocity=100 time=0
the msg is note_off channel=0 note=72 velocity=0 time=115
the msg is note_on channel=0 note=72 velocity=100 time=0
the msg is note_off channel=0 note=72 velocity=0 time=34
the msg is note_on channel=0 note=72 velocity=100 time=0
the msg is note_off channel=0 note=72 velocity=0 time=4
the msg is note_on channel=0 note=72 velocity=100 time=0
the msg is note_off channel=0 note=72 velocity=0 time=12
the msg is note_on channel=0 note=72 velocity=100 time=0
the msg is note_off channel=0 note=72 velocity=0 time=17
the msg is note_on channel=0 note=72 velocity=100 time=0
the msg is note_off channel=0 note=76 velocity=0 time=17
the msg is note_on channel=0 note=76 velocity=100 time=0
the msg is note_off channel=0 note=79 velocity=0 time=17
the msg is note_on channel=0 note=79 velocity=100 time=0
the msg is note_off channel=0 note=76 velocity=0 time=34
the msg is note_on channel=0 note=76 velocity=100 time=0
the msg is note_off channel=0 note=79 velocity=0 time=17
the msg is note_on channel=0 note=79 velocity=100 time=0
the msg is note_off channel=0 note=79 velocity=0 time=17
the msg is note_on channel=0 note=79 velocity=100 time=0
the msg is note_off channel=0 note=76 velocity=0 time=17
the msg is note_on channel=0 note=76 velocity=100 time=0
the msg is note_off channel=0 note=74 velocity=0 time=4
the msg is note_on channel=0 note=74 velocity=100 time=0
the msg is note_off channel=0 note=72 velocity=0 time=12
the msg is note_on channel=0 note=72 velocity=100 time=0
the msg is note_off channel=0 note=74 velocity=0 time=34
the msg is note_on channel=0 note=74 velocity=100 time=0
the msg is note_off channel=0 note=74 velocity=0 time=17
the msg is note_on channel=0 note=74 velocity=100 time=0
the msg is note_off channel=0 note=74 velocity=0 time=34
the msg is note_on channel=0 note=74 velocity=100 time=0
the msg is note_off channel=0 note=76 velocity=0 time=17
the msg is note_on channel=0 note=76 velocity=100 time=0
the msg is note_off channel=0 note=79 velocity=0 time=34
the msg is note_on channel=0 note=79 velocity=100 time=0
the msg is note_off channel=0 note=79 velocity=0 time=17
the msg is note_off channel=0 note=76 velocity=0 time=0
the msg is note_on channel=0 note=79 velocity=100 time=0
the msg is note_on channel=0 note=76 velocity=100 time=0
the msg is note_off channel=0 note=74 velocity=0 time=25
the msg is note_on channel=0 note=74 velocity=100 time=0
the msg is note_off channel=0 note=72 velocity=0 time=8
the msg is note_on channel=0 note=72 velocity=100 time=0
the msg is note_off channel=0 note=74 velocity=0 time=17
the msg is note_on channel=0 note=74 velocity=100 time=0
the msg is note_off channel=0 note=76 velocity=0 time=34
the msg is note_on channel=0 note=76 velocity=100 time=0
the msg is note_off channel=0 note=72 velocity=0 time=4
the msg is note_on channel=0 note=72 velocity=100 time=0
the msg is note_off channel=0 note=74 velocity=0 time=12
the msg is note_on channel=0 note=74 velocity=100 time=0
the msg is note_off channel=0 note=74 velocity=0 time=34
the msg is note_on channel=0 note=74 velocity=100 time=0
the msg is note_off channel=0 note=74 velocity=0 time=17
the msg is note_on channel=0 note=74 velocity=100 time=0
the msg is note_off channel=0 note=74 velocity=0 time=17
the msg is note_on channel=0 note=74 velocity=100 time=0
the msg is note_off channel=0 note=71 velocity=0 time=17
the msg is note_on channel=0 note=71 velocity=100 time=0
the msg is note_off channel=0 note=74 velocity=0 time=17
the msg is note_on channel=0 note=74 velocity=100 time=0
the msg is note_off channel=0 note=74 velocity=0 time=34
the msg is note_on channel=0 note=74 velocity=100 time=0
the msg is note_off channel=0 note=72 velocity=0 time=4
the msg is note_on channel=0 note=72 velocity=100 time=0
the msg is note_off channel=0 note=74 velocity=0 time=29
the msg is note_on channel=0 note=74 velocity=100 time=0
the msg is note_off channel=0 note=74 velocity=0 time=21
the msg is note_on channel=0 note=74 velocity=100 time=0
the msg is note_off channel=0 note=74 velocity=0 time=12
the msg is note_on channel=0 note=74 velocity=100 time=0
the msg is note_off channel=0 note=71 velocity=0 time=17
the msg is note_on channel=0 note=71 velocity=100 time=0
the msg is note_off channel=0 note=74 velocity=0 time=8
the msg is note_on channel=0 note=74 velocity=100 time=0
the msg is note_off channel=0 note=76 velocity=0 time=25
the msg is note_on channel=0 note=76 velocity=100 time=0
the msg is note_off channel=0 note=79 velocity=0 time=25
the msg is note_on channel=0 note=79 velocity=100 time=0
the msg is note_off channel=0 note=72 velocity=0 time=12
the msg is note_on channel=0 note=72 velocity=100 time=0
the msg is note_off channel=0 note=72 velocity=0 time=12
the msg is note_on channel=0 note=72 velocity=100 time=0
the msg is note_off channel=0 note=72 velocity=0 time=12
the msg is note_on channel=0 note=72 velocity=100 time=0
the msg is note_off channel=0 note=72 velocity=0 time=25
the msg is note_on channel=0 note=72 velocity=100 time=0
the msg is note_off channel=0 note=72 velocity=0 time=12
the msg is note_on channel=0 note=72 velocity=100 time=0
the msg is note_off channel=0 note=72 velocity=0 time=12
the msg is note_on channel=0 note=72 velocity=100 time=0
the msg is <meta message end_of_track time=51>
the msg is <meta message track_name name='Acoustic Guitar' time=0>
the msg is program_change channel=0 program=24 time=0
the msg is note_off channel=0 note=69 velocity=0 time=0
the msg is pitchwheel channel=0 pitch=0 time=0
the msg is program_change channel=0 program=24 time=0
the msg is <meta message set_tempo tempo=500000 time=0>
the msg is <meta message time_signature numerator=4 denominator=4 clocks_per_click=24 notated_32nd_notes_per_beat=8 time=0>
the msg is note_on channel=0 note=69 velocity=100 time=0
the msg is note_off channel=0 note=72 velocity=0 time=166
the msg is note_on channel=0 note=72 velocity=100 time=0
the msg is note_off channel=0 note=72 velocity=0 time=12
the msg is note_on channel=0 note=72 velocity=100 time=0
the msg is note_off channel=0 note=72 velocity=0 time=12
the msg is note_on channel=0 note=72 velocity=100 time=0
the msg is note_off channel=0 note=72 velocity=0 time=25
the msg is note_on channel=0 note=72 velocity=100 time=0
the msg is note_off channel=0 note=74 velocity=0 time=25
the msg is note_on channel=0 note=74 velocity=100 time=0
the msg is note_off channel=0 note=74 velocity=0 time=12
the msg is note_on channel=0 note=74 velocity=100 time=0
the msg is note_off channel=0 note=71 velocity=0 time=12
the msg is note_on channel=0 note=71 velocity=100 time=0
the msg is note_off channel=0 note=74 velocity=0 time=25
the msg is note_on channel=0 note=74 velocity=100 time=0
the msg is note_off channel=0 note=74 velocity=0 time=12
the msg is note_on channel=0 note=74 velocity=100 time=0
the msg is note_off channel=0 note=71 velocity=0 time=12
the msg is note_on channel=0 note=71 velocity=100 time=0
the msg is note_off channel=0 note=71 velocity=0 time=12
the msg is note_on channel=0 note=71 velocity=100 time=0
the msg is note_off channel=0 note=69 velocity=0 time=12
the msg is note_on channel=0 note=69 velocity=100 time=0
the msg is note_off channel=0 note=72 velocity=0 time=115
the msg is note_on channel=0 note=72 velocity=100 time=0
the msg is note_off channel=0 note=72 velocity=0 time=34
the msg is note_on channel=0 note=72 velocity=100 time=0
the msg is note_off channel=0 note=72 velocity=0 time=4
the msg is note_on channel=0 note=72 velocity=100 time=0
the msg is note_off channel=0 note=72 velocity=0 time=12
the msg is note_on channel=0 note=72 velocity=100 time=0
the msg is note_off channel=0 note=72 velocity=0 time=17
the msg is note_on channel=0 note=72 velocity=100 time=0
the msg is note_off channel=0 note=76 velocity=0 time=17
the msg is note_on channel=0 note=76 velocity=100 time=0
the msg is note_off channel=0 note=79 velocity=0 time=17
the msg is note_on channel=0 note=79 velocity=100 time=0
the msg is note_off channel=0 note=76 velocity=0 time=34
the msg is note_on channel=0 note=76 velocity=100 time=0
the msg is note_off channel=0 note=79 velocity=0 time=17
the msg is note_on channel=0 note=79 velocity=100 time=0
the msg is note_off channel=0 note=79 velocity=0 time=17
the msg is note_on channel=0 note=79 velocity=100 time=0
the msg is note_off channel=0 note=76 velocity=0 time=17
the msg is note_on channel=0 note=76 velocity=100 time=0
the msg is note_off channel=0 note=74 velocity=0 time=4
the msg is note_on channel=0 note=74 velocity=100 time=0
the msg is note_off channel=0 note=72 velocity=0 time=12
the msg is note_on channel=0 note=72 velocity=100 time=0
the msg is note_off channel=0 note=74 velocity=0 time=34
the msg is note_on channel=0 note=74 velocity=100 time=0
the msg is note_off channel=0 note=74 velocity=0 time=17
the msg is note_on channel=0 note=74 velocity=100 time=0
the msg is note_off channel=0 note=74 velocity=0 time=34
the msg is note_on channel=0 note=74 velocity=100 time=0
the msg is note_off channel=0 note=76 velocity=0 time=17
the msg is note_on channel=0 note=76 velocity=100 time=0
the msg is note_off channel=0 note=79 velocity=0 time=34
the msg is note_on channel=0 note=79 velocity=100 time=0
the msg is note_off channel=0 note=79 velocity=0 time=17
the msg is note_off channel=0 note=76 velocity=0 time=0
the msg is note_on channel=0 note=79 velocity=100 time=0
the msg is note_on channel=0 note=76 velocity=100 time=0
the msg is note_off channel=0 note=74 velocity=0 time=25
the msg is note_on channel=0 note=74 velocity=100 time=0
the msg is note_off channel=0 note=72 velocity=0 time=8
the msg is note_on channel=0 note=72 velocity=100 time=0
the msg is note_off channel=0 note=74 velocity=0 time=17
the msg is note_on channel=0 note=74 velocity=100 time=0
the msg is note_off channel=0 note=76 velocity=0 time=34
the msg is note_on channel=0 note=76 velocity=100 time=0
the msg is note_off channel=0 note=72 velocity=0 time=4
the msg is note_on channel=0 note=72 velocity=100 time=0
the msg is note_off channel=0 note=74 velocity=0 time=12
the msg is note_on channel=0 note=74 velocity=100 time=0
the msg is note_off channel=0 note=74 velocity=0 time=34
the msg is note_on channel=0 note=74 velocity=100 time=0
the msg is note_off channel=0 note=74 velocity=0 time=17
the msg is note_on channel=0 note=74 velocity=100 time=0
the msg is note_off channel=0 note=74 velocity=0 time=17
the msg is note_on channel=0 note=74 velocity=100 time=0
the msg is note_off channel=0 note=71 velocity=0 time=17
the msg is note_on channel=0 note=71 velocity=100 time=0
the msg is note_off channel=0 note=74 velocity=0 time=17
the msg is note_on channel=0 note=74 velocity=100 time=0
the msg is note_off channel=0 note=74 velocity=0 time=34
the msg is note_on channel=0 note=74 velocity=100 time=0
the msg is note_off channel=0 note=72 velocity=0 time=4
the msg is note_on channel=0 note=72 velocity=100 time=0
the msg is note_off channel=0 note=74 velocity=0 time=29
the msg is note_on channel=0 note=74 velocity=100 time=0
the msg is note_off channel=0 note=74 velocity=0 time=21
the msg is note_on channel=0 note=74 velocity=100 time=0
the msg is note_off channel=0 note=74 velocity=0 time=12
the msg is note_on channel=0 note=74 velocity=100 time=0
the msg is note_off channel=0 note=71 velocity=0 time=17
the msg is note_on channel=0 note=71 velocity=100 time=0
the msg is note_off channel=0 note=74 velocity=0 time=8
the msg is note_on channel=0 note=74 velocity=100 time=0
the msg is note_off channel=0 note=76 velocity=0 time=25
the msg is note_on channel=0 note=76 velocity=100 time=0
the msg is note_off channel=0 note=79 velocity=0 time=25
the msg is note_on channel=0 note=79 velocity=100 time=0
the msg is note_off channel=0 note=72 velocity=0 time=12
the msg is note_on channel=0 note=72 velocity=100 time=0
the msg is note_off channel=0 note=72 velocity=0 time=12
the msg is note_on channel=0 note=72 velocity=100 time=0
the msg is note_off channel=0 note=72 velocity=0 time=12
the msg is note_on channel=0 note=72 velocity=100 time=0
the msg is note_off channel=0 note=72 velocity=0 time=25
the msg is note_on channel=0 note=72 velocity=100 time=0
the msg is note_off channel=0 note=72 velocity=0 time=12
the msg is note_on channel=0 note=72 velocity=100 time=0
the msg is note_off channel=0 note=72 velocity=0 time=12
the msg is note_on channel=0 note=72 velocity=100 time=0
the msg is <meta message end_of_track time=51>
the msg is <meta message track_name name='Acoustic Guitar' time=0>
the msg is program_change channel=0 program=24 time=0
the msg is note_off channel=0 note=69 velocity=0 time=0
the msg is pitchwheel channel=0 pitch=0 time=0
the msg is program_change channel=0 program=24 time=0
the msg is <meta message set_tempo tempo=500000 time=0>
the msg is <meta message time_signature numerator=4 denominator=4 clocks_per_click=24 notated_32nd_notes_per_beat=8 time=0>
the msg is note_on channel=0 note=69 velocity=100 time=0
the msg is note_off channel=0 note=72 velocity=0 time=166
the msg is note_on channel=0 note=72 velocity=100 time=0
the msg is note_off channel=0 note=72 velocity=0 time=12
the msg is note_on channel=0 note=72 velocity=100 time=0
the msg is note_off channel=0 note=72 velocity=0 time=12
the msg is note_on channel=0 note=72 velocity=100 time=0
the msg is note_off channel=0 note=72 velocity=0 time=25
the msg is note_on channel=0 note=72 velocity=100 time=0
the msg is note_off channel=0 note=74 velocity=0 time=25
the msg is note_on channel=0 note=74 velocity=100 time=0
the msg is note_off channel=0 note=74 velocity=0 time=12
the msg is note_on channel=0 note=74 velocity=100 time=0
the msg is note_off channel=0 note=71 velocity=0 time=12
the msg is note_on channel=0 note=71 velocity=100 time=0
the msg is note_off channel=0 note=74 velocity=0 time=25
the msg is note_on channel=0 note=74 velocity=100 time=0
the msg is note_off channel=0 note=74 velocity=0 time=12
the msg is note_on channel=0 note=74 velocity=100 time=0
the msg is note_off channel=0 note=71 velocity=0 time=12
the msg is note_on channel=0 note=71 velocity=100 time=0
the msg is note_off channel=0 note=71 velocity=0 time=12
the msg is note_on channel=0 note=71 velocity=100 time=0
the msg is note_off channel=0 note=69 velocity=0 time=12
the msg is note_on channel=0 note=69 velocity=100 time=0
the msg is note_off channel=0 note=72 velocity=0 time=115
the msg is note_on channel=0 note=72 velocity=100 time=0
the msg is note_off channel=0 note=72 velocity=0 time=34
the msg is note_on channel=0 note=72 velocity=100 time=0
the msg is note_off channel=0 note=72 velocity=0 time=4
the msg is note_on channel=0 note=72 velocity=100 time=0
the msg is note_off channel=0 note=72 velocity=0 time=12
the msg is note_on channel=0 note=72 velocity=100 time=0
the msg is note_off channel=0 note=72 velocity=0 time=17
the msg is note_on channel=0 note=72 velocity=100 time=0
the msg is note_off channel=0 note=76 velocity=0 time=17
the msg is note_on channel=0 note=76 velocity=100 time=0
the msg is note_off channel=0 note=79 velocity=0 time=17
the msg is note_on channel=0 note=79 velocity=100 time=0
the msg is note_off channel=0 note=76 velocity=0 time=34
the msg is note_on channel=0 note=76 velocity=100 time=0
the msg is note_off channel=0 note=79 velocity=0 time=17
the msg is note_on channel=0 note=79 velocity=100 time=0
the msg is note_off channel=0 note=79 velocity=0 time=17
the msg is note_on channel=0 note=79 velocity=100 time=0
the msg is note_off channel=0 note=76 velocity=0 time=17
the msg is note_on channel=0 note=76 velocity=100 time=0
the msg is note_off channel=0 note=74 velocity=0 time=4
the msg is note_on channel=0 note=74 velocity=100 time=0
the msg is note_off channel=0 note=72 velocity=0 time=12
the msg is note_on channel=0 note=72 velocity=100 time=0
the msg is note_off channel=0 note=74 velocity=0 time=34
the msg is note_on channel=0 note=74 velocity=100 time=0
the msg is note_off channel=0 note=74 velocity=0 time=17
the msg is note_on channel=0 note=74 velocity=100 time=0
the msg is note_off channel=0 note=74 velocity=0 time=34
the msg is note_on channel=0 note=74 velocity=100 time=0
the msg is note_off channel=0 note=76 velocity=0 time=17
the msg is note_on channel=0 note=76 velocity=100 time=0
the msg is note_off channel=0 note=79 velocity=0 time=34
the msg is note_on channel=0 note=79 velocity=100 time=0
the msg is note_off channel=0 note=79 velocity=0 time=17
the msg is note_off channel=0 note=76 velocity=0 time=0
the msg is note_on channel=0 note=79 velocity=100 time=0
the msg is note_on channel=0 note=76 velocity=100 time=0
the msg is note_off channel=0 note=74 velocity=0 time=25
the msg is note_on channel=0 note=74 velocity=100 time=0
the msg is note_off channel=0 note=72 velocity=0 time=8
the msg is note_on channel=0 note=72 velocity=100 time=0
the msg is note_off channel=0 note=74 velocity=0 time=17
the msg is note_on channel=0 note=74 velocity=100 time=0
the msg is note_off channel=0 note=76 velocity=0 time=34
the msg is note_on channel=0 note=76 velocity=100 time=0
the msg is note_off channel=0 note=72 velocity=0 time=4
the msg is note_on channel=0 note=72 velocity=100 time=0
the msg is note_off channel=0 note=74 velocity=0 time=12
the msg is note_on channel=0 note=74 velocity=100 time=0
the msg is note_off channel=0 note=74 velocity=0 time=34
the msg is note_on channel=0 note=74 velocity=100 time=0
the msg is note_off channel=0 note=74 velocity=0 time=17
the msg is note_on channel=0 note=74 velocity=100 time=0
the msg is note_off channel=0 note=74 velocity=0 time=17
the msg is note_on channel=0 note=74 velocity=100 time=0
the msg is note_off channel=0 note=71 velocity=0 time=17
the msg is note_on channel=0 note=71 velocity=100 time=0
the msg is note_off channel=0 note=74 velocity=0 time=17
the msg is note_on channel=0 note=74 velocity=100 time=0
the msg is note_off channel=0 note=74 velocity=0 time=34
the msg is note_on channel=0 note=74 velocity=100 time=0
the msg is note_off channel=0 note=72 velocity=0 time=4
the msg is note_on channel=0 note=72 velocity=100 time=0
the msg is note_off channel=0 note=74 velocity=0 time=29
the msg is note_on channel=0 note=74 velocity=100 time=0
the msg is note_off channel=0 note=74 velocity=0 time=21
the msg is note_on channel=0 note=74 velocity=100 time=0
the msg is note_off channel=0 note=74 velocity=0 time=12
the msg is note_on channel=0 note=74 velocity=100 time=0
the msg is note_off channel=0 note=71 velocity=0 time=17
the msg is note_on channel=0 note=71 velocity=100 time=0
the msg is note_off channel=0 note=74 velocity=0 time=8
the msg is note_on channel=0 note=74 velocity=100 time=0
the msg is note_off channel=0 note=76 velocity=0 time=25
the msg is note_on channel=0 note=76 velocity=100 time=0
the msg is note_off channel=0 note=79 velocity=0 time=25
the msg is note_on channel=0 note=79 velocity=100 time=0
the msg is note_off channel=0 note=72 velocity=0 time=12
the msg is note_on channel=0 note=72 velocity=100 time=0
the msg is note_off channel=0 note=72 velocity=0 time=12
the msg is note_on channel=0 note=72 velocity=100 time=0
the msg is note_off channel=0 note=72 velocity=0 time=12
the msg is note_on channel=0 note=72 velocity=100 time=0
the msg is note_off channel=0 note=72 velocity=0 time=25
the msg is note_on channel=0 note=72 velocity=100 time=0
the msg is note_off channel=0 note=72 velocity=0 time=12
the msg is note_on channel=0 note=72 velocity=100 time=0
the msg is note_off channel=0 note=72 velocity=0 time=12
the msg is note_on channel=0 note=72 velocity=100 time=0
the msg is <meta message end_of_track time=51>
the msg is <meta message track_name name='Acoustic Guitar' time=0>
the msg is program_change channel=0 program=24 time=0
the msg is note_off channel=0 note=69 velocity=0 time=0
the msg is pitchwheel channel=0 pitch=0 time=0
the msg is program_change channel=0 program=24 time=0
the msg is <meta message set_tempo tempo=500000 time=0>
the msg is <meta message time_signature numerator=4 denominator=4 clocks_per_click=24 notated_32nd_notes_per_beat=8 time=0>
the msg is note_on channel=0 note=69 velocity=100 time=0
the msg is note_off channel=0 note=72 velocity=0 time=166
the msg is note_on channel=0 note=72 velocity=100 time=0
the msg is note_off channel=0 note=72 velocity=0 time=12
the msg is note_on channel=0 note=72 velocity=100 time=0
the msg is note_off channel=0 note=72 velocity=0 time=12
the msg is note_on channel=0 note=72 velocity=100 time=0
the msg is note_off channel=0 note=72 velocity=0 time=25
the msg is note_on channel=0 note=72 velocity=100 time=0
the msg is note_off channel=0 note=74 velocity=0 time=25
the msg is note_on channel=0 note=74 velocity=100 time=0
the msg is note_off channel=0 note=74 velocity=0 time=12
the msg is note_on channel=0 note=74 velocity=100 time=0
the msg is note_off channel=0 note=71 velocity=0 time=12
the msg is note_on channel=0 note=71 velocity=100 time=0
the msg is note_off channel=0 note=74 velocity=0 time=25
the msg is note_on channel=0 note=74 velocity=100 time=0
the msg is note_off channel=0 note=74 velocity=0 time=12
the msg is note_on channel=0 note=74 velocity=100 time=0
the msg is note_off channel=0 note=71 velocity=0 time=12
the msg is note_on channel=0 note=71 velocity=100 time=0
the msg is note_off channel=0 note=71 velocity=0 time=12
the msg is note_on channel=0 note=71 velocity=100 time=0
the msg is note_off channel=0 note=69 velocity=0 time=12
the msg is note_on channel=0 note=69 velocity=100 time=0
the msg is note_off channel=0 note=72 velocity=0 time=115
the msg is note_on channel=0 note=72 velocity=100 time=0
the msg is note_off channel=0 note=72 velocity=0 time=34
the msg is note_on channel=0 note=72 velocity=100 time=0
the msg is note_off channel=0 note=72 velocity=0 time=4
the msg is note_on channel=0 note=72 velocity=100 time=0
the msg is note_off channel=0 note=72 velocity=0 time=12
the msg is note_on channel=0 note=72 velocity=100 time=0
the msg is note_off channel=0 note=72 velocity=0 time=17
the msg is note_on channel=0 note=72 velocity=100 time=0
the msg is note_off channel=0 note=76 velocity=0 time=17
the msg is note_on channel=0 note=76 velocity=100 time=0
the msg is note_off channel=0 note=79 velocity=0 time=17
the msg is note_on channel=0 note=79 velocity=100 time=0
the msg is note_off channel=0 note=76 velocity=0 time=34
the msg is note_on channel=0 note=76 velocity=100 time=0
the msg is note_off channel=0 note=79 velocity=0 time=17
the msg is note_on channel=0 note=79 velocity=100 time=0
the msg is note_off channel=0 note=79 velocity=0 time=17
the msg is note_on channel=0 note=79 velocity=100 time=0
the msg is note_off channel=0 note=76 velocity=0 time=17
the msg is note_on channel=0 note=76 velocity=100 time=0
the msg is note_off channel=0 note=74 velocity=0 time=4
the msg is note_on channel=0 note=74 velocity=100 time=0
the msg is note_off channel=0 note=72 velocity=0 time=12
the msg is note_on channel=0 note=72 velocity=100 time=0
the msg is note_off channel=0 note=74 velocity=0 time=34
the msg is note_on channel=0 note=74 velocity=100 time=0
the msg is note_off channel=0 note=74 velocity=0 time=17
the msg is note_on channel=0 note=74 velocity=100 time=0
the msg is note_off channel=0 note=74 velocity=0 time=34
the msg is note_on channel=0 note=74 velocity=100 time=0
the msg is note_off channel=0 note=76 velocity=0 time=17
the msg is note_on channel=0 note=76 velocity=100 time=0
the msg is note_off channel=0 note=79 velocity=0 time=34
the msg is note_on channel=0 note=79 velocity=100 time=0
the msg is note_off channel=0 note=79 velocity=0 time=17
the msg is note_off channel=0 note=76 velocity=0 time=0
the msg is note_on channel=0 note=79 velocity=100 time=0
the msg is note_on channel=0 note=76 velocity=100 time=0
the msg is note_off channel=0 note=74 velocity=0 time=25
the msg is note_on channel=0 note=74 velocity=100 time=0
the msg is note_off channel=0 note=72 velocity=0 time=8
the msg is note_on channel=0 note=72 velocity=100 time=0
the msg is note_off channel=0 note=74 velocity=0 time=17
the msg is note_on channel=0 note=74 velocity=100 time=0
the msg is note_off channel=0 note=76 velocity=0 time=34
the msg is note_on channel=0 note=76 velocity=100 time=0
the msg is note_off channel=0 note=72 velocity=0 time=4
the msg is note_on channel=0 note=72 velocity=100 time=0
the msg is note_off channel=0 note=74 velocity=0 time=12
the msg is note_on channel=0 note=74 velocity=100 time=0
the msg is note_off channel=0 note=74 velocity=0 time=34
the msg is note_on channel=0 note=74 velocity=100 time=0
the msg is note_off channel=0 note=74 velocity=0 time=17
the msg is note_on channel=0 note=74 velocity=100 time=0
the msg is note_off channel=0 note=74 velocity=0 time=17
the msg is note_on channel=0 note=74 velocity=100 time=0
the msg is note_off channel=0 note=71 velocity=0 time=17
the msg is note_on channel=0 note=71 velocity=100 time=0
the msg is note_off channel=0 note=74 velocity=0 time=17
the msg is note_on channel=0 note=74 velocity=100 time=0
the msg is note_off channel=0 note=74 velocity=0 time=34
the msg is note_on channel=0 note=74 velocity=100 time=0
the msg is note_off channel=0 note=72 velocity=0 time=4
the msg is note_on channel=0 note=72 velocity=100 time=0
the msg is note_off channel=0 note=74 velocity=0 time=29
the msg is note_on channel=0 note=74 velocity=100 time=0
the msg is note_off channel=0 note=74 velocity=0 time=21
the msg is note_on channel=0 note=74 velocity=100 time=0
the msg is note_off channel=0 note=74 velocity=0 time=12
the msg is note_on channel=0 note=74 velocity=100 time=0
the msg is note_off channel=0 note=71 velocity=0 time=17
the msg is note_on channel=0 note=71 velocity=100 time=0
the msg is note_off channel=0 note=74 velocity=0 time=8
the msg is note_on channel=0 note=74 velocity=100 time=0
the msg is note_off channel=0 note=76 velocity=0 time=25
the msg is note_on channel=0 note=76 velocity=100 time=0
the msg is note_off channel=0 note=79 velocity=0 time=25
the msg is note_on channel=0 note=79 velocity=100 time=0
the msg is note_off channel=0 note=72 velocity=0 time=12
the msg is note_on channel=0 note=72 velocity=100 time=0
the msg is note_off channel=0 note=72 velocity=0 time=12
the msg is note_on channel=0 note=72 velocity=100 time=0
the msg is note_off channel=0 note=72 velocity=0 time=12
the msg is note_on channel=0 note=72 velocity=100 time=0
the msg is note_off channel=0 note=72 velocity=0 time=25
the msg is note_on channel=0 note=72 velocity=100 time=0
the msg is note_off channel=0 note=72 velocity=0 time=12
the msg is note_on channel=0 note=72 velocity=100 time=0
the msg is note_off channel=0 note=72 velocity=0 time=12
the msg is note_on channel=0 note=72 velocity=100 time=0
the msg is <meta message end_of_track time=51>
the msg is <meta message track_name name='Acoustic Guitar' time=0>
the msg is program_change channel=0 program=24 time=0
the msg is note_off channel=0 note=69 velocity=0 time=0
the msg is pitchwheel channel=0 pitch=0 time=0
the msg is program_change channel=0 program=24 time=0
the msg is <meta message set_tempo tempo=500000 time=0>
the msg is <meta message time_signature numerator=4 denominator=4 clocks_per_click=24 notated_32nd_notes_per_beat=8 time=0>
the msg is note_on channel=0 note=69 velocity=100 time=0
the msg is note_off channel=0 note=72 velocity=0 time=166
the msg is note_on channel=0 note=72 velocity=100 time=0
the msg is note_off channel=0 note=72 velocity=0 time=12
the msg is note_on channel=0 note=72 velocity=100 time=0
the msg is note_off channel=0 note=72 velocity=0 time=12
the msg is note_on channel=0 note=72 velocity=100 time=0
the msg is note_off channel=0 note=72 velocity=0 time=25
the msg is note_on channel=0 note=72 velocity=100 time=0
the msg is note_off channel=0 note=74 velocity=0 time=25
the msg is note_on channel=0 note=74 velocity=100 time=0
the msg is note_off channel=0 note=74 velocity=0 time=12
the msg is note_on channel=0 note=74 velocity=100 time=0
the msg is note_off channel=0 note=71 velocity=0 time=12
the msg is note_on channel=0 note=71 velocity=100 time=0
the msg is note_off channel=0 note=74 velocity=0 time=25
the msg is note_on channel=0 note=74 velocity=100 time=0
the msg is note_off channel=0 note=74 velocity=0 time=12
the msg is note_on channel=0 note=74 velocity=100 time=0
the msg is note_off channel=0 note=71 velocity=0 time=12
the msg is note_on channel=0 note=71 velocity=100 time=0
the msg is note_off channel=0 note=71 velocity=0 time=12
the msg is note_on channel=0 note=71 velocity=100 time=0
the msg is note_off channel=0 note=69 velocity=0 time=12
the msg is note_on channel=0 note=69 velocity=100 time=0
the msg is note_off channel=0 note=72 velocity=0 time=115
the msg is note_on channel=0 note=72 velocity=100 time=0
the msg is note_off channel=0 note=72 velocity=0 time=34
the msg is note_on channel=0 note=72 velocity=100 time=0
the msg is note_off channel=0 note=72 velocity=0 time=4
the msg is note_on channel=0 note=72 velocity=100 time=0
the msg is note_off channel=0 note=72 velocity=0 time=12
the msg is note_on channel=0 note=72 velocity=100 time=0
the msg is note_off channel=0 note=72 velocity=0 time=17
the msg is note_on channel=0 note=72 velocity=100 time=0
the msg is note_off channel=0 note=76 velocity=0 time=17
the msg is note_on channel=0 note=76 velocity=100 time=0
the msg is note_off channel=0 note=79 velocity=0 time=17
the msg is note_on channel=0 note=79 velocity=100 time=0
the msg is note_off channel=0 note=76 velocity=0 time=34
the msg is note_on channel=0 note=76 velocity=100 time=0
the msg is note_off channel=0 note=79 velocity=0 time=17
the msg is note_on channel=0 note=79 velocity=100 time=0
the msg is note_off channel=0 note=79 velocity=0 time=17
the msg is note_on channel=0 note=79 velocity=100 time=0
the msg is note_off channel=0 note=76 velocity=0 time=17
the msg is note_on channel=0 note=76 velocity=100 time=0
the msg is note_off channel=0 note=74 velocity=0 time=4
the msg is note_on channel=0 note=74 velocity=100 time=0
the msg is note_off channel=0 note=72 velocity=0 time=12
the msg is note_on channel=0 note=72 velocity=100 time=0
the msg is note_off channel=0 note=74 velocity=0 time=34
the msg is note_on channel=0 note=74 velocity=100 time=0
the msg is note_off channel=0 note=74 velocity=0 time=17
the msg is note_on channel=0 note=74 velocity=100 time=0
the msg is note_off channel=0 note=74 velocity=0 time=34
the msg is note_on channel=0 note=74 velocity=100 time=0
the msg is note_off channel=0 note=76 velocity=0 time=17
the msg is note_on channel=0 note=76 velocity=100 time=0
the msg is note_off channel=0 note=79 velocity=0 time=34
the msg is note_on channel=0 note=79 velocity=100 time=0
the msg is note_off channel=0 note=79 velocity=0 time=17
the msg is note_off channel=0 note=76 velocity=0 time=0
the msg is note_on channel=0 note=79 velocity=100 time=0
the msg is note_on channel=0 note=76 velocity=100 time=0
the msg is note_off channel=0 note=74 velocity=0 time=25
the msg is note_on channel=0 note=74 velocity=100 time=0
the msg is note_off channel=0 note=72 velocity=0 time=8
the msg is note_on channel=0 note=72 velocity=100 time=0
the msg is note_off channel=0 note=74 velocity=0 time=17
the msg is note_on channel=0 note=74 velocity=100 time=0
the msg is note_off channel=0 note=76 velocity=0 time=34
the msg is note_on channel=0 note=76 velocity=100 time=0
the msg is note_off channel=0 note=72 velocity=0 time=4
the msg is note_on channel=0 note=72 velocity=100 time=0
the msg is note_off channel=0 note=74 velocity=0 time=12
the msg is note_on channel=0 note=74 velocity=100 time=0
the msg is note_off channel=0 note=74 velocity=0 time=34
the msg is note_on channel=0 note=74 velocity=100 time=0
the msg is note_off channel=0 note=74 velocity=0 time=17
the msg is note_on channel=0 note=74 velocity=100 time=0
the msg is note_off channel=0 note=74 velocity=0 time=17
the msg is note_on channel=0 note=74 velocity=100 time=0
the msg is note_off channel=0 note=71 velocity=0 time=17
the msg is note_on channel=0 note=71 velocity=100 time=0
the msg is note_off channel=0 note=74 velocity=0 time=17
the msg is note_on channel=0 note=74 velocity=100 time=0
the msg is note_off channel=0 note=74 velocity=0 time=34
the msg is note_on channel=0 note=74 velocity=100 time=0
the msg is note_off channel=0 note=72 velocity=0 time=4
the msg is note_on channel=0 note=72 velocity=100 time=0
the msg is note_off channel=0 note=74 velocity=0 time=29
the msg is note_on channel=0 note=74 velocity=100 time=0
the msg is note_off channel=0 note=74 velocity=0 time=21
the msg is note_on channel=0 note=74 velocity=100 time=0
the msg is note_off channel=0 note=74 velocity=0 time=12
the msg is note_on channel=0 note=74 velocity=100 time=0
the msg is note_off channel=0 note=71 velocity=0 time=17
the msg is note_on channel=0 note=71 velocity=100 time=0
the msg is note_off channel=0 note=74 velocity=0 time=8
the msg is note_on channel=0 note=74 velocity=100 time=0
the msg is note_off channel=0 note=76 velocity=0 time=25
the msg is note_on channel=0 note=76 velocity=100 time=0
the msg is note_off channel=0 note=79 velocity=0 time=25
the msg is note_on channel=0 note=79 velocity=100 time=0
the msg is note_off channel=0 note=72 velocity=0 time=12
the msg is note_on channel=0 note=72 velocity=100 time=0
the msg is note_off channel=0 note=72 velocity=0 time=12
the msg is note_on channel=0 note=72 velocity=100 time=0
the msg is note_off channel=0 note=72 velocity=0 time=12
the msg is note_on channel=0 note=72 velocity=100 time=0
the msg is note_off channel=0 note=72 velocity=0 time=25
the msg is note_on channel=0 note=72 velocity=100 time=0
the msg is note_off channel=0 note=72 velocity=0 time=12
the msg is note_on channel=0 note=72 velocity=100 time=0
the msg is note_off channel=0 note=72 velocity=0 time=12
the msg is note_on channel=0 note=72 velocity=100 time=0
the msg is <meta message end_of_track time=51>
the msg is <meta message track_name name='Acoustic Guitar' time=0>
the msg is program_change channel=0 program=24 time=0
the msg is note_off channel=0 note=69 velocity=0 time=0
the msg is pitchwheel channel=0 pitch=0 time=0
the msg is program_change channel=0 program=24 time=0
the msg is <meta message set_tempo tempo=500000 time=0>
the msg is <meta message time_signature numerator=4 denominator=4 clocks_per_click=24 notated_32nd_notes_per_beat=8 time=0>
the msg is note_on channel=0 note=69 velocity=100 time=0
the msg is note_off channel=0 note=72 velocity=0 time=166
the msg is note_on channel=0 note=72 velocity=100 time=0
the msg is note_off channel=0 note=72 velocity=0 time=12
the msg is note_on channel=0 note=72 velocity=100 time=0
the msg is note_off channel=0 note=72 velocity=0 time=12
the msg is note_on channel=0 note=72 velocity=100 time=0
the msg is note_off channel=0 note=72 velocity=0 time=25
the msg is note_on channel=0 note=72 velocity=100 time=0
the msg is note_off channel=0 note=74 velocity=0 time=25
the msg is note_on channel=0 note=74 velocity=100 time=0
the msg is note_off channel=0 note=74 velocity=0 time=12
the msg is note_on channel=0 note=74 velocity=100 time=0
the msg is note_off channel=0 note=71 velocity=0 time=12
the msg is note_on channel=0 note=71 velocity=100 time=0
the msg is note_off channel=0 note=74 velocity=0 time=25
the msg is note_on channel=0 note=74 velocity=100 time=0
the msg is note_off channel=0 note=74 velocity=0 time=12
the msg is note_on channel=0 note=74 velocity=100 time=0
the msg is note_off channel=0 note=71 velocity=0 time=12
the msg is note_on channel=0 note=71 velocity=100 time=0
the msg is note_off channel=0 note=71 velocity=0 time=12
the msg is note_on channel=0 note=71 velocity=100 time=0
the msg is note_off channel=0 note=69 velocity=0 time=12
the msg is note_on channel=0 note=69 velocity=100 time=0
the msg is note_off channel=0 note=72 velocity=0 time=115
the msg is note_on channel=0 note=72 velocity=100 time=0
the msg is note_off channel=0 note=72 velocity=0 time=34
the msg is note_on channel=0 note=72 velocity=100 time=0
the msg is note_off channel=0 note=72 velocity=0 time=4
the msg is note_on channel=0 note=72 velocity=100 time=0
the msg is note_off channel=0 note=72 velocity=0 time=12
the msg is note_on channel=0 note=72 velocity=100 time=0
the msg is note_off channel=0 note=72 velocity=0 time=17
the msg is note_on channel=0 note=72 velocity=100 time=0
the msg is note_off channel=0 note=76 velocity=0 time=17
the msg is note_on channel=0 note=76 velocity=100 time=0
the msg is note_off channel=0 note=79 velocity=0 time=17
the msg is note_on channel=0 note=79 velocity=100 time=0
the msg is note_off channel=0 note=76 velocity=0 time=34
the msg is note_on channel=0 note=76 velocity=100 time=0
the msg is note_off channel=0 note=79 velocity=0 time=17
the msg is note_on channel=0 note=79 velocity=100 time=0
the msg is note_off channel=0 note=79 velocity=0 time=17
the msg is note_on channel=0 note=79 velocity=100 time=0
the msg is note_off channel=0 note=76 velocity=0 time=17
the msg is note_on channel=0 note=76 velocity=100 time=0
the msg is note_off channel=0 note=74 velocity=0 time=4
the msg is note_on channel=0 note=74 velocity=100 time=0
the msg is note_off channel=0 note=72 velocity=0 time=12
the msg is note_on channel=0 note=72 velocity=100 time=0
the msg is note_off channel=0 note=74 velocity=0 time=34
the msg is note_on channel=0 note=74 velocity=100 time=0
the msg is note_off channel=0 note=74 velocity=0 time=17
the msg is note_on channel=0 note=74 velocity=100 time=0
the msg is note_off channel=0 note=74 velocity=0 time=34
the msg is note_on channel=0 note=74 velocity=100 time=0
the msg is note_off channel=0 note=76 velocity=0 time=17
the msg is note_on channel=0 note=76 velocity=100 time=0
the msg is note_off channel=0 note=79 velocity=0 time=34
the msg is note_on channel=0 note=79 velocity=100 time=0
the msg is note_off channel=0 note=79 velocity=0 time=17
the msg is note_off channel=0 note=76 velocity=0 time=0
the msg is note_on channel=0 note=79 velocity=100 time=0
the msg is note_on channel=0 note=76 velocity=100 time=0
the msg is note_off channel=0 note=74 velocity=0 time=25
the msg is note_on channel=0 note=74 velocity=100 time=0
the msg is note_off channel=0 note=72 velocity=0 time=8
the msg is note_on channel=0 note=72 velocity=100 time=0
the msg is note_off channel=0 note=74 velocity=0 time=17
the msg is note_on channel=0 note=74 velocity=100 time=0
the msg is note_off channel=0 note=76 velocity=0 time=34
the msg is note_on channel=0 note=76 velocity=100 time=0
the msg is note_off channel=0 note=72 velocity=0 time=4
the msg is note_on channel=0 note=72 velocity=100 time=0
the msg is note_off channel=0 note=74 velocity=0 time=12
the msg is note_on channel=0 note=74 velocity=100 time=0
the msg is note_off channel=0 note=74 velocity=0 time=34
the msg is note_on channel=0 note=74 velocity=100 time=0
the msg is note_off channel=0 note=74 velocity=0 time=17
the msg is note_on channel=0 note=74 velocity=100 time=0
the msg is note_off channel=0 note=74 velocity=0 time=17
the msg is note_on channel=0 note=74 velocity=100 time=0
the msg is note_off channel=0 note=71 velocity=0 time=17
the msg is note_on channel=0 note=71 velocity=100 time=0
the msg is note_off channel=0 note=74 velocity=0 time=17
the msg is note_on channel=0 note=74 velocity=100 time=0
the msg is note_off channel=0 note=74 velocity=0 time=34
the msg is note_on channel=0 note=74 velocity=100 time=0
the msg is note_off channel=0 note=72 velocity=0 time=4
the msg is note_on channel=0 note=72 velocity=100 time=0
the msg is note_off channel=0 note=74 velocity=0 time=29
the msg is note_on channel=0 note=74 velocity=100 time=0
the msg is note_off channel=0 note=74 velocity=0 time=21
the msg is note_on channel=0 note=74 velocity=100 time=0
the msg is note_off channel=0 note=74 velocity=0 time=12
the msg is note_on channel=0 note=74 velocity=100 time=0
the msg is note_off channel=0 note=71 velocity=0 time=17
the msg is note_on channel=0 note=71 velocity=100 time=0
the msg is note_off channel=0 note=74 velocity=0 time=8
the msg is note_on channel=0 note=74 velocity=100 time=0
the msg is note_off channel=0 note=76 velocity=0 time=25
the msg is note_on channel=0 note=76 velocity=100 time=0
the msg is note_off channel=0 note=79 velocity=0 time=25
the msg is note_on channel=0 note=79 velocity=100 time=0
the msg is note_off channel=0 note=72 velocity=0 time=12
the msg is note_on channel=0 note=72 velocity=100 time=0
the msg is note_off channel=0 note=72 velocity=0 time=12
the msg is note_on channel=0 note=72 velocity=100 time=0
the msg is note_off channel=0 note=72 velocity=0 time=12
the msg is note_on channel=0 note=72 velocity=100 time=0
the msg is note_off channel=0 note=72 velocity=0 time=25
the msg is note_on channel=0 note=72 velocity=100 time=0
the msg is note_off channel=0 note=72 velocity=0 time=12
the msg is note_on channel=0 note=72 velocity=100 time=0
the msg is note_off channel=0 note=72 velocity=0 time=12
the msg is note_on channel=0 note=72 velocity=100 time=0
the msg is <meta message end_of_track time=51>
the msg is <meta message track_name name='Acoustic Guitar' time=0>
the msg is program_change channel=0 program=24 time=0
the msg is note_off channel=0 note=69 velocity=0 time=0
the msg is pitchwheel channel=0 pitch=0 time=0
the msg is program_change channel=0 program=24 time=0
the msg is <meta message set_tempo tempo=500000 time=0>
the msg is <meta message time_signature numerator=4 denominator=4 clocks_per_click=24 notated_32nd_notes_per_beat=8 time=0>
the msg is note_on channel=0 note=69 velocity=100 time=0
the msg is note_off channel=0 note=72 velocity=0 time=166
the msg is note_on channel=0 note=72 velocity=100 time=0
the msg is note_off channel=0 note=72 velocity=0 time=12
the msg is note_on channel=0 note=72 velocity=100 time=0
the msg is note_off channel=0 note=72 velocity=0 time=12
the msg is note_on channel=0 note=72 velocity=100 time=0
the msg is note_off channel=0 note=72 velocity=0 time=25
the msg is note_on channel=0 note=72 velocity=100 time=0
the msg is note_off channel=0 note=74 velocity=0 time=25
the msg is note_on channel=0 note=74 velocity=100 time=0
the msg is note_off channel=0 note=74 velocity=0 time=12
the msg is note_on channel=0 note=74 velocity=100 time=0
the msg is note_off channel=0 note=71 velocity=0 time=12
the msg is note_on channel=0 note=71 velocity=100 time=0
the msg is note_off channel=0 note=74 velocity=0 time=25
the msg is note_on channel=0 note=74 velocity=100 time=0
the msg is note_off channel=0 note=74 velocity=0 time=12
the msg is note_on channel=0 note=74 velocity=100 time=0
the msg is note_off channel=0 note=71 velocity=0 time=12
the msg is note_on channel=0 note=71 velocity=100 time=0
the msg is note_off channel=0 note=71 velocity=0 time=12
the msg is note_on channel=0 note=71 velocity=100 time=0
the msg is note_off channel=0 note=69 velocity=0 time=12
the msg is note_on channel=0 note=69 velocity=100 time=0
the msg is note_off channel=0 note=72 velocity=0 time=115
the msg is note_on channel=0 note=72 velocity=100 time=0
the msg is note_off channel=0 note=72 velocity=0 time=34
the msg is note_on channel=0 note=72 velocity=100 time=0
the msg is note_off channel=0 note=72 velocity=0 time=4
the msg is note_on channel=0 note=72 velocity=100 time=0
the msg is note_off channel=0 note=72 velocity=0 time=12
the msg is note_on channel=0 note=72 velocity=100 time=0
the msg is note_off channel=0 note=72 velocity=0 time=17
the msg is note_on channel=0 note=72 velocity=100 time=0
the msg is note_off channel=0 note=76 velocity=0 time=17
the msg is note_on channel=0 note=76 velocity=100 time=0
the msg is note_off channel=0 note=79 velocity=0 time=17
the msg is note_on channel=0 note=79 velocity=100 time=0
the msg is note_off channel=0 note=76 velocity=0 time=34
the msg is note_on channel=0 note=76 velocity=100 time=0
the msg is note_off channel=0 note=79 velocity=0 time=17
the msg is note_on channel=0 note=79 velocity=100 time=0
the msg is note_off channel=0 note=79 velocity=0 time=17
the msg is note_on channel=0 note=79 velocity=100 time=0
the msg is note_off channel=0 note=76 velocity=0 time=17
the msg is note_on channel=0 note=76 velocity=100 time=0
the msg is note_off channel=0 note=74 velocity=0 time=4
the msg is note_on channel=0 note=74 velocity=100 time=0
the msg is note_off channel=0 note=72 velocity=0 time=12
the msg is note_on channel=0 note=72 velocity=100 time=0
the msg is note_off channel=0 note=74 velocity=0 time=34
the msg is note_on channel=0 note=74 velocity=100 time=0
the msg is note_off channel=0 note=74 velocity=0 time=17
the msg is note_on channel=0 note=74 velocity=100 time=0
the msg is note_off channel=0 note=74 velocity=0 time=34
the msg is note_on channel=0 note=74 velocity=100 time=0
the msg is note_off channel=0 note=76 velocity=0 time=17
the msg is note_on channel=0 note=76 velocity=100 time=0
the msg is note_off channel=0 note=79 velocity=0 time=34
the msg is note_on channel=0 note=79 velocity=100 time=0
the msg is note_off channel=0 note=79 velocity=0 time=17
the msg is note_off channel=0 note=76 velocity=0 time=0
the msg is note_on channel=0 note=79 velocity=100 time=0
the msg is note_on channel=0 note=76 velocity=100 time=0
the msg is note_off channel=0 note=74 velocity=0 time=25
the msg is note_on channel=0 note=74 velocity=100 time=0
the msg is note_off channel=0 note=72 velocity=0 time=8
the msg is note_on channel=0 note=72 velocity=100 time=0
the msg is note_off channel=0 note=74 velocity=0 time=17
the msg is note_on channel=0 note=74 velocity=100 time=0
the msg is note_off channel=0 note=76 velocity=0 time=34
the msg is note_on channel=0 note=76 velocity=100 time=0
the msg is note_off channel=0 note=72 velocity=0 time=4
the msg is note_on channel=0 note=72 velocity=100 time=0
the msg is note_off channel=0 note=74 velocity=0 time=12
the msg is note_on channel=0 note=74 velocity=100 time=0
the msg is note_off channel=0 note=74 velocity=0 time=34
the msg is note_on channel=0 note=74 velocity=100 time=0
the msg is note_off channel=0 note=74 velocity=0 time=17
the msg is note_on channel=0 note=74 velocity=100 time=0
the msg is note_off channel=0 note=74 velocity=0 time=17
the msg is note_on channel=0 note=74 velocity=100 time=0
the msg is note_off channel=0 note=71 velocity=0 time=17
the msg is note_on channel=0 note=71 velocity=100 time=0
the msg is note_off channel=0 note=74 velocity=0 time=17
the msg is note_on channel=0 note=74 velocity=100 time=0
the msg is note_off channel=0 note=74 velocity=0 time=34
the msg is note_on channel=0 note=74 velocity=100 time=0
the msg is note_off channel=0 note=72 velocity=0 time=4
the msg is note_on channel=0 note=72 velocity=100 time=0
the msg is note_off channel=0 note=74 velocity=0 time=29
the msg is note_on channel=0 note=74 velocity=100 time=0
the msg is note_off channel=0 note=74 velocity=0 time=21
the msg is note_on channel=0 note=74 velocity=100 time=0
the msg is note_off channel=0 note=74 velocity=0 time=12
the msg is note_on channel=0 note=74 velocity=100 time=0
the msg is note_off channel=0 note=71 velocity=0 time=17
the msg is note_on channel=0 note=71 velocity=100 time=0
the msg is note_off channel=0 note=74 velocity=0 time=8
the msg is note_on channel=0 note=74 velocity=100 time=0
the msg is note_off channel=0 note=76 velocity=0 time=25
the msg is note_on channel=0 note=76 velocity=100 time=0
the msg is note_off channel=0 note=79 velocity=0 time=25
the msg is note_on channel=0 note=79 velocity=100 time=0
the msg is note_off channel=0 note=72 velocity=0 time=12
the msg is note_on channel=0 note=72 velocity=100 time=0
the msg is note_off channel=0 note=72 velocity=0 time=12
the msg is note_on channel=0 note=72 velocity=100 time=0
the msg is note_off channel=0 note=72 velocity=0 time=12
the msg is note_on channel=0 note=72 velocity=100 time=0
the msg is note_off channel=0 note=72 velocity=0 time=25
the msg is note_on channel=0 note=72 velocity=100 time=0
the msg is note_off channel=0 note=72 velocity=0 time=12
the msg is note_on channel=0 note=72 velocity=100 time=0
the msg is note_off channel=0 note=72 velocity=0 time=12
the msg is note_on channel=0 note=72 velocity=100 time=0
the msg is <meta message end_of_track time=51>
the msg is <meta message track_name name='Acoustic Guitar' time=0>
the msg is program_change channel=0 program=24 time=0
the msg is note_off channel=0 note=69 velocity=0 time=0
the msg is pitchwheel channel=0 pitch=0 time=0
the msg is program_change channel=0 program=24 time=0
the msg is <meta message set_tempo tempo=500000 time=0>
the msg is <meta message time_signature numerator=4 denominator=4 clocks_per_click=24 notated_32nd_notes_per_beat=8 time=0>
the msg is note_on channel=0 note=69 velocity=100 time=0
the msg is note_off channel=0 note=72 velocity=0 time=166
the msg is note_on channel=0 note=72 velocity=100 time=0
the msg is note_off channel=0 note=72 velocity=0 time=12
the msg is note_on channel=0 note=72 velocity=100 time=0
the msg is note_off channel=0 note=72 velocity=0 time=12
the msg is note_on channel=0 note=72 velocity=100 time=0
the msg is note_off channel=0 note=72 velocity=0 time=25
the msg is note_on channel=0 note=72 velocity=100 time=0
the msg is note_off channel=0 note=74 velocity=0 time=25
the msg is note_on channel=0 note=74 velocity=100 time=0
the msg is note_off channel=0 note=74 velocity=0 time=12
the msg is note_on channel=0 note=74 velocity=100 time=0
the msg is note_off channel=0 note=71 velocity=0 time=12
the msg is note_on channel=0 note=71 velocity=100 time=0
the msg is note_off channel=0 note=74 velocity=0 time=25
the msg is note_on channel=0 note=74 velocity=100 time=0
the msg is note_off channel=0 note=74 velocity=0 time=12
the msg is note_on channel=0 note=74 velocity=100 time=0
the msg is note_off channel=0 note=71 velocity=0 time=12
the msg is note_on channel=0 note=71 velocity=100 time=0
the msg is note_off channel=0 note=71 velocity=0 time=12
the msg is note_on channel=0 note=71 velocity=100 time=0
the msg is note_off channel=0 note=69 velocity=0 time=12
the msg is note_on channel=0 note=69 velocity=100 time=0
the msg is note_off channel=0 note=72 velocity=0 time=115
the msg is note_on channel=0 note=72 velocity=100 time=0
the msg is note_off channel=0 note=72 velocity=0 time=34
the msg is note_on channel=0 note=72 velocity=100 time=0
the msg is note_off channel=0 note=72 velocity=0 time=4
the msg is note_on channel=0 note=72 velocity=100 time=0
the msg is note_off channel=0 note=72 velocity=0 time=12
the msg is note_on channel=0 note=72 velocity=100 time=0
the msg is note_off channel=0 note=72 velocity=0 time=17
the msg is note_on channel=0 note=72 velocity=100 time=0
the msg is note_off channel=0 note=76 velocity=0 time=17
the msg is note_on channel=0 note=76 velocity=100 time=0
the msg is note_off channel=0 note=79 velocity=0 time=17
the msg is note_on channel=0 note=79 velocity=100 time=0
the msg is note_off channel=0 note=76 velocity=0 time=34
the msg is note_on channel=0 note=76 velocity=100 time=0
the msg is note_off channel=0 note=79 velocity=0 time=17
the msg is note_on channel=0 note=79 velocity=100 time=0
the msg is note_off channel=0 note=79 velocity=0 time=17
the msg is note_on channel=0 note=79 velocity=100 time=0
the msg is note_off channel=0 note=76 velocity=0 time=17
the msg is note_on channel=0 note=76 velocity=100 time=0
the msg is note_off channel=0 note=74 velocity=0 time=4
the msg is note_on channel=0 note=74 velocity=100 time=0
the msg is note_off channel=0 note=72 velocity=0 time=12
the msg is note_on channel=0 note=72 velocity=100 time=0
the msg is note_off channel=0 note=74 velocity=0 time=34
the msg is note_on channel=0 note=74 velocity=100 time=0
the msg is note_off channel=0 note=74 velocity=0 time=17
the msg is note_on channel=0 note=74 velocity=100 time=0
the msg is note_off channel=0 note=74 velocity=0 time=34
the msg is note_on channel=0 note=74 velocity=100 time=0
the msg is note_off channel=0 note=76 velocity=0 time=17
the msg is note_on channel=0 note=76 velocity=100 time=0
the msg is note_off channel=0 note=79 velocity=0 time=34
the msg is note_on channel=0 note=79 velocity=100 time=0
the msg is note_off channel=0 note=79 velocity=0 time=17
the msg is note_off channel=0 note=76 velocity=0 time=0
the msg is note_on channel=0 note=79 velocity=100 time=0
the msg is note_on channel=0 note=76 velocity=100 time=0
the msg is note_off channel=0 note=74 velocity=0 time=25
the msg is note_on channel=0 note=74 velocity=100 time=0
the msg is note_off channel=0 note=72 velocity=0 time=8
the msg is note_on channel=0 note=72 velocity=100 time=0
the msg is note_off channel=0 note=74 velocity=0 time=17
the msg is note_on channel=0 note=74 velocity=100 time=0
the msg is note_off channel=0 note=76 velocity=0 time=34
the msg is note_on channel=0 note=76 velocity=100 time=0
the msg is note_off channel=0 note=72 velocity=0 time=4
the msg is note_on channel=0 note=72 velocity=100 time=0
the msg is note_off channel=0 note=74 velocity=0 time=12
the msg is note_on channel=0 note=74 velocity=100 time=0
the msg is note_off channel=0 note=74 velocity=0 time=34
the msg is note_on channel=0 note=74 velocity=100 time=0
the msg is note_off channel=0 note=74 velocity=0 time=17
the msg is note_on channel=0 note=74 velocity=100 time=0
the msg is note_off channel=0 note=74 velocity=0 time=17
the msg is note_on channel=0 note=74 velocity=100 time=0
the msg is note_off channel=0 note=71 velocity=0 time=17
the msg is note_on channel=0 note=71 velocity=100 time=0
the msg is note_off channel=0 note=74 velocity=0 time=17
the msg is note_on channel=0 note=74 velocity=100 time=0
the msg is note_off channel=0 note=74 velocity=0 time=34
the msg is note_on channel=0 note=74 velocity=100 time=0
the msg is note_off channel=0 note=72 velocity=0 time=4
the msg is note_on channel=0 note=72 velocity=100 time=0
the msg is note_off channel=0 note=74 velocity=0 time=29
the msg is note_on channel=0 note=74 velocity=100 time=0
the msg is note_off channel=0 note=74 velocity=0 time=21
the msg is note_on channel=0 note=74 velocity=100 time=0
the msg is note_off channel=0 note=74 velocity=0 time=12
the msg is note_on channel=0 note=74 velocity=100 time=0
the msg is note_off channel=0 note=71 velocity=0 time=17
the msg is note_on channel=0 note=71 velocity=100 time=0
the msg is note_off channel=0 note=74 velocity=0 time=8
the msg is note_on channel=0 note=74 velocity=100 time=0
the msg is note_off channel=0 note=76 velocity=0 time=25
the msg is note_on channel=0 note=76 velocity=100 time=0
the msg is note_off channel=0 note=79 velocity=0 time=25
the msg is note_on channel=0 note=79 velocity=100 time=0
the msg is note_off channel=0 note=72 velocity=0 time=12
the msg is note_on channel=0 note=72 velocity=100 time=0
the msg is note_off channel=0 note=72 velocity=0 time=12
the msg is note_on channel=0 note=72 velocity=100 time=0
the msg is note_off channel=0 note=72 velocity=0 time=12
the msg is note_on channel=0 note=72 velocity=100 time=0
the msg is note_off channel=0 note=72 velocity=0 time=25
the msg is note_on channel=0 note=72 velocity=100 time=0
the msg is note_off channel=0 note=72 velocity=0 time=12
the msg is note_on channel=0 note=72 velocity=100 time=0
the msg is note_off channel=0 note=72 velocity=0 time=12
the msg is note_on channel=0 note=72 velocity=100 time=0
the msg is <meta message end_of_track time=51>
the msg is <meta message track_name name='Acoustic Guitar' time=0>
the msg is program_change channel=0 program=24 time=0
the msg is note_off channel=0 note=69 velocity=0 time=0
the msg is pitchwheel channel=0 pitch=0 time=0
the msg is program_change channel=0 program=24 time=0
the msg is <meta message set_tempo tempo=500000 time=0>
the msg is <meta message time_signature numerator=4 denominator=4 clocks_per_click=24 notated_32nd_notes_per_beat=8 time=0>
the msg is note_on channel=0 note=69 velocity=100 time=0
the msg is note_off channel=0 note=72 velocity=0 time=166
the msg is note_on channel=0 note=72 velocity=100 time=0
the msg is note_off channel=0 note=72 velocity=0 time=12
the msg is note_on channel=0 note=72 velocity=100 time=0
the msg is note_off channel=0 note=72 velocity=0 time=12
the msg is note_on channel=0 note=72 velocity=100 time=0
the msg is note_off channel=0 note=72 velocity=0 time=25
the msg is note_on channel=0 note=72 velocity=100 time=0
the msg is note_off channel=0 note=74 velocity=0 time=25
the msg is note_on channel=0 note=74 velocity=100 time=0
the msg is note_off channel=0 note=74 velocity=0 time=12
the msg is note_on channel=0 note=74 velocity=100 time=0
the msg is note_off channel=0 note=71 velocity=0 time=12
the msg is note_on channel=0 note=71 velocity=100 time=0
the msg is note_off channel=0 note=74 velocity=0 time=25
the msg is note_on channel=0 note=74 velocity=100 time=0
the msg is note_off channel=0 note=74 velocity=0 time=12
the msg is note_on channel=0 note=74 velocity=100 time=0
the msg is note_off channel=0 note=71 velocity=0 time=12
the msg is note_on channel=0 note=71 velocity=100 time=0
the msg is note_off channel=0 note=71 velocity=0 time=12
the msg is note_on channel=0 note=71 velocity=100 time=0
the msg is note_off channel=0 note=69 velocity=0 time=12
the msg is note_on channel=0 note=69 velocity=100 time=0
the msg is note_off channel=0 note=72 velocity=0 time=115
the msg is note_on channel=0 note=72 velocity=100 time=0
the msg is note_off channel=0 note=72 velocity=0 time=34
the msg is note_on channel=0 note=72 velocity=100 time=0
the msg is note_off channel=0 note=72 velocity=0 time=4
the msg is note_on channel=0 note=72 velocity=100 time=0
the msg is note_off channel=0 note=72 velocity=0 time=12
the msg is note_on channel=0 note=72 velocity=100 time=0
the msg is note_off channel=0 note=72 velocity=0 time=17
the msg is note_on channel=0 note=72 velocity=100 time=0
the msg is note_off channel=0 note=76 velocity=0 time=17
the msg is note_on channel=0 note=76 velocity=100 time=0
the msg is note_off channel=0 note=79 velocity=0 time=17
the msg is note_on channel=0 note=79 velocity=100 time=0
the msg is note_off channel=0 note=76 velocity=0 time=34
the msg is note_on channel=0 note=76 velocity=100 time=0
the msg is note_off channel=0 note=79 velocity=0 time=17
the msg is note_on channel=0 note=79 velocity=100 time=0
the msg is note_off channel=0 note=79 velocity=0 time=17
the msg is note_on channel=0 note=79 velocity=100 time=0
the msg is note_off channel=0 note=76 velocity=0 time=17
the msg is note_on channel=0 note=76 velocity=100 time=0
the msg is note_off channel=0 note=74 velocity=0 time=4
the msg is note_on channel=0 note=74 velocity=100 time=0
the msg is note_off channel=0 note=72 velocity=0 time=12
the msg is note_on channel=0 note=72 velocity=100 time=0
the msg is note_off channel=0 note=74 velocity=0 time=34
the msg is note_on channel=0 note=74 velocity=100 time=0
the msg is note_off channel=0 note=74 velocity=0 time=17
the msg is note_on channel=0 note=74 velocity=100 time=0
the msg is note_off channel=0 note=74 velocity=0 time=34
the msg is note_on channel=0 note=74 velocity=100 time=0
the msg is note_off channel=0 note=76 velocity=0 time=17
the msg is note_on channel=0 note=76 velocity=100 time=0
the msg is note_off channel=0 note=79 velocity=0 time=34
the msg is note_on channel=0 note=79 velocity=100 time=0
the msg is note_off channel=0 note=79 velocity=0 time=17
the msg is note_off channel=0 note=76 velocity=0 time=0
the msg is note_on channel=0 note=79 velocity=100 time=0
the msg is note_on channel=0 note=76 velocity=100 time=0
the msg is note_off channel=0 note=74 velocity=0 time=25
the msg is note_on channel=0 note=74 velocity=100 time=0
the msg is note_off channel=0 note=72 velocity=0 time=8
the msg is note_on channel=0 note=72 velocity=100 time=0
the msg is note_off channel=0 note=74 velocity=0 time=17
the msg is note_on channel=0 note=74 velocity=100 time=0
the msg is note_off channel=0 note=76 velocity=0 time=34
the msg is note_on channel=0 note=76 velocity=100 time=0
the msg is note_off channel=0 note=72 velocity=0 time=4
the msg is note_on channel=0 note=72 velocity=100 time=0
the msg is note_off channel=0 note=74 velocity=0 time=12
the msg is note_on channel=0 note=74 velocity=100 time=0
the msg is note_off channel=0 note=74 velocity=0 time=34
the msg is note_on channel=0 note=74 velocity=100 time=0
the msg is note_off channel=0 note=74 velocity=0 time=17
the msg is note_on channel=0 note=74 velocity=100 time=0
the msg is note_off channel=0 note=74 velocity=0 time=17
the msg is note_on channel=0 note=74 velocity=100 time=0
the msg is note_off channel=0 note=71 velocity=0 time=17
the msg is note_on channel=0 note=71 velocity=100 time=0
the msg is note_off channel=0 note=74 velocity=0 time=17
the msg is note_on channel=0 note=74 velocity=100 time=0
the msg is note_off channel=0 note=74 velocity=0 time=34
the msg is note_on channel=0 note=74 velocity=100 time=0
the msg is note_off channel=0 note=72 velocity=0 time=4
the msg is note_on channel=0 note=72 velocity=100 time=0
the msg is note_off channel=0 note=74 velocity=0 time=29
the msg is note_on channel=0 note=74 velocity=100 time=0
the msg is note_off channel=0 note=74 velocity=0 time=21
the msg is note_on channel=0 note=74 velocity=100 time=0
the msg is note_off channel=0 note=74 velocity=0 time=12
the msg is note_on channel=0 note=74 velocity=100 time=0
the msg is note_off channel=0 note=71 velocity=0 time=17
the msg is note_on channel=0 note=71 velocity=100 time=0
the msg is note_off channel=0 note=74 velocity=0 time=8
the msg is note_on channel=0 note=74 velocity=100 time=0
the msg is note_off channel=0 note=76 velocity=0 time=25
the msg is note_on channel=0 note=76 velocity=100 time=0
the msg is note_off channel=0 note=79 velocity=0 time=25
the msg is note_on channel=0 note=79 velocity=100 time=0
the msg is note_off channel=0 note=72 velocity=0 time=12
the msg is note_on channel=0 note=72 velocity=100 time=0
the msg is note_off channel=0 note=72 velocity=0 time=12
the msg is note_on channel=0 note=72 velocity=100 time=0
the msg is note_off channel=0 note=72 velocity=0 time=12
the msg is note_on channel=0 note=72 velocity=100 time=0
the msg is note_off channel=0 note=72 velocity=0 time=25
the msg is note_on channel=0 note=72 velocity=100 time=0
the msg is note_off channel=0 note=72 velocity=0 time=12
the msg is note_on channel=0 note=72 velocity=100 time=0
the msg is note_off channel=0 note=72 velocity=0 time=12
the msg is note_on channel=0 note=72 velocity=100 time=0
the msg is <meta message end_of_track time=51>
the msg is <meta message track_name name='Acoustic Guitar' time=0>
the msg is program_change channel=0 program=24 time=0
the msg is note_off channel=0 note=69 velocity=0 time=0
the msg is pitchwheel channel=0 pitch=0 time=0
the msg is program_change channel=0 program=24 time=0
the msg is <meta message set_tempo tempo=500000 time=0>
the msg is <meta message time_signature numerator=4 denominator=4 clocks_per_click=24 notated_32nd_notes_per_beat=8 time=0>
the msg is note_on channel=0 note=69 velocity=100 time=0
the msg is note_off channel=0 note=72 velocity=0 time=166
the msg is note_on channel=0 note=72 velocity=100 time=0
the msg is note_off channel=0 note=72 velocity=0 time=12
the msg is note_on channel=0 note=72 velocity=100 time=0
the msg is note_off channel=0 note=72 velocity=0 time=12
the msg is note_on channel=0 note=72 velocity=100 time=0
the msg is note_off channel=0 note=72 velocity=0 time=25
the msg is note_on channel=0 note=72 velocity=100 time=0
the msg is note_off channel=0 note=74 velocity=0 time=25
the msg is note_on channel=0 note=74 velocity=100 time=0
the msg is note_off channel=0 note=74 velocity=0 time=12
the msg is note_on channel=0 note=74 velocity=100 time=0
the msg is note_off channel=0 note=71 velocity=0 time=12
the msg is note_on channel=0 note=71 velocity=100 time=0
the msg is note_off channel=0 note=74 velocity=0 time=25
the msg is note_on channel=0 note=74 velocity=100 time=0
the msg is note_off channel=0 note=74 velocity=0 time=12
the msg is note_on channel=0 note=74 velocity=100 time=0
the msg is note_off channel=0 note=71 velocity=0 time=12
the msg is note_on channel=0 note=71 velocity=100 time=0
the msg is note_off channel=0 note=71 velocity=0 time=12
the msg is note_on channel=0 note=71 velocity=100 time=0
the msg is note_off channel=0 note=69 velocity=0 time=12
the msg is note_on channel=0 note=69 velocity=100 time=0
the msg is note_off channel=0 note=72 velocity=0 time=115
the msg is note_on channel=0 note=72 velocity=100 time=0
the msg is note_off channel=0 note=72 velocity=0 time=34
the msg is note_on channel=0 note=72 velocity=100 time=0
the msg is note_off channel=0 note=72 velocity=0 time=4
the msg is note_on channel=0 note=72 velocity=100 time=0
the msg is note_off channel=0 note=72 velocity=0 time=12
the msg is note_on channel=0 note=72 velocity=100 time=0
the msg is note_off channel=0 note=72 velocity=0 time=17
the msg is note_on channel=0 note=72 velocity=100 time=0
the msg is note_off channel=0 note=76 velocity=0 time=17
the msg is note_on channel=0 note=76 velocity=100 time=0
the msg is note_off channel=0 note=79 velocity=0 time=17
the msg is note_on channel=0 note=79 velocity=100 time=0
the msg is note_off channel=0 note=76 velocity=0 time=34
the msg is note_on channel=0 note=76 velocity=100 time=0
the msg is note_off channel=0 note=79 velocity=0 time=17
the msg is note_on channel=0 note=79 velocity=100 time=0
the msg is note_off channel=0 note=79 velocity=0 time=17
the msg is note_on channel=0 note=79 velocity=100 time=0
the msg is note_off channel=0 note=76 velocity=0 time=17
the msg is note_on channel=0 note=76 velocity=100 time=0
the msg is note_off channel=0 note=74 velocity=0 time=4
the msg is note_on channel=0 note=74 velocity=100 time=0
the msg is note_off channel=0 note=72 velocity=0 time=12
the msg is note_on channel=0 note=72 velocity=100 time=0
the msg is note_off channel=0 note=74 velocity=0 time=34
the msg is note_on channel=0 note=74 velocity=100 time=0
the msg is note_off channel=0 note=74 velocity=0 time=17
the msg is note_on channel=0 note=74 velocity=100 time=0
the msg is note_off channel=0 note=74 velocity=0 time=34
the msg is note_on channel=0 note=74 velocity=100 time=0
the msg is note_off channel=0 note=76 velocity=0 time=17
the msg is note_on channel=0 note=76 velocity=100 time=0
the msg is note_off channel=0 note=79 velocity=0 time=34
the msg is note_on channel=0 note=79 velocity=100 time=0
the msg is note_off channel=0 note=79 velocity=0 time=17
the msg is note_off channel=0 note=76 velocity=0 time=0
the msg is note_on channel=0 note=79 velocity=100 time=0
the msg is note_on channel=0 note=76 velocity=100 time=0
the msg is note_off channel=0 note=74 velocity=0 time=25
the msg is note_on channel=0 note=74 velocity=100 time=0
the msg is note_off channel=0 note=72 velocity=0 time=8
the msg is note_on channel=0 note=72 velocity=100 time=0
the msg is note_off channel=0 note=74 velocity=0 time=17
the msg is note_on channel=0 note=74 velocity=100 time=0
the msg is note_off channel=0 note=76 velocity=0 time=34
the msg is note_on channel=0 note=76 velocity=100 time=0
the msg is note_off channel=0 note=72 velocity=0 time=4
the msg is note_on channel=0 note=72 velocity=100 time=0
the msg is note_off channel=0 note=74 velocity=0 time=12
the msg is note_on channel=0 note=74 velocity=100 time=0
the msg is note_off channel=0 note=74 velocity=0 time=34
the msg is note_on channel=0 note=74 velocity=100 time=0
the msg is note_off channel=0 note=74 velocity=0 time=17
the msg is note_on channel=0 note=74 velocity=100 time=0
the msg is note_off channel=0 note=74 velocity=0 time=17
the msg is note_on channel=0 note=74 velocity=100 time=0
the msg is note_off channel=0 note=71 velocity=0 time=17
the msg is note_on channel=0 note=71 velocity=100 time=0
the msg is note_off channel=0 note=74 velocity=0 time=17
the msg is note_on channel=0 note=74 velocity=100 time=0
the msg is note_off channel=0 note=74 velocity=0 time=34
the msg is note_on channel=0 note=74 velocity=100 time=0
the msg is note_off channel=0 note=72 velocity=0 time=4
the msg is note_on channel=0 note=72 velocity=100 time=0
the msg is note_off channel=0 note=74 velocity=0 time=29
the msg is note_on channel=0 note=74 velocity=100 time=0
the msg is note_off channel=0 note=74 velocity=0 time=21
the msg is note_on channel=0 note=74 velocity=100 time=0
the msg is note_off channel=0 note=74 velocity=0 time=12
the msg is note_on channel=0 note=74 velocity=100 time=0
the msg is note_off channel=0 note=71 velocity=0 time=17
the msg is note_on channel=0 note=71 velocity=100 time=0
the msg is note_off channel=0 note=74 velocity=0 time=8
the msg is note_on channel=0 note=74 velocity=100 time=0
the msg is note_off channel=0 note=76 velocity=0 time=25
the msg is note_on channel=0 note=76 velocity=100 time=0
the msg is note_off channel=0 note=79 velocity=0 time=25
the msg is note_on channel=0 note=79 velocity=100 time=0
the msg is note_off channel=0 note=72 velocity=0 time=12
the msg is note_on channel=0 note=72 velocity=100 time=0
the msg is note_off channel=0 note=72 velocity=0 time=12
the msg is note_on channel=0 note=72 velocity=100 time=0
the msg is note_off channel=0 note=72 velocity=0 time=12
the msg is note_on channel=0 note=72 velocity=100 time=0
the msg is note_off channel=0 note=72 velocity=0 time=25
the msg is note_on channel=0 note=72 velocity=100 time=0
the msg is note_off channel=0 note=72 velocity=0 time=12
the msg is note_on channel=0 note=72 velocity=100 time=0
the msg is note_off channel=0 note=72 velocity=0 time=12
the msg is note_on channel=0 note=72 velocity=100 time=0
the msg is <meta message end_of_track time=51>
the msg is <meta message track_name name='Acoustic Guitar' time=0>
the msg is program_change channel=0 program=24 time=0
the msg is note_off channel=0 note=69 velocity=0 time=0
the msg is pitchwheel channel=0 pitch=0 time=0
the msg is program_change channel=0 program=24 time=0
the msg is <meta message set_tempo tempo=500000 time=0>
the msg is <meta message time_signature numerator=4 denominator=4 clocks_per_click=24 notated_32nd_notes_per_beat=8 time=0>
the msg is note_on channel=0 note=69 velocity=100 time=0
the msg is note_off channel=0 note=72 velocity=0 time=166
the msg is note_on channel=0 note=72 velocity=100 time=0
the msg is note_off channel=0 note=72 velocity=0 time=12
the msg is note_on channel=0 note=72 velocity=100 time=0
the msg is note_off channel=0 note=72 velocity=0 time=12
the msg is note_on channel=0 note=72 velocity=100 time=0
the msg is note_off channel=0 note=72 velocity=0 time=25
the msg is note_on channel=0 note=72 velocity=100 time=0
the msg is note_off channel=0 note=74 velocity=0 time=25
the msg is note_on channel=0 note=74 velocity=100 time=0
the msg is note_off channel=0 note=74 velocity=0 time=12
the msg is note_on channel=0 note=74 velocity=100 time=0
the msg is note_off channel=0 note=71 velocity=0 time=12
the msg is note_on channel=0 note=71 velocity=100 time=0
the msg is note_off channel=0 note=74 velocity=0 time=25
the msg is note_on channel=0 note=74 velocity=100 time=0
the msg is note_off channel=0 note=74 velocity=0 time=12
the msg is note_on channel=0 note=74 velocity=100 time=0
the msg is note_off channel=0 note=71 velocity=0 time=12
the msg is note_on channel=0 note=71 velocity=100 time=0
the msg is note_off channel=0 note=71 velocity=0 time=12
the msg is note_on channel=0 note=71 velocity=100 time=0
the msg is note_off channel=0 note=69 velocity=0 time=12
the msg is note_on channel=0 note=69 velocity=100 time=0
the msg is note_off channel=0 note=72 velocity=0 time=115
the msg is note_on channel=0 note=72 velocity=100 time=0
the msg is note_off channel=0 note=72 velocity=0 time=34
the msg is note_on channel=0 note=72 velocity=100 time=0
the msg is note_off channel=0 note=72 velocity=0 time=4
the msg is note_on channel=0 note=72 velocity=100 time=0
the msg is note_off channel=0 note=72 velocity=0 time=12
the msg is note_on channel=0 note=72 velocity=100 time=0
the msg is note_off channel=0 note=72 velocity=0 time=17
the msg is note_on channel=0 note=72 velocity=100 time=0
the msg is note_off channel=0 note=76 velocity=0 time=17
the msg is note_on channel=0 note=76 velocity=100 time=0
the msg is note_off channel=0 note=79 velocity=0 time=17
the msg is note_on channel=0 note=79 velocity=100 time=0
the msg is note_off channel=0 note=76 velocity=0 time=34
the msg is note_on channel=0 note=76 velocity=100 time=0
the msg is note_off channel=0 note=79 velocity=0 time=17
the msg is note_on channel=0 note=79 velocity=100 time=0
the msg is note_off channel=0 note=79 velocity=0 time=17
the msg is note_on channel=0 note=79 velocity=100 time=0
the msg is note_off channel=0 note=76 velocity=0 time=17
the msg is note_on channel=0 note=76 velocity=100 time=0
the msg is note_off channel=0 note=74 velocity=0 time=4
the msg is note_on channel=0 note=74 velocity=100 time=0
the msg is note_off channel=0 note=72 velocity=0 time=12
the msg is note_on channel=0 note=72 velocity=100 time=0
the msg is note_off channel=0 note=74 velocity=0 time=34
the msg is note_on channel=0 note=74 velocity=100 time=0
the msg is note_off channel=0 note=74 velocity=0 time=17
the msg is note_on channel=0 note=74 velocity=100 time=0
the msg is note_off channel=0 note=74 velocity=0 time=34
the msg is note_on channel=0 note=74 velocity=100 time=0
the msg is note_off channel=0 note=76 velocity=0 time=17
the msg is note_on channel=0 note=76 velocity=100 time=0
the msg is note_off channel=0 note=79 velocity=0 time=34
the msg is note_on channel=0 note=79 velocity=100 time=0
the msg is note_off channel=0 note=79 velocity=0 time=17
the msg is note_off channel=0 note=76 velocity=0 time=0
the msg is note_on channel=0 note=79 velocity=100 time=0
the msg is note_on channel=0 note=76 velocity=100 time=0
the msg is note_off channel=0 note=74 velocity=0 time=25
the msg is note_on channel=0 note=74 velocity=100 time=0
the msg is note_off channel=0 note=72 velocity=0 time=8
the msg is note_on channel=0 note=72 velocity=100 time=0
the msg is note_off channel=0 note=74 velocity=0 time=17
the msg is note_on channel=0 note=74 velocity=100 time=0
the msg is note_off channel=0 note=76 velocity=0 time=34
the msg is note_on channel=0 note=76 velocity=100 time=0
the msg is note_off channel=0 note=72 velocity=0 time=4
the msg is note_on channel=0 note=72 velocity=100 time=0
the msg is note_off channel=0 note=74 velocity=0 time=12
the msg is note_on channel=0 note=74 velocity=100 time=0
the msg is note_off channel=0 note=74 velocity=0 time=34
the msg is note_on channel=0 note=74 velocity=100 time=0
the msg is note_off channel=0 note=74 velocity=0 time=17
the msg is note_on channel=0 note=74 velocity=100 time=0
the msg is note_off channel=0 note=74 velocity=0 time=17
the msg is note_on channel=0 note=74 velocity=100 time=0
the msg is note_off channel=0 note=71 velocity=0 time=17
the msg is note_on channel=0 note=71 velocity=100 time=0
the msg is note_off channel=0 note=74 velocity=0 time=17
the msg is note_on channel=0 note=74 velocity=100 time=0
the msg is note_off channel=0 note=74 velocity=0 time=34
the msg is note_on channel=0 note=74 velocity=100 time=0
the msg is note_off channel=0 note=72 velocity=0 time=4
the msg is note_on channel=0 note=72 velocity=100 time=0
the msg is note_off channel=0 note=74 velocity=0 time=29
the msg is note_on channel=0 note=74 velocity=100 time=0
the msg is note_off channel=0 note=74 velocity=0 time=21
the msg is note_on channel=0 note=74 velocity=100 time=0
the msg is note_off channel=0 note=74 velocity=0 time=12
the msg is note_on channel=0 note=74 velocity=100 time=0
the msg is note_off channel=0 note=71 velocity=0 time=17
the msg is note_on channel=0 note=71 velocity=100 time=0
the msg is note_off channel=0 note=74 velocity=0 time=8
the msg is note_on channel=0 note=74 velocity=100 time=0
the msg is note_off channel=0 note=76 velocity=0 time=25
the msg is note_on channel=0 note=76 velocity=100 time=0
the msg is note_off channel=0 note=79 velocity=0 time=25
the msg is note_on channel=0 note=79 velocity=100 time=0
the msg is note_off channel=0 note=72 velocity=0 time=12
the msg is note_on channel=0 note=72 velocity=100 time=0
the msg is note_off channel=0 note=72 velocity=0 time=12
the msg is note_on channel=0 note=72 velocity=100 time=0
the msg is note_off channel=0 note=72 velocity=0 time=12
the msg is note_on channel=0 note=72 velocity=100 time=0
the msg is note_off channel=0 note=72 velocity=0 time=25
the msg is note_on channel=0 note=72 velocity=100 time=0
the msg is note_off channel=0 note=72 velocity=0 time=12
the msg is note_on channel=0 note=72 velocity=100 time=0
the msg is note_off channel=0 note=72 velocity=0 time=12
the msg is note_on channel=0 note=72 velocity=100 time=0
the msg is <meta message end_of_track time=51>
the msg is <meta message track_name name='Acoustic Guitar' time=0>
the msg is program_change channel=0 program=24 time=0
the msg is note_off channel=0 note=69 velocity=0 time=0
the msg is pitchwheel channel=0 pitch=0 time=0
the msg is program_change channel=0 program=24 time=0
the msg is <meta message set_tempo tempo=500000 time=0>
the msg is <meta message time_signature numerator=4 denominator=4 clocks_per_click=24 notated_32nd_notes_per_beat=8 time=0>
the msg is note_on channel=0 note=69 velocity=100 time=0
the msg is note_off channel=0 note=72 velocity=0 time=166
the msg is note_on channel=0 note=72 velocity=100 time=0
the msg is note_off channel=0 note=72 velocity=0 time=12
the msg is note_on channel=0 note=72 velocity=100 time=0
the msg is note_off channel=0 note=72 velocity=0 time=12
the msg is note_on channel=0 note=72 velocity=100 time=0
the msg is note_off channel=0 note=72 velocity=0 time=25
the msg is note_on channel=0 note=72 velocity=100 time=0
the msg is note_off channel=0 note=74 velocity=0 time=25
the msg is note_on channel=0 note=74 velocity=100 time=0
the msg is note_off channel=0 note=74 velocity=0 time=12
the msg is note_on channel=0 note=74 velocity=100 time=0
the msg is note_off channel=0 note=71 velocity=0 time=12
the msg is note_on channel=0 note=71 velocity=100 time=0
the msg is note_off channel=0 note=74 velocity=0 time=25
the msg is note_on channel=0 note=74 velocity=100 time=0
the msg is note_off channel=0 note=74 velocity=0 time=12
the msg is note_on channel=0 note=74 velocity=100 time=0
the msg is note_off channel=0 note=71 velocity=0 time=12
the msg is note_on channel=0 note=71 velocity=100 time=0
the msg is note_off channel=0 note=71 velocity=0 time=12
the msg is note_on channel=0 note=71 velocity=100 time=0
the msg is note_off channel=0 note=69 velocity=0 time=12
the msg is note_on channel=0 note=69 velocity=100 time=0
the msg is note_off channel=0 note=72 velocity=0 time=115
the msg is note_on channel=0 note=72 velocity=100 time=0
the msg is note_off channel=0 note=72 velocity=0 time=34
the msg is note_on channel=0 note=72 velocity=100 time=0
the msg is note_off channel=0 note=72 velocity=0 time=4
the msg is note_on channel=0 note=72 velocity=100 time=0
the msg is note_off channel=0 note=72 velocity=0 time=12
the msg is note_on channel=0 note=72 velocity=100 time=0
the msg is note_off channel=0 note=72 velocity=0 time=17
the msg is note_on channel=0 note=72 velocity=100 time=0
the msg is note_off channel=0 note=76 velocity=0 time=17
the msg is note_on channel=0 note=76 velocity=100 time=0
the msg is note_off channel=0 note=79 velocity=0 time=17
the msg is note_on channel=0 note=79 velocity=100 time=0
the msg is note_off channel=0 note=76 velocity=0 time=34
the msg is note_on channel=0 note=76 velocity=100 time=0
the msg is note_off channel=0 note=79 velocity=0 time=17
the msg is note_on channel=0 note=79 velocity=100 time=0
the msg is note_off channel=0 note=79 velocity=0 time=17
the msg is note_on channel=0 note=79 velocity=100 time=0
the msg is note_off channel=0 note=76 velocity=0 time=17
the msg is note_on channel=0 note=76 velocity=100 time=0
the msg is note_off channel=0 note=74 velocity=0 time=4
the msg is note_on channel=0 note=74 velocity=100 time=0
the msg is note_off channel=0 note=72 velocity=0 time=12
the msg is note_on channel=0 note=72 velocity=100 time=0
the msg is note_off channel=0 note=74 velocity=0 time=34
the msg is note_on channel=0 note=74 velocity=100 time=0
the msg is note_off channel=0 note=74 velocity=0 time=17
the msg is note_on channel=0 note=74 velocity=100 time=0
the msg is note_off channel=0 note=74 velocity=0 time=34
the msg is note_on channel=0 note=74 velocity=100 time=0
the msg is note_off channel=0 note=76 velocity=0 time=17
the msg is note_on channel=0 note=76 velocity=100 time=0
the msg is note_off channel=0 note=79 velocity=0 time=34
the msg is note_on channel=0 note=79 velocity=100 time=0
the msg is note_off channel=0 note=79 velocity=0 time=17
the msg is note_off channel=0 note=76 velocity=0 time=0
the msg is note_on channel=0 note=79 velocity=100 time=0
the msg is note_on channel=0 note=76 velocity=100 time=0
the msg is note_off channel=0 note=74 velocity=0 time=25
the msg is note_on channel=0 note=74 velocity=100 time=0
the msg is note_off channel=0 note=72 velocity=0 time=8
the msg is note_on channel=0 note=72 velocity=100 time=0
the msg is note_off channel=0 note=74 velocity=0 time=17
the msg is note_on channel=0 note=74 velocity=100 time=0
the msg is note_off channel=0 note=76 velocity=0 time=34
the msg is note_on channel=0 note=76 velocity=100 time=0
the msg is note_off channel=0 note=72 velocity=0 time=4
the msg is note_on channel=0 note=72 velocity=100 time=0
the msg is note_off channel=0 note=74 velocity=0 time=12
the msg is note_on channel=0 note=74 velocity=100 time=0
the msg is note_off channel=0 note=74 velocity=0 time=34
the msg is note_on channel=0 note=74 velocity=100 time=0
the msg is note_off channel=0 note=74 velocity=0 time=17
the msg is note_on channel=0 note=74 velocity=100 time=0
the msg is note_off channel=0 note=74 velocity=0 time=17
the msg is note_on channel=0 note=74 velocity=100 time=0
the msg is note_off channel=0 note=71 velocity=0 time=17
the msg is note_on channel=0 note=71 velocity=100 time=0
the msg is note_off channel=0 note=74 velocity=0 time=17
the msg is note_on channel=0 note=74 velocity=100 time=0
the msg is note_off channel=0 note=74 velocity=0 time=34
the msg is note_on channel=0 note=74 velocity=100 time=0
the msg is note_off channel=0 note=72 velocity=0 time=4
the msg is note_on channel=0 note=72 velocity=100 time=0
the msg is note_off channel=0 note=74 velocity=0 time=29
the msg is note_on channel=0 note=74 velocity=100 time=0
the msg is note_off channel=0 note=74 velocity=0 time=21
the msg is note_on channel=0 note=74 velocity=100 time=0
the msg is note_off channel=0 note=74 velocity=0 time=12
the msg is note_on channel=0 note=74 velocity=100 time=0
the msg is note_off channel=0 note=71 velocity=0 time=17
the msg is note_on channel=0 note=71 velocity=100 time=0
the msg is note_off channel=0 note=74 velocity=0 time=8
the msg is note_on channel=0 note=74 velocity=100 time=0
the msg is note_off channel=0 note=76 velocity=0 time=25
the msg is note_on channel=0 note=76 velocity=100 time=0
the msg is note_off channel=0 note=79 velocity=0 time=25
the msg is note_on channel=0 note=79 velocity=100 time=0
the msg is note_off channel=0 note=72 velocity=0 time=12
the msg is note_on channel=0 note=72 velocity=100 time=0
the msg is note_off channel=0 note=72 velocity=0 time=12
the msg is note_on channel=0 note=72 velocity=100 time=0
the msg is note_off channel=0 note=72 velocity=0 time=12
the msg is note_on channel=0 note=72 velocity=100 time=0
the msg is note_off channel=0 note=72 velocity=0 time=25
the msg is note_on channel=0 note=72 velocity=100 time=0
the msg is note_off channel=0 note=72 velocity=0 time=12
the msg is note_on channel=0 note=72 velocity=100 time=0
the msg is note_off channel=0 note=72 velocity=0 time=12
the msg is note_on channel=0 note=72 velocity=100 time=0
the msg is <meta message end_of_track time=51>
the msg is <meta message track_name name='Acoustic Guitar' time=0>
the msg is program_change channel=0 program=24 time=0
the msg is note_off channel=0 note=69 velocity=0 time=0
the msg is pitchwheel channel=0 pitch=0 time=0
the msg is program_change channel=0 program=24 time=0
the msg is <meta message set_tempo tempo=500000 time=0>
the msg is <meta message time_signature numerator=4 denominator=4 clocks_per_click=24 notated_32nd_notes_per_beat=8 time=0>
the msg is note_on channel=0 note=69 velocity=100 time=0
the msg is note_off channel=0 note=72 velocity=0 time=166
the msg is note_on channel=0 note=72 velocity=100 time=0
the msg is note_off channel=0 note=72 velocity=0 time=12
the msg is note_on channel=0 note=72 velocity=100 time=0
the msg is note_off channel=0 note=72 velocity=0 time=12
the msg is note_on channel=0 note=72 velocity=100 time=0
the msg is note_off channel=0 note=72 velocity=0 time=25
the msg is note_on channel=0 note=72 velocity=100 time=0
the msg is note_off channel=0 note=74 velocity=0 time=25
the msg is note_on channel=0 note=74 velocity=100 time=0
the msg is note_off channel=0 note=74 velocity=0 time=12
the msg is note_on channel=0 note=74 velocity=100 time=0
the msg is note_off channel=0 note=71 velocity=0 time=12
the msg is note_on channel=0 note=71 velocity=100 time=0
the msg is note_off channel=0 note=74 velocity=0 time=25
the msg is note_on channel=0 note=74 velocity=100 time=0
the msg is note_off channel=0 note=74 velocity=0 time=12
the msg is note_on channel=0 note=74 velocity=100 time=0
the msg is note_off channel=0 note=71 velocity=0 time=12
the msg is note_on channel=0 note=71 velocity=100 time=0
the msg is note_off channel=0 note=71 velocity=0 time=12
the msg is note_on channel=0 note=71 velocity=100 time=0
the msg is note_off channel=0 note=69 velocity=0 time=12
the msg is note_on channel=0 note=69 velocity=100 time=0
the msg is note_off channel=0 note=72 velocity=0 time=115
the msg is note_on channel=0 note=72 velocity=100 time=0
the msg is note_off channel=0 note=72 velocity=0 time=34
the msg is note_on channel=0 note=72 velocity=100 time=0
the msg is note_off channel=0 note=72 velocity=0 time=4
the msg is note_on channel=0 note=72 velocity=100 time=0
the msg is note_off channel=0 note=72 velocity=0 time=12
the msg is note_on channel=0 note=72 velocity=100 time=0
the msg is note_off channel=0 note=72 velocity=0 time=17
the msg is note_on channel=0 note=72 velocity=100 time=0
the msg is note_off channel=0 note=76 velocity=0 time=17
the msg is note_on channel=0 note=76 velocity=100 time=0
the msg is note_off channel=0 note=79 velocity=0 time=17
the msg is note_on channel=0 note=79 velocity=100 time=0
the msg is note_off channel=0 note=76 velocity=0 time=34
the msg is note_on channel=0 note=76 velocity=100 time=0
the msg is note_off channel=0 note=79 velocity=0 time=17
the msg is note_on channel=0 note=79 velocity=100 time=0
the msg is note_off channel=0 note=79 velocity=0 time=17
the msg is note_on channel=0 note=79 velocity=100 time=0
the msg is note_off channel=0 note=76 velocity=0 time=17
the msg is note_on channel=0 note=76 velocity=100 time=0
the msg is note_off channel=0 note=74 velocity=0 time=4
the msg is note_on channel=0 note=74 velocity=100 time=0
the msg is note_off channel=0 note=72 velocity=0 time=12
the msg is note_on channel=0 note=72 velocity=100 time=0
the msg is note_off channel=0 note=74 velocity=0 time=34
the msg is note_on channel=0 note=74 velocity=100 time=0
the msg is note_off channel=0 note=74 velocity=0 time=17
the msg is note_on channel=0 note=74 velocity=100 time=0
the msg is note_off channel=0 note=74 velocity=0 time=34
the msg is note_on channel=0 note=74 velocity=100 time=0
the msg is note_off channel=0 note=76 velocity=0 time=17
the msg is note_on channel=0 note=76 velocity=100 time=0
the msg is note_off channel=0 note=79 velocity=0 time=34
the msg is note_on channel=0 note=79 velocity=100 time=0
the msg is note_off channel=0 note=79 velocity=0 time=17
the msg is note_off channel=0 note=76 velocity=0 time=0
the msg is note_on channel=0 note=79 velocity=100 time=0
the msg is note_on channel=0 note=76 velocity=100 time=0
the msg is note_off channel=0 note=74 velocity=0 time=25
the msg is note_on channel=0 note=74 velocity=100 time=0
the msg is note_off channel=0 note=72 velocity=0 time=8
the msg is note_on channel=0 note=72 velocity=100 time=0
the msg is note_off channel=0 note=74 velocity=0 time=17
the msg is note_on channel=0 note=74 velocity=100 time=0
the msg is note_off channel=0 note=76 velocity=0 time=34
the msg is note_on channel=0 note=76 velocity=100 time=0
the msg is note_off channel=0 note=72 velocity=0 time=4
the msg is note_on channel=0 note=72 velocity=100 time=0
the msg is note_off channel=0 note=74 velocity=0 time=12
the msg is note_on channel=0 note=74 velocity=100 time=0
the msg is note_off channel=0 note=74 velocity=0 time=34
the msg is note_on channel=0 note=74 velocity=100 time=0
the msg is note_off channel=0 note=74 velocity=0 time=17
the msg is note_on channel=0 note=74 velocity=100 time=0
the msg is note_off channel=0 note=74 velocity=0 time=17
the msg is note_on channel=0 note=74 velocity=100 time=0
the msg is note_off channel=0 note=71 velocity=0 time=17
the msg is note_on channel=0 note=71 velocity=100 time=0
the msg is note_off channel=0 note=74 velocity=0 time=17
the msg is note_on channel=0 note=74 velocity=100 time=0
the msg is note_off channel=0 note=74 velocity=0 time=34
the msg is note_on channel=0 note=74 velocity=100 time=0
the msg is note_off channel=0 note=72 velocity=0 time=4
the msg is note_on channel=0 note=72 velocity=100 time=0
the msg is note_off channel=0 note=74 velocity=0 time=29
the msg is note_on channel=0 note=74 velocity=100 time=0
the msg is note_off channel=0 note=74 velocity=0 time=21
the msg is note_on channel=0 note=74 velocity=100 time=0
the msg is note_off channel=0 note=74 velocity=0 time=12
the msg is note_on channel=0 note=74 velocity=100 time=0
the msg is note_off channel=0 note=71 velocity=0 time=17
the msg is note_on channel=0 note=71 velocity=100 time=0
the msg is note_off channel=0 note=74 velocity=0 time=8
the msg is note_on channel=0 note=74 velocity=100 time=0
the msg is note_off channel=0 note=76 velocity=0 time=25
the msg is note_on channel=0 note=76 velocity=100 time=0
the msg is note_off channel=0 note=79 velocity=0 time=25
the msg is note_on channel=0 note=79 velocity=100 time=0
the msg is note_off channel=0 note=72 velocity=0 time=12
the msg is note_on channel=0 note=72 velocity=100 time=0
the msg is note_off channel=0 note=72 velocity=0 time=12
the msg is note_on channel=0 note=72 velocity=100 time=0
the msg is note_off channel=0 note=72 velocity=0 time=12
the msg is note_on channel=0 note=72 velocity=100 time=0
the msg is note_off channel=0 note=72 velocity=0 time=25
the msg is note_on channel=0 note=72 velocity=100 time=0
the msg is note_off channel=0 note=72 velocity=0 time=12
the msg is note_on channel=0 note=72 velocity=100 time=0
the msg is note_off channel=0 note=72 velocity=0 time=12
the msg is note_on channel=0 note=72 velocity=100 time=0
the msg is <meta message end_of_track time=51>
the msg is <meta message track_name name='Acoustic Guitar' time=0>
the msg is program_change channel=0 program=24 time=0
the msg is note_off channel=0 note=69 velocity=0 time=0
the msg is pitchwheel channel=0 pitch=0 time=0
the msg is program_change channel=0 program=24 time=0
the msg is <meta message set_tempo tempo=500000 time=0>
the msg is <meta message time_signature numerator=4 denominator=4 clocks_per_click=24 notated_32nd_notes_per_beat=8 time=0>
the msg is note_on channel=0 note=69 velocity=100 time=0
the msg is note_off channel=0 note=72 velocity=0 time=166
the msg is note_on channel=0 note=72 velocity=100 time=0
the msg is note_off channel=0 note=72 velocity=0 time=12
the msg is note_on channel=0 note=72 velocity=100 time=0
the msg is note_off channel=0 note=72 velocity=0 time=12
the msg is note_on channel=0 note=72 velocity=100 time=0
the msg is note_off channel=0 note=72 velocity=0 time=25
the msg is note_on channel=0 note=72 velocity=100 time=0
the msg is note_off channel=0 note=74 velocity=0 time=25
the msg is note_on channel=0 note=74 velocity=100 time=0
the msg is note_off channel=0 note=74 velocity=0 time=12
the msg is note_on channel=0 note=74 velocity=100 time=0
the msg is note_off channel=0 note=71 velocity=0 time=12
the msg is note_on channel=0 note=71 velocity=100 time=0
the msg is note_off channel=0 note=74 velocity=0 time=25
the msg is note_on channel=0 note=74 velocity=100 time=0
the msg is note_off channel=0 note=74 velocity=0 time=12
the msg is note_on channel=0 note=74 velocity=100 time=0
the msg is note_off channel=0 note=71 velocity=0 time=12
the msg is note_on channel=0 note=71 velocity=100 time=0
the msg is note_off channel=0 note=71 velocity=0 time=12
the msg is note_on channel=0 note=71 velocity=100 time=0
the msg is note_off channel=0 note=69 velocity=0 time=12
the msg is note_on channel=0 note=69 velocity=100 time=0
the msg is note_off channel=0 note=72 velocity=0 time=115
the msg is note_on channel=0 note=72 velocity=100 time=0
the msg is note_off channel=0 note=72 velocity=0 time=34
the msg is note_on channel=0 note=72 velocity=100 time=0
the msg is note_off channel=0 note=72 velocity=0 time=4
the msg is note_on channel=0 note=72 velocity=100 time=0
the msg is note_off channel=0 note=72 velocity=0 time=12
the msg is note_on channel=0 note=72 velocity=100 time=0
the msg is note_off channel=0 note=72 velocity=0 time=17
the msg is note_on channel=0 note=72 velocity=100 time=0
the msg is note_off channel=0 note=76 velocity=0 time=17
the msg is note_on channel=0 note=76 velocity=100 time=0
the msg is note_off channel=0 note=79 velocity=0 time=17
the msg is note_on channel=0 note=79 velocity=100 time=0
the msg is note_off channel=0 note=76 velocity=0 time=34
the msg is note_on channel=0 note=76 velocity=100 time=0
the msg is note_off channel=0 note=79 velocity=0 time=17
the msg is note_on channel=0 note=79 velocity=100 time=0
the msg is note_off channel=0 note=79 velocity=0 time=17
the msg is note_on channel=0 note=79 velocity=100 time=0
the msg is note_off channel=0 note=76 velocity=0 time=17
the msg is note_on channel=0 note=76 velocity=100 time=0
the msg is note_off channel=0 note=74 velocity=0 time=4
the msg is note_on channel=0 note=74 velocity=100 time=0
the msg is note_off channel=0 note=72 velocity=0 time=12
the msg is note_on channel=0 note=72 velocity=100 time=0
the msg is note_off channel=0 note=74 velocity=0 time=34
the msg is note_on channel=0 note=74 velocity=100 time=0
the msg is note_off channel=0 note=74 velocity=0 time=17
the msg is note_on channel=0 note=74 velocity=100 time=0
the msg is note_off channel=0 note=74 velocity=0 time=34
the msg is note_on channel=0 note=74 velocity=100 time=0
the msg is note_off channel=0 note=76 velocity=0 time=17
the msg is note_on channel=0 note=76 velocity=100 time=0
the msg is note_off channel=0 note=79 velocity=0 time=34
the msg is note_on channel=0 note=79 velocity=100 time=0
the msg is note_off channel=0 note=79 velocity=0 time=17
the msg is note_off channel=0 note=76 velocity=0 time=0
the msg is note_on channel=0 note=79 velocity=100 time=0
the msg is note_on channel=0 note=76 velocity=100 time=0
the msg is note_off channel=0 note=74 velocity=0 time=25
the msg is note_on channel=0 note=74 velocity=100 time=0
the msg is note_off channel=0 note=72 velocity=0 time=8
the msg is note_on channel=0 note=72 velocity=100 time=0
the msg is note_off channel=0 note=74 velocity=0 time=17
the msg is note_on channel=0 note=74 velocity=100 time=0
the msg is note_off channel=0 note=76 velocity=0 time=34
the msg is note_on channel=0 note=76 velocity=100 time=0
the msg is note_off channel=0 note=72 velocity=0 time=4
the msg is note_on channel=0 note=72 velocity=100 time=0
the msg is note_off channel=0 note=74 velocity=0 time=12
the msg is note_on channel=0 note=74 velocity=100 time=0
the msg is note_off channel=0 note=74 velocity=0 time=34
the msg is note_on channel=0 note=74 velocity=100 time=0
the msg is note_off channel=0 note=74 velocity=0 time=17
the msg is note_on channel=0 note=74 velocity=100 time=0
the msg is note_off channel=0 note=74 velocity=0 time=17
the msg is note_on channel=0 note=74 velocity=100 time=0
the msg is note_off channel=0 note=71 velocity=0 time=17
the msg is note_on channel=0 note=71 velocity=100 time=0
the msg is note_off channel=0 note=74 velocity=0 time=17
the msg is note_on channel=0 note=74 velocity=100 time=0
the msg is note_off channel=0 note=74 velocity=0 time=34
the msg is note_on channel=0 note=74 velocity=100 time=0
the msg is note_off channel=0 note=72 velocity=0 time=4
the msg is note_on channel=0 note=72 velocity=100 time=0
the msg is note_off channel=0 note=74 velocity=0 time=29
the msg is note_on channel=0 note=74 velocity=100 time=0
the msg is note_off channel=0 note=74 velocity=0 time=21
the msg is note_on channel=0 note=74 velocity=100 time=0
the msg is note_off channel=0 note=74 velocity=0 time=12
the msg is note_on channel=0 note=74 velocity=100 time=0
the msg is note_off channel=0 note=71 velocity=0 time=17
the msg is note_on channel=0 note=71 velocity=100 time=0
the msg is note_off channel=0 note=74 velocity=0 time=8
the msg is note_on channel=0 note=74 velocity=100 time=0
the msg is note_off channel=0 note=76 velocity=0 time=25
the msg is note_on channel=0 note=76 velocity=100 time=0
the msg is note_off channel=0 note=79 velocity=0 time=25
the msg is note_on channel=0 note=79 velocity=100 time=0
the msg is note_off channel=0 note=72 velocity=0 time=12
the msg is note_on channel=0 note=72 velocity=100 time=0
the msg is note_off channel=0 note=72 velocity=0 time=12
the msg is note_on channel=0 note=72 velocity=100 time=0
the msg is note_off channel=0 note=72 velocity=0 time=12
the msg is note_on channel=0 note=72 velocity=100 time=0
the msg is note_off channel=0 note=72 velocity=0 time=25
the msg is note_on channel=0 note=72 velocity=100 time=0
the msg is note_off channel=0 note=72 velocity=0 time=12
the msg is note_on channel=0 note=72 velocity=100 time=0
the msg is note_off channel=0 note=72 velocity=0 time=12
the msg is note_on channel=0 note=72 velocity=100 time=0
the msg is <meta message end_of_track time=51>
the msg is <meta message track_name name='Acoustic Guitar' time=0>
the msg is program_change channel=0 program=24 time=0
the msg is note_off channel=0 note=69 velocity=0 time=0
the msg is pitchwheel channel=0 pitch=0 time=0
the msg is program_change channel=0 program=24 time=0
the msg is <meta message set_tempo tempo=500000 time=0>
the msg is <meta message time_signature numerator=4 denominator=4 clocks_per_click=24 notated_32nd_notes_per_beat=8 time=0>
the msg is note_on channel=0 note=69 velocity=100 time=0
the msg is note_off channel=0 note=72 velocity=0 time=166
the msg is note_on channel=0 note=72 velocity=100 time=0
the msg is note_off channel=0 note=72 velocity=0 time=12
the msg is note_on channel=0 note=72 velocity=100 time=0
the msg is note_off channel=0 note=72 velocity=0 time=12
the msg is note_on channel=0 note=72 velocity=100 time=0
the msg is note_off channel=0 note=72 velocity=0 time=25
the msg is note_on channel=0 note=72 velocity=100 time=0
the msg is note_off channel=0 note=74 velocity=0 time=25
the msg is note_on channel=0 note=74 velocity=100 time=0
the msg is note_off channel=0 note=74 velocity=0 time=12
the msg is note_on channel=0 note=74 velocity=100 time=0
the msg is note_off channel=0 note=71 velocity=0 time=12
the msg is note_on channel=0 note=71 velocity=100 time=0
the msg is note_off channel=0 note=74 velocity=0 time=25
the msg is note_on channel=0 note=74 velocity=100 time=0
the msg is note_off channel=0 note=74 velocity=0 time=12
the msg is note_on channel=0 note=74 velocity=100 time=0
the msg is note_off channel=0 note=71 velocity=0 time=12
the msg is note_on channel=0 note=71 velocity=100 time=0
the msg is note_off channel=0 note=71 velocity=0 time=12
the msg is note_on channel=0 note=71 velocity=100 time=0
the msg is note_off channel=0 note=69 velocity=0 time=12
the msg is note_on channel=0 note=69 velocity=100 time=0
the msg is note_off channel=0 note=72 velocity=0 time=115
the msg is note_on channel=0 note=72 velocity=100 time=0
the msg is note_off channel=0 note=72 velocity=0 time=34
the msg is note_on channel=0 note=72 velocity=100 time=0
the msg is note_off channel=0 note=72 velocity=0 time=4
the msg is note_on channel=0 note=72 velocity=100 time=0
the msg is note_off channel=0 note=72 velocity=0 time=12
the msg is note_on channel=0 note=72 velocity=100 time=0
the msg is note_off channel=0 note=72 velocity=0 time=17
the msg is note_on channel=0 note=72 velocity=100 time=0
the msg is note_off channel=0 note=76 velocity=0 time=17
the msg is note_on channel=0 note=76 velocity=100 time=0
the msg is note_off channel=0 note=79 velocity=0 time=17
the msg is note_on channel=0 note=79 velocity=100 time=0
the msg is note_off channel=0 note=76 velocity=0 time=34
the msg is note_on channel=0 note=76 velocity=100 time=0
the msg is note_off channel=0 note=79 velocity=0 time=17
the msg is note_on channel=0 note=79 velocity=100 time=0
the msg is note_off channel=0 note=79 velocity=0 time=17
the msg is note_on channel=0 note=79 velocity=100 time=0
the msg is note_off channel=0 note=76 velocity=0 time=17
the msg is note_on channel=0 note=76 velocity=100 time=0
the msg is note_off channel=0 note=74 velocity=0 time=4
the msg is note_on channel=0 note=74 velocity=100 time=0
the msg is note_off channel=0 note=72 velocity=0 time=12
the msg is note_on channel=0 note=72 velocity=100 time=0
the msg is note_off channel=0 note=74 velocity=0 time=34
the msg is note_on channel=0 note=74 velocity=100 time=0
the msg is note_off channel=0 note=74 velocity=0 time=17
the msg is note_on channel=0 note=74 velocity=100 time=0
the msg is note_off channel=0 note=74 velocity=0 time=34
the msg is note_on channel=0 note=74 velocity=100 time=0
the msg is note_off channel=0 note=76 velocity=0 time=17
the msg is note_on channel=0 note=76 velocity=100 time=0
the msg is note_off channel=0 note=79 velocity=0 time=34
the msg is note_on channel=0 note=79 velocity=100 time=0
the msg is note_off channel=0 note=79 velocity=0 time=17
the msg is note_off channel=0 note=76 velocity=0 time=0
the msg is note_on channel=0 note=79 velocity=100 time=0
the msg is note_on channel=0 note=76 velocity=100 time=0
the msg is note_off channel=0 note=74 velocity=0 time=25
the msg is note_on channel=0 note=74 velocity=100 time=0
the msg is note_off channel=0 note=72 velocity=0 time=8
the msg is note_on channel=0 note=72 velocity=100 time=0
the msg is note_off channel=0 note=74 velocity=0 time=17
the msg is note_on channel=0 note=74 velocity=100 time=0
the msg is note_off channel=0 note=76 velocity=0 time=34
the msg is note_on channel=0 note=76 velocity=100 time=0
the msg is note_off channel=0 note=72 velocity=0 time=4
the msg is note_on channel=0 note=72 velocity=100 time=0
the msg is note_off channel=0 note=74 velocity=0 time=12
the msg is note_on channel=0 note=74 velocity=100 time=0
the msg is note_off channel=0 note=74 velocity=0 time=34
the msg is note_on channel=0 note=74 velocity=100 time=0
the msg is note_off channel=0 note=74 velocity=0 time=17
the msg is note_on channel=0 note=74 velocity=100 time=0
the msg is note_off channel=0 note=74 velocity=0 time=17
the msg is note_on channel=0 note=74 velocity=100 time=0
the msg is note_off channel=0 note=71 velocity=0 time=17
the msg is note_on channel=0 note=71 velocity=100 time=0
the msg is note_off channel=0 note=74 velocity=0 time=17
the msg is note_on channel=0 note=74 velocity=100 time=0
the msg is note_off channel=0 note=74 velocity=0 time=34
the msg is note_on channel=0 note=74 velocity=100 time=0
the msg is note_off channel=0 note=72 velocity=0 time=4
the msg is note_on channel=0 note=72 velocity=100 time=0
the msg is note_off channel=0 note=74 velocity=0 time=29
the msg is note_on channel=0 note=74 velocity=100 time=0
the msg is note_off channel=0 note=74 velocity=0 time=21
the msg is note_on channel=0 note=74 velocity=100 time=0
the msg is note_off channel=0 note=74 velocity=0 time=12
the msg is note_on channel=0 note=74 velocity=100 time=0
the msg is note_off channel=0 note=71 velocity=0 time=17
the msg is note_on channel=0 note=71 velocity=100 time=0
the msg is note_off channel=0 note=74 velocity=0 time=8
the msg is note_on channel=0 note=74 velocity=100 time=0
the msg is note_off channel=0 note=76 velocity=0 time=25
the msg is note_on channel=0 note=76 velocity=100 time=0
the msg is note_off channel=0 note=79 velocity=0 time=25
the msg is note_on channel=0 note=79 velocity=100 time=0
the msg is note_off channel=0 note=72 velocity=0 time=12
the msg is note_on channel=0 note=72 velocity=100 time=0
the msg is note_off channel=0 note=72 velocity=0 time=12
the msg is note_on channel=0 note=72 velocity=100 time=0
the msg is note_off channel=0 note=72 velocity=0 time=12
the msg is note_on channel=0 note=72 velocity=100 time=0
the msg is note_off channel=0 note=72 velocity=0 time=25
the msg is note_on channel=0 note=72 velocity=100 time=0
the msg is note_off channel=0 note=72 velocity=0 time=12
the msg is note_on channel=0 note=72 velocity=100 time=0
the msg is note_off channel=0 note=72 velocity=0 time=12
the msg is note_on channel=0 note=72 velocity=100 time=0
the msg is <meta message end_of_track time=51>
the msg is <meta message track_name name='Acoustic Guitar' time=0>
the msg is program_change channel=0 program=24 time=0
the msg is note_off channel=0 note=69 velocity=0 time=0
the msg is pitchwheel channel=0 pitch=0 time=0
the msg is program_change channel=0 program=24 time=0
the msg is <meta message set_tempo tempo=500000 time=0>
the msg is <meta message time_signature numerator=4 denominator=4 clocks_per_click=24 notated_32nd_notes_per_beat=8 time=0>
the msg is note_on channel=0 note=69 velocity=100 time=0
the msg is note_off channel=0 note=72 velocity=0 time=166
the msg is note_on channel=0 note=72 velocity=100 time=0
the msg is note_off channel=0 note=72 velocity=0 time=12
the msg is note_on channel=0 note=72 velocity=100 time=0
the msg is note_off channel=0 note=72 velocity=0 time=12
the msg is note_on channel=0 note=72 velocity=100 time=0
the msg is note_off channel=0 note=72 velocity=0 time=25
the msg is note_on channel=0 note=72 velocity=100 time=0
the msg is note_off channel=0 note=74 velocity=0 time=25
the msg is note_on channel=0 note=74 velocity=100 time=0
the msg is note_off channel=0 note=74 velocity=0 time=12
the msg is note_on channel=0 note=74 velocity=100 time=0
the msg is note_off channel=0 note=71 velocity=0 time=12
the msg is note_on channel=0 note=71 velocity=100 time=0
the msg is note_off channel=0 note=74 velocity=0 time=25
the msg is note_on channel=0 note=74 velocity=100 time=0
the msg is note_off channel=0 note=74 velocity=0 time=12
the msg is note_on channel=0 note=74 velocity=100 time=0
the msg is note_off channel=0 note=71 velocity=0 time=12
the msg is note_on channel=0 note=71 velocity=100 time=0
the msg is note_off channel=0 note=71 velocity=0 time=12
the msg is note_on channel=0 note=71 velocity=100 time=0
the msg is note_off channel=0 note=69 velocity=0 time=12
the msg is note_on channel=0 note=69 velocity=100 time=0
the msg is note_off channel=0 note=72 velocity=0 time=115
the msg is note_on channel=0 note=72 velocity=100 time=0
the msg is note_off channel=0 note=72 velocity=0 time=34
the msg is note_on channel=0 note=72 velocity=100 time=0
the msg is note_off channel=0 note=72 velocity=0 time=4
the msg is note_on channel=0 note=72 velocity=100 time=0
the msg is note_off channel=0 note=72 velocity=0 time=12
the msg is note_on channel=0 note=72 velocity=100 time=0
the msg is note_off channel=0 note=72 velocity=0 time=17
the msg is note_on channel=0 note=72 velocity=100 time=0
the msg is note_off channel=0 note=76 velocity=0 time=17
the msg is note_on channel=0 note=76 velocity=100 time=0
the msg is note_off channel=0 note=79 velocity=0 time=17
the msg is note_on channel=0 note=79 velocity=100 time=0
the msg is note_off channel=0 note=76 velocity=0 time=34
the msg is note_on channel=0 note=76 velocity=100 time=0
the msg is note_off channel=0 note=79 velocity=0 time=17
the msg is note_on channel=0 note=79 velocity=100 time=0
the msg is note_off channel=0 note=79 velocity=0 time=17
the msg is note_on channel=0 note=79 velocity=100 time=0
the msg is note_off channel=0 note=76 velocity=0 time=17
the msg is note_on channel=0 note=76 velocity=100 time=0
the msg is note_off channel=0 note=74 velocity=0 time=4
the msg is note_on channel=0 note=74 velocity=100 time=0
the msg is note_off channel=0 note=72 velocity=0 time=12
the msg is note_on channel=0 note=72 velocity=100 time=0
the msg is note_off channel=0 note=74 velocity=0 time=34
the msg is note_on channel=0 note=74 velocity=100 time=0
the msg is note_off channel=0 note=74 velocity=0 time=17
the msg is note_on channel=0 note=74 velocity=100 time=0
the msg is note_off channel=0 note=74 velocity=0 time=34
the msg is note_on channel=0 note=74 velocity=100 time=0
the msg is note_off channel=0 note=76 velocity=0 time=17
the msg is note_on channel=0 note=76 velocity=100 time=0
the msg is note_off channel=0 note=79 velocity=0 time=34
the msg is note_on channel=0 note=79 velocity=100 time=0
the msg is note_off channel=0 note=79 velocity=0 time=17
the msg is note_off channel=0 note=76 velocity=0 time=0
the msg is note_on channel=0 note=79 velocity=100 time=0
the msg is note_on channel=0 note=76 velocity=100 time=0
the msg is note_off channel=0 note=74 velocity=0 time=25
the msg is note_on channel=0 note=74 velocity=100 time=0
the msg is note_off channel=0 note=72 velocity=0 time=8
the msg is note_on channel=0 note=72 velocity=100 time=0
the msg is note_off channel=0 note=74 velocity=0 time=17
the msg is note_on channel=0 note=74 velocity=100 time=0
the msg is note_off channel=0 note=76 velocity=0 time=34
the msg is note_on channel=0 note=76 velocity=100 time=0
the msg is note_off channel=0 note=72 velocity=0 time=4
the msg is note_on channel=0 note=72 velocity=100 time=0
the msg is note_off channel=0 note=74 velocity=0 time=12
the msg is note_on channel=0 note=74 velocity=100 time=0
the msg is note_off channel=0 note=74 velocity=0 time=34
the msg is note_on channel=0 note=74 velocity=100 time=0
the msg is note_off channel=0 note=74 velocity=0 time=17
the msg is note_on channel=0 note=74 velocity=100 time=0
the msg is note_off channel=0 note=74 velocity=0 time=17
the msg is note_on channel=0 note=74 velocity=100 time=0
the msg is note_off channel=0 note=71 velocity=0 time=17
the msg is note_on channel=0 note=71 velocity=100 time=0
the msg is note_off channel=0 note=74 velocity=0 time=17
the msg is note_on channel=0 note=74 velocity=100 time=0
the msg is note_off channel=0 note=74 velocity=0 time=34
the msg is note_on channel=0 note=74 velocity=100 time=0
the msg is note_off channel=0 note=72 velocity=0 time=4
the msg is note_on channel=0 note=72 velocity=100 time=0
the msg is note_off channel=0 note=74 velocity=0 time=29
the msg is note_on channel=0 note=74 velocity=100 time=0
the msg is note_off channel=0 note=74 velocity=0 time=21
the msg is note_on channel=0 note=74 velocity=100 time=0
the msg is note_off channel=0 note=74 velocity=0 time=12
the msg is note_on channel=0 note=74 velocity=100 time=0
the msg is note_off channel=0 note=71 velocity=0 time=17
the msg is note_on channel=0 note=71 velocity=100 time=0
the msg is note_off channel=0 note=74 velocity=0 time=8
the msg is note_on channel=0 note=74 velocity=100 time=0
the msg is note_off channel=0 note=76 velocity=0 time=25
the msg is note_on channel=0 note=76 velocity=100 time=0
the msg is note_off channel=0 note=79 velocity=0 time=25
the msg is note_on channel=0 note=79 velocity=100 time=0
the msg is note_off channel=0 note=72 velocity=0 time=12
the msg is note_on channel=0 note=72 velocity=100 time=0
the msg is note_off channel=0 note=72 velocity=0 time=12
the msg is note_on channel=0 note=72 velocity=100 time=0
the msg is note_off channel=0 note=72 velocity=0 time=12
the msg is note_on channel=0 note=72 velocity=100 time=0
the msg is note_off channel=0 note=72 velocity=0 time=25
the msg is note_on channel=0 note=72 velocity=100 time=0
the msg is note_off channel=0 note=72 velocity=0 time=12
the msg is note_on channel=0 note=72 velocity=100 time=0
the msg is note_off channel=0 note=72 velocity=0 time=12
the msg is note_on channel=0 note=72 velocity=100 time=0
the msg is <meta message end_of_track time=51>
the msg is <meta message track_name name='Acoustic Guitar' time=0>
the msg is program_change channel=0 program=24 time=0
the msg is note_off channel=0 note=69 velocity=0 time=0
the msg is pitchwheel channel=0 pitch=0 time=0
the msg is program_change channel=0 program=24 time=0
the msg is <meta message set_tempo tempo=500000 time=0>
the msg is <meta message time_signature numerator=4 denominator=4 clocks_per_click=24 notated_32nd_notes_per_beat=8 time=0>
the msg is note_on channel=0 note=69 velocity=100 time=0
the msg is note_off channel=0 note=72 velocity=0 time=166
the msg is note_on channel=0 note=72 velocity=100 time=0
the msg is note_off channel=0 note=72 velocity=0 time=12
the msg is note_on channel=0 note=72 velocity=100 time=0
the msg is note_off channel=0 note=72 velocity=0 time=12
the msg is note_on channel=0 note=72 velocity=100 time=0
the msg is note_off channel=0 note=72 velocity=0 time=25
the msg is note_on channel=0 note=72 velocity=100 time=0
the msg is note_off channel=0 note=74 velocity=0 time=25
the msg is note_on channel=0 note=74 velocity=100 time=0
the msg is note_off channel=0 note=74 velocity=0 time=12
the msg is note_on channel=0 note=74 velocity=100 time=0
the msg is note_off channel=0 note=71 velocity=0 time=12
the msg is note_on channel=0 note=71 velocity=100 time=0
the msg is note_off channel=0 note=74 velocity=0 time=25
the msg is note_on channel=0 note=74 velocity=100 time=0
the msg is note_off channel=0 note=74 velocity=0 time=12
the msg is note_on channel=0 note=74 velocity=100 time=0
the msg is note_off channel=0 note=71 velocity=0 time=12
the msg is note_on channel=0 note=71 velocity=100 time=0
the msg is note_off channel=0 note=71 velocity=0 time=12
the msg is note_on channel=0 note=71 velocity=100 time=0
the msg is note_off channel=0 note=69 velocity=0 time=12
the msg is note_on channel=0 note=69 velocity=100 time=0
the msg is note_off channel=0 note=72 velocity=0 time=115
the msg is note_on channel=0 note=72 velocity=100 time=0
the msg is note_off channel=0 note=72 velocity=0 time=34
the msg is note_on channel=0 note=72 velocity=100 time=0
the msg is note_off channel=0 note=72 velocity=0 time=4
the msg is note_on channel=0 note=72 velocity=100 time=0
the msg is note_off channel=0 note=72 velocity=0 time=12
the msg is note_on channel=0 note=72 velocity=100 time=0
the msg is note_off channel=0 note=72 velocity=0 time=17
the msg is note_on channel=0 note=72 velocity=100 time=0
the msg is note_off channel=0 note=76 velocity=0 time=17
the msg is note_on channel=0 note=76 velocity=100 time=0
the msg is note_off channel=0 note=79 velocity=0 time=17
the msg is note_on channel=0 note=79 velocity=100 time=0
the msg is note_off channel=0 note=76 velocity=0 time=34
the msg is note_on channel=0 note=76 velocity=100 time=0
the msg is note_off channel=0 note=79 velocity=0 time=17
the msg is note_on channel=0 note=79 velocity=100 time=0
the msg is note_off channel=0 note=79 velocity=0 time=17
the msg is note_on channel=0 note=79 velocity=100 time=0
the msg is note_off channel=0 note=76 velocity=0 time=17
the msg is note_on channel=0 note=76 velocity=100 time=0
the msg is note_off channel=0 note=74 velocity=0 time=4
the msg is note_on channel=0 note=74 velocity=100 time=0
the msg is note_off channel=0 note=72 velocity=0 time=12
the msg is note_on channel=0 note=72 velocity=100 time=0
the msg is note_off channel=0 note=74 velocity=0 time=34
the msg is note_on channel=0 note=74 velocity=100 time=0
the msg is note_off channel=0 note=74 velocity=0 time=17
the msg is note_on channel=0 note=74 velocity=100 time=0
the msg is note_off channel=0 note=74 velocity=0 time=34
the msg is note_on channel=0 note=74 velocity=100 time=0
the msg is note_off channel=0 note=76 velocity=0 time=17
the msg is note_on channel=0 note=76 velocity=100 time=0
the msg is note_off channel=0 note=79 velocity=0 time=34
the msg is note_on channel=0 note=79 velocity=100 time=0
the msg is note_off channel=0 note=79 velocity=0 time=17
the msg is note_off channel=0 note=76 velocity=0 time=0
the msg is note_on channel=0 note=79 velocity=100 time=0
the msg is note_on channel=0 note=76 velocity=100 time=0
the msg is note_off channel=0 note=74 velocity=0 time=25
the msg is note_on channel=0 note=74 velocity=100 time=0
the msg is note_off channel=0 note=72 velocity=0 time=8
the msg is note_on channel=0 note=72 velocity=100 time=0
the msg is note_off channel=0 note=74 velocity=0 time=17
the msg is note_on channel=0 note=74 velocity=100 time=0
the msg is note_off channel=0 note=76 velocity=0 time=34
the msg is note_on channel=0 note=76 velocity=100 time=0
the msg is note_off channel=0 note=72 velocity=0 time=4
the msg is note_on channel=0 note=72 velocity=100 time=0
the msg is note_off channel=0 note=74 velocity=0 time=12
the msg is note_on channel=0 note=74 velocity=100 time=0
the msg is note_off channel=0 note=74 velocity=0 time=34
the msg is note_on channel=0 note=74 velocity=100 time=0
the msg is note_off channel=0 note=74 velocity=0 time=17
the msg is note_on channel=0 note=74 velocity=100 time=0
the msg is note_off channel=0 note=74 velocity=0 time=17
the msg is note_on channel=0 note=74 velocity=100 time=0
the msg is note_off channel=0 note=71 velocity=0 time=17
the msg is note_on channel=0 note=71 velocity=100 time=0
the msg is note_off channel=0 note=74 velocity=0 time=17
the msg is note_on channel=0 note=74 velocity=100 time=0
the msg is note_off channel=0 note=74 velocity=0 time=34
the msg is note_on channel=0 note=74 velocity=100 time=0
the msg is note_off channel=0 note=72 velocity=0 time=4
the msg is note_on channel=0 note=72 velocity=100 time=0
the msg is note_off channel=0 note=74 velocity=0 time=29
the msg is note_on channel=0 note=74 velocity=100 time=0
the msg is note_off channel=0 note=74 velocity=0 time=21
the msg is note_on channel=0 note=74 velocity=100 time=0
the msg is note_off channel=0 note=74 velocity=0 time=12
the msg is note_on channel=0 note=74 velocity=100 time=0
the msg is note_off channel=0 note=71 velocity=0 time=17
the msg is note_on channel=0 note=71 velocity=100 time=0
the msg is note_off channel=0 note=74 velocity=0 time=8
the msg is note_on channel=0 note=74 velocity=100 time=0
the msg is note_off channel=0 note=76 velocity=0 time=25
the msg is note_on channel=0 note=76 velocity=100 time=0
the msg is note_off channel=0 note=79 velocity=0 time=25
the msg is note_on channel=0 note=79 velocity=100 time=0
the msg is note_off channel=0 note=72 velocity=0 time=12
the msg is note_on channel=0 note=72 velocity=100 time=0
the msg is note_off channel=0 note=72 velocity=0 time=12
the msg is note_on channel=0 note=72 velocity=100 time=0
the msg is note_off channel=0 note=72 velocity=0 time=12
the msg is note_on channel=0 note=72 velocity=100 time=0
the msg is note_off channel=0 note=72 velocity=0 time=25
the msg is note_on channel=0 note=72 velocity=100 time=0
the msg is note_off channel=0 note=72 velocity=0 time=12
the msg is note_on channel=0 note=72 velocity=100 time=0
the msg is note_off channel=0 note=72 velocity=0 time=12
the msg is note_on channel=0 note=72 velocity=100 time=0
the msg is <meta message end_of_track time=51>
the msg is <meta message track_name name='Acoustic Guitar' time=0>
the msg is program_change channel=0 program=24 time=0
the msg is note_off channel=0 note=69 velocity=0 time=0
the msg is pitchwheel channel=0 pitch=0 time=0
the msg is program_change channel=0 program=24 time=0
the msg is <meta message set_tempo tempo=500000 time=0>
the msg is <meta message time_signature numerator=4 denominator=4 clocks_per_click=24 notated_32nd_notes_per_beat=8 time=0>
the msg is note_on channel=0 note=69 velocity=100 time=0
the msg is note_off channel=0 note=72 velocity=0 time=166
the msg is note_on channel=0 note=72 velocity=100 time=0
the msg is note_off channel=0 note=72 velocity=0 time=12
the msg is note_on channel=0 note=72 velocity=100 time=0
the msg is note_off channel=0 note=72 velocity=0 time=12
the msg is note_on channel=0 note=72 velocity=100 time=0
the msg is note_off channel=0 note=72 velocity=0 time=25
the msg is note_on channel=0 note=72 velocity=100 time=0
the msg is note_off channel=0 note=74 velocity=0 time=25
the msg is note_on channel=0 note=74 velocity=100 time=0
the msg is note_off channel=0 note=74 velocity=0 time=12
the msg is note_on channel=0 note=74 velocity=100 time=0
the msg is note_off channel=0 note=71 velocity=0 time=12
the msg is note_on channel=0 note=71 velocity=100 time=0
the msg is note_off channel=0 note=74 velocity=0 time=25
the msg is note_on channel=0 note=74 velocity=100 time=0
the msg is note_off channel=0 note=74 velocity=0 time=12
the msg is note_on channel=0 note=74 velocity=100 time=0
the msg is note_off channel=0 note=71 velocity=0 time=12
the msg is note_on channel=0 note=71 velocity=100 time=0
the msg is note_off channel=0 note=71 velocity=0 time=12
the msg is note_on channel=0 note=71 velocity=100 time=0
the msg is note_off channel=0 note=69 velocity=0 time=12
the msg is note_on channel=0 note=69 velocity=100 time=0
the msg is note_off channel=0 note=72 velocity=0 time=115
the msg is note_on channel=0 note=72 velocity=100 time=0
the msg is note_off channel=0 note=72 velocity=0 time=34
the msg is note_on channel=0 note=72 velocity=100 time=0
the msg is note_off channel=0 note=72 velocity=0 time=4
the msg is note_on channel=0 note=72 velocity=100 time=0
the msg is note_off channel=0 note=72 velocity=0 time=12
the msg is note_on channel=0 note=72 velocity=100 time=0
the msg is note_off channel=0 note=72 velocity=0 time=17
the msg is note_on channel=0 note=72 velocity=100 time=0
the msg is note_off channel=0 note=76 velocity=0 time=17
the msg is note_on channel=0 note=76 velocity=100 time=0
the msg is note_off channel=0 note=79 velocity=0 time=17
the msg is note_on channel=0 note=79 velocity=100 time=0
the msg is note_off channel=0 note=76 velocity=0 time=34
the msg is note_on channel=0 note=76 velocity=100 time=0
the msg is note_off channel=0 note=79 velocity=0 time=17
the msg is note_on channel=0 note=79 velocity=100 time=0
the msg is note_off channel=0 note=79 velocity=0 time=17
the msg is note_on channel=0 note=79 velocity=100 time=0
the msg is note_off channel=0 note=76 velocity=0 time=17
the msg is note_on channel=0 note=76 velocity=100 time=0
the msg is note_off channel=0 note=74 velocity=0 time=4
the msg is note_on channel=0 note=74 velocity=100 time=0
the msg is note_off channel=0 note=72 velocity=0 time=12
the msg is note_on channel=0 note=72 velocity=100 time=0
the msg is note_off channel=0 note=74 velocity=0 time=34
the msg is note_on channel=0 note=74 velocity=100 time=0
the msg is note_off channel=0 note=74 velocity=0 time=17
the msg is note_on channel=0 note=74 velocity=100 time=0
the msg is note_off channel=0 note=74 velocity=0 time=34
the msg is note_on channel=0 note=74 velocity=100 time=0
the msg is note_off channel=0 note=76 velocity=0 time=17
the msg is note_on channel=0 note=76 velocity=100 time=0
the msg is note_off channel=0 note=79 velocity=0 time=34
the msg is note_on channel=0 note=79 velocity=100 time=0
the msg is note_off channel=0 note=79 velocity=0 time=17
the msg is note_off channel=0 note=76 velocity=0 time=0
the msg is note_on channel=0 note=79 velocity=100 time=0
the msg is note_on channel=0 note=76 velocity=100 time=0
the msg is note_off channel=0 note=74 velocity=0 time=25
the msg is note_on channel=0 note=74 velocity=100 time=0
the msg is note_off channel=0 note=72 velocity=0 time=8
the msg is note_on channel=0 note=72 velocity=100 time=0
the msg is note_off channel=0 note=74 velocity=0 time=17
the msg is note_on channel=0 note=74 velocity=100 time=0
the msg is note_off channel=0 note=76 velocity=0 time=34
the msg is note_on channel=0 note=76 velocity=100 time=0
the msg is note_off channel=0 note=72 velocity=0 time=4
the msg is note_on channel=0 note=72 velocity=100 time=0
the msg is note_off channel=0 note=74 velocity=0 time=12
the msg is note_on channel=0 note=74 velocity=100 time=0
the msg is note_off channel=0 note=74 velocity=0 time=34
the msg is note_on channel=0 note=74 velocity=100 time=0
the msg is note_off channel=0 note=74 velocity=0 time=17
the msg is note_on channel=0 note=74 velocity=100 time=0
the msg is note_off channel=0 note=74 velocity=0 time=17
the msg is note_on channel=0 note=74 velocity=100 time=0
the msg is note_off channel=0 note=71 velocity=0 time=17
the msg is note_on channel=0 note=71 velocity=100 time=0
the msg is note_off channel=0 note=74 velocity=0 time=17
the msg is note_on channel=0 note=74 velocity=100 time=0
the msg is note_off channel=0 note=74 velocity=0 time=34
the msg is note_on channel=0 note=74 velocity=100 time=0
the msg is note_off channel=0 note=72 velocity=0 time=4
the msg is note_on channel=0 note=72 velocity=100 time=0
the msg is note_off channel=0 note=74 velocity=0 time=29
the msg is note_on channel=0 note=74 velocity=100 time=0
the msg is note_off channel=0 note=74 velocity=0 time=21
the msg is note_on channel=0 note=74 velocity=100 time=0
the msg is note_off channel=0 note=74 velocity=0 time=12
the msg is note_on channel=0 note=74 velocity=100 time=0
the msg is note_off channel=0 note=71 velocity=0 time=17
the msg is note_on channel=0 note=71 velocity=100 time=0
the msg is note_off channel=0 note=74 velocity=0 time=8
the msg is note_on channel=0 note=74 velocity=100 time=0
the msg is note_off channel=0 note=76 velocity=0 time=25
the msg is note_on channel=0 note=76 velocity=100 time=0
the msg is note_off channel=0 note=79 velocity=0 time=25
the msg is note_on channel=0 note=79 velocity=100 time=0
the msg is note_off channel=0 note=72 velocity=0 time=12
the msg is note_on channel=0 note=72 velocity=100 time=0
the msg is note_off channel=0 note=72 velocity=0 time=12
the msg is note_on channel=0 note=72 velocity=100 time=0
the msg is note_off channel=0 note=72 velocity=0 time=12
the msg is note_on channel=0 note=72 velocity=100 time=0
the msg is note_off channel=0 note=72 velocity=0 time=25
the msg is note_on channel=0 note=72 velocity=100 time=0
the msg is note_off channel=0 note=72 velocity=0 time=12
the msg is note_on channel=0 note=72 velocity=100 time=0
the msg is note_off channel=0 note=72 velocity=0 time=12
the msg is note_on channel=0 note=72 velocity=100 time=0
the msg is <meta message end_of_track time=51>
the msg is <meta message track_name name='Acoustic Guitar' time=0>
the msg is program_change channel=0 program=24 time=0
the msg is note_off channel=0 note=69 velocity=0 time=0
the msg is pitchwheel channel=0 pitch=0 time=0
the msg is program_change channel=0 program=24 time=0
the msg is <meta message set_tempo tempo=500000 time=0>
the msg is <meta message time_signature numerator=4 denominator=4 clocks_per_click=24 notated_32nd_notes_per_beat=8 time=0>
the msg is note_on channel=0 note=69 velocity=100 time=0
the msg is note_off channel=0 note=72 velocity=0 time=166
the msg is note_on channel=0 note=72 velocity=100 time=0
the msg is note_off channel=0 note=72 velocity=0 time=12
the msg is note_on channel=0 note=72 velocity=100 time=0
the msg is note_off channel=0 note=72 velocity=0 time=12
the msg is note_on channel=0 note=72 velocity=100 time=0
the msg is note_off channel=0 note=72 velocity=0 time=25
the msg is note_on channel=0 note=72 velocity=100 time=0
the msg is note_off channel=0 note=74 velocity=0 time=25
the msg is note_on channel=0 note=74 velocity=100 time=0
the msg is note_off channel=0 note=74 velocity=0 time=12
the msg is note_on channel=0 note=74 velocity=100 time=0
the msg is note_off channel=0 note=71 velocity=0 time=12
the msg is note_on channel=0 note=71 velocity=100 time=0
the msg is note_off channel=0 note=74 velocity=0 time=25
the msg is note_on channel=0 note=74 velocity=100 time=0
the msg is note_off channel=0 note=74 velocity=0 time=12
the msg is note_on channel=0 note=74 velocity=100 time=0
the msg is note_off channel=0 note=71 velocity=0 time=12
the msg is note_on channel=0 note=71 velocity=100 time=0
the msg is note_off channel=0 note=71 velocity=0 time=12
the msg is note_on channel=0 note=71 velocity=100 time=0
the msg is note_off channel=0 note=69 velocity=0 time=12
the msg is note_on channel=0 note=69 velocity=100 time=0
the msg is note_off channel=0 note=72 velocity=0 time=115
the msg is note_on channel=0 note=72 velocity=100 time=0
the msg is note_off channel=0 note=72 velocity=0 time=34
the msg is note_on channel=0 note=72 velocity=100 time=0
the msg is note_off channel=0 note=72 velocity=0 time=4
the msg is note_on channel=0 note=72 velocity=100 time=0
the msg is note_off channel=0 note=72 velocity=0 time=12
the msg is note_on channel=0 note=72 velocity=100 time=0
the msg is note_off channel=0 note=72 velocity=0 time=17
the msg is note_on channel=0 note=72 velocity=100 time=0
the msg is note_off channel=0 note=76 velocity=0 time=17
the msg is note_on channel=0 note=76 velocity=100 time=0
the msg is note_off channel=0 note=79 velocity=0 time=17
the msg is note_on channel=0 note=79 velocity=100 time=0
the msg is note_off channel=0 note=76 velocity=0 time=34
the msg is note_on channel=0 note=76 velocity=100 time=0
the msg is note_off channel=0 note=79 velocity=0 time=17
the msg is note_on channel=0 note=79 velocity=100 time=0
the msg is note_off channel=0 note=79 velocity=0 time=17
the msg is note_on channel=0 note=79 velocity=100 time=0
the msg is note_off channel=0 note=76 velocity=0 time=17
the msg is note_on channel=0 note=76 velocity=100 time=0
the msg is note_off channel=0 note=74 velocity=0 time=4
the msg is note_on channel=0 note=74 velocity=100 time=0
the msg is note_off channel=0 note=72 velocity=0 time=12
the msg is note_on channel=0 note=72 velocity=100 time=0
the msg is note_off channel=0 note=74 velocity=0 time=34
the msg is note_on channel=0 note=74 velocity=100 time=0
the msg is note_off channel=0 note=74 velocity=0 time=17
the msg is note_on channel=0 note=74 velocity=100 time=0
the msg is note_off channel=0 note=74 velocity=0 time=34
the msg is note_on channel=0 note=74 velocity=100 time=0
the msg is note_off channel=0 note=76 velocity=0 time=17
the msg is note_on channel=0 note=76 velocity=100 time=0
the msg is note_off channel=0 note=79 velocity=0 time=34
the msg is note_on channel=0 note=79 velocity=100 time=0
the msg is note_off channel=0 note=79 velocity=0 time=17
the msg is note_off channel=0 note=76 velocity=0 time=0
the msg is note_on channel=0 note=79 velocity=100 time=0
the msg is note_on channel=0 note=76 velocity=100 time=0
the msg is note_off channel=0 note=74 velocity=0 time=25
the msg is note_on channel=0 note=74 velocity=100 time=0
the msg is note_off channel=0 note=72 velocity=0 time=8
the msg is note_on channel=0 note=72 velocity=100 time=0
the msg is note_off channel=0 note=74 velocity=0 time=17
the msg is note_on channel=0 note=74 velocity=100 time=0
the msg is note_off channel=0 note=76 velocity=0 time=34
the msg is note_on channel=0 note=76 velocity=100 time=0
the msg is note_off channel=0 note=72 velocity=0 time=4
the msg is note_on channel=0 note=72 velocity=100 time=0
the msg is note_off channel=0 note=74 velocity=0 time=12
the msg is note_on channel=0 note=74 velocity=100 time=0
the msg is note_off channel=0 note=74 velocity=0 time=34
the msg is note_on channel=0 note=74 velocity=100 time=0
the msg is note_off channel=0 note=74 velocity=0 time=17
the msg is note_on channel=0 note=74 velocity=100 time=0
the msg is note_off channel=0 note=74 velocity=0 time=17
the msg is note_on channel=0 note=74 velocity=100 time=0
the msg is note_off channel=0 note=71 velocity=0 time=17
the msg is note_on channel=0 note=71 velocity=100 time=0
the msg is note_off channel=0 note=74 velocity=0 time=17
the msg is note_on channel=0 note=74 velocity=100 time=0
the msg is note_off channel=0 note=74 velocity=0 time=34
the msg is note_on channel=0 note=74 velocity=100 time=0
the msg is note_off channel=0 note=72 velocity=0 time=4
the msg is note_on channel=0 note=72 velocity=100 time=0
the msg is note_off channel=0 note=74 velocity=0 time=29
the msg is note_on channel=0 note=74 velocity=100 time=0
the msg is note_off channel=0 note=74 velocity=0 time=21
the msg is note_on channel=0 note=74 velocity=100 time=0
the msg is note_off channel=0 note=74 velocity=0 time=12
the msg is note_on channel=0 note=74 velocity=100 time=0
the msg is note_off channel=0 note=71 velocity=0 time=17
the msg is note_on channel=0 note=71 velocity=100 time=0
the msg is note_off channel=0 note=74 velocity=0 time=8
the msg is note_on channel=0 note=74 velocity=100 time=0
the msg is note_off channel=0 note=76 velocity=0 time=25
the msg is note_on channel=0 note=76 velocity=100 time=0
the msg is note_off channel=0 note=79 velocity=0 time=25
the msg is note_on channel=0 note=79 velocity=100 time=0
the msg is note_off channel=0 note=72 velocity=0 time=12
the msg is note_on channel=0 note=72 velocity=100 time=0
the msg is note_off channel=0 note=72 velocity=0 time=12
the msg is note_on channel=0 note=72 velocity=100 time=0
the msg is note_off channel=0 note=72 velocity=0 time=12
the msg is note_on channel=0 note=72 velocity=100 time=0
the msg is note_off channel=0 note=72 velocity=0 time=25
the msg is note_on channel=0 note=72 velocity=100 time=0
the msg is note_off channel=0 note=72 velocity=0 time=12
the msg is note_on channel=0 note=72 velocity=100 time=0
the msg is note_off channel=0 note=72 velocity=0 time=12
the msg is note_on channel=0 note=72 velocity=100 time=0
the msg is <meta message end_of_track time=51>
the msg is <meta message track_name name='Acoustic Guitar' time=0>
the msg is program_change channel=0 program=24 time=0
the msg is note_off channel=0 note=69 velocity=0 time=0
the msg is pitchwheel channel=0 pitch=0 time=0
the msg is program_change channel=0 program=24 time=0
the msg is <meta message set_tempo tempo=500000 time=0>
the msg is <meta message time_signature numerator=4 denominator=4 clocks_per_click=24 notated_32nd_notes_per_beat=8 time=0>
the msg is note_on channel=0 note=69 velocity=100 time=0
the msg is note_off channel=0 note=72 velocity=0 time=166
the msg is note_on channel=0 note=72 velocity=100 time=0
the msg is note_off channel=0 note=72 velocity=0 time=12
the msg is note_on channel=0 note=72 velocity=100 time=0
the msg is note_off channel=0 note=72 velocity=0 time=12
the msg is note_on channel=0 note=72 velocity=100 time=0
the msg is note_off channel=0 note=72 velocity=0 time=25
the msg is note_on channel=0 note=72 velocity=100 time=0
the msg is note_off channel=0 note=74 velocity=0 time=25
the msg is note_on channel=0 note=74 velocity=100 time=0
the msg is note_off channel=0 note=74 velocity=0 time=12
the msg is note_on channel=0 note=74 velocity=100 time=0
the msg is note_off channel=0 note=71 velocity=0 time=12
the msg is note_on channel=0 note=71 velocity=100 time=0
the msg is note_off channel=0 note=74 velocity=0 time=25
the msg is note_on channel=0 note=74 velocity=100 time=0
the msg is note_off channel=0 note=74 velocity=0 time=12
the msg is note_on channel=0 note=74 velocity=100 time=0
the msg is note_off channel=0 note=71 velocity=0 time=12
the msg is note_on channel=0 note=71 velocity=100 time=0
the msg is note_off channel=0 note=71 velocity=0 time=12
the msg is note_on channel=0 note=71 velocity=100 time=0
the msg is note_off channel=0 note=69 velocity=0 time=12
the msg is note_on channel=0 note=69 velocity=100 time=0
the msg is note_off channel=0 note=72 velocity=0 time=115
the msg is note_on channel=0 note=72 velocity=100 time=0
the msg is note_off channel=0 note=72 velocity=0 time=34
the msg is note_on channel=0 note=72 velocity=100 time=0
the msg is note_off channel=0 note=72 velocity=0 time=4
the msg is note_on channel=0 note=72 velocity=100 time=0
the msg is note_off channel=0 note=72 velocity=0 time=12
the msg is note_on channel=0 note=72 velocity=100 time=0
the msg is note_off channel=0 note=72 velocity=0 time=17
the msg is note_on channel=0 note=72 velocity=100 time=0
the msg is note_off channel=0 note=76 velocity=0 time=17
the msg is note_on channel=0 note=76 velocity=100 time=0
the msg is note_off channel=0 note=79 velocity=0 time=17
the msg is note_on channel=0 note=79 velocity=100 time=0
the msg is note_off channel=0 note=76 velocity=0 time=34
the msg is note_on channel=0 note=76 velocity=100 time=0
the msg is note_off channel=0 note=79 velocity=0 time=17
the msg is note_on channel=0 note=79 velocity=100 time=0
the msg is note_off channel=0 note=79 velocity=0 time=17
the msg is note_on channel=0 note=79 velocity=100 time=0
the msg is note_off channel=0 note=76 velocity=0 time=17
the msg is note_on channel=0 note=76 velocity=100 time=0
the msg is note_off channel=0 note=74 velocity=0 time=4
the msg is note_on channel=0 note=74 velocity=100 time=0
the msg is note_off channel=0 note=72 velocity=0 time=12
the msg is note_on channel=0 note=72 velocity=100 time=0
the msg is note_off channel=0 note=74 velocity=0 time=34
the msg is note_on channel=0 note=74 velocity=100 time=0
the msg is note_off channel=0 note=74 velocity=0 time=17
the msg is note_on channel=0 note=74 velocity=100 time=0
the msg is note_off channel=0 note=74 velocity=0 time=34
the msg is note_on channel=0 note=74 velocity=100 time=0
the msg is note_off channel=0 note=76 velocity=0 time=17
the msg is note_on channel=0 note=76 velocity=100 time=0
the msg is note_off channel=0 note=79 velocity=0 time=34
the msg is note_on channel=0 note=79 velocity=100 time=0
the msg is note_off channel=0 note=79 velocity=0 time=17
the msg is note_off channel=0 note=76 velocity=0 time=0
the msg is note_on channel=0 note=79 velocity=100 time=0
the msg is note_on channel=0 note=76 velocity=100 time=0
the msg is note_off channel=0 note=74 velocity=0 time=25
the msg is note_on channel=0 note=74 velocity=100 time=0
the msg is note_off channel=0 note=72 velocity=0 time=8
the msg is note_on channel=0 note=72 velocity=100 time=0
the msg is note_off channel=0 note=74 velocity=0 time=17
the msg is note_on channel=0 note=74 velocity=100 time=0
the msg is note_off channel=0 note=76 velocity=0 time=34
the msg is note_on channel=0 note=76 velocity=100 time=0
the msg is note_off channel=0 note=72 velocity=0 time=4
the msg is note_on channel=0 note=72 velocity=100 time=0
the msg is note_off channel=0 note=74 velocity=0 time=12
the msg is note_on channel=0 note=74 velocity=100 time=0
the msg is note_off channel=0 note=74 velocity=0 time=34
the msg is note_on channel=0 note=74 velocity=100 time=0
the msg is note_off channel=0 note=74 velocity=0 time=17
the msg is note_on channel=0 note=74 velocity=100 time=0
the msg is note_off channel=0 note=74 velocity=0 time=17
the msg is note_on channel=0 note=74 velocity=100 time=0
the msg is note_off channel=0 note=71 velocity=0 time=17
the msg is note_on channel=0 note=71 velocity=100 time=0
the msg is note_off channel=0 note=74 velocity=0 time=17
the msg is note_on channel=0 note=74 velocity=100 time=0
the msg is note_off channel=0 note=74 velocity=0 time=34
the msg is note_on channel=0 note=74 velocity=100 time=0
the msg is note_off channel=0 note=72 velocity=0 time=4
the msg is note_on channel=0 note=72 velocity=100 time=0
the msg is note_off channel=0 note=74 velocity=0 time=29
the msg is note_on channel=0 note=74 velocity=100 time=0
the msg is note_off channel=0 note=74 velocity=0 time=21
the msg is note_on channel=0 note=74 velocity=100 time=0
the msg is note_off channel=0 note=74 velocity=0 time=12
the msg is note_on channel=0 note=74 velocity=100 time=0
the msg is note_off channel=0 note=71 velocity=0 time=17
the msg is note_on channel=0 note=71 velocity=100 time=0
the msg is note_off channel=0 note=74 velocity=0 time=8
the msg is note_on channel=0 note=74 velocity=100 time=0
the msg is note_off channel=0 note=76 velocity=0 time=25
the msg is note_on channel=0 note=76 velocity=100 time=0
the msg is note_off channel=0 note=79 velocity=0 time=25
the msg is note_on channel=0 note=79 velocity=100 time=0
the msg is note_off channel=0 note=72 velocity=0 time=12
the msg is note_on channel=0 note=72 velocity=100 time=0
the msg is note_off channel=0 note=72 velocity=0 time=12
the msg is note_on channel=0 note=72 velocity=100 time=0
the msg is note_off channel=0 note=72 velocity=0 time=12
the msg is note_on channel=0 note=72 velocity=100 time=0
the msg is note_off channel=0 note=72 velocity=0 time=25
the msg is note_on channel=0 note=72 velocity=100 time=0
the msg is note_off channel=0 note=72 velocity=0 time=12
the msg is note_on channel=0 note=72 velocity=100 time=0
the msg is note_off channel=0 note=72 velocity=0 time=12
the msg is note_on channel=0 note=72 velocity=100 time=0
the msg is <meta message end_of_track time=51>
the msg is <meta message track_name name='Acoustic Guitar' time=0>
the msg is program_change channel=0 program=24 time=0
the msg is note_off channel=0 note=69 velocity=0 time=0
the msg is pitchwheel channel=0 pitch=0 time=0
the msg is program_change channel=0 program=24 time=0
the msg is <meta message set_tempo tempo=500000 time=0>
the msg is <meta message time_signature numerator=4 denominator=4 clocks_per_click=24 notated_32nd_notes_per_beat=8 time=0>
the msg is note_on channel=0 note=69 velocity=100 time=0
the msg is note_off channel=0 note=72 velocity=0 time=166
the msg is note_on channel=0 note=72 velocity=100 time=0
the msg is note_off channel=0 note=72 velocity=0 time=12
the msg is note_on channel=0 note=72 velocity=100 time=0
the msg is note_off channel=0 note=72 velocity=0 time=12
the msg is note_on channel=0 note=72 velocity=100 time=0
the msg is note_off channel=0 note=72 velocity=0 time=25
the msg is note_on channel=0 note=72 velocity=100 time=0
the msg is note_off channel=0 note=74 velocity=0 time=25
the msg is note_on channel=0 note=74 velocity=100 time=0
the msg is note_off channel=0 note=74 velocity=0 time=12
the msg is note_on channel=0 note=74 velocity=100 time=0
the msg is note_off channel=0 note=71 velocity=0 time=12
the msg is note_on channel=0 note=71 velocity=100 time=0
the msg is note_off channel=0 note=74 velocity=0 time=25
the msg is note_on channel=0 note=74 velocity=100 time=0
the msg is note_off channel=0 note=74 velocity=0 time=12
the msg is note_on channel=0 note=74 velocity=100 time=0
the msg is note_off channel=0 note=71 velocity=0 time=12
the msg is note_on channel=0 note=71 velocity=100 time=0
the msg is note_off channel=0 note=71 velocity=0 time=12
the msg is note_on channel=0 note=71 velocity=100 time=0
the msg is note_off channel=0 note=69 velocity=0 time=12
the msg is note_on channel=0 note=69 velocity=100 time=0
the msg is note_off channel=0 note=72 velocity=0 time=115
the msg is note_on channel=0 note=72 velocity=100 time=0
the msg is note_off channel=0 note=72 velocity=0 time=34
the msg is note_on channel=0 note=72 velocity=100 time=0
the msg is note_off channel=0 note=72 velocity=0 time=4
the msg is note_on channel=0 note=72 velocity=100 time=0
the msg is note_off channel=0 note=72 velocity=0 time=12
the msg is note_on channel=0 note=72 velocity=100 time=0
the msg is note_off channel=0 note=72 velocity=0 time=17
the msg is note_on channel=0 note=72 velocity=100 time=0
the msg is note_off channel=0 note=76 velocity=0 time=17
the msg is note_on channel=0 note=76 velocity=100 time=0
the msg is note_off channel=0 note=79 velocity=0 time=17
the msg is note_on channel=0 note=79 velocity=100 time=0
the msg is note_off channel=0 note=76 velocity=0 time=34
the msg is note_on channel=0 note=76 velocity=100 time=0
the msg is note_off channel=0 note=79 velocity=0 time=17
the msg is note_on channel=0 note=79 velocity=100 time=0
the msg is note_off channel=0 note=79 velocity=0 time=17
the msg is note_on channel=0 note=79 velocity=100 time=0
the msg is note_off channel=0 note=76 velocity=0 time=17
the msg is note_on channel=0 note=76 velocity=100 time=0
the msg is note_off channel=0 note=74 velocity=0 time=4
the msg is note_on channel=0 note=74 velocity=100 time=0
the msg is note_off channel=0 note=72 velocity=0 time=12
the msg is note_on channel=0 note=72 velocity=100 time=0
the msg is note_off channel=0 note=74 velocity=0 time=34
the msg is note_on channel=0 note=74 velocity=100 time=0
the msg is note_off channel=0 note=74 velocity=0 time=17
the msg is note_on channel=0 note=74 velocity=100 time=0
the msg is note_off channel=0 note=74 velocity=0 time=34
the msg is note_on channel=0 note=74 velocity=100 time=0
the msg is note_off channel=0 note=76 velocity=0 time=17
the msg is note_on channel=0 note=76 velocity=100 time=0
the msg is note_off channel=0 note=79 velocity=0 time=34
the msg is note_on channel=0 note=79 velocity=100 time=0
the msg is note_off channel=0 note=79 velocity=0 time=17
the msg is note_off channel=0 note=76 velocity=0 time=0
the msg is note_on channel=0 note=79 velocity=100 time=0
the msg is note_on channel=0 note=76 velocity=100 time=0
the msg is note_off channel=0 note=74 velocity=0 time=25
the msg is note_on channel=0 note=74 velocity=100 time=0
the msg is note_off channel=0 note=72 velocity=0 time=8
the msg is note_on channel=0 note=72 velocity=100 time=0
the msg is note_off channel=0 note=74 velocity=0 time=17
the msg is note_on channel=0 note=74 velocity=100 time=0
the msg is note_off channel=0 note=76 velocity=0 time=34
the msg is note_on channel=0 note=76 velocity=100 time=0
the msg is note_off channel=0 note=72 velocity=0 time=4
the msg is note_on channel=0 note=72 velocity=100 time=0
the msg is note_off channel=0 note=74 velocity=0 time=12
the msg is note_on channel=0 note=74 velocity=100 time=0
the msg is note_off channel=0 note=74 velocity=0 time=34
the msg is note_on channel=0 note=74 velocity=100 time=0
the msg is note_off channel=0 note=74 velocity=0 time=17
the msg is note_on channel=0 note=74 velocity=100 time=0
the msg is note_off channel=0 note=74 velocity=0 time=17
the msg is note_on channel=0 note=74 velocity=100 time=0
the msg is note_off channel=0 note=71 velocity=0 time=17
the msg is note_on channel=0 note=71 velocity=100 time=0
the msg is note_off channel=0 note=74 velocity=0 time=17
the msg is note_on channel=0 note=74 velocity=100 time=0
the msg is note_off channel=0 note=74 velocity=0 time=34
the msg is note_on channel=0 note=74 velocity=100 time=0
the msg is note_off channel=0 note=72 velocity=0 time=4
the msg is note_on channel=0 note=72 velocity=100 time=0
the msg is note_off channel=0 note=74 velocity=0 time=29
the msg is note_on channel=0 note=74 velocity=100 time=0
the msg is note_off channel=0 note=74 velocity=0 time=21
the msg is note_on channel=0 note=74 velocity=100 time=0
the msg is note_off channel=0 note=74 velocity=0 time=12
the msg is note_on channel=0 note=74 velocity=100 time=0
the msg is note_off channel=0 note=71 velocity=0 time=17
the msg is note_on channel=0 note=71 velocity=100 time=0
the msg is note_off channel=0 note=74 velocity=0 time=8
the msg is note_on channel=0 note=74 velocity=100 time=0
the msg is note_off channel=0 note=76 velocity=0 time=25
the msg is note_on channel=0 note=76 velocity=100 time=0
the msg is note_off channel=0 note=79 velocity=0 time=25
the msg is note_on channel=0 note=79 velocity=100 time=0
the msg is note_off channel=0 note=72 velocity=0 time=12
the msg is note_on channel=0 note=72 velocity=100 time=0
the msg is note_off channel=0 note=72 velocity=0 time=12
the msg is note_on channel=0 note=72 velocity=100 time=0
the msg is note_off channel=0 note=72 velocity=0 time=12
the msg is note_on channel=0 note=72 velocity=100 time=0
the msg is note_off channel=0 note=72 velocity=0 time=25
the msg is note_on channel=0 note=72 velocity=100 time=0
the msg is note_off channel=0 note=72 velocity=0 time=12
the msg is note_on channel=0 note=72 velocity=100 time=0
the msg is note_off channel=0 note=72 velocity=0 time=12
the msg is note_on channel=0 note=72 velocity=100 time=0
the msg is <meta message end_of_track time=51>
the msg is <meta message track_name name='Acoustic Guitar' time=0>
the msg is program_change channel=0 program=24 time=0
the msg is note_off channel=0 note=69 velocity=0 time=0
the msg is pitchwheel channel=0 pitch=0 time=0
the msg is program_change channel=0 program=24 time=0
the msg is <meta message set_tempo tempo=500000 time=0>
the msg is <meta message time_signature numerator=4 denominator=4 clocks_per_click=24 notated_32nd_notes_per_beat=8 time=0>
the msg is note_on channel=0 note=69 velocity=100 time=0
the msg is note_off channel=0 note=72 velocity=0 time=166
the msg is note_on channel=0 note=72 velocity=100 time=0
the msg is note_off channel=0 note=72 velocity=0 time=12
the msg is note_on channel=0 note=72 velocity=100 time=0
the msg is note_off channel=0 note=72 velocity=0 time=12
the msg is note_on channel=0 note=72 velocity=100 time=0
the msg is note_off channel=0 note=72 velocity=0 time=25
the msg is note_on channel=0 note=72 velocity=100 time=0
the msg is note_off channel=0 note=74 velocity=0 time=25
the msg is note_on channel=0 note=74 velocity=100 time=0
the msg is note_off channel=0 note=74 velocity=0 time=12
the msg is note_on channel=0 note=74 velocity=100 time=0
the msg is note_off channel=0 note=71 velocity=0 time=12
the msg is note_on channel=0 note=71 velocity=100 time=0
the msg is note_off channel=0 note=74 velocity=0 time=25
the msg is note_on channel=0 note=74 velocity=100 time=0
the msg is note_off channel=0 note=74 velocity=0 time=12
the msg is note_on channel=0 note=74 velocity=100 time=0
the msg is note_off channel=0 note=71 velocity=0 time=12
the msg is note_on channel=0 note=71 velocity=100 time=0
the msg is note_off channel=0 note=71 velocity=0 time=12
the msg is note_on channel=0 note=71 velocity=100 time=0
the msg is note_off channel=0 note=69 velocity=0 time=12
the msg is note_on channel=0 note=69 velocity=100 time=0
the msg is note_off channel=0 note=72 velocity=0 time=115
the msg is note_on channel=0 note=72 velocity=100 time=0
the msg is note_off channel=0 note=72 velocity=0 time=34
the msg is note_on channel=0 note=72 velocity=100 time=0
the msg is note_off channel=0 note=72 velocity=0 time=4
the msg is note_on channel=0 note=72 velocity=100 time=0
the msg is note_off channel=0 note=72 velocity=0 time=12
the msg is note_on channel=0 note=72 velocity=100 time=0
the msg is note_off channel=0 note=72 velocity=0 time=17
the msg is note_on channel=0 note=72 velocity=100 time=0
the msg is note_off channel=0 note=76 velocity=0 time=17
the msg is note_on channel=0 note=76 velocity=100 time=0
the msg is note_off channel=0 note=79 velocity=0 time=17
the msg is note_on channel=0 note=79 velocity=100 time=0
the msg is note_off channel=0 note=76 velocity=0 time=34
the msg is note_on channel=0 note=76 velocity=100 time=0
the msg is note_off channel=0 note=79 velocity=0 time=17
the msg is note_on channel=0 note=79 velocity=100 time=0
the msg is note_off channel=0 note=79 velocity=0 time=17
the msg is note_on channel=0 note=79 velocity=100 time=0
the msg is note_off channel=0 note=76 velocity=0 time=17
the msg is note_on channel=0 note=76 velocity=100 time=0
the msg is note_off channel=0 note=74 velocity=0 time=4
the msg is note_on channel=0 note=74 velocity=100 time=0
the msg is note_off channel=0 note=72 velocity=0 time=12
the msg is note_on channel=0 note=72 velocity=100 time=0
the msg is note_off channel=0 note=74 velocity=0 time=34
the msg is note_on channel=0 note=74 velocity=100 time=0
the msg is note_off channel=0 note=74 velocity=0 time=17
the msg is note_on channel=0 note=74 velocity=100 time=0
the msg is note_off channel=0 note=74 velocity=0 time=34
the msg is note_on channel=0 note=74 velocity=100 time=0
the msg is note_off channel=0 note=76 velocity=0 time=17
the msg is note_on channel=0 note=76 velocity=100 time=0
the msg is note_off channel=0 note=79 velocity=0 time=34
the msg is note_on channel=0 note=79 velocity=100 time=0
the msg is note_off channel=0 note=79 velocity=0 time=17
the msg is note_off channel=0 note=76 velocity=0 time=0
the msg is note_on channel=0 note=79 velocity=100 time=0
the msg is note_on channel=0 note=76 velocity=100 time=0
the msg is note_off channel=0 note=74 velocity=0 time=25
the msg is note_on channel=0 note=74 velocity=100 time=0
the msg is note_off channel=0 note=72 velocity=0 time=8
the msg is note_on channel=0 note=72 velocity=100 time=0
the msg is note_off channel=0 note=74 velocity=0 time=17
the msg is note_on channel=0 note=74 velocity=100 time=0
the msg is note_off channel=0 note=76 velocity=0 time=34
the msg is note_on channel=0 note=76 velocity=100 time=0
the msg is note_off channel=0 note=72 velocity=0 time=4
the msg is note_on channel=0 note=72 velocity=100 time=0
the msg is note_off channel=0 note=74 velocity=0 time=12
the msg is note_on channel=0 note=74 velocity=100 time=0
the msg is note_off channel=0 note=74 velocity=0 time=34
the msg is note_on channel=0 note=74 velocity=100 time=0
the msg is note_off channel=0 note=74 velocity=0 time=17
the msg is note_on channel=0 note=74 velocity=100 time=0
the msg is note_off channel=0 note=74 velocity=0 time=17
the msg is note_on channel=0 note=74 velocity=100 time=0
the msg is note_off channel=0 note=71 velocity=0 time=17
the msg is note_on channel=0 note=71 velocity=100 time=0
the msg is note_off channel=0 note=74 velocity=0 time=17
the msg is note_on channel=0 note=74 velocity=100 time=0
the msg is note_off channel=0 note=74 velocity=0 time=34
the msg is note_on channel=0 note=74 velocity=100 time=0
the msg is note_off channel=0 note=72 velocity=0 time=4
the msg is note_on channel=0 note=72 velocity=100 time=0
the msg is note_off channel=0 note=74 velocity=0 time=29
the msg is note_on channel=0 note=74 velocity=100 time=0
the msg is note_off channel=0 note=74 velocity=0 time=21
the msg is note_on channel=0 note=74 velocity=100 time=0
the msg is note_off channel=0 note=74 velocity=0 time=12
the msg is note_on channel=0 note=74 velocity=100 time=0
the msg is note_off channel=0 note=71 velocity=0 time=17
the msg is note_on channel=0 note=71 velocity=100 time=0
the msg is note_off channel=0 note=74 velocity=0 time=8
the msg is note_on channel=0 note=74 velocity=100 time=0
the msg is note_off channel=0 note=76 velocity=0 time=25
the msg is note_on channel=0 note=76 velocity=100 time=0
the msg is note_off channel=0 note=79 velocity=0 time=25
the msg is note_on channel=0 note=79 velocity=100 time=0
the msg is note_off channel=0 note=72 velocity=0 time=12
the msg is note_on channel=0 note=72 velocity=100 time=0
the msg is note_off channel=0 note=72 velocity=0 time=12
the msg is note_on channel=0 note=72 velocity=100 time=0
the msg is note_off channel=0 note=72 velocity=0 time=12
the msg is note_on channel=0 note=72 velocity=100 time=0
the msg is note_off channel=0 note=72 velocity=0 time=25
the msg is note_on channel=0 note=72 velocity=100 time=0
the msg is note_off channel=0 note=72 velocity=0 time=12
the msg is note_on channel=0 note=72 velocity=100 time=0
the msg is note_off channel=0 note=72 velocity=0 time=12
the msg is note_on channel=0 note=72 velocity=100 time=0
the msg is <meta message end_of_track time=51>
the msg is <meta message track_name name='Acoustic Guitar' time=0>
the msg is program_change channel=0 program=24 time=0
the msg is note_off channel=0 note=69 velocity=0 time=0
the msg is pitchwheel channel=0 pitch=0 time=0
the msg is program_change channel=0 program=24 time=0
the msg is <meta message set_tempo tempo=500000 time=0>
the msg is <meta message time_signature numerator=4 denominator=4 clocks_per_click=24 notated_32nd_notes_per_beat=8 time=0>
the msg is note_on channel=0 note=69 velocity=100 time=0
the msg is note_off channel=0 note=72 velocity=0 time=166
the msg is note_on channel=0 note=72 velocity=100 time=0
the msg is note_off channel=0 note=72 velocity=0 time=12
the msg is note_on channel=0 note=72 velocity=100 time=0
the msg is note_off channel=0 note=72 velocity=0 time=12
the msg is note_on channel=0 note=72 velocity=100 time=0
the msg is note_off channel=0 note=72 velocity=0 time=25
the msg is note_on channel=0 note=72 velocity=100 time=0
the msg is note_off channel=0 note=74 velocity=0 time=25
the msg is note_on channel=0 note=74 velocity=100 time=0
the msg is note_off channel=0 note=74 velocity=0 time=12
the msg is note_on channel=0 note=74 velocity=100 time=0
the msg is note_off channel=0 note=71 velocity=0 time=12
the msg is note_on channel=0 note=71 velocity=100 time=0
the msg is note_off channel=0 note=74 velocity=0 time=25
the msg is note_on channel=0 note=74 velocity=100 time=0
the msg is note_off channel=0 note=74 velocity=0 time=12
the msg is note_on channel=0 note=74 velocity=100 time=0
the msg is note_off channel=0 note=71 velocity=0 time=12
the msg is note_on channel=0 note=71 velocity=100 time=0
the msg is note_off channel=0 note=71 velocity=0 time=12
the msg is note_on channel=0 note=71 velocity=100 time=0
the msg is note_off channel=0 note=69 velocity=0 time=12
the msg is note_on channel=0 note=69 velocity=100 time=0
the msg is note_off channel=0 note=72 velocity=0 time=115
the msg is note_on channel=0 note=72 velocity=100 time=0
the msg is note_off channel=0 note=72 velocity=0 time=34
the msg is note_on channel=0 note=72 velocity=100 time=0
the msg is note_off channel=0 note=72 velocity=0 time=4
the msg is note_on channel=0 note=72 velocity=100 time=0
the msg is note_off channel=0 note=72 velocity=0 time=12
the msg is note_on channel=0 note=72 velocity=100 time=0
the msg is note_off channel=0 note=72 velocity=0 time=17
the msg is note_on channel=0 note=72 velocity=100 time=0
the msg is note_off channel=0 note=76 velocity=0 time=17
the msg is note_on channel=0 note=76 velocity=100 time=0
the msg is note_off channel=0 note=79 velocity=0 time=17
the msg is note_on channel=0 note=79 velocity=100 time=0
the msg is note_off channel=0 note=76 velocity=0 time=34
the msg is note_on channel=0 note=76 velocity=100 time=0
the msg is note_off channel=0 note=79 velocity=0 time=17
the msg is note_on channel=0 note=79 velocity=100 time=0
the msg is note_off channel=0 note=79 velocity=0 time=17
the msg is note_on channel=0 note=79 velocity=100 time=0
the msg is note_off channel=0 note=76 velocity=0 time=17
the msg is note_on channel=0 note=76 velocity=100 time=0
the msg is note_off channel=0 note=74 velocity=0 time=4
the msg is note_on channel=0 note=74 velocity=100 time=0
the msg is note_off channel=0 note=72 velocity=0 time=12
the msg is note_on channel=0 note=72 velocity=100 time=0
the msg is note_off channel=0 note=74 velocity=0 time=34
the msg is note_on channel=0 note=74 velocity=100 time=0
the msg is note_off channel=0 note=74 velocity=0 time=17
the msg is note_on channel=0 note=74 velocity=100 time=0
the msg is note_off channel=0 note=74 velocity=0 time=34
the msg is note_on channel=0 note=74 velocity=100 time=0
the msg is note_off channel=0 note=76 velocity=0 time=17
the msg is note_on channel=0 note=76 velocity=100 time=0
the msg is note_off channel=0 note=79 velocity=0 time=34
the msg is note_on channel=0 note=79 velocity=100 time=0
the msg is note_off channel=0 note=79 velocity=0 time=17
the msg is note_off channel=0 note=76 velocity=0 time=0
the msg is note_on channel=0 note=79 velocity=100 time=0
the msg is note_on channel=0 note=76 velocity=100 time=0
the msg is note_off channel=0 note=74 velocity=0 time=25
the msg is note_on channel=0 note=74 velocity=100 time=0
the msg is note_off channel=0 note=72 velocity=0 time=8
the msg is note_on channel=0 note=72 velocity=100 time=0
the msg is note_off channel=0 note=74 velocity=0 time=17
the msg is note_on channel=0 note=74 velocity=100 time=0
the msg is note_off channel=0 note=76 velocity=0 time=34
the msg is note_on channel=0 note=76 velocity=100 time=0
the msg is note_off channel=0 note=72 velocity=0 time=4
the msg is note_on channel=0 note=72 velocity=100 time=0
the msg is note_off channel=0 note=74 velocity=0 time=12
the msg is note_on channel=0 note=74 velocity=100 time=0
the msg is note_off channel=0 note=74 velocity=0 time=34
the msg is note_on channel=0 note=74 velocity=100 time=0
the msg is note_off channel=0 note=74 velocity=0 time=17
the msg is note_on channel=0 note=74 velocity=100 time=0
the msg is note_off channel=0 note=74 velocity=0 time=17
the msg is note_on channel=0 note=74 velocity=100 time=0
the msg is note_off channel=0 note=71 velocity=0 time=17
the msg is note_on channel=0 note=71 velocity=100 time=0
the msg is note_off channel=0 note=74 velocity=0 time=17
the msg is note_on channel=0 note=74 velocity=100 time=0
the msg is note_off channel=0 note=74 velocity=0 time=34
the msg is note_on channel=0 note=74 velocity=100 time=0
the msg is note_off channel=0 note=72 velocity=0 time=4
the msg is note_on channel=0 note=72 velocity=100 time=0
the msg is note_off channel=0 note=74 velocity=0 time=29
the msg is note_on channel=0 note=74 velocity=100 time=0
the msg is note_off channel=0 note=74 velocity=0 time=21
the msg is note_on channel=0 note=74 velocity=100 time=0
the msg is note_off channel=0 note=74 velocity=0 time=12
the msg is note_on channel=0 note=74 velocity=100 time=0
the msg is note_off channel=0 note=71 velocity=0 time=17
the msg is note_on channel=0 note=71 velocity=100 time=0
the msg is note_off channel=0 note=74 velocity=0 time=8
the msg is note_on channel=0 note=74 velocity=100 time=0
the msg is note_off channel=0 note=76 velocity=0 time=25
the msg is note_on channel=0 note=76 velocity=100 time=0
the msg is note_off channel=0 note=79 velocity=0 time=25
the msg is note_on channel=0 note=79 velocity=100 time=0
the msg is note_off channel=0 note=72 velocity=0 time=12
the msg is note_on channel=0 note=72 velocity=100 time=0
the msg is note_off channel=0 note=72 velocity=0 time=12
the msg is note_on channel=0 note=72 velocity=100 time=0
the msg is note_off channel=0 note=72 velocity=0 time=12
the msg is note_on channel=0 note=72 velocity=100 time=0
the msg is note_off channel=0 note=72 velocity=0 time=25
the msg is note_on channel=0 note=72 velocity=100 time=0
the msg is note_off channel=0 note=72 velocity=0 time=12
the msg is note_on channel=0 note=72 velocity=100 time=0
the msg is note_off channel=0 note=72 velocity=0 time=12
the msg is note_on channel=0 note=72 velocity=100 time=0
the msg is <meta message end_of_track time=51>
the msg is <meta message track_name name='Acoustic Guitar' time=0>
the msg is program_change channel=0 program=24 time=0
the msg is note_off channel=0 note=69 velocity=0 time=0
the msg is pitchwheel channel=0 pitch=0 time=0
the msg is program_change channel=0 program=24 time=0
the msg is <meta message set_tempo tempo=500000 time=0>
the msg is <meta message time_signature numerator=4 denominator=4 clocks_per_click=24 notated_32nd_notes_per_beat=8 time=0>
the msg is note_on channel=0 note=69 velocity=100 time=0
the msg is note_off channel=0 note=72 velocity=0 time=166
the msg is note_on channel=0 note=72 velocity=100 time=0
the msg is note_off channel=0 note=72 velocity=0 time=12
the msg is note_on channel=0 note=72 velocity=100 time=0
the msg is note_off channel=0 note=72 velocity=0 time=12
the msg is note_on channel=0 note=72 velocity=100 time=0
the msg is note_off channel=0 note=72 velocity=0 time=25
the msg is note_on channel=0 note=72 velocity=100 time=0
the msg is note_off channel=0 note=74 velocity=0 time=25
the msg is note_on channel=0 note=74 velocity=100 time=0
the msg is note_off channel=0 note=74 velocity=0 time=12
the msg is note_on channel=0 note=74 velocity=100 time=0
the msg is note_off channel=0 note=71 velocity=0 time=12
the msg is note_on channel=0 note=71 velocity=100 time=0
the msg is note_off channel=0 note=74 velocity=0 time=25
the msg is note_on channel=0 note=74 velocity=100 time=0
the msg is note_off channel=0 note=74 velocity=0 time=12
the msg is note_on channel=0 note=74 velocity=100 time=0
the msg is note_off channel=0 note=71 velocity=0 time=12
the msg is note_on channel=0 note=71 velocity=100 time=0
the msg is note_off channel=0 note=71 velocity=0 time=12
the msg is note_on channel=0 note=71 velocity=100 time=0
the msg is note_off channel=0 note=69 velocity=0 time=12
the msg is note_on channel=0 note=69 velocity=100 time=0
the msg is note_off channel=0 note=72 velocity=0 time=115
the msg is note_on channel=0 note=72 velocity=100 time=0
the msg is note_off channel=0 note=72 velocity=0 time=34
the msg is note_on channel=0 note=72 velocity=100 time=0
the msg is note_off channel=0 note=72 velocity=0 time=4
the msg is note_on channel=0 note=72 velocity=100 time=0
the msg is note_off channel=0 note=72 velocity=0 time=12
the msg is note_on channel=0 note=72 velocity=100 time=0
the msg is note_off channel=0 note=72 velocity=0 time=17
the msg is note_on channel=0 note=72 velocity=100 time=0
the msg is note_off channel=0 note=76 velocity=0 time=17
the msg is note_on channel=0 note=76 velocity=100 time=0
the msg is note_off channel=0 note=79 velocity=0 time=17
the msg is note_on channel=0 note=79 velocity=100 time=0
the msg is note_off channel=0 note=76 velocity=0 time=34
the msg is note_on channel=0 note=76 velocity=100 time=0
the msg is note_off channel=0 note=79 velocity=0 time=17
the msg is note_on channel=0 note=79 velocity=100 time=0
the msg is note_off channel=0 note=79 velocity=0 time=17
the msg is note_on channel=0 note=79 velocity=100 time=0
the msg is note_off channel=0 note=76 velocity=0 time=17
the msg is note_on channel=0 note=76 velocity=100 time=0
the msg is note_off channel=0 note=74 velocity=0 time=4
the msg is note_on channel=0 note=74 velocity=100 time=0
the msg is note_off channel=0 note=72 velocity=0 time=12
the msg is note_on channel=0 note=72 velocity=100 time=0
the msg is note_off channel=0 note=74 velocity=0 time=34
the msg is note_on channel=0 note=74 velocity=100 time=0
the msg is note_off channel=0 note=74 velocity=0 time=17
the msg is note_on channel=0 note=74 velocity=100 time=0
the msg is note_off channel=0 note=74 velocity=0 time=34
the msg is note_on channel=0 note=74 velocity=100 time=0
the msg is note_off channel=0 note=76 velocity=0 time=17
the msg is note_on channel=0 note=76 velocity=100 time=0
the msg is note_off channel=0 note=79 velocity=0 time=34
the msg is note_on channel=0 note=79 velocity=100 time=0
the msg is note_off channel=0 note=79 velocity=0 time=17
the msg is note_off channel=0 note=76 velocity=0 time=0
the msg is note_on channel=0 note=79 velocity=100 time=0
the msg is note_on channel=0 note=76 velocity=100 time=0
the msg is note_off channel=0 note=74 velocity=0 time=25
the msg is note_on channel=0 note=74 velocity=100 time=0
the msg is note_off channel=0 note=72 velocity=0 time=8
the msg is note_on channel=0 note=72 velocity=100 time=0
the msg is note_off channel=0 note=74 velocity=0 time=17
the msg is note_on channel=0 note=74 velocity=100 time=0
the msg is note_off channel=0 note=76 velocity=0 time=34
the msg is note_on channel=0 note=76 velocity=100 time=0
the msg is note_off channel=0 note=72 velocity=0 time=4
the msg is note_on channel=0 note=72 velocity=100 time=0
the msg is note_off channel=0 note=74 velocity=0 time=12
the msg is note_on channel=0 note=74 velocity=100 time=0
the msg is note_off channel=0 note=74 velocity=0 time=34
the msg is note_on channel=0 note=74 velocity=100 time=0
the msg is note_off channel=0 note=74 velocity=0 time=17
the msg is note_on channel=0 note=74 velocity=100 time=0
the msg is note_off channel=0 note=74 velocity=0 time=17
the msg is note_on channel=0 note=74 velocity=100 time=0
the msg is note_off channel=0 note=71 velocity=0 time=17
the msg is note_on channel=0 note=71 velocity=100 time=0
the msg is note_off channel=0 note=74 velocity=0 time=17
the msg is note_on channel=0 note=74 velocity=100 time=0
the msg is note_off channel=0 note=74 velocity=0 time=34
the msg is note_on channel=0 note=74 velocity=100 time=0
the msg is note_off channel=0 note=72 velocity=0 time=4
the msg is note_on channel=0 note=72 velocity=100 time=0
the msg is note_off channel=0 note=74 velocity=0 time=29
the msg is note_on channel=0 note=74 velocity=100 time=0
the msg is note_off channel=0 note=74 velocity=0 time=21
the msg is note_on channel=0 note=74 velocity=100 time=0
the msg is note_off channel=0 note=74 velocity=0 time=12
the msg is note_on channel=0 note=74 velocity=100 time=0
the msg is note_off channel=0 note=71 velocity=0 time=17
the msg is note_on channel=0 note=71 velocity=100 time=0
the msg is note_off channel=0 note=74 velocity=0 time=8
the msg is note_on channel=0 note=74 velocity=100 time=0
the msg is note_off channel=0 note=76 velocity=0 time=25
the msg is note_on channel=0 note=76 velocity=100 time=0
the msg is note_off channel=0 note=79 velocity=0 time=25
the msg is note_on channel=0 note=79 velocity=100 time=0
the msg is note_off channel=0 note=72 velocity=0 time=12
the msg is note_on channel=0 note=72 velocity=100 time=0
the msg is note_off channel=0 note=72 velocity=0 time=12
the msg is note_on channel=0 note=72 velocity=100 time=0
the msg is note_off channel=0 note=72 velocity=0 time=12
the msg is note_on channel=0 note=72 velocity=100 time=0
the msg is note_off channel=0 note=72 velocity=0 time=25
the msg is note_on channel=0 note=72 velocity=100 time=0
the msg is note_off channel=0 note=72 velocity=0 time=12
the msg is note_on channel=0 note=72 velocity=100 time=0
the msg is note_off channel=0 note=72 velocity=0 time=12
the msg is note_on channel=0 note=72 velocity=100 time=0
the msg is <meta message end_of_track time=51>
the msg is <meta message track_name name='Acoustic Guitar' time=0>
the msg is program_change channel=0 program=24 time=0
the msg is note_off channel=0 note=69 velocity=0 time=0
the msg is pitchwheel channel=0 pitch=0 time=0
the msg is program_change channel=0 program=24 time=0
the msg is <meta message set_tempo tempo=500000 time=0>
the msg is <meta message time_signature numerator=4 denominator=4 clocks_per_click=24 notated_32nd_notes_per_beat=8 time=0>
the msg is note_on channel=0 note=69 velocity=100 time=0
the msg is note_off channel=0 note=72 velocity=0 time=166
the msg is note_on channel=0 note=72 velocity=100 time=0
the msg is note_off channel=0 note=72 velocity=0 time=12
the msg is note_on channel=0 note=72 velocity=100 time=0
the msg is note_off channel=0 note=72 velocity=0 time=12
the msg is note_on channel=0 note=72 velocity=100 time=0
the msg is note_off channel=0 note=72 velocity=0 time=25
the msg is note_on channel=0 note=72 velocity=100 time=0
the msg is note_off channel=0 note=74 velocity=0 time=25
the msg is note_on channel=0 note=74 velocity=100 time=0
the msg is note_off channel=0 note=74 velocity=0 time=12
the msg is note_on channel=0 note=74 velocity=100 time=0
the msg is note_off channel=0 note=71 velocity=0 time=12
the msg is note_on channel=0 note=71 velocity=100 time=0
the msg is note_off channel=0 note=74 velocity=0 time=25
the msg is note_on channel=0 note=74 velocity=100 time=0
the msg is note_off channel=0 note=74 velocity=0 time=12
the msg is note_on channel=0 note=74 velocity=100 time=0
the msg is note_off channel=0 note=71 velocity=0 time=12
the msg is note_on channel=0 note=71 velocity=100 time=0
the msg is note_off channel=0 note=71 velocity=0 time=12
the msg is note_on channel=0 note=71 velocity=100 time=0
the msg is note_off channel=0 note=69 velocity=0 time=12
the msg is note_on channel=0 note=69 velocity=100 time=0
the msg is note_off channel=0 note=72 velocity=0 time=115
the msg is note_on channel=0 note=72 velocity=100 time=0
the msg is note_off channel=0 note=72 velocity=0 time=34
the msg is note_on channel=0 note=72 velocity=100 time=0
the msg is note_off channel=0 note=72 velocity=0 time=4
the msg is note_on channel=0 note=72 velocity=100 time=0
the msg is note_off channel=0 note=72 velocity=0 time=12
the msg is note_on channel=0 note=72 velocity=100 time=0
the msg is note_off channel=0 note=72 velocity=0 time=17
the msg is note_on channel=0 note=72 velocity=100 time=0
the msg is note_off channel=0 note=76 velocity=0 time=17
the msg is note_on channel=0 note=76 velocity=100 time=0
the msg is note_off channel=0 note=79 velocity=0 time=17
the msg is note_on channel=0 note=79 velocity=100 time=0
the msg is note_off channel=0 note=76 velocity=0 time=34
the msg is note_on channel=0 note=76 velocity=100 time=0
the msg is note_off channel=0 note=79 velocity=0 time=17
the msg is note_on channel=0 note=79 velocity=100 time=0
the msg is note_off channel=0 note=79 velocity=0 time=17
the msg is note_on channel=0 note=79 velocity=100 time=0
the msg is note_off channel=0 note=76 velocity=0 time=17
the msg is note_on channel=0 note=76 velocity=100 time=0
the msg is note_off channel=0 note=74 velocity=0 time=4
the msg is note_on channel=0 note=74 velocity=100 time=0
the msg is note_off channel=0 note=72 velocity=0 time=12
the msg is note_on channel=0 note=72 velocity=100 time=0
the msg is note_off channel=0 note=74 velocity=0 time=34
the msg is note_on channel=0 note=74 velocity=100 time=0
the msg is note_off channel=0 note=74 velocity=0 time=17
the msg is note_on channel=0 note=74 velocity=100 time=0
the msg is note_off channel=0 note=74 velocity=0 time=34
the msg is note_on channel=0 note=74 velocity=100 time=0
the msg is note_off channel=0 note=76 velocity=0 time=17
the msg is note_on channel=0 note=76 velocity=100 time=0
the msg is note_off channel=0 note=79 velocity=0 time=34
the msg is note_on channel=0 note=79 velocity=100 time=0
the msg is note_off channel=0 note=79 velocity=0 time=17
the msg is note_off channel=0 note=76 velocity=0 time=0
the msg is note_on channel=0 note=79 velocity=100 time=0
the msg is note_on channel=0 note=76 velocity=100 time=0
the msg is note_off channel=0 note=74 velocity=0 time=25
the msg is note_on channel=0 note=74 velocity=100 time=0
the msg is note_off channel=0 note=72 velocity=0 time=8
the msg is note_on channel=0 note=72 velocity=100 time=0
the msg is note_off channel=0 note=74 velocity=0 time=17
the msg is note_on channel=0 note=74 velocity=100 time=0
the msg is note_off channel=0 note=76 velocity=0 time=34
the msg is note_on channel=0 note=76 velocity=100 time=0
the msg is note_off channel=0 note=72 velocity=0 time=4
the msg is note_on channel=0 note=72 velocity=100 time=0
the msg is note_off channel=0 note=74 velocity=0 time=12
the msg is note_on channel=0 note=74 velocity=100 time=0
the msg is note_off channel=0 note=74 velocity=0 time=34
the msg is note_on channel=0 note=74 velocity=100 time=0
the msg is note_off channel=0 note=74 velocity=0 time=17
the msg is note_on channel=0 note=74 velocity=100 time=0
the msg is note_off channel=0 note=74 velocity=0 time=17
the msg is note_on channel=0 note=74 velocity=100 time=0
the msg is note_off channel=0 note=71 velocity=0 time=17
the msg is note_on channel=0 note=71 velocity=100 time=0
the msg is note_off channel=0 note=74 velocity=0 time=17
the msg is note_on channel=0 note=74 velocity=100 time=0
the msg is note_off channel=0 note=74 velocity=0 time=34
the msg is note_on channel=0 note=74 velocity=100 time=0
the msg is note_off channel=0 note=72 velocity=0 time=4
the msg is note_on channel=0 note=72 velocity=100 time=0
the msg is note_off channel=0 note=74 velocity=0 time=29
the msg is note_on channel=0 note=74 velocity=100 time=0
the msg is note_off channel=0 note=74 velocity=0 time=21
the msg is note_on channel=0 note=74 velocity=100 time=0
the msg is note_off channel=0 note=74 velocity=0 time=12
the msg is note_on channel=0 note=74 velocity=100 time=0
the msg is note_off channel=0 note=71 velocity=0 time=17
the msg is note_on channel=0 note=71 velocity=100 time=0
the msg is note_off channel=0 note=74 velocity=0 time=8
the msg is note_on channel=0 note=74 velocity=100 time=0
the msg is note_off channel=0 note=76 velocity=0 time=25
the msg is note_on channel=0 note=76 velocity=100 time=0
the msg is note_off channel=0 note=79 velocity=0 time=25
the msg is note_on channel=0 note=79 velocity=100 time=0
the msg is note_off channel=0 note=72 velocity=0 time=12
the msg is note_on channel=0 note=72 velocity=100 time=0
the msg is note_off channel=0 note=72 velocity=0 time=12
the msg is note_on channel=0 note=72 velocity=100 time=0
the msg is note_off channel=0 note=72 velocity=0 time=12
the msg is note_on channel=0 note=72 velocity=100 time=0
the msg is note_off channel=0 note=72 velocity=0 time=25
the msg is note_on channel=0 note=72 velocity=100 time=0
the msg is note_off channel=0 note=72 velocity=0 time=12
the msg is note_on channel=0 note=72 velocity=100 time=0
the msg is note_off channel=0 note=72 velocity=0 time=12
the msg is note_on channel=0 note=72 velocity=100 time=0
the msg is <meta message end_of_track time=51>
the msg is <meta message track_name name='Acoustic Guitar' time=0>
the msg is program_change channel=0 program=24 time=0
the msg is note_off channel=0 note=69 velocity=0 time=0
the msg is pitchwheel channel=0 pitch=0 time=0
the msg is program_change channel=0 program=24 time=0
the msg is <meta message set_tempo tempo=500000 time=0>
the msg is <meta message time_signature numerator=4 denominator=4 clocks_per_click=24 notated_32nd_notes_per_beat=8 time=0>
the msg is note_on channel=0 note=69 velocity=100 time=0
the msg is note_off channel=0 note=72 velocity=0 time=166
the msg is note_on channel=0 note=72 velocity=100 time=0
the msg is note_off channel=0 note=72 velocity=0 time=12
the msg is note_on channel=0 note=72 velocity=100 time=0
the msg is note_off channel=0 note=72 velocity=0 time=12
the msg is note_on channel=0 note=72 velocity=100 time=0
the msg is note_off channel=0 note=72 velocity=0 time=25
the msg is note_on channel=0 note=72 velocity=100 time=0
the msg is note_off channel=0 note=74 velocity=0 time=25
the msg is note_on channel=0 note=74 velocity=100 time=0
the msg is note_off channel=0 note=74 velocity=0 time=12
the msg is note_on channel=0 note=74 velocity=100 time=0
the msg is note_off channel=0 note=71 velocity=0 time=12
the msg is note_on channel=0 note=71 velocity=100 time=0
the msg is note_off channel=0 note=74 velocity=0 time=25
the msg is note_on channel=0 note=74 velocity=100 time=0
the msg is note_off channel=0 note=74 velocity=0 time=12
the msg is note_on channel=0 note=74 velocity=100 time=0
the msg is note_off channel=0 note=71 velocity=0 time=12
the msg is note_on channel=0 note=71 velocity=100 time=0
the msg is note_off channel=0 note=71 velocity=0 time=12
the msg is note_on channel=0 note=71 velocity=100 time=0
the msg is note_off channel=0 note=69 velocity=0 time=12
the msg is note_on channel=0 note=69 velocity=100 time=0
the msg is note_off channel=0 note=72 velocity=0 time=115
the msg is note_on channel=0 note=72 velocity=100 time=0
the msg is note_off channel=0 note=72 velocity=0 time=34
the msg is note_on channel=0 note=72 velocity=100 time=0
the msg is note_off channel=0 note=72 velocity=0 time=4
the msg is note_on channel=0 note=72 velocity=100 time=0
the msg is note_off channel=0 note=72 velocity=0 time=12
the msg is note_on channel=0 note=72 velocity=100 time=0
the msg is note_off channel=0 note=72 velocity=0 time=17
the msg is note_on channel=0 note=72 velocity=100 time=0
the msg is note_off channel=0 note=76 velocity=0 time=17
the msg is note_on channel=0 note=76 velocity=100 time=0
the msg is note_off channel=0 note=79 velocity=0 time=17
the msg is note_on channel=0 note=79 velocity=100 time=0
the msg is note_off channel=0 note=76 velocity=0 time=34
the msg is note_on channel=0 note=76 velocity=100 time=0
the msg is note_off channel=0 note=79 velocity=0 time=17
the msg is note_on channel=0 note=79 velocity=100 time=0
the msg is note_off channel=0 note=79 velocity=0 time=17
the msg is note_on channel=0 note=79 velocity=100 time=0
the msg is note_off channel=0 note=76 velocity=0 time=17
the msg is note_on channel=0 note=76 velocity=100 time=0
the msg is note_off channel=0 note=74 velocity=0 time=4
the msg is note_on channel=0 note=74 velocity=100 time=0
the msg is note_off channel=0 note=72 velocity=0 time=12
the msg is note_on channel=0 note=72 velocity=100 time=0
the msg is note_off channel=0 note=74 velocity=0 time=34
the msg is note_on channel=0 note=74 velocity=100 time=0
the msg is note_off channel=0 note=74 velocity=0 time=17
the msg is note_on channel=0 note=74 velocity=100 time=0
the msg is note_off channel=0 note=74 velocity=0 time=34
the msg is note_on channel=0 note=74 velocity=100 time=0
the msg is note_off channel=0 note=76 velocity=0 time=17
the msg is note_on channel=0 note=76 velocity=100 time=0
the msg is note_off channel=0 note=79 velocity=0 time=34
the msg is note_on channel=0 note=79 velocity=100 time=0
the msg is note_off channel=0 note=79 velocity=0 time=17
the msg is note_off channel=0 note=76 velocity=0 time=0
the msg is note_on channel=0 note=79 velocity=100 time=0
the msg is note_on channel=0 note=76 velocity=100 time=0
the msg is note_off channel=0 note=74 velocity=0 time=25
the msg is note_on channel=0 note=74 velocity=100 time=0
the msg is note_off channel=0 note=72 velocity=0 time=8
the msg is note_on channel=0 note=72 velocity=100 time=0
the msg is note_off channel=0 note=74 velocity=0 time=17
the msg is note_on channel=0 note=74 velocity=100 time=0
the msg is note_off channel=0 note=76 velocity=0 time=34
the msg is note_on channel=0 note=76 velocity=100 time=0
the msg is note_off channel=0 note=72 velocity=0 time=4
the msg is note_on channel=0 note=72 velocity=100 time=0
the msg is note_off channel=0 note=74 velocity=0 time=12
the msg is note_on channel=0 note=74 velocity=100 time=0
the msg is note_off channel=0 note=74 velocity=0 time=34
the msg is note_on channel=0 note=74 velocity=100 time=0
the msg is note_off channel=0 note=74 velocity=0 time=17
the msg is note_on channel=0 note=74 velocity=100 time=0
the msg is note_off channel=0 note=74 velocity=0 time=17
the msg is note_on channel=0 note=74 velocity=100 time=0
the msg is note_off channel=0 note=71 velocity=0 time=17
the msg is note_on channel=0 note=71 velocity=100 time=0
the msg is note_off channel=0 note=74 velocity=0 time=17
the msg is note_on channel=0 note=74 velocity=100 time=0
the msg is note_off channel=0 note=74 velocity=0 time=34
the msg is note_on channel=0 note=74 velocity=100 time=0
the msg is note_off channel=0 note=72 velocity=0 time=4
the msg is note_on channel=0 note=72 velocity=100 time=0
the msg is note_off channel=0 note=74 velocity=0 time=29
the msg is note_on channel=0 note=74 velocity=100 time=0
the msg is note_off channel=0 note=74 velocity=0 time=21
the msg is note_on channel=0 note=74 velocity=100 time=0
the msg is note_off channel=0 note=74 velocity=0 time=12
the msg is note_on channel=0 note=74 velocity=100 time=0
the msg is note_off channel=0 note=71 velocity=0 time=17
the msg is note_on channel=0 note=71 velocity=100 time=0
the msg is note_off channel=0 note=74 velocity=0 time=8
the msg is note_on channel=0 note=74 velocity=100 time=0
the msg is note_off channel=0 note=76 velocity=0 time=25
the msg is note_on channel=0 note=76 velocity=100 time=0
the msg is note_off channel=0 note=79 velocity=0 time=25
the msg is note_on channel=0 note=79 velocity=100 time=0
the msg is note_off channel=0 note=72 velocity=0 time=12
the msg is note_on channel=0 note=72 velocity=100 time=0
the msg is note_off channel=0 note=72 velocity=0 time=12
the msg is note_on channel=0 note=72 velocity=100 time=0
the msg is note_off channel=0 note=72 velocity=0 time=12
the msg is note_on channel=0 note=72 velocity=100 time=0
the msg is note_off channel=0 note=72 velocity=0 time=25
the msg is note_on channel=0 note=72 velocity=100 time=0
the msg is note_off channel=0 note=72 velocity=0 time=12
the msg is note_on channel=0 note=72 velocity=100 time=0
the msg is note_off channel=0 note=72 velocity=0 time=12
the msg is note_on channel=0 note=72 velocity=100 time=0
the msg is <meta message end_of_track time=51>
the msg is <meta message track_name name='Acoustic Guitar' time=0>
the msg is program_change channel=0 program=24 time=0
the msg is note_off channel=0 note=69 velocity=0 time=0
the msg is pitchwheel channel=0 pitch=0 time=0
the msg is program_change channel=0 program=24 time=0
the msg is <meta message set_tempo tempo=500000 time=0>
the msg is <meta message time_signature numerator=4 denominator=4 clocks_per_click=24 notated_32nd_notes_per_beat=8 time=0>
the msg is note_on channel=0 note=69 velocity=100 time=0
the msg is note_off channel=0 note=72 velocity=0 time=166
the msg is note_on channel=0 note=72 velocity=100 time=0
the msg is note_off channel=0 note=72 velocity=0 time=12
the msg is note_on channel=0 note=72 velocity=100 time=0
the msg is note_off channel=0 note=72 velocity=0 time=12
the msg is note_on channel=0 note=72 velocity=100 time=0
the msg is note_off channel=0 note=72 velocity=0 time=25
the msg is note_on channel=0 note=72 velocity=100 time=0
the msg is note_off channel=0 note=74 velocity=0 time=25
the msg is note_on channel=0 note=74 velocity=100 time=0
the msg is note_off channel=0 note=74 velocity=0 time=12
the msg is note_on channel=0 note=74 velocity=100 time=0
the msg is note_off channel=0 note=71 velocity=0 time=12
the msg is note_on channel=0 note=71 velocity=100 time=0
the msg is note_off channel=0 note=74 velocity=0 time=25
the msg is note_on channel=0 note=74 velocity=100 time=0
the msg is note_off channel=0 note=74 velocity=0 time=12
the msg is note_on channel=0 note=74 velocity=100 time=0
the msg is note_off channel=0 note=71 velocity=0 time=12
the msg is note_on channel=0 note=71 velocity=100 time=0
the msg is note_off channel=0 note=71 velocity=0 time=12
the msg is note_on channel=0 note=71 velocity=100 time=0
the msg is note_off channel=0 note=69 velocity=0 time=12
the msg is note_on channel=0 note=69 velocity=100 time=0
the msg is note_off channel=0 note=72 velocity=0 time=115
the msg is note_on channel=0 note=72 velocity=100 time=0
the msg is note_off channel=0 note=72 velocity=0 time=34
the msg is note_on channel=0 note=72 velocity=100 time=0
the msg is note_off channel=0 note=72 velocity=0 time=4
the msg is note_on channel=0 note=72 velocity=100 time=0
the msg is note_off channel=0 note=72 velocity=0 time=12
the msg is note_on channel=0 note=72 velocity=100 time=0
the msg is note_off channel=0 note=72 velocity=0 time=17
the msg is note_on channel=0 note=72 velocity=100 time=0
the msg is note_off channel=0 note=76 velocity=0 time=17
the msg is note_on channel=0 note=76 velocity=100 time=0
the msg is note_off channel=0 note=79 velocity=0 time=17
the msg is note_on channel=0 note=79 velocity=100 time=0
the msg is note_off channel=0 note=76 velocity=0 time=34
the msg is note_on channel=0 note=76 velocity=100 time=0
the msg is note_off channel=0 note=79 velocity=0 time=17
the msg is note_on channel=0 note=79 velocity=100 time=0
the msg is note_off channel=0 note=79 velocity=0 time=17
the msg is note_on channel=0 note=79 velocity=100 time=0
the msg is note_off channel=0 note=76 velocity=0 time=17
the msg is note_on channel=0 note=76 velocity=100 time=0
the msg is note_off channel=0 note=74 velocity=0 time=4
the msg is note_on channel=0 note=74 velocity=100 time=0
the msg is note_off channel=0 note=72 velocity=0 time=12
the msg is note_on channel=0 note=72 velocity=100 time=0
the msg is note_off channel=0 note=74 velocity=0 time=34
the msg is note_on channel=0 note=74 velocity=100 time=0
the msg is note_off channel=0 note=74 velocity=0 time=17
the msg is note_on channel=0 note=74 velocity=100 time=0
the msg is note_off channel=0 note=74 velocity=0 time=34
the msg is note_on channel=0 note=74 velocity=100 time=0
the msg is note_off channel=0 note=76 velocity=0 time=17
the msg is note_on channel=0 note=76 velocity=100 time=0
the msg is note_off channel=0 note=79 velocity=0 time=34
the msg is note_on channel=0 note=79 velocity=100 time=0
the msg is note_off channel=0 note=79 velocity=0 time=17
the msg is note_off channel=0 note=76 velocity=0 time=0
the msg is note_on channel=0 note=79 velocity=100 time=0
the msg is note_on channel=0 note=76 velocity=100 time=0
the msg is note_off channel=0 note=74 velocity=0 time=25
the msg is note_on channel=0 note=74 velocity=100 time=0
the msg is note_off channel=0 note=72 velocity=0 time=8
the msg is note_on channel=0 note=72 velocity=100 time=0
the msg is note_off channel=0 note=74 velocity=0 time=17
the msg is note_on channel=0 note=74 velocity=100 time=0
the msg is note_off channel=0 note=76 velocity=0 time=34
the msg is note_on channel=0 note=76 velocity=100 time=0
the msg is note_off channel=0 note=72 velocity=0 time=4
the msg is note_on channel=0 note=72 velocity=100 time=0
the msg is note_off channel=0 note=74 velocity=0 time=12
the msg is note_on channel=0 note=74 velocity=100 time=0
the msg is note_off channel=0 note=74 velocity=0 time=34
the msg is note_on channel=0 note=74 velocity=100 time=0
the msg is note_off channel=0 note=74 velocity=0 time=17
the msg is note_on channel=0 note=74 velocity=100 time=0
the msg is note_off channel=0 note=74 velocity=0 time=17
the msg is note_on channel=0 note=74 velocity=100 time=0
the msg is note_off channel=0 note=71 velocity=0 time=17
the msg is note_on channel=0 note=71 velocity=100 time=0
the msg is note_off channel=0 note=74 velocity=0 time=17
the msg is note_on channel=0 note=74 velocity=100 time=0
the msg is note_off channel=0 note=74 velocity=0 time=34
the msg is note_on channel=0 note=74 velocity=100 time=0
the msg is note_off channel=0 note=72 velocity=0 time=4
the msg is note_on channel=0 note=72 velocity=100 time=0
the msg is note_off channel=0 note=74 velocity=0 time=29
the msg is note_on channel=0 note=74 velocity=100 time=0
the msg is note_off channel=0 note=74 velocity=0 time=21
the msg is note_on channel=0 note=74 velocity=100 time=0
the msg is note_off channel=0 note=74 velocity=0 time=12
the msg is note_on channel=0 note=74 velocity=100 time=0
the msg is note_off channel=0 note=71 velocity=0 time=17
the msg is note_on channel=0 note=71 velocity=100 time=0
the msg is note_off channel=0 note=74 velocity=0 time=8
the msg is note_on channel=0 note=74 velocity=100 time=0
the msg is note_off channel=0 note=76 velocity=0 time=25
the msg is note_on channel=0 note=76 velocity=100 time=0
the msg is note_off channel=0 note=79 velocity=0 time=25
the msg is note_on channel=0 note=79 velocity=100 time=0
the msg is note_off channel=0 note=72 velocity=0 time=12
the msg is note_on channel=0 note=72 velocity=100 time=0
the msg is note_off channel=0 note=72 velocity=0 time=12
the msg is note_on channel=0 note=72 velocity=100 time=0
the msg is note_off channel=0 note=72 velocity=0 time=12
the msg is note_on channel=0 note=72 velocity=100 time=0
the msg is note_off channel=0 note=72 velocity=0 time=25
the msg is note_on channel=0 note=72 velocity=100 time=0
the msg is note_off channel=0 note=72 velocity=0 time=12
the msg is note_on channel=0 note=72 velocity=100 time=0
the msg is note_off channel=0 note=72 velocity=0 time=12
the msg is note_on channel=0 note=72 velocity=100 time=0
the msg is <meta message end_of_track time=51>
the msg is <meta message track_name name='Acoustic Guitar' time=0>
the msg is program_change channel=0 program=24 time=0
the msg is note_off channel=0 note=69 velocity=0 time=0
the msg is pitchwheel channel=0 pitch=0 time=0
the msg is program_change channel=0 program=24 time=0
the msg is <meta message set_tempo tempo=500000 time=0>
the msg is <meta message time_signature numerator=4 denominator=4 clocks_per_click=24 notated_32nd_notes_per_beat=8 time=0>
the msg is note_on channel=0 note=69 velocity=100 time=0
the msg is note_off channel=0 note=72 velocity=0 time=166
the msg is note_on channel=0 note=72 velocity=100 time=0
the msg is note_off channel=0 note=72 velocity=0 time=12
the msg is note_on channel=0 note=72 velocity=100 time=0
the msg is note_off channel=0 note=72 velocity=0 time=12
the msg is note_on channel=0 note=72 velocity=100 time=0
the msg is note_off channel=0 note=72 velocity=0 time=25
the msg is note_on channel=0 note=72 velocity=100 time=0
the msg is note_off channel=0 note=74 velocity=0 time=25
the msg is note_on channel=0 note=74 velocity=100 time=0
the msg is note_off channel=0 note=74 velocity=0 time=12
the msg is note_on channel=0 note=74 velocity=100 time=0
the msg is note_off channel=0 note=71 velocity=0 time=12
the msg is note_on channel=0 note=71 velocity=100 time=0
the msg is note_off channel=0 note=74 velocity=0 time=25
the msg is note_on channel=0 note=74 velocity=100 time=0
the msg is note_off channel=0 note=74 velocity=0 time=12
the msg is note_on channel=0 note=74 velocity=100 time=0
the msg is note_off channel=0 note=71 velocity=0 time=12
the msg is note_on channel=0 note=71 velocity=100 time=0
the msg is note_off channel=0 note=71 velocity=0 time=12
the msg is note_on channel=0 note=71 velocity=100 time=0
the msg is note_off channel=0 note=69 velocity=0 time=12
the msg is note_on channel=0 note=69 velocity=100 time=0
the msg is note_off channel=0 note=72 velocity=0 time=115
the msg is note_on channel=0 note=72 velocity=100 time=0
the msg is note_off channel=0 note=72 velocity=0 time=34
the msg is note_on channel=0 note=72 velocity=100 time=0
the msg is note_off channel=0 note=72 velocity=0 time=4
the msg is note_on channel=0 note=72 velocity=100 time=0
the msg is note_off channel=0 note=72 velocity=0 time=12
the msg is note_on channel=0 note=72 velocity=100 time=0
the msg is note_off channel=0 note=72 velocity=0 time=17
the msg is note_on channel=0 note=72 velocity=100 time=0
the msg is note_off channel=0 note=76 velocity=0 time=17
the msg is note_on channel=0 note=76 velocity=100 time=0
the msg is note_off channel=0 note=79 velocity=0 time=17
the msg is note_on channel=0 note=79 velocity=100 time=0
the msg is note_off channel=0 note=76 velocity=0 time=34
the msg is note_on channel=0 note=76 velocity=100 time=0
the msg is note_off channel=0 note=79 velocity=0 time=17
the msg is note_on channel=0 note=79 velocity=100 time=0
the msg is note_off channel=0 note=79 velocity=0 time=17
the msg is note_on channel=0 note=79 velocity=100 time=0
the msg is note_off channel=0 note=76 velocity=0 time=17
the msg is note_on channel=0 note=76 velocity=100 time=0
the msg is note_off channel=0 note=74 velocity=0 time=4
the msg is note_on channel=0 note=74 velocity=100 time=0
the msg is note_off channel=0 note=72 velocity=0 time=12
the msg is note_on channel=0 note=72 velocity=100 time=0
the msg is note_off channel=0 note=74 velocity=0 time=34
the msg is note_on channel=0 note=74 velocity=100 time=0
the msg is note_off channel=0 note=74 velocity=0 time=17
the msg is note_on channel=0 note=74 velocity=100 time=0
the msg is note_off channel=0 note=74 velocity=0 time=34
the msg is note_on channel=0 note=74 velocity=100 time=0
the msg is note_off channel=0 note=76 velocity=0 time=17
the msg is note_on channel=0 note=76 velocity=100 time=0
the msg is note_off channel=0 note=79 velocity=0 time=34
the msg is note_on channel=0 note=79 velocity=100 time=0
the msg is note_off channel=0 note=79 velocity=0 time=17
the msg is note_off channel=0 note=76 velocity=0 time=0
the msg is note_on channel=0 note=79 velocity=100 time=0
the msg is note_on channel=0 note=76 velocity=100 time=0
the msg is note_off channel=0 note=74 velocity=0 time=25
the msg is note_on channel=0 note=74 velocity=100 time=0
the msg is note_off channel=0 note=72 velocity=0 time=8
the msg is note_on channel=0 note=72 velocity=100 time=0
the msg is note_off channel=0 note=74 velocity=0 time=17
the msg is note_on channel=0 note=74 velocity=100 time=0
the msg is note_off channel=0 note=76 velocity=0 time=34
the msg is note_on channel=0 note=76 velocity=100 time=0
the msg is note_off channel=0 note=72 velocity=0 time=4
the msg is note_on channel=0 note=72 velocity=100 time=0
the msg is note_off channel=0 note=74 velocity=0 time=12
the msg is note_on channel=0 note=74 velocity=100 time=0
the msg is note_off channel=0 note=74 velocity=0 time=34
the msg is note_on channel=0 note=74 velocity=100 time=0
the msg is note_off channel=0 note=74 velocity=0 time=17
the msg is note_on channel=0 note=74 velocity=100 time=0
the msg is note_off channel=0 note=74 velocity=0 time=17
the msg is note_on channel=0 note=74 velocity=100 time=0
the msg is note_off channel=0 note=71 velocity=0 time=17
the msg is note_on channel=0 note=71 velocity=100 time=0
the msg is note_off channel=0 note=74 velocity=0 time=17
the msg is note_on channel=0 note=74 velocity=100 time=0
the msg is note_off channel=0 note=74 velocity=0 time=34
the msg is note_on channel=0 note=74 velocity=100 time=0
the msg is note_off channel=0 note=72 velocity=0 time=4
the msg is note_on channel=0 note=72 velocity=100 time=0
the msg is note_off channel=0 note=74 velocity=0 time=29
the msg is note_on channel=0 note=74 velocity=100 time=0
the msg is note_off channel=0 note=74 velocity=0 time=21
the msg is note_on channel=0 note=74 velocity=100 time=0
the msg is note_off channel=0 note=74 velocity=0 time=12
the msg is note_on channel=0 note=74 velocity=100 time=0
the msg is note_off channel=0 note=71 velocity=0 time=17
the msg is note_on channel=0 note=71 velocity=100 time=0
the msg is note_off channel=0 note=74 velocity=0 time=8
the msg is note_on channel=0 note=74 velocity=100 time=0
the msg is note_off channel=0 note=76 velocity=0 time=25
the msg is note_on channel=0 note=76 velocity=100 time=0
the msg is note_off channel=0 note=79 velocity=0 time=25
the msg is note_on channel=0 note=79 velocity=100 time=0
the msg is note_off channel=0 note=72 velocity=0 time=12
the msg is note_on channel=0 note=72 velocity=100 time=0
the msg is note_off channel=0 note=72 velocity=0 time=12
the msg is note_on channel=0 note=72 velocity=100 time=0
the msg is note_off channel=0 note=72 velocity=0 time=12
the msg is note_on channel=0 note=72 velocity=100 time=0
the msg is note_off channel=0 note=72 velocity=0 time=25
the msg is note_on channel=0 note=72 velocity=100 time=0
the msg is note_off channel=0 note=72 velocity=0 time=12
the msg is note_on channel=0 note=72 velocity=100 time=0
the msg is note_off channel=0 note=72 velocity=0 time=12
the msg is note_on channel=0 note=72 velocity=100 time=0
the msg is <meta message end_of_track time=51>
the msg is <meta message track_name name='Acoustic Guitar' time=0>
the msg is program_change channel=0 program=24 time=0
the msg is note_off channel=0 note=69 velocity=0 time=0
the msg is pitchwheel channel=0 pitch=0 time=0
the msg is program_change channel=0 program=24 time=0
the msg is <meta message set_tempo tempo=500000 time=0>
the msg is <meta message time_signature numerator=4 denominator=4 clocks_per_click=24 notated_32nd_notes_per_beat=8 time=0>
the msg is note_on channel=0 note=69 velocity=100 time=0
the msg is note_off channel=0 note=72 velocity=0 time=166
the msg is note_on channel=0 note=72 velocity=100 time=0
the msg is note_off channel=0 note=72 velocity=0 time=12
the msg is note_on channel=0 note=72 velocity=100 time=0
the msg is note_off channel=0 note=72 velocity=0 time=12
the msg is note_on channel=0 note=72 velocity=100 time=0
the msg is note_off channel=0 note=72 velocity=0 time=25
the msg is note_on channel=0 note=72 velocity=100 time=0
the msg is note_off channel=0 note=74 velocity=0 time=25
the msg is note_on channel=0 note=74 velocity=100 time=0
the msg is note_off channel=0 note=74 velocity=0 time=12
the msg is note_on channel=0 note=74 velocity=100 time=0
the msg is note_off channel=0 note=71 velocity=0 time=12
the msg is note_on channel=0 note=71 velocity=100 time=0
the msg is note_off channel=0 note=74 velocity=0 time=25
the msg is note_on channel=0 note=74 velocity=100 time=0
the msg is note_off channel=0 note=74 velocity=0 time=12
the msg is note_on channel=0 note=74 velocity=100 time=0
the msg is note_off channel=0 note=71 velocity=0 time=12
the msg is note_on channel=0 note=71 velocity=100 time=0
the msg is note_off channel=0 note=71 velocity=0 time=12
the msg is note_on channel=0 note=71 velocity=100 time=0
the msg is note_off channel=0 note=69 velocity=0 time=12
the msg is note_on channel=0 note=69 velocity=100 time=0
the msg is note_off channel=0 note=72 velocity=0 time=115
the msg is note_on channel=0 note=72 velocity=100 time=0
the msg is note_off channel=0 note=72 velocity=0 time=34
the msg is note_on channel=0 note=72 velocity=100 time=0
the msg is note_off channel=0 note=72 velocity=0 time=4
the msg is note_on channel=0 note=72 velocity=100 time=0
the msg is note_off channel=0 note=72 velocity=0 time=12
the msg is note_on channel=0 note=72 velocity=100 time=0
the msg is note_off channel=0 note=72 velocity=0 time=17
the msg is note_on channel=0 note=72 velocity=100 time=0
the msg is note_off channel=0 note=76 velocity=0 time=17
the msg is note_on channel=0 note=76 velocity=100 time=0
the msg is note_off channel=0 note=79 velocity=0 time=17
the msg is note_on channel=0 note=79 velocity=100 time=0
the msg is note_off channel=0 note=76 velocity=0 time=34
the msg is note_on channel=0 note=76 velocity=100 time=0
the msg is note_off channel=0 note=79 velocity=0 time=17
the msg is note_on channel=0 note=79 velocity=100 time=0
the msg is note_off channel=0 note=79 velocity=0 time=17
the msg is note_on channel=0 note=79 velocity=100 time=0
the msg is note_off channel=0 note=76 velocity=0 time=17
the msg is note_on channel=0 note=76 velocity=100 time=0
the msg is note_off channel=0 note=74 velocity=0 time=4
the msg is note_on channel=0 note=74 velocity=100 time=0
the msg is note_off channel=0 note=72 velocity=0 time=12
the msg is note_on channel=0 note=72 velocity=100 time=0
the msg is note_off channel=0 note=74 velocity=0 time=34
the msg is note_on channel=0 note=74 velocity=100 time=0
the msg is note_off channel=0 note=74 velocity=0 time=17
the msg is note_on channel=0 note=74 velocity=100 time=0
the msg is note_off channel=0 note=74 velocity=0 time=34
the msg is note_on channel=0 note=74 velocity=100 time=0
the msg is note_off channel=0 note=76 velocity=0 time=17
the msg is note_on channel=0 note=76 velocity=100 time=0
the msg is note_off channel=0 note=79 velocity=0 time=34
the msg is note_on channel=0 note=79 velocity=100 time=0
the msg is note_off channel=0 note=79 velocity=0 time=17
the msg is note_off channel=0 note=76 velocity=0 time=0
the msg is note_on channel=0 note=79 velocity=100 time=0
the msg is note_on channel=0 note=76 velocity=100 time=0
the msg is note_off channel=0 note=74 velocity=0 time=25
the msg is note_on channel=0 note=74 velocity=100 time=0
the msg is note_off channel=0 note=72 velocity=0 time=8
the msg is note_on channel=0 note=72 velocity=100 time=0
the msg is note_off channel=0 note=74 velocity=0 time=17
the msg is note_on channel=0 note=74 velocity=100 time=0
the msg is note_off channel=0 note=76 velocity=0 time=34
the msg is note_on channel=0 note=76 velocity=100 time=0
the msg is note_off channel=0 note=72 velocity=0 time=4
the msg is note_on channel=0 note=72 velocity=100 time=0
the msg is note_off channel=0 note=74 velocity=0 time=12
the msg is note_on channel=0 note=74 velocity=100 time=0
the msg is note_off channel=0 note=74 velocity=0 time=34
the msg is note_on channel=0 note=74 velocity=100 time=0
the msg is note_off channel=0 note=74 velocity=0 time=17
the msg is note_on channel=0 note=74 velocity=100 time=0
the msg is note_off channel=0 note=74 velocity=0 time=17
the msg is note_on channel=0 note=74 velocity=100 time=0
the msg is note_off channel=0 note=71 velocity=0 time=17
the msg is note_on channel=0 note=71 velocity=100 time=0
the msg is note_off channel=0 note=74 velocity=0 time=17
the msg is note_on channel=0 note=74 velocity=100 time=0
the msg is note_off channel=0 note=74 velocity=0 time=34
the msg is note_on channel=0 note=74 velocity=100 time=0
the msg is note_off channel=0 note=72 velocity=0 time=4
the msg is note_on channel=0 note=72 velocity=100 time=0
the msg is note_off channel=0 note=74 velocity=0 time=29
the msg is note_on channel=0 note=74 velocity=100 time=0
the msg is note_off channel=0 note=74 velocity=0 time=21
the msg is note_on channel=0 note=74 velocity=100 time=0
the msg is note_off channel=0 note=74 velocity=0 time=12
the msg is note_on channel=0 note=74 velocity=100 time=0
the msg is note_off channel=0 note=71 velocity=0 time=17
the msg is note_on channel=0 note=71 velocity=100 time=0
the msg is note_off channel=0 note=74 velocity=0 time=8
the msg is note_on channel=0 note=74 velocity=100 time=0
the msg is note_off channel=0 note=76 velocity=0 time=25
the msg is note_on channel=0 note=76 velocity=100 time=0
the msg is note_off channel=0 note=79 velocity=0 time=25
the msg is note_on channel=0 note=79 velocity=100 time=0
the msg is note_off channel=0 note=72 velocity=0 time=12
the msg is note_on channel=0 note=72 velocity=100 time=0
the msg is note_off channel=0 note=72 velocity=0 time=12
the msg is note_on channel=0 note=72 velocity=100 time=0
the msg is note_off channel=0 note=72 velocity=0 time=12
the msg is note_on channel=0 note=72 velocity=100 time=0
the msg is note_off channel=0 note=72 velocity=0 time=25
the msg is note_on channel=0 note=72 velocity=100 time=0
the msg is note_off channel=0 note=72 velocity=0 time=12
the msg is note_on channel=0 note=72 velocity=100 time=0
the msg is note_off channel=0 note=72 velocity=0 time=12
the msg is note_on channel=0 note=72 velocity=100 time=0
the msg is <meta message end_of_track time=51>
the msg is <meta message track_name name='Acoustic Guitar' time=0>
the msg is program_change channel=0 program=24 time=0
the msg is note_off channel=0 note=69 velocity=0 time=0
the msg is pitchwheel channel=0 pitch=0 time=0
the msg is program_change channel=0 program=24 time=0
the msg is <meta message set_tempo tempo=500000 time=0>
the msg is <meta message time_signature numerator=4 denominator=4 clocks_per_click=24 notated_32nd_notes_per_beat=8 time=0>
the msg is note_on channel=0 note=69 velocity=100 time=0
the msg is note_off channel=0 note=72 velocity=0 time=166
the msg is note_on channel=0 note=72 velocity=100 time=0
the msg is note_off channel=0 note=72 velocity=0 time=12
the msg is note_on channel=0 note=72 velocity=100 time=0
the msg is note_off channel=0 note=72 velocity=0 time=12
the msg is note_on channel=0 note=72 velocity=100 time=0
the msg is note_off channel=0 note=72 velocity=0 time=25
the msg is note_on channel=0 note=72 velocity=100 time=0
the msg is note_off channel=0 note=74 velocity=0 time=25
the msg is note_on channel=0 note=74 velocity=100 time=0
the msg is note_off channel=0 note=74 velocity=0 time=12
the msg is note_on channel=0 note=74 velocity=100 time=0
the msg is note_off channel=0 note=71 velocity=0 time=12
the msg is note_on channel=0 note=71 velocity=100 time=0
the msg is note_off channel=0 note=74 velocity=0 time=25
the msg is note_on channel=0 note=74 velocity=100 time=0
the msg is note_off channel=0 note=74 velocity=0 time=12
the msg is note_on channel=0 note=74 velocity=100 time=0
the msg is note_off channel=0 note=71 velocity=0 time=12
the msg is note_on channel=0 note=71 velocity=100 time=0
the msg is note_off channel=0 note=71 velocity=0 time=12
the msg is note_on channel=0 note=71 velocity=100 time=0
the msg is note_off channel=0 note=69 velocity=0 time=12
the msg is note_on channel=0 note=69 velocity=100 time=0
the msg is note_off channel=0 note=72 velocity=0 time=115
the msg is note_on channel=0 note=72 velocity=100 time=0
the msg is note_off channel=0 note=72 velocity=0 time=34
the msg is note_on channel=0 note=72 velocity=100 time=0
the msg is note_off channel=0 note=72 velocity=0 time=4
the msg is note_on channel=0 note=72 velocity=100 time=0
the msg is note_off channel=0 note=72 velocity=0 time=12
the msg is note_on channel=0 note=72 velocity=100 time=0
the msg is note_off channel=0 note=72 velocity=0 time=17
the msg is note_on channel=0 note=72 velocity=100 time=0
the msg is note_off channel=0 note=76 velocity=0 time=17
the msg is note_on channel=0 note=76 velocity=100 time=0
the msg is note_off channel=0 note=79 velocity=0 time=17
the msg is note_on channel=0 note=79 velocity=100 time=0
the msg is note_off channel=0 note=76 velocity=0 time=34
the msg is note_on channel=0 note=76 velocity=100 time=0
the msg is note_off channel=0 note=79 velocity=0 time=17
the msg is note_on channel=0 note=79 velocity=100 time=0
the msg is note_off channel=0 note=79 velocity=0 time=17
the msg is note_on channel=0 note=79 velocity=100 time=0
the msg is note_off channel=0 note=76 velocity=0 time=17
the msg is note_on channel=0 note=76 velocity=100 time=0
the msg is note_off channel=0 note=74 velocity=0 time=4
the msg is note_on channel=0 note=74 velocity=100 time=0
the msg is note_off channel=0 note=72 velocity=0 time=12
the msg is note_on channel=0 note=72 velocity=100 time=0
the msg is note_off channel=0 note=74 velocity=0 time=34
the msg is note_on channel=0 note=74 velocity=100 time=0
the msg is note_off channel=0 note=74 velocity=0 time=17
the msg is note_on channel=0 note=74 velocity=100 time=0
the msg is note_off channel=0 note=74 velocity=0 time=34
the msg is note_on channel=0 note=74 velocity=100 time=0
the msg is note_off channel=0 note=76 velocity=0 time=17
the msg is note_on channel=0 note=76 velocity=100 time=0
the msg is note_off channel=0 note=79 velocity=0 time=34
the msg is note_on channel=0 note=79 velocity=100 time=0
the msg is note_off channel=0 note=79 velocity=0 time=17
the msg is note_off channel=0 note=76 velocity=0 time=0
the msg is note_on channel=0 note=79 velocity=100 time=0
the msg is note_on channel=0 note=76 velocity=100 time=0
the msg is note_off channel=0 note=74 velocity=0 time=25
the msg is note_on channel=0 note=74 velocity=100 time=0
the msg is note_off channel=0 note=72 velocity=0 time=8
the msg is note_on channel=0 note=72 velocity=100 time=0
the msg is note_off channel=0 note=74 velocity=0 time=17
the msg is note_on channel=0 note=74 velocity=100 time=0
the msg is note_off channel=0 note=76 velocity=0 time=34
the msg is note_on channel=0 note=76 velocity=100 time=0
the msg is note_off channel=0 note=72 velocity=0 time=4
the msg is note_on channel=0 note=72 velocity=100 time=0
the msg is note_off channel=0 note=74 velocity=0 time=12
the msg is note_on channel=0 note=74 velocity=100 time=0
the msg is note_off channel=0 note=74 velocity=0 time=34
the msg is note_on channel=0 note=74 velocity=100 time=0
the msg is note_off channel=0 note=74 velocity=0 time=17
the msg is note_on channel=0 note=74 velocity=100 time=0
the msg is note_off channel=0 note=74 velocity=0 time=17
the msg is note_on channel=0 note=74 velocity=100 time=0
the msg is note_off channel=0 note=71 velocity=0 time=17
the msg is note_on channel=0 note=71 velocity=100 time=0
the msg is note_off channel=0 note=74 velocity=0 time=17
the msg is note_on channel=0 note=74 velocity=100 time=0
the msg is note_off channel=0 note=74 velocity=0 time=34
the msg is note_on channel=0 note=74 velocity=100 time=0
the msg is note_off channel=0 note=72 velocity=0 time=4
the msg is note_on channel=0 note=72 velocity=100 time=0
the msg is note_off channel=0 note=74 velocity=0 time=29
the msg is note_on channel=0 note=74 velocity=100 time=0
the msg is note_off channel=0 note=74 velocity=0 time=21
the msg is note_on channel=0 note=74 velocity=100 time=0
the msg is note_off channel=0 note=74 velocity=0 time=12
the msg is note_on channel=0 note=74 velocity=100 time=0
the msg is note_off channel=0 note=71 velocity=0 time=17
the msg is note_on channel=0 note=71 velocity=100 time=0
the msg is note_off channel=0 note=74 velocity=0 time=8
the msg is note_on channel=0 note=74 velocity=100 time=0
the msg is note_off channel=0 note=76 velocity=0 time=25
the msg is note_on channel=0 note=76 velocity=100 time=0
the msg is note_off channel=0 note=79 velocity=0 time=25
the msg is note_on channel=0 note=79 velocity=100 time=0
the msg is note_off channel=0 note=72 velocity=0 time=12
the msg is note_on channel=0 note=72 velocity=100 time=0
the msg is note_off channel=0 note=72 velocity=0 time=12
the msg is note_on channel=0 note=72 velocity=100 time=0
the msg is note_off channel=0 note=72 velocity=0 time=12
the msg is note_on channel=0 note=72 velocity=100 time=0
the msg is note_off channel=0 note=72 velocity=0 time=25
the msg is note_on channel=0 note=72 velocity=100 time=0
the msg is note_off channel=0 note=72 velocity=0 time=12
the msg is note_on channel=0 note=72 velocity=100 time=0
the msg is note_off channel=0 note=72 velocity=0 time=12
the msg is note_on channel=0 note=72 velocity=100 time=0
the msg is <meta message end_of_track time=51>
the msg is <meta message track_name name='Acoustic Guitar' time=0>
the msg is program_change channel=0 program=24 time=0
the msg is note_off channel=0 note=69 velocity=0 time=0
the msg is pitchwheel channel=0 pitch=0 time=0
the msg is program_change channel=0 program=24 time=0
the msg is <meta message set_tempo tempo=500000 time=0>
the msg is <meta message time_signature numerator=4 denominator=4 clocks_per_click=24 notated_32nd_notes_per_beat=8 time=0>
the msg is note_on channel=0 note=69 velocity=100 time=0
the msg is note_off channel=0 note=72 velocity=0 time=166
the msg is note_on channel=0 note=72 velocity=100 time=0
the msg is note_off channel=0 note=72 velocity=0 time=12
the msg is note_on channel=0 note=72 velocity=100 time=0
the msg is note_off channel=0 note=72 velocity=0 time=12
the msg is note_on channel=0 note=72 velocity=100 time=0
the msg is note_off channel=0 note=72 velocity=0 time=25
the msg is note_on channel=0 note=72 velocity=100 time=0
the msg is note_off channel=0 note=74 velocity=0 time=25
the msg is note_on channel=0 note=74 velocity=100 time=0
the msg is note_off channel=0 note=74 velocity=0 time=12
the msg is note_on channel=0 note=74 velocity=100 time=0
the msg is note_off channel=0 note=71 velocity=0 time=12
the msg is note_on channel=0 note=71 velocity=100 time=0
the msg is note_off channel=0 note=74 velocity=0 time=25
the msg is note_on channel=0 note=74 velocity=100 time=0
the msg is note_off channel=0 note=74 velocity=0 time=12
the msg is note_on channel=0 note=74 velocity=100 time=0
the msg is note_off channel=0 note=71 velocity=0 time=12
the msg is note_on channel=0 note=71 velocity=100 time=0
the msg is note_off channel=0 note=71 velocity=0 time=12
the msg is note_on channel=0 note=71 velocity=100 time=0
the msg is note_off channel=0 note=69 velocity=0 time=12
the msg is note_on channel=0 note=69 velocity=100 time=0
the msg is note_off channel=0 note=72 velocity=0 time=115
the msg is note_on channel=0 note=72 velocity=100 time=0
the msg is note_off channel=0 note=72 velocity=0 time=34
the msg is note_on channel=0 note=72 velocity=100 time=0
the msg is note_off channel=0 note=72 velocity=0 time=4
the msg is note_on channel=0 note=72 velocity=100 time=0
the msg is note_off channel=0 note=72 velocity=0 time=12
the msg is note_on channel=0 note=72 velocity=100 time=0
the msg is note_off channel=0 note=72 velocity=0 time=17
the msg is note_on channel=0 note=72 velocity=100 time=0
the msg is note_off channel=0 note=76 velocity=0 time=17
the msg is note_on channel=0 note=76 velocity=100 time=0
the msg is note_off channel=0 note=79 velocity=0 time=17
the msg is note_on channel=0 note=79 velocity=100 time=0
the msg is note_off channel=0 note=76 velocity=0 time=34
the msg is note_on channel=0 note=76 velocity=100 time=0
the msg is note_off channel=0 note=79 velocity=0 time=17
the msg is note_on channel=0 note=79 velocity=100 time=0
the msg is note_off channel=0 note=79 velocity=0 time=17
the msg is note_on channel=0 note=79 velocity=100 time=0
the msg is note_off channel=0 note=76 velocity=0 time=17
the msg is note_on channel=0 note=76 velocity=100 time=0
the msg is note_off channel=0 note=74 velocity=0 time=4
the msg is note_on channel=0 note=74 velocity=100 time=0
the msg is note_off channel=0 note=72 velocity=0 time=12
the msg is note_on channel=0 note=72 velocity=100 time=0
the msg is note_off channel=0 note=74 velocity=0 time=34
the msg is note_on channel=0 note=74 velocity=100 time=0
the msg is note_off channel=0 note=74 velocity=0 time=17
the msg is note_on channel=0 note=74 velocity=100 time=0
the msg is note_off channel=0 note=74 velocity=0 time=34
the msg is note_on channel=0 note=74 velocity=100 time=0
the msg is note_off channel=0 note=76 velocity=0 time=17
the msg is note_on channel=0 note=76 velocity=100 time=0
the msg is note_off channel=0 note=79 velocity=0 time=34
the msg is note_on channel=0 note=79 velocity=100 time=0
the msg is note_off channel=0 note=79 velocity=0 time=17
the msg is note_off channel=0 note=76 velocity=0 time=0
the msg is note_on channel=0 note=79 velocity=100 time=0
the msg is note_on channel=0 note=76 velocity=100 time=0
the msg is note_off channel=0 note=74 velocity=0 time=25
the msg is note_on channel=0 note=74 velocity=100 time=0
the msg is note_off channel=0 note=72 velocity=0 time=8
the msg is note_on channel=0 note=72 velocity=100 time=0
the msg is note_off channel=0 note=74 velocity=0 time=17
the msg is note_on channel=0 note=74 velocity=100 time=0
the msg is note_off channel=0 note=76 velocity=0 time=34
the msg is note_on channel=0 note=76 velocity=100 time=0
the msg is note_off channel=0 note=72 velocity=0 time=4
the msg is note_on channel=0 note=72 velocity=100 time=0
the msg is note_off channel=0 note=74 velocity=0 time=12
the msg is note_on channel=0 note=74 velocity=100 time=0
the msg is note_off channel=0 note=74 velocity=0 time=34
the msg is note_on channel=0 note=74 velocity=100 time=0
the msg is note_off channel=0 note=74 velocity=0 time=17
the msg is note_on channel=0 note=74 velocity=100 time=0
the msg is note_off channel=0 note=74 velocity=0 time=17
the msg is note_on channel=0 note=74 velocity=100 time=0
the msg is note_off channel=0 note=71 velocity=0 time=17
the msg is note_on channel=0 note=71 velocity=100 time=0
the msg is note_off channel=0 note=74 velocity=0 time=17
the msg is note_on channel=0 note=74 velocity=100 time=0
the msg is note_off channel=0 note=74 velocity=0 time=34
the msg is note_on channel=0 note=74 velocity=100 time=0
the msg is note_off channel=0 note=72 velocity=0 time=4
the msg is note_on channel=0 note=72 velocity=100 time=0
the msg is note_off channel=0 note=74 velocity=0 time=29
the msg is note_on channel=0 note=74 velocity=100 time=0
the msg is note_off channel=0 note=74 velocity=0 time=21
the msg is note_on channel=0 note=74 velocity=100 time=0
the msg is note_off channel=0 note=74 velocity=0 time=12
the msg is note_on channel=0 note=74 velocity=100 time=0
the msg is note_off channel=0 note=71 velocity=0 time=17
the msg is note_on channel=0 note=71 velocity=100 time=0
the msg is note_off channel=0 note=74 velocity=0 time=8
the msg is note_on channel=0 note=74 velocity=100 time=0
the msg is note_off channel=0 note=76 velocity=0 time=25
the msg is note_on channel=0 note=76 velocity=100 time=0
the msg is note_off channel=0 note=79 velocity=0 time=25
the msg is note_on channel=0 note=79 velocity=100 time=0
the msg is note_off channel=0 note=72 velocity=0 time=12
the msg is note_on channel=0 note=72 velocity=100 time=0
the msg is note_off channel=0 note=72 velocity=0 time=12
the msg is note_on channel=0 note=72 velocity=100 time=0
the msg is note_off channel=0 note=72 velocity=0 time=12
the msg is note_on channel=0 note=72 velocity=100 time=0
the msg is note_off channel=0 note=72 velocity=0 time=25
the msg is note_on channel=0 note=72 velocity=100 time=0
the msg is note_off channel=0 note=72 velocity=0 time=12
the msg is note_on channel=0 note=72 velocity=100 time=0
the msg is note_off channel=0 note=72 velocity=0 time=12
the msg is note_on channel=0 note=72 velocity=100 time=0
the msg is <meta message end_of_track time=51>
the msg is <meta message track_name name='Acoustic Guitar' time=0>
the msg is program_change channel=0 program=24 time=0
the msg is note_off channel=0 note=69 velocity=0 time=0
the msg is pitchwheel channel=0 pitch=0 time=0
the msg is program_change channel=0 program=24 time=0
the msg is <meta message set_tempo tempo=500000 time=0>
the msg is <meta message time_signature numerator=4 denominator=4 clocks_per_click=24 notated_32nd_notes_per_beat=8 time=0>
the msg is note_on channel=0 note=69 velocity=100 time=0
the msg is note_off channel=0 note=72 velocity=0 time=166
the msg is note_on channel=0 note=72 velocity=100 time=0
the msg is note_off channel=0 note=72 velocity=0 time=12
the msg is note_on channel=0 note=72 velocity=100 time=0
the msg is note_off channel=0 note=72 velocity=0 time=12
the msg is note_on channel=0 note=72 velocity=100 time=0
the msg is note_off channel=0 note=72 velocity=0 time=25
the msg is note_on channel=0 note=72 velocity=100 time=0
the msg is note_off channel=0 note=74 velocity=0 time=25
the msg is note_on channel=0 note=74 velocity=100 time=0
the msg is note_off channel=0 note=74 velocity=0 time=12
the msg is note_on channel=0 note=74 velocity=100 time=0
the msg is note_off channel=0 note=71 velocity=0 time=12
the msg is note_on channel=0 note=71 velocity=100 time=0
the msg is note_off channel=0 note=74 velocity=0 time=25
the msg is note_on channel=0 note=74 velocity=100 time=0
the msg is note_off channel=0 note=74 velocity=0 time=12
the msg is note_on channel=0 note=74 velocity=100 time=0
the msg is note_off channel=0 note=71 velocity=0 time=12
the msg is note_on channel=0 note=71 velocity=100 time=0
the msg is note_off channel=0 note=71 velocity=0 time=12
the msg is note_on channel=0 note=71 velocity=100 time=0
the msg is note_off channel=0 note=69 velocity=0 time=12
the msg is note_on channel=0 note=69 velocity=100 time=0
the msg is note_off channel=0 note=72 velocity=0 time=115
the msg is note_on channel=0 note=72 velocity=100 time=0
the msg is note_off channel=0 note=72 velocity=0 time=34
the msg is note_on channel=0 note=72 velocity=100 time=0
the msg is note_off channel=0 note=72 velocity=0 time=4
the msg is note_on channel=0 note=72 velocity=100 time=0
the msg is note_off channel=0 note=72 velocity=0 time=12
the msg is note_on channel=0 note=72 velocity=100 time=0
the msg is note_off channel=0 note=72 velocity=0 time=17
the msg is note_on channel=0 note=72 velocity=100 time=0
the msg is note_off channel=0 note=76 velocity=0 time=17
the msg is note_on channel=0 note=76 velocity=100 time=0
the msg is note_off channel=0 note=79 velocity=0 time=17
the msg is note_on channel=0 note=79 velocity=100 time=0
the msg is note_off channel=0 note=76 velocity=0 time=34
the msg is note_on channel=0 note=76 velocity=100 time=0
the msg is note_off channel=0 note=79 velocity=0 time=17
the msg is note_on channel=0 note=79 velocity=100 time=0
the msg is note_off channel=0 note=79 velocity=0 time=17
the msg is note_on channel=0 note=79 velocity=100 time=0
the msg is note_off channel=0 note=76 velocity=0 time=17
the msg is note_on channel=0 note=76 velocity=100 time=0
the msg is note_off channel=0 note=74 velocity=0 time=4
the msg is note_on channel=0 note=74 velocity=100 time=0
the msg is note_off channel=0 note=72 velocity=0 time=12
the msg is note_on channel=0 note=72 velocity=100 time=0
the msg is note_off channel=0 note=74 velocity=0 time=34
the msg is note_on channel=0 note=74 velocity=100 time=0
the msg is note_off channel=0 note=74 velocity=0 time=17
the msg is note_on channel=0 note=74 velocity=100 time=0
the msg is note_off channel=0 note=74 velocity=0 time=34
the msg is note_on channel=0 note=74 velocity=100 time=0
the msg is note_off channel=0 note=76 velocity=0 time=17
the msg is note_on channel=0 note=76 velocity=100 time=0
the msg is note_off channel=0 note=79 velocity=0 time=34
the msg is note_on channel=0 note=79 velocity=100 time=0
the msg is note_off channel=0 note=79 velocity=0 time=17
the msg is note_off channel=0 note=76 velocity=0 time=0
the msg is note_on channel=0 note=79 velocity=100 time=0
the msg is note_on channel=0 note=76 velocity=100 time=0
the msg is note_off channel=0 note=74 velocity=0 time=25
the msg is note_on channel=0 note=74 velocity=100 time=0
the msg is note_off channel=0 note=72 velocity=0 time=8
the msg is note_on channel=0 note=72 velocity=100 time=0
the msg is note_off channel=0 note=74 velocity=0 time=17
the msg is note_on channel=0 note=74 velocity=100 time=0
the msg is note_off channel=0 note=76 velocity=0 time=34
the msg is note_on channel=0 note=76 velocity=100 time=0
the msg is note_off channel=0 note=72 velocity=0 time=4
the msg is note_on channel=0 note=72 velocity=100 time=0
the msg is note_off channel=0 note=74 velocity=0 time=12
the msg is note_on channel=0 note=74 velocity=100 time=0
the msg is note_off channel=0 note=74 velocity=0 time=34
the msg is note_on channel=0 note=74 velocity=100 time=0
the msg is note_off channel=0 note=74 velocity=0 time=17
the msg is note_on channel=0 note=74 velocity=100 time=0
the msg is note_off channel=0 note=74 velocity=0 time=17
the msg is note_on channel=0 note=74 velocity=100 time=0
the msg is note_off channel=0 note=71 velocity=0 time=17
the msg is note_on channel=0 note=71 velocity=100 time=0
the msg is note_off channel=0 note=74 velocity=0 time=17
the msg is note_on channel=0 note=74 velocity=100 time=0
the msg is note_off channel=0 note=74 velocity=0 time=34
the msg is note_on channel=0 note=74 velocity=100 time=0
the msg is note_off channel=0 note=72 velocity=0 time=4
the msg is note_on channel=0 note=72 velocity=100 time=0
the msg is note_off channel=0 note=74 velocity=0 time=29
the msg is note_on channel=0 note=74 velocity=100 time=0
the msg is note_off channel=0 note=74 velocity=0 time=21
the msg is note_on channel=0 note=74 velocity=100 time=0
the msg is note_off channel=0 note=74 velocity=0 time=12
the msg is note_on channel=0 note=74 velocity=100 time=0
the msg is note_off channel=0 note=71 velocity=0 time=17
the msg is note_on channel=0 note=71 velocity=100 time=0
the msg is note_off channel=0 note=74 velocity=0 time=8
the msg is note_on channel=0 note=74 velocity=100 time=0
the msg is note_off channel=0 note=76 velocity=0 time=25
the msg is note_on channel=0 note=76 velocity=100 time=0
the msg is note_off channel=0 note=79 velocity=0 time=25
the msg is note_on channel=0 note=79 velocity=100 time=0
the msg is note_off channel=0 note=72 velocity=0 time=12
the msg is note_on channel=0 note=72 velocity=100 time=0
the msg is note_off channel=0 note=72 velocity=0 time=12
the msg is note_on channel=0 note=72 velocity=100 time=0
the msg is note_off channel=0 note=72 velocity=0 time=12
the msg is note_on channel=0 note=72 velocity=100 time=0
the msg is note_off channel=0 note=72 velocity=0 time=25
the msg is note_on channel=0 note=72 velocity=100 time=0
the msg is note_off channel=0 note=72 velocity=0 time=12
the msg is note_on channel=0 note=72 velocity=100 time=0
the msg is note_off channel=0 note=72 velocity=0 time=12
the msg is note_on channel=0 note=72 velocity=100 time=0
the msg is <meta message end_of_track time=51>
the msg is <meta message track_name name='Acoustic Guitar' time=0>
the msg is program_change channel=0 program=24 time=0
the msg is note_off channel=0 note=69 velocity=0 time=0
the msg is pitchwheel channel=0 pitch=0 time=0
the msg is program_change channel=0 program=24 time=0
the msg is <meta message set_tempo tempo=500000 time=0>
the msg is <meta message time_signature numerator=4 denominator=4 clocks_per_click=24 notated_32nd_notes_per_beat=8 time=0>
the msg is note_on channel=0 note=69 velocity=100 time=0
the msg is note_off channel=0 note=72 velocity=0 time=166
the msg is note_on channel=0 note=72 velocity=100 time=0
the msg is note_off channel=0 note=72 velocity=0 time=12
the msg is note_on channel=0 note=72 velocity=100 time=0
the msg is note_off channel=0 note=72 velocity=0 time=12
the msg is note_on channel=0 note=72 velocity=100 time=0
the msg is note_off channel=0 note=72 velocity=0 time=25
the msg is note_on channel=0 note=72 velocity=100 time=0
the msg is note_off channel=0 note=74 velocity=0 time=25
the msg is note_on channel=0 note=74 velocity=100 time=0
the msg is note_off channel=0 note=74 velocity=0 time=12
the msg is note_on channel=0 note=74 velocity=100 time=0
the msg is note_off channel=0 note=71 velocity=0 time=12
the msg is note_on channel=0 note=71 velocity=100 time=0
the msg is note_off channel=0 note=74 velocity=0 time=25
the msg is note_on channel=0 note=74 velocity=100 time=0
the msg is note_off channel=0 note=74 velocity=0 time=12
the msg is note_on channel=0 note=74 velocity=100 time=0
the msg is note_off channel=0 note=71 velocity=0 time=12
the msg is note_on channel=0 note=71 velocity=100 time=0
the msg is note_off channel=0 note=71 velocity=0 time=12
the msg is note_on channel=0 note=71 velocity=100 time=0
the msg is note_off channel=0 note=69 velocity=0 time=12
the msg is note_on channel=0 note=69 velocity=100 time=0
the msg is note_off channel=0 note=72 velocity=0 time=115
the msg is note_on channel=0 note=72 velocity=100 time=0
the msg is note_off channel=0 note=72 velocity=0 time=34
the msg is note_on channel=0 note=72 velocity=100 time=0
the msg is note_off channel=0 note=72 velocity=0 time=4
the msg is note_on channel=0 note=72 velocity=100 time=0
the msg is note_off channel=0 note=72 velocity=0 time=12
the msg is note_on channel=0 note=72 velocity=100 time=0
the msg is note_off channel=0 note=72 velocity=0 time=17
the msg is note_on channel=0 note=72 velocity=100 time=0
the msg is note_off channel=0 note=76 velocity=0 time=17
the msg is note_on channel=0 note=76 velocity=100 time=0
the msg is note_off channel=0 note=79 velocity=0 time=17
the msg is note_on channel=0 note=79 velocity=100 time=0
the msg is note_off channel=0 note=76 velocity=0 time=34
the msg is note_on channel=0 note=76 velocity=100 time=0
the msg is note_off channel=0 note=79 velocity=0 time=17
the msg is note_on channel=0 note=79 velocity=100 time=0
the msg is note_off channel=0 note=79 velocity=0 time=17
the msg is note_on channel=0 note=79 velocity=100 time=0
the msg is note_off channel=0 note=76 velocity=0 time=17
the msg is note_on channel=0 note=76 velocity=100 time=0
the msg is note_off channel=0 note=74 velocity=0 time=4
the msg is note_on channel=0 note=74 velocity=100 time=0
the msg is note_off channel=0 note=72 velocity=0 time=12
the msg is note_on channel=0 note=72 velocity=100 time=0
the msg is note_off channel=0 note=74 velocity=0 time=34
the msg is note_on channel=0 note=74 velocity=100 time=0
the msg is note_off channel=0 note=74 velocity=0 time=17
the msg is note_on channel=0 note=74 velocity=100 time=0
the msg is note_off channel=0 note=74 velocity=0 time=34
the msg is note_on channel=0 note=74 velocity=100 time=0
the msg is note_off channel=0 note=76 velocity=0 time=17
the msg is note_on channel=0 note=76 velocity=100 time=0
the msg is note_off channel=0 note=79 velocity=0 time=34
the msg is note_on channel=0 note=79 velocity=100 time=0
the msg is note_off channel=0 note=79 velocity=0 time=17
the msg is note_off channel=0 note=76 velocity=0 time=0
the msg is note_on channel=0 note=79 velocity=100 time=0
the msg is note_on channel=0 note=76 velocity=100 time=0
the msg is note_off channel=0 note=74 velocity=0 time=25
the msg is note_on channel=0 note=74 velocity=100 time=0
the msg is note_off channel=0 note=72 velocity=0 time=8
the msg is note_on channel=0 note=72 velocity=100 time=0
the msg is note_off channel=0 note=74 velocity=0 time=17
the msg is note_on channel=0 note=74 velocity=100 time=0
the msg is note_off channel=0 note=76 velocity=0 time=34
the msg is note_on channel=0 note=76 velocity=100 time=0
the msg is note_off channel=0 note=72 velocity=0 time=4
the msg is note_on channel=0 note=72 velocity=100 time=0
the msg is note_off channel=0 note=74 velocity=0 time=12
the msg is note_on channel=0 note=74 velocity=100 time=0
the msg is note_off channel=0 note=74 velocity=0 time=34
the msg is note_on channel=0 note=74 velocity=100 time=0
the msg is note_off channel=0 note=74 velocity=0 time=17
the msg is note_on channel=0 note=74 velocity=100 time=0
the msg is note_off channel=0 note=74 velocity=0 time=17
the msg is note_on channel=0 note=74 velocity=100 time=0
the msg is note_off channel=0 note=71 velocity=0 time=17
the msg is note_on channel=0 note=71 velocity=100 time=0
the msg is note_off channel=0 note=74 velocity=0 time=17
the msg is note_on channel=0 note=74 velocity=100 time=0
the msg is note_off channel=0 note=74 velocity=0 time=34
the msg is note_on channel=0 note=74 velocity=100 time=0
the msg is note_off channel=0 note=72 velocity=0 time=4
the msg is note_on channel=0 note=72 velocity=100 time=0
the msg is note_off channel=0 note=74 velocity=0 time=29
the msg is note_on channel=0 note=74 velocity=100 time=0
the msg is note_off channel=0 note=74 velocity=0 time=21
the msg is note_on channel=0 note=74 velocity=100 time=0
the msg is note_off channel=0 note=74 velocity=0 time=12
the msg is note_on channel=0 note=74 velocity=100 time=0
the msg is note_off channel=0 note=71 velocity=0 time=17
the msg is note_on channel=0 note=71 velocity=100 time=0
the msg is note_off channel=0 note=74 velocity=0 time=8
the msg is note_on channel=0 note=74 velocity=100 time=0
the msg is note_off channel=0 note=76 velocity=0 time=25
the msg is note_on channel=0 note=76 velocity=100 time=0
the msg is note_off channel=0 note=79 velocity=0 time=25
the msg is note_on channel=0 note=79 velocity=100 time=0
the msg is note_off channel=0 note=72 velocity=0 time=12
the msg is note_on channel=0 note=72 velocity=100 time=0
the msg is note_off channel=0 note=72 velocity=0 time=12
the msg is note_on channel=0 note=72 velocity=100 time=0
the msg is note_off channel=0 note=72 velocity=0 time=12
the msg is note_on channel=0 note=72 velocity=100 time=0
the msg is note_off channel=0 note=72 velocity=0 time=25
the msg is note_on channel=0 note=72 velocity=100 time=0
the msg is note_off channel=0 note=72 velocity=0 time=12
the msg is note_on channel=0 note=72 velocity=100 time=0
the msg is note_off channel=0 note=72 velocity=0 time=12
the msg is note_on channel=0 note=72 velocity=100 time=0
the msg is <meta message end_of_track time=51>
the msg is <meta message track_name name='Acoustic Guitar' time=0>
the msg is program_change channel=0 program=24 time=0
the msg is note_off channel=0 note=69 velocity=0 time=0
the msg is pitchwheel channel=0 pitch=0 time=0
the msg is program_change channel=0 program=24 time=0
the msg is <meta message set_tempo tempo=500000 time=0>
the msg is <meta message time_signature numerator=4 denominator=4 clocks_per_click=24 notated_32nd_notes_per_beat=8 time=0>
the msg is note_on channel=0 note=69 velocity=100 time=0
the msg is note_off channel=0 note=72 velocity=0 time=166
the msg is note_on channel=0 note=72 velocity=100 time=0
the msg is note_off channel=0 note=72 velocity=0 time=12
the msg is note_on channel=0 note=72 velocity=100 time=0
the msg is note_off channel=0 note=72 velocity=0 time=12
the msg is note_on channel=0 note=72 velocity=100 time=0
the msg is note_off channel=0 note=72 velocity=0 time=25
the msg is note_on channel=0 note=72 velocity=100 time=0
the msg is note_off channel=0 note=74 velocity=0 time=25
the msg is note_on channel=0 note=74 velocity=100 time=0
the msg is note_off channel=0 note=74 velocity=0 time=12
the msg is note_on channel=0 note=74 velocity=100 time=0
the msg is note_off channel=0 note=71 velocity=0 time=12
the msg is note_on channel=0 note=71 velocity=100 time=0
the msg is note_off channel=0 note=74 velocity=0 time=25
the msg is note_on channel=0 note=74 velocity=100 time=0
the msg is note_off channel=0 note=74 velocity=0 time=12
the msg is note_on channel=0 note=74 velocity=100 time=0
the msg is note_off channel=0 note=71 velocity=0 time=12
the msg is note_on channel=0 note=71 velocity=100 time=0
the msg is note_off channel=0 note=71 velocity=0 time=12
the msg is note_on channel=0 note=71 velocity=100 time=0
the msg is note_off channel=0 note=69 velocity=0 time=12
the msg is note_on channel=0 note=69 velocity=100 time=0
the msg is note_off channel=0 note=72 velocity=0 time=115
the msg is note_on channel=0 note=72 velocity=100 time=0
the msg is note_off channel=0 note=72 velocity=0 time=34
the msg is note_on channel=0 note=72 velocity=100 time=0
the msg is note_off channel=0 note=72 velocity=0 time=4
the msg is note_on channel=0 note=72 velocity=100 time=0
the msg is note_off channel=0 note=72 velocity=0 time=12
the msg is note_on channel=0 note=72 velocity=100 time=0
the msg is note_off channel=0 note=72 velocity=0 time=17
the msg is note_on channel=0 note=72 velocity=100 time=0
the msg is note_off channel=0 note=76 velocity=0 time=17
the msg is note_on channel=0 note=76 velocity=100 time=0
the msg is note_off channel=0 note=79 velocity=0 time=17
the msg is note_on channel=0 note=79 velocity=100 time=0
the msg is note_off channel=0 note=76 velocity=0 time=34
the msg is note_on channel=0 note=76 velocity=100 time=0
the msg is note_off channel=0 note=79 velocity=0 time=17
the msg is note_on channel=0 note=79 velocity=100 time=0
the msg is note_off channel=0 note=79 velocity=0 time=17
the msg is note_on channel=0 note=79 velocity=100 time=0
the msg is note_off channel=0 note=76 velocity=0 time=17
the msg is note_on channel=0 note=76 velocity=100 time=0
the msg is note_off channel=0 note=74 velocity=0 time=4
the msg is note_on channel=0 note=74 velocity=100 time=0
the msg is note_off channel=0 note=72 velocity=0 time=12
the msg is note_on channel=0 note=72 velocity=100 time=0
the msg is note_off channel=0 note=74 velocity=0 time=34
the msg is note_on channel=0 note=74 velocity=100 time=0
the msg is note_off channel=0 note=74 velocity=0 time=17
the msg is note_on channel=0 note=74 velocity=100 time=0
the msg is note_off channel=0 note=74 velocity=0 time=34
the msg is note_on channel=0 note=74 velocity=100 time=0
the msg is note_off channel=0 note=76 velocity=0 time=17
the msg is note_on channel=0 note=76 velocity=100 time=0
the msg is note_off channel=0 note=79 velocity=0 time=34
the msg is note_on channel=0 note=79 velocity=100 time=0
the msg is note_off channel=0 note=79 velocity=0 time=17
the msg is note_off channel=0 note=76 velocity=0 time=0
the msg is note_on channel=0 note=79 velocity=100 time=0
the msg is note_on channel=0 note=76 velocity=100 time=0
the msg is note_off channel=0 note=74 velocity=0 time=25
the msg is note_on channel=0 note=74 velocity=100 time=0
the msg is note_off channel=0 note=72 velocity=0 time=8
the msg is note_on channel=0 note=72 velocity=100 time=0
the msg is note_off channel=0 note=74 velocity=0 time=17
the msg is note_on channel=0 note=74 velocity=100 time=0
the msg is note_off channel=0 note=76 velocity=0 time=34
the msg is note_on channel=0 note=76 velocity=100 time=0
the msg is note_off channel=0 note=72 velocity=0 time=4
the msg is note_on channel=0 note=72 velocity=100 time=0
the msg is note_off channel=0 note=74 velocity=0 time=12
the msg is note_on channel=0 note=74 velocity=100 time=0
the msg is note_off channel=0 note=74 velocity=0 time=34
the msg is note_on channel=0 note=74 velocity=100 time=0
the msg is note_off channel=0 note=74 velocity=0 time=17
the msg is note_on channel=0 note=74 velocity=100 time=0
the msg is note_off channel=0 note=74 velocity=0 time=17
the msg is note_on channel=0 note=74 velocity=100 time=0
the msg is note_off channel=0 note=71 velocity=0 time=17
the msg is note_on channel=0 note=71 velocity=100 time=0
the msg is note_off channel=0 note=74 velocity=0 time=17
the msg is note_on channel=0 note=74 velocity=100 time=0
the msg is note_off channel=0 note=74 velocity=0 time=34
the msg is note_on channel=0 note=74 velocity=100 time=0
the msg is note_off channel=0 note=72 velocity=0 time=4
the msg is note_on channel=0 note=72 velocity=100 time=0
the msg is note_off channel=0 note=74 velocity=0 time=29
the msg is note_on channel=0 note=74 velocity=100 time=0
the msg is note_off channel=0 note=74 velocity=0 time=21
the msg is note_on channel=0 note=74 velocity=100 time=0
the msg is note_off channel=0 note=74 velocity=0 time=12
the msg is note_on channel=0 note=74 velocity=100 time=0
the msg is note_off channel=0 note=71 velocity=0 time=17
the msg is note_on channel=0 note=71 velocity=100 time=0
the msg is note_off channel=0 note=74 velocity=0 time=8
the msg is note_on channel=0 note=74 velocity=100 time=0
the msg is note_off channel=0 note=76 velocity=0 time=25
the msg is note_on channel=0 note=76 velocity=100 time=0
the msg is note_off channel=0 note=79 velocity=0 time=25
the msg is note_on channel=0 note=79 velocity=100 time=0
the msg is note_off channel=0 note=72 velocity=0 time=12
the msg is note_on channel=0 note=72 velocity=100 time=0
the msg is note_off channel=0 note=72 velocity=0 time=12
the msg is note_on channel=0 note=72 velocity=100 time=0
the msg is note_off channel=0 note=72 velocity=0 time=12
the msg is note_on channel=0 note=72 velocity=100 time=0
the msg is note_off channel=0 note=72 velocity=0 time=25
the msg is note_on channel=0 note=72 velocity=100 time=0
the msg is note_off channel=0 note=72 velocity=0 time=12
the msg is note_on channel=0 note=72 velocity=100 time=0
the msg is note_off channel=0 note=72 velocity=0 time=12
the msg is note_on channel=0 note=72 velocity=100 time=0
the msg is <meta message end_of_track time=51>
the msg is <meta message track_name name='Acoustic Guitar' time=0>
the msg is program_change channel=0 program=24 time=0
the msg is note_off channel=0 note=69 velocity=0 time=0
the msg is pitchwheel channel=0 pitch=0 time=0
the msg is program_change channel=0 program=24 time=0
the msg is <meta message set_tempo tempo=500000 time=0>
the msg is <meta message time_signature numerator=4 denominator=4 clocks_per_click=24 notated_32nd_notes_per_beat=8 time=0>
the msg is note_on channel=0 note=69 velocity=100 time=0
the msg is note_off channel=0 note=72 velocity=0 time=166
the msg is note_on channel=0 note=72 velocity=100 time=0
the msg is note_off channel=0 note=72 velocity=0 time=12
the msg is note_on channel=0 note=72 velocity=100 time=0
the msg is note_off channel=0 note=72 velocity=0 time=12
the msg is note_on channel=0 note=72 velocity=100 time=0
the msg is note_off channel=0 note=72 velocity=0 time=25
the msg is note_on channel=0 note=72 velocity=100 time=0
the msg is note_off channel=0 note=74 velocity=0 time=25
the msg is note_on channel=0 note=74 velocity=100 time=0
the msg is note_off channel=0 note=74 velocity=0 time=12
the msg is note_on channel=0 note=74 velocity=100 time=0
the msg is note_off channel=0 note=71 velocity=0 time=12
the msg is note_on channel=0 note=71 velocity=100 time=0
the msg is note_off channel=0 note=74 velocity=0 time=25
the msg is note_on channel=0 note=74 velocity=100 time=0
the msg is note_off channel=0 note=74 velocity=0 time=12
the msg is note_on channel=0 note=74 velocity=100 time=0
the msg is note_off channel=0 note=71 velocity=0 time=12
the msg is note_on channel=0 note=71 velocity=100 time=0
the msg is note_off channel=0 note=71 velocity=0 time=12
the msg is note_on channel=0 note=71 velocity=100 time=0
the msg is note_off channel=0 note=69 velocity=0 time=12
the msg is note_on channel=0 note=69 velocity=100 time=0
the msg is note_off channel=0 note=72 velocity=0 time=115
the msg is note_on channel=0 note=72 velocity=100 time=0
the msg is note_off channel=0 note=72 velocity=0 time=34
the msg is note_on channel=0 note=72 velocity=100 time=0
the msg is note_off channel=0 note=72 velocity=0 time=4
the msg is note_on channel=0 note=72 velocity=100 time=0
the msg is note_off channel=0 note=72 velocity=0 time=12
the msg is note_on channel=0 note=72 velocity=100 time=0
the msg is note_off channel=0 note=72 velocity=0 time=17
the msg is note_on channel=0 note=72 velocity=100 time=0
the msg is note_off channel=0 note=76 velocity=0 time=17
the msg is note_on channel=0 note=76 velocity=100 time=0
the msg is note_off channel=0 note=79 velocity=0 time=17
the msg is note_on channel=0 note=79 velocity=100 time=0
the msg is note_off channel=0 note=76 velocity=0 time=34
the msg is note_on channel=0 note=76 velocity=100 time=0
the msg is note_off channel=0 note=79 velocity=0 time=17
the msg is note_on channel=0 note=79 velocity=100 time=0
the msg is note_off channel=0 note=79 velocity=0 time=17
the msg is note_on channel=0 note=79 velocity=100 time=0
the msg is note_off channel=0 note=76 velocity=0 time=17
the msg is note_on channel=0 note=76 velocity=100 time=0
the msg is note_off channel=0 note=74 velocity=0 time=4
the msg is note_on channel=0 note=74 velocity=100 time=0
the msg is note_off channel=0 note=72 velocity=0 time=12
the msg is note_on channel=0 note=72 velocity=100 time=0
the msg is note_off channel=0 note=74 velocity=0 time=34
the msg is note_on channel=0 note=74 velocity=100 time=0
the msg is note_off channel=0 note=74 velocity=0 time=17
the msg is note_on channel=0 note=74 velocity=100 time=0
the msg is note_off channel=0 note=74 velocity=0 time=34
the msg is note_on channel=0 note=74 velocity=100 time=0
the msg is note_off channel=0 note=76 velocity=0 time=17
the msg is note_on channel=0 note=76 velocity=100 time=0
the msg is note_off channel=0 note=79 velocity=0 time=34
the msg is note_on channel=0 note=79 velocity=100 time=0
the msg is note_off channel=0 note=79 velocity=0 time=17
the msg is note_off channel=0 note=76 velocity=0 time=0
the msg is note_on channel=0 note=79 velocity=100 time=0
the msg is note_on channel=0 note=76 velocity=100 time=0
the msg is note_off channel=0 note=74 velocity=0 time=25
the msg is note_on channel=0 note=74 velocity=100 time=0
the msg is note_off channel=0 note=72 velocity=0 time=8
the msg is note_on channel=0 note=72 velocity=100 time=0
the msg is note_off channel=0 note=74 velocity=0 time=17
the msg is note_on channel=0 note=74 velocity=100 time=0
the msg is note_off channel=0 note=76 velocity=0 time=34
the msg is note_on channel=0 note=76 velocity=100 time=0
the msg is note_off channel=0 note=72 velocity=0 time=4
the msg is note_on channel=0 note=72 velocity=100 time=0
the msg is note_off channel=0 note=74 velocity=0 time=12
the msg is note_on channel=0 note=74 velocity=100 time=0
the msg is note_off channel=0 note=74 velocity=0 time=34
the msg is note_on channel=0 note=74 velocity=100 time=0
the msg is note_off channel=0 note=74 velocity=0 time=17
the msg is note_on channel=0 note=74 velocity=100 time=0
the msg is note_off channel=0 note=74 velocity=0 time=17
the msg is note_on channel=0 note=74 velocity=100 time=0
the msg is note_off channel=0 note=71 velocity=0 time=17
the msg is note_on channel=0 note=71 velocity=100 time=0
the msg is note_off channel=0 note=74 velocity=0 time=17
the msg is note_on channel=0 note=74 velocity=100 time=0
the msg is note_off channel=0 note=74 velocity=0 time=34
the msg is note_on channel=0 note=74 velocity=100 time=0
the msg is note_off channel=0 note=72 velocity=0 time=4
the msg is note_on channel=0 note=72 velocity=100 time=0
the msg is note_off channel=0 note=74 velocity=0 time=29
the msg is note_on channel=0 note=74 velocity=100 time=0
the msg is note_off channel=0 note=74 velocity=0 time=21
the msg is note_on channel=0 note=74 velocity=100 time=0
the msg is note_off channel=0 note=74 velocity=0 time=12
the msg is note_on channel=0 note=74 velocity=100 time=0
the msg is note_off channel=0 note=71 velocity=0 time=17
the msg is note_on channel=0 note=71 velocity=100 time=0
the msg is note_off channel=0 note=74 velocity=0 time=8
the msg is note_on channel=0 note=74 velocity=100 time=0
the msg is note_off channel=0 note=76 velocity=0 time=25
the msg is note_on channel=0 note=76 velocity=100 time=0
the msg is note_off channel=0 note=79 velocity=0 time=25
the msg is note_on channel=0 note=79 velocity=100 time=0
the msg is note_off channel=0 note=72 velocity=0 time=12
the msg is note_on channel=0 note=72 velocity=100 time=0
the msg is note_off channel=0 note=72 velocity=0 time=12
the msg is note_on channel=0 note=72 velocity=100 time=0
the msg is note_off channel=0 note=72 velocity=0 time=12
the msg is note_on channel=0 note=72 velocity=100 time=0
the msg is note_off channel=0 note=72 velocity=0 time=25
the msg is note_on channel=0 note=72 velocity=100 time=0
the msg is note_off channel=0 note=72 velocity=0 time=12
the msg is note_on channel=0 note=72 velocity=100 time=0
the msg is note_off channel=0 note=72 velocity=0 time=12
the msg is note_on channel=0 note=72 velocity=100 time=0
the msg is <meta message end_of_track time=51>
the msg is <meta message track_name name='Acoustic Guitar' time=0>
the msg is program_change channel=0 program=24 time=0
the msg is note_off channel=0 note=69 velocity=0 time=0
the msg is pitchwheel channel=0 pitch=0 time=0
the msg is program_change channel=0 program=24 time=0
the msg is <meta message set_tempo tempo=500000 time=0>
the msg is <meta message time_signature numerator=4 denominator=4 clocks_per_click=24 notated_32nd_notes_per_beat=8 time=0>
the msg is note_on channel=0 note=69 velocity=100 time=0
the msg is note_off channel=0 note=72 velocity=0 time=166
the msg is note_on channel=0 note=72 velocity=100 time=0
the msg is note_off channel=0 note=72 velocity=0 time=12
the msg is note_on channel=0 note=72 velocity=100 time=0
the msg is note_off channel=0 note=72 velocity=0 time=12
the msg is note_on channel=0 note=72 velocity=100 time=0
the msg is note_off channel=0 note=72 velocity=0 time=25
the msg is note_on channel=0 note=72 velocity=100 time=0
the msg is note_off channel=0 note=74 velocity=0 time=25
the msg is note_on channel=0 note=74 velocity=100 time=0
the msg is note_off channel=0 note=74 velocity=0 time=12
the msg is note_on channel=0 note=74 velocity=100 time=0
the msg is note_off channel=0 note=71 velocity=0 time=12
the msg is note_on channel=0 note=71 velocity=100 time=0
the msg is note_off channel=0 note=74 velocity=0 time=25
the msg is note_on channel=0 note=74 velocity=100 time=0
the msg is note_off channel=0 note=74 velocity=0 time=12
the msg is note_on channel=0 note=74 velocity=100 time=0
the msg is note_off channel=0 note=71 velocity=0 time=12
the msg is note_on channel=0 note=71 velocity=100 time=0
the msg is note_off channel=0 note=71 velocity=0 time=12
the msg is note_on channel=0 note=71 velocity=100 time=0
the msg is note_off channel=0 note=69 velocity=0 time=12
the msg is note_on channel=0 note=69 velocity=100 time=0
the msg is note_off channel=0 note=72 velocity=0 time=115
the msg is note_on channel=0 note=72 velocity=100 time=0
the msg is note_off channel=0 note=72 velocity=0 time=34
the msg is note_on channel=0 note=72 velocity=100 time=0
the msg is note_off channel=0 note=72 velocity=0 time=4
the msg is note_on channel=0 note=72 velocity=100 time=0
the msg is note_off channel=0 note=72 velocity=0 time=12
the msg is note_on channel=0 note=72 velocity=100 time=0
the msg is note_off channel=0 note=72 velocity=0 time=17
the msg is note_on channel=0 note=72 velocity=100 time=0
the msg is note_off channel=0 note=76 velocity=0 time=17
the msg is note_on channel=0 note=76 velocity=100 time=0
the msg is note_off channel=0 note=79 velocity=0 time=17
the msg is note_on channel=0 note=79 velocity=100 time=0
the msg is note_off channel=0 note=76 velocity=0 time=34
the msg is note_on channel=0 note=76 velocity=100 time=0
the msg is note_off channel=0 note=79 velocity=0 time=17
the msg is note_on channel=0 note=79 velocity=100 time=0
the msg is note_off channel=0 note=79 velocity=0 time=17
the msg is note_on channel=0 note=79 velocity=100 time=0
the msg is note_off channel=0 note=76 velocity=0 time=17
the msg is note_on channel=0 note=76 velocity=100 time=0
the msg is note_off channel=0 note=74 velocity=0 time=4
the msg is note_on channel=0 note=74 velocity=100 time=0
the msg is note_off channel=0 note=72 velocity=0 time=12
the msg is note_on channel=0 note=72 velocity=100 time=0
the msg is note_off channel=0 note=74 velocity=0 time=34
the msg is note_on channel=0 note=74 velocity=100 time=0
the msg is note_off channel=0 note=74 velocity=0 time=17
the msg is note_on channel=0 note=74 velocity=100 time=0
the msg is note_off channel=0 note=74 velocity=0 time=34
the msg is note_on channel=0 note=74 velocity=100 time=0
the msg is note_off channel=0 note=76 velocity=0 time=17
the msg is note_on channel=0 note=76 velocity=100 time=0
the msg is note_off channel=0 note=79 velocity=0 time=34
the msg is note_on channel=0 note=79 velocity=100 time=0
the msg is note_off channel=0 note=79 velocity=0 time=17
the msg is note_off channel=0 note=76 velocity=0 time=0
the msg is note_on channel=0 note=79 velocity=100 time=0
the msg is note_on channel=0 note=76 velocity=100 time=0
the msg is note_off channel=0 note=74 velocity=0 time=25
the msg is note_on channel=0 note=74 velocity=100 time=0
the msg is note_off channel=0 note=72 velocity=0 time=8
the msg is note_on channel=0 note=72 velocity=100 time=0
the msg is note_off channel=0 note=74 velocity=0 time=17
the msg is note_on channel=0 note=74 velocity=100 time=0
the msg is note_off channel=0 note=76 velocity=0 time=34
the msg is note_on channel=0 note=76 velocity=100 time=0
the msg is note_off channel=0 note=72 velocity=0 time=4
the msg is note_on channel=0 note=72 velocity=100 time=0
the msg is note_off channel=0 note=74 velocity=0 time=12
the msg is note_on channel=0 note=74 velocity=100 time=0
the msg is note_off channel=0 note=74 velocity=0 time=34
the msg is note_on channel=0 note=74 velocity=100 time=0
the msg is note_off channel=0 note=74 velocity=0 time=17
the msg is note_on channel=0 note=74 velocity=100 time=0
the msg is note_off channel=0 note=74 velocity=0 time=17
the msg is note_on channel=0 note=74 velocity=100 time=0
the msg is note_off channel=0 note=71 velocity=0 time=17
the msg is note_on channel=0 note=71 velocity=100 time=0
the msg is note_off channel=0 note=74 velocity=0 time=17
the msg is note_on channel=0 note=74 velocity=100 time=0
the msg is note_off channel=0 note=74 velocity=0 time=34
the msg is note_on channel=0 note=74 velocity=100 time=0
the msg is note_off channel=0 note=72 velocity=0 time=4
the msg is note_on channel=0 note=72 velocity=100 time=0
the msg is note_off channel=0 note=74 velocity=0 time=29
the msg is note_on channel=0 note=74 velocity=100 time=0
the msg is note_off channel=0 note=74 velocity=0 time=21
the msg is note_on channel=0 note=74 velocity=100 time=0
the msg is note_off channel=0 note=74 velocity=0 time=12
the msg is note_on channel=0 note=74 velocity=100 time=0
the msg is note_off channel=0 note=71 velocity=0 time=17
the msg is note_on channel=0 note=71 velocity=100 time=0
the msg is note_off channel=0 note=74 velocity=0 time=8
the msg is note_on channel=0 note=74 velocity=100 time=0
the msg is note_off channel=0 note=76 velocity=0 time=25
the msg is note_on channel=0 note=76 velocity=100 time=0
the msg is note_off channel=0 note=79 velocity=0 time=25
the msg is note_on channel=0 note=79 velocity=100 time=0
the msg is note_off channel=0 note=72 velocity=0 time=12
the msg is note_on channel=0 note=72 velocity=100 time=0
the msg is note_off channel=0 note=72 velocity=0 time=12
the msg is note_on channel=0 note=72 velocity=100 time=0
the msg is note_off channel=0 note=72 velocity=0 time=12
the msg is note_on channel=0 note=72 velocity=100 time=0
the msg is note_off channel=0 note=72 velocity=0 time=25
the msg is note_on channel=0 note=72 velocity=100 time=0
the msg is note_off channel=0 note=72 velocity=0 time=12
the msg is note_on channel=0 note=72 velocity=100 time=0
the msg is note_off channel=0 note=72 velocity=0 time=12
the msg is note_on channel=0 note=72 velocity=100 time=0
the msg is <meta message end_of_track time=51>
the msg is <meta message track_name name='Acoustic Guitar' time=0>
the msg is program_change channel=0 program=24 time=0
the msg is note_off channel=0 note=69 velocity=0 time=0
the msg is pitchwheel channel=0 pitch=0 time=0
the msg is program_change channel=0 program=24 time=0
the msg is <meta message set_tempo tempo=500000 time=0>
the msg is <meta message time_signature numerator=4 denominator=4 clocks_per_click=24 notated_32nd_notes_per_beat=8 time=0>
the msg is note_on channel=0 note=69 velocity=100 time=0
the msg is note_off channel=0 note=72 velocity=0 time=166
the msg is note_on channel=0 note=72 velocity=100 time=0
the msg is note_off channel=0 note=72 velocity=0 time=12
the msg is note_on channel=0 note=72 velocity=100 time=0
the msg is note_off channel=0 note=72 velocity=0 time=12
the msg is note_on channel=0 note=72 velocity=100 time=0
the msg is note_off channel=0 note=72 velocity=0 time=25
the msg is note_on channel=0 note=72 velocity=100 time=0
the msg is note_off channel=0 note=74 velocity=0 time=25
the msg is note_on channel=0 note=74 velocity=100 time=0
the msg is note_off channel=0 note=74 velocity=0 time=12
the msg is note_on channel=0 note=74 velocity=100 time=0
the msg is note_off channel=0 note=71 velocity=0 time=12
the msg is note_on channel=0 note=71 velocity=100 time=0
the msg is note_off channel=0 note=74 velocity=0 time=25
the msg is note_on channel=0 note=74 velocity=100 time=0
the msg is note_off channel=0 note=74 velocity=0 time=12
the msg is note_on channel=0 note=74 velocity=100 time=0
the msg is note_off channel=0 note=71 velocity=0 time=12
the msg is note_on channel=0 note=71 velocity=100 time=0
the msg is note_off channel=0 note=71 velocity=0 time=12
the msg is note_on channel=0 note=71 velocity=100 time=0
the msg is note_off channel=0 note=69 velocity=0 time=12
the msg is note_on channel=0 note=69 velocity=100 time=0
the msg is note_off channel=0 note=72 velocity=0 time=115
the msg is note_on channel=0 note=72 velocity=100 time=0
the msg is note_off channel=0 note=72 velocity=0 time=34
the msg is note_on channel=0 note=72 velocity=100 time=0
the msg is note_off channel=0 note=72 velocity=0 time=4
the msg is note_on channel=0 note=72 velocity=100 time=0
the msg is note_off channel=0 note=72 velocity=0 time=12
the msg is note_on channel=0 note=72 velocity=100 time=0
the msg is note_off channel=0 note=72 velocity=0 time=17
the msg is note_on channel=0 note=72 velocity=100 time=0
the msg is note_off channel=0 note=76 velocity=0 time=17
the msg is note_on channel=0 note=76 velocity=100 time=0
the msg is note_off channel=0 note=79 velocity=0 time=17
the msg is note_on channel=0 note=79 velocity=100 time=0
the msg is note_off channel=0 note=76 velocity=0 time=34
the msg is note_on channel=0 note=76 velocity=100 time=0
the msg is note_off channel=0 note=79 velocity=0 time=17
the msg is note_on channel=0 note=79 velocity=100 time=0
the msg is note_off channel=0 note=79 velocity=0 time=17
the msg is note_on channel=0 note=79 velocity=100 time=0
the msg is note_off channel=0 note=76 velocity=0 time=17
the msg is note_on channel=0 note=76 velocity=100 time=0
the msg is note_off channel=0 note=74 velocity=0 time=4
the msg is note_on channel=0 note=74 velocity=100 time=0
the msg is note_off channel=0 note=72 velocity=0 time=12
the msg is note_on channel=0 note=72 velocity=100 time=0
the msg is note_off channel=0 note=74 velocity=0 time=34
the msg is note_on channel=0 note=74 velocity=100 time=0
the msg is note_off channel=0 note=74 velocity=0 time=17
the msg is note_on channel=0 note=74 velocity=100 time=0
the msg is note_off channel=0 note=74 velocity=0 time=34
the msg is note_on channel=0 note=74 velocity=100 time=0
the msg is note_off channel=0 note=76 velocity=0 time=17
the msg is note_on channel=0 note=76 velocity=100 time=0
the msg is note_off channel=0 note=79 velocity=0 time=34
the msg is note_on channel=0 note=79 velocity=100 time=0
the msg is note_off channel=0 note=79 velocity=0 time=17
the msg is note_off channel=0 note=76 velocity=0 time=0
the msg is note_on channel=0 note=79 velocity=100 time=0
the msg is note_on channel=0 note=76 velocity=100 time=0
the msg is note_off channel=0 note=74 velocity=0 time=25
the msg is note_on channel=0 note=74 velocity=100 time=0
the msg is note_off channel=0 note=72 velocity=0 time=8
the msg is note_on channel=0 note=72 velocity=100 time=0
the msg is note_off channel=0 note=74 velocity=0 time=17
the msg is note_on channel=0 note=74 velocity=100 time=0
the msg is note_off channel=0 note=76 velocity=0 time=34
the msg is note_on channel=0 note=76 velocity=100 time=0
the msg is note_off channel=0 note=72 velocity=0 time=4
the msg is note_on channel=0 note=72 velocity=100 time=0
the msg is note_off channel=0 note=74 velocity=0 time=12
the msg is note_on channel=0 note=74 velocity=100 time=0
the msg is note_off channel=0 note=74 velocity=0 time=34
the msg is note_on channel=0 note=74 velocity=100 time=0
the msg is note_off channel=0 note=74 velocity=0 time=17
the msg is note_on channel=0 note=74 velocity=100 time=0
the msg is note_off channel=0 note=74 velocity=0 time=17
the msg is note_on channel=0 note=74 velocity=100 time=0
the msg is note_off channel=0 note=71 velocity=0 time=17
the msg is note_on channel=0 note=71 velocity=100 time=0
the msg is note_off channel=0 note=74 velocity=0 time=17
the msg is note_on channel=0 note=74 velocity=100 time=0
the msg is note_off channel=0 note=74 velocity=0 time=34
the msg is note_on channel=0 note=74 velocity=100 time=0
the msg is note_off channel=0 note=72 velocity=0 time=4
the msg is note_on channel=0 note=72 velocity=100 time=0
the msg is note_off channel=0 note=74 velocity=0 time=29
the msg is note_on channel=0 note=74 velocity=100 time=0
the msg is note_off channel=0 note=74 velocity=0 time=21
the msg is note_on channel=0 note=74 velocity=100 time=0
the msg is note_off channel=0 note=74 velocity=0 time=12
the msg is note_on channel=0 note=74 velocity=100 time=0
the msg is note_off channel=0 note=71 velocity=0 time=17
the msg is note_on channel=0 note=71 velocity=100 time=0
the msg is note_off channel=0 note=74 velocity=0 time=8
the msg is note_on channel=0 note=74 velocity=100 time=0
the msg is note_off channel=0 note=76 velocity=0 time=25
the msg is note_on channel=0 note=76 velocity=100 time=0
the msg is note_off channel=0 note=79 velocity=0 time=25
the msg is note_on channel=0 note=79 velocity=100 time=0
the msg is note_off channel=0 note=72 velocity=0 time=12
the msg is note_on channel=0 note=72 velocity=100 time=0
the msg is note_off channel=0 note=72 velocity=0 time=12
the msg is note_on channel=0 note=72 velocity=100 time=0
the msg is note_off channel=0 note=72 velocity=0 time=12
the msg is note_on channel=0 note=72 velocity=100 time=0
the msg is note_off channel=0 note=72 velocity=0 time=25
the msg is note_on channel=0 note=72 velocity=100 time=0
the msg is note_off channel=0 note=72 velocity=0 time=12
the msg is note_on channel=0 note=72 velocity=100 time=0
the msg is note_off channel=0 note=72 velocity=0 time=12
the msg is note_on channel=0 note=72 velocity=100 time=0
the msg is <meta message end_of_track time=51>
the msg is <meta message track_name name='Acoustic Guitar' time=0>
the msg is program_change channel=0 program=24 time=0
the msg is note_off channel=0 note=69 velocity=0 time=0
the msg is pitchwheel channel=0 pitch=0 time=0
the msg is program_change channel=0 program=24 time=0
the msg is <meta message set_tempo tempo=500000 time=0>
the msg is <meta message time_signature numerator=4 denominator=4 clocks_per_click=24 notated_32nd_notes_per_beat=8 time=0>
the msg is note_on channel=0 note=69 velocity=100 time=0
the msg is note_off channel=0 note=72 velocity=0 time=166
the msg is note_on channel=0 note=72 velocity=100 time=0
the msg is note_off channel=0 note=72 velocity=0 time=12
the msg is note_on channel=0 note=72 velocity=100 time=0
the msg is note_off channel=0 note=72 velocity=0 time=12
the msg is note_on channel=0 note=72 velocity=100 time=0
the msg is note_off channel=0 note=72 velocity=0 time=25
the msg is note_on channel=0 note=72 velocity=100 time=0
the msg is note_off channel=0 note=74 velocity=0 time=25
the msg is note_on channel=0 note=74 velocity=100 time=0
the msg is note_off channel=0 note=74 velocity=0 time=12
the msg is note_on channel=0 note=74 velocity=100 time=0
the msg is note_off channel=0 note=71 velocity=0 time=12
the msg is note_on channel=0 note=71 velocity=100 time=0
the msg is note_off channel=0 note=74 velocity=0 time=25
the msg is note_on channel=0 note=74 velocity=100 time=0
the msg is note_off channel=0 note=74 velocity=0 time=12
the msg is note_on channel=0 note=74 velocity=100 time=0
the msg is note_off channel=0 note=71 velocity=0 time=12
the msg is note_on channel=0 note=71 velocity=100 time=0
the msg is note_off channel=0 note=71 velocity=0 time=12
the msg is note_on channel=0 note=71 velocity=100 time=0
the msg is note_off channel=0 note=69 velocity=0 time=12
the msg is note_on channel=0 note=69 velocity=100 time=0
the msg is note_off channel=0 note=72 velocity=0 time=115
the msg is note_on channel=0 note=72 velocity=100 time=0
the msg is note_off channel=0 note=72 velocity=0 time=34
the msg is note_on channel=0 note=72 velocity=100 time=0
the msg is note_off channel=0 note=72 velocity=0 time=4
the msg is note_on channel=0 note=72 velocity=100 time=0
the msg is note_off channel=0 note=72 velocity=0 time=12
the msg is note_on channel=0 note=72 velocity=100 time=0
the msg is note_off channel=0 note=72 velocity=0 time=17
the msg is note_on channel=0 note=72 velocity=100 time=0
the msg is note_off channel=0 note=76 velocity=0 time=17
the msg is note_on channel=0 note=76 velocity=100 time=0
the msg is note_off channel=0 note=79 velocity=0 time=17
the msg is note_on channel=0 note=79 velocity=100 time=0
the msg is note_off channel=0 note=76 velocity=0 time=34
the msg is note_on channel=0 note=76 velocity=100 time=0
the msg is note_off channel=0 note=79 velocity=0 time=17
the msg is note_on channel=0 note=79 velocity=100 time=0
the msg is note_off channel=0 note=79 velocity=0 time=17
the msg is note_on channel=0 note=79 velocity=100 time=0
the msg is note_off channel=0 note=76 velocity=0 time=17
the msg is note_on channel=0 note=76 velocity=100 time=0
the msg is note_off channel=0 note=74 velocity=0 time=4
the msg is note_on channel=0 note=74 velocity=100 time=0
the msg is note_off channel=0 note=72 velocity=0 time=12
the msg is note_on channel=0 note=72 velocity=100 time=0
the msg is note_off channel=0 note=74 velocity=0 time=34
the msg is note_on channel=0 note=74 velocity=100 time=0
the msg is note_off channel=0 note=74 velocity=0 time=17
the msg is note_on channel=0 note=74 velocity=100 time=0
the msg is note_off channel=0 note=74 velocity=0 time=34
the msg is note_on channel=0 note=74 velocity=100 time=0
the msg is note_off channel=0 note=76 velocity=0 time=17
the msg is note_on channel=0 note=76 velocity=100 time=0
the msg is note_off channel=0 note=79 velocity=0 time=34
the msg is note_on channel=0 note=79 velocity=100 time=0
the msg is note_off channel=0 note=79 velocity=0 time=17
the msg is note_off channel=0 note=76 velocity=0 time=0
the msg is note_on channel=0 note=79 velocity=100 time=0
the msg is note_on channel=0 note=76 velocity=100 time=0
the msg is note_off channel=0 note=74 velocity=0 time=25
the msg is note_on channel=0 note=74 velocity=100 time=0
the msg is note_off channel=0 note=72 velocity=0 time=8
the msg is note_on channel=0 note=72 velocity=100 time=0
the msg is note_off channel=0 note=74 velocity=0 time=17
the msg is note_on channel=0 note=74 velocity=100 time=0
the msg is note_off channel=0 note=76 velocity=0 time=34
the msg is note_on channel=0 note=76 velocity=100 time=0
the msg is note_off channel=0 note=72 velocity=0 time=4
the msg is note_on channel=0 note=72 velocity=100 time=0
the msg is note_off channel=0 note=74 velocity=0 time=12
the msg is note_on channel=0 note=74 velocity=100 time=0
the msg is note_off channel=0 note=74 velocity=0 time=34
the msg is note_on channel=0 note=74 velocity=100 time=0
the msg is note_off channel=0 note=74 velocity=0 time=17
the msg is note_on channel=0 note=74 velocity=100 time=0
the msg is note_off channel=0 note=74 velocity=0 time=17
the msg is note_on channel=0 note=74 velocity=100 time=0
the msg is note_off channel=0 note=71 velocity=0 time=17
the msg is note_on channel=0 note=71 velocity=100 time=0
the msg is note_off channel=0 note=74 velocity=0 time=17
the msg is note_on channel=0 note=74 velocity=100 time=0
the msg is note_off channel=0 note=74 velocity=0 time=34
the msg is note_on channel=0 note=74 velocity=100 time=0
the msg is note_off channel=0 note=72 velocity=0 time=4
the msg is note_on channel=0 note=72 velocity=100 time=0
the msg is note_off channel=0 note=74 velocity=0 time=29
the msg is note_on channel=0 note=74 velocity=100 time=0
the msg is note_off channel=0 note=74 velocity=0 time=21
the msg is note_on channel=0 note=74 velocity=100 time=0
the msg is note_off channel=0 note=74 velocity=0 time=12
the msg is note_on channel=0 note=74 velocity=100 time=0
the msg is note_off channel=0 note=71 velocity=0 time=17
the msg is note_on channel=0 note=71 velocity=100 time=0
the msg is note_off channel=0 note=74 velocity=0 time=8
the msg is note_on channel=0 note=74 velocity=100 time=0
the msg is note_off channel=0 note=76 velocity=0 time=25
the msg is note_on channel=0 note=76 velocity=100 time=0
the msg is note_off channel=0 note=79 velocity=0 time=25
the msg is note_on channel=0 note=79 velocity=100 time=0
the msg is note_off channel=0 note=72 velocity=0 time=12
the msg is note_on channel=0 note=72 velocity=100 time=0
the msg is note_off channel=0 note=72 velocity=0 time=12
the msg is note_on channel=0 note=72 velocity=100 time=0
the msg is note_off channel=0 note=72 velocity=0 time=12
the msg is note_on channel=0 note=72 velocity=100 time=0
the msg is note_off channel=0 note=72 velocity=0 time=25
the msg is note_on channel=0 note=72 velocity=100 time=0
the msg is note_off channel=0 note=72 velocity=0 time=12
the msg is note_on channel=0 note=72 velocity=100 time=0
the msg is note_off channel=0 note=72 velocity=0 time=12
the msg is note_on channel=0 note=72 velocity=100 time=0
the msg is <meta message end_of_track time=51>
the msg is <meta message track_name name='Acoustic Guitar' time=0>
the msg is program_change channel=0 program=24 time=0
the msg is note_off channel=0 note=69 velocity=0 time=0
the msg is pitchwheel channel=0 pitch=0 time=0
the msg is program_change channel=0 program=24 time=0
the msg is <meta message set_tempo tempo=500000 time=0>
the msg is <meta message time_signature numerator=4 denominator=4 clocks_per_click=24 notated_32nd_notes_per_beat=8 time=0>
the msg is note_on channel=0 note=69 velocity=100 time=0
the msg is note_off channel=0 note=72 velocity=0 time=166
the msg is note_on channel=0 note=72 velocity=100 time=0
the msg is note_off channel=0 note=72 velocity=0 time=12
the msg is note_on channel=0 note=72 velocity=100 time=0
the msg is note_off channel=0 note=72 velocity=0 time=12
the msg is note_on channel=0 note=72 velocity=100 time=0
the msg is note_off channel=0 note=72 velocity=0 time=25
the msg is note_on channel=0 note=72 velocity=100 time=0
the msg is note_off channel=0 note=74 velocity=0 time=25
the msg is note_on channel=0 note=74 velocity=100 time=0
the msg is note_off channel=0 note=74 velocity=0 time=12
the msg is note_on channel=0 note=74 velocity=100 time=0
the msg is note_off channel=0 note=71 velocity=0 time=12
the msg is note_on channel=0 note=71 velocity=100 time=0
the msg is note_off channel=0 note=74 velocity=0 time=25
the msg is note_on channel=0 note=74 velocity=100 time=0
the msg is note_off channel=0 note=74 velocity=0 time=12
the msg is note_on channel=0 note=74 velocity=100 time=0
the msg is note_off channel=0 note=71 velocity=0 time=12
the msg is note_on channel=0 note=71 velocity=100 time=0
the msg is note_off channel=0 note=71 velocity=0 time=12
the msg is note_on channel=0 note=71 velocity=100 time=0
the msg is note_off channel=0 note=69 velocity=0 time=12
the msg is note_on channel=0 note=69 velocity=100 time=0
the msg is note_off channel=0 note=72 velocity=0 time=115
the msg is note_on channel=0 note=72 velocity=100 time=0
the msg is note_off channel=0 note=72 velocity=0 time=34
the msg is note_on channel=0 note=72 velocity=100 time=0
the msg is note_off channel=0 note=72 velocity=0 time=4
the msg is note_on channel=0 note=72 velocity=100 time=0
the msg is note_off channel=0 note=72 velocity=0 time=12
the msg is note_on channel=0 note=72 velocity=100 time=0
the msg is note_off channel=0 note=72 velocity=0 time=17
the msg is note_on channel=0 note=72 velocity=100 time=0
the msg is note_off channel=0 note=76 velocity=0 time=17
the msg is note_on channel=0 note=76 velocity=100 time=0
the msg is note_off channel=0 note=79 velocity=0 time=17
the msg is note_on channel=0 note=79 velocity=100 time=0
the msg is note_off channel=0 note=76 velocity=0 time=34
the msg is note_on channel=0 note=76 velocity=100 time=0
the msg is note_off channel=0 note=79 velocity=0 time=17
the msg is note_on channel=0 note=79 velocity=100 time=0
the msg is note_off channel=0 note=79 velocity=0 time=17
the msg is note_on channel=0 note=79 velocity=100 time=0
the msg is note_off channel=0 note=76 velocity=0 time=17
the msg is note_on channel=0 note=76 velocity=100 time=0
the msg is note_off channel=0 note=74 velocity=0 time=4
the msg is note_on channel=0 note=74 velocity=100 time=0
the msg is note_off channel=0 note=72 velocity=0 time=12
the msg is note_on channel=0 note=72 velocity=100 time=0
the msg is note_off channel=0 note=74 velocity=0 time=34
the msg is note_on channel=0 note=74 velocity=100 time=0
the msg is note_off channel=0 note=74 velocity=0 time=17
the msg is note_on channel=0 note=74 velocity=100 time=0
the msg is note_off channel=0 note=74 velocity=0 time=34
the msg is note_on channel=0 note=74 velocity=100 time=0
the msg is note_off channel=0 note=76 velocity=0 time=17
the msg is note_on channel=0 note=76 velocity=100 time=0
the msg is note_off channel=0 note=79 velocity=0 time=34
the msg is note_on channel=0 note=79 velocity=100 time=0
the msg is note_off channel=0 note=79 velocity=0 time=17
the msg is note_off channel=0 note=76 velocity=0 time=0
the msg is note_on channel=0 note=79 velocity=100 time=0
the msg is note_on channel=0 note=76 velocity=100 time=0
the msg is note_off channel=0 note=74 velocity=0 time=25
the msg is note_on channel=0 note=74 velocity=100 time=0
the msg is note_off channel=0 note=72 velocity=0 time=8
the msg is note_on channel=0 note=72 velocity=100 time=0
the msg is note_off channel=0 note=74 velocity=0 time=17
the msg is note_on channel=0 note=74 velocity=100 time=0
the msg is note_off channel=0 note=76 velocity=0 time=34
the msg is note_on channel=0 note=76 velocity=100 time=0
the msg is note_off channel=0 note=72 velocity=0 time=4
the msg is note_on channel=0 note=72 velocity=100 time=0
the msg is note_off channel=0 note=74 velocity=0 time=12
the msg is note_on channel=0 note=74 velocity=100 time=0
the msg is note_off channel=0 note=74 velocity=0 time=34
the msg is note_on channel=0 note=74 velocity=100 time=0
the msg is note_off channel=0 note=74 velocity=0 time=17
the msg is note_on channel=0 note=74 velocity=100 time=0
the msg is note_off channel=0 note=74 velocity=0 time=17
the msg is note_on channel=0 note=74 velocity=100 time=0
the msg is note_off channel=0 note=71 velocity=0 time=17
the msg is note_on channel=0 note=71 velocity=100 time=0
the msg is note_off channel=0 note=74 velocity=0 time=17
the msg is note_on channel=0 note=74 velocity=100 time=0
the msg is note_off channel=0 note=74 velocity=0 time=34
the msg is note_on channel=0 note=74 velocity=100 time=0
the msg is note_off channel=0 note=72 velocity=0 time=4
the msg is note_on channel=0 note=72 velocity=100 time=0
the msg is note_off channel=0 note=74 velocity=0 time=29
the msg is note_on channel=0 note=74 velocity=100 time=0
the msg is note_off channel=0 note=74 velocity=0 time=21
the msg is note_on channel=0 note=74 velocity=100 time=0
the msg is note_off channel=0 note=74 velocity=0 time=12
the msg is note_on channel=0 note=74 velocity=100 time=0
the msg is note_off channel=0 note=71 velocity=0 time=17
the msg is note_on channel=0 note=71 velocity=100 time=0
the msg is note_off channel=0 note=74 velocity=0 time=8
the msg is note_on channel=0 note=74 velocity=100 time=0
the msg is note_off channel=0 note=76 velocity=0 time=25
the msg is note_on channel=0 note=76 velocity=100 time=0
the msg is note_off channel=0 note=79 velocity=0 time=25
the msg is note_on channel=0 note=79 velocity=100 time=0
the msg is note_off channel=0 note=72 velocity=0 time=12
the msg is note_on channel=0 note=72 velocity=100 time=0
the msg is note_off channel=0 note=72 velocity=0 time=12
the msg is note_on channel=0 note=72 velocity=100 time=0
the msg is note_off channel=0 note=72 velocity=0 time=12
the msg is note_on channel=0 note=72 velocity=100 time=0
the msg is note_off channel=0 note=72 velocity=0 time=25
the msg is note_on channel=0 note=72 velocity=100 time=0
the msg is note_off channel=0 note=72 velocity=0 time=12
the msg is note_on channel=0 note=72 velocity=100 time=0
the msg is note_off channel=0 note=72 velocity=0 time=12
the msg is note_on channel=0 note=72 velocity=100 time=0
the msg is <meta message end_of_track time=51>
the msg is <meta message track_name name='Acoustic Guitar' time=0>
the msg is program_change channel=0 program=24 time=0
the msg is note_off channel=0 note=69 velocity=0 time=0
the msg is pitchwheel channel=0 pitch=0 time=0
the msg is program_change channel=0 program=24 time=0
the msg is <meta message set_tempo tempo=500000 time=0>
the msg is <meta message time_signature numerator=4 denominator=4 clocks_per_click=24 notated_32nd_notes_per_beat=8 time=0>
the msg is note_on channel=0 note=69 velocity=100 time=0
the msg is note_off channel=0 note=72 velocity=0 time=166
the msg is note_on channel=0 note=72 velocity=100 time=0
the msg is note_off channel=0 note=72 velocity=0 time=12
the msg is note_on channel=0 note=72 velocity=100 time=0
the msg is note_off channel=0 note=72 velocity=0 time=12
the msg is note_on channel=0 note=72 velocity=100 time=0
the msg is note_off channel=0 note=72 velocity=0 time=25
the msg is note_on channel=0 note=72 velocity=100 time=0
the msg is note_off channel=0 note=74 velocity=0 time=25
the msg is note_on channel=0 note=74 velocity=100 time=0
the msg is note_off channel=0 note=74 velocity=0 time=12
the msg is note_on channel=0 note=74 velocity=100 time=0
the msg is note_off channel=0 note=71 velocity=0 time=12
the msg is note_on channel=0 note=71 velocity=100 time=0
the msg is note_off channel=0 note=74 velocity=0 time=25
the msg is note_on channel=0 note=74 velocity=100 time=0
the msg is note_off channel=0 note=74 velocity=0 time=12
the msg is note_on channel=0 note=74 velocity=100 time=0
the msg is note_off channel=0 note=71 velocity=0 time=12
the msg is note_on channel=0 note=71 velocity=100 time=0
the msg is note_off channel=0 note=71 velocity=0 time=12
the msg is note_on channel=0 note=71 velocity=100 time=0
the msg is note_off channel=0 note=69 velocity=0 time=12
the msg is note_on channel=0 note=69 velocity=100 time=0
the msg is note_off channel=0 note=72 velocity=0 time=115
the msg is note_on channel=0 note=72 velocity=100 time=0
the msg is note_off channel=0 note=72 velocity=0 time=34
the msg is note_on channel=0 note=72 velocity=100 time=0
the msg is note_off channel=0 note=72 velocity=0 time=4
the msg is note_on channel=0 note=72 velocity=100 time=0
the msg is note_off channel=0 note=72 velocity=0 time=12
the msg is note_on channel=0 note=72 velocity=100 time=0
the msg is note_off channel=0 note=72 velocity=0 time=17
the msg is note_on channel=0 note=72 velocity=100 time=0
the msg is note_off channel=0 note=76 velocity=0 time=17
the msg is note_on channel=0 note=76 velocity=100 time=0
the msg is note_off channel=0 note=79 velocity=0 time=17
the msg is note_on channel=0 note=79 velocity=100 time=0
the msg is note_off channel=0 note=76 velocity=0 time=34
the msg is note_on channel=0 note=76 velocity=100 time=0
the msg is note_off channel=0 note=79 velocity=0 time=17
the msg is note_on channel=0 note=79 velocity=100 time=0
the msg is note_off channel=0 note=79 velocity=0 time=17
the msg is note_on channel=0 note=79 velocity=100 time=0
the msg is note_off channel=0 note=76 velocity=0 time=17
the msg is note_on channel=0 note=76 velocity=100 time=0
the msg is note_off channel=0 note=74 velocity=0 time=4
the msg is note_on channel=0 note=74 velocity=100 time=0
the msg is note_off channel=0 note=72 velocity=0 time=12
the msg is note_on channel=0 note=72 velocity=100 time=0
the msg is note_off channel=0 note=74 velocity=0 time=34
the msg is note_on channel=0 note=74 velocity=100 time=0
the msg is note_off channel=0 note=74 velocity=0 time=17
the msg is note_on channel=0 note=74 velocity=100 time=0
the msg is note_off channel=0 note=74 velocity=0 time=34
the msg is note_on channel=0 note=74 velocity=100 time=0
the msg is note_off channel=0 note=76 velocity=0 time=17
the msg is note_on channel=0 note=76 velocity=100 time=0
the msg is note_off channel=0 note=79 velocity=0 time=34
the msg is note_on channel=0 note=79 velocity=100 time=0
the msg is note_off channel=0 note=79 velocity=0 time=17
the msg is note_off channel=0 note=76 velocity=0 time=0
the msg is note_on channel=0 note=79 velocity=100 time=0
the msg is note_on channel=0 note=76 velocity=100 time=0
the msg is note_off channel=0 note=74 velocity=0 time=25
the msg is note_on channel=0 note=74 velocity=100 time=0
the msg is note_off channel=0 note=72 velocity=0 time=8
the msg is note_on channel=0 note=72 velocity=100 time=0
the msg is note_off channel=0 note=74 velocity=0 time=17
the msg is note_on channel=0 note=74 velocity=100 time=0
the msg is note_off channel=0 note=76 velocity=0 time=34
the msg is note_on channel=0 note=76 velocity=100 time=0
the msg is note_off channel=0 note=72 velocity=0 time=4
the msg is note_on channel=0 note=72 velocity=100 time=0
the msg is note_off channel=0 note=74 velocity=0 time=12
the msg is note_on channel=0 note=74 velocity=100 time=0
the msg is note_off channel=0 note=74 velocity=0 time=34
the msg is note_on channel=0 note=74 velocity=100 time=0
the msg is note_off channel=0 note=74 velocity=0 time=17
the msg is note_on channel=0 note=74 velocity=100 time=0
the msg is note_off channel=0 note=74 velocity=0 time=17
the msg is note_on channel=0 note=74 velocity=100 time=0
the msg is note_off channel=0 note=71 velocity=0 time=17
the msg is note_on channel=0 note=71 velocity=100 time=0
the msg is note_off channel=0 note=74 velocity=0 time=17
the msg is note_on channel=0 note=74 velocity=100 time=0
the msg is note_off channel=0 note=74 velocity=0 time=34
the msg is note_on channel=0 note=74 velocity=100 time=0
the msg is note_off channel=0 note=72 velocity=0 time=4
the msg is note_on channel=0 note=72 velocity=100 time=0
the msg is note_off channel=0 note=74 velocity=0 time=29
the msg is note_on channel=0 note=74 velocity=100 time=0
the msg is note_off channel=0 note=74 velocity=0 time=21
the msg is note_on channel=0 note=74 velocity=100 time=0
the msg is note_off channel=0 note=74 velocity=0 time=12
the msg is note_on channel=0 note=74 velocity=100 time=0
the msg is note_off channel=0 note=71 velocity=0 time=17
the msg is note_on channel=0 note=71 velocity=100 time=0
the msg is note_off channel=0 note=74 velocity=0 time=8
the msg is note_on channel=0 note=74 velocity=100 time=0
the msg is note_off channel=0 note=76 velocity=0 time=25
the msg is note_on channel=0 note=76 velocity=100 time=0
the msg is note_off channel=0 note=79 velocity=0 time=25
the msg is note_on channel=0 note=79 velocity=100 time=0
the msg is note_off channel=0 note=72 velocity=0 time=12
the msg is note_on channel=0 note=72 velocity=100 time=0
the msg is note_off channel=0 note=72 velocity=0 time=12
the msg is note_on channel=0 note=72 velocity=100 time=0
the msg is note_off channel=0 note=72 velocity=0 time=12
the msg is note_on channel=0 note=72 velocity=100 time=0
the msg is note_off channel=0 note=72 velocity=0 time=25
the msg is note_on channel=0 note=72 velocity=100 time=0
the msg is note_off channel=0 note=72 velocity=0 time=12
the msg is note_on channel=0 note=72 velocity=100 time=0
the msg is note_off channel=0 note=72 velocity=0 time=12
the msg is note_on channel=0 note=72 velocity=100 time=0
the msg is <meta message end_of_track time=51>
the msg is <meta message track_name name='Acoustic Guitar' time=0>
the msg is program_change channel=0 program=24 time=0
the msg is note_off channel=0 note=69 velocity=0 time=0
the msg is pitchwheel channel=0 pitch=0 time=0
the msg is program_change channel=0 program=24 time=0
the msg is <meta message set_tempo tempo=500000 time=0>
the msg is <meta message time_signature numerator=4 denominator=4 clocks_per_click=24 notated_32nd_notes_per_beat=8 time=0>
the msg is note_on channel=0 note=69 velocity=100 time=0
the msg is note_off channel=0 note=72 velocity=0 time=166
the msg is note_on channel=0 note=72 velocity=100 time=0
the msg is note_off channel=0 note=72 velocity=0 time=12
the msg is note_on channel=0 note=72 velocity=100 time=0
the msg is note_off channel=0 note=72 velocity=0 time=12
the msg is note_on channel=0 note=72 velocity=100 time=0
the msg is note_off channel=0 note=72 velocity=0 time=25
the msg is note_on channel=0 note=72 velocity=100 time=0
the msg is note_off channel=0 note=74 velocity=0 time=25
the msg is note_on channel=0 note=74 velocity=100 time=0
the msg is note_off channel=0 note=74 velocity=0 time=12
the msg is note_on channel=0 note=74 velocity=100 time=0
the msg is note_off channel=0 note=71 velocity=0 time=12
the msg is note_on channel=0 note=71 velocity=100 time=0
the msg is note_off channel=0 note=74 velocity=0 time=25
the msg is note_on channel=0 note=74 velocity=100 time=0
the msg is note_off channel=0 note=74 velocity=0 time=12
the msg is note_on channel=0 note=74 velocity=100 time=0
the msg is note_off channel=0 note=71 velocity=0 time=12
the msg is note_on channel=0 note=71 velocity=100 time=0
the msg is note_off channel=0 note=71 velocity=0 time=12
the msg is note_on channel=0 note=71 velocity=100 time=0
the msg is note_off channel=0 note=69 velocity=0 time=12
the msg is note_on channel=0 note=69 velocity=100 time=0
the msg is note_off channel=0 note=72 velocity=0 time=115
the msg is note_on channel=0 note=72 velocity=100 time=0
the msg is note_off channel=0 note=72 velocity=0 time=34
the msg is note_on channel=0 note=72 velocity=100 time=0
the msg is note_off channel=0 note=72 velocity=0 time=4
the msg is note_on channel=0 note=72 velocity=100 time=0
the msg is note_off channel=0 note=72 velocity=0 time=12
the msg is note_on channel=0 note=72 velocity=100 time=0
the msg is note_off channel=0 note=72 velocity=0 time=17
the msg is note_on channel=0 note=72 velocity=100 time=0
the msg is note_off channel=0 note=76 velocity=0 time=17
the msg is note_on channel=0 note=76 velocity=100 time=0
the msg is note_off channel=0 note=79 velocity=0 time=17
the msg is note_on channel=0 note=79 velocity=100 time=0
the msg is note_off channel=0 note=76 velocity=0 time=34
the msg is note_on channel=0 note=76 velocity=100 time=0
the msg is note_off channel=0 note=79 velocity=0 time=17
the msg is note_on channel=0 note=79 velocity=100 time=0
the msg is note_off channel=0 note=79 velocity=0 time=17
the msg is note_on channel=0 note=79 velocity=100 time=0
the msg is note_off channel=0 note=76 velocity=0 time=17
the msg is note_on channel=0 note=76 velocity=100 time=0
the msg is note_off channel=0 note=74 velocity=0 time=4
the msg is note_on channel=0 note=74 velocity=100 time=0
the msg is note_off channel=0 note=72 velocity=0 time=12
the msg is note_on channel=0 note=72 velocity=100 time=0
the msg is note_off channel=0 note=74 velocity=0 time=34
the msg is note_on channel=0 note=74 velocity=100 time=0
the msg is note_off channel=0 note=74 velocity=0 time=17
the msg is note_on channel=0 note=74 velocity=100 time=0
the msg is note_off channel=0 note=74 velocity=0 time=34
the msg is note_on channel=0 note=74 velocity=100 time=0
the msg is note_off channel=0 note=76 velocity=0 time=17
the msg is note_on channel=0 note=76 velocity=100 time=0
the msg is note_off channel=0 note=79 velocity=0 time=34
the msg is note_on channel=0 note=79 velocity=100 time=0
the msg is note_off channel=0 note=79 velocity=0 time=17
the msg is note_off channel=0 note=76 velocity=0 time=0
the msg is note_on channel=0 note=79 velocity=100 time=0
the msg is note_on channel=0 note=76 velocity=100 time=0
the msg is note_off channel=0 note=74 velocity=0 time=25
the msg is note_on channel=0 note=74 velocity=100 time=0
the msg is note_off channel=0 note=72 velocity=0 time=8
the msg is note_on channel=0 note=72 velocity=100 time=0
the msg is note_off channel=0 note=74 velocity=0 time=17
the msg is note_on channel=0 note=74 velocity=100 time=0
the msg is note_off channel=0 note=76 velocity=0 time=34
the msg is note_on channel=0 note=76 velocity=100 time=0
the msg is note_off channel=0 note=72 velocity=0 time=4
the msg is note_on channel=0 note=72 velocity=100 time=0
the msg is note_off channel=0 note=74 velocity=0 time=12
the msg is note_on channel=0 note=74 velocity=100 time=0
the msg is note_off channel=0 note=74 velocity=0 time=34
the msg is note_on channel=0 note=74 velocity=100 time=0
the msg is note_off channel=0 note=74 velocity=0 time=17
the msg is note_on channel=0 note=74 velocity=100 time=0
the msg is note_off channel=0 note=74 velocity=0 time=17
the msg is note_on channel=0 note=74 velocity=100 time=0
the msg is note_off channel=0 note=71 velocity=0 time=17
the msg is note_on channel=0 note=71 velocity=100 time=0
the msg is note_off channel=0 note=74 velocity=0 time=17
the msg is note_on channel=0 note=74 velocity=100 time=0
the msg is note_off channel=0 note=74 velocity=0 time=34
the msg is note_on channel=0 note=74 velocity=100 time=0
the msg is note_off channel=0 note=72 velocity=0 time=4
the msg is note_on channel=0 note=72 velocity=100 time=0
the msg is note_off channel=0 note=74 velocity=0 time=29
the msg is note_on channel=0 note=74 velocity=100 time=0
the msg is note_off channel=0 note=74 velocity=0 time=21
the msg is note_on channel=0 note=74 velocity=100 time=0
the msg is note_off channel=0 note=74 velocity=0 time=12
the msg is note_on channel=0 note=74 velocity=100 time=0
the msg is note_off channel=0 note=71 velocity=0 time=17
the msg is note_on channel=0 note=71 velocity=100 time=0
the msg is note_off channel=0 note=74 velocity=0 time=8
the msg is note_on channel=0 note=74 velocity=100 time=0
the msg is note_off channel=0 note=76 velocity=0 time=25
the msg is note_on channel=0 note=76 velocity=100 time=0
the msg is note_off channel=0 note=79 velocity=0 time=25
the msg is note_on channel=0 note=79 velocity=100 time=0
the msg is note_off channel=0 note=72 velocity=0 time=12
the msg is note_on channel=0 note=72 velocity=100 time=0
the msg is note_off channel=0 note=72 velocity=0 time=12
the msg is note_on channel=0 note=72 velocity=100 time=0
the msg is note_off channel=0 note=72 velocity=0 time=12
the msg is note_on channel=0 note=72 velocity=100 time=0
the msg is note_off channel=0 note=72 velocity=0 time=25
the msg is note_on channel=0 note=72 velocity=100 time=0
the msg is note_off channel=0 note=72 velocity=0 time=12
the msg is note_on channel=0 note=72 velocity=100 time=0
the msg is note_off channel=0 note=72 velocity=0 time=12
the msg is note_on channel=0 note=72 velocity=100 time=0
the msg is <meta message end_of_track time=51>
the msg is <meta message track_name name='Acoustic Guitar' time=0>
the msg is program_change channel=0 program=24 time=0
the msg is note_off channel=0 note=69 velocity=0 time=0
the msg is pitchwheel channel=0 pitch=0 time=0
the msg is program_change channel=0 program=24 time=0
the msg is <meta message set_tempo tempo=500000 time=0>
the msg is <meta message time_signature numerator=4 denominator=4 clocks_per_click=24 notated_32nd_notes_per_beat=8 time=0>
the msg is note_on channel=0 note=69 velocity=100 time=0
the msg is note_off channel=0 note=72 velocity=0 time=166
the msg is note_on channel=0 note=72 velocity=100 time=0
the msg is note_off channel=0 note=72 velocity=0 time=12
the msg is note_on channel=0 note=72 velocity=100 time=0
the msg is note_off channel=0 note=72 velocity=0 time=12
the msg is note_on channel=0 note=72 velocity=100 time=0
the msg is note_off channel=0 note=72 velocity=0 time=25
the msg is note_on channel=0 note=72 velocity=100 time=0
the msg is note_off channel=0 note=74 velocity=0 time=25
the msg is note_on channel=0 note=74 velocity=100 time=0
the msg is note_off channel=0 note=74 velocity=0 time=12
the msg is note_on channel=0 note=74 velocity=100 time=0
the msg is note_off channel=0 note=71 velocity=0 time=12
the msg is note_on channel=0 note=71 velocity=100 time=0
the msg is note_off channel=0 note=74 velocity=0 time=25
the msg is note_on channel=0 note=74 velocity=100 time=0
the msg is note_off channel=0 note=74 velocity=0 time=12
the msg is note_on channel=0 note=74 velocity=100 time=0
the msg is note_off channel=0 note=71 velocity=0 time=12
the msg is note_on channel=0 note=71 velocity=100 time=0
the msg is note_off channel=0 note=71 velocity=0 time=12
the msg is note_on channel=0 note=71 velocity=100 time=0
the msg is note_off channel=0 note=69 velocity=0 time=12
the msg is note_on channel=0 note=69 velocity=100 time=0
the msg is note_off channel=0 note=72 velocity=0 time=115
the msg is note_on channel=0 note=72 velocity=100 time=0
the msg is note_off channel=0 note=72 velocity=0 time=34
the msg is note_on channel=0 note=72 velocity=100 time=0
the msg is note_off channel=0 note=72 velocity=0 time=4
the msg is note_on channel=0 note=72 velocity=100 time=0
the msg is note_off channel=0 note=72 velocity=0 time=12
the msg is note_on channel=0 note=72 velocity=100 time=0
the msg is note_off channel=0 note=72 velocity=0 time=17
the msg is note_on channel=0 note=72 velocity=100 time=0
the msg is note_off channel=0 note=76 velocity=0 time=17
the msg is note_on channel=0 note=76 velocity=100 time=0
the msg is note_off channel=0 note=79 velocity=0 time=17
the msg is note_on channel=0 note=79 velocity=100 time=0
the msg is note_off channel=0 note=76 velocity=0 time=34
the msg is note_on channel=0 note=76 velocity=100 time=0
the msg is note_off channel=0 note=79 velocity=0 time=17
the msg is note_on channel=0 note=79 velocity=100 time=0
the msg is note_off channel=0 note=79 velocity=0 time=17
the msg is note_on channel=0 note=79 velocity=100 time=0
the msg is note_off channel=0 note=76 velocity=0 time=17
the msg is note_on channel=0 note=76 velocity=100 time=0
the msg is note_off channel=0 note=74 velocity=0 time=4
the msg is note_on channel=0 note=74 velocity=100 time=0
the msg is note_off channel=0 note=72 velocity=0 time=12
the msg is note_on channel=0 note=72 velocity=100 time=0
the msg is note_off channel=0 note=74 velocity=0 time=34
the msg is note_on channel=0 note=74 velocity=100 time=0
the msg is note_off channel=0 note=74 velocity=0 time=17
the msg is note_on channel=0 note=74 velocity=100 time=0
the msg is note_off channel=0 note=74 velocity=0 time=34
the msg is note_on channel=0 note=74 velocity=100 time=0
the msg is note_off channel=0 note=76 velocity=0 time=17
the msg is note_on channel=0 note=76 velocity=100 time=0
the msg is note_off channel=0 note=79 velocity=0 time=34
the msg is note_on channel=0 note=79 velocity=100 time=0
the msg is note_off channel=0 note=79 velocity=0 time=17
the msg is note_off channel=0 note=76 velocity=0 time=0
the msg is note_on channel=0 note=79 velocity=100 time=0
the msg is note_on channel=0 note=76 velocity=100 time=0
the msg is note_off channel=0 note=74 velocity=0 time=25
the msg is note_on channel=0 note=74 velocity=100 time=0
the msg is note_off channel=0 note=72 velocity=0 time=8
the msg is note_on channel=0 note=72 velocity=100 time=0
the msg is note_off channel=0 note=74 velocity=0 time=17
the msg is note_on channel=0 note=74 velocity=100 time=0
the msg is note_off channel=0 note=76 velocity=0 time=34
the msg is note_on channel=0 note=76 velocity=100 time=0
the msg is note_off channel=0 note=72 velocity=0 time=4
the msg is note_on channel=0 note=72 velocity=100 time=0
the msg is note_off channel=0 note=74 velocity=0 time=12
the msg is note_on channel=0 note=74 velocity=100 time=0
the msg is note_off channel=0 note=74 velocity=0 time=34
the msg is note_on channel=0 note=74 velocity=100 time=0
the msg is note_off channel=0 note=74 velocity=0 time=17
the msg is note_on channel=0 note=74 velocity=100 time=0
the msg is note_off channel=0 note=74 velocity=0 time=17
the msg is note_on channel=0 note=74 velocity=100 time=0
the msg is note_off channel=0 note=71 velocity=0 time=17
the msg is note_on channel=0 note=71 velocity=100 time=0
the msg is note_off channel=0 note=74 velocity=0 time=17
the msg is note_on channel=0 note=74 velocity=100 time=0
the msg is note_off channel=0 note=74 velocity=0 time=34
the msg is note_on channel=0 note=74 velocity=100 time=0
the msg is note_off channel=0 note=72 velocity=0 time=4
the msg is note_on channel=0 note=72 velocity=100 time=0
the msg is note_off channel=0 note=74 velocity=0 time=29
the msg is note_on channel=0 note=74 velocity=100 time=0
the msg is note_off channel=0 note=74 velocity=0 time=21
the msg is note_on channel=0 note=74 velocity=100 time=0
the msg is note_off channel=0 note=74 velocity=0 time=12
the msg is note_on channel=0 note=74 velocity=100 time=0
the msg is note_off channel=0 note=71 velocity=0 time=17
the msg is note_on channel=0 note=71 velocity=100 time=0
the msg is note_off channel=0 note=74 velocity=0 time=8
the msg is note_on channel=0 note=74 velocity=100 time=0
the msg is note_off channel=0 note=76 velocity=0 time=25
the msg is note_on channel=0 note=76 velocity=100 time=0
the msg is note_off channel=0 note=79 velocity=0 time=25
the msg is note_on channel=0 note=79 velocity=100 time=0
the msg is note_off channel=0 note=72 velocity=0 time=12
the msg is note_on channel=0 note=72 velocity=100 time=0
the msg is note_off channel=0 note=72 velocity=0 time=12
the msg is note_on channel=0 note=72 velocity=100 time=0
the msg is note_off channel=0 note=72 velocity=0 time=12
the msg is note_on channel=0 note=72 velocity=100 time=0
the msg is note_off channel=0 note=72 velocity=0 time=25
the msg is note_on channel=0 note=72 velocity=100 time=0
the msg is note_off channel=0 note=72 velocity=0 time=12
the msg is note_on channel=0 note=72 velocity=100 time=0
the msg is note_off channel=0 note=72 velocity=0 time=12
the msg is note_on channel=0 note=72 velocity=100 time=0
the msg is <meta message end_of_track time=51>
the msg is <meta message track_name name='Acoustic Guitar' time=0>
the msg is program_change channel=0 program=24 time=0
the msg is note_off channel=0 note=69 velocity=0 time=0
the msg is pitchwheel channel=0 pitch=0 time=0
the msg is program_change channel=0 program=24 time=0
the msg is <meta message set_tempo tempo=500000 time=0>
the msg is <meta message time_signature numerator=4 denominator=4 clocks_per_click=24 notated_32nd_notes_per_beat=8 time=0>
the msg is note_on channel=0 note=69 velocity=100 time=0
the msg is note_off channel=0 note=72 velocity=0 time=166
the msg is note_on channel=0 note=72 velocity=100 time=0
the msg is note_off channel=0 note=72 velocity=0 time=12
the msg is note_on channel=0 note=72 velocity=100 time=0
the msg is note_off channel=0 note=72 velocity=0 time=12
the msg is note_on channel=0 note=72 velocity=100 time=0
the msg is note_off channel=0 note=72 velocity=0 time=25
the msg is note_on channel=0 note=72 velocity=100 time=0
the msg is note_off channel=0 note=74 velocity=0 time=25
the msg is note_on channel=0 note=74 velocity=100 time=0
the msg is note_off channel=0 note=74 velocity=0 time=12
the msg is note_on channel=0 note=74 velocity=100 time=0
the msg is note_off channel=0 note=71 velocity=0 time=12
the msg is note_on channel=0 note=71 velocity=100 time=0
the msg is note_off channel=0 note=74 velocity=0 time=25
the msg is note_on channel=0 note=74 velocity=100 time=0
the msg is note_off channel=0 note=74 velocity=0 time=12
the msg is note_on channel=0 note=74 velocity=100 time=0
the msg is note_off channel=0 note=71 velocity=0 time=12
the msg is note_on channel=0 note=71 velocity=100 time=0
the msg is note_off channel=0 note=71 velocity=0 time=12
the msg is note_on channel=0 note=71 velocity=100 time=0
the msg is note_off channel=0 note=69 velocity=0 time=12
the msg is note_on channel=0 note=69 velocity=100 time=0
the msg is note_off channel=0 note=72 velocity=0 time=115
the msg is note_on channel=0 note=72 velocity=100 time=0
the msg is note_off channel=0 note=72 velocity=0 time=34
the msg is note_on channel=0 note=72 velocity=100 time=0
the msg is note_off channel=0 note=72 velocity=0 time=4
the msg is note_on channel=0 note=72 velocity=100 time=0
the msg is note_off channel=0 note=72 velocity=0 time=12
the msg is note_on channel=0 note=72 velocity=100 time=0
the msg is note_off channel=0 note=72 velocity=0 time=17
the msg is note_on channel=0 note=72 velocity=100 time=0
the msg is note_off channel=0 note=76 velocity=0 time=17
the msg is note_on channel=0 note=76 velocity=100 time=0
the msg is note_off channel=0 note=79 velocity=0 time=17
the msg is note_on channel=0 note=79 velocity=100 time=0
the msg is note_off channel=0 note=76 velocity=0 time=34
the msg is note_on channel=0 note=76 velocity=100 time=0
the msg is note_off channel=0 note=79 velocity=0 time=17
the msg is note_on channel=0 note=79 velocity=100 time=0
the msg is note_off channel=0 note=79 velocity=0 time=17
the msg is note_on channel=0 note=79 velocity=100 time=0
the msg is note_off channel=0 note=76 velocity=0 time=17
the msg is note_on channel=0 note=76 velocity=100 time=0
the msg is note_off channel=0 note=74 velocity=0 time=4
the msg is note_on channel=0 note=74 velocity=100 time=0
the msg is note_off channel=0 note=72 velocity=0 time=12
the msg is note_on channel=0 note=72 velocity=100 time=0
the msg is note_off channel=0 note=74 velocity=0 time=34
the msg is note_on channel=0 note=74 velocity=100 time=0
the msg is note_off channel=0 note=74 velocity=0 time=17
the msg is note_on channel=0 note=74 velocity=100 time=0
the msg is note_off channel=0 note=74 velocity=0 time=34
the msg is note_on channel=0 note=74 velocity=100 time=0
the msg is note_off channel=0 note=76 velocity=0 time=17
the msg is note_on channel=0 note=76 velocity=100 time=0
the msg is note_off channel=0 note=79 velocity=0 time=34
the msg is note_on channel=0 note=79 velocity=100 time=0
the msg is note_off channel=0 note=79 velocity=0 time=17
the msg is note_off channel=0 note=76 velocity=0 time=0
the msg is note_on channel=0 note=79 velocity=100 time=0
the msg is note_on channel=0 note=76 velocity=100 time=0
the msg is note_off channel=0 note=74 velocity=0 time=25
the msg is note_on channel=0 note=74 velocity=100 time=0
the msg is note_off channel=0 note=72 velocity=0 time=8
the msg is note_on channel=0 note=72 velocity=100 time=0
the msg is note_off channel=0 note=74 velocity=0 time=17
the msg is note_on channel=0 note=74 velocity=100 time=0
the msg is note_off channel=0 note=76 velocity=0 time=34
the msg is note_on channel=0 note=76 velocity=100 time=0
the msg is note_off channel=0 note=72 velocity=0 time=4
the msg is note_on channel=0 note=72 velocity=100 time=0
the msg is note_off channel=0 note=74 velocity=0 time=12
the msg is note_on channel=0 note=74 velocity=100 time=0
the msg is note_off channel=0 note=74 velocity=0 time=34
the msg is note_on channel=0 note=74 velocity=100 time=0
the msg is note_off channel=0 note=74 velocity=0 time=17
the msg is note_on channel=0 note=74 velocity=100 time=0
the msg is note_off channel=0 note=74 velocity=0 time=17
the msg is note_on channel=0 note=74 velocity=100 time=0
the msg is note_off channel=0 note=71 velocity=0 time=17
the msg is note_on channel=0 note=71 velocity=100 time=0
the msg is note_off channel=0 note=74 velocity=0 time=17
the msg is note_on channel=0 note=74 velocity=100 time=0
the msg is note_off channel=0 note=74 velocity=0 time=34
the msg is note_on channel=0 note=74 velocity=100 time=0
the msg is note_off channel=0 note=72 velocity=0 time=4
the msg is note_on channel=0 note=72 velocity=100 time=0
the msg is note_off channel=0 note=74 velocity=0 time=29
the msg is note_on channel=0 note=74 velocity=100 time=0
the msg is note_off channel=0 note=74 velocity=0 time=21
the msg is note_on channel=0 note=74 velocity=100 time=0
the msg is note_off channel=0 note=74 velocity=0 time=12
the msg is note_on channel=0 note=74 velocity=100 time=0
the msg is note_off channel=0 note=71 velocity=0 time=17
the msg is note_on channel=0 note=71 velocity=100 time=0
the msg is note_off channel=0 note=74 velocity=0 time=8
the msg is note_on channel=0 note=74 velocity=100 time=0
the msg is note_off channel=0 note=76 velocity=0 time=25
the msg is note_on channel=0 note=76 velocity=100 time=0
the msg is note_off channel=0 note=79 velocity=0 time=25
the msg is note_on channel=0 note=79 velocity=100 time=0
the msg is note_off channel=0 note=72 velocity=0 time=12
the msg is note_on channel=0 note=72 velocity=100 time=0
the msg is note_off channel=0 note=72 velocity=0 time=12
the msg is note_on channel=0 note=72 velocity=100 time=0
the msg is note_off channel=0 note=72 velocity=0 time=12
the msg is note_on channel=0 note=72 velocity=100 time=0
the msg is note_off channel=0 note=72 velocity=0 time=25
the msg is note_on channel=0 note=72 velocity=100 time=0
the msg is note_off channel=0 note=72 velocity=0 time=12
the msg is note_on channel=0 note=72 velocity=100 time=0
the msg is note_off channel=0 note=72 velocity=0 time=12
the msg is note_on channel=0 note=72 velocity=100 time=0
the msg is <meta message end_of_track time=51>
the msg is <meta message track_name name='Acoustic Guitar' time=0>
the msg is program_change channel=0 program=24 time=0
the msg is note_off channel=0 note=69 velocity=0 time=0
the msg is pitchwheel channel=0 pitch=0 time=0
the msg is program_change channel=0 program=24 time=0
the msg is <meta message set_tempo tempo=500000 time=0>
the msg is <meta message time_signature numerator=4 denominator=4 clocks_per_click=24 notated_32nd_notes_per_beat=8 time=0>
the msg is note_on channel=0 note=69 velocity=100 time=0
the msg is note_off channel=0 note=72 velocity=0 time=166
the msg is note_on channel=0 note=72 velocity=100 time=0
the msg is note_off channel=0 note=72 velocity=0 time=12
the msg is note_on channel=0 note=72 velocity=100 time=0
the msg is note_off channel=0 note=72 velocity=0 time=12
the msg is note_on channel=0 note=72 velocity=100 time=0
the msg is note_off channel=0 note=72 velocity=0 time=25
the msg is note_on channel=0 note=72 velocity=100 time=0
the msg is note_off channel=0 note=74 velocity=0 time=25
the msg is note_on channel=0 note=74 velocity=100 time=0
the msg is note_off channel=0 note=74 velocity=0 time=12
the msg is note_on channel=0 note=74 velocity=100 time=0
the msg is note_off channel=0 note=71 velocity=0 time=12
the msg is note_on channel=0 note=71 velocity=100 time=0
the msg is note_off channel=0 note=74 velocity=0 time=25
the msg is note_on channel=0 note=74 velocity=100 time=0
the msg is note_off channel=0 note=74 velocity=0 time=12
the msg is note_on channel=0 note=74 velocity=100 time=0
the msg is note_off channel=0 note=71 velocity=0 time=12
the msg is note_on channel=0 note=71 velocity=100 time=0
the msg is note_off channel=0 note=71 velocity=0 time=12
the msg is note_on channel=0 note=71 velocity=100 time=0
the msg is note_off channel=0 note=69 velocity=0 time=12
the msg is note_on channel=0 note=69 velocity=100 time=0
the msg is note_off channel=0 note=72 velocity=0 time=115
the msg is note_on channel=0 note=72 velocity=100 time=0
the msg is note_off channel=0 note=72 velocity=0 time=34
the msg is note_on channel=0 note=72 velocity=100 time=0
the msg is note_off channel=0 note=72 velocity=0 time=4
the msg is note_on channel=0 note=72 velocity=100 time=0
the msg is note_off channel=0 note=72 velocity=0 time=12
the msg is note_on channel=0 note=72 velocity=100 time=0
the msg is note_off channel=0 note=72 velocity=0 time=17
the msg is note_on channel=0 note=72 velocity=100 time=0
the msg is note_off channel=0 note=76 velocity=0 time=17
the msg is note_on channel=0 note=76 velocity=100 time=0
the msg is note_off channel=0 note=79 velocity=0 time=17
the msg is note_on channel=0 note=79 velocity=100 time=0
the msg is note_off channel=0 note=76 velocity=0 time=34
the msg is note_on channel=0 note=76 velocity=100 time=0
the msg is note_off channel=0 note=79 velocity=0 time=17
the msg is note_on channel=0 note=79 velocity=100 time=0
the msg is note_off channel=0 note=79 velocity=0 time=17
the msg is note_on channel=0 note=79 velocity=100 time=0
the msg is note_off channel=0 note=76 velocity=0 time=17
the msg is note_on channel=0 note=76 velocity=100 time=0
the msg is note_off channel=0 note=74 velocity=0 time=4
the msg is note_on channel=0 note=74 velocity=100 time=0
the msg is note_off channel=0 note=72 velocity=0 time=12
the msg is note_on channel=0 note=72 velocity=100 time=0
the msg is note_off channel=0 note=74 velocity=0 time=34
the msg is note_on channel=0 note=74 velocity=100 time=0
the msg is note_off channel=0 note=74 velocity=0 time=17
the msg is note_on channel=0 note=74 velocity=100 time=0
the msg is note_off channel=0 note=74 velocity=0 time=34
the msg is note_on channel=0 note=74 velocity=100 time=0
the msg is note_off channel=0 note=76 velocity=0 time=17
the msg is note_on channel=0 note=76 velocity=100 time=0
the msg is note_off channel=0 note=79 velocity=0 time=34
the msg is note_on channel=0 note=79 velocity=100 time=0
the msg is note_off channel=0 note=79 velocity=0 time=17
the msg is note_off channel=0 note=76 velocity=0 time=0
the msg is note_on channel=0 note=79 velocity=100 time=0
the msg is note_on channel=0 note=76 velocity=100 time=0
the msg is note_off channel=0 note=74 velocity=0 time=25
the msg is note_on channel=0 note=74 velocity=100 time=0
the msg is note_off channel=0 note=72 velocity=0 time=8
the msg is note_on channel=0 note=72 velocity=100 time=0
the msg is note_off channel=0 note=74 velocity=0 time=17
the msg is note_on channel=0 note=74 velocity=100 time=0
the msg is note_off channel=0 note=76 velocity=0 time=34
the msg is note_on channel=0 note=76 velocity=100 time=0
the msg is note_off channel=0 note=72 velocity=0 time=4
the msg is note_on channel=0 note=72 velocity=100 time=0
the msg is note_off channel=0 note=74 velocity=0 time=12
the msg is note_on channel=0 note=74 velocity=100 time=0
the msg is note_off channel=0 note=74 velocity=0 time=34
the msg is note_on channel=0 note=74 velocity=100 time=0
the msg is note_off channel=0 note=74 velocity=0 time=17
the msg is note_on channel=0 note=74 velocity=100 time=0
the msg is note_off channel=0 note=74 velocity=0 time=17
the msg is note_on channel=0 note=74 velocity=100 time=0
the msg is note_off channel=0 note=71 velocity=0 time=17
the msg is note_on channel=0 note=71 velocity=100 time=0
the msg is note_off channel=0 note=74 velocity=0 time=17
the msg is note_on channel=0 note=74 velocity=100 time=0
the msg is note_off channel=0 note=74 velocity=0 time=34
the msg is note_on channel=0 note=74 velocity=100 time=0
the msg is note_off channel=0 note=72 velocity=0 time=4
the msg is note_on channel=0 note=72 velocity=100 time=0
the msg is note_off channel=0 note=74 velocity=0 time=29
the msg is note_on channel=0 note=74 velocity=100 time=0
the msg is note_off channel=0 note=74 velocity=0 time=21
the msg is note_on channel=0 note=74 velocity=100 time=0
the msg is note_off channel=0 note=74 velocity=0 time=12
the msg is note_on channel=0 note=74 velocity=100 time=0
the msg is note_off channel=0 note=71 velocity=0 time=17
the msg is note_on channel=0 note=71 velocity=100 time=0
the msg is note_off channel=0 note=74 velocity=0 time=8
the msg is note_on channel=0 note=74 velocity=100 time=0
the msg is note_off channel=0 note=76 velocity=0 time=25
the msg is note_on channel=0 note=76 velocity=100 time=0
the msg is note_off channel=0 note=79 velocity=0 time=25
the msg is note_on channel=0 note=79 velocity=100 time=0
the msg is note_off channel=0 note=72 velocity=0 time=12
the msg is note_on channel=0 note=72 velocity=100 time=0
the msg is note_off channel=0 note=72 velocity=0 time=12
the msg is note_on channel=0 note=72 velocity=100 time=0
the msg is note_off channel=0 note=72 velocity=0 time=12
the msg is note_on channel=0 note=72 velocity=100 time=0
the msg is note_off channel=0 note=72 velocity=0 time=25
the msg is note_on channel=0 note=72 velocity=100 time=0
the msg is note_off channel=0 note=72 velocity=0 time=12
the msg is note_on channel=0 note=72 velocity=100 time=0
the msg is note_off channel=0 note=72 velocity=0 time=12
the msg is note_on channel=0 note=72 velocity=100 time=0
the msg is <meta message end_of_track time=51>
the msg is <meta message track_name name='Acoustic Guitar' time=0>
the msg is program_change channel=0 program=24 time=0
the msg is note_off channel=0 note=69 velocity=0 time=0
the msg is pitchwheel channel=0 pitch=0 time=0
the msg is program_change channel=0 program=24 time=0
the msg is <meta message set_tempo tempo=500000 time=0>
the msg is <meta message time_signature numerator=4 denominator=4 clocks_per_click=24 notated_32nd_notes_per_beat=8 time=0>
the msg is note_on channel=0 note=69 velocity=100 time=0
the msg is note_off channel=0 note=72 velocity=0 time=166
the msg is note_on channel=0 note=72 velocity=100 time=0
the msg is note_off channel=0 note=72 velocity=0 time=12
the msg is note_on channel=0 note=72 velocity=100 time=0
the msg is note_off channel=0 note=72 velocity=0 time=12
the msg is note_on channel=0 note=72 velocity=100 time=0
the msg is note_off channel=0 note=72 velocity=0 time=25
the msg is note_on channel=0 note=72 velocity=100 time=0
the msg is note_off channel=0 note=74 velocity=0 time=25
the msg is note_on channel=0 note=74 velocity=100 time=0
the msg is note_off channel=0 note=74 velocity=0 time=12
the msg is note_on channel=0 note=74 velocity=100 time=0
the msg is note_off channel=0 note=71 velocity=0 time=12
the msg is note_on channel=0 note=71 velocity=100 time=0
the msg is note_off channel=0 note=74 velocity=0 time=25
the msg is note_on channel=0 note=74 velocity=100 time=0
the msg is note_off channel=0 note=74 velocity=0 time=12
the msg is note_on channel=0 note=74 velocity=100 time=0
the msg is note_off channel=0 note=71 velocity=0 time=12
the msg is note_on channel=0 note=71 velocity=100 time=0
the msg is note_off channel=0 note=71 velocity=0 time=12
the msg is note_on channel=0 note=71 velocity=100 time=0
the msg is note_off channel=0 note=69 velocity=0 time=12
the msg is note_on channel=0 note=69 velocity=100 time=0
the msg is note_off channel=0 note=72 velocity=0 time=115
the msg is note_on channel=0 note=72 velocity=100 time=0
the msg is note_off channel=0 note=72 velocity=0 time=34
the msg is note_on channel=0 note=72 velocity=100 time=0
the msg is note_off channel=0 note=72 velocity=0 time=4
the msg is note_on channel=0 note=72 velocity=100 time=0
the msg is note_off channel=0 note=72 velocity=0 time=12
the msg is note_on channel=0 note=72 velocity=100 time=0
the msg is note_off channel=0 note=72 velocity=0 time=17
the msg is note_on channel=0 note=72 velocity=100 time=0
the msg is note_off channel=0 note=76 velocity=0 time=17
the msg is note_on channel=0 note=76 velocity=100 time=0
the msg is note_off channel=0 note=79 velocity=0 time=17
the msg is note_on channel=0 note=79 velocity=100 time=0
the msg is note_off channel=0 note=76 velocity=0 time=34
the msg is note_on channel=0 note=76 velocity=100 time=0
the msg is note_off channel=0 note=79 velocity=0 time=17
the msg is note_on channel=0 note=79 velocity=100 time=0
the msg is note_off channel=0 note=79 velocity=0 time=17
the msg is note_on channel=0 note=79 velocity=100 time=0
the msg is note_off channel=0 note=76 velocity=0 time=17
the msg is note_on channel=0 note=76 velocity=100 time=0
the msg is note_off channel=0 note=74 velocity=0 time=4
the msg is note_on channel=0 note=74 velocity=100 time=0
the msg is note_off channel=0 note=72 velocity=0 time=12
the msg is note_on channel=0 note=72 velocity=100 time=0
the msg is note_off channel=0 note=74 velocity=0 time=34
the msg is note_on channel=0 note=74 velocity=100 time=0
the msg is note_off channel=0 note=74 velocity=0 time=17
the msg is note_on channel=0 note=74 velocity=100 time=0
the msg is note_off channel=0 note=74 velocity=0 time=34
the msg is note_on channel=0 note=74 velocity=100 time=0
the msg is note_off channel=0 note=76 velocity=0 time=17
the msg is note_on channel=0 note=76 velocity=100 time=0
the msg is note_off channel=0 note=79 velocity=0 time=34
the msg is note_on channel=0 note=79 velocity=100 time=0
the msg is note_off channel=0 note=79 velocity=0 time=17
the msg is note_off channel=0 note=76 velocity=0 time=0
the msg is note_on channel=0 note=79 velocity=100 time=0
the msg is note_on channel=0 note=76 velocity=100 time=0
the msg is note_off channel=0 note=74 velocity=0 time=25
the msg is note_on channel=0 note=74 velocity=100 time=0
the msg is note_off channel=0 note=72 velocity=0 time=8
the msg is note_on channel=0 note=72 velocity=100 time=0
the msg is note_off channel=0 note=74 velocity=0 time=17
the msg is note_on channel=0 note=74 velocity=100 time=0
the msg is note_off channel=0 note=76 velocity=0 time=34
the msg is note_on channel=0 note=76 velocity=100 time=0
the msg is note_off channel=0 note=72 velocity=0 time=4
the msg is note_on channel=0 note=72 velocity=100 time=0
the msg is note_off channel=0 note=74 velocity=0 time=12
the msg is note_on channel=0 note=74 velocity=100 time=0
the msg is note_off channel=0 note=74 velocity=0 time=34
the msg is note_on channel=0 note=74 velocity=100 time=0
the msg is note_off channel=0 note=74 velocity=0 time=17
the msg is note_on channel=0 note=74 velocity=100 time=0
the msg is note_off channel=0 note=74 velocity=0 time=17
the msg is note_on channel=0 note=74 velocity=100 time=0
the msg is note_off channel=0 note=71 velocity=0 time=17
the msg is note_on channel=0 note=71 velocity=100 time=0
the msg is note_off channel=0 note=74 velocity=0 time=17
the msg is note_on channel=0 note=74 velocity=100 time=0
the msg is note_off channel=0 note=74 velocity=0 time=34
the msg is note_on channel=0 note=74 velocity=100 time=0
the msg is note_off channel=0 note=72 velocity=0 time=4
the msg is note_on channel=0 note=72 velocity=100 time=0
the msg is note_off channel=0 note=74 velocity=0 time=29
the msg is note_on channel=0 note=74 velocity=100 time=0
the msg is note_off channel=0 note=74 velocity=0 time=21
the msg is note_on channel=0 note=74 velocity=100 time=0
the msg is note_off channel=0 note=74 velocity=0 time=12
the msg is note_on channel=0 note=74 velocity=100 time=0
the msg is note_off channel=0 note=71 velocity=0 time=17
the msg is note_on channel=0 note=71 velocity=100 time=0
the msg is note_off channel=0 note=74 velocity=0 time=8
the msg is note_on channel=0 note=74 velocity=100 time=0
the msg is note_off channel=0 note=76 velocity=0 time=25
the msg is note_on channel=0 note=76 velocity=100 time=0
the msg is note_off channel=0 note=79 velocity=0 time=25
the msg is note_on channel=0 note=79 velocity=100 time=0
the msg is note_off channel=0 note=72 velocity=0 time=12
the msg is note_on channel=0 note=72 velocity=100 time=0
the msg is note_off channel=0 note=72 velocity=0 time=12
the msg is note_on channel=0 note=72 velocity=100 time=0
the msg is note_off channel=0 note=72 velocity=0 time=12
the msg is note_on channel=0 note=72 velocity=100 time=0
the msg is note_off channel=0 note=72 velocity=0 time=25
the msg is note_on channel=0 note=72 velocity=100 time=0
the msg is note_off channel=0 note=72 velocity=0 time=12
the msg is note_on channel=0 note=72 velocity=100 time=0
the msg is note_off channel=0 note=72 velocity=0 time=12
the msg is note_on channel=0 note=72 velocity=100 time=0
the msg is <meta message end_of_track time=51>
the msg is <meta message track_name name='Acoustic Guitar' time=0>
the msg is program_change channel=0 program=24 time=0
the msg is note_off channel=0 note=69 velocity=0 time=0
the msg is pitchwheel channel=0 pitch=0 time=0
the msg is program_change channel=0 program=24 time=0
the msg is <meta message set_tempo tempo=500000 time=0>
the msg is <meta message time_signature numerator=4 denominator=4 clocks_per_click=24 notated_32nd_notes_per_beat=8 time=0>
the msg is note_on channel=0 note=69 velocity=100 time=0
the msg is note_off channel=0 note=72 velocity=0 time=166
the msg is note_on channel=0 note=72 velocity=100 time=0
the msg is note_off channel=0 note=72 velocity=0 time=12
the msg is note_on channel=0 note=72 velocity=100 time=0
the msg is note_off channel=0 note=72 velocity=0 time=12
the msg is note_on channel=0 note=72 velocity=100 time=0
the msg is note_off channel=0 note=72 velocity=0 time=25
the msg is note_on channel=0 note=72 velocity=100 time=0
the msg is note_off channel=0 note=74 velocity=0 time=25
the msg is note_on channel=0 note=74 velocity=100 time=0
the msg is note_off channel=0 note=74 velocity=0 time=12
the msg is note_on channel=0 note=74 velocity=100 time=0
the msg is note_off channel=0 note=71 velocity=0 time=12
the msg is note_on channel=0 note=71 velocity=100 time=0
the msg is note_off channel=0 note=74 velocity=0 time=25
the msg is note_on channel=0 note=74 velocity=100 time=0
the msg is note_off channel=0 note=74 velocity=0 time=12
the msg is note_on channel=0 note=74 velocity=100 time=0
the msg is note_off channel=0 note=71 velocity=0 time=12
the msg is note_on channel=0 note=71 velocity=100 time=0
the msg is note_off channel=0 note=71 velocity=0 time=12
the msg is note_on channel=0 note=71 velocity=100 time=0
the msg is note_off channel=0 note=69 velocity=0 time=12
the msg is note_on channel=0 note=69 velocity=100 time=0
the msg is note_off channel=0 note=72 velocity=0 time=115
the msg is note_on channel=0 note=72 velocity=100 time=0
the msg is note_off channel=0 note=72 velocity=0 time=34
the msg is note_on channel=0 note=72 velocity=100 time=0
the msg is note_off channel=0 note=72 velocity=0 time=4
the msg is note_on channel=0 note=72 velocity=100 time=0
the msg is note_off channel=0 note=72 velocity=0 time=12
the msg is note_on channel=0 note=72 velocity=100 time=0
the msg is note_off channel=0 note=72 velocity=0 time=17
the msg is note_on channel=0 note=72 velocity=100 time=0
the msg is note_off channel=0 note=76 velocity=0 time=17
the msg is note_on channel=0 note=76 velocity=100 time=0
the msg is note_off channel=0 note=79 velocity=0 time=17
the msg is note_on channel=0 note=79 velocity=100 time=0
the msg is note_off channel=0 note=76 velocity=0 time=34
the msg is note_on channel=0 note=76 velocity=100 time=0
the msg is note_off channel=0 note=79 velocity=0 time=17
the msg is note_on channel=0 note=79 velocity=100 time=0
the msg is note_off channel=0 note=79 velocity=0 time=17
the msg is note_on channel=0 note=79 velocity=100 time=0
the msg is note_off channel=0 note=76 velocity=0 time=17
the msg is note_on channel=0 note=76 velocity=100 time=0
the msg is note_off channel=0 note=74 velocity=0 time=4
the msg is note_on channel=0 note=74 velocity=100 time=0
the msg is note_off channel=0 note=72 velocity=0 time=12
the msg is note_on channel=0 note=72 velocity=100 time=0
the msg is note_off channel=0 note=74 velocity=0 time=34
the msg is note_on channel=0 note=74 velocity=100 time=0
the msg is note_off channel=0 note=74 velocity=0 time=17
the msg is note_on channel=0 note=74 velocity=100 time=0
the msg is note_off channel=0 note=74 velocity=0 time=34
the msg is note_on channel=0 note=74 velocity=100 time=0
the msg is note_off channel=0 note=76 velocity=0 time=17
the msg is note_on channel=0 note=76 velocity=100 time=0
the msg is note_off channel=0 note=79 velocity=0 time=34
the msg is note_on channel=0 note=79 velocity=100 time=0
the msg is note_off channel=0 note=79 velocity=0 time=17
the msg is note_off channel=0 note=76 velocity=0 time=0
the msg is note_on channel=0 note=79 velocity=100 time=0
the msg is note_on channel=0 note=76 velocity=100 time=0
the msg is note_off channel=0 note=74 velocity=0 time=25
the msg is note_on channel=0 note=74 velocity=100 time=0
the msg is note_off channel=0 note=72 velocity=0 time=8
the msg is note_on channel=0 note=72 velocity=100 time=0
the msg is note_off channel=0 note=74 velocity=0 time=17
the msg is note_on channel=0 note=74 velocity=100 time=0
the msg is note_off channel=0 note=76 velocity=0 time=34
the msg is note_on channel=0 note=76 velocity=100 time=0
the msg is note_off channel=0 note=72 velocity=0 time=4
the msg is note_on channel=0 note=72 velocity=100 time=0
the msg is note_off channel=0 note=74 velocity=0 time=12
the msg is note_on channel=0 note=74 velocity=100 time=0
the msg is note_off channel=0 note=74 velocity=0 time=34
the msg is note_on channel=0 note=74 velocity=100 time=0
the msg is note_off channel=0 note=74 velocity=0 time=17
the msg is note_on channel=0 note=74 velocity=100 time=0
the msg is note_off channel=0 note=74 velocity=0 time=17
the msg is note_on channel=0 note=74 velocity=100 time=0
the msg is note_off channel=0 note=71 velocity=0 time=17
the msg is note_on channel=0 note=71 velocity=100 time=0
the msg is note_off channel=0 note=74 velocity=0 time=17
the msg is note_on channel=0 note=74 velocity=100 time=0
the msg is note_off channel=0 note=74 velocity=0 time=34
the msg is note_on channel=0 note=74 velocity=100 time=0
the msg is note_off channel=0 note=72 velocity=0 time=4
the msg is note_on channel=0 note=72 velocity=100 time=0
the msg is note_off channel=0 note=74 velocity=0 time=29
the msg is note_on channel=0 note=74 velocity=100 time=0
the msg is note_off channel=0 note=74 velocity=0 time=21
the msg is note_on channel=0 note=74 velocity=100 time=0
the msg is note_off channel=0 note=74 velocity=0 time=12
the msg is note_on channel=0 note=74 velocity=100 time=0
the msg is note_off channel=0 note=71 velocity=0 time=17
the msg is note_on channel=0 note=71 velocity=100 time=0
the msg is note_off channel=0 note=74 velocity=0 time=8
the msg is note_on channel=0 note=74 velocity=100 time=0
the msg is note_off channel=0 note=76 velocity=0 time=25
the msg is note_on channel=0 note=76 velocity=100 time=0
the msg is note_off channel=0 note=79 velocity=0 time=25
the msg is note_on channel=0 note=79 velocity=100 time=0
the msg is note_off channel=0 note=72 velocity=0 time=12
the msg is note_on channel=0 note=72 velocity=100 time=0
the msg is note_off channel=0 note=72 velocity=0 time=12
the msg is note_on channel=0 note=72 velocity=100 time=0
the msg is note_off channel=0 note=72 velocity=0 time=12
the msg is note_on channel=0 note=72 velocity=100 time=0
the msg is note_off channel=0 note=72 velocity=0 time=25
the msg is note_on channel=0 note=72 velocity=100 time=0
the msg is note_off channel=0 note=72 velocity=0 time=12
the msg is note_on channel=0 note=72 velocity=100 time=0
the msg is note_off channel=0 note=72 velocity=0 time=12
the msg is note_on channel=0 note=72 velocity=100 time=0
the msg is <meta message end_of_track time=51>
the msg is <meta message track_name name='Acoustic Guitar' time=0>
the msg is program_change channel=0 program=24 time=0
the msg is note_off channel=0 note=69 velocity=0 time=0
the msg is pitchwheel channel=0 pitch=0 time=0
the msg is program_change channel=0 program=24 time=0
the msg is <meta message set_tempo tempo=500000 time=0>
the msg is <meta message time_signature numerator=4 denominator=4 clocks_per_click=24 notated_32nd_notes_per_beat=8 time=0>
the msg is note_on channel=0 note=69 velocity=100 time=0
the msg is note_off channel=0 note=72 velocity=0 time=166
the msg is note_on channel=0 note=72 velocity=100 time=0
the msg is note_off channel=0 note=72 velocity=0 time=12
the msg is note_on channel=0 note=72 velocity=100 time=0
the msg is note_off channel=0 note=72 velocity=0 time=12
the msg is note_on channel=0 note=72 velocity=100 time=0
the msg is note_off channel=0 note=72 velocity=0 time=25
the msg is note_on channel=0 note=72 velocity=100 time=0
the msg is note_off channel=0 note=74 velocity=0 time=25
the msg is note_on channel=0 note=74 velocity=100 time=0
the msg is note_off channel=0 note=74 velocity=0 time=12
the msg is note_on channel=0 note=74 velocity=100 time=0
the msg is note_off channel=0 note=71 velocity=0 time=12
the msg is note_on channel=0 note=71 velocity=100 time=0
the msg is note_off channel=0 note=74 velocity=0 time=25
the msg is note_on channel=0 note=74 velocity=100 time=0
the msg is note_off channel=0 note=74 velocity=0 time=12
the msg is note_on channel=0 note=74 velocity=100 time=0
the msg is note_off channel=0 note=71 velocity=0 time=12
the msg is note_on channel=0 note=71 velocity=100 time=0
the msg is note_off channel=0 note=71 velocity=0 time=12
the msg is note_on channel=0 note=71 velocity=100 time=0
the msg is note_off channel=0 note=69 velocity=0 time=12
the msg is note_on channel=0 note=69 velocity=100 time=0
the msg is note_off channel=0 note=72 velocity=0 time=115
the msg is note_on channel=0 note=72 velocity=100 time=0
the msg is note_off channel=0 note=72 velocity=0 time=34
the msg is note_on channel=0 note=72 velocity=100 time=0
the msg is note_off channel=0 note=72 velocity=0 time=4
the msg is note_on channel=0 note=72 velocity=100 time=0
the msg is note_off channel=0 note=72 velocity=0 time=12
the msg is note_on channel=0 note=72 velocity=100 time=0
the msg is note_off channel=0 note=72 velocity=0 time=17
the msg is note_on channel=0 note=72 velocity=100 time=0
the msg is note_off channel=0 note=76 velocity=0 time=17
the msg is note_on channel=0 note=76 velocity=100 time=0
the msg is note_off channel=0 note=79 velocity=0 time=17
the msg is note_on channel=0 note=79 velocity=100 time=0
the msg is note_off channel=0 note=76 velocity=0 time=34
the msg is note_on channel=0 note=76 velocity=100 time=0
the msg is note_off channel=0 note=79 velocity=0 time=17
the msg is note_on channel=0 note=79 velocity=100 time=0
the msg is note_off channel=0 note=79 velocity=0 time=17
the msg is note_on channel=0 note=79 velocity=100 time=0
the msg is note_off channel=0 note=76 velocity=0 time=17
the msg is note_on channel=0 note=76 velocity=100 time=0
the msg is note_off channel=0 note=74 velocity=0 time=4
the msg is note_on channel=0 note=74 velocity=100 time=0
the msg is note_off channel=0 note=72 velocity=0 time=12
the msg is note_on channel=0 note=72 velocity=100 time=0
the msg is note_off channel=0 note=74 velocity=0 time=34
the msg is note_on channel=0 note=74 velocity=100 time=0
the msg is note_off channel=0 note=74 velocity=0 time=17
the msg is note_on channel=0 note=74 velocity=100 time=0
the msg is note_off channel=0 note=74 velocity=0 time=34
the msg is note_on channel=0 note=74 velocity=100 time=0
the msg is note_off channel=0 note=76 velocity=0 time=17
the msg is note_on channel=0 note=76 velocity=100 time=0
the msg is note_off channel=0 note=79 velocity=0 time=34
the msg is note_on channel=0 note=79 velocity=100 time=0
the msg is note_off channel=0 note=79 velocity=0 time=17
the msg is note_off channel=0 note=76 velocity=0 time=0
the msg is note_on channel=0 note=79 velocity=100 time=0
the msg is note_on channel=0 note=76 velocity=100 time=0
the msg is note_off channel=0 note=74 velocity=0 time=25
the msg is note_on channel=0 note=74 velocity=100 time=0
the msg is note_off channel=0 note=72 velocity=0 time=8
the msg is note_on channel=0 note=72 velocity=100 time=0
the msg is note_off channel=0 note=74 velocity=0 time=17
the msg is note_on channel=0 note=74 velocity=100 time=0
the msg is note_off channel=0 note=76 velocity=0 time=34
the msg is note_on channel=0 note=76 velocity=100 time=0
the msg is note_off channel=0 note=72 velocity=0 time=4
the msg is note_on channel=0 note=72 velocity=100 time=0
the msg is note_off channel=0 note=74 velocity=0 time=12
the msg is note_on channel=0 note=74 velocity=100 time=0
the msg is note_off channel=0 note=74 velocity=0 time=34
the msg is note_on channel=0 note=74 velocity=100 time=0
the msg is note_off channel=0 note=74 velocity=0 time=17
the msg is note_on channel=0 note=74 velocity=100 time=0
the msg is note_off channel=0 note=74 velocity=0 time=17
the msg is note_on channel=0 note=74 velocity=100 time=0
the msg is note_off channel=0 note=71 velocity=0 time=17
the msg is note_on channel=0 note=71 velocity=100 time=0
the msg is note_off channel=0 note=74 velocity=0 time=17
the msg is note_on channel=0 note=74 velocity=100 time=0
the msg is note_off channel=0 note=74 velocity=0 time=34
the msg is note_on channel=0 note=74 velocity=100 time=0
the msg is note_off channel=0 note=72 velocity=0 time=4
the msg is note_on channel=0 note=72 velocity=100 time=0
the msg is note_off channel=0 note=74 velocity=0 time=29
the msg is note_on channel=0 note=74 velocity=100 time=0
the msg is note_off channel=0 note=74 velocity=0 time=21
the msg is note_on channel=0 note=74 velocity=100 time=0
the msg is note_off channel=0 note=74 velocity=0 time=12
the msg is note_on channel=0 note=74 velocity=100 time=0
the msg is note_off channel=0 note=71 velocity=0 time=17
the msg is note_on channel=0 note=71 velocity=100 time=0
the msg is note_off channel=0 note=74 velocity=0 time=8
the msg is note_on channel=0 note=74 velocity=100 time=0
the msg is note_off channel=0 note=76 velocity=0 time=25
the msg is note_on channel=0 note=76 velocity=100 time=0
the msg is note_off channel=0 note=79 velocity=0 time=25
the msg is note_on channel=0 note=79 velocity=100 time=0
the msg is note_off channel=0 note=72 velocity=0 time=12
the msg is note_on channel=0 note=72 velocity=100 time=0
the msg is note_off channel=0 note=72 velocity=0 time=12
the msg is note_on channel=0 note=72 velocity=100 time=0
the msg is note_off channel=0 note=72 velocity=0 time=12
the msg is note_on channel=0 note=72 velocity=100 time=0
the msg is note_off channel=0 note=72 velocity=0 time=25
the msg is note_on channel=0 note=72 velocity=100 time=0
the msg is note_off channel=0 note=72 velocity=0 time=12
the msg is note_on channel=0 note=72 velocity=100 time=0
the msg is note_off channel=0 note=72 velocity=0 time=12
the msg is note_on channel=0 note=72 velocity=100 time=0
the msg is <meta message end_of_track time=51>
the msg is <meta message track_name name='Acoustic Guitar' time=0>
the msg is program_change channel=0 program=24 time=0
the msg is note_off channel=0 note=69 velocity=0 time=0
the msg is pitchwheel channel=0 pitch=0 time=0
the msg is program_change channel=0 program=24 time=0
the msg is <meta message set_tempo tempo=500000 time=0>
the msg is <meta message time_signature numerator=4 denominator=4 clocks_per_click=24 notated_32nd_notes_per_beat=8 time=0>
the msg is note_on channel=0 note=69 velocity=100 time=0
the msg is note_off channel=0 note=72 velocity=0 time=166
the msg is note_on channel=0 note=72 velocity=100 time=0
the msg is note_off channel=0 note=72 velocity=0 time=12
the msg is note_on channel=0 note=72 velocity=100 time=0
the msg is note_off channel=0 note=72 velocity=0 time=12
the msg is note_on channel=0 note=72 velocity=100 time=0
the msg is note_off channel=0 note=72 velocity=0 time=25
the msg is note_on channel=0 note=72 velocity=100 time=0
the msg is note_off channel=0 note=74 velocity=0 time=25
the msg is note_on channel=0 note=74 velocity=100 time=0
the msg is note_off channel=0 note=74 velocity=0 time=12
the msg is note_on channel=0 note=74 velocity=100 time=0
the msg is note_off channel=0 note=71 velocity=0 time=12
the msg is note_on channel=0 note=71 velocity=100 time=0
the msg is note_off channel=0 note=74 velocity=0 time=25
the msg is note_on channel=0 note=74 velocity=100 time=0
the msg is note_off channel=0 note=74 velocity=0 time=12
the msg is note_on channel=0 note=74 velocity=100 time=0
the msg is note_off channel=0 note=71 velocity=0 time=12
the msg is note_on channel=0 note=71 velocity=100 time=0
the msg is note_off channel=0 note=71 velocity=0 time=12
the msg is note_on channel=0 note=71 velocity=100 time=0
the msg is note_off channel=0 note=69 velocity=0 time=12
the msg is note_on channel=0 note=69 velocity=100 time=0
the msg is note_off channel=0 note=72 velocity=0 time=115
the msg is note_on channel=0 note=72 velocity=100 time=0
the msg is note_off channel=0 note=72 velocity=0 time=34
the msg is note_on channel=0 note=72 velocity=100 time=0
the msg is note_off channel=0 note=72 velocity=0 time=4
the msg is note_on channel=0 note=72 velocity=100 time=0
the msg is note_off channel=0 note=72 velocity=0 time=12
the msg is note_on channel=0 note=72 velocity=100 time=0
the msg is note_off channel=0 note=72 velocity=0 time=17
the msg is note_on channel=0 note=72 velocity=100 time=0
the msg is note_off channel=0 note=76 velocity=0 time=17
the msg is note_on channel=0 note=76 velocity=100 time=0
the msg is note_off channel=0 note=79 velocity=0 time=17
the msg is note_on channel=0 note=79 velocity=100 time=0
the msg is note_off channel=0 note=76 velocity=0 time=34
the msg is note_on channel=0 note=76 velocity=100 time=0
the msg is note_off channel=0 note=79 velocity=0 time=17
the msg is note_on channel=0 note=79 velocity=100 time=0
the msg is note_off channel=0 note=79 velocity=0 time=17
the msg is note_on channel=0 note=79 velocity=100 time=0
the msg is note_off channel=0 note=76 velocity=0 time=17
the msg is note_on channel=0 note=76 velocity=100 time=0
the msg is note_off channel=0 note=74 velocity=0 time=4
the msg is note_on channel=0 note=74 velocity=100 time=0
the msg is note_off channel=0 note=72 velocity=0 time=12
the msg is note_on channel=0 note=72 velocity=100 time=0
the msg is note_off channel=0 note=74 velocity=0 time=34
the msg is note_on channel=0 note=74 velocity=100 time=0
the msg is note_off channel=0 note=74 velocity=0 time=17
the msg is note_on channel=0 note=74 velocity=100 time=0
the msg is note_off channel=0 note=74 velocity=0 time=34
the msg is note_on channel=0 note=74 velocity=100 time=0
the msg is note_off channel=0 note=76 velocity=0 time=17
the msg is note_on channel=0 note=76 velocity=100 time=0
the msg is note_off channel=0 note=79 velocity=0 time=34
the msg is note_on channel=0 note=79 velocity=100 time=0
the msg is note_off channel=0 note=79 velocity=0 time=17
the msg is note_off channel=0 note=76 velocity=0 time=0
the msg is note_on channel=0 note=79 velocity=100 time=0
the msg is note_on channel=0 note=76 velocity=100 time=0
the msg is note_off channel=0 note=74 velocity=0 time=25
the msg is note_on channel=0 note=74 velocity=100 time=0
the msg is note_off channel=0 note=72 velocity=0 time=8
the msg is note_on channel=0 note=72 velocity=100 time=0
the msg is note_off channel=0 note=74 velocity=0 time=17
the msg is note_on channel=0 note=74 velocity=100 time=0
the msg is note_off channel=0 note=76 velocity=0 time=34
the msg is note_on channel=0 note=76 velocity=100 time=0
the msg is note_off channel=0 note=72 velocity=0 time=4
the msg is note_on channel=0 note=72 velocity=100 time=0
the msg is note_off channel=0 note=74 velocity=0 time=12
the msg is note_on channel=0 note=74 velocity=100 time=0
the msg is note_off channel=0 note=74 velocity=0 time=34
the msg is note_on channel=0 note=74 velocity=100 time=0
the msg is note_off channel=0 note=74 velocity=0 time=17
the msg is note_on channel=0 note=74 velocity=100 time=0
the msg is note_off channel=0 note=74 velocity=0 time=17
the msg is note_on channel=0 note=74 velocity=100 time=0
the msg is note_off channel=0 note=71 velocity=0 time=17
the msg is note_on channel=0 note=71 velocity=100 time=0
the msg is note_off channel=0 note=74 velocity=0 time=17
the msg is note_on channel=0 note=74 velocity=100 time=0
the msg is note_off channel=0 note=74 velocity=0 time=34
the msg is note_on channel=0 note=74 velocity=100 time=0
the msg is note_off channel=0 note=72 velocity=0 time=4
the msg is note_on channel=0 note=72 velocity=100 time=0
the msg is note_off channel=0 note=74 velocity=0 time=29
the msg is note_on channel=0 note=74 velocity=100 time=0
the msg is note_off channel=0 note=74 velocity=0 time=21
the msg is note_on channel=0 note=74 velocity=100 time=0
the msg is note_off channel=0 note=74 velocity=0 time=12
the msg is note_on channel=0 note=74 velocity=100 time=0
the msg is note_off channel=0 note=71 velocity=0 time=17
the msg is note_on channel=0 note=71 velocity=100 time=0
the msg is note_off channel=0 note=74 velocity=0 time=8
the msg is note_on channel=0 note=74 velocity=100 time=0
the msg is note_off channel=0 note=76 velocity=0 time=25
the msg is note_on channel=0 note=76 velocity=100 time=0
the msg is note_off channel=0 note=79 velocity=0 time=25
the msg is note_on channel=0 note=79 velocity=100 time=0
the msg is note_off channel=0 note=72 velocity=0 time=12
the msg is note_on channel=0 note=72 velocity=100 time=0
the msg is note_off channel=0 note=72 velocity=0 time=12
the msg is note_on channel=0 note=72 velocity=100 time=0
the msg is note_off channel=0 note=72 velocity=0 time=12
the msg is note_on channel=0 note=72 velocity=100 time=0
the msg is note_off channel=0 note=72 velocity=0 time=25
the msg is note_on channel=0 note=72 velocity=100 time=0
the msg is note_off channel=0 note=72 velocity=0 time=12
the msg is note_on channel=0 note=72 velocity=100 time=0
the msg is note_off channel=0 note=72 velocity=0 time=12
the msg is note_on channel=0 note=72 velocity=100 time=0
the msg is <meta message end_of_track time=51>
the msg is <meta message track_name name='Acoustic Guitar' time=0>
the msg is program_change channel=0 program=24 time=0
the msg is note_off channel=0 note=69 velocity=0 time=0
the msg is pitchwheel channel=0 pitch=0 time=0
the msg is program_change channel=0 program=24 time=0
the msg is <meta message set_tempo tempo=500000 time=0>
the msg is <meta message time_signature numerator=4 denominator=4 clocks_per_click=24 notated_32nd_notes_per_beat=8 time=0>
the msg is note_on channel=0 note=69 velocity=100 time=0
the msg is note_off channel=0 note=72 velocity=0 time=166
the msg is note_on channel=0 note=72 velocity=100 time=0
the msg is note_off channel=0 note=72 velocity=0 time=12
the msg is note_on channel=0 note=72 velocity=100 time=0
the msg is note_off channel=0 note=72 velocity=0 time=12
the msg is note_on channel=0 note=72 velocity=100 time=0
the msg is note_off channel=0 note=72 velocity=0 time=25
the msg is note_on channel=0 note=72 velocity=100 time=0
the msg is note_off channel=0 note=74 velocity=0 time=25
the msg is note_on channel=0 note=74 velocity=100 time=0
the msg is note_off channel=0 note=74 velocity=0 time=12
the msg is note_on channel=0 note=74 velocity=100 time=0
the msg is note_off channel=0 note=71 velocity=0 time=12
the msg is note_on channel=0 note=71 velocity=100 time=0
the msg is note_off channel=0 note=74 velocity=0 time=25
the msg is note_on channel=0 note=74 velocity=100 time=0
the msg is note_off channel=0 note=74 velocity=0 time=12
the msg is note_on channel=0 note=74 velocity=100 time=0
the msg is note_off channel=0 note=71 velocity=0 time=12
the msg is note_on channel=0 note=71 velocity=100 time=0
the msg is note_off channel=0 note=71 velocity=0 time=12
the msg is note_on channel=0 note=71 velocity=100 time=0
the msg is note_off channel=0 note=69 velocity=0 time=12
the msg is note_on channel=0 note=69 velocity=100 time=0
the msg is note_off channel=0 note=72 velocity=0 time=115
the msg is note_on channel=0 note=72 velocity=100 time=0
the msg is note_off channel=0 note=72 velocity=0 time=34
the msg is note_on channel=0 note=72 velocity=100 time=0
the msg is note_off channel=0 note=72 velocity=0 time=4
the msg is note_on channel=0 note=72 velocity=100 time=0
the msg is note_off channel=0 note=72 velocity=0 time=12
the msg is note_on channel=0 note=72 velocity=100 time=0
the msg is note_off channel=0 note=72 velocity=0 time=17
the msg is note_on channel=0 note=72 velocity=100 time=0
the msg is note_off channel=0 note=76 velocity=0 time=17
the msg is note_on channel=0 note=76 velocity=100 time=0
the msg is note_off channel=0 note=79 velocity=0 time=17
the msg is note_on channel=0 note=79 velocity=100 time=0
the msg is note_off channel=0 note=76 velocity=0 time=34
the msg is note_on channel=0 note=76 velocity=100 time=0
the msg is note_off channel=0 note=79 velocity=0 time=17
the msg is note_on channel=0 note=79 velocity=100 time=0
the msg is note_off channel=0 note=79 velocity=0 time=17
the msg is note_on channel=0 note=79 velocity=100 time=0
the msg is note_off channel=0 note=76 velocity=0 time=17
the msg is note_on channel=0 note=76 velocity=100 time=0
the msg is note_off channel=0 note=74 velocity=0 time=4
the msg is note_on channel=0 note=74 velocity=100 time=0
the msg is note_off channel=0 note=72 velocity=0 time=12
the msg is note_on channel=0 note=72 velocity=100 time=0
the msg is note_off channel=0 note=74 velocity=0 time=34
the msg is note_on channel=0 note=74 velocity=100 time=0
the msg is note_off channel=0 note=74 velocity=0 time=17
the msg is note_on channel=0 note=74 velocity=100 time=0
the msg is note_off channel=0 note=74 velocity=0 time=34
the msg is note_on channel=0 note=74 velocity=100 time=0
the msg is note_off channel=0 note=76 velocity=0 time=17
the msg is note_on channel=0 note=76 velocity=100 time=0
the msg is note_off channel=0 note=79 velocity=0 time=34
the msg is note_on channel=0 note=79 velocity=100 time=0
the msg is note_off channel=0 note=79 velocity=0 time=17
the msg is note_off channel=0 note=76 velocity=0 time=0
the msg is note_on channel=0 note=79 velocity=100 time=0
the msg is note_on channel=0 note=76 velocity=100 time=0
the msg is note_off channel=0 note=74 velocity=0 time=25
the msg is note_on channel=0 note=74 velocity=100 time=0
the msg is note_off channel=0 note=72 velocity=0 time=8
the msg is note_on channel=0 note=72 velocity=100 time=0
the msg is note_off channel=0 note=74 velocity=0 time=17
the msg is note_on channel=0 note=74 velocity=100 time=0
the msg is note_off channel=0 note=76 velocity=0 time=34
the msg is note_on channel=0 note=76 velocity=100 time=0
the msg is note_off channel=0 note=72 velocity=0 time=4
the msg is note_on channel=0 note=72 velocity=100 time=0
the msg is note_off channel=0 note=74 velocity=0 time=12
the msg is note_on channel=0 note=74 velocity=100 time=0
the msg is note_off channel=0 note=74 velocity=0 time=34
the msg is note_on channel=0 note=74 velocity=100 time=0
the msg is note_off channel=0 note=74 velocity=0 time=17
the msg is note_on channel=0 note=74 velocity=100 time=0
the msg is note_off channel=0 note=74 velocity=0 time=17
the msg is note_on channel=0 note=74 velocity=100 time=0
the msg is note_off channel=0 note=71 velocity=0 time=17
the msg is note_on channel=0 note=71 velocity=100 time=0
the msg is note_off channel=0 note=74 velocity=0 time=17
the msg is note_on channel=0 note=74 velocity=100 time=0
the msg is note_off channel=0 note=74 velocity=0 time=34
the msg is note_on channel=0 note=74 velocity=100 time=0
the msg is note_off channel=0 note=72 velocity=0 time=4
the msg is note_on channel=0 note=72 velocity=100 time=0
the msg is note_off channel=0 note=74 velocity=0 time=29
the msg is note_on channel=0 note=74 velocity=100 time=0
the msg is note_off channel=0 note=74 velocity=0 time=21
the msg is note_on channel=0 note=74 velocity=100 time=0
the msg is note_off channel=0 note=74 velocity=0 time=12
the msg is note_on channel=0 note=74 velocity=100 time=0
the msg is note_off channel=0 note=71 velocity=0 time=17
the msg is note_on channel=0 note=71 velocity=100 time=0
the msg is note_off channel=0 note=74 velocity=0 time=8
the msg is note_on channel=0 note=74 velocity=100 time=0
the msg is note_off channel=0 note=76 velocity=0 time=25
the msg is note_on channel=0 note=76 velocity=100 time=0
the msg is note_off channel=0 note=79 velocity=0 time=25
the msg is note_on channel=0 note=79 velocity=100 time=0
the msg is note_off channel=0 note=72 velocity=0 time=12
the msg is note_on channel=0 note=72 velocity=100 time=0
the msg is note_off channel=0 note=72 velocity=0 time=12
the msg is note_on channel=0 note=72 velocity=100 time=0
the msg is note_off channel=0 note=72 velocity=0 time=12
the msg is note_on channel=0 note=72 velocity=100 time=0
the msg is note_off channel=0 note=72 velocity=0 time=25
the msg is note_on channel=0 note=72 velocity=100 time=0
the msg is note_off channel=0 note=72 velocity=0 time=12
the msg is note_on channel=0 note=72 velocity=100 time=0
the msg is note_off channel=0 note=72 velocity=0 time=12
the msg is note_on channel=0 note=72 velocity=100 time=0
the msg is <meta message end_of_track time=51>
the msg is <meta message track_name name='Acoustic Guitar' time=0>
the msg is program_change channel=0 program=24 time=0
the msg is note_off channel=0 note=69 velocity=0 time=0
the msg is pitchwheel channel=0 pitch=0 time=0
the msg is program_change channel=0 program=24 time=0
the msg is <meta message set_tempo tempo=500000 time=0>
the msg is <meta message time_signature numerator=4 denominator=4 clocks_per_click=24 notated_32nd_notes_per_beat=8 time=0>
the msg is note_on channel=0 note=69 velocity=100 time=0
the msg is note_off channel=0 note=72 velocity=0 time=166
the msg is note_on channel=0 note=72 velocity=100 time=0
the msg is note_off channel=0 note=72 velocity=0 time=12
the msg is note_on channel=0 note=72 velocity=100 time=0
the msg is note_off channel=0 note=72 velocity=0 time=12
the msg is note_on channel=0 note=72 velocity=100 time=0
the msg is note_off channel=0 note=72 velocity=0 time=25
the msg is note_on channel=0 note=72 velocity=100 time=0
the msg is note_off channel=0 note=74 velocity=0 time=25
the msg is note_on channel=0 note=74 velocity=100 time=0
the msg is note_off channel=0 note=74 velocity=0 time=12
the msg is note_on channel=0 note=74 velocity=100 time=0
the msg is note_off channel=0 note=71 velocity=0 time=12
the msg is note_on channel=0 note=71 velocity=100 time=0
the msg is note_off channel=0 note=74 velocity=0 time=25
the msg is note_on channel=0 note=74 velocity=100 time=0
the msg is note_off channel=0 note=74 velocity=0 time=12
the msg is note_on channel=0 note=74 velocity=100 time=0
the msg is note_off channel=0 note=71 velocity=0 time=12
the msg is note_on channel=0 note=71 velocity=100 time=0
the msg is note_off channel=0 note=71 velocity=0 time=12
the msg is note_on channel=0 note=71 velocity=100 time=0
the msg is note_off channel=0 note=69 velocity=0 time=12
the msg is note_on channel=0 note=69 velocity=100 time=0
the msg is note_off channel=0 note=72 velocity=0 time=115
the msg is note_on channel=0 note=72 velocity=100 time=0
the msg is note_off channel=0 note=72 velocity=0 time=34
the msg is note_on channel=0 note=72 velocity=100 time=0
the msg is note_off channel=0 note=72 velocity=0 time=4
the msg is note_on channel=0 note=72 velocity=100 time=0
the msg is note_off channel=0 note=72 velocity=0 time=12
the msg is note_on channel=0 note=72 velocity=100 time=0
the msg is note_off channel=0 note=72 velocity=0 time=17
the msg is note_on channel=0 note=72 velocity=100 time=0
the msg is note_off channel=0 note=76 velocity=0 time=17
the msg is note_on channel=0 note=76 velocity=100 time=0
the msg is note_off channel=0 note=79 velocity=0 time=17
the msg is note_on channel=0 note=79 velocity=100 time=0
the msg is note_off channel=0 note=76 velocity=0 time=34
the msg is note_on channel=0 note=76 velocity=100 time=0
the msg is note_off channel=0 note=79 velocity=0 time=17
the msg is note_on channel=0 note=79 velocity=100 time=0
the msg is note_off channel=0 note=79 velocity=0 time=17
the msg is note_on channel=0 note=79 velocity=100 time=0
the msg is note_off channel=0 note=76 velocity=0 time=17
the msg is note_on channel=0 note=76 velocity=100 time=0
the msg is note_off channel=0 note=74 velocity=0 time=4
the msg is note_on channel=0 note=74 velocity=100 time=0
the msg is note_off channel=0 note=72 velocity=0 time=12
the msg is note_on channel=0 note=72 velocity=100 time=0
the msg is note_off channel=0 note=74 velocity=0 time=34
the msg is note_on channel=0 note=74 velocity=100 time=0
the msg is note_off channel=0 note=74 velocity=0 time=17
the msg is note_on channel=0 note=74 velocity=100 time=0
the msg is note_off channel=0 note=74 velocity=0 time=34
the msg is note_on channel=0 note=74 velocity=100 time=0
the msg is note_off channel=0 note=76 velocity=0 time=17
the msg is note_on channel=0 note=76 velocity=100 time=0
the msg is note_off channel=0 note=79 velocity=0 time=34
the msg is note_on channel=0 note=79 velocity=100 time=0
the msg is note_off channel=0 note=79 velocity=0 time=17
the msg is note_off channel=0 note=76 velocity=0 time=0
the msg is note_on channel=0 note=79 velocity=100 time=0
the msg is note_on channel=0 note=76 velocity=100 time=0
the msg is note_off channel=0 note=74 velocity=0 time=25
the msg is note_on channel=0 note=74 velocity=100 time=0
the msg is note_off channel=0 note=72 velocity=0 time=8
the msg is note_on channel=0 note=72 velocity=100 time=0
the msg is note_off channel=0 note=74 velocity=0 time=17
the msg is note_on channel=0 note=74 velocity=100 time=0
the msg is note_off channel=0 note=76 velocity=0 time=34
the msg is note_on channel=0 note=76 velocity=100 time=0
the msg is note_off channel=0 note=72 velocity=0 time=4
the msg is note_on channel=0 note=72 velocity=100 time=0
the msg is note_off channel=0 note=74 velocity=0 time=12
the msg is note_on channel=0 note=74 velocity=100 time=0
the msg is note_off channel=0 note=74 velocity=0 time=34
the msg is note_on channel=0 note=74 velocity=100 time=0
the msg is note_off channel=0 note=74 velocity=0 time=17
the msg is note_on channel=0 note=74 velocity=100 time=0
the msg is note_off channel=0 note=74 velocity=0 time=17
the msg is note_on channel=0 note=74 velocity=100 time=0
the msg is note_off channel=0 note=71 velocity=0 time=17
the msg is note_on channel=0 note=71 velocity=100 time=0
the msg is note_off channel=0 note=74 velocity=0 time=17
the msg is note_on channel=0 note=74 velocity=100 time=0
the msg is note_off channel=0 note=74 velocity=0 time=34
the msg is note_on channel=0 note=74 velocity=100 time=0
the msg is note_off channel=0 note=72 velocity=0 time=4
the msg is note_on channel=0 note=72 velocity=100 time=0
the msg is note_off channel=0 note=74 velocity=0 time=29
the msg is note_on channel=0 note=74 velocity=100 time=0
the msg is note_off channel=0 note=74 velocity=0 time=21
the msg is note_on channel=0 note=74 velocity=100 time=0
the msg is note_off channel=0 note=74 velocity=0 time=12
the msg is note_on channel=0 note=74 velocity=100 time=0
the msg is note_off channel=0 note=71 velocity=0 time=17
the msg is note_on channel=0 note=71 velocity=100 time=0
the msg is note_off channel=0 note=74 velocity=0 time=8
the msg is note_on channel=0 note=74 velocity=100 time=0
the msg is note_off channel=0 note=76 velocity=0 time=25
the msg is note_on channel=0 note=76 velocity=100 time=0
the msg is note_off channel=0 note=79 velocity=0 time=25
the msg is note_on channel=0 note=79 velocity=100 time=0
the msg is note_off channel=0 note=72 velocity=0 time=12
the msg is note_on channel=0 note=72 velocity=100 time=0
the msg is note_off channel=0 note=72 velocity=0 time=12
the msg is note_on channel=0 note=72 velocity=100 time=0
the msg is note_off channel=0 note=72 velocity=0 time=12
the msg is note_on channel=0 note=72 velocity=100 time=0
the msg is note_off channel=0 note=72 velocity=0 time=25
the msg is note_on channel=0 note=72 velocity=100 time=0
the msg is note_off channel=0 note=72 velocity=0 time=12
the msg is note_on channel=0 note=72 velocity=100 time=0
the msg is note_off channel=0 note=72 velocity=0 time=12
the msg is note_on channel=0 note=72 velocity=100 time=0
the msg is <meta message end_of_track time=51>
the msg is <meta message track_name name='Acoustic Guitar' time=0>
the msg is program_change channel=0 program=24 time=0
the msg is note_off channel=0 note=69 velocity=0 time=0
the msg is pitchwheel channel=0 pitch=0 time=0
the msg is program_change channel=0 program=24 time=0
the msg is <meta message set_tempo tempo=500000 time=0>
the msg is <meta message time_signature numerator=4 denominator=4 clocks_per_click=24 notated_32nd_notes_per_beat=8 time=0>
the msg is note_on channel=0 note=69 velocity=100 time=0
the msg is note_off channel=0 note=72 velocity=0 time=166
the msg is note_on channel=0 note=72 velocity=100 time=0
the msg is note_off channel=0 note=72 velocity=0 time=12
the msg is note_on channel=0 note=72 velocity=100 time=0
the msg is note_off channel=0 note=72 velocity=0 time=12
the msg is note_on channel=0 note=72 velocity=100 time=0
the msg is note_off channel=0 note=72 velocity=0 time=25
the msg is note_on channel=0 note=72 velocity=100 time=0
the msg is note_off channel=0 note=74 velocity=0 time=25
the msg is note_on channel=0 note=74 velocity=100 time=0
the msg is note_off channel=0 note=74 velocity=0 time=12
the msg is note_on channel=0 note=74 velocity=100 time=0
the msg is note_off channel=0 note=71 velocity=0 time=12
the msg is note_on channel=0 note=71 velocity=100 time=0
the msg is note_off channel=0 note=74 velocity=0 time=25
the msg is note_on channel=0 note=74 velocity=100 time=0
the msg is note_off channel=0 note=74 velocity=0 time=12
the msg is note_on channel=0 note=74 velocity=100 time=0
the msg is note_off channel=0 note=71 velocity=0 time=12
the msg is note_on channel=0 note=71 velocity=100 time=0
the msg is note_off channel=0 note=71 velocity=0 time=12
the msg is note_on channel=0 note=71 velocity=100 time=0
the msg is note_off channel=0 note=69 velocity=0 time=12
the msg is note_on channel=0 note=69 velocity=100 time=0
the msg is note_off channel=0 note=72 velocity=0 time=115
the msg is note_on channel=0 note=72 velocity=100 time=0
the msg is note_off channel=0 note=72 velocity=0 time=34
the msg is note_on channel=0 note=72 velocity=100 time=0
the msg is note_off channel=0 note=72 velocity=0 time=4
the msg is note_on channel=0 note=72 velocity=100 time=0
the msg is note_off channel=0 note=72 velocity=0 time=12
the msg is note_on channel=0 note=72 velocity=100 time=0
the msg is note_off channel=0 note=72 velocity=0 time=17
the msg is note_on channel=0 note=72 velocity=100 time=0
the msg is note_off channel=0 note=76 velocity=0 time=17
the msg is note_on channel=0 note=76 velocity=100 time=0
the msg is note_off channel=0 note=79 velocity=0 time=17
the msg is note_on channel=0 note=79 velocity=100 time=0
the msg is note_off channel=0 note=76 velocity=0 time=34
the msg is note_on channel=0 note=76 velocity=100 time=0
the msg is note_off channel=0 note=79 velocity=0 time=17
the msg is note_on channel=0 note=79 velocity=100 time=0
the msg is note_off channel=0 note=79 velocity=0 time=17
the msg is note_on channel=0 note=79 velocity=100 time=0
the msg is note_off channel=0 note=76 velocity=0 time=17
the msg is note_on channel=0 note=76 velocity=100 time=0
the msg is note_off channel=0 note=74 velocity=0 time=4
the msg is note_on channel=0 note=74 velocity=100 time=0
the msg is note_off channel=0 note=72 velocity=0 time=12
the msg is note_on channel=0 note=72 velocity=100 time=0
the msg is note_off channel=0 note=74 velocity=0 time=34
the msg is note_on channel=0 note=74 velocity=100 time=0
the msg is note_off channel=0 note=74 velocity=0 time=17
the msg is note_on channel=0 note=74 velocity=100 time=0
the msg is note_off channel=0 note=74 velocity=0 time=34
the msg is note_on channel=0 note=74 velocity=100 time=0
the msg is note_off channel=0 note=76 velocity=0 time=17
the msg is note_on channel=0 note=76 velocity=100 time=0
the msg is note_off channel=0 note=79 velocity=0 time=34
the msg is note_on channel=0 note=79 velocity=100 time=0
the msg is note_off channel=0 note=79 velocity=0 time=17
the msg is note_off channel=0 note=76 velocity=0 time=0
the msg is note_on channel=0 note=79 velocity=100 time=0
the msg is note_on channel=0 note=76 velocity=100 time=0
the msg is note_off channel=0 note=74 velocity=0 time=25
the msg is note_on channel=0 note=74 velocity=100 time=0
the msg is note_off channel=0 note=72 velocity=0 time=8
the msg is note_on channel=0 note=72 velocity=100 time=0
the msg is note_off channel=0 note=74 velocity=0 time=17
the msg is note_on channel=0 note=74 velocity=100 time=0
the msg is note_off channel=0 note=76 velocity=0 time=34
the msg is note_on channel=0 note=76 velocity=100 time=0
the msg is note_off channel=0 note=72 velocity=0 time=4
the msg is note_on channel=0 note=72 velocity=100 time=0
the msg is note_off channel=0 note=74 velocity=0 time=12
the msg is note_on channel=0 note=74 velocity=100 time=0
the msg is note_off channel=0 note=74 velocity=0 time=34
the msg is note_on channel=0 note=74 velocity=100 time=0
the msg is note_off channel=0 note=74 velocity=0 time=17
the msg is note_on channel=0 note=74 velocity=100 time=0
the msg is note_off channel=0 note=74 velocity=0 time=17
the msg is note_on channel=0 note=74 velocity=100 time=0
the msg is note_off channel=0 note=71 velocity=0 time=17
the msg is note_on channel=0 note=71 velocity=100 time=0
the msg is note_off channel=0 note=74 velocity=0 time=17
the msg is note_on channel=0 note=74 velocity=100 time=0
the msg is note_off channel=0 note=74 velocity=0 time=34
the msg is note_on channel=0 note=74 velocity=100 time=0
the msg is note_off channel=0 note=72 velocity=0 time=4
the msg is note_on channel=0 note=72 velocity=100 time=0
the msg is note_off channel=0 note=74 velocity=0 time=29
the msg is note_on channel=0 note=74 velocity=100 time=0
the msg is note_off channel=0 note=74 velocity=0 time=21
the msg is note_on channel=0 note=74 velocity=100 time=0
the msg is note_off channel=0 note=74 velocity=0 time=12
the msg is note_on channel=0 note=74 velocity=100 time=0
the msg is note_off channel=0 note=71 velocity=0 time=17
the msg is note_on channel=0 note=71 velocity=100 time=0
the msg is note_off channel=0 note=74 velocity=0 time=8
the msg is note_on channel=0 note=74 velocity=100 time=0
the msg is note_off channel=0 note=76 velocity=0 time=25
the msg is note_on channel=0 note=76 velocity=100 time=0
the msg is note_off channel=0 note=79 velocity=0 time=25
the msg is note_on channel=0 note=79 velocity=100 time=0
the msg is note_off channel=0 note=72 velocity=0 time=12
the msg is note_on channel=0 note=72 velocity=100 time=0
the msg is note_off channel=0 note=72 velocity=0 time=12
the msg is note_on channel=0 note=72 velocity=100 time=0
the msg is note_off channel=0 note=72 velocity=0 time=12
the msg is note_on channel=0 note=72 velocity=100 time=0
the msg is note_off channel=0 note=72 velocity=0 time=25
the msg is note_on channel=0 note=72 velocity=100 time=0
the msg is note_off channel=0 note=72 velocity=0 time=12
the msg is note_on channel=0 note=72 velocity=100 time=0
the msg is note_off channel=0 note=72 velocity=0 time=12
the msg is note_on channel=0 note=72 velocity=100 time=0
the msg is <meta message end_of_track time=51>
the msg is <meta message track_name name='Acoustic Guitar' time=0>
the msg is program_change channel=0 program=24 time=0
the msg is note_off channel=0 note=69 velocity=0 time=0
the msg is pitchwheel channel=0 pitch=0 time=0
the msg is program_change channel=0 program=24 time=0
the msg is <meta message set_tempo tempo=500000 time=0>
the msg is <meta message time_signature numerator=4 denominator=4 clocks_per_click=24 notated_32nd_notes_per_beat=8 time=0>
the msg is note_on channel=0 note=69 velocity=100 time=0
the msg is note_off channel=0 note=72 velocity=0 time=166
the msg is note_on channel=0 note=72 velocity=100 time=0
the msg is note_off channel=0 note=72 velocity=0 time=12
the msg is note_on channel=0 note=72 velocity=100 time=0
the msg is note_off channel=0 note=72 velocity=0 time=12
the msg is note_on channel=0 note=72 velocity=100 time=0
the msg is note_off channel=0 note=72 velocity=0 time=25
the msg is note_on channel=0 note=72 velocity=100 time=0
the msg is note_off channel=0 note=74 velocity=0 time=25
the msg is note_on channel=0 note=74 velocity=100 time=0
the msg is note_off channel=0 note=74 velocity=0 time=12
the msg is note_on channel=0 note=74 velocity=100 time=0
the msg is note_off channel=0 note=71 velocity=0 time=12
the msg is note_on channel=0 note=71 velocity=100 time=0
the msg is note_off channel=0 note=74 velocity=0 time=25
the msg is note_on channel=0 note=74 velocity=100 time=0
the msg is note_off channel=0 note=74 velocity=0 time=12
the msg is note_on channel=0 note=74 velocity=100 time=0
the msg is note_off channel=0 note=71 velocity=0 time=12
the msg is note_on channel=0 note=71 velocity=100 time=0
the msg is note_off channel=0 note=71 velocity=0 time=12
the msg is note_on channel=0 note=71 velocity=100 time=0
the msg is note_off channel=0 note=69 velocity=0 time=12
the msg is note_on channel=0 note=69 velocity=100 time=0
the msg is note_off channel=0 note=72 velocity=0 time=115
the msg is note_on channel=0 note=72 velocity=100 time=0
the msg is note_off channel=0 note=72 velocity=0 time=34
the msg is note_on channel=0 note=72 velocity=100 time=0
the msg is note_off channel=0 note=72 velocity=0 time=4
the msg is note_on channel=0 note=72 velocity=100 time=0
the msg is note_off channel=0 note=72 velocity=0 time=12
the msg is note_on channel=0 note=72 velocity=100 time=0
the msg is note_off channel=0 note=72 velocity=0 time=17
the msg is note_on channel=0 note=72 velocity=100 time=0
the msg is note_off channel=0 note=76 velocity=0 time=17
the msg is note_on channel=0 note=76 velocity=100 time=0
the msg is note_off channel=0 note=79 velocity=0 time=17
the msg is note_on channel=0 note=79 velocity=100 time=0
the msg is note_off channel=0 note=76 velocity=0 time=34
the msg is note_on channel=0 note=76 velocity=100 time=0
the msg is note_off channel=0 note=79 velocity=0 time=17
the msg is note_on channel=0 note=79 velocity=100 time=0
the msg is note_off channel=0 note=79 velocity=0 time=17
the msg is note_on channel=0 note=79 velocity=100 time=0
the msg is note_off channel=0 note=76 velocity=0 time=17
the msg is note_on channel=0 note=76 velocity=100 time=0
the msg is note_off channel=0 note=74 velocity=0 time=4
the msg is note_on channel=0 note=74 velocity=100 time=0
the msg is note_off channel=0 note=72 velocity=0 time=12
the msg is note_on channel=0 note=72 velocity=100 time=0
the msg is note_off channel=0 note=74 velocity=0 time=34
the msg is note_on channel=0 note=74 velocity=100 time=0
the msg is note_off channel=0 note=74 velocity=0 time=17
the msg is note_on channel=0 note=74 velocity=100 time=0
the msg is note_off channel=0 note=74 velocity=0 time=34
the msg is note_on channel=0 note=74 velocity=100 time=0
the msg is note_off channel=0 note=76 velocity=0 time=17
the msg is note_on channel=0 note=76 velocity=100 time=0
the msg is note_off channel=0 note=79 velocity=0 time=34
the msg is note_on channel=0 note=79 velocity=100 time=0
the msg is note_off channel=0 note=79 velocity=0 time=17
the msg is note_off channel=0 note=76 velocity=0 time=0
the msg is note_on channel=0 note=79 velocity=100 time=0
the msg is note_on channel=0 note=76 velocity=100 time=0
the msg is note_off channel=0 note=74 velocity=0 time=25
the msg is note_on channel=0 note=74 velocity=100 time=0
the msg is note_off channel=0 note=72 velocity=0 time=8
the msg is note_on channel=0 note=72 velocity=100 time=0
the msg is note_off channel=0 note=74 velocity=0 time=17
the msg is note_on channel=0 note=74 velocity=100 time=0
the msg is note_off channel=0 note=76 velocity=0 time=34
the msg is note_on channel=0 note=76 velocity=100 time=0
the msg is note_off channel=0 note=72 velocity=0 time=4
the msg is note_on channel=0 note=72 velocity=100 time=0
the msg is note_off channel=0 note=74 velocity=0 time=12
the msg is note_on channel=0 note=74 velocity=100 time=0
the msg is note_off channel=0 note=74 velocity=0 time=34
the msg is note_on channel=0 note=74 velocity=100 time=0
the msg is note_off channel=0 note=74 velocity=0 time=17
the msg is note_on channel=0 note=74 velocity=100 time=0
the msg is note_off channel=0 note=74 velocity=0 time=17
the msg is note_on channel=0 note=74 velocity=100 time=0
the msg is note_off channel=0 note=71 velocity=0 time=17
the msg is note_on channel=0 note=71 velocity=100 time=0
the msg is note_off channel=0 note=74 velocity=0 time=17
the msg is note_on channel=0 note=74 velocity=100 time=0
the msg is note_off channel=0 note=74 velocity=0 time=34
the msg is note_on channel=0 note=74 velocity=100 time=0
the msg is note_off channel=0 note=72 velocity=0 time=4
the msg is note_on channel=0 note=72 velocity=100 time=0
the msg is note_off channel=0 note=74 velocity=0 time=29
the msg is note_on channel=0 note=74 velocity=100 time=0
the msg is note_off channel=0 note=74 velocity=0 time=21
the msg is note_on channel=0 note=74 velocity=100 time=0
the msg is note_off channel=0 note=74 velocity=0 time=12
the msg is note_on channel=0 note=74 velocity=100 time=0
the msg is note_off channel=0 note=71 velocity=0 time=17
the msg is note_on channel=0 note=71 velocity=100 time=0
the msg is note_off channel=0 note=74 velocity=0 time=8
the msg is note_on channel=0 note=74 velocity=100 time=0
the msg is note_off channel=0 note=76 velocity=0 time=25
the msg is note_on channel=0 note=76 velocity=100 time=0
the msg is note_off channel=0 note=79 velocity=0 time=25
the msg is note_on channel=0 note=79 velocity=100 time=0
the msg is note_off channel=0 note=72 velocity=0 time=12
the msg is note_on channel=0 note=72 velocity=100 time=0
the msg is note_off channel=0 note=72 velocity=0 time=12
the msg is note_on channel=0 note=72 velocity=100 time=0
the msg is note_off channel=0 note=72 velocity=0 time=12
the msg is note_on channel=0 note=72 velocity=100 time=0
the msg is note_off channel=0 note=72 velocity=0 time=25
the msg is note_on channel=0 note=72 velocity=100 time=0
the msg is note_off channel=0 note=72 velocity=0 time=12
the msg is note_on channel=0 note=72 velocity=100 time=0
the msg is note_off channel=0 note=72 velocity=0 time=12
the msg is note_on channel=0 note=72 velocity=100 time=0
the msg is <meta message end_of_track time=51>
the msg is <meta message track_name name='Acoustic Guitar' time=0>
the msg is program_change channel=0 program=24 time=0
the msg is note_off channel=0 note=69 velocity=0 time=0
the msg is pitchwheel channel=0 pitch=0 time=0
the msg is program_change channel=0 program=24 time=0
the msg is <meta message set_tempo tempo=500000 time=0>
the msg is <meta message time_signature numerator=4 denominator=4 clocks_per_click=24 notated_32nd_notes_per_beat=8 time=0>
the msg is note_on channel=0 note=69 velocity=100 time=0
the msg is note_off channel=0 note=72 velocity=0 time=166
the msg is note_on channel=0 note=72 velocity=100 time=0
the msg is note_off channel=0 note=72 velocity=0 time=12
the msg is note_on channel=0 note=72 velocity=100 time=0
the msg is note_off channel=0 note=72 velocity=0 time=12
the msg is note_on channel=0 note=72 velocity=100 time=0
the msg is note_off channel=0 note=72 velocity=0 time=25
the msg is note_on channel=0 note=72 velocity=100 time=0
the msg is note_off channel=0 note=74 velocity=0 time=25
the msg is note_on channel=0 note=74 velocity=100 time=0
the msg is note_off channel=0 note=74 velocity=0 time=12
the msg is note_on channel=0 note=74 velocity=100 time=0
the msg is note_off channel=0 note=71 velocity=0 time=12
the msg is note_on channel=0 note=71 velocity=100 time=0
the msg is note_off channel=0 note=74 velocity=0 time=25
the msg is note_on channel=0 note=74 velocity=100 time=0
the msg is note_off channel=0 note=74 velocity=0 time=12
the msg is note_on channel=0 note=74 velocity=100 time=0
the msg is note_off channel=0 note=71 velocity=0 time=12
the msg is note_on channel=0 note=71 velocity=100 time=0
the msg is note_off channel=0 note=71 velocity=0 time=12
the msg is note_on channel=0 note=71 velocity=100 time=0
the msg is note_off channel=0 note=69 velocity=0 time=12
the msg is note_on channel=0 note=69 velocity=100 time=0
the msg is note_off channel=0 note=72 velocity=0 time=115
the msg is note_on channel=0 note=72 velocity=100 time=0
the msg is note_off channel=0 note=72 velocity=0 time=34
the msg is note_on channel=0 note=72 velocity=100 time=0
the msg is note_off channel=0 note=72 velocity=0 time=4
the msg is note_on channel=0 note=72 velocity=100 time=0
the msg is note_off channel=0 note=72 velocity=0 time=12
the msg is note_on channel=0 note=72 velocity=100 time=0
the msg is note_off channel=0 note=72 velocity=0 time=17
the msg is note_on channel=0 note=72 velocity=100 time=0
the msg is note_off channel=0 note=76 velocity=0 time=17
the msg is note_on channel=0 note=76 velocity=100 time=0
the msg is note_off channel=0 note=79 velocity=0 time=17
the msg is note_on channel=0 note=79 velocity=100 time=0
the msg is note_off channel=0 note=76 velocity=0 time=34
the msg is note_on channel=0 note=76 velocity=100 time=0
the msg is note_off channel=0 note=79 velocity=0 time=17
the msg is note_on channel=0 note=79 velocity=100 time=0
the msg is note_off channel=0 note=79 velocity=0 time=17
the msg is note_on channel=0 note=79 velocity=100 time=0
the msg is note_off channel=0 note=76 velocity=0 time=17
the msg is note_on channel=0 note=76 velocity=100 time=0
the msg is note_off channel=0 note=74 velocity=0 time=4
the msg is note_on channel=0 note=74 velocity=100 time=0
the msg is note_off channel=0 note=72 velocity=0 time=12
the msg is note_on channel=0 note=72 velocity=100 time=0
the msg is note_off channel=0 note=74 velocity=0 time=34
the msg is note_on channel=0 note=74 velocity=100 time=0
the msg is note_off channel=0 note=74 velocity=0 time=17
the msg is note_on channel=0 note=74 velocity=100 time=0
the msg is note_off channel=0 note=74 velocity=0 time=34
the msg is note_on channel=0 note=74 velocity=100 time=0
the msg is note_off channel=0 note=76 velocity=0 time=17
the msg is note_on channel=0 note=76 velocity=100 time=0
the msg is note_off channel=0 note=79 velocity=0 time=34
the msg is note_on channel=0 note=79 velocity=100 time=0
the msg is note_off channel=0 note=79 velocity=0 time=17
the msg is note_off channel=0 note=76 velocity=0 time=0
the msg is note_on channel=0 note=79 velocity=100 time=0
the msg is note_on channel=0 note=76 velocity=100 time=0
the msg is note_off channel=0 note=74 velocity=0 time=25
the msg is note_on channel=0 note=74 velocity=100 time=0
the msg is note_off channel=0 note=72 velocity=0 time=8
the msg is note_on channel=0 note=72 velocity=100 time=0
the msg is note_off channel=0 note=74 velocity=0 time=17
the msg is note_on channel=0 note=74 velocity=100 time=0
the msg is note_off channel=0 note=76 velocity=0 time=34
the msg is note_on channel=0 note=76 velocity=100 time=0
the msg is note_off channel=0 note=72 velocity=0 time=4
the msg is note_on channel=0 note=72 velocity=100 time=0
the msg is note_off channel=0 note=74 velocity=0 time=12
the msg is note_on channel=0 note=74 velocity=100 time=0
the msg is note_off channel=0 note=74 velocity=0 time=34
the msg is note_on channel=0 note=74 velocity=100 time=0
the msg is note_off channel=0 note=74 velocity=0 time=17
the msg is note_on channel=0 note=74 velocity=100 time=0
the msg is note_off channel=0 note=74 velocity=0 time=17
the msg is note_on channel=0 note=74 velocity=100 time=0
the msg is note_off channel=0 note=71 velocity=0 time=17
the msg is note_on channel=0 note=71 velocity=100 time=0
the msg is note_off channel=0 note=74 velocity=0 time=17
the msg is note_on channel=0 note=74 velocity=100 time=0
the msg is note_off channel=0 note=74 velocity=0 time=34
the msg is note_on channel=0 note=74 velocity=100 time=0
the msg is note_off channel=0 note=72 velocity=0 time=4
the msg is note_on channel=0 note=72 velocity=100 time=0
the msg is note_off channel=0 note=74 velocity=0 time=29
the msg is note_on channel=0 note=74 velocity=100 time=0
the msg is note_off channel=0 note=74 velocity=0 time=21
the msg is note_on channel=0 note=74 velocity=100 time=0
the msg is note_off channel=0 note=74 velocity=0 time=12
the msg is note_on channel=0 note=74 velocity=100 time=0
the msg is note_off channel=0 note=71 velocity=0 time=17
the msg is note_on channel=0 note=71 velocity=100 time=0
the msg is note_off channel=0 note=74 velocity=0 time=8
the msg is note_on channel=0 note=74 velocity=100 time=0
the msg is note_off channel=0 note=76 velocity=0 time=25
the msg is note_on channel=0 note=76 velocity=100 time=0
the msg is note_off channel=0 note=79 velocity=0 time=25
the msg is note_on channel=0 note=79 velocity=100 time=0
the msg is note_off channel=0 note=72 velocity=0 time=12
the msg is note_on channel=0 note=72 velocity=100 time=0
the msg is note_off channel=0 note=72 velocity=0 time=12
the msg is note_on channel=0 note=72 velocity=100 time=0
the msg is note_off channel=0 note=72 velocity=0 time=12
the msg is note_on channel=0 note=72 velocity=100 time=0
the msg is note_off channel=0 note=72 velocity=0 time=25
the msg is note_on channel=0 note=72 velocity=100 time=0
the msg is note_off channel=0 note=72 velocity=0 time=12
the msg is note_on channel=0 note=72 velocity=100 time=0
the msg is note_off channel=0 note=72 velocity=0 time=12
the msg is note_on channel=0 note=72 velocity=100 time=0
the msg is <meta message end_of_track time=51>
the msg is <meta message track_name name='Acoustic Guitar' time=0>
the msg is program_change channel=0 program=24 time=0
the msg is note_off channel=0 note=69 velocity=0 time=0
the msg is pitchwheel channel=0 pitch=0 time=0
the msg is program_change channel=0 program=24 time=0
the msg is <meta message set_tempo tempo=500000 time=0>
the msg is <meta message time_signature numerator=4 denominator=4 clocks_per_click=24 notated_32nd_notes_per_beat=8 time=0>
the msg is note_on channel=0 note=69 velocity=100 time=0
the msg is note_off channel=0 note=72 velocity=0 time=166
the msg is note_on channel=0 note=72 velocity=100 time=0
the msg is note_off channel=0 note=72 velocity=0 time=12
the msg is note_on channel=0 note=72 velocity=100 time=0
the msg is note_off channel=0 note=72 velocity=0 time=12
the msg is note_on channel=0 note=72 velocity=100 time=0
the msg is note_off channel=0 note=72 velocity=0 time=25
the msg is note_on channel=0 note=72 velocity=100 time=0
the msg is note_off channel=0 note=74 velocity=0 time=25
the msg is note_on channel=0 note=74 velocity=100 time=0
the msg is note_off channel=0 note=74 velocity=0 time=12
the msg is note_on channel=0 note=74 velocity=100 time=0
the msg is note_off channel=0 note=71 velocity=0 time=12
the msg is note_on channel=0 note=71 velocity=100 time=0
the msg is note_off channel=0 note=74 velocity=0 time=25
the msg is note_on channel=0 note=74 velocity=100 time=0
the msg is note_off channel=0 note=74 velocity=0 time=12
the msg is note_on channel=0 note=74 velocity=100 time=0
the msg is note_off channel=0 note=71 velocity=0 time=12
the msg is note_on channel=0 note=71 velocity=100 time=0
the msg is note_off channel=0 note=71 velocity=0 time=12
the msg is note_on channel=0 note=71 velocity=100 time=0
the msg is note_off channel=0 note=69 velocity=0 time=12
the msg is note_on channel=0 note=69 velocity=100 time=0
the msg is note_off channel=0 note=72 velocity=0 time=115
the msg is note_on channel=0 note=72 velocity=100 time=0
the msg is note_off channel=0 note=72 velocity=0 time=34
the msg is note_on channel=0 note=72 velocity=100 time=0
the msg is note_off channel=0 note=72 velocity=0 time=4
the msg is note_on channel=0 note=72 velocity=100 time=0
the msg is note_off channel=0 note=72 velocity=0 time=12
the msg is note_on channel=0 note=72 velocity=100 time=0
the msg is note_off channel=0 note=72 velocity=0 time=17
the msg is note_on channel=0 note=72 velocity=100 time=0
the msg is note_off channel=0 note=76 velocity=0 time=17
the msg is note_on channel=0 note=76 velocity=100 time=0
the msg is note_off channel=0 note=79 velocity=0 time=17
the msg is note_on channel=0 note=79 velocity=100 time=0
the msg is note_off channel=0 note=76 velocity=0 time=34
the msg is note_on channel=0 note=76 velocity=100 time=0
the msg is note_off channel=0 note=79 velocity=0 time=17
the msg is note_on channel=0 note=79 velocity=100 time=0
the msg is note_off channel=0 note=79 velocity=0 time=17
the msg is note_on channel=0 note=79 velocity=100 time=0
the msg is note_off channel=0 note=76 velocity=0 time=17
the msg is note_on channel=0 note=76 velocity=100 time=0
the msg is note_off channel=0 note=74 velocity=0 time=4
the msg is note_on channel=0 note=74 velocity=100 time=0
the msg is note_off channel=0 note=72 velocity=0 time=12
the msg is note_on channel=0 note=72 velocity=100 time=0
the msg is note_off channel=0 note=74 velocity=0 time=34
the msg is note_on channel=0 note=74 velocity=100 time=0
the msg is note_off channel=0 note=74 velocity=0 time=17
the msg is note_on channel=0 note=74 velocity=100 time=0
the msg is note_off channel=0 note=74 velocity=0 time=34
the msg is note_on channel=0 note=74 velocity=100 time=0
the msg is note_off channel=0 note=76 velocity=0 time=17
the msg is note_on channel=0 note=76 velocity=100 time=0
the msg is note_off channel=0 note=79 velocity=0 time=34
the msg is note_on channel=0 note=79 velocity=100 time=0
the msg is note_off channel=0 note=79 velocity=0 time=17
the msg is note_off channel=0 note=76 velocity=0 time=0
the msg is note_on channel=0 note=79 velocity=100 time=0
the msg is note_on channel=0 note=76 velocity=100 time=0
the msg is note_off channel=0 note=74 velocity=0 time=25
the msg is note_on channel=0 note=74 velocity=100 time=0
the msg is note_off channel=0 note=72 velocity=0 time=8
the msg is note_on channel=0 note=72 velocity=100 time=0
the msg is note_off channel=0 note=74 velocity=0 time=17
the msg is note_on channel=0 note=74 velocity=100 time=0
the msg is note_off channel=0 note=76 velocity=0 time=34
the msg is note_on channel=0 note=76 velocity=100 time=0
the msg is note_off channel=0 note=72 velocity=0 time=4
the msg is note_on channel=0 note=72 velocity=100 time=0
the msg is note_off channel=0 note=74 velocity=0 time=12
the msg is note_on channel=0 note=74 velocity=100 time=0
the msg is note_off channel=0 note=74 velocity=0 time=34
the msg is note_on channel=0 note=74 velocity=100 time=0
the msg is note_off channel=0 note=74 velocity=0 time=17
the msg is note_on channel=0 note=74 velocity=100 time=0
the msg is note_off channel=0 note=74 velocity=0 time=17
the msg is note_on channel=0 note=74 velocity=100 time=0
the msg is note_off channel=0 note=71 velocity=0 time=17
the msg is note_on channel=0 note=71 velocity=100 time=0
the msg is note_off channel=0 note=74 velocity=0 time=17
the msg is note_on channel=0 note=74 velocity=100 time=0
the msg is note_off channel=0 note=74 velocity=0 time=34
the msg is note_on channel=0 note=74 velocity=100 time=0
the msg is note_off channel=0 note=72 velocity=0 time=4
the msg is note_on channel=0 note=72 velocity=100 time=0
the msg is note_off channel=0 note=74 velocity=0 time=29
the msg is note_on channel=0 note=74 velocity=100 time=0
the msg is note_off channel=0 note=74 velocity=0 time=21
the msg is note_on channel=0 note=74 velocity=100 time=0
the msg is note_off channel=0 note=74 velocity=0 time=12
the msg is note_on channel=0 note=74 velocity=100 time=0
the msg is note_off channel=0 note=71 velocity=0 time=17
the msg is note_on channel=0 note=71 velocity=100 time=0
the msg is note_off channel=0 note=74 velocity=0 time=8
the msg is note_on channel=0 note=74 velocity=100 time=0
the msg is note_off channel=0 note=76 velocity=0 time=25
the msg is note_on channel=0 note=76 velocity=100 time=0
the msg is note_off channel=0 note=79 velocity=0 time=25
the msg is note_on channel=0 note=79 velocity=100 time=0
the msg is note_off channel=0 note=72 velocity=0 time=12
the msg is note_on channel=0 note=72 velocity=100 time=0
the msg is note_off channel=0 note=72 velocity=0 time=12
the msg is note_on channel=0 note=72 velocity=100 time=0
the msg is note_off channel=0 note=72 velocity=0 time=12
the msg is note_on channel=0 note=72 velocity=100 time=0
the msg is note_off channel=0 note=72 velocity=0 time=25
the msg is note_on channel=0 note=72 velocity=100 time=0
the msg is note_off channel=0 note=72 velocity=0 time=12
the msg is note_on channel=0 note=72 velocity=100 time=0
the msg is note_off channel=0 note=72 velocity=0 time=12
the msg is note_on channel=0 note=72 velocity=100 time=0
the msg is <meta message end_of_track time=51>
the msg is <meta message track_name name='Acoustic Guitar' time=0>
the msg is program_change channel=0 program=24 time=0
the msg is note_off channel=0 note=69 velocity=0 time=0
the msg is pitchwheel channel=0 pitch=0 time=0
the msg is program_change channel=0 program=24 time=0
the msg is <meta message set_tempo tempo=500000 time=0>
the msg is <meta message time_signature numerator=4 denominator=4 clocks_per_click=24 notated_32nd_notes_per_beat=8 time=0>
the msg is note_on channel=0 note=69 velocity=100 time=0
the msg is note_off channel=0 note=72 velocity=0 time=166
the msg is note_on channel=0 note=72 velocity=100 time=0
the msg is note_off channel=0 note=72 velocity=0 time=12
the msg is note_on channel=0 note=72 velocity=100 time=0
the msg is note_off channel=0 note=72 velocity=0 time=12
the msg is note_on channel=0 note=72 velocity=100 time=0
the msg is note_off channel=0 note=72 velocity=0 time=25
the msg is note_on channel=0 note=72 velocity=100 time=0
the msg is note_off channel=0 note=74 velocity=0 time=25
the msg is note_on channel=0 note=74 velocity=100 time=0
the msg is note_off channel=0 note=74 velocity=0 time=12
the msg is note_on channel=0 note=74 velocity=100 time=0
the msg is note_off channel=0 note=71 velocity=0 time=12
the msg is note_on channel=0 note=71 velocity=100 time=0
the msg is note_off channel=0 note=74 velocity=0 time=25
the msg is note_on channel=0 note=74 velocity=100 time=0
the msg is note_off channel=0 note=74 velocity=0 time=12
the msg is note_on channel=0 note=74 velocity=100 time=0
the msg is note_off channel=0 note=71 velocity=0 time=12
the msg is note_on channel=0 note=71 velocity=100 time=0
the msg is note_off channel=0 note=71 velocity=0 time=12
the msg is note_on channel=0 note=71 velocity=100 time=0
the msg is note_off channel=0 note=69 velocity=0 time=12
the msg is note_on channel=0 note=69 velocity=100 time=0
the msg is note_off channel=0 note=72 velocity=0 time=115
the msg is note_on channel=0 note=72 velocity=100 time=0
the msg is note_off channel=0 note=72 velocity=0 time=34
the msg is note_on channel=0 note=72 velocity=100 time=0
the msg is note_off channel=0 note=72 velocity=0 time=4
the msg is note_on channel=0 note=72 velocity=100 time=0
the msg is note_off channel=0 note=72 velocity=0 time=12
the msg is note_on channel=0 note=72 velocity=100 time=0
the msg is note_off channel=0 note=72 velocity=0 time=17
the msg is note_on channel=0 note=72 velocity=100 time=0
the msg is note_off channel=0 note=76 velocity=0 time=17
the msg is note_on channel=0 note=76 velocity=100 time=0
the msg is note_off channel=0 note=79 velocity=0 time=17
the msg is note_on channel=0 note=79 velocity=100 time=0
the msg is note_off channel=0 note=76 velocity=0 time=34
the msg is note_on channel=0 note=76 velocity=100 time=0
the msg is note_off channel=0 note=79 velocity=0 time=17
the msg is note_on channel=0 note=79 velocity=100 time=0
the msg is note_off channel=0 note=79 velocity=0 time=17
the msg is note_on channel=0 note=79 velocity=100 time=0
the msg is note_off channel=0 note=76 velocity=0 time=17
the msg is note_on channel=0 note=76 velocity=100 time=0
the msg is note_off channel=0 note=74 velocity=0 time=4
the msg is note_on channel=0 note=74 velocity=100 time=0
the msg is note_off channel=0 note=72 velocity=0 time=12
the msg is note_on channel=0 note=72 velocity=100 time=0
the msg is note_off channel=0 note=74 velocity=0 time=34
the msg is note_on channel=0 note=74 velocity=100 time=0
the msg is note_off channel=0 note=74 velocity=0 time=17
the msg is note_on channel=0 note=74 velocity=100 time=0
the msg is note_off channel=0 note=74 velocity=0 time=34
the msg is note_on channel=0 note=74 velocity=100 time=0
the msg is note_off channel=0 note=76 velocity=0 time=17
the msg is note_on channel=0 note=76 velocity=100 time=0
the msg is note_off channel=0 note=79 velocity=0 time=34
the msg is note_on channel=0 note=79 velocity=100 time=0
the msg is note_off channel=0 note=79 velocity=0 time=17
the msg is note_off channel=0 note=76 velocity=0 time=0
the msg is note_on channel=0 note=79 velocity=100 time=0
the msg is note_on channel=0 note=76 velocity=100 time=0
the msg is note_off channel=0 note=74 velocity=0 time=25
the msg is note_on channel=0 note=74 velocity=100 time=0
the msg is note_off channel=0 note=72 velocity=0 time=8
the msg is note_on channel=0 note=72 velocity=100 time=0
the msg is note_off channel=0 note=74 velocity=0 time=17
the msg is note_on channel=0 note=74 velocity=100 time=0
the msg is note_off channel=0 note=76 velocity=0 time=34
the msg is note_on channel=0 note=76 velocity=100 time=0
the msg is note_off channel=0 note=72 velocity=0 time=4
the msg is note_on channel=0 note=72 velocity=100 time=0
the msg is note_off channel=0 note=74 velocity=0 time=12
the msg is note_on channel=0 note=74 velocity=100 time=0
the msg is note_off channel=0 note=74 velocity=0 time=34
the msg is note_on channel=0 note=74 velocity=100 time=0
the msg is note_off channel=0 note=74 velocity=0 time=17
the msg is note_on channel=0 note=74 velocity=100 time=0
the msg is note_off channel=0 note=74 velocity=0 time=17
the msg is note_on channel=0 note=74 velocity=100 time=0
the msg is note_off channel=0 note=71 velocity=0 time=17
the msg is note_on channel=0 note=71 velocity=100 time=0
the msg is note_off channel=0 note=74 velocity=0 time=17
the msg is note_on channel=0 note=74 velocity=100 time=0
the msg is note_off channel=0 note=74 velocity=0 time=34
the msg is note_on channel=0 note=74 velocity=100 time=0
the msg is note_off channel=0 note=72 velocity=0 time=4
the msg is note_on channel=0 note=72 velocity=100 time=0
the msg is note_off channel=0 note=74 velocity=0 time=29
the msg is note_on channel=0 note=74 velocity=100 time=0
the msg is note_off channel=0 note=74 velocity=0 time=21
the msg is note_on channel=0 note=74 velocity=100 time=0
the msg is note_off channel=0 note=74 velocity=0 time=12
the msg is note_on channel=0 note=74 velocity=100 time=0
the msg is note_off channel=0 note=71 velocity=0 time=17
the msg is note_on channel=0 note=71 velocity=100 time=0
the msg is note_off channel=0 note=74 velocity=0 time=8
the msg is note_on channel=0 note=74 velocity=100 time=0
the msg is note_off channel=0 note=76 velocity=0 time=25
the msg is note_on channel=0 note=76 velocity=100 time=0
the msg is note_off channel=0 note=79 velocity=0 time=25
the msg is note_on channel=0 note=79 velocity=100 time=0
the msg is note_off channel=0 note=72 velocity=0 time=12
the msg is note_on channel=0 note=72 velocity=100 time=0
the msg is note_off channel=0 note=72 velocity=0 time=12
the msg is note_on channel=0 note=72 velocity=100 time=0
the msg is note_off channel=0 note=72 velocity=0 time=12
the msg is note_on channel=0 note=72 velocity=100 time=0
the msg is note_off channel=0 note=72 velocity=0 time=25
the msg is note_on channel=0 note=72 velocity=100 time=0
the msg is note_off channel=0 note=72 velocity=0 time=12
the msg is note_on channel=0 note=72 velocity=100 time=0
the msg is note_off channel=0 note=72 velocity=0 time=12
the msg is note_on channel=0 note=72 velocity=100 time=0
the msg is <meta message end_of_track time=51>
the msg is <meta message track_name name='Acoustic Guitar' time=0>
the msg is program_change channel=0 program=24 time=0
the msg is note_off channel=0 note=69 velocity=0 time=0
the msg is pitchwheel channel=0 pitch=0 time=0
the msg is program_change channel=0 program=24 time=0
the msg is <meta message set_tempo tempo=500000 time=0>
the msg is <meta message time_signature numerator=4 denominator=4 clocks_per_click=24 notated_32nd_notes_per_beat=8 time=0>
the msg is note_on channel=0 note=69 velocity=100 time=0
the msg is note_off channel=0 note=72 velocity=0 time=166
the msg is note_on channel=0 note=72 velocity=100 time=0
the msg is note_off channel=0 note=72 velocity=0 time=12
the msg is note_on channel=0 note=72 velocity=100 time=0
the msg is note_off channel=0 note=72 velocity=0 time=12
the msg is note_on channel=0 note=72 velocity=100 time=0
the msg is note_off channel=0 note=72 velocity=0 time=25
the msg is note_on channel=0 note=72 velocity=100 time=0
the msg is note_off channel=0 note=74 velocity=0 time=25
the msg is note_on channel=0 note=74 velocity=100 time=0
the msg is note_off channel=0 note=74 velocity=0 time=12
the msg is note_on channel=0 note=74 velocity=100 time=0
the msg is note_off channel=0 note=71 velocity=0 time=12
the msg is note_on channel=0 note=71 velocity=100 time=0
the msg is note_off channel=0 note=74 velocity=0 time=25
the msg is note_on channel=0 note=74 velocity=100 time=0
the msg is note_off channel=0 note=74 velocity=0 time=12
the msg is note_on channel=0 note=74 velocity=100 time=0
the msg is note_off channel=0 note=71 velocity=0 time=12
the msg is note_on channel=0 note=71 velocity=100 time=0
the msg is note_off channel=0 note=71 velocity=0 time=12
the msg is note_on channel=0 note=71 velocity=100 time=0
the msg is note_off channel=0 note=69 velocity=0 time=12
the msg is note_on channel=0 note=69 velocity=100 time=0
the msg is note_off channel=0 note=72 velocity=0 time=115
the msg is note_on channel=0 note=72 velocity=100 time=0
the msg is note_off channel=0 note=72 velocity=0 time=34
the msg is note_on channel=0 note=72 velocity=100 time=0
the msg is note_off channel=0 note=72 velocity=0 time=4
the msg is note_on channel=0 note=72 velocity=100 time=0
the msg is note_off channel=0 note=72 velocity=0 time=12
the msg is note_on channel=0 note=72 velocity=100 time=0
the msg is note_off channel=0 note=72 velocity=0 time=17
the msg is note_on channel=0 note=72 velocity=100 time=0
the msg is note_off channel=0 note=76 velocity=0 time=17
the msg is note_on channel=0 note=76 velocity=100 time=0
the msg is note_off channel=0 note=79 velocity=0 time=17
the msg is note_on channel=0 note=79 velocity=100 time=0
the msg is note_off channel=0 note=76 velocity=0 time=34
the msg is note_on channel=0 note=76 velocity=100 time=0
the msg is note_off channel=0 note=79 velocity=0 time=17
the msg is note_on channel=0 note=79 velocity=100 time=0
the msg is note_off channel=0 note=79 velocity=0 time=17
the msg is note_on channel=0 note=79 velocity=100 time=0
the msg is note_off channel=0 note=76 velocity=0 time=17
the msg is note_on channel=0 note=76 velocity=100 time=0
the msg is note_off channel=0 note=74 velocity=0 time=4
the msg is note_on channel=0 note=74 velocity=100 time=0
the msg is note_off channel=0 note=72 velocity=0 time=12
the msg is note_on channel=0 note=72 velocity=100 time=0
the msg is note_off channel=0 note=74 velocity=0 time=34
the msg is note_on channel=0 note=74 velocity=100 time=0
the msg is note_off channel=0 note=74 velocity=0 time=17
the msg is note_on channel=0 note=74 velocity=100 time=0
the msg is note_off channel=0 note=74 velocity=0 time=34
the msg is note_on channel=0 note=74 velocity=100 time=0
the msg is note_off channel=0 note=76 velocity=0 time=17
the msg is note_on channel=0 note=76 velocity=100 time=0
the msg is note_off channel=0 note=79 velocity=0 time=34
the msg is note_on channel=0 note=79 velocity=100 time=0
the msg is note_off channel=0 note=79 velocity=0 time=17
the msg is note_off channel=0 note=76 velocity=0 time=0
the msg is note_on channel=0 note=79 velocity=100 time=0
the msg is note_on channel=0 note=76 velocity=100 time=0
the msg is note_off channel=0 note=74 velocity=0 time=25
the msg is note_on channel=0 note=74 velocity=100 time=0
the msg is note_off channel=0 note=72 velocity=0 time=8
the msg is note_on channel=0 note=72 velocity=100 time=0
the msg is note_off channel=0 note=74 velocity=0 time=17
the msg is note_on channel=0 note=74 velocity=100 time=0
the msg is note_off channel=0 note=76 velocity=0 time=34
the msg is note_on channel=0 note=76 velocity=100 time=0
the msg is note_off channel=0 note=72 velocity=0 time=4
the msg is note_on channel=0 note=72 velocity=100 time=0
the msg is note_off channel=0 note=74 velocity=0 time=12
the msg is note_on channel=0 note=74 velocity=100 time=0
the msg is note_off channel=0 note=74 velocity=0 time=34
the msg is note_on channel=0 note=74 velocity=100 time=0
the msg is note_off channel=0 note=74 velocity=0 time=17
the msg is note_on channel=0 note=74 velocity=100 time=0
the msg is note_off channel=0 note=74 velocity=0 time=17
the msg is note_on channel=0 note=74 velocity=100 time=0
the msg is note_off channel=0 note=71 velocity=0 time=17
the msg is note_on channel=0 note=71 velocity=100 time=0
the msg is note_off channel=0 note=74 velocity=0 time=17
the msg is note_on channel=0 note=74 velocity=100 time=0
the msg is note_off channel=0 note=74 velocity=0 time=34
the msg is note_on channel=0 note=74 velocity=100 time=0
the msg is note_off channel=0 note=72 velocity=0 time=4
the msg is note_on channel=0 note=72 velocity=100 time=0
the msg is note_off channel=0 note=74 velocity=0 time=29
the msg is note_on channel=0 note=74 velocity=100 time=0
the msg is note_off channel=0 note=74 velocity=0 time=21
the msg is note_on channel=0 note=74 velocity=100 time=0
the msg is note_off channel=0 note=74 velocity=0 time=12
the msg is note_on channel=0 note=74 velocity=100 time=0
the msg is note_off channel=0 note=71 velocity=0 time=17
the msg is note_on channel=0 note=71 velocity=100 time=0
the msg is note_off channel=0 note=74 velocity=0 time=8
the msg is note_on channel=0 note=74 velocity=100 time=0
the msg is note_off channel=0 note=76 velocity=0 time=25
the msg is note_on channel=0 note=76 velocity=100 time=0
the msg is note_off channel=0 note=79 velocity=0 time=25
the msg is note_on channel=0 note=79 velocity=100 time=0
the msg is note_off channel=0 note=72 velocity=0 time=12
the msg is note_on channel=0 note=72 velocity=100 time=0
the msg is note_off channel=0 note=72 velocity=0 time=12
the msg is note_on channel=0 note=72 velocity=100 time=0
the msg is note_off channel=0 note=72 velocity=0 time=12
the msg is note_on channel=0 note=72 velocity=100 time=0
the msg is note_off channel=0 note=72 velocity=0 time=25
the msg is note_on channel=0 note=72 velocity=100 time=0
the msg is note_off channel=0 note=72 velocity=0 time=12
the msg is note_on channel=0 note=72 velocity=100 time=0
the msg is note_off channel=0 note=72 velocity=0 time=12
the msg is note_on channel=0 note=72 velocity=100 time=0
the msg is <meta message end_of_track time=51>
the msg is <meta message track_name name='Acoustic Guitar' time=0>
the msg is program_change channel=0 program=24 time=0
the msg is note_off channel=0 note=69 velocity=0 time=0
the msg is pitchwheel channel=0 pitch=0 time=0
the msg is program_change channel=0 program=24 time=0
the msg is <meta message set_tempo tempo=500000 time=0>
the msg is <meta message time_signature numerator=4 denominator=4 clocks_per_click=24 notated_32nd_notes_per_beat=8 time=0>
the msg is note_on channel=0 note=69 velocity=100 time=0
the msg is note_off channel=0 note=72 velocity=0 time=166
the msg is note_on channel=0 note=72 velocity=100 time=0
the msg is note_off channel=0 note=72 velocity=0 time=12
the msg is note_on channel=0 note=72 velocity=100 time=0
the msg is note_off channel=0 note=72 velocity=0 time=12
the msg is note_on channel=0 note=72 velocity=100 time=0
the msg is note_off channel=0 note=72 velocity=0 time=25
the msg is note_on channel=0 note=72 velocity=100 time=0
the msg is note_off channel=0 note=74 velocity=0 time=25
the msg is note_on channel=0 note=74 velocity=100 time=0
the msg is note_off channel=0 note=74 velocity=0 time=12
the msg is note_on channel=0 note=74 velocity=100 time=0
the msg is note_off channel=0 note=71 velocity=0 time=12
the msg is note_on channel=0 note=71 velocity=100 time=0
the msg is note_off channel=0 note=74 velocity=0 time=25
the msg is note_on channel=0 note=74 velocity=100 time=0
the msg is note_off channel=0 note=74 velocity=0 time=12
the msg is note_on channel=0 note=74 velocity=100 time=0
the msg is note_off channel=0 note=71 velocity=0 time=12
the msg is note_on channel=0 note=71 velocity=100 time=0
the msg is note_off channel=0 note=71 velocity=0 time=12
the msg is note_on channel=0 note=71 velocity=100 time=0
the msg is note_off channel=0 note=69 velocity=0 time=12
the msg is note_on channel=0 note=69 velocity=100 time=0
the msg is note_off channel=0 note=72 velocity=0 time=115
the msg is note_on channel=0 note=72 velocity=100 time=0
the msg is note_off channel=0 note=72 velocity=0 time=34
the msg is note_on channel=0 note=72 velocity=100 time=0
the msg is note_off channel=0 note=72 velocity=0 time=4
the msg is note_on channel=0 note=72 velocity=100 time=0
the msg is note_off channel=0 note=72 velocity=0 time=12
the msg is note_on channel=0 note=72 velocity=100 time=0
the msg is note_off channel=0 note=72 velocity=0 time=17
the msg is note_on channel=0 note=72 velocity=100 time=0
the msg is note_off channel=0 note=76 velocity=0 time=17
the msg is note_on channel=0 note=76 velocity=100 time=0
the msg is note_off channel=0 note=79 velocity=0 time=17
the msg is note_on channel=0 note=79 velocity=100 time=0
the msg is note_off channel=0 note=76 velocity=0 time=34
the msg is note_on channel=0 note=76 velocity=100 time=0
the msg is note_off channel=0 note=79 velocity=0 time=17
the msg is note_on channel=0 note=79 velocity=100 time=0
the msg is note_off channel=0 note=79 velocity=0 time=17
the msg is note_on channel=0 note=79 velocity=100 time=0
the msg is note_off channel=0 note=76 velocity=0 time=17
the msg is note_on channel=0 note=76 velocity=100 time=0
the msg is note_off channel=0 note=74 velocity=0 time=4
the msg is note_on channel=0 note=74 velocity=100 time=0
the msg is note_off channel=0 note=72 velocity=0 time=12
the msg is note_on channel=0 note=72 velocity=100 time=0
the msg is note_off channel=0 note=74 velocity=0 time=34
the msg is note_on channel=0 note=74 velocity=100 time=0
the msg is note_off channel=0 note=74 velocity=0 time=17
the msg is note_on channel=0 note=74 velocity=100 time=0
the msg is note_off channel=0 note=74 velocity=0 time=34
the msg is note_on channel=0 note=74 velocity=100 time=0
the msg is note_off channel=0 note=76 velocity=0 time=17
the msg is note_on channel=0 note=76 velocity=100 time=0
the msg is note_off channel=0 note=79 velocity=0 time=34
the msg is note_on channel=0 note=79 velocity=100 time=0
the msg is note_off channel=0 note=79 velocity=0 time=17
the msg is note_off channel=0 note=76 velocity=0 time=0
the msg is note_on channel=0 note=79 velocity=100 time=0
the msg is note_on channel=0 note=76 velocity=100 time=0
the msg is note_off channel=0 note=74 velocity=0 time=25
the msg is note_on channel=0 note=74 velocity=100 time=0
the msg is note_off channel=0 note=72 velocity=0 time=8
the msg is note_on channel=0 note=72 velocity=100 time=0
the msg is note_off channel=0 note=74 velocity=0 time=17
the msg is note_on channel=0 note=74 velocity=100 time=0
the msg is note_off channel=0 note=76 velocity=0 time=34
the msg is note_on channel=0 note=76 velocity=100 time=0
the msg is note_off channel=0 note=72 velocity=0 time=4
the msg is note_on channel=0 note=72 velocity=100 time=0
the msg is note_off channel=0 note=74 velocity=0 time=12
the msg is note_on channel=0 note=74 velocity=100 time=0
the msg is note_off channel=0 note=74 velocity=0 time=34
the msg is note_on channel=0 note=74 velocity=100 time=0
the msg is note_off channel=0 note=74 velocity=0 time=17
the msg is note_on channel=0 note=74 velocity=100 time=0
the msg is note_off channel=0 note=74 velocity=0 time=17
the msg is note_on channel=0 note=74 velocity=100 time=0
the msg is note_off channel=0 note=71 velocity=0 time=17
the msg is note_on channel=0 note=71 velocity=100 time=0
the msg is note_off channel=0 note=74 velocity=0 time=17
the msg is note_on channel=0 note=74 velocity=100 time=0
the msg is note_off channel=0 note=74 velocity=0 time=34
the msg is note_on channel=0 note=74 velocity=100 time=0
the msg is note_off channel=0 note=72 velocity=0 time=4
the msg is note_on channel=0 note=72 velocity=100 time=0
the msg is note_off channel=0 note=74 velocity=0 time=29
the msg is note_on channel=0 note=74 velocity=100 time=0
the msg is note_off channel=0 note=74 velocity=0 time=21
the msg is note_on channel=0 note=74 velocity=100 time=0
the msg is note_off channel=0 note=74 velocity=0 time=12
the msg is note_on channel=0 note=74 velocity=100 time=0
the msg is note_off channel=0 note=71 velocity=0 time=17
the msg is note_on channel=0 note=71 velocity=100 time=0
the msg is note_off channel=0 note=74 velocity=0 time=8
the msg is note_on channel=0 note=74 velocity=100 time=0
the msg is note_off channel=0 note=76 velocity=0 time=25
the msg is note_on channel=0 note=76 velocity=100 time=0
the msg is note_off channel=0 note=79 velocity=0 time=25
the msg is note_on channel=0 note=79 velocity=100 time=0
the msg is note_off channel=0 note=72 velocity=0 time=12
the msg is note_on channel=0 note=72 velocity=100 time=0
the msg is note_off channel=0 note=72 velocity=0 time=12
the msg is note_on channel=0 note=72 velocity=100 time=0
the msg is note_off channel=0 note=72 velocity=0 time=12
the msg is note_on channel=0 note=72 velocity=100 time=0
the msg is note_off channel=0 note=72 velocity=0 time=25
the msg is note_on channel=0 note=72 velocity=100 time=0
the msg is note_off channel=0 note=72 velocity=0 time=12
the msg is note_on channel=0 note=72 velocity=100 time=0
the msg is note_off channel=0 note=72 velocity=0 time=12
the msg is note_on channel=0 note=72 velocity=100 time=0
the msg is <meta message end_of_track time=51>
the msg is <meta message track_name name='Acoustic Guitar' time=0>
the msg is program_change channel=0 program=24 time=0
the msg is note_off channel=0 note=69 velocity=0 time=0
the msg is pitchwheel channel=0 pitch=0 time=0
the msg is program_change channel=0 program=24 time=0
the msg is <meta message set_tempo tempo=500000 time=0>
the msg is <meta message time_signature numerator=4 denominator=4 clocks_per_click=24 notated_32nd_notes_per_beat=8 time=0>
the msg is note_on channel=0 note=69 velocity=100 time=0
the msg is note_off channel=0 note=72 velocity=0 time=166
the msg is note_on channel=0 note=72 velocity=100 time=0
the msg is note_off channel=0 note=72 velocity=0 time=12
the msg is note_on channel=0 note=72 velocity=100 time=0
the msg is note_off channel=0 note=72 velocity=0 time=12
the msg is note_on channel=0 note=72 velocity=100 time=0
the msg is note_off channel=0 note=72 velocity=0 time=25
the msg is note_on channel=0 note=72 velocity=100 time=0
the msg is note_off channel=0 note=74 velocity=0 time=25
the msg is note_on channel=0 note=74 velocity=100 time=0
the msg is note_off channel=0 note=74 velocity=0 time=12
the msg is note_on channel=0 note=74 velocity=100 time=0
the msg is note_off channel=0 note=71 velocity=0 time=12
the msg is note_on channel=0 note=71 velocity=100 time=0
the msg is note_off channel=0 note=74 velocity=0 time=25
the msg is note_on channel=0 note=74 velocity=100 time=0
the msg is note_off channel=0 note=74 velocity=0 time=12
the msg is note_on channel=0 note=74 velocity=100 time=0
the msg is note_off channel=0 note=71 velocity=0 time=12
the msg is note_on channel=0 note=71 velocity=100 time=0
the msg is note_off channel=0 note=71 velocity=0 time=12
the msg is note_on channel=0 note=71 velocity=100 time=0
the msg is note_off channel=0 note=69 velocity=0 time=12
the msg is note_on channel=0 note=69 velocity=100 time=0
the msg is note_off channel=0 note=72 velocity=0 time=115
the msg is note_on channel=0 note=72 velocity=100 time=0
the msg is note_off channel=0 note=72 velocity=0 time=34
the msg is note_on channel=0 note=72 velocity=100 time=0
the msg is note_off channel=0 note=72 velocity=0 time=4
the msg is note_on channel=0 note=72 velocity=100 time=0
the msg is note_off channel=0 note=72 velocity=0 time=12
the msg is note_on channel=0 note=72 velocity=100 time=0
the msg is note_off channel=0 note=72 velocity=0 time=17
the msg is note_on channel=0 note=72 velocity=100 time=0
the msg is note_off channel=0 note=76 velocity=0 time=17
the msg is note_on channel=0 note=76 velocity=100 time=0
the msg is note_off channel=0 note=79 velocity=0 time=17
the msg is note_on channel=0 note=79 velocity=100 time=0
the msg is note_off channel=0 note=76 velocity=0 time=34
the msg is note_on channel=0 note=76 velocity=100 time=0
the msg is note_off channel=0 note=79 velocity=0 time=17
the msg is note_on channel=0 note=79 velocity=100 time=0
the msg is note_off channel=0 note=79 velocity=0 time=17
the msg is note_on channel=0 note=79 velocity=100 time=0
the msg is note_off channel=0 note=76 velocity=0 time=17
the msg is note_on channel=0 note=76 velocity=100 time=0
the msg is note_off channel=0 note=74 velocity=0 time=4
the msg is note_on channel=0 note=74 velocity=100 time=0
the msg is note_off channel=0 note=72 velocity=0 time=12
the msg is note_on channel=0 note=72 velocity=100 time=0
the msg is note_off channel=0 note=74 velocity=0 time=34
the msg is note_on channel=0 note=74 velocity=100 time=0
the msg is note_off channel=0 note=74 velocity=0 time=17
the msg is note_on channel=0 note=74 velocity=100 time=0
the msg is note_off channel=0 note=74 velocity=0 time=34
the msg is note_on channel=0 note=74 velocity=100 time=0
the msg is note_off channel=0 note=76 velocity=0 time=17
the msg is note_on channel=0 note=76 velocity=100 time=0
the msg is note_off channel=0 note=79 velocity=0 time=34
the msg is note_on channel=0 note=79 velocity=100 time=0
the msg is note_off channel=0 note=79 velocity=0 time=17
the msg is note_off channel=0 note=76 velocity=0 time=0
the msg is note_on channel=0 note=79 velocity=100 time=0
the msg is note_on channel=0 note=76 velocity=100 time=0
the msg is note_off channel=0 note=74 velocity=0 time=25
the msg is note_on channel=0 note=74 velocity=100 time=0
the msg is note_off channel=0 note=72 velocity=0 time=8
the msg is note_on channel=0 note=72 velocity=100 time=0
the msg is note_off channel=0 note=74 velocity=0 time=17
the msg is note_on channel=0 note=74 velocity=100 time=0
the msg is note_off channel=0 note=76 velocity=0 time=34
the msg is note_on channel=0 note=76 velocity=100 time=0
the msg is note_off channel=0 note=72 velocity=0 time=4
the msg is note_on channel=0 note=72 velocity=100 time=0
the msg is note_off channel=0 note=74 velocity=0 time=12
the msg is note_on channel=0 note=74 velocity=100 time=0
the msg is note_off channel=0 note=74 velocity=0 time=34
the msg is note_on channel=0 note=74 velocity=100 time=0
the msg is note_off channel=0 note=74 velocity=0 time=17
the msg is note_on channel=0 note=74 velocity=100 time=0
the msg is note_off channel=0 note=74 velocity=0 time=17
the msg is note_on channel=0 note=74 velocity=100 time=0
the msg is note_off channel=0 note=71 velocity=0 time=17
the msg is note_on channel=0 note=71 velocity=100 time=0
the msg is note_off channel=0 note=74 velocity=0 time=17
the msg is note_on channel=0 note=74 velocity=100 time=0
the msg is note_off channel=0 note=74 velocity=0 time=34
the msg is note_on channel=0 note=74 velocity=100 time=0
the msg is note_off channel=0 note=72 velocity=0 time=4
the msg is note_on channel=0 note=72 velocity=100 time=0
the msg is note_off channel=0 note=74 velocity=0 time=29
the msg is note_on channel=0 note=74 velocity=100 time=0
the msg is note_off channel=0 note=74 velocity=0 time=21
the msg is note_on channel=0 note=74 velocity=100 time=0
the msg is note_off channel=0 note=74 velocity=0 time=12
the msg is note_on channel=0 note=74 velocity=100 time=0
the msg is note_off channel=0 note=71 velocity=0 time=17
the msg is note_on channel=0 note=71 velocity=100 time=0
the msg is note_off channel=0 note=74 velocity=0 time=8
the msg is note_on channel=0 note=74 velocity=100 time=0
the msg is note_off channel=0 note=76 velocity=0 time=25
the msg is note_on channel=0 note=76 velocity=100 time=0
the msg is note_off channel=0 note=79 velocity=0 time=25
the msg is note_on channel=0 note=79 velocity=100 time=0
the msg is note_off channel=0 note=72 velocity=0 time=12
the msg is note_on channel=0 note=72 velocity=100 time=0
the msg is note_off channel=0 note=72 velocity=0 time=12
the msg is note_on channel=0 note=72 velocity=100 time=0
the msg is note_off channel=0 note=72 velocity=0 time=12
the msg is note_on channel=0 note=72 velocity=100 time=0
the msg is note_off channel=0 note=72 velocity=0 time=25
the msg is note_on channel=0 note=72 velocity=100 time=0
the msg is note_off channel=0 note=72 velocity=0 time=12
the msg is note_on channel=0 note=72 velocity=100 time=0
the msg is note_off channel=0 note=72 velocity=0 time=12
the msg is note_on channel=0 note=72 velocity=100 time=0
the msg is <meta message end_of_track time=51>
the msg is <meta message track_name name='Acoustic Guitar' time=0>
the msg is program_change channel=0 program=24 time=0
the msg is note_off channel=0 note=69 velocity=0 time=0
the msg is pitchwheel channel=0 pitch=0 time=0
the msg is program_change channel=0 program=24 time=0
the msg is <meta message set_tempo tempo=500000 time=0>
the msg is <meta message time_signature numerator=4 denominator=4 clocks_per_click=24 notated_32nd_notes_per_beat=8 time=0>
the msg is note_on channel=0 note=69 velocity=100 time=0
the msg is note_off channel=0 note=72 velocity=0 time=166
the msg is note_on channel=0 note=72 velocity=100 time=0
the msg is note_off channel=0 note=72 velocity=0 time=12
the msg is note_on channel=0 note=72 velocity=100 time=0
the msg is note_off channel=0 note=72 velocity=0 time=12
the msg is note_on channel=0 note=72 velocity=100 time=0
the msg is note_off channel=0 note=72 velocity=0 time=25
the msg is note_on channel=0 note=72 velocity=100 time=0
the msg is note_off channel=0 note=74 velocity=0 time=25
the msg is note_on channel=0 note=74 velocity=100 time=0
the msg is note_off channel=0 note=74 velocity=0 time=12
the msg is note_on channel=0 note=74 velocity=100 time=0
the msg is note_off channel=0 note=71 velocity=0 time=12
the msg is note_on channel=0 note=71 velocity=100 time=0
the msg is note_off channel=0 note=74 velocity=0 time=25
the msg is note_on channel=0 note=74 velocity=100 time=0
the msg is note_off channel=0 note=74 velocity=0 time=12
the msg is note_on channel=0 note=74 velocity=100 time=0
the msg is note_off channel=0 note=71 velocity=0 time=12
the msg is note_on channel=0 note=71 velocity=100 time=0
the msg is note_off channel=0 note=71 velocity=0 time=12
the msg is note_on channel=0 note=71 velocity=100 time=0
the msg is note_off channel=0 note=69 velocity=0 time=12
the msg is note_on channel=0 note=69 velocity=100 time=0
the msg is note_off channel=0 note=72 velocity=0 time=115
the msg is note_on channel=0 note=72 velocity=100 time=0
the msg is note_off channel=0 note=72 velocity=0 time=34
the msg is note_on channel=0 note=72 velocity=100 time=0
the msg is note_off channel=0 note=72 velocity=0 time=4
the msg is note_on channel=0 note=72 velocity=100 time=0
the msg is note_off channel=0 note=72 velocity=0 time=12
the msg is note_on channel=0 note=72 velocity=100 time=0
the msg is note_off channel=0 note=72 velocity=0 time=17
the msg is note_on channel=0 note=72 velocity=100 time=0
the msg is note_off channel=0 note=76 velocity=0 time=17
the msg is note_on channel=0 note=76 velocity=100 time=0
the msg is note_off channel=0 note=79 velocity=0 time=17
the msg is note_on channel=0 note=79 velocity=100 time=0
the msg is note_off channel=0 note=76 velocity=0 time=34
the msg is note_on channel=0 note=76 velocity=100 time=0
the msg is note_off channel=0 note=79 velocity=0 time=17
the msg is note_on channel=0 note=79 velocity=100 time=0
the msg is note_off channel=0 note=79 velocity=0 time=17
the msg is note_on channel=0 note=79 velocity=100 time=0
the msg is note_off channel=0 note=76 velocity=0 time=17
the msg is note_on channel=0 note=76 velocity=100 time=0
the msg is note_off channel=0 note=74 velocity=0 time=4
the msg is note_on channel=0 note=74 velocity=100 time=0
the msg is note_off channel=0 note=72 velocity=0 time=12
the msg is note_on channel=0 note=72 velocity=100 time=0
the msg is note_off channel=0 note=74 velocity=0 time=34
the msg is note_on channel=0 note=74 velocity=100 time=0
the msg is note_off channel=0 note=74 velocity=0 time=17
the msg is note_on channel=0 note=74 velocity=100 time=0
the msg is note_off channel=0 note=74 velocity=0 time=34
the msg is note_on channel=0 note=74 velocity=100 time=0
the msg is note_off channel=0 note=76 velocity=0 time=17
the msg is note_on channel=0 note=76 velocity=100 time=0
the msg is note_off channel=0 note=79 velocity=0 time=34
the msg is note_on channel=0 note=79 velocity=100 time=0
the msg is note_off channel=0 note=79 velocity=0 time=17
the msg is note_off channel=0 note=76 velocity=0 time=0
the msg is note_on channel=0 note=79 velocity=100 time=0
the msg is note_on channel=0 note=76 velocity=100 time=0
the msg is note_off channel=0 note=74 velocity=0 time=25
the msg is note_on channel=0 note=74 velocity=100 time=0
the msg is note_off channel=0 note=72 velocity=0 time=8
the msg is note_on channel=0 note=72 velocity=100 time=0
the msg is note_off channel=0 note=74 velocity=0 time=17
the msg is note_on channel=0 note=74 velocity=100 time=0
the msg is note_off channel=0 note=76 velocity=0 time=34
the msg is note_on channel=0 note=76 velocity=100 time=0
the msg is note_off channel=0 note=72 velocity=0 time=4
the msg is note_on channel=0 note=72 velocity=100 time=0
the msg is note_off channel=0 note=74 velocity=0 time=12
the msg is note_on channel=0 note=74 velocity=100 time=0
the msg is note_off channel=0 note=74 velocity=0 time=34
the msg is note_on channel=0 note=74 velocity=100 time=0
the msg is note_off channel=0 note=74 velocity=0 time=17
the msg is note_on channel=0 note=74 velocity=100 time=0
the msg is note_off channel=0 note=74 velocity=0 time=17
the msg is note_on channel=0 note=74 velocity=100 time=0
the msg is note_off channel=0 note=71 velocity=0 time=17
the msg is note_on channel=0 note=71 velocity=100 time=0
the msg is note_off channel=0 note=74 velocity=0 time=17
the msg is note_on channel=0 note=74 velocity=100 time=0
the msg is note_off channel=0 note=74 velocity=0 time=34
the msg is note_on channel=0 note=74 velocity=100 time=0
the msg is note_off channel=0 note=72 velocity=0 time=4
the msg is note_on channel=0 note=72 velocity=100 time=0
the msg is note_off channel=0 note=74 velocity=0 time=29
the msg is note_on channel=0 note=74 velocity=100 time=0
the msg is note_off channel=0 note=74 velocity=0 time=21
the msg is note_on channel=0 note=74 velocity=100 time=0
the msg is note_off channel=0 note=74 velocity=0 time=12
the msg is note_on channel=0 note=74 velocity=100 time=0
the msg is note_off channel=0 note=71 velocity=0 time=17
the msg is note_on channel=0 note=71 velocity=100 time=0
the msg is note_off channel=0 note=74 velocity=0 time=8
the msg is note_on channel=0 note=74 velocity=100 time=0
the msg is note_off channel=0 note=76 velocity=0 time=25
the msg is note_on channel=0 note=76 velocity=100 time=0
the msg is note_off channel=0 note=79 velocity=0 time=25
the msg is note_on channel=0 note=79 velocity=100 time=0
the msg is note_off channel=0 note=72 velocity=0 time=12
the msg is note_on channel=0 note=72 velocity=100 time=0
the msg is note_off channel=0 note=72 velocity=0 time=12
the msg is note_on channel=0 note=72 velocity=100 time=0
the msg is note_off channel=0 note=72 velocity=0 time=12
the msg is note_on channel=0 note=72 velocity=100 time=0
the msg is note_off channel=0 note=72 velocity=0 time=25
the msg is note_on channel=0 note=72 velocity=100 time=0
the msg is note_off channel=0 note=72 velocity=0 time=12
the msg is note_on channel=0 note=72 velocity=100 time=0
the msg is note_off channel=0 note=72 velocity=0 time=12
the msg is note_on channel=0 note=72 velocity=100 time=0
the msg is <meta message end_of_track time=51>
the msg is <meta message track_name name='Acoustic Guitar' time=0>
the msg is program_change channel=0 program=24 time=0
the msg is note_off channel=0 note=69 velocity=0 time=0
the msg is pitchwheel channel=0 pitch=0 time=0
the msg is program_change channel=0 program=24 time=0
the msg is <meta message set_tempo tempo=500000 time=0>
the msg is <meta message time_signature numerator=4 denominator=4 clocks_per_click=24 notated_32nd_notes_per_beat=8 time=0>
the msg is note_on channel=0 note=69 velocity=100 time=0
the msg is note_off channel=0 note=72 velocity=0 time=166
the msg is note_on channel=0 note=72 velocity=100 time=0
the msg is note_off channel=0 note=72 velocity=0 time=12
the msg is note_on channel=0 note=72 velocity=100 time=0
the msg is note_off channel=0 note=72 velocity=0 time=12
the msg is note_on channel=0 note=72 velocity=100 time=0
the msg is note_off channel=0 note=72 velocity=0 time=25
the msg is note_on channel=0 note=72 velocity=100 time=0
the msg is note_off channel=0 note=74 velocity=0 time=25
the msg is note_on channel=0 note=74 velocity=100 time=0
the msg is note_off channel=0 note=74 velocity=0 time=12
the msg is note_on channel=0 note=74 velocity=100 time=0
the msg is note_off channel=0 note=71 velocity=0 time=12
the msg is note_on channel=0 note=71 velocity=100 time=0
the msg is note_off channel=0 note=74 velocity=0 time=25
the msg is note_on channel=0 note=74 velocity=100 time=0
the msg is note_off channel=0 note=74 velocity=0 time=12
the msg is note_on channel=0 note=74 velocity=100 time=0
the msg is note_off channel=0 note=71 velocity=0 time=12
the msg is note_on channel=0 note=71 velocity=100 time=0
the msg is note_off channel=0 note=71 velocity=0 time=12
the msg is note_on channel=0 note=71 velocity=100 time=0
the msg is note_off channel=0 note=69 velocity=0 time=12
the msg is note_on channel=0 note=69 velocity=100 time=0
the msg is note_off channel=0 note=72 velocity=0 time=115
the msg is note_on channel=0 note=72 velocity=100 time=0
the msg is note_off channel=0 note=72 velocity=0 time=34
the msg is note_on channel=0 note=72 velocity=100 time=0
the msg is note_off channel=0 note=72 velocity=0 time=4
the msg is note_on channel=0 note=72 velocity=100 time=0
the msg is note_off channel=0 note=72 velocity=0 time=12
the msg is note_on channel=0 note=72 velocity=100 time=0
the msg is note_off channel=0 note=72 velocity=0 time=17
the msg is note_on channel=0 note=72 velocity=100 time=0
the msg is note_off channel=0 note=76 velocity=0 time=17
the msg is note_on channel=0 note=76 velocity=100 time=0
the msg is note_off channel=0 note=79 velocity=0 time=17
the msg is note_on channel=0 note=79 velocity=100 time=0
the msg is note_off channel=0 note=76 velocity=0 time=34
the msg is note_on channel=0 note=76 velocity=100 time=0
the msg is note_off channel=0 note=79 velocity=0 time=17
the msg is note_on channel=0 note=79 velocity=100 time=0
the msg is note_off channel=0 note=79 velocity=0 time=17
the msg is note_on channel=0 note=79 velocity=100 time=0
the msg is note_off channel=0 note=76 velocity=0 time=17
the msg is note_on channel=0 note=76 velocity=100 time=0
the msg is note_off channel=0 note=74 velocity=0 time=4
the msg is note_on channel=0 note=74 velocity=100 time=0
the msg is note_off channel=0 note=72 velocity=0 time=12
the msg is note_on channel=0 note=72 velocity=100 time=0
the msg is note_off channel=0 note=74 velocity=0 time=34
the msg is note_on channel=0 note=74 velocity=100 time=0
the msg is note_off channel=0 note=74 velocity=0 time=17
the msg is note_on channel=0 note=74 velocity=100 time=0
the msg is note_off channel=0 note=74 velocity=0 time=34
the msg is note_on channel=0 note=74 velocity=100 time=0
the msg is note_off channel=0 note=76 velocity=0 time=17
the msg is note_on channel=0 note=76 velocity=100 time=0
the msg is note_off channel=0 note=79 velocity=0 time=34
the msg is note_on channel=0 note=79 velocity=100 time=0
the msg is note_off channel=0 note=79 velocity=0 time=17
the msg is note_off channel=0 note=76 velocity=0 time=0
the msg is note_on channel=0 note=79 velocity=100 time=0
the msg is note_on channel=0 note=76 velocity=100 time=0
the msg is note_off channel=0 note=74 velocity=0 time=25
the msg is note_on channel=0 note=74 velocity=100 time=0
the msg is note_off channel=0 note=72 velocity=0 time=8
the msg is note_on channel=0 note=72 velocity=100 time=0
the msg is note_off channel=0 note=74 velocity=0 time=17
the msg is note_on channel=0 note=74 velocity=100 time=0
the msg is note_off channel=0 note=76 velocity=0 time=34
the msg is note_on channel=0 note=76 velocity=100 time=0
the msg is note_off channel=0 note=72 velocity=0 time=4
the msg is note_on channel=0 note=72 velocity=100 time=0
the msg is note_off channel=0 note=74 velocity=0 time=12
the msg is note_on channel=0 note=74 velocity=100 time=0
the msg is note_off channel=0 note=74 velocity=0 time=34
the msg is note_on channel=0 note=74 velocity=100 time=0
the msg is note_off channel=0 note=74 velocity=0 time=17
the msg is note_on channel=0 note=74 velocity=100 time=0
the msg is note_off channel=0 note=74 velocity=0 time=17
the msg is note_on channel=0 note=74 velocity=100 time=0
the msg is note_off channel=0 note=71 velocity=0 time=17
the msg is note_on channel=0 note=71 velocity=100 time=0
the msg is note_off channel=0 note=74 velocity=0 time=17
the msg is note_on channel=0 note=74 velocity=100 time=0
the msg is note_off channel=0 note=74 velocity=0 time=34
the msg is note_on channel=0 note=74 velocity=100 time=0
the msg is note_off channel=0 note=72 velocity=0 time=4
the msg is note_on channel=0 note=72 velocity=100 time=0
the msg is note_off channel=0 note=74 velocity=0 time=29
the msg is note_on channel=0 note=74 velocity=100 time=0
the msg is note_off channel=0 note=74 velocity=0 time=21
the msg is note_on channel=0 note=74 velocity=100 time=0
the msg is note_off channel=0 note=74 velocity=0 time=12
the msg is note_on channel=0 note=74 velocity=100 time=0
the msg is note_off channel=0 note=71 velocity=0 time=17
the msg is note_on channel=0 note=71 velocity=100 time=0
the msg is note_off channel=0 note=74 velocity=0 time=8
the msg is note_on channel=0 note=74 velocity=100 time=0
the msg is note_off channel=0 note=76 velocity=0 time=25
the msg is note_on channel=0 note=76 velocity=100 time=0
the msg is note_off channel=0 note=79 velocity=0 time=25
the msg is note_on channel=0 note=79 velocity=100 time=0
the msg is note_off channel=0 note=72 velocity=0 time=12
the msg is note_on channel=0 note=72 velocity=100 time=0
the msg is note_off channel=0 note=72 velocity=0 time=12
the msg is note_on channel=0 note=72 velocity=100 time=0
the msg is note_off channel=0 note=72 velocity=0 time=12
the msg is note_on channel=0 note=72 velocity=100 time=0
the msg is note_off channel=0 note=72 velocity=0 time=25
the msg is note_on channel=0 note=72 velocity=100 time=0
the msg is note_off channel=0 note=72 velocity=0 time=12
the msg is note_on channel=0 note=72 velocity=100 time=0
the msg is note_off channel=0 note=72 velocity=0 time=12
the msg is note_on channel=0 note=72 velocity=100 time=0
the msg is <meta message end_of_track time=51>
the msg is <meta message track_name name='Acoustic Guitar' time=0>
the msg is program_change channel=0 program=24 time=0
the msg is note_off channel=0 note=69 velocity=0 time=0
the msg is pitchwheel channel=0 pitch=0 time=0
the msg is program_change channel=0 program=24 time=0
the msg is <meta message set_tempo tempo=500000 time=0>
the msg is <meta message time_signature numerator=4 denominator=4 clocks_per_click=24 notated_32nd_notes_per_beat=8 time=0>
the msg is note_on channel=0 note=69 velocity=100 time=0
the msg is note_off channel=0 note=72 velocity=0 time=166
the msg is note_on channel=0 note=72 velocity=100 time=0
the msg is note_off channel=0 note=72 velocity=0 time=12
the msg is note_on channel=0 note=72 velocity=100 time=0
the msg is note_off channel=0 note=72 velocity=0 time=12
the msg is note_on channel=0 note=72 velocity=100 time=0
the msg is note_off channel=0 note=72 velocity=0 time=25
the msg is note_on channel=0 note=72 velocity=100 time=0
the msg is note_off channel=0 note=74 velocity=0 time=25
the msg is note_on channel=0 note=74 velocity=100 time=0
the msg is note_off channel=0 note=74 velocity=0 time=12
the msg is note_on channel=0 note=74 velocity=100 time=0
the msg is note_off channel=0 note=71 velocity=0 time=12
the msg is note_on channel=0 note=71 velocity=100 time=0
the msg is note_off channel=0 note=74 velocity=0 time=25
the msg is note_on channel=0 note=74 velocity=100 time=0
the msg is note_off channel=0 note=74 velocity=0 time=12
the msg is note_on channel=0 note=74 velocity=100 time=0
the msg is note_off channel=0 note=71 velocity=0 time=12
the msg is note_on channel=0 note=71 velocity=100 time=0
the msg is note_off channel=0 note=71 velocity=0 time=12
the msg is note_on channel=0 note=71 velocity=100 time=0
the msg is note_off channel=0 note=69 velocity=0 time=12
the msg is note_on channel=0 note=69 velocity=100 time=0
the msg is note_off channel=0 note=72 velocity=0 time=115
the msg is note_on channel=0 note=72 velocity=100 time=0
the msg is note_off channel=0 note=72 velocity=0 time=34
the msg is note_on channel=0 note=72 velocity=100 time=0
the msg is note_off channel=0 note=72 velocity=0 time=4
the msg is note_on channel=0 note=72 velocity=100 time=0
the msg is note_off channel=0 note=72 velocity=0 time=12
the msg is note_on channel=0 note=72 velocity=100 time=0
the msg is note_off channel=0 note=72 velocity=0 time=17
the msg is note_on channel=0 note=72 velocity=100 time=0
the msg is note_off channel=0 note=76 velocity=0 time=17
the msg is note_on channel=0 note=76 velocity=100 time=0
the msg is note_off channel=0 note=79 velocity=0 time=17
the msg is note_on channel=0 note=79 velocity=100 time=0
the msg is note_off channel=0 note=76 velocity=0 time=34
the msg is note_on channel=0 note=76 velocity=100 time=0
the msg is note_off channel=0 note=79 velocity=0 time=17
the msg is note_on channel=0 note=79 velocity=100 time=0
the msg is note_off channel=0 note=79 velocity=0 time=17
the msg is note_on channel=0 note=79 velocity=100 time=0
the msg is note_off channel=0 note=76 velocity=0 time=17
the msg is note_on channel=0 note=76 velocity=100 time=0
the msg is note_off channel=0 note=74 velocity=0 time=4
the msg is note_on channel=0 note=74 velocity=100 time=0
the msg is note_off channel=0 note=72 velocity=0 time=12
the msg is note_on channel=0 note=72 velocity=100 time=0
the msg is note_off channel=0 note=74 velocity=0 time=34
the msg is note_on channel=0 note=74 velocity=100 time=0
the msg is note_off channel=0 note=74 velocity=0 time=17
the msg is note_on channel=0 note=74 velocity=100 time=0
the msg is note_off channel=0 note=74 velocity=0 time=34
the msg is note_on channel=0 note=74 velocity=100 time=0
the msg is note_off channel=0 note=76 velocity=0 time=17
the msg is note_on channel=0 note=76 velocity=100 time=0
the msg is note_off channel=0 note=79 velocity=0 time=34
the msg is note_on channel=0 note=79 velocity=100 time=0
the msg is note_off channel=0 note=79 velocity=0 time=17
the msg is note_off channel=0 note=76 velocity=0 time=0
the msg is note_on channel=0 note=79 velocity=100 time=0
the msg is note_on channel=0 note=76 velocity=100 time=0
the msg is note_off channel=0 note=74 velocity=0 time=25
the msg is note_on channel=0 note=74 velocity=100 time=0
the msg is note_off channel=0 note=72 velocity=0 time=8
the msg is note_on channel=0 note=72 velocity=100 time=0
the msg is note_off channel=0 note=74 velocity=0 time=17
the msg is note_on channel=0 note=74 velocity=100 time=0
the msg is note_off channel=0 note=76 velocity=0 time=34
the msg is note_on channel=0 note=76 velocity=100 time=0
the msg is note_off channel=0 note=72 velocity=0 time=4
the msg is note_on channel=0 note=72 velocity=100 time=0
the msg is note_off channel=0 note=74 velocity=0 time=12
the msg is note_on channel=0 note=74 velocity=100 time=0
the msg is note_off channel=0 note=74 velocity=0 time=34
the msg is note_on channel=0 note=74 velocity=100 time=0
the msg is note_off channel=0 note=74 velocity=0 time=17
the msg is note_on channel=0 note=74 velocity=100 time=0
the msg is note_off channel=0 note=74 velocity=0 time=17
the msg is note_on channel=0 note=74 velocity=100 time=0
the msg is note_off channel=0 note=71 velocity=0 time=17
the msg is note_on channel=0 note=71 velocity=100 time=0
the msg is note_off channel=0 note=74 velocity=0 time=17
the msg is note_on channel=0 note=74 velocity=100 time=0
the msg is note_off channel=0 note=74 velocity=0 time=34
the msg is note_on channel=0 note=74 velocity=100 time=0
the msg is note_off channel=0 note=72 velocity=0 time=4
the msg is note_on channel=0 note=72 velocity=100 time=0
the msg is note_off channel=0 note=74 velocity=0 time=29
the msg is note_on channel=0 note=74 velocity=100 time=0
the msg is note_off channel=0 note=74 velocity=0 time=21
the msg is note_on channel=0 note=74 velocity=100 time=0
the msg is note_off channel=0 note=74 velocity=0 time=12
the msg is note_on channel=0 note=74 velocity=100 time=0
the msg is note_off channel=0 note=71 velocity=0 time=17
the msg is note_on channel=0 note=71 velocity=100 time=0
the msg is note_off channel=0 note=74 velocity=0 time=8
the msg is note_on channel=0 note=74 velocity=100 time=0
the msg is note_off channel=0 note=76 velocity=0 time=25
the msg is note_on channel=0 note=76 velocity=100 time=0
the msg is note_off channel=0 note=79 velocity=0 time=25
the msg is note_on channel=0 note=79 velocity=100 time=0
the msg is note_off channel=0 note=72 velocity=0 time=12
the msg is note_on channel=0 note=72 velocity=100 time=0
the msg is note_off channel=0 note=72 velocity=0 time=12
the msg is note_on channel=0 note=72 velocity=100 time=0
the msg is note_off channel=0 note=72 velocity=0 time=12
the msg is note_on channel=0 note=72 velocity=100 time=0
the msg is note_off channel=0 note=72 velocity=0 time=25
the msg is note_on channel=0 note=72 velocity=100 time=0
the msg is note_off channel=0 note=72 velocity=0 time=12
the msg is note_on channel=0 note=72 velocity=100 time=0
the msg is note_off channel=0 note=72 velocity=0 time=12
the msg is note_on channel=0 note=72 velocity=100 time=0
the msg is <meta message end_of_track time=51>
the msg is <meta message track_name name='Acoustic Guitar' time=0>
the msg is program_change channel=0 program=24 time=0
the msg is note_off channel=0 note=69 velocity=0 time=0
the msg is pitchwheel channel=0 pitch=0 time=0
the msg is program_change channel=0 program=24 time=0
the msg is <meta message set_tempo tempo=500000 time=0>
the msg is <meta message time_signature numerator=4 denominator=4 clocks_per_click=24 notated_32nd_notes_per_beat=8 time=0>
the msg is note_on channel=0 note=69 velocity=100 time=0
the msg is note_off channel=0 note=72 velocity=0 time=166
the msg is note_on channel=0 note=72 velocity=100 time=0
the msg is note_off channel=0 note=72 velocity=0 time=12
the msg is note_on channel=0 note=72 velocity=100 time=0
the msg is note_off channel=0 note=72 velocity=0 time=12
the msg is note_on channel=0 note=72 velocity=100 time=0
the msg is note_off channel=0 note=72 velocity=0 time=25
the msg is note_on channel=0 note=72 velocity=100 time=0
the msg is note_off channel=0 note=74 velocity=0 time=25
the msg is note_on channel=0 note=74 velocity=100 time=0
the msg is note_off channel=0 note=74 velocity=0 time=12
the msg is note_on channel=0 note=74 velocity=100 time=0
the msg is note_off channel=0 note=71 velocity=0 time=12
the msg is note_on channel=0 note=71 velocity=100 time=0
the msg is note_off channel=0 note=74 velocity=0 time=25
the msg is note_on channel=0 note=74 velocity=100 time=0
the msg is note_off channel=0 note=74 velocity=0 time=12
the msg is note_on channel=0 note=74 velocity=100 time=0
the msg is note_off channel=0 note=71 velocity=0 time=12
the msg is note_on channel=0 note=71 velocity=100 time=0
the msg is note_off channel=0 note=71 velocity=0 time=12
the msg is note_on channel=0 note=71 velocity=100 time=0
the msg is note_off channel=0 note=69 velocity=0 time=12
the msg is note_on channel=0 note=69 velocity=100 time=0
the msg is note_off channel=0 note=72 velocity=0 time=115
the msg is note_on channel=0 note=72 velocity=100 time=0
the msg is note_off channel=0 note=72 velocity=0 time=34
the msg is note_on channel=0 note=72 velocity=100 time=0
the msg is note_off channel=0 note=72 velocity=0 time=4
the msg is note_on channel=0 note=72 velocity=100 time=0
the msg is note_off channel=0 note=72 velocity=0 time=12
the msg is note_on channel=0 note=72 velocity=100 time=0
the msg is note_off channel=0 note=72 velocity=0 time=17
the msg is note_on channel=0 note=72 velocity=100 time=0
the msg is note_off channel=0 note=76 velocity=0 time=17
the msg is note_on channel=0 note=76 velocity=100 time=0
the msg is note_off channel=0 note=79 velocity=0 time=17
the msg is note_on channel=0 note=79 velocity=100 time=0
the msg is note_off channel=0 note=76 velocity=0 time=34
the msg is note_on channel=0 note=76 velocity=100 time=0
the msg is note_off channel=0 note=79 velocity=0 time=17
the msg is note_on channel=0 note=79 velocity=100 time=0
the msg is note_off channel=0 note=79 velocity=0 time=17
the msg is note_on channel=0 note=79 velocity=100 time=0
the msg is note_off channel=0 note=76 velocity=0 time=17
the msg is note_on channel=0 note=76 velocity=100 time=0
the msg is note_off channel=0 note=74 velocity=0 time=4
the msg is note_on channel=0 note=74 velocity=100 time=0
the msg is note_off channel=0 note=72 velocity=0 time=12
the msg is note_on channel=0 note=72 velocity=100 time=0
the msg is note_off channel=0 note=74 velocity=0 time=34
the msg is note_on channel=0 note=74 velocity=100 time=0
the msg is note_off channel=0 note=74 velocity=0 time=17
the msg is note_on channel=0 note=74 velocity=100 time=0
the msg is note_off channel=0 note=74 velocity=0 time=34
the msg is note_on channel=0 note=74 velocity=100 time=0
the msg is note_off channel=0 note=76 velocity=0 time=17
the msg is note_on channel=0 note=76 velocity=100 time=0
the msg is note_off channel=0 note=79 velocity=0 time=34
the msg is note_on channel=0 note=79 velocity=100 time=0
the msg is note_off channel=0 note=79 velocity=0 time=17
the msg is note_off channel=0 note=76 velocity=0 time=0
the msg is note_on channel=0 note=79 velocity=100 time=0
the msg is note_on channel=0 note=76 velocity=100 time=0
the msg is note_off channel=0 note=74 velocity=0 time=25
the msg is note_on channel=0 note=74 velocity=100 time=0
the msg is note_off channel=0 note=72 velocity=0 time=8
the msg is note_on channel=0 note=72 velocity=100 time=0
the msg is note_off channel=0 note=74 velocity=0 time=17
the msg is note_on channel=0 note=74 velocity=100 time=0
the msg is note_off channel=0 note=76 velocity=0 time=34
the msg is note_on channel=0 note=76 velocity=100 time=0
the msg is note_off channel=0 note=72 velocity=0 time=4
the msg is note_on channel=0 note=72 velocity=100 time=0
the msg is note_off channel=0 note=74 velocity=0 time=12
the msg is note_on channel=0 note=74 velocity=100 time=0
the msg is note_off channel=0 note=74 velocity=0 time=34
the msg is note_on channel=0 note=74 velocity=100 time=0
the msg is note_off channel=0 note=74 velocity=0 time=17
the msg is note_on channel=0 note=74 velocity=100 time=0
the msg is note_off channel=0 note=74 velocity=0 time=17
the msg is note_on channel=0 note=74 velocity=100 time=0
the msg is note_off channel=0 note=71 velocity=0 time=17
the msg is note_on channel=0 note=71 velocity=100 time=0
the msg is note_off channel=0 note=74 velocity=0 time=17
the msg is note_on channel=0 note=74 velocity=100 time=0
the msg is note_off channel=0 note=74 velocity=0 time=34
the msg is note_on channel=0 note=74 velocity=100 time=0
the msg is note_off channel=0 note=72 velocity=0 time=4
the msg is note_on channel=0 note=72 velocity=100 time=0
the msg is note_off channel=0 note=74 velocity=0 time=29
the msg is note_on channel=0 note=74 velocity=100 time=0
the msg is note_off channel=0 note=74 velocity=0 time=21
the msg is note_on channel=0 note=74 velocity=100 time=0
the msg is note_off channel=0 note=74 velocity=0 time=12
the msg is note_on channel=0 note=74 velocity=100 time=0
the msg is note_off channel=0 note=71 velocity=0 time=17
the msg is note_on channel=0 note=71 velocity=100 time=0
the msg is note_off channel=0 note=74 velocity=0 time=8
the msg is note_on channel=0 note=74 velocity=100 time=0
the msg is note_off channel=0 note=76 velocity=0 time=25
the msg is note_on channel=0 note=76 velocity=100 time=0
the msg is note_off channel=0 note=79 velocity=0 time=25
the msg is note_on channel=0 note=79 velocity=100 time=0
the msg is note_off channel=0 note=72 velocity=0 time=12
the msg is note_on channel=0 note=72 velocity=100 time=0
the msg is note_off channel=0 note=72 velocity=0 time=12
the msg is note_on channel=0 note=72 velocity=100 time=0
the msg is note_off channel=0 note=72 velocity=0 time=12
the msg is note_on channel=0 note=72 velocity=100 time=0
the msg is note_off channel=0 note=72 velocity=0 time=25
the msg is note_on channel=0 note=72 velocity=100 time=0
the msg is note_off channel=0 note=72 velocity=0 time=12
the msg is note_on channel=0 note=72 velocity=100 time=0
the msg is note_off channel=0 note=72 velocity=0 time=12
the msg is note_on channel=0 note=72 velocity=100 time=0
the msg is <meta message end_of_track time=51>
the msg is <meta message track_name name='Acoustic Guitar' time=0>
the msg is program_change channel=0 program=24 time=0
the msg is note_off channel=0 note=69 velocity=0 time=0
the msg is pitchwheel channel=0 pitch=0 time=0
the msg is program_change channel=0 program=24 time=0
the msg is <meta message set_tempo tempo=500000 time=0>
the msg is <meta message time_signature numerator=4 denominator=4 clocks_per_click=24 notated_32nd_notes_per_beat=8 time=0>
the msg is note_on channel=0 note=69 velocity=100 time=0
the msg is note_off channel=0 note=72 velocity=0 time=166
the msg is note_on channel=0 note=72 velocity=100 time=0
the msg is note_off channel=0 note=72 velocity=0 time=12
the msg is note_on channel=0 note=72 velocity=100 time=0
the msg is note_off channel=0 note=72 velocity=0 time=12
the msg is note_on channel=0 note=72 velocity=100 time=0
the msg is note_off channel=0 note=72 velocity=0 time=25
the msg is note_on channel=0 note=72 velocity=100 time=0
the msg is note_off channel=0 note=74 velocity=0 time=25
the msg is note_on channel=0 note=74 velocity=100 time=0
the msg is note_off channel=0 note=74 velocity=0 time=12
the msg is note_on channel=0 note=74 velocity=100 time=0
the msg is note_off channel=0 note=71 velocity=0 time=12
the msg is note_on channel=0 note=71 velocity=100 time=0
the msg is note_off channel=0 note=74 velocity=0 time=25
the msg is note_on channel=0 note=74 velocity=100 time=0
the msg is note_off channel=0 note=74 velocity=0 time=12
the msg is note_on channel=0 note=74 velocity=100 time=0
the msg is note_off channel=0 note=71 velocity=0 time=12
the msg is note_on channel=0 note=71 velocity=100 time=0
the msg is note_off channel=0 note=71 velocity=0 time=12
the msg is note_on channel=0 note=71 velocity=100 time=0
the msg is note_off channel=0 note=69 velocity=0 time=12
the msg is note_on channel=0 note=69 velocity=100 time=0
the msg is note_off channel=0 note=72 velocity=0 time=115
the msg is note_on channel=0 note=72 velocity=100 time=0
the msg is note_off channel=0 note=72 velocity=0 time=34
the msg is note_on channel=0 note=72 velocity=100 time=0
the msg is note_off channel=0 note=72 velocity=0 time=4
the msg is note_on channel=0 note=72 velocity=100 time=0
the msg is note_off channel=0 note=72 velocity=0 time=12
the msg is note_on channel=0 note=72 velocity=100 time=0
the msg is note_off channel=0 note=72 velocity=0 time=17
the msg is note_on channel=0 note=72 velocity=100 time=0
the msg is note_off channel=0 note=76 velocity=0 time=17
the msg is note_on channel=0 note=76 velocity=100 time=0
the msg is note_off channel=0 note=79 velocity=0 time=17
the msg is note_on channel=0 note=79 velocity=100 time=0
the msg is note_off channel=0 note=76 velocity=0 time=34
the msg is note_on channel=0 note=76 velocity=100 time=0
the msg is note_off channel=0 note=79 velocity=0 time=17
the msg is note_on channel=0 note=79 velocity=100 time=0
the msg is note_off channel=0 note=79 velocity=0 time=17
the msg is note_on channel=0 note=79 velocity=100 time=0
the msg is note_off channel=0 note=76 velocity=0 time=17
the msg is note_on channel=0 note=76 velocity=100 time=0
the msg is note_off channel=0 note=74 velocity=0 time=4
the msg is note_on channel=0 note=74 velocity=100 time=0
the msg is note_off channel=0 note=72 velocity=0 time=12
the msg is note_on channel=0 note=72 velocity=100 time=0
the msg is note_off channel=0 note=74 velocity=0 time=34
the msg is note_on channel=0 note=74 velocity=100 time=0
the msg is note_off channel=0 note=74 velocity=0 time=17
the msg is note_on channel=0 note=74 velocity=100 time=0
the msg is note_off channel=0 note=74 velocity=0 time=34
the msg is note_on channel=0 note=74 velocity=100 time=0
the msg is note_off channel=0 note=76 velocity=0 time=17
the msg is note_on channel=0 note=76 velocity=100 time=0
the msg is note_off channel=0 note=79 velocity=0 time=34
the msg is note_on channel=0 note=79 velocity=100 time=0
the msg is note_off channel=0 note=79 velocity=0 time=17
the msg is note_off channel=0 note=76 velocity=0 time=0
the msg is note_on channel=0 note=79 velocity=100 time=0
the msg is note_on channel=0 note=76 velocity=100 time=0
the msg is note_off channel=0 note=74 velocity=0 time=25
the msg is note_on channel=0 note=74 velocity=100 time=0
the msg is note_off channel=0 note=72 velocity=0 time=8
the msg is note_on channel=0 note=72 velocity=100 time=0
the msg is note_off channel=0 note=74 velocity=0 time=17
the msg is note_on channel=0 note=74 velocity=100 time=0
the msg is note_off channel=0 note=76 velocity=0 time=34
the msg is note_on channel=0 note=76 velocity=100 time=0
the msg is note_off channel=0 note=72 velocity=0 time=4
the msg is note_on channel=0 note=72 velocity=100 time=0
the msg is note_off channel=0 note=74 velocity=0 time=12
the msg is note_on channel=0 note=74 velocity=100 time=0
the msg is note_off channel=0 note=74 velocity=0 time=34
the msg is note_on channel=0 note=74 velocity=100 time=0
the msg is note_off channel=0 note=74 velocity=0 time=17
the msg is note_on channel=0 note=74 velocity=100 time=0
the msg is note_off channel=0 note=74 velocity=0 time=17
the msg is note_on channel=0 note=74 velocity=100 time=0
the msg is note_off channel=0 note=71 velocity=0 time=17
the msg is note_on channel=0 note=71 velocity=100 time=0
the msg is note_off channel=0 note=74 velocity=0 time=17
the msg is note_on channel=0 note=74 velocity=100 time=0
the msg is note_off channel=0 note=74 velocity=0 time=34
the msg is note_on channel=0 note=74 velocity=100 time=0
the msg is note_off channel=0 note=72 velocity=0 time=4
the msg is note_on channel=0 note=72 velocity=100 time=0
the msg is note_off channel=0 note=74 velocity=0 time=29
the msg is note_on channel=0 note=74 velocity=100 time=0
the msg is note_off channel=0 note=74 velocity=0 time=21
the msg is note_on channel=0 note=74 velocity=100 time=0
the msg is note_off channel=0 note=74 velocity=0 time=12
the msg is note_on channel=0 note=74 velocity=100 time=0
the msg is note_off channel=0 note=71 velocity=0 time=17
the msg is note_on channel=0 note=71 velocity=100 time=0
the msg is note_off channel=0 note=74 velocity=0 time=8
the msg is note_on channel=0 note=74 velocity=100 time=0
the msg is note_off channel=0 note=76 velocity=0 time=25
the msg is note_on channel=0 note=76 velocity=100 time=0
the msg is note_off channel=0 note=79 velocity=0 time=25
the msg is note_on channel=0 note=79 velocity=100 time=0
the msg is note_off channel=0 note=72 velocity=0 time=12
the msg is note_on channel=0 note=72 velocity=100 time=0
the msg is note_off channel=0 note=72 velocity=0 time=12
the msg is note_on channel=0 note=72 velocity=100 time=0
the msg is note_off channel=0 note=72 velocity=0 time=12
the msg is note_on channel=0 note=72 velocity=100 time=0
the msg is note_off channel=0 note=72 velocity=0 time=25
the msg is note_on channel=0 note=72 velocity=100 time=0
the msg is note_off channel=0 note=72 velocity=0 time=12
the msg is note_on channel=0 note=72 velocity=100 time=0
the msg is note_off channel=0 note=72 velocity=0 time=12
the msg is note_on channel=0 note=72 velocity=100 time=0
the msg is <meta message end_of_track time=51>
the msg is <meta message track_name name='Acoustic Guitar' time=0>
the msg is program_change channel=0 program=24 time=0
the msg is note_off channel=0 note=69 velocity=0 time=0
the msg is pitchwheel channel=0 pitch=0 time=0
the msg is program_change channel=0 program=24 time=0
the msg is <meta message set_tempo tempo=500000 time=0>
the msg is <meta message time_signature numerator=4 denominator=4 clocks_per_click=24 notated_32nd_notes_per_beat=8 time=0>
the msg is note_on channel=0 note=69 velocity=100 time=0
the msg is note_off channel=0 note=72 velocity=0 time=166
the msg is note_on channel=0 note=72 velocity=100 time=0
the msg is note_off channel=0 note=72 velocity=0 time=12
the msg is note_on channel=0 note=72 velocity=100 time=0
the msg is note_off channel=0 note=72 velocity=0 time=12
the msg is note_on channel=0 note=72 velocity=100 time=0
the msg is note_off channel=0 note=72 velocity=0 time=25
the msg is note_on channel=0 note=72 velocity=100 time=0
the msg is note_off channel=0 note=74 velocity=0 time=25
the msg is note_on channel=0 note=74 velocity=100 time=0
the msg is note_off channel=0 note=74 velocity=0 time=12
the msg is note_on channel=0 note=74 velocity=100 time=0
the msg is note_off channel=0 note=71 velocity=0 time=12
the msg is note_on channel=0 note=71 velocity=100 time=0
the msg is note_off channel=0 note=74 velocity=0 time=25
the msg is note_on channel=0 note=74 velocity=100 time=0
the msg is note_off channel=0 note=74 velocity=0 time=12
the msg is note_on channel=0 note=74 velocity=100 time=0
the msg is note_off channel=0 note=71 velocity=0 time=12
the msg is note_on channel=0 note=71 velocity=100 time=0
the msg is note_off channel=0 note=71 velocity=0 time=12
the msg is note_on channel=0 note=71 velocity=100 time=0
the msg is note_off channel=0 note=69 velocity=0 time=12
the msg is note_on channel=0 note=69 velocity=100 time=0
the msg is note_off channel=0 note=72 velocity=0 time=115
the msg is note_on channel=0 note=72 velocity=100 time=0
the msg is note_off channel=0 note=72 velocity=0 time=34
the msg is note_on channel=0 note=72 velocity=100 time=0
the msg is note_off channel=0 note=72 velocity=0 time=4
the msg is note_on channel=0 note=72 velocity=100 time=0
the msg is note_off channel=0 note=72 velocity=0 time=12
the msg is note_on channel=0 note=72 velocity=100 time=0
the msg is note_off channel=0 note=72 velocity=0 time=17
the msg is note_on channel=0 note=72 velocity=100 time=0
the msg is note_off channel=0 note=76 velocity=0 time=17
the msg is note_on channel=0 note=76 velocity=100 time=0
the msg is note_off channel=0 note=79 velocity=0 time=17
the msg is note_on channel=0 note=79 velocity=100 time=0
the msg is note_off channel=0 note=76 velocity=0 time=34
the msg is note_on channel=0 note=76 velocity=100 time=0
the msg is note_off channel=0 note=79 velocity=0 time=17
the msg is note_on channel=0 note=79 velocity=100 time=0
the msg is note_off channel=0 note=79 velocity=0 time=17
the msg is note_on channel=0 note=79 velocity=100 time=0
the msg is note_off channel=0 note=76 velocity=0 time=17
the msg is note_on channel=0 note=76 velocity=100 time=0
the msg is note_off channel=0 note=74 velocity=0 time=4
the msg is note_on channel=0 note=74 velocity=100 time=0
the msg is note_off channel=0 note=72 velocity=0 time=12
the msg is note_on channel=0 note=72 velocity=100 time=0
the msg is note_off channel=0 note=74 velocity=0 time=34
the msg is note_on channel=0 note=74 velocity=100 time=0
the msg is note_off channel=0 note=74 velocity=0 time=17
the msg is note_on channel=0 note=74 velocity=100 time=0
the msg is note_off channel=0 note=74 velocity=0 time=34
the msg is note_on channel=0 note=74 velocity=100 time=0
the msg is note_off channel=0 note=76 velocity=0 time=17
the msg is note_on channel=0 note=76 velocity=100 time=0
the msg is note_off channel=0 note=79 velocity=0 time=34
the msg is note_on channel=0 note=79 velocity=100 time=0
the msg is note_off channel=0 note=79 velocity=0 time=17
the msg is note_off channel=0 note=76 velocity=0 time=0
the msg is note_on channel=0 note=79 velocity=100 time=0
the msg is note_on channel=0 note=76 velocity=100 time=0
the msg is note_off channel=0 note=74 velocity=0 time=25
the msg is note_on channel=0 note=74 velocity=100 time=0
the msg is note_off channel=0 note=72 velocity=0 time=8
the msg is note_on channel=0 note=72 velocity=100 time=0
the msg is note_off channel=0 note=74 velocity=0 time=17
the msg is note_on channel=0 note=74 velocity=100 time=0
the msg is note_off channel=0 note=76 velocity=0 time=34
the msg is note_on channel=0 note=76 velocity=100 time=0
the msg is note_off channel=0 note=72 velocity=0 time=4
the msg is note_on channel=0 note=72 velocity=100 time=0
the msg is note_off channel=0 note=74 velocity=0 time=12
the msg is note_on channel=0 note=74 velocity=100 time=0
the msg is note_off channel=0 note=74 velocity=0 time=34
the msg is note_on channel=0 note=74 velocity=100 time=0
the msg is note_off channel=0 note=74 velocity=0 time=17
the msg is note_on channel=0 note=74 velocity=100 time=0
the msg is note_off channel=0 note=74 velocity=0 time=17
the msg is note_on channel=0 note=74 velocity=100 time=0
the msg is note_off channel=0 note=71 velocity=0 time=17
the msg is note_on channel=0 note=71 velocity=100 time=0
the msg is note_off channel=0 note=74 velocity=0 time=17
the msg is note_on channel=0 note=74 velocity=100 time=0
the msg is note_off channel=0 note=74 velocity=0 time=34
the msg is note_on channel=0 note=74 velocity=100 time=0
the msg is note_off channel=0 note=72 velocity=0 time=4
the msg is note_on channel=0 note=72 velocity=100 time=0
the msg is note_off channel=0 note=74 velocity=0 time=29
the msg is note_on channel=0 note=74 velocity=100 time=0
the msg is note_off channel=0 note=74 velocity=0 time=21
the msg is note_on channel=0 note=74 velocity=100 time=0
the msg is note_off channel=0 note=74 velocity=0 time=12
the msg is note_on channel=0 note=74 velocity=100 time=0
the msg is note_off channel=0 note=71 velocity=0 time=17
the msg is note_on channel=0 note=71 velocity=100 time=0
the msg is note_off channel=0 note=74 velocity=0 time=8
the msg is note_on channel=0 note=74 velocity=100 time=0
the msg is note_off channel=0 note=76 velocity=0 time=25
the msg is note_on channel=0 note=76 velocity=100 time=0
the msg is note_off channel=0 note=79 velocity=0 time=25
the msg is note_on channel=0 note=79 velocity=100 time=0
the msg is note_off channel=0 note=72 velocity=0 time=12
the msg is note_on channel=0 note=72 velocity=100 time=0
the msg is note_off channel=0 note=72 velocity=0 time=12
the msg is note_on channel=0 note=72 velocity=100 time=0
the msg is note_off channel=0 note=72 velocity=0 time=12
the msg is note_on channel=0 note=72 velocity=100 time=0
the msg is note_off channel=0 note=72 velocity=0 time=25
the msg is note_on channel=0 note=72 velocity=100 time=0
the msg is note_off channel=0 note=72 velocity=0 time=12
the msg is note_on channel=0 note=72 velocity=100 time=0
the msg is note_off channel=0 note=72 velocity=0 time=12
the msg is note_on channel=0 note=72 velocity=100 time=0
the msg is <meta message end_of_track time=51>
the msg is <meta message track_name name='Acoustic Guitar' time=0>
the msg is program_change channel=0 program=24 time=0
the msg is note_off channel=0 note=69 velocity=0 time=0
the msg is pitchwheel channel=0 pitch=0 time=0
the msg is program_change channel=0 program=24 time=0
the msg is <meta message set_tempo tempo=500000 time=0>
the msg is <meta message time_signature numerator=4 denominator=4 clocks_per_click=24 notated_32nd_notes_per_beat=8 time=0>
the msg is note_on channel=0 note=69 velocity=100 time=0
the msg is note_off channel=0 note=72 velocity=0 time=166
the msg is note_on channel=0 note=72 velocity=100 time=0
the msg is note_off channel=0 note=72 velocity=0 time=12
the msg is note_on channel=0 note=72 velocity=100 time=0
the msg is note_off channel=0 note=72 velocity=0 time=12
the msg is note_on channel=0 note=72 velocity=100 time=0
the msg is note_off channel=0 note=72 velocity=0 time=25
the msg is note_on channel=0 note=72 velocity=100 time=0
the msg is note_off channel=0 note=74 velocity=0 time=25
the msg is note_on channel=0 note=74 velocity=100 time=0
the msg is note_off channel=0 note=74 velocity=0 time=12
the msg is note_on channel=0 note=74 velocity=100 time=0
the msg is note_off channel=0 note=71 velocity=0 time=12
the msg is note_on channel=0 note=71 velocity=100 time=0
the msg is note_off channel=0 note=74 velocity=0 time=25
the msg is note_on channel=0 note=74 velocity=100 time=0
the msg is note_off channel=0 note=74 velocity=0 time=12
the msg is note_on channel=0 note=74 velocity=100 time=0
the msg is note_off channel=0 note=71 velocity=0 time=12
the msg is note_on channel=0 note=71 velocity=100 time=0
the msg is note_off channel=0 note=71 velocity=0 time=12
the msg is note_on channel=0 note=71 velocity=100 time=0
the msg is note_off channel=0 note=69 velocity=0 time=12
the msg is note_on channel=0 note=69 velocity=100 time=0
the msg is note_off channel=0 note=72 velocity=0 time=115
the msg is note_on channel=0 note=72 velocity=100 time=0
the msg is note_off channel=0 note=72 velocity=0 time=34
the msg is note_on channel=0 note=72 velocity=100 time=0
the msg is note_off channel=0 note=72 velocity=0 time=4
the msg is note_on channel=0 note=72 velocity=100 time=0
the msg is note_off channel=0 note=72 velocity=0 time=12
the msg is note_on channel=0 note=72 velocity=100 time=0
the msg is note_off channel=0 note=72 velocity=0 time=17
the msg is note_on channel=0 note=72 velocity=100 time=0
the msg is note_off channel=0 note=76 velocity=0 time=17
the msg is note_on channel=0 note=76 velocity=100 time=0
the msg is note_off channel=0 note=79 velocity=0 time=17
the msg is note_on channel=0 note=79 velocity=100 time=0
the msg is note_off channel=0 note=76 velocity=0 time=34
the msg is note_on channel=0 note=76 velocity=100 time=0
the msg is note_off channel=0 note=79 velocity=0 time=17
the msg is note_on channel=0 note=79 velocity=100 time=0
the msg is note_off channel=0 note=79 velocity=0 time=17
the msg is note_on channel=0 note=79 velocity=100 time=0
the msg is note_off channel=0 note=76 velocity=0 time=17
the msg is note_on channel=0 note=76 velocity=100 time=0
the msg is note_off channel=0 note=74 velocity=0 time=4
the msg is note_on channel=0 note=74 velocity=100 time=0
the msg is note_off channel=0 note=72 velocity=0 time=12
the msg is note_on channel=0 note=72 velocity=100 time=0
the msg is note_off channel=0 note=74 velocity=0 time=34
the msg is note_on channel=0 note=74 velocity=100 time=0
the msg is note_off channel=0 note=74 velocity=0 time=17
the msg is note_on channel=0 note=74 velocity=100 time=0
the msg is note_off channel=0 note=74 velocity=0 time=34
the msg is note_on channel=0 note=74 velocity=100 time=0
the msg is note_off channel=0 note=76 velocity=0 time=17
the msg is note_on channel=0 note=76 velocity=100 time=0
the msg is note_off channel=0 note=79 velocity=0 time=34
the msg is note_on channel=0 note=79 velocity=100 time=0
the msg is note_off channel=0 note=79 velocity=0 time=17
the msg is note_off channel=0 note=76 velocity=0 time=0
the msg is note_on channel=0 note=79 velocity=100 time=0
the msg is note_on channel=0 note=76 velocity=100 time=0
the msg is note_off channel=0 note=74 velocity=0 time=25
the msg is note_on channel=0 note=74 velocity=100 time=0
the msg is note_off channel=0 note=72 velocity=0 time=8
the msg is note_on channel=0 note=72 velocity=100 time=0
the msg is note_off channel=0 note=74 velocity=0 time=17
the msg is note_on channel=0 note=74 velocity=100 time=0
the msg is note_off channel=0 note=76 velocity=0 time=34
the msg is note_on channel=0 note=76 velocity=100 time=0
the msg is note_off channel=0 note=72 velocity=0 time=4
the msg is note_on channel=0 note=72 velocity=100 time=0
the msg is note_off channel=0 note=74 velocity=0 time=12
the msg is note_on channel=0 note=74 velocity=100 time=0
the msg is note_off channel=0 note=74 velocity=0 time=34
the msg is note_on channel=0 note=74 velocity=100 time=0
the msg is note_off channel=0 note=74 velocity=0 time=17
the msg is note_on channel=0 note=74 velocity=100 time=0
the msg is note_off channel=0 note=74 velocity=0 time=17
the msg is note_on channel=0 note=74 velocity=100 time=0
the msg is note_off channel=0 note=71 velocity=0 time=17
the msg is note_on channel=0 note=71 velocity=100 time=0
the msg is note_off channel=0 note=74 velocity=0 time=17
the msg is note_on channel=0 note=74 velocity=100 time=0
the msg is note_off channel=0 note=74 velocity=0 time=34
the msg is note_on channel=0 note=74 velocity=100 time=0
the msg is note_off channel=0 note=72 velocity=0 time=4
the msg is note_on channel=0 note=72 velocity=100 time=0
the msg is note_off channel=0 note=74 velocity=0 time=29
the msg is note_on channel=0 note=74 velocity=100 time=0
the msg is note_off channel=0 note=74 velocity=0 time=21
the msg is note_on channel=0 note=74 velocity=100 time=0
the msg is note_off channel=0 note=74 velocity=0 time=12
the msg is note_on channel=0 note=74 velocity=100 time=0
the msg is note_off channel=0 note=71 velocity=0 time=17
the msg is note_on channel=0 note=71 velocity=100 time=0
the msg is note_off channel=0 note=74 velocity=0 time=8
the msg is note_on channel=0 note=74 velocity=100 time=0
the msg is note_off channel=0 note=76 velocity=0 time=25
the msg is note_on channel=0 note=76 velocity=100 time=0
the msg is note_off channel=0 note=79 velocity=0 time=25
the msg is note_on channel=0 note=79 velocity=100 time=0
the msg is note_off channel=0 note=72 velocity=0 time=12
the msg is note_on channel=0 note=72 velocity=100 time=0
the msg is note_off channel=0 note=72 velocity=0 time=12
the msg is note_on channel=0 note=72 velocity=100 time=0
the msg is note_off channel=0 note=72 velocity=0 time=12
the msg is note_on channel=0 note=72 velocity=100 time=0
the msg is note_off channel=0 note=72 velocity=0 time=25
the msg is note_on channel=0 note=72 velocity=100 time=0
the msg is note_off channel=0 note=72 velocity=0 time=12
the msg is note_on channel=0 note=72 velocity=100 time=0
the msg is note_off channel=0 note=72 velocity=0 time=12
the msg is note_on channel=0 note=72 velocity=100 time=0
the msg is <meta message end_of_track time=51>
the msg is <meta message track_name name='Acoustic Guitar' time=0>
the msg is program_change channel=0 program=24 time=0
the msg is note_off channel=0 note=69 velocity=0 time=0
the msg is pitchwheel channel=0 pitch=0 time=0
the msg is program_change channel=0 program=24 time=0
the msg is <meta message set_tempo tempo=500000 time=0>
the msg is <meta message time_signature numerator=4 denominator=4 clocks_per_click=24 notated_32nd_notes_per_beat=8 time=0>
the msg is note_on channel=0 note=69 velocity=100 time=0
the msg is note_off channel=0 note=72 velocity=0 time=166
the msg is note_on channel=0 note=72 velocity=100 time=0
the msg is note_off channel=0 note=72 velocity=0 time=12
the msg is note_on channel=0 note=72 velocity=100 time=0
the msg is note_off channel=0 note=72 velocity=0 time=12
the msg is note_on channel=0 note=72 velocity=100 time=0
the msg is note_off channel=0 note=72 velocity=0 time=25
the msg is note_on channel=0 note=72 velocity=100 time=0
the msg is note_off channel=0 note=74 velocity=0 time=25
the msg is note_on channel=0 note=74 velocity=100 time=0
the msg is note_off channel=0 note=74 velocity=0 time=12
the msg is note_on channel=0 note=74 velocity=100 time=0
the msg is note_off channel=0 note=71 velocity=0 time=12
the msg is note_on channel=0 note=71 velocity=100 time=0
the msg is note_off channel=0 note=74 velocity=0 time=25
the msg is note_on channel=0 note=74 velocity=100 time=0
the msg is note_off channel=0 note=74 velocity=0 time=12
the msg is note_on channel=0 note=74 velocity=100 time=0
the msg is note_off channel=0 note=71 velocity=0 time=12
the msg is note_on channel=0 note=71 velocity=100 time=0
the msg is note_off channel=0 note=71 velocity=0 time=12
the msg is note_on channel=0 note=71 velocity=100 time=0
the msg is note_off channel=0 note=69 velocity=0 time=12
the msg is note_on channel=0 note=69 velocity=100 time=0
the msg is note_off channel=0 note=72 velocity=0 time=115
the msg is note_on channel=0 note=72 velocity=100 time=0
the msg is note_off channel=0 note=72 velocity=0 time=34
the msg is note_on channel=0 note=72 velocity=100 time=0
the msg is note_off channel=0 note=72 velocity=0 time=4
the msg is note_on channel=0 note=72 velocity=100 time=0
the msg is note_off channel=0 note=72 velocity=0 time=12
the msg is note_on channel=0 note=72 velocity=100 time=0
the msg is note_off channel=0 note=72 velocity=0 time=17
the msg is note_on channel=0 note=72 velocity=100 time=0
the msg is note_off channel=0 note=76 velocity=0 time=17
the msg is note_on channel=0 note=76 velocity=100 time=0
the msg is note_off channel=0 note=79 velocity=0 time=17
the msg is note_on channel=0 note=79 velocity=100 time=0
the msg is note_off channel=0 note=76 velocity=0 time=34
the msg is note_on channel=0 note=76 velocity=100 time=0
the msg is note_off channel=0 note=79 velocity=0 time=17
the msg is note_on channel=0 note=79 velocity=100 time=0
the msg is note_off channel=0 note=79 velocity=0 time=17
the msg is note_on channel=0 note=79 velocity=100 time=0
the msg is note_off channel=0 note=76 velocity=0 time=17
the msg is note_on channel=0 note=76 velocity=100 time=0
the msg is note_off channel=0 note=74 velocity=0 time=4
the msg is note_on channel=0 note=74 velocity=100 time=0
the msg is note_off channel=0 note=72 velocity=0 time=12
the msg is note_on channel=0 note=72 velocity=100 time=0
the msg is note_off channel=0 note=74 velocity=0 time=34
the msg is note_on channel=0 note=74 velocity=100 time=0
the msg is note_off channel=0 note=74 velocity=0 time=17
the msg is note_on channel=0 note=74 velocity=100 time=0
the msg is note_off channel=0 note=74 velocity=0 time=34
the msg is note_on channel=0 note=74 velocity=100 time=0
the msg is note_off channel=0 note=76 velocity=0 time=17
the msg is note_on channel=0 note=76 velocity=100 time=0
the msg is note_off channel=0 note=79 velocity=0 time=34
the msg is note_on channel=0 note=79 velocity=100 time=0
the msg is note_off channel=0 note=79 velocity=0 time=17
the msg is note_off channel=0 note=76 velocity=0 time=0
the msg is note_on channel=0 note=79 velocity=100 time=0
the msg is note_on channel=0 note=76 velocity=100 time=0
the msg is note_off channel=0 note=74 velocity=0 time=25
the msg is note_on channel=0 note=74 velocity=100 time=0
the msg is note_off channel=0 note=72 velocity=0 time=8
the msg is note_on channel=0 note=72 velocity=100 time=0
the msg is note_off channel=0 note=74 velocity=0 time=17
the msg is note_on channel=0 note=74 velocity=100 time=0
the msg is note_off channel=0 note=76 velocity=0 time=34
the msg is note_on channel=0 note=76 velocity=100 time=0
the msg is note_off channel=0 note=72 velocity=0 time=4
the msg is note_on channel=0 note=72 velocity=100 time=0
the msg is note_off channel=0 note=74 velocity=0 time=12
the msg is note_on channel=0 note=74 velocity=100 time=0
the msg is note_off channel=0 note=74 velocity=0 time=34
the msg is note_on channel=0 note=74 velocity=100 time=0
the msg is note_off channel=0 note=74 velocity=0 time=17
the msg is note_on channel=0 note=74 velocity=100 time=0
the msg is note_off channel=0 note=74 velocity=0 time=17
the msg is note_on channel=0 note=74 velocity=100 time=0
the msg is note_off channel=0 note=71 velocity=0 time=17
the msg is note_on channel=0 note=71 velocity=100 time=0
the msg is note_off channel=0 note=74 velocity=0 time=17
the msg is note_on channel=0 note=74 velocity=100 time=0
the msg is note_off channel=0 note=74 velocity=0 time=34
the msg is note_on channel=0 note=74 velocity=100 time=0
the msg is note_off channel=0 note=72 velocity=0 time=4
the msg is note_on channel=0 note=72 velocity=100 time=0
the msg is note_off channel=0 note=74 velocity=0 time=29
the msg is note_on channel=0 note=74 velocity=100 time=0
the msg is note_off channel=0 note=74 velocity=0 time=21
the msg is note_on channel=0 note=74 velocity=100 time=0
the msg is note_off channel=0 note=74 velocity=0 time=12
the msg is note_on channel=0 note=74 velocity=100 time=0
the msg is note_off channel=0 note=71 velocity=0 time=17
the msg is note_on channel=0 note=71 velocity=100 time=0
the msg is note_off channel=0 note=74 velocity=0 time=8
the msg is note_on channel=0 note=74 velocity=100 time=0
the msg is note_off channel=0 note=76 velocity=0 time=25
the msg is note_on channel=0 note=76 velocity=100 time=0
the msg is note_off channel=0 note=79 velocity=0 time=25
the msg is note_on channel=0 note=79 velocity=100 time=0
the msg is note_off channel=0 note=72 velocity=0 time=12
the msg is note_on channel=0 note=72 velocity=100 time=0
the msg is note_off channel=0 note=72 velocity=0 time=12
the msg is note_on channel=0 note=72 velocity=100 time=0
the msg is note_off channel=0 note=72 velocity=0 time=12
the msg is note_on channel=0 note=72 velocity=100 time=0
the msg is note_off channel=0 note=72 velocity=0 time=25
the msg is note_on channel=0 note=72 velocity=100 time=0
the msg is note_off channel=0 note=72 velocity=0 time=12
the msg is note_on channel=0 note=72 velocity=100 time=0
the msg is note_off channel=0 note=72 velocity=0 time=12
the msg is note_on channel=0 note=72 velocity=100 time=0
the msg is <meta message end_of_track time=51>
the msg is <meta message track_name name='Acoustic Guitar' time=0>
the msg is program_change channel=0 program=24 time=0
the msg is note_off channel=0 note=69 velocity=0 time=0
the msg is pitchwheel channel=0 pitch=0 time=0
the msg is program_change channel=0 program=24 time=0
the msg is <meta message set_tempo tempo=500000 time=0>
the msg is <meta message time_signature numerator=4 denominator=4 clocks_per_click=24 notated_32nd_notes_per_beat=8 time=0>
the msg is note_on channel=0 note=69 velocity=100 time=0
the msg is note_off channel=0 note=72 velocity=0 time=166
the msg is note_on channel=0 note=72 velocity=100 time=0
the msg is note_off channel=0 note=72 velocity=0 time=12
the msg is note_on channel=0 note=72 velocity=100 time=0
the msg is note_off channel=0 note=72 velocity=0 time=12
the msg is note_on channel=0 note=72 velocity=100 time=0
the msg is note_off channel=0 note=72 velocity=0 time=25
the msg is note_on channel=0 note=72 velocity=100 time=0
the msg is note_off channel=0 note=74 velocity=0 time=25
the msg is note_on channel=0 note=74 velocity=100 time=0
the msg is note_off channel=0 note=74 velocity=0 time=12
the msg is note_on channel=0 note=74 velocity=100 time=0
the msg is note_off channel=0 note=71 velocity=0 time=12
the msg is note_on channel=0 note=71 velocity=100 time=0
the msg is note_off channel=0 note=74 velocity=0 time=25
the msg is note_on channel=0 note=74 velocity=100 time=0
the msg is note_off channel=0 note=74 velocity=0 time=12
the msg is note_on channel=0 note=74 velocity=100 time=0
the msg is note_off channel=0 note=71 velocity=0 time=12
the msg is note_on channel=0 note=71 velocity=100 time=0
the msg is note_off channel=0 note=71 velocity=0 time=12
the msg is note_on channel=0 note=71 velocity=100 time=0
the msg is note_off channel=0 note=69 velocity=0 time=12
the msg is note_on channel=0 note=69 velocity=100 time=0
the msg is note_off channel=0 note=72 velocity=0 time=115
the msg is note_on channel=0 note=72 velocity=100 time=0
the msg is note_off channel=0 note=72 velocity=0 time=34
the msg is note_on channel=0 note=72 velocity=100 time=0
the msg is note_off channel=0 note=72 velocity=0 time=4
the msg is note_on channel=0 note=72 velocity=100 time=0
the msg is note_off channel=0 note=72 velocity=0 time=12
the msg is note_on channel=0 note=72 velocity=100 time=0
the msg is note_off channel=0 note=72 velocity=0 time=17
the msg is note_on channel=0 note=72 velocity=100 time=0
the msg is note_off channel=0 note=76 velocity=0 time=17
the msg is note_on channel=0 note=76 velocity=100 time=0
the msg is note_off channel=0 note=79 velocity=0 time=17
the msg is note_on channel=0 note=79 velocity=100 time=0
the msg is note_off channel=0 note=76 velocity=0 time=34
the msg is note_on channel=0 note=76 velocity=100 time=0
the msg is note_off channel=0 note=79 velocity=0 time=17
the msg is note_on channel=0 note=79 velocity=100 time=0
the msg is note_off channel=0 note=79 velocity=0 time=17
the msg is note_on channel=0 note=79 velocity=100 time=0
the msg is note_off channel=0 note=76 velocity=0 time=17
the msg is note_on channel=0 note=76 velocity=100 time=0
the msg is note_off channel=0 note=74 velocity=0 time=4
the msg is note_on channel=0 note=74 velocity=100 time=0
the msg is note_off channel=0 note=72 velocity=0 time=12
the msg is note_on channel=0 note=72 velocity=100 time=0
the msg is note_off channel=0 note=74 velocity=0 time=34
the msg is note_on channel=0 note=74 velocity=100 time=0
the msg is note_off channel=0 note=74 velocity=0 time=17
the msg is note_on channel=0 note=74 velocity=100 time=0
the msg is note_off channel=0 note=74 velocity=0 time=34
the msg is note_on channel=0 note=74 velocity=100 time=0
the msg is note_off channel=0 note=76 velocity=0 time=17
the msg is note_on channel=0 note=76 velocity=100 time=0
the msg is note_off channel=0 note=79 velocity=0 time=34
the msg is note_on channel=0 note=79 velocity=100 time=0
the msg is note_off channel=0 note=79 velocity=0 time=17
the msg is note_off channel=0 note=76 velocity=0 time=0
the msg is note_on channel=0 note=79 velocity=100 time=0
the msg is note_on channel=0 note=76 velocity=100 time=0
the msg is note_off channel=0 note=74 velocity=0 time=25
the msg is note_on channel=0 note=74 velocity=100 time=0
the msg is note_off channel=0 note=72 velocity=0 time=8
the msg is note_on channel=0 note=72 velocity=100 time=0
the msg is note_off channel=0 note=74 velocity=0 time=17
the msg is note_on channel=0 note=74 velocity=100 time=0
the msg is note_off channel=0 note=76 velocity=0 time=34
the msg is note_on channel=0 note=76 velocity=100 time=0
the msg is note_off channel=0 note=72 velocity=0 time=4
the msg is note_on channel=0 note=72 velocity=100 time=0
the msg is note_off channel=0 note=74 velocity=0 time=12
the msg is note_on channel=0 note=74 velocity=100 time=0
the msg is note_off channel=0 note=74 velocity=0 time=34
the msg is note_on channel=0 note=74 velocity=100 time=0
the msg is note_off channel=0 note=74 velocity=0 time=17
the msg is note_on channel=0 note=74 velocity=100 time=0
the msg is note_off channel=0 note=74 velocity=0 time=17
the msg is note_on channel=0 note=74 velocity=100 time=0
the msg is note_off channel=0 note=71 velocity=0 time=17
the msg is note_on channel=0 note=71 velocity=100 time=0
the msg is note_off channel=0 note=74 velocity=0 time=17
the msg is note_on channel=0 note=74 velocity=100 time=0
the msg is note_off channel=0 note=74 velocity=0 time=34
the msg is note_on channel=0 note=74 velocity=100 time=0
the msg is note_off channel=0 note=72 velocity=0 time=4
the msg is note_on channel=0 note=72 velocity=100 time=0
the msg is note_off channel=0 note=74 velocity=0 time=29
the msg is note_on channel=0 note=74 velocity=100 time=0
the msg is note_off channel=0 note=74 velocity=0 time=21
the msg is note_on channel=0 note=74 velocity=100 time=0
the msg is note_off channel=0 note=74 velocity=0 time=12
the msg is note_on channel=0 note=74 velocity=100 time=0
the msg is note_off channel=0 note=71 velocity=0 time=17
the msg is note_on channel=0 note=71 velocity=100 time=0
the msg is note_off channel=0 note=74 velocity=0 time=8
the msg is note_on channel=0 note=74 velocity=100 time=0
the msg is note_off channel=0 note=76 velocity=0 time=25
the msg is note_on channel=0 note=76 velocity=100 time=0
the msg is note_off channel=0 note=79 velocity=0 time=25
the msg is note_on channel=0 note=79 velocity=100 time=0
the msg is note_off channel=0 note=72 velocity=0 time=12
the msg is note_on channel=0 note=72 velocity=100 time=0
the msg is note_off channel=0 note=72 velocity=0 time=12
the msg is note_on channel=0 note=72 velocity=100 time=0
the msg is note_off channel=0 note=72 velocity=0 time=12
the msg is note_on channel=0 note=72 velocity=100 time=0
the msg is note_off channel=0 note=72 velocity=0 time=25
the msg is note_on channel=0 note=72 velocity=100 time=0
the msg is note_off channel=0 note=72 velocity=0 time=12
the msg is note_on channel=0 note=72 velocity=100 time=0
the msg is note_off channel=0 note=72 velocity=0 time=12
the msg is note_on channel=0 note=72 velocity=100 time=0
the msg is <meta message end_of_track time=51>
